<svg xmlns="http://www.w3.org/2000/svg" viewBox="91 -10 394 734">
  <g transform="translate(0, 714) scale(1, -1)">
    <path fill="black" d="M353 644Q391 643 425.5 634.5Q460 626 485 615L459 542Q433 552 400.0 560.0Q367 568 340 568Q258 568 219.5 517.5Q181 467 181 363Q181 259 220.5 211.5Q260 164 336 164Q380 164 412.5 172.5Q445 181 476 194V117Q449 104 420.0 96.5Q391 89 352 87V-10H285V90Q226 99 182.5 129.0Q139 159 115.0 216.0Q91 273 91 362Q91 453 115.0 511.0Q139 569 183.0 600.0Q227 631 285 640V724H353Z" />
  </g>
</svg>