<svg xmlns="http://www.w3.org/2000/svg" viewBox="85 -10 501 775">
  <g transform="translate(0, 755) scale(1, -1)">
    <path fill="black" d="M522 617Q522 583 508.0 557.5Q494 532 473.0 512.5Q452 493 431.0 477.0Q410 461 396.0 445.5Q382 430 382 412Q382 399 388.5 388.0Q395 377 414.0 362.5Q433 348 470 323Q524 287 555.0 249.5Q586 212 586 153Q586 68 534.5 29.0Q483 -10 400 -10Q353 -10 317.0 -1.0Q281 8 255 24V103Q281 87 319.0 74.0Q357 61 397 61Q452 61 476.0 84.0Q500 107 500 147Q500 183 479.5 208.0Q459 233 406 267Q343 308 320.0 337.5Q297 367 297 407Q297 438 310.5 460.0Q324 482 344.5 498.5Q365 515 385.5 531.0Q406 547 419.5 566.0Q433 585 433 612Q433 654 397.5 673.0Q362 692 306 692Q271 692 240.5 682.5Q210 673 191.5 650.0Q173 627 173 584V0H85V584Q85 651 114.0 690.5Q143 730 193.0 747.5Q243 765 306 765Q403 765 462.5 728.0Q522 691 522 617Z" />
  </g>
</svg>