<svg xmlns="http://www.w3.org/2000/svg" viewBox="61 -240 540 964">
  <g transform="translate(0, 484) scale(1, -1)">
    <path fill="black" d="M403 645Q288 645 222.0 568.0Q156 491 156 357Q156 224 217.5 146.5Q279 69 402 69Q449 69 491.0 77.0Q533 85 573 97V19Q533 4 490.5 -3.0Q448 -10 389 -10Q280 -10 207.0 35.0Q134 80 97.5 163.0Q61 246 61 358Q61 466 100.5 548.5Q140 631 217.0 677.5Q294 724 404 724Q517 724 601 682L565 606Q532 621 491.5 633.0Q451 645 403 645ZM473 -139Q473 -187 436.0 -213.5Q399 -240 325 -240Q293 -240 275 -235V-180Q284 -182 299.0 -183.5Q314 -185 328 -185Q364 -185 383.0 -175.5Q402 -166 402 -141Q402 -115 375.5 -103.0Q349 -91 311 -86L354 0H412L386 -53Q422 -61 447.5 -81.0Q473 -101 473 -139Z" />
  </g>
</svg>