<svg xmlns="http://www.w3.org/2000/svg" viewBox="30 0 281 908">
  <g transform="translate(0, 908) scale(1, -1)">
    <path fill="black" d="M298 0H40V52L124 71V642L40 662V714H298V662L214 642V71L298 52ZM30 859Q30 885 44.0 896.5Q58 908 77 908Q96 908 110.0 896.5Q124 885 124 859Q124 834 110.0 821.5Q96 809 77 809Q58 809 44.0 821.5Q30 834 30 859ZM218 859Q218 885 231.5 896.5Q245 908 264 908Q283 908 297.0 896.5Q311 885 311 859Q311 834 297.0 821.5Q283 809 264 809Q245 809 231.5 821.5Q218 834 218 859Z" />
  </g>
</svg>