<svg xmlns="http://www.w3.org/2000/svg" viewBox="97 0 566 913">
  <g transform="translate(0, 913) scale(1, -1)">
    <path fill="black" d="M663 0H558L176 593H172Q174 558 177.0 506.0Q180 454 180 399V0H97V714H201L582 123H586Q585 139 583.5 171.0Q582 203 580.5 241.0Q579 279 579 311V714H663ZM197 784Q203 843 231.5 877.5Q260 912 307 912Q337 912 363.5 897.5Q390 883 414.0 869.0Q438 855 459 855Q482 855 494.5 869.5Q507 884 514 913H564Q558 855 530.0 820.0Q502 785 455 785Q427 785 400.5 799.0Q374 813 349.5 827.5Q325 842 303 842Q279 842 267.0 827.5Q255 813 248 784Z" />
  </g>
</svg>