<svg xmlns="http://www.w3.org/2000/svg" viewBox="85 0 452 735">
  <g transform="translate(0, 735) scale(1, -1)">
    <path fill="black" d="M343 546Q439 546 488.0 499.5Q537 453 537 349V0H450V343Q450 472 330 472Q241 472 207.0 422.0Q173 372 173 278V0H85V536H156L169 463H174Q200 505 246.0 525.5Q292 546 343 546ZM126 606Q132 665 160.5 699.5Q189 734 236 734Q266 734 292.5 719.5Q319 705 343.0 691.0Q367 677 388 677Q411 677 423.5 691.5Q436 706 443 735H493Q487 677 459.0 642.0Q431 607 384 607Q356 607 329.5 621.0Q303 635 278.5 649.5Q254 664 232 664Q208 664 196.0 649.5Q184 635 177 606Z" />
  </g>
</svg>