<svg xmlns="http://www.w3.org/2000/svg" viewBox="61 -31 659 777">
  <g transform="translate(0, 715) scale(1, -1)">
    <path fill="black" d="M720 358Q720 247 682.5 164.5Q645 82 572.0 36.0Q499 -10 391 -10Q279 -10 206 37L158 -31L97 9L149 83Q105 132 83.0 202.0Q61 272 61 359Q61 469 97.0 551.0Q133 633 206.5 679.0Q280 725 392 725Q444 725 488.5 713.0Q533 701 570 680L616 746L677 705L626 634Q720 535 720 358ZM156 358Q156 297 167.5 247.0Q179 197 203 160L522 611Q470 646 392 646Q271 646 213.5 569.5Q156 493 156 358ZM625 358Q625 487 574 560L254 106Q280 88 314.5 78.0Q349 68 391 68Q513 68 569.0 145.5Q625 223 625 358Z" />
  </g>
</svg>