<svg xmlns="http://www.w3.org/2000/svg" viewBox="90 -10 550 918">
  <g transform="translate(0, 898) scale(1, -1)">
    <path fill="black" d="M640 252Q640 178 610.0 118.5Q580 59 518.5 24.5Q457 -10 362 -10Q229 -10 159.5 62.5Q90 135 90 254V714H180V251Q180 164 226.5 116.0Q273 68 367 68Q464 68 507.5 119.5Q551 171 551 252V714H640ZM226 859Q226 885 240.0 896.5Q254 908 273 908Q292 908 306.0 896.5Q320 885 320 859Q320 834 306.0 821.5Q292 809 273 809Q254 809 240.0 821.5Q226 834 226 859ZM414 859Q414 885 427.5 896.5Q441 908 460 908Q479 908 493.0 896.5Q507 885 507 859Q507 834 493.0 821.5Q479 809 460 809Q441 809 427.5 821.5Q414 834 414 859Z" />
  </g>
</svg>