<svg xmlns="http://www.w3.org/2000/svg" viewBox="85 -240 475 1000">
  <g transform="translate(0, 520) scale(1, -1)">
    <path fill="black" d="M560 269Q560 132 499.5 61.0Q439 -10 340 -10Q277 -10 237.0 13.0Q197 36 173 68H167Q168 61 169.5 45.0Q171 29 172.0 12.0Q173 -5 173 -16V-240H85V760H173V536Q173 522 172.0 499.5Q171 477 170 464H174Q198 498 237.0 522.0Q276 546 340 546Q439 546 499.5 476.0Q560 406 560 269ZM469 270Q469 371 434.0 421.5Q399 472 325 472Q243 472 209.0 426.0Q175 380 173 288V269Q173 170 205.5 116.5Q238 63 326 63Q400 63 434.5 116.5Q469 170 469 270Z" />
  </g>
</svg>