<svg xmlns="http://www.w3.org/2000/svg" viewBox="46 -10 434 750">
  <g transform="translate(0, 730) scale(1, -1)">
    <path fill="black" d="M288 545Q386 545 433.0 502.0Q480 459 480 365V0H416L399 76H395Q360 32 321.5 11.0Q283 -10 215 -10Q142 -10 94.0 28.5Q46 67 46 149Q46 229 109.0 272.5Q172 316 303 320L394 323V355Q394 422 365.0 448.0Q336 474 283 474Q241 474 203.0 461.5Q165 449 132 433L105 499Q140 518 188.0 531.5Q236 545 288 545ZM314 259Q214 255 175.5 227.0Q137 199 137 148Q137 103 164.5 82.0Q192 61 235 61Q303 61 348.0 98.5Q393 136 393 214V262ZM436 740Q431 680 390.5 643.0Q350 606 278 606Q204 606 166.5 642.5Q129 679 125 740H179Q184 699 209.0 688.0Q234 677 280 677Q319 677 347.5 689.0Q376 701 381 740Z" />
  </g>
</svg>