<svg xmlns="http://www.w3.org/2000/svg" viewBox="55 -220 458 766">
  <g transform="translate(0, 326) scale(1, -1)">
    <path fill="black" d="M389 -116Q389 -161 434 -161Q451 -161 462.5 -158.5Q474 -156 482 -155V-211Q468 -215 454.0 -217.5Q440 -220 420 -220Q367 -220 342.0 -195.0Q317 -170 317 -126Q317 -92 337.5 -60.5Q358 -29 383 -6Q352 -10 313 -10Q237 -10 178.5 21.0Q120 52 87.5 113.5Q55 175 55 264Q55 352 84.5 415.0Q114 478 167.5 512.0Q221 546 292 546Q361 546 410.5 516.0Q460 486 486.5 431.5Q513 377 513 304V251H146Q148 160 192.5 112.5Q237 65 317 65Q368 65 407.5 74.5Q447 84 489 102V25Q449 -7 427.0 -31.0Q405 -55 397.0 -75.0Q389 -95 389 -116ZM291 474Q228 474 191.5 433.5Q155 393 148 321H421Q420 389 389.0 431.5Q358 474 291 474Z" />
  </g>
</svg>