<svg xmlns="http://www.w3.org/2000/svg" viewBox="78 -240 361 977">
  <g transform="translate(0, 497) scale(1, -1)">
    <path fill="black" d="M130 737Q150 737 165.5 723.5Q181 710 181 681Q181 653 165.5 639.0Q150 625 130 625Q108 625 93.0 639.0Q78 653 78 681Q78 710 93.0 723.5Q108 737 130 737ZM173 536V0H85V536ZM336 681Q336 710 351.0 723.5Q366 737 388 737Q408 737 423.5 723.5Q439 710 439 681Q439 653 423.5 639.0Q408 625 388 625Q366 625 351.0 639.0Q336 653 336 681ZM280 -240Q255 -240 236.0 -236.5Q217 -233 203 -228V-157Q218 -161 234.0 -164.0Q250 -167 269 -167Q301 -167 322.0 -149.5Q343 -132 343 -83V536H431V-80Q431 -155 395.0 -197.5Q359 -240 280 -240Z" />
  </g>
</svg>