<svg xmlns="http://www.w3.org/2000/svg" viewBox="97 0 566 944">
  <g transform="translate(0, 944) scale(1, -1)">
    <path fill="black" d="M663 0H558L176 593H172Q174 558 177.0 506.0Q180 454 180 399V0H97V714H201L582 123H586Q585 139 583.5 171.0Q582 203 580.5 241.0Q579 279 579 311V714H663ZM334 784Q321 807 299.0 833.5Q277 860 253.0 886.0Q229 912 211 931V944H271Q297 927 325.0 903.0Q353 879 378 852Q405 879 433.0 903.0Q461 927 487 944H549V931Q530 912 505.5 886.0Q481 860 458.5 833.5Q436 807 424 784Z" />
  </g>
</svg>