<svg xmlns="http://www.w3.org/2000/svg" viewBox="55 -10 496 776">
  <g transform="translate(0, 756) scale(1, -1)">
    <path fill="black" d="M551 269Q551 136 483.5 63.0Q416 -10 301 -10Q230 -10 174.5 22.5Q119 55 87.0 117.5Q55 180 55 269Q55 402 122.0 474.0Q189 546 304 546Q377 546 432.5 513.5Q488 481 519.5 419.5Q551 358 551 269ZM146 269Q146 174 183.5 118.5Q221 63 303 63Q384 63 422.0 118.5Q460 174 460 269Q460 364 422.0 418.0Q384 472 302 472Q220 472 183.0 418.0Q146 364 146 269ZM482 756Q472 739 449.0 710.0Q426 681 399.0 652.5Q372 624 349 606H299V618Q313 637 329.0 663.0Q345 689 360.5 716.5Q376 744 386 766H482ZM306 756Q296 739 273.0 710.0Q250 681 223.0 652.5Q196 624 173 606H123V618Q144 647 169.0 689.5Q194 732 210 766H306Z" />
  </g>
</svg>