<svg xmlns="http://www.w3.org/2000/svg" viewBox="71 0 338 766">
  <g transform="translate(0, 766) scale(1, -1)">
    <path fill="black" d="M335 546Q350 546 367.5 544.5Q385 543 398 540L387 459Q374 462 358.5 464.0Q343 466 329 466Q288 466 252.0 443.5Q216 421 194.5 380.5Q173 340 173 286V0H85V536H157L167 438H171Q197 482 238.0 514.0Q279 546 335 546ZM194 606Q181 629 159.0 655.5Q137 682 113.0 708.0Q89 734 71 753V766H131Q157 749 185.0 725.0Q213 701 238 674Q265 701 293.0 725.0Q321 749 347 766H409V753Q390 734 365.5 708.0Q341 682 318.5 655.5Q296 629 284 606Z" />
  </g>
</svg>