<svg xmlns="http://www.w3.org/2000/svg" viewBox="16 -10 454 770">
  <g transform="translate(0, 750) scale(1, -1)">
    <path fill="black" d="M264 62Q284 62 305.0 65.5Q326 69 339 73V6Q325 -1 299.0 -5.5Q273 -10 249 -10Q207 -10 171.5 4.5Q136 19 114.0 55.0Q92 91 92 156V468H16V510L93 545L128 659H180V536H335V468H180V158Q180 109 203.5 85.5Q227 62 264 62ZM470 751Q466 733 454.5 706.0Q443 679 428.0 650.5Q413 622 398 600H350V612Q357 631 363.5 657.5Q370 684 375.5 711.5Q381 739 383 760H470Z" />
  </g>
</svg>