<svg xmlns="http://www.w3.org/2000/svg" viewBox="79 -220 462 756">
  <g transform="translate(0, 316) scale(1, -1)">
    <path fill="black" d="M533 536V0H461L448 71H444Q418 29 372.0 9.5Q326 -10 274 -10Q177 -10 128.0 36.5Q79 83 79 185V536H168V191Q168 63 287 63Q376 63 410.5 113.0Q445 163 445 257V536ZM448 -116Q448 -161 493 -161Q510 -161 521.5 -158.5Q533 -156 541 -155V-211Q527 -215 513.0 -217.5Q499 -220 479 -220Q426 -220 401.0 -195.0Q376 -170 376 -126Q376 -97 390.5 -70.0Q405 -43 426.5 -21.0Q448 1 468 15L516 0Q482 -32 465.0 -58.5Q448 -85 448 -116Z" />
  </g>
</svg>