<svg xmlns="http://www.w3.org/2000/svg" viewBox="1 -240 509 1006">
  <g transform="translate(0, 526) scale(1, -1)">
    <path fill="black" d="M1 536H95L211 231Q226 191 238.0 154.5Q250 118 256 85H260Q266 110 279.0 150.5Q292 191 306 232L415 536H510L279 -74Q251 -150 206.5 -195.0Q162 -240 84 -240Q60 -240 42.0 -237.5Q24 -235 11 -232V-162Q22 -164 37.5 -166.0Q53 -168 70 -168Q116 -168 144.5 -142.0Q173 -116 189 -73L217 -2ZM230 766Q241 744 257.5 716.5Q274 689 292.5 663.0Q311 637 326 618V606H267Q244 624 215.0 652.5Q186 681 161.5 709.5Q137 738 125 756V766Z" />
  </g>
</svg>