<svg xmlns="http://www.w3.org/2000/svg" viewBox="100 -112 905 848">
  <g transform="translate(0, 624) scale(1, -1)">
    <path fill="black" d="M886 -112Q877 -22 868.0 48.0Q859 118 848.5 175.5Q838 233 824.0 283.0Q810 333 789 383Q813 379 836.5 376.0Q860 373 885 373Q862 511 837.0 598.5Q812 686 789 736Q818 732 846.5 729.5Q875 727 905 727Q930 727 955.0 729.0Q980 731 1005 736Q986 688 956.5 596.0Q927 504 912 373Q934 374 956.5 376.5Q979 379 1004 383Q979 325 959.0 254.0Q939 183 926.0 93.5Q913 4 907 -112ZM195 -112Q195 93 181.0 253.0Q167 413 145.0 533.0Q123 653 100 736Q151 724 205 724Q259 724 316 736Q293 653 271.0 533.5Q249 414 235.0 254.0Q221 94 221 -112ZM814 134Q760 181 721.0 214.0Q682 247 649 272Q582 264 533.0 255.0Q484 246 444.0 235.0Q404 224 366.0 210.5Q328 197 284 179Q294 229 294 284Q294 337 284 394Q332 374 382.0 358.0Q432 342 494.5 330.5Q557 319 644 312Q675 339 719.0 381.0Q763 423 803 469L820 459Q791 407 770.0 366.0Q749 325 729 293Q743 269 768.5 231.5Q794 194 830 147Z" />
  </g>
</svg>