<svg xmlns="http://www.w3.org/2000/svg" viewBox="100 -112 1045 848">
  <g transform="translate(0, 624) scale(1, -1)">
    <path fill="black" d="M1026 -112Q1017 -22 1008.0 48.0Q999 118 988.5 175.5Q978 233 964.0 283.0Q950 333 929 383Q953 379 976.5 376.0Q1000 373 1025 373Q1002 511 977.0 598.5Q952 686 929 736Q958 732 986.5 729.5Q1015 727 1045 727Q1070 727 1095.0 729.0Q1120 731 1145 736Q1126 688 1096.5 596.0Q1067 504 1052 373Q1074 374 1096.5 376.5Q1119 379 1144 383Q1119 325 1099.0 254.0Q1079 183 1066.0 93.5Q1053 4 1047 -112ZM195 -112Q195 93 181.0 253.0Q167 413 145.0 533.0Q123 653 100 736Q151 724 205 724Q259 724 316 736Q293 653 271.0 533.5Q249 414 235.0 254.0Q221 94 221 -112ZM853 -35V-29L785 31Q784 18 782.5 5.5Q781 -7 780 -18H771Q768 -1 765.0 17.0Q762 35 760 54L703 103Q702 90 700.5 77.5Q699 65 698 54H689Q686 71 683.5 88.5Q681 106 678 125L622 173L617 128H608L598 194L538 244Q537 234 536.0 224.0Q535 214 534 205H525L516 262Q462 307 412.0 345.5Q362 384 322.5 411.0Q283 438 260 448Q292 470 319.5 497.0Q347 524 373 562Q383 540 416.0 496.0Q449 452 496 396Q492 418 488.0 434.5Q484 451 480 459Q493 457 505.5 455.5Q518 454 531 454Q542 454 554.0 455.5Q566 457 578 459Q572 446 564.5 411.0Q557 376 550 332L583 296Q578 325 573.0 348.5Q568 372 563 382Q576 380 588.5 378.5Q601 377 614 377Q625 377 637.0 378.5Q649 380 661 382Q655 368 647.0 328.5Q639 289 631 242L667 202Q661 239 655.0 267.5Q649 296 644 308Q657 306 669.5 304.5Q682 303 695 303Q706 303 718.0 304.5Q730 306 742 308Q735 293 726.5 249.0Q718 205 710 155L752 111Q745 153 738.5 188.0Q732 223 726 236Q739 234 751.5 232.5Q764 231 777 231Q788 231 800.0 232.5Q812 234 824 236Q820 226 814.0 200.0Q808 174 802.0 140.0Q796 106 790 70L852 5Q851 69 845.5 139.5Q840 210 832 277Q779 320 721.5 367.0Q664 414 608.0 457.5Q552 501 502.5 534.0Q453 567 416 582Q449 605 477.0 633.0Q505 661 532 699Q544 670 575.0 625.0Q606 580 648.0 526.5Q690 473 737.0 418.5Q784 364 827 316Q817 385 804.5 442.5Q792 500 778 536Q799 532 819.5 530.0Q840 528 862 528Q882 528 904.0 530.0Q926 532 949 536Q938 510 927.5 461.5Q917 413 907.0 351.5Q897 290 890.0 222.5Q883 155 878.5 88.5Q874 22 874 -35Z" />
  </g>
</svg>