<svg xmlns="http://www.w3.org/2000/svg" viewBox="100 -112 1187 848">
  <g transform="translate(0, 624) scale(1, -1)">
    <path fill="black" d="M1168 -112Q1159 -22 1150.0 48.0Q1141 118 1130.5 175.5Q1120 233 1106.0 283.0Q1092 333 1071 383Q1095 379 1118.5 376.0Q1142 373 1167 373Q1144 511 1119.0 598.5Q1094 686 1071 736Q1100 732 1128.5 729.5Q1157 727 1187 727Q1212 727 1237.0 729.0Q1262 731 1287 736Q1268 688 1238.5 596.0Q1209 504 1194 373Q1216 374 1238.5 376.5Q1261 379 1286 383Q1261 325 1241.0 254.0Q1221 183 1208.0 93.5Q1195 4 1189 -112ZM195 -112Q195 93 181.0 253.0Q167 413 145.0 533.0Q123 653 100 736Q151 724 205 724Q259 724 316 736Q300 679 284.5 606.5Q269 534 256 443Q290 445 345.0 455.0Q400 465 468.0 480.5Q536 496 609.5 514.5Q683 533 754.5 552.5Q826 572 888 590Q884 604 879.5 616.0Q875 628 870 639Q921 627 975 627Q1029 627 1086 639Q1070 601 1053.5 548.5Q1037 496 1023.0 419.5Q1009 343 1000.0 235.0Q991 127 991 -22L1016 -31L1009 -55Q954 -38 874.5 -14.5Q795 9 705.5 34.0Q616 59 531 80Q527 46 525.0 11.0Q523 -24 521 -62H499Q495 -19 491.0 19.5Q487 58 482 93Q400 113 338.0 125.0Q276 137 238 137Q257 170 270.5 206.0Q284 242 291 288Q308 273 355.0 248.0Q402 223 466 193Q448 291 419 363Q373 341 339.0 322.5Q305 304 291 292Q285 328 275.5 358.0Q266 388 253 415Q239 309 230.0 177.5Q221 46 221 -112ZM965 -13Q965 0 964.5 12.5Q964 25 964 38Q930 50 887.0 66.0Q844 82 802.5 97.5Q761 113 729.5 123.5Q698 134 686 134Q699 154 711.0 175.0Q723 196 730 221Q737 212 763.0 192.5Q789 173 824.5 148.5Q860 124 897.0 99.0Q934 74 964 55Q963 84 962.0 112.0Q961 140 959 165Q917 180 870.0 196.0Q823 212 785.0 224.0Q747 236 731 236Q744 256 756.0 277.0Q768 298 775 323Q785 312 815.0 287.5Q845 263 884.0 235.0Q923 207 958 183Q955 244 949 295Q913 307 877.5 318.5Q842 330 814.5 337.5Q787 345 773 345Q786 365 798.0 386.0Q810 407 817 432Q828 418 865.5 387.5Q903 357 946 326Q942 353 939.0 377.5Q936 402 931 424Q851 447 815 449Q828 469 840.0 490.0Q852 511 859 536Q867 526 883.0 511.0Q899 496 920 478Q915 501 909.5 521.5Q904 542 898 561Q824 533 738.5 499.0Q653 465 571.0 430.5Q489 396 423 365Q443 361 462.5 359.5Q482 358 502 358Q522 358 544.0 360.0Q566 362 589 366Q558 289 540 160Q610 129 685.5 97.5Q761 66 833.5 37.5Q906 9 965 -13Z" />
  </g>
</svg>