<svg xmlns="http://www.w3.org/2000/svg" viewBox="100 -112 1417 848">
  <g transform="translate(0, 624) scale(1, -1)">
    <path fill="black" d="M195 -112Q195 93 181.0 253.0Q167 413 145.0 533.0Q123 653 100 736Q151 724 205 724Q259 724 316 736Q301 681 286.0 610.5Q271 540 258 452Q286 475 311 511Q330 474 355.5 434.5Q381 395 423 341Q468 380 526 435Q513 441 498.0 447.0Q483 453 466 460Q501 485 530.5 514.0Q560 543 589 583Q603 548 617.5 516.5Q632 485 653.5 451.0Q675 417 710 373L708 384Q737 372 768.0 360.0Q799 348 839 338Q833 384 825.0 422.5Q817 461 808 484Q837 478 865 478Q873 478 881.5 478.5Q890 479 899 480L898 484Q901 483 904.0 482.5Q907 482 910 482Q913 482 916.5 482.5Q920 483 924 484L922 480Q929 479 936.5 478.5Q944 478 951 478Q960 478 969.5 478.5Q979 479 989 480L988 484Q991 483 994.0 482.5Q997 482 1000 482Q1003 482 1006.5 482.5Q1010 483 1014 484L1012 480Q1019 479 1026.5 478.5Q1034 478 1041 478Q1050 478 1059.5 478.5Q1069 479 1079 480L1078 484Q1081 483 1084.0 482.5Q1087 482 1090 482Q1093 482 1096.5 482.5Q1100 483 1104 484L1102 480Q1110 479 1117.5 478.5Q1125 478 1133 478Q1161 478 1194 484Q1187 466 1179.5 432.5Q1172 399 1166 358Q1197 369 1224.0 380.0Q1251 391 1281 402Q1272 344 1272 292Q1272 238 1281 187Q1244 201 1214.0 213.5Q1184 226 1152 236Q1149 196 1147.0 157.5Q1145 119 1145 87H1127Q1127 122 1125.0 163.5Q1123 205 1119 247L1064 259Q1060 214 1057.5 169.5Q1055 125 1055 87H1037Q1037 126 1034.5 172.5Q1032 219 1027 266L975 272Q971 223 968.0 175.0Q965 127 965 87H947Q947 128 944.0 177.0Q941 226 936 275Q922 274 909.5 271.5Q897 269 885 267Q880 220 877.5 173.0Q875 126 875 87H857Q857 125 854.5 169.5Q852 214 848 259Q809 250 774.5 238.5Q740 227 708 214L711 231Q676 187 654.0 152.5Q632 118 617.5 87.0Q603 56 589 20Q560 61 530.5 89.5Q501 118 466 143L537 173L424 278Q385 229 361.0 193.5Q337 158 314 117Q299 142 279.5 162.0Q260 182 232 200Q266 218 302.0 243.5Q338 269 387 310Q347 346 315.5 369.5Q284 393 252 414Q238 308 229.5 177.0Q221 46 221 -112ZM1398 -112Q1389 -22 1380.0 48.0Q1371 118 1360.5 175.5Q1350 233 1336.0 283.0Q1322 333 1301 383Q1325 379 1348.5 376.0Q1372 373 1397 373Q1374 511 1349.0 598.5Q1324 686 1301 736Q1330 732 1358.5 729.5Q1387 727 1417 727Q1442 727 1467.0 729.0Q1492 731 1517 736Q1498 688 1468.5 596.0Q1439 504 1424 373Q1446 374 1468.5 376.5Q1491 379 1516 383Q1491 325 1471.0 254.0Q1451 183 1438.0 93.5Q1425 4 1419 -112ZM1073 333Q1083 335 1091.5 337.0Q1100 339 1109 341Q1105 369 1100.5 394.0Q1096 419 1091 440Q1086 418 1081.5 391.0Q1077 364 1073 333ZM981 319Q992 320 1002.0 321.5Q1012 323 1021 324Q1013 391 1001 440Q995 416 990.5 385.0Q986 354 981 319ZM931 321Q924 388 911 440Q906 418 901.5 388.5Q897 359 892 327ZM556 182Q590 198 626.0 220.5Q662 243 716 284Q716 292 716.0 301.0Q716 310 715 318Q658 362 621.0 385.0Q584 408 548 425Q518 391 493.5 362.0Q469 333 449 309Q471 282 497.5 250.5Q524 219 556 182Z" />
  </g>
</svg>