<svg xmlns="http://www.w3.org/2000/svg" viewBox="100 -112 1247 848">
  <g transform="translate(0, 624) scale(1, -1)">
    <path fill="black" d="M1228 -112Q1219 -22 1210.0 48.0Q1201 118 1190.5 175.5Q1180 233 1166.0 283.0Q1152 333 1131 383Q1155 379 1178.5 376.0Q1202 373 1227 373Q1212 465 1196.0 534.0Q1180 603 1163 652Q1148 614 1131.5 560.0Q1115 506 1101.5 427.5Q1088 349 1079.5 239.0Q1071 129 1071 -22H1045Q1045 28 1044.0 74.0Q1043 120 1041 161Q911 148 816.0 131.5Q721 115 646 84Q650 105 652.0 125.5Q654 146 654 167Q654 187 652.0 209.0Q650 231 646 254Q708 229 810.0 211.5Q912 194 1039 187Q1035 261 1028.5 320.5Q1022 380 1014 428Q896 416 806.5 399.5Q717 383 646 354Q650 375 652.0 395.5Q654 416 654 437Q654 457 652.0 479.0Q650 501 646 524Q704 500 798.5 483.5Q893 467 1008 459Q995 528 979.5 576.0Q964 624 950 659Q1001 647 1054 647Q1080 647 1107.0 650.0Q1134 653 1161 658Q1146 705 1131 736Q1160 732 1188.5 729.5Q1217 727 1247 727Q1272 727 1297.0 729.0Q1322 731 1347 736Q1328 688 1298.5 596.0Q1269 504 1254 373Q1276 374 1298.5 376.5Q1321 379 1346 383Q1321 325 1301.0 254.0Q1281 183 1268.0 93.5Q1255 4 1249 -112ZM195 -112Q195 93 181.0 253.0Q167 413 145.0 533.0Q123 653 100 736Q151 724 205 724Q259 724 316 736Q300 676 283.5 598.0Q267 520 253 422Q287 431 322.5 443.0Q358 455 403.0 474.5Q448 494 512 523Q502 567 490.5 600.0Q479 633 468 659Q519 647 573 647Q627 647 684 659Q670 624 655.0 577.0Q640 530 626.5 463.5Q613 397 603.0 305.0Q593 213 590 88Q616 72 644.5 55.0Q673 38 704 20L697 7Q668 21 641.5 33.5Q615 46 590 58Q589 39 589.0 19.0Q589 -1 589 -22H563Q563 2 562.5 25.5Q562 49 562 71Q537 83 514.0 93.0Q491 103 470 113Q468 81 466.5 47.0Q465 13 465 -22H443Q443 17 441.0 55.0Q439 93 435 129Q372 158 323.0 176.5Q274 195 231 205Q227 134 224.0 55.0Q221 -24 221 -112ZM455 427Q494 427 531 433Q529 450 525.5 465.0Q522 480 519 493Q490 475 465.0 459.0Q440 443 419 428Q428 427 437.0 427.0Q446 427 455 427ZM561 106Q558 205 551.0 282.5Q544 360 533 421Q514 369 498.5 303.0Q483 237 475 160Q495 147 516.5 133.5Q538 120 561 106ZM428 191Q420 254 407.5 308.0Q395 362 381 402Q346 377 320.0 355.0Q294 333 272 311Q322 262 428 191ZM234 237Q255 268 268 311Q259 341 246 364Q243 334 239.5 302.5Q236 271 234 237Z" />
  </g>
</svg>