<svg xmlns="http://www.w3.org/2000/svg" viewBox="100 -144 1132 880">
  <g transform="translate(0, 592) scale(1, -1)">
    <path fill="black" d="M439 -144Q437 -124 435.0 -100.0Q433 -76 431 -49Q328 -63 250.5 -82.0Q173 -101 100 -131Q110 -81 110 -26Q110 27 100 84Q142 65 200 50Q202 62 203.0 73.5Q204 85 204 97Q204 108 202.5 119.5Q201 131 199 143H198V146Q200 160 201.5 174.0Q203 188 203 201Q203 212 202.0 223.0Q201 234 199 245H198V248Q200 262 201.5 275.5Q203 289 203 302Q203 313 202.0 324.0Q201 335 199 347H198V350Q200 364 202.0 378.0Q204 392 204 406Q204 417 202.5 428.0Q201 439 199 450H198V453Q200 467 202.0 481.0Q204 495 204 509Q204 526 201 542Q142 530 100 519Q112 576 112 630Q112 684 100 735Q162 718 259.0 701.0Q356 684 480.0 670.5Q604 657 746.0 648.5Q888 640 1039 640L1016 736Q1067 724 1121 724Q1175 724 1232 736Q1209 653 1187.0 526.0Q1165 399 1151.0 231.5Q1137 64 1137 -142H1111Q1111 -18 1105.5 92.5Q1100 203 1090 300Q1088 276 1087.0 251.0Q1086 226 1086 201Q1086 155 1089.0 113.0Q1092 71 1098 39Q1076 60 1035.0 87.0Q994 114 924.5 138.0Q855 162 747 174Q658 164 593.5 148.5Q529 133 482 113Q486 134 488.0 155.0Q490 176 490 198Q490 215 488.5 232.0Q487 249 485 267Q474 131 468 6Q500 3 534.0 1.0Q568 -1 605 -3V-29Q567 -33 532.0 -36.5Q497 -40 465 -45Q464 -73 463.0 -98.5Q462 -124 461 -144ZM911 256Q973 276 1012.5 300.5Q1052 325 1085 349Q1077 426 1066.0 492.5Q1055 559 1044 614Q1018 614 992.0 613.5Q966 613 940 612Q921 584 908.5 559.5Q896 535 882 512Q896 489 908.5 464.0Q921 439 940 411L939 409Q920 381 908.0 356.5Q896 332 882 309Q890 296 897.0 283.0Q904 270 911 256ZM804 230Q842 236 874 245Q851 266 834.0 279.5Q817 293 794 309Q815 326 841.5 346.0Q868 366 916 409Q885 438 866.0 455.0Q847 472 831.0 485.0Q815 498 794 512Q815 529 841.5 549.0Q868 569 916 612Q891 611 866.0 610.5Q841 610 816 608Q798 581 786.5 558.0Q775 535 761 512Q775 489 787.5 464.0Q800 439 819 411L818 409Q799 381 787.0 356.5Q775 332 761 309Q772 290 781.5 270.5Q791 251 804 230ZM770 229Q738 258 719.0 274.5Q700 291 673 309Q694 326 720.5 346.0Q747 366 795 409Q764 438 745.0 455.0Q726 472 710.0 485.0Q694 498 673 512Q693 529 718.5 548.0Q744 567 789 607L691 601Q675 576 664.0 554.5Q653 533 640 512Q654 489 666.5 464.0Q679 439 698 411L697 409Q678 381 666.0 356.5Q654 332 640 309Q650 293 659.0 275.5Q668 258 678 240Q699 237 722.0 234.0Q745 231 770 229ZM629 247Q607 267 591.0 280.5Q575 294 552 309Q573 326 599.5 346.0Q626 366 674 409Q643 438 624.0 455.0Q605 472 589.0 485.0Q573 498 552 512Q572 529 595.5 546.5Q619 564 660 599Q591 595 524 587Q517 561 510.0 514.5Q503 468 497.0 408.5Q491 349 486 282Q512 272 547.5 263.5Q583 255 629 247ZM378 522Q376 536 373.0 547.5Q370 559 368 569Q330 564 296.0 558.5Q262 553 230 547Q257 541 297.0 534.5Q337 528 378 522ZM393 417 384 484Q327 476 275.0 467.5Q223 459 202 451Q216 446 246.0 440.0Q276 434 315.0 428.5Q354 423 393 417ZM404 311 396 383Q357 378 318.0 372.0Q279 366 248.5 360.5Q218 355 203 349Q219 343 251.5 336.5Q284 330 324.0 323.5Q364 317 404 311ZM412 208 406 283Q366 277 325.5 271.0Q285 265 252.5 259.0Q220 253 203 247Q220 241 254.0 234.0Q288 227 330.0 220.5Q372 214 412 208ZM420 103 414 182Q373 177 330.5 170.5Q288 164 254.0 157.5Q220 151 203 145Q221 139 256.5 131.5Q292 124 335.5 116.5Q379 109 420 103ZM427 11Q426 28 424.5 46.0Q423 64 422 82Q384 77 344.5 70.5Q305 64 271.5 58.0Q238 52 216 46Q261 35 313.5 26.5Q366 18 427 11Z" />
  </g>
</svg>