<svg xmlns="http://www.w3.org/2000/svg" viewBox="100 -112 1248 848">
  <g transform="translate(0, 624) scale(1, -1)">
    <path fill="black" d="M1227 -112V-106Q1114 -68 1028.0 -45.0Q942 -22 875.5 -9.5Q809 3 755.0 9.0Q701 15 652.5 17.5Q604 20 553 23Q578 64 595 109Q432 91 313.0 70.0Q194 49 100 11Q110 61 110 116Q110 169 100 226Q180 193 311.5 171.0Q443 149 606 140Q612 162 616.5 183.5Q621 205 623 227Q665 198 704.0 170.0Q743 142 788.5 114.0Q834 86 893.5 56.0Q953 26 1034.0 -7.5Q1115 -41 1227 -79Q1226 160 1205.0 336.0Q1184 512 1157 634Q1022 582 924.0 533.5Q826 485 754.0 440.5Q682 396 623 355Q621 376 617.0 397.5Q613 419 606 440Q438 422 316.5 401.0Q195 380 100 341Q110 391 110 446Q110 499 100 556Q178 523 307.0 502.0Q436 481 596 471Q588 494 577.0 515.5Q566 537 553 559Q625 564 709.5 573.0Q794 582 901.5 604.0Q1009 626 1150 667Q1146 686 1141.5 703.0Q1137 720 1132 736Q1183 724 1237 724Q1291 724 1348 736Q1325 653 1303.0 533.5Q1281 414 1267.0 254.0Q1253 94 1253 -112Z" />
  </g>
</svg>