<svg xmlns="http://www.w3.org/2000/svg" viewBox="100 -112 1248 848">
  <g transform="translate(0, 624) scale(1, -1)">
    <path fill="black" d="M1227 -112V-106Q1114 -68 1028.0 -45.0Q942 -22 875.5 -9.5Q809 3 755.0 9.0Q701 15 652.5 17.5Q604 20 553 23Q578 64 595 109Q432 91 313.0 70.0Q194 49 100 11Q110 61 110 116Q110 169 100 226Q180 193 311.5 171.0Q443 149 606 140Q612 162 616.5 183.5Q621 205 623 227Q665 198 704.0 170.0Q743 142 788.5 114.0Q834 86 893.5 56.0Q953 26 1034.0 -7.5Q1115 -41 1227 -79Q1226 -14 1224.0 47.0Q1222 108 1219 164Q1190 160 1149.5 156.5Q1109 153 1065 148L1058 66H1036Q1035 86 1034.5 105.5Q1034 125 1032 144Q970 138 918.5 131.0Q867 124 853 118Q855 132 857.0 146.5Q859 161 859 175Q859 199 853 224Q867 219 917.0 212.0Q967 205 1028 198L1023 253Q963 247 915.0 240.5Q867 234 853 228Q855 242 857.0 256.5Q859 271 859 285Q859 309 853 334Q866 329 912.0 322.5Q958 316 1016 309Q1015 323 1013.0 335.5Q1011 348 1009 361Q954 355 910.0 349.0Q866 343 853 338Q855 352 857.0 367.0Q859 382 859 396Q859 420 853 445Q865 440 906.0 434.0Q947 428 999 421Q992 459 984.5 490.0Q977 521 968 543Q991 539 1013.0 537.0Q1035 535 1055 535Q1076 535 1096.5 537.0Q1117 539 1138 543Q1127 515 1118.0 481.5Q1109 448 1101 410L1197 400Q1189 468 1178.5 526.0Q1168 584 1157 634Q1022 582 924.0 533.5Q826 485 754.0 440.5Q682 396 623 355Q621 376 617.0 397.5Q613 419 606 440Q438 422 316.5 401.0Q195 380 100 341Q110 391 110 446Q110 499 100 556Q178 523 307.0 502.0Q436 481 596 471Q588 494 577.0 515.5Q566 537 553 559Q625 564 709.5 573.0Q794 582 901.5 604.0Q1009 626 1150 667Q1146 686 1141.5 703.0Q1137 720 1132 736Q1183 724 1237 724Q1291 724 1348 736Q1325 653 1303.0 533.5Q1281 414 1267.0 254.0Q1253 94 1253 -112ZM1209 289Q1207 313 1204.5 336.0Q1202 359 1199 381L1094 370Q1091 354 1088.0 336.5Q1085 319 1083 301ZM1218 178 1211 273Q1184 269 1149.5 266.0Q1115 263 1078 259L1070 193Z" />
  </g>
</svg>