<svg xmlns="http://www.w3.org/2000/svg" viewBox="100 -112 1248 848">
  <g transform="translate(0, 624) scale(1, -1)">
    <path fill="black" d="M1227 -112V-106Q1114 -68 1028.0 -45.0Q942 -22 875.5 -9.5Q809 3 755.0 9.0Q701 15 652.5 17.5Q604 20 553 23Q578 64 595 109Q432 91 313.0 70.0Q194 49 100 11Q110 61 110 116Q110 169 100 226Q180 193 311.5 171.0Q443 149 606 140Q612 162 616.5 183.5Q621 205 623 227Q665 198 704.0 170.0Q743 142 788.5 114.0Q834 86 893.5 56.0Q953 26 1034.0 -7.5Q1115 -41 1227 -79Q1226 60 1218.0 177.5Q1210 295 1198 393Q1177 331 1161.5 246.5Q1146 162 1146 45H1126Q1113 56 1098.0 69.0Q1083 82 1068 95L1064 41H1056L1050 110L1024 131Q1023 116 1022.0 103.0Q1021 90 1020 81H1011Q1010 92 1008.5 109.5Q1007 127 1005 147Q997 153 989.0 159.5Q981 166 973 173L969 118H960L953 189L921 215L916 155H907L899 232Q859 265 824.0 292.0Q789 319 765.0 336.5Q741 354 733 357Q745 367 761.5 384.0Q778 401 794.0 419.0Q810 437 820 448Q824 440 841.0 415.5Q858 391 884 356Q883 362 882.0 366.0Q881 370 880 372Q889 371 898.0 370.5Q907 370 916 370Q921 370 927.0 370.5Q933 371 939 372Q937 366 934.0 346.0Q931 326 929 299L943 282Q940 302 937.5 316.0Q935 330 933 335Q942 334 951.0 333.5Q960 333 969 333Q974 333 980.0 333.5Q986 334 992 335Q988 325 985 298Q994 297 1002.5 296.5Q1011 296 1020 296Q1025 296 1031.0 296.5Q1037 297 1043 298Q1042 294 1040.0 282.5Q1038 271 1036 254Q1043 253 1049.5 253.0Q1056 253 1063 253Q1069 253 1075.0 253.5Q1081 254 1088 255Q1084 246 1079.5 208.0Q1075 170 1071 128Q1085 112 1098.5 96.5Q1112 81 1126 66Q1125 131 1118.5 185.5Q1112 240 1103 286Q1072 308 1036.0 334.0Q1000 360 966.0 384.5Q932 409 906.5 426.5Q881 444 872 449Q889 465 907.5 480.5Q926 496 940 518Q944 509 959.5 488.5Q975 468 997.0 440.5Q1019 413 1044.5 383.0Q1070 353 1093 326Q1083 364 1072.5 395.0Q1062 426 1051 453Q1075 449 1097.0 447.0Q1119 445 1139 445Q1165 445 1190 448Q1175 553 1157 634Q1022 582 924.0 533.5Q826 485 754.0 440.5Q682 396 623 355Q621 376 617.0 397.5Q613 419 606 440Q438 422 316.5 401.0Q195 380 100 341Q110 391 110 446Q110 499 100 556Q178 523 307.0 502.0Q436 481 596 471Q588 494 577.0 515.5Q566 537 553 559Q625 564 709.5 573.0Q794 582 901.5 604.0Q1009 626 1150 667Q1146 686 1141.5 703.0Q1137 720 1132 736Q1183 724 1237 724Q1291 724 1348 736Q1325 653 1303.0 533.5Q1281 414 1267.0 254.0Q1253 94 1253 -112ZM997 215Q994 243 991.0 264.5Q988 286 985 295L979 237ZM1044 160Q1042 183 1039.0 203.0Q1036 223 1034 236L1028 178Z" />
  </g>
</svg>