<svg xmlns="http://www.w3.org/2000/svg" viewBox="100 -112 1248 848">
  <g transform="translate(0, 624) scale(1, -1)">
    <path fill="black" d="M1227 -112V-106Q1114 -68 1028.0 -45.0Q942 -22 875.5 -9.5Q809 3 755.0 9.0Q701 15 652.5 17.5Q604 20 553 23Q578 64 595 109Q432 91 313.0 70.0Q194 49 100 11Q110 61 110 116Q110 169 100 226Q180 193 311.5 171.0Q443 149 606 140Q612 162 616.5 183.5Q621 205 623 227Q668 196 709.5 166.5Q751 137 801.0 106.5Q851 76 919 43Q919 75 913.5 118.0Q908 161 900.0 204.5Q892 248 884.0 282.0Q876 316 871 329Q882 326 891.5 325.0Q901 324 911 323Q904 377 893.5 430.0Q883 483 875 508Q796 467 735.0 428.5Q674 390 623 355Q621 376 617.0 397.5Q613 419 606 440Q438 422 316.5 401.0Q195 380 100 341Q110 391 110 446Q110 499 100 556Q178 523 307.0 502.0Q436 481 596 471Q588 494 577.0 515.5Q566 537 553 559Q625 564 709.5 573.0Q794 582 901.5 604.0Q1009 626 1150 667Q1146 686 1141.5 703.0Q1137 720 1132 736Q1183 724 1237 724Q1291 724 1348 736Q1325 653 1303.0 533.5Q1281 414 1267.0 254.0Q1253 94 1253 -112ZM956 243Q969 253 984.5 266.0Q1000 279 1021 297Q1018 308 1015.5 316.0Q1013 324 1011 329Q1022 326 1031.5 325.0Q1041 324 1051 323Q1046 364 1038.5 404.5Q1031 445 1023.5 476.0Q1016 507 1011 519Q1037 513 1060 513Q1074 513 1089.0 515.0Q1104 517 1118 519Q1113 508 1106.0 480.0Q1099 452 1092.5 416.0Q1086 380 1080 342Q1099 357 1124.5 377.0Q1150 397 1192 434Q1185 491 1175.5 541.0Q1166 591 1157 634Q999 572 888 515Q896 514 903.5 513.5Q911 513 918 513Q933 513 948.0 515.0Q963 517 978 519Q973 507 965.5 475.5Q958 444 950.5 404.0Q943 364 938 324Q948 325 958.0 326.0Q968 327 978 329Q974 319 968.0 296.0Q962 273 956 243ZM1227 -79Q1226 67 1217.5 188.5Q1209 310 1196 410Q1182 387 1171.0 366.0Q1160 345 1149 325Q1163 302 1175.5 276.5Q1188 251 1207 222L1194 211Q1162 240 1142.5 258.5Q1123 277 1106 290Q1098 258 1089.5 211.0Q1081 164 1075.5 117.5Q1070 71 1070 38H1059Q1059 67 1054.5 107.0Q1050 147 1043.0 189.0Q1036 231 1028 265L994 202Q1008 179 1020.5 153.5Q1033 128 1052 99L1039 88Q1003 120 982.0 139.5Q961 159 944 174Q938 137 934.0 100.5Q930 64 930 38Q1039 -15 1227 -79Z" />
  </g>
</svg>