<svg xmlns="http://www.w3.org/2000/svg" viewBox="100 -112 1248 848">
  <g transform="translate(0, 624) scale(1, -1)">
    <path fill="black" d="M1227 -112V-106Q1114 -68 1028.0 -45.0Q942 -22 875.5 -9.5Q809 3 755.0 9.0Q701 15 652.5 17.5Q604 20 553 23Q578 64 595 109Q432 91 313.0 70.0Q194 49 100 11Q110 61 110 116Q110 169 100 226Q180 193 311.5 171.0Q443 149 606 140Q612 162 616.5 183.5Q621 205 623 227Q665 198 704.0 170.0Q743 142 788.5 114.0Q834 86 893.5 56.0Q953 26 1034.0 -7.5Q1115 -41 1227 -79Q1226 88 1215.0 223.5Q1204 359 1188 467Q1181 448 1173.0 426.5Q1165 405 1156 376Q1165 377 1174.5 378.5Q1184 380 1194 381Q1183 354 1171.5 323.5Q1160 293 1146 240H1136Q1122 293 1110.0 324.0Q1098 355 1087 381Q1107 377 1126 375Q1115 411 1105.5 435.0Q1096 459 1087 481Q1100 477 1112.5 476.0Q1125 475 1137 475Q1149 475 1161.0 476.0Q1173 477 1186 479Q1179 523 1172.0 561.5Q1165 600 1157 634Q1022 582 924.0 533.5Q826 485 754.0 440.5Q682 396 623 355Q621 376 617.0 397.5Q613 419 606 440Q438 422 316.5 401.0Q195 380 100 341Q110 391 110 446Q110 499 100 556Q178 523 307.0 502.0Q436 481 596 471Q588 494 577.0 515.5Q566 537 553 559Q625 564 709.5 573.0Q794 582 901.5 604.0Q1009 626 1150 667Q1146 686 1141.5 703.0Q1137 720 1132 736Q1183 724 1237 724Q1291 724 1348 736Q1325 653 1303.0 533.5Q1281 414 1267.0 254.0Q1253 94 1253 -112ZM1012 59Q1012 87 995.5 121.5Q979 156 956.5 190.0Q934 224 915 250Q943 247 967.0 245.0Q991 243 1016 242Q1003 294 991.0 324.5Q979 355 968 381Q988 377 1007 375Q996 411 986.5 435.0Q977 459 968 481Q994 475 1017 475Q1031 475 1046.0 477.0Q1061 479 1075 481Q1066 459 1057.0 435.0Q1048 411 1037 376Q1046 377 1055.5 378.5Q1065 380 1075 381Q1064 354 1052.5 324.0Q1041 294 1027 242Q1050 243 1074.5 245.5Q1099 248 1128 253Q1109 227 1087.0 190.0Q1065 153 1049.5 117.0Q1034 81 1034 59ZM897 240Q883 293 871.0 324.0Q859 355 848 381Q868 377 887 375Q876 411 866.5 435.0Q857 459 848 481Q874 475 897 475Q911 475 926.0 477.0Q941 479 955 481Q946 459 937.0 435.0Q928 411 917 376Q926 377 935.5 378.5Q945 380 955 381Q944 354 932.5 323.5Q921 293 907 240Z" />
  </g>
</svg>