<svg xmlns="http://www.w3.org/2000/svg" viewBox="100 -112 1248 848">
  <g transform="translate(0, 624) scale(1, -1)">
    <path fill="black" d="M1227 -112V-106Q1114 -68 1028.0 -45.0Q942 -22 875.5 -9.5Q809 3 755.0 9.0Q701 15 652.5 17.5Q604 20 553 23Q578 64 595 109Q432 91 313.0 70.0Q194 49 100 11Q110 61 110 116Q110 169 100 226Q180 193 311.5 171.0Q443 149 606 140Q612 162 616.5 183.5Q621 205 623 227Q665 198 704.0 170.0Q743 142 788.5 114.0Q834 86 893.5 56.0Q953 26 1034.0 -7.5Q1115 -41 1227 -79Q1226 94 1214.0 234.0Q1202 374 1185 484Q1180 454 1174.5 404.0Q1169 354 1163.5 297.5Q1158 241 1153.0 190.5Q1148 140 1144 109H1134Q1133 116 1132.0 125.0Q1131 134 1130 144Q1094 139 1051.5 133.5Q1009 128 968.5 122.0Q928 116 897.0 110.0Q866 104 853 98Q855 112 857.0 126.5Q859 141 859 155Q859 179 853 204Q855 203 857.5 202.0Q860 201 864 200Q861 225 858.0 256.5Q855 288 851.5 319.0Q848 350 844.5 373.5Q841 397 838 405L855 403Q858 424 858 446Q858 458 857.0 470.0Q856 482 853 495Q867 489 907.0 481.5Q947 474 998.5 467.0Q1050 460 1097 454Q1094 474 1091.0 489.0Q1088 504 1086 510Q1112 504 1136 504Q1147 504 1158.5 505.5Q1170 507 1181 508Q1176 543 1169.5 574.5Q1163 606 1157 634Q1022 582 924.0 533.5Q826 485 754.0 440.5Q682 396 623 355Q621 376 617.0 397.5Q613 419 606 440Q438 422 316.5 401.0Q195 380 100 341Q110 391 110 446Q110 499 100 556Q178 523 307.0 502.0Q436 481 596 471Q588 494 577.0 515.5Q566 537 553 559Q625 564 709.5 573.0Q794 582 901.5 604.0Q1009 626 1150 667Q1146 686 1141.5 703.0Q1137 720 1132 736Q1183 724 1237 724Q1291 724 1348 736Q1325 653 1303.0 533.5Q1281 414 1267.0 254.0Q1253 94 1253 -112ZM1129 157Q1125 195 1120.0 243.0Q1115 291 1110.0 339.5Q1105 388 1100 427Q1051 421 996.5 414.0Q942 407 903 400Q900 388 896.5 363.5Q893 339 889.0 309.0Q885 279 882.0 249.0Q879 219 876 197Q904 191 948.5 183.0Q993 175 1041.5 168.5Q1090 162 1129 157Z" />
  </g>
</svg>