<svg xmlns="http://www.w3.org/2000/svg" viewBox="100 -112 1248 848">
  <g transform="translate(0, 624) scale(1, -1)">
    <path fill="black" d="M1227 -112V-106Q1114 -68 1028.0 -45.0Q942 -22 875.5 -9.5Q809 3 755.0 9.0Q701 15 652.5 17.5Q604 20 553 23Q578 64 595 109Q432 91 313.0 70.0Q194 49 100 11Q110 61 110 116Q110 169 100 226Q180 193 311.5 171.0Q443 149 606 140Q612 162 616.5 183.5Q621 205 623 227Q665 198 704.0 170.0Q743 142 788.5 114.0Q834 86 893.5 56.0Q953 26 1034.0 -7.5Q1115 -41 1227 -79Q1226 97 1213.5 239.0Q1201 381 1184 492Q1168 467 1156.5 444.5Q1145 422 1133 400Q1147 377 1162.5 346.0Q1178 315 1197 286V269Q1178 240 1162.5 209.5Q1147 179 1133 155Q1147 132 1159.5 106.5Q1172 81 1191 52L1178 41Q1142 74 1121.0 93.5Q1100 113 1083.5 126.5Q1067 140 1044 155Q1065 174 1095.0 199.0Q1125 224 1175 268Q1132 267 1071.5 262.5Q1011 258 945.0 251.5Q879 245 819.5 238.0Q760 231 718.0 224.5Q676 218 664 213Q665 228 665.5 244.5Q666 261 666 277Q666 294 665.5 310.0Q665 326 664 342Q673 338 700.5 333.0Q728 328 767 323Q791 367 811.0 408.5Q831 450 835 466Q851 449 869.5 436.0Q888 423 906 412Q903 411 899.0 408.5Q895 406 891 402Q902 391 917 381Q923 385 929.0 390.0Q935 395 941 400Q909 431 892 439Q910 450 928.5 463.0Q947 476 963 493Q965 482 975.5 459.0Q986 436 1001.0 406.5Q1016 377 1032.5 347.0Q1049 317 1064 292Q1095 290 1122.0 288.5Q1149 287 1171 286Q1140 315 1119.5 335.0Q1099 355 1082.0 370.5Q1065 386 1044 400Q1059 413 1076.0 426.0Q1093 439 1117.5 459.0Q1142 479 1178 511L1181 509Q1176 543 1169.5 574.5Q1163 606 1157 634Q1022 582 924.0 533.5Q826 485 754.0 440.5Q682 396 623 355Q621 376 617.0 397.5Q613 419 606 440Q438 422 316.5 401.0Q195 380 100 341Q110 391 110 446Q110 499 100 556Q178 523 307.0 502.0Q436 481 596 471Q588 494 577.0 515.5Q566 537 553 559Q625 564 709.5 573.0Q794 582 901.5 604.0Q1009 626 1150 667Q1146 686 1141.5 703.0Q1137 720 1132 736Q1183 724 1237 724Q1291 724 1348 736Q1325 653 1303.0 533.5Q1281 414 1267.0 254.0Q1253 94 1253 -112ZM839 314Q853 338 865.5 361.0Q878 384 884 397Q868 384 846.0 363.0Q824 342 801 319ZM1047 294Q1025 317 1000.5 341.5Q976 366 953 388Q961 371 975.5 346.0Q990 321 1005 297ZM977 300Q960 316 944.5 331.5Q929 347 917 357Q896 339 868 311Q894 308 921.5 305.0Q949 302 977 300Z" />
  </g>
</svg>