<svg xmlns="http://www.w3.org/2000/svg" viewBox="100 -112 1248 848">
  <g transform="translate(0, 624) scale(1, -1)">
    <path fill="black" d="M1227 -112V-106Q1114 -68 1028.0 -45.0Q942 -22 875.5 -9.5Q809 3 755.0 9.0Q701 15 652.5 17.5Q604 20 553 23Q578 64 595 109Q432 91 313.0 70.0Q194 49 100 11Q110 61 110 116Q110 169 100 226Q180 193 311.5 171.0Q443 149 606 140Q612 162 616.5 183.5Q621 205 623 227Q665 198 704.0 170.0Q743 142 788.5 114.0Q834 86 893.5 56.0Q953 26 1034.0 -7.5Q1115 -41 1227 -79Q1226 160 1205.0 336.0Q1184 512 1157 634Q1022 582 924.0 533.5Q826 485 754.0 440.5Q682 396 623 355Q621 376 617.0 397.5Q613 419 606 440Q438 422 316.5 401.0Q195 380 100 341Q110 391 110 446Q110 499 100 556Q178 523 307.0 502.0Q436 481 596 471Q588 494 577.0 515.5Q566 537 553 559Q625 564 709.5 573.0Q794 582 901.5 604.0Q1009 626 1150 667Q1146 686 1141.5 703.0Q1137 720 1132 736Q1183 724 1237 724Q1291 724 1348 736Q1325 653 1303.0 533.5Q1281 414 1267.0 254.0Q1253 94 1253 -112ZM935 111Q859 179 807.0 221.0Q755 263 710 296Q732 315 767.5 346.5Q803 378 844.0 418.5Q885 459 922 502L942 491Q911 436 888.0 392.0Q865 348 845 312Q869 333 902.0 362.5Q935 392 970.5 428.0Q1006 464 1039 502L1059 491Q1028 436 1005.0 392.0Q982 348 962 312Q986 333 1019.0 362.5Q1052 392 1087.5 428.0Q1123 464 1156 502L1176 491Q1142 430 1117.5 382.0Q1093 334 1070 296Q1087 268 1116.5 224.0Q1146 180 1187 126L1169 111Q1099 173 1050.0 213.0Q1001 253 960 284Q977 256 1005.0 215.5Q1033 175 1070 126L1052 111Q982 173 933.0 213.0Q884 253 843 284Q860 256 888.0 215.5Q916 175 953 126Z" />
  </g>
</svg>