<svg xmlns="http://www.w3.org/2000/svg" viewBox="100 -199 1560 1041">
  <g transform="translate(0, 643) scale(1, -1)">
    <path fill="black" d="M577 -199Q558 -83 499 2Q573 10 689.0 39.5Q805 69 952.0 113.5Q1099 158 1268.0 212.5Q1437 267 1617 324Q1438 381 1270.5 434.0Q1103 487 957.5 531.0Q812 575 697.0 604.0Q582 633 508 641Q567 727 586 842Q628 811 707.0 768.5Q786 726 893.0 674.5Q1000 623 1126.0 566.5Q1252 510 1388.0 451.5Q1524 393 1660 335L1659 311Q1523 253 1386.0 194.0Q1249 135 1122.0 78.0Q995 21 887.0 -30.5Q779 -82 699.0 -125.0Q619 -168 577 -199ZM508 -120Q358 41 262.0 150.0Q166 259 100 319Q161 380 222.0 446.0Q283 512 352.5 589.0Q422 666 508 758L529 743Q447 612 388.5 502.5Q330 393 292 319Q324 256 384.0 144.5Q444 33 529 -105Z" />
  </g>
</svg>