<svg xmlns="http://www.w3.org/2000/svg" viewBox="100 -202 1851 1044">
  <g transform="translate(0, 640) scale(1, -1)">
    <path fill="black" d="M564 -202Q545 -86 486 -1Q573 8 715.0 44.5Q857 81 1037 136H1034L1030 192Q987 185 938.0 177.0Q889 169 850.5 161.0Q812 153 798 145Q799 159 800.0 173.0Q801 187 801 201Q801 220 798 239Q799 253 800.5 268.0Q802 283 802 298Q802 319 798 336Q811 331 848.0 324.0Q885 317 932.0 311.5Q979 306 1021 302L1014 383Q972 376 927.0 368.5Q882 361 847.0 353.5Q812 346 798 339Q799 353 800.5 368.0Q802 383 802 398Q802 419 798 436Q811 431 846.0 424.5Q881 418 926.0 412.5Q971 407 1012 403Q1009 426 1006.5 444.5Q1004 463 1002 475Q967 471 938.5 466.5Q910 462 899 457Q900 468 901.0 479.0Q902 490 902 500Q902 514 899 530Q908 527 931.0 523.0Q954 519 984.5 515.0Q1015 511 1046 507Q867 562 726.0 597.0Q585 632 498 641Q557 727 576 842Q619 811 699.0 767.0Q779 723 887.5 670.5Q996 618 1124 560Q1090 583 1062.5 598.0Q1035 613 1015 621Q1044 643 1069.0 668.5Q1094 694 1118 731Q1128 709 1173.5 655.5Q1219 602 1283 533Q1303 549 1330.0 570.0Q1357 591 1403 633L1417 625Q1398 596 1385.0 571.5Q1372 547 1358 523Q1370 504 1380.5 483.0Q1391 462 1405 439Q1431 428 1456.5 417.5Q1482 407 1507 396Q1528 414 1550.5 432.5Q1573 451 1596 471L1605 463V475Q1605 494 1602 513Q1613 509 1638.0 503.5Q1663 498 1696.5 493.0Q1730 488 1764 484Q1736 521 1707.5 551.0Q1679 581 1649 606Q1687 617 1719.5 634.0Q1752 651 1787 679Q1795 615 1828.5 516.5Q1862 418 1916 305L1906 300Q1917 296 1928.0 291.5Q1939 287 1951 284Q1890 233 1832.0 157.5Q1774 82 1703 -27L1684 -17Q1707 33 1726.5 79.5Q1746 126 1762 169Q1734 165 1707.5 160.0Q1681 155 1658 150L1708 103L1691 89L1631 144Q1621 141 1614.0 138.5Q1607 136 1602 134Q1602 142 1603.0 150.5Q1604 159 1605 168L1509 253L1400 209Q1388 188 1378.5 169.5Q1369 151 1358 133Q1372 110 1385.0 84.5Q1398 59 1417 31L1403 20Q1372 49 1352.0 67.0Q1332 85 1317.0 98.0Q1302 111 1285 123Q1222 55 1175.5 -0.5Q1129 -56 1118 -81Q1094 -44 1069.0 -18.5Q1044 7 1015 29Q1038 38 1064.0 52.5Q1090 67 1122 89Q991 30 880.5 -24.5Q770 -79 688.5 -124.5Q607 -170 564 -202ZM508 -120Q358 41 262.0 150.0Q166 259 100 319Q161 380 222.0 446.0Q283 512 352.5 589.0Q422 666 508 758L529 743Q447 612 388.5 502.5Q330 393 292 319Q324 256 384.0 144.5Q444 33 529 -105ZM1493 410Q1458 443 1437.0 462.0Q1416 481 1399.5 494.5Q1383 508 1360 523Q1375 536 1392.0 548.5Q1409 561 1433.0 581.0Q1457 601 1493 633L1507 625Q1488 596 1475.0 571.5Q1462 547 1448 523Q1462 500 1475.0 474.5Q1488 449 1507 421ZM1045 138Q1104 156 1165.0 175.5Q1226 195 1290 216Q1319 240 1353.0 267.5Q1387 295 1425 327Q1393 355 1363.5 379.0Q1334 403 1307 425Q1255 442 1204.5 458.0Q1154 474 1106 489Q1103 488 1100.0 487.5Q1097 487 1094 487Q1089 475 1084.0 445.0Q1079 415 1073.5 374.5Q1068 334 1063.0 290.5Q1058 247 1053.5 207.0Q1049 167 1045 138ZM1837 384Q1824 404 1811.0 422.0Q1798 440 1785 457Q1748 451 1712.0 444.0Q1676 437 1647.5 430.5Q1619 424 1605 417Q1622 412 1661.5 405.0Q1701 398 1748.5 392.5Q1796 387 1837 384ZM1605 356Q1605 361 1605.5 365.5Q1606 370 1606 375Q1606 385 1605.0 395.5Q1604 406 1602 416Q1602 424 1602.5 432.5Q1603 441 1604 449L1538 384Q1555 377 1571.5 370.0Q1588 363 1605 356ZM1456 353 1476 370 1422 388Q1430 379 1438.5 370.0Q1447 361 1456 353ZM1801 293Q1809 331 1813 357Q1853 325 1888 308Q1878 325 1867.0 340.5Q1856 356 1846 371Q1800 363 1746.0 354.0Q1692 345 1653 337L1649 315Q1680 309 1721.0 303.5Q1762 298 1801 293ZM1516 291Q1538 298 1559.5 305.5Q1581 313 1603 320V322H1602V327Q1579 335 1556.5 343.0Q1534 351 1511 358L1481 327ZM1411 256Q1428 261 1445.5 267.0Q1463 273 1480 279L1455 301ZM1605 202Q1605 215 1602 228V231Q1603 245 1604.0 260.5Q1605 276 1605 292L1541 266Q1558 250 1574.0 234.0Q1590 218 1605 202ZM1029 207 1023 285Q981 278 936.0 270.0Q891 262 854.5 254.5Q818 247 801 240Q818 235 856.5 228.5Q895 222 941.5 216.5Q988 211 1029 207ZM1773 202Q1779 219 1784.5 235.5Q1790 252 1794 268Q1756 262 1718.0 255.0Q1680 248 1649.5 241.5Q1619 235 1605 229Q1625 223 1673.0 215.0Q1721 207 1773 202ZM1493 20Q1458 53 1437.0 72.0Q1416 91 1399.5 104.5Q1383 118 1360 133Q1375 146 1392.0 158.5Q1409 171 1433.0 191.0Q1457 211 1493 243L1507 235Q1488 206 1475.0 181.5Q1462 157 1448 133Q1462 110 1475.0 84.5Q1488 59 1507 31Z" />
  </g>
</svg>