<svg xmlns="http://www.w3.org/2000/svg" viewBox="100 -265 1550 1104">
  <g transform="translate(0, 574) scale(1, -1)">
    <path fill="black" d="M838 -265Q827 -198 812.5 -152.5Q798 -107 784 -73Q710 -111 653.5 -144.0Q597 -177 564 -202Q545 -86 486 -1Q505 1 527.0 4.5Q549 8 574 12Q573 46 569.0 96.0Q565 146 559.0 202.5Q553 259 545.5 316.0Q538 373 530.5 422.0Q523 471 515.5 505.5Q508 540 502 551Q523 547 543.5 545.0Q564 543 585 543Q605 543 627.0 545.0Q649 547 672 551Q666 540 658.5 506.0Q651 472 643.5 424.0Q636 376 628.5 320.0Q621 264 615.0 208.0Q609 152 604.5 102.0Q600 52 599 17Q615 21 631.5 24.5Q648 28 665 32V44Q665 64 663.0 86.0Q661 108 657 131Q689 118 743.5 106.0Q798 94 864 84Q920 100 980.0 118.5Q1040 137 1104 157Q1098 250 1087.5 341.0Q1077 432 1062 499Q876 555 730.0 591.5Q584 628 495 638Q554 724 573 839Q614 809 689.0 767.0Q764 725 866.5 675.5Q969 626 1090 571Q1098 570 1106.0 570.0Q1114 570 1122 570Q1145 570 1166.0 572.0Q1187 574 1209 578Q1204 566 1200.0 553.0Q1196 540 1191 526L1240 505Q1230 549 1219 578Q1242 574 1264.0 572.0Q1286 570 1306 570Q1327 570 1347.5 572.0Q1368 574 1389 578Q1379 554 1371.0 522.5Q1363 491 1355 455Q1427 425 1501.0 394.5Q1575 364 1650 334L1647 318L1650 309Q1565 276 1482.0 242.5Q1399 209 1319 175L1311 98Q1326 111 1345.0 126.5Q1364 142 1386 162L1402 153Q1380 118 1364.5 88.0Q1349 58 1332 29Q1349 1 1364.5 -29.5Q1380 -60 1402 -94L1386 -108Q1343 -69 1317.5 -45.5Q1292 -22 1272.0 -5.5Q1252 11 1225 29L1286 78Q1285 98 1284.5 118.0Q1284 138 1282 159L1209 127Q1193 100 1181.0 76.0Q1169 52 1155 29Q1172 1 1187.5 -29.5Q1203 -60 1225 -94L1209 -108Q1167 -70 1142.0 -46.5Q1117 -23 1097.5 -7.0Q1078 9 1053 26Q1031 24 1010.0 22.0Q989 20 969 18Q934 2 901.0 -14.5Q868 -31 837 -46H856Q873 -46 890.5 -45.0Q908 -44 926 -40Q910 -80 891.0 -130.5Q872 -181 858 -265ZM508 -120Q358 41 262.0 150.0Q166 259 100 319Q161 380 222.0 446.0Q283 512 352.5 589.0Q422 666 508 758L529 743Q447 612 388.5 502.5Q330 393 292 319Q324 256 384.0 144.5Q444 33 529 -105ZM1230 446Q1217 451 1203.5 455.0Q1190 459 1176 463Q1176 462 1175.5 461.5Q1175 461 1175 460Q1182 458 1196.5 454.0Q1211 450 1230 446ZM1135 166Q1145 169 1155.0 172.5Q1165 176 1175 179Q1176 189 1176.5 198.5Q1177 208 1177 218Q1177 225 1177.0 232.5Q1177 240 1175 247Q1176 258 1177.0 268.0Q1178 278 1178 288Q1178 302 1175 317Q1176 328 1177.0 338.0Q1178 348 1178 358Q1178 372 1175 387Q1176 398 1177.0 408.5Q1178 419 1178 429Q1178 443 1175 459Q1162 396 1152.5 321.0Q1143 246 1135 166ZM1324 227Q1392 250 1462.5 273.0Q1533 296 1606 321Q1539 344 1474.5 365.5Q1410 387 1347 408L1340 360H1347V347H1338L1331 290H1347V277Q1343 277 1338.5 277.0Q1334 277 1329 276Q1328 264 1326.5 252.0Q1325 240 1324 227ZM1262 369 1257 407Q1232 403 1211.0 398.0Q1190 393 1179 388Q1190 385 1213.0 379.5Q1236 374 1262 369ZM640 219Q644 240 646.0 260.5Q648 281 648 302Q648 322 646.0 344.0Q644 366 640 389Q664 377 711.5 359.5Q759 342 818.5 329.0Q878 316 938 316V292Q878 292 818.5 279.0Q759 266 711.5 249.0Q664 232 640 219ZM1270 298 1266 339Q1239 335 1215.0 329.0Q1191 323 1179 318Q1192 314 1217.0 308.5Q1242 303 1270 298ZM1277 227Q1276 238 1275.5 249.0Q1275 260 1273 270Q1244 266 1218.0 259.5Q1192 253 1179 248Q1193 244 1220.0 238.0Q1247 232 1277 227ZM1087 61 1123 89 1064 62Q1070 62 1075.5 61.5Q1081 61 1087 61Z" />
  </g>
</svg>