<svg xmlns="http://www.w3.org/2000/svg" viewBox="100 -199 1550 1041">
  <g transform="translate(0, 643) scale(1, -1)">
    <path fill="black" d="M564 -199Q545 -83 486 2Q574 11 718.5 48.0Q863 85 1046 141Q984 194 926.5 237.5Q869 281 829 300Q887 333 931 384L929 387Q955 419 978.5 451.0Q1002 483 1023 513Q851 565 715.5 598.5Q580 632 495 641Q554 727 573 842Q613 813 685.0 772.5Q757 732 855.0 684.5Q953 637 1069 584Q1094 623 1112.0 658.0Q1130 693 1140 721Q1184 666 1232 633Q1258 650 1280.5 671.5Q1303 693 1325 721Q1348 661 1402.5 573.0Q1457 485 1536 387L1533 384Q1562 372 1591.5 360.0Q1621 348 1650 337L1647 321L1650 312L1581 285Q1533 253 1474.5 204.5Q1416 156 1356.0 101.5Q1296 47 1243 -3L1254 -17L1238 -32Q1209 -5 1176.5 25.0Q1144 55 1109 86Q981 28 873.0 -25.5Q765 -79 685.5 -123.0Q606 -167 564 -199ZM508 -120Q358 41 262.0 150.0Q166 259 100 319Q161 380 222.0 446.0Q283 512 352.5 589.0Q422 666 508 758L529 743Q447 612 388.5 502.5Q330 393 292 319Q324 256 384.0 144.5Q444 33 529 -105ZM1486 404Q1412 473 1351.5 523.0Q1291 573 1232 605Q1211 593 1190.0 579.0Q1169 565 1147 549Q1227 513 1312.5 477.0Q1398 441 1486 404ZM1099 176Q1119 199 1144.0 228.0Q1169 257 1194 288Q1157 315 1125.5 336.5Q1094 358 1080 362Q1097 377 1115.5 392.5Q1134 408 1148 430Q1153 418 1174.5 387.5Q1196 357 1223 322Q1252 357 1274.0 385.0Q1296 413 1303 425L1081 496Q1052 471 1021.0 442.5Q990 414 956 382Q975 345 1014.0 290.5Q1053 236 1099 176ZM1305 224 1408 258Q1430 290 1447.5 318.0Q1465 346 1477 368Q1434 382 1392.0 396.0Q1350 410 1309 423Q1323 404 1340.0 390.0Q1357 376 1373 362Q1361 358 1329.0 334.5Q1297 311 1257 280Q1270 264 1282.0 250.0Q1294 236 1305 224ZM1111 162 1289 219 1233 260 1109 163Q1110 163 1110.0 162.5Q1110 162 1111 162ZM1227 16Q1260 57 1296.0 104.0Q1332 151 1365 197Q1311 175 1258.0 152.0Q1205 129 1155 106Z" />
  </g>
</svg>