<svg xmlns="http://www.w3.org/2000/svg" viewBox="100 -199 1550 1041">
  <g transform="translate(0, 643) scale(1, -1)">
    <path fill="black" d="M564 -199Q545 -83 486 2Q561 10 675.5 37.5Q790 65 936.0 108.5Q1082 152 1252.0 207.0Q1422 262 1606 324Q1422 387 1253.5 441.5Q1085 496 940.5 538.0Q796 580 682.5 606.5Q569 633 495 641Q554 727 573 842Q615 811 692.5 768.5Q770 726 875.0 675.0Q980 624 1105.5 567.5Q1231 511 1369.5 452.5Q1508 394 1650 337L1647 321L1650 312Q1505 256 1365.0 197.0Q1225 138 1098.5 81.0Q972 24 866.5 -28.5Q761 -81 683.5 -124.5Q606 -168 564 -199ZM508 -120Q358 41 262.0 150.0Q166 259 100 319Q161 380 222.0 446.0Q283 512 352.5 589.0Q422 666 508 758L529 743Q447 612 388.5 502.5Q330 393 292 319Q324 256 384.0 144.5Q444 33 529 -105ZM495 83Q499 104 501.0 124.5Q503 145 503 166Q503 186 501.0 208.0Q499 230 495 253L518 244Q511 282 503.5 313.5Q496 345 490 359Q508 354 524 353Q518 406 509.5 452.0Q501 498 490 526Q519 520 547 520Q555 520 563.5 520.5Q572 521 581 522Q581 523 580.5 524.0Q580 525 580 526Q583 525 586.0 524.5Q589 524 592 524Q595 524 598.5 524.5Q602 525 606 526L604 522Q611 521 618.5 520.5Q626 520 633 520Q642 520 651.5 520.5Q661 521 671 522Q671 523 670.5 524.0Q670 525 670 526Q673 525 676.0 524.5Q679 524 682 524Q685 524 688.5 524.5Q692 525 696 526L694 522Q701 521 708.5 520.5Q716 520 723 520Q732 520 741.5 520.5Q751 521 761 522Q761 523 760.5 524.0Q760 525 760 526Q763 525 766.0 524.5Q769 524 772 524Q775 524 778.5 524.5Q782 525 786 526L784 522Q792 521 799.5 520.5Q807 520 815 520Q843 520 876 526Q868 506 861.0 469.0Q854 432 848 387Q848 387 850 389Q857 367 878.0 327.0Q899 287 928.0 237.5Q957 188 987 139L979 131L923 182V163Q898 161 874.5 158.5Q851 156 829 153V149H816Q816 150 815.5 150.5Q815 151 815 152Q715 140 637.0 124.5Q559 109 495 83ZM720 202Q713 276 704.5 352.0Q696 428 683 482Q676 449 670.0 403.5Q664 358 659.5 308.5Q655 259 652 212Q669 209 685.5 206.5Q702 204 720 202ZM629 216Q622 287 613.5 358.5Q605 430 593 482Q588 457 583.0 424.0Q578 391 574 355Q580 356 585.5 357.0Q591 358 597 359Q590 343 582.5 308.0Q575 273 567 230Q581 226 597.0 222.5Q613 219 629 216ZM811 192Q810 212 807.5 232.5Q805 253 803 274Q787 285 773.5 294.0Q760 303 751 307Q775 318 796 336Q792 377 786.5 414.5Q781 452 773 482Q766 447 759.5 399.0Q753 351 748.5 299.0Q744 247 741 199Q758 197 775.5 195.5Q793 194 811 192ZM919 185Q898 203 876.5 220.0Q855 237 835 252Q834 236 833.0 220.5Q832 205 831 190Q852 189 874.5 187.5Q897 186 919 185Z" />
  </g>
</svg>