<svg xmlns="http://www.w3.org/2000/svg" viewBox="100 -112 1588 848">
  <g transform="translate(0, 624) scale(1, -1)">
    <path fill="black" d="M1194 -112 1187 -16Q1058 -29 965.5 -45.5Q873 -62 798 -93Q801 -76 803.0 -59.0Q805 -42 806 -26Q700 -37 609.5 -52.5Q519 -68 458 -93Q462 -72 464.0 -51.5Q466 -31 466 -10Q466 10 464.0 32.0Q462 54 458 77Q492 63 546.0 51.5Q600 40 667.0 31.5Q734 23 805 17Q804 31 802.0 46.0Q800 61 798 77Q860 52 960.0 35.0Q1060 18 1185 10L1173 182Q1049 169 960.0 152.5Q871 136 798 107Q801 124 803.0 140.5Q805 157 806 174Q700 163 609.5 147.5Q519 132 458 107Q462 128 464.0 148.5Q466 169 466 190Q466 210 464.0 232.0Q462 254 458 277Q492 263 546.0 251.5Q600 240 667.0 231.5Q734 223 805 217Q804 231 802.0 246.0Q800 261 798 277Q858 252 953.5 235.5Q1049 219 1170 211Q1166 260 1162.5 302.0Q1159 344 1155 381Q1039 368 953.5 352.0Q868 336 798 307Q801 324 803.0 340.5Q805 357 806 374Q700 363 609.5 347.5Q519 332 458 307Q462 328 464.0 348.5Q466 369 466 390Q466 410 464.0 432.0Q462 454 458 477Q492 463 546.0 451.5Q600 440 667.0 431.5Q734 423 805 417Q804 431 802.0 446.0Q800 461 798 477Q856 453 946.5 436.5Q1037 420 1151 412Q1145 459 1138.5 499.5Q1132 540 1125 577Q1021 566 942.0 549.5Q863 533 798 507Q801 524 803.0 540.5Q805 557 806 574Q700 563 609.5 547.5Q519 532 458 507Q462 528 464.0 548.5Q466 569 466 590Q466 610 464.0 632.0Q462 654 458 677Q492 663 546.0 651.5Q600 640 667.0 631.5Q734 623 805 617Q804 631 802.0 646.0Q800 661 798 677Q851 655 932.5 639.0Q1014 623 1117 615Q1110 645 1102.5 675.0Q1095 705 1087 736Q1138 724 1192 724Q1246 724 1303 736Q1289 685 1277.5 629.5Q1266 574 1257 503Q1290 488 1326.5 472.0Q1363 456 1411.5 440.0Q1460 424 1527.0 408.0Q1594 392 1688 377V350Q1595 341 1526.0 325.5Q1457 310 1405.5 291.5Q1354 273 1315.0 255.5Q1276 238 1243 224Q1250 258 1253.0 291.5Q1256 325 1256 358Q1256 381 1254.5 403.0Q1253 425 1251 447Q1241 349 1233.0 214.0Q1225 79 1220 -112ZM126 33 100 54Q158 130 199.5 191.5Q241 253 264 292Q233 345 198.5 412.0Q164 479 116 565L144 580Q197 519 254.0 463.0Q311 407 361.0 362.5Q411 318 441 292Q399 261 353.5 225.0Q308 189 252.5 142.5Q197 96 126 33Z" />
  </g>
</svg>