<svg xmlns="http://www.w3.org/2000/svg" viewBox="100 -111 1588 926">
  <g transform="translate(0, 704) scale(1, -1)">
    <path fill="black" d="M472 -111Q484 -54 484 0Q484 54 472 105L488 100Q480 202 472.5 274.5Q465 347 457.5 399.5Q450 452 440.5 495.0Q431 538 420.0 579.5Q409 621 395 672Q448 660 502 660Q514 660 526.0 660.5Q538 661 551 662Q553 675 553.0 687.0Q553 699 553 711Q553 738 550.5 764.0Q548 790 542 815Q594 801 633.0 789.5Q672 778 710.5 768.5Q749 759 798.0 751.0Q847 743 917.0 735.5Q987 728 1091 720L1087 736Q1138 724 1192 724Q1246 724 1303 736Q1287 678 1275.0 626.0Q1263 574 1253 505Q1286 490 1323.0 473.5Q1360 457 1408.5 441.0Q1457 425 1525.0 408.5Q1593 392 1688 377V350Q1595 341 1526.0 325.5Q1457 310 1405.5 291.5Q1354 273 1315.0 255.5Q1276 238 1243 224Q1250 258 1253.0 291.0Q1256 324 1256 356Q1256 385 1254.0 413.5Q1252 442 1248 470Q1239 394 1232.0 283.0Q1225 172 1220 2Q1237 1 1254.5 0.5Q1272 0 1290 -2V-28Q1142 -32 1031.0 -37.5Q920 -43 837.0 -50.0Q754 -57 690.5 -66.0Q627 -75 574.5 -86.0Q522 -97 472 -111ZM1192 4Q1183 136 1175.5 229.5Q1168 323 1160.5 388.5Q1153 454 1144.5 502.0Q1136 550 1126.0 590.5Q1116 631 1104 676Q989 672 911.5 665.5Q834 659 777 651Q784 634 801.0 603.5Q818 573 842.0 535.5Q866 498 894 460Q922 499 942.5 531.5Q963 564 969 578Q989 548 1012.0 526.5Q1035 505 1060 487Q1040 480 1000.5 452.5Q961 425 912.5 389.0Q864 353 817 319Q833 293 853.5 263.0Q874 233 897 203Q923 241 943.0 272.0Q963 303 969 317Q989 287 1012.0 265.5Q1035 244 1060 226Q1044 220 1014.0 200.0Q984 180 946.0 152.5Q908 125 867.5 95.0Q827 65 791 39Q863 30 959.5 22.0Q1056 14 1192 4ZM776 41Q801 72 829.5 109.5Q858 147 884 184Q821 227 768.0 258.5Q715 290 686 301Q711 319 734.5 340.5Q758 362 777 392Q781 382 788.0 368.5Q795 355 805 338Q823 362 842.5 388.5Q862 415 880 440Q819 484 767.0 517.5Q715 551 686 562Q710 579 733.5 600.5Q757 622 776 651Q721 644 679.5 634.5Q638 625 595 613Q584 569 574.5 522.0Q565 475 558.0 416.0Q551 357 545.0 277.5Q539 198 534 88Q591 73 647.0 62.0Q703 51 776 41ZM126 33 100 54Q158 130 199.5 191.5Q241 253 264 292Q233 345 198.5 412.0Q164 479 116 565L144 580Q197 519 254.0 463.0Q311 407 361.0 362.5Q411 318 441 292Q399 261 353.5 225.0Q308 189 252.5 142.5Q197 96 126 33Z" />
  </g>
</svg>