<svg xmlns="http://www.w3.org/2000/svg" viewBox="100 -111 1588 926">
  <g transform="translate(0, 704) scale(1, -1)">
    <path fill="black" d="M472 -111Q484 -54 484 0Q484 54 472 105L488 100Q480 202 472.5 274.5Q465 347 457.5 399.5Q450 452 440.5 495.0Q431 538 420.0 579.5Q409 621 395 672Q448 660 502 660Q514 660 526.0 660.5Q538 661 551 662Q553 675 553.0 687.0Q553 699 553 711Q553 738 550.5 764.0Q548 790 542 815Q594 801 633.0 789.5Q672 778 710.5 768.5Q749 759 798.0 751.0Q847 743 917.0 735.5Q987 728 1091 720L1087 736Q1138 724 1192 724Q1246 724 1303 736Q1287 678 1275.0 626.0Q1263 574 1253 505Q1286 490 1323.0 473.5Q1360 457 1408.5 441.0Q1457 425 1525.0 408.5Q1593 392 1688 377V350Q1595 341 1526.0 325.5Q1457 310 1405.5 291.5Q1354 273 1315.0 255.5Q1276 238 1243 224Q1250 258 1253.0 291.0Q1256 324 1256 356Q1256 385 1254.0 413.5Q1252 442 1248 470Q1239 394 1232.0 283.0Q1225 172 1220 2Q1237 1 1254.5 0.5Q1272 0 1290 -2V-28Q1142 -32 1031.0 -37.5Q920 -43 837.0 -50.0Q754 -57 690.5 -66.0Q627 -75 574.5 -86.0Q522 -97 472 -111ZM1065 413Q1058 460 1049.0 499.0Q1040 538 1029 564Q1053 560 1075.0 558.0Q1097 556 1118 556H1134Q1127 587 1119.5 616.0Q1112 645 1104 676Q991 672 913.0 665.5Q835 659 780.0 651.5Q725 644 681.5 634.5Q638 625 595 613Q585 574 577.0 533.0Q569 492 561 441Q571 460 578.0 480.0Q585 500 589 523Q599 514 626.5 496.0Q654 478 691.0 457.0Q728 436 765 416Q757 477 747.0 527.0Q737 577 725 606Q748 602 770.0 600.0Q792 598 812 598Q833 598 853.5 600.0Q874 602 895 606Q883 576 873.0 534.5Q863 493 855 444Q868 440 900.0 434.5Q932 429 975.5 423.5Q1019 418 1065 413ZM126 33 100 54Q158 130 199.5 191.5Q241 253 264 292Q233 345 198.5 412.0Q164 479 116 565L144 580Q197 519 254.0 463.0Q311 407 361.0 362.5Q411 318 441 292Q399 261 353.5 225.0Q308 189 252.5 142.5Q197 96 126 33ZM1192 4Q1188 64 1184.5 115.5Q1181 167 1177 210L1130 205L1119 87H1097Q1096 115 1094.0 144.0Q1092 173 1090 201Q1040 196 989.5 190.0Q939 184 902.0 178.5Q865 173 853 168Q855 182 857.0 196.5Q859 211 859 225Q859 249 853 274Q864 270 901.0 264.0Q938 258 987.5 252.0Q1037 246 1087 240Q1081 309 1072 368Q1024 363 977.5 358.0Q931 353 897.5 348.0Q864 343 853 338Q855 352 857.0 367.0Q859 382 859 397Q859 408 857.5 418.5Q856 429 854 439Q841 359 832.0 266.5Q823 174 815 87H793Q791 137 787.0 191.0Q783 245 778 300Q740 279 700.5 255.5Q661 232 630.5 212.5Q600 193 589 182Q585 211 575.0 235.0Q565 259 551 282H557Q565 282 576.5 283.5Q588 285 601 287Q596 325 590.0 363.5Q584 402 579 415Q589 414 598.0 413.5Q607 413 617 413H627Q605 418 587.5 420.0Q570 422 559 423Q551 362 545.0 281.5Q539 201 534 88Q579 76 624.0 66.5Q669 57 721.0 49.0Q773 41 838.5 34.0Q904 27 990.5 19.5Q1077 12 1192 4ZM617 290Q652 297 694.0 306.0Q736 315 776 325Q775 339 773.0 354.0Q771 369 769 383Q736 391 701.5 398.5Q667 406 637 411Q633 397 627.0 361.0Q621 325 617 290ZM1157 404H1158V408Q1158 407 1157.5 406.0Q1157 405 1157 404ZM1176 231 1162 377Q1160 377 1157.0 377.0Q1154 377 1152 376Q1142 310 1134 235Q1145 234 1155.5 233.5Q1166 233 1176 231Z" />
  </g>
</svg>