<svg xmlns="http://www.w3.org/2000/svg" viewBox="100 -120 1358 856">
  <g transform="translate(0, 616) scale(1, -1)">
    <path fill="black" d="M479 -120Q468 -78 451.5 -45.5Q435 -13 415 16Q430 17 460.5 25.0Q491 33 533 46Q532 69 531.0 96.5Q530 124 528 155L381 141Q377 107 374.0 77.5Q371 48 368 28H358L346 138L260 131L248 28H238L227 128Q180 124 145.0 119.0Q110 114 100 110Q102 124 104.0 139.0Q106 154 106 168Q106 192 100 217Q109 213 141.5 208.5Q174 204 220 199Q215 246 209.0 290.0Q203 334 198.0 366.5Q193 399 189 409Q215 403 239 403Q250 403 261.5 404.5Q273 406 284 407Q286 421 288.0 435.5Q290 450 290 464Q290 488 284 513Q297 508 332.5 500.5Q368 493 414.0 486.0Q460 479 504 473Q497 558 486.5 625.5Q476 693 465 721Q488 717 510.0 715.0Q532 713 552 713Q573 713 593.5 715.0Q614 717 635 721Q622 690 612.0 631.0Q602 572 594.0 497.0Q586 422 579.0 342.0Q572 262 566.5 187.0Q561 112 556 54Q590 66 629.5 80.0Q669 94 712 110Q709 167 704.5 237.5Q700 308 694.0 382.0Q688 456 680.5 524.0Q673 592 664.0 644.0Q655 696 645 721Q668 717 690.0 715.0Q712 713 732 713Q753 713 773.5 715.0Q794 717 815 721Q807 702 800.5 673.0Q794 644 788 608Q825 586 878 559V561Q904 555 927 555Q941 555 956.0 557.0Q971 559 985 561Q982 555 979.5 542.5Q977 530 974 513Q981 510 987.5 507.5Q994 505 1000 502Q997 523 993.5 538.5Q990 554 988 561Q1014 555 1037 555Q1051 555 1066.0 557.0Q1081 559 1095 561Q1091 551 1087.0 526.0Q1083 501 1078 467Q1114 451 1151.0 435.5Q1188 420 1224 405Q1217 461 1210.5 504.5Q1204 548 1199 561Q1226 555 1251 555Q1259 555 1267.5 555.5Q1276 556 1284 557Q1275 604 1265.0 647.0Q1255 690 1242 736Q1293 724 1347 724Q1401 724 1458 736Q1444 686 1433.0 630.5Q1422 575 1413.0 507.0Q1404 439 1397.0 351.5Q1390 264 1384.5 150.0Q1379 36 1375 -112H1349Q1339 30 1331.5 135.5Q1324 241 1316 322Q1306 318 1295.0 312.5Q1284 307 1272 301Q1268 265 1264.5 233.5Q1261 202 1258 180H1248L1237 285Q1173 254 1096.0 216.0Q1019 178 938.0 137.0Q857 96 780.5 55.5Q704 15 640.5 -20.0Q577 -55 534.0 -81.0Q491 -107 479 -120ZM1311 370Q1307 407 1303.0 439.0Q1299 471 1294 499Q1290 475 1286.5 445.0Q1283 415 1280 382ZM916 307Q912 344 907.0 383.0Q902 422 897 457Q862 465 829.5 472.0Q797 479 771 483Q769 467 767.5 450.5Q766 434 764 417Q772 416 780.0 415.5Q788 415 797 415Q802 415 807.5 415.5Q813 416 819 417Q816 409 812.0 380.5Q808 352 804 319L836 316Q833 346 829.5 375.5Q826 405 822.5 427.5Q819 450 816 457Q825 456 834.0 455.5Q843 455 852 455Q857 455 863.0 455.5Q869 456 875 457Q873 451 870.0 428.0Q867 405 864.0 374.5Q861 344 858 313ZM527 170Q523 234 518.0 305.0Q513 376 507 444Q408 431 358.5 422.5Q309 414 296 409Q292 398 286.5 365.0Q281 332 276.0 287.0Q271 242 266 194L341 187Q336 236 330.5 282.5Q325 329 319.5 363.5Q314 398 309 409Q335 403 358 403Q372 403 387.0 405.0Q402 407 416 409Q411 398 405.5 363.0Q400 328 395.0 280.5Q390 233 385 183Q427 179 463.5 176.0Q500 173 527 170ZM947 291Q965 295 984.5 300.0Q1004 305 1025 310L1011 428L964 440Q960 405 956.0 366.0Q952 327 947 291ZM1061 318Q1108 329 1152.5 340.5Q1197 352 1229 359Q1228 360 1228 363V366Q1191 377 1151.5 388.5Q1112 400 1071 411ZM738 120Q815 149 894 180Q890 208 881.0 231.0Q872 254 860 277H864Q880 277 918 285Q918 291 917 293L856 286L852 240H843Q842 248 841.0 259.5Q840 271 839 284L800 278L796 236H787L783 275Q763 272 757 269Q758 278 758.5 287.0Q759 296 759 305Q759 310 759.0 316.0Q759 322 757 328Q759 327 764.5 326.0Q770 325 777 323Q773 349 769.5 372.0Q766 395 763 408Q756 333 750.0 258.0Q744 183 738 120ZM1274 332Q1282 335 1289.0 338.0Q1296 341 1302 344L1276 352Q1276 347 1275.5 342.0Q1275 337 1274 332ZM1052 242 1234 316 1231 343Q1197 327 1149.5 305.0Q1102 283 1054 260Q1054 256 1053.5 251.5Q1053 247 1052 242ZM908 185 1033 234 1031 249Q991 230 958.0 213.0Q925 196 908 185Z" />
  </g>
</svg>