<svg xmlns="http://www.w3.org/2000/svg" viewBox="100 -120 1358 856">
  <g transform="translate(0, 616) scale(1, -1)">
    <path fill="black" d="M479 -120Q468 -78 451.5 -45.5Q435 -13 415 16Q430 17 460.5 25.0Q491 33 533 46Q532 69 531.0 96.5Q530 124 528 155L381 141Q377 107 374.0 77.5Q371 48 368 28H358L346 138L260 131L248 28H238L227 128Q180 124 145.0 119.0Q110 114 100 110Q102 124 104.0 139.0Q106 154 106 168Q106 192 100 217Q109 213 141.5 208.5Q174 204 220 199Q215 246 209.0 290.0Q203 334 198.0 366.5Q193 399 189 409Q215 403 239 403Q250 403 261.5 404.5Q273 406 284 407Q286 421 288.0 435.5Q290 450 290 464Q290 488 284 513Q297 508 332.5 500.5Q368 493 414.0 486.0Q460 479 504 473Q497 558 486.5 625.5Q476 693 465 721Q488 717 510.0 715.0Q532 713 552 713Q573 713 593.5 715.0Q614 717 635 721Q622 690 612.0 631.0Q602 572 594.0 497.0Q586 422 579.0 342.0Q572 262 566.5 187.0Q561 112 556 54Q590 66 629.5 80.0Q669 94 712 110Q709 167 704.5 237.5Q700 308 694.0 382.0Q688 456 680.5 524.0Q673 592 664.0 644.0Q655 696 645 721Q668 717 690.0 715.0Q712 713 732 713Q753 713 773.5 715.0Q794 717 815 721Q807 702 800.5 673.0Q794 644 788 608Q809 595 839.5 579.0Q870 563 907 545Q936 546 968 551Q964 544 959 521Q980 511 1002.5 501.0Q1025 491 1047 481Q1043 507 1039.0 525.5Q1035 544 1031 551Q1064 545 1094 545Q1113 545 1131.0 547.0Q1149 549 1168 551Q1163 541 1157.0 510.5Q1151 480 1145 438Q1164 430 1182.0 423.0Q1200 416 1218 408Q1234 421 1253.0 437.5Q1272 454 1297 476Q1286 550 1273.0 610.5Q1260 671 1242 736Q1293 724 1347 724Q1401 724 1458 736Q1444 686 1433.0 630.5Q1422 575 1413.0 507.0Q1404 439 1397.0 351.5Q1390 264 1384.5 150.0Q1379 36 1375 -112H1349Q1339 30 1331.5 135.5Q1324 241 1316 322L1272 302Q1283 283 1294.0 263.0Q1305 243 1319 220L1302 206Q1276 229 1257.0 247.0Q1238 265 1223 278L1139 236Q1130 183 1121.5 126.0Q1113 69 1105 30H1095Q1090 61 1082.5 107.5Q1075 154 1067 201Q1051 193 1034.0 184.5Q1017 176 1000 167Q1013 144 1026.0 118.5Q1039 93 1058 64L1041 50Q1006 82 983.5 102.5Q961 123 944 139L921 128Q917 100 913.0 75.0Q909 50 905 30H895L882 108Q809 71 741.5 35.5Q674 0 618.5 -31.0Q563 -62 526.5 -85.0Q490 -108 479 -120ZM738 120Q771 132 804.5 145.0Q838 158 872 171Q866 213 858.5 252.0Q851 291 844.0 320.5Q837 350 831 361Q839 360 848.0 358.5Q857 357 865 356Q861 386 857.5 414.5Q854 443 850 468L771 483Q761 393 753.5 296.0Q746 199 738 120ZM939 237Q958 252 982.5 273.0Q1007 294 1041 325L1043 323Q1037 351 1031 361Q1039 360 1048.0 358.5Q1057 357 1065 356Q1063 372 1061.0 386.5Q1059 401 1057 415Q1000 432 946 445Q943 425 940.5 402.5Q938 380 935 357Q943 358 951.5 359.0Q960 360 968 361Q961 349 954.0 315.0Q947 281 939 237ZM527 170Q523 234 518.0 305.0Q513 376 507 444Q408 431 358.5 422.5Q309 414 296 409Q292 398 286.5 365.0Q281 332 276.0 287.0Q271 242 266 194L341 187Q336 236 330.5 282.5Q325 329 319.5 363.5Q314 398 309 409Q335 403 358 403Q372 403 387.0 405.0Q402 407 416 409Q411 398 405.5 363.0Q400 328 395.0 280.5Q390 233 385 183Q427 179 463.5 176.0Q500 173 527 170ZM1311 370 1302 442Q1293 428 1285.5 414.0Q1278 400 1271 386Q1282 382 1291.5 378.0Q1301 374 1311 370ZM1135 357Q1141 357 1146.5 357.5Q1152 358 1157 359Q1163 364 1170.0 369.0Q1177 374 1184 379Q1173 383 1162.0 386.0Q1151 389 1140 392ZM1260 326 1302 344Q1291 347 1279.5 350.5Q1268 354 1256 358Q1255 354 1253.0 351.0Q1251 348 1249 345ZM1146 280 1198 301Q1188 310 1178.5 317.5Q1169 325 1158 332Q1155 322 1152.0 308.5Q1149 295 1146 280ZM1006 224 1060 245 1049 299Q1036 279 1026.0 260.5Q1016 242 1006 224Z" />
  </g>
</svg>