<svg xmlns="http://www.w3.org/2000/svg" viewBox="100 -120 1358 856">
  <g transform="translate(0, 616) scale(1, -1)">
    <path fill="black" d="M479 -120Q468 -78 451.5 -45.5Q435 -13 415 16Q430 17 460.5 25.0Q491 33 533 46Q532 69 531.0 96.5Q530 124 528 155L381 141Q377 107 374.0 77.5Q371 48 368 28H358L346 138L260 131L248 28H238L227 128Q180 124 145.0 119.0Q110 114 100 110Q102 124 104.0 139.0Q106 154 106 168Q106 192 100 217Q109 213 141.5 208.5Q174 204 220 199Q215 246 209.0 290.0Q203 334 198.0 366.5Q193 399 189 409Q215 403 239 403Q250 403 261.5 404.5Q273 406 284 407Q286 421 288.0 435.5Q290 450 290 464Q290 488 284 513Q297 508 332.5 500.5Q368 493 414.0 486.0Q460 479 504 473Q497 558 486.5 625.5Q476 693 465 721Q488 717 510.0 715.0Q532 713 552 713Q573 713 593.5 715.0Q614 717 635 721Q622 690 612.0 631.0Q602 572 594.0 497.0Q586 422 579.0 342.0Q572 262 566.5 187.0Q561 112 556 54Q590 66 629.5 80.0Q669 94 712 110Q709 167 704.5 237.5Q700 308 694.0 382.0Q688 456 680.5 524.0Q673 592 664.0 644.0Q655 696 645 721Q668 717 690.0 715.0Q712 713 732 713Q753 713 773.5 715.0Q794 717 815 721Q807 702 800.5 673.0Q794 644 788 608Q815 592 856.5 570.5Q898 549 948 526L943 544Q969 538 992 538Q1006 538 1021.0 540.0Q1036 542 1050 544Q1047 537 1044.0 521.5Q1041 506 1038 485L1086 463Q1082 493 1078.0 514.5Q1074 536 1071 544Q1097 538 1120 538Q1134 538 1149.0 540.0Q1164 542 1178 544Q1174 534 1169.0 503.5Q1164 473 1159 432Q1175 425 1190.5 419.0Q1206 413 1221 406Q1215 456 1209.5 494.5Q1204 533 1199 544Q1225 538 1247 538Q1268 538 1287 541Q1278 593 1267.0 639.5Q1256 686 1242 736Q1293 724 1347 724Q1401 724 1458 736Q1444 686 1433.0 630.5Q1422 575 1413.0 507.0Q1404 439 1397.0 351.5Q1390 264 1384.5 150.0Q1379 36 1375 -112H1349Q1339 30 1331.5 135.5Q1324 241 1316 322Q1306 318 1295.5 313.0Q1285 308 1273 302Q1271 282 1269.0 262.0Q1267 242 1265 224Q1273 230 1281.0 237.5Q1289 245 1298 253L1313 244Q1294 213 1280.0 186.5Q1266 160 1252 134Q1266 109 1280.0 82.0Q1294 55 1313 24L1298 11Q1260 47 1237.5 68.0Q1215 89 1197.5 103.5Q1180 118 1156 134Q1174 148 1193.5 163.5Q1213 179 1243 205L1235 284L1138 236L1135 201Q1147 212 1161.5 224.5Q1176 237 1194 253L1209 244Q1190 213 1176.0 186.5Q1162 160 1148 134Q1162 109 1176.0 82.0Q1190 55 1209 24L1194 11Q1156 47 1133.5 68.0Q1111 89 1093.5 103.5Q1076 118 1052 134Q1066 145 1081.5 157.0Q1097 169 1117 186Q1116 194 1115.5 204.0Q1115 214 1113 224Q1101 217 1088.5 211.0Q1076 205 1063 199Q1053 182 1044.5 166.0Q1036 150 1028 134Q1042 109 1056.0 82.0Q1070 55 1089 24L1074 11Q1036 46 1013.5 67.0Q991 88 973.5 102.5Q956 117 932 133Q853 93 777.0 53.5Q701 14 638.0 -20.5Q575 -55 533.0 -81.0Q491 -107 479 -120ZM1311 370Q1307 404 1303.0 434.0Q1299 464 1295 491Q1291 469 1288.0 441.0Q1285 413 1282 382ZM738 120Q798 143 861.5 167.0Q925 191 986 216Q985 231 983.0 248.5Q981 266 979 284Q942 276 905.0 264.5Q868 253 839.5 242.0Q811 231 798 224Q799 229 799.0 233.0Q799 237 799 241Q799 262 795.0 281.5Q791 301 786 319Q800 314 830.0 311.5Q860 309 898.5 307.0Q937 305 976 303Q943 324 908.5 340.5Q874 357 846.0 368.0Q818 379 803 383Q822 400 834.5 421.0Q847 442 859 461Q870 441 902.5 404.5Q935 368 975 326Q971 356 968.0 385.0Q965 414 961 441Q906 455 857.5 466.0Q809 477 771 483Q761 393 753.5 296.0Q746 199 738 120ZM527 170Q523 234 518.0 305.0Q513 376 507 444Q408 431 358.5 422.5Q309 414 296 409Q292 398 286.5 365.0Q281 332 276.0 287.0Q271 242 266 194L341 187Q336 236 330.5 282.5Q325 329 319.5 363.5Q314 398 309 409Q335 403 358 403Q372 403 387.0 405.0Q402 407 416 409Q411 398 405.5 363.0Q400 328 395.0 280.5Q390 233 385 183Q427 179 463.5 176.0Q500 173 527 170ZM1009 225 1070 249Q1071 251 1072.0 251.5Q1073 252 1074 253L1076 252L1109 265Q1106 299 1102.0 335.0Q1098 371 1094 405L1030 423Q1025 375 1019.5 322.0Q1014 269 1009 225ZM1143 279 1232 315 1226 367 1154 388ZM1276 333Q1288 337 1302 344Q1296 346 1290.0 347.5Q1284 349 1278 351Q1278 347 1277.5 342.5Q1277 338 1276 333Z" />
  </g>
</svg>