<svg xmlns="http://www.w3.org/2000/svg" viewBox="100 -120 1358 856">
  <g transform="translate(0, 616) scale(1, -1)">
    <path fill="black" d="M479 -120Q468 -78 451.5 -45.5Q435 -13 415 16Q430 17 460.5 25.0Q491 33 533 46Q532 69 531.0 96.5Q530 124 528 155L381 141Q377 107 374.0 77.5Q371 48 368 28H358L346 138L260 131L248 28H238L227 128Q180 124 145.0 119.0Q110 114 100 110Q102 124 104.0 139.0Q106 154 106 168Q106 192 100 217Q109 213 141.5 208.5Q174 204 220 199Q215 246 209.0 290.0Q203 334 198.0 366.5Q193 399 189 409Q215 403 239 403Q250 403 261.5 404.5Q273 406 284 407Q286 421 288.0 435.5Q290 450 290 464Q290 488 284 513Q297 508 332.5 500.5Q368 493 414.0 486.0Q460 479 504 473Q497 558 486.5 625.5Q476 693 465 721Q488 717 510.0 715.0Q532 713 552 713Q573 713 593.5 715.0Q614 717 635 721Q622 690 612.0 631.0Q602 572 594.0 497.0Q586 422 579.0 342.0Q572 262 566.5 187.0Q561 112 556 54Q590 66 629.5 80.0Q669 94 712 110Q709 167 704.5 237.5Q700 308 694.0 382.0Q688 456 680.5 524.0Q673 592 664.0 644.0Q655 696 645 721Q668 717 690.0 715.0Q712 713 732 713Q753 713 773.5 715.0Q794 717 815 721Q807 702 800.5 673.0Q794 644 788 608Q826 585 890.5 553.5Q955 522 1031 488Q1046 500 1065.0 516.0Q1084 532 1109 554L1122 546Q1108 524 1097.5 504.5Q1087 485 1077 467Q1080 467 1082 465Q1100 479 1125.0 499.5Q1150 520 1189 554L1202 546Q1183 517 1170.5 492.0Q1158 467 1144 443L1147 437Q1190 419 1231.5 402.0Q1273 385 1311 370Q1302 450 1292.0 510.5Q1282 571 1270.0 625.0Q1258 679 1242 736Q1293 724 1347 724Q1401 724 1458 736Q1444 686 1433.0 630.5Q1422 575 1413.0 507.0Q1404 439 1397.0 351.5Q1390 264 1384.5 150.0Q1379 36 1375 -112H1349Q1339 30 1331.5 135.5Q1324 241 1316 322Q1289 309 1256.0 293.5Q1223 278 1186 260Q1174 239 1164.5 220.0Q1155 201 1144 183Q1158 160 1170.5 134.5Q1183 109 1202 80L1189 69Q1157 98 1137.0 116.0Q1117 134 1102.5 147.5Q1088 161 1070 173Q1081 151 1093.0 128.5Q1105 106 1122 80L1109 69Q1066 108 1043.5 129.0Q1021 150 998 166Q911 122 824.5 77.5Q738 33 664.5 -6.5Q591 -46 541.5 -76.0Q492 -106 479 -120ZM738 120Q813 148 891.5 178.5Q970 209 1045 239L1109 294L1122 286Q1118 281 1115.0 275.5Q1112 270 1109 265Q1165 288 1215.0 308.0Q1265 328 1302 344Q1274 353 1242.0 362.0Q1210 371 1177 381Q1182 371 1188.5 361.0Q1195 351 1202 340L1189 329Q1161 354 1142.5 371.0Q1124 388 1110 401L1083 408Q1091 392 1100.5 375.0Q1110 358 1122 340L1109 329Q1077 358 1056.5 376.5Q1036 395 1020.5 408.5Q1005 422 987 434Q926 451 870.0 463.5Q814 476 771 483Q761 393 753.5 296.0Q746 199 738 120ZM527 170Q523 234 518.0 305.0Q513 376 507 444Q408 431 358.5 422.5Q309 414 296 409Q292 398 286.5 365.0Q281 332 276.0 287.0Q271 242 266 194L341 187Q336 236 330.5 282.5Q325 329 319.5 363.5Q314 398 309 409Q335 403 358 403Q372 403 387.0 405.0Q402 407 416 409Q411 398 405.5 363.0Q400 328 395.0 280.5Q390 233 385 183Q427 179 463.5 176.0Q500 173 527 170ZM1072 197 1095 215 1076 206Z" />
  </g>
</svg>