<svg xmlns="http://www.w3.org/2000/svg" viewBox="100 -129 1614 897">
  <g transform="translate(0, 639) scale(1, -1)">
    <path fill="black" d="M706 -129Q707 -119 707.0 -110.0Q707 -101 707 -93Q638 -19 582.0 44.0Q526 107 479 158Q454 132 431.0 106.0Q408 80 391.5 59.0Q375 38 370 28Q357 51 340.5 68.5Q324 86 307 102Q314 104 325.0 108.5Q336 113 350 120Q300 112 248.0 103.0Q196 94 156.0 85.5Q116 77 100 69Q101 86 102.5 103.5Q104 121 104 140Q104 151 103.0 163.0Q102 175 100 186Q113 180 145.0 174.0Q177 168 220.0 161.5Q263 155 307.5 150.5Q352 146 390 143Q406 152 423.0 162.0Q440 172 457 182L391 252Q352 245 307.0 238.0Q262 231 219.5 223.0Q177 215 145.0 208.0Q113 201 100 194Q101 211 102.5 228.5Q104 246 104 265Q104 276 103.0 288.0Q102 300 100 311Q112 306 142.0 300.0Q172 294 212.0 288.0Q252 282 295.0 277.0Q338 272 375 269L324 319Q335 331 350.0 345.0Q365 359 381 375Q342 368 298.0 361.0Q254 354 213.5 346.5Q173 339 143.0 331.5Q113 324 100 318Q101 335 102.5 352.5Q104 370 104 389Q104 400 103.0 412.0Q102 424 100 435Q113 429 146.5 422.5Q180 416 224.5 410.0Q269 404 315.0 399.0Q361 394 398 391Q415 407 432.0 423.0Q449 439 467 457L392 502Q352 495 307.0 487.5Q262 480 219.5 472.0Q177 464 145.0 457.0Q113 450 100 443Q101 460 102.5 477.5Q104 495 104 514Q104 525 103.0 537.0Q102 549 100 560Q112 555 140.0 549.0Q168 543 205.0 537.5Q242 532 283.0 527.0Q324 522 361 519Q323 540 307 544Q324 561 340.5 578.0Q357 595 370 618Q376 607 394.0 584.5Q412 562 437.0 534.0Q462 506 488 478Q540 530 596.5 592.0Q653 654 707 727Q707 737 707.0 747.0Q707 757 706 768Q725 758 779.5 745.5Q834 733 912.0 718.5Q990 704 1079.5 689.5Q1169 675 1260.0 661.5Q1351 648 1432.0 636.5Q1513 625 1572 617Q1594 634 1622.0 657.0Q1650 680 1699 724L1714 715Q1695 684 1681.0 657.5Q1667 631 1653 605Q1663 586 1672.5 567.0Q1682 548 1694 528L1699 533L1714 524L1705 509L1714 495L1699 482L1692 488L1653 414Q1663 396 1672.5 377.0Q1682 358 1693 338L1699 343L1714 334L1704 319Q1706 315 1708.5 311.5Q1711 308 1714 304L1699 291L1692 297L1653 224Q1663 206 1672.5 187.0Q1682 168 1693 148L1699 153L1714 144L1704 129Q1706 125 1708.5 121.5Q1711 118 1714 114L1699 101L1692 107L1653 34Q1667 9 1681.0 -18.0Q1695 -45 1714 -76L1699 -89Q1666 -58 1645.0 -38.0Q1624 -18 1608.0 -4.5Q1592 9 1574 22Q1516 14 1435.0 2.5Q1354 -9 1262.5 -22.5Q1171 -36 1081.0 -50.5Q991 -65 913.0 -79.0Q835 -93 780.0 -106.0Q725 -119 706 -129ZM704 -27Q700 6 689 41Q706 38 730.0 36.5Q754 35 785 33V605Q754 604 730.0 602.5Q706 601 689 598Q692 609 695.0 620.5Q698 632 700 644Q648 542 599.5 466.0Q551 390 516 319Q544 265 590.5 175.0Q637 85 704 -27ZM1035 506V605Q993 606 953.0 606.0Q913 606 877 606H820V538Q837 533 872.5 526.5Q908 520 952.0 515.0Q996 510 1035 506ZM1070 393Q1128 414 1203.5 444.5Q1279 475 1366.0 512.0Q1453 549 1545 588Q1484 590 1405.5 593.0Q1327 596 1241.0 599.0Q1155 602 1070 604ZM1589 60Q1604 72 1623.5 87.5Q1643 103 1670 127Q1644 152 1626.5 168.5Q1609 185 1593.5 197.5Q1578 210 1557 224Q1578 241 1602.5 260.5Q1627 280 1670 317Q1644 342 1626.5 358.5Q1609 375 1593.5 387.5Q1578 400 1557 414Q1578 431 1603.0 450.5Q1628 470 1671 508Q1641 536 1622.5 553.5Q1604 571 1585 585Q1502 541 1418.0 494.0Q1334 447 1259.5 403.0Q1185 359 1130 323Q1186 287 1261.0 243.0Q1336 199 1421.0 152.0Q1506 105 1589 60ZM762 124Q711 169 674.5 205.0Q638 241 609.0 269.0Q580 297 550 319Q572 338 607.5 367.0Q643 396 684.0 433.5Q725 471 762 514L782 503Q748 442 723.5 399.5Q699 357 676 319Q699 281 723.5 239.0Q748 197 782 135ZM1035 391V488Q994 481 950.5 474.0Q907 467 872.0 459.5Q837 452 820 445V423Q837 418 872.5 411.5Q908 405 952.0 400.0Q996 395 1035 391ZM990 281Q1005 301 1017 323Q1005 346 990 365Q938 356 889.0 347.0Q840 338 820 330V309Q840 302 889.0 294.5Q938 287 990 281ZM1035 162V259Q994 252 950.5 245.0Q907 238 872.0 230.5Q837 223 820 216V194Q837 189 872.5 182.5Q908 176 952.0 171.0Q996 166 1035 162ZM1070 34Q1158 37 1248.5 40.0Q1339 43 1420.5 46.5Q1502 50 1563 51Q1467 92 1376.5 130.0Q1286 168 1208.0 200.0Q1130 232 1070 254ZM820 32H872Q910 32 951.0 32.5Q992 33 1035 34V144Q994 137 950.5 130.0Q907 123 872.0 115.5Q837 108 820 101Z" />
  </g>
</svg>