<svg xmlns="http://www.w3.org/2000/svg" viewBox="100 -199 1268 1021">
  <g transform="translate(0, 623) scale(1, -1)">
    <path fill="black" d="M1347 411Q1274 476 1228.5 523.0Q1183 570 1141 604Q1010 602 911.5 595.5Q813 589 738.5 579.5Q664 570 606.0 557.5Q548 545 500.0 530.5Q452 516 405 500Q417 551 417 615Q417 679 405 736Q464 716 528.0 698.5Q592 681 674.5 666.5Q757 652 870.5 643.0Q984 634 1141 632Q1179 663 1237.0 712.0Q1295 761 1347 822L1368 810Q1332 746 1306.0 701.5Q1280 657 1257 617Q1280 577 1306.0 532.5Q1332 488 1368 423ZM370 -112Q309 -58 261.5 -18.0Q214 22 175.0 53.0Q136 84 100 110Q122 129 158.5 158.5Q195 188 238.5 226.5Q282 265 324 307Q251 370 199.0 412.5Q147 455 100 489Q126 511 172.5 549.5Q219 588 272.0 636.0Q325 684 370 736L391 718Q350 644 314.0 589.5Q278 535 251 489Q266 462 292.0 423.0Q318 384 352 337L370 357L391 339L373 308L391 285L370 267L356 279Q325 227 298.5 186.5Q272 146 251 110Q271 76 306.5 23.5Q342 -29 391 -94ZM1347 -199Q1275 -135 1229.5 -88.5Q1184 -42 1143 -8Q1012 -10 913.0 -16.0Q814 -22 739.0 -32.0Q664 -42 606.0 -54.5Q548 -67 500.0 -81.5Q452 -96 405 -112Q417 -61 417 3Q417 67 405 124Q463 104 527.0 86.5Q591 69 673.5 55.0Q756 41 869.5 32.0Q983 23 1139 20Q1164 41 1199.0 70.0Q1234 99 1273.0 135.0Q1312 171 1347 212L1368 200Q1332 136 1306.0 91.5Q1280 47 1257 7Q1280 -33 1306.0 -77.5Q1332 -122 1368 -187Z" />
  </g>
</svg>