<svg xmlns="http://www.w3.org/2000/svg" viewBox="100 -150 610 1180">
  <g transform="translate(0, 880) scale(1, -1)">
    <path fill="black" d="M391 -150 373 100Q330 45 301.5 1.0Q273 -43 245 -93Q206 -29 134 17Q175 40 217.5 69.5Q260 99 315 144Q251 136 202.0 125.5Q153 115 100 100Q109 138 109 175Q109 211 100 256Q138 245 180.0 236.5Q222 228 276 221Q236 253 201.0 277.0Q166 301 127 326Q160 345 188.0 370.0Q216 395 241 431Q262 391 289.5 347.5Q317 304 357 249Q349 312 338.5 360.0Q328 408 314 460Q333 456 351.5 453.0Q370 450 389 450Q385 516 381.0 570.5Q377 625 373 670Q330 615 301.5 571.0Q273 527 245 477Q206 541 134 587Q175 610 217.5 639.5Q260 669 315 714Q251 706 202.0 695.5Q153 685 100 670Q109 708 109 745Q109 781 100 826Q138 815 180.0 806.5Q222 798 276 791Q236 823 201.0 847.0Q166 871 127 896Q160 915 188.0 940.0Q216 965 241 1001Q262 961 289.5 917.5Q317 874 357 819Q349 882 338.5 930.0Q328 978 314 1030Q352 1021 390 1021Q427 1021 470 1030Q457 985 447.5 934.0Q438 883 431 813Q469 847 512.5 887.0Q556 927 607 976L622 963Q523 850 460 776Q512 773 573.5 770.5Q635 768 709 766L710 747Q622 741 553.0 736.0Q484 731 430 726Q465 682 510.0 629.5Q555 577 611 512L598 499L420 666Q414 574 411 451Q439 453 470 460Q457 415 447.5 364.0Q438 313 431 243Q469 277 512.5 317.0Q556 357 607 406L622 393Q523 280 460 206Q512 203 573.5 200.5Q635 198 709 196L710 177Q622 171 553.0 166.0Q484 161 430 156Q465 112 510.0 59.5Q555 7 611 -58L598 -71L420 96Q417 44 414.5 -16.5Q412 -77 410 -150Z" />
  </g>
</svg>