<svg xmlns="http://www.w3.org/2000/svg" viewBox="100 -128 3442 1211">
  <g transform="translate(0, 955) scale(1, -1)">
    <path fill="black" d="M2438 801Q2457 844 2471.5 882.5Q2486 921 2500.5 968.0Q2515 1015 2532 1083H2558Q2576 1015 2590.5 968.0Q2605 921 2620.0 882.5Q2635 844 2653 801Q2595 810 2543 810Q2489 810 2438 801ZM835 123Q762 188 712.5 228.5Q663 269 619 300Q636 315 665.0 339.0Q694 363 729.0 393.5Q764 424 797 457Q740 507 698.5 540.5Q657 574 619 602Q640 620 677.0 650.5Q714 681 756.5 719.5Q799 758 835 799L852 785Q819 726 790.5 682.0Q762 638 740 602Q752 581 772.0 550.0Q792 519 820 481L835 498L852 484L837 457L852 438L835 424Q832 426 829.0 428.5Q826 431 823 434Q799 393 778.0 361.0Q757 329 740 300Q756 273 784.0 231.0Q812 189 852 137ZM2807 123 2790 137Q2830 189 2858.0 231.0Q2886 273 2902 300Q2885 329 2864.0 361.5Q2843 394 2818 434L2807 424L2790 438L2804 457L2790 484L2807 498L2822 481Q2849 519 2869.0 550.0Q2889 581 2902 602Q2880 638 2851.5 682.0Q2823 726 2790 785L2807 799Q2843 758 2885.5 719.5Q2928 681 2965.5 650.5Q3003 620 3023 602Q2986 574 2944.0 540.5Q2902 507 2845 457Q2878 424 2912.5 393.5Q2947 363 2976.5 339.0Q3006 315 3023 300Q2980 269 2930.5 228.5Q2881 188 2807 123ZM868 619 855 634Q891 673 912.0 695.0Q933 717 947.5 734.5Q962 752 978 776Q991 761 1004.0 743.5Q1017 726 1036.5 703.0Q1056 680 1086 646Q1117 680 1136.0 700.0Q1155 720 1169.0 736.5Q1183 753 1198 776Q1212 760 1226.0 742.0Q1240 724 1261.0 698.5Q1282 673 1317 634L1308 619Q1277 639 1250.5 652.5Q1224 666 1198 680Q1173 666 1146.0 652.5Q1119 639 1088 619Q1057 639 1030.5 652.5Q1004 666 978 680Q953 666 926.0 652.5Q899 639 868 619ZM2438 619Q2422 643 2407.5 660.5Q2393 678 2372.0 700.5Q2351 723 2315 761L2328 776Q2359 757 2386.0 743.0Q2413 729 2438 715Q2464 729 2490.5 743.0Q2517 757 2548 776Q2579 757 2606.0 743.0Q2633 729 2658 715Q2684 729 2710.5 743.0Q2737 757 2768 776L2777 761Q2742 722 2721.0 696.5Q2700 671 2686.0 653.5Q2672 636 2658 619Q2643 642 2629.0 658.5Q2615 675 2596.0 695.0Q2577 715 2546 748Q2515 714 2496.0 691.0Q2477 668 2464.0 651.5Q2451 635 2438 619ZM1382 179Q1373 211 1359.0 236.0Q1345 261 1328 283Q1381 300 1442.5 325.0Q1504 350 1587.0 387.5Q1670 425 1787 478Q1670 532 1587.0 568.5Q1504 605 1442.5 630.0Q1381 655 1328 672Q1345 694 1359.0 719.0Q1373 744 1382 776Q1432 729 1535.5 657.0Q1639 585 1805 489L1806 491Q1807 490 1808.5 490.0Q1810 490 1811 489Q1812 490 1813.5 490.0Q1815 490 1816 491L1817 489Q1982 584 2086.5 656.5Q2191 729 2240 776Q2249 744 2263.0 719.0Q2277 694 2294 672Q2241 655 2179.0 630.0Q2117 605 2034.5 568.5Q1952 532 1834 478Q1952 425 2034.5 387.5Q2117 350 2179.0 325.0Q2241 300 2294 283Q2277 261 2263.0 236.0Q2249 211 2240 179Q2191 226 2086.5 298.5Q1982 371 1817 467L1816 465Q1815 466 1813.5 466.0Q1812 466 1811 467Q1810 466 1808.5 466.0Q1807 466 1806 465L1805 466Q1639 371 1535.5 298.5Q1432 226 1382 179ZM3232 132Q3230 205 3227.5 265.5Q3225 326 3222 378Q3185 344 3141.5 303.0Q3098 262 3044 211L3031 224Q3087 288 3131.5 341.0Q3176 394 3211 438Q3157 443 3088.5 448.0Q3020 453 2932 459L2933 478Q3007 480 3068.5 482.5Q3130 485 3182 488Q3150 526 3110.0 572.0Q3070 618 3020 675L3035 688Q3086 639 3130.0 599.0Q3174 559 3211 525Q3204 595 3194.5 646.0Q3185 697 3172 742Q3216 733 3252 733Q3291 733 3328 742Q3313 690 3302.5 642.0Q3292 594 3284 531Q3325 586 3352.0 629.5Q3379 673 3401 713Q3427 677 3454.5 652.0Q3482 627 3515 608Q3475 583 3440.0 559.0Q3405 535 3366 503Q3419 510 3461.5 518.5Q3504 527 3542 538Q3533 493 3533 457Q3533 420 3542 382Q3490 397 3440.5 407.5Q3391 418 3326 426Q3381 381 3424.5 351.5Q3468 322 3508 299Q3436 253 3397 189Q3369 239 3340.5 283.0Q3312 327 3269 382Q3265 332 3260.5 270.5Q3256 209 3251 132ZM391 132 373 382Q330 327 301.5 283.0Q273 239 245 189Q206 253 134 299Q175 322 217.5 351.5Q260 381 315 426Q251 418 202.0 407.5Q153 397 100 382Q109 420 109 457Q109 493 100 538Q138 527 180.0 518.5Q222 510 276 503Q236 535 201.0 559.0Q166 583 127 608Q160 627 188.0 652.0Q216 677 241 713Q262 673 289.5 629.5Q317 586 357 531Q349 594 338.5 642.0Q328 690 314 742Q352 733 390 733Q427 733 470 742Q457 697 447.5 646.0Q438 595 431 525Q469 559 512.5 599.0Q556 639 607 688L622 675Q523 562 460 488Q512 485 573.5 482.5Q635 480 709 478L710 459Q622 453 553.0 448.0Q484 443 430 438Q465 394 510.0 341.5Q555 289 611 224L598 211L420 378Q417 326 414.5 265.5Q412 205 410 132ZM868 509 855 524Q891 563 912.0 585.0Q933 607 947.5 624.5Q962 642 978 666Q991 651 1004.0 633.5Q1017 616 1036.5 593.0Q1056 570 1086 536Q1117 570 1136.0 590.0Q1155 610 1169.0 626.5Q1183 643 1198 666Q1212 650 1226.0 632.0Q1240 614 1261.0 588.5Q1282 563 1317 524L1308 509Q1277 529 1250.5 542.5Q1224 556 1198 570Q1173 556 1146.0 542.5Q1119 529 1088 509Q1057 529 1030.5 542.5Q1004 556 978 570Q953 556 926.0 542.5Q899 529 868 509ZM2438 509Q2422 533 2407.5 550.5Q2393 568 2372.0 590.5Q2351 613 2315 651L2328 666Q2359 647 2386.0 633.0Q2413 619 2438 605Q2464 619 2490.5 633.0Q2517 647 2548 666Q2579 647 2606.0 633.0Q2633 619 2658 605Q2684 619 2710.5 633.0Q2737 647 2768 666L2777 651Q2742 612 2721.0 586.5Q2700 561 2686.0 543.5Q2672 526 2658 509Q2643 532 2629.0 548.5Q2615 565 2596.0 585.0Q2577 605 2546 638Q2515 604 2496.0 581.0Q2477 558 2464.0 541.5Q2451 525 2438 509ZM2438 399Q2422 423 2407.5 440.5Q2393 458 2372.0 480.5Q2351 503 2315 541L2328 556Q2359 537 2386.0 523.0Q2413 509 2438 495Q2464 509 2490.5 523.0Q2517 537 2548 556Q2579 537 2606.0 523.0Q2633 509 2658 495Q2684 509 2710.5 523.0Q2737 537 2768 556L2777 541Q2742 502 2721.0 476.5Q2700 451 2686.0 433.5Q2672 416 2658 399Q2643 422 2629.0 438.5Q2615 455 2596.0 475.0Q2577 495 2546 528Q2515 494 2496.0 471.0Q2477 448 2464.0 431.5Q2451 415 2438 399ZM868 399 855 414Q891 453 912.0 475.0Q933 497 947.5 514.5Q962 532 978 556Q991 541 1004.0 523.5Q1017 506 1036.5 483.0Q1056 460 1086 426Q1117 460 1136.0 480.0Q1155 500 1169.0 516.5Q1183 533 1198 556Q1212 540 1226.0 522.0Q1240 504 1261.0 478.5Q1282 453 1317 414L1308 399Q1277 419 1250.5 432.5Q1224 446 1198 460Q1173 446 1146.0 432.5Q1119 419 1088 399Q1057 419 1030.5 432.5Q1004 446 978 460Q953 446 926.0 432.5Q899 419 868 399ZM2438 289Q2422 313 2407.5 330.5Q2393 348 2372.0 370.5Q2351 393 2315 431L2328 446Q2359 427 2386.0 413.0Q2413 399 2438 385Q2464 399 2490.5 413.0Q2517 427 2548 446Q2579 427 2606.0 413.0Q2633 399 2658 385Q2684 399 2710.5 413.0Q2737 427 2768 446L2777 431Q2742 392 2721.0 366.5Q2700 341 2686.0 323.5Q2672 306 2658 289Q2643 312 2629.0 328.5Q2615 345 2596.0 365.0Q2577 385 2546 418Q2515 384 2496.0 361.0Q2477 338 2464.0 321.5Q2451 305 2438 289ZM868 289 855 304Q891 343 912.0 365.0Q933 387 947.5 404.5Q962 422 978 446Q991 431 1004.0 413.5Q1017 396 1036.5 373.0Q1056 350 1086 316Q1117 350 1136.0 370.0Q1155 390 1169.0 406.5Q1183 423 1198 446Q1212 430 1226.0 412.0Q1240 394 1261.0 368.5Q1282 343 1317 304L1308 289Q1277 309 1250.5 322.5Q1224 336 1198 350Q1173 336 1146.0 322.5Q1119 309 1088 289Q1057 309 1030.5 322.5Q1004 336 978 350Q953 336 926.0 322.5Q899 309 868 289ZM868 179 855 194Q891 233 912.0 255.0Q933 277 947.5 294.5Q962 312 978 336Q991 321 1004.0 303.5Q1017 286 1036.5 263.0Q1056 240 1086 206Q1117 240 1136.0 260.0Q1155 280 1169.0 296.5Q1183 313 1198 336Q1212 320 1226.0 302.0Q1240 284 1261.0 258.5Q1282 233 1317 194L1308 179Q1277 199 1250.5 212.5Q1224 226 1198 240Q1173 226 1146.0 212.5Q1119 199 1088 179Q1057 199 1030.5 212.5Q1004 226 978 240Q953 226 926.0 212.5Q899 199 868 179ZM2438 179Q2422 203 2407.5 220.5Q2393 238 2372.0 260.5Q2351 283 2315 321L2328 336Q2359 317 2386.0 303.0Q2413 289 2438 275Q2464 289 2490.5 303.0Q2517 317 2548 336Q2579 317 2606.0 303.0Q2633 289 2658 275Q2684 289 2710.5 303.0Q2737 317 2768 336L2777 321Q2742 282 2721.0 256.5Q2700 231 2686.0 213.5Q2672 196 2658 179Q2643 202 2629.0 218.5Q2615 235 2596.0 255.0Q2577 275 2546 308Q2515 274 2496.0 251.0Q2477 228 2464.0 211.5Q2451 195 2438 179ZM1072 -128Q1055 -60 1040.5 -13.0Q1026 34 1011.5 73.0Q997 112 978 154Q1029 145 1083 145Q1135 145 1193 154Q1175 112 1160.0 73.0Q1145 34 1130.5 -13.0Q1116 -60 1098 -128Z" />
  </g>
</svg>