<svg xmlns="http://www.w3.org/2000/svg" viewBox="100 -231 1673 993">
  <g transform="translate(0, 531) scale(1, -1)">
    <path fill="black" d="M481 -96Q487 -70 487 -47Q487 -33 485.0 -18.0Q483 -3 481 11Q493 6 522.0 0.0Q551 -6 588.5 -12.0Q626 -18 666.0 -23.5Q706 -29 742 -34Q740 16 736 76Q702 72 662.5 66.0Q623 60 586.0 53.5Q549 47 521.0 41.0Q493 35 481 30Q487 56 487 79Q487 93 485.0 108.0Q483 123 481 137Q498 130 540.5 122.0Q583 114 635.5 106.5Q688 99 735 92Q731 170 724.0 253.0Q717 336 709 408Q706 411 702.5 413.5Q699 416 695 419Q669 391 636.0 354.5Q603 318 568.5 279.5Q534 241 503.5 206.5Q473 172 451.5 146.5Q430 121 424 111Q406 142 383.0 163.5Q360 185 334 203L342 206Q310 237 272.0 272.5Q234 308 198.5 341.0Q163 374 136.5 397.0Q110 420 100 425Q126 439 145.0 457.0Q164 475 181 496L185 486Q226 524 277.5 573.5Q329 623 374 667Q372 668 370.5 669.0Q369 670 367 671Q392 689 415.5 710.0Q439 731 457 762Q458 757 465 747L469 744L468 743Q483 721 510.5 685.0Q538 649 571.5 607.0Q605 565 639.5 523.5Q674 482 702 447Q704 449 704 449Q698 497 691.5 533.5Q685 570 677 589Q700 585 721.5 583.0Q743 581 763 581Q784 581 804.5 583.0Q825 585 846 589Q810 598 793 600Q813 629 829.5 661.5Q846 694 857 736Q871 721 925.0 688.0Q979 655 1058.5 612.0Q1138 569 1228 522Q1265 535 1295.5 551.5Q1326 568 1354 589Q1356 561 1365.0 523.0Q1374 485 1387 441Q1425 422 1460.5 404.0Q1496 386 1530 369Q1487 437 1447.5 490.5Q1408 544 1382 568Q1429 582 1465.5 600.0Q1502 618 1535 643Q1538 607 1551.0 555.5Q1564 504 1585.0 444.0Q1606 384 1629 320L1711 281L1763 298L1773 278Q1748 269 1720.5 258.0Q1693 247 1662 235L1713 104L1693 94Q1677 123 1659.5 154.5Q1642 186 1622 219L1488 162L1532 50L1512 40Q1499 64 1484.0 91.0Q1469 118 1452 146Q1378 114 1311.5 83.0Q1245 52 1197.5 26.0Q1150 0 1132 -16Q1124 27 1110.5 60.5Q1097 94 1079 125H1081Q1110 125 1162.5 135.0Q1215 145 1282.5 161.5Q1350 178 1422 197Q1383 262 1342.0 325.5Q1301 389 1266 437Q1183 470 1103.5 500.0Q1024 530 958.0 553.5Q892 577 847 589Q834 557 824.0 496.5Q814 436 805.5 359.5Q797 283 790.5 201.5Q784 120 778.0 44.5Q772 -31 767 -88H745L743 -49Q709 -53 668.5 -59.0Q628 -65 589.5 -71.5Q551 -78 522.0 -84.5Q493 -91 481 -96ZM365 219Q396 237 444.5 269.0Q493 301 544 336Q528 350 508.0 366.0Q488 382 466 398Q438 359 415.5 326.5Q393 294 387 280Q372 302 354.0 321.0Q336 340 311 355Q324 360 354.5 381.5Q385 403 422 431Q386 458 355.5 479.0Q325 500 311 506Q336 521 354.0 540.0Q372 559 387 581Q393 566 415.0 533.5Q437 501 465 463Q489 482 512.0 500.0Q535 518 553 533Q510 568 470.0 599.0Q430 630 402 649Q374 611 342.5 568.0Q311 525 281.5 484.5Q252 444 230 413Q260 369 297.0 316.0Q334 263 365 219ZM554 343Q589 366 621.0 389.0Q653 412 679 431L562 526L489 429ZM1007 -231 1003 -144Q954 -148 895.5 -153.5Q837 -159 782.5 -164.5Q728 -170 689.5 -175.0Q651 -180 641 -185Q647 -159 647 -136Q647 -122 645.0 -107.0Q643 -92 641 -78Q652 -82 690.0 -87.0Q728 -92 782.0 -97.0Q836 -102 894.0 -106.5Q952 -111 1001 -116L998 -52Q940 -61 890.0 -73.5Q840 -86 817 -96Q823 -70 823 -47Q823 -33 821.0 -18.0Q819 -3 817 11Q840 1 888.5 -10.0Q937 -21 996 -31Q995 -6 993.0 20.0Q991 46 989 72Q934 64 886.0 51.5Q838 39 817 30Q823 56 823 79Q823 93 821.0 108.0Q819 123 817 137Q839 127 885.0 116.5Q931 106 988 96L980 197Q927 188 882.0 176.5Q837 165 817 156Q823 182 823 205Q823 219 821.0 234.0Q819 249 817 263Q838 254 881.0 243.5Q924 233 977 224Q975 249 972.5 272.0Q970 295 967 317Q918 309 876.0 299.5Q834 290 817 282Q823 308 823 331Q823 345 821.0 360.0Q819 375 817 389Q834 382 874.0 373.0Q914 364 962 356Q957 394 951.0 422.0Q945 450 939 466Q962 462 984.0 460.0Q1006 458 1026 458Q1047 458 1067.5 460.0Q1088 462 1109 466Q1098 439 1089.0 391.0Q1080 343 1073.0 280.5Q1066 218 1059.5 149.0Q1053 80 1048.0 11.0Q1043 -58 1038 -120L1092 -126V-136L1036 -141Q1035 -166 1033.0 -188.5Q1031 -211 1029 -231ZM1470 210 1604 249Q1594 266 1584.0 283.5Q1574 301 1563 318Q1527 332 1487.5 348.0Q1448 364 1407 381Q1421 340 1437.5 296.5Q1454 253 1470 210ZM1651 263 1676 271 1643 284Q1645 279 1647.5 273.5Q1650 268 1651 263Z" />
  </g>
</svg>