<svg xmlns="http://www.w3.org/2000/svg" viewBox="100 -112 1386 852">
  <g transform="translate(0, 628) scale(1, -1)">
    <path fill="black" d="M338 -112Q342 -91 344.0 -70.5Q346 -50 346 -29Q346 -9 344.0 13.0Q342 35 338 58Q358 50 381.0 43.0Q404 36 432 29Q433 40 434.0 52.0Q435 64 435 75Q435 95 431 112Q442 108 468.5 102.5Q495 97 530.0 92.0Q565 87 602.5 83.0Q640 79 672 77L666 177Q622 170 573.0 162.0Q524 154 485.0 146.0Q446 138 431 130Q432 144 433.5 159.0Q435 174 435 189Q435 210 431 227Q442 223 467.5 218.0Q493 213 527.0 208.0Q561 203 597.5 199.0Q634 195 665 192Q664 218 662.0 242.5Q660 267 658 291Q615 284 567.5 276.0Q520 268 482.5 260.0Q445 252 431 245Q432 256 433.0 266.5Q434 277 434 287Q393 257 348.0 221.5Q303 186 249.0 140.5Q195 95 126 33L100 54Q158 130 199.5 191.5Q241 253 264 292Q233 345 198.5 412.0Q164 479 116 565L144 580Q195 521 250.0 466.5Q305 412 354.0 368.5Q403 325 434 297Q436 320 431 342Q445 337 482.5 330.0Q520 323 567.5 317.5Q615 312 657 308L648 403Q606 396 560.5 388.5Q515 381 480.0 373.5Q445 366 431 359Q432 373 433.5 388.0Q435 403 435 418Q435 439 431 456Q444 451 479.5 444.5Q515 438 560.0 432.5Q605 427 646 423Q644 449 641.0 473.0Q638 497 635 516Q594 509 551.5 502.0Q509 495 476.5 488.0Q444 481 431 474Q432 491 433.5 508.5Q435 526 434 544Q404 540 379.0 534.5Q354 529 334 524Q346 581 346 635Q346 689 334 740Q424 715 563.5 698.5Q703 682 887.5 669.5Q1072 657 1294 642Q1289 665 1283.0 688.0Q1277 711 1270 736Q1321 724 1375 724Q1429 724 1486 736Q1472 686 1461.0 630.5Q1450 575 1441.0 507.0Q1432 439 1425.0 351.5Q1418 264 1412.5 150.0Q1407 36 1403 -112H1377Q1370 -16 1364.5 63.0Q1359 142 1354 207Q1295 202 1222.0 196.5Q1149 191 1072.5 184.5Q996 178 925.0 170.0Q854 162 798.0 152.0Q742 142 712 130Q716 150 718.0 170.5Q720 191 720 212Q720 229 718.5 245.5Q717 262 715 281Q711 214 708.0 141.0Q705 68 701 -6Q717 -7 733.5 -8.0Q750 -9 766 -10V-32L700 -38L696 -112H681L678 -40Q570 -52 487.5 -68.5Q405 -85 338 -112ZM1352 233Q1345 318 1337.5 383.5Q1330 449 1321.5 502.5Q1313 556 1303 603Q1148 598 1004.0 591.0Q860 584 738 575Q731 530 726.0 458.5Q721 387 716 298Q743 288 798.0 279.5Q853 271 924.0 263.5Q995 256 1072.0 250.0Q1149 244 1222.0 240.0Q1295 236 1352 233ZM631 539Q630 547 629.0 554.0Q628 561 626 567Q595 564 565.5 561.0Q536 558 509 554Q537 550 569.0 546.0Q601 542 631 539ZM676 -5 672 63Q637 57 596.5 50.5Q556 44 519.5 37.5Q483 31 458 24Q554 4 676 -5Z" />
  </g>
</svg>