<svg xmlns="http://www.w3.org/2000/svg" viewBox="100 -112 1277 848">
  <g transform="translate(0, 624) scale(1, -1)">
    <path fill="black" d="M1268 -112Q1258 46 1248.5 160.5Q1239 275 1230.5 359.0Q1222 443 1211 508Q1178 451 1149.0 406.5Q1120 362 1097 324Q1117 290 1152.5 237.5Q1188 185 1237 120L1216 102Q1130 177 1071.0 226.0Q1012 275 961 312Q757 194 629.0 104.5Q501 15 439 -44Q428 -3 411.0 28.0Q394 59 372 86L392 92V314Q329 308 289.5 302.0Q250 296 221.5 288.5Q193 281 165.5 270.0Q138 259 100 244Q104 265 106.0 285.5Q108 306 108 327Q108 347 106.0 369.0Q104 391 100 414Q131 401 158.0 389.5Q185 378 216.0 368.0Q247 358 289.0 350.5Q331 343 392 340V566Q387 568 382.0 570.0Q377 572 372 573Q394 600 411.0 631.5Q428 663 439 703Q501 643 631.5 553.0Q762 463 969 343Q998 367 1037.5 400.5Q1077 434 1120.5 474.0Q1164 514 1203 556Q1194 603 1184.0 646.5Q1174 690 1161 736Q1212 724 1266 724Q1320 724 1377 736Q1363 686 1352.0 630.5Q1341 575 1332.0 507.0Q1323 439 1316.0 351.5Q1309 264 1303.5 150.0Q1298 36 1294 -112ZM427 104 482 125V533Q468 539 454.5 544.5Q441 550 427 554ZM517 426Q545 437 563.0 444.0Q581 451 595.5 458.0Q610 465 626 474Q596 487 569.0 498.0Q542 509 517 519ZM815 269 947 330Q849 374 771.0 409.5Q693 445 630 472Q635 451 640.0 425.0Q645 399 659 349Q692 362 712.5 370.0Q733 378 748.5 385.5Q764 393 782 404Q788 381 793.5 353.0Q799 325 815 269ZM658 199 802 264Q788 287 775.0 304.5Q762 322 750 340Q728 338 705.5 337.5Q683 337 656 333L655 336L651 333Q637 357 623.5 375.0Q610 393 597 412Q578 410 559.0 409.5Q540 409 517 407V270Q546 281 564.0 288.5Q582 296 597.0 303.0Q612 310 629 320Q634 298 639.5 272.5Q645 247 658 199ZM517 139Q545 150 576.0 163.5Q607 177 641 192Q630 210 619.0 225.0Q608 240 597 256Q578 254 559.0 253.5Q540 253 517 251Z" />
  </g>
</svg>