<svg xmlns="http://www.w3.org/2000/svg" viewBox="100 -112 747 848">
  <g transform="translate(0, 624) scale(1, -1)">
    <path fill="black" d="M726 -112V-108Q611 -68 528.5 -39.5Q446 -11 386.0 9.0Q326 29 279.0 42.5Q232 56 190.0 65.5Q148 75 100 83Q147 149 167 241Q206 211 251.0 181.5Q296 152 358.0 118.0Q420 84 509.0 40.0Q598 -4 725 -63Q723 176 701.5 351.0Q680 526 653 647Q559 603 491.5 569.5Q424 536 375.5 510.0Q327 484 291.5 461.5Q256 439 227.0 418.0Q198 397 167 374Q147 466 100 532Q146 540 183.0 547.5Q220 555 258.5 565.0Q297 575 347.0 590.5Q397 606 468.5 630.5Q540 655 643 691L631 736Q682 724 736 724Q790 724 847 736Q824 653 802.0 533.5Q780 414 766.0 254.0Q752 94 752 -112Z" />
  </g>
</svg>