<svg xmlns="http://www.w3.org/2000/svg" viewBox="100 -22 1498 715">
  <g transform="translate(0, 671) scale(1, -1)">
    <path fill="black" d="M1507 -22Q1467 -2 1432.0 8.5Q1397 19 1356 23Q1379 51 1404.5 96.0Q1430 141 1456 196Q1428 193 1386.5 189.5Q1345 186 1298 183Q1287 150 1276.0 115.0Q1265 80 1257.5 53.5Q1250 27 1249 18Q1233 29 1216.0 34.0Q1199 39 1182 44L1179 28Q1163 39 1146.0 44.0Q1129 49 1112 53L1110 39Q1093 50 1075.5 55.5Q1058 61 1039 66Q1048 74 1067.0 103.5Q1086 133 1107 168Q1052 164 1011.5 159.5Q971 155 961 151Q963 165 965.0 180.0Q967 195 967 209Q967 233 961 258Q972 253 1024.5 247.5Q1077 242 1147 236L1167 269L1179 263L1170 234Q1182 233 1194.0 232.0Q1206 231 1219 230L1236 258L1247 252L1240 228Q1253 227 1265.5 226.5Q1278 226 1291 224L1306 248L1318 245L1311 223L1463 211Q1476 239 1488.5 268.5Q1501 298 1514 328Q1498 366 1481.5 403.5Q1465 441 1448 475Q1422 472 1387.0 469.5Q1352 467 1312 464L1318 444L1306 441L1293 462L1240 459L1247 437L1236 431L1220 457L1170 453L1179 426L1167 420L1148 452Q1078 447 1025.0 441.5Q972 436 961 431Q963 445 965.0 459.5Q967 474 967 488Q967 512 961 537Q953 477 946.0 407.0Q939 337 933.5 266.0Q928 195 923.5 130.5Q919 66 914 16H892L890 47Q864 55 824.5 68.0Q785 81 740.5 95.5Q696 110 654.0 122.5Q612 135 581.0 143.5Q550 152 539 152Q563 185 574 223L572 231Q542 203 505.0 169.0Q468 135 433.5 102.5Q399 70 375.0 46.5Q351 23 346 16Q336 36 321.5 50.5Q307 65 291 80Q300 83 330.5 101.5Q361 120 401.5 147.0Q442 174 485.0 203.0Q528 232 563 254Q554 274 539 294Q553 294 593.5 305.5Q634 317 685 333Q634 349 593.5 360.0Q553 371 539 372Q551 389 560 405Q525 428 482.5 456.5Q440 485 400.0 511.5Q360 538 330.0 556.5Q300 575 291 578Q307 593 321.5 607.5Q336 622 346 642Q351 635 374.5 611.5Q398 588 432.0 556.5Q466 525 503.0 491.0Q540 457 570 429L574 443Q569 461 560.5 479.0Q552 497 539 514Q551 514 585.5 523.5Q620 533 665.5 547.0Q711 561 758.5 576.5Q806 592 844 604Q835 665 824 693Q847 689 869.0 687.0Q891 685 911 685Q932 685 952.5 687.0Q973 689 994 693Q984 669 976.0 629.0Q968 589 961 538Q970 534 1011.0 529.0Q1052 524 1108 519Q1086 555 1067.0 584.5Q1048 614 1039 623Q1058 628 1075.5 633.5Q1093 639 1110 650L1112 635Q1129 640 1146.0 645.5Q1163 651 1179 661L1182 645Q1199 650 1216.0 655.5Q1233 661 1249 671Q1250 662 1257.5 635.0Q1265 608 1276.5 573.0Q1288 538 1299 504L1439 493Q1417 537 1396.5 573.0Q1376 609 1356 633Q1397 638 1432.0 648.5Q1467 659 1507 678V666Q1507 625 1518.5 554.0Q1530 483 1546 403L1577 478L1598 472Q1589 439 1580.0 402.5Q1571 366 1562 328Q1571 290 1580.0 253.0Q1589 216 1598 184L1577 178L1546 253Q1537 208 1528.0 157.5Q1519 107 1513.0 60.5Q1507 14 1507 -22ZM1267 506Q1244 545 1221.0 583.0Q1198 621 1184 637Q1190 615 1201.5 579.5Q1213 544 1224 509ZM1187 512Q1167 547 1147.0 578.5Q1127 610 1115 625Q1121 605 1130.5 575.5Q1140 546 1150 515ZM758 356 868 392Q859 497 848 581Q812 560 768.5 535.0Q725 510 685.0 485.5Q645 461 617 443Q643 426 680.5 403.0Q718 380 758 356ZM279 86Q269 106 254.5 120.5Q240 135 224 150Q233 152 257.5 166.5Q282 181 315.0 202.5Q348 224 384.5 248.0Q421 272 454.5 293.5Q488 315 511 329Q489 342 456.0 364.0Q423 386 386.5 410.5Q350 435 316.5 457.0Q283 479 258.0 494.0Q233 509 224 512Q240 527 254.5 541.5Q269 556 279 576Q284 569 305.5 547.0Q327 525 358.5 495.0Q390 465 424.0 433.5Q458 402 487.0 375.0Q516 348 532 332Q516 316 487.0 288.5Q458 261 424.0 229.5Q390 198 358.5 167.5Q327 137 305.5 115.0Q284 93 279 86ZM217 153Q207 173 192.5 187.5Q178 202 162 217Q173 220 196.5 232.0Q220 244 250.0 261.5Q280 279 311.5 297.5Q343 316 370 331Q343 346 311.5 365.0Q280 384 250.0 401.0Q220 418 196.5 431.0Q173 444 162 447Q178 462 192.5 476.5Q207 491 217 511Q223 502 243.0 480.5Q263 459 290.5 432.0Q318 405 346.0 378.5Q374 352 394 332Q374 312 346.0 285.5Q318 259 290.5 232.0Q263 205 243.0 183.5Q223 162 217 153ZM155 219Q145 239 130.5 253.5Q116 268 100 283Q122 289 153.5 297.5Q185 306 231 331Q181 360 152.0 368.0Q123 376 100 383Q116 398 130.5 412.5Q145 427 155 447Q173 419 194.0 393.0Q215 367 252 330Q212 290 189.0 263.5Q166 237 155 219ZM876 287 870 374 798 333ZM890 59Q888 104 885.0 158.5Q882 213 877 271Q855 279 824.0 289.0Q793 299 758 309Q718 286 680.5 263.0Q643 240 617 223Q642 206 678.0 184.0Q714 162 753.0 139.0Q792 116 828.5 95.0Q865 74 890 59ZM1184 51Q1197 68 1220.0 105.0Q1243 142 1266 180L1223 177Q1212 143 1201.0 108.5Q1190 74 1184 51ZM1115 63Q1127 79 1147.0 110.0Q1167 141 1187 175L1149 172Z" />
  </g>
</svg>