<svg xmlns="http://www.w3.org/2000/svg" viewBox="100 -190 1274 896">
  <g transform="translate(0, 516) scale(1, -1)">
    <path fill="black" d="M286 -190Q286 -164 284.0 -129.0Q282 -94 279 -54Q225 -61 182.0 -68.5Q139 -76 112 -84Q118 -56 121.5 -27.0Q125 2 125 32Q125 62 121.5 92.5Q118 123 112 154Q120 152 131.0 149.0Q142 146 155 144Q154 183 150.0 235.0Q146 287 140.0 343.0Q134 399 127.0 449.5Q120 500 113.0 536.0Q106 572 100 585Q133 579 168 579Q183 579 198.5 580.0Q214 581 230 585Q226 572 220.0 535.0Q214 498 206.5 447.0Q199 396 192.0 340.0Q185 284 180.5 231.5Q176 179 175 141Q193 138 214.5 135.0Q236 132 260 129Q253 190 245.0 236.0Q237 282 231 296Q264 290 299 290Q314 290 329.5 291.0Q345 292 361 296Q357 282 349.0 233.0Q341 184 333 120L433 111Q425 178 416.5 229.5Q408 281 401 296Q434 290 469 290Q484 290 499.5 291.0Q515 292 531 296Q527 280 518.5 226.5Q510 173 501 104L604 96Q596 167 587.0 223.5Q578 280 571 296Q604 290 639 290Q654 290 669.5 291.0Q685 292 701 296Q697 280 688.0 222.0Q679 164 670 90Q696 89 722.5 87.0Q749 85 776 83Q771 134 764.5 178.0Q758 222 752.0 253.5Q746 285 741 296Q774 290 809 290Q824 290 839.5 291.0Q855 292 871 296Q868 285 862.5 253.0Q857 221 851.0 175.5Q845 130 838 79Q867 77 893.5 75.5Q920 74 947 72Q941 125 934.5 171.5Q928 218 922.0 251.5Q916 285 911 296Q944 290 979 290Q994 290 1009.5 291.0Q1025 292 1041 296Q1038 285 1032.0 251.0Q1026 217 1019.5 169.0Q1013 121 1007 68Q1113 61 1199.0 56.5Q1285 52 1331 50Q1220 147 1137.5 218.0Q1055 289 992.5 339.5Q930 390 879.0 427.0Q828 464 781.0 493.5Q734 523 681 553Q770 609 834 706Q860 661 891.0 614.0Q922 567 963.5 512.5Q1005 458 1062.0 391.5Q1119 325 1195.5 240.5Q1272 156 1373 49H1374V21Q1362 21 1309.5 19.0Q1257 17 1177.0 13.5Q1097 10 1000 4Q994 -53 990.0 -104.5Q986 -156 986 -190H966Q966 -156 962.5 -105.5Q959 -55 954 1Q923 0 892.0 -2.0Q861 -4 829 -6Q823 -60 819.5 -109.0Q816 -158 816 -190H796Q796 -121 785 -9L657 -18Q652 -69 649.0 -114.0Q646 -159 646 -190H626Q626 -160 623.5 -115.5Q621 -71 616 -21L486 -33Q482 -79 479.0 -120.0Q476 -161 476 -190H456Q456 -162 453.5 -122.0Q451 -82 447 -36Q412 -40 378.5 -43.0Q345 -46 314 -50Q310 -91 308.0 -127.5Q306 -164 306 -190Z" />
  </g>
</svg>