<svg xmlns="http://www.w3.org/2000/svg" viewBox="100 -112 794 848">
  <g transform="translate(0, 624) scale(1, -1)">
    <path fill="black" d="M773 -112Q773 -93 773.0 -75.0Q773 -57 772 -40Q659 -2 573.0 21.0Q487 44 421.0 56.5Q355 69 301.5 74.0Q248 79 199.5 81.0Q151 83 100 86Q159 184 170 291Q212 262 251.5 234.5Q291 207 336.0 179.0Q381 151 440.5 121.5Q500 92 580.5 59.0Q661 26 772 -12Q771 69 766.5 142.0Q762 215 756 281Q701 275 643.5 266.0Q586 257 541.5 248.0Q497 239 481 233Q482 248 482.5 264.5Q483 281 483 297Q483 314 482.5 330.0Q482 346 481 362Q497 356 541.0 346.5Q585 337 641.5 328.0Q698 319 753 313Q745 393 734.5 460.5Q724 528 713 586Q573 533 474.0 484.5Q375 436 303.0 391.5Q231 347 170 305Q159 412 100 510Q174 514 258.5 522.0Q343 530 452.0 552.0Q561 574 706 617Q699 650 692.0 680.0Q685 710 678 736Q729 724 783 724Q837 724 894 736Q873 660 852.5 553.5Q832 447 818 307Q823 306 829.0 306.0Q835 306 840 306V289L816 287Q808 201 803.5 101.5Q799 2 799 -112Z" />
  </g>
</svg>