<svg xmlns="http://www.w3.org/2000/svg" viewBox="100 -361 1269 1364">
  <g transform="translate(0, 642) scale(1, -1)">
    <path fill="black" d="M535 321Q496 356 450.0 381.0Q404 406 344 422Q380 460 411.0 494.5Q442 529 474.0 570.5Q506 612 544.0 668.5Q582 725 631.0 806.5Q680 888 746 1003L769 991Q717 871 682.0 787.0Q647 703 624.5 642.5Q602 582 587.5 535.0Q573 488 562 441Q594 476 623.5 509.5Q653 543 684.0 584.0Q715 625 752.0 680.5Q789 736 836.5 815.0Q884 894 946 1003L969 991Q917 871 882.0 787.0Q847 703 824.5 642.5Q802 582 787.5 535.0Q773 488 762 441Q794 476 823.5 509.5Q853 543 884.0 584.0Q915 625 952.0 680.5Q989 736 1036.5 815.0Q1084 894 1146 1003L1169 991Q1117 871 1082.0 787.0Q1047 703 1024.5 642.5Q1002 582 987.5 535.0Q973 488 962 441Q994 476 1023.5 509.5Q1053 543 1084.0 584.0Q1115 625 1152.0 680.5Q1189 736 1236.5 815.0Q1284 894 1346 1003L1369 991Q1324 888 1292.0 811.5Q1260 735 1238.0 678.0Q1216 621 1201.0 576.5Q1186 532 1175.5 492.5Q1165 453 1155.5 412.0Q1146 371 1135 321Q1098 354 1055.0 378.0Q1012 402 956 418Q951 396 946.0 372.0Q941 348 935 321Q898 354 855.0 378.0Q812 402 756 418Q751 396 746.0 372.0Q741 348 735 321Q698 354 655.0 378.0Q612 402 556 418Q551 396 546.0 372.0Q541 348 535 321ZM123 -361 100 -349Q145 -246 177.0 -169.5Q209 -93 231.0 -36.0Q253 21 268.0 65.5Q283 110 293.5 149.5Q304 189 313.5 230.0Q323 271 334 321Q406 255 512 223L534 321Q606 255 712 223L734 321Q806 255 912 223L934 321Q973 286 1019.0 261.5Q1065 237 1125 220Q1089 182 1058.0 147.5Q1027 113 995.0 71.5Q963 30 925.0 -26.5Q887 -83 838.0 -164.0Q789 -245 723 -361L700 -349Q752 -229 787.0 -145.0Q822 -61 844.5 -1.0Q867 59 881.5 106.5Q896 154 907 201Q875 166 845.5 132.5Q816 99 785.0 58.0Q754 17 717.0 -39.0Q680 -95 632.5 -173.0Q585 -251 523 -361L500 -349Q552 -229 587.0 -145.0Q622 -61 644.5 -1.0Q667 59 681.5 106.5Q696 154 707 201Q675 166 645.5 132.5Q616 99 585.0 58.0Q554 17 517.0 -39.0Q480 -95 432.5 -173.0Q385 -251 323 -361L300 -349Q352 -229 387.0 -145.0Q422 -61 444.5 -1.0Q467 59 481.5 106.5Q496 154 507 201Q475 166 445.5 132.5Q416 99 385.0 58.0Q354 17 317.0 -39.0Q280 -95 232.5 -173.0Q185 -251 123 -361Z" />
  </g>
</svg>