<svg xmlns="http://www.w3.org/2000/svg" viewBox="100 -334 3045 1264">
  <g transform="translate(0, 596) scale(1, -1)">
    <path fill="black" d="M172 -334Q159 -127 149.5 33.0Q140 193 129.0 310.5Q118 428 100 507Q141 498 183 498Q208 498 235 501Q236 510 236.5 520.0Q237 530 237 540Q237 557 235.5 573.5Q234 590 232 607H231V614L232 613Q235 640 237.0 666.5Q239 693 239 718Q239 744 237.0 769.5Q235 795 231 823Q285 811 336.0 801.5Q387 792 443.0 785.0Q499 778 568.5 773.5Q638 769 728.0 766.5Q818 764 938 763Q982 800 1014.5 842.0Q1047 884 1069 930Q1102 884 1134.0 843.0Q1166 802 1204.5 759.5Q1243 717 1293.0 667.5Q1343 618 1410.5 555.0Q1478 492 1569 409L1585 423Q1578 434 1569.5 443.5Q1561 453 1552 463Q1597 478 1632.5 496.0Q1668 514 1714 542Q1800 622 1891.5 714.5Q1983 807 2069 929Q2123 889 2202.5 844.0Q2282 799 2376.0 752.5Q2470 706 2568.5 661.5Q2667 617 2760.0 577.0Q2853 537 2929 506Q2934 562 2935.5 613.0Q2937 664 2937 719Q3031 670 3145 663Q3119 618 3094.0 567.5Q3069 517 3042.5 453.5Q3016 390 2986.5 307.5Q2957 225 2922.5 116.5Q2888 8 2846 -134L2820 -127Q2740 -40 2683.5 20.5Q2627 81 2586.5 123.5Q2546 166 2513 197Q2429 132 2368.0 84.0Q2307 36 2263.5 -1.0Q2220 -38 2188.0 -68.0Q2156 -98 2130.0 -125.5Q2104 -153 2078.5 -182.0Q2053 -211 2022 -248Q2002 -201 1981.0 -162.0Q1960 -123 1919 -80Q1831 10 1759.0 77.0Q1687 144 1625.0 194.0Q1563 244 1504 283Q1417 202 1355.0 142.5Q1293 83 1248.0 34.5Q1203 -14 1166.5 -59.5Q1130 -105 1094 -156Q1078 -121 1055.0 -88.5Q1032 -56 1003 -27L1000 -104H972Q971 -83 969.5 -62.0Q968 -41 967 -21Q813 -37 696.5 -52.5Q580 -68 493.0 -82.5Q406 -97 342.5 -111.5Q279 -126 231 -140Q235 -110 237.0 -82.0Q239 -54 239 -26Q239 -3 237.5 20.0Q236 43 232 67H231Q231 70 232 72Q232 73 231.5 74.0Q231 75 231 76L232 75Q234 90 235.0 107.5Q236 125 236 143Q236 156 236.0 169.0Q236 182 234 195Q233 194 231 194Q231 196 231.5 199.0Q232 202 232 205Q232 208 231.5 211.0Q231 214 231 218Q221 106 213.5 -33.5Q206 -173 200 -334ZM993 728H1004L1003 729Q1001 728 998.0 728.0Q995 728 993 728ZM927 553Q923 601 917.0 642.5Q911 684 904 718Q726 699 600.5 680.5Q475 662 389.0 644.5Q303 627 242 610Q265 603 313.0 597.0Q361 591 425.0 585.5Q489 580 560.0 575.0Q631 570 700.5 566.0Q770 562 829.0 558.5Q888 555 927 553ZM1990 523Q1991 531 1991.5 540.0Q1992 549 1992 558Q1992 584 1989 609Q2036 594 2076.5 587.5Q2117 581 2174 576Q2155 625 2138.5 660.5Q2122 696 2111 709H2113Q2110 710 2107.0 710.5Q2104 711 2101 711Q2072 697 2041.0 679.0Q2010 661 1975 640Q1977 620 1980.5 590.0Q1984 560 1990 523ZM1005 34Q1042 51 1081.5 72.0Q1121 93 1166 120Q1157 253 1136.5 351.0Q1116 449 1100 507Q1141 498 1183 498Q1226 498 1271 507Q1251 432 1235.5 346.5Q1220 261 1210 146Q1267 181 1336.0 228.5Q1405 276 1490 337L1540 382Q1428 465 1341.0 524.5Q1254 584 1186.5 626.5Q1119 669 1062 699Q1043 602 1029.5 430.0Q1016 258 1005 34ZM2830 -76Q2857 60 2876.0 160.5Q2895 261 2907.0 337.5Q2919 414 2925 475Q2719 545 2554.0 595.5Q2389 646 2260 677Q2266 627 2277.5 557.5Q2289 488 2303.5 412.0Q2318 336 2332.0 265.5Q2346 195 2356 144L2486 222Q2458 248 2431.0 271.0Q2404 294 2370 320Q2443 357 2503 428Q2519 392 2536.5 357.5Q2554 323 2577.5 284.0Q2601 245 2634.0 195.0Q2667 145 2715.0 79.0Q2763 13 2830 -76ZM1954 -52Q1983 -42 2011.5 -31.5Q2040 -21 2070 -8Q2055 33 2035.0 91.0Q2015 149 1992.5 215.0Q1970 281 1946.5 347.0Q1923 413 1901.5 470.5Q1880 528 1862 568Q1822 541 1774.5 508.0Q1727 475 1674 437L1642 408Q1662 369 1681.0 334.0Q1700 299 1723.0 262.5Q1746 226 1777.0 182.0Q1808 138 1851.5 81.0Q1895 24 1954 -52ZM2207 487 2184 550Q2129 546 2088.0 538.5Q2047 531 2009 520Q2041 510 2070.0 504.5Q2099 499 2132.0 495.5Q2165 492 2207 487ZM938 427 929 532Q887 528 823.5 523.5Q760 519 685.5 513.5Q611 508 536.0 502.5Q461 497 396.0 490.5Q331 484 287 476Q331 469 398.0 463.0Q465 457 542.5 451.5Q620 446 696.0 441.5Q772 437 835.5 433.0Q899 429 938 427ZM2004 440Q2005 448 2005.0 456.5Q2005 465 2005 474Q2005 485 2005.0 496.0Q2005 507 2003 518L1992 514ZM2240 399 2216 465Q2155 461 2110.0 453.0Q2065 445 2025 433Q2060 423 2091.0 417.0Q2122 411 2157.5 407.5Q2193 404 2240 399ZM2021 350Q2022 358 2022.5 366.0Q2023 374 2023 383Q2023 408 2020 432L2007 427Q2010 408 2013.5 389.0Q2017 370 2021 350ZM948 283 940 409Q903 405 845.0 400.5Q787 396 717.0 391.0Q647 386 575.0 380.5Q503 375 436.5 369.0Q370 363 319.5 356.0Q269 349 243 341Q268 334 320.0 328.0Q372 322 440.0 316.0Q508 310 583.0 305.0Q658 300 729.0 295.5Q800 291 857.5 288.0Q915 285 948 283ZM2271 310 2247 379Q2180 375 2132.5 367.0Q2085 359 2043 346Q2079 335 2111.5 329.0Q2144 323 2181.5 319.5Q2219 316 2271 310ZM2039 260Q2040 269 2040.5 278.5Q2041 288 2041 298Q2041 321 2038 345L2023 340Q2027 320 2031.0 300.0Q2035 280 2039 260ZM2302 222 2277 292Q2206 288 2155.5 280.5Q2105 273 2061 259Q2098 248 2131.5 242.0Q2165 236 2205.5 232.0Q2246 228 2302 222ZM234 218Q236 232 236.0 247.0Q236 262 236 277Q235 264 233.5 249.0Q232 234 231 219Q232 218 234 218ZM956 156 949 267Q918 263 867.5 259.0Q817 255 754.5 250.5Q692 246 625.0 241.0Q558 236 493.5 231.0Q429 226 374.0 220.0Q319 214 281 207Q319 201 375.0 195.0Q431 189 498.0 184.0Q565 179 633.5 174.5Q702 170 765.5 166.5Q829 163 879.0 160.5Q929 158 956 156ZM2057 171Q2058 180 2058.5 190.0Q2059 200 2059 210Q2059 234 2056 258L2040 253Q2045 232 2049.0 211.5Q2053 191 2057 171ZM2333 133 2307 206Q2230 202 2177.0 194.0Q2124 186 2078 172Q2117 160 2152.0 154.0Q2187 148 2229.5 144.0Q2272 140 2333 133ZM2074 87Q2075 95 2075.5 103.5Q2076 112 2076 121Q2076 146 2073 171L2058 165Q2062 145 2066.0 125.5Q2070 106 2074 87ZM964 16 957 141Q926 137 869.5 132.5Q813 128 742.5 123.0Q672 118 597.0 112.5Q522 107 452.5 100.5Q383 94 328.5 87.0Q274 80 246 72Q299 61 350.0 52.0Q401 43 458.0 36.5Q515 30 586.0 25.5Q657 21 749.5 18.5Q842 16 964 16ZM2092 1Q2136 21 2189.0 49.0Q2242 77 2313 118Q2233 114 2179.0 104.5Q2125 95 2076 79Z" />
  </g>
</svg>