<svg xmlns="http://www.w3.org/2000/svg" viewBox="100 -112 1483 848">
  <g transform="translate(0, 624) scale(1, -1)">
    <path fill="black" d="M1100 -112Q1091 21 1083.5 122.5Q1076 224 1068.5 301.5Q1061 379 1053.0 440.0Q1045 501 1036 552Q993 479 956.0 422.5Q919 366 891 318Q914 277 957.0 213.0Q1000 149 1060 70L1034 49Q964 110 909.5 156.0Q855 202 810.0 238.5Q765 275 723 306Q650 289 579.0 270.0Q508 251 454.0 231.5Q400 212 376 193Q379 219 381.0 245.5Q383 272 383 299Q285 274 210.5 246.5Q136 219 103 193Q106 222 108.5 251.0Q111 280 111 310Q111 338 108.5 366.5Q106 395 100 426Q121 411 164.0 394.0Q207 377 264.0 362.5Q321 348 383 337Q382 358 380.0 380.5Q378 403 373 426Q390 414 427.0 400.5Q464 387 514.0 374.0Q564 361 618.5 350.5Q673 340 724 332Q759 360 810.5 403.0Q862 446 919.0 498.0Q976 550 1025 606Q1018 638 1010.0 670.0Q1002 702 993 736Q1044 724 1098 724Q1152 724 1209 736Q1195 686 1184.0 630.5Q1173 575 1164.0 507.0Q1155 439 1148.0 351.5Q1141 264 1135.5 150.0Q1130 36 1126 -112ZM1566 325Q1522 365 1496.5 389.0Q1471 413 1451.5 429.5Q1432 446 1404 464Q1423 480 1443.5 496.0Q1464 512 1493.0 536.0Q1522 560 1566 600L1583 589Q1561 554 1545.5 524.0Q1530 494 1513 464Q1530 436 1545.5 405.0Q1561 374 1583 339ZM1162 236Q1166 257 1168.0 277.5Q1170 298 1170 319Q1170 339 1168.0 361.0Q1166 383 1162 406Q1206 388 1258.5 372.5Q1311 357 1380.0 346.0Q1449 335 1540 331V309Q1469 302 1415.5 296.0Q1362 290 1319.5 282.0Q1277 274 1239.5 263.0Q1202 252 1162 236ZM1566 40Q1522 80 1496.5 104.0Q1471 128 1451.5 144.5Q1432 161 1404 179Q1423 195 1443.5 211.0Q1464 227 1493.0 251.0Q1522 275 1566 315L1583 304Q1561 269 1545.5 239.0Q1530 209 1513 179Q1530 151 1545.5 120.0Q1561 89 1583 54Z" />
  </g>
</svg>