<svg xmlns="http://www.w3.org/2000/svg" viewBox="100 -407 1188 1294">
  <g transform="translate(0, 480) scale(1, -1)">
    <path fill="black" d="M913 -407Q909 -360 904.0 -301.0Q899 -242 894.0 -176.0Q889 -110 883.0 -44.5Q877 21 870 80Q839 25 816.5 -19.0Q794 -63 773 -99Q790 -127 819.5 -171.0Q849 -215 890 -269L872 -284Q808 -228 762.0 -189.5Q716 -151 677 -121Q612 -137 550.5 -154.5Q489 -172 443.0 -189.5Q397 -207 376 -224Q379 -198 381.0 -171.5Q383 -145 383 -117Q285 -142 210.5 -169.5Q136 -197 103 -224Q106 -195 108.5 -166.0Q111 -137 111 -107Q111 -79 108.5 -50.5Q106 -22 100 9Q121 -6 164.0 -22.5Q207 -39 264.0 -54.0Q321 -69 383 -80Q382 -58 380.0 -36.0Q378 -14 373 9Q393 -5 440.0 -21.0Q487 -37 548.5 -51.0Q610 -65 673 -76Q709 -44 760.5 4.0Q812 52 859 107L867 102Q860 159 851.5 204.0Q843 249 832 274Q851 270 869.5 268.0Q888 266 907 266Q902 329 896.5 404.5Q891 480 884.5 557.0Q878 634 869 702Q838 647 816.0 603.5Q794 560 773 525Q790 497 819.5 453.0Q849 409 890 355L872 340Q810 395 764.5 432.5Q719 470 681 499Q615 483 553.0 465.5Q491 448 444.5 430.5Q398 413 376 396Q379 422 381.0 448.5Q383 475 383 502Q285 477 210.5 449.5Q136 422 103 396Q106 425 108.5 454.0Q111 483 111 513Q111 541 108.5 569.5Q106 598 100 629Q121 614 164.0 597.0Q207 580 264.0 565.5Q321 551 383 540Q382 561 380.0 583.5Q378 606 373 629Q393 615 439.5 599.5Q486 584 546.5 569.5Q607 555 669 544Q705 576 758.0 626.0Q811 676 859 731L865 727Q858 780 850.0 821.5Q842 863 832 887Q853 883 873.5 881.0Q894 879 916 879Q936 879 958.0 881.0Q980 883 1003 887Q994 864 985.5 815.0Q977 766 970.0 701.0Q963 636 957 564Q971 560 1005.5 555.0Q1040 550 1084.0 545.5Q1128 541 1171.5 537.0Q1215 533 1248 531Q1213 563 1191.0 583.0Q1169 603 1150.5 618.5Q1132 634 1108 651Q1126 667 1146.5 683.5Q1167 700 1196.5 724.5Q1226 749 1271 788L1288 777Q1266 742 1250.0 711.5Q1234 681 1217 651Q1234 622 1250.0 591.0Q1266 560 1288 525Q1266 490 1250.0 459.5Q1234 429 1217 399Q1234 370 1250.0 339.0Q1266 308 1288 273L1271 259Q1227 299 1201.0 322.5Q1175 346 1155.0 363.0Q1135 380 1108 399Q1125 414 1143.0 428.5Q1161 443 1186.5 463.5Q1212 484 1249 516Q1213 510 1167.0 504.5Q1121 499 1076.0 492.5Q1031 486 997.5 480.5Q964 475 953 469Q954 488 955.5 508.0Q957 528 955 549Q949 474 944.5 400.5Q940 327 937 266Q953 267 969.5 269.0Q986 271 1003 274Q993 250 984.5 199.5Q976 149 969.0 81.5Q962 14 956 -60Q970 -64 1004.0 -69.0Q1038 -74 1082.5 -79.0Q1127 -84 1171.5 -88.0Q1216 -92 1249 -94Q1214 -62 1191.5 -41.5Q1169 -21 1150.5 -5.5Q1132 10 1108 27Q1126 43 1146.5 59.5Q1167 76 1196.5 100.0Q1226 124 1271 164L1288 153Q1266 118 1250.0 87.5Q1234 57 1217 27Q1234 -2 1250.0 -33.0Q1266 -64 1288 -99Q1266 -134 1250.0 -164.5Q1234 -195 1217 -225Q1234 -254 1250.0 -285.0Q1266 -316 1288 -351L1271 -365Q1227 -325 1201.0 -301.5Q1175 -278 1155.0 -261.0Q1135 -244 1108 -225Q1124 -210 1142.0 -195.5Q1160 -181 1185.5 -160.5Q1211 -140 1247 -108Q1211 -114 1165.5 -120.0Q1120 -126 1075.5 -132.0Q1031 -138 997.5 -144.0Q964 -150 953 -156Q955 -135 956.5 -113.5Q958 -92 955 -70Q948 -164 942.5 -254.5Q937 -345 935 -407Z" />
  </g>
</svg>