<svg xmlns="http://www.w3.org/2000/svg" viewBox="100 -378 1688 1114">
  <g transform="translate(0, 358) scale(1, -1)">
    <path fill="black" d="M484 -378Q437 -296 372 -249Q399 -235 436 -208Q435 -103 429.5 6.0Q424 115 416.0 218.0Q408 321 398.0 409.5Q388 498 377 561Q327 554 285.0 546.0Q243 538 228 532Q230 546 232.0 561.0Q234 576 234 590Q234 614 228 639Q240 634 270.0 627.5Q300 621 340.0 614.5Q380 608 421 602Q429 601 437.5 601.0Q446 601 454 601Q485 625 511.0 656.0Q537 687 559 725Q577 699 621.5 651.5Q666 604 730.5 541.0Q795 478 872.5 405.5Q950 333 1032 256Q1110 318 1186.0 378.5Q1262 439 1330 491V493Q1343 487 1379.0 480.0Q1415 473 1462.0 466.0Q1509 459 1553 453Q1519 518 1485.0 571.5Q1451 625 1413 675Q1464 681 1514.0 696.0Q1564 711 1619 736Q1621 659 1626.5 580.5Q1632 502 1647.5 408.5Q1663 315 1693 192Q1717 185 1740.5 180.0Q1764 175 1788 173Q1742 112 1699.5 43.5Q1657 -25 1616.0 -113.0Q1575 -201 1531 -323L1506 -316Q1533 -209 1548.0 -125.5Q1563 -42 1570 30Q1523 24 1473.0 17.0Q1423 10 1384.0 3.0Q1345 -4 1330 -10Q1332 4 1334.0 19.0Q1336 34 1336 48Q1336 72 1330 97Q1344 91 1384.0 83.5Q1424 76 1475.5 68.5Q1527 61 1573 55Q1578 111 1579 163Q1532 157 1479.5 149.5Q1427 142 1386.0 135.0Q1345 128 1330 122Q1332 136 1334.0 151.0Q1336 166 1336 180Q1336 204 1330 229Q1341 224 1368.0 218.5Q1395 213 1431.0 207.0Q1467 201 1506.0 195.5Q1545 190 1580 186L1582 234Q1621 215 1662 201Q1652 228 1642.0 253.0Q1632 278 1623 301Q1587 296 1542.0 290.0Q1497 284 1453.5 278.0Q1410 272 1376.5 265.5Q1343 259 1330 254Q1332 268 1334.0 283.0Q1336 298 1336 312Q1336 336 1330 361Q1342 355 1375.0 348.5Q1408 342 1451.5 335.5Q1495 329 1539.0 323.0Q1583 317 1618 313Q1605 344 1592.5 372.0Q1580 400 1567 425Q1521 419 1471.5 412.5Q1422 406 1383.5 399.0Q1345 392 1330 386Q1332 400 1333.5 414.0Q1335 428 1335 442L1083 208Q1175 123 1265.0 40.0Q1355 -43 1429 -113L1406 -145Q1320 -79 1222.5 -1.0Q1125 77 1026 156Q935 71 846.5 -11.5Q758 -94 683.0 -166.5Q608 -239 556.0 -294.0Q504 -349 484 -378ZM1114 342Q1079 375 1058.0 394.0Q1037 413 1020.5 426.5Q1004 440 981 455Q996 468 1013.0 480.5Q1030 493 1054.0 513.0Q1078 533 1114 565L1128 557Q1109 528 1096.0 503.5Q1083 479 1069 455Q1083 432 1096.0 406.5Q1109 381 1128 353ZM1002 339Q967 372 946.0 391.0Q925 410 908.5 423.5Q892 437 869 452Q884 465 901.0 477.5Q918 490 942.0 510.0Q966 530 1002 562L1016 554Q997 525 984.0 500.5Q971 476 957 452Q971 429 984.0 403.5Q997 378 1016 350ZM471 -184Q532 -140 611.5 -78.5Q691 -17 781.5 55.0Q872 127 966 203Q881 272 800.0 336.0Q719 400 649.5 453.5Q580 507 527 544Q516 481 506.5 397.0Q497 313 489.5 216.0Q482 119 477.5 17.0Q473 -85 471 -184ZM100 309Q102 323 104.0 338.0Q106 353 106 367Q106 391 100 416Q113 410 148.5 403.5Q184 397 230.0 390.0Q276 383 321.5 377.0Q367 371 401 367V357Q365 352 319.5 346.0Q274 340 228.5 333.5Q183 327 148.5 321.0Q114 315 100 309ZM100 182Q102 196 104.0 211.0Q106 226 106 240Q106 264 100 289Q113 283 148.5 276.5Q184 270 230.0 263.0Q276 256 321.5 250.0Q367 244 401 240V230Q365 225 319.5 219.0Q274 213 228.5 206.5Q183 200 148.5 194.0Q114 188 100 182ZM100 55Q102 69 104.0 84.0Q106 99 106 113Q106 137 100 162Q113 156 148.5 149.5Q184 143 230.0 136.0Q276 129 321.5 123.0Q367 117 401 113V103Q365 98 319.5 92.0Q274 86 228.5 79.5Q183 73 148.5 67.0Q114 61 100 55ZM1114 -152Q1079 -120 1058.0 -100.5Q1037 -81 1020.5 -67.5Q1004 -54 981 -39Q996 -26 1013.0 -13.5Q1030 -1 1054.0 19.0Q1078 39 1114 71L1128 63Q1109 34 1096.0 9.5Q1083 -15 1069 -39Q1083 -62 1096.0 -87.5Q1109 -113 1128 -141ZM1002 -155Q967 -123 946.0 -103.5Q925 -84 908.5 -70.5Q892 -57 869 -42Q884 -29 901.0 -16.5Q918 -4 942.0 16.0Q966 36 1002 68L1016 60Q997 31 984.0 6.5Q971 -18 957 -42Q971 -65 984.0 -90.5Q997 -116 1016 -144Z" />
  </g>
</svg>