<svg xmlns="http://www.w3.org/2000/svg" viewBox="100 -259 1088 1042">
  <g transform="translate(0, 524) scale(1, -1)">
    <path fill="black" d="M461 -259Q456 -228 450.5 -193.0Q445 -158 440 -123Q364 -130 304.5 -139.5Q245 -149 217 -161Q221 -140 223.0 -119.5Q225 -99 225 -77Q225 -57 223.0 -35.0Q221 -13 217 10Q232 3 258 -1L254 55Q202 47 159.5 39.0Q117 31 100 23Q106 56 106 90Q106 112 103 134Q102 134 101.5 133.5Q101 133 100 133Q100 136 102 144Q100 150 100 153L103 151Q106 175 106 199Q106 222 103 244Q102 244 101.5 243.5Q101 243 100 243Q100 246 102 254Q100 260 100 263L103 261Q106 285 106 309Q106 332 103 354Q102 354 101.5 353.5Q101 353 100 353Q100 356 102 364Q100 370 100 373L103 371Q106 395 106 420Q106 450 100 483Q112 478 141.5 471.0Q171 464 209 456Q204 481 199.0 501.0Q194 521 188 535Q196 534 203.0 532.5Q210 531 217 530Q221 551 223.0 571.5Q225 592 225 613Q225 633 223.0 655.0Q221 677 217 700Q240 691 295.0 683.0Q350 675 423 668Q416 707 409.5 738.0Q403 769 397 783Q430 777 464 777Q486 777 508 780Q508 781 507.5 781.5Q507 782 507 783Q513 781 518 781Q521 781 527 783L525 780Q549 777 573 777Q596 777 618 780Q618 781 617.5 781.5Q617 782 617 783Q623 781 628 781Q631 781 637 783L635 780Q659 777 683 777Q706 777 728 780Q728 781 727.5 781.5Q727 782 727 783Q733 781 738 781Q741 781 747 783L745 780Q757 779 769.5 777.5Q782 776 795 776Q810 776 825.5 777.5Q841 779 857 783Q850 768 841.5 729.0Q833 690 824 640L937 635Q929 679 920 702Q941 698 961.5 696.0Q982 694 1004 694Q1024 694 1046.0 696.0Q1068 698 1091 702Q1081 678 1073.0 618.5Q1065 559 1057 480Q1092 475 1126.0 470.0Q1160 465 1188 463V454Q1157 449 1122.5 443.5Q1088 438 1053 433Q1052 418 1051.0 402.5Q1050 387 1048 371Q1086 365 1121.5 360.5Q1157 356 1188 353V344Q1156 338 1119.0 332.5Q1082 327 1045 322Q1044 307 1043.0 292.0Q1042 277 1041 262Q1079 256 1117.5 251.0Q1156 246 1188 243V234Q1154 228 1115.0 222.0Q1076 216 1037 210L1034 153Q1075 147 1115.0 141.5Q1155 136 1188 133V124Q1153 118 1112.5 111.5Q1072 105 1031 99Q1028 44 1026.5 -2.5Q1025 -49 1023 -83H1001Q1001 -82 1000.5 -81.5Q1000 -81 1000 -80Q966 -83 920.5 -86.5Q875 -90 822 -93Q815 -136 809.0 -179.5Q803 -223 800 -259H791L766 -97Q753 -98 739.0 -98.5Q725 -99 711 -101Q704 -142 698.5 -183.0Q693 -224 690 -259H681Q675 -224 669.0 -184.0Q663 -144 657 -104L600 -109Q593 -148 588.0 -187.5Q583 -227 580 -259H571Q565 -226 559.5 -188.0Q554 -150 548 -113Q533 -114 518.0 -115.0Q503 -116 488 -118Q482 -155 477.5 -191.5Q473 -228 470 -259ZM535 658Q531 685 526.5 708.5Q522 732 517 750Q513 733 508.0 710.5Q503 688 498 661ZM646 650Q641 679 636.5 705.0Q632 731 627 750Q622 731 616.5 706.5Q611 682 606 653ZM757 644Q746 708 737 750Q732 731 726.5 704.5Q721 678 715 646ZM798 72Q811 72 824.5 73.0Q838 74 852 77Q854 90 855.0 103.0Q856 116 856 129Q856 152 853 174Q852 174 851.5 173.5Q851 173 850 173Q850 176 852 184Q850 190 850 193L853 191Q856 215 856 239Q856 262 853 284Q852 284 851.5 283.5Q851 283 850 283Q850 286 852 294Q850 300 850 303L853 301Q856 325 856 349Q856 372 853 394Q852 394 851.5 393.5Q851 393 850 393Q850 396 852 404Q850 410 850 413L853 411Q856 435 856 460Q856 490 850 523Q877 511 956 497Q953 526 949.5 553.5Q946 581 942 605L817 596Q810 556 805.0 516.5Q800 477 797 445H788Q782 478 776.0 516.5Q770 555 765 593L706 588Q700 551 695.0 513.5Q690 476 687 445H678L656 585L594 580Q583 507 577 445H568Q563 475 557.5 509.0Q552 543 547 577L483 571Q478 537 473.5 504.5Q469 472 467 445H458Q453 473 448.5 504.0Q444 535 439 567Q365 560 307.0 550.5Q249 541 220 530Q246 527 271 527Q291 527 313.0 529.0Q335 531 359 535Q347 505 336 435Q364 431 390.0 428.0Q416 425 438 423V414Q413 410 386.0 406.0Q359 402 331 397Q329 381 327.0 363.5Q325 346 323 327Q354 323 383.5 319.0Q413 315 438 313V304Q411 300 380.5 295.0Q350 290 319 285L313 219Q346 214 378.0 209.5Q410 205 438 203V194Q409 189 375.5 184.0Q342 179 309 174L304 110Q340 104 374.5 100.0Q409 96 438 93V84L403 78Q419 76 435.0 74.5Q451 73 467 73Q489 73 511 76Q511 77 510.5 77.5Q510 78 510 79Q516 77 521 77Q524 77 530 79L528 76Q552 73 576 73Q599 73 621 76Q621 77 620.5 77.5Q620 78 620 79Q626 77 631 77Q634 77 640 79L638 76Q662 73 686 73Q709 73 731 76Q731 77 730.5 77.5Q730 78 730 79Q736 77 741 77Q744 77 750 79L748 76Q760 74 772.5 73.0Q785 72 798 72ZM579 124Q560 154 536.5 175.5Q513 197 488 215Q503 220 531.0 238.5Q559 257 594 282Q559 308 531.0 326.0Q503 344 488 350Q513 368 536.5 389.5Q560 411 579 441Q584 427 604.5 395.5Q625 364 652 325Q682 348 712.5 370.0Q743 392 770 411L776 405Q755 380 730.5 347.5Q706 315 682 282Q706 249 730.5 217.5Q755 186 776 160L770 154Q743 173 712.5 195.5Q682 218 652 240Q625 201 604.5 169.5Q584 138 579 124ZM967 385 964 419Q940 415 919.5 411.0Q899 407 882 403Q899 399 920.5 394.5Q942 390 967 385ZM226 343Q225 353 224.0 362.0Q223 371 221 380Q196 376 172.5 371.5Q149 367 132 363Q168 354 226 343ZM975 273 972 310Q946 306 923.0 301.5Q900 297 882 293Q900 289 923.5 283.5Q947 278 975 273ZM239 231 234 272Q204 268 178.0 263.0Q152 258 132 253Q152 248 180.0 242.0Q208 236 239 231ZM983 162 980 202Q952 198 926.5 193.0Q901 188 882 183Q902 178 927.5 172.5Q953 167 983 162ZM248 119 245 164Q212 159 183.0 153.5Q154 148 132 143Q154 137 184.0 131.0Q214 125 248 119ZM998 -58 988 93Q944 86 908.5 79.0Q873 72 855 65Q849 47 842.5 17.0Q836 -13 830 -50ZM424 -22Q418 12 412.0 38.5Q406 65 400 78L301 63Q300 44 299.0 26.5Q298 9 297 -8Q323 -12 355.5 -15.0Q388 -18 424 -22ZM647 -39Q638 12 630 46Q621 14 612 -37ZM758 -46Q754 -19 749.5 4.5Q745 28 740 46Q736 29 731.0 6.0Q726 -17 721 -44Q730 -44 739.5 -44.5Q749 -45 758 -46ZM535 -31Q531 -8 527.5 11.5Q524 31 520 46Q516 31 512.0 12.5Q508 -6 503 -29Z" />
  </g>
</svg>