<svg xmlns="http://www.w3.org/2000/svg" viewBox="100 -205 1703 1055">
  <g transform="translate(0, 645) scale(1, -1)">
    <path fill="black" d="M1042 -205Q1026 -149 993.5 -90.5Q961 -32 926 6H927V7Q823 7 739.5 3.5Q656 0 588 -5Q582 -53 577.5 -102.0Q573 -151 568 -200H549Q547 -155 543.5 -106.5Q540 -58 535 -11Q502 -15 472.0 -18.5Q442 -22 416 -27Q411 -70 406.5 -113.5Q402 -157 398 -200H379Q377 -161 374.5 -119.5Q372 -78 368 -37Q290 -53 229.0 -72.0Q168 -91 100 -110Q112 -59 112 7Q112 39 109.0 71.0Q106 103 100 131Q156 115 216.5 99.5Q277 84 356 70Q349 129 338.5 177.5Q328 226 317 254Q338 250 357.5 248.5Q377 247 395 247Q435 247 470 254Q456 219 445.0 169.0Q434 119 426 60L529 48Q521 114 510.5 168.5Q500 223 487 254Q508 250 527.5 248.5Q547 247 565 247Q605 247 640 254Q625 217 614.0 162.0Q603 107 594 43Q663 39 745.0 36.0Q827 33 926 33Q923 101 916.5 177.0Q910 253 901.5 325.0Q893 397 882.5 455.0Q872 513 859 544Q882 540 904.0 538.0Q926 536 946 536Q967 536 987.5 538.0Q1008 540 1029 544Q1013 505 1001.0 443.5Q989 382 979.5 309.0Q970 236 963.0 159.0Q956 82 949 11Q981 19 1013.0 26.0Q1045 33 1079 42Q1073 121 1064.0 198.0Q1055 275 1044.0 337.5Q1033 400 1019 434Q1042 430 1064.0 428.0Q1086 426 1106 426Q1127 426 1147.5 428.0Q1168 430 1189 434Q1173 394 1160.5 333.5Q1148 273 1139.5 201.0Q1131 129 1123 54Q1197 74 1285.0 106.0Q1373 138 1486.0 189.5Q1599 241 1748 322Q1618 392 1515.5 440.0Q1413 488 1331.0 520.0Q1249 552 1181.5 573.0Q1114 594 1055.0 608.5Q996 623 938 636V617Q781 617 668.0 610.0Q555 603 473.0 591.5Q391 580 329.5 565.0Q268 550 213.5 533.5Q159 517 100 500Q112 551 112 617Q112 649 109.0 681.0Q106 713 100 741Q150 727 203.0 713.0Q256 699 321.0 686.5Q386 674 470.5 664.0Q555 654 667.5 648.5Q780 643 929 643Q964 681 995.0 738.5Q1026 796 1042 850Q1089 805 1152.0 750.5Q1215 696 1303.5 631.0Q1392 566 1515.0 489.0Q1638 412 1803 322Q1638 232 1515.0 155.0Q1392 78 1303.5 13.5Q1215 -51 1152.0 -105.5Q1089 -160 1042 -205Z" />
  </g>
</svg>