<svg xmlns="http://www.w3.org/2000/svg" viewBox="100 -205 1703 1055">
  <g transform="translate(0, 645) scale(1, -1)">
    <path fill="black" d="M1042 -205Q1026 -149 993.5 -90.5Q961 -32 926 6H927V7Q772 7 661.0 0.0Q550 -7 469.5 -18.5Q389 -30 327.5 -45.0Q266 -60 212.5 -76.5Q159 -93 100 -110Q112 -59 112 7Q112 39 109.0 71.0Q106 103 100 131Q149 117 202.0 103.0Q255 89 320.0 76.5Q385 64 469.5 54.5Q554 45 666.0 39.0Q778 33 926 33Q923 101 916.5 177.0Q910 253 901.5 325.0Q893 397 882.5 455.0Q872 513 859 544Q882 540 904.0 538.0Q926 536 946 536Q967 536 987.5 538.0Q1008 540 1029 544Q1013 505 1001.0 443.5Q989 382 979.5 309.0Q970 236 963.0 159.0Q956 82 949 11Q981 19 1013.0 26.0Q1045 33 1079 42Q1073 121 1064.0 198.0Q1055 275 1044.0 337.5Q1033 400 1019 434Q1042 430 1064.0 428.0Q1086 426 1106 426Q1127 426 1147.5 428.0Q1168 430 1189 434Q1173 394 1160.5 333.5Q1148 273 1139.5 201.0Q1131 129 1123 54Q1197 74 1285.0 106.0Q1373 138 1486.0 189.5Q1599 241 1748 322Q1700 348 1656.0 371.0Q1612 394 1571 413Q1525 378 1476.5 338.0Q1428 298 1379 258L1366 272Q1364 320 1360.0 384.5Q1356 449 1351 512Q1263 548 1192.0 570.0Q1121 592 1059.5 607.0Q998 622 938 636V617Q781 617 668.0 610.0Q555 603 473.0 591.5Q391 580 329.5 565.0Q268 550 213.5 533.5Q159 517 100 500Q112 551 112 617Q112 649 109.0 681.0Q106 713 100 741Q150 727 203.0 713.0Q256 699 321.0 686.5Q386 674 470.5 664.0Q555 654 667.5 648.5Q780 643 929 643Q964 681 995.0 738.5Q1026 796 1042 850Q1093 800 1164.5 738.5Q1236 677 1342 603Q1338 634 1333.5 658.5Q1329 683 1324 699Q1345 696 1370 696Q1395 696 1420 699Q1413 676 1408.0 641.0Q1403 606 1399 564Q1428 545 1459 525Q1455 543 1449.0 561.0Q1443 579 1436 599Q1457 596 1482 596Q1507 596 1532 599Q1522 567 1516.0 544.0Q1510 521 1506 495L1535 476Q1551 498 1565.5 517.5Q1580 537 1592 556Q1587 599 1578.5 629.5Q1570 660 1558 696Q1579 693 1604 693Q1629 693 1654 696Q1647 676 1643.0 660.0Q1639 644 1635 629Q1685 562 1742 523Q1712 510 1676.5 487.5Q1641 465 1602 436Q1642 413 1685.5 388.0Q1729 363 1776 337L1803 322Q1638 232 1515.0 155.0Q1392 78 1303.5 13.5Q1215 -51 1152.0 -105.5Q1089 -160 1042 -205ZM1380 288Q1404 314 1428.5 342.5Q1453 371 1476 399Q1475 417 1473.5 432.5Q1472 448 1470 461Q1451 470 1431.5 478.5Q1412 487 1394 494Q1390 441 1387.5 387.0Q1385 333 1380 288ZM1498 427 1510 442 1500 447Z" />
  </g>
</svg>