<svg xmlns="http://www.w3.org/2000/svg" viewBox="100 -205 1703 1055">
  <g transform="translate(0, 645) scale(1, -1)">
    <path fill="black" d="M1042 -205Q1026 -149 993.5 -90.5Q961 -32 926 6H927V7Q772 7 661.0 0.0Q550 -7 469.5 -18.5Q389 -30 327.5 -45.0Q266 -60 212.5 -76.5Q159 -93 100 -110Q112 -59 112 7Q112 39 109.0 71.0Q106 103 100 131Q149 117 202.0 103.0Q255 89 320.0 76.5Q385 64 469.5 54.5Q554 45 666.0 39.0Q778 33 926 33Q923 101 916.5 177.0Q910 253 901.5 325.0Q893 397 882.5 455.0Q872 513 859 544Q882 540 904.0 538.0Q926 536 946 536Q967 536 987.5 538.0Q1008 540 1029 544Q1013 505 1001.0 443.5Q989 382 979.5 309.0Q970 236 963.0 159.0Q956 82 949 11Q981 19 1013.0 26.0Q1045 33 1079 42Q1073 121 1064.0 198.0Q1055 275 1044.0 337.5Q1033 400 1019 434Q1042 430 1064.0 428.0Q1086 426 1106 426Q1127 426 1147.5 428.0Q1168 430 1189 434Q1173 394 1160.5 333.5Q1148 273 1139.5 201.0Q1131 129 1123 54Q1197 74 1285.0 106.0Q1373 138 1486.0 189.5Q1599 241 1748 322Q1691 353 1640.0 379.0Q1589 405 1542 427Q1530 424 1517.5 421.0Q1505 418 1492 414L1495 449L1488 452Q1484 380 1480.5 308.5Q1477 237 1473 189H1459Q1458 223 1455.5 269.5Q1453 316 1450.5 369.0Q1448 422 1444 473L1397 493L1381 462Q1383 457 1386.0 452.5Q1389 448 1391 443Q1408 442 1422.0 440.5Q1436 439 1445 439V430L1401 425Q1410 408 1419.5 390.0Q1429 372 1442 352L1427 339Q1420 344 1414.5 349.5Q1409 355 1404 360Q1385 358 1353.5 354.0Q1322 350 1289.0 345.0Q1256 340 1231.0 335.5Q1206 331 1198 328Q1199 337 1199.5 348.5Q1200 360 1200 371Q1200 378 1200.0 384.5Q1200 391 1198 397Q1205 394 1227.5 390.5Q1250 387 1280.5 382.5Q1311 378 1341.0 375.0Q1371 372 1393 370Q1377 385 1364.5 397.0Q1352 409 1341 419Q1310 416 1279.0 412.0Q1248 408 1226.0 404.5Q1204 401 1198 398Q1199 407 1199.5 418.5Q1200 430 1200 441Q1200 448 1200.0 454.5Q1200 461 1198 467Q1205 464 1233.5 460.5Q1262 457 1299 452L1285 462L1315 486Q1274 481 1240.0 476.0Q1206 471 1198 468Q1199 477 1199.5 488.5Q1200 500 1200 511Q1200 518 1200.0 524.5Q1200 531 1198 537Q1204 535 1225.0 532.0Q1246 529 1276.0 525.5Q1306 522 1337 518Q1315 527 1295.0 534.0Q1275 541 1256 548Q1234 545 1218.5 542.5Q1203 540 1198 538Q1198 544 1198.5 552.0Q1199 560 1200 567Q1126 591 1063.0 606.5Q1000 622 938 636V617Q781 617 668.0 610.0Q555 603 473.0 591.5Q391 580 329.5 565.0Q268 550 213.5 533.5Q159 517 100 500Q112 551 112 617Q112 649 109.0 681.0Q106 713 100 741Q150 727 203.0 713.0Q256 699 321.0 686.5Q386 674 470.5 664.0Q555 654 667.5 648.5Q780 643 929 643Q964 681 995.0 738.5Q1026 796 1042 850Q1096 797 1173.0 731.5Q1250 666 1367 586Q1387 585 1404.0 583.0Q1421 581 1434 580Q1431 612 1427.0 637.0Q1423 662 1418 676Q1439 673 1464 673Q1489 673 1514 676Q1507 653 1502.0 608.5Q1497 564 1492 510Q1527 498 1564.5 490.0Q1602 482 1649.0 477.0Q1696 472 1759 469V455Q1707 451 1669.0 447.0Q1631 443 1599 438Q1640 414 1684.0 388.5Q1728 363 1776 337L1803 322Q1638 232 1515.0 155.0Q1392 78 1303.5 13.5Q1215 -51 1152.0 -105.5Q1089 -160 1042 -205ZM1404 561Q1406 562 1410 566L1398 564ZM1439 537 1436 563Q1434 559 1431.5 554.5Q1429 550 1426 546ZM1492 503H1493Q1493 504 1492.5 505.5Q1492 507 1492 508Z" />
  </g>
</svg>