<svg xmlns="http://www.w3.org/2000/svg" viewBox="100 -221 2241 1012">
  <g transform="translate(0, 570) scale(1, -1)">
    <path fill="black" d="M536 -221Q510 -181 479.0 -152.0Q448 -123 415 -100Q420 -98 427.5 -94.5Q435 -91 442 -87Q415 -67 381.0 -40.5Q347 -14 311 14Q282 -23 256.0 -57.5Q230 -92 212.5 -117.5Q195 -143 191 -154Q172 -124 148.5 -102.5Q125 -81 100 -63Q118 -56 163.0 -22.0Q208 12 262 53Q207 97 162.0 131.0Q117 165 100 172Q125 190 148.5 211.5Q172 233 191 263Q195 253 212.5 227.0Q230 201 257.0 166.5Q284 132 314 93Q347 119 377.5 142.5Q408 166 433 184L415 192Q442 211 467.5 233.5Q493 256 516 285Q493 314 467.5 336.5Q442 359 415 378Q418 379 421.0 380.5Q424 382 427 383Q402 401 373.0 424.5Q344 448 312 473Q282 435 256.0 400.0Q230 365 212.5 340.0Q195 315 191 305Q172 335 148.5 356.5Q125 378 100 396Q117 402 161.5 436.5Q206 471 260 514Q207 557 162.0 590.5Q117 624 100 631Q125 649 148.5 670.5Q172 692 191 722Q195 712 212.5 686.5Q230 661 255.5 627.0Q281 593 310 555Q345 584 379.0 611.0Q413 638 441 658L415 670Q448 693 479.0 722.0Q510 751 536 791Q544 771 565.5 733.5Q587 696 618.0 649.0Q649 602 684 553Q685 553 685 554Q684 592 676 636Q759 602 898.5 579.5Q1038 557 1211 549V519Q1287 502 1382.5 490.0Q1478 478 1589 471Q1581 494 1570.0 515.5Q1559 537 1546 559Q1618 564 1702.5 573.0Q1787 582 1894.5 604.0Q2002 626 2143 667Q2139 686 2134.5 703.0Q2130 720 2125 736Q2176 724 2230 724Q2284 724 2341 736Q2318 653 2296.0 533.5Q2274 414 2260.0 254.0Q2246 94 2246 -112H2220V-106Q2107 -68 2021.0 -45.0Q1935 -22 1868.5 -9.5Q1802 3 1748.0 9.0Q1694 15 1645.5 17.5Q1597 20 1546 23Q1571 64 1588 109Q1472 96 1380.0 82.5Q1288 69 1211 49V36L1140 28Q1128 24 1116.0 20.0Q1104 16 1093 11Q1094 14 1094.5 17.0Q1095 20 1095 23Q962 7 860.5 -12.5Q759 -32 676 -66Q684 -25 685 15Q685 15 683 17Q649 -31 618.0 -78.5Q587 -126 565.5 -163.5Q544 -201 536 -221ZM440 390Q477 409 531.0 445.5Q585 482 645 525Q590 563 540.5 596.5Q491 630 455 650Q433 624 403.5 587.5Q374 551 343 512ZM2220 -79Q2219 160 2198.0 336.0Q2177 512 2150 634Q2014 582 1916.5 533.5Q1819 485 1747.0 440.5Q1675 396 1616 355Q1614 376 1610.0 397.5Q1606 419 1599 440Q1431 422 1309.5 401.0Q1188 380 1093 341Q1102 391 1102 442Q1102 473 1099 507Q964 492 861.5 473.5Q759 455 676 421Q679 439 681.5 457.5Q684 476 685 495Q642 436 605.5 378.5Q569 321 549 285Q569 249 605.5 193.0Q642 137 684 78Q683 95 681.0 112.5Q679 130 676 149Q746 120 855.5 100.0Q965 80 1101 69Q1102 80 1102.5 92.0Q1103 104 1103 116Q1103 142 1100.5 169.0Q1098 196 1093 226Q1173 193 1304.5 171.0Q1436 149 1599 140Q1605 162 1609.5 183.5Q1614 205 1616 227Q1658 198 1697.0 170.0Q1736 142 1781.5 114.0Q1827 86 1886.5 56.0Q1946 26 2027.0 -7.5Q2108 -41 2220 -79ZM454 -80Q490 -60 539.5 -26.5Q589 7 643 45Q585 87 531.5 123.5Q478 160 442 179L344 56Q375 17 404.0 -18.5Q433 -54 454 -80Z" />
  </g>
</svg>