<svg xmlns="http://www.w3.org/2000/svg" viewBox="100 -221 2985 1012">
  <g transform="translate(0, 570) scale(1, -1)">
    <path fill="black" d="M536 -221Q510 -181 479.0 -152.0Q448 -123 415 -100Q420 -98 427.5 -94.5Q435 -91 442 -87Q415 -67 381.0 -40.5Q347 -14 311 14Q282 -23 256.0 -57.5Q230 -92 212.5 -117.5Q195 -143 191 -154Q172 -124 148.5 -102.5Q125 -81 100 -63Q118 -56 163.0 -22.0Q208 12 262 53Q207 97 162.0 131.0Q117 165 100 172Q125 190 148.5 211.5Q172 233 191 263Q195 253 212.5 227.0Q230 201 257.0 166.5Q284 132 314 93Q347 119 377.5 142.5Q408 166 433 184L415 192Q442 211 467.5 233.5Q493 256 516 285Q493 314 467.5 336.5Q442 359 415 378Q418 379 421.0 380.5Q424 382 427 383Q402 401 373.0 424.5Q344 448 312 473Q282 435 256.0 400.0Q230 365 212.5 340.0Q195 315 191 305Q172 335 148.5 356.5Q125 378 100 396Q117 402 161.5 436.5Q206 471 260 514Q207 557 162.0 590.5Q117 624 100 631Q125 649 148.5 670.5Q172 692 191 722Q195 712 212.5 686.5Q230 661 255.5 627.0Q281 593 310 555Q345 584 379.0 611.0Q413 638 441 658L415 670Q448 693 479.0 722.0Q510 751 536 791Q544 771 565.5 733.5Q587 696 618.0 649.0Q649 602 684 553Q685 553 685 554Q684 592 676 636Q745 607 853.5 587.0Q962 567 1098 556Q1096 562 1096 565Q1106 561 1121.5 558.0Q1137 555 1157 552L1211 549V545Q1285 537 1387.0 529.5Q1489 522 1598 516Q1595 538 1592.5 552.5Q1590 567 1588 573Q1621 567 1655 567Q1670 567 1685.0 568.0Q1700 569 1716 573Q1711 560 1705 511Q1795 507 1878.0 503.5Q1961 500 2025 497Q2008 546 1991.5 589.5Q1975 633 1962.5 663.5Q1950 694 1942 704Q1973 706 2004.0 713.0Q2035 720 2066 736V728Q2066 709 2070.5 665.5Q2075 622 2082.5 565.5Q2090 509 2098.0 450.0Q2106 391 2113 341Q2143 335 2169 332Q2168 350 2166.0 369.0Q2164 388 2159 409Q2185 400 2238.0 392.5Q2291 385 2361 378Q2355 451 2349.0 505.5Q2343 560 2338 573Q2355 570 2372.0 568.0Q2389 566 2406 566Q2419 566 2432.0 567.5Q2445 569 2458 571V573Q2459 572 2462 572Q2465 572 2466 573Q2466 572 2465.5 572.0Q2465 572 2465 571Q2479 569 2494.5 567.5Q2510 566 2525 566Q2538 566 2551.5 567.5Q2565 569 2578 571V573Q2579 572 2582 572Q2585 572 2586 573Q2586 572 2585.5 572.0Q2585 572 2585 571Q2599 569 2614.5 567.5Q2630 566 2645 566Q2658 566 2671.5 567.5Q2685 569 2698 571V573Q2699 572 2702 572Q2705 572 2706 573Q2706 572 2705.5 572.0Q2705 572 2705 571Q2719 569 2734.0 567.5Q2749 566 2764 566Q2795 566 2826 573Q2823 565 2818.0 532.5Q2813 500 2808.0 452.5Q2803 405 2798 349L2961 341V364Q2975 357 2988 352Q2969 402 2948.5 458.5Q2928 515 2909.5 567.0Q2891 619 2876.0 656.0Q2861 693 2852 704Q2883 706 2914.0 713.0Q2945 720 2976 736V728Q2976 709 2980.5 665.5Q2985 622 2992.5 565.5Q3000 509 3008.0 450.0Q3016 391 3023 341Q3055 333 3085 332Q3076 321 3060.0 282.0Q3044 243 3024.5 188.5Q3005 134 2984.0 75.5Q2963 17 2943.5 -34.5Q2924 -86 2909 -119L2902 -117Q2907 -83 2914.5 -27.0Q2922 29 2930.5 92.0Q2939 155 2946.5 214.0Q2954 273 2958 313Q2921 310 2879.5 307.5Q2838 305 2794 302Q2789 236 2783.5 171.0Q2778 106 2773.5 53.5Q2769 1 2766 -27H2758Q2753 2 2747.5 54.0Q2742 106 2737.0 170.0Q2732 234 2727 298L2674 294Q2668 230 2663.0 166.5Q2658 103 2653.5 52.0Q2649 1 2646 -27H2638Q2633 2 2628.0 52.0Q2623 102 2618.0 164.5Q2613 227 2608 290L2553 285Q2548 222 2542.5 160.5Q2537 99 2533.0 49.5Q2529 0 2526 -27H2518Q2513 1 2508.0 50.0Q2503 99 2498.5 159.0Q2494 219 2489 280L2432 276Q2427 214 2422.0 154.5Q2417 95 2413.0 47.0Q2409 -1 2406 -27H2398Q2393 0 2388.5 47.0Q2384 94 2379.5 152.0Q2375 210 2370 270Q2300 263 2245.0 254.5Q2190 246 2159 236Q2164 257 2166.5 278.5Q2169 300 2169 322Q2158 303 2142.5 262.0Q2127 221 2108.0 169.0Q2089 117 2069.0 62.5Q2049 8 2031.0 -40.0Q2013 -88 1999 -119L1992 -117L2021 93Q1950 88 1857.5 82.5Q1765 77 1665 72Q1663 41 1660.5 15.5Q1658 -10 1656 -27H1648Q1642 6 1636 70Q1518 63 1405.5 55.0Q1293 47 1211 36Q1209 35 1206.0 35.0Q1203 35 1201 35Q1130 26 1096 15Q1096 18 1098 24Q1088 23 1078.5 21.5Q1069 20 1059 19L1056 -10H1048Q1047 -4 1046.0 3.0Q1045 10 1043 17Q929 3 839.5 -16.0Q750 -35 676 -66Q684 -25 685 15Q685 15 683 17Q649 -31 618.0 -78.5Q587 -126 565.5 -163.5Q544 -201 536 -221ZM440 390Q477 409 531.0 445.5Q585 482 645 525Q590 563 540.5 596.5Q491 630 455 650Q433 624 403.5 587.5Q374 551 343 512ZM2482 368Q2477 432 2472.0 483.0Q2467 534 2462 558Q2458 535 2452.0 484.5Q2446 434 2440 371ZM2603 359Q2598 426 2592.5 479.5Q2587 533 2582 558Q2577 534 2571.5 481.0Q2566 428 2560 362ZM2723 353Q2718 421 2712.5 477.0Q2707 533 2702 558Q2697 533 2691.0 478.0Q2685 423 2679 355ZM1035 75Q1029 124 1023.0 178.5Q1017 233 1011.0 283.0Q1005 333 999.5 370.0Q994 407 988 420Q1021 414 1056 414Q1079 414 1101 417Q1103 431 1104.5 445.0Q1106 459 1106 473Q1106 481 1105.5 490.0Q1105 499 1104 508Q967 492 863.5 473.5Q760 455 676 421Q679 439 681.5 457.5Q684 476 685 495Q642 436 605.5 378.5Q569 321 549 285Q569 249 605.5 193.0Q642 137 684 78Q683 95 681.0 112.5Q679 130 676 149Q737 124 829.0 105.0Q921 86 1035 75ZM2071 371Q2062 394 2053.0 419.5Q2044 445 2035 470Q1968 466 1880.5 460.5Q1793 455 1698 450L1692 387ZM1610 391Q1609 405 1608.0 418.5Q1607 432 1605 445Q1499 438 1399.0 430.5Q1299 423 1223 414Q1296 407 1398.5 401.5Q1501 396 1610 391ZM1105 68Q1106 75 1106.0 82.0Q1106 89 1106 96Q1106 141 1096 188Q1099 187 1103.0 186.0Q1107 185 1111 183Q1112 194 1112.5 205.5Q1113 217 1113 230Q1113 242 1112.5 255.0Q1112 268 1111 281Q1110 281 1109.5 280.5Q1109 280 1108 280L1110 294L1108 312L1112 310Q1113 320 1113.0 331.0Q1113 342 1113 352Q1113 363 1113.0 374.0Q1113 385 1112 396H1109Q1104 372 1098.5 334.5Q1093 297 1087.0 251.5Q1081 206 1075.5 159.5Q1070 113 1065 72ZM2042 253Q2046 284 2048.5 309.0Q2051 334 2051 349Q1991 345 1894.0 339.5Q1797 334 1687 329L1681 268Q1786 264 1882.0 259.5Q1978 255 2042 253ZM1620 271 1615 325Q1537 321 1460.5 316.5Q1384 312 1317.5 307.0Q1251 302 1202 297Q1252 292 1318.5 287.5Q1385 283 1462.5 279.0Q1540 275 1620 271ZM2025 120 2039 226Q1972 222 1876.5 217.0Q1781 212 1676 207L1670 135Q1770 131 1863.0 126.5Q1956 122 2025 120ZM1630 137 1625 205Q1535 201 1449.0 195.5Q1363 190 1291.0 184.5Q1219 179 1171 173Q1223 166 1296.5 159.5Q1370 153 1456.0 147.5Q1542 142 1630 137ZM454 -80Q490 -60 539.5 -26.5Q589 7 643 45Q585 87 531.5 123.5Q478 160 442 179L344 56Q375 17 404.0 -18.5Q433 -54 454 -80Z" />
  </g>
</svg>