<svg xmlns="http://www.w3.org/2000/svg" viewBox="100 -249 1303 1064">
  <g transform="translate(0, 566) scale(1, -1)">
    <path fill="black" d="M630 -249Q569 -194 521.0 -153.5Q473 -113 434.0 -81.5Q395 -50 359 -24Q382 -4 420.0 29.5Q458 63 501 105Q497 167 492.5 219.5Q488 272 483 318Q390 318 316.5 300.5Q243 283 189.0 260.5Q135 238 100 221Q104 250 106.5 278.5Q109 307 109 337Q109 362 107.0 387.0Q105 412 100 437Q133 424 186.5 401.0Q240 378 314.0 359.5Q388 341 481 340Q472 429 462.0 495.0Q452 561 439.0 618.0Q426 675 409 736Q460 724 513 724Q567 724 624 736Q647 750 668.5 769.5Q690 789 710 815Q741 746 817.0 631.5Q893 517 1020 355Q1049 353 1077.0 351.5Q1105 350 1134 348Q1163 374 1202.0 409.5Q1241 445 1284.0 488.0Q1327 531 1366 577L1390 562Q1348 488 1318.5 430.5Q1289 373 1261 327Q1282 293 1318.0 239.5Q1354 186 1403 121L1381 102Q1293 179 1233.0 229.5Q1173 280 1122 318Q951 300 815.0 279.0Q679 258 583 219Q593 269 593 324Q593 377 583 434Q647 407 755.0 388.0Q863 369 991 358Q900 452 834.0 519.0Q768 586 717.0 634.5Q666 683 621 721Q604 657 591.0 581.5Q578 506 568.5 403.5Q559 301 552 156Q568 173 584.0 190.5Q600 208 615 226L639 211Q611 161 589.0 118.5Q567 76 547 40Q546 12 545.0 -16.0Q544 -44 543 -76Q563 -107 590.5 -146.5Q618 -186 652 -230Z" />
  </g>
</svg>