<svg xmlns="http://www.w3.org/2000/svg" viewBox="100 -73 1402 786">
  <g transform="translate(0, 640) scale(1, -1)">
    <path fill="black" d="M486 -73Q469 -34 447.0 -6.5Q425 21 399 44Q403 46 406.5 48.0Q410 50 414 52Q411 90 405.5 159.0Q400 228 393 302Q291 277 214.0 248.5Q137 220 103 193Q106 222 108.5 251.0Q111 280 111 310Q111 338 108.5 366.5Q106 395 100 426Q121 411 165.5 393.5Q210 376 268.5 361.0Q327 346 390 336Q385 391 379.5 440.0Q374 489 368.5 523.5Q363 558 358 569Q375 566 391.5 564.0Q408 562 425 562Q433 562 441.0 562.5Q449 563 457 564L399 596Q425 619 447.0 646.5Q469 674 486 713Q531 652 624.0 558.5Q717 465 862 339L879 351Q878 387 870 426Q878 420 900.0 414.0Q922 408 953 401L956 403L958 400Q1006 391 1069.5 382.0Q1133 373 1200.5 364.5Q1268 356 1330.5 348.5Q1393 341 1438 335Q1408 364 1387.5 383.0Q1367 402 1348.5 417.0Q1330 432 1305 448Q1326 465 1348.5 483.0Q1371 501 1402.5 527.5Q1434 554 1483 598L1502 586Q1477 547 1460.0 514.0Q1443 481 1425 448Q1439 424 1452.5 398.0Q1466 372 1482 343L1483 344L1502 332L1495 321L1502 311L1483 295Q1482 295 1480 297Q1464 270 1451.5 245.0Q1439 220 1425 195Q1443 164 1460.0 130.0Q1477 96 1502 57L1483 42Q1447 75 1422.5 97.5Q1398 120 1380.5 136.5Q1363 153 1345.5 166.5Q1328 180 1305 195Q1331 215 1359.0 237.0Q1387 259 1434 300Q1382 290 1314.5 279.5Q1247 269 1175.5 258.5Q1104 248 1040.0 237.0Q976 226 931.5 215.0Q887 204 873 193Q875 217 877.0 240.5Q879 264 880 288L862 300Q717 174 624.0 81.0Q531 -12 486 -73ZM538 483Q561 483 583 486Q556 504 530.5 519.5Q505 535 482 549Q480 538 477.5 522.5Q475 507 473 488Q489 486 505.5 484.5Q522 483 538 483ZM433 63Q454 74 475.5 86.5Q497 99 520 113Q516 160 510.5 214.5Q505 269 498.5 322.0Q492 375 485.0 416.5Q478 458 472 479Q466 434 460.5 376.5Q455 319 449.5 260.0Q444 201 440.0 149.0Q436 97 433 63ZM550 132Q606 167 675.5 213.0Q745 259 834 320Q762 369 703.5 408.0Q645 447 595 478Q590 459 584.0 420.0Q578 381 572.0 332.0Q566 283 560.5 230.5Q555 178 550 132Z" />
  </g>
</svg>