<svg xmlns="http://www.w3.org/2000/svg" viewBox="100 -112 1152 852">
  <g transform="translate(0, 628) scale(1, -1)">
    <path fill="black" d="M104 -112Q108 -91 110.0 -70.5Q112 -50 112 -29Q112 -9 110.0 13.0Q108 35 104 58Q124 50 147.0 43.0Q170 36 198 29Q199 40 200.0 52.0Q201 64 201 75Q201 95 197 112Q208 108 234.5 102.5Q261 97 296.0 92.0Q331 87 368.5 83.0Q406 79 438 77L432 177Q388 170 339.0 162.0Q290 154 251.0 146.0Q212 138 197 130Q198 144 199.5 159.0Q201 174 201 189Q201 210 197 227Q208 223 233.5 218.0Q259 213 293.0 208.0Q327 203 363.5 199.0Q400 195 431 192Q430 218 428.0 242.5Q426 267 424 291Q381 284 333.5 276.0Q286 268 248.5 260.0Q211 252 197 245Q198 259 199.5 274.0Q201 289 201 304Q201 325 197 342Q211 337 248.5 330.0Q286 323 333.5 317.5Q381 312 423 308L414 403Q372 396 326.5 388.5Q281 381 246.0 373.5Q211 366 197 359Q198 373 199.5 388.0Q201 403 201 418Q201 439 197 456Q210 451 245.5 444.5Q281 438 326.0 432.5Q371 427 412 423Q410 449 407.0 473.0Q404 497 401 516Q360 509 317.5 502.0Q275 495 242.5 488.0Q210 481 197 474Q198 491 199.5 508.5Q201 526 200 544Q170 540 145.0 534.5Q120 529 100 524Q112 581 112 635Q112 689 100 740Q190 715 329.5 698.5Q469 682 653.5 669.5Q838 657 1060 642Q1055 665 1049.0 688.0Q1043 711 1036 736Q1087 724 1141 724Q1195 724 1252 736Q1238 686 1227.0 630.5Q1216 575 1207.0 507.0Q1198 439 1191.0 351.5Q1184 264 1178.5 150.0Q1173 36 1169 -112H1143Q1133 37 1124.5 147.5Q1116 258 1107.5 340.0Q1099 422 1090.0 485.0Q1081 548 1069 603Q914 598 770.0 591.0Q626 584 504 575Q497 530 492.0 458.5Q487 387 482 298Q511 287 558.5 277.5Q606 268 665.0 260.5Q724 253 788.5 247.0Q853 241 915 237Q941 257 975.5 285.0Q1010 313 1069 366L1088 354Q1063 316 1046.0 283.0Q1029 250 1011 217Q1029 186 1046.0 152.0Q1063 118 1088 79L1069 64Q1027 102 1001.0 126.5Q975 151 955.5 168.0Q936 185 913 201Q830 193 746.5 183.5Q663 174 593.0 161.0Q523 148 478 130Q482 150 484.0 170.5Q486 191 486 212Q486 229 484.5 245.5Q483 262 481 281Q477 214 474.0 141.0Q471 68 467 -6Q483 -7 499.5 -8.0Q516 -9 532 -10V-32L466 -38L462 -112H447L444 -40Q336 -52 253.5 -68.5Q171 -85 104 -112ZM397 539Q396 547 395.0 554.0Q394 561 392 567Q361 564 331.5 561.0Q302 558 275 554Q303 550 335.0 546.0Q367 542 397 539ZM442 -5 438 63Q403 57 362.5 50.5Q322 44 285.5 37.5Q249 31 224 24Q320 4 442 -5Z" />
  </g>
</svg>