<svg xmlns="http://www.w3.org/2000/svg" viewBox="100 -202 2431 1041">
  <g transform="translate(0, 637) scale(1, -1)">
    <path fill="black" d="M1304 -202Q1300 -155 1289 -112Q1159 26 1071.5 125.0Q984 224 921 286Q899 260 869.5 218.0Q840 176 808.5 129.0Q777 82 749.5 40.0Q722 -2 703 -28L693 -23L712 20Q679 17 625.5 13.5Q572 10 507.5 6.0Q443 2 377.0 -2.0Q311 -6 253.0 -11.0Q195 -16 154.0 -21.5Q113 -27 100 -33Q102 -20 103.0 -5.5Q104 9 104 25Q104 39 103.0 54.0Q102 69 100 83Q111 77 154 72Q152 121 148.5 186.0Q145 251 140.5 320.0Q136 389 131.5 451.0Q127 513 121.5 555.5Q116 598 111 610Q127 608 143.0 606.5Q159 605 175 605Q185 605 194.0 605.5Q203 606 212 607Q211 618 210.5 630.0Q210 642 208 653Q220 647 261.5 641.5Q303 636 361.0 631.0Q419 626 484.0 621.5Q549 617 609.0 613.5Q669 610 712 607Q685 642 671 653Q695 661 722.0 675.0Q749 689 774 707Q774 694 784.0 663.0Q794 632 809.5 590.5Q825 549 844.0 504.0Q863 459 881.0 416.0Q899 373 914 340Q958 383 1019.5 442.0Q1081 501 1151.0 576.0Q1221 651 1287 742Q1300 789 1304 839Q1356 806 1457.5 761.5Q1559 717 1696.5 665.0Q1834 613 1995.5 557.5Q2157 502 2329 447Q2368 483 2409.0 525.0Q2450 567 2487 610L2515 595Q2467 509 2433.0 442.0Q2399 375 2367 322Q2390 283 2431.5 221.5Q2473 160 2531 84L2505 63Q2460 103 2421.5 135.5Q2383 168 2350 196Q2210 152 2076.0 106.5Q1942 61 1821.0 17.5Q1700 -26 1598.5 -66.0Q1497 -106 1421.5 -140.5Q1346 -175 1304 -202ZM1249 5Q1325 7 1437.5 25.0Q1550 43 1692 72Q1680 96 1661.5 118.5Q1643 141 1625 156L1622 117H1612Q1611 125 1610.5 135.5Q1610 146 1610 157Q1511 156 1441.5 149.5Q1372 143 1323.5 134.0Q1275 125 1238 114L1236 83H1226Q1225 109 1223.0 147.5Q1221 186 1218.0 229.0Q1215 272 1211.5 312.5Q1208 353 1203.5 383.5Q1199 414 1194 427Q1205 425 1214.5 424.0Q1224 423 1234 423Q1235 431 1235.5 439.0Q1236 447 1236 455Q1236 486 1230 513Q1268 502 1318.5 492.0Q1369 482 1443.0 475.5Q1517 469 1625 468Q1644 484 1663.0 507.5Q1682 531 1694 556Q1716 527 1743.5 493.5Q1771 460 1815.5 417.0Q1860 374 1931 314Q1860 254 1816.0 211.0Q1772 168 1745.0 135.0Q1718 102 1696 73Q1832 101 1990.0 138.5Q2148 176 2321 220Q2285 249 2253.0 274.5Q2221 300 2190 322Q2210 339 2239.5 364.5Q2269 390 2303 422Q2073 480 1873.0 525.5Q1673 571 1516.5 599.0Q1360 627 1261 631Q1210 533 1163.5 459.5Q1117 386 1082 316Q1108 266 1149.5 186.0Q1191 106 1249 5ZM779 512 726 589Q687 585 631.0 581.0Q575 577 512.5 572.5Q450 568 391.0 563.5Q332 559 287 553Q308 547 351.0 542.0Q394 537 450.0 532.5Q506 528 566.5 524.0Q627 520 682.5 517.0Q738 514 779 512ZM238 529Q249 529 259.5 529.5Q270 530 279 531Q279 536 278.5 541.5Q278 547 277 552Q255 549 238.5 545.5Q222 542 212 539Q212 533 211 530Q218 529 224.5 529.0Q231 529 238 529ZM842 415Q829 434 817.0 453.5Q805 473 792 492Q753 489 698.0 485.0Q643 481 582.0 476.5Q521 472 463.0 467.5Q405 463 360 457Q382 452 426.0 446.5Q470 441 526.0 436.5Q582 432 641.0 428.0Q700 424 752.5 420.5Q805 417 842 415ZM1593 388Q1590 411 1587.5 428.5Q1585 446 1582 456Q1501 454 1444.5 447.0Q1388 440 1346.5 431.0Q1305 422 1269 412V409Q1281 407 1310.5 405.0Q1340 403 1378.5 400.5Q1417 398 1458.0 396.0Q1499 394 1535.0 392.0Q1571 390 1593 388ZM310 430Q320 430 330.0 430.5Q340 431 349 432Q349 438 348.5 443.5Q348 449 347 455Q322 452 304.5 449.0Q287 446 278 442Q277 439 277.0 436.0Q277 433 277 431Q285 430 293.5 430.0Q302 430 310 430ZM1626 168H1651Q1680 179 1710.5 192.0Q1741 205 1778 225Q1775 251 1770.0 282.0Q1765 313 1761.0 339.0Q1757 365 1753 375Q1750 365 1745.0 336.0Q1740 307 1736.0 273.5Q1732 240 1729 216H1724Q1721 242 1716.0 276.0Q1711 310 1706.5 339.0Q1702 368 1698 377Q1715 374 1730 374Q1735 374 1741.0 374.5Q1747 375 1753 376V377Q1768 374 1783 374Q1796 374 1809 377Q1806 369 1801.5 343.0Q1797 317 1792.5 286.0Q1788 255 1785 230Q1811 245 1842.5 264.5Q1874 284 1911 312Q1850 357 1805.0 383.5Q1760 410 1725.0 426.0Q1690 442 1658 455Q1654 442 1650.5 422.0Q1647 402 1644 376Q1650 375 1656.0 374.5Q1662 374 1668 374Q1682 374 1698 377Q1695 368 1690.0 338.5Q1685 309 1680.5 274.5Q1676 240 1673 216H1668Q1665 240 1660.0 271.5Q1655 303 1651.0 331.0Q1647 359 1643 372Q1638 325 1634.0 269.5Q1630 214 1626 168ZM225 64Q222 109 218.5 169.0Q215 229 210.5 292.5Q206 356 200 409Q196 352 191.5 290.0Q187 228 183.5 170.5Q180 113 176 69Q187 68 199.5 67.0Q212 66 225 64ZM834 323Q842 350 842 363Q856 353 870.5 344.5Q885 336 899 328L853 399Q817 395 763.5 391.0Q710 387 649.0 382.5Q588 378 529.5 373.0Q471 368 426 362Q449 356 496.5 350.0Q544 344 603.5 339.0Q663 334 724.0 330.0Q785 326 834 323ZM1264 214Q1265 219 1265.0 224.0Q1265 229 1265 234Q1265 239 1265.0 244.5Q1265 250 1264 255H1263V260H1264Q1265 265 1265.0 271.0Q1265 277 1265 282Q1265 287 1265.0 293.0Q1265 299 1264 305H1263V310H1264Q1265 315 1265.0 321.0Q1265 327 1265 332Q1265 337 1265.0 343.0Q1265 349 1264 355H1263V360H1264Q1265 366 1265.0 372.0Q1265 378 1265 384V394Q1259 363 1254.5 315.5Q1250 268 1246 219Q1251 218 1255.5 216.5Q1260 215 1264 214ZM1598 337 1594 379Q1568 377 1525.0 374.0Q1482 371 1434.5 368.5Q1387 366 1345.5 363.0Q1304 360 1281 358Q1304 355 1346.5 352.5Q1389 350 1438.0 347.0Q1487 344 1530.5 341.5Q1574 339 1598 337ZM389 330Q396 330 403.0 330.0Q410 330 417 331Q417 339 416.5 346.0Q416 353 415 360Q390 357 372.0 353.0Q354 349 346 345Q347 352 348.0 359.5Q349 367 349 375L342 332Q354 331 366.0 330.5Q378 330 389 330ZM293 59Q291 98 287.0 147.0Q283 196 278.0 246.0Q273 296 267 338Q261 266 255.5 191.0Q250 116 245 63ZM1602 287 1599 329Q1575 327 1531.5 324.0Q1488 321 1439.0 318.5Q1390 316 1347.0 313.0Q1304 310 1281 308Q1300 306 1332.0 303.5Q1364 301 1403.0 299.0Q1442 297 1480.5 294.5Q1519 292 1551.5 290.5Q1584 289 1602 287ZM719 36Q736 75 756.0 121.5Q776 168 794.5 214.5Q813 261 825 297Q772 293 708.0 288.0Q644 283 583.0 277.0Q522 271 476.5 264.5Q431 258 414 250Q414 253 414.5 256.0Q415 259 415 262Q405 216 398.0 159.5Q391 103 385 53Q452 49 517.0 45.5Q582 42 635.5 40.0Q689 38 719 36ZM367 54Q364 91 359.5 132.5Q355 174 349.0 213.5Q343 253 336 284Q329 227 323.5 166.0Q318 105 313 58ZM1605 237 1603 280Q1585 278 1552.5 276.0Q1520 274 1481.5 271.5Q1443 269 1404.0 266.5Q1365 264 1332.5 262.0Q1300 260 1281 258Q1300 256 1333.0 253.5Q1366 251 1405.5 249.0Q1445 247 1484.5 244.5Q1524 242 1556.0 240.5Q1588 239 1605 237ZM1609 168 1606 230Q1585 228 1542.0 225.0Q1499 222 1449.5 219.0Q1400 216 1355.5 213.5Q1311 211 1285 208Q1321 199 1364.0 190.0Q1407 181 1466.0 175.5Q1525 170 1609 168Z" />
  </g>
</svg>