<svg xmlns="http://www.w3.org/2000/svg" viewBox="100 -202 2471 1041">
  <g transform="translate(0, 637) scale(1, -1)">
    <path fill="black" d="M1304 -202Q1300 -155 1289 -112Q1159 26 1071.5 125.0Q984 224 921 286Q899 260 869.5 218.0Q840 176 808.5 129.0Q777 82 749.5 40.0Q722 -2 703 -28L693 -23L712 20Q679 17 625.5 13.5Q572 10 507.5 6.0Q443 2 377.0 -2.0Q311 -6 253.0 -11.0Q195 -16 154.0 -21.5Q113 -27 100 -33Q102 -20 103.0 -5.5Q104 9 104 25Q104 39 103.0 54.0Q102 69 100 83Q111 77 154 72Q152 121 148.5 186.0Q145 251 140.5 320.0Q136 389 131.5 451.0Q127 513 121.5 555.5Q116 598 111 610Q127 608 143.0 606.5Q159 605 175 605Q185 605 194.0 605.5Q203 606 212 607Q211 618 210.5 630.0Q210 642 208 653Q220 647 261.5 641.5Q303 636 361.0 631.0Q419 626 484.0 621.5Q549 617 609.0 613.5Q669 610 712 607Q685 642 671 653Q695 661 722.0 675.0Q749 689 774 707Q774 694 784.0 663.0Q794 632 809.5 590.5Q825 549 844.0 504.0Q863 459 881.0 416.0Q899 373 914 340Q958 383 1019.5 442.0Q1081 501 1151.0 576.0Q1221 651 1287 742Q1300 789 1304 839Q1355 807 1452.0 764.0Q1549 721 1680.0 671.5Q1811 622 1964 568L1961 577Q1976 575 1991.5 574.0Q2007 573 2022 573Q2037 573 2050.5 574.0Q2064 575 2077 577Q2073 570 2070.5 559.0Q2068 548 2065 534Q2136 510 2210.0 485.5Q2284 461 2359 437Q2400 475 2443.5 519.5Q2487 564 2527 610L2555 595Q2507 509 2473.0 442.0Q2439 375 2407 322Q2430 283 2471.5 221.5Q2513 160 2571 84L2545 63Q2496 106 2455.0 141.0Q2414 176 2379 205Q2236 160 2098.5 114.0Q1961 68 1836.5 23.0Q1712 -22 1607.5 -63.0Q1503 -104 1425.0 -139.5Q1347 -175 1304 -202ZM1822 338Q1822 348 1821.0 357.0Q1820 366 1819 374Q1841 364 1889.5 355.5Q1938 347 1994 339Q1990 383 1986.0 425.0Q1982 467 1977 501Q1742 557 1557.5 591.5Q1373 626 1261 631Q1244 597 1227.0 567.0Q1210 537 1193 509Q1229 499 1271.5 489.5Q1314 480 1379.0 474.5Q1444 469 1545 468Q1564 484 1583.0 507.5Q1602 531 1614 556Q1634 529 1659.5 498.0Q1685 467 1723.5 428.5Q1762 390 1822 338ZM779 512 726 589Q687 585 631.0 581.0Q575 577 512.5 572.5Q450 568 391.0 563.5Q332 559 287 553Q308 547 351.0 542.0Q394 537 450.0 532.5Q506 528 566.5 524.0Q627 520 682.5 517.0Q738 514 779 512ZM238 529Q249 529 259.5 529.5Q270 530 279 531Q279 536 278.5 541.5Q278 547 277 552Q255 549 238.5 545.5Q222 542 212 539Q212 533 211 530Q218 529 224.5 529.0Q231 529 238 529ZM1173 141Q1171 179 1168.5 223.0Q1166 267 1162.0 308.5Q1158 350 1153.5 382.0Q1149 414 1144 427Q1155 425 1164.5 424.0Q1174 423 1184 423Q1185 431 1185.0 438.5Q1185 446 1185 454Q1185 464 1185.0 473.5Q1185 483 1183 493Q1173 476 1163.0 459.5Q1153 443 1144 427Q1127 398 1111.5 370.5Q1096 343 1082 316Q1098 285 1121.0 240.0Q1144 195 1173 141ZM842 415Q829 434 817.0 453.5Q805 473 792 492Q753 489 698.0 485.0Q643 481 582.0 476.5Q521 472 463.0 467.5Q405 463 360 457Q382 452 426.0 446.5Q470 441 526.0 436.5Q582 432 641.0 428.0Q700 424 752.5 420.5Q805 417 842 415ZM2022 146Q2101 165 2183.5 185.5Q2266 206 2352 228Q2287 280 2230 322Q2249 338 2276.0 361.5Q2303 385 2334 414Q2262 432 2192.5 449.0Q2123 466 2056 482Q2052 450 2048.0 411.5Q2044 373 2040 334Q2079 330 2115.5 326.0Q2152 322 2180 318V306Q2153 305 2115.0 302.0Q2077 299 2036 294Q2032 251 2029.0 212.0Q2026 173 2022 146ZM1513 388Q1510 411 1507.5 428.5Q1505 446 1502 456Q1424 454 1373.0 447.0Q1322 440 1287.0 431.0Q1252 422 1219 412V409Q1233 407 1269.5 404.0Q1306 401 1352.5 398.0Q1399 395 1442.5 392.5Q1486 390 1513 388ZM1705 230Q1730 244 1759.0 262.5Q1788 281 1822 306Q1822 309 1822.5 312.0Q1823 315 1823 318Q1765 360 1721.5 385.5Q1678 411 1644.0 426.5Q1610 442 1578 455Q1574 442 1570.5 422.0Q1567 402 1564 376Q1570 375 1576.0 374.5Q1582 374 1588 374Q1603 374 1618 377Q1625 376 1634.0 375.0Q1643 374 1647 374Q1660 374 1673 377Q1688 374 1703 374Q1716 374 1729 377Q1726 369 1721.5 343.0Q1717 317 1712.5 286.0Q1708 255 1705 230ZM310 430Q320 430 330.0 430.5Q340 431 349 432Q349 438 348.5 443.5Q348 449 347 455Q322 452 304.5 449.0Q287 446 278 442Q277 439 277.0 436.0Q277 433 277 431Q285 430 293.5 430.0Q302 430 310 430ZM225 64Q222 109 218.5 169.0Q215 229 210.5 292.5Q206 356 200 409Q196 352 191.5 290.0Q187 228 183.5 170.5Q180 113 176 69Q187 68 199.5 67.0Q212 66 225 64ZM834 323Q842 350 842 363Q856 353 870.5 344.5Q885 336 899 328L853 399Q817 395 763.5 391.0Q710 387 649.0 382.5Q588 378 529.5 373.0Q471 368 426 362Q449 356 496.5 350.0Q544 344 603.5 339.0Q663 334 724.0 330.0Q785 326 834 323ZM1214 214Q1215 219 1215.0 224.0Q1215 229 1215 234Q1215 239 1215.0 244.5Q1215 250 1214 255H1213V260H1214Q1215 265 1215.0 271.0Q1215 277 1215 282Q1215 287 1215.0 293.0Q1215 299 1214 305H1213V310H1214Q1215 315 1215.0 321.0Q1215 327 1215 332Q1215 337 1215.0 343.0Q1215 349 1214 355H1213V360H1214Q1215 366 1215.0 372.0Q1215 378 1215 384V394Q1209 363 1204.5 315.5Q1200 268 1196 219ZM1518 337 1514 379Q1489 378 1450.0 375.5Q1411 373 1368.0 370.0Q1325 367 1288.0 364.0Q1251 361 1230 358Q1251 355 1289.0 352.5Q1327 350 1371.5 347.0Q1416 344 1455.5 341.5Q1495 339 1518 337ZM1650 201 1698 225Q1695 251 1690.0 282.0Q1685 313 1681.0 339.0Q1677 365 1673 375Q1671 368 1668.0 347.5Q1665 327 1661.5 300.5Q1658 274 1655.0 247.5Q1652 221 1650 201ZM389 330Q396 330 403.0 330.0Q410 330 417 331Q417 339 416.5 346.0Q416 353 415 360Q390 357 372.0 353.0Q354 349 346 345Q347 352 348.0 359.5Q349 367 349 375L342 332Q354 331 366.0 330.5Q378 330 389 330ZM1594 177Q1606 182 1618.0 187.0Q1630 192 1642 197Q1639 224 1634.5 260.5Q1630 297 1625.5 329.5Q1621 362 1618 374Q1615 364 1612.0 340.0Q1609 316 1605.5 285.5Q1602 255 1599.0 226.0Q1596 197 1594 177ZM1546 168H1571L1587 174Q1584 193 1581.0 221.5Q1578 250 1575.0 280.0Q1572 310 1569.0 334.5Q1566 359 1563 371Q1558 324 1554.0 269.0Q1550 214 1546 168ZM293 59Q291 98 287.0 147.0Q283 196 278.0 246.0Q273 296 267 338Q261 266 255.5 191.0Q250 116 245 63ZM1522 287 1519 329Q1496 327 1456.5 324.0Q1417 321 1372.5 318.5Q1328 316 1289.5 313.0Q1251 310 1230 308Q1251 305 1290.5 302.5Q1330 300 1375.0 297.0Q1420 294 1460.0 291.5Q1500 289 1522 287ZM719 36Q736 75 756.0 121.5Q776 168 794.5 214.5Q813 261 825 297Q772 293 708.0 288.0Q644 283 583.0 277.0Q522 271 476.5 264.5Q431 258 414 250Q414 253 414.5 256.0Q415 259 415 262Q405 216 398.0 159.5Q391 103 385 53Q452 49 517.0 45.5Q582 42 635.5 40.0Q689 38 719 36ZM1249 5Q1325 8 1438.5 25.5Q1552 43 1696.5 73.0Q1841 103 2008 143Q2007 169 2004.5 207.5Q2002 246 1998 290Q1939 284 1888.5 275.5Q1838 267 1819 258L1822 289Q1761 237 1722.0 197.5Q1683 158 1658.5 127.5Q1634 97 1614 69Q1602 94 1583.0 117.0Q1564 140 1545 156L1542 117H1532Q1531 125 1530.5 135.5Q1530 146 1530 157Q1433 156 1370.0 149.5Q1307 143 1265.5 134.0Q1224 125 1188 114V113ZM367 54Q364 91 359.5 132.5Q355 174 349.0 213.5Q343 253 336 284Q329 227 323.5 166.0Q318 105 313 58ZM1525 237 1523 279Q1501 277 1461.0 274.0Q1421 271 1375.5 268.5Q1330 266 1290.5 263.0Q1251 260 1230 258Q1251 255 1291.5 252.5Q1332 250 1378.0 247.0Q1424 244 1464.0 241.5Q1504 239 1525 237ZM1529 168 1526 230Q1505 228 1466.0 225.0Q1427 222 1381.5 219.0Q1336 216 1296.0 213.0Q1256 210 1233 208Q1265 198 1302.0 189.5Q1339 181 1393.0 175.5Q1447 170 1529 168Z" />
  </g>
</svg>