<svg xmlns="http://www.w3.org/2000/svg" viewBox="100 -202 2431 1041">
  <g transform="translate(0, 637) scale(1, -1)">
    <path fill="black" d="M1304 -202Q1300 -155 1289 -112Q1159 26 1071.5 125.0Q984 224 921 286Q899 260 869.5 218.0Q840 176 808.5 129.0Q777 82 749.5 40.0Q722 -2 703 -28L693 -23L712 20Q679 17 625.5 13.5Q572 10 507.5 6.0Q443 2 377.0 -2.0Q311 -6 253.0 -11.0Q195 -16 154.0 -21.5Q113 -27 100 -33Q102 -20 103.0 -5.5Q104 9 104 25Q104 39 103.0 54.0Q102 69 100 83Q111 77 154 72Q152 121 148.5 186.0Q145 251 140.5 320.0Q136 389 131.5 451.0Q127 513 121.5 555.5Q116 598 111 610Q127 608 143.0 606.5Q159 605 175 605Q185 605 194.0 605.5Q203 606 212 607Q211 618 210.5 630.0Q210 642 208 653Q220 647 261.5 641.5Q303 636 361.0 631.0Q419 626 484.0 621.5Q549 617 609.0 613.5Q669 610 712 607Q685 642 671 653Q695 661 722.0 675.0Q749 689 774 707Q774 694 784.0 663.0Q794 632 809.5 590.5Q825 549 844.0 504.0Q863 459 881.0 416.0Q899 373 914 340Q958 383 1019.5 442.0Q1081 501 1151.0 576.0Q1221 651 1287 742Q1300 789 1304 839Q1356 806 1457.5 761.5Q1559 717 1696.5 665.0Q1834 613 1995.5 557.5Q2157 502 2329 447Q2368 483 2409.0 525.0Q2450 567 2487 610L2515 595Q2467 509 2433.0 442.0Q2399 375 2367 322Q2390 283 2431.5 221.5Q2473 160 2531 84L2505 63Q2460 103 2421.5 135.5Q2383 168 2350 196Q2210 152 2076.0 106.5Q1942 61 1821.0 17.5Q1700 -26 1598.5 -66.0Q1497 -106 1421.5 -140.5Q1346 -175 1304 -202ZM1249 5Q1338 8 1479.0 31.5Q1620 55 1798 94Q1786 115 1770.0 133.5Q1754 152 1739 165L1761 174Q1722 212 1691.5 239.5Q1661 267 1637 288H1629Q1599 251 1583.0 228.0Q1567 205 1557.5 188.0Q1548 171 1537 152Q1523 174 1502.0 194.0Q1481 214 1461 226Q1488 242 1509.0 251.5Q1530 261 1562 284Q1501 280 1449.0 276.0Q1397 272 1362.5 268.0Q1328 264 1319 259Q1321 274 1322.0 289.5Q1323 305 1323 320Q1323 335 1322.0 348.5Q1321 362 1319 375Q1330 370 1365.0 365.0Q1400 360 1451.0 355.5Q1502 351 1562 347Q1529 370 1508.5 380.0Q1488 390 1461 406Q1481 418 1502.0 438.0Q1523 458 1537 480Q1548 461 1557.5 443.5Q1567 426 1583.0 403.0Q1599 380 1629 343H1636Q1660 363 1690.5 391.0Q1721 419 1760 456L1739 465Q1756 479 1773.0 499.0Q1790 519 1801 541Q1627 579 1489.0 603.0Q1351 627 1261 631Q1210 533 1163.5 459.5Q1117 386 1082 316Q1108 266 1149.5 186.0Q1191 106 1249 5ZM779 512 726 589Q687 585 631.0 581.0Q575 577 512.5 572.5Q450 568 391.0 563.5Q332 559 287 553Q308 547 351.0 542.0Q394 537 450.0 532.5Q506 528 566.5 524.0Q627 520 682.5 517.0Q738 514 779 512ZM238 529Q249 529 259.5 529.5Q270 530 279 531Q279 536 278.5 541.5Q278 547 277 552Q255 549 238.5 545.5Q222 542 212 539Q212 533 211 530Q218 529 224.5 529.0Q231 529 238 529ZM1818 99Q1932 124 2058.5 155.0Q2185 186 2321 220Q2285 249 2253.0 274.5Q2221 300 2190 322Q2210 339 2239.5 364.5Q2269 390 2303 422Q2170 456 2046.5 485.5Q1923 515 1812 539Q1832 513 1858.0 482.0Q1884 451 1925.0 411.5Q1966 372 2030 319V307Q1968 256 1928.5 218.5Q1889 181 1863.5 152.5Q1838 124 1818 99ZM842 415Q829 434 817.0 453.5Q805 473 792 492Q753 489 698.0 485.0Q643 481 582.0 476.5Q521 472 463.0 467.5Q405 463 360 457Q382 452 426.0 446.5Q470 441 526.0 436.5Q582 432 641.0 428.0Q700 424 752.5 420.5Q805 417 842 415ZM310 430Q320 430 330.0 430.5Q340 431 349 432Q349 438 348.5 443.5Q348 449 347 455Q322 452 304.5 449.0Q287 446 278 442Q277 439 277.0 436.0Q277 433 277 431Q285 430 293.5 430.0Q302 430 310 430ZM2005 321Q1950 361 1909.0 385.5Q1868 410 1835.0 425.0Q1802 440 1772 452L1674 341Q1696 340 1717.5 338.5Q1739 337 1760 336Q1754 379 1746 401Q1765 397 1784 397Q1795 397 1805.0 398.5Q1815 400 1825 401Q1820 388 1816.0 370.5Q1812 353 1808 333Q1870 330 1922.0 327.0Q1974 324 2005 321ZM225 64Q222 109 218.5 169.0Q215 229 210.5 292.5Q206 356 200 409Q196 352 191.5 290.0Q187 228 183.5 170.5Q180 113 176 69Q187 68 199.5 67.0Q212 66 225 64ZM834 323Q842 350 842 363Q856 353 870.5 344.5Q885 336 899 328L853 399Q817 395 763.5 391.0Q710 387 649.0 382.5Q588 378 529.5 373.0Q471 368 426 362Q449 356 496.5 350.0Q544 344 603.5 339.0Q663 334 724.0 330.0Q785 326 834 323ZM389 330Q396 330 403.0 330.0Q410 330 417 331Q417 339 416.5 346.0Q416 353 415 360Q390 357 372.0 353.0Q354 349 346 345Q347 352 348.0 359.5Q349 367 349 375L342 332Q354 331 366.0 330.5Q378 330 389 330ZM293 59Q291 98 287.0 147.0Q283 196 278.0 246.0Q273 296 267 338Q261 266 255.5 191.0Q250 116 245 63ZM1791 185Q1818 196 1848.0 210.0Q1878 224 1916.0 246.5Q1954 269 2003 305L1803 296Q1799 270 1796.0 241.5Q1793 213 1791 185ZM719 36Q736 75 756.0 121.5Q776 168 794.5 214.5Q813 261 825 297Q772 293 708.0 288.0Q644 283 583.0 277.0Q522 271 476.5 264.5Q431 258 414 250Q414 253 414.5 256.0Q415 259 415 262Q405 216 398.0 159.5Q391 103 385 53Q452 49 517.0 45.5Q582 42 635.5 40.0Q689 38 719 36ZM1773 179Q1775 179 1776 180Q1775 208 1772.5 237.5Q1770 267 1766 295L1674 290ZM367 54Q364 91 359.5 132.5Q355 174 349.0 213.5Q343 253 336 284Q329 227 323.5 166.0Q318 105 313 58Z" />
  </g>
</svg>