<svg xmlns="http://www.w3.org/2000/svg" viewBox="100 -202 2431 1041">
  <g transform="translate(0, 637) scale(1, -1)">
    <path fill="black" d="M1304 -202Q1300 -155 1289 -112Q1159 26 1071.5 125.0Q984 224 921 286Q899 260 869.5 218.0Q840 176 808.5 129.0Q777 82 749.5 40.0Q722 -2 703 -28L693 -23L712 20Q679 17 625.5 13.5Q572 10 507.5 6.0Q443 2 377.0 -2.0Q311 -6 253.0 -11.0Q195 -16 154.0 -21.5Q113 -27 100 -33Q102 -20 103.0 -5.5Q104 9 104 25Q104 39 103.0 54.0Q102 69 100 83Q111 77 154 72Q152 121 148.5 186.0Q145 251 140.5 320.0Q136 389 131.5 451.0Q127 513 121.5 555.5Q116 598 111 610Q127 608 143.0 606.5Q159 605 175 605Q185 605 194.0 605.5Q203 606 212 607Q211 618 210.5 630.0Q210 642 208 653Q220 647 261.5 641.5Q303 636 361.0 631.0Q419 626 484.0 621.5Q549 617 609.0 613.5Q669 610 712 607Q685 642 671 653Q695 661 722.0 675.0Q749 689 774 707Q774 694 784.0 663.0Q794 632 809.5 590.5Q825 549 844.0 504.0Q863 459 881.0 416.0Q899 373 914 340Q958 383 1019.5 442.0Q1081 501 1151.0 576.0Q1221 651 1287 742Q1300 789 1304 839Q1356 806 1457.5 761.5Q1559 717 1696.5 665.0Q1834 613 1995.5 557.5Q2157 502 2329 447Q2368 483 2409.0 525.0Q2450 567 2487 610L2515 595Q2467 509 2433.0 442.0Q2399 375 2367 322Q2390 283 2431.5 221.5Q2473 160 2531 84L2505 63Q2460 103 2421.5 135.5Q2383 168 2350 196Q2239 161 2131.5 125.0Q2024 89 1924 54L1917 -1H1906Q1905 9 1904.5 21.0Q1904 33 1902 46Q1877 37 1852.5 28.5Q1828 20 1804 11Q1804 8 1803.5 5.0Q1803 2 1803 -1H1792Q1792 1 1791.5 3.0Q1791 5 1791 7Q1678 -34 1582.5 -72.5Q1487 -111 1416.0 -143.5Q1345 -176 1304 -202ZM1249 5Q1307 7 1386.5 18.0Q1466 29 1564 47Q1556 85 1543.5 116.0Q1531 147 1515 175H1520Q1543 175 1578.5 181.0Q1614 187 1658 197Q1653 242 1646.0 277.5Q1639 313 1632 328Q1646 326 1661.0 325.0Q1676 324 1690 324Q1704 324 1717.5 325.0Q1731 326 1743 328Q1735 312 1728.5 280.5Q1722 249 1716 211L1769 225Q1764 260 1758.0 287.5Q1752 315 1746 328Q1760 326 1775.0 325.0Q1790 324 1804 324Q1818 324 1831.5 325.0Q1845 326 1857 328Q1850 315 1845.0 293.0Q1840 271 1835 243L1878 256Q1874 281 1869.5 299.5Q1865 318 1860 328Q1874 326 1889.0 325.0Q1904 324 1918 324Q1932 324 1945.5 325.0Q1959 326 1971 328Q1967 320 1963.0 307.0Q1959 294 1956 279Q1992 290 2026.0 300.5Q2060 311 2090 320Q2036 337 1971.0 356.0Q1906 375 1838.5 393.0Q1771 411 1708.5 426.0Q1646 441 1596.5 450.0Q1547 459 1518 459H1515Q1531 488 1543.5 519.0Q1556 550 1564 590Q1471 607 1394.5 618.0Q1318 629 1261 631Q1210 533 1163.5 459.5Q1117 386 1082 316Q1108 266 1149.5 186.0Q1191 106 1249 5ZM1932 125Q2114 167 2321 220Q2285 249 2253.0 274.5Q2221 300 2190 322Q2210 339 2239.5 364.5Q2269 390 2303 422Q2092 475 1905.5 518.0Q1719 561 1570 589Q1590 573 1634.5 548.0Q1679 523 1738.5 494.5Q1798 466 1865.0 436.0Q1932 406 1997.5 378.5Q2063 351 2118 330H2119L2144 320Q2102 304 2051.5 283.5Q2001 263 1948 239Q1944 213 1940.0 183.5Q1936 154 1932 125ZM779 512 726 589Q687 585 631.0 581.0Q575 577 512.5 572.5Q450 568 391.0 563.5Q332 559 287 553Q308 547 351.0 542.0Q394 537 450.0 532.5Q506 528 566.5 524.0Q627 520 682.5 517.0Q738 514 779 512ZM238 529Q249 529 259.5 529.5Q270 530 279 531Q279 536 278.5 541.5Q278 547 277 552Q255 549 238.5 545.5Q222 542 212 539Q212 533 211 530Q218 529 224.5 529.0Q231 529 238 529ZM842 415Q829 434 817.0 453.5Q805 473 792 492Q753 489 698.0 485.0Q643 481 582.0 476.5Q521 472 463.0 467.5Q405 463 360 457Q382 452 426.0 446.5Q470 441 526.0 436.5Q582 432 641.0 428.0Q700 424 752.5 420.5Q805 417 842 415ZM310 430Q320 430 330.0 430.5Q340 431 349 432Q349 438 348.5 443.5Q348 449 347 455Q322 452 304.5 449.0Q287 446 278 442Q277 439 277.0 436.0Q277 433 277 431Q285 430 293.5 430.0Q302 430 310 430ZM225 64Q222 109 218.5 169.0Q215 229 210.5 292.5Q206 356 200 409Q196 352 191.5 290.0Q187 228 183.5 170.5Q180 113 176 69Q187 68 199.5 67.0Q212 66 225 64ZM834 323Q842 350 842 363Q856 353 870.5 344.5Q885 336 899 328L853 399Q817 395 763.5 391.0Q710 387 649.0 382.5Q588 378 529.5 373.0Q471 368 426 362Q449 356 496.5 350.0Q544 344 603.5 339.0Q663 334 724.0 330.0Q785 326 834 323ZM389 330Q396 330 403.0 330.0Q410 330 417 331Q417 339 416.5 346.0Q416 353 415 360Q390 357 372.0 353.0Q354 349 346 345Q347 352 348.0 359.5Q349 367 349 375L342 332Q354 331 366.0 330.5Q378 330 389 330ZM293 59Q291 98 287.0 147.0Q283 196 278.0 246.0Q273 296 267 338Q261 266 255.5 191.0Q250 116 245 63ZM719 36Q736 75 756.0 121.5Q776 168 794.5 214.5Q813 261 825 297Q772 293 708.0 288.0Q644 283 583.0 277.0Q522 271 476.5 264.5Q431 258 414 250Q414 253 414.5 256.0Q415 259 415 262Q405 216 398.0 159.5Q391 103 385 53Q452 49 517.0 45.5Q582 42 635.5 40.0Q689 38 719 36ZM367 54Q364 91 359.5 132.5Q355 174 349.0 213.5Q343 253 336 284Q329 227 323.5 166.0Q318 105 313 58ZM1815 98 1896 116Q1894 140 1891.0 164.0Q1888 188 1885 211Q1870 204 1855.0 197.5Q1840 191 1825 183Q1822 162 1819.5 140.5Q1817 119 1815 98ZM1700 73 1784 91Q1783 108 1781.0 125.5Q1779 143 1777 160L1705 124ZM1575 49 1672 68 1668 105Q1605 71 1575 49Z" />
  </g>
</svg>