<svg xmlns="http://www.w3.org/2000/svg" viewBox="100 -202 2431 1041">
  <g transform="translate(0, 637) scale(1, -1)">
    <path fill="black" d="M1304 -202Q1300 -155 1289 -112Q1159 26 1071.5 125.0Q984 224 921 286Q899 260 869.5 218.0Q840 176 808.5 129.0Q777 82 749.5 40.0Q722 -2 703 -28L693 -23L712 20Q679 17 625.5 13.5Q572 10 507.5 6.0Q443 2 377.0 -2.0Q311 -6 253.0 -11.0Q195 -16 154.0 -21.5Q113 -27 100 -33Q102 -20 103.0 -5.5Q104 9 104 25Q104 39 103.0 54.0Q102 69 100 83Q111 77 154 72Q152 121 148.5 186.0Q145 251 140.5 320.0Q136 389 131.5 451.0Q127 513 121.5 555.5Q116 598 111 610Q127 608 143.0 606.5Q159 605 175 605Q185 605 194.0 605.5Q203 606 212 607Q211 618 210.5 630.0Q210 642 208 653Q220 647 261.5 641.5Q303 636 361.0 631.0Q419 626 484.0 621.5Q549 617 609.0 613.5Q669 610 712 607Q685 642 671 653Q695 661 722.0 675.0Q749 689 774 707Q774 694 784.0 663.0Q794 632 809.5 590.5Q825 549 844.0 504.0Q863 459 881.0 416.0Q899 373 914 340Q958 383 1019.5 442.0Q1081 501 1151.0 576.0Q1221 651 1287 742Q1300 789 1304 839Q1356 806 1457.5 761.5Q1559 717 1696.5 665.0Q1834 613 1995.5 557.5Q2157 502 2329 447Q2368 483 2409.0 525.0Q2450 567 2487 610L2515 595Q2467 509 2433.0 442.0Q2399 375 2367 322Q2390 283 2431.5 221.5Q2473 160 2531 84L2505 63Q2460 103 2421.5 135.5Q2383 168 2350 196Q2210 152 2076.0 106.5Q1942 61 1821.0 17.5Q1700 -26 1598.5 -66.0Q1497 -106 1421.5 -140.5Q1346 -175 1304 -202ZM1249 5Q1296 7 1356 14L1348 105Q1311 85 1284.0 68.5Q1257 52 1245 41Q1237 82 1224.5 114.0Q1212 146 1195 175H1200Q1223 175 1258.5 181.0Q1294 187 1338 197Q1333 242 1326.0 277.5Q1319 313 1312 328Q1326 326 1341.0 325.0Q1356 324 1370 324Q1384 324 1397.5 325.0Q1411 326 1423 328Q1415 312 1408.5 280.5Q1402 249 1396 211L1449 225Q1444 260 1438.0 287.5Q1432 315 1426 328Q1440 326 1455.0 325.0Q1470 324 1484 324Q1498 324 1511.5 325.0Q1525 326 1537 328Q1530 315 1525.0 293.0Q1520 271 1515 243L1558 256Q1554 281 1549.5 299.5Q1545 318 1540 328Q1554 326 1569.0 325.0Q1584 324 1598 324Q1612 324 1625.5 325.0Q1639 326 1651 328Q1647 320 1643.0 307.0Q1639 294 1636 279Q1672 290 1706.0 300.5Q1740 311 1770 320Q1716 337 1651.0 356.0Q1586 375 1518.5 393.0Q1451 411 1388.5 426.0Q1326 441 1276.5 450.0Q1227 459 1198 459H1195Q1212 488 1224.5 520.5Q1237 553 1245 593Q1262 578 1304.0 554.0Q1346 530 1404.0 501.5Q1462 473 1528.5 443.5Q1595 414 1661.0 386.0Q1727 358 1784 335Q1781 360 1778.0 379.0Q1775 398 1772 405L1789 403Q1792 424 1792 446Q1792 458 1791.0 470.0Q1790 482 1787 495Q1801 489 1841.0 481.5Q1881 474 1932.5 467.0Q1984 460 2031 454L2025 490Q1858 530 1713.5 560.5Q1569 591 1454.5 609.5Q1340 628 1261 631Q1210 533 1163.5 459.5Q1117 386 1082 316Q1108 266 1149.5 186.0Q1191 106 1249 5ZM779 512 726 589Q687 585 631.0 581.0Q575 577 512.5 572.5Q450 568 391.0 563.5Q332 559 287 553Q308 547 351.0 542.0Q394 537 450.0 532.5Q506 528 566.5 524.0Q627 520 682.5 517.0Q738 514 779 512ZM238 529Q249 529 259.5 529.5Q270 530 279 531Q279 536 278.5 541.5Q278 547 277 552Q255 549 238.5 545.5Q222 542 212 539Q212 533 211 530Q218 529 224.5 529.0Q231 529 238 529ZM842 415Q829 434 817.0 453.5Q805 473 792 492Q753 489 698.0 485.0Q643 481 582.0 476.5Q521 472 463.0 467.5Q405 463 360 457Q382 452 426.0 446.5Q470 441 526.0 436.5Q582 432 641.0 428.0Q700 424 752.5 420.5Q805 417 842 415ZM2084 161Q2141 175 2200.5 189.5Q2260 204 2321 220Q2285 249 2253.0 274.5Q2221 300 2190 322Q2210 339 2239.5 364.5Q2269 390 2303 422L2116 468Q2111 432 2105.0 377.0Q2099 322 2094.0 264.5Q2089 207 2084 161ZM310 430Q320 430 330.0 430.5Q340 431 349 432Q349 438 348.5 443.5Q348 449 347 455Q322 452 304.5 449.0Q287 446 278 442Q277 439 277.0 436.0Q277 433 277 431Q285 430 293.5 430.0Q302 430 310 430ZM2063 157Q2059 195 2054.0 243.0Q2049 291 2044.0 339.5Q2039 388 2034 427Q1985 421 1930.5 414.0Q1876 407 1837 400Q1834 388 1830.5 363.5Q1827 339 1823.0 309.0Q1819 279 1816.0 249.0Q1813 219 1810 197Q1838 191 1882.5 183.0Q1927 175 1975.5 168.5Q2024 162 2063 157ZM225 64Q222 109 218.5 169.0Q215 229 210.5 292.5Q206 356 200 409Q196 352 191.5 290.0Q187 228 183.5 170.5Q180 113 176 69Q187 68 199.5 67.0Q212 66 225 64ZM834 323Q842 350 842 363Q856 353 870.5 344.5Q885 336 899 328L853 399Q817 395 763.5 391.0Q710 387 649.0 382.5Q588 378 529.5 373.0Q471 368 426 362Q449 356 496.5 350.0Q544 344 603.5 339.0Q663 334 724.0 330.0Q785 326 834 323ZM1941 200 1933 276Q1905 272 1881.5 268.0Q1858 264 1851 262Q1853 268 1853.0 274.0Q1853 280 1853 285Q1853 294 1852.5 303.0Q1852 312 1851 321Q1859 317 1880.0 313.5Q1901 310 1929 306Q1925 333 1921.0 355.0Q1917 377 1914 384Q1923 383 1932.0 382.5Q1941 382 1950 382Q1955 382 1961.0 382.5Q1967 383 1973 384Q1970 377 1966.5 354.0Q1963 331 1959 302Q1979 299 1999.0 297.5Q2019 296 2035 294V286Q2020 285 1999.0 283.0Q1978 281 1956 279Q1953 257 1951.5 236.0Q1950 215 1949 200ZM389 330Q396 330 403.0 330.0Q410 330 417 331Q417 339 416.5 346.0Q416 353 415 360Q390 357 372.0 353.0Q354 349 346 345Q347 352 348.0 359.5Q349 367 349 375L342 332Q354 331 366.0 330.5Q378 330 389 330ZM293 59Q291 98 287.0 147.0Q283 196 278.0 246.0Q273 296 267 338Q261 266 255.5 191.0Q250 116 245 63ZM1604 54Q1681 69 1768.5 88.0Q1856 107 1950 129Q1896 122 1850.0 114.0Q1804 106 1787 98Q1789 112 1791.0 126.5Q1793 141 1793 155Q1793 179 1787 204Q1789 203 1791.5 202.0Q1794 201 1798 200L1787 306Q1751 292 1710.5 275.0Q1670 258 1628 239Q1621 197 1615.0 147.5Q1609 98 1604 54ZM719 36Q736 75 756.0 121.5Q776 168 794.5 214.5Q813 261 825 297Q772 293 708.0 288.0Q644 283 583.0 277.0Q522 271 476.5 264.5Q431 258 414 250Q414 253 414.5 256.0Q415 259 415 262Q405 216 398.0 159.5Q391 103 385 53Q452 49 517.0 45.5Q582 42 635.5 40.0Q689 38 719 36ZM367 54Q364 91 359.5 132.5Q355 174 349.0 213.5Q343 253 336 284Q329 227 323.5 166.0Q318 105 313 58ZM1487 33 1582 50Q1579 87 1574.5 129.5Q1570 172 1565 211Q1550 204 1535.0 197.5Q1520 191 1505 183Q1500 146 1496.0 106.5Q1492 67 1487 33ZM1373 16 1470 30Q1468 59 1464.5 92.5Q1461 126 1457 160L1385 124Q1381 95 1378.5 67.5Q1376 40 1373 16Z" />
  </g>
</svg>