<svg xmlns="http://www.w3.org/2000/svg" viewBox="100 -202 2431 1041">
  <g transform="translate(0, 637) scale(1, -1)">
    <path fill="black" d="M1304 -202Q1300 -155 1289 -112Q1159 26 1071.5 125.0Q984 224 921 286Q899 260 869.5 218.0Q840 176 808.5 129.0Q777 82 749.5 40.0Q722 -2 703 -28L693 -23L712 20Q679 17 625.5 13.5Q572 10 507.5 6.0Q443 2 377.0 -2.0Q311 -6 253.0 -11.0Q195 -16 154.0 -21.5Q113 -27 100 -33Q102 -20 103.0 -5.5Q104 9 104 25Q104 39 103.0 54.0Q102 69 100 83Q111 77 154 72Q152 121 148.5 186.0Q145 251 140.5 320.0Q136 389 131.5 451.0Q127 513 121.5 555.5Q116 598 111 610Q127 608 143.0 606.5Q159 605 175 605Q185 605 194.0 605.5Q203 606 212 607Q211 618 210.5 630.0Q210 642 208 653Q220 647 261.5 641.5Q303 636 361.0 631.0Q419 626 484.0 621.5Q549 617 609.0 613.5Q669 610 712 607Q685 642 671 653Q695 661 722.0 675.0Q749 689 774 707Q774 694 784.0 663.0Q794 632 809.5 590.5Q825 549 844.0 504.0Q863 459 881.0 416.0Q899 373 914 340Q958 383 1019.5 442.0Q1081 501 1151.0 576.0Q1221 651 1287 742Q1300 789 1304 839Q1356 806 1457.5 761.5Q1559 717 1696.5 665.0Q1834 613 1995.5 557.5Q2157 502 2329 447Q2368 483 2409.0 525.0Q2450 567 2487 610L2515 595Q2467 509 2433.0 442.0Q2399 375 2367 322Q2390 283 2431.5 221.5Q2473 160 2531 84L2505 63Q2460 103 2421.5 135.5Q2383 168 2350 196Q2210 152 2076.0 106.5Q1942 61 1821.0 17.5Q1700 -26 1598.5 -66.0Q1497 -106 1421.5 -140.5Q1346 -175 1304 -202ZM1249 5Q1330 7 1453.5 27.0Q1577 47 1734 81Q1682 77 1633.5 70.0Q1585 63 1562 54Q1564 65 1565.0 75.5Q1566 86 1566 96Q1566 106 1565.0 115.0Q1564 124 1562 134Q1575 129 1593.0 125.0Q1611 121 1632 117Q1631 148 1628.5 183.5Q1626 219 1622 252Q1596 250 1560 246Q1558 229 1557.0 212.0Q1556 195 1554 179H1544L1540 245L1469 238Q1468 223 1466.5 208.0Q1465 193 1464 179H1454L1451 236Q1432 235 1414.0 233.0Q1396 231 1378 229L1374 179H1364L1361 227Q1306 222 1264.5 216.5Q1223 211 1212 206Q1218 232 1218 255Q1218 269 1216.0 283.5Q1214 298 1212 312Q1223 307 1263.5 301.5Q1304 296 1356 291Q1352 336 1346.0 375.0Q1340 414 1332 433Q1343 431 1353.5 430.0Q1364 429 1374 429Q1395 429 1412 433Q1402 410 1395.5 371.0Q1389 332 1384 288L1447 282Q1443 329 1436.5 371.0Q1430 413 1422 433Q1433 431 1443.5 430.0Q1454 429 1464 429Q1485 429 1502 433Q1492 409 1485.0 368.0Q1478 327 1473 280L1538 274Q1534 324 1527.0 368.0Q1520 412 1512 433Q1523 431 1533.5 430.0Q1544 429 1554 429Q1575 429 1592 433Q1582 408 1574.5 364.0Q1567 320 1562 272Q1579 271 1593.5 269.0Q1608 267 1620 265Q1616 297 1611.0 322.5Q1606 348 1601 362Q1612 360 1622.5 359.0Q1633 358 1643 358Q1664 358 1681 362Q1671 338 1664.0 296.5Q1657 255 1652.0 207.0Q1647 159 1643 115Q1681 109 1724.0 104.5Q1767 100 1807 96Q1824 100 1841.5 104.0Q1859 108 1876 112L1868 197Q1844 194 1812.0 189.5Q1780 185 1753.5 181.0Q1727 177 1718 173Q1721 188 1721 202Q1721 214 1718 227Q1726 224 1753.0 219.0Q1780 214 1812.5 210.0Q1845 206 1868 203L1862 261Q1838 258 1807.5 254.0Q1777 250 1752.0 246.0Q1727 242 1718 238Q1721 253 1721 267Q1721 280 1718 293Q1726 289 1751.5 284.0Q1777 279 1807.5 275.0Q1838 271 1862 268L1856 324Q1832 321 1802.5 317.0Q1773 313 1749.5 309.5Q1726 306 1718 303Q1721 317 1721 331Q1721 344 1718 357Q1726 354 1749.5 349.5Q1773 345 1802.0 340.5Q1831 336 1855 333L1849 389Q1825 386 1797.0 382.0Q1769 378 1747.5 374.5Q1726 371 1718 367Q1721 382 1721 396Q1721 409 1718 422Q1725 419 1747.0 414.5Q1769 410 1796.5 406.0Q1824 402 1848 399Q1845 428 1842.0 451.5Q1839 475 1836 491Q1809 488 1765.5 484.5Q1722 481 1671.0 477.0Q1620 473 1568.5 469.0Q1517 465 1472.5 461.0Q1428 457 1397.5 453.0Q1367 449 1358 445Q1360 459 1362.0 473.5Q1364 488 1364 502Q1364 526 1358 551Q1366 548 1396.5 543.5Q1427 539 1471.5 535.0Q1516 531 1567.5 526.5Q1619 522 1670.0 518.0Q1721 514 1764.0 510.5Q1807 507 1834 504L1830 520Q1857 514 1881 514Q1889 514 1897.0 514.5Q1905 515 1913 516Q1701 565 1533.0 596.0Q1365 627 1261 631Q1210 533 1163.5 459.5Q1117 386 1082 316Q1108 266 1149.5 186.0Q1191 106 1249 5ZM779 512 726 589Q687 585 631.0 581.0Q575 577 512.5 572.5Q450 568 391.0 563.5Q332 559 287 553Q308 547 351.0 542.0Q394 537 450.0 532.5Q506 528 566.5 524.0Q627 520 682.5 517.0Q738 514 779 512ZM238 529Q249 529 259.5 529.5Q270 530 279 531Q279 536 278.5 541.5Q278 547 277 552Q255 549 238.5 545.5Q222 542 212 539Q212 533 211 530Q218 529 224.5 529.0Q231 529 238 529ZM1890 115Q1990 138 2098.0 164.5Q2206 191 2321 220Q2285 249 2253.0 274.5Q2221 300 2190 322Q2210 339 2239.5 364.5Q2269 390 2303 422Q2205 447 2112.0 469.5Q2019 492 1933 512Q1929 495 1924.0 459.5Q1919 424 1914.5 377.5Q1910 331 1906.0 282.5Q1902 234 1898.0 190.0Q1894 146 1890 115ZM842 415Q829 434 817.0 453.5Q805 473 792 492Q753 489 698.0 485.0Q643 481 582.0 476.5Q521 472 463.0 467.5Q405 463 360 457Q382 452 426.0 446.5Q470 441 526.0 436.5Q582 432 641.0 428.0Q700 424 752.5 420.5Q805 417 842 415ZM310 430Q320 430 330.0 430.5Q340 431 349 432Q349 438 348.5 443.5Q348 449 347 455Q322 452 304.5 449.0Q287 446 278 442Q277 439 277.0 436.0Q277 433 277 431Q285 430 293.5 430.0Q302 430 310 430ZM225 64Q222 109 218.5 169.0Q215 229 210.5 292.5Q206 356 200 409Q196 352 191.5 290.0Q187 228 183.5 170.5Q180 113 176 69Q187 68 199.5 67.0Q212 66 225 64ZM834 323Q842 350 842 363Q856 353 870.5 344.5Q885 336 899 328L853 399Q817 395 763.5 391.0Q710 387 649.0 382.5Q588 378 529.5 373.0Q471 368 426 362Q449 356 496.5 350.0Q544 344 603.5 339.0Q663 334 724.0 330.0Q785 326 834 323ZM389 330Q396 330 403.0 330.0Q410 330 417 331Q417 339 416.5 346.0Q416 353 415 360Q390 357 372.0 353.0Q354 349 346 345Q347 352 348.0 359.5Q349 367 349 375L342 332Q354 331 366.0 330.5Q378 330 389 330ZM293 59Q291 98 287.0 147.0Q283 196 278.0 246.0Q273 296 267 338Q261 266 255.5 191.0Q250 116 245 63ZM719 36Q736 75 756.0 121.5Q776 168 794.5 214.5Q813 261 825 297Q772 293 708.0 288.0Q644 283 583.0 277.0Q522 271 476.5 264.5Q431 258 414 250Q414 253 414.5 256.0Q415 259 415 262Q405 216 398.0 159.5Q391 103 385 53Q452 49 517.0 45.5Q582 42 635.5 40.0Q689 38 719 36ZM367 54Q364 91 359.5 132.5Q355 174 349.0 213.5Q343 253 336 284Q329 227 323.5 166.0Q318 105 313 58Z" />
  </g>
</svg>