<svg xmlns="http://www.w3.org/2000/svg" viewBox="100 -202 2431 1041">
  <g transform="translate(0, 637) scale(1, -1)">
    <path fill="black" d="M1304 -202Q1300 -155 1289 -112Q1159 26 1071.5 125.0Q984 224 921 286Q899 260 869.5 218.0Q840 176 808.5 129.0Q777 82 749.5 40.0Q722 -2 703 -28L693 -23L712 20Q679 17 625.5 13.5Q572 10 507.5 6.0Q443 2 377.0 -2.0Q311 -6 253.0 -11.0Q195 -16 154.0 -21.5Q113 -27 100 -33Q102 -20 103.0 -5.5Q104 9 104 25Q104 39 103.0 54.0Q102 69 100 83Q111 77 154 72Q152 121 148.5 186.0Q145 251 140.5 320.0Q136 389 131.5 451.0Q127 513 121.5 555.5Q116 598 111 610Q127 608 143.0 606.5Q159 605 175 605Q185 605 194.0 605.5Q203 606 212 607Q211 618 210.5 630.0Q210 642 208 653Q220 647 261.5 641.5Q303 636 361.0 631.0Q419 626 484.0 621.5Q549 617 609.0 613.5Q669 610 712 607Q685 642 671 653Q695 661 722.0 675.0Q749 689 774 707Q774 694 784.0 663.0Q794 632 809.5 590.5Q825 549 844.0 504.0Q863 459 881.0 416.0Q899 373 914 340Q958 383 1019.5 442.0Q1081 501 1151.0 576.0Q1221 651 1287 742Q1300 789 1304 839Q1345 813 1418.0 779.5Q1491 746 1588.5 707.0Q1686 668 1802.5 625.5Q1919 583 2048 539Q2044 575 2041.0 599.5Q2038 624 2035 631Q2064 624 2095 624Q2112 624 2129.0 626.0Q2146 628 2163 631Q2159 621 2155.0 588.0Q2151 555 2146 507L2329 447Q2368 483 2409.0 525.0Q2450 567 2487 610L2515 595Q2467 509 2433.0 442.0Q2399 375 2367 322Q2390 283 2431.5 221.5Q2473 160 2531 84L2505 63Q2460 103 2421.5 135.5Q2383 168 2350 196Q2291 177 2232.0 158.0Q2173 139 2116 120Q2113 83 2110.0 53.0Q2107 23 2105 4H2093Q2091 21 2088.5 48.0Q2086 75 2083 109Q1948 64 1826.0 19.5Q1704 -25 1601.5 -65.5Q1499 -106 1422.5 -140.5Q1346 -175 1304 -202ZM1249 5Q1330 8 1453.5 27.5Q1577 47 1734.5 81.0Q1892 115 2075 159Q2032 153 1979.5 146.0Q1927 139 1876.5 131.0Q1826 123 1787.5 115.5Q1749 108 1733 101Q1736 119 1738.0 136.5Q1740 154 1740 172Q1740 202 1733 230L1742 226Q1739 267 1734.5 313.0Q1730 359 1725.0 395.5Q1720 432 1714 443L1738 441Q1739 449 1739.5 457.0Q1740 465 1740 472Q1740 503 1733 532Q1746 526 1781.0 519.0Q1816 512 1863.0 505.0Q1910 498 1960.0 491.0Q2010 484 2054 479Q2054 481 2053.5 481.5Q2053 482 2053 483Q1880 525 1730.0 557.0Q1580 589 1461.0 608.5Q1342 628 1261 631Q1210 533 1163.5 459.5Q1117 386 1082 316Q1108 266 1149.5 186.0Q1191 106 1249 5ZM779 512 726 589Q687 585 631.0 581.0Q575 577 512.5 572.5Q450 568 391.0 563.5Q332 559 287 553Q308 547 351.0 542.0Q394 537 450.0 532.5Q506 528 566.5 524.0Q627 520 682.5 517.0Q738 514 779 512ZM238 529Q249 529 259.5 529.5Q270 530 279 531Q279 536 278.5 541.5Q278 547 277 552Q255 549 238.5 545.5Q222 542 212 539Q212 533 211 530Q218 529 224.5 529.0Q231 529 238 529ZM842 415Q829 434 817.0 453.5Q805 473 792 492Q753 489 698.0 485.0Q643 481 582.0 476.5Q521 472 463.0 467.5Q405 463 360 457Q382 452 426.0 446.5Q470 441 526.0 436.5Q582 432 641.0 428.0Q700 424 752.5 420.5Q805 417 842 415ZM2120 170Q2169 182 2219.0 194.5Q2269 207 2321 220Q2285 249 2253.0 274.5Q2221 300 2190 322Q2210 339 2239.5 364.5Q2269 390 2303 422L2142 462Q2136 394 2130.5 317.0Q2125 240 2120 170ZM310 430Q320 430 330.0 430.5Q340 431 349 432Q349 438 348.5 443.5Q348 449 347 455Q322 452 304.5 449.0Q287 446 278 442Q277 439 277.0 436.0Q277 433 277 431Q285 430 293.5 430.0Q302 430 310 430ZM2078 172Q2073 239 2067.5 313.0Q2062 387 2056 453Q2013 448 1964.0 441.5Q1915 435 1869.5 429.0Q1824 423 1789 416Q1785 393 1780.5 359.5Q1776 326 1772.0 289.5Q1768 253 1764 221Q1791 215 1830.0 208.0Q1869 201 1913.0 194.5Q1957 188 2000.5 182.0Q2044 176 2078 172ZM1931 196Q1930 215 1927.5 238.5Q1925 262 1922 287Q1887 283 1859.0 278.0Q1831 273 1822 270Q1825 284 1825 297Q1825 308 1824.0 319.5Q1823 331 1822 342Q1831 338 1857.0 333.0Q1883 328 1917 323Q1912 356 1907.0 382.5Q1902 409 1898 418Q1909 417 1920.0 416.5Q1931 416 1942 416Q1949 416 1956.0 416.5Q1963 417 1970 418Q1967 409 1962.5 381.0Q1958 353 1953 318Q1978 315 2002.0 313.0Q2026 311 2045 309V299Q2026 298 2001.0 295.5Q1976 293 1949 290Q1943 234 1941 196ZM225 64Q222 109 218.5 169.0Q215 229 210.5 292.5Q206 356 200 409Q196 352 191.5 290.0Q187 228 183.5 170.5Q180 113 176 69Q187 68 199.5 67.0Q212 66 225 64ZM834 323Q842 350 842 363Q856 353 870.5 344.5Q885 336 899 328L853 399Q817 395 763.5 391.0Q710 387 649.0 382.5Q588 378 529.5 373.0Q471 368 426 362Q449 356 496.5 350.0Q544 344 603.5 339.0Q663 334 724.0 330.0Q785 326 834 323ZM389 330Q396 330 403.0 330.0Q410 330 417 331Q417 339 416.5 346.0Q416 353 415 360Q390 357 372.0 353.0Q354 349 346 345Q347 352 348.0 359.5Q349 367 349 375L342 332Q354 331 366.0 330.5Q378 330 389 330ZM293 59Q291 98 287.0 147.0Q283 196 278.0 246.0Q273 296 267 338Q261 266 255.5 191.0Q250 116 245 63ZM719 36Q736 75 756.0 121.5Q776 168 794.5 214.5Q813 261 825 297Q772 293 708.0 288.0Q644 283 583.0 277.0Q522 271 476.5 264.5Q431 258 414 250Q414 253 414.5 256.0Q415 259 415 262Q405 216 398.0 159.5Q391 103 385 53Q452 49 517.0 45.5Q582 42 635.5 40.0Q689 38 719 36ZM367 54Q364 91 359.5 132.5Q355 174 349.0 213.5Q343 253 336 284Q329 227 323.5 166.0Q318 105 313 58Z" />
  </g>
</svg>