<svg xmlns="http://www.w3.org/2000/svg" viewBox="100 -202 2431 1041">
  <g transform="translate(0, 637) scale(1, -1)">
    <path fill="black" d="M1304 -202Q1300 -155 1289 -112Q1159 26 1071.5 125.0Q984 224 921 286Q899 260 869.5 218.0Q840 176 808.5 129.0Q777 82 749.5 40.0Q722 -2 703 -28L693 -23L712 20Q679 17 625.5 13.5Q572 10 507.5 6.0Q443 2 377.0 -2.0Q311 -6 253.0 -11.0Q195 -16 154.0 -21.5Q113 -27 100 -33Q102 -20 103.0 -5.5Q104 9 104 25Q104 39 103.0 54.0Q102 69 100 83Q111 77 154 72Q152 121 148.5 186.0Q145 251 140.5 320.0Q136 389 131.5 451.0Q127 513 121.5 555.5Q116 598 111 610Q127 608 143.0 606.5Q159 605 175 605Q185 605 194.0 605.5Q203 606 212 607Q211 618 210.5 630.0Q210 642 208 653Q220 647 261.5 641.5Q303 636 361.0 631.0Q419 626 484.0 621.5Q549 617 609.0 613.5Q669 610 712 607Q685 642 671 653Q695 661 722.0 675.0Q749 689 774 707Q774 694 784.0 663.0Q794 632 809.5 590.5Q825 549 844.0 504.0Q863 459 881.0 416.0Q899 373 914 340Q958 383 1019.5 442.0Q1081 501 1151.0 576.0Q1221 651 1287 742Q1300 789 1304 839Q1356 806 1457.5 761.5Q1559 717 1696.5 665.0Q1834 613 1995.5 557.5Q2157 502 2329 447Q2368 483 2409.0 525.0Q2450 567 2487 610L2515 595Q2467 509 2433.0 442.0Q2399 375 2367 322Q2390 283 2431.5 221.5Q2473 160 2531 84L2505 63Q2460 103 2421.5 135.5Q2383 168 2350 196Q2210 152 2076.0 106.5Q1942 61 1821.0 17.5Q1700 -26 1598.5 -66.0Q1497 -106 1421.5 -140.5Q1346 -175 1304 -202ZM1249 5Q1327 8 1444.5 26.5Q1562 45 1711.5 76.5Q1861 108 2035 149L2029 157L2000 183L1997 185Q1971 209 1945.0 232.5Q1919 256 1900.0 272.5Q1881 289 1876 291Q1887 298 1897 308Q1875 305 1853.0 302.0Q1831 299 1808 295L1791 158H1779Q1777 185 1774.0 219.5Q1771 254 1767 289Q1729 282 1696.5 273.5Q1664 265 1643 255Q1645 268 1646.0 282.5Q1647 297 1647 312Q1647 336 1644 361Q1639 310 1633.5 257.5Q1628 205 1623.5 159.5Q1619 114 1615 84H1603Q1600 113 1595.0 158.5Q1590 204 1584.5 258.0Q1579 312 1573.5 365.0Q1568 418 1562 462Q1520 457 1472.5 451.0Q1425 445 1380.5 439.0Q1336 433 1302 426Q1297 404 1291.5 363.5Q1286 323 1281.0 279.0Q1276 235 1272 201Q1299 195 1339.0 188.0Q1379 181 1425.0 174.0Q1471 167 1515.0 161.5Q1559 156 1594 152V140Q1551 134 1497.5 127.0Q1444 120 1391.5 112.0Q1339 104 1299.0 96.5Q1259 89 1243 81Q1246 99 1248.0 116.5Q1250 134 1250 152Q1250 182 1243 210L1254 206Q1251 236 1247.5 273.0Q1244 310 1240.5 345.5Q1237 381 1233.0 407.5Q1229 434 1224 443L1247 441Q1250 462 1250 482Q1250 496 1248.5 511.0Q1247 526 1243 542Q1256 536 1290.0 529.5Q1324 523 1370.0 516.0Q1416 509 1465.5 502.0Q1515 495 1558 490Q1554 516 1551.0 535.0Q1548 554 1545 561Q1574 554 1605 554Q1622 554 1639.0 556.0Q1656 558 1673 561Q1666 545 1659.0 491.5Q1652 438 1645 370Q1662 362 1692.5 354.5Q1723 347 1760 341Q1754 383 1746.5 418.0Q1739 453 1731 469Q1746 467 1761.5 466.0Q1777 465 1792 465Q1807 465 1820.5 466.0Q1834 467 1847 469Q1837 448 1829.0 412.0Q1821 376 1814 333Q1859 327 1905 324Q1899 331 1891.5 337.0Q1884 343 1876 349Q1881 352 1900.0 368.0Q1919 384 1945.5 407.0Q1972 430 1998 454L1997 455Q2001 457 2003 459L2024 478L2033 488Q1864 529 1718.0 559.5Q1572 590 1456.0 609.0Q1340 628 1261 631Q1210 533 1163.5 459.5Q1117 386 1082 316Q1108 266 1149.5 186.0Q1191 106 1249 5ZM779 512 726 589Q687 585 631.0 581.0Q575 577 512.5 572.5Q450 568 391.0 563.5Q332 559 287 553Q308 547 351.0 542.0Q394 537 450.0 532.5Q506 528 566.5 524.0Q627 520 682.5 517.0Q738 514 779 512ZM238 529Q249 529 259.5 529.5Q270 530 279 531Q279 536 278.5 541.5Q278 547 277 552Q255 549 238.5 545.5Q222 542 212 539Q212 533 211 530Q218 529 224.5 529.0Q231 529 238 529ZM842 415Q829 434 817.0 453.5Q805 473 792 492Q753 489 698.0 485.0Q643 481 582.0 476.5Q521 472 463.0 467.5Q405 463 360 457Q382 452 426.0 446.5Q470 441 526.0 436.5Q582 432 641.0 428.0Q700 424 752.5 420.5Q805 417 842 415ZM2053 153Q2118 169 2185.0 185.5Q2252 202 2321 220Q2285 249 2253.0 274.5Q2221 300 2190 322Q2210 339 2239.5 364.5Q2269 390 2303 422L2052 484Q2051 482 2047 478Q2058 464 2074.5 443.0Q2091 422 2110.0 399.0Q2129 376 2145.5 355.5Q2162 335 2171 322Q2161 309 2144.5 287.5Q2128 266 2109.5 242.0Q2091 218 2074.0 196.5Q2057 175 2047 161ZM310 430Q320 430 330.0 430.5Q340 431 349 432Q349 438 348.5 443.5Q348 449 347 455Q322 452 304.5 449.0Q287 446 278 442Q277 439 277.0 436.0Q277 433 277 431Q285 430 293.5 430.0Q302 430 310 430ZM2017 199Q2036 214 2064.0 237.5Q2092 261 2119.0 284.5Q2146 308 2162 322Q2146 336 2119.0 358.5Q2092 381 2064.5 404.0Q2037 427 2018 441Q1990 406 1962.0 371.5Q1934 337 1922 320Q1934 303 1961.5 268.5Q1989 234 2017 199ZM1439 196Q1438 215 1435.5 238.5Q1433 262 1430 287Q1395 283 1367.0 278.0Q1339 273 1330 270Q1333 284 1333 297Q1333 308 1332.0 319.5Q1331 331 1330 342Q1339 338 1365.0 333.0Q1391 328 1425 323Q1420 356 1415.0 382.5Q1410 409 1406 418Q1417 417 1428.0 416.5Q1439 416 1450 416Q1457 416 1464.0 416.5Q1471 417 1478 418Q1475 409 1470.5 381.0Q1466 353 1461 318Q1486 315 1510.0 313.0Q1534 311 1553 309V299Q1534 298 1509.0 295.5Q1484 293 1457 290Q1451 234 1449 196ZM225 64Q222 109 218.5 169.0Q215 229 210.5 292.5Q206 356 200 409Q196 352 191.5 290.0Q187 228 183.5 170.5Q180 113 176 69Q187 68 199.5 67.0Q212 66 225 64ZM834 323Q842 350 842 363Q856 353 870.5 344.5Q885 336 899 328L853 399Q817 395 763.5 391.0Q710 387 649.0 382.5Q588 378 529.5 373.0Q471 368 426 362Q449 356 496.5 350.0Q544 344 603.5 339.0Q663 334 724.0 330.0Q785 326 834 323ZM389 330Q396 330 403.0 330.0Q410 330 417 331Q417 339 416.5 346.0Q416 353 415 360Q390 357 372.0 353.0Q354 349 346 345Q347 352 348.0 359.5Q349 367 349 375L342 332Q354 331 366.0 330.5Q378 330 389 330ZM293 59Q291 98 287.0 147.0Q283 196 278.0 246.0Q273 296 267 338Q261 266 255.5 191.0Q250 116 245 63ZM719 36Q736 75 756.0 121.5Q776 168 794.5 214.5Q813 261 825 297Q772 293 708.0 288.0Q644 283 583.0 277.0Q522 271 476.5 264.5Q431 258 414 250Q414 253 414.5 256.0Q415 259 415 262Q405 216 398.0 159.5Q391 103 385 53Q452 49 517.0 45.5Q582 42 635.5 40.0Q689 38 719 36ZM367 54Q364 91 359.5 132.5Q355 174 349.0 213.5Q343 253 336 284Q329 227 323.5 166.0Q318 105 313 58Z" />
  </g>
</svg>