<svg xmlns="http://www.w3.org/2000/svg" viewBox="100 -202 2431 1041">
  <g transform="translate(0, 637) scale(1, -1)">
    <path fill="black" d="M1304 -202Q1300 -155 1289 -112Q1159 26 1071.5 125.0Q984 224 921 286Q899 260 869.5 218.0Q840 176 808.5 129.0Q777 82 749.5 40.0Q722 -2 703 -28L693 -23L712 20Q679 17 625.5 13.5Q572 10 507.5 6.0Q443 2 377.0 -2.0Q311 -6 253.0 -11.0Q195 -16 154.0 -21.5Q113 -27 100 -33Q102 -20 103.0 -5.5Q104 9 104 25Q104 39 103.0 54.0Q102 69 100 83Q111 77 154 72Q152 121 148.5 186.0Q145 251 140.5 320.0Q136 389 131.5 451.0Q127 513 121.5 555.5Q116 598 111 610Q127 608 143.0 606.5Q159 605 175 605Q185 605 194.0 605.5Q203 606 212 607Q211 618 210.5 630.0Q210 642 208 653Q220 647 261.5 641.5Q303 636 361.0 631.0Q419 626 484.0 621.5Q549 617 609.0 613.5Q669 610 712 607Q685 642 671 653Q695 661 722.0 675.0Q749 689 774 707Q774 694 784.0 663.0Q794 632 809.5 590.5Q825 549 844.0 504.0Q863 459 881.0 416.0Q899 373 914 340Q958 383 1019.5 442.0Q1081 501 1151.0 576.0Q1221 651 1287 742Q1300 789 1304 839Q1356 806 1457.5 761.5Q1559 717 1696.5 665.0Q1834 613 1995.5 557.5Q2157 502 2329 447Q2368 483 2409.0 525.0Q2450 567 2487 610L2515 595Q2467 509 2433.0 442.0Q2399 375 2367 322Q2390 283 2431.5 221.5Q2473 160 2531 84L2505 63Q2460 103 2421.5 135.5Q2383 168 2350 196Q2210 152 2076.0 106.5Q1942 61 1821.0 17.5Q1700 -26 1598.5 -66.0Q1497 -106 1421.5 -140.5Q1346 -175 1304 -202ZM1249 5Q1323 7 1432.5 24.0Q1542 41 1680.5 69.5Q1819 98 1981.0 136.5Q2143 175 2321 220Q2285 249 2253.0 274.5Q2221 300 2190 322Q2210 339 2239.5 364.5Q2269 390 2303 422Q2073 480 1873.0 525.5Q1673 571 1516.5 599.0Q1360 627 1261 631Q1210 533 1163.5 459.5Q1117 386 1082 316Q1108 266 1149.5 186.0Q1191 106 1249 5ZM779 512 726 589Q687 585 631.0 581.0Q575 577 512.5 572.5Q450 568 391.0 563.5Q332 559 287 553Q308 547 351.0 542.0Q394 537 450.0 532.5Q506 528 566.5 524.0Q627 520 682.5 517.0Q738 514 779 512ZM238 529Q249 529 259.5 529.5Q270 530 279 531Q279 536 278.5 541.5Q278 547 277 552Q255 549 238.5 545.5Q222 542 212 539Q212 533 211 530Q218 529 224.5 529.0Q231 529 238 529ZM842 415Q829 434 817.0 453.5Q805 473 792 492Q753 489 698.0 485.0Q643 481 582.0 476.5Q521 472 463.0 467.5Q405 463 360 457Q382 452 426.0 446.5Q470 441 526.0 436.5Q582 432 641.0 428.0Q700 424 752.5 420.5Q805 417 842 415ZM1563 156Q1536 173 1493.0 198.5Q1450 224 1402.0 250.5Q1354 277 1311.5 298.5Q1269 320 1242 327Q1250 338 1257.5 349.0Q1265 360 1270 372Q1273 368 1277.0 364.5Q1281 361 1285 356Q1294 367 1300.5 378.5Q1307 390 1312 402Q1318 395 1327 387Q1335 396 1342.0 407.5Q1349 419 1354 431Q1373 411 1405.0 386.5Q1437 362 1474.0 338.0Q1511 314 1545 292Q1543 296 1540.5 300.0Q1538 304 1535 308Q1563 313 1599.5 325.0Q1636 337 1675.5 353.5Q1715 370 1751 387Q1755 395 1757.5 402.5Q1760 410 1762 419L1742 422L1745 427Q1694 402 1642.5 373.0Q1591 344 1555 313L1545 336Q1526 348 1496.5 363.5Q1467 379 1434.0 394.0Q1401 409 1369 418Q1378 428 1385.0 439.5Q1392 451 1397 463Q1414 445 1438.0 425.5Q1462 406 1488.0 388.5Q1514 371 1534 357Q1532 359 1532 361Q1560 366 1597.0 378.5Q1634 391 1674.5 408.0Q1715 425 1751 442Q1754 450 1756.5 457.5Q1759 465 1761 472Q1791 450 1831.0 428.5Q1871 407 1914.5 388.5Q1958 370 1998 353L1994 344Q1959 358 1918.5 372.5Q1878 387 1838.0 399.5Q1798 412 1766 418Q1796 396 1836.5 374.5Q1877 353 1920.5 334.5Q1964 316 2003 300L2001 291Q1966 305 1923.5 320.5Q1881 336 1840.0 348.5Q1799 361 1767 367Q1796 345 1838.0 323.0Q1880 301 1926.0 281.0Q1972 261 2011 246L2007 235Q1971 250 1927.0 266.5Q1883 283 1840.5 296.5Q1798 310 1765 316Q1794 294 1839.5 271.0Q1885 248 1933.5 227.0Q1982 206 2021 190L2018 180Q1988 192 1951.0 205.5Q1914 219 1876.0 231.5Q1838 244 1804.0 253.5Q1770 263 1747 267Q1697 243 1647.5 215.0Q1598 187 1563 156ZM310 430Q320 430 330.0 430.5Q340 431 349 432Q349 438 348.5 443.5Q348 449 347 455Q322 452 304.5 449.0Q287 446 278 442Q277 439 277.0 436.0Q277 433 277 431Q285 430 293.5 430.0Q302 430 310 430ZM225 64Q222 109 218.5 169.0Q215 229 210.5 292.5Q206 356 200 409Q196 352 191.5 290.0Q187 228 183.5 170.5Q180 113 176 69Q187 68 199.5 67.0Q212 66 225 64ZM834 323Q842 350 842 363Q856 353 870.5 344.5Q885 336 899 328L853 399Q817 395 763.5 391.0Q710 387 649.0 382.5Q588 378 529.5 373.0Q471 368 426 362Q449 356 496.5 350.0Q544 344 603.5 339.0Q663 334 724.0 330.0Q785 326 834 323ZM1551 231Q1548 237 1545.0 243.0Q1542 249 1537 256L1558 260L1553 275Q1500 308 1440.5 339.5Q1381 371 1328 386Q1354 364 1393.5 335.5Q1433 307 1475.5 279.5Q1518 252 1551 231ZM389 330Q396 330 403.0 330.0Q410 330 417 331Q417 339 416.5 346.0Q416 353 415 360Q390 357 372.0 353.0Q354 349 346 345Q347 352 348.0 359.5Q349 367 349 375L342 332Q354 331 366.0 330.5Q378 330 389 330ZM1559 260Q1600 271 1652.0 292.0Q1704 313 1752 335Q1760 350 1764 368L1743 371Q1694 347 1644.0 319.0Q1594 291 1559 260ZM1558 170Q1555 179 1550.5 187.5Q1546 196 1541 204Q1546 205 1551.0 206.0Q1556 207 1561 208L1558 215Q1531 232 1495.0 253.0Q1459 274 1421.0 294.5Q1383 315 1348.0 331.5Q1313 348 1287 355Q1309 336 1344.0 311.0Q1379 286 1418.5 259.5Q1458 233 1495.0 209.5Q1532 186 1558 170ZM293 59Q291 98 287.0 147.0Q283 196 278.0 246.0Q273 296 267 338Q261 266 255.5 191.0Q250 116 245 63ZM1562 208Q1602 218 1653.0 239.0Q1704 260 1751 282Q1755 290 1758.5 298.5Q1762 307 1764 316Q1759 318 1754.0 318.5Q1749 319 1745 320Q1695 295 1646.0 267.0Q1597 239 1562 208ZM719 36Q736 75 756.0 121.5Q776 168 794.5 214.5Q813 261 825 297Q772 293 708.0 288.0Q644 283 583.0 277.0Q522 271 476.5 264.5Q431 258 414 250Q414 253 414.5 256.0Q415 259 415 262Q405 216 398.0 159.5Q391 103 385 53Q452 49 517.0 45.5Q582 42 635.5 40.0Q689 38 719 36ZM367 54Q364 91 359.5 132.5Q355 174 349.0 213.5Q343 253 336 284Q329 227 323.5 166.0Q318 105 313 58Z" />
  </g>
</svg>