<svg xmlns="http://www.w3.org/2000/svg" viewBox="100 -202 2431 1041">
  <g transform="translate(0, 637) scale(1, -1)">
    <path fill="black" d="M1304 -202Q1300 -155 1289 -112Q1159 26 1071.5 125.0Q984 224 921 286Q899 260 869.5 218.0Q840 176 808.5 129.0Q777 82 749.5 40.0Q722 -2 703 -28L693 -23L712 20Q679 17 625.5 13.5Q572 10 507.5 6.0Q443 2 377.0 -2.0Q311 -6 253.0 -11.0Q195 -16 154.0 -21.5Q113 -27 100 -33Q102 -20 103.0 -5.5Q104 9 104 25Q104 39 103.0 54.0Q102 69 100 83Q111 77 154 72Q152 121 148.5 186.0Q145 251 140.5 320.0Q136 389 131.5 451.0Q127 513 121.5 555.5Q116 598 111 610Q127 608 143.0 606.5Q159 605 175 605Q185 605 194.0 605.5Q203 606 212 607Q211 618 210.5 630.0Q210 642 208 653Q220 647 261.5 641.5Q303 636 361.0 631.0Q419 626 484.0 621.5Q549 617 609.0 613.5Q669 610 712 607Q685 642 671 653Q695 661 722.0 675.0Q749 689 774 707Q774 694 784.0 663.0Q794 632 809.5 590.5Q825 549 844.0 504.0Q863 459 881.0 416.0Q899 373 914 340Q958 383 1019.5 442.0Q1081 501 1151.0 576.0Q1221 651 1287 742Q1300 789 1304 839Q1356 806 1457.5 761.5Q1559 717 1696.5 665.0Q1834 613 1995.5 557.5Q2157 502 2329 447Q2368 483 2409.0 525.0Q2450 567 2487 610L2515 595Q2467 509 2433.0 442.0Q2399 375 2367 322Q2390 283 2431.5 221.5Q2473 160 2531 84L2505 63Q2460 103 2421.5 135.5Q2383 168 2350 196Q2210 152 2076.0 106.5Q1942 61 1821.0 17.5Q1700 -26 1598.5 -66.0Q1497 -106 1421.5 -140.5Q1346 -175 1304 -202ZM1249 5Q1329 7 1450.5 27.0Q1572 47 1725 79Q1685 116 1664.0 135.5Q1643 155 1621 171Q1603 169 1585.0 166.5Q1567 164 1548 161Q1545 138 1542.5 115.0Q1540 92 1538 74H1525Q1523 92 1521.0 113.5Q1519 135 1516 157Q1503 155 1491.0 153.5Q1479 152 1467 150Q1464 129 1462.0 109.5Q1460 90 1458 74H1445L1437 145Q1401 139 1373.0 133.0Q1345 127 1333 121Q1336 139 1338.0 156.5Q1340 174 1340 192Q1340 222 1333 250Q1344 246 1369.5 240.0Q1395 234 1428 228Q1420 284 1412 304Q1425 303 1438.0 302.0Q1451 301 1465 301Q1472 301 1478.5 301.5Q1485 302 1492 303V304H1494Q1506 303 1518.5 302.5Q1531 302 1544 302Q1552 302 1559.5 302.5Q1567 303 1574 304Q1570 294 1565.0 267.5Q1560 241 1555 208Q1570 207 1584.5 204.5Q1599 202 1612 200Q1632 216 1658.5 237.0Q1685 258 1730 298L1744 290Q1725 261 1712.0 236.5Q1699 212 1685 188Q1699 165 1712.0 139.5Q1725 114 1744 86L1738 82L1775 89Q1771 132 1766.0 184.0Q1761 236 1756.0 290.0Q1751 344 1746.0 393.0Q1741 442 1736 478Q1700 474 1652.0 468.5Q1604 463 1553.5 457.0Q1503 451 1457.5 445.0Q1412 439 1378.5 433.0Q1345 427 1333 422Q1336 440 1338.0 457.5Q1340 475 1340 493Q1340 523 1333 552Q1345 547 1378.5 541.0Q1412 535 1458.0 528.5Q1504 522 1554.5 516.0Q1605 510 1652.0 504.5Q1699 499 1734 495Q1731 512 1729.0 524.0Q1727 536 1725 541Q1741 537 1756.0 535.0Q1771 533 1786 533Q1806 533 1825 536Q1643 577 1498.5 602.0Q1354 627 1261 631Q1210 533 1163.5 459.5Q1117 386 1082 316Q1108 266 1149.5 186.0Q1191 106 1249 5ZM779 512 726 589Q687 585 631.0 581.0Q575 577 512.5 572.5Q450 568 391.0 563.5Q332 559 287 553Q308 547 351.0 542.0Q394 537 450.0 532.5Q506 528 566.5 524.0Q627 520 682.5 517.0Q738 514 779 512ZM238 529Q249 529 259.5 529.5Q270 530 279 531Q279 536 278.5 541.5Q278 547 277 552Q255 549 238.5 545.5Q222 542 212 539Q212 533 211 530Q218 529 224.5 529.0Q231 529 238 529ZM1804 96Q2037 147 2321 220Q2285 249 2253.0 274.5Q2221 300 2190 322Q2210 339 2239.5 364.5Q2269 390 2303 422Q2181 453 2067.0 480.5Q1953 508 1849 531Q1843 509 1837.5 459.0Q1832 409 1826.0 345.0Q1820 281 1814.5 215.5Q1809 150 1804 96ZM842 415Q829 434 817.0 453.5Q805 473 792 492Q753 489 698.0 485.0Q643 481 582.0 476.5Q521 472 463.0 467.5Q405 463 360 457Q382 452 426.0 446.5Q470 441 526.0 436.5Q582 432 641.0 428.0Q700 424 752.5 420.5Q805 417 842 415ZM310 430Q320 430 330.0 430.5Q340 431 349 432Q349 438 348.5 443.5Q348 449 347 455Q322 452 304.5 449.0Q287 446 278 442Q277 439 277.0 436.0Q277 433 277 431Q285 430 293.5 430.0Q302 430 310 430ZM225 64Q222 109 218.5 169.0Q215 229 210.5 292.5Q206 356 200 409Q196 352 191.5 290.0Q187 228 183.5 170.5Q180 113 176 69Q187 68 199.5 67.0Q212 66 225 64ZM834 323Q842 350 842 363Q856 353 870.5 344.5Q885 336 899 328L853 399Q817 395 763.5 391.0Q710 387 649.0 382.5Q588 378 529.5 373.0Q471 368 426 362Q449 356 496.5 350.0Q544 344 603.5 339.0Q663 334 724.0 330.0Q785 326 834 323ZM389 330Q396 330 403.0 330.0Q410 330 417 331Q417 339 416.5 346.0Q416 353 415 360Q390 357 372.0 353.0Q354 349 346 345Q347 352 348.0 359.5Q349 367 349 375L342 332Q354 331 366.0 330.5Q378 330 389 330ZM293 59Q291 98 287.0 147.0Q283 196 278.0 246.0Q273 296 267 338Q261 266 255.5 191.0Q250 116 245 63ZM1509 215Q1505 244 1501.5 268.0Q1498 292 1493 302Q1489 292 1485.5 270.0Q1482 248 1477 220Q1485 219 1493.0 217.5Q1501 216 1509 215ZM719 36Q736 75 756.0 121.5Q776 168 794.5 214.5Q813 261 825 297Q772 293 708.0 288.0Q644 283 583.0 277.0Q522 271 476.5 264.5Q431 258 414 250Q414 253 414.5 256.0Q415 259 415 262Q405 216 398.0 159.5Q391 103 385 53Q452 49 517.0 45.5Q582 42 635.5 40.0Q689 38 719 36ZM367 54Q364 91 359.5 132.5Q355 174 349.0 213.5Q343 253 336 284Q329 227 323.5 166.0Q318 105 313 58Z" />
  </g>
</svg>