<svg xmlns="http://www.w3.org/2000/svg" viewBox="100 -333 1558 1080">
  <g transform="translate(0, 414) scale(1, -1)">
    <path fill="black" d="M716 -333Q711 -303 705.0 -227.5Q699 -152 694 -57Q671 -60 655.0 -63.0Q639 -66 633 -69Q639 -36 639 5Q639 22 638.0 38.5Q637 55 633 71Q645 66 687 60L675 262Q605 198 554.5 150.0Q504 102 468.0 65.5Q432 29 404.5 -2.5Q377 -34 353.0 -65.0Q329 -96 303 -133Q266 -58 195 4H193Q193 129 177.5 242.5Q162 356 140.5 451.0Q119 546 100 614Q120 610 142.0 607.5Q164 605 186 604L174 609Q246 671 282 747Q308 710 333.0 678.0Q358 646 387.5 613.0Q417 580 455.5 541.5Q494 503 546.5 454.0Q599 405 670 340Q665 422 660.0 478.5Q655 535 650 545Q659 544 669.5 542.5Q680 541 691 540Q697 573 697 613Q697 630 696.0 646.5Q695 663 691 679Q700 675 735.0 669.5Q770 664 820.5 658.0Q871 652 930.0 646.0Q989 640 1048.0 634.5Q1107 629 1156 624Q1152 671 1148.5 702.5Q1145 734 1142 741Q1175 735 1216 735Q1233 735 1249.5 736.0Q1266 737 1282 741Q1279 734 1275.0 700.0Q1271 666 1266.5 612.0Q1262 558 1257.5 491.5Q1253 425 1248 353Q1292 345 1339 341Q1373 370 1419.0 412.0Q1465 454 1516.0 505.0Q1567 556 1614 610L1642 595Q1594 509 1560.0 442.0Q1526 375 1494 322Q1517 283 1558.5 221.5Q1600 160 1658 84L1632 63Q1536 148 1468.5 203.5Q1401 259 1343 302Q1316 300 1291.5 296.5Q1267 293 1244 289Q1240 219 1235.5 151.0Q1231 83 1227.5 25.0Q1224 -33 1221.5 -75.0Q1219 -117 1217 -137H1208Q1205 -120 1202.0 -85.5Q1199 -51 1195 -7Q1156 -12 1100.0 -17.5Q1044 -23 980.5 -28.5Q917 -34 855.0 -39.5Q793 -45 743 -51Q737 -149 732.5 -226.5Q728 -304 725 -333ZM1194 9Q1190 66 1186.0 135.0Q1182 204 1178 276Q1120 263 1066.5 248.0Q1013 233 954 216Q959 239 961.5 265.0Q964 291 964 319Q964 347 961.5 375.0Q959 403 954 428Q1005 414 1058.0 397.5Q1111 381 1173 367Q1169 429 1165.5 486.5Q1162 544 1158 592Q1109 587 1051.5 581.5Q994 576 936.0 570.5Q878 565 827.5 559.5Q777 554 741.0 549.0Q705 544 693 539Q716 538 741.0 539.0Q766 540 790 545Q786 537 781.5 491.5Q777 446 771.5 375.5Q766 305 760.5 221.0Q755 137 750 52Q800 46 861.0 40.0Q922 34 984.5 28.0Q1047 22 1102.0 17.0Q1157 12 1194 9ZM642 320Q521 408 439.0 462.0Q357 516 295 550Q285 509 274.5 464.5Q264 420 255 372Q267 367 307.0 360.5Q347 354 404.0 347.0Q461 340 523.5 333.0Q586 326 642 320ZM218 15Q257 32 298.0 53.5Q339 75 388.5 105.0Q438 135 501.5 178.5Q565 222 649 283Q592 277 529.0 270.5Q466 264 408.0 257.5Q350 251 308.5 245.0Q267 239 255 233Q261 266 261 306Q261 323 260.0 339.0Q259 355 255 371Q241 292 231.0 203.5Q221 115 218 15Z" />
  </g>
</svg>