<svg xmlns="http://www.w3.org/2000/svg" viewBox="100 -196 1082 932">
  <g transform="translate(0, 540) scale(1, -1)">
    <path fill="black" d="M351 -196Q363 -139 363 -85Q363 -31 351 20Q354 19 357.5 18.0Q361 17 364 16Q354 161 345.0 263.5Q336 366 326 442Q255 434 198.0 424.5Q141 415 100 404Q112 461 112 515Q112 569 100 620Q143 608 193.5 598.0Q244 588 303 580Q296 620 286.5 658.0Q277 696 266 736Q317 724 371 724Q425 724 482 736Q471 696 462.0 654.5Q453 613 445 563Q558 552 699.5 541.5Q841 531 1014 520Q1004 579 992.5 630.0Q981 681 966 736Q1017 724 1071 724Q1125 724 1182 736Q1168 686 1157.0 630.5Q1146 575 1137.0 507.0Q1128 439 1121.0 351.5Q1114 264 1108.5 150.0Q1103 36 1099 -112V-113Q951 -117 847.0 -122.5Q743 -128 670.5 -135.0Q598 -142 545.0 -151.0Q492 -160 446.5 -171.0Q401 -182 351 -196ZM1031 402 1020 484Q883 480 760.5 474.0Q638 468 533 460Q565 449 623.0 440.0Q681 431 752.5 423.5Q824 416 897.0 410.5Q970 405 1031 402ZM533 411Q532 434 527 460L488 457Q496 448 507.5 436.5Q519 425 533 411ZM426 413Q444 433 459 455L430 452Q429 443 428.5 433.5Q428 424 426 413ZM1044 276Q1041 305 1038.5 330.5Q1036 356 1033 380Q968 374 893.0 367.5Q818 361 746.0 353.0Q674 345 616 334L640 311Q699 302 770.5 295.0Q842 288 914.0 283.5Q986 279 1044 276ZM532 -28Q533 -18 533.5 -8.5Q534 1 534 11Q534 34 531 59Q530 59 529.0 58.5Q528 58 527 58Q528 61 528.5 64.0Q529 67 529 71Q529 74 528.5 77.5Q528 81 527 85L531 83Q534 107 534 133Q534 158 531 185Q530 185 529.0 184.5Q528 184 527 184Q528 187 528.5 190.0Q529 193 529 197Q529 200 528.5 203.5Q528 207 527 211L531 209Q534 235 534 259Q534 270 533.5 281.0Q533 292 532 303Q498 328 469.5 346.5Q441 365 423 375Q416 302 411.5 211.0Q407 120 402 5Q437 -4 468.0 -12.0Q499 -20 532 -28ZM1054 150Q1052 179 1050.0 205.0Q1048 231 1046 256Q976 249 894.0 242.0Q812 235 735 226L800 167Q867 161 933.5 157.0Q1000 153 1054 150ZM706 177 655 215Q632 211 611.0 207.0Q590 203 572 198Q598 192 632.5 187.0Q667 182 706 177ZM1064 24 1056 129 863 112Q887 90 910.5 69.5Q934 49 956 30Q1013 26 1064 24ZM899 33 802 106Q736 99 676.0 91.0Q616 83 572 72Q610 63 663.5 56.0Q717 49 778.0 43.5Q839 38 899 33ZM1070 -71Q1069 -51 1068.0 -32.5Q1067 -14 1065 3L993 -3Q1016 -24 1036.5 -41.0Q1057 -58 1070 -71ZM1062 -84Q1043 -71 1015.0 -51.0Q987 -31 953 -6Q868 -13 778.5 -22.0Q689 -31 620 -44Q666 -51 726.0 -57.5Q786 -64 868.5 -70.0Q951 -76 1062 -84Z" />
  </g>
</svg>