<svg xmlns="http://www.w3.org/2000/svg" viewBox="100 -196 1032 1032">
  <g transform="translate(0, 640) scale(1, -1)">
    <path fill="black" d="M211 -196Q223 -139 223 -85Q223 -31 211 20Q224 16 236.5 13.0Q249 10 261 6Q253 104 244.0 175.5Q235 247 224.5 303.5Q214 360 201.5 411.5Q189 463 173 520Q153 516 134.5 512.5Q116 509 100 504Q112 561 112 615Q112 669 100 720Q168 701 249.5 687.0Q331 673 432.5 662.0Q534 651 664.0 641.5Q794 632 960 621Q942 742 916 836Q967 824 1021 824Q1075 824 1132 836Q1109 753 1093.0 625.5Q1077 498 1066.5 316.5Q1056 135 1049 -112V-113Q901 -117 788.0 -122.5Q675 -128 589.0 -135.0Q503 -142 436.5 -151.0Q370 -160 315.5 -171.0Q261 -182 211 -196ZM971 532 965 583Q852 579 752.5 574.5Q653 570 566 565Q628 556 708.0 549.5Q788 543 864 538Q882 568 885 579Q907 553 935 534Q944 533 953.5 532.5Q963 532 971 532ZM477 506Q478 518 477.5 531.5Q477 545 475 558L439 555Q443 548 453.0 535.5Q463 523 477 506ZM365 482Q402 510 434 554Q383 550 338.0 545.0Q293 540 253 534Q284 533 316.0 536.0Q348 539 382 546Q378 530 373.5 514.0Q369 498 365 482ZM983 426 974 506Q964 499 944.0 479.5Q924 460 898 431Q921 430 942.5 428.5Q964 427 983 426ZM800 437 839 498Q758 491 676.5 483.0Q595 475 537 464Q587 456 657.0 449.0Q727 442 800 437ZM472 -36Q474 -34 476 -30Q477 -16 477.0 -1.5Q477 13 475 28Q474 28 473.0 27.5Q472 27 471 27L474 45L471 63Q473 61 476 61Q477 69 477.0 76.5Q477 84 477 92Q477 102 477.0 112.0Q477 122 475 132Q474 132 473.0 131.5Q472 131 471 131L473 148Q473 153 472.5 157.0Q472 161 471 165L475 163Q476 172 476.5 181.0Q477 190 477 200Q477 209 476.5 218.5Q476 228 475 238Q474 238 473.0 237.5Q472 237 471 237L473 253Q473 257 472.5 261.0Q472 265 471 269L475 267Q476 276 476.5 285.5Q477 295 477 305Q477 315 476.5 324.0Q476 333 475 343Q474 343 473.0 342.5Q472 342 471 342L473 358Q473 362 472.5 366.0Q472 370 471 374L475 372Q476 375 476.0 378.5Q476 382 476 385Q436 418 406.5 441.0Q377 464 363 471Q349 410 337.5 341.0Q326 272 318.0 188.0Q310 104 304 -4Q344 -14 384.5 -21.5Q425 -29 472 -36ZM992 320Q991 342 989.0 363.0Q987 384 985 403Q959 401 928.5 399.0Q898 397 866 394L811 331Q861 327 908.0 324.5Q955 322 992 320ZM732 337 766 386Q723 382 681.0 378.0Q639 374 601 369L622 347Q648 344 676.0 341.5Q704 339 732 337ZM1000 214 994 299Q947 295 888.5 290.5Q830 286 769 281L729 234L732 231Q804 225 875.5 220.5Q947 216 1000 214ZM645 239 615 266Q593 263 572.0 260.0Q551 257 534 253Q557 249 585.5 246.0Q614 243 645 239ZM1008 110 1002 194Q957 190 900.0 186.0Q843 182 784 177L840 119Q887 116 930.5 114.0Q974 112 1008 110ZM776 124Q762 136 749.0 147.5Q736 159 722 172Q709 171 697.0 169.5Q685 168 673 167Q666 159 659.5 151.0Q653 143 647 135Q678 132 710.5 129.0Q743 126 776 124ZM597 140Q600 145 603.0 150.0Q606 155 610 159Q591 157 573.0 154.0Q555 151 539 148Q552 146 566.5 144.0Q581 142 597 140ZM1015 8 1009 91Q981 88 947.5 85.5Q914 83 877 80L944 11ZM900 13Q884 27 866.0 43.5Q848 60 829 76Q763 71 696.5 65.0Q630 59 576 51Q572 45 569 42Q615 36 671.5 30.5Q728 25 787.0 20.5Q846 16 900 13ZM1020 -67Q1019 -52 1018.0 -38.0Q1017 -24 1016 -10Q1005 -11 993.0 -12.0Q981 -13 969 -14ZM1015 -85Q984 -61 936 -17Q881 -21 818.5 -26.0Q756 -31 695.0 -36.5Q634 -42 583 -50Q662 -58 766.5 -66.5Q871 -75 1015 -85Z" />
  </g>
</svg>