<svg xmlns="http://www.w3.org/2000/svg" viewBox="100 -264 1088 1066">
  <g transform="translate(0, 538) scale(1, -1)">
    <path fill="black" d="M665 -264Q634 -234 586.5 -189.5Q539 -145 484.0 -93.0Q429 -41 371.5 11.0Q314 63 261.0 108.5Q208 154 166.0 186.5Q124 219 100 231Q133 250 160.0 272.5Q187 295 213 327L205 320L189 335Q220 374 262.5 425.5Q305 477 350.5 532.5Q396 588 436.5 640.5Q477 693 506.0 735.5Q535 778 544 802Q590 743 643 710Q696 742 743 802Q752 778 781.0 735.5Q810 693 850.5 640.5Q891 588 936.5 532.5Q982 477 1024.5 425.5Q1067 374 1098 335L1082 320L1079 322Q1105 292 1131.0 270.5Q1157 249 1188 231Q1165 220 1126.5 191.0Q1088 162 1040.0 122.0Q992 82 939.5 35.5Q887 -11 836.0 -58.5Q785 -106 739.5 -148.5Q694 -191 660 -223L681 -249ZM644 -204Q674 -167 716.0 -117.5Q758 -68 805.0 -12.0Q852 44 898.0 99.5Q944 155 981 203Q934 198 873.5 192.5Q813 187 750.0 181.0Q687 175 631.0 169.5Q575 164 535.5 158.5Q496 153 484 148Q487 167 489.5 185.5Q492 204 492 223Q492 239 490.0 255.0Q488 271 484 287Q496 282 538.5 276.0Q581 270 640.5 263.0Q700 256 766.0 249.5Q832 243 893.5 237.5Q955 232 1000 227Q1026 262 1044.0 289.0Q1062 316 1069 332L1011 386Q967 381 905.0 375.0Q843 369 775.0 363.0Q707 357 645.5 351.0Q584 345 540.5 339.0Q497 333 484 328Q487 347 489.5 365.5Q492 384 492 403Q492 419 490.0 435.0Q488 451 484 467Q496 462 536.5 456.0Q577 450 634.0 443.5Q691 437 755.0 430.5Q819 424 880.0 418.5Q941 413 987 408Q943 448 895.5 490.0Q848 532 801.5 570.5Q755 609 714.0 639.5Q673 670 643 688Q605 666 551.5 624.0Q498 582 438.0 531.0Q378 480 320.5 428.0Q263 376 218 333Q225 315 250.0 279.0Q275 243 312.5 195.5Q350 148 393.5 95.0Q437 42 482.5 -12.5Q528 -67 570.0 -116.0Q612 -165 644 -204Z" />
  </g>
</svg>