<svg xmlns="http://www.w3.org/2000/svg" viewBox="100 -167 1633 963">
  <g transform="translate(0, 629) scale(1, -1)">
    <path fill="black" d="M514 -167Q488 -130 461.5 -105.0Q435 -80 401 -58Q403 -56 406.5 -54.5Q410 -53 413 -51Q411 -20 408.0 35.0Q405 90 400.5 159.5Q396 229 391 301Q290 276 213.5 248.0Q137 220 103 193Q106 222 108.5 251.0Q111 280 111 310Q111 338 108.5 366.5Q106 395 100 426Q121 411 165.0 393.5Q209 376 267.5 361.0Q326 346 389 336Q384 412 378.5 479.0Q373 546 368.0 592.0Q363 638 358 649Q375 646 392.0 644.0Q409 642 426 642Q446 642 465 645Q443 661 427.0 672.0Q411 683 401 687Q435 709 461.5 734.0Q488 759 514 796Q521 780 557.0 737.0Q593 694 650.0 633.5Q707 573 775.5 502.0Q844 431 915 358L1223 627Q1215 632 1206.0 637.0Q1197 642 1189 646Q1215 669 1237.0 696.5Q1259 724 1276 763Q1305 723 1351.0 670.0Q1397 617 1465 551L1490 573L1505 564L1485 531Q1535 483 1596.0 428.5Q1657 374 1733 311Q1709 292 1666.0 256.0Q1623 220 1569.0 173.5Q1515 127 1460.0 75.0Q1405 23 1356.5 -28.0Q1308 -79 1276 -123Q1259 -84 1237.0 -56.5Q1215 -29 1189 -6L1215 8L915 271Q844 198 775.5 127.0Q707 56 650.0 -5.0Q593 -66 557.0 -108.5Q521 -151 514 -167ZM546 46Q613 100 696.5 170.5Q780 241 865 314Q794 376 723.5 435.5Q653 495 591.5 545.5Q530 596 484 631Q482 617 479.0 593.0Q476 569 473 538Q489 536 505.5 534.0Q522 532 538 532Q568 532 599 539Q594 528 588.5 488.0Q583 448 577.0 391.0Q571 334 565.0 270.5Q559 207 554.0 148.0Q549 89 546 46ZM1242 22Q1282 44 1326.0 69.5Q1370 95 1423.0 128.5Q1476 162 1544.0 206.5Q1612 251 1701 311L1457 478L1444 454Q1458 429 1472.0 402.0Q1486 375 1505 344L1490 331Q1456 363 1434.5 383.0Q1413 403 1397.0 417.5Q1381 432 1362 445Q1343 414 1329.0 387.5Q1315 361 1301 335Q1315 310 1329.0 283.0Q1343 256 1362 225L1347 212Q1309 248 1286.5 269.0Q1264 290 1246.5 304.5Q1229 319 1205 335Q1222 349 1239.5 363.0Q1257 377 1282.5 398.0Q1308 419 1347 454L1357 447L1348 454Q1362 466 1377.5 478.0Q1393 490 1414 507Q1365 540 1325.5 565.5Q1286 591 1248 613Q1217 580 1171.5 533.0Q1126 486 1071.0 430.0Q1016 374 957 314Q1043 227 1119.0 149.5Q1195 72 1242 22ZM434 -38Q451 -26 474.0 -9.5Q497 7 524 28Q521 65 517.0 119.5Q513 174 507.5 236.0Q502 298 496.0 356.5Q490 415 484.0 460.5Q478 506 472 528Q468 478 463.5 416.0Q459 354 454.5 288.0Q450 222 446.0 160.0Q442 98 439.0 46.5Q436 -5 434 -38ZM1202 92Q1164 128 1141.5 149.0Q1119 170 1101.5 184.5Q1084 199 1060 215Q1081 232 1105.5 251.5Q1130 271 1173 308Q1147 333 1129.5 349.5Q1112 366 1096.5 378.5Q1081 391 1060 405Q1077 419 1094.5 433.0Q1112 447 1137.5 468.0Q1163 489 1202 524L1217 515Q1198 484 1184.0 457.5Q1170 431 1156 405Q1166 387 1175.5 368.0Q1185 349 1196 329L1202 334L1217 325L1207 310Q1209 306 1211.5 302.5Q1214 299 1217 295L1202 282L1195 288L1156 215Q1170 190 1184.0 163.0Q1198 136 1217 105Z" />
  </g>
</svg>