<svg xmlns="http://www.w3.org/2000/svg" viewBox="100 -112 1205 852">
  <g transform="translate(0, 628) scale(1, -1)">
    <path fill="black" d="M621 -112Q587 -89 549.5 -73.5Q512 -58 464 -47L503 -3Q466 25 431.5 50.5Q397 76 371 92Q332 57 294.5 22.5Q257 -12 230.0 -40.0Q203 -68 194 -83Q179 -56 164.5 -26.5Q150 3 124 26Q129 27 138.0 29.5Q147 32 158 36Q149 217 134.5 340.0Q120 463 100 527Q129 520 158 520Q174 520 189.0 522.0Q204 524 219 527Q210 473 203.0 407.5Q196 342 190.5 254.0Q185 166 178 44Q211 58 255.5 78.0Q300 98 343 120Q366 137 389.0 155.5Q412 174 430 199Q436 180 466.5 134.5Q497 89 535 37Q549 57 564.0 80.5Q579 104 595 131Q594 131 593.0 130.5Q592 130 591 130Q595 151 597.0 171.5Q599 192 599 213Q599 233 597.0 255.0Q595 277 591 300Q614 291 660.5 282.5Q707 274 769.5 267.0Q832 260 901.5 254.0Q971 248 1040.5 243.5Q1110 239 1170 236Q1163 320 1156.0 385.0Q1149 450 1140.5 503.0Q1132 556 1122 603Q958 597 808.0 590.0Q658 583 530.5 573.5Q403 564 306.5 551.5Q210 539 153 524Q165 581 165 635Q165 689 153 740Q243 715 382.5 698.5Q522 682 706.5 669.5Q891 657 1113 642Q1108 665 1102.0 688.0Q1096 711 1089 736Q1140 724 1194 724Q1248 724 1305 736Q1288 676 1275.0 607.0Q1262 538 1252.5 448.0Q1243 358 1236 233Q1242 232 1247.5 232.0Q1253 232 1259 232V210L1234 207Q1230 140 1227.0 60.5Q1224 -19 1222 -112H1196Q1190 -18 1184.0 60.0Q1178 138 1173 202Q1111 197 1040.5 191.5Q970 186 899.5 179.5Q829 173 765.5 165.5Q702 158 655 148Q638 81 630.5 30.0Q623 -21 621 -73L627 -80L621 -86Z" />
  </g>
</svg>