<svg xmlns="http://www.w3.org/2000/svg" viewBox="100 -174 2321 1010">
  <g transform="translate(0, 662) scale(1, -1)">
    <path fill="black" d="M2312 -112Q2299 83 2288.5 228.0Q2278 373 2266.5 482.5Q2255 592 2240.5 677.0Q2226 762 2205 836Q2256 824 2310 824Q2364 824 2421 836Q2398 753 2382.0 625.5Q2366 498 2355.5 316.5Q2345 135 2338 -112ZM324 -174Q307 -139 288.0 -115.0Q269 -91 245 -70Q255 -67 270.5 -60.0Q286 -53 305 -43Q257 0 222.0 34.0Q187 68 158.5 96.0Q130 124 100 146Q129 171 183.0 214.5Q237 258 291 314Q226 374 184.0 417.0Q142 460 100 491Q121 509 154.0 536.0Q187 563 226.5 598.0Q266 633 303 673Q265 693 245 699Q269 720 288.0 744.0Q307 768 324 803Q333 787 366.0 754.0Q399 721 448.0 677.5Q497 634 554.5 585.0Q612 536 671.0 488.0Q730 440 782.5 398.0Q835 356 873 327L890 314Q855 287 802.5 245.5Q750 204 689.5 154.5Q629 105 568.5 54.0Q508 3 456.0 -43.0Q404 -89 369.0 -123.5Q334 -158 324 -174ZM1078 -139Q1014 -41 925 14Q983 47 1033.5 80.5Q1084 114 1142 160Q1116 183 1092.0 203.5Q1068 224 1046 242Q1005 188 974.5 139.0Q944 90 914 34Q850 132 761 187Q813 216 859.0 246.5Q905 277 955 315Q905 353 859.0 383.0Q813 413 761 443Q850 499 914 596Q944 541 975.0 491.5Q1006 442 1046 388L1142 469Q1084 515 1033.5 549.0Q983 583 925 616Q1014 672 1078 769Q1110 708 1144.5 655.0Q1179 602 1225 541L1428 719L1446 701Q1392 642 1346.0 591.0Q1300 540 1261 496Q1286 466 1315.0 432.0Q1344 398 1378 358L1592 546L1598 539Q1601 586 1592 642Q1619 631 1669.5 621.5Q1720 612 1783.5 604.5Q1847 597 1914.0 591.5Q1981 586 2042 583Q2077 622 2113.5 666.0Q2150 710 2184 758L2205 748Q2161 650 2118.0 575.5Q2075 501 2037.5 439.5Q2000 378 1970 319Q2002 256 2061.0 145.0Q2120 34 2205 -104L2186 -119L2036 43Q1975 37 1910.5 31.0Q1846 25 1785.5 17.0Q1725 9 1675.0 -1.0Q1625 -11 1592 -24Q1596 -6 1597.5 12.0Q1599 30 1599 49Q1599 59 1598.5 69.0Q1598 79 1597 89L1592 84L1378 271Q1343 232 1314.0 198.0Q1285 164 1260 133Q1300 90 1345.5 39.0Q1391 -12 1446 -71L1428 -89Q1370 -37 1319.5 7.0Q1269 51 1225 88Q1179 27 1144.5 -25.5Q1110 -78 1078 -139ZM332 -28Q376 -4 430.5 30.5Q485 65 544.0 103.5Q603 142 660.5 181.0Q718 220 768.0 254.5Q818 289 854 314Q819 339 768.5 373.5Q718 408 660.0 447.5Q602 487 542.0 526.0Q482 565 427.0 599.5Q372 634 329 659Q300 605 282.0 565.5Q264 526 242 491Q262 459 278.0 424.0Q294 389 318 344Q319 346 323 350L343 339L331 318L343 298L323 286Q321 287 317 291Q294 246 277.5 212.0Q261 178 242 146Q264 109 282.5 68.5Q301 28 332 -28ZM2011 71 1888 206Q1797 196 1722.0 182.5Q1647 169 1592 146Q1599 181 1599 221Q1599 239 1597.5 258.5Q1596 278 1592 299Q1633 283 1700.5 269.5Q1768 256 1849 248Q1830 269 1812.0 286.5Q1794 304 1778 319L1833 373Q1760 363 1699.0 350.5Q1638 338 1592 319Q1599 354 1599 394Q1599 412 1597.5 431.5Q1596 451 1592 472Q1636 454 1713.0 440.5Q1790 427 1881 419Q1912 448 1946.5 482.0Q1981 516 2017 555Q1938 548 1855.5 539.0Q1773 530 1703.5 518.0Q1634 506 1592 489L1595 512Q1543 456 1499.0 406.5Q1455 357 1417 315L1593 120Q1593 122 1592.5 124.5Q1592 127 1592 129Q1618 119 1664.0 110.0Q1710 101 1768.0 93.5Q1826 86 1889.0 80.5Q1952 75 2011 71ZM1198 204Q1227 227 1259.0 255.0Q1291 283 1328 315Q1291 347 1258.5 374.5Q1226 402 1197 425Q1171 395 1147.5 367.5Q1124 340 1104 315Q1124 290 1147.5 262.5Q1171 235 1198 204Z" />
  </g>
</svg>