<svg xmlns="http://www.w3.org/2000/svg" viewBox="100 -462 1216 1588">
  <g transform="translate(0, 664) scale(1, -1)">
    <path fill="black" d="M1195 -462Q1195 -407 1194.0 -356.5Q1193 -306 1191 -258Q1045 -259 929.0 -276.0Q813 -293 728.5 -314.5Q644 -336 590 -353Q595 -333 597.5 -312.0Q600 -291 601 -270Q434 -283 310.0 -306.0Q186 -329 100 -353Q112 -302 112 -248Q112 -194 100 -137Q186 -160 309.5 -183.0Q433 -206 601 -219Q600 -199 597.5 -178.5Q595 -158 590 -137Q644 -154 728.5 -175.5Q813 -197 928.5 -213.5Q1044 -230 1189 -232Q1179 -19 1153.5 133.5Q1128 286 1100 386Q1123 381 1146.5 377.5Q1170 374 1194 374L1191 482Q1045 480 929.0 463.5Q813 447 728.5 425.5Q644 404 590 387Q595 407 597.5 427.5Q600 448 601 469Q434 456 310.0 433.0Q186 410 100 387Q112 438 112 492Q112 546 100 603Q186 579 309.5 556.5Q433 534 601 520Q600 540 597.5 561.0Q595 582 590 603Q644 586 728.5 564.5Q813 543 928.5 526.5Q1044 510 1189 508Q1179 721 1153.5 873.5Q1128 1026 1100 1126Q1151 1114 1205 1114Q1259 1114 1316 1126Q1284 1011 1255.5 826.5Q1227 642 1222 374Q1268 376 1316 386Q1293 303 1271.0 183.5Q1249 64 1235.0 -96.0Q1221 -256 1221 -462ZM1041 657Q986 706 944.5 740.5Q903 775 868 803Q737 831 632.5 845.0Q528 859 445.0 864.5Q362 870 292 870Q220 870 155 867Q201 960 203 1077Q254 1050 312.0 1021.5Q370 993 442.0 963.5Q514 934 606.0 903.5Q698 873 817 843Q839 862 874.0 893.5Q909 925 950.0 965.0Q991 1005 1028 1048L1048 1037Q1014 976 989.5 928.0Q965 880 942 842Q959 814 988.5 770.0Q1018 726 1059 672ZM1041 -83Q986 -34 944.5 0.5Q903 35 868 63Q737 91 632.5 105.0Q528 119 445.0 124.5Q362 130 292 130Q220 130 155 127Q201 220 203 337Q254 310 312.0 281.5Q370 253 442.0 223.5Q514 194 606.0 163.5Q698 133 817 103Q839 122 874.0 153.5Q909 185 950.0 225.0Q991 265 1028 308L1048 297Q1014 236 989.5 188.0Q965 140 942 102Q959 74 988.5 30.0Q1018 -14 1059 -68Z" />
  </g>
</svg>