<svg xmlns="http://www.w3.org/2000/svg" viewBox="100 -249 1216 1073">
  <g transform="translate(0, 575) scale(1, -1)">
    <path fill="black" d="M1041 267Q986 316 944.5 350.5Q903 385 868 413Q737 441 632.5 455.0Q528 469 445.0 474.5Q362 480 292 480Q220 480 155 477Q201 570 203 687Q265 653 339.0 617.5Q413 582 513 545Q484 573 463.5 592.0Q443 611 423.0 626.5Q403 642 377 659Q400 678 424.5 697.5Q449 717 484.0 746.5Q519 776 573 824L594 811Q567 768 548.0 732.0Q529 696 509 659Q528 627 545.5 593.0Q563 559 586 520Q636 504 693.0 487.0Q750 470 816 453L875 504Q840 536 816.0 559.0Q792 582 773.0 598.5Q754 615 736.0 629.5Q718 644 694 659Q717 678 741.5 697.5Q766 717 801.0 746.5Q836 776 890 824L911 811Q884 768 865.0 732.0Q846 696 826 659Q844 628 860.5 595.5Q877 563 899 527Q930 556 963.5 589.5Q997 623 1028 659L1048 648Q1014 586 989.5 538.0Q965 490 942 452Q959 424 988.5 379.5Q1018 335 1059 282ZM573 -249Q533 -213 506.5 -188.0Q480 -163 460.0 -145.0Q440 -127 421.0 -112.0Q402 -97 377 -81Q399 -63 423.0 -44.0Q447 -25 480.5 3.0Q514 31 564 76Q410 63 295.5 41.0Q181 19 100 -3Q112 48 112 102Q112 156 100 213Q186 189 309.5 166.5Q433 144 601 130Q600 150 597.5 171.0Q595 192 590 213Q644 196 728.5 174.5Q813 153 928.5 136.5Q1044 120 1189 118Q1179 331 1153.5 483.5Q1128 636 1100 736Q1151 724 1205 724Q1259 724 1316 736Q1293 653 1271.0 533.5Q1249 414 1235.0 254.0Q1221 94 1221 -112H1195Q1195 -57 1194.0 -6.5Q1193 44 1191 92Q1112 91 1042.0 85.0Q972 79 910 70Q883 28 864.5 -8.0Q846 -44 826 -81Q846 -115 865.0 -152.0Q884 -189 911 -232L890 -249Q850 -213 823.5 -188.0Q797 -163 777.0 -145.0Q757 -127 738.0 -112.0Q719 -97 694 -81Q715 -63 737.5 -45.0Q760 -27 791.0 -1.5Q822 24 868 64Q776 49 706.5 30.0Q637 11 590 -3Q595 17 597.5 37.5Q600 58 601 79Q597 79 592.5 78.5Q588 78 583 78L594 71Q567 28 548.0 -8.0Q529 -44 509 -81Q529 -115 548.0 -152.0Q567 -189 594 -232Z" />
  </g>
</svg>