<svg xmlns="http://www.w3.org/2000/svg" viewBox="100 -280 2099 1215">
  <g transform="translate(0, 655) scale(1, -1)">
    <path fill="black" d="M892 -280Q871 -225 841.5 -179.5Q812 -134 775 -97Q825 -82 880 -61Q821 -7 780.5 34.0Q740 75 702 106Q657 102 603.0 97.0Q549 92 490 85Q486 44 482.0 7.5Q478 -29 475 -54H465Q462 -31 458.5 4.5Q455 40 451 80Q433 78 415.0 75.5Q397 73 379 70Q375 33 371.5 1.0Q368 -31 365 -54H355L342 65L257 51L245 -54H235L224 44Q191 38 159.5 31.0Q128 24 100 16Q112 67 112 121Q112 175 100 232Q125 225 152.0 217.5Q179 210 207 204Q201 249 196.0 283.0Q191 317 186 327Q212 321 235 321Q249 321 264.0 323.0Q279 325 293 327Q288 315 282.5 278.0Q277 241 272 192Q286 189 300.5 186.0Q315 183 329 181Q323 234 317.0 274.5Q311 315 306 327Q332 321 355 321Q369 321 384.0 323.0Q399 325 413 327Q408 314 401.5 271.0Q395 228 389 172L441 165Q434 222 427.5 268.0Q421 314 416 327Q442 321 465 321Q479 321 494.0 323.0Q509 325 523 327Q517 314 510.5 265.5Q504 217 498 158Q554 152 607.5 147.5Q661 143 707 140Q745 171 798.5 216.5Q852 262 903 318Q836 377 792.5 422.0Q749 467 709 500Q618 489 515.5 468.5Q413 448 300 416Q312 467 312 521Q312 575 300 632Q417 597 516.5 575.5Q616 554 713 544Q749 573 798.5 616.0Q848 659 896 710Q864 723 834.0 733.0Q804 743 775 752Q812 789 841.5 834.5Q871 880 892 935Q977 841 1168.0 695.5Q1359 550 1669 347Q1671 362 1672.5 377.0Q1674 392 1674 408Q1674 437 1668 470Q1679 465 1710.5 458.5Q1742 452 1786.0 445.5Q1830 439 1878.5 432.5Q1927 426 1972.5 420.5Q2018 415 2053 411Q2050 454 2047.0 491.0Q2044 528 2041 561Q1995 554 1937.0 545.0Q1879 536 1823.0 526.5Q1767 517 1724.5 508.5Q1682 500 1667 493Q1673 526 1673 568Q1673 585 1672.0 601.5Q1671 618 1667 634Q1678 629 1708.0 623.0Q1738 617 1779.5 610.5Q1821 604 1867.5 597.5Q1914 591 1959.0 585.5Q2004 580 2040 576Q2036 614 2032.0 647.5Q2028 681 2023 711Q1976 704 1920.5 697.5Q1865 691 1812.5 684.0Q1760 677 1721.0 670.5Q1682 664 1667 657Q1673 690 1673 725Q1673 740 1672.0 755.5Q1671 771 1667 787Q1680 781 1718.5 774.0Q1757 767 1810.0 759.0Q1863 751 1918.5 743.5Q1974 736 2020 731Q2013 773 2003.5 812.5Q1994 852 1983 894Q2034 882 2088 882Q2142 882 2199 894Q2183 840 2171.0 789.0Q2159 738 2150.0 681.5Q2141 625 2134.0 555.0Q2127 485 2121 393Q2141 394 2160.0 397.0Q2179 400 2199 404Q2185 357 2174.0 322.0Q2163 287 2154.0 255.0Q2145 223 2138.5 184.5Q2132 146 2126.0 92.0Q2120 38 2115.0 -41.0Q2110 -120 2105 -233H2072Q2068 -183 2065.5 -141.0Q2063 -99 2060 -63Q2024 -69 1978.0 -75.0Q1932 -81 1883.0 -87.0Q1834 -93 1790.0 -99.0Q1746 -105 1713.5 -111.0Q1681 -117 1668 -123Q1674 -90 1674 -55Q1674 -40 1673.0 -24.5Q1672 -9 1668 7Q1679 2 1711.5 -4.5Q1744 -11 1789.0 -17.5Q1834 -24 1883.5 -31.0Q1933 -38 1979.0 -43.5Q2025 -49 2059 -52Q2053 34 2047 92Q2001 85 1943.0 77.5Q1885 70 1827.5 63.0Q1770 56 1727.0 48.5Q1684 41 1668 34Q1674 67 1674 102Q1674 117 1673.0 132.5Q1672 148 1668 164Q1679 159 1709.5 153.0Q1740 147 1782.5 140.0Q1825 133 1872.5 127.0Q1920 121 1965.0 115.5Q2010 110 2046 106Q2037 189 2026 242Q1979 235 1923.5 228.0Q1868 221 1815.0 214.5Q1762 208 1722.5 201.0Q1683 194 1668 187Q1671 204 1673.0 221.0Q1675 238 1675 255Q1675 283 1669 313Q1359 110 1168.0 -37.5Q977 -185 892 -280ZM920 -46Q1005 -13 1108.0 36.5Q1211 86 1343.5 157.0Q1476 228 1646 327Q1477 426 1346.0 496.5Q1215 567 1113.0 616.0Q1011 665 927 698L823 520Q847 479 873.0 434.0Q899 389 936 324L940 322Q939 321 939 320Q939 318 940 318L936 316Q899 251 873.0 206.0Q847 161 823 120ZM2055 393Q2055 395 2054.5 396.5Q2054 398 2054 399L2030 395Q2036 394 2042.5 393.5Q2049 393 2055 393ZM2021 261Q2014 290 2006.0 320.0Q1998 350 1987 389Q1944 383 1896.5 377.5Q1849 372 1805.0 366.0Q1761 360 1727.0 354.5Q1693 349 1675 343L1695 330L1672 315Q1689 309 1728.0 302.0Q1767 295 1818.5 287.5Q1870 280 1923.5 273.0Q1977 266 2021 261Z" />
  </g>
</svg>