<svg xmlns="http://www.w3.org/2000/svg" viewBox="100 -122 2157 877">
  <g transform="translate(0, 633) scale(1, -1)">
    <path fill="black" d="M508 -122Q358 39 262.0 147.5Q166 256 100 316Q142 359 209.0 422.0Q276 485 354.5 568.5Q433 652 506 755L527 745Q483 647 440.0 572.5Q397 498 359.5 436.5Q322 375 292 316Q324 253 383.0 142.0Q442 31 527 -107ZM1095 -95Q1106 -39 1107 9Q1005 5 930.0 -0.5Q855 -6 798.5 -12.5Q742 -19 697.5 -27.5Q653 -36 613.0 -46.0Q573 -56 530 -68Q542 -9 542 42Q542 62 540.5 82.0Q539 102 535 122Q534 122 533.0 121.5Q532 121 530 121L533 135L530 149L535 147Q539 170 541.0 191.0Q543 212 543 232Q543 269 537 303Q531 301 530 301L533 320L530 336L536 334Q542 375 542 411Q542 433 540.0 453.5Q538 474 534 495Q533 495 532.0 494.5Q531 494 530 494L532 506L530 517Q531 516 534 516Q538 540 540.0 562.5Q542 585 542 607Q542 659 530 710Q582 696 623.0 684.5Q664 673 706.5 663.5Q749 654 802.0 646.0Q855 638 928.5 630.5Q1002 623 1108 615Q1108 675 1095 728Q1139 716 1168.0 706.0Q1197 696 1219.5 687.5Q1242 679 1266.0 671.5Q1290 664 1325.0 657.5Q1360 651 1413.5 644.0Q1467 637 1547.0 630.5Q1627 624 1743 616V590Q1626 587 1543.5 582.5Q1461 578 1405.5 573.0Q1350 568 1312.5 562.0Q1275 556 1247.5 549.0Q1220 542 1194.5 533.0Q1169 524 1137 514Q1175 502 1200.5 492.0Q1226 482 1250.5 473.5Q1275 465 1309.0 458.0Q1343 451 1396.5 443.5Q1450 436 1534.0 429.0Q1618 422 1743 414V388Q1630 385 1549.5 381.0Q1469 377 1413.0 372.0Q1357 367 1319.5 361.5Q1282 356 1254.5 349.0Q1227 342 1202.5 334.0Q1178 326 1149 316Q1184 305 1208.0 295.5Q1232 286 1256.5 278.0Q1281 270 1315.0 263.0Q1349 256 1402.5 249.0Q1456 242 1538.5 235.0Q1621 228 1743 220V193Q1626 190 1544.0 186.0Q1462 182 1406.0 177.0Q1350 172 1312.5 166.5Q1275 161 1247.5 153.5Q1220 146 1194.5 137.5Q1169 129 1137 119Q1175 107 1200.5 97.0Q1226 87 1250.5 78.5Q1275 70 1309.0 63.0Q1343 56 1396.5 48.5Q1450 41 1534.0 34.0Q1618 27 1743 19V-9Q1614 -12 1527.0 -16.5Q1440 -21 1384.0 -26.5Q1328 -32 1291.0 -39.0Q1254 -46 1226.0 -54.5Q1198 -63 1168.5 -73.0Q1139 -83 1095 -95ZM1108 422Q1108 443 1106.0 463.5Q1104 484 1100 503Q1099 503 1097.5 502.5Q1096 502 1095 502L1097 515L1095 527L1099 525Q1101 537 1102.5 548.5Q1104 560 1105 571Q991 566 910.0 559.5Q829 553 770.0 545.0Q711 537 664.5 527.0Q618 517 572 505Q614 493 651.5 483.5Q689 474 729.0 465.5Q769 457 820.5 450.0Q872 443 941.5 436.0Q1011 429 1108 422ZM1745 183Q1752 211 1755.0 240.0Q1758 269 1758 299Q1758 360 1745 421Q1852 379 1984.0 350.5Q2116 322 2257 317V287Q2136 280 2004.5 256.0Q1873 232 1745 183ZM1108 241Q1107 257 1105.5 272.0Q1104 287 1101 302Q1097 300 1095 300L1098 317L1095 333L1100 331Q1104 355 1106 378Q998 374 920.5 368.0Q843 362 785.5 354.5Q728 347 682.5 338.0Q637 329 594 318Q642 305 686.0 294.0Q730 283 784.5 274.5Q839 266 916.5 258.0Q994 250 1108 241ZM1106 53Q1105 81 1100 108Q1099 108 1098.0 107.5Q1097 107 1095 107L1097 120L1095 132L1099 130Q1102 147 1104.0 164.0Q1106 181 1107 197Q995 192 915.5 186.0Q836 180 777.5 172.5Q719 165 672.5 155.5Q626 146 581 134Q621 123 657.5 113.5Q694 104 734.0 96.0Q774 88 824.5 81.0Q875 74 943.5 67.0Q1012 60 1106 53Z" />
  </g>
</svg>