<svg xmlns="http://www.w3.org/2000/svg" viewBox="100 -127 1342 1051">
  <g transform="translate(0, 797) scale(1, -1)">
    <path fill="black" d="M904 -127Q837 -69 788.5 -21.5Q740 26 701.5 64.0Q663 102 624 132Q507 120 413.0 106.5Q319 93 242.5 75.5Q166 58 100 31Q110 81 110 136Q110 189 100 246Q182 212 317.5 190.0Q453 168 622 159Q653 185 696.0 221.0Q739 257 788.0 301.0Q837 345 884 396Q824 450 778.5 494.0Q733 538 696.5 574.5Q660 611 623 639Q507 627 413.0 613.5Q319 600 242.5 582.5Q166 565 100 538Q110 588 110 643Q110 696 100 753Q182 719 318.0 697.0Q454 675 623 666Q656 694 703.0 733.0Q750 772 802.5 820.5Q855 869 904 924L932 908Q883 823 844.0 764.0Q805 705 773 652Q804 600 842.0 543.5Q880 487 927 405L932 402L930 399L932 396L927 393Q880 311 842.0 254.5Q804 198 773 146Q805 93 844.0 34.5Q883 -24 932 -110ZM1074 -126Q1002 -63 951.0 -13.0Q900 37 859.0 76.5Q818 116 776 146Q805 171 850.5 208.5Q896 246 949.5 293.5Q1003 341 1054 396Q989 454 941.5 501.0Q894 548 855.0 585.5Q816 623 776 652Q807 679 856.5 719.5Q906 760 963.0 812.0Q1020 864 1074 924L1102 908Q1053 823 1014.0 764.0Q975 705 943 652Q974 600 1012.0 543.5Q1050 487 1097 405L1102 402L1100 399L1102 396L1097 393Q1050 311 1012.0 254.5Q974 198 943 146Q975 93 1014.0 34.5Q1053 -24 1102 -110ZM1244 -127Q1172 -64 1121.0 -14.0Q1070 36 1029.0 76.0Q988 116 946 146Q975 171 1020.5 208.5Q1066 246 1119.5 293.5Q1173 341 1224 396Q1159 454 1111.5 501.0Q1064 548 1025.0 585.5Q986 623 946 652Q977 679 1026.5 719.5Q1076 760 1133.5 812.0Q1191 864 1244 924L1272 908Q1223 823 1184.0 764.0Q1145 705 1113 652Q1144 600 1182.0 543.5Q1220 487 1267 405L1272 402L1270 399L1272 396L1267 393Q1220 311 1182.0 254.5Q1144 198 1113 146Q1145 93 1184.0 34.5Q1223 -24 1272 -110ZM1414 -127Q1342 -64 1291.0 -14.0Q1240 36 1199.0 76.0Q1158 116 1116 146Q1145 171 1190.5 208.5Q1236 246 1289.5 293.5Q1343 341 1394 396Q1329 454 1281.5 501.0Q1234 548 1195.0 585.5Q1156 623 1116 652Q1147 679 1196.5 719.5Q1246 760 1303.5 812.0Q1361 864 1414 924L1442 908Q1393 823 1354.0 764.0Q1315 705 1283 652Q1314 600 1352.0 543.5Q1390 487 1437 405L1442 402L1440 399L1442 396L1437 393Q1390 311 1352.0 254.5Q1314 198 1283 146Q1315 93 1354.0 34.5Q1393 -24 1442 -110Z" />
  </g>
</svg>