<svg xmlns="http://www.w3.org/2000/svg" viewBox="100 -56 1011 875">
  <g transform="translate(0, 763) scale(1, -1)">
    <path fill="black" d="M273 -56 267 -50Q282 -31 299.5 -9.0Q317 13 335 37Q286 72 241.0 103.0Q196 134 160.0 156.5Q124 179 101 187H100Q118 213 144.0 252.0Q170 291 199.5 334.0Q229 377 256.5 419.0Q284 461 304.5 494.5Q325 528 334 546Q300 573 265.5 603.0Q231 633 199.5 659.5Q168 686 143.5 704.5Q119 723 105 728Q130 746 153.5 767.5Q177 789 196 819Q201 807 216.5 780.5Q232 754 254.0 718.5Q276 683 301.5 644.5Q327 606 352.5 570.5Q378 535 400 508Q402 524 403.5 539.5Q405 555 405 571Q405 592 403.0 614.0Q401 636 397 660Q428 647 489 638Q485 661 482.0 677.5Q479 694 476 701Q489 697 501.5 696.0Q514 695 527 695Q540 695 552.0 696.0Q564 697 576 699V701Q577 701 577.5 700.5Q578 700 579 700Q580 700 581.0 700.5Q582 701 583 701Q583 700 582.5 700.0Q582 700 582 699Q594 697 605.5 696.0Q617 695 628 695Q640 695 652.0 696.0Q664 697 676 699V701Q677 701 677.5 700.5Q678 700 679 700Q680 700 681.0 700.5Q682 701 683 701Q683 700 682.5 700.0Q682 700 682 699Q694 697 705.5 696.0Q717 695 728 695Q740 695 752.0 696.0Q764 697 776 699V701Q777 701 777.5 700.5Q778 700 779 700Q780 700 781.0 700.5Q782 701 783 701Q783 700 782.5 700.0Q782 700 782 699Q802 695 824 695Q853 695 883 701Q879 691 875.0 664.5Q871 638 866 601L936 596Q924 645 913.0 678.5Q902 712 895 736Q946 724 1000 724Q1054 724 1111 736Q1101 706 1088.5 662.5Q1076 619 1063.5 550.5Q1051 482 1041.5 379.5Q1032 277 1028 128H1002Q999 169 996.0 205.5Q993 242 989 276Q930 271 860.5 265.0Q791 259 720.0 252.5Q649 246 585.0 238.0Q521 230 471 220Q489 195 511.0 176.0Q533 157 555 140Q538 134 506.0 112.5Q474 91 434.0 61.5Q394 32 352.0 1.0Q310 -30 273 -56ZM793 606Q785 663 779 689Q776 676 773.0 655.0Q770 634 766 608Q773 607 779.5 606.5Q786 606 793 606ZM692 614Q689 638 685.5 657.5Q682 677 679 689Q677 678 673.5 659.0Q670 640 667 616ZM591 624Q588 645 585.0 662.0Q582 679 579 689Q577 679 574.0 663.0Q571 647 569 627ZM986 304Q977 387 966.0 450.5Q955 514 944 562Q924 561 903.0 559.0Q882 557 860 555Q856 513 851.5 468.5Q847 424 843.0 385.0Q839 346 835 320H825Q822 345 818.0 382.5Q814 420 809.5 464.0Q805 508 800 550L760 547Q756 506 751.5 463.0Q747 420 743.0 382.5Q739 345 735 320Q802 314 867.0 310.0Q932 306 986 304ZM725 321Q721 356 715.0 418.0Q709 480 701 541L658 537Q652 481 646.5 424.0Q641 367 636 329Q658 327 680.5 325.0Q703 323 725 321ZM623 331Q619 366 614.0 420.5Q609 475 602 530L557 525Q552 475 547.0 425.5Q542 376 537 341Q557 338 579.0 335.5Q601 333 623 331ZM416 152Q430 172 440.5 188.5Q451 205 457 217Q420 209 397 200Q401 221 403.0 241.5Q405 262 405 283Q405 303 403.0 325.0Q401 347 397 370Q415 363 447.5 356.0Q480 349 522 343Q519 376 514.0 422.5Q509 469 504 516Q475 512 450.5 506.0Q426 500 407 494Q421 485 438 475Q422 467 381.0 431.5Q340 396 290 351Q301 330 319.5 297.0Q338 264 363.0 226.5Q388 189 416 152ZM398 500H399V501ZM340 45Q358 69 375.0 93.0Q392 117 407 139Q345 183 290.5 219.0Q236 255 203 270Q199 266 197 265Q208 242 229.5 205.0Q251 168 280.0 126.0Q309 84 340 45Z" />
  </g>
</svg>