<svg xmlns="http://www.w3.org/2000/svg" viewBox="100 -152 1285 888">
  <g transform="translate(0, 584) scale(1, -1)">
    <path fill="black" d="M1264 78Q1264 132 1262.0 181.5Q1260 231 1257 276Q1199 271 1131.5 265.5Q1064 260 995.5 253.5Q927 247 864.0 239.0Q801 231 750.5 221.5Q700 212 671 200Q675 221 677.0 241.5Q679 262 679 283Q679 303 677.0 325.0Q675 347 671 370Q695 360 743.5 351.5Q792 343 856.0 335.5Q920 328 990.0 322.0Q1060 316 1128.5 311.5Q1197 307 1255 304Q1248 396 1235.0 471.5Q1222 547 1205 612Q1125 611 1032.5 607.0Q940 603 843.0 596.5Q746 590 653.0 581.5Q560 573 477.5 563.0Q395 553 331.5 541.5Q268 530 231 518Q243 569 243 623Q243 677 231 734Q269 723 333.0 712.5Q397 702 478.5 692.0Q560 682 652.0 673.5Q744 665 839.5 658.0Q935 651 1026.5 646.5Q1118 642 1198 640Q1191 665 1184.0 689.0Q1177 713 1169 736Q1220 724 1274 724Q1328 724 1385 736Q1360 645 1336.0 542.0Q1312 439 1299 302H1303V280Q1302 280 1300.5 279.5Q1299 279 1298 279Q1294 233 1292.0 183.5Q1290 134 1290 78ZM100 -152Q112 -101 112 -47Q112 7 100 64Q151 50 204.5 35.5Q258 21 318 9Q316 78 310.5 154.5Q305 231 298.0 304.0Q291 377 283.5 436.0Q276 495 270 528Q299 521 328 521Q344 521 359.0 523.0Q374 525 389 528Q382 495 374.5 435.5Q367 376 360.0 302.5Q353 229 347.5 151.5Q342 74 340 5Q399 -5 465.5 -13.5Q532 -22 611 -27Q610 28 606.5 96.0Q603 164 598.0 235.0Q593 306 586.5 372.0Q580 438 573.5 490.0Q567 542 561 571Q590 564 619 564Q635 564 650.0 566.0Q665 568 680 571Q674 542 667.5 489.5Q661 437 654.5 371.0Q648 305 642.5 234.0Q637 163 633.5 95.0Q630 27 630 -28Q690 -31 758 -31V-57Q603 -57 484.5 -69.5Q366 -82 273.0 -104.0Q180 -126 100 -152Z" />
  </g>
</svg>