<svg xmlns="http://www.w3.org/2000/svg" viewBox="100 -152 1285 889">
  <g transform="translate(0, 585) scale(1, -1)">
    <path fill="black" d="M1264 78Q1264 132 1262.0 181.5Q1260 231 1257 276Q1227 273 1193.0 270.5Q1159 268 1124 265Q1123 252 1123.0 239.5Q1123 227 1123 216H1108Q1108 226 1107.5 238.0Q1107 250 1107 263Q1085 262 1062.0 259.5Q1039 257 1016 255V216H1001Q1001 224 1001.0 234.0Q1001 244 1000 254Q977 252 954.0 249.5Q931 247 909 244V216H894V242L801 230V216H786V227Q749 221 720.0 214.5Q691 208 671 200Q675 221 677.0 241.5Q679 262 679 283Q679 303 677.0 325.0Q675 347 671 370Q706 356 781 345Q778 404 772.0 469.0Q766 534 761 590Q647 582 542.0 570.5Q437 559 356.0 546.0Q275 533 231 518Q243 569 243 623Q243 677 231 734Q276 722 356.5 709.5Q437 697 539.5 685.5Q642 674 753 665Q746 721 740 737Q766 731 789 731Q803 731 818.0 733.0Q833 735 847 737Q844 730 840.5 709.5Q837 689 833 658Q841 658 848.0 657.5Q855 657 862 656Q858 688 854.5 709.0Q851 730 848 737Q874 731 897 731Q911 731 926.0 733.0Q941 735 955 737Q952 730 948.5 707.0Q945 684 940 651L970 649Q966 684 962.0 707.0Q958 730 955 737Q981 731 1004 731Q1018 731 1033.0 733.0Q1048 735 1062 737Q1055 719 1047 645Q1055 645 1062.5 644.5Q1070 644 1077 644Q1069 719 1062 737Q1088 731 1111 731Q1125 731 1140.0 733.0Q1155 735 1169 737Q1165 729 1161.5 703.5Q1158 678 1153 641Q1165 640 1176.0 640.0Q1187 640 1198 640Q1191 665 1184.0 689.0Q1177 713 1169 736Q1220 724 1274 724Q1328 724 1385 736Q1360 645 1336.0 542.0Q1312 439 1299 302H1303V280Q1302 280 1300.5 279.5Q1299 279 1298 279Q1294 233 1292.0 183.5Q1290 134 1290 78ZM1255 304Q1248 396 1235.0 471.5Q1222 547 1205 612Q1192 612 1178.0 611.5Q1164 611 1150 611Q1145 567 1140.5 515.0Q1136 463 1132.0 410.5Q1128 358 1126 311Q1161 309 1193.5 307.5Q1226 306 1255 304ZM1105 313Q1101 382 1095.0 462.5Q1089 543 1081 609L1042 607Q1035 543 1029.0 465.0Q1023 387 1019 319ZM997 321Q994 388 988.0 464.0Q982 540 975 604L935 602Q928 541 922.5 467.5Q917 394 913 329ZM890 331Q886 395 880.5 466.0Q875 537 868 598L826 595Q820 537 814.5 470.0Q809 403 805 342Q825 339 846.5 336.0Q868 333 890 331ZM100 -152Q112 -101 112 -47Q112 7 100 64Q151 50 204.5 35.5Q258 21 318 9Q316 78 310.5 154.5Q305 231 298.0 304.0Q291 377 283.5 436.0Q276 495 270 528Q299 521 328 521Q344 521 359.0 523.0Q374 525 389 528Q382 495 374.5 435.5Q367 376 360.0 302.5Q353 229 347.5 151.5Q342 74 340 5Q399 -5 465.5 -13.5Q532 -22 611 -27Q610 28 606.5 96.0Q603 164 598.0 235.0Q593 306 586.5 372.0Q580 438 573.5 490.0Q567 542 561 571Q590 564 619 564Q635 564 650.0 566.0Q665 568 680 571Q674 542 667.5 489.5Q661 437 654.5 371.0Q648 305 642.5 234.0Q637 163 633.5 95.0Q630 27 630 -28Q690 -31 758 -31V-57Q603 -57 484.5 -69.5Q366 -82 273.0 -104.0Q180 -126 100 -152Z" />
  </g>
</svg>