<svg xmlns="http://www.w3.org/2000/svg" viewBox="100 -152 1423 1114">
  <g transform="translate(0, 810) scale(1, -1)">
    <path fill="black" d="M946 20Q908 56 885.5 77.0Q863 98 845.5 112.5Q828 127 804 143Q824 159 845.5 176.0Q867 193 903 224Q873 219 849.0 213.0Q825 207 808 200Q812 221 814.0 241.5Q816 262 816 283Q816 303 814.0 325.0Q812 347 808 370Q842 356 919 345Q916 404 910.0 469.0Q904 534 899 590Q785 582 680.0 570.5Q575 559 493.5 546.0Q412 533 368 518Q380 569 380 623Q380 677 368 734Q413 722 493.5 709.5Q574 697 677.0 685.5Q780 674 891 664Q887 693 883.5 711.5Q880 730 878 737Q892 733 906.0 732.0Q920 731 933 731Q900 762 880.0 781.0Q860 800 843.5 814.0Q827 828 804 843Q821 857 838.5 871.0Q856 885 881.5 906.0Q907 927 946 962L961 953Q942 922 928.0 895.5Q914 869 900 843Q914 818 928.0 791.0Q942 764 961 733Q967 734 973.0 735.0Q979 736 985 737Q982 730 978.5 709.5Q975 689 971 658Q979 658 986.0 657.5Q993 657 1000 656Q996 688 992.5 709.0Q989 730 986 737Q1012 731 1035 731Q1049 731 1064.0 733.0Q1079 735 1093 737Q1090 730 1086.5 707.0Q1083 684 1078 651L1108 649Q1104 684 1100.0 707.0Q1096 730 1093 737L1099 735Q1068 765 1048.5 783.0Q1029 801 1012.5 814.5Q996 828 974 843Q991 857 1008.5 871.0Q1026 885 1051.5 906.0Q1077 927 1116 962L1131 953Q1112 922 1098.0 895.5Q1084 869 1070 843Q1084 818 1098.0 791.0Q1112 764 1131 733L1129 731Q1147 730 1164.5 732.0Q1182 734 1200 737Q1193 719 1185 645Q1193 645 1200.5 644.5Q1208 644 1215 644Q1207 719 1200 737Q1226 731 1249 731Q1263 731 1278.0 733.0Q1293 735 1307 737Q1303 729 1299.5 703.5Q1296 678 1291 641Q1303 640 1314.0 640.0Q1325 640 1336 640Q1329 665 1322.0 689.0Q1315 713 1307 736Q1358 724 1412 724Q1466 724 1523 736Q1498 645 1474.0 542.0Q1450 439 1437 302H1440V280Q1439 280 1438.0 279.5Q1437 279 1436 279Q1432 233 1430.0 183.5Q1428 134 1428 78H1402Q1402 132 1400.0 181.5Q1398 231 1395 276Q1365 273 1331.0 270.5Q1297 268 1262 265Q1261 252 1261.0 239.5Q1261 227 1261 216H1246Q1246 226 1245.5 238.0Q1245 250 1245 263Q1223 262 1200.0 259.5Q1177 257 1154 255V216H1139Q1139 224 1139.0 234.0Q1139 244 1138 254Q1136 253 1130 253H1131Q1112 222 1098.0 195.5Q1084 169 1070 143Q1084 118 1098.0 91.0Q1112 64 1131 33L1116 20Q1078 56 1055.5 77.0Q1033 98 1015.5 112.5Q998 127 974 143Q990 156 1006.5 169.0Q1023 182 1046.0 201.0Q1069 220 1103 250L1047 244V216H1032V242Q1010 240 989.0 237.5Q968 235 948 232Q934 207 922.5 186.0Q911 165 900 143Q914 118 928.0 91.0Q942 64 961 33ZM1393 304Q1386 396 1373.0 471.5Q1360 547 1343 612Q1330 612 1316.0 611.5Q1302 611 1288 611Q1283 567 1278.5 515.0Q1274 463 1270.0 410.5Q1266 358 1264 311Q1299 309 1331.5 307.5Q1364 306 1393 304ZM1243 313Q1239 382 1233.0 462.5Q1227 543 1219 609L1180 607Q1173 543 1167.0 465.0Q1161 387 1157 319ZM1135 321Q1132 388 1126.0 464.0Q1120 540 1113 604L1073 602Q1066 541 1060.5 467.5Q1055 394 1051 329Q1071 327 1092.5 325.0Q1114 323 1135 321ZM1028 331Q1024 395 1018.5 466.0Q1013 537 1006 598L964 595Q958 537 952.5 470.0Q947 403 943 341Q963 339 984.5 336.0Q1006 333 1028 331ZM237 -152Q249 -101 249 -47Q249 7 237 64Q288 50 341.5 35.5Q395 21 455 9Q454 31 453.5 53.5Q453 76 451 100Q400 99 344.0 93.5Q288 88 237.0 81.0Q186 74 149.0 66.5Q112 59 100 54Q106 80 106 103Q106 117 104.0 132.0Q102 147 100 161Q113 155 150.0 148.0Q187 141 237.5 133.5Q288 126 344.0 121.0Q400 116 450 115L444 207Q393 206 338.0 201.0Q283 196 233.5 189.0Q184 182 148.0 174.5Q112 167 100 162Q106 188 106 211Q106 225 104.0 240.0Q102 255 100 269Q112 264 148.0 256.5Q184 249 233.5 242.0Q283 235 338.0 230.0Q393 225 443 223L435 314Q385 313 331.0 307.5Q277 302 229.0 295.0Q181 288 146.5 281.0Q112 274 100 269Q106 295 106 318Q106 332 104.0 347.0Q102 362 100 376Q112 371 146.5 364.0Q181 357 229.0 350.0Q277 343 330.0 338.0Q383 333 433 331Q431 355 428.0 377.5Q425 400 423 421Q374 419 322.0 413.5Q270 408 224.0 401.0Q178 394 145.0 387.5Q112 381 100 376Q106 402 106 425Q106 439 104.0 454.0Q102 469 100 483Q112 478 145.0 471.0Q178 464 223.5 457.5Q269 451 320.5 445.5Q372 440 421 438Q417 466 413.5 489.0Q410 512 407 528Q436 521 465 521Q481 521 496.0 523.0Q511 525 526 528Q519 495 511.5 435.5Q504 376 497.0 302.5Q490 229 484.5 151.5Q479 74 477 5Q536 -5 602.5 -13.5Q669 -22 748 -27Q747 28 743.5 96.0Q740 164 735.0 235.0Q730 306 723.5 372.0Q717 438 710.5 490.0Q704 542 698 571Q727 564 756 564Q772 564 787.0 566.0Q802 568 817 571Q811 542 804.5 489.5Q798 437 791.5 371.0Q785 305 779.5 234.0Q774 163 770.5 95.0Q767 27 767 -28Q827 -31 895 -31V-57Q740 -57 621.5 -69.5Q503 -82 410.0 -104.0Q317 -126 237 -152Z" />
  </g>
</svg>