<svg xmlns="http://www.w3.org/2000/svg" viewBox="100 -232 821 968">
  <g transform="translate(0, 504) scale(1, -1)">
    <path fill="black" d="M644 -232 619 -225Q642 -135 658 -54Q618 -57 572.0 -60.0Q526 -63 478 -68Q477 -84 477.0 -99.5Q477 -115 477 -132H451Q451 -116 450.5 -101.0Q450 -86 450 -70Q378 -76 308.5 -83.5Q239 -91 184.0 -100.5Q129 -110 100 -122Q107 -87 107 -47Q107 -29 105.5 -9.5Q104 10 100 31Q124 21 178.0 12.5Q232 4 302.5 -2.5Q373 -9 447 -15Q446 18 442.5 51.0Q439 84 435 115Q375 109 319.0 102.0Q263 95 219.5 87.0Q176 79 150 68Q157 103 157 143Q157 161 155.5 180.5Q154 200 150 221Q171 213 212.5 205.5Q254 198 309.5 191.5Q365 185 426 179Q422 212 416.0 243.0Q410 274 404 302Q322 294 253.5 283.0Q185 272 150 258Q157 293 157 333Q157 351 155.5 370.5Q154 390 150 411Q178 400 243.0 390.5Q308 381 387 373Q379 405 371.0 431.5Q363 458 356 477Q407 465 461 465Q515 465 572 477Q555 434 537 360Q586 357 631.0 354.5Q676 352 713 350L715 389Q736 379 756.0 371.0Q776 363 795 356Q774 408 754.5 447.0Q735 486 715 518Q662 514 592.5 509.0Q523 504 448.5 498.0Q374 492 305.0 485.0Q236 478 182.0 468.5Q128 459 100 448Q107 483 107 523Q107 541 105.5 560.5Q104 580 100 601Q122 592 173.0 584.0Q224 576 292.0 569.0Q360 562 434.0 556.5Q508 551 577.5 547.0Q647 543 700 541Q678 575 654.5 606.5Q631 638 603 675Q654 681 704.0 696.0Q754 711 809 736Q810 685 810.0 642.0Q810 599 811.5 556.0Q813 513 819.5 461.5Q826 410 841 342Q861 337 881.0 333.5Q901 330 921 328Q851 236 780.5 93.5Q710 -49 644 -232ZM695 161Q701 206 705.5 248.0Q710 290 712 328Q672 324 624.0 320.5Q576 317 526 313Q519 282 512.5 246.5Q506 211 501 173Q554 169 603.5 166.0Q653 163 695 161ZM663 -28Q672 15 679.0 56.0Q686 97 692 136L493 120Q489 86 485.5 51.5Q482 17 480 -18Q530 -21 577.0 -23.5Q624 -26 663 -28Z" />
  </g>
</svg>