<svg xmlns="http://www.w3.org/2000/svg" viewBox="100 -232 821 968">
  <g transform="translate(0, 504) scale(1, -1)">
    <path fill="black" d="M644 -232 619 -225Q642 -135 658 -54L472 -68L467 -132H441L438 -71Q368 -77 301.0 -84.5Q234 -92 181.0 -101.0Q128 -110 100 -122Q107 -87 107 -47Q107 -29 105.5 -9.5Q104 10 100 31Q120 23 162.0 15.5Q204 8 260.0 1.5Q316 -5 377 -10Q359 15 338.0 34.0Q317 53 295 69Q309 74 325.5 83.0Q342 92 366 108Q296 100 238.5 90.5Q181 81 150 68Q157 103 157 143Q157 161 155.5 180.5Q154 200 150 221Q174 211 227.5 202.5Q281 194 348 186Q332 197 319.0 203.5Q306 210 295 214Q318 231 340.5 251.0Q363 271 382 299Q307 292 244.5 282.0Q182 272 150 258Q157 293 157 333Q157 351 155.5 370.5Q154 390 150 411Q179 399 247.0 389.5Q315 380 397 372Q389 404 379.0 429.5Q369 455 356 477Q415 468 468 468Q520 468 571 477Q557 452 546.0 425.0Q535 398 527 361Q578 357 626.0 354.5Q674 352 713 350L715 389Q736 379 756.0 371.0Q776 363 795 356Q774 408 754.5 447.0Q735 486 715 518Q662 514 592.5 509.0Q523 504 448.5 498.0Q374 492 305.0 485.0Q236 478 182.0 468.5Q128 459 100 448Q107 483 107 523Q107 541 105.5 560.5Q104 580 100 601Q122 592 173.0 584.0Q224 576 292.0 569.0Q360 562 434.0 556.5Q508 551 577.5 547.0Q647 543 700 541Q678 575 654.5 606.5Q631 638 603 675Q654 681 704.0 696.0Q754 711 809 736Q810 685 810.0 642.0Q810 599 811.5 556.0Q813 513 819.5 461.5Q826 410 841 342Q861 337 881.0 333.5Q901 330 921 328Q851 236 780.5 93.5Q710 -49 644 -232ZM695 161Q701 206 705.5 248.0Q710 290 712 328L516 312Q508 267 501 209Q523 226 548.0 246.5Q573 267 601 291L607 285Q580 253 557.5 225.0Q535 197 516 172ZM417 247Q416 262 414.0 275.5Q412 289 410 302Q404 302 398.5 301.5Q393 301 388 300Q392 290 399.5 277.0Q407 264 417 247ZM663 -28Q672 15 679.0 56.0Q686 97 692 136Q651 133 604.0 129.5Q557 126 508 121Q528 95 552.5 64.5Q577 34 607 -1L601 -7Q568 20 540.0 43.0Q512 66 487 85L477 -17Q528 -21 575.5 -23.5Q623 -26 663 -28ZM436 -14Q435 5 434.0 23.0Q433 41 432 58Q416 35 406.5 18.0Q397 1 391 -11Z" />
  </g>
</svg>