<svg xmlns="http://www.w3.org/2000/svg" viewBox="100 -243 1041 979">
  <g transform="translate(0, 493) scale(1, -1)">
    <path fill="black" d="M100 -243Q106 -210 106 -168Q106 -130 100 -91Q114 -97 166 -105Q165 -20 161.0 72.5Q157 165 151.0 255.0Q145 345 137.0 422.0Q129 499 119.5 553.5Q110 608 100 629Q133 623 174 623Q213 623 250 629Q250 647 249.0 666.0Q248 685 245 704Q260 697 311.0 689.0Q362 681 437.5 674.0Q513 667 601.0 660.0Q689 653 779.0 648.0Q869 643 948 640Q942 667 936.0 691.0Q930 715 925 736Q976 724 1030 724Q1084 724 1141 736Q1119 656 1097.5 532.0Q1076 408 1062 247H1072V227H1061Q1046 52 1046 -159V-175Q1016 -175 954.5 -177.0Q893 -179 811.5 -182.5Q730 -186 639.0 -191.0Q548 -196 459.5 -201.5Q371 -207 295.0 -214.0Q219 -221 167.5 -228.0Q116 -235 100 -243ZM262 521Q304 521 344 527Q343 538 342.0 549.0Q341 560 339 571Q266 562 245 552Q247 569 248.5 587.5Q250 606 250 626Q245 613 239.5 586.5Q234 560 229 522Q237 521 245.5 521.0Q254 521 262 521ZM972 507Q968 536 963.0 563.0Q958 590 953 615Q884 612 801.0 607.5Q718 603 633.0 597.0Q548 591 472.0 584.5Q396 578 340 571Q357 563 402.0 554.5Q447 546 511.0 538.5Q575 531 651.5 524.5Q728 518 810.0 513.5Q892 509 972 507ZM990 375Q987 404 983.5 431.5Q980 459 976 485Q896 483 813.5 479.0Q731 475 654.5 468.5Q578 462 514.0 454.5Q450 447 404.5 438.0Q359 429 339 420Q345 455 345 497Q345 505 345.0 512.0Q345 519 344 526Q328 494 314 394Q324 393 334.0 392.5Q344 392 354 392Q392 392 431 398Q430 409 429.5 419.5Q429 430 427 440Q448 430 501.5 419.5Q555 409 632.0 399.5Q709 390 801.0 383.5Q893 377 990 375ZM258 -116Q258 -12 252.5 89.5Q247 191 238.0 279.0Q229 367 217 430Q209 354 202.0 261.5Q195 169 191.0 74.0Q187 -21 186 -107ZM1003 247Q1001 275 998.5 301.5Q996 328 993 353Q896 351 805.5 345.0Q715 339 638.0 330.5Q561 322 506.5 311.0Q452 300 427 288Q429 304 430.5 322.0Q432 340 432 359Q432 368 432.0 377.0Q432 386 431 395Q423 376 413.5 343.5Q404 311 396 265Q423 262 452 262Q470 262 489.0 263.5Q508 265 526 267Q525 278 524.0 290.0Q523 302 521 313Q555 303 621.0 289.0Q687 275 783.0 263.0Q879 251 1003 247ZM347 -124Q346 34 334.0 146.5Q322 259 305 327Q294 233 286.5 116.0Q279 -1 278 -118ZM568 -67Q576 -62 585.0 -54.5Q594 -47 610 -34Q607 -28 604.5 -21.0Q602 -14 599 -7Q614 -10 630 -10Q626 23 618.0 63.5Q610 104 599 133Q614 129 633 129Q650 129 669 132Q667 138 667 141Q681 136 713.5 131.5Q746 127 789.0 123.5Q832 120 876.0 117.0Q920 114 956 111Q951 135 947 146Q965 142 980.5 142.0Q996 142 1010 144Q1009 165 1008.0 185.5Q1007 206 1005 226Q881 223 784.0 211.0Q687 199 621.0 185.0Q555 171 521 161Q527 194 527 236Q527 243 527.0 250.0Q527 257 526 264Q514 240 501.5 210.5Q489 181 480 129Q489 128 499.0 129.0Q509 130 520 131L519 133L524 131L532 133Q531 132 531 130Q557 127 592 133Q581 109 573.5 67.0Q566 25 564 -10Q570 -10 577.5 -9.0Q585 -8 592 -7Q584 -23 578.0 -37.5Q572 -52 568 -67ZM379 130Q390 129 401.0 129.5Q412 130 425 131Q418 166 409.5 190.5Q401 215 391 235Q387 212 384.0 185.5Q381 159 379 130ZM462 -132Q537 -137 615.0 -142.0Q693 -147 768.0 -150.5Q843 -154 907.5 -156.0Q972 -158 1020 -159Q1020 -84 1018.0 -14.5Q1016 55 1012 120Q1006 91 1001.5 48.0Q997 5 993.5 -39.5Q990 -84 986 -119H976Q975 -90 972.5 -52.0Q970 -14 966.5 25.0Q963 64 958 95Q922 94 876.5 91.5Q831 89 787.5 85.5Q744 82 711.5 77.5Q679 73 667 68Q673 103 669 127Q659 102 652.5 62.0Q646 22 644 -10Q650 -10 657.5 -9.0Q665 -8 672 -7Q659 -35 652.0 -56.5Q645 -78 643 -112H633Q631 -89 626.0 -74.0Q621 -59 613 -43Q609 -50 605.5 -57.0Q602 -64 597 -71Q603 -80 608.0 -89.5Q613 -99 620 -110L615 -113Q596 -96 587.5 -88.5Q579 -81 567 -73Q566 -82 564.5 -91.5Q563 -101 563 -112H553Q550 -80 541.0 -60.5Q532 -41 520 -9Q513 -33 508.5 -60.0Q504 -87 503 -112H493Q490 -83 483.0 -53.5Q476 -24 466 4Q464 -24 463.0 -58.0Q462 -92 462 -132ZM550 -10Q546 18 539.5 52.5Q533 87 525 115Q519 95 514.5 69.5Q510 44 507 19Q513 20 519.0 21.0Q525 22 532 23Q528 16 525.5 8.5Q523 1 520 -7Q535 -10 550 -10ZM442 -131Q442 -46 438.5 12.5Q435 71 428 111Q423 90 419.0 58.0Q415 26 412.5 -7.5Q410 -41 408.0 -69.0Q406 -97 406 -112H396Q395 -95 391.5 -62.5Q388 -30 384.0 8.0Q380 46 374 78Q371 32 369.0 -18.5Q367 -69 367 -125ZM486 19Q484 36 480.5 52.5Q477 69 473 85Q468 56 467 21ZM793 -114V-86Q760 -89 724.0 -95.5Q688 -102 667 -112Q669 -101 670.0 -91.5Q671 -82 671 -73Q671 -64 670.0 -55.5Q669 -47 667 -39Q675 -42 683.5 -44.5Q692 -47 701 -50Q702 -39 701 -31V-25Q702 -14 701 -6V0Q702 10 701 19V25Q702 35 701 44V50Q702 61 701 75Q724 70 743.0 67.5Q762 65 782 63Q781 69 780.0 73.5Q779 78 777 82Q795 81 816 82Q809 69 806.5 34.0Q804 -1 802 -37H803V-45H802Q802 -51 801.5 -57.0Q801 -63 801 -69Q809 -70 817.0 -71.0Q825 -72 832 -73V-83Q825 -83 817.0 -83.5Q809 -84 801 -85V-114ZM786 38 783 54Q767 53 750.5 51.5Q734 50 716 46Q735 42 751.5 40.5Q768 39 786 38ZM788 13 786 29Q769 28 752.0 26.5Q735 25 716 21Q735 17 752.5 15.5Q770 14 788 13ZM955 -59Q936 -44 928.0 -36.0Q920 -28 910 -21Q883 -22 853.5 -24.5Q824 -27 806 -35Q807 -14 806 4Q827 -4 856.0 -7.5Q885 -11 910 -12Q918 -7 928.0 1.0Q938 9 955 24L960 21Q953 10 948.0 0.5Q943 -9 937 -17Q943 -26 948.0 -35.5Q953 -45 960 -56ZM790 -12 788 4Q770 3 753.0 1.5Q736 0 716 -3Q736 -7 753.5 -9.0Q771 -11 790 -12ZM791 -37Q791 -32 791.0 -28.0Q791 -24 790 -20Q772 -21 754.0 -22.5Q736 -24 716 -28Q736 -32 754.0 -34.0Q772 -36 791 -37ZM792 -68Q792 -63 792.0 -57.0Q792 -51 791 -45Q772 -46 753.5 -47.5Q735 -49 715 -53Q734 -57 754.0 -61.5Q774 -66 792 -68Z" />
  </g>
</svg>