<svg xmlns="http://www.w3.org/2000/svg" viewBox="100 -243 1041 979">
  <g transform="translate(0, 493) scale(1, -1)">
    <path fill="black" d="M100 -243Q106 -210 106 -168Q106 -130 100 -91Q114 -97 166 -105Q165 -20 161.0 72.5Q157 165 151.0 255.0Q145 345 137.0 422.0Q129 499 119.5 553.5Q110 608 100 629Q133 623 174 623Q213 623 250 629Q250 647 249.0 666.0Q248 685 245 704Q260 697 311.0 689.0Q362 681 437.5 674.0Q513 667 601.0 660.0Q689 653 779.0 648.0Q869 643 948 640Q942 667 936.0 691.0Q930 715 925 736Q976 724 1030 724Q1084 724 1141 736Q1119 656 1097.5 532.0Q1076 408 1062 247H1072V227H1061Q1046 52 1046 -159V-175Q1016 -175 954.5 -177.0Q893 -179 811.5 -182.5Q730 -186 639.0 -191.0Q548 -196 459.5 -201.5Q371 -207 295.0 -214.0Q219 -221 167.5 -228.0Q116 -235 100 -243ZM262 521Q304 521 344 527Q343 538 342.0 549.0Q341 560 339 571Q266 562 245 552Q247 569 248.5 587.5Q250 606 250 626Q245 613 239.5 586.5Q234 560 229 522Q237 521 245.5 521.0Q254 521 262 521ZM972 507Q968 536 963.0 563.0Q958 590 953 615Q884 612 801.0 607.5Q718 603 633.0 597.0Q548 591 472.0 584.5Q396 578 340 571Q357 563 402.0 554.5Q447 546 511.0 538.5Q575 531 651.5 524.5Q728 518 810.0 513.5Q892 509 972 507ZM990 375Q987 404 983.5 431.5Q980 459 976 485Q896 483 813.5 479.0Q731 475 654.5 468.5Q578 462 514.0 454.5Q450 447 404.5 438.0Q359 429 339 420Q345 455 345 497Q345 505 345.0 512.0Q345 519 344 526Q328 494 314 394Q324 393 334.0 392.5Q344 392 354 392Q392 392 431 398Q430 409 429.5 419.5Q429 430 427 440Q448 430 501.5 419.5Q555 409 632.0 399.5Q709 390 801.0 383.5Q893 377 990 375ZM258 -116Q258 -12 252.5 89.5Q247 191 238.0 279.0Q229 367 217 430Q209 354 202.0 261.5Q195 169 191.0 74.0Q187 -21 186 -107ZM1003 247Q1001 275 998.5 301.5Q996 328 993 353Q896 351 805.5 345.0Q715 339 638.0 330.5Q561 322 506.5 311.0Q452 300 427 288Q429 304 430.5 322.0Q432 340 432 359Q432 368 432.0 377.0Q432 386 431 395Q423 376 413.5 343.5Q404 311 396 265Q423 262 452 262Q470 262 489.0 263.5Q508 265 526 267Q525 278 524.0 290.0Q523 302 521 313Q555 303 621.0 289.0Q687 275 783.0 263.0Q879 251 1003 247ZM347 -124Q346 34 334.0 146.5Q322 259 305 327Q294 233 286.5 116.0Q279 -1 278 -118ZM915 -156Q865 -111 829.0 -76.0Q793 -41 764.0 -13.0Q735 15 705 37Q726 55 759.5 82.5Q793 110 832.5 145.5Q872 181 908 222Q761 213 663.0 193.5Q565 174 521 161Q527 194 527 236Q527 243 527.0 250.0Q527 257 526 264Q515 242 503.5 215.5Q492 189 482.5 147.0Q473 105 467.5 38.0Q462 -29 462 -132Q539 -137 619.0 -142.0Q699 -147 775.0 -150.5Q851 -154 915 -156ZM442 -131Q442 -42 438.0 18.0Q434 78 427.0 118.0Q420 158 411.0 185.5Q402 213 391 235Q381 168 374.0 77.0Q367 -14 367 -125ZM1020 -159Q1020 -54 1016.0 42.5Q1012 139 1005 226Q986 226 968.0 225.0Q950 224 932 223L937 221Q903 160 878.5 117.5Q854 75 831 37Q854 -1 878.5 -43.0Q903 -85 937 -147L919 -156Z" />
  </g>
</svg>