<svg xmlns="http://www.w3.org/2000/svg" viewBox="100 -167 1773 963">
  <g transform="translate(0, 629) scale(1, -1)">
    <path fill="black" d="M654 -167Q628 -130 601.5 -105.0Q575 -80 541 -58Q543 -56 546.5 -54.5Q550 -53 553 -51L532 299Q487 293 441.0 286.0Q395 279 356.5 270.0Q318 261 295 250Q312 250 327.5 251.0Q343 252 357 254Q337 212 324.0 149.0Q311 86 301 11H289Q285 69 276.0 125.0Q267 181 254 220Q247 166 240.0 109.0Q233 52 228 11H216Q214 45 210.0 93.0Q206 141 200.0 191.5Q194 242 186 282Q181 232 176.5 180.0Q172 128 167.5 83.5Q163 39 159 11H149Q147 40 143.5 89.0Q140 138 135.5 195.0Q131 252 125.5 305.5Q120 359 113.5 399.0Q107 439 100 453Q114 451 128.5 450.0Q143 449 157 449Q159 460 160.0 473.0Q161 486 161 499Q161 513 159.5 528.0Q158 543 156 557Q172 549 214.5 542.0Q257 535 311.5 528.5Q366 522 421.0 517.5Q476 513 516 510Q512 565 507.0 602.0Q502 639 498 649Q515 646 532.0 644.0Q549 642 566 642Q586 642 605 645Q583 661 567.0 672.0Q551 683 541 687Q575 709 601.5 734.0Q628 759 654 796Q661 780 697.0 737.0Q733 694 790.0 633.5Q847 573 915.5 502.0Q984 431 1055 358Q1095 393 1133.5 426.5Q1172 460 1207 491Q1204 502 1201.5 511.0Q1199 520 1197 525Q1218 520 1240 519Q1276 551 1307.0 578.5Q1338 606 1363 627Q1355 632 1346.0 637.0Q1337 642 1329 646Q1355 669 1377.0 696.5Q1399 724 1416 763Q1451 716 1509.0 651.5Q1567 587 1656.0 502.5Q1745 418 1873 311Q1771 229 1681.0 149.0Q1591 69 1522.5 -1.0Q1454 -71 1416 -123Q1399 -84 1377.0 -56.5Q1355 -29 1329 -6L1355 8Q1339 23 1318.5 41.0Q1298 59 1275 78V56H1249L1247 103Q1204 141 1155.5 183.5Q1107 226 1055 271Q984 198 915.5 127.0Q847 56 790.0 -5.0Q733 -66 697.0 -108.5Q661 -151 654 -167ZM677 552Q698 552 719 555L624 631Q622 619 619.5 600.0Q617 581 615 558Q645 552 677 552ZM1505 471Q1501 491 1496.0 503.5Q1491 516 1487 525Q1511 520 1536 519Q1494 548 1458.0 570.5Q1422 593 1388 613L1299 520Q1306 521 1313.0 522.5Q1320 524 1327 525L1320 507Q1349 498 1400.0 488.5Q1451 479 1505 471ZM685 45Q752 99 835.5 169.5Q919 240 1005 314Q935 376 865.0 435.0Q795 494 734 543Q729 519 723.5 472.5Q718 426 712.0 367.5Q706 309 701.0 248.0Q696 187 691.5 133.5Q687 80 685 45ZM574 -38Q592 -26 615.5 -8.5Q639 9 667 31H665Q663 63 658.5 116.0Q654 169 649.0 232.0Q644 295 638.0 356.5Q632 418 626.0 467.5Q620 517 614 542Q610 493 605.0 430.0Q600 367 595.5 299.5Q591 232 587.0 167.5Q583 103 579.5 49.5Q576 -4 574 -38ZM524 414 518 494Q479 490 428.0 484.5Q377 479 325.0 473.0Q273 467 231 460Q249 452 283.0 445.0Q317 438 359.5 432.0Q402 426 445.0 421.5Q488 417 524 414ZM1565 130Q1618 164 1685.5 208.0Q1753 252 1841 311L1599 476Q1593 453 1586.0 411.5Q1579 370 1573.5 302.0Q1568 234 1565 130ZM1309 97Q1312 117 1312 135Q1312 149 1310.5 163.5Q1309 178 1307 192Q1325 185 1362.0 176.5Q1399 168 1446.0 160.0Q1493 152 1539 145Q1538 171 1537.0 195.0Q1536 219 1534 240Q1491 235 1444.5 226.5Q1398 218 1361.0 209.0Q1324 200 1307 193Q1313 219 1313 242Q1313 256 1311.0 270.5Q1309 285 1307 299Q1313 325 1313 348Q1313 362 1311.0 377.0Q1309 392 1307 406Q1311 424 1312.0 441.0Q1313 458 1312 474Q1303 432 1293.0 350.5Q1283 269 1277 130ZM227 350Q230 373 230 399Q230 414 229.0 429.0Q228 444 226 459Q213 457 202.0 454.5Q191 452 181 449Q190 450 199.0 451.0Q208 452 216 453Q210 440 205.0 413.0Q200 386 195 351Q203 350 211.0 350.0Q219 350 227 350ZM1524 361Q1521 388 1517.5 409.5Q1514 431 1511 448Q1470 442 1429.0 434.5Q1388 427 1355.5 419.5Q1323 412 1308 405Q1325 399 1359.5 391.0Q1394 383 1437.0 375.5Q1480 368 1524 361ZM1244 164Q1239 257 1232.0 325.0Q1225 393 1218 437L1097 314Q1136 275 1173.0 237.0Q1210 199 1244 164ZM530 322Q529 342 528.0 360.5Q527 379 525 398Q473 391 409.0 383.5Q345 376 295 365Q315 356 353.5 348.0Q392 340 439.0 333.5Q486 327 530 322ZM294 250Q296 263 297.0 277.5Q298 292 298 307Q298 321 297.0 335.5Q296 350 294 365Q260 358 237 350Q250 350 262.0 351.5Q274 353 285 354Q278 339 271.5 312.0Q265 285 259 252Q268 251 276.5 250.5Q285 250 294 250ZM1533 254Q1532 280 1530.0 303.0Q1528 326 1526 345Q1484 340 1439.5 331.5Q1395 323 1360.0 314.5Q1325 306 1308 299Q1326 292 1362.0 284.0Q1398 276 1443.0 268.5Q1488 261 1533 254ZM1382 22Q1417 42 1455.5 64.0Q1494 86 1540 114Q1540 119 1539.5 124.0Q1539 129 1539 133Q1499 128 1455.5 120.5Q1412 113 1375.5 104.5Q1339 96 1317 89Q1336 70 1352.5 53.0Q1369 36 1382 22Z" />
  </g>
</svg>