<svg xmlns="http://www.w3.org/2000/svg" viewBox="100 -206 1935 961">
  <g transform="translate(0, 549) scale(1, -1)">
    <path fill="black" d="M1718 -206 1705 -199Q1711 -184 1719.5 -165.0Q1728 -146 1738 -124L1724 -119Q1697 -119 1642.0 -121.5Q1587 -124 1513.5 -128.0Q1440 -132 1357.0 -138.0Q1274 -144 1190.0 -150.5Q1106 -157 1029.0 -164.5Q952 -172 891.5 -179.5Q831 -187 795 -195Q797 -177 798.5 -153.0Q800 -129 800 -104Q800 -92 800.0 -79.5Q800 -67 799 -56Q733 2 691.0 45.5Q649 89 611 120L518 111Q514 74 510.5 41.5Q507 9 504 -13H494L485 108L427 101Q423 66 420.0 36.5Q417 7 414 -13H404L396 97L335 87L324 -13H314L307 82L244 70L234 -13H224Q223 1 221.5 21.0Q220 41 218 65Q181 56 151.5 47.0Q122 38 100 29Q112 80 112 134Q112 188 100 245Q120 237 146.5 228.0Q173 219 207 210Q203 260 197.5 305.0Q192 350 186.5 383.5Q181 417 175 429Q191 427 206.5 426.0Q222 425 237 425Q245 425 252.0 425.0Q259 425 266 426Q265 427 265 429L279 427L291 429Q290 428 290 426Q300 425 309.5 425.0Q319 425 329 425Q336 425 342.5 425.0Q349 425 356 426Q355 427 355 429L369 427L381 429Q380 428 380 426Q390 425 399.5 425.0Q409 425 419 425Q426 425 432.5 425.0Q439 425 446 426Q445 427 445 429L459 427L471 429Q470 428 470 426Q478 425 486.0 425.0Q494 425 502 425Q518 425 533.0 426.0Q548 427 561 429Q553 412 546.0 369.0Q539 326 533.0 270.5Q527 215 522 159L608 153Q644 182 698.0 228.5Q752 275 801 332L821 321Q787 260 762.5 217.5Q738 175 715 137L809 -25Q850 -33 916.0 -40.5Q982 -48 1063.0 -55.5Q1144 -63 1230.0 -70.0Q1316 -77 1399.0 -82.5Q1482 -88 1553.0 -91.5Q1624 -95 1672 -97Q1610 -72 1531.0 -40.0Q1452 -8 1365.0 26.0Q1278 60 1193.0 92.5Q1108 125 1034.5 151.5Q961 178 908.0 194.0Q855 210 832 211Q852 240 868.5 272.5Q885 305 896 347Q911 331 974.5 293.5Q1038 256 1127 208L1687 533Q1636 531 1561.0 527.0Q1486 523 1398.0 517.0Q1310 511 1219.5 504.5Q1129 498 1046.0 490.5Q963 483 897.5 475.0Q832 467 795 459Q797 476 798.5 497.5Q800 519 800 543Q800 563 799.0 583.5Q798 604 796 622L735 518Q758 480 782.5 438.0Q807 396 841 334L821 323Q754 382 711.5 426.0Q669 470 630 501Q433 487 299.0 461.5Q165 436 100 409Q112 460 112 514Q112 568 100 625Q165 598 297.5 570.5Q430 543 625 532Q661 561 716.0 608.0Q771 655 821 713L841 702L800 630Q836 623 894.5 615.5Q953 608 1026.5 601.0Q1100 594 1181.0 587.5Q1262 581 1343.0 575.5Q1424 570 1497.5 566.0Q1571 562 1629.5 559.0Q1688 556 1724 555L1764 578Q1737 616 1714.5 644.5Q1692 673 1677 684Q1708 695 1743.5 713.5Q1779 732 1811 755Q1812 736 1826.5 691.0Q1841 646 1864.5 586.0Q1888 526 1914.5 462.5Q1941 399 1966.0 341.5Q1991 284 2009 244Q2021 239 2035 234Q2016 220 1985.0 181.0Q1954 142 1917.5 89.5Q1881 37 1844.0 -19.0Q1807 -75 1774.0 -124.5Q1741 -174 1718 -206ZM1881 403Q1858 439 1834.5 475.0Q1811 511 1788 544L1615 444Q1642 438 1688.5 430.5Q1735 423 1787.0 416.0Q1839 409 1881 403ZM1748 -102Q1765 -64 1783.5 -20.5Q1802 23 1820 67Q1777 61 1731.0 53.0Q1685 45 1649.0 37.5Q1613 30 1598 23Q1604 49 1604 72Q1604 86 1602.0 101.0Q1600 116 1598 130Q1614 123 1651.0 115.5Q1688 108 1735.5 100.5Q1783 93 1828 86L1863 176Q1827 172 1786.0 166.0Q1745 160 1706.5 154.0Q1668 148 1639.0 142.0Q1610 136 1598 131Q1604 157 1604 180Q1604 194 1602.0 208.5Q1600 223 1598 237Q1604 263 1604 286Q1604 300 1602.0 314.5Q1600 329 1598 343Q1604 369 1604 392Q1604 403 1603.0 414.0Q1602 425 1600 435L1171 185Q1246 146 1327.0 104.5Q1408 63 1487.0 24.0Q1566 -15 1633.5 -47.5Q1701 -80 1748 -102ZM1974 260Q1955 288 1933.0 322.0Q1911 356 1888 392Q1854 388 1810.5 382.0Q1767 376 1723.5 369.0Q1680 362 1646.5 355.5Q1613 349 1599 343Q1612 338 1645.5 332.5Q1679 327 1723.5 321.5Q1768 316 1814.5 311.0Q1861 306 1900 301Q1900 302 1900.5 303.0Q1901 304 1901 305Q1905 301 1908 300Q1916 299 1924.0 298.0Q1932 297 1939 296V286Q1936 285 1930 285Q1941 278 1952.0 272.0Q1963 266 1974 260ZM481 163Q476 222 470.0 280.0Q464 338 457 378Q450 339 444.0 282.5Q438 226 433 169ZM390 175Q386 231 380.0 286.0Q374 341 367 378Q360 341 354.5 288.5Q349 236 344 182Q355 180 366.5 178.5Q378 177 390 175ZM299 190Q295 243 289.0 293.0Q283 343 277 378Q271 344 266.0 296.5Q261 249 256 199ZM1869 194Q1889 249 1897 281Q1859 277 1813.0 271.5Q1767 266 1723.0 260.0Q1679 254 1645.5 248.0Q1612 242 1599 237Q1612 232 1642.0 226.5Q1672 221 1711.0 215.0Q1750 209 1791.5 204.0Q1833 199 1869 194Z" />
  </g>
</svg>