<svg xmlns="http://www.w3.org/2000/svg" viewBox="100 -270 1370 1072">
  <g transform="translate(0, 532) scale(1, -1)">
    <path fill="black" d="M282 -239Q254 -204 226.5 -179.5Q199 -155 164 -136Q172 -131 183.0 -125.0Q194 -119 206 -110Q196 43 187.5 152.0Q179 261 170.0 340.0Q161 419 151.0 479.5Q141 540 128.5 593.0Q116 646 100 705Q118 701 136.0 698.0Q154 695 173 694L164 699Q199 719 226.5 743.0Q254 767 282 802Q288 784 316.5 742.5Q345 701 389.5 644.5Q434 588 486.0 524.0Q538 460 590.5 397.5Q643 335 689 282Q663 249 625.0 204.0Q587 159 543.5 107.0Q500 55 457.0 2.5Q414 -50 377.0 -97.5Q340 -145 315.0 -182.0Q290 -219 282 -239ZM942 -270 931 -109Q880 -121 831.5 -134.5Q783 -148 739 -164Q751 -113 751 -59Q751 -5 739 52Q778 41 824.5 31.0Q871 21 921 12Q914 87 907.0 140.5Q900 194 892.5 233.5Q885 273 876.5 307.0Q868 341 858.0 376.5Q848 412 835 458Q886 446 940 446Q994 446 1051 458Q1038 409 1027.0 367.0Q1016 325 1007.0 277.0Q998 229 991.0 163.5Q984 98 979 2Q1072 -11 1169.5 -20.0Q1267 -29 1357 -31Q1348 93 1340.5 186.5Q1333 280 1326.0 350.0Q1319 420 1311.0 475.0Q1303 530 1293 578Q1167 569 1075.5 561.0Q984 553 916.0 545.0Q848 537 794.5 527.5Q741 518 692.5 506.0Q644 494 589 479Q601 530 601 584Q601 638 589 695Q646 679 706.5 667.0Q767 655 844.5 645.0Q922 635 1029.0 628.0Q1136 621 1285 616Q1278 645 1270.5 674.5Q1263 704 1254 736Q1305 724 1359 724Q1413 724 1470 736Q1456 686 1445.0 633.0Q1434 580 1425.0 515.0Q1416 450 1409.0 365.5Q1402 281 1396.5 169.5Q1391 58 1387 -90H1361Q1360 -81 1359.5 -73.0Q1359 -65 1359 -57Q1266 -58 1167.0 -69.0Q1068 -80 973 -100L968 -270ZM640 296Q594 340 533.5 395.5Q473 451 410.5 506.5Q348 562 292 607Q281 555 272.5 493.0Q264 431 256 350Q291 343 340.5 335.5Q390 328 444.5 320.5Q499 313 550.0 307.0Q601 301 640 296ZM234 -90Q277 -58 330.0 -13.0Q383 32 439.5 82.0Q496 132 548.5 180.5Q601 229 642 268Q601 262 547.0 255.5Q493 249 436.5 242.0Q380 235 329.5 227.5Q279 220 246 214Q242 150 239.0 74.5Q236 -1 234 -90Z" />
  </g>
</svg>