<svg xmlns="http://www.w3.org/2000/svg" viewBox="100 -161 929 897">
  <g transform="translate(0, 575) scale(1, -1)">
    <path fill="black" d="M291 -161Q281 -110 268.5 -82.0Q256 -54 243.0 -35.0Q230 -16 217 6Q189 -1 161.0 -11.0Q133 -21 100 -33Q109 20 109 72Q109 124 100 182Q144 166 187.5 153.5Q231 141 288.0 131.0Q345 121 427.5 114.0Q510 107 632 101Q634 101 634 103Q627 206 620.0 280.5Q613 355 606.5 409.5Q600 464 592.5 505.0Q585 546 576.5 581.5Q568 617 558.0 653.5Q548 690 535 736Q586 724 640 724Q694 724 751 736Q741 699 732.0 665.0Q723 631 715 594Q735 590 765.5 584.0Q796 578 829 573Q820 612 809.5 649.5Q799 687 785 736Q836 724 890 724Q944 724 1001 736Q989 691 978.5 651.0Q968 611 959.5 566.0Q951 521 944.5 463.0Q938 405 932.5 326.5Q927 248 923 139Q943 159 963.0 180.0Q983 201 1002 223L1019 213Q990 161 969.0 120.0Q948 79 928 47Q942 23 967.5 -14.5Q993 -52 1029 -99L1013 -112Q989 -90 964.5 -69.5Q940 -49 907.0 -21.5Q874 6 821 47L884 102Q883 131 880.5 157.0Q878 183 876 207Q846 203 814.0 198.5Q782 194 755 189Q731 145 713.0 110.5Q695 76 678 47Q692 23 717.5 -14.5Q743 -52 779 -99L763 -112Q739 -90 714.5 -69.5Q690 -49 657.0 -21.5Q624 6 571 47L590 63Q490 52 421.5 43.0Q353 34 305.5 25.5Q258 17 219 6Q239 2 259.0 0.5Q279 -1 300 -1Q321 -1 342.5 1.0Q364 3 388 7Q375 -15 361.5 -34.5Q348 -54 336.0 -82.0Q324 -110 313 -161ZM251 263Q244 374 231.5 443.5Q219 513 207.0 554.0Q195 595 188 618Q216 611 249 611Q265 611 281.5 612.5Q298 614 314 618Q309 602 303.0 582.0Q297 562 290 530Q372 500 533 492V480Q450 472 392.0 461.5Q334 451 287 433Q289 445 291.0 457.0Q293 469 293 482Q293 491 292.0 501.5Q291 512 289 522Q281 481 274.5 419.0Q268 357 266 263ZM673 139 713 180 698 175Q700 186 701.0 196.5Q702 207 702 218Q702 238 698 255Q709 250 738.5 244.0Q768 238 805.0 232.0Q842 226 875 222L866 321Q833 316 798.0 310.5Q763 305 736.0 300.0Q709 295 698 290Q700 301 701.0 311.5Q702 322 702 333Q702 353 698 370Q708 366 735.0 360.0Q762 354 797.0 348.5Q832 343 865 338Q862 366 859.5 389.5Q857 413 854 434Q822 430 789.5 425.0Q757 420 732.5 415.0Q708 410 698 405Q700 416 701.0 426.5Q702 437 702 448Q702 468 698 485Q708 481 732.0 475.5Q756 470 788.0 465.0Q820 460 851 455Q847 481 843.0 503.5Q839 526 834 546Q794 540 756.5 534.0Q719 528 702 522Q692 458 685.0 367.5Q678 277 673 139Z" />
  </g>
</svg>