<svg xmlns="http://www.w3.org/2000/svg" viewBox="100 -161 1899 897">
  <g transform="translate(0, 575) scale(1, -1)">
    <path fill="black" d="M1098 -161Q1110 -116 1120.5 -76.0Q1131 -36 1139.5 8.0Q1148 52 1154.5 109.5Q1161 167 1166.5 246.5Q1172 326 1176 436Q1157 417 1136.5 395.5Q1116 374 1097 352L1080 362Q1109 415 1130.5 455.5Q1152 496 1171 528Q1157 552 1131.5 590.0Q1106 628 1070 674L1086 687Q1151 629 1195.5 593.0Q1240 557 1278 528Q1267 518 1250.5 504.0Q1234 490 1214 472Q1216 444 1218.0 417.5Q1220 391 1222 367Q1252 372 1284.0 376.5Q1316 381 1343 386Q1367 430 1385.5 465.0Q1404 500 1421 528Q1407 552 1381.5 590.0Q1356 628 1320 674L1336 687Q1401 629 1445.5 593.0Q1490 557 1528 528L1509 512Q1610 523 1677.5 531.5Q1745 540 1792.5 549.0Q1840 558 1879 568Q1859 572 1838.5 574.0Q1818 576 1797 576Q1777 576 1755.5 574.0Q1734 572 1711 568Q1724 591 1737.5 610.0Q1751 629 1763.5 657.5Q1776 686 1786 736H1808Q1819 686 1830.5 657.5Q1842 629 1855.0 610.0Q1868 591 1881 569Q1910 577 1938.0 586.5Q1966 596 1999 608Q1990 556 1990 503Q1990 452 1999 393Q1955 409 1911.5 421.5Q1868 434 1810.5 444.0Q1753 454 1670.5 461.0Q1588 468 1466 474Q1464 472 1464 472Q1471 368 1478.0 292.5Q1485 217 1491.5 163.0Q1498 109 1505.5 68.0Q1513 27 1521.5 -8.0Q1530 -43 1540.5 -79.0Q1551 -115 1564 -161Q1513 -149 1459 -149Q1405 -149 1348 -161Q1359 -123 1368.0 -89.5Q1377 -56 1384 -19Q1365 -14 1333.5 -8.5Q1302 -3 1269 1Q1278 -36 1289.5 -73.5Q1301 -111 1314 -161Q1263 -149 1209 -149Q1155 -149 1098 -161ZM291 -161Q281 -110 268.5 -82.0Q256 -54 243.0 -35.0Q230 -16 217 6Q189 -1 161.0 -11.0Q133 -21 100 -33Q109 20 109 72Q109 124 100 182Q144 166 187.5 153.5Q231 141 288.0 131.0Q345 121 427.5 114.0Q510 107 632 101Q633 101 635 103Q628 207 621.0 282.0Q614 357 607.0 411.5Q600 466 592.5 506.5Q585 547 576.5 582.0Q568 617 558.0 653.5Q548 690 535 736Q586 724 640 724Q694 724 751 736Q741 698 732.0 664.5Q723 631 715 594Q735 590 765.5 584.0Q796 578 829 573Q820 611 809.5 649.0Q799 687 785 736Q836 724 890 724Q944 724 1001 736Q989 691 978.5 651.0Q968 611 959.5 567.0Q951 523 944.5 465.5Q938 408 932.5 328.5Q927 249 922 139Q942 159 962.5 180.0Q983 201 1002 223L1019 213Q990 161 969.0 120.0Q948 79 928 47Q942 23 967.5 -14.5Q993 -52 1029 -99L1013 -112Q948 -54 903.5 -17.5Q859 19 821 47Q832 57 849.0 71.0Q866 85 885 103L877 207Q847 203 814.5 198.5Q782 194 755 189Q731 145 713.0 110.5Q695 76 678 47Q692 23 717.5 -14.5Q743 -52 779 -99L763 -112Q698 -54 653.5 -17.5Q609 19 571 47L590 63Q490 52 421.5 43.0Q353 34 305.5 25.5Q258 17 219 6Q239 2 259.0 0.5Q279 -1 300 -1Q321 -1 342.5 1.0Q364 3 388 7Q375 -15 361.5 -34.5Q348 -54 336.0 -82.0Q324 -110 313 -161ZM672 139Q683 149 693.0 159.0Q703 169 713 180L698 175Q700 186 701.0 196.5Q702 207 702 218Q702 238 698 255Q709 250 738.5 244.0Q768 238 805.0 232.0Q842 226 876 222L867 321Q833 316 798.0 310.5Q763 305 736.0 300.0Q709 295 698 290Q700 301 701.0 311.5Q702 322 702 333Q702 353 698 370Q708 366 735.0 360.0Q762 354 797.0 348.5Q832 343 865 338Q863 366 860.0 389.5Q857 413 854 434Q822 430 790.0 425.0Q758 420 733.0 415.0Q708 410 698 405Q700 416 701.0 426.5Q702 437 702 448Q702 468 698 485Q708 481 732.0 475.5Q756 470 788.0 464.5Q820 459 851 455Q847 481 843.0 503.5Q839 526 835 546Q794 540 756.5 534.0Q719 528 702 522Q692 458 684.5 368.0Q677 278 672 139ZM1264 28Q1305 34 1343.0 40.5Q1381 47 1397 53Q1407 116 1414.0 206.5Q1421 297 1426 436L1385 395Q1393 396 1401 400Q1400 390 1398.5 379.0Q1397 368 1397 357Q1397 337 1401 320Q1390 325 1360.5 331.0Q1331 337 1294.0 343.0Q1257 349 1223 353L1232 254Q1266 259 1300.5 264.0Q1335 269 1362.5 274.5Q1390 280 1401 285Q1400 275 1398.5 264.0Q1397 253 1397 242Q1397 222 1401 205Q1391 210 1363.5 215.5Q1336 221 1301.0 226.5Q1266 232 1233 236Q1236 209 1238.5 185.0Q1241 161 1244 140Q1277 145 1309.0 150.0Q1341 155 1366.0 160.0Q1391 165 1401 170Q1400 160 1398.5 149.0Q1397 138 1397 127Q1397 107 1401 90Q1392 94 1367.0 99.5Q1342 105 1310.5 110.5Q1279 116 1247 120Q1251 94 1255.5 71.0Q1260 48 1264 28Z" />
  </g>
</svg>