<svg xmlns="http://www.w3.org/2000/svg" viewBox="100 -302 1905 1548">
  <g transform="translate(0, 944) scale(1, -1)">
    <path fill="black" d="M760 596 750 607Q772 632 789.5 652.0Q807 672 821 689V692H823Q834 706 843.5 718.0Q853 730 862 741Q868 733 878.0 722.0Q888 711 900 697L974 703Q971 724 968.0 746.0Q965 768 961 787Q930 804 906.0 816.5Q882 829 862 842Q845 832 818.5 814.0Q792 796 760 771L750 782Q772 807 789.5 827.0Q807 847 821 864V867H823Q834 881 843.5 893.0Q853 905 862 916Q865 912 868.5 908.0Q872 904 876 899Q868 971 861.5 1019.5Q855 1068 848.5 1102.0Q842 1136 834 1163Q828 1135 828 1105Q828 1077 834 1045Q818 1054 804.5 1063.0Q791 1072 771.5 1081.0Q752 1090 716 1097V1113Q752 1120 771.5 1128.5Q791 1137 804.5 1146.0Q818 1155 834 1164Q828 1184 821.0 1203.5Q814 1223 806 1246Q842 1240 880 1240Q916 1240 956 1246Q945 1216 936.5 1185.5Q928 1155 922.0 1114.5Q916 1074 911.5 1016.0Q907 958 903 872Q989 878 1047.0 884.0Q1105 890 1145.0 895.5Q1185 901 1215.5 908.0Q1246 915 1276.0 923.0Q1306 931 1344 942Q1340 924 1338.0 905.5Q1336 887 1336 868Q1336 849 1338.0 830.0Q1340 811 1344 791Q1318 798 1294.5 804.5Q1271 811 1245 816Q1241 803 1237.5 781.0Q1234 759 1230 736Q1257 742 1283.5 749.5Q1310 757 1344 767Q1340 749 1338.0 730.5Q1336 712 1336 693Q1336 674 1338.0 654.5Q1340 635 1344 615Q1305 626 1270.0 634.5Q1235 643 1191.5 649.5Q1148 656 1084.5 661.0Q1021 666 926 670Q940 657 954.5 642.5Q969 628 985 615L978 603Q941 623 913.0 638.0Q885 653 862 667Q845 657 818.5 639.0Q792 621 760 596ZM234 225Q227 260 218.0 280.0Q209 300 200.0 313.0Q191 326 182 341Q162 336 142.5 329.0Q123 322 100 314Q103 332 105.0 349.5Q107 367 107 386Q107 405 105.0 424.5Q103 444 100 465Q131 453 161.5 444.0Q192 435 232.0 428.5Q272 422 330.0 417.0Q388 412 473 408Q473 408 475 410Q469 496 463.0 554.5Q457 613 451.0 653.5Q445 694 438.5 724.5Q432 755 424.0 785.0Q416 815 405 853Q422 849 440.5 847.0Q459 845 478 845Q497 845 516.5 847.0Q536 849 556 853Q549 827 542.5 803.5Q536 780 531 754Q545 750 566.5 746.0Q588 742 610 738Q604 766 596.5 792.5Q589 819 580 853Q597 849 615.5 847.0Q634 845 653 845Q672 845 691.5 847.0Q711 849 731 853Q720 814 711.5 779.0Q703 744 696.5 700.5Q690 657 685.0 594.0Q680 531 676 435Q705 462 732 494L743 487Q723 450 708.5 421.5Q694 393 680 370Q690 354 707.5 327.5Q725 301 750 268L739 259Q714 282 693.0 299.5Q672 317 655 331Q642 342 629.5 351.5Q617 361 605 370L650 410L644 482Q623 479 600.0 476.0Q577 473 558 469Q542 439 529.5 414.5Q517 390 505 370Q515 354 532.5 327.5Q550 301 575 268L564 259Q539 282 518.0 299.5Q497 317 480 331Q467 342 454.5 351.5Q442 361 430 370Q433 372 436.5 375.0Q440 378 444 382Q373 374 325.0 368.0Q277 362 244.0 356.0Q211 350 183 342Q197 339 210.5 338.0Q224 337 239 337Q253 337 269.0 338.0Q285 339 302 342Q293 327 283.5 313.5Q274 300 265.5 280.5Q257 261 249 225ZM984 703Q1003 705 1020.0 707.0Q1037 709 1053 710Q1048 745 1042.5 780.5Q1037 816 1032 828Q1046 826 1059.5 825.0Q1073 824 1088 828Q1083 817 1077.0 781.5Q1071 746 1066 711Q1085 713 1101.5 715.0Q1118 717 1133 719Q1128 753 1122.5 785.0Q1117 817 1112 828Q1126 826 1139.5 825.0Q1153 824 1167 828Q1124 833 1066.5 837.5Q1009 842 926 845L955 817Q954 820 953.0 823.0Q952 826 951 828Q965 826 979.0 825.0Q993 824 1007 828Q1004 820 1000.0 799.5Q996 779 991.5 753.0Q987 727 984 703ZM1194 824Q1181 826 1168 828Q1163 817 1157.0 785.5Q1151 754 1147 721Q1165 723 1181.0 726.0Q1197 729 1211 732Q1207 761 1203.0 786.5Q1199 812 1194 824ZM501 435Q516 448 529 463L519 460Q521 474 521.5 487.5Q522 501 519 516Q527 513 547.0 508.5Q567 504 593.0 500.0Q619 496 643 493L637 562Q602 558 566.0 552.0Q530 546 519 541Q521 555 521.5 568.5Q522 582 519 597Q530 592 565.5 585.5Q601 579 636 574L628 641Q594 636 562.0 631.0Q530 626 519 621Q521 635 521.5 648.5Q522 662 519 677Q529 673 561.0 667.0Q593 661 626 656Q623 675 620.0 690.5Q617 706 614 720Q586 716 559.5 712.0Q533 708 522 703Q515 658 510.0 595.0Q505 532 501 435ZM1374 -100Q1385 -61 1393.0 -26.0Q1401 9 1407.5 52.5Q1414 96 1419.0 159.0Q1424 222 1428 318Q1415 305 1400.5 290.0Q1386 275 1373 259L1362 266Q1382 303 1397.0 331.5Q1412 360 1425 382Q1415 399 1397.5 425.5Q1380 452 1355 485L1366 494Q1392 472 1412.0 454.0Q1432 436 1449 422H1450V421Q1464 410 1476.0 400.5Q1488 391 1500 382Q1492 375 1480.5 365.5Q1469 356 1455 343L1461 270Q1482 273 1504.5 276.0Q1527 279 1546 283Q1563 313 1575.5 337.5Q1588 362 1600 382Q1590 399 1572.5 425.5Q1555 452 1530 485L1541 494Q1567 472 1587.0 454.0Q1607 436 1624 422H1625V421Q1639 410 1651.0 400.5Q1663 391 1675 382L1661 371Q1732 379 1779.5 385.0Q1827 391 1860.0 397.0Q1893 403 1920 410Q1892 416 1862 416Q1835 416 1803 410Q1812 426 1821.5 439.5Q1831 453 1840.0 473.0Q1849 493 1856 528H1871Q1879 493 1887.0 473.0Q1895 453 1904.0 440.0Q1913 427 1922 411Q1942 416 1962.0 423.0Q1982 430 2005 438Q1998 404 1998 366Q1998 347 1999.5 328.0Q2001 309 2005 288Q1974 299 1943.5 307.5Q1913 316 1873.0 322.5Q1833 329 1775.5 334.5Q1718 340 1632 344L1630 343Q1636 257 1641.5 198.5Q1647 140 1653.0 99.5Q1659 59 1666.0 28.5Q1673 -2 1681.5 -32.0Q1690 -62 1700 -100Q1682 -96 1664.0 -94.0Q1646 -92 1627 -92Q1591 -92 1549 -100Q1556 -74 1562.5 -50.0Q1569 -26 1574 -1Q1561 3 1539.0 6.5Q1517 10 1494 14Q1501 -13 1508.0 -39.0Q1515 -65 1525 -100Q1507 -96 1489.0 -94.0Q1471 -92 1452 -92Q1416 -92 1374 -100ZM1138 -302Q1149 -272 1158.0 -241.5Q1167 -211 1173.5 -171.0Q1180 -131 1185.0 -72.5Q1190 -14 1194 71L1193 72Q1107 66 1048.5 60.0Q990 54 949.5 48.5Q909 43 878.5 36.0Q848 29 818.0 21.0Q788 13 750 2Q759 38 759 76Q759 113 750 153Q776 146 800.0 139.5Q824 133 849 128Q853 142 857.0 163.5Q861 185 864 208Q814 196 750 177Q759 213 759 251Q759 288 750 328Q789 317 824.0 308.5Q859 300 902.5 293.5Q946 287 1009.5 282.0Q1073 277 1168 273Q1155 287 1140.0 301.5Q1125 316 1110 329L1117 341Q1154 321 1182.5 306.0Q1211 291 1233 277Q1250 288 1276.5 305.5Q1303 323 1335 348L1344 337Q1322 312 1304.5 291.5Q1287 271 1273 254V252H1271Q1260 239 1250.5 226.0Q1241 213 1233 202Q1226 210 1216.0 222.0Q1206 234 1193 247L1120 241L1133 157Q1164 141 1188.5 128.0Q1213 115 1233 102Q1250 113 1276.5 130.5Q1303 148 1335 173L1344 162Q1322 137 1304.5 116.5Q1287 96 1273 79V77H1271Q1260 64 1250.5 51.0Q1241 38 1233 27L1222 40Q1230 -30 1235.5 -77.5Q1241 -125 1247.5 -158.0Q1254 -191 1261 -219Q1263 -205 1264.5 -191.0Q1266 -177 1266 -162Q1266 -148 1264.5 -132.5Q1263 -117 1261 -101Q1277 -110 1290.0 -119.0Q1303 -128 1323.0 -136.5Q1343 -145 1378 -153V-169Q1343 -176 1323.0 -184.5Q1303 -193 1290.0 -202.0Q1277 -211 1261 -220Q1267 -240 1273.5 -259.5Q1280 -279 1289 -302Q1252 -296 1214 -296Q1179 -296 1138 -302ZM1490 32Q1519 37 1545.0 41.0Q1571 45 1583 49Q1590 94 1594.5 157.5Q1599 221 1603 318L1575 289Q1582 290 1586 293Q1584 280 1583.5 265.5Q1583 251 1586 237Q1579 240 1558.0 244.5Q1537 249 1511.5 253.0Q1486 257 1462 260L1468 190Q1503 195 1539.0 201.0Q1575 207 1586 212Q1584 199 1583.5 185.0Q1583 171 1586 156Q1579 159 1560.0 163.0Q1541 167 1516.5 171.0Q1492 175 1469 178Q1471 159 1473.0 142.5Q1475 126 1477 112Q1511 117 1543.5 122.0Q1576 127 1586 132Q1584 119 1583.5 104.5Q1583 90 1586 76Q1576 80 1544.0 86.0Q1512 92 1479 96Q1481 78 1484.0 62.0Q1487 46 1490 32ZM1168 98Q1161 106 1154.0 113.0Q1147 120 1139 127Q1140 123 1141.0 120.5Q1142 118 1143 116Q1130 118 1116.0 119.0Q1102 120 1087 116Q1091 124 1095.0 144.5Q1099 165 1103.0 191.0Q1107 217 1110 240L1041 234Q1046 198 1051.5 163.0Q1057 128 1063 116Q1049 118 1035.0 119.0Q1021 120 1007 116Q1012 127 1018.5 163.0Q1025 199 1029 233L962 225Q967 191 972.0 159.0Q977 127 982 116Q969 118 955.0 119.0Q941 120 926 116Q931 127 936.5 158.5Q942 190 946 223Q928 220 912.5 217.5Q897 215 883 212Q887 183 891.5 157.0Q896 131 900 119Q945 112 1008.0 107.0Q1071 102 1168 98Z" />
  </g>
</svg>