<svg xmlns="http://www.w3.org/2000/svg" viewBox="100 -243 1844 1079">
  <g transform="translate(0, 593) scale(1, -1)">
    <path fill="black" d="M100 -243Q106 -210 106 -168Q106 -130 100 -91Q111 -96 177.0 -101.0Q243 -106 350.0 -110.5Q457 -115 588 -120L584 -64Q536 -69 493.5 -73.5Q451 -78 421.5 -83.0Q392 -88 382 -93Q388 -60 388 -25Q388 -10 387.0 5.5Q386 21 382 37Q391 33 420.0 28.0Q449 23 490.5 17.5Q532 12 580 7L575 92Q505 85 451.0 78.0Q397 71 382 64Q388 97 388 132Q388 147 387.0 162.5Q386 178 382 194Q395 188 448.5 180.5Q502 173 571 165L566 244Q499 237 447.5 230.5Q396 224 382 217Q388 250 388 285Q388 300 387.0 315.5Q386 331 382 347Q395 341 445.0 334.0Q495 327 562 319L557 396Q493 389 444.5 382.5Q396 376 382 370Q388 403 388 438Q388 453 387.0 468.5Q386 484 382 500Q394 495 441.5 488.0Q489 481 552 473L546 552Q486 544 440.5 536.5Q395 529 381 523Q387 556 387 598Q387 615 386.0 631.5Q385 648 381 664Q392 659 436.0 652.0Q480 645 539 638Q537 656 535.5 669.0Q534 682 532 689Q465 682 404.5 674.5Q344 667 300.5 659.0Q257 651 240 643Q243 660 244.5 682.0Q246 704 246 728Q246 776 240 815Q254 808 295.5 800.5Q337 793 396.5 786.0Q456 779 524.0 772.5Q592 766 660.0 760.5Q728 755 786 751Q782 774 776.5 795.0Q771 816 766 836Q817 824 871 824Q925 824 982 836Q948 712 929.0 471.5Q910 231 899 -129Q1018 -132 1136.5 -135.0Q1255 -138 1364.0 -140.0Q1473 -142 1565.5 -144.5Q1658 -147 1726.5 -148.5Q1795 -150 1830 -152Q1821 -21 1813.5 87.0Q1806 195 1798 284Q1763 281 1713.5 277.5Q1664 274 1609 270Q1604 206 1599.0 139.5Q1594 73 1590.5 11.0Q1587 -51 1584 -102H1561Q1556 -25 1550.0 73.0Q1544 171 1537 265L1472 260Q1464 166 1457.5 69.5Q1451 -27 1448 -102H1425Q1420 -27 1414.5 68.0Q1409 163 1402 255L1335 251Q1327 159 1321.0 65.5Q1315 -28 1312 -102H1289Q1284 -29 1278.5 63.0Q1273 155 1266 245L1198 239Q1191 150 1185.0 59.5Q1179 -31 1176 -102H1153Q1149 -31 1143.5 57.0Q1138 145 1131 233Q1067 227 1022.0 220.0Q977 213 963 206Q966 223 967.5 245.0Q969 267 969 291Q969 339 963 378Q975 372 1017.5 366.0Q1060 360 1121 354Q1114 426 1106.0 481.5Q1098 537 1088 562Q1124 555 1165 555Q1179 555 1194.0 556.0Q1209 557 1225 559Q1224 560 1224 562L1232 560L1241 562Q1240 561 1240 559Q1255 557 1270.0 556.0Q1285 555 1301 555Q1315 555 1330.0 556.0Q1345 557 1361 559Q1360 560 1360 562L1368 560L1377 562Q1376 561 1376 559Q1391 557 1406.0 556.0Q1421 555 1437 555Q1451 555 1466.0 556.0Q1481 557 1497 559Q1496 560 1496 562L1504 560L1513 562Q1512 561 1512 559Q1526 557 1541.0 556.0Q1556 555 1571 555Q1590 555 1609.0 556.5Q1628 558 1649 562Q1639 539 1630.0 472.0Q1621 405 1613 318L1796 308Q1783 448 1767.0 549.5Q1751 651 1728 736Q1779 724 1833 724Q1887 724 1944 736Q1910 611 1891.0 370.5Q1872 130 1861 -232H1835Q1834 -216 1833.0 -201.5Q1832 -187 1831 -172Q1794 -175 1716.0 -178.0Q1638 -181 1531.0 -184.0Q1424 -187 1299.0 -190.5Q1174 -194 1040.5 -197.5Q907 -201 777.0 -205.0Q647 -209 530.0 -213.5Q413 -218 320.5 -222.5Q228 -227 170.0 -232.0Q112 -237 100 -243ZM810 610Q806 638 802.5 663.5Q799 689 794 713Q739 708 675.0 702.5Q611 697 546 690Q570 687 591 687Q627 687 661 693Q659 688 656.5 670.5Q654 653 651 626ZM829 445Q825 483 821.5 518.0Q818 553 813 585L646 564Q645 542 643.0 516.5Q641 491 639 464ZM1532 323Q1527 388 1520.0 443.0Q1513 498 1505 532Q1498 500 1491.0 446.0Q1484 392 1478 327ZM1395 332Q1390 394 1383.5 446.5Q1377 499 1369 532Q1362 501 1355.5 449.5Q1349 398 1343 336ZM1258 342Q1253 401 1247.0 451.0Q1241 501 1233 532Q1226 502 1220.0 453.5Q1214 405 1208 346Q1220 345 1232.5 344.0Q1245 343 1258 342ZM842 291Q840 326 837.0 359.5Q834 393 831 424Q791 419 740.0 413.5Q689 408 636 403Q635 381 633.5 358.0Q632 335 631 311Q655 329 677.5 350.5Q700 372 719 401Q724 388 741.0 360.0Q758 332 782 296ZM849 205Q848 222 846.5 239.0Q845 256 844 272Q834 271 823.5 270.0Q813 269 802 267Q813 252 824.5 236.5Q836 221 849 205ZM853 136Q853 141 853.0 145.0Q853 149 852 153Q814 182 778.0 209.0Q742 236 711 258Q691 256 670.0 254.0Q649 252 628 250L623 159ZM864 -21 854 121Q810 115 747.0 108.5Q684 102 619 96L614 3Q685 -4 753.0 -10.5Q821 -17 864 -21ZM871 -128 865 -34Q820 -41 750.0 -47.5Q680 -54 609 -62Q608 -78 607.0 -93.0Q606 -108 604 -120Q668 -122 735.0 -124.0Q802 -126 871 -128Z" />
  </g>
</svg>