<svg xmlns="http://www.w3.org/2000/svg" viewBox="100 -51 470 785">
  <g transform="translate(0, 683) scale(1, -1)">
    <path fill="black" d="M215 -51 208 -43Q240 -5 277.0 44.5Q314 94 349 143Q270 197 203.5 237.0Q137 277 100 291Q131 314 160.5 341.0Q190 368 214 405Q219 393 228.0 376.0Q237 359 249 338Q272 368 296.5 401.0Q321 434 344 466Q266 520 201.0 563.0Q136 606 100 619Q131 642 160.5 669.0Q190 696 214 734Q223 713 244.0 674.0Q265 635 295.5 587.5Q326 540 362 491Q397 541 423.0 581.0Q449 621 456 639Q480 602 509.5 575.0Q539 548 570 525Q551 518 517.5 496.0Q484 474 442.0 443.5Q400 413 354.0 379.0Q308 345 264 313Q284 280 310.5 242.5Q337 205 365 167Q399 215 424.0 254.0Q449 293 456 311Q480 273 509.5 246.0Q539 219 570 196Q549 188 508.5 161.0Q468 134 417.5 96.5Q367 59 314.5 20.0Q262 -19 215 -51Z" />
  </g>
</svg>