<svg xmlns="http://www.w3.org/2000/svg" viewBox="100 -112 840 948">
  <g transform="translate(0, 724) scale(1, -1)">
    <path fill="black" d="M713 -112 705 -1Q598 -9 521.0 -16.5Q444 -24 387.0 -32.0Q330 -40 284.5 -49.5Q239 -59 195.5 -70.5Q152 -82 100 -96Q112 -45 112 9Q112 63 100 120Q126 113 151.0 106.5Q176 100 201 94Q197 142 192.5 201.5Q188 261 182.5 323.0Q177 385 171.0 442.0Q165 499 157.0 544.0Q149 589 139 613Q155 610 170.0 608.5Q185 607 201 606Q213 657 213 710Q213 763 201 820Q247 807 288.0 796.5Q329 786 375.0 777.5Q421 769 481.5 762.5Q542 756 627 750L606 836Q657 824 711 824Q765 824 822 836Q810 795 801 741L940 737V711L794 701Q776 589 764.0 427.0Q752 265 744 41L888 37V11L742 1L739 -112ZM653 601 639 688Q543 679 482.0 670.0Q421 661 374 650Q412 635 485.5 622.0Q559 609 653 601ZM702 43 697 126Q591 117 507.5 106.0Q424 95 373 74Q379 109 379 144Q379 154 378.5 164.0Q378 174 377 184Q373 182 373 182Q374 186 374.5 189.5Q375 193 375 197Q375 201 374.5 204.5Q374 208 373 212Q375 210 377 210Q378 220 378.5 230.5Q379 241 379 251Q379 262 378.5 272.5Q378 283 377 294Q376 294 375.0 293.5Q374 293 373 293L375 307Q373 315 373 320L377 318Q378 329 378.5 339.5Q379 350 379 360Q379 371 378.5 382.0Q378 393 377 404Q376 404 375.0 403.5Q374 403 373 403Q374 407 374.5 410.5Q375 414 375 418Q375 421 374.5 424.0Q374 427 373 431Q375 429 377 429Q378 439 378.5 449.5Q379 460 379 470Q379 481 378.5 492.0Q378 503 377 514Q376 514 375.0 513.5Q374 513 373 513Q374 517 374.5 520.5Q375 524 375 528Q375 531 374.5 534.0Q374 537 373 541Q375 539 377 539Q379 549 379.0 559.5Q379 570 379 580Q379 613 373 650Q333 641 295.5 630.5Q258 620 210 606Q226 606 242.5 608.0Q259 610 277 613Q269 593 261.5 548.5Q254 504 248.0 445.0Q242 386 237.0 322.0Q232 258 228.5 197.5Q225 137 223 90Q276 79 340.5 70.5Q405 62 492.5 55.5Q580 49 702 43ZM666 490Q665 509 662.5 526.5Q660 544 658 561Q585 555 523.5 547.0Q462 539 416 527Q460 515 525.0 505.5Q590 496 666 490ZM677 379Q676 399 674.0 417.0Q672 435 670 452Q593 445 528.0 437.5Q463 430 416 417Q462 405 530.0 395.0Q598 385 677 379ZM686 267 680 343Q599 336 531.5 328.0Q464 320 414 306Q461 294 532.0 283.5Q603 273 686 267ZM695 159 689 233Q607 226 538.5 218.0Q470 210 420 197Q468 184 540.0 174.0Q612 164 695 159Z" />
  </g>
</svg>