<svg xmlns="http://www.w3.org/2000/svg" viewBox="100 -234 1414 1025">
  <g transform="translate(0, 557) scale(1, -1)">
    <path fill="black" d="M473 -234Q485 -183 485 -129Q485 -75 473 -18Q495 -26 518.0 -34.5Q541 -43 566 -51Q564 119 552.0 257.0Q540 395 522 502Q442 493 388.5 483.0Q335 473 293.0 460.5Q251 448 206 430Q243 432 283 439Q261 385 244.5 328.0Q228 271 218 186Q259 171 305.0 159.0Q351 147 412.0 139.5Q473 132 557 128V106Q481 98 427.5 90.0Q374 82 333.5 72.0Q293 62 256.5 49.0Q220 36 178 19Q180 33 182.0 47.0Q184 61 185 75Q178 147 170.0 198.0Q162 249 152.0 288.0Q142 327 129.5 362.5Q117 398 100 439Q139 432 180 430Q183 450 185.0 469.0Q187 488 187 508Q187 551 178 602Q222 584 268.0 569.5Q314 555 373.5 545.0Q433 535 517 530Q507 591 495.0 642.0Q483 693 472 736Q523 724 577 724Q603 724 630.0 727.0Q657 730 685 735L678 791Q728 771 779.0 755.5Q830 740 903 730Q903 732 902.5 733.5Q902 735 902 736Q953 724 1007 724Q1061 724 1118 736Q1110 706 1101.5 671.5Q1093 637 1085 599Q1136 578 1190.5 562.5Q1245 547 1324 538Q1318 565 1311.5 590.5Q1305 616 1298 640Q1349 628 1403 628Q1457 628 1514 640Q1486 540 1460.5 413.5Q1435 287 1424 128H1437V106L1423 104Q1421 70 1420.0 33.0Q1419 -4 1419 -42H1393Q1393 -4 1392.0 31.5Q1391 67 1389 101Q1328 94 1285.5 86.0Q1243 78 1210.5 68.5Q1178 59 1147.5 47.0Q1117 35 1078 19Q1087 64 1087 108Q1087 151 1078 202Q1121 184 1161.5 170.0Q1202 156 1255.0 146.0Q1308 136 1387 130Q1380 234 1366.0 324.0Q1352 414 1335 491Q1303 486 1276.0 481.0Q1249 476 1226 470L1289 467V454Q1258 453 1220.0 450.0Q1182 447 1143 444Q1127 439 1111.0 432.5Q1095 426 1078 419L1081 439L1057 437Q1042 328 1032.5 192.0Q1023 56 1023 -111Q1054 -112 1086.5 -112.5Q1119 -113 1155 -113V-139Q1001 -139 890.0 -147.5Q779 -156 700.5 -170.0Q622 -184 567.5 -201.0Q513 -218 473 -234ZM652 449Q665 449 678.0 450.5Q691 452 704 454V455Q705 455 705.5 454.5Q706 454 707 454Q708 454 708.5 454.5Q709 455 710 455L709 454Q721 452 734.0 450.5Q747 449 760 449Q766 449 772.0 449.0Q778 449 785 450Q785 452 784.5 453.0Q784 454 784 455L801 452L820 455Q818 451 818 450Q824 449 829.5 449.0Q835 449 841 449Q854 449 868.0 450.5Q882 452 897 454V466Q897 481 895.5 495.5Q894 510 892 523Q903 519 918.5 514.5Q934 510 952 505Q944 554 935.0 597.0Q926 640 917 677Q866 669 827.5 659.5Q789 650 754.0 637.5Q719 625 678 608Q682 630 684.0 652.0Q686 674 686 696Q686 704 686.0 712.0Q686 720 685 728Q671 673 656.5 604.0Q642 535 629 450Q635 449 640.5 449.0Q646 449 652 449ZM1086 484V504Q1086 522 1085.0 541.0Q1084 560 1081 579Q1077 557 1073.0 534.0Q1069 511 1065 486ZM997 -110Q997 51 987.5 184.0Q978 317 964 424Q915 416 892 407Q894 418 895.0 427.5Q896 437 897 447Q888 421 881.0 374.5Q874 328 868.5 271.5Q863 215 859.0 159.0Q855 103 853 58H840Q834 114 828.0 181.0Q822 248 814 309Q798 265 787.5 204.5Q777 144 773 58H760Q753 123 745.5 169.0Q738 215 728.5 252.0Q719 289 704 325Q711 324 718.0 322.5Q725 321 732 320Q727 358 721.0 391.0Q715 424 707 446Q698 420 691.0 373.5Q684 327 678.5 271.0Q673 215 669.0 159.0Q665 103 663 58H650Q645 103 640.0 155.0Q635 207 629.5 259.0Q624 311 617 355Q607 267 601.0 164.0Q595 61 593 -58Q661 -77 756.0 -91.0Q851 -105 997 -110ZM794 321Q799 321 803.5 322.0Q808 323 812 324Q810 339 807.5 354.0Q805 369 802 382Q800 369 798.0 353.5Q796 338 794 321Z" />
  </g>
</svg>