<svg xmlns="http://www.w3.org/2000/svg" viewBox="100 -234 1414 1025">
  <g transform="translate(0, 557) scale(1, -1)">
    <path fill="black" d="M473 -234Q485 -183 485 -129Q485 -75 473 -18Q495 -26 518.0 -34.5Q541 -43 566 -51Q564 119 552.0 257.0Q540 395 522 502Q442 493 388.5 483.0Q335 473 293.0 460.5Q251 448 206 430Q243 432 283 439Q261 385 244.5 328.0Q228 271 218 186Q259 171 305.0 159.0Q351 147 412.0 139.5Q473 132 557 128V106Q481 98 427.5 90.0Q374 82 333.5 72.0Q293 62 256.5 49.0Q220 36 178 19Q180 33 182.0 47.0Q184 61 185 75Q178 147 170.0 198.0Q162 249 152.0 288.0Q142 327 129.5 362.5Q117 398 100 439Q139 432 180 430Q183 450 185.0 469.0Q187 488 187 508Q187 551 178 602Q222 584 268.0 569.5Q314 555 373.5 545.0Q433 535 517 530Q507 591 495.0 642.0Q483 693 472 736Q523 724 577 724Q603 724 630.0 727.0Q657 730 685 735L678 791Q728 771 779.0 755.5Q830 740 903 730Q903 732 902.5 733.5Q902 735 902 736Q953 724 1007 724Q1061 724 1118 736Q1110 706 1101.5 671.5Q1093 637 1085 599Q1136 578 1190.5 562.5Q1245 547 1324 538Q1318 565 1311.5 590.5Q1305 616 1298 640Q1349 628 1403 628Q1457 628 1514 640Q1486 540 1460.5 413.5Q1435 287 1424 128H1437V106L1423 104Q1421 70 1420.0 33.0Q1419 -4 1419 -42H1393Q1393 -4 1392.0 31.5Q1391 67 1389 101Q1328 94 1285.5 86.0Q1243 78 1210.5 68.5Q1178 59 1147.5 47.0Q1117 35 1078 19Q1082 41 1084.0 63.0Q1086 85 1086 107Q1086 123 1085.0 139.0Q1084 155 1082 171Q1061 183 1033 197Q1028 127 1025.5 50.5Q1023 -26 1023 -111Q1054 -112 1086.5 -112.5Q1119 -113 1155 -113V-139Q1001 -139 890.0 -147.5Q779 -156 700.5 -170.0Q622 -184 567.5 -201.0Q513 -218 473 -234ZM997 -110Q997 72 985 220Q966 229 951.0 235.0Q936 241 931 242Q942 254 949.0 266.5Q956 279 963 292Q967 285 981 272L977 309Q967 299 963 293Q956 306 949.0 318.5Q942 331 931 343Q940 344 972 359Q961 456 946.5 535.0Q932 614 917 677Q866 669 827.5 659.5Q789 650 754.0 637.5Q719 625 678 608Q682 630 684.0 652.0Q686 674 686 696Q686 704 686.0 712.0Q686 720 685 728Q653 608 624.5 415.5Q596 223 593 -58Q661 -77 756.0 -91.0Q851 -105 997 -110ZM1387 130Q1380 234 1366.0 324.0Q1352 414 1335 491Q1278 483 1236.5 473.0Q1195 463 1158.0 450.0Q1121 437 1078 419Q1083 440 1084.5 461.5Q1086 483 1086 505Q1086 523 1085.0 541.5Q1084 560 1081 579Q1074 539 1066.5 493.5Q1059 448 1052 398Q1069 407 1084.0 415.0Q1099 423 1109 430L1114 423Q1103 416 1085.5 402.0Q1068 388 1049 373Q1045 339 1041.5 301.5Q1038 264 1035 224Q1046 214 1058.0 204.5Q1070 195 1080 187Q1080 191 1079.5 194.5Q1079 198 1078 202Q1121 184 1161.5 170.0Q1202 156 1255.0 146.0Q1308 136 1387 130ZM630 205Q635 228 637.0 246.5Q639 265 639 284Q639 317 630 368Q679 340 756.0 322.0Q833 304 949 304V282Q872 282 811.5 268.5Q751 255 706.0 237.0Q661 219 630 205Z" />
  </g>
</svg>