<svg xmlns="http://www.w3.org/2000/svg" viewBox="100 -234 1414 1025">
  <g transform="translate(0, 557) scale(1, -1)">
    <path fill="black" d="M473 -234Q485 -183 485 -129Q485 -75 473 -18Q495 -26 518.0 -34.5Q541 -43 566 -51Q565 74 558.0 181.0Q551 288 540 379Q467 366 414 345Q440 342 464 342Q501 342 535 349Q516 304 504.0 250.5Q492 197 483 132Q500 131 518.5 130.0Q537 129 557 128V106L478 97Q474 70 471.0 41.5Q468 13 465 -18H448Q447 11 444.5 38.5Q442 66 440 92Q382 84 339.5 73.5Q297 63 259.5 50.0Q222 37 178 19Q180 33 182.0 47.0Q184 61 185 75Q178 147 170.0 198.0Q162 249 152.0 288.0Q142 327 129.5 362.5Q117 398 100 439Q139 432 180 430Q183 450 185.0 469.0Q187 488 187 508Q187 551 178 602Q222 584 268.0 569.5Q314 555 373.5 545.0Q433 535 517 530Q507 591 495.0 642.0Q483 693 472 736Q523 724 577 724Q603 724 630.0 727.0Q657 730 685 735L678 791Q728 771 779.0 755.5Q830 740 903 730Q903 732 902.5 733.5Q902 735 902 736Q953 724 1007 724Q1061 724 1118 736Q1110 706 1101.5 671.5Q1093 637 1085 599Q1136 578 1190.5 562.5Q1245 547 1324 538Q1318 565 1311.5 590.5Q1305 616 1298 640Q1349 628 1403 628Q1457 628 1514 640Q1486 540 1460.5 413.5Q1435 287 1424 128H1437V106L1423 104Q1421 70 1420.0 33.0Q1419 -4 1419 -42H1393Q1393 -4 1392.0 31.5Q1391 67 1389 101Q1328 94 1285.5 86.0Q1243 78 1210.5 68.5Q1178 59 1147.5 47.0Q1117 35 1078 19Q1087 64 1087 108Q1087 151 1078 202L1090 196L1088 222L1034 217Q1029 144 1026.0 62.0Q1023 -20 1023 -111Q1054 -112 1086.5 -112.5Q1119 -113 1155 -113V-139Q1001 -139 890.0 -147.5Q779 -156 700.5 -170.0Q622 -184 567.5 -201.0Q513 -218 473 -234ZM809 446Q817 446 825.0 446.5Q833 447 841 448V450Q842 450 843.0 449.5Q844 449 845 449Q846 449 847.0 449.5Q848 450 849 450V449Q870 446 889 446Q895 446 900.5 446.0Q906 446 912 447L911 450L921 448L929 450L928 448Q936 447 944.5 446.5Q953 446 961 446Q951 514 939.5 571.5Q928 629 917 677Q866 669 827.5 659.5Q789 650 754.0 637.5Q719 625 678 608Q682 630 684.0 652.0Q686 674 686 696Q686 704 686.0 712.0Q686 720 685 728Q672 679 658.5 617.0Q645 555 634 481Q667 475 701 475Q718 475 736.5 476.5Q755 478 775 482Q772 475 769.5 467.0Q767 459 764 449Q787 446 809 446ZM1082 445Q1084 460 1085.0 475.5Q1086 491 1086 507Q1086 524 1085.0 542.0Q1084 560 1081 579Q1075 549 1069.5 516.0Q1064 483 1059 447Q1065 446 1071.0 445.5Q1077 445 1082 445ZM531 447 522 502Q489 498 461.0 494.5Q433 491 409 487Q440 474 469.0 464.5Q498 455 531 447ZM1387 130Q1380 234 1366.0 324.0Q1352 414 1335 491Q1274 482 1230.0 471.0Q1186 460 1144 445Q1164 446 1185 451Q1169 410 1157.0 362.5Q1145 315 1136 257Q1159 256 1181.5 255.0Q1204 254 1224 253V236L1132 227L1126 182Q1159 170 1194.5 159.5Q1230 149 1276.5 142.0Q1323 135 1387 130ZM436 137Q428 203 416.5 257.5Q405 312 389 349L408 345Q415 381 415 417Q415 435 413.5 452.5Q412 470 408 487Q345 477 300.0 463.5Q255 450 206 430Q243 432 283 439Q261 385 244.5 328.0Q228 271 218 186Q263 170 314.0 157.5Q365 145 436 137ZM646 427Q643 440 639.5 451.0Q636 462 632 472L627 430ZM997 -110Q997 -21 994.0 59.0Q991 139 986 211Q914 203 852.0 192.0Q790 181 753 166Q760 200 760 238Q760 255 758.5 273.5Q757 292 753 312Q760 309 769.5 305.5Q779 302 789 300Q783 345 780.0 384.0Q777 423 763 445Q754 408 746.0 355.0Q738 302 732.0 241.5Q726 181 722.0 121.5Q718 62 716 11H699Q693 72 686.0 140.5Q679 209 671.0 275.0Q663 341 652 395L621 391Q610 297 602.5 185.0Q595 73 593 -58Q661 -77 756.0 -91.0Q851 -105 997 -110ZM872 284Q865 330 858.5 373.5Q852 417 845 439Q838 418 831.0 377.0Q824 336 818 293ZM943 274Q938 313 932.0 352.0Q926 391 920 418Q914 393 907.5 355.5Q901 318 896 281ZM1083 261Q1077 304 1070.0 341.0Q1063 378 1054 408Q1050 375 1046.0 339.0Q1042 303 1038 265Q1049 264 1060.5 263.0Q1072 262 1083 261ZM981 270Q980 287 978.0 304.0Q976 321 974 337L965 272Q969 272 973.0 271.5Q977 271 981 270Z" />
  </g>
</svg>