<svg xmlns="http://www.w3.org/2000/svg" viewBox="100 -234 1414 1025">
  <g transform="translate(0, 557) scale(1, -1)">
    <path fill="black" d="M473 -234Q485 -183 485 -129Q485 -75 473 -18Q495 -26 518.0 -34.5Q541 -43 566 -51Q565 8 563.0 63.0Q561 118 558 170Q527 165 501.5 160.0Q476 155 465 150Q467 161 468.0 172.0Q469 183 469 194Q469 199 469.0 203.0Q469 207 468 211Q467 211 466.5 210.5Q466 210 465 210Q465 213 465.5 215.5Q466 218 466 221Q466 223 465.5 225.5Q465 228 465 230Q465 229 467 229Q468 235 468.5 241.5Q469 248 469 254Q469 259 468.5 263.0Q468 267 468 271Q467 271 466.5 270.5Q466 270 465 270Q465 273 465.5 275.5Q466 278 466 281Q466 283 465.5 285.5Q465 288 465 290Q465 289 467 289Q468 295 468.5 301.5Q469 308 469 314Q469 319 468.5 323.0Q468 327 468 331Q467 331 466.5 330.5Q466 330 465 330Q465 333 465.5 335.5Q466 338 466 341Q466 343 465.5 345.5Q465 348 465 350Q465 349 467 349Q468 355 468.0 361.5Q468 368 468 374Q468 392 465 410Q473 406 493.0 402.0Q513 398 538 393Q534 422 530.5 449.5Q527 477 522 502Q442 493 388.5 483.0Q335 473 293.0 460.5Q251 448 206 430Q243 432 283 439Q261 385 244.5 328.0Q228 271 218 186Q259 171 305.0 159.0Q351 147 412.0 139.5Q473 132 557 128V106Q481 98 427.5 90.0Q374 82 333.5 72.0Q293 62 256.5 49.0Q220 36 178 19Q180 33 182.0 47.0Q184 61 185 75Q178 147 170.0 198.0Q162 249 152.0 288.0Q142 327 129.5 362.5Q117 398 100 439Q139 432 180 430Q183 450 185.0 469.0Q187 488 187 508Q187 551 178 602Q222 584 268.0 569.5Q314 555 373.5 545.0Q433 535 517 530Q507 591 495.0 642.0Q483 693 472 736Q523 724 577 724Q603 724 630.0 727.0Q657 730 685 735L678 791Q728 771 779.0 755.5Q830 740 903 730Q903 732 902.5 733.5Q902 735 902 736Q953 724 1007 724Q1061 724 1118 736Q1110 706 1101.5 671.5Q1093 637 1085 599Q1136 578 1190.5 562.5Q1245 547 1324 538Q1318 565 1311.5 590.5Q1305 616 1298 640Q1349 628 1403 628Q1457 628 1514 640Q1486 540 1460.5 413.5Q1435 287 1424 128H1437V106L1423 104Q1421 70 1420.0 33.0Q1419 -4 1419 -42H1393Q1393 -4 1392.0 31.5Q1391 67 1389 101Q1328 94 1285.5 86.0Q1243 78 1210.5 68.5Q1178 59 1147.5 47.0Q1117 35 1078 19Q1087 64 1087 108Q1087 151 1078 202Q1121 184 1161.5 170.0Q1202 156 1255.0 146.0Q1308 136 1387 130Q1380 234 1366.0 324.0Q1352 414 1335 491Q1279 483 1238.5 473.0Q1198 463 1160 450Q1184 447 1211 447Q1223 447 1235.5 448.0Q1248 449 1261 451Q1255 439 1248.5 411.5Q1242 384 1235.0 348.0Q1228 312 1222.0 273.5Q1216 235 1212 201H1204L1196 245L1035 229Q1023 78 1023 -111Q1054 -112 1086.5 -112.5Q1119 -113 1155 -113V-139Q1001 -139 890.0 -147.5Q779 -156 700.5 -170.0Q622 -184 567.5 -201.0Q513 -218 473 -234ZM862 446Q870 446 878.0 446.5Q886 447 894 448V450Q895 450 896.0 449.5Q897 449 898 449Q899 449 900.0 449.5Q901 450 902 450V449Q920 446 939 446Q944 446 950.0 446.0Q956 446 961 447Q951 515 939.5 572.0Q928 629 917 677Q866 669 827.5 659.5Q789 650 754.0 637.5Q719 625 678 608Q682 630 684.0 652.0Q686 674 686 696Q686 704 686.0 712.0Q686 720 685 728Q671 674 656.5 605.5Q642 537 630 454L647 451Q648 461 648.5 471.0Q649 481 649 491Q649 511 646 533Q656 529 682.0 523.0Q708 517 742.0 511.5Q776 506 811.0 501.0Q846 496 874 493V485Q839 480 797.0 474.0Q755 468 718.5 462.0Q682 456 660 450Q665 449 670.5 449.0Q676 449 682 449Q703 449 725 452Q724 453 724 455L731 453L740 455Q739 454 739 452Q759 449 780 449Q807 449 840 455L837 447Q843 446 849.5 446.0Q856 446 862 446ZM1100 267Q1095 304 1088.5 341.5Q1082 379 1076.0 408.0Q1070 437 1064 450L1083 447Q1085 461 1086.0 475.5Q1087 490 1087 505Q1087 540 1081 579Q1069 515 1058.0 438.5Q1047 362 1039 272Q1054 271 1069.5 269.5Q1085 268 1100 267ZM1194 261Q1184 320 1174.5 373.5Q1165 427 1156 449Q1152 447 1150 447Q1145 433 1138.0 403.5Q1131 374 1125.0 337.5Q1119 301 1114 266Q1136 265 1155.5 263.5Q1175 262 1194 261ZM644 377Q640 396 636.5 412.5Q633 429 628 442Q626 427 624.0 411.5Q622 396 620 380ZM925 283Q918 329 911.5 372.5Q905 416 898 438Q891 417 884.0 376.0Q877 335 871 292ZM775 125Q770 180 763.5 236.5Q757 293 749.5 343.5Q742 394 732 430Q724 398 717.0 349.5Q710 301 705.0 246.0Q700 191 696 139Q714 135 734.0 131.5Q754 128 775 125ZM843 297 826 404Q817 363 811 306Q822 302 843 297ZM980 277 968 395Q957 342 949 280ZM654 316 647 363Q640 362 633.0 361.0Q626 360 618 359L613 321Q624 320 634.0 318.5Q644 317 654 316ZM545 331 543 347Q531 346 520.5 344.0Q510 342 500 340ZM661 255 655 303 611 298 608 261ZM997 -110Q997 -18 993.5 65.5Q990 149 985 224Q930 217 883.0 209.5Q836 202 810 191Q812 204 813.5 217.5Q815 231 815 244Q815 258 813.5 272.0Q812 286 810 302Q805 259 801.5 212.5Q798 166 795 123Q840 117 889.5 113.0Q939 109 989 107V90Q868 77 769.0 62.5Q670 48 602 20Q609 54 609 92Q609 109 607.5 127.5Q606 146 602 166Q616 160 634.0 154.5Q652 149 673 144Q672 154 671.0 164.5Q670 175 669 185Q653 183 636.0 181.0Q619 179 602 176Q595 68 593 -58Q661 -77 756.0 -91.0Q851 -105 997 -110ZM551 270 549 288Q536 286 523.5 284.0Q511 282 500 280Q511 278 524.0 275.0Q537 272 551 270ZM668 194Q667 207 666.0 219.5Q665 232 663 244Q650 243 635.0 241.0Q620 239 606 237L603 202ZM556 210 554 229 500 220Q512 217 526.0 214.5Q540 212 556 210Z" />
  </g>
</svg>