<svg xmlns="http://www.w3.org/2000/svg" viewBox="100 -234 1414 1025">
  <g transform="translate(0, 557) scale(1, -1)">
    <path fill="black" d="M473 -234Q485 -183 485 -129Q485 -75 473 -18Q495 -26 518.0 -34.5Q541 -43 566 -51Q564 119 552.0 257.0Q540 395 522 502Q442 493 388.5 483.0Q335 473 293.0 460.5Q251 448 206 430Q243 432 283 439Q261 385 244.5 328.0Q228 271 218 186Q259 171 305.0 159.0Q351 147 412.0 139.5Q473 132 557 128V106Q481 98 427.5 90.0Q374 82 333.5 72.0Q293 62 256.5 49.0Q220 36 178 19Q180 33 182.0 47.0Q184 61 185 75Q178 147 170.0 198.0Q162 249 152.0 288.0Q142 327 129.5 362.5Q117 398 100 439Q139 432 180 430Q183 450 185.0 469.0Q187 488 187 508Q187 551 178 602Q222 584 268.0 569.5Q314 555 373.5 545.0Q433 535 517 530Q507 591 495.0 642.0Q483 693 472 736Q523 724 577 724Q603 724 630.0 727.0Q657 730 685 735L678 791Q728 771 779.0 755.5Q830 740 903 730Q903 732 902.5 733.5Q902 735 902 736Q953 724 1007 724Q1061 724 1118 736Q1110 706 1101.5 671.5Q1093 637 1085 599Q1136 578 1190.5 562.5Q1245 547 1324 538Q1318 565 1311.5 590.5Q1305 616 1298 640Q1349 628 1403 628Q1457 628 1514 640Q1486 540 1460.5 413.5Q1435 287 1424 128H1437V106L1423 104Q1421 70 1420.0 33.0Q1419 -4 1419 -42H1393Q1393 -4 1392.0 31.5Q1391 67 1389 101Q1328 94 1285.5 86.0Q1243 78 1210.5 68.5Q1178 59 1147.5 47.0Q1117 35 1078 19Q1087 64 1087 108Q1087 151 1078 202Q1121 184 1161.5 170.0Q1202 156 1255.0 146.0Q1308 136 1387 130Q1380 234 1366.0 324.0Q1352 414 1335 491Q1278 483 1236.5 473.0Q1195 463 1158.0 450.0Q1121 437 1078 419Q1083 440 1084.5 461.5Q1086 483 1086 505Q1086 523 1085.0 541.5Q1084 560 1081 579Q1057 456 1040.0 285.5Q1023 115 1023 -111Q1054 -112 1086.5 -112.5Q1119 -113 1155 -113V-139Q1001 -139 890.0 -147.5Q779 -156 700.5 -170.0Q622 -184 567.5 -201.0Q513 -218 473 -234ZM866 310Q883 324 906.0 341.5Q929 359 968 393Q957 479 944.0 549.5Q931 620 917 677Q866 669 827.5 659.5Q789 650 754.0 637.5Q719 625 678 608Q682 630 684.0 652.0Q686 674 686 696Q686 704 686.0 712.0Q686 720 685 728Q672 678 658.5 615.0Q645 552 633 476Q641 475 648.0 475.0Q655 475 662 475Q695 475 732 481V482Q733 482 733.5 481.5Q734 481 735 481Q736 481 736.5 481.5Q737 482 738 482L737 481Q770 475 804 475Q821 475 839.5 476.5Q858 478 878 482Q864 448 852.5 413.0Q841 378 833 332Q854 334 878 338Q875 331 871.5 324.0Q868 317 866 310ZM693 332Q703 333 712.5 334.5Q722 336 732 337V338Q733 338 733.5 337.5Q734 337 735 337Q736 337 736.5 337.5Q737 338 738 338L737 337Q748 335 759.0 334.0Q770 333 780 332Q771 373 760.5 405.0Q750 437 735 475Q722 443 711.5 409.5Q701 376 693 332ZM640 332Q636 351 631.5 367.0Q627 383 622 399L615 334ZM985 221Q982 259 978.5 294.0Q975 329 971 363Q962 347 954.5 332.5Q947 318 939 304Q950 285 960.5 264.5Q971 244 985 221ZM689 173Q703 185 722.0 199.5Q741 214 770 239Q763 262 754.5 283.0Q746 304 735 331Q719 294 708.0 259.5Q697 225 689 173ZM997 -110Q997 -23 994.0 56.0Q991 135 986 206L980 201Q949 230 930.0 247.0Q911 264 896.5 276.5Q882 289 862 301Q851 272 842.0 240.5Q833 209 827.5 165.0Q822 121 819 56H802Q801 58 801 63L792 56Q764 82 746.0 98.5Q728 115 714.5 126.5Q701 138 685 149Q680 108 679 56H662Q655 122 648.0 163.5Q641 205 632.0 234.0Q623 263 611 293Q596 139 593 -58Q661 -77 756.0 -91.0Q851 -105 997 -110ZM800 71Q795 118 789.5 151.0Q784 184 778 209Q771 196 764.5 183.5Q758 171 751 159Q763 139 773.5 117.0Q784 95 800 71Z" />
  </g>
</svg>