<svg xmlns="http://www.w3.org/2000/svg" viewBox="100 -234 1414 1025">
  <g transform="translate(0, 557) scale(1, -1)">
    <path fill="black" d="M473 -234Q485 -183 485 -129Q485 -75 473 -18Q495 -26 518.0 -34.5Q541 -43 566 -51Q564 119 552.0 257.0Q540 395 522 502Q442 493 388.5 483.0Q335 473 293.0 460.5Q251 448 206 430Q243 432 283 439Q261 385 244.5 328.0Q228 271 218 186Q259 171 305.0 159.0Q351 147 412.0 139.5Q473 132 557 128V106Q481 98 427.5 90.0Q374 82 333.5 72.0Q293 62 256.5 49.0Q220 36 178 19Q180 33 182.0 47.0Q184 61 185 75Q178 147 170.0 198.0Q162 249 152.0 288.0Q142 327 129.5 362.5Q117 398 100 439Q139 432 180 430Q183 450 185.0 469.0Q187 488 187 508Q187 551 178 602Q222 584 268.0 569.5Q314 555 373.5 545.0Q433 535 517 530Q507 591 495.0 642.0Q483 693 472 736Q523 724 577 724Q603 724 630.0 727.0Q657 730 685 735L678 791Q728 771 779.0 755.5Q830 740 903 730Q903 732 902.5 733.5Q902 735 902 736Q953 724 1007 724Q1061 724 1118 736Q1110 706 1101.5 671.5Q1093 637 1085 599Q1136 578 1190.5 562.5Q1245 547 1324 538Q1318 565 1311.5 590.5Q1305 616 1298 640Q1349 628 1403 628Q1457 628 1514 640Q1486 540 1460.5 413.5Q1435 287 1424 128H1437V106L1423 104Q1421 70 1420.0 33.0Q1419 -4 1419 -42H1393Q1393 -4 1392.0 31.5Q1391 67 1389 101Q1328 94 1285.5 86.0Q1243 78 1210.5 68.5Q1178 59 1147.5 47.0Q1117 35 1078 19Q1082 41 1084.0 62.5Q1086 84 1086 106Q1086 126 1084.5 147.5Q1083 169 1079 191L1072 184L1034 215Q1029 142 1026.0 60.5Q1023 -21 1023 -111Q1054 -112 1086.5 -112.5Q1119 -113 1155 -113V-139Q1001 -139 890.0 -147.5Q779 -156 700.5 -170.0Q622 -184 567.5 -201.0Q513 -218 473 -234ZM997 -110Q997 -16 994 69L899 148Q869 108 847.0 76.5Q825 45 819 31Q799 60 776.0 84.5Q753 109 721 129Q719 126 718.0 123.5Q717 121 716 119Q696 148 672.5 173.0Q649 198 615 219Q627 224 655.5 244.0Q684 264 720 292Q688 318 663.0 335.5Q638 353 627 358Q659 378 682.0 401.5Q705 425 724 452Q723 454 721.0 454.5Q719 455 717 456Q751 477 774.5 502.0Q798 527 818 556Q824 541 846.0 508.5Q868 476 898 435L955 482Q947 538 937.0 587.0Q927 636 917 677Q866 669 827.5 659.5Q789 650 754.0 637.5Q719 625 678 608Q682 630 684.0 652.0Q686 674 686 696Q686 704 686.0 712.0Q686 720 685 728Q653 608 624.5 415.5Q596 223 593 -58Q661 -77 756.0 -91.0Q851 -105 997 -110ZM1387 130Q1380 234 1366.0 324.0Q1352 414 1335 491Q1278 483 1236.5 473.0Q1195 463 1158.0 450.0Q1121 437 1078 419Q1083 440 1084.5 461.5Q1086 483 1086 505Q1086 523 1085.0 541.5Q1084 560 1081 579Q1073 536 1065.0 487.0Q1057 438 1050 383Q1058 388 1064.5 394.0Q1071 400 1077 405L1087 395Q1078 383 1067.5 369.0Q1057 355 1045 340Q1043 319 1041.0 297.5Q1039 276 1037 253L1078 198V202Q1121 184 1161.5 170.0Q1202 156 1255.0 146.0Q1308 136 1387 130ZM975 334Q971 365 968.0 394.0Q965 423 960 450L923 402ZM798 353 829 379Q799 402 774.5 419.5Q750 437 733 447Q741 432 758.5 407.5Q776 383 798 353ZM879 246 939 292 876 342 841 296ZM992 99Q991 141 988.0 181.0Q985 221 982 258L926 185Q945 162 961.5 140.0Q978 118 992 99ZM723 133Q738 141 766.0 160.5Q794 180 828 206Q820 214 811.0 220.5Q802 227 794 234Q744 168 723 133Z" />
  </g>
</svg>