<svg xmlns="http://www.w3.org/2000/svg" viewBox="100 -281 1231 1111">
  <g transform="translate(0, 549) scale(1, -1)">
    <path fill="black" d="M660 -281Q661 -276 661.5 -271.0Q662 -266 662 -261H654Q643 -261 632.0 -262.0Q621 -263 610 -263Q615 -254 620.0 -229.5Q625 -205 630.0 -174.5Q635 -144 640 -115Q612 -118 592.0 -121.0Q572 -124 567 -126Q567 -116 568.0 -106.0Q569 -96 569 -86Q569 -82 568.5 -79.0Q568 -76 568 -72Q561 -72 554.0 -72.0Q547 -72 539 -74Q543 -64 547.5 -36.0Q552 -8 556.0 26.5Q560 61 561 88H567L568 80Q568 82 568.0 85.0Q568 88 567 90Q571 89 584.5 87.0Q598 85 617 83Q621 100 625.0 124.5Q629 149 631 174Q618 172 607.0 170.5Q596 169 590 167Q589 161 589.0 155.5Q589 150 589 146H583Q579 168 575.0 206.5Q571 245 566.5 287.0Q562 329 558 359Q527 352 498.5 345.5Q470 339 456 333Q453 299 450.5 260.0Q448 221 446.5 187.5Q445 154 443 133Q475 130 493 130V124Q476 121 447.0 117.5Q418 114 385.0 110.5Q352 107 321.5 103.5Q291 100 269.0 97.0Q247 94 241 91Q241 101 242.0 111.0Q243 121 243 131Q243 136 242.5 141.5Q242 147 241 152Q244 151 255.0 149.5Q266 148 281 146Q279 157 277.5 172.0Q276 187 274 206Q246 201 214.0 195.5Q182 190 156.5 184.5Q131 179 122 175V184Q121 211 117.0 243.0Q113 275 108.5 301.0Q104 327 100 336Q105 335 111.0 334.5Q117 334 122 334Q123 342 123.5 349.5Q124 357 124 365Q124 370 123.5 375.5Q123 381 122 386Q130 383 152.0 379.5Q174 376 203.0 372.5Q232 369 259 366Q257 389 254.5 404.5Q252 420 250 424Q260 423 266.5 422.0Q273 421 282 421Q285 421 292.5 421.0Q300 421 303 422Q304 429 304.5 436.0Q305 443 305 450Q305 455 304.5 459.5Q304 464 303 468Q313 465 341.0 460.0Q369 455 403.5 451.5Q438 448 465 446V440Q439 435 407.0 429.5Q375 424 348.0 419.0Q321 414 308 409Q306 393 303.5 365.0Q301 337 298 304Q306 312 315.0 319.5Q324 327 331 338Q331 337 333 333Q341 341 351.5 349.5Q362 358 369 370Q373 363 380.5 350.0Q388 337 399 322L416 335Q413 369 410.0 394.0Q407 419 405 424Q415 424 425.0 423.0Q435 422 445 422Q450 422 455.5 422.5Q461 423 466 424Q465 421 464.0 411.5Q463 402 461 388Q476 384 502.0 379.5Q528 375 556 372L551 398Q561 398 571.0 397.0Q581 396 591 396Q596 396 601.5 396.5Q607 397 612 398Q608 388 605 354Q611 354 618.5 354.5Q626 355 634 356Q631 392 624.5 424.0Q618 456 613 469Q618 468 623.5 467.5Q629 467 634 467Q645 467 654.5 468.0Q664 469 673 469Q659 437 642 356Q678 358 719.0 361.5Q760 365 791 368Q787 399 782.0 426.5Q777 454 772 467Q737 470 699.5 473.0Q662 476 630.5 479.0Q599 482 581 485Q580 468 579.0 452.0Q578 436 578 427H572Q569 444 565.5 473.0Q562 502 559.0 535.0Q556 568 552.5 598.5Q549 629 546.0 651.0Q543 673 540 679Q550 679 560.0 678.0Q570 677 580 677Q585 677 590.5 677.5Q596 678 601 679Q599 672 595.5 641.5Q592 611 588.5 570.0Q585 529 582 492L661 497L682 524Q649 548 631 557Q643 565 651.5 575.0Q660 585 668 593Q673 576 695 541Q699 547 703.0 553.0Q707 559 711 564Q696 575 684.5 583.5Q673 592 668 595Q679 602 687.0 611.5Q695 621 703 629Q669 632 641.0 635.0Q613 638 597 641V647Q604 647 615.5 647.5Q627 648 640 649Q635 678 630.0 709.0Q625 740 620.0 765.0Q615 790 610 799Q615 799 620.0 798.5Q625 798 630 798Q659 803 693.0 808.5Q727 814 755.0 820.0Q783 826 792 830Q792 823 791.0 814.5Q790 806 790 798Q795 797 800.0 797.0Q805 797 810 797Q815 797 820.5 797.5Q826 798 831 799Q828 790 823.0 767.5Q818 745 814.0 716.5Q810 688 808 661Q835 663 854.5 665.5Q874 668 879 670Q878 666 877.5 660.5Q877 655 877 650Q877 642 877.5 634.5Q878 627 879 619Q887 620 895.0 620.5Q903 621 910 621Q906 612 900.0 586.0Q894 560 888.5 528.0Q883 496 878 467Q879 464 879.0 460.5Q879 457 879 454Q869 458 830 461Q826 448 820.0 423.5Q814 399 809 370Q817 371 822.5 372.0Q828 373 832 374L836 398H842Q842 393 842.5 385.5Q843 378 843 370Q883 372 920.0 379.5Q957 387 971 392Q970 387 969.5 381.5Q969 376 969 371Q969 363 969.5 354.5Q970 346 971 338Q973 368 976.0 393.5Q979 419 981 434Q970 436 960.0 437.5Q950 439 943 440V446Q959 447 987.5 449.0Q1016 451 1049.5 453.0Q1083 455 1114.0 458.0Q1145 461 1167.0 463.5Q1189 466 1195 468Q1194 463 1193.5 457.5Q1193 452 1193 447Q1193 437 1194.0 427.0Q1195 417 1195 407Q1191 409 1177.0 411.5Q1163 414 1143 416L1146 364Q1174 366 1207.5 370.0Q1241 374 1268.5 378.5Q1296 383 1305 386Q1304 379 1303.5 373.0Q1303 367 1303 361Q1303 355 1303.0 349.0Q1303 343 1304 338Q1311 301 1318.5 268.0Q1326 235 1331 224Q1324 224 1317.5 224.5Q1311 225 1303 225V218Q1303 207 1304.0 196.5Q1305 186 1305 175Q1297 179 1272.5 183.5Q1248 188 1217.0 193.5Q1186 199 1158 203Q1160 177 1162.0 158.5Q1164 140 1166 135Q1162 136 1157.0 136.0Q1152 136 1147 136Q1137 136 1128.0 135.5Q1119 135 1111 135V128Q1111 118 1112.0 109.0Q1113 100 1113 91Q1101 94 1072.0 99.0Q1043 104 1010.0 109.0Q977 114 951 117V123Q976 125 1008.0 129.5Q1040 134 1068.0 140.0Q1096 146 1108 150Q1110 165 1113.0 190.0Q1116 215 1119 244Q1112 237 1104.0 230.0Q1096 223 1090 214Q1087 219 1078.5 230.5Q1070 242 1059 257Q1054 253 1048.0 249.0Q1042 245 1036 241Q1071 219 1088 214Q1080 206 1070.0 197.5Q1060 189 1052 177Q1043 195 1019 228L1002 215Q1004 184 1006.5 162.0Q1009 140 1011 135Q1006 136 1000.5 136.5Q995 137 990 137Q980 137 970.0 136.0Q960 135 950 135Q952 138 953.5 149.0Q955 160 957 176Q940 181 913.0 186.5Q886 192 857 197Q859 178 861.5 164.0Q864 150 865 146Q860 147 854.5 147.5Q849 148 844 148Q836 148 828.0 147.5Q820 147 812 146Q817 121 822.5 100.0Q828 79 832 69Q842 68 851.0 67.5Q860 67 866 67L872 111H878Q879 95 881.0 66.5Q883 38 885.5 4.5Q888 -29 891.0 -60.0Q894 -91 896.5 -113.0Q899 -135 901 -141Q896 -140 890.5 -139.5Q885 -139 880 -139Q870 -139 860.0 -140.0Q850 -141 840 -141Q843 -131 848 -94L807 -99Q809 -127 813.5 -162.0Q818 -197 823.0 -225.5Q828 -254 831 -263Q826 -262 820.5 -261.5Q815 -261 810 -261Q800 -261 790.0 -262.0Q780 -263 770 -263V-262Q735 -266 702.5 -271.5Q670 -277 660 -281ZM647 650Q680 652 720.5 654.5Q761 657 798 660Q794 690 788.5 720.5Q783 751 778 773Q759 777 728.5 781.5Q698 786 668 789Q662 768 655.5 726.5Q649 685 647 650ZM730 590Q738 601 743.5 610.0Q749 619 752 625L706 628Q710 618 730 590ZM791 505Q815 507 835.0 509.0Q855 511 866 512Q863 543 859.0 571.5Q855 600 851 614Q835 616 811.5 619.0Q788 622 762 624Q768 617 775.0 609.0Q782 601 792 595L787 592Q795 584 803.5 574.5Q812 565 824 557Q806 548 776 527Q780 521 784.0 515.5Q788 510 791 505ZM762 545Q771 560 777.5 572.5Q784 585 786 592L749 563Q753 559 756.0 554.5Q759 550 762 545ZM722 500Q725 500 727.5 500.5Q730 501 733 501Q738 509 743.5 516.5Q749 524 753 531L731 548L705 526Q709 519 713.5 513.0Q718 507 722 500ZM744 502 784 505 766 520ZM672 497 713 500 693 516ZM997 290 1015 312 997 333 1000 338Q1005 334 1010.0 330.0Q1015 326 1021 322Q1032 337 1040.0 350.0Q1048 363 1052 370Q1060 358 1069.5 349.5Q1079 341 1087 333L1090 338Q1097 327 1106.5 319.0Q1116 311 1124 303Q1127 337 1130.0 367.5Q1133 398 1135 417Q1102 422 1061.5 425.5Q1021 429 988 433Q989 413 991.5 373.5Q994 334 997 290ZM856 213Q887 216 916.5 220.5Q946 225 962 229L970 331Q956 338 920.5 347.0Q885 356 844 363Q846 331 849.0 289.5Q852 248 856 213ZM1157 215Q1185 217 1216.5 221.0Q1248 225 1271 229Q1275 243 1280.0 271.0Q1285 299 1288 330Q1265 336 1223.5 342.5Q1182 349 1147 355Q1149 322 1151.5 285.5Q1154 249 1157 215ZM273 214Q269 247 266.0 284.0Q263 321 260 352L160 335Q156 324 149.5 294.5Q143 265 136 232Q159 227 199.0 221.5Q239 216 273 214ZM820 205Q823 230 822.5 259.5Q822 289 825 317Q811 320 783.5 323.5Q756 327 723.5 330.5Q691 334 659.0 337.5Q627 341 604 344Q601 318 598.5 286.0Q596 254 594 224Q608 222 636.0 219.0Q664 216 698.0 213.5Q732 211 764.5 209.0Q797 207 820 205ZM1058 295 1087 332Q1080 330 1067.5 323.5Q1055 317 1040 308Q1045 305 1049.5 302.0Q1054 299 1058 295ZM363 295 380 308Q349 327 334 332Q338 326 345.5 316.5Q353 307 363 295ZM420 295 417 325 406 312Q409 308 412.5 304.0Q416 300 420 295ZM435 133Q433 147 431.0 166.5Q429 186 427 209Q421 213 414.5 218.0Q408 223 401 228Q377 192 369 177Q362 189 351.5 197.5Q341 206 333 214Q349 219 384 241L361 257Q350 242 341.5 230.5Q333 219 331 214Q324 226 313.5 234.5Q303 243 295 251Q300 253 311.0 259.5Q322 266 335 276Q310 293 298 300Q294 254 291.5 210.5Q289 167 288 145Q319 142 359.5 138.5Q400 135 435 133ZM1119 254Q1121 265 1121.5 276.5Q1122 288 1123 300L1085 276Q1096 269 1104.5 263.0Q1113 257 1119 254ZM400 251Q405 255 411.0 258.5Q417 262 422 266Q422 270 421.5 273.5Q421 277 421 281Q414 286 407.5 290.5Q401 295 395 299Q391 294 386.5 288.5Q382 283 378 278Q383 271 388.5 264.0Q394 257 400 251ZM1021 251 1043 278Q1039 283 1034.5 288.5Q1030 294 1026 299L997 280Q998 276 998.0 273.0Q998 270 998 266ZM426 221 423 255Q416 248 410 239ZM1001 228 1011 239 999 254ZM808 163Q810 169 810.5 177.0Q811 185 812 194Q810 194 807.5 193.5Q805 193 803 193ZM774 72Q779 89 785.0 123.5Q791 158 793 192Q761 188 721.0 184.0Q681 180 647 176Q652 148 658.0 122.0Q664 96 668 79ZM849 -89Q853 -57 857.0 -16.0Q861 25 865 60Q853 58 834.0 56.0Q815 54 792 52Q788 46 783.0 39.5Q778 33 773 25Q789 14 803.0 5.5Q817 -3 824 -7Q812 -14 803.5 -24.5Q795 -35 787 -43Q780 -25 760 8Q756 3 752.0 -3.0Q748 -9 744 -14Q773 -37 787 -45Q775 -52 766.5 -62.5Q758 -73 750 -81Q748 -76 741.0 -65.0Q734 -54 725 -40Q705 -68 701 -78Q745 -82 787.5 -84.0Q830 -86 849 -88ZM761 34Q766 39 771.5 43.0Q777 47 781 51L744 48ZM723 1 750 24 734 47Q730 46 727.0 46.0Q724 46 720 46Q715 39 710.5 32.0Q706 25 702 19ZM688 30Q693 33 697.5 37.0Q702 41 707 45L674 42ZM697 -78Q690 -70 682.0 -61.0Q674 -52 663 -45L667 -42Q659 -34 651.0 -24.0Q643 -14 631 -7Q638 -3 651.0 4.5Q664 12 679 23L665 41Q636 39 612.5 36.0Q589 33 576 31Q582 0 588.0 -28.5Q594 -57 598 -70ZM668 -42 705 -13Q702 -8 699.0 -4.0Q696 0 692 4Q683 -10 677.0 -22.0Q671 -34 668 -42ZM775 -244Q781 -218 787.0 -176.5Q793 -135 799 -100Q765 -104 724.0 -107.5Q683 -111 647 -114Q649 -139 653.0 -168.0Q657 -197 661 -220Q672 -225 705.5 -231.5Q739 -238 775 -244Z" />
  </g>
</svg>