<svg xmlns="http://www.w3.org/2000/svg" viewBox="100 -234 1414 1025">
  <g transform="translate(0, 557) scale(1, -1)">
    <path fill="black" d="M473 -234Q485 -183 485 -129Q485 -75 473 -18Q495 -26 518.0 -34.5Q541 -43 566 -51Q564 119 552.0 257.0Q540 395 522 502Q442 493 388.5 483.0Q335 473 293.0 460.5Q251 448 206 430Q243 432 283 439Q261 385 244.5 328.0Q228 271 218 186Q259 171 305.0 159.0Q351 147 412.0 139.5Q473 132 557 128V106Q481 98 427.5 90.0Q374 82 333.5 72.0Q293 62 256.5 49.0Q220 36 178 19Q180 33 182.0 47.0Q184 61 185 75Q178 147 170.0 198.0Q162 249 152.0 288.0Q142 327 129.5 362.5Q117 398 100 439Q139 432 180 430Q183 450 185.0 469.0Q187 488 187 508Q187 551 178 602Q222 584 268.0 569.5Q314 555 373.5 545.0Q433 535 517 530Q507 591 495.0 642.0Q483 693 472 736Q523 724 577 724Q603 724 630.0 727.0Q657 730 685 735L678 791Q728 771 779.0 755.5Q830 740 903 730L902 736Q953 724 1007 724Q1061 724 1118 736Q1110 706 1101.5 671.5Q1093 637 1085 599Q1136 578 1190.5 562.5Q1245 547 1324 538Q1318 565 1311.5 590.5Q1305 616 1298 640Q1349 628 1403 628Q1457 628 1514 640Q1486 540 1460.5 413.5Q1435 287 1424 128H1437V106L1423 104Q1421 70 1420.0 33.0Q1419 -4 1419 -42H1393Q1393 -4 1392.0 31.5Q1391 67 1389 101Q1328 94 1285.5 86.0Q1243 78 1210.5 68.5Q1178 59 1147.5 47.0Q1117 35 1078 19Q1087 64 1087 108Q1087 151 1078 202Q1121 184 1161.5 170.0Q1202 156 1255.0 146.0Q1308 136 1387 130Q1380 234 1366.0 324.0Q1352 414 1335 491Q1278 483 1236.5 473.0Q1195 463 1158.0 450.0Q1121 437 1078 419Q1083 440 1084.5 461.5Q1086 483 1086 505Q1086 523 1085.0 541.5Q1084 560 1081 579Q1057 456 1040.0 285.5Q1023 115 1023 -111Q1054 -112 1086.5 -112.5Q1119 -113 1155 -113V-139Q1001 -139 890.0 -147.5Q779 -156 700.5 -170.0Q622 -184 567.5 -201.0Q513 -218 473 -234ZM969 383Q959 472 945.0 545.0Q931 618 917 677Q866 669 827.5 659.5Q789 650 754.0 637.5Q719 625 678 608Q682 630 684.0 652.0Q686 674 686 696Q686 704 686.0 712.0Q686 720 685 728Q668 664 651.0 579.0Q634 494 621 387Q660 415 703.5 451.5Q747 488 786 523Q778 528 770.5 532.0Q763 536 757 539Q778 553 788.5 564.0Q799 575 811 592Q817 576 827 561L844 576L851 568L835 549Q860 512 897.0 469.0Q934 426 969 383ZM849 52Q882 90 908.5 124.5Q935 159 945 181Q957 162 967.0 152.0Q977 142 990 132Q986 200 981.5 262.5Q977 325 970 380L964 374L934 401Q890 348 853.0 303.0Q816 258 799 220Q788 237 777.5 248.0Q767 259 746 273Q751 275 757.5 278.5Q764 282 771 286Q757 298 739.0 311.5Q721 325 704.5 337.0Q688 349 678 353Q687 358 694.5 366.0Q702 374 709 384Q713 375 725.0 358.5Q737 342 752.0 324.0Q767 306 779 291Q787 296 795.0 301.5Q803 307 812 314Q798 326 778.5 341.0Q759 356 741.0 369.0Q723 382 712 387Q720 393 728.0 400.5Q736 408 743 418V417Q757 427 772 448V447Q788 457 802 477Q806 467 821.0 447.0Q836 427 853.5 406.5Q871 386 883 372Q894 381 904.5 390.0Q915 399 925 409Q894 437 861.5 464.5Q829 492 802 511Q771 476 737.5 438.5Q704 401 678.0 368.5Q652 336 643 314Q630 334 616 347Q614 322 611.0 297.0Q608 272 606 245Q618 253 627.0 263.0Q636 273 648 291Q654 277 672.5 252.0Q691 227 716 198Q730 216 742.5 233.0Q755 250 759 260Q769 244 790 229Q781 225 764.0 212.5Q747 200 728 185Q733 179 738.0 173.0Q743 167 748 162Q762 180 775.0 198.0Q788 216 793 226Q799 218 806.5 210.5Q814 203 824 195H823Q833 179 855 166L853 165Q863 149 883 136Q873 132 854.5 118.0Q836 104 816 88ZM851 345 877 367Q864 378 844.0 394.5Q824 411 804.5 426.0Q785 441 772 446Q777 436 791.5 417.0Q806 398 823.0 378.5Q840 359 851 345ZM819 319Q825 324 831.5 329.0Q838 334 845 340Q832 351 812.5 366.5Q793 382 774.0 396.5Q755 411 743 416Q747 406 760.5 388.0Q774 370 790.5 351.5Q807 333 819 319ZM997 -110Q997 -47 995.0 11.0Q993 69 991 123Q964 110 930.5 84.5Q897 59 860.5 27.5Q824 -4 787 -33L780 -26Q794 -9 809.5 7.5Q825 24 841 42L802 75L771 49L768 52L793 83L770 103L742 78L738 82L761 111L738 131L712 107L707 112L729 138L701 162L678 142L673 146L692 169Q667 189 644.5 206.0Q622 223 605 232Q595 102 593 -58Q661 -77 756.0 -91.0Q851 -105 997 -110ZM777 130Q791 148 804.0 166.0Q817 184 822 194Q812 190 795.0 177.0Q778 164 760 149ZM806 99Q820 117 833.0 135.0Q846 153 852 165Q841 160 823.0 146.5Q805 133 788 118Z" />
  </g>
</svg>