<svg xmlns="http://www.w3.org/2000/svg" viewBox="100 -234 1414 1025">
  <g transform="translate(0, 557) scale(1, -1)">
    <path fill="black" d="M473 -234Q485 -183 485 -129Q485 -75 473 -18Q495 -26 518.0 -34.5Q541 -43 566 -51Q565 23 562.5 90.5Q560 158 555 219L510 215L505 163H497Q496 174 494.0 186.5Q492 199 490 213Q443 209 406.5 204.5Q370 200 362 196Q366 213 366 233Q366 244 365.0 255.0Q364 266 362 276Q370 272 405.0 268.0Q440 264 485 259Q481 294 477.0 327.5Q473 361 469.0 386.0Q465 411 461 419Q472 418 483.5 416.5Q495 415 506 415Q513 415 520.5 415.5Q528 416 535 417L531 441Q500 438 478.0 435.5Q456 433 451 431Q453 446 454.5 462.0Q456 478 454 494Q398 486 356.5 477.0Q315 468 279.5 456.5Q244 445 206 430Q243 432 283 439Q261 385 244.5 328.0Q228 271 218 186Q259 171 305.0 159.0Q351 147 412.0 139.5Q473 132 557 128V106Q481 98 427.5 90.0Q374 82 333.5 72.0Q293 62 256.5 49.0Q220 36 178 19Q180 33 182.0 47.0Q184 61 185 75Q178 147 170.0 198.0Q162 249 152.0 288.0Q142 327 129.5 362.5Q117 398 100 439Q139 432 180 430Q183 450 185.0 469.0Q187 488 187 508Q187 551 178 602Q222 584 268.0 569.5Q314 555 373.5 545.0Q433 535 517 530Q507 591 495.0 642.0Q483 693 472 736Q523 724 577 724Q603 724 630.0 727.0Q657 730 685 735L678 791Q728 771 779.0 755.5Q830 740 903 730Q903 732 902.5 733.5Q902 735 902 736Q953 724 1007 724Q1061 724 1118 736Q1110 706 1101.5 671.5Q1093 637 1085 599Q1136 578 1190.5 562.5Q1245 547 1324 538Q1318 565 1311.5 590.5Q1305 616 1298 640Q1349 628 1403 628Q1457 628 1514 640Q1486 540 1460.5 413.5Q1435 287 1424 128H1437V106L1423 104Q1421 70 1420.0 33.0Q1419 -4 1419 -42H1393Q1393 -4 1392.0 31.5Q1391 67 1389 101Q1328 94 1285.5 86.0Q1243 78 1210.5 68.5Q1178 59 1147.5 47.0Q1117 35 1078 19L1082 44L1025 41Q1024 5 1023.5 -33.0Q1023 -71 1023 -111Q1054 -112 1086.5 -112.5Q1119 -113 1155 -113V-139Q1001 -139 890.0 -147.5Q779 -156 700.5 -170.0Q622 -184 567.5 -201.0Q513 -218 473 -234ZM888 477Q887 483 885.0 489.0Q883 495 881 499Q915 492 954 493Q936 600 917 677Q866 669 827.5 659.5Q789 650 754.0 637.5Q719 625 678 608Q682 630 684.0 652.0Q686 674 686 696Q686 704 686.0 712.0Q686 720 685 728Q672 681 659.5 622.5Q647 564 636 493Q684 490 732.0 487.0Q780 484 821.5 481.5Q863 479 888 477ZM1084 57Q1087 81 1087 106Q1087 150 1078 202Q1121 184 1161.5 170.0Q1202 156 1255.0 146.0Q1308 136 1387 130Q1380 234 1366.0 324.0Q1352 414 1335 491Q1278 483 1236.5 473.0Q1195 463 1158.0 450.0Q1121 437 1078 419Q1083 440 1084.5 461.5Q1086 483 1086 505Q1086 523 1085.0 541.5Q1084 560 1081 579Q1062 481 1047.0 353.0Q1032 225 1026 63ZM522 501V502H518Q519 502 520.0 501.5Q521 501 522 501ZM935 70Q933 88 931.5 107.0Q930 126 928 146Q894 142 859.0 136.0Q824 130 796.5 124.5Q769 119 757 114Q759 125 760.0 136.5Q761 148 761 160Q761 166 760.5 172.0Q760 178 759 185L757 184Q757 188 758 190Q757 191 757 194L758 193Q761 211 761 228Q761 235 760.5 241.5Q760 248 759 255L757 254Q757 258 758 260Q757 261 757 264L758 263Q761 281 761 298Q761 305 760.5 311.5Q760 318 759 325L757 324Q757 328 758 330Q757 331 757 334L758 333Q759 341 759.5 350.0Q760 359 760 368Q760 385 757 404Q767 400 790.5 394.5Q814 389 844.5 384.0Q875 379 906 375Q899 428 891 465Q866 463 823.0 460.0Q780 457 729.5 454.0Q679 451 629 448Q628 441 627.0 433.5Q626 426 625 418Q643 415 662 415Q682 415 701 419Q697 409 691.5 377.5Q686 346 681 306Q688 305 695.0 304.5Q702 304 709 304Q718 304 727.5 305.0Q737 306 747 308Q743 299 738.5 275.5Q734 252 729.0 220.5Q724 189 720.0 155.5Q716 122 713 95Q760 88 818.5 81.5Q877 75 935 70ZM647 245Q641 293 635.0 340.5Q629 388 624 409Q619 372 614.5 332.5Q610 293 607 249ZM552 254Q549 294 545.5 332.0Q542 370 537 404Q532 382 526.0 341.0Q520 300 515 257ZM994 65Q991 148 985.5 221.0Q980 294 972 359Q967 312 963.0 259.5Q959 207 956.0 157.5Q953 108 951 69ZM914 302 909 352Q869 347 831.5 341.0Q794 335 772 329Q795 322 834.5 314.5Q874 307 914 302ZM921 231Q920 245 918.5 258.5Q917 272 916 285Q875 279 834.5 272.0Q794 265 771 259Q795 252 838.0 244.0Q881 236 921 231ZM680 242Q679 249 678.5 256.0Q678 263 676 269L673 243ZM997 -110Q997 -71 996.5 -33.5Q996 4 995 39Q945 36 890.0 32.0Q835 28 784.5 22.5Q734 17 695.0 11.0Q656 5 638 -3Q644 29 644 56Q644 85 638 113Q649 109 664.5 105.0Q680 101 699 97Q695 127 691.0 163.0Q687 199 682 230L672 229L665 163H657Q655 176 653.0 192.5Q651 209 649 227Q639 226 627.5 225.5Q616 225 605 223Q595 96 593 -58Q661 -77 756.0 -91.0Q851 -105 997 -110ZM927 161 922 216Q880 210 837.5 203.0Q795 196 771 189Q796 182 840.5 174.0Q885 166 927 161Z" />
  </g>
</svg>