<svg xmlns="http://www.w3.org/2000/svg" viewBox="100 -234 1414 1025">
  <g transform="translate(0, 557) scale(1, -1)">
    <path fill="black" d="M473 -234Q485 -183 485 -129Q485 -75 473 -18Q495 -26 518.0 -34.5Q541 -43 566 -51Q565 3 563.5 53.5Q562 104 559 151Q534 174 518.5 187.5Q503 201 486 214Q497 195 507.0 175.0Q517 155 532 133L528 129Q535 129 542.5 128.5Q550 128 557 128V106Q481 98 427.5 90.0Q374 82 333.5 72.0Q293 62 256.5 49.0Q220 36 178 19Q180 33 182.0 47.0Q184 61 185 75Q178 147 170.0 198.0Q162 249 152.0 288.0Q142 327 129.5 362.5Q117 398 100 439Q139 432 180 430Q183 450 185.0 469.0Q187 488 187 508Q187 551 178 602Q222 584 268.0 569.5Q314 555 373.5 545.0Q433 535 517 530Q507 591 495.0 642.0Q483 693 472 736Q523 724 577 724Q603 724 630.0 727.0Q657 730 685 735L678 791Q728 771 779.0 755.5Q830 740 903 730Q903 732 902.5 733.5Q902 735 902 736Q953 724 1007 724Q1061 724 1118 736Q1110 706 1101.5 671.5Q1093 637 1085 599Q1136 578 1190.5 562.5Q1245 547 1324 538Q1318 565 1311.5 590.5Q1305 616 1298 640Q1349 628 1403 628Q1457 628 1514 640Q1486 540 1460.5 413.5Q1435 287 1424 128H1437V106L1423 104Q1421 70 1420.0 33.0Q1419 -4 1419 -42H1393Q1393 -4 1392.0 31.5Q1391 67 1389 101Q1328 94 1285.5 86.0Q1243 78 1210.5 68.5Q1178 59 1147.5 47.0Q1117 35 1078 19Q1087 64 1087 108Q1087 151 1078 202Q1105 191 1130.5 180.5Q1156 170 1184 162Q1183 189 1181.0 213.5Q1179 238 1177 260L1143 291Q1096 237 1070.0 204.5Q1044 172 1030 151Q1027 91 1025.0 25.5Q1023 -40 1023 -111Q1054 -112 1086.5 -112.5Q1119 -113 1155 -113V-139Q1001 -139 890.0 -147.5Q779 -156 700.5 -170.0Q622 -184 567.5 -201.0Q513 -218 473 -234ZM807 325Q808 333 808.5 340.0Q809 347 809 354Q809 360 808.5 366.0Q808 372 807 379L805 378Q805 382 806 384Q805 385 805 388L806 387Q807 395 807.5 404.0Q808 413 808 422Q808 439 805 458Q815 454 840.0 448.5Q865 443 898.0 437.5Q931 432 963 427V430Q953 435 941.5 440.0Q930 445 916 453Q926 458 935.5 466.0Q945 474 955 483Q947 539 937.0 587.5Q927 636 917 677Q866 669 827.5 659.5Q789 650 754.0 637.5Q719 625 678 608Q682 630 684.0 652.0Q686 674 686 696Q686 704 686.0 712.0Q686 720 685 728Q672 679 659.0 618.5Q646 558 635 485Q642 491 649.0 498.0Q656 505 665 512L677 505Q664 484 654.0 466.0Q644 448 635 431Q652 444 674.0 462.0Q696 480 732 512L744 505Q731 483 721.0 465.0Q711 447 701 430Q718 443 740.5 461.0Q763 479 800 512L812 505Q795 478 783.5 456.0Q772 434 759 412Q771 393 781.5 371.0Q792 349 807 325ZM1142 319 1166 342Q1162 372 1156.0 397.5Q1150 423 1145 445Q1129 439 1112.5 433.0Q1096 427 1078 419Q1083 440 1084.5 461.5Q1086 483 1086 505Q1086 523 1085.0 541.5Q1084 560 1081 579Q1074 544 1068.0 505.0Q1062 466 1056 422Q1070 404 1091.0 379.0Q1112 354 1142 319ZM512 130Q483 157 465.5 173.0Q448 189 433.5 201.0Q419 213 399 226Q418 243 442.0 260.5Q466 278 510 317Q482 343 464.5 359.0Q447 375 433.0 387.0Q419 399 399 412Q418 428 441.0 445.5Q464 463 507 500Q433 492 382.0 482.5Q331 473 290.5 460.5Q250 448 206 430Q243 432 283 439Q261 385 244.5 328.0Q228 271 218 186Q255 172 296.5 161.0Q338 150 390.0 142.5Q442 135 512 130ZM488 427 529 460Q528 468 526.5 476.0Q525 484 524 492Q513 474 504.5 458.0Q496 442 488 427ZM1387 130Q1380 234 1366.0 324.0Q1352 414 1335 491Q1286 484 1249.0 475.5Q1212 467 1178 456H1190Q1220 456 1247 462Q1237 423 1226.0 372.0Q1215 321 1207 247Q1209 245 1209 245L1207 244Q1203 205 1201 158Q1237 148 1281.5 141.5Q1326 135 1387 130ZM972 355 966 408Q925 402 884.0 395.5Q843 389 820 383Q844 376 888.0 368.0Q932 360 972 355ZM488 241Q499 251 514.0 262.5Q529 274 549 290L543 352Q526 368 513.0 379.0Q500 390 486 400Q497 381 507.0 361.0Q517 341 532 319Q518 297 508.0 278.0Q498 259 488 241ZM701 244Q717 256 737.5 272.5Q758 289 790 317Q756 349 737.5 366.0Q719 383 699 398Q709 379 719.0 359.5Q729 340 744 319Q731 297 721.0 279.0Q711 261 701 244ZM635 245Q650 257 670.5 273.0Q691 289 722 317Q688 348 670.0 365.0Q652 382 633 396Q643 378 653.0 359.0Q663 340 677 319Q664 298 654.0 280.0Q644 262 635 245ZM1035 228Q1052 242 1075.0 260.5Q1098 279 1127 306Q1103 328 1084.0 344.5Q1065 361 1049 374Q1045 340 1041.5 303.5Q1038 267 1035 228ZM609 278Q619 286 630.5 295.5Q642 305 655 317L617 353ZM980 284 974 340Q931 334 887.5 327.0Q844 320 819 313Q845 306 891.0 297.5Q937 289 980 284ZM1174 283 1170 321 1155 304ZM997 -110Q997 -58 996.0 -9.0Q995 40 993 86L992 84Q978 106 957.0 126.0Q936 146 916 158Q937 170 952.5 177.0Q968 184 987 195Q987 197 986.5 198.5Q986 200 986 202Q951 197 913.5 191.0Q876 185 846.5 179.5Q817 174 805 168Q807 179 808.0 190.5Q809 202 809 214Q809 220 808.5 226.0Q808 232 807 239L805 238Q805 242 806 244Q805 245 805 248L806 247Q809 264 809 279Q809 294 806 309L805 308Q791 285 780.5 265.5Q770 246 759 226Q772 205 783.5 182.0Q795 159 812 133L800 123Q760 159 740.0 177.5Q720 196 699 212Q709 193 719.0 173.5Q729 154 744 133L732 123Q693 158 673.0 176.5Q653 195 633 210Q643 192 653.0 173.0Q663 154 677 133L665 123L602 180L599 136L602 133L599 130Q595 42 593 -58Q661 -77 756.0 -91.0Q851 -105 997 -110ZM985 213 981 271Q937 265 891.0 257.5Q845 250 819 243Q837 238 865.0 232.5Q893 227 925.0 222.0Q957 217 985 213ZM555 215V218Q553 220 552 220Z" />
  </g>
</svg>