<svg xmlns="http://www.w3.org/2000/svg" viewBox="100 -234 1414 1025">
  <g transform="translate(0, 557) scale(1, -1)">
    <path fill="black" d="M473 -234Q485 -183 485 -129Q485 -75 473 -18Q495 -26 518.0 -34.5Q541 -43 566 -51Q564 119 552.0 257.0Q540 395 522 502Q442 493 388.5 483.0Q335 473 293.0 460.5Q251 448 206 430Q243 432 283 439Q261 385 244.5 328.0Q228 271 218 186Q259 171 305.0 159.0Q351 147 412.0 139.5Q473 132 557 128V106Q481 98 427.5 90.0Q374 82 333.5 72.0Q293 62 256.5 49.0Q220 36 178 19Q180 33 182.0 47.0Q184 61 185 75Q178 147 170.0 198.0Q162 249 152.0 288.0Q142 327 129.5 362.5Q117 398 100 439Q139 432 180 430Q183 450 185.0 469.0Q187 488 187 508Q187 551 178 602Q222 584 268.0 569.5Q314 555 373.5 545.0Q433 535 517 530Q507 591 495.0 642.0Q483 693 472 736Q523 724 577 724Q603 724 630.0 727.0Q657 730 685 735L678 791Q728 771 779.0 755.5Q830 740 903 730Q903 732 902.5 733.5Q902 735 902 736Q953 724 1007 724Q1061 724 1118 736Q1110 706 1101.5 671.5Q1093 637 1085 599Q1136 578 1190.5 562.5Q1245 547 1324 538Q1318 565 1311.5 590.5Q1305 616 1298 640Q1349 628 1403 628Q1457 628 1514 640Q1486 540 1460.5 413.5Q1435 287 1424 128H1437V106L1423 104Q1421 70 1420.0 33.0Q1419 -4 1419 -42H1393Q1393 -4 1392.0 31.5Q1391 67 1389 101Q1328 94 1285.5 86.0Q1243 78 1210.5 68.5Q1178 59 1147.5 47.0Q1117 35 1078 19Q1087 64 1087 108Q1087 151 1078 202Q1121 184 1161.5 170.0Q1202 156 1255.0 146.0Q1308 136 1387 130Q1380 234 1366.0 324.0Q1352 414 1335 491Q1278 483 1236.5 473.0Q1195 463 1158.0 450.0Q1121 437 1078 419Q1083 440 1084.5 461.5Q1086 483 1086 505Q1086 523 1085.0 541.5Q1084 560 1081 579Q1057 456 1040.0 285.5Q1023 115 1023 -111Q1054 -112 1086.5 -112.5Q1119 -113 1155 -113V-139Q1001 -139 890.0 -147.5Q779 -156 700.5 -170.0Q622 -184 567.5 -201.0Q513 -218 473 -234ZM997 -110Q997 -27 994.5 49.5Q992 126 987 195L955 193L949 126H941Q940 137 938.0 154.5Q936 172 934 192Q922 192 910.5 191.5Q899 191 885 190L879 126H871Q870 137 868.0 153.5Q866 170 864 189L814 187L809 126H801Q800 137 798.0 152.0Q796 167 794 185L744 182L739 126H731Q728 144 725 181Q688 178 661.5 174.5Q635 171 627 167Q629 178 630.0 187.5Q631 197 631 206Q631 215 630.0 223.5Q629 232 627 240Q637 236 662.0 232.5Q687 229 721 226L712 340Q681 337 658.0 334.0Q635 331 627 327Q629 338 630.0 347.5Q631 357 631 366Q631 375 630.0 383.5Q629 392 627 400Q636 396 657.5 393.0Q679 390 707 387Q704 419 701.0 442.0Q698 465 695 472Q706 471 717.0 469.5Q728 468 738 468Q745 468 751.5 468.5Q758 469 765 470V472Q767 471 771 471Q773 471 775 472Q775 471 774.5 471.0Q774 471 774 470Q783 469 791.5 468.5Q800 468 809 468Q816 468 822.0 468.5Q828 469 835 470V472Q837 471 841 471Q843 471 845 472Q845 471 844.5 471.0Q844 471 844 470Q853 469 861.5 468.5Q870 468 879 468Q886 468 892.0 468.5Q898 469 905 470V472Q907 471 911 471Q913 471 915 472Q915 471 914.5 471.0Q914 471 914 470Q922 469 930.0 468.5Q938 468 946 468H958Q949 529 938.5 581.0Q928 633 917 677Q866 669 827.5 659.5Q789 650 754.0 637.5Q719 625 678 608Q682 630 684.0 652.0Q686 674 686 696Q686 704 686.0 712.0Q686 720 685 728Q653 608 624.5 415.5Q596 223 593 -58Q661 -77 756.0 -91.0Q851 -105 997 -110ZM919 372Q917 395 914.5 415.5Q912 436 910 449Q908 436 905.5 416.0Q903 396 901 373Q906 373 910.5 372.5Q915 372 919 372ZM848 376 840 449Q838 436 835.5 417.5Q833 399 831 377Q836 377 840.0 377.0Q844 377 848 376ZM778 381 770 449Q768 437 766.0 420.0Q764 403 762 383ZM970 369H971Q971 370 970.5 370.5Q970 371 970 372ZM986 208Q983 247 979.5 283.5Q976 320 972 354H969Q965 319 962.0 281.0Q959 243 956 210ZM932 211Q930 244 926.5 281.0Q923 318 920 352Q915 351 909.5 351.0Q904 351 898 351L887 214ZM862 215Q859 247 856.5 281.5Q854 316 851 349L828 347L817 218ZM791 220Q789 250 786.5 282.0Q784 314 781 345L758 343Q755 314 752.0 283.5Q749 253 747 224Z" />
  </g>
</svg>