<svg xmlns="http://www.w3.org/2000/svg" viewBox="100 -350 1262 1086">
  <g transform="translate(0, 386) scale(1, -1)">
    <path fill="black" d="M294 -350Q294 -292 288.5 -232.0Q283 -172 275 -114Q160 -129 100 -146Q112 -95 112 -41Q112 13 100 70Q126 63 163.0 56.0Q200 49 246 42Q233 98 220.5 141.0Q208 184 198 205H199Q192 300 183.5 375.5Q175 451 153 506Q159 504 162 504Q167 530 169.5 554.5Q172 579 172 604Q172 659 160 710Q253 684 400.5 667.0Q548 650 744.0 637.0Q940 624 1176 609Q1169 644 1161.5 676.0Q1154 708 1146 736Q1197 724 1251 724Q1305 724 1362 736Q1339 653 1317.0 533.5Q1295 414 1281.0 254.0Q1267 94 1267 -112H1241Q1241 -96 1240.5 -81.0Q1240 -66 1240 -51Q1134 -51 1016.5 -55.0Q899 -59 780.5 -66.0Q662 -73 552 -83Q542 -147 534.5 -216.0Q527 -285 527 -350H504Q504 -286 498.0 -219.5Q492 -153 481 -90L339 -105Q329 -165 323.0 -228.0Q317 -291 317 -350ZM1240 -25Q1236 166 1220.5 314.5Q1205 463 1183 574Q1065 570 953.5 566.0Q842 562 739 556Q752 554 762.5 552.5Q773 551 783 551Q794 551 805.5 552.5Q817 554 833 557Q824 534 817.5 490.5Q811 447 807.0 392.5Q803 338 800.5 282.5Q798 227 796 180H783Q779 233 774.5 292.5Q770 352 765 407Q755 390 747.0 374.5Q739 359 731 345Q741 328 750.5 309.0Q760 290 773 269L764 261Q740 283 725.5 296.5Q711 310 700.0 319.5Q689 329 675 338Q626 331 585.5 322.0Q545 313 527 305Q529 316 530.0 326.5Q531 337 531 348Q531 367 527 384Q522 343 518.5 294.0Q515 245 513 195Q540 195 568.0 197.0Q596 199 624 205Q614 182 599.0 129.0Q584 76 569 6Q677 -3 792.0 -10.0Q907 -17 1021.5 -20.5Q1136 -24 1240 -25ZM750 511Q747 524 744.0 535.5Q741 547 737 556Q635 551 545.0 544.0Q455 537 380 529Q426 522 490.5 518.5Q555 515 624.0 513.5Q693 512 750 511ZM885 142Q880 206 875.0 247.0Q870 288 862.0 320.5Q854 353 839 389Q847 388 854.0 386.5Q861 385 868 384Q864 428 857.0 465.0Q850 502 839 529Q853 526 863.5 524.5Q874 523 885 523Q904 523 935 529Q925 506 919.5 468.5Q914 431 909 385L935 389Q922 358 915.5 325.5Q909 293 904 249Q918 260 936.5 274.5Q955 289 986 316L990 313Q986 332 980.0 350.5Q974 369 966 389Q974 388 981.0 386.5Q988 385 995 384Q991 428 984.0 465.0Q977 502 966 529Q980 526 990.5 524.5Q1001 523 1012 523Q1031 523 1062 529Q1052 506 1046.5 468.5Q1041 431 1036 385L1059 388Q1076 402 1096.0 417.5Q1116 433 1156 468L1165 462Q1152 440 1142.5 422.0Q1133 404 1123 387Q1133 370 1142.5 351.0Q1152 332 1165 311L1156 303Q1130 327 1114.5 341.0Q1099 355 1087.5 365.0Q1076 375 1060 385Q1048 355 1041.5 322.0Q1035 289 1031.5 246.0Q1028 203 1025 142H1012Q1008 199 1003.5 237.0Q999 275 992 306Q980 286 971.0 269.0Q962 252 953 235Q963 218 972.5 199.0Q982 180 995 159L986 151Q952 181 936.0 196.5Q920 212 903 225Q902 206 900.5 185.5Q899 165 898 142ZM295 196H313Q336 196 360.0 198.0Q384 200 408 204V205Q409 205 409.5 204.5Q410 204 411 204Q412 204 412.5 204.5Q413 205 414 205L413 204Q432 201 450.0 199.5Q468 198 487 196L484 249Q436 242 396.0 233.0Q356 224 339 216Q341 227 342.0 238.0Q343 249 343 260Q343 265 343.0 269.0Q343 273 342 277Q341 277 340.5 276.5Q340 276 339 276Q339 279 339.5 281.5Q340 284 340 287Q340 289 339.5 291.5Q339 294 339 296Q339 295 341 295Q342 301 342.5 307.5Q343 314 343 320Q343 325 342.5 329.0Q342 333 342 337Q341 337 340.5 336.5Q340 336 339 336Q339 339 339.5 341.5Q340 344 340 347Q340 349 339.5 351.5Q339 354 339 356Q339 355 341 355Q342 361 342.5 367.5Q343 374 343 380Q343 385 342.5 389.0Q342 393 342 397Q341 397 340.5 396.5Q340 396 339 396Q339 399 339.5 401.5Q340 404 340 407Q340 409 339.5 411.5Q339 414 339 416Q339 415 341 415Q342 421 342.0 426.5Q342 432 342 438V448L334 445Q337 462 338.0 474.0Q339 486 339 496Q339 503 339.0 510.5Q339 518 337 525Q292 520 254.0 513.5Q216 507 187 500H198Q213 500 234 503Q233 504 233 506L240 504L249 506L247 503Q264 500 278 500Q296 500 329 506Q316 474 310 413Q314 414 319.0 414.5Q324 415 329 416Q319 390 312.5 366.5Q306 343 301 313ZM673 351Q688 363 708.0 378.5Q728 394 763 425Q761 444 758.5 461.5Q756 479 753 495Q711 493 658.0 489.0Q605 485 551.0 480.0Q497 475 450 468Q463 466 473.5 464.5Q484 463 494 463Q512 463 545 469Q539 456 534.5 434.0Q530 412 527 385Q544 378 585.5 367.5Q627 357 673 351ZM274 197 265 310Q260 339 252.5 362.0Q245 385 233 416L254 412Q251 432 248.0 449.5Q245 467 241 481Q228 433 222.0 360.0Q216 287 212 204H205Q222 202 239.5 200.0Q257 198 274 197ZM456 446Q455 452 453.0 458.0Q451 464 449 468L392 459Q406 456 422.5 452.5Q439 449 456 446ZM469 384Q467 395 465.0 405.5Q463 416 461 425Q434 421 410.0 416.0Q386 411 368 406Q408 394 469 384ZM477 323 471 367Q441 363 414.5 357.0Q388 351 368 346Q389 340 417.5 334.0Q446 328 477 323ZM482 262Q481 274 480.5 285.5Q480 297 478 308Q446 304 417.5 297.5Q389 291 368 286Q415 271 482 262ZM462 16Q449 78 435.5 125.5Q422 173 411 198Q402 174 389.5 129.5Q377 85 364 26Q387 24 411.5 21.0Q436 18 462 16Z" />
  </g>
</svg>