<svg xmlns="http://www.w3.org/2000/svg" viewBox="100 -350 1262 1086">
  <g transform="translate(0, 386) scale(1, -1)">
    <path fill="black" d="M294 -350Q294 -292 288.5 -232.0Q283 -172 275 -114Q160 -129 100 -146Q112 -95 112 -41Q112 13 100 70Q126 63 163.0 56.0Q200 49 246 42Q233 98 220.5 141.0Q208 184 198 205Q227 201 255.5 198.0Q284 195 313 195Q360 195 408 204V205Q409 205 409.5 204.5Q410 204 411 204Q412 204 412.5 204.5Q413 205 414 205L413 204Q440 200 468.0 197.5Q496 195 524 195Q520 259 513.0 325.5Q506 392 496.5 448.0Q487 504 474 538Q370 529 290.0 518.5Q210 508 160 494Q172 551 172 605Q172 659 160 710Q253 684 400.5 667.0Q548 650 744.0 637.0Q940 624 1176 609Q1169 644 1161.5 676.0Q1154 708 1146 736Q1197 724 1251 724Q1305 724 1362 736Q1340 659 1319.5 550.5Q1299 442 1285 299H1293V286Q1290 285 1284 285Q1276 199 1271.5 100.0Q1267 1 1267 -112H1241Q1241 -96 1240.5 -81.0Q1240 -66 1240 -51Q1134 -51 1016.5 -55.0Q899 -59 780.5 -66.0Q662 -73 552 -83Q542 -147 534.5 -216.0Q527 -285 527 -350H504Q504 -286 498.0 -219.5Q492 -153 481 -90L339 -105Q329 -165 323.0 -228.0Q317 -291 317 -350ZM1240 -25Q1239 59 1234.5 134.5Q1230 210 1224 278Q1157 269 1107.0 258.0Q1057 247 1013 230Q1015 244 1016.5 258.0Q1018 272 1018 286Q1018 298 1017.0 311.0Q1016 324 1014 338Q1008 284 1004.0 228.5Q1000 173 998.0 124.5Q996 76 996 42H979Q979 83 976.5 143.0Q974 203 968.5 270.0Q963 337 955 397Q937 369 925.5 345.0Q914 321 900 299Q914 276 926.0 250.5Q938 225 956 197L944 187Q909 219 888.5 238.5Q868 258 851.5 271.5Q835 285 813 299Q828 312 844.5 324.5Q861 337 885.0 355.5Q909 374 944 406L954 400Q948 444 940.0 481.0Q932 518 923 542Q943 539 958.0 537.0Q973 535 988 535Q1013 535 1052 542Q1041 515 1031.5 462.0Q1022 409 1015 345Q1087 315 1222 303Q1215 382 1204.5 449.0Q1194 516 1183 574Q987 568 809.0 560.0Q631 552 488 540Q502 538 514.0 536.5Q526 535 539 535Q564 535 602 542Q590 514 580.5 457.5Q571 401 564.0 332.0Q557 263 552 196Q587 198 624 205Q614 182 599.0 129.0Q584 76 569 6Q677 -3 792.0 -10.0Q907 -17 1021.5 -20.5Q1136 -24 1240 -25ZM753 42Q748 105 744.0 149.0Q740 193 734.5 226.5Q729 260 720.5 290.0Q712 320 697 356Q708 354 717.0 353.0Q726 352 734 350Q727 410 718.0 461.0Q709 512 697 542Q717 539 732.0 537.0Q747 535 762 535Q787 535 826 542Q815 516 806.0 464.0Q797 412 789 350Q805 351 826 356Q809 316 798.0 275.0Q787 234 780.5 179.5Q774 125 770 42ZM462 16Q449 78 435.5 125.5Q422 173 411 198Q402 174 389.5 129.5Q377 85 364 26Q387 24 411.5 21.0Q436 18 462 16Z" />
  </g>
</svg>