<svg xmlns="http://www.w3.org/2000/svg" viewBox="100 -350 1262 1086">
  <g transform="translate(0, 386) scale(1, -1)">
    <path fill="black" d="M294 -350Q294 -292 288.5 -232.0Q283 -172 275 -114Q160 -129 100 -146Q112 -95 112 -41Q112 13 100 70Q126 63 163.0 56.0Q200 49 246 42Q233 98 220.5 141.0Q208 184 198 205Q227 201 255.5 198.0Q284 195 313 195Q360 195 408 204V205Q409 205 409.5 204.5Q410 204 411 204Q412 204 412.5 204.5Q413 205 414 205Q385 212 366.5 215.0Q348 218 341 219Q369 262 373 303Q401 282 451.0 255.0Q501 228 567 197Q581 198 595.5 200.0Q610 202 624 205Q622 199 619.0 192.0Q616 185 613 176Q655 157 701.0 136.5Q747 116 796 96Q745 189 697.5 269.5Q650 350 611.0 409.5Q572 469 545 500Q565 505 585.0 515.0Q605 525 624 539Q629 513 646.0 466.0Q663 419 688.5 358.0Q714 297 745.5 228.0Q777 159 813 88H815L814 87L815 86L808 80H805Q804 80 804.5 80.5Q805 81 804 81Q753 99 702.5 116.0Q652 133 605 149Q597 121 587.5 84.5Q578 48 569 6Q677 -3 792.0 -10.0Q907 -17 1021.5 -20.5Q1136 -24 1240 -25Q1239 71 1234.0 156.0Q1229 241 1221 316Q1159 313 1087.5 310.0Q1016 307 946.5 301.5Q877 296 821.5 287.5Q766 279 737 267Q744 306 744 331Q744 346 742.0 361.5Q740 377 737 396Q772 382 827.5 372.5Q883 363 949.5 356.5Q1016 350 1086.0 345.0Q1156 340 1219 335Q1215 373 1210.0 408.0Q1205 443 1200 475Q1139 472 1070.0 468.5Q1001 465 935.5 460.0Q870 455 817.5 447.0Q765 439 737 427Q744 466 744 491Q744 506 742.0 521.0Q740 536 737 555Q770 542 822.5 532.5Q875 523 938.5 517.0Q1002 511 1069.0 506.5Q1136 502 1197 497Q1194 517 1190.5 536.5Q1187 556 1183 574Q1011 569 852.0 561.5Q693 554 558.0 544.5Q423 535 321.0 522.5Q219 510 160 494Q172 551 172 605Q172 659 160 710Q253 684 400.5 667.0Q548 650 744.0 637.0Q940 624 1176 609Q1169 644 1161.5 676.0Q1154 708 1146 736Q1197 724 1251 724Q1305 724 1362 736Q1339 653 1317.0 533.5Q1295 414 1281.0 254.0Q1267 94 1267 -112H1241Q1241 -96 1240.5 -81.0Q1240 -66 1240 -51Q1134 -51 1016.5 -55.0Q899 -59 780.5 -66.0Q662 -73 552 -83Q542 -147 534.5 -216.0Q527 -285 527 -350H504Q504 -286 498.0 -219.5Q492 -153 481 -90L339 -105Q329 -165 323.0 -228.0Q317 -291 317 -350ZM353 261 343 264Q346 287 347.0 310.0Q348 333 348 355Q348 404 344.5 443.5Q341 483 339 508Q377 510 436.0 516.5Q495 523 584 530L586 521Q522 502 473.5 484.5Q425 467 398 457Q388 417 380.0 370.5Q372 324 353 261ZM462 16Q449 78 435.5 125.5Q422 173 411 198Q402 174 389.5 129.5Q377 85 364 26Q387 24 411.5 21.0Q436 18 462 16Z" />
  </g>
</svg>