<svg xmlns="http://www.w3.org/2000/svg" viewBox="100 -350 1309 1086">
  <g transform="translate(0, 386) scale(1, -1)">
    <path fill="black" d="M294 -350Q294 -292 288.5 -232.0Q283 -172 275 -114Q160 -129 100 -146Q112 -95 112 -41Q112 13 100 70Q126 63 163.0 56.0Q200 49 246 42Q233 98 220.5 141.0Q208 184 198 205Q227 201 256.0 198.0Q285 195 315 195Q338 195 360.5 197.0Q383 199 406 203Q407 214 408.0 225.5Q409 237 409 248Q409 255 408.5 261.5Q408 268 407 275L405 274V286Q406 298 407.0 310.5Q408 323 408 336Q408 342 408.0 347.5Q408 353 407 359L405 358V371Q406 383 407.0 395.5Q408 408 408 421Q408 427 408.0 432.5Q408 438 407 444L405 443V454Q406 466 407.0 478.0Q408 490 408 503Q408 510 407.5 517.5Q407 525 406 532Q327 525 264.0 515.0Q201 505 160 494Q172 551 172 605Q172 659 160 710Q253 684 400.5 667.0Q548 650 744.0 637.0Q940 624 1176 609Q1169 644 1161.5 676.0Q1154 708 1146 736Q1197 724 1251 724Q1305 724 1362 736Q1344 672 1327.0 586.5Q1310 501 1296 393Q1330 390 1360.0 388.0Q1390 386 1409 385V375Q1388 371 1357.5 367.0Q1327 363 1292 359Q1281 261 1274.0 143.5Q1267 26 1267 -112H1241Q1241 -96 1240.5 -81.0Q1240 -66 1240 -51Q1134 -51 1016.5 -55.0Q899 -59 780.5 -66.0Q662 -73 552 -83Q542 -147 534.5 -216.0Q527 -285 527 -350H504Q504 -286 498.0 -219.5Q492 -153 481 -90L339 -105Q329 -165 323.0 -228.0Q317 -291 317 -350ZM1240 -25Q1238 82 1232.0 175.5Q1226 269 1217 350Q1160 343 1113.5 336.5Q1067 330 1055 324Q1056 338 1057.5 353.0Q1059 368 1059 383Q1059 404 1055 421Q1066 417 1111.0 411.0Q1156 405 1211 400Q1205 449 1198.0 492.0Q1191 535 1183 574Q967 567 772.0 557.5Q577 548 428 534Q450 530 484.5 527.0Q519 524 559 520Q558 527 556.5 532.5Q555 538 553 541Q567 540 582.0 538.5Q597 537 612 537Q633 537 650 541Q649 537 647.0 530.0Q645 523 643 512Q679 509 711.0 507.0Q743 505 763 504Q763 521 760 540Q772 535 808.0 529.0Q844 523 890.0 517.5Q936 512 979 508Q974 532 971 541Q985 540 1000.0 538.5Q1015 537 1030 537Q1051 537 1068 541Q1065 532 1061.0 502.0Q1057 472 1053.0 429.0Q1049 386 1045.0 339.0Q1041 292 1038 250H1039V240L1037 239L1032 157H1022Q1019 171 1016.0 191.0Q1013 211 1011 235Q977 229 938.0 223.5Q899 218 862.0 212.0Q825 206 798.0 200.0Q771 194 760 189Q761 201 762.0 213.5Q763 226 763 239Q738 235 698.5 230.0Q659 225 616 220Q615 216 615.0 212.0Q615 208 615 203L624 205Q614 182 599.0 129.0Q584 76 569 6Q677 -3 792.0 -10.0Q907 -17 1021.5 -20.5Q1136 -24 1240 -25ZM763 419Q763 425 763.0 431.0Q763 437 762 444L760 443V454Q761 464 762.0 474.0Q763 484 763 494Q741 490 708.5 485.5Q676 481 639 477L633 428Q672 425 706.5 422.5Q741 420 763 419ZM991 422 983 484Q946 479 907.0 473.0Q868 467 834.0 461.0Q800 455 779 449Q801 445 836.5 440.0Q872 435 913.0 430.5Q954 426 991 422ZM573 433Q572 443 570.5 452.0Q569 461 568 469Q525 465 488.0 459.5Q451 454 428 449Q451 445 490.0 441.0Q529 437 573 433ZM763 335Q763 341 763.0 347.0Q763 353 762 359L760 358V370Q761 380 762.0 389.5Q763 399 763 409Q740 405 704.5 400.5Q669 396 630 391Q629 380 628.0 368.0Q627 356 626 345Q667 341 704.0 339.0Q741 337 763 335ZM1000 337Q998 354 996.5 369.5Q995 385 993 401Q956 395 915.5 389.0Q875 383 839.0 377.0Q803 371 781 365Q804 360 841.5 354.5Q879 349 921.0 344.5Q963 340 1000 337ZM583 349 578 385Q534 380 494.5 375.0Q455 370 430 365Q456 361 496.5 357.0Q537 353 583 349ZM763 250Q763 256 763.0 262.0Q763 268 762 275L760 274V285Q761 295 762.0 305.0Q763 315 763 325Q738 321 701.0 316.0Q664 311 622 306L619 260ZM1009 252Q1007 268 1005.5 284.5Q1004 301 1002 318Q964 312 920.5 305.5Q877 299 839.5 293.0Q802 287 779 280Q803 275 842.5 269.5Q882 264 927.0 259.5Q972 255 1009 252ZM593 263Q592 272 590.5 282.0Q589 292 588 302Q540 297 497.0 291.0Q454 285 428 280Q454 276 499.0 271.5Q544 267 593 263ZM521 195Q561 195 601 201L599 218Q557 214 517.5 209.0Q478 204 449 199Q467 198 485.0 196.5Q503 195 521 195ZM462 16Q450 74 437.0 120.0Q424 166 413 192L408 190Q389 137 364 26Q387 24 411.5 21.0Q436 18 462 16Z" />
  </g>
</svg>