<svg xmlns="http://www.w3.org/2000/svg" viewBox="100 -350 1262 1086">
  <g transform="translate(0, 386) scale(1, -1)">
    <path fill="black" d="M294 -350Q294 -292 288.5 -232.0Q283 -172 275 -114Q160 -129 100 -146Q112 -95 112 -41Q112 13 100 70Q126 63 163.0 56.0Q200 49 246 42Q233 98 220.5 141.0Q208 184 198 205Q228 201 259.5 198.0Q291 195 323 195Q325 206 326.0 217.5Q327 229 327 240Q327 265 321 290Q333 286 364.0 279.5Q395 273 435 267Q430 324 424.0 380.0Q418 436 413.0 478.0Q408 520 404 532Q325 524 263.0 514.5Q201 505 160 494Q172 551 172 605Q172 659 160 710Q253 684 400.5 667.0Q548 650 744.0 637.0Q940 624 1176 609Q1169 644 1161.5 676.0Q1154 708 1146 736Q1197 724 1251 724Q1305 724 1362 736Q1339 653 1317.0 533.5Q1295 414 1281.0 254.0Q1267 94 1267 -112H1241Q1241 -96 1240.5 -81.0Q1240 -66 1240 -51Q1134 -51 1016.5 -55.0Q899 -59 780.5 -66.0Q662 -73 552 -83Q542 -147 534.5 -216.0Q527 -285 527 -350H504Q504 -286 498.0 -219.5Q492 -153 481 -90L339 -105Q329 -165 323.0 -228.0Q317 -291 317 -350ZM1240 -25Q1236 166 1220.5 314.5Q1205 463 1183 574Q1034 570 894.0 564.0Q754 558 630.5 550.0Q507 542 407 532Q419 529 430.5 528.0Q442 527 453 527Q481 527 508 533Q503 522 497.5 479.0Q492 436 487.0 378.0Q482 320 476 261Q512 256 547.5 251.0Q583 246 611 243Q608 273 604.0 303.5Q600 334 596.0 357.5Q592 381 588 389Q598 388 607.5 387.0Q617 386 627 387Q629 400 628.0 412.0Q627 424 626 436Q632 433 657.5 429.5Q683 426 718.5 422.5Q754 419 792.0 416.0Q830 413 862.0 411.0Q894 409 910 409V401Q922 400 935.0 399.5Q948 399 961 399Q969 399 976.5 399.5Q984 400 992 401Q988 389 981.5 358.5Q975 328 969.0 289.5Q963 251 958 215Q1001 208 1045.5 202.0Q1090 196 1124 193Q1120 239 1115.0 291.5Q1110 344 1105.0 393.5Q1100 443 1095 479Q1057 474 1005.0 468.5Q953 463 901.0 457.0Q849 451 809.5 445.0Q770 439 758 434Q760 449 761.5 463.5Q763 478 763 493Q763 504 762.0 516.0Q761 528 758 540Q767 536 794.5 531.0Q822 526 860.5 520.5Q899 515 941.0 510.5Q983 506 1023.0 501.5Q1063 497 1093 494Q1091 508 1089.5 519.0Q1088 530 1086 534Q1112 528 1136 528Q1163 528 1190 534Q1186 523 1181.0 485.5Q1176 448 1171.0 395.5Q1166 343 1161.0 286.5Q1156 230 1151.5 182.0Q1147 134 1143 105H1134Q1132 119 1129.5 139.0Q1127 159 1125 183Q1090 178 1046.5 172.5Q1003 167 960.5 160.5Q918 154 885.5 147.5Q853 141 840 135Q842 150 843.5 165.0Q845 180 845 195Q845 212 842 230Q829 229 814.5 228.0Q800 227 783 226L779 168H770Q768 179 766.5 193.5Q765 208 763 224Q715 220 674.5 216.5Q634 213 626 210Q628 220 628.0 229.5Q628 239 627 249Q626 237 625.0 225.0Q624 213 624 205Q614 182 599.0 129.0Q584 76 569 6Q677 -3 792.0 -10.0Q907 -17 1021.5 -20.5Q1136 -24 1240 -25ZM760 251 754 311Q714 308 683.0 305.0Q652 302 646 300Q649 316 648.0 330.5Q647 345 646 359Q652 356 681.0 352.5Q710 349 749 345Q746 368 743 375Q757 374 771.5 373.0Q786 372 802 375Q801 371 799.0 362.0Q797 353 795 341Q833 338 868.0 335.5Q903 333 926 332Q918 382 910 400Q893 399 858.0 396.5Q823 394 781.5 391.5Q740 389 702.5 386.0Q665 383 644 380Q641 364 637.0 332.5Q633 301 629 268Q642 264 679.5 259.5Q717 255 760 251ZM940 218Q938 244 934.5 271.0Q931 298 927 322L792 314Q790 298 788.5 281.5Q787 265 785 248Q819 245 848.0 243.5Q877 242 893 242V233L869 231Q883 228 901.5 224.5Q920 221 940 218ZM523 195Q546 195 569.0 197.0Q592 199 615 203L612 231Q582 227 545.5 222.5Q509 218 472 213Q472 209 471.5 205.0Q471 201 471 197Q484 196 497.0 195.5Q510 195 523 195ZM442 200Q441 203 441 209Q439 209 427.0 207.0Q415 205 413 204Q421 203 428.0 202.0Q435 201 442 200ZM462 16Q449 78 435.5 125.5Q422 173 411 198Q402 174 389.5 129.5Q377 85 364 26Q387 24 411.5 21.0Q436 18 462 16Z" />
  </g>
</svg>