<svg xmlns="http://www.w3.org/2000/svg" viewBox="100 -350 1262 1086">
  <g transform="translate(0, 386) scale(1, -1)">
    <path fill="black" d="M294 -350Q294 -292 288.5 -232.0Q283 -172 275 -114Q160 -129 100 -146Q112 -95 112 -41Q112 13 100 70Q126 63 163.0 56.0Q200 49 246 42Q235 91 224.0 128.5Q213 166 198 205Q205 204 212.0 203.0Q219 202 226 201Q227 208 228.0 215.5Q229 223 229 231Q229 236 228.5 241.0Q228 246 227 250L225 249V258Q226 267 227.0 276.0Q228 285 228 295Q228 300 228.0 304.0Q228 308 227 312L225 311V320Q226 328 227.0 337.0Q228 346 228 356Q228 361 228.0 365.0Q228 369 227 373L225 372V382Q226 391 227.0 399.5Q228 408 228 418Q228 422 228.0 426.5Q228 431 227 435L225 434V443Q226 452 227.0 461.5Q228 471 228 480Q228 492 225 504Q243 499 290.5 492.5Q338 486 391 482Q385 513 380 525L432 521L449 536Q354 528 280.5 517.5Q207 507 160 494Q172 551 172 605Q172 659 160 710Q253 684 400.5 667.0Q548 650 744.0 637.0Q940 624 1176 609Q1169 644 1161.5 676.0Q1154 708 1146 736Q1197 724 1251 724Q1305 724 1362 736Q1339 653 1317.0 533.5Q1295 414 1281.0 254.0Q1267 94 1267 -112H1241Q1241 -96 1240.5 -81.0Q1240 -66 1240 -51Q1134 -51 1016.5 -55.0Q899 -59 780.5 -66.0Q662 -73 552 -83Q542 -147 534.5 -216.0Q527 -285 527 -350H504Q504 -286 498.0 -219.5Q492 -153 481 -90L339 -105Q329 -165 323.0 -228.0Q317 -291 317 -350ZM1103 524Q1101 538 1099.5 549.0Q1098 560 1096 564Q1122 558 1147 558Q1167 558 1186 561L1183 574Q1086 571 992.0 567.5Q898 564 809 560Q836 555 874.0 550.0Q912 545 954.0 540.0Q996 535 1035.0 531.0Q1074 527 1103 524ZM1134 223Q1130 269 1125.0 321.5Q1120 374 1115.0 423.5Q1110 473 1105 509Q1067 504 1015.0 498.5Q963 493 911.0 487.0Q859 481 819.5 475.0Q780 469 768 464Q770 479 771.5 493.5Q773 508 773 523Q773 540 770 558Q699 554 632.5 550.0Q566 546 505 541Q518 523 541.5 495.5Q565 468 614 417H637Q638 421 638.0 425.0Q638 429 638 433Q638 441 637.5 449.5Q637 458 636 466Q642 463 667.5 459.5Q693 456 728.5 452.5Q764 449 802.0 446.0Q840 443 872.0 441.0Q904 439 920 439V431Q932 430 945.0 429.5Q958 429 971 429Q979 429 986.5 429.5Q994 430 1002 431Q998 419 991.5 388.5Q985 358 979.0 319.5Q973 281 968 245Q1011 238 1055.5 232.0Q1100 226 1134 223ZM1240 -25Q1237 146 1223.5 283.0Q1210 420 1192 526Q1187 492 1181.5 438.5Q1176 385 1171.0 326.0Q1166 267 1161.5 216.0Q1157 165 1153 135H1144Q1142 149 1139.5 169.0Q1137 189 1135 213Q1100 208 1056.5 202.5Q1013 197 970.5 190.5Q928 184 895.5 177.5Q863 171 850 165Q852 180 853.5 195.0Q855 210 855 225Q855 242 852 260Q838 259 823.5 258.0Q809 257 792 256Q791 243 790.0 231.5Q789 220 789 212H780L774 254Q742 252 712.5 249.5Q683 247 662.0 244.5Q641 242 636 240Q635 233 634.5 225.0Q634 217 634 212H625L617 303Q589 286 551.0 261.0Q513 236 468 198Q482 197 496.5 196.5Q511 196 525 196Q549 196 574.0 198.0Q599 200 624 205Q614 182 599.0 129.0Q584 76 569 6Q677 -3 792.0 -10.0Q907 -17 1021.5 -20.5Q1136 -24 1240 -25ZM452 199Q505 252 535.5 284.5Q566 317 582.5 337.0Q599 357 608 372L602 404Q561 436 527.5 457.0Q494 478 470 491Q466 466 462.0 429.0Q458 392 454.5 350.5Q451 309 448.0 269.5Q445 230 443 200Q449 200 452 199ZM401 419Q400 431 398.0 442.5Q396 454 394 464Q348 458 306.5 452.0Q265 446 241 439Q267 434 311.0 428.5Q355 423 401 419ZM936 362Q927 417 920 430Q903 429 868.0 426.5Q833 424 791.5 421.5Q750 419 712.5 416.0Q675 413 654 410Q653 405 652.0 397.5Q651 390 650 381L657 374Q656 378 656.0 381.5Q656 385 656 389Q662 386 691.5 382.5Q721 379 760 375Q759 386 757.0 393.5Q755 401 753 405Q762 404 771.0 403.5Q780 403 789 403Q794 403 800.0 403.5Q806 404 812 405Q808 395 805 371Q843 368 878.0 365.5Q913 363 936 362ZM410 357 404 404Q356 397 312.5 390.5Q269 384 243 377Q270 372 316.5 366.0Q363 360 410 357ZM950 248Q948 274 944.5 301.0Q941 328 937 352L801 343L794 278Q828 275 857.5 273.5Q887 272 903 272V263L879 261Q893 258 911.5 254.5Q930 251 950 248ZM418 294 412 344Q361 337 314.5 330.0Q268 323 241 316Q269 310 318.0 303.5Q367 297 418 294ZM771 280Q769 296 767.5 311.5Q766 327 764 341L671 333L643 318Q642 313 641.5 307.5Q641 302 641 297Q655 293 691.5 289.0Q728 285 771 280ZM425 232 419 283Q366 276 317.5 268.5Q269 261 241 254Q270 247 321.5 240.5Q373 234 425 232ZM636 241Q637 247 637.5 252.5Q638 258 638 264Q637 258 636.5 252.0Q636 246 636 241ZM310 195Q359 195 408 204V205Q409 205 409.5 204.5Q410 204 411 204Q412 204 412.5 204.5Q413 205 414 205L413 204Q417 203 420.5 202.5Q424 202 428 202Q427 207 426.5 212.5Q426 218 426 223Q380 216 337.5 209.5Q295 203 264 197Q275 196 287.0 195.5Q299 195 310 195ZM462 16Q451 69 443.0 99.0Q435 129 429.0 145.5Q423 162 418.5 173.0Q414 184 411 198Q396 150 388.0 121.5Q380 93 375.0 72.5Q370 52 364 26Q387 24 411.5 21.0Q436 18 462 16Z" />
  </g>
</svg>