<svg xmlns="http://www.w3.org/2000/svg" viewBox="100 -350 1262 1086">
  <g transform="translate(0, 386) scale(1, -1)">
    <path fill="black" d="M294 -350Q294 -292 288.5 -232.0Q283 -172 275 -114Q160 -129 100 -146Q112 -95 112 -41Q112 13 100 70Q126 63 163.0 56.0Q200 49 246 42Q233 98 220.5 141.0Q208 184 198 205Q227 201 255.5 198.0Q284 195 313 195Q360 195 408 204V205Q409 205 409.5 204.5Q410 204 411 204Q412 204 412.5 204.5Q413 205 414 205L413 204Q433 201 452.5 199.5Q472 198 492 196Q493 204 493.5 212.0Q494 220 494 227Q494 236 493.0 245.0Q492 254 490 263Q497 260 519.0 256.5Q541 253 571 249Q572 256 573.0 263.5Q574 271 574 279Q574 284 573.5 289.0Q573 294 572 298L570 297V306Q571 314 572.0 323.0Q573 332 573 342Q573 347 573.0 351.0Q573 355 572 359L570 358V368Q571 377 572.0 385.5Q573 394 573 404Q573 408 573.0 412.5Q573 417 572 421L570 420V429Q571 438 572.0 447.5Q573 457 573 466Q573 478 570 490Q581 487 608.0 483.0Q635 479 670.5 475.5Q706 472 742 469Q741 478 740.0 485.5Q739 493 737 500Q672 498 619.0 495.0Q566 492 532.5 489.5Q499 487 491 484Q493 494 494.0 502.0Q495 510 495 517Q495 523 494.5 528.5Q494 534 493 540Q382 531 297.0 519.5Q212 508 160 494Q172 551 172 605Q172 659 160 710Q253 684 400.5 667.0Q548 650 744.0 637.0Q940 624 1176 609Q1169 644 1161.5 676.0Q1154 708 1146 736Q1197 724 1251 724Q1305 724 1362 736Q1339 653 1317.0 533.5Q1295 414 1281.0 254.0Q1267 94 1267 -112H1241Q1241 -96 1240.5 -81.0Q1240 -66 1240 -51Q1134 -51 1016.5 -55.0Q899 -59 780.5 -66.0Q662 -73 552 -83Q542 -147 534.5 -216.0Q527 -285 527 -350H504Q504 -286 498.0 -219.5Q492 -153 481 -90L339 -105Q329 -165 323.0 -228.0Q317 -291 317 -350ZM1240 -25Q1236 166 1220.5 314.5Q1205 463 1183 574Q1022 570 872.0 563.0Q722 556 593 547Q651 542 731.0 537.0Q811 532 900.5 528.5Q990 525 1078 524Q1076 541 1073.5 552.0Q1071 563 1069 567Q1083 566 1098.0 564.5Q1113 563 1128 563Q1149 563 1166 567Q1163 560 1159.5 527.5Q1156 495 1152.5 447.5Q1149 400 1145.5 346.0Q1142 292 1139.0 240.0Q1136 188 1133.5 147.0Q1131 106 1130 85H1120Q1118 112 1113.5 165.0Q1109 218 1103.5 281.5Q1098 345 1092 404Q1080 385 1071.5 368.5Q1063 352 1054 336Q1064 319 1073.5 300.0Q1083 281 1096 260L1087 252Q1063 274 1048.0 288.0Q1033 302 1021.5 312.0Q1010 322 996 331Q961 326 922.0 320.0Q883 314 852.0 308.0Q821 302 808 296Q811 317 811 339Q811 345 811.0 351.0Q811 357 810 363Q806 311 802.5 255.5Q799 200 796.5 154.5Q794 109 792 85H782L770 217Q742 213 702.5 209.5Q663 206 623 202Q613 178 598.0 126.0Q583 74 569 6Q677 -3 792.0 -10.0Q907 -17 1021.5 -20.5Q1136 -24 1240 -25ZM994 340Q1010 353 1030.0 368.5Q1050 384 1087 417L1091 414Q1088 440 1085.5 464.0Q1083 488 1080 507Q1016 506 951.0 505.5Q886 505 824 503Q821 484 817.5 449.5Q814 415 811 374Q825 369 856.0 362.5Q887 356 924.5 350.0Q962 344 994 340ZM750 406 745 449Q699 443 655.5 437.0Q612 431 587 425Q613 420 658.5 415.0Q704 410 750 406ZM757 344Q756 355 755.0 366.0Q754 377 752 388Q706 382 661.0 375.5Q616 369 589 363Q617 358 664.0 352.5Q711 347 757 344ZM764 281Q763 293 761.5 305.0Q760 317 759 329Q709 322 661.0 315.5Q613 309 586 302Q615 296 665.0 290.0Q715 284 764 281ZM769 229Q768 239 767.5 248.5Q767 258 765 268Q722 263 680.5 257.0Q639 251 609 245Q652 240 695.5 236.0Q739 232 769 229ZM462 16Q449 78 435.5 125.5Q422 173 411 198Q402 174 389.5 129.5Q377 85 364 26Q387 24 411.5 21.0Q436 18 462 16Z" />
  </g>
</svg>