<svg xmlns="http://www.w3.org/2000/svg" viewBox="100 -350 1262 1086">
  <g transform="translate(0, 386) scale(1, -1)">
    <path fill="black" d="M294 -350Q294 -293 288.5 -232.5Q283 -172 275 -114Q219 -121 174.0 -129.5Q129 -138 100 -146Q112 -95 112 -41Q112 13 100 70Q126 63 163.0 56.0Q200 49 246 42Q233 99 220.5 141.5Q208 184 198 205Q227 201 255.5 198.0Q284 195 314 195Q359 195 408 204V205Q409 205 409.5 204.5Q410 204 411 204Q412 204 412.5 204.5Q413 205 414 205V204Q441 200 469.0 197.5Q497 195 525 195Q575 195 624 205Q614 182 599.5 129.5Q585 77 570 6Q678 -3 793.0 -10.0Q908 -17 1022.0 -21.0Q1136 -25 1240 -25Q1237 166 1221.0 314.5Q1205 463 1183 574Q1043 570 910.5 564.5Q778 559 660 552Q670 540 697.5 513.5Q725 487 762.5 454.0Q800 421 839 386L980 492Q976 494 972.0 496.0Q968 498 964 499Q975 509 986.0 519.5Q997 530 1004 545Q1018 529 1039.0 508.0Q1060 487 1091 461Q1093 463 1096.0 465.5Q1099 468 1102 470L1109 467Q1102 459 1100 454Q1123 435 1151.0 413.0Q1179 391 1213 368Q1181 345 1140.0 314.5Q1099 284 1061.5 253.0Q1024 222 1004 197Q997 212 986.0 223.0Q975 234 964 242L977 248Q953 266 916.5 293.5Q880 321 839 351Q796 313 755.5 277.0Q715 241 687.5 214.5Q660 188 656 180Q644 193 632.0 203.0Q620 213 605 222L611 225L601 363Q555 353 519.5 342.5Q484 332 469 321Q472 344 472 367Q472 378 471.0 389.5Q470 401 467 413Q481 403 518.5 393.5Q556 384 599 377Q596 422 592.0 458.0Q588 494 585 500Q593 499 600.5 498.5Q608 498 615 498Q620 498 625.0 498.0Q630 498 634 499Q624 505 617.0 509.5Q610 514 605 515Q619 523 629.5 531.5Q640 540 650 551Q484 541 356.5 527.0Q229 513 160 494Q172 551 172 605Q172 659 160 710Q253 684 401.0 667.0Q549 650 744.5 637.0Q940 624 1177 609Q1170 645 1162.0 676.5Q1154 708 1146 736Q1197 724 1251 724Q1305 724 1362 736Q1339 653 1317.0 533.5Q1295 414 1281.0 254.0Q1267 94 1267 -112H1241V-51Q1134 -51 1016.5 -55.5Q899 -60 780.5 -67.0Q662 -74 552 -84Q542 -148 534.5 -216.5Q527 -285 527 -350H504Q504 -287 498.0 -220.5Q492 -154 481 -90Q444 -94 408.0 -97.5Q372 -101 339 -106Q329 -166 323.0 -228.5Q317 -291 317 -350ZM667 454Q674 454 680.5 455.5Q687 457 694 458Q679 469 666.0 477.5Q653 486 642 493Q641 488 640.0 478.5Q639 469 638 457Q652 454 667 454ZM989 253Q1014 265 1041.5 279.0Q1069 293 1106.5 314.5Q1144 336 1198 367Q1164 387 1136.5 403.5Q1109 420 1086 433L1080 424Q1085 417 1094.5 402.5Q1104 388 1109 381L1102 375Q1076 396 1064.5 405.0Q1053 414 1037 424L1067 444Q1045 457 1027.0 467.0Q1009 477 992 486Q970 467 934.5 435.5Q899 404 859 369ZM671 263Q701 284 739.0 312.0Q777 340 816 369Q785 392 753.5 415.0Q722 438 695 457Q692 451 688.5 428.5Q685 406 681.5 375.0Q678 344 675.5 314.0Q673 284 671 263ZM620 230Q637 240 660 256Q659 274 656.5 303.0Q654 332 650.5 363.0Q647 394 643.5 418.5Q640 443 637 453Q634 421 630.5 376.5Q627 332 624.5 292.0Q622 252 620 230ZM970 281Q944 302 933.0 311.0Q922 320 906 330Q915 337 926.5 344.5Q938 352 957 367Q939 381 929.5 389.0Q920 397 906 404Q917 412 930.5 421.5Q944 431 970 451L977 447Q968 435 962.0 425.0Q956 415 949 404Q954 397 958.5 390.0Q963 383 967 375L970 377L977 373L973 367L977 361L970 356L967 358Q962 351 958.0 344.0Q954 337 949 330Q956 320 962.0 309.5Q968 299 977 286ZM1036 328Q1010 349 998.5 358.0Q987 367 971 377Q979 383 988.5 389.5Q998 396 1013 406Q1018 410 1023.5 414.5Q1029 419 1036 424L1043 420Q1034 408 1027.5 397.5Q1021 387 1015 377Q1018 372 1027.5 356.5Q1037 341 1043 334ZM462 16Q449 78 435.5 125.5Q422 173 411 198Q402 174 389.5 129.5Q377 85 364 27Q387 24 412.0 21.5Q437 19 462 16Z" />
  </g>
</svg>