<svg xmlns="http://www.w3.org/2000/svg" viewBox="100 -350 1262 1086">
  <g transform="translate(0, 386) scale(1, -1)">
    <path fill="black" d="M294 -350Q294 -292 288.5 -232.0Q283 -172 275 -114Q160 -129 100 -146Q112 -95 112 -41Q112 13 100 70Q126 63 163.0 56.0Q200 49 246 42Q233 98 220.5 141.0Q208 184 198 205Q227 201 255.5 198.0Q284 195 313 195Q360 195 408 204V205Q409 205 409.5 204.5Q410 204 411 204Q412 204 412.5 204.5Q413 205 414 205L413 204Q430 202 447.5 200.0Q465 198 482 197Q481 216 478.0 237.5Q475 259 473 281Q440 277 415.5 273.5Q391 270 383 266Q385 277 386.0 287.5Q387 298 387 309Q387 329 383 346Q390 343 412.5 339.0Q435 335 466 331Q463 349 459.5 364.0Q456 379 453 389Q461 387 470.0 386.0Q479 385 488 385Q504 385 523 388V389L524 388Q525 388 525.0 388.5Q525 389 526 389L525 388Q540 385 556 385Q565 385 575.0 386.0Q585 387 596 389Q592 379 588.0 360.5Q584 342 581 318L623 313Q621 344 618.0 372.5Q615 401 613 425Q581 422 544.0 418.0Q507 414 473.5 410.5Q440 407 415.5 403.0Q391 399 383 396Q385 407 386.0 417.5Q387 428 387 439Q387 459 383 476Q390 473 414.5 469.0Q439 465 472.5 460.5Q506 456 542.5 452.0Q579 448 611 445Q607 483 603 493Q613 492 622.5 490.5Q632 489 642 489H651Q654 509 654 529Q654 534 654.0 540.0Q654 546 653 551Q486 541 357.5 527.0Q229 513 160 494Q172 551 172 605Q172 659 160 710Q253 684 400.5 667.0Q548 650 744.0 637.0Q940 624 1176 609Q1169 644 1161.5 676.0Q1154 708 1146 736Q1197 724 1251 724Q1305 724 1362 736Q1339 653 1317.0 533.5Q1295 414 1281.0 254.0Q1267 94 1267 -112H1241Q1241 -96 1240.5 -81.0Q1240 -66 1240 -51Q1134 -51 1016.5 -55.0Q899 -59 780.5 -66.0Q662 -73 552 -83Q542 -147 534.5 -216.0Q527 -285 527 -350H504Q504 -286 498.0 -219.5Q492 -153 481 -90L339 -105Q329 -165 323.0 -228.0Q317 -291 317 -350ZM1191 532Q1189 543 1187.0 553.5Q1185 564 1183 574Q1068 570 958.0 566.0Q848 562 747 557Q798 554 862.5 550.5Q927 547 991.5 543.5Q1056 540 1109.5 537.0Q1163 534 1191 532ZM1240 -25Q1237 144 1224.0 279.5Q1211 415 1193 521Q1168 519 1122.5 516.5Q1077 514 1021.0 511.0Q965 508 906.0 505.0Q847 502 796 499Q814 496 834 496Q844 496 854.0 497.0Q864 498 874 500Q870 492 866.0 456.5Q862 421 857.5 373.0Q853 325 848.5 276.0Q844 227 841 191L906 188Q902 224 898.0 273.5Q894 323 890.0 371.5Q886 420 882.0 455.5Q878 491 874 500Q885 499 895.5 497.5Q906 496 917 496Q937 496 954 500Q951 493 947.5 468.0Q944 443 940.5 407.5Q937 372 933.5 331.5Q930 291 926.5 253.0Q923 215 921 187L986 183Q983 211 980.0 249.5Q977 288 973.5 328.5Q970 369 967.0 405.5Q964 442 960.5 467.5Q957 493 954 500Q965 499 975.5 497.5Q986 496 997 496Q1017 496 1034 500Q1031 493 1027.5 467.5Q1024 442 1020.5 405.5Q1017 369 1013.5 328.0Q1010 287 1006.5 249.0Q1003 211 1001 183L1067 179Q1064 207 1061.0 245.5Q1058 284 1054.5 325.0Q1051 366 1047.5 403.5Q1044 441 1040.5 467.0Q1037 493 1034 500Q1045 499 1055.5 497.5Q1066 496 1077 496Q1097 496 1114 500Q1111 493 1107.5 467.0Q1104 441 1100.0 403.5Q1096 366 1092.5 324.5Q1089 283 1085.5 244.5Q1082 206 1080 179Q1099 178 1116.0 177.0Q1133 176 1147 175Q1144 202 1141.0 241.0Q1138 280 1134.5 322.0Q1131 364 1127.5 402.0Q1124 440 1120.5 466.5Q1117 493 1114 500Q1125 499 1135.5 497.5Q1146 496 1157 496Q1177 496 1194 500Q1191 493 1187.5 466.0Q1184 439 1180.0 400.5Q1176 362 1172.5 320.0Q1169 278 1165.5 239.0Q1162 200 1160 174L1207 171V163Q1200 162 1187.5 161.0Q1175 160 1158 158V154H1150Q1150 155 1149.5 156.0Q1149 157 1149 158Q1133 157 1115.5 156.0Q1098 155 1078 154H1077Q1028 151 972.5 148.5Q917 146 862.5 143.0Q808 140 762.0 137.5Q716 135 686.5 132.0Q657 129 651 127Q654 148 654 171Q654 177 654.0 183.5Q654 190 653 196L647 127H639Q635 150 631.5 197.5Q628 245 624 297Q614 296 602.0 295.0Q590 294 578 292Q575 268 573.5 243.5Q572 219 570 197Q584 198 597.5 200.0Q611 202 624 205Q614 182 599.0 129.0Q584 76 569 6Q677 -3 792.0 -10.0Q907 -17 1021.5 -20.5Q1136 -24 1240 -25ZM741 496H753Q772 496 791 499ZM825 192Q822 228 818.0 276.5Q814 325 810.0 372.5Q806 420 802.0 455.0Q798 490 794 499Q790 490 786.0 456.0Q782 422 777.5 375.0Q773 328 769.0 280.0Q765 232 762 196Q776 195 792.5 194.0Q809 193 825 192ZM745 197Q742 232 738.5 277.0Q735 322 731.0 367.0Q727 412 723.5 446.5Q720 481 716 495L682 492Q679 483 675.5 452.5Q672 422 668.0 379.5Q664 337 660.5 291.0Q657 245 654 206Q662 204 686.5 201.5Q711 199 745 197ZM537 323Q534 343 531.0 359.0Q528 375 524 385Q521 376 517.5 360.5Q514 345 512 325ZM526 195Q533 195 539.0 195.0Q545 195 552 196Q551 217 548.0 241.0Q545 265 542 289Q533 288 524.5 287.5Q516 287 507 285Q505 262 503.5 239.0Q502 216 500 196Q506 195 512.5 195.0Q519 195 526 195ZM462 16Q449 78 435.5 125.5Q422 173 411 198Q402 174 389.5 129.5Q377 85 364 26Q387 24 411.5 21.0Q436 18 462 16Z" />
  </g>
</svg>