<svg xmlns="http://www.w3.org/2000/svg" viewBox="100 -350 1262 1086">
  <g transform="translate(0, 386) scale(1, -1)">
    <path fill="black" d="M294 -350Q294 -292 288.5 -232.0Q283 -172 275 -114Q160 -129 100 -146Q112 -95 112 -41Q112 13 100 70Q126 63 163.0 56.0Q200 49 246 42Q233 98 220.5 141.0Q208 184 198 205Q227 201 255.5 198.0Q284 195 313 195Q360 195 408 204V205Q409 205 409.5 204.5Q410 204 411 204Q412 204 412.5 204.5Q413 205 414 205L413 204Q441 200 469.0 197.5Q497 195 525 195Q542 195 559.5 196.5Q577 198 595 200Q593 244 588.5 293.0Q584 342 580.0 382.0Q576 422 573 437Q568 465 563.5 485.5Q559 506 551 534Q562 530 568.0 530.0Q574 530 584 529L579 532Q585 536 590.5 539.0Q596 542 602 548Q452 538 338.0 524.5Q224 511 160 494Q172 551 172 605Q172 659 160 710Q253 684 400.5 667.0Q548 650 744.0 637.0Q940 624 1176 609Q1169 644 1161.5 676.0Q1154 708 1146 736Q1197 724 1251 724Q1305 724 1362 736Q1339 653 1317.0 533.5Q1295 414 1281.0 254.0Q1267 94 1267 -112H1241Q1241 -96 1240.5 -81.0Q1240 -66 1240 -51Q1134 -51 1016.5 -55.0Q899 -59 780.5 -66.0Q662 -73 552 -83Q542 -147 534.5 -216.0Q527 -285 527 -350H504Q504 -286 498.0 -219.5Q492 -153 481 -90L339 -105Q329 -165 323.0 -228.0Q317 -291 317 -350ZM1240 -25Q1236 166 1220.5 314.5Q1205 463 1183 574Q1038 570 901.0 564.5Q764 559 643 551Q655 534 675.0 508.5Q695 483 718.0 454.5Q741 426 763.0 400.0Q785 374 801 355L804 353L803 352H804Q798 345 781.5 325.0Q765 305 742.5 278.5Q720 252 697.0 223.5Q674 195 655.5 170.0Q637 145 629 129Q624 136 616.5 144.0Q609 152 606 153Q598 125 588.5 87.5Q579 50 569 6Q677 -3 792.0 -10.0Q907 -17 1021.5 -20.5Q1136 -24 1240 -25ZM912 116 907 184Q867 175 826 160Q828 172 829.0 184.0Q830 196 830 208Q830 219 829.0 231.0Q828 243 826 254Q846 248 865.0 244.5Q884 241 903 236Q902 250 898.5 281.0Q895 312 887.5 351.5Q880 391 867 429Q886 422 912 422Q925 422 937.5 424.5Q950 427 960 429Q951 404 944.5 373.0Q938 342 935.0 312.5Q932 283 930.0 261.5Q928 240 928 232Q969 226 1010.0 222.0Q1051 218 1091 218Q1089 247 1086.0 284.0Q1083 321 1079.5 359.0Q1076 397 1072.0 428.5Q1068 460 1063 479Q987 475 912.0 466.5Q837 458 761 438Q763 451 764.5 462.0Q766 473 766 484Q766 494 765.0 505.0Q764 516 761 530Q804 519 845.0 512.5Q886 506 936.5 502.5Q987 499 1059 496Q1057 509 1053.0 522.0Q1049 535 1046 548Q1058 546 1069.5 544.0Q1081 542 1092 542Q1114 542 1139 548Q1126 499 1119.0 438.5Q1112 378 1109.0 315.0Q1106 252 1104 193H1093L1092 208Q1051 207 1009.0 202.5Q967 198 926 188Q925 170 925.0 152.0Q925 134 924 116ZM783 358Q765 376 737.5 400.5Q710 425 682.5 450.0Q655 475 633 492Q622 436 618 382Q635 379 661.0 374.5Q687 370 714.0 366.5Q741 363 760.5 360.5Q780 358 783 358ZM608 202 624 205Q664 237 704.0 273.0Q744 309 784 347Q741 342 699.0 336.5Q657 331 614 324ZM462 16Q449 78 435.5 125.5Q422 173 411 198Q402 174 389.5 129.5Q377 85 364 26Q387 24 411.5 21.0Q436 18 462 16Z" />
  </g>
</svg>