<svg xmlns="http://www.w3.org/2000/svg" viewBox="100 -350 1262 1086">
  <g transform="translate(0, 386) scale(1, -1)">
    <path fill="black" d="M294 -350Q294 -292 288.5 -232.0Q283 -172 275 -114Q160 -129 100 -146Q112 -95 112 -41Q112 13 100 70Q126 63 163.0 56.0Q200 49 246 42Q233 98 220.5 141.0Q208 184 198 205Q227 201 255.5 198.0Q284 195 313 195Q360 195 408 204V205Q409 205 409.5 204.5Q410 204 411 204Q412 204 412.5 204.5Q413 205 414 205L413 204Q467 195 522 195Q530 195 537.0 195.5Q544 196 551 196Q549 223 545 251Q574 241 603.5 232.5Q633 224 672.0 217.5Q711 211 767.5 206.0Q824 201 907 197Q907 198 908 198Q902 279 897.0 333.0Q892 387 886.5 421.5Q881 456 875.0 478.5Q869 501 861.0 520.0Q853 539 843 561Q687 554 553.5 544.5Q420 535 319.5 522.5Q219 510 160 494Q172 551 172 605Q172 659 160 710Q253 684 400.5 667.0Q548 650 744.0 637.0Q940 624 1176 609Q1169 644 1161.5 676.0Q1154 708 1146 736Q1197 724 1251 724Q1305 724 1362 736Q1339 653 1317.0 533.5Q1295 414 1281.0 254.0Q1267 94 1267 -112H1241Q1241 -96 1240.5 -81.0Q1240 -66 1240 -51Q1134 -51 1016.5 -55.0Q899 -59 780.5 -66.0Q662 -73 552 -83Q542 -147 534.5 -216.0Q527 -285 527 -350H504Q504 -286 498.0 -219.5Q492 -153 481 -90L339 -105Q329 -165 323.0 -228.0Q317 -291 317 -350ZM1240 -25Q1236 166 1220.5 314.5Q1205 463 1183 574Q1133 573 1084.0 571.0Q1035 569 987 567Q981 545 975.0 528.5Q969 512 964 492Q981 488 1007.5 484.0Q1034 480 1061 477Q1054 502 1046.0 521.5Q1038 541 1030 568Q1047 564 1065.0 562.0Q1083 560 1101 560Q1119 560 1138.0 562.0Q1157 564 1176 568Q1168 539 1160.5 515.0Q1153 491 1146.0 457.5Q1139 424 1133.5 368.5Q1128 313 1124 223Q1151 249 1177 279L1188 273Q1169 237 1155.0 209.5Q1141 182 1127 160Q1137 144 1154.0 118.5Q1171 93 1196 61L1185 53Q1141 92 1111.0 116.5Q1081 141 1055 160L1098 198L1095 230Q1064 226 1026.0 221.0Q988 216 966 211L937 160Q947 144 964.0 118.5Q981 93 1006 61L995 53Q951 92 921.0 116.5Q891 141 865 160L878 171Q810 164 763.5 158.0Q717 152 684.5 146.0Q652 140 625 133Q639 130 652.5 129.0Q666 128 680 128Q694 128 709.5 129.0Q725 130 741 133Q732 118 723.0 105.0Q714 92 705.5 73.0Q697 54 690 19H675Q668 54 659.5 73.0Q651 92 642.5 105.0Q634 118 625 133L598 125Q591 100 584.0 70.0Q577 40 569 6Q677 -3 792.0 -10.0Q907 -17 1021.5 -20.5Q1136 -24 1240 -25ZM909 559Q928 559 947.0 561.0Q966 563 986 567Q955 566 925.5 565.0Q896 564 867 562Q888 559 909 559ZM1077 396Q1071 434 1065 460Q1032 456 999.5 451.5Q967 447 954 442L951 418Q958 415 978.5 411.0Q999 407 1026.0 403.0Q1053 399 1077 396ZM935 224 953 242Q953 247 952.5 252.0Q952 257 951 262Q956 259 967 257L987 279L999 273Q996 268 993.0 263.0Q990 258 988 253Q1011 249 1041.0 245.0Q1071 241 1094 238L1088 307Q1063 304 1034.0 300.0Q1005 296 982.0 292.5Q959 289 951 285Q954 300 954 314Q954 327 951 340Q958 337 981.0 332.5Q1004 328 1033.5 324.0Q1063 320 1087 317Q1086 337 1083.5 353.0Q1081 369 1079 383Q1055 380 1027.5 376.5Q1000 373 979.0 369.5Q958 366 951 363Q954 378 954 392Q954 405 951 418Q947 386 943.0 339.0Q939 292 935 224ZM462 16Q449 78 435.5 125.5Q422 173 411 198Q402 174 389.5 129.5Q377 85 364 26Q387 24 411.5 21.0Q436 18 462 16Z" />
  </g>
</svg>