<svg xmlns="http://www.w3.org/2000/svg" viewBox="100 -350 1376 1086">
  <g transform="translate(0, 386) scale(1, -1)">
    <path fill="black" d="M294 -350Q294 -292 288.5 -232.0Q283 -172 275 -114Q160 -129 100 -146Q112 -95 112 -41Q112 13 100 70Q126 63 163.0 56.0Q200 49 246 42Q233 98 220.5 141.0Q208 184 198 205Q227 201 255.5 198.0Q284 195 313 195Q360 195 408 204V205Q409 205 409.5 204.5Q410 204 411 204Q412 204 412.5 204.5Q413 205 414 205L413 204Q440 200 467.5 197.5Q495 195 523 195Q548 195 573.5 197.5Q599 200 624 205Q614 182 599.0 129.0Q584 76 569 6Q660 -1 756.5 -7.0Q853 -13 949 -18Q939 19 927.5 36.0Q916 53 905 73Q886 68 867.0 61.0Q848 54 825 46Q831 82 831 118Q831 152 825 191Q854 181 883.5 172.5Q913 164 952.0 157.5Q991 151 1047.5 146.0Q1104 141 1187 137L1188 138Q1182 222 1176.5 279.0Q1171 336 1165.5 374.5Q1160 413 1153.5 443.0Q1147 473 1139.0 502.0Q1131 531 1120 568Q1137 564 1153.5 562.0Q1170 560 1186 560L1183 574Q1011 569 852.0 561.5Q693 554 558.0 544.5Q423 535 321.0 522.5Q219 510 160 494Q172 551 172 605Q172 659 160 710Q253 684 400.5 667.0Q548 650 744.0 637.0Q940 624 1176 609Q1169 644 1161.5 676.0Q1154 708 1146 736Q1197 724 1251 724Q1305 724 1362 736Q1352 700 1342.0 657.5Q1332 615 1322 565Q1336 562 1350.5 561.0Q1365 560 1380 560Q1399 560 1418.0 562.0Q1437 564 1456 568Q1446 530 1438.0 496.0Q1430 462 1423.5 420.0Q1417 378 1412.0 317.0Q1407 256 1404 163Q1431 189 1457 219L1468 213Q1449 177 1435.0 149.5Q1421 122 1407 100Q1417 84 1434.0 58.5Q1451 33 1476 1L1465 -7Q1440 15 1420.0 32.0Q1400 49 1383 62L1335 100L1378 138L1372 209Q1348 206 1322.0 202.0Q1296 198 1277 194Q1274 154 1272.0 111.0Q1270 68 1269 23L1286 1L1275 -7L1268 -1Q1267 -28 1267.0 -55.5Q1267 -83 1267 -112H1241Q1241 -96 1240.5 -81.0Q1240 -66 1240 -51Q1134 -51 1016.5 -55.0Q899 -59 780.5 -66.0Q662 -73 552 -83Q542 -147 534.5 -216.0Q527 -285 527 -350H504Q504 -286 498.0 -219.5Q492 -153 481 -90L339 -105Q329 -165 323.0 -228.0Q317 -291 317 -350ZM1340 457 1318 539Q1314 521 1311.0 502.0Q1308 483 1305 463ZM1009 171 1004 222 985 238 982 201H975L971 250L948 269L944 229H937Q936 238 934.5 252.0Q933 266 931 282L908 301Q905 274 905 257H897L892 314Q846 351 811.0 377.0Q776 403 768 407Q781 418 801.0 440.0Q821 462 832 475Q835 468 847.5 449.5Q860 431 881 404L878 418Q884 417 890.0 417.0Q896 417 902 417Q907 417 912.0 417.0Q917 417 921 418Q920 413 917.5 397.5Q915 382 913 362L924 349Q923 364 921.0 375.0Q919 386 918 390Q925 390 932.0 389.5Q939 389 946 389Q950 389 953.0 389.0Q956 389 960 390Q959 387 958.0 380.0Q957 373 956 363Q963 363 970.0 362.5Q977 362 984 362Q988 362 991.5 362.0Q995 362 999 363Q998 360 997.0 351.0Q996 342 994 330Q999 329 1004.5 329.0Q1010 329 1015 329Q1020 329 1024.5 329.5Q1029 330 1033 331Q1030 324 1026.5 295.0Q1023 266 1020 234L1055 194Q1052 241 1048.0 282.0Q1044 323 1038 358Q1008 380 972.5 405.5Q937 431 908.5 451.0Q880 471 871 476Q885 487 898.0 499.0Q911 511 922 527Q926 519 943.5 496.5Q961 474 984.5 445.5Q1008 417 1031 390Q1021 439 1005 479Q1040 473 1070 473Q1101 473 1131 479Q1116 440 1105.0 397.5Q1094 355 1086.5 302.0Q1079 249 1072 178H1056L1017 211Q1016 199 1015.5 188.5Q1015 178 1015 171ZM1355 377Q1353 395 1350.0 410.5Q1347 426 1344 439Q1333 438 1322.0 436.0Q1311 434 1301 432L1295 387Q1309 384 1324.5 381.5Q1340 379 1355 377ZM1365 298 1357 363Q1340 361 1323.0 358.0Q1306 355 1291 352L1286 310Q1303 307 1324.5 303.5Q1346 300 1365 298ZM966 298Q963 321 960.5 339.0Q958 357 956 362Q955 352 954.0 340.0Q953 328 951 315ZM1000 256Q999 274 996.5 289.5Q994 305 992 316L988 271ZM1214 163Q1219 167 1223.5 172.0Q1228 177 1232 181Q1230 214 1227.5 245.5Q1225 277 1222 307Q1220 277 1218.0 241.5Q1216 206 1214 163ZM1372 219 1366 286Q1345 283 1322.5 280.0Q1300 277 1283 273L1279 234Q1299 230 1324.5 226.0Q1350 222 1372 219ZM462 16Q449 78 435.5 125.5Q422 173 411 198Q402 174 389.5 129.5Q377 85 364 26Q387 24 411.5 21.0Q436 18 462 16ZM1238 67 1235 130Q1226 114 1217 100Q1225 87 1238 67ZM1240 -25Q1239 -12 1239.0 0.0Q1239 12 1239 24Q1231 32 1221.0 40.0Q1211 48 1194.0 62.0Q1177 76 1145 100L1158 111Q1090 104 1043.5 98.0Q997 92 965.0 86.0Q933 80 906 73Q920 70 933.0 69.0Q946 68 960 68Q974 68 989.5 69.0Q1005 70 1021 73Q1009 53 997.0 36.0Q985 19 975 -19Q1043 -21 1110.0 -23.0Q1177 -25 1240 -25Z" />
  </g>
</svg>