<svg xmlns="http://www.w3.org/2000/svg" viewBox="100 -350 1262 1086">
  <g transform="translate(0, 386) scale(1, -1)">
    <path fill="black" d="M294 -350Q294 -292 288.5 -232.0Q283 -172 275 -114Q160 -129 100 -146Q112 -95 112 -41Q112 13 100 70Q126 63 163.0 56.0Q200 49 246 42Q233 98 220.5 141.0Q208 184 198 205Q227 201 255.5 198.0Q284 195 313 195Q360 195 408 204V205Q409 205 409.5 204.5Q410 204 411 204Q412 204 412.5 204.5Q413 205 414 205L413 204Q433 201 453.5 199.0Q474 197 494 196V223Q467 220 445.5 217.0Q424 214 410 210Q414 225 416.0 240.0Q418 255 418 271Q418 298 410 333Q438 325 492 319Q490 361 486.5 392.5Q483 424 478.5 452.5Q474 481 467 515Q503 501 541 501Q559 501 580 504L577 515Q606 506 635 506Q665 506 699 515Q687 470 678.5 424.5Q670 379 664 306Q707 303 753.0 301.0Q799 299 848 297Q801 332 773.5 345.5Q746 359 731.0 362.5Q716 366 704 372Q752 404 788 463Q793 456 803.0 431.0Q813 406 833.0 370.5Q853 335 885 296L1019 291Q958 340 916.0 365.0Q874 390 848.5 401.5Q823 413 810 420Q859 452 895 511Q897 507 902.5 496.0Q908 485 917 470Q942 487 962.0 508.5Q982 530 1001 560Q1005 554 1026.0 523.5Q1047 493 1078.5 450.0Q1110 407 1146.0 362.5Q1182 318 1215 285H1223Q1216 369 1205.5 441.0Q1195 513 1183 574Q1011 569 852.0 561.5Q693 554 558.0 544.5Q423 535 321.0 522.5Q219 510 160 494Q172 551 172 605Q172 659 160 710Q253 684 400.5 667.0Q548 650 744.0 637.0Q940 624 1176 609Q1169 644 1161.5 676.0Q1154 708 1146 736Q1197 724 1251 724Q1305 724 1362 736Q1339 653 1317.0 533.5Q1295 414 1281.0 254.0Q1267 94 1267 -112H1241Q1241 -96 1240.5 -81.0Q1240 -66 1240 -51Q1134 -51 1016.5 -55.0Q899 -59 780.5 -66.0Q662 -73 552 -83Q542 -147 534.5 -216.0Q527 -285 527 -350H504Q504 -286 498.0 -219.5Q492 -153 481 -90L339 -105Q329 -165 323.0 -228.0Q317 -291 317 -350ZM618 309Q611 369 602.5 408.0Q594 447 583 490Q571 453 560.5 413.5Q550 374 540 315ZM1190 286Q1125 338 1069.0 375.5Q1013 413 973.5 436.0Q934 459 919 467Q939 433 972.0 383.5Q1005 334 1047 290ZM1240 -25Q1239 56 1234.5 129.0Q1230 202 1225 268Q1224 268 1222.0 267.5Q1220 267 1218 267H1219Q1192 241 1163.0 206.5Q1134 172 1106.5 135.5Q1079 99 1056.5 67.5Q1034 36 1019.0 14.5Q1004 -7 1001 -12Q965 45 917 78Q908 62 902.5 51.5Q897 41 895 37Q859 96 810 128Q823 135 848.0 146.5Q873 158 915.0 183.5Q957 209 1019 257Q985 255 951.5 253.5Q918 252 884 250Q852 212 832.0 176.5Q812 141 802.0 116.5Q792 92 788 85Q752 144 704 176Q715 182 730.0 185.5Q745 189 772.0 202.0Q799 215 845 248Q796 245 749.0 242.5Q702 240 658 237Q656 200 655.0 156.0Q654 112 652 59H637Q633 113 630.5 156.5Q628 200 625 235Q599 233 574.5 231.0Q550 229 528 227Q527 220 526.0 211.5Q525 203 524 195Q549 195 574.0 197.5Q599 200 624 205Q614 182 599.0 129.0Q584 76 569 6Q677 -3 792.0 -10.0Q907 -17 1021.5 -20.5Q1136 -24 1240 -25ZM919 80Q934 88 974.0 112.0Q1014 136 1071.5 174.5Q1129 213 1195 266Q1160 264 1122.5 262.0Q1085 260 1047 258Q1005 214 972.0 164.5Q939 115 919 80ZM462 16Q449 78 435.5 125.5Q422 173 411 198Q402 174 389.5 129.5Q377 85 364 26Q387 24 411.5 21.0Q436 18 462 16Z" />
  </g>
</svg>