<svg xmlns="http://www.w3.org/2000/svg" viewBox="100 -350 1262 1086">
  <g transform="translate(0, 386) scale(1, -1)">
    <path fill="black" d="M294 -350Q294 -292 288.5 -232.0Q283 -172 275 -114Q160 -129 100 -146Q112 -95 112 -41Q112 13 100 70Q126 63 163.0 56.0Q200 49 246 42Q233 98 220.5 141.0Q208 184 198 205Q226 201 255.0 198.0Q284 195 313 195Q314 206 315.0 218.0Q316 230 316 242Q316 247 316.0 252.5Q316 258 315 263H313V274L314 273Q315 284 316.0 294.5Q317 305 317 315Q317 321 316.5 327.5Q316 334 315 340L313 339V349Q314 360 315.0 371.5Q316 383 316 395Q316 400 316.0 405.5Q316 411 315 416L313 415V426L314 425Q315 435 315.5 445.5Q316 456 316 466Q316 484 313 502Q321 499 350.5 495.0Q380 491 420.5 487.0Q461 483 504.5 479.5Q548 476 584 473Q578 512 571 527Q586 525 601.5 524.0Q617 523 632 523Q647 523 660.5 524.0Q674 525 687 527L686 526Q712 531 736.5 538.0Q761 545 781 553Q780 549 779.5 542.0Q779 535 779 527Q779 496 785.5 447.0Q792 398 800 343L1024 331Q1009 354 992.5 378.0Q976 402 963.0 421.0Q950 440 944 445Q958 450 970.0 455.5Q982 461 994 470Q995 462 1002.5 438.5Q1010 415 1020.5 385.5Q1031 356 1040 330L1089 328Q1072 354 1052.0 384.5Q1032 415 1016.0 439.5Q1000 464 994 470Q1008 475 1020.0 480.5Q1032 486 1044 495Q1044 489 1050.5 470.0Q1057 451 1066.0 425.5Q1075 400 1085.0 374.0Q1095 348 1103 327L1155 324Q1142 344 1125.0 371.0Q1108 398 1091.0 424.5Q1074 451 1061.5 470.5Q1049 490 1044 495Q1058 500 1070.0 505.5Q1082 511 1094 520Q1094 514 1102.5 491.0Q1111 468 1123.0 437.0Q1135 406 1147.0 375.5Q1159 345 1167 323Q1184 322 1197.0 321.0Q1210 320 1220 319V323Q1208 342 1188.5 372.5Q1169 403 1149.5 435.0Q1130 467 1114.5 491.0Q1099 515 1094 520Q1108 525 1120.0 530.5Q1132 536 1144 545Q1144 539 1152.0 517.5Q1160 496 1171.5 467.0Q1183 438 1195.0 407.0Q1207 376 1217 352Q1210 415 1201.5 470.5Q1193 526 1183 574Q1011 569 852.0 561.5Q693 554 558.0 544.5Q423 535 321.0 522.5Q219 510 160 494Q172 551 172 605Q172 659 160 710Q253 684 400.5 667.0Q548 650 744.0 637.0Q940 624 1176 609Q1169 644 1161.5 676.0Q1154 708 1146 736Q1197 724 1251 724Q1305 724 1362 736Q1339 653 1317.0 533.5Q1295 414 1281.0 254.0Q1267 94 1267 -112H1241Q1241 -96 1240.5 -81.0Q1240 -66 1240 -51Q1134 -51 1016.5 -55.0Q899 -59 780.5 -66.0Q662 -73 552 -83Q542 -147 534.5 -216.0Q527 -285 527 -350H504Q504 -286 498.0 -219.5Q492 -153 481 -90L339 -105Q329 -165 323.0 -228.0Q317 -291 317 -350ZM744 347Q726 397 709.0 439.5Q692 482 679 505Q673 480 667.5 440.0Q662 400 657 353ZM594 396Q593 412 591.0 426.5Q589 441 587 454Q546 449 496.5 443.5Q447 438 403.0 432.5Q359 427 333 421Q360 417 406.5 412.0Q453 407 504.0 403.0Q555 399 594 396ZM598 358Q598 363 597.5 368.0Q597 373 596 378L517 368Q531 365 551.5 362.5Q572 360 598 358ZM503 327 500 367Q452 361 406.5 355.5Q361 350 335 345Q362 341 408.0 336.5Q454 332 503 327ZM1240 -25Q1239 67 1234.0 149.5Q1229 232 1222 305Q1197 304 1149.0 302.0Q1101 300 1039 297L1046 294Q1027 265 1014.0 240.5Q1001 216 987 192Q1001 169 1014.0 143.5Q1027 118 1046 90L1032 79Q997 112 976.0 131.0Q955 150 938.5 163.5Q922 177 899 192Q914 204 930.0 216.5Q946 229 969.0 248.0Q992 267 1026 297L810 286Q818 234 826.0 187.0Q834 140 838 111L827 109Q818 136 802.0 184.0Q786 232 767 284L649 277Q644 220 639.5 168.5Q635 117 631 86H619Q618 102 616.5 125.0Q615 148 613 175Q604 147 592.0 103.0Q580 59 569 6Q677 -3 792.0 -10.0Q907 -17 1021.5 -20.5Q1136 -24 1240 -25ZM1182 79Q1147 112 1126.0 131.0Q1105 150 1088.5 163.5Q1072 177 1049 192Q1064 205 1081.0 217.5Q1098 230 1122.0 250.0Q1146 270 1182 302L1196 294Q1177 265 1164.0 240.5Q1151 216 1137 192Q1151 169 1164.0 143.5Q1177 118 1196 90ZM608 243 606 273Q563 269 535.0 265.5Q507 262 499 258L502 291Q453 286 406.5 280.0Q360 274 334 269Q355 265 389.5 261.5Q424 258 463.5 254.5Q503 251 541.0 248.0Q579 245 608 243ZM525 195Q546 195 567.5 196.5Q589 198 611 202Q611 208 610.5 214.5Q610 221 609 227Q570 222 516.0 216.0Q462 210 414 204Q441 200 469.0 197.5Q497 195 525 195ZM357 197Q370 198 382.5 200.0Q395 202 408 204ZM462 16Q449 78 435.5 125.5Q422 173 411 198Q402 174 389.5 129.5Q377 85 364 26Q387 24 411.5 21.0Q436 18 462 16Z" />
  </g>
</svg>