<svg xmlns="http://www.w3.org/2000/svg" viewBox="100 -350 1262 1086">
  <g transform="translate(0, 386) scale(1, -1)">
    <path fill="black" d="M294 -350Q294 -292 288.5 -232.0Q283 -172 275 -114Q160 -129 100 -146Q112 -95 112 -41Q112 13 100 70Q126 63 163.0 56.0Q200 49 246 42Q233 98 220.5 141.0Q208 184 198 205Q227 201 255.5 198.0Q284 195 313 195Q360 195 408 204V205Q409 205 409.5 204.5Q410 204 411 204Q412 204 412.5 204.5Q413 205 414 205L413 204Q440 200 467.5 197.5Q495 195 523 195Q548 195 573.5 197.5Q599 200 624 205Q614 182 599.0 129.0Q584 76 569 6Q677 -3 792.0 -10.0Q907 -17 1021.5 -20.5Q1136 -24 1240 -25Q1237 151 1223.0 290.5Q1209 430 1190 537Q1186 513 1181.5 469.5Q1177 426 1172.5 376.0Q1168 326 1164.0 281.5Q1160 237 1157 210V202Q1131 201 1091.0 198.5Q1051 196 1010.0 193.0Q969 190 936.0 185.5Q903 181 890 176Q893 194 893 210Q893 226 890 242Q906 235 946 230Q945 249 943.0 269.0Q941 289 939 308Q929 307 915.5 306.0Q902 305 888 303Q887 289 885.5 275.0Q884 261 883 248H875L872 301L814 295Q813 283 812.0 271.0Q811 259 810 248H802L799 293Q783 291 768.0 289.5Q753 288 739 286L736 248H728L726 284Q696 280 674.0 276.5Q652 273 644 270Q646 281 647.5 291.0Q649 301 649 311Q649 322 647.5 333.5Q646 345 644 357Q652 353 672.5 350.0Q693 347 721 343L719 367Q689 366 633.5 364.0Q578 362 513 357Q534 332 560.5 302.5Q587 273 621 235L611 229Q568 270 535.0 300.0Q502 330 476 352Q445 314 428.0 290.0Q411 266 401.5 249.0Q392 232 381 212Q367 234 346.0 254.0Q325 274 305 286Q324 297 339.0 304.5Q354 312 371.5 322.0Q389 332 413 349Q363 345 319.0 339.5Q275 334 244.5 329.0Q214 324 203 319Q205 334 206.0 349.5Q207 365 207 380Q207 395 206.0 408.5Q205 422 203 435Q216 429 247.5 422.5Q279 416 323.5 410.0Q368 404 417 399Q392 418 374.0 428.5Q356 439 340.5 447.0Q325 455 305 466Q342 489 373 529Q235 514 160 494Q172 551 172 605Q172 659 160 710Q253 684 400.5 667.0Q548 650 744.0 637.0Q940 624 1176 609Q1169 644 1161.5 676.0Q1154 708 1146 736Q1197 724 1251 724Q1305 724 1362 736Q1339 653 1317.0 533.5Q1295 414 1281.0 254.0Q1267 94 1267 -112H1241Q1241 -96 1240.5 -81.0Q1240 -66 1240 -51Q1134 -51 1016.5 -55.0Q899 -59 780.5 -66.0Q662 -73 552 -83Q542 -147 534.5 -216.0Q527 -285 527 -350H504Q504 -286 498.0 -219.5Q492 -153 481 -90L339 -105Q329 -165 323.0 -228.0Q317 -291 317 -350ZM1147 211 1142 267V264Q1123 261 1096.5 257.5Q1070 254 1047.5 250.0Q1025 246 1017 243Q1018 248 1018.5 254.0Q1019 260 1019 265Q1019 270 1018.5 275.5Q1018 281 1017 287Q1024 285 1047.0 281.0Q1070 277 1097.0 273.5Q1124 270 1142 268Q1141 279 1140.0 290.5Q1139 302 1137 315Q1118 313 1092.5 309.5Q1067 306 1045.5 302.5Q1024 299 1017 296Q1018 301 1018.5 307.0Q1019 313 1019 318Q1019 323 1018.5 329.0Q1018 335 1017 341Q1024 338 1045.0 334.0Q1066 330 1092.0 326.5Q1118 323 1137 320L1132 367Q1112 364 1088.0 361.0Q1064 358 1044.0 355.0Q1024 352 1017 349Q1018 354 1018.5 359.5Q1019 365 1019 370Q1019 375 1018.5 381.0Q1018 387 1017 394Q1024 391 1044.0 387.0Q1064 383 1088.5 379.5Q1113 376 1132 374L1127 419Q1107 417 1084.0 413.5Q1061 410 1042.5 407.5Q1024 405 1017 402Q1018 407 1018.5 412.5Q1019 418 1019 424Q1019 429 1018.5 435.0Q1018 441 1017 447Q1023 444 1042.0 440.5Q1061 437 1084.5 433.5Q1108 430 1127 427Q1125 449 1122.5 468.5Q1120 488 1118 504Q1092 501 1047.0 497.0Q1002 493 950.0 489.0Q898 485 849.5 481.0Q801 477 766.5 473.0Q732 469 723 465Q725 477 726.5 489.0Q728 501 728 513Q728 523 727.0 532.5Q726 542 723 552Q731 549 766.0 545.0Q801 541 850.0 536.5Q899 532 951.0 527.5Q1003 523 1047.5 519.5Q1092 516 1117 514Q1112 547 1109 557Q1120 554 1130.0 553.0Q1140 552 1150 552Q1169 552 1187 555L1183 574Q1029 570 884.5 563.5Q740 557 613.5 549.0Q487 541 386 530Q396 513 405.5 496.5Q415 480 431.0 457.5Q447 435 476 399Q502 422 535.0 452.0Q568 482 611 523L621 517Q586 478 558.5 447.0Q531 416 509 391Q573 386 629.0 382.5Q685 379 717 379Q714 404 710.5 424.0Q707 444 702 456Q720 453 736 453Q752 453 767 456Q760 437 754.5 406.0Q749 375 745 340L795 334Q791 372 786.5 406.0Q782 440 775 456Q795 453 810 453Q825 453 841 456Q833 437 827.5 403.5Q822 370 817 332L869 327Q866 367 861.0 403.0Q856 439 849 456Q867 453 883 453Q899 453 914 456Q906 435 900.5 399.5Q895 364 890 325L937 319Q934 345 930.5 365.5Q927 386 922 398Q940 395 956 395Q972 395 987 398Q977 372 970.5 324.5Q964 277 959 228Q1003 222 1056.5 218.0Q1110 214 1147 211ZM462 16Q449 78 435.5 125.5Q422 173 411 198Q402 174 389.5 129.5Q377 85 364 26Q387 24 411.5 21.0Q436 18 462 16Z" />
  </g>
</svg>