<svg xmlns="http://www.w3.org/2000/svg" viewBox="100 -350 1262 1086">
  <g transform="translate(0, 386) scale(1, -1)">
    <path fill="black" d="M294 -350Q294 -292 288.5 -232.0Q283 -172 275 -114Q160 -129 100 -146Q112 -95 112 -41Q112 13 100 70Q126 63 163.0 56.0Q200 49 246 42Q233 98 220.5 141.0Q208 184 198 205Q227 201 255.5 198.0Q284 195 313 195Q360 195 408 204V205Q409 205 409.5 204.5Q410 204 411 204Q412 204 412.5 204.5Q413 205 414 205L413 204Q440 200 467.5 197.5Q495 195 523 195Q548 195 573.5 197.5Q599 200 624 205Q614 182 599.0 129.0Q584 76 569 6Q677 -3 792.0 -10.0Q907 -17 1021.5 -20.5Q1136 -24 1240 -25Q1239 69 1234.0 152.5Q1229 236 1221 310Q1169 290 1104.5 263.5Q1040 237 973.0 208.0Q906 179 845.5 151.0Q785 123 741 100L737 68H726L724 91Q705 80 690.5 71.0Q676 62 668 55Q661 93 649.0 123.5Q637 154 621 182Q636 181 661.0 184.5Q686 188 717 194Q713 242 707.5 289.5Q702 337 696.0 373.5Q690 410 683 424Q697 422 711.0 421.0Q725 420 738 420Q752 420 764.5 421.0Q777 422 788 424Q780 408 773.5 372.0Q767 336 761.5 291.0Q756 246 751 200Q818 214 898.0 234.5Q978 255 1056.5 278.0Q1135 301 1197 320Q1144 336 1078.0 354.5Q1012 373 943.0 390.5Q874 408 810.0 422.0Q746 436 696.5 444.5Q647 453 621 452Q634 475 644.5 499.5Q655 524 662 552Q491 542 360.5 527.5Q230 513 160 494Q172 551 172 605Q172 659 160 710Q253 684 400.5 667.0Q548 650 744.0 637.0Q940 624 1176 609Q1169 644 1161.5 676.0Q1154 708 1146 736Q1197 724 1251 724Q1305 724 1362 736Q1339 653 1317.0 533.5Q1295 414 1281.0 254.0Q1267 94 1267 -112H1241Q1241 -96 1240.5 -81.0Q1240 -66 1240 -51Q1134 -51 1016.5 -55.0Q899 -59 780.5 -66.0Q662 -73 552 -83Q542 -147 534.5 -216.0Q527 -285 527 -350H504Q504 -286 498.0 -219.5Q492 -153 481 -90L339 -105Q329 -165 323.0 -228.0Q317 -291 317 -350ZM1219 331Q1212 401 1203.0 461.5Q1194 522 1183 574Q1056 570 935.0 565.5Q814 561 704 554Q743 532 805.5 503.0Q868 474 941.5 443.0Q1015 412 1088.0 383.0Q1161 354 1219 331ZM462 16Q449 78 435.5 125.5Q422 173 411 198Q402 174 389.5 129.5Q377 85 364 26Q387 24 411.5 21.0Q436 18 462 16Z" />
  </g>
</svg>