<svg xmlns="http://www.w3.org/2000/svg" viewBox="100 -350 1262 1086">
  <g transform="translate(0, 386) scale(1, -1)">
    <path fill="black" d="M294 -350Q294 -292 288.5 -232.0Q283 -172 275 -114Q160 -129 100 -146Q112 -95 112 -41Q112 13 100 70Q126 63 163.0 56.0Q200 49 246 42Q233 98 220.5 141.0Q208 184 198 205Q227 201 255.5 198.0Q284 195 313 195Q360 195 408 204V205Q409 205 409.5 204.5Q410 204 411 204Q412 204 412.5 204.5Q413 205 414 205L413 204Q440 200 467.5 197.5Q495 195 523 195Q548 195 573.5 197.5Q599 200 624 205Q614 182 599.0 129.0Q584 76 569 6Q677 -3 792.0 -10.0Q907 -17 1021.5 -20.5Q1136 -24 1240 -25Q1238 106 1229.5 216.5Q1221 327 1209 419Q1190 394 1164.0 361.0Q1138 328 1109 292Q1144 248 1175.0 209.0Q1206 170 1225 144L1215 134Q1192 153 1155.0 184.0Q1118 215 1076 251L1011 167L1109 41L1099 31Q1079 48 1048.0 73.5Q1017 99 981 130Q950 90 928.5 59.0Q907 28 902 16Q882 45 858.5 70.0Q835 95 801 116Q812 121 841.0 142.0Q870 163 907 193L863 229Q833 190 812.0 160.5Q791 131 786 119Q766 148 742.5 173.0Q719 198 685 219Q696 224 723.0 244.0Q750 264 786 292Q750 321 723.0 341.0Q696 361 685 366Q719 387 742.5 412.0Q766 437 786 466Q791 454 812.0 424.5Q833 395 863 355L907 392Q870 422 841.0 443.0Q812 464 801 469Q833 489 856.0 512.5Q879 536 898 564Q730 557 585.5 547.0Q441 537 331.5 524.0Q222 511 160 494Q172 551 172 605Q172 659 160 710Q253 684 400.5 667.0Q548 650 744.0 637.0Q940 624 1176 609Q1169 644 1161.5 676.0Q1154 708 1146 736Q1197 724 1251 724Q1305 724 1362 736Q1339 653 1317.0 533.5Q1295 414 1281.0 254.0Q1267 94 1267 -112H1241Q1241 -96 1240.5 -81.0Q1240 -66 1240 -51Q1134 -51 1016.5 -55.0Q899 -59 780.5 -66.0Q662 -73 552 -83Q542 -147 534.5 -216.0Q527 -285 527 -350H504Q504 -286 498.0 -219.5Q492 -153 481 -90L339 -105Q329 -165 323.0 -228.0Q317 -291 317 -350ZM1076 334 1205 443Q1201 479 1195.0 511.5Q1189 544 1183 574Q1111 572 1041.5 569.5Q972 567 904 564Q912 550 932.5 521.5Q953 493 981 455L1099 554L1109 544Q1092 521 1066.0 488.0Q1040 455 1011 417ZM957 234Q974 248 991.5 263.0Q1009 278 1027 292Q1009 307 991.5 322.0Q974 337 957 350L912 292ZM462 16Q449 78 435.5 125.5Q422 173 411 198Q402 174 389.5 129.5Q377 85 364 26Q387 24 411.5 21.0Q436 18 462 16Z" />
  </g>
</svg>