<svg xmlns="http://www.w3.org/2000/svg" viewBox="100 -350 1262 1086">
  <g transform="translate(0, 386) scale(1, -1)">
    <path fill="black" d="M294 -350Q294 -292 288.5 -232.0Q283 -172 275 -114Q160 -129 100 -146Q112 -95 112 -41Q112 13 100 70Q126 63 163.0 56.0Q200 49 246 42Q233 98 220.5 141.0Q208 184 198 205Q224 201 250.0 198.5Q276 196 302 195L299 234Q274 232 256.0 229.5Q238 227 230 225Q231 233 231.5 242.5Q232 252 232 261Q232 270 231.5 278.5Q231 287 230 294V295Q231 302 231.5 310.0Q232 318 232 326Q232 336 231.5 345.5Q231 355 230 362V364Q231 372 231.0 380.5Q231 389 231 398Q231 407 231.0 415.5Q231 424 230 431V433Q231 441 231.5 450.0Q232 459 232 468Q232 477 231.5 485.5Q231 494 230 501Q240 497 272.0 494.0Q304 491 350.5 487.5Q397 484 450.0 481.5Q503 479 555.5 477.0Q608 475 651 474Q647 497 643.5 514.5Q640 532 635 543Q649 541 662.5 539.5Q676 538 689 538Q703 538 716.0 539.5Q729 541 742 543Q737 530 732.5 512.0Q728 494 724 472H750V459H722Q720 446 718.5 432.0Q717 418 715 404H750V391Q744 391 734.5 391.0Q725 391 713 390Q712 377 710.5 363.0Q709 349 708 335H750V322Q743 322 732.0 322.0Q721 322 707 321Q706 308 704.5 294.0Q703 280 702 266H750V253Q743 253 730.5 253.0Q718 253 701 252Q699 230 697.5 209.5Q696 189 694 170H680L675 252L604 249L600 201Q606 202 612.0 203.0Q618 204 624 205Q614 182 599.0 129.0Q584 76 569 6Q677 -3 792.0 -10.0Q907 -17 1021.5 -20.5Q1136 -24 1240 -25Q1236 166 1220.5 314.5Q1205 463 1183 574Q1113 572 1045.0 569.5Q977 567 911 564Q961 548 1027.5 540.0Q1094 532 1175 524V510Q1089 506 1011.5 494.0Q934 482 892 465Q895 485 896.5 503.5Q898 522 896 539Q886 512 879.0 468.0Q872 424 867.0 371.5Q862 319 858.0 266.5Q854 214 850 170H836Q834 213 830.0 268.5Q826 324 820.0 379.0Q814 434 807.0 478.0Q800 522 791 543Q805 540 818.5 539.0Q832 538 845 538Q858 538 870.5 539.0Q883 540 896 542L893 564Q726 557 582.5 547.0Q439 537 330.5 524.0Q222 511 160 494Q172 551 172 605Q172 659 160 710Q253 684 400.5 667.0Q548 650 744.0 637.0Q940 624 1176 609Q1169 644 1161.5 676.0Q1154 708 1146 736Q1197 724 1251 724Q1305 724 1362 736Q1339 653 1317.0 533.5Q1295 414 1281.0 254.0Q1267 94 1267 -112H1241Q1241 -96 1240.5 -81.0Q1240 -66 1240 -51Q1134 -51 1016.5 -55.0Q899 -59 780.5 -66.0Q662 -73 552 -83Q542 -147 534.5 -216.0Q527 -285 527 -350H504Q504 -286 498.0 -219.5Q492 -153 481 -90L339 -105Q329 -165 323.0 -228.0Q317 -291 317 -350ZM661 405Q660 419 658.0 432.0Q656 445 654 457Q604 456 540.5 454.0Q477 452 417 449Q434 447 450.5 446.0Q467 445 485 448V449L486 448L487 449V448Q497 447 506.5 446.5Q516 446 526 446Q534 446 541.5 446.5Q549 447 556 448V449L557 448L558 449V448Q575 445 593 445Q613 445 630 449Q626 441 621 407ZM371 446Q382 445 393.0 445.5Q404 446 415 448V449ZM422 415Q419 438 416 447Q413 439 410 416Q413 416 416.0 415.5Q419 415 422 415ZM480 412H493Q492 423 490.0 432.0Q488 441 486 445Q483 437 480 412ZM551 409H564Q563 421 561.0 430.5Q559 440 557 445Q556 440 554.5 430.5Q553 421 551 409ZM350 419Q349 435 345 444L340 420Q343 420 345.5 419.5Q348 419 350 419ZM278 425Q277 429 277.0 432.5Q277 436 276 438Q246 435 233 432Q240 430 251.0 428.5Q262 427 278 425ZM668 336Q667 350 666.0 363.0Q665 376 663 389Q653 389 641.5 388.5Q630 388 619 388L613 338ZM572 339 567 386H548Q547 376 545.5 364.5Q544 353 543 341ZM501 342 496 384Q492 383 487.0 383.0Q482 383 477 383Q476 373 474.5 363.5Q473 354 472 343Q479 343 486.5 343.0Q494 343 501 342ZM430 346 426 380Q421 380 415.5 380.0Q410 380 405 379L401 347Q409 347 416.0 346.5Q423 346 430 346ZM359 350 356 376 334 374 331 351Q338 351 345.0 350.5Q352 350 359 350ZM287 355Q287 360 286.5 363.5Q286 367 285 371Q267 369 254.0 367.0Q241 365 233 363Q241 361 254.5 359.0Q268 357 287 355ZM674 267 670 320Q657 320 641.5 319.5Q626 319 611 319Q610 306 609.0 294.0Q608 282 606 269ZM578 270 574 317Q565 317 557.0 317.0Q549 317 540 316L535 272ZM507 273 504 315Q495 315 486.0 314.5Q477 314 469 314Q468 304 467.5 294.5Q467 285 465 275Q476 274 486.5 273.5Q497 273 507 273ZM437 276 433 312 398 310 394 278ZM365 280 363 308 326 305Q326 300 325.5 294.0Q325 288 324 283ZM294 286 292 303Q247 298 231 294Q248 289 294 286ZM528 195Q542 195 556.5 196.5Q571 198 585 199L580 249L533 247Q532 233 531.0 219.5Q530 206 528 195ZM515 195 510 246Q498 246 486.0 245.5Q474 245 462 244L458 198Q472 197 486.5 196.5Q501 196 515 195ZM387 200Q392 201 397.5 202.0Q403 203 408 204V205Q409 205 409.5 204.5Q410 204 411 204Q412 204 412.5 204.5Q413 205 414 205L413 204Q421 203 429.0 202.0Q437 201 444 200Q443 210 442.0 221.0Q441 232 440 243L391 241Q390 230 389.0 219.5Q388 209 387 200ZM316 195Q345 195 373 198Q372 208 371.5 218.0Q371 228 369 239L320 236Q319 225 318.0 214.5Q317 204 316 195ZM462 16Q449 78 435.5 125.5Q422 173 411 198Q402 174 389.5 129.5Q377 85 364 26Q387 24 411.5 21.0Q436 18 462 16Z" />
  </g>
</svg>