<svg xmlns="http://www.w3.org/2000/svg" viewBox="100 -350 1262 1086">
  <g transform="translate(0, 386) scale(1, -1)">
    <path fill="black" d="M294 -350Q294 -292 288.5 -232.0Q283 -172 275 -114Q160 -129 100 -146Q112 -95 112 -41Q112 13 100 70Q126 63 163.0 56.0Q200 49 246 42Q233 98 220.5 141.0Q208 184 198 205Q227 201 255.5 198.0Q284 195 313 195Q360 195 408 204V205L411 204L414 205L413 204Q440 200 467.5 197.5Q495 195 523 195Q548 195 573.5 197.5Q599 200 624 205Q614 182 599.0 129.0Q584 76 569 6Q677 -3 792.0 -10.0Q907 -17 1021.5 -20.5Q1136 -24 1240 -25Q1239 48 1235.5 114.0Q1232 180 1227 241L1220 234L1109 338Q1104 273 1103 184H1091Q1088 232 1085.0 270.5Q1082 309 1080 340Q1053 306 1035.0 278.5Q1017 251 999 220Q975 261 931 289Q957 303 984.0 321.5Q1011 340 1045 368Q1004 363 973.0 356.5Q942 350 909 341Q915 364 915 388Q915 411 909 438Q955 425 1018 416Q973 452 926 481Q946 493 963.5 509.0Q981 525 997 548Q1010 522 1027.5 495.0Q1045 468 1070 433Q1065 473 1058.5 503.0Q1052 533 1043 566Q1066 560 1090 560Q1113 560 1140 566Q1133 538 1127.0 505.5Q1121 473 1116 429Q1133 446 1153.5 464.0Q1174 482 1196 503Q1193 522 1190.0 540.0Q1187 558 1183 574Q1095 572 1010.0 568.5Q925 565 844 561L920 471L913 464L883 491Q839 438 802.0 393.0Q765 348 748 310Q737 327 726.5 338.0Q716 349 695 363Q700 365 706.5 368.5Q713 372 720 376Q706 388 688.0 401.5Q670 415 653.5 427.0Q637 439 627 443Q636 448 643.5 456.0Q651 464 658 474Q662 465 674.0 448.5Q686 432 701.0 414.0Q716 396 728 381Q736 386 744.0 391.5Q752 397 761 404Q747 416 727.5 431.0Q708 446 690.0 459.0Q672 472 661 477Q669 483 677.0 490.5Q685 498 692 508V507Q706 517 721 538V537Q733 544 743 556L709 555Q670 512 636.5 470.5Q603 429 592 404Q581 421 570.5 432.0Q560 443 539 457Q568 474 600.5 499.0Q633 524 666 552Q494 542 362.5 528.0Q231 514 160 494Q172 551 172 605Q172 659 160 710Q250 685 392.0 668.5Q534 652 720 638Q734 649 742.0 658.5Q750 668 760 682Q766 666 776 651L793 666L800 658L784 639L788 634L1176 609Q1169 644 1161.5 676.0Q1154 708 1146 736Q1197 724 1251 724Q1305 724 1362 736Q1339 653 1317.0 533.5Q1295 414 1281.0 254.0Q1267 94 1267 -112H1241L1240 -51Q1134 -51 1016.5 -55.0Q899 -59 780.5 -66.0Q662 -73 552 -83Q542 -147 534.5 -216.0Q527 -285 527 -350H504Q504 -286 498.0 -219.5Q492 -153 481 -90L339 -105Q329 -165 323.0 -228.0Q317 -291 317 -350ZM832 462Q843 471 853.5 480.0Q864 489 874 499Q857 514 839.0 530.0Q821 546 804 560L756 557Q764 545 778.0 527.0Q792 509 807.0 491.5Q822 474 832 462ZM800 435 826 457Q813 468 793.0 484.5Q773 501 753.5 516.0Q734 531 721 536Q726 526 740.5 507.0Q755 488 772.0 468.5Q789 449 800 435ZM768 409Q774 414 780.5 419.0Q787 424 794 430Q781 441 761.5 456.5Q742 472 723.0 486.5Q704 501 692 506Q696 496 709.5 478.0Q723 460 739.5 441.5Q756 423 768 409ZM1211 402 1199 482Q1180 460 1164.0 441.5Q1148 423 1134 406Q1151 405 1170.0 404.0Q1189 403 1211 402ZM1227 243Q1224 280 1221.0 315.0Q1218 350 1213 382Q1185 381 1160.5 379.0Q1136 377 1115 375Q1138 348 1165.5 315.5Q1193 283 1227 243ZM736 57 729 64 790 132 751 165 720 139 717 142 742 173 719 193 691 168 687 172 710 201 687 221 661 197 656 202 678 228 650 252 627 232 622 236 641 259Q612 283 586.5 302.0Q561 321 544 328Q561 339 572.0 349.0Q583 359 597 381Q603 367 621.5 342.0Q640 317 665 288Q679 306 691.5 323.0Q704 340 708 350Q718 334 739 319Q730 315 713.0 302.5Q696 290 677 275L697 252Q711 270 724.0 288.0Q737 306 742 316Q748 308 755.5 300.5Q763 293 773 285H772Q782 269 804 256Q803 256 803.0 255.5Q803 255 802 255Q812 239 832 226Q822 222 803.5 208.0Q785 194 765 178L798 142Q831 180 857.5 214.5Q884 249 894 271Q908 250 919.0 239.5Q930 229 947 217Q920 206 885.5 179.5Q851 153 812.5 120.5Q774 88 736 57ZM726 220Q740 238 753.0 256.0Q766 274 771 284Q761 280 744.0 267.0Q727 254 709 239ZM755 189Q769 207 782.0 225.0Q795 243 801 255Q790 250 772.0 236.5Q754 223 737 208ZM462 16Q449 78 435.5 125.5Q422 173 411 198Q402 174 389.5 129.5Q377 85 364 26Z" />
  </g>
</svg>