<svg xmlns="http://www.w3.org/2000/svg" viewBox="100 -350 1262 1086">
  <g transform="translate(0, 386) scale(1, -1)">
    <path fill="black" d="M294 -350Q294 -292 288.5 -232.0Q283 -172 275 -114Q160 -129 100 -146Q112 -95 112 -41Q112 13 100 70Q126 63 163.0 56.0Q200 49 246 42Q233 98 220.5 141.0Q208 184 198 205Q227 201 255.5 198.0Q284 195 313 195Q360 195 408 204V205Q409 205 409.5 204.5Q410 204 411 204Q412 204 412.5 204.5Q413 205 414 205L413 204Q440 200 467.5 197.5Q495 195 523 195Q539 195 555.0 196.0Q571 197 587 199Q525 255 485.5 296.0Q446 337 405 367Q425 385 458.0 411.5Q491 438 530.0 473.0Q569 508 605 548Q454 538 339.0 524.5Q224 511 160 494Q172 551 172 605Q172 659 160 710Q253 684 400.5 667.0Q548 650 744.0 637.0Q940 624 1176 609Q1169 644 1161.5 676.0Q1154 708 1146 736Q1197 724 1251 724Q1305 724 1362 736Q1339 653 1317.0 533.5Q1295 414 1281.0 254.0Q1267 94 1267 -112H1241Q1241 -96 1240.5 -81.0Q1240 -66 1240 -51Q1134 -51 1016.5 -55.0Q899 -59 780.5 -66.0Q662 -73 552 -83Q542 -147 534.5 -216.0Q527 -285 527 -350H504Q504 -286 498.0 -219.5Q492 -153 481 -90L339 -105Q329 -165 323.0 -228.0Q317 -291 317 -350ZM1240 -25Q1239 51 1235.5 119.5Q1232 188 1227 250Q1208 249 1168.5 247.5Q1129 246 1080.5 243.5Q1032 241 985.5 238.0Q939 235 904.5 231.0Q870 227 859 222Q862 237 862 251Q844 250 811.0 248.0Q778 246 741.0 242.0Q704 238 673.5 233.0Q643 228 629 222Q631 233 632.0 242.5Q633 252 633 260Q633 268 632.0 276.0Q631 284 629 292V294Q631 304 632.0 313.5Q633 323 633 331Q633 339 632.0 347.0Q631 355 629 362V364Q631 375 632.0 384.0Q633 393 633 402Q633 410 632.0 418.5Q631 427 629 435Q646 429 677.5 423.5Q709 418 745.5 413.5Q782 409 814.0 406.0Q846 403 863 401Q863 410 862.0 418.5Q861 427 859 435Q871 431 903.0 426.5Q935 422 977.0 418.5Q1019 415 1064.0 412.0Q1109 409 1148.0 407.0Q1187 405 1211 403Q1209 420 1206.5 437.0Q1204 454 1201 470Q1174 469 1134.5 467.0Q1095 465 1051.0 462.5Q1007 460 967.0 457.0Q927 454 898.0 450.0Q869 446 859 442Q862 457 862 471Q844 470 811.0 468.0Q778 466 741.0 462.0Q704 458 673.5 453.0Q643 448 629 442Q631 453 632.0 462.5Q633 472 633 481Q633 490 632.0 498.5Q631 507 629 515Q646 509 677.5 503.5Q709 498 745.5 493.5Q782 489 814.0 486.0Q846 483 863 481Q863 490 862.0 498.5Q861 507 859 515Q870 511 899.5 506.5Q929 502 969.0 498.5Q1009 495 1051.5 492.5Q1094 490 1133.0 487.5Q1172 485 1199 483Q1195 508 1191.5 530.5Q1188 553 1183 574Q1035 570 896.5 564.0Q758 558 636 550Q602 489 578.0 447.0Q554 405 531 367Q554 329 578.5 287.0Q603 245 637 183L617 172L613 175Q603 147 591.5 103.0Q580 59 569 6Q677 -3 792.0 -10.0Q907 -17 1021.5 -20.5Q1136 -24 1240 -25ZM863 331Q863 339 862.0 347.0Q861 355 859 362V365Q862 379 862 391Q845 390 813.5 388.0Q782 386 746.0 382.5Q710 379 679.0 374.0Q648 369 632 363Q650 357 682.0 352.0Q714 347 749.5 342.5Q785 338 816.0 335.5Q847 333 863 331ZM1219 332Q1218 347 1216.0 361.5Q1214 376 1212 390Q1188 389 1150.0 387.5Q1112 386 1067.5 383.5Q1023 381 981.0 378.0Q939 375 907.0 371.5Q875 368 862 363Q877 358 911.5 354.0Q946 350 989.5 347.0Q1033 344 1078.0 341.0Q1123 338 1160.5 336.0Q1198 334 1219 332ZM863 261Q863 269 862.0 277.0Q861 285 859 292V295Q862 309 862 321Q845 320 813.5 318.0Q782 316 746.0 312.5Q710 309 679.0 304.0Q648 299 632 293Q650 287 682.0 282.0Q714 277 749.5 272.5Q785 268 816.0 265.5Q847 263 863 261ZM1226 262 1220 320Q1199 319 1161.0 317.5Q1123 316 1077.5 313.5Q1032 311 987.5 308.0Q943 305 909.5 301.5Q876 298 862 293Q878 289 913.5 284.5Q949 280 995.0 276.5Q1041 273 1087.0 270.0Q1133 267 1170.5 265.0Q1208 263 1226 262ZM462 16Q449 78 435.5 125.5Q422 173 411 198Q402 174 389.5 129.5Q377 85 364 26Q387 24 411.5 21.0Q436 18 462 16Z" />
  </g>
</svg>