<svg xmlns="http://www.w3.org/2000/svg" viewBox="100 -350 1262 1086">
  <g transform="translate(0, 386) scale(1, -1)">
    <path fill="black" d="M294 -350Q294 -292 288.5 -232.0Q283 -172 275 -114Q160 -129 100 -146Q112 -95 112 -41Q112 13 100 70Q126 63 163.0 56.0Q200 49 246 42Q233 98 220.5 141.0Q208 184 198 205Q227 201 255.5 198.0Q284 195 313 195Q360 195 408 204V205Q409 205 409.5 204.5Q410 204 411 204Q412 204 412.5 204.5Q413 205 414 205L413 204Q440 200 467.5 197.5Q495 195 523 195Q548 195 573.5 197.5Q599 200 624 205Q614 182 599.0 129.0Q584 76 569 6Q677 -3 792.0 -10.0Q907 -17 1021.5 -20.5Q1136 -24 1240 -25Q1237 155 1222.5 297.0Q1208 439 1188 548Q1181 531 1174.5 488.5Q1168 446 1162.0 390.0Q1156 334 1151.5 275.5Q1147 217 1144.5 168.0Q1142 119 1142 91H1130Q1130 118 1127.5 160.0Q1125 202 1121.0 251.5Q1117 301 1111 350L1029 345Q1024 298 1019.5 252.5Q1015 207 1013 182H1005Q1001 208 997.5 252.0Q994 296 989 342L940 340L925 182H917Q913 207 909.5 250.0Q906 293 901 338L852 336L837 182H829Q825 206 821.5 248.0Q818 290 814 333L763 330Q759 287 755.0 246.0Q751 205 749 182H741Q737 205 734.0 245.0Q731 285 726 328Q680 325 648.0 322.0Q616 319 610 317Q612 328 613.0 338.5Q614 349 614 360Q614 380 610 397Q615 394 645.5 391.0Q676 388 720 385Q716 423 712.5 451.5Q709 480 705 488Q716 487 726.5 485.5Q737 484 748 484Q768 484 785 488Q781 480 777.0 450.5Q773 421 769 382L809 380Q805 419 801.0 449.5Q797 480 793 488Q804 487 814.5 485.5Q825 484 836 484Q856 484 873 488Q869 480 865.0 449.0Q861 418 856 377L897 375Q893 416 889.0 447.5Q885 479 881 488Q892 487 902.5 485.5Q913 484 924 484Q944 484 961 488Q957 480 952.5 447.0Q948 414 943 372L986 370Q982 413 977.5 446.0Q973 479 969 488Q980 487 990.5 485.5Q1001 484 1012 484Q1032 484 1049 488Q1045 479 1040.5 445.5Q1036 412 1031 368Q1054 367 1074.5 366.0Q1095 365 1109 363Q1102 428 1092.5 480.5Q1083 533 1074 552Q1087 550 1101.0 549.0Q1115 548 1131 548Q1160 548 1188 551L1183 574Q1011 569 852.0 561.5Q693 554 558.0 544.5Q423 535 321.0 522.5Q219 510 160 494Q172 551 172 605Q172 659 160 710Q253 684 400.5 667.0Q548 650 744.0 637.0Q940 624 1176 609Q1169 644 1161.5 676.0Q1154 708 1146 736Q1197 724 1251 724Q1305 724 1362 736Q1339 653 1317.0 533.5Q1295 414 1281.0 254.0Q1267 94 1267 -112H1241Q1241 -96 1240.5 -81.0Q1240 -66 1240 -51Q1134 -51 1016.5 -55.0Q899 -59 780.5 -66.0Q662 -73 552 -83Q542 -147 534.5 -216.0Q527 -285 527 -350H504Q504 -286 498.0 -219.5Q492 -153 481 -90L339 -105Q329 -165 323.0 -228.0Q317 -291 317 -350ZM462 16Q449 78 435.5 125.5Q422 173 411 198Q402 174 389.5 129.5Q377 85 364 26Q387 24 411.5 21.0Q436 18 462 16Z" />
  </g>
</svg>