<svg xmlns="http://www.w3.org/2000/svg" viewBox="100 -350 1262 1086">
  <g transform="translate(0, 386) scale(1, -1)">
    <path fill="black" d="M294 -350Q294 -292 288.5 -232.0Q283 -172 275 -114Q160 -129 100 -146Q112 -95 112 -41Q112 13 100 70Q126 63 163.0 56.0Q200 49 246 42Q233 98 220.5 141.0Q208 184 198 205Q227 201 255.5 198.0Q284 195 313 195Q360 195 408 204V205Q409 205 409.5 204.5Q410 204 411 204Q412 204 412.5 204.5Q413 205 414 205L413 204Q440 200 467.5 197.5Q495 195 523 195Q548 195 573.5 197.5Q599 200 624 205Q622 199 619.0 192.0Q616 185 613 176Q623 174 652.5 171.0Q682 168 722 165Q718 196 713.5 219.5Q709 243 705 252Q713 251 720.5 250.0Q728 249 735 248L728 328Q682 325 649.0 322.0Q616 319 610 317Q612 328 613.0 338.5Q614 349 614 360Q614 380 610 397Q615 394 646.0 391.0Q677 388 722 385Q718 429 713.5 464.0Q709 499 705 508Q716 507 726.5 505.5Q737 504 748 504Q768 504 785 508Q781 499 776.0 463.5Q771 428 766 382L811 380Q807 426 802.5 462.0Q798 498 793 508Q804 507 814.5 505.5Q825 504 836 504Q856 504 873 508Q869 499 864.0 461.5Q859 424 854 377L899 375Q895 422 890.5 460.0Q886 498 881 508Q892 507 902.5 505.5Q913 504 924 504Q944 504 961 508Q957 498 951.5 459.5Q946 421 941 373L988 370Q983 419 978.5 458.5Q974 498 969 508Q980 507 992.0 505.5Q1004 504 1016 504Q1033 504 1049 507Q1045 497 1039.5 457.0Q1034 417 1029 368Q1052 367 1073.0 366.0Q1094 365 1109 363Q1102 428 1092.5 480.5Q1083 533 1074 552Q1087 550 1101.0 549.0Q1115 548 1131 548Q1160 548 1188 551L1183 574Q1011 569 852.0 561.5Q693 554 558.0 544.5Q423 535 321.0 522.5Q219 510 160 494Q172 551 172 605Q172 659 160 710Q253 684 400.5 667.0Q548 650 744.0 637.0Q940 624 1176 609Q1169 644 1161.5 676.0Q1154 708 1146 736Q1197 724 1251 724Q1305 724 1362 736Q1339 653 1317.0 533.5Q1295 414 1281.0 254.0Q1267 94 1267 -112H1241Q1241 -96 1240.5 -81.0Q1240 -66 1240 -51Q1134 -51 1016.5 -55.0Q899 -59 780.5 -66.0Q662 -73 552 -83Q542 -147 534.5 -216.0Q527 -285 527 -350H504Q504 -286 498.0 -219.5Q492 -153 481 -90L339 -105Q329 -165 323.0 -228.0Q317 -291 317 -350ZM1240 -25Q1237 155 1222.5 297.0Q1208 439 1188 548Q1182 532 1175.5 493.5Q1169 455 1163.5 403.5Q1158 352 1153 298Q1162 299 1171.5 300.0Q1181 301 1190 302Q1181 285 1172.5 251.5Q1164 218 1157.0 176.5Q1150 135 1146.0 92.5Q1142 50 1142 14H1130Q1130 42 1127.5 72.0Q1125 102 1120 131L1026 124Q1022 94 1018.5 65.5Q1015 37 1013 16H1005L991 123L937 120L925 16H917Q914 37 910.5 63.5Q907 90 904 118L848 115Q840 57 837 16H829Q826 36 823.0 61.5Q820 87 817 114L760 110Q756 84 753.5 59.0Q751 34 749 16H741Q738 35 735.0 59.0Q732 83 729 108Q683 105 649.5 102.0Q616 99 610 97Q613 118 613 139Q613 147 613.0 154.5Q613 162 611 169Q602 141 591.0 99.0Q580 57 569 6Q677 -3 792.0 -10.0Q907 -17 1021.5 -20.5Q1136 -24 1240 -25ZM1118 142Q1110 192 1098.0 234.5Q1086 277 1074 302Q1084 301 1094.5 300.0Q1105 299 1116 298Q1115 312 1114.0 324.5Q1113 337 1111 350Q1095 349 1074.0 348.0Q1053 347 1027 345L1017 248Q1034 248 1049 252Q1045 242 1039.5 213.0Q1034 184 1029 148Q1056 147 1079.0 145.5Q1102 144 1118 142ZM988 150Q983 185 978.5 213.5Q974 242 969 252Q977 251 984.5 250.0Q992 249 999 248L990 342L938 340L929 248Q946 248 961 252Q957 243 952.0 215.5Q947 188 942 153ZM899 155Q895 189 890.5 215.5Q886 242 881 252Q889 251 896.5 250.0Q904 249 911 248L903 338L850 335L841 248Q858 248 873 252Q869 243 864.0 216.5Q859 190 854 157ZM810 160Q806 192 801.5 217.5Q797 243 793 252Q801 251 808.5 250.0Q816 249 823 248L815 333L761 330Q759 308 757.0 287.0Q755 266 753 248Q770 248 785 252Q781 243 776.5 218.5Q772 194 767 162ZM462 16Q449 78 435.5 125.5Q422 173 411 198Q402 174 389.5 129.5Q377 85 364 26Q387 24 411.5 21.0Q436 18 462 16Z" />
  </g>
</svg>