<svg xmlns="http://www.w3.org/2000/svg" viewBox="100 -350 1262 1086">
  <g transform="translate(0, 386) scale(1, -1)">
    <path fill="black" d="M294 -350Q294 -292 288.5 -232.0Q283 -172 275 -114Q160 -129 100 -146Q112 -95 112 -41Q112 13 100 70Q126 63 163.0 56.0Q200 49 246 42Q233 98 220.5 141.0Q208 184 198 205Q227 201 255.5 198.0Q284 195 313 195Q360 195 408 204V205Q409 205 409.5 204.5Q410 204 411 204Q412 204 412.5 204.5Q413 205 414 205L413 204Q440 200 467.5 197.5Q495 195 523 195Q548 195 573.5 197.5Q599 200 624 205Q614 182 599.0 129.0Q584 76 569 6Q677 -3 792.0 -10.0Q907 -17 1021.5 -20.5Q1136 -24 1240 -25Q1236 166 1220.5 314.5Q1205 463 1183 574Q1011 569 852.0 561.5Q693 554 558.0 544.5Q423 535 321.0 522.5Q219 510 160 494Q172 551 172 605Q172 659 160 710Q253 684 400.5 667.0Q548 650 744.0 637.0Q940 624 1176 609Q1169 644 1161.5 676.0Q1154 708 1146 736Q1197 724 1251 724Q1305 724 1362 736Q1339 653 1317.0 533.5Q1295 414 1281.0 254.0Q1267 94 1267 -112H1241Q1241 -96 1240.5 -81.0Q1240 -66 1240 -51Q1134 -51 1016.5 -55.0Q899 -59 780.5 -66.0Q662 -73 552 -83Q542 -147 534.5 -216.0Q527 -285 527 -350H504Q504 -286 498.0 -219.5Q492 -153 481 -90L339 -105Q329 -165 323.0 -228.0Q317 -291 317 -350ZM849 7Q843 20 823.0 39.0Q803 58 781 68L806 80Q798 178 791.5 242.5Q785 307 778.0 350.0Q771 393 762.0 427.0Q753 461 740 498Q752 496 764.5 494.0Q777 492 790 492L781 496Q803 506 823.0 525.0Q843 544 849 557Q855 545 877.5 519.5Q900 494 932.5 461.5Q965 429 1000.0 395.5Q1035 362 1066.5 332.0Q1098 302 1118 282Q1098 262 1066.5 232.0Q1035 202 1000.0 168.5Q965 135 932.5 102.5Q900 70 877.5 44.5Q855 19 849 7ZM1089 288Q1060 310 1021.0 338.5Q982 367 941.0 396.0Q900 425 863 448Q856 422 850.5 390.0Q845 358 840 317Q871 312 917.0 306.5Q963 301 1010.0 296.0Q1057 291 1089 288ZM825 91Q862 114 910.5 147.0Q959 180 1006.5 214.5Q1054 249 1089 275Q1054 272 1005.0 267.0Q956 262 909.5 257.5Q863 253 834 248Q832 215 829.5 176.5Q827 138 825 91ZM462 16Q449 78 435.5 125.5Q422 173 411 198Q402 174 389.5 129.5Q377 85 364 26Q387 24 411.5 21.0Q436 18 462 16Z" />
  </g>
</svg>