<svg xmlns="http://www.w3.org/2000/svg" viewBox="100 -350 1262 1086">
  <g transform="translate(0, 386) scale(1, -1)">
    <path fill="black" d="M294 -350Q294 -292 288.5 -232.0Q283 -172 275 -114Q160 -129 100 -146Q112 -95 112 -41Q112 13 100 70Q126 63 163.0 56.0Q200 49 246 42Q233 98 220.5 141.0Q208 184 198 205Q227 201 255.5 198.0Q284 195 313 195Q360 195 408 204V205Q409 205 409.5 204.5Q410 204 411 204Q412 204 412.5 204.5Q413 205 414 205L413 204Q463 196 513 195Q501 206 492.0 213.5Q483 221 469 230Q483 241 498.5 252.5Q514 264 543 289Q515 314 502.0 325.5Q489 337 469 350Q483 361 498.5 372.5Q514 384 543 409Q515 434 502.0 445.5Q489 457 469 470Q483 481 500.0 493.5Q517 506 549 534L557 530Q545 513 537.5 498.5Q530 484 521 470Q535 481 552.0 493.5Q569 506 601 534L609 530Q597 513 589.5 498.5Q582 484 573 470Q587 481 604.0 493.5Q621 506 653 534L661 530Q649 513 641.5 498.5Q634 484 625 470Q634 457 641.5 442.0Q649 427 661 410Q649 393 641.5 378.5Q634 364 625 350Q634 337 641.5 322.0Q649 307 661 290Q649 273 641.5 258.5Q634 244 625 230Q634 217 641.5 202.0Q649 187 661 170L653 165Q642 174 634.0 181.0Q626 188 619 194Q609 167 596.0 118.0Q583 69 569 6Q677 -3 792.0 -10.0Q907 -17 1021.5 -20.5Q1136 -24 1240 -25Q1237 143 1224.0 278.0Q1211 413 1193 518Q1188 487 1183.0 439.5Q1178 392 1173.0 321.5Q1168 251 1163 149H1153Q1153 157 1152.5 165.0Q1152 173 1152 181Q1087 181 1018.0 177.5Q949 174 885.0 168.5Q821 163 768.5 156.0Q716 149 684 140Q690 163 690 185Q690 208 684 233L693 230Q689 262 685.0 301.0Q681 340 677.5 376.5Q674 413 670.0 440.0Q666 467 662 475Q673 474 683.0 472.5Q693 471 704 470Q707 481 708.0 492.0Q709 503 709 513Q709 523 708.0 533.5Q707 544 705 554Q519 544 376.5 529.0Q234 514 160 494Q172 551 172 605Q172 659 160 710Q253 684 400.5 667.0Q548 650 744.0 637.0Q940 624 1176 609Q1169 644 1161.5 676.0Q1154 708 1146 736Q1197 724 1251 724Q1305 724 1362 736Q1339 653 1317.0 533.5Q1295 414 1281.0 254.0Q1267 94 1267 -112H1241Q1241 -96 1240.5 -81.0Q1240 -66 1240 -51Q1134 -51 1016.5 -55.0Q899 -59 780.5 -66.0Q662 -73 552 -83Q542 -147 534.5 -216.0Q527 -285 527 -350H504Q504 -286 498.0 -219.5Q492 -153 481 -90L339 -105Q329 -165 323.0 -228.0Q317 -291 317 -350ZM1162 566Q1168 566 1173.5 566.0Q1179 566 1185 567L1183 574Q1166 574 1148.0 573.5Q1130 573 1113 572Q1134 566 1162 566ZM1120 525Q1118 538 1114.5 549.5Q1111 561 1109 572Q1010 568 916.0 564.5Q822 561 735 556Q776 549 839.0 542.5Q902 536 976.0 531.5Q1050 527 1120 525ZM1152 193Q1150 279 1145.5 338.5Q1141 398 1135.5 439.0Q1130 480 1124 510Q1044 509 962.0 503.0Q880 497 812.5 488.5Q745 480 706 470Q714 470 723.0 471.0Q732 472 742 474Q738 466 734.0 438.5Q730 411 725.5 373.5Q721 336 717.0 297.5Q713 259 710 227Q744 221 795.0 215.0Q846 209 906.5 204.5Q967 200 1030.5 197.0Q1094 194 1152 193ZM573 350Q587 361 602.5 372.5Q618 384 647 409Q619 434 606.0 445.0Q593 456 573 469Q582 456 589.5 441.5Q597 427 609 410Q597 393 589.5 378.5Q582 364 573 350ZM521 350Q535 361 550.5 372.5Q566 384 595 409Q567 434 554.0 445.0Q541 456 521 469Q530 456 537.5 441.5Q545 427 557 410Q545 393 537.5 378.5Q530 364 521 350ZM573 230Q587 241 602.5 252.5Q618 264 647 289Q619 314 606.0 325.0Q593 336 573 349Q582 336 589.5 321.5Q597 307 609 290Q597 273 589.5 258.5Q582 244 573 230ZM521 230Q535 241 550.5 252.5Q566 264 595 289Q567 314 554.0 325.0Q541 336 521 349Q530 336 537.5 321.5Q545 307 557 290Q545 273 537.5 258.5Q530 244 521 230ZM590 199 610 202Q601 210 592.5 216.0Q584 222 573 229ZM540 195Q546 195 552.0 195.5Q558 196 564 197Q552 207 543.0 214.0Q534 221 521 229Q526 221 530.5 212.5Q535 204 540 195ZM462 16Q449 78 435.5 125.5Q422 173 411 198Q402 174 389.5 129.5Q377 85 364 26Q387 24 411.5 21.0Q436 18 462 16Z" />
  </g>
</svg>