<svg xmlns="http://www.w3.org/2000/svg" viewBox="100 -350 1262 1086">
  <g transform="translate(0, 386) scale(1, -1)">
    <path fill="black" d="M294 -350Q294 -292 288.5 -232.0Q283 -172 275 -114Q160 -129 100 -146Q112 -95 112 -41Q112 13 100 70Q126 63 163.0 56.0Q200 49 246 42Q233 98 220.5 141.0Q208 184 198 205Q227 201 255.5 198.0Q284 195 313 195Q360 195 408 204V205Q409 205 409.5 204.5Q410 204 411 204Q412 204 412.5 204.5Q413 205 414 205L413 204Q440 200 468.0 197.5Q496 195 524 195Q542 195 560.5 196.0Q579 197 598 200L597 204Q630 241 649.0 264.5Q668 288 680.5 304.5Q693 321 706 336Q720 315 732.5 299.5Q745 284 763.0 265.0Q781 246 809 215Q837 248 854.5 269.0Q872 290 884.5 305.5Q897 321 909 336Q923 315 935.5 299.5Q948 284 966.0 265.0Q984 246 1013 214Q1042 247 1059.5 268.5Q1077 290 1089.0 305.5Q1101 321 1113 336Q1128 314 1141.5 298.0Q1155 282 1174.5 261.0Q1194 240 1226 204L1215 191Q1187 210 1161.5 222.5Q1136 235 1113 248Q1090 235 1065.0 222.5Q1040 210 1010 191Q983 210 957.5 222.5Q932 235 909 248Q885 235 861.0 222.5Q837 210 808 191Q780 210 754.5 222.5Q729 235 706 248Q687 238 666.5 227.5Q646 217 623 203Q614 180 599.0 127.5Q584 75 569 6Q677 -3 792.0 -10.0Q907 -17 1021.5 -20.5Q1136 -24 1240 -25Q1237 157 1222 301L1215 293Q1187 313 1161.5 326.0Q1136 339 1113 353Q1090 339 1065.0 326.0Q1040 313 1010 293Q983 313 957.5 326.0Q932 339 909 353Q885 339 861.0 326.0Q837 313 808 293Q780 313 754.5 326.0Q729 339 706 353Q683 339 658.0 326.0Q633 313 603 293L597 306Q630 343 649.0 367.0Q668 391 680.5 407.5Q693 424 706 438Q720 418 732.5 403.0Q745 388 763.0 368.5Q781 349 809 317Q837 350 854.5 372.0Q872 394 884.5 409.5Q897 425 909 438Q923 418 935.5 402.5Q948 387 966.0 367.5Q984 348 1013 316Q1042 349 1059.5 371.0Q1077 393 1089.0 409.0Q1101 425 1113 438Q1128 418 1141.0 402.0Q1154 386 1172.5 366.0Q1191 346 1221 311L1212 396Q1184 416 1160.0 428.0Q1136 440 1113 454Q1090 440 1065.0 427.0Q1040 414 1010 394Q983 414 957.5 427.0Q932 440 909 454Q885 440 861.0 427.0Q837 414 808 394Q780 414 754.5 427.0Q729 440 706 454Q683 440 658.0 427.0Q633 414 603 394L597 407Q630 444 649.0 468.0Q668 492 680.5 508.5Q693 525 706 539Q720 519 732.5 503.5Q745 488 763.0 469.0Q781 450 809 418Q837 451 854.5 473.0Q872 495 884.5 510.5Q897 526 909 539Q923 519 935.5 503.5Q948 488 966.0 468.5Q984 449 1013 417Q1042 450 1059.5 472.0Q1077 494 1089.0 510.0Q1101 526 1113 539Q1127 520 1138.5 505.5Q1150 491 1166.0 473.5Q1182 456 1207 428Q1196 509 1183 574Q1011 569 852.0 561.5Q693 554 558.0 544.5Q423 535 321.0 522.5Q219 510 160 494Q172 551 172 605Q172 659 160 710Q253 684 400.5 667.0Q548 650 744.0 637.0Q940 624 1176 609Q1169 644 1161.5 676.0Q1154 708 1146 736Q1197 724 1251 724Q1305 724 1362 736Q1339 653 1317.0 533.5Q1295 414 1281.0 254.0Q1267 94 1267 -112H1241Q1241 -96 1240.5 -81.0Q1240 -66 1240 -51Q1134 -51 1016.5 -55.0Q899 -59 780.5 -66.0Q662 -73 552 -83Q542 -147 534.5 -216.0Q527 -285 527 -350H504Q504 -286 498.0 -219.5Q492 -153 481 -90L339 -105Q329 -165 323.0 -228.0Q317 -291 317 -350ZM788 50 778 65Q817 109 840.5 138.5Q864 168 880.0 188.5Q896 209 912 227Q930 200 946.5 180.0Q963 160 986.5 134.5Q1010 109 1049 65L1036 50Q1002 73 971.0 88.0Q940 103 912 119Q883 103 853.0 88.0Q823 73 788 50ZM462 16Q449 78 435.5 125.5Q422 173 411 198Q402 174 389.5 129.5Q377 85 364 26Q387 24 411.5 21.0Q436 18 462 16Z" />
  </g>
</svg>