<svg xmlns="http://www.w3.org/2000/svg" viewBox="100 -350 1262 1086">
  <g transform="translate(0, 386) scale(1, -1)">
    <path fill="black" d="M294 -350Q294 -292 288.5 -232.0Q283 -172 275 -114Q160 -129 100 -146Q112 -95 112 -41Q112 13 100 70Q126 63 163.0 56.0Q200 49 246 42Q233 98 220.5 141.0Q208 184 198 205Q227 201 255.5 198.0Q284 195 313 195Q360 195 408 204V205Q409 205 409.5 204.5Q410 204 411 204Q412 204 412.5 204.5Q413 205 414 205L413 204Q445 200 477.5 197.5Q510 195 544 196Q546 204 546 209Q496 231 463.0 241.0Q430 251 402.0 255.5Q374 260 340 265Q367 297 385 346Q376 370 365.0 390.0Q354 410 340 426Q372 431 398.0 435.0Q424 439 454.0 447.5Q484 456 527 474L489 526Q526 527 568 546Q431 536 325.5 523.5Q220 511 160 494Q172 551 172 605Q172 659 160 710Q253 684 400.5 667.0Q548 650 744.0 637.0Q940 624 1176 609Q1169 644 1161.5 676.0Q1154 708 1146 736Q1197 724 1251 724Q1305 724 1362 736Q1339 653 1317.0 533.5Q1295 414 1281.0 254.0Q1267 94 1267 -112H1241Q1241 -96 1240.5 -81.0Q1240 -66 1240 -51Q1134 -51 1016.5 -55.0Q899 -59 780.5 -66.0Q662 -73 552 -83Q542 -147 534.5 -216.0Q527 -285 527 -350H504Q504 -286 498.0 -219.5Q492 -153 481 -90L339 -105Q329 -165 323.0 -228.0Q317 -291 317 -350ZM1127 263Q1122 340 1117.0 389.5Q1112 439 1105.5 476.5Q1099 514 1088 553Q1114 547 1138 547Q1150 547 1162.0 548.5Q1174 550 1187 552Q1186 557 1185.5 563.0Q1185 569 1183 574Q1020 570 868.5 563.0Q717 556 586 547Q588 512 588.0 483.5Q588 455 592.0 419.5Q596 384 610 328Q620 325 630.0 324.0Q640 323 650 322L636 303Q681 290 726.5 283.0Q772 276 845 271Q844 280 843.0 289.0Q842 298 840 308Q866 300 885.0 294.0Q904 288 922.5 283.0Q941 278 966.0 274.5Q991 271 1029.5 268.5Q1068 266 1127 263ZM1240 -25Q1237 152 1223.0 292.5Q1209 433 1189 541Q1179 507 1172.5 473.0Q1166 439 1162.0 395.5Q1158 352 1154.5 290.5Q1151 229 1147 140H1135L1128 245Q1068 241 1029.0 238.0Q990 235 965.0 231.5Q940 228 922.0 224.5Q904 221 885.5 215.5Q867 210 840 203Q842 211 843.0 219.5Q844 228 845 236Q793 232 755.5 228.0Q718 224 687.0 218.0Q656 212 623 203Q614 180 599.0 127.5Q584 75 569 6Q677 -3 792.0 -10.0Q907 -17 1021.5 -20.5Q1136 -24 1240 -25ZM1060 324Q1010 368 978 393Q906 405 859.0 412.0Q812 419 782.5 421.5Q753 424 732 424Q707 424 685.0 421.5Q663 419 626 415Q651 472 651 529Q679 515 696.5 505.0Q714 495 731.0 487.0Q748 479 773.5 469.5Q799 460 841.0 447.5Q883 435 951 415Q968 429 997.5 456.5Q1027 484 1054 515L1063 510Q1046 480 1034.5 456.5Q1023 433 1012 414Q1020 401 1034.5 379.5Q1049 358 1068 332ZM548 222Q553 258 552.5 286.0Q552 314 553 350Q564 345 575.0 340.5Q586 336 596 332Q579 379 564.5 408.5Q550 438 536 461Q499 438 476.0 419.5Q453 401 435.5 383.5Q418 366 396 346Q419 324 437.5 305.5Q456 287 481.5 267.5Q507 248 548 222ZM571 197Q583 199 595.5 200.5Q608 202 621 204Q624 216 625.0 228.5Q626 241 626 254Q626 262 626.0 270.5Q626 279 624 288Q610 268 597.5 247.0Q585 226 571 197ZM462 16Q449 78 435.5 125.5Q422 173 411 198Q402 174 389.5 129.5Q377 85 364 26Q387 24 411.5 21.0Q436 18 462 16Z" />
  </g>
</svg>