<svg xmlns="http://www.w3.org/2000/svg" viewBox="100 -380 833 1256">
  <g transform="translate(0, 496) scale(1, -1)">
    <path fill="black" d="M231 -380Q225 -345 219.0 -305.0Q213 -265 207 -225Q167 -230 140.0 -235.5Q113 -241 100 -246Q104 -229 106.0 -212.0Q108 -195 108 -177Q108 -159 106.0 -141.0Q104 -123 100 -104Q124 -112 190 -121Q184 -84 177.5 -56.0Q171 -28 165 -15Q201 -21 239 -21Q255 -21 271.0 -20.0Q287 -19 303 -16V-15H306Q342 -21 379 -21Q412 -21 446 -15Q440 -29 432.0 -64.0Q424 -99 416 -144Q517 -151 630.5 -156.0Q744 -161 856 -162Q854 -19 842.5 80.5Q831 180 817 242Q706 241 595.5 234.5Q485 228 390 219Q388 203 386.5 188.5Q385 174 383 160H369L360 216Q329 213 301.5 210.0Q274 207 249 203Q248 192 246.5 181.0Q245 170 244 160H231L224 200Q178 194 146.0 188.0Q114 182 100 177Q104 194 106.0 210.5Q108 227 108 244Q108 256 107.0 268.5Q106 281 104 294Q103 294 102.0 293.5Q101 293 100 293L103 305L100 319Q101 318 102.5 318.0Q104 318 105 317Q108 338 108 362Q108 380 106.0 398.0Q104 416 100 435Q122 426 190 417Q184 455 177.5 483.5Q171 512 165 525Q201 519 239 519Q255 519 271.0 520.0Q287 521 303 524V525L305 524L307 525L306 524Q323 522 341.0 520.5Q359 519 377 519Q412 519 446 525Q440 511 432.0 475.5Q424 440 416 395Q517 388 630.5 382.5Q744 377 856 377Q854 521 842.5 620.5Q831 720 817 782Q722 781 627.0 776.0Q532 771 445.5 764.0Q359 757 287.5 748.5Q216 740 167.0 732.0Q118 724 100 717Q104 734 106.0 751.0Q108 768 108 786Q108 804 106.0 822.0Q104 840 100 859Q118 852 166.5 845.0Q215 838 286.0 830.5Q357 823 443.5 817.0Q530 811 624.0 806.5Q718 802 812 801Q806 826 801.0 844.5Q796 863 791 876Q808 872 825.0 870.0Q842 868 860 868Q878 868 896.0 870.0Q914 872 933 876Q922 844 908.5 776.5Q895 709 885.5 599.0Q876 489 875 328Q889 329 903.5 330.5Q918 332 933 336Q922 304 908.0 235.0Q894 166 884.5 53.5Q875 -59 875 -224H857Q857 -213 856.5 -201.5Q856 -190 856 -180Q741 -180 624.5 -186.5Q508 -193 407 -202Q400 -248 393.5 -294.5Q387 -341 383 -380H369Q362 -341 356.0 -296.0Q350 -251 343 -208L265 -217Q258 -260 253.0 -302.0Q248 -344 244 -380ZM332 402Q325 442 318.5 473.0Q312 504 305 520Q300 505 293.0 475.0Q286 445 279 407Q292 406 305.5 404.5Q319 403 332 402ZM812 261Q806 286 801.0 304.5Q796 323 791 336Q807 332 823.5 330.0Q840 328 857 328Q857 336 856.5 343.5Q856 351 856 359Q741 358 624.0 352.0Q507 346 406 336L398 280Q491 273 598.5 268.0Q706 263 812 261ZM350 284Q349 296 347.0 307.5Q345 319 343 330Q323 328 303.0 326.0Q283 324 265 322L261 293ZM209 299Q209 303 208.0 306.5Q207 310 207 314Q194 312 182.0 310.0Q170 308 159 306Q170 305 183.0 303.0Q196 301 209 299ZM332 -137Q325 -97 318.5 -66.0Q312 -35 305 -19Q300 -34 293.0 -64.0Q286 -94 279 -132Q292 -133 305.5 -134.0Q319 -135 332 -137Z" />
  </g>
</svg>