<svg xmlns="http://www.w3.org/2000/svg" viewBox="100 -520 1314 1654">
  <g transform="translate(0, 614) scale(1, -1)">
    <path fill="black" d="M1089 525Q1095 564 1095.5 606.5Q1096 649 1096.0 702.0Q1096 755 1100 824Q1090 824 1080.5 824.5Q1071 825 1061 825Q982 825 914.0 818.0Q846 811 806 808Q813 849 813.0 894.0Q813 939 813.5 996.0Q814 1053 820 1127L845 1134Q865 1058 876.0 1003.5Q887 949 900 902Q945 890 998.5 879.5Q1052 869 1125 849L1127 850V849Q1129 848 1132 848L1129 841Q1149 770 1160.0 717.5Q1171 665 1183 619Q1230 607 1284.5 596.0Q1339 585 1414 565L1408 540Q1391 541 1374.0 541.5Q1357 542 1340 542Q1263 542 1196.0 535.0Q1129 528 1089 525ZM994 430Q1000 469 1001.0 511.5Q1002 554 1002.0 607.0Q1002 660 1006 728Q993 729 979.0 729.0Q965 729 951 729Q877 729 813.0 722.5Q749 716 711 714Q717 755 718.0 799.5Q719 844 720.0 900.5Q721 957 725 1032L750 1039Q770 963 781.0 908.0Q792 853 804 806Q850 795 903.0 784.5Q956 774 1027 754L1032 756Q1032 754 1033 753Q1034 752 1036 752L1034 747Q1054 675 1064.5 622.5Q1075 570 1087 523Q1135 511 1189.5 500.0Q1244 489 1319 469L1313 445Q1297 446 1280.5 446.5Q1264 447 1248 447Q1170 447 1101.5 439.5Q1033 432 994 430ZM655 -329 629 -323Q625 -254 624.0 -200.5Q623 -147 622.5 -104.0Q622 -61 617 -23L610 -17Q570 -67 541.5 -108.5Q513 -150 503 -173Q475 -134 446.0 -104.5Q417 -75 384 -52Q410 -41 449.0 -14.5Q488 12 534 47Q481 92 421.5 142.5Q362 193 305 239Q274 198 251.0 165.0Q228 132 220 112Q192 151 163.0 180.0Q134 209 100 231Q121 240 151.5 260.0Q182 280 218 307Q144 363 100 383Q134 406 163.0 434.5Q192 463 220 502Q228 482 251.0 449.0Q274 416 305 375Q362 421 421.5 471.5Q481 522 534 567Q488 602 449.0 628.5Q410 655 384 666Q417 689 446.0 718.5Q475 748 503 787Q513 764 541.5 722.5Q570 681 610 631L617 637Q622 675 622.5 718.0Q623 761 624.0 814.5Q625 868 629 937L655 943Q675 869 685.5 814.0Q696 759 709 711Q754 699 807.0 689.0Q860 679 930 659L936 660Q936 658 937 657Q938 656 941 656L939 649Q959 579 969.0 526.5Q979 474 992 428Q1040 416 1094.5 405.0Q1149 394 1224 374L1217 350Q1203 351 1188.5 351.0Q1174 351 1160 351Q1087 351 1021.5 345.0Q956 339 915 335L889 307L915 278Q956 274 1018.5 268.0Q1081 262 1152 262Q1168 262 1184.5 262.5Q1201 263 1217 264L1224 240Q1149 220 1094.5 209.0Q1040 198 992 186Q979 140 969.0 87.5Q959 35 939 -35L941 -42Q938 -42 937 -43Q936 -44 936 -46L930 -45Q860 -64 807.0 -74.5Q754 -85 709 -97Q696 -145 685.5 -200.0Q675 -255 655 -329ZM871 327Q887 339 902 352Q908 407 906.5 472.5Q905 538 911 633Q898 634 885.5 634.0Q873 634 860 634Q793 634 733.0 628.5Q673 623 632 620L625 612Q663 565 706.0 515.0Q749 465 791.5 416.5Q834 368 871 327ZM563 70Q633 126 708.0 190.0Q783 254 847 307Q783 360 708.0 424.0Q633 488 563 543Q515 490 461.5 428.0Q408 366 359 307Q408 248 461.5 186.0Q515 124 563 70ZM860 -20Q873 -20 885.5 -20.0Q898 -20 911 -19Q905 76 906.5 141.5Q908 207 902 262Q895 268 887.0 274.0Q879 280 871 287Q834 245 791.5 197.0Q749 149 706.0 98.5Q663 48 625 1Q627 0 629.0 -2.0Q631 -4 632 -6Q673 -9 733.0 -14.5Q793 -20 860 -20ZM750 -425 725 -418Q721 -343 720.0 -286.5Q719 -230 718.0 -185.0Q717 -140 711 -100Q749 -102 813.0 -108.5Q877 -115 951 -115Q965 -115 979.0 -115.0Q993 -115 1006 -114Q1002 -45 1002.0 7.5Q1002 60 1001.0 103.0Q1000 146 994 184Q1033 182 1101.5 174.5Q1170 167 1248 167Q1264 167 1280.5 167.5Q1297 168 1313 169L1319 145Q1244 125 1189.5 114.0Q1135 103 1087 91Q1075 45 1064.5 -8.0Q1054 -61 1034 -133L1036 -138Q1034 -138 1033 -139Q1032 -140 1032 -142L1027 -140Q956 -159 903.0 -170.0Q850 -181 804 -192Q792 -239 781.0 -294.0Q770 -349 750 -425ZM845 -520 820 -513Q814 -438 813.5 -381.5Q813 -325 813.0 -279.5Q813 -234 806 -194Q846 -197 914.0 -204.0Q982 -211 1061 -211Q1071 -211 1080.5 -210.5Q1090 -210 1100 -210Q1096 -141 1096.0 -88.0Q1096 -35 1095.5 7.5Q1095 50 1089 89Q1129 86 1196.0 79.0Q1263 72 1340 72Q1357 72 1374.0 72.5Q1391 73 1408 74L1414 49Q1339 29 1284.5 18.0Q1230 7 1183 -5Q1171 -51 1160.0 -103.5Q1149 -156 1129 -227L1132 -234L1125 -235Q1052 -254 998.5 -265.0Q945 -276 900 -288Q887 -334 876.0 -389.0Q865 -444 845 -520Z" />
  </g>
</svg>