<svg xmlns="http://www.w3.org/2000/svg" viewBox="100 -112 817 848">
  <g transform="translate(0, 624) scale(1, -1)">
    <path fill="black" d="M772 -112Q772 -93 772.0 -74.5Q772 -56 771 -38Q599 16 469.5 42.0Q340 68 248.5 76.5Q157 85 100 85Q130 135 147.0 186.5Q164 238 169 291Q210 256 287.5 208.5Q365 161 484.5 105.5Q604 50 771 -9Q767 179 751.0 325.0Q735 471 713 580Q574 526 464.5 474.0Q355 422 280.0 378.0Q205 334 169 303Q164 356 147.0 407.5Q130 459 100 509Q176 509 332.5 531.5Q489 554 706 615Q699 649 691.5 679.0Q684 709 677 736Q728 724 782 724Q836 724 893 736L875 667Q883 669 891.5 672.0Q900 675 909 678L917 654L868 637Q843 523 823.0 361.0Q803 199 799 -19L857 -39L849 -63L798 -46V-112Z" />
  </g>
</svg>