<svg xmlns="http://www.w3.org/2000/svg" viewBox="100 -442 1047 1178">
  <g transform="translate(0, 294) scale(1, -1)">
    <path fill="black" d="M570 -442Q570 -428 569.5 -413.0Q569 -398 569 -383Q484 -358 396.5 -338.5Q309 -319 231.5 -307.0Q154 -295 100 -293Q142 -222 146 -151Q226 -204 337.0 -260.0Q448 -316 568 -360Q566 -292 560.0 -220.5Q554 -149 545.0 -79.5Q536 -10 525 49Q416 7 317.5 -43.5Q219 -94 146 -143Q142 -72 100 -1Q149 1 217.0 11.0Q285 21 363.5 37.5Q442 54 520 75Q516 98 511.0 118.0Q506 138 501 156Q534 147 570 147Q570 159 569.5 171.5Q569 184 569 197Q484 222 396.5 241.5Q309 261 231.5 273.0Q154 285 100 287Q142 358 146 429Q199 394 267.0 356.5Q335 319 411.5 284.0Q488 249 568 220Q566 288 560.0 359.5Q554 431 545.0 500.5Q536 570 525 629Q416 587 317.5 536.0Q219 485 146 437Q142 508 100 579Q149 581 217.0 591.0Q285 601 363.5 617.5Q442 634 520 655Q516 678 511.0 698.0Q506 718 501 736Q536 727 573 727Q611 727 650 736Q640 698 630.0 638.0Q620 578 612.0 506.0Q604 434 598.0 358.0Q592 282 590 212L630 199L624 180Q615 182 606.5 185.0Q598 188 589 191V147Q618 148 650 156Q640 118 630.0 58.0Q620 -2 612.0 -74.0Q604 -146 598.0 -222.0Q592 -298 590 -367L630 -381L624 -400Q615 -397 606.5 -394.0Q598 -391 589 -389V-442ZM756 -442Q756 -370 750.5 -287.5Q745 -205 735.5 -122.5Q726 -40 713.5 32.0Q701 104 687 156Q720 147 756 147Q756 219 750.5 300.0Q745 381 735.5 462.0Q726 543 713.5 614.0Q701 685 687 736Q722 727 759 727Q797 727 836 736Q831 717 826.0 693.5Q821 670 816 641Q829 639 841.5 638.0Q854 637 867 637Q881 637 896.5 638.0Q912 639 928 642Q923 636 915.5 604.5Q908 573 900.5 528.5Q893 484 887.5 437.5Q882 391 879 354Q920 431 951.0 500.5Q982 570 1001 625Q990 672 977.0 697.5Q964 723 953 736Q967 733 980.5 732.0Q994 731 1008 731Q1022 731 1037.5 732.0Q1053 733 1069 736Q1057 723 1043.0 695.5Q1029 668 1018 616H1017Q1049 590 1081.0 569.5Q1113 549 1147 535Q1097 499 1036.0 440.0Q975 381 909.5 306.5Q844 232 782 148Q796 149 809.5 151.0Q823 153 836 156Q831 137 826.0 113.5Q821 90 816 61Q829 59 841.5 58.0Q854 57 867 57Q881 57 896.5 58.0Q912 59 928 62Q923 56 916.0 25.0Q909 -6 901.5 -50.0Q894 -94 888.0 -140.5Q882 -187 879 -224Q962 -66 1001 45Q990 92 977.0 117.5Q964 143 953 156Q967 153 980.5 152.0Q994 151 1008 151Q1022 151 1037.5 152.0Q1053 153 1069 156Q1057 143 1043.0 115.5Q1029 88 1018 36H1017Q1049 10 1081.0 -10.0Q1113 -30 1147 -45Q1097 -82 1034.0 -142.5Q971 -203 904.5 -280.0Q838 -357 775 -442ZM775 168Q798 207 820.0 246.0Q842 285 862 322Q861 353 856.0 399.5Q851 446 843.5 495.0Q836 544 828.5 582.5Q821 621 815 636Q805 571 796.0 489.5Q787 408 781.5 324.5Q776 241 775 168ZM775 -411Q798 -372 820.0 -333.0Q842 -294 862 -256Q861 -225 856.0 -178.5Q851 -132 843.5 -84.0Q836 -36 828.5 2.5Q821 41 815 56Q805 -9 796.0 -90.0Q787 -171 781.5 -254.5Q776 -338 775 -411Z" />
  </g>
</svg>