<svg xmlns="http://www.w3.org/2000/svg" viewBox="100 -273 1349 1048">
  <g transform="translate(0, 502) scale(1, -1)">
    <path fill="black" d="M725 -273 719 -93Q610 -97 530.0 -103.0Q450 -109 390.5 -118.0Q331 -127 283.5 -138.0Q236 -149 192.5 -161.0Q149 -173 100 -187Q106 -157 109.5 -128.5Q113 -100 113 -74Q113 -48 109.5 -22.0Q106 4 100 29Q158 13 204.5 0.0Q251 -13 297.0 -23.5Q343 -34 400.0 -42.0Q457 -50 533.5 -55.5Q610 -61 718 -65Q716 -11 713.5 40.0Q711 91 708 139Q602 135 524.0 129.0Q446 123 387.0 114.0Q328 105 281.0 94.5Q234 84 191.0 71.5Q148 59 100 46Q106 76 109.5 104.5Q113 133 113 159Q113 185 109.5 211.0Q106 237 100 262Q157 246 203.0 233.0Q249 220 295.0 209.5Q341 199 396.0 191.0Q451 183 526.0 177.5Q601 172 706 168Q700 282 691 381Q589 377 513.5 370.5Q438 364 381.5 355.0Q325 346 279.0 335.5Q233 325 190.0 313.0Q147 301 100 288Q106 318 109.5 346.5Q113 375 113 401Q113 427 109.5 453.0Q106 479 100 504Q156 488 201.0 475.5Q246 463 291.0 452.5Q336 442 390.0 434.0Q444 426 516.0 420.5Q588 415 688 411Q682 470 676.0 521.5Q670 573 662 619Q567 615 496.5 608.5Q426 602 371.5 593.0Q317 584 273.0 574.0Q229 564 187.5 552.5Q146 541 100 528Q106 558 109.5 586.5Q113 615 113 641Q113 667 109.5 693.0Q106 719 100 744Q154 729 198.0 716.5Q242 704 285.5 694.0Q329 684 380.0 676.0Q431 668 498.0 662.0Q565 656 657 652Q645 721 630 775Q679 762 733 762Q787 762 846 775Q823 692 804.0 539.5Q785 387 771.5 180.5Q758 -26 751 -273ZM796 167Q802 197 805.5 225.5Q809 254 809 280Q809 306 805.5 332.0Q802 358 796 383Q855 367 903.0 353.5Q951 340 999.0 329.0Q1047 318 1107.0 310.0Q1167 302 1249.5 296.5Q1332 291 1449 288V262Q1332 259 1246.5 252.5Q1161 246 1098.0 237.0Q1035 228 985.5 217.0Q936 206 891.0 193.5Q846 181 796 167Z" />
  </g>
</svg>