<svg xmlns="http://www.w3.org/2000/svg" viewBox="100 -356 750 1182">
  <g transform="translate(0, 470) scale(1, -1)">
    <path fill="black" d="M226 -356Q225 -338 223.0 -312.0Q221 -286 218 -255Q156 -267 100 -283Q109 -245 109 -204Q109 -164 100 -121Q123 -127 149.5 -132.5Q176 -138 207 -143Q203 -99 198.0 -66.0Q193 -33 188 -23Q199 -25 210.5 -26.5Q222 -28 234 -28Q245 -28 255.5 -26.5Q266 -25 277 -23Q273 -32 267.5 -67.5Q262 -103 257 -150L324 -158Q319 -109 314.0 -71.0Q309 -33 304 -23Q315 -25 326.5 -26.5Q338 -28 350 -28Q360 -28 370.5 -26.5Q381 -25 392 -23Q388 -33 382.5 -72.5Q377 -112 372 -162L441 -168Q436 -116 430.5 -75.0Q425 -34 420 -23Q431 -25 442.5 -26.5Q454 -28 466 -28Q476 -28 486.5 -26.5Q497 -25 508 -23Q504 -33 498.0 -75.5Q492 -118 487 -171L558 -174Q552 -121 546.0 -77.5Q540 -34 535 -23Q546 -25 558.0 -26.5Q570 -28 582 -28Q593 -28 603.0 -26.5Q613 -25 624 -23Q620 -33 614.0 -77.5Q608 -122 602 -176L674 -179Q669 -124 662.5 -79.0Q656 -34 651 -23Q662 -25 674.0 -26.5Q686 -28 698 -28Q709 -28 719.0 -26.5Q729 -25 740 -23Q735 -33 729.0 -79.0Q723 -125 717 -181Q729 -181 741.5 -181.5Q754 -182 767 -182Q761 -98 755.0 -36.5Q749 25 743 72Q627 64 548.0 57.0Q469 50 413.0 42.5Q357 35 312.0 25.5Q267 16 219 3Q226 35 226 74Q226 92 224.5 111.5Q223 131 219 150Q259 139 304.5 130.5Q350 122 409.5 115.0Q469 108 549.5 103.0Q630 98 741 94Q734 141 726.0 179.5Q718 218 707 258L702 194H690L677 341L599 335Q595 293 592.0 255.0Q589 217 587 194H574L562 332L482 326Q478 286 475.5 251.0Q473 216 471 194H458Q457 216 454.0 250.0Q451 284 447 323Q425 321 404.5 319.0Q384 317 365 315Q361 279 358.5 246.5Q356 214 355 194H342Q341 214 338.5 245.0Q336 276 332 311Q285 306 247 299Q244 268 242.0 240.0Q240 212 239 194H226Q225 211 223.0 237.5Q221 264 218 294Q187 289 158.0 282.0Q129 275 100 267Q109 305 109 346Q109 386 100 429Q123 422 149.5 416.5Q176 411 207 406Q203 450 198.0 483.5Q193 517 188 527Q199 525 210.5 523.5Q222 522 234 522Q245 522 255.5 523.5Q266 525 277 527Q273 518 267.5 482.0Q262 446 257 399Q273 398 289.5 396.0Q306 394 324 392Q319 440 314.0 478.5Q309 517 304 527Q315 525 326.5 523.5Q338 522 350 522Q360 522 370.5 523.5Q381 525 392 527Q388 517 382.5 477.0Q377 437 372 387Q389 386 406.0 384.5Q423 383 441 382Q436 433 430.5 474.5Q425 516 420 527Q431 525 442.5 523.5Q454 522 466 522Q476 522 486.5 523.5Q497 525 508 527Q504 517 498.0 474.5Q492 432 487 379Q504 378 521.5 377.0Q539 376 558 375Q552 428 546.0 471.5Q540 515 535 527Q546 525 558.0 523.5Q570 522 582 522Q593 522 603.0 523.5Q613 525 624 527Q620 517 614.0 472.5Q608 428 602 373L674 370Q669 425 662.5 470.0Q656 515 651 527Q662 525 674.0 523.5Q686 522 698 522Q709 522 719.0 523.5Q729 525 740 527Q735 517 729.0 471.0Q723 425 717 369L767 367Q761 452 755.0 513.5Q749 575 743 622Q627 614 548.0 607.0Q469 600 413.0 592.5Q357 585 312.0 575.5Q267 566 219 553Q226 585 226 624Q226 642 224.5 661.5Q223 681 219 700Q259 689 304.5 680.5Q350 672 409.5 665.0Q469 658 549.5 653.0Q630 648 741 644Q734 697 724.5 738.5Q715 780 702 826Q719 822 737.0 820.0Q755 818 774 818Q793 818 812.0 820.0Q831 822 850 826Q838 784 829.0 736.0Q820 688 813.5 625.0Q807 562 802.0 475.0Q797 388 793 268Q807 269 821.5 271.0Q836 273 850 276Q838 233 829.0 184.0Q820 135 813.5 70.0Q807 5 802.0 -85.5Q797 -176 793 -302H775L768 -203L715 -206Q711 -250 707.5 -290.5Q704 -331 702 -356H690L677 -209L599 -214Q595 -256 592.0 -294.5Q589 -333 587 -356H574L562 -217Q540 -218 520.5 -220.0Q501 -222 482 -224Q478 -263 475.5 -298.0Q473 -333 471 -356H458Q457 -334 454.0 -299.5Q451 -265 447 -227Q425 -228 404.5 -230.5Q384 -233 365 -235Q361 -271 358.5 -303.0Q356 -335 355 -356H342Q341 -336 338.5 -304.5Q336 -273 332 -238L247 -250Q244 -282 242.0 -309.5Q240 -337 239 -356ZM774 268 768 347 715 343Q713 326 711.5 308.5Q710 291 708 274Q741 268 774 268Z" />
  </g>
</svg>