<svg xmlns="http://www.w3.org/2000/svg" viewBox="100 -112 761 848">
  <g transform="translate(0, 624) scale(1, -1)">
    <path fill="black" d="M195 -112Q195 93 181.0 253.0Q167 413 145.0 533.0Q123 653 100 736Q151 724 205 724Q259 724 316 736Q294 655 272.5 539.5Q251 424 236.5 270.5Q222 117 221 -79Q266 -20 310.5 38.5Q355 97 396 155Q393 200 386.5 255.5Q380 311 372.0 367.0Q364 423 355.0 471.5Q346 520 338.0 553.0Q330 586 324 593Q344 589 364.5 587.0Q385 585 407 585Q429 585 451.5 587.0Q474 589 499 593Q492 585 482.5 545.0Q473 505 462.5 446.0Q452 387 443.5 322.5Q435 258 429 201Q497 297 553.0 384.5Q609 472 646 543H643Q626 622 605.5 667.5Q585 713 567 735Q587 731 607.5 729.0Q628 727 650 727Q672 727 694.5 729.0Q717 731 742 735Q725 716 705.5 674.5Q686 633 669 563Q716 514 762.5 474.5Q809 435 861 404Q799 370 722.5 317.5Q646 265 562.0 198.5Q478 132 391.5 53.5Q305 -25 222 -112Z" />
  </g>
</svg>