<svg xmlns="http://www.w3.org/2000/svg" viewBox="100 -112 1525 893">
  <g transform="translate(0, 669) scale(1, -1)">
    <path fill="black" d="M344 -112Q337 0 330.5 89.0Q324 178 317 250Q232 243 174.5 234.5Q117 226 100 218Q103 247 105.0 276.5Q107 306 107 334Q107 362 105.0 388.5Q103 415 100 438Q119 429 172.5 420.0Q226 411 302 403Q294 473 284.5 528.0Q275 583 263.5 633.0Q252 683 237 736Q288 724 342 724Q396 724 453 736Q451 730 451 728Q502 736 551.0 750.5Q600 765 639 781Q637 772 636.0 760.0Q635 748 635 733Q635 693 641.0 636.0Q647 579 656.5 511.5Q666 444 677 373Q757 368 838.5 363.0Q920 358 997 354Q975 386 951.5 421.5Q928 457 906.0 488.5Q884 520 867.0 543.5Q850 567 842 575Q868 583 891.0 594.5Q914 606 938 623Q938 611 947.0 581.5Q956 552 969.0 512.5Q982 473 997.5 431.0Q1013 389 1026 352L1091 349L1092 350L1093 349Q1104 348 1115.0 347.5Q1126 347 1136 347Q1112 383 1084.0 427.0Q1056 471 1029.0 512.5Q1002 554 981.5 584.0Q961 614 953 623Q979 631 1002.0 642.5Q1025 654 1047 671Q1048 659 1060.0 622.0Q1072 585 1090.0 536.0Q1108 487 1127.5 436.0Q1147 385 1162 345L1277 339Q1257 370 1231.5 410.5Q1206 451 1179.5 493.5Q1153 536 1128.5 573.5Q1104 611 1086.5 637.5Q1069 664 1061 671Q1087 679 1111.0 690.0Q1135 701 1157 717Q1158 707 1168.5 676.0Q1179 645 1195.5 601.5Q1212 558 1231.0 509.5Q1250 461 1267.5 416.5Q1285 372 1297 339L1373 335L1376 338L1381 334Q1392 334 1402.0 333.5Q1412 333 1421 332Q1403 358 1375.5 402.5Q1348 447 1316.0 497.5Q1284 548 1254.5 595.5Q1225 643 1203.0 676.0Q1181 709 1173 717Q1199 726 1222.5 737.0Q1246 748 1269 765Q1270 756 1279.5 727.0Q1289 698 1305.0 656.5Q1321 615 1340.0 568.0Q1359 521 1377.5 475.0Q1396 429 1411.0 391.5Q1426 354 1434 332V309Q1425 308 1414.0 308.0Q1403 308 1392 308Q1383 285 1376.0 264.0Q1369 243 1363 223Q1368 223 1373.5 223.0Q1379 223 1384 222Q1383 233 1381.0 239.5Q1379 246 1377 250Q1388 249 1402.5 247.5Q1417 246 1432 246Q1444 246 1455.5 247.0Q1467 248 1477 250Q1473 241 1469 218L1515 216Q1495 251 1478.5 272.0Q1462 293 1454 301Q1480 304 1505.5 311.5Q1531 319 1559 332Q1558 325 1557.5 316.0Q1557 307 1557 293Q1557 269 1560.0 234.5Q1563 200 1571 156Q1585 152 1598.5 149.5Q1612 147 1625 145Q1601 114 1581.0 85.5Q1561 57 1542.0 18.5Q1523 -20 1500 -82L1488 -79Q1494 -52 1499.0 -30.0Q1504 -8 1507 11Q1494 10 1476.0 9.0Q1458 8 1438 7Q1436 -12 1434.0 -28.5Q1432 -45 1431 -56H1423L1415 5Q1391 4 1366.5 3.0Q1342 2 1317 0L1311 -68Q1273 -33 1229 -4Q1202 -6 1184.0 -7.5Q1166 -9 1162 -11Q1164 0 1164.5 11.5Q1165 23 1163 34Q1139 47 1114.5 58.5Q1090 70 1066 80Q1104 105 1143.0 128.5Q1182 152 1228 189Q1201 188 1183.0 186.5Q1165 185 1162 183Q1164 197 1164.5 210.5Q1165 224 1162 238Q1167 236 1198.0 233.5Q1229 231 1272 228Q1290 245 1309.0 264.5Q1328 284 1348 306L1100 296Q1068 210 1053.0 146.0Q1038 82 1032.0 30.5Q1026 -21 1021 -68Q966 -17 903.0 18.0Q840 53 776 80Q813 105 853.5 131.0Q894 157 940.5 195.5Q987 234 1042 293L693 276Q710 175 725.5 84.0Q741 -7 748 -64L727 -68Q716 -33 697.5 20.5Q679 74 657.0 138.5Q635 203 611 271Q551 267 494.0 263.5Q437 260 385 255Q381 180 377.0 89.0Q373 -2 370 -112ZM571 380Q547 447 523.5 507.5Q500 568 479.0 616.5Q458 665 442 694Q427 634 415.5 562.5Q404 491 395 394Q436 390 480.5 387.0Q525 384 571 380ZM1519 153Q1519 159 1519.5 164.5Q1520 170 1520 176Q1525 173 1530.5 170.5Q1536 168 1541 166Q1536 177 1531.0 186.5Q1526 196 1521 205Q1510 204 1496.0 203.0Q1482 202 1466 201Q1465 192 1463.0 181.0Q1461 170 1459 158ZM1393 165Q1392 174 1391.0 182.5Q1390 191 1388 198L1354 196L1347 171Q1353 170 1365.0 168.5Q1377 167 1393 165ZM1412 26Q1411 35 1410.0 44.5Q1409 54 1407 63Q1382 61 1364.5 58.5Q1347 56 1342 54Q1344 68 1344.5 81.0Q1345 94 1342 109Q1347 107 1363.5 104.0Q1380 101 1403 99Q1402 106 1401.0 113.0Q1400 120 1399 127Q1377 125 1362.0 123.0Q1347 121 1342 119Q1344 129 1344.5 139.0Q1345 149 1344 159Q1334 122 1329.0 90.5Q1324 59 1321 31ZM1517 88 1519 137 1455 132 1449 94ZM1509 21Q1514 50 1515 72L1446 67L1440 25Z" />
  </g>
</svg>