<svg xmlns="http://www.w3.org/2000/svg" viewBox="100 -112 1334 893">
  <g transform="translate(0, 669) scale(1, -1)">
    <path fill="black" d="M344 -112Q337 0 330.5 89.0Q324 178 317 250Q232 243 174.5 234.5Q117 226 100 218Q103 247 105.0 276.5Q107 306 107 334Q107 362 105.0 388.5Q103 415 100 438Q119 429 172.5 420.0Q226 411 302 403Q294 473 284.5 528.0Q275 583 263.5 633.0Q252 683 237 736Q288 724 342 724Q396 724 453 736Q451 730 451 728Q502 736 551.0 750.5Q600 765 639 781Q637 772 636.0 760.0Q635 748 635 733Q635 693 641.0 636.0Q647 579 656.5 511.5Q666 444 677 373Q694 372 711.5 371.0Q729 370 746 369Q778 396 817.0 431.0Q856 466 893 506Q876 532 862.5 550.0Q849 568 842 575Q868 583 891.0 594.5Q914 606 938 623Q938 611 947.0 581.5Q956 552 969.0 512.5Q982 473 997.5 431.0Q1013 389 1026 352L1091 349L1092 350L1093 349Q1104 348 1115.0 347.5Q1126 347 1136 347Q1112 383 1084.0 427.0Q1056 471 1029.0 512.5Q1002 554 981.5 584.0Q961 614 953 623Q979 631 1002.0 642.5Q1025 654 1047 671Q1048 659 1060.0 622.0Q1072 585 1090.0 536.0Q1108 487 1127.5 436.0Q1147 385 1162 345L1277 339Q1257 370 1231.5 410.5Q1206 451 1179.5 493.5Q1153 536 1128.5 573.5Q1104 611 1086.5 637.5Q1069 664 1061 671Q1087 679 1111.0 690.0Q1135 701 1157 717Q1158 707 1168.5 676.0Q1179 645 1195.5 601.5Q1212 558 1231.0 509.5Q1250 461 1267.5 416.5Q1285 372 1297 339L1373 335L1376 338L1381 334Q1392 334 1402.0 333.5Q1412 333 1421 332Q1403 358 1375.5 402.5Q1348 447 1316.0 497.5Q1284 548 1254.5 595.5Q1225 643 1203.0 676.0Q1181 709 1173 717Q1199 726 1222.5 737.0Q1246 748 1269 765Q1270 756 1279.5 727.0Q1289 698 1305.0 656.5Q1321 615 1340.0 568.0Q1359 521 1377.5 475.0Q1396 429 1411.0 391.5Q1426 354 1434 332V309Q1425 308 1414.0 308.0Q1403 308 1392 308Q1365 238 1350.0 184.0Q1335 130 1328.0 86.5Q1321 43 1318.0 6.0Q1315 -31 1311 -68Q1256 -17 1193.0 18.0Q1130 53 1066 80Q1106 106 1147.5 132.0Q1189 158 1238.0 197.5Q1287 237 1348 306L1100 296Q1068 210 1053.0 146.0Q1038 82 1032.0 30.5Q1026 -21 1021 -68Q966 -17 903.0 18.0Q840 53 776 80Q799 96 824.0 111.5Q849 127 876 146Q833 187 800.5 219.5Q768 252 739 278L693 276Q710 175 725.5 84.0Q741 -7 748 -64L727 -68Q716 -33 697.5 20.5Q679 74 657.0 138.5Q635 203 611 271Q551 267 494.0 263.5Q437 260 385 255Q381 180 377.0 89.0Q373 -2 370 -112ZM571 380Q547 447 523.5 507.5Q500 568 479.0 616.5Q458 665 442 694Q427 634 415.5 562.5Q404 491 395 394Q436 390 480.5 387.0Q525 384 571 380ZM997 354Q977 384 955.0 416.5Q933 449 912 479Q893 445 876.5 416.5Q860 388 845 363Q884 361 922.0 358.5Q960 356 997 354ZM908 170Q938 193 971.5 223.0Q1005 253 1042 293L842 284Z" />
  </g>
</svg>