<svg xmlns="http://www.w3.org/2000/svg" viewBox="100 -112 1743 893">
  <g transform="translate(0, 669) scale(1, -1)">
    <path fill="black" d="M753 -112 740 68Q640 65 543.5 58.5Q447 52 362.5 43.0Q278 34 210.5 23.5Q143 13 100 1Q105 23 107.5 43.5Q110 64 110 83Q110 102 107.5 120.0Q105 138 100 157Q168 139 266.5 125.5Q365 112 485.5 103.5Q606 95 739 90L726 250Q641 243 583.5 234.5Q526 226 509 218Q509 221 509.5 224.0Q510 227 510 231Q417 231 347.0 221.0Q277 211 218.5 196.0Q160 181 100 165Q105 187 107.5 207.0Q110 227 110 246Q110 265 107.5 283.5Q105 302 100 320Q153 305 198.0 293.0Q243 281 289.0 272.5Q335 264 388.5 259.0Q442 254 512 254Q514 276 515.0 297.0Q516 318 516 338Q516 370 513 400Q420 400 349.5 390.0Q279 380 219.5 365.0Q160 350 100 334Q105 356 107.5 376.0Q110 396 110 415Q110 434 107.5 452.0Q105 470 100 489Q153 474 198.0 462.0Q243 450 289.0 441.0Q335 432 388.5 427.0Q442 422 511 422L509 438Q528 429 581.5 420.0Q635 411 711 403Q699 495 686 565Q563 560 449.0 550.5Q335 541 244.5 528.5Q154 516 100 501Q105 523 107.5 543.0Q110 563 110 582Q110 601 107.5 619.5Q105 638 100 657Q163 640 252.5 627.0Q342 614 451.5 605.0Q561 596 681 591Q674 628 665.5 663.5Q657 699 646 736Q697 724 751 724Q805 724 862 736Q860 730 860 728Q911 736 960.0 750.5Q1009 765 1048 781Q1046 772 1045.0 760.0Q1044 748 1044 733Q1044 693 1050.0 636.0Q1056 579 1065.5 511.5Q1075 444 1086 373Q1166 368 1247.5 363.0Q1329 358 1406 354Q1384 386 1360.5 421.5Q1337 457 1315.0 488.5Q1293 520 1276.0 543.5Q1259 567 1251 575Q1277 583 1300.0 594.5Q1323 606 1347 623Q1347 611 1356.0 581.5Q1365 552 1378.0 512.5Q1391 473 1406.5 431.0Q1422 389 1435 352L1500 349L1501 350L1502 349Q1513 348 1524.0 347.5Q1535 347 1545 347Q1521 383 1493.0 427.0Q1465 471 1438.0 512.5Q1411 554 1390.5 584.0Q1370 614 1362 623Q1388 631 1411.0 642.5Q1434 654 1456 671Q1457 659 1469.0 622.0Q1481 585 1499.0 536.0Q1517 487 1536.5 436.0Q1556 385 1571 345L1686 339Q1666 370 1640.5 410.5Q1615 451 1588.5 493.5Q1562 536 1537.5 573.5Q1513 611 1495.5 637.5Q1478 664 1470 671Q1496 679 1520.0 690.0Q1544 701 1566 717Q1567 707 1577.5 676.0Q1588 645 1604.5 601.5Q1621 558 1640.0 509.5Q1659 461 1676.5 416.5Q1694 372 1706 339L1782 335L1785 338L1790 334Q1801 334 1811.0 333.5Q1821 333 1830 332Q1812 358 1784.5 402.5Q1757 447 1725.0 497.5Q1693 548 1663.5 595.5Q1634 643 1612.0 676.0Q1590 709 1582 717Q1608 726 1631.5 737.0Q1655 748 1678 765Q1679 756 1688.5 727.0Q1698 698 1714.0 656.5Q1730 615 1749.0 568.0Q1768 521 1786.5 475.0Q1805 429 1820.0 391.5Q1835 354 1843 332V309Q1834 308 1823.0 308.0Q1812 308 1801 308Q1774 238 1759.0 184.0Q1744 130 1737.0 86.5Q1730 43 1727.0 6.0Q1724 -31 1720 -68Q1665 -17 1602.0 18.0Q1539 53 1475 80Q1515 106 1556.5 132.0Q1598 158 1647.0 197.5Q1696 237 1757 306L1509 296Q1477 210 1462.0 146.0Q1447 82 1441.0 30.5Q1435 -21 1430 -68Q1375 -17 1312.0 18.0Q1249 53 1185 80Q1222 105 1262.5 131.0Q1303 157 1349.5 195.5Q1396 234 1451 293L1102 276Q1119 175 1134.5 84.0Q1150 -7 1157 -64L1136 -68Q1125 -33 1106.5 20.5Q1088 74 1066.0 138.5Q1044 203 1020 271Q960 267 903.0 263.5Q846 260 794 255Q790 180 786.0 89.0Q782 -2 779 -112ZM980 380Q956 447 932.5 507.5Q909 568 888.0 616.5Q867 665 851 694Q836 634 824.5 562.5Q813 491 804 394Q845 390 889.5 387.0Q934 384 980 380Z" />
  </g>
</svg>