<svg xmlns="http://www.w3.org/2000/svg" viewBox="100 -363 1795 1137">
  <g transform="translate(0, 411) scale(1, -1)">
    <path fill="black" d="M1145 -363Q1055 -310 990.5 -277.5Q926 -245 875.5 -225.0Q825 -205 778.5 -189.5Q732 -174 678 -155L701 -134Q551 -96 442.0 -74.0Q333 -52 251.0 -41.5Q169 -31 100 -30Q130 25 145.0 75.0Q160 125 162 177Q207 149 251.5 123.5Q296 98 347 73Q371 193 386.0 277.0Q401 361 408.5 423.5Q416 486 418.5 540.0Q421 594 421 653Q477 625 527.0 611.5Q577 598 629 597Q601 548 579.0 507.5Q557 467 537.5 425.0Q518 383 497.0 332.5Q476 282 449.5 214.5Q423 147 387 54Q434 32 489.0 9.0Q544 -14 613 -41Q608 -4 602.0 47.5Q596 99 589.0 153.5Q582 208 575.5 256.5Q569 305 563.5 338.5Q558 372 554 380Q582 375 629 375Q667 375 694 380Q690 372 684.0 337.0Q678 302 671.0 251.5Q664 201 656.5 145.0Q649 89 643.0 38.0Q637 -13 633 -49Q657 -59 684.0 -69.0Q711 -79 739 -90Q778 -40 808 13Q803 168 796.0 285.0Q789 402 779.0 490.5Q769 579 757.0 648.0Q745 717 729 774Q759 767 787.5 764.0Q816 761 842 761Q896 761 945 774Q930 721 918.5 669.0Q907 617 897.5 558.5Q888 500 880.0 428.0Q872 356 864.0 265.0Q856 174 848 55Q875 7 901.5 -35.5Q928 -78 961.5 -122.0Q995 -166 1043.0 -219.5Q1091 -273 1161 -343ZM1762 -104 1758 7Q1616 3 1512.5 -2.5Q1409 -8 1333.0 -15.0Q1257 -22 1200.0 -30.5Q1143 -39 1094.5 -50.0Q1046 -61 997 -75Q1009 -13 1009 38Q1009 56 1008.0 74.0Q1007 92 1004 109Q998 107 997 107L1001 125L997 142Q1001 140 1003 140Q1007 161 1008.5 180.5Q1010 200 1010 219Q1010 255 1004 289Q998 287 997 287L1000 306L997 322L1003 320Q1006 342 1008.0 362.5Q1010 383 1010 402Q1010 436 1004 470Q998 468 997 468L1000 487L997 503L1003 501Q1009 543 1009 580Q1009 633 997 684Q1054 668 1101.5 656.0Q1149 644 1201.0 634.0Q1253 624 1320.5 615.5Q1388 607 1484.5 598.5Q1581 590 1718 581Q1710 638 1700.0 685.0Q1690 732 1679 774Q1709 767 1737.5 764.0Q1766 761 1792 761Q1846 761 1895 774Q1879 715 1866.0 656.0Q1853 597 1843.0 528.5Q1833 460 1824.0 372.5Q1815 285 1806.5 168.5Q1798 52 1788 -104ZM1738 399Q1734 441 1730.5 478.0Q1727 515 1722 549Q1603 545 1513.0 540.5Q1423 536 1353 530Q1362 512 1380.0 483.5Q1398 455 1420 423Q1482 417 1559.5 411.5Q1637 406 1738 399ZM1305 436Q1274 455 1262 460Q1277 471 1298.0 490.0Q1319 509 1335 528Q1245 520 1181.5 509.5Q1118 499 1062 485Q1119 469 1174.0 457.5Q1229 446 1305 436ZM1749 217 1740 369Q1670 367 1610.0 364.0Q1550 361 1499 359Q1511 337 1532.0 304.5Q1553 272 1586 229ZM1315 254Q1311 277 1307.0 293.0Q1303 309 1300 316Q1328 311 1367 311Q1376 311 1385.0 311.5Q1394 312 1402 313L1393 317Q1401 323 1412.0 331.5Q1423 340 1433 350L1426 354Q1339 349 1274.5 341.5Q1210 334 1159.5 324.5Q1109 315 1062 304Q1121 288 1178.0 276.5Q1235 265 1315 254ZM1530 233Q1485 266 1459.0 282.5Q1433 299 1416 307Q1413 297 1410.0 280.5Q1407 264 1403 244Q1431 241 1462.5 238.5Q1494 236 1530 233ZM1757 36 1751 188 1621 183 1633 169 1626 162 1598 182Q1537 180 1485.0 177.0Q1433 174 1389 171Q1385 145 1381.0 118.0Q1377 91 1373 67Q1443 60 1536.0 52.0Q1629 44 1757 36ZM1345 70 1330 166Q1242 159 1180.0 148.5Q1118 138 1062 124Q1105 113 1146.5 103.5Q1188 94 1235.5 86.0Q1283 78 1345 70Z" />
  </g>
</svg>