<svg xmlns="http://www.w3.org/2000/svg" viewBox="100 -266 1544 1190">
  <g transform="translate(0, 658) scale(1, -1)">
    <path fill="black" d="M845 -266Q829 -216 801.5 -172.0Q774 -128 730 -84Q767 -73 818.5 -55.0Q870 -37 931 -12Q862 58 790.0 126.0Q718 194 648 256Q644 256 639.5 255.5Q635 255 630 255Q560 165 505.0 86.5Q450 8 420 -54Q390 -10 351.5 24.0Q313 58 259 89Q295 113 347.5 152.0Q400 191 462 242Q367 235 290.5 227.5Q214 220 164.0 213.0Q114 206 100 199Q103 228 105.0 263.5Q107 299 107 335Q107 370 105.0 403.0Q103 436 100 459Q117 451 168.5 442.5Q220 434 297.5 425.5Q375 417 470 409Q337 517 259 569Q313 600 351.5 634.5Q390 669 420 712Q450 649 506.5 568.5Q563 488 636 396Q638 396 639.0 395.5Q640 395 641 395Q712 458 786.0 527.5Q860 597 930 668Q869 694 818.0 712.5Q767 731 730 742Q774 786 801.5 830.0Q829 874 845 924Q896 867 981.5 799.0Q1067 731 1174.5 655.0Q1282 579 1402.5 498.0Q1523 417 1644 336L1642 335H1644V308Q1523 227 1402.5 148.5Q1282 70 1174.5 -3.5Q1067 -77 981.5 -143.0Q896 -209 845 -266ZM1597 337Q1488 401 1376.0 459.0Q1264 517 1158.5 567.0Q1053 617 961 655L853 526Q865 525 876.5 523.5Q888 522 901 522Q929 522 960 528Q953 511 946.5 469.5Q940 428 935 375L976 372Q967 443 954 478Q983 472 1011 472Q1039 472 1070 478Q1064 464 1059.0 435.0Q1054 406 1049 368L1098 365Q1089 439 1074 478Q1103 472 1131 472Q1159 472 1190 478Q1183 462 1177.5 431.0Q1172 400 1167 361L1222 358Q1211 433 1194 478Q1223 472 1251 472Q1279 472 1310 478Q1302 459 1295.0 426.5Q1288 394 1283 354ZM870 379Q866 424 860.0 460.5Q854 497 847 519Q819 486 791.5 453.0Q764 420 738 388ZM1263 133Q1345 172 1428.5 216.0Q1512 260 1593 306Q1539 305 1458.0 301.0Q1377 297 1276 292Q1272 252 1268.5 211.5Q1265 171 1263 133ZM1144 78Q1170 89 1196.5 101.0Q1223 113 1249 126Q1245 166 1240.5 208.0Q1236 250 1231 290L1159 286Q1154 232 1150.0 177.0Q1146 122 1144 78ZM1023 25Q1074 46 1128 70Q1123 117 1118.0 172.5Q1113 228 1108 283Q1091 282 1074.0 281.5Q1057 281 1040 279Q1034 212 1029.5 143.5Q1025 75 1023 25ZM963 0Q974 5 985.5 10.0Q997 15 1009 19Q1004 70 998.5 139.5Q993 209 987 276L927 273Q923 214 919.5 157.5Q916 101 914 58Q939 31 963 0ZM895 81Q891 122 888.0 171.0Q885 220 880 270Q846 269 812.0 266.5Q778 264 744 262Q780 218 818.0 172.5Q856 127 895 81Z" />
  </g>
</svg>