<svg xmlns="http://www.w3.org/2000/svg" viewBox="100 -369 2028 1231">
  <g transform="translate(0, 493) scale(1, -1)">
    <path fill="black" d="M1245 -369 1223 -368 1220 -310Q1153 -317 1087.0 -321.0Q1021 -325 954 -332Q893 -338 832.0 -342.5Q771 -347 710 -360Q712 -342 715.0 -324.5Q718 -307 718 -289Q718 -272 716.0 -255.0Q714 -238 710 -221Q732 -226 753.5 -229.5Q775 -233 797 -236Q815 -238 832.5 -239.5Q850 -241 868 -243Q863 -151 859.0 -59.0Q855 33 849 125Q844 205 838.5 285.0Q833 365 825 445Q824 447 823.0 447.5Q822 448 821 449Q786 405 748.0 360.0Q710 315 677 271Q644 226 610.5 181.5Q577 137 556 92Q546 104 532.0 120.0Q518 136 504 148Q472 176 438 195L451 202Q407 219 362.0 236.0Q317 253 273 266Q230 280 187.0 292.0Q144 304 100 310Q129 344 148 378Q157 395 164.0 413.0Q171 431 177 447Q211 410 251.5 382.5Q292 355 332 327Q370 300 411.5 276.0Q453 252 491 227Q523 250 555.5 275.0Q588 300 620 327Q656 357 693.5 390.5Q731 424 765 454Q721 449 677.0 445.0Q633 441 589 435Q548 430 506.5 425.0Q465 420 424 409Q426 425 428.5 444.5Q431 464 431 480Q431 500 430.0 514.5Q429 529 424 548Q466 536 508.0 530.5Q550 525 592 519Q636 513 679.5 508.5Q723 504 766 499Q736 525 705.5 552.5Q675 580 645 605Q604 639 562.0 672.5Q520 706 479 734Q444 712 404.0 686.5Q364 661 329 636Q288 608 247.0 577.5Q206 547 177 514Q172 531 164.0 550.0Q156 569 146 585Q136 603 126.0 618.0Q116 633 100 651Q149 658 197.5 673.5Q246 689 295 705Q333 718 371.5 733.5Q410 749 448 765Q462 774 477.5 784.5Q493 795 507 808Q520 819 533.5 835.0Q547 851 556 862Q576 815 614.5 765.0Q653 715 688 668Q719 627 753.0 587.0Q787 547 818 508Q815 529 812.5 550.5Q810 572 806 593Q802 614 798.0 634.5Q794 655 789 676Q812 670 834.0 666.5Q856 663 879 663Q900 663 923.0 664.0Q946 665 967 669Q982 692 992.5 713.0Q1003 734 1012 757Q1020 778 1025.0 800.5Q1030 823 1034 844Q1161 765 1292.5 707.5Q1424 650 1554 593Q1697 530 1841.0 471.0Q1985 412 2128 350V325Q2025 280 1923.0 236.5Q1821 193 1718 143Q1617 94 1515.5 43.5Q1414 -7 1314 -77Q1311 -60 1305.5 -38.0Q1300 -16 1295 1Q1290 18 1283.5 30.5Q1277 43 1270 59Q1267 12 1263.5 -36.5Q1260 -85 1257 -132Q1255 -169 1253.0 -204.0Q1251 -239 1249 -276L1337 -285V-298L1248 -307ZM957 -252Q959 -235 961.0 -218.5Q963 -202 963 -186Q963 -169 961.0 -151.5Q959 -134 956 -117Q991 -130 1026.0 -139.0Q1061 -148 1095 -156Q1124 -163 1154.0 -167.5Q1184 -172 1213 -177L1206 -38Q1180 -42 1153.5 -46.0Q1127 -50 1101 -56Q1065 -64 1028.5 -73.0Q992 -82 956 -95Q958 -78 960.5 -60.0Q963 -42 963 -26Q963 -8 961.0 9.0Q959 26 956 44Q991 31 1025.0 22.0Q1059 13 1093 5Q1121 -2 1148.5 -6.0Q1176 -10 1204 -15L1195 121Q1169 117 1142.0 112.5Q1115 108 1089 102Q1056 95 1022.5 86.0Q989 77 956 66Q958 82 960.5 99.0Q963 116 963 132Q963 169 956 205Q985 195 1014.0 186.5Q1043 178 1071 171Q1102 164 1132.0 158.0Q1162 152 1193 147L1181 280Q1155 275 1128.5 270.5Q1102 266 1076 260Q1046 253 1016.0 245.5Q986 238 956 227Q959 244 961.0 262.0Q963 280 963 297Q963 314 961.5 331.5Q960 349 956 366Q983 356 1009.5 348.5Q1036 341 1063 334Q1092 327 1120.5 321.5Q1149 316 1177 311Q1173 337 1169.5 364.0Q1166 391 1161 417Q1157 441 1151.5 464.5Q1146 488 1141 512Q1189 499 1239 499Q1263 499 1286.5 501.5Q1310 504 1334 508Q1318 453 1309.5 398.5Q1301 344 1293 289Q1286 243 1282.0 198.0Q1278 153 1274 107Q1375 121 1476.0 149.0Q1577 177 1678 207Q1781 238 1884.0 272.0Q1987 306 2090 337Q1945 381 1801.0 429.0Q1657 477 1512 520Q1379 560 1246.0 600.0Q1113 640 979 662Q954 556 944.0 450.0Q934 344 924 237Q913 116 908.5 -4.5Q904 -125 896 -246ZM422 -306 405 -166Q388 -168 371.0 -170.0Q354 -172 337 -176Q315 -180 292.0 -183.5Q269 -187 246 -195Q248 -179 250.5 -160.0Q253 -141 253 -125Q253 -108 252.0 -94.5Q251 -81 248 -64L246 -65L247 -59L246 -56H247Q249 -43 251.0 -26.0Q253 -9 253 4Q253 24 252.0 39.5Q251 55 246 74Q263 68 279.0 65.0Q295 62 311 58Q328 54 345.0 51.5Q362 49 379 47Q378 60 376.0 71.5Q374 83 372 96Q370 110 367.0 124.0Q364 138 360 151Q378 148 395.5 145.5Q413 143 431 143Q448 143 465.0 145.0Q482 147 499 151Q494 136 491.0 120.5Q488 105 485 90Q482 76 480.0 61.5Q478 47 476 33Q498 30 520.0 27.0Q542 24 564 21Q589 17 613.5 15.0Q638 13 663 10V-3L467 -27L459 -95L663 -120V-133L451 -160L435 -306ZM396 -85 390 -38Q374 -40 359.0 -42.0Q344 -44 328 -47Q311 -50 293.5 -53.0Q276 -56 259 -60Q278 -65 294.5 -68.0Q311 -71 330 -75Q346 -78 363.0 -80.5Q380 -83 396 -85ZM1218 -274 1214 -198Q1184 -203 1153.0 -208.0Q1122 -213 1092 -219Q1060 -226 1028.0 -234.0Q996 -242 964 -252Z" />
  </g>
</svg>