<svg xmlns="http://www.w3.org/2000/svg" viewBox="100 -112 645 848">
  <g transform="translate(0, 624) scale(1, -1)">
    <path fill="black" d="M624 -112Q624 -56 622.5 -3.0Q621 50 619 99Q450 81 323.0 58.0Q196 35 100 -4Q105 22 107.5 51.0Q110 80 110 111Q110 140 107.5 170.5Q105 201 100 231Q153 209 232.0 188.0Q311 167 409.5 151.0Q508 135 618 128Q613 232 603.5 320.5Q594 409 582 484Q426 467 308.5 444.5Q191 422 100 385Q105 411 107.5 440.0Q110 469 110 500Q110 529 107.5 559.5Q105 590 100 620Q175 589 300.0 560.5Q425 532 576 520Q566 585 553.5 638.5Q541 692 529 736Q580 724 634 724Q688 724 745 736Q722 653 700.0 533.5Q678 414 664.0 254.0Q650 94 650 -112Z" />
  </g>
</svg>