<svg xmlns="http://www.w3.org/2000/svg" viewBox="100 -112 648 848">
  <g transform="translate(0, 624) scale(1, -1)">
    <path fill="black" d="M624 -112Q624 -56 622.5 -3.0Q621 50 619 99Q450 81 323.0 58.0Q196 35 100 -4Q105 22 107.5 51.0Q110 80 110 111Q110 140 107.5 170.5Q105 201 100 231Q153 209 232.0 188.0Q311 167 409.5 151.0Q508 135 618 128Q617 138 616.5 147.0Q616 156 616 165L509 255Q496 240 488.5 229.0Q481 218 479 214Q466 234 450.0 249.0Q434 264 417 276L425 280Q378 274 327.5 267.5Q277 261 232.0 254.0Q187 247 155.0 241.0Q123 235 113 231Q118 248 119.5 268.0Q121 288 121 308Q121 325 120.0 340.0Q119 355 117 368Q127 363 157.5 357.5Q188 352 231.5 346.0Q275 340 324.0 334.5Q373 329 419 323L417 324Q434 336 450.0 351.0Q466 366 479 386Q482 378 509 344Q529 360 550.0 377.5Q571 395 592 413Q590 432 587.5 450.0Q585 468 582 484Q426 467 308.5 444.5Q191 422 100 385Q105 411 107.5 440.0Q110 469 110 500Q110 529 107.5 559.5Q105 590 100 620Q176 589 300.5 560.5Q425 532 576 520Q566 585 553.5 638.5Q541 692 529 736Q580 724 634 724Q688 724 745 736Q732 688 718.5 629.0Q705 570 694 499L738 537L748 528Q738 518 722.0 500.0Q706 482 688 461Q669 334 658 167Q682 139 702.0 116.5Q722 94 734 81L724 72Q713 81 695.0 96.5Q677 112 656 130Q650 18 650 -112ZM612 220Q609 258 606.0 292.5Q603 327 599 360Q586 346 574.0 332.5Q562 319 551 305H553V294H550Q564 277 580.0 258.0Q596 239 612 220Z" />
  </g>
</svg>