<svg xmlns="http://www.w3.org/2000/svg" viewBox="100 -179 1183 1381">
  <g transform="translate(0, 1023) scale(1, -1)">
    <path fill="black" d="M624 -179Q589 -155 552.0 -140.5Q515 -126 478 -121L505 -82Q466 -47 419.0 -6.5Q372 34 326.0 72.0Q280 110 242.5 137.5Q205 165 184 174Q208 191 226.0 208.5Q244 226 260 246Q233 230 210.5 215.5Q188 201 170 187Q159 264 112 333Q164 338 253.5 361.5Q343 385 460.0 422.5Q577 460 711 508Q575 557 455.0 596.0Q335 635 243.5 659.5Q152 684 100 690Q125 725 139.0 762.0Q153 799 158 836Q175 822 197 808Q232 847 272.5 894.0Q313 941 351.0 987.0Q389 1033 416.5 1070.5Q444 1108 453 1129Q485 1083 525 1053Q509 1079 494.5 1102.0Q480 1125 466 1143Q543 1154 612 1202Q618 1150 641.5 1059.5Q665 969 703.0 851.0Q741 733 789 598Q815 613 844.5 631.5Q874 650 911.5 678.5Q949 707 1000.0 750.5Q1051 794 1120 859Q1083 858 1060.0 857.5Q1037 857 1019.0 855.5Q1001 854 979 849Q982 867 984.0 885.5Q986 904 988.5 931.0Q991 958 993 1001L1007 1004Q1014 975 1021.0 952.0Q1028 929 1035 905Q1058 898 1082.0 890.5Q1106 883 1135 876L1134 869L1146 858L1144 856L1153 858Q1160 829 1167.0 806.0Q1174 783 1181 759Q1204 753 1227.5 745.5Q1251 738 1280 731L1278 715Q1236 713 1211.0 712.5Q1186 712 1167.5 710.0Q1149 708 1125 703Q1127 721 1129.0 738.5Q1131 756 1133.0 782.0Q1135 808 1137 848Q1070 772 1027.0 719.0Q984 666 958.0 629.0Q932 592 916.0 564.0Q900 536 886 509Q905 476 933.0 435.5Q961 395 1009.5 337.0Q1058 279 1138 193Q1137 230 1136.5 253.0Q1136 276 1134.5 294.0Q1133 312 1128 335Q1146 332 1164.5 329.5Q1183 327 1210.0 324.5Q1237 322 1280 320L1283 306Q1254 299 1231.5 292.5Q1209 286 1184 279Q1177 255 1169.5 231.0Q1162 207 1155 178L1148 179L1138 167Q1137 167 1135 169L1138 160Q1108 154 1085.0 146.5Q1062 139 1038 133Q1032 110 1024.5 86.5Q1017 63 1010 33L994 35Q992 77 991.5 102.0Q991 127 989.5 146.0Q988 165 982 189Q1000 187 1018.0 184.5Q1036 182 1062.0 179.5Q1088 177 1128 175Q1056 238 1005.0 279.5Q954 321 917.5 347.5Q881 374 853.5 390.5Q826 407 801 420Q753 287 715.0 169.5Q677 52 653.0 -38.0Q629 -128 624 -179ZM582 950Q569 975 556.5 997.0Q544 1019 533 1039L510 1026Q527 1002 544.5 984.0Q562 966 582 950ZM291 752Q323 788 356.5 827.5Q390 867 420.0 904.5Q450 942 472.5 973.0Q495 1004 505 1023Q467 1000 417.0 961.0Q367 922 315.0 878.0Q263 834 217 795Q234 785 252.5 774.0Q271 763 291 752ZM755 524H756Q745 534 734.0 542.0Q723 550 713 557L761 583Q713 687 669.5 776.5Q626 866 588 939Q558 926 513.5 893.0Q469 860 418.0 818.5Q367 777 319 736Q403 690 514.0 636.5Q625 583 755 524ZM577 39Q619 117 667.5 217.0Q716 317 770 435Q756 443 740.0 451.5Q724 460 706 470Q710 472 712 474Q613 428 528.0 387.0Q443 346 373 309Q387 280 419.5 235.0Q452 190 494.0 139.0Q536 88 577 39ZM287 230Q311 247 329.0 265.5Q347 284 363 304L274 254Q276 249 279.5 243.0Q283 237 287 230ZM518 -62Q528 -45 539.0 -26.5Q550 -8 561 12Q525 44 486.0 77.5Q447 111 409.5 141.0Q372 171 341.0 193.0Q310 215 290 225Q314 187 353.0 137.5Q392 88 436.0 36.0Q480 -16 518 -62Z" />
  </g>
</svg>