<svg xmlns="http://www.w3.org/2000/svg" viewBox="100 -206 1479 1004">
  <g transform="translate(0, 592) scale(1, -1)">
    <path fill="black" d="M630 -206Q624 -161 616.5 -93.5Q609 -26 601 41Q443 25 330.0 -0.5Q217 -26 153 -52Q158 -26 160.5 2.0Q163 30 163 60Q163 92 160 125Q152 185 141.0 245.0Q130 305 119.5 352.5Q109 400 100 423Q113 421 126.5 419.0Q140 417 153 416Q158 442 160.5 470.5Q163 499 163 530Q163 559 160.5 589.5Q158 620 153 650Q194 633 270.0 615.0Q346 597 450.5 582.5Q555 568 682.0 558.5Q809 549 952 549Q992 583 1032.5 619.0Q1073 655 1110 689L1099 695Q1134 715 1161.5 739.0Q1189 763 1217 798Q1226 774 1255.5 731.0Q1285 688 1327.0 634.0Q1369 580 1415.0 523.0Q1461 466 1504.5 414.0Q1548 362 1579 323Q1548 284 1504.5 232.0Q1461 180 1415.0 123.0Q1369 66 1327.0 12.0Q1285 -42 1255.5 -85.0Q1226 -128 1217 -152Q1189 -117 1161.5 -92.5Q1134 -68 1099 -49L1111 -42Q1084 -17 1055.0 9.0Q1026 35 997 60Q908 59 826.5 56.0Q745 53 672 47Q663 -23 655.5 -92.5Q648 -162 643 -206ZM1144 -22Q1158 -11 1174 -1Q1168 58 1161.5 125.0Q1155 192 1148.5 254.5Q1142 317 1136.0 362.0Q1130 407 1124 421Q1143 418 1161.5 415.5Q1180 413 1199 413Q1215 413 1231.0 415.0Q1247 417 1263 421Q1258 408 1251.5 367.0Q1245 326 1238.5 269.0Q1232 212 1225.5 148.5Q1219 85 1213 28Q1267 70 1327.5 122.5Q1388 175 1446.0 228.0Q1504 281 1548 323Q1507 362 1454.0 410.5Q1401 459 1345.0 507.5Q1289 556 1236.5 598.5Q1184 641 1143 668Q1107 625 1068.0 577.0Q1029 529 992.0 482.5Q955 436 925.5 395.0Q896 354 878 324Q896 294 926.0 252.5Q956 211 993.0 164.0Q1030 117 1069.0 69.5Q1108 22 1144 -22ZM967 86Q900 143 840.0 189.5Q780 236 743 254Q792 281 833 324Q812 346 790.5 362.5Q769 379 743 394Q774 409 822.0 444.5Q870 480 925 526Q727 523 577.5 506.0Q428 489 323.0 465.0Q218 441 155 416Q160 416 165.0 415.5Q170 415 175 415Q191 415 207.0 417.0Q223 419 239 423Q231 404 221.0 364.0Q211 324 201.0 274.0Q191 224 183 172Q243 153 347.5 134.0Q452 115 594 103Q587 157 580.5 198.5Q574 240 568 255Q587 252 605.5 249.5Q624 247 643 247Q659 247 675.0 249.0Q691 251 707 255Q701 241 693.5 197.0Q686 153 678 97Q745 93 817.0 90.0Q889 87 967 86Z" />
  </g>
</svg>