<svg xmlns="http://www.w3.org/2000/svg" viewBox="100 -224 1509 1022">
  <g transform="translate(0, 574) scale(1, -1)">
    <path fill="black" d="M1181 -224Q1176 -189 1168.5 -147.5Q1161 -106 1153 -63Q1147 -59 1141.0 -55.5Q1135 -52 1129 -49L1141 -42Q1114 -17 1085.0 9.0Q1056 35 1027 60Q939 59 857.5 56.0Q776 53 702 47Q693 -23 685.5 -92.5Q678 -162 673 -206H660Q654 -161 646.5 -93.5Q639 -26 631 41Q462 25 340.0 -0.5Q218 -26 153 -52Q158 -26 160.5 2.0Q163 30 163 60Q163 92 160 125Q152 185 141.0 245.0Q130 305 119.5 352.5Q109 400 100 423Q113 421 126.5 419.0Q140 417 153 416Q158 442 160.5 470.5Q163 499 163 530Q163 559 160.5 589.5Q158 620 153 650Q194 633 274.0 615.0Q354 597 464.5 582.5Q575 568 706.5 558.5Q838 549 982 549Q1022 583 1062.5 619.0Q1103 655 1140 689L1129 695Q1164 715 1191.5 739.0Q1219 763 1247 798Q1256 774 1285.5 731.0Q1315 688 1357.0 634.0Q1399 580 1445.0 523.0Q1491 466 1534.5 414.0Q1578 362 1609 323Q1578 284 1534.5 232.0Q1491 180 1445.0 123.0Q1399 66 1357.0 12.0Q1315 -42 1285.5 -85.0Q1256 -128 1247 -152Q1237 -140 1228.0 -129.0Q1219 -118 1209 -109Q1205 -140 1200.5 -169.5Q1196 -199 1194 -224ZM1228 17Q1269 48 1315.5 87.0Q1362 126 1409.0 168.0Q1456 210 1499.5 250.0Q1543 290 1578 323Q1537 362 1484.0 410.5Q1431 459 1375.0 507.5Q1319 556 1266.5 598.5Q1214 641 1173 668Q1137 625 1098.0 577.0Q1059 529 1022.0 482.5Q985 436 955.5 395.0Q926 354 908 324Q931 285 974.0 228.0Q1017 171 1066 109Q1060 138 1050.5 162.5Q1041 187 1028 209Q1037 209 1050.0 210.0Q1063 211 1078 214Q1075 253 1070.0 294.5Q1065 336 1059.5 369.5Q1054 403 1047 416Q1058 415 1069.5 414.5Q1081 414 1091 414Q1102 414 1112.0 414.5Q1122 415 1131 416Q1097 423 1070.5 427.0Q1044 431 1028 431Q1042 454 1051.5 478.5Q1061 503 1067 534Q1080 522 1114.5 503.5Q1149 485 1196.0 462.0Q1243 439 1296.5 415.0Q1350 391 1403.0 368.5Q1456 346 1500 329L1501 330L1520 322Q1479 307 1427.5 285.0Q1376 263 1321.5 238.5Q1267 214 1217.5 190.0Q1168 166 1131 146Q1157 143 1185 143Q1204 143 1223.0 145.0Q1242 147 1258 151Q1251 136 1243.5 100.0Q1236 64 1228 17ZM997 86Q930 143 870.0 189.5Q810 236 773 254Q822 281 863 324Q842 346 820.5 362.5Q799 379 773 394Q804 409 852.0 444.5Q900 480 955 526Q655 521 452.5 487.5Q250 454 155 416Q160 416 165.0 415.5Q170 415 175 415Q191 415 207.0 417.0Q223 419 239 423Q231 404 221.0 364.0Q211 324 201.0 274.0Q191 224 183 172Q245 152 359.0 133.5Q473 115 624 102Q617 157 610.5 198.5Q604 240 598 255Q617 252 635.5 249.5Q654 247 673 247Q689 247 705.0 249.0Q721 251 737 255Q731 241 723.5 197.0Q716 153 708 96Q776 92 848.5 89.5Q921 87 997 86ZM1099 218Q1138 226 1186.0 238.0Q1234 250 1286.0 264.5Q1338 279 1388.0 294.5Q1438 310 1479 323Q1430 338 1368.5 355.5Q1307 373 1245.5 389.0Q1184 405 1132 416Q1125 401 1119.0 368.0Q1113 335 1108.0 295.5Q1103 256 1099 218ZM1133 27Q1118 93 1105 132Q1093 125 1083.0 118.5Q1073 112 1068 107Q1099 68 1133 27Z" />
  </g>
</svg>