<svg xmlns="http://www.w3.org/2000/svg" viewBox="100 -224 1509 1022">
  <g transform="translate(0, 574) scale(1, -1)">
    <path fill="black" d="M1301 -224Q1297 -195 1291.5 -161.5Q1286 -128 1279 -94Q1255 -130 1247 -152Q1219 -117 1191.5 -92.5Q1164 -68 1129 -49L1141 -42Q1114 -17 1085.0 9.0Q1056 35 1027 60Q939 59 857.5 56.0Q776 53 702 47Q693 -23 685.5 -92.5Q678 -162 673 -206H660Q654 -161 646.5 -93.5Q639 -26 631 41Q462 25 340.0 -0.5Q218 -26 153 -52Q158 -26 160.5 2.0Q163 30 163 60Q163 92 160 125Q152 185 141.0 245.0Q130 305 119.5 352.5Q109 400 100 423Q113 421 126.5 419.0Q140 417 153 416Q158 442 160.5 470.5Q163 499 163 530Q163 559 160.5 589.5Q158 620 153 650Q194 633 274.0 615.0Q354 597 464.5 582.5Q575 568 706.5 558.5Q838 549 982 549Q1022 583 1062.5 619.0Q1103 655 1140 689L1129 695Q1164 715 1191.5 739.0Q1219 763 1247 798Q1256 774 1285.5 731.0Q1315 688 1357.0 634.0Q1399 580 1445.0 523.0Q1491 466 1534.5 414.0Q1578 362 1609 323Q1576 282 1530.0 226.5Q1484 171 1435.5 111.0Q1387 51 1345 -3Q1335 -59 1327.0 -119.0Q1319 -179 1314 -224ZM1174 -22Q1191 -10 1210.5 4.5Q1230 19 1251 35Q1241 75 1232.5 106.0Q1224 137 1219 151Q1238 148 1260.0 145.5Q1282 143 1305 143Q1343 143 1378 151Q1374 144 1373 136Q1429 185 1482.5 234.0Q1536 283 1578 323Q1537 362 1484.0 410.5Q1431 459 1375.0 507.5Q1319 556 1266.5 598.5Q1214 641 1173 668Q1137 625 1098.0 577.0Q1059 529 1022.0 482.5Q985 436 955.5 395.0Q926 354 908 324Q931 285 974.0 228.0Q1017 171 1066 109Q1060 138 1050.5 162.5Q1041 187 1028 209Q1037 209 1050.0 210.0Q1063 211 1078 214Q1075 253 1070.0 294.5Q1065 336 1059.5 369.5Q1054 403 1047 416Q1058 415 1069.5 414.5Q1081 414 1091 414Q1102 414 1112.0 414.5Q1122 415 1131 416Q1097 423 1070.5 427.0Q1044 431 1028 431Q1042 454 1051.5 478.5Q1061 503 1067 534Q1080 522 1114.5 503.5Q1149 485 1196.0 462.0Q1243 439 1296.5 415.0Q1350 391 1403.0 368.5Q1456 346 1500 329L1501 330L1520 322Q1477 306 1423.5 283.5Q1370 261 1313.5 235.5Q1257 210 1206.5 185.5Q1156 161 1119.0 140.5Q1082 120 1068 107Q1094 73 1121.5 40.5Q1149 8 1174 -22ZM997 86Q930 143 870.0 189.5Q810 236 773 254Q822 281 863 324Q842 346 820.5 362.5Q799 379 773 394Q804 409 852.0 444.5Q900 480 955 526Q655 521 452.5 487.5Q250 454 155 416Q160 416 165.0 415.5Q170 415 175 415Q191 415 207.0 417.0Q223 419 239 423Q231 404 221.0 364.0Q211 324 201.0 274.0Q191 224 183 172Q245 152 359.0 133.5Q473 115 624 102Q617 157 610.5 198.5Q604 240 598 255Q617 252 635.5 249.5Q654 247 673 247Q689 247 705.0 249.0Q721 251 737 255Q731 241 723.5 197.0Q716 153 708 96Q776 92 848.5 89.5Q921 87 997 86ZM1194 382 1188 397Q1203 393 1217 393H1226Q1201 400 1177.0 406.0Q1153 412 1132 416Q1128 410 1125 397Q1137 393 1155.0 389.0Q1173 385 1194 382ZM1226 248Q1291 265 1358.5 285.5Q1426 306 1479 323Q1430 338 1368.5 355.0Q1307 372 1245 388Q1236 363 1232.0 329.0Q1228 295 1226 248ZM1119 361Q1120 364 1120.0 367.5Q1120 371 1120 374L1117 362Q1119 362 1119 361ZM1190 343 1202 354 1198 368Q1180 365 1163.5 362.0Q1147 359 1135 356Q1146 352 1160.0 349.0Q1174 346 1190 343ZM1099 218Q1124 223 1153.5 230.0Q1183 237 1215 245V255Q1183 251 1156.0 245.5Q1129 240 1117 235Q1120 247 1120 259Q1120 263 1120.0 266.5Q1120 270 1119 274L1117 273Q1117 275 1117.5 276.5Q1118 278 1118 279Q1118 281 1117.5 282.5Q1117 284 1117 286Q1118 285 1119 285Q1119 288 1119.5 291.0Q1120 294 1120 298Q1120 302 1119.5 305.0Q1119 308 1119 312L1117 311Q1117 313 1117.5 314.5Q1118 316 1118 317Q1118 319 1117.5 320.5Q1117 322 1117 324Q1118 323 1119 323Q1119 326 1119.5 329.5Q1120 333 1120 337Q1120 341 1119.5 344.0Q1119 347 1119 351L1117 350Q1117 352 1117.5 353.5Q1118 355 1118 356Q1118 359 1117 361Q1112 330 1107.5 292.0Q1103 254 1099 218ZM1238 292Q1241 306 1241 319Q1241 331 1238 344Q1250 338 1281.0 331.0Q1312 324 1345 320V316Q1310 311 1280.5 304.5Q1251 298 1238 292ZM1204 341V344L1202 342ZM1210 302Q1209 310 1208.5 317.0Q1208 324 1206 331Q1203 331 1195 329L1189 317L1195 305ZM1169 309 1158 317 1167 324Q1158 323 1150.5 321.0Q1143 319 1136 317Q1143 316 1151.5 313.5Q1160 311 1169 309ZM1214 264 1211 293Q1208 292 1203 292L1209 282L1204 277L1190 290L1137 279Q1152 275 1172.5 270.5Q1193 266 1214 264Z" />
  </g>
</svg>