<svg xmlns="http://www.w3.org/2000/svg" viewBox="100 -254 1479 1052">
  <g transform="translate(0, 544) scale(1, -1)">
    <path fill="black" d="M1172 -254Q1172 -208 1167.5 -166.0Q1163 -124 1155 -87Q1130 -66 1099 -49L1111 -42Q1084 -17 1055.0 9.0Q1026 35 997 60Q908 59 826.5 56.0Q745 53 672 47Q663 -23 655.5 -92.5Q648 -162 643 -206H630Q624 -161 616.5 -93.5Q609 -26 601 41Q443 25 330.0 -0.5Q217 -26 153 -52Q158 -26 160.5 2.0Q163 30 163 60Q163 92 160 125Q152 185 141.0 245.0Q130 305 119.5 352.5Q109 400 100 423Q113 421 126.5 419.0Q140 417 153 416Q158 442 160.5 470.5Q163 499 163 530Q163 559 160.5 589.5Q158 620 153 650Q194 633 270.0 615.0Q346 597 450.5 582.5Q555 568 682.0 558.5Q809 549 952 549Q992 583 1032.5 619.0Q1073 655 1110 689L1099 695Q1134 715 1161.5 739.0Q1189 763 1217 798Q1227 773 1259.0 726.0Q1291 679 1336.5 621.0Q1382 563 1430 504L1449 502Q1445 519 1441.0 534.5Q1437 550 1432 564Q1446 561 1460.5 560.0Q1475 559 1491 559Q1507 559 1523.0 560.0Q1539 561 1557 564Q1547 536 1539.0 492.0Q1531 448 1525 389L1579 323L1514 243Q1512 211 1511.0 176.5Q1510 142 1508 104H1492Q1491 117 1490.0 129.5Q1489 142 1488 155L1437 149Q1388 89 1341.0 29.5Q1294 -30 1260.5 -78.0Q1227 -126 1217 -152L1192 -122Q1188 -152 1186.5 -185.0Q1185 -218 1185 -254ZM1390 177Q1413 197 1435.5 218.0Q1458 239 1479 258V259Q1439 255 1407.0 248.0Q1375 241 1354 233Q1355 242 1355.5 251.0Q1356 260 1356 269Q1356 278 1355.5 286.5Q1355 295 1354 302Q1380 292 1409.0 285.0Q1438 278 1478 273Q1475 301 1473.0 326.5Q1471 352 1468 375Q1431 371 1402.5 364.5Q1374 358 1354 350Q1355 359 1355.5 368.0Q1356 377 1356 386Q1356 395 1355.5 403.5Q1355 412 1354 419Q1377 409 1404.0 402.5Q1431 396 1466 391Q1466 393 1466.0 396.0Q1466 399 1465 401Q1446 419 1425.0 437.0Q1404 455 1383 474Q1337 470 1297.0 465.0Q1257 460 1245 457Q1250 477 1250 497Q1250 505 1249.0 514.0Q1248 523 1245 530Q1254 527 1279.5 523.0Q1305 519 1337 515Q1284 561 1233.0 601.5Q1182 642 1143 668Q1118 639 1091.5 607.0Q1065 575 1039 543Q1059 560 1066 574Q1071 563 1092.0 540.0Q1113 517 1143.0 487.0Q1173 457 1205.0 426.0Q1237 395 1264 369Q1261 389 1257.5 405.5Q1254 422 1249 433Q1267 430 1286 430Q1304 430 1323 433Q1317 419 1312.5 391.5Q1308 364 1304 330L1308 327L1303 322Q1300 288 1297.5 253.0Q1295 218 1293 189Q1314 186 1339.0 183.0Q1364 180 1390 177ZM967 86Q900 143 840.0 189.5Q780 236 743 254Q792 281 833 324Q812 346 790.5 362.5Q769 379 743 394Q774 409 822.0 444.5Q870 480 925 526Q727 523 577.5 506.0Q428 489 323.0 465.0Q218 441 155 416Q160 416 165.0 415.5Q170 415 175 415Q191 415 207.0 417.0Q223 419 239 423Q231 404 221.0 364.0Q211 324 201.0 274.0Q191 224 183 172Q243 153 347.5 134.0Q452 115 594 103Q587 157 580.5 198.5Q574 240 568 255Q587 252 605.5 249.5Q624 247 643 247Q659 247 675.0 249.0Q691 251 707 255Q701 241 693.5 197.0Q686 153 678 97Q745 93 817.0 90.0Q889 87 967 86ZM1043 499 1017 514Q1014 511 1011.5 508.0Q1009 505 1007 502Q1024 499 1043 499ZM1013 138 1034 149Q1031 183 1028.0 233.5Q1025 284 1021.5 337.0Q1018 390 1013.5 433.5Q1009 477 1003 497Q963 447 930.0 401.5Q897 356 878 324Q898 290 934.0 240.5Q970 191 1013 138ZM1046 156Q1078 176 1118.5 203.5Q1159 231 1199.5 260.5Q1240 290 1271 313V320Q1234 316 1189.0 311.0Q1144 306 1107.5 301.0Q1071 296 1058 292Q1063 312 1063 332Q1063 340 1062.0 349.0Q1061 358 1058 365Q1071 361 1107.5 355.0Q1144 349 1188.5 343.0Q1233 337 1269 333Q1268 337 1268 343Q1240 364 1205.5 389.0Q1171 414 1136.0 439.0Q1101 464 1070 483Q1066 459 1062.0 417.0Q1058 375 1055.0 327.0Q1052 279 1050.0 233.5Q1048 188 1046 156ZM1454 474Q1453 477 1453 481H1449ZM1517 293 1548 323 1521 348Q1520 335 1519.5 321.0Q1519 307 1517 293ZM1220 34Q1250 58 1282.5 85.0Q1315 112 1348 140Q1312 136 1283.5 132.5Q1255 129 1245 126Q1250 146 1250 166Q1250 174 1249.0 183.0Q1248 192 1245 199Q1250 197 1260.0 195.0Q1270 193 1283 191Q1281 214 1278.5 240.5Q1276 267 1273 294Q1246 268 1213.5 236.5Q1181 205 1150.0 174.5Q1119 144 1097 119Q1132 113 1174 113Q1194 113 1213.0 115.0Q1232 117 1249 121Q1244 108 1236.0 86.0Q1228 64 1220 34ZM1487 166 1484 207 1453 170Q1462 169 1471.0 168.0Q1480 167 1487 166ZM1138 -15Q1125 29 1112.5 62.0Q1100 95 1092 114Q1082 103 1075.0 93.5Q1068 84 1066 79Q1062 87 1051.0 99.5Q1040 112 1026 122Q1054 87 1082.5 52.0Q1111 17 1138 -15Z" />
  </g>
</svg>