<svg xmlns="http://www.w3.org/2000/svg" viewBox="100 -152 1479 950">
  <g transform="translate(0, 646) scale(1, -1)">
    <path fill="black" d="M1217 -152Q1189 -117 1161.5 -92.5Q1134 -68 1099 -49L1111 -42Q1084 -17 1055.0 9.0Q1026 35 997 60Q826 59 685 48L663 -146H650Q645 -111 639.5 -61.0Q634 -11 628 43Q606 41 584.5 39.0Q563 37 543 34L523 -146H510Q506 -114 500.5 -68.0Q495 -22 490 27Q466 24 444.0 20.5Q422 17 401 13Q395 -33 390.5 -75.0Q386 -117 383 -146H370L352 4Q288 -9 238.0 -23.5Q188 -38 153 -52Q158 -26 160.5 2.0Q163 30 163 60Q163 92 160 125Q152 185 141.0 245.0Q130 305 119.5 352.5Q109 400 100 423Q113 421 126.5 419.0Q140 417 153 416Q158 442 160.5 470.5Q163 499 163 530Q163 559 160.5 589.5Q158 620 153 650Q194 633 270.0 615.0Q346 597 450.5 582.5Q555 568 682.0 558.5Q809 549 952 549Q992 583 1032.5 619.0Q1073 655 1110 689L1099 695Q1134 715 1161.5 739.0Q1189 763 1217 798Q1226 774 1255.5 731.0Q1285 688 1327.0 634.0Q1369 580 1415.0 523.0Q1461 466 1504.5 414.0Q1548 362 1579 323Q1548 284 1504.5 232.0Q1461 180 1415.0 123.0Q1369 66 1327.0 12.0Q1285 -42 1255.5 -85.0Q1226 -128 1217 -152ZM1029 118Q1020 215 1007.5 290.5Q995 366 969 427Q989 423 1007.5 421.0Q1026 419 1045 419Q1060 419 1076.0 420.0Q1092 421 1109 424Q1108 425 1108 427Q1114 425 1117 425Q1119 425 1121.5 425.5Q1124 426 1127 427L1125 423Q1139 421 1153.5 420.0Q1168 419 1182 419Q1198 419 1214.5 420.0Q1231 421 1248 424Q1247 425 1247 427Q1253 425 1256 425Q1258 425 1260.5 425.5Q1263 426 1266 427L1264 423Q1279 421 1293.5 419.5Q1308 418 1322 418Q1360 418 1405 427Q1387 380 1370.5 304.5Q1354 229 1344 137Q1400 186 1453.5 234.5Q1507 283 1548 323Q1507 362 1454.0 410.5Q1401 459 1345.0 507.5Q1289 556 1236.5 598.5Q1184 641 1143 668Q1107 625 1068.0 577.0Q1029 529 992.0 482.5Q955 436 925.5 395.0Q896 354 878 324Q900 287 941.0 232.0Q982 177 1029 118ZM967 86Q900 143 840.0 189.5Q780 236 743 254Q792 281 833 324Q812 346 790.5 362.5Q769 379 743 394Q774 409 822.0 444.5Q870 480 925 526Q727 523 577.5 506.0Q428 489 323.0 465.0Q218 441 155 416Q160 416 165.0 415.5Q170 415 175 415Q191 415 207.0 417.0Q223 419 239 423Q231 404 221.0 364.0Q211 324 201.0 274.0Q191 224 183 172Q239 153 337 136Q330 199 322.0 249.0Q314 299 308 315Q327 312 345.5 309.5Q364 307 383 307Q399 307 415.0 309.0Q431 311 447 315Q440 299 431.5 245.0Q423 191 414 123Q430 121 446.5 119.0Q463 117 480 115Q472 185 463.5 241.0Q455 297 448 315Q467 312 485.5 309.5Q504 307 523 307Q539 307 555.0 309.0Q571 311 587 315Q582 303 576.0 272.0Q570 241 564.0 198.0Q558 155 552 107L621 100Q616 150 610.0 194.0Q604 238 598.5 270.5Q593 303 588 315Q607 312 625.5 309.5Q644 307 663 307Q679 307 695.0 309.0Q711 311 727 315Q722 303 716.0 270.5Q710 238 703.5 192.5Q697 147 691 96Q755 92 824.0 89.5Q893 87 967 86ZM1144 -22Q1151 -17 1159.0 -11.5Q1167 -6 1174 -1Q1168 75 1160.5 148.5Q1153 222 1143.0 286.5Q1133 351 1117 400Q1099 344 1083.5 260.0Q1068 176 1061 78ZM1200 18Q1225 38 1252.5 60.0Q1280 82 1308 106Q1300 197 1288.5 269.0Q1277 341 1257 400Q1245 358 1233.0 295.5Q1221 233 1212.5 161.0Q1204 89 1200 18Z" />
  </g>
</svg>