<svg xmlns="http://www.w3.org/2000/svg" viewBox="100 -131 1266 950">
  <g transform="translate(0, 688) scale(1, -1)">
    <path fill="black" d="M829 -131Q808 -91 785.0 -62.0Q762 -33 731 -8Q742 -4 758.0 2.0Q774 8 793 17Q792 26 790.5 36.5Q789 47 788 60Q663 59 568.5 52.5Q474 46 403.0 35.0Q332 24 278.5 10.0Q225 -4 182.0 -20.0Q139 -36 100 -52Q105 -26 107.5 3.0Q110 32 110 63Q110 92 107.5 122.5Q105 153 100 183Q141 166 195.5 149.0Q250 132 328.5 118.0Q407 104 518.5 95.0Q630 86 785 86Q781 130 776.5 186.0Q772 242 767.0 302.5Q762 363 757.5 420.5Q753 478 748 526Q605 523 503.0 512.5Q401 502 328.0 486.5Q255 471 201.0 452.5Q147 434 100 415Q105 441 107.5 470.0Q110 499 110 530Q110 559 107.5 589.5Q105 620 100 650Q153 628 235.5 605.5Q318 583 443.0 567.5Q568 552 746 549Q742 585 738.0 610.0Q734 635 731 644Q750 641 768.5 638.5Q787 636 806 636Q817 636 829.0 637.0Q841 638 852 640Q813 660 782.0 675.0Q751 690 731 696Q762 722 785.0 750.5Q808 779 829 819Q840 801 874.5 766.5Q909 732 959.0 687.5Q1009 643 1066.5 594.5Q1124 546 1180.5 499.0Q1237 452 1285.5 411.5Q1334 371 1366 344Q1334 317 1285.5 276.5Q1237 236 1180.5 189.0Q1124 142 1066.5 93.5Q1009 45 959.0 0.5Q909 -44 874.5 -78.0Q840 -112 829 -131ZM807 24Q850 46 905.0 78.0Q960 110 1019.5 146.5Q1079 183 1137.5 219.5Q1196 256 1246.5 288.5Q1297 321 1333 345Q1293 371 1236.5 407.0Q1180 443 1115.5 483.5Q1051 524 986.5 562.5Q922 601 866 632Q861 611 856.0 566.5Q851 522 845.0 463.5Q839 405 833.5 341.5Q828 278 823.0 216.5Q818 155 814.0 104.5Q810 54 807 24Z" />
  </g>
</svg>