<svg xmlns="http://www.w3.org/2000/svg" viewBox="100 -131 1266 950">
  <g transform="translate(0, 688) scale(1, -1)">
    <path fill="black" d="M829 -131Q808 -91 785.0 -62.0Q762 -33 731 -8Q742 -4 758.0 2.0Q774 8 793 17Q792 26 790.5 36.5Q789 47 788 60Q663 59 568.5 52.5Q474 46 403.0 35.0Q332 24 278.5 10.0Q225 -4 182.0 -20.0Q139 -36 100 -52Q105 -26 107.5 3.0Q110 32 110 63Q110 92 107.5 122.5Q105 153 100 183Q141 166 195.5 149.0Q250 132 328.5 118.0Q407 104 518.5 95.0Q630 86 785 86Q781 130 776.5 186.0Q772 242 767.0 302.5Q762 363 757.5 420.5Q753 478 748 526Q605 523 503.0 512.5Q401 502 328.0 486.5Q255 471 201.0 452.5Q147 434 100 415Q105 441 107.5 470.0Q110 499 110 530Q110 559 107.5 589.5Q105 620 100 650Q153 628 235.5 605.5Q318 583 443.0 567.5Q568 552 746 549Q742 585 738.0 610.0Q734 635 731 644Q750 641 768.5 638.5Q787 636 806 636Q817 636 829.0 637.0Q841 638 852 640Q813 660 782.0 675.0Q751 690 731 696Q762 722 785.0 750.5Q808 779 829 819Q840 801 874.5 766.5Q909 732 959.0 687.5Q1009 643 1066.5 594.5Q1124 546 1180.5 499.0Q1237 452 1285.5 411.5Q1334 371 1366 344Q1334 317 1285.5 276.5Q1237 236 1180.5 189.0Q1124 142 1066.5 93.5Q1009 45 959.0 0.5Q909 -44 874.5 -78.0Q840 -112 829 -131ZM807 24Q869 56 952.0 105.0Q1035 154 1117 206Q1104 226 1091.5 242.5Q1079 259 1068 276Q1046 274 1023.5 273.5Q1001 273 974 269L971 283Q1007 297 1028.0 305.5Q1049 314 1065.0 321.5Q1081 329 1100 340Q1105 318 1110.5 291.5Q1116 265 1130 214Q1166 237 1200.0 258.5Q1234 280 1263 299Q1252 316 1241.5 330.5Q1231 345 1221 360Q1199 358 1176.5 357.5Q1154 357 1127 353L1126 356L1122 353Q1108 377 1094.5 395.0Q1081 413 1068 432Q1046 430 1023.5 429.5Q1001 429 974 425L971 439Q1006 453 1027.0 461.5Q1048 470 1064.0 477.5Q1080 485 1098 495Q1038 532 978.5 568.0Q919 604 866 632Q862 614 857.5 578.0Q853 542 848 495Q856 494 862.5 493.5Q869 493 876 493Q896 493 912 496Q906 481 901.0 443.5Q896 406 892.5 360.0Q889 314 885.5 270.5Q882 227 879 199H873Q872 223 869.0 261.5Q866 300 863.0 342.5Q860 385 856.0 422.5Q852 460 847 481Q841 423 835.5 356.5Q830 290 824.5 226.0Q819 162 814.5 109.0Q810 56 807 24ZM943 199Q941 235 936.5 274.0Q932 313 926.0 346.0Q920 379 913 396L929 394Q925 430 921.0 458.0Q917 486 913 496Q922 495 931.0 494.5Q940 494 949 494Q958 494 966.5 494.5Q975 495 982 496Q977 483 973.0 456.0Q969 429 965 394Q970 394 974.0 394.5Q978 395 982 396Q970 365 962.5 310.0Q955 255 949 199ZM1130 369Q1168 384 1189.5 392.5Q1211 401 1230 411Q1200 431 1167.5 451.5Q1135 472 1100 493Q1105 471 1110.5 445.0Q1116 419 1130 369ZM1280 310 1333 345Q1317 355 1298.5 367.0Q1280 379 1260 392Q1263 377 1267.5 358.0Q1272 339 1280 310Z" />
  </g>
</svg>