<svg xmlns="http://www.w3.org/2000/svg" viewBox="100 -247 1477 1138">
  <g transform="translate(0, 644) scale(1, -1)">
    <path fill="black" d="M732 -247Q717 -196 692.0 -151.0Q667 -106 624 -60L685 -42L677 65Q499 46 348.5 20.0Q198 -6 100 -46Q105 -20 107.5 9.0Q110 38 110 69Q110 98 107.5 128.5Q105 159 100 189Q141 172 203.5 156.5Q266 141 343.0 128.0Q420 115 505.0 106.0Q590 97 676 92Q671 162 665.5 238.5Q660 315 654.0 389.5Q648 464 640 528Q474 509 333.5 484.0Q193 459 100 421Q105 447 107.5 476.0Q110 505 110 536Q110 565 107.5 595.5Q105 626 100 656Q152 635 236.5 616.0Q321 597 424.5 583.0Q528 569 636 562Q630 609 623.0 645.5Q616 682 608 702Q620 700 632.0 698.5Q644 697 656 695Q648 698 640.0 700.0Q632 702 624 704Q667 750 692.0 795.0Q717 840 732 891Q775 847 842.5 795.5Q910 744 994.5 686.5Q1079 629 1175.5 568.5Q1272 508 1373.5 446.0Q1475 384 1575 323H1577Q1477 262 1375.5 200.0Q1274 138 1177.0 77.0Q1080 16 995.0 -41.5Q910 -99 842.5 -151.0Q775 -203 732 -247ZM713 -34Q786 -10 881.5 26.0Q977 62 1085.5 108.5Q1194 155 1308.0 209.0Q1422 263 1533 322Q1433 376 1329.0 425.5Q1225 475 1124.5 518.5Q1024 562 933.0 598.0Q842 634 768 660Q760 618 752.5 553.0Q745 488 739.0 410.0Q733 332 728.0 251.0Q723 170 719.0 96.0Q715 22 713 -34ZM1135 251Q1121 275 1107.5 293.0Q1094 311 1081 330Q1059 328 1036.5 327.5Q1014 327 987 323L986 326L982 323Q968 347 954.5 365.0Q941 383 928 402Q906 400 883.5 399.5Q861 399 834 395L831 409Q867 423 888.0 431.5Q909 440 925.0 447.5Q941 455 960 466Q965 444 970.5 417.5Q976 391 990 339Q1023 352 1043.5 360.0Q1064 368 1079.5 375.5Q1095 383 1113 394Q1119 371 1124.5 343.0Q1130 315 1146 259ZM982 167Q968 191 954.5 209.0Q941 227 928 246Q906 244 883.5 243.5Q861 243 834 239L831 253Q867 267 888.0 275.5Q909 284 925.0 291.5Q941 299 960 310Q966 287 971.5 259.0Q977 231 993 175Z" />
  </g>
</svg>