<svg xmlns="http://www.w3.org/2000/svg" viewBox="100 -205 2779 1060">
  <g transform="translate(0, 650) scale(1, -1)">
    <path fill="black" d="M526 -205Q519 -179 506.5 -156.5Q494 -134 472 -111Q484 -108 503 -102Q502 -90 501.0 -76.5Q500 -63 499 -48Q454 -53 395.5 -58.5Q337 -64 278.5 -70.5Q220 -77 172.5 -85.5Q125 -94 100 -104Q102 -91 103.5 -77.0Q105 -63 105 -48Q105 -33 103.5 -17.5Q102 -2 100 13Q117 6 151.0 0.0Q185 -6 229.5 -11.5Q274 -17 322.5 -21.5Q371 -26 417.0 -29.5Q463 -33 498 -35Q494 17 490.0 75.5Q486 134 480 182Q434 178 378.0 172.5Q322 167 267.5 160.5Q213 154 168.5 146.0Q124 138 100 129Q102 142 103.5 156.0Q105 170 105 185Q105 200 103.5 215.5Q102 231 100 247Q120 239 163.5 231.5Q207 224 263.0 218.0Q319 212 376.0 207.0Q433 202 478 199Q472 248 464 270Q470 269 476.5 268.0Q483 267 490 266Q485 268 480.5 269.0Q476 270 472 271Q485 285 494.5 298.0Q504 311 511 325Q504 339 494.5 352.5Q485 366 472 380L503 388Q502 400 501.0 413.5Q500 427 499 442Q454 437 395.5 431.5Q337 426 278.5 419.5Q220 413 172.5 405.0Q125 397 100 387Q102 400 103.5 414.0Q105 428 105 443Q105 458 103.5 473.5Q102 489 100 504Q117 497 151.0 490.5Q185 484 229.5 478.5Q274 473 322.5 468.5Q371 464 417.0 461.0Q463 458 498 456Q494 508 490.0 566.5Q486 625 480 673Q434 669 378.0 663.5Q322 658 267.5 651.5Q213 645 168.5 637.0Q124 629 100 620Q102 633 103.5 647.0Q105 661 105 676Q105 691 103.5 706.5Q102 722 100 738Q120 730 163.5 722.5Q207 715 263.0 709.0Q319 703 376.0 698.0Q433 693 478 690Q472 739 464 761Q470 760 476.5 759.0Q483 758 490 757Q485 759 480.5 760.0Q476 761 472 762Q494 785 506.5 807.5Q519 830 526 855Q562 819 627.0 773.5Q692 728 773.0 678.5Q854 629 937 578V564Q868 522 799.5 479.5Q731 437 672.0 398.0Q613 359 570 325Q613 291 672.0 251.5Q731 212 799.5 170.5Q868 129 937 87V73Q854 22 773.0 -28.0Q692 -78 627.0 -123.0Q562 -168 526 -205ZM517 393Q566 409 633.5 436.5Q701 464 777.0 498.5Q853 533 925 571Q858 607 789.0 639.0Q720 671 657.0 696.5Q594 722 544 739Q539 713 535.0 669.5Q531 626 527.5 575.0Q524 524 521.5 476.0Q519 428 517 393ZM1423 -112 1410 68Q1316 65 1244.5 58.5Q1173 52 1118.0 43.0Q1063 34 1018.0 23.5Q973 13 930 1Q935 23 937.5 43.5Q940 64 940 83Q940 102 937.5 120.0Q935 138 930 157Q981 143 1027.5 132.0Q1074 121 1126.5 113.0Q1179 105 1247.0 99.0Q1315 93 1409 90L1397 235Q1306 231 1237.0 224.5Q1168 218 1114.5 209.5Q1061 201 1016.5 191.0Q972 181 930 169Q935 191 937.5 211.0Q940 231 940 250Q940 269 937.5 287.5Q935 306 930 325Q980 311 1026.0 300.0Q1072 289 1123.5 281.0Q1175 273 1240.5 267.0Q1306 261 1396 258Q1392 298 1388.5 333.5Q1385 369 1381 400Q1265 395 1185.0 385.5Q1105 376 1045.0 363.0Q985 350 930 335Q935 357 937.5 377.0Q940 397 940 416Q940 435 937.5 453.5Q935 472 930 491Q978 478 1023.0 467.0Q1068 456 1117.5 448.0Q1167 440 1230.0 434.0Q1293 428 1378 424Q1374 464 1368.0 499.0Q1362 534 1356 565Q1249 560 1173.5 550.5Q1098 541 1040.5 528.5Q983 516 930 501Q935 523 937.5 543.0Q940 563 940 582Q940 601 937.5 619.5Q935 638 930 657Q977 644 1019.5 633.5Q1062 623 1109.0 614.5Q1156 606 1214.5 600.5Q1273 595 1351 591Q1344 628 1335.5 663.5Q1327 699 1316 736Q1367 724 1421 724Q1475 724 1532 736Q1518 686 1507.0 630.5Q1496 575 1487.0 507.0Q1478 439 1471.0 351.5Q1464 264 1458.5 150.0Q1453 36 1449 -112ZM1778 -32Q1777 -28 1777.0 -24.5Q1777 -21 1777 -17V-25H1757L1749 100L1743 114Q1744 114 1745.5 113.5Q1747 113 1748 113Q1744 169 1740.0 216.0Q1736 263 1732 303Q1674 299 1636.0 293.5Q1598 288 1572.5 282.0Q1547 276 1527.5 268.5Q1508 261 1487 252Q1496 294 1496 335Q1496 375 1487 414Q1508 406 1526.0 398.5Q1544 391 1568.0 383.5Q1592 376 1629.5 369.0Q1667 362 1726 355Q1720 411 1713.0 454.5Q1706 498 1697.0 537.0Q1688 576 1677 617Q1715 608 1756 608Q1796 608 1839 617Q1832 589 1825.0 560.0Q1818 531 1812 496Q1875 543 1917 617Q1943 578 1973.5 537.5Q2004 497 2048.0 448.5Q2092 400 2156.0 337.0Q2220 274 2311 189L2377 200Q2372 238 2366.0 269.5Q2360 301 2357 308Q2366 307 2376.0 306.5Q2386 306 2396 306Q2407 306 2417.0 306.5Q2427 307 2436 308Q2433 301 2428.5 272.0Q2424 243 2419 207L2460 215Q2455 249 2450.0 275.0Q2445 301 2442 308Q2451 307 2461.0 306.5Q2471 306 2481 306Q2492 306 2502.0 306.5Q2512 307 2521 308Q2519 302 2515.0 278.0Q2511 254 2506 223L2547 230Q2543 259 2538.5 280.5Q2534 302 2532 308Q2541 307 2551.0 306.5Q2561 306 2571 306Q2582 306 2592.0 306.5Q2602 307 2611 308Q2609 303 2606.0 284.0Q2603 265 2599 239L2828 281Q2777 297 2708.5 318.0Q2640 339 2564.0 361.5Q2488 384 2412.5 405.0Q2337 426 2270.0 443.0Q2203 460 2152.5 470.0Q2102 480 2078 479Q2096 510 2109.5 543.5Q2123 577 2131 620Q2147 606 2193.5 581.5Q2240 557 2307.0 526.0Q2374 495 2451.5 461.5Q2529 428 2607.0 396.0Q2685 364 2753.5 336.5Q2822 309 2871 291L2870 289Q2871 289 2871.0 289.5Q2871 290 2872 290L2879 269Q2836 259 2761.0 240.5Q2686 222 2593 199Q2588 162 2584.0 126.0Q2580 90 2578 71H2569Q2567 89 2563.0 121.5Q2559 154 2554 189Q2541 185 2527.5 182.0Q2514 179 2500 176Q2496 145 2493.0 116.0Q2490 87 2488 71H2479L2467 167Q2454 164 2440.0 160.5Q2426 157 2412 153Q2409 128 2406.5 106.0Q2404 84 2403 71H2394L2385 146Q2281 119 2179.5 92.0Q2078 65 1992.5 40.5Q1907 16 1850.0 -2.5Q1793 -21 1778 -32ZM2131 159Q2166 164 2203.5 170.5Q2241 177 2278 183Q2199 243 2140.5 286.5Q2082 330 2037.5 361.0Q1993 392 1956.0 415.0Q1919 438 1884.5 456.5Q1850 475 1812 494Q1807 463 1803.0 426.5Q1799 390 1795 347Q1809 346 1823.5 345.0Q1838 344 1854 342Q1891 379 1917 427Q1961 358 2013.0 293.0Q2065 228 2131 159ZM1781 113Q1828 115 1911.0 126.0Q1994 137 2095 153Q2043 190 1986.5 220.5Q1930 251 1882.5 272.5Q1835 294 1810 305L1815 308Q1809 308 1803.0 307.5Q1797 307 1792 307Q1789 265 1786.0 217.0Q1783 169 1781 113ZM517 -97Q566 -81 633.5 -54.0Q701 -27 777.0 7.5Q853 42 925 80Q858 116 789.0 148.0Q720 180 657.0 205.5Q594 231 544 248Q539 222 535.0 178.5Q531 135 527.5 84.5Q524 34 521.5 -14.0Q519 -62 517 -97Z" />
  </g>
</svg>