<svg xmlns="http://www.w3.org/2000/svg" viewBox="100 -243 1437 1161">
  <g transform="translate(0, 675) scale(1, -1)">
    <path fill="black" d="M234 48 221 145Q182 138 150.5 130.5Q119 123 100 115Q105 145 105 190Q105 210 103.5 229.0Q102 248 100 263Q114 257 143.0 250.0Q172 243 209 236Q203 279 197.5 312.0Q192 345 188 354Q199 353 213.5 351.5Q228 350 243 350Q255 350 266.5 351.0Q278 352 288 354Q284 345 278.0 308.5Q272 272 265 226L312 219Q305 267 299.0 305.5Q293 344 288 354Q299 353 313.5 351.5Q328 350 343 350Q355 350 366.5 351.0Q378 352 388 354Q384 344 377.0 303.0Q370 262 362 212Q376 210 390.5 208.5Q405 207 418 205Q445 225 486.5 257.0Q528 289 564 326Q521 363 486.5 388.0Q452 413 423 434Q379 429 331.0 421.5Q283 414 238.0 405.5Q193 397 157.0 388.0Q121 379 100 371Q105 399 105 445Q105 486 100 518Q117 511 152.0 503.0Q187 495 232.0 487.0Q277 479 325.5 472.5Q374 466 418 461Q438 477 466.0 498.5Q494 520 524.0 545.5Q554 571 579 598Q560 595 546.0 592.0Q532 589 524 586Q528 607 530.0 627.5Q532 648 532 670Q532 690 530.0 712.0Q528 734 524 757Q543 750 592.0 742.0Q641 734 709.5 725.5Q778 717 855.5 709.5Q933 702 1009.5 696.0Q1086 690 1151.0 686.0Q1216 682 1258 682Q1287 706 1331.5 743.0Q1376 780 1425.0 825.0Q1474 870 1516 918L1537 900Q1496 826 1460.0 771.5Q1424 717 1397 671Q1417 637 1452.5 584.5Q1488 532 1537 467L1516 449Q1430 524 1370.5 573.0Q1311 622 1261 660Q1219 660 1153.0 656.0Q1087 652 1009.5 646.0Q932 640 853.0 632.0Q774 624 705.0 616.0Q636 608 588 600L597 593Q571 547 548.5 512.5Q526 478 509 449Q519 430 536.5 403.0Q554 376 579 343Q581 344 582.0 345.5Q583 347 584 348L597 337L591 327L597 320L584 309Q582 309 582 311Q560 274 541.5 245.5Q523 217 509 193Q521 171 543.5 138.0Q566 105 597 64L584 53Q534 97 494.5 126.0Q455 155 423 178L356 169Q352 132 348.0 99.5Q344 67 342 48H334Q331 68 327.5 98.5Q324 129 319 163Q303 160 286.5 157.0Q270 154 254 152Q250 120 247.0 92.5Q244 65 242 48ZM1190 347Q1152 383 1128.5 404.0Q1105 425 1087.0 440.0Q1069 455 1044 471Q1061 486 1079.0 500.0Q1097 514 1123.5 535.0Q1150 556 1190 591L1205 585Q1183 552 1169.0 524.5Q1155 497 1140 471Q1155 446 1169.0 418.5Q1183 391 1205 359ZM823 347Q785 383 762.5 404.0Q740 425 722.0 440.0Q704 455 678 471Q695 486 713.5 500.0Q732 514 758.0 535.0Q784 556 823 591L839 585Q817 552 804.0 524.5Q791 497 775 471Q791 446 804.0 418.5Q817 391 839 359ZM919 358Q883 391 861.5 410.0Q840 429 824.0 442.5Q808 456 787 471Q801 484 817.5 496.5Q834 509 858.0 528.5Q882 548 919 580L932 574Q913 546 901.5 523.5Q890 501 877 479Q898 496 924.0 516.5Q950 537 999 580L1012 574Q995 547 983.0 524.0Q971 501 960 480Q981 497 1008.0 517.0Q1035 537 1081 580L1095 574Q1076 544 1064.0 519.0Q1052 494 1039 471Q1052 448 1064.0 423.0Q1076 398 1095 369L1081 358Q1049 388 1029.0 406.5Q1009 425 993.5 438.5Q978 452 958 465Q970 443 982.0 419.0Q994 395 1012 369L999 358Q966 388 945.5 406.5Q925 425 910.0 438.5Q895 452 876 465Q889 443 901.0 419.0Q913 395 932 369ZM1190 82Q1152 118 1128.5 139.0Q1105 160 1087.0 175.0Q1069 190 1044 206Q1061 221 1079.0 235.0Q1097 249 1123.5 270.0Q1150 291 1190 326L1205 320Q1183 287 1169.0 259.5Q1155 232 1140 206Q1155 181 1169.0 153.5Q1183 126 1205 94ZM823 82Q785 118 762.5 139.0Q740 160 722.0 175.0Q704 190 678 206Q695 221 713.5 235.0Q732 249 758.0 270.0Q784 291 823 326L839 320Q817 287 804.0 259.5Q791 232 775 206Q791 181 804.0 153.5Q817 126 839 94ZM919 93Q883 126 861.5 145.0Q840 164 824.0 177.5Q808 191 787 206Q801 219 817.5 231.5Q834 244 858.0 263.5Q882 283 919 315L932 309Q913 281 901.5 258.5Q890 236 877 214Q898 231 924.0 251.5Q950 272 999 315L1012 309Q995 282 983.0 259.0Q971 236 960 215Q981 232 1008.0 252.0Q1035 272 1081 315L1095 309Q1076 279 1064.0 254.0Q1052 229 1039 206Q1052 183 1064.0 158.0Q1076 133 1095 104L1081 93Q1049 123 1029.0 141.5Q1009 160 993.5 173.5Q978 187 958 200Q970 178 982.0 154.0Q994 130 1012 104L999 93Q966 123 945.5 141.5Q925 160 910.0 173.5Q895 187 876 200Q889 178 901.0 154.0Q913 130 932 104ZM1516 -243Q1430 -167 1370.5 -118.0Q1311 -69 1261 -32Q1219 -32 1154.0 -35.5Q1089 -39 1012.5 -45.0Q936 -51 858.0 -59.0Q780 -67 711.0 -75.0Q642 -83 592.5 -91.0Q543 -99 524 -106Q528 -85 530.0 -64.5Q532 -44 532 -22Q532 -2 530.0 20.0Q528 42 524 65Q543 58 592.0 50.0Q641 42 709.5 33.5Q778 25 855.5 17.5Q933 10 1009.5 4.0Q1086 -2 1151.0 -6.0Q1216 -10 1258 -10Q1287 14 1331.5 51.0Q1376 88 1425.0 133.0Q1474 178 1516 226L1537 208Q1496 134 1460.0 79.5Q1424 25 1397 -21Q1417 -55 1452.5 -107.5Q1488 -160 1537 -225Z" />
  </g>
</svg>