<svg xmlns="http://www.w3.org/2000/svg" viewBox="100 -112 1106 848">
  <g transform="translate(0, 624) scale(1, -1)">
    <path fill="black" d="M624 -112Q624 -16 621 69Q507 60 407.5 48.0Q308 36 229.5 22.0Q151 8 100 -6Q112 45 112 99Q112 153 100 210Q151 196 229.0 182.0Q307 168 406.0 156.0Q505 144 617 134Q612 234 603.0 319.0Q594 404 583 477Q426 464 300.0 444.0Q174 424 100 404Q112 455 112 509Q112 563 100 620Q172 600 294.5 580.5Q417 561 571 547Q561 603 550.5 650.0Q540 697 529 736Q580 724 634 724Q688 724 745 736Q734 695 722.5 645.5Q711 596 700 537Q780 532 864.5 528.5Q949 525 1036 525Q1026 587 1014.0 640.0Q1002 693 990 736Q1041 724 1095 724Q1149 724 1206 736Q1183 653 1161.0 533.5Q1139 414 1125.0 254.0Q1111 94 1111 -112H1085Q1085 -59 1084.0 -8.5Q1083 42 1081 89Q972 89 863.0 84.5Q754 80 653 72Q650 -15 650 -112ZM1079 115Q1074 228 1064.0 324.0Q1054 420 1041 499Q951 498 863.0 494.5Q775 491 692 486Q680 411 670.5 323.0Q661 235 656 131Q757 124 863.5 119.5Q970 115 1079 115Z" />
  </g>
</svg>