<svg xmlns="http://www.w3.org/2000/svg" viewBox="100 -137 2911 899">
  <g transform="translate(0, 625) scale(1, -1)">
    <path fill="black" d="M1528 -137Q1505 -90 1471.5 -50.5Q1438 -11 1388 26Q1405 34 1422.5 42.5Q1440 51 1457 60Q1394 120 1342.5 168.0Q1291 216 1247 255Q1202 199 1169.5 153.0Q1137 107 1110.0 64.5Q1083 22 1056 -26Q1029 16 994.0 51.5Q959 87 911 119Q970 151 1034.5 195.5Q1099 240 1184 311Q1132 357 1089.5 390.5Q1047 424 1008.0 451.5Q969 479 926 505Q920 449 914.0 383.0Q908 317 903.0 248.5Q898 180 894.0 115.5Q890 51 888 -2H865Q864 1 864.0 5.0Q864 9 864 12Q810 10 742.0 6.0Q674 2 600.5 -3.0Q527 -8 455.5 -13.5Q384 -19 322.5 -25.0Q261 -31 218.0 -38.0Q175 -45 158 -52Q163 -22 164 3L158 98V101Q154 164 149.5 233.0Q145 302 140.0 369.0Q135 436 129.0 495.0Q123 554 116.0 597.5Q109 641 100 662Q136 655 177 655Q191 655 206.0 656.0Q221 657 237 659Q236 660 236 662L244 660L253 662Q252 661 252 659Q267 657 282.0 656.0Q297 655 313 655Q327 655 342.0 656.0Q357 657 373 659Q372 660 372 662L380 660L389 662Q388 661 388 659Q403 657 418.0 656.0Q433 655 449 655Q463 655 478.0 656.0Q493 657 509 659Q508 660 508 662L516 660L525 662Q524 661 524 659Q538 657 553.0 656.0Q568 655 583 655Q602 655 621.0 656.5Q640 658 661 662Q654 645 647.5 605.0Q641 565 634.5 509.0Q628 453 622 388Q659 378 709.0 370.5Q759 363 841 356Q836 426 830.0 487.5Q824 549 816.5 594.5Q809 640 800 662Q835 655 875 655Q893 655 912.5 656.5Q932 658 953 662Q947 647 941.5 615.0Q936 583 930 539Q964 562 993.5 591.5Q1023 621 1051 661Q1083 597 1128.0 528.0Q1173 459 1246 364Q1293 405 1346.5 453.5Q1400 502 1462 562L1388 599Q1438 636 1471.5 675.5Q1505 715 1528 762Q1573 695 1619.0 633.5Q1665 572 1719.5 509.5Q1774 447 1841 376Q1840 387 1837.0 398.0Q1834 409 1832 420Q1871 409 1910.5 400.0Q1950 391 1993 383Q1985 441 1975.5 487.5Q1966 534 1955 562Q1978 558 1999.5 556.0Q2021 554 2041 554Q2079 554 2115 560V562Q2116 561 2120 561Q2123 561 2125 562Q2125 561 2124.5 561.0Q2124 561 2124 560Q2166 554 2202 554Q2239 554 2275 560V562Q2276 561 2280 561Q2283 561 2285 562Q2285 561 2284.5 561.0Q2284 561 2284 560Q2326 554 2362 554Q2399 554 2435 560V562Q2436 561 2440 561Q2443 561 2445 562Q2445 561 2444.5 561.0Q2444 561 2444 560Q2486 554 2521 554Q2542 554 2563.0 556.0Q2584 558 2605 562Q2589 522 2576.5 460.0Q2564 398 2555 325L2733 313Q2762 337 2806.5 374.0Q2851 411 2900.0 456.0Q2949 501 2990 549L3011 531Q2970 457 2934.0 402.5Q2898 348 2871 302Q2891 268 2926.5 215.5Q2962 163 3011 98L2990 80Q2906 154 2848.0 202.0Q2790 250 2740 287L2549 281Q2542 220 2536.0 156.5Q2530 93 2525 34H2503Q2500 90 2496.0 153.0Q2492 216 2485 278Q2460 277 2435.5 275.5Q2411 274 2388 273Q2381 214 2375.5 152.5Q2370 91 2365 34H2343Q2338 145 2326 269L2227 263Q2221 206 2215.5 147.5Q2210 89 2205 34H2183Q2181 85 2177.0 142.5Q2173 200 2167 258Q2140 255 2114.5 252.5Q2089 250 2066 247Q2060 194 2055.0 139.5Q2050 85 2045 34H2023Q2021 81 2017.5 134.0Q2014 187 2009 239Q1957 232 1913.5 223.5Q1870 215 1832 204Q1834 215 1836.5 226.0Q1839 237 1840 248Q1773 178 1719.0 115.5Q1665 53 1619.0 -8.5Q1573 -70 1528 -137ZM282 78Q285 104 285 128Q285 148 283.0 168.0Q281 188 278 207Q280 206 282.5 205.0Q285 204 288 203Q283 287 276.5 370.0Q270 453 262.5 522.0Q255 591 245 632Q237 596 229.5 534.0Q222 472 215.0 396.5Q208 321 202.5 242.0Q197 163 193 91Q210 87 232.5 84.0Q255 81 282 78ZM540 282Q542 299 543.5 315.0Q545 331 545 346Q545 365 543.0 383.0Q541 401 538 419L545 416Q539 484 532.0 540.5Q525 597 517 632Q510 600 503.5 547.0Q497 494 491.0 429.0Q485 364 479 294ZM421 178 424 206Q419 289 412.5 371.5Q406 454 398.5 522.5Q391 591 381 632Q373 592 364.0 521.0Q355 450 348.0 363.5Q341 277 335 191Q353 187 374.5 184.0Q396 181 421 178ZM2156 359Q2149 418 2140.0 468.0Q2131 518 2120 549Q2108 515 2098.5 469.0Q2089 423 2081 369ZM2318 343Q2311 407 2301.0 461.0Q2291 515 2280 549Q2267 512 2256.5 461.0Q2246 410 2238 351ZM2480 330Q2472 398 2462.0 455.5Q2452 513 2440 549Q2426 510 2415.0 455.0Q2404 400 2396 337ZM1488 76Q1565 117 1650.0 172.0Q1735 227 1845 312Q1791 354 1743.0 388.5Q1695 423 1652 451Q1634 405 1628.0 332.5Q1622 260 1617 168H1604L1601 206Q1566 201 1528.0 195.0Q1490 189 1460.0 183.5Q1430 178 1418 172Q1420 187 1421.5 202.0Q1423 217 1421 233Q1420 233 1419.5 232.5Q1419 232 1418 232Q1418 235 1418.5 237.5Q1419 240 1419 243Q1419 245 1418.5 247.5Q1418 250 1418 252Q1418 251 1420 251Q1422 262 1422.0 272.5Q1422 283 1421 293Q1420 293 1419.5 292.5Q1419 292 1418 292Q1418 295 1418.5 297.5Q1419 300 1419 303Q1419 305 1418.5 307.5Q1418 310 1418 312Q1418 311 1420 311Q1422 322 1422.0 332.5Q1422 343 1421 353Q1420 353 1419.5 352.5Q1419 352 1418 352Q1418 355 1418.5 357.5Q1419 360 1419 363Q1419 365 1418.5 367.5Q1418 370 1418 372Q1418 371 1420 371Q1422 386 1421.5 401.0Q1421 416 1418 432Q1428 428 1453.5 422.0Q1479 416 1511.5 410.5Q1544 405 1575 400Q1571 414 1567.0 428.0Q1563 442 1558 455Q1585 449 1603 449Q1612 449 1623.0 450.5Q1634 452 1647 454Q1564 508 1493 546Q1430 473 1380.0 414.5Q1330 356 1291 308Q1331 259 1380.0 201.5Q1429 144 1488 76ZM1587 339 1579 383Q1545 379 1511.0 373.0Q1477 367 1452 362Q1478 356 1515.5 350.0Q1553 344 1587 339ZM849 250 843 329Q758 324 705.0 314.5Q652 305 615 294Q614 288 613.5 282.5Q613 277 613 272Q665 265 724.5 260.0Q784 255 849 250ZM1594 278Q1593 290 1592.0 301.5Q1591 313 1589 324Q1553 319 1515.5 313.5Q1478 308 1452 302Q1480 295 1519.5 288.5Q1559 282 1594 278ZM1600 217Q1599 230 1598.0 242.0Q1597 254 1596 265Q1559 260 1519.5 254.0Q1480 248 1452 242Q1481 235 1522.0 228.5Q1563 222 1600 217ZM856 144Q855 164 853.5 183.5Q852 203 851 223Q785 219 723.0 213.0Q661 207 608 200L605 161Q669 156 733.5 152.0Q798 148 856 144ZM562 164Q562 172 561.5 179.0Q561 186 561 193Q535 189 512.0 184.5Q489 180 470 175V173ZM862 36Q861 56 860.0 76.0Q859 96 857 118Q799 115 732.5 110.0Q666 105 601 99L598 52Q671 48 739.5 44.0Q808 40 862 36ZM569 54 567 97Q540 94 514.0 91.5Q488 89 464 86Q464 80 463.5 74.0Q463 68 463 61Q489 60 515.5 58.0Q542 56 569 54ZM432 64Q432 69 432.0 73.5Q432 78 431 82Q408 79 387.5 76.5Q367 74 349 71Q369 69 389.5 67.5Q410 66 432 64Z" />
  </g>
</svg>