<svg xmlns="http://www.w3.org/2000/svg" viewBox="100 -112 1176 848">
  <g transform="translate(0, 624) scale(1, -1)">
    <path fill="black" d="M1155 -112Q1155 -56 1153.5 -4.0Q1152 48 1150 97Q1040 97 931.0 92.5Q822 88 720 80Q719 55 718.5 35.5Q718 16 718 2H700Q700 30 697 78Q582 69 481.0 56.5Q380 44 300.5 30.0Q221 16 170 2Q176 30 179.5 58.5Q183 87 182 116L175 52H162Q157 89 151.0 142.5Q145 196 138.5 254.5Q132 313 125.0 366.5Q118 420 112.0 459.5Q106 499 100 513Q120 509 140.5 507.0Q161 505 182 505Q184 565 170 628Q244 608 371.0 588.0Q498 568 657 554Q652 596 647.5 625.0Q643 654 639 663Q658 660 676.5 657.5Q695 655 714 655Q730 655 746.0 657.0Q762 659 778 663Q774 654 769.0 622.5Q764 591 759 546Q842 540 928.5 536.5Q1015 533 1105 533Q1095 593 1083.0 643.5Q1071 694 1060 736Q1111 724 1165 724Q1219 724 1276 736Q1253 653 1231.0 533.5Q1209 414 1195.0 254.0Q1181 94 1181 -112ZM1149 123Q1143 236 1133.0 332.0Q1123 428 1109 507Q1018 506 928.0 502.5Q838 499 753 493Q748 439 742.5 377.5Q737 316 732.5 254.5Q728 193 724 139Q825 132 932.5 127.5Q1040 123 1149 123ZM693 142Q690 194 685.0 253.5Q680 313 675.0 373.0Q670 433 664 486Q527 475 412.5 458.5Q298 442 220 424Q213 380 206.0 323.5Q199 267 193 212Q273 193 403.5 174.0Q534 155 693 142Z" />
  </g>
</svg>