<svg xmlns="http://www.w3.org/2000/svg" viewBox="100 -112 821 848">
  <g transform="translate(0, 624) scale(1, -1)">
    <path fill="black" d="M563 -112Q554 -22 544.0 48.0Q534 118 522.5 175.5Q511 233 496.0 283.0Q481 333 460 383Q484 379 508.0 376.0Q532 373 557 373Q534 511 509.0 598.5Q484 686 461 736Q490 732 518.5 729.5Q547 727 577 727Q602 727 627.0 729.0Q652 731 677 736Q658 688 628.5 596.0Q599 504 584 373Q604 374 624.0 376.0Q644 378 666 381Q715 420 775.5 476.0Q836 532 888 588L908 576Q882 518 854.0 464.0Q826 410 801 369Q817 349 837.5 317.0Q858 285 880.5 249.0Q903 213 921 179L902 164Q866 198 824.5 233.0Q783 268 741.5 299.5Q700 331 664 354Q635 272 616.0 159.0Q597 46 589 -112ZM203 -112Q194 -22 184.0 48.0Q174 118 162.5 175.5Q151 233 136.0 283.0Q121 333 100 383Q124 379 148.0 376.0Q172 373 197 373Q174 511 149.0 598.5Q124 686 101 736Q130 732 158.5 729.5Q187 727 217 727Q242 727 267.0 729.0Q292 731 317 736Q298 688 268.5 596.0Q239 504 224 373Q246 374 268.5 376.5Q291 379 316 383Q294 330 276.5 263.0Q259 196 248 110Q297 148 355.5 202.5Q414 257 464 312L484 300Q458 242 430.0 188.0Q402 134 377 93Q393 73 414.0 41.0Q435 9 457.0 -27.5Q479 -64 497 -97L478 -112Q443 -78 402.0 -44.0Q361 -10 320.0 21.5Q279 53 244 76Q233 -9 229 -112Z" />
  </g>
</svg>