<svg xmlns="http://www.w3.org/2000/svg" viewBox="100 -205 974 985">
  <g transform="translate(0, 575) scale(1, -1)">
    <path fill="black" d="M1026 49Q956 106 899.5 149.0Q843 192 794.5 224.0Q746 256 700.0 280.5Q654 305 604 326Q624 340 643.0 355.0Q662 370 680 388Q565 470 486.0 514.0Q407 558 355 577Q397 609 436.5 645.5Q476 682 507 730Q527 682 571.5 596.0Q616 510 698 407Q724 435 750 471Q756 519 759.0 579.0Q762 639 762 700Q762 719 762.0 737.5Q762 756 761 774L784 780Q807 720 825.5 662.0Q844 604 855 558Q881 555 918.0 547.0Q955 539 996.0 529.0Q1037 519 1074 508L1071 484Q1022 483 967.5 478.0Q913 473 861.5 466.0Q810 459 768 450Q805 372 871.5 278.5Q938 185 1045 68ZM772 -205Q702 -148 645.0 -105.0Q588 -62 539.5 -30.0Q491 2 445.0 26.5Q399 51 349 72Q390 99 425 133Q310 215 231.0 259.5Q152 304 100 322Q142 354 181.5 390.5Q221 427 253 475Q273 427 317.5 341.5Q362 256 444 153Q459 169 473.5 187.0Q488 205 502 225Q524 172 559.0 112.5Q594 53 646 -15Q652 32 655.0 90.5Q658 149 658 208Q658 226 658.0 244.0Q658 262 657 279L679 285Q702 225 720.5 167.0Q739 109 750 63Q776 60 813.0 52.0Q850 44 891.5 34.0Q933 24 969 13L966 -11Q918 -12 864.5 -16.5Q811 -21 760.5 -28.0Q710 -35 668 -43Q694 -77 724.5 -112.5Q755 -148 790 -187Z" />
  </g>
</svg>