<svg xmlns="http://www.w3.org/2000/svg" viewBox="100 -152 835 950">
  <g transform="translate(0, 646) scale(1, -1)">
    <path fill="black" d="M574 -152Q546 -117 518.5 -92.5Q491 -68 456 -49L468 -42Q420 2 368.0 48.0Q316 94 265.0 135.5Q214 177 171.5 208.5Q129 240 100 254Q149 281 190 324Q169 346 147.5 362.5Q126 379 100 394Q129 408 171.5 439.0Q214 470 264.0 511.5Q314 553 366.5 599.0Q419 645 467 689L456 695Q491 715 518.5 739.0Q546 763 574 798Q583 774 612.5 731.0Q642 688 683.5 634.0Q725 580 771.0 523.0Q817 466 860.5 414.0Q904 362 935 323Q904 284 860.5 232.0Q817 180 771.0 123.0Q725 66 683.5 12.0Q642 -42 612.5 -85.0Q583 -128 574 -152ZM761 189Q801 225 838.0 259.5Q875 294 905 323Q864 362 811.0 410.5Q758 459 702.0 507.5Q646 556 593.5 598.5Q541 641 500 668Q463 623 422.5 573.5Q382 524 345 477Q361 471 408.0 466.0Q455 461 513 457L494 536Q518 529 546 529Q574 529 602 536Q597 517 592.5 496.5Q588 476 584 452Q637 449 685.0 447.0Q733 445 761 444V433Q731 430 682.0 427.0Q633 424 579 421Q578 410 576.5 398.0Q575 386 574 373Q630 369 681.0 367.0Q732 365 761 364V353Q730 350 678.5 347.0Q627 344 571 340L567 291Q626 288 678.5 285.5Q731 283 761 282V272Q730 268 677.0 265.0Q624 262 566 258Q565 246 564.5 234.5Q564 223 564 209Q623 205 677.0 203.0Q731 201 761 199ZM343 172Q344 177 344.0 182.0Q344 187 344 192Q344 210 341 231V233Q344 253 344 272Q344 292 341 314V315Q344 335 344 356Q344 376 341 398L344 396Q347 416 347 436Q347 455 344 476Q310 432 281.0 392.5Q252 353 235 324Q252 295 280.5 255.5Q309 216 343 172ZM526 376 520 416Q464 412 416.5 407.0Q369 402 348 395Q370 390 419.0 385.0Q468 380 526 376ZM534 293Q533 305 532.5 316.0Q532 327 530 337Q468 333 415.5 327.5Q363 322 342 314Q360 308 415.0 303.0Q470 298 534 293ZM541 211 538 255Q476 251 422.0 245.5Q368 240 345 232Q366 226 421.5 220.5Q477 215 541 211ZM501 -22Q535 1 578.0 35.0Q621 69 668.0 108.5Q715 148 760 189Q729 185 675.0 182.0Q621 179 563 175Q562 160 561.5 144.5Q561 129 561 112H547Q546 129 545.0 144.0Q544 159 543 174Q487 170 436.5 165.0Q386 160 358 154Q393 110 430.0 64.5Q467 19 501 -22Z" />
  </g>
</svg>