<svg xmlns="http://www.w3.org/2000/svg" viewBox="100 -152 835 950">
  <g transform="translate(0, 646) scale(1, -1)">
    <path fill="black" d="M574 -152Q546 -117 518.5 -92.5Q491 -68 456 -49L468 -42Q420 2 368.0 48.0Q316 94 265.0 135.5Q214 177 171.5 208.5Q129 240 100 254Q149 281 190 324Q169 346 147.5 362.5Q126 379 100 394Q129 408 171.5 439.0Q214 470 264.0 511.5Q314 553 366.5 599.0Q419 645 467 689L456 695Q491 715 518.5 739.0Q546 763 574 798Q583 774 612.5 731.0Q642 688 683.5 634.0Q725 580 771.0 523.0Q817 466 860.5 414.0Q904 362 935 323Q904 284 860.5 232.0Q817 180 771.0 123.0Q725 66 683.5 12.0Q642 -42 612.5 -85.0Q583 -128 574 -152ZM501 -22Q542 5 594.5 47.5Q647 90 703.0 138.5Q759 187 811.5 235.5Q864 284 905 323Q864 362 811.0 410.5Q758 459 702.0 507.5Q646 556 593.5 598.5Q541 641 500 668Q464 625 425.0 577.0Q386 529 349.0 482.5Q312 436 282.5 395.0Q253 354 235 324Q253 294 283.0 252.5Q313 211 350.0 164.0Q387 117 426.0 69.5Q465 22 501 -22ZM748 216Q711 248 684.5 270.0Q658 292 636 309Q591 304 540.5 298.5Q490 293 442.5 287.0Q395 281 360.5 275.5Q326 270 314 265Q320 297 320 328Q320 342 319.0 356.0Q318 370 314 384Q326 379 360.0 372.5Q394 366 441.0 360.0Q488 354 538.5 348.0Q589 342 633 337Q654 356 683.5 383.5Q713 411 740 442L751 436Q737 402 729.0 377.0Q721 352 710 323Q720 307 729.0 284.5Q738 262 759 224Z" />
  </g>
</svg>