<svg xmlns="http://www.w3.org/2000/svg" viewBox="100 -152 835 950">
  <g transform="translate(0, 646) scale(1, -1)">
    <path fill="black" d="M574 -152Q546 -117 518.5 -92.5Q491 -68 456 -49L468 -42Q420 2 368.0 48.0Q316 94 265.0 135.5Q214 177 171.5 208.5Q129 240 100 254Q149 281 190 324Q169 346 147.5 362.5Q126 379 100 394Q129 408 171.5 439.0Q214 470 264.0 511.5Q314 553 366.5 599.0Q419 645 467 689L456 695Q491 715 518.5 739.0Q546 763 574 798Q583 774 612.5 731.0Q642 688 683.5 634.0Q725 580 771.0 523.0Q817 466 860.5 414.0Q904 362 935 323Q904 284 860.5 232.0Q817 180 771.0 123.0Q725 66 683.5 12.0Q642 -42 612.5 -85.0Q583 -128 574 -152ZM501 -22 510 -16Q506 20 501.0 67.0Q496 114 491.0 163.0Q486 212 480.5 256.5Q475 301 470.5 333.0Q466 365 461 376Q493 370 524 370Q538 370 552.0 371.0Q566 372 580 376Q576 366 570.5 336.0Q565 306 559.5 263.5Q554 221 549.0 173.5Q544 126 539.0 80.0Q534 34 530 -2Q571 28 620.5 68.5Q670 109 721.0 154.5Q772 200 819.5 243.5Q867 287 905 323Q864 362 811.0 410.5Q758 459 702.0 507.5Q646 556 593.5 598.5Q541 641 500 668Q464 625 425.0 577.0Q386 529 349.0 482.5Q312 436 282.5 395.0Q253 354 235 324Q253 294 283.0 252.5Q313 211 350.0 164.0Q387 117 426.0 69.5Q465 22 501 -22Z" />
  </g>
</svg>