<svg xmlns="http://www.w3.org/2000/svg" viewBox="100 -152 835 950">
  <g transform="translate(0, 646) scale(1, -1)">
    <path fill="black" d="M574 -152Q546 -117 518.5 -92.5Q491 -68 456 -49L468 -42Q420 2 368.0 48.0Q316 94 265.0 135.5Q214 177 171.5 208.5Q129 240 100 254Q149 281 190 324Q169 346 147.5 362.5Q126 379 100 394Q129 408 171.5 439.0Q214 470 264.0 511.5Q314 553 366.5 599.0Q419 645 467 689L456 695Q491 715 518.5 739.0Q546 763 574 798Q583 774 612.5 731.0Q642 688 683.5 634.0Q725 580 771.0 523.0Q817 466 860.5 414.0Q904 362 935 323Q904 284 860.5 232.0Q817 180 771.0 123.0Q725 66 683.5 12.0Q642 -42 612.5 -85.0Q583 -128 574 -152ZM501 -22Q542 5 594.5 47.5Q647 90 703.0 138.5Q759 187 811.5 235.5Q864 284 905 323Q864 362 811.0 410.5Q758 459 702.0 507.5Q646 556 593.5 598.5Q541 641 500 668Q464 625 425.0 577.0Q386 529 349.0 482.5Q312 436 282.5 395.0Q253 354 235 324Q253 294 283.0 252.5Q313 211 350.0 164.0Q387 117 426.0 69.5Q465 22 501 -22ZM597 107 587 184Q555 196 517.0 209.5Q479 223 443.5 235.5Q408 248 381.5 256.5Q355 265 344 268Q352 282 357.5 293.5Q363 305 365 318Q373 312 396.5 299.5Q420 287 452.0 271.0Q484 255 519.0 237.5Q554 220 585 204Q580 257 573.5 315.5Q567 374 561 420Q522 400 480.5 379.0Q439 358 407.0 341.5Q375 325 365 318Q363 331 357.5 343.0Q352 355 344 368Q357 371 392.5 382.5Q428 394 473.0 410.0Q518 426 558 440Q550 493 544 510Q576 504 607 504Q621 504 635.0 505.0Q649 506 663 510Q658 498 652.0 463.5Q646 429 639.5 382.0Q633 335 627.5 284.0Q622 233 617 188Q631 181 642.5 175.0Q654 169 661 165L658 158L615 174L608 107Z" />
  </g>
</svg>