<svg xmlns="http://www.w3.org/2000/svg" viewBox="100 -152 835 950">
  <g transform="translate(0, 646) scale(1, -1)">
    <path fill="black" d="M574 -152Q546 -117 518.5 -92.5Q491 -68 456 -49L468 -42Q420 2 368.0 48.0Q316 94 265.0 135.5Q214 177 171.5 208.5Q129 240 100 254Q149 281 190 324Q169 346 147.5 362.5Q126 379 100 394Q129 408 171.5 439.0Q214 470 264.0 511.5Q314 553 366.5 599.0Q419 645 467 689L456 695Q491 715 518.5 739.0Q546 763 574 798Q583 774 612.5 731.0Q642 688 683.5 634.0Q725 580 771.0 523.0Q817 466 860.5 414.0Q904 362 935 323Q904 284 860.5 232.0Q817 180 771.0 123.0Q725 66 683.5 12.0Q642 -42 612.5 -85.0Q583 -128 574 -152ZM501 -22Q542 5 594.5 47.5Q647 90 703.0 138.5Q759 187 811.5 235.5Q864 284 905 323Q866 360 817.0 405.5Q768 451 715 497Q706 462 699.5 418.0Q693 374 688.5 308.5Q684 243 681 141H670Q667 197 664.0 240.0Q661 283 658 317L598 314Q594 274 591.5 232.0Q589 190 587 158H578Q574 192 571.0 232.5Q568 273 563 313Q556 312 550.0 312.0Q544 312 536 312Q532 272 530.0 231.0Q528 190 526 158H516Q513 191 510.0 231.0Q507 271 502 310L474 308Q470 269 468.0 229.5Q466 190 464 158H456Q452 190 449.0 229.5Q446 269 442 307L413 305Q409 267 407.0 228.0Q405 189 403 158H394L380 303Q341 301 313.5 299.0Q286 297 281 295Q283 301 283.0 307.0Q283 313 283 318Q283 327 282.5 336.0Q282 345 281 354Q286 352 312.0 349.0Q338 346 376 343Q372 375 367.0 402.5Q362 430 356 446Q366 444 376.5 443.0Q387 442 397 442Q402 442 407.5 442.0Q413 442 419 443Q418 444 418 446L426 444L436 446Q435 445 435 443Q440 442 444.5 442.0Q449 442 453 442Q459 442 465.5 442.0Q472 442 479 443Q478 444 478 446L486 444L497 446Q496 445 496 443Q501 442 505.5 442.0Q510 442 514 442Q521 442 527.5 442.0Q534 442 541 443Q540 444 540 446L548 444L558 446Q557 445 557 443Q562 442 566.5 442.0Q571 442 576 442Q586 442 597.0 443.0Q608 444 620 446Q614 431 609.0 399.5Q604 368 600 329Q617 328 632.0 327.5Q647 327 657 327Q651 387 643.5 425.0Q636 463 625 503Q648 497 670 497Q680 497 690.0 498.5Q700 500 710 501Q652 551 597.0 595.5Q542 640 500 668Q464 625 425.0 577.0Q386 529 349.0 482.5Q312 436 282.5 395.0Q253 354 235 324Q253 294 283.0 252.5Q313 211 350.0 164.0Q387 117 426.0 69.5Q465 22 501 -22ZM561 331Q556 380 549 412Q546 396 543.0 375.5Q540 355 538 332Q544 332 550.0 332.0Q556 332 561 331ZM438 338Q436 359 433.0 377.5Q430 396 427 412Q424 397 421.5 378.5Q419 360 417 340ZM499 334Q494 378 487 411Q484 395 481.5 376.0Q479 357 477 336Z" />
  </g>
</svg>