<svg xmlns="http://www.w3.org/2000/svg" viewBox="100 -180 1065 916">
  <g transform="translate(0, 556) scale(1, -1)">
    <path fill="black" d="M395 -112Q395 -32 392.5 40.0Q390 112 386 177Q292 165 218.5 151.5Q145 138 100 126Q112 177 112 241Q112 305 100 362Q144 350 215.0 337.0Q286 324 375 312Q362 450 341.5 555.0Q321 660 300 736Q351 724 405 724Q459 724 516 736Q495 659 474.5 552.0Q454 445 440 303Q571 287 723.5 275.5Q876 264 1029 259Q1016 417 994.0 535.0Q972 653 949 736Q1000 724 1054 724Q1108 724 1165 736Q1142 653 1120.0 534.5Q1098 416 1084 258Q1104 257 1124.5 257.0Q1145 257 1165 257V231Q1145 231 1124.0 230.5Q1103 230 1082 230Q1070 77 1070 -112H1044Q1044 -17 1040.5 68.0Q1037 153 1031 229Q875 225 719.0 212.5Q563 200 430 183Q421 50 421 -112ZM902 -180Q865 -145 821.5 -109.0Q778 -73 735.5 -41.5Q693 -10 659 11Q691 35 731.0 69.5Q771 104 812.0 143.5Q853 183 889 222L908 211Q883 156 856.0 104.5Q829 53 806 14Q821 -5 841.0 -35.5Q861 -66 882.0 -100.0Q903 -134 920 -166Z" />
  </g>
</svg>