<svg xmlns="http://www.w3.org/2000/svg" viewBox="100 -159 1346 909">
  <g transform="translate(0, 591) scale(1, -1)">
    <path fill="black" d="M232 -159Q220 -108 196.0 -51.5Q172 5 138 57Q141 57 144.0 57.0Q147 57 151 58Q147 90 143.0 149.0Q139 208 134.5 280.5Q130 353 126.0 428.0Q122 503 118.0 568.5Q114 634 109.5 679.0Q105 724 100 736Q119 733 133.5 730.5Q148 728 163 728Q175 728 189.0 730.0Q203 732 219 736Q214 725 209.0 679.5Q204 634 199.5 568.5Q195 503 190.0 428.0Q185 353 180.5 280.5Q176 208 172.0 149.5Q168 91 165 60Q192 64 231.5 73.5Q271 83 319 96Q315 135 311.0 196.5Q307 258 302.5 329.5Q298 401 294.0 472.0Q290 543 286.0 602.5Q282 662 277 698Q260 694 246.0 690.0Q232 686 221 681Q222 690 222.5 699.0Q223 708 223 717Q223 726 222.5 734.5Q222 743 221 750Q233 746 245.0 741.5Q257 737 270 734V736Q289 733 303.5 730.5Q318 728 333 728Q345 728 359.0 730.0Q373 732 389 736Q385 725 380.0 685.0Q375 645 370.5 586.5Q366 528 361.5 459.5Q357 391 352.5 323.0Q348 255 344.0 197.0Q340 139 337 101Q425 127 531.5 161.5Q638 196 748.5 234.5Q859 273 958 309Q919 323 863.5 343.0Q808 363 746.0 385.5Q684 408 622.5 430.5Q561 453 508.0 471.5Q455 490 418.5 501.5Q382 513 370 514Q390 542 405.5 572.5Q421 603 428 641Q436 632 471.0 610.5Q506 589 558.0 559.0Q610 529 670.0 495.0Q730 461 790.0 428.0Q850 395 901.0 367.0Q952 339 984 320Q1018 350 1062.5 391.0Q1107 432 1155.5 480.5Q1204 529 1248 580L1268 569Q1259 617 1249.5 659.0Q1240 701 1230 736Q1281 724 1335 724Q1389 724 1446 736Q1423 653 1401.0 533.5Q1379 414 1365.0 254.0Q1351 94 1351 -112H1325Q1325 103 1309.5 268.5Q1294 434 1271 556Q1225 473 1192.0 408.5Q1159 344 1128 292Q1151 253 1192.5 191.5Q1234 130 1292 54L1266 33Q1173 116 1106.0 170.5Q1039 225 983 268Q899 225 806.0 177.0Q713 129 621.5 80.0Q530 31 450.5 -14.0Q371 -59 313.5 -96.5Q256 -134 232 -159Z" />
  </g>
</svg>