<svg xmlns="http://www.w3.org/2000/svg" viewBox="100 -159 1346 933">
  <g transform="translate(0, 615) scale(1, -1)">
    <path fill="black" d="M232 -159Q220 -108 196.0 -51.5Q172 5 138 57Q141 57 144.0 57.0Q147 57 151 58Q147 90 143.0 149.0Q139 208 134.5 280.5Q130 353 126.0 428.0Q122 503 118.0 568.5Q114 634 109.5 679.0Q105 724 100 736Q119 733 133.5 730.5Q148 728 163 728Q175 728 189.0 730.0Q203 732 219 736Q214 725 209.0 679.5Q204 634 199.5 568.5Q195 503 190.0 428.0Q185 353 180.5 280.5Q176 208 172.0 149.5Q168 91 165 60Q192 64 231.5 73.5Q271 83 319 96Q315 135 311.0 196.5Q307 258 302.5 329.5Q298 401 294.0 472.0Q290 543 286.0 602.5Q282 662 277 698Q260 694 246.0 690.0Q232 686 221 681Q222 690 222.5 699.0Q223 708 223 717Q223 726 222.5 734.5Q222 743 221 750Q233 746 245.0 741.5Q257 737 270 734V736Q289 733 303.5 730.5Q318 728 333 728Q345 728 359.0 730.0Q373 732 389 736Q385 725 380.0 685.0Q375 645 370.5 586.5Q366 528 361.5 459.5Q357 391 352.5 323.0Q348 255 344.0 197.0Q340 139 337 101Q431 128 546.0 166.0Q661 204 777 244Q760 266 739.5 285.5Q719 305 693 321Q712 330 761 368L718 386Q702 364 691.5 348.0Q681 332 678 324Q658 353 634.5 378.0Q611 403 577 424L595 434Q541 456 493.5 473.5Q446 491 413.5 502.0Q381 513 370 514Q390 542 405.5 572.5Q421 603 428 641Q436 632 471.5 609.5Q507 587 560.0 557.0Q613 527 673 493Q675 494 679 498Q643 527 616.0 546.5Q589 566 577 571Q611 592 634.5 617.0Q658 642 678 671Q683 658 704.0 628.0Q725 598 754 559L799 597Q762 627 733.0 648.0Q704 669 693 674Q727 695 750.5 720.0Q774 745 794 774Q799 761 820.5 731.0Q842 701 873 660L991 759L1001 749Q984 726 958.0 693.0Q932 660 903 622L968 539L1107 656L1117 646Q1098 620 1067.0 580.5Q1036 541 1001 497L1076 403Q1117 441 1162.0 486.5Q1207 532 1248 580L1268 569Q1259 617 1249.5 659.0Q1240 701 1230 736Q1281 724 1335 724Q1389 724 1446 736Q1423 653 1401.0 533.5Q1379 414 1365.0 254.0Q1351 94 1351 -112H1325Q1325 103 1309.5 268.5Q1294 434 1271 556Q1225 473 1192.0 408.5Q1159 344 1128 292Q1151 253 1192.5 191.5Q1234 130 1292 54L1266 33Q1173 116 1106.0 170.5Q1039 225 983 268Q899 225 806.0 177.0Q713 129 621.5 80.0Q530 31 450.5 -14.0Q371 -59 313.5 -96.5Q256 -134 232 -159ZM847 438Q865 452 883.0 467.0Q901 482 919 497Q901 512 883.5 527.0Q866 542 849 555Q837 540 825.5 525.0Q814 510 802 496ZM984 320 1054 383Q1035 399 1013.0 417.5Q991 436 968 456Q951 434 934.0 412.5Q917 391 900 370L904 365ZM817 259Q844 268 871.0 277.5Q898 287 923 297Q918 301 913.0 305.5Q908 310 903 314L867 327Q852 308 839.5 290.5Q827 273 817 259Z" />
  </g>
</svg>