<svg xmlns="http://www.w3.org/2000/svg" viewBox="100 -85 1071 815">
  <g transform="translate(0, 645) scale(1, -1)">
    <path fill="black" d="M100 495Q105 521 107.5 550.0Q110 579 110 610Q110 639 107.5 669.5Q105 700 100 730Q156 707 239.5 683.5Q323 660 433.0 644.0Q543 628 675 628V597Q485 597 342.5 566.5Q200 536 100 495ZM676 350Q681 376 683.5 405.0Q686 434 686 465Q686 494 683.5 524.5Q681 555 676 585Q718 568 763.5 550.0Q809 532 866.0 517.0Q923 502 997.5 492.5Q1072 483 1171 483V452Q1076 452 1005.0 444.0Q934 436 878.0 421.5Q822 407 774.0 388.5Q726 370 676 350ZM100 205Q105 231 107.5 260.0Q110 289 110 320Q110 349 107.5 379.5Q105 410 100 440Q156 417 239.5 393.5Q323 370 433.0 354.0Q543 338 675 338V307Q543 307 438.0 293.0Q333 279 250.0 255.5Q167 232 100 205ZM676 60Q681 86 683.5 115.0Q686 144 686 175Q686 204 683.5 234.5Q681 265 676 295Q718 278 763.5 260.0Q809 242 866.0 227.0Q923 212 997.5 202.5Q1072 193 1171 193V162Q1076 162 1005.0 154.0Q934 146 878.0 131.5Q822 117 774.0 98.5Q726 80 676 60ZM100 -85Q105 -59 107.5 -30.0Q110 -1 110 30Q110 59 107.5 89.5Q105 120 100 150Q156 127 240.5 103.5Q325 80 434.5 64.0Q544 48 675 48V17Q542 17 437.0 2.5Q332 -12 249.5 -35.0Q167 -58 100 -85Z" />
  </g>
</svg>