<svg xmlns="http://www.w3.org/2000/svg" viewBox="100 -243 1153 979">
  <g transform="translate(0, 493) scale(1, -1)">
    <path fill="black" d="M100 -243Q112 -186 112 -132Q112 -78 100 -27Q129 -34 161.5 -41.5Q194 -49 231 -55Q228 229 199.0 423.0Q170 617 137 736Q188 724 242 724Q296 724 353 736Q331 656 310.0 543.5Q289 431 274.5 281.5Q260 132 258 -59Q408 -82 625.0 -97.5Q842 -113 1132 -132Q1131 -23 1126.5 76.5Q1122 176 1114 264L970 253Q966 199 962.0 143.0Q958 87 955.5 39.0Q953 -9 951 -40H938Q935 -8 931.0 39.0Q927 86 923.0 141.0Q919 196 914 249L836 245Q832 191 828.0 136.5Q824 82 821.5 36.0Q819 -10 817 -40H804Q801 -9 797.5 37.0Q794 83 790.0 136.0Q786 189 781 241L701 235Q697 183 693.5 130.5Q690 78 687.5 33.5Q685 -11 683 -40H670Q667 -10 663.5 34.0Q660 78 656.0 129.0Q652 180 647 231L566 225Q562 174 559.0 123.5Q556 73 553.5 30.5Q551 -12 550 -40H537Q532 4 527.0 75.0Q522 146 515 220Q461 214 422.0 208.0Q383 202 369 195Q375 228 375 270Q375 308 369 347Q380 341 416.5 335.5Q453 330 505 325Q500 372 494.0 409.0Q488 446 481 463Q494 460 508.0 459.0Q522 458 537 458Q552 458 567.5 459.0Q583 460 598 463Q591 448 585.5 409.0Q580 370 575 318L639 314Q634 365 627.5 405.0Q621 445 614 463Q627 460 641.0 459.0Q655 458 670 458Q685 458 700.5 459.0Q716 460 732 463Q725 447 719.0 405.5Q713 364 708 309Q725 308 741.5 307.0Q758 306 774 305Q769 359 762.5 401.5Q756 444 748 463Q761 460 775.0 459.0Q789 458 804 458Q819 458 834.5 459.0Q850 460 866 463Q859 447 852.5 402.5Q846 358 841 301Q858 300 875.5 299.0Q893 298 909 297Q903 353 896.5 398.5Q890 444 882 463Q895 460 909.0 459.0Q923 458 938 458Q953 458 968.5 459.0Q984 460 1000 463Q993 446 986.5 399.5Q980 353 974 293L1112 286Q1098 433 1077.5 546.5Q1057 660 1037 736Q1088 724 1142 724Q1196 724 1253 736Q1230 653 1208.0 523.5Q1186 394 1172.0 224.0Q1158 54 1158 -152V-160Q973 -165 808.5 -172.5Q644 -180 507.0 -189.5Q370 -199 266.5 -212.5Q163 -226 100 -243Z" />
  </g>
</svg>