<svg xmlns="http://www.w3.org/2000/svg" viewBox="100 -375 1647 1614">
  <g transform="translate(0, 864) scale(1, -1)">
    <path fill="black" d="M955 741Q951 876 945.0 970.0Q939 1064 930.5 1128.5Q922 1193 909 1239Q938 1232 970 1232Q1001 1232 1028 1239Q1016 1198 1008.0 1154.5Q1000 1111 994.0 1056.0Q988 1001 982.0 924.5Q976 848 969 741ZM765 741Q761 876 755.5 970.0Q750 1064 741.0 1128.5Q732 1193 719 1239Q748 1232 780 1232Q810 1232 837 1239Q826 1198 818.0 1154.5Q810 1111 804.0 1056.0Q798 1001 792.0 924.5Q786 848 779 741ZM959 587Q971 633 980.0 697.5Q989 762 995.0 856.5Q1001 951 1004 1086H1018Q1025 979 1031.0 902.5Q1037 826 1043.5 770.0Q1050 714 1058.0 671.0Q1066 628 1077 587Q1063 590 1048.5 592.0Q1034 594 1019 594Q1004 594 989.0 592.0Q974 590 959 587ZM768 587Q781 633 790.0 697.5Q799 762 804.5 856.5Q810 951 814 1086H828Q835 979 841.0 902.5Q847 826 853.5 770.0Q860 714 868.0 671.0Q876 628 887 587Q873 590 858.5 592.0Q844 594 829 594Q814 594 799.0 592.0Q784 590 768 587ZM1747 516Q1702 528 1637.5 537.0Q1573 546 1478.5 552.0Q1384 558 1248 561V575Q1355 582 1431.5 588.0Q1508 594 1564.0 600.5Q1620 607 1663.5 615.0Q1707 623 1747 634Q1740 607 1740 576Q1740 561 1741.5 546.0Q1743 531 1747 516ZM1095 466Q1098 482 1100.0 497.0Q1102 512 1102 527Q1102 542 1100.0 556.5Q1098 571 1095 585Q1136 573 1179.5 565.0Q1223 557 1278.0 551.0Q1333 545 1409.5 539.0Q1486 533 1593 526V512Q1458 508 1364.0 502.0Q1270 496 1205.5 487.5Q1141 479 1095 466ZM752 467Q707 479 642.5 488.0Q578 497 483.5 503.0Q389 509 253 512V526Q360 533 436.5 539.0Q513 545 569.0 551.5Q625 558 668.5 566.0Q712 574 752 585Q745 558 745 527Q745 512 746.5 497.0Q748 482 752 467ZM100 417Q103 433 105.0 448.0Q107 463 107 478Q107 493 105.0 507.5Q103 522 100 536Q141 524 184.5 516.0Q228 508 283.0 502.0Q338 496 414.5 490.0Q491 484 598 477V463Q463 459 369.0 453.0Q275 447 210.5 438.5Q146 430 100 417ZM1747 325Q1702 338 1637.5 347.0Q1573 356 1478.5 361.5Q1384 367 1248 371V385Q1355 392 1431.5 398.0Q1508 404 1564.0 410.5Q1620 417 1663.5 425.0Q1707 433 1747 444Q1740 417 1740 386Q1740 354 1747 325ZM752 276Q707 289 642.5 298.0Q578 307 483.5 312.5Q389 318 253 322V336Q360 343 436.5 349.0Q513 355 569.0 361.5Q625 368 668.5 376.0Q712 384 752 395Q745 368 745 337Q745 305 752 276ZM1095 276Q1098 292 1100.0 307.0Q1102 322 1102 337Q1102 352 1100.0 366.0Q1098 380 1095 394Q1136 383 1179.5 375.0Q1223 367 1278.0 361.0Q1333 355 1409.5 349.0Q1486 343 1593 336V322Q1458 318 1364.0 312.5Q1270 307 1205.5 298.0Q1141 289 1095 276ZM100 227Q103 243 105.0 258.0Q107 273 107 288Q107 303 105.0 317.0Q103 331 100 345Q141 334 184.5 326.0Q228 318 283.0 312.0Q338 306 414.5 300.0Q491 294 598 287V273Q463 269 369.0 263.5Q275 258 210.5 249.0Q146 240 100 227ZM1018 -222Q1011 -115 1005.0 -38.5Q999 38 992.5 94.0Q986 150 978.0 193.5Q970 237 959 277Q973 273 987.5 271.5Q1002 270 1017 270Q1049 270 1078 277Q1065 232 1056.5 167.5Q1048 103 1042.0 8.5Q1036 -86 1032 -222ZM828 -222Q821 -115 815.0 -38.5Q809 38 802.5 94.0Q796 150 788.0 193.5Q780 237 769 277Q794 270 826 270Q858 270 887 277Q875 232 866.0 167.5Q857 103 851.5 8.5Q846 -86 842 -222ZM1009 -375Q1020 -334 1028.0 -290.5Q1036 -247 1042.0 -192.0Q1048 -137 1054.0 -60.5Q1060 16 1067 123H1081Q1085 -12 1091.0 -106.0Q1097 -200 1105.5 -264.5Q1114 -329 1127 -375Q1111 -372 1096.0 -370.0Q1081 -368 1066 -368Q1051 -368 1037.0 -370.0Q1023 -372 1009 -375ZM818 -375Q830 -334 838.0 -290.5Q846 -247 852.0 -192.0Q858 -137 864.0 -60.5Q870 16 877 123H891Q895 -12 901.0 -106.0Q907 -200 916.0 -264.5Q925 -329 937 -375Q921 -372 906.0 -370.0Q891 -368 876 -368Q861 -368 846.5 -370.0Q832 -372 818 -375Z" />
  </g>
</svg>