<svg xmlns="http://www.w3.org/2000/svg" viewBox="100 -112 948 848">
  <g transform="translate(0, 624) scale(1, -1)">
    <path fill="black" d="M474 -112Q474 113 457.0 283.5Q440 454 416 578Q372 498 339.5 435.0Q307 372 277 322Q300 283 341.5 221.5Q383 160 441 84L415 63Q344 126 288.5 172.5Q233 219 187.5 255.0Q142 291 100 322Q131 348 180.5 392.5Q230 437 287.5 493.0Q345 549 397 610L411 602Q403 640 395.0 673.5Q387 707 379 736Q430 724 484 724Q538 724 595 736Q572 653 550.0 533.5Q528 414 514.0 254.0Q500 94 500 -112ZM553 207Q558 233 560.5 262.0Q563 291 563 322Q563 351 560.5 381.5Q558 412 553 442Q595 425 640.5 407.0Q686 389 743.0 374.0Q800 359 874.5 349.5Q949 340 1048 340V309Q953 309 882.0 301.0Q811 293 755.0 278.5Q699 264 651.0 245.5Q603 227 553 207Z" />
  </g>
</svg>