<svg xmlns="http://www.w3.org/2000/svg" viewBox="100 -312 2190 1427">
  <g transform="translate(0, 803) scale(1, -1)">
    <path fill="black" d="M1372 -312Q1350 -284 1327.5 -264.0Q1305 -244 1277 -230L1287 -224Q1248 -189 1205.5 -151.5Q1163 -114 1122.0 -80.5Q1081 -47 1046.5 -21.5Q1012 4 989 16Q1005 24 1023 37Q962 24 913.0 6.5Q864 -11 814 -32Q822 7 823 52Q747 47 691.0 34.5Q635 22 588.5 5.0Q542 -12 494 -32Q503 12 503 66Q503 120 494 172Q535 155 580.0 137.5Q625 120 683.5 106.0Q742 92 823 86Q821 130 814 172Q859 153 909.0 134.0Q959 115 1029 101Q1020 109 1010.0 115.0Q1000 121 989 128Q1012 140 1046.5 165.0Q1081 190 1122.0 224.0Q1163 258 1205.0 295.0Q1247 332 1286 367L1277 372Q1289 378 1300.0 385.5Q1311 393 1321 401Q1311 409 1300.0 416.5Q1289 424 1277 430L1287 435Q1248 470 1205.5 507.5Q1163 545 1122.0 579.0Q1081 613 1046.5 638.5Q1012 664 989 676Q1005 684 1023 697Q962 684 913.0 666.0Q864 648 814 628Q821 665 823 712Q747 707 691.0 694.5Q635 682 588.5 665.0Q542 648 494 628Q503 672 503 726Q503 780 494 832Q535 815 580.0 797.5Q625 780 683.5 766.0Q742 752 823 746Q821 790 814 832Q859 813 909.0 794.0Q959 775 1029 761Q1020 769 1010.0 775.0Q1000 781 989 788Q1012 800 1046.5 825.0Q1081 850 1122.0 884.0Q1163 918 1205.0 955.0Q1247 992 1286 1027L1277 1032Q1305 1047 1327.5 1067.0Q1350 1087 1372 1115Q1379 1097 1399.5 1065.5Q1420 1034 1449.5 995.5Q1479 957 1513.0 915.0Q1547 873 1580.0 832.5Q1613 792 1640 759Q1687 754 1736.5 749.5Q1786 745 1825 740Q1818 770 1808.5 790.5Q1799 811 1787.0 830.0Q1775 849 1758 873Q1801 875 1876.5 893.0Q1952 911 2048 941Q2020 982 2004 999Q2037 1005 2059.5 1012.5Q2082 1020 2102.5 1031.5Q2123 1043 2149 1058Q2149 1034 2158.5 989.0Q2168 944 2182.5 886.5Q2197 829 2214.0 767.0Q2231 705 2246 646Q2266 643 2290 643Q2266 612 2234.0 557.0Q2202 502 2167 423L2185 408L2175 395Q2171 397 2167.0 399.0Q2163 401 2158 403L2150 382Q2153 354 2163.0 309.5Q2173 265 2187.0 210.5Q2201 156 2216.5 98.5Q2232 41 2246 -13Q2256 -14 2266.5 -15.0Q2277 -16 2290 -17Q2266 -48 2234.0 -103.0Q2202 -158 2167 -237L2185 -253L2175 -266L2158 -257L2137 -310L2120 -304Q2122 -287 2124.0 -271.5Q2126 -256 2127 -242Q2074 -214 2015.5 -183.0Q1957 -152 1903.0 -123.5Q1849 -95 1807.0 -75.0Q1765 -55 1744 -51Q1772 -22 1790.0 0.5Q1808 23 1824 59Q1784 55 1734.5 50.0Q1685 45 1638 40Q1611 7 1578.0 -33.0Q1545 -73 1511.5 -114.0Q1478 -155 1449.0 -193.5Q1420 -232 1399.5 -263.0Q1379 -294 1372 -312ZM426 -310Q418 -187 411.5 -95.0Q405 -3 400.0 66.5Q395 136 388.5 190.0Q382 244 374 290Q336 220 308.0 166.0Q280 112 254 68Q274 34 310.5 -20.0Q347 -74 397 -140L374 -158Q313 -103 264.5 -62.5Q216 -22 176.5 9.5Q137 41 100 68Q127 91 170.0 129.5Q213 168 263.0 216.5Q313 265 359 318L370 312Q365 341 358.0 369.5Q351 398 343 428Q362 424 381.5 421.0Q401 418 421 417Q412 557 405.0 654.5Q398 752 391.0 822.5Q384 893 374 950Q336 880 308.0 826.0Q280 772 254 728Q274 694 310.5 640.0Q347 586 397 520L374 502Q313 557 264.5 597.5Q216 638 176.5 669.5Q137 701 100 728Q127 751 170.0 789.5Q213 828 263.0 876.5Q313 925 359 978L370 972Q365 1001 358.0 1029.5Q351 1058 343 1088Q389 1077 434 1077Q479 1077 531 1088Q516 1039 505.5 992.5Q495 946 487.0 893.5Q479 841 472.5 775.0Q466 709 461.0 621.5Q456 534 451 417Q471 418 491.0 421.0Q511 424 531 428Q516 376 504.5 327.0Q493 278 485.0 222.0Q477 166 470.5 93.0Q464 20 459.0 -78.0Q454 -176 448 -310ZM1313 452Q1351 478 1401.5 519.5Q1452 561 1505.0 607.5Q1558 654 1603 696Q1560 691 1527.5 686.5Q1495 682 1484 677Q1486 691 1488.0 706.0Q1490 721 1490 735Q1490 759 1484 784Q1494 780 1528.0 774.0Q1562 768 1607 763Q1562 805 1508.0 853.0Q1454 901 1402.5 943.5Q1351 986 1312 1011Q1277 968 1238.0 920.5Q1199 873 1165.0 828.5Q1131 784 1109 750Q1139 747 1173.0 745.0Q1207 743 1245 743V716Q1170 716 1111 710Q1134 676 1168.0 632.0Q1202 588 1240.0 541.5Q1278 495 1313 452ZM2132 454Q2137 507 2140.0 548.5Q2143 590 2143 623Q2143 658 2140 683Q2163 673 2181.5 665.0Q2200 657 2220 652Q2184 717 2143.0 787.5Q2102 858 2067 913Q1991 864 1928.5 817.5Q1866 771 1836 739Q1847 738 1857.0 737.0Q1867 736 1875 735V725Q1868 724 1860.5 723.5Q1853 723 1845 721Q1863 700 1895.0 668.5Q1927 637 1967.0 600.5Q2007 564 2050.0 526.5Q2093 489 2132 454ZM1825 80Q1818 110 1808.5 130.5Q1799 151 1787.0 170.0Q1775 189 1758 213Q1801 215 1876.5 233.0Q1952 251 2048 281Q2020 322 2004 339Q2044 346 2069.5 356.5Q2095 367 2123 383L2128 419Q2074 447 2016.0 478.0Q1958 509 1903.5 537.0Q1849 565 1807.0 584.5Q1765 604 1744 609Q1772 638 1790.0 660.5Q1808 683 1824 719Q1784 715 1734.5 710.0Q1685 705 1638 700Q1611 667 1579.0 628.0Q1547 589 1514.0 548.0Q1481 507 1452.0 469.0Q1423 431 1402 401Q1423 370 1452.5 331.5Q1482 293 1515.5 251.5Q1549 210 1581.0 171.0Q1613 132 1640 99Q1687 94 1736.5 89.5Q1786 85 1825 80ZM1313 -208Q1351 -182 1401.5 -140.5Q1452 -99 1505.0 -52.0Q1558 -5 1603 36Q1560 31 1527.5 26.5Q1495 22 1484 17Q1486 31 1488.0 46.0Q1490 61 1490 75Q1490 99 1484 124Q1494 120 1528.0 114.0Q1562 108 1607 103Q1562 145 1508.0 193.0Q1454 241 1402.5 283.5Q1351 326 1312 351Q1277 308 1238.0 260.5Q1199 213 1165.0 168.5Q1131 124 1109 90Q1139 87 1173.0 85.0Q1207 83 1245 83V56Q1170 56 1111 50Q1134 17 1168.0 -27.0Q1202 -71 1240.0 -118.0Q1278 -165 1313 -208ZM2132 -206Q2137 -153 2140.0 -111.5Q2143 -70 2143 -37Q2143 -2 2140 23Q2163 13 2181.5 5.0Q2200 -3 2220 -8Q2184 57 2143.0 127.5Q2102 198 2067 253Q1991 204 1928.5 157.5Q1866 111 1836 79Q1847 78 1857.0 77.0Q1867 76 1875 75V65Q1868 64 1860.5 63.5Q1853 63 1845 61Q1863 40 1895.0 8.5Q1927 -23 1967.0 -59.5Q2007 -96 2050.0 -133.5Q2093 -171 2132 -206Z" />
  </g>
</svg>