<svg xmlns="http://www.w3.org/2000/svg" viewBox="100 -112 1101 848">
  <g transform="translate(0, 624) scale(1, -1)">
    <path fill="black" d="M630 -112Q630 -63 629.0 -18.0Q628 27 626 70L573 67L568 63L564 66Q444 59 359.0 51.0Q274 43 212.5 33.5Q151 24 100 10Q104 24 105.5 39.0Q107 54 107 69Q107 100 100 134Q162 117 269.0 106.0Q376 95 539 88Q443 173 374 228Q282 220 217.5 209.5Q153 199 100 185Q104 199 105.5 214.0Q107 229 107 244Q107 275 100 309Q137 299 190.0 291.0Q243 283 313 277Q297 289 282.0 300.0Q267 311 253 322Q270 336 292.5 355.5Q315 375 342 400Q263 392 205.5 382.5Q148 373 100 360Q104 374 105.5 389.0Q107 404 107 419Q107 450 100 484Q190 459 391 446Q426 479 463.5 516.5Q501 554 535 593Q439 587 373.5 581.5Q308 576 261.5 569.0Q215 562 177.5 554.0Q140 546 100 535Q104 549 105.5 564.0Q107 579 107 594Q107 625 100 659Q135 649 175.0 641.5Q215 634 267.5 628.0Q320 622 392.5 617.5Q465 613 565 610Q550 681 535 736Q586 724 640 724Q694 724 751 736Q728 653 706.0 533.5Q684 414 670.0 254.0Q656 94 656 -112ZM595 436Q590 477 583.5 513.5Q577 550 571 583Q549 543 530.5 507.5Q512 472 495 440Q519 439 544.0 438.5Q569 438 595 436ZM706 207Q711 233 713.5 262.0Q716 291 716 322Q716 351 713.5 381.5Q711 412 706 442Q748 425 793.5 407.0Q839 389 896.0 374.0Q953 359 1027.5 349.5Q1102 340 1201 340V309Q1106 309 1035.0 301.0Q964 293 908.0 278.5Q852 264 804.0 245.5Q756 227 706 207ZM615 260Q611 303 607.0 342.0Q603 381 598 418Q566 417 536.0 415.0Q506 413 479 411Q454 363 430 322Q437 310 445.5 296.5Q454 283 464 267Q499 266 536.5 264.0Q574 262 615 260ZM626 85Q624 127 621.5 167.5Q619 208 616 245L484 236Q506 204 533.0 166.0Q560 128 592 86Q600 86 608.5 86.0Q617 86 626 85Z" />
  </g>
</svg>