<svg xmlns="http://www.w3.org/2000/svg" viewBox="100 -339 2852 1284">
  <g transform="translate(0, 606) scale(1, -1)">
    <path fill="black" d="M1072 26Q986 101 927.0 150.0Q868 199 817 236Q786 233 747.5 230.0Q709 227 665 224Q663 186 661.0 152.0Q659 118 658 95H645L634 222Q609 221 583.0 218.5Q557 216 531 214Q529 179 527.0 147.5Q525 116 524 95H511Q509 117 506.0 147.5Q503 178 501 212L396 203Q394 171 392.5 143.0Q391 115 390 95H377Q375 115 372.5 142.0Q370 169 368 200Q340 198 313.0 195.0Q286 192 261 189L257 95H244Q242 112 240.0 135.5Q238 159 236 185Q191 178 155.5 171.0Q120 164 100 156Q104 177 106.0 197.5Q108 218 108 240Q108 260 106.0 282.0Q104 304 100 327Q117 320 150.0 313.5Q183 307 226 302Q221 364 215.0 424.5Q209 485 202.5 531.5Q196 578 188 598Q201 595 215.0 594.0Q229 593 244 593Q259 593 274.5 594.0Q290 595 305 598Q298 581 291.0 533.5Q284 486 278.5 423.5Q273 361 268 297Q290 294 313.5 292.0Q337 290 361 288Q356 352 350.0 415.5Q344 479 337.0 528.0Q330 577 321 598Q334 595 348.0 594.0Q362 593 377 593Q392 593 407.5 594.0Q423 595 439 598Q432 580 425.0 530.5Q418 481 412.0 415.5Q406 350 401 284L496 277Q491 343 484.5 408.5Q478 474 471.0 525.5Q464 577 455 598Q468 595 482.0 594.0Q496 593 511 593Q526 593 541.5 594.0Q557 595 573 598Q567 584 562.0 551.0Q557 518 552.0 472.5Q547 427 542.5 376.0Q538 325 535 274L631 268Q627 318 622.5 369.0Q618 420 612.5 466.0Q607 512 601.5 547.0Q596 582 589 598Q602 595 616.0 594.0Q630 593 645 593Q660 593 675.5 594.0Q691 595 707 598Q701 584 695.5 550.0Q690 516 685.0 469.5Q680 423 676.0 370.0Q672 317 668 266Q710 264 747.5 262.0Q785 260 815 259Q843 282 885.0 317.0Q927 352 974.0 395.0Q1021 438 1062 484Q980 556 923.5 602.5Q867 649 817 686Q769 682 705.0 677.0Q641 672 569.5 667.0Q498 662 426.0 655.5Q354 649 289.5 642.0Q225 635 175.5 626.0Q126 617 100 606Q104 627 106.0 647.5Q108 668 108 690Q108 710 106.0 732.0Q104 754 100 777Q122 768 169.5 760.0Q217 752 282.0 745.0Q347 738 420.0 732.5Q493 727 566.0 722.5Q639 718 703.5 714.5Q768 711 815 709Q844 733 888.5 770.0Q933 807 982.0 852.0Q1031 897 1072 945L1093 927Q1052 853 1016.0 798.5Q980 744 953 698Q973 664 1008.5 611.5Q1044 559 1093 494L1083 485L1093 477Q1052 403 1016.0 348.5Q980 294 953 248Q973 214 1008.5 161.5Q1044 109 1093 44ZM1802 -339Q1718 -265 1661.5 -218.0Q1605 -171 1555 -135Q1572 -119 1599.5 -95.0Q1627 -71 1658 -42H1646Q1636 -32 1624.0 -21.0Q1612 -10 1598 1Q1592 0 1586.0 -2.5Q1580 -5 1574 -7Q1573 -11 1572.5 -16.0Q1572 -21 1572 -26H1564L1561 -11Q1445 -48 1346.0 -82.0Q1247 -116 1177.0 -143.0Q1107 -170 1078 -188Q1075 -135 1061.5 -88.5Q1048 -42 1025 -2Q1062 -1 1129.5 8.5Q1197 18 1287.0 35.5Q1377 53 1482 75L1478 106Q1465 117 1452.5 128.5Q1440 140 1426 150Q1425 139 1424.0 128.5Q1423 118 1422 108H1413L1404 169L1348 215L1345 179H1336Q1334 191 1332.0 204.5Q1330 218 1328 232Q1278 274 1231.5 309.5Q1185 345 1149.0 369.5Q1113 394 1091 403Q1120 423 1145.5 448.5Q1171 474 1196 509Q1204 489 1235.0 448.5Q1266 408 1309 357Q1305 377 1301.5 392.0Q1298 407 1295 414Q1306 412 1318.0 410.5Q1330 409 1342 409Q1353 409 1363.5 410.5Q1374 412 1385 414Q1380 402 1373.0 369.5Q1366 337 1360 298L1389 264Q1385 291 1380.5 312.0Q1376 333 1372 343Q1383 341 1395.0 339.5Q1407 338 1419 338Q1430 338 1440.5 339.5Q1451 341 1462 343Q1456 330 1449.0 293.5Q1442 257 1435 214L1467 178Q1462 211 1457.0 237.0Q1452 263 1447 274Q1458 273 1470.0 271.5Q1482 270 1495 270Q1506 270 1516.5 271.0Q1527 272 1537 274Q1531 261 1523.0 221.0Q1515 181 1508 134Q1518 124 1527.0 113.5Q1536 103 1546 93Q1540 132 1534.0 163.5Q1528 195 1522 208Q1534 206 1546.0 204.5Q1558 203 1570 203Q1581 203 1591.5 204.5Q1602 206 1613 208Q1608 197 1601.5 166.5Q1595 136 1589 98L1632 108Q1628 143 1625.0 179.0Q1622 215 1617 249Q1568 288 1515.5 331.0Q1463 374 1411.5 413.5Q1360 453 1315.0 483.0Q1270 513 1235 527Q1259 544 1279 562Q1193 579 1127.0 588.0Q1061 597 1025 598Q1048 639 1061.5 685.5Q1075 732 1078 784Q1106 767 1171.0 741.5Q1236 716 1328.0 684.5Q1420 653 1530.5 617.0Q1641 581 1759 544Q1721 586 1681.5 623.0Q1642 660 1609.0 690.0Q1576 720 1555 738Q1605 774 1661.5 821.0Q1718 868 1802 942L1822 925Q1777 866 1744.5 817.5Q1712 769 1693 738Q1717 697 1743.5 645.5Q1770 594 1807 528Q1840 518 1873.5 508.0Q1907 498 1941 487Q1902 531 1861.0 570.0Q1820 609 1785.0 640.5Q1750 672 1728 691Q1778 727 1834.5 774.0Q1891 821 1975 895L1995 878Q1950 819 1917.5 770.5Q1885 722 1866 691Q1891 649 1918.0 597.0Q1945 545 1983 477L1979 475Q2111 434 2234.5 396.0Q2358 358 2457 326Q2487 351 2530.0 387.5Q2573 424 2620.5 467.5Q2668 511 2708 557L2729 539Q2688 465 2652.0 410.5Q2616 356 2589 310Q2609 276 2644.5 223.5Q2680 171 2729 106L2708 88Q2627 159 2570.0 206.0Q2513 253 2465 289L2464 272Q2364 240 2239.0 201.0Q2114 162 1980 121Q1943 55 1916.5 4.0Q1890 -47 1866 -88Q1885 -119 1917.5 -167.5Q1950 -216 1995 -275L1975 -292Q1891 -218 1834.5 -171.0Q1778 -124 1728 -88Q1749 -69 1782.0 -39.5Q1815 -10 1854.5 27.5Q1894 65 1932 106L1802 65Q1768 3 1742.0 -46.0Q1716 -95 1693 -135Q1712 -166 1744.5 -214.5Q1777 -263 1822 -322ZM2831 -112Q2821 44 2813.5 157.5Q2806 271 2799.0 354.0Q2792 437 2783.5 501.0Q2775 565 2764.0 621.0Q2753 677 2736 736Q2787 724 2841 724Q2895 724 2952 736Q2934 677 2921.5 620.5Q2909 564 2899.5 499.5Q2890 435 2883.0 351.5Q2876 268 2870.0 155.0Q2864 42 2857 -112ZM1612 286Q1604 348 1594.0 400.5Q1584 453 1571 485Q1620 475 1675 478Q1604 495 1535.5 509.5Q1467 524 1404 537Q1446 479 1502.5 412.0Q1559 345 1612 286ZM1675 117Q1810 147 1948.5 179.0Q2087 211 2218.0 241.5Q2349 272 2458 295L2447 303Q2345 325 2224.5 352.5Q2104 380 1976.5 409.5Q1849 439 1723 467Q1713 433 1703.5 376.5Q1694 320 1687.0 252.5Q1680 185 1675 117ZM1501 79 1507 81Q1506 82 1505.0 83.5Q1504 85 1502 86Q1501 84 1501 79ZM1666 -34Q1686 -15 1707.5 6.0Q1729 27 1749 49Q1729 42 1709.0 36.0Q1689 30 1669 23ZM1642 -7Q1642 -2 1641.5 3.5Q1641 9 1640 14L1626 10Z" />
  </g>
</svg>