<svg xmlns="http://www.w3.org/2000/svg" viewBox="100 -316 1674 1114">
  <g transform="translate(0, 482) scale(1, -1)">
    <path fill="black" d="M188 -316Q175 -287 156.0 -264.5Q137 -242 114 -223Q119 -221 128.0 -217.0Q137 -213 150 -206Q146 -169 141.0 -115.0Q136 -61 131.0 -1.5Q126 58 120.5 112.0Q115 166 110.0 205.0Q105 244 100 255Q113 253 126.5 251.0Q140 249 153 248L143 254Q192 281 233 324Q212 346 190.5 362.5Q169 379 143 394Q172 408 214.5 439.0Q257 470 307.0 511.5Q357 553 409.5 599.0Q462 645 510 689L499 695Q534 715 561.5 739.0Q589 763 617 798Q625 776 651.0 737.5Q677 699 713.5 651.0Q750 603 791.5 551.5Q833 500 873.5 450.5Q914 401 948 360Q945 403 939 442Q967 431 1020.5 419.0Q1074 407 1145.5 395.5Q1217 384 1298.5 374.0Q1380 364 1464.5 356.5Q1549 349 1628.5 344.5Q1708 340 1774 340V309Q1711 309 1634.0 305.0Q1557 301 1474.5 294.5Q1392 288 1311.0 278.5Q1230 269 1158.0 257.5Q1086 246 1029.0 233.5Q972 221 939 207Q942 225 944.5 244.5Q947 264 948 285Q915 244 874.0 195.0Q833 146 791.5 94.5Q750 43 713.5 -5.0Q677 -53 651.0 -91.0Q625 -129 617 -152Q589 -117 561.5 -92.5Q534 -68 499 -49L511 -42L482 -15Q460 -37 425.5 -70.5Q391 -104 352.5 -142.0Q314 -180 278.5 -215.5Q243 -251 218.5 -278.0Q194 -305 188 -316ZM544 -22 553 -16Q549 20 544.0 67.0Q539 114 534.0 163.0Q529 212 523.5 256.5Q518 301 513.5 333.0Q509 365 504 376Q536 370 567 370Q581 370 595.0 371.0Q609 372 623 376Q619 366 613.5 336.0Q608 306 602.5 263.5Q597 221 592.0 173.5Q587 126 582.0 80.0Q577 34 573 -2Q614 28 663.5 68.5Q713 109 764.0 154.5Q815 200 862.5 243.5Q910 287 948 323Q907 362 854.0 410.5Q801 459 745.0 507.5Q689 556 636.5 598.5Q584 641 543 668Q507 625 468.0 577.0Q429 529 392.0 482.5Q355 436 325.5 395.0Q296 354 278 324Q296 294 326.0 252.5Q356 211 393.0 164.0Q430 117 469.0 69.5Q508 22 544 -22ZM1092 -228Q1096 -207 1098.0 -186.5Q1100 -166 1100 -145Q1100 -125 1098.0 -103.0Q1096 -81 1092 -58Q1097 -60 1103.0 -62.0Q1109 -64 1115 -66Q1108 -28 1100.5 3.0Q1093 34 1087 48Q1105 43 1121 42Q1115 95 1106.5 141.0Q1098 187 1087 215Q1116 209 1144 209Q1152 209 1160.5 209.5Q1169 210 1178 211Q1178 212 1177.5 213.0Q1177 214 1177 215Q1180 214 1183.0 213.5Q1186 213 1189 213Q1192 213 1195.5 213.5Q1199 214 1203 215L1201 211Q1208 210 1215.5 209.5Q1223 209 1230 209Q1239 209 1248.5 209.5Q1258 210 1268 211Q1268 212 1267.5 213.0Q1267 214 1267 215Q1270 214 1273.0 213.5Q1276 213 1279 213Q1282 213 1285.5 213.5Q1289 214 1293 215L1291 211Q1298 210 1305.5 209.5Q1313 209 1320 209Q1329 209 1338.5 209.5Q1348 210 1358 211Q1358 212 1357.5 213.0Q1357 214 1357 215Q1360 214 1363.0 213.5Q1366 213 1369 213Q1372 213 1375.5 213.5Q1379 214 1383 215L1381 211Q1389 210 1396.5 209.5Q1404 209 1412 209Q1440 209 1473 215Q1465 195 1458.0 158.0Q1451 121 1445 76Q1445 76 1447 78Q1457 46 1481.0 -4.5Q1505 -55 1548 -126H1554V-148Q1521 -151 1489.0 -154.0Q1457 -157 1426 -161V-162H1416Q1317 -173 1234.0 -188.5Q1151 -204 1092 -228ZM167 -196Q199 -178 239.5 -153.0Q280 -128 323.5 -100.0Q367 -72 406.0 -47.0Q445 -22 472 -6Q405 54 335.5 113.0Q266 172 210 212Q204 177 198.0 123.5Q192 70 186.5 11.0Q181 -48 176.0 -103.0Q171 -158 167 -196ZM1225 -92Q1218 -22 1210.0 49.0Q1202 120 1190 171Q1185 146 1180.0 113.0Q1175 80 1171 44Q1177 45 1182.5 46.0Q1188 47 1194 48Q1187 32 1179.5 -2.5Q1172 -37 1164 -80ZM1317 -106Q1310 -33 1301.5 42.0Q1293 117 1280 171Q1273 138 1267.0 93.0Q1261 48 1256.5 -0.5Q1252 -49 1249 -96Q1266 -99 1282.5 -101.5Q1299 -104 1317 -106ZM1408 -116 1399 -31Q1384 -22 1371.0 -15.0Q1358 -8 1348 -4Q1372 7 1393 25Q1389 66 1383.5 103.5Q1378 141 1370 171Q1363 136 1356.5 89.0Q1350 42 1345.5 -9.5Q1341 -61 1338 -109ZM1528 -125Q1503 -102 1479.0 -83.5Q1455 -65 1433 -51Q1432 -68 1430.5 -84.5Q1429 -101 1428 -118Q1453 -120 1478.0 -121.5Q1503 -123 1528 -125Z" />
  </g>
</svg>