<svg xmlns="http://www.w3.org/2000/svg" viewBox="100 -316 2852 1278">
  <g transform="translate(0, 646) scale(1, -1)">
    <path fill="black" d="M188 -316Q175 -287 156.0 -264.5Q137 -242 114 -223Q119 -221 128.0 -217.0Q137 -213 150 -206Q146 -169 141.0 -115.0Q136 -61 131.0 -1.5Q126 58 120.5 112.0Q115 166 110.0 205.0Q105 244 100 255Q113 253 126.5 251.0Q140 249 153 248L143 254Q192 281 233 324Q212 346 190.5 362.5Q169 379 143 394Q172 408 214.5 439.0Q257 470 307.0 511.5Q357 553 409.5 599.0Q462 645 510 689L499 695Q534 715 561.5 739.0Q589 763 617 798Q625 776 651.0 737.5Q677 699 713.5 651.0Q750 603 791.5 551.5Q833 500 873.5 450.5Q914 401 948 360Q945 403 939 442Q962 432 1002.5 422.5Q1043 413 1095 403Q1082 510 1067.5 595.0Q1053 680 1037 717Q1067 712 1094.5 709.5Q1122 707 1148 707Q1171 707 1193.5 708.5Q1216 710 1238 714Q1237 715 1237 717L1245 715L1252 717Q1251 716 1251 714Q1276 710 1299.5 708.5Q1323 707 1345 707Q1373 707 1399.5 709.5Q1426 712 1452 717Q1439 685 1427.0 631.0Q1415 577 1405.0 508.5Q1395 440 1387 363Q1423 359 1459.5 356.0Q1496 353 1531 351Q1566 353 1602.0 356.0Q1638 359 1673 363Q1683 470 1688.0 576.5Q1693 683 1693 767H1724Q1724 684 1729.5 579.5Q1735 475 1745 371Q1779 375 1811.5 379.5Q1844 384 1875 388Q1883 490 1888.0 589.0Q1893 688 1893 767H1924Q1924 689 1929.0 593.0Q1934 497 1942 399Q1998 409 2042.0 420.0Q2086 431 2114 442Q2110 423 2108.0 403.0Q2106 383 2104 361Q2138 402 2178.5 451.5Q2219 501 2260.5 552.5Q2302 604 2338.5 651.5Q2375 699 2401.0 737.5Q2427 776 2435 798Q2463 763 2491.0 739.0Q2519 715 2553 695Q2550 694 2547.0 692.0Q2544 690 2540 688L2570 661Q2592 683 2626.5 716.5Q2661 750 2699.5 788.0Q2738 826 2773.5 861.5Q2809 897 2833.5 924.0Q2858 951 2864 962Q2878 933 2897.0 911.0Q2916 889 2938 869Q2926 866 2902 852Q2906 815 2911.0 761.0Q2916 707 2921.0 647.5Q2926 588 2931.5 533.5Q2937 479 2942.0 440.5Q2947 402 2952 391Q2939 393 2926.0 395.0Q2913 397 2899 397L2909 392Q2883 377 2861.0 360.5Q2839 344 2819 322Q2859 279 2909 252Q2881 238 2838.0 206.5Q2795 175 2744.5 133.5Q2694 92 2642.0 46.5Q2590 1 2542 -43L2553 -49Q2519 -68 2491.0 -92.5Q2463 -117 2435 -152Q2427 -130 2401.0 -92.0Q2375 -54 2338.5 -6.0Q2302 42 2260.5 93.5Q2219 145 2178.5 194.0Q2138 243 2105 284Q2107 244 2114 207Q2092 216 2051.5 226.0Q2011 236 1958 245Q1970 139 1985.0 54.5Q2000 -30 2016 -68Q1986 -63 1958.0 -60.5Q1930 -58 1904 -58Q1881 -58 1859.0 -59.5Q1837 -61 1815 -65Q1815 -67 1816 -68L1808 -66L1801 -68Q1801 -66 1802 -65Q1777 -61 1754.0 -59.5Q1731 -58 1708 -58Q1680 -58 1653.5 -60.5Q1627 -63 1601 -68Q1614 -36 1625.5 17.5Q1637 71 1647.0 140.0Q1657 209 1665 285Q1629 289 1593.0 292.0Q1557 295 1521 298Q1487 295 1451.0 292.0Q1415 289 1380 285Q1370 178 1365.0 72.0Q1360 -34 1360 -118H1329Q1329 -35 1323.5 69.0Q1318 173 1308 278Q1274 274 1241.5 269.5Q1209 265 1178 260Q1169 159 1164.5 60.0Q1160 -39 1160 -118H1129Q1129 -40 1124.0 56.0Q1119 152 1110 249Q1055 239 1010.5 228.5Q966 218 939 207Q942 225 944.5 244.5Q947 264 948 285Q915 244 874.0 195.0Q833 146 791.5 94.5Q750 43 713.5 -5.0Q677 -53 651.0 -91.0Q625 -129 617 -152Q589 -117 561.5 -92.5Q534 -68 499 -49L511 -42L482 -15Q460 -37 425.5 -70.5Q391 -104 352.5 -142.0Q314 -180 278.5 -215.5Q243 -251 218.5 -278.0Q194 -305 188 -316ZM2842 434Q2847 469 2853.0 522.5Q2859 576 2864.5 635.0Q2870 694 2875.0 749.0Q2880 804 2884 842Q2853 824 2812.0 799.0Q2771 774 2727.5 746.0Q2684 718 2645.0 693.5Q2606 669 2579 652Q2646 592 2716.5 533.0Q2787 474 2842 434ZM1298 374Q1287 477 1273.0 563.0Q1259 649 1244 696Q1228 647 1214.5 565.5Q1201 484 1190 388Q1216 384 1243.0 380.5Q1270 377 1298 374ZM2509 -22Q2545 22 2583.5 69.5Q2622 117 2659.0 163.5Q2696 210 2726.0 251.0Q2756 292 2774 322Q2756 352 2726.0 393.0Q2696 434 2659.0 481.0Q2622 528 2583.0 576.0Q2544 624 2508 668L2499 662Q2503 626 2508.0 579.0Q2513 532 2518.0 482.5Q2523 433 2528.0 388.5Q2533 344 2538.0 312.5Q2543 281 2548 270Q2517 276 2485 276Q2472 276 2457.5 275.0Q2443 274 2429 270Q2434 280 2439.0 310.0Q2444 340 2449.5 382.5Q2455 425 2460.0 472.5Q2465 520 2470.0 565.5Q2475 611 2479 648Q2437 618 2388.0 577.0Q2339 536 2288.0 491.0Q2237 446 2189.5 402.5Q2142 359 2104 323V322Q2145 283 2198.0 234.5Q2251 186 2307.0 137.5Q2363 89 2415.5 47.0Q2468 5 2509 -22ZM544 -22 553 -16Q549 20 544.0 67.0Q539 114 534.0 163.0Q529 212 523.5 256.5Q518 301 513.5 333.0Q509 365 504 376Q536 370 567 370Q581 370 595.0 371.0Q609 372 623 376Q619 366 613.5 336.0Q608 306 602.5 263.5Q597 221 592.0 173.5Q587 126 582.0 80.0Q577 34 573 -2Q614 28 663.5 68.5Q713 109 764.0 154.5Q815 200 862.5 243.5Q910 287 948 323Q907 362 854.0 410.5Q801 459 745.0 507.5Q689 556 636.5 598.5Q584 641 543 668Q507 625 468.0 577.0Q429 529 392.0 482.5Q355 436 325.5 395.0Q296 354 278 324Q296 294 326.0 252.5Q356 211 393.0 164.0Q430 117 469.0 69.5Q508 22 544 -22ZM1808 -47Q1825 2 1839.0 83.5Q1853 165 1863 261Q1837 265 1810.0 268.5Q1783 272 1754 275Q1765 172 1779.5 86.0Q1794 0 1808 -47ZM167 -196Q199 -178 239.5 -153.0Q280 -128 323.5 -100.0Q367 -72 406.0 -47.0Q445 -22 472 -6Q405 54 335.5 113.0Q266 172 210 212Q204 177 198.0 123.5Q192 70 186.5 11.0Q181 -48 176.0 -103.0Q171 -158 167 -196Z" />
  </g>
</svg>