<svg xmlns="http://www.w3.org/2000/svg" viewBox="100 -93 947 809">
  <g transform="translate(0, 623) scale(1, -1)">
    <path fill="black" d="M264 -93Q263 -73 262.5 -53.5Q262 -34 260 -15Q234 -30 211.0 -44.0Q188 -58 168 -72Q153 44 100 133Q135 135 170.5 138.0Q206 141 244 146Q235 214 222.5 269.5Q210 325 196 361Q219 357 241.0 355.0Q263 353 283 353Q304 353 324.5 355.0Q345 357 366 361Q350 320 337.5 268.5Q325 217 315 157Q342 162 370.0 167.0Q398 172 429 178Q420 235 409.5 282.0Q399 329 386 361Q409 357 431.0 355.0Q453 353 473 353Q494 353 514.5 355.0Q535 357 556 361Q542 327 531.0 285.5Q520 244 512 197Q535 202 560.5 208.0Q586 214 612 221Q605 264 596.0 300.0Q587 336 576 361Q599 357 621.0 355.0Q643 353 663 353Q684 353 704.5 355.0Q725 357 746 361Q736 336 727.5 307.0Q719 278 712 246Q774 263 845.5 283.0Q917 303 997 326Q816 378 680.5 412.0Q545 446 441.5 466.0Q338 486 256.0 496.5Q174 507 100 511Q153 600 168 716Q222 680 298.5 640.0Q375 600 480.5 554.0Q586 508 726.0 455.0Q866 402 1047 339L1045 312Q849 244 700 185Q690 124 682.0 54.0Q674 -16 666 -93H644Q641 -28 635.5 34.5Q630 97 622 154Q588 141 557.0 127.5Q526 114 497 101Q491 56 486.0 8.0Q481 -40 476 -93H454Q449 -4 442 76Q400 57 363.5 39.0Q327 21 295 4L286 -93Z" />
  </g>
</svg>