<svg xmlns="http://www.w3.org/2000/svg" viewBox="100 -112 930 848">
  <g transform="translate(0, 624) scale(1, -1)">
    <path fill="black" d="M897 -112 891 59Q833 58 755.5 55.0Q678 52 593.0 47.0Q508 42 425.0 36.5Q342 31 272.5 25.0Q203 19 157.0 13.5Q111 8 100 3Q103 22 105.5 40.5Q108 59 108 78Q108 94 106.0 110.0Q104 126 100 142Q111 138 154.5 132.0Q198 126 264.5 120.0Q331 114 411.5 108.0Q492 102 577.0 97.5Q662 93 743.0 89.5Q824 86 890 85Q889 121 887.0 155.0Q885 189 883 220Q837 219 779.0 217.0Q721 215 657 212Q656 186 655.5 159.5Q655 133 655 107H630Q630 156 627 210L595 208L628 144L605 125Q580 147 558.5 166.5Q537 186 518 204Q443 199 372.5 193.5Q302 188 244.0 182.5Q186 177 148.0 172.5Q110 168 100 164Q103 183 105.5 201.5Q108 220 108 239Q108 255 106.0 271.0Q104 287 100 303Q112 298 162.0 291.5Q212 285 288.5 278.5Q365 272 453 266Q427 291 403.5 312.5Q380 334 354 353Q289 348 234.5 343.0Q180 338 145.0 333.5Q110 329 100 325Q103 344 105.5 362.5Q108 381 108 400Q108 416 106.0 432.0Q104 448 100 464Q111 460 156.0 454.0Q201 448 270.0 441.5Q339 435 420 429Q440 450 462.5 474.0Q485 498 508 525Q434 520 365.0 515.0Q296 510 240.0 504.5Q184 499 147.0 494.5Q110 490 100 486Q103 505 105.5 523.5Q108 542 108 561Q108 577 106.0 593.0Q104 609 100 625Q111 621 152.5 615.0Q194 609 257.5 603.0Q321 597 398.0 591.5Q475 586 557 581L587 617Q583 640 579.5 657.0Q576 674 573 681Q592 678 610.5 675.5Q629 673 648 673Q664 673 680.0 675.0Q696 677 712 681Q702 657 690 574Q732 573 772.5 571.5Q813 570 850 569Q843 616 834.0 657.0Q825 698 814 736Q844 729 872.5 726.0Q901 723 927 723Q981 723 1030 736Q1014 677 1001.0 621.0Q988 565 978.0 501.0Q968 437 959.0 354.0Q950 271 941.5 157.5Q933 44 923 -112ZM870 407Q866 445 862.5 478.5Q859 512 854 542L684 535Q680 508 676.5 477.5Q673 447 670 414Q724 412 774.5 410.0Q825 408 870 407ZM612 417 600 531Q596 530 592.5 530.0Q589 530 586 530L547 421Q564 420 580.0 419.0Q596 418 612 417ZM882 246Q880 284 877.5 317.0Q875 350 872 381Q829 380 776.5 378.0Q724 376 666 373Q664 345 662.0 315.0Q660 285 658 254Q719 251 776.0 249.0Q833 247 882 246ZM625 256Q622 313 616 370Q594 369 572.0 368.0Q550 367 527 365Q525 361 525 359Q530 347 542.5 319.0Q555 291 571 259Z" />
  </g>
</svg>