<svg xmlns="http://www.w3.org/2000/svg" viewBox="100 -112 1639 848">
  <g transform="translate(0, 624) scale(1, -1)">
    <path fill="black" d="M728 -112V-71Q643 -30 544.0 12.0Q445 54 355 89L349 -15H330Q330 5 329.0 35.0Q328 65 326 100Q240 134 178.0 156.0Q116 178 100 179Q122 205 139.5 241.0Q157 277 169 308Q157 340 139.5 376.0Q122 412 100 437Q112 438 150.5 451.0Q189 464 246.5 485.5Q304 507 372.5 534.0Q441 561 513.0 592.0Q585 623 653 654Q648 676 643.0 696.5Q638 717 633 736Q684 724 738 724Q792 724 849 736Q841 707 833.0 673.0Q825 639 817 601Q836 597 884.5 590.5Q933 584 1000 577Q994 603 987.5 627.5Q981 652 975 676Q1026 664 1080 664Q1134 664 1191 676Q1184 651 1177.5 622.0Q1171 593 1165 561L1333 549Q1321 590 1309.0 621.0Q1297 652 1286 676Q1315 672 1343.5 669.5Q1372 667 1402 667Q1427 667 1452.0 669.0Q1477 671 1502 676Q1492 652 1479.5 619.0Q1467 586 1453 542Q1484 541 1512.0 540.0Q1540 539 1567 538Q1557 597 1545.5 646.0Q1534 695 1523 736Q1574 724 1628 724Q1682 724 1739 736Q1716 653 1694.0 533.5Q1672 414 1658.0 254.0Q1644 94 1644 -112H1618Q1618 -53 1616.5 2.0Q1615 57 1613 109Q1575 108 1526.0 106.0Q1477 104 1422 101Q1419 75 1417.0 51.0Q1415 27 1414 8H1388Q1386 28 1383.0 51.0Q1380 74 1376 99Q1311 95 1243.0 90.0Q1175 85 1111 79Q1110 61 1109.0 43.0Q1108 25 1108 8H1082L1077 76Q1008 70 950.5 64.0Q893 58 856.0 52.5Q819 47 809 43Q812 62 814.5 84.0Q817 106 817 129Q817 167 809 202Q819 198 854.5 192.5Q890 187 945.0 180.5Q1000 174 1067 168Q1059 242 1047.5 319.5Q1036 397 1021 473Q938 465 880.0 457.5Q822 450 809 445Q812 464 814.5 486.0Q817 508 817 531Q817 545 816.0 557.5Q815 570 813 583Q790 467 773.0 310.0Q756 153 754 -53Q773 -63 790.0 -72.5Q807 -82 822 -90L810 -111Q797 -104 783.0 -97.0Q769 -90 754 -83V-112ZM364 203Q378 220 388.5 237.5Q399 255 409 280H408Q427 300 439.0 319.5Q451 339 464 367Q463 367 462.5 367.5Q462 368 461 368Q481 389 493.0 408.5Q505 428 518 458Q533 437 565.0 408.0Q597 379 636.5 349.0Q676 319 710 293L699 393Q655 416 608.5 433.5Q562 451 519 458Q539 479 551.0 498.5Q563 518 576 548Q593 523 626.0 493.0Q659 463 693 434Q686 486 678.0 532.5Q670 579 661 619Q601 583 535.0 542.0Q469 501 406.5 460.5Q344 420 294 386Q314 382 335 382Q359 382 392 388Q383 366 376.0 314.5Q369 263 364 203ZM1611 135Q1605 245 1595.0 338.5Q1585 432 1572 510L1443 505Q1440 495 1437.5 485.0Q1435 475 1433 464Q1464 467 1501 473Q1485 435 1471.0 379.5Q1457 324 1445.5 262.0Q1434 200 1426 142Q1477 139 1524.0 137.0Q1571 135 1611 135ZM1369 145Q1360 200 1347.5 258.5Q1335 317 1319.5 372.5Q1304 428 1285 473Q1320 465 1355 464L1346 499Q1298 495 1248.5 492.0Q1199 489 1151 484Q1139 408 1130.0 326.0Q1121 244 1116 164Q1177 159 1241.0 154.0Q1305 149 1369 145ZM317 215Q312 267 305.0 312.0Q298 357 288 382Q252 358 225.0 338.5Q198 319 184 308Q201 294 236.0 270.0Q271 246 317 215ZM720 159Q719 185 717.0 210.5Q715 236 713 261Q676 283 631.5 305.0Q587 327 544.0 344.0Q501 361 467 367Q481 349 511.5 322.0Q542 295 579.5 265.0Q617 235 654.5 207.0Q692 179 720 159ZM726 31Q725 57 724.0 82.5Q723 108 721 132Q691 150 649.5 173.5Q608 197 563.0 219.5Q518 242 477.5 258.5Q437 275 410 280Q421 265 448.5 240.5Q476 216 513.5 187.0Q551 158 591.0 128.5Q631 99 667.0 73.5Q703 48 726 31ZM727 -38Q727 -27 727.0 -15.5Q727 -4 726 6Q704 20 668.5 40.5Q633 61 590.5 84.0Q548 107 505.0 128.0Q462 149 424.5 165.0Q387 181 362 187V185Q419 149 482.5 109.0Q546 69 609.0 31.5Q672 -6 727 -38Z" />
  </g>
</svg>