<svg xmlns="http://www.w3.org/2000/svg" viewBox="100 -112 1639 848">
  <g transform="translate(0, 624) scale(1, -1)">
    <path fill="black" d="M728 -112V-71Q643 -30 544.0 12.0Q445 54 355 89L349 -15H330Q330 5 329.0 35.0Q328 65 326 100Q240 134 178.0 156.0Q116 178 100 179Q122 205 139.5 241.0Q157 277 169 308Q157 340 139.5 376.0Q122 412 100 437Q112 438 150.5 451.0Q189 464 246.5 485.5Q304 507 372.5 534.0Q441 561 513.0 592.0Q585 623 653 654Q648 676 643.0 696.5Q638 717 633 736Q684 724 738 724Q792 724 849 736Q841 707 833.0 673.0Q825 639 817 601Q832 596 862.0 589.5Q892 583 938 575Q939 589 938.0 603.5Q937 618 933 634Q943 630 983.0 624.5Q1023 619 1083.0 613.5Q1143 608 1211 603Q1207 645 1203.5 673.5Q1200 702 1198 709Q1211 707 1222.5 705.5Q1234 704 1245 704Q1259 704 1271.5 705.5Q1284 707 1297 709Q1293 702 1290.0 672.0Q1287 642 1284 598Q1346 594 1406.5 592.0Q1467 590 1516 590V571Q1473 571 1411.0 568.5Q1349 566 1281 561Q1280 557 1280.0 553.5Q1280 550 1280 545Q1342 542 1413.5 540.0Q1485 538 1567 537Q1557 596 1545.5 645.5Q1534 695 1523 736Q1574 724 1628 724Q1682 724 1739 736Q1716 653 1694.0 533.5Q1672 414 1658.0 254.0Q1644 94 1644 -112H1618Q1618 -53 1616.5 2.5Q1615 58 1613 110Q1430 109 1299.0 104.0Q1168 99 1079.5 91.0Q991 83 936.5 74.0Q882 65 852.5 56.5Q823 48 809 43Q812 62 814.5 84.0Q817 106 817 129Q817 167 809 202Q823 196 851.0 188.0Q879 180 932.0 170.5Q985 161 1073.0 153.5Q1161 146 1292.5 140.5Q1424 135 1611 135Q1605 246 1595.0 339.5Q1585 433 1572 511Q1487 510 1413.5 508.5Q1340 507 1277 504Q1276 500 1276.0 496.5Q1276 493 1276 488Q1341 484 1403.5 482.0Q1466 480 1516 480V461Q1472 461 1407.5 458.5Q1343 456 1274 451L1269 379Q1335 375 1399.5 372.5Q1464 370 1516 370V351Q1471 351 1404.5 348.5Q1338 346 1267 341L1262 269Q1330 265 1396.5 262.5Q1463 260 1516 260V241Q1470 241 1401.5 238.0Q1333 235 1259 230Q1258 205 1255.5 185.0Q1253 165 1251 153H1244Q1243 164 1241.5 184.0Q1240 204 1238 229Q1166 224 1100.0 218.0Q1034 212 989.0 206.5Q944 201 933 197Q935 211 937.0 225.5Q939 240 939 254Q939 278 933 303Q944 299 988.0 293.0Q1032 287 1097.0 281.5Q1162 276 1235 271L1231 338Q1160 334 1095.5 328.5Q1031 323 987.0 317.5Q943 312 933 308Q935 322 937.0 336.0Q939 350 939 364Q939 388 933 413Q943 409 986.0 403.5Q1029 398 1092.5 392.0Q1156 386 1228 381L1223 448Q1154 443 1091.0 437.5Q1028 432 985.5 427.0Q943 422 933 417Q935 431 936.5 445.5Q938 460 938 475Q884 467 853.0 458.5Q822 450 809 445Q812 464 814.5 486.0Q817 508 817 531Q817 545 816.0 557.5Q815 570 813 583Q790 467 773.0 310.0Q756 153 754 -53Q773 -63 790.0 -72.5Q807 -82 822 -90L810 -111Q797 -104 783.0 -97.0Q769 -90 754 -83V-112ZM364 203Q378 220 388.5 237.5Q399 255 409 280H408Q427 300 439.0 319.5Q451 339 464 367Q463 367 462.5 367.5Q462 368 461 368Q481 389 493.0 408.5Q505 428 518 458Q533 437 565.0 408.0Q597 379 636.5 349.0Q676 319 710 293L699 393Q655 416 608.5 433.5Q562 451 519 458Q539 479 551.0 498.5Q563 518 576 548Q593 523 626.0 493.0Q659 463 693 434Q686 486 678.0 532.5Q670 579 661 619Q601 583 535.0 542.0Q469 501 406.5 460.5Q344 420 294 386Q314 382 335 382Q359 382 392 388Q383 366 376.0 314.5Q369 263 364 203ZM1215 548V557L1152 553ZM1220 492Q1220 494 1219.5 496.5Q1219 499 1219 501Q1201 500 1184.5 499.5Q1168 499 1152 497Q1169 496 1186.0 494.5Q1203 493 1220 492ZM317 215Q312 267 305.0 312.0Q298 357 288 382Q252 358 225.0 338.5Q198 319 184 308Q201 294 236.0 270.0Q271 246 317 215ZM720 159Q719 185 717.0 210.5Q715 236 713 261Q676 283 631.5 305.0Q587 327 544.0 344.0Q501 361 467 367Q481 349 511.5 322.0Q542 295 579.5 265.0Q617 235 654.5 207.0Q692 179 720 159ZM726 31Q725 57 724.0 82.5Q723 108 721 132Q691 150 649.5 173.5Q608 197 563.0 219.5Q518 242 477.5 258.5Q437 275 410 280Q420 265 448.0 240.5Q476 216 513.5 187.0Q551 158 591.0 128.5Q631 99 667.0 73.5Q703 48 726 31ZM727 -38Q727 -27 727.0 -15.5Q727 -4 726 6Q704 20 668.5 40.5Q633 61 590.5 84.0Q548 107 505.0 128.0Q462 149 424.5 165.0Q387 181 362 187V186Q419 150 482.5 110.0Q546 70 609.0 32.0Q672 -6 727 -38Z" />
  </g>
</svg>