<svg xmlns="http://www.w3.org/2000/svg" viewBox="100 -112 1639 848">
  <g transform="translate(0, 624) scale(1, -1)">
    <path fill="black" d="M728 -112V-71Q643 -30 544.0 12.0Q445 54 355 89L349 -15H330Q330 5 329.0 35.0Q328 65 326 100Q240 134 178.0 156.0Q116 178 100 179Q122 205 139.5 241.0Q157 277 169 308Q157 340 139.5 376.0Q122 412 100 437Q112 438 150.5 451.0Q189 464 246.5 485.5Q304 507 372.5 534.0Q441 561 513.0 592.0Q585 623 653 654Q648 676 643.0 696.5Q638 717 633 736Q684 724 738 724Q792 724 849 736Q841 707 833.0 673.0Q825 639 817 601Q835 597 879.5 591.0Q924 585 986.5 578.5Q1049 572 1122.5 565.5Q1196 559 1274.0 553.5Q1352 548 1427.0 544.0Q1502 540 1567 538Q1557 597 1545.5 646.0Q1534 695 1523 736Q1574 724 1628 724Q1682 724 1739 736Q1716 653 1694.0 533.5Q1672 414 1658.0 254.0Q1644 94 1644 -112H1618Q1618 -53 1616.5 2.0Q1615 57 1613 109Q1557 108 1479.0 104.5Q1401 101 1314.5 95.0Q1228 89 1143.0 82.0Q1058 75 986.5 67.5Q915 60 867.5 54.0Q820 48 809 43Q812 62 814.5 84.0Q817 106 817 129Q817 167 809 202Q820 198 865.0 191.5Q910 185 976 177Q970 189 963.5 197.5Q957 206 949 215Q951 215 953.0 215.5Q955 216 958 217Q958 228 957.5 241.5Q957 255 956 270Q935 268 911.0 264.5Q887 261 868.0 258.0Q849 255 842 252Q844 265 843.0 277.0Q842 289 842 301L843 300Q844 311 843.0 322.0Q842 333 842 343L843 342Q844 353 843.0 363.0Q842 373 842 383Q852 379 883.0 374.0Q914 369 945 364Q944 379 940 391Q917 389 895.0 385.0Q873 381 866 379Q868 390 867.5 400.0Q867 410 866 420Q872 417 893.0 412.5Q914 408 937 405Q935 407 935 409L957 406Q955 408 953.0 408.0Q951 408 949 409Q960 420 967.5 432.0Q975 444 983 462Q987 455 1012.5 435.0Q1038 415 1076.0 387.5Q1114 360 1157 329L1194 350Q1178 363 1168.5 371.0Q1159 379 1148 386Q1153 378 1161.0 365.5Q1169 353 1176 345L1168 338Q1139 361 1126.5 371.5Q1114 382 1096 392Q1109 400 1123.5 410.5Q1138 421 1168 443L1176 439Q1166 427 1160.5 418.0Q1155 409 1148 399Q1159 406 1172.5 415.5Q1186 425 1210 443L1217 439Q1207 426 1200.5 415.0Q1194 404 1186 392Q1188 388 1194.0 378.0Q1200 368 1207 358Q1263 392 1309.5 420.0Q1356 448 1374 456L1378 452Q1392 445 1415.0 436.5Q1438 428 1468 423Q1461 434 1453.0 444.5Q1445 455 1436 468Q1456 469 1475.0 475.0Q1494 481 1516 491Q1517 460 1517.0 436.0Q1517 412 1521.0 382.5Q1525 353 1537 305Q1554 300 1569 299Q1551 276 1537.5 257.0Q1524 238 1510 210H1512V202H1506Q1500 189 1493.5 174.0Q1487 159 1479 139Q1515 138 1548.5 136.5Q1582 135 1611 135Q1605 245 1595.0 338.5Q1585 432 1572 510Q1511 508 1434.5 504.0Q1358 500 1276.0 494.0Q1194 488 1115.5 481.5Q1037 475 971.5 468.0Q906 461 863.0 455.0Q820 449 809 445Q812 464 814.5 486.0Q817 508 817 531Q817 545 816.0 557.5Q815 570 813 583Q790 467 773.0 310.0Q756 153 754 -53Q773 -63 790.0 -72.5Q807 -82 822 -90L810 -111Q797 -104 783.0 -97.0Q769 -90 754 -83V-112ZM364 203Q378 220 388.5 237.5Q399 255 409 280H408Q427 300 439.0 319.5Q451 339 464 367Q463 367 462.5 367.5Q462 368 461 368Q481 389 493.0 408.5Q505 428 518 458Q533 437 565.0 408.0Q597 379 636.5 349.0Q676 319 710 293L699 393Q655 416 608.5 433.5Q562 451 519 458Q539 479 551.0 498.5Q563 518 576 548Q593 523 626.0 493.0Q659 463 693 434Q686 486 678.0 532.5Q670 579 661 619Q601 583 535.0 542.0Q469 501 406.5 460.5Q344 420 294 386Q314 382 335 382Q359 382 392 388Q383 366 376.0 314.5Q369 263 364 203ZM1377 175Q1380 193 1380 208Q1380 223 1377 239H1376V242Q1378 253 1379.0 262.0Q1380 271 1380 280Q1380 293 1377 309H1376V312Q1378 323 1379.0 332.0Q1380 341 1380 350Q1380 363 1377 379H1376V382Q1378 393 1379.0 402.0Q1380 411 1380 420Q1380 433 1377 449L1181 312Q1221 284 1259.0 257.5Q1297 231 1328.0 209.5Q1359 188 1377 175ZM1508 350Q1492 387 1478 409Q1445 405 1420.5 397.0Q1396 389 1380 381Q1399 373 1432.5 362.0Q1466 351 1508 350ZM966 221Q990 232 1034.0 256.5Q1078 281 1129 312Q1086 338 1048.0 359.5Q1010 381 984 394Q980 376 976.0 345.0Q972 314 969.5 281.0Q967 248 966 221ZM317 215Q312 267 305.0 312.0Q298 357 288 382Q252 358 225.0 338.5Q198 319 184 308Q201 294 236.0 270.0Q271 246 317 215ZM720 159Q719 185 717.0 210.5Q715 236 713 261Q676 283 631.5 305.0Q587 327 544.0 344.0Q501 361 467 367Q481 349 511.5 322.0Q542 295 579.5 265.0Q617 235 654.5 207.0Q692 179 720 159ZM951 323Q950 331 949.5 337.5Q949 344 947 351Q925 349 900.0 345.5Q875 342 858 338Q875 334 900.5 330.5Q926 327 951 323ZM1488 281Q1488 291 1488.0 300.5Q1488 310 1489 322Q1499 318 1508.0 314.0Q1517 310 1525 308Q1522 317 1518.5 326.0Q1515 335 1512 342Q1472 342 1436.0 331.0Q1400 320 1380 311Q1397 304 1425.0 294.0Q1453 284 1488 281ZM955 281 952 312Q927 309 899.0 305.0Q871 301 854 297Q871 293 900.0 289.0Q929 285 955 281ZM1469 139Q1474 157 1477.0 172.0Q1480 187 1482 200Q1451 196 1425.0 188.0Q1399 180 1382 172L1389 167L1384 162Q1365 170 1315.5 199.5Q1266 229 1207 265Q1201 257 1196.5 248.5Q1192 240 1186 232Q1190 226 1199.5 211.0Q1209 196 1217 185L1210 178Q1185 198 1173.0 208.0Q1161 218 1148 226Q1153 218 1161.0 205.5Q1169 193 1176 185L1168 178Q1139 201 1126.5 211.5Q1114 222 1096 232Q1109 240 1123.5 250.5Q1138 261 1168 283L1176 279Q1166 267 1160.5 258.0Q1155 249 1148 239Q1157 244 1168.0 251.5Q1179 259 1195 272Q1185 277 1176.0 283.5Q1167 290 1157 295Q1105 258 1060.0 225.5Q1015 193 995 175Q1063 168 1143.0 161.0Q1223 154 1307.0 148.5Q1391 143 1469 139ZM726 31Q725 57 724.0 82.5Q723 108 721 132Q691 150 649.5 173.5Q608 197 563.0 219.5Q518 242 477.5 258.5Q437 275 410 280Q421 265 448.5 240.5Q476 216 513.5 187.0Q551 158 591.0 128.5Q631 99 667.0 73.5Q703 48 726 31ZM1484 211Q1486 228 1487.0 242.5Q1488 257 1488 270Q1455 267 1426.0 258.0Q1397 249 1380 241Q1397 234 1423.5 224.5Q1450 215 1484 211ZM727 -38Q727 -27 727.0 -15.5Q727 -4 726 6Q704 20 668.5 40.5Q633 61 590.5 84.0Q548 107 505.0 128.0Q462 149 424.5 165.0Q387 181 362 187V185Q419 149 482.5 109.0Q546 69 609.0 31.5Q672 -6 727 -38Z" />
  </g>
</svg>