<svg xmlns="http://www.w3.org/2000/svg" viewBox="100 -112 1639 848">
  <g transform="translate(0, 624) scale(1, -1)">
    <path fill="black" d="M728 -112V-71Q643 -30 544.0 12.0Q445 54 355 89L349 -15H330Q330 5 329.0 35.0Q328 65 326 100Q240 134 178.0 156.0Q116 178 100 179Q122 205 139.5 241.0Q157 277 169 308Q157 340 139.5 376.0Q122 412 100 437Q112 438 150.5 451.0Q189 464 246.5 485.5Q304 507 372.5 534.0Q441 561 513.0 592.0Q585 623 653 654Q648 676 643.0 696.5Q638 717 633 736Q684 724 738 724Q792 724 849 736Q841 707 833.0 673.0Q825 639 817 601Q835 597 879.5 591.0Q924 585 986.5 578.5Q1049 572 1122.5 565.5Q1196 559 1274.0 553.5Q1352 548 1427.0 544.0Q1502 540 1567 538Q1557 597 1545.5 646.0Q1534 695 1523 736Q1574 724 1628 724Q1682 724 1739 736Q1716 653 1694.0 533.5Q1672 414 1658.0 254.0Q1644 94 1644 -112H1618Q1618 -53 1616.5 2.0Q1615 57 1613 109Q1557 108 1479.0 104.5Q1401 101 1314.5 95.0Q1228 89 1143.0 82.0Q1058 75 986.5 67.5Q915 60 867.5 54.0Q820 48 809 43Q812 62 814.5 84.0Q817 106 817 129Q817 167 809 202Q817 198 847.5 193.0Q878 188 923 183Q924 188 924.0 192.5Q924 197 924 201Q924 214 922.5 227.0Q921 240 919 254Q931 249 958.5 244.5Q986 240 1023 235Q1017 270 1005 301Q1022 298 1034 298Q1047 298 1066 301Q1055 275 1050 232L1084 229Q1081 250 1077.0 267.5Q1073 285 1066 301Q1083 298 1095 298Q1107 298 1126 301Q1120 287 1116.0 268.5Q1112 250 1109 227L1213 220Q1202 335 1176 398Q1193 395 1215 395Q1237 395 1256 398Q1246 373 1235.5 323.0Q1225 273 1223 220Q1240 219 1255.5 218.0Q1271 217 1284 216Q1279 253 1271.0 283.5Q1263 314 1254 336Q1271 333 1293 333Q1315 333 1334 336Q1327 317 1319.0 285.0Q1311 253 1306 215H1317V208Q1355 219 1401.0 236.5Q1447 254 1493.0 273.5Q1539 293 1576 310Q1533 330 1479.0 352.5Q1425 375 1373.5 393.5Q1322 412 1284 420Q1241 416 1186.5 412.0Q1132 408 1078.0 403.5Q1024 399 981.5 392.5Q939 386 919 378Q921 390 922.0 401.5Q923 413 923 425Q923 434 923.0 443.0Q923 452 921 462Q876 457 846.5 452.5Q817 448 809 445Q812 464 814.5 486.0Q817 508 817 531Q817 545 816.0 557.5Q815 570 813 583Q790 467 773.0 310.0Q756 153 754 -53Q773 -63 790.0 -72.5Q807 -82 822 -90L810 -111Q797 -104 783.0 -97.0Q769 -90 754 -83V-112ZM364 203Q378 220 388.5 237.5Q399 255 409 280H408Q427 300 439.0 319.5Q451 339 464 367Q463 367 462.5 367.5Q462 368 461 368Q481 389 493.0 408.5Q505 428 518 458Q533 437 565.0 408.0Q597 379 636.5 349.0Q676 319 710 293L699 393Q655 416 608.5 433.5Q562 451 519 458Q539 479 551.0 498.5Q563 518 576 548Q593 523 626.0 493.0Q659 463 693 434Q686 486 678.0 532.5Q670 579 661 619Q601 583 535.0 542.0Q469 501 406.5 460.5Q344 420 294 386Q314 382 335 382Q359 382 392 388Q383 366 376.0 314.5Q369 263 364 203ZM1597 325Q1592 376 1585.5 422.5Q1579 469 1572 510Q1520 509 1457.5 506.0Q1395 503 1327 498Q1349 480 1382.5 457.5Q1416 435 1454.5 411.5Q1493 388 1530.0 365.5Q1567 343 1597 325ZM1266 437Q1284 462 1296 496Q1202 489 1111.0 481.0Q1020 473 949 465Q975 460 1014.0 456.0Q1053 452 1097.0 448.0Q1141 444 1185.0 441.5Q1229 439 1266 437ZM317 215Q312 267 305.0 312.0Q298 357 288 382Q252 358 225.0 338.5Q198 319 184 308Q201 294 236.0 270.0Q271 246 317 215ZM720 159Q719 185 717.0 210.5Q715 236 713 261Q676 283 631.5 305.0Q587 327 544.0 344.0Q501 361 467 367Q481 349 511.5 322.0Q542 295 579.5 265.0Q617 235 654.5 207.0Q692 179 720 159ZM1611 135Q1607 218 1599 296Q1566 276 1522.5 250.0Q1479 224 1436.0 197.0Q1393 170 1359 146Q1428 142 1493.0 139.0Q1558 136 1611 135ZM726 31Q725 57 724.0 82.5Q723 108 721 132Q691 150 649.5 173.5Q608 197 563.0 219.5Q518 242 477.5 258.5Q437 275 410 280Q421 264 448.5 239.5Q476 215 513.5 186.0Q551 157 591.0 127.5Q631 98 667.0 73.0Q703 48 726 31ZM1286 150Q1280 162 1272.5 173.0Q1265 184 1256 196Q1268 196 1281 199L1105 186Q1105 181 1105.0 175.5Q1105 170 1104 165ZM727 -38Q727 -27 727.0 -15.5Q727 -4 726 6Q704 20 668.5 40.5Q633 61 590.5 84.0Q548 107 505.0 128.0Q462 149 424.5 165.0Q387 181 362 187V185Q419 149 482.5 109.0Q546 69 609.0 31.5Q672 -6 727 -38ZM1091 166Q1091 171 1090.5 175.5Q1090 180 1090 184L1044 180Q1044 178 1043.5 175.5Q1043 173 1043 170ZM1030 172Q1030 174 1029.5 175.5Q1029 177 1029 178L999 175Z" />
  </g>
</svg>