<svg xmlns="http://www.w3.org/2000/svg" viewBox="100 -112 1639 848">
  <g transform="translate(0, 624) scale(1, -1)">
    <path fill="black" d="M728 -112V-71Q643 -30 544.0 12.0Q445 54 355 89L349 -15H330Q330 5 329.0 35.0Q328 65 326 100Q240 134 178.0 156.0Q116 178 100 179Q122 205 139.5 241.0Q157 277 169 308Q157 340 139.5 376.0Q122 412 100 437Q112 438 150.5 451.0Q189 464 246.5 485.5Q304 507 372.5 534.0Q441 561 513.0 592.0Q585 623 653 654Q648 676 643.0 696.5Q638 717 633 736Q684 724 738 724Q792 724 849 736Q841 707 833.0 673.0Q825 639 817 601Q837 596 887.0 589.5Q937 583 1008.5 576.0Q1080 569 1161 562Q1159 579 1158 583Q1170 581 1181.5 580.0Q1193 579 1206 580Q1208 594 1209.0 606.0Q1210 618 1210 629Q1210 640 1209.0 651.5Q1208 663 1206 674Q1241 660 1303.0 650.5Q1365 641 1432 635Q1430 656 1427.0 670.5Q1424 685 1422 692Q1436 690 1448.5 688.5Q1461 687 1473 687Q1485 687 1496.0 688.5Q1507 690 1518 692Q1512 677 1507.0 636.0Q1502 595 1497 540Q1516 539 1533.0 538.5Q1550 538 1567 538Q1557 597 1545.5 646.0Q1534 695 1523 736Q1574 724 1628 724Q1682 724 1739 736Q1716 653 1694.0 533.5Q1672 414 1658.0 254.0Q1644 94 1644 -112H1618Q1618 -53 1616.5 2.0Q1615 57 1613 109Q1557 108 1479.0 104.5Q1401 101 1314.5 95.0Q1228 89 1143.0 82.0Q1058 75 986.5 67.5Q915 60 867.5 54.0Q820 48 809 43Q812 62 814.5 84.0Q817 106 817 129Q817 167 809 202Q820 198 864.5 191.5Q909 185 976.5 177.5Q1044 170 1124 163Q1126 173 1126.0 182.0Q1126 191 1126 200Q1126 212 1125.0 224.0Q1124 236 1122 248Q1133 244 1149.5 239.5Q1166 235 1185 232Q1183 257 1180.0 300.5Q1177 344 1174.0 393.5Q1171 443 1168 486Q1080 479 1002.0 471.0Q924 463 872.5 456.5Q821 450 809 445Q812 464 814.5 486.0Q817 508 817 531Q817 545 816.0 557.5Q815 570 813 583Q790 467 773.0 310.0Q756 153 754 -53Q773 -63 790.0 -72.5Q807 -82 822 -90L810 -111Q797 -104 783.0 -97.0Q769 -90 754 -83V-112ZM364 203Q378 220 388.5 237.5Q399 255 409 280H408Q427 300 439.0 319.5Q451 339 464 367Q463 367 462.5 367.5Q462 368 461 368Q481 389 493.0 408.5Q505 428 518 458Q533 437 565.0 408.0Q597 379 636.5 349.0Q676 319 710 293L699 393Q655 416 608.5 433.5Q562 451 519 458Q539 479 551.0 498.5Q563 518 576 548Q593 523 626.0 493.0Q659 463 693 434Q686 486 678.0 532.5Q670 579 661 619Q601 583 535.0 542.0Q469 501 406.5 460.5Q344 420 294 386Q314 382 335 382Q359 382 392 388Q383 366 376.0 314.5Q369 263 364 203ZM1438 566Q1437 579 1436.5 590.5Q1436 602 1434 613Q1390 609 1345.5 604.5Q1301 600 1265 593Q1278 589 1309.0 583.5Q1340 578 1375.5 573.5Q1411 569 1438 566ZM1264 554Q1265 563 1264.5 573.0Q1264 583 1262 593Q1249 590 1237.0 587.0Q1225 584 1216 581L1223 583Q1222 581 1221.0 574.5Q1220 568 1219 557ZM1440 543Q1439 547 1439.0 550.5Q1439 554 1439 558L1364 547ZM1611 135Q1605 245 1595.0 338.5Q1585 432 1572 510Q1537 510 1495 507Q1491 443 1487.0 372.5Q1483 302 1480.0 240.0Q1477 178 1474 139Q1512 138 1546.0 136.5Q1580 135 1611 135ZM1443 490Q1443 494 1443.0 497.5Q1443 501 1442 505L1362 500Q1383 497 1404.0 494.5Q1425 492 1443 490ZM1262 221Q1263 229 1263.5 236.5Q1264 244 1264 251Q1264 259 1263.5 266.5Q1263 274 1262 282Q1269 279 1290.5 275.5Q1312 272 1341.0 268.5Q1370 265 1400.5 261.5Q1431 258 1455 255L1452 322Q1428 319 1398.0 315.5Q1368 312 1339.5 308.5Q1311 305 1290.0 301.5Q1269 298 1262 295Q1265 313 1265 329Q1265 344 1262 360Q1268 357 1289.5 353.5Q1311 350 1339.5 346.5Q1368 343 1398.0 339.5Q1428 336 1452 333L1448 398Q1416 395 1375.5 390.5Q1335 386 1303.0 382.0Q1271 378 1262 374Q1265 391 1265 408Q1265 424 1262 440Q1271 435 1303.0 429.5Q1335 424 1375.0 419.5Q1415 415 1447 411L1444 476Q1411 472 1372.0 468.0Q1333 464 1302.0 460.0Q1271 456 1262 452Q1264 462 1264.5 472.5Q1265 483 1264 493Q1251 492 1238.5 491.5Q1226 491 1212 489Q1209 446 1205.5 395.0Q1202 344 1199.0 299.5Q1196 255 1194 230ZM317 215Q312 267 305.0 312.0Q298 357 288 382Q252 358 225.0 338.5Q198 319 184 308Q201 294 236.0 270.0Q271 246 317 215ZM720 159Q719 185 717.0 210.5Q715 236 713 261Q676 283 631.5 305.0Q587 327 544.0 344.0Q501 361 467 367Q481 349 511.5 322.0Q542 295 579.5 265.0Q617 235 654.5 207.0Q692 179 720 159ZM726 31Q725 57 724.0 82.5Q723 108 721 132Q691 150 649.5 173.5Q608 197 563.0 219.5Q518 242 477.5 258.5Q437 275 410 280Q421 264 448.5 239.5Q476 215 513.5 186.0Q551 157 591.0 127.5Q631 98 667.0 73.0Q703 48 726 31ZM1457 204Q1457 214 1456.5 223.5Q1456 233 1455 244Q1427 241 1391.5 236.5Q1356 232 1324.0 228.0Q1292 224 1274 220Q1321 215 1369.0 211.0Q1417 207 1457 204ZM1460 140 1458 190Q1414 188 1356.0 184.0Q1298 180 1243.5 174.0Q1189 168 1153 160Q1228 154 1307.5 148.5Q1387 143 1460 140ZM727 -38Q727 -27 727.0 -15.5Q727 -4 726 6Q704 20 668.5 40.5Q633 61 590.5 84.0Q548 107 505.0 128.0Q462 149 424.5 165.0Q387 181 362 187V185Q419 149 482.5 109.0Q546 69 609.0 31.5Q672 -6 727 -38Z" />
  </g>
</svg>