<svg xmlns="http://www.w3.org/2000/svg" viewBox="100 -112 1639 848">
  <g transform="translate(0, 624) scale(1, -1)">
    <path fill="black" d="M728 -112V-71Q643 -30 544.0 12.0Q445 54 355 89L349 -15H330Q330 5 329.0 35.0Q328 65 326 100Q240 134 178.0 156.0Q116 178 100 179Q122 205 139.5 241.0Q157 277 169 308Q157 340 139.5 376.0Q122 412 100 437Q112 438 150.5 451.0Q189 464 246.5 485.5Q304 507 372.5 534.0Q441 561 513.0 592.0Q585 623 653 654Q648 676 643.0 696.5Q638 717 633 736Q684 724 738 724Q792 724 849 736Q841 707 833.0 673.0Q825 639 817 601Q833 597 871.0 591.5Q909 586 961 581Q954 602 947.5 619.5Q941 637 933 659Q972 650 1014 650Q1055 650 1098 659Q1091 637 1083.5 617.0Q1076 597 1069 570Q1109 566 1151.5 562.5Q1194 559 1238 556Q1228 594 1218.0 623.0Q1208 652 1201 660Q1216 657 1231.5 656.0Q1247 655 1263 655Q1279 655 1296.0 656.0Q1313 657 1332 660Q1325 652 1314.0 621.5Q1303 591 1293 552Q1366 547 1436.0 543.5Q1506 540 1567 538Q1557 597 1545.5 646.0Q1534 695 1523 736Q1574 724 1628 724Q1682 724 1739 736Q1716 653 1694.0 533.5Q1672 414 1658.0 254.0Q1644 94 1644 -112H1618Q1618 -53 1616.5 2.0Q1615 57 1613 109Q1557 108 1479.0 104.5Q1401 101 1314.5 95.0Q1228 89 1143.0 82.0Q1058 75 986.5 67.5Q915 60 867.5 54.0Q820 48 809 43Q812 62 814.5 84.0Q817 106 817 129Q817 167 809 202Q821 197 877.0 189.0Q933 181 1014 173Q1007 280 1000.0 351.0Q993 422 985 469Q915 462 867.5 456.0Q820 450 809 445Q812 464 814.5 486.0Q817 508 817 531Q817 545 816.0 557.5Q815 570 813 583Q790 467 773.0 310.0Q756 153 754 -53Q773 -63 790.0 -72.5Q807 -82 822 -90L810 -111Q797 -104 783.0 -97.0Q769 -90 754 -83V-112ZM364 203Q378 220 388.5 237.5Q399 255 409 280H408Q427 300 439.0 319.5Q451 339 464 367Q463 367 462.5 367.5Q462 368 461 368Q481 389 493.0 408.5Q505 428 518 458Q533 437 565.0 408.0Q597 379 636.5 349.0Q676 319 710 293L699 393Q655 416 608.5 433.5Q562 451 519 458Q539 479 551.0 498.5Q563 518 576 548Q593 523 626.0 493.0Q659 463 693 434Q686 486 678.0 532.5Q670 579 661 619Q601 583 535.0 542.0Q469 501 406.5 460.5Q344 420 294 386Q314 382 335 382Q359 382 392 388Q383 366 376.0 314.5Q369 263 364 203ZM1611 135Q1605 245 1595.0 338.5Q1585 432 1572 510Q1517 509 1450.0 505.5Q1383 502 1310 497Q1336 460 1364.5 429.5Q1393 399 1425 374Q1377 356 1336.0 340.5Q1295 325 1253.5 305.0Q1212 285 1163.0 253.0Q1114 221 1048 170Q1114 164 1188.0 158.0Q1262 152 1337.5 147.0Q1413 142 1483.0 139.0Q1553 136 1611 135ZM1150 307Q1185 349 1208.5 385.0Q1232 421 1255 458Q1254 466 1253.5 475.0Q1253 484 1251 492Q1237 491 1223.5 490.5Q1210 490 1196 488Q1189 472 1180.0 442.5Q1171 413 1163.0 377.5Q1155 342 1150 307ZM1036 185Q1065 213 1088.0 237.0Q1111 261 1130 283Q1128 318 1120.5 355.5Q1113 393 1104.0 425.5Q1095 458 1086 479L1054 476Q1048 428 1043.5 358.0Q1039 288 1036 185ZM317 215Q312 267 305.0 312.0Q298 357 288 382Q252 358 225.0 338.5Q198 319 184 308Q201 294 236.0 270.0Q271 246 317 215ZM720 159Q719 185 717.0 210.5Q715 236 713 261Q676 283 631.5 305.0Q587 327 544.0 344.0Q501 361 467 367Q481 349 511.5 322.0Q542 295 579.5 265.0Q617 235 654.5 207.0Q692 179 720 159ZM726 31Q725 57 724.0 82.5Q723 108 721 132Q691 150 649.5 173.5Q608 197 563.0 219.5Q518 242 477.5 258.5Q437 275 410 280Q421 264 448.5 239.5Q476 215 513.5 186.0Q551 157 591.0 127.5Q631 98 667.0 73.0Q703 48 726 31ZM727 -38Q727 -27 727.0 -15.5Q727 -4 726 6Q704 20 668.5 40.5Q633 61 590.5 84.0Q548 107 505.0 128.0Q462 149 424.5 165.0Q387 181 362 187V185Q419 149 482.5 109.0Q546 69 609.0 31.5Q672 -6 727 -38Z" />
  </g>
</svg>