<svg xmlns="http://www.w3.org/2000/svg" viewBox="100 -112 1683 848">
  <g transform="translate(0, 624) scale(1, -1)">
    <path fill="black" d="M728 -112V-71Q643 -30 544.0 12.0Q445 54 355 89L349 -15H330Q330 5 329.0 35.0Q328 65 326 100Q240 134 178.0 156.0Q116 178 100 179Q122 205 139.5 241.0Q157 277 169 308Q157 340 139.5 376.0Q122 412 100 437Q112 438 150.5 451.0Q189 464 246.5 485.5Q304 507 372.5 534.0Q441 561 513.0 592.0Q585 623 653 654Q648 676 643.0 696.5Q638 717 633 736Q684 724 738 724Q792 724 849 736Q841 707 833.0 673.0Q825 639 817 601Q835 597 879.5 591.0Q924 585 986.5 578.5Q1049 572 1122.5 565.5Q1196 559 1274.0 553.5Q1352 548 1427.0 544.0Q1502 540 1567 538Q1557 597 1545.5 646.0Q1534 695 1523 736Q1574 724 1628 724Q1682 724 1739 736Q1723 676 1706.5 597.5Q1690 519 1676 420Q1699 417 1719 417Q1733 417 1748.0 418.5Q1763 420 1783 423Q1773 398 1765.0 371.5Q1757 345 1752 317L1783 322Q1758 262 1747.5 198.5Q1737 135 1735 73H1716Q1712 130 1700.5 183.5Q1689 237 1663 303Q1654 214 1649.0 110.5Q1644 7 1644 -112H1618Q1618 -53 1616.5 2.0Q1615 57 1613 109Q1599 109 1583.0 109.0Q1567 109 1550 108Q1549 99 1548.5 90.5Q1548 82 1548 73H1531L1528 107Q1491 106 1450.0 103.5Q1409 101 1365 98Q1334 72 1303.5 44.0Q1273 16 1246 -10L1247 -11L1237 -20L1226 -11V-10Q1203 12 1176.5 35.0Q1150 58 1124 80Q1045 74 977.0 67.0Q909 60 864.5 54.0Q820 48 809 43Q812 62 814.5 84.0Q817 106 817 129Q817 167 809 202Q811 201 814.0 200.0Q817 199 821 198Q815 268 809.0 307.0Q803 346 797.0 367.5Q791 389 784 406Q772 311 764.0 196.5Q756 82 754 -53Q773 -63 790.0 -72.5Q807 -82 822 -90L810 -111Q797 -104 783.0 -97.0Q769 -90 754 -83V-112ZM364 203Q378 220 388.5 237.5Q399 255 409 280H408Q427 300 439.0 319.5Q451 339 464 367Q463 367 462.5 367.5Q462 368 461 368Q481 389 493.0 408.5Q505 428 518 458Q533 437 565.0 408.0Q597 379 636.5 349.0Q676 319 710 293L699 393Q655 416 608.5 433.5Q562 451 519 458Q539 479 551.0 498.5Q563 518 576 548Q593 523 626.0 493.0Q659 463 693 434Q686 486 678.0 532.5Q670 579 661 619Q601 583 535.0 542.0Q469 501 406.5 460.5Q344 420 294 386Q314 382 335 382Q359 382 392 388Q383 366 376.0 314.5Q369 263 364 203ZM1526 137Q1521 201 1514.0 249.5Q1507 298 1497.0 339.5Q1487 381 1470 423Q1488 420 1502.5 418.0Q1517 416 1531 416Q1543 416 1556.0 417.5Q1569 419 1585 421Q1582 444 1578.5 466.5Q1575 489 1572 510Q1511 508 1434.5 504.0Q1358 500 1276.0 494.0Q1194 488 1115.5 481.5Q1037 475 971.5 468.0Q906 461 863.0 455.0Q820 449 809 445Q812 464 814.5 486.0Q817 508 817 531Q817 545 816.0 557.5Q815 570 813 583Q806 548 799.5 509.0Q793 470 787 427Q805 424 824 424Q850 424 878 430Q872 414 867.0 397.5Q862 381 857.0 357.5Q852 334 848.0 295.0Q844 256 841 194Q849 193 859.0 192.0Q869 191 879 189Q885 197 890.0 203.5Q895 210 899 217Q898 246 891.5 277.5Q885 309 877.0 333.5Q869 358 864 365Q873 363 882.5 362.0Q892 361 902 361Q912 361 922.5 362.0Q933 363 945 365Q940 360 932.5 338.5Q925 317 919.0 289.5Q913 262 910 235Q929 266 941.0 293.0Q953 320 969 351Q962 379 953.5 400.5Q945 422 938 430Q947 428 957.5 427.0Q968 426 979 426Q990 426 1001.5 427.0Q1013 428 1025 430Q1018 421 1007.5 397.0Q997 373 989 342Q1007 323 1026.0 307.5Q1045 292 1064 280Q1036 265 1011.5 252.5Q987 240 963.0 224.5Q939 209 910 185Q929 183 951.0 180.0Q973 177 997 175L984 182Q1003 193 1018.5 205.5Q1034 218 1049 236L1047 238Q1097 300 1132.0 356.0Q1167 412 1181 450Q1208 416 1240 394Q1256 405 1270.5 418.5Q1285 432 1299 450Q1313 412 1348.0 356.0Q1383 300 1432 238L1424 229Q1440 217 1458.0 209.0Q1476 201 1492 192Q1477 185 1458.5 172.0Q1440 159 1419 142Q1447 141 1474.0 139.5Q1501 138 1526 137ZM1611 135Q1607 209 1601.5 275.0Q1596 341 1588 399Q1572 350 1564.0 286.5Q1556 223 1551 136Q1567 136 1582.0 135.5Q1597 135 1611 135ZM317 215Q312 267 305.0 312.0Q298 357 288 382Q252 358 225.0 338.5Q198 319 184 308Q201 294 236.0 270.0Q271 246 317 215ZM1691 317Q1687 332 1682.0 348.5Q1677 365 1671 381L1664 320ZM1345 146Q1366 176 1382.0 202.0Q1398 228 1405 245Q1356 291 1317.0 323.0Q1278 355 1240 375Q1200 353 1158.0 319.0Q1116 285 1065 235Q1072 221 1084.0 202.5Q1096 184 1110 164L1179 158L1217 203Q1193 221 1173.5 235.0Q1154 249 1146 252Q1157 261 1168.5 271.5Q1180 282 1190 296Q1192 289 1206.0 270.5Q1220 252 1239 229Q1258 252 1272.0 270.5Q1286 289 1289 296Q1298 282 1310.0 271.5Q1322 261 1332 252Q1325 250 1305.5 235.5Q1286 221 1261 201Q1273 187 1284.5 173.5Q1296 160 1306 149ZM720 159Q719 185 717.0 210.5Q715 236 713 261Q676 283 631.5 305.0Q587 327 544.0 344.0Q501 361 467 367Q481 349 511.5 322.0Q542 295 579.5 265.0Q617 235 654.5 207.0Q692 179 720 159ZM726 31Q725 57 724.0 82.5Q723 108 721 132Q691 150 649.5 173.5Q608 197 563.0 219.5Q518 242 477.5 258.5Q437 275 410 280Q421 264 448.5 239.5Q476 215 513.5 186.0Q551 157 591.0 127.5Q631 98 667.0 73.0Q703 48 726 31ZM727 -38Q727 -27 727.0 -15.5Q727 -4 726 6Q704 20 668.5 40.5Q633 61 590.5 84.0Q548 107 505.0 128.0Q462 149 424.5 165.0Q387 181 362 187V185Q419 149 482.5 109.0Q546 69 609.0 31.5Q672 -6 727 -38ZM1286 150 1240 185 1205 156ZM1236 2Q1253 24 1271.5 47.0Q1290 70 1307 94Q1273 92 1239.0 89.5Q1205 87 1171 84Q1188 63 1204.5 42.5Q1221 22 1236 2Z" />
  </g>
</svg>