<svg xmlns="http://www.w3.org/2000/svg" viewBox="100 -112 1639 848">
  <g transform="translate(0, 624) scale(1, -1)">
    <path fill="black" d="M728 -112V-71Q643 -30 544.0 12.0Q445 54 355 89L349 -15H330Q330 5 329.0 35.0Q328 65 326 100Q240 134 178.0 156.0Q116 178 100 179Q122 205 139.5 241.0Q157 277 169 308Q157 340 139.5 376.0Q122 412 100 437Q112 438 150.5 451.0Q189 464 246.5 485.5Q304 507 372.5 534.0Q441 561 513.0 592.0Q585 623 653 654Q648 676 643.0 696.5Q638 717 633 736Q684 724 738 724Q792 724 849 736Q841 707 833.0 673.0Q825 639 817 601Q835 597 879.5 591.0Q924 585 986.5 578.5Q1049 572 1122.5 565.5Q1196 559 1274.0 553.5Q1352 548 1427.0 544.0Q1502 540 1567 538Q1557 597 1545.5 646.0Q1534 695 1523 736Q1574 724 1628 724Q1682 724 1739 736Q1717 657 1696.0 547.0Q1675 437 1661 291L1684 238H1686V226Q1677 216 1669.0 205.0Q1661 194 1653 183Q1644 50 1644 -112H1618Q1618 -53 1616.5 2.0Q1615 57 1613 108Q1596 70 1586.0 36.0Q1576 2 1571 -20Q1546 13 1515.5 41.0Q1485 69 1443 94Q1450 96 1458.0 98.5Q1466 101 1475 105L1439 102Q1423 66 1414.0 33.0Q1405 0 1400 -20Q1375 12 1345.5 39.5Q1316 67 1275 92L1160 83L1168 31L1157 29L1139 81Q1096 77 1054.5 74.0Q1013 71 977 67L971 6H959L955 64Q897 58 858.0 52.5Q819 47 809 43Q812 62 814.5 84.0Q817 106 817 129Q817 167 809 202Q823 196 870 190Q873 214 873 238Q873 253 872.0 267.0Q871 281 869 294Q876 290 893.5 287.0Q911 284 938 281Q932 340 925.5 386.0Q919 432 911 447Q927 446 942.0 444.5Q957 443 972 443Q982 443 991.0 443.5Q1000 444 1009 445Q1065 454 1111 473Q1110 469 1109.5 462.0Q1109 455 1109 447Q1109 416 1115.5 367.0Q1122 318 1130 263Q1204 258 1285.5 253.5Q1367 249 1441 246Q1427 266 1409.5 292.0Q1392 318 1375.0 343.0Q1358 368 1345.5 386.0Q1333 404 1328 409Q1342 414 1354.5 420.0Q1367 426 1380 435Q1380 428 1388.0 406.5Q1396 385 1408.0 355.5Q1420 326 1432.0 296.5Q1444 267 1453 245L1519 243Q1505 264 1485.0 294.5Q1465 325 1445.0 355.0Q1425 385 1410.5 407.5Q1396 430 1391 435Q1405 440 1417.5 446.0Q1430 452 1443 461Q1443 454 1453.0 428.0Q1463 402 1477.5 367.5Q1492 333 1506.5 299.0Q1521 265 1530 242Q1550 241 1566.0 240.5Q1582 240 1598 240Q1587 257 1570.5 283.0Q1554 309 1535.5 338.0Q1517 367 1500.0 393.5Q1483 420 1470.5 438.5Q1458 457 1454 461Q1468 466 1480.5 472.0Q1493 478 1506 488Q1506 481 1517.5 452.0Q1529 423 1546.0 384.0Q1563 345 1579.0 307.5Q1595 270 1604 246Q1602 280 1598.5 311.5Q1595 343 1591 373Q1565 415 1543.5 448.5Q1522 482 1517 488Q1529 492 1540.5 497.0Q1552 502 1564 510Q1503 508 1426.5 503.5Q1350 499 1268.5 493.5Q1187 488 1110.0 481.0Q1033 474 968.5 467.5Q904 461 862.0 455.0Q820 449 809 445Q812 464 814.5 486.0Q817 508 817 531Q817 545 816.0 557.5Q815 570 813 583Q790 467 773.0 310.0Q756 153 754 -53Q773 -63 790.0 -72.5Q807 -82 822 -90L810 -111Q797 -104 783.0 -97.0Q769 -90 754 -83V-112ZM364 203Q378 220 388.5 237.5Q399 255 409 280H408Q427 300 439.0 319.5Q451 339 464 367Q463 367 462.5 367.5Q462 368 461 368Q481 389 493.0 408.5Q505 428 518 458Q533 437 565.0 408.0Q597 379 636.5 349.0Q676 319 710 293L699 393Q655 416 608.5 433.5Q562 451 519 458Q539 479 551.0 498.5Q563 518 576 548Q593 523 626.0 493.0Q659 463 693 434Q686 486 678.0 532.5Q670 579 661 619Q601 583 535.0 542.0Q469 501 406.5 460.5Q344 420 294 386Q314 382 335 382Q359 382 392 388Q383 366 376.0 314.5Q369 263 364 203ZM1574 495 1572 510H1570ZM1074 268Q1058 311 1043.0 348.5Q1028 386 1016 411Q1011 386 1006.0 350.5Q1001 315 997 274ZM317 215Q312 267 305.0 312.0Q298 357 288 382Q252 358 225.0 338.5Q198 319 184 308Q201 294 236.0 270.0Q271 246 317 215ZM720 159Q719 185 717.0 210.5Q715 236 713 261Q676 283 631.5 305.0Q587 327 544.0 344.0Q501 361 467 367Q481 349 511.5 322.0Q542 295 579.5 265.0Q617 235 654.5 207.0Q692 179 720 159ZM726 31Q725 57 724.0 82.5Q723 108 721 132Q691 150 649.5 173.5Q608 197 563.0 219.5Q518 242 477.5 258.5Q437 275 410 280Q421 264 448.5 239.5Q476 215 513.5 186.0Q551 157 591.0 127.5Q631 98 667.0 73.0Q703 48 726 31ZM1657 238H1676L1659 264Q1658 257 1657.5 251.0Q1657 245 1657 238ZM1655 207 1673 225Q1669 225 1665.0 225.0Q1661 225 1656 224Q1655 220 1655.0 216.0Q1655 212 1655 207ZM1550 136Q1579 151 1609 171L1606 222L1508 219Q1493 201 1480.5 181.0Q1468 161 1457 140Q1482 139 1505.0 138.0Q1528 137 1550 136ZM1391 144Q1417 158 1443.0 176.0Q1469 194 1492 218Q1412 215 1319.0 211.0Q1226 207 1140 202Q1142 192 1144.0 181.5Q1146 171 1147 161Q1207 156 1268.5 151.5Q1330 147 1391 144ZM1111 164Q1108 173 1105.0 182.0Q1102 191 1098 200Q1068 199 1040.5 197.0Q1013 195 989 193L987 176ZM947 180Q947 182 946.5 184.5Q946 187 946 189Q934 188 923.5 187.5Q913 187 905 185ZM727 -38Q727 -27 727.0 -15.5Q727 -4 726 6Q704 20 668.5 40.5Q633 61 590.5 84.0Q548 107 505.0 128.0Q462 149 424.5 165.0Q387 181 362 187V185Q419 149 482.5 109.0Q546 69 609.0 31.5Q672 -6 727 -38Z" />
  </g>
</svg>