<svg xmlns="http://www.w3.org/2000/svg" viewBox="100 -112 1639 848">
  <g transform="translate(0, 624) scale(1, -1)">
    <path fill="black" d="M728 -112V-71Q643 -30 544.0 12.0Q445 54 355 89L349 -15H330Q330 5 329.0 35.0Q328 65 326 100Q240 134 178.0 156.0Q116 178 100 179Q122 205 139.5 241.0Q157 277 169 308Q157 340 139.5 376.0Q122 412 100 437Q112 438 150.5 451.0Q189 464 246.5 485.5Q304 507 372.5 534.0Q441 561 513.0 592.0Q585 623 653 654Q648 676 643.0 696.5Q638 717 633 736Q684 724 738 724Q792 724 849 736Q841 707 833.0 673.0Q825 639 817 601Q835 597 879.5 591.0Q924 585 986.5 578.5Q1049 572 1122.5 565.5Q1196 559 1274.0 553.5Q1352 548 1427.0 544.0Q1502 540 1567 538Q1557 597 1545.5 646.0Q1534 695 1523 736Q1574 724 1628 724Q1682 724 1739 736Q1716 653 1694.0 533.5Q1672 414 1658.0 254.0Q1644 94 1644 -112H1618Q1618 -53 1616.5 2.0Q1615 57 1613 109Q1557 108 1479.0 104.5Q1401 101 1314.5 95.0Q1228 89 1143.0 82.0Q1058 75 986.5 67.5Q915 60 867.5 54.0Q820 48 809 43Q812 62 814.5 84.0Q817 106 817 129Q817 167 809 202Q820 197 868.5 190.5Q917 184 988 176Q986 192 984.0 211.5Q982 231 979 253Q941 248 901.5 239.5Q862 231 830.5 223.0Q799 215 785 209Q788 220 789.0 231.5Q790 243 790 255Q790 283 785 311Q800 305 830.5 297.0Q861 289 900.0 281.5Q939 274 978 268L965 371Q929 366 892.0 358.0Q855 350 826.5 342.5Q798 335 785 329Q787 340 788.5 351.0Q790 362 790 373Q790 385 789.0 397.5Q788 410 786 421Q773 324 764.5 205.5Q756 87 754 -53Q773 -63 790.0 -72.5Q807 -82 822 -90L810 -111Q797 -104 783.0 -97.0Q769 -90 754 -83V-112ZM364 203Q378 220 388.5 237.5Q399 255 409 280H408Q427 300 439.0 319.5Q451 339 464 367Q463 367 462.5 367.5Q462 368 461 368Q481 389 493.0 408.5Q505 428 518 458Q533 437 565.0 408.0Q597 379 636.5 349.0Q676 319 710 293L699 393Q655 416 608.5 433.5Q562 451 519 458Q539 479 551.0 498.5Q563 518 576 548Q593 523 626.0 493.0Q659 463 693 434Q686 486 678.0 532.5Q670 579 661 619Q601 583 535.0 542.0Q469 501 406.5 460.5Q344 420 294 386Q314 382 335 382Q359 382 392 388Q383 366 376.0 314.5Q369 263 364 203ZM962 391Q954 445 947 465Q892 459 855.5 454.0Q819 449 809 445Q812 464 814.5 486.0Q817 508 817 531Q817 545 816.0 557.5Q815 570 813 583Q806 549 799.5 510.5Q793 472 788 430Q810 421 859.0 410.0Q908 399 962 391ZM1611 135Q1605 245 1595.0 338.5Q1585 432 1572 510Q1495 508 1394.0 502.0Q1293 496 1191 488L1195 486Q1172 449 1156 418Q1172 430 1191.5 445.0Q1211 460 1246 491L1256 486Q1243 464 1233.5 446.0Q1224 428 1215 411Q1224 394 1233.5 375.0Q1243 356 1256 335L1247 326L1256 319Q1243 299 1233.5 281.0Q1224 263 1215 245Q1224 228 1233.5 209.0Q1243 190 1256 170L1246 161Q1223 184 1208.0 197.5Q1193 211 1181.5 221.0Q1170 231 1155 240Q1163 224 1172.5 206.5Q1182 189 1195 170L1185 161Q1160 184 1145.0 197.5Q1130 211 1119.0 221.0Q1108 231 1093 241Q1103 225 1112.0 207.0Q1121 189 1135 170L1127 162L1273 151Q1276 171 1276 190Q1276 201 1275.0 212.0Q1274 223 1271 234Q1273 233 1275.5 232.0Q1278 231 1281 230Q1279 252 1276.0 280.5Q1273 309 1270.0 336.0Q1267 363 1264.0 384.0Q1261 405 1258 412L1273 410Q1276 430 1276 448Q1276 459 1275.0 470.0Q1274 481 1271 492Q1283 487 1318.5 480.0Q1354 473 1399.5 466.5Q1445 460 1487 455Q1484 473 1481.5 486.5Q1479 500 1477 505Q1488 502 1499.0 501.0Q1510 500 1520 500Q1533 500 1545.5 501.5Q1558 503 1571 505Q1567 495 1562.5 464.0Q1558 433 1553.5 390.5Q1549 348 1544.5 302.0Q1540 256 1536.0 215.5Q1532 175 1529 150H1520Q1519 156 1518.0 164.0Q1517 172 1516 181Q1482 177 1441.5 171.5Q1401 166 1363.5 160.5Q1326 155 1300 149Q1385 144 1466.0 140.0Q1547 136 1611 135ZM1095 417Q1109 429 1128.0 443.0Q1147 457 1180 487Q1168 486 1156.0 485.0Q1144 484 1133 483Q1120 464 1111.5 448.0Q1103 432 1095 417ZM1029 412Q1043 425 1062.0 438.0Q1081 451 1115 481Q1070 477 1028.5 473.5Q987 470 952 466Q962 464 971.5 463.0Q981 462 990 462Q1003 462 1015.5 463.5Q1028 465 1041 467Q1038 460 1035.0 446.0Q1032 432 1029 412ZM1515 193Q1512 227 1507.5 269.0Q1503 311 1499.0 354.0Q1495 397 1490 432Q1446 426 1398.0 419.5Q1350 413 1315 407Q1312 394 1307.5 361.0Q1303 328 1298.5 291.0Q1294 254 1291 228Q1316 222 1355.5 215.5Q1395 209 1438.0 203.0Q1481 197 1515 193ZM1123 163Q1097 187 1081.5 200.5Q1066 214 1054.5 224.0Q1043 234 1028 245Q1044 259 1064.5 275.0Q1085 291 1126 326Q1099 350 1083.5 364.5Q1068 379 1056.0 389.0Q1044 399 1029 410Q1024 377 1019.0 334.0Q1014 291 1009.5 248.5Q1005 206 1001 174Q1029 171 1060.0 168.5Q1091 166 1123 163ZM1094 251Q1110 264 1129.5 279.5Q1149 295 1185 326Q1160 349 1144.5 362.5Q1129 376 1118.0 386.0Q1107 396 1093 406Q1103 390 1112.0 372.5Q1121 355 1135 335L1127 326L1135 319Q1122 300 1112.5 284.0Q1103 268 1094 251ZM1156 252Q1171 264 1191.0 279.5Q1211 295 1246 326Q1223 349 1208.0 362.5Q1193 376 1181.5 386.0Q1170 396 1156 406Q1164 390 1173.0 372.5Q1182 355 1195 335L1186 326L1195 319Q1182 300 1173.0 284.0Q1164 268 1156 252ZM317 215Q312 267 305.0 312.0Q298 357 288 382Q252 358 225.0 338.5Q198 319 184 308Q201 294 236.0 270.0Q271 246 317 215ZM720 159Q719 185 717.0 210.5Q715 236 713 261Q676 283 631.5 305.0Q587 327 544.0 344.0Q501 361 467 367Q481 349 511.5 322.0Q542 295 579.5 265.0Q617 235 654.5 207.0Q692 179 720 159ZM726 31Q725 57 724.0 82.5Q723 108 721 132Q692 150 650.5 173.5Q609 197 564.5 219.5Q520 242 479.0 258.5Q438 275 410 280Q421 264 448.5 239.5Q476 215 513.5 186.0Q551 157 591.0 127.5Q631 98 667.0 73.0Q703 48 726 31ZM727 -38Q727 -27 727.0 -15.5Q727 -4 726 6Q704 20 668.5 40.5Q633 61 590.5 84.0Q548 107 505.0 128.0Q462 149 424.5 165.0Q387 181 362 187V185Q419 149 482.5 109.0Q546 69 609.0 31.5Q672 -6 727 -38Z" />
  </g>
</svg>