<svg xmlns="http://www.w3.org/2000/svg" viewBox="100 -112 1639 848">
  <g transform="translate(0, 624) scale(1, -1)">
    <path fill="black" d="M728 -112V-71Q643 -30 544.0 12.0Q445 54 355 89L349 -15H330Q330 5 329.0 35.0Q328 65 326 100Q240 134 178.0 156.0Q116 178 100 179Q122 205 139.5 241.0Q157 277 169 308Q157 340 139.5 376.0Q122 412 100 437Q112 438 150.5 451.0Q189 464 246.5 485.5Q304 507 372.5 534.0Q441 561 513.0 592.0Q585 623 653 654Q648 676 643.0 696.5Q638 717 633 736Q684 724 738 724Q792 724 849 736Q841 707 833.0 673.0Q825 639 817 601Q835 597 879.5 591.0Q924 585 986.5 578.5Q1049 572 1122.5 565.5Q1196 559 1274.0 553.5Q1352 548 1427.0 544.0Q1502 540 1567 538Q1557 597 1545.5 646.0Q1534 695 1523 736Q1574 724 1628 724Q1682 724 1739 736Q1716 653 1694.0 533.5Q1672 414 1658.0 254.0Q1644 94 1644 -112H1618Q1618 -53 1616.5 2.0Q1615 57 1613 109Q1557 108 1479.0 104.5Q1401 101 1314.5 95.0Q1228 89 1143.0 82.0Q1058 75 986.5 67.5Q915 60 867.5 54.0Q820 48 809 43Q812 62 814.5 84.0Q817 106 817 129Q817 167 809 202Q820 197 871.0 190.0Q922 183 996 175Q989 198 975 217L996 221Q995 253 991.5 291.5Q988 330 984.0 362.5Q980 395 975 408Q989 405 1001.0 405.0Q1013 405 1023 406Q1010 410 997.5 412.5Q985 415 975 416Q983 428 989.5 441.5Q996 455 1000 471Q925 464 872.5 457.0Q820 450 809 445Q812 464 814.5 486.0Q817 508 817 531Q817 545 816.0 557.5Q815 570 813 583Q790 467 773.0 310.0Q756 153 754 -53Q773 -63 790.0 -72.5Q807 -82 822 -90L810 -111Q797 -104 783.0 -97.0Q769 -90 754 -83V-112ZM364 203Q378 220 388.5 237.5Q399 255 409 280H408Q427 300 439.0 319.5Q451 339 464 367Q463 367 462.5 367.5Q462 368 461 368Q481 389 493.0 408.5Q505 428 518 458Q533 437 565.0 408.0Q597 379 636.5 349.0Q676 319 710 293L699 393Q655 416 608.5 433.5Q562 451 519 458Q539 479 551.0 498.5Q563 518 576 548Q593 523 626.0 493.0Q659 463 693 434Q686 486 678.0 532.5Q670 579 661 619Q601 583 535.0 542.0Q469 501 406.5 460.5Q344 420 294 386Q314 382 335 382Q359 382 392 388Q383 366 376.0 314.5Q369 263 364 203ZM1571 326Q1543 353 1529.5 367.0Q1516 381 1496 394Q1511 406 1528.0 420.0Q1545 434 1579 464L1572 510Q1516 509 1446.5 505.0Q1377 501 1302.0 496.0Q1227 491 1153.5 484.5Q1080 478 1015 472Q1050 448 1118.0 412.5Q1186 377 1271 337Q1270 347 1269.5 356.5Q1269 366 1267 374Q1292 366 1341.0 355.5Q1390 345 1451.0 337.0Q1512 329 1571 326ZM1611 135Q1607 224 1599.5 302.0Q1592 380 1582 447Q1574 433 1567.5 420.0Q1561 407 1553 394Q1562 380 1570.5 362.0Q1579 344 1589 326V315Q1579 296 1570.5 280.0Q1562 264 1553 248Q1562 234 1570.5 218.0Q1579 202 1589 183L1580 175Q1557 196 1544.0 208.5Q1531 221 1521.0 230.0Q1511 239 1496 248Q1510 259 1525.5 273.0Q1541 287 1572 315Q1508 314 1447.5 303.0Q1387 292 1340.0 279.0Q1293 266 1267 257Q1269 265 1270.0 275.0Q1271 285 1272 296Q1196 261 1132.5 228.0Q1069 195 1031 171Q1098 165 1174.0 158.5Q1250 152 1328.0 147.0Q1406 142 1478.5 139.0Q1551 136 1611 135ZM1026 392Q1040 390 1051.5 390.5Q1063 391 1075 392L1030 405Q1028 400 1026 392ZM1058 237Q1101 250 1155.0 268.5Q1209 287 1272 311V323Q1217 345 1168.5 361.5Q1120 378 1080 390Q1072 368 1067.0 324.0Q1062 280 1058 237ZM1007 223 1045 233Q1043 262 1040.0 293.0Q1037 324 1033.5 350.0Q1030 376 1025 389Q1018 359 1014.5 311.5Q1011 264 1007 223ZM317 215Q312 267 305.0 312.0Q298 357 288 382Q252 358 225.0 338.5Q198 319 184 308Q201 294 236.0 270.0Q271 246 317 215ZM720 159Q719 185 717.0 210.5Q715 236 713 261Q676 283 631.5 305.0Q587 327 544.0 344.0Q501 361 467 367Q481 349 511.5 322.0Q542 295 579.5 265.0Q617 235 654.5 207.0Q692 179 720 159ZM726 31Q725 57 724.0 82.5Q723 108 721 132Q691 150 649.5 173.5Q608 197 563.0 219.5Q518 242 477.5 258.5Q437 275 410 280Q421 264 448.5 239.5Q476 215 513.5 186.0Q551 157 591.0 127.5Q631 98 667.0 73.0Q703 48 726 31ZM727 -38Q727 -27 727.0 -15.5Q727 -4 726 6Q704 20 668.5 40.5Q633 61 590.5 84.0Q548 107 505.0 128.0Q462 149 424.5 165.0Q387 181 362 187V186Q419 150 482.5 110.0Q546 70 609.0 32.0Q672 -6 727 -38Z" />
  </g>
</svg>