<svg xmlns="http://www.w3.org/2000/svg" viewBox="100 -112 2025 848">
  <g transform="translate(0, 624) scale(1, -1)">
    <path fill="black" d="M728 -112V-71Q643 -30 544.0 12.0Q445 54 355 89L349 -15H330Q330 5 329.0 35.0Q328 65 326 100Q240 134 178.0 156.0Q116 178 100 179Q122 205 139.5 241.0Q157 277 169 308Q157 340 139.5 376.0Q122 412 100 437Q112 438 150.5 451.0Q189 464 246.5 485.5Q304 507 372.5 534.0Q441 561 513.0 592.0Q585 623 653 654Q648 676 643.0 696.5Q638 717 633 736Q684 724 738 724Q792 724 849 736Q841 707 833.0 673.5Q825 640 817 602Q836 598 888.5 593.0Q941 588 1017.0 582.0Q1093 576 1184.0 570.5Q1275 565 1373.0 559.5Q1471 554 1566.5 550.0Q1662 546 1747.0 542.5Q1832 539 1897 538Q1887 597 1875.5 646.0Q1864 695 1853 736Q1904 724 1958 724Q2012 724 2069 736Q2049 662 2029.0 560.5Q2009 459 1995 326Q2016 343 2051.0 372.0Q2086 401 2115 433L2125 426Q2105 391 2088.0 366.0Q2071 341 2059 319Q2068 303 2084.5 278.0Q2101 253 2125 223L2115 215Q2075 248 2048.5 271.0Q2022 294 1997 312H1993Q1984 221 1979.0 115.5Q1974 10 1974 -112H1948Q1948 -53 1946.5 2.5Q1945 58 1943 110Q1897 109 1826.0 107.0Q1755 105 1668.5 101.0Q1582 97 1488.0 92.0Q1394 87 1300.5 82.0Q1207 77 1122.5 71.5Q1038 66 970.5 60.5Q903 55 860.0 50.5Q817 46 809 43Q812 62 814.5 84.0Q817 106 817 129Q817 167 809 202Q814 200 830.5 197.5Q847 195 872 192Q870 222 868.0 259.0Q866 296 863.0 333.5Q860 371 857.0 402.0Q854 433 849 451Q816 448 809 445Q812 464 814.5 486.0Q817 508 817 531Q817 545 816.0 557.5Q815 570 813 583Q790 467 773.0 310.0Q756 153 754 -53Q773 -63 790.0 -72.5Q807 -82 822 -90L810 -111Q797 -104 783.0 -97.0Q769 -90 754 -83V-112ZM364 203Q378 220 388.5 237.5Q399 255 409 280H408Q427 300 439.0 319.5Q451 339 464 367L461 368Q481 389 493.0 408.5Q505 428 518 458Q533 437 565.0 408.0Q597 379 636.5 349.0Q676 319 710 293L699 393Q655 416 608.5 433.5Q562 451 519 458Q539 479 551.0 498.5Q563 518 576 548Q593 523 626.0 493.0Q659 463 693 434Q686 486 678.0 532.5Q670 579 661 619Q601 583 535.0 542.0Q469 501 406.5 460.5Q344 420 294 386Q314 382 335 382Q359 382 392 388Q383 366 376.0 314.5Q369 263 364 203ZM1926 328Q1916 429 1902 511Q1828 509 1719.0 504.5Q1610 500 1487 494Q1513 459 1541.0 425.0Q1569 391 1606 353L1603 373Q1616 369 1628.5 366.0Q1641 363 1653 360L1655 362L1656 360L1687 354Q1684 390 1679.5 419.5Q1675 449 1670 462Q1691 459 1700.0 459.5Q1709 460 1725 461V462L1726 461L1730 462L1729 461Q1747 459 1755.5 459.5Q1764 460 1780 461V462L1781 461L1785 462L1784 461Q1802 459 1811.0 459.5Q1820 460 1835 461V462L1836 461L1840 462L1839 461Q1859 458 1867.5 459.0Q1876 460 1895 462Q1888 446 1883.0 410.5Q1878 375 1875 332Q1887 331 1900.0 330.5Q1913 330 1926 328ZM1328 347Q1372 385 1430 440L1395 458Q1416 473 1431 491Q1383 488 1335.5 485.5Q1288 483 1241 481Q1255 452 1275.5 420.5Q1296 389 1328 347ZM1145 337Q1142 379 1137.5 414.0Q1133 449 1128 462Q1136 460 1144.0 459.0Q1152 458 1159 458Q1175 458 1190 462Q1189 458 1187.0 450.5Q1185 443 1183 432Q1209 449 1232 480Q1156 476 1087.5 471.5Q1019 467 963 462L962 460Q987 455 1012 461V462L1014 461L1018 462L1017 460Q1031 458 1044.5 458.0Q1058 458 1073 462Q1069 452 1064.5 421.0Q1060 390 1057 351Q1072 347 1092.0 343.5Q1112 340 1145 337ZM919 458Q928 457 937.0 458.0Q946 459 956 460V461ZM1854 334Q1851 372 1847.0 405.0Q1843 438 1837 455Q1832 438 1828.0 406.5Q1824 375 1821 337ZM1798 339Q1795 376 1791.0 407.0Q1787 438 1782 455Q1777 439 1773.0 408.5Q1769 378 1766 343ZM1743 345Q1740 380 1736.0 409.5Q1732 439 1727 455Q1723 439 1719.0 411.5Q1715 384 1712 350ZM1023 308Q1026 322 1025.5 336.0Q1025 350 1022 363L1026 361Q1023 390 1020.5 414.0Q1018 438 1015 452Q1011 433 1006.5 394.5Q1002 356 998 313Q1004 312 1010.0 310.5Q1016 309 1023 308ZM919 225Q921 239 920.5 251.5Q920 264 918 277L922 275Q919 326 915.0 375.5Q911 425 904 450Q900 430 896.0 393.0Q892 356 888.5 313.0Q885 270 883 231ZM976 266Q977 269 977 275Q973 326 969.0 375.5Q965 425 959 450Q954 425 949.0 374.0Q944 323 941 271Q949 270 957.5 268.5Q966 267 976 266ZM1441 212Q1477 232 1516.5 258.0Q1556 284 1608 324Q1583 344 1560.5 360.0Q1538 376 1518 389Q1509 367 1506.5 333.0Q1504 299 1501 255H1494Q1494 260 1494.0 265.0Q1494 270 1493 274Q1470 270 1443.5 265.5Q1417 261 1409 258Q1409 265 1409.5 271.5Q1410 278 1410 285H1409V296L1410 295V314H1409V323L1410 322V343H1409V351L1410 350Q1410 358 1410.0 364.5Q1410 371 1409 379Q1416 376 1438.0 371.5Q1460 367 1482 365L1474 391Q1487 388 1494.5 388.0Q1502 388 1516 390Q1497 403 1479.0 413.0Q1461 423 1444 433Q1414 399 1390.5 371.5Q1367 344 1349 321Q1368 298 1390.5 271.0Q1413 244 1441 212ZM1238 165Q1225 185 1210.0 202.0Q1195 219 1172 233Q1200 248 1230.0 268.5Q1260 289 1300 323Q1264 355 1237.0 375.0Q1210 395 1181 413Q1177 383 1174.0 343.0Q1171 303 1169.0 263.5Q1167 224 1165 193H1155L1154 199Q1080 195 1031.5 192.0Q983 189 949 185Q1068 176 1238 165ZM317 215Q312 267 305.0 312.0Q298 357 288 382Q252 358 225.0 338.5Q198 319 184 308Q201 294 236.0 270.0Q271 246 317 215ZM720 159Q719 185 717.0 210.5Q715 236 713 261Q676 283 631.5 305.0Q587 327 544.0 344.0Q501 361 467 367Q481 349 511.5 322.0Q542 295 579.5 265.0Q617 235 654.5 207.0Q692 179 720 159ZM1487 336 1484 357Q1467 355 1449.5 352.0Q1432 349 1421 346Q1433 343 1452.0 340.5Q1471 338 1487 336ZM1491 307 1488 328Q1472 326 1455.0 323.5Q1438 321 1425 319Q1438 316 1456.5 312.5Q1475 309 1491 307ZM1148 296 1146 326Q1112 325 1090.0 321.5Q1068 318 1053 313V304Q1074 301 1098.0 299.5Q1122 298 1148 296ZM1941 135Q1939 182 1936.0 225.5Q1933 269 1928 309L1874 307Q1872 275 1871.0 243.5Q1870 212 1870 186H1860Q1860 212 1859.0 243.5Q1858 275 1856 306Q1846 306 1836.5 305.5Q1827 305 1818 304Q1817 273 1816.0 242.0Q1815 211 1815 186H1805Q1805 211 1804.0 241.5Q1803 272 1801 303L1763 300Q1762 269 1761.0 239.5Q1760 210 1760 186H1750Q1750 210 1749.0 239.0Q1748 268 1746 298L1708 294Q1705 236 1705 186H1695Q1695 209 1694.5 236.5Q1694 264 1692 292Q1666 288 1644.5 283.5Q1623 279 1603 274L1606 294Q1569 255 1540.5 221.0Q1512 187 1486 152Q1576 148 1661.0 144.0Q1746 140 1818.0 138.0Q1890 136 1941 135ZM1493 278 1491 301Q1475 299 1457.0 296.0Q1439 293 1425 290Q1439 287 1458.0 283.5Q1477 280 1493 278ZM1432 154Q1418 171 1395 189L1428 205Q1398 234 1373.5 256.5Q1349 279 1329 297Q1298 257 1278.5 228.0Q1259 199 1239 165Q1286 163 1334.5 160.0Q1383 157 1432 154ZM1151 252Q1150 260 1149.5 268.0Q1149 276 1149 284Q1122 283 1097.0 280.0Q1072 277 1051 274Q1050 270 1050.0 266.5Q1050 263 1050 259Q1076 257 1101.5 255.5Q1127 254 1151 252ZM726 31Q725 57 724.0 82.5Q723 108 721 132Q691 150 649.5 173.5Q608 197 563.0 219.5Q518 242 477.5 258.5Q437 275 410 280Q421 264 448.5 239.5Q476 215 513.5 186.0Q551 157 591.0 127.5Q631 98 667.0 73.0Q703 48 726 31ZM1033 260Q1033 263 1033.0 266.0Q1033 269 1032 272Q1022 270 1012.5 268.0Q1003 266 995 264ZM1154 209 1151 242 1048 234Q1048 230 1047.5 225.0Q1047 220 1047 215ZM1036 216Q1036 220 1035.5 224.5Q1035 229 1035 233L993 229V219ZM981 219Q981 221 980.5 223.5Q980 226 980 227Q970 226 962.0 225.0Q954 224 946 222ZM727 -38Q727 -27 727.0 -15.5Q727 -4 726 6Q704 20 668.5 40.5Q633 61 590.5 84.0Q548 107 505.0 128.0Q462 149 424.5 165.0Q387 181 362 187V186Q419 150 482.5 110.0Q546 70 609.0 32.0Q672 -6 727 -38Z" />
  </g>
</svg>