<svg xmlns="http://www.w3.org/2000/svg" viewBox="100 -112 1639 848">
  <g transform="translate(0, 624) scale(1, -1)">
    <path fill="black" d="M728 -112V-71Q643 -30 544.0 12.0Q445 54 355 89L349 -15H330Q330 5 329.0 35.0Q328 65 326 100Q240 134 178.0 156.0Q116 178 100 179Q122 205 139.5 241.0Q157 277 169 308Q157 340 139.5 376.0Q122 412 100 437Q112 438 150.5 451.0Q189 464 246.5 485.5Q304 507 372.5 534.0Q441 561 513.0 592.0Q585 623 653 654Q648 676 643.0 696.5Q638 717 633 736Q684 724 738 724Q792 724 849 736Q841 707 833.0 673.0Q825 639 817 601Q835 597 879.5 591.0Q924 585 986.5 578.5Q1049 572 1122.5 565.5Q1196 559 1274.0 553.5Q1352 548 1427.0 544.0Q1502 540 1567 538Q1557 597 1545.5 646.0Q1534 695 1523 736Q1574 724 1628 724Q1682 724 1739 736Q1716 653 1694.0 533.5Q1672 414 1658.0 254.0Q1644 94 1644 -112H1618Q1618 -53 1616.5 2.0Q1615 57 1613 109Q1561 109 1491.0 105.5Q1421 102 1342.0 97.0Q1263 92 1185 85L1182 13H1165Q1164 30 1162.5 47.5Q1161 65 1160 83Q1073 76 997.5 68.5Q922 61 871.5 54.5Q821 48 809 43Q812 62 814.5 84.0Q817 106 817 129Q817 167 809 202Q820 198 864.5 191.5Q909 185 976.0 177.5Q1043 170 1123 163Q1088 195 1066.0 215.0Q1044 235 1026.5 250.0Q1009 265 986 280Q1002 294 1020.0 307.5Q1038 321 1063.5 341.5Q1089 362 1127 395Q1122 420 1116.5 441.5Q1111 463 1104 480Q1029 474 966.0 467.0Q903 460 861.5 454.5Q820 449 809 445Q812 464 814.5 486.0Q817 508 817 531Q817 545 816.0 557.5Q815 570 813 583Q790 467 773.0 310.0Q756 153 754 -53Q773 -63 790.0 -72.5Q807 -82 822 -90L810 -111Q797 -104 783.0 -97.0Q769 -90 754 -83V-112ZM364 203Q378 220 388.5 237.5Q399 255 409 280H408Q427 300 439.0 319.5Q451 339 464 367Q463 367 462.5 367.5Q462 368 461 368Q481 389 493.0 408.5Q505 428 518 458Q533 437 565.0 408.0Q597 379 636.5 349.0Q676 319 710 293L699 393Q655 416 608.5 433.5Q562 451 519 458Q539 479 551.0 498.5Q563 518 576 548Q593 523 626.0 493.0Q659 463 693 434Q686 486 678.0 532.5Q670 579 661 619Q601 583 535.0 542.0Q469 501 406.5 460.5Q344 420 294 386Q314 382 335 382Q359 382 392 388Q383 366 376.0 314.5Q369 263 364 203ZM1611 135Q1605 245 1595.0 338.5Q1585 432 1572 510Q1511 508 1433.5 504.0Q1356 500 1273.5 494.0Q1191 488 1113 481Q1129 479 1141.5 477.5Q1154 476 1167 476Q1193 476 1232 483Q1225 465 1218.5 438.0Q1212 411 1207 379Q1253 360 1322.5 342.5Q1392 325 1485 320V307Q1388 297 1324.0 278.5Q1260 260 1205 238Q1210 268 1210 306Q1210 322 1209.0 338.0Q1208 354 1206 369Q1200 323 1195.5 268.0Q1191 213 1188 157Q1262 151 1337.5 146.0Q1413 141 1483.5 138.5Q1554 136 1611 135ZM317 215Q312 267 305.0 312.0Q298 357 288 382Q252 358 225.0 338.5Q198 319 184 308Q201 294 236.0 270.0Q271 246 317 215ZM1154 160Q1150 216 1144.5 270.0Q1139 324 1131 370Q1117 345 1105.5 323.0Q1094 301 1082 280Q1096 255 1110.0 227.0Q1124 199 1143 168L1136 162ZM720 159Q719 185 717.0 210.5Q715 236 713 261Q676 283 631.5 305.0Q587 327 544.0 344.0Q501 361 467 367Q481 349 511.5 322.0Q542 295 579.5 265.0Q617 235 654.5 207.0Q692 179 720 159ZM726 31Q725 57 724.0 82.5Q723 108 721 132Q691 150 649.5 173.5Q608 197 563.0 219.5Q518 242 477.5 258.5Q437 275 410 280Q421 264 448.5 239.5Q476 215 513.5 186.0Q551 157 591.0 127.5Q631 98 667.0 73.0Q703 48 726 31ZM727 -38Q727 -27 727.0 -15.5Q727 -4 726 6Q704 20 668.5 40.5Q633 61 590.5 84.0Q548 107 505.0 128.0Q462 149 424.5 165.0Q387 181 362 187V185Q419 149 482.5 109.0Q546 69 609.0 31.5Q672 -6 727 -38Z" />
  </g>
</svg>