<svg xmlns="http://www.w3.org/2000/svg" viewBox="100 -112 1639 848">
  <g transform="translate(0, 624) scale(1, -1)">
    <path fill="black" d="M728 -112V-71Q643 -30 544.0 12.0Q445 54 355 89L349 -15H330Q330 5 329.0 35.0Q328 65 326 100Q240 134 178.0 156.0Q116 178 100 179Q122 205 139.5 241.0Q157 277 169 308Q157 340 139.5 376.0Q122 412 100 437Q112 438 150.5 451.0Q189 464 246.5 485.5Q304 507 372.5 534.0Q441 561 513.0 592.0Q585 623 653 654Q648 676 643.0 696.5Q638 717 633 736Q684 724 738 724Q792 724 849 736Q841 707 833.0 673.0Q825 639 817 601Q835 597 879.5 591.0Q924 585 986.5 578.5Q1049 572 1122.5 565.5Q1196 559 1274.0 553.5Q1352 548 1427.0 544.0Q1502 540 1567 538Q1557 597 1545.5 646.0Q1534 695 1523 736Q1574 724 1628 724Q1682 724 1739 736Q1716 653 1694.0 533.5Q1672 414 1658.0 254.0Q1644 94 1644 -112H1618Q1618 -53 1616.5 2.0Q1615 57 1613 109Q1565 108 1501.0 105.5Q1437 103 1365.0 98.5Q1293 94 1219.5 88.0Q1146 82 1077.5 76.0Q1009 70 953 64Q944 51 938.0 42.0Q932 33 930 29Q918 47 904 58Q867 54 842.0 50.0Q817 46 809 43Q812 62 814.5 84.0Q817 106 817 129Q817 167 809 202Q826 195 897 186Q893 227 888.5 262.0Q884 297 880 307Q897 302 910 302Q932 314 950 333Q933 351 910 364Q925 371 948.0 388.5Q971 406 998.5 429.5Q1026 453 1052 476Q989 470 937.5 464.0Q886 458 852.0 453.5Q818 449 809 445Q812 464 814.5 486.0Q817 508 817 531Q817 545 816.0 557.5Q815 570 813 583Q790 467 773.0 310.0Q756 153 754 -53Q773 -63 790.0 -72.5Q807 -82 822 -90L810 -111Q797 -104 783.0 -97.0Q769 -90 754 -83V-112ZM364 203Q378 220 388.5 237.5Q399 255 409 280H408Q427 300 439.0 319.5Q451 339 464 367Q463 367 462.5 367.5Q462 368 461 368Q481 389 493.0 408.5Q505 428 518 458Q533 437 565.0 408.0Q597 379 636.5 349.0Q676 319 710 293L699 393Q655 416 608.5 433.5Q562 451 519 458Q539 479 551.0 498.5Q563 518 576 548Q593 523 626.0 493.0Q659 463 693 434Q686 486 678.0 532.5Q670 579 661 619Q601 583 535.0 542.0Q469 501 406.5 460.5Q344 420 294 386Q314 382 335 382Q359 382 392 388Q383 366 376.0 314.5Q369 263 364 203ZM1595 338Q1590 385 1584.0 428.0Q1578 471 1572 510Q1510 508 1430.5 503.5Q1351 499 1266.5 493.0Q1182 487 1102 480Q1126 455 1162.5 422.5Q1199 390 1231 361L1228 388Q1246 380 1286.5 372.0Q1327 364 1379.5 357.0Q1432 350 1488.5 345.0Q1545 340 1595 338ZM1053 222 1077 234Q1074 261 1071.0 289.0Q1068 317 1065.5 338.5Q1063 360 1060 366Q1075 363 1089 363Q1100 363 1112 366Q1110 360 1106.5 340.5Q1103 321 1100.0 295.0Q1097 269 1094 243Q1127 261 1164.5 284.5Q1202 308 1233 329V342Q1205 360 1172.5 380.5Q1140 401 1109.0 419.0Q1078 437 1055 447Q1029 416 1005.0 384.5Q981 353 969 333Q980 314 1003.5 284.0Q1027 254 1053 222ZM317 215Q312 267 305.0 312.0Q298 357 288 382Q252 358 225.0 338.5Q198 319 184 308Q201 294 236.0 270.0Q271 246 317 215ZM720 159Q719 185 717.0 210.5Q715 236 713 261Q676 283 631.5 305.0Q587 327 544.0 344.0Q501 361 467 367Q481 349 511.5 322.0Q542 295 579.5 265.0Q617 235 654.5 207.0Q692 179 720 159ZM1611 135Q1609 185 1605.5 231.5Q1602 278 1597 321Q1549 319 1493.5 314.5Q1438 310 1385.5 303.0Q1333 296 1291.5 288.0Q1250 280 1228 271Q1230 280 1231.0 290.0Q1232 300 1232 310Q1208 288 1180.0 263.5Q1152 239 1128.0 216.0Q1104 193 1090 177Q1093 174 1095.5 171.0Q1098 168 1100 165Q1184 158 1276.0 151.0Q1368 144 1455.0 140.0Q1542 136 1611 135ZM1016 173 1045 196Q1017 221 989.0 244.5Q961 268 938 284Q935 265 931.5 238.5Q928 212 925 183Q945 181 968.0 178.0Q991 175 1016 173ZM726 31Q725 57 724.0 82.5Q723 108 721 132Q691 150 649.5 173.5Q608 197 563.0 219.5Q518 242 477.5 258.5Q437 275 410 280Q421 264 448.5 239.5Q476 215 513.5 186.0Q551 157 591.0 127.5Q631 98 667.0 73.0Q703 48 726 31ZM1077 167V168L1053 189L1038 171ZM727 -38Q727 -27 727.0 -15.5Q727 -4 726 6Q704 20 668.5 40.5Q633 61 590.5 84.0Q548 107 505.0 128.0Q462 149 424.5 165.0Q387 181 362 187V185Q419 149 482.5 109.0Q546 69 609.0 31.5Q672 -6 727 -38Z" />
  </g>
</svg>