<svg xmlns="http://www.w3.org/2000/svg" viewBox="100 -112 1640 848">
  <g transform="translate(0, 624) scale(1, -1)">
    <path fill="black" d="M729 -112V-71Q644 -30 544.5 11.5Q445 53 355 89L349 -15H330Q330 5 329.0 35.0Q328 65 326 100Q240 134 178.0 156.0Q116 178 100 179Q122 205 139.5 241.0Q157 277 169 308Q157 340 139.5 376.0Q122 412 100 437Q112 438 151.0 451.0Q190 464 247.0 485.5Q304 507 373.0 534.5Q442 562 514.0 592.5Q586 623 654 654Q649 677 644.0 697.0Q639 717 634 736Q685 724 739 724Q793 724 850 736Q842 707 834.0 673.0Q826 639 818 601Q837 597 881.5 591.0Q926 585 988.5 578.0Q1051 571 1124.5 565.0Q1198 559 1276.0 553.0Q1354 547 1429.0 543.5Q1504 540 1568 538Q1558 597 1546.5 646.0Q1535 695 1524 736Q1575 724 1629 724Q1683 724 1740 736Q1717 653 1695.0 533.5Q1673 414 1659.0 254.0Q1645 94 1645 -112H1619Q1619 -53 1617.5 2.0Q1616 57 1614 109Q1567 109 1504.5 106.0Q1442 103 1371.0 99.0Q1300 95 1228 89L1193 52L1163 83Q1076 76 999.5 68.5Q923 61 872.0 54.5Q821 48 809 43Q812 62 814.5 84.0Q817 106 817 129Q817 167 809 202Q819 198 855.5 192.5Q892 187 949.0 180.5Q1006 174 1075 167Q1041 198 1010.0 223.0Q979 248 959 258Q967 263 976.0 268.0Q985 273 994 279L992 281Q1019 313 1046.0 350.5Q1073 388 1095.5 423.0Q1118 458 1130 483Q1049 476 980.0 469.0Q911 462 865.5 456.0Q820 450 809 445Q812 463 814.0 484.5Q816 506 816 528Q816 555 813 580Q791 465 774.0 308.0Q757 151 755 -54Q774 -64 790.5 -73.0Q807 -82 822 -90L810 -111L755 -83V-112ZM364 203Q378 220 388.5 237.5Q399 255 409 280H408Q427 300 439.0 319.5Q451 339 464 367Q463 367 462.5 367.5Q462 368 461 368Q481 389 493.0 408.5Q505 428 518 458Q533 437 565.5 408.0Q598 379 637.5 348.5Q677 318 711 292L700 392Q656 415 609.0 433.0Q562 451 519 458Q539 479 551.0 498.5Q563 518 576 548Q594 523 627.0 492.5Q660 462 695 433Q688 486 679.0 532.5Q670 579 662 620Q601 584 535.0 543.0Q469 502 407.0 461.5Q345 421 294 386Q314 382 335 382Q359 382 392 388Q383 366 376.0 314.5Q369 263 364 203ZM1612 135Q1606 245 1596.0 338.5Q1586 432 1573 510Q1509 509 1427.0 504.0Q1345 499 1259 493Q1267 475 1285.5 447.0Q1304 419 1329.0 387.0Q1354 355 1379.5 323.5Q1405 292 1426 265L1421 261L1427 258Q1404 246 1367.0 216.0Q1330 186 1291 150Q1378 144 1461.5 140.0Q1545 136 1612 135ZM1197 445Q1212 455 1225.5 466.0Q1239 477 1252 492Q1226 491 1200.5 488.5Q1175 486 1149 484Q1169 461 1197 445ZM1249 153Q1257 164 1265.0 176.0Q1273 188 1280 199Q1257 197 1230.0 194.5Q1203 192 1183.0 189.0Q1163 186 1158 184Q1160 194 1160.5 204.0Q1161 214 1158 225Q1163 223 1185.0 220.0Q1207 217 1235.5 214.0Q1264 211 1287 209Q1295 221 1302.0 233.0Q1309 245 1316 255Q1301 254 1277.0 252.0Q1253 250 1227.0 247.5Q1201 245 1182.0 242.5Q1163 240 1158 238Q1160 248 1160.5 258.0Q1161 268 1158 279Q1163 277 1183.5 274.0Q1204 271 1231.0 268.5Q1258 266 1283.0 264.0Q1308 262 1320 262Q1328 276 1334.5 287.5Q1341 299 1345 308Q1323 307 1293.0 305.0Q1263 303 1233.5 300.5Q1204 298 1183.0 296.0Q1162 294 1158 292Q1160 302 1160.5 312.0Q1161 322 1158 333Q1162 331 1184.5 328.5Q1207 326 1238.5 323.5Q1270 321 1300.5 319.0Q1331 317 1352 316Q1325 341 1300 362Q1277 361 1245.5 358.0Q1214 355 1188.5 352.0Q1163 349 1158 346Q1160 356 1160.5 366.0Q1161 376 1158 387Q1163 385 1185.5 382.0Q1208 379 1236.5 376.0Q1265 373 1289 371Q1263 393 1239.5 410.0Q1216 427 1197 437Q1164 419 1123.5 384.0Q1083 349 1040 309Q1050 287 1075.5 246.5Q1101 206 1130 162ZM317 215Q312 267 305.0 312.0Q298 357 288 382Q252 358 225.0 338.5Q198 319 184 308Q201 294 236.0 270.0Q271 246 317 215ZM721 158Q720 185 718.0 210.5Q716 236 714 261Q677 282 632.5 304.0Q588 326 544.5 343.5Q501 361 467 367Q481 349 511.5 321.5Q542 294 580.5 264.0Q619 234 656.0 206.0Q693 178 721 158ZM1397 275 1361 309Q1360 309 1358.5 308.5Q1357 308 1355 308Q1364 299 1375.0 291.0Q1386 283 1397 275ZM727 31Q726 57 725.0 82.0Q724 107 722 132Q692 150 650.5 173.5Q609 197 564.0 219.5Q519 242 478.0 258.5Q437 275 410 280Q420 264 448.5 239.0Q477 214 514.5 185.0Q552 156 592.5 127.0Q633 98 668.5 73.0Q704 48 727 31ZM728 -38Q728 -27 728.0 -15.5Q728 -4 727 6Q705 20 669.5 40.5Q634 61 591.5 84.0Q549 107 506.0 128.0Q463 149 425.5 165.0Q388 181 362 187V185Q419 149 483.0 109.0Q547 69 610.0 31.0Q673 -7 728 -38ZM1193 74 1202 87 1185 85Q1187 82 1189.0 79.0Q1191 76 1193 74Z" />
  </g>
</svg>