<svg xmlns="http://www.w3.org/2000/svg" viewBox="100 -112 1639 848">
  <g transform="translate(0, 624) scale(1, -1)">
    <path fill="black" d="M728 -112V-71Q643 -30 544.0 12.0Q445 54 355 89L349 -15H330Q330 5 329.0 35.0Q328 65 326 100Q240 134 178.0 156.0Q116 178 100 179Q122 205 139.5 241.0Q157 277 169 308Q157 340 139.5 376.0Q122 412 100 437Q112 438 150.5 451.0Q189 464 246.5 485.5Q304 507 372.5 534.0Q441 561 513.0 592.0Q585 623 653 654Q648 676 643.0 696.5Q638 717 633 736Q684 724 738 724Q792 724 849 736Q841 707 833.0 673.0Q825 639 817 601Q835 597 879.5 591.0Q924 585 986.5 578.5Q1049 572 1122.5 565.5Q1196 559 1274.0 553.5Q1352 548 1427.0 544.0Q1502 540 1567 538Q1557 597 1545.5 646.0Q1534 695 1523 736Q1574 724 1628 724Q1682 724 1739 736Q1716 653 1694.0 533.5Q1672 414 1658.0 254.0Q1644 94 1644 -112H1618Q1618 -53 1616.5 2.0Q1615 57 1613 109Q1557 108 1479.0 104.5Q1401 101 1314.5 95.0Q1228 89 1143.0 82.0Q1058 75 986.5 67.5Q915 60 867.5 54.0Q820 48 809 43Q812 62 814.5 84.0Q817 106 817 129Q817 167 809 202Q820 197 871.0 190.0Q922 183 995 175Q996 200 993 223Q1000 221 1017.0 218.5Q1034 216 1059 214L1057 241Q1009 238 993 233Q994 241 994.5 250.5Q995 260 995 269Q995 278 994.5 287.0Q994 296 993 303Q999 301 1014.5 298.5Q1030 296 1052 294L1050 319Q1008 316 993 311Q994 319 994.5 328.0Q995 337 995 347Q995 356 994.5 365.5Q994 375 993 382Q1004 377 1043 374L1039 397Q1023 396 1011.0 394.0Q999 392 993 390Q994 398 994.5 407.5Q995 417 995 426Q995 435 994.5 444.0Q994 453 993 460Q1003 456 1034.5 452.5Q1066 449 1111.0 446.5Q1156 444 1208.5 441.0Q1261 438 1312.5 436.5Q1364 435 1409.0 433.5Q1454 432 1483 431Q1479 451 1475.5 466.5Q1472 482 1468 492Q1482 490 1495.5 488.5Q1509 487 1522 487Q1536 487 1549.0 488.5Q1562 490 1575 492L1572 510Q1511 508 1434.5 504.0Q1358 500 1276.0 494.0Q1194 488 1115.5 481.5Q1037 475 971.5 468.0Q906 461 863.0 455.0Q820 449 809 445Q812 464 814.5 486.0Q817 508 817 531Q817 545 816.0 557.5Q815 570 813 583Q790 467 773.0 310.0Q756 153 754 -53Q773 -63 790.0 -72.5Q807 -82 822 -90L810 -111Q797 -104 783.0 -97.0Q769 -90 754 -83V-112ZM364 203Q378 220 388.5 237.5Q399 255 409 280H408Q427 300 439.0 319.5Q451 339 464 367Q463 367 462.5 367.5Q462 368 461 368Q481 389 493.0 408.5Q505 428 518 458Q533 437 565.0 408.0Q597 379 636.5 349.0Q676 319 710 293L699 393Q655 416 608.5 433.5Q562 451 519 458Q539 479 551.0 498.5Q563 518 576 548Q593 523 626.0 493.0Q659 463 693 434Q686 486 678.0 532.5Q670 579 661 619Q601 583 535.0 542.0Q469 501 406.5 460.5Q344 420 294 386Q314 382 335 382Q359 382 392 388Q383 366 376.0 314.5Q369 263 364 203ZM1611 135Q1606 239 1596.5 327.5Q1587 416 1575 490Q1566 466 1559.0 425.0Q1552 384 1547.0 334.0Q1542 284 1538.0 232.5Q1534 181 1530 137Q1552 136 1572.0 135.5Q1592 135 1611 135ZM1495 353Q1493 370 1490.5 386.5Q1488 403 1485 418Q1455 418 1407.0 416.5Q1359 415 1302.5 413.0Q1246 411 1191 408Q1187 400 1182 364Q1188 364 1194.0 363.5Q1200 363 1206 363Q1201 399 1198 408Q1218 405 1239 405Q1256 405 1272 408Q1270 404 1267.5 391.0Q1265 378 1263 360Q1269 360 1275.0 360.0Q1281 360 1288 359Q1286 377 1283.5 390.0Q1281 403 1279 408Q1299 405 1320 405Q1337 405 1353 408Q1348 397 1343 357Q1350 357 1356.5 357.0Q1363 357 1369 356Q1367 376 1364.5 389.5Q1362 403 1360 408Q1380 405 1400 405Q1417 405 1433 408Q1431 403 1428.5 388.5Q1426 374 1423 354Q1445 353 1463.5 353.0Q1482 353 1495 353ZM1143 405Q1166 403 1190 408ZM1125 367Q1124 379 1122.0 388.5Q1120 398 1118 403H1108Q1105 393 1102 369ZM317 215Q312 267 305.0 312.0Q298 357 288 382Q252 358 225.0 338.5Q198 319 184 308Q201 294 236.0 270.0Q271 246 317 215ZM720 159Q719 185 717.0 210.5Q715 236 713 261Q676 283 631.5 305.0Q587 327 544.0 344.0Q501 361 467 367Q481 349 511.5 322.0Q542 295 579.5 265.0Q617 235 654.5 207.0Q692 179 720 159ZM1503 274Q1502 291 1500.0 307.0Q1498 323 1496 339Q1483 339 1463.5 338.5Q1444 338 1421 337L1414 276Q1443 275 1466.0 274.5Q1489 274 1503 274ZM1378 277 1372 336Q1364 335 1356.0 335.0Q1348 335 1340 335L1334 278Q1345 278 1356.5 277.5Q1368 277 1378 277ZM1297 280 1291 333Q1283 333 1275.0 332.5Q1267 332 1259 332L1254 282Q1265 281 1275.5 280.5Q1286 280 1297 280ZM1215 283Q1214 296 1213.0 307.5Q1212 319 1210 330Q1202 329 1194.0 328.5Q1186 328 1178 328L1173 286ZM1134 288Q1133 298 1132.0 307.0Q1131 316 1130 325Q1121 325 1112.5 324.5Q1104 324 1096 323L1093 291ZM726 31Q725 57 724.0 82.5Q723 108 721 132Q691 150 649.5 173.5Q608 197 563.0 219.5Q518 242 477.5 258.5Q437 275 410 280Q421 264 448.5 239.5Q476 215 513.5 186.0Q551 157 591.0 127.5Q631 98 667.0 73.0Q703 48 726 31ZM1509 195Q1508 211 1507.0 227.5Q1506 244 1504 260Q1491 260 1467.0 259.5Q1443 259 1413 258L1407 197Q1442 196 1468.5 195.5Q1495 195 1509 195ZM1385 198 1380 257 1331 255 1326 199Q1342 199 1357.0 198.5Q1372 198 1385 198ZM1304 200Q1303 214 1301.5 227.5Q1300 241 1299 254Q1286 254 1274.5 253.5Q1263 253 1251 253Q1250 240 1248.5 227.5Q1247 215 1246 203ZM1222 204Q1221 215 1220.5 227.0Q1220 239 1218 251Q1206 251 1193.5 250.5Q1181 250 1169 249Q1168 238 1167.5 227.5Q1167 217 1165 207ZM1141 208 1138 247 1088 244 1085 212ZM727 -38Q727 -27 727.0 -15.5Q727 -4 726 6Q704 20 668.5 40.5Q633 61 590.5 84.0Q548 107 505.0 128.0Q462 149 424.5 165.0Q387 181 362 187V185Q419 149 482.5 109.0Q546 69 609.0 31.5Q672 -6 727 -38ZM1513 138 1510 181Q1497 181 1469.0 180.5Q1441 180 1405 178L1402 143Q1431 142 1459.0 140.5Q1487 139 1513 138ZM1391 144Q1390 152 1389.0 160.0Q1388 168 1387 178L1324 176L1321 148Q1339 147 1356.5 146.0Q1374 145 1391 144ZM1309 149 1306 175 1243 173Q1243 168 1242.5 163.5Q1242 159 1241 154Q1258 153 1275.0 151.5Q1292 150 1309 149ZM1227 155Q1227 159 1226.5 163.5Q1226 168 1225 172L1162 169Q1161 166 1161 160Q1178 159 1194.5 157.5Q1211 156 1227 155ZM1146 161Q1146 163 1145.5 165.0Q1145 167 1145 168L1095 165Q1108 164 1120.5 163.5Q1133 163 1146 161Z" />
  </g>
</svg>