<svg xmlns="http://www.w3.org/2000/svg" viewBox="100 -112 1659 848">
  <g transform="translate(0, 624) scale(1, -1)">
    <path fill="black" d="M728 -112V-71Q643 -30 544.0 12.0Q445 54 355 89L349 -15H330Q330 5 329.0 35.0Q328 65 326 100Q240 134 178.0 156.0Q116 178 100 179Q122 205 139.5 241.0Q157 277 169 308Q157 340 139.5 376.0Q122 412 100 437Q112 438 150.5 451.0Q189 464 246.5 485.5Q304 507 372.5 534.0Q441 561 513.0 592.0Q585 623 653 654Q648 676 643.0 696.5Q638 717 633 736Q684 724 738 724Q792 724 849 736Q841 707 833.0 673.0Q825 639 817 601Q835 597 879.5 591.0Q924 585 986.5 578.5Q1049 572 1122.5 565.5Q1196 559 1274.0 553.5Q1352 548 1427.0 544.0Q1502 540 1567 538Q1557 597 1545.5 646.0Q1534 695 1523 736Q1574 724 1628 724Q1682 724 1739 736Q1726 690 1713.0 633.0Q1700 576 1689 508Q1706 507 1724.5 507.5Q1743 508 1759 512Q1753 490 1747.5 462.0Q1742 434 1737.0 390.5Q1732 347 1727.0 279.0Q1722 211 1717 110H1707Q1706 167 1704.0 211.5Q1702 256 1699 292L1672 311L1663 303Q1654 214 1649.0 110.5Q1644 7 1644 -112H1618Q1618 -53 1616.5 2.0Q1615 57 1613 109Q1557 108 1479.0 104.5Q1401 101 1314.5 95.0Q1228 89 1143.0 82.0Q1058 75 986.5 67.5Q915 60 867.5 54.0Q820 48 809 43Q812 62 814.5 84.0Q817 106 817 129Q817 167 809 202Q823 196 885.5 187.5Q948 179 1038 171Q1007 200 990.0 215.0Q973 230 949 246Q966 261 987.5 277.5Q1009 294 1049 329Q1024 352 1008.0 366.5Q992 381 979.5 391.5Q967 402 949 414Q963 426 980.0 438.5Q997 451 1023 473Q939 466 880.5 458.0Q822 450 809 445Q812 464 814.5 486.0Q817 508 817 531Q817 545 816.0 557.5Q815 570 813 583Q790 467 773.0 310.0Q756 153 754 -53Q773 -63 790.0 -72.5Q807 -82 822 -90L810 -111Q797 -104 783.0 -97.0Q769 -90 754 -83V-112ZM364 203Q378 220 388.5 237.5Q399 255 409 280H408Q427 300 439.0 319.5Q451 339 464 367Q463 367 462.5 367.5Q462 368 461 368Q481 389 493.0 408.5Q505 428 518 458Q533 437 565.0 408.0Q597 379 636.5 349.0Q676 319 710 293L699 393Q655 416 608.5 433.5Q562 451 519 458Q539 479 551.0 498.5Q563 518 576 548Q593 523 626.0 493.0Q659 463 693 434Q686 486 678.0 532.5Q670 579 661 619Q601 583 535.0 542.0Q469 501 406.5 460.5Q344 420 294 386Q314 382 335 382Q359 382 392 388Q383 366 376.0 314.5Q369 263 364 203ZM1589 396Q1585 426 1581.0 455.0Q1577 484 1572 510L1482 507Q1498 485 1520.5 461.0Q1543 437 1589 396ZM1318 336Q1321 361 1317 384L1315 383Q1315 386 1316 388Q1315 389 1315 393Q1315 392 1317 392Q1319 407 1319.0 423.0Q1319 439 1315 455Q1325 451 1349.5 446.0Q1374 441 1405.5 436.0Q1437 431 1466 427Q1454 431 1442.5 434.0Q1431 437 1417 441Q1431 453 1444.5 470.5Q1458 488 1468 506Q1434 505 1396.5 502.5Q1359 500 1321 497Q1305 473 1295.0 453.0Q1285 433 1274 414Q1285 396 1294.5 377.0Q1304 358 1318 336ZM1208 419Q1224 432 1244.5 448.0Q1265 464 1302 496Q1288 495 1273.0 494.0Q1258 493 1244 492L1248 490Q1235 470 1226.0 452.5Q1217 435 1208 419ZM1159 429Q1172 440 1189.5 453.5Q1207 467 1234 491L1192 488Q1182 472 1174.5 457.5Q1167 443 1159 429ZM1093 420Q1107 431 1125.0 445.0Q1143 459 1174 486L1128 483Q1118 465 1110.0 449.5Q1102 434 1093 420ZM1122 163Q1096 187 1080.5 201.0Q1065 215 1053.5 225.5Q1042 236 1025 247Q1042 261 1062.5 276.5Q1083 292 1123 328L1133 323Q1120 303 1111.5 286.0Q1103 269 1093 253Q1108 265 1128.0 280.5Q1148 296 1184 328L1194 323Q1183 306 1175.0 291.0Q1167 276 1159 262Q1173 273 1191.0 287.5Q1209 302 1238 328L1248 323Q1235 302 1226.0 284.5Q1217 267 1207 250Q1224 264 1244.5 280.0Q1265 296 1302 329Q1278 351 1262.5 365.0Q1247 379 1234.5 389.5Q1222 400 1206 411Q1216 394 1225.5 376.0Q1235 358 1248 338L1238 330Q1207 359 1190.5 373.5Q1174 388 1157 401Q1165 386 1173.5 370.5Q1182 355 1194 338L1184 330Q1159 353 1143.5 366.5Q1128 380 1116.5 390.0Q1105 400 1091 410Q1102 393 1111.0 375.5Q1120 358 1133 338L1123 330Q1096 354 1080.5 368.0Q1065 382 1053.5 392.5Q1042 403 1025 414Q1039 427 1057.0 440.0Q1075 453 1107 481L1055 476Q1045 459 1037.5 444.0Q1030 429 1021 414Q1033 395 1043.0 374.0Q1053 353 1069 330Q1053 306 1043.0 286.0Q1033 266 1021 246Q1032 228 1041.5 208.5Q1051 189 1065 168Q1079 167 1093.5 165.5Q1108 164 1122 163ZM1672 326 1695 341Q1691 375 1687.5 400.0Q1684 425 1680 445L1665 331ZM1463 140Q1454 156 1441.5 170.5Q1429 185 1417 196Q1437 202 1453.5 206.5Q1470 211 1488.5 218.0Q1507 225 1534.0 239.5Q1561 254 1601 279L1592 363Q1560 383 1537.0 395.5Q1514 408 1497 415Q1469 412 1437.0 407.0Q1405 402 1376.0 397.5Q1347 393 1329 388Q1347 383 1375.5 377.5Q1404 372 1435.0 367.5Q1466 363 1492 360V353Q1464 349 1432.5 344.0Q1401 339 1373.0 334.0Q1345 329 1328 324Q1346 319 1374.5 313.5Q1403 308 1434.5 304.0Q1466 300 1492 297V290Q1465 286 1433.5 281.0Q1402 276 1374.5 271.0Q1347 266 1329 261Q1347 257 1375.5 251.5Q1404 246 1435.0 241.5Q1466 237 1492 234V226Q1460 222 1423.5 216.5Q1387 211 1357.0 205.5Q1327 200 1315 194Q1317 203 1318.0 211.5Q1319 220 1319 229Q1319 243 1316 258L1315 257Q1315 260 1316 262Q1315 263 1315 266L1316 265Q1318 279 1318.5 293.0Q1319 307 1316 321L1315 320Q1302 300 1293.0 282.0Q1284 264 1274 246Q1285 227 1295.5 206.5Q1306 186 1322 163L1311 153Q1284 179 1267.0 194.5Q1250 210 1237.0 220.5Q1224 231 1207 242Q1217 226 1226.0 208.5Q1235 191 1248 171L1238 163Q1207 192 1190.5 206.5Q1174 221 1157 234Q1165 219 1173.5 203.5Q1182 188 1194 171L1184 163Q1159 186 1143.5 199.5Q1128 213 1116.5 223.0Q1105 233 1091 243Q1102 226 1111.0 208.5Q1120 191 1133 171L1123 163Q1205 156 1293.0 150.0Q1381 144 1463 140ZM317 215Q312 267 305.0 312.0Q298 357 288 382Q252 358 225.0 338.5Q198 319 184 308Q201 294 236.0 270.0Q271 246 317 215ZM720 159Q719 185 717.0 210.5Q715 236 713 261Q676 283 631.5 305.0Q587 327 544.0 344.0Q501 361 467 367Q481 349 511.5 322.0Q542 295 579.5 265.0Q617 235 654.5 207.0Q692 179 720 159ZM1698 305Q1698 311 1697.0 317.5Q1696 324 1696 330L1681 318ZM726 31Q725 57 724.0 82.5Q723 108 721 132Q691 150 649.5 173.5Q608 197 563.0 219.5Q518 242 477.5 258.5Q437 275 410 280Q421 264 448.5 239.5Q476 215 513.5 186.0Q551 157 591.0 127.5Q631 98 667.0 73.0Q703 48 726 31ZM1611 135Q1610 166 1607.5 196.0Q1605 226 1603 254Q1554 211 1529.5 185.5Q1505 160 1488 139Q1522 138 1552.5 136.5Q1583 135 1611 135ZM727 -38Q727 -27 727.0 -15.5Q727 -4 726 6Q704 20 668.5 40.5Q633 61 590.5 84.0Q548 107 505.0 128.0Q462 149 424.5 165.0Q387 181 362 187V185Q419 149 482.5 109.0Q546 69 609.0 31.5Q672 -6 727 -38Z" />
  </g>
</svg>