<svg xmlns="http://www.w3.org/2000/svg" viewBox="100 -112 1639 848">
  <g transform="translate(0, 624) scale(1, -1)">
    <path fill="black" d="M728 -112V-71Q643 -30 544.0 12.0Q445 54 355 89L349 -15H330Q330 5 329.0 35.0Q328 65 326 100Q240 134 178.0 156.0Q116 178 100 179Q122 205 139.5 241.0Q157 277 169 308Q157 340 139.5 376.0Q122 412 100 437Q112 438 150.5 451.0Q189 464 246.5 485.5Q304 507 372.5 534.0Q441 561 513.0 592.0Q585 623 653 654Q648 676 643.0 696.5Q638 717 633 736Q684 724 738 724Q792 724 849 736Q841 707 833.0 673.0Q825 639 817 601Q841 595 910.5 586.5Q980 578 1073 569Q1074 584 1073.0 598.5Q1072 613 1068 629Q1077 625 1115.5 620.0Q1154 615 1208.0 609.5Q1262 604 1319.5 599.0Q1377 594 1424 591Q1421 617 1418 624Q1429 621 1440.0 620.0Q1451 619 1461 619Q1474 619 1486.5 620.5Q1499 622 1512 624Q1509 617 1506.0 594.5Q1503 572 1500 540Q1517 539 1534.0 538.5Q1551 538 1567 538Q1557 597 1545.5 646.0Q1534 695 1523 736Q1574 724 1628 724Q1682 724 1739 736Q1716 653 1694.0 533.5Q1672 414 1658.0 254.0Q1644 94 1644 -112H1618Q1618 -53 1616.5 2.0Q1615 57 1613 109Q1557 108 1479.0 104.5Q1401 101 1314.5 95.0Q1228 89 1143.0 82.0Q1058 75 986.5 67.5Q915 60 867.5 54.0Q820 48 809 43Q812 62 814.5 84.0Q817 106 817 129Q817 167 809 202Q820 197 865.0 190.5Q910 184 978.0 177.0Q1046 170 1128.0 162.5Q1210 155 1296.5 149.0Q1383 143 1464.0 139.5Q1545 136 1611 135Q1605 245 1595.0 338.5Q1585 432 1572 510Q1554 510 1535.5 509.5Q1517 509 1497 508Q1493 464 1489.5 412.5Q1486 361 1482.5 311.5Q1479 262 1476.0 222.5Q1473 183 1470 162H1461Q1460 173 1458.5 190.0Q1457 207 1455 228Q1424 227 1373.0 224.0Q1322 221 1264.0 216.5Q1206 212 1152.5 206.5Q1099 201 1061.0 196.0Q1023 191 1014 187Q1016 200 1017.5 212.0Q1019 224 1019 236Q1019 247 1018.0 258.0Q1017 269 1014 280Q1025 275 1076 269Q1075 295 1072.5 326.5Q1070 358 1065.5 389.0Q1061 420 1057.0 443.0Q1053 466 1049 473Q1066 470 1083 470Q1100 470 1116 473Q1113 466 1108.5 442.5Q1104 419 1100.0 388.5Q1096 358 1092.5 326.0Q1089 294 1088 268Q1127 263 1178.0 258.0Q1229 253 1281.5 249.0Q1334 245 1379.5 242.5Q1425 240 1454 239Q1450 296 1444.5 369.0Q1439 442 1433 504Q1357 500 1275.0 494.0Q1193 488 1114.5 481.5Q1036 475 971.0 468.0Q906 461 863.0 455.0Q820 449 809 445Q812 464 814.5 486.0Q817 508 817 531Q817 545 816.0 557.5Q815 570 813 583Q790 467 773.0 310.0Q756 153 754 -53Q773 -63 790.0 -72.5Q807 -82 822 -90L810 -111Q797 -104 783.0 -97.0Q769 -90 754 -83V-112ZM364 203Q378 220 388.5 237.5Q399 255 409 280H408Q427 300 439.0 319.5Q451 339 464 367Q463 367 462.5 367.5Q462 368 461 368Q481 389 493.0 408.5Q505 428 518 458Q533 437 565.0 408.0Q597 379 636.5 349.0Q676 319 710 293L699 393Q655 416 608.5 433.5Q562 451 519 458Q539 479 551.0 498.5Q563 518 576 548Q593 523 626.0 493.0Q659 463 693 434Q686 486 678.0 532.5Q670 579 661 619Q601 583 535.0 542.0Q469 501 406.5 460.5Q344 420 294 386Q314 382 335 382Q359 382 392 388Q383 366 376.0 314.5Q369 263 364 203ZM1429 544 1426 574Q1381 571 1325.5 566.5Q1270 562 1218 557Q1271 553 1324.5 549.5Q1378 546 1429 544ZM1271 277Q1271 323 1263 382Q1235 378 1214.0 373.5Q1193 369 1185 365Q1188 382 1188 399Q1188 416 1185 432Q1192 429 1212.0 425.0Q1232 421 1257 417Q1253 439 1249.5 455.5Q1246 472 1243 479Q1260 476 1277 476Q1294 476 1310 479Q1307 472 1303.5 453.5Q1300 435 1295 411Q1320 408 1344.0 406.0Q1368 404 1387 404V393Q1368 393 1342.5 391.0Q1317 389 1291 386Q1287 358 1284.5 328.5Q1282 299 1282 277ZM317 215Q312 267 305.0 312.0Q298 357 288 382Q252 358 225.0 338.5Q198 319 184 308Q201 294 236.0 270.0Q271 246 317 215ZM720 159Q719 185 717.0 210.5Q715 236 713 261Q676 283 631.5 305.0Q587 327 544.0 344.0Q501 361 467 367Q481 349 511.5 322.0Q542 295 579.5 265.0Q617 235 654.5 207.0Q692 179 720 159ZM726 31Q725 57 724.0 82.5Q723 108 721 132Q691 150 649.5 173.5Q608 197 563.0 219.5Q518 242 477.5 258.5Q437 275 410 280Q421 264 448.5 239.5Q476 215 513.5 186.0Q551 157 591.0 127.5Q631 98 667.0 73.0Q703 48 726 31ZM727 -38Q727 -27 727.0 -15.5Q727 -4 726 6Q704 20 668.5 40.5Q633 61 590.5 84.0Q548 107 505.0 128.0Q462 149 424.5 165.0Q387 181 362 187V186Q419 150 482.5 110.0Q546 70 609.0 32.0Q672 -6 727 -38Z" />
  </g>
</svg>