<svg xmlns="http://www.w3.org/2000/svg" viewBox="100 -112 1639 848">
  <g transform="translate(0, 624) scale(1, -1)">
    <path fill="black" d="M728 -112V-71Q643 -30 544.0 12.0Q445 54 355 89L349 -15H330Q330 5 329.0 35.0Q328 65 326 100Q240 134 178.0 156.0Q116 178 100 179Q122 205 139.5 241.0Q157 277 169 308Q157 340 139.5 376.0Q122 412 100 437Q112 438 150.5 451.0Q189 464 246.5 485.5Q304 507 372.5 534.0Q441 561 513.0 592.0Q585 623 653 654Q648 676 643.0 696.5Q638 717 633 736Q684 724 738 724Q792 724 849 736Q841 707 833.0 673.0Q825 639 817 601Q835 597 879.5 591.0Q924 585 986.5 578.5Q1049 572 1122.5 565.5Q1196 559 1274.0 553.5Q1352 548 1427.0 544.0Q1502 540 1567 538Q1557 597 1545.5 646.0Q1534 695 1523 736Q1574 724 1628 724Q1682 724 1739 736Q1716 653 1694.0 533.5Q1672 414 1658.0 254.0Q1644 94 1644 -112H1618Q1618 -53 1616.5 2.0Q1615 57 1613 109Q1557 108 1479.0 104.5Q1401 101 1314.5 95.0Q1228 89 1143.0 82.0Q1058 75 986.5 67.5Q915 60 867.5 54.0Q820 48 809 43Q812 62 814.5 84.0Q817 106 817 129Q817 167 809 202Q826 195 891 187Q884 270 872.5 333.0Q861 396 839 451Q817 448 809 445Q812 464 814.5 486.0Q817 508 817 531Q817 545 816.0 557.5Q815 570 813 583Q790 467 773.0 310.0Q756 153 754 -53Q773 -63 790.0 -72.5Q807 -82 822 -90L810 -111Q797 -104 783.0 -97.0Q769 -90 754 -83V-112ZM364 203Q378 220 388.5 237.5Q399 255 409 280H408Q427 300 439.0 319.5Q451 339 464 367Q463 367 462.5 367.5Q462 368 461 368Q481 389 493.0 408.5Q505 428 518 458Q533 437 565.0 408.0Q597 379 636.5 349.0Q676 319 710 293L699 393Q655 416 608.5 433.5Q562 451 519 458Q539 479 551.0 498.5Q563 518 576 548Q593 523 626.0 493.0Q659 463 693 434Q686 486 678.0 532.5Q670 579 661 619Q601 583 535.0 542.0Q469 501 406.5 460.5Q344 420 294 386Q314 382 335 382Q359 382 392 388Q383 366 376.0 314.5Q369 263 364 203ZM1076 167Q1078 178 1079.5 189.0Q1081 200 1081 211Q1081 222 1079.5 233.5Q1078 245 1076 257Q1105 249 1132.5 242.5Q1160 236 1193.5 232.0Q1227 228 1274 225Q1273 233 1272.0 241.0Q1271 249 1269 257Q1298 248 1317.5 241.5Q1337 235 1359.5 231.0Q1382 227 1419.0 223.5Q1456 220 1522 217Q1517 285 1512.5 328.5Q1508 372 1502.5 405.5Q1497 439 1487 473Q1498 470 1509.5 469.0Q1521 468 1533 468Q1544 468 1555.5 469.0Q1567 470 1578 472L1572 510Q1509 508 1430.0 503.5Q1351 499 1266.5 493.0Q1182 487 1102.0 480.0Q1022 473 956.5 466.5Q891 460 852 454Q866 452 878.0 450.5Q890 449 903 449Q928 449 966 456Q951 419 941 372Q987 353 1056.5 335.5Q1126 318 1219 313V300Q1122 290 1058.0 271.5Q994 253 939 231Q944 261 944 301Q944 318 943.0 334.0Q942 350 940 365Q933 327 928.0 281.5Q923 236 920 183Q953 179 992.5 175.0Q1032 171 1076 167ZM1611 135Q1601 325 1578 468Q1569 438 1563.5 409.5Q1558 381 1554.0 345.0Q1550 309 1546.5 259.0Q1543 209 1540 137Q1559 136 1577.0 135.5Q1595 135 1611 135ZM1463 271Q1441 291 1423.0 306.0Q1405 321 1391 332Q1329 343 1288.0 349.0Q1247 355 1221.0 357.5Q1195 360 1176 360Q1152 360 1132.5 357.0Q1113 354 1080 351Q1102 402 1102 452Q1127 439 1142.5 430.5Q1158 422 1173.0 415.0Q1188 408 1210.0 400.0Q1232 392 1269.0 380.5Q1306 369 1367 352Q1381 363 1407.5 388.0Q1434 413 1457 440L1465 435Q1450 409 1440.0 388.5Q1430 368 1420 351Q1427 339 1440.0 320.0Q1453 301 1470 278ZM317 215Q312 267 305.0 312.0Q298 357 288 382Q252 358 225.0 338.5Q198 319 184 308Q201 294 236.0 270.0Q271 246 317 215ZM720 159Q719 185 717.0 210.5Q715 236 713 261Q676 283 631.5 305.0Q587 327 544.0 344.0Q501 361 467 367Q481 349 511.5 322.0Q542 295 579.5 265.0Q617 235 654.5 207.0Q692 179 720 159ZM726 31Q725 57 724.0 82.5Q723 108 721 132Q691 150 649.5 173.5Q608 197 563.0 219.5Q518 242 477.5 258.5Q437 275 410 280Q421 264 448.5 239.5Q476 215 513.5 186.0Q551 157 591.0 127.5Q631 98 667.0 73.0Q703 48 726 31ZM1527 137 1523 201Q1456 197 1418.5 193.5Q1381 190 1358.5 186.5Q1336 183 1317.0 178.0Q1298 173 1269 165Q1271 172 1272.0 179.5Q1273 187 1274 194Q1229 191 1196.5 187.0Q1164 183 1137.5 178.0Q1111 173 1083 166Q1153 160 1230.0 154.0Q1307 148 1383.0 144.0Q1459 140 1527 137ZM727 -38Q727 -27 727.0 -15.5Q727 -4 726 6Q704 20 668.5 40.5Q633 61 590.5 84.0Q548 107 505.0 128.0Q462 149 424.5 165.0Q387 181 362 187V185Q419 149 482.5 109.0Q546 69 609.0 31.5Q672 -6 727 -38Z" />
  </g>
</svg>