<svg xmlns="http://www.w3.org/2000/svg" viewBox="100 -112 1639 848">
  <g transform="translate(0, 624) scale(1, -1)">
    <path fill="black" d="M728 -112V-71Q643 -30 544.0 12.0Q445 54 355 89L349 -15H330Q330 5 329.0 35.0Q328 65 326 100Q240 134 178.0 156.0Q116 178 100 179Q122 205 139.5 241.0Q157 277 169 308Q157 340 139.5 376.0Q122 412 100 437Q112 438 150.5 451.0Q189 464 246.5 485.5Q304 507 372.5 534.0Q441 561 513.0 592.0Q585 623 653 654Q648 676 643.0 696.5Q638 717 633 736Q684 724 738 724Q792 724 849 736Q841 707 833.0 673.0Q825 639 817 601Q835 597 879.5 591.0Q924 585 986.5 578.5Q1049 572 1122.5 565.5Q1196 559 1274.0 553.5Q1352 548 1427.0 544.0Q1502 540 1567 538Q1557 597 1545.5 646.0Q1534 695 1523 736Q1574 724 1628 724Q1682 724 1739 736Q1722 675 1705.5 595.0Q1689 515 1675 414Q1688 383 1700.5 354.0Q1713 325 1720 305H1726V293Q1724 293 1722.0 292.5Q1720 292 1718 292Q1696 267 1680.0 235.5Q1664 204 1653 175Q1644 45 1644 -112H1618Q1618 -53 1616.5 2.0Q1615 57 1613 109Q1586 109 1554.0 108.0Q1522 107 1486 105V102L1483 105Q1407 101 1319.5 95.0Q1232 89 1146.5 82.0Q1061 75 989.0 67.5Q917 60 868.5 54.0Q820 48 809 43Q812 62 814.5 84.0Q817 106 817 129Q817 167 809 202Q820 197 859 191Q857 220 853.5 258.0Q850 296 845.5 334.5Q841 373 835.0 403.5Q829 434 822 448Q812 446 809 445Q812 464 814.5 486.0Q817 508 817 531Q817 545 816.0 557.5Q815 570 813 583Q790 467 773.0 310.0Q756 153 754 -53Q773 -63 790.0 -72.5Q807 -82 822 -90L810 -111Q797 -104 783.0 -97.0Q769 -90 754 -83V-112ZM364 203Q378 220 388.5 237.5Q399 255 409 280H408Q427 300 439.0 319.5Q451 339 464 367Q463 367 462.5 367.5Q462 368 461 368Q481 389 493.0 408.5Q505 428 518 458Q533 437 565.0 408.0Q597 379 636.5 349.0Q676 319 710 293L699 393Q655 416 608.5 433.5Q562 451 519 458Q539 479 551.0 498.5Q563 518 576 548Q593 523 626.0 493.0Q659 463 693 434Q686 486 678.0 532.5Q670 579 661 619Q601 583 535.0 542.0Q469 501 406.5 460.5Q344 420 294 386Q314 382 335 382Q359 382 392 388Q383 366 376.0 314.5Q369 263 364 203ZM1195 157Q1194 177 1192.0 203.5Q1190 230 1187 261Q1150 257 1123.5 253.0Q1097 249 1089 245Q1090 251 1090.5 257.0Q1091 263 1091 269Q1019 264 965.5 257.5Q912 251 899 245Q901 260 902.0 275.5Q903 291 903 306Q903 321 902.0 334.5Q901 348 899 361Q915 354 968.5 346.0Q1022 338 1092 331L1089 361Q1098 357 1122.0 352.5Q1146 348 1180 343Q1175 389 1169.5 425.5Q1164 462 1158 475Q1181 472 1204 472Q1235 472 1261.0 478.0Q1287 484 1318 496Q1316 486 1316 473Q1316 448 1321.0 409.0Q1326 370 1333 327Q1367 324 1401.0 321.5Q1435 319 1469 317Q1448 346 1427.0 373.0Q1406 400 1398 409Q1412 414 1424.5 420.0Q1437 426 1450 435Q1451 422 1462.5 386.0Q1474 350 1487 315L1551 312Q1535 336 1516.5 362.0Q1498 388 1482.5 408.5Q1467 429 1461 435Q1475 440 1487.5 446.0Q1500 452 1513 461Q1514 452 1522.5 426.5Q1531 401 1543.0 369.5Q1555 338 1565 311Q1573 310 1581.5 309.5Q1590 309 1598 309L1592 363Q1575 390 1558.0 414.5Q1541 439 1524 461Q1550 470 1576 487L1572 510Q1516 508 1446.0 504.5Q1376 501 1300.5 495.5Q1225 490 1151.0 484.0Q1077 478 1012.0 471.5Q947 465 898.5 459.5Q850 454 826 449Q837 448 848.0 447.5Q859 447 869 447Q895 447 914 450Q906 434 899.5 402.5Q893 371 888.0 333.5Q883 296 878.5 258.0Q874 220 870 190Q923 183 1009.0 174.0Q1095 165 1195 157ZM1288 331Q1275 366 1263.0 396.5Q1251 427 1241 447Q1237 427 1233.0 398.0Q1229 369 1225 337ZM317 215Q312 267 305.0 312.0Q298 357 288 382Q252 358 225.0 338.5Q198 319 184 308Q201 294 236.0 270.0Q271 246 317 215ZM1711 305 1670 367Q1668 353 1666.5 337.5Q1665 322 1663 306Q1676 306 1688.5 305.5Q1701 305 1711 305ZM720 159Q719 185 717.0 210.5Q715 236 713 261Q676 283 631.5 305.0Q587 327 544.0 344.0Q501 361 467 367Q481 349 511.5 322.0Q542 295 579.5 265.0Q617 235 654.5 207.0Q692 179 720 159ZM1658 255Q1682 271 1702 291Q1693 291 1683.5 290.5Q1674 290 1661 289ZM1603 135Q1587 151 1569.5 165.5Q1552 180 1529 194Q1543 199 1563.0 206.0Q1583 213 1606 224L1600 286Q1592 286 1583.5 285.5Q1575 285 1566 285Q1539 251 1521.5 210.5Q1504 170 1495 138ZM1452 140Q1424 169 1383 194Q1410 202 1457.0 223.0Q1504 244 1547 284Q1499 282 1446.5 279.0Q1394 276 1342 272Q1349 235 1354.5 201.5Q1360 168 1363 145ZM726 31Q725 57 724.0 82.5Q723 108 721 132Q691 150 649.5 173.5Q608 197 563.0 219.5Q518 242 477.5 258.5Q437 275 410 280Q421 264 448.5 239.5Q476 215 513.5 186.0Q551 157 591.0 127.5Q631 98 667.0 73.0Q703 48 726 31ZM1352 146 1310 270Q1285 269 1262.0 267.0Q1239 265 1218 263L1208 156Q1244 153 1280.0 150.5Q1316 148 1352 146ZM727 -38Q727 -27 727.0 -15.5Q727 -4 726 6Q704 20 668.5 40.5Q633 61 590.5 84.0Q548 107 505.0 128.0Q462 149 424.5 165.0Q387 181 362 187V185Q419 149 482.5 109.0Q546 69 609.0 31.5Q672 -6 727 -38Z" />
  </g>
</svg>