<svg xmlns="http://www.w3.org/2000/svg" viewBox="100 -112 1639 848">
  <g transform="translate(0, 624) scale(1, -1)">
    <path fill="black" d="M728 -112V-71Q643 -30 544.0 12.0Q445 54 355 89L349 -15H330Q330 5 329.0 35.0Q328 65 326 100Q240 134 178.0 156.0Q116 178 100 179Q122 205 139.5 241.0Q157 277 169 308Q157 340 139.5 376.0Q122 412 100 437Q112 438 150.5 451.0Q189 464 246.5 485.5Q304 507 372.5 534.0Q441 561 513.0 592.0Q585 623 653 654Q648 676 643.0 696.5Q638 717 633 736Q684 724 738 724Q792 724 849 736Q841 707 833.0 673.0Q825 639 817 601Q838 596 893.0 589.0Q948 582 1025.0 574.5Q1102 567 1190.5 560.0Q1279 553 1368.0 547.5Q1457 542 1535 539Q1537 540 1541 544Q1546 549 1549.5 554.5Q1553 560 1557 566Q1558 563 1564 557Q1554 609 1544.0 654.0Q1534 699 1523 736Q1574 724 1628 724Q1682 724 1739 736Q1724 681 1709.0 611.5Q1694 542 1681 456Q1682 456 1682.0 455.5Q1682 455 1683 455V448L1680 445Q1673 396 1667.0 342.5Q1661 289 1656 229L1683 208V201L1653 177Q1644 45 1644 -112H1618Q1618 -53 1616.5 2.0Q1615 57 1613 109Q1604 109 1594.0 109.0Q1584 109 1573 108Q1567 103 1563.0 98.0Q1559 93 1557 90Q1554 95 1551.5 99.0Q1549 103 1545 107V108Q1483 106 1407.5 101.0Q1332 96 1252.5 90.0Q1173 84 1098.5 77.5Q1024 71 962.0 64.5Q900 58 859.5 52.5Q819 47 809 43Q812 62 814.5 84.0Q817 106 817 129Q817 167 809 202Q811 201 816.5 200.0Q822 199 829 197Q812 214 797.0 228.5Q782 243 768 256Q762 187 759.0 110.0Q756 33 754 -53Q773 -63 790.0 -72.5Q807 -82 822 -90L810 -111Q797 -104 783.0 -97.0Q769 -90 754 -83V-112ZM364 203Q378 220 388.5 237.5Q399 255 409 280H408Q427 300 439.0 319.5Q451 339 464 367Q463 367 462.5 367.5Q462 368 461 368Q481 389 493.0 408.5Q505 428 518 458Q533 437 565.0 408.0Q597 379 636.5 349.0Q676 319 710 293L708 309L705 312L708 314L699 393Q655 416 608.5 433.5Q562 451 519 458Q539 479 551.0 498.5Q563 518 576 548Q593 523 626.0 493.0Q659 463 693 434Q686 486 678.0 532.5Q670 579 661 619Q601 583 535.0 542.0Q469 501 406.5 460.5Q344 420 294 386Q314 382 335 382Q359 382 392 388Q383 366 376.0 314.5Q369 263 364 203ZM780 375Q801 392 823.0 413.0Q845 434 866 456Q820 450 809 445Q812 464 814.5 486.0Q817 508 817 531Q817 545 816.0 557.5Q815 570 813 583Q795 491 780 375ZM1539 377 1555 384Q1553 405 1551.0 427.5Q1549 450 1547.5 468.0Q1546 486 1544 490Q1552 489 1559.5 488.5Q1567 488 1575 489L1572 510Q1561 510 1549.5 509.5Q1538 509 1525 509Q1512 493 1500.5 477.0Q1489 461 1483 450Q1491 436 1506.5 416.5Q1522 397 1539 377ZM1463 457 1444 471Q1455 476 1469.0 485.5Q1483 495 1498 508Q1428 504 1348.0 499.0Q1268 494 1188 488Q1213 482 1251.5 477.0Q1290 472 1332.0 468.0Q1374 464 1409.5 461.5Q1445 459 1463 457ZM1174 447Q1176 468 1171 486Q1115 482 1062.0 477.0Q1009 472 964 467Q992 463 1029.0 459.0Q1066 455 1104.5 452.5Q1143 450 1174 447ZM1566 389 1588 400Q1586 422 1582.5 443.0Q1579 464 1576 483Q1574 470 1571.0 442.5Q1568 415 1566 389ZM929 182Q933 216 927 245Q940 240 968.0 236.0Q996 232 1032.0 228.0Q1068 224 1105.5 221.0Q1143 218 1173 216Q1173 221 1172.0 225.0Q1171 229 1170 233Q1185 227 1214.0 222.0Q1243 217 1279.5 213.0Q1316 209 1352.5 205.5Q1389 202 1418.5 200.0Q1448 198 1464 196L1471 203Q1464 209 1458.0 214.5Q1452 220 1444 224Q1462 233 1490.5 255.0Q1519 277 1545 301Q1549 306 1551.5 310.0Q1554 314 1557 319Q1561 312 1573.0 300.0Q1585 288 1601 274Q1599 300 1596.5 324.5Q1594 349 1591 372Q1579 362 1569.5 352.0Q1560 342 1557 337Q1549 349 1541 359Q1515 382 1488.0 401.0Q1461 420 1444 429Q1455 435 1465 444Q1449 443 1418.5 441.5Q1388 440 1350.5 437.5Q1313 435 1276.0 431.5Q1239 428 1210.5 423.5Q1182 419 1170 413Q1171 417 1171.5 420.5Q1172 424 1172 428Q1141 427 1103.0 424.5Q1065 422 1029.0 419.0Q993 416 965.5 412.0Q938 408 927 403Q933 438 929 463L903 460Q877 412 857.0 378.0Q837 344 818 312L890 187ZM1466 445 1471 450Q1468 452 1466 455ZM927 326Q929 337 930.0 346.5Q931 356 931 365Q931 374 930.0 382.5Q929 391 927 399Q940 394 968.5 390.0Q997 386 1033.0 382.0Q1069 378 1106.5 375.0Q1144 372 1174 370Q1174 390 1170 406Q1185 400 1215.0 395.0Q1245 390 1281.5 386.0Q1318 382 1355.0 378.5Q1392 375 1421.5 373.0Q1451 371 1466 369V356Q1451 355 1420.5 353.5Q1390 352 1352.0 349.5Q1314 347 1277.0 343.5Q1240 340 1211.0 335.5Q1182 331 1170 326L1174 351Q1143 350 1105.0 347.5Q1067 345 1030.0 342.0Q993 339 965.5 335.0Q938 331 927 326ZM317 215Q312 267 305.0 312.0Q298 357 288 382Q252 358 225.0 338.5Q198 319 184 308Q201 294 236.0 270.0Q271 246 317 215ZM720 159Q719 185 717.0 210.5Q715 236 713 261Q676 283 631.5 305.0Q587 327 544.0 344.0Q501 361 467 367Q481 349 511.5 322.0Q542 295 579.5 265.0Q617 235 654.5 207.0Q692 179 720 159ZM1170 239Q1172 249 1173.0 257.5Q1174 266 1174 274Q1143 273 1105.0 270.5Q1067 268 1030.0 265.0Q993 262 965.5 258.0Q938 254 927 249Q929 260 930.0 269.5Q931 279 931 288Q931 297 930.0 305.5Q929 314 927 322Q940 317 968.5 313.0Q997 309 1033.0 305.0Q1069 301 1106.5 298.0Q1144 295 1174 293Q1173 300 1172.5 306.0Q1172 312 1170 319Q1185 314 1215.0 309.0Q1245 304 1281.5 300.0Q1318 296 1355.0 292.5Q1392 289 1421.5 286.5Q1451 284 1466 283V270Q1451 269 1420.5 267.5Q1390 266 1352.0 263.5Q1314 261 1277.0 257.5Q1240 254 1211.0 249.5Q1182 245 1170 239ZM726 31Q725 57 724.0 82.5Q723 108 721 132Q691 150 649.5 173.5Q608 197 563.0 219.5Q518 242 477.5 258.5Q437 275 410 280Q421 264 448.5 239.5Q476 215 513.5 186.0Q551 157 591.0 127.5Q631 98 667.0 73.0Q703 48 726 31ZM1554 136 1555 137Q1553 158 1551.0 180.5Q1549 203 1547.5 221.0Q1546 239 1544 243Q1552 242 1560.5 241.5Q1569 241 1578 243Q1577 239 1574.5 222.5Q1572 206 1570.0 184.5Q1568 163 1566 142Q1576 147 1587.0 152.5Q1598 158 1610 165L1604 247Q1586 257 1569.0 265.5Q1552 274 1539 279Q1522 258 1506.5 237.5Q1491 217 1483 203Q1490 190 1502.5 172.5Q1515 155 1530 137Q1536 136 1542.0 136.0Q1548 136 1554 136ZM1653 190 1677 204Q1672 207 1666.5 210.5Q1661 214 1655 217Q1655 210 1654.5 203.5Q1654 197 1653 190ZM1171 159Q1174 180 1174 197Q1142 196 1101.5 193.5Q1061 191 1022.5 187.5Q984 184 957 179Q1003 175 1057.5 169.5Q1112 164 1171 159ZM727 -38Q727 -27 727.0 -15.5Q727 -4 726 6Q704 20 668.5 40.5Q633 61 590.5 84.0Q548 107 505.0 128.0Q462 149 424.5 165.0Q387 181 362 187V185Q419 149 482.5 109.0Q546 69 609.0 31.5Q672 -6 727 -38ZM1509 138Q1491 152 1474.5 163.5Q1458 175 1444 182Q1420 181 1385.0 179.0Q1350 177 1312.0 174.0Q1274 171 1240.5 167.0Q1207 163 1186 158Q1267 151 1350.5 146.0Q1434 141 1509 138ZM1603 135H1611V142Q1605 138 1603 135Z" />
  </g>
</svg>