<svg xmlns="http://www.w3.org/2000/svg" viewBox="100 -112 1639 848">
  <g transform="translate(0, 624) scale(1, -1)">
    <path fill="black" d="M728 -112V-71Q662 -40 602.5 -14.0Q543 12 483.5 37.0Q424 62 355 89L349 -15H330L326 100Q270 123 213.0 143.5Q156 164 100 179Q124 208 138.0 238.0Q152 268 169 308Q145 376 100 437Q132 445 182.0 462.0Q232 479 292.5 502.5Q353 526 417.0 552.0Q481 578 542.0 604.5Q603 631 653 654L633 736Q683 724 741.0 724.5Q799 725 849 736Q845 720 839.0 695.5Q833 671 827.0 645.5Q821 620 817 601Q869 592 940.5 583.5Q1012 575 1094.0 567.5Q1176 560 1260.0 554.0Q1344 548 1423.0 544.0Q1502 540 1567 538Q1560 579 1553.5 609.5Q1547 640 1540.0 669.5Q1533 699 1523 736Q1579 724 1630.5 724.5Q1682 725 1739 736Q1686 540 1665.0 324.5Q1644 109 1644 -112H1618Q1617 -56 1616.0 -1.0Q1615 54 1613 109Q1542 108 1471.0 104.5Q1400 101 1329 96L1331 94L1317 81L1302 94Q1123 81 1000.0 69.5Q877 58 809 43Q817 89 817.5 123.5Q818 158 809 202Q820 198 853.0 192.5Q886 187 932.0 181.5Q978 176 1028.0 171.5Q1078 167 1123.5 163.0Q1169 159 1200 157Q1166 173 1131.5 184.5Q1097 196 1062 204Q1098 231 1131 264Q1101 281 1071.5 295.0Q1042 309 1012 321Q1029 331 1048.0 350.0Q1067 369 1080 390Q1092 359 1107.0 329.0Q1122 299 1138 270Q1170 305 1195 342Q1201 318 1210.0 294.0Q1219 270 1230 246Q1241 222 1255.0 197.0Q1269 172 1284 150Q1351 146 1402.5 143.0Q1454 140 1503.5 138.0Q1553 136 1611 135Q1607 210 1602.0 268.0Q1597 326 1590.0 383.0Q1583 440 1572 510Q1499 507 1406.5 501.5Q1314 496 1217.5 489.0Q1121 482 1032.5 473.5Q944 465 878 457Q941 444 1007.5 433.5Q1074 423 1118 422V420Q1129 430 1138.0 441.0Q1147 452 1156 465Q1169 434 1183.5 404.0Q1198 374 1215 345L1209 338Q1179 356 1148.5 371.0Q1118 386 1088 398L1104 409Q1067 407 1019.5 400.0Q972 393 925.0 383.5Q878 374 842 363Q844 375 845.5 387.5Q847 400 847 412Q847 422 846.5 432.0Q846 442 845 452L809 445Q815 486 816.5 520.5Q818 555 813 583Q797 496 786.0 419.0Q775 342 768.5 268.0Q762 194 759.0 115.5Q756 37 754 -53L822 -90L810 -111L754 -83V-112ZM364 203Q381 226 390.0 241.5Q399 257 409 280H408Q424 297 439.5 321.0Q455 345 464 367Q463 367 462.5 367.5Q462 368 461 368Q477 386 486.0 399.0Q495 412 502.0 425.5Q509 439 518 458Q543 424 593.0 383.5Q643 343 710 293L699 393Q654 416 607.5 433.5Q561 451 519 458Q536 477 544.5 489.0Q553 501 560.0 514.5Q567 528 576 548Q590 527 605.0 512.5Q620 498 640.5 480.5Q661 463 693 434Q687 473 682.5 501.0Q678 529 673.5 556.0Q669 583 661 619Q570 564 478.0 507.0Q386 450 294 386Q319 381 343.0 382.5Q367 384 392 388Q381 355 375.0 307.5Q369 260 364 203ZM1520 150 1512 228Q1474 225 1429.5 219.0Q1385 213 1343.5 205.5Q1302 198 1271 189Q1275 219 1276.0 237.5Q1277 256 1271 284Q1298 275 1339.0 267.0Q1380 259 1425.5 253.5Q1471 248 1510 244Q1509 254 1507.0 273.5Q1505 293 1502.5 315.5Q1500 338 1498.0 355.5Q1496 373 1496 379Q1429 372 1373.5 363.5Q1318 355 1271 341Q1276 372 1276.0 389.5Q1276 407 1271 436Q1318 422 1376.0 413.0Q1434 404 1494 398Q1491 421 1487.5 451.5Q1484 482 1477 505Q1499 499 1525.5 500.0Q1552 501 1571 505Q1565 484 1560.0 448.5Q1555 413 1551.0 373.0Q1547 333 1544.0 298.0Q1541 263 1539 243H1547V230H1538L1529 150ZM317 215Q313 262 306.0 306.5Q299 351 288 382Q261 364 235.5 346.0Q210 328 184 308Q217 283 250.5 260.0Q284 237 317 215ZM720 159 713 261Q676 283 630.5 305.0Q585 327 542.0 344.0Q499 361 467 367Q489 341 530.5 305.5Q572 270 622.5 232.0Q673 194 720 159ZM1057 186Q1029 201 1001.5 215.0Q974 229 946 241Q894 225 841 202Q853 256 841 309Q867 298 903.5 285.0Q940 272 963 266Q974 276 984.0 287.5Q994 299 1003 313Q1015 283 1032.5 249.0Q1050 215 1063 193ZM726 31 721 132Q671 163 614.0 194.0Q557 225 503.5 248.5Q450 272 410 280Q433 250 470.5 219.5Q508 189 569.5 145.0Q631 101 726 31ZM727 -38 726 6Q683 33 633.0 61.0Q583 89 533.0 114.5Q483 140 438.5 159.0Q394 178 362 187V185Q428 143 486.0 107.0Q544 71 602.0 36.0Q660 1 727 -38Z" />
  </g>
</svg>