<svg xmlns="http://www.w3.org/2000/svg" viewBox="100 -112 1639 848">
  <g transform="translate(0, 624) scale(1, -1)">
    <path fill="black" d="M728 -112V-71Q643 -30 544.0 12.0Q445 54 355 89L349 -15H330Q330 5 329.0 35.0Q328 65 326 100Q240 134 178.0 156.0Q116 178 100 179Q122 205 139.5 241.0Q157 277 169 308Q157 340 139.5 376.0Q122 412 100 437Q112 438 150.5 451.0Q189 464 246.5 485.5Q304 507 372.5 534.0Q441 561 513.0 592.0Q585 623 653 654Q648 676 643.0 696.5Q638 717 633 736Q684 724 738 724Q792 724 849 736Q841 707 833.0 673.0Q825 639 817 601Q835 597 879.5 591.0Q924 585 986.5 578.5Q1049 572 1122.5 565.5Q1196 559 1274.0 553.5Q1352 548 1427.0 544.0Q1502 540 1567 538Q1557 597 1545.5 646.0Q1534 695 1523 736Q1574 724 1628 724Q1682 724 1739 736Q1716 653 1694.0 533.5Q1672 414 1658.0 254.0Q1644 94 1644 -112H1618Q1618 -53 1616.5 2.0Q1615 57 1613 109Q1585 109 1551.0 108.0Q1517 107 1479 105Q1478 75 1477.0 50.5Q1476 26 1476 10H1464Q1464 27 1463.0 51.5Q1462 76 1460 104Q1434 103 1407.0 101.0Q1380 99 1351 97Q1350 83 1349.0 71.0Q1348 59 1347 51H1339Q1338 59 1336.5 71.0Q1335 83 1334 96Q1316 95 1298.0 94.0Q1280 93 1263 91L1259 51H1251Q1250 58 1249.0 68.0Q1248 78 1246 90L1174 84L1171 51H1163L1159 83L1085 77Q1084 69 1083.5 62.5Q1083 56 1083 51H1075L1072 76Q1004 70 948.0 64.0Q892 58 855.5 52.5Q819 47 809 43Q812 62 814.5 84.0Q817 106 817 129Q817 167 809 202Q819 198 854.0 192.5Q889 187 943.5 181.0Q998 175 1064 168L1059 231Q1014 228 982.0 225.0Q950 222 944 220Q946 231 947.0 241.5Q948 252 948 263Q948 283 944 300Q949 297 979.5 294.0Q1010 291 1055 288Q1051 336 1047.0 372.5Q1043 409 1039 417Q1050 416 1060.5 414.5Q1071 413 1082 413Q1102 413 1119 417Q1115 409 1111.0 372.0Q1107 335 1102 285L1143 283Q1139 333 1135.0 371.0Q1131 409 1127 417Q1138 416 1148.5 414.5Q1159 413 1170 413Q1190 413 1207 417Q1203 409 1199.0 370.0Q1195 331 1190 280L1231 278Q1227 329 1223.0 368.5Q1219 408 1215 417Q1226 416 1236.5 414.5Q1247 413 1258 413Q1278 413 1295 417Q1291 409 1286.5 368.5Q1282 328 1277 275L1320 273Q1316 326 1311.5 367.0Q1307 408 1303 417Q1314 416 1324.5 414.5Q1335 413 1346 413Q1366 413 1383 417Q1379 408 1374.5 366.0Q1370 324 1365 271L1445 266Q1440 315 1434.0 358.5Q1428 402 1421.5 434.5Q1415 467 1408 481Q1420 479 1434.0 478.0Q1448 477 1463 477Q1478 477 1493.0 478.0Q1508 479 1524 481Q1518 469 1511.5 433.0Q1505 397 1499.5 347.5Q1494 298 1489.0 243.5Q1484 189 1481 139Q1516 138 1549.0 136.5Q1582 135 1611 135Q1605 245 1595.0 338.5Q1585 432 1572 510Q1511 508 1434.5 504.0Q1358 500 1276.0 494.0Q1194 488 1115.5 481.5Q1037 475 971.5 468.0Q906 461 863.0 455.0Q820 449 809 445Q812 464 814.5 486.0Q817 508 817 531Q817 545 816.0 557.5Q815 570 813 583Q790 467 773.0 310.0Q756 153 754 -53Q773 -63 790.0 -72.5Q807 -82 822 -90L810 -111Q797 -104 783.0 -97.0Q769 -90 754 -83V-112ZM364 203Q378 220 388.5 237.5Q399 255 409 280H408Q427 300 439.0 319.5Q451 339 464 367Q463 367 462.5 367.5Q462 368 461 368Q481 389 493.0 408.5Q505 428 518 458Q533 437 565.0 408.0Q597 379 636.5 349.0Q676 319 710 293L699 393Q655 416 608.5 433.5Q562 451 519 458Q539 479 551.0 498.5Q563 518 576 548Q593 523 626.0 493.0Q659 463 693 434Q686 486 678.0 532.5Q670 579 661 619Q601 583 535.0 542.0Q469 501 406.5 460.5Q344 420 294 386Q314 382 335 382Q359 382 392 388Q383 366 376.0 314.5Q369 263 364 203ZM317 215Q312 267 305.0 312.0Q298 357 288 382Q252 358 225.0 338.5Q198 319 184 308Q201 294 236.0 270.0Q271 246 317 215ZM720 159Q719 185 717.0 210.5Q715 236 713 261Q676 283 631.5 305.0Q587 327 544.0 344.0Q501 361 467 367Q481 349 511.5 322.0Q542 295 579.5 265.0Q617 235 654.5 207.0Q692 179 720 159ZM726 31Q725 57 724.0 82.5Q723 108 721 132Q691 150 649.5 173.5Q608 197 563.0 219.5Q518 242 477.5 258.5Q437 275 410 280Q421 264 448.5 239.5Q476 215 513.5 186.0Q551 157 591.0 127.5Q631 98 667.0 73.0Q703 48 726 31ZM1457 140Q1455 167 1452.5 196.0Q1450 225 1447 253Q1431 252 1410.0 251.0Q1389 250 1363 248Q1361 222 1359.0 196.0Q1357 170 1355 146Q1381 145 1406.5 143.0Q1432 141 1457 140ZM1329 147Q1328 170 1326.0 195.0Q1324 220 1322 245L1275 243L1267 151Q1283 150 1298.5 149.5Q1314 149 1329 147ZM1241 153Q1240 174 1238.0 196.5Q1236 219 1234 241L1186 239L1180 158Q1195 157 1210.5 156.0Q1226 155 1241 153ZM1152 160 1147 236 1098 234 1092 166ZM727 -38Q727 -27 727.0 -15.5Q727 -4 726 6Q704 20 668.5 40.5Q633 61 590.5 84.0Q548 107 505.0 128.0Q462 149 424.5 165.0Q387 181 362 187V186Q419 150 482.5 110.0Q546 70 609.0 32.0Q672 -6 727 -38Z" />
  </g>
</svg>