<svg xmlns="http://www.w3.org/2000/svg" viewBox="100 -112 1638 857">
  <g transform="translate(0, 633) scale(1, -1)">
    <path fill="black" d="M727 -112V-70Q541 16 355 89L349 -15H330Q329 14 328.0 43.0Q327 72 326 100Q270 123 213.0 143.0Q156 163 100 179Q147 242 169 308Q145 377 100 437Q149 450 215.0 473.5Q281 497 356.5 527.0Q432 557 508.0 589.5Q584 622 653 653Q649 674 643.5 694.5Q638 715 632 736Q740 712 848 736Q838 702 830.5 669.0Q823 636 816 602Q886 589 955.0 581.0Q1024 573 1094 567Q1075 593 1051.5 619.5Q1028 646 999 671Q1007 674 1015.0 678.5Q1023 683 1030 687Q1007 685 984.0 681.0Q961 677 938 671Q945 708 938 745Q980 736 1041.5 730.0Q1103 724 1171.0 720.5Q1239 717 1300 714V712Q1314 671 1333.5 629.5Q1353 588 1377 547L1566 538Q1557 588 1546.5 637.5Q1536 687 1522 736Q1630 712 1738 736Q1703 606 1682.0 464.0Q1661 322 1652.0 176.0Q1643 30 1643 -112H1617Q1616 -56 1615.0 -1.0Q1614 54 1612 109Q1545 108 1464.5 103.5Q1384 99 1300.0 93.5Q1216 88 1135.5 81.5Q1055 75 987.5 68.0Q920 61 873.0 54.5Q826 48 809 43Q826 123 809 202Q864 190 916 184Q918 210 918.0 236.0Q918 262 913 288Q1005 267 1099 258Q1117 313 1131.0 367.5Q1145 422 1151 476Q1160 470 1171 465L1156 485Q1096 481 1032.0 474.5Q968 468 910.0 461.0Q852 454 809 445Q815 480 816.5 515.5Q818 551 813 586Q784 430 769.5 269.0Q755 108 753 -52L822 -90L810 -111L753 -82V-112ZM1349 548Q1325 580 1298.0 612.0Q1271 644 1239 671Q1256 679 1268.5 687.0Q1281 695 1289 702Q1234 701 1178.5 698.5Q1123 696 1067 691Q1091 628 1127 565ZM364 203Q395 240 409 280H408Q428 302 441.5 323.5Q455 345 464 367L461 368Q500 410 518 458Q541 431 574.0 401.0Q607 371 643.0 343.5Q679 316 709 293L698 394Q609 440 519 458Q558 500 576 548Q596 520 630.0 488.5Q664 457 692 435Q687 481 678.5 526.5Q670 572 660 618Q569 563 474.5 504.0Q380 445 294 386Q319 382 343.0 382.5Q367 383 392 388Q380 348 374.0 299.0Q368 250 364 203ZM1610 135Q1605 229 1595.5 322.5Q1586 416 1571 510L1403 502L1428 458Q1443 454 1458 452Q1423 406 1397.0 351.0Q1371 296 1345 237Q1371 236 1396.5 236.0Q1422 236 1447 235V216Q1332 215 1215.0 203.0Q1098 191 984 176Q1139 161 1296.0 149.0Q1453 137 1610 135ZM1335 238Q1353 297 1370.0 357.0Q1387 417 1391 476Q1400 470 1411 465L1384 501L1172 486L1188 458Q1203 454 1218 452Q1184 405 1159.5 355.5Q1135 306 1113 257Q1169 251 1224.5 246.0Q1280 241 1335 238ZM317 215Q313 257 307.0 298.5Q301 340 288 382Q262 365 236.0 346.5Q210 328 184 308Q216 283 249.5 260.0Q283 237 317 215ZM719 160 712 262Q651 297 586.5 325.5Q522 354 467 367Q483 348 512.0 321.5Q541 295 576.5 266.5Q612 238 649.0 210.5Q686 183 719 160ZM725 32 720 133Q669 164 614.0 194.0Q559 224 506.5 247.0Q454 270 410 280Q427 259 462.5 228.5Q498 198 543.5 164.0Q589 130 636.5 95.5Q684 61 725 32ZM726 -37 725 7Q636 60 544.5 109.5Q453 159 362 187V186Q451 130 543.0 72.0Q635 14 726 -37Z" />
  </g>
</svg>