<svg xmlns="http://www.w3.org/2000/svg" viewBox="100 -112 1639 848">
  <g transform="translate(0, 624) scale(1, -1)">
    <path fill="black" d="M728 -112V-71Q643 -30 544.0 12.0Q445 54 355 89L349 -15H330Q330 5 329.0 35.0Q328 65 326 100Q240 134 178.0 156.0Q116 178 100 179Q122 205 139.5 241.0Q157 277 169 308Q157 340 139.5 376.0Q122 412 100 437Q112 438 150.5 451.0Q189 464 246.5 485.5Q304 507 372.5 534.0Q441 561 513.0 592.0Q585 623 653 654Q648 676 643.0 696.5Q638 717 633 736Q684 724 738 724Q792 724 849 736Q841 707 833.0 673.0Q825 639 817 601Q835 597 879.5 591.0Q924 585 986.5 578.5Q1049 572 1122.5 565.5Q1196 559 1274.0 553.5Q1352 548 1427.0 544.0Q1502 540 1567 538Q1557 597 1545.5 646.0Q1534 695 1523 736Q1574 724 1628 724Q1682 724 1739 736Q1716 653 1694.0 533.5Q1672 414 1658.0 254.0Q1644 94 1644 -112H1618Q1618 -53 1616.5 2.0Q1615 57 1613 109Q1566 109 1502.5 106.0Q1439 103 1368.0 98.5Q1297 94 1225 88L1214 3H1205Q1204 20 1202.0 42.0Q1200 64 1197 86L1165 84L1157 3H1147Q1146 17 1145.0 37.5Q1144 58 1142 82L1111 79L1103 3H1095Q1094 15 1093.0 34.5Q1092 54 1090 77L1055 74Q1053 52 1051.5 33.0Q1050 14 1048 3H1039L1035 72Q947 64 884.5 56.0Q822 48 809 43Q812 62 814.5 84.0Q817 106 817 129Q817 167 809 202Q822 197 882.5 188.5Q943 180 1030 172Q1027 219 1024.0 266.5Q1021 314 1017.0 356.0Q1013 398 1009.5 426.5Q1006 455 1002 464Q1013 462 1024.5 461.0Q1036 460 1047 460Q1056 460 1065.0 460.5Q1074 461 1081 462Q1081 466 1081.0 470.0Q1081 474 1080 478Q1011 472 953.0 466.0Q895 460 857.0 454.5Q819 449 809 445Q812 464 814.5 486.0Q817 508 817 531Q817 545 816.0 557.5Q815 570 813 583Q790 467 773.0 310.0Q756 153 754 -53Q773 -63 790.0 -72.5Q807 -82 822 -90L810 -111Q797 -104 783.0 -97.0Q769 -90 754 -83V-112ZM364 203Q378 220 388.5 237.5Q399 255 409 280H408Q427 300 439.0 319.5Q451 339 464 367Q463 367 462.5 367.5Q462 368 461 368Q481 389 493.0 408.5Q505 428 518 458Q533 437 565.0 408.0Q597 379 636.5 349.0Q676 319 710 293L699 393Q655 416 608.5 433.5Q562 451 519 458Q539 479 551.0 498.5Q563 518 576 548Q593 523 626.0 493.0Q659 463 693 434Q686 486 678.0 532.5Q670 579 661 619Q601 583 535.0 542.0Q469 501 406.5 460.5Q344 420 294 386Q314 382 335 382Q359 382 392 388Q383 366 376.0 314.5Q369 263 364 203ZM1579 463 1572 510Q1517 509 1449.5 505.0Q1382 501 1309.0 496.5Q1236 492 1164 486Q1206 482 1260.5 479.0Q1315 476 1373.0 473.0Q1431 470 1484.5 467.5Q1538 465 1579 463ZM1590 387Q1588 402 1586.0 416.5Q1584 431 1582 445Q1539 442 1481.5 439.0Q1424 436 1363.0 433.0Q1302 430 1245.5 426.0Q1189 422 1147 418Q1168 414 1207.5 410.0Q1247 406 1297.0 402.5Q1347 399 1400.5 396.5Q1454 394 1503.5 391.5Q1553 389 1590 387ZM1080 401H1097Q1107 401 1116.5 401.0Q1126 401 1134 402Q1134 406 1133.5 409.5Q1133 413 1133 417Q1115 415 1101.5 412.5Q1088 410 1081 408Q1081 404 1080 401ZM317 215Q312 267 305.0 312.0Q298 357 288 382Q252 358 225.0 338.5Q198 319 184 308Q201 294 236.0 270.0Q271 246 317 215ZM1598 312 1592 370Q1554 367 1503.0 364.5Q1452 362 1397.5 358.5Q1343 355 1292.0 351.5Q1241 348 1202 343Q1226 338 1274.5 333.5Q1323 329 1382.5 325.0Q1442 321 1499.0 318.0Q1556 315 1598 312ZM720 159Q719 185 717.0 210.5Q715 236 713 261Q676 283 631.5 305.0Q587 327 544.0 344.0Q501 361 467 367Q481 349 511.5 322.0Q542 295 579.5 265.0Q617 235 654.5 207.0Q692 179 720 159ZM1156 322Q1164 322 1172.5 322.5Q1181 323 1189 324Q1189 329 1188.5 333.5Q1188 338 1188 342Q1168 339 1153.5 336.5Q1139 334 1132 331V323Q1138 323 1144.0 322.5Q1150 322 1156 322ZM1084 167Q1081 204 1078.0 241.5Q1075 279 1071 311Q1068 276 1065.5 240.0Q1063 204 1061 169Q1067 168 1072.5 167.5Q1078 167 1084 167ZM1605 237 1599 296Q1565 293 1519.5 290.0Q1474 287 1425.0 283.5Q1376 280 1330.5 276.5Q1285 273 1250 268Q1271 263 1314.0 258.0Q1357 253 1410.0 249.0Q1463 245 1515.0 242.0Q1567 239 1605 237ZM1214 243Q1222 243 1229.0 243.5Q1236 244 1243 245L1241 267Q1199 262 1187 256L1190 283Q1188 275 1186.5 265.5Q1185 256 1183 245Q1191 244 1199.0 243.5Q1207 243 1214 243ZM726 31Q725 57 724.0 82.5Q723 108 721 132Q691 150 649.5 173.5Q608 197 563.0 219.5Q518 242 477.5 258.5Q437 275 410 280Q421 264 448.5 239.5Q476 215 513.5 186.0Q551 157 591.0 127.5Q631 98 667.0 73.0Q703 48 726 31ZM1135 162Q1133 188 1130.5 212.0Q1128 236 1125 257L1117 163Q1122 163 1126.5 162.5Q1131 162 1135 162ZM1611 135Q1610 157 1609.0 178.5Q1608 200 1606 220Q1573 217 1530.0 214.0Q1487 211 1441.0 207.5Q1395 204 1353.5 200.0Q1312 196 1281.5 191.0Q1251 186 1240 181Q1240 183 1240.5 185.5Q1241 188 1241 190L1235 154Q1336 147 1435.0 141.5Q1534 136 1611 135ZM1188 158Q1186 172 1183.5 185.5Q1181 199 1178 210L1173 159Q1177 158 1180.5 158.0Q1184 158 1188 158ZM727 -38Q727 -27 727.0 -15.5Q727 -4 726 6Q704 20 668.5 40.5Q633 61 590.5 84.0Q548 107 505.0 128.0Q462 149 424.5 165.0Q387 181 362 187V185Q419 149 482.5 109.0Q546 69 609.0 31.5Q672 -6 727 -38Z" />
  </g>
</svg>