<svg xmlns="http://www.w3.org/2000/svg" viewBox="100 -112 1639 848">
  <g transform="translate(0, 624) scale(1, -1)">
    <path fill="black" d="M728 -112V-71Q643 -30 544.0 12.0Q445 54 355 89L349 -15H330Q330 5 329.0 35.0Q328 65 326 100Q240 134 178.0 156.0Q116 178 100 179Q122 205 139.5 241.0Q157 277 169 308Q157 340 139.5 376.0Q122 412 100 437Q112 438 150.5 451.0Q189 464 246.5 485.5Q304 507 372.5 534.0Q441 561 513.0 592.0Q585 623 653 654Q648 676 643.0 696.5Q638 717 633 736Q684 724 738 724Q792 724 849 736Q841 707 833.0 673.0Q825 639 817 601Q840 594 903.0 583.5Q966 573 1063 563L1089 586L1107 579Q1104 574 1100.5 569.5Q1097 565 1095 560L1172 554L1180 561L1194 554Q1193 553 1193 552L1263 548L1278 561L1292 554Q1291 552 1289.5 550.0Q1288 548 1287 546L1355 543L1375 561L1389 554L1381 542Q1398 541 1415.5 540.5Q1433 540 1451 540Q1463 550 1476.0 561.5Q1489 573 1504 586L1523 579Q1516 569 1509.5 558.5Q1503 548 1498 538Q1515 538 1532.5 538.0Q1550 538 1567 537Q1557 596 1545.5 645.5Q1534 695 1523 736Q1574 724 1628 724Q1682 724 1739 736Q1716 653 1694.0 533.5Q1672 414 1658.0 254.0Q1644 94 1644 -112H1618Q1618 -53 1616.5 2.5Q1615 58 1613 110Q1583 110 1554.0 109.5Q1525 109 1497 108Q1503 99 1509.5 89.0Q1516 79 1523 69L1504 55Q1487 70 1473.0 83.5Q1459 97 1447 107Q1430 107 1413.5 106.5Q1397 106 1381 105Q1383 102 1385.0 99.0Q1387 96 1389 93L1375 81Q1367 88 1361.0 93.0Q1355 98 1349 104L1287 100L1292 93L1278 81L1257 99Q1241 98 1224.5 97.0Q1208 96 1192 95Q1194 93 1194 93L1180 81Q1176 84 1173.0 86.5Q1170 89 1166 93L1095 87Q1097 83 1100.5 78.5Q1104 74 1107 69L1089 55Q1080 63 1073.0 69.5Q1066 76 1058 83Q954 73 890.0 61.5Q826 50 809 43Q812 62 814.5 84.0Q817 106 817 129Q817 167 809 202Q821 197 858.5 189.0Q896 181 957 173Q947 181 936.5 188.0Q926 195 914 203Q932 219 951.5 233.5Q971 248 997.0 268.5Q1023 289 1060 321Q1026 353 1003.5 373.5Q981 394 961.0 409.5Q941 425 914 442L952 473Q894 465 857.5 457.5Q821 450 809 445Q812 464 814.5 486.0Q817 508 817 531Q817 545 816.0 557.5Q815 570 813 583Q790 467 773.0 310.0Q756 153 754 -53Q773 -63 790.0 -72.5Q807 -82 822 -90L810 -111Q797 -104 783.0 -97.0Q769 -90 754 -83V-112ZM364 203Q378 220 388.5 237.5Q399 255 409 280H408Q427 300 439.0 319.5Q451 339 464 367Q463 367 462.5 367.5Q462 368 461 368Q481 389 493.0 408.5Q505 428 518 458Q533 437 565.0 408.0Q597 379 636.5 349.0Q676 319 710 293L699 393Q655 416 608.5 433.5Q562 451 519 458Q539 479 551.0 498.5Q563 518 576 548Q593 523 626.0 493.0Q659 463 693 434Q686 486 678.0 532.5Q670 579 661 619Q601 583 535.0 542.0Q469 501 406.5 460.5Q344 420 294 386Q314 382 335 382Q359 382 392 388Q383 366 376.0 314.5Q369 263 364 203ZM1611 135Q1605 246 1595.0 339.5Q1585 433 1572 511Q1549 511 1526.5 510.5Q1504 510 1482 510Q1472 492 1463.0 475.0Q1454 458 1445 442Q1459 419 1471.5 394.5Q1484 370 1500 343Q1501 344 1502.0 345.0Q1503 346 1504 347L1523 340L1512 323L1523 308L1504 294L1498 299Q1482 273 1470.0 249.5Q1458 226 1445 203L1481 137Q1513 136 1545.0 135.5Q1577 135 1611 135ZM1412 138Q1390 158 1371.5 172.5Q1353 187 1330 203Q1347 219 1366.0 233.5Q1385 248 1411.5 268.5Q1438 289 1475 321Q1441 353 1418.0 373.0Q1395 393 1375.0 409.0Q1355 425 1330 442Q1347 458 1366.5 472.5Q1386 487 1412 508Q1399 508 1386.0 507.5Q1373 507 1360 506Q1351 489 1342.5 473.0Q1334 457 1323 442Q1340 416 1354.0 389.5Q1368 363 1389 331L1378 321L1389 316Q1368 284 1354.0 257.0Q1340 230 1323 204Q1333 188 1341.5 172.5Q1350 157 1360 140Q1373 140 1386.0 139.5Q1399 139 1412 138ZM1305 143Q1284 162 1268.0 175.5Q1252 189 1231 204Q1246 218 1263.5 231.5Q1281 245 1307.0 266.0Q1333 287 1372 321Q1333 355 1310.5 375.5Q1288 396 1271.0 411.0Q1254 426 1231 442Q1246 456 1264.0 469.0Q1282 482 1307 503L1260 501Q1252 485 1244.0 470.5Q1236 456 1226 442Q1243 416 1257.0 389.5Q1271 363 1292 331L1281 321L1292 316Q1271 284 1257.0 257.0Q1243 230 1226 204Q1235 190 1243.5 175.5Q1252 161 1260 146ZM1202 149Q1184 166 1169.0 178.0Q1154 190 1134 204Q1149 218 1166.5 231.5Q1184 245 1210.0 266.0Q1236 287 1275 321Q1236 355 1213.5 375.5Q1191 396 1174.0 411.0Q1157 426 1134 442Q1148 455 1164.5 467.0Q1181 479 1203 497L1159 494Q1152 481 1144.0 468.0Q1136 455 1128 442Q1145 416 1159.0 389.5Q1173 363 1194 331L1183 321L1194 316Q1173 284 1159.0 257.0Q1145 230 1128 204Q1136 191 1143.5 178.5Q1151 166 1158 152ZM1094 158Q1079 171 1066.0 181.5Q1053 192 1036 204Q1051 218 1068.5 231.5Q1086 245 1112.0 266.0Q1138 287 1177 321Q1138 355 1115.5 375.5Q1093 396 1076.0 411.0Q1059 426 1036 442Q1048 453 1061.5 463.5Q1075 474 1094 489Q1084 488 1074.0 487.0Q1064 486 1054 485Q1044 464 1030 442Q1044 419 1056.0 394.5Q1068 370 1084 343L1089 347L1107 340L1096 323L1107 308L1089 294L1082 300Q1067 273 1055.5 249.5Q1044 226 1030 203Q1036 193 1042.0 183.0Q1048 173 1053 162Q1064 161 1073.5 160.0Q1083 159 1094 158ZM317 215Q312 267 305.0 312.0Q298 357 288 382Q252 358 225.0 338.5Q198 319 184 308Q201 294 236.0 270.0Q271 246 317 215ZM720 159Q719 185 717.0 210.5Q715 236 713 261Q676 283 631.5 305.0Q587 327 544.0 344.0Q501 361 467 367Q481 349 511.5 322.0Q542 295 579.5 265.0Q617 235 654.5 207.0Q692 179 720 159ZM726 31Q725 57 724.0 82.5Q723 108 721 132Q691 150 649.5 173.5Q608 197 563.0 219.5Q518 242 477.5 258.5Q437 275 410 280Q421 264 448.5 239.5Q476 215 513.5 186.0Q551 157 591.0 127.5Q631 98 667.0 73.0Q703 48 726 31ZM727 -38Q727 -27 727.0 -15.5Q727 -4 726 6Q704 20 668.5 40.5Q633 61 590.5 84.0Q548 107 505.0 128.0Q462 149 424.5 165.0Q387 181 362 187V186Q419 150 482.5 110.0Q546 70 609.0 32.0Q672 -6 727 -38Z" />
  </g>
</svg>