<svg xmlns="http://www.w3.org/2000/svg" viewBox="100 -112 1639 848">
  <g transform="translate(0, 624) scale(1, -1)">
    <path fill="black" d="M728 -112V-71Q643 -30 544.0 12.0Q445 54 355 89L349 -15H330Q330 5 329.0 35.0Q328 65 326 100Q240 134 178.0 156.0Q116 178 100 179Q122 205 139.5 241.0Q157 277 169 308Q157 340 139.5 376.0Q122 412 100 437Q112 438 150.5 451.0Q189 464 246.5 485.5Q304 507 372.5 534.0Q441 561 513.0 592.0Q585 623 653 654Q648 676 643.0 696.5Q638 717 633 736Q684 724 738 724Q792 724 849 736Q841 707 833.0 673.0Q825 639 817 601Q835 597 879.5 591.0Q924 585 986.5 578.5Q1049 572 1122.5 565.5Q1196 559 1274.0 553.5Q1352 548 1427.0 544.0Q1502 540 1567 538Q1557 597 1545.5 646.0Q1534 695 1523 736Q1574 724 1628 724Q1682 724 1739 736Q1716 653 1694.0 533.5Q1672 414 1658.0 254.0Q1644 94 1644 -112H1618Q1618 -53 1616.5 2.0Q1615 57 1613 109Q1568 109 1511 106Q1510 79 1510.0 50.5Q1510 22 1510 -7H1485Q1460 -7 1421.5 -8.5Q1383 -10 1340.0 -13.0Q1297 -16 1256.0 -19.5Q1215 -23 1183.0 -27.5Q1151 -32 1135 -37Q1136 -28 1136.5 -18.0Q1137 -8 1137 2Q1137 12 1136.5 22.0Q1136 32 1135 39Q1143 36 1159.0 33.0Q1175 30 1196 27Q1195 41 1194.5 56.0Q1194 71 1192 86Q1122 80 1057.0 74.0Q992 68 939.5 62.5Q887 57 852.5 52.0Q818 47 809 43Q812 62 814.5 84.0Q817 106 817 129Q817 167 809 202Q818 198 850.0 193.0Q882 188 930 182Q931 196 930.5 211.0Q930 226 928 236Q945 230 980.0 224.5Q1015 219 1055 215L1052 250Q1007 247 973.5 243.5Q940 240 928 236Q929 245 929.5 255.0Q930 265 930 275Q930 285 929.5 294.0Q929 303 928 311Q929 320 929.5 330.0Q930 340 930 350Q930 360 929.5 369.5Q929 379 928 387Q929 396 929.5 406.0Q930 416 930 426Q930 436 929.5 446.0Q929 456 928 463Q940 459 976.0 455.0Q1012 451 1063.0 447.5Q1114 444 1172.0 441.5Q1230 439 1285.5 437.0Q1341 435 1385.0 433.5Q1429 432 1453 432Q1445 479 1436 504Q1360 500 1278.0 494.0Q1196 488 1117.0 481.5Q1038 475 972.0 468.0Q906 461 863.0 455.0Q820 449 809 445Q812 464 814.5 486.0Q817 508 817 531Q817 545 816.0 557.5Q815 570 813 583Q790 467 773.0 310.0Q756 153 754 -53Q773 -63 790.0 -72.5Q807 -82 822 -90L810 -111Q797 -104 783.0 -97.0Q769 -90 754 -83V-112ZM364 203Q378 220 388.5 237.5Q399 255 409 280H408Q427 300 439.0 319.5Q451 339 464 367Q463 367 462.5 367.5Q462 368 461 368Q481 389 493.0 408.5Q505 428 518 458Q533 437 565.0 408.0Q597 379 636.5 349.0Q676 319 710 293L699 393Q655 416 608.5 433.5Q562 451 519 458Q539 479 551.0 498.5Q563 518 576 548Q593 523 626.0 493.0Q659 463 693 434Q686 486 678.0 532.5Q670 579 661 619Q601 583 535.0 542.0Q469 501 406.5 460.5Q344 420 294 386Q314 382 335 382Q359 382 392 388Q383 366 376.0 314.5Q369 263 364 203ZM1611 135Q1605 245 1595.0 338.5Q1585 432 1572 510Q1545 509 1514.5 508.0Q1484 507 1451 505Q1472 502 1492 502Q1522 502 1552 508Q1535 465 1525.0 367.0Q1515 269 1511 138Q1565 135 1611 135ZM1463 357Q1461 373 1459.0 388.5Q1457 404 1455 417Q1434 417 1391.5 416.0Q1349 415 1294.5 413.0Q1240 411 1182.5 408.5Q1125 406 1072.5 402.5Q1020 399 982.0 395.5Q944 392 929 387Q940 384 968.5 381.0Q997 378 1035 375L1029 397Q1040 395 1050.5 394.0Q1061 393 1071 393Q1092 393 1109 397Q1107 392 1105.0 385.0Q1103 378 1101 370Q1151 367 1205.0 364.5Q1259 362 1309.0 360.5Q1359 359 1399.5 358.0Q1440 357 1463 357ZM317 215Q312 267 305.0 312.0Q298 357 288 382Q252 358 225.0 338.5Q198 319 184 308Q201 294 236.0 270.0Q271 246 317 215ZM720 159Q719 185 717.0 210.5Q715 236 713 261Q676 283 631.5 305.0Q587 327 544.0 344.0Q501 361 467 367Q481 349 511.5 322.0Q542 295 579.5 265.0Q617 235 654.5 207.0Q692 179 720 159ZM1470 281 1465 342Q1443 342 1402.0 340.5Q1361 339 1308.5 337.5Q1256 336 1200.0 333.5Q1144 331 1093 328L1088 295Q1141 292 1198.5 289.5Q1256 287 1310.0 285.0Q1364 283 1406.5 282.0Q1449 281 1470 281ZM1047 298 1044 325Q1003 322 972.5 318.5Q942 315 929 311Q940 307 972.0 304.0Q1004 301 1047 298ZM726 31Q725 57 724.0 82.5Q723 108 721 132Q691 150 649.5 173.5Q608 197 563.0 219.5Q518 242 477.5 258.5Q437 275 410 280Q421 264 448.5 239.5Q476 215 513.5 186.0Q551 157 591.0 127.5Q631 98 667.0 73.0Q703 48 726 31ZM1479 139Q1478 173 1476.0 204.5Q1474 236 1472 266Q1452 266 1409.0 264.5Q1366 263 1310.5 261.5Q1255 260 1195.5 257.5Q1136 255 1083 252Q1082 242 1081.0 232.5Q1080 223 1079 213Q1104 211 1129.0 209.0Q1154 207 1176 206Q1174 215 1171.5 223.0Q1169 231 1167 237Q1178 235 1188.5 234.0Q1199 233 1209 233Q1230 233 1247 237Q1241 223 1236.5 201.5Q1232 180 1228 154Q1292 150 1356.0 145.5Q1420 141 1479 139ZM1183 158 1179 189Q1156 188 1129.5 186.0Q1103 184 1076 182Q1075 178 1075.0 174.5Q1075 171 1075 167ZM727 -38Q727 -27 727.0 -15.5Q727 -4 726 6Q704 20 668.5 40.5Q633 61 590.5 84.0Q548 107 505.0 128.0Q462 149 424.5 165.0Q387 181 362 187V186Q419 150 482.5 110.0Q546 70 609.0 32.0Q672 -6 727 -38ZM1058 169V181Q1044 180 1030.0 178.0Q1016 176 1003 174ZM1484 8Q1483 33 1483.0 57.0Q1483 81 1481 105Q1421 102 1354.0 97.5Q1287 93 1219 88L1213 25Q1255 21 1306.0 17.0Q1357 13 1405.0 11.0Q1453 9 1484 8Z" />
  </g>
</svg>