<svg xmlns="http://www.w3.org/2000/svg" viewBox="100 -112 1639 848">
  <g transform="translate(0, 624) scale(1, -1)">
    <path fill="black" d="M728 -112V-71Q643 -30 544.0 12.0Q445 54 355 89L349 -15H330Q330 5 329.0 35.0Q328 65 326 100Q240 134 178.0 156.0Q116 178 100 179Q122 205 139.5 241.0Q157 277 169 308Q157 340 139.5 376.0Q122 412 100 437Q112 438 150.5 451.0Q189 464 246.5 485.5Q304 507 372.5 534.0Q441 561 513.0 592.0Q585 623 653 654Q648 676 643.0 696.5Q638 717 633 736Q684 724 738 724Q792 724 849 736Q841 707 833.0 673.0Q825 639 817 601Q842 595 915.0 586.0Q988 577 1085 568Q1085 578 1084.0 588.5Q1083 599 1081 609Q1089 606 1119.0 601.5Q1149 597 1194.0 592.5Q1239 588 1292.5 584.5Q1346 581 1401 580Q1397 606 1393.0 626.5Q1389 647 1385 663Q1396 660 1409.5 658.0Q1423 656 1437 656Q1448 656 1459.5 657.5Q1471 659 1481 661Q1470 625 1463 542Q1491 541 1516.5 540.0Q1542 539 1567 538Q1557 597 1545.5 646.0Q1534 695 1523 736Q1574 724 1628 724Q1682 724 1739 736Q1716 653 1694.0 533.5Q1672 414 1658.0 254.0Q1644 94 1644 -112H1618Q1618 -53 1616.5 2.0Q1615 57 1613 109Q1557 108 1479.0 104.5Q1401 101 1314.5 95.0Q1228 89 1143.0 82.0Q1058 75 986.5 67.5Q915 60 867.5 54.0Q820 48 809 43Q812 62 814.5 84.0Q817 106 817 129Q817 167 809 202Q820 197 865.0 190.5Q910 184 978.0 177.0Q1046 170 1128.0 162.5Q1210 155 1296.5 149.0Q1383 143 1464.0 139.5Q1545 136 1611 135Q1605 245 1595.0 338.5Q1585 432 1572 510Q1547 509 1518.5 508.5Q1490 508 1459 506Q1454 446 1449.0 366.0Q1444 286 1439 182H1429L1427 238Q1326 236 1255.0 231.5Q1184 227 1135.0 220.5Q1086 214 1052.0 207.5Q1018 201 992 194Q995 205 997.0 218.5Q999 232 999 246Q999 257 997.5 268.5Q996 280 994 290Q1025 281 1081 274Q1083 283 1084.0 292.0Q1085 301 1085 310Q1085 318 1084.0 327.0Q1083 336 1081 345Q1089 342 1122.0 337.0Q1155 332 1204.0 327.5Q1253 323 1310.0 319.5Q1367 316 1424 316L1421 385Q1364 385 1307.5 381.5Q1251 378 1202.5 373.5Q1154 369 1122.0 364.5Q1090 360 1081 356Q1085 373 1085 393Q1085 401 1084.0 410.0Q1083 419 1081 428Q1089 425 1120.0 420.0Q1151 415 1198.5 410.5Q1246 406 1303.0 402.5Q1360 399 1420 399L1414 468Q1358 467 1302.5 464.0Q1247 461 1200.0 456.5Q1153 452 1121.5 447.5Q1090 443 1081 439Q1085 456 1085 479Q1014 473 955.0 466.5Q896 460 857.5 454.5Q819 449 809 445Q812 464 814.5 486.0Q817 508 817 531Q817 545 816.0 557.5Q815 570 813 583Q790 467 773.0 310.0Q756 153 754 -53Q773 -63 790.0 -72.5Q807 -82 822 -90L810 -111Q797 -104 783.0 -97.0Q769 -90 754 -83V-112ZM364 203Q378 220 388.5 237.5Q399 255 409 280H408Q427 300 439.0 319.5Q451 339 464 367Q463 367 462.5 367.5Q462 368 461 368Q481 389 493.0 408.5Q505 428 518 458Q533 437 565.0 408.0Q597 379 636.5 349.0Q676 319 710 293L699 393Q655 416 608.5 433.5Q562 451 519 458Q539 479 551.0 498.5Q563 518 576 548Q593 523 626.0 493.0Q659 463 693 434Q686 486 678.0 532.5Q670 579 661 619Q601 583 535.0 542.0Q469 501 406.5 460.5Q344 420 294 386Q314 382 335 382Q359 382 392 388Q383 366 376.0 314.5Q369 263 364 203ZM1406 545 1403 566Q1357 565 1311.0 562.5Q1265 560 1224 557Q1270 553 1316.0 550.0Q1362 547 1406 545ZM1413 482Q1412 487 1411.5 492.5Q1411 498 1411 503L1232 491Q1273 487 1320.0 485.0Q1367 483 1413 482ZM317 215Q312 267 305.0 312.0Q298 357 288 382Q252 358 225.0 338.5Q198 319 184 308Q201 294 236.0 270.0Q271 246 317 215ZM720 159Q719 185 717.0 210.5Q715 236 713 261Q676 283 631.5 305.0Q587 327 544.0 344.0Q501 361 467 367Q481 349 511.5 322.0Q542 295 579.5 265.0Q617 235 654.5 207.0Q692 179 720 159ZM1427 248Q1427 262 1426.0 275.5Q1425 289 1425 302Q1369 302 1313.0 299.0Q1257 296 1209.0 291.5Q1161 287 1127.5 282.5Q1094 278 1083 274Q1135 267 1217.5 261.0Q1300 255 1427 248ZM726 31Q725 57 724.0 82.5Q723 108 721 132Q691 150 649.5 173.5Q608 197 563.0 219.5Q518 242 477.5 258.5Q437 275 410 280Q421 264 448.5 239.5Q476 215 513.5 186.0Q551 157 591.0 127.5Q631 98 667.0 73.0Q703 48 726 31ZM727 -38Q727 -27 727.0 -15.5Q727 -4 726 6Q704 20 668.5 40.5Q633 61 590.5 84.0Q548 107 505.0 128.0Q462 149 424.5 165.0Q387 181 362 187V186Q419 150 482.5 110.0Q546 70 609.0 32.0Q672 -6 727 -38Z" />
  </g>
</svg>