<svg xmlns="http://www.w3.org/2000/svg" viewBox="100 -112 1639 848">
  <g transform="translate(0, 624) scale(1, -1)">
    <path fill="black" d="M100 179Q147 244 169 308Q145 379 100 437Q144 448 209.5 471.5Q275 495 351.5 525.5Q428 556 506.0 589.5Q584 623 653 654L633 736Q741 712 849 736Q842 707 834.5 678.0Q827 649 821 620Q1006 591 1192.0 579.0Q1378 567 1563 558Q1555 602 1544.5 647.0Q1534 692 1523 736Q1631 711 1739 736Q1684 525 1664.0 312.5Q1644 100 1644 -112H1618Q1617 -62 1616.0 -11.5Q1615 39 1614 89Q1538 86 1451.0 81.5Q1364 77 1274.0 71.0Q1184 65 1098.0 58.0Q1012 51 938.0 42.5Q864 34 809 23Q826 103 809 182Q836 175 863.0 171.5Q890 168 917 164Q899 176 881.0 187.5Q863 199 845 210Q865 222 884.5 234.5Q904 247 923 259Q884 286 845 310Q865 322 884.5 334.5Q904 347 923 359Q884 386 845 410Q874 428 902.0 444.5Q930 461 958 486Q885 480 809 465Q820 528 815 591Q785 437 769.5 270.0Q754 103 754 -53L822 -90L810 -111L754 -83V-112H728V-71Q635 -28 541.5 13.0Q448 54 355 89L349 -15H330L326 100Q270 123 213.0 143.0Q156 163 100 179ZM364 203Q393 236 408 280Q428 301 441.5 323.0Q455 345 464 367L461 368Q499 406 518 458Q553 414 605.5 372.5Q658 331 710 293L699 393Q654 416 609.0 433.0Q564 450 519 458Q557 496 576 548Q600 517 630.5 488.0Q661 459 693 434Q687 481 679.5 527.0Q672 573 661 619Q570 564 478.0 506.0Q386 448 294 386Q319 382 343.0 382.5Q367 383 392 388Q379 342 373.5 296.0Q368 250 364 203ZM1612 115Q1606 219 1597.0 323.0Q1588 427 1568 530Q1441 525 1314.0 516.0Q1187 507 1059 496Q1125 466 1199.5 440.0Q1274 414 1350.0 391.5Q1426 369 1494 348Q1514 365 1534.5 383.5Q1555 402 1575 424L1585 417Q1569 390 1552.5 363.5Q1536 337 1519 310Q1533 286 1549.5 262.0Q1566 238 1585 214L1575 206L1493 275Q1399 247 1298.0 216.0Q1197 185 1099 145Q1227 133 1355.5 125.0Q1484 117 1612 115ZM1025 152Q1023 160 1020.0 169.0Q1017 178 1013 186Q1028 187 1042.5 188.0Q1057 189 1072 191L1070 234Q1051 230 1033.0 225.5Q1015 221 996 213Q1000 243 989 277Q1009 274 1029.0 274.0Q1049 274 1068 275L1063 346Q1044 348 1026.0 347.5Q1008 347 989 345Q1000 379 996 409Q1012 402 1027.0 397.0Q1042 392 1058 390Q1057 399 1055.5 408.5Q1054 418 1051 427Q1077 421 1103 427Q1100 418 1098.0 405.5Q1096 393 1095 382L1108 379Q1107 388 1105.0 397.5Q1103 407 1101 416Q1127 410 1152 416Q1149 405 1147.0 394.0Q1145 383 1144 372L1156 370Q1154 388 1150 404Q1176 398 1201 404Q1195 385 1193 363L1206 361Q1205 369 1203.5 377.0Q1202 385 1199 392Q1225 386 1251 392Q1244 372 1243 355L1258 352Q1257 360 1254.5 368.0Q1252 376 1250 383Q1276 377 1302 383Q1299 374 1296.5 364.5Q1294 355 1293 347L1308 344Q1307 352 1305.0 359.0Q1303 366 1300 373Q1325 367 1350 373Q1308 384 1266.0 393.5Q1224 403 1181 412Q1139 421 1092.0 429.5Q1045 438 1013 438Q1020 453 1024.0 467.0Q1028 481 1030 494L966 487L972 484Q962 465 951.5 447.0Q941 429 930 410L947 377L962 390L972 384L957 360L972 335L962 327L946 340L930 310L947 277L962 290L972 284L957 260L972 235L962 227L946 240L930 210L957 159ZM317 215Q313 257 307.0 298.5Q301 340 288 382Q262 365 236.0 346.5Q210 328 184 308Q217 283 250.5 259.5Q284 236 317 215ZM1358 337Q1355 351 1349 364Q1370 357 1394 362L1351 373Q1348 365 1345.5 356.0Q1343 347 1341 339ZM720 159 713 261Q652 294 590.5 324.5Q529 355 467 367Q518 312 587.0 259.0Q656 206 720 159ZM1403 330Q1402 335 1400.0 340.0Q1398 345 1396 349Q1422 343 1447 349L1399 361Q1396 354 1393.5 347.0Q1391 340 1389 332ZM1461 322Q1466 326 1472.0 330.5Q1478 335 1483 339L1448 349Q1445 342 1443.0 336.5Q1441 331 1439 325ZM1085 276 1116 278 1111 344 1091 345ZM1135 279 1165 281 1160 341 1140 342ZM1184 283 1214 285 1210 337 1190 338ZM1235 287 1266 289 1261 332 1240 334ZM1285 291 1315 294 1311 328 1290 330ZM1334 296 1365 299 1361 323 1338 325ZM1382 301 1411 304 1407 318 1386 320ZM1433 306 1449 308 1447 310 1450 313 1435 315ZM1426 269 1481 284 1461 300 1430 296Q1429 289 1428.0 282.5Q1427 276 1426 269ZM1377 257 1417 267Q1416 274 1415.5 280.0Q1415 286 1413 293L1381 288Q1380 278 1379.0 271.5Q1378 265 1377 257ZM1329 245 1369 255 1366 286 1332 281ZM726 31 721 132Q645 177 566.5 218.5Q488 260 410 280Q447 239 501.0 196.0Q555 153 614.5 111.5Q674 70 726 31ZM1280 233 1320 243 1317 279 1283 273ZM1229 222 1271 231 1268 271 1233 265ZM1179 211 1219 219 1216 262 1182 256ZM1129 201 1169 209 1167 253 1133 247ZM1080 192 1121 199 1118 244 1083 237ZM727 -38 726 6Q668 40 605.0 75.5Q542 111 480.0 140.5Q418 170 362 187V185Q454 127 545.0 70.5Q636 14 727 -38Z" />
  </g>
</svg>