<svg xmlns="http://www.w3.org/2000/svg" viewBox="100 -112 1639 848">
  <g transform="translate(0, 624) scale(1, -1)">
    <path fill="black" d="M728 -112V-71Q643 -30 544.0 12.0Q445 54 355 89L349 -15H330Q330 5 329.0 35.0Q328 65 326 100Q240 134 178.0 156.0Q116 178 100 179Q122 205 139.5 241.0Q157 277 169 308Q157 340 139.5 376.0Q122 412 100 437Q112 438 150.5 451.0Q189 464 246.5 485.5Q304 507 372.5 534.0Q441 561 513.0 592.0Q585 623 653 654Q648 676 643.0 696.5Q638 717 633 736Q684 724 738 724Q792 724 849 736Q841 707 833.0 673.0Q825 639 817 601Q835 597 879.5 591.0Q924 585 986.5 578.5Q1049 572 1122.5 565.5Q1196 559 1274.0 553.5Q1352 548 1427.0 544.0Q1502 540 1567 538Q1557 597 1545.5 646.0Q1534 695 1523 736Q1574 724 1628 724Q1682 724 1739 736Q1716 653 1694.0 533.5Q1672 414 1658.0 254.0Q1644 94 1644 -112H1618Q1618 -53 1616.5 2.0Q1615 57 1613 109Q1582 109 1545.5 107.5Q1509 106 1467 104V69H1454Q1454 77 1454.0 85.5Q1454 94 1453 103L1378 99V69H1365Q1365 76 1365.0 83.5Q1365 91 1364 98L1289 93V69H1276V92L1200 86V69H1187V85Q1118 79 1054.0 73.5Q990 68 938.0 62.5Q886 57 852.0 52.0Q818 47 809 43Q812 62 814.5 84.0Q817 106 817 129Q817 167 809 202Q822 197 880.5 188.5Q939 180 1023 172Q1026 196 1026 228Q1026 243 1025.0 257.0Q1024 271 1022 284Q1031 280 1073.5 273.5Q1116 267 1175 260L1169 317Q1112 310 1071.5 303.5Q1031 297 1022 293Q1027 321 1027 357Q1027 372 1025.5 386.5Q1024 401 1022 414Q1030 410 1067.5 404.5Q1105 399 1158 392Q1154 420 1150.0 439.5Q1146 459 1143 466Q1156 464 1168.5 462.5Q1181 461 1193 461Q1213 461 1232 464V466Q1234 465 1237 465Q1242 465 1244 466L1243 464Q1263 461 1280 461Q1302 461 1321 464V466Q1323 465 1326 465Q1331 465 1333 466L1332 464Q1352 461 1369 461Q1391 461 1410 464V466Q1412 465 1415 465Q1420 465 1422 466L1421 464Q1441 461 1459 461Q1473 461 1485.5 462.5Q1498 464 1511 466Q1501 444 1490 361Q1507 360 1521.5 360.0Q1536 360 1549 360V347Q1536 347 1520.5 346.5Q1505 346 1488 345Q1484 320 1480.5 291.0Q1477 262 1475 232Q1496 231 1514.5 230.5Q1533 230 1549 230V217Q1533 217 1514.0 216.5Q1495 216 1473 215Q1472 196 1471.0 177.0Q1470 158 1469 139Q1508 138 1544.0 136.5Q1580 135 1611 135Q1605 245 1595.0 338.5Q1585 432 1572 510Q1511 508 1434.5 504.0Q1358 500 1276.0 494.0Q1194 488 1115.5 481.5Q1037 475 971.5 468.0Q906 461 863.0 455.0Q820 449 809 445Q812 464 814.5 486.0Q817 508 817 531Q817 545 816.0 557.5Q815 570 813 583Q790 467 773.0 310.0Q756 153 754 -53Q773 -63 790.0 -72.5Q807 -82 822 -90L810 -111Q797 -104 783.0 -97.0Q769 -90 754 -83V-112ZM364 203Q378 220 388.5 237.5Q399 255 409 280H408Q427 300 439.0 319.5Q451 339 464 367Q463 367 462.5 367.5Q462 368 461 368Q481 389 493.0 408.5Q505 428 518 458Q533 437 565.0 408.0Q597 379 636.5 349.0Q676 319 710 293L699 393Q655 416 608.5 433.5Q562 451 519 458Q539 479 551.0 498.5Q563 518 576 548Q593 523 626.0 493.0Q659 463 693 434Q686 486 678.0 532.5Q670 579 661 619Q601 583 535.0 542.0Q469 501 406.5 460.5Q344 420 294 386Q314 382 335 382Q359 382 392 388Q383 366 376.0 314.5Q369 263 364 203ZM1429 365Q1426 390 1422.5 411.0Q1419 432 1416 445Q1408 416 1402 367Q1409 367 1415.5 366.5Q1422 366 1429 365ZM1339 372Q1336 395 1333.0 413.5Q1330 432 1327 445Q1324 432 1320.5 414.5Q1317 397 1314 375ZM1249 381 1238 445Q1235 434 1232.0 418.5Q1229 403 1226 384ZM317 215Q312 267 305.0 312.0Q298 357 288 382Q252 358 225.0 338.5Q198 319 184 308Q201 294 236.0 270.0Q271 246 317 215ZM720 159Q719 185 717.0 210.5Q715 236 713 261Q676 283 631.5 305.0Q587 327 544.0 344.0Q501 361 467 367Q481 349 511.5 322.0Q542 295 579.5 265.0Q617 235 654.5 207.0Q692 179 720 159ZM1445 234Q1442 263 1439.0 290.0Q1436 317 1432 342L1398 340Q1395 317 1392.0 291.0Q1389 265 1387 238ZM1355 241Q1353 266 1350.0 289.5Q1347 313 1344 335L1308 332Q1305 312 1302.5 290.5Q1300 269 1298 246Q1312 245 1326.5 243.5Q1341 242 1355 241ZM1265 250Q1264 270 1261.0 289.0Q1258 308 1256 327Q1246 326 1236.5 325.0Q1227 324 1218 323L1210 255ZM726 31Q725 57 724.0 82.5Q723 108 721 132Q691 150 649.5 173.5Q608 197 563.0 219.5Q518 242 477.5 258.5Q437 275 410 280Q421 264 448.5 239.5Q476 215 513.5 186.0Q551 157 591.0 127.5Q631 98 667.0 73.0Q703 48 726 31ZM1452 140 1447 213Q1432 212 1416.0 211.0Q1400 210 1384 208Q1383 192 1382.0 176.0Q1381 160 1380 144ZM1362 145Q1361 160 1360.5 175.5Q1360 191 1358 206L1294 201L1291 150ZM1273 151 1270 198Q1254 197 1237.5 195.0Q1221 193 1205 191Q1204 182 1203.5 173.5Q1203 165 1203 156ZM1184 158 1182 189Q1140 184 1106.0 179.0Q1072 174 1050 170ZM727 -38Q727 -27 727.0 -15.5Q727 -4 726 6Q704 20 668.5 40.5Q633 61 590.5 84.0Q548 107 505.0 128.0Q462 149 424.5 165.0Q387 181 362 187V185Q419 149 482.5 109.0Q546 69 609.0 31.5Q672 -6 727 -38Z" />
  </g>
</svg>