<svg xmlns="http://www.w3.org/2000/svg" viewBox="100 -112 1639 848">
  <g transform="translate(0, 624) scale(1, -1)">
    <path fill="black" d="M728 -112V-71Q643 -30 544.0 12.0Q445 54 355 89L349 -15H330Q330 5 329.0 35.0Q328 65 326 100Q240 134 178.0 156.0Q116 178 100 179Q122 205 139.5 241.0Q157 277 169 308Q157 340 139.5 376.0Q122 412 100 437Q112 438 150.5 451.0Q189 464 246.5 485.5Q304 507 372.5 534.0Q441 561 513.0 592.0Q585 623 653 654Q648 676 643.0 696.5Q638 717 633 736Q684 724 738 724Q792 724 849 736Q841 707 833.0 673.0Q825 639 817 601Q835 597 879.5 591.0Q924 585 986.5 578.5Q1049 572 1122.5 565.5Q1196 559 1274.0 553.5Q1352 548 1427.0 544.0Q1502 540 1567 538Q1557 597 1545.5 646.0Q1534 695 1523 736Q1574 724 1628 724Q1682 724 1739 736Q1716 653 1694.0 533.5Q1672 414 1658.0 254.0Q1644 94 1644 -112H1618Q1618 -53 1616.5 2.0Q1615 57 1613 109Q1557 108 1479.0 104.5Q1401 101 1314.5 95.0Q1228 89 1143.0 82.0Q1058 75 986.5 67.5Q915 60 867.5 54.0Q820 48 809 43Q812 62 814.5 84.0Q817 106 817 129Q817 167 809 202Q822 196 884.0 188.0Q946 180 1034 171L1030 225Q1011 225 983.0 222.5Q955 220 927.0 216.5Q899 213 878.0 209.5Q857 206 852 204Q853 210 853.5 216.5Q854 223 854 230Q854 237 853.5 243.5Q853 250 852 257Q855 256 876.0 252.5Q897 249 925.5 245.5Q954 242 982.5 239.0Q1011 236 1029 236Q1028 248 1027.5 260.5Q1027 273 1025 286Q1005 285 977.5 282.5Q950 280 923.5 276.5Q897 273 877.0 270.0Q857 267 852 265Q853 271 853.5 277.5Q854 284 854 291Q854 298 853.5 304.5Q853 311 852 318Q858 315 877.5 312.0Q897 309 923.5 305.5Q950 302 977.0 300.0Q1004 298 1024 297L1020 345Q999 344 972.5 341.5Q946 339 920.0 335.5Q894 332 875.5 329.5Q857 327 852 325Q853 331 853.5 337.5Q854 344 854 351Q854 358 853.5 364.5Q853 371 852 378Q859 375 888.5 370.5Q918 366 954.5 362.5Q991 359 1018 357L1012 405Q984 404 949.0 399.5Q914 395 886.5 391.0Q859 387 852 385Q853 391 853.5 397.5Q854 404 854 411Q854 418 853.5 424.5Q853 431 852 438Q859 435 886.0 430.5Q913 426 948.0 422.5Q983 419 1011 417Q1008 435 1005.5 449.0Q1003 463 1000 471Q924 464 872.0 457.0Q820 450 809 445Q812 464 814.5 486.0Q817 508 817 531Q817 545 816.0 557.5Q815 570 813 583Q790 467 773.0 310.0Q756 153 754 -53Q773 -63 790.0 -72.5Q807 -82 822 -90L810 -111Q797 -104 783.0 -97.0Q769 -90 754 -83V-112ZM364 203Q378 220 388.5 237.5Q399 255 409 280H408Q427 300 439.0 319.5Q451 339 464 367Q463 367 462.5 367.5Q462 368 461 368Q481 389 493.0 408.5Q505 428 518 458Q533 437 565.0 408.0Q597 379 636.5 349.0Q676 319 710 293L699 393Q655 416 608.5 433.5Q562 451 519 458Q539 479 551.0 498.5Q563 518 576 548Q593 523 626.0 493.0Q659 463 693 434Q686 486 678.0 532.5Q670 579 661 619Q601 583 535.0 542.0Q469 501 406.5 460.5Q344 420 294 386Q314 382 335 382Q359 382 392 388Q383 366 376.0 314.5Q369 263 364 203ZM1611 135Q1605 245 1595.0 338.5Q1585 432 1572 510Q1517 509 1448.0 505.0Q1379 501 1304.5 496.0Q1230 491 1156.5 485.0Q1083 479 1019 473Q1026 472 1032.0 472.0Q1038 472 1045 472Q1069 472 1090 475Q1082 458 1076 419Q1083 416 1107.0 413.0Q1131 410 1162.0 406.5Q1193 403 1222.5 401.0Q1252 399 1270 399V398Q1301 401 1326.5 403.0Q1352 405 1383.5 411.0Q1415 417 1462 433Q1455 443 1447.0 453.0Q1439 463 1431 475Q1453 476 1474.0 483.0Q1495 490 1519 500Q1520 467 1520.0 441.0Q1520 415 1523.5 384.0Q1527 353 1539 304Q1547 302 1554.5 301.0Q1562 300 1569 299Q1552 276 1538.0 256.5Q1524 237 1510.0 210.5Q1496 184 1479 139Q1515 138 1548.5 136.5Q1582 135 1611 135ZM1509 349Q1499 373 1489.0 390.5Q1479 408 1469 423Q1431 407 1406.0 393.5Q1381 380 1362 367Q1373 364 1391.0 361.5Q1409 359 1430 356L1423 392Q1429 391 1435.0 390.5Q1441 390 1447 390Q1453 390 1459.0 390.5Q1465 391 1472 392Q1468 384 1463 353Q1475 352 1487.0 351.0Q1499 350 1509 349ZM1469 139Q1481 186 1484.5 215.0Q1488 244 1488 269Q1480 268 1471.0 267.5Q1462 267 1453 265Q1452 255 1451.5 245.0Q1451 235 1451 227H1444Q1444 235 1443.5 244.5Q1443 254 1442 264Q1416 261 1393.0 257.0Q1370 253 1359 251Q1378 238 1404.0 223.5Q1430 209 1471 192L1466 182Q1415 199 1382.5 205.0Q1350 211 1323.5 213.0Q1297 215 1263 218Q1243 217 1213.5 214.5Q1184 212 1154.0 208.5Q1124 205 1102.0 202.0Q1080 199 1075 197Q1076 203 1076.5 209.0Q1077 215 1077 221Q1077 227 1076.5 233.0Q1076 239 1075 246Q1081 243 1104.0 239.5Q1127 236 1157.5 232.5Q1188 229 1218.0 227.0Q1248 225 1267 225Q1278 246 1284.5 264.5Q1291 283 1294 304Q1311 290 1324.5 278.0Q1338 266 1354 255Q1355 260 1355.0 264.5Q1355 269 1355 273Q1355 281 1354.5 288.5Q1354 296 1353 303Q1360 300 1385.0 296.0Q1410 292 1440 288L1434 330Q1406 326 1382.5 322.5Q1359 319 1353 317Q1354 324 1354.5 330.5Q1355 337 1355 344Q1355 349 1355.0 353.0Q1355 357 1354 361Q1338 350 1324.5 338.0Q1311 326 1294 312Q1291 333 1284.0 351.5Q1277 370 1266 392Q1247 392 1217.0 389.5Q1187 387 1156.5 383.5Q1126 380 1103.0 376.5Q1080 373 1075 371Q1076 377 1076.5 382.5Q1077 388 1077 394Q1077 399 1076.5 405.0Q1076 411 1075 417Q1070 382 1065.0 337.0Q1060 292 1056.5 248.0Q1053 204 1049 170Q1144 161 1255.5 152.5Q1367 144 1469 139ZM317 215Q312 267 305.0 312.0Q298 357 288 382Q252 358 225.0 338.5Q198 319 184 308Q201 294 236.0 270.0Q271 246 317 215ZM720 159Q719 185 717.0 210.5Q715 236 713 261Q676 283 631.5 305.0Q587 327 544.0 344.0Q501 361 467 367Q481 349 511.5 322.0Q542 295 579.5 265.0Q617 235 654.5 207.0Q692 179 720 159ZM1488 283Q1488 292 1488.0 301.5Q1488 311 1489 322Q1499 318 1508.0 314.0Q1517 310 1526 308L1514 338L1460 333L1454 287ZM726 31Q725 57 724.0 82.5Q723 108 721 132Q691 150 649.5 173.5Q608 197 563.0 219.5Q518 242 477.5 258.5Q437 275 410 280Q421 264 448.5 239.5Q476 215 513.5 186.0Q551 157 591.0 127.5Q631 98 667.0 73.0Q703 48 726 31ZM727 -38Q727 -27 727.0 -15.5Q727 -4 726 6Q704 20 668.5 40.5Q633 61 590.5 84.0Q548 107 505.0 128.0Q462 149 424.5 165.0Q387 181 362 187V185Q419 149 482.5 109.0Q546 69 609.0 31.5Q672 -6 727 -38Z" />
  </g>
</svg>