<svg xmlns="http://www.w3.org/2000/svg" viewBox="100 -112 1639 848">
  <g transform="translate(0, 624) scale(1, -1)">
    <path fill="black" d="M728 -112V-71Q643 -30 544.0 12.0Q445 54 355 89L349 -15H330Q330 5 329.0 35.0Q328 65 326 100Q240 134 178.0 156.0Q116 178 100 179Q122 205 139.5 241.0Q157 277 169 308Q157 340 139.5 376.0Q122 412 100 437Q112 438 150.5 451.0Q189 464 246.5 485.5Q304 507 372.5 534.0Q441 561 513.0 592.0Q585 623 653 654Q648 676 643.0 696.5Q638 717 633 736Q684 724 738 724Q792 724 849 736Q841 707 833.0 673.0Q825 639 817 601Q823 600 832.5 598.0Q842 596 855 594V612Q855 627 854.0 641.5Q853 656 850 670Q860 666 904.0 659.5Q948 653 1013.0 646.5Q1078 640 1152.0 634.0Q1226 628 1298.5 624.5Q1371 621 1429 621Q1425 634 1421.5 642.5Q1418 651 1415 658Q1454 649 1494 649Q1519 649 1544 652L1523 736Q1574 724 1628 724Q1682 724 1739 736Q1716 653 1694.0 533.5Q1672 414 1658.0 254.0Q1644 94 1644 -112H1618Q1618 -53 1616.5 2.0Q1615 57 1613 109Q1557 108 1479.0 104.5Q1401 101 1314.5 95.0Q1228 89 1143.0 82.0Q1058 75 986.5 67.5Q915 60 867.5 54.0Q820 48 809 43Q812 62 814.5 84.0Q817 106 817 129Q817 167 809 202Q820 197 865.0 190.5Q910 184 978.0 177.0Q1046 170 1128.0 162.5Q1210 155 1296.5 149.0Q1383 143 1464.0 139.5Q1545 136 1611 135Q1605 245 1595.0 338.5Q1585 432 1572 510Q1562 510 1553.5 510.0Q1545 510 1534 509Q1524 457 1516.5 381.0Q1509 305 1507 198H1488Q1481 303 1472.5 378.0Q1464 453 1455 505Q1379 501 1294.5 495.0Q1210 489 1128.5 482.5Q1047 476 978.5 469.0Q910 462 865.0 456.0Q820 450 809 445Q812 464 814.5 486.0Q817 508 817 531Q817 545 816.0 557.5Q815 570 813 583Q790 467 773.0 310.0Q756 153 754 -53Q773 -63 790.0 -72.5Q807 -82 822 -90L810 -111Q797 -104 783.0 -97.0Q769 -90 754 -83V-112ZM364 203Q378 220 388.5 237.5Q399 255 409 280H408Q427 300 439.0 319.5Q451 339 464 367Q463 367 462.5 367.5Q462 368 461 368Q481 389 493.0 408.5Q505 428 518 458Q533 437 565.0 408.0Q597 379 636.5 349.0Q676 319 710 293L699 393Q655 416 608.5 433.5Q562 451 519 458Q539 479 551.0 498.5Q563 518 576 548Q593 523 626.0 493.0Q659 463 693 434Q686 486 678.0 532.5Q670 579 661 619Q601 583 535.0 542.0Q469 501 406.5 460.5Q344 420 294 386Q314 382 335 382Q359 382 392 388Q383 366 376.0 314.5Q369 263 364 203ZM1449 542Q1441 583 1433 610V602Q1396 602 1345.0 600.0Q1294 598 1236.0 594.0Q1178 590 1119.5 585.5Q1061 581 1010 576Q1074 570 1148.0 563.5Q1222 557 1299.5 551.5Q1377 546 1449 542ZM1567 538Q1564 554 1561.5 569.0Q1559 584 1556 598Q1552 586 1548.0 571.5Q1544 557 1540 539Q1548 538 1554.0 538.0Q1560 538 1567 538ZM1441 190Q1397 229 1365.0 255.0Q1333 281 1307 300Q1256 298 1197.5 293.5Q1139 289 1083 284Q1082 269 1081.5 252.5Q1081 236 1081 218H1068Q1068 253 1065 283Q1049 282 1032.5 280.0Q1016 278 1000 276Q999 263 998.5 248.5Q998 234 998 218H985Q985 233 984.5 247.0Q984 261 983 274Q931 268 895.5 262.5Q860 257 850 253Q852 267 854.0 284.0Q856 301 856 317Q856 345 850 370Q859 366 892.5 360.5Q926 355 974 349Q967 390 957.0 415.5Q947 441 941 455Q954 452 966.5 451.0Q979 450 991 450Q1000 450 1008.5 450.5Q1017 451 1025 452Q1024 453 1024 455L1032 453L1042 455L1040 452Q1048 451 1055.5 450.5Q1063 450 1070 450Q1084 450 1098.0 451.5Q1112 453 1125 455Q1118 439 1107.0 411.5Q1096 384 1089 337Q1142 332 1197.0 328.0Q1252 324 1304 322Q1328 344 1363.5 377.5Q1399 411 1433 449L1446 442Q1426 405 1411.0 375.5Q1396 346 1382 321H1383V302H1381Q1392 285 1410.5 258.5Q1429 232 1454 200ZM1059 340Q1053 372 1046.0 395.0Q1039 418 1033 434Q1026 419 1019.0 397.5Q1012 376 1007 345ZM317 215Q312 267 305.0 312.0Q298 357 288 382Q252 358 225.0 338.5Q198 319 184 308Q201 294 236.0 270.0Q271 246 317 215ZM720 159Q719 185 717.0 210.5Q715 236 713 261Q676 283 631.5 305.0Q587 327 544.0 344.0Q501 361 467 367Q481 349 511.5 322.0Q542 295 579.5 265.0Q617 235 654.5 207.0Q692 179 720 159ZM726 31Q725 57 724.0 82.5Q723 108 721 132Q691 150 649.5 173.5Q608 197 563.0 219.5Q518 242 477.5 258.5Q437 275 410 280Q421 264 448.5 239.5Q476 215 513.5 186.0Q551 157 591.0 127.5Q631 98 667.0 73.0Q703 48 726 31ZM727 -38Q727 -27 727.0 -15.5Q727 -4 726 6Q704 20 668.5 40.5Q633 61 590.5 84.0Q548 107 505.0 128.0Q462 149 424.5 165.0Q387 181 362 187V186Q419 150 482.5 110.0Q546 70 609.0 32.0Q672 -6 727 -38Z" />
  </g>
</svg>