<svg xmlns="http://www.w3.org/2000/svg" viewBox="100 -139 1121 909">
  <g transform="translate(0, 631) scale(1, -1)">
    <path fill="black" d="M166 -139Q166 -53 162.5 43.0Q159 139 153.0 233.5Q147 328 138.5 409.5Q130 491 120.5 549.0Q111 607 100 629Q133 623 174 623Q213 623 250 629Q250 647 249.0 666.0Q248 685 245 704Q260 697 311.0 689.0Q362 681 437.5 673.5Q513 666 602 660Q617 673 634.0 686.0Q651 699 675.0 718.5Q699 738 735 770L748 762Q729 733 716.5 708.0Q704 683 690 659L693 654L699 653L691 659Q706 672 723.0 685.0Q740 698 764.5 718.0Q789 738 825 770L838 762Q819 733 806.5 708.0Q794 683 780 659L786 649Q849 645 910.5 643.0Q972 641 1028 639Q1023 666 1017.0 690.5Q1011 715 1005 736Q1056 724 1110 724Q1164 724 1221 736Q1199 654 1177.0 531.0Q1155 408 1141 247H1142V227H1139Q1133 145 1129.5 53.5Q1126 -38 1126 -139H1100Q1100 -38 1096.5 53.0Q1093 144 1086 226Q987 225 896.5 219.0Q806 213 730.0 204.0Q654 195 600.5 184.0Q547 173 521 161Q527 194 527 236Q527 243 527.0 250.0Q527 257 526 264Q515 242 503.5 215.0Q492 188 482.5 145.0Q473 102 467.5 34.0Q462 -34 462 -139H442Q442 -48 438.0 13.5Q434 75 427.0 116.0Q420 157 411.0 185.0Q402 213 391 235Q381 165 374.0 71.0Q367 -23 367 -139H347Q347 25 335.0 141.0Q323 257 305 327Q297 262 291.0 184.5Q285 107 281.5 24.5Q278 -58 278 -139H258Q258 -32 252.5 74.5Q247 181 238.0 273.0Q229 365 217 430Q209 349 201.5 250.0Q194 151 190.0 50.5Q186 -50 186 -139ZM1053 507Q1049 536 1043.5 563.5Q1038 591 1033 616Q980 615 923.0 613.0Q866 611 806 609Q813 596 820.5 583.0Q828 570 838 556L825 545L757 607Q747 606 738.0 605.5Q729 605 719 605Q725 593 732.0 581.0Q739 569 748 556L735 545L672 602Q570 596 480.0 587.5Q390 579 327.5 570.5Q265 562 245 552Q247 569 248.5 587.5Q250 606 250 626Q245 613 239.5 586.5Q234 560 229 522Q237 521 245.5 521.0Q254 521 262 521Q304 521 344 527Q343 538 342.0 549.5Q341 561 339 572Q356 564 407.0 555.5Q458 547 532.5 539.0Q607 531 695.5 524.5Q784 518 876.0 513.5Q968 509 1053 507ZM1071 374Q1068 403 1064.5 431.0Q1061 459 1057 485Q972 483 881.0 479.0Q790 475 702.0 469.0Q614 463 539.0 455.0Q464 447 411.5 438.0Q359 429 339 420Q345 455 345 497Q345 505 345.0 512.0Q345 519 344 526Q328 494 314 394Q324 393 334.0 392.5Q344 392 354 392Q392 392 431 398Q430 409 429.5 419.5Q429 430 427 440Q444 432 489.0 423.0Q534 414 599.0 406.0Q664 398 742.5 391.5Q821 385 905.0 380.5Q989 376 1071 374ZM452 262Q470 262 489.0 263.5Q508 265 526 267Q525 278 524.0 289.5Q523 301 521 311Q453 300 427 288Q429 304 430.5 322.0Q432 340 432 359Q432 368 432.0 377.0Q432 386 431 395Q423 376 413.5 343.5Q404 311 396 265Q423 262 452 262ZM1084 247Q1082 275 1079.5 301.5Q1077 328 1074 353Q973 352 870.5 346.0Q768 340 677.5 331.5Q587 323 523 312Q546 302 599.0 291.0Q652 280 728.0 271.0Q804 262 895.0 255.5Q986 249 1084 247ZM875 -25Q839 8 818.0 27.5Q797 47 780.5 60.5Q764 74 741 89Q756 102 773.0 115.0Q790 128 814.5 148.0Q839 168 875 200L888 192Q869 163 856.5 138.0Q844 113 830 89Q844 66 856.5 40.5Q869 15 888 -14ZM785 -25Q749 8 728.0 27.5Q707 47 690.5 60.5Q674 74 651 89Q666 102 683.0 115.0Q700 128 724.5 148.0Q749 168 785 200L798 192Q779 163 766.5 138.0Q754 113 740 89Q754 66 766.5 40.5Q779 15 798 -14Z" />
  </g>
</svg>