<svg xmlns="http://www.w3.org/2000/svg" viewBox="100 -197 968 1021">
  <g transform="translate(0, 627) scale(1, -1)">
    <path fill="black" d="M496 -197Q482 -184 452.5 -158.0Q423 -132 385.5 -98.5Q348 -65 308.5 -30.0Q269 5 233.0 35.5Q197 66 170.5 86.0Q144 106 134 109Q170 135 193 165L165 188Q176 192 215.5 225.0Q255 258 309 307L304 306Q306 323 308.5 343.5Q311 364 314 405Q291 387 268.5 369.0Q246 351 226 337L220 343Q240 366 264.0 395.5Q288 425 311.5 456.0Q335 487 350 512Q320 489 289.0 463.0Q258 437 231.0 414.5Q204 392 185 378L179 384Q197 404 226.5 438.5Q256 473 287.5 511.5Q319 550 344 583Q306 552 267.5 518.5Q229 485 197.0 458.0Q165 431 146 417L140 423Q153 438 177.5 465.5Q202 493 232.0 527.0Q262 561 292.0 596.5Q322 632 347 663Q313 634 277.0 602.5Q241 571 207.5 542.0Q174 513 147.5 490.5Q121 468 107 457L100 463Q113 478 139.0 507.0Q165 536 198.5 573.5Q232 611 267.0 650.5Q302 690 332.5 726.0Q363 762 383.5 788.0Q404 814 407 824Q431 789 462 765Q477 780 486 793Q490 783 523.0 743.0Q556 703 604 650L603 655Q614 654 626.5 652.0Q639 650 658 648L609 677Q637 694 660.5 717.5Q684 741 703 771Q723 736 750.0 697.5Q777 659 816.5 610.5Q856 562 912.5 499.5Q969 437 1047 354L1037 344Q986 388 944.0 424.5Q902 461 867 490L809 425Q855 376 890.0 338.5Q925 301 937 287Q947 302 956.0 318.0Q965 334 974 350Q1008 295 1068 256Q1034 236 995.0 208.5Q956 181 908.0 141.5Q860 102 797.5 45.5Q735 -11 652 -89L641 -78Q686 -27 722.0 15.0Q758 57 787 91Q760 114 720.0 151.0Q680 188 634 229L632 227H633Q637 207 642.5 190.5Q648 174 652 157Q668 153 684.5 147.5Q701 142 722 138L721 127Q691 126 673.5 125.0Q656 124 643.0 123.0Q630 122 613 118Q615 135 617.5 155.5Q620 176 623 216Q616 208 608.5 199.5Q601 191 594 183Q599 164 603.5 148.0Q608 132 612 117Q628 113 645.0 108.0Q662 103 682 98V89Q652 87 634.0 86.0Q616 85 603.0 84.0Q590 83 573 79Q575 96 577.5 115.0Q580 134 584 170Q555 136 535.5 111.5Q516 87 513 77L503 90Q527 53 561.0 8.5Q595 -36 621 -71L615 -78Q593 -58 563.0 -34.0Q533 -10 502.5 13.0Q472 36 447 52Q471 23 496.0 -8.0Q521 -39 543.5 -66.0Q566 -93 580 -112L574 -119Q554 -101 519.5 -71.5Q485 -42 447.0 -10.0Q409 22 376 46Q407 9 440.0 -29.5Q473 -68 500.5 -100.0Q528 -132 542 -151L535 -158Q520 -144 492.5 -120.0Q465 -96 431.0 -66.0Q397 -36 361.5 -6.0Q326 24 295 49Q324 15 355.5 -21.0Q387 -57 416.0 -90.5Q445 -124 468.0 -150.0Q491 -176 502 -191ZM458 682 467 693Q451 706 440.0 713.5Q429 721 422 725L417 721Q435 700 458 682ZM585 560 602 575Q568 606 538.0 632.5Q508 659 483 680Q497 661 524.0 629.5Q551 598 585 560ZM440 587 451 600Q418 627 405 632L398 627Q408 615 419.0 605.0Q430 595 440 587ZM718 607Q711 613 703.5 618.5Q696 624 688 629L671 624L662 613Q673 612 686.0 610.5Q699 609 718 607ZM689 555 726 589Q713 586 702.5 582.5Q692 579 682 576L679 567ZM742 498 797 548Q783 559 770.5 569.0Q758 579 746 588L703 540ZM531 509 543 521 466 588Q486 560 531 509ZM423 491Q427 495 430.5 499.0Q434 503 437 507Q402 535 390 540Q395 544 401.0 549.0Q407 554 413 559L379 534Q390 522 401.0 511.0Q412 500 423 491ZM635 505 649 518V533L624 556L622 545L612 546L611 556L600 543Q617 524 635 505ZM792 443 855 501Q827 523 806 541L755 483ZM687 447 715 473 676 509 653 484ZM580 453 599 471 563 503 549 488ZM477 460 485 467 449 498Q454 491 461.0 481.0Q468 471 477 460ZM737 393 770 423 732 457 705 427ZM391 381 425 411Q407 425 394.0 434.5Q381 444 375 446L389 456L365 441Q369 425 373.5 411.5Q378 398 382 384ZM631 396 656 419 622 450 602 428ZM525 403 541 418 510 445 500 434ZM348 342 352 346 344 344Q346 361 348.0 379.5Q350 398 352 432L324 412Q328 392 333.5 375.5Q339 359 343 343ZM894 225Q905 241 915.5 256.0Q926 271 936 286L930 280Q915 291 877.5 325.0Q840 359 791 404L759 369Q800 326 835.5 288.5Q871 251 894 225ZM681 341 711 369 679 398 654 371ZM576 346 599 367 569 393 552 373ZM461 344 482 363 456 385Q452 381 447.5 376.0Q443 371 439 366L452 364L451 352L425 351L423 348ZM845 162Q856 176 866.0 188.0Q876 200 885 212Q859 235 820.5 270.0Q782 305 738 345L708 312Q752 263 789.0 223.5Q826 184 845 162ZM278 185Q300 202 338.5 235.0Q377 268 423 309L418 343L403 327L414 325L413 314L390 313Q358 277 329.0 244.0Q300 211 278 185ZM625 292 654 317 627 341 604 315ZM531 305 540 313 522 328 508 325 493 309Q501 308 510.0 307.0Q519 306 531 305ZM797 103 838 152Q816 170 775.5 207.0Q735 244 686 288L658 255ZM463 154Q483 168 518.0 197.5Q553 227 595 264L574 282Q543 246 514.0 213.0Q485 180 463 154ZM368 167Q384 178 410.0 199.5Q436 221 467 249L466 278Q459 271 452.0 263.5Q445 256 439 248L437 240H431Q413 220 397.5 201.5Q382 183 368 167ZM237 120Q248 129 258.0 139.5Q268 150 276 160Q273 162 270.0 164.0Q267 166 265 168Q239 137 233 124ZM331 101Q353 120 371 143L358 154Q345 138 336.0 126.0Q327 114 325 108ZM424 82Q449 102 467 125L452 139Q439 122 430.0 110.0Q421 98 419 92L401 113Z" />
  </g>
</svg>