<svg xmlns="http://www.w3.org/2000/svg" viewBox="100 -114 1338 872">
  <g transform="translate(0, 644) scale(1, -1)">
    <path fill="black" d="M525 -114Q525 -99 524.5 -82.0Q524 -65 524 -49Q379 -58 267.5 -70.0Q156 -82 100 -98Q106 -68 109.5 -39.5Q113 -11 113 15Q113 41 109.5 67.0Q106 93 100 118Q145 105 218 94Q222 118 222 142Q222 160 219 184Q218 183 216 183Q216 185 216.5 187.5Q217 190 217 192Q217 194 216.5 196.5Q216 199 216 201Q217 200 219 200Q222 223 222 243Q222 260 219 284Q218 283 216 283Q216 285 216.5 287.5Q217 290 217 292Q217 294 216.5 296.5Q216 299 216 301Q217 300 219 300Q222 323 222 343Q222 360 219 384Q218 383 216 383Q216 385 216.5 387.5Q217 390 217 392Q217 394 216.5 396.5Q216 399 216 401Q217 400 219 400Q222 423 222 443Q222 460 219 484Q218 483 216 483Q216 485 216.5 487.5Q217 490 217 492Q217 494 216.5 496.5Q216 499 216 501Q217 500 219 500Q222 523 222 542Q222 559 219 583Q188 575 158.5 565.0Q129 555 100 543Q110 593 110 648Q110 701 100 758Q165 731 253.5 711.5Q342 692 460 681Q458 685 458 687Q493 679 531 679Q554 679 576.0 681.5Q598 684 617 687Q613 676 606.5 632.0Q600 588 593.0 521.5Q586 455 579.0 376.0Q572 297 566.0 215.0Q560 133 556 59Q723 47 918.0 36.0Q1113 25 1315 12Q1309 269 1281.0 446.5Q1253 624 1222 736Q1273 724 1327 724Q1381 724 1438 736Q1415 653 1393.0 533.5Q1371 414 1357.0 254.0Q1343 94 1343 -112H1317Q1317 -87 1316.5 -63.0Q1316 -39 1316 -15Q1187 -19 1054.5 -23.5Q922 -28 794.0 -33.5Q666 -39 551 -47Q550 -65 550.0 -82.5Q550 -100 550 -114ZM479 555Q477 577 474.0 595.5Q471 614 469 630Q402 621 347.5 611.5Q293 602 245 590Q288 575 342.5 566.5Q397 558 479 555ZM490 454Q489 474 486.5 492.5Q484 511 482 529Q396 526 339.5 517.0Q283 508 239 492Q270 481 303.5 473.0Q337 465 381.5 460.5Q426 456 490 454ZM500 353Q498 373 496.5 392.0Q495 411 493 430Q428 429 382.5 424.0Q337 419 303.0 411.5Q269 404 238 392Q270 380 304.5 372.0Q339 364 386.0 359.5Q433 355 500 353ZM1224 38Q1178 80 1149.0 107.0Q1120 134 1097.5 153.0Q1075 172 1049 190Q976 186 899.5 178.0Q823 170 756.0 160.0Q689 150 642.0 140.5Q595 131 580 125Q583 144 585.5 166.0Q588 188 588 211Q588 249 580 284Q595 278 638.0 268.5Q681 259 744.0 248.5Q807 238 884.0 230.0Q961 222 1045 219Q1065 236 1088.5 254.0Q1112 272 1145.0 299.0Q1178 326 1224 367L1243 355Q1215 313 1196.5 276.0Q1178 239 1159 204Q1178 170 1196.5 133.0Q1215 96 1243 55ZM508 253 502 330Q434 329 387.0 324.0Q340 319 305.0 311.5Q270 304 238 292Q270 280 304.5 271.5Q339 263 387.0 258.5Q435 254 508 253ZM514 153Q513 173 512.0 192.5Q511 212 509 231Q436 230 387.5 225.5Q339 221 304.5 212.5Q270 204 238 192Q271 180 306.0 171.5Q341 163 390.0 158.5Q439 154 514 153ZM520 62 516 131Q440 130 390.0 125.5Q340 121 305.0 112.5Q270 104 237 91Q296 83 367.0 75.5Q438 68 520 62Z" />
  </g>
</svg>