<svg xmlns="http://www.w3.org/2000/svg" viewBox="100 -371 598 1107">
  <g transform="translate(0, 365) scale(1, -1)">
    <path fill="black" d="M680 -371Q604 -303 552.0 -261.0Q500 -219 455 -186Q470 -173 492.5 -153.5Q515 -134 541 -109Q541 95 527.0 254.5Q513 414 491.0 533.5Q469 653 446 736Q497 724 551 724Q605 724 662 736Q640 654 618.5 538.0Q597 422 582.5 267.5Q568 113 567 -85Q592 -61 617.5 -34.5Q643 -8 667 20L687 9Q653 -52 628.5 -100.0Q604 -148 581 -186Q598 -214 627.5 -258.0Q657 -302 698 -356ZM482 319Q426 365 385.0 395.0Q344 425 312.5 444.5Q281 464 253.0 478.0Q225 492 194.0 504.5Q163 517 123 534Q167 563 203.5 599.5Q240 636 275 686Q292 644 308.0 608.5Q324 573 346.5 534.5Q369 496 405.5 449.0Q442 402 500 338ZM100 179Q110 229 110 284Q110 337 100 394Q142 377 178.5 362.5Q215 348 257.5 337.0Q300 326 359.0 318.5Q418 311 505 307V281Q433 274 383.0 266.0Q333 258 297.0 249.5Q261 241 231.0 231.0Q201 221 170.5 208.0Q140 195 100 179Z" />
  </g>
</svg>