<svg xmlns="http://www.w3.org/2000/svg" viewBox="100 -371 1032 1107">
  <g transform="translate(0, 365) scale(1, -1)">
    <path fill="black" d="M1114 -371Q1038 -303 986.0 -261.0Q934 -219 889 -186Q904 -173 926.0 -153.5Q948 -134 974 -110Q974 95 960.0 254.5Q946 414 924.0 533.5Q902 653 879 736Q930 724 984 724Q1038 724 1095 736Q1073 654 1051.5 538.0Q1030 422 1015.5 267.0Q1001 112 1000 -86Q1025 -61 1051.0 -34.5Q1077 -8 1101 20L1121 9Q1087 -52 1062.5 -100.0Q1038 -148 1015 -186Q1032 -214 1061.5 -258.0Q1091 -302 1132 -356ZM680 -371Q604 -303 552.0 -261.0Q500 -219 455 -186Q470 -172 492.5 -152.5Q515 -133 542 -108Q542 96 527.5 255.0Q513 414 491.5 533.5Q470 653 447 736Q498 724 552 724Q606 724 663 736Q641 655 619.5 539.0Q598 423 583.5 268.5Q569 114 568 -84Q593 -60 618.0 -33.5Q643 -7 667 20L687 9Q653 -52 628.5 -100.0Q604 -148 581 -186Q598 -214 627.5 -258.0Q657 -302 698 -356ZM898 -371Q822 -303 770.0 -261.0Q718 -219 673 -186Q688 -173 710.0 -153.5Q732 -134 758 -110Q758 95 744.0 254.5Q730 414 708.0 533.5Q686 653 663 736Q714 724 768 724Q822 724 879 736Q857 654 835.5 538.0Q814 422 799.5 267.0Q785 112 784 -86Q809 -61 835.0 -34.5Q861 -8 885 20L905 9Q871 -52 846.5 -100.0Q822 -148 799 -186Q816 -214 845.5 -258.0Q875 -302 916 -356ZM482 319Q426 365 385.0 395.0Q344 425 312.5 444.5Q281 464 253.0 478.0Q225 492 194.0 504.5Q163 517 123 534Q167 563 203.5 599.5Q240 636 275 686Q292 644 308.0 608.5Q324 573 346.5 534.5Q369 496 405.5 449.0Q442 402 500 338ZM100 179Q110 229 110 284Q110 337 100 394Q142 377 178.5 362.5Q215 348 257.5 337.0Q300 326 359.0 318.5Q418 311 505 307V281Q433 274 383.0 266.0Q333 258 297.0 249.5Q261 241 231.0 231.0Q201 221 170.5 208.0Q140 195 100 179Z" />
  </g>
</svg>