<svg xmlns="http://www.w3.org/2000/svg" viewBox="100 -112 1813 927">
  <g transform="translate(0, 703) scale(1, -1)">
    <path fill="black" d="M456 -112Q455 -52 452.5 9.0Q450 70 448 131Q318 130 237.0 118.0Q156 106 100 83Q103 100 105.0 114.0Q107 128 107 142Q107 152 106.0 162.0Q105 172 103 184Q102 183 100 183Q100 185 100.5 187.5Q101 190 101 192Q101 194 100.5 196.5Q100 199 100 201Q101 200 103 200Q106 223 106 243Q106 260 103 284Q102 283 100 283Q100 285 100.5 287.5Q101 290 101 292Q101 294 100.5 296.5Q100 299 100 301Q101 300 103 300Q106 323 106 343Q106 360 103 384Q102 383 100 383Q100 385 100.5 387.5Q101 390 101 392Q101 394 100.5 396.5Q100 399 100 401Q101 400 103 400Q106 423 106 443Q106 460 103 484Q102 483 100 483Q100 485 100.5 487.5Q101 490 101 492Q101 494 100.5 496.5Q100 499 100 501Q101 500 103 500Q106 521 106 539Q106 553 104.5 567.5Q103 582 100 601Q196 561 412 555Q408 589 404.0 619.5Q400 650 392 687Q405 683 427.0 681.0Q449 679 470 679Q479 679 487.5 679.5Q496 680 502 681L495 683Q524 709 547.5 746.5Q571 784 584 815Q591 806 635.0 770.5Q679 735 752.5 679.5Q826 624 921 554Q914 643 906.5 703.5Q899 764 894 777Q929 769 967 769Q990 769 1012.0 771.5Q1034 774 1053 777Q1049 767 1043.5 725.5Q1038 684 1032.0 621.0Q1026 558 1020 482L1154 385Q1247 438 1347.0 498.0Q1447 558 1550 623L1566 597Q1468 535 1375.0 474.0Q1282 413 1196 356Q1327 263 1468.5 165.0Q1610 67 1746 -23Q1786 -24 1828.0 -24.5Q1870 -25 1913 -25V-56Q1591 -56 1355.5 -66.0Q1120 -76 989 -88V-112H958V-91Q912 -95 883.0 -100.0Q854 -105 845 -109Q848 -90 850.5 -68.0Q853 -46 853 -23Q853 15 845 50Q866 41 955 28L947 188Q842 115 762.0 57.0Q682 -1 635.0 -38.0Q588 -75 580 -86Q567 -55 545.0 -16.5Q523 22 495 48Q510 50 569.5 77.0Q629 104 725.0 152.5Q821 201 943 267Q940 313 937.0 358.5Q934 404 930 447Q800 523 699.5 578.5Q599 634 545 661Q519 468 505.5 275.0Q492 82 487 -112ZM423 453 415 529Q221 523 124 492Q175 475 247.5 465.0Q320 455 423 453ZM432 353Q431 369 429.5 384.0Q428 399 427 413L425 430Q321 428 248.0 418.5Q175 409 124 392Q176 375 250.5 365.0Q325 355 432 353ZM1008 303 1093 350 1014 397ZM440 253 434 330Q326 328 251.5 318.5Q177 309 124 292Q177 274 252.0 264.5Q327 255 440 253ZM1688 -22Q1555 65 1415.0 153.0Q1275 241 1142 321L1002 226L992 23Q1099 10 1276.0 -3.5Q1453 -17 1688 -22ZM446 153Q445 173 444.0 192.5Q443 212 441 231Q326 230 251.0 220.0Q176 210 123 192Q177 173 253.5 164.0Q330 155 446 153Z" />
  </g>
</svg>