<svg xmlns="http://www.w3.org/2000/svg" viewBox="100 -151 1842 1009">
  <g transform="translate(0, 707) scale(1, -1)">
    <path fill="black" d="M1820 -151Q1820 -125 1819.0 -101.5Q1818 -78 1816 -56Q1530 -57 1320.0 -67.0Q1110 -77 989 -88V-112H958V-91Q912 -95 883.0 -100.0Q854 -105 845 -109Q852 -68 853.0 -28.0Q854 12 845 50Q866 41 955 28Q954 64 952.0 102.5Q950 141 948 181Q845 110 764.5 53.0Q684 -4 635.5 -40.0Q587 -76 580 -86Q567 -55 545.0 -16.5Q523 22 495 48Q508 50 568.5 79.0Q629 108 725.5 158.0Q822 208 942 273Q940 317 937.0 361.0Q934 405 930 447Q800 523 699.5 578.5Q599 634 545 661Q533 567 524.5 489.5Q516 412 510.0 342.5Q504 273 499.5 204.0Q495 135 492.0 58.0Q489 -19 487 -112H456Q456 -76 455.0 -42.0Q454 -8 452.5 33.5Q451 75 448 131Q318 130 237.0 118.0Q156 106 100 83Q109 134 103 184L100 183L101 192L100 201L103 200Q111 242 103 284L100 283L101 292L100 301L103 300Q111 342 103 384L100 383L101 392L100 401L103 400Q111 442 103 484L100 483L101 492L100 501L103 500Q109 550 100 601Q196 561 412 555Q411 563 409.0 585.5Q407 608 403.0 636.0Q399 664 392 687Q412 680 443.0 679.5Q474 679 502 681L495 683Q524 709 547.5 746.5Q571 784 584 815Q591 806 635.0 770.5Q679 735 752.5 679.5Q826 624 921 554Q914 643 907.5 697.5Q901 752 894 777Q934 768 974.0 769.5Q1014 771 1053 777Q1046 752 1037.5 673.5Q1029 595 1020 482L1151 388L1288 467Q1249 517 1214.0 554.5Q1179 592 1155 608Q1176 617 1190.5 626.5Q1205 636 1223 653Q1217 658 1211.5 662.0Q1206 666 1201 670Q1234 684 1258 705L1254 708L1268 714L1279 725L1280 720Q1288 725 1296.0 731.0Q1304 737 1313 744L1311 746L1317 749L1332 763L1333 756Q1342 761 1350.5 767.0Q1359 773 1368 781L1362 785L1382 794L1389 801V798Q1402 806 1413.5 815.5Q1425 825 1440 840Q1443 828 1449 809Q1466 818 1479.5 828.5Q1493 839 1512 858Q1518 827 1544.5 772.5Q1571 718 1608 656Q1639 675 1668.5 693.5Q1698 712 1728 731L1744 705Q1756 715 1769.5 727.0Q1783 739 1799 753L1815 744Q1793 709 1777.5 679.0Q1762 649 1745 620Q1761 592 1776.0 562.0Q1791 532 1813 499L1831 520L1847 510Q1813 425 1801.5 368.5Q1790 312 1785 267Q1823 263 1864.5 265.0Q1906 267 1942 274Q1926 234 1897.5 160.5Q1869 87 1855 -25H1913V-56H1852Q1850 -78 1849.0 -101.5Q1848 -125 1848 -151ZM1548 620 1584 641Q1550 685 1518.0 722.0Q1486 759 1460 782Q1491 713 1548 620ZM1493 587 1525 606Q1494 647 1464.0 683.0Q1434 719 1408 745Q1438 676 1493 587ZM1434 552 1469 573Q1436 616 1405.0 653.0Q1374 690 1348 715Q1362 682 1384.0 640.0Q1406 598 1434 552ZM1813 -24Q1801 86 1774.5 157.0Q1748 228 1728 269Q1700 288 1669.5 303.0Q1639 318 1610 331Q1636 348 1664.5 367.0Q1693 386 1726.0 413.5Q1759 441 1798 483Q1756 522 1730.5 545.5Q1705 569 1685.0 585.5Q1665 602 1638 620Q1658 637 1682.0 655.0Q1706 673 1743 704Q1714 686 1684.5 667.0Q1655 648 1625 629Q1646 595 1668.0 562.0Q1690 529 1712 497L1697 486Q1675 518 1651.0 551.0Q1627 584 1604 615L1565 591Q1583 563 1602.0 534.5Q1621 506 1640 479L1625 468Q1606 496 1586.0 523.5Q1566 551 1546 578L1512 556Q1530 527 1550.0 497.5Q1570 468 1589 440L1574 429Q1554 458 1533.5 486.5Q1513 515 1492 543L1454 519Q1473 489 1492.5 459.5Q1512 430 1532 402L1517 391L1434 506L1400 483Q1419 453 1439.0 423.0Q1459 393 1479 364L1464 353Q1444 382 1422.5 412.0Q1401 442 1380 470L1340 444Q1385 369 1433 302L1418 291Q1394 326 1369.0 361.0Q1344 396 1318 429L1202 352Q1333 259 1472.5 162.5Q1612 66 1746 -23ZM1378 519 1410 538Q1379 578 1350.5 612.0Q1322 646 1297 671Q1311 640 1332.0 600.5Q1353 561 1378 519ZM1316 483 1353 505Q1322 545 1293.5 579.0Q1265 613 1240 637Q1262 575 1316 483ZM423 453 415 529Q221 523 124 492Q175 475 247.5 465.0Q320 455 423 453ZM432 353Q431 373 429.0 392.0Q427 411 425 430Q321 428 248.0 418.5Q175 409 124 392Q176 375 250.5 365.0Q325 355 432 353ZM1008 309 1088 353 1014 397ZM440 253 434 330Q326 328 251.5 318.5Q177 309 124 292Q177 274 252.0 264.5Q327 255 440 253ZM1688 -22Q1556 64 1418.0 151.0Q1280 238 1149 317L1002 217L992 23Q1099 10 1276.0 -3.5Q1453 -17 1688 -22ZM446 153Q445 173 444.0 192.5Q443 212 441 231Q326 230 251.0 220.0Q176 210 123 192Q177 173 253.5 164.0Q330 155 446 153Z" />
  </g>
</svg>