<svg xmlns="http://www.w3.org/2000/svg" viewBox="100 -324 1245 1272">
  <g transform="translate(0, 624) scale(1, -1)">
    <path fill="black" d="M1262 -324Q1262 -317 1261.5 -308.0Q1261 -299 1261 -292Q1260 -283 1260.0 -276.0Q1260 -269 1259 -260Q1174 -261 1088.5 -262.0Q1003 -263 917 -267Q863 -269 809.0 -272.5Q755 -276 701 -281V-297H680V-283Q670 -284 660.0 -284.5Q650 -285 640 -287Q631 -288 621.5 -290.5Q612 -293 603 -295Q605 -281 607.0 -267.0Q609 -253 609 -239Q609 -226 607.0 -213.5Q605 -201 603 -188Q612 -191 621.0 -192.5Q630 -194 639 -196L678 -202Q677 -190 677.0 -177.0Q677 -164 676 -152Q675 -138 674.5 -125.0Q674 -112 673 -99Q645 -119 617.0 -137.5Q589 -156 560 -177Q526 -202 492.0 -226.5Q458 -251 424 -280Q414 -256 400 -232Q393 -219 385.5 -210.0Q378 -201 367 -189Q409 -172 451.0 -150.5Q493 -129 535 -109Q569 -92 602.0 -73.0Q635 -54 669 -37L661 80Q624 101 587.0 122.5Q550 144 513 165Q485 181 457.0 195.5Q429 210 401 225Q394 173 388.0 120.5Q382 68 378 15Q372 -63 368.0 -141.0Q364 -219 362 -297H341L335 -133Q304 -134 272.0 -135.0Q240 -136 208 -140Q180 -143 154.0 -148.5Q128 -154 100 -166Q102 -156 103.0 -147.0Q104 -138 104 -128Q104 -120 104.0 -112.0Q104 -104 102 -97L100 -98L101 -92L100 -86H102Q103 -80 103.5 -73.5Q104 -67 104 -61Q104 -53 103.5 -45.0Q103 -37 102 -30Q100 -30 100 -31L101 -24L100 -18L102 -19Q103 -11 103.5 -3.5Q104 4 104 11Q104 18 103.5 24.0Q103 30 102 37H100L101 43L100 49L102 48Q103 56 103.5 63.0Q104 70 104 77Q104 84 103.5 91.0Q103 98 102 105H100L101 111L100 117Q100 117 100 117Q100 116 102 116Q103 125 103.5 132.5Q104 140 104 149Q104 157 102.5 167.0Q101 177 100 184Q126 174 151.5 169.5Q177 165 202 161Q229 157 256.5 155.5Q284 154 311 153Q310 164 308.0 177.0Q306 190 304 201Q301 223 297 242Q317 237 334 237Q344 237 353.0 237.0Q362 237 372 238L367 240Q378 251 385.5 260.0Q393 269 400 279Q406 288 411.5 298.0Q417 308 421 317Q417 327 410.0 339.5Q403 352 397 362Q385 381 367 401Q407 415 446.5 435.5Q486 456 526 476Q562 494 598.5 514.0Q635 534 669 552Q668 568 667.0 584.0Q666 600 665 616Q664 630 663.0 643.5Q662 657 661 670Q627 690 592.5 710.0Q558 730 523 749Q492 766 462.0 782.5Q432 799 401 815L400 813Q394 757 387.5 701.0Q381 645 377 589Q372 515 367.5 441.0Q363 367 362 293H341Q340 313 340.0 333.0Q340 353 339 372Q338 393 337.0 414.5Q336 436 335 457Q305 456 274.0 455.0Q243 454 213 450Q184 446 156.5 440.5Q129 435 100 424Q102 434 103.0 443.0Q104 452 104 462Q104 470 104.0 477.5Q104 485 102 492H100L101 498L100 504L102 503Q103 511 103.5 519.0Q104 527 104 534Q104 541 103.5 547.0Q103 553 102 560L100 559L101 565L100 572L102 571Q103 578 103.5 585.0Q104 592 104 599Q104 606 103.5 613.0Q103 620 102 627H100L101 633L100 639L102 638Q103 646 103.5 654.0Q104 662 104 669Q104 676 103.5 682.0Q103 688 102 695H100L101 701L100 707L102 706Q103 715 103.5 721.5Q104 728 104 737Q104 745 103.0 755.5Q102 766 100 774Q117 767 145.0 760.5Q173 754 198 751Q227 747 255.0 746.0Q283 745 311 743Q310 753 309.0 763.5Q308 774 306 784Q305 795 302.0 808.0Q299 821 297 832Q308 829 318.5 828.0Q329 827 339 827Q347 827 355.5 827.0Q364 827 372 828L367 830Q387 849 403 874Q410 885 416.0 897.0Q422 909 427 919Q450 897 482.5 872.0Q515 847 544 824Q572 802 599.5 783.0Q627 764 655 742Q653 760 651.5 778.5Q650 797 648 815Q646 835 643.5 854.5Q641 874 637 893Q651 890 664.5 889.0Q678 888 691 888Q705 888 718.0 889.5Q731 891 744 893Q738 865 735.0 837.0Q732 809 729 780Q727 758 725.5 737.0Q724 716 722 694Q733 686 745.0 677.0Q757 668 768 660L810 630L903 683Q894 694 882.5 708.5Q871 723 860 734Q848 747 836.5 758.5Q825 770 813 779Q818 781 826.0 785.0Q834 789 839 793Q845 797 849.5 801.0Q854 805 859 809L844 821Q849 823 855.5 826.5Q862 830 867 833Q872 836 875.5 839.0Q879 842 883 845L880 847L890 851L897 858V855Q900 857 903.0 859.0Q906 861 909 863Q912 865 914.0 867.0Q916 869 919 871L918 872L920 873L932 884L933 879Q940 883 946 887Q949 889 951.5 891.5Q954 894 957 896L953 899L968 906L971 909V908Q980 914 988 920Q993 924 997.0 928.0Q1001 932 1005 936L1008 924L1011 915Q1016 918 1022.0 922.0Q1028 926 1034 930Q1039 934 1044.0 938.5Q1049 943 1054 948Q1058 930 1067.0 911.5Q1076 893 1084 875Q1092 859 1101.0 843.0Q1110 827 1119 811L1200 862L1211 845L1130 793Q1137 782 1143.5 772.0Q1150 762 1157 751Q1165 739 1173.5 727.0Q1182 715 1189 704L1179 697Q1171 708 1163.0 719.5Q1155 731 1147 742Q1140 753 1132.0 763.5Q1124 774 1116 784L1090 768Q1096 758 1102.0 748.5Q1108 739 1115 729Q1121 720 1127.5 710.5Q1134 701 1141 692L1130 684Q1123 694 1116.0 704.0Q1109 714 1102 724Q1095 733 1089.0 741.5Q1083 750 1076 759L1054 744Q1060 734 1066.0 724.5Q1072 715 1079 705L1106 666L1096 658Q1089 668 1082.0 677.5Q1075 687 1068 697Q1061 707 1054.0 716.0Q1047 725 1040 735L1015 719Q1021 710 1027.0 700.5Q1033 691 1039 682Q1047 671 1054.0 661.0Q1061 651 1068 640L1057 632Q1050 642 1042.5 652.5Q1035 663 1028 673Q1021 683 1014.5 691.5Q1008 700 1001 710L978 695Q984 685 990.5 675.0Q997 665 1004 655Q1011 645 1018.0 635.0Q1025 625 1032 614L1022 607Q1015 617 1008.5 626.5Q1002 636 995 645Q988 656 980.5 666.0Q973 676 965 686L938 668Q946 655 953.0 644.0Q960 633 967 622Q975 609 984.0 596.0Q993 583 1001 572L991 565Q982 578 973.5 590.0Q965 602 956 614Q948 625 939.5 636.0Q931 647 923 658L887 634Q877 627 866.0 620.0Q855 613 844 606Q882 579 920.5 552.0Q959 525 997 499Q1051 462 1104.5 426.0Q1158 390 1213 352L1257 351Q1254 375 1250.0 399.5Q1246 424 1239 448Q1224 499 1200 550Q1193 555 1186.0 559.0Q1179 563 1171 567Q1158 574 1145.5 580.0Q1133 586 1120 592Q1137 603 1157.0 616.5Q1177 630 1193 643Q1209 656 1222.5 669.0Q1236 682 1248 695Q1235 707 1221.0 720.5Q1207 734 1193 745Q1180 756 1167.5 766.5Q1155 777 1139 787Q1151 797 1165.0 807.5Q1179 818 1191 828Q1206 841 1220.0 852.5Q1234 864 1248 877L1259 871Q1252 858 1244.5 846.0Q1237 834 1230 821Q1226 813 1221.5 804.0Q1217 795 1212 787Q1217 777 1222.5 767.0Q1228 757 1233 747Q1239 737 1244.5 727.0Q1250 717 1257 706L1270 720L1280 713Q1271 690 1263.5 668.0Q1256 646 1250 623Q1246 605 1243.0 585.5Q1240 566 1238 548Q1249 547 1261.0 546.5Q1273 546 1283 546Q1300 546 1314.5 548.0Q1329 550 1345 553Q1334 528 1324.0 502.5Q1314 477 1306 451Q1299 426 1294.0 401.0Q1289 376 1286 351H1325V330H1284Q1283 323 1282.5 316.0Q1282 309 1282 302Q1282 293 1281.5 284.0Q1281 275 1281 266H1262Q1262 275 1262.0 284.0Q1262 293 1261 302Q1260 310 1260.0 316.5Q1260 323 1259 330L1064 327Q1069 317 1075.0 304.5Q1081 292 1086 281Q1103 250 1119 221L1200 272L1211 255Q1200 248 1188.0 241.0Q1176 234 1165 226Q1156 220 1147.5 214.5Q1139 209 1130 203Q1138 191 1145.0 179.0Q1152 167 1160 156Q1168 146 1175.0 135.5Q1182 125 1189 114L1179 107L1149 149L1116 194L1090 178Q1096 168 1102.0 158.0Q1108 148 1115 139Q1122 130 1128.0 120.5Q1134 111 1141 102L1130 94Q1123 103 1117.0 112.5Q1111 122 1104 131Q1097 140 1090.0 149.5Q1083 159 1076 169L1054 154L1081 112Q1087 103 1093.5 94.0Q1100 85 1106 76L1096 68Q1089 78 1082.0 87.5Q1075 97 1068 107Q1061 117 1054.0 126.0Q1047 135 1040 145L1015 129Q1022 119 1028.0 109.0Q1034 99 1041 89Q1048 79 1054.5 69.5Q1061 60 1068 50L1057 42Q1050 52 1043.5 61.5Q1037 71 1030 80Q1023 91 1016.0 100.5Q1009 110 1001 120L978 105L1005 63L1032 24L1022 17Q1015 26 1008.5 36.0Q1002 46 995 55Q988 66 980.5 76.0Q973 86 965 96L938 78Q953 53 968 30Q976 17 984.5 5.5Q993 -6 1001 -18L991 -25Q982 -13 973.5 -0.5Q965 12 956 24Q948 35 939.5 46.0Q931 57 923 68L844 16Q886 -13 927.0 -42.0Q968 -71 1010 -100Q1060 -134 1111.5 -168.5Q1163 -203 1213 -238H1257Q1254 -215 1250.5 -191.5Q1247 -168 1240 -145Q1233 -119 1223.5 -92.5Q1214 -66 1200 -40Q1190 -34 1181.0 -28.0Q1172 -22 1162 -17Q1152 -12 1141.5 -7.0Q1131 -2 1120 2Q1140 16 1161.0 29.5Q1182 43 1200 59Q1212 70 1225.0 82.0Q1238 94 1248 105Q1235 116 1223.0 127.5Q1211 139 1198 150Q1183 164 1168.5 175.5Q1154 187 1139 197Q1150 206 1162.5 215.5Q1175 225 1186 234Q1203 248 1218.0 261.0Q1233 274 1248 287L1259 281Q1253 271 1246.0 260.5Q1239 250 1234 239Q1229 229 1223.0 218.5Q1217 208 1212 197Q1217 187 1222.0 176.5Q1227 166 1233 156Q1239 146 1245.0 136.0Q1251 126 1257 116L1270 130L1280 123Q1272 101 1264.5 81.0Q1257 61 1252 39Q1247 20 1243.5 -1.0Q1240 -22 1238 -41Q1248 -42 1259.0 -42.5Q1270 -43 1280 -43Q1312 -43 1345 -37Q1332 -64 1322.0 -91.5Q1312 -119 1304 -146Q1297 -169 1293.0 -192.5Q1289 -216 1286 -239H1325V-260H1284Q1283 -269 1283.0 -275.0Q1283 -281 1282 -290Q1282 -297 1281.5 -307.0Q1281 -317 1281 -324ZM1078 787 1102 801Q1092 814 1082.0 826.5Q1072 839 1061 852Q1051 863 1039.5 875.5Q1028 888 1018 897Q1030 871 1044 845Q1052 831 1060.5 816.0Q1069 801 1078 787ZM1041 764 1063 777Q1054 789 1044.5 801.5Q1035 814 1024 826Q1014 837 1004.0 849.0Q994 861 983 872Q988 859 995.0 846.0Q1002 833 1009 820Q1017 806 1025.0 792.0Q1033 778 1041 764ZM1001 741 1025 755Q1016 766 1007.5 777.5Q999 789 989 800Q978 814 967.0 826.0Q956 838 943 851Q949 836 956.5 822.0Q964 808 971 793Q978 780 986.0 766.5Q994 753 1001 741ZM964 718 985 731Q976 743 967.0 755.0Q958 767 948 778Q938 789 928.5 800.0Q919 811 909 821Q921 794 936 767Q943 755 950.0 742.0Q957 729 964 718ZM922 694 947 709Q938 720 928.5 732.5Q919 745 910 755Q891 778 871 797Q876 783 882.5 769.5Q889 756 896 742Q902 730 908.5 718.0Q915 706 922 694ZM318 674 313 726Q285 725 258.0 723.5Q231 722 203 718Q181 715 159.5 711.0Q138 707 116 700Q141 692 165.5 687.5Q190 683 215 680Q241 677 267.0 676.0Q293 675 318 674ZM324 607 320 658Q294 657 267.0 656.0Q240 655 214 652Q190 649 165.5 645.0Q141 641 117 633Q143 624 168.0 620.0Q193 616 218 613Q244 610 271.0 609.0Q298 608 324 607ZM713 576 768 607 718 637ZM330 539 326 591Q300 590 273.0 589.0Q246 588 220 585Q195 582 169.0 578.0Q143 574 117 565Q143 557 168.0 553.0Q193 549 218 545Q246 541 274.0 540.5Q302 540 330 539ZM1173 352Q1124 385 1074.5 417.0Q1025 449 975 480Q934 506 892.0 531.5Q850 557 809 582Q796 573 783.5 565.0Q771 557 758 548Q746 540 734.0 531.5Q722 523 710 515L703 384Q741 380 779.0 375.5Q817 371 854 368Q953 361 1052 356L1054 358V356ZM334 472 331 524Q303 523 275.0 522.0Q247 521 219 518Q194 515 168.5 510.5Q143 506 117 498Q142 490 167.0 485.5Q192 481 217 478Q246 474 275.5 473.5Q305 473 334 472ZM655 152Q654 168 652.5 186.0Q651 204 649 220Q647 241 644.5 260.5Q642 280 637 301Q625 300 616 298Q612 297 608.5 296.5Q605 296 603 295Q605 309 607.0 322.5Q609 336 609 349Q609 363 607.5 377.0Q606 391 603 402Q613 398 621.0 396.5Q629 395 640 393Q649 392 659.0 390.5Q669 389 678 387Q677 398 677.0 410.0Q677 422 676 433Q675 447 674.5 461.5Q674 476 673 490Q645 471 618.0 452.5Q591 434 563 414Q496 367 435 320Q462 298 489.0 277.0Q516 256 543 235Q571 214 599.0 193.5Q627 173 655 152ZM810 40 903 93Q894 104 884.0 117.0Q874 130 863 141Q851 154 840.0 165.0Q829 176 813 189Q819 192 825.0 195.0Q831 198 837 202Q842 206 848.0 210.0Q854 214 859 219L844 231Q849 233 855.0 236.0Q861 239 866 242Q871 245 875.5 248.5Q880 252 883 255L880 257L890 261L897 268V265Q906 271 910 274Q913 276 915.0 278.0Q917 280 919 281L918 282L920 283L932 294L933 289Q937 291 940.0 293.0Q943 295 946 297Q949 299 952.0 301.5Q955 304 957 306L953 309Q958 311 961.5 313.0Q965 315 968 316L971 319V318L981 324Q940 323 897.5 320.5Q855 318 814 316Q786 315 758.0 312.5Q730 310 701 308V298Q706 298 711.5 298.5Q717 299 722 300Q727 301 733.0 301.5Q739 302 744 303Q738 278 735.0 252.0Q732 226 730 200Q728 176 726.0 152.0Q724 128 722 104ZM1078 197 1102 211Q1092 223 1081.5 237.0Q1071 251 1060 263Q1050 275 1039.5 286.0Q1029 297 1018 307Q1025 294 1031.5 280.5Q1038 267 1045 253Q1053 239 1061.0 225.0Q1069 211 1078 197ZM680 298V306L641 302Q645 301 649.0 300.5Q653 300 657 299Q663 298 668.5 298.0Q674 298 680 298ZM1041 174 1063 187Q1053 200 1044.0 212.0Q1035 224 1024 236Q1014 248 1004.0 260.0Q994 272 983 282Q989 268 996.5 254.0Q1004 240 1011 226Q1018 213 1026.0 199.5Q1034 186 1041 174ZM1001 151 1025 165Q1015 177 1005.5 190.0Q996 203 986 214Q976 227 965.0 239.0Q954 251 943 261Q949 246 956.5 231.0Q964 216 972 201Q979 188 986.5 176.0Q994 164 1001 151ZM964 128 985 141Q976 153 967.0 165.0Q958 177 948 188Q938 199 928.5 210.0Q919 221 909 231Q915 218 921.5 205.0Q928 192 935 178Q942 165 949.5 152.5Q957 140 964 128ZM922 104 947 119Q928 145 908 167Q890 188 871 207Q876 194 881.5 181.5Q887 169 894 156Q901 143 908.0 130.0Q915 117 922 104ZM318 84 313 136Q286 135 258.5 133.5Q231 132 204 128Q182 125 160.0 121.0Q138 117 116 110Q138 103 159.5 98.5Q181 94 203 91Q232 87 261.0 86.0Q290 85 318 84ZM324 17 320 68Q292 67 263.5 66.0Q235 65 206 61Q184 58 162.0 54.5Q140 51 117 43Q140 35 163.5 31.0Q187 27 210 24Q239 20 267.5 19.0Q296 18 324 17ZM713 -13 768 17 718 47ZM330 -51 326 1Q298 -3 269.5 -6.0Q241 -9 212 -13Q188 -16 164.5 -18.5Q141 -21 117 -24Q140 -32 163.0 -36.5Q186 -41 209 -44Q239 -48 269.5 -49.0Q300 -50 330 -51ZM1173 -237Q1130 -209 1086.5 -181.0Q1043 -153 999 -125Q953 -96 904.5 -66.0Q856 -36 809 -7L710 -74L703 -206Q756 -212 809.0 -217.0Q862 -222 915 -226Q980 -230 1044.5 -232.5Q1109 -235 1173 -237ZM334 -118 331 -74V-66Q302 -67 272.0 -67.5Q242 -68 213 -72Q189 -75 165.0 -79.5Q141 -84 117 -92Q141 -100 165.0 -104.0Q189 -108 213 -111Q243 -115 273.5 -116.0Q304 -117 334 -118Z" />
  </g>
</svg>