<svg xmlns="http://www.w3.org/2000/svg" viewBox="100 -174 1213 941">
  <g transform="translate(0, 593) scale(1, -1)">
    <path fill="black" d="M170 -174Q163 -115 146.0 -64.0Q129 -13 100 30Q132 32 171.5 37.5Q211 43 257 52Q253 122 247.0 194.0Q241 266 233.5 330.5Q226 395 218.0 443.0Q210 491 201 514Q224 510 246.0 508.0Q268 506 288 506Q309 506 329.5 508.0Q350 510 371 514Q360 487 351.0 439.0Q342 391 335.0 329.5Q328 268 321.5 199.5Q315 131 310 63Q423 87 564.5 123.5Q706 160 868.0 205.5Q1030 251 1204 299Q1026 347 859.0 392.0Q692 437 547.0 474.0Q402 511 288.0 534.5Q174 558 100 563Q129 607 146.0 658.0Q163 709 170 767Q213 738 299.0 697.5Q385 657 501.0 609.5Q617 562 752.5 509.5Q888 457 1031.0 403.0Q1174 349 1313 297L1311 296H1313Q1174 244 1030.0 190.0Q886 136 750.0 83.5Q614 31 497.5 -17.0Q381 -65 297 -105L291 -173H269L266 -120Q236 -135 211.5 -148.5Q187 -162 170 -174Z" />
  </g>
</svg>