<svg xmlns="http://www.w3.org/2000/svg" viewBox="100 -328 1304 1315">
  <g transform="translate(0, 659) scale(1, -1)">
    <path fill="black" d="M736 -328 729 -317Q754 -293 793.5 -258.0Q833 -223 878 -185Q856 -166 828.0 -143.0Q800 -120 770 -94Q712 -166 669.5 -225.0Q627 -284 613 -317Q585 -275 545 -234L582 -280L573 -289Q543 -266 501.0 -232.5Q459 -199 413.0 -162.5Q367 -126 324.5 -93.0Q282 -60 249.5 -36.5Q217 -13 203 -7Q219 4 234.5 16.5Q250 29 264 43Q236 76 201.5 108.0Q167 140 129 167Q154 178 203.0 211.5Q252 245 314 294Q245 350 188.5 391.0Q132 432 100 445Q120 459 141.5 476.0Q163 493 183 513L137 476L128 485Q151 515 184.5 557.0Q218 599 254.5 645.0Q291 691 324.0 733.5Q357 776 380.5 808.5Q404 841 410 855Q421 839 433.5 823.5Q446 808 460 794Q493 821 525.0 855.5Q557 890 584 929Q593 908 619.0 869.0Q645 830 683.0 779.5Q721 729 767 672Q802 703 832.5 729.5Q863 756 887 778Q841 801 798.5 820.5Q756 840 724.5 853.5Q693 867 680 869Q703 894 722.5 922.5Q742 951 754 987Q762 976 786.5 953.0Q811 930 846.5 899.5Q882 869 922.5 836.0Q963 803 1002.0 771.5Q1041 740 1073 714Q1093 725 1111.5 740.0Q1130 755 1146 774Q1149 762 1163.5 731.0Q1178 700 1200.5 657.5Q1223 615 1249.0 567.0Q1275 519 1301.0 472.0Q1327 425 1349.5 385.0Q1372 345 1386 319L1378 314Q1384 311 1390.5 308.5Q1397 306 1404 304Q1393 297 1370.0 272.0Q1347 247 1316.5 211.5Q1286 176 1253.0 135.5Q1220 95 1188.5 56.0Q1157 17 1131 -15Q1142 -34 1157.0 -52.5Q1172 -71 1191 -88Q1179 -91 1148.0 -105.5Q1117 -120 1074.5 -142.5Q1032 -165 984.0 -191.0Q936 -217 889.0 -243.0Q842 -269 802.0 -291.5Q762 -314 736 -328ZM1054 330Q1105 375 1149.0 414.0Q1193 453 1225 482Q1184 531 1144.5 576.0Q1105 621 1075.5 653.0Q1046 685 1033 693L1047 700L906 769L910 765Q888 738 859.5 704.5Q831 671 799 633Q802 629 805.0 625.0Q808 621 812 617Q835 645 850.0 665.5Q865 686 869 693Q889 665 912.0 640.0Q935 615 967 595Q959 591 936.5 574.0Q914 557 882 531Q926 479 970.0 428.0Q1014 377 1054 330ZM371 456Q397 475 420.5 497.0Q444 519 463 550Q466 542 483.0 519.5Q500 497 526 465L667 584Q609 631 558.5 669.5Q508 708 469 733Q435 709 383.0 669.5Q331 630 278 589Q292 565 316.0 531.5Q340 498 371 456ZM603 373 736 527Q728 535 719 541L589 389ZM815 127Q865 168 914.5 210.5Q964 253 1011 293Q963 334 911.0 379.0Q859 424 806 468Q728 402 642 327ZM1195 171Q1218 218 1237.5 260.0Q1257 302 1270.5 333.5Q1284 365 1286 378Q1304 361 1324.5 345.5Q1345 330 1369 318Q1345 344 1312.0 381.5Q1279 419 1243 461Q1215 426 1176.0 381.0Q1137 336 1093 285Q1122 252 1148.0 223.0Q1174 194 1195 171ZM428 384 441 395Q423 409 409.0 421.0Q395 433 384 440Q395 427 405.5 412.5Q416 398 428 384ZM517 275 544 307 530 319Q524 312 518.0 304.5Q512 297 505 289ZM713 43Q730 57 747.5 71.0Q765 85 783 100Q737 140 684.5 186.0Q632 232 582 275Q572 266 562.5 258.0Q553 250 544 242Q586 192 629.0 141.0Q672 90 713 43ZM899 -167Q948 -126 993.0 -86.5Q1038 -47 1070.0 -17.0Q1102 13 1110 25Q1112 21 1113.5 17.5Q1115 14 1117 11L1186 152L1182 148Q1157 168 1127.0 193.5Q1097 219 1062 249Q1019 200 974.5 148.0Q930 96 886 45Q900 29 910.5 16.0Q921 3 928 -5L919 -14Q910 -7 897.5 2.5Q885 12 870 25Q852 5 835.0 -16.0Q818 -37 801 -57Q830 -89 854.5 -117.0Q879 -145 899 -167ZM469 -139Q501 -121 550.5 -84.5Q600 -48 661 0Q613 42 562.5 85.5Q512 129 462 172L412 130L403 139Q410 148 420.0 160.5Q430 173 443 188Q440 190 437.0 192.5Q434 195 431 198Q398 156 370.5 119.0Q343 82 324 52Q348 18 387.5 -34.0Q427 -86 469 -139Z" />
  </g>
</svg>