<svg xmlns="http://www.w3.org/2000/svg" viewBox="100 -279 1274 1103">
  <g transform="translate(0, 545) scale(1, -1)">
    <path fill="black" d="M1070 -279Q961 -203 852.5 -144.5Q744 -86 648.5 -47.5Q553 -9 483 7Q518 42 552.5 89.5Q587 137 612 190Q518 250 423.5 298.5Q329 347 245.5 380.0Q162 413 100 427Q138 463 173.5 513.5Q209 564 235 619Q264 574 322.0 507.5Q380 441 460.0 366.0Q540 291 633 219Q667 253 699.5 299.0Q732 345 757 395Q663 455 568.0 503.5Q473 552 389.5 585.0Q306 618 244 632Q281 668 316.5 718.5Q352 769 378 824Q407 779 465.0 712.5Q523 646 603.0 571.0Q683 496 776 424Q811 459 845.0 507.5Q879 556 904 609Q928 571 974.0 517.5Q1020 464 1082.0 402.0Q1144 340 1218.5 276.5Q1293 213 1374 156L1356 131Q1258 200 1155.0 256.0Q1052 312 958.0 352.0Q864 392 793 411Q818 391 848 371L831 346Q817 356 802.5 365.5Q788 375 774 384Q802 344 848.5 291.5Q895 239 955 180Q965 195 973.5 211.5Q982 228 990 244Q1002 218 1024.5 181.0Q1047 144 1078.0 102.5Q1109 61 1147.5 21.5Q1186 -18 1231 -49L1213 -74Q1168 -43 1117.5 -20.0Q1067 3 1017.0 18.5Q967 34 925.0 42.0Q883 50 856 51Q868 63 880.5 77.0Q893 91 905 107Q832 142 767.5 167.0Q703 192 650 206Q675 186 705 166L687 141L631 178Q660 138 706.0 85.5Q752 33 812.5 -25.5Q873 -84 943.0 -142.5Q1013 -201 1088 -254Z" />
  </g>
</svg>