<svg xmlns="http://www.w3.org/2000/svg" viewBox="100 -247 1037 1087">
  <g transform="translate(0, 593) scale(1, -1)">
    <path fill="black" d="M463 -247Q429 -197 385.0 -154.0Q341 -111 299 -81Q337 -64 410.5 -11.0Q484 42 575 115Q545 141 515.0 165.5Q485 190 455 215Q383 125 331.5 54.5Q280 -16 266 -48Q231 2 187.0 44.5Q143 87 100 116Q135 131 203.5 180.0Q272 229 357 296Q272 364 203.5 413.0Q135 462 100 477Q143 506 187.0 549.0Q231 592 266 641Q275 620 301.5 580.5Q328 541 367.5 489.0Q407 437 455 377Q485 402 515.0 427.5Q545 453 575 478Q484 551 410.5 604.5Q337 658 299 674Q341 704 385.0 747.0Q429 790 463 840Q473 818 501.5 776.0Q530 734 572.5 678.0Q615 622 667 558Q743 626 809.0 686.5Q875 747 918 790L941 769Q896 724 834.0 656.5Q772 589 704 512Q739 471 774.5 428.5Q810 386 846 344Q929 416 1000.0 481.5Q1071 547 1117 593L1137 571Q1090 523 1024.0 451.0Q958 379 887 296Q958 214 1024.0 141.5Q1090 69 1137 22L1117 0Q1071 46 1000.0 111.5Q929 177 846 249Q810 207 774.5 164.5Q739 122 704 81Q772 4 834.0 -63.5Q896 -131 941 -176L918 -197Q875 -153 809.0 -93.0Q743 -33 667 34Q615 -29 572.5 -85.0Q530 -141 501.5 -183.0Q473 -225 463 -247ZM633 163Q672 195 712.5 228.5Q753 262 792 296Q753 331 712.5 364.5Q672 398 633 430L521 296Q549 263 577.0 229.5Q605 196 633 163Z" />
  </g>
</svg>