<svg xmlns="http://www.w3.org/2000/svg" viewBox="100 -393 1307 1344">
  <g transform="translate(0, 558) scale(1, -1)">
    <path fill="black" d="M339 -393Q316 -360 287.5 -332.0Q259 -304 230 -285Q255 -274 303.5 -238.5Q352 -203 412 -155Q393 -138 373.0 -121.5Q353 -105 333 -89Q286 -148 251.5 -195.0Q217 -242 209 -263Q185 -230 157.0 -202.0Q129 -174 100 -154Q123 -144 168.0 -112.0Q213 -80 268 -36Q213 8 168.0 40.0Q123 72 100 82Q159 122 209 191Q217 170 251.5 122.5Q286 75 333 16L412 83Q353 131 304.0 166.5Q255 202 230 212Q269 239 305 279Q268 319 230 345Q255 356 303.5 391.0Q352 426 412 474Q393 491 373.0 508.0Q353 525 333 541Q286 482 251.5 435.0Q217 388 209 367Q185 400 157.0 428.0Q129 456 100 476Q123 486 168.0 518.0Q213 550 268 594Q213 638 168.0 670.0Q123 702 100 712Q159 752 209 821Q217 800 251.5 752.5Q286 705 333 646L412 713Q353 761 304.0 796.5Q255 832 230 842Q259 862 287.5 890.0Q316 918 339 951Q348 929 384.5 878.5Q421 828 472 765Q522 809 566.0 849.5Q610 890 638 918L652 905Q622 875 581.5 830.5Q541 786 496 735Q519 708 542.5 680.5Q566 653 590 625Q644 672 690.5 715.5Q737 759 768 789L781 775Q750 744 706.5 696.0Q663 648 616 594Q663 539 706.5 492.0Q750 445 781 413L768 399Q737 429 690.5 472.5Q644 516 590 563Q566 535 542.5 507.0Q519 479 497 452Q541 401 582.0 357.0Q623 313 652 284L647 279L652 275Q622 245 581.5 200.5Q541 156 496 105Q519 78 542.5 50.5Q566 23 590 -5Q644 42 690.5 85.5Q737 129 768 159L781 145Q750 114 706.5 66.0Q663 18 616 -36Q663 -90 706.5 -137.5Q750 -185 781 -217L768 -231Q737 -201 690.5 -157.5Q644 -114 590 -67Q566 -95 542.5 -122.5Q519 -150 497 -178Q541 -228 582.0 -272.5Q623 -317 652 -346L638 -360Q610 -331 566.0 -291.5Q522 -252 472 -208Q421 -271 384.5 -321.0Q348 -371 339 -393ZM808 -336Q814 -304 814 -273Q814 -243 808 -209L833 -216Q829 -181 824.5 -133.0Q820 -85 815.0 -34.0Q810 17 805.5 63.5Q801 110 797.0 142.0Q793 174 789 183Q816 178 844 178Q850 178 856.0 178.0Q862 178 868 179Q874 209 874 241Q874 271 868 305Q849 301 833.5 297.5Q818 294 808 290Q814 322 814 353Q814 383 808 417H832Q828 453 823.5 500.5Q819 548 814.5 598.0Q810 648 805.5 693.0Q801 738 797.0 769.5Q793 801 789 809Q816 804 844 804Q850 804 856.0 804.0Q862 804 868 805Q874 835 874 867Q874 897 868 931Q887 923 932.0 916.0Q977 909 1037.0 903.0Q1097 897 1161.5 892.5Q1226 888 1283 885Q1281 887 1281 890Q1313 884 1343 884Q1373 884 1407 890Q1399 870 1392.0 822.5Q1385 775 1379.0 711.5Q1373 648 1368.5 580.5Q1364 513 1361.0 452.5Q1358 392 1356 351Q1313 347 1249.5 342.0Q1186 337 1116.0 331.5Q1046 326 981.0 319.5Q916 313 869 305Q888 297 933.0 290.0Q978 283 1037.5 277.0Q1097 271 1161.5 266.5Q1226 262 1283 259Q1281 261 1281 264Q1313 258 1343 258Q1373 258 1407 264Q1399 244 1392.0 196.5Q1385 149 1379.0 85.5Q1373 22 1368.5 -45.5Q1364 -113 1361.0 -173.5Q1358 -234 1356 -275Q1314 -279 1253.5 -283.5Q1193 -288 1125.5 -293.0Q1058 -298 994.0 -304.0Q930 -310 880.5 -318.0Q831 -326 808 -336ZM1338 368Q1334 417 1329.5 483.5Q1325 550 1319.0 621.0Q1313 692 1306.0 754.0Q1299 816 1290 856Q1235 852 1172.5 847.0Q1110 842 1050.5 836.0Q991 830 944.0 822.0Q897 814 872 805Q877 806 882.0 807.0Q887 808 892 809Q889 801 884.5 769.5Q880 738 875.0 692.0Q870 646 865.0 595.0Q860 544 855.5 496.0Q851 448 848 413Q871 406 915.0 400.0Q959 394 1014.5 389.0Q1070 384 1129.0 380.0Q1188 376 1242.5 373.0Q1297 370 1338 368ZM1178 449Q1151 475 1118.5 501.0Q1086 527 1055.0 550.5Q1024 574 999 590Q1034 616 1081.5 659.5Q1129 703 1169 746L1183 738Q1164 697 1144.0 659.0Q1124 621 1107 592Q1124 570 1148.0 532.0Q1172 494 1191 459ZM450 506Q476 527 502.5 549.5Q529 572 554 594Q529 617 502.5 638.5Q476 660 450 682L376 594ZM472 135Q519 176 559.5 213.5Q600 251 629 279Q600 307 559.5 344.0Q519 381 472 422Q438 380 410.0 343.0Q382 306 363 279Q382 251 410.0 214.5Q438 178 472 135ZM1338 -258Q1334 -208 1329.5 -141.5Q1325 -75 1319.0 -4.5Q1313 66 1306.0 128.0Q1299 190 1290 230Q1235 226 1172.5 221.0Q1110 216 1050.5 210.0Q991 204 944.0 196.0Q897 188 872 179Q877 180 882.0 181.0Q887 182 892 183Q889 175 884.5 142.5Q880 110 875.0 63.0Q870 16 864.5 -36.5Q859 -89 854.5 -137.0Q850 -185 847 -219Q880 -225 927.5 -230.0Q975 -235 1030.5 -239.5Q1086 -244 1142.5 -247.5Q1199 -251 1250.0 -253.5Q1301 -256 1338 -258ZM1178 -177Q1151 -151 1118.5 -125.0Q1086 -99 1055.0 -75.5Q1024 -52 999 -36Q1034 -10 1081.5 33.5Q1129 77 1169 120L1183 112Q1164 71 1144.0 33.0Q1124 -5 1107 -34Q1124 -56 1148.0 -94.0Q1172 -132 1191 -167ZM450 -124Q476 -102 502.5 -80.0Q529 -58 554 -36Q529 -13 502.5 8.5Q476 30 450 52L376 -36Z" />
  </g>
</svg>