<svg xmlns="http://www.w3.org/2000/svg" viewBox="100 -209 1088 1041">
  <g transform="translate(0, 623) scale(1, -1)">
    <path fill="black" d="M644 -209 628 -194Q597 -164 552.5 -122.5Q508 -81 456.5 -33.5Q405 14 352.5 61.0Q300 108 251.5 149.0Q203 190 163.5 219.5Q124 249 100 261Q133 280 160.0 302.5Q187 325 213 357L205 350L189 365Q220 404 262.5 455.5Q305 507 350.5 562.5Q396 618 436.5 670.5Q477 723 506.0 765.5Q535 808 544 832Q590 773 643 740Q696 772 743 832Q752 808 781.0 765.5Q810 723 850.5 670.5Q891 618 936.5 562.5Q982 507 1024.5 455.5Q1067 404 1098 365L1082 350L1079 352Q1105 322 1131.0 300.5Q1157 279 1188 261Q1164 249 1123.5 218.5Q1083 188 1032.5 145.0Q982 102 927.5 53.0Q873 4 819.5 -44.5Q766 -93 721.0 -136.0Q676 -179 644 -209ZM642 -176Q677 -133 729.0 -72.0Q781 -11 836 54Q778 48 719.5 39.0Q661 30 613.0 19.5Q565 9 535 -3Q541 29 541 69Q541 107 535 140Q562 129 615.0 118.5Q668 108 733.5 99.0Q799 90 862 85Q888 117 913.5 148.0Q939 179 961 208Q903 203 838.5 196.5Q774 190 713.0 182.5Q652 175 605.0 166.5Q558 158 535 149Q541 181 541 221Q541 259 535 292Q555 284 605.0 275.5Q655 267 721.0 260.0Q787 253 856.5 247.0Q926 241 984 237Q1016 278 1039.0 311.0Q1062 344 1069 362L1061 369Q1019 365 960.5 360.0Q902 355 837.5 348.5Q773 342 712.5 334.5Q652 327 605.0 319.0Q558 311 535 302Q541 334 541 374Q541 412 535 445Q553 438 596.5 430.5Q640 423 698.0 416.0Q756 409 819.0 403.0Q882 397 941.0 393.0Q1000 389 1043 387Q1011 417 974.0 450.0Q937 483 899 517Q833 510 761.5 500.5Q690 491 630.0 479.5Q570 468 535 454Q541 486 541 526Q541 564 535 597Q555 589 591.5 580.5Q628 572 675.0 565.0Q722 558 772.5 552.0Q823 546 871 542Q807 598 746.0 646.0Q685 694 643 718Q605 696 551.5 654.0Q498 612 438.0 560.5Q378 509 320.5 457.0Q263 405 218 362Q226 342 253.0 303.5Q280 265 319.0 215.5Q358 166 403.0 111.5Q448 57 492.5 3.5Q537 -50 576.5 -96.5Q616 -143 642 -176Z" />
  </g>
</svg>