<svg xmlns="http://www.w3.org/2000/svg" viewBox="100 -209 1088 1041">
  <g transform="translate(0, 623) scale(1, -1)">
    <path fill="black" d="M644 -209 628 -194Q597 -164 552.5 -122.5Q508 -81 456.5 -33.5Q405 14 352.5 61.0Q300 108 251.5 149.0Q203 190 163.5 219.5Q124 249 100 261Q133 280 160.0 302.5Q187 325 213 357L205 350L189 365Q220 404 262.5 455.5Q305 507 350.5 562.5Q396 618 436.5 670.5Q477 723 506.0 765.5Q535 808 544 832Q590 773 643 740Q696 772 743 832Q752 808 781.0 765.5Q810 723 850.5 670.5Q891 618 936.5 562.5Q982 507 1024.5 455.5Q1067 404 1098 365L1082 350L1079 352Q1105 322 1131.0 300.5Q1157 279 1188 261Q1164 249 1123.5 218.5Q1083 188 1032.5 145.0Q982 102 927.5 53.0Q873 4 819.5 -44.5Q766 -93 721.0 -136.0Q676 -179 644 -209ZM642 -176Q678 -132 732.0 -68.5Q786 -5 842 62Q736 55 659.0 35.5Q582 16 535 -3Q541 29 541 69Q541 107 535 140Q576 123 659.5 108.0Q743 93 861 85Q890 119 917.0 152.0Q944 185 968 216Q942 215 917.5 214.0Q893 213 870 211L908 180L902 171Q885 182 869.0 191.5Q853 201 837 209Q716 199 646.0 182.5Q576 166 535 149Q541 181 541 223Q541 234 540.5 245.5Q540 257 539 267Q487 257 446.0 247.0Q405 237 388 230Q391 249 393.5 267.5Q396 286 396 305Q396 321 394.0 337.0Q392 353 388 369Q405 362 446.0 351.5Q487 341 539 330Q541 341 541.0 352.5Q541 364 541 375Q541 412 535 445Q570 431 642.0 415.5Q714 400 843 392Q857 400 871.5 408.0Q886 416 901 426L907 417L875 390Q912 389 954.5 387.5Q997 386 1044 386Q1011 417 973.0 452.0Q935 487 895 521Q763 517 675.5 496.0Q588 475 535 454Q541 486 541 526Q541 564 535 597Q577 580 663.5 562.0Q750 544 874 539Q809 596 747.0 644.5Q685 693 643 718Q605 696 551.5 654.0Q498 612 438.0 560.5Q378 509 320.5 457.0Q263 405 218 362Q226 342 253.0 303.5Q280 265 319.0 215.5Q358 166 403.0 111.5Q448 57 492.5 3.5Q537 -50 576.5 -96.5Q616 -143 642 -176ZM982 234Q1015 277 1038.5 310.0Q1062 343 1069 362Q1067 364 1065.0 366.0Q1063 368 1061 370Q997 370 943.0 368.0Q889 366 843 363Q803 328 780 300Q791 287 806.0 271.5Q821 256 839 239Q871 238 906.5 236.5Q942 235 982 234ZM756 305Q742 324 722 343Q731 345 741.0 348.0Q751 351 761 355Q704 348 662.5 339.5Q621 331 590 321Q631 314 674.0 310.0Q717 306 756 305ZM755 246 722 257Q731 265 739.0 273.5Q747 282 754 292Q714 291 670.5 286.5Q627 282 585 275Q615 268 656.5 260.0Q698 252 755 246Z" />
  </g>
</svg>