<svg xmlns="http://www.w3.org/2000/svg" viewBox="100 -112 1130 848">
  <g transform="translate(0, 624) scale(1, -1)">
    <path fill="black" d="M1109 -112Q1109 -74 1108.5 -37.5Q1108 -1 1107 33Q1050 32 972.0 29.5Q894 27 806 22Q805 0 805.0 -20.5Q805 -41 805 -61H784V21L653 14Q652 -5 652.0 -24.0Q652 -43 652 -61H631Q631 -43 631.5 -25.0Q632 -7 631 12Q598 11 565.0 8.5Q532 6 500 4Q499 -12 499.0 -28.5Q499 -45 499 -61H478Q478 -45 478.5 -29.0Q479 -13 478 3Q444 1 411.0 -2.0Q378 -5 347 -7Q346 -20 346.0 -34.0Q346 -48 346 -61H325V-8Q234 -15 172.5 -22.0Q111 -29 100 -34Q103 -15 105.5 7.0Q108 29 108 52Q108 90 100 125Q111 121 171.5 114.0Q232 107 321 100Q320 115 319.5 130.0Q319 145 317 161Q229 154 170.0 147.5Q111 141 100 136Q103 155 105.5 177.0Q108 199 108 222Q108 260 100 295Q111 291 166.5 284.5Q222 278 306 271L298 329Q218 322 164.5 316.5Q111 311 100 306Q103 325 105.5 347.0Q108 369 108 392Q108 430 100 465Q110 461 157.5 455.0Q205 449 276 443Q268 475 260 496Q195 490 152.0 485.0Q109 480 100 476Q103 495 105.5 517.0Q108 539 108 562Q108 600 100 635Q109 631 149.5 626.0Q190 621 254.0 615.5Q318 610 398.0 604.0Q478 598 565.5 592.5Q653 587 740.5 582.0Q828 577 908.0 574.0Q988 571 1052 569Q1043 617 1033.5 659.0Q1024 701 1014 736Q1065 724 1119 724Q1173 724 1230 736Q1207 653 1185.0 533.5Q1163 414 1149.0 254.0Q1135 94 1135 -112ZM1079 398Q1075 437 1069.0 473.0Q1063 509 1057 542Q996 541 919.5 537.5Q843 534 759.0 529.5Q675 525 590.5 520.0Q506 515 427.0 509.0Q348 503 283 498Q309 495 335 495Q353 495 372.0 496.5Q391 498 411 502Q407 490 402.0 473.0Q397 456 392 434L432 431Q421 476 411 502Q446 495 486 495Q504 495 523.5 496.5Q543 498 564 502Q559 489 553.5 469.5Q548 450 543 424L587 421Q576 471 564 502Q599 495 639 495Q657 495 676.5 496.5Q696 498 717 502Q705 473 694 414L742 412Q736 440 730.0 463.0Q724 486 717 502Q752 495 792 495Q810 495 829.5 496.5Q849 498 870 502Q864 487 857.5 462.5Q851 438 846 407Q913 404 972.5 401.5Q1032 399 1079 398ZM1096 228Q1093 266 1090.0 302.0Q1087 338 1082 372Q1033 371 971.0 369.0Q909 367 839 363Q835 335 830.5 303.0Q826 271 822 238Q902 234 972.5 231.5Q1043 229 1096 228ZM769 240Q765 272 761.0 302.0Q757 332 752 359L684 356Q680 331 676.5 303.0Q673 275 670 246ZM615 249Q612 276 608.5 301.5Q605 327 601 351Q583 350 565.5 348.5Q548 347 530 346L518 255ZM461 259 449 341 376 335 367 266Q390 264 413.0 262.5Q436 261 461 259ZM1106 58Q1105 96 1102.5 132.0Q1100 168 1098 202Q1044 201 971.5 199.0Q899 197 818 192Q815 161 813.0 130.0Q811 99 809 69Q895 65 972.5 62.0Q1050 59 1106 58ZM782 70Q781 100 778.5 130.0Q776 160 774 190L664 184Q662 158 660.0 130.5Q658 103 656 77Q688 75 719.5 73.5Q751 72 782 70ZM629 78Q628 104 626.0 130.0Q624 156 622 182Q594 180 566.0 178.5Q538 177 510 175L504 86ZM475 88Q474 109 473.0 130.0Q472 151 470 172Q440 171 411.5 168.5Q383 166 356 164L351 97Z" />
  </g>
</svg>