<svg xmlns="http://www.w3.org/2000/svg" viewBox="100 -112 1131 848">
  <g transform="translate(0, 624) scale(1, -1)">
    <path fill="black" d="M1110 -112Q1110 -74 1109.5 -37.5Q1109 -1 1108 33Q1050 32 969.5 29.0Q889 26 797.5 21.5Q706 17 611.5 11.5Q517 6 430.0 -0.5Q343 -7 272.0 -13.0Q201 -19 155.5 -24.5Q110 -30 100 -34Q103 -15 105.5 7.0Q108 29 108 52Q108 90 100 125Q109 121 154.5 115.5Q200 110 271.0 104.0Q342 98 429.0 91.5Q516 85 610.0 79.0Q704 73 796.0 68.5Q888 64 968.5 61.0Q1049 58 1107 58Q1106 96 1103.5 132.5Q1101 169 1099 203Q1040 202 959.5 199.0Q879 196 788.0 191.0Q697 186 604.0 180.5Q511 175 425.0 168.5Q339 162 269.0 156.0Q199 150 154.5 145.0Q110 140 100 136Q103 155 105.5 177.0Q108 199 108 222Q108 260 100 295Q109 291 153.5 285.5Q198 280 267.5 274.0Q337 268 423.0 262.0Q509 256 602.0 250.0Q695 244 786.0 239.5Q877 235 957.0 232.0Q1037 229 1097 228Q1094 266 1091.0 302.0Q1088 338 1083 372Q1022 371 941.5 368.0Q861 365 771.5 360.5Q682 356 590.5 350.0Q499 344 415.5 338.0Q332 332 264.0 326.0Q196 320 152.5 315.0Q109 310 100 306Q103 325 105.5 347.0Q108 369 108 392Q108 430 100 465Q109 461 152.0 456.0Q195 451 262.5 445.0Q330 439 413.5 433.0Q497 427 587.5 421.0Q678 415 768.0 410.5Q858 406 938.5 402.5Q1019 399 1080 398Q1076 437 1070.0 473.0Q1064 509 1058 542Q994 540 914.0 537.0Q834 534 746.0 529.0Q658 524 570.0 518.5Q482 513 401.5 507.0Q321 501 256.5 495.5Q192 490 150.5 485.0Q109 480 100 476Q103 495 105.5 517.0Q108 539 108 562Q108 600 100 635Q109 631 150.0 626.0Q191 621 255.0 615.5Q319 610 398.5 604.0Q478 598 565.5 592.5Q653 587 741.0 582.0Q829 577 909.0 574.0Q989 571 1053 569Q1044 617 1034.5 659.0Q1025 701 1015 736Q1066 724 1120 724Q1174 724 1231 736Q1208 653 1186.0 533.5Q1164 414 1150.0 254.0Q1136 94 1136 -112Z" />
  </g>
</svg>