<svg xmlns="http://www.w3.org/2000/svg" viewBox="100 -354 1077 1313">
  <g transform="translate(0, 605) scale(1, -1)">
    <path fill="black" d="M371 -354Q368 -324 362 -295Q266 -192 204.5 -122.5Q143 -53 100 -14Q127 13 169.5 53.0Q212 93 262.0 146.0Q312 199 360 263Q362 272 364.5 282.0Q367 292 368 302L362 334Q266 438 204.5 507.5Q143 577 100 616Q127 643 169.5 683.0Q212 723 262.0 776.0Q312 829 360 893Q368 925 371 959Q406 938 472.5 908.5Q539 879 629.0 844.5Q719 810 825.0 773.5Q931 737 1044 701Q1070 725 1096.0 753.0Q1122 781 1147 809L1166 799Q1135 742 1112.5 698.5Q1090 655 1069 620Q1085 595 1112.0 554.5Q1139 514 1177 464L1160 449L1058 537Q926 495 803.5 452.5Q681 410 581.5 371.5Q482 333 420 302Q481 273 577.5 234.5Q674 196 794.0 154.5Q914 113 1044 71Q1070 95 1096.0 123.0Q1122 151 1147 179L1166 169Q1135 112 1112.5 68.5Q1090 25 1069 -10Q1085 -35 1112.0 -75.5Q1139 -116 1177 -166L1160 -181Q1130 -155 1105.0 -133.0Q1080 -111 1058 -93Q943 -129 835.0 -166.0Q727 -203 635.0 -238.0Q543 -273 474.5 -302.5Q406 -332 371 -354ZM335 412Q400 414 505.0 432.5Q610 451 746.5 482.0Q883 513 1039 552Q1015 572 994.0 588.5Q973 605 953 620Q967 631 986.0 647.5Q1005 664 1027 685Q876 724 744.5 753.5Q613 783 510.5 801.0Q408 819 343 822Q310 758 279.5 709.5Q249 661 226 616Q243 583 270.0 530.5Q297 478 335 412ZM335 -218Q400 -216 505.0 -197.5Q610 -179 746.5 -148.0Q883 -117 1039 -77Q993 -40 953 -10Q967 1 986.0 17.5Q1005 34 1027 55Q876 94 744.5 123.5Q613 153 510.5 171.0Q408 189 343 192Q310 128 279.5 79.5Q249 31 226 -14Q243 -46 270.0 -99.0Q297 -152 335 -218Z" />
  </g>
</svg>