<svg xmlns="http://www.w3.org/2000/svg" viewBox="100 -360 1363 1258">
  <g transform="translate(0, 538) scale(1, -1)">
    <path fill="black" d="M1133 -360Q1128 -352 1122.5 -345.0Q1117 -338 1111 -332L1075 -297Q1071 -293 1065.5 -290.0Q1060 -287 1055 -284L1058 -282Q1022 -249 982.0 -213.0Q942 -177 903.5 -144.0Q865 -111 833.0 -87.0Q801 -63 781 -53Q804 -40 822.5 -24.5Q841 -9 858 13Q824 54 780 79Q803 90 837.5 116.0Q872 142 913.0 176.0Q954 210 995.0 246.5Q1036 283 1070 315Q1002 307 943.5 296.0Q885 285 844 274Q849 297 851.5 318.0Q854 339 854 358Q854 378 851.5 396.5Q849 415 844 434Q854 431 864.5 427.5Q875 424 887 421Q886 451 884.0 497.0Q882 543 878.0 591.5Q874 640 868.0 680.5Q862 721 854 740Q865 738 874.0 736.5Q883 735 893 735Q902 735 912.0 736.5Q922 738 933 740Q928 727 924.0 697.5Q920 668 916.5 629.0Q913 590 910.5 549.5Q908 509 906.5 474.0Q905 439 904 416Q951 404 1009.5 392.5Q1068 381 1132 372Q1138 378 1144.0 385.0Q1150 392 1156 400Q1161 388 1174 367Q1213 363 1252.5 360.5Q1292 358 1330 357Q1329 416 1326.0 466.0Q1323 516 1321 559Q1267 557 1213.5 551.5Q1160 546 1115.0 538.5Q1070 531 1038.0 523.5Q1006 516 994 511Q999 543 999 577Q999 591 998.0 604.5Q997 618 994 630Q1010 624 1054.5 613.5Q1099 603 1166.5 594.0Q1234 585 1319 583Q1314 650 1308.0 701.5Q1302 753 1294 794Q1164 789 1063.5 772.5Q963 756 896 736Q901 759 903.5 780.0Q906 801 906 821Q906 841 903.5 860.0Q901 879 896 898Q961 876 1060.0 853.5Q1159 831 1289 823L1271 896Q1316 887 1356 887Q1395 887 1432 896Q1420 852 1410.5 810.5Q1401 769 1393.5 722.0Q1386 675 1379.5 613.5Q1373 552 1366.5 467.5Q1360 383 1352 267H1333Q1332 284 1331.5 300.5Q1331 317 1331 333Q1267 331 1203 327Q1229 292 1264.0 249.5Q1299 207 1335.5 163.0Q1372 119 1404.0 80.5Q1436 42 1457 16L1463 11Q1440 -15 1402.0 -55.0Q1364 -95 1320.5 -141.0Q1277 -187 1237.0 -231.0Q1197 -275 1168.5 -309.0Q1140 -343 1133 -360ZM453 -360Q448 -352 442.5 -345.0Q437 -338 431 -332L395 -297Q391 -293 385.5 -290.0Q380 -287 375 -284L378 -282Q342 -249 302.0 -213.0Q262 -177 223.5 -144.0Q185 -111 153.0 -87.0Q121 -63 101 -53Q124 -40 142.5 -24.5Q161 -9 178 13Q144 54 100 79Q123 90 157.5 116.0Q192 142 233.0 176.0Q274 210 315.0 246.5Q356 283 390 315Q322 307 263.5 296.0Q205 285 164 274Q169 297 171.5 318.0Q174 339 174 358Q174 378 171.5 396.5Q169 415 164 434Q174 431 184.5 427.5Q195 424 207 421Q206 451 204.0 497.0Q202 543 198.0 591.5Q194 640 188.0 680.5Q182 721 174 740Q185 738 194.0 736.5Q203 735 213 735Q222 735 232.0 736.5Q242 738 253 740Q248 727 244.0 697.5Q240 668 236.5 629.0Q233 590 230.5 549.5Q228 509 226.5 474.0Q225 439 224 416Q271 404 329.5 392.5Q388 381 452 372Q458 378 464.0 385.0Q470 392 476 400Q481 388 494 367Q533 363 572.5 360.5Q612 358 650 357Q649 416 646.0 466.0Q643 516 641 559Q587 557 533.5 551.5Q480 546 435.0 538.5Q390 531 358.0 523.5Q326 516 314 511Q319 543 319 577Q319 591 318.0 604.5Q317 618 314 630Q330 624 374.5 613.5Q419 603 486.5 594.0Q554 585 639 583Q634 650 628.0 701.5Q622 753 614 794Q484 789 383.5 772.5Q283 756 216 736Q221 759 223.5 780.0Q226 801 226 821Q226 841 223.5 860.0Q221 879 216 898Q281 876 380.0 853.5Q479 831 609 823L591 896Q636 887 676 887Q715 887 752 896Q740 852 730.5 810.5Q721 769 713.5 722.0Q706 675 699.5 613.5Q693 552 686.5 467.5Q680 383 672 267H653Q652 284 651.5 300.5Q651 317 651 333Q587 331 523 327Q549 292 584.0 249.5Q619 207 655.5 163.0Q692 119 724.0 80.5Q756 42 777 16L783 11Q760 -15 722.0 -55.0Q684 -95 640.5 -141.0Q597 -187 557.0 -231.0Q517 -275 488.5 -309.0Q460 -343 453 -360ZM1290 -113Q1333 -78 1372.0 -45.5Q1411 -13 1439 11Q1414 35 1379.0 68.0Q1344 101 1305.0 137.0Q1266 173 1227.0 207.5Q1188 242 1154.0 270.0Q1120 298 1096 314Q1073 286 1045.0 252.5Q1017 219 988 184Q1006 179 1034.0 174.0Q1062 169 1096 164Q1094 182 1090.5 196.0Q1087 210 1084 218Q1095 216 1104.5 214.5Q1114 213 1124 213Q1135 213 1145.5 214.5Q1156 216 1169 218Q1166 210 1163.0 194.0Q1160 178 1157 157Q1194 153 1229.5 150.5Q1265 148 1292 147V135Q1263 132 1227.0 129.0Q1191 126 1154 121L1150 71Q1189 67 1226.5 64.0Q1264 61 1292 60V49Q1261 46 1223.5 42.5Q1186 39 1147 34L1144 -14Q1185 -18 1223.5 -21.5Q1262 -25 1292 -27V-38Q1261 -41 1221.5 -45.0Q1182 -49 1142 -54L1140 -100Q1181 -104 1220.0 -107.5Q1259 -111 1290 -113ZM610 -113 759 11Q734 36 699.0 68.5Q664 101 625.0 137.0Q586 173 547.0 207.5Q508 242 474.0 270.0Q440 298 416 314Q393 286 365.0 252.5Q337 219 308 184Q326 179 354.0 174.0Q382 169 416 164Q414 182 410.5 196.0Q407 210 404 218Q415 216 424.5 214.5Q434 213 444 213Q455 213 465.5 214.5Q476 216 489 218Q486 210 483.0 194.0Q480 178 477 157Q514 153 549.5 150.5Q585 148 612 147V135Q583 132 547.0 129.0Q511 126 474 121L470 71Q509 67 546.5 64.0Q584 61 612 60V49Q581 46 543.5 42.5Q506 39 467 34L464 -14Q505 -18 543.5 -21.5Q582 -25 612 -27V-38Q581 -41 541.5 -45.0Q502 -49 462 -54L460 -100Q501 -104 540.0 -107.5Q579 -111 610 -113ZM980 -144V-128Q980 -117 979.5 -106.0Q979 -95 978 -84L976 -85Q976 -83 976.5 -81.0Q977 -79 977 -78Q977 -76 976.5 -74.5Q976 -73 976 -72L978 -73Q979 -65 979.5 -55.5Q980 -46 980 -36Q980 -26 979.5 -16.5Q979 -7 978 2H976Q976 6 977 8Q976 10 976 15Q976 14 978 14Q981 32 981 53Q981 71 978 89Q977 88 976 88Q976 90 976.5 91.5Q977 93 977 95Q977 97 976.5 99.0Q976 101 976 102Q977 101 978 101Q979 109 979.5 117.5Q980 126 980 135Q980 144 979.5 153.0Q979 162 978 171Q940 123 908.0 80.0Q876 37 865 13Q876 -9 908.0 -52.0Q940 -95 980 -144ZM300 -144V-128Q300 -117 299.5 -106.0Q299 -95 298 -84L296 -85Q296 -83 296.5 -81.0Q297 -79 297 -78Q297 -76 296.5 -74.5Q296 -73 296 -72L298 -73Q299 -65 299.5 -55.5Q300 -46 300 -36Q300 -26 299.5 -16.5Q299 -7 298 2H296Q296 6 297 8Q296 10 296 15Q296 14 298 14Q301 32 301 53Q301 71 298 89Q297 88 296 88Q296 90 296.5 91.5Q297 93 297 95Q297 97 296.5 99.0Q296 101 296 102Q297 101 298 101Q299 109 299.5 117.5Q300 126 300 135Q300 144 299.5 153.0Q299 162 298 171Q260 123 228.0 80.0Q196 37 185 13Q196 -9 228.0 -52.0Q260 -95 300 -144ZM426 76 423 114Q360 106 318 95Q338 90 366.0 85.5Q394 81 426 76ZM1106 76 1103 114Q1040 106 998 95Q1018 90 1046.0 85.5Q1074 81 1106 76ZM432 -11 430 29Q397 25 367.5 19.5Q338 14 317 8Q337 3 367.5 -1.5Q398 -6 432 -11ZM1112 -11 1110 29Q1077 25 1047.5 19.5Q1018 14 997 8Q1017 3 1047.5 -1.5Q1078 -6 1112 -11ZM1116 -98Q1116 -87 1115.5 -77.0Q1115 -67 1115 -57Q1081 -61 1050.0 -67.0Q1019 -73 997 -78Q1018 -83 1049.5 -88.0Q1081 -93 1116 -98ZM436 -98Q436 -87 435.5 -77.0Q435 -67 435 -57Q401 -61 370.0 -67.0Q339 -73 317 -78Q338 -83 369.5 -88.0Q401 -93 436 -98ZM1082 -269Q1117 -247 1168.5 -208.0Q1220 -169 1274 -125Q1244 -128 1209.0 -131.5Q1174 -135 1139 -140Q1138 -157 1137.0 -173.0Q1136 -189 1136 -197H1119Q1119 -188 1118.5 -173.5Q1118 -159 1118 -142Q1082 -147 1050.5 -153.0Q1019 -159 996 -165Q1018 -192 1040.5 -218.5Q1063 -245 1082 -269ZM402 -269Q437 -247 488.5 -208.0Q540 -169 594 -125Q564 -128 529.0 -131.5Q494 -135 459 -140Q458 -157 457.0 -173.0Q456 -189 456 -197H439Q439 -188 438.5 -173.5Q438 -159 438 -142Q402 -147 370.5 -153.0Q339 -159 316 -165Q338 -192 360.5 -218.5Q383 -245 402 -269Z" />
  </g>
</svg>