<svg xmlns="http://www.w3.org/2000/svg" viewBox="100 -112 1246 848">
  <g transform="translate(0, 624) scale(1, -1)">
    <path fill="black" d="M1233 -112Q1148 -83 1062.5 -57.5Q977 -32 891 -14Q806 4 722.0 11.5Q638 19 553 23Q559 35 566.0 47.5Q573 60 579 72Q585 85 590.0 97.0Q595 109 600 122Q534 115 467.5 107.5Q401 100 335 87Q277 76 218.0 62.0Q159 48 100 24Q105 51 107.5 78.5Q110 106 110 133Q110 159 107.0 186.0Q104 213 100 239Q157 216 214.5 203.5Q272 191 329 181Q399 169 469.0 163.5Q539 158 609 153Q611 162 613.5 170.5Q616 179 617 188Q619 198 620.5 207.5Q622 217 623 227Q691 178 770.5 125.0Q850 72 928 36Q977 14 1019.0 -4.5Q1061 -23 1110.0 -41.5Q1159 -60 1230 -84Q1224 -28 1217.5 27.0Q1211 82 1200 137Q1187 202 1172.0 262.0Q1157 322 1130 383Q1143 382 1156.0 379.5Q1169 377 1182 375Q1193 374 1204.0 374.0Q1215 374 1226 373Q1220 404 1215.0 434.0Q1210 464 1203 495Q1195 531 1186.5 566.5Q1178 602 1167 638Q1103 613 1039.5 586.5Q976 560 912 527Q839 490 767.5 448.0Q696 406 623 355Q621 367 620.0 378.5Q619 390 616 402Q614 412 611.0 421.0Q608 430 606 440Q539 433 472.0 425.0Q405 417 338 405Q279 395 219.0 380.5Q159 366 100 341Q105 370 107.5 397.5Q110 425 110 453Q110 479 107.0 505.0Q104 531 100 556Q159 532 217.5 520.0Q276 508 334 498Q399 487 465.0 481.0Q531 475 596 471Q591 482 586.5 493.0Q582 504 577 515Q572 526 565.0 537.0Q558 548 553 559Q633 563 713.0 573.5Q793 584 873 598Q944 611 1015.0 630.5Q1086 650 1157 669Q1154 677 1151.5 685.0Q1149 693 1145 701Q1141 710 1137.5 718.5Q1134 727 1130 736Q1156 734 1182.0 730.5Q1208 727 1234 727Q1262 727 1290.0 729.0Q1318 731 1346 736L1332 700L1333 698Q1332 697 1330 697Q1317 659 1305.0 621.0Q1293 583 1284 545Q1274 502 1266.0 459.0Q1258 416 1253 373Q1266 374 1278.5 375.0Q1291 376 1304 377Q1315 379 1325.5 380.5Q1336 382 1346 383Q1318 320 1305.5 259.0Q1293 198 1282 135Q1272 74 1267.0 11.5Q1262 -51 1259 -112Z" />
  </g>
</svg>