<svg xmlns="http://www.w3.org/2000/svg" viewBox="100 -25 1694 655">
  <g transform="translate(0, 605) scale(1, -1)">
    <path fill="black" d="M1776 -25Q1700 43 1648.0 85.0Q1596 127 1551 160Q1573 179 1610.0 212.0Q1647 245 1688 285Q1546 275 1442.0 266.0Q1338 257 1262.0 247.5Q1186 238 1126.5 227.0Q1067 216 1014.0 203.0Q961 190 904 174Q910 200 913.0 232.5Q916 265 916 299Q916 334 913.0 368.0Q910 402 904 430Q952 417 1004.0 403.0Q1056 389 1119.0 376.0Q1182 363 1262.0 351.0Q1342 339 1446.5 330.5Q1551 322 1686 317Q1646 351 1613.5 376.5Q1581 402 1551 424Q1573 443 1608.5 474.5Q1644 506 1685.0 546.5Q1726 587 1763 630L1783 619Q1749 558 1724.5 510.0Q1700 462 1677 424Q1687 408 1701.5 385.0Q1716 362 1735 334L1763 366L1783 355L1755 305L1794 254L1776 239L1738 272Q1721 240 1706.0 212.0Q1691 184 1677 160Q1694 132 1723.5 88.0Q1753 44 1794 -10ZM954 43Q857 129 789.0 185.5Q721 242 662 285Q545 277 448.5 259.0Q352 241 267.0 218.0Q182 195 100 172Q112 223 112 287Q112 351 100 408Q204 380 341.5 354.5Q479 329 660 320Q693 349 739.5 391.0Q786 433 837.5 484.0Q889 535 936 590L964 575Q916 489 882.0 422.0Q848 355 816 302Q839 263 880.5 201.5Q922 140 980 64Z" />
  </g>
</svg>