<svg xmlns="http://www.w3.org/2000/svg" viewBox="100 -25 1694 696">
  <g transform="translate(0, 646) scale(1, -1)">
    <path fill="black" d="M954 43Q857 129 789.0 185.5Q721 242 662 285L632 282Q628 213 626.0 152.0Q624 91 622 55H606Q602 93 598.5 152.0Q595 211 591 279L525 271L515 55H499Q495 90 492.0 145.5Q489 201 485 265Q468 262 451.0 259.0Q434 256 417 252L408 55H392Q389 87 385.5 137.0Q382 187 379 244Q361 240 343.5 236.5Q326 233 309 228Q306 176 304.0 130.0Q302 84 301 55H285Q282 84 279.0 127.0Q276 170 273 219Q229 208 186.0 196.0Q143 184 100 172Q112 223 112 287Q112 351 100 408Q137 398 177.5 388.0Q218 378 264 368Q260 435 254.0 497.0Q248 559 241.5 605.0Q235 651 227 671Q243 668 253.0 666.5Q263 665 273 665Q282 665 293.0 666.5Q304 668 320 671H350Q349 670 349 668Q373 665 397 665Q418 665 442 668Q441 669 441 671L450 669L457 671Q456 670 456 668Q480 665 504 665Q525 665 549 668Q548 669 548 671L557 669L564 671Q563 670 563 668Q586 665 609 665Q638 665 671 671Q663 652 656.5 598.0Q650 544 644.5 471.0Q639 398 634 321Q641 320 647.0 320.0Q653 320 660 320Q693 349 739.5 391.0Q786 433 837.5 484.0Q889 535 936 590L964 575Q916 489 882.0 422.0Q848 355 816 302Q839 263 880.5 201.5Q922 140 980 64ZM588 324Q584 387 579.5 447.5Q575 508 569.0 558.5Q563 609 556 641Q551 611 545.5 561.0Q540 511 536.0 451.0Q532 391 528 329ZM480 334Q476 395 471.5 453.5Q467 512 461.5 561.0Q456 610 449 641Q444 612 439.0 564.0Q434 516 430.0 458.5Q426 401 422 341Q436 340 450.5 338.0Q465 336 480 334ZM372 349Q368 407 363.5 462.5Q359 518 354.0 564.5Q349 611 342 641Q337 613 332.5 568.5Q328 524 324.0 469.5Q320 415 316 358ZM1776 -25Q1700 43 1648.0 85.0Q1596 127 1551 160Q1573 179 1610.0 212.0Q1647 245 1688 285Q1546 275 1442.0 266.0Q1338 257 1262.0 247.5Q1186 238 1126.5 227.0Q1067 216 1014.0 203.0Q961 190 904 174Q910 200 913.0 232.5Q916 265 916 299Q916 334 913.0 368.0Q910 402 904 430Q952 417 1004.0 403.0Q1056 389 1119.0 376.0Q1182 363 1262.0 351.0Q1342 339 1446.5 330.5Q1551 322 1686 317Q1646 351 1613.5 376.5Q1581 402 1551 424Q1573 443 1608.5 474.5Q1644 506 1685.0 546.5Q1726 587 1763 630L1783 619Q1749 558 1724.5 510.0Q1700 462 1677 424Q1687 408 1701.5 385.0Q1716 362 1735 334L1763 366L1783 355L1755 305L1794 254L1776 239L1738 272Q1721 240 1706.0 212.0Q1691 184 1677 160Q1694 132 1723.5 88.0Q1753 44 1794 -10Z" />
  </g>
</svg>