<svg xmlns="http://www.w3.org/2000/svg" viewBox="100 -152 1394 950">
  <g transform="translate(0, 646) scale(1, -1)">
    <path fill="black" d="M1133 -152Q1105 -117 1077.5 -92.5Q1050 -68 1015 -49Q1017 -47 1019.0 -46.0Q1021 -45 1023 -44Q977 -5 927.5 34.0Q878 73 831.5 108.0Q785 143 745.0 169.0Q705 195 677 207Q703 224 724.5 242.5Q746 261 765 285Q641 278 524.0 260.5Q407 243 305 221L301 125H285Q283 143 281.5 166.5Q280 190 278 215Q229 205 184.0 194.0Q139 183 100 172Q112 223 112 287Q112 351 100 408Q133 399 175.0 389.5Q217 380 266 372Q262 436 256.0 496.0Q250 556 243.0 602.5Q236 649 227 671Q257 665 290 665Q322 665 350 671Q342 652 335.5 604.5Q329 557 323.5 494.0Q318 431 314 364Q409 349 521.5 337.0Q634 325 752 320Q712 365 659 394Q688 408 730.5 439.0Q773 470 823.0 511.5Q873 553 925.5 599.0Q978 645 1026 689L1015 695Q1050 715 1077.5 739.0Q1105 763 1133 798Q1142 774 1171.5 731.0Q1201 688 1242.5 634.0Q1284 580 1330.0 523.0Q1376 466 1419.5 414.0Q1463 362 1494 323Q1463 284 1419.5 232.0Q1376 180 1330.0 123.0Q1284 66 1242.5 12.0Q1201 -42 1171.5 -85.0Q1142 -128 1133 -152ZM1059 -22Q1100 5 1152.5 47.0Q1205 89 1261.0 138.0Q1317 187 1370.0 235.5Q1423 284 1464 323Q1423 362 1370.0 410.5Q1317 459 1261.0 507.5Q1205 556 1152.5 598.5Q1100 641 1059 668Q1022 623 982.0 574.5Q942 526 904.5 478.0Q867 430 837.0 389.0Q807 348 790 318L877 316Q876 326 875.0 336.0Q874 346 872 357Q880 353 894.0 350.0Q908 347 927 344Q921 377 914.0 406.0Q907 435 898 457Q927 451 955 451Q963 451 971.5 451.5Q980 452 989 453Q989 454 988.5 455.0Q988 456 988 457Q991 456 994.0 455.5Q997 455 1000 455Q1003 455 1006.5 455.5Q1010 456 1014 457Q1012 453 1012 453Q1019 452 1026.5 451.5Q1034 451 1041 451Q1050 451 1059.5 451.5Q1069 452 1079 453Q1079 454 1078.5 455.0Q1078 456 1078 457Q1081 456 1084.0 455.5Q1087 455 1090 455Q1093 455 1096.5 455.5Q1100 456 1104 457Q1102 453 1102 453Q1109 452 1116.5 451.5Q1124 451 1131 451Q1140 451 1149.5 451.5Q1159 452 1169 453Q1169 454 1168.5 455.0Q1168 456 1168 457Q1171 456 1174.0 455.5Q1177 455 1180 455Q1183 455 1186.5 455.5Q1190 456 1194 457Q1192 453 1192 453Q1200 452 1207.5 451.5Q1215 451 1222 451Q1250 451 1284 457Q1274 434 1266.5 397.0Q1259 360 1253 316Q1287 314 1317.0 312.5Q1347 311 1369 310V297Q1345 294 1314.5 291.5Q1284 289 1249 286Q1245 249 1242.0 208.5Q1239 168 1237 130H1224Q1220 170 1215.5 208.5Q1211 247 1206 283Q1194 282 1182.5 281.5Q1171 281 1159 279Q1155 243 1152.0 205.0Q1149 167 1147 130H1134Q1130 168 1126.0 205.0Q1122 242 1117 276L1068 272Q1064 238 1061.5 201.5Q1059 165 1057 130H1044Q1040 165 1036.5 200.0Q1033 235 1028 268L977 262Q973 230 971.0 196.0Q969 162 967 130H954L939 257Q917 253 900.0 249.5Q883 246 872 241Q874 253 875.5 265.0Q877 277 877 289Q859 289 841.0 288.5Q823 288 805 287Q828 251 869.5 199.0Q911 147 961.0 89.5Q1011 32 1059 -22ZM1019 333Q1012 380 1001 417Q997 400 993.0 379.5Q989 359 986 336ZM1110 325Q1106 351 1101.0 374.0Q1096 397 1091 417Q1086 398 1082.0 375.5Q1078 353 1075 328ZM1201 319Q1197 346 1192.0 370.5Q1187 395 1181 417Q1176 397 1172.0 372.5Q1168 348 1164 321Z" />
  </g>
</svg>