<svg xmlns="http://www.w3.org/2000/svg" viewBox="100 -6 1427 696">
  <g transform="translate(0, 684) scale(1, -1)">
    <path fill="black" d="M1210 347 1183 374Q1229 441 1251.0 497.0Q1273 553 1281.5 601.0Q1290 649 1293 690Q1331 637 1364.5 598.5Q1398 560 1436.5 527.0Q1475 494 1527 456Q1486 453 1438.5 444.5Q1391 436 1334.5 414.0Q1278 392 1210 347ZM417 347Q350 392 293.0 414.0Q236 436 188.5 444.5Q141 453 100 456Q153 494 191.0 527.0Q229 560 262.5 598.5Q296 637 334 690Q338 649 346.0 601.0Q354 553 376.5 497.0Q399 441 444 374ZM770 248Q703 293 646.5 315.0Q590 337 542.5 345.5Q495 354 454 357Q507 395 545.0 428.0Q583 461 616.5 499.5Q650 538 688 591Q692 550 700.0 502.0Q708 454 730.0 398.0Q752 342 797 275ZM857 248 830 275Q875 342 897.0 398.0Q919 454 927.5 502.0Q936 550 939 591Q977 538 1010.5 499.5Q1044 461 1082.5 428.0Q1121 395 1173 357Q1132 354 1084.5 345.5Q1037 337 980.5 315.0Q924 293 857 248ZM517 -6Q450 39 393.0 61.0Q336 83 288.5 91.5Q241 100 200 103Q253 141 291.0 174.5Q329 208 362.5 246.5Q396 285 434 337Q438 296 446.0 248.0Q454 200 476.0 144.0Q498 88 543 21ZM1110 -6 1084 21Q1129 88 1151.0 144.0Q1173 200 1181.5 248.0Q1190 296 1193 337Q1231 285 1264.5 246.5Q1298 208 1336.5 174.5Q1375 141 1427 103Q1386 100 1338.5 91.5Q1291 83 1234.5 61.0Q1178 39 1110 -6Z" />
  </g>
</svg>