<svg xmlns="http://www.w3.org/2000/svg" viewBox="100 -233 1264 990">
  <g transform="translate(0, 524) scale(1, -1)">
    <path fill="black" d="M654 -233Q663 -180 663 -128Q663 -76 654 -18Q675 -25 699.0 -32.0Q723 -39 751 -46Q747 70 738.0 145.0Q729 220 718 267Q695 267 672.5 266.5Q650 266 630 265Q628 228 627.0 183.0Q626 138 626 83H602Q602 137 601.0 182.0Q600 227 598 264Q568 263 541.0 261.0Q514 259 489 257Q486 185 486 83H462Q462 134 461.0 176.5Q460 219 458 255Q427 251 400.0 247.5Q373 244 349 239Q346 173 346 83H322Q322 169 319 233Q252 218 202.5 199.5Q153 181 100 161Q109 214 109 266Q109 318 100 376Q133 364 162.5 353.0Q192 342 228.0 332.0Q264 322 315 314Q310 382 302.0 420.5Q294 459 284.5 480.0Q275 501 266.0 514.0Q257 527 249 545Q276 539 297.5 536.0Q319 533 338 533Q363 533 391 539L389 545L405 542L419 545L416 539Q449 533 475 533Q501 533 531 539L529 545L545 542L559 545L556 539Q591 533 616 533Q636 533 656.0 536.0Q676 539 699 545Q691 527 681.0 513.5Q671 500 661.5 477.5Q652 455 644.0 412.5Q636 370 631 294Q650 293 670.0 293.0Q690 293 711 293Q703 322 695.0 342.0Q687 362 680 378Q707 372 728.5 369.5Q750 367 769 367Q789 367 808.0 369.5Q827 372 850 378Q841 358 830.0 329.5Q819 301 808.5 254.5Q798 208 790.0 134.0Q782 60 779 -52Q858 -68 970.0 -78.5Q1082 -89 1241 -97Q1240 -63 1239.0 -25.5Q1238 12 1236 52Q1191 48 1136.5 41.5Q1082 35 1030.0 28.0Q978 21 938.5 13.5Q899 6 884 -1Q890 32 890 67Q890 82 889.0 97.5Q888 113 884 129Q897 123 936.0 115.5Q975 108 1027.0 101.0Q1079 94 1134.0 87.5Q1189 81 1235 77L1226 210Q1180 206 1126.5 200.0Q1073 194 1023.0 187.0Q973 180 935.5 172.5Q898 165 884 159Q887 176 889.0 193.0Q891 210 891 228Q891 255 885 285H884V288Q890 320 890 353Q890 382 884 415Q890 448 890 482Q890 497 889.0 512.0Q888 527 884 543Q895 538 926.5 532.0Q958 526 1003.0 520.0Q1048 514 1097.5 508.0Q1147 502 1194 497Q1189 537 1182.5 573.5Q1176 610 1169 644Q991 632 859.5 621.5Q728 611 629.5 600.0Q531 589 452.5 575.0Q374 561 303 541Q315 592 315 646Q315 700 303 757Q383 735 497.5 719.5Q612 704 775.0 693.5Q938 683 1163 676L1148 736Q1199 724 1253 724Q1307 724 1364 736Q1350 687 1336.5 609.5Q1323 532 1311.5 439.5Q1300 347 1291.0 250.5Q1282 154 1276.5 63.5Q1271 -27 1271 -98L1326 -101V-127Q1182 -142 1078.5 -153.5Q975 -165 900.0 -175.5Q825 -186 767.0 -199.5Q709 -213 654 -233ZM456 300Q451 376 442.0 417.5Q433 459 423.5 481.0Q414 503 404 518Q395 503 385.0 482.0Q375 461 366.5 421.5Q358 382 352 309ZM596 294Q591 373 582.5 416.0Q574 459 564.0 481.0Q554 503 544 518Q534 503 524.0 481.5Q514 460 505.5 418.0Q497 376 491 298ZM1210 367Q1208 391 1205.0 414.0Q1202 437 1199 460Q1154 456 1105.0 450.0Q1056 444 1011.5 438.0Q967 432 933.5 426.0Q900 420 886 414Q900 409 934.5 402.5Q969 396 1015.5 389.5Q1062 383 1113.0 377.5Q1164 372 1210 367ZM1223 238Q1221 262 1219.0 286.0Q1217 310 1214 334Q1169 330 1119.0 324.0Q1069 318 1023.0 311.5Q977 305 941.5 299.0Q906 293 889 287Q905 281 942.0 274.5Q979 268 1027.5 261.0Q1076 254 1127.0 248.0Q1178 242 1223 238Z" />
  </g>
</svg>