<svg xmlns="http://www.w3.org/2000/svg" viewBox="100 -110 808 848">
  <g transform="translate(0, 628) scale(1, -1)">
    <path fill="black" d="M785 -110Q785 -88 784.5 -65.0Q784 -42 783 -18Q691 -18 593.0 -24.5Q495 -31 402.0 -42.5Q309 -54 231.0 -68.0Q153 -82 100 -98Q106 -68 109.5 -39.5Q113 -11 113 15Q113 41 109.5 67.0Q106 93 100 118Q125 109 157 101Q156 133 154.0 179.5Q152 226 149.0 277.5Q146 329 141.0 378.5Q136 428 129.0 467.0Q122 506 114 526Q141 520 163 520Q187 520 220 526Q215 513 210.5 487.0Q206 461 202 427Q222 424 245 430Q239 407 234.0 379.0Q229 351 226.5 308.0Q224 265 222 197H215Q211 271 206.5 312.0Q202 353 197 381Q193 330 189.5 275.5Q186 221 183.5 173.0Q181 125 179 95Q237 80 309.5 66.0Q382 52 461.5 40.5Q541 29 623.0 22.0Q705 15 782 14Q778 94 771.5 183.0Q765 272 755 360Q749 351 745.0 343.0Q741 335 736 327Q742 318 746.5 309.0Q751 300 758 289L752 285Q737 299 730.0 306.0Q723 313 715 319Q710 303 706.0 279.0Q702 255 699.5 232.5Q697 210 696 197H689Q688 209 683.0 235.0Q678 261 672 286Q665 276 661.0 267.5Q657 259 651 250Q657 241 661.5 232.0Q666 223 673 212L667 208Q648 225 640.5 232.5Q633 240 621 248Q619 233 617.5 219.5Q616 206 616 197H609Q608 210 603.0 236.5Q598 263 592.0 290.0Q586 317 580 330Q591 326 605 326Q602 359 598.0 376.5Q594 394 589 407Q582 376 578.0 329.5Q574 283 572 197H565Q562 251 559.0 287.0Q556 323 553.0 348.0Q550 373 545 393Q505 392 468.5 390.0Q432 388 400 386Q398 374 397.0 354.5Q396 335 394 310Q409 303 439.0 299.0Q469 295 502 293Q509 298 518.5 305.5Q528 313 544 328L550 325Q543 315 538.5 306.0Q534 297 528 288Q534 279 538.5 270.0Q543 261 550 250L544 246Q527 262 519.0 269.0Q511 276 502 283Q469 280 439.5 276.0Q410 272 393 264Q395 274 395.5 284.0Q396 294 394 306Q393 287 392.0 267.0Q391 247 390 226Q395 225 399.5 225.0Q404 225 408 225V220Q403 219 398.5 218.5Q394 218 389 218Q389 213 388.5 207.5Q388 202 388 197H384Q383 202 383.5 207.0Q384 212 383 217Q353 213 330.5 209.0Q308 205 290 197Q294 219 290 244Q295 242 301.5 240.0Q308 238 315 236Q316 241 316.5 246.5Q317 252 315 259Q321 257 342.5 253.5Q364 250 381 249Q381 256 380.5 263.0Q380 270 380 277Q362 273 341.5 269.5Q321 266 315 264Q316 270 316.5 277.0Q317 284 315 291Q321 288 342.0 285.0Q363 282 380 280Q379 288 378.5 294.0Q378 300 378 307Q360 304 340.5 301.0Q321 298 315 296Q316 301 316.5 308.0Q317 315 315 322Q321 320 340.5 317.0Q360 314 377 312Q377 319 376.5 326.0Q376 333 375 339Q358 335 339.5 332.0Q321 329 315 327Q316 333 316.5 339.5Q317 346 315 353Q321 351 339.5 348.5Q358 346 375 344Q374 352 373.0 358.0Q372 364 371 370Q355 367 337.5 363.5Q320 360 315 358Q316 363 316.5 368.0Q317 373 316 378L289 372Q292 384 292 397Q289 385 287.0 368.5Q285 352 283 326Q288 327 293.5 328.0Q299 329 305 330Q300 317 294.5 291.0Q289 265 286.0 238.5Q283 212 282 197H275Q274 210 269.0 236.5Q264 263 258.0 290.0Q252 317 246 330Q257 326 271 326Q268 358 264.0 375.5Q260 393 255.5 405.0Q251 417 246 430Q266 424 290 427Q289 428 289 431L299 428L305 430Q304 429 304 427Q342 419 401.0 414.0Q460 409 542 404L536 430Q557 424 581 427Q580 428 580 430Q584 428 587 428Q589 428 595 430Q594 429 594 427Q615 424 639 430Q634 417 629.5 405.0Q625 393 622.0 375.5Q619 358 617 326Q622 327 627.5 328.0Q633 329 639 330Q634 318 629.5 296.5Q625 275 622 252Q630 258 639.5 266.0Q649 274 667 290L672 287Q669 300 666.0 311.5Q663 323 660 330Q671 326 685 326Q682 358 678.0 375.5Q674 393 669.5 405.0Q665 417 660 430Q672 426 688 426Q704 426 719 430Q714 417 709.5 405.0Q705 393 702.0 375.5Q699 358 697 326Q702 326 704 327Q712 334 722.5 341.5Q733 349 752 367L755 365Q748 427 739.5 486.5Q731 546 722 599Q544 592 401.5 570.5Q259 549 170 522Q176 552 179.5 580.5Q183 609 183 635Q183 661 179.5 687.0Q176 713 170 738Q258 708 398.0 678.5Q538 649 714 638Q709 665 703.5 689.5Q698 714 692 736Q743 724 797 724Q851 724 908 736Q894 686 880.5 607.5Q867 529 855.5 434.5Q844 340 834.5 241.5Q825 143 820.0 52.0Q815 -39 815 -110ZM370 376Q370 378 369.5 380.0Q369 382 369 384Q360 383 351.5 382.5Q343 382 335 380Q343 379 352.5 378.0Q362 377 370 376ZM383 226Q382 231 382.0 236.0Q382 241 382 245Q367 243 349.5 240.0Q332 237 321 235Q348 229 383 226Z" />
  </g>
</svg>