<svg xmlns="http://www.w3.org/2000/svg" viewBox="100 -110 808 848">
  <g transform="translate(0, 628) scale(1, -1)">
    <path fill="black" d="M785 -110Q785 -88 784.5 -65.0Q784 -42 783 -18Q691 -18 593.0 -24.5Q495 -31 402.0 -42.5Q309 -54 231.0 -68.0Q153 -82 100 -98Q106 -68 109.5 -39.5Q113 -11 113 15Q113 41 109.5 67.0Q106 93 100 118Q125 109 157 101Q156 133 154.0 179.5Q152 226 149.0 277.5Q146 329 141.0 378.5Q136 428 129.0 467.0Q122 506 114 526Q141 520 163 520Q187 520 220 526Q213 509 207.5 469.5Q202 430 197.5 378.5Q193 327 189.5 273.0Q186 219 183.5 172.0Q181 125 179 95Q237 80 309.5 66.0Q382 52 461.5 40.5Q541 29 623.0 22.0Q705 15 782 14Q778 106 770.0 208.5Q762 311 750.0 412.0Q738 513 722 599Q544 592 401.5 570.5Q259 549 170 522Q176 552 179.5 580.5Q183 609 183 635Q183 661 179.5 687.0Q176 713 170 738Q258 708 398.0 678.5Q538 649 714 638Q709 665 703.5 689.5Q698 714 692 736Q743 724 797 724Q851 724 908 736Q894 686 880.5 607.5Q867 529 855.5 434.5Q844 340 834.5 241.5Q825 143 820.0 52.0Q815 -39 815 -110ZM684 210Q656 228 623.0 246.5Q590 265 560.0 280.0Q530 295 510 300Q517 306 523.0 312.5Q529 319 534 326Q498 321 457.0 315.0Q416 309 378.0 303.0Q340 297 310.5 290.5Q281 284 268 279Q270 294 272.0 308.5Q274 323 274 338Q274 363 268 388Q281 382 311.0 375.5Q341 369 380.5 362.0Q420 355 461.0 349.0Q502 343 536 339Q531 347 524.5 354.0Q518 361 510 368Q530 373 560.0 388.0Q590 403 623.0 422.0Q656 441 684 458L688 451Q668 434 642.0 412.0Q616 390 592.5 369.5Q569 349 556 334Q569 319 592.5 298.5Q616 278 642.0 256.5Q668 235 688 217Z" />
  </g>
</svg>