<svg xmlns="http://www.w3.org/2000/svg" viewBox="100 -110 808 848">
  <g transform="translate(0, 628) scale(1, -1)">
    <path fill="black" d="M785 -110Q785 -88 784.5 -65.0Q784 -42 783 -18Q691 -18 593.0 -24.5Q495 -31 402.0 -42.5Q309 -54 231.0 -68.0Q153 -82 100 -98Q106 -68 109.5 -39.5Q113 -11 113 15Q113 41 109.5 67.0Q106 93 100 118Q125 109 157 101Q156 133 154.0 179.5Q152 226 149.0 277.5Q146 329 141.0 378.5Q136 428 129.0 467.0Q122 506 114 526Q141 520 163 520Q187 520 220 526Q213 509 207.5 469.5Q202 430 197.5 378.5Q193 327 189.5 273.0Q186 219 183.5 172.0Q181 125 179 95Q237 80 309.5 66.0Q382 52 461.5 40.5Q541 29 623.0 22.0Q705 15 782 14Q778 106 770.0 208.5Q762 311 750.0 412.0Q738 513 722 599Q544 592 401.5 570.5Q259 549 170 522Q176 552 179.5 580.5Q183 609 183 635Q183 661 179.5 687.0Q176 713 170 738Q258 708 398.0 678.5Q538 649 714 638Q709 665 703.5 689.5Q698 714 692 736Q743 724 797 724Q851 724 908 736Q894 686 880.5 607.5Q867 529 855.5 434.5Q844 340 834.5 241.5Q825 143 820.0 52.0Q815 -39 815 -110ZM340 93Q346 119 346 143Q346 168 340 190L346 188Q342 253 338.0 299.5Q334 346 329 380Q297 376 271.0 372.0Q245 368 227 363Q229 376 230.5 388.5Q232 401 232 413Q232 425 230.5 437.0Q229 449 227 461Q264 450 319 442Q315 460 311.0 477.0Q307 494 302 513Q313 510 325.0 509.0Q337 508 349 508Q361 508 373.5 509.0Q386 510 399 513Q394 495 389.5 476.0Q385 457 382 435Q433 430 496.5 425.0Q560 420 639 415Q635 442 630.0 465.0Q625 488 618 513Q629 510 641.0 509.0Q653 508 665 508Q677 508 689.5 509.0Q702 510 715 513Q705 476 697.5 429.5Q690 383 685.0 312.5Q680 242 677 131V130Q594 128 541.0 124.5Q488 121 453.5 117.0Q419 113 393.5 107.0Q368 101 340 93ZM646 363 642 399Q580 397 524.5 394.5Q469 392 422 388Q442 381 481.0 376.0Q520 371 565.0 368.0Q610 365 646 363ZM422 366Q422 378 419 388Q415 388 410.5 388.0Q406 388 402 387Q405 383 410.5 378.0Q416 373 422 366ZM374 367 389 386Q385 386 382.0 385.5Q379 385 375 385Q375 381 374.5 376.5Q374 372 374 367ZM652 305Q651 318 650.0 330.0Q649 342 647 352Q604 348 551.0 344.0Q498 340 459 332L469 322Q510 315 561.5 311.0Q613 307 652 305ZM422 168Q423 178 423.0 187.5Q423 197 421 208L419 207Q419 209 419.5 210.5Q420 212 420 213Q420 215 419.5 216.5Q419 218 419 220Q419 219 421 219Q424 240 421 265L419 264Q419 268 420 270Q419 272 419 276L421 275Q424 296 421 318L372 351Q370 318 367.5 276.5Q365 235 363 183Q379 179 393.0 175.0Q407 171 422 168ZM656 249 653 299V297Q622 293 585.0 290.0Q548 287 513 283Q521 276 528.0 269.5Q535 263 542 257Q572 254 602.0 252.0Q632 250 656 249ZM500 261 477 277Q467 276 457.5 274.0Q448 272 440 270Q452 268 467.5 265.5Q483 263 500 261ZM661 192 657 239Q638 238 615.5 236.0Q593 234 570 232Q581 222 592.0 212.5Q603 203 613 194Q626 193 638.5 192.5Q651 192 661 192ZM587 196 543 229Q514 226 487.0 222.5Q460 219 440 214Q466 208 506.5 203.5Q547 199 587 196ZM664 149 661 183 629 180Q640 170 648.5 162.0Q657 154 664 149ZM661 143Q644 154 611 179Q572 175 531.0 171.0Q490 167 458 161Q490 157 537.0 152.5Q584 148 661 143Z" />
  </g>
</svg>