<svg xmlns="http://www.w3.org/2000/svg" viewBox="100 -110 808 848">
  <g transform="translate(0, 628) scale(1, -1)">
    <path fill="black" d="M785 -110Q785 -88 784.5 -65.0Q784 -42 783 -18Q691 -18 593.0 -24.5Q495 -31 402.0 -42.5Q309 -54 231.0 -68.0Q153 -82 100 -98Q106 -68 109.5 -39.5Q113 -11 113 15Q113 41 109.5 67.0Q106 93 100 118Q125 109 157 101Q156 133 154.0 179.5Q152 226 149.0 277.5Q146 329 141.0 378.5Q136 428 129.0 467.0Q122 506 114 526Q141 520 163 520Q187 520 220 526Q213 509 207.5 469.5Q202 430 197.5 378.5Q193 327 189.5 273.0Q186 219 183.5 172.0Q181 125 179 95Q237 80 309.5 66.0Q382 52 461.5 40.5Q541 29 623.0 22.0Q705 15 782 14Q778 106 770.0 208.5Q762 311 750.0 412.0Q738 513 722 599Q544 592 401.5 570.5Q259 549 170 522Q176 552 179.5 580.5Q183 609 183 635Q183 661 179.5 687.0Q176 713 170 738Q258 708 398.0 678.5Q538 649 714 638Q709 665 703.5 689.5Q698 714 692 736Q743 724 797 724Q851 724 908 736Q894 686 880.5 607.5Q867 529 855.5 434.5Q844 340 834.5 241.5Q825 143 820.0 52.0Q815 -39 815 -110ZM576 125Q545 152 524.5 169.0Q504 186 486 199L494 207Q424 200 384.5 194.0Q345 188 317 180Q304 176 292.0 172.0Q280 168 265 162Q267 175 268.0 187.5Q269 200 269 213Q269 225 268.0 237.0Q267 249 265 262Q292 253 320.5 246.0Q349 239 393.5 234.0Q438 229 514 225Q515 225 515 226Q510 298 505.5 339.5Q501 381 496.5 404.0Q492 427 485.0 443.5Q478 460 469 481Q493 475 518 475Q543 475 570 481Q566 466 562.0 454.0Q558 442 554 428Q565 426 583.5 423.0Q602 420 621 418Q616 435 610.5 448.5Q605 462 600 481Q623 475 649 475Q674 475 701 481Q695 461 689.5 444.5Q684 428 679.5 404.5Q675 381 671.5 343.0Q668 305 665 243L701 281L709 277Q696 252 686.0 233.0Q676 214 667 199Q680 178 714 131L707 125Q676 152 655.0 169.0Q634 186 617 199L646 225Q646 231 645.5 236.5Q645 242 645 247Q624 244 597.5 241.0Q571 238 556 235Q551 225 546.0 216.0Q541 207 536 199Q543 188 554.5 171.0Q566 154 583 131ZM534 243Q537 246 540.0 249.5Q543 253 547 256Q547 260 546.5 263.0Q546 266 545 270Q547 269 549.5 268.0Q552 267 556 266L570 281L578 277L570 263Q587 260 607.5 257.5Q628 255 644 253Q643 267 642.0 278.5Q641 290 640 300Q614 297 583.5 293.0Q553 289 545 286Q547 295 547.0 304.5Q547 314 545 324Q550 322 566.0 319.0Q582 316 602.0 313.0Q622 310 639 308L633 354Q608 350 580.5 346.5Q553 343 545 339Q547 349 547.0 358.0Q547 367 545 377Q552 374 579.5 370.0Q607 366 632 362Q630 376 628.0 386.5Q626 397 624 406Q602 403 579.5 400.0Q557 397 547 394Q543 371 540.0 335.5Q537 300 534 243ZM355 102Q347 138 338.5 151.5Q330 165 321 181Q337 177 358 177Q368 177 378.5 178.0Q389 179 400 181Q391 165 382.0 151.5Q373 138 365 102Z" />
  </g>
</svg>