<svg xmlns="http://www.w3.org/2000/svg" viewBox="100 -110 808 848">
  <g transform="translate(0, 628) scale(1, -1)">
    <path fill="black" d="M785 -110Q785 -88 784.5 -65.0Q784 -42 783 -18Q691 -18 593.0 -24.5Q495 -31 402.0 -42.5Q309 -54 231.0 -68.0Q153 -82 100 -98Q106 -68 109.5 -39.5Q113 -11 113 15Q113 41 109.5 67.0Q106 93 100 118Q125 109 157 101Q156 133 154.0 179.5Q152 226 149.0 277.5Q146 329 141.0 378.5Q136 428 129.0 467.0Q122 506 114 526Q141 520 163 520Q187 520 220 526Q213 509 207.5 469.5Q202 430 197.5 378.5Q193 327 189.5 273.0Q186 219 183.5 172.0Q181 125 179 95Q237 80 309.5 66.0Q382 52 461.5 40.5Q541 29 623.0 22.0Q705 15 782 14Q778 106 770.0 208.5Q762 311 750.0 412.0Q738 513 722 599Q544 592 401.5 570.5Q259 549 170 522Q176 552 179.5 580.5Q183 609 183 635Q183 661 179.5 687.0Q176 713 170 738Q258 708 398.0 678.5Q538 649 714 638Q709 665 703.5 689.5Q698 714 692 736Q743 724 797 724Q851 724 908 736Q894 686 880.5 607.5Q867 529 855.5 434.5Q844 340 834.5 241.5Q825 143 820.0 52.0Q815 -39 815 -110ZM235 147Q234 170 232.0 202.5Q230 235 226.5 268.0Q223 301 219.5 327.5Q216 354 212 365Q226 362 237.5 362.0Q249 362 261 363Q263 372 261 380H259Q259 383 261 387Q261 388 260.5 389.0Q260 390 260 391L261 390Q266 414 259 447Q284 440 311.0 434.5Q338 429 378.0 425.5Q418 422 481 421Q481 423 480.5 423.5Q480 424 480 425Q497 423 511.0 423.5Q525 424 538 425L536 421H538V412H534Q532 402 530.0 389.5Q528 377 526 362Q539 361 549.0 361.5Q559 362 570 363Q597 360 618 363Q646 360 667 363Q659 344 655.0 321.0Q651 298 648 268Q665 278 685.0 291.5Q705 305 729 322Q678 360 642.5 380.0Q607 400 579.5 412.0Q552 424 524 436Q538 447 551.5 463.5Q565 480 574 499Q589 478 609.0 453.5Q629 429 661.0 398.0Q693 367 744 324Q692 281 660.0 249.0Q628 217 608.5 193.0Q589 169 574 147Q554 185 524 210L542 217V218H516L513 181H505L503 217Q427 216 361.5 209.0Q296 202 259 191Q265 219 262 240H260Q260 242 260.5 244.5Q261 247 261 249Q261 251 260.5 253.5Q260 256 259 259Q260 259 260.0 258.5Q260 258 261 258Q261 263 261.0 268.0Q261 273 260 277Q263 297 260 316V317Q261 321 261.0 324.5Q261 328 261 332Q257 307 253.5 273.5Q250 240 247.5 206.5Q245 173 243 147ZM490 376 484 411Q423 409 374.0 402.5Q325 396 284 386Q309 384 348.0 381.5Q387 379 426.0 378.0Q465 377 490 376ZM494 339 491 368Q470 368 438.0 366.5Q406 365 372.0 363.0Q338 361 309.5 359.0Q281 357 267 354Q266 353 266 352Q280 350 308.5 347.5Q337 345 372.5 343.5Q408 342 440.5 340.5Q473 339 494 339ZM600 242 637 261Q635 294 630.0 319.5Q625 345 618 362Q611 342 607.5 309.5Q604 277 600 242ZM550 220 588 237Q586 274 582.0 309.0Q578 344 570 362Q561 339 557.5 300.0Q554 261 550 220ZM516 227H541Q540 262 535.5 296.0Q531 330 525 352Q522 322 520.0 289.0Q518 256 516 227ZM497 300 495 331Q474 331 439.0 329.5Q404 328 367.5 326.0Q331 324 301.5 321.5Q272 319 261 316Q271 313 300.5 310.0Q330 307 368.0 305.0Q406 303 441.0 301.5Q476 300 497 300ZM500 263 498 293Q478 293 443.5 291.5Q409 290 371.0 288.0Q333 286 303.0 283.0Q273 280 262 277Q273 274 303.0 271.5Q333 269 371.0 267.5Q409 266 444.5 264.5Q480 263 500 263ZM502 227Q502 234 501.5 241.0Q501 248 500 255Q482 255 448.0 253.5Q414 252 377.0 250.5Q340 249 309 246Q347 239 393.5 234.0Q440 229 502 227Z" />
  </g>
</svg>