<svg xmlns="http://www.w3.org/2000/svg" viewBox="100 -110 808 848">
  <g transform="translate(0, 628) scale(1, -1)">
    <path fill="black" d="M785 -110Q785 -88 784.5 -65.0Q784 -42 783 -18Q691 -18 593.0 -24.5Q495 -31 402.0 -42.5Q309 -54 231.0 -68.0Q153 -82 100 -98Q106 -68 109.5 -39.5Q113 -11 113 15Q113 41 109.5 67.0Q106 93 100 118Q125 109 157 101Q156 133 154.0 179.5Q152 226 149.0 277.5Q146 329 141.0 378.5Q136 428 129.0 467.0Q122 506 114 526Q141 520 163 520Q187 520 220 526Q213 509 207.5 469.5Q202 430 197.5 378.5Q193 327 189.5 273.0Q186 219 183.5 172.0Q181 125 179 95Q237 80 309.5 66.0Q382 52 461.5 40.5Q541 29 623.0 22.0Q705 15 782 14Q778 106 770.0 208.5Q762 311 750.0 412.0Q738 513 722 599Q544 592 401.5 570.5Q259 549 170 522Q176 552 179.5 580.5Q183 609 183 635Q183 661 179.5 687.0Q176 713 170 738Q258 708 398.0 678.5Q538 649 714 638Q709 665 703.5 689.5Q698 714 692 736Q743 724 797 724Q851 724 908 736Q894 686 880.5 607.5Q867 529 855.5 434.5Q844 340 834.5 241.5Q825 143 820.0 52.0Q815 -39 815 -110ZM380 121Q375 205 369.5 259.5Q364 314 358.5 347.5Q353 381 347.0 402.0Q341 423 335.0 439.0Q329 455 322 474Q351 468 379 468Q408 468 439 474Q432 453 425.0 432.5Q418 412 412.0 379.0Q406 346 401.5 289.0Q397 232 394 139Q415 159 431.5 176.0Q448 193 461 208Q459 240 451.5 273.0Q444 306 436.0 331.5Q428 357 422 364Q433 362 444.0 361.0Q455 360 466 360Q477 360 489.0 361.0Q501 362 514 364Q509 358 501.5 336.0Q494 314 487.0 284.5Q480 255 476 226Q501 255 517.5 280.5Q534 306 550 333Q547 363 540.0 393.5Q533 424 525.0 446.5Q517 469 511 475Q522 473 533.0 472.0Q544 471 555 471Q566 471 578.5 472.0Q591 473 604 475Q597 468 586.5 434.0Q576 400 569 362L578 375Q599 344 621.5 318.5Q644 293 669 273Q634 260 605.0 249.0Q576 238 546.0 223.0Q516 208 479.5 184.0Q443 160 394 121Z" />
  </g>
</svg>