<svg xmlns="http://www.w3.org/2000/svg" viewBox="100 -110 808 848">
  <g transform="translate(0, 628) scale(1, -1)">
    <path fill="black" d="M785 -110 783 -18Q612 -22 439.5 -38.0Q267 -54 100 -98Q110 -45 112.5 9.5Q115 64 100 118L157 101Q155 154 152.0 215.0Q149 276 144.5 335.5Q140 395 132.5 445.0Q125 495 114 526H171Q196 635 170 738Q261 710 346.5 690.0Q432 670 522.0 657.5Q612 645 714 638Q710 663 704.0 687.0Q698 711 692 736Q745 723 799.5 724.0Q854 725 908 736Q895 683 881.5 607.5Q868 532 856.5 443.0Q845 354 836.0 258.5Q827 163 821.5 69.0Q816 -25 815 -110ZM179 95Q270 72 372.5 54.0Q475 36 580.5 26.0Q686 16 782 14Q773 160 761.0 306.5Q749 453 722 599Q593 593 456.0 578.0Q319 563 184 526H220Q210 490 203.5 439.0Q197 388 192.5 328.5Q188 269 185.0 209.0Q182 149 179 95ZM592 78Q578 107 552 128L556 130H555L553 153Q498 153 447.0 146.5Q396 140 345 124Q353 157 345 191Q402 174 449.5 167.5Q497 161 553 161Q551 187 548.5 213.5Q546 240 543 266Q494 266 443.5 259.5Q393 253 345 237Q352 270 345 304Q380 294 416.0 286.5Q452 279 487 276Q476 299 452 318L456 320H455L453 343Q394 342 345.5 336.0Q297 330 245 314Q252 346 245 381Q295 365 344.5 358.0Q394 351 453 351Q451 377 448.5 403.0Q446 429 443 455Q391 455 342.0 448.0Q293 441 245 426Q252 459 245 493Q295 478 342.5 470.5Q390 463 442 463Q441 469 439.0 477.0Q437 485 435 492Q446 491 455.5 490.0Q465 489 476 490L452 500Q477 523 492 551Q521 511 559.0 475.0Q597 439 632 409Q598 380 560.5 346.0Q523 312 497 276Q508 275 519.5 274.5Q531 274 542 274Q541 281 539.0 288.0Q537 295 535 302Q557 297 576 300L552 310Q575 330 592 361Q616 326 656.5 287.5Q697 249 732 219Q697 188 659.0 153.5Q621 119 592 78ZM460 321Q506 338 542.0 358.0Q578 378 618 409Q584 434 549.5 454.5Q515 475 481 488Q471 457 468.0 410.0Q465 363 460 321ZM560 131Q600 146 634.5 164.0Q669 182 718 219Q684 245 650.0 265.0Q616 285 581 298Q571 264 568.0 218.5Q565 173 560 131Z" />
  </g>
</svg>