<svg xmlns="http://www.w3.org/2000/svg" viewBox="100 -110 808 848">
  <g transform="translate(0, 628) scale(1, -1)">
    <path fill="black" d="M785 -110Q785 -88 784.5 -65.0Q784 -42 783 -18Q691 -18 593.0 -24.5Q495 -31 402.0 -42.5Q309 -54 231.0 -68.0Q153 -82 100 -98Q106 -68 109.5 -39.5Q113 -11 113 15Q113 41 109.5 67.0Q106 93 100 118Q125 109 157 101Q156 133 154.0 179.5Q152 226 149.0 277.5Q146 329 141.0 378.5Q136 428 129.0 467.0Q122 506 114 526Q141 520 163 520Q187 520 220 526Q213 509 207.5 469.5Q202 430 197.5 378.5Q193 327 189.5 273.0Q186 219 183.5 172.0Q181 125 179 95Q237 80 309.5 66.0Q382 52 461.5 40.5Q541 29 623.0 22.0Q705 15 782 14Q778 106 770.0 208.5Q762 311 750.0 412.0Q738 513 722 599Q544 592 401.5 570.5Q259 549 170 522Q176 552 179.5 580.5Q183 609 183 635Q183 661 179.5 687.0Q176 713 170 738Q258 708 398.0 678.5Q538 649 714 638Q709 665 703.5 689.5Q698 714 692 736Q743 724 797 724Q851 724 908 736Q894 686 880.5 607.5Q867 529 855.5 434.5Q844 340 834.5 241.5Q825 143 820.0 52.0Q815 -39 815 -110ZM440 162Q427 181 409.0 198.5Q391 216 373 226Q391 236 405.0 243.0Q419 250 435.0 259.5Q451 269 475 287Q426 283 382.5 277.5Q339 272 308.5 266.5Q278 261 266 255Q269 282 269 309Q269 335 266 357Q288 347 347.0 336.5Q406 326 479 319Q454 339 437.0 349.0Q420 359 405.5 366.5Q391 374 373 384Q391 395 409.0 412.5Q427 430 440 449Q449 432 457.5 416.5Q466 401 480.5 380.5Q495 360 523 326Q546 346 575.0 372.0Q604 398 641 434L650 429Q617 393 592.5 365.0Q568 337 548 314Q583 312 618.0 310.5Q653 309 684 309V297Q654 297 620.0 296.0Q586 295 551 293Q570 271 594.5 244.0Q619 217 650 182L641 176Q604 212 575.0 238.5Q546 265 523 284Q495 250 480.5 229.5Q466 209 457.5 194.0Q449 179 440 162Z" />
  </g>
</svg>