<svg xmlns="http://www.w3.org/2000/svg" viewBox="100 -110 808 848">
  <g transform="translate(0, 628) scale(1, -1)">
    <path fill="black" d="M785 -110Q785 -88 784.5 -65.0Q784 -42 783 -18Q691 -18 593.0 -24.5Q495 -31 402.0 -42.5Q309 -54 231.0 -68.0Q153 -82 100 -98Q106 -68 109.5 -39.5Q113 -11 113 15Q113 41 109.5 67.0Q106 93 100 118Q125 109 157 101Q156 133 154.0 179.5Q152 226 149.0 277.5Q146 329 141.0 378.5Q136 428 129.0 467.0Q122 506 114 526Q141 520 163 520Q187 520 220 526Q213 509 207.5 469.5Q202 430 197.5 378.5Q193 327 189.5 273.0Q186 219 183.5 172.0Q181 125 179 95Q237 80 309.5 66.0Q382 52 461.5 40.5Q541 29 623.0 22.0Q705 15 782 14Q778 106 770.0 208.5Q762 311 750.0 412.0Q738 513 722 599Q544 592 401.5 570.5Q259 549 170 522Q176 552 179.5 580.5Q183 609 183 635Q183 661 179.5 687.0Q176 713 170 738Q258 708 398.0 678.5Q538 649 714 638Q709 665 703.5 689.5Q698 714 692 736Q743 724 797 724Q851 724 908 736Q894 686 880.5 607.5Q867 529 855.5 434.5Q844 340 834.5 241.5Q825 143 820.0 52.0Q815 -39 815 -110ZM512 79Q486 111 456 127L463 130Q433 158 399.5 186.5Q366 215 336.5 238.0Q307 261 289 270Q301 277 311.5 285.0Q322 293 332 303Q322 314 311.5 321.5Q301 329 289 336Q307 345 336.0 367.0Q365 389 398.0 418.0Q431 447 461 474L456 477Q487 495 512 526Q517 512 537.0 484.0Q557 456 583.5 422.5Q610 389 636.5 357.5Q663 326 682 303Q663 280 636.5 248.0Q610 216 583.5 182.5Q557 149 537.0 121.0Q517 93 512 79ZM478 140Q504 157 538.0 186.0Q572 215 607.0 246.5Q642 278 667 302Q649 319 626.0 340.5Q603 362 578 384Q571 359 568.0 323.5Q565 288 563 217H557Q556 243 554.5 263.5Q553 284 551 300Q547 299 539.5 299.0Q532 299 523 298Q522 279 521.0 259.5Q520 240 519 225H514Q513 241 511.0 260.0Q509 279 507 298Q504 298 501.0 297.5Q498 297 495 297Q493 278 492.0 259.0Q491 240 490 225H484Q483 241 481.5 259.5Q480 278 478 296H465Q463 277 462.0 258.0Q461 239 460 225H456L450 295Q446 295 442.5 294.5Q439 294 436 294Q434 276 433.0 257.5Q432 239 432 225H427L421 294Q402 293 389.0 292.0Q376 291 374 290Q375 293 375 299Q375 304 374.5 308.5Q374 313 374 317Q376 316 388.5 315.0Q401 314 419 312Q417 327 414.5 339.5Q412 352 409 360Q414 359 418.0 358.5Q422 358 426 358Q429 358 432.0 358.5Q435 359 439 359V360Q440 360 440.5 359.5Q441 359 442 359Q444 359 445.0 359.5Q446 360 447 360Q447 359 446.5 359.0Q446 359 446 358Q451 358 456.5 358.0Q462 358 467 359V360Q468 360 469.0 359.5Q470 359 471 359Q472 359 473.5 359.5Q475 360 476 360Q476 359 475.5 359.0Q475 359 475 358Q480 358 485.5 358.0Q491 358 496 359V360Q497 360 498.0 359.5Q499 359 500 359Q503 359 505 360Q505 359 504.5 359.0Q504 359 504 358H511Q516 358 521.5 358.5Q527 359 534 360Q527 343 524 305Q532 304 539.0 304.0Q546 304 551 304Q548 333 544.5 350.5Q541 368 536 387Q541 386 546.5 385.5Q552 385 557 385Q562 385 566.5 385.0Q571 385 575 386Q549 409 523.0 430.0Q497 451 477 464Q454 437 429.0 406.5Q404 376 383.5 348.5Q363 321 352 302Q364 284 384.5 256.5Q405 229 430.0 198.5Q455 168 478 140ZM477 307Q475 329 471 345Q470 338 469.0 328.5Q468 319 466 308Q469 308 472.0 307.5Q475 307 477 307ZM438 310H448Q447 320 446.0 329.0Q445 338 443 345Q442 338 440.5 329.5Q439 321 438 310ZM496 306H506L500 343Q499 336 498.0 326.5Q497 317 496 306Z" />
  </g>
</svg>