<svg xmlns="http://www.w3.org/2000/svg" viewBox="100 -110 808 848">
  <g transform="translate(0, 628) scale(1, -1)">
    <path fill="black" d="M785 -110Q785 -88 784.5 -65.0Q784 -42 783 -18Q691 -18 593.0 -24.5Q495 -31 402.0 -42.5Q309 -54 231.0 -68.0Q153 -82 100 -98Q106 -68 109.5 -39.5Q113 -11 113 15Q113 41 109.5 67.0Q106 93 100 118Q125 109 157 101Q156 133 154.0 179.5Q152 226 149.0 277.5Q146 329 141.0 378.5Q136 428 129.0 467.0Q122 506 114 526Q141 520 163 520Q187 520 220 526Q213 509 207.5 469.5Q202 430 197.5 378.5Q193 327 189.5 273.0Q186 219 183.5 172.0Q181 125 179 95Q237 80 309.5 66.0Q382 52 461.5 40.5Q541 29 623.0 22.0Q705 15 782 14Q778 106 770.0 208.5Q762 311 750.0 412.0Q738 513 722 599Q544 592 401.5 570.5Q259 549 170 522Q176 552 179.5 580.5Q183 609 183 635Q183 661 179.5 687.0Q176 713 170 738Q258 708 398.0 678.5Q538 649 714 638Q709 665 703.5 689.5Q698 714 692 736Q743 724 797 724Q851 724 908 736Q894 686 880.5 607.5Q867 529 855.5 434.5Q844 340 834.5 241.5Q825 143 820.0 52.0Q815 -39 815 -110ZM485 116Q482 167 480.0 193.0Q478 219 477.0 229.5Q476 240 475 244Q472 244 468.0 244.0Q464 244 459 243L469 228L459 220L435 242Q404 240 366.5 236.5Q329 233 301.0 230.0Q273 227 267 225Q268 230 268.5 236.0Q269 242 269 247Q269 252 268.5 257.5Q268 263 267 269Q273 267 298.5 263.5Q324 260 358.5 257.0Q393 254 424 252L378 293Q339 289 306.0 285.5Q273 282 267 280Q268 286 268.5 291.5Q269 297 269 302Q269 307 268.5 313.0Q268 319 267 325Q272 322 298.5 319.0Q325 316 358 313Q371 323 383.5 332.0Q396 341 407 351Q377 349 346.5 345.5Q316 342 294.0 339.5Q272 337 267 335Q268 341 268.5 346.5Q269 352 269 357Q269 362 268.5 368.0Q268 374 267 380Q273 378 298.0 374.5Q323 371 357.0 368.0Q391 365 422 363L457 393L454 406V409Q431 408 401.0 405.5Q371 403 342.0 400.0Q313 397 292.5 394.5Q272 392 267 391Q268 396 268.5 402.0Q269 408 269 413Q269 418 268.5 423.5Q268 429 267 435Q272 433 292.0 430.5Q312 428 341.0 425.5Q370 423 399.5 420.5Q429 418 452 417Q450 427 447.5 436.5Q445 446 440 457Q454 456 467.0 454.0Q480 452 493 452Q503 452 508.5 453.0Q514 454 534 457Q528 446 523.0 419.5Q518 393 515 376Q548 363 599.0 349.5Q650 336 717 334V324Q647 317 600.0 303.5Q553 290 514 274Q516 285 517.0 298.5Q518 312 518 326Q518 351 515 372Q512 352 508.5 311.0Q505 270 502.0 219.0Q499 168 497 116ZM462 361Q462 365 461.5 368.5Q461 372 460 376L452 362Q456 361 462 361ZM469 306 463 354H448Q441 342 435.5 331.5Q430 321 425 310L426 308Q439 307 450.0 306.5Q461 306 469 306Z" />
  </g>
</svg>