<svg xmlns="http://www.w3.org/2000/svg" viewBox="100 -110 843 848">
  <g transform="translate(0, 628) scale(1, -1)">
    <path fill="black" d="M785 -110Q785 -88 784.5 -65.0Q784 -42 783 -18Q691 -18 593.0 -24.5Q495 -31 402.0 -42.5Q309 -54 231.0 -68.0Q153 -82 100 -98Q106 -68 109.5 -39.5Q113 -11 113 15Q113 41 109.5 67.0Q106 93 100 118Q125 109 157 101Q156 133 154.0 179.5Q152 226 149.0 277.5Q146 329 141.0 378.5Q136 428 129.0 467.0Q122 506 114 526Q141 520 163 520Q187 520 220 526Q213 509 207.5 469.5Q202 430 197.5 378.5Q193 327 189.5 273.0Q186 219 183.5 172.0Q181 125 179 95Q237 80 309.5 66.0Q382 52 461.5 40.5Q541 29 623.0 22.0Q705 15 782 14Q780 56 777.5 101.0Q775 146 771 192L766 189Q744 209 735.0 218.0Q726 227 712 236Q710 226 709.0 208.0Q708 190 708 176H700Q699 201 695.0 221.5Q691 242 684.0 267.0Q677 292 666 330Q671 329 676.5 327.5Q682 326 688 326Q684 365 679.0 391.5Q674 418 666 446Q683 441 699 441Q714 441 734 446Q727 422 722.0 394.5Q717 367 714 326Q719 326 724.0 327.5Q729 329 734 330Q727 305 721.5 282.0Q716 259 712 239Q721 247 732.5 255.0Q744 263 764 282Q756 365 745.5 447.0Q735 529 722 599Q544 592 401.5 570.5Q259 549 170 522Q176 552 179.5 580.5Q183 609 183 635Q183 661 179.5 687.0Q176 713 170 738Q258 708 398.0 678.5Q538 649 714 638Q709 665 703.5 689.5Q698 714 692 736Q743 724 797 724Q851 724 908 736Q895 687 881.5 609.5Q868 532 856 441Q867 441 877.5 442.0Q888 443 898 446Q891 422 886.0 394.5Q881 367 878 326H881V327Q890 335 902.0 343.5Q914 352 936 373L943 370Q935 357 930.0 347.5Q925 338 918 327Q925 317 930.0 306.0Q935 295 943 283L936 278Q920 293 911.0 301.5Q902 310 894 317Q886 286 880.0 259.0Q874 232 872 209Q871 202 871.0 193.0Q871 184 871 176H863Q862 185 862.0 197.0Q862 209 861 213Q858 230 852.5 250.0Q847 270 839 295Q828 185 821.5 78.0Q815 -29 815 -110ZM231 127Q224 138 216.5 145.0Q209 152 200 158Q204 159 216 168Q214 183 211.5 205.5Q209 228 206.5 251.5Q204 275 201.5 293.0Q199 311 197 317Q202 316 207.5 314.5Q213 313 218 313L217 314Q225 318 231.5 322.5Q238 327 244 334Q238 340 231.5 345.5Q225 351 217 356Q235 365 262.5 386.0Q290 407 316 431Q321 436 325.0 441.5Q329 447 333 454Q338 445 355.0 428.0Q372 411 394.5 391.5Q417 372 436 354Q436 359 435.5 363.5Q435 368 434 372Q463 360 519.5 348.5Q576 337 644 337V327Q579 327 523.5 316.5Q468 306 434 292L437 318Q418 301 395.5 281.0Q373 261 355.5 244.5Q338 228 333 219Q329 227 325.0 231.0Q321 235 316 239Q302 222 283.0 197.5Q264 173 249.0 153.0Q234 133 231 127ZM314 258 331 266Q328 294 325.0 322.0Q322 350 320 357Q325 356 330.0 355.5Q335 355 340 355Q344 355 347.5 355.5Q351 356 355 357Q352 351 349.0 325.0Q346 299 343 273Q365 285 390.5 301.0Q416 317 437 331V341Q408 360 372.5 381.5Q337 403 314 413Q297 392 281.0 370.5Q265 349 257 334Q265 320 281.0 299.5Q297 279 314 258ZM852 326Q851 337 849.5 346.5Q848 356 847 365Q846 355 845.0 345.5Q844 336 843 327Q846 326 852 326ZM220 171Q240 185 266.0 206.5Q292 228 311 243Q271 280 236 302Q234 287 231.0 262.0Q228 237 225.0 212.0Q222 187 220 171ZM771 195 765 268Q760 260 756.0 252.5Q752 245 747 237Q753 227 758.0 217.0Q763 207 771 195Z" />
  </g>
</svg>