<svg xmlns="http://www.w3.org/2000/svg" viewBox="100 -110 808 848">
  <g transform="translate(0, 628) scale(1, -1)">
    <path fill="black" d="M785 -110Q785 -88 784.5 -65.0Q784 -42 783 -18Q691 -18 593.0 -24.5Q495 -31 402.0 -42.5Q309 -54 231.0 -68.0Q153 -82 100 -98Q106 -68 109.5 -39.5Q113 -11 113 15Q113 41 109.5 67.0Q106 93 100 118Q125 109 157 101Q156 133 154.0 179.5Q152 226 149.0 277.5Q146 329 141.0 378.5Q136 428 129.0 467.0Q122 506 114 526Q141 520 163 520Q187 520 220 526Q213 509 207.5 469.5Q202 430 197.5 378.5Q193 327 189.5 273.0Q186 219 183.5 172.0Q181 125 179 95Q237 80 309.5 66.0Q382 52 461.5 40.5Q541 29 623.0 22.0Q705 15 782 14Q778 103 770.5 202.5Q763 302 751 399Q748 374 744.5 333.0Q741 292 738 226H734V242Q667 242 621.5 236.5Q576 231 544 222Q550 244 544 268Q545 267 548 267L542 322Q502 318 469.5 309.5Q437 301 414 292L417 317Q395 294 371.0 268.0Q347 242 333 219Q329 224 325.0 229.5Q321 235 316 239Q302 222 283.0 197.5Q264 173 249.0 153.0Q234 133 231 127Q224 138 216.5 145.0Q209 152 200 158Q204 159 216 168Q214 183 211.5 205.5Q209 228 206.5 251.5Q204 275 201.5 293.0Q199 311 197 317Q202 316 207.5 314.5Q213 313 218 313L217 314Q225 318 231.5 322.5Q238 327 244 334Q238 340 231.5 345.5Q225 351 217 356Q233 364 256.0 381.5Q279 399 303 419L299 421Q318 433 333 454Q334 451 338 445L340 444L339 443Q350 427 372.5 403.0Q395 379 416 356Q416 360 415.5 364.0Q415 368 414 372Q433 364 466.0 355.5Q499 347 540 342Q538 360 536.0 374.5Q534 389 532 393Q542 392 552.0 391.5Q562 391 573 393Q571 389 568.5 374.0Q566 359 564 339Q575 338 586.5 337.5Q598 337 610 337Q610 340 608 346Q617 342 645 339Q644 352 642.0 362.0Q640 372 638 376Q646 375 653.0 374.0Q660 373 668 376Q667 372 664.5 361.0Q662 350 660 336L697 331V328Q689 327 679.0 326.5Q669 326 658 324L653 287H650Q649 295 648.5 304.0Q648 313 646 323Q633 321 622.5 319.5Q612 318 608 316Q608 318 608.5 321.0Q609 324 609 327L562 324L556 265Q615 251 733 248Q732 314 727.5 351.0Q723 388 718 411Q663 410 622.5 404.5Q582 399 554 392Q560 413 554 438Q604 424 716 419L710 444Q725 439 746 441Q735 527 722 599Q544 592 401.5 570.5Q259 549 170 522Q176 552 179.5 580.5Q183 609 183 635Q183 661 179.5 687.0Q176 713 170 738Q258 708 398.0 678.5Q538 649 714 638Q709 665 703.5 689.5Q698 714 692 736Q743 724 797 724Q851 724 908 736Q894 686 880.5 607.5Q867 529 855.5 434.5Q844 340 834.5 241.5Q825 143 820.0 52.0Q815 -39 815 -110ZM313 259 330 270Q328 296 325.0 323.0Q322 350 320 357Q328 356 337.0 355.0Q346 354 355 357Q353 351 349.5 327.5Q346 304 343 278Q361 291 380.5 306.0Q400 321 417 334V339Q392 359 363.0 380.0Q334 401 314 413Q297 391 281.0 370.0Q265 349 257 334Q265 320 280.5 299.5Q296 279 313 259ZM220 171Q240 185 266.0 206.0Q292 227 311 243L299 252H301Q284 266 267.0 279.5Q250 293 236 302Q234 287 231.0 262.0Q228 237 225.0 212.0Q222 187 220 171Z" />
  </g>
</svg>