<svg xmlns="http://www.w3.org/2000/svg" viewBox="100 -110 808 848">
  <g transform="translate(0, 628) scale(1, -1)">
    <path fill="black" d="M785 -110Q785 -88 784.5 -65.0Q784 -42 783 -18Q691 -18 593.0 -24.5Q495 -31 402.0 -42.5Q309 -54 231.0 -68.0Q153 -82 100 -98Q106 -68 109.5 -39.5Q113 -11 113 15Q113 41 109.5 67.0Q106 93 100 118Q125 109 157 101Q156 133 154.0 179.5Q152 226 149.0 277.5Q146 329 141.0 378.5Q136 428 129.0 467.0Q122 506 114 526Q141 520 163 520Q187 520 220 526Q213 509 207.5 469.5Q202 430 197.5 378.5Q193 327 189.5 273.0Q186 219 183.5 172.0Q181 125 179 95Q237 80 309.5 66.0Q382 52 461.5 40.5Q541 29 623.0 22.0Q705 15 782 14Q778 106 770.0 208.5Q762 311 750.0 412.0Q738 513 722 599Q544 592 401.5 570.5Q259 549 170 522Q176 552 179.5 580.5Q183 609 183 635Q183 661 179.5 687.0Q176 713 170 738Q258 708 398.0 678.5Q538 649 714 638Q709 665 703.5 689.5Q698 714 692 736Q743 724 797 724Q851 724 908 736Q894 686 880.5 607.5Q867 529 855.5 434.5Q844 340 834.5 241.5Q825 143 820.0 52.0Q815 -39 815 -110ZM483 99 474 108Q443 141 404.0 178.0Q365 215 328.5 245.5Q292 276 268 288L300 307L298 309Q325 342 353.0 380.5Q381 419 402.5 454.0Q424 489 431 509Q456 477 486 459Q515 477 541 509Q549 489 572.5 454.0Q596 419 626.5 380.0Q657 341 684 307L675 300L697 288Q679 279 652.0 257.5Q625 236 594.5 208.5Q564 181 535.0 152.0Q506 123 483 99ZM482 119Q500 144 521.5 173.5Q543 203 562 232Q540 230 515.5 228.0Q491 226 472.5 224.0Q454 222 450 220Q452 229 452.5 238.5Q453 248 450 258Q455 255 475.0 252.5Q495 250 521.0 247.5Q547 245 569 243L594 282Q567 280 535.0 278.0Q503 276 479.0 274.0Q455 272 450 270Q452 279 452.5 288.0Q453 297 450 307Q455 305 481.0 302.5Q507 300 540.5 297.5Q574 295 601 293Q608 305 613.5 315.5Q619 326 622 334Q604 332 576.5 330.0Q549 328 521.5 326.5Q494 325 474.0 323.0Q454 321 450 319Q452 328 452.5 337.5Q453 347 450 357Q454 355 475.0 352.5Q496 350 524.0 348.0Q552 346 579.5 344.0Q607 342 625 340H633L583 383Q562 381 532.5 378.5Q503 376 479.0 373.5Q455 371 450 369Q452 378 452.5 387.0Q453 396 450 406Q455 404 475.5 401.5Q496 399 523.0 396.5Q550 394 572 392Q522 432 486 452Q455 436 418.0 403.5Q381 371 342 334Q352 312 376.0 274.0Q400 236 429.0 194.5Q458 153 482 119ZM673 301Q665 310 655.5 318.5Q646 327 637 336Q635 335 630 335Q640 325 651.0 317.0Q662 309 673 301Z" />
  </g>
</svg>