<svg xmlns="http://www.w3.org/2000/svg" viewBox="100 -110 808 848">
  <g transform="translate(0, 628) scale(1, -1)">
    <path fill="black" d="M785 -110Q785 -88 784.5 -65.0Q784 -42 783 -18Q691 -18 593.0 -24.5Q495 -31 402.0 -42.5Q309 -54 231.0 -68.0Q153 -82 100 -98Q106 -68 109.5 -39.5Q113 -11 113 15Q113 41 109.5 67.0Q106 93 100 118Q125 109 157 101Q156 133 154.0 179.5Q152 226 149.0 277.5Q146 329 141.0 378.5Q136 428 129.0 467.0Q122 506 114 526Q141 520 163 520Q187 520 220 526Q213 509 207.5 469.5Q202 430 197.5 378.5Q193 327 189.5 273.0Q186 219 183.5 172.0Q181 125 179 95Q237 80 309.5 66.0Q382 52 461.5 40.5Q541 29 623.0 22.0Q705 15 782 14Q780 68 775.5 127.0Q771 186 766 247Q716 237 649.0 224.0Q582 211 510.0 196.5Q438 182 373.0 168.5Q308 155 261.5 143.5Q215 132 199 125Q200 164 187 197Q210 195 271.5 200.0Q333 205 411 215V228Q367 225 331.0 221.5Q295 218 290 216Q292 226 292.5 236.5Q293 247 290 258Q296 255 331.0 251.5Q366 248 410 245L408 279Q365 276 330.0 272.5Q295 269 290 267Q292 278 292.5 288.0Q293 298 290 310Q295 307 329.5 303.5Q364 300 407 297Q407 306 406.0 314.5Q405 323 405 331Q362 329 328.5 325.5Q295 322 290 320Q292 330 292.5 340.0Q293 350 290 361Q295 359 328.0 355.5Q361 352 404 349Q403 358 402.5 366.5Q402 375 402 382Q361 379 328.0 376.0Q295 373 290 371Q292 382 292.5 392.0Q293 402 290 413Q295 411 327.0 407.5Q359 404 400 401Q399 433 396 440Q407 438 416.0 438.5Q425 439 435 440Q434 438 433.0 427.0Q432 416 430 400Q454 399 477.0 397.5Q500 396 520 396Q517 414 514.0 429.5Q511 445 508 459Q483 459 448.5 457.0Q414 455 379.5 452.0Q345 449 320.0 446.0Q295 443 290 441Q291 446 291.5 450.5Q292 455 292 460Q286 438 282.0 417.0Q278 396 274.5 368.5Q271 341 268.0 302.0Q265 263 261 205H253Q251 280 247.5 327.5Q244 375 239.0 406.0Q234 437 227 462Q244 458 261 458Q277 458 292 462Q292 467 292.0 472.0Q292 477 290 483Q295 481 319.0 478.0Q343 475 377.0 472.5Q411 470 447.0 468.0Q483 466 512 466V461Q527 458 541 458Q557 458 572 462Q564 435 559.0 408.0Q554 381 550.0 342.5Q546 304 541 240H542V233H540V230Q602 238 661.0 245.5Q720 253 766 258Q758 347 747.0 435.0Q736 523 722 599Q544 592 401.5 570.5Q259 549 170 522Q176 552 179.5 580.5Q183 609 183 635Q183 661 179.5 687.0Q176 713 170 738Q258 708 398.0 678.5Q538 649 714 638Q709 665 703.5 689.5Q698 714 692 736Q743 724 797 724Q851 724 908 736Q894 686 880.5 607.5Q867 529 855.5 434.5Q844 340 834.5 241.5Q825 143 820.0 52.0Q815 -39 815 -110ZM664 248Q629 280 605.0 299.5Q581 319 561 335Q575 347 607.0 373.0Q639 399 664 429L672 421Q657 393 643.5 372.5Q630 352 619 335Q627 322 640.0 301.5Q653 281 672 255ZM525 344 521 388 429 383Q429 375 428.0 366.5Q427 358 427 348Q453 347 478.5 345.5Q504 344 525 344ZM529 292 526 337 426 332Q425 323 424.5 314.0Q424 305 424 296Q452 295 479.5 293.5Q507 292 529 292ZM531 240 529 285 423 280Q422 270 421.5 261.5Q421 253 421 245Q450 243 479.0 241.5Q508 240 531 240ZM419 216 531 229V233Q510 232 480.5 231.0Q451 230 420 228Q419 225 419.5 221.5Q420 218 419 216Z" />
  </g>
</svg>