<svg xmlns="http://www.w3.org/2000/svg" viewBox="100 -110 808 848">
  <g transform="translate(0, 628) scale(1, -1)">
    <path fill="black" d="M785 -110Q785 -88 784.5 -65.0Q784 -42 783 -18Q691 -18 593.0 -24.5Q495 -31 402.0 -42.5Q309 -54 231.0 -68.0Q153 -82 100 -98Q106 -68 109.5 -39.5Q113 -11 113 15Q113 41 109.5 67.0Q106 93 100 118Q125 109 157 101Q156 133 154.0 179.5Q152 226 149.0 277.5Q146 329 141.0 378.5Q136 428 129.0 467.0Q122 506 114 526Q141 520 163 520Q187 520 220 526Q213 509 207.5 469.5Q202 430 197.5 378.5Q193 327 189.5 273.0Q186 219 183.5 172.0Q181 125 179 95Q251 76 343.5 59.0Q436 42 536 30L555 58L509 89Q505 85 501.5 80.5Q498 76 495 71L491 74L504 92L476 111L463 94L459 97L471 114L444 132L432 116L427 120L439 136L411 154L400 140L396 143L406 157Q369 180 341.5 197.5Q314 215 310 216Q315 222 322.5 231.0Q330 240 333 249Q335 245 359.5 224.0Q384 203 418 175Q434 199 447.5 224.0Q461 249 465 264L457 268Q462 273 467.5 280.0Q473 287 477 294L476 295Q477 295 479 297Q479 299 481 301V300L492 312Q467 328 441.5 340.0Q416 352 402 356Q409 363 414.5 370.0Q420 377 424 387Q431 395 436.5 402.5Q442 410 446 420Q453 427 459.0 434.5Q465 442 469 452Q482 467 490 484Q497 473 521.5 450.5Q546 428 573 408L606 451Q569 474 543.5 489.0Q518 504 498 514Q483 492 461.5 458.5Q440 425 416.5 387.5Q393 350 372.0 316.0Q351 282 337.5 259.0Q324 236 323 233Q316 239 307.5 245.5Q299 252 290 256Q293 258 309.5 278.0Q326 298 350.5 329.0Q375 360 402.0 395.0Q429 430 453.0 462.5Q477 495 493 517Q482 522 472.0 526.0Q462 530 452 534Q474 554 483 579Q498 561 513.0 545.0Q528 529 551.5 509.5Q575 490 614 458L617 457L616 456L646 433L643 428L611 448Q604 438 596.5 426.0Q589 414 581 401Q586 397 590.5 394.0Q595 391 599 388L596 385L578 396Q568 381 561 367L577 356L574 352L558 363L542 334L555 325L551 320L539 328L523 299Q525 297 528.0 295.5Q531 294 533 292L529 288L520 294Q510 274 510 272Q533 250 565.5 222.5Q598 195 626 174Q632 185 636.0 195.0Q640 205 644 215Q664 192 688 182Q668 166 650.5 149.5Q633 133 608.5 105.5Q584 78 543 29Q604 22 664.0 18.0Q724 14 782 14Q778 106 770.0 208.5Q762 311 750.0 412.0Q738 513 722 599Q544 592 401.5 570.5Q259 549 170 522Q176 552 179.5 580.5Q183 609 183 635Q183 661 179.5 687.0Q176 713 170 738Q258 708 398.0 678.5Q538 649 714 638Q709 665 703.5 689.5Q698 714 692 736Q743 724 797 724Q851 724 908 736Q894 686 880.5 607.5Q867 529 855.5 434.5Q844 340 834.5 241.5Q825 143 820.0 52.0Q815 -39 815 -110ZM548 377 569 403Q542 420 514.0 434.0Q486 448 470 451Q477 440 500.0 418.5Q523 397 548 377ZM524 348 544 372Q517 389 489.5 402.0Q462 415 447 419Q455 408 477.0 387.5Q499 367 524 348ZM498 318 518 342Q493 358 466.5 370.0Q440 382 425 386Q432 376 453.0 356.5Q474 337 498 318ZM558 62Q582 97 597.5 123.0Q613 149 623 168Q596 186 561.0 208.0Q526 230 498 246Q494 249 489.0 251.5Q484 254 480 256Q484 253 488.5 250.5Q493 248 497 246Q487 239 466.0 217.0Q445 195 424 170L448 150Q466 177 480.0 204.0Q494 231 498 245Q505 239 512.5 233.5Q520 228 530 223Q537 216 544.0 210.5Q551 205 561 200Q569 194 576.0 188.5Q583 183 593 178Q582 171 559.0 146.5Q536 122 514 96ZM479 125Q496 151 510.5 179.0Q525 207 529 222Q519 214 496.5 192.0Q474 170 454 145ZM509 100Q527 127 541.5 155.0Q556 183 560 199Q549 192 526.5 169.0Q504 146 484 121Z" />
  </g>
</svg>