<svg xmlns="http://www.w3.org/2000/svg" viewBox="100 -110 808 848">
  <g transform="translate(0, 628) scale(1, -1)">
    <path fill="black" d="M785 -110Q785 -88 784.5 -65.0Q784 -42 783 -18Q691 -18 593.0 -24.5Q495 -31 402.0 -42.5Q309 -54 231.0 -68.0Q153 -82 100 -98Q106 -68 109.5 -39.5Q113 -11 113 15Q113 41 109.5 67.0Q106 93 100 118Q125 109 157 101Q156 133 154.0 179.5Q152 226 149.0 277.5Q146 329 141.0 378.5Q136 428 129.0 467.0Q122 506 114 526Q141 520 163 520Q187 520 220 526Q213 509 207.5 469.5Q202 430 197.5 378.5Q193 327 189.5 273.0Q186 219 183.5 172.0Q181 125 179 95Q237 80 309.5 66.0Q382 52 461.5 40.5Q541 29 623.0 22.0Q705 15 782 14Q778 106 770.0 208.5Q762 311 750.0 412.0Q738 513 722 599Q544 592 401.5 570.5Q259 549 170 522Q176 552 179.5 580.5Q183 609 183 635Q183 661 179.5 687.0Q176 713 170 738Q258 708 398.0 678.5Q538 649 714 638Q709 665 703.5 689.5Q698 714 692 736Q743 724 797 724Q851 724 908 736Q894 686 880.5 607.5Q867 529 855.5 434.5Q844 340 834.5 241.5Q825 143 820.0 52.0Q815 -39 815 -110ZM619 115 617 156Q560 156 499.0 150.5Q438 145 385.5 137.0Q333 129 301 119Q307 146 307 171Q307 196 301 220Q313 215 327 212Q327 230 325.5 258.5Q324 287 321.5 317.0Q319 347 315.5 372.0Q312 397 307 409Q321 406 331.5 406.5Q342 407 357 409Q353 399 350.0 373.5Q347 348 344.5 316.5Q342 285 340.0 255.5Q338 226 337 209Q373 200 420.0 191.5Q467 183 518.0 177.5Q569 172 617 171Q613 242 606.0 315.0Q599 388 589 443Q507 440 441.0 430.0Q375 420 333 407Q339 436 339 460Q339 484 333 508Q374 494 439.0 480.0Q504 466 586 461Q584 475 581.0 486.5Q578 498 576 508Q590 505 603.0 504.0Q616 503 629 503Q641 503 653.0 504.0Q665 505 677 508Q668 478 660.5 432.5Q653 387 647.0 332.5Q641 278 637.5 222.0Q634 166 634 115Z" />
  </g>
</svg>