<svg xmlns="http://www.w3.org/2000/svg" viewBox="100 -110 808 848">
  <g transform="translate(0, 628) scale(1, -1)">
    <path fill="black" d="M785 -110Q785 -88 784.5 -65.0Q784 -42 783 -18Q691 -18 593.0 -24.5Q495 -31 402.0 -42.5Q309 -54 231.0 -68.0Q153 -82 100 -98Q106 -68 109.5 -39.5Q113 -11 113 15Q113 41 109.5 67.0Q106 93 100 118Q125 109 157 101Q156 133 154.0 179.5Q152 226 149.0 277.5Q146 329 141.0 378.5Q136 428 129.0 467.0Q122 506 114 526Q141 520 163 520Q187 520 220 526Q214 511 209.0 477.5Q204 444 199 401Q211 410 227.5 423.5Q244 437 269 459L278 455Q265 433 256.0 415.5Q247 398 237 381Q247 364 256.0 346.0Q265 328 278 308Q265 287 256.0 269.5Q247 252 237 235Q247 219 256.0 201.0Q265 183 278 163L269 154Q236 184 220.0 198.5Q204 213 186 226L179 95Q237 80 309.5 66.0Q382 52 461.5 40.5Q541 29 623.0 22.0Q705 15 782 14Q780 69 776.0 128.5Q772 188 766 249Q755 251 742.0 252.0Q729 253 715 253Q704 253 693.5 252.0Q683 251 673 249Q681 266 690.0 285.5Q699 305 709 334Q700 334 690.5 333.0Q681 332 673 330Q682 351 694.0 376.0Q706 401 718 444H726Q734 416 741.0 396.5Q748 377 755 361Q748 424 740.0 484.5Q732 545 722 599Q544 592 401.5 570.5Q259 549 170 522Q176 552 179.5 580.5Q183 609 183 635Q183 661 179.5 687.0Q176 713 170 738Q258 708 398.0 678.5Q538 649 714 638Q709 665 703.5 689.5Q698 714 692 736Q743 724 797 724Q851 724 908 736Q894 686 880.5 607.5Q867 529 855.5 434.5Q844 340 834.5 241.5Q825 143 820.0 52.0Q815 -39 815 -110ZM488 154Q464 176 449.5 189.5Q435 203 424.0 212.5Q413 222 398 232Q407 217 415.0 202.0Q423 187 434 170L425 163Q397 189 383.0 202.0Q369 215 355 225Q362 212 369.5 198.5Q377 185 387 170L378 163Q346 192 331.0 205.5Q316 219 298 232Q307 217 314.5 202.0Q322 187 334 170L325 163Q302 184 288.5 196.5Q275 209 265.0 217.5Q255 226 240 236Q254 248 272.0 261.5Q290 275 325 306L334 302Q322 285 315.0 270.5Q308 256 300 242Q313 252 330.0 265.0Q347 278 378 306L387 302Q377 287 370.0 274.0Q363 261 357 249Q368 258 384.0 271.0Q400 284 425 306L434 302Q422 284 414.5 268.0Q407 252 397 238Q411 250 429.5 264.0Q448 278 480 307Q449 336 433.5 350.0Q418 364 397 378Q406 363 414.0 347.5Q422 332 434 315L425 308Q397 334 383.0 347.0Q369 360 355 370Q362 357 369.5 343.5Q377 330 387 315L378 308Q346 337 331.0 350.5Q316 364 298 377Q307 362 314.5 347.0Q322 332 334 315L325 308Q302 329 288.5 341.5Q275 354 265.0 362.5Q255 371 240 381Q254 393 272.0 406.5Q290 420 325 451L334 447Q322 430 315.0 415.5Q308 401 300 387Q313 397 330.0 410.0Q347 423 378 451L387 447Q377 432 370.0 419.0Q363 406 357 394Q368 403 384.0 416.0Q400 429 425 451L434 447Q423 430 415.0 414.5Q407 399 399 385Q413 397 432.5 412.5Q452 428 488 459L498 455Q485 433 475.5 415.5Q466 398 456 381L481 335Q490 355 501.5 379.5Q513 404 524 444H532Q543 401 555.0 376.5Q567 352 576 330Q568 332 559.0 332.5Q550 333 540 334Q550 305 559.5 285.5Q569 266 576 249Q564 251 550.0 252.0Q536 253 522 253Q511 253 500.0 252.0Q489 251 479 249Q487 266 496.0 285.5Q505 305 515 334Q498 334 483 331Q487 325 490.5 319.5Q494 314 498 308Q485 287 475.5 269.5Q466 252 456 235Q466 219 475.5 201.0Q485 183 498 163ZM538 170Q552 181 572.5 199.0Q593 217 610 253Q601 252 592.5 251.5Q584 251 576 249Q584 266 593.0 285.5Q602 305 612 334Q603 334 593.5 333.0Q584 332 576 330Q585 351 597.5 376.0Q610 401 621 444H629Q641 401 652.5 376.5Q664 352 673 330Q665 332 656.0 332.5Q647 333 637 334Q647 305 656.5 285.5Q666 266 673 249L642 252Q659 217 678.0 199.0Q697 181 711 170Q685 175 664.5 177.5Q644 180 624 180Q605 180 584.5 177.5Q564 175 538 170ZM187 246Q200 256 216.5 269.5Q233 283 261 307Q236 329 222.5 342.0Q209 355 196 365ZM766 258Q765 276 762.5 294.5Q760 313 758 332L734 334Q742 309 750.5 291.0Q759 273 766 258Z" />
  </g>
</svg>