<svg xmlns="http://www.w3.org/2000/svg" viewBox="100 -110 826 848">
  <g transform="translate(0, 628) scale(1, -1)">
    <path fill="black" d="M785 -110 783 -18Q670 -18 552.0 -27.0Q434 -36 319.5 -53.5Q205 -71 100 -98Q126 10 100 118Q263 69 437.5 43.0Q612 17 782 14L776 132L764 124L760 127L775 145L769 220Q744 237 718.0 251.5Q692 266 666 279Q697 299 718 331Q737 291 766 251Q759 335 748 419Q728 433 707.5 445.5Q687 458 667 468Q658 388 653.0 307.5Q648 227 645 147H634L628 232Q579 231 527.5 221.5Q476 212 434 186Q441 238 434 290Q477 265 528.0 254.5Q579 244 627 244Q624 286 621.5 327.5Q619 369 615 411Q570 410 524.0 401.0Q478 392 434 366Q438 389 438.0 411.5Q438 434 436 456Q421 302 415 147H404L392 324Q347 290 304.0 253.5Q261 217 223 170Q210 202 187 221L205 228Q204 283 198.5 334.0Q193 385 183 418Q176 351 172.5 283.0Q169 215 166 147H156Q145 275 140.0 372.0Q135 469 118 515Q138 510 158.0 510.5Q178 511 198 515Q191 493 188.5 472.5Q186 452 184 427Q199 424 214.0 424.5Q229 425 244 428Q237 408 232.0 374.5Q227 341 224.0 304.0Q221 267 219 234Q263 255 306.5 280.0Q350 305 391 331L390 345Q339 378 288.5 406.0Q238 434 187 454Q211 475 223 505Q256 463 301.5 425.0Q347 387 390 354Q386 404 381.5 444.5Q377 485 367 515Q407 508 447 515Q445 503 442.0 491.5Q439 480 437 468Q478 446 523.5 436.0Q569 426 613 424Q612 447 607.5 470.0Q603 493 597 515Q637 508 677 515Q674 504 671.5 492.5Q669 481 667 470Q697 490 718 521Q723 510 728.5 499.0Q734 488 741 477Q737 508 732.0 538.0Q727 568 722 599Q580 595 439.0 576.5Q298 558 170 522Q182 576 183.0 629.0Q184 682 170 738Q306 693 440.5 670.5Q575 648 714 638Q709 663 703.5 687.0Q698 711 692 736Q800 711 908 736Q874 594 857 451Q861 457 865.0 464.0Q869 471 873 478Q884 464 897.0 450.5Q910 437 926 426Q887 405 848 375L833 224Q844 238 854.0 254.5Q864 271 873 288Q884 273 897.0 260.0Q910 247 926 236Q901 222 877.0 205.5Q853 189 828 170Q823 100 819.5 30.0Q816 -40 815 -110Z" />
  </g>
</svg>