<svg xmlns="http://www.w3.org/2000/svg" viewBox="100 -110 808 848">
  <g transform="translate(0, 628) scale(1, -1)">
    <path fill="black" d="M785 -110Q785 -88 784.5 -65.0Q784 -42 783 -18Q691 -18 593.0 -24.5Q495 -31 402.0 -42.5Q309 -54 231.0 -68.0Q153 -82 100 -98Q106 -68 109.5 -39.5Q113 -11 113 15Q113 41 109.5 67.0Q106 93 100 118Q125 109 157 101Q156 133 154.0 179.5Q152 226 149.0 277.5Q146 329 141.0 378.5Q136 428 129.0 467.0Q122 506 114 526Q141 520 163 520Q187 520 220 526Q214 512 209.0 480.5Q204 449 199.5 406.5Q195 364 192.0 317.5Q189 271 186 227Q198 223 214.0 218.0Q230 213 249 208Q243 251 227 286Q246 282 264 282Q281 282 304 286Q289 251 283 201L327 193Q323 220 318.0 242.5Q313 265 304 286Q321 282 339 282Q347 282 356.5 283.0Q366 284 378 286Q364 250 356 189Q388 185 421.5 182.5Q455 180 489 179Q483 222 476.0 261.5Q469 301 460 329Q420 353 371.5 380.0Q323 407 280.0 428.0Q237 449 210 456Q224 470 241.0 493.0Q258 516 269 536Q277 522 297.0 499.0Q317 476 343.5 449.5Q370 423 399.5 396.5Q429 370 455 347Q463 346 471.5 345.5Q480 345 489 345Q482 397 473.0 444.0Q464 491 453 518Q473 515 501 515Q528 515 552 518Q542 496 533.0 447.0Q524 398 518 345Q523 345 527.5 345.0Q532 345 536 346Q537 355 537.5 364.5Q538 374 538 384Q538 397 537.0 410.5Q536 424 534 438Q563 422 605.0 408.5Q647 395 713 392Q707 457 697 483Q708 481 718.5 480.0Q729 479 740 479L722 599Q544 592 401.5 570.5Q259 549 170 522Q176 552 179.5 580.5Q183 609 183 635Q183 661 179.5 687.0Q176 713 170 738Q258 708 398.0 678.5Q538 649 714 638Q709 665 703.5 689.5Q698 714 692 736Q743 724 797 724Q851 724 908 736Q894 686 880.5 607.5Q867 529 855.5 434.5Q844 340 834.5 241.5Q825 143 820.0 52.0Q815 -39 815 -110ZM782 14Q779 89 773.0 172.0Q767 255 758 339Q755 298 752.0 255.0Q749 212 747.5 175.5Q746 139 745 115H734Q733 131 731.5 153.0Q730 175 728 200Q655 199 608.5 185.5Q562 172 534 154Q536 167 537.0 180.0Q538 193 538 206Q538 219 537.0 232.0Q536 245 534 258Q565 241 609.5 227.5Q654 214 727 212Q724 253 721.5 296.5Q719 340 715 379Q657 378 616.5 367.5Q576 357 550 343Q541 320 533.0 275.5Q525 231 519.0 179.5Q513 128 511 84H500L491 164Q455 163 420.0 159.5Q385 156 353 151Q352 135 351.0 118.5Q350 102 349 84H339Q337 101 336.0 117.0Q335 133 333 148L277 136L274 84H263Q262 97 260.5 109.0Q259 121 258 132Q237 126 218.5 120.0Q200 114 185 108Q187 122 188.5 137.0Q190 152 190 167Q190 180 189.0 193.5Q188 207 186 221L179 95Q237 80 309.5 66.0Q382 52 461.5 40.5Q541 29 623.0 22.0Q705 15 782 14Z" />
  </g>
</svg>