<svg xmlns="http://www.w3.org/2000/svg" viewBox="100 -110 808 848">
  <g transform="translate(0, 628) scale(1, -1)">
    <path fill="black" d="M785 -110Q785 -88 784.5 -65.0Q784 -42 783 -18Q691 -18 593.0 -24.5Q495 -31 402.0 -42.5Q309 -54 231.0 -68.0Q153 -82 100 -98Q106 -68 109.5 -39.5Q113 -11 113 15Q113 41 109.5 67.0Q106 93 100 118Q125 109 157 101Q156 133 154.0 179.5Q152 226 149.0 277.5Q146 329 141.0 378.5Q136 428 129.0 467.0Q122 506 114 526Q141 520 163 520Q187 520 220 526Q213 509 207.5 469.5Q202 430 197.5 378.5Q193 327 189.5 273.0Q186 219 183.5 172.0Q181 125 179 95Q237 80 309.5 66.0Q382 52 461.5 40.5Q541 29 623.0 22.0Q705 15 782 14Q778 106 770.0 208.5Q762 311 750.0 412.0Q738 513 722 599Q544 592 401.5 570.5Q259 549 170 522Q176 552 179.5 580.5Q183 609 183 635Q183 661 179.5 687.0Q176 713 170 738Q258 708 398.0 678.5Q538 649 714 638Q709 665 703.5 689.5Q698 714 692 736Q743 724 797 724Q851 724 908 736Q894 686 880.5 607.5Q867 529 855.5 434.5Q844 340 834.5 241.5Q825 143 820.0 52.0Q815 -39 815 -110ZM416 93Q372 132 342.0 156.5Q312 181 286 200Q296 209 312.0 223.5Q328 238 347 256Q340 309 330.0 360.5Q320 412 310.0 451.5Q300 491 293 508Q312 505 330.5 502.5Q349 500 368 500Q384 500 400.0 502.0Q416 504 432 508Q426 493 416.5 459.5Q407 426 397.5 381.5Q388 337 380 289L408 319L419 313Q409 288 397.0 255.5Q385 223 378 200Q386 181 398.5 154.5Q411 128 427 101ZM616 93Q572 132 542.0 156.5Q512 181 486 200Q496 209 512.0 223.5Q528 238 547 256Q540 309 530.0 360.5Q520 412 510.0 451.5Q500 491 493 508Q512 505 530.5 502.5Q549 500 568 500Q584 500 600.0 502.0Q616 504 632 508Q626 493 616.5 459.5Q607 426 597.5 381.5Q588 337 580 289L608 319L619 313Q609 288 597.0 255.5Q585 223 578 200Q586 181 598.5 154.5Q611 128 627 101Z" />
  </g>
</svg>