<svg xmlns="http://www.w3.org/2000/svg" viewBox="100 -110 808 848">
  <g transform="translate(0, 628) scale(1, -1)">
    <path fill="black" d="M785 -110Q785 -88 784.5 -65.0Q784 -42 783 -18Q691 -18 593.0 -24.5Q495 -31 402.0 -42.5Q309 -54 231.0 -68.0Q153 -82 100 -98Q106 -68 109.5 -39.5Q113 -11 113 15Q113 41 109.5 67.0Q106 93 100 118Q125 109 157 101Q156 133 154.0 179.5Q152 226 149.0 277.5Q146 329 141.0 378.5Q136 428 129.0 467.0Q122 506 114 526Q141 520 163 520Q187 520 220 526Q213 509 207.5 469.5Q202 430 197.5 378.5Q193 327 189.5 273.0Q186 219 183.5 172.0Q181 125 179 95Q237 80 309.5 66.0Q382 52 461.5 40.5Q541 29 623.0 22.0Q705 15 782 14Q778 106 770.0 208.5Q762 311 750.0 412.0Q738 513 722 599Q544 592 401.5 570.5Q259 549 170 522Q176 552 179.5 580.5Q183 609 183 635Q183 661 179.5 687.0Q176 713 170 738Q258 708 398.0 678.5Q538 649 714 638Q709 665 703.5 689.5Q698 714 692 736Q743 724 797 724Q851 724 908 736Q894 686 880.5 607.5Q867 529 855.5 434.5Q844 340 834.5 241.5Q825 143 820.0 52.0Q815 -39 815 -110ZM263 373 258 383Q290 419 312.0 440.5Q334 462 349 483Q360 471 376.0 451.0Q392 431 414 409Q436 433 452.5 449.5Q469 466 482 483Q493 471 509.0 451.0Q525 431 547 409Q570 432 586.5 449.0Q603 466 616 483Q630 468 654.0 439.0Q678 410 709 383L703 373Q674 390 654.0 403.5Q634 417 616 427L563 393Q566 390 569.0 387.5Q572 385 575 383L569 373L549 385L529 373L524 383Q526 386 528.5 389.0Q531 392 534 394Q519 404 506.5 412.0Q494 420 482 427L430 393L442 383L436 373L415 385L395 373L390 383Q392 386 394.5 389.0Q397 392 400 394Q385 404 373.0 412.0Q361 420 349 427Q332 417 312.0 403.5Q292 390 263 373ZM263 293 257 302Q289 339 311.5 360.5Q334 382 349 404Q360 392 376.0 371.5Q392 351 414 329Q436 353 452.5 370.0Q469 387 482 404Q493 392 509.0 371.5Q525 351 547 328Q570 352 586.5 369.5Q603 387 616 404Q630 388 654.0 359.0Q678 330 709 303L703 294Q674 311 654.0 323.5Q634 336 616 347L563 313L575 302L569 293L549 305L529 293L524 302Q526 305 528.5 308.0Q531 311 534 314Q519 323 506.5 331.5Q494 340 482 347L429 313L442 302L436 293L416 305L395 293L390 302L400 314L349 347Q332 336 312.0 323.0Q292 310 263 293ZM263 213 257 222Q289 259 311.5 280.5Q334 302 349 323Q360 311 376.0 291.0Q392 271 414 249Q436 273 452.5 289.5Q469 306 482 323Q493 311 509.0 291.0Q525 271 547 248Q570 272 586.5 289.0Q603 306 616 323Q630 308 654.0 279.0Q678 250 709 223L703 213Q674 230 654.0 243.5Q634 257 616 267L563 233L575 222L569 213Q564 216 559.0 218.5Q554 221 549 224Q544 222 539.0 219.0Q534 216 529 213L524 222Q526 225 528.5 228.0Q531 231 534 234Q519 243 506.5 251.0Q494 259 482 266L429 233L442 222L436 213L415 225L395 213L390 222L400 234Q386 243 373.5 251.0Q361 259 349 266Q332 256 312.0 243.0Q292 230 263 213ZM382 115 376 126Q413 168 438.5 192.5Q464 217 482 242Q498 224 525.5 191.0Q553 158 589 126L582 115Q549 134 526.0 149.5Q503 165 482 177Q461 165 438.5 149.5Q416 134 382 115Z" />
  </g>
</svg>