<svg xmlns="http://www.w3.org/2000/svg" viewBox="100 -110 808 848">
  <g transform="translate(0, 628) scale(1, -1)">
    <path fill="black" d="M785 -110Q785 -88 784.5 -65.0Q784 -42 783 -18Q691 -18 593.0 -24.5Q495 -31 402.0 -42.5Q309 -54 231.0 -68.0Q153 -82 100 -98Q106 -68 109.5 -39.5Q113 -11 113 15Q113 41 109.5 67.0Q106 93 100 118Q125 109 157 101Q156 133 154.0 179.5Q152 226 149.0 277.5Q146 329 141.0 378.5Q136 428 129.0 467.0Q122 506 114 526Q141 520 163 520Q187 520 220 526Q213 509 207.5 469.5Q202 430 197.5 378.5Q193 327 189.5 273.0Q186 219 183.5 172.0Q181 125 179 95Q237 80 309.5 66.0Q382 52 461.5 40.5Q541 29 623.0 22.0Q705 15 782 14Q778 106 770.0 208.5Q762 311 750.0 412.0Q738 513 722 599Q544 592 401.5 570.5Q259 549 170 522Q176 552 179.5 580.5Q183 609 183 635Q183 661 179.5 687.0Q176 713 170 738Q258 708 398.0 678.5Q538 649 714 638Q709 665 703.5 689.5Q698 714 692 736Q743 724 797 724Q851 724 908 736Q894 686 880.5 607.5Q867 529 855.5 434.5Q844 340 834.5 241.5Q825 143 820.0 52.0Q815 -39 815 -110ZM247 175Q247 184 246.5 194.0Q246 204 245 214L220 208Q225 233 218 264L240 258Q236 280 232.0 302.0Q228 324 223 344Q235 340 247.5 340.5Q260 341 273 343V344Q274 344 274.0 343.5Q274 343 275 343Q276 343 277.0 343.5Q278 344 279 344Q279 343 278.5 343.0Q278 343 278 342Q300 338 329 344Q323 326 318.5 300.0Q314 274 311 247Q334 245 363.5 243.0Q393 241 430 239L414 251Q431 260 449.0 271.5Q467 283 491 302Q467 322 449.0 334.0Q431 346 411 358Q416 360 420.0 363.0Q424 366 428 369Q375 367 345.0 364.0Q315 361 294.5 356.5Q274 352 250 346Q254 360 253.5 373.0Q253 386 250 402Q270 395 292.5 391.0Q315 387 349.0 384.5Q383 382 439 379Q443 383 446.5 387.0Q450 391 454 396Q469 363 509 316Q521 326 536.0 338.5Q551 351 567 366Q563 367 559.5 368.5Q556 370 552 371Q565 382 576.5 399.0Q588 416 593 429Q621 398 650.0 368.0Q679 338 728 303Q679 269 650.0 238.5Q621 208 593 177Q588 190 576.5 207.0Q565 224 552 235Q555 236 558.0 237.0Q561 238 564 239L509 288Q490 266 478.0 249.0Q466 232 454 212Q449 221 439 231Q396 230 364.0 227.5Q332 225 308 223Q307 210 306.0 197.5Q305 185 305 175H297Q297 186 296.5 198.0Q296 210 295 222L257 217Q256 205 255.5 194.5Q255 184 255 175ZM575 242 589 247Q588 269 586.0 290.0Q584 311 581 318Q590 317 593.5 317.0Q597 317 604 318Q600 311 598.0 290.5Q596 270 595 249Q600 251 605.5 252.5Q611 254 616 256Q615 276 612.5 293.5Q610 311 607 318Q616 317 620.0 317.0Q624 317 631 318Q628 311 626.0 294.5Q624 278 623 258L644 267Q644 276 641.5 292.0Q639 308 634 318Q643 317 647.0 317.0Q651 317 658 318Q654 308 651.5 293.5Q649 279 649 269L670 279Q669 289 667.0 300.0Q665 311 661 318Q670 317 674.0 317.0Q678 317 685 318Q679 304 677 283L714 303Q669 329 637.5 341.5Q606 354 577 363Q560 344 546.0 329.0Q532 314 521 301Q532 288 545.5 273.5Q559 259 575 242ZM291 249Q285 293 276 333Q272 317 268.0 296.0Q264 275 262 254Z" />
  </g>
</svg>