<svg xmlns="http://www.w3.org/2000/svg" viewBox="100 -110 1238 848">
  <g transform="translate(0, 628) scale(1, -1)">
    <path fill="black" d="M1215 -110Q1215 -88 1214.5 -65.0Q1214 -42 1213 -18Q1157 -18 1077.0 -20.5Q997 -23 902.5 -27.0Q808 -31 709.0 -36.5Q610 -42 514.5 -49.0Q419 -56 336.0 -64.0Q253 -72 191.5 -80.5Q130 -89 100 -98Q106 -68 109.5 -39.5Q113 -11 113 15Q113 41 109.5 67.0Q106 93 100 118Q121 110 157 104Q156 137 154.0 183.5Q152 230 149.0 281.0Q146 332 141.0 380.5Q136 429 129.0 467.5Q122 506 114 526Q141 520 163 520Q187 520 220 526Q213 510 207.5 471.5Q202 433 197.5 382.5Q193 332 189.5 278.5Q186 225 184.0 178.0Q182 131 180 100Q239 90 321.5 79.5Q404 69 500.5 59.5Q597 50 697.5 42.0Q798 34 894.5 28.0Q991 22 1073.0 18.5Q1155 15 1212 14Q1209 83 1203.5 160.0Q1198 237 1190 315Q1176 307 1154.5 288.0Q1133 269 1110.0 246.0Q1087 223 1068 203H1069L1064 198L1059 203Q1041 223 1018.5 245.5Q996 268 974.5 287.0Q953 306 938 314Q920 298 898.0 278.5Q876 259 844 230Q843 220 842.5 211.0Q842 202 842 195Q825 197 795.5 199.5Q766 202 733.0 205.5Q700 209 669.5 211.0Q639 213 620 213Q614 213 609.0 213.0Q604 213 601 212Q606 226 607.5 238.0Q609 250 609 261Q617 257 637.5 251.0Q658 245 683 238Q683 246 682.5 253.5Q682 261 682 269Q637 266 623 260Q626 274 626 286Q626 299 623 309Q629 307 644.5 304.5Q660 302 680 300L678 337Q657 336 642.5 334.0Q628 332 623 330Q626 344 626 355Q626 368 623 378Q636 373 675 370L670 395Q675 394 679.5 393.5Q684 393 688 393Q693 393 697.5 393.5Q702 394 706 395Q705 391 703.5 384.0Q702 377 701 368Q704 367 707.5 367.0Q711 367 714 367Q713 377 712.0 384.0Q711 391 710 395Q715 394 719.5 393.5Q724 393 728 393Q733 393 737.0 393.5Q741 394 745 395Q741 384 740 365H754Q753 373 752.0 380.5Q751 388 748 395Q753 394 757.5 393.5Q762 393 766 393Q768 393 774.0 393.5Q780 394 784 395Q782 387 780.0 379.0Q778 371 778 363Q782 363 785.0 363.0Q788 363 792 362Q790 386 787 395Q792 394 797.0 393.5Q802 393 806 393Q811 393 815.0 393.5Q819 394 823 395Q821 391 820.0 381.5Q819 372 817 361Q819 361 822.0 360.5Q825 360 827 360Q826 383 824.0 401.5Q822 420 820 433Q796 427 763.5 420.0Q731 413 699.5 405.0Q668 397 643.0 390.0Q618 383 609 377Q609 388 608.0 398.5Q607 409 603 421Q599 408 595.0 393.5Q591 379 589 362Q600 362 613 365Q605 344 598.5 322.0Q592 300 588.0 271.0Q584 242 582 198H573Q568 245 563.0 272.0Q558 299 551.0 319.5Q544 340 534 365Q548 362 560 362Q556 381 551.5 396.5Q547 412 541 428Q534 402 529.0 362.5Q524 323 520.5 280.0Q517 237 516 198H506Q501 248 495.0 301.0Q489 354 481 395Q474 354 469.5 299.5Q465 245 463 198H452Q450 225 447.5 253.5Q445 282 441 310Q422 288 398.5 261.5Q375 235 356.5 212.5Q338 190 333 179Q319 201 297 216Q299 216 300 217Q272 243 244.5 265.5Q217 288 197 298Q214 307 228 322Q216 335 197 348Q216 358 243.5 380.5Q271 403 299 428Q298 428 297 429Q319 444 333 466Q338 456 355.5 434.0Q373 412 395.5 386.5Q418 361 437 339Q433 371 427.5 399.0Q422 427 415 446Q424 444 433.0 442.5Q442 441 451 441Q456 441 460.5 441.0Q465 441 469 442Q469 443 468.5 444.0Q468 445 468 446L480 443L494 446L492 442Q497 442 501.0 441.5Q505 441 509 441Q515 441 521.5 441.5Q528 442 535 443Q534 444 534 446L540 444L547 446Q546 445 546 443Q552 442 558.0 441.5Q564 441 570 441Q580 441 590.5 442.5Q601 444 613 446Q611 442 609.5 437.0Q608 432 606 427H619Q641 427 677.0 429.5Q713 432 751.5 436.0Q790 440 818 443Q816 449 816 450Q822 449 828.0 448.5Q834 448 839 448Q846 448 852.0 448.5Q858 449 865 450Q863 444 860.5 432.0Q858 420 856 404Q881 377 907.5 354.5Q934 332 947 321Q953 325 956 328Q972 349 988.5 372.5Q1005 396 1017.0 417.0Q1029 438 1033 451Q1041 441 1049.0 433.5Q1057 426 1066 421Q1084 431 1098 451Q1103 438 1119.0 415.0Q1135 392 1154.5 366.0Q1174 340 1190 319Q1183 393 1173.0 465.0Q1163 537 1152 600Q1068 598 971.5 594.0Q875 590 775.5 584.0Q676 578 581.0 571.5Q486 565 404.0 557.0Q322 549 261.5 540.0Q201 531 170 522Q176 552 179.5 580.5Q183 609 183 635Q183 661 179.5 687.0Q176 713 170 738Q200 728 260.0 717.5Q320 707 401.0 696.5Q482 686 576.0 677.0Q670 668 769.0 660.0Q868 652 964.5 646.0Q1061 640 1145 637Q1140 665 1134.0 689.5Q1128 714 1122 736Q1173 724 1227 724Q1281 724 1338 736Q1324 686 1310.5 607.5Q1297 529 1285.5 434.5Q1274 340 1264.5 241.5Q1255 143 1250.0 52.0Q1245 -39 1245 -110ZM311 223 321 229Q319 251 316.0 283.5Q313 316 311.0 343.5Q309 371 307 377Q312 376 317.5 375.5Q323 375 328 375Q332 375 336.0 375.5Q340 376 344 377Q342 372 339.0 346.0Q336 320 333.0 288.5Q330 257 328 234Q354 251 385.0 276.0Q416 301 440 320Q440 322 439.5 322.5Q439 323 439 324Q420 340 396.0 359.0Q372 378 349.5 395.5Q327 413 310 422Q289 396 268.5 368.0Q248 340 239 322Q248 304 269.0 276.5Q290 249 311 223ZM1064 210Q1075 225 1087.5 243.5Q1100 262 1111 280Q1092 279 1070.5 276.5Q1049 274 1045 272Q1046 276 1046.5 279.5Q1047 283 1047 287Q1047 290 1045 296Q1049 294 1073.0 291.5Q1097 289 1116 287Q1124 301 1131 311Q1115 310 1095.5 308.5Q1076 307 1062.0 305.5Q1048 304 1045 303Q1047 313 1047 318Q1047 320 1046.5 322.0Q1046 324 1045 326Q1048 325 1063.0 323.5Q1078 322 1098.0 321.0Q1118 320 1134 318Q1139 326 1142.5 332.5Q1146 339 1147 344Q1133 343 1110.0 341.0Q1087 339 1067.5 337.0Q1048 335 1045 333Q1046 337 1046.5 340.5Q1047 344 1047 348Q1047 351 1045 357Q1049 355 1073.5 353.0Q1098 351 1150 347L1122 373Q1109 372 1092.0 370.5Q1075 369 1061.5 367.5Q1048 366 1045 365Q1046 369 1046.5 372.0Q1047 375 1047 379Q1047 382 1045 388Q1049 386 1072.5 383.5Q1096 381 1115 379Q1101 391 1088.5 401.0Q1076 411 1066 417Q1048 406 1025.5 386.0Q1003 366 980 343Q986 330 1000.0 306.5Q1014 283 1031.5 257.0Q1049 231 1064 210ZM865 358 853 378Q853 374 852.5 369.0Q852 364 852 359Q855 358 858.5 358.0Q862 358 865 358ZM869 287Q876 297 880.5 305.5Q885 314 889 321Q885 327 880.5 334.0Q876 341 871 348Q867 348 861.5 347.5Q856 347 851 347Q850 333 849.0 318.0Q848 303 847 289Q853 288 859.0 287.5Q865 287 869 287ZM831 290 827 346H816Q815 333 814.0 319.0Q813 305 812 291Q817 291 822.0 290.5Q827 290 831 290ZM797 292 794 345Q790 344 785.5 344.0Q781 344 776 344Q775 327 774.0 316.0Q773 305 772 294ZM1174 325 1154 344H1151Q1156 338 1162.0 333.5Q1168 329 1174 325ZM759 295 756 342Q752 342 747.0 342.0Q742 342 737 341L734 296Q740 296 746.0 295.5Q752 295 759 295ZM719 297 717 340Q712 340 707.5 340.0Q703 340 698 339L694 299Q700 298 706.5 297.5Q713 297 719 297ZM845 250Q850 258 855.0 265.0Q860 272 864 279Q860 279 855.5 278.5Q851 278 846 278Q846 271 846.0 264.0Q846 257 845 250ZM835 204 831 278Q827 277 821.5 277.0Q816 277 811 277Q810 257 809.5 239.5Q809 222 807 210ZM800 212Q800 223 799.5 240.0Q799 257 798 276Q791 276 784.5 275.5Q778 275 771 275L767 219Q776 218 784.5 216.0Q793 214 800 212ZM762 220Q762 227 761.5 242.0Q761 257 760 274Q753 274 746.5 273.5Q740 273 733 273L730 227Q738 226 746.0 224.0Q754 222 762 220ZM722 229 720 272 693 270 690 237Z" />
  </g>
</svg>