<svg xmlns="http://www.w3.org/2000/svg" viewBox="100 -110 808 848">
  <g transform="translate(0, 628) scale(1, -1)">
    <path fill="black" d="M785 -110Q785 -88 784.5 -65.0Q784 -42 783 -18Q691 -18 593.0 -24.5Q495 -31 402.0 -42.5Q309 -54 231.0 -68.0Q153 -82 100 -98Q106 -68 109.5 -39.5Q113 -11 113 15Q113 41 109.5 67.0Q106 93 100 118Q125 109 157 101Q156 133 154.0 179.5Q152 226 149.0 277.5Q146 329 141.0 378.5Q136 428 129.0 467.0Q122 506 114 526Q141 520 163 520Q187 520 220 526Q213 509 207.5 469.5Q202 430 197.5 378.5Q193 327 189.5 273.0Q186 219 183.5 172.0Q181 125 179 95Q237 80 309.5 66.0Q382 52 461.5 40.5Q541 29 623.0 22.0Q705 15 782 14Q778 106 770.0 208.5Q762 311 750.0 412.0Q738 513 722 599Q544 592 401.5 570.5Q259 549 170 522Q176 552 179.5 580.5Q183 609 183 635Q183 661 179.5 687.0Q176 713 170 738Q258 708 398.0 678.5Q538 649 714 638Q709 665 703.5 689.5Q698 714 692 736Q743 724 797 724Q851 724 908 736Q894 686 880.5 607.5Q867 529 855.5 434.5Q844 340 834.5 241.5Q825 143 820.0 52.0Q815 -39 815 -110ZM449 143Q417 174 379.0 205.5Q341 237 304.0 264.5Q267 292 237 310Q265 331 300.0 361.0Q335 391 370.5 426.0Q406 461 437 495L454 485Q433 437 409.5 392.5Q386 348 365 313Q385 288 413.5 242.5Q442 197 465 156ZM521 141Q515 202 508.0 266.0Q501 330 492.0 385.0Q483 440 469 474Q482 471 495.5 470.0Q509 469 522 469Q535 469 548.0 470.0Q561 471 576 473V474L577 473Q578 473 578.0 473.5Q578 474 579 474V473Q591 471 603.0 470.0Q615 469 628 469Q642 469 656.0 470.0Q670 471 686 474Q675 448 666.5 422.0Q658 396 652 361Q660 362 668.5 363.0Q677 364 686 365Q674 337 665.0 307.5Q656 278 650.5 239.0Q645 200 642 141H629Q623 203 616.0 239.5Q609 276 599.5 304.0Q590 332 576 365Q585 364 594.5 362.5Q604 361 613 360Q606 392 597.5 416.5Q589 441 577 470Q568 448 561.0 410.5Q554 373 549.0 326.5Q544 280 540.0 232.0Q536 184 534 141Z" />
  </g>
</svg>