<svg xmlns="http://www.w3.org/2000/svg" viewBox="100 -110 808 848">
  <g transform="translate(0, 628) scale(1, -1)">
    <path fill="black" d="M785 -110Q785 -88 784.5 -65.0Q784 -42 783 -18Q691 -18 593.0 -24.5Q495 -31 402.0 -42.5Q309 -54 231.0 -68.0Q153 -82 100 -98Q106 -68 109.5 -39.5Q113 -11 113 15Q113 41 109.5 67.0Q106 93 100 118Q125 109 157 101Q156 133 154.0 179.5Q152 226 149.0 277.5Q146 329 141.0 378.5Q136 428 129.0 467.0Q122 506 114 526Q141 520 163 520Q187 520 220 526Q213 509 207.5 469.5Q202 430 197.5 378.5Q193 327 189.5 273.0Q186 219 183.5 172.0Q181 125 179 95Q237 80 309.5 66.0Q382 52 461.5 40.5Q541 29 623.0 22.0Q705 15 782 14Q778 106 770.0 208.5Q762 311 750.0 412.0Q738 513 722 599Q544 592 401.5 570.5Q259 549 170 522Q176 552 179.5 580.5Q183 609 183 635Q183 661 179.5 687.0Q176 713 170 738Q258 708 398.0 678.5Q538 649 714 638Q709 665 703.5 689.5Q698 714 692 736Q743 724 797 724Q851 724 908 736Q894 686 880.5 607.5Q867 529 855.5 434.5Q844 340 834.5 241.5Q825 143 820.0 52.0Q815 -39 815 -110ZM430 143Q398 174 360.0 205.5Q322 237 285.0 264.5Q248 292 218 310Q247 331 281.5 361.0Q316 391 352.0 426.0Q388 461 419 495L436 485Q415 437 391.0 392.5Q367 348 347 313Q360 296 377.5 269.5Q395 243 413.0 213.5Q431 184 446 156ZM573 143Q541 174 503.0 205.5Q465 237 428.0 264.5Q391 292 361 310Q389 331 424.0 361.0Q459 391 494.5 426.0Q530 461 561 495L579 485Q557 437 533.5 392.5Q510 348 489 313Q503 296 520.5 269.5Q538 243 556.0 213.5Q574 184 589 156ZM715 143Q683 174 645.0 205.5Q607 237 570.0 264.5Q533 292 503 310Q532 331 566.5 361.0Q601 391 637.0 426.0Q673 461 704 495L721 485Q700 437 676.0 392.5Q652 348 632 313Q645 296 662.5 269.5Q680 243 698.0 213.5Q716 184 731 156Z" />
  </g>
</svg>