<svg xmlns="http://www.w3.org/2000/svg" viewBox="100 -110 808 848">
  <g transform="translate(0, 628) scale(1, -1)">
    <path fill="black" d="M785 -110Q785 -88 784.5 -65.0Q784 -42 783 -18Q691 -18 593.0 -24.5Q495 -31 402.0 -42.5Q309 -54 231.0 -68.0Q153 -82 100 -98Q106 -68 109.5 -39.5Q113 -11 113 15Q113 41 109.5 67.0Q106 93 100 118Q125 109 157 101Q156 133 154.0 179.5Q152 226 149.0 277.5Q146 329 141.0 378.5Q136 428 129.0 467.0Q122 506 114 526Q141 520 163 520Q187 520 220 526Q213 509 207.5 469.5Q202 430 197.5 378.5Q193 327 189.5 273.0Q186 219 183.5 172.0Q181 125 179 95Q237 80 309.5 66.0Q382 52 461.5 40.5Q541 29 623.0 22.0Q705 15 782 14Q778 106 770.0 208.5Q762 311 750.0 412.0Q738 513 722 599Q544 592 401.5 570.5Q259 549 170 522Q176 552 179.5 580.5Q183 609 183 635Q183 661 179.5 687.0Q176 713 170 738Q258 708 398.0 678.5Q538 649 714 638Q709 665 703.5 689.5Q698 714 692 736Q743 724 797 724Q851 724 908 736Q894 686 880.5 607.5Q867 529 855.5 434.5Q844 340 834.5 241.5Q825 143 820.0 52.0Q815 -39 815 -110ZM561 51 549 57Q554 79 558.5 97.5Q563 116 566 132Q502 153 453.0 163.0Q404 173 362.0 178.5Q320 184 277 188Q294 219 303.5 245.0Q313 271 317 300Q318 299 319.0 298.0Q320 297 321 296Q316 322 306.5 346.0Q297 370 282 398Q315 401 341.5 403.0Q368 405 396.0 408.0Q424 411 458.5 419.0Q493 427 541 443Q532 457 522.0 470.0Q512 483 501 498Q530 500 557.5 509.0Q585 518 616 531Q617 498 617.0 472.0Q617 446 618.5 418.5Q620 391 625.5 357.0Q631 323 643 275Q661 271 681 269Q663 245 648.5 225.5Q634 206 620.5 183.0Q607 160 592.5 129.0Q578 98 561 51ZM568 147Q576 192 576.0 224.0Q576 256 577 299Q602 287 625 280Q603 336 585.5 370.0Q568 404 550 431Q502 410 469.5 393.0Q437 376 414.0 359.5Q391 343 371.0 326.5Q351 310 328 290Q374 254 427.5 220.0Q481 186 568 147Z" />
  </g>
</svg>