<svg xmlns="http://www.w3.org/2000/svg" viewBox="100 -110 808 848">
  <g transform="translate(0, 628) scale(1, -1)">
    <path fill="black" d="M785 -110Q785 -88 784.5 -65.0Q784 -42 783 -18Q691 -18 593.0 -24.5Q495 -31 402.0 -42.5Q309 -54 231.0 -68.0Q153 -82 100 -98Q106 -68 109.5 -39.5Q113 -11 113 15Q113 41 109.5 67.0Q106 93 100 118Q125 109 157 101Q156 133 154.0 179.5Q152 226 149.0 277.5Q146 329 141.0 378.5Q136 428 129.0 467.0Q122 506 114 526Q141 520 163 520Q187 520 220 526Q213 509 207.5 469.5Q202 430 197.5 378.5Q193 327 189.5 273.0Q186 219 183.5 172.0Q181 125 179 95Q237 80 309.5 66.0Q382 52 461.5 40.5Q541 29 623.0 22.0Q705 15 782 14Q778 106 770.0 208.5Q762 311 750.0 412.0Q738 513 722 599Q544 592 401.5 570.5Q259 549 170 522Q176 552 179.5 580.5Q183 609 183 635Q183 661 179.5 687.0Q176 713 170 738Q258 708 398.0 678.5Q538 649 714 638Q709 665 703.5 689.5Q698 714 692 736Q743 724 797 724Q851 724 908 736Q894 686 880.5 607.5Q867 529 855.5 434.5Q844 340 834.5 241.5Q825 143 820.0 52.0Q815 -39 815 -110ZM661 109Q660 134 656.5 175.5Q653 217 648.5 265.5Q644 314 638.5 362.5Q633 411 628 450Q593 449 548.5 445.5Q504 442 457.0 437.5Q410 433 367.5 427.5Q325 422 294.0 417.0Q263 412 252 408Q255 421 257.0 433.5Q259 446 259 459Q259 481 252 502Q263 498 293.5 493.0Q324 488 366.5 482.5Q409 477 456.0 472.0Q503 467 547.5 463.5Q592 460 627 459Q619 516 614 531Q640 525 664 525Q691 525 719 531Q714 520 708.5 482.5Q703 445 697.0 393.5Q691 342 685.5 287.0Q680 232 676.5 184.5Q673 137 671 109ZM333 109Q333 140 330 173Q303 169 282.5 165.5Q262 162 252 159Q255 172 257.0 184.5Q259 197 259 210Q259 232 252 253Q260 250 278.5 246.5Q297 243 321 239Q317 269 311.0 291.5Q305 314 300 321Q311 320 321.5 319.5Q332 319 343 319Q350 319 357.5 319.0Q365 319 372 320V321Q373 321 373.5 320.5Q374 320 375 320Q376 320 376.5 320.5Q377 321 378 321L377 320Q385 319 394.0 319.0Q403 319 412 319Q421 319 430.5 319.5Q440 320 450 321Q446 313 439.0 287.0Q432 261 427 226Q450 223 471.5 220.5Q493 218 514 216Q535 230 561.0 249.5Q587 269 631 300L640 292Q623 267 608.0 244.5Q593 222 585 208Q590 200 600.0 184.0Q610 168 621.5 151.0Q633 134 640 123L631 113Q595 142 568.5 161.5Q542 181 521 195Q497 193 471.5 190.0Q446 187 421 184Q419 165 418.0 145.5Q417 126 417 109H405Q405 126 404.0 144.5Q403 163 401 182L349 176Q347 159 346.0 142.0Q345 125 345 109ZM395 230Q391 259 385.5 281.0Q380 303 375 314Q371 304 366.5 282.5Q362 261 357 234Z" />
  </g>
</svg>