<svg xmlns="http://www.w3.org/2000/svg" viewBox="100 -302 1263 1235">
  <g transform="translate(0, 631) scale(1, -1)">
    <path fill="black" d="M849 -302 858 -270Q836 -270 801.5 -271.5Q767 -273 731.0 -276.0Q695 -279 665.0 -283.5Q635 -288 621 -294Q626 -266 621 -236Q632 -240 662.5 -243.5Q693 -247 731.0 -250.0Q769 -253 804.5 -254.5Q840 -256 861 -258Q872 -215 882.0 -160.0Q892 -105 899.0 -45.0Q906 15 907 72Q786 68 710.0 61.0Q634 54 581 44Q585 -54 596.5 -133.5Q608 -213 623 -263Q606 -260 590.5 -258.0Q575 -256 560 -256Q545 -256 531.0 -258.0Q517 -260 503 -263Q520 -213 536.0 -135.5Q552 -58 558 40Q544 37 530.5 34.0Q517 31 504 27Q511 59 511 90Q511 121 504 148Q543 138 579.0 130.0Q615 122 659.5 115.5Q704 109 766.5 103.5Q829 98 921 92Q930 126 936.5 160.0Q943 194 948.0 237.5Q953 281 958.0 341.0Q963 401 969 486Q932 496 896.0 503.5Q860 511 814.5 517.0Q769 523 705.0 528.5Q641 534 548 540Q537 500 529.0 462.0Q521 424 515.0 375.0Q509 326 503.0 255.0Q497 184 491 78H476L474 127Q406 126 334.0 119.5Q262 113 200.5 103.5Q139 94 100 82Q104 99 105.5 114.5Q107 130 107 145Q107 175 100 202Q107 200 115.0 197.0Q123 194 132 192Q132 215 130.0 249.0Q128 283 125.0 319.5Q122 356 118.0 386.0Q114 416 108 430Q136 425 166 430Q162 418 158.0 387.5Q154 357 151.5 319.0Q149 281 147.0 245.5Q145 210 144 189Q186 179 241.5 169.0Q297 159 357.0 152.0Q417 145 474 144Q470 266 463.0 341.5Q456 417 446 470Q347 466 268.0 454.5Q189 443 139 428Q142 445 144.0 460.5Q146 476 146 491Q146 506 144.0 520.0Q142 534 139 548Q188 531 266.0 514.5Q344 498 442 492Q439 506 436.0 520.0Q433 534 429 547Q446 543 462.0 541.0Q478 539 493 539Q501 539 508.0 539.5Q515 540 522 541Q520 541 517.5 541.5Q515 542 513 542V557Q526 557 538.0 557.5Q550 558 562 558Q561 626 554.5 698.0Q548 770 538.5 832.5Q529 895 517 933Q534 929 549.5 927.0Q565 925 580 925Q595 925 609.0 927.0Q623 929 637 933Q635 926 632.0 918.0Q629 910 627 901Q650 901 684.0 902.5Q718 904 754.5 907.0Q791 910 821.0 914.5Q851 919 865 925Q860 897 865 867Q853 872 822.5 875.0Q792 878 754.0 881.0Q716 884 680.5 886.0Q645 888 624 889Q614 847 604.0 791.5Q594 736 587.0 676.0Q580 616 579 559Q701 564 776.5 570.0Q852 576 905 586Q901 685 889.5 765.0Q878 845 863 894Q880 890 895.5 888.5Q911 887 926 887Q956 887 983 894Q966 845 949.5 767.0Q933 689 927 590Q941 593 955.0 596.5Q969 600 982 604Q978 584 975.5 566.5Q973 549 974 532H987Q987 519 987.5 507.0Q988 495 988 483Q1056 484 1128.0 490.0Q1200 496 1262.5 506.5Q1325 517 1363 528Q1359 511 1357.0 495.5Q1355 480 1355 465Q1355 437 1363 408L1331 417Q1331 395 1332.5 360.5Q1334 326 1337.0 290.0Q1340 254 1344.5 224.0Q1349 194 1355 180Q1327 185 1297 180Q1302 191 1305.0 221.5Q1308 252 1311.0 290.0Q1314 328 1316.0 363.5Q1318 399 1319 420Q1277 431 1221.5 441.0Q1166 451 1106.0 458.0Q1046 465 989 466Q994 345 1000.0 269.0Q1006 193 1016 140Q1115 144 1195.0 155.5Q1275 167 1324 182Q1317 150 1317 119Q1317 89 1324 62Q1275 79 1197.0 95.0Q1119 111 1020 117Q1023 103 1026.5 89.5Q1030 76 1034 63Q1016 67 1000.0 69.0Q984 71 969 71Q957 71 946.0 69.5Q935 68 924 66Q925 -1 931.5 -71.5Q938 -142 948.0 -203.0Q958 -264 969 -302Q937 -295 906 -295Q874 -295 849 -302Z" />
  </g>
</svg>