<svg xmlns="http://www.w3.org/2000/svg" viewBox="100 -189 900 925">
  <g transform="translate(0, 547) scale(1, -1)">
    <path fill="black" d="M391 -189Q391 -139 388.5 -89.5Q386 -40 382 8Q295 24 228.0 30.5Q161 37 100 38Q157 142 163 246Q214 214 262.0 186.5Q310 159 368 131Q355 227 337.0 306.5Q319 386 300 435Q265 416 231.5 396.5Q198 377 163 355Q157 459 100 563Q158 564 222.0 570.0Q286 576 366.0 590.0Q446 604 551.0 628.0Q656 652 796 688L784 736Q835 724 889 724Q943 724 1000 736Q987 687 973.5 612.0Q960 537 948.5 446.0Q937 355 928.0 260.0Q919 165 913.5 75.5Q908 -14 907 -86L945 -100L937 -125Q766 -79 641.5 -48.5Q517 -18 423 0Q419 -46 417.5 -93.5Q416 -141 416 -189ZM877 -74Q876 3 870.5 96.5Q865 190 855.5 288.0Q846 386 833.0 479.0Q820 572 805 648Q680 601 590.0 565.0Q500 529 434.5 500.0Q369 471 315 443Q339 439 361.5 437.5Q384 436 406 436Q461 436 511 446Q486 385 466.0 296.5Q446 208 433 102Q510 68 616.5 26.0Q723 -16 877 -74Z" />
  </g>
</svg>