<svg xmlns="http://www.w3.org/2000/svg" viewBox="100 -189 900 925">
  <g transform="translate(0, 547) scale(1, -1)">
    <path fill="black" d="M391 -189Q391 -139 388.5 -89.5Q386 -40 382 8Q295 24 228.0 30.5Q161 37 100 38Q157 142 163 246Q214 214 262.0 186.5Q310 159 368 131Q355 227 337.0 306.5Q319 386 300 435Q265 416 231.5 397.0Q198 378 163 355Q157 459 100 563Q158 564 219.0 569.5Q280 575 356.5 588.0Q433 601 535 624L572 657L584 651Q581 647 578.0 642.5Q575 638 573 633Q670 655 796 688L784 736Q835 724 889 724Q943 724 1000 736Q987 687 973.5 612.0Q960 537 948.5 446.0Q937 355 928.0 260.0Q919 165 913.5 75.5Q908 -14 907 -86L945 -100L937 -125Q871 -107 813.0 -91.5Q755 -76 703 -63Q720 -91 737.5 -106.0Q755 -121 768 -132Q711 -122 670 -122Q628 -122 572 -132Q586 -120 607.0 -102.0Q628 -84 647 -50Q640 -48 633.0 -46.0Q626 -44 618 -43Q616 -43 615 -44V-42H614Q614 -43 614.5 -43.0Q615 -43 615 -44Q585 -39 554 -39Q541 -39 528.5 -40.0Q516 -41 504 -44L515 -19Q490 -14 467.5 -9.0Q445 -4 423 0Q419 -46 417.5 -93.5Q416 -141 416 -189ZM734 564 809 625 804 649Q794 645 784.5 642.0Q775 639 766 635L773 632Q761 613 752.0 596.5Q743 580 734 564ZM676 567Q690 578 708.0 591.5Q726 605 753 630L699 609Q692 598 686.5 587.5Q681 577 676 567ZM604 556Q613 564 623.0 571.0Q633 578 646 588L616 577ZM830 495Q827 517 824.0 538.0Q821 559 817 579L801 550ZM877 -74Q876 -5 871.5 77.5Q867 160 859.5 247.5Q852 335 841 419Q830 400 820.5 382.0Q811 364 801 347Q815 325 827.5 300.0Q840 275 858 248L845 236Q815 265 796.5 282.5Q778 300 763.5 312.5Q749 325 732 336Q742 320 751.0 302.5Q760 285 773 266L761 257Q727 289 709.0 305.5Q691 322 673 336Q682 319 691.5 302.0Q701 285 714 266L703 257Q676 282 659.5 297.0Q643 312 630.5 323.0Q618 334 602 345Q614 326 623.5 306.5Q633 287 648 266L637 257Q608 284 591.0 299.5Q574 315 561.5 326.0Q549 337 530 349Q542 359 555.5 369.0Q569 379 588.5 394.5Q608 410 637 436L648 431Q634 409 624.5 390.5Q615 372 604 355Q620 369 641.5 385.0Q663 401 703 436L714 431Q701 413 692.5 397.0Q684 381 676 366Q690 377 710.0 392.5Q730 408 761 436L773 431Q760 411 751.0 394.0Q742 377 732 360Q749 375 772.5 394.0Q796 413 835 447Q809 472 791.5 488.0Q774 504 760.5 516.0Q747 528 731 540Q741 522 750.5 504.5Q760 487 773 467L761 458Q727 490 709.0 506.5Q691 523 673 537Q682 520 691.5 503.0Q701 486 714 467L703 458Q676 483 659.5 498.0Q643 513 630.5 524.0Q618 535 602 546Q614 527 623.5 507.5Q633 488 648 467L637 458Q610 483 594.0 498.0Q578 513 566.0 523.5Q554 534 538 545L532 542Q544 520 555.5 497.5Q567 475 584 449L582 448L584 447Q565 419 553.5 395.0Q542 371 528 347Q542 325 553.5 300.0Q565 275 584 248L573 237Q584 203 595.0 180.5Q606 158 615 137Q605 139 595.0 140.0Q585 141 574 142Q585 109 595.5 87.5Q606 66 615 46Q606 48 596.0 48.5Q586 49 575 50L578 40L642 15Q645 23 648.5 32.0Q652 41 655 51Q645 50 635.0 49.0Q625 48 615 46Q623 66 634.0 87.5Q645 109 655 142Q645 141 634.5 140.0Q624 139 615 137Q626 161 639.0 189.0Q652 217 665 265H675Q689 217 702.0 189.5Q715 162 725 137Q716 139 706.0 140.0Q696 141 685 142Q696 110 706.0 88.0Q716 66 725 46Q716 48 706.0 48.5Q696 49 685 50Q692 31 698.0 16.5Q704 2 710 -11L735 -20Q742 -6 750.0 11.0Q758 28 765 51Q755 50 745.0 49.0Q735 48 725 46Q733 66 744.0 87.5Q755 109 766 142Q756 141 745.5 140.0Q735 139 725 137Q735 161 749.0 189.0Q763 217 776 265H785Q798 217 811.0 189.5Q824 162 836 137Q826 139 815.5 140.0Q805 141 794 142Q805 110 815.5 88.0Q826 66 836 46Q826 48 816.0 48.5Q806 49 795 50Q806 19 816.0 -2.5Q826 -24 836 -44Q823 -42 809.5 -40.5Q796 -39 782 -39ZM489 386Q503 397 521.0 412.0Q539 427 562 447Q533 474 514.5 490.5Q496 507 480 520Q431 499 390.0 480.5Q349 462 314 443Q339 439 361.5 437.5Q384 436 406 436Q461 436 511 446Q505 433 499.5 418.0Q494 403 489 386ZM513 67Q521 82 529.5 99.5Q538 117 546 142Q535 141 524.5 140.0Q514 139 504 137Q514 160 527.0 185.5Q540 211 553 254Q525 280 507.5 295.5Q490 311 473 324Q461 275 451.0 219.5Q441 164 433 102Q452 94 471.5 85.0Q491 76 513 67Z" />
  </g>
</svg>