<svg xmlns="http://www.w3.org/2000/svg" viewBox="100 -189 900 925">
  <g transform="translate(0, 547) scale(1, -1)">
    <path fill="black" d="M391 -189Q391 -139 388.5 -89.5Q386 -40 382 8Q295 24 228.0 30.5Q161 37 100 38Q157 142 163 246Q214 214 262.0 186.5Q310 159 368 131Q355 227 337.0 306.5Q319 386 300 435Q265 416 231.5 396.5Q198 377 163 355Q157 459 100 563Q158 564 222.0 570.0Q286 576 366.0 590.0Q446 604 551.0 628.0Q656 652 796 688L784 736Q835 724 889 724Q943 724 1000 736Q986 684 971.0 599.0Q956 514 943.0 404.5Q930 295 920.5 170.5Q911 46 907 -86L945 -100L937 -125Q766 -79 641.5 -48.5Q517 -18 423 0Q419 -46 417.5 -93.5Q416 -141 416 -189ZM877 -74 875 -12Q792 19 737.0 38.5Q682 58 644.0 70.0Q606 82 574.5 89.0Q543 96 506 102Q522 122 532.5 145.0Q543 168 550 199Q574 179 600.0 159.5Q626 140 661.5 118.5Q697 97 748.5 69.0Q800 41 874 5Q873 37 871.0 70.0Q869 103 867 137Q807 160 766.5 174.0Q726 188 698.5 196.5Q671 205 649.0 210.0Q627 215 605.5 219.0Q584 223 556 227Q572 247 582.5 270.0Q593 293 600 324Q623 305 643.0 288.5Q663 272 690.0 254.5Q717 237 758.5 213.5Q800 190 866 157Q864 189 861.0 222.0Q858 255 855 288Q784 313 726.0 327.5Q668 342 606 352Q622 372 632.5 395.0Q643 418 650 449Q727 384 852 314Q849 345 845.5 375.0Q842 405 838 435Q795 447 747.5 458.5Q700 470 654 477Q670 497 680.5 520.0Q691 543 698 574Q724 552 760.0 526.5Q796 501 833 478Q826 524 819.5 567.0Q813 610 805 648Q680 601 590.0 565.0Q500 529 434.5 500.0Q369 471 315 443Q339 439 361.5 437.5Q384 436 406 436Q461 436 511 446Q486 385 466.0 296.5Q446 208 433 102Q510 68 616.5 26.0Q723 -16 877 -74Z" />
  </g>
</svg>