<svg xmlns="http://www.w3.org/2000/svg" viewBox="100 -88 1690 850">
  <g transform="translate(0, 674) scale(1, -1)">
    <path fill="black" d="M544 -88 531 -76Q500 -47 454.5 -4.0Q409 39 357.5 86.0Q306 133 255.5 176.5Q205 220 164.0 252.0Q123 284 100 296Q127 311 149.0 329.5Q171 348 192 375L186 369L173 381Q199 413 233.5 455.0Q268 497 304.5 542.0Q341 587 374.5 630.0Q408 673 431.5 708.0Q455 743 462 762Q482 737 501.5 719.0Q521 701 544 687Q588 715 625 762Q632 742 655.5 707.5Q679 673 712.5 630.0Q746 587 783.0 542.0Q820 497 854.5 455.0Q889 413 915 381L902 369L895 375Q903 365 911.5 356.5Q920 348 928 340Q934 379 934 420Q934 446 931.5 474.0Q929 502 924 532Q946 522 983.0 513.0Q1020 504 1067 495Q1061 545 1055.0 582.5Q1049 620 1045 630Q1060 627 1075.5 625.0Q1091 623 1107 623Q1118 623 1129.5 624.5Q1141 626 1153 628V630Q1154 630 1154.5 629.5Q1155 629 1156 629Q1157 629 1157.5 629.5Q1158 630 1159 630L1158 629Q1172 627 1187.0 625.0Q1202 623 1216 623Q1227 623 1238.0 624.5Q1249 626 1261 628V630Q1262 630 1262.5 629.5Q1263 629 1264 629Q1265 629 1265.5 629.5Q1266 630 1267 630L1266 629Q1280 627 1295.0 625.0Q1310 623 1324 623Q1335 623 1346.0 624.5Q1357 626 1369 628V630Q1370 630 1370.5 629.5Q1371 629 1372 629Q1373 629 1373.5 629.5Q1374 630 1375 630L1374 629Q1388 627 1402.5 625.0Q1417 623 1431 623Q1458 623 1483 630Q1478 617 1470.5 565.5Q1463 514 1455 446Q1492 443 1527.5 441.5Q1563 440 1596 438Q1627 464 1673.5 508.0Q1720 552 1763 602L1780 592Q1751 540 1730.0 499.0Q1709 458 1689 426Q1703 402 1728.5 364.5Q1754 327 1790 280L1774 267Q1717 317 1677.0 350.5Q1637 384 1602 410Q1531 408 1450 401Q1445 351 1441.0 301.0Q1437 251 1434.5 210.5Q1432 170 1432 145H1420Q1420 169 1417.5 209.0Q1415 249 1411.0 298.0Q1407 347 1402 397L1341 391Q1336 342 1332.0 294.5Q1328 247 1326.0 208.0Q1324 169 1324 145H1312Q1312 180 1307.0 247.0Q1302 314 1295 386L1232 378Q1225 308 1220.5 243.5Q1216 179 1216 145H1204Q1204 178 1199.5 240.5Q1195 303 1188 372Q1171 369 1155.0 366.5Q1139 364 1122 362Q1116 296 1112.0 236.5Q1108 177 1108 145H1096Q1096 177 1092.0 234.0Q1088 291 1082 355Q998 340 945 324Q955 317 965.5 309.5Q976 302 988 296Q965 284 922.5 251.0Q880 218 828.0 172.5Q776 127 722.5 78.0Q669 29 622.0 -15.0Q575 -59 544 -88ZM542 -61Q566 -32 599.5 7.5Q633 47 671.0 91.5Q709 136 746.0 181.0Q783 226 814 266Q759 265 692.5 261.0Q626 257 562 250Q560 214 558.5 178.5Q557 143 557 111H545Q545 178 539 248Q487 243 441.5 236.5Q396 230 364.5 224.5Q333 219 323 215Q329 245 329 276Q329 289 328.0 302.5Q327 316 323 329Q338 322 397.5 313.0Q457 304 535 296Q533 322 530.5 346.5Q528 371 525 394Q450 386 394.0 377.0Q338 368 323 362Q329 392 329 423Q329 436 328.0 449.5Q327 463 323 476Q337 470 391.0 461.0Q445 452 518 444Q511 490 505.0 522.5Q499 555 494 566Q524 560 555 560Q568 560 581.5 561.0Q595 562 608 566Q603 555 596.5 520.5Q590 486 583 438Q644 433 705.5 429.0Q767 425 819 425V413Q767 413 703.0 409.0Q639 405 577 399Q574 374 571.0 347.0Q568 320 566 293Q631 286 697.5 282.0Q764 278 819 278V272Q847 308 866.0 336.0Q885 364 891 379Q854 414 807.0 456.0Q760 498 711.5 540.5Q663 583 619.0 617.5Q575 652 544 670Q513 652 469.0 617.5Q425 583 376.0 540.5Q327 498 280.0 456.0Q233 414 196 379Q203 362 225.0 330.5Q247 299 278.5 258.5Q310 218 347.0 173.5Q384 129 420.5 85.0Q457 41 489.0 3.5Q521 -34 542 -61ZM1396 451Q1390 507 1383.5 553.0Q1377 599 1372 620Q1367 600 1360.5 555.5Q1354 511 1348 456ZM1177 477Q1172 525 1166.5 563.0Q1161 601 1156 620Q1152 603 1146.5 566.5Q1141 530 1135 483ZM1287 463Q1281 516 1275.0 558.5Q1269 601 1264 620Q1259 601 1253.0 560.0Q1247 519 1241 468Z" />
  </g>
</svg>