<svg xmlns="http://www.w3.org/2000/svg" viewBox="100 -110 995 903">
  <g transform="translate(0, 683) scale(1, -1)">
    <path fill="black" d="M972 -110Q937 -87 877.5 -48.5Q818 -10 744.5 37.5Q671 85 591.0 136.0Q511 187 433.0 235.5Q355 284 287.0 324.5Q219 365 170.0 391.0Q121 417 100 422Q125 447 147.0 475.5Q169 504 188 543Q196 530 227.0 501.5Q258 473 305.0 433.5Q352 394 410.5 347.5Q469 301 532 251V259Q517 290 494 311Q507 314 529 323Q528 347 526.0 372.0Q524 397 522 421Q519 418 516.5 415.5Q514 413 512 411Q495 464 460 497L473 501Q401 545 337.0 582.0Q273 619 227.0 643.0Q181 667 160 672Q185 697 207.0 725.5Q229 754 248 793Q258 778 294.5 744.5Q331 711 386.5 665.5Q442 620 508 568Q504 596 500.5 617.5Q497 639 493 651Q516 645 541 645Q566 645 593 651Q616 645 642 645Q667 645 694 651Q718 645 743 645Q755 645 767.0 646.5Q779 648 791 650Q818 664 842.0 677.0Q866 690 887 702L879 736Q930 724 984 724Q1038 724 1095 736Q1081 686 1067.5 607.5Q1054 529 1042.5 434.5Q1031 340 1021.5 241.5Q1012 143 1007.0 52.0Q1002 -39 1002 -110ZM876 492Q888 498 900.0 504.5Q912 511 922 517Q915 562 907.5 604.0Q900 646 892 682L834 645Q863 644 894 651Q890 637 885.5 594.0Q881 551 876 492ZM577 544 608 559Q605 590 601.0 613.0Q597 636 593 649Q585 620 577 544ZM683 595 701 604Q698 634 693 649Q691 641 688.5 627.0Q686 613 683 595ZM770 437 814 459Q810 509 806.5 551.5Q803 594 799 621Q796 619 793.0 617.0Q790 615 787 613Q783 582 778.5 536.0Q774 490 770 437ZM713 408 719 411Q716 452 713.0 489.5Q710 527 707 558Q700 553 692.0 547.5Q684 542 677 537L668 443Q679 435 690.5 426.0Q702 417 713 408ZM955 227Q944 364 926 494L874 460Q871 421 868.5 379.0Q866 337 864 295ZM616 483Q615 487 615 493L609 489ZM559 335 625 366 622 408 567 443Q565 416 563.0 389.0Q561 362 559 335ZM822 326 816 422 767 389Q766 384 766.0 378.5Q766 373 766 368ZM733 96Q732 143 730.0 208.5Q728 274 723 344L712 351L659 314Q657 269 655.0 228.5Q653 188 653 157ZM834 20Q833 66 830.5 135.0Q828 204 824 280Q809 289 794.0 299.0Q779 309 763 319Q759 250 756.5 186.5Q754 123 753 81ZM633 172Q633 198 632.0 228.0Q631 258 629 292Q604 274 585.0 259.0Q566 244 555 234ZM972 -82Q971 -22 967.5 48.0Q964 118 958 193L862 255Q858 179 855.5 113.0Q853 47 853 6Z" />
  </g>
</svg>