<svg xmlns="http://www.w3.org/2000/svg" viewBox="100 -110 995 903">
  <g transform="translate(0, 683) scale(1, -1)">
    <path fill="black" d="M972 -110Q944 -91 898.5 -61.5Q853 -32 797 3Q782 2 767.0 2.0Q752 2 737 0Q736 0 736 -2L733 0Q660 -5 593.5 -15.0Q527 -25 493 -36Q499 -13 499 13Q499 38 493 65Q513 58 550.0 51.5Q587 45 633 39L653 96Q619 119 583.0 142.0Q547 165 511 187Q513 147 516.5 127.5Q520 108 524 86Q498 101 469.5 112.0Q441 123 411 127Q411 86 413.0 62.0Q415 38 418.0 22.5Q421 7 424 -11Q396 5 366.0 16.5Q336 28 304 31Q315 40 326.5 47.5Q338 55 355.0 73.0Q372 91 399 130Q372 145 343.5 156.0Q315 167 284 170Q295 179 306.5 186.5Q318 194 335.0 212.0Q352 230 379 269Q313 310 256.5 342.5Q200 375 159.5 396.0Q119 417 100 422Q125 447 147.0 475.5Q169 504 188 543Q196 530 227.0 501.5Q258 473 305.0 433.5Q352 394 410.5 347.5Q469 301 532 251Q532 257 532.0 262.5Q532 268 531 273Q524 288 514.5 301.0Q505 314 494 324Q500 326 509.0 329.0Q518 332 528 336Q527 357 525.5 378.5Q524 400 522 421Q519 418 516.5 415.5Q514 413 512 411Q495 464 460 497L473 501Q401 545 337.0 582.0Q273 619 227.0 643.0Q181 667 160 672Q185 697 207.0 725.5Q229 754 248 793Q258 778 294.5 744.5Q331 711 386.5 665.5Q442 620 508 568Q504 596 500.5 617.5Q497 639 493 651Q516 645 541 645Q566 645 593 651Q616 645 641 645Q666 645 693 651H694Q718 645 743 645Q755 645 767.0 646.5Q779 648 791 650Q818 664 842.0 677.0Q866 690 887 702L879 736Q930 724 984 724Q1038 724 1095 736Q1081 686 1067.5 607.5Q1054 529 1042.5 434.5Q1031 340 1021.5 241.5Q1012 143 1007.0 52.0Q1002 -39 1002 -110ZM877 505Q888 511 899.0 517.0Q910 523 920 529Q914 571 907.0 609.5Q900 648 892 682L834 645Q863 644 894 651Q890 638 885.5 598.5Q881 559 877 505ZM683 595 701 604Q698 634 693 649Q691 641 688.5 627.0Q686 613 683 595ZM577 544 608 559Q605 590 601.0 613.0Q597 636 593 649Q585 620 577 544ZM771 450 813 472Q809 518 806.0 557.0Q803 596 799 621Q796 619 793.0 617.0Q790 615 787 613Q783 585 779.0 542.5Q775 500 771 450ZM718 428Q715 464 712.5 497.0Q710 530 707 558Q700 553 692.0 547.5Q684 542 677 537L668 443Q672 441 675.5 438.0Q679 435 683 432ZM955 227Q949 298 941.5 369.0Q934 440 924 506L875 474Q872 433 869.0 387.0Q866 341 864 295ZM616 483Q615 487 615 493L609 489ZM559 349Q570 354 581.5 359.0Q593 364 605 370L601 375Q607 377 613.0 378.5Q619 380 624 382Q623 386 623 395Q613 393 605.0 391.0Q597 389 590 387Q592 398 592.5 408.0Q593 418 592 427Q586 431 579.5 435.0Q573 439 567 443Q565 420 563.0 396.0Q561 372 559 349ZM822 326 816 434 798 423H808V415Q803 415 797.5 415.0Q792 415 786 414L768 402Q768 401 767.5 398.5Q767 396 767 394L778 402Q780 387 782.0 375.5Q784 364 786 353ZM730 191Q729 227 727.0 265.5Q725 304 723 344Q718 348 712.5 351.0Q707 354 702 357L670 334Q676 314 686.5 282.5Q697 251 717 195Q720 194 723.5 193.5Q727 193 730 191ZM757 78Q770 115 776.0 136.0Q782 157 785.5 174.5Q789 192 792 216Q800 209 809.0 204.0Q818 199 828 195V196Q806 243 790.5 271.5Q775 300 764 318L763 319Q759 250 756.5 186.5Q754 123 753 81ZM633 172Q633 200 631.5 233.5Q630 267 628 304Q604 286 584.5 271.5Q565 257 554 246V235ZM669 145Q674 164 676.5 179.0Q679 194 682 216Q693 206 706 200Q691 232 679.5 255.0Q668 278 658 294Q656 255 654.5 220.0Q653 185 653 157ZM827 224 824 280 803 293Q808 280 813.5 263.0Q819 246 827 224ZM405 129Q414 137 424.0 143.5Q434 150 448.5 163.5Q463 177 483 204L391 262Q391 224 393.0 201.0Q395 178 397.5 162.5Q400 147 403 130ZM972 -82Q971 -22 967.5 48.0Q964 118 958 193L862 255Q858 179 855.5 113.0Q853 47 853 6ZM733 96Q733 113 732.5 135.0Q732 157 731 179Q721 168 712.5 156.0Q704 144 693 127Q703 119 713.0 111.5Q723 104 733 96ZM829 24H834L829 165Q817 149 803.5 128.0Q790 107 770 68ZM739 28Q742 33 743 39Q725 50 707.0 61.5Q689 73 670 86Q665 76 659.0 64.0Q653 52 645 38Q668 35 691.5 32.5Q715 30 739 28ZM761 27 753 32 750 28Q753 27 756.0 27.0Q759 27 761 27Z" />
  </g>
</svg>