<svg xmlns="http://www.w3.org/2000/svg" viewBox="100 -112 1707 848">
  <g transform="translate(0, 624) scale(1, -1)">
    <path fill="black" d="M1698 -112Q1691 1 1684.0 91.0Q1677 181 1671 253Q1645 268 1615.0 284.5Q1585 301 1553 320Q1490 274 1424.0 225.0Q1358 176 1300.5 131.5Q1243 87 1203.0 52.5Q1163 18 1150 1Q1133 43 1112.0 73.0Q1091 103 1062 131Q1088 136 1134 157Q1087 153 1033.0 146.5Q979 140 928.5 133.0Q878 126 840.5 119.0Q803 112 789 106Q795 139 795 175Q795 187 794.0 200.0Q793 213 791 226L789 225Q789 229 790 231Q789 232 789 236L790 235Q792 250 793.5 265.5Q795 281 795 297Q795 317 792 339L785 334L778 340Q750 287 728.0 245.5Q706 204 686 169Q703 141 732.5 97.0Q762 53 803 -1L785 -16Q709 52 657.0 94.0Q605 136 560 169Q580 186 612.5 215.0Q645 244 683.0 281.0Q721 318 757 358Q693 414 647.0 451.5Q601 489 560 519Q582 538 617.5 569.5Q653 601 694.0 641.5Q735 682 772 725L792 714Q758 653 733.5 605.0Q709 557 686 519Q701 493 728.0 453.0Q755 413 792 363Q795 387 795 412Q795 425 794.0 438.0Q793 451 791 464L789 463Q789 467 790 469Q789 470 789 474L790 473Q792 488 793.5 502.5Q795 517 795 533Q795 562 789 593Q801 588 837.0 581.0Q873 574 922.5 567.0Q972 560 1025.5 554.0Q1079 548 1126 543Q1106 551 1089.5 557.5Q1073 564 1062 566Q1091 594 1112.0 624.0Q1133 654 1150 696Q1163 678 1203.5 643.5Q1244 609 1301.5 564.5Q1359 520 1424.0 471.5Q1489 423 1551 378Q1578 394 1603.5 408.5Q1629 423 1652 436Q1644 496 1635.0 545.5Q1626 595 1615.5 641.0Q1605 687 1591 736Q1642 724 1696 724Q1750 724 1807 736Q1793 686 1782.0 630.5Q1771 575 1762.0 507.0Q1753 439 1746.0 351.5Q1739 264 1733.5 150.0Q1728 36 1724 -112ZM325 -16Q249 52 197.0 94.0Q145 136 100 169Q120 186 152.5 215.0Q185 244 223.0 281.0Q261 318 297 358Q233 414 187.0 451.5Q141 489 100 519Q122 538 157.5 569.5Q193 601 234.0 641.5Q275 682 312 725L332 714Q298 653 273.5 605.0Q249 557 226 519Q243 491 272.5 447.0Q302 403 343 349L325 334L318 340Q290 287 268.0 245.5Q246 204 226 169Q243 141 272.5 97.0Q302 53 343 -1ZM613 382Q570 421 544.0 444.5Q518 468 498.0 484.5Q478 501 451 519Q469 535 489.5 551.0Q510 567 539.5 590.5Q569 614 613 653L628 643Q606 609 590.5 578.5Q575 548 559 519Q575 491 590.5 460.5Q606 430 628 395ZM503 382Q460 421 434.0 444.5Q408 468 388.0 484.5Q368 501 341 519Q359 535 379.5 551.0Q400 567 429.5 590.5Q459 614 503 653L518 643Q496 609 480.5 578.5Q465 548 449 519Q465 491 480.5 460.5Q496 430 518 395ZM393 382Q350 421 324.0 444.5Q298 468 278.0 484.5Q258 501 231 519Q249 535 269.5 551.0Q290 567 319.5 590.5Q349 614 393 653L408 643Q386 609 370.5 578.5Q355 548 339 519Q355 491 370.5 460.5Q386 430 408 395ZM1168 420V517Q1126 514 1074.0 508.5Q1022 503 969.5 496.0Q917 489 873.5 482.0Q830 475 806 468Q830 462 873.5 455.0Q917 448 969.5 441.5Q1022 435 1074.5 429.0Q1127 423 1168 420ZM1197 186Q1263 218 1342.5 262.0Q1422 306 1500 349Q1423 393 1343.0 436.0Q1263 479 1197 511ZM1168 301V398Q1127 395 1075.0 389.5Q1023 384 970.0 377.0Q917 370 873.5 363.0Q830 356 805 349Q829 343 873.0 336.0Q917 329 970.0 322.5Q1023 316 1075.0 310.0Q1127 304 1168 301ZM1667 294Q1665 322 1662.0 347.0Q1659 372 1657 395L1592 348ZM503 32Q460 71 434.0 94.5Q408 118 388.0 134.5Q368 151 341 169Q359 185 379.5 201.0Q400 217 429.5 240.5Q459 264 503 303L518 293Q496 259 480.5 228.5Q465 198 449 169Q465 141 480.5 110.5Q496 80 518 45ZM613 32Q570 71 544.0 94.5Q518 118 498.0 134.5Q478 151 451 169Q469 185 489.5 201.0Q510 217 539.5 240.5Q569 264 613 303L628 293Q606 259 590.5 228.5Q575 198 559 169Q575 141 590.5 110.5Q606 80 628 45ZM393 32Q350 71 324.0 94.5Q298 118 278.0 134.5Q258 151 231 169Q249 185 269.5 201.0Q290 217 319.5 240.5Q349 264 393 303L408 293Q386 259 370.5 228.5Q355 198 339 169Q355 141 370.5 110.5Q386 80 408 45ZM1168 183V279Q1127 276 1075.0 270.5Q1023 265 970.5 258.0Q918 251 874.5 244.0Q831 237 806 230Q830 224 873.5 217.0Q917 210 969.5 203.5Q1022 197 1074.0 191.5Q1126 186 1168 183Z" />
  </g>
</svg>