<svg xmlns="http://www.w3.org/2000/svg" viewBox="100 -4 747 625">
  <g transform="translate(0, 617) scale(1, -1)">
    <path fill="black" d="M472 386Q477 412 479.5 441.0Q482 470 482 501Q482 530 479.5 560.5Q477 591 472 621Q500 606 545.0 589.0Q590 572 643.0 557.0Q696 542 749.5 531.5Q803 521 847 519V490Q803 490 749.5 479.5Q696 469 643.0 453.0Q590 437 545.0 419.0Q500 401 472 386ZM100 386Q105 412 107.5 441.0Q110 470 110 501Q110 530 107.5 560.5Q105 591 100 621Q128 606 173.0 589.0Q218 572 271.0 557.0Q324 542 377.5 531.5Q431 521 475 519V490Q431 490 377.5 479.5Q324 469 271.0 453.0Q218 437 173.0 419.0Q128 401 100 386ZM100 -4Q105 22 107.5 51.0Q110 80 110 111Q110 140 107.5 170.5Q105 201 100 231Q128 216 173.0 199.0Q218 182 271.0 167.0Q324 152 377.5 141.5Q431 131 475 129V100Q431 100 377.5 89.5Q324 79 271.0 63.0Q218 47 173.0 29.0Q128 11 100 -4ZM472 -4Q477 22 479.5 51.0Q482 80 482 111Q482 140 479.5 170.5Q477 201 472 231Q500 216 545.0 199.0Q590 182 643.0 167.0Q696 152 749.5 141.5Q803 131 847 129V100Q803 100 749.5 89.5Q696 79 643.0 63.0Q590 47 545.0 29.0Q500 11 472 -4Z" />
  </g>
</svg>