<svg xmlns="http://www.w3.org/2000/svg" viewBox="100 -22 440 998">
  <g transform="translate(0, 954) scale(1, -1)">
    <path fill="black" d="M418 -22Q418 43 412.5 123.5Q407 204 397.5 289.5Q388 375 376.0 456.5Q364 538 352.0 605.5Q340 673 329 716Q288 740 252.5 755.5Q217 771 181.0 784.0Q145 797 100 812Q141 844 174.5 883.5Q208 923 239 976Q261 934 283.5 895.5Q306 857 337.5 815.5Q369 774 416 724Q476 723 540 736Q529 699 516.0 632.5Q503 566 490.5 482.0Q478 398 467.5 307.5Q457 217 450.5 131.5Q444 46 444 -22Z" />
  </g>
</svg>