<svg xmlns="http://www.w3.org/2000/svg" viewBox="100 -110 808 848">
  <g transform="translate(0, 628) scale(1, -1)">
    <path fill="black" d="M785 -110Q785 -88 784.5 -65.0Q784 -42 783 -18Q691 -18 593.0 -24.5Q495 -31 402.0 -42.5Q309 -54 231.0 -68.0Q153 -82 100 -98Q106 -68 109.5 -39.5Q113 -11 113 15Q113 41 109.5 67.0Q106 93 100 118Q125 109 157 101Q156 133 154.0 179.5Q152 226 149.0 277.5Q146 329 141.0 378.5Q136 428 129.0 467.0Q122 506 114 526Q141 520 163 520Q187 520 220 526Q213 509 207.5 469.5Q202 430 197.5 378.5Q193 327 189.5 273.0Q186 219 183.5 172.0Q181 125 179 95Q237 80 309.5 66.0Q382 52 461.5 40.5Q541 29 623.0 22.0Q705 15 782 14Q778 106 770.0 208.5Q762 311 750.0 412.0Q738 513 722 599Q544 592 401.5 570.5Q259 549 170 522Q176 552 179.5 580.5Q183 609 183 635Q183 661 179.5 687.0Q176 713 170 738Q258 708 398.0 678.5Q538 649 714 638Q709 665 703.5 689.5Q698 714 692 736Q743 724 797 724Q851 724 908 736Q894 686 880.5 607.5Q867 529 855.5 434.5Q844 340 834.5 241.5Q825 143 820.0 52.0Q815 -39 815 -110ZM687 51Q660 67 615.5 87.5Q571 108 527 123Q535 131 542.0 139.5Q549 148 554 159Q459 150 394.5 138.0Q330 126 275 104Q281 134 281 164Q281 191 275 224Q311 210 362.5 199.0Q414 188 480 182Q479 213 476.5 245.5Q474 278 470 310Q423 303 382.5 294.5Q342 286 313 275Q319 305 319 335Q319 362 313 395Q336 385 376.0 377.5Q416 370 464 364Q458 412 450.0 452.0Q442 492 433 515Q450 513 465.0 511.5Q480 510 494 510Q509 510 524.0 511.5Q539 513 554 515Q542 487 533.5 446.0Q525 405 519 358Q558 354 597.5 351.5Q637 349 674 347V332Q634 328 593.0 324.0Q552 320 513 315L499 180Q513 179 527.0 178.0Q541 177 555 176Q549 188 542.0 197.0Q535 206 527 214Q571 229 615.5 249.5Q660 270 687 286L692 280Q678 269 655.5 250.0Q633 231 609.5 209.5Q586 188 568 168Q586 149 609.5 127.0Q633 105 655.5 86.5Q678 68 692 57Z" />
  </g>
</svg>