<svg xmlns="http://www.w3.org/2000/svg" viewBox="100 -151 1461 885">
  <g transform="translate(0, 583) scale(1, -1)">
    <path fill="black" d="M669 -151Q669 -110 667.0 -65.0Q665 -20 661 23Q547 -7 450.0 -35.5Q353 -64 282.5 -88.5Q212 -113 176 -132Q175 -73 164.5 -20.0Q154 33 131 80Q136 79 141.0 79.0Q146 79 151 79Q149 118 146.0 176.5Q143 235 138.0 300.5Q133 366 127.5 427.5Q122 489 115.0 535.0Q108 581 100 600Q133 594 163 594Q195 594 225 600Q218 581 211.0 545.5Q204 510 199 465Q226 485 245.5 505.0Q265 525 282 548Q291 526 320.0 486.5Q349 447 389.0 397.5Q429 348 472.5 296.5Q516 245 555.5 199.0Q595 153 622 120Q630 121 637.5 122.0Q645 123 652 124Q645 179 638.0 221.0Q631 263 624 283Q650 277 675 277Q687 277 699.0 278.5Q711 280 724 282V283H726Q750 277 774 277Q799 277 826 283Q859 274 895 277L885 294Q898 294 922.5 299.5Q947 305 981 314Q981 323 980.5 334.0Q980 345 979 357Q960 356 928.5 353.5Q897 351 863 348Q862 330 860.5 313.0Q859 296 859 282H844Q842 313 838 345L779 339Q776 309 776 282H762Q761 294 760.5 308.0Q760 322 758 336L708 329Q710 340 711.5 348.5Q713 357 713 366Q713 374 711.5 381.5Q710 389 708 399Q712 398 723.0 396.0Q734 394 750 392Q746 419 741.5 441.5Q737 464 735 474Q647 497 574.0 511.5Q501 526 443 532Q504 619 522 734Q563 703 630.0 664.0Q697 625 786 579L782 607Q791 604 821.5 598.5Q852 593 892.0 588.0Q932 583 967 580Q963 632 960.5 669.5Q958 707 956 714Q967 712 975.0 710.5Q983 709 992 709Q1000 709 1008.0 710.5Q1016 712 1026 714Q1024 708 1020.5 671.5Q1017 635 1013.5 582.0Q1010 529 1006 473Q1023 465 1040.5 457.0Q1058 449 1077 441Q1074 485 1071.0 530.5Q1068 576 1065.0 615.5Q1062 655 1060.0 681.5Q1058 708 1056 714Q1067 712 1075.5 710.5Q1084 709 1093 709Q1101 709 1108.5 710.5Q1116 712 1126 714Q1124 709 1121.5 681.0Q1119 653 1116.0 611.0Q1113 569 1110.0 521.0Q1107 473 1104 428L1203 385Q1275 410 1343.5 435.0Q1412 460 1467 480Q1440 489 1399.0 504.0Q1358 519 1312.5 536.0Q1267 553 1225.5 568.0Q1184 583 1154.0 592.5Q1124 602 1116 602Q1128 619 1137.0 637.0Q1146 655 1150 678Q1155 672 1182.0 655.5Q1209 639 1247.5 617.0Q1286 595 1329.0 571.0Q1372 547 1410.0 526.0Q1448 505 1472 491Q1468 546 1463.0 586.5Q1458 627 1451.0 662.0Q1444 697 1434 734Q1466 726 1496 726Q1526 726 1561 734Q1549 691 1540.5 650.5Q1532 610 1526.0 559.5Q1520 509 1515.5 437.0Q1511 365 1507 259V231Q1365 199 1207.0 161.5Q1049 124 897 85Q892 28 888.0 -33.5Q884 -95 882 -151H870Q870 -97 866.5 -38.5Q863 20 858 75L794 59Q789 7 786.0 -47.0Q783 -101 781 -151H769Q769 -103 766.5 -51.5Q764 0 759 49L691 31Q687 -15 684.5 -61.0Q682 -107 681 -151ZM972 488Q971 507 970.5 525.0Q970 543 968 561Q940 559 908.5 555.5Q877 552 849 548ZM1487 267Q1483 326 1480.0 374.0Q1477 422 1474 461Q1432 439 1378.5 412.5Q1325 386 1269 357Q1321 335 1375.5 312.5Q1430 290 1487 267ZM437 97 601 117Q570 146 525.5 186.5Q481 227 432.5 271.0Q384 315 337.5 355.0Q291 395 254.5 423.5Q218 452 199 461Q194 416 189.5 365.5Q185 315 181 265Q205 283 223.0 302.0Q241 321 257 343Q268 317 296.5 276.5Q325 236 362.0 189.5Q399 143 437 97ZM834 382 823 450 799 457Q796 444 793.0 426.0Q790 408 786 387Q797 386 809.0 385.0Q821 384 834 382ZM979 372Q978 380 977.5 388.0Q977 396 977 405L877 435Q874 422 871.5 408.0Q869 394 867 379Q900 376 930.0 374.0Q960 372 979 372ZM999 319Q1018 325 1039.0 331.5Q1060 338 1082 345Q1081 351 1081.0 358.0Q1081 365 1081 372L1002 397ZM1100 351 1124 358Q1118 360 1112.0 362.0Q1106 364 1101 366Q1101 362 1100.5 358.5Q1100 355 1100 351ZM942 166Q1068 186 1198.0 206.5Q1328 227 1453 248L1215 329Q1153 297 1096.5 265.5Q1040 234 999.0 208.5Q958 183 942 166ZM803 145Q814 147 825.5 148.5Q837 150 849 152Q843 196 837.0 230.0Q831 264 825 281Q820 265 814.0 228.5Q808 192 803 145ZM701 130 750 137Q744 185 737.5 223.0Q731 261 725 280Q719 261 713.0 221.5Q707 182 701 130ZM166 79Q208 78 265.0 81.5Q322 85 390 92Q350 127 310.0 160.0Q270 193 236.0 218.0Q202 243 180 254ZM905 160 941 166Q937 183 930.5 200.5Q924 218 916 236Z" />
  </g>
</svg>