<svg xmlns="http://www.w3.org/2000/svg" viewBox="100 -151 1407 885">
  <g transform="translate(0, 583) scale(1, -1)">
    <path fill="black" d="M669 -151Q669 -110 667.0 -65.0Q665 -20 661 23Q547 -7 450.0 -35.5Q353 -64 282.5 -88.5Q212 -113 176 -132Q175 -73 164.5 -20.0Q154 33 131 80Q136 79 141.0 79.0Q146 79 151 79Q149 118 146.0 176.5Q143 235 138.0 300.5Q133 366 127.5 427.5Q122 489 115.0 535.0Q108 581 100 600Q133 594 163 594Q195 594 225 600Q218 581 211.0 545.5Q204 510 199 465Q226 485 245.5 505.0Q265 525 282 548Q291 526 320.0 486.5Q349 447 389.0 397.5Q429 348 472.5 296.5Q516 245 555.5 199.0Q595 153 622 120Q630 121 637.5 122.0Q645 123 652 124Q645 179 638.0 221.0Q631 263 624 283Q650 277 675 277Q687 277 699.0 278.5Q711 280 724 282V283Q748 277 773 277Q798 277 825 283H826Q836 281 845.5 279.0Q855 277 865 277Q839 290 814.5 301.0Q790 312 773 318Q781 326 788.0 334.5Q795 343 800 354Q705 345 640.5 333.0Q576 321 521 299Q527 329 527 359Q527 386 521 419Q567 401 637.0 388.5Q707 376 801 371Q795 383 788.0 392.0Q781 401 773 409Q787 414 807.0 423.0Q827 432 849 443Q721 480 619.5 502.5Q518 525 443 532Q504 619 522 734Q581 690 691.5 629.0Q802 568 953 497L1005 527L1010 521L969 490Q1085 436 1220.5 377.5Q1356 319 1507 259V231Q1365 199 1207.0 161.5Q1049 124 897 85Q892 28 888.0 -33.5Q884 -95 882 -151H870Q870 -97 866.5 -38.5Q863 20 858 75L794 59Q789 7 786.0 -47.0Q783 -101 781 -151H769Q769 -103 766.5 -51.5Q764 0 759 49L691 31Q687 -15 684.5 -61.0Q682 -107 681 -151ZM437 97 601 117Q570 146 525.5 186.5Q481 227 432.5 271.0Q384 315 337.5 355.0Q291 395 254.5 423.5Q218 452 199 461Q194 416 189.5 365.5Q185 315 181 265Q205 283 223.0 302.0Q241 321 257 343Q268 317 296.5 276.5Q325 236 362.0 189.5Q399 143 437 97ZM905 160Q1040 180 1179.5 203.0Q1319 226 1453 248Q1290 304 1150.5 350.0Q1011 396 892 430Q869 411 848.5 393.5Q828 376 815 363Q831 347 857.0 324.5Q883 302 911 280L927 283Q926 280 925.0 277.0Q924 274 923 270L993 217L988 211L919 249Q915 232 912.0 209.0Q909 186 905 160ZM803 145Q814 147 825.5 148.5Q837 150 849 152Q843 196 837.0 230.0Q831 264 825 281Q820 265 814.0 228.5Q808 192 803 145ZM701 130 750 137Q744 185 737.5 223.0Q731 261 725 280Q719 261 713.0 221.5Q707 182 701 130ZM166 79Q208 78 265.0 81.5Q322 85 390 92Q350 127 310.0 160.0Q270 193 236.0 218.0Q202 243 180 254Z" />
  </g>
</svg>