<svg xmlns="http://www.w3.org/2000/svg" viewBox="100 -151 1407 885">
  <g transform="translate(0, 583) scale(1, -1)">
    <path fill="black" d="M669 -151Q669 -110 667.0 -65.0Q665 -20 661 23Q547 -7 450.0 -35.5Q353 -64 282.5 -88.5Q212 -113 176 -132Q175 -73 164.5 -20.0Q154 33 131 80Q136 79 141.0 79.0Q146 79 151 79Q149 118 146.0 176.5Q143 235 138.0 300.5Q133 366 127.5 427.5Q122 489 115.0 535.0Q108 581 100 600Q133 594 163 594Q195 594 225 600Q218 581 211.0 545.5Q204 510 199 465Q226 485 245.5 505.0Q265 525 282 548Q291 526 320.0 486.5Q349 447 389.0 397.5Q429 348 472.5 296.5Q516 245 555.5 199.0Q595 153 622 120Q630 121 637.5 122.0Q645 123 652 124Q645 179 638.0 221.0Q631 263 624 283Q650 277 675 277Q687 277 699.0 278.5Q711 280 724 282V283Q748 277 773 277Q798 277 825 283Q849 277 875 277Q885 277 895.5 278.0Q906 279 916 281Q858 331 815.0 366.5Q772 402 764 406Q773 414 785.5 427.0Q798 440 811 453Q696 485 604.5 505.0Q513 525 443 532Q504 619 522 734Q581 690 692.0 629.0Q803 568 954 497L953 498Q970 514 988.5 529.5Q1007 545 1021 567Q1025 558 1044.5 533.5Q1064 509 1092.0 476.0Q1120 443 1149 409Q1165 402 1181.5 395.0Q1198 388 1214 380Q1202 455 1185 496Q1208 492 1230.0 490.0Q1252 488 1272 488Q1293 488 1313.5 490.0Q1334 492 1355 496Q1342 466 1332.5 425.5Q1323 385 1315 337Q1361 318 1409.5 298.5Q1458 279 1507 259V231L1294 182Q1289 134 1284.5 85.0Q1280 36 1275 -12H1253L1183 49L1176 -80H1162Q1160 -58 1157.5 -14.0Q1155 30 1152 76Q1147 80 1142.0 85.0Q1137 90 1132 94Q1130 59 1128.5 28.0Q1127 -3 1125 -17H1110Q1108 0 1106.0 39.0Q1104 78 1101 121L1088 132Q1083 131 1077.5 130.0Q1072 129 1067 127Q1066 109 1065.0 94.0Q1064 79 1063 69H1048Q1047 78 1046.0 92.0Q1045 106 1044 122Q1033 119 1022.5 116.0Q1012 113 1001 111Q1001 104 1000.5 98.0Q1000 92 1000 88H986L984 107Q962 101 940.5 96.0Q919 91 897 85Q892 28 888.0 -33.5Q884 -95 882 -151H870Q870 -97 866.5 -38.5Q863 20 858 75L794 59Q789 7 786.0 -47.0Q783 -101 781 -151H769Q769 -103 766.5 -51.5Q764 0 759 49L691 31Q687 -15 684.5 -61.0Q682 -107 681 -151ZM437 97 601 117Q570 146 525.5 186.5Q481 227 432.5 271.0Q384 315 337.5 355.0Q291 395 254.5 423.5Q218 452 199 461Q194 416 189.5 365.5Q185 315 181 265Q205 283 223.0 302.0Q241 321 257 343Q268 317 296.5 276.5Q325 236 362.0 189.5Q399 143 437 97ZM1095 194Q1093 223 1090.5 244.0Q1088 265 1086 270Q1100 269 1114.5 268.0Q1129 267 1145 270Q1141 258 1138 214Q1152 213 1166.5 212.0Q1181 211 1197 214L1195 206L1237 212Q1235 235 1232.0 257.0Q1229 279 1226 300Q1213 310 1196.5 321.5Q1180 333 1163 346Q1093 369 1027.5 389.5Q962 410 903 427L967 348Q966 361 965.0 370.0Q964 379 962 382Q976 381 990.5 380.0Q1005 379 1021 382Q1019 377 1016.5 352.5Q1014 328 1012 294Q1017 288 1022.0 282.0Q1027 276 1032 270Q1030 291 1028.0 306.5Q1026 322 1024 326Q1038 325 1052.5 324.0Q1067 323 1083 326Q1081 319 1078.0 289.0Q1075 259 1073 221ZM1223 324V327H1221ZM1299 223 1453 248 1309 298Q1306 279 1303.5 260.5Q1301 242 1299 223ZM803 145Q814 147 825.5 148.5Q837 150 849 152Q843 196 837.0 230.0Q831 264 825 281Q820 265 814.0 228.5Q808 192 803 145ZM701 130 750 137Q744 185 737.5 223.0Q731 261 725 280Q719 261 713.0 221.5Q707 182 701 130ZM905 160 980 172 977 229Q964 241 950.5 252.5Q937 264 924 274Q914 238 905 160ZM166 79Q208 78 265.0 81.5Q322 85 390 92Q350 127 310.0 160.0Q270 193 236.0 218.0Q202 243 180 254ZM1137 196Q1139 196 1139.5 196.5Q1140 197 1141 197L1138 212Q1138 208 1138.0 204.0Q1138 200 1137 196ZM1004 176 1033 180 1006 204ZM1252 10Q1250 48 1247.5 88.5Q1245 129 1241 169L1190 157Q1189 142 1188.0 124.5Q1187 107 1185 88ZM1148 132Q1147 136 1147.0 139.5Q1147 143 1147 147L1137 144Z" />
  </g>
</svg>