<svg xmlns="http://www.w3.org/2000/svg" viewBox="100 -151 1407 885">
  <g transform="translate(0, 583) scale(1, -1)">
    <path fill="black" d="M669 -151Q669 -110 667.0 -65.0Q665 -20 661 23Q547 -7 450.0 -35.5Q353 -64 282.5 -88.5Q212 -113 176 -132Q175 -73 164.5 -20.0Q154 33 131 80Q136 79 141.0 79.0Q146 79 151 79Q149 118 146.0 176.5Q143 235 138.0 300.5Q133 366 127.5 427.5Q122 489 115.0 535.0Q108 581 100 600Q133 594 163 594Q195 594 225 600Q218 581 211.0 545.5Q204 510 199 465Q226 485 245.5 505.0Q265 525 282 548Q291 526 320.0 486.5Q349 447 389.0 397.5Q429 348 472.5 296.5Q516 245 555.5 199.0Q595 153 622 120Q630 121 637.5 122.0Q645 123 652 124Q645 179 638.0 221.0Q631 263 624 283Q650 277 675 277Q687 277 699.0 278.5Q711 280 724 282V283H726Q750 277 774 277Q799 277 826 283Q833 282 839.5 280.5Q846 279 853 278L830 292Q860 308 886 335Q873 349 859.5 360.0Q846 371 830 381Q843 387 861.0 399.5Q879 412 900 428Q754 471 640.0 497.5Q526 524 443 532Q504 619 522 734Q582 688 698.5 625.0Q815 562 974 488Q996 507 1018.0 526.5Q1040 546 1060 565L1053 569Q1075 581 1092.5 596.0Q1110 611 1129 633Q1135 614 1159.5 578.5Q1184 543 1217.5 500.0Q1251 457 1286.0 416.0Q1321 375 1346 344L1352 338Q1350 335 1347.5 332.0Q1345 329 1342 326Q1382 310 1423.0 293.0Q1464 276 1507 259V231Q1437 215 1362.5 198.0Q1288 181 1212 163Q1181 123 1157.5 88.5Q1134 54 1129 37Q1110 60 1092.5 74.5Q1075 89 1053 102Q1055 103 1057.0 104.0Q1059 105 1060 106L1043 121L897 85Q892 28 888.0 -33.5Q884 -95 882 -151H870Q870 -97 866.5 -38.5Q863 20 858 75L794 59Q789 7 786.0 -47.0Q783 -101 781 -151H769Q769 -103 766.5 -51.5Q764 0 759 49L691 31Q687 -15 684.5 -61.0Q682 -107 681 -151ZM1327 332Q1329 333 1330.5 334.5Q1332 336 1333 337Q1306 362 1273.0 392.0Q1240 422 1205.0 452.0Q1170 482 1137.5 508.5Q1105 535 1080 552L1013 470Q1062 448 1113.0 425.0Q1164 402 1219 378L1243 404L1251 400L1235 371ZM437 97 601 117Q570 146 525.5 186.5Q481 227 432.5 271.0Q384 315 337.5 355.0Q291 395 254.5 423.5Q218 452 199 461Q194 416 189.5 365.5Q185 315 181 265Q205 283 223.0 302.0Q241 321 257 343Q268 317 296.5 276.5Q325 236 362.0 189.5Q399 143 437 97ZM1031 180 1188 204 1243 253Q1218 276 1199.5 290.5Q1181 305 1165 317Q1080 315 1035.5 303.5Q991 292 968 283Q972 306 972 320Q972 335 968 358Q993 350 1037.0 341.0Q1081 332 1167 330L1179 341Q1122 360 1068.5 376.5Q1015 393 965 408Q949 387 935.5 368.5Q922 350 913 335Q930 307 962.5 265.5Q995 224 1031 180ZM1251 260Q1274 283 1296 302Q1275 310 1254.0 316.0Q1233 322 1213 329L1209 322Q1215 312 1225.5 296.0Q1236 280 1251 260ZM1252 215 1453 248 1317 295ZM803 145Q814 147 825.5 148.5Q837 150 849 152Q843 196 837.0 230.0Q831 264 825 281Q820 265 814.0 228.5Q808 192 803 145ZM701 130 750 137Q744 185 737.5 223.0Q731 261 725 280Q719 261 713.0 221.5Q707 182 701 130ZM166 79Q208 78 265.0 81.5Q322 85 390 92Q350 127 310.0 160.0Q270 193 236.0 218.0Q202 243 180 254ZM905 160 986 173Q968 189 950.5 204.0Q933 219 916 232Q913 217 910.5 198.5Q908 180 905 160ZM1081 119Q1093 127 1105 137Q1097 135 1089.0 133.0Q1081 131 1073 129Q1075 126 1077.5 123.5Q1080 121 1081 119Z" />
  </g>
</svg>