<svg xmlns="http://www.w3.org/2000/svg" viewBox="100 -151 1407 885">
  <g transform="translate(0, 583) scale(1, -1)">
    <path fill="black" d="M669 -151Q669 -110 667.0 -65.0Q665 -20 661 23Q547 -7 450.0 -35.5Q353 -64 282.5 -88.5Q212 -113 176 -132Q175 -73 164.5 -20.0Q154 33 131 80Q136 79 141.0 79.0Q146 79 151 79Q149 118 146.0 176.5Q143 235 138.0 300.5Q133 366 127.5 427.5Q122 489 115.0 535.0Q108 581 100 600Q133 594 163 594Q195 594 225 600Q218 581 211.0 545.5Q204 510 199 465Q226 485 245.5 505.0Q265 525 282 548Q291 526 320.0 486.5Q349 447 389.0 397.5Q429 348 472.5 296.5Q516 245 555.5 199.0Q595 153 622 120Q630 121 637.5 122.0Q645 123 652 124Q645 179 638.0 221.0Q631 263 624 283Q650 277 675 277Q687 277 699.0 278.5Q711 280 724 282V283Q748 277 773 277Q798 277 825 283H826Q850 277 875 277Q900 277 927 283Q922 268 916.0 236.0Q910 204 905 160L1058 184L1005 226Q1015 235 1032.0 250.0Q1049 265 1068 284Q1065 330 1059 379Q1047 384 1034.5 387.5Q1022 391 1010 395Q958 371 921.0 344.5Q884 318 863 303Q862 336 856.0 368.5Q850 401 834 432Q848 430 869.0 427.5Q890 425 915 424Q763 469 645.5 496.5Q528 524 443 532Q504 619 522 734Q586 686 713.0 617.5Q840 549 1014 469Q966 503 924.5 528.0Q883 553 864 561Q891 579 915.0 601.0Q939 623 958 654Q966 636 989.0 596.5Q1012 557 1043 511Q1034 574 1026.0 621.5Q1018 669 1012 684Q1031 681 1049.5 678.5Q1068 676 1087 676Q1103 676 1119.0 678.0Q1135 680 1151 684Q1146 671 1138.5 632.5Q1131 594 1123.0 540.0Q1115 486 1108 427Q1199 387 1299.0 344.5Q1399 302 1507 259V231Q1419 212 1325.0 189.5Q1231 167 1136 144L1146 127L1135 119L1112 138Q1058 125 1004.0 112.0Q950 99 897 85Q892 28 888.0 -33.5Q884 -95 882 -151H870Q870 -97 866.5 -38.5Q863 20 858 75L794 59Q789 7 786.0 -47.0Q783 -101 781 -151H769Q769 -103 766.5 -51.5Q764 0 759 49L691 31Q687 -15 684.5 -61.0Q682 -107 681 -151ZM437 97 601 117Q570 146 525.5 186.5Q481 227 432.5 271.0Q384 315 337.5 355.0Q291 395 254.5 423.5Q218 452 199 461Q194 416 189.5 365.5Q185 315 181 265Q205 283 223.0 302.0Q241 321 257 343Q268 317 296.5 276.5Q325 236 362.0 189.5Q399 143 437 97ZM1118 194 1453 248Q1357 281 1269.0 311.0Q1181 341 1101 366Q1100 352 1098.0 338.0Q1096 324 1095 310Q1112 327 1127 345L1138 339Q1128 314 1121.0 281.5Q1114 249 1107 226Q1110 219 1112.5 211.0Q1115 203 1118 194ZM803 145Q814 147 825.5 148.5Q837 150 849 152Q843 196 837.0 230.0Q831 264 825 281Q820 265 814.0 228.5Q808 192 803 145ZM701 130 750 137Q744 185 737.5 223.0Q731 261 725 280Q719 261 713.0 221.5Q707 182 701 130ZM166 79Q208 78 265.0 81.5Q322 85 390 92Q350 127 310.0 160.0Q270 193 236.0 218.0Q202 243 180 254Z" />
  </g>
</svg>