<svg xmlns="http://www.w3.org/2000/svg" viewBox="100 -151 1407 885">
  <g transform="translate(0, 583) scale(1, -1)">
    <path fill="black" d="M669 -151Q669 -110 667.0 -65.0Q665 -20 661 23Q547 -7 450.0 -35.5Q353 -64 282.5 -88.5Q212 -113 176 -132Q175 -73 164.5 -20.0Q154 33 131 80Q136 79 141.0 79.0Q146 79 151 79Q149 118 146.0 176.5Q143 235 138.0 300.5Q133 366 127.5 427.5Q122 489 115.0 535.0Q108 581 100 600Q133 594 163 594Q195 594 225 600Q218 581 211.0 545.5Q204 510 199 465Q226 485 245.5 505.0Q265 525 282 548Q291 526 320.0 486.5Q349 447 389.0 397.5Q429 348 472.5 296.5Q516 245 555.5 199.0Q595 153 622 120Q630 121 637.5 122.0Q645 123 652 124Q645 179 638.0 221.0Q631 263 624 283Q650 277 675 277Q687 277 699.0 278.5Q711 280 724 282V283Q753 276 781 277L750 301Q760 310 777.0 325.0Q794 340 813 359Q812 382 809.5 406.0Q807 430 804 455Q800 457 797 457Q730 433 682.0 399.0Q634 365 608 348Q607 381 601.0 413.5Q595 446 579 477Q598 474 628.0 471.0Q658 468 696 468Q709 468 722.5 468.5Q736 469 750 470Q656 495 579.5 510.5Q503 526 443 532Q504 619 522 734Q572 696 660 646Q684 669 703 699Q710 683 723.5 655.0Q737 627 756 595Q764 591 771.5 587.0Q779 583 787 579Q779 633 770.5 674.0Q762 715 757 729Q776 725 795.0 723.0Q814 721 833 721Q842 721 851.0 721.5Q860 722 869 723Q867 727 867 729L883 726L896 729L894 724Q918 721 941 721Q950 721 959.0 721.5Q968 722 977 723Q975 727 975 729L992 726L1006 729L1004 724Q1027 721 1050 721Q1066 721 1082.0 723.0Q1098 725 1114 729Q1108 715 1099.0 671.0Q1090 627 1081.0 567.5Q1072 508 1064 446Q1072 443 1080.0 439.5Q1088 436 1095 432Q1096 442 1096.5 451.5Q1097 461 1097 471Q1097 490 1095.5 509.0Q1094 528 1090 547Q1147 523 1252.5 500.5Q1358 478 1495 478V454Q1391 454 1304.0 440.5Q1217 427 1152 407Q1234 371 1323.0 334.0Q1412 297 1507 259V231Q1365 199 1207.0 161.5Q1049 124 897 85Q892 28 888.0 -33.5Q884 -95 882 -151H870Q870 -97 866.5 -38.5Q863 20 858 75L794 59Q789 7 786.0 -47.0Q783 -101 781 -151H769Q769 -103 766.5 -51.5Q764 0 759 49L691 31Q687 -15 684.5 -61.0Q682 -107 681 -151ZM905 520Q899 564 893.0 602.5Q887 641 881 671Q876 646 870.0 612.5Q864 579 859 543ZM1020 466Q1013 522 1005.5 574.5Q998 627 990 666Q983 632 976.0 587.0Q969 542 963 493ZM437 97 601 117Q570 146 525.5 186.5Q481 227 432.5 271.0Q384 315 337.5 355.0Q291 395 254.5 423.5Q218 452 199 461Q194 416 189.5 365.5Q185 315 181 265Q205 283 223.0 302.0Q241 321 257 343Q268 317 296.5 276.5Q325 236 362.0 189.5Q399 143 437 97ZM861 277Q869 277 876.0 276.5Q883 276 891 277L860 301Q870 310 887.0 325.0Q904 340 923 359Q921 391 917 423L846 443L840 385Q857 402 872 420L883 414Q873 389 866.0 356.5Q859 324 852 301ZM950 385Q955 390 960.5 395.5Q966 401 970 407L952 412ZM905 160Q1040 180 1179.5 203.0Q1319 226 1453 248Q1353 283 1261.5 313.5Q1170 344 1087 370Q1082 352 1078.0 333.5Q1074 315 1070 301Q1078 282 1085.5 255.5Q1093 229 1109 202L1098 194Q1054 233 1024.0 257.5Q994 282 968 301Q978 310 995.0 325.0Q1012 340 1031 359L1029 389L988 401Q980 377 974.0 349.0Q968 321 962 301Q970 282 977.5 255.5Q985 229 1001 202L990 194L920 254Q916 236 912.5 212.5Q909 189 905 160ZM701 130 750 137Q744 185 737.5 223.0Q731 261 725 280Q719 261 713.0 221.5Q707 182 701 130ZM166 79Q208 78 265.0 81.5Q322 85 390 92Q350 127 310.0 160.0Q270 193 236.0 218.0Q202 243 180 254ZM803 145Q814 147 825.5 148.5Q837 150 849 152Q846 175 843.0 195.0Q840 215 837 231L817 247Q809 206 803 145Z" />
  </g>
</svg>