<svg xmlns="http://www.w3.org/2000/svg" viewBox="100 -151 1407 885">
  <g transform="translate(0, 583) scale(1, -1)">
    <path fill="black" d="M669 -151Q669 -110 667.0 -65.0Q665 -20 661 23Q547 -7 450.0 -35.5Q353 -64 282.5 -88.5Q212 -113 176 -132Q175 -73 164.5 -20.0Q154 33 131 80Q136 79 141.0 79.0Q146 79 151 79Q149 118 146.0 176.5Q143 235 138.0 300.5Q133 366 127.5 427.5Q122 489 115.0 535.0Q108 581 100 600Q133 594 163 594Q195 594 225 600Q218 581 211.0 545.5Q204 510 199 465Q226 485 245.5 505.0Q265 525 282 548Q291 526 320.0 486.5Q349 447 389.0 397.5Q429 348 472.5 296.5Q516 245 555.5 199.0Q595 153 622 120Q630 121 637.5 122.0Q645 123 652 124Q645 179 638.0 221.0Q631 263 624 283Q650 277 675 277Q687 277 699.0 278.5Q711 280 724 282V283H726Q750 277 774 277Q798 277 825 283Q849 277 875 277Q900 277 927 283Q922 268 916.0 236.0Q910 204 905 160Q950 167 996.0 174.5Q1042 182 1088 189Q1052 224 1014.5 258.0Q977 292 944.0 318.0Q911 344 888 355Q898 360 908.5 366.0Q919 372 929 379L927 382L951 413Q786 463 659.5 493.0Q533 523 443 532Q504 619 522 734Q585 687 707.5 620.5Q830 554 999 476Q1033 523 1060.0 567.0Q1087 611 1096 637Q1111 617 1126.5 602.5Q1142 588 1161 576Q1180 588 1195.5 602.5Q1211 617 1227 637Q1234 617 1256.0 584.0Q1278 551 1307.5 512.0Q1337 473 1368.0 434.0Q1399 395 1425 362L1424 361L1436 355Q1409 341 1374 313Q1406 300 1439.5 286.5Q1473 273 1507 259V231Q1437 215 1361.5 197.5Q1286 180 1209 162Q1196 149 1185.0 136.5Q1174 124 1163 113L1133 144Q1074 130 1015.0 115.0Q956 100 897 85Q892 28 888.0 -33.5Q884 -95 882 -151H870Q870 -97 866.5 -38.5Q863 20 858 75L794 59Q789 7 786.0 -47.0Q783 -101 781 -151H769Q769 -103 766.5 -51.5Q764 0 759 49L691 31Q687 -15 684.5 -61.0Q682 -107 681 -151ZM1123 420Q1123 431 1120 443Q1125 441 1151.0 438.0Q1177 435 1212.0 432.0Q1247 429 1282.0 426.5Q1317 424 1340 422Q1325 436 1310.0 449.0Q1295 462 1279 475Q1251 472 1216.0 469.0Q1181 466 1153.5 463.5Q1126 461 1120 458Q1122 469 1123.0 481.0Q1124 493 1120 505Q1126 503 1149.0 500.0Q1172 497 1203.0 494.5Q1234 492 1262 489Q1234 512 1208.5 531.0Q1183 550 1162 562Q1134 546 1101.0 519.5Q1068 493 1033 461Q1056 451 1078.0 440.5Q1100 430 1123 420ZM437 97 601 117Q570 146 525.5 186.5Q481 227 432.5 271.0Q384 315 337.5 355.0Q291 395 254.5 423.5Q218 452 199 461Q194 416 189.5 365.5Q185 315 181 265Q205 283 223.0 302.0Q241 321 257 343Q268 317 296.5 276.5Q325 236 362.0 189.5Q399 143 437 97ZM1313 362Q1322 377 1329.0 390.0Q1336 403 1340 413Q1319 411 1288.5 409.0Q1258 407 1225.5 405.0Q1193 403 1167 401L1246 366Q1265 365 1281.0 364.0Q1297 363 1313 362ZM1122 194 1211 208 1263 284Q1235 282 1203.5 279.0Q1172 276 1149.0 273.5Q1126 271 1120 268Q1122 279 1123.0 291.0Q1124 303 1120 316Q1126 313 1151.5 310.0Q1177 307 1210.5 304.0Q1244 301 1272 298Q1274 300 1276.0 302.5Q1278 305 1279 308Q1255 316 1231.5 324.0Q1208 332 1185 339Q1160 337 1142.0 335.5Q1124 334 1120 332Q1123 346 1123 359L989 401Q1001 377 1022.5 342.5Q1044 308 1070.0 269.5Q1096 231 1122 194ZM1301 343 1304 347Q1301 347 1298.5 346.5Q1296 346 1293 346ZM1265 217 1453 248 1342 286Q1323 270 1304.0 253.0Q1285 236 1265 217ZM803 145Q814 147 825.5 148.5Q837 150 849 152Q843 196 837.0 230.0Q831 264 825 281Q820 265 814.0 228.5Q808 192 803 145ZM701 130 750 137Q744 185 737.5 223.0Q731 261 725 280Q719 261 713.0 221.5Q707 182 701 130ZM166 79Q208 78 265.0 81.5Q322 85 390 92Q350 127 310.0 160.0Q270 193 236.0 218.0Q202 243 180 254ZM1162 140 1171 153Q1167 152 1163.0 151.0Q1159 150 1155 149Z" />
  </g>
</svg>