<svg xmlns="http://www.w3.org/2000/svg" viewBox="100 -151 1407 885">
  <g transform="translate(0, 583) scale(1, -1)">
    <path fill="black" d="M669 -151Q669 -110 667.0 -65.0Q665 -20 661 23Q547 -7 450.0 -35.5Q353 -64 282.5 -88.5Q212 -113 176 -132Q175 -73 164.5 -20.0Q154 33 131 80Q136 79 141.0 79.0Q146 79 151 79Q149 118 146.0 176.5Q143 235 138.0 300.5Q133 366 127.5 427.5Q122 489 115.0 535.0Q108 581 100 600Q133 594 163 594Q195 594 225 600Q218 581 211.0 545.5Q204 510 199 465Q226 485 245.5 505.0Q265 525 282 548Q291 526 320.0 486.5Q349 447 389.0 397.5Q429 348 472.5 296.5Q516 245 555.5 199.0Q595 153 622 120Q630 121 637.5 122.0Q645 123 652 124Q645 179 638.0 221.0Q631 263 624 283Q650 277 675 277Q687 277 699.0 278.5Q711 280 724 282V283Q748 277 774 277Q799 277 826 283Q850 277 875 277Q900 277 927 283Q922 268 916.0 236.0Q910 204 905 160Q923 163 941.0 166.0Q959 169 976 171Q975 210 971.5 255.5Q968 301 963.0 339.5Q958 378 950 395Q965 391 981 391Q995 391 1013 394L1003 397L986 392Q986 395 988 401Q809 457 673.5 489.5Q538 522 443 532Q504 619 522 734Q584 688 706.0 622.0Q828 556 994 479Q993 493 991.0 506.0Q989 519 986 532Q1044 512 1134.5 493.0Q1225 474 1339 467Q1335 484 1331.0 500.5Q1327 517 1323 531Q1343 527 1361.0 525.0Q1379 523 1396 523Q1413 523 1430.0 525.0Q1447 527 1463 531Q1450 481 1438.0 423.0Q1426 365 1418 295L1507 259V231L1409 209Q1405 160 1403.5 104.5Q1402 49 1402 -13H1384Q1384 1 1384.0 15.5Q1384 30 1383 44Q1324 44 1260.5 39.5Q1197 35 1136.5 28.0Q1076 21 1025.5 12.0Q975 3 942 -7Q946 12 948.0 29.5Q950 47 950 64Q950 72 949.5 81.0Q949 90 948 98Q935 94 922.5 91.5Q910 89 897 85Q892 28 888.0 -33.5Q884 -95 882 -151H870Q870 -97 866.5 -38.5Q863 20 858 75L794 59Q789 7 786.0 -47.0Q783 -101 781 -151H769Q769 -103 766.5 -51.5Q764 0 759 49L691 31Q687 -15 684.5 -61.0Q682 -107 681 -151ZM437 97 601 117Q570 146 525.5 186.5Q481 227 432.5 271.0Q384 315 337.5 355.0Q291 395 254.5 423.5Q218 452 199 461Q194 416 189.5 365.5Q185 315 181 265Q205 283 223.0 302.0Q241 321 257 343Q268 317 296.5 276.5Q325 236 362.0 189.5Q399 143 437 97ZM1365 316Q1361 351 1355.0 383.0Q1349 415 1344 443Q1281 440 1224.5 434.5Q1168 429 1119 421Q1235 370 1365 316ZM996 174Q1090 189 1185.0 204.0Q1280 219 1373 235Q1372 246 1371.5 256.5Q1371 267 1369 277Q1273 310 1185.5 338.5Q1098 367 1019 392Q1014 376 1009.5 338.5Q1005 301 1001.5 257.0Q998 213 996 174ZM803 145Q814 147 825.5 148.5Q837 150 849 152Q843 196 837.0 230.0Q831 264 825 281Q820 265 814.0 228.5Q808 192 803 145ZM701 130 750 137Q744 185 737.5 223.0Q731 261 725 280Q719 261 713.0 221.5Q707 182 701 130ZM1412 242 1453 248 1414 262Q1414 257 1413.5 252.0Q1413 247 1412 242ZM166 79Q208 78 265.0 81.5Q322 85 390 92Q350 127 310.0 160.0Q270 193 236.0 218.0Q202 243 180 254ZM1383 65Q1382 101 1380.0 135.5Q1378 170 1376 201Q1287 181 1194.0 158.5Q1101 136 1009 113Q1059 101 1122.0 90.0Q1185 79 1252.5 72.5Q1320 66 1383 65Z" />
  </g>
</svg>