<svg xmlns="http://www.w3.org/2000/svg" viewBox="100 -151 1407 885">
  <g transform="translate(0, 583) scale(1, -1)">
    <path fill="black" d="M669 -151Q669 -110 667.0 -65.0Q665 -20 661 23Q547 -7 450.0 -35.5Q353 -64 282.5 -88.5Q212 -113 176 -132Q175 -73 164.5 -20.0Q154 33 131 80Q136 79 141.0 79.0Q146 79 151 79Q149 118 146.0 176.5Q143 235 138.0 300.5Q133 366 127.5 427.5Q122 489 115.0 535.0Q108 581 100 600Q133 594 163 594Q195 594 225 600Q218 581 211.0 545.5Q204 510 199 465Q226 485 245.5 505.0Q265 525 282 548Q291 526 320.0 486.5Q349 447 389.0 397.5Q429 348 472.5 296.5Q516 245 555.5 199.0Q595 153 622 120Q630 121 637.5 122.0Q645 123 652 124Q645 179 638.0 221.0Q631 263 624 283Q650 277 675 277Q687 277 699.0 278.5Q711 280 724 282V283Q748 277 773 277Q798 277 825 283H826Q850 277 875 277Q900 277 927 283Q922 268 916.0 236.0Q910 204 905 160Q1040 180 1179.5 203.0Q1319 226 1453 248Q1339 288 1235.5 322.5Q1132 357 1040 385Q1022 364 1009.5 348.0Q997 332 994 325Q973 356 945 374Q957 379 986 401V402Q808 457 673.0 489.5Q538 522 443 532Q504 619 522 734Q566 701 639.5 658.5Q713 616 811 566Q811 582 809.0 597.5Q807 613 805 629Q816 625 862.0 619.0Q908 613 972 607Q969 643 965.5 671.0Q962 699 957 710Q972 706 990 706Q998 706 1007.0 707.0Q1016 708 1026 710Q1022 700 1018.5 671.0Q1015 642 1012 604Q1058 600 1106.0 596.0Q1154 592 1199 589L1254 637L1261 630L1221 587Q1283 583 1329.0 580.5Q1375 578 1391 578L1390 563Q1371 563 1314.5 559.0Q1258 555 1187 550Q1163 524 1136.0 495.0Q1109 466 1084 437Q1179 394 1285.5 349.5Q1392 305 1507 259V231Q1365 199 1207.0 161.5Q1049 124 897 85Q892 28 888.0 -33.5Q884 -95 882 -151H870Q870 -97 866.5 -38.5Q863 20 858 75L794 59Q789 7 786.0 -47.0Q783 -101 781 -151H769Q769 -103 766.5 -51.5Q764 0 759 49L691 31Q687 -15 684.5 -61.0Q682 -107 681 -151ZM1048 454Q1074 476 1101.5 500.5Q1129 525 1154 548L1008 536L1004 474ZM981 484 978 533 897 525ZM437 97 601 117Q570 146 525.5 186.5Q481 227 432.5 271.0Q384 315 337.5 355.0Q291 395 254.5 423.5Q218 452 199 461Q194 416 189.5 365.5Q185 315 181 265Q205 283 223.0 302.0Q241 321 257 343Q268 317 296.5 276.5Q325 236 362.0 189.5Q399 143 437 97ZM803 145Q814 147 825.5 148.5Q837 150 849 152Q843 196 837.0 230.0Q831 264 825 281Q820 265 814.0 228.5Q808 192 803 145ZM701 130 750 137Q744 185 737.5 223.0Q731 261 725 280Q719 261 713.0 221.5Q707 182 701 130ZM166 79Q208 78 265.0 81.5Q322 85 390 92Q350 127 310.0 160.0Q270 193 236.0 218.0Q202 243 180 254Z" />
  </g>
</svg>