<svg xmlns="http://www.w3.org/2000/svg" viewBox="100 -151 1407 896">
  <g transform="translate(0, 594) scale(1, -1)">
    <path fill="black" d="M669 -151Q669 -110 667.0 -65.0Q665 -20 661 23Q547 -7 450.0 -35.5Q353 -64 282.5 -88.5Q212 -113 176 -132Q175 -73 164.5 -20.0Q154 33 131 80Q136 79 141.0 79.0Q146 79 151 79Q149 118 146.0 176.5Q143 235 138.0 300.5Q133 366 127.5 427.5Q122 489 115.0 535.0Q108 581 100 600Q133 594 163 594Q195 594 225 600Q218 581 211.0 545.5Q204 510 199 465Q226 485 245.5 505.0Q265 525 282 548Q291 526 320.0 486.5Q349 447 389.0 397.5Q429 348 472.5 296.5Q516 245 555.5 199.0Q595 153 622 120Q630 121 637.5 122.0Q645 123 652 124Q645 179 638.0 221.0Q631 263 624 283Q650 277 675 277Q687 277 699.0 278.5Q711 280 724 282V283Q748 277 773 277Q798 277 825 283Q849 277 875 277Q900 277 927 283Q922 268 916.0 236.0Q910 204 905 160Q1040 180 1179.5 203.0Q1319 226 1453 248Q1356 282 1267.5 311.5Q1179 341 1098 367L1093 276H1078L1076 325Q1008 324 936.5 318.0Q865 312 803.0 302.5Q741 293 703 281Q706 298 708.0 313.0Q710 328 710 343Q710 358 708.0 372.5Q706 387 703 401Q710 399 718.0 396.0Q726 393 734 391Q733 407 733.0 429.0Q733 451 731 475Q557 520 443 532Q504 619 522 734Q554 710 602.5 680.5Q651 651 714 617L711 627Q726 623 739.0 624.0Q752 625 770 627Q768 622 766.0 612.5Q764 603 762 591L846 549Q847 583 840 617Q864 608 893.5 595.5Q923 583 964.0 573.0Q1005 563 1063 560Q1060 592 1056.5 618.5Q1053 645 1048 668Q951 664 871.5 652.5Q792 641 742 625Q745 642 747.0 657.5Q749 673 749 688Q749 703 747.0 717.0Q745 731 742 745Q791 728 869.0 711.5Q947 695 1044 689Q1041 703 1038.0 717.0Q1035 731 1031 744Q1066 738 1094 738Q1123 738 1151 744Q1140 701 1131.0 660.0Q1122 619 1115.5 565.5Q1109 512 1103 429Q1195 388 1296.5 345.5Q1398 303 1507 259V231Q1365 199 1207.0 161.5Q1049 124 897 85Q892 28 888.0 -33.5Q884 -95 882 -151H870Q870 -97 866.5 -38.5Q863 20 858 75L794 59Q789 7 786.0 -47.0Q783 -101 781 -151H769Q769 -103 766.5 -51.5Q764 0 759 49L691 31Q687 -15 684.5 -61.0Q682 -107 681 -151ZM1071 449 1065 540Q1013 539 974.5 533.5Q936 528 907 520Q942 503 979.5 485.5Q1017 468 1057 450Q1060 449 1063.5 449.0Q1067 449 1071 449ZM1076 343Q1075 351 1075.0 359.0Q1075 367 1075 374L937 417Q906 410 883.0 402.5Q860 395 840 387Q843 402 844.5 416.0Q846 430 847 443Q798 458 751 470L746 388Q789 377 844.0 367.0Q899 357 959.0 350.5Q1019 344 1076 343ZM437 97 601 117Q570 146 525.5 186.5Q481 227 432.5 271.0Q384 315 337.5 355.0Q291 395 254.5 423.5Q218 452 199 461Q194 416 189.5 365.5Q185 315 181 265Q205 283 223.0 302.0Q241 321 257 343Q268 317 296.5 276.5Q325 236 362.0 189.5Q399 143 437 97ZM803 145Q814 147 825.5 148.5Q837 150 849 152Q843 196 837.0 230.0Q831 264 825 281Q820 265 814.0 228.5Q808 192 803 145ZM701 130 750 137Q744 185 737.5 223.0Q731 261 725 280Q719 261 713.0 221.5Q707 182 701 130ZM166 79Q208 78 265.0 81.5Q322 85 390 92Q350 127 310.0 160.0Q270 193 236.0 218.0Q202 243 180 254Z" />
  </g>
</svg>