<svg xmlns="http://www.w3.org/2000/svg" viewBox="100 -159 1316 1104">
  <g transform="translate(0, 786) scale(1, -1)">
    <path fill="black" d="M1400 -159Q1265 -104 1115.0 -45.5Q965 13 819 67Q788 29 751.5 -18.0Q715 -65 674 -121L664 -114Q699 -55 728.0 -6.5Q757 42 779 82Q764 88 749.0 93.5Q734 99 719 104Q691 69 659.0 27.0Q627 -15 591 -63L581 -56Q611 -6 636.5 37.0Q662 80 683 117Q667 123 651.5 129.0Q636 135 620 140Q595 109 567.0 72.0Q539 35 509 -6L499 1Q525 44 547.0 81.5Q569 119 588 152Q476 192 380.0 223.0Q284 254 212.0 274.5Q140 295 100 300Q133 350 154.0 399.0Q175 448 183 500Q217 474 273.5 439.0Q330 404 404 363Q391 415 376.0 464.5Q361 514 347.5 553.5Q334 593 322 615L212 480L199 488Q220 521 250.5 571.0Q281 621 314.5 677.5Q348 734 378.5 788.0Q409 842 429.5 883.5Q450 925 454 945Q479 921 504.5 904.0Q530 887 557 874Q540 863 514.5 837.5Q489 812 459 778Q493 779 520.0 784.0Q547 789 574 799Q572 789 571.0 774.5Q570 760 570 741Q570 695 574.5 630.0Q579 565 586.0 494.5Q593 424 599.5 360.5Q606 297 610 253Q617 250 623.0 246.5Q629 243 636 239Q690 340 704 386Q721 367 741.5 353.0Q762 339 787 328Q804 309 824.0 295.5Q844 282 869 271L870 272Q903 235 953 214Q926 194 866 125Q988 65 1115.5 5.0Q1243 -55 1366 -113Q1140 193 975.5 395.0Q811 597 697 694Q797 730 877 815Q898 754 945.0 657.5Q992 561 1061.5 437.5Q1131 314 1220.5 169.0Q1310 24 1416 -136H1415L1416 -137ZM591 263Q582 305 568.5 363.5Q555 422 540.0 486.0Q525 550 509.5 609.0Q494 668 480.5 712.5Q467 757 456 775Q426 741 393.5 702.0Q361 663 329 624Q360 625 386.0 630.5Q412 636 437 645Q434 632 433.0 612.5Q432 593 432 570Q432 522 436.5 461.5Q441 401 446 340Q480 321 516.0 302.0Q552 283 591 263ZM725 195Q750 241 764.5 273.0Q779 305 786 327Q770 314 743.5 286.5Q717 259 682 217Q693 211 704.0 205.5Q715 200 725 195ZM815 150Q837 191 850.0 220.5Q863 250 869 270Q854 259 829.5 234.0Q805 209 773 171Z" />
  </g>
</svg>