<svg xmlns="http://www.w3.org/2000/svg" viewBox="100 -153 1176 1086">
  <g transform="translate(0, 780) scale(1, -1)">
    <path fill="black" d="M585 -153Q548 -119 509.5 -95.0Q471 -71 430 -58Q456 -35 492.5 7.5Q529 50 573 107Q528 103 484.5 98.0Q441 93 406.5 87.0Q372 81 352 74Q381 42 406.5 13.5Q432 -15 450 -36L442 -45Q417 -23 380.5 9.0Q344 41 302.0 76.0Q260 111 220.0 143.5Q180 176 148.0 198.5Q116 221 100 227Q123 244 141.5 263.0Q160 282 173 303Q180 287 197.5 262.0Q215 237 239 207Q241 219 242.0 230.0Q243 241 243 251Q243 265 241.0 279.0Q239 293 237 307Q253 301 286.5 295.5Q320 290 364.0 285.5Q408 281 457.0 277.0Q506 273 553 270Q471 316 400.0 352.5Q329 389 276.5 414.0Q224 439 195 448Q229 485 253.0 523.5Q277 562 290 603Q313 578 355.5 541.0Q398 504 455 460Q451 505 446.0 548.0Q441 591 435.0 626.0Q429 661 422 680Q390 652 361.5 626.5Q333 601 312 583L303 591Q325 616 357.0 652.5Q389 689 424.0 731.0Q459 773 491.5 813.0Q524 853 546.5 885.0Q569 917 575 933Q592 910 611.0 892.0Q630 874 651 860Q635 853 610.0 835.0Q585 817 555 793Q578 790 596 790Q625 790 655 796Q648 780 644 750Q677 755 719.0 764.5Q761 774 819.5 793.0Q878 812 961.0 844.5Q1044 877 1159 928V927L1160 928L1175 912Q1133 844 1087.5 767.5Q1042 691 995 611Q1022 581 1055.0 545.0Q1088 509 1128 468L1121 462Q1079 498 1043.0 527.5Q1007 557 977 581L951 536Q993 490 1049 432Q1059 438 1068.5 444.5Q1078 451 1088 458Q1093 426 1098.0 393.5Q1103 361 1112.0 319.0Q1121 277 1139.5 218.0Q1158 159 1191.0 75.0Q1224 -9 1276 -126H1275L1276 -127L1260 -142Q1192 -100 1115.5 -54.0Q1039 -8 959 38Q929 11 893.0 -22.0Q857 -55 816 -95L810 -88Q846 -46 875.5 -10.5Q905 25 929 55L884 82Q829 31 758 -38L750 -29L856 98L807 127Q758 82 697 23L689 29L783 140Q772 146 761.5 152.5Q751 159 740 165Q680 56 638.5 -28.0Q597 -112 585 -153ZM700 276Q735 323 770.5 372.5Q806 422 843 474Q797 510 765.5 532.0Q734 554 714 564Q748 586 773 624L774 625Q791 636 806.0 650.5Q821 665 832 684Q849 651 915 575Q922 584 928.0 593.0Q934 602 940 611Q903 640 877.0 657.5Q851 675 833 684L831 685Q848 696 863.5 711.5Q879 727 890 746Q898 731 917.0 706.0Q936 681 965 646L1135 892Q1025 836 949.5 794.0Q874 752 824.5 720.0Q775 688 743.5 663.0Q712 638 691.0 617.0Q670 596 650 575Q647 592 642.0 609.0Q637 626 631 642Q626 591 622.0 535.0Q618 479 615.5 429.0Q613 379 610 343ZM595 354Q593 390 590.0 440.0Q587 490 583.0 544.5Q579 599 574.5 649.5Q570 700 564.5 738.0Q559 776 553 792Q524 768 492.0 740.5Q460 713 428 686Q451 683 471 683Q484 683 495.5 684.5Q507 686 520 688Q511 665 504.5 624.5Q498 584 493.5 535.0Q489 486 485 437Q511 417 538.0 396.5Q565 376 595 354ZM865 505Q872 514 878.5 523.0Q885 532 891 542Q809 606 775 623Q784 607 806.5 576.5Q829 546 865 505ZM966 393Q1003 405 1036 424Q979 472 934 508Q927 495 920.0 483.0Q913 471 906 459Q933 428 966 393ZM1240 -102Q1184 8 1142.0 83.5Q1100 159 1068.0 208.5Q1036 258 1011.0 289.5Q986 321 965.0 342.5Q944 364 923 383Q929 384 935.5 385.5Q942 387 948 388Q933 401 919.5 413.0Q906 425 892 435Q861 380 831.0 327.0Q801 274 773 224L822 189Q858 236 880.0 267.5Q902 299 912 319Q934 284 972 259V260Q983 243 997.5 228.0Q1012 213 1032 201L1033 202Q1044 185 1059.5 169.5Q1075 154 1094 143Q1079 135 1054.0 116.0Q1029 97 994 68Q1057 24 1119.0 -18.5Q1181 -61 1240 -102ZM890 141Q922 182 942.0 211.0Q962 240 971 258Q955 249 924.5 226.0Q894 203 853 167ZM347 80Q349 91 349.0 100.5Q349 110 349 120Q349 134 348.0 146.5Q347 159 345 172Q368 163 408.0 156.5Q448 150 497.5 145.5Q547 141 596 137Q610 155 624.5 174.0Q639 193 654 214Q641 222 628.5 228.5Q616 235 603 242Q553 239 497.0 235.5Q441 232 388.5 227.5Q336 223 296.5 217.0Q257 211 241 205Q264 176 291.5 144.0Q319 112 347 80ZM959 92Q1016 166 1032 200Q1016 192 988.5 171.5Q961 151 923 117Q932 111 941.0 105.0Q950 99 959 92Z" />
  </g>
</svg>