<svg xmlns="http://www.w3.org/2000/svg" viewBox="100 -365 1306 1339">
  <g transform="translate(0, 609) scale(1, -1)">
    <path fill="black" d="M1208 110Q1175 134 1109.5 168.5Q1044 203 953.0 245.0Q862 287 752 331Q750 327 748.5 322.5Q747 318 745 313H732Q717 380 699.5 453.5Q682 527 663 598L552 604V609Q584 611 610.0 613.0Q636 615 658 617L651 646Q630 648 605.0 649.0Q580 650 552 651V657Q580 659 603.5 660.5Q627 662 646 664Q645 672 642.5 679.5Q640 687 638 694Q619 696 597.5 696.5Q576 697 552 698V704L634 710Q612 790 593.0 851.5Q574 913 561 938Q589 939 614.0 944.0Q639 949 661 959Q661 957 660.5 954.5Q660 952 660 950Q684 951 720.5 953.5Q757 956 795.0 959.0Q833 962 863.5 966.0Q894 970 905 974Q902 959 902 945Q902 930 905 915Q896 919 879.5 922.0Q863 925 842 927Q850 914 860.0 905.0Q870 896 881 888Q868 883 842.5 863.5Q817 844 786.0 818.5Q755 793 726.5 768.0Q698 743 679 727L681 714Q708 717 726.5 720.5Q745 724 756 728Q753 716 752.5 704.5Q752 693 755 681H756L755 680Q750 655 756 633Q748 636 731.5 638.5Q715 641 691 643L694 621Q736 627 756 633Q750 611 756 585Q749 587 734.0 590.0Q719 593 698 595Q708 531 718.5 465.5Q729 400 739 337Q798 507 832.0 625.0Q866 743 873 813Q915 783 968 776Q945 745 912.5 684.0Q880 623 841.0 538.0Q802 453 760 350Q824 364 893.5 381.0Q963 398 1030 414L1036 526H1041Q1043 494 1045.0 467.5Q1047 441 1049 419L1078 427Q1080 448 1081.0 473.0Q1082 498 1083 526H1089Q1091 498 1092.5 474.5Q1094 451 1096 431Q1104 433 1111.5 435.5Q1119 438 1126 439Q1128 459 1128.5 480.0Q1129 501 1130 526H1136L1142 443Q1222 465 1283.5 484.5Q1345 504 1370 517Q1371 489 1376.0 464.5Q1381 440 1391 417H1382Q1383 394 1385.5 357.5Q1388 321 1391.0 283.0Q1394 245 1398.0 214.5Q1402 184 1406 173Q1391 176 1377 176Q1362 176 1347 173Q1351 181 1354.0 198.0Q1357 215 1359 236Q1346 227 1337.0 217.5Q1328 208 1320 197Q1315 210 1295.5 235.5Q1276 261 1250.5 291.5Q1225 322 1200.0 350.5Q1175 379 1159 398Q1156 398 1153.0 397.5Q1150 397 1146 397Q1149 369 1152.5 351.0Q1156 333 1160 322Q1137 328 1113 322H1112Q1089 328 1066 322H1065Q1059 324 1046.5 325.0Q1034 326 1017 322Q1019 330 1022.0 344.5Q1025 359 1027 380Q963 370 898.0 360.0Q833 350 770 339Q939 281 1057.0 246.0Q1175 211 1245 205Q1215 163 1208 110ZM666 837Q691 866 712.5 893.0Q734 920 742 936L660 943Q660 902 666 837ZM678 739Q695 757 720.0 784.5Q745 812 770.5 840.5Q796 869 815.0 892.5Q834 916 840 927Q819 930 795.0 932.0Q771 934 747 936Q756 924 765.0 916.0Q774 908 784 900Q765 893 733.0 867.5Q701 842 669 815Q672 780 678 739ZM687 668Q734 674 754 680Q734 687 684 691ZM370 86 364 168Q283 146 222.0 127.0Q161 108 136 95Q135 123 130.5 148.0Q126 173 115 195Q117 195 119.5 194.5Q122 194 124 194Q123 218 120.5 254.5Q118 291 115.0 329.0Q112 367 108.5 397.5Q105 428 100 439Q115 436 129 436Q144 436 159 439Q155 430 152.0 413.5Q149 397 146 376Q159 384 168.5 394.0Q178 404 186 415Q191 402 210.0 376.5Q229 351 254.5 320.0Q280 289 305.0 260.5Q330 232 346 213L359 215Q353 269 346 290Q357 287 368.5 286.5Q380 286 393 289H394Q417 284 440 290H441Q449 288 461.0 287.0Q473 286 489 290Q486 283 483.5 268.0Q481 253 479 232Q542 242 607.5 252.5Q673 263 736 273Q567 332 449.5 366.0Q332 400 261 407Q291 449 298 502Q331 478 397.5 442.5Q464 407 557.0 365.5Q650 324 761 279V266Q694 251 620.5 233.5Q547 216 476 197Q472 152 470 86H465Q461 147 456 192L427 185Q426 164 425.0 139.0Q424 114 423 86H417Q416 114 414.0 137.5Q412 161 410 180Q403 179 395.0 176.5Q387 174 379 172L376 86ZM1368 336 1375 417Q1356 418 1329.0 416.0Q1302 414 1270 411Q1298 387 1325.0 365.5Q1352 344 1368 336ZM1359 237Q1362 259 1364.0 283.0Q1366 307 1368 330Q1356 322 1348.0 313.0Q1340 304 1332 294Q1325 313 1299.5 345.0Q1274 377 1247 409L1171 400Q1189 383 1216.5 358.0Q1244 333 1272.5 307.5Q1301 282 1324.5 262.5Q1348 243 1359 237ZM1112 324Q1119 344 1123 394L1100 390Q1106 344 1112 324ZM1066 323Q1071 341 1075 387L1053 384Q1055 362 1059.0 347.5Q1063 333 1066 323ZM258 203Q292 206 335 212Q316 229 289.0 254.0Q262 279 233.0 304.5Q204 330 180.5 349.0Q157 368 146 374Q144 353 142.0 329.0Q140 305 138 281Q160 299 174 318Q182 299 206.5 267.0Q231 235 258 203ZM663 -365Q666 -350 666 -336Q666 -321 663 -306Q671 -310 688.0 -313.0Q705 -316 726 -318Q717 -305 707.5 -295.5Q698 -286 687 -279Q700 -274 725.5 -254.5Q751 -235 781.5 -209.5Q812 -184 840.5 -159.0Q869 -134 888 -118Q888 -115 887.5 -112.0Q887 -109 887 -105Q859 -108 841.0 -111.5Q823 -115 812 -119Q818 -95 812 -72V-71Q818 -48 812 -25V-24Q814 -7 815.0 0.5Q816 8 812 24Q825 19 869 14Q859 77 849.0 142.5Q839 208 828 271Q770 102 735.5 -15.5Q701 -133 695 -204Q653 -174 600 -167Q625 -134 660.0 -67.5Q695 -1 737.0 92.0Q779 185 823 296H836Q851 229 868.5 155.5Q886 82 904 11Q951 6 1016 5V0Q984 -2 957.5 -4.0Q931 -6 909 -8L917 -37Q938 -38 963.0 -39.5Q988 -41 1016 -42V-48Q988 -49 964.5 -51.0Q941 -53 921 -55Q923 -62 925.5 -69.5Q928 -77 929 -85Q949 -86 970.0 -87.0Q991 -88 1016 -89V-95L933 -101Q955 -181 974.5 -242.0Q994 -303 1007 -329Q979 -330 954.5 -334.5Q930 -339 907 -350V-341Q884 -342 847.5 -344.5Q811 -347 773.0 -350.0Q735 -353 704.5 -356.5Q674 -360 663 -365ZM383 218 406 221Q400 268 393 288Q388 271 383 218ZM430 225 452 228Q450 249 446.5 263.5Q443 278 440 288Q438 280 435.0 264.0Q432 248 430 225ZM131 194Q172 194 236 200Q208 224 180.5 246.0Q153 268 137 276ZM877 -34 873 -12Q831 -18 813 -25Q831 -30 877 -34ZM884 -82 880 -59Q856 -62 840.0 -65.0Q824 -68 813 -71Q833 -78 884 -82ZM820 -327Q812 -315 803.0 -306.5Q794 -298 784 -291Q803 -283 835.0 -258.0Q867 -233 899 -206L890 -130Q873 -148 848.0 -175.5Q823 -203 797.5 -231.5Q772 -260 752.5 -283.5Q733 -307 727 -318Q749 -321 773.0 -323.0Q797 -325 820 -327ZM907 -334Q908 -314 906.0 -287.5Q904 -261 901 -229Q877 -257 855.5 -284.0Q834 -311 826 -327Z" />
  </g>
</svg>