<svg xmlns="http://www.w3.org/2000/svg" viewBox="100 -151 1407 951">
  <g transform="translate(0, 649) scale(1, -1)">
    <path fill="black" d="M669 -151Q669 -110 667.0 -65.0Q665 -20 661 23Q547 -7 450.0 -35.5Q353 -64 282.5 -88.5Q212 -113 176 -132Q175 -73 164.5 -20.0Q154 33 131 80Q136 79 141.0 79.0Q146 79 151 79Q149 118 146.0 176.5Q143 235 138.0 300.5Q133 366 127.5 427.5Q122 489 115.0 535.0Q108 581 100 600Q133 594 163 594Q195 594 225 600Q218 581 211.0 545.5Q204 510 199 465Q226 485 245.5 505.0Q265 525 282 548Q291 526 320.0 486.5Q349 447 389.0 397.5Q429 348 472.5 296.5Q516 245 555.5 199.0Q595 153 622 120Q630 121 637.5 122.0Q645 123 652 124Q645 179 638.0 221.0Q631 263 624 283Q650 277 675 277Q687 277 699.0 278.5Q711 280 724 282V283H726Q750 277 774 277Q798 277 825 283Q849 277 875 277Q900 277 927 283Q922 268 916.0 236.0Q910 204 905 160Q941 165 977.0 171.0Q1013 177 1049 183Q1055 188 1060.5 193.0Q1066 198 1073 204L1092 193L1089 189L1165 201L1209 240L1228 229Q1225 224 1221.5 219.0Q1218 214 1216 209L1453 248Q1093 372 842.5 444.5Q592 517 443 532Q504 619 522 734Q568 700 645.5 655.5Q723 611 827 559Q789 592 764.5 611.0Q740 630 717 649Q740 664 757.0 677.0Q774 690 791.5 706.5Q809 723 833.0 745.0Q857 767 893 800L912 785Q888 747 871.0 714.0Q854 681 836 649L854 614Q876 628 893.0 641.5Q910 655 928.0 671.0Q946 687 969.5 709.5Q993 732 1029 764L1048 749Q1024 711 1007.0 678.0Q990 645 972 613Q990 580 1007.0 547.5Q1024 515 1048 476L1029 465Q982 507 951.0 533.0Q920 559 898.0 576.5Q876 594 856 610Q867 588 879.5 566.5Q892 545 907 520Q1032 460 1183.5 393.5Q1335 327 1507 259V231Q1431 214 1350.0 195.5Q1269 177 1186 157L1152 92Q1170 61 1187.0 27.5Q1204 -6 1228 -44L1209 -59Q1173 -27 1149.5 -4.5Q1126 18 1108.0 34.0Q1090 50 1073.0 63.0Q1056 76 1034 91L1016 56Q1034 25 1051.0 -8.5Q1068 -42 1092 -80L1073 -95Q1037 -62 1013.0 -40.0Q989 -18 971.5 -1.5Q954 15 937.0 28.0Q920 41 897 56L950 98Q937 95 924.0 92.0Q911 89 897 85Q892 28 888.0 -33.5Q884 -95 882 -151H870Q870 -97 866.5 -38.5Q863 20 858 75L794 59Q789 7 786.0 -47.0Q783 -101 781 -151H769Q769 -103 766.5 -51.5Q764 0 759 49L691 31Q687 -15 684.5 -61.0Q682 -107 681 -151ZM437 97 601 117Q570 146 525.5 186.5Q481 227 432.5 271.0Q384 315 337.5 355.0Q291 395 254.5 423.5Q218 452 199 461Q194 416 189.5 365.5Q185 315 181 265Q205 283 223.0 302.0Q241 321 257 343Q268 317 296.5 276.5Q325 236 362.0 189.5Q399 143 437 97ZM803 145Q814 147 825.5 148.5Q837 150 849 152Q843 196 837.0 230.0Q831 264 825 281Q820 265 814.0 228.5Q808 192 803 145ZM701 130 750 137Q744 185 737.5 223.0Q731 261 725 280Q719 261 713.0 221.5Q707 182 701 130ZM166 79Q208 78 265.0 81.5Q322 85 390 92Q350 127 310.0 160.0Q270 193 236.0 218.0Q202 243 180 254ZM1036 95Q1047 103 1058.0 112.0Q1069 121 1081 131Q1074 129 1067.0 127.5Q1060 126 1052 124Z" />
  </g>
</svg>