<svg xmlns="http://www.w3.org/2000/svg" viewBox="100 -138 1062 854">
  <g transform="translate(0, 578) scale(1, -1)">
    <path fill="black" d="M270 -138Q276 -102 276 -65Q276 -28 270 8Q280 5 290.0 2.5Q300 0 310 -2Q310 17 309.5 35.0Q309 53 308 72Q246 67 199.0 57.5Q152 48 100 32Q103 51 104.5 65.5Q106 80 106 94Q106 105 105.0 117.0Q104 129 102 142H100Q100 146 101 148Q100 150 100 154L101 153Q103 167 104.5 180.0Q106 193 106 205Q106 216 105.0 227.5Q104 239 102 252H100Q100 256 101 258Q100 260 100 264L101 263Q103 277 104.0 288.5Q105 300 105 312Q105 323 104.0 335.5Q103 348 101 362H100Q100 366 101 368Q100 370 100 374L101 373Q103 388 104.0 400.5Q105 413 105 425Q105 439 104.0 453.0Q103 467 100 484Q145 470 186.0 460.5Q227 451 278 446Q273 476 266.5 505.5Q260 535 252 563Q288 557 325 557Q362 557 398 563Q391 535 384.0 504.5Q377 474 372 440Q405 439 444.5 438.5Q484 438 531 438V408Q436 408 367 405L358 331Q394 330 436.5 329.0Q479 328 531 328V298Q477 298 434.0 297.5Q391 297 355 295L349 221Q423 218 531 218V188Q475 188 429.5 187.0Q384 186 347 184Q346 166 345.5 148.0Q345 130 344 111Q382 110 427.5 109.0Q473 108 531 108V78Q473 78 426.5 77.0Q380 76 342 74L340 -9Q431 -27 534.0 -35.5Q637 -44 743.5 -46.5Q850 -49 951 -50Q951 -17 950.5 18.0Q950 53 950 90Q880 86 827.5 76.0Q775 66 721 49Q724 66 725.0 80.0Q726 94 726 107Q726 119 725.0 131.5Q724 144 722 159H721Q721 163 722 165Q721 167 721 171L722 170Q724 184 725.5 197.0Q727 210 727 222Q727 233 726.0 244.5Q725 256 723 269H721Q721 273 722 275Q721 277 721 281L722 280Q724 294 725.5 307.0Q727 320 727 332Q727 343 726.0 354.5Q725 366 723 379H721Q721 383 722 385Q721 387 721 391L722 390Q724 405 725.0 417.5Q726 430 726 442Q726 456 725.0 470.0Q724 484 721 501Q772 485 820.5 475.5Q869 466 933 461Q929 503 924.5 543.0Q920 583 914 619Q833 618 749.0 614.5Q665 611 584.5 604.0Q504 597 433.5 587.0Q363 577 310 562Q316 598 316 635Q316 672 310 708Q394 685 493.0 672.5Q592 660 698.5 655.5Q805 651 908 650Q905 668 901.0 684.5Q897 701 893 716Q929 710 966 710Q1003 710 1039 716Q1029 679 1021 630V620H1019Q1014 584 1009.5 542.5Q1005 501 1001 457Q1035 456 1075.0 455.5Q1115 455 1162 455V425Q1067 425 998 422Q997 404 995.5 385.5Q994 367 993 347Q1028 346 1070.0 345.5Q1112 345 1162 345V315Q1062 315 991 312Q990 293 989.0 275.0Q988 257 987 238Q1024 237 1067.0 236.0Q1110 235 1162 235V205Q1058 205 986 202L983 128Q1021 126 1064.5 125.5Q1108 125 1162 125V95Q1057 95 983 92Q982 54 981.5 18.5Q981 -17 981 -50V-80Q893 -80 794.5 -82.5Q696 -85 599.5 -91.5Q503 -98 418.0 -109.5Q333 -121 270 -138ZM941 350 937 419Q879 415 833.0 406.5Q787 398 741 385Q788 372 834.5 363.5Q881 355 941 350ZM293 335Q292 352 289.5 368.0Q287 384 285 400Q238 396 199.5 388.0Q161 380 120 368Q162 355 202.5 347.5Q243 340 293 335ZM946 240 943 309Q882 305 835.0 297.0Q788 289 741 275Q789 261 836.5 252.5Q884 244 946 240ZM302 224Q301 241 300.0 258.0Q299 275 297 291Q245 287 204.0 279.0Q163 271 120 258Q164 245 206.0 237.0Q248 229 302 224ZM949 130Q949 147 948.5 164.5Q948 182 948 200Q885 196 837.0 187.5Q789 179 741 165Q789 151 837.0 142.5Q885 134 949 130ZM307 114Q307 131 306.5 148.0Q306 165 305 182Q250 178 207.0 169.5Q164 161 120 148Q164 135 208.0 127.0Q252 119 307 114Z" />
  </g>
</svg>