<svg xmlns="http://www.w3.org/2000/svg" viewBox="100 -191 3826 1052">
  <g transform="translate(0, 670) scale(1, -1)">
    <path fill="black" d="M2801 -24Q2749 15 2655.5 67.0Q2562 119 2434.5 181.0Q2307 243 2150.5 311.5Q1994 380 1816 451V479Q1959 511 2117.0 548.5Q2275 586 2428 625Q2433 682 2437.0 743.5Q2441 805 2441 861H2453Q2456 750 2467 635Q2483 640 2499.0 643.5Q2515 647 2530 651Q2535 703 2538.0 757.0Q2541 811 2541 861H2553Q2555 814 2558.0 762.0Q2561 710 2565 660Q2583 665 2600.0 670.0Q2617 675 2634 679Q2638 725 2640.0 771.5Q2642 818 2642 861H2654Q2655 820 2657.5 775.5Q2660 731 2664 687Q2777 718 2873.5 746.0Q2970 774 3040.5 799.0Q3111 824 3147 842Q3148 783 3159.0 730.0Q3170 677 3192 630Q3188 630 3182.5 630.5Q3177 631 3172 631Q3174 592 3177.5 533.0Q3181 474 3185 410Q3256 415 3303.0 433.0Q3350 451 3381.0 473.0Q3412 495 3435 511Q3430 488 3427.5 461.0Q3425 434 3425 405Q3425 377 3427.5 349.0Q3430 321 3435 294Q3412 310 3380.5 329.0Q3349 348 3302.5 363.0Q3256 378 3187 382Q3192 322 3197.5 266.5Q3203 211 3209.5 169.5Q3216 128 3223 110Q3190 116 3160 116Q3128 116 3098 110Q3106 129 3112.5 164.0Q3119 199 3124 245Q3096 225 3077.0 205.0Q3058 185 3041 162Q3032 184 3003.0 223.5Q2974 263 2934.0 312.5Q2894 362 2850.5 413.0Q2807 464 2767.0 510.5Q2727 557 2700 590L2673 586Q2679 530 2686.0 487.0Q2693 444 2699 427Q2672 433 2647 433Q2621 433 2597 427Q2570 433 2545 433Q2520 433 2496 427Q2469 433 2445 433Q2420 433 2396 427Q2401 444 2407.0 475.5Q2413 507 2419 550Q2284 530 2144.0 507.0Q2004 484 1869 461Q2230 337 2480.5 264.5Q2731 192 2880 178Q2819 91 2801 -24ZM3387 -26Q3397 12 3407.5 74.0Q3418 136 3427.0 213.5Q3436 291 3444.0 375.0Q3452 459 3458.0 541.5Q3464 624 3467.5 696.5Q3471 769 3471 822H3498Q3498 790 3499.0 750.0Q3500 710 3502 666Q3541 669 3592.0 674.0Q3643 679 3696.0 684.5Q3749 690 3797.0 696.0Q3845 702 3879.5 708.0Q3914 714 3926 720Q3920 687 3920 652Q3920 637 3921.0 621.5Q3922 606 3926 590Q3915 595 3881.5 600.5Q3848 606 3800.0 612.0Q3752 618 3698.5 623.5Q3645 629 3594.0 634.0Q3543 639 3503 642Q3506 572 3512 500Q3553 503 3603.0 507.5Q3653 512 3705.0 517.5Q3757 523 3803.0 529.0Q3849 535 3881.5 541.0Q3914 547 3926 552Q3920 519 3920 484Q3920 469 3921.0 453.5Q3922 438 3926 422Q3916 426 3884.0 431.5Q3852 437 3806.0 443.0Q3760 449 3708.0 454.5Q3656 460 3605.5 464.5Q3555 469 3514 473Q3516 439 3519.0 404.0Q3522 369 3525 334Q3579 339 3642.5 344.5Q3706 350 3766.0 357.0Q3826 364 3869.5 371.0Q3913 378 3926 384Q3920 351 3920 316Q3920 301 3921.0 285.5Q3922 270 3926 254Q3914 259 3871.5 265.5Q3829 272 3769.5 278.5Q3710 285 3646.5 291.5Q3583 298 3529 302Q3533 268 3537.0 234.0Q3541 200 3545 168Q3599 173 3660.0 178.5Q3721 184 3777.0 190.5Q3833 197 3873.0 203.5Q3913 210 3926 216Q3920 183 3920 148Q3920 133 3921.0 117.5Q3922 102 3926 86Q3915 91 3876.0 97.0Q3837 103 3781.5 109.0Q3726 115 3665.5 121.0Q3605 127 3550 132Q3558 85 3565.5 44.5Q3573 4 3581 -26Q3558 -21 3534.5 -18.0Q3511 -15 3487 -15Q3440 -15 3387 -26ZM528 -152Q528 -120 527.0 -80.0Q526 -40 524 3Q485 0 434.0 -4.5Q383 -9 330.0 -14.5Q277 -20 229.0 -26.0Q181 -32 146.5 -38.0Q112 -44 100 -50Q106 -17 106 18Q106 33 105.0 48.5Q104 64 100 80Q111 75 144.5 69.5Q178 64 226.0 58.0Q274 52 327.5 46.0Q381 40 432.0 35.0Q483 30 523 27Q522 62 519.0 97.5Q516 133 514 170Q473 167 422.5 162.0Q372 157 320.5 151.5Q269 146 223.0 140.5Q177 135 144.0 129.0Q111 123 100 118Q106 151 106 186Q106 201 105.0 216.5Q104 232 100 248Q110 244 142.0 238.5Q174 233 219.5 227.0Q265 221 317.0 215.5Q369 210 420.0 205.0Q471 200 512 197Q509 232 506.5 266.5Q504 301 500 335Q446 331 382.5 325.0Q319 319 259.5 312.0Q200 305 157.0 298.5Q114 292 100 286Q106 319 106 354Q106 369 105.0 384.5Q104 400 100 416Q112 411 154.0 404.5Q196 398 255.5 391.0Q315 384 379.0 378.0Q443 372 497 367Q493 402 489.0 436.0Q485 470 481 501Q427 497 366.0 491.0Q305 485 249.0 478.5Q193 472 153.0 466.0Q113 460 100 454Q106 487 106 522Q106 537 105.0 552.5Q104 568 100 584Q111 579 150.0 573.0Q189 567 244.0 560.5Q299 554 360.0 548.5Q421 543 475 538Q468 585 460.5 625.0Q453 665 445 696Q468 690 491.5 687.5Q515 685 539 685Q563 685 588.5 687.5Q614 690 639 696Q629 658 618.5 596.0Q608 534 599.0 456.5Q590 379 582.0 295.0Q574 211 568.0 128.5Q562 46 558.5 -26.5Q555 -99 555 -152ZM1372 -191Q1372 -150 1370.0 -105.0Q1368 -60 1364 -16Q1250 -47 1153.0 -75.5Q1056 -104 985.5 -128.5Q915 -153 879 -172Q878 -113 867.5 -60.0Q857 -7 834 40Q839 39 844.0 39.0Q849 39 854 39Q852 78 849.0 136.5Q846 195 841 259Q770 255 723.0 237.0Q676 219 645.0 197.0Q614 175 591 159Q596 182 598.5 209.5Q601 237 601 265Q601 293 598.5 321.0Q596 349 591 376Q614 360 645.5 341.0Q677 322 724.0 307.0Q771 292 839 287Q835 347 829.0 403.0Q823 459 816.5 501.0Q810 543 803 560Q836 554 866 554Q898 554 928 560Q921 541 914.0 505.5Q907 470 902 425Q929 445 948.5 465.0Q968 485 985 508Q994 486 1023.0 446.5Q1052 407 1092.0 357.5Q1132 308 1175.5 256.5Q1219 205 1258.5 159.0Q1298 113 1325 80Q1333 81 1340.5 82.0Q1348 83 1355 84Q1348 139 1341.0 181.0Q1334 223 1327 243Q1353 237 1378 237Q1390 237 1402.0 238.5Q1414 240 1427 242V243H1429Q1453 237 1477 237Q1501 237 1528 243H1529Q1553 237 1578 237Q1603 237 1630 243Q1625 228 1619.0 196.0Q1613 164 1608 120Q1743 140 1882.5 163.0Q2022 186 2156 208Q1796 332 1545.5 404.5Q1295 477 1146 492Q1207 579 1225 694Q1277 655 1370.5 603.0Q1464 551 1591.5 489.0Q1719 427 1875.5 358.5Q2032 290 2210 219V191Q2068 159 1910.0 121.5Q1752 84 1600 45Q1595 -12 1591.0 -73.5Q1587 -135 1585 -191H1573Q1573 -137 1569.5 -78.5Q1566 -20 1561 35L1497 19Q1492 -33 1489.0 -87.0Q1486 -141 1484 -191H1472Q1472 -143 1469.5 -91.5Q1467 -40 1462 9L1394 -8Q1390 -54 1387.5 -100.5Q1385 -147 1384 -191ZM3143 456Q3147 506 3150.0 551.5Q3153 597 3157 631Q3115 631 3058.0 627.5Q3001 624 2932 617Q2973 583 3013.0 550.0Q3053 517 3087.0 492.0Q3121 467 3143 456ZM3124 248Q3129 293 3133.5 344.0Q3138 395 3142 445Q3117 426 3099.5 407.5Q3082 389 3066 367Q3055 394 3026.5 434.0Q2998 474 2961.0 520.5Q2924 567 2885 612Q2847 608 2806.0 603.0Q2765 598 2721 592Q2753 563 2797.0 522.5Q2841 482 2890.0 437.5Q2939 393 2985.5 353.5Q3032 314 3068.5 285.5Q3105 257 3124 248ZM2597 428Q2604 448 2611.0 488.0Q2618 528 2624 579Q2611 578 2599.0 576.0Q2587 574 2574 572Q2579 522 2585.5 483.5Q2592 445 2597 428ZM2497 430Q2502 449 2508.5 484.0Q2515 519 2521 565Q2510 564 2498.5 562.0Q2487 560 2475 558Q2480 514 2486.0 480.5Q2492 447 2497 430ZM1140 57 1304 77Q1273 106 1228.5 146.5Q1184 187 1135.5 231.0Q1087 275 1040.5 315.0Q994 355 957.5 383.5Q921 412 902 421Q897 376 892.5 325.5Q888 275 884 225Q908 243 926.0 262.0Q944 281 960 303Q971 277 999.5 236.5Q1028 196 1065.0 149.5Q1102 103 1140 57ZM1506 105Q1517 107 1528.5 108.5Q1540 110 1552 112Q1546 156 1540.0 190.0Q1534 224 1528 241Q1523 225 1517.0 188.5Q1511 152 1506 105ZM1404 90 1453 97Q1447 145 1440.5 183.0Q1434 221 1428 240Q1422 221 1416.0 181.5Q1410 142 1404 90ZM869 39Q911 38 968.0 41.5Q1025 45 1093 52Q1053 87 1013.0 120.0Q973 153 939.0 178.0Q905 203 883 214Z" />
  </g>
</svg>