<svg xmlns="http://www.w3.org/2000/svg" viewBox="100 -151 2110 951">
  <g transform="translate(0, 649) scale(1, -1)">
    <path fill="black" d="M1372 -151Q1372 -110 1370.0 -65.0Q1368 -20 1364 23Q1250 -7 1153.0 -35.5Q1056 -64 985.5 -88.5Q915 -113 879 -132Q878 -73 867.5 -20.0Q857 33 834 80Q839 79 844.0 79.0Q849 79 854 79Q852 118 849.0 176.5Q846 235 841 299Q770 295 723.0 277.0Q676 259 645.0 237.0Q614 215 591 199Q596 222 598.5 249.5Q601 277 601 305Q601 333 598.5 361.0Q596 389 591 416Q614 400 645.5 381.0Q677 362 724.0 347.0Q771 332 839 327Q835 387 829.0 443.0Q823 499 816.5 541.0Q810 583 803 600Q836 594 866 594Q898 594 928 600Q921 581 914.0 545.5Q907 510 902 465Q929 485 948.5 505.0Q968 525 985 548Q994 526 1023.0 486.5Q1052 447 1092.0 397.5Q1132 348 1175.5 296.5Q1219 245 1258.5 199.0Q1298 153 1325 120Q1333 121 1340.5 122.0Q1348 123 1355 124Q1348 179 1341.0 221.0Q1334 263 1327 283Q1353 277 1378 277Q1390 277 1402.0 278.5Q1414 280 1427 282V283H1429Q1453 277 1477 277Q1502 277 1529 283Q1553 277 1578 277Q1603 277 1630 283Q1625 268 1619.0 236.0Q1613 204 1608 160Q1644 165 1680.0 171.0Q1716 177 1752 183Q1758 188 1763.5 193.0Q1769 198 1776 204L1795 193L1792 189L1868 201L1912 240L1931 229Q1928 224 1924.5 219.0Q1921 214 1919 209L2156 248Q1796 372 1545.5 444.5Q1295 517 1146 532Q1207 619 1225 734Q1271 700 1348.5 655.5Q1426 611 1530 559Q1492 592 1467.5 611.0Q1443 630 1420 649Q1443 664 1460.0 677.0Q1477 690 1494.5 706.5Q1512 723 1536.0 745.0Q1560 767 1596 800L1615 785Q1591 747 1574.0 714.0Q1557 681 1539 649L1557 614Q1579 628 1596.0 641.5Q1613 655 1631.0 671.0Q1649 687 1672.5 709.5Q1696 732 1732 764L1751 749Q1727 711 1710.0 678.0Q1693 645 1675 613Q1693 580 1710.0 547.5Q1727 515 1751 476L1732 465Q1685 507 1654.0 533.0Q1623 559 1601.0 576.5Q1579 594 1559 610Q1570 588 1582.5 566.5Q1595 545 1610 520Q1735 460 1886.5 393.5Q2038 327 2210 259V231Q2134 214 2053.0 195.5Q1972 177 1889 157L1855 92Q1873 61 1890.0 27.5Q1907 -6 1931 -44L1912 -59Q1876 -27 1852.5 -4.5Q1829 18 1811.0 34.0Q1793 50 1776.0 63.0Q1759 76 1737 91L1719 56Q1737 25 1754.0 -8.5Q1771 -42 1795 -80L1776 -95Q1740 -62 1716.0 -40.0Q1692 -18 1674.5 -1.5Q1657 15 1640.0 28.0Q1623 41 1600 56L1653 98Q1640 95 1627.0 92.0Q1614 89 1600 85Q1595 28 1591.0 -33.5Q1587 -95 1585 -151H1573Q1573 -97 1569.5 -38.5Q1566 20 1561 75L1497 59Q1492 7 1489.0 -47.0Q1486 -101 1484 -151H1472Q1472 -103 1469.5 -51.5Q1467 0 1462 49L1394 31Q1390 -15 1387.5 -61.0Q1385 -107 1384 -151ZM528 -112Q528 -80 527.0 -40.0Q526 0 524 43Q485 40 434.0 35.5Q383 31 330.0 25.5Q277 20 229.0 13.5Q181 7 146.5 1.0Q112 -5 100 -10Q106 23 106 58Q106 73 105.0 88.5Q104 104 100 120Q111 115 144.5 109.5Q178 104 226.0 98.0Q274 92 327.5 86.0Q381 80 432.0 75.0Q483 70 523 67Q522 102 519.0 137.5Q516 173 514 210Q473 207 422.5 202.0Q372 197 320.5 191.5Q269 186 223.0 180.5Q177 175 144.0 169.0Q111 163 100 158Q106 191 106 226Q106 241 105.0 256.5Q104 272 100 288Q110 284 142.0 278.5Q174 273 219.5 267.0Q265 261 317.0 255.5Q369 250 420.0 245.0Q471 240 512 237Q509 272 506.5 306.5Q504 341 500 375Q446 371 382.5 365.0Q319 359 259.5 352.0Q200 345 157.0 338.5Q114 332 100 326Q106 359 106 394Q106 409 105.0 424.5Q104 440 100 456Q112 451 154.0 444.5Q196 438 255.5 431.0Q315 424 379.0 418.0Q443 412 497 407Q493 442 489.0 476.0Q485 510 481 541Q427 537 366.0 531.0Q305 525 249.0 518.5Q193 512 153.0 506.0Q113 500 100 494Q106 527 106 562Q106 577 105.0 592.5Q104 608 100 624Q111 619 150.0 613.0Q189 607 244.0 600.5Q299 594 360.0 588.5Q421 583 475 578Q468 625 460.5 665.0Q453 705 445 736Q468 730 491.5 727.5Q515 725 539 725Q563 725 588.5 727.5Q614 730 639 736Q629 698 618.5 636.0Q608 574 599.0 496.5Q590 419 582.0 335.0Q574 251 568.0 168.5Q562 86 558.5 13.5Q555 -59 555 -112ZM1140 97 1304 117Q1273 146 1228.5 186.5Q1184 227 1135.5 271.0Q1087 315 1040.5 355.0Q994 395 957.5 423.5Q921 452 902 461Q897 416 892.5 365.5Q888 315 884 265Q908 283 926.0 302.0Q944 321 960 343Q971 317 999.5 276.5Q1028 236 1065.0 189.5Q1102 143 1140 97ZM1506 145Q1517 147 1528.5 148.5Q1540 150 1552 152Q1546 196 1540.0 230.0Q1534 264 1528 281Q1523 265 1517.0 228.5Q1511 192 1506 145ZM1404 130 1453 137Q1447 185 1440.5 223.0Q1434 261 1428 280Q1422 261 1416.0 221.5Q1410 182 1404 130ZM869 79Q911 78 968.0 81.5Q1025 85 1093 92Q1053 127 1013.0 160.0Q973 193 939.0 218.0Q905 243 883 254ZM1739 95Q1750 103 1761.0 112.0Q1772 121 1784 131Q1777 129 1770.0 127.5Q1763 126 1755 124Z" />
  </g>
</svg>