<svg xmlns="http://www.w3.org/2000/svg" viewBox="100 -80 890 796">
  <g transform="translate(0, 636) scale(1, -1)">
    <path fill="black" d="M521 -80Q521 -44 520.5 -4.5Q520 35 520 78Q435 78 374.0 75.5Q313 73 267.5 68.0Q222 63 182.5 54.0Q143 45 100 32Q103 51 104.5 65.5Q106 80 106 94Q106 105 105.0 117.0Q104 129 102 142H100Q100 146 101 148Q100 150 100 154L101 153Q103 167 104.5 180.0Q106 193 106 205Q106 216 105.0 227.5Q104 239 102 252H100Q100 256 101 258Q100 260 100 264L101 263Q103 277 104.5 290.0Q106 303 106 315Q106 326 105.0 337.5Q104 349 102 362H100Q100 366 101 368Q100 370 100 374L101 373Q103 388 104.0 400.5Q105 413 105 425Q105 439 104.0 453.0Q103 467 100 484Q142 471 180.5 462.0Q219 453 263.5 448.0Q308 443 366.0 440.5Q424 438 505 438Q499 517 488.5 588.5Q478 660 463 716Q499 710 537 710Q563 710 590 713V716L599 714L609 716Q609 715 608.5 714.5Q608 714 608 713Q635 710 662 710Q690 710 717 713V716L726 714L736 716Q736 715 735.5 714.5Q735 714 735 713Q762 710 789 710Q817 710 844 713V716L853 714L863 716Q863 715 862.5 714.5Q862 714 862 713Q888 710 915 710Q953 710 990 716Q976 666 966.0 592.5Q956 519 949.5 432.0Q943 345 939.0 254.0Q935 163 933.5 77.0Q932 -9 932 -80H902Q902 3 900.5 102.5Q899 202 894.5 305.5Q890 409 880.0 505.0Q870 601 853 677Q842 622 833.5 549.5Q825 477 819.5 395.0Q814 313 811.0 228.5Q808 144 806.5 65.0Q805 -14 805 -80H775Q775 3 773.5 102.5Q772 202 767.5 305.5Q763 409 753.0 505.0Q743 601 726 677Q715 622 706.5 549.5Q698 477 692.5 395.0Q687 313 684.0 228.5Q681 144 679.5 65.0Q678 -14 678 -80H648Q648 3 646.5 102.5Q645 202 640.5 305.5Q636 409 626.0 505.0Q616 601 599 677Q588 622 579.5 549.5Q571 477 565.5 395.0Q560 313 557.0 228.5Q554 144 552.5 65.0Q551 -14 551 -80ZM512 328Q511 348 510.0 368.0Q509 388 507 408Q431 408 374.5 405.5Q318 403 275.0 398.5Q232 394 195.0 386.5Q158 379 120 368Q158 357 195.5 349.0Q233 341 276.5 336.5Q320 332 377.0 330.0Q434 328 512 328ZM517 218 514 298Q436 298 378.5 295.5Q321 293 277.0 288.5Q233 284 196.0 276.5Q159 269 120 258Q159 246 196.5 238.5Q234 231 278.0 226.5Q322 222 380.0 220.0Q438 218 517 218ZM520 108 518 188Q439 188 380.5 185.5Q322 183 278.0 178.5Q234 174 196.5 166.5Q159 159 120 148Q159 136 196.5 128.5Q234 121 278.5 116.5Q323 112 381.5 110.0Q440 108 520 108Z" />
  </g>
</svg>