<svg xmlns="http://www.w3.org/2000/svg" viewBox="100 -113 2150 874">
  <g transform="translate(0, 648) scale(1, -1)">
    <path fill="black" d="M975 -113Q926 -80 856.0 -34.5Q786 11 704.0 63.5Q622 116 536.5 168.0Q451 220 369.5 266.5Q288 313 218.5 347.5Q149 382 100 398Q125 425 145.5 455.5Q166 486 181 520Q189 511 199.0 500.0Q209 489 222 478Q246 504 266.5 534.5Q287 565 302 599Q319 580 342 556Q367 583 387.5 613.5Q408 644 423 678Q462 633 520.0 581.5Q578 530 647.5 476.5Q717 423 791.5 370.5Q866 318 936 270Q925 293 912 311Q970 319 1043.0 338.5Q1116 358 1197.5 386.0Q1279 414 1362.0 446.5Q1445 479 1522 512Q1543 554 1556 599L1500 610L1506 620Q1410 577 1311.5 529.5Q1213 482 1124.0 430.5Q1035 379 966 323Q957 358 942 392Q902 418 847.0 451.5Q792 485 728.0 520.0Q664 555 596.0 586.5Q528 618 463 639Q488 666 508.5 696.5Q529 727 544 761Q576 723 621.5 681.5Q667 640 718.0 598.5Q769 557 819.0 519.0Q869 481 911 451L908 457Q967 465 1041.5 485.5Q1116 506 1199.0 535.0Q1282 564 1366.5 597.0Q1451 630 1529 664Q1547 702 1559 744Q1618 695 1695.0 647.0Q1772 599 1858.5 553.5Q1945 508 2033.0 466.5Q2121 425 2201 389L2189 362Q2117 394 2034.5 429.0Q1952 464 1868.0 497.0Q1784 530 1705.0 556.5Q1626 583 1560 598Q1619 549 1697.5 500.0Q1776 451 1864.5 405.5Q1953 360 2042.0 318.5Q2131 277 2212 242L2201 214Q2129 247 2045.0 282.0Q1961 317 1874.0 350.5Q1787 384 1705.5 411.0Q1624 438 1557 454Q1616 405 1697.0 355.0Q1778 305 1870.0 257.0Q1962 209 2054.0 166.5Q2146 124 2227 89L2214 60Q2149 90 2073.0 122.5Q1997 155 1917.0 187.0Q1837 219 1759.5 246.5Q1682 274 1614.0 294.0Q1546 314 1495 322Q1401 280 1306.5 234.0Q1212 188 1127.0 138.0Q1042 88 975 33Q1051 49 1141.5 78.0Q1232 107 1327.5 143.5Q1423 180 1512 218Q1536 261 1548 309Q1595 270 1660.5 229.0Q1726 188 1801.5 147.0Q1877 106 1956.0 67.5Q2035 29 2110.5 -6.0Q2186 -41 2250 -70L2237 -99Q2173 -70 2094.5 -36.5Q2016 -3 1932.5 31.0Q1849 65 1767.5 94.5Q1686 124 1615.0 145.0Q1544 166 1492 175Q1398 133 1304.0 87.0Q1210 41 1125.5 -9.0Q1041 -59 975 -113ZM950 98Q943 116 934.0 133.0Q925 150 914 166Q927 168 941.5 170.5Q956 173 971 176Q968 187 965.0 198.0Q962 209 958 219Q862 284 756.0 349.5Q650 415 545.0 469.5Q440 524 344 555Q385 516 441.5 469.5Q498 423 563.5 373.5Q629 324 697.0 274.5Q765 225 830.0 180.0Q895 135 950 98ZM961 -68Q943 -20 916 22Q929 24 943.0 26.5Q957 29 972 32Q971 40 967 51Q908 90 833.5 139.0Q759 188 676.5 239.0Q594 290 512.0 337.0Q430 384 356.0 420.5Q282 457 224 476Q263 440 319.0 394.5Q375 349 441.5 299.0Q508 249 579.0 197.5Q650 146 719.5 97.5Q789 49 851.0 6.5Q913 -36 961 -68ZM972 176Q1049 193 1141.5 222.5Q1234 252 1331.5 289.5Q1429 327 1519 366Q1530 387 1538.5 409.0Q1547 431 1554 454Q1524 461 1495 466V467Q1401 425 1305.5 378.5Q1210 332 1124.5 281.5Q1039 231 972 176Z" />
  </g>
</svg>