<svg xmlns="http://www.w3.org/2000/svg" viewBox="100 -98 1146 834">
  <g transform="translate(0, 638) scale(1, -1)">
    <path fill="black" d="M438 -98Q444 -68 447.5 -39.5Q451 -11 451 15Q451 41 447.5 67.0Q444 93 438 118Q456 111 479.0 105.0Q502 99 528 92Q523 197 511.5 310.0Q500 423 483 526Q412 519 341.0 505.5Q270 492 208.0 475.0Q146 458 100 440Q112 491 112 545Q112 599 100 656Q145 639 206.0 622.0Q267 605 336.5 591.5Q406 578 476 570Q468 617 459.0 659.0Q450 701 440 736Q491 724 545 724Q599 724 656 736Q642 685 628.0 609.0Q614 533 602.0 444.0Q590 355 581.0 262.0Q572 169 567 83Q645 66 739.0 51.0Q833 36 932.5 26.5Q1032 17 1123 14Q1122 89 1116.5 171.0Q1111 253 1102 335Q1019 334 938.5 320.0Q858 306 786.5 285.5Q715 265 657 242Q669 293 669 347Q669 401 657 458Q714 436 785.0 415.0Q856 394 936.0 380.0Q1016 366 1098 365Q1086 468 1068.5 564.0Q1051 660 1030 736Q1081 724 1135 724Q1189 724 1246 736Q1229 676 1213.0 589.0Q1197 502 1184.0 402.5Q1171 303 1162.5 202.5Q1154 102 1153 14H1167V-18Q1092 -18 1009.5 -22.0Q927 -26 844.0 -33.5Q761 -41 684.5 -51.0Q608 -61 544.5 -73.0Q481 -85 438 -98Z" />
  </g>
</svg>