<svg xmlns="http://www.w3.org/2000/svg" viewBox="100 -98 1146 834">
  <g transform="translate(0, 638) scale(1, -1)">
    <path fill="black" d="M438 -98Q450 -38 450 13Q450 40 447 65Q393 60 338.0 54.0Q283 48 241.0 41.5Q199 35 183 27Q189 60 189 84Q189 95 188.0 108.0Q187 121 183 137Q197 131 238.0 124.0Q279 117 333.5 111.0Q388 105 442 100L438 118Q448 115 466.0 109.5Q484 104 502.0 99.5Q520 95 528 93Q527 116 526.0 138.5Q525 161 523 183Q478 180 425.5 175.0Q373 170 323.0 164.5Q273 159 235.5 153.0Q198 147 183 140Q189 173 189 197Q189 208 188.0 221.0Q187 234 183 250Q196 244 233.0 238.0Q270 232 320.0 226.0Q370 220 423.0 215.0Q476 210 521 207L513 294Q467 291 415.5 286.5Q364 282 316.0 276.5Q268 271 232.5 265.0Q197 259 183 253Q189 286 189 310Q189 321 188.0 334.0Q187 347 183 363Q195 358 230.0 352.0Q265 346 312.5 341.0Q360 336 412.0 331.0Q464 326 510 322L501 406Q455 402 405.0 397.5Q355 393 309.5 388.0Q264 383 230.0 377.5Q196 372 183 366Q185 383 187.0 396.0Q189 409 189 422Q189 432 187.5 443.5Q186 455 184 468Q161 461 139.5 454.0Q118 447 100 440Q112 491 112 545Q112 599 100 656Q145 639 206.0 622.0Q267 605 336.5 591.5Q406 578 476 570Q468 617 459.0 659.0Q450 701 440 736Q491 724 545 724Q599 724 656 736Q642 685 628.0 609.0Q614 533 602.0 444.0Q590 355 581.0 262.0Q572 169 567 83Q645 66 739.0 51.0Q833 36 932.5 26.5Q1032 17 1123 14Q1122 89 1116.5 171.0Q1111 253 1102 335Q1019 334 938.5 320.0Q858 306 786.5 285.5Q715 265 657 242Q669 293 669 347Q669 401 657 458Q714 436 785.0 415.0Q856 394 936.0 380.0Q1016 366 1098 365Q1086 468 1068.5 564.0Q1051 660 1030 736Q1081 724 1135 724Q1189 724 1246 736Q1229 676 1213.0 589.0Q1197 502 1184.0 402.5Q1171 303 1162.5 202.5Q1154 102 1153 14H1167V-18Q1092 -18 1009.5 -22.0Q927 -26 844.0 -33.5Q761 -41 684.5 -51.0Q608 -61 544.5 -73.0Q481 -85 438 -98ZM496 437Q493 460 490.0 482.0Q487 504 483 526Q409 519 334.5 504.0Q260 489 196 471Q221 465 271.0 459.0Q321 453 381.0 447.5Q441 442 496 437Z" />
  </g>
</svg>