<svg xmlns="http://www.w3.org/2000/svg" viewBox="100 -188 1624 1070">
  <g transform="translate(0, 694) scale(1, -1)">
    <path fill="black" d="M386 -188Q349 -121 296 -73Q310 -67 322.0 -61.5Q334 -56 346 -52Q346 16 342.0 86.0Q338 156 330 226Q278 221 239.0 204.0Q200 187 167.5 164.5Q135 142 100 118Q105 144 107.5 173.0Q110 202 110 233Q110 262 107.5 292.5Q105 323 100 353Q134 330 166.0 310.5Q198 291 236.0 278.0Q274 265 325 261Q312 356 286 451Q322 445 359 445Q396 445 432 451Q405 355 392.5 272.5Q380 190 376.0 114.0Q372 38 372 -41Q443 -10 488.5 13.5Q534 37 572 63Q571 95 566 127Q645 105 737.5 93.0Q830 81 930.0 76.0Q1030 71 1129 70Q1168 86 1203.5 103.0Q1239 120 1280.5 143.5Q1322 167 1376.5 202.5Q1431 238 1506.0 291.5Q1581 345 1685 422Q1597 498 1515.5 551.5Q1434 605 1351 645Q1255 642 1169 633Q1165 593 1164.0 550.5Q1163 508 1163 454H1137Q1137 468 1137.0 482.0Q1137 496 1136 509Q1048 509 950.5 506.0Q853 503 757.0 496.5Q661 490 577.0 479.0Q493 468 432 451Q438 487 438 524Q438 561 432 597Q504 577 590.0 565.0Q676 553 769.0 547.5Q862 542 955.0 540.5Q1048 539 1135 539Q1133 586 1129 628Q1080 621 1032.5 612.0Q985 603 938 590Q944 626 944 663Q944 700 938 736Q987 723 1031.5 713.0Q1076 703 1119 696Q1112 738 1101.5 783.5Q1091 829 1077 882Q1113 876 1150 876Q1187 876 1223 882Q1206 821 1195.0 775.0Q1184 729 1177 689Q1200 687 1224.0 685.0Q1248 683 1273 682L1259 688Q1348 745 1409 845Q1453 771 1496.0 702.5Q1539 634 1592.0 567.0Q1645 500 1718 429L1724 423Q1625 342 1553.5 278.5Q1482 215 1431.5 165.5Q1381 116 1346.0 76.5Q1311 37 1285.0 3.0Q1259 -31 1236.5 -63.5Q1214 -96 1188 -131Q1161 -79 1128.0 -37.5Q1095 4 1054 35Q963 32 873.0 25.5Q783 19 704.0 8.0Q625 -3 566 -19Q568 -8 569.0 2.5Q570 13 571 23Q527 -17 484.5 -64.5Q442 -112 386 -188Z" />
  </g>
</svg>