<svg xmlns="http://www.w3.org/2000/svg" viewBox="100 -112 848 848">
  <g transform="translate(0, 624) scale(1, -1)">
    <path fill="black" d="M518 -112Q518 -10 514.5 80.5Q511 171 504 251Q373 237 273.0 217.5Q173 198 100 178Q112 229 112 283Q112 337 100 394Q172 374 270.5 354.5Q369 335 497 321Q484 456 463.5 559.0Q443 662 423 736Q474 724 528 724Q582 724 639 736Q618 660 598.0 556.0Q578 452 564 315Q647 308 743.0 303.5Q839 299 948 299V273Q837 273 740.0 268.5Q643 264 558 256Q551 175 547.5 83.5Q544 -8 544 -112Z" />
  </g>
</svg>