<svg xmlns="http://www.w3.org/2000/svg" viewBox="100 -192 1565 950">
  <g transform="translate(0, 566) scale(1, -1)">
    <path fill="black" d="M1304 -192Q1276 -157 1248.5 -132.5Q1221 -108 1186 -89L1198 -82Q1150 -38 1098.0 8.0Q1046 54 995.0 95.5Q944 137 901.5 168.5Q859 200 830 214Q851 226 870.0 239.5Q889 253 906 270Q800 263 716.0 257.5Q632 252 564 247Q559 175 555.0 87.0Q551 -1 546 -112H520Q513 -3 507.0 84.0Q501 171 496 242Q408 235 341.5 226.5Q275 218 218.0 206.5Q161 195 100 178Q112 229 112 283Q112 337 100 394Q160 376 216.5 363.0Q273 350 338.5 341.0Q404 332 490 324Q483 418 474.5 486.5Q466 555 454.5 614.0Q443 673 425 736Q476 724 530 724Q584 724 641 736Q622 673 608.5 613.5Q595 554 586.0 483.5Q577 413 569 318Q637 314 718.5 310.0Q800 306 903 301Q886 317 868.0 329.5Q850 342 830 354Q859 368 901.5 399.0Q944 430 994.0 471.5Q1044 513 1096.5 559.0Q1149 605 1197 649L1186 655Q1221 675 1248.5 699.0Q1276 723 1304 758Q1313 734 1342.5 691.0Q1372 648 1413.5 594.0Q1455 540 1501.0 483.0Q1547 426 1590.5 374.0Q1634 322 1665 283Q1634 244 1590.5 192.0Q1547 140 1501.0 83.0Q1455 26 1413.5 -28.0Q1372 -82 1342.5 -125.0Q1313 -168 1304 -192ZM1231 -62Q1272 -35 1324.5 7.5Q1377 50 1433.0 98.5Q1489 147 1541.5 195.5Q1594 244 1635 283Q1594 322 1541.0 370.5Q1488 419 1432.0 467.5Q1376 516 1323.5 558.5Q1271 601 1230 628Q1194 585 1155.0 537.0Q1116 489 1079.0 442.5Q1042 396 1012.5 355.0Q983 314 965 284Q983 254 1013.0 212.5Q1043 171 1080.0 124.0Q1117 77 1156.0 29.5Q1195 -18 1231 -62Z" />
  </g>
</svg>