<svg xmlns="http://www.w3.org/2000/svg" viewBox="100 -122 1643 877">
  <g transform="translate(0, 633) scale(1, -1)">
    <path fill="black" d="M508 -122Q358 39 262.0 147.5Q166 256 100 316Q162 380 259.0 487.5Q356 595 506 755L527 745Q470 653 428.5 578.0Q387 503 354.5 439.0Q322 375 292 316Q324 253 383.0 142.0Q442 31 527 -107ZM1095 -94Q1106 -38 1107 9Q1005 5 930.0 -0.5Q855 -6 798.5 -12.5Q742 -19 697.5 -27.5Q653 -36 613.0 -46.0Q573 -56 530 -68Q542 -9 542 42Q542 62 540.5 82.0Q539 102 535 122Q534 122 533.0 121.5Q532 121 530 121L533 135L530 149L535 147Q539 170 541.0 191.0Q543 212 543 232Q543 269 537 303Q531 301 530 301L533 320L530 336L536 334Q542 375 542 411Q542 433 540.0 453.5Q538 474 534 495Q533 495 532.0 494.5Q531 494 530 494L532 506L530 517Q531 516 534 516Q538 540 540.0 562.5Q542 585 542 607Q542 659 530 710Q582 696 623.0 684.5Q664 673 706.5 663.5Q749 654 802.0 646.0Q855 638 928.5 630.5Q1002 623 1108 615Q1108 675 1095 728Q1111 724 1153.5 711.0Q1196 698 1259.0 682.0Q1322 666 1399.5 651.0Q1477 636 1564.5 626.0Q1652 616 1743 616V590Q1647 590 1555.5 582.0Q1464 574 1383.5 562.0Q1303 550 1239.5 537.0Q1176 524 1137 514Q1176 503 1239.0 486.5Q1302 470 1383.0 453.5Q1464 437 1555.5 426.0Q1647 415 1743 415V389Q1651 389 1563.0 381.5Q1475 374 1396.5 363.0Q1318 352 1255.0 339.5Q1192 327 1150 316Q1192 304 1255.0 288.0Q1318 272 1396.5 256.5Q1475 241 1563.0 231.0Q1651 221 1743 221V195Q1647 195 1555.5 187.0Q1464 179 1383.5 167.0Q1303 155 1239.5 142.0Q1176 129 1137 119Q1176 108 1239.0 91.5Q1302 75 1383.0 58.5Q1464 42 1555.5 31.0Q1647 20 1743 20V-6Q1629 -6 1522.0 -17.0Q1415 -28 1325.5 -43.0Q1236 -58 1175.5 -72.5Q1115 -87 1095 -94ZM1108 422Q1108 443 1106.0 463.5Q1104 484 1100 503Q1099 503 1097.5 502.5Q1096 502 1095 502L1097 515L1095 527Q1096 526 1099 526Q1101 537 1102.5 548.5Q1104 560 1105 571Q991 566 910.0 559.5Q829 553 770.0 545.0Q711 537 664.5 527.0Q618 517 572 505Q614 493 651.5 483.5Q689 474 729.0 465.5Q769 457 820.5 450.0Q872 443 941.5 436.0Q1011 429 1108 422ZM1107 241Q1107 257 1105.0 272.0Q1103 287 1101 303Q1097 301 1095 301L1098 318L1095 333Q1096 332 1097.5 332.0Q1099 332 1100 331Q1104 355 1106 378Q998 374 920.5 368.0Q843 362 785.5 354.5Q728 347 682.5 338.0Q637 329 594 318Q642 305 686.0 294.0Q730 283 784.5 274.5Q839 266 916.0 258.0Q993 250 1107 241ZM1107 53Q1106 67 1104.0 81.0Q1102 95 1100 108Q1099 108 1097.5 107.5Q1096 107 1095 107L1097 120L1095 132Q1096 131 1099 131Q1102 148 1104.0 164.5Q1106 181 1107 197Q995 192 915.5 186.0Q836 180 777.5 172.5Q719 165 672.5 155.5Q626 146 581 134Q622 123 658.0 113.5Q694 104 734.0 96.0Q774 88 825.0 81.0Q876 74 944.5 67.0Q1013 60 1107 53Z" />
  </g>
</svg>