<svg xmlns="http://www.w3.org/2000/svg" viewBox="100 -112 426 848">
  <g transform="translate(0, 624) scale(1, -1)">
    <path fill="black" d="M195 -112Q195 93 181.0 253.0Q167 413 145.0 533.0Q123 653 100 736Q151 724 204 724Q230 724 256.5 727.0Q283 730 310 735V736Q311 736 311.5 735.5Q312 735 313 735Q314 735 314.5 735.5Q315 736 316 736Q316 735 315.5 735.0Q315 735 315 734Q339 729 364.0 726.5Q389 724 414 724Q469 724 526 736Q503 653 481.0 533.5Q459 414 445.0 254.0Q431 94 431 -112H405Q405 89 391.5 246.5Q378 404 357.0 522.5Q336 641 313 725Q291 642 269.5 523.0Q248 404 234.5 246.5Q221 89 221 -112Z" />
  </g>
</svg>