<svg xmlns="http://www.w3.org/2000/svg" viewBox="100 -189 1191 948">
  <g transform="translate(0, 570) scale(1, -1)">
    <path fill="black" d="M473 -189Q414 -136 371.5 -94.0Q329 -52 294.5 -18.5Q260 15 225 40Q247 59 281.5 87.0Q316 115 357.0 151.5Q398 188 438 230Q324 218 237.5 204.5Q151 191 100 177Q112 234 112 288Q112 342 100 393Q150 378 236.5 364.0Q323 350 436 339Q366 404 320.5 450.5Q275 497 229 531Q254 553 295.5 586.5Q337 620 385.0 664.0Q433 708 477 759L501 746Q461 675 432.0 625.0Q403 575 377 531Q402 490 428.0 443.5Q454 397 491 333L602 324Q551 371 513.0 409.0Q475 447 443.5 477.0Q412 507 379 531Q404 553 445.5 586.5Q487 620 535.0 664.0Q583 708 627 759L651 746Q611 675 582.0 625.0Q553 575 527 531Q553 488 580.5 439.0Q608 390 648 321Q786 311 943.5 306.0Q1101 301 1268 301V269Q1099 269 940.5 263.0Q782 257 643 247Q604 180 576.5 131.5Q549 83 523 40Q549 -4 578.0 -54.0Q607 -104 647 -175L623 -189Q564 -136 521.5 -94.0Q479 -52 444.5 -18.5Q410 15 375 40Q398 60 435.5 90.0Q473 120 516.5 159.5Q560 199 602 244Q571 242 542.0 239.5Q513 237 485 234Q450 172 423.5 126.5Q397 81 373 40Q399 -4 428.0 -54.0Q457 -104 497 -175ZM1267 302Q1208 355 1165.5 397.0Q1123 439 1088.5 472.5Q1054 506 1019 531Q1044 553 1085.5 586.5Q1127 620 1175.0 664.0Q1223 708 1267 759L1291 746Q1251 675 1222.0 625.0Q1193 575 1167 531Q1193 487 1222.0 437.0Q1251 387 1291 316ZM1267 -189Q1208 -136 1165.5 -94.0Q1123 -52 1088.5 -18.5Q1054 15 1019 40Q1044 62 1085.5 95.5Q1127 129 1175.0 173.0Q1223 217 1267 268L1291 255Q1251 184 1222.0 134.0Q1193 84 1167 40Q1193 -4 1222.0 -54.0Q1251 -104 1291 -175Z" />
  </g>
</svg>