<svg xmlns="http://www.w3.org/2000/svg" viewBox="100 -487 2126 1295">
  <g transform="translate(0, 321) scale(1, -1)">
    <path fill="black" d="M2050 266Q2013 300 1989.0 322.5Q1965 345 1946.5 361.0Q1928 377 1909 391L1904 387Q1865 423 1840.0 446.0Q1815 469 1796.0 485.0Q1777 501 1756 516L1752 513Q1717 545 1693.0 567.0Q1669 589 1651.0 605.0Q1633 621 1616.0 634.0Q1599 647 1576 662Q1596 679 1618.5 696.0Q1641 713 1673.0 739.0Q1705 765 1752 808L1771 798Q1745 759 1728.5 726.5Q1712 694 1692 662Q1708 638 1721.0 611.5Q1734 585 1752 556Q1778 576 1812.5 603.0Q1847 630 1904 682L1923 672Q1897 633 1880.5 600.5Q1864 568 1844 536Q1858 513 1871.0 488.0Q1884 463 1900 436Q1925 456 1959.5 483.0Q1994 510 2050 561L2069 551Q2043 512 2026.5 479.5Q2010 447 1990 415Q2010 385 2026.5 351.0Q2043 317 2069 281ZM1625 -266Q1616 -246 1603.0 -224.0Q1590 -202 1574 -181Q1488 -145 1406.0 -118.5Q1324 -92 1255.0 -74.0Q1186 -56 1137.5 -47.0Q1089 -38 1071 -38L1084 -18Q1008 -19 903.0 -23.0Q798 -27 685 -34L681 -106H655Q654 -88 653.5 -70.0Q653 -52 653 -36Q565 -42 479.5 -48.5Q394 -55 319.0 -63.0Q244 -71 187.0 -80.0Q130 -89 100 -98Q106 -68 109.5 -39.5Q113 -11 113 15Q113 41 109.5 67.0Q106 93 100 118Q121 111 157 103Q156 136 154.0 182.5Q152 229 149.0 280.5Q146 332 141.0 380.5Q136 429 129.0 467.5Q122 506 114 526Q141 520 163 520Q187 520 220 526Q213 510 207.5 471.0Q202 432 197.5 381.5Q193 331 189.5 277.5Q186 224 183.5 177.0Q181 130 179 99Q235 88 310.5 77.5Q386 67 473.0 57.5Q560 48 650 40Q645 177 638.5 279.5Q632 382 623.5 459.5Q615 537 603 599Q501 594 426.0 582.5Q351 571 290.0 555.5Q229 540 170 522Q176 552 179.5 580.5Q183 609 183 635Q183 661 179.5 687.0Q176 713 170 738Q228 719 287.5 699.0Q347 679 421.0 663.0Q495 647 595 639Q590 665 584.0 689.0Q578 713 572 736Q602 729 630.5 726.0Q659 723 685 723Q739 723 788 736Q772 679 760.0 626.5Q748 574 738.0 515.0Q728 456 719 379Q736 372 763.5 361.5Q791 351 834.0 340.5Q877 330 941.0 323.0Q1005 316 1096 316Q1091 327 1084.5 337.5Q1078 348 1071 358Q1089 358 1137.5 367.5Q1186 377 1255.0 395.0Q1324 413 1406.5 439.5Q1489 466 1575 502Q1590 522 1603.0 544.0Q1616 566 1625 585Q1633 573 1661.0 544.0Q1689 515 1730.5 475.5Q1772 436 1822.5 391.0Q1873 346 1926.0 301.5Q1979 257 2028 220Q2068 253 2114.0 295.0Q2160 337 2202 386L2226 373Q2186 302 2157.0 252.0Q2128 202 2102 158Q2128 114 2157.0 64.0Q2186 14 2226 -57L2202 -71Q2144 -18 2102.0 23.0Q2060 64 2025 97Q1976 60 1923.0 16.0Q1870 -28 1820.5 -73.0Q1771 -118 1729.5 -157.5Q1688 -197 1660.5 -225.5Q1633 -254 1625 -266ZM369 138Q371 146 372.0 154.5Q373 163 373 171Q373 179 372.0 188.0Q371 197 369 207Q351 203 339 198Q341 206 342.0 214.5Q343 223 343 231Q343 239 342.0 248.0Q341 257 339 267Q321 263 309 258Q311 266 312.0 274.5Q313 283 313 291Q313 299 312.0 308.0Q311 317 309 327Q291 323 279 318Q281 326 282.0 334.5Q283 343 283 351Q283 359 282.0 368.0Q281 377 279 387Q289 383 307.0 379.5Q325 376 347 373Q322 404 300.0 428.0Q278 452 267 459Q288 467 302.5 477.0Q317 487 328 499Q333 483 351.5 446.0Q370 409 392 368L427 365Q423 423 418.5 471.5Q414 520 408 533Q419 531 428.5 530.0Q438 529 447 529Q466 529 481 533Q475 517 470.0 468.5Q465 420 460 362Q474 361 487.5 360.5Q501 360 513 360V350L459 345L456 305Q479 303 501.5 302.0Q524 301 543 300V290Q524 288 501.0 286.0Q478 284 455 282L453 260L461 247Q490 244 519.5 242.5Q549 241 573 240V230Q546 227 514.0 224.5Q482 222 451 219L449 191Q487 187 528.5 184.5Q570 182 603 180V170Q565 167 518.5 163.0Q472 159 431.5 153.0Q391 147 369 138ZM1544 -133Q1568 -125 1615.5 -102.0Q1663 -79 1726.5 -45.0Q1790 -11 1861.0 31.0Q1932 73 2001 119Q1989 130 1977.5 139.5Q1966 149 1954 158Q1963 166 1976.0 176.0Q1989 186 2003 198Q1933 245 1861.5 287.5Q1790 330 1726.0 364.5Q1662 399 1613.5 422.0Q1565 445 1542 453Q1475 422 1408.0 385.0Q1341 348 1283.0 313.0Q1225 278 1185.0 251.0Q1145 224 1133 212Q1129 228 1123.5 247.0Q1118 266 1110 285Q1007 285 927.5 273.0Q848 261 795.5 246.0Q743 231 719 221Q722 239 724.5 261.5Q727 284 727 306Q727 343 719 378Q712 313 705.0 229.5Q698 146 690 37Q809 27 917.5 20.5Q1026 14 1101 14Q1112 38 1120.0 62.5Q1128 87 1133 108Q1145 96 1185.0 69.0Q1225 42 1283.5 7.0Q1342 -28 1409.5 -65.0Q1477 -102 1544 -133ZM426 307H430Q430 316 429.5 325.0Q429 334 428 343L407 340ZM396 310 375 337Q357 335 340.5 332.5Q324 330 310 327Q322 322 345.0 318.0Q368 314 396 310ZM1471 -9 1456 44Q1428 41 1407.5 38.0Q1387 35 1379 32Q1381 43 1382.0 52.5Q1383 62 1383 71Q1383 80 1382.0 88.5Q1381 97 1379 105Q1395 99 1444 94L1424 174Q1393 171 1370.0 168.0Q1347 165 1339 161Q1341 172 1342.0 181.5Q1343 191 1343 200Q1343 209 1342.0 217.5Q1341 226 1339 234Q1347 231 1366.5 227.5Q1386 224 1412 222Q1402 265 1392.5 297.0Q1383 329 1378 337Q1389 336 1400.0 334.5Q1411 333 1422 333Q1429 333 1435.5 333.5Q1442 334 1449 335Q1448 335 1448 337Q1450 336 1454 336Q1456 336 1458 337Q1458 336 1457.5 336.0Q1457 336 1457 335Q1466 334 1475.0 333.5Q1484 333 1493 333Q1500 333 1506.0 333.5Q1512 334 1519 335Q1518 335 1518 337Q1520 336 1524 336Q1526 336 1528 337Q1528 336 1527.5 336.0Q1527 336 1527 335Q1536 334 1545.0 333.5Q1554 333 1563 333Q1570 333 1576.0 333.5Q1582 334 1589 335Q1588 335 1588 337Q1590 336 1594 336Q1596 336 1598 337Q1598 336 1597.5 336.0Q1597 336 1597 335Q1605 334 1614.0 333.5Q1623 333 1631 333Q1651 333 1668 337Q1667 335 1667.0 330.0Q1667 325 1667 318Q1667 300 1668.5 269.5Q1670 239 1673 204L1734 200V190Q1727 189 1711.0 189.0Q1695 189 1674 188Q1676 160 1678.5 131.0Q1681 102 1683 76L1774 71V61L1684 57L1689 -9H1681Q1677 2 1672.5 19.0Q1668 36 1663 56Q1651 56 1639.5 55.5Q1628 55 1614 54L1619 -9H1611Q1603 12 1594 53L1545 50L1549 -9H1541Q1538 2 1534.0 16.5Q1530 31 1525 49L1475 46L1479 -9ZM1626 206Q1618 239 1610.5 267.5Q1603 296 1597 314Q1597 296 1598.5 268.0Q1600 240 1602 208ZM1555 211Q1548 243 1540.0 270.0Q1532 297 1527 314Q1527 297 1528.5 270.5Q1530 244 1532 212Q1538 212 1544.0 211.5Q1550 211 1555 211ZM1484 216Q1469 277 1457 314Q1457 298 1458.5 272.5Q1460 247 1462 218Q1467 217 1472.5 216.5Q1478 216 1484 216ZM433 249V262L420 279Q374 274 340 267Q353 262 377.5 257.5Q402 253 433 249ZM435 193Q435 198 435.0 204.0Q435 210 434 217Q416 215 400.0 212.5Q384 210 370 207Q380 203 396.5 199.5Q413 196 435 193ZM1658 78 1631 186Q1624 185 1618.0 185.0Q1612 185 1604 185Q1606 159 1608.5 132.0Q1611 105 1612 80ZM1587 82Q1581 106 1575.0 132.0Q1569 158 1562 183L1534 181L1542 85ZM1515 87Q1510 110 1504.5 133.0Q1499 156 1493 179Q1486 178 1479.0 177.5Q1472 177 1465 177L1471 91ZM1752 -487Q1705 -444 1673.0 -418.0Q1641 -392 1618.5 -375.0Q1596 -358 1576 -341Q1599 -326 1616.0 -313.0Q1633 -300 1651.0 -284.0Q1669 -268 1693.0 -246.0Q1717 -224 1752 -192L1756 -195Q1777 -180 1796.0 -164.0Q1815 -148 1840.0 -124.5Q1865 -101 1904 -66L1909 -70Q1928 -56 1946.5 -40.0Q1965 -24 1989.0 -1.0Q2013 22 2050 55L2069 40Q2043 4 2026.5 -30.0Q2010 -64 1990 -94Q2010 -126 2026.5 -158.5Q2043 -191 2069 -230L2050 -240Q1994 -189 1959.5 -162.0Q1925 -135 1900 -115Q1884 -142 1871.0 -167.0Q1858 -192 1844 -215Q1864 -247 1880.5 -279.5Q1897 -312 1923 -351L1904 -361Q1847 -309 1812.5 -282.0Q1778 -255 1752 -235Q1734 -263 1721.0 -290.0Q1708 -317 1692 -341Q1712 -373 1728.5 -405.5Q1745 -438 1771 -477Z" />
  </g>
</svg>