<svg xmlns="http://www.w3.org/2000/svg" viewBox="100 -65 1901 772">
  <g transform="translate(0, 642) scale(1, -1)">
    <path fill="black" d="M737 -65Q702 -14 658.5 30.5Q615 75 555 117Q561 119 567.0 122.0Q573 125 580 127Q543 160 503.5 194.0Q464 228 424 261Q366 186 320.0 118.0Q274 50 252 -1Q223 42 186.5 79.0Q150 116 100 151Q142 168 208.5 214.5Q275 261 350 321Q275 381 208.5 427.0Q142 473 100 491Q150 526 186.5 563.0Q223 600 252 643Q274 591 320.0 523.5Q366 456 424 380L580 514L555 525Q615 567 658.5 611.5Q702 656 737 707Q758 659 776.0 618.5Q794 578 815.5 539.0Q837 500 865.5 456.5Q894 413 935 358Q939 362 941 363Q940 382 937.0 399.5Q934 417 931 434L999 416L1003 419L1009 413Q1039 406 1072.5 399.0Q1106 392 1143 386Q1131 477 1118 517Q1144 511 1169 511Q1181 511 1193.0 512.5Q1205 514 1218 516V517Q1244 511 1269 511Q1281 511 1293.0 512.5Q1305 514 1318 516V517H1320Q1344 511 1369 511Q1381 511 1393.0 512.5Q1405 514 1418 516V517Q1442 511 1468 511Q1493 511 1520 517Q1513 496 1506.0 454.0Q1499 412 1494 348Q1520 347 1547.0 346.0Q1574 345 1602 344Q1572 357 1546.5 361.5Q1521 366 1500 367Q1540 396 1564.5 420.5Q1589 445 1617 484Q1619 456 1627.0 421.0Q1635 386 1661 342H1677Q1710 371 1757.0 413.5Q1804 456 1856.5 508.0Q1909 560 1957 616L1985 601Q1937 515 1903.0 448.0Q1869 381 1837 328Q1860 289 1901.5 227.5Q1943 166 2001 90L1975 69Q1876 156 1807.0 213.0Q1738 270 1679 314Q1651 314 1617.0 312.0Q1583 310 1549.5 308.5Q1516 307 1491 305Q1488 260 1485.5 207.5Q1483 155 1481 93H1469Q1465 155 1461.0 207.0Q1457 259 1453 302L1390 296Q1384 211 1381 93H1369Q1362 208 1354 292L1289 283Q1287 242 1285.0 194.5Q1283 147 1281 93H1269L1255 277L1188 265Q1186 227 1184.5 184.0Q1183 141 1181 93H1169Q1166 140 1162.5 181.5Q1159 223 1156 258Q1094 244 1039.5 228.5Q985 213 931 198Q935 216 938.0 236.0Q941 256 942 277L936 283Q896 229 867.0 185.5Q838 142 816.5 102.5Q795 63 776.0 23.0Q757 -17 737 -65ZM1609 489Q1558 523 1519.5 532.0Q1481 541 1450 544Q1490 572 1514.5 596.5Q1539 621 1567 661Q1570 630 1579.0 591.5Q1588 553 1622 503ZM1785 440Q1735 474 1696.5 483.0Q1658 492 1627 494Q1654 513 1673.0 529.5Q1692 546 1708.5 565.5Q1725 585 1744 611Q1747 580 1756.0 541.5Q1765 503 1799 453ZM1245 371Q1239 422 1232.5 457.0Q1226 492 1219 514Q1213 495 1207.5 461.0Q1202 427 1197 377ZM1346 359Q1340 415 1333.5 453.0Q1327 491 1319 514Q1306 474 1295 364ZM1447 351Q1440 411 1433.5 450.5Q1427 490 1419 514Q1406 472 1395 355Q1407 354 1420.5 353.0Q1434 352 1447 351ZM615 143Q677 172 742.0 212.5Q807 253 890 321Q806 390 741.5 430.5Q677 471 615 499Q580 456 543.0 410.5Q506 365 471 321Q506 276 543.0 231.5Q580 187 615 143Z" />
  </g>
</svg>