<svg xmlns="http://www.w3.org/2000/svg" viewBox="100 -65 1901 772">
  <g transform="translate(0, 642) scale(1, -1)">
    <path fill="black" d="M737 -65Q702 -14 658.5 30.5Q615 75 555 117Q561 119 567.0 122.0Q573 125 580 127Q543 160 503.5 194.0Q464 228 424 261Q366 186 320.0 118.0Q274 50 252 -1Q223 42 186.5 79.0Q150 116 100 151Q142 168 208.5 214.5Q275 261 350 321Q275 381 208.5 427.0Q142 473 100 491Q150 526 186.5 563.0Q223 600 252 643Q274 591 320.0 523.5Q366 456 424 380L580 514L555 525Q615 567 658.5 611.5Q702 656 737 707Q758 659 776.0 618.5Q794 578 815.5 539.0Q837 500 865.5 456.5Q894 413 935 358Q939 362 941 363Q940 382 937.0 399.5Q934 417 931 434L999 416L1003 419L1009 413Q1039 406 1072.5 399.0Q1106 392 1143 386Q1131 477 1118 517Q1144 511 1169 511Q1181 511 1193.0 512.5Q1205 514 1218 516V517Q1244 511 1269 511Q1281 511 1293.0 512.5Q1305 514 1318 516V517H1320Q1344 511 1369 511Q1381 511 1393.0 512.5Q1405 514 1418 516V517Q1442 511 1467 511Q1479 511 1491.0 512.5Q1503 514 1516 516Q1504 605 1491 645Q1515 639 1541 639Q1566 639 1593 645Q1586 625 1579.5 586.5Q1573 548 1568 490Q1574 491 1580.0 492.5Q1586 494 1593 495Q1584 470 1576.0 434.5Q1568 399 1562 345L1659 342Q1651 394 1640.5 430.5Q1630 467 1621 495Q1628 493 1635.0 492.0Q1642 491 1649 490Q1642 547 1635.5 584.5Q1629 622 1621 645Q1645 639 1671 639Q1696 639 1723 645Q1716 625 1709.5 586.5Q1703 548 1698 490Q1704 491 1710.0 492.5Q1716 494 1723 495Q1715 471 1707.0 438.5Q1699 406 1693 356Q1727 386 1771.5 427.0Q1816 468 1864.5 516.5Q1913 565 1957 616L1985 601Q1937 515 1903.0 448.0Q1869 381 1837 328Q1860 289 1901.5 227.5Q1943 166 2001 90L1975 69Q1880 153 1812.5 208.5Q1745 264 1688 307Q1687 288 1686.0 266.5Q1685 245 1684 221H1672Q1671 224 1671.0 227.5Q1671 231 1671 234Q1670 256 1667.5 276.0Q1665 296 1663 313Q1636 312 1610.0 311.5Q1584 311 1559 309Q1558 290 1556.5 268.0Q1555 246 1554 221H1542Q1541 224 1541.0 227.5Q1541 231 1541 234Q1540 254 1538.0 273.0Q1536 292 1534 308L1491 305Q1488 260 1485.5 207.5Q1483 155 1481 93H1469Q1465 155 1461.0 207.0Q1457 259 1453 302L1390 296Q1384 211 1381 93H1369Q1362 208 1354 292L1289 283Q1287 242 1285.0 194.5Q1283 147 1281 93H1269L1255 277L1188 265Q1186 227 1184.5 184.0Q1183 141 1181 93H1169Q1166 140 1162.5 181.5Q1159 223 1156 258Q1094 244 1039.5 228.5Q985 213 931 198Q935 216 938.0 236.0Q941 256 942 277L936 283Q896 229 867.0 185.5Q838 142 816.5 102.5Q795 63 776.0 23.0Q757 -17 737 -65ZM1447 351Q1440 411 1433.5 450.5Q1427 490 1419 514Q1406 472 1395 355Q1407 354 1420.5 353.0Q1434 352 1447 351ZM1346 359Q1340 415 1333.5 453.0Q1327 491 1319 514Q1306 474 1295 364ZM1245 371Q1239 422 1232.5 457.0Q1226 492 1219 514Q1213 495 1207.5 461.0Q1202 427 1197 377ZM1519 490Q1519 495 1518.0 499.5Q1517 504 1517 508Q1516 504 1515.0 500.0Q1514 496 1513 491Q1515 490 1519 490ZM615 143Q677 172 742.0 212.5Q807 253 890 321Q806 390 741.5 430.5Q677 471 615 499Q580 456 543.0 410.5Q506 365 471 321Q506 276 543.0 231.5Q580 187 615 143ZM1528 347Q1524 378 1517.5 403.0Q1511 428 1505 448Q1502 428 1499.5 403.0Q1497 378 1494 348Q1502 348 1511.0 347.5Q1520 347 1528 347Z" />
  </g>
</svg>