<svg xmlns="http://www.w3.org/2000/svg" viewBox="100 -241 1373 1168">
  <g transform="translate(0, 686) scale(1, -1)">
    <path fill="black" d="M669 151Q662 256 655.0 324.0Q648 392 641.0 435.5Q634 479 626 507Q607 474 592.0 441.5Q577 409 560 369Q535 407 503.5 438.5Q472 470 428 501L447 509L334 605Q292 550 259.0 501.0Q226 452 210 415Q189 447 162.5 473.5Q136 500 100 525Q131 538 178.5 571.5Q226 605 281 648Q226 692 178.5 725.0Q131 758 100 771Q136 796 162.5 823.0Q189 850 210 881Q226 844 259.0 794.5Q292 745 333 691Q362 715 390.5 739.5Q419 764 445 787L428 795Q472 826 503.5 858.0Q535 890 560 927Q580 881 597.0 843.5Q614 806 638.5 767.0Q663 728 702 675L708 680Q707 693 705.0 705.5Q703 718 701 730Q712 726 724.5 723.0Q737 720 750 717L752 719L756 715Q778 710 802.0 705.0Q826 700 853 695Q849 729 845.0 752.0Q841 775 836 790Q854 785 871 785Q887 785 909 790V789Q917 788 925.5 786.5Q934 785 942 785Q951 785 961.0 786.5Q971 788 981 790V789Q996 785 1015 785Q1035 785 1052 789V790L1053 789L1054 790V789Q1062 788 1070.5 786.5Q1079 785 1087 785Q1096 785 1106.0 786.5Q1116 788 1126 790Q1121 775 1116.0 744.5Q1111 714 1107 668Q1137 667 1170.0 665.5Q1203 664 1239 664Q1263 684 1296.5 714.5Q1330 745 1368.0 783.0Q1406 821 1441 862L1461 851Q1427 788 1402.0 740.0Q1377 692 1354 654Q1371 625 1401.0 581.0Q1431 537 1473 482L1454 466Q1383 529 1333.5 570.5Q1284 612 1241 644Q1203 643 1169.0 641.0Q1135 639 1104 637Q1100 573 1098 484H1089Q1083 572 1077 635Q1065 634 1054.0 633.0Q1043 632 1032 631Q1028 568 1026 484H1017Q1011 570 1005 627L959 621Q954 561 953 484H945L934 617Q921 615 909.0 612.0Q897 609 886 607Q885 580 883.5 549.5Q882 519 881 484H872L863 602Q818 592 779.0 581.0Q740 570 701 559Q704 573 705.5 587.0Q707 601 708 617Q707 618 706.0 619.0Q705 620 704 621Q685 595 669.0 572.5Q653 550 640 530Q677 526 720 535Q712 510 704.0 464.5Q696 419 690.5 343.5Q685 268 681 151ZM1000 676Q996 717 990.5 744.5Q985 772 980 788Q976 774 971.5 747.0Q967 720 963 680Q972 679 981.0 678.0Q990 677 1000 676ZM927 684Q918 758 908 788Q904 775 899.5 750.0Q895 725 892 689Q900 688 909.0 686.5Q918 685 927 684ZM1073 670Q1069 712 1063.5 740.5Q1058 769 1053 787Q1043 756 1035 673ZM472 519Q517 540 564.0 569.5Q611 599 671 648Q610 698 563.5 727.0Q517 756 472 776Q446 745 419.5 712.5Q393 680 367 648Q393 616 419.5 583.5Q446 551 472 519ZM1191 149 1183 157Q1161 180 1134.5 207.0Q1108 234 1080.5 260.0Q1053 286 1029.0 306.5Q1005 327 988 336Q957 323 936.0 308.0Q915 293 899 279Q903 304 905.0 324.0Q907 344 907 363Q907 382 905.0 401.5Q903 421 899 444Q921 426 951.5 407.0Q982 388 1034 377Q1058 409 1080.5 442.5Q1103 476 1119.5 505.5Q1136 535 1142 554Q1166 526 1195 506Q1224 525 1246 554Q1252 538 1268.5 513.0Q1285 488 1306.5 458.0Q1328 428 1351.0 398.0Q1374 368 1393 342L1389 339L1395 336Q1373 324 1338.0 293.0Q1303 262 1266.0 225.5Q1229 189 1199 158L1200 157ZM799 151Q796 205 790.0 241.0Q784 277 777.0 301.5Q770 326 762.5 345.0Q755 364 748 385Q763 381 779 379Q772 439 764.0 474.5Q756 510 748 535Q772 529 798 529Q823 529 850 535Q843 513 836.0 476.5Q829 440 823 380Q830 381 836.5 382.5Q843 384 850 385Q844 366 837.5 348.5Q831 331 826.0 307.0Q821 283 817.0 245.5Q813 208 811 151ZM1191 169Q1208 193 1228.0 222.5Q1248 252 1267 280Q1246 278 1223.0 276.0Q1200 274 1182.5 272.0Q1165 270 1161 267Q1163 277 1164.0 286.5Q1165 296 1161 306Q1165 304 1184.5 301.5Q1204 299 1229.0 296.5Q1254 294 1275 292L1299 331Q1273 329 1242.5 326.5Q1212 324 1188.5 321.5Q1165 319 1161 317Q1163 328 1164.0 336.5Q1165 345 1161 354Q1165 352 1190.0 349.5Q1215 347 1247.5 345.0Q1280 343 1305 341Q1312 353 1317.0 364.0Q1322 375 1325 382Q1308 381 1282.0 379.0Q1256 377 1229.5 374.5Q1203 372 1184.0 370.0Q1165 368 1161 365Q1163 376 1164.0 385.0Q1165 394 1161 403Q1165 401 1185.0 399.0Q1205 397 1232.5 395.0Q1260 393 1286.5 391.5Q1313 390 1329 388L1283 430Q1263 428 1236.0 425.5Q1209 423 1187.5 420.5Q1166 418 1161 416Q1163 426 1164.0 434.5Q1165 443 1161 453Q1165 451 1184.0 448.5Q1203 446 1227.5 444.0Q1252 442 1273 439Q1251 458 1231.0 473.5Q1211 489 1195 499Q1167 481 1131.0 449.0Q1095 417 1058 381Q1068 359 1090.5 322.0Q1113 285 1140.5 244.0Q1168 203 1191 169ZM1369 352Q1361 360 1352.0 367.5Q1343 375 1335 383H1332Q1340 373 1349.5 365.5Q1359 358 1369 352ZM560 -241Q535 -203 503.5 -171.5Q472 -140 428 -109Q433 -107 437.5 -104.5Q442 -102 447 -101Q420 -77 391.5 -53.0Q363 -29 334 -5Q292 -59 259.0 -108.0Q226 -157 210 -195Q189 -163 162.5 -136.5Q136 -110 100 -85Q131 -71 178.5 -38.0Q226 -5 281 38Q226 82 178.5 115.0Q131 148 100 161Q136 186 162.5 213.0Q189 240 210 271Q226 234 259.0 184.5Q292 135 333 81Q362 105 390.5 129.5Q419 154 445 177L428 185Q472 216 503.5 248.0Q535 280 560 317Q580 271 597.0 233.5Q614 196 638.5 157.0Q663 118 702 65L708 70Q707 83 705.0 95.5Q703 108 701 120Q712 116 724.5 113.0Q737 110 750 107L752 109L756 105Q778 100 802.0 95.0Q826 90 853 85Q849 119 845.0 142.0Q841 165 836 180Q844 178 852.5 176.5Q861 175 870 175Q886 175 908 180Q926 175 943 175Q959 175 981 180V179Q996 175 1015 175Q1035 175 1052 179V180L1053 179L1054 180V179Q1062 178 1070.5 176.5Q1079 175 1087 175Q1096 175 1106.0 176.5Q1116 178 1126 180Q1121 165 1116.0 134.5Q1111 104 1107 58Q1137 57 1170.0 55.5Q1203 54 1239 54Q1263 74 1296.5 105.0Q1330 136 1368.0 173.5Q1406 211 1441 252L1461 241Q1427 178 1402.0 130.0Q1377 82 1354 44Q1371 15 1401.0 -29.0Q1431 -73 1473 -128L1454 -144Q1383 -81 1333.5 -39.5Q1284 2 1241 34Q1203 33 1169.0 31.0Q1135 29 1104 27Q1100 -36 1098 -126H1089Q1086 -80 1083.0 -43.0Q1080 -6 1077 25Q1065 24 1054.0 23.0Q1043 22 1032 21Q1027 -42 1026 -126H1017Q1014 -83 1011.0 -47.5Q1008 -12 1005 17L959 11Q955 -47 953 -126H945L934 7Q921 5 909.0 2.5Q897 0 886 -2Q885 -30 883.5 -60.5Q882 -91 881 -126H872L863 -7Q818 -17 779.0 -28.5Q740 -40 701 -51Q704 -37 705.5 -22.5Q707 -8 708 7Q707 8 706.0 9.0Q705 10 704 11Q665 -41 640.5 -80.5Q616 -120 598.0 -157.0Q580 -194 560 -241ZM927 74Q918 148 908 178Q904 165 899.5 140.0Q895 115 892 79Q900 78 909.0 76.5Q918 75 927 74ZM1000 66Q996 107 990.5 134.5Q985 162 980 178Q976 164 971.5 137.0Q967 110 963 70Q972 69 981.0 68.0Q990 67 1000 66ZM1073 60Q1069 102 1063.5 130.5Q1058 159 1053 177Q1043 146 1035 63ZM472 -90Q517 -70 564.0 -40.5Q611 -11 671 38Q610 88 563.5 117.0Q517 146 472 166Q446 135 419.5 102.5Q393 70 367 38Q393 6 419.5 -26.0Q446 -58 472 -90Z" />
  </g>
</svg>