<svg xmlns="http://www.w3.org/2000/svg" viewBox="100 -307 1296 1302">
  <g transform="translate(0, 688) scale(1, -1)">
    <path fill="black" d="M1143 -307 1119 -304Q1113 -208 1106.5 -143.5Q1100 -79 1092 -26L1018 46Q993 24 963.5 -2.5Q934 -29 901 -61L894 -55Q956 15 997 66Q989 74 981.0 81.0Q973 88 965 95Q940 73 911.5 47.5Q883 22 850 -10L844 -4Q874 31 899.0 60.0Q924 89 943 114L910 143Q886 122 858.0 96.5Q830 71 798 41L793 47Q822 81 846.0 109.0Q870 137 889 161Q880 169 871.0 176.0Q862 183 854 190Q808 150 747 92L741 99Q769 131 791.5 157.5Q814 184 833 206Q810 225 788.0 241.0Q766 257 746 271Q724 237 707.0 207.0Q690 177 675 150Q668 162 658.5 174.0Q649 186 638 198H633Q642 133 652.0 88.0Q662 43 676.0 3.5Q690 -36 709 -83Q664 -74 619 -74Q597 -74 573.0 -76.5Q549 -79 523 -84Q525 -79 527.0 -74.0Q529 -69 531 -65Q495 -67 457.0 -69.5Q419 -72 381 -76Q390 -143 402.0 -201.5Q414 -260 429 -298Q410 -294 391.0 -292.5Q372 -291 352 -291Q333 -291 313.5 -292.5Q294 -294 274 -299Q286 -267 296.5 -209.5Q307 -152 314 -83Q245 -90 187.5 -100.5Q130 -111 100 -125Q104 -103 105.5 -83.0Q107 -63 107 -44Q107 -4 100 32Q138 16 196.0 5.0Q254 -6 321 -15Q325 22 328.0 59.0Q331 96 332 131L315 124Q320 148 321.5 171.0Q323 194 323 215Q323 241 321.0 264.5Q319 288 315 312Q362 293 400.5 279.0Q439 265 484.0 254.5Q529 244 594 235V241Q584 249 574.0 256.5Q564 264 554 271Q564 277 575.0 283.5Q586 290 598 298V301H603L651 334Q623 351 599.0 365.0Q575 379 552 392Q563 400 575.0 409.0Q587 418 599 428V434Q534 425 489.0 415.0Q444 405 405.0 391.5Q366 378 319 358Q328 405 328 449Q328 495 318 544Q323 542 327.5 540.0Q332 538 337 536Q335 572 332.0 609.5Q329 647 326 685Q258 676 199.5 664.5Q141 653 103 638Q107 658 109.0 677.0Q111 696 111 716Q111 735 109.5 754.0Q108 773 103 793Q135 780 192.0 770.0Q249 760 319 752Q311 821 301.0 878.5Q291 936 277 967Q299 963 319.0 961.0Q339 959 358 959Q377 959 395.5 961.0Q414 963 433 967Q418 930 406.5 871.5Q395 813 386 745Q424 742 461.0 739.0Q498 736 533 734L526 752Q576 743 618 743Q643 743 666.5 745.5Q690 748 713 752Q694 706 680.0 667.0Q666 628 655.5 583.0Q645 538 636 473Q638 473 639.5 472.5Q641 472 642 472Q661 494 673 513Q678 503 685.0 492.0Q692 481 699 469H703V463Q712 450 722.0 435.5Q732 421 744 404L819 466Q758 514 728 529Q742 539 755.0 552.0Q768 565 778 582V580Q808 599 830 632L828 633Q858 649 881 683L879 684Q896 693 909.0 705.5Q922 718 933 734Q945 707 1005 634L1081 706Q1083 734 1085.0 773.5Q1087 813 1087 858Q1087 890 1085.5 922.5Q1084 955 1082 988L1104 995Q1124 925 1141.0 873.5Q1158 822 1168 779Q1201 771 1253.5 761.0Q1306 751 1374 742L1371 718Q1276 711 1212.0 705.0Q1148 699 1094 691L1021 616Q1063 567 1128 500L1122 493Q1086 524 1056.0 549.5Q1026 575 1001 595L972 563Q993 539 1019.5 510.0Q1046 481 1077 449L1070 442Q1036 472 1006.5 497.0Q977 522 953 542L924 508Q945 484 970.5 456.0Q996 428 1026 396L1020 392Q986 421 958.0 445.0Q930 469 906 488L877 452Q897 430 922.0 403.0Q947 376 975 346L968 340Q937 367 910.5 390.0Q884 413 861 432Q842 407 824.5 384.0Q807 361 792 340Q809 319 827.5 296.0Q846 273 867 248Q893 280 908.0 302.0Q923 324 931 340Q951 309 984 289L982 288Q992 273 1004.5 260.5Q1017 248 1033 237Q1033 238 1034 239Q1052 208 1084 186Q1084 187 1085 188Q1102 157 1136 135Q1108 122 1035 61Q1052 43 1069.5 24.5Q1087 6 1106 -13Q1137 -15 1181.5 -17.0Q1226 -19 1276 -19Q1332 -19 1389 -16L1396 -37Q1327 -57 1275.0 -73.5Q1223 -90 1180 -101Q1172 -134 1162.0 -186.0Q1152 -238 1143 -307ZM595 476Q588 556 575.0 609.5Q562 663 544 709Q504 705 462.5 700.5Q421 696 380 691Q375 650 371.0 608.5Q367 567 362 526Q409 509 463.0 496.5Q517 484 595 476ZM953 585 981 611Q947 638 923.5 655.0Q900 672 883 682Q891 668 908.0 643.5Q925 619 953 585ZM899 537 928 562Q894 589 871.0 605.0Q848 621 831 631Q837 618 854.0 594.5Q871 571 899 537ZM845 489 874 514Q841 540 818.0 556.0Q795 572 779 579Q786 565 803.0 542.5Q820 520 845 489ZM915 193Q941 226 957.0 249.0Q973 272 981 287Q954 274 890 221Q896 214 902.5 207.5Q909 201 915 193ZM963 139Q990 173 1006.5 196.5Q1023 220 1032 236Q1019 230 995.0 212.5Q971 195 938 167Q945 160 951.0 153.0Q957 146 963 139ZM541 -39Q558 8 570.5 62.0Q583 116 590 194Q511 186 457.5 173.0Q404 160 357 141Q361 101 365.5 60.0Q370 19 374 -22Q415 -26 457.5 -30.5Q500 -35 541 -39ZM1013 85Q1041 120 1058.0 144.5Q1075 169 1083 185Q1069 178 1045.0 160.5Q1021 143 986 114Z" />
  </g>
</svg>