<svg xmlns="http://www.w3.org/2000/svg" viewBox="100 -183 1155 931">
  <g transform="translate(0, 565) scale(1, -1)">
    <path fill="black" d="M704 -183 698 -106 696 -113 669 -105 674 -90Q652 -19 618.5 70.0Q585 159 547 250Q486 245 427.5 239.5Q369 234 316 227Q308 133 303.0 45.5Q298 -42 298 -110H268Q268 -42 264.0 43.0Q260 128 252 219Q205 212 166.0 205.5Q127 199 100 191Q112 242 112 296Q112 350 100 407Q123 401 157.5 394.5Q192 388 236 382Q224 485 208.5 577.5Q193 670 175 736Q226 724 280 724Q334 724 391 736L379 689Q463 704 540 748Q542 705 549.5 641.0Q557 577 570.0 501.5Q583 426 599 346Q652 342 706.0 338.0Q760 334 812 330Q823 375 830.5 414.0Q838 453 839 482Q871 464 894.5 455.0Q918 446 954 440Q938 419 920.5 390.0Q903 361 885 326L1053 318Q1040 438 1023.0 549.0Q1006 660 985 736Q1036 724 1090 724Q1144 724 1201 736Q1189 692 1177.0 626.0Q1165 560 1154.0 480.0Q1143 400 1134 315Q1157 314 1179.0 314.0Q1201 314 1218 314V284Q1200 284 1178.0 284.0Q1156 284 1131 283Q1130 279 1129.5 270.5Q1129 262 1127 244Q1153 204 1188.0 157.5Q1223 111 1253 72L1249 69L1255 66Q1230 52 1189.5 15.5Q1149 -21 1109 -61Q1108 -73 1108.0 -86.0Q1108 -99 1108 -110H1078V-92L1059 -112L1060 -113L1051 -121L1043 -113V-112Q1019 -86 988.5 -55.5Q958 -25 927.5 3.0Q897 31 872 49Q863 13 856.0 -41.5Q849 -96 846 -183H834Q833 -179 833.0 -176.0Q833 -173 833 -169Q826 -68 811.5 -9.0Q797 50 783 91Q790 89 797.0 88.0Q804 87 811 86Q809 104 807.0 120.5Q805 137 803 151Q782 104 761.5 54.0Q741 4 721 -46Q720 -77 718.5 -111.0Q717 -145 716 -183ZM503 354Q469 431 434.0 501.5Q399 572 367 628Q347 515 330 371Q371 367 414.0 362.5Q457 358 503 354ZM1055 236 1060 239Q1059 253 1058.5 261.0Q1058 269 1057 280Q1044 280 1032.0 279.5Q1020 279 1006 278Q1017 266 1028.0 256.5Q1039 247 1055 236ZM860 86 881 90Q905 122 929.5 157.0Q954 192 973.0 224.5Q992 257 1000 278Q966 277 930.5 275.0Q895 273 857 271L840 235Q861 235 885 241Q878 221 871.5 182.5Q865 144 860 86ZM692 -43 693 -39Q684 74 674.0 140.5Q664 207 653 241Q677 235 703 235Q728 235 755 241Q740 198 728 60Q744 105 758.5 149.0Q773 193 785 234L783 241L787 240Q789 247 791.5 254.0Q794 261 795 268L618 256Q635 174 654.0 97.0Q673 20 692 -43ZM1051 -101 1077 -64Q1077 -14 1074 41Q1046 38 1025.0 35.5Q1004 33 1001 31Q1003 42 1004.0 56.5Q1005 71 1001 80Q1004 79 1024.5 76.0Q1045 73 1072 70Q1072 80 1071.5 90.0Q1071 100 1070 110Q1044 107 1024.0 104.0Q1004 101 1001 99Q1003 110 1004.0 125.0Q1005 140 1001 149Q1004 147 1023.5 144.5Q1043 142 1068 139L1061 225L1055 229Q1032 214 1013.0 198.5Q994 183 972.0 162.5Q950 142 918 111Q928 89 950.5 52.0Q973 15 1000.5 -26.0Q1028 -67 1051 -101ZM1177 129Q1163 143 1149.0 155.0Q1135 167 1122 178Q1121 168 1120.0 157.0Q1119 146 1118 134Q1148 132 1177 129ZM1160 62Q1182 100 1188 119Q1202 99 1225 85L1185 122Q1168 121 1151.0 119.0Q1134 117 1117 115L1114 66Q1126 65 1138.0 64.5Q1150 64 1160 62ZM1110 -16Q1121 1 1132.0 17.5Q1143 34 1152 49Q1143 48 1133.5 47.5Q1124 47 1113 45Z" />
  </g>
</svg>