<svg xmlns="http://www.w3.org/2000/svg" viewBox="100 -121 1118 869">
  <g transform="translate(0, 627) scale(1, -1)">
    <path fill="black" d="M961 -121 953 -113V-112Q926 -82 890.5 -47.5Q855 -13 821.5 17.0Q788 47 765 62Q747 19 730.0 -25.0Q713 -69 696 -113L669 -105L674 -90Q652 -19 618.5 70.0Q585 159 547 250Q486 245 427.5 239.5Q369 234 316 227Q308 133 303.0 45.5Q298 -42 298 -110H268Q268 -42 264.0 43.0Q260 128 252 219Q205 212 166.0 205.5Q127 199 100 191Q112 242 112 296Q112 350 100 407Q123 401 157.5 394.5Q192 388 236 382Q224 485 208.5 577.5Q193 670 175 736Q226 724 280 724Q334 724 391 736L379 689Q463 704 540 748Q542 705 549.5 641.0Q557 577 570.0 501.5Q583 426 599 346Q652 342 706.0 338.0Q760 334 812 330Q823 375 830.5 414.0Q838 453 839 482Q871 464 894.5 455.0Q918 446 954 440Q938 419 920.5 390.0Q903 361 885 326L1053 318Q1040 438 1023.0 549.0Q1006 660 985 736Q1036 724 1090 724Q1144 724 1201 736Q1189 692 1177.0 626.0Q1165 560 1154.0 480.0Q1143 400 1134 315Q1157 314 1179.0 314.0Q1201 314 1218 314V284Q1200 284 1178.0 284.0Q1156 284 1131 283Q1127 245 1123.5 206.5Q1120 168 1118 131Q1129 115 1141.0 100.5Q1153 86 1163 72L1159 69L1165 66Q1155 60 1141.5 50.0Q1128 40 1112 26Q1110 -11 1109.0 -45.5Q1108 -80 1108 -110H1078Q1078 -86 1077.5 -59.5Q1077 -33 1076 -5Q1048 -31 1020.0 -59.5Q992 -88 969 -112L970 -113ZM503 354Q469 431 434.0 501.5Q399 572 367 628Q347 515 330 371Q371 367 414.0 362.5Q457 358 503 354ZM1063 206 1057 280Q1047 280 1037.5 279.5Q1028 279 1018 279Q1024 266 1036.0 247.0Q1048 228 1063 206ZM965 236Q979 245 990.5 255.5Q1002 266 1012 279L920 275Q931 263 942.0 253.5Q953 244 965 236ZM770 74Q775 77 780.0 80.5Q785 84 789 88Q813 119 837.0 153.5Q861 188 880.0 220.0Q899 252 908 274L857 271Q815 182 770 74ZM692 -43Q721 37 748.0 116.5Q775 196 795 268L618 256Q635 174 654.0 97.0Q673 20 692 -43ZM961 -101Q984 -68 1012.0 -27.5Q1040 13 1062 49Q1035 46 1003.5 42.5Q972 39 948.5 36.0Q925 33 921 31Q923 42 924.0 56.5Q925 71 921 80Q925 78 950.5 75.0Q976 72 1009.5 68.5Q1043 65 1070 62Q1071 64 1071.0 65.0Q1071 66 1072 67L1070 119Q1043 116 1009.5 112.5Q976 109 950.5 105.5Q925 102 921 99Q923 110 924.0 125.0Q925 140 921 149Q925 147 950.0 143.5Q975 140 1008.5 137.0Q1042 134 1069 131Q1068 135 1068.0 139.0Q1068 143 1068 147Q1039 173 1012.0 194.5Q985 216 965 229Q937 211 901.0 179.0Q865 147 828 111Q838 89 860.5 52.0Q883 15 910.5 -26.0Q938 -67 961 -101ZM1139 82 1116 103V99Q1121 94 1127.0 90.0Q1133 86 1139 82Z" />
  </g>
</svg>