<svg xmlns="http://www.w3.org/2000/svg" viewBox="100 -97 1312 855">
  <g transform="translate(0, 661) scale(1, -1)">
    <path fill="black" d="M457 -97Q460 -37 448 20L447 19Q335 117 250.5 193.0Q166 269 100 318Q124 338 165.0 373.5Q206 409 256.0 454.5Q306 500 356.0 549.5Q406 599 447 646L449 644Q460 702 457 758Q497 743 558.5 728.0Q620 713 696.5 699.0Q773 685 856.5 672.0Q940 659 1023.0 648.0Q1106 637 1181.5 628.0Q1257 619 1317 613Q1331 625 1351.5 641.5Q1372 658 1401 683L1412 676Q1406 662 1397.5 644.0Q1389 626 1381.5 610.0Q1374 594 1371 586Q1374 579 1384.5 554.5Q1395 530 1404 510L1412 505L1409 499L1412 495L1404 489Q1395 469 1385.0 447.0Q1375 425 1371 415Q1374 408 1384.0 384.0Q1394 360 1404 340L1412 335L1409 329L1412 324L1404 317Q1394 297 1384.5 276.0Q1375 255 1371 245Q1374 238 1384.5 212.5Q1395 187 1405 167L1412 163Q1411 162 1411.0 160.5Q1411 159 1410 158Q1410 156 1412 154L1405 148Q1395 128 1385.0 105.5Q1375 83 1371 73Q1374 67 1381.5 49.5Q1389 32 1397.5 12.5Q1406 -7 1412 -18L1401 -27L1317 47Q1257 41 1181.5 32.0Q1106 23 1023.0 12.0Q940 1 856.5 -11.5Q773 -24 696.5 -38.0Q620 -52 558.5 -67.0Q497 -82 457 -97ZM621 35Q664 35 709.5 35.5Q755 36 803 38V170Q768 165 732.0 159.0Q696 153 668.0 147.0Q640 141 627 136Q629 147 630.5 159.0Q632 171 632 182Q632 192 630.5 201.5Q629 211 627 221Q639 216 667.5 209.5Q696 203 732.5 197.0Q769 191 803 186V267Q768 262 732.0 256.0Q696 250 668.0 244.5Q640 239 627 233Q629 244 630.5 255.0Q632 266 632 277Q632 287 630.5 297.5Q629 308 627 318Q639 313 667.5 306.5Q696 300 732.5 294.0Q769 288 803 283V363Q768 358 732.0 352.5Q696 347 668.0 341.0Q640 335 627 330Q629 341 630.5 352.5Q632 364 632 375Q632 385 630.5 394.5Q629 404 627 414Q639 409 667.5 403.0Q696 397 732.5 391.0Q769 385 803 380V460Q768 455 732.0 449.5Q696 444 668.0 438.0Q640 432 627 427Q629 438 630.5 449.5Q632 461 632 472Q632 482 630.5 492.5Q629 503 627 513Q639 508 667.5 501.5Q696 495 732.5 488.5Q769 482 803 477V623Q768 624 734.0 624.5Q700 625 668 625H621ZM584 36V625Q552 624 523.0 622.0Q494 620 468 617Q435 559 400.5 503.5Q366 448 335.5 401.0Q305 354 284 318Q299 291 327.5 246.0Q356 201 393.5 148.5Q431 96 470 44Q495 41 524.0 39.0Q553 37 584 36ZM840 374Q885 389 940.5 412.5Q996 436 1055.5 465.0Q1115 494 1173.5 525.0Q1232 556 1282 586Q1191 595 1074.5 605.0Q958 615 840 621ZM1298 86Q1314 98 1334.0 113.5Q1354 129 1387 157Q1361 181 1344.5 195.5Q1328 210 1314.5 221.5Q1301 233 1283 245Q1301 261 1323.0 277.5Q1345 294 1385 328Q1360 351 1343.5 365.5Q1327 380 1314.0 391.5Q1301 403 1283 415Q1301 431 1323.5 447.5Q1346 464 1386 499Q1352 529 1334.0 545.5Q1316 562 1296 577L1299 572Q1239 536 1171.5 496.5Q1104 457 1039.5 415.0Q975 373 923 329Q975 286 1039.5 244.0Q1104 202 1171.5 162.5Q1239 123 1299 87ZM533 89Q474 142 431.5 184.0Q389 226 354.5 259.5Q320 293 285 318Q310 340 351.5 373.5Q393 407 441.0 451.0Q489 495 533 546L557 533Q517 462 488.0 412.0Q459 362 433 318Q459 274 488.0 224.0Q517 174 557 103ZM840 325 842 329 840 334ZM840 40Q957 45 1072.5 55.0Q1188 65 1279 74Q1229 104 1171.5 135.0Q1114 166 1054.5 194.5Q995 223 940.0 246.5Q885 270 840 284Z" />
  </g>
</svg>