<svg xmlns="http://www.w3.org/2000/svg" viewBox="100 -112 687 850">
  <g transform="translate(0, 626) scale(1, -1)">
    <path fill="black" d="M666 -112Q666 -88 665.5 -64.0Q665 -40 665 -18Q561 -19 457.5 -30.0Q354 -41 262.0 -59.0Q170 -77 100 -98Q106 -68 109.5 -39.5Q113 -11 113 15Q113 41 109.5 67.0Q106 93 100 118Q113 114 127.5 109.0Q142 104 157 99Q156 131 154.0 178.0Q152 225 149.0 276.5Q146 328 141.0 378.0Q136 428 129.0 467.0Q122 506 114 526Q141 520 163 520Q187 520 220 526Q213 509 207.0 469.5Q201 430 196.5 378.0Q192 326 189.0 271.5Q186 217 183.5 169.5Q181 122 179 93Q247 73 327.0 55.5Q407 38 493.0 26.5Q579 15 664 14Q663 70 660.5 121.5Q658 173 654 221Q538 209 455.0 193.0Q372 177 304 150Q308 170 310.0 189.0Q312 208 312 228Q312 247 310.5 266.0Q309 285 304 305Q421 259 652 245Q646 322 637 390Q528 378 449.0 362.0Q370 346 304 320Q308 340 310.0 359.0Q312 378 312 398Q312 417 310.5 436.0Q309 455 304 475Q415 431 634 417Q627 467 619.0 513.0Q611 559 603 599Q501 594 426.0 582.5Q351 571 290.0 555.5Q229 540 170 522Q176 552 179.5 580.5Q183 609 183 635Q183 661 179.5 687.0Q176 713 170 738Q228 719 287.0 699.0Q346 679 420.0 663.0Q494 647 595 639Q589 666 583.0 690.0Q577 714 571 736Q622 724 676 724Q730 724 787 736Q764 653 742.0 533.5Q720 414 706.0 254.0Q692 94 692 -112Z" />
  </g>
</svg>