<svg xmlns="http://www.w3.org/2000/svg" viewBox="100 -162 1556 898">
  <g transform="translate(0, 574) scale(1, -1)">
    <path fill="black" d="M1535 -112Q1535 -56 1533.5 -3.0Q1532 50 1530 99L1426 87Q1422 57 1420.0 21.0Q1418 -15 1416 -60H1402Q1400 -18 1395.5 17.0Q1391 52 1386 82Q1358 78 1331.0 74.5Q1304 71 1278 66Q1277 37 1275.5 5.5Q1274 -26 1273 -60H1259L1250 61Q1181 48 1121.5 32.0Q1062 16 1011 -4Q1016 22 1018.5 51.0Q1021 80 1021 111Q1021 140 1018.5 170.5Q1016 201 1011 231Q1053 214 1111.5 196.5Q1170 179 1241 165Q1231 259 1221.0 317.0Q1211 375 1200 406Q1214 402 1228.5 400.5Q1243 399 1258 399Q1273 399 1288.5 400.5Q1304 402 1319 406Q1309 378 1300.0 316.0Q1291 254 1283 157Q1305 153 1327.5 149.5Q1350 146 1373 143Q1366 172 1358.0 196.0Q1350 220 1343 241Q1360 237 1379 235Q1370 300 1361.0 339.0Q1352 378 1343 406Q1357 402 1371.5 400.5Q1386 399 1401 399Q1416 399 1431.5 400.5Q1447 402 1462 406Q1454 382 1445.5 341.0Q1437 300 1430 235Q1445 236 1462 241Q1455 221 1448.0 196.0Q1441 171 1434 136Q1457 134 1480.5 132.0Q1504 130 1529 128Q1524 232 1514.5 320.5Q1505 409 1493 484Q1337 467 1219.5 444.5Q1102 422 1011 385Q1016 411 1018.5 440.0Q1021 469 1021 500Q1021 529 1018.5 559.5Q1016 590 1011 620Q1086 589 1211.0 560.5Q1336 532 1487 520Q1477 585 1464.5 638.5Q1452 692 1440 736Q1491 724 1545 724Q1599 724 1656 736Q1633 653 1611.0 533.5Q1589 414 1575.0 254.0Q1561 94 1561 -112ZM986 -162Q957 -130 913.0 -99.0Q869 -68 817.5 -38.5Q766 -9 714.5 17.5Q663 44 618 66Q691 100 762 152Q734 182 688.5 211.5Q643 241 592.5 267.5Q542 294 499 315Q551 340 605.5 379.0Q660 418 707 467L706 468Q732 481 759.5 497.5Q787 514 814 534Q740 527 656.5 520.0Q573 513 489.5 504.5Q406 496 330.0 486.0Q254 476 194.5 464.0Q135 452 100 438Q105 464 107.5 493.0Q110 522 110 553Q110 582 107.5 612.5Q105 643 100 673Q131 660 194.5 647.5Q258 635 342.0 623.5Q426 612 518.0 602.0Q610 592 699.0 584.5Q788 577 861 572Q875 583 888.0 595.5Q901 608 914 621Q919 586 925.0 544.0Q931 502 939.5 460.0Q948 418 960.5 382.0Q973 346 991 322L969 305Q942 335 896.5 364.0Q851 393 800.5 419.5Q750 446 708 467Q715 420 724.0 362.5Q733 305 747.0 253.0Q761 201 784 168Q816 193 848.0 221.0Q880 249 909 280Q917 231 925.5 172.5Q934 114 946.0 55.5Q958 -3 975.0 -54.0Q992 -105 1016 -138ZM554 -1Q529 27 488.0 53.5Q447 80 403 105Q286 88 216.5 61.5Q147 35 100 8Q105 34 107.5 63.0Q110 92 110 123Q110 152 107.5 182.5Q105 213 100 243Q135 222 178.0 200.0Q221 178 291 162Q342 187 397.5 226.5Q453 266 499 315Q505 280 511.0 238.0Q517 196 525.5 154.5Q534 113 546.0 77.0Q558 41 576 17Z" />
  </g>
</svg>