<svg xmlns="http://www.w3.org/2000/svg" viewBox="100 -162 1556 898">
  <g transform="translate(0, 574) scale(1, -1)">
    <path fill="black" d="M1535 -112Q1535 -56 1533.5 -3.0Q1532 50 1530 99Q1494 95 1460.5 91.5Q1427 88 1395 83Q1381 50 1364 3L1350 9L1365 79Q1256 64 1169.0 44.5Q1082 25 1011 -4Q1016 22 1018.5 51.0Q1021 80 1021 111Q1021 140 1018.5 170.5Q1016 201 1011 231Q1031 223 1053.5 215.0Q1076 207 1102 199Q1121 221 1134.0 246.5Q1147 272 1159 303Q1147 335 1133.5 361.0Q1120 387 1100 409Q1139 415 1171.0 419.5Q1203 424 1238.0 433.5Q1273 443 1320 462Q1227 448 1151.0 429.5Q1075 411 1011 385Q1016 411 1018.5 440.0Q1021 469 1021 500Q1021 529 1018.5 559.5Q1016 590 1011 620Q1063 598 1139.0 577.5Q1215 557 1309 542L1287 573Q1319 575 1350.0 584.5Q1381 594 1415 610Q1416 590 1417.0 569.0Q1418 548 1419 526L1487 520Q1477 585 1464.5 638.5Q1452 692 1440 736Q1491 724 1545 724Q1599 724 1656 736Q1633 653 1611.0 533.5Q1589 414 1575.0 254.0Q1561 94 1561 -112ZM986 -162Q957 -130 913.0 -99.0Q869 -68 817.5 -38.5Q766 -9 714.5 17.5Q663 44 618 66Q691 100 762 152Q734 182 688.5 211.5Q643 241 592.5 267.5Q542 294 499 315Q551 340 605.5 379.0Q660 418 707 467L706 468Q732 481 759.5 497.5Q787 514 814 534Q740 527 656.5 520.0Q573 513 489.5 504.5Q406 496 330.0 486.0Q254 476 194.5 464.0Q135 452 100 438Q105 464 107.5 493.0Q110 522 110 553Q110 582 107.5 612.5Q105 643 100 673Q131 660 194.5 647.5Q258 635 342.0 623.5Q426 612 518.0 602.0Q610 592 699.0 584.5Q788 577 861 572Q875 583 888.0 595.5Q901 608 914 621Q919 586 925.0 544.0Q931 502 939.5 460.0Q948 418 960.5 382.0Q973 346 991 322L969 305Q942 335 896.5 364.0Q851 393 800.5 419.5Q750 446 708 467Q715 420 724.0 362.5Q733 305 747.0 253.0Q761 201 784 168Q816 193 848.0 221.0Q880 249 909 280Q917 231 925.5 172.5Q934 114 946.0 55.5Q958 -3 975.0 -54.0Q992 -105 1016 -138ZM1529 128Q1524 232 1514.5 320.5Q1505 409 1493 484Q1476 483 1458.5 480.5Q1441 478 1424 476Q1429 433 1437.5 384.5Q1446 336 1459 279Q1472 276 1484.5 274.5Q1497 273 1510 272Q1484 236 1462.5 207.0Q1441 178 1420 137Q1474 131 1529 128ZM1376 143Q1379 169 1379.5 191.0Q1380 213 1380 235Q1380 252 1380.0 270.5Q1380 289 1381 309Q1395 302 1409.0 296.5Q1423 291 1436 286Q1399 385 1360 456Q1311 425 1280.5 400.5Q1250 376 1226.5 353.0Q1203 330 1174 303Q1204 275 1228.0 251.0Q1252 227 1284.0 202.0Q1316 177 1369 144Q1371 143 1376 143ZM554 -1Q529 27 488.0 53.5Q447 80 403 105Q286 88 216.5 61.5Q147 35 100 8Q105 34 107.5 63.0Q110 92 110 123Q110 152 107.5 182.5Q105 213 100 243Q135 222 178.0 200.0Q221 178 291 162Q342 187 397.5 226.5Q453 266 499 315Q505 280 511.0 238.0Q517 196 525.5 154.5Q534 113 546.0 77.0Q558 41 576 17ZM1285 157Q1238 174 1203.0 180.0Q1168 186 1127 192Q1162 182 1202.0 173.5Q1242 165 1285 157Z" />
  </g>
</svg>