<svg xmlns="http://www.w3.org/2000/svg" viewBox="100 -167 1586 945">
  <g transform="translate(0, 611) scale(1, -1)">
    <path fill="black" d="M1246 -167Q1211 -135 1187.0 -113.0Q1163 -91 1145.0 -75.0Q1127 -59 1110.0 -46.0Q1093 -33 1070 -18Q1084 -5 1100.0 7.0Q1116 19 1136 35Q1068 19 1011 -4Q1016 22 1018.5 51.0Q1021 80 1021 111Q1021 140 1018.5 170.5Q1016 201 1011 231Q1064 209 1150.5 188.0Q1237 167 1342.5 151.0Q1448 135 1559 128Q1554 232 1544.5 320.5Q1535 409 1523 484Q1364 467 1233.0 444.5Q1102 422 1011 385Q1016 411 1018.5 440.0Q1021 469 1021 500Q1021 529 1018.5 559.5Q1016 590 1011 620Q1061 599 1140 579Q1123 593 1107.0 605.5Q1091 618 1070 632Q1090 649 1112.5 666.0Q1135 683 1167.0 709.0Q1199 735 1246 778L1265 768Q1241 733 1226.0 703.5Q1211 674 1194 645Q1212 660 1233.0 676.0Q1254 692 1283.5 716.5Q1313 741 1354 778L1373 768Q1347 729 1330.5 696.5Q1314 664 1294 632Q1308 610 1320.0 587.0Q1332 564 1346 539Q1387 533 1430.5 528.0Q1474 523 1517 520Q1507 585 1494.5 638.5Q1482 692 1470 736Q1521 724 1575 724Q1629 724 1686 736Q1663 653 1641.0 533.5Q1619 414 1605.0 254.0Q1591 94 1591 -112H1565Q1565 -56 1563.5 -3.0Q1562 50 1560 99Q1503 93 1449.0 87.0Q1395 81 1345 73Q1331 49 1319.5 27.0Q1308 5 1294 -18Q1314 -48 1330.5 -82.0Q1347 -116 1373 -152L1354 -167Q1311 -127 1284.5 -102.5Q1258 -78 1237.5 -61.0Q1217 -44 1192 -27Q1209 -55 1224.5 -86.5Q1240 -118 1265 -152ZM986 -162Q957 -130 913.0 -99.0Q869 -68 817.5 -38.5Q766 -9 714.5 17.5Q663 44 618 66Q691 100 762 152Q734 182 688.5 211.5Q643 241 592.5 267.5Q542 294 499 315Q551 340 605.5 379.0Q660 418 707 467L706 468Q732 481 759.5 497.5Q787 514 814 534Q740 527 656.5 520.0Q573 513 489.5 504.5Q406 496 330.0 486.0Q254 476 194.5 464.0Q135 452 100 438Q105 464 107.5 493.0Q110 522 110 553Q110 582 107.5 612.5Q105 643 100 673Q131 660 194.5 647.5Q258 635 342.0 623.5Q426 612 518.0 602.0Q610 592 699.0 584.5Q788 577 861 572Q875 583 888.0 595.5Q901 608 914 621Q919 586 925.0 544.0Q931 502 939.5 460.0Q948 418 960.5 382.0Q973 346 991 322L969 305Q942 335 896.5 364.0Q851 393 800.5 419.5Q750 446 708 467Q715 420 724.0 362.5Q733 305 747.0 253.0Q761 201 784 168Q816 193 848.0 221.0Q880 249 909 280Q917 231 925.5 172.5Q934 114 946.0 55.5Q958 -3 975.0 -54.0Q992 -105 1016 -138ZM1282 549Q1256 574 1236.0 590.5Q1216 607 1192 623Q1201 608 1209.0 592.5Q1217 577 1226 560ZM554 -1Q529 27 488.0 53.5Q447 80 403 105Q286 88 216.5 61.5Q147 35 100 8Q105 34 107.5 63.0Q110 92 110 123Q110 152 107.5 182.5Q105 213 100 243Q135 222 178.0 200.0Q221 178 291 162Q342 187 397.5 226.5Q453 266 499 315Q505 280 511.0 238.0Q517 196 525.5 154.5Q534 113 546.0 77.0Q558 41 576 17ZM1194 -4Q1211 10 1231.5 25.0Q1252 40 1280 63L1226 54Z" />
  </g>
</svg>