<svg xmlns="http://www.w3.org/2000/svg" viewBox="100 -309 1154 1032">
  <g transform="translate(0, 414) scale(1, -1)">
    <path fill="black" d="M232 -309Q232 -225 229 -155Q210 -165 193.5 -174.0Q177 -183 165 -191Q159 -132 143.0 -80.5Q127 -29 100 14Q148 16 214 26Q202 124 183.5 202.0Q165 280 139 351Q190 339 244 339Q298 339 355 351Q330 282 311.0 206.5Q292 131 280 37Q354 51 439 70Q427 152 409.5 220.0Q392 288 369 351Q420 339 474 339Q528 339 585 351Q563 291 546.0 227.5Q529 164 517 87Q624 112 740.5 142.0Q857 172 976.0 203.5Q1095 235 1207 266Q1084 300 954.0 334.5Q824 369 697.5 401.0Q571 433 457.5 458.0Q344 483 252.0 499.0Q160 515 100 518Q127 562 143.0 613.5Q159 665 165 723Q202 700 272.0 665.5Q342 631 435.0 591.0Q528 551 634.0 507.5Q740 464 849.5 422.0Q959 380 1063.0 342.5Q1167 305 1254 276L1249 266L1254 256Q1175 230 1081.0 196.5Q987 163 887.5 125.0Q788 87 690.0 48.0Q592 9 503 -29Q497 -89 494.5 -158.5Q492 -228 492 -309H462Q462 -235 459.5 -171.0Q457 -107 452 -51Q399 -74 351.5 -95.5Q304 -117 266 -137Q264 -176 263.0 -219.0Q262 -262 262 -309Z" />
  </g>
</svg>