<svg xmlns="http://www.w3.org/2000/svg" viewBox="100 -309 1231 1032">
  <g transform="translate(0, 414) scale(1, -1)">
    <path fill="black" d="M232 -309Q232 -225 229 -155Q210 -165 193.5 -174.0Q177 -183 165 -191Q159 -132 143.0 -80.5Q127 -29 100 14Q148 16 214 26Q202 124 183.5 202.0Q165 280 139 351Q190 339 244 339Q298 339 355 351Q330 282 311.0 206.5Q292 131 280 37Q354 51 439 70Q427 152 409.5 220.0Q392 288 369 351Q420 339 474 339Q528 339 585 351Q563 291 546.0 227.5Q529 164 517 87Q624 112 740.5 142.0Q857 172 976.0 203.5Q1095 235 1207 266Q1084 300 954.0 334.5Q824 369 697.5 401.0Q571 433 457.5 458.0Q344 483 252.0 499.0Q160 515 100 518Q127 562 143.0 613.5Q159 665 165 723Q202 700 272.0 665.5Q342 631 435.0 591.0Q528 551 634.0 507.5Q740 464 849.5 422.0Q959 380 1063.0 342.5Q1167 305 1254 276L1249 266L1254 256Q1179 231 1090.5 199.5Q1002 168 909 133Q929 130 965.0 126.0Q1001 122 1044.0 118.0Q1087 114 1126.5 111.0Q1166 108 1192 108Q1177 132 1161.0 153.5Q1145 175 1126 201Q1158 202 1188.0 212.0Q1218 222 1252 237Q1253 196 1253.0 163.5Q1253 131 1256.0 95.0Q1259 59 1269 9Q1301 0 1331 -3Q1292 -55 1257.0 -121.0Q1222 -187 1184 -290L1171 -284Q1176 -262 1181.0 -242.5Q1186 -223 1190 -204Q1173 -204 1149.0 -205.5Q1125 -207 1099 -209Q1098 -217 1097.5 -226.0Q1097 -235 1097 -245H1082Q1082 -236 1082.0 -227.0Q1082 -218 1081 -210Q1040 -213 1000.0 -217.0Q960 -221 931.0 -225.0Q902 -229 894 -232Q896 -223 897.0 -214.5Q898 -206 898 -198Q898 -190 897.0 -181.0Q896 -172 894 -163Q901 -165 930.0 -168.5Q959 -172 999.5 -176.0Q1040 -180 1081 -184Q1080 -166 1079.0 -149.0Q1078 -132 1076 -116Q1033 -120 998.5 -124.5Q964 -129 956 -132Q958 -123 959.0 -114.5Q960 -106 960 -98Q960 -90 959.0 -81.0Q958 -72 956 -63Q964 -65 996.0 -69.0Q1028 -73 1071 -78Q1069 -61 1066.0 -46.0Q1063 -31 1060 -17Q1022 -21 993.0 -25.0Q964 -29 956 -32Q958 -23 959.0 -14.5Q960 -6 960 2Q960 10 959.0 19.0Q958 28 956 37Q962 35 988.0 31.5Q1014 28 1050 24Q1046 40 1040.5 55.0Q1035 70 1030 84Q981 80 942.0 75.0Q903 70 894 67Q897 83 897.5 97.5Q898 112 895 127Q795 89 694.5 49.0Q594 9 503 -29Q497 -89 494.5 -158.5Q492 -228 492 -309H462Q462 -235 459.5 -171.0Q457 -107 452 -51Q399 -74 351.5 -95.5Q304 -117 266 -137Q264 -176 263.0 -219.0Q262 -262 262 -309ZM1215 10Q1216 15 1216.0 20.0Q1216 25 1216 29Q1221 27 1226.5 24.5Q1232 22 1237 20Q1227 43 1218.0 61.0Q1209 79 1200 95Q1173 95 1126.5 92.0Q1080 89 1032 84Q1049 82 1064.0 81.0Q1079 80 1093 80Q1107 80 1121.5 81.0Q1136 82 1149 85Q1143 69 1138.0 52.0Q1133 35 1128 17Q1151 15 1173.5 13.5Q1196 12 1215 10ZM1208 -89Q1213 -43 1214 -5L1122 -12Q1118 -28 1115.5 -45.0Q1113 -62 1111 -81ZM1192 -191Q1197 -168 1200.5 -146.5Q1204 -125 1206 -106Q1184 -107 1158.5 -109.0Q1133 -111 1107 -113Q1105 -130 1103.5 -148.0Q1102 -166 1100 -186Q1127 -188 1151.0 -189.0Q1175 -190 1192 -191Z" />
  </g>
</svg>