<svg xmlns="http://www.w3.org/2000/svg" viewBox="100 -202 1826 1041">
  <g transform="translate(0, 637) scale(1, -1)">
    <path fill="black" d="M514 -202Q510 -155 499 -112Q353 44 259.0 150.5Q165 257 100 316Q141 358 206.5 419.0Q272 480 348.5 561.0Q425 642 497 742Q510 789 514 839Q566 806 667.5 761.5Q769 717 906.5 665.0Q1044 613 1205.5 557.5Q1367 502 1539 447Q1578 483 1619.0 525.0Q1660 567 1697 610L1725 595Q1677 509 1643.0 442.0Q1609 375 1577 322Q1600 283 1641.5 221.5Q1683 160 1741 84L1715 63Q1670 103 1631.5 135.5Q1593 168 1560 196Q1484 172 1409.0 147.5Q1334 123 1262 98Q1259 76 1256.5 53.0Q1254 30 1252 4H1227L1170 54L1166 -7H1158L1152 60L1119 49Q1118 45 1118 39H1107Q1107 40 1106.5 41.5Q1106 43 1106 44Q969 -4 851.5 -49.5Q734 -95 647.5 -133.5Q561 -172 514 -202ZM1804 -102Q1804 -45 1799.5 30.0Q1795 105 1787.5 188.5Q1780 272 1770.5 356.0Q1761 440 1750.5 515.0Q1740 590 1729.5 647.5Q1719 705 1710 736Q1761 724 1815 724Q1869 724 1926 736Q1917 705 1906.5 647.5Q1896 590 1885.0 515.0Q1874 440 1864.5 356.0Q1855 272 1847.0 188.5Q1839 105 1834.5 30.0Q1830 -45 1830 -102ZM459 5Q553 8 704.0 34.0Q855 60 1048 103L1042 163L1007 193L1003 125H991Q990 140 988.0 163.0Q986 186 983 212Q938 249 899.5 280.0Q861 311 834.5 330.5Q808 350 799 354Q812 366 830.0 385.5Q848 405 866.0 425.0Q884 445 895 458Q899 448 918.0 420.0Q937 392 967 351Q966 358 965.0 363.0Q964 368 963 371Q971 370 979.5 369.5Q988 369 997 369Q1005 369 1012.0 369.5Q1019 370 1026 371Q1024 364 1021.0 341.0Q1018 318 1015 287Q1019 282 1023.5 276.5Q1028 271 1032 266Q1026 315 1022 328Q1032 328 1043.0 327.5Q1054 327 1064 327Q1069 327 1074.5 327.0Q1080 327 1085 328Q1082 320 1079 287Q1090 287 1100.0 286.0Q1110 285 1120 285Q1125 285 1131.0 285.5Q1137 286 1143 287Q1140 276 1135 237Q1143 236 1151.0 235.5Q1159 235 1166 235Q1179 235 1194 238Q1190 231 1186.0 201.0Q1182 171 1178 133L1218 142Q1215 180 1210.0 214.0Q1205 248 1200 279Q1166 304 1127.5 333.0Q1089 362 1053.0 389.0Q1017 416 990.0 435.0Q963 454 953 460Q973 477 992.5 495.5Q1012 514 1028 538Q848 578 705.5 602.5Q563 627 471 631Q420 533 373.5 459.5Q327 386 292 316Q318 266 359.5 186.0Q401 106 459 5ZM1268 155Q1332 170 1397.5 186.5Q1463 203 1531 220Q1495 249 1463.0 274.5Q1431 300 1400 322Q1420 339 1449.5 364.5Q1479 390 1513 422Q1382 455 1260.5 484.0Q1139 513 1029 538Q1033 529 1049.0 507.0Q1065 485 1088.5 455.0Q1112 425 1139.0 392.5Q1166 360 1191 330Q1174 409 1152 464Q1177 459 1200.0 457.0Q1223 455 1245 455Q1293 455 1339 464Q1314 397 1297.5 324.5Q1281 252 1268 155ZM538 143Q533 227 527.5 281.5Q522 336 516.5 369.5Q511 403 505.0 424.0Q499 445 493.0 461.0Q487 477 480 496Q509 490 537 490Q566 490 597 496Q590 475 583.0 454.5Q576 434 570.0 401.0Q564 368 559.5 311.0Q555 254 552 161Q573 181 589.5 198.0Q606 215 619 230Q617 262 609.5 295.0Q602 328 594.0 353.5Q586 379 580 386Q591 384 602.0 383.0Q613 382 624 382Q635 382 647.0 383.0Q659 384 672 386Q667 380 659.5 358.0Q652 336 645.0 306.5Q638 277 634 248Q659 277 675.5 302.5Q692 328 708 355Q705 385 698.0 415.5Q691 446 683.0 468.5Q675 491 669 497Q680 495 691.0 494.0Q702 493 713 493Q724 493 736.5 494.0Q749 495 762 497Q755 490 744.5 456.0Q734 422 727 384L736 397Q757 366 779.5 340.5Q802 315 827 295Q792 282 763.0 271.0Q734 260 704.0 245.0Q674 230 637.5 206.0Q601 182 552 143ZM1093 188Q1089 223 1085.0 250.5Q1081 278 1079 286L1072 214ZM1145 125Q1142 151 1139.0 174.5Q1136 198 1133 214L1127 147ZM1063 107Q1072 109 1081.0 111.0Q1090 113 1100 115Q1092 123 1083.0 129.5Q1074 136 1066 143ZM1226 30 1222 85 1189 73Q1198 63 1207.0 52.0Q1216 41 1226 30Z" />
  </g>
</svg>