<svg xmlns="http://www.w3.org/2000/svg" viewBox="100 -118 1447 876">
  <g transform="translate(0, 640) scale(1, -1)">
    <path fill="black" d="M499 -118Q505 -88 508.5 -59.5Q512 -31 512 -5Q512 21 508.5 47.0Q505 73 499 98Q507 95 516.5 92.5Q526 90 537 87Q496 122 470.0 140.0Q444 158 423 171Q348 163 280.5 147.5Q213 132 165.0 117.0Q117 102 100 94Q102 111 104.0 139.5Q106 168 106 198Q106 223 104.5 246.0Q103 269 100 283Q117 276 161.0 259.5Q205 243 273.0 226.5Q341 210 428 203Q453 220 485.0 246.0Q517 272 567 317Q515 364 482.0 389.0Q449 414 423 431Q348 423 280.5 407.5Q213 392 165.0 377.0Q117 362 100 354Q102 371 104.0 399.5Q106 428 106 458Q106 483 104.5 506.0Q103 529 100 543Q117 536 161.5 519.5Q206 503 274.0 486.5Q342 470 429 463Q451 477 478.0 495.5Q505 514 550 554Q535 551 522.0 548.0Q509 545 499 542Q505 572 508.5 600.5Q512 629 512 655Q512 681 508.5 707.0Q505 733 499 758Q535 746 604.0 733.5Q673 721 765.0 709.5Q857 698 961.5 688.0Q1066 678 1171.5 670.5Q1277 663 1374.0 658.5Q1471 654 1547 654V622Q1469 622 1369.5 619.0Q1270 616 1161.0 610.5Q1052 605 945.0 597.0Q838 589 745.0 580.0Q652 571 585 560Q573 542 559.5 519.5Q546 497 535.0 477.0Q524 457 518 446Q524 435 537.5 412.0Q551 389 567.5 363.5Q584 338 597 320Q584 302 567.5 274.5Q551 247 537.5 222.0Q524 197 518 186Q526 170 544.5 137.5Q563 105 582 78Q639 68 717.5 57.5Q796 47 886.0 37.5Q976 28 1069.5 20.0Q1163 12 1252.0 6.5Q1341 1 1417.0 -2.5Q1493 -6 1547 -6V-38Q1494 -38 1419.0 -40.0Q1344 -42 1256.0 -46.0Q1168 -50 1075.0 -56.0Q982 -62 893.0 -68.5Q804 -75 725.5 -83.0Q647 -91 588.5 -100.0Q530 -109 499 -118ZM741 236Q745 256 747.0 275.0Q749 294 749 314Q749 333 747.5 352.0Q746 371 741 391Q782 375 844.0 359.5Q906 344 983.5 333.5Q1061 323 1146 323V304Q1018 304 916.5 284.5Q815 265 741 236Z" />
  </g>
</svg>