<svg xmlns="http://www.w3.org/2000/svg" viewBox="100 -118 2228 876">
  <g transform="translate(0, 640) scale(1, -1)">
    <path fill="black" d="M499 -118Q505 -88 508.5 -59.5Q512 -31 512 -5Q512 21 508.5 47.0Q505 73 499 98Q507 95 516.5 92.5Q526 90 537 87Q496 122 470.0 140.0Q444 158 423 171Q348 163 280.5 147.5Q213 132 165.0 117.0Q117 102 100 94Q102 111 104.0 139.5Q106 168 106 198Q106 223 104.5 246.0Q103 269 100 283Q117 276 161.0 259.5Q205 243 273.0 226.5Q341 210 428 203Q453 220 485.0 246.0Q517 272 567 317Q515 364 482.0 389.0Q449 414 423 431Q348 423 280.5 407.5Q213 392 165.0 377.0Q117 362 100 354Q102 371 104.0 399.5Q106 428 106 458Q106 483 104.5 506.0Q103 529 100 543Q117 536 161.5 519.5Q206 503 274.0 486.5Q342 470 429 463Q451 477 478.0 495.5Q505 514 550 554Q535 551 522.0 548.0Q509 545 499 542Q505 572 508.5 600.5Q512 629 512 655Q512 681 508.5 707.0Q505 733 499 758Q535 746 604.0 733.5Q673 721 765.0 709.5Q857 698 961.5 688.0Q1066 678 1171.5 670.5Q1277 663 1374.0 658.5Q1471 654 1547 654V622Q1469 622 1369.5 619.0Q1270 616 1161.0 610.5Q1052 605 945.0 597.0Q838 589 745.0 580.0Q652 571 585 560Q573 542 559.5 519.5Q546 497 535.0 477.0Q524 457 518 446Q524 435 537.5 412.0Q551 389 567.5 363.5Q584 338 597 320Q584 302 567.5 274.5Q551 247 537.5 222.0Q524 197 518 186Q526 170 544.5 137.5Q563 105 582 78Q639 68 717.5 57.5Q796 47 886.0 37.5Q976 28 1069.5 20.0Q1163 12 1252.0 6.5Q1341 1 1417.0 -2.5Q1493 -6 1547 -6V-38Q1494 -38 1419.0 -40.0Q1344 -42 1256.0 -46.0Q1168 -50 1075.0 -56.0Q982 -62 893.0 -68.5Q804 -75 725.5 -83.0Q647 -91 588.5 -100.0Q530 -109 499 -118ZM1885 -112Q1878 -6 1871.5 79.5Q1865 165 1859 235Q1819 184 1788.5 140.5Q1758 97 1732.5 55.5Q1707 14 1681 -32Q1653 13 1617.0 50.0Q1581 87 1528 121Q1584 153 1643.5 194.0Q1703 235 1779 296Q1719 289 1669.5 280.0Q1620 271 1574.5 260.5Q1529 250 1480 236Q1493 285 1493 341Q1493 394 1480 452Q1533 437 1591.0 425.5Q1649 414 1724 404Q1669 448 1621.0 481.5Q1573 515 1518 549Q1564 575 1602.5 610.0Q1641 645 1677 696Q1706 639 1743.5 579.0Q1781 519 1838 443Q1826 530 1812.0 597.0Q1798 664 1778 736Q1827 723 1883 723Q1936 723 1994 736Q1977 673 1963.5 602.5Q1950 532 1940 435Q1993 482 2053.5 538.0Q2114 594 2185 661L2205 642Q2136 563 2080.5 499.5Q2025 436 1981 383Q2053 379 2138.5 375.5Q2224 372 2327 369L2328 342Q2205 334 2109.5 327.0Q2014 320 1939 313Q1989 252 2050.5 178.5Q2112 105 2190 16L2171 -2Q2097 69 2036.0 126.0Q1975 183 1925 229Q1921 158 1917.5 73.5Q1914 -11 1911 -112ZM1081 328Q1046 360 1025.5 378.5Q1005 397 988.5 410.5Q972 424 949 439Q964 452 981.0 464.5Q998 477 1021.5 496.0Q1045 515 1081 547L1094 541Q1075 512 1062.5 487.0Q1050 462 1036 439Q1050 416 1062.5 391.5Q1075 367 1094 338ZM750 328Q716 360 695.5 378.5Q675 397 659.0 410.5Q643 424 620 439Q635 452 651.5 464.5Q668 477 691.5 496.0Q715 515 750 547L765 541Q746 512 733.5 487.0Q721 462 707 439Q721 416 733.5 391.5Q746 367 765 338ZM1323 79Q1319 158 1308.5 213.5Q1298 269 1286.5 309.0Q1275 349 1264 380Q1280 376 1299 374Q1291 439 1282.0 478.5Q1273 518 1264 545Q1278 541 1292.5 539.5Q1307 538 1322 538Q1337 538 1352.5 539.5Q1368 541 1383 545Q1375 522 1367.0 481.0Q1359 440 1352 375Q1360 376 1368.0 377.0Q1376 378 1383 380Q1374 353 1364.0 315.0Q1354 277 1347.0 220.0Q1340 163 1337 79ZM1180 79Q1172 214 1162.0 306.0Q1152 398 1142.0 456.0Q1132 514 1121 545Q1135 541 1149.5 539.5Q1164 538 1179 538Q1194 538 1209.5 539.5Q1225 541 1240 545Q1226 504 1212.5 387.5Q1199 271 1194 79ZM837 337Q804 367 785.0 384.0Q766 401 751.5 413.5Q737 426 718 439Q731 451 745.5 462.0Q760 473 782.0 490.5Q804 508 837 537L847 532Q832 507 820.5 486.0Q809 465 798 445Q817 460 841.0 478.5Q865 497 908 537L921 532Q905 507 894.0 485.5Q883 464 871 444Q890 460 914.5 478.5Q939 497 982 537L995 532Q979 505 967.5 482.5Q956 460 945 439Q956 418 967.5 395.5Q979 373 995 347L982 337Q953 365 935.0 382.0Q917 399 903.0 411.0Q889 423 870 435Q882 415 893.5 393.0Q905 371 921 347L908 337Q879 365 860.5 381.5Q842 398 828.0 410.0Q814 422 797 434Q809 414 820.5 392.5Q832 371 847 347ZM750 88Q716 121 695.5 140.0Q675 159 659.0 172.5Q643 186 620 201Q635 214 651.5 226.5Q668 239 691.5 257.5Q715 276 750 307L765 304Q746 274 733.5 249.0Q721 224 707 201Q721 177 733.5 152.5Q746 128 765 99ZM1081 88Q1046 121 1025.5 140.0Q1005 159 988.5 172.5Q972 186 949 201Q964 214 981.0 226.5Q998 239 1021.5 257.5Q1045 276 1081 307L1094 304Q1075 274 1062.5 249.0Q1050 224 1036 201Q1050 177 1062.5 152.5Q1075 128 1094 99ZM837 98Q804 128 785.0 145.0Q766 162 751.5 174.5Q737 187 718 201Q731 212 745.5 223.5Q760 235 782.0 252.0Q804 269 837 298L847 292Q833 267 821.5 247.0Q810 227 798 208Q817 222 841.0 240.5Q865 259 908 298L921 292Q905 267 894.0 246.5Q883 226 872 207Q890 221 914.5 239.5Q939 258 982 298L995 292Q979 265 967.5 243.0Q956 221 945 201Q956 179 967.5 156.5Q979 134 995 108L982 98Q953 126 935.0 143.0Q917 160 903.0 172.0Q889 184 870 197Q882 176 893.5 154.5Q905 133 921 108L908 98Q879 126 860.5 142.5Q842 159 828.0 171.5Q814 184 797 196Q809 175 820.5 154.0Q832 133 847 108Z" />
  </g>
</svg>