<svg xmlns="http://www.w3.org/2000/svg" viewBox="100 -118 1692 876">
  <g transform="translate(0, 640) scale(1, -1)">
    <path fill="black" d="M499 -118Q505 -88 508.5 -59.5Q512 -31 512 -5Q512 21 508.5 47.0Q505 73 499 98Q507 95 516.5 92.5Q526 90 537 87Q496 122 470.0 140.0Q444 158 423 171Q348 163 280.5 147.5Q213 132 165.0 117.0Q117 102 100 94Q102 111 104.0 139.5Q106 168 106 198Q106 223 104.5 246.0Q103 269 100 283Q117 276 161.0 259.5Q205 243 273.0 226.5Q341 210 428 203Q453 220 485.0 246.0Q517 272 567 317Q515 364 482.0 389.0Q449 414 423 431Q348 423 280.5 407.5Q213 392 165.0 377.0Q117 362 100 354Q102 371 104.0 399.5Q106 428 106 458Q106 483 104.5 506.0Q103 529 100 543Q117 536 161.5 519.5Q206 503 274.0 486.5Q342 470 429 463Q451 477 478.0 495.5Q505 514 550 554Q535 551 522.0 548.0Q509 545 499 542Q505 572 508.5 600.5Q512 629 512 655Q512 681 508.5 707.0Q505 733 499 758Q535 746 604.0 733.5Q673 721 765.0 709.5Q857 698 961.5 688.0Q1066 678 1171.5 670.5Q1277 663 1374.0 658.5Q1471 654 1547 654V622Q1469 622 1369.5 619.0Q1270 616 1161.0 610.5Q1052 605 945.0 597.0Q838 589 745.0 580.0Q652 571 585 560Q573 542 559.5 519.5Q546 497 535.0 477.0Q524 457 518 446Q524 435 537.5 412.0Q551 389 567.5 363.5Q584 338 597 320Q584 302 567.5 274.5Q551 247 537.5 222.0Q524 197 518 186Q526 170 544.5 137.5Q563 105 582 78Q639 68 717.5 57.5Q796 47 886.0 37.5Q976 28 1069.5 20.0Q1163 12 1252.0 6.5Q1341 1 1417.0 -2.5Q1493 -6 1547 -6V-38Q1494 -38 1419.0 -40.0Q1344 -42 1256.0 -46.0Q1168 -50 1075.0 -56.0Q982 -62 893.0 -68.5Q804 -75 725.5 -83.0Q647 -91 588.5 -100.0Q530 -109 499 -118ZM1007 328Q972 360 951.5 378.5Q931 397 914.5 410.5Q898 424 875 439Q890 452 907.0 464.5Q924 477 947.5 496.0Q971 515 1007 547L1020 541Q1001 512 988.5 487.0Q976 462 962 439Q976 416 988.5 391.5Q1001 367 1020 338ZM676 328Q642 360 621.5 378.5Q601 397 585.0 410.5Q569 424 546 439Q561 452 577.5 464.5Q594 477 617.5 496.0Q641 515 676 547L691 541Q672 512 659.5 487.0Q647 462 633 439Q647 416 659.5 391.5Q672 367 691 338ZM763 337Q730 367 711.0 384.0Q692 401 677.5 413.5Q663 426 644 439Q657 451 671.5 462.0Q686 473 708.0 490.5Q730 508 763 537L773 532Q758 507 746.5 486.0Q735 465 724 445Q743 460 767.0 478.5Q791 497 834 537L847 532Q831 507 820.0 485.5Q809 464 797 444Q816 460 840.5 478.5Q865 497 908 537L921 532Q905 505 893.5 482.5Q882 460 871 439Q882 418 893.5 395.5Q905 373 921 347L908 337Q879 365 861.0 382.0Q843 399 829.0 411.0Q815 423 796 435Q808 415 819.5 393.0Q831 371 847 347L834 337Q805 365 786.5 381.5Q768 398 754.0 410.0Q740 422 723 434Q735 414 746.5 392.5Q758 371 773 347ZM1027 236Q1031 256 1033.0 275.0Q1035 294 1035 314Q1035 333 1033.5 352.0Q1032 371 1027 391Q1084 369 1181.0 348.0Q1278 327 1395 323Q1394 340 1392.5 356.5Q1391 373 1387 391Q1428 375 1490.0 359.5Q1552 344 1629.5 333.5Q1707 323 1792 323V304Q1664 304 1562.5 284.5Q1461 265 1387 236Q1390 253 1392.5 269.5Q1395 286 1395 303Q1280 300 1187.5 281.5Q1095 263 1027 236ZM1007 88Q972 121 951.5 140.0Q931 159 914.5 172.5Q898 186 875 201Q890 214 907.0 226.5Q924 239 947.5 257.5Q971 276 1007 307L1020 304Q1001 274 988.5 249.0Q976 224 962 201Q976 177 988.5 152.5Q1001 128 1020 99ZM676 88Q642 121 621.5 140.0Q601 159 585.0 172.5Q569 186 546 201Q561 214 577.5 226.5Q594 239 617.5 257.5Q641 276 676 307L691 304Q672 274 659.5 249.0Q647 224 633 201Q647 177 659.5 152.5Q672 128 691 99ZM763 98Q730 128 711.0 145.0Q692 162 677.5 174.5Q663 187 644 201Q657 212 671.5 223.5Q686 235 708.0 252.0Q730 269 763 298L773 292Q759 267 747.5 247.0Q736 227 724 208Q743 222 767.0 240.5Q791 259 834 298L847 292Q831 267 820.0 246.5Q809 226 798 207Q816 221 840.5 239.5Q865 258 908 298L921 292Q905 265 893.5 243.0Q882 221 871 201Q882 179 893.5 156.5Q905 134 921 108L908 98Q879 126 861.0 143.0Q843 160 829.0 172.0Q815 184 796 197Q808 176 819.5 154.5Q831 133 847 108L834 98Q805 126 786.5 142.5Q768 159 754.0 171.5Q740 184 723 196Q735 175 746.5 154.0Q758 133 773 108Z" />
  </g>
</svg>