<svg xmlns="http://www.w3.org/2000/svg" viewBox="100 -118 1447 876">
  <g transform="translate(0, 640) scale(1, -1)">
    <path fill="black" d="M499 -118Q505 -88 508.5 -59.5Q512 -31 512 -5Q512 21 508.5 47.0Q505 73 499 98Q507 95 516.5 92.5Q526 90 537 87Q496 122 470.0 140.0Q444 158 423 171Q348 163 280.5 147.5Q213 132 165.0 117.0Q117 102 100 94Q102 111 104.0 139.5Q106 168 106 198Q106 223 104.5 246.0Q103 269 100 283Q117 276 161.0 259.5Q205 243 273.0 226.5Q341 210 428 203Q453 220 485.0 246.0Q517 272 567 317Q515 364 482.0 389.0Q449 414 423 431Q348 423 280.5 407.5Q213 392 165.0 377.0Q117 362 100 354Q102 371 104.0 399.5Q106 428 106 458Q106 483 104.5 506.0Q103 529 100 543Q117 536 161.5 519.5Q206 503 274.0 486.5Q342 470 429 463Q451 477 478.0 495.5Q505 514 550 554Q535 551 522.0 548.0Q509 545 499 542Q505 572 508.5 600.5Q512 629 512 655Q512 681 508.5 707.0Q505 733 499 758Q535 746 604.0 733.5Q673 721 765.0 709.5Q857 698 961.5 688.0Q1066 678 1171.5 670.5Q1277 663 1374.0 658.5Q1471 654 1547 654V622Q1469 622 1369.5 619.0Q1270 616 1161.0 610.5Q1052 605 945.0 597.0Q838 589 745.0 580.0Q652 571 585 560Q573 542 559.5 519.5Q546 497 535.0 477.0Q524 457 518 446Q524 435 537.5 412.0Q551 389 567.5 363.5Q584 338 597 320Q584 302 567.5 274.5Q551 247 537.5 222.0Q524 197 518 186Q526 170 544.5 137.5Q563 105 582 78Q639 68 717.5 57.5Q796 47 886.0 37.5Q976 28 1069.5 20.0Q1163 12 1252.0 6.5Q1341 1 1417.0 -2.5Q1493 -6 1547 -6V-38Q1494 -38 1419.0 -40.0Q1344 -42 1256.0 -46.0Q1168 -50 1075.0 -56.0Q982 -62 893.0 -68.5Q804 -75 725.5 -83.0Q647 -91 588.5 -100.0Q530 -109 499 -118ZM788 114Q788 139 786.5 167.5Q785 196 783 225Q730 218 691.5 212.0Q653 206 644 202Q649 229 649 262Q649 276 647.5 289.5Q646 303 644 315Q652 311 688.5 305.0Q725 299 777 293L771 344Q722 338 687.0 332.5Q652 327 644 323Q649 348 649 382Q649 410 644 435Q652 432 683.5 427.0Q715 422 761 416Q757 442 753.5 459.5Q750 477 747 484Q760 482 772.0 480.5Q784 479 795 479Q814 479 830 482V484Q832 483 835 483Q839 483 841 484Q840 483 840 482Q858 479 875 479Q895 479 913 482V484Q915 483 918 483Q922 483 924 484Q923 483 923 482Q941 479 958 479Q978 479 996 482V484Q998 483 1001 483Q1005 483 1007 484Q1006 483 1006 482Q1024 479 1041 479Q1054 479 1066.0 480.5Q1078 482 1090 484Q1086 475 1080.5 449.0Q1075 423 1070 386Q1086 385 1100.0 385.0Q1114 385 1126 385V373Q1113 373 1098.5 372.5Q1084 372 1068 371L1056 266Q1076 265 1093.5 264.5Q1111 264 1126 264V253Q1111 253 1093.0 252.5Q1075 252 1055 251Q1052 215 1050.5 180.0Q1049 145 1049 114H1038Q1038 144 1035.5 179.0Q1033 214 1030 249L972 245Q969 211 967.5 177.0Q966 143 966 114H955Q955 143 953.0 176.0Q951 209 948 243L888 237Q886 205 884.5 173.5Q883 142 883 114H871Q871 171 865 235L805 228Q803 198 802.0 169.0Q801 140 801 114ZM1014 390Q1011 413 1007.5 433.0Q1004 453 1001 466Q998 453 994.5 434.0Q991 415 988 392Q995 391 1001.5 390.5Q1008 390 1014 390ZM930 397Q927 418 924.0 435.5Q921 453 918 465Q916 453 913.0 436.5Q910 420 907 399ZM846 406Q843 424 840.0 439.0Q837 454 835 464L825 408ZM1139 263Q1144 288 1144 322Q1144 350 1139 375Q1147 372 1176.5 366.0Q1206 360 1248.0 353.0Q1290 346 1338.5 339.5Q1387 333 1434.5 329.0Q1482 325 1521 325V313Q1481 313 1433.0 309.0Q1385 305 1337.0 299.0Q1289 293 1247.5 286.5Q1206 280 1177.0 273.5Q1148 267 1139 263ZM1029 268 1017 368Q1009 368 1001.0 367.5Q993 367 984 366Q981 344 978.5 320.5Q976 297 974 272Q988 271 1002.0 270.0Q1016 269 1029 268ZM945 275Q943 298 940.5 320.0Q938 342 935 362L901 359L892 280Q906 279 919.0 277.5Q932 276 945 275ZM861 283 853 354Q844 353 835.0 352.5Q826 352 817 350L810 289Z" />
  </g>
</svg>