<svg xmlns="http://www.w3.org/2000/svg" viewBox="100 -138 1276 874">
  <g transform="translate(0, 598) scale(1, -1)">
    <path fill="black" d="M1253 -138Q1253 -128 1252.5 -117.5Q1252 -107 1252 -97Q1170 -69 1076.5 -45.0Q983 -21 890.5 -2.5Q798 16 714.5 28.0Q631 40 568 44L582 69Q518 63 447.5 56.0Q377 49 310.0 41.0Q243 33 188.0 22.5Q133 12 100 -1Q104 18 106.0 37.5Q108 57 108 77Q108 101 105 125Q101 123 100 123L103 138L100 154Q102 152 105 152Q108 175 108 199Q108 224 105 249Q101 247 100 247L103 262L100 278Q102 276 105 276Q108 299 108 323Q108 348 105 373Q101 371 100 371L103 386L100 402Q102 400 105 400Q108 424 108 448Q108 467 106.0 486.5Q104 506 100 526Q128 515 182.5 506.0Q237 497 306.0 489.0Q375 481 447.5 475.5Q520 470 583 467L568 495Q619 498 691.5 509.0Q764 520 848.0 537.0Q932 554 1018.5 575.0Q1105 596 1186 619Q1174 684 1160 736Q1211 724 1265 724Q1319 724 1376 736Q1365 694 1353.5 630.0Q1342 566 1331.5 488.0Q1321 410 1312.0 325.0Q1303 240 1296.5 156.0Q1290 72 1286.5 -3.5Q1283 -79 1283 -138ZM1161 538Q1180 538 1199 541L1193 578Q1173 570 1153.0 561.5Q1133 553 1113 544Q1137 538 1161 538ZM1068 501Q1080 501 1093.0 502.5Q1106 504 1119 506Q1118 519 1116.0 528.5Q1114 538 1112 544L1028 505Q1045 501 1068 501ZM981 460Q993 460 1005.0 461.5Q1017 463 1030 465Q1029 477 1027.0 486.5Q1025 496 1023 503L941 464Q958 460 981 460ZM1252 -64Q1250 17 1243.5 113.5Q1237 210 1227.5 309.5Q1218 409 1205 500Q1200 465 1195.5 412.0Q1191 359 1187.0 297.5Q1183 236 1180.0 174.0Q1177 112 1175.0 58.0Q1173 4 1172 -33Q1192 -41 1212.0 -49.0Q1232 -57 1252 -64ZM1153 -26Q1152 12 1150.0 65.0Q1148 118 1145.0 178.5Q1142 239 1138.0 298.5Q1134 358 1129.5 409.5Q1125 461 1120 497Q1115 475 1110.0 431.0Q1105 387 1100.5 330.5Q1096 274 1092.0 214.5Q1088 155 1085.5 100.0Q1083 45 1082 4ZM888 423Q901 423 914.0 424.5Q927 426 940 428Q939 438 937.0 445.5Q935 453 933 460L864 424Q870 423 876.0 423.0Q882 423 888 423ZM1062 13Q1061 58 1058.5 118.5Q1056 179 1051.5 242.5Q1047 306 1042.0 363.5Q1037 421 1031 460Q1025 437 1019.0 389.0Q1013 341 1007.0 280.5Q1001 220 997.5 158.0Q994 96 992 46Q1010 38 1027.5 29.5Q1045 21 1062 13ZM631 341Q625 366 616.5 391.5Q608 417 596 442Q524 435 442.0 427.5Q360 420 284.5 410.0Q209 400 154 387Q197 378 256.5 370.5Q316 363 382.5 357.0Q449 351 513.5 347.0Q578 343 631 341ZM972 55Q971 98 967.5 148.0Q964 198 960.0 249.0Q956 300 951.0 345.0Q946 390 941 423Q935 402 929.5 365.0Q924 328 918.5 281.5Q913 235 909.0 185.5Q905 136 903 90Q920 82 937.5 73.0Q955 64 972 55ZM881 102Q879 159 873.5 219.0Q868 279 861.0 331.0Q854 383 846 414Q824 403 803.5 391.5Q783 380 763 369Q794 367 827 375Q817 342 806.0 282.0Q795 222 790 152Q812 139 835.0 127.0Q858 115 881 102ZM762 169Q757 222 749.0 269.5Q741 317 732 351Q682 322 640 292L635 325V322Q580 316 515.0 310.5Q450 305 384.0 298.0Q318 291 258.5 282.5Q199 274 154 263Q198 254 258.0 246.5Q318 239 385.0 233.0Q452 227 517.0 223.0Q582 219 635 217V214L640 247Q668 228 698.5 208.5Q729 189 762 169ZM595 95Q619 146 631 197Q576 192 511.5 186.0Q447 180 381.5 173.0Q316 166 257.5 158.0Q199 150 154 139Q194 131 247.5 124.0Q301 117 361.5 111.5Q422 106 482.0 102.0Q542 98 595 95Z" />
  </g>
</svg>