<svg xmlns="http://www.w3.org/2000/svg" viewBox="100 -138 848 701">
  <g transform="translate(0, 425) scale(1, -1)">
    <path fill="black" d="M332 -138Q296 -75 240 -25Q255 -18 271.5 -10.0Q288 -2 305 7Q305 54 303.0 106.0Q301 158 297 213Q242 204 193.0 193.0Q144 182 100 170Q112 221 112 275Q112 329 100 386Q137 376 183.5 365.5Q230 355 285 346Q278 404 268.5 459.0Q259 514 245 563Q281 557 318 557Q355 557 391 563Q375 506 364.5 449.0Q354 392 347 336Q430 323 528.0 313.0Q626 303 733 298Q763 322 789.5 343.0Q816 364 837 381L853 361L776 296Q859 293 948 293V263Q891 263 837.0 261.5Q783 260 731 258Q678 212 620.0 159.5Q562 107 506.5 53.5Q451 0 405.5 -49.5Q360 -99 332 -138ZM331 21Q415 68 506.5 131.0Q598 194 677 255Q583 250 497.5 241.0Q412 232 337 220Q333 168 332.0 118.0Q331 68 331 21Z" />
  </g>
</svg>