<svg xmlns="http://www.w3.org/2000/svg" viewBox="100 -197 1539 950">
  <g transform="translate(0, 556) scale(1, -1)">
    <path fill="black" d="M930 -197Q902 -162 874.5 -137.5Q847 -113 812 -94L824 -87Q776 -43 724.0 3.0Q672 49 621.0 90.5Q570 132 527.5 163.5Q485 195 456 209Q492 230 526 259Q393 249 286.5 223.5Q180 198 100 171Q112 222 112 276Q112 330 100 387Q180 359 286.5 333.5Q393 308 526 298Q494 327 456 349Q485 363 527.5 394.0Q570 425 620.0 466.5Q670 508 722.5 554.0Q775 600 823 644L812 650Q847 670 874.5 694.0Q902 718 930 753Q938 731 963.5 693.0Q989 655 1025.0 608.0Q1061 561 1102.0 509.5Q1143 458 1183.5 409.0Q1224 360 1258 319Q1317 310 1384.5 302.5Q1452 295 1518.5 290.5Q1585 286 1639 286V267Q1583 267 1516.5 263.0Q1450 259 1383.0 252.0Q1316 245 1256 235Q1222 194 1182.0 145.0Q1142 96 1101.0 45.0Q1060 -6 1024.0 -53.0Q988 -100 963.0 -137.5Q938 -175 930 -197ZM917 476Q899 511 884.0 538.0Q869 565 855 584Q866 586 876.5 588.0Q887 590 897 594Q875 611 856 623Q832 595 806.5 564.0Q781 533 755 501Q780 492 823.5 485.5Q867 479 917 476ZM1094 124Q1123 150 1152.0 176.0Q1181 202 1206 226Q1175 220 1149.5 213.0Q1124 206 1106 199Q1110 219 1112.0 238.0Q1114 257 1114 277Q1114 296 1112.5 315.0Q1111 334 1106 354Q1139 341 1208 328Q1152 380 1086.5 438.0Q1021 496 960 545Q973 495 993.5 427.0Q1014 359 1040.5 281.5Q1067 204 1094 124ZM756 436Q759 451 758.0 466.5Q757 482 754 500Q741 484 729.5 469.5Q718 455 707 440Q726 445 748 462Q748 457 756 436ZM779 370Q782 385 781.5 401.0Q781 417 778 434Q804 424 851.0 417.0Q898 410 951 407L923 464Q871 460 828.5 453.0Q786 446 756 433ZM857 -67Q871 -57 886.0 -46.5Q901 -36 917 -23Q911 -9 894.5 24.0Q878 57 856.0 101.0Q834 145 809.5 193.5Q785 242 762.0 287.5Q739 333 720.5 368.5Q702 404 692 421Q664 385 640.5 353.0Q617 321 600 295Q613 294 625.5 294.0Q638 294 651 294V264Q638 264 625.5 263.5Q613 263 600 263Q627 222 670.0 165.5Q713 109 762.5 48.0Q812 -13 857 -67ZM803 307Q807 333 801 366Q817 360 846.5 354.5Q876 349 911.5 345.5Q947 342 982 340L955 397Q900 393 856.0 385.5Q812 378 781 366ZM827 244Q830 270 824 298Q836 292 867.0 286.5Q898 281 937.5 277.5Q977 274 1013 272L988 328Q936 324 886.0 317.0Q836 310 806 299Q811 286 816.5 272.0Q822 258 827 244ZM850 182Q851 203 847 230Q864 223 896.5 217.5Q929 212 969.0 208.5Q1009 205 1045 203Q1038 217 1031.5 231.5Q1025 246 1019 260Q967 256 915.0 249.5Q863 243 831 232Q836 219 841.0 207.0Q846 195 850 182ZM874 123Q874 132 873.0 142.0Q872 152 870 162Q888 155 922.5 149.0Q957 143 998.0 139.5Q1039 136 1076 134Q1069 148 1062.5 162.5Q1056 177 1050 191Q998 187 944.0 181.5Q890 176 857 165ZM928 -14Q964 14 1004.0 47.5Q1044 81 1084 116L1080 124Q1028 120 973.0 114.5Q918 109 883 98Z" />
  </g>
</svg>