<svg xmlns="http://www.w3.org/2000/svg" viewBox="100 -104 1105 840">
  <g transform="translate(0, 632) scale(1, -1)">
    <path fill="black" d="M1072 -104Q1072 12 1067.5 108.5Q1063 205 1055 286Q1002 285 936.0 284.0Q870 283 797 281Q793 204 791.5 124.0Q790 44 790 -37H760Q760 42 758.0 122.5Q756 203 751 280L656 277Q652 201 651.0 122.0Q650 43 650 -37H620Q620 40 618.0 119.5Q616 199 611 275Q587 274 563.5 273.5Q540 273 516 271Q512 196 511.0 119.0Q510 42 510 -37H480Q480 39 478.5 116.5Q477 194 472 269L376 263Q372 190 371.0 115.0Q370 40 370 -37H340Q340 37 338.5 111.5Q337 186 332 259Q257 253 196.0 245.5Q135 238 100 228Q106 264 106 301Q106 338 100 374Q140 363 198.0 354.5Q256 346 326 340Q319 420 308.5 492.5Q298 565 282 624Q318 618 354 618Q371 618 388.5 619.5Q406 621 422 623V624Q423 624 423.5 623.5Q424 623 425 623Q426 623 426.5 623.5Q427 624 428 624V623Q445 620 461.5 619.0Q478 618 495 618Q512 618 529.0 619.0Q546 620 562 623V624Q563 624 563.5 623.5Q564 623 565 623Q566 623 566.5 623.5Q567 624 568 624V623Q585 620 601.5 619.0Q618 618 635 618Q652 618 669.0 619.0Q686 620 702 623V624Q703 624 703.5 623.5Q704 623 705 623Q706 623 706.5 623.5Q707 624 708 624V623Q725 621 742.0 619.5Q759 618 776 618Q812 618 848 624Q828 552 816.5 475.0Q805 398 799 318Q871 317 935.0 316.5Q999 316 1052 316Q1038 447 1016.0 546.5Q994 646 969 736Q1020 724 1084 724Q1148 724 1205 736Q1188 673 1170.0 594.5Q1152 516 1136.5 415.5Q1121 315 1111.5 186.5Q1102 58 1102 -104ZM608 324Q601 405 591.0 478.5Q581 552 565 613Q547 546 536.0 474.0Q525 402 520 327ZM467 330Q461 410 450.5 481.5Q440 553 425 612Q407 547 396.5 477.5Q386 408 380 335ZM748 319Q742 402 731.5 476.5Q721 551 705 612Q686 544 675.5 471.0Q665 398 659 322Z" />
  </g>
</svg>