<svg xmlns="http://www.w3.org/2000/svg" viewBox="100 -171 1866 947">
  <g transform="translate(0, 605) scale(1, -1)">
    <path fill="black" d="M1464 -171Q1464 -120 1461.5 -69.0Q1459 -18 1454 31Q1357 52 1270.5 66.0Q1184 80 1128 84Q1188 186 1200 287Q1246 256 1307.0 220.0Q1368 184 1438 149Q1425 235 1407.5 306.5Q1390 378 1371 424Q1421 412 1474 412Q1499 412 1524.5 415.0Q1550 418 1576 422Q1570 460 1564.0 484.0Q1558 508 1551 528Q1451 479 1358.5 428.5Q1266 378 1200 332Q1195 373 1182.5 414.0Q1170 455 1149 496Q1130 385 1116.0 238.5Q1102 92 1102 -104H1072Q1072 12 1067.5 108.5Q1063 205 1055 286Q1002 285 936.0 284.0Q870 283 797 281Q793 204 791.5 124.0Q790 44 790 -37H760Q760 42 758.0 122.5Q756 203 751 280L656 277Q652 201 651.0 122.0Q650 43 650 -37H620Q620 40 618.0 119.5Q616 199 611 275Q587 274 563.5 273.5Q540 273 516 271Q512 196 511.0 119.0Q510 42 510 -37H480Q480 39 478.5 116.5Q477 194 472 269L376 263Q372 190 371.0 115.0Q370 40 370 -37H340Q340 37 338.5 111.5Q337 186 332 259Q257 253 196.0 245.5Q135 238 100 228Q106 264 106 301Q106 338 100 374Q140 363 198.0 354.5Q256 346 326 340Q319 420 308.5 492.5Q298 565 282 624Q318 618 354 618Q371 618 388.5 619.5Q406 621 422 623V624Q423 624 423.5 623.5Q424 623 425 623Q426 623 426.5 623.5Q427 624 428 624V623Q445 620 461.5 619.0Q478 618 495 618Q512 618 529.0 619.0Q546 620 562 623V624Q563 624 563.5 623.5Q564 623 565 623Q566 623 566.5 623.5Q567 624 568 624V623Q585 620 601.5 619.0Q618 618 635 618Q652 618 669.0 619.0Q686 620 702 623V624Q703 624 703.5 623.5Q704 623 705 623Q706 623 706.5 623.5Q707 624 708 624V623Q725 621 742.0 619.5Q759 618 776 618Q812 618 848 624Q828 552 816.5 475.0Q805 398 799 318Q871 317 935.0 316.5Q999 316 1052 316Q1038 447 1016.0 546.5Q994 646 969 736Q1020 724 1084 724Q1148 724 1205 736Q1193 693 1181.0 644.0Q1169 595 1157 537Q1214 542 1288.0 554.5Q1362 567 1445.5 585.0Q1529 603 1613.5 624.0Q1698 645 1775 668Q1769 698 1762.5 725.0Q1756 752 1750 776Q1801 764 1855 764Q1909 764 1966 776Q1953 727 1939.5 651.5Q1926 576 1914.5 485.5Q1903 395 1894.0 300.0Q1885 205 1879.5 116.0Q1874 27 1873 -44L1939 -68L1929 -97Q1873 -77 1803.0 -56.5Q1733 -36 1656.5 -16.5Q1580 3 1503 20Q1499 -26 1497.0 -74.5Q1495 -123 1495 -171ZM1613 191Q1632 220 1646.5 245.5Q1661 271 1673 293Q1672 316 1668.0 343.5Q1664 371 1658.5 397.5Q1653 424 1647.5 443.0Q1642 462 1638 467Q1647 465 1656.5 464.0Q1666 463 1676 463Q1686 463 1696.5 464.0Q1707 465 1719 467Q1714 462 1707.0 437.0Q1700 412 1694.0 379.5Q1688 347 1685 317Q1702 354 1715.0 386.5Q1728 419 1741 453Q1742 450 1745 449Q1737 478 1728.0 501.0Q1719 524 1712 532Q1722 530 1733.5 529.0Q1745 528 1757 528Q1776 528 1797 531L1782 630Q1727 608 1670.0 582.5Q1613 557 1556 530Q1567 528 1577.5 527.0Q1588 526 1599 526Q1625 526 1652 532Q1644 507 1636.5 469.0Q1629 431 1623.0 365.0Q1617 299 1613 191ZM608 324Q601 405 591.0 478.5Q581 552 565 613Q547 546 536.0 474.0Q525 402 520 327ZM748 319Q742 402 731.5 476.5Q721 551 705 612Q686 544 675.5 471.0Q665 398 659 322ZM467 330Q461 410 450.5 481.5Q440 553 425 612Q407 547 396.5 477.5Q386 408 380 335ZM1814 395Q1810 430 1806.0 463.5Q1802 497 1797 530Q1790 520 1779.5 493.0Q1769 466 1761 434Q1775 423 1788.0 413.0Q1801 403 1814 395ZM1843 -32Q1842 53 1835.0 157.5Q1828 262 1817 368Q1770 334 1722.5 290.5Q1675 247 1613 171V168H1601Q1595 252 1589.5 309.0Q1584 366 1579 406Q1560 354 1542.5 278.0Q1525 202 1513 112Q1596 72 1681.0 34.5Q1766 -3 1843 -32Z" />
  </g>
</svg>