<svg xmlns="http://www.w3.org/2000/svg" viewBox="100 -161 1896 937">
  <g transform="translate(0, 615) scale(1, -1)">
    <path fill="black" d="M1414 -161Q1414 -110 1411.5 -59.0Q1409 -8 1404 41Q1321 58 1249.5 69.5Q1178 81 1128 84Q1188 186 1200 287Q1237 262 1284.5 233.5Q1332 205 1386 176Q1374 247 1359.5 308.0Q1345 369 1329 412Q1293 392 1260.5 371.5Q1228 351 1200 332Q1195 373 1182.5 414.0Q1170 455 1149 496Q1130 385 1116.0 238.5Q1102 92 1102 -104H1072Q1072 12 1067.5 108.5Q1063 205 1055 286Q1002 285 936.0 284.0Q870 283 797 281Q793 204 791.5 124.0Q790 44 790 -37H760Q760 42 758.0 122.5Q756 203 751 280L656 277Q652 201 651.0 122.0Q650 43 650 -37H620Q620 40 618.0 119.5Q616 199 611 275Q587 274 563.5 273.5Q540 273 516 271Q512 196 511.0 119.0Q510 42 510 -37H480Q480 39 478.5 116.5Q477 194 472 269L376 263Q372 190 371.0 115.0Q370 40 370 -37H340Q340 37 338.5 111.5Q337 186 332 259Q257 253 196.0 245.5Q135 238 100 228Q106 264 106 301Q106 338 100 374Q140 363 198.0 354.5Q256 346 326 340Q319 420 308.5 492.5Q298 565 282 624Q318 618 354 618Q371 618 388.5 619.5Q406 621 422 623V624Q423 624 423.5 623.5Q424 623 425 623Q426 623 426.5 623.5Q427 624 428 624V623Q445 620 461.5 619.0Q478 618 495 618Q512 618 529.0 619.0Q546 620 562 623V624Q563 624 563.5 623.5Q564 623 565 623Q566 623 566.5 623.5Q567 624 568 624V623Q585 620 601.5 619.0Q618 618 635 618Q652 618 669.0 619.0Q686 620 702 623V624Q703 624 703.5 623.5Q704 623 705 623Q706 623 706.5 623.5Q707 624 708 624V623Q725 621 742.0 619.5Q759 618 776 618Q812 618 848 624Q828 552 816.5 475.0Q805 398 799 318Q871 317 935.0 316.5Q999 316 1052 316Q1038 447 1016.0 546.5Q994 646 969 736Q1020 724 1084 724Q1148 724 1205 736Q1193 693 1181.0 644.0Q1169 595 1157 537Q1216 543 1294.5 556.5Q1373 570 1461.0 588.5Q1549 607 1637.0 629.5Q1725 652 1803 676Q1797 704 1791.5 729.0Q1786 754 1780 776Q1831 764 1885 764Q1939 764 1996 776Q1982 726 1968.5 649.0Q1955 572 1943.5 479.5Q1932 387 1922.5 291.0Q1913 195 1908.0 105.5Q1903 16 1903 -55L1939 -68L1929 -97Q1867 -75 1788.0 -52.5Q1709 -30 1623.0 -8.5Q1537 13 1453 31Q1449 -16 1447.0 -64.5Q1445 -113 1445 -161ZM1796 328Q1793 349 1790.5 364.0Q1788 379 1786 384Q1816 377 1846 380Q1839 450 1830.0 516.5Q1821 583 1810 642Q1737 613 1658.0 577.5Q1579 542 1502.0 504.0Q1425 466 1356 427Q1373 425 1390.0 423.5Q1407 422 1424 422Q1478 422 1536 434Q1529 418 1522.5 399.5Q1516 381 1510 359Q1526 355 1560.0 350.0Q1594 345 1637.0 340.0Q1680 335 1722.0 332.0Q1764 329 1796 328ZM608 324Q601 405 591.0 478.5Q581 552 565 613Q547 546 536.0 474.0Q525 402 520 327ZM748 319Q742 402 731.5 476.5Q721 551 705 612Q686 544 675.5 471.0Q665 398 659 322ZM467 330Q461 410 450.5 481.5Q440 553 425 612Q407 547 396.5 477.5Q386 408 380 335ZM1873 -44Q1872 30 1867.0 120.5Q1862 211 1854 305Q1849 264 1844.0 215.0Q1839 166 1835.5 122.5Q1832 79 1831 55H1823Q1822 75 1819.5 107.0Q1817 139 1813.5 177.0Q1810 215 1805.5 253.0Q1801 291 1797 321Q1763 320 1717.5 316.5Q1672 313 1627.0 307.5Q1582 302 1548.5 297.0Q1515 292 1504 288Q1507 303 1508.5 318.0Q1510 333 1507 348Q1495 304 1484.0 250.0Q1473 196 1465 135L1508 114Q1510 127 1509.5 140.0Q1509 153 1504 167Q1519 162 1558 156Q1550 207 1541 220Q1555 219 1569.0 218.5Q1583 218 1598 219V220Q1612 219 1627.0 219.0Q1642 219 1658 220Q1654 214 1649.5 193.5Q1645 173 1640 146Q1657 144 1675.0 142.5Q1693 141 1709 139Q1726 150 1745.5 165.0Q1765 180 1799 204L1806 198Q1793 179 1781.0 161.0Q1769 143 1764 132Q1768 126 1775.5 113.5Q1783 101 1792.0 88.0Q1801 75 1806 66L1799 58Q1771 81 1750.5 96.0Q1730 111 1713 122L1637 114Q1636 99 1634.5 84.5Q1633 70 1633 56Q1695 28 1756.5 2.5Q1818 -23 1873 -44ZM1615 149Q1609 199 1600 216Q1593 198 1585 153Q1593 152 1600.5 151.0Q1608 150 1615 149ZM1623 60Q1623 73 1622.0 86.0Q1621 99 1620 112L1579 107Q1578 101 1577.5 94.5Q1577 88 1577 82Q1588 77 1599.5 71.0Q1611 65 1623 60ZM1566 87 1564 105 1536 101Q1544 97 1551.5 93.5Q1559 90 1566 87Z" />
  </g>
</svg>