<svg xmlns="http://www.w3.org/2000/svg" viewBox="100 -250 1216 997">
  <g transform="translate(0, 497) scale(1, -1)">
    <path fill="black" d="M882 -250 854 -238Q901 -131 936.5 -41.5Q972 48 997 125Q948 147 887.0 172.5Q826 198 758 226Q723 157 689.5 84.0Q656 11 623 -63L596 -51Q628 21 658.5 95.5Q689 170 716 243L628 279Q594 211 560.5 139.5Q527 68 495 -6L468 6Q499 77 529.5 150.0Q560 223 586 295L497 330Q463 263 431.0 193.0Q399 123 367 51L340 63Q370 132 400.0 204.0Q430 276 456 346L366 379Q333 314 301.5 245.5Q270 177 239 107L212 119Q241 186 270.5 255.5Q300 325 325 394Q254 419 195.5 436.0Q137 453 100 459Q120 490 135.0 523.5Q150 557 159 592Q191 566 241.0 534.5Q291 503 352 469Q378 546 397.5 616.0Q417 686 426 747Q455 728 487.5 713.5Q520 699 554 690V691Q556 689 557 689Q558 688 560 688L559 687Q588 669 619.0 655.5Q650 642 682 633V634L683 633Q684 632 688 632Q687 631 687 630Q716 612 747.0 598.5Q778 585 810 576V577Q812 575 816 575Q815 574 815 573Q844 555 877.0 540.5Q910 526 944 518Q896 460 854.5 395.0Q813 330 775 259Q840 228 898.5 202.0Q957 176 1006 154Q1046 280 1066.5 379.5Q1087 479 1100 572Q1142 541 1200.5 514.5Q1259 488 1316 476Q1275 426 1226.5 361.5Q1178 297 1123.0 211.0Q1068 125 1007.5 11.5Q947 -102 882 -250ZM477 403Q503 478 522.5 548.0Q542 618 552 678Q509 626 471.5 566.5Q434 507 399 443ZM603 341Q630 418 650.0 489.5Q670 561 680 622Q637 568 597.5 507.0Q558 446 523 380ZM729 280Q757 358 777.5 430.5Q798 503 808 565Q764 510 724.5 448.0Q685 386 649 318Z" />
  </g>
</svg>