<svg xmlns="http://www.w3.org/2000/svg" viewBox="100 -372 1198 1257">
  <g transform="translate(0, 513) scale(1, -1)">
    <path fill="black" d="M704 -372Q657 -325 605.0 -275.0Q553 -225 500 -178Q457 -229 425.0 -269.0Q393 -309 379 -334Q360 -309 338.0 -286.5Q316 -264 291 -246Q318 -231 357.5 -200.5Q397 -170 444 -130Q392 -86 342.0 -48.5Q292 -11 250 13Q275 30 296.5 51.0Q318 72 334 97H335L337 101Q337 100 338 99Q361 116 382.0 136.5Q403 157 419 180L418 181L420 182L421 184V183Q445 200 465.5 220.5Q486 241 502 264L501 265Q554 300 590 353Q619 301 658.5 248.0Q698 195 743 142L782 180Q739 221 689.5 269.0Q640 317 587 367Q531 318 476.0 265.0Q421 212 370 161L351 180Q401 229 454.0 284.5Q507 340 556 396L499 450Q444 401 389.5 348.5Q335 296 285 245L267 263Q316 312 368.5 367.0Q421 422 470 477L412 530Q357 481 304.5 430.0Q252 379 202 329L183 347Q231 395 282.0 448.5Q333 502 382 557L322 609Q270 562 218.0 512.0Q166 462 117 413L100 431Q147 478 196.5 530.0Q246 582 293 635Q243 679 202.5 710.5Q162 742 138 756Q162 775 185.0 797.0Q208 819 226 844Q241 817 271.0 777.0Q301 737 341 690Q386 743 423.0 792.5Q460 842 485 885Q519 835 569 800L573 798Q572 797 571 797Q606 751 652 716L653 717L654 715L656 714L655 713Q690 665 736 632L737 634L740 628Q772 652 803.0 685.5Q834 719 856 753Q886 700 927.0 635.0Q968 570 1028.0 491.0Q1088 412 1175 316Q1187 306 1199.5 296.5Q1212 287 1225 279L1215 273Q1235 253 1255.5 231.5Q1276 210 1298 188L1281 171Q1257 194 1234.5 216.5Q1212 239 1190 259Q1126 221 1042.5 161.0Q959 101 858 15L974 -102L956 -121Q928 -92 898.0 -62.5Q868 -33 836 -4Q820 -18 802.5 -32.5Q785 -47 768 -63Q799 -95 829.5 -126.0Q860 -157 890 -187L872 -205Q812 -144 747 -83Q731 -97 715.0 -112.5Q699 -128 682 -144Q713 -176 744.0 -207.5Q775 -239 806 -270L788 -289Q727 -228 661 -165L631 -195L614 -178L643 -148L578 -90L525 -149Q573 -202 623.0 -253.5Q673 -305 722 -355ZM420 600Q464 652 501.5 701.0Q539 750 564 793Q517 765 469.0 729.5Q421 694 373 653Q384 640 395.5 627.0Q407 614 420 600ZM501 512Q547 565 585.5 616.0Q624 667 649 710Q600 682 550.5 644.5Q501 607 452 565ZM582 425Q624 474 660.0 520.5Q696 567 722 608L716 612L729 620L732 625Q683 596 632.5 558.5Q582 521 532 478Q545 465 557.0 452.0Q569 439 582 425ZM802 198Q867 260 922.0 315.0Q977 370 1017 410Q957 459 904.5 495.0Q852 531 803 561Q808 557 813.5 553.0Q819 549 825 545Q773 516 720.0 476.5Q667 437 614 391Q664 339 712.0 289.5Q760 240 802 198ZM881 118Q939 191 982.0 255.0Q1025 319 1059 376L1037 394Q997 354 942.0 297.0Q887 240 825 175ZM656 60Q670 73 683.0 85.0Q696 97 709 110Q656 157 604.5 195.5Q553 234 509 260Q538 211 575.5 160.5Q613 110 656 60ZM569 -20 623 29Q570 75 519.5 113.5Q469 152 425 177Q454 128 490.5 78.5Q527 29 569 -20ZM825 50 865 98 806 156 767 115Q781 99 795.5 82.5Q810 66 825 50ZM481 -98 534 -51Q482 -7 433.0 30.0Q384 67 342 92Q370 45 405.5 -3.0Q441 -51 481 -98ZM746 -39Q761 -22 776.0 -6.0Q791 10 804 26Q788 41 771.5 55.5Q755 70 739 84L685 27ZM665 -126 725 -63Q709 -47 692.0 -32.0Q675 -17 658 -2L605 -60Q634 -93 665 -126Z" />
  </g>
</svg>