<svg xmlns="http://www.w3.org/2000/svg" viewBox="100 -440 1446 1236">
  <g transform="translate(0, 356) scale(1, -1)">
    <path fill="black" d="M1115 -440Q1115 -405 1113.0 -369.5Q1111 -334 1108 -300Q1047 -289 1000.5 -284.0Q954 -279 910 -278Q930 -243 941.0 -206.0Q952 -169 955 -132Q991 -154 1025.0 -173.0Q1059 -192 1099 -212Q1090 -145 1077.5 -89.0Q1065 -33 1051 1Q1026 -12 1003.0 -25.5Q980 -39 955 -55Q952 -19 941.0 18.0Q930 55 910 91Q952 92 997.0 96.5Q1042 101 1098.5 110.5Q1155 120 1229.0 137.0Q1303 154 1402 180L1393 214Q1408 210 1424 208Q1333 231 1263.5 248.0Q1194 265 1138 276Q1136 243 1134.5 209.5Q1133 176 1133 142H1115Q1115 177 1113.0 212.5Q1111 248 1108 282Q1047 293 1000.5 298.0Q954 303 910 304Q930 339 941.0 376.0Q952 413 955 450Q991 428 1025.0 409.0Q1059 390 1099 370Q1090 437 1077.5 492.5Q1065 548 1051 583Q1026 570 1003.0 556.0Q980 542 955 527Q952 563 941.0 600.0Q930 637 910 673Q952 674 997.0 678.5Q1042 683 1098.5 692.5Q1155 702 1229.0 719.0Q1303 736 1402 762L1393 796Q1411 792 1429.5 790.0Q1448 788 1467 788Q1486 788 1506.0 790.0Q1526 792 1546 796Q1534 752 1524.5 702.5Q1515 653 1508.0 587.0Q1501 521 1496.0 430.0Q1491 339 1487 213L1503 207Q1514 209 1524.5 210.5Q1535 212 1546 214Q1534 170 1524.5 120.5Q1515 71 1508.0 5.5Q1501 -60 1496.0 -151.0Q1491 -242 1487 -368L1507 -376L1501 -394Q1381 -362 1293.0 -340.5Q1205 -319 1138 -306Q1136 -338 1134.5 -371.5Q1133 -405 1133 -440ZM495 229 475 240Q498 284 519.0 326.5Q540 369 558 409L494 441Q472 404 450.0 363.5Q428 323 404 277L384 288Q407 332 428.0 373.5Q449 415 467 454L400 486Q378 450 356.5 410.0Q335 370 312 325L292 336Q315 379 335.5 419.5Q356 460 373 498Q356 506 339.5 513.5Q323 521 306 528Q285 493 264.5 455.0Q244 417 221 373L202 383Q223 424 242.5 463.0Q262 502 279 539Q233 557 190.5 571.0Q148 585 113 593Q129 616 142.0 640.0Q155 664 163 689Q192 661 226.5 635.0Q261 609 299 583Q322 637 339.0 688.5Q356 740 367 790Q409 756 459 741V742L460 740H463L462 739Q502 706 550 693V694L551 693H553L552 692Q572 676 594.5 665.0Q617 654 640 646L641 647L642 645H644L643 644Q665 628 688.0 616.0Q711 604 737 596Q685 541 645.5 485.5Q606 430 571.0 368.0Q536 306 495 229ZM816 -324Q816 -238 812.5 -167.0Q809 -96 804 -37Q765 -37 715.0 -37.5Q665 -38 611 -40Q609 -83 608.5 -128.0Q608 -173 608 -225H585Q585 -175 584.0 -129.5Q583 -84 580 -41Q562 -41 544.0 -41.5Q526 -42 508 -43Q506 -85 505.0 -130.0Q504 -175 504 -225H482Q482 -176 481.0 -131.0Q480 -86 478 -44L404 -48Q402 -88 401.5 -131.5Q401 -175 401 -225H379Q379 -178 378.0 -134.0Q377 -90 375 -49L301 -54Q299 -93 298.5 -135.5Q298 -178 298 -225H276Q276 -180 275.0 -138.0Q274 -96 272 -56Q217 -60 171.5 -66.0Q126 -72 100 -80Q102 -67 103.0 -53.0Q104 -39 104 -26Q104 -12 103.0 1.5Q102 15 100 28Q129 20 172.5 13.5Q216 7 268 2Q264 59 256.0 111.0Q248 163 234 212Q248 209 261.0 208.0Q274 207 287 207Q300 207 312.5 208.0Q325 209 337 211V212L339 211L341 212V211Q353 209 365.0 207.5Q377 206 390 206Q402 206 414.5 207.5Q427 209 440 211V212L442 211L444 212V211Q456 209 468.0 207.5Q480 206 493 206Q505 206 517.5 207.5Q530 209 543 211V212L545 211L547 212V211Q559 209 571.5 208.0Q584 207 597 207Q611 207 624.5 208.0Q638 209 651 212Q635 153 626.0 98.0Q617 43 613 -13Q666 -14 714.0 -14.5Q762 -15 801 -15Q791 82 775.0 154.5Q759 227 740 294Q756 290 774.5 287.5Q793 285 812 285Q807 390 796.5 469.5Q786 549 771.5 613.0Q757 677 740 736Q776 727 824 727Q871 727 913 736Q892 661 870.5 554.0Q849 447 841 285Q879 287 913 294Q896 233 878.5 149.5Q861 66 849.0 -49.5Q837 -165 837 -324ZM1467 221Q1460 331 1453.5 410.0Q1447 489 1440.5 546.5Q1434 604 1426.5 648.5Q1419 693 1409 734Q1321 701 1257.5 675.5Q1194 650 1147.5 629.5Q1101 609 1063 589Q1080 587 1095.0 585.5Q1110 584 1124 584Q1144 584 1162.5 586.0Q1181 588 1200 592Q1183 549 1168.5 486.0Q1154 423 1145 348Q1201 324 1277.5 294.0Q1354 264 1467 221ZM386 528Q410 582 428.0 633.0Q446 684 457 734Q419 692 388.0 650.5Q357 609 328 564ZM476 477Q501 533 519.5 585.0Q538 637 549 688Q509 645 476.5 601.5Q444 558 415 511ZM567 428Q591 484 609.0 536.0Q627 588 638 638Q598 595 566.5 551.5Q535 508 506 461ZM579 -12Q570 107 545 204Q530 148 522.0 95.5Q514 43 509 -10ZM475 -9Q468 107 442 204Q427 149 419.0 98.0Q411 47 406 -6ZM372 -5Q368 52 360.0 104.0Q352 156 339 204Q311 101 304 0ZM1467 -361Q1460 -251 1453.5 -172.0Q1447 -93 1440.5 -35.5Q1434 22 1426.5 66.5Q1419 111 1409 152Q1322 118 1258.5 93.0Q1195 68 1148.5 47.5Q1102 27 1064 7Q1080 5 1095.5 3.5Q1111 2 1125 2Q1145 2 1163.0 4.0Q1181 6 1200 10Q1183 -33 1168.5 -96.0Q1154 -159 1145 -234Q1201 -259 1277.5 -288.5Q1354 -318 1467 -361Z" />
  </g>
</svg>