<svg xmlns="http://www.w3.org/2000/svg" viewBox="100 -393 610 1344">
  <g transform="translate(0, 558) scale(1, -1)">
    <path fill="black" d="M446 -393Q426 -367 406.0 -349.5Q386 -332 360 -318L370 -312Q335 -280 296.5 -246.5Q258 -213 221.0 -182.5Q184 -152 152.5 -129.0Q121 -106 100 -96Q135 -76 165 -45Q135 -14 100 6Q121 16 152.0 38.5Q183 61 220.0 91.5Q257 122 295.0 155.5Q333 189 368 221Q366 223 364.0 224.0Q362 225 360 226Q397 246 427 279Q412 296 396.0 308.5Q380 321 360 332L370 337Q335 369 296.5 403.0Q258 437 221.0 467.5Q184 498 152.5 521.0Q121 544 100 554Q135 574 165 605Q135 636 100 656Q121 666 152.0 688.5Q183 711 220.0 741.5Q257 772 295.0 805.5Q333 839 368 871Q366 873 364.0 874.0Q362 875 360 876Q408 903 446 951Q453 934 474.5 902.5Q496 871 526.0 831.5Q556 792 589.5 750.5Q623 709 654.0 671.0Q685 633 708 604H710Q685 572 648.5 528.0Q612 484 574.5 437.5Q537 391 505.5 349.0Q474 307 457 279Q474 251 505.5 209.0Q537 167 574.5 120.0Q612 73 648.5 29.5Q685 -14 710 -46Q687 -75 655.5 -113.0Q624 -151 590.5 -192.5Q557 -234 526.5 -273.0Q496 -312 474.5 -343.5Q453 -375 446 -393ZM393 352Q396 354 399.5 356.0Q403 358 406 361Q405 418 400.0 481.5Q395 545 386.0 607.5Q377 670 363 723Q376 721 389.5 719.5Q403 718 416 718Q430 718 443.5 719.5Q457 721 470 723Q445 634 436.5 545.0Q428 456 426 376Q467 407 514.5 447.5Q562 488 607.5 529.5Q653 571 688 604Q658 633 619.0 668.0Q580 703 539.0 739.0Q498 775 460.0 806.0Q422 837 392 857Q357 815 318.5 767.5Q280 720 248.0 677.0Q216 634 198 605Q216 576 248.5 532.5Q281 489 319.5 442.0Q358 395 393 352ZM393 -298 406 -289Q405 -232 400.0 -168.0Q395 -104 386.0 -41.5Q377 21 363 73Q376 71 389.5 69.5Q403 68 416 68Q430 68 443.5 69.5Q457 71 470 73Q445 -15 436.5 -104.5Q428 -194 426 -274Q467 -243 514.5 -202.5Q562 -162 607.5 -120.5Q653 -79 688 -46Q658 -17 619.0 18.0Q580 53 539.0 89.0Q498 125 460.0 156.0Q422 187 392 207Q357 165 318.5 117.5Q280 70 248.0 27.0Q216 -16 198 -45Q216 -74 248.5 -117.0Q281 -160 319.5 -208.0Q358 -256 393 -298Z" />
  </g>
</svg>