<svg xmlns="http://www.w3.org/2000/svg" viewBox="100 -393 1983 1344">
  <g transform="translate(0, 558) scale(1, -1)">
    <path fill="black" d="M446 -393Q426 -367 406.0 -349.5Q386 -332 360 -318L370 -312Q335 -280 296.5 -246.5Q258 -213 221.0 -182.5Q184 -152 152.5 -129.0Q121 -106 100 -96Q135 -76 165 -45Q135 -14 100 6Q121 16 152.0 38.5Q183 61 220.0 91.5Q257 122 295.0 155.5Q333 189 368 221Q366 223 364.0 224.0Q362 225 360 226Q397 246 427 279Q412 296 396.0 308.5Q380 321 360 332L370 337Q335 369 296.5 403.0Q258 437 221.0 467.5Q184 498 152.5 521.0Q121 544 100 554Q135 574 165 605Q135 636 100 656Q121 666 152.0 688.5Q183 711 220.0 741.5Q257 772 295.0 805.5Q333 839 368 871Q366 873 364.0 874.0Q362 875 360 876Q408 903 446 951Q453 934 474.5 902.5Q496 871 526.0 831.5Q556 792 589.5 750.5Q623 709 654.0 671.0Q685 633 708 604H710Q685 572 648.5 528.0Q612 484 574.5 437.5Q537 391 505.5 349.0Q474 307 457 279Q474 251 505.5 209.0Q537 167 574.5 120.0Q612 73 648.5 29.5Q685 -14 710 -46Q687 -75 655.5 -113.0Q624 -151 590.5 -192.5Q557 -234 526.5 -273.0Q496 -312 474.5 -343.5Q453 -375 446 -393ZM393 352Q396 354 399.5 356.0Q403 358 406 361Q405 418 400.0 481.5Q395 545 386.0 607.5Q377 670 363 723Q376 721 389.5 719.5Q403 718 416 718Q430 718 443.5 719.5Q457 721 470 723Q445 634 436.5 545.0Q428 456 426 376Q467 407 514.5 447.5Q562 488 607.5 529.5Q653 571 688 604Q658 633 619.0 668.0Q580 703 539.0 739.0Q498 775 460.0 806.0Q422 837 392 857Q357 815 318.5 767.5Q280 720 248.0 677.0Q216 634 198 605Q216 576 248.5 532.5Q281 489 319.5 442.0Q358 395 393 352ZM974 -241Q955 -125 896 -40Q948 -35 1021.0 -18.5Q1094 -2 1184 23L1180 71Q1125 66 1086.0 59.5Q1047 53 1030 47Q1032 60 1033.5 75.5Q1035 91 1035 107Q1035 124 1033.5 140.5Q1032 157 1030 173Q1044 167 1081.0 160.5Q1118 154 1171 149Q1166 190 1159.5 224.5Q1153 259 1145 275Q1167 270 1192 270Q1217 270 1242 275H1243Q1265 270 1290 270Q1315 270 1340 275Q1334 260 1327.5 221.5Q1321 183 1316 136L1368 133Q1362 180 1355.0 218.0Q1348 256 1340 275Q1362 270 1388 270Q1413 270 1438 275Q1431 259 1424.5 219.0Q1418 179 1413 130L1466 127Q1461 175 1453.5 215.5Q1446 256 1438 275Q1460 270 1486 270Q1511 270 1536 275Q1529 259 1522.5 217.0Q1516 175 1510 125Q1513 125 1515.5 124.5Q1518 124 1521 124L1593 147Q1590 187 1585.0 232.0Q1580 277 1574.0 319.0Q1568 361 1560 390Q1482 387 1409.0 379.5Q1336 372 1278.5 361.0Q1221 350 1190 338Q1192 351 1193.5 366.5Q1195 382 1195 398Q1195 415 1193.5 431.5Q1192 448 1190 464Q1215 453 1271.0 442.0Q1327 431 1401.0 423.0Q1475 415 1553 412L1550 421Q1570 416 1593 416Q1443 464 1312.0 502.5Q1181 541 1077.5 566.5Q974 592 905 599Q964 685 983 800Q1021 772 1093.5 732.0Q1166 692 1264.0 644.5Q1362 597 1478.0 544.5Q1594 492 1718 437Q1666 471 1619.0 497.0Q1572 523 1540 533Q1566 553 1585.5 576.0Q1605 599 1624 633Q1634 615 1659.0 585.0Q1684 555 1719.0 518.5Q1754 482 1792.0 444.5Q1830 407 1865 374L2083 281L1864 188L1776 101V99H1773Q1722 48 1680.0 2.0Q1638 -44 1624 -70Q1605 -35 1585.5 -12.5Q1566 10 1540 30Q1565 38 1601.5 56.5Q1638 75 1678 100H1662Q1621 82 1580.5 63.5Q1540 45 1501 28L1496 -58H1485Q1484 -42 1482.0 -22.5Q1480 -3 1478 17L1400 -18Q1399 -28 1398.5 -39.0Q1398 -50 1398 -58H1387L1384 -26Q1241 -92 1132.5 -147.5Q1024 -203 974 -241ZM918 -161Q768 0 672.0 108.5Q576 217 510 277Q552 320 619.0 383.0Q686 446 764.5 529.5Q843 613 916 716L937 706Q893 608 850.0 533.5Q807 459 769.5 397.5Q732 336 702 277Q734 214 793.0 103.0Q852 -8 937 -146ZM1679 389 1642 401 1639 391Q1649 390 1659.0 389.5Q1669 389 1679 389ZM1682 175 1755 199Q1748 229 1738.5 252.5Q1729 276 1718 292Q1723 291 1729.0 290.0Q1735 289 1742 288Q1738 309 1732.5 325.0Q1727 341 1719 358Q1728 356 1739.5 355.0Q1751 354 1763 354Q1769 354 1775.5 354.0Q1782 354 1788 355L1715 378Q1705 344 1695.5 287.5Q1686 231 1682 175ZM1610 153 1668 171Q1662 224 1654.0 275.0Q1646 326 1634 363Q1627 319 1620.5 261.0Q1614 203 1610 153ZM1787 209 1879 239Q1895 251 1908.5 261.5Q1922 272 1932 281Q1922 291 1907.5 302.0Q1893 313 1876 326L1811 347Q1807 335 1802.5 321.0Q1798 307 1794 288Q1800 289 1805.5 290.0Q1811 291 1816 292Q1809 279 1801.0 258.0Q1793 237 1787 209ZM1938 258 2015 282 1934 308Q1942 300 1949.5 293.0Q1957 286 1963 281ZM1269 140Q1263 184 1256.5 220.0Q1250 256 1242 274Q1237 259 1230.5 223.5Q1224 188 1219 144Q1231 143 1243.5 142.0Q1256 141 1269 140ZM393 -298 406 -289Q405 -232 400.0 -168.0Q395 -104 386.0 -41.5Q377 21 363 73Q376 71 389.5 69.5Q403 68 416 68Q430 68 443.5 69.5Q457 71 470 73Q445 -15 436.5 -104.5Q428 -194 426 -274Q467 -243 514.5 -202.5Q562 -162 607.5 -120.5Q653 -79 688 -46Q658 -17 619.0 18.0Q580 53 539.0 89.0Q498 125 460.0 156.0Q422 187 392 207Q357 165 318.5 117.5Q280 70 248.0 27.0Q216 -16 198 -45Q216 -74 248.5 -117.0Q281 -160 319.5 -208.0Q358 -256 393 -298ZM1707 119H1709L1713 122ZM1308 59 1374 79Q1373 81 1373 87Q1357 86 1341.0 85.0Q1325 84 1310 83Q1309 77 1308.5 71.0Q1308 65 1308 59ZM1208 30 1279 50 1276 80 1212 74Z" />
  </g>
</svg>