<svg xmlns="http://www.w3.org/2000/svg" viewBox="100 -393 1983 1344">
  <g transform="translate(0, 558) scale(1, -1)">
    <path fill="black" d="M446 -393Q426 -367 406.0 -349.5Q386 -332 360 -318L370 -312Q335 -280 296.5 -246.5Q258 -213 221.0 -182.5Q184 -152 152.5 -129.0Q121 -106 100 -96Q135 -76 165 -45Q135 -14 100 6Q121 16 152.0 38.5Q183 61 220.0 91.5Q257 122 295.0 155.5Q333 189 368 221Q366 223 364.0 224.0Q362 225 360 226Q397 246 427 279Q412 296 396.0 308.5Q380 321 360 332L370 337Q335 369 296.5 403.0Q258 437 221.0 467.5Q184 498 152.5 521.0Q121 544 100 554Q135 574 165 605Q135 636 100 656Q121 666 152.0 688.5Q183 711 220.0 741.5Q257 772 295.0 805.5Q333 839 368 871Q366 873 364.0 874.0Q362 875 360 876Q408 903 446 951Q453 934 474.5 902.5Q496 871 526.0 831.5Q556 792 589.5 750.5Q623 709 654.0 671.0Q685 633 708 604H710Q685 572 648.5 528.0Q612 484 574.5 437.5Q537 391 505.5 349.0Q474 307 457 279Q474 251 505.5 209.0Q537 167 574.5 120.0Q612 73 648.5 29.5Q685 -14 710 -46Q687 -75 655.5 -113.0Q624 -151 590.5 -192.5Q557 -234 526.5 -273.0Q496 -312 474.5 -343.5Q453 -375 446 -393ZM393 352Q396 354 399.5 356.0Q403 358 406 361Q405 418 400.0 481.5Q395 545 386.0 607.5Q377 670 363 723Q376 721 389.5 719.5Q403 718 416 718Q430 718 443.5 719.5Q457 721 470 723Q445 634 436.5 545.0Q428 456 426 376Q467 407 514.5 447.5Q562 488 607.5 529.5Q653 571 688 604Q658 633 619.0 668.0Q580 703 539.0 739.0Q498 775 460.0 806.0Q422 837 392 857Q357 815 318.5 767.5Q280 720 248.0 677.0Q216 634 198 605Q216 576 248.5 532.5Q281 489 319.5 442.0Q358 395 393 352ZM974 -241Q955 -125 896 -40Q966 -32 1073.0 -5.5Q1180 21 1315.0 61.5Q1450 102 1604 151Q1603 173 1602.0 195.5Q1601 218 1599 241Q1522 240 1473.5 232.0Q1425 224 1392.0 212.0Q1359 200 1325 187Q1327 200 1328.5 215.5Q1330 231 1330 247Q1330 264 1328.5 280.5Q1327 297 1325 313Q1352 301 1383.0 289.5Q1414 278 1461.0 270.0Q1508 262 1579 260Q1528 297 1488.5 315.5Q1449 334 1415.0 343.5Q1381 353 1343 362Q1363 380 1382.0 407.5Q1401 435 1416 465Q1440 424 1479.0 374.0Q1518 324 1591 274L1580 260Q1585 260 1589.5 259.5Q1594 259 1598 259Q1595 300 1592.0 341.0Q1589 382 1584 419Q1436 466 1307.0 504.0Q1178 542 1075.5 567.0Q973 592 905 599Q964 685 983 800Q1027 768 1114.0 721.0Q1201 674 1319.0 618.5Q1437 563 1573 502Q1564 565 1553 592Q1579 586 1612 586Q1626 586 1640.0 587.5Q1654 589 1668 590V592Q1669 591 1673 591L1679 592L1678 590Q1689 588 1702.0 587.0Q1715 586 1728 586Q1742 586 1756.0 587.0Q1770 588 1783 590V592Q1784 591 1788 591L1794 592L1793 590Q1804 589 1817.0 587.5Q1830 586 1843 586Q1876 586 1909 592Q1899 570 1890.0 509.0Q1881 448 1873 370L2083 281L1859 185Q1858 160 1857.0 135.5Q1856 111 1855 88L1902 129L1917 119Q1895 85 1879.5 54.5Q1864 24 1848 -5Q1864 -33 1879.5 -63.5Q1895 -94 1917 -129L1902 -142Q1859 -103 1833.0 -79.5Q1807 -56 1787.0 -39.5Q1767 -23 1740 -5Q1759 12 1781.0 28.5Q1803 45 1837 73Q1836 96 1835.5 122.0Q1835 148 1833 174L1742 135L1740 85Q1751 94 1764.0 105.0Q1777 116 1791 129L1806 119Q1784 85 1768.5 54.5Q1753 24 1737 -5Q1753 -33 1768.5 -63.5Q1784 -94 1806 -129L1791 -142Q1748 -103 1722.0 -79.5Q1696 -56 1676.0 -39.5Q1656 -23 1629 -5Q1648 12 1669.0 28.0Q1690 44 1722 70Q1722 84 1721.5 97.5Q1721 111 1720 125Q1712 122 1704.0 118.0Q1696 114 1688 111Q1668 79 1653.5 50.5Q1639 22 1624 -5Q1640 -33 1655.5 -63.5Q1671 -94 1693 -129L1678 -142Q1635 -103 1609.0 -79.5Q1583 -56 1563.0 -39.5Q1543 -23 1516 -5Q1534 11 1555.0 27.0Q1576 43 1607 68V75Q1498 27 1398.5 -18.5Q1299 -64 1215.5 -105.5Q1132 -147 1070.0 -181.0Q1008 -215 974 -241ZM918 -161Q768 0 672.0 108.5Q576 217 510 277Q552 320 619.0 383.0Q686 446 764.5 529.5Q843 613 916 716L937 706Q893 608 850.0 533.5Q807 459 769.5 397.5Q732 336 702 277Q734 214 793.0 103.0Q852 -8 937 -146ZM1696 447Q1691 488 1685.0 521.0Q1679 554 1673 575Q1669 557 1663.5 529.0Q1658 501 1653 466ZM1817 394Q1811 452 1803.5 499.5Q1796 547 1788 575Q1781 552 1774.5 510.5Q1768 469 1763 418ZM1628 158Q1650 166 1672.5 173.0Q1695 180 1718 187Q1715 236 1711.5 286.0Q1708 336 1703 382L1646 400Q1640 343 1635.0 280.5Q1630 218 1628 158ZM1744 196 1831 223 1822 344 1757 365Q1753 324 1749.5 281.0Q1746 238 1744 196ZM1862 233Q1900 245 1938.0 257.5Q1976 270 2015 282Q1978 294 1941.5 305.5Q1905 317 1869 329Q1867 305 1865.5 281.0Q1864 257 1862 233ZM393 -298 406 -289Q405 -232 400.0 -168.0Q395 -104 386.0 -41.5Q377 21 363 73Q376 71 389.5 69.5Q403 68 416 68Q430 68 443.5 69.5Q457 71 470 73Q445 -15 436.5 -104.5Q428 -194 426 -274Q467 -243 514.5 -202.5Q562 -162 607.5 -120.5Q653 -79 688 -46Q658 -17 619.0 18.0Q580 53 539.0 89.0Q498 125 460.0 156.0Q422 187 392 207Q357 165 318.5 117.5Q280 70 248.0 27.0Q216 -16 198 -45Q216 -74 248.5 -117.0Q281 -160 319.5 -208.0Q358 -256 393 -298ZM1625 83 1626 84H1625Z" />
  </g>
</svg>