<svg xmlns="http://www.w3.org/2000/svg" viewBox="100 -393 1981 1344">
  <g transform="translate(0, 558) scale(1, -1)">
    <path fill="black" d="M446 -393Q426 -367 406.0 -349.5Q386 -332 360 -318L370 -312Q335 -280 296.5 -246.5Q258 -213 221.0 -182.5Q184 -152 152.5 -129.0Q121 -106 100 -96Q135 -76 165 -45Q135 -14 100 6Q121 16 152.0 38.5Q183 61 220.0 91.5Q257 122 295.0 155.5Q333 189 368 221Q366 223 364.0 224.0Q362 225 360 226Q397 246 427 279Q412 296 396.0 308.5Q380 321 360 332L370 337Q335 369 296.5 403.0Q258 437 221.0 467.5Q184 498 152.5 521.0Q121 544 100 554Q135 574 165 605Q135 636 100 656Q121 666 152.0 688.5Q183 711 220.0 741.5Q257 772 295.0 805.5Q333 839 368 871Q366 873 364.0 874.0Q362 875 360 876Q408 903 446 951Q453 934 474.5 902.0Q496 870 526.0 830.5Q556 791 590.0 749.5Q624 708 655.0 670.0Q686 632 709 603Q682 569 646.0 525.0Q610 481 572.5 434.5Q535 388 504.0 347.0Q473 306 457 279Q474 251 505.5 209.0Q537 167 574.5 120.0Q612 73 648.5 29.5Q685 -14 710 -46Q687 -75 655.5 -113.0Q624 -151 590.5 -192.5Q557 -234 526.5 -273.0Q496 -312 474.5 -343.5Q453 -375 446 -393ZM393 352Q396 354 399.5 356.0Q403 358 406 361Q405 418 400.0 481.5Q395 545 386.0 607.5Q377 670 363 723Q376 721 389.5 719.5Q403 718 416 718Q430 718 443.5 719.5Q457 721 470 723Q445 634 436.5 545.0Q428 456 426 376Q467 407 514.5 447.5Q562 488 607.5 529.5Q653 571 688 604Q658 633 619.0 668.0Q580 703 539.0 739.0Q498 775 460.0 806.0Q422 837 392 857Q357 815 318.5 767.5Q280 720 248.0 677.0Q216 634 198 605Q216 576 248.5 532.5Q281 489 319.5 442.0Q358 395 393 352ZM974 -241Q955 -125 896 -40Q958 -33 1049.5 -11.5Q1141 10 1255.0 43.0Q1369 76 1500 117Q1463 134 1429.5 145.5Q1396 157 1373 161Q1398 181 1420.0 199.5Q1442 218 1462 238Q1409 267 1374.5 283.0Q1340 299 1309 309Q1338 327 1358.5 349.5Q1379 372 1395 396Q1412 359 1428.5 321.5Q1445 284 1470 246Q1505 283 1542 337Q1549 306 1567.5 256.0Q1586 206 1614 153Q1615 154 1617 154Q1622 182 1622 213Q1622 229 1620.5 245.5Q1619 262 1617 278Q1649 264 1711.5 250.5Q1774 237 1853 230L1963 265Q1963 273 1962.5 281.5Q1962 290 1962 298L1727 372Q1658 358 1617 342Q1619 356 1621.0 372.5Q1623 389 1622 406L1553 428H1520Q1529 410 1540.5 388.5Q1552 367 1566 341L1559 332Q1506 364 1471.5 379.0Q1437 394 1406 407Q1413 411 1420.0 416.0Q1427 421 1433 425Q1358 422 1286.5 417.0Q1215 412 1153.5 405.5Q1092 399 1047.0 391.0Q1002 383 980 374Q982 387 983.5 402.5Q985 418 985 434Q985 451 983.5 467.5Q982 484 980 500Q1006 489 1074.5 478.0Q1143 467 1242.0 459.0Q1341 451 1456 448Q1458 450 1460.0 452.0Q1462 454 1464 456Q1282 512 1137.5 551.0Q993 590 905 599Q964 685 983 800Q1021 772 1092.0 733.0Q1163 694 1259.0 647.0Q1355 600 1468.0 548.0Q1581 496 1704 442Q1754 432 1817.5 424.0Q1881 416 1952 414Q1945 486 1935.5 540.0Q1926 594 1916 620Q1929 617 1944.5 616.0Q1960 615 1976 615Q1993 615 2009.5 616.0Q2026 617 2042 620Q2029 591 2016.5 510.0Q2004 429 1996 315L2081 280L1992 242Q1990 198 1989.0 150.5Q1988 103 1988 53H1970Q1970 130 1967 206L1901 203Q1837 176 1774.0 148.5Q1711 121 1649 94Q1664 71 1680.5 49.5Q1697 28 1715 11L1696 -6Q1676 14 1649.5 33.5Q1623 53 1594 70Q1452 7 1327.0 -51.5Q1202 -110 1110.5 -158.5Q1019 -207 974 -241ZM918 -161Q768 0 672.0 108.5Q576 217 510 277Q552 320 619.0 383.0Q686 446 764.5 529.5Q843 613 916 716L937 706Q893 608 850.0 533.5Q807 459 769.5 397.5Q732 336 702 277Q734 214 793.0 103.0Q852 -8 937 -146ZM1959 331Q1958 348 1957.0 364.0Q1956 380 1954 396Q1920 395 1889.0 393.0Q1858 391 1829 388ZM1365 139Q1324 164 1294.0 178.0Q1264 192 1238 202Q1174 185 1134.0 170.0Q1094 155 1062 140Q1066 156 1067.5 171.5Q1069 187 1069 202Q1069 222 1067.0 240.5Q1065 259 1062 278Q1094 264 1129.5 250.5Q1165 237 1221 220Q1246 237 1263.5 258.0Q1281 279 1296 300Q1310 269 1326.5 235.5Q1343 202 1374 149ZM1994 274 2014 281 1995 287Q1994 283 1994 274ZM1950 224H1966Q1966 226 1965.5 227.5Q1965 229 1965 231ZM393 -298 406 -289Q405 -232 400.0 -168.0Q395 -104 386.0 -41.5Q377 21 363 73Q376 71 389.5 69.5Q403 68 416 68Q430 68 443.5 69.5Q457 71 470 73Q445 -15 436.5 -104.5Q428 -194 426 -274Q467 -243 514.5 -202.5Q562 -162 607.5 -120.5Q653 -79 688 -46Q658 -17 619.0 18.0Q580 53 539.0 89.0Q498 125 460.0 156.0Q422 187 392 207Q357 165 318.5 117.5Q280 70 248.0 27.0Q216 -16 198 -45Q216 -74 248.5 -117.0Q281 -160 319.5 -208.0Q358 -256 393 -298Z" />
  </g>
</svg>