<svg xmlns="http://www.w3.org/2000/svg" viewBox="100 -393 1981 1344">
  <g transform="translate(0, 558) scale(1, -1)">
    <path fill="black" d="M446 -393Q426 -367 406.0 -349.5Q386 -332 360 -318L370 -312Q335 -280 296.5 -246.5Q258 -213 221.0 -182.5Q184 -152 152.5 -129.0Q121 -106 100 -96Q135 -76 165 -45Q135 -14 100 6Q121 16 152.0 38.5Q183 61 220.0 91.5Q257 122 295.0 155.5Q333 189 368 221Q366 223 364.0 224.0Q362 225 360 226Q397 246 427 279Q412 296 396.0 308.5Q380 321 360 332L370 337Q335 369 296.5 403.0Q258 437 221.0 467.5Q184 498 152.5 521.0Q121 544 100 554Q135 574 165 605Q135 636 100 656Q121 666 152.0 688.5Q183 711 220.0 741.5Q257 772 295.0 805.5Q333 839 368 871Q366 873 364.0 874.0Q362 875 360 876Q408 903 446 951Q453 934 474.5 902.5Q496 871 526.0 831.5Q556 792 589.5 750.5Q623 709 654.0 671.0Q685 633 708 604H710Q685 572 648.5 528.0Q612 484 574.5 437.5Q537 391 505.5 349.0Q474 307 457 279Q474 251 505.5 209.0Q537 167 574.5 120.0Q612 73 648.5 29.5Q685 -14 710 -46Q687 -75 655.5 -113.0Q624 -151 590.5 -192.5Q557 -234 526.5 -273.0Q496 -312 474.5 -343.5Q453 -375 446 -393ZM393 352Q396 354 399.5 356.0Q403 358 406 361Q405 418 400.0 481.5Q395 545 386.0 607.5Q377 670 363 723Q376 721 389.5 719.5Q403 718 416 718Q430 718 443.5 719.5Q457 721 470 723Q445 634 436.5 545.0Q428 456 426 376Q467 407 514.5 447.5Q562 488 607.5 529.5Q653 571 688 604Q658 633 619.0 668.0Q580 703 539.0 739.0Q498 775 460.0 806.0Q422 837 392 857Q357 815 318.5 767.5Q280 720 248.0 677.0Q216 634 198 605Q216 576 248.5 532.5Q281 489 319.5 442.0Q358 395 393 352ZM974 -241Q955 -125 896 -40Q969 -32 1082.0 -4.0Q1195 24 1336 67Q1312 104 1284 127Q1312 138 1339.0 148.5Q1366 159 1397.5 174.0Q1429 189 1468.5 213.0Q1508 237 1560 276Q1491 327 1443.0 354.0Q1395 381 1358.0 396.5Q1321 412 1284 427Q1298 439 1313.5 456.5Q1329 474 1340 493Q1201 535 1089.5 563.5Q978 592 905 599Q964 685 983 800Q1025 769 1107.0 725.0Q1189 681 1300.0 627.5Q1411 574 1539 516Q1528 588 1516 620Q1529 617 1544.5 616.0Q1560 615 1576 615Q1593 615 1609.5 616.0Q1626 617 1642 620Q1635 604 1627.5 568.0Q1620 532 1613 482Q1726 432 1845.0 381.0Q1964 330 2081 280Q1958 228 1832.5 174.0Q1707 120 1588 67V33H1570V59Q1433 -2 1313.5 -58.5Q1194 -115 1106.0 -161.5Q1018 -208 974 -241ZM918 -161Q768 0 672.0 108.5Q576 217 510 277Q552 320 619.0 383.0Q686 446 764.5 529.5Q843 613 916 716L937 706Q893 608 850.0 533.5Q807 459 769.5 397.5Q732 336 702 277Q734 214 793.0 103.0Q852 -8 937 -146ZM1561 292Q1559 329 1556.0 363.5Q1553 398 1550 429L1369 484Q1397 449 1439.5 404.0Q1482 359 1561 292ZM1590 145 2014 281 1605 411Q1600 354 1596.0 286.5Q1592 219 1590 145ZM1378 79 1568 139Q1567 169 1566.0 199.0Q1565 229 1563 259Q1488 195 1446.0 153.5Q1404 112 1378 79ZM393 -298 406 -289Q405 -232 400.0 -168.0Q395 -104 386.0 -41.5Q377 21 363 73Q376 71 389.5 69.5Q403 68 416 68Q430 68 443.5 69.5Q457 71 470 73Q445 -15 436.5 -104.5Q428 -194 426 -274Q467 -243 514.5 -202.5Q562 -162 607.5 -120.5Q653 -79 688 -46Q658 -17 619.0 18.0Q580 53 539.0 89.0Q498 125 460.0 156.0Q422 187 392 207Q357 165 318.5 117.5Q280 70 248.0 27.0Q216 -16 198 -45Q216 -74 248.5 -117.0Q281 -160 319.5 -208.0Q358 -256 393 -298Z" />
  </g>
</svg>