<svg xmlns="http://www.w3.org/2000/svg" viewBox="100 -393 1983 1344">
  <g transform="translate(0, 558) scale(1, -1)">
    <path fill="black" d="M446 -393Q426 -367 406.0 -349.5Q386 -332 360 -318L370 -312Q335 -280 296.5 -246.5Q258 -213 221.0 -182.5Q184 -152 152.5 -129.0Q121 -106 100 -96Q135 -76 165 -45Q135 -14 100 6Q121 16 152.0 38.5Q183 61 220.0 91.5Q257 122 295.0 155.5Q333 189 368 221Q366 223 364.0 224.0Q362 225 360 226Q397 246 427 279Q412 296 396.0 308.5Q380 321 360 332L370 337Q335 369 296.5 403.0Q258 437 221.0 467.5Q184 498 152.5 521.0Q121 544 100 554Q135 574 165 605Q135 636 100 656Q121 666 152.0 688.5Q183 711 220.0 741.5Q257 772 295.0 805.5Q333 839 368 871Q366 873 364.0 874.0Q362 875 360 876Q408 903 446 951Q453 934 474.5 902.5Q496 871 526.0 831.5Q556 792 589.5 750.5Q623 709 654.0 671.0Q685 633 708 604H710Q685 572 648.5 528.0Q612 484 574.5 437.5Q537 391 505.5 349.0Q474 307 457 279Q474 251 505.5 209.0Q537 167 574.5 120.0Q612 73 648.5 29.5Q685 -14 710 -46Q687 -75 655.5 -113.0Q624 -151 590.5 -192.5Q557 -234 526.5 -273.0Q496 -312 474.5 -343.5Q453 -375 446 -393ZM393 352Q396 354 399.5 356.0Q403 358 406 361Q405 418 400.0 481.5Q395 545 386.0 607.5Q377 670 363 723Q376 721 389.5 719.5Q403 718 416 718Q430 718 443.5 719.5Q457 721 470 723Q445 634 436.5 545.0Q428 456 426 376Q467 407 514.5 447.5Q562 488 607.5 529.5Q653 571 688 604Q658 633 619.0 668.0Q580 703 539.0 739.0Q498 775 460.0 806.0Q422 837 392 857Q357 815 318.5 767.5Q280 720 248.0 677.0Q216 634 198 605Q216 576 248.5 532.5Q281 489 319.5 442.0Q358 395 393 352ZM974 -241Q955 -125 896 -40Q956 -34 1043.5 -13.0Q1131 8 1239 39Q1239 47 1239.0 54.5Q1239 62 1238 70Q1192 65 1158.5 59.0Q1125 53 1110 47Q1112 60 1113.5 75.5Q1115 91 1115 107Q1115 124 1113.5 140.5Q1112 157 1110 173Q1123 167 1155.5 161.0Q1188 155 1234 150Q1229 230 1222 298Q1182 294 1153.0 288.0Q1124 282 1110 277Q1112 290 1113.5 305.5Q1115 321 1115 337Q1115 354 1113.5 370.5Q1112 387 1110 403Q1121 398 1148.0 392.5Q1175 387 1213 382Q1207 423 1201.0 454.5Q1195 486 1189 502Q1202 499 1217.0 498.0Q1232 497 1248 497Q1263 497 1278.5 498.0Q1294 499 1309 501V502Q1310 502 1310.0 501.5Q1310 501 1311 501Q1312 501 1312.5 501.5Q1313 502 1314 502Q1184 540 1079.0 566.0Q974 592 905 599Q964 685 983 800Q1027 768 1116.0 720.5Q1205 673 1325.0 616.0Q1445 559 1583 497Q1625 494 1675 502Q1670 490 1663 462Q1758 420 1860.5 376.0Q1963 332 2083 281Q1978 237 1883.0 196.0Q1788 155 1709 120Q1734 120 1758.5 119.5Q1783 119 1807 119V101Q1737 101 1659 98L1625 83Q1623 35 1621.5 -15.0Q1620 -65 1620 -115H1602Q1602 -70 1601.0 -23.0Q1600 24 1598 71L1502 29Q1501 -6 1500.5 -42.0Q1500 -78 1500 -115H1482Q1482 -83 1481.5 -49.5Q1481 -16 1480 18L1381 -27Q1380 -49 1380.0 -70.5Q1380 -92 1380 -115H1362Q1362 -95 1362.0 -75.5Q1362 -56 1361 -36Q1335 -48 1309.5 -60.0Q1284 -72 1260 -84V-115H1242V-93Q1150 -138 1080.5 -175.5Q1011 -213 974 -241ZM918 -161Q768 0 672.0 108.5Q576 217 510 277Q552 320 619.0 383.0Q686 446 764.5 529.5Q843 613 916 716L937 706Q893 608 850.0 533.5Q807 459 769.5 397.5Q732 336 702 277Q734 214 793.0 103.0Q852 -8 937 -146ZM1323 499 1315 502 1314 501ZM1335 369Q1330 410 1324.0 442.0Q1318 474 1312 493Q1300 457 1289 374ZM1456 360Q1452 392 1448.0 418.0Q1444 444 1439 464L1425 469Q1421 450 1416.5 423.0Q1412 396 1407 364ZM1576 354 1567 425 1538 434Q1532 401 1526 356Q1539 355 1551.0 354.5Q1563 354 1576 354ZM1806 349Q1767 361 1728.5 373.5Q1690 386 1652 398L1646 351Q1687 350 1727.5 349.5Q1768 349 1806 349ZM1629 159 2015 282 1807 349V331Q1730 331 1643 328Q1639 291 1635.5 248.5Q1632 206 1629 159ZM1527 126 1594 147Q1591 195 1587.5 240.0Q1584 285 1580 325L1522 322Q1518 279 1514.0 230.0Q1510 181 1507 127Q1512 127 1517.5 127.0Q1523 127 1527 126ZM1475 129Q1473 180 1469.0 228.0Q1465 276 1460 319L1402 315Q1398 275 1394.5 229.5Q1391 184 1388 135ZM1355 138Q1352 184 1349.0 227.5Q1346 271 1341 310L1281 304Q1277 268 1274.0 228.5Q1271 189 1268 146Q1288 144 1310.0 142.0Q1332 140 1355 138ZM393 -298 406 -289Q405 -232 400.0 -168.0Q395 -104 386.0 -41.5Q377 21 363 73Q376 71 389.5 69.5Q403 68 416 68Q430 68 443.5 69.5Q457 71 470 73Q445 -15 436.5 -104.5Q428 -194 426 -274Q467 -243 514.5 -202.5Q562 -162 607.5 -120.5Q653 -79 688 -46Q658 -17 619.0 18.0Q580 53 539.0 89.0Q498 125 460.0 156.0Q422 187 392 207Q357 165 318.5 117.5Q280 70 248.0 27.0Q216 -16 198 -45Q216 -74 248.5 -117.0Q281 -160 319.5 -208.0Q358 -256 393 -298ZM1385 82Q1389 84 1392 84H1385ZM1263 46Q1286 53 1310.0 60.0Q1334 67 1358 74V81Q1333 80 1309.5 77.5Q1286 75 1264 73Q1264 66 1264.0 59.5Q1264 53 1263 46Z" />
  </g>
</svg>