<svg xmlns="http://www.w3.org/2000/svg" viewBox="100 19 1464 631">
  <g transform="translate(0, 669) scale(1, -1)">
    <path fill="black" d="M531 19Q507 47 478.5 70.0Q450 93 410 112Q420 117 434.0 128.0Q448 139 465 154Q419 208 365.0 266.0Q311 324 259.0 376.0Q207 428 165.0 466.0Q123 504 100 517Q140 537 168.5 559.5Q197 582 221 610Q230 580 256.5 529.5Q283 479 321.0 417.5Q359 356 402.0 292.5Q445 229 486 173Q521 205 563.5 247.5Q606 290 650.0 337.0Q694 384 735.5 430.5Q777 477 811 518Q795 532 782.0 542.0Q769 552 760 557Q800 577 828.5 599.5Q857 622 881 650Q889 623 911.0 580.5Q933 538 965.0 485.5Q997 433 1033.5 376.5Q1070 320 1108.0 266.0Q1146 212 1180 167Q1220 203 1269.5 252.5Q1319 302 1370.0 357.5Q1421 413 1467.0 465.5Q1513 518 1546 560L1564 545Q1530 502 1489.5 445.5Q1449 389 1407.0 327.0Q1365 265 1328.5 205.5Q1292 146 1266.0 97.0Q1240 48 1231 19Q1207 47 1178.5 70.0Q1150 93 1110 112Q1119 117 1132.0 127.5Q1145 138 1161 151Q1126 193 1083.5 240.5Q1041 288 996.0 336.0Q951 384 908.0 427.0Q865 470 830 501Q796 456 758.0 402.0Q720 348 683.5 292.0Q647 236 615.0 183.5Q583 131 561.0 88.5Q539 46 531 19Z" />
  </g>
</svg>