<svg xmlns="http://www.w3.org/2000/svg" viewBox="100 -32 687 728">
  <g transform="translate(0, 664) scale(1, -1)">
    <path fill="black" d="M263 -32Q235 13 199.0 50.0Q163 87 110 121Q173 156 240.5 203.5Q308 251 398 327Q339 379 290.5 417.0Q242 455 196.5 486.5Q151 518 100 549Q146 575 184.5 610.0Q223 645 259 696Q282 651 310.0 604.5Q338 558 376.0 504.0Q414 450 465 384Q527 437 601.5 505.5Q676 574 767 661L787 642Q698 540 630.5 462.5Q563 385 513 323Q563 261 627.0 185.0Q691 109 772 16L753 -2Q663 84 593.0 149.5Q523 215 466 266Q419 207 384.0 158.0Q349 109 320.5 64.0Q292 19 263 -32Z" />
  </g>
</svg>