<svg xmlns="http://www.w3.org/2000/svg" viewBox="100 -174 1187 933">
  <g transform="translate(0, 585) scale(1, -1)">
    <path fill="black" d="M704 -174Q681 -76 652.0 -17.0Q623 42 592.0 76.5Q561 111 533 134H539Q534 142 528.0 148.0Q522 154 516 160Q462 133 414.0 100.5Q366 68 340 31Q336 54 329.0 70.5Q322 87 311 103L308 98L305 112L298 121H302Q291 157 266 188Q299 190 342.0 200.0Q385 210 431 226L401 245Q443 263 478 303Q401 301 348.0 298.0Q295 295 258.5 291.5Q222 288 196.0 283.5Q170 279 148.0 273.0Q126 267 100 260Q106 290 106 317Q106 344 100 371L124 364Q126 405 127.0 433.5Q128 462 128 484Q128 516 126.0 537.0Q124 558 120.5 579.0Q117 600 112 632Q120 629 128.5 626.5Q137 624 146 622Q148 634 149.5 646.0Q151 658 151 669Q151 683 149.0 697.5Q147 712 144 725Q173 717 194.5 710.5Q216 704 238.0 699.0Q260 694 289.0 690.0Q318 686 361.5 682.0Q405 678 470 673Q469 683 468.0 693.0Q467 703 465 714Q492 704 519.5 699.5Q547 695 578 697Q565 667 553.5 636.0Q542 605 531.0 563.5Q520 522 508.0 460.0Q496 398 481 304Q484 275 493 249Q507 255 521.5 261.0Q536 267 550 274L556 262Q542 255 527.0 248.5Q512 242 498 234Q503 220 510.0 207.0Q517 194 524 182Q539 188 553.5 194.0Q568 200 582 207L588 195Q575 188 560.5 182.0Q546 176 532 168L556 136Q597 141 630.0 146.0Q663 151 695.5 159.5Q728 168 765 182Q734 222 707.5 248.0Q681 274 654.5 292.5Q628 311 597 330Q621 341 639.5 354.5Q658 368 677 391Q681 358 689.5 332.0Q698 306 713 280Q709 329 680 377Q712 379 772.5 390.0Q833 401 908 418Q895 435 881.5 451.5Q868 468 852 485Q878 489 899.0 497.0Q920 505 945 521Q943 508 941.5 496.0Q940 484 940 473Q966 477 987.0 485.0Q1008 493 1033 509Q1027 473 1027 446Q1088 462 1148.0 478.5Q1208 495 1261 512Q1200 531 1130.0 550.5Q1060 570 988.0 587.5Q916 605 851.5 619.5Q787 634 737.0 643.0Q687 652 660 653Q691 705 694 759Q715 745 763.5 722.5Q812 700 878.0 672.0Q944 644 1017.5 615.5Q1091 587 1161.0 561.5Q1231 536 1287 518L1283 505Q1228 488 1162.5 463.5Q1097 439 1031 413Q1035 389 1044.0 362.0Q1053 335 1069 297L1055 293Q1027 364 1001 401L955 383Q961 364 969.5 342.5Q978 321 988 296L974 292Q964 317 955.0 337.5Q946 358 936 375Q862 344 802.5 316.5Q743 289 717 273Q735 245 749.0 227.0Q763 209 779 186Q765 136 755.5 103.0Q746 70 740.5 47.0Q735 24 732.0 3.5Q729 -17 728.0 -42.0Q727 -67 727 -103Q727 -119 727.5 -136.5Q728 -154 729 -174ZM468 317Q470 350 471.5 378.0Q473 406 474 431Q426 431 375.5 427.5Q325 424 280.0 415.0Q235 406 203 387Q206 401 208.0 414.0Q210 427 210 439Q210 451 208.0 462.5Q206 474 203 487Q251 468 325.5 457.5Q400 447 475 445L478 529Q406 528 339.0 520.5Q272 513 223 485Q227 499 229.0 511.5Q231 524 231 536Q231 548 229.0 560.0Q227 572 223 585Q272 566 338.5 554.5Q405 543 478 541Q478 576 477.0 603.0Q476 630 473 655Q400 653 352.0 649.5Q304 646 271.5 641.5Q239 637 214.0 631.5Q189 626 162 619Q177 617 192.5 617.0Q208 617 224 618Q212 591 203.0 570.0Q194 549 185.5 524.0Q177 499 167.5 460.0Q158 421 147 358Q171 351 195.0 345.5Q219 340 252.5 335.5Q286 331 337.5 326.5Q389 322 468 317ZM667 387 653 390Q664 434 670.0 467.5Q676 501 676 532Q676 573 661 619Q688 606 710.5 601.0Q733 596 759 597Q738 567 721.5 538.5Q705 510 692.0 474.5Q679 439 667 387ZM945 426Q953 428 960.5 430.0Q968 432 975 433Q968 443 959.0 452.5Q950 462 940 472Q940 461 941.5 449.5Q943 438 945 426ZM330 125Q408 137 503 173Q491 184 479.0 193.5Q467 203 454 212Q418 193 385.5 171.0Q353 149 330 125Z" />
  </g>
</svg>