<svg xmlns="http://www.w3.org/2000/svg" viewBox="100 -127 875 886">
  <g transform="translate(0, 632) scale(1, -1)">
    <path fill="black" d="M348 -127Q289 -74 246.5 -32.0Q204 10 169.5 43.5Q135 77 100 102Q124 123 162.5 154.5Q201 186 246.0 226.5Q291 267 334 314Q279 364 239.0 403.5Q199 443 166.5 474.5Q134 506 100 531Q125 553 166.5 586.5Q208 620 256.0 664.0Q304 708 348 759L372 746L363 729Q380 726 398.5 725.0Q417 724 435 724Q490 724 547 736Q529 677 516.5 620.5Q504 564 494.5 499.5Q485 435 478.0 351.5Q471 268 465.0 155.0Q459 42 452 -112H426Q416 32 409.0 140.0Q402 248 395.5 328.5Q389 409 382.0 471.5Q375 534 365.5 587.0Q356 640 342 693Q314 644 291.5 605.0Q269 566 248 531Q274 487 302.5 437.0Q331 387 372 316Q329 243 300.5 192.5Q272 142 248 102Q274 58 303.0 8.0Q332 -42 372 -113ZM712 -112Q707 -62 701.5 -1.5Q696 59 689.5 119.0Q683 179 674.5 229.5Q666 280 655 310Q615 300 577.5 286.5Q540 273 500 257Q505 283 507.5 312.0Q510 341 510 372Q510 401 507.5 431.5Q505 462 500 492Q556 469 622.0 447.0Q688 425 774.0 409.5Q860 394 975 388V363Q872 352 799.0 340.5Q726 329 667 313Q688 310 710 310Q740 310 777 316V315Q791 313 805.0 311.5Q819 310 833 310Q862 310 898 316Q885 287 876.0 257.5Q867 228 860 189Q869 190 878.5 191.5Q888 193 898 194Q878 146 865.5 67.0Q853 -12 848 -112H834Q823 -8 810.5 64.5Q798 137 774 194Q785 192 795.0 191.0Q805 190 815 189Q808 224 798.5 251.5Q789 279 775 312Q765 287 757.5 236.0Q750 185 744.0 123.0Q738 61 733.5 -1.5Q729 -64 727 -112Z" />
  </g>
</svg>