<svg xmlns="http://www.w3.org/2000/svg" viewBox="100 -127 1119 886">
  <g transform="translate(0, 632) scale(1, -1)">
    <path fill="black" d="M348 -127Q289 -74 246.5 -32.0Q204 10 169.5 43.5Q135 77 100 102Q124 123 162.5 154.5Q201 186 246.0 226.5Q291 267 334 314Q279 364 239.0 403.5Q199 443 166.5 474.5Q134 506 100 531Q125 553 166.5 586.5Q208 620 256.0 664.0Q304 708 348 759L372 746L363 729Q380 726 398.5 725.0Q417 724 435 724Q490 724 547 736Q529 677 516.5 620.5Q504 564 494.5 499.5Q485 435 478.0 351.5Q471 268 465.0 155.0Q459 42 452 -112H426Q416 32 409.0 140.0Q402 248 395.5 328.5Q389 409 382.0 471.5Q375 534 365.5 587.0Q356 640 342 693Q314 644 291.5 605.0Q269 566 248 531Q274 487 302.5 437.0Q331 387 372 316L248 102Q274 58 303.0 8.0Q332 -42 372 -113ZM975 -61Q961 -30 947.5 -8.5Q934 13 913 32Q918 33 924.0 34.5Q930 36 936 37Q899 33 855.0 30.0Q811 27 767 23Q766 11 765.5 -1.0Q765 -13 765 -27H756Q755 -13 754.0 -1.0Q753 11 751 21Q739 20 727.0 19.0Q715 18 704 16Q703 6 702.5 -5.0Q702 -16 702 -27H693L688 14Q654 10 627.0 5.0Q600 0 585 -6Q587 5 588.0 17.0Q589 29 589 42Q589 54 588.0 67.0Q587 80 585 94Q597 89 622.5 84.5Q648 80 681 75Q678 94 674.0 110.5Q670 127 663 143Q680 140 693 140Q706 140 727 143Q715 114 709 72L746 68Q740 110 727 143Q744 140 757 140Q770 140 789 143Q783 128 779.0 108.5Q775 89 772 66Q796 64 820.5 62.5Q845 61 868 59Q857 178 829 245Q837 243 848.0 242.0Q859 241 870 241Q881 241 892.0 242.0Q903 243 913 245Q902 218 891.5 166.5Q881 115 879 58L942 55Q931 130 911 179Q919 178 929.5 177.5Q940 177 951 177Q962 177 973.0 177.5Q984 178 994 179Q986 160 978.5 126.5Q971 93 966 53H977V50Q1028 68 1083.5 96.0Q1139 124 1182 151Q1148 173 1105.5 196.0Q1063 219 1019.5 237.5Q976 256 938 266Q894 262 841.5 258.0Q789 254 738.0 249.0Q687 244 646.5 238.0Q606 232 585 224Q588 240 589.0 256.5Q590 273 589 290Q567 283 545.0 274.5Q523 266 500 257Q505 283 507.5 312.0Q510 341 510 372Q510 401 507.5 431.5Q505 462 500 492Q556 469 622.0 447.0Q688 425 774.0 409.5Q860 394 975 388V365Q998 332 1060.0 278.5Q1122 225 1219 154Q1196 137 1160.5 109.5Q1125 82 1088.0 50.5Q1051 19 1020.0 -10.5Q989 -40 975 -61ZM927 286Q941 302 952.0 320.5Q963 339 974 363Q865 352 789.0 339.0Q713 326 651 309Q689 304 737.5 299.5Q786 295 835.5 292.0Q885 289 927 286Z" />
  </g>
</svg>