<svg xmlns="http://www.w3.org/2000/svg" viewBox="100 -127 1239 886">
  <g transform="translate(0, 632) scale(1, -1)">
    <path fill="black" d="M348 -127Q289 -74 246.5 -32.0Q204 10 169.5 43.5Q135 77 100 102Q124 123 162.5 154.5Q201 186 246.0 226.5Q291 267 334 314Q279 364 239.0 403.5Q199 443 166.5 474.5Q134 506 100 531Q125 553 166.5 586.5Q208 620 256.0 664.0Q304 708 348 759L372 746L363 729Q380 726 398.5 725.0Q417 724 435 724Q490 724 547 736Q529 677 516.5 620.5Q504 564 494.5 499.5Q485 435 478.0 351.5Q471 268 465.0 155.0Q459 42 452 -112H426Q416 32 409.0 140.0Q402 248 395.5 328.5Q389 409 382.0 471.5Q375 534 365.5 587.0Q356 640 342 693Q314 644 291.5 605.0Q269 566 248 531Q274 487 302.5 437.0Q331 387 372 316L248 102Q274 58 303.0 8.0Q332 -42 372 -113ZM500 257Q505 283 507.5 312.0Q510 341 510 372Q510 401 507.5 431.5Q505 462 500 492Q556 469 622.0 447.0Q688 425 774.0 409.5Q860 394 975 388V363Q885 354 818.0 343.5Q751 333 697.5 321.0Q644 309 597.0 293.0Q550 277 500 257ZM787 -115Q776 -95 753.0 -68.0Q730 -41 707 -24L739 -9L643 75Q610 37 589.5 8.0Q569 -21 549 -55Q537 -34 520.0 -18.0Q503 -2 480 11Q509 26 540.5 46.5Q572 67 613 99Q571 134 540.5 154.5Q510 175 475 195Q495 206 514.0 221.5Q533 237 549 261Q564 230 585.0 198.5Q606 167 643 123Q665 140 690.0 162.0Q715 184 744 209L707 226Q730 243 753.0 270.0Q776 297 787 317Q819 271 851.5 226.0Q884 181 932 131Q931 141 930.5 149.0Q930 157 928 164Q963 155 996.5 146.5Q1030 138 1073.5 129.5Q1117 121 1180.5 113.5Q1244 106 1339 99V89Q1248 86 1183.5 80.0Q1119 74 1073.0 66.5Q1027 59 992.5 51.5Q958 44 928 38Q930 45 931.0 53.5Q932 62 933 72Q885 22 852.0 -23.5Q819 -69 787 -115ZM755 -2Q793 15 836.0 38.5Q879 62 933 100V101Q880 139 838.5 162.0Q797 185 759 202Q729 171 706.0 145.5Q683 120 664 99Q683 77 705.0 52.0Q727 27 755 -2Z" />
  </g>
</svg>