<svg xmlns="http://www.w3.org/2000/svg" viewBox="100 -127 961 886">
  <g transform="translate(0, 632) scale(1, -1)">
    <path fill="black" d="M348 -127Q289 -74 246.5 -32.0Q204 10 169.5 43.5Q135 77 100 102Q124 123 162.5 154.5Q201 186 246.0 226.5Q291 267 334 314Q279 364 239.0 403.5Q199 443 166.5 474.5Q134 506 100 531Q125 553 166.5 586.5Q208 620 256.0 664.0Q304 708 348 759L372 746L363 729Q380 726 398.5 725.0Q417 724 435 724Q490 724 547 736Q529 677 516.5 620.5Q504 564 494.5 499.5Q485 435 478.0 351.5Q471 268 465.0 155.0Q459 42 452 -112H426Q416 32 409.0 140.0Q402 248 395.5 328.5Q389 409 382.0 471.5Q375 534 365.5 587.0Q356 640 342 693Q314 644 291.5 605.0Q269 566 248 531Q274 487 302.5 437.0Q331 387 372 316L248 102Q274 58 303.0 8.0Q332 -42 372 -113ZM583 -53Q589 -23 589 6Q589 34 583 70Q589 100 589 129Q589 158 583 194Q615 181 645.0 170.5Q675 160 716.0 153.5Q757 147 822 144Q824 157 825.0 170.5Q826 184 826 197Q826 211 825.0 224.5Q824 238 822 254Q771 248 737.5 242.5Q704 237 680.0 230.5Q656 224 634.0 215.0Q612 206 583 194Q589 224 589 254Q589 263 588.5 271.5Q588 280 587 290Q565 283 544.0 274.5Q523 266 500 257Q505 283 507.5 312.0Q510 341 510 372Q510 401 507.5 431.5Q505 462 500 492Q556 469 622.0 447.0Q688 425 774.0 409.5Q860 394 975 388V363Q853 350 771.5 335.5Q690 321 623 301Q658 288 702.0 279.5Q746 271 823 268V260Q855 247 884.5 237.0Q914 227 955.0 220.5Q996 214 1061 211V197Q1010 191 976.5 185.5Q943 180 919.0 173.5Q895 167 873.0 158.5Q851 150 823 138V136Q855 123 884.5 113.0Q914 103 955.0 96.5Q996 90 1061 87V73Q1010 67 976.5 61.5Q943 56 919.0 49.5Q895 43 873.0 34.5Q851 26 823 14V7Q772 1 738.5 -4.5Q705 -10 680.5 -16.5Q656 -23 634.0 -32.0Q612 -41 583 -53ZM822 21Q824 34 825.0 47.0Q826 60 826 73Q826 87 825.0 100.5Q824 114 822 130Q771 124 737.5 118.5Q704 113 680.5 106.5Q657 100 635.0 91.0Q613 82 584 70Q616 57 645.5 47.0Q675 37 716.0 30.5Q757 24 822 21Z" />
  </g>
</svg>