<svg xmlns="http://www.w3.org/2000/svg" viewBox="100 -177 1027 936">
  <g transform="translate(0, 582) scale(1, -1)">
    <path fill="black" d="M348 -127Q289 -74 246.5 -32.0Q204 10 169.5 43.5Q135 77 100 102Q124 123 162.5 154.5Q201 186 246.0 226.5Q291 267 334 314Q279 364 239.0 403.5Q199 443 166.5 474.5Q134 506 100 531Q125 553 166.5 586.5Q208 620 256.0 664.0Q304 708 348 759L372 746L363 729Q380 726 398.5 725.0Q417 724 435 724Q490 724 547 736Q529 677 516.5 620.5Q504 564 494.5 499.5Q485 435 478.0 351.5Q471 268 465.0 155.0Q459 42 452 -112H426Q416 32 409.0 140.0Q402 248 395.5 328.5Q389 409 382.0 471.5Q375 534 365.5 587.0Q356 640 342 693Q314 644 291.5 605.0Q269 566 248 531Q274 487 302.5 437.0Q331 387 372 316L248 102Q274 58 303.0 8.0Q332 -42 372 -113ZM522 -177Q524 -165 525.0 -151.5Q526 -138 526 -123Q526 -109 525.0 -93.5Q524 -78 522 -62Q538 -69 586 -75Q585 -38 581.0 8.5Q577 55 571.0 104.0Q565 153 558.5 197.5Q552 242 544 274Q533 270 522.0 266.0Q511 262 500 257Q505 283 507.5 312.0Q510 341 510 372Q510 401 507.5 431.5Q505 462 500 492Q556 469 622.0 447.0Q688 425 774.0 409.5Q860 394 975 388V363Q861 351 783.5 337.5Q706 324 643 307Q636 284 628.5 237.0Q621 190 615.0 133.0Q609 76 605.0 20.0Q601 -36 599 -77Q638 -82 689.0 -86.5Q740 -91 795.0 -95.0Q850 -99 902.0 -102.0Q954 -105 997.5 -107.0Q1041 -109 1067 -110Q1066 -73 1062.0 -16.5Q1058 40 1051 99Q1039 99 1024.0 98.0Q1009 97 992 96Q988 59 985.0 20.0Q982 -19 982 -53H970Q970 -19 967.5 19.5Q965 58 960 95L903 91Q899 55 896.5 17.5Q894 -20 894 -53H882Q882 -21 879.5 16.0Q877 53 873 89Q858 88 843.5 87.0Q829 86 815 85Q811 50 808.5 14.5Q806 -21 806 -53H794Q794 -22 792.0 13.0Q790 48 786 82L726 77Q722 44 720.0 10.5Q718 -23 718 -53H706Q706 -24 704.0 9.0Q702 42 699 74Q658 69 650 66Q652 77 653.0 87.5Q654 98 654 109Q654 129 650 146Q658 142 691 139Q686 174 681.0 199.0Q676 224 672 233Q683 232 693.5 230.5Q704 229 715 229Q735 229 752 233Q748 224 743.0 197.5Q738 171 733 134Q744 133 755.5 132.5Q767 132 780 130Q775 168 769.5 196.0Q764 224 760 233Q771 232 781.5 230.5Q792 229 803 229Q823 229 840 233Q836 224 830.5 195.0Q825 166 820 127Q832 126 844.0 125.0Q856 124 869 123Q864 164 858.5 193.5Q853 223 848 233Q859 232 869.5 230.5Q880 229 891 229Q911 229 928 233Q924 223 918.0 192.5Q912 162 907 121L958 117Q953 159 947.0 191.0Q941 223 936 233Q947 232 957.5 230.5Q968 229 979 229Q999 229 1016 233Q1012 223 1005.5 190.5Q999 158 994 115L1050 112Q1042 180 1032.0 237.5Q1022 295 1011 317Q1023 315 1037.0 314.0Q1051 313 1066 313Q1081 313 1096.0 314.0Q1111 315 1127 317Q1120 303 1113.0 264.0Q1106 225 1100.0 173.0Q1094 121 1089.0 65.5Q1084 10 1081.5 -37.5Q1079 -85 1079 -114V-122Q1053 -122 1006.0 -124.0Q959 -126 901.0 -130.0Q843 -134 782.5 -139.5Q722 -145 668.0 -151.0Q614 -157 575.0 -163.5Q536 -170 522 -177Z" />
  </g>
</svg>