<svg xmlns="http://www.w3.org/2000/svg" viewBox="100 -127 998 886">
  <g transform="translate(0, 632) scale(1, -1)">
    <path fill="black" d="M348 -127Q289 -74 246.5 -32.0Q204 10 169.5 43.5Q135 77 100 102Q124 123 162.5 154.5Q201 186 246.0 226.5Q291 267 334 314Q279 364 239.0 403.5Q199 443 166.5 474.5Q134 506 100 531Q125 553 166.5 586.5Q208 620 256.0 664.0Q304 708 348 759L372 746L363 729Q380 726 398.5 725.0Q417 724 435 724Q490 724 547 736Q529 677 516.5 620.5Q504 564 494.5 499.5Q485 435 478.0 351.5Q471 268 465.0 155.0Q459 42 452 -112H426Q416 32 409.0 140.0Q402 248 395.5 328.5Q389 409 382.0 471.5Q375 534 365.5 587.0Q356 640 342 693Q314 644 291.5 605.0Q269 566 248 531Q274 487 302.5 437.0Q331 387 372 316L248 102Q274 58 303.0 8.0Q332 -42 372 -113ZM500 257Q505 283 507.5 312.0Q510 341 510 372Q510 401 507.5 431.5Q505 462 500 492Q556 469 622.0 447.0Q688 425 774.0 409.5Q860 394 975 388V363Q885 354 818.0 343.5Q751 333 697.5 321.0Q644 309 597.0 293.0Q550 277 500 257ZM685 -104 677 8Q631 4 598.5 -1.0Q566 -6 551 -11Q557 13 557 39Q557 63 551 90Q564 86 595.5 81.5Q627 77 671 73Q670 93 667.5 112.0Q665 131 663 147Q623 143 594.0 138.5Q565 134 551 129Q557 153 557 179Q557 203 551 230Q562 226 589.5 222.0Q617 218 654 214Q650 244 644.5 265.5Q639 287 634 303Q660 297 685 297Q697 297 709.0 298.5Q721 300 734 302V303Q758 297 783 297Q808 297 835 303Q859 297 885 297Q910 297 937 303Q932 287 927.0 261.0Q922 235 917 197Q928 197 938.5 196.5Q949 196 960 196Q948 268 937 303Q961 297 987 297Q1012 297 1039 303Q1027 270 1018 193L1098 191V179L1016 173Q1014 148 1011.0 118.5Q1008 89 1006 54L1098 51V39L1005 33Q1004 2 1002.5 -32.0Q1001 -66 1000 -104H988L978 31Q959 30 940.0 29.0Q921 28 903 26Q902 -2 900.5 -35.0Q899 -68 898 -104H886L877 24L802 19Q801 -9 799.5 -39.5Q798 -70 797 -104H785L776 17Q756 16 737.5 14.0Q719 12 701 10L697 -104ZM857 200Q847 267 835 301Q831 286 826.0 262.0Q821 238 817 203ZM755 206Q751 238 745.5 260.5Q740 283 735 300Q731 285 726.5 263.0Q722 241 717 209ZM976 55Q973 89 969.5 117.5Q966 146 963 170L913 167Q911 144 909.0 117.0Q907 90 905 58ZM873 60Q871 90 868.0 115.5Q865 141 862 163L811 160Q810 139 808.0 115.0Q806 91 804 64Q821 63 838.5 62.0Q856 61 873 60ZM772 65Q770 91 767.0 114.0Q764 137 762 156L711 151Q709 133 707.5 113.0Q706 93 704 70Q721 69 737.5 68.0Q754 67 772 65Z" />
  </g>
</svg>