<svg xmlns="http://www.w3.org/2000/svg" viewBox="100 -327 1080 1227">
  <g transform="translate(0, 573) scale(1, -1)">
    <path fill="black" d="M413 -327Q407 -231 400.0 -166.0Q393 -101 386.5 -57.0Q380 -13 372 20Q294 10 232.0 -7.5Q170 -25 100 -45Q104 -28 105.5 -9.5Q107 9 107 29Q107 48 105.5 67.5Q104 87 100 104Q156 89 225.0 74.5Q294 60 363 52L353 91Q291 138 231.0 175.0Q171 212 113 245Q140 262 169.0 290.5Q198 319 218 350Q243 306 283.0 248.5Q323 191 366 135Q372 134 377.5 133.5Q383 133 389 133Q382 189 374.5 230.5Q367 272 358.5 307.5Q350 343 339 380Q352 377 367.0 375.0Q382 373 398 372Q392 430 385.5 469.5Q379 509 372 540Q294 530 232.0 512.5Q170 495 100 475Q104 492 105.5 510.5Q107 529 107 549Q107 568 105.5 587.5Q104 607 100 624Q156 609 225.0 594.5Q294 580 363 572L353 611Q291 658 231.0 695.0Q171 732 113 765Q140 782 169.0 810.5Q198 839 218 870Q243 826 283.0 768.5Q323 711 366 655Q372 654 377.5 653.5Q383 653 389 653Q382 709 374.5 750.5Q367 792 358.5 827.5Q350 863 339 900Q373 892 411 892Q450 892 488 900Q475 852 463.5 795.5Q452 739 443 653Q455 654 466.5 656.0Q478 658 488 660Q478 622 468.5 585.0Q459 548 451.0 498.5Q443 449 437 373Q451 374 463.5 375.5Q476 377 488 380Q475 332 463.5 275.5Q452 219 443 133Q455 134 466.5 136.0Q478 138 488 140Q478 102 468.5 65.0Q459 28 451.5 -21.0Q444 -70 438.0 -143.0Q432 -216 429 -327ZM640 28Q606 81 569.0 117.0Q532 153 487 181Q535 208 577.5 234.5Q620 261 665.0 292.5Q710 324 763 366Q710 408 665.0 440.0Q620 472 577.5 498.5Q535 525 487 552Q532 580 569.0 616.5Q606 653 640 705Q675 644 720.5 578.0Q766 512 837 426Q899 477 978.5 545.5Q1058 614 1162 705L1180 686Q997 493 888 366Q944 302 1015.5 223.5Q1087 145 1180 47L1162 28Q1058 120 978.5 187.5Q899 255 837 306Q766 220 720.5 154.5Q675 89 640 28Z" />
  </g>
</svg>