<svg xmlns="http://www.w3.org/2000/svg" viewBox="100 -300 1807 1176">
  <g transform="translate(0, 576) scale(1, -1)">
    <path fill="black" d="M747 -300 737 -298Q739 -288 740.0 -279.5Q741 -271 742 -263Q708 -272 673 -284Q679 -246 679 -210Q626 -211 576.5 -212.5Q527 -214 480 -218Q479 -228 478.5 -238.0Q478 -248 478 -256H470Q469 -248 468.0 -238.5Q467 -229 466 -219Q406 -224 350.0 -233.5Q294 -243 241 -257V-256H234Q230 -221 226.5 -179.5Q223 -138 219.0 -97.0Q215 -56 209.5 -22.0Q204 12 196 32Q218 26 246 28Q248 48 246.5 67.0Q245 86 241 109Q336 83 444 72Q441 92 438.0 107.5Q435 123 432 132Q448 128 469 128Q479 128 489.0 129.0Q499 130 511 132Q507 124 504.0 107.5Q501 91 499 68Q556 64 618.0 62.5Q680 61 749 61Q740 85 731.0 104.5Q722 124 710 147Q721 146 731.0 146.5Q741 147 752 149Q751 163 750.0 177.0Q749 191 748 205Q736 209 724.0 212.0Q712 215 699 218Q697 187 695.5 158.0Q694 129 693 107H685Q682 131 679.5 161.5Q677 192 675 225L622 238Q620 207 618.5 178.0Q617 149 616 127H607L597 244Q584 248 571.0 251.0Q558 254 544 257Q542 226 540.5 197.5Q539 169 538 147H529L519 263L466 275Q464 244 462.5 216.0Q461 188 460 167H451Q449 190 446.5 219.5Q444 249 442 280Q429 283 416.5 286.0Q404 289 392 291Q390 261 388.5 234.0Q387 207 386 187H376Q374 209 372.0 237.0Q370 265 368 295Q355 298 341.5 300.0Q328 302 314 304L309 207H301Q299 227 296.5 253.5Q294 280 292 308Q278 310 264.0 312.5Q250 315 236 316L232 227H223Q221 246 219.0 269.5Q217 293 215 318Q184 322 155.5 323.5Q127 325 100 325Q115 359 125.0 394.5Q135 430 139 466Q153 457 170.0 448.0Q187 439 206 430Q202 469 197.0 502.0Q192 535 186 553Q173 546 161.0 540.0Q149 534 139 528Q135 564 125.0 599.5Q115 635 100 669Q159 669 242.5 681.0Q326 693 421.5 713.0Q517 733 615.5 757.0Q714 781 804.0 805.0Q894 829 965 848L974 876Q986 863 1033.0 834.5Q1080 806 1151.0 767.5Q1222 729 1306.5 685.5Q1391 642 1479.5 597.5Q1568 553 1650.5 512.0Q1733 471 1800.0 439.0Q1867 407 1907 388Q1833 363 1752.0 332.5Q1671 302 1589.5 270.5Q1508 239 1434.0 208.0Q1360 177 1299.0 150.0Q1238 123 1197.0 102.0Q1156 81 1142 69Q1135 119 1118 159Q1113 68 1110.5 -24.0Q1108 -116 1107 -196H1149V-226H1107V-271H1077V-226Q1026 -227 967.5 -230.5Q909 -234 853.0 -241.0Q797 -248 755 -260Q753 -269 751.0 -279.0Q749 -289 747 -300ZM860 -182Q863 -163 863.5 -148.5Q864 -134 862 -115L860 -116Q860 -112 861 -110Q860 -108 860 -104H862Q866 -79 862 -48L860 -49Q860 -44 861 -42Q860 -40 860 -36L862 -37Q866 -10 862 19H860Q860 23 861 25Q860 27 860 31L862 30Q866 57 862 87H860Q860 91 861 93Q860 95 860 99L862 98Q864 115 864.0 129.5Q864 144 860 166Q896 151 943.0 143.5Q990 136 1069 134L1066 198Q988 197 942.0 189.0Q896 181 860 166Q863 186 864.0 200.5Q865 215 862 234H860Q860 238 861 240Q860 242 860 246L862 245Q866 272 862 302L860 301Q860 305 861 307Q860 309 860 314L862 313Q866 339 862 369H860Q860 373 861 375Q860 377 860 381L862 380Q866 407 862 437H860Q860 441 861 443Q860 445 860 449L862 448Q864 465 864.0 479.5Q864 494 860 516Q889 504 931.5 496.5Q974 489 1033 486Q1030 502 1026.5 517.0Q1023 532 1019 545Q1055 539 1092 539Q1129 539 1165 545Q1149 490 1139.0 403.0Q1129 316 1122 216Q1163 220 1231.0 233.5Q1299 247 1381.5 267.0Q1464 287 1549.5 309.0Q1635 331 1712.5 352.0Q1790 373 1848 389Q1802 408 1734.0 436.0Q1666 464 1585.5 496.5Q1505 529 1419.5 562.5Q1334 596 1252.5 627.5Q1171 659 1101.0 683.5Q1031 708 981.0 723.5Q931 739 910 740Q922 757 932.5 775.0Q943 793 952 813Q887 794 806.0 770.0Q725 746 638.5 719.0Q552 692 468.5 663.5Q385 635 312.5 607.0Q240 579 188 554Q205 551 221 551Q232 551 242.5 552.0Q253 553 265 555Q258 539 253.0 499.5Q248 460 244 412Q254 408 264.5 404.0Q275 400 285 395Q281 440 275.5 478.0Q270 516 263 535Q279 531 300 531Q310 531 320.0 532.0Q330 533 342 535Q335 518 329.5 475.0Q324 432 320 381Q330 377 340.5 373.0Q351 369 361 364Q357 413 351.5 454.0Q346 495 338 515Q347 513 356.5 512.0Q366 511 376 511Q386 511 396.5 512.0Q407 513 418 515Q411 497 405.5 451.0Q400 405 396 351Q406 347 416.5 344.0Q427 341 437 337Q433 387 427.0 430.5Q421 474 413 495Q422 493 431.5 492.0Q441 491 451 491Q461 491 471.0 492.0Q481 493 493 495Q486 477 480.5 429.0Q475 381 470 325L515 310Q511 363 505.0 408.0Q499 453 491 475Q500 473 509.5 472.0Q519 471 529 471Q539 471 549.0 472.0Q559 473 571 475Q564 456 558.0 406.0Q552 356 547 299L594 284Q590 338 583.5 385.5Q577 433 569 455Q578 453 587.5 452.0Q597 451 607 451Q617 451 627.0 452.0Q637 453 649 455Q642 436 635.5 384.5Q629 333 624 274L672 260Q668 315 661.5 364.0Q655 413 647 435Q663 431 684 431Q694 431 704.0 432.0Q714 433 726 435L720 415Q728 413 737.0 412.0Q746 411 755 411Q763 411 770.5 411.5Q778 412 786 413Q779 514 769.0 599.5Q759 685 744 740Q780 734 817 734Q854 734 890 740Q880 702 871.5 638.0Q863 574 856.5 493.0Q850 412 846.0 323.0Q842 234 839.0 144.0Q836 54 834.5 -28.5Q833 -111 832 -177ZM1044 417Q1043 430 1040.5 442.5Q1038 455 1036 467Q933 461 876 442Q907 432 946.5 425.5Q986 419 1044 417ZM745 238Q741 294 734.5 342.5Q728 391 720 414Q714 387 709.5 343.0Q705 299 701 251ZM1053 350 1047 400Q988 398 948.0 391.5Q908 385 877 375Q909 365 950.5 358.5Q992 352 1053 350ZM795 224Q794 260 792.0 296.5Q790 333 788 368Q784 340 780.5 304.0Q777 268 774 230ZM1060 281 1055 333Q993 331 951.0 324.5Q909 318 877 307Q909 296 951.5 289.5Q994 283 1060 281ZM1064 214 1061 265Q994 264 951.5 257.5Q909 251 876 240Q909 229 952.5 222.5Q996 216 1064 214ZM785 61H799L796 192L772 199L769 153Q780 154 792 159Q785 123 785 61ZM1072 66Q1072 79 1071.5 92.0Q1071 105 1070 118Q999 117 954.5 110.5Q910 104 876 92Q910 79 952.5 73.0Q995 67 1072 66ZM1074 -1Q1074 12 1073.5 25.0Q1073 38 1073 51Q996 50 953.5 43.5Q911 37 876 25Q899 17 925.0 11.5Q951 6 986.5 3.0Q1022 0 1074 -1ZM801 -27Q801 -13 800.5 1.5Q800 16 800 31H786Q786 18 786.5 4.5Q787 -9 788 -25ZM678 -178Q677 -168 676.0 -158.0Q675 -148 673 -138Q693 -145 713.0 -151.0Q733 -157 754 -162Q756 -144 756.0 -129.5Q756 -115 756 -102Q756 -76 754.5 -56.0Q753 -36 751 -16Q758 -17 764.0 -19.0Q770 -21 776 -23Q772 -7 767.5 6.0Q763 19 759 31Q686 30 620.5 29.0Q555 28 495 23Q491 -22 487.5 -73.5Q484 -125 482 -170Q528 -174 577.0 -175.5Q626 -177 678 -178ZM463 -169Q460 -125 456.5 -75.0Q453 -25 449 19Q400 14 354.0 7.0Q308 0 264 -11Q255 -62 250 -133Q300 -146 353.5 -155.0Q407 -164 463 -169ZM1075 -69V-16Q996 -17 953.0 -23.0Q910 -29 876 -42Q899 -51 924.0 -57.0Q949 -63 985.0 -65.5Q1021 -68 1075 -69ZM1076 -136V-84Q1022 -84 985.5 -87.0Q949 -90 924.0 -95.5Q899 -101 876 -110Q899 -118 924.5 -123.5Q950 -129 986.0 -132.0Q1022 -135 1076 -136ZM802 -172Q802 -153 801.5 -134.0Q801 -115 801 -93Q796 -107 790.0 -125.0Q784 -143 778 -167Q784 -168 790.0 -169.5Q796 -171 802 -172ZM1077 -195Q1077 -184 1076.5 -173.0Q1076 -162 1076 -151Q1016 -151 978.5 -154.5Q941 -158 915.0 -164.5Q889 -171 864 -182Q949 -194 1077 -195ZM242 -247Q245 -227 246.5 -210.0Q248 -193 246 -176Q245 -195 244.0 -213.0Q243 -231 242 -247Z" />
  </g>
</svg>