<svg xmlns="http://www.w3.org/2000/svg" viewBox="100 -93 2667 936">
  <g transform="translate(0, 750) scale(1, -1)">
    <path fill="black" d="M2067 -86Q2057 -75 2019.5 -52.5Q1982 -30 1925.5 1.0Q1869 32 1801.0 67.0Q1733 102 1662.0 137.5Q1591 173 1525.0 205.5Q1459 238 1405.5 264.0Q1352 290 1320 305L1341 314Q1381 327 1436.0 347.5Q1491 368 1553.0 391.5Q1615 415 1676.5 440.0Q1738 465 1791.5 488.5Q1845 512 1882.5 530.5Q1920 549 1933 560Q1939 520 1951 488Q1956 562 1958.0 635.0Q1960 708 1961 772H1927V796H1961V832H1985V796Q2060 798 2116.0 803.0Q2172 808 2217.5 818.0Q2263 828 2308 843Q2306 828 2304.5 813.5Q2303 799 2303 784Q2303 769 2304.5 754.5Q2306 740 2308 726Q2283 734 2258.0 741.0Q2233 748 2205 753Q2205 693 2206.0 619.5Q2207 546 2209 466L2229 460L2234 546H2240L2248 455L2287 444L2292 530H2299Q2301 511 2303.0 488.0Q2305 465 2306 439L2349 428L2354 514H2361L2368 423Q2379 420 2390.0 417.0Q2401 414 2411 412L2416 498H2424L2431 407Q2442 404 2452.5 401.5Q2463 399 2474 397L2479 482H2486L2493 393L2533 384L2538 466H2546Q2548 448 2549.0 426.0Q2550 404 2552 380Q2563 378 2574.0 376.0Q2585 374 2595 372L2600 449H2606L2613 369L2657 363Q2659 383 2659.5 401.0Q2660 419 2661 433H2669L2675 361Q2723 355 2767 355Q2755 328 2747.0 299.5Q2739 271 2736 242Q2724 249 2710.5 256.0Q2697 263 2682 270Q2685 239 2689.5 212.5Q2694 186 2698 172Q2709 177 2718.5 182.5Q2728 188 2736 193Q2739 164 2747.0 135.5Q2755 107 2767 80Q2720 80 2653.0 70.0Q2586 60 2509.5 44.0Q2433 28 2354.0 9.0Q2275 -10 2203.0 -29.0Q2131 -48 2074 -63Q2072 -68 2070.5 -74.0Q2069 -80 2067 -86ZM559 -93Q561 -79 562.0 -64.0Q563 -49 563 -34Q563 -19 562.0 -4.5Q561 10 559 24Q584 15 609.0 8.5Q634 2 662 -3Q662 56 661.0 130.5Q660 205 658 284L638 289L633 204H627Q625 222 623.0 246.0Q621 270 619 295L579 305L575 220H568Q566 238 564.0 261.5Q562 285 560 310L517 322Q516 298 515.0 275.5Q514 253 513 236H506Q504 254 502.0 278.0Q500 302 498 327Q488 329 477.0 332.0Q466 335 455 338L451 252H443Q441 270 439.5 294.0Q438 318 436 343Q425 345 414.5 347.5Q404 350 393 353L388 268H381Q379 286 377.5 309.0Q376 332 374 357L333 366L329 284H321L315 370L271 378L267 301H261Q259 317 257.5 337.5Q256 358 254 380Q243 382 231.5 384.0Q220 386 209 387L206 317H198L192 389Q167 391 144.0 393.0Q121 395 100 395Q112 422 120.0 450.5Q128 479 131 508Q142 501 155.5 494.0Q169 487 184 479Q181 511 177.0 537.0Q173 563 168 577Q146 566 131 557Q128 586 120.0 614.5Q112 643 100 670Q147 670 213.5 680.0Q280 690 357.0 706.0Q434 722 512.5 741.0Q591 760 663.5 779.0Q736 798 793 813L800 836Q810 825 847.5 802.5Q885 780 941.5 749.0Q998 718 1066.0 683.0Q1134 648 1205.0 612.5Q1276 577 1342.0 544.5Q1408 512 1461.5 486.0Q1515 460 1547 445Q1472 419 1392.0 388.5Q1312 358 1236.0 327.5Q1160 297 1096.0 269.5Q1032 242 989.5 221.5Q947 201 934 190Q931 210 926.0 228.0Q921 246 915 262Q911 189 909.0 115.5Q907 42 906 -22H940V-46H906V-82H882V-46Q807 -47 751.0 -52.5Q695 -58 649.5 -67.5Q604 -77 559 -93ZM708 -10Q711 7 711 17Q711 22 710.5 28.5Q710 35 709 42H708Q708 45 709 47Q708 48 708 52L709 51Q710 57 710.5 62.5Q711 68 711 73Q711 78 710.5 83.5Q710 89 709 96H708Q708 99 709 101Q708 102 708 106L709 105Q710 111 710.5 116.5Q711 122 711 127Q711 132 710.5 137.5Q710 143 709 150H708Q708 153 709 155Q708 156 708 160L709 159Q710 165 710.5 170.5Q711 176 711 181Q711 186 710.5 191.5Q710 197 709 204H708Q708 207 709 209Q708 210 708 214L709 213Q710 219 710.5 224.5Q711 230 711 236Q711 249 708 268Q737 256 774.5 249.5Q812 243 876 242L873 294Q811 293 774.0 286.0Q737 279 708 268Q711 286 711 299Q711 304 710.5 309.5Q710 315 709 322H708Q708 325 709 327Q708 328 708 332L709 331Q710 337 710.5 342.5Q711 348 711 353Q711 358 710.5 363.5Q710 369 709 376H708Q708 379 709 381Q708 382 708 386L709 385Q710 391 710.5 396.5Q711 402 711 407Q711 412 710.5 417.5Q710 423 709 430H708Q708 433 709 435Q708 436 708 440L709 439Q710 445 710.5 450.5Q711 456 711 461Q711 466 710.5 472.0Q710 478 709 485H708Q708 486 708.5 487.0Q709 488 709 489Q709 491 708.5 492.0Q708 493 708 494L709 493Q710 499 710.5 504.5Q711 510 711 516Q711 529 708 548Q755 529 847 523Q844 536 841.5 548.0Q839 560 836 571Q850 569 864.5 567.5Q879 566 894 566Q908 566 923.0 567.5Q938 569 952 571Q940 527 931.5 457.5Q923 388 918 308Q951 311 1005.5 322.0Q1060 333 1126.0 349.0Q1192 365 1261.0 382.5Q1330 400 1392.0 416.5Q1454 433 1500 446Q1457 464 1390.5 491.0Q1324 518 1246.0 549.5Q1168 581 1088.5 611.5Q1009 642 939.0 668.0Q869 694 818.5 710.0Q768 726 748 727Q767 754 782 786Q730 771 665.5 751.5Q601 732 532.0 710.0Q463 688 396.0 665.0Q329 642 271.0 620.0Q213 598 171 578Q183 575 196 575Q204 575 213.0 576.5Q222 578 232 579Q227 566 222.5 534.5Q218 503 215 465L248 450Q244 487 239.5 517.5Q235 548 230 563Q245 560 260 560Q275 560 294 563Q288 550 283.5 515.0Q279 480 275 439Q284 435 292.5 431.5Q301 428 310 425Q306 464 301.5 497.5Q297 531 291 547Q306 544 321 544Q337 544 355 547Q349 533 344.5 496.0Q340 459 337 415L370 402Q366 443 361.5 478.5Q357 514 351 531Q366 528 381 528Q396 528 415 531Q409 516 404.0 477.0Q399 438 396 393Q405 389 414.0 386.0Q423 383 433 380Q429 423 424.5 460.5Q420 498 413 515Q428 512 443 512Q458 512 477 515Q471 500 466.0 459.5Q461 419 458 372Q467 368 476.5 365.0Q486 362 496 359Q492 403 487.0 442.0Q482 481 475 499Q490 496 505 496Q521 496 539 499Q533 483 528.0 441.0Q523 399 519 351L558 339Q554 384 549.5 424.0Q545 464 538 483Q552 480 567 480Q582 480 601 483Q600 480 599.0 476.0Q598 472 596 467Q610 464 626 464Q631 464 637.0 464.0Q643 464 649 465Q644 546 635.5 615.0Q627 684 615 727Q629 725 644.0 723.5Q659 722 674 722Q689 722 703.5 723.5Q718 725 732 727Q722 690 714.5 624.5Q707 559 702.0 476.5Q697 394 693.5 306.5Q690 219 688.0 137.5Q686 56 686 -7ZM1985 736Q2033 736 2063.0 738.5Q2093 741 2114.5 747.0Q2136 753 2156 761Q2121 766 2078.5 768.0Q2036 770 1985 771ZM2084 -36Q2137 -21 2201.5 -1.5Q2266 18 2335.0 39.5Q2404 61 2471.0 84.0Q2538 107 2596.0 129.0Q2654 151 2696 171Q2681 174 2667 174Q2653 174 2635 171Q2640 183 2644.0 215.0Q2648 247 2652 285L2619 299Q2622 263 2626.5 232.5Q2631 202 2637 187Q2622 190 2607 190Q2591 190 2573 187Q2579 201 2583.5 235.5Q2588 270 2591 311L2557 325Q2561 286 2565.5 252.5Q2570 219 2576 203Q2561 206 2545 206Q2530 206 2512 203Q2517 217 2521.5 254.5Q2526 292 2530 335L2496 347Q2500 307 2504.5 271.5Q2509 236 2516 219Q2501 222 2486 222Q2470 222 2452 219Q2458 233 2462.5 272.0Q2467 311 2471 357L2434 369Q2438 326 2442.5 289.0Q2447 252 2454 235Q2439 238 2424 238Q2408 238 2390 235Q2396 250 2400.5 291.0Q2405 332 2409 378L2371 391Q2375 347 2380.0 308.0Q2385 269 2392 251Q2377 254 2361 254Q2346 254 2328 251Q2334 266 2338.5 308.5Q2343 351 2347 398L2309 410Q2313 365 2317.5 325.0Q2322 285 2329 267Q2314 270 2300 270Q2284 270 2266 267Q2267 270 2268.0 274.0Q2269 278 2270 283Q2257 286 2241 286Q2236 286 2230.0 285.5Q2224 285 2218 284Q2223 204 2231.0 135.5Q2239 67 2252 23Q2237 25 2222.5 26.0Q2208 27 2193 27Q2178 27 2163.5 26.0Q2149 25 2135 23Q2145 60 2152.5 125.5Q2160 191 2165.0 273.5Q2170 356 2173.5 443.5Q2177 531 2178.5 612.5Q2180 694 2181 757L2158 760Q2155 742 2155 730Q2155 725 2155.5 719.5Q2156 714 2157 707Q2158 707 2158.0 707.5Q2158 708 2159 708Q2158 706 2158 703Q2158 699 2159 698H2157Q2156 692 2155.5 687.0Q2155 682 2155 677Q2155 672 2155.5 666.0Q2156 660 2157 653Q2158 653 2158.0 653.5Q2158 654 2159 654Q2158 652 2158 649Q2158 645 2159 644H2157Q2156 638 2155.5 633.0Q2155 628 2155 623Q2155 618 2155.5 612.0Q2156 606 2157 599Q2158 599 2158.0 599.5Q2158 600 2159 600Q2158 598 2158 595Q2158 591 2159 590H2157Q2156 584 2155.5 579.0Q2155 574 2155 569Q2155 564 2155.5 558.0Q2156 552 2157 545Q2158 545 2158.0 545.5Q2158 546 2159 546Q2158 544 2158 541Q2158 537 2159 536H2157Q2156 530 2155.5 524.5Q2155 519 2155 513Q2155 499 2159 482Q2130 494 2092.5 500.5Q2055 507 1990 508L1993 456Q2055 458 2092.5 464.0Q2130 470 2159 482Q2158 472 2156.5 464.5Q2155 457 2155 449Q2155 444 2155.5 438.5Q2156 433 2157 427Q2158 427 2158.0 427.5Q2158 428 2159 428Q2158 426 2158 423Q2158 420 2159 418H2157Q2156 412 2155.5 407.0Q2155 402 2155 397Q2155 392 2155.5 386.0Q2156 380 2157 373Q2158 373 2158.0 373.5Q2158 374 2159 374Q2158 372 2158 369Q2158 365 2159 364H2157Q2156 358 2155.5 353.0Q2155 348 2155 343Q2155 338 2155.5 332.0Q2156 326 2157 319Q2158 319 2158.0 319.5Q2158 320 2159 320Q2158 318 2158 315Q2158 312 2159 310H2157Q2156 303 2155.5 297.5Q2155 292 2155 286Q2155 281 2155.5 276.0Q2156 271 2157 264Q2158 264 2158.0 264.5Q2158 265 2159 265Q2158 263 2158 260Q2158 257 2159 256H2157Q2156 250 2155.5 244.5Q2155 239 2155 233Q2155 218 2159 202Q2135 212 2101.0 217.5Q2067 223 2020 226Q2022 213 2025.0 201.5Q2028 190 2031 179Q2017 181 2002.0 182.0Q1987 183 1973 183Q1958 183 1943.5 182.0Q1929 181 1915 179Q1927 223 1935.5 292.5Q1944 362 1949 442Q1916 439 1861.5 428.0Q1807 417 1740.5 401.0Q1674 385 1605.5 367.5Q1537 350 1474.5 333.0Q1412 316 1366 303Q1409 285 1475.5 258.0Q1542 231 1620.0 200.0Q1698 169 1777.5 138.5Q1857 108 1927.5 82.0Q1998 56 2048.5 40.0Q2099 24 2119 23Q2109 9 2100.5 -5.0Q2092 -19 2084 -36ZM1986 682Q2051 682 2084.5 687.5Q2118 693 2146 703Q2118 714 2084.5 718.5Q2051 723 1985 724Q1985 714 1985.5 703.5Q1986 693 1986 682ZM1987 628Q2050 629 2084.5 634.0Q2119 639 2146 649Q2118 660 2084.5 664.5Q2051 669 1986 670Q1986 660 1986.0 649.5Q1986 639 1987 628ZM1988 574Q2050 575 2084.5 580.0Q2119 585 2146 595Q2119 605 2084.5 610.0Q2050 615 1987 616Q1987 606 1987.0 595.5Q1987 585 1988 574ZM1990 520Q2048 521 2083.5 526.0Q2119 531 2146 541Q2119 551 2084.5 556.0Q2050 561 1988 562ZM856 469 850 508Q765 504 720 489Q744 481 776.5 476.0Q809 471 856 469ZM617 321Q613 366 608.0 406.5Q603 447 596 466Q592 444 588.0 407.5Q584 371 581 332ZM863 414Q862 425 861.0 435.0Q860 445 858 455Q811 454 778.5 448.5Q746 443 721 435Q747 426 780.5 421.0Q814 416 863 414ZM1997 402Q2050 404 2085.0 408.5Q2120 413 2146 423Q2119 432 2084.5 437.5Q2050 443 1994 444ZM2215 320Q2219 343 2222.0 373.0Q2225 403 2227 435Q2223 436 2219.0 437.5Q2215 439 2210 440Q2211 410 2212.5 379.5Q2214 349 2215 320ZM657 310 651 429Q647 407 644.0 377.0Q641 347 639 315Q644 314 648.5 312.5Q653 311 657 310ZM2270 284Q2275 306 2279.0 342.5Q2283 379 2285 418L2250 428Q2254 383 2258.5 343.0Q2263 303 2270 284ZM868 360 865 401Q814 400 780.5 394.5Q747 389 721 381Q747 372 781.0 367.0Q815 362 868 360ZM2002 348Q2052 350 2086.5 355.0Q2121 360 2146 369Q2120 378 2085.5 383.0Q2051 388 1998 389Q1999 379 2000.0 369.0Q2001 359 2002 348ZM872 306 869 347Q816 346 781.5 341.0Q747 336 721 327Q747 317 782.0 312.0Q817 307 872 306ZM2008 294Q2100 298 2146 315Q2121 323 2087.0 328.5Q2053 334 2003 335ZM2017 241Q2100 245 2147 260Q2101 277 2010 281Q2012 271 2013.5 261.0Q2015 251 2017 241ZM878 188Q878 199 877.5 209.5Q877 220 877 230Q819 229 783.5 224.0Q748 219 720 209Q748 199 782.0 194.0Q816 189 878 188ZM880 134Q879 145 879.0 155.5Q879 166 879 176Q817 175 782.5 170.0Q748 165 720 155Q748 145 782.5 140.0Q817 135 880 134ZM881 80Q881 91 880.5 101.5Q880 112 880 122Q817 121 782.5 116.0Q748 111 720 101Q748 91 782.0 85.5Q816 80 881 80ZM881 26V68Q816 67 782.0 62.5Q748 58 720 47Q748 37 782.0 31.5Q816 26 881 26ZM882 -21Q882 -13 881.5 -4.0Q881 5 881 14Q834 14 803.5 11.0Q773 8 752.0 2.5Q731 -3 710 -11Q746 -15 788.0 -17.5Q830 -20 882 -21Z" />
  </g>
</svg>