<svg xmlns="http://www.w3.org/2000/svg" viewBox="100 -110 1118 846">
  <g transform="translate(0, 626) scale(1, -1)">
    <path fill="black" d="M268 -110Q268 -42 264.0 43.0Q260 128 252 219Q205 212 166.0 205.5Q127 199 100 191Q112 242 112 296Q112 350 100 407Q123 401 157.5 394.5Q192 388 236 382Q224 485 208.5 577.5Q193 670 175 736Q226 724 280 724Q334 724 391 736Q375 678 359.0 580.5Q343 483 330 371L509 353Q497 464 481.0 565.0Q465 666 445 736Q496 724 550 724Q604 724 661 736Q650 695 638.5 634.0Q627 573 617.0 499.0Q607 425 598 346Q645 342 692.5 338.5Q740 335 786 332L822 372L846 359L829 329Q889 325 946.0 322.5Q1003 320 1053 318Q1040 438 1023.0 549.0Q1006 660 985 736Q1036 724 1090 724Q1144 724 1201 736Q1189 692 1177.0 626.0Q1165 560 1154.0 480.0Q1143 400 1134 315Q1157 314 1179.0 314.0Q1201 314 1218 314V284Q1200 284 1178.0 284.0Q1156 284 1131 283Q1121 175 1114.5 72.0Q1108 -31 1108 -110H1078Q1078 -30 1072.5 72.0Q1067 174 1057 280Q999 279 932.0 275.5Q865 272 794 268Q774 232 756.5 202.0Q739 172 722 144Q748 100 777.0 50.0Q806 0 846 -71L822 -85Q764 -33 722.0 8.0Q680 49 646.5 82.0Q613 115 579 140Q574 70 571.0 6.5Q568 -57 568 -110H538Q538 -36 533.0 57.0Q528 150 519 248Q465 244 414.0 238.5Q363 233 316 227Q308 133 303.0 45.5Q298 -42 298 -110ZM579 149Q602 169 638.0 197.5Q674 226 714 263L588 254Z" />
  </g>
</svg>