<svg xmlns="http://www.w3.org/2000/svg" viewBox="100 -99 761 898">
  <g transform="translate(0, 700) scale(1, -1)">
    <path fill="black" d="M100 -99Q112 -48 112 6Q112 60 100 117Q138 107 184.5 96.5Q231 86 283 76Q324 165 345.5 230.0Q367 295 375.5 339.5Q384 384 385 410Q392 404 399.5 398.5Q407 393 415 388Q363 471 321.5 522.5Q280 574 248.5 603.0Q217 632 195 647Q220 655 242.0 667.0Q264 679 283 692Q244 685 210.0 676.0Q176 667 140 657Q144 676 145.5 694.0Q147 712 147 730Q147 767 140 799Q179 788 216.0 779.0Q253 770 295.0 762.0Q337 754 391.0 749.0Q445 744 518.5 741.0Q592 738 692 738V718H667Q670 690 681.0 644.5Q692 599 720.5 531.5Q749 464 803 367Q831 355 861 346Q839 328 806.0 291.5Q773 255 730.0 192.0Q687 129 635 31Q683 27 730.0 25.5Q777 24 820 24V-6Q770 -6 717.5 -8.0Q665 -10 612 -14Q611 -15 611 -16L608 -14Q472 -25 339.0 -47.0Q206 -69 100 -99ZM613 33Q662 136 688.0 209.5Q714 283 724.0 332.0Q734 381 735 410Q742 404 749.5 398.5Q757 393 765 388Q713 471 671.5 522.5Q630 574 598.5 603.0Q567 632 545 647Q616 673 666 718Q542 717 460.0 712.0Q378 707 319 698Q324 668 336.5 623.5Q349 579 377.0 516.0Q405 453 453 367Q481 355 511 346Q480 321 428.5 259.0Q377 197 308 72Q379 60 457.0 50.0Q535 40 613 33Z" />
  </g>
</svg>