<svg xmlns="http://www.w3.org/2000/svg" viewBox="100 -139 1042 843">
  <g transform="translate(0, 565) scale(1, -1)">
    <path fill="black" d="M166 -139Q166 -53 162.5 43.0Q159 139 153.0 233.5Q147 328 138.5 409.5Q130 491 120.5 549.0Q111 607 100 629Q133 623 174 623Q213 623 250 629Q250 647 249.0 666.0Q248 685 245 704Q260 697 312.0 689.0Q364 681 441.0 673.5Q518 666 609.5 659.5Q701 653 796.5 648.5Q892 644 981.5 641.0Q1071 638 1142 638V618Q1071 618 982.0 615.5Q893 613 798.5 608.5Q704 604 613.5 598.0Q523 592 446.0 584.5Q369 577 316.0 569.0Q263 561 245 552Q247 569 248.5 587.5Q250 606 250 626Q245 613 239.5 586.5Q234 560 229 522Q237 521 245.5 521.0Q254 521 262 521Q304 521 344 527Q343 538 342.0 549.5Q341 561 339 572Q354 565 399.0 557.0Q444 549 510.5 541.5Q577 534 656.5 527.5Q736 521 820.5 516.5Q905 512 988.0 509.0Q1071 506 1142 506V486Q1071 486 989.0 483.5Q907 481 823.0 476.5Q739 472 660.5 466.0Q582 460 516.0 452.5Q450 445 403.5 437.0Q357 429 339 420Q345 455 345 497Q345 505 345.0 512.0Q345 519 344 526Q328 494 314 394Q324 393 334.0 392.5Q344 392 354 392Q392 392 431 398Q430 409 429.5 419.5Q429 430 427 440Q445 431 496.5 421.5Q548 412 622.5 403.5Q697 395 784.5 388.5Q872 382 964.0 378.0Q1056 374 1142 374V354Q1060 354 973.5 351.0Q887 348 804.0 342.0Q721 336 649.0 328.5Q577 321 523 312Q547 301 606.5 289.5Q666 278 750.5 268.5Q835 259 935.5 253.0Q1036 247 1142 247V227Q1035 227 935.0 221.5Q835 216 751.5 207.0Q668 198 608.0 186.0Q548 174 521 161Q529 209 526 264Q515 242 503.5 215.0Q492 188 482.5 145.0Q473 102 467.5 34.0Q462 -34 462 -139H442Q442 -48 438.0 13.5Q434 75 427.0 116.0Q420 157 411.0 185.0Q402 213 391 235Q381 165 374.0 71.0Q367 -23 367 -139H347Q347 25 335.0 141.0Q323 257 305 327Q297 262 291.0 184.5Q285 107 281.5 24.5Q278 -58 278 -139H258Q258 -32 252.5 74.5Q247 181 238.0 273.0Q229 365 217 430Q209 349 201.5 250.0Q194 151 190.0 50.5Q186 -50 186 -139ZM452 262Q470 262 489.0 263.5Q508 265 526 267Q525 278 524.0 289.5Q523 301 521 311Q453 300 427 288Q429 304 430.5 322.0Q432 340 432 359Q432 368 432.0 377.0Q432 386 431 395Q423 376 413.5 343.5Q404 311 396 265Q423 262 452 262Z" />
  </g>
</svg>