<svg xmlns="http://www.w3.org/2000/svg" viewBox="100 -111 1346 847">
  <g transform="translate(0, 625) scale(1, -1)">
    <path fill="black" d="M750 -111 644 -42Q643 -60 643.0 -77.0Q643 -94 643 -110H613Q613 -89 612.5 -67.0Q612 -45 611 -21Q573 3 533.0 27.5Q493 52 453 75Q450 -13 450 -110H420Q420 -54 419.5 -3.5Q419 47 417 95Q334 142 253.0 181.5Q172 221 100 243Q145 292 173 352Q159 381 140.5 409.0Q122 437 100 461Q186 488 255.0 518.0Q324 548 390.5 586.0Q457 624 535 674L520 736Q571 724 625 724Q679 724 736 736Q728 706 719.5 665.0Q711 624 703 575Q803 547 909 535Q902 591 893.0 639.0Q884 687 872 718Q901 712 931 712Q960 712 996 718V717Q1010 715 1024.0 713.5Q1038 712 1052 712Q1081 712 1117 718Q1104 689 1095.0 659.5Q1086 630 1079 591Q1088 592 1097.5 593.5Q1107 595 1117 596Q1110 578 1103.0 559.5Q1096 541 1091 520Q1180 517 1273 517Q1264 580 1253.0 636.5Q1242 693 1230 736Q1281 724 1335 724Q1389 724 1446 736Q1432 686 1418.5 607.5Q1405 529 1393.5 434.5Q1382 340 1372.5 241.5Q1363 143 1358.0 52.0Q1353 -39 1353 -110H1323Q1323 -5 1314 127Q1201 127 1091.0 121.5Q981 116 882.0 103.5Q783 91 703 69Q709 105 709 142Q709 179 703 215Q845 175 994.5 166.0Q1144 157 1312 157Q1306 239 1297.0 323.5Q1288 408 1277 487Q1176 485 1082 481Q1076 452 1072.5 416.0Q1069 380 1067 334H1053Q1048 381 1043.0 415.5Q1038 450 1032 478Q1013 477 993.5 475.0Q974 473 955 471Q952 436 950.0 401.0Q948 366 946 334H931Q927 366 924.0 400.0Q921 434 917 468Q859 461 804.5 451.5Q750 442 703 429Q709 464 709 501Q709 538 703 574Q689 489 677.5 388.0Q666 287 657.5 185.0Q649 83 645 -5Q677 -27 707.5 -47.0Q738 -67 766 -86ZM1019 525Q1014 542 1007.5 559.5Q1001 577 993 596Q1004 594 1014.0 593.0Q1024 592 1034 591Q1027 626 1017.5 653.5Q1008 681 994 714Q984 687 975.5 637.5Q967 588 960 529Q975 528 989.5 527.0Q1004 526 1019 525ZM610 19Q607 93 600.5 174.5Q594 256 585.5 338.5Q577 421 566.0 498.5Q555 576 542 642Q431 567 347.0 499.5Q263 432 192 352Q232 310 289.5 260.5Q347 211 414 160Q410 245 397.5 325.5Q385 406 362 491Q398 485 435 485Q472 485 508 491Q486 411 473.5 320.5Q461 230 455 129Q493 101 532.0 73.0Q571 45 610 19Z" />
  </g>
</svg>