<svg xmlns="http://www.w3.org/2000/svg" viewBox="100 -111 1346 847">
  <g transform="translate(0, 625) scale(1, -1)">
    <path fill="black" d="M750 -111 644 -42Q643 -60 643.0 -77.0Q643 -94 643 -110H613Q613 -89 612.5 -67.0Q612 -45 611 -21Q573 3 533.0 27.5Q493 52 453 75Q450 -13 450 -110H420Q420 -54 419.5 -3.5Q419 47 417 95Q334 142 253.0 181.5Q172 221 100 243Q145 292 173 352Q159 381 140.5 409.0Q122 437 100 461Q186 488 255.0 518.0Q324 548 390.5 586.0Q457 624 535 674L520 736Q571 724 625 724Q679 724 736 736Q728 706 719.5 665.0Q711 624 703 575Q837 538 977.5 528.0Q1118 518 1273 517Q1264 580 1253.0 636.5Q1242 693 1230 736Q1281 724 1335 724Q1389 724 1446 736Q1432 686 1418.5 607.5Q1405 529 1393.5 434.5Q1382 340 1372.5 241.5Q1363 143 1358.0 52.0Q1353 -39 1353 -110H1323Q1323 -5 1314 127Q1201 127 1091.0 121.5Q981 116 882.0 103.5Q783 91 703 69Q709 105 709 142Q709 179 703 215Q828 180 959.0 169.5Q1090 159 1234 157Q1233 177 1232.0 194.5Q1231 212 1229 228Q1169 224 1130.0 221.0Q1091 218 1063.5 214.5Q1036 211 1013.0 206.5Q990 202 964 195Q966 201 966.5 207.0Q967 213 968 219Q910 215 869.0 210.0Q828 205 793 195Q797 212 797 235Q797 246 796.0 256.5Q795 267 793 277Q828 267 869.0 261.0Q910 255 968 250Q967 257 966.5 263.5Q966 270 964 277Q990 270 1012.5 264.5Q1035 259 1063.0 254.5Q1091 250 1130.0 247.0Q1169 244 1228 241Q1224 300 1220.5 336.5Q1217 373 1212.0 400.5Q1207 428 1198 459Q1208 457 1218.0 455.5Q1228 454 1238 454Q1248 454 1258.5 455.5Q1269 457 1280 459Q1272 431 1266.5 406.0Q1261 381 1257.0 349.5Q1253 318 1250.0 272.0Q1247 226 1244 157H1312Q1306 239 1297.0 323.5Q1288 408 1277 487Q1117 486 967.0 473.5Q817 461 703 429Q709 464 709 499Q709 537 703 573Q689 488 677.5 387.5Q666 287 657.5 185.0Q649 83 645 -5Q677 -27 707.5 -47.0Q738 -67 766 -86ZM610 19Q607 93 600.5 174.5Q594 256 585.5 338.5Q577 421 566.0 498.5Q555 576 542 642Q431 567 347.0 499.5Q263 432 192 352Q232 310 289.5 260.5Q347 211 414 160Q410 245 397.5 325.5Q385 406 362 491Q398 485 435 485Q472 485 508 491Q486 411 473.5 320.5Q461 230 455 129Q493 101 532.0 73.0Q571 45 610 19ZM1166 280Q1125 316 1102 334Q1034 345 989.5 350.0Q945 355 907 355Q888 355 868.5 354.0Q849 353 827 351Q846 396 846 440Q882 422 913.0 408.5Q944 395 983.0 381.5Q1022 368 1081 351Q1095 362 1117.5 383.5Q1140 405 1162 429L1169 425Q1156 402 1146.5 383.5Q1137 365 1129 350Q1135 340 1146.0 323.5Q1157 307 1172 286Z" />
  </g>
</svg>