<svg xmlns="http://www.w3.org/2000/svg" viewBox="100 -111 1346 847">
  <g transform="translate(0, 625) scale(1, -1)">
    <path fill="black" d="M750 -111 644 -42Q643 -60 643.0 -77.0Q643 -94 643 -110H613Q613 -89 612.5 -67.0Q612 -45 611 -21Q573 3 533.0 27.5Q493 52 453 75Q450 -13 450 -110H420Q420 -54 419.5 -3.5Q419 47 417 95Q334 142 253.0 181.5Q172 221 100 243Q145 292 173 352Q159 381 140.5 409.0Q122 437 100 461Q186 488 255.0 518.0Q324 548 390.5 586.0Q457 624 535 674L520 736Q571 724 625 724Q679 724 736 736Q728 706 719.5 665.0Q711 624 703 575Q780 554 857 542Q853 563 848.0 583.5Q843 604 838 624Q852 620 866.0 618.0Q880 616 896 616Q912 616 928.0 618.0Q944 620 960 624Q954 603 949.5 580.5Q945 558 940 531Q961 529 982.0 527.5Q1003 526 1025 524Q1021 551 1015.5 575.0Q1010 599 1003 624Q1017 620 1031.5 618.0Q1046 616 1061 616Q1076 616 1092.5 618.0Q1109 620 1125 624Q1112 581 1103 520Q1186 517 1273 517Q1264 580 1253.0 636.5Q1242 693 1230 736Q1281 724 1335 724Q1389 724 1446 736Q1432 686 1418.5 607.5Q1405 529 1393.5 434.5Q1382 340 1372.5 241.5Q1363 143 1358.0 52.0Q1353 -39 1353 -110H1323Q1323 -5 1314 127Q1201 127 1091.0 121.5Q981 116 882.0 103.5Q783 91 703 69Q709 105 709 142Q709 179 703 215Q750 202 798.0 192.5Q846 183 895 176Q895 180 895.0 183.5Q895 187 894 191Q890 222 881.5 262.0Q873 302 862.0 343.5Q851 385 838 418Q858 411 876 410L870 462Q825 455 783.0 447.5Q741 440 703 429Q709 464 709 499Q709 537 703 573Q689 488 677.5 387.5Q666 287 657.5 185.0Q649 83 645 -5Q677 -27 707.5 -47.0Q738 -67 766 -86ZM610 19Q607 93 600.5 174.5Q594 256 585.5 338.5Q577 421 566.0 498.5Q555 576 542 642Q431 567 347.0 499.5Q263 432 192 352Q232 310 289.5 260.5Q347 211 414 160Q410 245 397.5 325.5Q385 406 362 491Q398 485 435 485Q472 485 508 491Q486 411 473.5 320.5Q461 230 455 129Q493 101 532.0 73.0Q571 45 610 19ZM1312 157Q1306 239 1297.0 323.5Q1288 408 1277 487Q1259 487 1240.5 486.5Q1222 486 1204 485Q1190 465 1181.0 447.5Q1172 430 1160 412Q1173 393 1182.0 374.0Q1191 355 1206 333L1192 323Q1163 351 1147.5 366.5Q1132 382 1117 395Q1101 346 1091.5 291.0Q1082 236 1079 192V161Q1135 158 1193.0 157.5Q1251 157 1312 157ZM1091 411Q1092 411 1092.5 411.5Q1093 412 1094 412Q1109 426 1129.0 439.5Q1149 453 1183 485L1098 482Q1096 466 1094.5 448.5Q1093 431 1091 411ZM1061 162 1059 196Q1054 227 1045.5 266.5Q1037 306 1026.5 346.0Q1016 386 1003 418Q1023 411 1041 410Q1040 429 1037.5 445.5Q1035 462 1033 478Q1007 476 981.5 474.0Q956 472 931 469L925 411Q934 413 942.5 414.5Q951 416 960 418Q948 381 938.5 338.5Q929 296 922 255Q937 269 958.5 284.5Q980 300 1019 335L1029 328Q1015 307 1005.5 288.5Q996 270 984 252Q996 233 1005.5 214.0Q1015 195 1029 175L1019 166Q992 190 976.5 204.0Q961 218 949.0 228.0Q937 238 921 250L913 185V174Q987 165 1061 162Z" />
  </g>
</svg>