<svg xmlns="http://www.w3.org/2000/svg" viewBox="100 -111 1346 847">
  <g transform="translate(0, 625) scale(1, -1)">
    <path fill="black" d="M750 -111 644 -42Q643 -60 643.0 -77.0Q643 -94 643 -110H613Q613 -89 612.5 -67.0Q612 -45 611 -21Q573 3 533.0 27.5Q493 52 453 75Q450 -13 450 -110H420Q420 -54 419.5 -3.5Q419 47 417 95Q334 142 253.0 181.5Q172 221 100 243Q145 292 173 352Q159 381 140.5 409.0Q122 437 100 461Q186 488 255.0 518.0Q324 548 390.5 586.0Q457 624 535 674L520 736Q571 724 625 724Q679 724 736 736Q728 706 719.5 665.0Q711 624 703 575Q758 559 810.5 549.0Q863 539 916 533Q914 556 910.5 572.5Q907 589 905 596Q917 593 938 593Q959 593 974 596Q971 589 968.5 571.0Q966 553 963 528Q1035 521 1111.5 519.0Q1188 517 1273 517V518Q1191 543 1109.5 564.0Q1028 585 962.0 598.5Q896 612 858 614Q887 660 891 708Q927 683 986.5 653.5Q1046 624 1120.0 593.0Q1194 562 1271 532Q1253 653 1230 736Q1281 724 1335 724Q1389 724 1446 736Q1432 686 1418.5 607.5Q1405 529 1393.5 434.5Q1382 340 1372.5 241.5Q1363 143 1358.0 52.0Q1353 -39 1353 -110H1323Q1323 -5 1314 127Q1201 127 1091.0 121.5Q981 116 882.0 103.5Q783 91 703 69Q709 105 709 142Q709 179 703 215Q845 175 994.5 166.0Q1144 157 1312 157Q1306 237 1297.5 319.5Q1289 402 1278 479Q1184 443 1095.5 405.0Q1007 367 945 332Q944 323 944.0 315.0Q944 307 944 301H938L935 326Q922 319 911.0 312.0Q900 305 891 299Q887 347 858 393Q886 395 929 402L923 468Q862 461 806.5 452.0Q751 443 703 429Q709 464 709 501Q709 538 703 574Q689 489 677.5 388.0Q666 287 657.5 185.0Q649 83 645 -5Q677 -27 707.5 -47.0Q738 -67 766 -86ZM610 19Q607 93 600.5 174.5Q594 256 585.5 338.5Q577 421 566.0 498.5Q555 576 542 642Q431 567 347.0 499.5Q263 432 192 352Q232 310 289.5 260.5Q347 211 414 160Q410 245 397.5 325.5Q385 406 362 491Q398 485 435 485Q472 485 508 491Q486 411 473.5 320.5Q461 230 455 129Q493 101 532.0 73.0Q571 45 610 19ZM951 406Q1014 419 1095.5 440.0Q1177 461 1259 486Q1181 485 1104.5 482.0Q1028 479 957 472Z" />
  </g>
</svg>