<svg xmlns="http://www.w3.org/2000/svg" viewBox="100 -111 1346 847">
  <g transform="translate(0, 625) scale(1, -1)">
    <path fill="black" d="M750 -111 644 -42Q643 -60 643.0 -77.0Q643 -94 643 -110H613Q613 -89 612.5 -67.0Q612 -45 611 -21Q573 3 533.0 27.5Q493 52 453 75Q450 -13 450 -110H420Q420 -54 419.5 -3.5Q419 47 417 95Q334 142 253.0 181.5Q172 221 100 243Q145 292 173 352Q159 381 140.5 409.0Q122 437 100 461Q186 488 255.0 518.0Q324 548 390.5 586.0Q457 624 535 674L520 736Q571 724 625 724Q679 724 736 736Q728 706 719.5 665.0Q711 624 703 575Q837 538 977.5 528.0Q1118 518 1273 517Q1264 580 1253.0 636.5Q1242 693 1230 736Q1281 724 1335 724Q1389 724 1446 736Q1432 686 1418.5 607.5Q1405 529 1393.5 434.5Q1382 340 1372.5 241.5Q1363 143 1358.0 52.0Q1353 -39 1353 -110H1323Q1323 -5 1314 127Q1201 127 1091.0 121.5Q981 116 882.0 103.5Q783 91 703 69Q709 105 709 142Q709 179 703 215Q776 195 851.0 183.0Q926 171 1003 166Q991 186 979.0 202.0Q967 218 956 234Q934 232 911.5 231.5Q889 231 862 227L859 241Q895 255 916.0 263.5Q937 272 953.0 279.5Q969 287 988 298Q994 275 999.0 247.5Q1004 220 1020 164Q1090 160 1163.0 158.5Q1236 157 1312 157Q1306 239 1297.0 323.5Q1288 408 1277 487Q1117 486 967.0 473.5Q817 461 703 429Q709 464 709 499Q709 537 703 573Q689 488 677.5 387.5Q666 287 657.5 185.0Q649 83 645 -5Q677 -27 707.5 -47.0Q738 -67 766 -86ZM610 19Q607 93 600.5 174.5Q594 256 585.5 338.5Q577 421 566.0 498.5Q555 576 542 642Q431 567 347.0 499.5Q263 432 192 352Q232 310 289.5 260.5Q347 211 414 160Q410 245 397.5 325.5Q385 406 362 491Q398 485 435 485Q472 485 508 491Q486 411 473.5 320.5Q461 230 455 129Q493 101 532.0 73.0Q571 45 610 19ZM1163 239Q1149 263 1135.5 281.0Q1122 299 1109 318Q1087 316 1064.5 315.5Q1042 315 1015 311L1014 314L1010 311Q996 335 982.5 353.0Q969 371 956 390Q934 388 911.5 387.5Q889 387 862 383L859 397Q895 411 916.0 419.5Q937 428 953.0 435.5Q969 443 988 454Q993 432 998.5 405.5Q1004 379 1018 327Q1051 340 1071.5 348.0Q1092 356 1107.5 363.5Q1123 371 1141 382Q1147 359 1152.5 331.0Q1158 303 1174 247Z" />
  </g>
</svg>