<svg xmlns="http://www.w3.org/2000/svg" viewBox="100 -111 1382 847">
  <g transform="translate(0, 625) scale(1, -1)">
    <path fill="black" d="M750 -111 644 -42Q643 -60 643.0 -77.0Q643 -94 643 -110H613Q613 -89 612.5 -67.0Q612 -45 611 -21Q573 3 533.0 27.5Q493 52 453 75Q450 -13 450 -110H420Q420 -54 419.5 -3.5Q419 47 417 95Q334 142 253.0 181.5Q172 221 100 243Q145 292 173 352Q159 381 140.5 409.0Q122 437 100 461Q186 488 255.0 518.0Q324 548 390.5 586.0Q457 624 535 674L520 736Q571 724 625 724Q679 724 736 736Q728 706 719.5 665.0Q711 624 703 575Q837 538 977.5 528.0Q1118 518 1273 517Q1264 580 1253.0 636.5Q1242 693 1230 736Q1281 724 1335 724Q1389 724 1446 736Q1433 687 1419.5 610.5Q1406 534 1395 444L1482 441V429L1392 423Q1390 408 1388.5 393.0Q1387 378 1385 363Q1406 362 1430.0 361.0Q1454 360 1482 359V347L1382 340L1376 283Q1399 282 1425.0 281.0Q1451 280 1482 279V267L1374 260Q1373 246 1371.5 231.5Q1370 217 1369 203Q1393 202 1421.0 201.0Q1449 200 1482 199V187Q1448 185 1419.5 183.0Q1391 181 1367 179Q1360 99 1356.5 24.5Q1353 -50 1353 -110H1323Q1323 -5 1314 127Q1201 127 1091.0 121.5Q981 116 882.0 103.5Q783 91 703 69Q709 105 709 142Q709 179 703 215Q748 202 794.5 192.0Q841 182 887 174Q839 218 805.0 245.0Q771 272 746.0 289.5Q721 307 698 322Q716 334 733.0 344.0Q750 354 771.0 368.0Q792 382 820.5 405.0Q849 428 889 464Q788 452 703 429Q709 464 709 501Q709 538 703 574Q689 489 677.5 388.0Q666 287 657.5 185.0Q649 83 645 -5Q677 -27 707.5 -47.0Q738 -67 766 -86ZM610 19Q607 93 600.5 174.5Q594 256 585.5 338.5Q577 421 566.0 498.5Q555 576 542 642Q431 567 347.0 499.5Q263 432 192 352Q232 310 289.5 260.5Q347 211 414 160Q410 245 397.5 325.5Q385 406 362 491Q398 485 435 485Q472 485 508 491Q486 411 473.5 320.5Q461 230 455 129Q493 101 532.0 73.0Q571 45 610 19ZM1133 448Q1132 456 1131.0 464.5Q1130 473 1128 481Q1166 470 1199.0 463.0Q1232 456 1282 451Q1281 460 1280.0 469.0Q1279 478 1277 487Q1195 486 1115.0 482.5Q1035 479 960 472Q995 463 1034.0 457.5Q1073 452 1133 448ZM932 167Q934 181 933.5 196.5Q933 212 930 227H928Q928 229 928.5 230.5Q929 232 929 233Q929 235 928.5 236.5Q928 238 928 239Q929 239 929.0 238.5Q929 238 930 238Q933 255 933 272Q933 289 930 307H928Q928 309 928.5 310.5Q929 312 929 313Q929 315 928.5 316.5Q928 318 928 319Q929 319 929.0 318.5Q929 318 930 318Q933 335 933 353Q933 371 930 389H928Q928 392 929 394Q928 395 928 399L930 398Q933 415 933 433Q933 451 930 469L901 466L913 458Q898 437 882.0 410.0Q866 383 853.0 359.0Q840 335 833 322Q840 309 856.0 282.0Q872 255 891.0 225.5Q910 196 924 174L918 169Q922 168 925.0 167.5Q928 167 932 167ZM1133 366 1130 389H1128Q1128 392 1129 394Q1128 395 1128 399L1130 398L1133 418Q1066 414 1025.5 408.0Q985 402 947 393Q985 383 1026.0 377.0Q1067 371 1133 366ZM1292 369 1287 415Q1241 411 1209.5 406.0Q1178 401 1146 393Q1179 384 1211.5 378.5Q1244 373 1292 369ZM1133 286 1130 307H1128Q1128 309 1128.5 310.5Q1129 312 1129 313Q1129 315 1128.5 316.5Q1128 318 1128 319Q1129 319 1129.0 318.5Q1129 318 1130 318L1133 336Q1068 332 1028.0 326.5Q988 321 951 312Q989 302 1029.0 296.5Q1069 291 1133 286ZM1301 288 1296 334Q1247 330 1214.5 325.0Q1182 320 1150 312Q1183 303 1216.5 297.5Q1250 292 1301 288ZM1133 206 1130 227H1128Q1128 229 1128.5 230.5Q1129 232 1129 233Q1129 235 1128.5 236.5Q1128 238 1128 239Q1129 239 1129.0 238.5Q1129 238 1130 238L1133 256Q1068 252 1028.0 246.5Q988 241 951 232Q989 222 1029.0 216.5Q1069 211 1133 206ZM1308 207Q1307 219 1306.0 231.0Q1305 243 1304 255Q1251 251 1217.5 245.5Q1184 240 1150 232Q1185 223 1219.5 217.5Q1254 212 1308 207ZM1313 141 1311 175Q1268 172 1237.5 168.0Q1207 164 1182.0 159.0Q1157 154 1128 147Q1130 154 1131.0 161.5Q1132 169 1133 176Q1083 172 1048.5 168.5Q1014 165 985 160Q1063 150 1144.5 146.0Q1226 142 1313 141Z" />
  </g>
</svg>