<svg xmlns="http://www.w3.org/2000/svg" viewBox="100 -111 1346 847">
  <g transform="translate(0, 625) scale(1, -1)">
    <path fill="black" d="M750 -111 644 -42 643 -110H613L611 -21Q571 3 532.0 27.0Q493 51 453 75L450 -110H420L417 95Q338 141 259.0 179.0Q180 217 100 243Q148 297 173 352Q146 409 100 461Q209 493 317.5 547.5Q426 602 535 674L520 736Q628 712 736 736L703 575Q750 562 797.0 552.5Q844 543 890 537Q888 552 885.0 566.5Q882 581 878 596Q892 593 906.0 593.0Q920 593 934 594V596L939 595L944 596L943 594Q967 590 991 594V596L996 595L1001 596L1000 594Q1024 590 1047 594V596L1052 595L1057 596L1056 594Q1070 593 1084.5 593.0Q1099 593 1113 596Q1108 577 1104.5 558.0Q1101 539 1099 520L1162 518Q1149 652 1133 699Q1184 687 1235 699Q1228 677 1221.5 631.0Q1215 585 1210 517H1273Q1266 572 1255.0 626.5Q1244 681 1230 736Q1338 712 1446 736Q1425 649 1409.0 544.5Q1393 440 1381.0 327.5Q1369 215 1362.0 103.5Q1355 -8 1353 -110H1323Q1322 9 1314 127Q1169 127 1011.0 117.0Q853 107 703 69Q715 142 703 215Q787 189 890.0 176.5Q993 164 1102.0 160.5Q1211 157 1312 157Q1305 240 1296.5 322.5Q1288 405 1277 487L1208 485Q1204 430 1201.5 375.0Q1199 320 1198 265H1182L1171 422L1092 417L1088 318H1081L1073 416L1035 413L1032 318H1023L1016 411L979 408L975 318H967L960 407L922 403Q919 361 919 318H911L905 402Q883 400 860.0 396.5Q837 393 813 388Q817 405 817.0 421.0Q817 437 815 453Q787 449 759.0 443.0Q731 437 703 429Q715 501 703 573Q681 428 666.5 284.0Q652 140 645 -5L766 -86ZM610 19Q603 175 586.5 330.5Q570 486 542 642Q475 599 408.5 548.0Q342 497 286.0 446.0Q230 395 192 352Q300 244 414 160Q410 243 397.0 326.0Q384 409 362 491Q435 479 508 491Q485 401 472.0 311.0Q459 221 455 129Q494 101 532.5 74.0Q571 47 610 19ZM1061 522Q1058 549 1052 578Q1046 552 1043 523ZM1005 525Q1002 550 996 578Q993 565 991.5 552.5Q990 540 988 527ZM947 530Q946 542 944.0 553.5Q942 565 939 577Q937 566 935.0 554.5Q933 543 932 532ZM1170 433 1165 484 1096 481 1093 436ZM1071 437 1067 480 1039 478 1037 439ZM1014 440 1011 476 983 474 980 442ZM957 443 954 471 926 469 924 446ZM901 448 899 465Q866 462 833 456Q850 453 867.0 451.5Q884 450 901 448Z" />
  </g>
</svg>