<svg xmlns="http://www.w3.org/2000/svg" viewBox="100 -111 1346 847">
  <g transform="translate(0, 625) scale(1, -1)">
    <path fill="black" d="M750 -111 644 -42 643 -110H613L611 -21Q571 4 532.0 28.0Q493 52 453 75Q450 -18 450 -110H420Q420 -7 417 95Q338 141 259.0 179.0Q180 217 100 243Q145 292 173 352Q145 410 100 461Q218 495 325.5 551.0Q433 607 535 674L520 736Q628 711 736 736Q726 696 718.0 656.0Q710 616 703 575Q801 548 897 536Q895 558 891.0 580.0Q887 602 881 624L916 618L898 628Q942 656 965 700Q992 655 1027.5 610.0Q1063 565 1106 520Q1148 519 1189.5 518.5Q1231 518 1273 517Q1266 572 1255.0 626.5Q1244 681 1230 736Q1338 711 1446 736Q1433 686 1419.5 611.5Q1406 537 1395.0 447.5Q1384 358 1374.5 261.5Q1365 165 1359.5 70.0Q1354 -25 1353 -110H1323Q1322 9 1314 127Q1105 126 952.5 111.0Q800 96 703 69Q715 142 703 215Q759 199 815.5 188.0Q872 177 928 172Q928 174 927.5 175.0Q927 176 927 177Q919 184 911.0 190.0Q903 196 895 201L925 218Q921 280 916.0 342.0Q911 404 905 466Q855 461 804.0 451.5Q753 442 703 429Q715 501 703 573Q681 428 666.5 284.0Q652 140 645 -5L766 -86ZM610 19Q603 175 586.5 331.0Q570 487 542 642Q476 599 409.0 547.5Q342 496 285.5 445.5Q229 395 192 352Q293 250 414 160Q410 243 397.0 326.0Q384 409 362 491Q435 479 508 491Q485 400 472.5 310.0Q460 220 455 129Q494 101 532.5 73.5Q571 46 610 19ZM1060 522Q1038 538 1017.0 553.5Q996 569 974 583L967 529Q990 527 1013.5 525.0Q1037 523 1060 522ZM1312 157Q1306 240 1297.5 322.5Q1289 405 1277 487L1140 483L1201 424Q1139 360 1084.5 296.0Q1030 232 986 167Q1068 161 1149.0 159.0Q1230 157 1312 157ZM1168 433 1110 482Q1074 481 1037.5 478.5Q1001 476 965 472Q1015 452 1066.0 443.5Q1117 435 1168 433ZM949 234Q1005 271 1058.5 316.5Q1112 362 1171 416Q1119 416 1066.0 406.5Q1013 397 960 373Q963 396 963.5 419.5Q964 443 961 466Q952 351 949 234Z" />
  </g>
</svg>