<svg xmlns="http://www.w3.org/2000/svg" viewBox="100 -111 1346 847">
  <g transform="translate(0, 625) scale(1, -1)">
    <path fill="black" d="M750 -111 644 -42Q643 -60 643.0 -77.0Q643 -94 643 -110H613Q613 -89 612.5 -67.0Q612 -45 611 -21Q573 3 533.0 27.5Q493 52 453 75Q450 -13 450 -110H420Q420 -54 419.5 -3.5Q419 47 417 95Q334 142 253.0 181.5Q172 221 100 243Q145 292 173 352Q159 381 140.5 409.0Q122 437 100 461Q186 488 255.0 518.0Q324 548 390.5 586.0Q457 624 535 674L520 736Q571 724 625 724Q679 724 736 736Q728 706 719.5 665.0Q711 624 703 575Q837 538 977.5 528.0Q1118 518 1273 517Q1264 580 1253.0 636.5Q1242 693 1230 736Q1281 724 1335 724Q1389 724 1446 736Q1432 686 1418.5 607.5Q1405 529 1393.5 434.5Q1382 340 1372.5 241.5Q1363 143 1358.0 52.0Q1353 -39 1353 -110H1323Q1323 -5 1314 127Q1290 127 1266.0 126.5Q1242 126 1218 126V83H1202Q1202 94 1202.0 104.5Q1202 115 1201 125Q1187 125 1172.5 124.5Q1158 124 1143 124V83H1127Q1127 93 1126.5 103.0Q1126 113 1126 123L1068 120V83H1052V119L993 115V83H977V113Q901 106 831.5 95.5Q762 85 703 69Q709 105 709 142Q709 179 703 215Q738 205 773.5 197.5Q809 190 845 184Q846 192 846.5 201.0Q847 210 847 220Q847 237 845.5 254.0Q844 271 842 288Q859 281 892.5 273.5Q926 266 971 259L965 328Q925 321 893.0 314.5Q861 308 842 300Q844 313 845.5 328.5Q847 344 847 360Q847 377 845.5 393.5Q844 410 842 426Q875 411 958 399Q955 425 951.5 443.5Q948 462 946 471Q879 464 817.5 453.5Q756 443 703 429Q709 464 709 499Q709 537 703 573Q689 488 677.5 387.5Q666 287 657.5 185.0Q649 83 645 -5Q677 -27 707.5 -47.0Q738 -67 766 -86ZM610 19Q607 93 600.5 174.5Q594 256 585.5 338.5Q577 421 566.0 498.5Q555 576 542 642Q431 567 347.0 499.5Q263 432 192 352Q232 310 289.5 260.5Q347 211 414 160Q410 245 397.5 325.5Q385 406 362 491Q398 485 435 485Q472 485 508 491Q486 411 473.5 320.5Q461 230 455 129Q493 101 532.0 73.0Q571 45 610 19ZM1292 372 1277 487Q1192 486 1108.5 482.5Q1025 479 947 471Q955 469 965.0 468.0Q975 467 985 467Q1005 467 1021 470V471L1022 470L1024 471L1023 470Q1038 467 1059 467Q1080 467 1096 470V471L1097 470L1099 471L1098 470Q1113 467 1134 467Q1155 467 1171 470V471L1172 470L1174 471L1173 470Q1187 467 1207 467Q1218 467 1229.0 468.0Q1240 469 1249 471Q1246 461 1242.0 435.5Q1238 410 1234 374Q1248 373 1263.0 372.5Q1278 372 1292 372ZM1186 376Q1178 439 1172 466Q1169 455 1166.0 432.0Q1163 409 1159 377Q1166 377 1172.5 376.5Q1179 376 1186 376ZM1110 381Q1107 410 1103.5 432.0Q1100 454 1097 466Q1095 455 1091.5 434.0Q1088 413 1085 384ZM1034 389Q1031 415 1028.0 435.0Q1025 455 1022 466Q1020 456 1017.0 437.0Q1014 418 1011 392ZM1306 234 1294 354 1232 352Q1229 327 1226.5 297.5Q1224 268 1222 236Q1244 235 1265.0 234.5Q1286 234 1306 234ZM1197 237Q1194 299 1188 350Q1181 349 1172.5 348.5Q1164 348 1156 348Q1154 323 1152.0 296.0Q1150 269 1148 240ZM1122 242Q1121 270 1118.5 296.0Q1116 322 1114 345L1081 342Q1079 320 1077.0 296.5Q1075 273 1073 247ZM1046 249 1040 337Q1031 336 1022.0 335.5Q1013 335 1005 333L999 255ZM1219 157H1312L1307 216Q1286 216 1264.5 215.5Q1243 215 1221 214Q1220 200 1219.5 185.5Q1219 171 1219 157ZM1201 158 1198 212 1146 209Q1145 196 1144.5 184.0Q1144 172 1144 159Q1158 158 1172.5 158.0Q1187 158 1201 158ZM1126 159 1124 207 1071 203 1069 161ZM1051 163 1049 200 995 194Q995 187 995.0 180.0Q995 173 994 166ZM975 168Q975 173 975.0 179.0Q975 185 974 191Q927 183 894 176Q914 174 934.5 172.0Q955 170 975 168Z" />
  </g>
</svg>