<svg xmlns="http://www.w3.org/2000/svg" viewBox="100 -111 1346 847">
  <g transform="translate(0, 625) scale(1, -1)">
    <path fill="black" d="M750 -111 644 -42Q643 -60 643.0 -77.0Q643 -94 643 -110H613Q613 -89 612.5 -67.0Q612 -45 611 -21Q573 3 533.0 27.5Q493 52 453 75Q450 -13 450 -110H420Q420 -54 419.5 -3.5Q419 47 417 95Q334 142 253.0 181.5Q172 221 100 243Q145 292 173 352Q159 381 140.5 409.0Q122 437 100 461Q186 488 255.0 518.0Q324 548 390.5 586.0Q457 624 535 674L520 736Q571 724 625 724Q679 724 736 736Q728 706 719.5 665.0Q711 624 703 575Q723 569 742.5 564.5Q762 560 781 555Q781 576 777 593Q789 586 819.5 578.5Q850 571 886 567L883 579Q896 575 915 575Q933 575 949 579Q946 572 943.5 559.5Q941 547 939 530L974 526Q972 547 969.0 563.0Q966 579 963 590Q955 588 947.0 585.0Q939 582 930 579Q936 603 936 626Q936 648 930 675Q947 669 964.5 664.5Q982 660 1008.5 656.0Q1035 652 1077.0 649.0Q1119 646 1183 643Q1182 644 1182 647Q1201 643 1218.5 642.5Q1236 642 1252 642Q1247 668 1241.0 691.5Q1235 715 1230 736Q1281 724 1335 724Q1389 724 1446 736Q1432 686 1418.5 607.5Q1405 529 1393.5 434.5Q1382 340 1372.5 241.5Q1363 143 1358.0 52.0Q1353 -39 1353 -110H1323Q1323 -5 1314 127Q1201 127 1091.0 121.5Q981 116 882.0 103.5Q783 91 703 69Q709 105 709 142Q709 179 703 215Q845 175 994.5 166.0Q1144 157 1312 157Q1306 239 1297.0 323.5Q1288 408 1277 487Q1271 487 1265.5 486.5Q1260 486 1254 486Q1251 442 1248.5 384.5Q1246 327 1244 253H1228L1225 295Q1139 289 1086.5 283.5Q1034 278 1002.5 273.0Q971 268 951.0 262.5Q931 257 910 250Q916 284 915.0 302.5Q914 321 910 346L912 345L906 422Q864 420 827.5 411.0Q791 402 777 394Q779 402 780.0 410.0Q781 418 781 426Q781 431 780.5 436.5Q780 442 779 447Q742 440 703 429Q709 464 709 499Q709 537 703 573Q689 488 677.5 387.5Q666 287 657.5 185.0Q649 83 645 -5Q677 -27 707.5 -47.0Q738 -67 766 -86ZM610 19Q607 93 600.5 174.5Q594 256 585.5 338.5Q577 421 566.0 498.5Q555 576 542 642Q431 567 347.0 499.5Q263 432 192 352Q232 310 289.5 260.5Q347 211 414 160Q410 245 397.5 325.5Q385 406 362 491Q398 485 435 485Q472 485 508 491Q486 411 473.5 320.5Q461 230 455 129Q493 101 532.0 73.0Q571 45 610 19ZM1206 517Q1198 585 1190 620Q1100 613 1054.5 607.5Q1009 602 983 595Q991 595 998.5 595.0Q1006 595 1014 596Q1013 597 1013 599L1019 597L1027 599Q1026 598 1026 596Q1031 595 1036.0 594.5Q1041 594 1046 594Q1051 594 1056.5 594.5Q1062 595 1067 596Q1066 597 1066 599L1073 597L1080 599Q1079 598 1079 596Q1084 595 1089.0 594.5Q1094 594 1099 594Q1104 594 1109.0 594.5Q1114 595 1119 596Q1118 597 1118 599L1125 597L1132 599Q1131 598 1131 596Q1136 595 1140.0 595.0Q1144 595 1148 595Q1157 595 1166.0 596.0Q1175 597 1184 599Q1180 589 1177.0 568.0Q1174 547 1171 518Q1179 518 1188.0 517.5Q1197 517 1206 517ZM1257 517H1273L1264 579Q1262 566 1260.5 550.0Q1259 534 1257 517ZM1132 518Q1131 534 1129.0 547.0Q1127 560 1125 570Q1123 560 1121.5 547.0Q1120 534 1118 519Q1122 519 1125.5 518.5Q1129 518 1132 518ZM1066 520H1080L1073 570Q1071 560 1069.5 547.5Q1068 535 1066 520ZM1014 523H1027Q1026 536 1024.0 547.5Q1022 559 1020 568ZM892 535 889 553Q859 550 834 544ZM1224 312Q1220 366 1216.5 409.0Q1213 452 1210 486Q1199 486 1188.5 485.5Q1178 485 1168 485Q1165 450 1163.0 407.0Q1161 364 1159 315ZM1151 315Q1147 366 1143.5 408.5Q1140 451 1136 484Q1131 484 1125.5 484.0Q1120 484 1115 483Q1113 449 1111.0 407.0Q1109 365 1107 317Q1117 317 1128.5 316.5Q1140 316 1151 315ZM1097 318Q1094 368 1091.0 408.5Q1088 449 1084 482Q1079 482 1073.5 482.0Q1068 482 1063 481Q1060 448 1058.0 407.5Q1056 367 1054 321ZM1044 321Q1038 417 1032 479Q1026 479 1020.5 478.5Q1015 478 1010 478Q1008 446 1006.0 408.0Q1004 370 1002 326ZM992 327Q989 371 986.0 408.0Q983 445 980 476L933 471Q931 444 929.0 411.5Q927 379 925 341Q949 333 992 327ZM905 431 901 467Q874 464 848.5 460.0Q823 456 798 451Q818 444 846.0 438.5Q874 433 905 431Z" />
  </g>
</svg>