<svg xmlns="http://www.w3.org/2000/svg" viewBox="100 -111 1346 847">
  <g transform="translate(0, 625) scale(1, -1)">
    <path fill="black" d="M750 -111 644 -42Q643 -60 643.0 -77.0Q643 -94 643 -110H613Q613 -89 612.5 -67.0Q612 -45 611 -21Q573 3 533.0 27.5Q493 52 453 75Q450 -13 450 -110H420Q420 -54 419.5 -3.5Q419 47 417 95Q334 142 253.0 181.5Q172 221 100 243Q145 292 173 352Q159 381 140.5 409.0Q122 437 100 461Q186 488 255.0 518.0Q324 548 390.5 586.0Q457 624 535 674L520 736Q571 724 625 724Q679 724 736 736Q728 706 719.5 665.0Q711 624 703 575Q740 564 776 557Q777 583 770 616Q792 609 848.0 603.0Q904 597 985.5 592.5Q1067 588 1165 584Q1163 596 1160.0 605.5Q1157 615 1155 622Q1187 616 1212 616Q1223 616 1234.0 617.5Q1245 619 1256 620Q1244 685 1230 736Q1281 724 1335 724Q1389 724 1446 736Q1432 686 1418.5 607.5Q1405 529 1393.5 434.5Q1382 340 1372.5 241.5Q1363 143 1358.0 52.0Q1353 -39 1353 -110H1323Q1323 -5 1314 127Q1201 127 1091.0 121.5Q981 116 882.0 103.5Q783 91 703 69Q709 105 709 142Q709 179 703 215Q845 175 994.5 166.0Q1144 157 1312 157Q1306 239 1297.0 323.5Q1288 408 1277 487Q1267 487 1257.5 486.5Q1248 486 1237 486Q1230 419 1225.0 345.5Q1220 272 1215 218H1201Q1200 252 1197.0 297.0Q1194 342 1190.0 391.0Q1186 440 1180 485Q1046 481 923.0 468.0Q800 455 703 429Q709 464 709 499Q709 537 703 573Q689 488 677.5 387.5Q666 287 657.5 185.0Q649 83 645 -5Q677 -27 707.5 -47.0Q738 -67 766 -86ZM610 19Q607 93 600.5 174.5Q594 256 585.5 338.5Q577 421 566.0 498.5Q555 576 542 642Q431 567 347.0 499.5Q263 432 192 352Q232 310 289.5 260.5Q347 211 414 160Q410 245 397.5 325.5Q385 406 362 491Q398 485 435 485Q472 485 508 491Q486 411 473.5 320.5Q461 230 455 129Q493 101 532.0 73.0Q571 45 610 19ZM1241 517H1273Q1269 541 1266.0 563.5Q1263 586 1258 608Q1249 574 1241 517ZM1176 518 1169 561Q1079 555 1005.5 549.5Q932 544 879 538Q950 528 1024.0 524.0Q1098 520 1176 518ZM839 218Q839 234 838.5 249.0Q838 264 837 278Q816 274 800.5 269.5Q785 265 770 260Q776 284 776 307Q776 329 770 356Q782 352 796.0 348.0Q810 344 829 341Q825 371 819.0 393.5Q813 416 808 432Q816 430 826.5 429.0Q837 428 847 428Q855 428 863.0 428.5Q871 429 878 430V432Q879 431 882 431Q884 431 886 432Q886 431 885.5 431.0Q885 431 885 430Q892 429 900.0 428.5Q908 428 916 428Q927 428 937.0 429.0Q947 430 956 432Q951 417 944.0 391.0Q937 365 932 330Q962 328 1000.0 326.5Q1038 325 1085 323Q1102 337 1126.0 360.0Q1150 383 1172 407L1180 403Q1168 378 1157.0 354.5Q1146 331 1136 313Q1144 300 1158.0 276.5Q1172 253 1184 234L1176 228Q1146 254 1124.5 272.0Q1103 290 1085 303Q1035 300 996.0 296.5Q957 293 928 290Q925 257 925 218H909Q909 255 906 288Q892 287 880.0 285.0Q868 283 857 281Q856 267 855.5 251.0Q855 235 855 218ZM901 333Q897 360 892.0 381.5Q887 403 882 419Q878 405 873.0 384.0Q868 363 863 337Q871 336 881.0 335.0Q891 334 901 333Z" />
  </g>
</svg>