<svg xmlns="http://www.w3.org/2000/svg" viewBox="100 -92 936 1147">
  <g transform="translate(0, 963) scale(1, -1)">
    <path fill="black" d="M322 -92Q322 -53 322.0 -17.5Q322 18 320 51Q262 84 206.0 110.5Q150 137 100 153Q114 170 127.5 189.0Q141 208 151 229Q141 249 128.0 268.5Q115 288 100 305Q160 324 208.0 344.5Q256 365 302.0 391.0Q348 417 402 452Q400 464 397.0 475.0Q394 486 392 496Q426 488 457 488Q457 498 456.5 508.0Q456 518 456 528Q429 545 401.5 562.0Q374 579 346 595Q345 564 344.5 532.0Q344 500 344 467H322Q322 506 322.0 541.5Q322 577 320 610Q262 643 206.0 669.5Q150 696 100 712Q114 729 127.5 748.0Q141 767 151 788Q141 808 128.0 827.5Q115 847 100 864Q160 883 208.0 903.5Q256 924 302.0 950.0Q348 976 402 1011Q400 1023 397.0 1034.0Q394 1045 392 1055Q410 1051 428.0 1049.0Q446 1047 465 1047Q484 1047 503.5 1049.0Q523 1051 543 1055Q531 1012 520 943Q613 918 710.0 910.5Q807 903 915 903Q908 947 900.5 985.5Q893 1024 885 1055Q903 1051 921.5 1049.0Q940 1047 959 1047Q978 1047 997.0 1049.0Q1016 1051 1036 1055Q1026 1022 1017.0 970.0Q1008 918 1000.0 856.0Q992 794 985.5 728.0Q979 662 975.5 600.0Q972 538 971 488Q1001 488 1036 496Q1026 461 1016.5 406.5Q1007 352 999.0 286.5Q991 221 984.5 152.5Q978 84 974.5 20.5Q971 -43 971 -92H950Q950 -18 944 73Q825 72 713.5 63.5Q602 55 519 32Q521 45 522.0 57.5Q523 70 523 83Q523 96 522.0 108.5Q521 121 519 134Q618 106 721.5 99.5Q825 93 942 93Q938 150 932.0 209.0Q926 268 918 323Q806 322 702.0 313.5Q598 305 519 283Q521 295 522.0 307.0Q523 319 523 332Q523 345 522.0 357.0Q521 369 519 382Q509 323 501.0 253.0Q493 183 487.0 112.5Q481 42 478 -19L563 -75L552 -92L478 -44Q477 -57 477.0 -69.0Q477 -81 477 -92H457Q457 -78 456.5 -62.0Q456 -46 456 -30Q429 -13 401.5 3.5Q374 20 346 36Q345 6 344.5 -26.0Q344 -58 344 -92ZM455 556Q452 625 445.5 702.0Q439 779 429.0 854.0Q419 929 407 989Q330 937 272.0 889.5Q214 842 164 788Q192 759 232.0 724.5Q272 690 318 655Q315 714 307.0 769.5Q299 825 283 885Q295 883 307.5 882.0Q320 881 333 881Q346 881 358.0 882.0Q370 883 383 885Q368 829 359.5 766.0Q351 703 347 633Q373 614 400.5 594.5Q428 575 455 556ZM915 344Q908 388 900.5 426.5Q893 465 885 496Q919 488 950 488Q949 520 947.5 556.5Q946 593 944 632Q825 631 713.5 622.5Q602 614 519 591Q521 604 522.0 616.5Q523 629 523 642Q523 655 522.0 667.5Q521 680 519 693Q618 665 721.5 658.5Q825 652 942 652Q938 709 932.0 768.0Q926 827 918 882Q806 881 702.0 872.5Q598 864 519 842Q521 854 522.0 866.0Q523 878 523 891Q523 904 522.0 916.0Q521 928 519 941Q509 882 501.0 812.0Q493 742 487.0 671.5Q481 601 478 540Q501 525 522.0 511.0Q543 497 563 484L552 467L538 476Q529 438 520 384Q613 359 710.0 351.5Q807 344 915 344ZM477 488Q496 488 515 491L478 514Q477 507 477.0 500.5Q477 494 477 488ZM455 -2Q452 66 445.5 143.0Q439 220 429.0 295.0Q419 370 407 430Q330 378 272.0 330.5Q214 283 164 229Q192 200 232.0 165.5Q272 131 318 96Q315 155 307.0 210.5Q299 266 283 326Q295 324 307.5 323.0Q320 322 333 322Q346 322 358.0 323.0Q370 324 383 326Q368 270 359.5 207.0Q351 144 347 74Q400 35 455 -2Z" />
  </g>
</svg>