<svg xmlns="http://www.w3.org/2000/svg" viewBox="100 -151 500 942">
  <g transform="translate(0, 640) scale(1, -1)">
    <path fill="black" d="M227 -151Q181 -77 116 -35Q129 -28 142.5 -20.0Q156 -12 170 -4Q170 50 166.5 117.0Q163 184 157.0 256.0Q151 328 142.5 398.5Q134 469 123.5 530.5Q113 592 100 637Q123 632 146.5 630.0Q170 628 195 629Q174 642 154.0 653.5Q134 665 116 675Q181 717 227 791Q253 749 295.5 691.0Q338 633 390.0 569.5Q442 506 496.5 446.0Q551 386 600 339L589 328H600V305H597L600 302Q551 255 496.5 194.5Q442 134 390.0 70.5Q338 7 295.5 -51.0Q253 -109 227 -151ZM579 328Q511 393 424.5 462.5Q338 532 253 590Q245 551 237.5 501.5Q230 452 222 396Q275 378 325.5 362.5Q376 347 436.5 338.0Q497 329 579 328ZM193 10Q255 49 321.5 98.5Q388 148 452.5 201.5Q517 255 571 305Q491 304 432.0 294.5Q373 285 323.0 270.0Q273 255 220 237Q229 281 229 319Q229 337 227.0 354.5Q225 372 221 389Q213 324 207.0 256.0Q201 188 197.5 125.0Q194 62 193 10Z" />
  </g>
</svg>