<svg xmlns="http://www.w3.org/2000/svg" viewBox="100 -151 1278 942">
  <g transform="translate(0, 640) scale(1, -1)">
    <path fill="black" d="M227 -151Q181 -77 116 -35Q129 -28 142.5 -20.0Q156 -12 170 -4Q170 50 166.5 117.0Q163 184 157.0 256.0Q151 328 142.5 398.5Q134 469 123.5 530.5Q113 592 100 637Q123 632 146.5 630.0Q170 628 195 629Q174 642 154.0 653.5Q134 665 116 675Q181 717 227 791Q253 749 295.5 691.0Q338 633 390.0 569.5Q442 506 496.5 446.0Q551 386 600 339L589 328H600V305H597L600 302Q551 255 496.5 194.5Q442 134 390.0 70.5Q338 7 295.5 -51.0Q253 -109 227 -151ZM1255 -110Q1255 -88 1254.5 -65.0Q1254 -42 1253 -18Q1161 -18 1063.0 -24.5Q965 -31 872.0 -42.5Q779 -54 701.0 -68.0Q623 -82 570 -98Q576 -68 579.5 -39.5Q583 -11 583 15Q583 41 579.5 67.0Q576 93 570 118Q595 109 627 101Q626 133 624.0 179.5Q622 226 619.0 277.5Q616 329 611.0 378.5Q606 428 599.0 467.0Q592 506 584 526Q611 520 633 520Q657 520 690 526Q683 509 677.5 469.5Q672 430 667.5 378.5Q663 327 659.5 273.0Q656 219 653.5 172.0Q651 125 649 95Q707 80 779.5 66.0Q852 52 931.5 40.5Q1011 29 1093.0 22.0Q1175 15 1252 14Q1248 106 1240.0 208.5Q1232 311 1220.0 412.0Q1208 513 1192 599Q1014 592 871.5 570.5Q729 549 640 522Q646 552 649.5 580.5Q653 609 653 635Q653 661 649.5 687.0Q646 713 640 738Q728 708 868.0 678.5Q1008 649 1184 638Q1179 665 1173.5 689.5Q1168 714 1162 736Q1213 724 1267 724Q1321 724 1378 736Q1364 686 1350.5 607.5Q1337 529 1325.5 434.5Q1314 340 1304.5 241.5Q1295 143 1290.0 52.0Q1285 -39 1285 -110ZM579 328Q511 393 424.5 462.5Q338 532 253 590Q245 551 237.5 501.5Q230 452 222 396Q275 378 325.5 362.5Q376 347 436.5 338.0Q497 329 579 328ZM948 101Q948 116 948.0 130.5Q948 145 947 158Q885 152 841.5 143.0Q798 134 764 126Q766 139 767.5 151.0Q769 163 769 175Q769 192 766 211H764Q764 215 765 217Q764 219 764 223Q765 223 765.0 222.5Q765 222 766 222Q769 242 769 259Q769 277 766 296H764Q764 299 765 301Q764 303 764 308Q765 308 765.0 307.5Q765 307 766 307Q769 327 769 344Q769 362 766 381H764Q764 385 765 387Q764 389 764 393L766 392Q769 412 769 429Q769 441 767.5 453.0Q766 465 764 478Q795 469 833.5 462.0Q872 455 924 450Q920 475 915.5 496.0Q911 517 907 533Q920 530 931.5 529.0Q943 528 955 528Q967 528 979.0 529.0Q991 530 1004 533Q994 499 986 444Q1020 442 1059.5 440.5Q1099 439 1146 437V422Q1051 422 983 416L977 360Q1012 357 1054.0 355.5Q1096 354 1146 352V337Q1095 337 1052.5 335.0Q1010 333 975 331Q974 318 972.5 304.0Q971 290 970 275Q1006 273 1050.0 271.0Q1094 269 1146 267V252Q1093 252 1049.0 250.0Q1005 248 969 245L966 191Q1040 185 1146 182V167Q1091 167 1046.5 165.0Q1002 163 965 160Q964 146 963.5 131.0Q963 116 963 101ZM935 363 929 411Q884 407 849.5 400.5Q815 394 787 387Q816 380 851.5 374.0Q887 368 935 363ZM193 10Q255 49 321.5 98.5Q388 148 452.5 201.5Q517 255 571 305Q491 304 432.0 294.5Q373 285 323.0 270.0Q273 255 220 237Q229 281 229 319Q229 337 227.0 354.5Q225 372 221 389Q213 324 207.0 256.0Q201 188 197.5 125.0Q194 62 193 10ZM942 278Q941 291 940.5 303.0Q940 315 938 327Q889 322 852.5 315.5Q816 309 787 302Q817 295 854.5 289.0Q892 283 942 278ZM946 192Q946 206 945.5 218.0Q945 230 944 243Q893 238 855.0 231.5Q817 225 787 217Q818 210 856.0 203.5Q894 197 946 192Z" />
  </g>
</svg>