<svg xmlns="http://www.w3.org/2000/svg" viewBox="100 -110 1278 848">
  <g transform="translate(0, 628) scale(1, -1)">
    <path fill="black" d="M1255 -110Q1255 -88 1254.5 -65.0Q1254 -42 1253 -18Q1161 -18 1063.0 -24.5Q965 -31 872.0 -42.5Q779 -54 701.0 -68.0Q623 -82 570 -98Q576 -68 579.5 -39.5Q583 -11 583 15Q583 41 579.5 67.0Q576 93 570 118Q595 109 627 101Q626 133 624.0 179.5Q622 226 619.0 277.5Q616 329 611.0 378.5Q606 428 599.0 467.0Q592 506 584 526Q611 520 633 520Q657 520 690 526Q683 509 677.5 469.5Q672 430 667.5 378.5Q663 327 659.5 273.0Q656 219 653.5 172.0Q651 125 649 95Q707 80 779.5 66.0Q852 52 931.5 40.5Q1011 29 1093.0 22.0Q1175 15 1252 14Q1248 106 1240.0 208.5Q1232 311 1220.0 412.0Q1208 513 1192 599Q1014 592 871.5 570.5Q729 549 640 522Q646 552 649.5 580.5Q653 609 653 635Q653 661 649.5 687.0Q646 713 640 738Q728 708 868.5 679.0Q1009 650 1184 639Q1179 666 1173.5 690.0Q1168 714 1162 736Q1213 724 1267 724Q1321 724 1378 736Q1364 686 1350.5 607.5Q1337 529 1325.5 434.5Q1314 340 1304.5 241.5Q1295 143 1290.0 52.0Q1285 -39 1285 -110ZM283 -96Q260 -78 226.5 -53.0Q193 -28 159.0 -2.5Q125 23 100 41Q128 62 161.0 86.0Q194 110 225.5 133.5Q257 157 280 175Q257 194 224.0 218.5Q191 243 158.0 267.5Q125 292 100 310Q128 331 161.0 355.0Q194 379 225.5 402.5Q257 426 280 444Q257 463 224.0 487.5Q191 512 158.0 536.5Q125 561 100 579Q129 600 162.5 625.0Q196 650 228.0 674.0Q260 698 283 716L297 705Q261 661 238.0 631.0Q215 601 201 579Q219 552 240.0 524.5Q261 497 297 453L286 444L297 436Q261 392 238.0 362.0Q215 332 201 310Q222 282 241.5 255.0Q261 228 297 184L286 175L297 167Q261 123 238.0 93.0Q215 63 201 41Q222 13 241.5 -14.0Q261 -41 297 -85ZM413 -96Q390 -78 356.5 -53.0Q323 -28 289.0 -2.5Q255 23 230 41Q258 62 291.0 86.0Q324 110 355.5 133.5Q387 157 410 175Q387 194 354.0 218.5Q321 243 288.0 267.5Q255 292 230 310Q258 331 291.0 355.0Q324 379 355.5 402.5Q387 426 410 444Q387 463 354.0 487.5Q321 512 288.0 536.5Q255 561 230 579Q259 600 292.5 625.0Q326 650 358.0 674.0Q390 698 413 716L427 705Q391 661 368.0 631.0Q345 601 331 579Q349 552 370.0 524.5Q391 497 427 453L416 444L427 436Q391 392 368.0 362.0Q345 332 331 310Q352 282 371.5 255.0Q391 228 427 184L416 175L427 167Q391 123 368.0 93.0Q345 63 331 41Q352 13 371.5 -14.0Q391 -41 427 -85ZM543 -96Q520 -78 486.5 -53.0Q453 -28 419.0 -2.5Q385 23 360 41Q388 62 421.0 86.0Q454 110 485.5 133.5Q517 157 540 175Q517 194 484.0 218.5Q451 243 418.0 267.5Q385 292 360 310Q388 331 421.0 355.0Q454 379 485.5 402.5Q517 426 540 444Q517 463 484.0 487.5Q451 512 418.0 536.5Q385 561 360 579Q389 600 422.5 625.0Q456 650 488.0 674.0Q520 698 543 716L557 705Q521 661 498.0 631.0Q475 601 461 579Q479 552 500.0 524.5Q521 497 557 453L546 444L557 436Q521 392 498.0 362.0Q475 332 461 310Q482 282 501.5 255.0Q521 228 557 184L546 175L557 167Q521 123 498.0 93.0Q475 63 461 41Q482 13 501.5 -14.0Q521 -41 557 -85Z" />
  </g>
</svg>