<svg xmlns="http://www.w3.org/2000/svg" viewBox="100 -255 1088 1057">
  <g transform="translate(0, 547) scale(1, -1)">
    <path fill="black" d="M658 -255Q627 -225 580.0 -181.0Q533 -137 478.5 -86.5Q424 -36 367.5 15.0Q311 66 259.0 111.0Q207 156 165.5 187.5Q124 219 100 231Q133 250 160.0 272.5Q187 295 213 327L205 320L189 335Q220 374 262.5 425.5Q305 477 350.5 532.5Q396 588 436.5 640.5Q477 693 506.0 735.5Q535 778 544 802Q590 743 643 710Q696 742 743 802Q752 778 781.0 735.5Q810 693 850.5 640.5Q891 588 936.5 532.5Q982 477 1024.5 425.5Q1067 374 1098 335L1082 320L1079 322Q1105 292 1131.0 270.5Q1157 249 1188 231Q1165 220 1126.5 191.0Q1088 162 1040.0 122.0Q992 82 939.5 35.5Q887 -11 836.0 -58.5Q785 -106 739.5 -148.5Q694 -191 660 -223L674 -240ZM658 313Q670 328 681.0 342.5Q692 357 702 371Q694 415 684.0 448.5Q674 482 659 518Q670 516 680.0 515.0Q690 514 700 513Q693 549 683.0 577.5Q673 606 659 640Q690 633 723 634Q679 667 643 688Q627 678 607.0 664.5Q587 651 564 634Q601 633 644 640Q635 618 627.0 578.5Q619 539 613.5 489.5Q608 440 603 388Q616 370 629.5 351.5Q643 333 658 313ZM644 -204Q673 -168 713.5 -120.5Q754 -73 799.0 -19.5Q844 34 888.0 87.5Q932 141 970.0 189.5Q1008 238 1034.5 275.0Q1061 312 1069 332Q1028 371 977.0 417.5Q926 464 871.5 511.5Q817 559 767 599Q754 560 745 513Q754 514 763.5 515.5Q773 517 783 518Q779 509 775.5 500.0Q772 491 769 482Q795 445 822.0 419.0Q849 393 881 370Q850 357 813.0 333.5Q776 310 735 281Q734 272 733.5 263.5Q733 255 733 246H719L716 268L703 257Q735 217 769.5 177.5Q804 138 836 103L822 89Q782 123 740.5 157.0Q699 191 658 223Q618 191 577.0 157.0Q536 123 495 89L482 103Q514 138 548.0 177.5Q582 217 614 257L595 272Q595 265 594.5 258.5Q594 252 594 246H579Q578 256 577.0 266.0Q576 276 575 286Q536 314 500.5 335.5Q465 357 436 370Q468 393 495.0 419.0Q522 445 548 482Q550 478 552.0 473.5Q554 469 556 464Q551 505 544.5 542.0Q538 579 530 607Q479 567 423.0 518.5Q367 470 314.0 421.5Q261 373 218 333Q226 314 251.0 278.0Q276 242 313.5 194.5Q351 147 395.0 93.0Q439 39 484.5 -14.5Q530 -68 571.5 -117.0Q613 -166 644 -204Z" />
  </g>
</svg>