<svg xmlns="http://www.w3.org/2000/svg" viewBox="100 -255 1088 1057">
  <g transform="translate(0, 547) scale(1, -1)">
    <path fill="black" d="M658 -255Q627 -225 580.0 -181.0Q533 -137 478.5 -86.5Q424 -36 367.5 15.0Q311 66 259.0 111.0Q207 156 165.5 187.5Q124 219 100 231Q133 250 160.0 272.5Q187 295 213 327L205 320L189 335Q220 374 262.5 425.5Q305 477 350.5 532.5Q396 588 436.5 640.5Q477 693 506.0 735.5Q535 778 544 802Q590 743 643 710Q696 742 743 802Q752 778 781.0 735.5Q810 693 850.5 640.5Q891 588 936.5 532.5Q982 477 1024.5 425.5Q1067 374 1098 335L1082 320L1079 322Q1105 292 1131.0 270.5Q1157 249 1188 231Q1165 220 1126.5 191.0Q1088 162 1040.0 122.0Q992 82 939.5 35.5Q887 -11 836.0 -58.5Q785 -106 739.5 -148.5Q694 -191 660 -223L674 -240ZM644 -204Q679 -162 728.5 -103.0Q778 -44 833.0 21.0Q888 86 936 146Q881 167 841.0 179.5Q801 192 763 196Q773 209 780.5 222.5Q788 236 794 253Q774 252 753.0 251.0Q732 250 710 248Q741 211 773.0 174.0Q805 137 836 103L822 89Q782 123 740.5 157.0Q699 191 658 223Q618 191 577.0 157.0Q536 123 495 89L482 103Q510 134 539.5 167.5Q569 201 597 235Q545 228 506.0 220.5Q467 213 456 209Q461 234 461 264Q461 289 456 312Q467 308 498.0 300.5Q529 293 574 286Q536 314 500.5 335.5Q465 357 436 370Q468 393 495.0 419.0Q522 445 548 482Q560 452 589.5 407.5Q619 363 658 313Q697 363 726.5 407.0Q756 451 769 482Q795 445 822.0 419.0Q849 393 881 370Q865 363 847.0 353.5Q829 344 809 332Q842 340 879.5 353.5Q917 367 969 386L973 375Q917 344 876.0 315.0Q835 286 810 260Q854 213 947 159Q993 217 1026.0 263.0Q1059 309 1069 332Q1024 375 966.5 427.0Q909 479 849.0 530.5Q789 582 735.0 624.0Q681 666 643 688Q605 666 551.5 624.0Q498 582 438.0 531.0Q378 480 320.5 428.0Q263 376 218 333Q226 314 251.0 278.0Q276 242 313.5 194.5Q351 147 395.0 93.0Q439 39 484.5 -14.5Q530 -68 571.5 -117.0Q613 -166 644 -204ZM793 268Q786 290 774 309Q747 291 720 270Q738 269 756.5 268.5Q775 268 793 268Z" />
  </g>
</svg>