<svg xmlns="http://www.w3.org/2000/svg" viewBox="100 -255 1088 1057">
  <g transform="translate(0, 547) scale(1, -1)">
    <path fill="black" d="M658 -255Q627 -225 580.0 -181.0Q533 -137 478.5 -86.5Q424 -36 367.5 15.0Q311 66 259.0 111.0Q207 156 165.5 187.5Q124 219 100 231Q133 250 160.0 272.5Q187 295 213 327L205 320L189 335Q220 374 262.5 425.5Q305 477 350.5 532.5Q396 588 436.5 640.5Q477 693 506.0 735.5Q535 778 544 802Q590 743 643 710Q696 742 743 802Q752 778 781.0 735.5Q810 693 850.5 640.5Q891 588 936.5 532.5Q982 477 1024.5 425.5Q1067 374 1098 335L1082 320L1079 322Q1105 292 1131.0 270.5Q1157 249 1188 231Q1165 220 1126.5 191.0Q1088 162 1040.0 122.0Q992 82 939.5 35.5Q887 -11 836.0 -58.5Q785 -106 739.5 -148.5Q694 -191 660 -223L674 -240ZM644 -204Q673 -168 713.5 -120.5Q754 -73 799.0 -19.5Q844 34 888.0 87.5Q932 141 970.0 189.5Q1008 238 1034.5 275.0Q1061 312 1069 332Q1024 375 966.5 427.0Q909 479 849.0 530.5Q789 582 735.0 624.0Q681 666 643 688Q605 666 551.5 624.0Q498 582 438.0 531.0Q378 480 320.5 428.0Q263 376 218 333Q226 314 251.0 278.0Q276 242 313.5 194.5Q351 147 395.0 93.0Q439 39 484.5 -14.5Q530 -68 571.5 -117.0Q613 -166 644 -204ZM652 73Q652 98 651.0 126.0Q650 154 648 183Q638 183 627.5 183.0Q617 183 607 182Q579 160 551.0 136.0Q523 112 495 89L482 103Q499 121 516.0 140.5Q533 160 549 179Q504 176 474.5 169.0Q445 162 421.5 153.5Q398 145 371 134Q373 147 374.5 161.0Q376 175 376 189Q376 203 374.5 218.5Q373 234 371 250Q395 240 419.5 230.5Q444 221 479.0 214.0Q514 207 569 203Q580 217 592.0 230.5Q604 244 614 257Q574 287 537.5 312.0Q501 337 469 354Q441 348 418.0 339.5Q395 331 371 322Q373 335 374.5 349.0Q376 363 376 377Q376 391 374.5 406.5Q373 422 371 438Q393 428 418.5 419.0Q444 410 479 403Q497 420 514.0 438.5Q531 457 548 482Q556 464 569.5 440.5Q583 417 601 390Q607 390 613.5 389.5Q620 389 626 389Q617 452 606 476Q628 471 654 471Q679 471 704 476Q699 463 693.0 427.0Q687 391 682 343Q713 384 736.0 420.5Q759 457 769 482Q795 445 822.0 419.0Q849 393 881 370Q844 354 798.5 324.5Q753 295 703 257Q735 217 769.5 177.5Q804 138 836 103L822 89Q785 120 747.0 151.5Q709 183 671 213Q669 176 667.5 140.0Q666 104 666 73ZM632 347 629 370H616ZM631 201H647Q646 204 646.0 207.0Q646 210 646 213Z" />
  </g>
</svg>