<svg xmlns="http://www.w3.org/2000/svg" viewBox="100 -255 1088 1057">
  <g transform="translate(0, 547) scale(1, -1)">
    <path fill="black" d="M658 -255Q627 -225 580.0 -181.0Q533 -137 478.5 -86.5Q424 -36 367.5 15.0Q311 66 259.0 111.0Q207 156 165.5 187.5Q124 219 100 231Q133 250 160.0 272.5Q187 295 213 327L205 320L189 335Q220 374 262.5 425.5Q305 477 350.5 532.5Q396 588 436.5 640.5Q477 693 506.0 735.5Q535 778 544 802Q590 743 643 710Q696 742 743 802Q752 778 781.0 735.5Q810 693 850.5 640.5Q891 588 936.5 532.5Q982 477 1024.5 425.5Q1067 374 1098 335L1082 320L1079 322Q1105 292 1131.0 270.5Q1157 249 1188 231Q1165 220 1126.5 191.0Q1088 162 1040.0 122.0Q992 82 939.5 35.5Q887 -11 836.0 -58.5Q785 -106 739.5 -148.5Q694 -191 660 -223L674 -240ZM644 -204Q673 -168 713.5 -120.5Q754 -73 799.0 -19.5Q844 34 888.0 87.5Q932 141 970.0 189.5Q1008 238 1034.5 275.0Q1061 312 1069 332Q1024 375 966.5 427.0Q909 479 849.0 530.5Q789 582 735.0 624.0Q681 666 643 688Q605 666 551.5 624.0Q498 582 438.0 531.0Q378 480 320.5 428.0Q263 376 218 333Q226 314 251.0 278.0Q276 242 313.5 194.5Q351 147 395.0 93.0Q439 39 484.5 -14.5Q530 -68 571.5 -117.0Q613 -166 644 -204ZM576 -7Q543 25 503.5 57.0Q464 89 426.0 117.5Q388 146 357 165Q393 191 439.5 232.5Q486 274 529 318Q504 335 480.0 348.0Q456 361 436 370Q468 393 495.0 419.0Q522 445 548 482Q560 452 589.5 407.5Q619 363 658 313Q697 363 726.5 407.0Q756 451 769 482Q795 445 822.0 419.0Q849 393 881 370Q844 354 798.5 324.5Q753 295 703 257Q735 217 769.5 177.5Q804 138 836 103L822 89Q782 123 740.5 157.0Q699 191 658 223L526 115Q543 90 560.0 61.0Q577 32 592 6ZM512 136Q538 165 563.5 195.5Q589 226 614 257Q600 268 586.5 278.0Q573 288 559 297Q541 260 523.0 227.0Q505 194 489 168Z" />
  </g>
</svg>