<svg xmlns="http://www.w3.org/2000/svg" viewBox="100 -255 1088 1057">
  <g transform="translate(0, 547) scale(1, -1)">
    <path fill="black" d="M658 -255Q627 -225 580.0 -181.0Q533 -137 478.5 -86.5Q424 -36 367.5 15.0Q311 66 259.0 111.0Q207 156 165.5 187.5Q124 219 100 231Q133 250 160.0 272.5Q187 295 213 327L205 320L189 335Q220 374 262.5 425.5Q305 477 350.5 532.5Q396 588 436.5 640.5Q477 693 506.0 735.5Q535 778 544 802Q590 743 643 710Q696 742 743 802Q752 778 781.0 735.5Q810 693 850.5 640.5Q891 588 936.5 532.5Q982 477 1024.5 425.5Q1067 374 1098 335L1082 320L1079 322Q1105 292 1131.0 270.5Q1157 249 1188 231Q1165 220 1126.5 191.0Q1088 162 1040.0 122.0Q992 82 939.5 35.5Q887 -11 836.0 -58.5Q785 -106 739.5 -148.5Q694 -191 660 -223L674 -240ZM644 -204Q677 -163 724.5 -107.5Q772 -52 823 8Q820 34 817.0 56.5Q814 79 810 98Q787 118 763.5 137.5Q740 157 716 176Q711 125 707.5 72.5Q704 20 702 -25H687Q681 33 674.5 98.0Q668 163 660 221L658 223L563 146Q579 122 594.0 96.0Q609 70 622 47L604 33Q585 51 563.0 70.0Q541 89 518 108L495 89L482 103L500 123Q463 153 426.5 179.0Q390 205 361 224Q390 245 425.0 275.0Q460 305 496 339Q480 349 465.0 356.5Q450 364 436 370Q468 393 495.0 419.0Q522 445 548 482Q553 469 561.5 454.5Q570 440 580 423L591 435L610 424Q603 408 597 396L637 340L628 369Q661 361 696 363Q722 398 740.5 429.0Q759 460 769 482Q795 445 822.0 419.0Q849 393 881 370L872 366L891 369Q878 340 869.0 310.5Q860 281 853 242Q862 243 871.5 244.5Q881 246 891 247Q874 207 862.0 157.0Q850 107 844 34Q897 97 944.5 156.0Q992 215 1026.0 262.0Q1060 309 1069 332Q1024 375 966.5 427.0Q909 479 849.0 530.5Q789 582 735.0 624.0Q681 666 643 688Q605 666 551.5 624.0Q498 582 438.0 531.0Q378 480 320.5 428.0Q263 376 218 333Q226 314 251.0 278.0Q276 242 313.5 194.5Q351 147 395.0 93.0Q439 39 484.5 -14.5Q530 -68 571.5 -117.0Q613 -166 644 -204ZM802 141Q795 170 786.5 195.0Q778 220 767 247Q778 245 788.0 244.0Q798 243 808 242Q804 263 799.0 281.5Q794 300 787 318Q759 299 730 278Q728 267 726.5 255.5Q725 244 723 232Q743 209 763.0 186.0Q783 163 802 141ZM545 174Q562 194 580.0 215.0Q598 236 614 257L551 303Q540 282 529.0 263.0Q518 244 508 227Q516 217 525.5 203.5Q535 190 545 174Z" />
  </g>
</svg>