<svg xmlns="http://www.w3.org/2000/svg" viewBox="100 -251 1966 987">
  <g transform="translate(0, 485) scale(1, -1)">
    <path fill="black" d="M1578 -251Q1578 -204 1577.0 -151.0Q1576 -98 1574 -41L1480 -47Q1478 -102 1477.0 -153.5Q1476 -205 1476 -250H1450Q1450 -206 1449.0 -155.0Q1448 -104 1446 -49L1347 -57Q1344 -162 1344 -250H1318Q1318 -163 1315 -61Q1263 -67 1218.0 -74.5Q1173 -82 1140 -91Q1146 -55 1146 -18Q1146 19 1140 55Q1176 45 1219.5 37.0Q1263 29 1312 23Q1309 103 1304.5 183.0Q1300 263 1295 336Q1249 331 1209.5 324.0Q1170 317 1140 309Q1146 345 1146 382Q1146 419 1140 455Q1172 446 1209.0 439.0Q1246 432 1287 426Q1280 502 1272.0 556.0Q1264 610 1255 629Q1288 623 1330 623Q1368 623 1407 629L1404 622Q1428 619 1458 619Q1486 619 1516 622Q1515 623 1515 625L1526 623L1539 625L1537 622Q1561 619 1590 619Q1618 619 1646 622L1645 625L1654 623L1667 625L1665 622Q1691 619 1718 619Q1758 619 1797 625Q1789 608 1780.5 546.5Q1772 485 1764 398Q1806 397 1845.5 397.0Q1885 397 1922 397Q1910 471 1898.0 539.0Q1886 607 1874.0 659.0Q1862 711 1850 736Q1879 732 1907.5 729.5Q1936 727 1966 727Q1991 727 2016.0 729.0Q2041 731 2066 736Q2056 712 2043.5 658.5Q2031 605 2017.5 534.5Q2004 464 1992.5 388.0Q1981 312 1973 243Q1995 244 2017.5 246.5Q2040 249 2065 253Q2031 170 2008.5 46.5Q1986 -77 1978 -250H1952Q1945 -187 1939.0 -133.0Q1933 -79 1925 -33Q1883 -33 1835.5 -33.5Q1788 -34 1738 -35Q1736 -93 1735.0 -148.0Q1734 -203 1734 -250H1708Q1708 -203 1707.0 -148.5Q1706 -94 1704 -36Q1681 -37 1656.5 -37.5Q1632 -38 1608 -40Q1606 -98 1605.0 -151.0Q1604 -204 1604 -251ZM1137 -250Q1100 -215 1056.5 -179.0Q1013 -143 970.5 -111.5Q928 -80 894 -59Q926 -35 965.0 -1.5Q1004 32 1044 70Q1012 99 976.5 127.5Q941 156 908 180V174Q788 174 712.0 166.5Q636 159 590.5 147.0Q545 135 515 122Q587 111 685.5 104.0Q784 97 908 97V77Q726 77 595.5 61.0Q465 45 400 25Q468 16 551.5 9.0Q635 2 726.5 -1.5Q818 -5 908 -5V-25Q817 -25 723.5 -29.5Q630 -34 544.0 -41.0Q458 -48 389.0 -57.5Q320 -67 278 -77Q336 -86 411.5 -93.0Q487 -100 571.5 -105.5Q656 -111 742.5 -114.0Q829 -117 908 -117V-137Q822 -137 727.0 -141.0Q632 -145 540.0 -151.5Q448 -158 369.5 -166.5Q291 -175 236.5 -184.5Q182 -194 164 -203Q166 -187 167.5 -171.0Q169 -155 169 -139H166Q166 -125 166.0 -118.5Q166 -112 165.5 -99.0Q165 -86 164 -51H165Q164 31 159.5 118.0Q155 205 149.0 288.0Q143 371 135.0 440.5Q127 510 118.0 559.5Q109 609 100 629Q133 623 175 623Q213 623 252 629L248 621Q260 620 272.5 619.5Q285 619 298 619Q309 619 320.0 619.5Q331 620 341 621Q341 622 340.5 623.0Q340 624 340 625L355 622L374 625Q372 623 372 621Q382 620 391.5 619.5Q401 619 411 619Q423 619 435.5 619.5Q448 620 461 621Q461 622 460.5 623.0Q460 624 460 625Q468 623 474 623Q479 623 483.5 623.5Q488 624 492 625Q490 623 490 621Q500 620 510.5 619.5Q521 619 531 619Q572 619 612 625Q599 598 585.0 548.5Q571 499 561.0 422.0Q551 345 547 233Q577 222 619.5 213.5Q662 205 727.5 200.0Q793 195 890 194Q875 205 861.0 214.0Q847 223 834 231Q866 255 906.0 289.5Q946 324 987.0 363.5Q1028 403 1064 442L1083 431Q1058 376 1031.0 324.5Q1004 273 981 234Q998 211 1022.5 173.5Q1047 136 1070 96L1124 152L1143 141Q1118 86 1091.0 34.5Q1064 -17 1041 -56Q1056 -75 1076.0 -105.5Q1096 -136 1117.0 -170.0Q1138 -204 1155 -236ZM1420 412Q1409 533 1397 592Q1391 564 1385.5 518.5Q1380 473 1375 416Q1386 415 1397.5 414.0Q1409 413 1420 412ZM1680 399Q1675 458 1669.0 506.5Q1663 555 1656 586Q1651 555 1645.0 507.5Q1639 460 1634 401ZM487 127Q490 157 490 188Q490 208 488.5 226.0Q487 244 485 260Q495 255 504.5 250.5Q514 246 524 241Q520 372 507.0 453.0Q494 534 477 583Q461 522 446.5 405.0Q432 288 427 141Q441 137 456.0 133.5Q471 130 487 127ZM1549 404Q1545 460 1539.0 505.0Q1533 550 1527 581Q1522 551 1517.0 506.0Q1512 461 1507 406ZM237 -70Q240 -40 240 -11Q240 9 238.5 27.0Q237 45 235 61Q243 57 256.5 53.0Q270 49 287 44Q285 152 277.5 254.5Q270 357 260.0 441.0Q250 525 237 576Q228 531 220.0 459.0Q212 387 205.0 300.0Q198 213 193.5 120.5Q189 28 187 -59Q197 -62 209.5 -65.0Q222 -68 237 -70ZM365 30Q368 60 368 91Q368 111 366.5 129.0Q365 147 363 163Q371 159 381.5 155.0Q392 151 404 147Q400 287 387.5 397.5Q375 508 358 572Q347 521 336.5 436.5Q326 352 318.5 249.5Q311 147 309 40Q322 37 336.0 34.5Q350 32 365 30ZM1920 -3Q1907 72 1890.0 133.0Q1873 194 1849 253Q1873 249 1897.0 246.0Q1921 243 1946 243L1927 367Q1890 367 1848.0 366.5Q1806 366 1761 365Q1754 282 1748.5 186.5Q1743 91 1739 -1Q1788 -2 1833.0 -2.5Q1878 -3 1920 -3ZM1703 -1Q1699 91 1694.5 185.5Q1690 280 1683 362Q1670 362 1657.0 361.5Q1644 361 1631 361Q1624 279 1618.5 186.0Q1613 93 1609 2ZM1573 3Q1569 93 1564.5 184.5Q1560 276 1553 357L1502 354Q1496 275 1490.5 185.5Q1485 96 1482 8ZM1444 11Q1441 97 1436.5 184.0Q1432 271 1426 349Q1411 348 1397.0 347.0Q1383 346 1369 344Q1363 269 1358.0 185.5Q1353 102 1350 19Q1373 17 1396.5 15.0Q1420 13 1444 11Z" />
  </g>
</svg>