<svg xmlns="http://www.w3.org/2000/svg" viewBox="100 -70 1651 755">
  <g transform="translate(0, 615) scale(1, -1)">
    <path fill="black" d="M656 450Q661 476 663.5 505.0Q666 534 666 565Q666 594 663.5 624.5Q661 655 656 685Q712 662 795.5 640.0Q879 618 982.5 602.0Q1086 586 1201 580V555Q1028 555 892.0 523.0Q756 491 656 450ZM100 320Q105 346 107.5 375.0Q110 404 110 435Q110 464 107.5 494.5Q105 525 100 555Q156 532 239.5 510.0Q323 488 426.5 472.0Q530 456 645 450V425Q472 425 336.0 393.0Q200 361 100 320ZM1206 190Q1211 216 1213.5 245.0Q1216 274 1216 305Q1216 334 1213.5 364.5Q1211 395 1206 425Q1262 402 1345.5 380.0Q1429 358 1532.5 342.0Q1636 326 1751 320V295Q1632 295 1533.0 280.0Q1434 265 1353.5 241.0Q1273 217 1206 190ZM656 190Q661 216 663.5 245.0Q666 274 666 305Q666 334 663.5 364.5Q661 395 656 425Q712 402 795.5 380.0Q879 358 982.5 342.0Q1086 326 1201 320V295Q1082 295 983.0 280.0Q884 265 803.5 241.0Q723 217 656 190ZM100 60Q105 86 107.5 115.0Q110 144 110 175Q110 204 107.5 234.5Q105 265 100 295Q156 272 239.5 250.0Q323 228 426.5 212.0Q530 196 645 190V165Q526 165 427.0 150.0Q328 135 247.5 111.0Q167 87 100 60ZM656 -70Q661 -44 663.5 -15.0Q666 14 666 45Q666 74 663.5 104.5Q661 135 656 165Q712 142 795.5 120.0Q879 98 982.5 82.0Q1086 66 1201 60V35Q1082 35 983.0 20.0Q884 5 803.5 -19.0Q723 -43 656 -70Z" />
  </g>
</svg>