<svg xmlns="http://www.w3.org/2000/svg" viewBox="100 -169 1681 905">
  <g transform="translate(0, 567) scale(1, -1)">
    <path fill="black" d="M1500 -169Q1441 -116 1398.5 -74.0Q1356 -32 1321.5 1.5Q1287 35 1252 60Q1276 81 1314.5 112.5Q1353 144 1398.5 185.0Q1444 226 1486 273Q1382 266 1272.5 256.0Q1163 246 1066 232Q1058 137 1053.0 48.0Q1048 -41 1048 -110H1018Q1018 -41 1014.0 45.0Q1010 131 1002 222Q957 215 918.5 207.0Q880 199 850 191Q862 242 862 296Q862 350 850 407Q875 400 909.5 393.5Q944 387 986 380Q974 484 958.5 577.0Q943 670 925 736Q976 724 1030 724Q1084 724 1141 736Q1125 677 1109.0 578.0Q1093 479 1080 366Q1165 355 1261.5 345.5Q1358 336 1454.0 329.0Q1550 322 1633 318Q1620 438 1603.0 549.0Q1586 660 1565 736Q1616 724 1670 724Q1724 724 1781 736Q1769 692 1757.0 626.0Q1745 560 1734.0 480.0Q1723 400 1714 315Q1731 314 1747.5 314.0Q1764 314 1778 314V284Q1762 284 1745.5 284.0Q1729 284 1711 283Q1701 175 1694.5 72.0Q1688 -31 1688 -110H1658Q1658 -30 1652.5 72.0Q1647 174 1637 280Q1609 279 1581.0 278.0Q1553 277 1523 275H1524Q1484 204 1455.0 154.0Q1426 104 1400 60Q1426 16 1455.0 -34.0Q1484 -84 1524 -155ZM785 -66Q709 2 657.0 44.0Q605 86 560 119Q580 136 612.5 165.0Q645 194 683.0 231.0Q721 268 757 308Q693 364 647.0 401.5Q601 439 560 469Q582 488 617.5 519.5Q653 551 694.0 591.5Q735 632 772 675L792 664Q758 603 733.5 555.0Q709 507 686 469Q701 443 727.5 403.0Q754 363 791 314H792Q794 310 797.0 306.5Q800 303 803 299L785 284L778 290Q750 237 728.0 195.5Q706 154 686 119Q703 91 732.5 47.0Q762 3 803 -51ZM325 -66Q249 2 197.0 44.0Q145 86 100 119Q120 136 152.5 165.0Q185 194 223.0 231.0Q261 268 297 308Q233 364 187.0 401.5Q141 439 100 469Q122 488 157.5 519.5Q193 551 234.0 591.5Q275 632 312 675L332 664Q298 603 273.5 555.0Q249 507 226 469Q243 441 272.5 397.0Q302 353 343 299L325 284L318 290Q290 237 268.0 195.5Q246 154 226 119Q243 91 272.5 47.0Q302 3 343 -51ZM613 332Q570 371 544.0 394.5Q518 418 498.0 434.5Q478 451 451 469Q469 485 489.5 501.0Q510 517 539.5 540.5Q569 564 613 603L628 593Q606 559 590.5 528.5Q575 498 559 469Q575 441 590.5 410.5Q606 380 628 345ZM503 332Q460 371 434.0 394.5Q408 418 388.0 434.5Q368 451 341 469Q359 485 379.5 501.0Q400 517 429.5 540.5Q459 564 503 603L518 593Q496 559 480.5 528.5Q465 498 449 469Q465 441 480.5 410.5Q496 380 518 345ZM393 332Q350 371 324.0 394.5Q298 418 278.0 434.5Q258 451 231 469Q249 485 269.5 501.0Q290 517 319.5 540.5Q349 564 393 603L408 593Q386 559 370.5 528.5Q355 498 339 469Q355 441 370.5 410.5Q386 380 408 345ZM393 -18Q350 21 324.0 44.5Q298 68 278.0 84.5Q258 101 231 119Q249 135 269.5 151.0Q290 167 319.5 190.5Q349 214 393 253L408 243Q386 209 370.5 178.5Q355 148 339 119Q355 91 370.5 60.5Q386 30 408 -5ZM503 -18Q460 21 434.0 44.5Q408 68 388.0 84.5Q368 101 341 119Q359 135 379.5 151.0Q400 167 429.5 190.5Q459 214 503 253L518 243Q496 209 480.5 178.5Q465 148 449 119Q465 91 480.5 60.5Q496 30 518 -5ZM613 -18Q570 21 544.0 44.5Q518 68 498.0 84.5Q478 101 451 119Q469 135 489.5 151.0Q510 167 539.5 190.5Q569 214 613 253L628 243Q606 209 590.5 178.5Q575 148 559 119Q575 91 590.5 60.5Q606 30 628 -5Z" />
  </g>
</svg>