<svg xmlns="http://www.w3.org/2000/svg" viewBox="100 -332 1465 1143">
  <g transform="translate(0, 479) scale(1, -1)">
    <path fill="black" d="M651 -332Q590 -278 548.5 -244.0Q507 -210 471 -184Q495 -163 540.5 -122.0Q586 -81 629 -32Q577 12 540.0 42.0Q503 72 471 96Q495 116 538.0 155.5Q581 195 624 242Q575 285 539.0 314.0Q503 343 471 366Q495 387 540.5 428.0Q586 469 629 517Q577 562 540.0 592.0Q503 622 471 646Q489 661 517.5 686.5Q546 712 578.5 744.0Q611 776 641 811L657 802Q629 753 609.5 715.0Q590 677 572 646Q584 625 606.5 591.5Q629 558 666 510L651 498L646 502Q623 460 605.5 427.0Q588 394 572 366Q583 347 601.0 320.0Q619 293 644 259L657 252L653 246Q656 242 659.5 238.0Q663 234 666 230L651 218L642 226Q620 186 603.5 154.0Q587 122 572 96Q584 75 606.5 41.5Q629 8 666 -40L651 -52Q650 -50 648.5 -49.0Q647 -48 646 -47Q623 -90 605.5 -123.0Q588 -156 572 -184Q586 -206 609.5 -241.0Q633 -276 666 -320ZM280 -332Q219 -278 177.5 -244.0Q136 -210 100 -184Q124 -163 169.5 -122.0Q215 -81 258 -32Q206 12 169.0 42.0Q132 72 100 96Q124 116 167.0 155.5Q210 195 253 242Q204 285 168.0 314.0Q132 343 100 366Q124 387 169.5 428.0Q215 469 258 517Q206 562 169.0 592.0Q132 622 100 646Q118 661 146.5 686.5Q175 712 207.5 744.0Q240 776 270 811L286 802Q258 753 238.5 715.0Q219 677 201 646Q213 625 235.5 591.5Q258 558 295 510L280 498L275 502Q252 460 234.5 427.0Q217 394 201 366Q212 347 230.0 320.0Q248 293 273 259L286 252L282 246Q285 242 288.5 238.0Q292 234 295 230L280 218L271 226Q249 186 232.5 154.0Q216 122 201 96Q213 75 235.5 41.5Q258 8 295 -40L280 -52Q279 -50 277.5 -49.0Q276 -48 275 -47Q252 -90 234.5 -123.0Q217 -156 201 -184Q215 -206 238.5 -241.0Q262 -276 295 -320ZM1174 -323Q1165 -191 1157.0 -99.0Q1149 -7 1141.0 55.0Q1133 117 1124.0 158.0Q1115 199 1105 230Q1123 226 1140.0 224.0Q1157 222 1173 222Q1164 353 1156.0 445.5Q1148 538 1140.5 601.0Q1133 664 1124.0 706.5Q1115 749 1105 780Q1122 776 1139.5 774.0Q1157 772 1173 772Q1190 772 1207.5 774.0Q1225 776 1244 780Q1232 745 1221.5 680.0Q1211 615 1204.0 509.5Q1197 404 1192 246Q1221 290 1246.5 334.5Q1272 379 1295 422Q1294 453 1289.0 495.0Q1284 537 1276.5 578.0Q1269 619 1261.5 649.0Q1254 679 1248 686Q1262 683 1274.5 682.0Q1287 681 1300 681Q1313 681 1327.5 682.0Q1342 683 1358 686Q1353 680 1346.0 655.5Q1339 631 1332.5 596.5Q1326 562 1320.5 524.5Q1315 487 1312 455Q1348 526 1376.0 589.5Q1404 653 1423 702Q1414 732 1403.5 750.5Q1393 769 1384 780Q1398 777 1411.5 776.0Q1425 775 1439 775Q1453 775 1468.5 776.0Q1484 777 1500 780Q1489 767 1476.0 743.5Q1463 720 1452 676Q1480 653 1507.0 634.5Q1534 616 1565 602Q1514 568 1453.5 509.5Q1393 451 1327.5 377.5Q1262 304 1196 223Q1207 224 1219.0 225.5Q1231 227 1244 230Q1232 195 1221.5 132.5Q1211 70 1204.0 -33.5Q1197 -137 1192 -294Q1221 -250 1246.5 -206.5Q1272 -163 1295 -121Q1294 -89 1288.5 -48.0Q1283 -7 1276.0 32.5Q1269 72 1261.5 100.5Q1254 129 1248 136Q1262 133 1274.5 132.0Q1287 131 1300 131Q1313 131 1327.5 132.0Q1342 133 1358 136Q1353 130 1346.0 107.0Q1339 84 1332.5 50.5Q1326 17 1320.5 -19.5Q1315 -56 1312 -88Q1348 -20 1376.0 41.5Q1404 103 1423 152Q1414 182 1403.5 200.5Q1393 219 1384 230Q1398 227 1411.5 226.0Q1425 225 1439 225Q1453 225 1468.5 226.0Q1484 227 1500 230Q1489 217 1476.0 193.5Q1463 170 1452 126Q1480 103 1507.0 84.5Q1534 66 1565 52Q1513 17 1452.0 -39.5Q1391 -96 1325.0 -168.5Q1259 -241 1192 -323ZM990 -323Q990 -297 989.0 -267.5Q988 -238 986 -207Q898 -168 817.0 -139.0Q736 -110 650 -97Q664 -77 673.0 -55.0Q682 -33 688 -11Q744 -57 821.0 -100.0Q898 -143 985 -184Q981 -101 971.0 -13.5Q961 74 947 146Q867 108 805.5 71.5Q744 35 688 -10Q682 13 673.0 35.0Q664 57 650 77Q707 85 753.0 97.0Q799 109 844.5 126.5Q890 144 943 167L928 230Q943 227 958.5 225.5Q974 224 990 223Q990 249 989.0 279.5Q988 310 986 343Q898 382 817.0 411.0Q736 440 650 453Q664 473 673.0 495.0Q682 517 688 539Q744 493 821.0 450.0Q898 407 985 366Q980 449 970.5 536.5Q961 624 947 695Q868 657 806.0 621.0Q744 585 688 540Q682 563 673.0 585.0Q664 607 650 627Q707 635 753.0 647.0Q799 659 844.5 676.5Q890 694 943 717Q939 734 935.5 750.5Q932 767 928 780Q945 776 962.5 774.5Q980 773 998 773Q1035 773 1070 780Q1062 749 1053.5 700.5Q1045 652 1038.0 593.0Q1031 534 1025.0 472.0Q1019 410 1015 352L1048 337L1041 319L1014 331Q1012 301 1011.0 273.5Q1010 246 1010 223Q1024 224 1039.0 225.5Q1054 227 1070 230Q1061 199 1053.0 150.0Q1045 101 1037.5 42.5Q1030 -16 1024.0 -78.0Q1018 -140 1015 -197L1048 -213L1041 -231Q1034 -228 1027.0 -224.5Q1020 -221 1013 -218Q1010 -276 1010 -323ZM511 536Q476 568 455.5 586.5Q435 605 419.0 618.5Q403 632 381 646Q396 659 412.5 671.5Q429 684 452.5 703.0Q476 722 511 753L523 745Q505 717 492.5 693.0Q480 669 467 646Q480 624 492.5 599.5Q505 575 523 547ZM335 536Q300 568 279.5 586.5Q259 605 243.0 618.5Q227 632 205 646Q220 659 236.5 671.5Q253 684 276.5 703.0Q300 722 335 753L347 745Q329 717 316.5 693.0Q304 669 291 646Q304 624 316.5 599.5Q329 575 347 547ZM423 536Q388 568 367.5 586.5Q347 605 331.0 618.5Q315 632 293 646Q308 659 324.5 671.5Q341 684 364.5 703.0Q388 722 423 753L435 745Q417 717 404.5 693.0Q392 669 379 646Q392 624 404.5 599.5Q417 575 435 547ZM511 256Q476 288 455.5 306.5Q435 325 419.0 338.5Q403 352 381 366Q396 379 412.5 391.5Q429 404 452.5 423.0Q476 442 511 473L523 465Q505 437 492.5 413.0Q480 389 467 366Q480 344 492.5 319.5Q505 295 523 267ZM335 256Q300 288 279.5 306.5Q259 325 243.0 338.5Q227 352 205 366Q220 379 236.5 391.5Q253 404 276.5 423.0Q300 442 335 473L347 465Q329 437 316.5 413.0Q304 389 291 366Q304 344 316.5 319.5Q329 295 347 267ZM423 256Q388 288 367.5 306.5Q347 325 331.0 338.5Q315 352 293 366Q308 379 324.5 391.5Q341 404 364.5 423.0Q388 442 423 473L435 465Q417 437 404.5 413.0Q392 389 379 366Q392 344 404.5 319.5Q417 295 435 267ZM335 -14Q300 18 279.5 36.5Q259 55 243.0 68.5Q227 82 205 96Q220 109 236.5 121.5Q253 134 276.5 153.0Q300 172 335 203L347 195Q329 167 316.5 143.0Q304 119 291 96Q304 74 316.5 49.5Q329 25 347 -3ZM423 -14Q388 18 367.5 36.5Q347 55 331.0 68.5Q315 82 293 96Q308 109 324.5 121.5Q341 134 364.5 153.0Q388 172 423 203L435 195Q417 167 404.5 143.0Q392 119 379 96Q392 74 404.5 49.5Q417 25 435 -3ZM511 -14Q476 18 455.5 36.5Q435 55 419.0 68.5Q403 82 381 96Q396 109 412.5 121.5Q429 134 452.5 153.0Q476 172 511 203L523 195Q505 167 492.5 143.0Q480 119 467 96Q480 74 492.5 49.5Q505 25 523 -3ZM511 -294Q476 -262 455.5 -243.5Q435 -225 419.0 -211.5Q403 -198 381 -184Q396 -171 412.5 -158.0Q429 -145 452.5 -126.5Q476 -108 511 -77L523 -85Q505 -113 492.5 -137.0Q480 -161 467 -184Q480 -206 492.5 -230.5Q505 -255 523 -283ZM423 -294Q388 -262 367.5 -243.5Q347 -225 331.0 -211.5Q315 -198 293 -184Q308 -171 324.5 -158.0Q341 -145 364.5 -126.5Q388 -108 423 -77L435 -85Q417 -113 404.5 -137.0Q392 -161 379 -184Q392 -206 404.5 -230.5Q417 -255 435 -283ZM335 -294Q300 -262 279.5 -243.5Q259 -225 243.0 -211.5Q227 -198 205 -184Q220 -171 236.5 -158.0Q253 -145 276.5 -126.5Q300 -108 335 -77L347 -85Q329 -113 316.5 -137.0Q304 -161 291 -184Q304 -206 316.5 -230.5Q329 -255 347 -283Z" />
  </g>
</svg>