<svg xmlns="http://www.w3.org/2000/svg" viewBox="100 -127 1408 955">
  <g transform="translate(0, 701) scale(1, -1)">
    <path fill="black" d="M1484 -127Q1422 -71 1360.0 -9.5Q1298 52 1236 102Q1297 150 1352.0 199.5Q1407 249 1457 300Q1347 298 1217.5 294.5Q1088 291 952.0 285.5Q816 280 685.0 273.5Q554 267 439.0 258.5Q324 250 236.0 240.5Q148 231 100 220Q126 328 100 436Q141 427 183.0 420.0Q225 413 266 408Q306 464 346.5 524.5Q387 585 419.5 641.5Q452 698 467 742Q520 679 589 640Q535 612 462.5 549.0Q390 486 306 403L387 395Q422 433 452.5 478.0Q483 523 502 572Q534 524 583 489Q537 471 497.0 446.5Q457 422 422 392Q514 384 606.0 377.0Q698 370 790 363Q735 415 678.5 460.0Q622 505 549 533Q573 551 593.5 571.5Q614 592 630 616Q643 578 671.0 534.5Q699 491 737.5 446.5Q776 402 818 361L904 356Q869 392 826.0 435.5Q783 479 737.5 524.0Q692 569 648.5 609.5Q605 650 567.0 681.0Q529 712 502 726Q571 764 624 828Q638 790 671.5 733.5Q705 677 750.0 612.0Q795 547 844.0 480.0Q893 413 937 354Q1065 347 1193.5 341.0Q1322 335 1450 332Q1397 382 1343.0 436.0Q1289 490 1236 531Q1308 588 1370.5 645.0Q1433 702 1484 759L1508 746L1384 531L1508 316L1384 102L1508 -113Z" />
  </g>
</svg>