<svg xmlns="http://www.w3.org/2000/svg" viewBox="100 -98 1517 904">
  <g transform="translate(0, 708) scale(1, -1)">
    <path fill="black" d="M170 -98Q176 -68 179.5 -39.5Q183 -11 183 15Q183 41 179.5 67.0Q176 93 170 118L190 112Q179 249 155.5 346.0Q132 443 107 524Q103 522 100 522Q106 552 109.5 580.5Q113 609 113 635Q113 661 109.5 687.0Q106 713 100 738Q162 717 251.0 695.5Q340 674 450.5 658.0Q561 642 689 636Q681 685 672.0 728.0Q663 771 653 806Q704 794 758 794Q812 794 869 806Q853 750 838.0 659.0Q823 568 811 462Q882 439 987.5 418.5Q1093 398 1224.0 385.5Q1355 373 1500 372Q1497 386 1493.5 397.0Q1490 408 1487 417Q1516 411 1549 411Q1581 411 1617 417Q1609 398 1602.0 356.5Q1595 315 1588.5 261.0Q1582 207 1577.5 148.5Q1573 90 1569.5 36.5Q1566 -17 1564 -57H1549L1545 -18Q1493 -18 1413.0 -20.0Q1333 -22 1234.0 -25.0Q1135 -28 1026.0 -32.5Q917 -37 806.5 -42.5Q696 -48 593.5 -54.5Q491 -61 404.5 -68.0Q318 -75 257.0 -82.5Q196 -90 170 -98ZM701 550Q700 563 698.0 575.5Q696 588 694 600Q610 598 532.0 592.0Q454 586 385 577Q428 572 485.0 566.0Q542 560 599.5 556.0Q657 552 701 550ZM220 516Q245 516 268.5 518.5Q292 521 316 527Q318 547 316 568Q257 559 207.0 548.5Q157 538 116 527Q144 521 169.5 518.5Q195 516 220 516ZM713 463 703 537Q659 536 604.0 532.0Q549 528 494.0 522.5Q439 517 394.5 511.5Q350 506 328 501Q351 497 397.0 491.0Q443 485 500.5 479.0Q558 473 614.5 468.5Q671 464 713 463ZM315 92Q316 99 316.0 106.5Q316 114 316 121Q316 130 316.0 139.0Q316 148 314 156H313Q313 157 313.5 158.0Q314 159 314 160Q314 161 313.5 162.0Q313 163 313 164L314 163Q317 181 317 204Q317 222 314 240H313Q313 241 313.5 242.5Q314 244 314 245Q314 246 313.5 247.0Q313 248 313 249L314 248Q317 266 317 289Q317 308 314 326H313Q313 327 313.5 328.0Q314 329 314 330Q314 331 313.5 332.0Q313 333 313 334L314 333Q317 351 317 374Q317 393 314 411H313Q313 412 313.5 413.0Q314 414 314 415Q314 416 313.5 417.0Q313 418 313 419L314 418Q317 436 317 459Q317 479 314 497H313Q313 498 313.5 499.0Q314 500 314 501Q314 502 313.5 502.0Q313 502 313 503Q288 425 266.5 331.0Q245 237 236 103ZM722 378 714 453Q671 452 614.5 448.0Q558 444 501.0 438.0Q444 432 397.5 426.0Q351 420 328 415Q351 411 399.5 405.0Q448 399 507.0 393.0Q566 387 623.0 383.0Q680 379 722 378ZM842 47Q839 87 835.5 129.5Q832 172 828.0 210.5Q824 249 818 276L798 270Q804 301 807.5 326.0Q811 351 811 374Q811 386 810.0 398.0Q809 410 807 423Q797 327 789.0 230.5Q781 134 778 51Q794 50 810.0 49.0Q826 48 842 47ZM730 292 723 367Q681 366 623.5 362.0Q566 358 507.0 352.5Q448 347 400.0 341.0Q352 335 328 330Q347 326 383.5 321.0Q420 316 466.0 311.0Q512 306 560.5 302.0Q609 298 653.5 295.0Q698 292 730 292ZM1542 14Q1537 66 1531.5 124.5Q1526 183 1520.0 239.0Q1514 295 1506 340Q1343 339 1196.0 329.0Q1049 319 937 300Q948 300 958.5 301.0Q969 302 982 304Q975 287 969.0 243.0Q963 199 958.5 144.5Q954 90 951 40Q968 39 985.5 38.0Q1003 37 1020 36Q1016 85 1011.5 138.5Q1007 192 1001.0 237.0Q995 282 986 304Q1003 300 1025 300Q1036 300 1046.5 301.0Q1057 302 1070 304Q1064 290 1059.0 260.5Q1054 231 1050.0 192.5Q1046 154 1043.0 113.0Q1040 72 1038 35Q1056 34 1073.5 33.0Q1091 32 1108 31Q1104 80 1099.5 134.5Q1095 189 1089.0 235.0Q1083 281 1074 304Q1091 300 1113 300Q1124 300 1134.5 301.0Q1145 302 1158 304Q1152 290 1147.0 259.5Q1142 229 1138.0 189.5Q1134 150 1131.0 108.5Q1128 67 1126 30Q1144 29 1161.5 28.0Q1179 27 1197 26Q1193 75 1188.5 131.0Q1184 187 1177.5 234.0Q1171 281 1162 304Q1179 300 1201 300Q1212 300 1222.5 301.0Q1233 302 1246 304Q1240 290 1235.0 259.0Q1230 228 1226.0 187.5Q1222 147 1219.0 104.5Q1216 62 1214 25L1286 22Q1283 58 1279.5 99.5Q1276 141 1271.5 181.0Q1267 221 1262.0 253.5Q1257 286 1250 304Q1267 300 1289 300Q1300 300 1310.5 301.0Q1321 302 1334 304Q1328 289 1322.5 257.0Q1317 225 1313.0 184.0Q1309 143 1306.0 100.0Q1303 57 1301 21L1374 18Q1371 55 1367.5 97.0Q1364 139 1360.0 179.5Q1356 220 1350.5 253.0Q1345 286 1338 304Q1355 300 1377 300Q1388 300 1398.5 301.0Q1409 302 1422 304Q1416 289 1410.5 256.5Q1405 224 1401.0 182.5Q1397 141 1394.0 97.5Q1391 54 1389 18L1462 15Q1459 52 1455.5 94.0Q1452 136 1448.0 177.5Q1444 219 1438.5 252.0Q1433 285 1426 304Q1443 300 1465 300Q1476 300 1486.5 301.0Q1497 302 1510 304Q1503 289 1498.0 256.0Q1493 223 1489.0 181.0Q1485 139 1482.0 95.0Q1479 51 1477 15Q1495 15 1511.5 14.5Q1528 14 1542 14ZM931 41Q928 87 923.5 136.0Q919 185 913.5 227.5Q908 270 901 294Q898 294 895.0 293.0Q892 292 890 292Q884 270 879.0 228.5Q874 187 870.5 138.5Q867 90 864 45ZM736 208Q735 226 734.0 244.5Q733 263 731 282Q698 282 654.0 279.5Q610 277 562.5 273.0Q515 269 469.0 264.0Q423 259 386.5 254.0Q350 249 330 245Q351 241 388.5 236.0Q426 231 473.0 226.0Q520 221 568.5 217.0Q617 213 661.0 210.5Q705 208 736 208ZM744 53Q743 87 741.5 123.5Q740 160 737 197Q705 197 660.0 194.5Q615 192 566.0 188.0Q517 184 470.0 179.0Q423 174 385.5 169.0Q348 164 328 160Q348 156 385.5 151.0Q423 146 470.5 141.0Q518 136 567.5 131.5Q617 127 662.0 124.5Q707 122 738 122V112Q706 112 661.0 109.5Q616 107 567.0 103.0Q518 99 471.0 94.0Q424 89 387 84Q463 76 554.5 68.5Q646 61 744 53Z" />
  </g>
</svg>