<svg xmlns="http://www.w3.org/2000/svg" viewBox="100 -112 827 848">
  <g transform="translate(0, 624) scale(1, -1)">
    <path fill="black" d="M519 -112Q505 19 491.0 110.0Q477 201 454 275Q381 266 333.5 257.0Q286 248 250.5 237.0Q215 226 180.5 212.0Q146 198 100 179Q110 229 110 284Q110 337 100 394Q138 378 171.0 365.0Q204 352 241.0 341.5Q278 331 326.5 323.5Q375 316 443 311Q439 325 433.5 338.5Q428 352 423 366Q371 406 333.5 430.5Q296 455 264.5 471.0Q233 487 200.0 501.0Q167 515 123 534Q167 563 203.5 599.5Q240 636 275 686Q291 647 305.5 613.5Q320 580 339.5 545.5Q359 511 389.0 470.0Q419 429 466 375Q478 374 489.5 373.5Q501 373 513 373Q490 511 465.0 598.5Q440 686 417 736Q446 732 474.5 729.5Q503 727 533 727Q558 727 583.0 729.0Q608 731 633 736Q614 688 584.5 596.0Q555 504 540 373Q562 374 584.5 376.5Q607 379 632 383Q598 300 575.5 180.5Q553 61 545 -112ZM813 -112Q804 -22 794.0 48.0Q784 118 772.5 175.5Q761 233 746.0 283.0Q731 333 710 383Q734 379 758.0 376.0Q782 373 807 373Q784 511 759.0 598.5Q734 686 711 736Q740 732 768.5 729.5Q797 727 827 727Q852 727 877.0 729.0Q902 731 927 736Q908 688 878.5 596.0Q849 504 834 373Q856 374 878.5 376.5Q901 379 926 383Q892 300 869.5 180.5Q847 61 839 -112Z" />
  </g>
</svg>