<svg xmlns="http://www.w3.org/2000/svg" viewBox="100 -218 1223 1066">
  <g transform="translate(0, 630) scale(1, -1)">
    <path fill="black" d="M573 -218Q579 -182 579 -145Q579 -108 573 -72Q605 -80 637.0 -87.5Q669 -95 702 -100Q701 -18 696.0 44.0Q691 106 683 156Q618 155 552.0 151.0Q486 147 423 142Q422 123 422.0 103.0Q422 83 422 63H392Q392 82 392.0 100.5Q392 119 391 138Q309 130 234.0 118.0Q159 106 100 89Q106 125 106 172Q106 194 104.5 215.5Q103 237 100 255Q168 236 240.5 223.5Q313 211 389 203Q388 226 387.5 249.5Q387 273 385 295Q290 288 214.5 279.0Q139 270 100 259Q106 295 106 342Q106 364 104.5 385.5Q103 407 100 425Q144 412 216.5 403.0Q289 394 377 386Q374 427 368 464Q278 457 208.0 448.5Q138 440 100 429Q106 465 106 512Q106 534 104.5 555.5Q103 577 100 595Q141 584 206.5 575.0Q272 566 353 558Q349 579 344.0 597.0Q339 615 334 631Q256 624 195.0 616.0Q134 608 100 599Q106 635 106 682Q106 704 104.5 725.5Q103 747 100 765Q145 753 219.5 743.0Q294 733 387.0 725.5Q480 718 582.0 713.0Q684 708 785.0 704.5Q886 701 976.5 699.5Q1067 698 1137 697Q1130 742 1122.5 781.0Q1115 820 1107 848Q1158 836 1212 836Q1266 836 1323 848Q1312 808 1301.0 738.0Q1290 668 1279.5 579.5Q1269 491 1260.5 393.5Q1252 296 1245.5 199.5Q1239 103 1235.0 18.0Q1231 -67 1230 -130H1231V-160Q1113 -160 993.0 -165.0Q873 -170 765.0 -182.5Q657 -195 573 -218ZM1158 527Q1154 564 1150.0 599.0Q1146 634 1141 666Q1067 665 967.5 662.5Q868 660 757.0 655.5Q646 651 537.0 645.0Q428 639 335 631Q371 625 407 625Q444 625 480 631Q468 597 459 550Q550 544 647.0 540.0Q744 536 837.5 533.0Q931 530 1013.5 528.5Q1096 527 1158 527ZM1174 357Q1171 392 1168.0 427.5Q1165 463 1161 497Q1099 496 1014.5 494.0Q930 492 833.5 488.5Q737 485 637.5 480.0Q538 475 446 469Q443 449 440.5 427.0Q438 405 436 382Q532 375 635.5 370.5Q739 366 838.5 363.0Q938 360 1024.5 358.5Q1111 357 1174 357ZM1200 -130Q1200 -73 1196.5 0.5Q1193 74 1188.0 157.5Q1183 241 1176 327Q1116 327 1031.0 324.5Q946 322 848.0 319.0Q750 316 649 311Q666 309 683.0 307.5Q700 306 717 306Q754 306 790 312Q780 282 771.5 251.5Q763 221 756 187H768V157H751Q742 106 737.5 42.5Q733 -21 732 -105Q761 -109 791.0 -112.5Q821 -116 852 -119Q851 -10 844.0 66.0Q837 142 824.5 200.0Q812 258 794 312Q830 306 867 306Q904 306 940 312Q922 258 909.0 200.0Q896 142 889.5 65.5Q883 -11 882 -121Q941 -125 1002 -127V-120Q1001 -43 995.5 5.5Q990 54 981.5 84.5Q973 115 963.5 136.5Q954 158 944 182Q952 181 961.0 179.5Q970 178 979 177Q972 214 963.5 247.0Q955 280 944 312Q980 306 1017 306Q1054 306 1090 312Q1080 280 1070.5 247.0Q1061 214 1054 177Q1063 178 1072.0 179.5Q1081 181 1090 182Q1080 158 1070.0 136.5Q1060 115 1052.0 84.5Q1044 54 1038.5 5.5Q1033 -43 1032 -120V-128Q1073 -129 1115.0 -129.5Q1157 -130 1200 -130ZM677 187Q670 221 662.0 251.0Q654 281 644 311Q589 308 535.0 305.0Q481 302 429 298Q428 274 426.5 249.5Q425 225 424 200Q486 195 549.5 192.0Q613 189 677 187Z" />
  </g>
</svg>