<svg xmlns="http://www.w3.org/2000/svg" viewBox="100 -218 1235 1066">
  <g transform="translate(0, 630) scale(1, -1)">
    <path fill="black" d="M573 -218Q579 -182 579 -145Q579 -108 573 -72Q605 -80 637.0 -87.5Q669 -95 702 -100Q701 -18 696.0 44.0Q691 106 683 156Q617 155 551.5 151.5Q486 148 423 142Q422 123 422.0 103.0Q422 83 422 63H392Q392 83 392.0 101.5Q392 120 391 139Q309 131 235.0 118.5Q161 106 100 89Q106 125 106 172Q106 194 104.5 215.5Q103 237 100 255Q169 236 241.5 223.0Q314 210 389 202Q388 226 387.5 249.5Q387 273 385 295Q290 288 214.5 279.0Q139 270 100 259Q106 295 106 342Q106 364 104.5 385.5Q103 407 100 425Q144 412 216.5 403.0Q289 394 377 386Q374 427 368 464Q278 457 208.0 448.5Q138 440 100 429Q106 465 106 512Q106 534 104.5 555.5Q103 577 100 595Q141 584 206.5 575.0Q272 566 353 558Q349 579 344.0 597.0Q339 615 334 631Q256 624 195.0 616.0Q134 608 100 599Q106 635 106 682Q106 704 104.5 725.5Q103 747 100 765Q145 753 219.5 743.0Q294 733 387.0 725.5Q480 718 582.0 713.0Q684 708 785.0 704.5Q886 701 976.5 699.5Q1067 698 1137 697Q1130 742 1122.5 781.0Q1115 820 1107 848Q1158 836 1212 836Q1266 836 1323 848Q1311 806 1299.5 730.5Q1288 655 1277.5 559.5Q1267 464 1258.0 360.0Q1249 256 1243 157Q1265 155 1288.0 154.0Q1311 153 1335 153V140Q1310 140 1287.0 138.5Q1264 137 1241 135Q1237 59 1234.0 -9.0Q1231 -77 1230 -130H1231V-160Q1113 -160 993.0 -165.0Q873 -170 765.0 -182.5Q657 -195 573 -218ZM1158 527Q1154 564 1150.0 599.0Q1146 634 1141 666Q1067 665 967.5 662.5Q868 660 757.0 655.5Q646 651 537.0 645.0Q428 639 335 631Q371 625 407 625Q444 625 480 631Q468 597 459 550Q550 544 647.0 540.0Q744 536 837.5 533.0Q931 530 1013.5 528.5Q1096 527 1158 527ZM1174 357Q1171 392 1168.0 427.5Q1165 463 1161 497Q1099 496 1014.5 494.0Q930 492 833.5 488.5Q737 485 637.5 480.0Q538 475 446 469Q443 449 440.5 427.0Q438 405 436 382Q532 375 635.5 370.5Q739 366 838.5 363.0Q938 360 1024.5 358.5Q1111 357 1174 357ZM793 134Q799 139 804.5 143.5Q810 148 816 155Q806 165 796.0 172.5Q786 180 774 188Q798 200 834.5 228.0Q871 256 905 287Q911 294 916.5 301.0Q922 308 927 317Q934 305 956.0 283.0Q978 261 1007.0 235.0Q1036 209 1061 186L1059 199Q1080 190 1113.0 181.0Q1146 172 1188 165Q1184 245 1176 327Q1116 327 1031.0 324.5Q946 322 848.0 319.0Q750 316 649 311Q666 309 683.0 307.5Q700 306 717 306Q754 306 790 312Q777 271 766.5 229.0Q756 187 748 137Q759 134 770.5 133.0Q782 132 793 134ZM677 187Q670 221 662.0 251.0Q654 281 644 311Q589 308 535.0 305.0Q481 302 429 298Q428 274 426.5 249.5Q425 225 424 199Q547 188 677 187ZM901 49 924 60Q922 84 919.0 109.5Q916 135 914.0 154.5Q912 174 910 180Q921 178 932.5 177.0Q944 176 955 180Q952 172 947.5 138.0Q943 104 939 69Q968 85 1001.5 106.0Q1035 127 1063 146V169Q1038 185 1008.0 203.5Q978 222 950.5 238.0Q923 254 903 263Q879 233 856.5 203.5Q834 174 825 155Q834 136 855.5 107.0Q877 78 901 49ZM1200 -130Q1199 -78 1197.0 -12.0Q1195 54 1190 129Q1150 122 1116.5 113.0Q1083 104 1059 94Q1061 102 1061.5 111.0Q1062 120 1063 129Q1038 106 1009.0 80.0Q980 54 957.0 32.0Q934 10 927 -2Q920 10 914 16L900 29Q882 6 858.0 -24.0Q834 -54 815.5 -79.0Q797 -104 793 -112Q777 -87 752 -72Q755 -70 760.5 -67.0Q766 -64 773 -59Q770 -39 767.0 -9.5Q764 20 761.0 50.5Q758 81 754.5 105.0Q751 129 748 136Q741 88 737.0 30.0Q733 -28 732 -105Q842 -121 959.5 -125.0Q1077 -129 1200 -130ZM778 -55Q802 -38 834.5 -11.0Q867 16 892 36Q868 56 843.5 75.5Q819 95 798 108Q795 86 791.5 55.5Q788 25 784.5 -5.0Q781 -35 778 -55Z" />
  </g>
</svg>