<svg xmlns="http://www.w3.org/2000/svg" viewBox="100 -200 2103 1050">
  <g transform="translate(0, 650) scale(1, -1)">
    <path fill="black" d="M379 -200Q377 -165 374.5 -127.5Q372 -90 369 -53Q284 -65 220.0 -80.0Q156 -95 100 -111Q112 -54 112.0 10.0Q112 74 100 125Q162 108 223.0 90.0Q284 72 358 57Q350 120 339.5 172.0Q329 224 317 254Q361 247 397.5 247.0Q434 247 470 254Q455 217 444.0 162.5Q433 108 424 44L531 29Q523 100 512.0 160.5Q501 221 487 254Q531 247 567.5 247.0Q604 247 640 254Q624 214 612.0 153.5Q600 93 591 23Q617 21 645.0 19.0Q673 17 702 15Q694 91 682.5 155.0Q671 219 657 254Q701 247 737.5 247.0Q774 247 810 254Q793 212 781.0 149.0Q769 86 760 12Q811 9 867 9Q864 78 858.0 157.0Q852 236 843.5 312.0Q835 388 824.0 449.5Q813 511 799 544Q847 536 888.0 536.5Q929 537 969 544Q953 504 941.0 442.5Q929 381 919.5 307.5Q910 234 903.0 156.5Q896 79 889 8H930L1020 29Q1014 110 1005.0 189.5Q996 269 984.5 334.0Q973 399 959 434Q1007 426 1048.0 426.5Q1089 427 1129 434Q1112 393 1099.5 330.0Q1087 267 1078.0 192.5Q1069 118 1061 40Q1086 46 1112.0 53.0Q1138 60 1166 69Q1157 149 1144.5 217.0Q1132 285 1116 324Q1164 316 1205.0 316.5Q1246 317 1286 324Q1269 281 1256.5 221.0Q1244 161 1234 91Q1284 109 1342.0 132.5Q1400 156 1468 188Q1422 228 1389.0 254.0Q1356 280 1327 301Q1348 320 1388.5 357.0Q1429 394 1468 437Q1468 445 1467.0 452.5Q1466 460 1466 467Q1415 491 1370 509Q1332 502 1305.0 493.5Q1278 485 1264 479Q1266 495 1268.0 512.5Q1270 530 1270 548Q1183 580 1113.0 597.5Q1043 615 978 631V617Q821 617 703.5 610.0Q586 603 498.5 591.5Q411 580 343.5 565.0Q276 550 217.5 533.5Q159 517 100 500Q112 551 112.0 615.0Q112 679 100 736Q160 719 232.0 703.0Q304 687 399.0 674.0Q494 661 623.0 652.5Q752 644 927 643Q962 681 993.5 737.0Q1025 793 1042 848Q1082 809 1128.5 766.5Q1175 724 1237.5 675.0Q1300 626 1386 567Q1402 564 1420.0 561.5Q1438 559 1458 557Q1450 631 1437.5 692.5Q1425 754 1409 793Q1452 786 1488.5 786.0Q1525 786 1560 792Q1576 803 1595.0 818.0Q1614 833 1627 850Q1630 841 1648.5 808.0Q1667 775 1695.0 730.5Q1723 686 1754.5 639.5Q1786 593 1813 557Q1828 556 1843.5 555.0Q1859 554 1875 553Q1900 576 1938.0 612.0Q1976 648 2011 688L2019 684Q2012 734 2003.5 775.5Q1995 817 1987 848Q2089 824 2203 848Q2192 806 2180.5 732.5Q2169 659 2158.5 566.0Q2148 473 2139.0 371.0Q2130 269 2123.5 170.0Q2117 71 2113.5 -14.0Q2110 -99 2110 -158H2080Q2080 -103 2077.5 -26.5Q2075 50 2070.0 139.0Q2065 228 2057.5 321.5Q2050 415 2041.0 504.5Q2032 594 2021 671Q2011 654 2003.5 638.5Q1996 623 1988 609L2015 595Q2002 573 1991.0 552.0Q1980 531 1969 511Q1981 493 1997.0 470.5Q2013 448 2034 423L2021 411L1949 473Q1926 430 1906.0 392.0Q1886 354 1867 322Q1890 283 1931.5 221.5Q1973 160 2031 84L2005 63Q1913 144 1847.0 198.5Q1781 253 1725 295Q1544 193 1422.5 112.0Q1301 31 1218 -34L1206 -164H1184Q1183 -140 1181.5 -115.5Q1180 -91 1178 -67Q1134 -104 1098.5 -136.5Q1063 -169 1032 -200Q1017 -152 991.5 -103.5Q966 -55 936 -18Q839 -18 756 -21L738 -200H719Q717 -158 714.0 -113.0Q711 -68 706 -23Q674 -24 644.0 -26.0Q614 -28 585 -30Q581 -72 576.5 -115.0Q572 -158 568 -200H549Q547 -160 544.0 -118.0Q541 -76 537 -34Q503 -37 472.5 -40.0Q442 -43 413 -47L398 -200ZM1550 551Q1550 579 1544 603Q1564 595 1631.5 581.0Q1699 567 1796 558Q1767 591 1731.0 628.0Q1695 665 1660.5 698.5Q1626 732 1599.0 756.0Q1572 780 1560 788Q1542 742 1530.0 683.0Q1518 624 1508 553ZM1729 356Q1764 386 1808.0 426.5Q1852 467 1898 514L1879 528Q1824 525 1769.5 519.0Q1715 513 1668.5 505.5Q1622 498 1589.0 491.0Q1556 484 1544 479Q1546 490 1547.5 503.0Q1549 516 1550 529Q1538 529 1527.0 528.5Q1516 528 1505 527L1500 492Q1550 461 1607.0 427.0Q1664 393 1729 356ZM1462 517Q1462 519 1461.5 520.5Q1461 522 1461 523Q1459 522 1453 522ZM1488 197Q1537 220 1591.0 248.0Q1645 276 1706 310L1690 322L1713 341Q1652 375 1598.0 402.5Q1544 430 1496 453L1490 389H1471Q1471 392 1470.5 394.5Q1470 397 1470 400Q1454 370 1442.0 345.5Q1430 321 1417 301Q1427 285 1445.0 257.5Q1463 230 1488 197Z" />
  </g>
</svg>