<svg xmlns="http://www.w3.org/2000/svg" viewBox="100 -200 2103 1191">
  <g transform="translate(0, 791) scale(1, -1)">
    <path fill="black" d="M379 -200 369 -53Q302 -63 235.0 -77.5Q168 -92 100 -111Q124 7 100 125Q165 106 229.5 89.0Q294 72 358 57Q353 107 343.0 156.0Q333 205 317 254Q394 241 470 254Q454 202 442.0 149.5Q430 97 424 44L531 29Q525 85 515.0 141.5Q505 198 487 254Q564 241 640 254Q621 196 609.0 138.5Q597 81 591 23Q619 21 646.5 19.0Q674 17 702 15Q694 75 686.5 134.5Q679 194 657 254Q734 241 810 254Q789 193 778.5 133.0Q768 73 760 12Q814 9 867 9Q862 98 855.0 195.0Q848 292 835.5 383.0Q823 474 799 544Q884 528 969 544Q953 501 940.5 437.5Q928 374 918.5 300.0Q909 226 902.0 150.5Q895 75 889 8H930L1020 29Q1011 130 1000.5 231.5Q990 333 959 434Q1044 418 1129 434Q1111 387 1098.0 319.5Q1085 252 1076.0 179.0Q1067 106 1061 40Q1087 47 1113.5 54.0Q1140 61 1166 69Q1158 133 1148.5 196.5Q1139 260 1116 324Q1201 309 1286 324Q1246 209 1234 91Q1352 133 1470.0 188.5Q1588 244 1706 310L1690 322L1713 341L1686 356Q1651 326 1624 294Q1601 345 1558 380Q1568 383 1578.0 387.5Q1588 392 1598 396L1587 408Q1445 482 1291.5 540.5Q1138 599 978 631V617Q881 617 780.5 614.0Q680 611 573.5 600.5Q467 590 349.5 566.0Q232 542 100 500Q124 618 100 736Q225 700 364.0 679.5Q503 659 646.0 651.0Q789 643 927 643Q1008 737 1042 848Q1141 748 1260.0 657.5Q1379 567 1506 488L1453 537Q1518 584 1586 643Q1553 673 1519.5 699.5Q1486 726 1453 750Q1494 785 1529.5 820.0Q1565 855 1596 889L1558 905Q1602 942 1624 991Q1677 934 1744.5 876.0Q1812 818 1884.5 760.5Q1957 703 2023 648Q2016 698 2007.0 748.0Q1998 798 1987 848Q2095 823 2203 848Q2187 775 2173.5 682.5Q2160 590 2149.5 485.0Q2139 380 2130.5 270.0Q2122 160 2117.0 51.5Q2112 -57 2110 -158H2080Q2077 39 2063.0 236.5Q2049 434 2025 631L1994 606L2015 595L1867 322Q1904 263 1944.5 203.0Q1985 143 2031 84L2005 63Q1864 189 1725 295Q1593 222 1466.5 140.5Q1340 59 1218 -34L1206 -164H1184L1178 -67Q1141 -96 1105.0 -129.5Q1069 -163 1032 -200Q998 -98 936 -18Q846 -18 756 -21L738 -200H719L706 -23Q676 -24 645.5 -26.0Q615 -28 585 -30L568 -200H549L537 -34Q506 -37 475.0 -40.5Q444 -44 413 -47L398 -200ZM1631 413Q1725 464 1818.5 521.0Q1912 578 2006 638Q1908 703 1809.5 764.0Q1711 825 1613 880L1543 750Q1557 728 1572.5 705.0Q1588 682 1604 659L1613 667L1626 655L1616 643L1626 632L1613 620L1604 628Q1588 606 1572.5 583.0Q1557 560 1543 537L1599 431ZM1730 356Q1787 406 1844.0 461.0Q1901 516 1958 577Q1894 527 1830.5 475.5Q1767 424 1703 371Z" />
  </g>
</svg>