<svg xmlns="http://www.w3.org/2000/svg" viewBox="100 -200 2103 1048">
  <g transform="translate(0, 648) scale(1, -1)">
    <path fill="black" d="M2080 -158Q2080 -99 2077.0 -16.0Q2074 67 2068.0 163.5Q2062 260 2054.0 359.5Q2046 459 2035.5 552.0Q2025 645 2013.0 722.0Q2001 799 1987 848Q2038 836 2092 836Q2146 836 2203 848Q2192 806 2180.5 732.5Q2169 659 2158.5 566.0Q2148 473 2139.0 371.0Q2130 269 2123.5 170.0Q2117 71 2113.5 -14.0Q2110 -99 2110 -158ZM379 -200Q377 -165 374.5 -127.5Q372 -90 369 -53Q284 -65 220.0 -80.0Q156 -95 100 -111Q112 -54 112 10Q112 74 100 125Q162 108 223.0 90.0Q284 72 358 57Q350 120 339.5 172.0Q329 224 317 254Q338 250 357.5 248.5Q377 247 395 247Q435 247 470 254Q455 217 444.0 162.5Q433 108 424 44L531 29Q523 100 512.0 160.5Q501 221 487 254Q508 250 527.5 248.5Q547 247 565 247Q605 247 640 254Q624 214 612.0 153.5Q600 93 591 23Q617 21 645.0 19.0Q673 17 702 15Q694 91 682.5 155.0Q671 219 657 254Q678 250 697.5 248.5Q717 247 735 247Q775 247 810 254Q793 212 781.0 149.0Q769 86 760 12Q811 9 867 9Q864 78 858.0 157.0Q852 236 843.5 312.0Q835 388 824.0 449.5Q813 511 799 544Q822 540 844.0 538.0Q866 536 886 536Q907 536 927.5 538.0Q948 540 969 544Q953 504 941.0 442.5Q929 381 919.5 307.5Q910 234 903.0 156.5Q896 79 889 8H930L1020 29Q1014 110 1005.0 189.5Q996 269 984.5 334.0Q973 399 959 434Q982 430 1004.0 428.0Q1026 426 1046 426Q1067 426 1087.5 428.0Q1108 430 1129 434Q1112 393 1099.5 330.0Q1087 267 1078.0 192.5Q1069 118 1061 40Q1086 46 1112.0 53.0Q1138 60 1166 69Q1157 149 1144.5 217.0Q1132 285 1116 324Q1139 320 1161.0 318.0Q1183 316 1203 316Q1224 316 1244.5 318.0Q1265 320 1286 324Q1269 281 1256.5 221.0Q1244 161 1234 91Q1323 123 1437.5 174.0Q1552 225 1706 310L1690 322L1713 341Q1684 358 1656.5 372.5Q1629 387 1603 400L1571 375H1554L1550 426Q1447 478 1365.0 511.5Q1283 545 1216.0 567.0Q1149 589 1091.0 603.5Q1033 618 978 631V617Q821 617 703.5 610.0Q586 603 498.5 591.5Q411 580 343.5 565.0Q276 550 217.5 533.5Q159 517 100 500Q112 551 112 615Q112 679 100 736Q160 719 232.0 703.0Q304 687 399.0 674.0Q494 661 623.0 652.5Q752 644 927 643Q962 681 993.5 737.0Q1025 793 1042 848Q1080 811 1124.0 770.5Q1168 730 1226.5 683.5Q1285 637 1363.5 582.5Q1442 528 1548 463Q1542 538 1536.0 588.0Q1530 638 1523.5 669.5Q1517 701 1510.5 722.5Q1504 744 1497.5 761.0Q1491 778 1484 800Q1501 796 1518.5 794.0Q1536 792 1553 792Q1570 792 1588.0 794.0Q1606 796 1625 800Q1617 776 1609.0 753.0Q1601 730 1594.0 695.0Q1587 660 1581.5 601.0Q1576 542 1573 447L1604 429Q1618 443 1630.0 456.0Q1642 469 1652 480Q1649 518 1640.0 558.0Q1631 598 1621.0 628.5Q1611 659 1604 667Q1617 665 1630.5 663.5Q1644 662 1657 662Q1671 662 1685.0 663.5Q1699 665 1715 667Q1709 660 1700.0 633.5Q1691 607 1682.5 571.5Q1674 536 1670 501Q1699 536 1719.0 566.5Q1739 597 1759 629Q1755 666 1746.0 702.5Q1737 739 1727.5 766.5Q1718 794 1712 801Q1725 799 1738.5 797.5Q1752 796 1765 796Q1779 796 1793.5 797.5Q1808 799 1824 801Q1815 792 1802.0 752.0Q1789 712 1781 665L1792 681Q1818 644 1844.5 613.0Q1871 582 1902 558Q1865 544 1833.5 532.5Q1802 521 1771.0 506.5Q1740 492 1705.0 470.5Q1670 449 1625 416L1729 356Q1763 386 1807.0 426.0Q1851 466 1897.5 513.0Q1944 560 1987 610L2015 595Q1967 509 1933.0 442.0Q1899 375 1867 322Q1890 283 1931.5 221.5Q1973 160 2031 84L2005 63Q1913 144 1847.0 198.5Q1781 253 1725 295Q1544 193 1422.5 112.0Q1301 31 1218 -34L1206 -164H1184Q1183 -140 1181.5 -115.5Q1180 -91 1178 -67Q1134 -104 1098.5 -136.5Q1063 -169 1032 -200Q1017 -152 991.5 -103.5Q966 -55 936 -18Q839 -18 756 -21L738 -200H719Q717 -158 714.0 -113.0Q711 -68 706 -23Q674 -24 644.0 -26.0Q614 -28 585 -30Q581 -72 576.5 -115.0Q572 -158 568 -200H549Q547 -160 544.0 -118.0Q541 -76 537 -34Q503 -37 472.5 -40.0Q442 -43 413 -47L398 -200ZM1571 397 1584 409 1572 415Q1572 411 1571.5 406.5Q1571 402 1571 397Z" />
  </g>
</svg>