<svg xmlns="http://www.w3.org/2000/svg" viewBox="100 -200 2103 1065">
  <g transform="translate(0, 665) scale(1, -1)">
    <path fill="black" d="M379 -200 369 -53Q302 -63 235.0 -77.5Q168 -92 100 -111Q124 7 100 125Q165 105 229.5 88.0Q294 71 358 57Q353 107 343.0 156.0Q333 205 317 254Q394 241 470 254Q454 202 442.0 149.5Q430 97 424 44L531 29Q526 85 515.0 141.5Q504 198 487 254Q564 241 640 254Q622 196 609.5 138.5Q597 81 591 23L702 15Q696 75 686.5 134.5Q677 194 657 254Q734 241 810 254Q788 193 778.0 133.0Q768 73 760 12L867 9Q864 76 858.0 154.5Q852 233 843.5 309.5Q835 386 823.5 448.0Q812 510 799 544Q884 528 969 544Q953 504 940.5 441.0Q928 378 918.5 303.0Q909 228 902.0 151.5Q895 75 889 8H930L1020 29Q1012 130 1001.0 231.5Q990 333 959 434Q1044 418 1129 434Q1111 388 1097.5 320.5Q1084 253 1075.0 179.5Q1066 106 1061 40L1166 69Q1159 133 1147.5 196.5Q1136 260 1116 324Q1201 308 1286 324Q1263 266 1253.5 208.0Q1244 150 1234 91Q1352 134 1470.0 189.0Q1588 244 1706 310L1690 322L1713 341Q1661 370 1609.0 396.5Q1557 423 1505 448Q1426 401 1350 338Q1335 387 1295 432L1321 438L1316 531Q1231 563 1147.0 588.5Q1063 614 978 631V617Q868 617 764.5 613.5Q661 610 557.0 598.5Q453 587 340.5 563.5Q228 540 100 500Q122 618 100 736Q307 678 514.5 660.5Q722 643 927 643Q1005 733 1042 848Q1104 784 1169.5 728.0Q1235 672 1303 624Q1298 658 1290.0 691.5Q1282 725 1271 759Q1315 751 1359 753Q1343 759 1327.0 764.0Q1311 769 1295 771Q1334 813 1350 865Q1376 841 1420.0 810.0Q1464 779 1518.0 745.5Q1572 712 1627.0 679.0Q1682 646 1730 617H1731Q1760 640 1789.5 664.5Q1819 689 1848 715L1861 708L1806 607L1861 506L1848 496Q1822 521 1795.5 543.5Q1769 566 1743 588L1737 590L1537 469Q1585 440 1633.0 412.5Q1681 385 1729 356Q1773 395 1817.0 436.0Q1861 477 1904 520Q1900 591 1887.5 665.0Q1875 739 1855 803Q1917 791 1979 803Q1956 739 1944.5 675.0Q1933 611 1930 547L1987 610L2015 595L1867 322Q1904 263 1944.5 203.0Q1985 143 2031 84L2005 63Q1864 190 1725 295Q1589 219 1466.0 140.0Q1343 61 1218 -34L1206 -164H1184L1178 -67Q1141 -100 1105.0 -133.5Q1069 -167 1032 -200Q997 -97 936 -18L756 -21L738 -200H719L706 -23L585 -30L568 -200H549L537 -34L413 -47L398 -200ZM2080 -158Q2077 -32 2071.0 101.5Q2065 235 2054.5 367.0Q2044 499 2027.5 622.0Q2011 745 1987 848Q2095 823 2203 848Q2186 773 2172.5 679.0Q2159 585 2148.5 479.5Q2138 374 2130.5 264.0Q2123 154 2118.0 47.0Q2113 -60 2110 -158ZM1379 571Q1385 620 1376 669Q1451 645 1526.5 633.0Q1602 621 1677 618Q1605 652 1533.0 683.5Q1461 715 1389 743Q1376 704 1367.5 665.5Q1359 627 1354 588ZM1488 500 1700 595Q1626 592 1552.0 582.0Q1478 572 1404 554ZM1343 444Q1367 452 1390.5 460.5Q1414 469 1438 479L1347 519Z" />
  </g>
</svg>