<svg xmlns="http://www.w3.org/2000/svg" viewBox="100 -200 2103 1094">
  <g transform="translate(0, 694) scale(1, -1)">
    <path fill="black" d="M379 -200Q377 -165 374.5 -127.5Q372 -90 369 -53Q284 -65 220.0 -80.0Q156 -95 100 -111Q112 -54 112 10Q112 74 100 125Q162 108 223.0 90.0Q284 72 358 57Q350 120 339.5 172.0Q329 224 317 254Q338 250 357.5 248.5Q377 247 395 247Q435 247 470 254Q455 217 444.0 162.5Q433 108 424 44L531 29Q523 100 512.0 160.5Q501 221 487 254Q508 250 527.5 248.5Q547 247 565 247Q605 247 640 254Q624 214 612.0 153.5Q600 93 591 23Q617 21 645.0 19.0Q673 17 702 15Q694 91 682.5 155.0Q671 219 657 254Q678 250 697.5 248.5Q717 247 735 247Q775 247 810 254Q793 212 781.0 149.0Q769 86 760 12Q811 9 867 9Q864 78 858.0 157.0Q852 236 843.5 312.0Q835 388 824.0 449.5Q813 511 799 544Q822 540 844.0 538.0Q866 536 886 536Q907 536 927.5 538.0Q948 540 969 544Q953 504 941.0 442.5Q929 381 919.5 307.5Q910 234 903.0 156.5Q896 79 889 8H930L1020 29Q1014 110 1005.0 189.5Q996 269 984.5 334.0Q973 399 959 434Q982 430 1004.0 428.0Q1026 426 1046 426Q1067 426 1087.5 428.0Q1108 430 1129 434Q1112 393 1099.5 330.0Q1087 267 1078.0 192.5Q1069 118 1061 40Q1086 46 1112.0 53.0Q1138 60 1166 69Q1157 149 1144.5 217.0Q1132 285 1116 324Q1139 320 1161.0 318.0Q1183 316 1203 316Q1224 316 1244.5 318.0Q1265 320 1286 324Q1269 281 1256.5 221.0Q1244 161 1234 91Q1323 123 1437.5 174.0Q1552 225 1706 310L1690 322L1713 341L1639 381Q1614 353 1597 330Q1585 350 1571.5 367.5Q1558 385 1541 398L1573 414V415Q1464 470 1378.0 506.0Q1292 542 1223.0 564.5Q1154 587 1094.5 602.5Q1035 618 978 631V617Q821 617 703.5 610.0Q586 603 498.5 591.5Q411 580 343.5 565.0Q276 550 217.5 533.5Q159 517 100 500Q112 551 112 615Q112 679 100 736Q160 719 232.0 703.0Q304 687 399.0 674.0Q494 661 623.0 652.5Q752 644 927 643Q962 681 993.5 737.0Q1025 793 1042 848Q1081 810 1126.5 768.0Q1172 726 1233.0 677.5Q1294 629 1377.0 572.0Q1460 515 1572 447Q1571 576 1561.5 677.5Q1552 779 1539 834Q1550 832 1561.0 830.5Q1572 829 1584 830Q1599 843 1611.5 859.0Q1624 875 1635 894Q1660 861 1693.0 823.5Q1726 786 1776.5 738.5Q1827 691 1904 627L1888 614Q1812 551 1754.0 496.5Q1696 442 1655 398L1729 356Q1763 386 1807.0 426.0Q1851 466 1897.5 513.0Q1944 560 1987 610L2015 595Q1967 509 1933.0 442.0Q1899 375 1867 322Q1890 283 1931.5 221.5Q1973 160 2031 84L2005 63Q1913 144 1847.0 198.5Q1781 253 1725 295Q1544 193 1422.5 112.0Q1301 31 1218 -34L1206 -164H1184Q1183 -140 1181.5 -115.5Q1180 -91 1178 -67Q1134 -104 1098.5 -136.5Q1063 -169 1032 -200Q1017 -152 991.5 -103.5Q966 -55 936 -18Q839 -18 756 -21L738 -200H719Q717 -158 714.0 -113.0Q711 -68 706 -23Q674 -24 644.0 -26.0Q614 -28 585 -30Q581 -72 576.5 -115.0Q572 -158 568 -200H549Q547 -160 544.0 -118.0Q541 -76 537 -34Q503 -37 472.5 -40.0Q442 -43 413 -47L398 -200ZM2080 -158Q2080 -99 2077.0 -16.0Q2074 67 2068.0 163.5Q2062 260 2054.0 359.5Q2046 459 2035.5 552.0Q2025 645 2013.0 722.0Q2001 799 1987 848Q2038 836 2092 836Q2146 836 2203 848Q2192 806 2180.5 732.5Q2169 659 2158.5 566.0Q2148 473 2139.0 371.0Q2130 269 2123.5 170.0Q2117 71 2113.5 -14.0Q2110 -99 2110 -158ZM1866 632Q1781 700 1724.0 739.5Q1667 779 1621 804Q1611 749 1603 662Q1612 659 1641.0 654.5Q1670 650 1709.0 645.0Q1748 640 1789.5 636.5Q1831 633 1866 632ZM1601 430Q1652 461 1719.0 509.0Q1786 557 1867 623Q1831 622 1788.5 617.0Q1746 612 1706.0 605.5Q1666 599 1637.5 593.0Q1609 587 1602 584Q1604 596 1604.5 618.5Q1605 641 1603 657Q1599 608 1596.5 552.5Q1594 497 1593 435Z" />
  </g>
</svg>