<svg xmlns="http://www.w3.org/2000/svg" viewBox="100 -152 1377 950">
  <g transform="translate(0, 646) scale(1, -1)">
    <path fill="black" d="M847 -152Q838 -140 829.0 -130.0Q820 -120 810 -110L795 -125Q757 -89 708.5 -44.5Q660 0 607.5 46.5Q555 93 504.0 135.0Q453 177 410.0 208.5Q367 240 338 254Q358 265 376.5 278.5Q395 292 412 308Q364 303 314.5 296.0Q265 289 221.0 281.5Q177 274 145.0 267.0Q113 260 100 255Q103 274 105.5 292.5Q108 311 108 330Q108 346 106.0 362.0Q104 378 100 394Q112 389 144.0 382.0Q176 375 220.0 367.5Q264 360 313.5 353.0Q363 346 411 341Q394 357 376.0 369.5Q358 382 338 394Q367 408 410.0 439.5Q453 471 504.0 513.0Q555 555 607.5 601.5Q660 648 708.5 692.5Q757 737 795 773L811 758L807 753Q817 763 827.0 774.0Q837 785 847 798Q855 775 881.5 736.0Q908 697 946.0 648.0Q984 599 1026.5 546.0Q1069 493 1110.0 443.5Q1151 394 1184 353Q1236 347 1291.0 342.0Q1346 337 1395.0 334.0Q1444 331 1477 331V318Q1444 318 1395.5 315.0Q1347 312 1293.0 307.0Q1239 302 1187 296Q1154 256 1112.5 205.5Q1071 155 1028.0 102.0Q985 49 947.0 0.0Q909 -49 882.0 -89.0Q855 -129 847 -152ZM751 -36Q786 -15 834.5 22.5Q883 60 937.5 106.0Q992 152 1045.5 200.5Q1099 249 1144 291Q1092 284 1053.0 277.0Q1014 270 1000 265Q1003 284 1005.5 298.5Q1008 313 1008 328Q1008 340 1006.0 354.0Q1004 368 1000 384Q1013 379 1051.0 372.0Q1089 365 1141 358Q1096 400 1042.5 448.0Q989 496 935.0 542.0Q881 588 833.0 625.0Q785 662 750 683Q715 640 676.0 592.5Q637 545 599.5 498.0Q562 451 530.5 409.0Q499 367 479 335Q495 334 509.5 333.5Q524 333 537 333V316Q524 316 509.5 315.5Q495 315 479 314Q499 282 530.5 239.5Q562 197 599.5 149.5Q637 102 676.5 54.0Q716 6 751 -36Z" />
  </g>
</svg>