<svg xmlns="http://www.w3.org/2000/svg" viewBox="100 -335 1478 1263">
  <g transform="translate(0, 593) scale(1, -1)">
    <path fill="black" d="M1178 -335 1173 -210Q1117 -215 1063.0 -222.0Q1009 -229 978 -241Q985 -209 978 -169Q995 -176 1026.5 -181.5Q1058 -187 1097.0 -191.0Q1136 -195 1173 -197L1170 -138Q1115 -143 1062.0 -150.0Q1009 -157 978 -169Q985 -137 978 -97Q995 -104 1026.0 -109.5Q1057 -115 1095.0 -119.0Q1133 -123 1170 -125L1167 -66Q1112 -71 1060.0 -78.5Q1008 -86 978 -97Q985 -65 978 -25Q995 -32 1025.0 -37.5Q1055 -43 1092.5 -47.0Q1130 -51 1166 -53L1163 5Q1109 0 1058.0 -7.0Q1007 -14 978 -25Q981 -11 981 2Q950 1 905.0 -2.5Q860 -6 816 -11Q789 -44 753.5 -87.0Q718 -130 683.5 -173.5Q649 -217 624.0 -252.5Q599 -288 592 -307Q580 -292 568 -280L557 -290Q526 -260 484.5 -222.0Q443 -184 399.5 -147.0Q356 -110 318.5 -81.0Q281 -52 257 -40Q284 -25 305 -4Q264 -8 220.5 -14.5Q177 -21 144.0 -27.5Q111 -34 100 -39Q104 -17 105.0 5.5Q106 28 100 52Q111 48 144.0 41.5Q177 35 220.0 28.5Q263 22 304 17Q294 28 282.0 36.5Q270 45 257 52Q280 63 316.5 91.0Q353 119 395.5 155.5Q438 192 479.0 229.0Q520 266 551 296Q520 326 479.0 363.0Q438 400 395.5 436.5Q353 473 316.5 500.5Q280 528 257 540Q271 548 283.0 556.5Q295 565 305 575Q264 571 220.5 564.5Q177 558 144.0 551.5Q111 545 100 541Q104 563 105.0 585.5Q106 608 100 632Q111 628 144.0 621.5Q177 615 220.0 608.5Q263 602 304 597Q294 608 282.0 616.5Q270 625 257 632Q281 644 318.5 673.0Q356 702 399.5 739.0Q443 776 484.5 814.0Q526 852 557 882L568 872L564 867Q577 880 592 898Q599 879 624.0 843.5Q649 808 683.0 765.0Q717 722 752.0 679.5Q787 637 814 604Q858 599 904.5 595.0Q951 591 982 591Q982 599 981.0 608.0Q980 617 978 627Q994 620 1023.5 614.5Q1053 609 1089.5 605.0Q1126 601 1162 599Q1161 615 1160.0 629.5Q1159 644 1158 657Q1105 652 1056.0 645.5Q1007 639 978 628Q985 658 978 699Q985 731 978 770Q1001 760 1049.5 753.0Q1098 746 1149 743Q1145 773 1139.5 797.0Q1134 821 1128 842Q1160 836 1183.0 835.5Q1206 835 1243 841Q1225 853 1214 858Q1236 872 1254.0 888.0Q1272 904 1290 928Q1296 912 1316.0 883.5Q1336 855 1365.0 820.0Q1394 785 1425.5 748.0Q1457 711 1486.5 677.5Q1516 644 1537 619L1527 609L1502 632Q1520 608 1538.0 592.0Q1556 576 1578 562Q1557 552 1522.5 527.5Q1488 503 1447.0 470.0Q1406 437 1365.5 402.0Q1325 367 1292 337Q1300 320 1320.5 291.5Q1341 263 1369.5 228.5Q1398 194 1428.5 158.5Q1459 123 1487.5 90.0Q1516 57 1537 33L1527 23L1502 46Q1520 22 1538.0 6.0Q1556 -10 1578 -24Q1554 -35 1515.0 -64.0Q1476 -93 1430.0 -130.5Q1384 -168 1340.5 -206.0Q1297 -244 1265 -273L1255 -263Q1276 -238 1305.5 -204.5Q1335 -171 1366.5 -134.0Q1398 -97 1427.0 -62.0Q1456 -27 1476.0 1.5Q1496 30 1502 46Q1464 80 1416.5 120.5Q1369 161 1323.0 197.0Q1277 233 1243 255Q1233 227 1226.5 183.0Q1220 139 1215.0 71.0Q1210 3 1205.5 -96.5Q1201 -196 1196 -335ZM1196 255Q1205 256 1215.0 257.0Q1225 258 1236 260Q1230 264 1224.5 267.0Q1219 270 1214 272Q1230 282 1244.0 293.0Q1258 304 1271 318L1265 313L1255 323Q1276 348 1305.5 381.5Q1335 415 1366.5 452.0Q1398 489 1427.0 524.0Q1456 559 1476.0 587.5Q1496 616 1502 632Q1464 666 1417.0 706.0Q1370 746 1324.5 782.0Q1279 818 1245 840Q1235 813 1228.0 770.5Q1221 728 1216.0 660.5Q1211 593 1206.5 494.0Q1202 395 1196 255ZM479 717Q480 724 479.0 731.5Q478 739 476 748Q490 742 516.0 738.0Q542 734 570 732Q563 751 558.0 764.5Q553 778 550 782Q563 782 578 787Q564 798 551.0 807.0Q538 816 527 822L448 725Q456 727 463.0 729.0Q470 731 477 735Q477 733 477.5 728.0Q478 723 479 717ZM672 460Q703 487 733.0 514.0Q763 541 789 565Q755 561 728.0 556.0Q701 551 692 547Q697 570 697.5 585.5Q698 601 692 626Q701 622 726.5 617.5Q752 613 786 608Q746 646 695.5 690.5Q645 735 600 771Q604 748 612.0 710.5Q620 673 631.0 629.0Q642 585 652.5 540.5Q663 496 672 460ZM1156 672 1151 727Q1101 722 1055.0 715.5Q1009 709 980 699Q1005 689 1055.0 682.0Q1105 675 1156 672ZM488 658Q491 674 486 695Q501 688 529.5 684.5Q558 681 589 679L574 721Q547 718 522.0 714.5Q497 711 480 705ZM528 349 536 353Q525 392 511.0 444.0Q497 496 483.0 549.0Q469 602 457.0 645.5Q445 689 437 711Q410 677 386.5 646.5Q363 616 349 593Q360 592 370.0 592.0Q380 592 388 592V581Q379 581 369.5 580.5Q360 580 349 579Q367 551 397.5 511.5Q428 472 463.0 429.5Q498 387 528 349ZM497 603Q499 613 498.5 622.5Q498 632 496 643Q511 636 542.5 632.0Q574 628 606 626L592 669Q562 666 535.0 662.5Q508 659 489 651ZM507 550Q509 559 508.5 569.0Q508 579 506 590Q522 583 556.0 578.5Q590 574 624 572L609 616Q577 614 547.5 609.5Q518 605 498 598ZM982 11Q982 19 981.0 28.0Q980 37 978 47Q994 40 1023.5 34.5Q1053 29 1089.5 25.0Q1126 21 1162 19Q1161 35 1160.0 49.5Q1159 64 1158 77Q1105 72 1056.0 65.5Q1007 59 978 48Q985 78 978 119Q985 151 978 190Q1001 180 1049.5 173.0Q1098 166 1149 163Q1145 193 1139.5 217.0Q1134 241 1128 262Q1154 257 1177 255Q1176 286 1175.5 314.5Q1175 343 1173 370Q1117 364 1063.0 357.0Q1009 350 978 339Q985 371 978 411Q995 404 1026.5 398.0Q1058 392 1097.0 388.5Q1136 385 1173 383L1170 442Q1115 436 1062.0 429.0Q1009 422 978 411Q985 443 978 483Q995 476 1026.0 470.0Q1057 464 1095.0 460.5Q1133 457 1170 455L1167 513Q1112 508 1060.0 501.0Q1008 494 978 483Q985 515 978 555Q995 548 1025.0 542.5Q1055 537 1092.5 533.0Q1130 529 1166 527L1163 585Q1109 580 1058.0 573.0Q1007 566 978 555Q981 569 981 582Q950 581 905.0 577.5Q860 574 816 569Q792 540 761.5 502.5Q731 465 700.0 426.5Q669 388 643.0 353.5Q617 319 603 295Q617 271 642.5 236.5Q668 202 699.0 164.0Q730 126 760.0 89.5Q790 53 814 24Q858 19 904.5 15.0Q951 11 982 11ZM517 498Q519 507 518.5 516.5Q518 526 516 537Q533 530 569.5 526.0Q606 522 641 520L626 565Q592 561 560.0 557.0Q528 553 508 546ZM527 446Q529 456 528.5 465.5Q528 475 526 485Q543 478 582.5 473.5Q622 469 658 467L643 512Q608 509 573.5 505.0Q539 501 518 493ZM544 359Q568 375 599.0 399.5Q630 424 663 452L660 462V460Q623 457 586.5 452.5Q550 448 528 440ZM564 287Q566 289 568.0 291.0Q570 293 572 295L568 300L563 296L568 292ZM479 137Q480 144 479.0 151.5Q478 159 476 168Q490 162 516.0 158.0Q542 154 570 152Q563 171 558.0 184.5Q553 198 550 202Q563 202 578 207Q564 218 551.0 227.0Q538 236 527 242L448 145Q465 148 478 155Q477 153 477.5 148.0Q478 143 479 137ZM672 -119Q703 -93 733.0 -65.5Q763 -38 789 -14Q755 -18 728.0 -23.0Q701 -28 692 -33Q697 -10 697.5 5.5Q698 21 692 46Q701 42 726.5 37.5Q752 33 786 28Q746 66 695.5 110.5Q645 155 600 191Q604 168 612.0 130.5Q620 93 631.0 49.0Q642 5 652.5 -39.0Q663 -83 672 -119ZM1156 92 1151 147Q1101 142 1055.0 135.5Q1009 129 980 119Q1005 109 1055.0 102.0Q1105 95 1156 92ZM488 78Q491 94 486 115Q501 108 529.5 104.5Q558 101 589 99L574 141Q547 138 522.0 134.5Q497 131 480 125ZM528 -231 536 -226Q525 -187 511.0 -135.5Q497 -84 483.0 -31.0Q469 22 457.0 65.5Q445 109 437 131Q410 97 386.5 66.5Q363 36 349 13Q360 12 370.0 12.0Q380 12 388 12V1Q379 1 369.5 0.5Q360 0 349 0Q367 -28 397.5 -68.0Q428 -108 463.0 -150.5Q498 -193 528 -231ZM497 23Q499 33 498.5 42.5Q498 52 496 63Q511 56 542.5 52.0Q574 48 606 46L592 89Q562 86 535.0 82.5Q508 79 489 71ZM507 -29Q509 -20 508.5 -10.5Q508 -1 506 10Q522 3 556.0 -1.0Q590 -5 624 -7L609 36Q577 34 547.5 29.5Q518 25 498 18ZM517 -81Q519 -72 518.5 -62.5Q518 -53 516 -43Q533 -50 569.5 -54.0Q606 -58 641 -60L626 -15Q592 -18 560.0 -22.0Q528 -26 508 -34ZM527 -133Q529 -124 528.5 -114.5Q528 -105 526 -95Q543 -102 582.5 -106.5Q622 -111 658 -113L643 -67Q608 -71 573.5 -75.0Q539 -79 518 -87ZM544 -221Q594 -187 663 -127L660 -117V-120Q623 -123 586.5 -127.0Q550 -131 528 -139Q533 -162 536.5 -183.0Q540 -204 544 -221Z" />
  </g>
</svg>