<svg xmlns="http://www.w3.org/2000/svg" viewBox="100 -127 837 863">
  <g transform="translate(0, 609) scale(1, -1)">
    <path fill="black" d="M100 -127Q103 -117 105.5 -97.5Q108 -78 110.0 -58.5Q112 -39 112 -30Q112 -4 109.5 29.5Q107 63 100 89Q132 80 167.0 71.5Q202 63 231 56Q233 69 234.0 81.5Q235 94 235 107Q235 123 233.5 139.0Q232 155 227 172Q240 167 280.0 159.5Q320 152 378.5 145.0Q437 138 508.0 131.5Q579 125 655.5 120.5Q732 116 806 115Q804 148 801.5 182.0Q799 216 795 250Q732 249 660.0 244.5Q588 240 517.0 233.5Q446 227 385.0 220.0Q324 213 282.0 206.0Q240 199 227 194Q230 213 232.5 231.5Q235 250 235 269Q235 285 233.0 301.0Q231 317 227 333Q240 328 278.5 321.0Q317 314 374.0 306.5Q431 299 500.5 292.5Q570 286 645.0 281.5Q720 277 793 276L778 411Q715 409 644.5 404.5Q574 400 505.5 393.5Q437 387 378.5 380.0Q320 373 280.0 366.5Q240 360 227 355Q230 374 232.5 392.5Q235 411 235 430Q235 446 233.0 462.0Q231 478 227 494Q243 487 296.0 478.5Q349 470 426.5 461.0Q504 452 594.0 445.5Q684 439 774 437Q770 472 765.0 506.0Q760 540 755 571Q693 569 625.0 564.0Q557 559 491.5 553.0Q426 547 370.5 540.0Q315 533 277.0 527.0Q239 521 227 516Q230 535 232.5 553.5Q235 572 235 591Q235 607 233.0 623.0Q231 639 227 655Q242 649 292.5 640.5Q343 632 416.5 623.5Q490 615 576.5 608.5Q663 602 750 599Q735 682 721 736Q751 729 779.5 726.0Q808 723 834 723Q888 723 937 736Q921 677 906.5 596.5Q892 516 880.0 424.5Q868 333 859.5 238.0Q851 143 846.5 53.0Q842 -37 842 -112H816Q816 -68 814.0 -16.5Q812 35 808 90Q745 89 671.5 84.5Q598 80 524.5 73.5Q451 67 388.0 59.5Q325 52 283 45Q346 32 432.0 20.0Q518 8 613.0 1.0Q708 -6 798 -6V-32Z" />
  </g>
</svg>