<svg xmlns="http://www.w3.org/2000/svg" viewBox="100 -127 272 863">
  <g transform="translate(0, 609) scale(1, -1)">
    <path fill="black" d="M348 -127Q317 -99 291.0 -74.0Q265 -49 242 -27Q241 -48 241.0 -69.0Q241 -90 241 -112H215Q215 -83 214.5 -55.0Q214 -27 213 0Q182 31 155.0 56.5Q128 82 100 102Q118 118 145.5 140.0Q173 162 205 190Q193 375 169.0 510.0Q145 645 120 736Q171 724 225 724Q279 724 336 736Q312 650 289.5 526.0Q267 402 253 233Q277 256 301.5 280.0Q326 304 348 330L372 317Q332 246 303.0 196.0Q274 146 248 102Q274 58 303.0 8.0Q332 -42 372 -113Z" />
  </g>
</svg>