<svg xmlns="http://www.w3.org/2000/svg" viewBox="100 -289 1678 1227">
  <g transform="translate(0, 649) scale(1, -1)">
    <path fill="black" d="M1645 170Q1645 193 1644.5 214.5Q1644 236 1644 256Q1583 256 1506.0 254.5Q1429 253 1344.5 250.5Q1260 248 1176.0 243.5Q1092 239 1015.0 232.5Q938 226 875.5 217.5Q813 209 773 198Q779 234 779 271Q779 308 773 344Q818 331 879.5 322.0Q941 313 1013 307Q1012 402 1007.0 473.0Q1002 544 991 608Q882 602 789.5 593.5Q697 585 641 574L702 505L680 485Q622 552 573.5 603.0Q525 654 480.5 694.5Q436 735 390.0 770.5Q344 806 290 842Q353 882 400 938Q426 883 450.0 839.0Q474 795 499.0 757.5Q524 720 552.5 682.5Q581 645 617 603Q618 613 618.5 623.0Q619 633 619 643Q619 678 613 714Q669 698 766.0 688.0Q863 678 978 671Q973 694 967.5 716.5Q962 739 955 764Q991 758 1027 758Q1044 758 1061.5 759.5Q1079 761 1095 763V764Q1096 764 1096.5 763.5Q1097 763 1098 763Q1099 763 1099.5 763.5Q1100 764 1101 764V763Q1118 760 1134.5 759.0Q1151 758 1168 758Q1185 758 1202.0 759.0Q1219 760 1235 763V764Q1236 764 1236.5 763.5Q1237 763 1238 763Q1239 763 1239.5 763.5Q1240 764 1241 764V763Q1258 760 1274.5 759.0Q1291 758 1308 758Q1325 758 1342.0 759.0Q1359 760 1375 763V764Q1376 764 1376.5 763.5Q1377 763 1378 763Q1379 763 1379.5 763.5Q1380 764 1381 764V763Q1398 761 1415.0 759.5Q1432 758 1449 758Q1485 758 1521 764Q1513 734 1506.0 707.5Q1499 681 1493 657Q1525 656 1553.5 656.0Q1582 656 1608 656Q1595 724 1578.0 781.5Q1561 839 1542 906Q1593 894 1657 894Q1721 894 1778 906Q1764 856 1749.5 806.5Q1735 757 1722.0 699.0Q1709 641 1698.0 567.5Q1687 494 1681.0 397.0Q1675 300 1675 170ZM1401 657Q1396 680 1390.5 704.0Q1385 728 1378 753Q1371 727 1365.0 703.5Q1359 680 1354 658Q1366 658 1377.5 657.5Q1389 657 1401 657ZM1260 660Q1256 683 1250.5 705.5Q1245 728 1238 753L1214 662ZM1119 665Q1115 686 1109.5 708.0Q1104 730 1098 753Q1091 729 1086.0 708.0Q1081 687 1076 667Q1087 666 1098.0 665.5Q1109 665 1119 665ZM1643 286Q1641 399 1633.0 480.5Q1625 562 1614 626L1486 624Q1476 573 1471.0 524.0Q1466 475 1464.5 418.5Q1463 362 1463 287Q1513 286 1558.0 286.0Q1603 286 1643 286ZM1433 287Q1432 396 1427.0 473.5Q1422 551 1408 623L1346 621Q1336 571 1331.0 523.0Q1326 475 1324.5 419.5Q1323 364 1323 290ZM1293 291Q1292 397 1287.0 473.0Q1282 549 1269 619Q1253 619 1237.0 618.5Q1221 618 1205 617Q1196 568 1191.0 521.0Q1186 474 1184.5 420.0Q1183 366 1183 295Q1210 294 1237.5 293.0Q1265 292 1293 291ZM1153 297Q1152 399 1147.0 473.0Q1142 547 1130 615L1064 612Q1055 565 1050.5 520.0Q1046 475 1044.5 423.0Q1043 371 1043 304Q1069 302 1097.0 300.5Q1125 299 1153 297ZM100 123Q106 159 106 196Q106 233 100 269Q168 250 209.0 238.5Q250 227 285 221Q340 274 379.5 315.0Q419 356 450.5 394.5Q482 433 512.0 478.5Q542 524 579 586Q623 526 681 482Q630 454 587.0 427.0Q544 400 503.5 370.0Q463 340 419.5 302.5Q376 265 324 216Q359 212 405.5 211.5Q452 211 527 211V181Q456 181 407.5 179.5Q359 178 323.0 174.0Q287 170 255.0 163.5Q223 157 186.5 147.0Q150 137 100 123ZM704 -289 682 -269Q690 -258 698.5 -249.0Q707 -240 715 -231Q660 -169 617.5 -125.5Q575 -82 537.0 -48.0Q499 -14 457.5 16.0Q416 46 364 81Q427 121 474 177Q500 123 521.0 83.0Q542 43 562.5 10.5Q583 -22 606.5 -54.0Q630 -86 661.0 -122.5Q692 -159 734 -208Q775 -160 806.0 -122.0Q837 -84 863 -46Q820 -2 790.5 26.0Q761 54 734.0 75.5Q707 97 674.0 120.0Q641 143 592 176Q655 216 702 272Q726 222 742.0 189.0Q758 156 771.5 132.0Q785 108 799.5 87.5Q814 67 833.5 42.5Q853 18 882 -17Q905 18 926.5 59.0Q948 100 973 152Q1020 96 1083 56Q1029 20 984.5 -13.5Q940 -47 898.0 -85.5Q856 -124 809.5 -173.0Q763 -222 704 -289Z" />
  </g>
</svg>