<svg xmlns="http://www.w3.org/2000/svg" viewBox="100 -157 937 906">
  <g transform="translate(0, 592) scale(1, -1)">
    <path fill="black" d="M200 -157Q206 -127 209.5 -98.5Q213 -70 213 -44Q213 -18 209.5 8.0Q206 34 200 59Q258 43 324.5 28.5Q391 14 463 3Q460 92 452.0 157.0Q444 222 431.5 271.0Q419 320 403.5 363.0Q388 406 370 452Q400 445 428.5 442.0Q457 439 483 439Q537 439 586 452Q568 406 552.0 363.0Q536 320 523.5 270.0Q511 220 503.0 154.5Q495 89 492 -1Q594 -17 702.0 -26.0Q810 -35 914 -36Q912 41 905.5 128.5Q899 216 889.5 305.0Q880 394 868.5 476.5Q857 559 845 626Q770 624 686.0 617.5Q602 611 517.5 601.5Q433 592 354.5 581.0Q276 570 210.5 557.5Q145 545 100 533Q106 563 109.5 591.5Q113 620 113 646Q113 672 109.5 698.0Q106 724 100 749Q166 731 254.5 715.0Q343 699 443.5 686.5Q544 674 645.5 666.0Q747 658 839 655Q830 702 821 736Q851 729 879.5 726.0Q908 723 934 723Q988 723 1037 736Q1021 677 1006.5 596.5Q992 516 980.0 424.5Q968 333 959.5 238.0Q951 143 946.5 53.0Q942 -37 942 -112H916Q916 -100 915.5 -87.5Q915 -75 915 -62Q822 -62 722.0 -70.5Q622 -79 525.5 -93.0Q429 -107 345.5 -123.5Q262 -140 200 -157Z" />
  </g>
</svg>