<svg xmlns="http://www.w3.org/2000/svg" viewBox="100 -157 937 906">
  <g transform="translate(0, 592) scale(1, -1)">
    <path fill="black" d="M200 -157Q206 -127 209.5 -98.5Q213 -70 213 -44Q213 -18 209.5 8.0Q206 34 200 59Q258 43 324.5 28.5Q391 14 463 3Q460 92 452.0 157.0Q444 222 431.5 271.0Q419 320 403.5 363.0Q388 406 370 452Q429 439 483 439Q530 439 573 449Q574 466 573.0 483.5Q572 501 569 516Q581 511 626.0 502.5Q671 494 735.5 486.0Q800 478 869 474Q864 515 857.5 553.5Q851 592 845 626Q760 623 665.0 615.5Q570 608 477 597Q362 584 262.0 567.0Q162 550 100 533Q106 563 109.5 591.5Q113 620 113 646Q113 672 109.5 698.0Q106 724 100 749Q171 729 269.5 713.0Q368 697 477 683Q569 672 662.0 665.0Q755 658 839 655Q830 702 821 736Q851 729 879.5 726.0Q908 723 934 723Q988 723 1037 736Q1021 677 1006.5 596.5Q992 516 980.0 424.5Q968 333 959.5 238.0Q951 143 946.5 53.0Q942 -37 942 -112H916Q916 -100 915.5 -87.5Q915 -75 915 -62Q830 -62 739.0 -69.5Q648 -77 559 -88Q454 -101 360.5 -120.0Q267 -139 200 -157ZM882 375Q880 395 877.5 415.0Q875 435 872 454Q814 451 753.0 443.5Q692 436 644.0 428.0Q596 420 576 415Q596 410 643.0 401.5Q690 393 753.0 385.5Q816 378 882 375ZM914 -36Q913 10 910.5 60.0Q908 110 903 162Q855 160 801.0 154.5Q747 149 698.0 142.0Q649 135 614.0 129.0Q579 123 569 119Q571 130 572.0 145.0Q573 160 573 176Q573 199 570 217H569L570 219L569 222L570 221Q573 242 573 270Q573 294 570 315H569L570 317L569 320L570 319Q573 340 573 367Q573 391 570 412Q555 373 542.0 333.0Q529 293 518.5 246.5Q508 200 501.0 139.5Q494 79 492 -1Q594 -17 702.0 -26.0Q810 -35 914 -36ZM893 277 884 357Q840 354 792.5 349.0Q745 344 701.5 338.5Q658 333 624.5 327.0Q591 321 576 317Q597 311 646.0 303.0Q695 295 760.5 287.5Q826 280 893 277ZM902 179 895 259Q850 257 801.0 252.0Q752 247 706.5 241.0Q661 235 626.5 229.0Q592 223 576 219Q597 213 648.0 204.5Q699 196 766.0 188.5Q833 181 902 179Z" />
  </g>
</svg>