<svg xmlns="http://www.w3.org/2000/svg" viewBox="100 -306 2150 1130">
  <g transform="translate(0, 518) scale(1, -1)">
    <path fill="black" d="M966 323Q957 358 942 392Q902 418 847.0 451.5Q792 485 728.0 520.0Q664 555 596.0 586.5Q528 618 463 639Q488 666 508.5 696.5Q529 727 544 761Q576 723 621.5 681.5Q667 640 718.0 598.5Q769 557 819.0 519.0Q869 481 911 451L908 457Q934 461 963.5 467.0Q993 473 1025 481Q995 538 972.0 573.5Q949 609 929.5 631.0Q910 653 892.0 670.0Q874 687 855 706Q890 714 919.5 727.0Q949 740 981 764Q980 764 980 765Q1016 773 1045.5 786.5Q1075 800 1107 824Q1109 798 1111.0 770.5Q1113 743 1119.0 709.5Q1125 676 1138.5 632.0Q1152 588 1178 528Q1265 557 1355.5 592.5Q1446 628 1529 664Q1547 702 1559 744Q1618 695 1695.0 647.0Q1772 599 1858.5 553.5Q1945 508 2033.0 466.5Q2121 425 2201 389L2189 362Q2108 398 2015.0 437.5Q1922 477 1827.5 513.0Q1733 549 1648.5 575.0Q1564 601 1500 610L1506 620Q1410 577 1311.5 529.5Q1213 482 1124.0 430.5Q1035 379 966 323ZM1046 487Q1073 495 1101.5 503.0Q1130 511 1159 521Q1128 584 1103.5 623.0Q1079 662 1058.5 685.5Q1038 709 1020.0 726.0Q1002 743 982 763Q985 730 988.0 694.0Q991 658 1003.5 609.0Q1016 560 1046 487ZM1049 -306Q1018 -280 989.0 -265.5Q960 -251 924 -243Q944 -224 962.5 -208.0Q981 -192 1001.5 -170.5Q1022 -149 1046.5 -114.0Q1071 -79 1103 -22Q1068 -44 1036.0 -66.5Q1004 -89 975 -113H974Q925 -80 855.5 -34.5Q786 11 704.0 63.5Q622 116 536.5 168.0Q451 220 369.5 266.5Q288 313 218.5 347.5Q149 382 100 398Q125 425 145.5 455.5Q166 486 181 520Q208 489 261.0 443.5Q314 398 383.5 344.0Q453 290 531.5 232.5Q610 175 688.5 120.0Q767 65 837.5 16.5Q908 -32 961 -68Q943 -20 916 22Q973 30 1044.0 49.5Q1115 69 1194.0 95.5Q1273 122 1354.5 153.5Q1436 185 1512 218Q1536 261 1548 309Q1595 270 1660.5 229.0Q1726 188 1801.5 147.0Q1877 106 1956.0 67.5Q2035 29 2110.5 -6.0Q2186 -41 2250 -70L2237 -99Q2173 -70 2094.5 -36.5Q2016 -3 1932.5 31.0Q1849 65 1767.5 94.5Q1686 124 1615.0 145.0Q1544 166 1492 175Q1445 154 1397.0 132.0Q1349 110 1302 87Q1270 23 1253.0 -23.5Q1236 -70 1228.0 -105.0Q1220 -140 1217.0 -168.0Q1214 -196 1211 -223Q1180 -197 1151.0 -182.5Q1122 -168 1086 -160Q1106 -140 1125.0 -124.0Q1144 -108 1165.0 -85.5Q1186 -63 1212.0 -26.0Q1238 11 1271 71Q1237 54 1203.0 35.5Q1169 17 1137 -1Q1106 -64 1089.5 -109.5Q1073 -155 1065.5 -189.5Q1058 -224 1055.0 -251.5Q1052 -279 1049 -306Z" />
  </g>
</svg>