<svg xmlns="http://www.w3.org/2000/svg" viewBox="100 -112 807 948">
  <g transform="translate(0, 724) scale(1, -1)">
    <path fill="black" d="M786 -112Q786 -85 786.0 -57.0Q786 -29 785 -1Q615 -1 487.5 -13.5Q360 -26 265.5 -47.5Q171 -69 100 -96Q112 -45 112 9Q112 63 100 120Q123 111 147.0 103.5Q171 96 199 88Q198 137 195.0 197.0Q192 257 186.5 319.5Q181 382 173.5 440.0Q166 498 157.5 543.5Q149 589 139 613Q155 610 170.0 608.5Q185 607 201 606Q213 657 213 710Q213 763 201 820Q248 802 298.0 786.5Q348 771 408.0 758.5Q468 746 544.0 737.5Q620 729 719 726Q712 761 705.5 788.5Q699 816 691 836Q742 824 796 824Q850 824 907 836Q893 799 880.0 735.0Q867 671 856.0 588.5Q845 506 836.5 412.0Q828 318 822 219L837 207L821 187H820Q816 111 814.0 35.0Q812 -41 812 -112ZM740 595 725 697Q643 695 577.5 689.0Q512 683 458 674Q484 671 509 671Q542 671 579 677Q570 655 561 607Q604 603 649.0 600.0Q694 597 740 595ZM457 620Q454 636 450.5 649.0Q447 662 443 672Q412 667 385.0 660.5Q358 654 332 647Q352 640 384.0 633.5Q416 627 457 620ZM501 37Q501 55 501.0 73.0Q501 91 500 109Q442 102 396.0 92.0Q350 82 323 71Q329 106 329 142Q329 152 328.5 162.5Q328 173 327 183Q326 183 325.0 182.5Q324 182 323 182L325 196Q323 204 323 209L327 207Q328 218 328.5 228.5Q329 239 329 249Q329 260 328.5 271.0Q328 282 327 294Q326 294 325.0 293.5Q324 293 323 293L325 307Q323 315 323 320L327 318Q328 329 328.5 339.5Q329 350 329 360Q329 371 328.5 382.0Q328 393 327 405Q326 405 325.0 404.5Q324 404 323 404L325 418Q323 426 323 431L327 429Q328 440 328.5 450.5Q329 461 329 471Q329 482 328.5 492.5Q328 503 327 514Q326 514 325.0 513.5Q324 513 323 513Q324 517 324.5 520.5Q325 524 325 528Q325 531 324.5 534.5Q324 538 323 542L327 540Q328 551 328.5 561.5Q329 572 329 582Q329 597 328.0 613.0Q327 629 324 645Q293 636 264.0 626.5Q235 617 207 606Q224 606 241.0 607.5Q258 609 277 613Q269 592 260.5 547.5Q252 503 244.5 444.0Q237 385 231.0 320.5Q225 256 221.5 194.5Q218 133 217 83Q275 68 345.5 56.5Q416 45 501 37ZM754 486Q752 507 749.5 528.0Q747 549 744 569Q695 568 646.5 565.0Q598 562 553 557L545 500Q594 495 647.5 491.0Q701 487 754 486ZM475 508Q474 519 473.0 528.5Q472 538 470 547Q442 543 416.5 538.0Q391 533 370 528Q413 517 475 508ZM764 375Q763 397 761.0 418.0Q759 439 757 460Q719 459 681.5 457.5Q644 456 608 453Q617 438 630.5 419.0Q644 400 661 379Q687 378 713.0 376.5Q739 375 764 375ZM559 387Q571 401 582.0 417.5Q593 434 603 453L539 447L534 390ZM486 396 483 440Q449 435 419.5 429.5Q390 424 366 418Q389 412 420.0 406.5Q451 401 486 396ZM769 264H773L766 349Q747 349 727.5 348.5Q708 348 688 347Q705 327 725.5 306.0Q746 285 769 264ZM707 265Q666 290 628.0 308.0Q590 326 556 338L530 335L526 280Q568 275 614.0 271.0Q660 267 707 265ZM494 284 491 330Q455 325 423.5 319.5Q392 314 366 307Q418 294 494 284ZM779 153Q778 170 777.5 187.0Q777 204 775 220L750 238Q691 237 633.5 233.0Q576 229 524 223L521 169Q580 162 646.5 157.5Q713 153 779 153ZM499 172Q498 184 497.5 196.0Q497 208 497 220Q459 215 425.5 209.0Q392 203 366 196Q392 190 425.5 183.5Q459 177 499 172ZM784 25Q783 50 782.5 76.0Q782 102 780 127Q712 127 645.5 123.0Q579 119 520 111Q519 92 519.0 73.5Q519 55 519 35Q578 31 643.5 28.0Q709 25 784 25Z" />
  </g>
</svg>