<svg xmlns="http://www.w3.org/2000/svg" viewBox="100 -138 629 877">
  <g transform="translate(0, 601) scale(1, -1)">
    <path fill="black" d="M230 -138Q203 -86 172.5 -48.0Q142 -10 100 21Q188 59 266.0 99.0Q344 139 421.0 187.5Q498 236 581 301Q498 367 421.0 415.0Q344 463 266.0 502.5Q188 542 100 580Q142 612 172.5 649.5Q203 687 230 739Q298 643 383.5 541.5Q469 440 585 339Q572 467 552.5 565.5Q533 664 513 736Q564 724 618 724Q672 724 729 736Q706 653 684.0 533.5Q662 414 648.0 254.0Q634 94 634 -112H608Q608 -4 604.0 91.0Q600 186 592 269Q474 166 386.5 62.5Q299 -41 230 -138Z" />
  </g>
</svg>