<svg xmlns="http://www.w3.org/2000/svg" viewBox="100 -112 975 948">
  <g transform="translate(0, 724) scale(1, -1)">
    <path fill="black" d="M954 -112Q954 -92 954.0 -71.0Q954 -50 953 -29Q836 -10 717.0 3.5Q598 17 488.0 24.0Q378 31 288 31Q229 31 181.0 28.0Q133 25 100 18Q136 102 136 202Q136 209 136.0 216.5Q136 224 135 231Q175 208 241.0 182.0Q307 156 392 130L389 219Q328 213 285.0 207.0Q242 201 225 194Q231 229 231 262Q231 295 225 332Q238 327 280.0 321.0Q322 315 383 310Q380 357 374 398Q319 393 279.5 387.0Q240 381 225 375Q231 410 231 443Q231 476 225 513Q237 508 272.5 503.0Q308 498 359 493Q355 514 349.5 531.5Q344 549 339 564Q272 542 219.5 521.5Q167 501 135 483Q136 491 136.0 498.0Q136 505 136 512Q136 612 100 696Q160 685 267 685Q350 685 452.0 691.0Q554 697 665.5 708.0Q777 719 886 734Q879 766 872.5 791.5Q866 817 859 836Q910 824 964 824Q1018 824 1075 836Q1056 784 1039.0 683.5Q1022 583 1009 457H1045V431H1006Q999 357 994 276H1045V250Q1033 250 1019.5 250.0Q1006 250 992 249Q986 158 983.0 65.5Q980 -27 980 -112ZM925 459Q918 528 909.5 590.0Q901 652 891 704Q756 677 621.0 643.5Q486 610 374 575Q418 572 471 581Q464 565 457.5 541.0Q451 517 445 485L503 481Q497 512 490.0 537.0Q483 562 475 581Q510 575 543 575Q576 575 613 581Q606 564 599.0 537.0Q592 510 585 475L646 472Q639 507 632.0 534.0Q625 561 617 581Q652 575 685 575Q718 575 755 581Q748 563 740.5 534.5Q733 506 726 467L789 464Q776 539 759 581Q794 575 827 575Q860 575 897 581Q890 562 882.0 532.0Q874 502 867 461Q882 460 896.5 459.5Q911 459 925 459ZM940 278 928 429Q912 429 895.5 428.5Q879 428 862 427Q858 396 853.5 359.0Q849 322 846 281Q872 280 895.0 279.5Q918 279 940 278ZM810 282Q807 323 804.0 358.5Q801 394 796 425L719 421Q715 392 711.5 359.0Q708 326 705 288ZM668 290Q665 325 662.0 357.5Q659 390 655 418L575 413Q571 387 568.0 358.0Q565 329 562 296Q588 294 614.5 293.0Q641 292 668 290ZM526 298Q524 330 521.0 357.5Q518 385 515 410L431 403Q428 381 425.5 357.0Q423 333 421 306Q446 305 472.5 302.5Q499 300 526 298ZM953 -2Q952 59 949.0 122.5Q946 186 942 248Q919 248 894.5 247.0Q870 246 844 245Q840 195 838.5 138.0Q837 81 837 19Q893 7 953 -2ZM819 22Q819 147 813 244Q786 243 758.5 242.0Q731 241 702 239Q699 196 697.0 148.5Q695 101 695 49Q726 42 757.0 35.5Q788 29 819 22ZM677 53Q675 154 671 238Q643 237 614.5 235.0Q586 233 558 231Q557 197 555.0 160.5Q553 124 553 84Q583 76 614.0 68.5Q645 61 677 53ZM535 89Q534 127 533.0 162.5Q532 198 530 230L416 221Q415 198 414.0 173.5Q413 149 412 123Q441 114 472.0 105.5Q503 97 535 89Z" />
  </g>
</svg>