<svg xmlns="http://www.w3.org/2000/svg" viewBox="100 -65 1698 772">
  <g transform="translate(0, 642) scale(1, -1)">
    <path fill="black" d="M737 -65Q702 -14 658.5 30.5Q615 75 555 117Q561 119 567.0 122.0Q573 125 580 127Q543 160 503.5 194.0Q464 228 424 261Q366 186 320.0 118.0Q274 50 252 -1Q223 42 186.5 79.0Q150 116 100 151Q142 168 208.5 214.5Q275 261 350 321Q275 381 208.5 427.0Q142 473 100 491Q150 526 186.5 563.0Q223 600 252 643Q274 591 320.0 523.5Q366 456 424 380L580 514L555 525Q615 567 658.5 611.5Q702 656 737 707Q758 659 776.0 618.5Q794 578 815.5 539.0Q837 500 865.5 456.5Q894 413 935 358Q939 362 941 363Q940 382 937.0 399.5Q934 417 931 434Q946 430 964.0 425.5Q982 421 1001 417L1003 419L1006 416Q1038 409 1076.0 402.5Q1114 396 1157 389Q1150 429 1140.5 463.5Q1131 498 1120 532Q1156 526 1192 526Q1206 526 1221.0 527.0Q1236 528 1250 530V532Q1252 531 1258 531Q1263 531 1266 532L1265 530Q1279 528 1293.5 527.0Q1308 526 1323 526Q1337 526 1352.0 527.0Q1367 528 1381 530V532Q1383 531 1388 531Q1393 531 1396 532L1395 530Q1409 528 1423.5 527.0Q1438 526 1453 526Q1467 526 1482.0 527.0Q1497 528 1511 530V532Q1513 531 1519 531Q1524 531 1527 532L1526 530Q1540 528 1555.0 527.0Q1570 526 1584 526Q1621 526 1657 532Q1643 489 1632.0 445.0Q1621 401 1613 348Q1701 344 1798 342V314Q1748 313 1700.5 311.0Q1653 309 1609 306Q1604 260 1601.5 203.5Q1599 147 1599 76H1569Q1569 146 1566.5 201.5Q1564 257 1559 303L1477 296Q1473 251 1471.0 197.0Q1469 143 1469 76H1439Q1439 141 1437.0 194.0Q1435 247 1431 291L1345 281Q1341 238 1339.5 188.0Q1338 138 1338 76H1308Q1308 135 1306.0 184.0Q1304 233 1301 275L1214 261Q1208 183 1208 76H1178Q1178 128 1176.5 172.0Q1175 216 1173 254Q1102 241 1041.5 226.5Q981 212 931 198Q935 216 938.0 236.0Q941 256 942 277L936 283Q896 229 867.0 185.5Q838 142 816.5 102.5Q795 63 776.0 23.0Q757 -17 737 -65ZM1422 360Q1416 402 1407.5 438.0Q1399 474 1388 508Q1378 475 1369.5 440.5Q1361 406 1355 366ZM1554 351Q1547 395 1538.5 433.0Q1530 471 1519 507Q1508 472 1499.5 435.5Q1491 399 1484 355Q1501 354 1518.5 353.0Q1536 352 1554 351ZM1289 373Q1283 411 1275.5 443.5Q1268 476 1258 507Q1249 477 1241.0 446.0Q1233 415 1227 380Q1242 378 1257.5 376.5Q1273 375 1289 373ZM615 143Q677 172 742.0 212.5Q807 253 890 321Q806 390 741.5 430.5Q677 471 615 499Q580 456 543.0 410.5Q506 365 471 321Q506 276 543.0 231.5Q580 187 615 143Z" />
  </g>
</svg>