<svg xmlns="http://www.w3.org/2000/svg" viewBox="100 -112 1275 848">
  <g transform="translate(0, 624) scale(1, -1)">
    <path fill="black" d="M591 -112Q582 24 575.5 126.5Q569 229 562 308Q475 307 409.5 298.0Q344 289 292.0 275.0Q240 261 194.0 243.5Q148 226 100 207Q105 233 107.5 262.0Q110 291 110 322Q110 351 107.5 381.5Q105 412 100 442Q140 426 183.0 408.5Q226 391 279.0 376.5Q332 362 401.0 352.0Q470 342 560 340Q553 429 544.5 495.0Q536 561 524.5 618.0Q513 675 496 736Q547 724 600 724Q626 724 652.5 727.0Q679 730 706 735V736Q707 736 707.0 735.5Q707 735 708 735Q709 735 710.0 735.5Q711 736 712 736Q712 735 711.5 735.0Q711 735 711 734Q735 729 760.0 726.5Q785 724 810 724Q865 724 922 736Q904 677 891.5 620.5Q879 564 869.5 499.5Q860 435 853.0 351.5Q846 268 840.0 155.0Q834 42 827 -112H801Q791 41 783.5 153.0Q776 265 769.0 348.0Q762 431 754.0 494.5Q746 558 735.5 613.0Q725 668 709 726Q692 668 679.5 612.5Q667 557 658.0 492.5Q649 428 642.0 345.0Q635 262 629.0 150.5Q623 39 617 -112ZM880 207Q885 233 887.5 262.0Q890 291 890 322Q890 351 887.5 381.5Q885 412 880 442Q922 425 967.5 407.0Q1013 389 1070.0 374.0Q1127 359 1201.5 349.5Q1276 340 1375 340V309Q1280 309 1209.0 301.0Q1138 293 1082.0 278.5Q1026 264 978.0 245.5Q930 227 880 207Z" />
  </g>
</svg>