<svg xmlns="http://www.w3.org/2000/svg" viewBox="100 -349 1627 1361">
  <g transform="translate(0, 663) scale(1, -1)">
    <path fill="black" d="M571 -349Q545 -233 481 -152Q510 -147 543.5 -139.0Q577 -131 617 -121L609 119Q541 101 493.0 85.5Q445 70 431 61Q430 105 422.0 140.0Q414 175 401 209Q415 206 442 206Q471 206 513.5 209.0Q556 212 606 217L597 432Q547 437 506.0 439.5Q465 442 437 442Q425 442 416.0 441.5Q407 441 401 440Q414 474 422.0 509.5Q430 545 431 588Q445 579 488.0 565.0Q531 551 592 534Q587 637 582.5 706.0Q578 775 574 784Q607 777 637 778Q591 791 552.0 800.5Q513 810 481 815Q545 896 571 1012Q625 967 740.0 898.0Q855 829 1008 747Q1128 683 1265.5 614.0Q1403 545 1548 476Q1583 507 1617.5 541.0Q1652 575 1683 610L1711 595Q1663 509 1629.0 442.0Q1595 375 1563 322Q1586 283 1627.5 221.5Q1669 160 1727 84L1701 63Q1660 100 1622.0 130.5Q1584 161 1549 187Q1404 118 1266.5 49.0Q1129 -20 1008 -84Q854 -166 739.5 -235.0Q625 -304 571 -349ZM352 -288Q313 -251 268.5 -213.0Q224 -175 180.0 -142.5Q136 -110 100 -88Q132 -64 173.5 -30.5Q215 3 258.5 42.0Q302 81 339 120Q301 155 258.5 190.5Q216 226 175.0 256.5Q134 287 100 308Q132 332 173.5 365.5Q215 399 258.5 437.5Q302 476 338 515Q300 551 258.0 586.0Q216 621 175.0 651.5Q134 682 100 703Q134 729 178.5 765.0Q223 801 269.0 842.5Q315 884 352 925L374 913Q348 855 313.5 799.5Q279 744 254 703Q270 683 291.0 652.0Q312 621 334.0 586.0Q356 551 374 518Q348 460 313.5 404.5Q279 349 254 308Q270 288 291.0 257.0Q312 226 334.0 191.0Q356 156 374 122Q348 64 313.5 8.5Q279 -47 254 -88Q270 -108 291.0 -139.0Q312 -170 334.0 -205.0Q356 -240 374 -273ZM698 506Q693 603 688.0 669.0Q683 735 679 744Q706 738 730 738Q738 738 746.0 738.5Q754 739 761 740L678 766Q674 738 670.0 671.5Q666 605 662 516Q671 514 679.5 511.0Q688 508 698 506ZM804 480Q798 570 793.0 632.0Q788 694 784 704Q811 698 836 698Q856 698 877 701L783 733Q779 708 775.0 643.0Q771 578 766 489ZM910 455Q904 538 898.5 596.0Q893 654 889 664Q916 658 941 658Q952 658 964.0 659.5Q976 661 987 662Q962 672 937.5 680.5Q913 689 889 697Q885 678 880.0 615.0Q875 552 870 464ZM1016 430Q1010 507 1004.5 560.5Q999 614 994 624Q1007 620 1019.5 619.0Q1032 618 1045 618Q1057 618 1069.0 619.0Q1081 620 1094 622Q1069 632 1044.0 641.5Q1019 651 995 659Q991 642 985.5 582.0Q980 522 974 440ZM1122 406Q1116 475 1110.0 524.0Q1104 573 1099 584Q1112 580 1124.5 579.0Q1137 578 1150 578Q1162 578 1174.0 579.0Q1186 580 1199 582L1100 620Q1096 605 1090.0 549.0Q1084 493 1078 416ZM1229 383Q1222 444 1215.5 488.0Q1209 532 1204 544Q1231 538 1256 538Q1267 538 1279.0 539.5Q1291 541 1302 542L1205 580Q1200 565 1194.0 514.0Q1188 463 1181 393Q1194 391 1206.0 388.0Q1218 385 1229 383ZM1337 360Q1330 414 1322.0 452.5Q1314 491 1309 504Q1335 498 1359 498Q1370 498 1381.5 499.5Q1393 501 1404 502Q1380 512 1356.0 521.0Q1332 530 1309 539Q1304 523 1297.0 477.5Q1290 432 1284 371Q1298 368 1311.5 365.5Q1325 363 1337 360ZM1394 349Q1420 369 1452.5 396.0Q1485 423 1522 454L1413 498Q1400 459 1386 350ZM649 222Q664 224 679.5 225.5Q695 227 711 229Q710 278 707.0 326.5Q704 375 702 421Q691 422 680.0 423.5Q669 425 658 426ZM754 234 817 241 808 408 762 414Q760 371 758.0 325.5Q756 280 754 234ZM858 247Q874 249 890.0 251.0Q906 253 922 255L913 395L866 401Q865 364 862.5 325.0Q860 286 858 247ZM963 260 1027 269Q1026 298 1023.5 325.5Q1021 353 1019 380L971 387Q969 356 967.0 324.0Q965 292 963 260ZM1068 275 1133 284 1126 365 1074 373ZM1172 290 1238 299Q1237 313 1235.5 325.0Q1234 337 1233 350Q1220 352 1206.0 354.0Q1192 356 1178 358ZM1277 305 1343 315 1341 334Q1328 336 1312.5 338.5Q1297 341 1281 343ZM1370 147Q1407 162 1444.5 177.5Q1482 193 1520 208Q1484 234 1452.0 256.5Q1420 279 1392 299L1380 297Q1376 263 1373.5 225.0Q1371 187 1370 147ZM1265 106 1355 141Q1354 180 1351.5 218.0Q1349 256 1346 290Q1330 287 1312.5 283.5Q1295 280 1275 275Q1271 233 1269.0 190.0Q1267 147 1265 106ZM1161 65 1249 100Q1248 141 1246.0 183.5Q1244 226 1240 268L1170 253Q1166 204 1164.0 156.0Q1162 108 1161 65ZM1056 26Q1078 34 1100.0 42.0Q1122 50 1144 59Q1143 101 1141.0 148.5Q1139 196 1135 245Q1118 241 1100.5 237.5Q1083 234 1065 229Q1062 174 1060.0 122.5Q1058 71 1056 26ZM952 -12 1039 19Q1038 63 1035.5 114.5Q1033 166 1030 221Q1013 217 995.5 213.5Q978 210 960 205Q957 146 955.5 90.5Q954 35 952 -12ZM847 -49 933 -18Q932 29 930.0 83.5Q928 138 925 197L855 181ZM742 -83Q763 -77 784.5 -69.5Q806 -62 828 -55L820 172Q802 168 784.5 164.0Q767 160 750 155ZM638 -115 722 -90Q721 -38 719.0 22.0Q717 82 714 147L646 129Z" />
  </g>
</svg>