<svg xmlns="http://www.w3.org/2000/svg" viewBox="100 -349 1627 1361">
  <g transform="translate(0, 663) scale(1, -1)">
    <path fill="black" d="M571 -349Q545 -233 481 -152Q510 -147 543.5 -139.0Q577 -131 617 -121Q615 -36 611.5 67.5Q608 171 603 277Q531 270 480.5 262.5Q430 255 412 247Q415 269 417.0 288.5Q419 308 419 327Q419 346 417.0 363.0Q415 380 412 398Q433 390 482.0 382.5Q531 375 599 368Q596 449 592.5 521.5Q589 594 586.0 651.0Q583 708 580.0 743.0Q577 778 574 784Q607 777 637 778Q591 791 552.0 800.5Q513 810 481 815Q545 896 571 1012Q609 980 679.0 935.5Q749 891 843.5 837.5Q938 784 1051.0 724.0Q1164 664 1290.0 601.5Q1416 539 1548 476Q1583 507 1617.5 541.0Q1652 575 1683 610L1711 595Q1663 509 1629.0 442.0Q1595 375 1563 322Q1586 283 1627.5 221.5Q1669 160 1727 84L1701 63Q1660 100 1622.0 130.5Q1584 161 1549 187Q1417 124 1291.0 61.5Q1165 -1 1051.5 -61.0Q938 -121 843.5 -174.5Q749 -228 679.0 -272.5Q609 -317 571 -349ZM705 359Q702 433 698.5 499.5Q695 566 691.5 619.0Q688 672 685.0 705.0Q682 738 679 744Q706 738 730 738Q738 738 746.0 738.5Q754 739 761 740L678 766Q675 740 671.0 680.0Q667 620 663.0 538.5Q659 457 655 363Q667 362 679.5 361.0Q692 360 705 359ZM811 352Q806 442 801.0 519.0Q796 596 792.0 646.0Q788 696 784 704Q811 698 836 698Q856 698 877 701L783 733Q780 711 775.5 655.0Q771 599 767.0 521.5Q763 444 759 355ZM916 346Q912 427 907.0 496.0Q902 565 897.5 610.5Q893 656 889 664Q916 658 941 658Q952 658 964.0 659.5Q976 661 987 662Q962 672 937.5 680.5Q913 689 889 697Q886 681 881.5 630.0Q877 579 872.5 506.0Q868 433 864 349ZM352 -40Q313 -3 268.5 35.0Q224 73 180.0 105.5Q136 138 100 160Q139 189 193.0 233.0Q247 277 297 325Q247 369 194.5 409.5Q142 450 100 475Q134 501 178.5 537.0Q223 573 269.0 614.5Q315 656 352 697L374 685Q348 627 313.5 571.5Q279 516 254 475Q270 455 290.5 424.5Q311 394 332 361L352 382L374 370L353 327L374 290L352 275L334 292Q313 255 292.0 221.0Q271 187 254 160Q270 140 291.0 109.0Q312 78 334.0 43.0Q356 8 374 -25ZM1022 342Q1018 413 1012.5 473.5Q1007 534 1002.5 574.5Q998 615 994 624Q1007 620 1019.5 619.0Q1032 618 1045 618Q1057 618 1069.0 619.0Q1081 620 1094 622Q1069 632 1044.0 641.5Q1019 651 995 659Q991 644 986.5 598.0Q982 552 977.5 486.0Q973 420 968 344Q982 343 995.5 342.5Q1009 342 1022 342ZM1128 338Q1123 400 1117.5 452.5Q1112 505 1107.5 540.0Q1103 575 1099 584Q1112 580 1124.5 579.0Q1137 578 1150 578Q1162 578 1174.0 579.0Q1186 580 1199 582L1100 620Q1096 608 1091.5 567.0Q1087 526 1082.0 467.0Q1077 408 1072 340ZM1234 335Q1227 413 1218.5 471.5Q1210 530 1204 544Q1231 538 1256 538Q1267 538 1279.0 539.5Q1291 541 1302 542L1205 580Q1201 568 1196.0 532.5Q1191 497 1186.0 446.5Q1181 396 1176 337ZM1341 334Q1334 398 1324.5 443.5Q1315 489 1309 504Q1335 498 1359 498Q1370 498 1381.5 499.5Q1393 501 1404 502Q1380 512 1356.0 521.0Q1332 530 1309 539Q1303 520 1295.5 464.0Q1288 408 1280 335Q1296 334 1311.0 334.0Q1326 334 1341 334ZM1385 342Q1411 363 1446.5 391.5Q1482 420 1522 454L1413 498Q1407 479 1399.5 438.5Q1392 398 1385 342ZM1265 106 1355 141Q1354 186 1351.0 229.0Q1348 272 1344 311Q1328 311 1311.5 310.5Q1295 310 1278 309Q1274 260 1270.5 208.0Q1267 156 1265 106ZM1161 65 1249 100Q1248 150 1245.0 203.5Q1242 257 1237 309L1174 307Q1170 246 1166.5 183.0Q1163 120 1161 65ZM1370 147Q1407 162 1444.5 177.5Q1482 193 1520 208Q1481 237 1446.0 261.0Q1411 285 1381 307Q1377 270 1374.5 230.0Q1372 190 1370 147ZM1056 26Q1078 34 1100.0 42.0Q1122 50 1144 59Q1143 115 1139.5 178.5Q1136 242 1131 306Q1116 306 1100.5 305.5Q1085 305 1070 304Q1065 231 1061.5 158.5Q1058 86 1056 26ZM952 -12 1039 19Q1038 80 1034.0 154.0Q1030 228 1025 303L965 300Q961 218 957.5 136.0Q954 54 952 -12ZM847 -49 933 -18Q932 48 928.0 130.5Q924 213 919 298L861 295Q857 203 853.0 113.0Q849 23 847 -49ZM742 -83Q763 -77 784.5 -69.5Q806 -62 828 -55Q826 17 822.5 108.0Q819 199 814 292L756 288Q752 190 748.0 92.5Q744 -5 742 -83ZM638 -115 722 -90Q720 -12 717.0 86.5Q714 185 709 285Q694 284 680.0 283.0Q666 282 652 281Q648 176 644.0 73.5Q640 -29 638 -115Z" />
  </g>
</svg>