<svg xmlns="http://www.w3.org/2000/svg" viewBox="100 -133 1167 869">
  <g transform="translate(0, 603) scale(1, -1)">
    <path fill="black" d="M607 -133 602 -112Q593 24 585.5 127.0Q578 230 570 309Q481 308 414.0 299.5Q347 291 294.0 276.5Q241 262 194.5 244.5Q148 227 100 207Q105 233 107.5 262.0Q110 291 110 322Q110 351 107.5 381.5Q105 412 100 442Q140 425 184.0 407.5Q228 390 281.5 375.5Q335 361 405.0 351.5Q475 342 567 340Q558 429 548.0 495.0Q538 561 525.0 618.0Q512 675 495 736Q546 724 600 724Q654 724 711 736Q694 675 681.0 605.0Q668 535 658.0 443.0Q648 351 640.5 224.5Q633 98 628 -78Q673 -19 717.0 39.0Q761 97 802 155Q799 200 792.5 255.5Q786 311 778.0 367.0Q770 423 761.0 471.5Q752 520 744.0 553.0Q736 586 730 593Q750 589 770.5 587.0Q791 585 813 585Q835 585 857.5 587.0Q880 589 905 593Q898 585 888.5 545.0Q879 505 868.5 446.0Q858 387 849.5 322.5Q841 258 835 201Q903 297 959.0 384.5Q1015 472 1052 543H1049Q1032 622 1011.5 667.5Q991 713 973 735Q993 731 1013.5 729.0Q1034 727 1056 727Q1078 727 1100.5 729.0Q1123 731 1148 735Q1131 716 1111.5 674.5Q1092 633 1075 563Q1122 514 1168.5 474.5Q1215 435 1267 404Q1205 370 1125.5 314.5Q1046 259 957.5 188.0Q869 117 779.5 35.5Q690 -46 607 -133Z" />
  </g>
</svg>