<svg xmlns="http://www.w3.org/2000/svg" viewBox="100 -112 1262 848">
  <g transform="translate(0, 624) scale(1, -1)">
    <path fill="black" d="M845 -112Q845 -44 843.0 19.5Q841 83 838 141Q694 140 583.0 131.5Q472 123 385.5 109.0Q299 95 229.5 79.0Q160 63 100 46Q112 103 112 157Q112 211 100 262Q160 245 229.5 228.5Q299 212 385.0 198.5Q471 185 582.0 176.5Q693 168 836 167Q828 299 814.0 406.0Q800 513 783 598Q758 549 729.0 503.0Q700 457 679 422Q695 402 716.0 371.0Q737 340 759.0 305.0Q781 270 799 237L777 222Q725 272 662.5 322.5Q600 373 547 407Q397 399 291.5 374.0Q186 349 100 316Q112 373 112 427Q112 481 100 532Q186 499 292.0 473.5Q398 448 549 440Q582 466 621.5 498.5Q661 531 700.5 567.5Q740 604 773 640Q767 666 761.5 690.0Q756 714 750 736Q801 724 856 724Q879 724 902.0 726.0Q925 728 949 732Q948 733 948 736Q950 735 952.0 734.5Q954 734 956 734Q960 734 966 736Q965 734 965 732Q987 728 1009.5 726.0Q1032 724 1054 724Q1077 724 1100.0 726.0Q1123 728 1147 732Q1146 733 1146 736Q1148 735 1150.0 734.5Q1152 734 1154 734Q1158 734 1164 736Q1163 734 1163 732Q1185 728 1207.0 726.0Q1229 724 1251 724Q1305 724 1362 736Q1339 653 1317.0 533.5Q1295 414 1281.0 254.0Q1267 94 1267 -112H1241Q1241 176 1214.0 375.5Q1187 575 1155 702Q1123 575 1096.0 375.5Q1069 176 1069 -112H1043Q1043 176 1016.0 375.5Q989 575 957 702Q925 575 898.0 375.5Q871 176 871 -112Z" />
  </g>
</svg>