<svg xmlns="http://www.w3.org/2000/svg" viewBox="100 -158 1187 1006">
  <g transform="translate(0, 690) scale(1, -1)">
    <path fill="black" d="M1164 -158Q1164 -90 1160.0 11.5Q1156 113 1148 225Q1116 247 1080.0 270.5Q1044 294 1005 319Q938 263 869.5 203.0Q801 143 739.0 86.0Q677 29 628.5 -20.0Q580 -69 552 -104Q507 3 429 71Q323 64 241.5 48.5Q160 33 100 13Q106 49 106 92Q106 135 100 171Q172 147 274.0 130.0Q376 113 515 108L528 114V583L516 588Q377 584 274.5 567.0Q172 550 100 526Q106 562 106 605Q106 648 100 684Q160 664 241.5 649.0Q323 634 429 626Q507 694 552 801Q581 766 629.5 716.5Q678 667 739.5 610.0Q801 553 868.5 494.0Q936 435 1002 380Q1036 402 1068.0 422.5Q1100 443 1129 462Q1117 581 1102.5 684.0Q1088 787 1071 848Q1122 836 1176 836Q1230 836 1287 848Q1276 806 1264.5 732.5Q1253 659 1242.5 566.0Q1232 473 1223.0 371.0Q1214 269 1207.5 170.0Q1201 71 1197.5 -14.0Q1194 -99 1194 -158ZM558 128Q592 145 628.0 164.0Q664 183 702 203Q677 227 648.0 254.0Q619 281 597.0 301.0Q575 321 569 324Q585 334 597 349Q586 362 569 375Q575 378 597.5 397.5Q620 417 649.0 444.5Q678 472 703 495Q626 536 558 569ZM715 211Q721 213 723 215Q716 223 705 230Q710 232 728.0 246.5Q746 261 769.0 281.0Q792 301 813.5 320.0Q835 339 848 351Q835 363 813.5 381.5Q792 400 769.0 419.0Q746 438 728.0 451.5Q710 465 705 468L724 483L716 487Q698 464 676.5 436.5Q655 409 636.5 385.5Q618 362 609 349Q618 336 636.0 312.5Q654 289 675.5 262.0Q697 235 715 211ZM775 244Q820 270 865.5 297.0Q911 324 954 350Q911 376 866.0 402.5Q821 429 776 454Q797 428 820.5 398.0Q844 368 856 351Q844 334 820.0 303.0Q796 272 775 244ZM1145 266Q1143 305 1139.5 344.5Q1136 384 1132 422Q1110 406 1087.0 387.5Q1064 369 1041 349Q1068 327 1094.5 306.0Q1121 285 1145 266Z" />
  </g>
</svg>