<svg xmlns="http://www.w3.org/2000/svg" viewBox="100 -158 1346 1006">
  <g transform="translate(0, 690) scale(1, -1)">
    <path fill="black" d="M1164 -158Q1164 -95 1160.5 -4.5Q1157 86 1150 189Q1103 186 1067.0 182.0Q1031 178 1020 173Q1022 186 1023.5 197.5Q1025 209 1024 219Q1000 218 960.5 216.0Q921 214 879 211Q810 150 746.0 91.0Q682 32 631.5 -18.5Q581 -69 552 -104Q507 3 429 71Q323 64 241.5 48.5Q160 33 100 13Q106 49 106 92Q106 135 100 171Q172 147 274.0 130.0Q376 113 515 108L528 114V321L505 339L528 358V583L516 588Q377 584 274.5 567.0Q172 550 100 526Q106 562 106 605Q106 648 100 684Q160 664 241.5 649.0Q323 634 429 626Q507 694 552 801Q581 766 630.0 716.5Q679 667 740.5 610.0Q802 553 869 494L1024 482Q1026 509 1020 531Q1031 527 1058.5 523.0Q1086 519 1123 516Q1113 619 1099.5 706.0Q1086 793 1071 848Q1122 836 1176 836Q1230 836 1287 848Q1274 800 1261.0 709.0Q1248 618 1236 507Q1283 504 1326.5 501.5Q1370 499 1402.0 497.5Q1434 496 1446 495V482Q1434 482 1401.0 480.5Q1368 479 1324.0 477.5Q1280 476 1233 473L1227 414Q1275 411 1320.5 408.5Q1366 406 1400.0 404.0Q1434 402 1446 401V388Q1433 388 1399.0 386.5Q1365 385 1319.0 383.0Q1273 381 1224 378Q1223 365 1221.5 350.5Q1220 336 1219 322Q1269 319 1316.0 316.0Q1363 313 1398.0 311.5Q1433 310 1446 309V296Q1433 296 1397.0 294.5Q1361 293 1313.5 291.0Q1266 289 1216 286Q1215 273 1214.0 258.5Q1213 244 1212 230Q1263 227 1311.5 224.0Q1360 221 1396.5 219.0Q1433 217 1446 216V203Q1433 203 1395.5 201.5Q1358 200 1309.0 198.0Q1260 196 1209 193Q1202 89 1198.0 -3.5Q1194 -96 1194 -158ZM558 383Q587 407 621.0 437.5Q655 468 686 504Q653 522 620.5 538.0Q588 554 558 569ZM697 201 741 225Q741 248 737 265Q753 259 792 254Q809 263 825.5 272.5Q842 282 858 292Q817 289 783.0 284.5Q749 280 737 275Q739 286 740.0 295.5Q741 305 741 314Q741 323 740.0 331.5Q739 340 737 348Q750 343 777.5 338.5Q805 334 840.5 330.5Q876 327 912 324Q923 331 933.5 337.5Q944 344 954 350L906 379Q870 377 835.0 373.5Q800 370 773.5 366.5Q747 363 737 358Q739 369 740.0 378.5Q741 388 741 397Q741 406 740.0 414.5Q739 423 737 431Q750 426 780.5 421.5Q811 417 848 413L782 451Q766 449 754.5 446.0Q743 443 737 441Q739 450 739.5 458.5Q740 467 741 474L706 493Q678 443 657.5 407.0Q637 371 618 339Q635 309 654.0 277.0Q673 245 697 201ZM1024 399Q1024 421 1020 438Q1034 432 1076 427Q1090 436 1103.0 444.5Q1116 453 1129 462Q1129 463 1128.5 464.0Q1128 465 1128 466Q1088 463 1059.0 459.5Q1030 456 1020 451L1023 468Q1003 467 972.0 465.5Q941 464 906 462Q923 447 940.5 432.0Q958 417 975 403ZM1002 380 1009 384H998ZM1140 328 1137 373Q1115 372 1096.5 370.0Q1078 368 1062 366Q1057 362 1051.5 358.0Q1046 354 1041 349L1054 337Q1071 335 1093.0 332.5Q1115 330 1140 328ZM1004 318H1007Q1005 318 1005 319ZM1023 233Q1023 238 1022.0 243.0Q1021 248 1020 253Q1031 249 1061.5 244.5Q1092 240 1131 237Q1118 246 1103.5 255.5Q1089 265 1073 275Q1054 273 1040.0 270.0Q1026 267 1020 265Q1022 276 1023.0 285.0Q1024 294 1024 302Q1016 302 1005.5 301.5Q995 301 983 300L913 241ZM558 128Q584 141 612.0 155.5Q640 170 669 186Q634 218 607.5 245.0Q581 272 558 294ZM1145 266Q1145 270 1145.0 273.5Q1145 277 1144 281Q1140 281 1136.0 280.5Q1132 280 1127 280Q1132 276 1136.5 272.5Q1141 269 1145 266Z" />
  </g>
</svg>