<svg xmlns="http://www.w3.org/2000/svg" viewBox="100 -158 1187 1006">
  <g transform="translate(0, 690) scale(1, -1)">
    <path fill="black" d="M1164 -158Q1164 -90 1160.0 11.5Q1156 113 1148 225Q1116 247 1080.0 270.5Q1044 294 1005 319Q938 263 869.5 203.0Q801 143 739.0 86.0Q677 29 628.5 -20.0Q580 -69 552 -104Q507 3 429 71Q323 64 241.5 48.5Q160 33 100 13Q106 49 106 92Q106 135 100 171Q120 164 142.0 157.5Q164 151 189 146Q187 307 175.0 405.5Q163 504 152 541L100 526Q106 562 106 605Q106 648 100 684Q160 664 241.5 649.0Q323 634 429 626Q507 694 552 801Q581 766 629.5 716.5Q678 667 739.5 610.0Q801 553 868.5 494.0Q936 435 1002 380Q1036 402 1068.0 422.5Q1100 443 1129 462Q1117 581 1102.5 684.0Q1088 787 1071 848Q1122 836 1176 836Q1230 836 1287 848Q1276 806 1264.5 732.5Q1253 659 1242.5 566.0Q1232 473 1223.0 371.0Q1214 269 1207.5 170.0Q1201 71 1197.5 -14.0Q1194 -99 1194 -158ZM515 108 528 114V583L516 588Q426 585 352.0 576.5Q278 568 218 556Q221 555 224.0 554.5Q227 554 230 554L248 557Q246 553 246 552Q251 551 255.5 551.0Q260 551 264 551Q270 551 276.0 551.0Q282 551 288 552Q288 554 287.5 555.0Q287 556 287 557L300 554L318 557Q316 553 316 552Q321 551 325.5 551.0Q330 551 334 551Q340 551 346.0 551.0Q352 551 358 552Q358 554 357.5 555.0Q357 556 357 557L370 554L388 557Q386 553 386 552Q391 551 395.5 551.0Q400 551 404 551Q410 551 416.0 551.0Q422 551 428 552Q428 554 427.5 555.0Q427 556 427 557L440 554L458 557Q456 553 456 552Q461 551 466.0 551.0Q471 551 475 551Q499 551 527 557Q520 540 510.5 479.0Q501 418 493.5 323.5Q486 229 485 109Q493 109 500.5 109.0Q508 109 515 108ZM620 532H632L558 569V538Q591 532 620 532ZM193 551Q199 551 205.5 551.0Q212 551 218 552Q218 554 217.5 554.5Q217 555 217 556Q211 555 205.0 554.0Q199 553 193 551ZM558 128 609 154Q608 248 602.0 315.0Q596 382 585.5 434.5Q575 487 558 537ZM720 466Q728 466 736.5 466.0Q745 466 753 467Q735 478 717.0 487.0Q699 496 682 506Q679 497 676.5 487.5Q674 478 672 469Q696 466 720 466ZM260 132Q258 251 249.5 344.0Q241 437 232 492Q223 441 215.0 354.5Q207 268 205 143Q219 140 232.5 137.0Q246 134 260 132ZM330 122Q329 243 320.5 337.5Q312 432 302 489Q293 433 285.0 340.5Q277 248 275 130Q288 128 302.0 126.0Q316 124 330 122ZM470 110Q469 235 460.5 333.0Q452 431 442 489Q433 431 424.5 334.5Q416 238 415 114Q428 113 442.0 112.0Q456 111 470 110ZM400 115Q399 238 390.5 334.5Q382 431 372 489Q363 432 355.0 337.5Q347 243 345 121Q358 120 372.0 118.0Q386 116 400 115ZM821 413Q828 413 834.0 413.0Q840 413 847 414L780 452L768 417Q782 415 795.0 414.0Q808 413 821 413ZM640 170Q656 178 671.5 186.5Q687 195 703 204Q701 265 696.5 303.5Q692 342 684.0 372.0Q676 402 665 436Q655 384 648.5 321.0Q642 258 640 170ZM1145 266Q1143 305 1139.5 344.5Q1136 384 1132 422Q1110 406 1087.0 387.5Q1064 369 1041 349Q1068 327 1094.5 306.0Q1121 285 1145 266ZM737 223 803 260Q799 310 788.5 341.0Q778 372 764 400Q753 365 746.5 326.5Q740 288 737 223ZM841 282Q870 299 898.0 316.5Q926 334 954 350L876 397Q865 373 855.5 347.0Q846 321 841 282Z" />
  </g>
</svg>