<svg xmlns="http://www.w3.org/2000/svg" viewBox="100 -203 1637 1051">
  <g transform="translate(0, 645) scale(1, -1)">
    <path fill="black" d="M1614 -158Q1614 -40 1601.0 65.0Q1588 170 1566.5 255.0Q1545 340 1521 398Q1541 393 1561.5 390.5Q1582 388 1603 386Q1592 509 1571.0 627.5Q1550 746 1521 848Q1572 836 1626 836Q1680 836 1737 848Q1721 790 1705.5 715.5Q1690 641 1677.0 557.5Q1664 474 1655 387Q1675 388 1695.5 391.0Q1716 394 1737 398Q1717 340 1695.5 255.0Q1674 170 1659.0 65.0Q1644 -40 1644 -158ZM1074 -203Q1074 -165 1071 -128Q1031 -149 1001.5 -167.0Q972 -185 959 -197Q951 -156 938.5 -124.0Q926 -92 909 -63Q916 -63 924.5 -62.5Q933 -62 943 -61Q740 -61 580.5 -75.0Q421 -89 302.0 -111.0Q183 -133 100 -156Q112 -105 112 -51Q112 3 100 60Q184 37 303.0 15.0Q422 -7 582.5 -21.0Q743 -35 948 -35V-60Q971 -57 999.5 -51.0Q1028 -45 1061 -38Q1054 12 1044.5 51.5Q1035 91 1026 110Q1040 108 1055.0 107.0Q1070 106 1084 106Q1098 106 1111.5 107.0Q1125 108 1137 110Q1127 89 1118.0 52.5Q1109 16 1102 -28L1186 -6Q1179 33 1171.5 63.5Q1164 94 1156 110Q1170 108 1185.0 107.0Q1200 106 1214 106Q1228 106 1241.5 107.0Q1255 108 1267 110Q1251 77 1238 8Q1303 27 1367.0 46.5Q1431 66 1484 82Q1429 99 1363.5 118.5Q1298 138 1229.5 156.5Q1161 175 1098.5 189.5Q1036 204 986.5 213.0Q937 222 909 221Q934 265 950 319Q934 373 909 417Q932 416 972.0 423.0Q1012 430 1061 442Q1054 492 1044.5 531.5Q1035 571 1026 590Q1040 588 1055.0 587.0Q1070 586 1084 586Q1098 586 1111.5 587.0Q1125 588 1137 590Q1127 569 1118.0 532.5Q1109 496 1102 451L1186 474Q1179 513 1171.5 543.5Q1164 574 1156 590Q1170 588 1185.0 587.0Q1200 586 1214 586Q1228 586 1241.5 587.0Q1255 588 1267 590Q1251 557 1238 488Q1303 507 1367.0 526.5Q1431 546 1484 562Q1429 579 1363.5 598.5Q1298 618 1229.5 636.5Q1161 655 1098.5 669.5Q1036 684 986.5 693.0Q937 702 909 701Q926 730 938.5 762.5Q951 795 959 835Q976 819 1020.0 794.5Q1064 770 1125.5 740.5Q1187 711 1258.0 679.0Q1329 647 1401.5 617.0Q1474 587 1538 562Q1474 538 1391.5 503.0Q1309 468 1229 430Q1224 393 1221.5 354.0Q1219 315 1219 277H1204Q1204 310 1201.5 345.0Q1199 380 1195 414Q1167 401 1141.0 388.0Q1115 375 1092 362Q1089 320 1089 278Q1150 248 1225.5 213.5Q1301 179 1382.0 145.0Q1463 111 1538 82Q1474 58 1391.5 23.0Q1309 -12 1229 -50Q1224 -87 1221.5 -126.0Q1219 -165 1219 -203H1204Q1204 -169 1201.5 -134.5Q1199 -100 1195 -66Q1167 -79 1141.0 -92.0Q1115 -105 1092 -117Q1089 -160 1089 -203ZM100 574Q112 625 112 679Q112 733 100 790Q184 767 303.0 745.0Q422 723 582.5 709.0Q743 695 948 695V669Q743 669 583.0 655.0Q423 641 303.5 619.0Q184 597 100 574ZM100 334Q112 385 112 439Q112 493 100 550Q184 527 303.0 505.0Q422 483 582.5 469.0Q743 455 948 455V429Q743 429 583.0 415.0Q423 401 303.5 379.0Q184 357 100 334ZM1074 286Q1074 319 1071 352L1013 319Q1026 312 1041.5 303.5Q1057 295 1074 286ZM100 84Q112 135 112 189Q112 243 100 300Q184 277 303.0 255.0Q422 233 582.5 219.0Q743 205 948 205V179Q743 179 583.0 165.0Q423 151 303.5 129.0Q184 107 100 84Z" />
  </g>
</svg>