<svg xmlns="http://www.w3.org/2000/svg" viewBox="100 -153 1651 951">
  <g transform="translate(0, 645) scale(1, -1)">
    <path fill="black" d="M1329 -153Q1304 -116 1278.0 -90.0Q1252 -64 1219 -42Q1231 -37 1247.5 -28.0Q1264 -19 1283 -8Q1242 31 1196.0 72.0Q1150 113 1103 156Q1091 147 1082.0 138.5Q1073 130 1067 124Q1059 153 1049.0 173.5Q1039 194 1022 215L1036 216L1035 217L902 207Q848 147 804.0 96.0Q760 45 732.0 8.0Q704 -29 696 -47Q670 -11 644.0 14.5Q618 40 586 60Q482 56 396 45Q393 -31 393 -121H373Q373 -77 372.0 -36.5Q371 4 369 42Q335 38 304.5 33.0Q274 28 245 23Q244 -11 243.5 -47.0Q243 -83 243 -121H223Q223 -46 220 18Q151 5 100 -9Q109 30 109 71Q109 112 100 157Q124 150 153.0 143.0Q182 136 214 130Q204 265 186.5 364.0Q169 463 150 531Q186 523 220 522Q229 560 229 601Q229 642 220 687Q275 667 378.0 644.5Q481 622 639 615Q669 643 696 682Q707 657 756.0 596.5Q805 536 878 455Q918 452 958.0 449.5Q998 447 1032 445Q1055 477 1067 523Q1081 508 1111 485Q1158 527 1203.0 568.5Q1248 610 1289 648Q1268 662 1250.5 672.0Q1233 682 1219 687Q1252 709 1278.0 735.0Q1304 761 1329 798Q1338 779 1364.5 744.5Q1391 710 1429.0 666.5Q1467 623 1511.0 575.5Q1555 528 1599.5 480.5Q1644 433 1683.5 391.5Q1723 350 1751 319L1750 318H1751Q1723 287 1683.5 246.0Q1644 205 1599.5 158.5Q1555 112 1511.0 65.5Q1467 19 1429.0 -23.5Q1391 -66 1364.5 -99.5Q1338 -133 1329 -153ZM1617 237 1717 318Q1677 351 1625.5 393.0Q1574 435 1518.0 479.5Q1462 524 1407.5 564.5Q1353 605 1308 635Q1268 595 1226.5 551.5Q1185 508 1142 463Q1182 437 1227.5 409.0Q1273 381 1310 358H1320Q1332 358 1343.0 359.5Q1354 361 1367 363V364Q1368 364 1368.0 363.5Q1368 363 1369 363Q1370 363 1371.0 363.5Q1372 364 1373 364Q1373 363 1372.5 363.0Q1372 363 1372 362Q1383 360 1392.5 359.0Q1402 358 1411 358Q1424 358 1436.5 359.5Q1449 361 1462 363V364Q1463 364 1463.0 363.5Q1463 363 1464 363Q1465 363 1466.0 363.5Q1467 364 1468 364Q1468 363 1467.5 363.0Q1467 363 1467 362Q1478 360 1487.5 359.0Q1497 358 1506 358Q1519 358 1531.5 359.5Q1544 361 1557 363V364Q1558 364 1558.0 363.5Q1558 363 1559 363Q1560 363 1561.0 363.5Q1562 364 1563 364Q1563 363 1562.5 363.0Q1562 363 1562 362Q1573 360 1582.5 359.0Q1592 358 1602 358Q1628 358 1658 364Q1652 355 1643.5 341.5Q1635 328 1628.0 304.0Q1621 280 1617 237ZM625 86Q653 103 689.5 131.0Q726 159 769 193Q746 189 728.5 185.5Q711 182 700 178Q702 189 703.0 200.0Q704 211 704 222Q704 233 703.0 245.0Q702 257 700 270Q715 263 752.5 258.0Q790 253 837 249L919 317L810 408Q773 404 744.0 399.0Q715 394 700 388Q702 399 703.0 410.0Q704 421 704 432Q704 443 703.0 455.0Q702 467 700 480Q705 478 713.0 476.0Q721 474 731 472Q681 511 642.5 537.5Q604 564 583 573Q590 578 596.5 582.0Q603 586 609 591Q465 583 370.0 562.0Q275 541 222 522Q262 521 301 528Q300 529 300 531L308 529L316 531Q315 530 315 528Q351 522 385 522Q427 522 466 531Q447 460 428.0 353.5Q409 247 400 101Q499 91 625 86ZM366 105Q358 236 342.0 333.5Q326 431 308 501Q291 434 275.5 340.0Q260 246 251 123Q277 119 306.0 114.0Q335 109 366 105ZM966 358 1046 428 911 418ZM1091 228Q1138 242 1192.5 262.5Q1247 283 1291 303Q1288 317 1284.5 328.0Q1281 339 1278 347Q1241 364 1198.5 380.5Q1156 397 1116 410Q1111 390 1106.0 359.0Q1101 328 1097.0 293.5Q1093 259 1091 228ZM1078 238Q1074 272 1069.5 308.5Q1065 345 1059 376L1004 317ZM1521 162 1598 222Q1596 267 1589.0 293.0Q1582 319 1574.5 334.0Q1567 349 1560 358Q1554 344 1545.5 324.0Q1537 304 1530.5 266.5Q1524 229 1521 162ZM1330 23Q1349 35 1368.5 49.0Q1388 63 1409 78Q1407 165 1400.0 220.0Q1393 275 1385.0 307.5Q1377 340 1370 357Q1363 338 1354.0 300.5Q1345 263 1338.0 196.5Q1331 130 1330 23ZM1426 91Q1446 105 1465.5 119.5Q1485 134 1504 149Q1502 220 1495.0 260.0Q1488 300 1480.0 321.0Q1472 342 1465 357Q1459 340 1451.0 309.0Q1443 278 1436.0 225.5Q1429 173 1426 91ZM1303 5Q1306 7 1309.0 9.0Q1312 11 1315 13Q1314 109 1309.0 173.5Q1304 238 1296 278Q1259 256 1215.5 230.0Q1172 204 1135 178Q1179 133 1221.0 89.5Q1263 46 1303 5ZM1013 236 966 276 934 241Z" />
  </g>
</svg>