<svg xmlns="http://www.w3.org/2000/svg" viewBox="100 -153 1651 951">
  <g transform="translate(0, 645) scale(1, -1)">
    <path fill="black" d="M1329 -153Q1304 -116 1278.0 -90.0Q1252 -64 1219 -42Q1231 -37 1247.5 -28.0Q1264 -19 1283 -8Q1232 39 1176.0 90.5Q1120 142 1061 194Q1064 188 1068 184L1058 177Q1030 200 1013.5 214.5Q997 229 984.5 239.5Q972 250 955 261Q970 238 983.0 212.0Q996 186 1017 157L1004 149Q973 175 953.0 192.5Q933 210 917 223Q859 159 812.0 104.5Q765 50 734.5 11.0Q704 -28 696 -47Q670 -11 644.0 14.5Q618 40 586 60Q482 56 396 45Q393 -31 393 -121H373Q373 -77 372.0 -36.5Q371 4 369 42Q335 38 304.5 33.0Q274 28 245 23Q244 -11 243.5 -47.0Q243 -83 243 -121H223Q223 -46 220 18Q151 5 100 -9Q109 30 109 71Q109 112 100 157Q124 150 153.0 143.0Q182 136 214 130Q204 265 186.5 364.0Q169 463 150 531Q186 523 220 522Q229 560 229 601Q229 642 220 687Q275 667 378.0 644.5Q481 622 639 615Q669 643 696 682Q705 661 743.0 613.0Q781 565 839.0 499.5Q897 434 966 358Q988 377 1009.5 396.0Q1031 415 1053 434Q1027 456 1011.5 469.5Q996 483 984.0 493.5Q972 504 955 514Q970 491 983.0 465.0Q996 439 1017 410L1004 402Q966 434 943.5 453.5Q921 473 904.0 487.0Q887 501 863 516Q880 530 897.5 543.5Q915 557 940.5 577.0Q966 597 1004 629L1017 622Q997 594 984.0 568.5Q971 543 957 520Q974 534 996.0 550.5Q1018 567 1058 601L1068 595Q1052 573 1042.0 553.0Q1032 533 1021 516Q1032 500 1041.0 481.5Q1050 463 1063 443L1087 464Q1068 481 1054.5 492.0Q1041 503 1022 516Q1035 527 1048.0 537.0Q1061 547 1080.0 562.0Q1099 577 1128 601L1138 595Q1122 573 1112.5 554.0Q1103 535 1092 518Q1110 533 1132.0 549.0Q1154 565 1196 601L1206 595Q1196 581 1189.0 568.0Q1182 555 1175 544L1289 648Q1268 662 1250.5 672.0Q1233 682 1219 687Q1252 709 1278.0 735.0Q1304 761 1329 798Q1338 779 1364.5 744.5Q1391 710 1429.0 666.5Q1467 623 1511.0 575.5Q1555 528 1599.5 480.5Q1644 433 1683.5 391.5Q1723 350 1751 319L1750 318H1751Q1723 287 1683.5 246.0Q1644 205 1599.5 158.5Q1555 112 1511.0 65.5Q1467 19 1429.0 -23.5Q1391 -66 1364.5 -99.5Q1338 -133 1329 -153ZM1617 237 1717 318Q1677 351 1625.5 393.0Q1574 435 1518.0 479.5Q1462 524 1407.5 564.5Q1353 605 1308 635L1296 622H1297Q1276 592 1263.0 565.5Q1250 539 1234 516Q1250 493 1263.0 466.0Q1276 439 1297 410L1284 402Q1240 439 1217.0 459.0Q1194 479 1172 495Q1180 482 1187.5 467.0Q1195 452 1206 437L1196 430Q1180 443 1169.0 453.0Q1158 463 1149 470Q1144 465 1139.0 460.0Q1134 455 1129 450Q1131 446 1133.5 443.0Q1136 440 1138 437L1128 430L1118 438L1004 317Q1006 316 1008.0 313.5Q1010 311 1012 309L1058 348L1068 342Q1057 326 1049.5 312.0Q1042 298 1034 285Q1036 284 1038.0 282.0Q1040 280 1041 278Q1055 290 1075.0 305.0Q1095 320 1128 348L1138 342Q1122 320 1112.5 301.0Q1103 282 1092 265Q1110 280 1132.0 296.0Q1154 312 1196 348L1206 342Q1196 327 1188.5 313.5Q1181 300 1174 288Q1193 302 1218.5 322.0Q1244 342 1284 376L1297 369L1291 360Q1299 359 1305.5 358.5Q1312 358 1319 358Q1331 358 1343.0 359.5Q1355 361 1367 363V364Q1368 364 1368.0 363.5Q1368 363 1369 363Q1370 363 1371.0 363.5Q1372 364 1373 364Q1373 363 1372.5 363.0Q1372 363 1372 362Q1383 360 1392.5 359.0Q1402 358 1411 358Q1424 358 1436.5 359.5Q1449 361 1462 363V364Q1463 364 1463.0 363.5Q1463 363 1464 363Q1465 363 1466.0 363.5Q1467 364 1468 364Q1468 363 1467.5 363.0Q1467 363 1467 362Q1478 360 1487.5 359.0Q1497 358 1506 358Q1519 358 1531.5 359.5Q1544 361 1557 363V364Q1558 364 1558.0 363.5Q1558 363 1559 363Q1560 363 1561.0 363.5Q1562 364 1563 364Q1563 363 1562.5 363.0Q1562 363 1562 362Q1573 360 1582.5 359.0Q1592 358 1602 358Q1628 358 1658 364Q1652 355 1643.5 341.5Q1635 328 1628.0 304.0Q1621 280 1617 237ZM625 86Q675 118 752.5 179.5Q830 241 919 317Q844 381 777.0 435.0Q710 489 659.5 525.5Q609 562 583 573Q590 578 596.5 582.0Q603 586 609 591Q465 583 370.0 562.0Q275 541 222 522H235Q268 522 301 528Q300 529 300 531L308 529L316 531Q315 530 315 528Q351 522 385 522Q427 522 466 531Q447 460 428.0 353.5Q409 247 400 101Q499 91 625 86ZM1109 484 1120 494Q1113 499 1106.0 504.5Q1099 510 1091 515ZM366 105Q358 236 342.0 333.5Q326 431 308 501Q291 434 275.5 340.0Q260 246 251 123Q277 119 306.0 114.0Q335 109 366 105ZM1521 162 1598 222Q1596 267 1589.0 293.0Q1582 319 1574.5 334.0Q1567 349 1560 358Q1554 344 1545.5 324.0Q1537 304 1530.5 266.5Q1524 229 1521 162ZM1426 91Q1446 105 1465.5 119.5Q1485 134 1504 149Q1502 220 1495.0 260.0Q1488 300 1480.0 321.0Q1472 342 1465 357Q1459 340 1451.0 309.0Q1443 278 1436.0 225.5Q1429 173 1426 91ZM1330 23Q1349 35 1368.5 49.0Q1388 63 1409 78Q1407 165 1400.0 220.0Q1393 275 1385.0 307.5Q1377 340 1370 357Q1363 338 1354.0 300.5Q1345 263 1338.0 196.5Q1331 130 1330 23ZM1303 5Q1306 7 1309.0 9.0Q1312 11 1315 13Q1314 111 1308.5 176.0Q1303 241 1295.0 281.0Q1287 321 1280 343Q1267 321 1256.5 301.0Q1246 281 1234 263Q1250 240 1263.0 213.0Q1276 186 1297 157L1284 149Q1238 187 1215.5 207.5Q1193 228 1170 244Q1178 231 1186.0 215.5Q1194 200 1206 184L1196 177Q1168 201 1151.0 215.5Q1134 230 1121.5 240.5Q1109 251 1091 262Q1102 245 1112.0 225.0Q1122 205 1138 184L1133 181Q1177 135 1220.0 90.5Q1263 46 1303 5ZM961 271Q963 272 967 276H966Q965 275 964.0 274.0Q963 273 961 271Z" />
  </g>
</svg>