<svg xmlns="http://www.w3.org/2000/svg" viewBox="100 -153 1651 951">
  <g transform="translate(0, 645) scale(1, -1)">
    <path fill="black" d="M1329 -153Q1304 -116 1278.0 -90.0Q1252 -64 1219 -42Q1231 -37 1247.5 -28.0Q1264 -19 1283 -8Q1239 33 1190.5 77.0Q1142 121 1092 166Q1073 135 1054.5 93.5Q1036 52 1013 -11L997 -5Q1005 25 1010.0 50.5Q1015 76 1019 98Q967 122 928.0 135.5Q889 149 857 156Q793 83 749.5 29.5Q706 -24 696 -47Q670 -11 644.0 14.5Q618 40 586 60Q482 56 396 45Q393 -31 393 -121H373Q373 -77 372.0 -36.5Q371 4 369 42Q335 38 304.5 33.0Q274 28 245 23Q244 -11 243.5 -47.0Q243 -83 243 -121H223Q223 -46 220 18Q151 5 100 -9Q109 30 109 71Q109 112 100 157Q124 150 153.0 143.0Q182 136 214 130Q204 265 186.5 364.0Q169 463 150 531Q186 523 220 522Q229 560 229 601Q229 642 220 687Q275 667 378.0 644.5Q481 622 639 615Q669 643 696 682Q706 659 750.0 605.0Q794 551 858 478Q884 484 912.5 493.5Q941 503 978 518L943 566Q977 569 1010.0 579.0Q1043 589 1080 606Q1081 564 1081.0 531.0Q1081 498 1083 461Q1138 509 1190.0 557.0Q1242 605 1289 648Q1268 662 1250.5 672.0Q1233 682 1219 687Q1252 709 1278.0 735.0Q1304 761 1329 798Q1338 779 1364.5 744.5Q1391 710 1429.0 666.5Q1467 623 1511.0 575.5Q1555 528 1599.5 480.5Q1644 433 1683.5 391.5Q1723 350 1751 319L1750 318H1751Q1723 287 1683.5 246.0Q1644 205 1599.5 158.5Q1555 112 1511.0 65.5Q1467 19 1429.0 -23.5Q1391 -66 1364.5 -99.5Q1338 -133 1329 -153ZM1303 5Q1306 7 1309.0 9.0Q1312 11 1315 13Q1314 131 1306.0 201.5Q1298 272 1288.5 309.5Q1279 347 1272 364Q1298 358 1319 358Q1331 358 1342.5 359.5Q1354 361 1367 363V364Q1368 364 1368.0 363.5Q1368 363 1369 363Q1370 363 1371.0 363.5Q1372 364 1373 364Q1373 363 1372.5 363.0Q1372 363 1372 362Q1383 360 1392.5 359.0Q1402 358 1411 358Q1424 358 1436.5 359.5Q1449 361 1462 363V364Q1463 364 1463.0 363.5Q1463 363 1464 363Q1465 363 1466.0 363.5Q1467 364 1468 364Q1468 363 1467.5 363.0Q1467 363 1467 362Q1478 360 1487.5 359.0Q1497 358 1506 358Q1519 358 1531.5 359.5Q1544 361 1557 363V364Q1558 364 1558.0 363.5Q1558 363 1559 363Q1560 363 1561.0 363.5Q1562 364 1563 364Q1563 363 1562.5 363.0Q1562 363 1562 362Q1573 360 1582.5 359.0Q1592 358 1602 358Q1628 358 1658 364Q1652 355 1643.5 341.5Q1635 328 1628.0 304.0Q1621 280 1617 237L1717 318Q1677 351 1625.5 393.0Q1574 435 1518.0 479.5Q1462 524 1407.5 564.5Q1353 605 1308 635Q1256 583 1200.5 525.0Q1145 467 1089 408Q1096 359 1114 285Q1143 277 1170 276Q1154 255 1140.5 237.0Q1127 219 1114 200Q1163 150 1210.5 100.5Q1258 51 1303 5ZM625 86Q649 101 679.5 124.0Q710 147 746 175L730 177Q753 203 769.0 234.0Q785 265 798 303L846 256Q863 271 881.5 286.0Q900 301 919 317L846 378L798 331Q785 369 769.0 400.0Q753 431 730 457L747 459Q692 503 649.0 533.0Q606 563 583 573Q590 578 596.5 582.0Q603 586 609 591Q465 583 370.0 562.0Q275 541 222 522Q262 521 301 528Q300 529 300 531L308 529L316 531Q315 530 315 528Q351 522 385 522Q427 522 466 531Q447 460 428.0 353.5Q409 247 400 101Q499 91 625 86ZM366 105Q358 236 342.0 333.5Q326 431 308 501Q291 434 275.5 340.0Q260 246 251 123Q277 119 306.0 114.0Q335 109 366 105ZM966 358 1039 421Q1028 443 1016.5 461.5Q1005 480 993 496Q964 477 942.0 460.5Q920 444 901 429ZM1031 289Q1031 296 1031.0 302.5Q1031 309 1032 316Q1048 309 1063.5 302.5Q1079 296 1094 291Q1076 341 1060 377L1004 317ZM1521 162 1598 222Q1596 267 1589.0 293.0Q1582 319 1574.5 334.0Q1567 349 1560 358Q1554 344 1545.5 324.0Q1537 304 1530.5 266.5Q1524 229 1521 162ZM1426 91Q1446 105 1465.5 119.5Q1485 134 1504 149Q1502 220 1495.0 260.0Q1488 300 1480.0 321.0Q1472 342 1465 357Q1459 340 1451.0 309.0Q1443 278 1436.0 225.5Q1429 173 1426 91ZM1330 23Q1349 35 1368.5 49.0Q1388 63 1409 78Q1407 165 1400.0 220.0Q1393 275 1385.0 307.5Q1377 340 1370 357Q1363 338 1354.0 300.5Q1345 263 1338.0 196.5Q1331 130 1330 23ZM1023 119Q1027 148 1028.5 172.5Q1030 197 1031 220Q1015 234 999.0 248.5Q983 263 966 276L901 205Q924 186 952.5 165.5Q981 145 1023 119Z" />
  </g>
</svg>