<svg xmlns="http://www.w3.org/2000/svg" viewBox="100 -41 694 1036">
  <g transform="translate(0, 954) scale(1, -1)">
    <path fill="black" d="M280 -41Q280 82 274.5 174.5Q269 267 259.5 337.0Q250 407 238.0 462.5Q226 518 212.5 566.5Q199 615 185 665Q236 653 290 653Q344 653 401 665L388 621Q398 629 407.5 637.0Q417 645 426 654Q311 735 231.5 779.0Q152 823 100 841Q141 873 180.5 910.0Q220 947 251 995Q271 948 316.5 862.5Q362 777 445 674Q459 691 473.5 708.5Q488 726 502 747Q537 664 606.5 564.5Q676 465 794 338L776 319Q688 389 621.0 438.0Q554 487 496.0 521.5Q438 556 377 582Q363 531 350.0 475.0Q337 419 327.0 347.5Q317 276 311.5 181.5Q306 87 306 -41Z" />
  </g>
</svg>