<svg xmlns="http://www.w3.org/2000/svg" viewBox="100 -192 952 950">
  <g transform="translate(0, 566) scale(1, -1)">
    <path fill="black" d="M574 -192Q546 -157 518.5 -132.5Q491 -108 456 -89L468 -82Q420 -38 368.0 8.0Q316 54 265.0 95.5Q214 137 171.5 168.5Q129 200 100 214Q149 241 190 284Q169 306 147.5 322.5Q126 339 100 354Q129 368 171.5 399.0Q214 430 264.0 471.5Q314 513 366.5 559.0Q419 605 467 649L456 655Q491 675 518.5 699.0Q546 723 574 758Q582 736 607.0 698.0Q632 660 668.0 613.0Q704 566 745.0 515.0Q786 464 826.5 415.0Q867 366 901 325Q894 419 885.5 487.5Q877 556 865.5 615.0Q854 674 836 736Q887 724 941 724Q995 724 1052 736Q1034 677 1021.5 620.5Q1009 564 999.5 499.5Q990 435 983.0 351.5Q976 268 970.0 155.0Q964 42 957 -112H931Q924 -1 918.0 87.5Q912 176 907 248Q874 207 833.0 157.5Q792 108 750.0 56.0Q708 4 671.0 -44.0Q634 -92 608.0 -130.5Q582 -169 574 -192ZM743 432Q678 490 613.0 543.0Q548 596 500 628Q470 592 438.0 553.0Q406 514 374 475Q388 471 416.5 466.5Q445 462 481 457Q473 531 466 545Q493 540 524 540Q552 540 579 545Q576 538 572.5 512.0Q569 486 564 447Q614 442 661.5 438.0Q709 434 743 432ZM370 98Q371 105 371.0 112.0Q371 119 371 126Q371 137 370.0 148.5Q369 160 367 171H366Q366 172 366.5 173.0Q367 174 367 175Q367 176 366.5 176.5Q366 177 366 178L367 177Q369 190 370.5 202.0Q372 214 372 227Q372 238 370.5 249.0Q369 260 367 271H366Q366 272 366.5 273.0Q367 274 367 275Q367 276 366.5 276.5Q366 277 366 278L367 277Q369 290 370.5 302.0Q372 314 372 327Q372 338 370.5 349.0Q369 360 367 371H366Q366 372 366.5 373.0Q367 374 367 375Q367 376 366.5 376.5Q366 377 366 378L367 377Q369 390 370.5 402.5Q372 415 372 428Q372 438 371.0 447.5Q370 457 368 467Q326 414 290.5 366.0Q255 318 235 284Q255 250 291.0 201.0Q327 152 370 98ZM742 133Q787 173 828.5 211.5Q870 250 904 282V284Q874 313 837.5 347.0Q801 381 760 417Q726 416 671.0 411.5Q616 407 559 401Q558 388 556.5 375.0Q555 362 554 348Q615 341 674.0 336.5Q733 332 767 332V317Q733 317 672.5 312.0Q612 307 550 300Q549 287 548.0 274.5Q547 262 546 249Q608 242 670.0 237.0Q732 232 767 232V217Q743 217 706.5 214.5Q670 212 627.0 208.0Q584 204 542 199L539 150Q593 144 647.5 139.5Q702 135 742 133ZM492 356 488 392Q451 388 422.0 383.5Q393 379 377 374Q393 370 423.5 365.5Q454 361 492 356ZM500 255 497 293Q457 288 425.5 283.5Q394 279 377 274Q394 270 426.5 265.0Q459 260 500 255ZM506 154 504 194Q462 189 428.0 184.0Q394 179 377 174Q394 170 428.5 164.5Q463 159 506 154ZM531 -41Q572 -10 622.0 30.5Q672 71 722 115Q682 113 633.0 108.0Q584 103 536 98Q535 61 533.0 26.0Q531 -9 531 -41ZM501 -62 514 -53Q513 -19 512.0 18.0Q511 55 509 95Q472 91 439.5 86.0Q407 81 387 77Q416 41 445.0 6.0Q474 -29 501 -62Z" />
  </g>
</svg>