<svg xmlns="http://www.w3.org/2000/svg" viewBox="100 -112 1467 848">
  <g transform="translate(0, 624) scale(1, -1)">
    <path fill="black" d="M845 -112Q845 88 831.0 245.0Q817 402 797 521Q760 460 728.0 410.5Q696 361 671 318Q694 277 737.0 213.0Q780 149 840 70L814 49Q746 108 693.0 153.0Q640 198 596.0 234.0Q552 270 511 300Q375 290 278.0 266.0Q181 242 100 210Q112 267 112 321Q112 375 100 426Q181 395 277.0 370.5Q373 346 509 336Q542 363 588.5 401.5Q635 440 686.5 487.0Q738 534 785 584Q777 628 768.0 666.0Q759 704 750 736Q801 724 855 724Q909 724 966 736Q948 671 930.5 584.0Q913 497 899 386Q910 382 945.0 376.0Q980 370 1028.0 364.0Q1076 358 1128.0 353.0Q1180 348 1226.0 344.5Q1272 341 1302 341Q1336 367 1379.0 402.0Q1422 437 1466.0 476.5Q1510 516 1545 556L1567 544Q1541 486 1506.5 430.5Q1472 375 1447 334Q1463 314 1484.0 283.0Q1505 252 1527.0 217.0Q1549 182 1567 149L1545 134Q1508 169 1466.0 204.5Q1424 240 1382.5 271.5Q1341 303 1305 326Q1276 326 1229.5 322.5Q1183 319 1130.0 313.5Q1077 308 1028.0 302.0Q979 296 944.0 290.5Q909 285 898 280Q900 294 902.0 308.0Q904 322 904 336Q904 359 898 384Q886 282 878.5 158.5Q871 35 871 -112Z" />
  </g>
</svg>