<svg xmlns="http://www.w3.org/2000/svg" viewBox="100 -104 1500 845">
  <g transform="translate(0, 637) scale(1, -1)">
    <path fill="black" d="M739 -104 715 -96Q774 95 808.0 248.5Q842 402 858 522Q805 474 759.5 436.5Q714 399 677 366Q686 320 708.0 246.0Q730 172 764 79L733 67Q663 181 613.0 258.0Q563 335 519 396Q422 419 343.0 428.5Q264 438 196 438Q171 438 147.0 437.0Q123 436 100 434Q158 537 165 640Q233 586 317.5 534.0Q402 482 529 432Q568 448 624.0 470.5Q680 493 743.0 522.5Q806 552 866 586Q871 630 874.0 668.5Q877 707 878 741Q970 687 1084 677Q1047 620 1004.5 542.5Q962 465 915 363Q925 355 956.5 339.0Q988 323 1032.5 303.0Q1077 283 1124.5 262.5Q1172 242 1215.0 225.0Q1258 208 1286 199Q1327 214 1378.5 234.5Q1430 255 1483.5 280.0Q1537 305 1582 332L1600 314Q1557 267 1507.5 224.0Q1458 181 1422 149Q1432 124 1443.0 88.5Q1454 53 1464.5 13.5Q1475 -26 1482 -63L1456 -71Q1432 -26 1402.0 20.5Q1372 67 1342.0 109.5Q1312 152 1284 184Q1256 192 1211.0 203.0Q1166 214 1114.0 224.5Q1062 235 1013.0 244.0Q964 253 928.5 258.0Q893 263 882 262Q894 285 903.0 308.5Q912 332 914 360Q871 267 827.0 151.5Q783 36 739 -104Z" />
  </g>
</svg>