<svg xmlns="http://www.w3.org/2000/svg" viewBox="100 75 909 442">
  <g transform="translate(0, 592) scale(1, -1)">
    <path fill="black" d="M997 75Q939 125 865.5 183.5Q792 242 723 294Q507 284 354.0 258.0Q201 232 100 204Q112 261 112 315Q112 369 100 420Q195 394 335.5 369.5Q476 345 670 333Q613 374 572.0 401.5Q531 429 520 432Q539 446 560.5 470.5Q582 495 595 517Q599 509 622.0 482.0Q645 455 681.5 415.0Q718 375 762 328Q849 325 948 325V299Q867 299 792 296Q846 241 903.0 186.0Q960 131 1009 88Z" />
  </g>
</svg>