<svg xmlns="http://www.w3.org/2000/svg" viewBox="100 -47 1516 848">
  <g transform="translate(0, 754) scale(1, -1)">
    <path fill="black" d="M1491 -47Q1491 11 1487.5 62.5Q1484 114 1478 160Q1447 159 1398.5 157.0Q1350 155 1293 152Q1288 108 1284.5 61.0Q1281 14 1281 -30H1262Q1262 10 1258.0 57.0Q1254 104 1249 150L1182 145Q1177 102 1174.0 57.0Q1171 12 1171 -30H1152Q1152 8 1148.5 53.0Q1145 98 1140 143L1072 138Q1067 97 1064.0 54.0Q1061 11 1061 -30H1042Q1042 7 1039.0 49.5Q1036 92 1031 135L960 129Q951 50 951 -30H932Q932 5 929.5 45.0Q927 85 922 126Q861 120 817.5 114.5Q774 109 764 104Q770 137 770 172Q770 187 769.0 202.5Q768 218 764 234Q772 230 812.0 224.5Q852 219 910 214Q902 268 892.5 310.0Q883 352 876 368Q890 366 903.5 364.0Q917 362 931 361Q930 392 927.5 425.0Q925 458 921 492Q860 487 817.0 481.5Q774 476 764 471Q770 504 770 539Q770 554 769.0 569.5Q768 585 764 601Q772 597 811.5 591.5Q851 586 909 581Q901 636 892.0 677.5Q883 719 876 735Q909 729 943 729Q965 729 987 732Q987 733 986.5 733.5Q986 734 986 735Q992 733 997 733Q1000 733 1006 735L1004 732Q1028 729 1052 729Q1075 729 1097 732Q1097 733 1096.5 733.5Q1096 734 1096 735Q1102 733 1107 733Q1110 733 1116 735L1114 732Q1138 729 1162 729Q1185 729 1207 732Q1207 733 1206.5 733.5Q1206 734 1206 735Q1212 733 1217 733Q1220 733 1226 735L1224 732Q1236 731 1248.5 729.5Q1261 728 1274 728Q1289 728 1304.5 729.5Q1320 731 1336 735Q1329 719 1318.0 669.0Q1307 619 1298 553Q1351 550 1396.5 548.0Q1442 546 1473 546Q1461 618 1442.5 680.5Q1424 743 1400 801Q1450 791 1505 791Q1531 791 1558.5 793.5Q1586 796 1616 801Q1589 736 1562.0 644.5Q1535 553 1524 438Q1546 439 1568.5 441.5Q1591 444 1616 448Q1593 393 1570.0 318.5Q1547 244 1532.0 152.5Q1517 61 1517 -47ZM785 -16Q709 52 657.0 94.0Q605 136 560 169L623 224L594 215Q596 222 596.5 229.0Q597 236 598 243L559 169Q575 141 590.5 110.5Q606 80 628 45L613 32Q570 71 544.0 94.5Q518 118 498.0 134.5Q478 151 451 169Q468 184 487.0 199.0Q506 214 532.5 235.0Q559 256 597 289L594 312L607 307Q603 329 599.0 347.0Q595 365 591 373Q596 372 601.0 371.0Q606 370 610 369L608 386Q567 424 542.0 446.5Q517 469 497.5 485.0Q478 501 451 519Q469 535 489.5 551.0Q510 567 539.5 590.5Q569 614 613 653L628 643Q606 609 590.5 578.5Q575 548 559 519Q568 502 577.5 484.0Q587 466 597 447L591 468Q599 467 607.5 465.5Q616 464 624 464H631Q612 479 594.5 492.5Q577 506 560 519Q582 538 617.5 569.5Q653 601 694.0 641.5Q735 682 772 725L792 714Q758 653 733.5 605.0Q709 557 686 519Q693 508 701.5 494.0Q710 480 720 464H727Q735 464 743.0 465.5Q751 467 760 468Q753 452 749 422L795 358L796 359Q792 393 787.5 422.0Q783 451 776 468Q793 465 808 465Q823 465 841 468Q837 456 833.0 435.0Q829 414 825 388Q825 388 827 390Q833 371 846.5 343.0Q860 315 886 273V261Q847 257 806.0 252.5Q765 248 727 243Q717 223 706.5 204.5Q696 186 686 169Q703 141 732.5 97.0Q762 53 803 -1ZM325 -16Q249 52 197.0 94.0Q145 136 100 169Q120 186 152.5 215.0Q185 244 223.0 281.0Q261 318 297 358Q233 414 187.0 451.5Q141 489 100 519Q122 538 157.5 569.5Q193 601 234.0 641.5Q275 682 312 725L332 714Q298 653 273.5 605.0Q249 557 226 519Q243 491 272.5 447.0Q302 403 343 349L325 334L318 340Q290 287 268.0 245.5Q246 204 226 169Q243 141 272.5 97.0Q302 53 343 -1ZM1243 556Q1236 600 1229.0 638.5Q1222 677 1216 703Q1209 678 1202.5 641.0Q1196 604 1189 560ZM1132 564Q1126 606 1119.0 642.0Q1112 678 1106 703Q1100 679 1093.0 644.0Q1086 609 1080 567ZM1021 572Q1009 653 996 703Q990 681 984.0 648.0Q978 615 972 576Q984 575 996.0 574.0Q1008 573 1021 572ZM393 382Q350 421 324.0 444.5Q298 468 278.0 484.5Q258 501 231 519Q249 535 269.5 551.0Q290 567 319.5 590.5Q349 614 393 653L408 643Q386 609 370.5 578.5Q355 548 339 519Q355 491 370.5 460.5Q386 430 408 395ZM503 382Q460 421 434.0 444.5Q408 468 388.0 484.5Q368 501 341 519Q359 535 379.5 551.0Q400 567 429.5 590.5Q459 614 503 653L518 643Q496 609 480.5 578.5Q465 548 449 519Q465 491 480.5 460.5Q496 430 518 395ZM1475 179Q1464 256 1444.5 321.5Q1425 387 1400 448Q1421 444 1442.5 441.5Q1464 439 1486 438Q1484 461 1481.5 483.0Q1479 505 1476 527Q1445 526 1397.5 524.0Q1350 522 1294 519Q1290 481 1286.5 440.5Q1283 400 1281 361Q1295 362 1308.5 363.5Q1322 365 1336 368Q1329 352 1318.0 302.0Q1307 252 1298 186Q1352 183 1398.0 181.0Q1444 179 1475 179ZM1171 361Q1180 362 1189.0 363.0Q1198 364 1207 365Q1207 366 1206.5 366.5Q1206 367 1206 368Q1212 366 1217 366Q1220 366 1226 368L1224 365Q1233 364 1242.5 363.0Q1252 362 1261 361Q1260 397 1256.5 437.0Q1253 477 1248 517L1183 513Q1179 476 1176.0 437.5Q1173 399 1171 361ZM1061 361Q1070 362 1079.0 363.0Q1088 364 1097 365Q1097 366 1096.5 366.5Q1096 367 1096 368Q1102 366 1107 366Q1110 366 1116 368L1114 365Q1123 364 1132.5 363.0Q1142 362 1151 361Q1150 396 1147.0 434.0Q1144 472 1139 510L1072 505Q1068 470 1065.5 433.0Q1063 396 1061 361ZM951 361Q960 362 969.0 363.0Q978 364 987 365Q987 366 986.5 366.5Q986 367 986 368Q992 366 997 366Q1000 366 1006 368L1004 365Q1013 364 1022.5 363.0Q1032 362 1041 361Q1040 394 1037.0 430.0Q1034 466 1030 502L961 496Q957 463 955.0 428.5Q953 394 951 361ZM671 293Q667 333 662.0 373.5Q657 414 650 442Q644 412 639 370L652 373Q648 364 644.0 344.0Q640 324 635 300Q643 298 652.0 296.5Q661 295 671 293ZM691 289Q699 296 705.5 303.0Q712 310 719 317Q718 338 715.0 359.0Q712 380 709 399L695 411Q687 355 684 291ZM739 338 757 358Q753 361 749.5 364.0Q746 367 742 371ZM804 278 800 327Q794 330 788.5 332.5Q783 335 777 339L748 283ZM1133 197Q1126 239 1119.0 275.5Q1112 312 1106 337Q1100 313 1093.0 277.5Q1086 242 1080 200ZM1021 205Q1009 286 996 337Q990 315 983.5 282.0Q977 249 971 209ZM1244 190Q1237 234 1230.0 272.5Q1223 311 1216 337Q1209 312 1202.0 274.5Q1195 237 1189 193ZM873 273Q859 287 845.0 297.0Q831 307 818 315Q817 305 816.5 295.5Q816 286 816 277Q830 276 844.5 275.0Q859 274 873 273ZM393 32Q350 71 324.0 94.5Q298 118 278.0 134.5Q258 151 231 169Q249 185 269.5 201.0Q290 217 319.5 240.5Q349 264 393 303L408 293Q386 259 370.5 228.5Q355 198 339 169Q355 141 370.5 110.5Q386 80 408 45ZM503 32Q460 71 434.0 94.5Q408 118 388.0 134.5Q368 151 341 169Q359 185 379.5 201.0Q400 217 429.5 240.5Q459 264 503 303L518 293Q496 259 480.5 228.5Q465 198 449 169Q465 141 480.5 110.5Q496 80 518 45Z" />
  </g>
</svg>