<svg xmlns="http://www.w3.org/2000/svg" viewBox="100 -25 1011 1046">
  <g transform="translate(0, 996) scale(1, -1)">
    <path fill="black" d="M1028 -25Q1028 50 1019 113Q998 112 966.0 111.0Q934 110 896 108Q892 78 890.0 47.0Q888 16 888 -13H875Q875 13 872.5 44.0Q870 75 866 106L822 103Q818 75 816.0 45.0Q814 15 814 -13H802Q802 13 799.5 42.5Q797 72 793 101L748 98Q745 70 743.0 42.0Q741 14 741 -13H728Q728 11 726.0 39.5Q724 68 720 96Q708 95 696.5 94.5Q685 94 674 92Q668 40 668 -13H655Q655 10 653.0 36.5Q651 63 648 90Q607 86 578.5 82.5Q550 79 543 76Q545 87 546.5 98.0Q548 109 548 121Q548 131 546.5 141.5Q545 152 543 163Q548 160 574.5 156.5Q601 153 640 149Q635 185 629.0 213.5Q623 242 618 252Q627 251 636.0 249.5Q645 248 654 247Q653 267 651.5 290.0Q650 313 647 335Q607 331 578.5 327.5Q550 324 543 321Q545 332 546.5 343.0Q548 354 548 366Q548 376 546.5 386.5Q545 397 543 408Q548 405 574.5 401.5Q601 398 640 394Q634 431 628.5 459.0Q623 487 618 497Q627 496 636.0 494.5Q645 493 654 492Q653 530 648 570Q607 566 578.5 562.5Q550 559 543 556Q545 567 546.5 578.0Q548 589 548 601Q548 611 546.5 621.5Q545 632 543 643Q548 640 574.5 636.5Q601 633 640 629Q635 665 629.0 693.5Q623 722 618 732Q627 731 636.0 729.5Q645 728 654 727Q653 747 651.5 770.0Q650 793 647 815Q607 811 578.5 807.5Q550 804 543 801Q545 812 546.5 823.0Q548 834 548 846Q548 856 546.5 866.5Q545 877 543 888Q548 885 574.5 881.5Q601 878 640 874Q634 911 628.5 939.0Q623 967 618 977Q629 975 640.5 973.5Q652 972 664 972Q671 972 678.0 972.5Q685 973 692 974Q691 975 691 977L698 975L704 977Q703 976 703 975Q720 972 738 972Q745 972 751.5 972.5Q758 973 765 974Q764 975 764 977L771 975L778 977Q777 976 777 975Q795 972 812 972Q819 972 825.5 972.5Q832 973 839 974Q838 975 838 977L845 975L851 977Q850 976 850 975Q865 972 882 972Q892 972 902.5 973.5Q913 975 924 977Q920 966 912.5 933.0Q905 900 899 856Q934 854 964.5 852.5Q995 851 1016 851Q1008 899 995.5 940.5Q983 982 967 1021Q999 1014 1036 1014Q1053 1014 1072.0 1015.5Q1091 1017 1111 1021Q1093 978 1075.0 917.0Q1057 856 1049 779Q1064 779 1079.5 781.0Q1095 783 1111 786Q1093 740 1074.5 677.0Q1056 614 1048 534Q1063 535 1078.5 536.5Q1094 538 1111 541Q1093 498 1075.0 437.0Q1057 376 1049 299Q1064 299 1079.5 301.0Q1095 303 1111 306Q1089 250 1067.0 166.5Q1045 83 1045 -25ZM557 -4Q506 41 471.5 69.0Q437 97 407 119Q427 136 464.5 171.0Q502 206 538 246Q495 284 464.5 309.0Q434 334 407 353Q428 371 468.0 407.5Q508 444 545 486Q499 527 467.0 552.5Q435 578 407 599Q427 616 464.5 651.0Q502 686 538 726Q495 764 464.5 789.0Q434 814 407 833Q429 852 470.0 889.5Q511 927 548 970L562 963Q539 922 522.5 890.5Q506 859 491 833Q502 816 519.0 789.0Q536 762 561 729H562L561 728L569 719L557 709Q554 710 553 713Q534 678 519.5 650.0Q505 622 491 599Q502 581 521.5 551.5Q541 522 569 486L558 477Q536 438 520.5 408.0Q505 378 491 353Q502 336 519.0 309.0Q536 282 561 249H562L561 248L569 239L557 229Q554 230 553 233Q534 198 519.5 170.0Q505 142 491 119Q502 101 521.5 71.5Q541 42 569 6ZM250 -4Q199 41 164.5 69.0Q130 97 100 119Q120 136 157.5 171.0Q195 206 231 246Q188 284 157.5 309.0Q127 334 100 353Q121 371 161.0 407.5Q201 444 238 486Q192 527 160.0 552.5Q128 578 100 599Q120 616 157.5 651.0Q195 686 231 726Q188 764 157.5 789.0Q127 814 100 833Q122 852 163.0 889.5Q204 927 241 970L255 963Q232 922 215.5 890.5Q199 859 184 833Q195 816 212.0 789.0Q229 762 254 729H255L254 728L262 719L250 709Q247 710 246 713Q227 678 212.5 650.0Q198 622 184 599Q195 581 214.5 551.5Q234 522 262 486L251 477Q229 438 213.5 408.0Q198 378 184 353Q195 336 212.0 309.0Q229 282 254 249H255L254 248L262 239L250 229Q247 230 246 233Q227 198 212.5 170.0Q198 142 184 119Q195 101 214.5 71.5Q234 42 262 6ZM862 858Q858 887 853.5 913.0Q849 939 844 956Q840 940 835.5 915.0Q831 890 826 860Q835 859 844.0 858.5Q853 858 862 858ZM714 868Q710 894 705.5 917.0Q701 940 697 956Q693 941 689.0 919.0Q685 897 681 871ZM789 863Q785 891 780.5 915.5Q776 940 771 956Q762 923 754 865ZM295 742Q266 768 249.0 783.5Q232 799 218.5 810.0Q205 821 187 833Q205 849 228.5 866.0Q252 883 295 922L305 916Q290 893 280.0 873.0Q270 853 259 833Q270 814 280.0 793.5Q290 773 305 750ZM369 742Q340 768 323.0 783.5Q306 799 292.5 810.0Q279 821 261 833Q279 849 302.0 866.0Q325 883 369 922L379 916Q364 893 354.0 873.0Q344 853 333 833Q344 814 354.0 793.5Q364 773 379 750ZM442 742Q413 768 396.0 783.5Q379 799 365.5 810.0Q352 821 334 833Q352 849 375.5 866.0Q399 883 442 922L452 916Q437 893 427.0 873.0Q417 853 406 833Q417 814 427.0 793.5Q437 773 452 750ZM1017 606Q1010 658 997.0 702.0Q984 746 967 786Q981 783 995.5 781.0Q1010 779 1024 779Q1022 810 1018 838L896 833Q893 807 891.0 780.0Q889 753 888 727Q896 728 905.0 729.0Q914 730 924 732Q920 721 912.5 688.0Q905 655 899 611Q935 609 966.0 607.5Q997 606 1017 606ZM814 727Q820 727 826.0 727.5Q832 728 839 729Q838 730 838 732L845 730L851 732Q850 731 850 730L874 727Q873 751 871.0 778.0Q869 805 865 831L822 828Q819 803 817.0 777.5Q815 752 814 727ZM741 727Q746 727 752.5 727.5Q759 728 765 729Q764 730 764 732L771 730L778 732Q777 731 777 730L801 727Q800 750 798.0 775.5Q796 801 793 826L748 823Q746 800 744.0 775.5Q742 751 741 727ZM668 727Q674 727 680.0 727.5Q686 728 692 729Q691 730 691 732L698 730L704 732Q703 731 703 730L727 727Q726 749 724.0 773.0Q722 797 720 821L675 817Q672 795 670.5 772.5Q669 750 668 727ZM863 613Q854 674 844 711Q840 695 835.5 670.0Q831 645 826 615Q835 614 844.5 613.5Q854 613 863 613ZM789 617Q785 646 780.5 670.5Q776 695 771 711Q767 695 762.5 672.0Q758 649 753 620ZM714 623Q706 678 697 711Q693 696 689.0 674.0Q685 652 681 626ZM295 508Q266 534 249.0 549.5Q232 565 218.5 576.0Q205 587 187 599Q205 616 228.5 633.0Q252 650 295 689L305 682Q290 659 280.0 639.0Q270 619 259 599Q270 581 280.0 560.5Q290 540 305 517ZM369 508Q340 534 323.0 549.5Q306 565 292.5 576.0Q279 587 261 599Q279 616 302.0 633.0Q325 650 369 689L379 682Q364 659 354.0 639.0Q344 619 333 599Q344 581 354.0 560.5Q364 540 379 517ZM442 508Q413 534 396.0 549.5Q379 565 365.5 576.0Q352 587 334 599Q352 616 375.5 633.0Q399 650 442 689L452 682Q437 659 427.0 639.0Q417 619 406 599Q417 581 427.0 560.5Q437 540 452 517ZM1016 371Q1008 419 995.5 460.5Q983 502 967 541Q981 538 996.0 536.5Q1011 535 1025 534Q1024 564 1019 593Q998 592 966.0 591.0Q934 590 896 588Q893 565 891.0 540.5Q889 516 888 492Q897 493 905.5 494.0Q914 495 924 497Q920 486 912.5 453.0Q905 420 899 376Q934 374 964.5 372.5Q995 371 1016 371ZM814 492Q820 492 826.0 492.5Q832 493 839 494Q838 495 838 497L845 495L851 497Q850 496 850 495L874 492Q873 515 871.0 538.5Q869 562 866 586L822 583Q819 561 817.0 538.0Q815 515 814 492ZM741 492Q747 492 753.0 492.5Q759 493 765 494Q764 495 764 497L771 495L778 497Q777 496 777 495L801 492Q800 513 798.0 536.0Q796 559 793 581L748 578Q746 557 744.0 535.5Q742 514 741 492ZM668 492Q674 492 680.0 492.5Q686 493 692 494Q691 495 691 497L698 495L704 497Q703 496 703 495L727 492Q726 512 724.5 533.5Q723 555 720 576Q708 575 696.5 574.5Q685 574 674 572Q670 533 668 492ZM789 383Q785 411 780.5 435.5Q776 460 771 476Q762 443 754 385ZM862 378Q858 407 853.5 433.0Q849 459 844 476Q840 460 835.5 435.0Q831 410 826 380Q835 379 844.0 378.5Q853 378 862 378ZM714 388Q710 414 705.5 437.0Q701 460 697 476Q693 461 689.0 439.0Q685 417 681 391ZM369 262Q340 288 323.0 303.5Q306 319 292.5 330.0Q279 341 261 353Q279 369 302.0 386.0Q325 403 369 442L379 436Q364 413 354.0 393.0Q344 373 333 353Q344 334 354.0 313.5Q364 293 379 270ZM442 262Q413 288 396.0 303.5Q379 319 365.5 330.0Q352 341 334 353Q352 369 375.5 386.0Q399 403 442 442L452 436Q437 413 427.0 393.0Q417 373 406 353Q417 334 427.0 313.5Q437 293 452 270ZM295 262Q266 288 249.0 303.5Q232 319 218.5 330.0Q205 341 187 353Q205 369 228.5 386.0Q252 403 295 442L305 436Q290 413 280.0 393.0Q270 373 259 353Q270 334 280.0 313.5Q290 293 305 270ZM1017 126Q1010 178 997.0 222.0Q984 266 967 306Q981 303 995.5 301.0Q1010 299 1024 299Q1022 330 1018 358L896 353Q893 327 891.0 300.0Q889 273 888 247Q896 248 905.0 249.0Q914 250 924 252Q920 241 912.5 208.0Q905 175 899 131Q935 129 966.0 127.5Q997 126 1017 126ZM814 247Q820 247 826.0 247.5Q832 248 839 249Q838 250 838 252L845 250L851 252Q850 251 850 250L874 247Q873 271 871.0 298.0Q869 325 865 351L822 348Q819 323 817.0 297.5Q815 272 814 247ZM741 247Q746 247 752.5 247.5Q759 248 765 249Q764 250 764 252L771 250L778 252Q777 251 777 250L801 247Q800 270 798.0 295.5Q796 321 793 346L748 343Q746 320 744.0 295.5Q742 271 741 247ZM668 247Q674 247 680.0 247.5Q686 248 692 249Q691 250 691 252L698 250L704 252Q703 251 703 250L727 247Q726 269 724.0 293.0Q722 317 720 341L675 337Q672 315 670.5 292.5Q669 270 668 247ZM863 133Q854 194 844 231Q840 215 835.5 190.0Q831 165 826 135Q835 134 844.5 133.5Q854 133 863 133ZM714 143Q706 198 697 231Q693 216 689.0 194.0Q685 172 681 146ZM789 137Q785 166 780.5 190.5Q776 215 771 231Q767 215 762.5 192.0Q758 169 753 140ZM369 28Q340 54 323.0 69.5Q306 85 292.5 96.0Q279 107 261 119Q279 136 302.0 153.0Q325 170 369 209L379 202Q364 179 354.0 159.0Q344 139 333 119Q344 101 354.0 80.5Q364 60 379 37ZM295 28Q266 54 249.0 69.5Q232 85 218.5 96.0Q205 107 187 119Q205 136 228.5 153.0Q252 170 295 209L305 202Q290 179 280.0 159.0Q270 139 259 119Q270 101 280.0 80.5Q290 60 305 37ZM442 28Q413 54 396.0 69.5Q379 85 365.5 96.0Q352 107 334 119Q352 136 375.5 153.0Q399 170 442 209L452 202Q437 179 427.0 159.0Q417 139 406 119Q417 101 427.0 80.5Q437 60 452 37Z" />
  </g>
</svg>