<svg xmlns="http://www.w3.org/2000/svg" viewBox="100 -112 1636 848">
  <g transform="translate(0, 624) scale(1, -1)">
    <path fill="black" d="M1614 -112Q1614 -80 1612.5 -41.0Q1611 -2 1608 40Q1458 57 1348.0 67.0Q1238 77 1156.5 81.5Q1075 86 1010 86Q943 86 886.5 82.0Q830 78 768 70Q801 154 801 253Q801 261 801.0 269.0Q801 277 800 284Q830 271 862.0 257.5Q894 244 930 230Q926 253 917.0 273.0Q908 293 897 312Q905 311 941.5 320.0Q978 329 1033 345Q978 360 941.5 369.0Q905 378 897 378Q907 395 915.5 413.0Q924 431 928 451Q893 438 861.5 424.5Q830 411 800 398Q801 406 801.0 414.0Q801 422 801 429Q801 528 768 612Q829 605 886.0 600.0Q943 595 1010 595Q1070 595 1144.0 599.0Q1218 603 1315.0 612.0Q1412 621 1541 634Q1536 667 1530.5 693.0Q1525 719 1520 736Q1571 724 1625 724Q1679 724 1736 736Q1727 705 1716.5 646.5Q1706 588 1695.0 512.0Q1684 436 1674.5 351.0Q1665 266 1657.0 181.0Q1649 96 1644.5 20.5Q1640 -55 1640 -112ZM785 334Q709 402 657.0 444.0Q605 486 560 519Q582 538 617.5 569.5Q653 601 694.0 641.5Q735 682 772 725L792 714Q758 653 733.5 605.0Q709 557 686 519Q703 491 732.5 447.0Q762 403 803 349ZM325 334Q249 402 197.0 444.0Q145 486 100 519Q122 538 157.5 569.5Q193 601 234.0 641.5Q275 682 312 725L332 714Q298 653 273.5 605.0Q249 557 226 519Q243 491 272.5 447.0Q302 403 343 349ZM613 382Q570 421 544.0 444.5Q518 468 498.0 484.5Q478 501 451 519Q469 535 489.5 551.0Q510 567 539.5 590.5Q569 614 613 653L628 643Q606 609 590.5 578.5Q575 548 559 519Q575 491 590.5 460.5Q606 430 628 395ZM503 382Q460 421 434.0 444.5Q408 468 388.0 484.5Q368 501 341 519Q359 535 379.5 551.0Q400 567 429.5 590.5Q459 614 503 653L518 643Q496 609 480.5 578.5Q465 548 449 519Q465 491 480.5 460.5Q496 430 518 395ZM393 382Q350 421 324.0 444.5Q298 468 278.0 484.5Q258 501 231 519Q249 535 269.5 551.0Q290 567 319.5 590.5Q349 614 393 653L408 643Q386 609 370.5 578.5Q355 548 339 519Q355 491 370.5 460.5Q386 430 408 395ZM1144 377Q1212 397 1285.0 419.5Q1358 442 1429.5 464.5Q1501 487 1561 507L1547 602Q1401 577 1292.5 553.0Q1184 529 1103.5 506.5Q1023 484 960 462Q1018 433 1144 377ZM1597 189Q1590 264 1581.5 340.5Q1573 417 1564 486Q1488 456 1397.5 418.5Q1307 381 1221 344Q1287 316 1355.0 287.5Q1423 259 1485.5 233.5Q1548 208 1597 189ZM785 -56Q709 12 657.0 54.0Q605 96 560 129Q582 148 617.5 179.5Q653 211 694.0 251.5Q735 292 772 335L792 324Q758 263 733.5 215.0Q709 167 686 129Q703 101 732.5 57.0Q762 13 803 -41ZM325 -56Q249 12 197.0 54.0Q145 96 100 129Q122 148 157.5 179.5Q193 211 234.0 251.5Q275 292 312 335L332 324Q298 263 273.5 215.0Q249 167 226 129Q243 101 272.5 57.0Q302 13 343 -41ZM1606 70Q1605 94 1602.5 119.5Q1600 145 1598 170Q1542 190 1465.5 214.5Q1389 239 1306.0 264.5Q1223 290 1147 312Q1079 283 1027.5 259.5Q976 236 951 223Q1018 199 1106.0 174.5Q1194 150 1316.0 124.0Q1438 98 1606 70ZM503 -8Q460 31 434.0 54.5Q408 78 388.0 94.5Q368 111 341 129Q359 145 379.5 161.0Q400 177 429.5 200.5Q459 224 503 263L518 253Q496 219 480.5 188.5Q465 158 449 129Q465 101 480.5 70.5Q496 40 518 5ZM613 -8Q570 31 544.0 54.5Q518 78 498.0 94.5Q478 111 451 129Q469 145 489.5 161.0Q510 177 539.5 200.5Q569 224 613 263L628 253Q606 219 590.5 188.5Q575 158 559 129Q575 101 590.5 70.5Q606 40 628 5ZM393 -8Q350 31 324.0 54.5Q298 78 278.0 94.5Q258 111 231 129Q249 145 269.5 161.0Q290 177 319.5 200.5Q349 224 393 263L408 253Q386 219 370.5 188.5Q355 158 339 129Q355 101 370.5 70.5Q386 40 408 5Z" />
  </g>
</svg>