<svg xmlns="http://www.w3.org/2000/svg" viewBox="100 -110 808 848">
  <g transform="translate(0, 628) scale(1, -1)">
    <path fill="black" d="M785 -110Q785 -88 784.5 -65.0Q784 -42 783 -18Q691 -18 593.0 -24.5Q495 -31 402.0 -42.5Q309 -54 231.0 -68.0Q153 -82 100 -98Q106 -68 109.5 -39.5Q113 -11 113 15Q113 41 109.5 67.0Q106 93 100 118Q125 109 157 101Q156 133 154.0 179.5Q152 226 149.0 277.5Q146 329 141.0 378.5Q136 428 129.0 467.0Q122 506 114 526Q141 520 163 520Q187 520 220 526Q213 509 207.5 469.5Q202 430 197.5 378.5Q193 327 189.5 273.0Q186 219 183.5 172.0Q181 125 179 95Q237 80 309.5 66.0Q382 52 461.5 40.5Q541 29 623.0 22.0Q705 15 782 14Q780 61 777.0 111.5Q774 162 769 214Q723 212 669.5 207.5Q616 203 562.5 197.0Q509 191 462.5 184.5Q416 178 383.0 171.5Q350 165 339 160Q345 193 345 228Q345 243 344.0 258.5Q343 274 339 290Q349 286 381.0 279.5Q413 273 459.5 266.5Q506 260 559.5 254.0Q613 248 667.0 243.0Q721 238 767 236Q764 271 761.0 304.5Q758 338 754 372Q696 369 630.0 362.5Q564 356 502.5 348.0Q441 340 397.0 332.0Q353 324 339 318Q345 351 345 386Q345 401 344.0 416.5Q343 432 339 448Q351 442 395.0 434.5Q439 427 500.0 419.0Q561 411 627.0 404.5Q693 398 751 395Q745 450 737.5 501.5Q730 553 722 599Q544 592 401.5 570.5Q259 549 170 522Q176 552 179.5 580.5Q183 609 183 635Q183 661 179.5 687.0Q176 713 170 738Q258 708 398.0 678.5Q538 649 714 638Q709 665 703.5 689.5Q698 714 692 736Q743 724 797 724Q851 724 908 736Q894 686 880.5 607.5Q867 529 855.5 434.5Q844 340 834.5 241.5Q825 143 820.0 52.0Q815 -39 815 -110Z" />
  </g>
</svg>