<svg xmlns="http://www.w3.org/2000/svg" viewBox="100 -159 928 909">
  <g transform="translate(0, 591) scale(1, -1)">
    <path fill="black" d="M232 -159Q220 -108 196.0 -51.5Q172 5 138 57Q141 57 144.0 57.0Q147 57 151 58Q147 90 143.0 149.0Q139 208 134.5 280.5Q130 353 126.0 428.0Q122 503 118.0 568.5Q114 634 109.5 679.0Q105 724 100 736Q119 733 133.5 730.5Q148 728 163 728Q175 728 189.0 730.0Q203 732 219 736Q214 725 209.0 679.5Q204 634 199.5 568.0Q195 502 190.0 427.0Q185 352 180.5 279.5Q176 207 172.0 148.5Q168 90 165 59Q221 67 319 93Q315 131 311.0 192.0Q307 253 302.5 325.0Q298 397 294.0 469.0Q290 541 286.0 601.0Q282 661 277 698Q260 694 246.0 690.0Q232 686 221 681Q222 690 222.5 699.0Q223 708 223 717Q223 726 222.5 734.5Q222 743 221 750Q233 746 245.0 741.5Q257 737 270 734V736Q289 733 303.5 730.5Q318 728 333 728Q345 728 359.0 730.0Q373 732 389 736Q385 725 380.0 684.5Q375 644 370.5 584.0Q366 524 361.5 455.5Q357 387 352.5 318.5Q348 250 344.0 192.0Q340 134 337 97Q406 116 486.5 141.0Q567 166 651.5 194.0Q736 222 818.0 251.5Q900 281 972 308Q938 319 884.0 338.0Q830 357 766.5 380.0Q703 403 638.5 426.5Q574 450 517.5 469.5Q461 489 422.0 501.0Q383 513 370 514Q390 542 405.5 572.5Q421 603 428 641Q437 632 474.0 608.5Q511 585 566.5 553.5Q622 522 685.0 487.0Q748 452 809.0 418.5Q870 385 918.5 358.0Q967 331 992 316Q1006 321 1018 326L1028 303Q965 270 889.0 230.5Q813 191 732.5 148.0Q652 105 573.5 61.5Q495 18 427.0 -22.5Q359 -63 308.0 -98.0Q257 -133 232 -159Z" />
  </g>
</svg>