<svg xmlns="http://www.w3.org/2000/svg" viewBox="100 -43 1810 849">
  <g transform="translate(0, 763) scale(1, -1)">
    <path fill="black" d="M877 74Q841 109 799.5 144.0Q758 179 717.0 210.0Q676 241 640 264Q621 264 584.5 262.5Q548 261 503 258Q500 226 498.5 198.0Q497 170 497 150H482Q482 170 480.0 197.5Q478 225 476 256L407 251Q405 221 403.5 195.0Q402 169 402 150H387Q387 168 385.5 194.0Q384 220 381 249L312 243Q310 215 308.5 191.0Q307 167 307 150H292Q292 167 290.5 190.0Q289 213 287 240L216 234Q214 209 213.0 187.5Q212 166 212 150H197Q197 166 196.0 186.5Q195 207 193 231Q156 227 131.5 223.5Q107 220 100 217Q102 231 104.0 246.5Q106 262 106 278Q106 305 100 330Q106 327 129.0 323.5Q152 320 185 316Q180 364 173.5 409.0Q167 454 161.5 487.0Q156 520 151 531Q180 525 209 525Q228 525 247 528Q246 529 246 531L253 529Q254 530 255.5 530.0Q257 530 258 531L257 529Q269 528 281.0 526.5Q293 525 305 525Q323 525 342 528Q341 529 341 531L348 529Q349 530 350.5 530.0Q352 530 353 531L352 529Q364 528 376.0 526.5Q388 525 400 525Q418 525 437 528Q436 529 436 531L443 529Q444 530 445.5 530.0Q447 530 448 531L447 529Q458 528 469.5 526.5Q481 525 492 525Q516 525 543 531Q538 520 531.0 481.5Q524 443 517.5 392.0Q511 341 506 289Q549 286 583.0 284.5Q617 283 637 283Q675 312 724.0 352.5Q773 393 819 436Q774 476 727.0 512.5Q680 549 640 574Q616 574 570.0 571.5Q524 569 466.0 565.0Q408 561 348.0 556.0Q288 551 235.0 546.0Q182 541 145.5 536.0Q109 531 100 527Q102 541 104.0 556.5Q106 572 106 588Q106 615 100 640Q109 636 144.0 631.5Q179 627 231.5 621.5Q284 616 343.5 611.0Q403 606 461.0 602.0Q519 598 565.5 595.5Q612 593 637 593Q671 619 713.5 653.5Q756 688 799.0 727.5Q842 767 877 806L899 794Q873 736 838.5 680.5Q804 625 779 584Q794 565 814.5 535.0Q835 505 855 472L877 496L899 484L876 438Q882 428 888.0 418.5Q894 409 899 399L877 384L857 402Q836 366 815.5 333.0Q795 300 779 274Q795 253 816.0 222.5Q837 192 859.0 157.0Q881 122 899 89ZM926 -43Q928 -29 930.0 -13.5Q932 2 932 18Q932 45 926 70Q933 67 978.5 63.0Q1024 59 1095.0 54.5Q1166 50 1252.0 45.5Q1338 41 1428.0 37.0Q1518 33 1599.5 30.0Q1681 27 1743 25Q1679 47 1601.5 72.5Q1524 98 1443.0 124.0Q1362 150 1286.0 174.5Q1210 199 1147.5 218.0Q1085 237 1045.5 248.0Q1006 259 998 259Q1012 282 1022.0 306.5Q1032 331 1036 359Q1041 355 1070.0 341.0Q1099 327 1146.0 306.0Q1193 285 1251 260L1816 543Q1777 542 1712.0 540.0Q1647 538 1566.5 534.5Q1486 531 1400.0 527.5Q1314 524 1233.0 520.0Q1152 516 1085.0 511.5Q1018 507 975.5 503.5Q933 500 926 497Q928 511 930.0 526.5Q932 542 932 558Q932 585 926 610Q933 607 971.5 603.5Q1010 600 1072.0 596.0Q1134 592 1210.5 588.5Q1287 585 1368.5 581.0Q1450 577 1529.0 574.0Q1608 571 1675.5 568.5Q1743 566 1790.0 564.5Q1837 563 1855 563L1868 537L1286 245Q1353 217 1426.5 186.0Q1500 155 1572.5 125.0Q1645 95 1709.0 69.0Q1773 43 1821 23H1855V9Q1874 2 1888.5 -3.5Q1903 -9 1910 -12L1903 -29Q1892 -24 1867.5 -16.0Q1843 -8 1809 3Q1769 2 1703.0 -0.5Q1637 -3 1557.0 -6.0Q1477 -9 1392.5 -13.0Q1308 -17 1228.0 -21.0Q1148 -25 1082.0 -29.0Q1016 -33 974.5 -36.5Q933 -40 926 -43ZM472 291Q468 334 462.5 376.0Q457 418 452.0 453.5Q447 489 442 510Q435 478 426.5 417.5Q418 357 412 295Q427 294 442.5 293.5Q458 293 472 291ZM377 298Q370 360 362.0 419.5Q354 479 347 510Q340 479 332.0 421.5Q324 364 317 303Q332 302 347.0 301.0Q362 300 377 298ZM281 307Q274 367 266.5 423.0Q259 479 252 510Q245 480 237.5 425.5Q230 371 223 312Z" />
  </g>
</svg>