<svg xmlns="http://www.w3.org/2000/svg" viewBox="100 -460 1029 1450">
  <g transform="translate(0, 530) scale(1, -1)">
    <path fill="black" d="M268 -460Q246 -405 205 -359Q249 -348 304.5 -324.0Q360 -300 419.5 -269.0Q479 -238 534 -208Q536 -197 537.0 -187.0Q538 -177 539 -167Q472 -129 404 -95Q369 -121 334.5 -154.0Q300 -187 268 -225Q248 -174 205 -124Q241 -115 277.5 -101.0Q314 -87 350 -69Q279 -32 210 -15Q201 -101 193.5 -187.5Q186 -274 186 -360H165Q164 -286 159.0 -203.0Q154 -120 145.0 -38.5Q136 43 124.5 112.5Q113 182 100 230Q133 223 166.5 221.5Q200 220 233 226L252 253Q234 288 205 321Q244 330 300.0 354.0Q356 378 417.5 409.5Q479 441 534 472L539 512Q505 531 471.5 549.5Q438 568 404 585Q330 529 268 455Q246 507 205 556Q241 565 277.5 579.0Q314 593 350 611Q315 628 280.0 641.5Q245 655 210 665Q201 579 193.5 492.5Q186 406 186 320H165Q162 468 148.5 615.0Q135 762 100 910Q165 894 233 906Q247 923 259.5 944.0Q272 965 282 990Q329 932 395.0 878.5Q461 825 538 766Q641 731 761.0 713.5Q881 696 996 696V674Q880 674 757.0 661.5Q634 649 530 618Q536 654 539 690L437 611L539 532Q536 567 530 599Q589 577 665.5 560.5Q742 544 827.0 535.0Q912 526 996 526V504Q919 504 836.0 498.0Q753 492 674.5 480.0Q596 468 530 448Q476 406 422.0 364.0Q368 322 314 272Q366 223 423.0 176.5Q480 130 538 86Q651 48 766.0 33.0Q881 18 996 16V-6Q880 -8 761.0 -18.0Q642 -28 530 -62Q536 -26 539 10Q514 -9 488.5 -29.0Q463 -49 437 -69L539 -148Q537 -114 530 -81Q592 -104 671.0 -120.5Q750 -137 834.5 -145.5Q919 -154 996 -154V-176Q880 -176 763.0 -188.0Q646 -200 530 -232V-231Q488 -264 439.5 -301.5Q391 -339 346.0 -379.0Q301 -419 268 -460ZM1042 -385Q1042 -299 1028.0 -212.0Q1014 -125 979 -40Q994 -41 1009.0 -43.0Q1024 -45 1039 -47Q1035 21 1019.5 93.0Q1004 165 979 227Q995 224 1010.5 222.0Q1026 220 1042 220Q1042 289 1034.5 366.0Q1027 443 1013.0 515.0Q999 587 979 640Q994 637 1009.0 635.0Q1024 633 1039 633Q1035 701 1020.5 770.0Q1006 839 979 907Q1054 894 1129 907Q1101 839 1086.0 770.0Q1071 701 1064 633Q1081 633 1097.0 635.0Q1113 637 1129 640Q1095 544 1080.0 434.5Q1065 325 1060 220Q1077 220 1094.5 222.0Q1112 224 1129 227Q1100 157 1086.0 89.0Q1072 21 1064 -47Q1081 -45 1097.0 -43.0Q1113 -41 1129 -40Q1095 -121 1077.5 -210.0Q1060 -299 1060 -385ZM404 637Q472 670 539 709L535 745Q462 787 389.0 821.5Q316 856 244 883Q223 778 211 673Q243 710 268 767Q296 732 331.0 699.0Q366 666 404 637ZM404 -43Q438 -25 471.5 -7.0Q505 11 539 29Q538 38 537.0 47.0Q536 56 535 65Q462 106 389.5 141.5Q317 177 244 203Q223 98 211 -7Q249 39 268 87Q299 50 333.0 17.5Q367 -15 404 -43Z" />
  </g>
</svg>