<svg xmlns="http://www.w3.org/2000/svg" viewBox="100 -131 1676 950">
  <g transform="translate(0, 688) scale(1, -1)">
    <path fill="black" d="M1239 -131Q1218 -91 1195.0 -62.0Q1172 -33 1141 -8Q1152 -4 1168.0 2.0Q1184 8 1203 17Q1202 26 1200.5 36.5Q1199 47 1198 60Q1073 59 978.5 52.5Q884 46 813.0 35.0Q742 24 688.5 10.0Q635 -4 592.0 -20.0Q549 -36 510 -52Q515 -26 517.5 3.0Q520 32 520 63Q520 92 517.5 122.5Q515 153 510 183Q551 166 605.5 149.0Q660 132 738.5 118.0Q817 104 928.5 95.0Q1040 86 1195 86Q1191 130 1186.5 186.0Q1182 242 1177.0 302.5Q1172 363 1167.5 420.5Q1163 478 1158 526Q1015 523 913.0 512.5Q811 502 738.0 486.5Q665 471 611.0 452.5Q557 434 510 415Q515 441 517.5 470.0Q520 499 520 530Q520 559 517.5 589.5Q515 620 510 650Q563 628 645.5 605.5Q728 583 853.0 567.5Q978 552 1156 549Q1152 585 1148.0 610.0Q1144 635 1141 644Q1160 641 1178.5 638.5Q1197 636 1216 636Q1227 636 1239.0 637.0Q1251 638 1262 640Q1223 660 1192.0 675.0Q1161 690 1141 696Q1172 722 1195.0 750.5Q1218 779 1239 819Q1250 801 1284.5 766.5Q1319 732 1369.0 687.5Q1419 643 1476.5 594.5Q1534 546 1590.5 499.0Q1647 452 1695.5 411.5Q1744 371 1776 344Q1744 317 1695.5 276.5Q1647 236 1590.5 189.0Q1534 142 1476.5 93.5Q1419 45 1369.0 0.5Q1319 -44 1284.5 -78.0Q1250 -112 1239 -131ZM508 -120Q358 41 262.0 150.0Q166 259 100 319Q161 380 222.0 446.0Q283 512 352.5 589.0Q422 666 508 758L529 743Q447 612 388.5 502.5Q330 393 292 319Q324 256 384.0 144.5Q444 33 529 -105ZM1217 24Q1261 46 1315.5 78.0Q1370 110 1429.5 146.5Q1489 183 1547.5 219.5Q1606 256 1656.5 288.5Q1707 321 1743 345Q1703 371 1646.5 407.0Q1590 443 1525.5 483.5Q1461 524 1396.5 562.5Q1332 601 1276 632Q1271 611 1266.0 566.5Q1261 522 1255.0 463.5Q1249 405 1243.5 341.5Q1238 278 1233.0 216.5Q1228 155 1224.0 104.5Q1220 54 1217 24Z" />
  </g>
</svg>