<svg xmlns="http://www.w3.org/2000/svg" viewBox="100 -120 849 878">
  <g transform="translate(0, 638) scale(1, -1)">
    <path fill="black" d="M928 -120Q778 41 682.0 150.0Q586 259 520 319Q581 380 642.0 446.0Q703 512 772.5 589.0Q842 666 928 758L949 743Q867 612 808.5 502.5Q750 393 712 319Q744 256 804.0 144.5Q864 33 949 -105ZM508 -120Q358 41 262.0 150.0Q166 259 100 319Q161 380 222.0 446.0Q283 512 352.5 589.0Q422 666 508 758L529 743Q447 612 388.5 502.5Q330 393 292 319Q324 256 384.0 144.5Q444 33 529 -105ZM718 -120Q568 41 472.0 150.0Q376 259 310 319Q371 380 432.0 446.0Q493 512 562.5 589.0Q632 666 718 758L739 743Q657 612 598.5 502.5Q540 393 502 319Q534 256 594.0 144.5Q654 33 739 -105Z" />
  </g>
</svg>