<svg xmlns="http://www.w3.org/2000/svg" viewBox="100 -253 1239 1140">
  <g transform="translate(0, 634) scale(1, -1)">
    <path fill="black" d="M384 -253Q279 -142 212.0 -66.0Q145 10 100 52Q157 108 214.0 171.5Q271 235 346 317Q258 412 199.5 478.0Q141 544 100 582Q143 624 185.0 670.0Q227 716 275.5 769.5Q324 823 384 887L397 877Q341 786 300.5 710.0Q260 634 234 582Q253 544 286.5 480.5Q320 417 366 338L384 357L397 347Q392 340 387.5 332.5Q383 325 378 317Q383 310 387.5 302.5Q392 295 397 287L384 277L366 296Q322 221 289.5 158.5Q257 96 234 52Q256 8 297.5 -69.5Q339 -147 397 -243ZM883 -247Q883 -229 881.0 -189.5Q879 -150 875.5 -97.0Q872 -44 868.0 14.0Q864 72 859.0 128.0Q854 184 849.0 231.0Q844 278 839.5 307.5Q835 337 831 341Q855 335 881 335Q879 373 876.0 425.5Q873 478 868.5 537.0Q864 596 859.0 653.0Q854 710 849.0 758.0Q844 806 839.5 836.5Q835 867 831 871Q858 865 888 865Q918 865 952 871Q948 867 943.5 836.5Q939 806 933.5 758.5Q928 711 923.0 653.5Q918 596 913.0 537.0Q908 478 904.5 425.5Q901 373 899 335Q904 335 908.5 335.0Q913 335 917 336Q943 369 967.5 401.5Q992 434 1015 466Q1012 505 1006.5 554.5Q1001 604 993.5 651.5Q986 699 978.5 732.5Q971 766 966 773Q993 766 1023 766Q1038 766 1054.0 767.5Q1070 769 1087 773Q1082 767 1075.5 738.5Q1069 710 1062.0 669.0Q1055 628 1049.0 583.0Q1043 538 1039 499Q1085 564 1123.0 623.5Q1161 683 1187 733Q1175 788 1161.0 822.0Q1147 856 1134 871Q1163 865 1192 865Q1222 865 1256 871Q1245 858 1231.5 827.5Q1218 797 1207 750Q1239 717 1270.5 689.5Q1302 662 1339 641Q1289 613 1225.0 568.0Q1161 523 1091.0 465.5Q1021 408 952 341Q947 325 941.5 287.0Q936 249 930.0 197.0Q924 145 919.0 86.5Q914 28 910.0 -29.5Q906 -87 903.0 -136.0Q900 -185 898 -218Q929 -178 958.5 -139.5Q988 -101 1015 -64Q1012 -25 1006.5 24.5Q1001 74 993.5 121.5Q986 169 978.5 202.5Q971 236 966 243Q993 236 1023 236Q1038 236 1054.0 237.5Q1070 239 1087 243Q1082 237 1075.5 208.5Q1069 180 1062.0 139.0Q1055 98 1049.0 53.0Q1043 8 1039 -31Q1085 34 1123.0 93.5Q1161 153 1187 203Q1175 258 1161.0 292.0Q1147 326 1134 341Q1163 335 1192 335Q1222 335 1256 341Q1245 328 1231.5 297.5Q1218 267 1207 220Q1239 187 1270.5 159.5Q1302 132 1339 111Q1282 79 1208.5 26.0Q1135 -27 1055.0 -95.5Q975 -164 898 -243V-247ZM569 -247Q569 -207 568.5 -171.5Q568 -136 567 -104Q520 -110 489.0 -118.5Q458 -127 429.0 -137.5Q400 -148 357 -160Q361 -142 363.0 -123.5Q365 -105 365 -86Q365 -67 363.0 -48.0Q361 -29 357 -9Q393 -19 421.0 -29.0Q449 -39 482.5 -47.5Q516 -56 565 -62Q559 65 546 149Q507 143 479.0 135.0Q451 127 423.5 118.0Q396 109 357 98Q365 135 365 171Q365 190 363.0 209.0Q361 228 357 248Q389 239 415.0 230.0Q441 221 469.5 213.5Q498 206 538 199Q531 237 522.0 272.0Q513 307 503 341Q519 337 535.5 335.5Q552 334 569 333L567 425Q520 419 489.0 410.5Q458 402 429.0 392.0Q400 382 357 370Q361 388 363.0 406.5Q365 425 365 444Q365 463 363.0 482.0Q361 501 357 521Q393 511 421.0 501.0Q449 491 482.5 482.5Q516 474 565 467Q559 595 546 679Q507 673 479.0 665.0Q451 657 423.5 648.0Q396 639 357 628Q365 665 365 701Q365 720 363.0 739.0Q361 758 357 778Q389 769 415.0 760.0Q441 751 469.5 743.5Q498 736 538 729Q531 767 522.0 802.0Q513 837 503 871Q540 863 576 863Q595 863 614.0 865.0Q633 867 653 871Q644 838 635.0 801.0Q626 764 618 719Q661 716 717.0 714.0Q773 712 847 712V693Q768 693 711.0 691.0Q654 689 613 686Q599 599 591 464Q636 460 698.0 457.5Q760 455 847 455V437Q756 437 694.5 435.0Q633 433 589 428L587 333Q604 334 620.0 336.0Q636 338 653 341Q644 308 635.0 271.0Q626 234 618 189Q661 186 717.0 184.0Q773 182 847 182V163Q768 163 711.0 161.0Q654 159 613 156Q606 111 600.5 56.5Q595 2 591 -65Q636 -69 698.0 -72.0Q760 -75 847 -75V-93Q756 -93 694.5 -95.0Q633 -97 589 -102Q588 -135 587.5 -171.0Q587 -207 587 -247Z" />
  </g>
</svg>