<svg xmlns="http://www.w3.org/2000/svg" viewBox="100 -253 647 1140">
  <g transform="translate(0, 634) scale(1, -1)">
    <path fill="black" d="M463 -253 450 -243Q509 -147 550.0 -69.5Q591 8 613 52Q591 96 558.0 158.5Q525 221 481 296L463 277L450 287L468 317L450 347L463 357L481 338Q528 417 561.0 480.5Q594 544 613 582Q587 634 546.5 710.0Q506 786 450 877L463 887Q524 823 572.0 769.5Q620 716 662.5 670.0Q705 624 747 582Q706 544 647.5 478.0Q589 412 500 317Q576 235 633.0 171.5Q690 108 747 52Q702 10 635.0 -66.0Q568 -142 463 -253ZM384 -253Q279 -142 212.0 -66.0Q145 10 100 52Q157 108 214.0 171.5Q271 235 346 317Q258 412 199.5 478.0Q141 544 100 582Q143 624 185.0 670.0Q227 716 275.5 769.5Q324 823 384 887L397 877Q341 786 300.5 710.0Q260 634 234 582Q253 544 286.5 480.5Q320 417 366 338L384 357L397 347Q392 340 387.5 332.5Q383 325 378 317Q383 310 387.5 302.5Q392 295 397 287L384 277L366 296Q322 221 289.5 158.5Q257 96 234 52Q256 8 297.5 -69.5Q339 -147 397 -243Z" />
  </g>
</svg>