<svg xmlns="http://www.w3.org/2000/svg" viewBox="100 -32 848 698">
  <g transform="translate(0, 634) scale(1, -1)">
    <path fill="black" d="M344 -32Q344 6 342.5 49.5Q341 93 339 139Q266 126 209.0 112.0Q152 98 100 84Q112 135 112 189Q112 243 100 300Q150 286 206.5 272.0Q263 258 333 246L323 376Q256 364 202.5 351.0Q149 338 100 324Q112 375 112 429Q112 483 100 540Q147 527 198.0 514.0Q249 501 312 490Q304 564 296.5 612.0Q289 660 284 666Q311 660 350 660Q390 660 424 666H425Q452 660 492 660Q531 660 565 666Q592 660 631 660Q670 660 704 666Q731 660 771 660Q811 660 845 666Q839 659 830.0 597.5Q821 536 812 446Q844 445 878.0 445.0Q912 445 948 445V419Q911 419 876.5 418.5Q842 418 810 417Q806 368 801.5 314.5Q797 261 793 207Q829 206 868.0 205.5Q907 205 948 205V179Q906 179 867.0 178.5Q828 178 791 177Q788 121 786.5 67.5Q785 14 785 -32H764Q764 14 762.0 67.5Q760 121 757 176Q729 175 703.0 174.0Q677 173 651 171Q648 116 646.5 64.5Q645 13 645 -32H624Q624 12 622.0 63.5Q620 115 617 169Q589 168 562.5 165.5Q536 163 511 161Q505 56 505 -32H484Q484 10 482.5 58.5Q481 107 478 158Q449 154 422.0 151.0Q395 148 370 144Q368 97 366.5 52.0Q365 7 365 -32ZM736 448Q727 536 718.5 596.5Q710 657 704 665Q699 658 690.0 598.0Q681 538 673 451ZM595 456Q587 541 578.5 599.5Q570 658 564 665Q559 658 550.5 601.0Q542 544 534 460Q549 459 564.0 458.0Q579 457 595 456ZM454 469Q446 549 437.5 603.5Q429 658 424 665Q419 658 411.5 605.5Q404 553 396 476Q410 475 424.0 473.0Q438 471 454 469ZM755 207Q752 260 748.0 313.0Q744 366 739 415L669 412Q665 365 661.0 314.5Q657 264 654 212Q678 211 703.5 209.5Q729 208 755 207ZM615 214Q612 264 608.0 313.0Q604 362 600 408Q581 407 563.0 406.0Q545 405 528 403Q524 360 520.5 314.5Q517 269 514 222ZM474 226Q472 270 468.5 313.0Q465 356 461 396Q442 394 423.0 391.5Q404 389 387 386L375 239Q398 236 423.0 232.5Q448 229 474 226Z" />
  </g>
</svg>