<svg xmlns="http://www.w3.org/2000/svg" viewBox="100 -282 835 1040">
  <g transform="translate(0, 476) scale(1, -1)">
    <path fill="black" d="M514 -282Q514 -246 513.0 -206.0Q512 -166 510 -125Q485 -105 456 -89L468 -82Q420 -38 368.0 8.0Q316 54 265.0 95.5Q214 137 171.5 168.5Q129 200 100 214Q149 241 190 284Q169 306 147.5 322.5Q126 339 100 354Q129 368 171.5 399.0Q214 430 264.0 471.5Q314 513 366.5 559.0Q419 605 467 649L456 655Q491 675 518.5 699.0Q546 723 574 758Q583 734 612.5 691.0Q642 648 683.5 594.0Q725 540 771.0 483.0Q817 426 860.5 374.0Q904 322 935 283Q904 244 860.5 192.0Q817 140 771.0 83.0Q725 26 683.5 -28.0Q642 -82 612.5 -125.0Q583 -168 574 -192Q564 -179 554.5 -168.0Q545 -157 534 -147Q531 -217 531 -282ZM501 -62 506 -58Q502 5 497.0 64.5Q492 124 486.0 173.0Q480 222 475.0 254.0Q470 286 466 294Q493 289 524 289Q552 289 579 294Q575 284 568.5 236.0Q562 188 554.5 117.5Q547 47 541 -33Q583 -3 631.0 37.0Q679 77 728.5 120.5Q778 164 823.5 206.0Q869 248 905 283Q864 322 811.0 370.5Q758 419 702.0 467.5Q646 516 593.5 558.5Q541 601 500 628Q464 585 425.0 537.0Q386 489 349.0 442.5Q312 396 282.5 355.0Q253 314 235 284Q253 254 283.0 212.5Q313 171 350.0 124.0Q387 77 426.0 29.5Q465 -18 501 -62Z" />
  </g>
</svg>