<svg xmlns="http://www.w3.org/2000/svg" viewBox="100 -323 849 1059">
  <g transform="translate(0, 413) scale(1, -1)">
    <path fill="black" d="M692 -323 667 -316Q678 -275 686.0 -237.5Q694 -200 701 -166Q526 -103 369.5 -62.5Q213 -22 100 -9Q160 91 180 189L201 170Q204 185 205.0 197.0Q206 209 206 219Q206 231 204.5 242.5Q203 254 201 268L180 249Q160 347 100 447Q175 456 256.5 471.5Q338 487 433.0 513.0Q528 539 641 579Q625 604 608.0 628.0Q591 652 574 675Q625 681 675.0 696.0Q725 711 780 736Q782 659 787.5 580.5Q793 502 808.5 408.5Q824 315 854 192Q878 185 901.5 180.0Q925 175 949 173Q903 112 860.5 43.5Q818 -25 777.0 -113.0Q736 -201 692 -323ZM601 223Q584 268 556 303Q591 308 619.5 312.0Q648 316 681.0 325.5Q714 335 761 355Q735 414 709.0 463.0Q683 512 657 555Q503 481 395.0 411.5Q287 342 207 273Q250 258 315.5 248.5Q381 239 456.0 233.5Q531 228 601 223ZM738 109Q740 141 741.0 172.0Q742 203 743 234Q782 215 823 201Q809 239 795.5 273.5Q782 308 768 339Q729 314 704.0 294.0Q679 274 660.0 255.5Q641 237 618 215Q648 187 672.0 162.5Q696 138 738 109ZM706 -137Q718 -74 725.0 -20.0Q732 34 736 84Q697 99 668.5 106.5Q640 114 614.0 118.0Q588 122 556 127Q570 144 581.0 163.5Q592 183 601 206Q549 204 492.0 201.0Q435 198 380.0 193.5Q325 189 280.0 182.0Q235 175 207 165Q292 94 422.0 15.5Q552 -63 706 -137Z" />
  </g>
</svg>