<svg xmlns="http://www.w3.org/2000/svg" viewBox="100 -323 849 1059">
  <g transform="translate(0, 413) scale(1, -1)">
    <path fill="black" d="M692 -323 667 -316Q678 -275 686.0 -237.5Q694 -200 701 -166Q526 -103 369.5 -62.5Q213 -22 100 -9Q160 91 180 189Q235 139 315.5 84.0Q396 29 495.5 -27.0Q595 -83 706 -137Q718 -72 725.0 -17.0Q732 38 736 89Q681 85 641.0 79.5Q601 74 567 66Q569 73 569.5 79.5Q570 86 571 93Q509 89 471.0 83.5Q433 78 397 69L381 54Q327 104 289.5 134.5Q252 165 224.5 184.0Q197 203 173 219Q191 231 208.5 241.5Q226 252 247.5 266.5Q269 281 298.5 305.0Q328 329 370 367L386 356L383 373Q410 365 436.0 359.5Q462 354 494.0 350.0Q526 346 571 343Q570 351 569.5 358.5Q569 366 567 373Q605 362 652.0 355.5Q699 349 766 344Q738 407 711.5 458.5Q685 510 657 555Q491 475 377.0 400.0Q263 325 180 249Q160 347 100 447Q175 456 256.5 471.5Q338 487 433.0 513.0Q528 539 641 579Q625 604 608.0 628.0Q591 652 574 675Q625 681 675.0 696.0Q725 711 780 736Q782 676 785.0 615.5Q788 555 796.5 488.0Q805 421 820 341Q847 340 877.5 339.0Q908 338 942 336V325L825 318L837 265Q861 264 887.0 263.0Q913 262 942 261V250Q914 248 889.0 247.0Q864 246 841 244L854 192L860 190L942 187V176Q939 175 936.0 175.0Q933 175 930 175Q935 174 940.0 173.5Q945 173 949 173Q938 159 927.5 144.0Q917 129 907 115Q915 114 924.0 114.0Q933 114 942 114V103L896 100Q861 48 827.5 -12.5Q794 -73 761.0 -148.5Q728 -224 692 -323ZM387 89Q388 101 387.5 114.0Q387 127 385 140H383Q383 143 384 145Q383 147 383 151L385 150Q386 158 386.5 165.5Q387 173 387 181Q387 189 386.5 197.0Q386 205 385 213H383Q383 216 384 218Q383 220 383 224L385 223Q386 231 386.5 239.0Q387 247 387 255Q387 263 386.5 271.5Q386 280 385 288H383Q383 291 384 292Q383 294 383 298L385 297Q389 323 386 352Q372 331 356.0 304.5Q340 278 327.5 255.0Q315 232 308 219Q314 208 327.0 185.5Q340 163 356.5 137.0Q373 111 387 89ZM798 267 778 315Q713 311 668.0 305.5Q623 300 586 292Q625 282 675.0 276.5Q725 271 798 267ZM571 267 569 288H567Q567 291 568 292Q567 294 567 298L569 297L571 315Q510 311 473.0 306.0Q436 301 401 292Q436 283 473.5 277.0Q511 271 571 267ZM742 197Q742 206 742.0 215.0Q742 224 743 234Q782 215 823 201L808 241Q732 237 680.5 231.5Q629 226 588 218Q619 211 656.0 206.0Q693 201 742 197ZM571 194 569 213H567Q567 216 568 218Q567 220 567 224L569 223L571 240Q511 236 474.5 231.0Q438 226 403 218Q438 209 475.0 203.5Q512 198 571 194ZM571 120 569 140H567Q567 143 568 145Q567 147 567 151L569 150L571 166Q511 162 474.5 157.5Q438 153 403 145Q438 135 475.0 129.5Q512 124 571 120ZM739 123Q740 134 740.0 143.5Q740 153 740 163Q692 160 655.5 155.5Q619 151 588 145Q619 138 655.0 132.5Q691 127 739 123Z" />
  </g>
</svg>