<svg xmlns="http://www.w3.org/2000/svg" viewBox="100 -323 855 1059">
  <g transform="translate(0, 413) scale(1, -1)">
    <path fill="black" d="M698 -323 673 -316Q684 -273 692.5 -234.5Q701 -196 708 -161Q592 -126 480.0 -99.0Q368 -72 271.0 -55.0Q174 -38 100 -33Q154 71 170 168Q226 122 310.5 71.0Q395 20 498.5 -31.5Q602 -83 714 -131Q734 -23 740.5 63.0Q747 149 749 234Q788 215 829 201Q786 317 746.0 400.5Q706 484 665 551Q564 506 469.5 458.0Q375 410 298.0 363.0Q221 316 170 274Q154 371 100 475Q166 480 253.0 495.0Q340 510 440.0 533.0Q540 556 644 585Q628 608 612.5 630.5Q597 653 580 675Q631 681 681.0 696.0Q731 711 786 736Q788 659 793.5 580.5Q799 502 814.5 408.5Q830 315 860 192Q884 185 907.5 180.0Q931 175 955 173Q909 112 866.5 43.5Q824 -25 783.0 -113.0Q742 -201 698 -323ZM419 47Q361 100 321.5 132.0Q282 164 253.5 184.5Q225 205 199 221Q218 234 236.5 245.5Q255 257 278.0 272.5Q301 288 332.0 313.0Q363 338 407 378L426 366Q411 344 395.0 317.0Q379 290 365.0 265.5Q351 241 343 225Q361 237 378.5 248.0Q396 259 418.5 274.5Q441 290 471.5 314.5Q502 339 544 378L563 366Q548 345 532.0 318.5Q516 292 502.5 267.5Q489 243 481 227Q505 243 529.5 258.0Q554 273 590.0 300.0Q626 327 681 378L701 366Q685 343 668.0 314.5Q651 286 637.5 260.5Q624 235 617 221Q624 208 640.5 179.5Q657 151 677.0 119.5Q697 88 712 66L693 47Q639 97 600.5 128.5Q562 160 534.0 180.0Q506 200 481 215Q490 200 506.5 172.5Q523 145 542.0 116.0Q561 87 575 66L556 47Q501 98 462.0 129.5Q423 161 395.0 181.0Q367 201 343 217Q352 202 368.5 174.5Q385 147 404.0 117.0Q423 87 438 66Z" />
  </g>
</svg>