<svg xmlns="http://www.w3.org/2000/svg" viewBox="100 -323 1288 1059">
  <g transform="translate(0, 413) scale(1, -1)">
    <path fill="black" d="M1131 -323 1106 -316Q1117 -273 1125.5 -234.5Q1134 -196 1141 -160Q1025 -125 913.0 -98.5Q801 -72 704.0 -55.0Q607 -38 533 -33Q543 -13 552.0 5.5Q561 24 568 43Q506 42 435.5 38.5Q365 35 298.0 29.0Q231 23 178.5 15.5Q126 8 100 0Q102 11 103.0 27.5Q104 44 104 61Q104 73 103.0 85.0Q102 97 100 107Q126 99 180.0 91.5Q234 84 302.5 78.0Q371 72 442.5 68.0Q514 64 576 64Q594 115 603 168Q659 122 743.5 71.0Q828 20 931.5 -31.0Q1035 -82 1147 -130Q1167 -22 1173.5 63.5Q1180 149 1182 234Q1221 215 1262 201Q1219 317 1179.0 400.5Q1139 484 1098 551Q996 506 902.0 458.0Q808 410 731.0 363.0Q654 316 603 274Q599 299 592.5 323.5Q586 348 578 373Q516 372 444.0 368.5Q372 365 303.0 359.0Q234 353 180.0 345.5Q126 338 100 330Q102 341 103.0 357.5Q104 374 104 391Q104 403 103.0 415.0Q102 427 100 437Q126 429 179.0 421.5Q232 414 299.0 408.0Q366 402 437.0 398.5Q508 395 570 394Q563 414 553.5 434.0Q544 454 533 475Q599 480 685.5 495.0Q772 510 872.5 533.0Q973 556 1077 585Q1061 608 1045.5 630.5Q1030 653 1013 675Q1064 681 1114.0 696.0Q1164 711 1219 736Q1221 659 1226.5 580.5Q1232 502 1247.5 408.5Q1263 315 1293 192Q1317 185 1340.5 180.0Q1364 175 1388 173Q1342 112 1299.5 43.5Q1257 -25 1216.0 -113.0Q1175 -201 1131 -323ZM100 220Q102 231 103.0 247.5Q104 264 104 281Q104 293 103.0 305.0Q102 317 100 327Q122 320 163.0 314.0Q204 308 257.5 302.5Q311 297 370.0 293.0Q429 289 487.0 286.5Q545 284 594 284V263Q545 263 487.0 260.5Q429 258 370.0 254.0Q311 250 257.5 244.5Q204 239 163.0 233.0Q122 227 100 220ZM100 110Q102 121 103.0 137.5Q104 154 104 171Q104 183 103.0 195.0Q102 207 100 217Q122 210 163.0 204.0Q204 198 257.5 192.5Q311 187 370.0 183.0Q429 179 487.0 176.5Q545 174 594 174V153Q545 153 487.0 150.5Q429 148 370.0 144.0Q311 140 257.5 134.5Q204 129 163.0 123.0Q122 117 100 110Z" />
  </g>
</svg>