<svg xmlns="http://www.w3.org/2000/svg" viewBox="100 -323 849 1059">
  <g transform="translate(0, 413) scale(1, -1)">
    <path fill="black" d="M692 -323 667 -316Q678 -275 686.0 -237.5Q694 -200 701 -166Q647 -146 594.0 -129.0Q541 -112 491 -97L489 -100Q506 -128 521.0 -157.0Q536 -186 558 -221L542 -230Q499 -191 471.0 -168.0Q443 -145 423.0 -130.0Q403 -115 385 -100L419 -76L380 -65Q377 -69 374.5 -73.5Q372 -78 370 -83Q387 -111 402.0 -140.0Q417 -169 439 -204L423 -213Q381 -174 352.5 -151.0Q324 -128 304.0 -113.0Q284 -98 266 -83Q280 -74 291.0 -65.5Q302 -57 313 -49Q253 -35 199.5 -24.5Q146 -14 100 -9Q160 91 180 189Q221 152 277.0 111.0Q333 70 400 29Q405 34 411.0 39.0Q417 44 423 50L439 37Q435 31 431.5 25.5Q428 20 424 14Q439 6 453.5 -3.0Q468 -12 484 -20L542 33L558 20Q547 4 538.0 -11.5Q529 -27 521 -41Q565 -66 611.0 -90.0Q657 -114 706 -137Q727 -27 734.0 60.5Q741 148 743 234Q782 215 823 201Q780 318 739.5 402.5Q699 487 657 555Q607 531 562.5 507.0Q518 483 477 460Q484 448 491.5 435.5Q499 423 508 410L492 397L444 441L389 408Q391 404 393.5 400.5Q396 397 399 393L383 380L367 394Q312 357 266.0 321.0Q220 285 180 249Q160 347 100 447Q142 452 186.0 458.5Q230 465 277 475Q265 485 253.0 494.0Q241 503 226 513Q244 528 264.0 543.0Q284 558 312.5 581.5Q341 605 383 643L399 634Q381 607 368.5 583.5Q356 560 344 538Q360 551 379.5 565.5Q399 580 426.0 602.5Q453 625 492 660L508 651Q486 617 471.0 588.0Q456 559 439 530Q441 526 443.0 523.0Q445 520 447 516Q492 529 540.5 544.5Q589 560 641 579Q625 604 608.0 628.0Q591 652 574 675Q625 681 675.0 696.0Q725 711 780 736Q782 659 787.5 580.5Q793 502 808.5 408.5Q824 315 854 192Q878 185 901.5 180.0Q925 175 949 173Q903 112 860.5 43.5Q818 -25 777.0 -113.0Q736 -201 692 -323ZM343 490Q352 492 361.0 494.0Q370 496 379 498Q369 506 359.5 513.0Q350 520 338 528L330 513Z" />
  </g>
</svg>