<svg xmlns="http://www.w3.org/2000/svg" viewBox="100 -323 849 1059">
  <g transform="translate(0, 413) scale(1, -1)">
    <path fill="black" d="M692 -323 667 -316Q678 -275 686.0 -237.5Q694 -200 701 -166Q647 -146 594.0 -129.0Q541 -112 491 -97L489 -100Q506 -128 521.0 -157.0Q536 -186 558 -221L542 -230Q499 -191 471.0 -168.0Q443 -145 423.0 -130.0Q403 -115 385 -100L419 -76L380 -65Q377 -69 374.5 -73.5Q372 -78 370 -83Q387 -111 402.0 -140.0Q417 -169 439 -204L423 -213Q381 -174 352.5 -151.0Q324 -128 304.0 -113.0Q284 -98 266 -83Q280 -74 291.0 -65.5Q302 -57 313 -49Q253 -35 199.5 -24.5Q146 -14 100 -9Q160 91 180 189L192 177Q194 190 195.0 200.5Q196 211 196 220Q196 240 192 260L180 249Q160 347 100 447Q142 452 186.0 458.5Q230 465 277 475Q265 485 253.0 494.0Q241 503 226 513Q244 528 264.0 543.0Q284 558 312.5 581.5Q341 605 383 643L399 634Q381 607 368.5 583.5Q356 560 344 538Q360 551 379.5 565.5Q399 580 426.0 602.5Q453 625 492 660L508 651Q486 617 471.0 588.0Q456 559 439 530Q441 526 443.0 523.0Q445 520 447 516Q492 529 540.5 544.5Q589 560 641 579Q625 604 608.0 628.0Q591 652 574 675Q625 681 675.0 696.0Q725 711 780 736Q782 659 787.5 580.5Q793 502 808.5 408.5Q824 315 854 192Q878 185 901.5 180.0Q925 175 949 173Q903 112 860.5 43.5Q818 -25 777.0 -113.0Q736 -201 692 -323ZM571 223Q554 268 526 303Q564 308 594.5 313.0Q625 318 662.5 329.5Q700 341 756 366Q731 422 706.5 468.0Q682 514 657 555Q607 531 562.5 507.0Q518 483 477 460Q484 448 491.5 435.5Q499 423 508 410L492 397L444 441L389 408Q391 404 393.5 400.5Q396 397 399 393L383 380L367 394Q321 363 280.5 332.0Q240 301 204 270Q247 255 306.5 247.0Q366 239 434.5 233.5Q503 228 571 223ZM343 490Q352 492 361.0 494.0Q370 496 379 498Q369 506 359.5 513.0Q350 520 338 528L330 513ZM736 91Q739 128 740.5 163.0Q742 198 743 234Q782 215 823 201Q807 244 791.5 282.0Q776 320 761 354Q712 325 683.5 302.5Q655 280 634.5 259.5Q614 239 588 215Q611 193 630.0 174.0Q649 155 673.5 135.5Q698 116 736 91ZM706 -137Q717 -78 724.0 -26.5Q731 25 735 72Q687 93 653.0 102.5Q619 112 590.0 117.0Q561 122 526 127Q540 144 551.0 163.5Q562 183 571 206Q504 204 433.5 199.5Q363 195 302.0 188.0Q241 181 203 168Q242 135 292.0 100.0Q342 65 400 29Q405 34 411.0 39.0Q417 44 423 50L439 37Q435 31 431.5 25.5Q428 20 424 14Q439 6 453.5 -3.0Q468 -12 484 -20L542 33L558 20Q547 4 538.0 -11.5Q529 -27 521 -41Q565 -66 611.0 -90.0Q657 -114 706 -137Z" />
  </g>
</svg>