<svg xmlns="http://www.w3.org/2000/svg" viewBox="100 -110 1193 848">
  <g transform="translate(0, 628) scale(1, -1)">
    <path fill="black" d="M1170 -110Q1170 -88 1169.5 -65.0Q1169 -42 1168 -18Q1076 -18 978.0 -24.5Q880 -31 787.0 -42.5Q694 -54 616.0 -68.0Q538 -82 485 -98Q491 -68 494.5 -39.5Q498 -11 498 15Q498 41 494.5 67.0Q491 93 485 118Q522 105 572.0 92.5Q622 80 681 68Q680 112 678.5 168.0Q677 224 673.5 283.5Q670 343 665.0 397.5Q660 452 653.5 494.0Q647 536 639 556Q665 550 687 550Q699 550 711.5 551.5Q724 553 739 555V556Q740 556 740.5 555.5Q741 555 742 555Q743 555 743.5 555.5Q744 556 745 556L744 555Q756 553 767.0 551.5Q778 550 789 550Q801 550 813.0 551.5Q825 553 839 555V556Q840 556 840.5 555.5Q841 555 842 555Q843 555 843.5 555.5Q844 556 845 556L844 555Q856 553 867.0 551.5Q878 550 889 550Q901 550 913.0 551.5Q925 553 939 555V556Q940 556 940.5 555.5Q941 555 942 555Q943 555 943.5 555.5Q944 556 945 556L944 555Q956 553 967.0 551.5Q978 550 989 550Q1014 550 1045 556Q1038 538 1031.5 491.5Q1025 445 1019.5 382.5Q1014 320 1010.5 252.5Q1007 185 1005.0 124.5Q1003 64 1003 22Q1045 18 1086.0 16.0Q1127 14 1167 14Q1163 106 1154.5 209.0Q1146 312 1134.0 413.5Q1122 515 1106 601Q973 599 855.5 587.5Q738 576 644.0 559.0Q550 542 485 522Q491 552 494.5 580.5Q498 609 498 635Q498 661 494.5 687.0Q491 713 485 738Q550 716 642.5 694.0Q735 672 850.5 656.0Q966 640 1100 635Q1094 664 1088.5 689.0Q1083 714 1077 736Q1128 724 1182 724Q1236 724 1293 736Q1279 686 1265.5 607.5Q1252 529 1240.5 434.5Q1229 340 1219.5 241.5Q1210 143 1205.0 52.0Q1200 -39 1200 -110ZM781 50Q781 91 779.5 145.5Q778 200 775.0 260.0Q772 320 767.5 376.5Q763 433 756.5 478.0Q750 523 742 548Q735 527 729.5 484.5Q724 442 719.5 387.5Q715 333 711.5 274.5Q708 216 706.0 161.0Q704 106 703 64Q722 60 741.5 56.5Q761 53 781 50ZM881 35Q881 77 879.5 133.5Q878 190 875.0 252.0Q872 314 867.5 372.5Q863 431 856.5 477.0Q850 523 842 548Q835 526 829.0 481.0Q823 436 818.5 378.5Q814 321 810.5 259.5Q807 198 805.0 142.5Q803 87 803 46ZM981 24Q981 64 979.5 121.5Q978 179 975.0 242.5Q972 306 967.5 366.5Q963 427 956.5 475.0Q950 523 942 548Q935 526 929.0 480.0Q923 434 918.5 375.0Q914 316 910.5 253.0Q907 190 905.0 132.5Q903 75 903 33ZM100 118Q106 148 109.5 173.5Q113 199 113 221Q113 244 109.5 266.5Q106 289 100 314Q135 298 184.0 276.5Q233 255 305.0 238.5Q377 222 479 220Q478 264 474.5 310.0Q471 356 466 397Q369 396 299.5 385.0Q230 374 182.0 359.0Q134 344 100 328Q106 358 109.5 383.5Q113 409 113 431Q113 454 109.5 476.5Q106 499 100 524Q134 508 181.0 487.5Q228 467 296.5 450.5Q365 434 461 430Q457 460 451.5 485.0Q446 510 439 526Q466 520 488 520Q512 520 545 526Q536 504 528.0 457.5Q520 411 514.5 352.0Q509 293 506.0 233.0Q503 173 503 123H481Q481 138 480.5 154.5Q480 171 480 188Q378 187 306.0 176.5Q234 166 184.5 150.0Q135 134 100 118Z" />
  </g>
</svg>