<svg xmlns="http://www.w3.org/2000/svg" viewBox="100 -110 1193 848">
  <g transform="translate(0, 628) scale(1, -1)">
    <path fill="black" d="M1170 -110Q1170 -88 1169.5 -65.0Q1169 -42 1168 -18Q1076 -18 978.0 -24.5Q880 -31 787.0 -42.5Q694 -54 616.0 -68.0Q538 -82 485 -98Q491 -68 494.5 -39.5Q498 -11 498 15Q498 41 494.5 67.0Q491 93 485 118Q553 95 661 72Q660 110 658.5 155.5Q657 201 655 249Q640 245 628.0 240.0Q616 235 605 229Q607 240 608.0 249.5Q609 259 609 269Q609 279 608.0 289.5Q607 300 605 313Q616 307 627.5 302.0Q639 297 653 293Q650 349 645.0 401.0Q640 453 634.0 493.5Q628 534 620 554Q543 539 485 522Q491 552 494.5 580.5Q498 609 498 635Q498 661 494.5 687.0Q491 713 485 738Q550 716 642.5 694.0Q735 672 850.5 656.0Q966 640 1100 635Q1094 664 1088.5 689.0Q1083 714 1077 736Q1128 724 1182 724Q1236 724 1293 736Q1279 686 1265.5 607.5Q1252 529 1240.5 434.5Q1229 340 1219.5 241.5Q1210 143 1205.0 52.0Q1200 -39 1200 -110ZM1063 425Q1057 466 1049 486Q1060 484 1069.5 482.5Q1079 481 1089 481Q1106 481 1125 484Q1121 515 1116.0 544.5Q1111 574 1106 601Q965 598 842.5 585.5Q720 573 624 555Q636 553 647.0 551.5Q658 550 669 550Q681 550 693.0 551.5Q705 553 719 555V556Q720 556 720.5 555.5Q721 555 722 555Q723 555 723.5 555.5Q724 556 725 556L724 555Q736 553 747.0 551.5Q758 550 769 550Q781 550 793.0 551.5Q805 553 819 555V556Q820 556 820.5 555.5Q821 555 822 555Q823 555 823.5 555.5Q824 556 825 556L824 555Q836 553 847.0 551.5Q858 550 869 550Q881 550 893.0 551.5Q905 553 919 555V556Q920 556 920.5 555.5Q921 555 922 555Q923 555 923.5 555.5Q924 556 925 556L924 555Q936 553 947.0 551.5Q958 550 969 550Q994 550 1025 556Q1019 542 1014.0 507.5Q1009 473 1004 427Q1020 426 1035.0 425.5Q1050 425 1063 425ZM941 430Q937 468 932.5 499.0Q928 530 922 548Q917 532 912.5 501.5Q908 471 904 432Q914 431 923.0 430.5Q932 430 941 430ZM841 437Q833 511 822 548Q817 532 813.0 504.0Q809 476 805 440ZM740 448Q736 480 731.5 506.0Q727 532 722 548Q718 534 714.0 510.0Q710 486 706 455Q713 453 721.5 451.5Q730 450 740 448ZM100 118Q106 148 109.5 173.5Q113 199 113 221Q113 244 109.5 266.5Q106 289 100 314Q135 298 184.0 276.5Q233 255 305.0 238.5Q377 222 479 220Q478 264 474.5 310.0Q471 356 466 397Q369 396 299.5 385.0Q230 374 182.0 359.0Q134 344 100 328Q106 358 109.5 383.5Q113 409 113 431Q113 454 109.5 476.5Q106 499 100 524Q134 508 181.0 487.5Q228 467 296.5 450.5Q365 434 461 430Q457 460 451.5 485.0Q446 510 439 526Q466 520 488 520Q512 520 545 526Q536 504 528.0 457.5Q520 411 514.5 352.0Q509 293 506.0 233.0Q503 173 503 123H481Q481 138 480.5 154.5Q480 171 480 188Q378 187 306.0 176.5Q234 166 184.5 150.0Q135 134 100 118ZM1167 14Q1163 118 1152.5 237.5Q1142 357 1127 468Q1121 441 1115.5 395.5Q1110 350 1106.5 297.0Q1103 244 1101.0 194.0Q1099 144 1099 108H1082Q1082 146 1080.0 199.0Q1078 252 1074.5 307.5Q1071 363 1065 408Q1051 408 1035.0 407.5Q1019 407 1002 406Q998 369 995.0 328.5Q992 288 990 247H1004Q1015 255 1029.0 267.0Q1043 279 1066 299L1073 295Q1064 279 1057.0 265.0Q1050 251 1042 237Q1050 224 1057.0 209.5Q1064 195 1073 180L1066 173Q1041 196 1028.0 208.0Q1015 220 1001 230H989Q986 170 984.5 116.0Q983 62 983 24Q1030 20 1076.0 17.0Q1122 14 1167 14ZM575 113Q575 152 573.0 203.0Q571 254 567.5 305.0Q564 356 557.5 397.5Q551 439 542 461Q553 459 562.5 457.5Q572 456 582 456Q592 456 602.5 457.5Q613 459 626 461Q619 443 612.5 402.0Q606 361 601.5 309.0Q597 257 594.5 204.5Q592 152 592 113ZM955 247Q953 288 950.5 328.0Q948 368 944 404Q934 404 923.0 403.5Q912 403 901 402Q898 367 895.5 328.5Q893 290 891 251Q904 250 920.0 249.0Q936 248 955 247ZM854 260Q853 295 850.5 330.5Q848 366 845 398Q833 397 822.0 396.5Q811 396 800 394Q799 388 798.5 381.5Q798 375 798 369H810Q807 388 804 393Q821 389 843 393Q838 384 835.0 348.5Q832 313 830 270Q835 267 841.0 264.5Q847 262 854 260ZM747 374Q747 377 747.0 380.5Q747 384 746 387Q740 386 734.0 385.5Q728 385 723 383Q729 380 734.5 378.0Q740 376 747 374ZM722 281Q722 283 721.5 284.5Q721 286 721 287L720 286Q720 287 720.5 288.0Q721 289 721 290Q721 291 720.5 292.5Q720 294 720 295L721 294Q722 304 721 317L720 316Q720 317 720.5 318.0Q721 319 721 320Q721 321 720.5 322.5Q720 324 720 325L721 324Q722 334 721 347L720 346Q720 347 720.5 348.0Q721 349 721 350Q721 351 720.5 352.5Q720 354 720 355L721 354Q723 361 722.5 367.5Q722 374 720 383L698 377L692 284ZM795 339H813Q813 345 812.5 351.0Q812 357 811 362H797Q797 356 796.5 350.0Q796 344 795 339ZM750 343Q749 347 749.0 350.5Q749 354 749 357Q743 356 738.0 354.0Q733 352 728 350Q736 346 750 343ZM793 309H815L813 332H795ZM752 313Q751 317 751.0 320.5Q751 324 751 328Q745 327 739.0 325.0Q733 323 728 320Q739 316 752 313ZM792 279H817L815 302H793Q793 296 792.5 290.0Q792 284 792 279ZM753 283V298Q741 297 728 290Q734 288 740.0 286.5Q746 285 753 283ZM790 249H818Q818 254 818.0 260.0Q818 266 817 272H791Q791 266 790.5 260.5Q790 255 790 249ZM858 165Q858 178 857.5 191.5Q857 205 856 218Q849 216 842.0 213.5Q835 211 829 207Q833 227 833.5 235.5Q834 244 830 266Q829 240 828.0 214.0Q827 188 827 166Q834 166 842.0 165.5Q850 165 858 165ZM755 252V261Q748 261 741.5 261.0Q735 261 729 260Q735 258 741.5 256.0Q748 254 755 252ZM761 53Q761 72 760.5 93.5Q760 115 759 139Q739 135 723.5 129.0Q708 123 694 115Q696 126 697.0 135.5Q698 145 698 155Q698 165 697.0 175.5Q696 186 694 199Q706 191 722 185Q722 188 722.0 191.5Q722 195 721 199L720 198Q720 199 720.5 200.0Q721 201 721 202Q721 203 720.5 204.5Q720 206 720 207L721 206Q722 216 721 227L720 226Q720 229 721 231Q720 233 720 237Q720 236 722 236Q722 241 722.0 246.0Q722 251 721 257L720 256Q720 257 720.5 258.0Q721 259 721 260Q713 259 705.5 258.5Q698 258 690 256Q687 204 685.5 155.0Q684 106 683 68ZM788 221H819Q819 226 818.5 231.5Q818 237 818 242H789Q789 237 789.0 231.5Q789 226 788 221ZM756 224V239Q749 238 742.5 236.0Q736 234 731 231Q737 229 743.0 227.5Q749 226 756 224ZM961 26Q961 64 959.5 117.5Q958 171 956 229Q936 229 919.5 228.0Q903 227 889 225Q887 171 885.0 122.0Q883 73 883 35ZM787 191H819V214Q810 214 802.5 214.0Q795 214 788 213Q787 208 787.5 202.5Q788 197 787 191ZM758 194Q758 198 757.5 202.5Q757 207 757 211Q742 208 728 202Q735 199 742.0 197.5Q749 196 758 194ZM820 167Q820 171 819.5 175.5Q819 180 819 184Q810 184 802.0 184.0Q794 184 787 183Q787 180 786.5 176.5Q786 173 786 170Q794 169 802.5 168.5Q811 168 820 167ZM758 174V181Q754 181 751.0 180.0Q748 179 744 178ZM861 38 859 148Q850 148 842.5 147.5Q835 147 827 147V126H820V146L785 143Q784 117 783.5 93.0Q783 69 783 49Q802 46 821.5 43.0Q841 40 861 38Z" />
  </g>
</svg>