<svg xmlns="http://www.w3.org/2000/svg" viewBox="100 -112 2131 848">
  <g transform="translate(0, 624) scale(1, -1)">
    <path fill="black" d="M651 -110Q651 -78 650.0 -41.0Q649 -4 647 35Q464 106 328.5 143.0Q193 180 100 190Q118 217 131.0 248.5Q144 280 153 315Q144 350 131.0 381.5Q118 413 100 441Q186 450 308.0 482.5Q430 515 592 575Q585 621 576.0 661.5Q567 702 558 736Q609 724 663 724Q717 724 774 736Q768 716 762.5 691.0Q757 666 752 637L759 640L768 618L747 609Q734 531 721.5 435.0Q709 339 700.0 238.5Q691 138 686 47Q706 38 726.0 29.5Q746 21 768 13L759 -9L684 21Q681 -49 681 -110ZM2144 -112Q2144 -90 2144.0 -70.0Q2144 -50 2143 -31Q2049 -31 1986.0 -34.0Q1923 -37 1880.5 -42.5Q1838 -48 1805.5 -55.5Q1773 -63 1742.0 -72.5Q1711 -82 1671 -94Q1675 -76 1676.5 -58.0Q1678 -40 1678 -21Q1620 20 1572.5 51.5Q1525 83 1486 107Q1443 102 1412.0 94.5Q1381 87 1351.0 77.5Q1321 68 1280 56Q1284 73 1285.5 91.5Q1287 110 1287 129Q1287 148 1285.5 167.0Q1284 186 1280 206L1317 195Q1292 206 1266.0 215.5Q1240 225 1213 235Q1227 247 1239.0 261.0Q1251 275 1262 291Q1163 290 1093.0 285.0Q1023 280 971.0 272.0Q919 264 875.0 253.0Q831 242 784 229Q788 246 789.5 264.5Q791 283 791 302Q791 321 789.5 340.0Q788 359 784 379Q825 368 868.5 357.5Q912 347 967.5 338.0Q1023 329 1098.5 323.0Q1174 317 1278 315Q1284 325 1290.0 335.5Q1296 346 1301 357L1325 327Q1323 379 1318.0 424.0Q1313 469 1302 495Q1307 494 1314.0 493.5Q1321 493 1330 493Q1339 493 1348.5 493.5Q1358 494 1365 495Q1357 476 1352.0 438.0Q1347 400 1345 353Q1349 353 1354.0 352.5Q1359 352 1365 352Q1373 352 1381.5 352.5Q1390 353 1397 354Q1395 398 1390.0 435.0Q1385 472 1376 495Q1385 492 1404 492Q1409 492 1414.0 492.5Q1419 493 1424 493Q1364 526 1315.0 546.0Q1266 566 1213 585Q1224 595 1234.5 606.5Q1245 618 1255 631Q1158 630 1089.5 625.0Q1021 620 969.5 612.0Q918 604 874.5 593.0Q831 582 784 569Q788 586 789.5 604.5Q791 623 791 642Q791 661 789.5 680.0Q788 699 784 719Q824 708 867.0 697.5Q910 687 965.0 678.0Q1020 669 1094.5 663.0Q1169 657 1272 655Q1287 679 1301 707Q1326 676 1353.0 644.0Q1380 612 1416.5 575.0Q1453 538 1505 493Q1509 493 1514.0 492.5Q1519 492 1524 492Q1544 492 1559 495Q1553 482 1550 456L1619 402Q1617 435 1612.0 463.0Q1607 491 1598 513Q1603 512 1610.0 511.5Q1617 511 1626 511Q1635 511 1644.5 511.5Q1654 512 1661 513Q1653 493 1648.0 459.5Q1643 426 1641 385Q1649 378 1658.0 372.0Q1667 366 1676 359Q1675 368 1674.0 377.0Q1673 386 1671 396Q1704 387 1732.5 378.0Q1761 369 1792.5 361.0Q1824 353 1865.5 347.0Q1907 341 1966.5 337.0Q2026 333 2111 332Q2104 361 2096.5 388.5Q2089 416 2081 446Q2118 438 2154 438Q2173 438 2192.0 440.0Q2211 442 2231 446Q2219 403 2208.0 355.5Q2197 308 2187.5 246.0Q2178 184 2172.5 97.0Q2167 10 2167 -112ZM646 64Q640 180 627.0 306.5Q614 433 597 545Q450 478 343.5 418.5Q237 359 176 315Q241 268 360.5 202.0Q480 136 646 64ZM1460 183Q1460 235 1459.0 293.0Q1458 351 1453.5 402.5Q1449 454 1439 485Q1438 485 1436 487Q1429 463 1424.5 419.5Q1420 376 1418.5 325.0Q1417 274 1416 225ZM1520 151Q1520 195 1519.5 247.5Q1519 300 1516.5 352.0Q1514 404 1508 443L1489 455Q1484 420 1481.0 369.5Q1478 319 1477.0 266.0Q1476 213 1476 169L1493 154ZM1717 142Q1684 166 1659.0 180.0Q1634 194 1609.5 205.0Q1585 216 1552 230Q1572 244 1589.0 258.5Q1606 273 1622 292Q1622 312 1622.0 331.5Q1622 351 1621 369Q1601 383 1581.5 396.0Q1562 409 1545 420Q1542 381 1540.0 332.5Q1538 284 1537.0 236.5Q1536 189 1536 150Q1571 147 1615.5 144.5Q1660 142 1717 142ZM1675 267Q1678 290 1678 312V328Q1668 336 1658.5 342.5Q1649 349 1639 356Q1639 346 1639.0 334.5Q1639 323 1638 312L1649 327Q1655 311 1661.5 296.0Q1668 281 1675 267ZM1400 242Q1400 268 1399.5 294.0Q1399 320 1398 345Q1386 310 1382 260ZM1357 288Q1356 302 1352.5 314.0Q1349 326 1345 339L1343 305ZM2143 -8Q2141 105 2133.5 178.5Q2126 252 2115 309Q2032 308 1975.0 305.0Q1918 302 1878.5 297.0Q1839 292 1808.5 284.5Q1778 277 1749.0 268.5Q1720 260 1684 249Q1701 219 1727.5 183.5Q1754 148 1800 98L1789 87L1748 119Q1681 119 1630.0 117.0Q1579 115 1541 113Q1570 90 1603.5 63.5Q1637 37 1677 8Q1676 32 1671 56Q1705 47 1734.5 37.5Q1764 28 1797.0 20.0Q1830 12 1875.0 6.0Q1920 0 1985.0 -4.0Q2050 -8 2143 -8Z" />
  </g>
</svg>