<svg xmlns="http://www.w3.org/2000/svg" viewBox="100 -93 2349 1047">
  <g transform="translate(0, 861) scale(1, -1)">
    <path fill="black" d="M1278 -93 1248 -88Q1256 -27 1263.0 33.5Q1270 94 1274 152Q1209 151 1119.0 147.5Q1029 144 926.5 138.0Q824 132 719 124Q718 99 718.0 75.0Q718 51 718 29H688Q688 50 687.5 73.5Q687 97 687 121Q587 113 494.0 103.5Q401 94 326.5 83.0Q252 72 207 59Q219 110 219 164Q219 218 207 275Q219 271 234.5 268.0Q250 265 269 261Q271 277 272.0 294.0Q273 311 273 328Q273 375 267 409Q308 398 371.0 389.0Q434 380 513.0 373.0Q592 366 678 361L672 465Q584 460 505.0 452.5Q426 445 364.5 437.0Q303 429 267 419Q270 437 271.5 458.5Q273 480 273 502Q273 535 270 563Q257 561 244.5 558.0Q232 555 221 552Q205 462 196.5 341.5Q188 221 188 89H158Q158 207 151.0 316.0Q144 425 131.5 513.0Q119 601 100 657Q136 651 173 651Q184 651 196.0 651.5Q208 652 219 653Q219 708 207 765Q245 755 312.0 744.5Q379 734 465.0 724.5Q551 715 646 706Q642 728 638.0 746.0Q634 764 630 777Q666 771 703 771Q740 771 776 777Q771 763 767.0 742.5Q763 722 758 697Q852 690 942.5 684.5Q1033 679 1111.0 676.0Q1189 673 1245 672Q1220 752 1194.5 816.5Q1169 881 1144 923Q1217 926 1287 954Q1284 924 1284 885Q1284 809 1295.5 707.5Q1307 606 1329 493Q1352 489 1374.5 487.0Q1397 485 1419 486Q1400 446 1380.0 384.0Q1360 322 1341.0 244.5Q1322 167 1306.0 81.0Q1290 -5 1278 -93ZM2308 -93 2278 -88Q2294 30 2304.0 146.5Q2314 263 2314 357Q2314 378 2314.0 398.0Q2314 418 2312 436Q2257 435 2192.0 433.0Q2127 431 2056 428Q2049 325 2046.0 219.0Q2043 113 2043 29H2013Q2013 112 2009.5 217.5Q2006 323 1999 426L1931 422Q1924 320 1921.0 216.0Q1918 112 1918 29H1888Q1888 112 1884.5 215.0Q1881 318 1875 419L1801 415Q1794 315 1791.0 212.5Q1788 110 1788 29H1758Q1758 109 1754.5 210.0Q1751 311 1745 410L1670 404Q1664 306 1661.0 207.5Q1658 109 1658 29H1628Q1628 107 1625.0 204.5Q1622 302 1616 399Q1554 393 1504.0 385.0Q1454 377 1422 369Q1428 405 1428 452Q1428 474 1426.5 495.5Q1425 517 1422 535Q1491 515 1609 503Q1602 594 1592.0 667.0Q1582 740 1570 777Q1606 771 1642 771Q1656 771 1671.0 772.0Q1686 773 1700 775V777Q1702 776 1708 776Q1713 776 1716 777L1715 775Q1729 773 1743.5 772.0Q1758 771 1772 771Q1786 771 1801.0 772.0Q1816 773 1830 775V777Q1832 776 1838 776Q1843 776 1846 777L1845 775Q1860 773 1875.5 772.0Q1891 771 1906 771Q1931 771 1956 774Q1955 775 1955 777L1965 775L1976 777Q1975 776 1975 774Q2001 771 2027 771Q2064 771 2101 777Q2088 737 2077.5 655.5Q2067 574 2059 473Q2127 471 2190.5 469.5Q2254 468 2309 467Q2308 478 2307.0 487.5Q2306 497 2304 506L2324 500Q2290 637 2250.5 748.5Q2211 860 2174 923Q2247 926 2317 954Q2314 924 2314 885Q2314 809 2325.5 707.5Q2337 606 2359 493Q2382 489 2404.5 487.0Q2427 485 2449 486Q2430 446 2410.0 384.0Q2390 322 2371.0 244.5Q2352 167 2336.0 81.0Q2320 -5 2308 -93ZM1870 482Q1864 564 1856.0 633.5Q1848 703 1838 747Q1828 703 1819.5 634.5Q1811 566 1805 486Q1822 485 1838.0 484.0Q1854 483 1870 482ZM1740 491Q1734 570 1726.0 637.0Q1718 704 1708 747Q1698 704 1690.0 638.5Q1682 573 1676 496Q1692 495 1708.0 493.5Q1724 492 1740 491ZM1996 476Q1990 554 1982.5 621.5Q1975 689 1965 735Q1956 689 1948.0 622.5Q1940 556 1935 479ZM1289 517Q1281 549 1272.5 580.5Q1264 612 1255 642Q1198 642 1117.0 638.5Q1036 635 941.0 630.0Q846 625 748 618L739 532Q842 527 944.0 523.5Q1046 520 1135.5 518.5Q1225 517 1289 517ZM666 536Q664 556 662.5 574.5Q661 593 659 611Q565 603 478.5 593.0Q392 583 322 572Q387 560 476.5 551.5Q566 543 666 536ZM1284 341Q1285 384 1283.0 421.0Q1281 458 1277 487Q1212 487 1123.5 484.5Q1035 482 934.5 478.0Q834 474 734 468L727 358Q828 353 929.5 349.0Q1031 345 1122.5 343.5Q1214 342 1284 341ZM1277 182Q1280 216 1281.5 248.0Q1283 280 1284 310Q1214 310 1121.5 307.5Q1029 305 927.0 301.0Q825 297 724 291L721 212Q826 204 929.5 197.5Q1033 191 1123.0 187.0Q1213 183 1277 182ZM685 215 682 288Q573 281 477.0 273.0Q381 265 319 254Q390 244 485.5 233.5Q581 223 685 215Z" />
  </g>
</svg>