<svg xmlns="http://www.w3.org/2000/svg" viewBox="100 -93 2349 1047">
  <g transform="translate(0, 861) scale(1, -1)">
    <path fill="black" d="M1278 -93 1248 -88Q1256 -27 1263.0 33.5Q1270 94 1274 152Q1211 151 1124.5 147.5Q1038 144 940 138Q939 104 938.5 71.0Q938 38 938 9H908Q908 38 907.5 70.0Q907 102 906 136Q885 135 864.0 134.0Q843 133 821 131V32H791Q791 57 791.0 81.0Q791 105 790 129L711 123V32H681V121L599 114V32H569V111Q548 110 528.5 107.5Q509 105 489 103V32H459V100Q379 91 313.5 80.5Q248 70 207 59Q219 110 219 164Q219 218 207 275Q219 271 234.5 268.0Q250 265 269 261Q271 277 272.0 294.0Q273 311 273 328Q273 375 267 409Q299 400 345.5 392.5Q392 385 450 379Q449 396 447.0 413.0Q445 430 443 446Q386 440 341.0 433.5Q296 427 267 419Q270 437 271.5 458.5Q273 480 273 502Q273 535 270 563Q257 561 244.5 558.0Q232 555 221 552Q205 462 196.5 341.5Q188 221 188 89H158Q158 207 151.0 316.0Q144 425 131.5 513.0Q119 601 100 657Q136 651 173 651Q184 651 196.0 651.5Q208 652 219 653Q219 708 207 765Q246 754 316.5 743.5Q387 733 478.0 723.0Q569 713 669.0 704.5Q769 696 868 689Q864 717 859.5 739.5Q855 762 850 777Q886 771 923 771Q960 771 996 777Q991 761 986.0 737.0Q981 713 976 682Q1056 678 1125.5 675.0Q1195 672 1245 672Q1220 752 1194.5 816.5Q1169 881 1144 923Q1217 926 1287 954Q1284 924 1284 885Q1284 809 1295.5 707.5Q1307 606 1329 493Q1352 489 1374.5 487.0Q1397 485 1419 486Q1400 446 1380.0 384.0Q1360 322 1341.0 244.5Q1322 167 1306.0 81.0Q1290 -5 1278 -93ZM2308 -93 2278 -88Q2294 30 2304.0 146.5Q2314 263 2314 357Q2314 378 2314.0 398.0Q2314 418 2312 436Q2257 435 2192.0 433.0Q2127 431 2056 428Q2049 325 2046.0 219.0Q2043 113 2043 29H2013Q2013 112 2009.5 217.5Q2006 323 1999 426L1931 422Q1924 320 1921.0 216.0Q1918 112 1918 29H1888Q1888 112 1884.5 215.0Q1881 318 1875 419L1801 415Q1794 315 1791.0 212.5Q1788 110 1788 29H1758Q1758 109 1754.5 210.0Q1751 311 1745 410L1670 404Q1664 306 1661.0 207.5Q1658 109 1658 29H1628Q1628 107 1625.0 204.5Q1622 302 1616 399Q1554 393 1504.0 385.0Q1454 377 1422 369Q1428 405 1428 452Q1428 474 1426.5 495.5Q1425 517 1422 535Q1491 515 1609 503Q1602 594 1592.0 667.0Q1582 740 1570 777Q1606 771 1642 771Q1656 771 1671.0 772.0Q1686 773 1700 775V777Q1702 776 1708 776Q1713 776 1716 777L1715 775Q1729 773 1743.5 772.0Q1758 771 1772 771Q1786 771 1801.0 772.0Q1816 773 1830 775V777Q1832 776 1838 776Q1843 776 1846 777L1845 775Q1860 773 1875.5 772.0Q1891 771 1906 771Q1931 771 1956 774Q1955 775 1955 777L1965 775L1976 777Q1975 776 1975 774Q2001 771 2027 771Q2064 771 2101 777Q2088 737 2077.5 655.5Q2067 574 2059 473Q2127 471 2190.5 469.5Q2254 468 2309 467Q2308 478 2307.0 487.5Q2306 497 2304 506L2324 500Q2290 637 2250.5 748.5Q2211 860 2174 923Q2247 926 2317 954Q2314 924 2314 885Q2314 809 2325.5 707.5Q2337 606 2359 493Q2382 489 2404.5 487.0Q2427 485 2449 486Q2430 446 2410.0 384.0Q2390 322 2371.0 244.5Q2352 167 2336.0 81.0Q2320 -5 2308 -93ZM1870 482Q1864 564 1856.0 633.5Q1848 703 1838 747Q1828 703 1819.5 634.5Q1811 566 1805 486Q1822 485 1838.0 484.0Q1854 483 1870 482ZM1740 491Q1734 570 1726.0 637.0Q1718 704 1708 747Q1698 704 1690.0 638.5Q1682 573 1676 496Q1692 495 1708.0 493.5Q1724 492 1740 491ZM1996 476Q1990 554 1982.5 621.5Q1975 689 1965 735Q1956 689 1948.0 622.5Q1940 556 1935 479ZM1289 517Q1281 549 1272.5 580.5Q1264 612 1255 642Q1202 642 1128.5 639.5Q1055 637 970 632Q967 607 964.0 579.5Q961 552 959 523Q1056 520 1141.5 518.5Q1227 517 1289 517ZM886 525Q884 552 881.5 578.0Q879 604 876 627Q763 620 647.0 610.0Q531 600 431 587Q455 584 472 584Q484 584 497.0 585.5Q510 587 526 589V590Q527 590 527.5 589.5Q528 589 529 589Q530 589 530.5 589.5Q531 590 532 590L531 589Q547 586 559.5 585.0Q572 584 584 584Q596 584 609.0 585.0Q622 586 638 589V590L640 589L642 590V589Q658 586 670.5 585.0Q683 584 695 584Q707 584 719.5 585.0Q732 586 748 589V590Q749 590 749.5 589.5Q750 589 751 589Q752 589 752.5 589.5Q753 590 754 590L753 589Q769 587 781.5 585.5Q794 584 806 584Q819 584 832.5 585.5Q846 587 864 590Q860 576 856.0 560.0Q852 544 848 527ZM425 557Q424 565 421.5 572.0Q419 579 417 586Q392 582 368.0 579.0Q344 576 322 572Q345 568 371.0 564.5Q397 561 425 557ZM651 537Q649 550 646.0 561.5Q643 573 640 583L628 539ZM763 531 751 581Q747 570 744.5 558.0Q742 546 739 532Q745 532 751.0 531.5Q757 531 763 531ZM538 546 529 580 520 547Q525 547 529.5 546.5Q534 546 538 546ZM1284 341Q1285 384 1283.0 421.0Q1281 458 1277 487Q1215 486 1131.5 484.0Q1048 482 955 479L947 348Q1043 345 1130.0 343.0Q1217 341 1284 341ZM898 350 890 476Q877 476 864.5 475.5Q852 475 839 474Q835 446 832.5 416.0Q830 386 828 353ZM783 355Q782 387 779.0 415.5Q776 444 772 471L729 468Q725 443 722.5 415.5Q720 388 718 358ZM673 361Q671 389 668.5 414.5Q666 440 663 464L616 461Q610 416 607 365ZM560 368Q559 392 557.0 414.0Q555 436 552 456Q540 455 528.0 454.5Q516 454 505 452Q503 433 501.0 414.0Q499 395 497 374ZM1277 182Q1280 216 1281.5 248.0Q1283 280 1284 310Q1217 309 1129.0 307.0Q1041 305 945 301L941 196Q1041 190 1128.0 186.5Q1215 183 1277 182ZM904 199Q903 224 902.5 249.5Q902 275 900 300L825 296L822 204Q843 203 863.5 201.5Q884 200 904 199ZM789 207Q789 230 788.0 251.5Q787 273 786 294Q768 293 750.5 292.5Q733 292 715 290Q714 271 713.5 252.0Q713 233 713 213ZM679 215 677 288Q658 287 639.5 286.0Q621 285 603 283Q602 268 601.5 253.0Q601 238 601 222ZM567 225Q566 239 565.5 253.5Q565 268 565 281L492 274Q492 264 492.0 254.0Q492 244 491 233ZM456 236Q456 245 456.0 253.5Q456 262 455 271Q415 267 381.0 263.0Q347 259 319 254Q349 250 384.0 245.5Q419 241 456 236Z" />
  </g>
</svg>