<svg xmlns="http://www.w3.org/2000/svg" viewBox="100 -217 1265 953">
  <g transform="translate(0, 519) scale(1, -1)">
    <path fill="black" d="M100 -217Q112 -166 112 -112Q112 -58 100 -1Q123 -7 158.5 -13.0Q194 -19 240 -25Q238 47 232.5 129.0Q227 211 219.0 295.5Q211 380 200.0 461.0Q189 542 176.5 612.5Q164 683 149 736Q200 724 254 724Q308 724 365 736Q353 691 341.0 623.0Q329 555 318.0 473.0Q307 391 297.5 303.0Q288 215 282.0 130.0Q276 45 273 -29Q356 -39 459.5 -48.5Q563 -58 674.0 -66.0Q785 -74 891.5 -80.0Q998 -86 1089.0 -89.5Q1180 -93 1242 -94Q1241 -20 1236.0 70.5Q1231 161 1223 255Q1151 253 1068.0 248.0Q985 243 899.0 235.0Q813 227 731.0 216.0Q649 205 576.5 191.5Q504 178 450 163Q462 214 462 268Q462 322 450 379Q474 372 505.5 365.5Q537 359 574 352Q564 601 519 736Q555 730 592 730Q629 730 665 736Q620 601 609 346Q677 335 755.0 325.0Q833 315 914.5 307.5Q996 300 1074.5 294.5Q1153 289 1220 287Q1212 373 1201.0 455.5Q1190 538 1177.0 610.5Q1164 683 1149 736Q1200 724 1254 724Q1308 724 1365 736Q1352 687 1338.5 611.0Q1325 535 1313.5 443.0Q1302 351 1293.0 254.5Q1284 158 1278.5 68.0Q1273 -22 1272 -94V-124Q1221 -124 1143.5 -126.5Q1066 -129 971.5 -133.0Q877 -137 774.0 -143.0Q671 -149 569.5 -157.0Q468 -165 377.0 -174.5Q286 -184 214.0 -194.5Q142 -205 100 -217Z" />
  </g>
</svg>