<svg xmlns="http://www.w3.org/2000/svg" viewBox="100 -467 1365 1448">
  <g transform="translate(0, 514) scale(1, -1)">
    <path fill="black" d="M568 -467Q524 -397 450 -348Q465 -339 488.5 -322.5Q512 -306 541 -283Q492 -237 434.5 -188.5Q377 -140 317.5 -94.5Q258 -49 202.0 -10.5Q146 28 100 54Q168 97 218 173Q240 134 278.5 80.0Q317 26 364.5 -35.5Q412 -97 463.0 -157.0Q514 -217 561 -268Q621 -220 697.5 -154.5Q774 -89 852 -20L690 128Q646 72 610.0 22.0Q574 -28 554 -66Q532 -31 501.5 -1.0Q471 29 433 52Q449 61 469.5 74.5Q490 88 515 106Q451 165 401.5 200.5Q352 236 305 258Q327 275 347.0 295.5Q367 316 385 338Q408 290 443.0 238.5Q478 187 538 122Q558 137 579.5 153.5Q601 170 623 188Q563 242 503.0 293.0Q443 344 389.0 388.0Q335 432 291.5 464.5Q248 497 221 513Q291 557 340 631Q348 616 364.5 593.0Q381 570 404 541Q450 590 498.5 647.5Q547 705 593.0 764.0Q639 823 678.0 879.0Q717 935 743 981Q787 911 861 863Q822 841 767.5 802.5Q713 764 652.0 716.5Q591 669 530.5 618.5Q470 568 420 521Q469 460 535.0 383.0Q601 306 671 226Q714 261 757.5 298.0Q801 335 842 370Q778 421 720.0 463.5Q662 506 621 529Q687 568 734 639L703 658Q773 702 822 776Q833 756 849.5 731.0Q866 706 886 678Q922 728 946 778Q979 731 1026 698Q1001 685 974.5 669.0Q948 653 919 632Q962 574 1012.5 511.0Q1063 448 1114.0 390.0Q1165 332 1209 289L1208 288L1214 282Q1196 264 1170.0 237.0Q1144 210 1113 177L1164 122Q1220 190 1267.5 257.0Q1315 324 1346 378Q1389 310 1465 259Q1431 240 1384.5 208.0Q1338 176 1285.5 136.0Q1233 96 1179.0 52.5Q1125 9 1075.5 -34.5Q1026 -78 986 -116L987 -117L970 -133L896 -61Q842 -122 790.0 -182.0Q738 -242 693.5 -297.0Q649 -352 616.5 -395.5Q584 -439 568 -467ZM794 566 813 587Q797 598 781.5 608.5Q766 619 752 628Q760 615 770.5 599.0Q781 583 794 566ZM903 424 959 476Q929 501 898.5 524.0Q868 547 839 568L811 543Q831 516 854.5 486.0Q878 456 903 424ZM1094 199 1182 282Q1139 323 1087.0 369.0Q1035 415 979 461L922 400Q965 348 1009.0 296.5Q1053 245 1094 199ZM875 0Q928 47 977.5 91.5Q1027 136 1070 176Q1025 217 974.5 260.5Q924 304 873 345Q797 260 722 168ZM969 -99Q1011 -57 1057.0 -4.5Q1103 48 1149 103L1093 155Q1053 112 1007.0 62.0Q961 12 914 -41Q930 -57 943.5 -72.0Q957 -87 969 -99Z" />
  </g>
</svg>