<svg xmlns="http://www.w3.org/2000/svg" viewBox="100 -112 1570 884">
  <g transform="translate(0, 660) scale(1, -1)">
    <path fill="black" d="M1583 -112Q1583 -90 1583.0 -70.0Q1583 -50 1582 -31Q1495 -31 1428.5 -35.5Q1362 -40 1309.0 -48.5Q1256 -57 1208.0 -68.5Q1160 -80 1110 -94Q1114 -76 1115.5 -58.0Q1117 -40 1117 -21Q1025 45 958.5 87.0Q892 129 841.0 155.0Q790 181 745.5 199.0Q701 217 652 235Q678 258 701 292Q599 291 529.0 286.0Q459 281 408.0 273.0Q357 265 314.0 254.0Q271 243 223 229Q227 246 228.5 264.5Q230 283 230 302Q230 321 228.5 340.0Q227 359 223 379Q264 368 306.5 357.0Q349 346 403.5 337.0Q458 328 533.5 322.0Q609 316 717 315Q723 325 729.0 335.5Q735 346 740 357Q767 324 796.5 289.0Q826 254 867.0 213.5Q908 173 968.5 122.5Q1029 72 1116 8Q1115 32 1110 56Q1167 41 1231.5 26.5Q1296 12 1380.5 2.5Q1465 -7 1582 -8Q1580 105 1572.5 178.5Q1565 252 1554 309Q1504 308 1461.5 305.5Q1419 303 1382 300Q1381 284 1379.5 262.0Q1378 240 1377 211H1362Q1360 240 1357.5 260.5Q1355 281 1353 297L1297 289L1295 285Q1306 265 1316.0 243.5Q1326 222 1342 197L1332 188Q1305 213 1287.5 228.5Q1270 244 1257.5 255.0Q1245 266 1230 277L1219 274L1216 211H1201L1195 269Q1174 264 1153.0 258.0Q1132 252 1110 246Q1114 266 1116.0 286.5Q1118 307 1117 328Q1104 338 1091.0 347.5Q1078 357 1065 365Q1061 328 1058.5 293.0Q1056 258 1055 231H1038Q1036 266 1030.5 310.0Q1025 354 1015 399Q986 419 960.0 435.5Q934 452 911 466Q905 415 901.0 354.5Q897 294 894 231H879Q873 309 867.0 377.0Q861 445 850 500Q795 529 748.5 548.0Q702 567 652 585Q663 595 673.5 606.5Q684 618 694 631Q597 630 528.5 625.0Q460 620 408.5 612.0Q357 604 313.5 593.0Q270 582 223 569Q227 587 228.5 605.0Q230 623 230 642Q230 652 229.5 661.5Q229 671 228 681Q211 596 198.5 470.0Q186 344 186 156H163Q163 279 158.5 371.5Q154 464 146.0 535.0Q138 606 126.5 663.5Q115 721 100 772Q137 764 173 764Q192 764 211.0 766.0Q230 768 250 772Q246 759 242.5 745.0Q239 731 236 715Q275 705 317.5 695.0Q360 685 413.5 676.5Q467 668 539.5 662.5Q612 657 711 655Q726 679 740 707Q763 677 789.0 646.5Q815 616 849 581Q857 580 865.0 579.5Q873 579 880 579Q900 579 936 585Q930 572 926.0 554.0Q922 536 918 516Q937 500 958.0 482.0Q979 464 1004 444Q1000 458 995.0 472.0Q990 486 985 499L1016 495Q1004 539 985 587Q1002 585 1015.0 583.5Q1028 582 1041 582Q1052 582 1065.5 583.0Q1079 584 1096 587Q1087 565 1080.5 542.0Q1074 519 1069 495Q1075 496 1082.0 497.0Q1089 498 1096 499Q1087 478 1080.5 450.5Q1074 423 1069 393L1115 359Q1114 368 1113.0 377.0Q1112 386 1110 396L1166 381Q1162 389 1157.0 400.0Q1152 411 1147 425Q1169 420 1183 419Q1177 469 1169.0 511.5Q1161 554 1147 587Q1164 584 1177.5 582.5Q1191 581 1204 581Q1215 581 1228.5 582.0Q1242 583 1259 587Q1247 559 1239.5 515.5Q1232 472 1227 420L1259 425Q1251 406 1245.0 392.5Q1239 379 1234 365L1302 353L1330 377Q1326 386 1320.5 397.5Q1315 409 1309 425Q1331 420 1345 419Q1339 469 1330.5 511.5Q1322 554 1309 587Q1326 584 1339.0 582.5Q1352 581 1365 581Q1376 581 1389.5 582.0Q1403 583 1421 587Q1409 559 1401.5 515.5Q1394 472 1389 420L1415 424Q1428 435 1442.5 445.5Q1457 456 1477.5 472.5Q1498 489 1529 517L1539 510Q1523 485 1512.5 464.5Q1502 444 1490 424Q1502 404 1512.5 381.5Q1523 359 1539 335L1536 332H1550Q1543 361 1535.5 389.0Q1528 417 1520 446Q1557 438 1593 438Q1612 438 1631.0 440.0Q1650 442 1670 446Q1658 403 1647.0 355.5Q1636 308 1626.5 246.0Q1617 184 1611.5 97.0Q1606 10 1606 -112ZM1521 333Q1495 357 1478.5 372.0Q1462 387 1449.0 398.5Q1436 410 1419 421Q1409 396 1401.5 379.0Q1394 362 1389 341Q1418 338 1451.0 336.0Q1484 334 1521 333ZM1342 347 1336 362Q1335 358 1332.5 355.0Q1330 352 1328 349Q1332 348 1335.0 347.5Q1338 347 1342 347Z" />
  </g>
</svg>