<svg xmlns="http://www.w3.org/2000/svg" viewBox="100 -112 1570 884">
  <g transform="translate(0, 660) scale(1, -1)">
    <path fill="black" d="M1583 -112Q1583 -90 1583.0 -70.0Q1583 -50 1582 -31Q1495 -31 1428.5 -35.5Q1362 -40 1309.0 -48.5Q1256 -57 1208.0 -68.5Q1160 -80 1110 -94Q1114 -76 1115.5 -58.0Q1117 -40 1117 -21L1041 31Q1038 4 1037.0 -22.0Q1036 -48 1035 -69H1018Q1016 -39 1012.0 -7.0Q1008 25 1000 59Q968 81 939.5 98.5Q911 116 886 130Q882 83 879.0 32.0Q876 -19 874 -69H859Q855 -10 850.5 47.5Q846 105 839 156Q787 183 743.5 200.5Q700 218 652 235Q678 258 701 292Q599 291 529.0 286.0Q459 281 408.0 273.0Q357 265 314.0 254.0Q271 243 223 229Q227 246 228.5 264.5Q230 283 230 302Q230 321 228.5 340.0Q227 359 223 379Q264 368 306.5 357.0Q349 346 403.5 337.0Q458 328 533.5 322.0Q609 316 717 315Q723 325 729.0 335.5Q735 346 740 357Q758 334 777.5 311.0Q797 288 820 262Q814 284 806 305Q823 302 835.0 300.5Q847 299 860 299Q872 299 885.0 300.5Q898 302 916 305Q908 285 902.0 255.5Q896 226 892 190Q912 171 935.5 151.0Q959 131 987 108Q983 123 977.0 138.0Q971 153 965 169Q976 168 984.5 166.5Q993 165 1001 164Q995 199 985.0 235.5Q975 272 961 307Q978 305 991.0 303.5Q1004 302 1017 302Q1028 302 1041.5 303.0Q1055 304 1072 307Q1060 276 1052.0 239.0Q1044 202 1039 164Q1047 165 1056.0 166.0Q1065 167 1076 169Q1066 154 1058.0 125.0Q1050 96 1045 62L1116 8Q1115 32 1110 56Q1163 42 1222.5 28.0Q1282 14 1360 4Q1324 37 1283.5 69.5Q1243 102 1214 118Q1174 115 1140.0 95.0Q1106 75 1081 56Q1085 73 1086.5 91.5Q1088 110 1088 129Q1088 148 1086.5 167.0Q1085 186 1081 206Q1107 186 1144.5 164.0Q1182 142 1225 142V140L1228 142Q1257 179 1287.0 221.5Q1317 264 1333 294Q1270 286 1218.0 274.0Q1166 262 1110 246Q1114 266 1116.0 286.5Q1118 307 1117 328Q1025 394 958.5 436.0Q892 478 841.0 504.5Q790 531 745.5 549.0Q701 567 652 585Q663 595 673.5 606.5Q684 618 694 631Q597 630 528.5 625.0Q460 620 408.5 612.0Q357 604 313.5 593.0Q270 582 223 569Q227 587 228.5 605.0Q230 623 230 642Q230 652 229.5 661.5Q229 671 228 681Q211 596 198.5 470.0Q186 344 186 156H163Q163 279 158.5 371.5Q154 464 146.0 535.0Q138 606 126.5 663.5Q115 721 100 772Q137 764 173 764Q192 764 211.0 766.0Q230 768 250 772Q246 759 242.5 745.0Q239 731 236 715Q275 705 317.5 695.0Q360 685 413.5 676.5Q467 668 539.5 662.5Q612 657 711 655Q726 679 740 707Q767 674 796.5 639.5Q826 605 867.0 564.5Q908 524 968.0 473.5Q1028 423 1115 359Q1114 368 1113.0 377.0Q1112 386 1110 396Q1164 382 1225.0 368.0Q1286 354 1365.0 344.0Q1444 334 1550 332Q1543 361 1535.5 389.0Q1528 417 1520 446Q1557 438 1593 438Q1612 438 1631.0 440.0Q1650 442 1670 446Q1658 403 1647.0 355.5Q1636 308 1626.5 246.0Q1617 184 1611.5 97.0Q1606 10 1606 -112ZM1582 -8Q1580 105 1572.5 178.5Q1565 252 1554 309Q1523 308 1495.0 307.5Q1467 307 1441 305Q1452 285 1474.5 253.0Q1497 221 1523.5 188.0Q1550 155 1572 128L1568 125L1573 122Q1554 113 1527.0 93.5Q1500 74 1470.0 49.5Q1440 25 1412 0Q1450 -4 1492.0 -5.5Q1534 -7 1582 -8ZM1389 271Q1411 284 1428 304Q1409 303 1391.0 301.0Q1373 299 1356 297Q1372 281 1389 271ZM1395 1Q1409 18 1424.5 37.0Q1440 56 1454 75Q1422 73 1391.5 67.5Q1361 62 1352 58Q1353 67 1353.5 77.5Q1354 88 1352 98Q1353 107 1353.5 117.5Q1354 128 1352 138Q1353 147 1353.5 157.5Q1354 168 1352 178Q1353 188 1353.5 199.0Q1354 210 1352 220Q1359 217 1380.0 212.5Q1401 208 1427.0 205.0Q1453 202 1476 201Q1451 221 1428.5 238.5Q1406 256 1389 265Q1363 251 1329.0 221.5Q1295 192 1260 159Q1270 141 1290.5 114.0Q1311 87 1336.0 57.5Q1361 28 1382 2Q1385 2 1388.0 1.5Q1391 1 1395 1ZM1549 135Q1533 150 1515.5 166.0Q1498 182 1481 197Q1459 197 1433.0 193.5Q1407 190 1386.0 186.0Q1365 182 1355 179Q1366 176 1394.0 172.0Q1422 168 1454.5 165.0Q1487 162 1510 161L1512 165L1515 161H1518V158Q1525 151 1533.0 145.5Q1541 140 1549 135ZM1487 122Q1494 132 1499.5 141.0Q1505 150 1508 157Q1484 156 1452.0 153.0Q1420 150 1393.0 146.0Q1366 142 1355 139Q1364 136 1386.0 132.5Q1408 129 1435.5 126.5Q1463 124 1487 122ZM1459 82Q1465 90 1471.0 99.0Q1477 108 1483 115Q1459 114 1432.5 111.0Q1406 108 1385.0 105.0Q1364 102 1355 99Q1367 95 1397.5 89.5Q1428 84 1459 82Z" />
  </g>
</svg>