<svg xmlns="http://www.w3.org/2000/svg" viewBox="100 -112 1570 884">
  <g transform="translate(0, 660) scale(1, -1)">
    <path fill="black" d="M1583 -112Q1583 -90 1583.0 -70.0Q1583 -50 1582 -31Q1495 -31 1428.5 -35.5Q1362 -40 1309.0 -48.5Q1256 -57 1208.0 -68.5Q1160 -80 1110 -94Q1114 -76 1115.5 -58.0Q1117 -40 1117 -21Q1062 18 1016.0 48.5Q970 79 932 103Q873 95 822.5 83.0Q772 71 719 56Q723 73 724.5 91.5Q726 110 726 129Q726 148 724.5 167.0Q723 186 719 206L753 197Q728 208 703.0 216.5Q678 225 652 235Q678 258 701 292Q599 291 529.0 286.0Q459 281 408.0 273.0Q357 265 314.0 254.0Q271 243 223 229Q227 246 228.5 264.5Q230 283 230 302Q230 321 228.5 340.0Q227 359 223 379Q264 368 306.5 357.0Q349 346 403.5 337.0Q458 328 533.5 322.0Q609 316 717 315Q723 325 729.0 335.5Q735 346 740 357Q775 314 815.5 267.5Q856 221 924 161Q980 152 1049.5 147.0Q1119 142 1207 142V119Q1140 119 1085.5 117.0Q1031 115 985 110Q1013 87 1045.5 61.5Q1078 36 1116 8Q1115 32 1110 56Q1167 41 1231.5 26.5Q1296 12 1380.5 2.5Q1465 -7 1582 -8Q1580 105 1572.5 178.5Q1565 252 1554 309Q1544 309 1534.0 308.5Q1524 308 1515 308Q1514 279 1513.0 246.0Q1512 213 1511 175H1500L1490 307Q1459 306 1430.5 304.0Q1402 302 1376 300Q1330 279 1280.0 256.5Q1230 234 1185.5 213.0Q1141 192 1111.0 176.5Q1081 161 1075 155Q1071 172 1065.0 185.0Q1059 198 1051 209Q1059 209 1086 217L1083 281L976 273L971 231H967Q966 238 965.0 249.0Q964 260 963 272L928 270Q927 259 926.0 248.5Q925 238 924 231H920Q919 238 918.0 248.0Q917 258 916 269Q897 268 882.5 266.5Q868 265 865 264Q867 274 867.5 284.0Q868 294 865 305Q868 304 880.5 302.5Q893 301 912 299Q909 327 906.0 350.5Q903 374 901 380Q910 377 919.5 378.0Q929 379 938 380Q940 391 940.5 401.5Q941 412 938 422Q942 421 957.5 418.5Q973 416 992 414Q934 453 888.0 479.0Q842 505 803.0 523.5Q764 542 727.5 556.5Q691 571 652 585Q663 595 673.5 606.5Q684 618 694 631Q597 630 528.5 625.0Q460 620 408.5 612.0Q357 604 313.5 593.0Q270 582 223 569Q227 587 228.5 605.0Q230 623 230 642Q230 652 229.5 661.5Q229 671 228 681Q211 596 198.5 470.0Q186 344 186 156H163Q163 279 158.5 371.5Q154 464 146.0 535.0Q138 606 126.5 663.5Q115 721 100 772Q137 764 173 764Q192 764 211.0 766.0Q230 768 250 772Q246 759 242.5 745.0Q239 731 236 715Q275 705 317.5 695.0Q360 685 413.5 676.5Q467 668 539.5 662.5Q612 657 711 655Q726 679 740 707Q764 677 790.0 646.5Q816 616 850.5 580.5Q885 545 933.0 503.0Q981 461 1049 409L1075 406Q1072 448 1068.0 481.0Q1064 514 1059 525Q1068 523 1077.0 522.0Q1086 521 1094 521Q1112 521 1127 525Q1120 508 1115.0 463.0Q1110 418 1106 366L1115 359Q1114 368 1113.0 377.0Q1112 386 1110 396Q1119 393 1128.5 390.5Q1138 388 1148 385Q1145 433 1140.5 472.5Q1136 512 1131 525Q1140 523 1149.0 522.0Q1158 521 1166 521Q1183 521 1198 525Q1191 509 1186.5 467.5Q1182 426 1178 378Q1230 365 1291.0 354.5Q1352 344 1431 338L1486 359V361Q1457 370 1416.5 382.0Q1376 394 1335.0 405.0Q1294 416 1261.0 423.0Q1228 430 1214 430Q1220 442 1225.5 455.5Q1231 469 1234 486Q1243 478 1271.0 463.5Q1299 449 1337.0 432.0Q1375 415 1414.5 399.0Q1454 383 1485 371Q1480 424 1473.5 460.5Q1467 497 1458 531Q1480 526 1499 526Q1510 526 1520.5 527.5Q1531 529 1543 531Q1538 513 1534.0 491.5Q1530 470 1526 444Q1558 438 1592 438Q1611 438 1630.5 440.0Q1650 442 1670 446Q1658 403 1647.0 355.5Q1636 308 1626.5 246.0Q1617 184 1611.5 97.0Q1606 10 1606 -112ZM1550 332Q1544 358 1538.0 381.5Q1532 405 1524 430Q1522 409 1520.0 385.0Q1518 361 1516 333Q1524 333 1532.5 332.5Q1541 332 1550 332ZM1077 387Q1077 389 1076.5 391.5Q1076 394 1076 395Q1071 395 1068 394Q1074 390 1077 387ZM1083 288 1079 355Q1066 365 1053.0 374.0Q1040 383 1027 391Q998 389 972.5 386.0Q947 383 939 380H942Q939 374 936.0 350.0Q933 326 931 297Q938 297 945.5 296.5Q953 296 960 295Q957 324 953.5 349.0Q950 374 948 380Q959 377 969.5 378.0Q980 379 990 380Q987 374 984.0 348.5Q981 323 978 294ZM1488 334Q1488 338 1487.5 341.5Q1487 345 1487 349L1457 336ZM1096 220Q1109 224 1124.5 228.5Q1140 233 1157 239Q1156 244 1156.5 249.0Q1157 254 1156 259Q1145 256 1133.5 252.5Q1122 249 1110 246Q1114 266 1116.0 286.5Q1118 307 1117 328Q1114 330 1111.0 333.0Q1108 336 1104 338Q1102 304 1100.0 273.5Q1098 243 1096 220ZM1168 243Q1199 254 1234.0 265.5Q1269 277 1304 290Q1235 280 1169 262Q1169 258 1168.5 253.0Q1168 248 1168 243Z" />
  </g>
</svg>