<svg xmlns="http://www.w3.org/2000/svg" viewBox="100 -112 1570 884">
  <g transform="translate(0, 660) scale(1, -1)">
    <path fill="black" d="M1583 -112Q1583 -90 1583.0 -70.0Q1583 -50 1582 -31Q1495 -31 1428.5 -35.5Q1362 -40 1309.0 -48.5Q1256 -57 1208.0 -68.5Q1160 -80 1110 -94Q1114 -76 1115.5 -58.0Q1117 -40 1117 -21Q1025 45 958.5 87.0Q892 129 841.0 155.0Q790 181 745.5 199.0Q701 217 652 235Q678 258 701 292Q599 291 529.0 286.0Q459 281 408.0 273.0Q357 265 314.0 254.0Q271 243 223 229Q227 246 228.5 264.5Q230 283 230 302Q230 321 228.5 340.0Q227 359 223 379Q264 368 306.5 357.0Q349 346 403.5 337.0Q458 328 533.5 322.0Q609 316 717 315Q723 325 729.0 335.5Q735 346 740 357Q767 324 796.5 289.0Q826 254 867.0 213.5Q908 173 968.5 122.5Q1029 72 1116 8Q1115 32 1110 56Q1167 41 1231.5 26.5Q1296 12 1380.5 2.5Q1465 -7 1582 -8Q1580 105 1572.5 178.5Q1565 252 1554 309Q1544 309 1534.0 308.5Q1524 308 1514 308Q1508 296 1502.0 285.5Q1496 275 1490 264Q1502 244 1512.5 221.5Q1523 199 1539 175L1529 166Q1500 193 1482.0 209.5Q1464 226 1450.5 237.5Q1437 249 1419 261Q1409 236 1401.5 219.5Q1394 203 1389.5 184.0Q1385 165 1382.0 134.5Q1379 104 1377 51H1362Q1359 98 1355.5 125.5Q1352 153 1347.5 170.0Q1343 187 1336 202Q1323 180 1313.5 161.0Q1304 142 1295 125Q1306 105 1316.0 83.5Q1326 62 1342 37L1332 28Q1302 55 1284.0 71.5Q1266 88 1252.0 99.5Q1238 111 1220 124Q1219 109 1218.0 91.5Q1217 74 1216 51H1201Q1197 104 1192.5 133.0Q1188 162 1182.5 179.5Q1177 197 1169.5 213.0Q1162 229 1150 257L1110 246Q1114 266 1116.0 286.5Q1118 307 1117 328Q1025 394 958.5 436.0Q892 478 841.0 504.5Q790 531 745.5 549.0Q701 567 652 585Q663 595 673.5 606.5Q684 618 694 631Q597 630 528.5 625.0Q460 620 408.5 612.0Q357 604 313.5 593.0Q270 582 223 569Q227 587 228.5 605.0Q230 623 230 642Q230 652 229.5 661.5Q229 671 228 681Q211 596 198.5 470.0Q186 344 186 156H163Q163 279 158.5 371.5Q154 464 146.0 535.0Q138 606 126.5 663.5Q115 721 100 772Q137 764 173 764Q192 764 211.0 766.0Q230 768 250 772Q246 759 242.5 745.0Q239 731 236 715Q275 705 317.5 695.0Q360 685 413.5 676.5Q467 668 539.5 662.5Q612 657 711 655Q726 679 740 707Q767 674 796.5 639.5Q826 605 867.0 564.5Q908 524 968.0 473.5Q1028 423 1115 359Q1114 368 1113.0 377.0Q1112 386 1110 396Q1122 392 1135.0 389.0Q1148 386 1161 382Q1158 394 1154.5 405.5Q1151 417 1147 427Q1164 424 1177.5 422.5Q1191 421 1204 421Q1215 421 1228.5 422.0Q1242 423 1259 427Q1249 402 1241 364Q1262 360 1284.5 356.0Q1307 352 1331 348Q1322 395 1309 427Q1326 424 1339.0 422.5Q1352 421 1365 421Q1376 421 1389.5 422.0Q1403 423 1421 427Q1414 411 1408.5 389.0Q1403 367 1399 341Q1423 339 1448.5 337.0Q1474 335 1502 334L1529 357L1539 350Q1536 346 1533.5 341.5Q1531 337 1528 333Q1533 333 1539.0 332.5Q1545 332 1550 332Q1543 361 1535.5 389.0Q1528 417 1520 446Q1557 438 1593 438Q1612 438 1631.0 440.0Q1650 442 1670 446Q1658 403 1647.0 355.5Q1636 308 1626.5 246.0Q1617 184 1611.5 97.0Q1606 10 1606 -112ZM1389 260 1415 264Q1426 274 1439.0 283.5Q1452 293 1469 306Q1449 305 1430.0 304.0Q1411 303 1393 301Q1392 291 1391.0 281.0Q1390 271 1389 260ZM1220 126Q1237 142 1260.5 159.5Q1284 177 1330 217Q1326 226 1320.5 237.5Q1315 249 1309 265Q1331 260 1345 259Q1344 269 1342.5 278.0Q1341 287 1340 295Q1280 288 1229 277L1227 260L1259 265Q1247 238 1239.5 220.0Q1232 202 1227.5 182.0Q1223 162 1220 126ZM1183 259V265Q1173 263 1167 261Z" />
  </g>
</svg>