<svg xmlns="http://www.w3.org/2000/svg" viewBox="100 -112 1570 884">
  <g transform="translate(0, 660) scale(1, -1)">
    <path fill="black" d="M1583 -112Q1583 -90 1583.0 -70.0Q1583 -50 1582 -31Q1495 -31 1428.5 -35.5Q1362 -40 1309.0 -48.5Q1256 -57 1208.0 -68.5Q1160 -80 1110 -94Q1114 -76 1115.5 -58.0Q1117 -40 1117 -21Q1025 45 958.5 87.0Q892 129 841.0 155.0Q790 181 745.5 199.0Q701 217 652 235Q678 258 701 292Q599 291 529.0 286.0Q459 281 408.0 273.0Q357 265 314.0 254.0Q271 243 223 229Q227 246 228.5 264.5Q230 283 230 302Q230 321 228.5 340.0Q227 359 223 379Q264 368 306.5 357.0Q349 346 403.5 337.0Q458 328 533.5 322.0Q609 316 717 315Q723 325 729.0 335.5Q735 346 740 357Q767 324 796.5 289.0Q826 254 867.0 213.5Q908 173 968.5 122.5Q1029 72 1116 8Q1115 32 1110 56Q1147 46 1187.0 36.0Q1227 26 1273 18L1270 73L1204 63Q1206 71 1206.5 83.5Q1207 96 1207 109Q1207 130 1204 145Q1212 144 1227.5 141.0Q1243 138 1265 135L1263 162Q1242 159 1226.5 157.0Q1211 155 1204 153Q1206 161 1206.5 173.5Q1207 186 1207 199Q1207 220 1204 235Q1210 234 1224.0 231.5Q1238 229 1256 227Q1253 266 1248 280Q1213 273 1179.0 264.5Q1145 256 1110 246Q1114 266 1116.0 286.5Q1118 307 1117 328Q1025 394 958.5 436.0Q892 478 841.0 504.5Q790 531 745.5 549.0Q701 567 652 585Q663 595 673.5 606.5Q684 618 694 631Q597 630 528.5 625.0Q460 620 408.5 612.0Q357 604 313.5 593.0Q270 582 223 569Q227 587 228.5 605.0Q230 623 230 642Q230 652 229.5 661.5Q229 671 228 681Q211 596 198.5 470.0Q186 344 186 156H163Q163 279 158.5 371.5Q154 464 146.0 535.0Q138 606 126.5 663.5Q115 721 100 772Q137 764 173 764Q192 764 211.0 766.0Q230 768 250 772Q246 759 242.5 745.0Q239 731 236 715Q275 705 317.5 695.0Q360 685 413.5 676.5Q467 668 539.5 662.5Q612 657 711 655Q726 679 740 707Q767 674 796.5 639.5Q826 605 867.0 564.5Q908 524 968.0 473.5Q1028 423 1115 359Q1114 368 1113.0 377.0Q1112 386 1110 396Q1164 382 1225.0 368.0Q1286 354 1365.0 344.0Q1444 334 1550 332Q1543 361 1535.5 389.0Q1528 417 1520 446Q1557 438 1593 438Q1612 438 1631.0 440.0Q1650 442 1670 446Q1658 403 1647.0 355.5Q1636 308 1626.5 246.0Q1617 184 1611.5 97.0Q1606 10 1606 -112ZM1570 198Q1567 230 1563.0 257.0Q1559 284 1554 309Q1460 308 1390.5 301.0Q1321 294 1263 283Q1274 282 1285.5 282.5Q1297 283 1309 286Q1307 282 1304.0 264.0Q1301 246 1299 221L1326 217Q1323 244 1320.5 262.5Q1318 281 1316 286Q1331 284 1346.5 283.0Q1362 282 1378 286Q1376 281 1373.0 261.0Q1370 241 1367 212L1396 209Q1393 238 1390.0 259.5Q1387 281 1385 286Q1400 284 1415.5 283.0Q1431 282 1447 286Q1445 281 1441.5 258.5Q1438 236 1435 205L1466 203Q1462 235 1459.0 258.0Q1456 281 1454 286Q1469 284 1484.5 283.0Q1500 282 1516 286Q1514 280 1511.0 256.5Q1508 233 1504 200Q1521 199 1538.0 198.5Q1555 198 1570 198ZM1578 108Q1577 131 1575.0 151.0Q1573 171 1571 190Q1555 189 1538.0 189.0Q1521 189 1503 187Q1501 169 1499.5 149.5Q1498 130 1496 111Q1538 108 1578 108ZM1474 112 1468 185 1433 182 1427 116ZM1404 118Q1403 133 1402.0 148.5Q1401 164 1399 178L1363 175Q1362 162 1361.5 149.5Q1361 137 1359 123Q1370 122 1381.5 121.0Q1393 120 1404 118ZM1335 126 1331 171 1294 166 1291 132ZM1582 -8Q1581 22 1580.5 48.5Q1580 75 1578 100Q1539 100 1495 97Q1492 65 1490.5 37.5Q1489 10 1489 -6Q1511 -7 1534.0 -7.5Q1557 -8 1582 -8ZM1481 -5Q1480 10 1478.5 37.0Q1477 64 1475 95L1425 91Q1423 63 1421.5 39.0Q1420 15 1420 -1ZM1412 0 1407 89Q1394 88 1381.0 87.0Q1368 86 1356 84Q1354 61 1353.0 40.5Q1352 20 1351 6Q1379 2 1412 0ZM1342 7Q1342 21 1341.0 40.5Q1340 60 1338 82L1286 75L1283 16Q1297 13 1311.5 11.0Q1326 9 1342 7Z" />
  </g>
</svg>