<svg xmlns="http://www.w3.org/2000/svg" viewBox="100 -112 1609 884">
  <g transform="translate(0, 660) scale(1, -1)">
    <path fill="black" d="M1583 -112Q1583 -90 1583.0 -70.0Q1583 -50 1582 -31Q1495 -31 1428.5 -35.5Q1362 -40 1309.0 -48.5Q1256 -57 1208.0 -68.5Q1160 -80 1110 -94Q1114 -76 1115.5 -58.0Q1117 -40 1117 -21Q1095 -5 1075.0 8.5Q1055 22 1036 35Q1032 34 1029.0 33.5Q1026 33 1024 33Q1024 35 1024.5 37.5Q1025 40 1025 42Q958 87 906.5 117.5Q855 148 813.0 168.5Q771 189 732.5 204.5Q694 220 652 235Q678 258 701 292Q599 291 529.0 286.0Q459 281 408.0 273.0Q357 265 314.0 254.0Q271 243 223 229Q227 246 228.5 264.5Q230 283 230 302Q230 321 228.5 340.0Q227 359 223 379Q264 368 306.5 357.0Q349 346 403.5 337.0Q458 328 533.5 322.0Q609 316 717 315Q723 325 729.0 335.5Q735 346 740 357Q771 319 805.5 278.5Q840 238 892.5 189.0Q945 140 1027 76Q1027 99 1024 115L1088 104L1086 133L1024 123Q1026 131 1026.5 143.5Q1027 156 1027 169Q1027 190 1024 205L1078 196Q1075 219 1072.0 235.0Q1069 251 1067 256Q1078 255 1089.0 253.5Q1100 252 1111 253Q1119 289 1117 328Q1025 394 958.5 436.0Q892 478 841.0 504.5Q790 531 745.5 549.0Q701 567 652 585Q663 595 673.5 606.5Q684 618 694 631Q597 630 528.5 625.0Q460 620 408.5 612.0Q357 604 313.5 593.0Q270 582 223 569Q227 587 228.5 605.0Q230 623 230 642Q230 652 229.5 661.5Q229 671 228 681Q211 596 198.5 470.0Q186 344 186 156H163Q163 279 158.5 371.5Q154 464 146.0 535.0Q138 606 126.5 663.5Q115 721 100 772Q137 764 173 764Q192 764 211.0 766.0Q230 768 250 772Q246 759 242.5 745.0Q239 731 236 715Q275 705 317.5 695.0Q360 685 413.5 676.5Q467 668 539.5 662.5Q612 657 711 655Q726 679 740 707Q767 674 796.5 639.5Q826 605 867.0 564.5Q908 524 968.0 473.5Q1028 423 1115 359Q1114 368 1113.0 377.0Q1112 386 1110 396Q1164 382 1225.0 368.0Q1286 354 1365.0 344.0Q1444 334 1550 332Q1543 361 1535.5 389.0Q1528 417 1520 446Q1557 438 1593 438Q1612 438 1631.0 440.0Q1650 442 1670 446Q1659 405 1648.0 361.5Q1637 318 1628.5 262.5Q1620 207 1614 130Q1640 127 1664.5 125.0Q1689 123 1709 123V115Q1688 115 1663.0 113.0Q1638 111 1612 108Q1606 17 1606 -112ZM1582 -8Q1581 23 1580.5 51.0Q1580 79 1578 104Q1537 98 1498.0 91.0Q1459 84 1430.0 78.0Q1401 72 1389 68Q1391 76 1391.5 92.5Q1392 109 1392 126Q1392 155 1389 170Q1401 167 1429.5 160.5Q1458 154 1496.5 147.0Q1535 140 1576 134Q1572 188 1567.0 230.0Q1562 272 1554 309Q1457 308 1385.5 301.0Q1314 294 1256.5 282.5Q1199 271 1142 255Q1156 253 1169.5 252.5Q1183 252 1198 256Q1196 251 1193.0 230.5Q1190 210 1187 181L1216 178Q1213 207 1210.0 229.0Q1207 251 1205 256Q1220 254 1235.5 253.0Q1251 252 1267 256Q1265 251 1262.0 228.5Q1259 206 1255 174Q1263 173 1271.0 172.5Q1279 172 1286 172Q1282 204 1279.0 227.5Q1276 251 1274 256Q1289 254 1304.5 253.0Q1320 252 1336 256Q1334 250 1330.5 226.5Q1327 203 1324 170Q1339 169 1354.5 168.5Q1370 168 1384 168V160Q1370 160 1354.5 159.5Q1339 159 1323 158Q1321 139 1319.5 119.5Q1318 100 1316 80Q1333 79 1350.5 78.5Q1368 78 1384 78V70Q1368 70 1350.0 69.5Q1332 69 1315 68Q1314 52 1313.0 38.5Q1312 25 1311 11Q1365 3 1431.5 -2.0Q1498 -7 1582 -8ZM1146 186Q1144 211 1141.5 228.5Q1139 246 1137 253L1127 251Q1125 243 1122.5 226.5Q1120 210 1117 190Q1125 189 1132.0 188.5Q1139 188 1146 186ZM1294 81Q1293 100 1291.0 119.0Q1289 138 1287 156L1253 153L1247 85Q1259 84 1270.5 83.0Q1282 82 1294 81ZM1224 87Q1223 103 1222.0 119.0Q1221 135 1219 150L1184 146Q1183 133 1181.5 119.5Q1180 106 1179 92Q1190 91 1201.5 90.0Q1213 89 1224 87ZM1155 95Q1154 107 1153.0 119.0Q1152 131 1151 142L1111 137Q1110 128 1109.0 119.0Q1108 110 1107 101ZM1298 13Q1297 26 1297.0 39.0Q1297 52 1295 67Q1283 66 1270.5 65.0Q1258 64 1245 62L1243 23ZM1229 26 1226 61 1176 55Q1175 51 1175.0 47.0Q1175 43 1175 39Q1188 35 1201.5 32.0Q1215 29 1229 26ZM1159 43Q1159 45 1158.5 47.5Q1158 50 1158 53L1132 50Q1139 48 1145.5 46.5Q1152 45 1159 43ZM1116 8Q1115 18 1114.0 27.5Q1113 37 1111 47Q1108 46 1103 46Q1102 38 1102.0 31.0Q1102 24 1102 19Q1105 16 1108.5 13.5Q1112 11 1116 8ZM1094 25Q1094 29 1093.5 34.0Q1093 39 1093 44L1072 41Z" />
  </g>
</svg>