<svg xmlns="http://www.w3.org/2000/svg" viewBox="100 -112 1633 884">
  <g transform="translate(0, 660) scale(1, -1)">
    <path fill="black" d="M1583 -112Q1583 -90 1583.0 -70.0Q1583 -50 1582 -31Q1495 -31 1428.5 -35.5Q1362 -40 1309.0 -48.5Q1256 -57 1208.0 -68.5Q1160 -80 1110 -94Q1114 -76 1115.5 -58.0Q1117 -40 1117 -21Q1095 -5 1075.0 8.5Q1055 22 1036 35Q1032 34 1029.0 33.5Q1026 33 1024 33Q1024 35 1024.5 37.5Q1025 40 1025 42Q958 87 906.5 117.5Q855 148 813.0 168.5Q771 189 732.5 204.5Q694 220 652 235Q678 258 699 288Q599 287 529.0 282.5Q459 278 408.0 270.5Q357 263 313.5 253.0Q270 243 223 229Q227 246 228.5 264.5Q230 283 230 302Q230 321 228.5 340.0Q227 359 223 379Q264 368 306.5 357.0Q349 346 403.5 336.0Q458 326 533.5 320.0Q609 314 715 312Q722 323 728.0 334.0Q734 345 740 357Q771 319 805.5 278.5Q840 238 892.5 189.0Q945 140 1027 76Q1027 99 1024 115Q1032 114 1049.0 110.5Q1066 107 1088 103L1085 134L1024 123Q1026 131 1026.5 143.5Q1027 156 1027 169Q1027 190 1024 205Q1032 204 1045.5 201.0Q1059 198 1078 195Q1075 218 1072.0 234.5Q1069 251 1067 256Q1084 253 1103 253H1111Q1117 283 1117 315V328Q1025 394 958.5 436.0Q892 478 841.0 504.5Q790 531 745.5 549.0Q701 567 652 585Q663 595 673.5 606.5Q684 618 694 631Q597 630 528.5 625.0Q460 620 408.5 612.0Q357 604 313.5 593.0Q270 582 223 569Q227 587 228.5 605.0Q230 623 230 642Q230 652 229.5 661.5Q229 671 228 681Q211 596 198.5 470.0Q186 344 186 156H163Q163 279 158.5 371.5Q154 464 146.0 535.0Q138 606 126.5 663.5Q115 721 100 772Q137 764 173 764Q192 764 211.0 766.0Q230 768 250 772Q246 759 242.5 745.0Q239 731 236 715Q275 705 317.5 695.0Q360 685 413.5 676.5Q467 668 539.5 662.5Q612 657 711 655Q726 679 740 707Q767 674 796.5 639.5Q826 605 867.0 564.5Q908 524 968.0 473.5Q1028 423 1115 359Q1114 368 1113.0 377.0Q1112 386 1110 396Q1164 382 1225.0 368.0Q1286 354 1365.0 344.0Q1444 334 1550 332Q1543 361 1535.5 389.0Q1528 417 1520 446Q1557 438 1593 438Q1612 438 1631.0 440.0Q1650 442 1670 446Q1657 397 1644.0 342.5Q1631 288 1621 210Q1653 187 1684.5 166.0Q1716 145 1733 135L1726 131Q1706 118 1673.0 95.5Q1640 73 1609 50Q1606 -22 1606 -112ZM1347 168Q1348 176 1348.5 184.0Q1349 192 1349 201Q1349 219 1346 235Q1352 232 1376.5 228.0Q1401 224 1434.5 219.0Q1468 214 1502.0 210.0Q1536 206 1563 204Q1515 223 1502 225Q1512 236 1520.5 249.5Q1529 263 1533 279Q1535 275 1543.5 268.0Q1552 261 1564 252Q1562 267 1559.5 281.5Q1557 296 1554 309Q1457 308 1385.5 301.0Q1314 294 1256.5 282.5Q1199 271 1142 255Q1156 252 1169 252Q1185 252 1198 256Q1196 251 1193.0 230.0Q1190 209 1187 180L1216 176Q1213 207 1210.0 229.0Q1207 251 1205 256Q1222 253 1239 253Q1252 253 1267 256Q1265 251 1262.0 228.0Q1259 205 1255 173L1286 170Q1283 203 1279.5 226.5Q1276 250 1274 256Q1291 253 1308 253Q1321 253 1336 256Q1334 250 1330.5 226.0Q1327 202 1324 169Q1329 168 1335.0 168.0Q1341 168 1347 168ZM1147 185Q1144 210 1141.5 228.0Q1139 246 1137 253L1127 251Q1125 243 1122.5 226.5Q1120 210 1117 189ZM1509 57Q1508 97 1501.5 126.5Q1495 156 1489 170Q1494 169 1500.0 168.5Q1506 168 1513 168Q1519 168 1525.0 168.5Q1531 169 1538 170Q1534 160 1529 140Q1534 139 1541.0 138.5Q1548 138 1555 138Q1560 138 1565.5 138.0Q1571 138 1576 139Q1575 154 1573.5 167.5Q1572 181 1571 194Q1543 192 1502.5 187.5Q1462 183 1424.0 178.0Q1386 173 1364 168V160Q1354 160 1344.0 159.5Q1334 159 1323 159Q1321 140 1319.5 119.5Q1318 99 1316 79Q1324 79 1332.0 78.5Q1340 78 1347 78Q1346 79 1346 83Q1350 81 1363.0 78.5Q1376 76 1395 73Q1388 104 1384 116Q1389 115 1396.0 114.5Q1403 114 1410 114Q1415 114 1420.0 114.0Q1425 114 1430 115V116L1431 115L1433 116V115Q1438 114 1443.0 114.0Q1448 114 1454 114Q1460 114 1466.0 114.5Q1472 115 1479 116Q1476 109 1473.0 95.0Q1470 81 1467 63ZM1611 85Q1642 98 1671.0 111.5Q1700 125 1718 135Q1702 144 1674.5 156.5Q1647 169 1618 181Q1616 159 1614.5 135.0Q1613 111 1611 85ZM1294 80Q1293 100 1291.0 119.5Q1289 139 1287 157Q1279 157 1270.5 156.5Q1262 156 1253 155L1247 83ZM1225 86 1219 151Q1210 150 1201.0 149.5Q1192 149 1184 147Q1183 134 1181.5 119.5Q1180 105 1179 91Q1190 90 1201.5 88.5Q1213 87 1225 86ZM1155 94Q1154 106 1153.0 118.5Q1152 131 1151 143L1111 137Q1110 128 1109.0 119.0Q1108 110 1107 101ZM1536 54Q1541 57 1547 58Q1544 87 1539.0 107.5Q1534 128 1529 139Q1525 123 1522.0 102.5Q1519 82 1518 56Q1523 56 1527.5 55.5Q1532 55 1536 54ZM1561 64 1579 71Q1578 88 1578.0 104.0Q1578 120 1576 135Q1572 125 1568.0 106.5Q1564 88 1561 64ZM1442 66Q1438 96 1431 112Q1427 99 1422 69ZM1403 0Q1403 6 1402.5 11.5Q1402 17 1401 22Q1380 19 1365.5 16.0Q1351 13 1346 11Q1347 19 1348.0 30.0Q1349 41 1349 52Q1349 57 1349.0 61.5Q1349 66 1348 70Q1340 70 1331.5 69.5Q1323 69 1315 68Q1314 53 1313.0 39.0Q1312 25 1311 11Q1332 8 1355.0 5.0Q1378 2 1403 0ZM1298 13 1295 67 1246 64 1243 23ZM1229 26 1226 62Q1213 61 1200.5 59.5Q1188 58 1176 56Q1175 52 1175.0 48.0Q1175 44 1175 39Q1188 35 1201.5 32.0Q1215 29 1229 26ZM1159 43Q1158 46 1158 54Q1151 53 1144.0 52.5Q1137 52 1130 50ZM1116 8Q1115 18 1114.0 28.0Q1113 38 1111 48L1103 46Q1102 38 1102.0 31.0Q1102 24 1102 19Q1105 16 1108.5 13.5Q1112 11 1116 8ZM1094 25Q1094 30 1093.5 34.5Q1093 39 1093 45Q1087 44 1082.0 43.0Q1077 42 1072 41Q1077 37 1082.5 33.0Q1088 29 1094 25ZM1532 -7Q1528 6 1522.0 16.5Q1516 27 1508 36Q1497 35 1485.5 34.0Q1474 33 1463 31Q1462 22 1461.0 13.5Q1460 5 1459 -4ZM1582 -8 1581 30Q1565 17 1552.5 7.5Q1540 -2 1535 -7Q1546 -7 1558.0 -7.5Q1570 -8 1582 -8ZM1449 -3Q1449 5 1448.5 13.0Q1448 21 1447 29L1416 24Q1415 18 1414.5 12.0Q1414 6 1414 0Z" />
  </g>
</svg>