<svg xmlns="http://www.w3.org/2000/svg" viewBox="100 -159 1071 895">
  <g transform="translate(0, 577) scale(1, -1)">
    <path fill="black" d="M202 -159Q190 -108 166.0 -51.5Q142 5 108 57Q116 57 126.0 58.5Q136 60 149 62Q149 114 146.5 180.0Q144 246 140.0 318.0Q136 390 131.0 459.0Q126 528 120.5 586.5Q115 645 110.0 684.5Q105 724 100 736Q118 732 133.0 730.0Q148 728 163 728Q184 728 211 734Q210 734 210 736Q212 735 215 735Q218 735 219 736Q219 735 218.5 735.0Q218 735 218 734Q234 732 247.0 730.0Q260 728 273 728Q293 728 321 734Q320 734 320 736Q322 735 325 735Q328 735 329 736Q329 735 328.5 735.0Q328 735 328 734Q344 732 357.0 730.0Q370 728 383 728Q403 728 431 734Q430 734 430 736Q432 735 435 735Q438 735 439 736Q439 735 438.5 735.0Q438 735 438 734Q468 728 491 728Q504 728 518.0 730.0Q532 732 549 736Q544 724 538.5 683.0Q533 642 527.5 581.0Q522 520 517.0 448.5Q512 377 508.0 303.5Q504 230 502 164Q599 196 702.0 231.5Q805 267 902.0 302.0Q999 337 1079 367Q1040 382 987.5 401.0Q935 420 877.0 440.0Q819 460 762.0 478.5Q705 497 656.5 512.5Q608 528 575.0 538.0Q542 548 533 549Q553 577 568.5 607.5Q584 638 591 676Q599 667 629.5 646.5Q660 626 705.5 598.0Q751 570 804.0 539.0Q857 508 911.5 477.0Q966 446 1014.5 419.5Q1063 393 1098 375Q1115 381 1131.0 387.0Q1147 393 1161 399L1171 376Q1117 348 1044.0 311.0Q971 274 887.0 231.0Q803 188 716.0 143.0Q629 98 546.5 53.5Q464 9 393.5 -31.0Q323 -71 273.0 -104.0Q223 -137 202 -159ZM170 66Q189 71 211.5 76.5Q234 82 259 89Q258 148 255.0 221.5Q252 295 247.0 371.0Q242 447 236.5 516.5Q231 586 225.0 639.5Q219 693 214 719Q209 691 203.0 634.5Q197 578 191.0 505.0Q185 432 180.5 352.5Q176 273 173.0 198.5Q170 124 170 66ZM280 95Q300 101 322.5 107.5Q345 114 368 121Q367 181 363.5 251.5Q360 322 355.5 394.0Q351 466 345.5 530.5Q340 595 334.5 644.5Q329 694 324 719Q319 693 313.5 640.0Q308 587 302.5 518.5Q297 450 292.0 374.5Q287 299 284.0 226.5Q281 154 280 95ZM391 128 477 155Q475 215 471.5 282.5Q468 350 463.5 417.5Q459 485 454.0 544.5Q449 604 444.0 649.5Q439 695 434 719Q429 694 424.0 645.5Q419 597 413.5 533.0Q408 469 403.5 398.5Q399 328 396.0 258.0Q393 188 391 128Z" />
  </g>
</svg>