<svg xmlns="http://www.w3.org/2000/svg" viewBox="100 -85 1303 872">
  <g transform="translate(0, 702) scale(1, -1)">
    <path fill="black" d="M100 215Q124 323 100 431Q119 427 137.5 423.0Q156 419 175 415Q228 498 275.0 581.5Q322 665 356 748Q378 724 400.5 707.0Q423 690 448 681Q379 621 315.0 553.0Q251 485 192 412Q344 391 496.0 377.0Q648 363 800 355Q742 421 676.0 488.5Q610 556 547.5 615.0Q485 674 435 714Q485 738 523 787Q540 752 572.0 700.5Q604 649 645.0 589.5Q686 530 730.5 469.0Q775 408 817 354Q1083 338 1348 336V310Q1247 309 1131.0 305.5Q1015 302 894.0 296.0Q773 290 655.5 281.5Q538 273 432.0 262.5Q326 252 241.0 240.0Q156 228 100 215ZM1381 -85Q1318 -25 1255.0 25.0Q1192 75 1129 115Q1191 162 1253.0 214.0Q1315 266 1367 322Q1312 375 1252.0 421.5Q1192 468 1129 510Q1264 608 1381 732L1403 720Q1378 668 1347.5 615.5Q1317 563 1283 510Q1312 473 1342.0 427.0Q1372 381 1403 325Q1352 220 1283 115Q1317 69 1347.0 23.0Q1377 -23 1403 -70Z" />
  </g>
</svg>