<svg xmlns="http://www.w3.org/2000/svg" viewBox="100 -217 1180 1107">
  <g transform="translate(0, 673) scale(1, -1)">
    <path fill="black" d="M195 -217Q207 -166 207 -112Q207 -58 195 -1Q235 -12 303.0 -23.0Q371 -34 457.0 -43.5Q543 -53 636 -62Q635 15 630.0 111.5Q625 208 616 309Q507 299 408.0 286.5Q309 274 240 259Q223 205 210.5 139.5Q198 74 191.5 -10.0Q185 -94 185 -206H161Q161 -88 153.5 -0.5Q146 87 132.5 154.0Q119 221 100 277Q149 268 200 271Q204 291 205.5 311.0Q207 331 207 352Q207 407 195 464Q232 454 295.0 443.5Q358 433 438.5 423.5Q519 414 607 406Q599 488 589.0 564.5Q579 641 568.0 705.5Q557 770 544 816Q595 804 649 804Q702 804 759 816Q748 776 737.0 711.0Q726 646 716.5 565.5Q707 485 698 398Q817 388 930.5 381.0Q1044 374 1130 372Q1123 456 1113.0 535.5Q1103 615 1091.5 683.5Q1080 752 1067 802Q995 798 941.0 790.0Q887 782 842.5 770.5Q798 759 754 744Q760 780 760 817Q760 854 754 890Q796 876 838.5 865.0Q881 854 931.5 846.0Q982 838 1048.0 833.5Q1114 829 1202 829V805Q1221 806 1240.5 809.0Q1260 812 1280 816Q1269 774 1257.5 706.0Q1246 638 1235.5 554.0Q1225 470 1216.0 378.0Q1207 286 1200.5 196.0Q1194 106 1190.5 26.5Q1187 -53 1187 -112V-124Q1128 -124 1046.0 -127.0Q964 -130 869.5 -136.0Q775 -142 677.0 -150.0Q579 -158 487.5 -168.5Q396 -179 320.5 -191.0Q245 -203 195 -217ZM1144 804Q1158 803 1172.5 803.5Q1187 804 1201 805Q1186 805 1172.0 805.0Q1158 805 1144 804ZM1157 -93Q1156 -10 1150.0 105.0Q1144 220 1133 340Q1045 339 928.5 332.5Q812 326 690 315Q681 210 675.0 111.0Q669 12 667 -65Q758 -73 847.5 -79.0Q937 -85 1017.0 -88.5Q1097 -92 1157 -93Z" />
  </g>
</svg>