<svg xmlns="http://www.w3.org/2000/svg" viewBox="100 -217 1250 1107">
  <g transform="translate(0, 673) scale(1, -1)">
    <path fill="black" d="M195 -217Q207 -166 207 -112Q207 -58 195 -1Q233 -11 300.0 -21.5Q367 -32 454.0 -41.5Q541 -51 636 -59Q635 22 629.0 126.5Q623 231 613 339Q553 335 485.0 323.5Q417 312 353.5 296.5Q290 281 242 265Q225 210 212.0 144.0Q199 78 192.0 -7.5Q185 -93 185 -206H161Q161 -88 153.5 -0.5Q146 87 132.5 154.0Q119 221 100 277Q149 268 200 271Q204 291 205.5 311.0Q207 331 207 352Q207 407 195 464Q226 451 274.5 437.0Q323 423 380.0 409.5Q437 396 496.5 386.5Q556 377 610 373Q602 461 592.0 544.0Q582 627 570.0 697.0Q558 767 544 816Q595 804 649 804Q702 804 759 816Q748 777 737.5 714.5Q727 652 717.5 575.0Q708 498 699.5 413.0Q691 328 684.5 243.0Q678 158 673.5 79.5Q669 1 668 -62Q772 -70 876.0 -77.0Q980 -84 1071.0 -88.0Q1162 -92 1227 -93Q1226 -22 1221.5 71.0Q1217 164 1209.5 266.0Q1202 368 1191.0 468.5Q1180 569 1166.5 655.5Q1153 742 1137 802Q1012 796 916.5 781.0Q821 766 754 744Q760 780 760 817Q760 854 754 890Q838 862 966.5 845.5Q1095 829 1272 829V805Q1291 806 1310.5 809.0Q1330 812 1350 816Q1339 774 1327.5 706.0Q1316 638 1305.5 554.0Q1295 470 1286.0 378.0Q1277 286 1270.5 196.0Q1264 106 1260.5 26.5Q1257 -53 1257 -112V-124Q1198 -124 1111.0 -127.0Q1024 -130 921.5 -136.0Q819 -142 712.0 -150.0Q605 -158 505.5 -168.5Q406 -179 325.5 -191.0Q245 -203 195 -217ZM1214 804Q1228 803 1242.5 803.5Q1257 804 1271 805Q1257 805 1242.5 805.0Q1228 805 1214 804ZM884 141Q884 189 880.0 242.5Q876 296 868.5 347.5Q861 399 851.5 442.5Q842 486 830 515Q859 509 889 509Q918 509 954 515V514Q968 512 982.0 510.5Q996 509 1010 509Q1039 509 1075 515Q1065 491 1055.5 461.0Q1046 431 1038 388Q1047 389 1056.0 390.5Q1065 392 1075 393Q1062 361 1049.5 316.5Q1037 272 1029.0 225.5Q1021 179 1021 141H1005Q1005 198 989.5 266.5Q974 335 951 393Q969 389 988 387Q981 426 972.0 455.0Q963 484 952 511Q942 486 933.0 443.0Q924 400 916.5 348.0Q909 296 904.5 242.0Q900 188 900 141Z" />
  </g>
</svg>