<svg xmlns="http://www.w3.org/2000/svg" viewBox="100 -217 1250 1107">
  <g transform="translate(0, 673) scale(1, -1)">
    <path fill="black" d="M195 -217Q207 -166 207 -112Q207 -58 195 -1Q233 -11 300.0 -21.5Q367 -32 454.0 -41.5Q541 -51 636 -59Q635 22 629.0 126.5Q623 231 613 339Q553 335 485.0 323.5Q417 312 353.5 296.5Q290 281 242 265Q225 210 212.0 144.0Q199 78 192.0 -7.5Q185 -93 185 -206H161Q161 -88 153.5 -0.5Q146 87 132.5 154.0Q119 221 100 277Q119 273 137.5 271.5Q156 270 175 270Q181 270 187.0 270.0Q193 270 200 271Q204 291 205.5 311.0Q207 331 207 352Q207 407 195 464Q226 451 274.5 437.0Q323 423 380.0 409.5Q437 396 496.5 386.5Q556 377 610 373Q602 461 592.0 544.0Q582 627 570.0 697.0Q558 767 544 816Q595 804 649 804Q702 804 759 816Q748 777 737.5 713.0Q727 649 717.5 570.5Q708 492 699 407Q706 406 713.0 405.5Q720 405 726 405Q732 405 738.0 405.5Q744 406 750 407V428Q749 427 747 427L750 440V442Q756 473 747 510Q791 498 850.0 490.0Q909 482 976 479Q976 481 975.5 482.0Q975 483 975 484Q995 481 1011 481Q1029 481 1047 484Q1043 473 1039.5 452.0Q1036 431 1033 404Q1049 403 1061.5 403.5Q1074 404 1088 405Q1097 404 1105.0 403.5Q1113 403 1120 403Q1128 403 1135.0 403.5Q1142 404 1149 405Q1164 404 1175.0 403.5Q1186 403 1197 404Q1197 408 1196.5 412.5Q1196 417 1196 421Q1144 451 1106.5 465.0Q1069 479 1032 495Q1049 510 1065.0 532.0Q1081 554 1091 576Q1109 551 1132.0 523.5Q1155 496 1192 461Q1181 562 1167.0 651.5Q1153 741 1137 802Q1012 796 916.5 781.0Q821 766 754 744Q760 780 760 817Q760 854 754 890Q838 862 966.5 845.5Q1095 829 1272 829V805Q1291 806 1310.5 809.0Q1330 812 1350 816Q1339 774 1327.0 705.5Q1315 637 1305.0 552.5Q1295 468 1286 377L1312 356L1281 331Q1271 213 1264.5 100.0Q1258 -13 1257 -94V-124Q1198 -124 1111.0 -127.0Q1024 -130 921.5 -136.0Q819 -142 712.0 -150.0Q605 -158 505.5 -168.5Q406 -179 325.5 -191.0Q245 -203 195 -217ZM1214 804Q1228 803 1242.5 803.5Q1257 804 1271 805Q1257 805 1242.5 805.0Q1228 805 1214 804ZM986 422 980 466Q924 463 873.0 455.0Q822 447 780 436Q806 433 843.5 430.0Q881 427 919.5 425.0Q958 423 986 422ZM992 376 988 411Q964 410 931.0 408.5Q898 407 863.5 405.0Q829 403 800.5 400.5Q772 398 757 395Q757 393 756 392Q770 389 799.0 386.0Q828 383 863.5 381.0Q899 379 933.0 377.5Q967 376 992 376ZM1125 253 1171 276Q1168 317 1162.5 350.0Q1157 383 1148 404Q1138 379 1133.5 338.5Q1129 298 1125 253ZM1062 235H1081Q1096 240 1110 247Q1108 293 1102.5 337.0Q1097 381 1088 403Q1077 376 1072.0 330.0Q1067 284 1062 235ZM1052 236Q1049 280 1044.5 324.0Q1040 368 1032 393Q1028 356 1025.0 315.0Q1022 274 1020 237Q1028 236 1036.0 236.0Q1044 236 1052 236ZM1184 284 1207 297 1200 379Q1190 342 1184 284ZM1227 -93Q1226 -22 1221.5 72.0Q1217 166 1209 267Q1165 226 1138.0 194.5Q1111 163 1091 135Q1081 157 1065.0 179.0Q1049 201 1032 216L1050 223Q1042 223 1034.5 223.0Q1027 223 1019 222L1015 178H1006L1003 222Q923 218 855.5 210.5Q788 203 747 191Q752 209 753.0 223.5Q754 238 752 252H750V260L747 276Q748 275 751 275Q751 282 750.5 288.0Q750 294 750 299V300Q752 325 750 346V347Q750 352 750.5 357.0Q751 362 751 367Q745 335 741.0 293.0Q737 251 734.0 209.0Q731 167 728 135H719Q717 167 713.5 212.5Q710 258 705.5 303.0Q701 348 696 378Q684 259 677.0 143.0Q670 27 668 -62Q772 -70 876.0 -77.0Q980 -84 1071.0 -88.0Q1162 -92 1227 -93ZM996 327 993 366Q968 365 932.0 363.5Q896 362 859.0 359.0Q822 356 792.5 353.0Q763 350 751 346Q762 343 791.5 339.5Q821 336 859.0 333.5Q897 331 934.0 329.5Q971 328 996 327ZM1283 346 1295 355Q1293 357 1290.0 359.0Q1287 361 1284 363Q1284 359 1283.5 355.0Q1283 351 1283 346ZM1000 280 997 317Q973 316 936.5 314.5Q900 313 862.5 311.0Q825 309 794.5 306.0Q764 303 751 299Q763 296 793.5 292.5Q824 289 862.5 286.5Q901 284 938.0 282.0Q975 280 1000 280ZM1002 238Q1002 246 1001.5 253.5Q1001 261 1000 271Q979 271 946.0 269.5Q913 268 877.5 266.0Q842 264 811 261Q850 254 899.0 247.5Q948 241 1002 238Z" />
  </g>
</svg>