<svg xmlns="http://www.w3.org/2000/svg" viewBox="100 -217 1250 1107">
  <g transform="translate(0, 673) scale(1, -1)">
    <path fill="black" d="M195 -217Q207 -166 207 -112Q207 -58 195 -1Q233 -11 300.0 -21.5Q367 -32 454.0 -41.5Q541 -51 636 -59Q635 22 629.0 126.5Q623 231 613 339Q553 335 485.0 323.5Q417 312 353.5 296.5Q290 281 242 265Q225 210 212.0 144.0Q199 78 192.0 -7.5Q185 -93 185 -206H161Q161 -88 153.5 -0.5Q146 87 132.5 154.0Q119 221 100 277Q119 273 137.5 271.5Q156 270 175 270Q181 270 187.0 270.0Q193 270 200 271Q204 291 205.5 311.0Q207 331 207 352Q207 407 195 464Q226 451 274.5 437.0Q323 423 380.0 409.5Q437 396 496.5 386.5Q556 377 610 373Q602 461 592.0 544.0Q582 627 570.0 697.0Q558 767 544 816Q595 804 649 804Q702 804 759 816Q748 777 737.5 714.5Q727 652 717.5 575.0Q708 498 699.5 413.0Q691 328 684.5 243.0Q678 158 673.5 79.5Q669 1 668 -62Q772 -70 876.0 -77.0Q980 -84 1071.0 -88.0Q1162 -92 1227 -93Q1226 -22 1221.5 71.0Q1217 164 1209.5 266.0Q1202 368 1191.0 468.5Q1180 569 1166.5 655.5Q1153 742 1137 802Q1012 796 916.5 781.0Q821 766 754 744Q760 780 760 817Q760 854 754 890Q838 862 966.5 845.5Q1095 829 1272 829V805Q1291 806 1310.5 809.0Q1330 812 1350 816Q1339 775 1328.0 709.5Q1317 644 1306.5 562.5Q1296 481 1287.5 391.5Q1279 302 1272.0 214.0Q1265 126 1261.5 46.5Q1258 -33 1257 -94V-124Q1198 -124 1111.0 -127.0Q1024 -130 921.5 -136.0Q819 -142 712.0 -150.0Q605 -158 505.5 -168.5Q406 -179 325.5 -191.0Q245 -203 195 -217ZM1214 804Q1228 803 1242.5 803.5Q1257 804 1271 805Q1257 805 1242.5 805.0Q1228 805 1214 804ZM819 101Q819 207 808.5 295.5Q798 384 783.5 447.5Q769 511 756 542Q773 538 790.0 536.0Q807 534 825 534Q842 534 860.5 536.0Q879 538 898 542Q886 513 872.0 452.5Q858 392 847.5 308.5Q837 225 835 125Q890 193 926 244Q925 273 920.0 306.5Q915 340 907.0 370.0Q899 400 891.5 422.0Q884 444 878 451Q891 448 904.5 447.0Q918 446 931 446Q945 446 959.5 447.0Q974 448 990 451Q984 444 973.5 414.0Q963 384 954.5 345.0Q946 306 942 269Q974 317 992.5 357.0Q1011 397 1030 441Q1020 483 1008.5 506.0Q997 529 986 542Q999 539 1012.5 538.0Q1026 537 1039 537Q1053 537 1067.5 538.0Q1082 539 1098 542Q1086 529 1072.5 502.5Q1059 476 1049 426H1048Q1074 398 1100.5 374.5Q1127 351 1157 333Q1113 313 1066.0 286.5Q1019 260 963.5 216.5Q908 173 835 101Z" />
  </g>
</svg>