<svg xmlns="http://www.w3.org/2000/svg" viewBox="100 -217 1318 1107">
  <g transform="translate(0, 673) scale(1, -1)">
    <path fill="black" d="M195 -217Q207 -166 207 -112Q207 -58 195 -1Q233 -11 300.0 -21.5Q367 -32 454.0 -41.5Q541 -51 636 -59Q635 22 629.0 126.5Q623 231 613 339Q553 335 485.0 323.5Q417 312 353.5 296.5Q290 281 242 265Q225 210 212.0 144.0Q199 78 192.0 -7.5Q185 -93 185 -206H161Q161 -88 153.5 -0.5Q146 87 132.5 154.0Q119 221 100 277Q119 273 137.5 271.5Q156 270 175 270Q181 270 187.0 270.0Q193 270 200 271Q204 291 205.5 311.0Q207 331 207 352Q207 407 195 464Q226 451 274.5 437.0Q323 423 380.0 409.5Q437 396 496.5 386.5Q556 377 610 373Q602 461 592.0 544.0Q582 627 570.0 697.0Q558 767 544 816Q595 804 649 804Q702 804 759 816Q748 777 737.5 714.5Q727 652 717.5 575.0Q708 498 699.5 413.0Q691 328 684.5 243.0Q678 158 673.5 79.5Q669 1 668 -62Q772 -70 876.0 -77.0Q980 -84 1071.0 -88.0Q1162 -92 1227 -93Q1226 -10 1220.0 104.5Q1214 219 1203 339Q1151 330 1109.0 320.0Q1067 310 1047 303Q1049 311 1050.0 321.0Q1051 331 1052 342Q990 313 935.5 285.5Q881 258 841.5 235.5Q802 213 783 198Q779 217 772.0 233.0Q765 249 755 263L776 267Q775 299 771.5 337.5Q768 376 764.0 408.5Q760 441 755 454Q769 451 781.0 451.0Q793 451 803 452Q790 456 777.5 458.5Q765 461 755 462Q765 476 772.0 492.5Q779 509 783 528Q812 505 884.5 466.0Q957 427 1051 383Q1050 393 1049.5 402.5Q1049 412 1047 420Q1066 413 1107.0 405.5Q1148 398 1198 391Q1187 512 1171.5 621.0Q1156 730 1137 802Q1012 796 916.5 781.0Q821 766 754 744Q760 780 760 817Q760 854 754 890Q838 862 966.5 845.5Q1095 829 1272 829V805Q1291 806 1310.5 809.0Q1330 812 1350 816Q1339 775 1327.5 707.0Q1316 639 1305.5 555.0Q1295 471 1286 381Q1314 378 1341.0 376.0Q1368 374 1393 373Q1373 392 1361.0 403.5Q1349 415 1339.5 423.0Q1330 431 1316 440Q1331 452 1348.0 466.0Q1365 480 1400 511L1409 506Q1399 488 1390.5 472.0Q1382 456 1373 440Q1382 426 1390.5 409.5Q1399 393 1409 375L1406 372H1418V361H1406L1409 359L1373 294Q1382 280 1390.5 264.0Q1399 248 1409 229L1400 221Q1377 242 1364.0 254.5Q1351 267 1341.0 276.0Q1331 285 1316 294Q1330 305 1346.0 318.5Q1362 332 1394 360Q1340 359 1283 351Q1275 265 1269.0 179.5Q1263 94 1260.0 19.0Q1257 -56 1257 -112V-124Q1198 -124 1111.0 -127.0Q1024 -130 921.5 -136.0Q819 -142 712.0 -150.0Q605 -158 505.5 -168.5Q406 -179 325.5 -191.0Q245 -203 195 -217ZM1214 804Q1228 803 1242.5 803.5Q1257 804 1271 805Q1257 805 1242.5 805.0Q1228 805 1214 804ZM806 438Q820 436 831.5 436.5Q843 437 855 438L810 451Q808 446 806 438ZM838 283Q881 296 935.0 314.5Q989 333 1052 357V369Q997 391 948.5 407.5Q900 424 860 436Q852 414 847.0 370.0Q842 326 838 283ZM787 269 825 279Q823 308 820.5 339.0Q818 370 814.0 396.0Q810 422 805 435Q798 405 794.5 357.5Q791 310 787 269Z" />
  </g>
</svg>