<svg xmlns="http://www.w3.org/2000/svg" viewBox="100 -217 1250 1107">
  <g transform="translate(0, 673) scale(1, -1)">
    <path fill="black" d="M195 -217Q207 -166 207 -112Q207 -58 195 -1Q233 -11 300.0 -21.5Q367 -32 454.0 -41.5Q541 -51 636 -59Q635 22 629.0 126.5Q623 231 613 339Q553 335 485.0 323.5Q417 312 353.5 296.5Q290 281 242 265Q225 210 212.0 144.0Q199 78 192.0 -7.5Q185 -93 185 -206H161Q161 -88 153.5 -0.5Q146 87 132.5 154.0Q119 221 100 277Q119 273 137.5 271.5Q156 270 175 270Q181 270 187.0 270.0Q193 270 200 271Q204 291 205.5 311.0Q207 331 207 352Q207 407 195 464Q226 451 274.5 437.0Q323 423 380.0 409.5Q437 396 496.5 386.5Q556 377 610 373Q602 461 592.0 544.0Q582 627 570.0 697.0Q558 767 544 816Q595 804 649 804Q702 804 759 816Q748 777 737.5 714.5Q727 652 717.5 575.0Q708 498 699.5 413.0Q691 328 684.5 243.0Q678 158 673.5 79.5Q669 1 668 -62Q772 -70 876.0 -77.0Q980 -84 1071.0 -88.0Q1162 -92 1227 -93Q1226 -22 1221.5 71.0Q1217 164 1209.5 266.0Q1202 368 1191.0 468.5Q1180 569 1166.5 655.5Q1153 742 1137 802Q1012 796 916.5 781.0Q821 766 754 744Q760 780 760 817Q760 854 754 890Q838 862 966.5 845.5Q1095 829 1272 829V805Q1291 806 1310.5 809.0Q1330 812 1350 816Q1339 775 1328.0 709.5Q1317 644 1306.5 562.5Q1296 481 1287.5 391.5Q1279 302 1272.0 214.0Q1265 126 1261.5 46.5Q1258 -33 1257 -94V-124Q1198 -124 1111.0 -127.0Q1024 -130 921.5 -136.0Q819 -142 712.0 -150.0Q605 -158 505.5 -168.5Q406 -179 325.5 -191.0Q245 -203 195 -217ZM1214 804Q1228 803 1242.5 803.5Q1257 804 1271 805Q1257 805 1242.5 805.0Q1228 805 1214 804ZM957 147Q927 174 909.0 190.5Q891 207 877.0 218.5Q863 230 845 243Q844 228 843.0 210.5Q842 193 841 170H826Q822 225 817.5 254.5Q813 284 807.5 301.0Q802 318 793.5 335.5Q785 353 772 384Q794 379 808 378Q802 428 794.0 470.5Q786 513 772 546Q789 543 802.5 541.5Q816 540 829 540Q840 540 853.5 541.0Q867 542 884 546Q872 518 864.5 474.5Q857 431 852 379L884 384Q872 357 864.5 339.0Q857 321 852.5 301.0Q848 281 845 245Q862 261 885.5 278.5Q909 296 955 336Q951 345 945.5 356.5Q940 368 934 384Q956 379 970 378Q964 428 955.5 470.5Q947 513 934 546Q951 543 964.0 541.5Q977 540 990 540Q1001 540 1014.5 541.0Q1028 542 1046 546Q1034 518 1026.5 474.5Q1019 431 1014 379L1040 383Q1053 394 1067.5 404.5Q1082 415 1102.5 431.5Q1123 448 1154 476L1164 469Q1148 444 1137.5 423.5Q1127 403 1115 383Q1127 363 1137.5 340.5Q1148 318 1164 294L1154 285Q1125 312 1107.0 328.5Q1089 345 1075.5 356.5Q1062 368 1044 380Q1034 355 1026.5 338.5Q1019 322 1014.5 303.0Q1010 284 1007.0 253.5Q1004 223 1002 170H987Q984 217 980.0 244.5Q976 272 972.0 289.0Q968 306 961 321Q948 299 938.5 280.0Q929 261 920 244Q931 224 941.0 202.5Q951 181 967 156Z" />
  </g>
</svg>