<svg xmlns="http://www.w3.org/2000/svg" viewBox="100 -217 1375 1107">
  <g transform="translate(0, 673) scale(1, -1)">
    <path fill="black" d="M195 -217Q207 -166 207 -112Q207 -58 195 -1Q233 -11 300.0 -21.5Q367 -32 454.0 -41.5Q541 -51 636 -59Q635 22 629.0 126.5Q623 231 613 339Q553 335 485.0 323.5Q417 312 353.5 296.5Q290 281 242 265Q225 210 212.0 144.0Q199 78 192.0 -7.5Q185 -93 185 -206H161Q161 -88 153.5 -0.5Q146 87 132.5 154.0Q119 221 100 277Q119 273 137.5 271.5Q156 270 175 270Q181 270 187.0 270.0Q193 270 200 271Q204 291 205.5 311.0Q207 331 207 352Q207 407 195 464Q226 451 274.5 437.0Q323 423 380.0 409.5Q437 396 496.5 386.5Q556 377 610 373Q602 461 592.0 544.0Q582 627 570.0 697.0Q558 767 544 816Q595 804 649 804Q702 804 759 816Q748 777 737.5 714.5Q727 652 717.5 575.0Q708 498 699.5 413.0Q691 328 684.5 243.0Q678 158 673.5 79.5Q669 1 668 -62Q772 -70 876.0 -77.0Q980 -84 1071.0 -88.0Q1162 -92 1227 -93Q1227 -37 1223.5 33.5Q1220 104 1215.0 182.5Q1210 261 1203 341Q1156 335 1117.0 327.0Q1078 319 1058 311L1061 330Q1038 300 1013.0 267.5Q988 235 970.0 208.5Q952 182 947 169Q945 170 943 174Q939 177 935.0 181.0Q931 185 927 189Q912 200 893 211L899 214Q898 216 897.0 216.5Q896 217 895 218Q880 200 859.5 174.5Q839 149 818.5 123.5Q798 98 783.5 78.0Q769 58 766 51Q756 66 745.0 76.5Q734 87 720 96Q725 97 738 107Q735 130 731.5 166.5Q728 203 724.0 242.0Q720 281 716.5 310.0Q713 339 710 347Q727 342 740 342Q762 354 780 373Q763 391 740 404Q757 412 783.5 432.5Q810 453 841.0 480.0Q872 507 900 532L893 537Q909 545 922.0 555.0Q935 565 947 579Q952 566 970.0 539.5Q988 513 1012.0 481.5Q1036 450 1059 420Q1059 422 1058.5 424.0Q1058 426 1058 428Q1075 421 1112.5 413.5Q1150 406 1198 399Q1186 518 1170.5 624.5Q1155 731 1137 802Q1012 796 916.5 781.0Q821 766 754 744Q760 780 760 817Q760 854 754 890Q838 862 966.5 845.5Q1095 829 1272 829V805Q1291 806 1310.5 809.0Q1330 812 1350 816Q1339 775 1327.5 708.5Q1316 642 1306.0 559.5Q1296 477 1287 388Q1391 377 1475 377V362Q1435 362 1385.0 359.0Q1335 356 1283 351Q1276 269 1270.0 188.0Q1264 107 1261.0 34.5Q1258 -38 1257 -94V-124Q1198 -124 1111.0 -127.0Q1024 -130 921.5 -136.0Q819 -142 712.0 -150.0Q605 -158 505.5 -168.5Q406 -179 325.5 -191.0Q245 -203 195 -217ZM1214 804Q1228 803 1242.5 803.5Q1257 804 1271 805Q1257 805 1242.5 805.0Q1228 805 1214 804ZM914 224 925 233Q923 255 920.0 287.0Q917 319 914.5 351.5Q912 384 909.0 408.0Q906 432 904 438Q917 436 930.0 435.0Q943 434 956 438Q954 432 951.0 409.5Q948 387 945.0 356.0Q942 325 939.0 294.0Q936 263 934 240Q963 263 998.0 295.0Q1033 327 1063 355Q1063 365 1063.0 374.0Q1063 383 1062 393Q1039 415 1012.5 439.5Q986 464 960.5 486.5Q935 509 915 523Q894 498 870.5 469.5Q847 441 828.0 416.0Q809 391 799 373Q809 356 828.0 331.0Q847 306 870.0 278.0Q893 250 914 224ZM745 112Q764 126 790.0 146.0Q816 166 842.5 187.5Q869 209 888 224Q858 252 826.0 279.0Q794 306 769 324Q765 299 760.5 258.5Q756 218 752.0 178.0Q748 138 745 112Z" />
  </g>
</svg>