<svg xmlns="http://www.w3.org/2000/svg" viewBox="100 -217 1250 1107">
  <g transform="translate(0, 673) scale(1, -1)">
    <path fill="black" d="M195 -217Q207 -166 207 -112Q207 -58 195 -1Q233 -11 300.0 -21.5Q367 -32 454.0 -41.5Q541 -51 636 -59Q635 22 629.0 126.5Q623 231 613 339Q553 335 485.0 323.5Q417 312 353.5 296.5Q290 281 242 265Q225 210 212.0 144.0Q199 78 192.0 -7.5Q185 -93 185 -206H161Q161 -88 153.5 -0.5Q146 87 132.5 154.0Q119 221 100 277Q119 273 137.5 271.5Q156 270 175 270Q181 270 187.0 270.0Q193 270 200 271Q204 291 205.5 311.0Q207 331 207 352Q207 407 195 464Q226 451 274.5 437.0Q323 423 380.0 409.5Q437 396 496.5 386.5Q556 377 610 373Q602 461 592.0 544.0Q582 627 570.0 697.0Q558 767 544 816Q595 804 649 804Q702 804 759 816Q748 777 737.5 714.5Q727 652 717.5 575.0Q708 498 699.5 413.0Q691 328 684.5 243.0Q678 158 673.5 79.5Q669 1 668 -62Q772 -70 876.0 -77.0Q980 -84 1071.0 -88.0Q1162 -92 1227 -93Q1227 -22 1222.0 70.5Q1217 163 1209.5 265.5Q1202 368 1191 466Q1184 429 1179.0 379.5Q1174 330 1170.5 262.5Q1167 195 1165 101H1151Q1150 124 1148.5 145.0Q1147 166 1146 185Q1093 185 1031.0 182.0Q969 179 908.0 174.5Q847 170 796.0 163.5Q745 157 714 149Q717 170 717 190Q717 209 714 231V234Q717 254 717 274Q717 292 714 313V316Q716 326 717.0 336.5Q718 347 718 357Q718 374 715 393H714V398H715Q716 407 716.5 415.5Q717 424 717 433Q717 454 714 478Q752 468 820.5 460.0Q889 452 965 447Q962 462 958.5 474.5Q955 487 952 496Q973 493 995 493Q1015 493 1037 496Q1033 488 1030.0 474.5Q1027 461 1024 444Q1049 443 1073.0 442.0Q1097 441 1119 441Q1115 464 1109.5 486.0Q1104 508 1098 531Q1122 524 1151 524Q1159 524 1167.0 524.5Q1175 525 1184 526Q1174 608 1162.5 679.0Q1151 750 1137 802Q1012 796 916.5 781.0Q821 766 754 744Q760 780 760 817Q760 854 754 890Q838 862 966.5 845.5Q1095 829 1272 829V805Q1291 806 1310.5 809.0Q1330 812 1350 816Q1339 775 1328.0 709.5Q1317 644 1306.5 562.5Q1296 481 1287.5 391.5Q1279 302 1272.0 214.0Q1265 126 1261.5 46.5Q1258 -33 1257 -94V-124Q1198 -124 1111.0 -127.0Q1024 -130 921.5 -136.0Q819 -142 712.0 -150.0Q605 -158 505.5 -168.5Q406 -179 325.5 -191.0Q245 -203 195 -217ZM1214 804Q1228 803 1242.5 803.5Q1257 804 1271 805Q1257 805 1242.5 805.0Q1228 805 1214 804ZM1131 361Q1129 380 1126.0 396.5Q1123 413 1121 429L1020 426Q1018 412 1016.0 396.5Q1014 381 1012 365Q1043 364 1073.0 362.5Q1103 361 1131 361ZM908 372Q919 381 933.5 392.5Q948 404 965 420L972 415L970 423Q897 419 831.0 412.0Q765 405 724 395Q756 388 804.5 382.5Q853 377 908 372ZM979 366 973 409Q966 398 960.0 388.0Q954 378 949 368Q957 368 964.5 367.5Q972 367 979 366ZM1139 279Q1138 299 1136.0 316.0Q1134 333 1132 349Q1104 348 1073.0 347.5Q1042 347 1010 345L1005 283Q1040 282 1074.0 280.5Q1108 279 1139 279ZM988 284Q987 299 985.5 314.0Q984 329 982 344L934 341Q931 334 926 327L947 287ZM898 290Q886 301 875.5 309.0Q865 317 851 327L861 335Q818 331 782.0 326.0Q746 321 720 314Q750 307 796.5 301.0Q843 295 898 290ZM1145 197Q1144 216 1142.5 233.5Q1141 251 1140 267Q1109 267 1074.0 266.0Q1039 265 1004 263Q1003 247 1002.5 231.0Q1002 215 1002 201Q1040 200 1076.0 198.5Q1112 197 1145 197ZM992 202Q992 216 991.5 231.0Q991 246 990 262Q983 262 975.5 261.5Q968 261 961 261Q964 255 967.5 249.5Q971 244 975 238L965 229Q955 237 947.5 244.5Q940 252 932 259Q868 255 811.5 248.0Q755 241 720 232Q763 222 837.5 214.5Q912 207 992 202Z" />
  </g>
</svg>