<svg xmlns="http://www.w3.org/2000/svg" viewBox="100 -217 1180 1107">
  <g transform="translate(0, 673) scale(1, -1)">
    <path fill="black" d="M195 -217Q207 -166 207 -112Q207 -58 195 -1Q235 -12 303.0 -23.0Q371 -34 457.0 -43.5Q543 -53 636 -62Q635 15 630.0 111.5Q625 208 616 309Q507 299 408.0 286.5Q309 274 240 259Q223 205 210.5 139.5Q198 74 191.5 -10.0Q185 -94 185 -206H161Q161 -88 153.5 -0.5Q146 87 132.5 154.0Q119 221 100 277Q119 273 137.5 271.5Q156 270 175 270Q181 270 187.0 270.0Q193 270 200 271Q204 291 205.5 311.0Q207 331 207 352Q207 407 195 464Q232 454 295.0 443.5Q358 433 438.5 423.5Q519 414 607 406Q599 488 589.0 564.5Q579 641 568.0 705.5Q557 770 544 816Q595 804 649 804Q702 804 759 816Q748 776 737.0 711.0Q726 646 716.5 565.5Q707 485 698 398Q731 395 764.5 392.0Q798 389 831 387Q824 444 813.0 491.0Q802 538 789 578Q825 572 862 572Q899 572 935 578Q922 538 911.0 490.0Q900 442 892 383L1003 377Q995 437 984.0 487.0Q973 537 959 578Q995 572 1032 572Q1069 572 1105 578Q1091 536 1079.5 486.0Q1068 436 1060 374Q1080 373 1097.0 372.5Q1114 372 1130 372Q1123 456 1113.0 535.5Q1103 615 1091.5 683.5Q1080 752 1067 802Q995 798 941.0 790.0Q887 782 842.5 770.5Q798 759 754 744Q760 780 760 817Q760 854 754 890Q796 876 838.5 865.0Q881 854 931.5 846.0Q982 838 1048.0 833.5Q1114 829 1202 829V805Q1221 806 1240.5 809.0Q1260 812 1280 816Q1269 774 1257.5 706.0Q1246 638 1235.5 554.0Q1225 470 1216.0 378.0Q1207 286 1200.5 196.0Q1194 106 1190.5 26.5Q1187 -53 1187 -112V-124Q1128 -124 1046.0 -127.0Q964 -130 869.5 -136.0Q775 -142 677.0 -150.0Q579 -158 487.5 -168.5Q396 -179 320.5 -191.0Q245 -203 195 -217ZM1144 804Q1158 803 1172.5 803.5Q1187 804 1201 805Q1186 805 1172.0 805.0Q1158 805 1144 804ZM1157 -93Q1156 -10 1150.0 105.0Q1144 220 1133 340Q1116 340 1096.0 339.5Q1076 339 1056 338Q1044 226 1044 75H1020Q1020 225 1008 336Q979 335 948.0 333.0Q917 331 885 329Q880 275 877.0 212.0Q874 149 874 75H850Q850 147 847.0 209.5Q844 272 839 326Q802 324 765.0 321.0Q728 318 690 315Q681 210 675.0 111.0Q669 12 667 -65Q758 -73 847.5 -79.0Q937 -85 1017.0 -88.5Q1097 -92 1157 -93Z" />
  </g>
</svg>