<svg xmlns="http://www.w3.org/2000/svg" viewBox="100 -217 1250 1107">
  <g transform="translate(0, 673) scale(1, -1)">
    <path fill="black" d="M195 -217Q207 -166 207 -112Q207 -58 195 -1Q233 -11 300.0 -21.5Q367 -32 454.0 -41.5Q541 -51 636 -59Q635 22 629.0 126.5Q623 231 613 339Q553 335 485.0 323.5Q417 312 353.5 296.5Q290 281 242 265Q225 210 212.0 144.0Q199 78 192.0 -7.5Q185 -93 185 -206H161Q161 -88 153.5 -0.5Q146 87 132.5 154.0Q119 221 100 277Q119 273 137.5 271.5Q156 270 175 270Q181 270 187.0 270.0Q193 270 200 271Q204 291 205.5 311.0Q207 331 207 352Q207 407 195 464Q226 451 274.5 437.0Q323 423 380.0 409.5Q437 396 496.5 386.5Q556 377 610 373Q602 461 592.0 544.0Q582 627 570.0 697.0Q558 767 544 816Q595 804 649 804Q702 804 759 816Q748 777 737.5 714.5Q727 652 717.5 575.0Q708 498 699.5 413.0Q691 328 684.5 243.0Q678 158 673.5 79.5Q669 1 668 -62Q772 -70 876.0 -77.0Q980 -84 1071.0 -88.0Q1162 -92 1227 -93Q1226 -22 1221.5 71.0Q1217 164 1209.5 266.0Q1202 368 1191.0 468.5Q1180 569 1166.5 655.5Q1153 742 1137 802Q1012 796 916.5 781.0Q821 766 754 744Q760 780 760 817Q760 854 754 890Q838 862 966.5 845.5Q1095 829 1272 829V805Q1291 806 1310.5 809.0Q1330 812 1350 816Q1339 774 1327.5 706.0Q1316 638 1305.5 554.0Q1295 470 1286.0 378.0Q1277 286 1270.5 196.0Q1264 106 1260.5 26.5Q1257 -53 1257 -112V-124Q1198 -124 1111.0 -127.0Q1024 -130 921.5 -136.0Q819 -142 712.0 -150.0Q605 -158 505.5 -168.5Q406 -179 325.5 -191.0Q245 -203 195 -217ZM1214 804Q1228 803 1242.5 803.5Q1257 804 1271 805Q1257 805 1242.5 805.0Q1228 805 1214 804ZM924 154Q924 177 923.0 202.0Q922 227 920 254Q877 247 839.5 238.0Q802 229 776 219Q782 248 782 278Q782 307 776 343Q797 334 834.0 325.5Q871 317 915 309Q913 332 910.5 355.5Q908 379 905 401Q866 394 832.5 386.0Q799 378 776 369Q782 398 782 428Q782 457 776 493Q795 485 826.0 477.5Q857 470 895 463Q889 492 883.0 516.5Q877 541 870 558Q899 552 929 552Q958 552 994 558Q987 542 980.0 514.5Q973 487 967 452Q1014 446 1061.0 442.5Q1108 439 1150 439V423Q1106 423 1057.0 419.5Q1008 416 961 410Q957 385 953.5 358.0Q950 331 948 304Q998 297 1051.0 293.0Q1104 289 1150 289V273Q1102 273 1048.5 269.0Q995 265 944 257Q942 229 941.0 203.0Q940 177 940 154Z" />
  </g>
</svg>