<svg xmlns="http://www.w3.org/2000/svg" viewBox="100 -217 1250 1107">
  <g transform="translate(0, 673) scale(1, -1)">
    <path fill="black" d="M195 -217Q207 -166 207 -112Q207 -58 195 -1Q233 -11 300.0 -21.5Q367 -32 454.0 -41.5Q541 -51 636 -59Q635 22 629.0 126.5Q623 231 613 339Q553 335 485.0 323.5Q417 312 353.5 296.5Q290 281 242 265Q225 210 212.0 144.0Q199 78 192.0 -7.5Q185 -93 185 -206H161Q161 -88 153.5 -0.5Q146 87 132.5 154.0Q119 221 100 277Q119 273 137.5 271.5Q156 270 175 270Q181 270 187.0 270.0Q193 270 200 271Q204 291 205.5 311.0Q207 331 207 352Q207 407 195 464Q226 451 274.5 437.0Q323 423 380.0 409.5Q437 396 496.5 386.5Q556 377 610 373Q602 461 592.0 544.0Q582 627 570.0 697.0Q558 767 544 816Q595 804 649 804Q702 804 759 816Q748 777 737.5 714.5Q727 652 717.5 575.0Q708 498 699.5 413.0Q691 328 684.5 243.0Q678 158 673.5 79.5Q669 1 668 -62Q772 -70 876.0 -77.0Q980 -84 1071.0 -88.0Q1162 -92 1227 -93Q1226 -26 1222.0 60.5Q1218 147 1211.0 243.0Q1204 339 1194.0 435.0Q1184 531 1172 615Q1149 575 1133.0 543.5Q1117 512 1102 486Q1113 467 1132.5 438.0Q1152 409 1180 372L1168 362Q1117 408 1082.5 436.0Q1048 464 1018 486Q1040 505 1081.0 542.5Q1122 580 1159 623L1172 616Q1157 728 1137 802Q1012 796 916.5 781.0Q821 766 754 744Q760 780 760 817Q760 854 754 890Q838 862 966.5 845.5Q1095 829 1272 829V805Q1291 806 1310.5 809.0Q1330 812 1350 816Q1339 774 1327.5 706.0Q1316 638 1305.5 554.0Q1295 470 1286.0 378.0Q1277 286 1270.5 196.0Q1264 106 1260.5 26.5Q1257 -53 1257 -112V-124Q1198 -124 1111.0 -127.0Q1024 -130 921.5 -136.0Q819 -142 712.0 -150.0Q605 -158 505.5 -168.5Q406 -179 325.5 -191.0Q245 -203 195 -217ZM1214 804Q1228 803 1242.5 803.5Q1257 804 1271 805Q1257 805 1242.5 805.0Q1228 805 1214 804ZM861 362Q810 408 775.5 436.0Q741 464 711 486Q733 505 774.0 542.5Q815 580 852 623L866 616Q843 575 826.5 543.5Q810 512 795 486Q806 467 825.5 438.0Q845 409 873 372ZM906 395Q877 421 860.0 436.5Q843 452 829.5 463.0Q816 474 798 486Q816 502 839.5 519.0Q863 536 906 575L916 569Q901 546 891.0 526.0Q881 506 870 486Q881 467 891.0 446.5Q901 426 916 403ZM980 395Q951 421 934.0 436.5Q917 452 903.5 463.0Q890 474 872 486Q890 502 913.0 519.0Q936 536 980 575L990 569Q975 546 965.0 526.0Q955 506 944 486Q955 467 965.0 446.5Q975 426 990 403ZM1053 395Q1024 421 1007.0 436.5Q990 452 976.5 463.0Q963 474 945 486Q963 502 986.5 519.0Q1010 536 1053 575L1063 569Q1048 546 1038.0 526.0Q1028 506 1017 486Q1028 467 1038.0 446.5Q1048 426 1063 403ZM861 82Q810 128 775.5 156.0Q741 184 711 206Q733 225 774.0 262.5Q815 300 852 343L866 336Q843 295 826.5 263.5Q810 232 795 206Q806 187 825.5 158.0Q845 129 873 92ZM1168 82Q1117 128 1082.5 156.0Q1048 184 1018 206Q1040 225 1081.0 262.5Q1122 300 1159 343L1173 336Q1150 295 1133.5 263.5Q1117 232 1102 206Q1113 187 1132.5 158.0Q1152 129 1180 92ZM906 115Q877 141 860.0 156.5Q843 172 829.5 183.0Q816 194 798 206Q816 222 839.5 239.0Q863 256 906 295L916 289Q901 266 891.0 246.0Q881 226 870 206Q881 187 891.0 166.5Q901 146 916 123ZM980 115Q951 141 934.0 156.5Q917 172 903.5 183.0Q890 194 872 206Q890 222 913.0 239.0Q936 256 980 295L990 289Q975 266 965.0 246.0Q955 226 944 206Q955 187 965.0 166.5Q975 146 990 123ZM1053 115Q1024 141 1007.0 156.5Q990 172 976.5 183.0Q963 194 945 206Q963 222 986.5 239.0Q1010 256 1053 295L1063 289Q1048 266 1038.0 246.0Q1028 226 1017 206Q1028 187 1038.0 166.5Q1048 146 1063 123Z" />
  </g>
</svg>