<svg xmlns="http://www.w3.org/2000/svg" viewBox="100 -217 1250 1107">
  <g transform="translate(0, 673) scale(1, -1)">
    <path fill="black" d="M195 -217Q207 -166 207 -112Q207 -58 195 -1Q233 -11 300.0 -21.5Q367 -32 454.0 -41.5Q541 -51 636 -59Q635 9 630.5 95.0Q626 181 619 272L527 330Q451 319 374.5 301.0Q298 283 242 265Q225 210 212.0 144.0Q199 78 192.0 -7.5Q185 -93 185 -206H161Q161 -88 153.5 -0.5Q146 87 132.5 154.0Q119 221 100 277Q119 273 137.5 271.5Q156 270 175 270Q181 270 187.0 270.0Q193 270 200 271Q204 291 205.5 311.0Q207 331 207 352Q207 407 195 464Q228 451 281.0 435.5Q334 420 395 406Q361 424 331.5 438.0Q302 452 280 459Q294 475 306.0 492.5Q318 510 327 529Q347 505 393.0 467.0Q439 429 497 386Q526 382 555.0 378.5Q584 375 610 373L598 493Q572 506 544.5 517.5Q517 529 489 538Q503 554 515.0 571.5Q527 589 535 608Q546 595 560.5 580.5Q575 566 591 552Q581 632 569.0 700.0Q557 768 544 816Q595 804 649 804Q702 804 759 816Q744 763 730.0 667.5Q716 572 704 459L745 430Q743 432 743 433Q793 440 844 454Q826 491 812.0 512.0Q798 533 786.5 544.5Q775 556 764.5 564.5Q754 573 743 585Q763 590 780.0 597.5Q797 605 816 618Q815 618 815 619Q851 626 887 653Q890 633 891.0 612.5Q892 592 900.0 562.0Q908 532 930 482Q950 490 971.5 498.5Q993 507 1016 517Q1010 519 1004.5 519.5Q999 520 993 521Q1005 539 1013.5 558.5Q1022 578 1028 598Q1073 561 1109.0 537.0Q1145 513 1188 490Q1178 583 1165.0 664.0Q1152 745 1137 802Q1012 796 916.5 781.0Q821 766 754 744Q760 780 760 817Q760 854 754 890Q838 862 966.5 845.5Q1095 829 1272 829V805Q1291 806 1310.5 809.0Q1330 812 1350 816Q1340 778 1329.5 717.5Q1319 657 1309.0 582.0Q1299 507 1290.5 424.5Q1282 342 1275 259Q1280 257 1284.5 255.0Q1289 253 1293 251L1286 235L1274 240Q1267 146 1262.5 59.0Q1258 -28 1257 -94V-124Q1198 -124 1111.0 -127.0Q1024 -130 921.5 -136.0Q819 -142 712.0 -150.0Q605 -158 505.5 -168.5Q406 -179 325.5 -191.0Q245 -203 195 -217ZM1214 804Q1228 803 1242.5 803.5Q1257 804 1271 805Q1257 805 1242.5 805.0Q1228 805 1214 804ZM855 457Q871 462 887.5 467.0Q904 472 920 478Q901 517 886.5 540.0Q872 563 860.5 575.5Q849 588 838.5 596.5Q828 605 817 616Q818 597 819.0 577.5Q820 558 827.5 530.0Q835 502 855 457ZM773 193Q769 206 763.0 218.5Q757 231 750 244Q816 253 877.5 272.5Q939 292 1018 326L987 332Q1011 367 1022 408Q1067 371 1114.5 342.5Q1162 314 1207 291Q1203 335 1199.5 379.0Q1196 423 1191 466Q1115 497 1048 511Q988 486 944.0 464.5Q900 443 861.0 418.0Q822 393 777 356Q774 367 771.0 376.5Q768 386 763 396Q751 404 735.5 414.5Q720 425 702 436Q697 391 693.0 345.0Q689 299 685 253Q711 236 732.5 220.5Q754 205 773 193ZM617 300 613 339Q603 338 591.0 337.5Q579 337 568 335ZM1227 -93Q1226 -22 1221.5 72.0Q1217 166 1209 267Q1171 282 1129.0 296.0Q1087 310 1046 320Q1018 307 994.0 296.0Q970 285 948 274Q923 225 913.5 194.5Q904 164 902.0 143.0Q900 122 897 101Q879 115 862.5 124.5Q846 134 825 138Q841 153 855.5 164.0Q870 175 888.0 197.0Q906 219 931 265Q909 254 889.0 242.0Q869 230 849 216Q829 173 820.5 144.0Q812 115 809.5 94.0Q807 73 804 54Q771 80 733 90Q747 103 760.0 114.5Q773 126 788.0 145.0Q803 164 824 199L782 166Q763 179 737.5 195.5Q712 212 683 231Q677 149 673.0 74.0Q669 -1 668 -62Q772 -70 876.0 -77.0Q980 -84 1071.0 -88.0Q1162 -92 1227 -93Z" />
  </g>
</svg>