<svg xmlns="http://www.w3.org/2000/svg" viewBox="100 -217 1250 1107">
  <g transform="translate(0, 673) scale(1, -1)">
    <path fill="black" d="M195 -217Q207 -166 207 -112Q207 -58 195 -1Q233 -11 300.0 -21.5Q367 -32 454.0 -41.5Q541 -51 636 -59Q635 -19 633.5 26.0Q632 71 629 120L623 115Q594 141 577.0 156.5Q560 172 546.5 183.0Q533 194 515 206Q532 221 554.5 237.5Q577 254 617 290Q616 303 615.5 315.0Q615 327 613 339Q522 333 422 311Q404 279 391.0 253.0Q378 227 365 206Q376 187 395.5 158.0Q415 129 443 92L431 82Q380 128 345.5 156.0Q311 184 281 206Q298 220 326.5 246.0Q355 272 386 303Q346 294 309.0 284.5Q272 275 242 265Q225 210 212.0 144.0Q199 78 192.0 -7.5Q185 -93 185 -206H161Q161 -88 153.5 -0.5Q146 87 132.5 154.0Q119 221 100 277Q119 273 137.5 271.5Q156 270 175 270Q181 270 187.0 270.0Q193 270 200 271Q204 291 205.5 311.0Q207 331 207 352Q207 407 195 464Q226 451 273.0 437.5Q320 424 375 411Q347 435 324.5 453.0Q302 471 281 486Q303 505 344.0 542.5Q385 580 422 623L436 616Q413 575 396.5 543.5Q380 512 365 486Q374 471 388.0 449.0Q402 427 421 400Q469 390 518.0 383.0Q567 376 610 373L607 409Q585 429 570.5 442.0Q556 455 543.5 465.0Q531 475 515 486Q529 498 546.0 511.0Q563 524 591 547Q581 628 569.5 697.5Q558 767 544 816Q595 804 649 804Q702 804 759 816Q749 782 740.5 730.5Q732 679 723 617L729 623L743 616L717 570L702 438L730 398Q730 424 725.0 448.0Q720 472 712 494Q745 490 776.0 487.5Q807 485 844 485Q890 485 951.0 489.0Q1012 493 1104 503Q1101 523 1098.0 538.0Q1095 553 1092 563Q1117 556 1149 556Q1157 556 1164.5 556.5Q1172 557 1180 558Q1171 630 1160.0 693.0Q1149 756 1137 802Q1012 796 916.5 781.0Q821 766 754 744Q760 780 760 817Q760 854 754 890Q838 862 966.5 845.5Q1095 829 1272 829V805Q1291 806 1310.5 809.0Q1330 812 1350 816Q1339 774 1327.5 706.0Q1316 638 1305.5 554.0Q1295 470 1286.0 378.0Q1277 286 1270.5 196.0Q1264 106 1260.5 26.5Q1257 -53 1257 -112V-124Q1198 -124 1111.0 -127.0Q1024 -130 921.5 -136.0Q819 -142 712.0 -150.0Q605 -158 505.5 -168.5Q406 -179 325.5 -191.0Q245 -203 195 -217ZM1214 804Q1228 803 1242.5 803.5Q1257 804 1271 805Q1257 805 1242.5 805.0Q1228 805 1214 804ZM550 395Q521 421 504.0 436.5Q487 452 473.5 463.0Q460 474 442 486Q460 502 483.0 519.0Q506 536 550 575L560 569Q545 546 535.0 526.0Q525 506 514 486Q525 467 535.0 446.5Q545 426 560 403ZM476 395Q447 421 430.0 436.5Q413 452 399.5 463.0Q386 474 368 486Q386 502 409.5 519.0Q433 536 476 575L486 569Q471 546 461.0 526.0Q451 506 440 486Q451 467 461.0 446.5Q471 426 486 403ZM602 458Q601 463 600.5 468.0Q600 473 600 477L588 486L598 494Q597 496 597.0 499.0Q597 502 597 504L587 486ZM921 363Q969 377 1021.0 393.5Q1073 410 1116 424Q1114 440 1112.0 454.5Q1110 469 1108 482Q1002 463 933.5 445.5Q865 428 817 411Q832 404 859.5 391.0Q887 378 921 363ZM1227 -93Q1227 -23 1222.5 68.5Q1218 160 1210.5 261.0Q1203 362 1192 460Q1186 418 1179.5 368.5Q1173 319 1168.5 268.0Q1164 217 1161.0 171.5Q1158 126 1158 93H1144Q1144 111 1143.0 134.0Q1142 157 1140 182Q1027 194 960.5 199.0Q894 204 849 204Q811 204 780.5 201.5Q750 199 712 194Q732 245 729 311L683 225L680 192Q692 173 709.5 148.0Q727 123 750 92L738 82L676 136Q673 81 671.0 31.5Q669 -18 668 -62Q772 -70 876.0 -77.0Q980 -84 1071.0 -88.0Q1162 -92 1227 -93ZM1133 274Q1130 309 1126.0 344.5Q1122 380 1118 412Q1083 398 1041.5 380.5Q1000 363 960 346Q1005 327 1051.5 307.5Q1098 288 1133 274ZM802 281Q800 294 795.0 305.5Q790 317 783 328Q788 327 809.5 332.5Q831 338 862 346Q796 365 783 365Q796 384 800 405Q784 399 770.0 393.0Q756 387 742 381L750 372L738 362L698 397L689 299L729 343L743 336L730 313Q748 305 765.5 297.0Q783 289 802 281ZM1139 198Q1138 215 1137.0 231.0Q1136 247 1134 264Q1092 278 1034.0 296.0Q976 314 922 330Q884 313 854.0 299.0Q824 285 810 278Q842 266 884.0 253.0Q926 240 987.5 227.0Q1049 214 1139 198ZM550 115Q521 141 504.0 156.5Q487 172 473.5 183.0Q460 194 442 206Q460 222 483.0 239.0Q506 256 550 295L560 289Q545 266 535.0 246.0Q525 226 514 206Q525 187 535.0 166.5Q545 146 560 123ZM476 115Q447 141 430.0 156.5Q413 172 399.5 183.0Q386 194 368 206Q386 222 409.5 239.0Q433 256 476 295L486 289Q471 266 461.0 246.0Q451 226 440 206Q451 187 461.0 166.5Q471 146 486 123ZM629 129 626 177Q616 185 606.5 192.0Q597 199 588 206L622 235L619 267L587 206Q597 188 606.5 169.0Q616 150 629 129Z" />
  </g>
</svg>