<svg xmlns="http://www.w3.org/2000/svg" viewBox="100 -106 1438 863">
  <g transform="translate(0, 651) scale(1, -1)">
    <path fill="black" d="M769 -106Q774 -79 776.0 -51.5Q778 -24 776 5H763Q763 28 761.5 57.5Q760 87 758 121Q584 103 455.5 80.0Q327 57 229 17Q234 43 236.5 72.0Q239 101 239 132Q239 161 236.5 191.5Q234 222 229 252Q283 230 364.0 208.5Q445 187 545.0 171.0Q645 155 757 149Q753 205 747.5 265.0Q742 325 736.0 382.5Q730 440 723 486Q563 469 442.0 446.5Q321 424 229 386Q234 412 236.5 440.0Q239 468 239 498Q239 507 239.0 515.5Q239 524 238 533Q234 519 228.0 481.0Q222 443 215.0 389.5Q208 336 202.0 275.0Q196 214 191.0 153.0Q186 92 183.0 39.0Q180 -14 180 -51H160Q160 -13 157.0 41.5Q154 96 149.0 158.5Q144 221 137.5 283.0Q131 345 124.5 398.5Q118 452 111.5 489.0Q105 526 100 537Q117 534 136.0 532.0Q155 530 175 530Q208 530 238 536Q236 579 229 621Q280 600 355.0 579.5Q430 559 522.5 543.5Q615 528 718 520Q714 548 710.0 567.0Q706 586 703 593Q718 590 734.5 588.5Q751 587 769 586Q773 607 775.0 627.5Q777 648 777 670Q777 690 775.0 712.0Q773 734 769 757Q790 748 837.0 740.5Q884 733 948.0 726.0Q1012 719 1084.5 713.5Q1157 708 1230.5 703.5Q1304 699 1369 695L1367 702Q1388 698 1408.5 696.0Q1429 694 1451 694Q1471 694 1493.0 696.0Q1515 698 1538 702Q1529 680 1521.0 631.0Q1513 582 1506.0 515.5Q1499 449 1493.5 374.0Q1488 299 1483.5 225.0Q1479 151 1475.5 86.0Q1472 21 1470 -25Q1423 -29 1360.0 -34.0Q1297 -39 1227.5 -44.5Q1158 -50 1088.0 -56.0Q1018 -62 955.5 -69.5Q893 -77 844.5 -86.0Q796 -95 769 -106ZM1446 -2Q1441 51 1436.0 120.0Q1431 189 1425.5 264.5Q1420 340 1413.0 413.5Q1406 487 1398.0 550.5Q1390 614 1380 657Q1316 652 1243.5 647.0Q1171 642 1098.0 635.5Q1025 629 960.5 622.0Q896 615 846.0 606.0Q796 597 770 586Q788 586 806.5 587.5Q825 589 843 593Q839 582 832.0 541.0Q825 500 817.5 440.5Q810 381 803.5 312.5Q797 244 791.5 178.0Q786 112 784 59Q817 50 876.5 41.5Q936 33 1011.0 26.5Q1086 20 1165.0 14.0Q1244 8 1317.5 4.0Q1391 0 1446 -2ZM1249 97Q1188 151 1140.5 191.0Q1093 231 1054.0 262.0Q1015 293 979 319Q1005 341 1051.5 379.0Q1098 417 1151.0 465.5Q1204 514 1249 566L1270 548Q1229 474 1193.0 419.5Q1157 365 1130 319Q1150 285 1185.5 232.5Q1221 180 1270 115Z" />
  </g>
</svg>