<svg xmlns="http://www.w3.org/2000/svg" viewBox="100 -288 1202 1024">
  <g transform="translate(0, 448) scale(1, -1)">
    <path fill="black" d="M1193 -112Q1184 32 1175.5 139.0Q1167 246 1159.0 327.0Q1151 408 1142.0 470.0Q1133 532 1122 586Q1057 585 970.0 581.5Q883 578 784.0 572.0Q685 566 584.5 558.0Q484 550 391.0 540.0Q298 530 222.5 518.5Q147 507 100 494Q112 545 112 599Q112 653 100 710Q139 699 210.5 688.0Q282 677 374.0 667.0Q466 657 567.5 648.5Q669 640 770.0 633.5Q871 627 960.5 622.5Q1050 618 1116 617Q1109 647 1101.5 676.0Q1094 705 1086 736Q1137 724 1191 724Q1245 724 1302 736Q1288 686 1277.0 630.5Q1266 575 1257.0 507.0Q1248 439 1241.0 351.5Q1234 264 1228.5 150.0Q1223 36 1219 -112ZM306 -288Q306 -239 302.0 -185.0Q298 -131 291 -76Q237 -85 188.5 -95.5Q140 -106 100 -117Q112 -66 112 -12Q112 42 100 99Q132 90 175.5 81.0Q219 72 270 64Q257 135 243.0 189.0Q229 243 218 267Q247 263 272.0 260.0Q297 257 322 257Q340 257 359.0 258.5Q378 260 399 264Q399 265 398.5 265.5Q398 266 398 267L407 265L414 267Q413 266 413 264Q436 261 457.0 259.0Q478 257 500 257Q544 257 594 267Q584 242 568.0 176.5Q552 111 538 28Q616 20 692.5 14.5Q769 9 836 7Q851 20 870.0 35.0Q889 50 911 69Q872 67 822.5 63.5Q773 60 725.0 55.0Q677 50 638.0 44.0Q599 38 581 31Q583 45 584.0 57.5Q585 70 585 82Q585 107 581 127Q592 123 608.5 118.5Q625 114 644 111Q642 135 639.0 175.5Q636 216 633.5 262.5Q631 309 628.0 352.5Q625 396 622.0 426.0Q619 456 617 462Q629 460 640.5 459.0Q652 458 665 459Q667 473 668.0 485.0Q669 497 669 508Q669 519 668.0 530.5Q667 542 665 553Q700 539 762.0 529.5Q824 520 891 514Q889 535 886.0 549.5Q883 564 881 571Q895 569 907.5 567.5Q920 566 932 566Q944 566 955.0 567.5Q966 569 977 571Q971 557 966.5 519.0Q962 481 957.5 428.5Q953 376 949.5 317.0Q946 258 943.0 199.5Q940 141 938 93Q969 121 1001.5 152.5Q1034 184 1065 219L1089 206Q1049 135 1020.0 85.0Q991 35 965 -9Q991 -53 1020.0 -103.0Q1049 -153 1089 -224L1065 -238Q1011 -190 971.5 -151.0Q932 -112 900.0 -80.5Q868 -49 837 -24Q767 -26 687.0 -31.5Q607 -37 526 -45Q517 -108 511.5 -171.5Q506 -235 506 -288H486Q486 -234 481.0 -173.0Q476 -112 468 -52Q436 -56 405.0 -59.5Q374 -63 343 -68Q336 -126 331.0 -182.5Q326 -239 326 -288ZM916 83Q915 124 912.5 174.5Q910 225 907 277Q875 274 834.5 269.5Q794 265 762.0 261.0Q730 257 721 253Q724 270 724 287Q724 303 721 319Q730 314 762.0 308.5Q794 303 834.0 298.5Q874 294 906 290Q903 346 900.0 399.0Q897 452 893 492Q831 488 770.0 479.5Q709 471 675 460L682 462Q680 456 676.5 426.0Q673 396 670.0 352.0Q667 308 663.5 261.0Q660 214 657.5 173.0Q655 132 653 109Q692 103 738.5 98.0Q785 93 831.5 89.5Q878 86 916 83ZM454 37Q443 104 430.0 159.0Q417 214 406 246Q397 215 385.0 163.5Q373 112 362 50Z" />
  </g>
</svg>