<svg xmlns="http://www.w3.org/2000/svg" viewBox="100 -288 1202 1024">
  <g transform="translate(0, 448) scale(1, -1)">
    <path fill="black" d="M1193 -112Q1184 32 1175.5 139.0Q1167 246 1159.0 327.0Q1151 408 1142.0 470.0Q1133 532 1122 586Q1057 585 970.0 581.5Q883 578 784.0 572.0Q685 566 584.5 558.0Q484 550 391.0 540.0Q298 530 222.5 518.5Q147 507 100 494Q112 545 112 599Q112 653 100 710Q139 699 210.5 688.0Q282 677 374.0 667.0Q466 657 567.5 648.5Q669 640 770.0 633.5Q871 627 960.5 622.5Q1050 618 1116 617Q1109 647 1101.5 676.0Q1094 705 1086 736Q1137 724 1191 724Q1245 724 1302 736Q1288 686 1277.0 630.5Q1266 575 1257.0 507.0Q1248 439 1241.0 351.5Q1234 264 1228.5 150.0Q1223 36 1219 -112ZM306 -288Q306 -239 302.0 -185.0Q298 -131 291 -76Q237 -85 188.5 -95.5Q140 -106 100 -117Q112 -66 112 -12Q112 42 100 99Q132 90 175.5 81.0Q219 72 270 64Q257 135 243.0 189.0Q229 243 218 267Q246 263 271.0 260.0Q296 257 321 257Q339 257 358.5 258.5Q378 260 399 264Q398 265 398 267L406 265L414 267Q413 266 413 264Q436 261 457.0 259.0Q478 257 500 257Q544 257 594 267Q584 242 568.0 176.5Q552 111 538 28Q616 20 692.5 14.5Q769 9 836 7Q873 37 928.0 83.5Q983 130 1037 188Q1029 198 1023 208V207Q985 207 936.5 204.0Q888 201 836.5 196.0Q785 191 738.5 184.5Q692 178 658.0 171.5Q624 165 611 159Q613 168 613.5 182.0Q614 196 614 212Q614 246 611 270Q615 268 621.5 266.0Q628 264 636 262Q632 312 620.5 356.5Q609 401 598 424Q612 421 625 421Q620 462 613.0 494.5Q606 527 600 540Q612 538 624.0 537.0Q636 536 647 536Q653 536 659.0 536.0Q665 536 670 537Q670 538 669.5 538.5Q669 539 669 540L681 538L691 540Q690 539 690 537Q697 536 703.5 536.0Q710 536 717 536Q724 536 730.0 536.0Q736 536 742 537L741 540L752 538L760 540L759 537Q766 536 772.5 535.5Q779 535 786 535Q793 535 799.0 535.5Q805 536 811 537Q811 538 810.5 538.5Q810 539 810 540L822 538L832 540Q831 539 831 537Q837 536 843.5 536.0Q850 536 856 536Q868 536 879.5 537.0Q891 538 901 540Q894 525 888.0 488.5Q882 452 877.0 405.0Q872 358 868.0 311.5Q864 265 860 230Q902 226 942.0 223.5Q982 221 1014 221Q986 260 958.5 295.0Q931 330 910 348Q918 351 928.0 355.0Q938 359 948 363Q944 417 934.5 466.0Q925 515 912 540Q924 538 936.5 537.0Q949 536 960 536Q971 536 982.0 537.0Q993 538 1003 540Q987 510 977.5 466.0Q968 422 960 369Q968 374 975.5 378.5Q983 383 990 389Q991 371 999.0 338.5Q1007 306 1019.5 268.5Q1032 231 1046 197L1065 219L1089 206Q1049 135 1020.0 85.0Q991 35 965 -9Q991 -53 1020.0 -103.0Q1049 -153 1089 -224L1065 -238Q1011 -190 971.5 -151.0Q932 -112 900.0 -80.5Q868 -49 837 -24Q767 -26 687.0 -31.5Q607 -37 526 -45Q517 -108 511.5 -171.5Q506 -235 506 -288H486Q486 -234 481.0 -173.0Q476 -112 468 -52Q436 -56 405.0 -59.5Q374 -63 343 -68Q336 -126 331.0 -182.5Q326 -239 326 -288ZM704 249Q702 287 698.0 335.0Q694 383 689.5 428.5Q685 474 679 505Q670 469 662 420Q669 421 675.5 422.0Q682 423 689 424Q675 396 663.0 352.5Q651 309 648 259ZM776 240Q774 277 770.0 326.0Q766 375 761.0 422.5Q756 470 750 503Q745 471 739.5 425.5Q734 380 730.0 332.5Q726 285 722 247Q735 245 748.5 243.5Q762 242 776 240ZM846 232Q844 268 840.0 317.5Q836 367 831.0 416.5Q826 466 820 500Q814 467 809.0 419.5Q804 372 800.0 323.5Q796 275 792 238ZM454 37Q443 104 430.0 159.0Q417 214 406 246Q397 215 385.0 163.5Q373 112 362 50Z" />
  </g>
</svg>