<svg xmlns="http://www.w3.org/2000/svg" viewBox="100 -419 1989 1235">
  <g transform="translate(0, 397) scale(1, -1)">
    <path fill="black" d="M1454 -243Q1438 -201 1415 -167Q1374 -146 1326.5 -126.5Q1279 -107 1231.5 -90.5Q1184 -74 1143.5 -63.0Q1103 -52 1076 -48Q1000 -48 930.5 -49.5Q861 -51 796 -53Q795 -68 795.0 -83.0Q795 -98 795 -112H765Q765 -98 765.0 -84.0Q765 -70 764 -54Q513 -64 347.0 -83.5Q181 -103 100 -128Q106 -98 109.5 -69.5Q113 -41 113 -15Q113 11 109.5 37.0Q106 63 100 88Q112 84 126.5 80.0Q141 76 157 71Q156 104 154.5 159.5Q153 215 149.5 279.5Q146 344 141.0 406.5Q136 469 129.5 517.0Q123 565 114 586Q141 580 163 580Q187 580 220 586Q214 572 209.0 535.0Q204 498 200.0 447.5Q196 397 192.5 341.0Q189 285 186.5 231.0Q184 177 182.0 133.5Q180 90 179 65Q271 43 417.0 23.5Q563 4 763 -7Q761 66 756.0 151.0Q751 236 743.0 325.0Q735 414 725.5 500.0Q716 586 704 659Q530 652 394.5 630.5Q259 609 170 582Q176 612 179.5 640.5Q183 669 183 695Q183 721 179.5 747.0Q176 773 170 798Q258 768 391.0 738.5Q524 709 697 698Q691 733 685.0 762.5Q679 792 672 816Q723 804 777 804Q831 804 888 816Q877 774 865.5 705.5Q854 637 843.5 552.5Q833 468 824 377Q850 366 893.0 355.5Q936 345 988.0 337.0Q1040 329 1094 325Q1082 347 1066 368Q1090 370 1128.0 379.5Q1166 389 1212.0 404.5Q1258 420 1305.5 439.0Q1353 458 1396 478Q1414 500 1428.5 524.5Q1443 549 1454 580Q1464 567 1494.0 542.0Q1524 517 1566.0 485.0Q1608 453 1656.0 419.0Q1704 385 1752.0 352.0Q1800 319 1841.0 292.5Q1882 266 1910 249L1908 246Q1945 278 1986.5 316.5Q2028 355 2065 398L2089 385Q2049 314 2020.0 264.0Q1991 214 1965 170Q1991 126 2020.0 76.0Q2049 26 2089 -45L2065 -59Q2015 -15 1977.5 22.0Q1940 59 1909 90L1910 88Q1882 72 1841.0 45.0Q1800 18 1752.0 -15.0Q1704 -48 1656.0 -82.0Q1608 -116 1566.0 -148.0Q1524 -180 1494.0 -204.5Q1464 -229 1454 -243ZM1611 486Q1555 536 1516.5 566.5Q1478 597 1446 621Q1461 635 1487.0 658.5Q1513 682 1543.0 711.5Q1573 741 1601 773L1616 765Q1591 720 1573.0 684.5Q1555 649 1538 621Q1550 602 1571.5 569.5Q1593 537 1624 497ZM412 105Q414 116 415.0 128.0Q416 140 416 152Q416 162 415.0 171.5Q414 181 412 191Q420 187 444.0 182.0Q468 177 500 172Q500 179 499.5 187.5Q499 196 499 205Q455 199 418.5 192.5Q382 186 372 181Q374 192 375.0 204.0Q376 216 376 228Q376 238 375.0 247.5Q374 257 372 267Q382 263 417.5 256.0Q453 249 496 243L493 288Q458 284 424.0 278.5Q390 273 365.0 268.0Q340 263 332 259Q334 270 335.0 282.0Q336 294 336 306Q336 316 335.0 325.5Q334 335 332 345Q343 341 381.5 333.5Q420 326 467 320L422 370Q377 364 340.0 357.0Q303 350 292 345Q294 356 295.0 368.0Q296 380 296 392Q296 402 295.0 411.5Q294 421 292 431Q300 427 325.0 422.0Q350 417 383 412Q350 448 324.0 474.0Q298 500 290 504Q307 514 326.0 527.0Q345 540 359 556Q361 550 373.0 527.0Q385 504 404.5 471.5Q424 439 446 403L485 399Q481 442 477.0 479.0Q473 516 469.5 541.5Q466 567 463 573Q474 572 486.0 570.5Q498 569 510 569Q520 569 529.5 570.0Q539 571 549 573Q546 567 542.0 541.0Q538 515 534.5 477.0Q531 439 527 395Q537 394 546.0 394.0Q555 394 563 394V382Q555 382 545.5 381.5Q536 381 526 380L520 313Q544 311 565.5 309.5Q587 308 603 308V296Q568 296 518 290L555 236Q606 230 643 230V218Q619 218 584.0 215.0Q549 212 513 207Q513 197 512.5 187.5Q512 178 512 170Q556 163 604.0 158.5Q652 154 683 154V142Q655 142 613.5 138.0Q572 134 529.5 128.0Q487 122 454.5 116.0Q422 110 412 105ZM1393 -136Q1418 -132 1466.5 -113.5Q1515 -95 1575.0 -67.0Q1635 -39 1696.5 -8.0Q1758 23 1811.0 51.5Q1864 80 1898 100Q1877 120 1857.0 137.5Q1837 155 1817 170Q1831 182 1852.0 199.0Q1873 216 1897 237Q1866 256 1817.5 282.0Q1769 308 1712.5 336.5Q1656 365 1599.5 392.0Q1543 419 1494.5 439.5Q1446 460 1414 469Q1359 440 1301.0 402.0Q1243 364 1195.5 326.5Q1148 289 1123 259Q1116 281 1105 305Q1023 301 947.5 287.0Q872 273 824 253Q830 282 830 311Q830 340 824 376Q814 275 807.0 175.0Q800 75 797 -8Q864 -12 936.0 -13.5Q1008 -15 1087 -16Q1099 3 1107.5 22.5Q1116 42 1123 62Q1147 34 1190.0 -1.5Q1233 -37 1286.5 -72.0Q1340 -107 1393 -136ZM490 333 487 377Q481 377 475.0 376.5Q469 376 464 375Q471 365 477.5 354.5Q484 344 490 333ZM1355 12Q1355 31 1353.5 65.0Q1352 99 1350 136Q1314 133 1288.5 129.5Q1263 126 1254 122Q1256 133 1257.0 142.5Q1258 152 1258 162Q1258 183 1254 199Q1265 195 1289.5 191.5Q1314 188 1347 184Q1344 225 1340.0 258.5Q1336 292 1331 302Q1348 299 1361 299Q1376 299 1389 302Q1384 289 1380.0 256.0Q1376 223 1373 182L1411 179Q1407 222 1403.5 257.0Q1400 292 1395 302Q1412 299 1425 299Q1440 299 1453 302Q1448 289 1443.5 254.0Q1439 219 1436 177L1474 175Q1471 219 1467.0 255.5Q1463 292 1458 302Q1475 299 1488 299Q1503 299 1516 302Q1511 289 1506.5 253.0Q1502 217 1499 173Q1509 173 1518.5 172.5Q1528 172 1538 171Q1534 217 1530.0 254.0Q1526 291 1521 302Q1538 299 1551 299Q1566 299 1579 302Q1574 289 1569.5 251.5Q1565 214 1562 170Q1601 169 1635.0 168.0Q1669 167 1688 167V154Q1668 154 1634.5 153.0Q1601 152 1560 150Q1558 109 1556.5 71.0Q1555 33 1555 12H1545Q1545 32 1543.5 70.0Q1542 108 1539 149Q1529 149 1518.5 148.5Q1508 148 1497 147Q1495 107 1493.5 69.5Q1492 32 1492 12H1482Q1482 32 1480.5 69.0Q1479 106 1476 146L1434 143Q1431 103 1430.0 67.5Q1429 32 1429 12H1419Q1419 32 1417.5 67.0Q1416 102 1414 141L1370 138Q1368 100 1366.5 66.0Q1365 32 1365 12ZM537 238Q533 244 527.5 250.0Q522 256 516 263Q516 257 515.5 251.5Q515 246 515 241ZM1611 -419Q1555 -369 1516.5 -338.5Q1478 -308 1446 -284Q1461 -270 1487.0 -246.5Q1513 -223 1543.0 -193.5Q1573 -164 1601 -132L1616 -140Q1591 -185 1573.0 -220.5Q1555 -256 1538 -284Q1550 -303 1571.5 -335.5Q1593 -368 1624 -408Z" />
  </g>
</svg>