<svg xmlns="http://www.w3.org/2000/svg" viewBox="100 151 899 457">
  <g transform="translate(0, 759) scale(1, -1)">
    <path fill="black" d="M975 151Q895 222 845.0 274.0Q795 326 749 363Q667 360 579.5 352.0Q492 344 406.0 332.0Q320 320 242.0 305.0Q164 290 100 272Q112 323 112 377Q112 431 100 488Q154 473 229.5 458.5Q305 444 393.0 431.5Q481 419 572.0 410.0Q663 401 747 397Q775 420 813.5 452.0Q852 484 894.0 523.5Q936 563 975 608L999 595Q959 524 930.0 474.0Q901 424 875 380Q901 336 930.0 286.0Q959 236 999 165Z" />
  </g>
</svg>