<svg xmlns="http://www.w3.org/2000/svg" viewBox="100 -96 1908 950">
  <g transform="translate(0, 758) scale(1, -1)">
    <path fill="black" d="M511 -96Q490 -56 467.0 -27.0Q444 2 413 27Q424 30 440.0 36.5Q456 43 475 52Q475 84 472.5 134.0Q470 184 465.0 243.5Q460 303 454 364Q367 359 298.0 340.5Q229 322 179.5 300.5Q130 279 100 264Q110 314 110 369Q110 422 100 479Q130 464 179.0 445.5Q228 427 296.5 412.5Q365 398 451 393Q445 461 437.5 522.0Q430 583 424.0 625.0Q418 667 413 679Q432 676 450.5 673.5Q469 671 488 671Q499 671 511.0 672.0Q523 673 534 675Q495 695 464.0 710.0Q433 725 413 731Q444 757 467.0 785.5Q490 814 511 854Q522 836 554.0 803.5Q586 771 633.0 729.0Q680 687 734.5 641.0Q789 595 843.5 549.0Q898 503 947.0 463.0Q996 423 1031 393Q1029 440 1019 488Q1065 475 1130.5 463.0Q1196 451 1274.5 439.5Q1353 428 1436.5 419.0Q1520 410 1601.5 404.0Q1683 398 1755 396Q1783 419 1821.5 451.0Q1860 483 1902.5 523.0Q1945 563 1984 608L2008 595Q1968 524 1939.0 474.0Q1910 424 1884 380Q1910 336 1939.0 286.0Q1968 236 2008 165L1984 151Q1930 199 1890.5 237.5Q1851 276 1819.0 307.5Q1787 339 1756 364Q1668 362 1568.0 354.5Q1468 347 1367.5 334.5Q1267 322 1177.0 306.5Q1087 291 1019 272Q1029 317 1031 364Q996 335 947.5 294.5Q899 254 844.0 208.5Q789 163 734.5 117.0Q680 71 633.0 29.0Q586 -13 554.0 -45.5Q522 -78 511 -96ZM611 610Q619 610 627.5 610.5Q636 611 644 612L548 667Q547 658 544.0 646.0Q541 634 539 617Q557 614 575.0 612.0Q593 610 611 610ZM490 60Q513 71 539.5 85.5Q566 100 594 116Q591 167 585.5 227.0Q580 287 574.0 347.0Q568 407 561.5 460.0Q555 513 549.0 552.5Q543 592 538 610Q532 568 525.5 510.0Q519 452 513.0 387.5Q507 323 502.0 260.0Q497 197 493.5 145.0Q490 93 490 60ZM618 131Q671 162 726.5 196.0Q782 230 835.5 264.0Q889 298 935.0 328.0Q981 358 1015 380Q976 406 919.0 442.5Q862 479 797.5 519.0Q733 559 669 597Q663 569 656.0 515.5Q649 462 641.5 395.0Q634 328 628.0 259.0Q622 190 618 131Z" />
  </g>
</svg>