<svg xmlns="http://www.w3.org/2000/svg" viewBox="100 -126 1357 818">
  <g transform="translate(0, 566) scale(1, -1)">
    <path fill="black" d="M1013 268Q970 328 908 371Q971 407 1018.0 436.5Q1065 466 1102.5 494.0Q1140 522 1176.0 553.5Q1212 585 1252 625Q1200 625 1126.0 623.5Q1052 622 967.5 619.5Q883 617 797.5 613.5Q712 610 635.5 605.0Q559 600 501.5 594.0Q444 588 415 580Q417 593 418.0 607.5Q419 622 419 636Q419 650 418.0 664.5Q417 679 415 692Q452 682 518.5 674.5Q585 667 669.0 662.0Q753 657 844.0 654.0Q935 651 1022.0 649.5Q1109 648 1180.0 647.5Q1251 647 1294 647V625Q1244 575 1205.5 533.5Q1167 492 1135.0 452.5Q1103 413 1073.5 368.5Q1044 324 1013 268ZM415 -126Q417 -113 418.0 -98.5Q419 -84 419 -70Q419 -56 418.0 -41.5Q417 -27 415 -14Q429 -18 449.5 -21.0Q470 -24 495 -27Q494 31 492.5 102.5Q491 174 487 247Q392 245 324.0 230.0Q256 215 203.5 193.0Q151 171 100 146Q105 172 107.5 201.0Q110 230 110 261Q110 290 107.5 320.5Q105 351 100 381Q151 357 202.0 334.5Q253 312 320.5 297.0Q388 282 486 279Q481 375 472.0 458.5Q463 542 451 587Q465 585 479.5 584.0Q494 583 509 583Q536 583 561 586V587L562 586L563 587V586Q589 583 617 583Q646 583 671 586V587L672 586L673 587V586Q697 583 724 583Q739 583 754.5 584.0Q770 585 783 587Q772 547 764.0 487.5Q756 428 751.0 359.0Q746 290 743.0 217.5Q740 145 739.0 77.5Q738 10 738 -45Q760 -46 782.5 -47.0Q805 -48 828 -49Q827 7 825.5 77.0Q824 147 820.5 222.0Q817 297 812.0 367.5Q807 438 799.5 495.5Q792 553 783 587Q796 585 810.5 584.0Q825 583 839 583Q853 583 867.5 584.0Q882 585 895 587Q884 549 876.5 494.5Q869 440 864.0 375.5Q859 311 856 243Q876 267 891.5 293.0Q907 319 919 348Q962 300 1023.0 248.5Q1084 197 1156.0 145.0Q1228 93 1305.0 41.5Q1382 -10 1456 -58L1455 -59H1457V-81Q1420 -81 1352.0 -81.5Q1284 -82 1196.5 -84.0Q1109 -86 1013.0 -88.0Q917 -90 822.0 -94.0Q727 -98 644.5 -102.5Q562 -107 501.5 -113.0Q441 -119 415 -126ZM606 -38Q605 17 603.5 85.5Q602 154 598.5 226.5Q595 299 590.0 367.5Q585 436 578.0 492.0Q571 548 562 583Q551 543 543.5 486.0Q536 429 531.0 362.5Q526 296 523.5 226.5Q521 157 519.5 91.0Q518 25 518 -30Q538 -31 560.0 -33.5Q582 -36 606 -38ZM716 -44Q715 11 713.5 80.0Q712 149 708.5 222.5Q705 296 700.0 365.0Q695 434 688.0 491.0Q681 548 672 583Q661 542 653.5 484.0Q646 426 641.0 358.0Q636 290 633.5 219.5Q631 149 629.5 82.5Q628 16 628 -39ZM1404 -59Q1267 27 1128.5 102.0Q990 177 855 220Q852 147 851.0 77.0Q850 7 850 -49Q955 -52 1059.5 -54.0Q1164 -56 1254.0 -57.0Q1344 -58 1404 -59Z" />
  </g>
</svg>