<svg xmlns="http://www.w3.org/2000/svg" viewBox="100 -282 1213 1163">
  <g transform="translate(0, 599) scale(1, -1)">
    <path fill="black" d="M794 408Q787 478 779.0 522.5Q771 567 760.5 602.0Q750 637 734 675Q748 672 762.0 671.0Q776 670 790 669Q777 750 762.5 801.0Q748 852 734 881Q751 879 768.0 877.0Q785 875 802 875Q832 875 860 881Q848 853 830.5 799.5Q813 746 805 669Q818 670 831.5 671.0Q845 672 859 675Q846 643 835.5 606.5Q825 570 818.5 522.5Q812 475 809 408ZM613 408Q606 478 598.5 522.5Q591 567 580.0 602.0Q569 637 553 675Q567 672 581.0 671.0Q595 670 610 669Q596 750 582.0 801.0Q568 852 554 881Q571 879 587.5 877.0Q604 875 621 875Q650 875 680 881Q667 853 650.5 799.5Q634 746 625 669Q651 671 679 675Q666 643 655.5 606.5Q645 570 638.5 522.5Q632 475 628 408ZM1313 327Q1285 339 1231.5 355.5Q1178 372 1101 381Q1102 357 1107 328Q1075 342 1038.5 352.0Q1002 362 954.5 369.0Q907 376 840 379V394Q910 401 954.5 409.0Q999 417 1034.0 427.5Q1069 438 1107 454Q1104 440 1103.0 425.5Q1102 411 1101 397Q1182 411 1233.0 425.0Q1284 439 1313 453Q1311 437 1309.0 420.0Q1307 403 1307 386Q1307 357 1313 327ZM100 328Q102 345 104.0 362.0Q106 379 106 396Q106 426 100 454Q127 442 181.0 424.5Q235 407 311 399Q311 412 309.5 425.5Q308 439 306 453Q339 440 375.0 429.5Q411 419 458.5 412.5Q506 406 573 403V388Q503 381 458.5 373.0Q414 365 379.5 354.5Q345 344 306 328Q308 342 309.5 356.0Q311 370 311 384Q231 371 180.0 356.5Q129 342 100 328ZM834 219Q821 242 809.0 259.0Q797 276 783 294Q769 293 753.5 292.5Q738 292 721 290Q721 288 722 287L711 278L705 288Q702 288 699.5 287.5Q697 287 694 286L692 301Q693 301 697 303Q688 317 679.0 329.5Q670 342 662 355Q641 354 619.5 353.5Q598 353 572 349L569 362Q603 376 623.0 384.0Q643 392 658.5 399.0Q674 406 693 417Q696 397 700.5 374.5Q705 352 715 311Q751 326 770.5 334.0Q790 342 814 356Q819 334 824.5 306.5Q830 279 845 226ZM722 145Q710 169 697.5 186.0Q685 203 673 221Q652 220 630.5 219.5Q609 219 583 214L580 227Q614 241 634.0 249.5Q654 258 669.5 265.5Q685 273 704 284Q708 261 713.0 234.0Q718 207 733 154ZM306 147Q308 161 309.5 175.0Q311 189 311 204Q231 190 180.0 176.0Q129 162 100 148Q102 165 104.0 181.5Q106 198 106 215Q106 244 100 274Q127 261 181.0 244.5Q235 228 311 219Q311 232 309.5 245.5Q308 259 306 273Q339 260 375.0 249.5Q411 239 458.5 232.5Q506 226 573 222V207Q503 200 458.5 192.5Q414 185 379.5 174.0Q345 163 306 147ZM1313 147Q1285 158 1231.5 176.0Q1178 194 1101 202Q1102 189 1103.0 175.5Q1104 162 1107 148Q1075 161 1038.5 171.5Q1002 182 954.5 189.0Q907 196 840 198V213Q910 220 954.5 228.0Q999 236 1034.0 247.0Q1069 258 1107 273Q1104 259 1103.0 245.0Q1102 231 1101 217Q1182 230 1233.0 244.0Q1284 258 1313 273Q1311 257 1309.0 239.5Q1307 222 1307 205Q1307 176 1313 147ZM734 -282Q748 -253 762.5 -202.0Q777 -151 790 -70Q776 -71 762.0 -72.0Q748 -73 734 -76Q750 -37 760.5 -2.5Q771 32 779.0 76.5Q787 121 794 191H809Q812 124 818.5 76.5Q825 29 835.5 -7.0Q846 -43 859 -76Q845 -73 831.5 -72.0Q818 -71 805 -70Q813 -146 830.5 -200.0Q848 -254 860 -282Q832 -276 802 -276Q785 -276 768.0 -278.0Q751 -280 734 -282ZM554 -282Q568 -253 582.0 -202.0Q596 -151 610 -70Q595 -71 581.0 -72.0Q567 -73 553 -76Q569 -37 580.0 -2.5Q591 32 598.5 76.5Q606 121 613 191H628Q632 124 638.5 76.5Q645 29 655.5 -7.0Q666 -43 679 -76Q651 -71 625 -70Q634 -146 650.5 -200.0Q667 -254 680 -282Q650 -276 621 -276Q604 -276 587.5 -278.0Q571 -280 554 -282Z" />
  </g>
</svg>