<svg xmlns="http://www.w3.org/2000/svg" viewBox="100 -16 1277 791">
  <g transform="translate(0, 759) scale(1, -1)">
    <path fill="black" d="M1359 384Q1283 452 1231.0 494.0Q1179 536 1134 569Q1156 588 1191.5 619.5Q1227 651 1268.0 691.5Q1309 732 1346 775L1366 764Q1332 703 1307.5 655.0Q1283 607 1260 569Q1277 541 1306.5 497.0Q1336 453 1377 399ZM899 -16Q823 52 771.0 94.0Q719 136 674 169Q694 186 725.5 214.5Q757 243 794.5 279.0Q832 315 868 354Q793 350 718.5 345.0Q644 340 572 335Q562 247 556.5 159.5Q551 72 551 -2H521Q521 73 516.0 157.5Q511 242 502 329Q468 326 435.0 322.5Q402 319 370 316Q361 232 356.0 150.0Q351 68 351 -2H321Q321 69 316.5 147.5Q312 226 304 308Q176 291 100 273Q109 326 109 378Q109 430 100 488Q135 479 182.5 471.0Q230 463 287 455Q275 539 260.0 616.5Q245 694 228 756Q279 744 333 744Q380 744 429 753Q428 754 428 756Q432 754 435 754Q438 754 444 756Q443 755 443 752Q465 748 487.0 746.0Q509 744 531 744Q586 744 644 756Q628 697 612.0 610.0Q596 523 583 425Q654 420 726.5 415.5Q799 411 872 407Q808 464 761.5 501.5Q715 539 674 569Q696 588 731.5 619.5Q767 651 808.0 691.5Q849 732 886 775L906 764Q872 703 847.5 655.0Q823 607 800 569Q816 542 844.0 499.5Q872 457 912 405Q1031 400 1141.5 397.0Q1252 394 1342 394V370L1346 375L1366 364Q1332 303 1307.5 255.0Q1283 207 1260 169Q1277 141 1306.5 97.0Q1336 53 1377 -1L1359 -16Q1283 52 1231.0 94.0Q1179 136 1134 169Q1155 187 1189.5 217.5Q1224 248 1263.5 287.0Q1303 326 1340 368Q1248 368 1135.0 365.0Q1022 362 901 356Q868 298 845.0 252.0Q822 206 800 169Q817 141 846.5 97.0Q876 53 917 -1ZM489 434Q479 514 465.5 588.5Q452 663 436 725Q408 610 385 444Q411 441 436.5 438.5Q462 436 489 434ZM1187 432Q1144 471 1118.0 494.5Q1092 518 1072.0 534.5Q1052 551 1025 569Q1043 585 1063.5 601.0Q1084 617 1113.5 640.5Q1143 664 1187 703L1202 693Q1180 659 1164.5 628.5Q1149 598 1133 569Q1149 541 1164.5 510.5Q1180 480 1202 445ZM1077 432Q1034 471 1008.0 494.5Q982 518 962.0 534.5Q942 551 915 569Q933 585 953.5 601.0Q974 617 1003.5 640.5Q1033 664 1077 703L1092 693Q1070 659 1054.5 628.5Q1039 598 1023 569Q1039 541 1054.5 510.5Q1070 480 1092 445ZM967 432Q924 471 898.0 494.5Q872 518 852.0 534.5Q832 551 805 569Q823 585 843.5 601.0Q864 617 893.5 640.5Q923 664 967 703L982 693Q960 659 944.5 628.5Q929 598 913 569Q929 541 944.5 510.5Q960 480 982 445ZM967 32Q924 71 898.0 94.5Q872 118 852.0 134.5Q832 151 805 169Q823 185 843.5 201.0Q864 217 893.5 240.5Q923 264 967 303L982 293Q960 259 944.5 228.5Q929 198 913 169Q929 141 944.5 110.5Q960 80 982 45ZM1077 32Q1034 71 1008.0 94.5Q982 118 962.0 134.5Q942 151 915 169Q933 185 953.5 201.0Q974 217 1003.5 240.5Q1033 264 1077 303L1092 293Q1070 259 1054.5 228.5Q1039 198 1023 169Q1039 141 1054.5 110.5Q1070 80 1092 45ZM1187 32Q1144 71 1118.0 94.5Q1092 118 1072.0 134.5Q1052 151 1025 169Q1043 185 1063.5 201.0Q1084 217 1113.5 240.5Q1143 264 1187 303L1202 293Q1180 259 1164.5 228.5Q1149 198 1133 169Q1149 141 1164.5 110.5Q1180 80 1202 45Z" />
  </g>
</svg>