<svg xmlns="http://www.w3.org/2000/svg" viewBox="100 -156 922 1071">
  <g transform="translate(0, 759) scale(1, -1)">
    <path fill="black" d="M1009 633Q954 682 917.0 712.5Q880 743 847 766Q863 780 888.5 803.0Q914 826 943.5 855.0Q973 884 1000 915L1014 908Q989 863 972.0 828.5Q955 794 938 766Q950 747 971.0 714.5Q992 682 1022 643ZM678 -156Q622 -108 584.5 -77.5Q547 -47 515 -22Q536 -4 576.0 32.0Q616 68 655 111Q601 108 547.0 104.5Q493 101 440 97Q433 33 429.0 -30.0Q425 -93 425 -147H405Q405 -92 401.5 -31.0Q398 30 391 93Q366 91 342.0 88.5Q318 86 295 83Q288 22 284.5 -37.0Q281 -96 281 -147H259Q259 -96 255.5 -38.0Q252 20 247 78Q202 72 164.5 66.0Q127 60 100 53Q104 72 105.5 91.0Q107 110 107 129Q107 148 105.5 167.5Q104 187 100 207Q125 200 159.5 194.0Q194 188 234 183Q226 244 215.5 300.0Q205 356 192 401Q209 397 225.5 395.0Q242 393 258 393Q257 437 254.5 483.5Q252 530 247 578Q202 572 164.5 566.0Q127 560 100 553Q104 572 105.5 591.0Q107 610 107 629Q107 648 105.5 667.5Q104 687 100 707Q125 700 159.5 694.0Q194 688 234 683Q226 744 215.5 800.0Q205 856 192 901Q230 892 268 892Q285 892 302.5 894.0Q320 896 338 899V901L342 900L348 901L347 899Q364 896 380.5 894.0Q397 892 414 892Q452 892 492 901Q481 858 469.5 795.5Q458 733 448 662Q500 658 553.5 654.5Q607 651 660 648Q611 690 577.5 717.0Q544 744 515 766Q531 780 556.5 803.0Q582 826 611.5 855.0Q641 884 668 915L683 908Q658 863 640.0 828.5Q622 794 605 766Q617 747 637.5 716.0Q658 685 686 647Q772 643 852.5 641.0Q933 639 998 639V622L1000 625L1014 618Q989 573 972.0 539.0Q955 505 938 478Q946 464 958.5 444.0Q971 424 988 401L1000 415L1014 408L1000 383L1022 354L1009 344L988 362Q973 334 961.5 310.0Q950 286 938 266Q950 247 971.0 214.5Q992 182 1022 143L1009 133Q954 182 916.5 212.5Q879 243 846 266Q857 247 868.5 224.5Q880 202 896 176L886 168Q854 196 835.5 212.5Q817 229 802.5 241.0Q788 253 768 266Q782 278 797.0 289.5Q812 301 833.0 318.0Q854 335 886 363L896 355Q880 331 868.5 310.0Q857 289 846 267Q866 284 899.5 313.0Q933 342 968 379Q930 412 901.0 435.0Q872 458 846 478Q857 457 868.5 434.5Q880 412 896 388L886 378Q854 406 835.5 423.0Q817 440 802.5 452.5Q788 465 768 478Q782 489 797.0 500.0Q812 511 833.0 528.5Q854 546 886 575L896 568Q880 542 868.5 520.5Q857 499 846 479Q862 492 887.0 513.5Q912 535 941.0 563.0Q970 591 996 621Q930 621 848.5 618.5Q767 616 679 612Q655 569 638.0 536.5Q621 504 605 478Q613 464 626.0 444.0Q639 424 655 401L668 415L683 408L668 383L690 354L678 344L657 362Q642 334 629.5 310.0Q617 286 605 266Q617 247 637.5 216.0Q658 185 686 147Q772 143 852.5 141.0Q933 139 998 139V122L1000 125L1014 118Q989 73 972.0 39.0Q955 5 938 -22Q950 -43 971.0 -74.5Q992 -106 1022 -146L1009 -156Q954 -108 916.5 -77.5Q879 -47 846 -22Q857 -43 868.5 -65.5Q880 -88 896 -112L886 -122Q854 -94 835.5 -77.0Q817 -60 802.5 -47.5Q788 -35 768 -22Q782 -11 797.0 0.5Q812 12 833.0 29.0Q854 46 886 75L896 68Q880 42 868.5 20.5Q857 -1 846 -21Q862 -8 887.0 13.5Q912 35 941.0 63.0Q970 91 996 121Q930 121 848.5 118.5Q767 116 679 112Q655 69 638.0 36.5Q621 4 605 -22Q618 -43 639.0 -74.5Q660 -106 690 -146ZM382 668Q375 727 364.5 781.5Q354 836 343 882Q333 842 323.5 788.5Q314 735 306 675ZM886 668Q854 696 835.5 713.0Q817 730 802.5 741.5Q788 753 768 766Q782 778 797.0 789.5Q812 801 833.0 818.0Q854 835 886 863L896 855Q880 831 868.5 809.5Q857 788 846 766Q857 747 868.5 724.5Q880 702 896 676ZM806 668Q775 696 756.0 713.0Q737 730 722.5 741.5Q708 753 688 766Q702 778 717.0 789.5Q732 801 753.5 818.0Q775 835 806 863L817 855Q801 831 789.5 809.5Q778 788 767 766Q778 747 789.5 724.5Q801 702 817 676ZM726 668Q695 696 676.5 713.0Q658 730 643.5 741.5Q629 753 609 766Q622 778 637.0 789.5Q652 801 673.5 818.0Q695 835 726 863L737 855Q721 831 709.5 809.5Q698 788 687 766Q698 747 709.5 724.5Q721 702 737 676ZM660 148Q611 190 577.5 217.0Q544 244 515 266Q534 283 567.5 313.0Q601 343 636 380Q598 412 569.5 435.0Q541 458 515 478Q536 496 576.0 532.0Q616 568 655 611Q601 608 547.0 604.5Q493 601 440 597Q434 545 430.5 492.5Q427 440 425 393Q442 393 458.5 395.0Q475 397 492 401Q481 358 469.5 295.5Q458 233 448 162Q500 158 553.5 154.5Q607 151 660 148ZM281 393Q310 393 338 399V401L342 400L348 401L347 399Q376 393 404 393Q403 440 399.5 490.5Q396 541 391 593Q366 591 342.0 588.5Q318 586 295 583Q290 534 286.5 485.5Q283 437 281 393ZM726 378Q695 406 676.5 423.0Q658 440 643.5 452.5Q629 465 609 478Q622 489 637.0 500.0Q652 511 673.5 528.5Q695 546 726 575L737 568Q721 542 709.5 520.0Q698 498 687 478Q698 457 709.5 434.5Q721 412 737 388ZM806 378Q775 406 756.0 423.0Q737 440 722.5 452.5Q708 465 688 478Q702 489 717.0 500.0Q732 511 753.5 528.5Q775 546 806 575L817 568Q801 542 789.5 520.0Q778 498 767 478Q778 457 789.5 434.5Q801 412 817 388ZM382 168Q375 227 364.5 281.5Q354 336 343 382Q333 342 323.5 288.5Q314 235 306 175ZM726 168Q695 196 676.5 212.5Q658 229 643.5 241.0Q629 253 609 266Q622 278 637.0 289.5Q652 301 673.5 318.0Q695 335 726 363L737 355Q721 331 709.5 309.5Q698 288 687 266Q698 247 709.5 224.5Q721 202 737 176ZM806 168Q775 196 756.0 212.5Q737 229 722.5 241.0Q708 253 688 266Q702 278 717.0 289.5Q732 301 753.5 318.0Q775 335 806 363L817 355Q801 331 789.5 309.5Q778 288 767 266Q778 247 789.5 224.5Q801 202 817 176ZM806 -122Q775 -94 756.0 -77.0Q737 -60 722.5 -47.5Q708 -35 688 -22Q702 -11 717.0 0.5Q732 12 753.5 29.0Q775 46 806 75L817 68Q801 42 789.5 20.0Q778 -2 767 -22Q778 -43 789.5 -65.5Q801 -88 817 -112ZM726 -122Q695 -94 676.5 -77.0Q658 -60 643.5 -47.5Q629 -35 609 -22Q622 -11 637.0 0.5Q652 12 673.5 29.0Q695 46 726 75L737 68Q721 42 709.5 20.0Q698 -2 687 -22Q698 -43 709.5 -65.5Q721 -88 737 -112Z" />
  </g>
</svg>