<svg xmlns="http://www.w3.org/2000/svg" viewBox="100 -18 740 734">
  <g transform="translate(0, 698) scale(1, -1)">
    <path fill="black" d="M444 -18Q322 69 238.0 115.5Q154 162 100 181Q135 207 168.5 238.0Q202 269 231 306L227 308L238 316Q245 324 251 335L253 329Q281 352 308.0 377.5Q335 403 358 433L354 435L365 443Q372 451 378 462L380 456Q408 479 435.0 504.5Q462 530 485 560L481 562L492 570Q499 578 505 589L507 583Q542 611 574.0 643.5Q606 676 632 716Q646 684 672.0 632.0Q698 580 739.0 515.0Q780 450 840 378L825 363Q725 434 651.5 477.5Q578 521 525 544Q550 491 595.0 414.5Q640 338 713 251L698 236Q598 307 524.5 350.5Q451 394 398 417Q423 364 468.0 287.5Q513 211 586 124L571 109Q471 180 397.5 223.5Q324 267 271 290Q296 237 341.0 160.5Q386 84 459 -3Z" />
  </g>
</svg>