<svg xmlns="http://www.w3.org/2000/svg" viewBox="100 -18 740 734">
  <g transform="translate(0, 698) scale(1, -1)">
    <path fill="black" d="M308 -18Q294 15 268.0 66.5Q242 118 201.0 183.0Q160 248 100 320L115 335Q215 264 288.5 220.0Q362 176 415 153Q390 206 345.0 282.5Q300 359 227 447L242 462Q342 391 415.5 347.0Q489 303 542 280Q517 333 472.0 409.5Q427 486 354 574L369 589Q469 518 542.5 474.0Q616 430 669 407Q644 460 599.0 536.5Q554 613 481 701L496 716Q618 629 702.0 582.5Q786 536 840 517Q805 490 771.5 459.5Q738 429 709 391Q710 391 711.0 390.5Q712 390 713 390L701 381L689 363L686 369Q658 347 631.5 321.0Q605 295 582 264Q583 264 584.0 263.5Q585 263 586 263L574 254L562 236L559 242Q531 220 504.5 194.0Q478 168 455 137Q456 137 457.0 136.5Q458 136 459 136L447 127L435 109L432 115Q398 87 366.0 54.5Q334 22 308 -18Z" />
  </g>
</svg>