<svg xmlns="http://www.w3.org/2000/svg" viewBox="100 -87 1667 946">
  <g transform="translate(0, 772) scale(1, -1)">
    <path fill="black" d="M705 643Q717 694 717 748Q717 802 705 859Q741 849 803.5 839.5Q866 830 947.0 820.5Q1028 811 1119.0 803.0Q1210 795 1303.0 788.0Q1396 781 1483.0 776.0Q1570 771 1643.0 768.5Q1716 766 1767 766V736Q1708 736 1621.0 733.0Q1534 730 1431.5 724.0Q1329 718 1222.0 710.0Q1115 702 1015.5 691.5Q916 681 835.5 669.0Q755 657 705 643ZM699 130Q621 199 560.0 250.0Q499 301 449.0 341.0Q399 381 353 415Q382 439 426.0 478.5Q470 518 522 567Q468 566 405.0 556.0Q342 546 282.0 532.0Q222 518 174.0 502.5Q126 487 100 474Q112 525 112 579Q112 633 100 690Q126 677 176.5 660.5Q227 644 290.0 630.0Q353 616 417.5 606.5Q482 597 536 597V580Q572 615 609.0 653.0Q646 691 680 731L710 715Q658 620 620.5 547.0Q583 474 548 415Q574 372 619.0 304.0Q664 236 728 153ZM1149 90Q1071 159 1010.0 210.0Q949 261 899.0 301.0Q849 341 803 375Q837 404 891.5 452.5Q946 501 1009.0 562.5Q1072 624 1130 691L1160 675Q1108 580 1070.5 507.0Q1033 434 998 375Q1024 332 1069.0 264.0Q1114 196 1178 113ZM1369 90Q1291 159 1230.0 210.0Q1169 261 1119.0 301.0Q1069 341 1023 375Q1057 404 1111.5 452.5Q1166 501 1229.0 562.5Q1292 624 1350 691L1380 675Q1328 580 1290.5 507.0Q1253 434 1218 375Q1244 332 1289.0 264.0Q1334 196 1398 113ZM1589 90Q1511 159 1450.0 210.0Q1389 261 1339.0 301.0Q1289 341 1243 375Q1277 404 1331.5 452.5Q1386 501 1449.0 562.5Q1512 624 1570 691L1600 675Q1548 580 1510.5 507.0Q1473 434 1438 375Q1464 332 1509.0 264.0Q1554 196 1618 113ZM100 140Q112 191 112 245Q112 299 100 356Q126 343 176.5 326.5Q227 310 290.0 296.0Q353 282 417.5 272.5Q482 263 536 263V233Q482 233 417.5 223.5Q353 214 290.0 200.0Q227 186 176.5 170.0Q126 154 100 140ZM705 -87Q717 -36 717 18Q717 72 705 129Q741 119 803.5 109.5Q866 100 947.0 90.5Q1028 81 1119.0 73.0Q1210 65 1303.0 58.0Q1396 51 1483.0 46.0Q1570 41 1643.0 38.5Q1716 36 1767 36V6Q1708 6 1621.0 3.0Q1534 0 1431.5 -6.0Q1329 -12 1222.0 -20.0Q1115 -28 1015.5 -38.5Q916 -49 835.5 -61.0Q755 -73 705 -87Z" />
  </g>
</svg>