<svg xmlns="http://www.w3.org/2000/svg" viewBox="100 -183 1056 1056">
  <g transform="translate(0, 690) scale(1, -1)">
    <path fill="black" d="M1003 186Q965 253 909.0 333.5Q853 414 782.5 501.5Q712 589 632.5 678.5Q553 768 469 852L490 873Q574 789 667.0 707.5Q760 626 850.5 554.0Q941 482 1020.0 426.5Q1099 371 1156 339Q1104 306 1067.0 268.5Q1030 231 1003 186ZM818 2Q780 69 724.0 149.5Q668 230 598.0 317.5Q528 405 448.5 494.0Q369 583 285 667L306 688Q390 604 483.0 522.5Q576 441 666.5 369.5Q757 298 836.0 242.5Q915 187 971 155Q919 121 882.5 84.0Q846 47 818 2ZM634 -183Q596 -116 540.0 -35.5Q484 45 413.5 132.5Q343 220 263.5 309.5Q184 399 100 483L121 504Q205 420 298.0 338.5Q391 257 481.5 185.0Q572 113 651.0 57.5Q730 2 787 -30Q735 -64 698.0 -101.0Q661 -138 634 -183Z" />
  </g>
</svg>