<svg xmlns="http://www.w3.org/2000/svg" viewBox="100 -112 1643 871">
  <g transform="translate(0, 647) scale(1, -1)">
    <path fill="black" d="M348 -112Q348 16 342.0 125.5Q336 235 326 329Q244 315 185.5 293.5Q127 272 100 255Q103 275 104.5 301.5Q106 328 106 356Q106 412 100 458Q124 442 179.5 417.5Q235 393 321 377Q307 491 289.0 580.0Q271 669 253 736Q304 724 357 724Q383 724 409.5 726.5Q436 729 463 735H470Q476 734 497.0 731.0Q518 728 539.5 726.0Q561 724 567 724Q622 724 679 736Q672 712 665.5 685.5Q659 659 653 630Q678 616 730.5 598.0Q783 580 860.0 566.0Q937 552 1033 548Q1033 570 1031.5 592.0Q1030 614 1028 634Q1057 615 1128.5 590.0Q1200 565 1315 553Q1357 588 1419.0 641.0Q1481 694 1537 759L1561 746L1552 730Q1590 724 1629 724Q1684 724 1742 736Q1730 693 1718.5 655.5Q1707 618 1696.0 579.0Q1685 540 1676 492Q1693 494 1709.5 496.0Q1726 498 1743 502Q1729 452 1716.5 410.0Q1704 368 1692.5 323.0Q1681 278 1672.5 220.5Q1664 163 1657.5 82.5Q1651 2 1648 -112H1622Q1619 2 1612.5 82.5Q1606 163 1597.5 220.5Q1589 278 1577.5 323.0Q1566 368 1553.5 410.0Q1541 452 1527 502Q1543 498 1559.5 495.5Q1576 493 1592 491Q1580 553 1565.5 601.0Q1551 649 1536 701L1437 531Q1463 487 1492.0 437.0Q1521 387 1561 316L1537 302Q1460 370 1410.5 421.0Q1361 472 1317 509Q1205 496 1133.5 474.0Q1062 452 1028 431Q1030 448 1031.5 470.0Q1033 492 1033 515Q939 509 862.0 496.0Q785 483 732 466Q785 443 889.5 420.5Q994 398 1135 397V368Q1023 364 933.0 349.5Q843 335 782 316Q835 293 939.5 270.5Q1044 248 1185 247V218Q1073 214 983.0 199.5Q893 185 832 166Q885 143 989.5 120.5Q1094 98 1235 97V68Q1126 64 1037.5 50.0Q949 36 888.0 17.5Q827 -1 798 -19Q801 1 802.0 27.0Q803 53 803 81Q803 100 803.0 118.5Q803 137 801 155Q765 143 748 131Q751 151 752.0 177.0Q753 203 753 231Q753 250 753.0 268.5Q753 287 751 305Q715 293 698 281Q701 301 702.0 327.0Q703 353 703 381Q703 400 703.0 418.5Q703 437 701 455Q665 443 648 431Q650 452 652.0 479.0Q654 506 654 534Q654 554 653.0 575.0Q652 596 650 615Q623 490 603.5 310.5Q584 131 584 -112H558Q558 89 544.5 246.5Q531 404 510.0 522.5Q489 641 466 725Q444 642 422.5 523.0Q401 404 387.5 246.5Q374 89 374 -112Z" />
  </g>
</svg>