<svg xmlns="http://www.w3.org/2000/svg" viewBox="100 -199 1268 1021">
  <g transform="translate(0, 623) scale(1, -1)">
    <path fill="black" d="M1347 411Q1274 476 1228.5 523.0Q1183 570 1141 604Q1010 602 911.5 595.5Q813 589 738.5 579.5Q664 570 606.0 557.5Q548 545 500.0 530.5Q452 516 405 500Q417 551 417 615Q417 679 405 736Q464 716 528.0 698.5Q592 681 674.5 666.5Q757 652 870.5 643.0Q984 634 1141 632Q1179 663 1237.0 712.0Q1295 761 1347 822L1368 810Q1332 746 1306.0 701.5Q1280 657 1257 617Q1280 577 1306.0 532.5Q1332 488 1368 423ZM370 -112Q309 -58 261.5 -18.0Q214 22 175.0 53.0Q136 84 100 110Q122 129 158.5 158.5Q195 188 238.5 226.5Q282 265 324 307Q251 370 199.0 412.5Q147 455 100 489Q126 511 172.5 549.5Q219 588 272.0 636.0Q325 684 370 736L391 718Q350 644 314.0 589.5Q278 535 251 489Q266 462 292.0 423.0Q318 384 352 337L370 357L391 339L373 308L391 285L370 267L356 279Q325 227 298.5 186.5Q272 146 251 110Q271 76 306.5 23.5Q342 -29 391 -94ZM882 281Q873 295 864.5 304.0Q856 313 839 325Q843 327 848.0 329.0Q853 331 857 334Q840 348 817.0 365.5Q794 383 781 390Q789 395 794.5 401.0Q800 407 807 415Q811 405 829.5 380.5Q848 356 864 338Q870 342 876.5 347.0Q883 352 890 357Q879 367 863.0 379.5Q847 392 832.0 402.5Q817 413 808 416Q822 426 835 443Q838 435 848.5 419.5Q859 404 872.5 388.5Q886 373 896 361Q902 366 908.0 370.5Q914 375 920 380Q909 390 892.5 403.0Q876 416 860.5 428.0Q845 440 836 444Q847 452 860 469Q863 461 875.0 445.5Q887 430 901.5 413.0Q916 396 926 385L949 405Q938 414 921.0 428.0Q904 442 887.5 454.0Q871 466 861 470Q874 479 886 495Q890 487 902.5 470.0Q915 453 929.5 436.0Q944 419 953 408L986 438Q961 461 934.0 483.0Q907 505 884 521Q860 496 833.0 467.0Q806 438 780.5 410.0Q755 382 737.0 359.0Q719 336 713 323Q703 338 695.0 347.0Q687 356 669 366Q694 382 729.0 409.5Q764 437 801.5 469.5Q839 502 871 531Q864 535 858.0 538.5Q852 542 847 544Q865 557 874.0 565.5Q883 574 893 588Q895 582 898.5 575.5Q902 569 906 562L919 575L926 568L912 552Q933 521 964.0 485.0Q995 449 1025 414L1019 409L994 431Q958 387 927.0 350.0Q896 313 882 281ZM914 34 906 42 915 51Q896 66 870.0 90.5Q844 115 814.5 142.5Q785 170 757.0 195.5Q729 221 706.5 239.5Q684 258 670 264Q685 273 693.5 281.5Q702 290 713 308Q728 283 755.0 249.0Q782 215 812 180Q822 192 834.5 208.0Q847 224 858.0 239.5Q869 255 874 264Q879 257 885.0 251.0Q891 245 899 238Q891 235 876.0 223.5Q861 212 845.0 198.5Q829 185 817 175L838 150Q847 161 860.5 178.0Q874 195 885.5 211.5Q897 228 900 237Q910 223 927 210Q918 208 902.0 196.0Q886 184 869.5 170.0Q853 156 842 146L863 122Q872 134 885.5 150.5Q899 167 911.5 183.5Q924 200 928 209Q936 198 953 185Q945 182 928.5 169.0Q912 156 895.0 141.5Q878 127 867 117L888 95Q897 106 910.5 123.0Q924 140 937.0 157.0Q950 174 954 184Q963 171 979 159Q970 155 953.0 142.0Q936 129 918.5 114.5Q901 100 891 91L921 58Q946 85 971.0 113.5Q996 142 1012 166Q973 201 939.0 228.0Q905 255 876 268Q890 277 898.5 285.5Q907 294 920 312Q931 287 958.5 251.5Q986 216 1020 178Q1024 185 1027.5 191.0Q1031 197 1033 202Q1045 184 1054.0 175.0Q1063 166 1077 157Q1046 144 1002.0 108.0Q958 72 914 34ZM1347 -199Q1275 -135 1229.5 -88.5Q1184 -42 1143 -8Q1012 -10 913.0 -16.0Q814 -22 739.0 -32.0Q664 -42 606.0 -54.5Q548 -67 500.0 -81.5Q452 -96 405 -112Q417 -61 417 3Q417 67 405 124Q463 104 527.0 86.5Q591 69 673.5 55.0Q756 41 869.5 32.0Q983 23 1139 20Q1164 41 1199.0 70.0Q1234 99 1273.0 135.0Q1312 171 1347 212L1368 200Q1332 136 1306.0 91.5Q1280 47 1257 7Q1280 -33 1306.0 -77.5Q1332 -122 1368 -187Z" />
  </g>
</svg>