<svg xmlns="http://www.w3.org/2000/svg" viewBox="100 -202 2431 1041">
  <g transform="translate(0, 637) scale(1, -1)">
    <path fill="black" d="M1304 -202Q1300 -155 1289 -112Q1159 26 1071.5 125.0Q984 224 921 286Q899 260 869.5 218.0Q840 176 808.5 129.0Q777 82 749.5 40.0Q722 -2 703 -28L693 -23L712 20Q679 17 625.5 13.5Q572 10 507.5 6.0Q443 2 377.0 -2.0Q311 -6 253.0 -11.0Q195 -16 154.0 -21.5Q113 -27 100 -33Q102 -20 103.0 -5.5Q104 9 104 25Q104 39 103.0 54.0Q102 69 100 83Q111 77 154 72Q152 121 148.5 186.0Q145 251 140.5 320.0Q136 389 131.5 451.0Q127 513 121.5 555.5Q116 598 111 610Q127 608 143.0 606.5Q159 605 175 605Q185 605 194.0 605.5Q203 606 212 607L208 653Q220 647 261.5 641.5Q303 636 361.0 631.0Q419 626 484.0 621.5Q549 617 609.0 613.5Q669 610 712 607Q685 642 671 653Q695 661 722.0 675.0Q749 689 774 707Q774 694 784.0 663.0Q794 632 809.5 590.5Q825 549 844.0 504.0Q863 459 881.0 416.0Q899 373 914 340Q958 383 1019.5 442.0Q1081 501 1151.0 576.0Q1221 651 1287 742Q1300 789 1304 839Q1356 806 1457.5 761.5Q1559 717 1696.5 665.0Q1834 613 1995.5 557.5Q2157 502 2329 447Q2368 483 2409.0 525.0Q2450 567 2487 610L2515 595Q2467 509 2433.0 442.0Q2399 375 2367 322Q2390 283 2431.5 221.5Q2473 160 2531 84L2505 63Q2460 103 2421.5 135.5Q2383 168 2350 196Q2210 152 2076.0 106.5Q1942 61 1821.0 17.5Q1700 -26 1598.5 -66.0Q1497 -106 1421.5 -140.5Q1346 -175 1304 -202ZM1248 5Q1331 8 1459.5 29.0Q1588 50 1750 84Q1748 131 1744.5 177.5Q1741 224 1736 268Q1702 261 1675.5 253.5Q1649 246 1633 239Q1637 259 1639.0 279.5Q1641 300 1641 321Q1641 341 1639.0 362.0Q1637 383 1633 406Q1647 399 1670.0 392.5Q1693 386 1722 380Q1714 428 1704.5 467.5Q1695 507 1684 535Q1729 526 1769 526Q1787 526 1804.5 528.0Q1822 530 1840 533Q1653 575 1504.5 601.0Q1356 627 1261 631Q1210 533 1163.5 459.5Q1117 386 1082 316ZM779 512 726 589Q687 585 631.0 581.0Q575 577 512.5 572.5Q450 568 391.0 563.5Q332 559 287 553Q308 547 351.0 542.0Q394 537 450.0 532.5Q506 528 566.5 524.0Q627 520 682.5 517.0Q738 514 779 512ZM1270 72 1265 174Q1245 170 1226.0 165.0Q1207 160 1190 155Q1196 179 1196 209Q1196 240 1190 267Q1205 263 1223.0 259.0Q1241 255 1262 251Q1261 285 1259.5 319.5Q1258 354 1256 388L1190 371Q1196 395 1196 425Q1196 456 1190 483Q1203 479 1218.5 475.5Q1234 472 1251 469Q1249 502 1246.0 526.0Q1243 550 1240 557Q1259 553 1278 553Q1297 553 1313 557Q1305 535 1300 461L1337 457Q1332 537 1325 557Q1344 553 1363 553Q1382 553 1397 557Q1393 547 1390.0 519.0Q1387 491 1384 452L1422 450Q1419 491 1416.0 520.0Q1413 549 1409 557Q1428 553 1447 553Q1466 553 1481 557Q1477 547 1473.5 517.5Q1470 488 1468 447Q1477 447 1486.5 447.0Q1496 447 1506 446Q1503 488 1500.0 518.0Q1497 548 1493 557Q1512 553 1531 553Q1550 553 1565 557Q1561 547 1558.0 516.5Q1555 486 1552 445Q1574 444 1597.0 444.0Q1620 444 1645 444V421Q1620 421 1596.0 421.0Q1572 421 1550 420Q1547 375 1545.0 325.5Q1543 276 1541 229Q1565 228 1591.0 228.0Q1617 228 1645 228V205Q1617 205 1590.0 204.5Q1563 204 1539 203Q1538 160 1536.0 125.0Q1534 90 1532 72H1522L1517 202L1455 199Q1454 157 1452.0 123.0Q1450 89 1448 72H1438L1433 197Q1416 196 1400.5 194.5Q1385 193 1371 191Q1369 151 1367.5 120.0Q1366 89 1364 72H1354L1350 188Q1332 186 1315.5 183.5Q1299 181 1284 178Q1283 143 1281.5 115.0Q1280 87 1278 72ZM238 529Q249 529 259.5 529.5Q270 530 279 531Q279 536 278.5 541.5Q278 547 277 552Q255 549 238.5 545.5Q222 542 212 539Q212 533 211 530Q218 529 224.5 529.0Q231 529 238 529ZM1772 89Q1895 115 2033.5 148.5Q2172 182 2321 220Q2285 249 2253.0 274.5Q2221 300 2190 322Q2210 339 2239.5 364.5Q2269 390 2303 422Q2181 453 2066.5 480.5Q1952 508 1848 531Q1835 497 1824.5 455.0Q1814 413 1806 365Q1868 356 1939.5 349.0Q2011 342 2080 339V317Q2005 310 1930.5 300.0Q1856 290 1792 279Q1787 235 1782.0 187.0Q1777 139 1772 89ZM842 415Q829 434 817.0 453.5Q805 473 792 492Q753 489 698.0 485.0Q643 481 582.0 476.5Q521 472 463.0 467.5Q405 463 360 457Q382 452 426.0 446.5Q470 441 526.0 436.5Q582 432 641.0 428.0Q700 424 752.5 420.5Q805 417 842 415ZM310 430Q320 430 330.0 430.5Q340 431 349 432Q349 438 348.5 443.5Q348 449 347 455Q322 452 304.5 449.0Q287 446 278 442Q277 439 277.0 436.0Q277 433 277 431Q285 430 293.5 430.0Q302 430 310 430ZM1516 230Q1515 277 1512.5 325.5Q1510 374 1508 418Q1497 418 1486.5 417.5Q1476 417 1465 416Q1463 373 1461.0 325.0Q1459 277 1457 232Q1471 231 1486.0 230.5Q1501 230 1516 230ZM1432 233 1424 412Q1413 411 1402.0 410.5Q1391 410 1381 408Q1379 368 1377.0 323.5Q1375 279 1373 237ZM225 64Q222 109 218.5 169.0Q215 229 210.5 292.5Q206 356 200 409Q196 352 191.5 290.0Q187 228 183.5 170.5Q180 113 176 69Q187 68 199.5 67.0Q212 66 225 64ZM1348 240Q1347 280 1345.0 322.0Q1343 364 1341 403Q1329 402 1317.5 399.5Q1306 397 1295 395L1287 247Q1301 245 1316.5 243.5Q1332 242 1348 240ZM834 323Q842 350 842 363Q856 353 870.5 344.5Q885 336 899 328L853 399Q817 395 763.5 391.0Q710 387 649.0 382.5Q588 378 529.5 373.0Q471 368 426 362Q449 356 496.5 350.0Q544 344 603.5 339.0Q663 334 724.0 330.0Q785 326 834 323ZM389 330Q396 330 403.0 330.0Q410 330 417 331Q417 339 416.5 346.0Q416 353 415 360Q390 357 372.0 353.0Q354 349 346 345Q347 352 348.0 359.5Q349 367 349 375L342 332Q354 331 366.0 330.5Q378 330 389 330ZM293 59Q291 98 287.0 147.0Q283 196 278.0 246.0Q273 296 267 338Q261 266 255.5 191.0Q250 116 245 63ZM719 36Q736 75 756.0 121.5Q776 168 794.5 214.5Q813 261 825 297Q772 293 708.0 288.0Q644 283 583.0 277.0Q522 271 476.5 264.5Q431 258 414 250Q414 253 414.5 256.0Q415 259 415 262Q405 216 398.0 159.5Q391 103 385 53Q452 49 517.0 45.5Q582 42 635.5 40.0Q689 38 719 36ZM367 54Q364 91 359.5 132.5Q355 174 349.0 213.5Q343 253 336 284Q329 227 323.5 166.0Q318 105 313 58Z" />
  </g>
</svg>