<svg xmlns="http://www.w3.org/2000/svg" viewBox="100 -135 1026 871">
  <g transform="translate(0, 601) scale(1, -1)">
    <path fill="black" d="M169 -135Q172 -111 174.5 -82.5Q177 -54 177 -24Q177 1 175.0 25.0Q173 49 169 71Q172 70 178.0 68.0Q184 66 192 64Q183 299 156.0 464.5Q129 630 100 736Q151 724 205 724Q259 724 316 736Q286 629 259.0 462.0Q232 295 224 57Q269 48 341.0 38.5Q413 29 499.5 19.5Q586 10 677.0 2.0Q768 -6 852.5 -10.5Q937 -15 1004 -16Q1003 62 998 134Q891 134 789.5 128.5Q688 123 602.5 114.0Q517 105 455.5 93.0Q394 81 367 68Q373 101 373 143Q373 181 367 220Q390 209 450.5 197.5Q511 186 598.0 176.0Q685 166 788.0 160.0Q891 154 997 154Q995 194 992.0 231.5Q989 269 986 304Q881 304 781.5 298.5Q682 293 598.0 283.5Q514 274 454.0 262.5Q394 251 367 238Q373 271 373 313Q373 351 367 390Q389 379 448.5 367.5Q508 356 593.0 346.0Q678 336 778.5 330.0Q879 324 984 324Q980 365 975.0 402.5Q970 440 965 474Q863 473 767.0 467.0Q671 461 590.0 452.0Q509 443 451.0 431.5Q393 420 367 408Q373 441 373 483Q373 521 367 560Q389 549 445.5 538.0Q502 527 583.5 517.5Q665 508 762.5 501.5Q860 495 962 494Q955 535 948.0 572.5Q941 610 933 643Q835 642 744.0 636.0Q653 630 577.0 621.0Q501 612 446.5 601.0Q392 590 367 578Q373 611 373 653Q373 691 367 730Q388 720 441.5 709.0Q495 698 571.0 688.5Q647 679 739.0 672.5Q831 666 928 664L910 736Q961 724 1015 724Q1069 724 1126 736Q1103 653 1081.0 533.5Q1059 414 1045.0 254.0Q1031 94 1031 -112H1005Q1005 -95 1005.0 -79.5Q1005 -64 1004 -48Q957 -48 892.0 -52.0Q827 -56 751.5 -62.0Q676 -68 598.5 -75.5Q521 -83 448.5 -91.0Q376 -99 316.5 -107.0Q257 -115 218.0 -122.5Q179 -130 169 -135Z" />
  </g>
</svg>