<svg xmlns="http://www.w3.org/2000/svg" viewBox="100 -195 1545 1016">
  <g transform="translate(0, 626) scale(1, -1)">
    <path fill="black" d="M612 -195Q624 -144 624 -90Q624 -36 612 21L626 17Q625 43 623.5 75.0Q622 107 620 144Q591 143 563.5 142.0Q536 141 510 139Q501 69 496.0 2.0Q491 -65 491 -112H470Q470 -66 465.5 -0.5Q461 65 453 133Q419 129 387.0 124.0Q355 119 326 113Q319 49 314.5 -10.5Q310 -70 310 -112H289Q289 -71 285.5 -15.0Q282 41 275 102Q214 89 170.0 73.5Q126 58 100 49Q112 100 112 154Q112 208 100 265Q124 257 164.5 243.0Q205 229 261 215Q254 267 244.0 310.5Q234 354 223 381Q258 374 298 374Q316 374 335.5 375.5Q355 377 376 381Q366 356 355.5 306.5Q345 257 337 198Q362 193 389.5 189.0Q417 185 447 181Q439 243 428.0 296.5Q417 350 404 381Q439 374 479 374Q497 374 516.5 375.5Q536 377 557 381Q546 353 535.0 297.5Q524 242 515 175Q540 173 565.5 171.5Q591 170 618 170Q614 236 607.5 307.5Q601 379 593 443Q466 440 367.5 422.0Q269 404 201.5 383.0Q134 362 100 349Q112 400 112 454Q112 508 100 565Q140 550 207.0 529.5Q274 509 369.5 492.0Q465 475 590 470Q583 517 575.5 554.5Q568 592 560 612Q573 610 586.0 608.0Q599 606 612 605Q624 656 624 710Q624 764 612 821Q732 788 937.5 758.5Q1143 729 1431 726L1429 736Q1480 724 1534 724Q1588 724 1645 736Q1622 653 1600.0 518.5Q1578 384 1564.0 209.0Q1550 34 1550 -172H1524Q1524 -153 1524.0 -135.0Q1524 -117 1523 -100Q1372 -100 1234.5 -108.5Q1097 -117 978.5 -130.5Q860 -144 767.0 -161.0Q674 -178 612 -195ZM1523 -74Q1520 95 1507.0 241.0Q1494 387 1476.0 503.5Q1458 620 1438 700Q1236 698 1074.0 682.5Q912 667 791 645Q800 644 809.0 643.5Q818 643 828 643Q845 643 862.0 644.5Q879 646 897 650Q892 637 888.0 609.5Q884 582 879 544L908 565L913 563Q909 592 905.5 614.5Q902 637 897 650Q914 646 930.5 644.5Q947 643 963 643Q979 643 996.0 644.5Q1013 646 1031 650Q1026 636 1021.5 604.5Q1017 573 1012 529L1045 552L1050 550Q1046 584 1041.0 609.5Q1036 635 1031 650Q1063 643 1097 643Q1113 643 1130.0 644.5Q1147 646 1166 650Q1161 637 1156.5 609.5Q1152 582 1148 545L1158 552L1177 546Q1167 533 1159.0 521.5Q1151 510 1143 499L1140 460Q1151 467 1163.5 475.0Q1176 483 1191 493Q1186 547 1179.5 588.5Q1173 630 1166 650Q1197 643 1232 643Q1248 643 1265.0 644.5Q1282 646 1300 650Q1295 637 1290.5 611.0Q1286 585 1282 549L1294 546Q1290 541 1286.5 537.0Q1283 533 1280 528L1274 461L1325 493Q1320 547 1313.5 588.5Q1307 630 1300 650Q1317 646 1334.0 644.5Q1351 643 1367 643Q1383 643 1399.5 644.5Q1416 646 1435 650Q1426 625 1418 557L1429 565L1451 558Q1441 545 1431.5 532.5Q1422 520 1414 508L1402 361Q1413 346 1425.0 330.5Q1437 315 1451 298L1429 283L1399 306L1394 234L1429 259L1451 253L1391 170L1387 78L1451 -8L1429 -22L1384 12Q1383 -11 1382.0 -32.5Q1381 -54 1380 -71Q1451 -74 1523 -74ZM820 -21 816 47Q785 70 761.0 86.0Q737 102 702 121Q725 137 749.5 152.0Q774 167 809 189L797 367Q773 384 752.0 397.0Q731 410 702 426Q722 440 742.0 452.5Q762 465 788 482Q784 535 778.0 576.0Q772 617 765 640Q721 632 683.0 623.0Q645 614 613 605H633Q652 605 671.5 606.5Q691 608 713 612Q705 593 697.5 552.0Q690 511 683.0 456.0Q676 401 670.0 339.5Q664 278 659.0 217.0Q654 156 651.0 102.5Q648 49 647 12Q718 -6 820 -21ZM869 435 923 471Q922 489 920.0 506.5Q918 524 916 540Q903 522 892.5 505.5Q882 489 872 473ZM1006 450 1058 483 1052 533Q1039 516 1028.0 500.0Q1017 484 1007 470Q1007 465 1006.5 460.0Q1006 455 1006 450ZM955 -40 949 60Q924 79 903.5 92.5Q883 106 857 121Q874 134 894.5 146.5Q915 159 943 177Q940 227 937.0 278.5Q934 330 930 379Q914 390 899.5 399.5Q885 409 868 419Q868 412 867.5 404.5Q867 397 866 389L930 298L908 283Q895 293 883.5 302.0Q872 311 862 318L856 222L908 259L930 253Q904 220 887.0 192.0Q870 164 853 138L851 106Q869 80 886.5 51.5Q904 23 930 -8L908 -22L847 24Q847 11 846.5 -1.5Q846 -14 845 -25Q871 -29 898.5 -33.0Q926 -37 955 -40ZM987 133 1079 191 1067 363Q1049 377 1034.0 387.5Q1019 398 1003 408Q1002 404 1002.0 400.0Q1002 396 1002 392L1063 309L1045 297Q1032 306 1020.0 314.5Q1008 323 998 330L991 209L1045 246L1063 239Q1038 209 1021.0 183.5Q1004 158 987 133ZM1256 143Q1274 155 1296.0 168.5Q1318 182 1346 201Q1346 205 1345.5 208.5Q1345 212 1345 216Q1343 250 1341.0 284.5Q1339 319 1336 353Q1300 381 1270 399L1266 345Q1272 337 1279.0 327.5Q1286 318 1294 309L1274 297Q1271 299 1268.5 301.0Q1266 303 1264 305L1260 236L1274 246L1294 239Q1273 212 1258 188Q1257 176 1256.5 165.5Q1256 155 1256 143ZM1121 144Q1139 155 1161.0 168.5Q1183 182 1212 202Q1212 206 1211.5 209.0Q1211 212 1211 216Q1209 250 1207.0 284.0Q1205 318 1202 351Q1166 378 1135 398Q1135 391 1134.5 383.0Q1134 375 1133 367Q1142 353 1153.0 338.5Q1164 324 1177 309L1158 297L1130 317L1124 222Q1132 227 1140.5 233.0Q1149 239 1158 246L1177 239Q1160 217 1146.5 197.5Q1133 178 1121 161ZM1093 -54 1087 43Q1056 66 1034.0 81.0Q1012 96 986 109Q1003 85 1020.5 58.5Q1038 32 1063 3L1045 -9Q1026 4 1011.0 15.0Q996 26 983 35L980 -43Q1007 -46 1035.5 -49.0Q1064 -52 1093 -54ZM1363 -71Q1361 -49 1359.5 -22.5Q1358 4 1356 33Q1325 56 1302.0 72.0Q1279 88 1254 103Q1253 93 1252.5 82.5Q1252 72 1252 63Q1269 35 1294 3L1274 -9L1249 9L1246 -65ZM1228 -64 1222 30Q1189 55 1166.0 71.5Q1143 88 1119 102Q1119 98 1118.5 93.5Q1118 89 1118 85Q1130 66 1144.0 46.0Q1158 26 1177 3L1158 -9L1113 22V-56Q1141 -58 1170.0 -60.0Q1199 -62 1228 -64Z" />
  </g>
</svg>