<svg xmlns="http://www.w3.org/2000/svg" viewBox="100 -234 1654 1025">
  <g transform="translate(0, 557) scale(1, -1)">
    <path fill="black" d="M473 -234Q485 -183 485 -129Q485 -75 473 -18Q492 -25 515.0 -32.0Q538 -39 566 -46Q564 123 552.0 259.5Q540 396 522 502Q442 493 388.5 483.0Q335 473 293.0 460.5Q251 448 206 430Q243 432 283 439Q261 385 244.5 328.0Q228 271 218 186Q259 171 305.0 159.0Q351 147 412.0 139.5Q473 132 557 128V106Q481 98 427.5 90.0Q374 82 333.5 72.0Q293 62 256.5 49.0Q220 36 178 19Q180 33 182.0 47.0Q184 61 185 75Q178 147 170.0 198.0Q162 249 152.0 288.0Q142 327 129.5 362.5Q117 398 100 439Q139 432 180 430Q183 450 185.0 469.0Q187 488 187 508Q187 551 178 602Q222 584 268.0 569.5Q314 555 373.5 545.0Q433 535 517 530Q507 591 495.0 642.0Q483 693 472 736Q523 724 577 724Q603 724 630.0 727.0Q657 730 685 735L678 791Q722 773 797.0 758.5Q872 744 963.0 734.0Q1054 724 1146 719L1142 736Q1193 724 1247 724Q1301 724 1358 736Q1342 676 1325 598Q1376 578 1430.5 562.5Q1485 547 1564 538Q1558 565 1551.5 590.5Q1545 616 1538 640Q1589 628 1643 628Q1697 628 1754 640Q1726 540 1700.5 413.5Q1675 287 1664 128H1677V106L1663 104Q1661 70 1660.0 33.0Q1659 -4 1659 -42H1633Q1633 -4 1632.0 31.5Q1631 67 1629 101Q1568 94 1525.5 86.0Q1483 78 1450.5 68.5Q1418 59 1387.5 47.0Q1357 35 1318 19Q1327 64 1327 108Q1327 151 1318 202Q1361 184 1401.5 170.0Q1442 156 1495.0 146.0Q1548 136 1627 130Q1620 234 1606.0 324.0Q1592 414 1575 491Q1518 483 1476.5 473.0Q1435 463 1398.0 450.0Q1361 437 1318 419Q1322 441 1324.0 463.0Q1326 485 1326 507Q1326 524 1324.5 541.5Q1323 559 1321 578Q1297 454 1280.0 282.0Q1263 110 1263 -113H1295V-139Q1090 -139 924.0 -154.0Q758 -169 642.5 -190.5Q527 -212 473 -234ZM1237 -112Q1236 166 1210.5 365.0Q1185 564 1153 691Q1058 681 969.5 670.0Q881 659 806.5 644.5Q732 630 678 608Q682 630 684.0 652.0Q686 674 686 696Q686 704 686.0 712.0Q686 720 685 728Q653 609 625.0 417.5Q597 226 593 -52Q700 -76 862.5 -93.0Q1025 -110 1237 -112ZM967 85Q957 106 946.0 121.0Q935 136 921 150Q926 151 931.5 153.5Q937 156 944 160L940 196Q855 196 801.5 190.5Q748 185 714.5 176.5Q681 168 655 158Q657 168 658.0 181.0Q659 194 659 207Q659 221 658.0 234.5Q657 248 655 261Q688 247 756.5 232.5Q825 218 938 217L923 365Q847 364 796.5 358.5Q746 353 712.5 345.0Q679 337 655 327Q657 337 658.0 350.0Q659 363 659 376Q659 390 658.0 403.5Q657 417 655 430Q687 417 751.5 402.0Q816 387 921 385Q919 408 917.0 424.0Q915 440 913 444Q921 443 933.5 441.5Q946 440 959 440Q963 440 966.5 440.5Q970 441 974 441Q957 451 943.0 458.0Q929 465 921 467Q935 482 946.0 497.0Q957 512 967 533Q974 520 999.5 493.0Q1025 466 1060.0 433.0Q1095 400 1131.0 367.5Q1167 335 1194 309Q1167 284 1131.0 250.5Q1095 217 1060.0 184.0Q1025 151 999.5 124.5Q974 98 967 85ZM963 170 1171 309Q1133 335 1083.0 369.5Q1033 404 992 430Q989 412 985.0 380.0Q981 348 977.0 309.0Q973 270 969.0 233.5Q965 197 963 170Z" />
  </g>
</svg>