<svg xmlns="http://www.w3.org/2000/svg" viewBox="100 -350 1262 1086">
  <g transform="translate(0, 386) scale(1, -1)">
    <path fill="black" d="M294 -350Q294 -292 288.5 -232.0Q283 -172 275 -114Q160 -129 100 -146Q112 -95 112 -41Q112 13 100 70Q126 63 163.0 56.0Q200 49 246 42Q233 98 220.5 141.0Q208 184 198 205Q227 201 255.5 198.0Q284 195 313 195Q360 195 408 204H413Q440 200 467.5 197.5Q495 195 523 195Q548 195 573.5 197.5Q599 200 624 205Q614 182 599.0 129.0Q584 76 569 6Q677 -3 792.0 -10.0Q907 -17 1021.5 -20.5Q1136 -24 1240 -25Q1239 37 1236.5 95.0Q1234 153 1230 206Q1189 202 1124.0 198.0Q1059 194 985 189L982 124L1233 110V97Q1193 93 1123.5 88.5Q1054 84 979 79Q978 60 977.5 40.5Q977 21 977 1H959L954 77Q897 73 844.5 68.5Q792 64 752.5 58.5Q713 53 695 46Q697 60 698.0 73.5Q699 87 699 101Q699 114 698.0 127.0Q697 140 695 155Q710 149 748.5 143.5Q787 138 840.0 134.0Q893 130 951 126L947 187Q891 183 840.0 178.5Q789 174 750.5 168.5Q712 163 695 156Q697 170 698.0 183.5Q699 197 699 211Q699 224 698.0 237.0Q697 250 695 265Q709 259 746.0 254.0Q783 249 834.5 244.5Q886 240 943 236L937 296Q883 293 834.0 288.5Q785 284 748.5 278.5Q712 273 695 266Q697 280 698.0 293.5Q699 307 699 321Q699 334 698.0 347.0Q697 360 695 375Q709 370 744.0 364.5Q779 359 828.0 355.0Q877 351 931 347L922 405Q846 400 782.5 392.5Q719 385 695 376Q697 390 698.0 403.5Q699 417 699 431Q699 444 698.0 457.0Q697 470 695 485Q714 477 775.0 470.0Q836 463 912 458Q908 480 902.5 501.0Q897 522 891 544Q924 535 958 535Q993 535 1030 544Q1024 522 1019.0 500.0Q1014 478 1009 452Q1065 448 1116.5 445.5Q1168 443 1205 441Q1200 477 1194.5 510.0Q1189 543 1183 574Q1011 569 852.0 561.5Q693 554 558.0 544.5Q423 535 321.0 522.5Q219 510 160 494Q172 551 172 605Q172 659 160 710Q253 684 405.5 665.5Q558 647 754.5 633.5Q951 620 1176 609Q1169 644 1161.5 676.0Q1154 708 1146 736Q1197 724 1251 724Q1305 724 1362 736Q1339 653 1317.0 533.5Q1295 414 1281.0 254.0Q1267 94 1267 -112H1241Q1241 -96 1240.5 -81.0Q1240 -66 1240 -51Q1134 -51 1016.5 -55.0Q899 -59 780.5 -66.0Q662 -73 552 -83Q542 -147 534.5 -216.0Q527 -285 527 -350H504Q504 -286 498.0 -219.5Q492 -153 481 -90L339 -105Q329 -165 323.0 -228.0Q317 -291 317 -350ZM1219 331 1207 424Q1169 420 1115.0 417.0Q1061 414 1002 410Q1000 395 998.0 378.0Q996 361 994 343Q1059 339 1119.5 336.0Q1180 333 1219 331ZM1229 220 1220 315Q1180 311 1118.5 307.5Q1057 304 990 300L986 233Q1058 229 1124.0 225.5Q1190 222 1229 220ZM462 16Q449 78 435.5 125.5Q422 173 411 198Q402 174 389.5 129.5Q377 85 364 26Q387 24 411.5 21.0Q436 18 462 16Z" />
  </g>
</svg>