<svg xmlns="http://www.w3.org/2000/svg" viewBox="100 -249 2014 1162">
  <g transform="translate(0, 664) scale(1, -1)">
    <path fill="black" d="M1936 -249Q1911 -223 1885.0 -205.0Q1859 -187 1835 -177Q1841 -172 1848.0 -167.5Q1855 -163 1862 -158Q1798 -105 1739.0 -72.5Q1680 -40 1636 -24Q1678 9 1700 47Q1688 67 1673.5 83.5Q1659 100 1636 118Q1680 134 1739.0 167.0Q1798 200 1862 252Q1855 257 1848.0 262.0Q1841 267 1835 271Q1856 280 1879.0 295.0Q1902 310 1925 332Q1902 354 1879.0 368.5Q1856 383 1835 393L1862 411Q1798 464 1739.0 497.0Q1680 530 1636 546Q1678 579 1700 617Q1688 637 1673.5 653.5Q1659 670 1636 688Q1680 704 1739.0 737.0Q1798 770 1862 822Q1855 827 1848.0 832.0Q1841 837 1835 841Q1859 852 1885.0 869.5Q1911 887 1936 913Q1947 877 1973.5 828.0Q2000 779 2037.0 724.5Q2074 670 2114 617Q2076 567 2040.5 514.5Q2005 462 1978.5 415.0Q1952 368 1939 332Q1952 296 1978.5 248.5Q2005 201 2040.5 149.5Q2076 98 2114 47Q2074 -6 2037.0 -60.5Q2000 -115 1973.5 -164.0Q1947 -213 1936 -249ZM1880 424 1888 430Q1884 465 1879.0 507.0Q1874 549 1868.5 589.5Q1863 630 1858.0 660.5Q1853 691 1849 701Q1860 698 1871.0 697.0Q1882 696 1892 696Q1905 696 1917.5 697.5Q1930 699 1943 701Q1939 691 1934.0 663.5Q1929 636 1924.5 598.5Q1920 561 1915.5 521.0Q1911 481 1907 446Q1951 481 1997.5 525.0Q2044 569 2087 617Q2037 673 1983.0 722.5Q1929 772 1880 809Q1823 751 1787.5 707.0Q1752 663 1726 617Q1752 571 1787.5 527.0Q1823 483 1880 424ZM508 -120Q358 41 262.0 150.0Q166 259 100 319Q161 380 222.0 446.0Q283 512 352.5 589.0Q422 666 508 758L529 743Q447 612 388.5 502.5Q330 393 292 319Q324 256 384.0 144.5Q444 33 529 -105ZM503 516Q505 539 506.5 561.0Q508 583 508 605Q508 627 506.5 648.0Q505 669 503 690Q538 678 593.5 667.0Q649 656 717.0 647.5Q785 639 860.5 632.5Q936 626 1012 623Q1011 640 1010.0 657.0Q1009 674 1007 690Q1048 676 1117.0 664.0Q1186 652 1271.0 642.5Q1356 633 1447.0 627.0Q1538 621 1624 621V598Q1505 591 1388.0 580.5Q1271 570 1172.0 554.5Q1073 539 1007 516Q1009 536 1010.0 554.0Q1011 572 1012 591Q911 584 815.5 573.5Q720 563 639.5 549.0Q559 535 503 516ZM503 328Q505 351 506.5 373.5Q508 396 508 418Q508 440 506.5 460.5Q505 481 503 502Q538 490 593.5 479.5Q649 469 717.0 460.0Q785 451 860.5 444.5Q936 438 1012 435Q1011 452 1010.0 469.0Q1009 486 1007 502Q1048 489 1117.0 476.5Q1186 464 1271.0 454.5Q1356 445 1447.0 439.0Q1538 433 1624 433V410Q1505 403 1388.0 392.5Q1271 382 1172.0 366.5Q1073 351 1007 328Q1009 348 1010.0 366.5Q1011 385 1012 403Q911 396 815.5 385.5Q720 375 639.5 361.0Q559 347 503 328ZM503 141Q505 164 506.5 186.0Q508 208 508 230Q508 252 506.5 272.5Q505 293 503 315Q538 303 593.5 292.0Q649 281 717.0 272.0Q785 263 860.5 256.5Q936 250 1012 247Q1011 264 1010.0 281.0Q1009 298 1007 315Q1048 301 1117.0 288.5Q1186 276 1271.0 266.5Q1356 257 1447.0 251.0Q1538 245 1624 245V223Q1505 216 1388.0 205.0Q1271 194 1172.0 178.5Q1073 163 1007 141Q1009 161 1010.0 179.0Q1011 197 1012 215Q911 208 815.5 197.5Q720 187 639.5 173.5Q559 160 503 141ZM1880 -145 1888 -139Q1884 -104 1879.0 -62.0Q1874 -20 1868.5 20.5Q1863 61 1858.0 91.0Q1853 121 1849 131Q1860 128 1871.0 127.0Q1882 126 1892 126Q1905 126 1917.5 127.5Q1930 129 1943 131Q1939 121 1934.0 93.5Q1929 66 1924.5 28.5Q1920 -9 1915.5 -49.0Q1911 -89 1907 -124Q1951 -89 1997.5 -45.0Q2044 -1 2087 47Q2037 103 1983.0 152.5Q1929 202 1880 239Q1823 181 1787.5 137.0Q1752 93 1726 47Q1752 1 1787.5 -42.5Q1823 -86 1880 -145ZM503 -47Q505 -24 506.5 -2.0Q508 20 508 42Q508 64 506.5 85.0Q505 106 503 127Q538 115 593.5 104.0Q649 93 717.0 84.5Q785 76 860.5 69.5Q936 63 1012 60Q1011 77 1010.0 94.0Q1009 111 1007 127Q1048 113 1117.0 101.0Q1186 89 1271.0 79.5Q1356 70 1447.0 64.0Q1538 58 1624 58V35Q1505 28 1388.0 17.0Q1271 6 1172.0 -9.5Q1073 -25 1007 -47Q1009 -27 1010.0 -9.0Q1011 9 1012 27Q911 20 815.5 10.0Q720 0 639.5 -14.0Q559 -28 503 -47Z" />
  </g>
</svg>