<svg xmlns="http://www.w3.org/2000/svg" viewBox="100 -112 1669 848">
  <g transform="translate(0, 624) scale(1, -1)">
    <path fill="black" d="M728 -112V-71Q643 -30 544.0 12.0Q445 54 355 89L349 -15H330Q330 5 329.0 35.0Q328 65 326 100Q240 134 178.0 156.0Q116 178 100 179Q122 205 139.5 241.0Q157 277 169 308Q157 340 139.5 376.0Q122 412 100 437Q112 438 150.5 451.0Q189 464 246.5 485.5Q304 507 372.5 534.0Q441 561 513.0 592.0Q585 623 653 654Q648 676 643.0 696.5Q638 717 633 736Q684 724 738 724Q792 724 849 736Q837 693 825 640Q853 634 915.5 626.5Q978 619 1062.0 611.0Q1146 603 1239.5 596.0Q1333 589 1424.0 584.5Q1515 580 1590 578Q1581 623 1571.5 662.5Q1562 702 1553 736Q1604 724 1658 724Q1712 724 1769 736Q1746 653 1724.0 533.5Q1702 414 1688.0 254.0Q1674 94 1674 -112H1648Q1648 -22 1645 60Q1600 60 1535.5 57.0Q1471 54 1395.5 49.5Q1320 45 1242.0 39.0Q1164 33 1091.0 27.0Q1018 21 957.5 14.5Q897 8 858.0 2.5Q819 -3 809 -7Q812 12 814.5 34.0Q817 56 817 79Q817 117 809 152Q820 147 868.0 140.5Q916 134 988.0 126.5Q1060 119 1147.0 111.5Q1234 104 1324.0 98.0Q1414 92 1497.0 88.5Q1580 85 1644 85Q1638 228 1625.0 343.5Q1612 459 1595 551Q1543 550 1476.5 546.0Q1410 542 1336.5 537.5Q1263 533 1190.0 527.0Q1117 521 1051 515Q1062 501 1079.0 479.5Q1096 458 1115.0 436.5Q1134 415 1148 397Q1146 418 1142.5 434.0Q1139 450 1136 458Q1153 454 1173 454Q1182 454 1191.0 455.0Q1200 456 1209 458Q1202 460 1196.0 461.0Q1190 462 1186 462Q1195 475 1202.0 489.0Q1209 503 1214 521Q1223 511 1269.0 485.0Q1315 459 1373 429Q1389 434 1402.0 441.5Q1415 449 1427 458Q1428 445 1432.0 429.0Q1436 413 1441 394L1503 363Q1484 392 1467.0 415.5Q1450 439 1439 449Q1459 454 1475.0 462.5Q1491 471 1505 481Q1507 458 1518.5 420.5Q1530 383 1545 342L1581 325L1603 332L1607 324Q1597 320 1585.0 315.0Q1573 310 1560 305L1582 249L1573 245Q1566 257 1558.5 271.0Q1551 285 1542 299L1485 274L1504 226L1495 222Q1489 232 1483.0 243.5Q1477 255 1469 267Q1422 247 1382.5 227.5Q1343 208 1332 197Q1328 216 1322.5 230.5Q1317 245 1309 258Q1328 258 1369.0 267.0Q1410 276 1456 289Q1440 317 1422.5 344.5Q1405 372 1389 392Q1336 413 1287.0 431.5Q1238 450 1209 458Q1202 441 1197.0 405.0Q1192 369 1188.0 325.5Q1184 282 1181.0 239.5Q1178 197 1175 166H1165L1164 183Q1145 181 1121.5 177.5Q1098 174 1078.5 170.0Q1059 166 1052 163Q1054 168 1054.0 173.5Q1054 179 1054 184Q1054 190 1053.5 196.5Q1053 203 1052 209Q1059 206 1078.0 202.5Q1097 199 1120.5 196.0Q1144 193 1164 190L1161 237Q1142 235 1119.0 231.0Q1096 227 1077.5 223.5Q1059 220 1052 217Q1054 223 1054.0 228.0Q1054 233 1054 238Q1054 244 1053.5 250.5Q1053 257 1052 263Q1059 260 1077.5 256.5Q1096 253 1118.5 250.0Q1141 247 1161 244L1150 380Q1148 381 1144 385Q1130 370 1111.5 349.5Q1093 329 1075.0 308.5Q1057 288 1043.5 272.5Q1030 257 1027 252Q1020 266 1010.0 275.0Q1000 284 989 292L992 293Q974 311 952.0 331.5Q930 352 912.0 368.0Q894 384 888 387Q899 393 907.5 401.0Q916 409 923 418L925 413L1006 491L1003 493Q1009 498 1015.0 502.5Q1021 507 1027 513Q942 505 882.0 497.5Q822 490 809 485Q812 504 814.5 528.0Q817 552 817 576Q817 581 816.5 586.5Q816 592 816 597Q792 480 774.5 319.5Q757 159 754 -53L822 -90L810 -111Q797 -104 783.0 -97.0Q769 -90 754 -83V-112ZM364 203Q378 220 388.5 237.5Q399 255 409 280Q429 302 440.0 320.5Q451 339 464 367Q463 367 462.5 367.5Q462 368 461 368Q481 389 493.0 408.5Q505 428 518 458Q533 437 565.0 408.0Q597 379 636.5 349.0Q676 319 710 293L699 393Q655 416 608.5 433.5Q562 451 519 458Q539 479 551.0 498.5Q563 518 576 548Q593 523 626.0 493.0Q659 463 693 434Q686 486 678.0 532.5Q670 579 661 619Q601 583 535.0 542.0Q469 501 406.5 460.5Q344 420 294 386Q305 384 315.0 383.0Q325 382 335 382Q359 382 392 388Q383 366 376.0 314.5Q369 263 364 203ZM1002 299Q1016 307 1036.5 320.5Q1057 334 1079 349Q1072 355 1063.5 361.5Q1055 368 1045 375Q1033 359 1023.5 345.0Q1014 331 1011 325Q1005 334 997.5 342.0Q990 350 979 357Q984 359 997.0 368.5Q1010 378 1026 390Q1011 401 997.5 410.0Q984 419 979 422Q990 429 997.5 437.0Q1005 445 1011 454Q1014 448 1023.5 434.0Q1033 420 1045 403L1083 434Q1064 448 1047.0 461.5Q1030 475 1018 483Q1000 458 979.0 430.0Q958 402 944 382ZM1083 352 1137 390 1087 431 1055 389ZM1278 105 1276 142Q1248 140 1214.0 136.5Q1180 133 1153.5 130.5Q1127 128 1121 125Q1122 130 1122.5 135.5Q1123 141 1123 146Q1123 152 1122.5 158.5Q1122 165 1121 171Q1127 169 1153.5 166.0Q1180 163 1213.5 160.0Q1247 157 1275 154L1274 182Q1249 178 1227.5 173.0Q1206 168 1196 163Q1199 174 1199 184Q1199 197 1196 209Q1206 205 1227.0 200.5Q1248 196 1273 191Q1272 202 1272.0 213.0Q1272 224 1270 235Q1246 232 1225.5 226.5Q1205 221 1196 217Q1199 229 1199 238Q1199 251 1196 263Q1206 259 1225.5 254.5Q1245 250 1270 246L1266 289Q1244 285 1224.5 280.5Q1205 276 1196 271Q1199 283 1199 292Q1199 305 1196 317Q1205 313 1224.0 309.0Q1243 305 1265 301Q1264 312 1263.5 321.5Q1263 331 1261 341Q1240 337 1222.0 333.0Q1204 329 1196 326Q1199 337 1199 347Q1199 359 1196 372Q1204 368 1221.0 364.5Q1238 361 1259 357Q1257 374 1254.0 386.0Q1251 398 1249 405Q1259 404 1268.5 402.5Q1278 401 1286 401Q1295 401 1304.0 402.5Q1313 404 1322 405Q1314 386 1308.5 342.5Q1303 299 1299.0 248.0Q1295 197 1291 153L1315 150V146L1290 144Q1290 134 1289.0 123.5Q1288 113 1287 105ZM317 215Q312 267 305.0 312.0Q298 357 288 382Q252 358 225.0 338.5Q198 319 184 308Q201 294 236.0 270.0Q271 246 317 215ZM1477 295 1535 311 1517 341 1450 368ZM720 159Q719 185 717.0 210.5Q715 236 713 261Q676 283 631.5 305.0Q587 327 544.0 344.0Q501 361 467 367Q481 349 511.5 322.0Q542 295 579.5 265.0Q617 235 654.5 207.0Q692 179 720 159ZM1555 317 1566 321 1552 326Q1552 324 1553.0 321.5Q1554 319 1555 317ZM726 31Q725 57 724.0 82.5Q723 108 721 132Q691 150 649.5 173.5Q608 197 563.0 219.5Q518 242 477.0 258.5Q436 275 409 280Q419 265 447.0 240.5Q475 216 513.0 186.5Q551 157 591.0 127.5Q631 98 667.0 73.0Q703 48 726 31ZM727 -38Q727 -27 727.0 -15.5Q727 -4 726 6Q704 20 668.5 40.5Q633 61 590.5 84.0Q548 107 505.0 128.0Q462 149 424.5 165.0Q387 181 362 187Q419 150 482.5 110.0Q546 70 609.0 32.0Q672 -6 727 -38Z" />
  </g>
</svg>