<svg xmlns="http://www.w3.org/2000/svg" viewBox="100 -112 1639 848">
  <g transform="translate(0, 624) scale(1, -1)">
    <path fill="black" d="M728 -112V-71Q643 -30 544.0 12.0Q445 54 355 89L349 -15H330Q330 5 329.0 35.0Q328 65 326 100Q240 134 178.0 156.0Q116 178 100 179Q122 205 139.5 241.0Q157 277 169 308Q157 340 139.5 376.0Q122 412 100 437Q112 438 150.5 451.0Q189 464 246.5 485.5Q304 507 372.5 534.0Q441 561 513.0 592.0Q585 623 653 654Q648 676 643.0 696.5Q638 717 633 736Q684 724 738 724Q792 724 849 736Q837 693 825 640Q852 634 911.5 627.0Q971 620 1050.5 612.0Q1130 604 1219.5 597.0Q1309 590 1397.0 585.0Q1485 580 1560 578Q1551 623 1541.5 662.5Q1532 702 1523 736Q1574 724 1628 724Q1682 724 1739 736Q1716 653 1694.0 533.5Q1672 414 1658.0 254.0Q1644 94 1644 -112H1618Q1618 -22 1615 60Q1570 60 1507.0 57.0Q1444 54 1371.5 49.5Q1299 45 1224.0 39.0Q1149 33 1079.0 27.0Q1009 21 951.5 14.5Q894 8 856.5 2.5Q819 -3 809 -7Q812 12 814.5 34.0Q817 56 817 79Q817 117 809 152Q820 147 865.5 140.5Q911 134 980.5 126.5Q1050 119 1132.5 111.5Q1215 104 1302.0 98.0Q1389 92 1469.5 88.5Q1550 85 1614 85Q1608 227 1595.0 343.0Q1582 459 1565 550Q1505 548 1429.0 544.0Q1353 540 1271.5 534.0Q1190 528 1112.5 521.5Q1035 515 970.0 508.0Q905 501 862.5 495.0Q820 489 809 485Q812 504 814.5 528.0Q817 552 817 576Q817 581 816.5 586.5Q816 592 816 597Q792 480 774.5 319.5Q757 159 754 -53L822 -90L810 -111Q797 -104 783.0 -97.0Q769 -90 754 -83V-112ZM364 203Q378 220 388.5 237.5Q399 255 409 280Q441 324 465.5 366.5Q490 409 518 458Q533 437 565.0 408.0Q597 379 636.5 349.0Q676 319 710 293L699 393Q655 416 608.5 433.5Q562 451 519 458Q539 479 551.0 498.5Q563 518 576 548Q593 523 626.0 493.0Q659 463 693 434Q686 486 678.0 532.5Q670 579 661 619Q601 583 535.0 542.0Q469 501 406.5 460.5Q344 420 294 386Q314 382 335 382Q359 382 392 388Q383 366 376.0 314.5Q369 263 364 203ZM1322 115Q1311 141 1298.5 155.0Q1286 169 1269 188Q1293 192 1325.5 207.0Q1358 222 1393.5 243.0Q1429 264 1462.5 285.5Q1496 307 1521 323Q1496 340 1461.5 362.5Q1427 385 1390.5 406.5Q1354 428 1321 442Q1314 427 1306.5 394.0Q1299 361 1292.0 321.5Q1285 282 1280.5 247.5Q1276 213 1276 195H1263Q1263 199 1262.5 203.5Q1262 208 1262 213Q1161 203 1081.5 194.5Q1002 186 946 163Q952 192 952 216Q952 242 946 275Q993 256 1078.0 245.0Q1163 234 1260 229Q1257 260 1250.0 300.5Q1243 341 1235 376Q1146 369 1071.5 359.5Q997 350 946 330Q952 359 952 383Q952 406 946 442Q988 424 1065.0 413.5Q1142 403 1230 398Q1226 415 1222.0 427.0Q1218 439 1214 446Q1227 444 1241.0 443.0Q1255 442 1268 442Q1280 442 1291.5 442.5Q1303 443 1314 444Q1301 449 1290.0 453.5Q1279 458 1269 459Q1286 478 1298.5 492.0Q1311 506 1322 532Q1334 514 1362.5 486.5Q1391 459 1426.0 428.0Q1461 397 1493.0 371.0Q1525 345 1544 330L1540 323L1544 317Q1525 302 1493.0 276.0Q1461 250 1426.0 219.0Q1391 188 1362.5 160.5Q1334 133 1322 115ZM317 215Q312 267 305.0 312.0Q298 357 288 382Q252 358 225.0 338.5Q198 319 184 308Q201 294 236.0 270.0Q271 246 317 215ZM720 159Q719 185 717.0 210.5Q715 236 713 261Q676 283 631.5 305.0Q587 327 544.0 344.0Q501 361 467 367Q481 349 511.5 322.0Q542 295 579.5 265.0Q617 235 654.5 207.0Q692 179 720 159ZM726 31Q725 57 724.0 82.5Q723 108 721 132Q691 150 649.5 173.5Q608 197 563.0 219.0Q518 241 477.5 257.5Q437 274 410 279Q421 264 448.5 239.5Q476 215 513.5 186.0Q551 157 591.0 127.5Q631 98 667.0 73.0Q703 48 726 31ZM727 -38Q727 -27 727.0 -15.5Q727 -4 726 6Q704 20 668.5 40.5Q633 61 590.5 84.0Q548 107 505.0 128.0Q462 149 424.5 165.0Q387 181 362 187Q419 150 482.5 110.0Q546 70 609.0 32.0Q672 -6 727 -38Z" />
  </g>
</svg>