<svg xmlns="http://www.w3.org/2000/svg" viewBox="100 -112 1639 848">
  <g transform="translate(0, 624) scale(1, -1)">
    <path fill="black" d="M728 -112V-71Q643 -30 544.0 12.0Q445 54 355 89L349 -15H330Q330 5 329.0 35.0Q328 65 326 100Q240 134 178.0 156.0Q116 178 100 179Q122 205 139.5 241.0Q157 277 169 308Q157 340 139.5 376.0Q122 412 100 437Q112 438 150.5 451.0Q189 464 246.5 485.5Q304 507 372.5 534.0Q441 561 513.0 592.0Q585 623 653 654Q648 676 643.0 696.5Q638 717 633 736Q684 724 738 724Q792 724 849 736Q837 693 825 640Q852 634 911.5 627.0Q971 620 1050.5 612.0Q1130 604 1219.5 597.0Q1309 590 1397.0 585.0Q1485 580 1560 578Q1551 623 1541.5 662.5Q1532 702 1523 736Q1574 724 1628 724Q1682 724 1739 736Q1716 653 1694.0 533.5Q1672 414 1658.0 254.0Q1644 94 1644 -112H1618Q1618 -22 1615 60Q1570 60 1507.0 57.0Q1444 54 1371.5 49.5Q1299 45 1224.0 39.0Q1149 33 1079.0 27.0Q1009 21 951.5 14.5Q894 8 856.5 2.5Q819 -3 809 -7Q812 12 814.5 34.0Q817 56 817 79Q817 117 809 152Q820 147 866.5 140.0Q913 133 983.5 125.5Q1054 118 1138.0 110.5Q1222 103 1309 97Q1286 124 1270.0 136.5Q1254 149 1243 156L1258 159Q1230 181 1197.0 203.5Q1164 226 1132.0 244.5Q1100 263 1076 273Q1108 296 1123 310Q1115 317 1104.0 326.0Q1093 335 1076 347Q1100 357 1132.0 375.5Q1164 394 1197.0 416.5Q1230 439 1258 461L1243 464Q1255 475 1273.0 487.5Q1291 500 1317 532Q1329 512 1353.5 482.5Q1378 453 1408.0 421.5Q1438 390 1468.0 363.0Q1498 336 1520 321L1509 310L1520 299Q1499 284 1471.0 259.0Q1443 234 1414.0 204.5Q1385 175 1360.5 146.5Q1336 118 1322 97Q1402 92 1478.0 88.5Q1554 85 1614 85Q1608 227 1595.0 343.0Q1582 459 1565 550Q1505 548 1429.0 544.0Q1353 540 1271.5 534.0Q1190 528 1112.5 521.5Q1035 515 970.0 508.0Q905 501 862.5 495.0Q820 489 809 485Q812 504 814.5 528.0Q817 552 817 576Q817 581 816.5 586.5Q816 592 816 597Q792 480 774.5 319.5Q757 159 754 -53L822 -90L810 -111Q797 -104 783.0 -97.0Q769 -90 754 -83V-112ZM726 31Q725 57 724.0 82.5Q723 108 721 132Q691 150 649.5 173.5Q608 197 563.0 219.5Q518 242 477.0 258.5Q436 275 409 280Q441 324 465.5 366.5Q490 409 518 458Q533 437 565.0 408.0Q597 379 636.5 349.0Q676 319 710 293L699 393Q655 416 608.5 433.5Q562 451 519 458Q539 479 551.0 498.5Q563 518 576 548Q593 523 626.0 493.0Q659 463 693 434Q686 486 678.0 532.5Q670 579 661 619Q601 583 535.0 542.0Q469 501 406.5 460.5Q344 420 294 386Q314 382 335 382Q359 382 392 388Q383 366 376.0 314.5Q369 263 364 203Q378 220 388.5 237.0Q399 254 409 279Q419 264 447.0 239.5Q475 215 513.0 186.0Q551 157 591.0 127.5Q631 98 667.0 73.0Q703 48 726 31ZM1411 381Q1380 404 1347.5 424.5Q1315 445 1278 456Q1265 443 1251.0 428.5Q1237 414 1223 398Q1235 394 1253.0 391.5Q1271 389 1293 387L1288 413Q1295 411 1303.0 410.0Q1311 409 1318 409Q1335 409 1348 413Q1347 409 1345.5 401.0Q1344 393 1342 383Q1359 382 1376.5 381.5Q1394 381 1411 381ZM1222 222Q1225 233 1225 241Q1225 250 1222 265Q1225 277 1225 286Q1225 295 1222 310Q1252 301 1306 296L1302 322Q1279 320 1259.0 317.5Q1239 315 1222 310Q1225 322 1225 331Q1225 340 1222 355Q1225 366 1225 375Q1225 385 1222 398Q1204 378 1187.5 355.5Q1171 333 1158 310Q1171 286 1187.5 264.0Q1204 242 1222 222ZM317 215Q312 267 305.0 312.0Q298 357 288 382Q252 358 225.0 338.5Q198 319 184 308Q201 294 236.0 270.0Q271 246 317 215ZM1415 241Q1437 258 1458.0 276.0Q1479 294 1500 310Q1479 326 1458.0 343.5Q1437 361 1415 378V374L1340 370Q1339 363 1338.0 355.0Q1337 347 1336 339Q1374 336 1415 336V330L1334 325L1331 294Q1351 293 1372.0 292.0Q1393 291 1415 291V285L1330 280L1327 250Q1348 249 1370.5 248.5Q1393 248 1415 247ZM720 159Q719 185 717.0 210.5Q715 236 713 261Q676 283 631.5 305.0Q587 327 544.0 344.0Q501 361 467 367Q481 349 511.5 322.0Q542 295 579.5 265.0Q617 235 654.5 207.0Q692 179 720 159ZM1300 342 1297 366Q1276 364 1257.5 361.5Q1239 359 1224 354Q1238 350 1257.5 347.0Q1277 344 1300 342ZM1310 252 1307 278Q1283 276 1261.5 273.0Q1240 270 1223 265Q1238 261 1260.5 257.5Q1283 254 1310 252ZM1278 164Q1316 175 1349.5 195.5Q1383 216 1414 241L1326 235Q1326 229 1325.5 223.5Q1325 218 1325 213H1313L1311 234Q1286 232 1263.5 229.0Q1241 226 1223 221Q1237 206 1251.0 191.5Q1265 177 1278 164ZM727 -38Q727 -27 727.0 -15.5Q727 -4 726 6Q704 20 668.5 40.5Q633 61 590.5 84.0Q548 107 505.0 128.0Q462 149 424.5 165.0Q387 181 362 187Q419 150 482.5 110.0Q546 70 609.0 32.0Q672 -6 727 -38Z" />
  </g>
</svg>