<svg xmlns="http://www.w3.org/2000/svg" viewBox="100 -112 1669 848">
  <g transform="translate(0, 624) scale(1, -1)">
    <path fill="black" d="M728 -112V-71Q643 -30 544.0 12.0Q445 54 355 89L349 -15H330Q330 5 329.0 35.0Q328 65 326 100Q240 134 178.0 156.0Q116 178 100 179Q122 205 139.5 241.0Q157 277 169 308Q157 340 139.5 376.0Q122 412 100 437Q112 438 150.5 451.0Q189 464 246.5 485.5Q304 507 372.5 534.0Q441 561 513.0 592.0Q585 623 653 654Q648 676 643.0 696.5Q638 717 633 736Q684 724 738 724Q792 724 849 736Q837 693 825 640Q848 635 896.0 628.5Q944 622 1009.5 615.5Q1075 609 1150.0 602.5Q1225 596 1303.0 590.5Q1381 585 1454.5 581.5Q1528 578 1590 577Q1581 623 1571.5 662.5Q1562 702 1553 736Q1604 724 1658 724Q1712 724 1769 736Q1750 666 1731.0 572.5Q1712 479 1698 357L1736 339L1731 326L1697 342Q1696 330 1694.5 317.5Q1693 305 1692 293L1741 270L1736 258L1690 279L1686 227L1748 199L1742 186L1685 212L1682 162Q1702 152 1721.5 142.5Q1741 133 1759 125L1753 111Q1737 119 1719.0 127.5Q1701 136 1681 144Q1677 86 1675.5 22.0Q1674 -42 1674 -112H1648Q1648 -22 1645 60Q1598 60 1532.5 57.0Q1467 54 1391.5 49.0Q1316 44 1238.5 38.5Q1161 33 1088.5 26.5Q1016 20 956.5 14.0Q897 8 858.0 2.5Q819 -3 809 -7Q812 12 814.5 34.0Q817 56 817 79Q817 117 809 152Q821 147 875.0 140.0Q929 133 1009.5 125.0Q1090 117 1183 109Q1156 128 1116.5 154.5Q1077 181 1032.5 210.0Q988 239 944.0 266.5Q900 294 862.0 314.5Q824 335 798 344Q809 356 818.5 370.0Q828 384 834 400Q848 382 879.0 355.0Q910 328 950.0 296.5Q990 265 1032.5 233.0Q1075 201 1114.5 173.0Q1154 145 1183 125Q1176 146 1162 168Q1168 169 1174.5 170.0Q1181 171 1188 172L1185 180Q1152 203 1108.5 233.0Q1065 263 1018.5 292.5Q972 322 928.5 345.5Q885 369 853 380Q875 407 888 437Q892 433 896.5 427.5Q901 422 906 417Q929 442 943 474Q966 446 1003.5 413.0Q1041 380 1085.0 347.0Q1129 314 1171 284L1161 302Q1196 308 1242.0 322.5Q1288 337 1338.0 356.5Q1388 376 1433 397Q1441 414 1448 437L1424 442L1427 447Q1362 417 1296.5 382.5Q1231 348 1185 308Q1183 316 1180.0 324.5Q1177 333 1174 340Q1150 357 1115.0 378.5Q1080 400 1039.5 421.0Q999 442 960 455Q971 468 979.5 481.5Q988 495 995 511Q922 504 871.0 497.0Q820 490 809 485Q812 504 814.5 528.0Q817 552 817 576Q817 581 816.5 586.5Q816 592 816 597Q792 480 774.5 319.5Q757 159 754 -53L822 -90L810 -111Q797 -104 783.0 -97.0Q769 -90 754 -83V-112ZM364 203Q378 220 388.5 237.5Q399 255 409 280Q427 300 439.0 319.5Q451 339 464 367Q463 367 462.5 367.5Q462 368 461 368Q481 389 493.0 408.5Q505 428 518 458Q533 437 565.0 408.0Q597 379 636.5 349.0Q676 319 710 293L699 393Q655 416 608.5 433.5Q562 451 519 458Q539 479 551.0 498.5Q563 518 576 548Q593 523 626.0 493.0Q659 463 693 434Q686 486 678.0 532.5Q670 579 661 619Q601 583 535.0 542.0Q469 501 406.5 460.5Q344 420 294 386Q314 382 335 382Q359 382 392 388Q383 366 376.0 314.5Q369 263 364 203ZM1160 368Q1184 368 1217.0 378.5Q1250 389 1287.5 405.5Q1325 422 1363.5 438.5Q1402 455 1436 467Q1440 476 1443.5 485.5Q1447 495 1450 505Q1482 477 1526.5 449.5Q1571 422 1618 397Q1613 439 1607.0 477.5Q1601 516 1595 551Q1539 550 1465.0 546.0Q1391 542 1309.0 536.5Q1227 531 1146.5 524.5Q1066 518 997 511Q1017 488 1045.5 461.5Q1074 435 1104.5 410.5Q1135 386 1160 368ZM1627 325 1621 375Q1575 395 1530.5 411.5Q1486 428 1451 436Q1483 408 1530.0 379.5Q1577 351 1627 325ZM1178 203Q1174 211 1170.0 219.5Q1166 228 1161 235Q1167 236 1173.5 237.0Q1180 238 1187 239L1181 260Q1138 290 1091.0 320.5Q1044 351 997.0 376.5Q950 402 907 416Q930 393 963.0 365.5Q996 338 1034.0 308.5Q1072 279 1109.5 252.0Q1147 225 1178 203ZM317 215Q312 267 305.0 312.0Q298 357 288 382Q252 358 225.0 338.5Q198 319 184 308Q201 294 236.0 270.0Q271 246 317 215ZM1188 239Q1240 251 1305.5 276.0Q1371 301 1432 329Q1437 339 1441.0 349.0Q1445 359 1449 369Q1442 371 1435.0 372.5Q1428 374 1422 375Q1358 346 1295.5 312.0Q1233 278 1188 239ZM1633 253 1629 305Q1581 325 1534.0 342.5Q1487 360 1450 369Q1483 340 1532.0 310.0Q1581 280 1633 253ZM720 159Q719 185 717.0 210.5Q715 236 713 261Q676 283 631.5 305.0Q587 327 544.0 344.0Q501 361 467 367Q481 349 511.5 322.0Q542 295 579.5 265.0Q617 235 654.5 207.0Q692 179 720 159ZM1189 172Q1240 183 1304.5 207.5Q1369 232 1429 258Q1434 269 1438.0 280.0Q1442 291 1446 302L1422 308Q1359 279 1296.0 245.0Q1233 211 1189 172ZM1638 183 1635 234Q1584 256 1534.5 274.5Q1485 293 1447 302Q1479 273 1531.0 242.0Q1583 211 1638 183ZM726 31Q725 57 724.0 82.5Q723 108 721 132Q691 150 649.5 173.5Q608 197 563.0 219.0Q518 241 477.0 257.5Q436 274 409 279Q419 264 447.0 239.5Q475 215 513.0 186.0Q551 157 591.0 127.5Q631 98 667.0 73.0Q703 48 726 31ZM1644 85 1640 162Q1579 188 1518.0 210.5Q1457 233 1418 239Q1357 211 1297.0 178.0Q1237 145 1193 108Q1273 102 1354.5 97.0Q1436 92 1510.5 89.0Q1585 86 1644 85ZM727 -38Q727 -27 727.0 -15.5Q727 -4 726 6Q704 20 668.5 40.5Q633 61 590.5 84.0Q548 107 505.0 128.0Q462 149 424.5 165.0Q387 181 362 187Q419 150 482.5 110.0Q546 70 609.0 32.0Q672 -6 727 -38Z" />
  </g>
</svg>