<svg xmlns="http://www.w3.org/2000/svg" viewBox="100 -112 1669 848">
  <g transform="translate(0, 624) scale(1, -1)">
    <path fill="black" d="M728 -112V-71Q643 -30 544.0 12.0Q445 54 355 89L349 -15H330Q330 5 329.0 35.0Q328 65 326 100Q240 134 178.0 156.0Q116 178 100 179Q122 205 139.5 241.0Q157 277 169 308Q157 340 139.5 376.0Q122 412 100 437Q112 438 150.5 451.0Q189 464 246.5 485.5Q304 507 372.5 534.0Q441 561 513.0 592.0Q585 623 653 654Q648 676 643.0 696.5Q638 717 633 736Q684 724 738 724Q792 724 849 736Q837 693 825 640Q836 638 851.5 635.0Q867 632 888 629Q905 640 919.0 653.0Q933 666 949 685Q953 672 961.5 655.5Q970 639 982 619Q1047 612 1124.5 605.5Q1202 599 1284.5 593.5Q1367 588 1445.5 584.0Q1524 580 1590 578Q1581 623 1571.5 662.5Q1562 702 1553 736Q1604 724 1658 724Q1712 724 1769 736Q1746 653 1724.0 533.5Q1702 414 1688.0 254.0Q1674 94 1674 -112H1648Q1648 -22 1645 60Q1601 60 1538.5 57.0Q1476 54 1403.0 50.0Q1330 46 1254.0 40.0Q1178 34 1107 28Q1079 2 1055.0 -21.5Q1031 -45 1019 -57L1006 -48Q1017 -36 1033.0 -16.5Q1049 3 1067 25Q1001 19 946.0 13.0Q891 7 855.0 1.5Q819 -4 809 -7Q812 12 814.5 34.0Q817 56 817 79Q817 117 809 152Q815 149 834.5 145.5Q854 142 882 138Q904 165 934.0 204.5Q964 244 994.0 287.0Q1024 330 1048.0 369.5Q1072 409 1082 436Q1066 453 1046.5 472.5Q1027 492 1006 511Q929 504 875.0 497.0Q821 490 809 485Q812 504 814.5 528.0Q817 552 817 576Q817 581 816.5 586.5Q816 592 816 597Q792 480 774.5 319.5Q757 159 754 -53L822 -90L810 -111Q797 -104 783.0 -97.0Q769 -90 754 -83V-112ZM364 203Q378 220 388.5 237.5Q399 255 409 280Q427 300 439.0 319.5Q451 339 464 367Q463 367 462.5 367.5Q462 368 461 368Q481 389 493.0 408.5Q505 428 518 458Q533 437 565.0 408.0Q597 379 636.5 349.0Q676 319 710 293L699 393Q655 416 608.5 433.5Q562 451 519 458Q539 479 551.0 498.5Q563 518 576 548Q593 523 626.0 493.0Q659 463 693 434Q686 486 678.0 532.5Q670 579 661 619Q601 583 535.0 542.0Q469 501 406.5 460.5Q344 420 294 386Q314 382 335 382Q359 382 392 388Q383 366 376.0 314.5Q369 263 364 203ZM1153 389Q1156 404 1156 420Q1156 434 1154.0 448.0Q1152 462 1149 475Q1168 470 1191.5 466.0Q1215 462 1243 458Q1242 466 1240.5 472.0Q1239 478 1237 480Q1246 479 1254.0 478.5Q1262 478 1269 478Q1277 478 1284.0 478.5Q1291 479 1298 480Q1293 474 1290 453Q1295 452 1300.5 451.5Q1306 451 1311 451Q1309 462 1307.0 469.5Q1305 477 1303 480Q1312 479 1320.0 478.5Q1328 478 1335 478Q1343 478 1350.0 478.5Q1357 479 1364 480Q1362 476 1359.5 467.5Q1357 459 1355 447Q1360 447 1366.0 447.0Q1372 447 1377 446Q1374 474 1369 480Q1378 479 1386.0 478.5Q1394 478 1401 478Q1409 478 1416.0 478.5Q1423 479 1430 480Q1427 476 1424.5 466.5Q1422 457 1420 444Q1426 443 1432.0 443.0Q1438 443 1444 443Q1442 457 1439.5 466.5Q1437 476 1435 480Q1444 479 1452.0 478.5Q1460 478 1467 478Q1475 478 1482.0 478.5Q1489 479 1496 480Q1493 476 1490.5 466.0Q1488 456 1486 442L1536 440Q1532 469 1526.5 492.0Q1521 515 1515 530Q1542 524 1566 524Q1574 524 1582.0 524.5Q1590 525 1599 526Q1598 533 1597.0 539.0Q1596 545 1595 551Q1543 550 1476.5 546.0Q1410 542 1336.5 537.5Q1263 533 1190.0 527.0Q1117 521 1051 515Q1071 487 1090.0 461.5Q1109 436 1122 419L1116 414Q1125 407 1134.5 400.5Q1144 394 1153 389ZM1603 440H1613Q1612 448 1610.5 457.0Q1609 466 1608 474Q1607 467 1605.5 458.0Q1604 449 1603 440ZM1587 267H1632Q1628 308 1624.5 346.0Q1621 384 1616 419H1600Q1596 384 1592.5 344.5Q1589 305 1587 267ZM1553 267Q1548 345 1539 418L1483 416Q1479 380 1476.0 339.0Q1473 298 1470 269ZM1458 270Q1456 297 1453.5 338.0Q1451 379 1447 414Q1439 414 1431.5 413.5Q1424 413 1416 412Q1412 378 1409.0 338.5Q1406 299 1404 272Q1417 271 1430.5 270.5Q1444 270 1458 270ZM1392 272Q1390 298 1387.5 337.0Q1385 376 1382 410L1350 407Q1346 374 1343.0 338.0Q1340 302 1338 276ZM1325 277 1316 403 1283 399Q1280 369 1277.5 337.5Q1275 306 1273 281ZM1168 161Q1188 191 1197 211Q1184 209 1172.0 206.0Q1160 203 1149 201Q1152 212 1154.0 224.5Q1156 237 1156 250Q1156 263 1154.0 276.0Q1152 289 1149 302Q1170 297 1197.5 292.0Q1225 287 1259 283Q1258 306 1256.0 336.0Q1254 366 1251 394Q1202 387 1159 376Q1140 365 1112.0 339.5Q1084 314 1052 283Q1070 258 1104.0 223.5Q1138 189 1168 161ZM317 215Q312 267 305.0 312.0Q298 357 288 382Q252 358 225.0 338.5Q198 319 184 308Q201 294 236.0 270.0Q271 246 317 215ZM720 159Q719 185 717.0 210.5Q715 236 713 261Q676 283 631.5 305.0Q587 327 544.0 344.0Q501 361 467 367Q481 349 511.5 322.0Q542 295 579.5 265.0Q617 235 654.5 207.0Q692 179 720 159ZM726 31 721 132Q691 150 649.5 173.5Q608 197 563.0 219.0Q518 241 477.5 257.5Q437 274 410 279Q421 264 448.5 239.5Q476 215 513.0 186.0Q550 157 590.0 128.0Q630 99 666.0 73.5Q702 48 726 31ZM1644 85Q1642 128 1639.5 168.0Q1637 208 1634 246H1585L1578 127H1559Q1559 147 1558.0 178.0Q1557 209 1555 245Q1434 243 1353.5 234.0Q1273 225 1214 214Q1229 201 1246.5 190.5Q1264 180 1278 173Q1265 166 1242.5 148.5Q1220 131 1194 108Q1274 102 1355.5 96.5Q1437 91 1511.5 88.0Q1586 85 1644 85ZM1135 112Q1141 120 1146.5 128.5Q1152 137 1157 145Q1121 171 1078.0 197.0Q1035 223 1001 233L995 227Q1011 205 1040.0 174.0Q1069 143 1098 115ZM727 -38Q727 -27 727.0 -15.5Q727 -4 726 6Q704 20 668.5 40.5Q633 61 590.5 84.0Q548 107 505.0 128.0Q462 149 424.5 165.0Q387 181 362 187Q419 150 482.5 110.0Q546 70 609.0 32.0Q672 -6 727 -38ZM1050 120Q1022 138 994.0 152.5Q966 167 943 174L906 135Q936 131 972.5 127.5Q1009 124 1050 120Z" />
  </g>
</svg>