<svg xmlns="http://www.w3.org/2000/svg" viewBox="100 -112 1669 848">
  <g transform="translate(0, 624) scale(1, -1)">
    <path fill="black" d="M728 -112V-71Q643 -30 544.0 12.0Q445 54 355 89L349 -15H330Q330 5 329.0 35.0Q328 65 326 100Q240 134 178.0 156.0Q116 178 100 179Q122 205 139.5 241.0Q157 277 169 308Q157 340 139.5 376.0Q122 412 100 437Q112 438 150.5 451.0Q189 464 246.5 485.5Q304 507 372.5 534.0Q441 561 513.0 592.0Q585 623 653 654Q648 676 643.0 696.5Q638 717 633 736Q684 724 738 724Q792 724 849 736Q837 693 825 640Q853 634 915.5 626.5Q978 619 1062.0 611.0Q1146 603 1239.5 596.0Q1333 589 1424.0 584.5Q1515 580 1590 578Q1581 623 1571.5 662.5Q1562 702 1553 736Q1604 724 1658 724Q1712 724 1769 736Q1746 653 1724.0 533.5Q1702 414 1688.0 254.0Q1674 94 1674 -112H1648Q1648 -22 1645 60Q1600 60 1535.5 57.0Q1471 54 1395.5 49.5Q1320 45 1242.0 39.0Q1164 33 1091.0 27.0Q1018 21 957.5 14.5Q897 8 858.0 2.5Q819 -3 809 -7Q812 12 814.5 34.0Q817 56 817 79Q817 117 809 152Q820 147 868.0 140.5Q916 134 988.0 126.5Q1060 119 1147.0 111.5Q1234 104 1324.0 98.0Q1414 92 1497.0 88.5Q1580 85 1644 85Q1638 228 1625.0 343.5Q1612 459 1595 551Q1535 549 1457.0 545.0Q1379 541 1294.5 535.0Q1210 529 1128.5 522.0Q1047 515 978.5 508.0Q910 501 865.0 495.0Q820 489 809 485Q812 504 814.5 528.0Q817 552 817 576Q817 581 816.5 586.5Q816 592 816 597Q792 480 774.5 319.5Q757 159 754 -53L822 -90L810 -111Q797 -104 783.0 -97.0Q769 -90 754 -83V-112ZM364 203Q378 220 388.5 237.5Q399 255 409 280Q427 300 439.0 319.5Q451 339 464 367L461 368Q481 389 493.0 408.5Q505 428 518 458Q533 437 565.0 408.0Q597 379 636.5 349.0Q676 319 710 293L699 393Q655 416 608.5 433.5Q562 451 519 458Q539 479 551.0 498.5Q563 518 576 548Q593 523 626.0 493.0Q659 463 693 434Q686 486 678.0 532.5Q670 579 661 619Q601 583 535.0 542.0Q469 501 406.5 460.5Q344 420 294 386Q314 382 335 382Q359 382 392 388Q383 366 376.0 314.5Q369 263 364 203ZM1538 112Q1538 128 1538.0 145.5Q1538 163 1537 182Q1435 193 1373.0 198.5Q1311 204 1267 204Q1238 204 1212.0 202.5Q1186 201 1158 196Q1173 234 1173 281V295Q1187 288 1201.0 282.5Q1215 277 1232 269Q1230 280 1226.0 290.0Q1222 300 1218 307Q1220 307 1236.5 311.0Q1253 315 1278 322Q1253 330 1237.0 334.0Q1221 338 1218 338Q1222 346 1225.5 354.5Q1229 363 1230 373Q1214 366 1200.5 359.5Q1187 353 1173 348V361Q1173 407 1158 446Q1186 442 1211.5 440.0Q1237 438 1267 438Q1308 438 1363.5 442.5Q1419 447 1506 457Q1504 471 1501.0 483.5Q1498 496 1496 504Q1519 498 1543 498Q1568 498 1593 504Q1588 487 1582.5 451.5Q1577 416 1571.5 371.0Q1566 326 1561.5 278.5Q1557 231 1554.0 187.5Q1551 144 1551 112ZM1166 317Q1132 349 1109.0 368.5Q1086 388 1066 404Q1080 416 1108.0 442.0Q1136 468 1161 499L1170 493Q1154 465 1143.5 443.0Q1133 421 1122 404Q1130 391 1143.0 370.0Q1156 349 1174 326ZM960 317Q926 349 902.5 368.5Q879 388 859 404Q874 416 901.5 442.0Q929 468 954 499L964 493Q949 465 937.5 443.0Q926 421 915 404Q923 391 936.5 370.0Q950 349 969 326ZM1041 340Q1020 358 1008.5 369.0Q997 380 988.5 387.5Q980 395 967 404Q979 414 994.5 426.0Q1010 438 1041 465L1046 460Q1036 444 1029.5 430.5Q1023 417 1016 404Q1029 414 1044.5 426.0Q1060 438 1089 465L1096 460Q1086 444 1079.5 430.5Q1073 417 1065 404Q1073 391 1079.5 376.5Q1086 362 1096 346L1089 340Q1070 358 1058.5 368.5Q1047 379 1038.0 386.5Q1029 394 1016 403Q1023 390 1029.5 376.0Q1036 362 1046 346ZM991 340Q971 358 959.5 369.0Q948 380 939.0 387.5Q930 395 918 404Q930 414 945.5 426.0Q961 438 991 465L997 460Q987 444 980.5 430.5Q974 417 966 404Q974 391 980.5 376.5Q987 362 997 346ZM1328 337Q1374 351 1424.0 367.5Q1474 384 1514 398L1507 441Q1410 423 1348.0 408.0Q1286 393 1245 377Q1257 370 1278.5 360.5Q1300 351 1328 337ZM1531 251Q1527 286 1524.0 321.0Q1521 356 1517 387Q1483 374 1441.5 356.5Q1400 339 1362 322Q1406 303 1452.0 283.5Q1498 264 1531 251ZM317 215Q312 267 305.0 312.0Q298 357 288 382Q252 358 225.0 338.5Q198 319 184 308Q201 294 236.0 270.0Q271 246 317 215ZM720 159Q719 185 717.0 210.5Q715 236 713 261Q676 283 631.5 305.0Q587 327 544.0 344.0Q501 361 467 367Q481 349 511.5 322.0Q542 295 579.5 265.0Q617 235 654.5 207.0Q692 179 720 159ZM1166 138Q1132 170 1109.0 189.5Q1086 209 1066 223Q1080 236 1108.0 262.5Q1136 289 1161 318L1170 313Q1154 285 1143.5 263.5Q1133 242 1122 223Q1130 210 1143.0 190.0Q1156 170 1174 144ZM960 138Q926 170 902.5 189.5Q879 209 859 223Q874 236 901.5 262.5Q929 289 954 318L964 313Q949 285 937.5 263.5Q926 242 915 223Q923 210 936.5 190.0Q950 170 969 144ZM1534 196 1531 242Q1493 256 1436.5 274.0Q1380 292 1330 307L1242 266Q1286 250 1354.0 232.5Q1422 215 1534 196ZM1041 159Q1020 178 1008.5 189.0Q997 200 988.5 207.5Q980 215 967 223Q979 234 994.5 246.0Q1010 258 1041 284L1046 281Q1036 265 1029.5 251.0Q1023 237 1016 223Q1029 234 1044.5 246.0Q1060 258 1089 284L1096 281Q1086 265 1079.5 251.0Q1073 237 1065 223Q1073 210 1079.5 196.0Q1086 182 1096 166L1089 159Q1070 178 1058.5 188.5Q1047 199 1038.0 206.5Q1029 214 1016 222Q1023 209 1029.5 195.5Q1036 182 1046 166ZM991 159Q971 178 959.5 189.0Q948 200 939.0 207.5Q930 215 918 223Q930 234 945.5 246.0Q961 258 991 284L997 281Q987 265 980.5 251.0Q974 237 966 223Q974 210 980.5 196.0Q987 182 997 166ZM726 31Q725 57 724.0 82.5Q723 108 721 132Q691 150 649.5 173.5Q608 197 563.0 219.0Q518 241 477.5 257.5Q437 274 410 279Q421 264 448.5 239.5Q476 215 513.5 186.0Q551 157 591.0 127.5Q631 98 667.0 73.0Q703 48 726 31ZM727 -38Q727 -27 727.0 -15.5Q727 -4 726 6Q704 20 668.5 40.5Q633 61 590.5 84.0Q548 107 505.0 128.0Q462 149 424.5 165.0Q387 181 362 187Q419 150 482.5 110.0Q546 70 609.0 32.0Q672 -6 727 -38Z" />
  </g>
</svg>