<svg xmlns="http://www.w3.org/2000/svg" viewBox="100 -112 1669 848">
  <g transform="translate(0, 624) scale(1, -1)">
    <path fill="black" d="M728 -112V-71Q643 -30 544.0 12.0Q445 54 355 89L349 -15H330Q330 5 329.0 35.0Q328 65 326 100Q240 134 178.0 156.0Q116 178 100 179Q122 205 139.5 241.0Q157 277 169 308Q157 340 139.5 376.0Q122 412 100 437Q112 438 150.5 451.0Q189 464 246.5 485.5Q304 507 372.5 534.0Q441 561 513.0 592.0Q585 623 653 654Q648 676 643.0 696.5Q638 717 633 736Q684 724 738 724Q792 724 849 736Q837 693 825 640Q853 634 915.5 626.5Q978 619 1062.0 611.0Q1146 603 1239.5 596.0Q1333 589 1424.0 584.5Q1515 580 1590 578Q1581 623 1571.5 662.5Q1562 702 1553 736Q1604 724 1658 724Q1712 724 1769 736Q1746 653 1724.0 533.5Q1702 414 1688.0 254.0Q1674 94 1674 -112H1648Q1648 -22 1645 60Q1600 60 1535.5 57.0Q1471 54 1395.5 49.5Q1320 45 1242.0 39.0Q1164 33 1091.0 27.0Q1018 21 957.5 14.5Q897 8 858.0 2.5Q819 -3 809 -7Q812 12 814.5 34.0Q817 56 817 79Q817 117 809 152Q820 147 868.0 140.5Q916 134 988.0 126.5Q1060 119 1147.0 111.5Q1234 104 1324.0 98.0Q1414 92 1497.0 88.5Q1580 85 1644 85Q1638 228 1625.0 343.5Q1612 459 1595 551Q1535 549 1457.0 545.0Q1379 541 1294.5 535.0Q1210 529 1128.5 522.0Q1047 515 978.5 508.0Q910 501 865.0 495.0Q820 489 809 485Q812 504 814.5 528.0Q817 552 817 576Q817 581 816.5 586.5Q816 592 816 597Q792 480 774.5 319.5Q757 159 754 -53L822 -90L810 -111Q797 -104 783.0 -97.0Q769 -90 754 -83V-112ZM364 203Q378 220 388.5 237.5Q399 255 409 280Q427 300 439.0 319.5Q451 339 464 367Q481 389 493.0 408.5Q505 428 518 458Q533 437 565.0 408.0Q597 379 636.5 349.0Q676 319 710 293L699 393Q655 416 608.5 433.5Q562 451 519 458Q539 479 551.0 498.5Q563 518 576 548Q593 523 626.0 493.0Q659 463 693 434Q686 486 678.0 532.5Q670 579 661 619Q601 583 535.0 542.0Q469 501 406.5 460.5Q344 420 294 386Q314 382 335 382Q359 382 392 388Q383 366 376.0 314.5Q369 263 364 203ZM1553 96V135Q1502 135 1466.5 131.5Q1431 128 1403.0 121.5Q1375 115 1345 106Q1347 114 1347.5 123.0Q1348 132 1348 140Q1323 157 1303.5 171.5Q1284 186 1268 196Q1240 192 1218.0 187.0Q1196 182 1173 175Q1174 183 1175.0 191.0Q1176 199 1176 206Q1176 216 1175.0 223.5Q1174 231 1173 241Q1173 242 1164.0 245.5Q1155 249 1141 256Q1155 265 1165 279Q1105 279 1069.5 275.5Q1034 272 1009.5 265.5Q985 259 957 250Q959 259 959.0 267.5Q959 276 959 284Q959 292 959.0 300.5Q959 309 957 319Q981 313 1006.5 306.0Q1032 299 1070.5 294.5Q1109 290 1171 289Q1173 294 1176.5 299.5Q1180 305 1181 310Q1197 289 1214.5 268.5Q1232 248 1263 220Q1287 217 1318.0 214.5Q1349 212 1389 212V201Q1358 201 1334.0 200.0Q1310 199 1289 198Q1302 188 1316.0 177.0Q1330 166 1348 153Q1348 158 1347.0 163.5Q1346 169 1345 175Q1383 163 1429.5 154.5Q1476 146 1553 145Q1552 195 1548.5 228.5Q1545 262 1540 287Q1493 287 1460.0 283.0Q1427 279 1400.0 273.5Q1373 268 1345 260L1348 295Q1293 335 1258.0 356.5Q1223 378 1197.0 389.5Q1171 401 1141 410L1162 433Q1105 431 1070.0 426.5Q1035 422 1009.5 416.5Q984 411 957 404Q959 412 959.0 422.0Q959 432 959 454Q951 416 943.5 349.0Q936 282 936 199H920Q920 309 911.5 379.5Q903 450 889 495Q897 494 907.0 493.0Q917 492 925 492Q933 492 946.5 493.0Q960 494 969 495Q968 489 966.0 482.5Q964 476 963 468Q985 462 1010.5 456.5Q1036 451 1074.0 447.0Q1112 443 1170 442L1181 465Q1197 445 1216.0 424.0Q1235 403 1265.5 376.0Q1296 349 1348 310Q1347 315 1346.5 318.5Q1346 322 1345 325Q1381 316 1424.5 308.0Q1468 300 1538 299Q1536 312 1530.5 328.5Q1525 345 1521 360Q1529 359 1539.5 357.5Q1550 356 1558 356Q1566 356 1580.0 357.5Q1594 359 1602 360Q1596 333 1589.0 299.5Q1582 266 1576.5 217.5Q1571 169 1571 96ZM317 215Q312 267 305.0 312.0Q298 357 288 382Q252 358 225.0 338.5Q198 319 184 308Q201 294 236.0 270.0Q271 246 317 215ZM720 159Q719 185 717.0 210.5Q715 236 713 261Q676 283 631.5 305.0Q587 327 544.0 344.0Q501 361 467 367Q481 349 511.5 322.0Q542 295 579.5 265.0Q617 235 654.5 207.0Q692 179 720 159ZM726 31Q725 57 724.0 82.5Q723 108 721 132Q691 150 649.5 173.5Q608 197 563.0 219.0Q518 241 477.5 257.5Q437 274 410 279Q421 264 448.5 239.5Q476 215 513.5 186.0Q551 157 591.0 127.5Q631 98 667.0 73.0Q703 48 726 31ZM727 -38Q727 -27 727.0 -15.5Q727 -4 726 6Q704 20 668.5 40.5Q633 61 590.5 84.0Q548 107 505.0 128.0Q462 149 424.5 165.0Q387 181 362 187Q419 150 482.5 110.0Q546 70 609.0 32.0Q672 -6 727 -38Z" />
  </g>
</svg>