<svg xmlns="http://www.w3.org/2000/svg" viewBox="100 -296 1735 1094">
  <g transform="translate(0, 502) scale(1, -1)">
    <path fill="black" d="M840 559Q831 570 817.5 583.5Q804 597 769 622Q803 636 843.5 666.5Q884 697 923.5 733.0Q963 769 994 798L1005 786Q984 761 951.0 724.5Q918 688 887.5 645.5Q857 603 840 559ZM916 494Q907 505 893.5 518.5Q880 532 845 557Q879 571 919.5 601.5Q960 632 999.5 668.0Q1039 704 1070 733L1081 721Q1060 696 1027.0 659.5Q994 623 963.5 580.5Q933 538 916 494ZM697 -231Q666 -201 626.5 -165.5Q587 -130 546.5 -99.5Q506 -69 472 -55Q506 -30 519 -15Q361 -25 261.0 -39.5Q161 -54 100 -71Q112 -11 112 43Q112 97 100 146L106 144Q133 197 160.5 256.0Q188 315 210.5 369.5Q233 424 248.0 466.0Q263 508 266 526Q294 504 321.0 487.5Q348 471 375 459Q383 464 391.0 469.5Q399 475 408 481Q409 462 421.0 419.5Q433 377 451.0 322.0Q469 267 490.5 209.5Q512 152 532 102Q551 147 572.5 199.0Q594 251 614.5 303.0Q635 355 651.5 402.0Q668 449 678 483Q636 503 598.5 518.5Q561 534 529 544Q606 615 648 725Q703 662 815.5 558.5Q928 455 1093 329Q1110 341 1126.5 353.5Q1143 366 1156 376L1164 368L1112 314Q1201 247 1303.0 177.0Q1405 107 1520 35V8Q1333 8 1177.5 6.0Q1022 4 892 1Q888 -29 885.0 -55.0Q882 -81 880 -93H869Q868 -82 865.5 -56.5Q863 -31 860 0Q843 0 826.5 -1.0Q810 -2 793 -2Q790 -32 787.0 -56.5Q784 -81 782 -93H772L763 -3L696 -6Q693 -34 690.0 -58.0Q687 -82 685 -93H675Q674 -82 671.5 -58.5Q669 -35 666 -7L547 -13Q566 -53 596.5 -92.0Q627 -131 657.5 -163.5Q688 -196 708 -219ZM1468 35Q1359 100 1260.0 159.0Q1161 218 1073 270Q1040 233 1032 216Q1039 204 1061.5 177.0Q1084 150 1112.5 119.0Q1141 88 1164 64L1156 56Q1131 76 1096.5 100.5Q1062 125 1032.5 145.0Q1003 165 990 171Q1003 176 1014.0 189.5Q1025 203 1031 216Q1026 229 1014.5 241.5Q1003 254 990 261Q997 264 1009.0 272.0Q1021 280 1037 290Q890 376 773 437Q749 406 720.0 361.0Q691 316 659.5 264.5Q628 213 598.5 162.5Q569 112 545 70Q572 67 600.5 64.5Q629 62 660 60Q656 95 650.5 122.0Q645 149 638 156Q651 155 663.0 154.5Q675 154 686 154Q697 154 707.5 154.5Q718 155 728 156Q721 149 715.0 120.5Q709 92 704 56L757 53Q753 91 747.5 120.0Q742 149 735 156Q749 155 760.5 154.5Q772 154 783 154Q794 154 804.5 154.5Q815 155 825 156Q818 148 811.5 118.0Q805 88 800 51L856 48Q852 86 846.0 117.5Q840 149 833 156Q846 155 858.0 154.5Q870 154 881 154Q892 154 902.5 154.5Q913 155 923 156Q915 148 908.5 116.5Q902 85 897 46Q1016 42 1157.5 38.5Q1299 35 1468 35ZM518 72Q496 111 470.5 157.0Q445 203 419.5 248.5Q394 294 370.0 333.0Q346 372 326 398Q290 361 250 310Q274 320 302 337Q303 318 318.5 277.0Q334 236 356.5 185.0Q379 134 402 85Q429 81 458.0 78.0Q487 75 518 72ZM1419 131Q1410 142 1396.5 155.5Q1383 169 1348 194Q1382 208 1422.5 238.5Q1463 269 1502.5 305.0Q1542 341 1573 370L1584 358Q1563 333 1530.0 296.5Q1497 260 1466.5 217.5Q1436 175 1419 131ZM1495 66Q1486 77 1472.5 90.5Q1459 104 1424 129Q1458 143 1498.5 173.5Q1539 204 1578.5 240.0Q1618 276 1649 305L1660 293Q1639 268 1606.0 231.5Q1573 195 1542.5 152.5Q1512 110 1495 66ZM364 91Q327 144 289.5 195.0Q252 246 223 275Q199 244 175.0 209.0Q151 174 128 138Q175 126 232.5 114.0Q290 102 364 91ZM690 171Q692 185 693.5 198.5Q695 212 695 225Q695 238 693.5 250.0Q692 262 690 275Q719 265 746.5 258.0Q774 251 809.5 245.5Q845 240 896.0 235.5Q947 231 1023 225V211Q927 208 865.5 202.5Q804 197 763.5 189.5Q723 182 690 171ZM1827 -137Q1783 -113 1726.5 -85.5Q1670 -58 1614.0 -37.0Q1558 -16 1514 -11Q1546 29 1556.0 49.0Q1566 69 1572 85Q1606 40 1655.5 1.5Q1705 -37 1754.0 -67.5Q1803 -98 1835 -119ZM1724 -225Q1680 -201 1623.5 -173.5Q1567 -146 1511.0 -125.0Q1455 -104 1411 -99Q1443 -59 1453.0 -39.0Q1463 -19 1469 -3Q1503 -48 1552.5 -86.5Q1602 -125 1651.0 -155.5Q1700 -186 1732 -207ZM621 -296Q590 -266 550.5 -230.5Q511 -195 470.5 -164.5Q430 -134 396 -120Q433 -95 445.5 -81.0Q458 -67 467 -57Q484 -101 514.5 -143.5Q545 -186 578.0 -222.5Q611 -259 632 -284Z" />
  </g>
</svg>