<svg xmlns="http://www.w3.org/2000/svg" viewBox="100 -151 1407 885">
  <g transform="translate(0, 583) scale(1, -1)">
    <path fill="black" d="M669 -151Q669 -110 667.0 -65.0Q665 -20 661 23Q547 -7 450.0 -35.5Q353 -64 282.5 -88.5Q212 -113 176 -132Q175 -73 164.5 -20.0Q154 33 131 80Q136 79 141.0 79.0Q146 79 151 79Q149 118 146.0 176.5Q143 235 138.0 300.5Q133 366 127.5 427.5Q122 489 115.0 535.0Q108 581 100 600Q133 594 163 594Q195 594 225 600Q218 581 211.0 545.5Q204 510 199 465Q226 485 245.5 505.0Q265 525 282 548Q291 526 320.0 486.5Q349 447 389.0 397.5Q429 348 472.5 296.5Q516 245 555.5 199.0Q595 153 622 120Q630 121 637.5 122.0Q645 123 652 124Q645 179 638.0 221.0Q631 263 624 283Q648 277 673 277Q697 277 724 283Q748 277 773 277Q798 277 825 283Q849 277 875 277Q900 277 927 283Q922 268 916.0 236.0Q910 204 905 160Q1040 180 1179.5 203.0Q1319 226 1453 248L1370 277V255H1355Q1355 261 1354.5 268.0Q1354 275 1354 282Q1343 287 1331.5 290.5Q1320 294 1308 298Q1270 296 1223.5 291.0Q1177 286 1131.0 279.5Q1085 273 1044.5 266.5Q1004 260 977.0 255.0Q950 250 943 247Q945 258 945.5 277.0Q946 296 946 316Q946 330 945.5 343.5Q945 357 943 365Q952 362 972.0 357.5Q992 353 1018 348Q1019 356 1019.5 364.0Q1020 372 1020 380V392Q829 451 685.5 486.5Q542 522 443 532Q504 619 522 734Q587 685 715.5 616.0Q844 547 1020 466Q1020 481 1017 499Q1026 495 1057.5 490.0Q1089 485 1135.0 480.0Q1181 475 1234.5 472.0Q1288 469 1341 468Q1340 487 1337.5 505.0Q1335 523 1333 541Q1288 540 1236.5 536.5Q1185 533 1138.0 528.5Q1091 524 1058.5 519.5Q1026 515 1017 511Q1020 532 1020 554Q1020 562 1019.5 570.5Q1019 579 1017 587Q1026 584 1056.5 579.0Q1087 574 1131.0 569.0Q1175 564 1227.0 560.5Q1279 557 1331 556Q1328 576 1325.5 594.5Q1323 613 1320 629Q1275 628 1225.5 624.5Q1176 621 1132.0 616.5Q1088 612 1057.0 607.5Q1026 603 1017 600Q1020 621 1020 643Q1020 651 1019.5 659.5Q1019 668 1017 676Q1026 672 1054.5 667.5Q1083 663 1125.0 658.5Q1167 654 1216.5 650.5Q1266 647 1316 645Q1312 668 1308.0 686.5Q1304 705 1300 720Q1334 713 1365 713Q1380 713 1395.0 714.5Q1410 716 1425 720Q1411 673 1399.5 603.5Q1388 534 1381.0 458.0Q1374 382 1371 314Q1404 300 1438.0 286.5Q1472 273 1507 259V231Q1365 199 1207.0 161.5Q1049 124 897 85Q892 28 888.0 -33.5Q884 -95 882 -151H870Q870 -97 866.5 -38.5Q863 20 858 75L794 59Q789 7 786.0 -47.0Q783 -101 781 -151H769Q769 -103 766.5 -51.5Q764 0 759 49L691 31Q687 -15 684.5 -61.0Q682 -107 681 -151ZM437 97 601 117Q570 146 525.5 186.5Q481 227 432.5 271.0Q384 315 337.5 355.0Q291 395 254.5 423.5Q218 452 199 461Q194 416 189.5 365.5Q185 315 181 265Q205 283 223.0 302.0Q241 321 257 343Q267 318 296.0 276.5Q325 235 363.0 188.0Q401 141 437 97ZM1350 380 1343 454Q1304 453 1258.0 450.0Q1212 447 1168.0 443.5Q1124 440 1089 435L1199 386Q1236 384 1274.5 382.0Q1313 380 1350 380ZM1353 321 1351 366 1257 362Q1280 352 1304.0 342.0Q1328 332 1353 321ZM1251 317 1142 353 1053 342Q1097 335 1148.5 328.0Q1200 321 1251 317ZM803 145Q814 147 825.5 148.5Q837 150 849 152Q843 196 837.0 230.0Q831 264 825 281Q820 265 814.0 228.5Q808 192 803 145ZM701 130 750 137Q744 185 737.5 223.0Q731 261 725 280Q719 261 713.0 221.5Q707 182 701 130ZM166 79Q209 79 265.5 82.0Q322 85 390 92Q350 127 310.0 160.0Q270 193 236.0 218.0Q202 243 180 254Z" />
  </g>
</svg>