<svg xmlns="http://www.w3.org/2000/svg" viewBox="100 -112 1188 848">
  <g transform="translate(0, 624) scale(1, -1)">
    <path fill="black" d="M195 -112Q195 93 181.0 253.0Q167 413 145.0 533.0Q123 653 100 736Q151 724 205 724Q259 724 316 736Q293 653 271.0 533.5Q249 414 235.0 254.0Q221 94 221 -112ZM937 11Q830 124 758.5 205.5Q687 287 636 337Q553 326 491.0 313.0Q429 300 377.0 283.5Q325 267 269 244Q274 270 276.5 299.0Q279 328 279 359Q279 388 276.5 418.5Q274 449 269 479Q338 451 424.0 424.0Q510 397 634 383Q701 451 771.0 529.5Q841 608 937 710L953 698Q889 594 842.0 507.0Q795 420 765 361Q791 311 838.5 222.0Q886 133 953 23ZM1104 11Q985 139 908.5 226.0Q832 313 779 361Q828 409 876.0 461.5Q924 514 979.5 575.5Q1035 637 1104 710L1121 698L932 361Q958 311 1005.5 222.0Q1053 133 1121 23ZM1271 11Q1152 139 1075.5 226.0Q999 313 946 361Q995 409 1043.0 461.5Q1091 514 1146.5 575.5Q1202 637 1271 710L1288 698L1099 361Q1125 311 1172.5 222.0Q1220 133 1288 23Z" />
  </g>
</svg>