<svg xmlns="http://www.w3.org/2000/svg" viewBox="100 -228 1118 976">
  <g transform="translate(0, 520) scale(1, -1)">
    <path fill="black" d="M696 -113 669 -105 674 -90Q652 -19 618.5 70.0Q585 159 547 250Q486 245 427.5 239.5Q369 234 316 227Q308 133 303.0 45.5Q298 -42 298 -110H268Q268 -42 264.0 43.0Q260 128 252 219Q205 212 166.0 205.5Q127 199 100 191Q112 242 112 296Q112 350 100 407Q123 401 157.5 394.5Q192 388 236 382Q224 485 208.5 577.5Q193 670 175 736Q226 724 280 724Q334 724 391 736L379 689Q463 704 540 748Q542 705 549.5 641.0Q557 577 570.0 501.5Q583 426 599 346Q652 342 706.0 338.0Q760 334 812 330Q823 375 830.5 414.0Q838 453 839 482Q871 464 894.5 455.0Q918 446 954 440Q938 419 920.5 390.0Q903 361 885 326L1053 318Q1040 438 1023.0 549.0Q1006 660 985 736Q1036 724 1090 724Q1144 724 1201 736Q1189 692 1177.0 626.0Q1165 560 1154.0 480.0Q1143 400 1134 315Q1157 314 1179.0 314.0Q1201 314 1218 314V284Q1200 284 1178.0 284.0Q1156 284 1131 283Q1121 175 1114.5 72.0Q1108 -31 1108 -110H1078Q1078 -30 1072.5 72.0Q1067 174 1057 280Q964 277 857 271Q817 188 775.5 88.0Q734 -12 696 -113ZM503 354Q469 431 434.0 501.5Q399 572 367 628Q347 515 330 371Q371 367 414.0 362.5Q457 358 503 354ZM692 -43Q721 37 748.0 116.5Q775 196 795 268L618 256Q635 174 654.0 97.0Q673 20 692 -43ZM370 -228Q370 -208 364.5 -174.0Q359 -140 350.5 -102.0Q342 -64 333.0 -33.0Q324 -2 316 11Q328 9 342.0 7.5Q356 6 370 6Q370 26 364.5 54.5Q359 83 350.5 113.5Q342 144 333.0 169.5Q324 195 316 208Q330 206 345.0 204.5Q360 203 376 203Q392 203 405.5 204.5Q419 206 435 208Q427 195 418.5 169.5Q410 144 402.5 113.5Q395 83 390.0 54.5Q385 26 385 6Q399 7 410.5 8.0Q422 9 435 11Q427 -2 418.5 -33.0Q410 -64 402.5 -102.0Q395 -140 390.0 -174.0Q385 -208 385 -228ZM494 -228Q494 -208 489.0 -174.0Q484 -140 476.5 -102.0Q469 -64 460.0 -33.0Q451 -2 443 11Q455 9 467.0 7.5Q479 6 494 6Q494 26 488.5 54.5Q483 83 475.5 113.5Q468 144 459.5 169.5Q451 195 443 208Q457 206 470.5 204.5Q484 203 500 203Q515 203 531.0 204.5Q547 206 563 208Q555 195 546.0 169.5Q537 144 528.5 113.5Q520 83 514.5 54.5Q509 26 509 6Q523 7 536.5 8.0Q550 9 563 11Q555 -2 546.0 -33.0Q537 -64 528.5 -102.0Q520 -140 514.5 -174.0Q509 -208 509 -228Z" />
  </g>
</svg>