<svg xmlns="http://www.w3.org/2000/svg" viewBox="100 -144 1110 871">
  <g transform="translate(0, 583) scale(1, -1)">
    <path fill="black" d="M245 -144Q219 -103 191.0 -73.0Q163 -43 130 -18L172 -1Q168 67 163.0 140.0Q158 213 151.5 283.0Q145 353 137.0 414.0Q129 475 120.0 520.0Q111 565 100 587Q120 583 140.5 581.0Q161 579 182 579Q169 585 156.0 591.0Q143 597 130 601Q163 626 191.0 656.0Q219 686 245 727Q266 685 307.5 627.0Q349 569 419.5 492.0Q490 415 598 314L585 301H589V282Q588 282 587.0 281.5Q586 281 585 281L598 269Q490 168 419.5 91.0Q349 14 307.5 -43.5Q266 -101 245 -144ZM1120 -83 1114 -13Q1038 -19 954.5 -25.5Q871 -32 792.5 -40.0Q714 -48 653.0 -58.5Q592 -69 561 -82Q565 -61 567.0 -40.5Q569 -20 569 2Q569 22 567.0 44.0Q565 66 561 89Q575 83 599.5 77.5Q624 72 657 67Q651 105 645.0 155.5Q639 206 632.5 260.0Q626 314 619.5 362.0Q613 410 607.0 445.0Q601 480 595 493Q628 487 669 487Q686 487 702.5 488.0Q719 489 735 493Q730 482 723.5 446.5Q717 411 709.5 361.5Q702 312 695.0 257.5Q688 203 682.0 152.0Q676 101 672 64Q731 56 806.0 48.5Q881 41 960.5 34.5Q1040 28 1111 23Q1107 78 1103.0 141.0Q1099 204 1094 269Q1044 264 992.5 258.5Q941 253 895.0 247.5Q849 242 816.5 236.5Q784 231 773 226Q779 259 779 300Q779 317 778.0 333.5Q777 350 773 366Q783 362 815.0 356.0Q847 350 892.5 344.0Q938 338 989.5 332.0Q1041 326 1091 321Q1086 389 1080.0 453.0Q1074 517 1066 570Q999 565 931.0 558.5Q863 552 802.5 544.5Q742 537 694.5 528.0Q647 519 621 508Q625 529 627.0 549.5Q629 570 629 592Q629 612 627.0 634.0Q625 656 621 679Q643 670 688.0 661.5Q733 653 793.5 645.5Q854 638 922.5 631.5Q991 625 1059 620Q1050 674 1039 702Q1060 698 1080.5 696.0Q1101 694 1123 694Q1143 694 1165.0 696.0Q1187 698 1210 702Q1201 680 1193.0 626.5Q1185 573 1178.0 500.0Q1171 427 1165.5 345.0Q1160 263 1155.5 182.0Q1151 101 1147.5 32.0Q1144 -37 1142 -83ZM202 13Q273 50 364.0 114.5Q455 179 575 279Q531 272 479.5 264.0Q428 256 379.0 247.5Q330 239 293.0 231.0Q256 223 240 216Q246 249 246 290Q246 307 245.0 323.5Q244 340 240 356Q254 350 291.5 342.0Q329 334 379.5 325.5Q430 317 482.0 310.5Q534 304 577 301Q478 384 399.5 442.5Q321 501 257 539Q248 499 240.0 439.0Q232 379 224.5 307.5Q217 236 211.5 160.0Q206 84 202 13Z" />
  </g>
</svg>