<svg xmlns="http://www.w3.org/2000/svg" viewBox="100 -118 1447 876">
  <g transform="translate(0, 640) scale(1, -1)">
    <path fill="black" d="M499 -118Q505 -88 508.5 -59.5Q512 -31 512 -5Q512 21 508.5 47.0Q505 73 499 98Q507 95 516.5 92.5Q526 90 537 87Q496 122 470.0 140.0Q444 158 423 171Q348 163 280.5 147.5Q213 132 165.0 117.0Q117 102 100 94Q102 111 104.0 139.5Q106 168 106 198Q106 223 104.5 246.0Q103 269 100 283Q117 276 161.0 259.5Q205 243 273.0 226.5Q341 210 428 203Q453 220 485.0 246.0Q517 272 567 317Q515 364 482.0 389.0Q449 414 423 431Q348 423 280.5 407.5Q213 392 165.0 377.0Q117 362 100 354Q102 371 104.0 399.5Q106 428 106 458Q106 483 104.5 506.0Q103 529 100 543Q117 536 161.5 519.5Q206 503 274.0 486.5Q342 470 429 463Q451 477 478.0 495.5Q505 514 550 554Q535 551 522.0 548.0Q509 545 499 542Q505 572 508.5 600.5Q512 629 512 655Q512 681 508.5 707.0Q505 733 499 758Q535 746 604.0 733.5Q673 721 765.0 709.5Q857 698 961.5 688.0Q1066 678 1171.5 670.5Q1277 663 1374.0 658.5Q1471 654 1547 654V622Q1469 622 1369.5 619.0Q1270 616 1161.0 610.5Q1052 605 945.0 597.0Q838 589 745.0 580.0Q652 571 585 560Q573 542 559.5 519.5Q546 497 535.0 477.0Q524 457 518 446Q524 435 537.5 412.0Q551 389 567.5 363.5Q584 338 597 320Q584 302 567.5 274.5Q551 247 537.5 222.0Q524 197 518 186Q526 170 544.5 137.5Q563 105 582 78Q639 68 717.5 57.5Q796 47 886.0 37.5Q976 28 1069.5 20.0Q1163 12 1252.0 6.5Q1341 1 1417.0 -2.5Q1493 -6 1547 -6V-38Q1494 -38 1419.0 -40.0Q1344 -42 1256.0 -46.0Q1168 -50 1075.0 -56.0Q982 -62 893.0 -68.5Q804 -75 725.5 -83.0Q647 -91 588.5 -100.0Q530 -109 499 -118ZM1231 50Q1224 163 1217.5 241.0Q1211 319 1204.5 374.0Q1198 429 1190 472Q1164 426 1140.0 390.0Q1116 354 1099 323Q1112 297 1140.0 256.5Q1168 216 1206 165L1188 153Q1122 211 1076.5 248.5Q1031 286 993 316Q947 305 902.0 292.5Q857 280 823.0 268.0Q789 256 773 244Q775 261 776.5 277.5Q778 294 778 311Q717 295 670.0 278.0Q623 261 602 244Q604 263 605.5 281.0Q607 299 607 318Q607 357 600 393Q620 378 670.0 362.0Q720 346 778 335L772 393Q786 382 822.0 370.5Q858 359 904.0 349.0Q950 339 993 333Q1015 351 1047.5 378.0Q1080 405 1115.5 438.5Q1151 472 1182 508Q1178 528 1173.5 548.0Q1169 568 1163 590Q1195 581 1229 581Q1261 581 1300 590Q1288 550 1279.5 504.0Q1271 458 1265.0 397.5Q1259 337 1254.5 252.5Q1250 168 1247 50ZM1523 328Q1496 354 1480.0 369.0Q1464 384 1452.0 394.5Q1440 405 1422 416Q1434 426 1446.5 436.0Q1459 446 1477.0 462.0Q1495 478 1523 504L1534 496Q1521 474 1511.0 455.0Q1501 436 1491 416Q1501 399 1511.0 379.5Q1521 360 1534 338ZM1269 271Q1271 285 1272.5 298.0Q1274 311 1274 324Q1274 338 1272.5 351.5Q1271 365 1269 380Q1310 363 1365.5 350.0Q1421 337 1508 332V318Q1448 312 1407.0 306.5Q1366 301 1334.5 293.0Q1303 285 1269 271ZM1523 147Q1496 173 1480.0 188.0Q1464 203 1452.0 213.5Q1440 224 1422 235Q1434 245 1446.5 255.5Q1459 266 1477.0 281.5Q1495 297 1523 322L1534 314Q1521 292 1511.0 273.0Q1501 254 1491 235Q1501 217 1511.0 198.0Q1521 179 1534 157Z" />
  </g>
</svg>