<svg xmlns="http://www.w3.org/2000/svg" viewBox="100 -118 1447 876">
  <g transform="translate(0, 640) scale(1, -1)">
    <path fill="black" d="M499 -118Q505 -88 508.5 -59.5Q512 -31 512 -5Q512 21 508.5 47.0Q505 73 499 98Q507 95 516.5 92.5Q526 90 537 87Q496 122 470.0 140.0Q444 158 423 171Q348 163 280.5 147.5Q213 132 165.0 117.0Q117 102 100 94Q102 111 104.0 139.5Q106 168 106 198Q106 223 104.5 246.0Q103 269 100 283Q117 276 161.0 259.5Q205 243 273.0 226.5Q341 210 428 203Q453 220 485.0 246.0Q517 272 567 317Q515 364 482.0 389.0Q449 414 423 431Q348 423 280.5 407.5Q213 392 165.0 377.0Q117 362 100 354Q102 371 104.0 399.5Q106 428 106 458Q106 483 104.5 506.0Q103 529 100 543Q117 536 161.5 519.5Q206 503 274.0 486.5Q342 470 429 463Q451 477 478.0 495.5Q505 514 550 554Q535 551 522.0 548.0Q509 545 499 542Q505 572 508.5 600.5Q512 629 512 655Q512 681 508.5 707.0Q505 733 499 758Q535 746 604.0 733.5Q673 721 765.0 709.5Q857 698 961.5 688.0Q1066 678 1171.5 670.5Q1277 663 1374.0 658.5Q1471 654 1547 654V622Q1469 622 1369.5 619.0Q1270 616 1161.0 610.5Q1052 605 945.0 597.0Q838 589 745.0 580.0Q652 571 585 560Q573 542 559.5 519.5Q546 497 535.0 477.0Q524 457 518 446Q524 435 537.5 412.0Q551 389 567.5 363.5Q584 338 597 320Q584 302 567.5 274.5Q551 247 537.5 222.0Q524 197 518 186Q526 170 544.5 137.5Q563 105 582 78Q639 68 717.5 57.5Q796 47 886.0 37.5Q976 28 1069.5 20.0Q1163 12 1252.0 6.5Q1341 1 1417.0 -2.5Q1493 -6 1547 -6V-38Q1494 -38 1419.0 -40.0Q1344 -42 1256.0 -46.0Q1168 -50 1075.0 -56.0Q982 -62 893.0 -68.5Q804 -75 725.5 -83.0Q647 -91 588.5 -100.0Q530 -109 499 -118ZM825 54Q821 121 817.5 174.5Q814 228 809 271Q759 267 724.0 262.0Q689 257 679 252Q681 269 682.0 286.5Q683 304 683 321Q683 338 682.0 354.0Q681 370 679 384Q690 378 722.0 373.0Q754 368 800 363Q793 425 784.0 469.5Q775 514 761 562Q777 559 792.5 557.0Q808 555 824 555Q840 555 857.0 557.0Q874 559 891 562Q889 558 889 558Q920 563 949.5 571.0Q979 579 1002 589Q999 579 999 560Q999 524 1007.0 466.0Q1015 408 1025 345Q1073 341 1122.0 338.0Q1171 335 1217 333Q1200 359 1180.5 387.0Q1161 415 1145.5 437.0Q1130 459 1124 465Q1154 476 1182 495Q1182 486 1190.5 458.0Q1199 430 1211.0 395.5Q1223 361 1234 332L1299 329Q1285 351 1268.5 377.5Q1252 404 1235.5 428.5Q1219 453 1207.0 471.5Q1195 490 1190 495Q1205 500 1219.0 506.5Q1233 513 1246 523Q1247 516 1254.0 494.0Q1261 472 1272.0 442.5Q1283 413 1295.0 382.5Q1307 352 1316 328L1384 324Q1369 347 1349.5 378.5Q1330 410 1310.5 441.5Q1291 473 1276.0 495.5Q1261 518 1255 523Q1271 528 1285.5 534.5Q1300 541 1313 551Q1313 544 1322.5 517.0Q1332 490 1346.0 454.5Q1360 419 1373.5 383.5Q1387 348 1396 324L1470 320Q1460 336 1443.0 362.5Q1426 389 1407.0 419.5Q1388 450 1370.5 478.0Q1353 506 1340.0 526.0Q1327 546 1322 551Q1338 556 1352.0 562.5Q1366 569 1379 579Q1380 573 1388.0 549.5Q1396 526 1409.0 494.0Q1422 462 1435.5 428.0Q1449 394 1460.5 365.0Q1472 336 1478 320V307Q1473 306 1466.5 306.0Q1460 306 1453 306Q1432 250 1423.0 210.5Q1414 171 1411.0 141.0Q1408 111 1405 81Q1371 111 1333.5 132.0Q1296 153 1258 169Q1282 185 1307.0 200.0Q1332 215 1361.5 239.5Q1391 264 1427 305L1279 298Q1255 235 1245.0 181.0Q1235 127 1231 81Q1197 111 1159.5 132.0Q1122 153 1084 169Q1117 191 1155.5 217.0Q1194 243 1243 296L1034 287Q1045 226 1054.5 171.5Q1064 117 1068 83L1054 81Q1044 112 1025.5 167.0Q1007 222 985 284Q949 281 915.0 278.5Q881 276 850 273Q844 184 841 54ZM961 349Q940 408 919.0 459.5Q898 511 884 537Q875 501 868.0 458.5Q861 416 856 357Q881 355 907.0 353.0Q933 351 961 349Z" />
  </g>
</svg>