<svg xmlns="http://www.w3.org/2000/svg" viewBox="100 -492 950 1539">
  <g transform="translate(0, 555) scale(1, -1)">
    <path fill="black" d="M564 -492Q564 -436 560.0 -369.5Q556 -303 549.0 -235.5Q542 -168 532 -109Q491 -75 442.0 -35.0Q393 5 342.0 46.0Q291 87 244.0 123.0Q197 159 159.5 184.0Q122 209 100 217Q135 245 159.5 273.0Q184 301 203 335L210 323Q254 371 300.0 423.0Q346 475 387.5 526.0Q429 577 460.5 620.0Q492 663 506 691Q527 655 556 621Q546 754 520.5 861.0Q495 968 468 1047Q519 1035 573 1035Q627 1035 684 1047Q656 968 630.5 861.0Q605 754 595 621Q624 653 646 691Q660 663 691.0 620.0Q722 577 763.5 527.0Q805 477 851.0 424.5Q897 372 941 324L947 335Q967 301 991.0 273.0Q1015 245 1050 217Q1028 209 990.0 183.5Q952 158 905.0 122.0Q858 86 806.5 45.0Q755 4 706.0 -36.5Q657 -77 616 -111Q607 -170 599.5 -237.5Q592 -305 587.5 -371.0Q583 -437 583 -492ZM274 230Q288 237 321.0 253.0Q354 269 398.0 291.0Q442 313 490.5 337.5Q539 362 584.5 385.0Q630 408 665.5 426.5Q701 445 718 455Q682 483 650.0 507.0Q618 531 592 547Q591 534 591.0 521.5Q591 509 591 496H561Q561 509 560.5 521.5Q560 534 560 547Q519 521 462.5 477.5Q406 434 345.5 384.5Q285 335 230 290Q240 277 250.5 262.0Q261 247 274 230ZM760 388Q769 388 778.5 389.5Q788 391 798 392Q782 405 767.0 417.0Q752 429 737 440Q742 421 759 399Q754 399 733 391Q747 388 760 388ZM773 230Q808 248 835.0 263.5Q862 279 881 292Q883 282 885.0 271.5Q887 261 891 250Q908 272 920 291Q892 315 861.5 340.5Q831 366 799 391Q790 366 783.0 323.0Q776 280 773 230ZM704 196 761 224Q757 277 750.0 319.0Q743 361 730 391L667 368Q681 365 694 365Q702 365 711.0 366.5Q720 368 728 369Q721 344 714.0 296.5Q707 249 704 196ZM637 165 694 192Q690 247 682.5 291.0Q675 335 663 366L604 344Q609 343 615.0 342.5Q621 342 626 342Q634 342 643.5 343.5Q653 345 663 346Q657 330 651.5 300.5Q646 271 642.5 235.5Q639 200 637 165ZM569 134 625 159Q621 212 614.0 261.5Q607 311 596 341Q583 337 569.0 331.0Q555 325 541 320Q546 319 550.0 319.0Q554 319 558 319Q578 319 595 323Q589 312 583.5 280.5Q578 249 574.5 210.0Q571 171 569 134ZM500 102Q514 109 528.5 115.5Q543 122 557 128Q553 180 546.5 232.5Q540 285 529 316Q516 311 504.0 306.5Q492 302 479 297H490Q506 297 527 300Q520 284 514.5 251.0Q509 218 505.5 178.5Q502 139 500 102ZM431 71Q445 78 459.5 84.5Q474 91 488 97Q484 149 478.5 203.0Q473 257 462 290L420 273L459 277Q452 260 446.0 225.0Q440 190 436.5 149.0Q433 108 431 71ZM413 63 421 67Q417 120 411.5 175.0Q406 230 395 264L283 219Q311 183 344.5 143.0Q378 103 413 63ZM625 -61Q677 -5 735.0 60.5Q793 126 842 187Q792 175 724.5 154.0Q657 133 579.0 107.0Q501 81 421 53Q447 24 473.0 -4.5Q499 -33 523 -59Q517 -28 510.0 -2.5Q503 23 496 41Q516 37 535.0 35.0Q554 33 574 33Q593 33 612.0 35.0Q631 37 651 41Q638 8 625 -61Z" />
  </g>
</svg>