<svg xmlns="http://www.w3.org/2000/svg" viewBox="100 -120 2291 913">
  <g transform="translate(0, 673) scale(1, -1)">
    <path fill="black" d="M1552 602Q1558 628 1561.5 653.5Q1565 679 1565 702Q1565 725 1561.5 748.0Q1558 771 1552 793Q1595 780 1674.5 763.5Q1754 747 1864.0 732.0Q1974 717 2107.5 707.5Q2241 698 2391 698V672Q2242 672 2109.0 665.5Q1976 659 1866.5 649.0Q1757 639 1676.5 626.5Q1596 614 1552 602ZM508 -120Q358 41 262.0 150.0Q166 259 100 319Q161 380 222.0 446.0Q283 512 352.5 589.0Q422 666 508 758L529 743Q447 612 388.5 502.5Q330 393 292 319Q324 256 384.0 144.5Q444 33 529 -105ZM630 95Q620 313 594.0 473.5Q568 634 540 736Q591 724 645 724Q699 724 756 736L749 712Q795 696 881.0 676.0Q967 656 1082.0 640.5Q1197 625 1330 620V590Q1192 587 1073.5 575.5Q955 564 868.5 548.5Q782 533 739 518Q749 571 749 621Q749 638 747.5 655.5Q746 673 744 690Q719 588 696.5 439.5Q674 291 666 95ZM1410 -112Q1410 93 1396.0 253.0Q1382 413 1360.0 533.0Q1338 653 1315 736Q1366 724 1420 724Q1474 724 1531 736Q1508 653 1486.0 533.5Q1464 414 1450.0 254.0Q1436 94 1436 -112ZM1552 407Q1558 433 1561.5 458.5Q1565 484 1565 507Q1565 530 1561.5 553.0Q1558 576 1552 598Q1595 585 1674.5 568.5Q1754 552 1864.0 537.0Q1974 522 2107.5 512.5Q2241 503 2391 503V477Q2242 477 2109.0 470.5Q1976 464 1866.5 454.0Q1757 444 1676.5 431.5Q1596 419 1552 407ZM739 308Q749 361 749 411Q749 435 746.5 459.0Q744 483 739 506Q771 494 832.0 479.0Q893 464 976.5 449.5Q1060 435 1158.0 424.5Q1256 414 1360 410V380Q1256 377 1158.5 370.0Q1061 363 978.0 352.5Q895 342 833.0 330.5Q771 319 739 308ZM2252 -112Q2252 21 2239.0 126.0Q2226 231 2208.0 311.5Q2190 392 2174 451Q2195 446 2217.0 443.0Q2239 440 2262 440Q2285 440 2308.5 443.0Q2332 446 2357 451Q2342 392 2323.5 311.0Q2305 230 2291.5 125.0Q2278 20 2278 -112ZM1689 231Q1698 285 1698 332Q1698 379 1689 424Q1725 408 1798.0 388.0Q1871 368 1972.0 351.5Q2073 335 2191 330V301Q2074 298 1973.0 286.5Q1872 275 1799.0 260.5Q1726 246 1689 231ZM739 98Q749 151 749 201Q749 225 746.5 249.0Q744 273 739 296Q771 284 832.0 269.0Q893 254 976.5 239.5Q1060 225 1158.0 214.5Q1256 204 1360 200V170Q1256 167 1158.5 160.0Q1061 153 978.0 142.5Q895 132 833.0 120.5Q771 109 739 98ZM1794 -112Q1793 -92 1791.5 -69.0Q1790 -46 1788 -23Q1588 -44 1502 -69Q1508 -43 1511.5 -17.5Q1515 8 1515 31Q1515 54 1511.5 77.0Q1508 100 1502 122Q1542 109 1612.5 94.0Q1683 79 1778 65Q1769 124 1759.5 170.0Q1750 216 1743 229Q1760 227 1777.0 225.5Q1794 224 1811 224Q1826 224 1841.5 225.0Q1857 226 1873 228Q1865 215 1854.0 168.0Q1843 121 1834 57L1920 47Q1912 112 1901.5 163.5Q1891 215 1883 229Q1900 227 1917.0 225.5Q1934 224 1951 224Q1966 224 1981.5 225.0Q1997 226 2013 228Q2004 215 1992.5 163.0Q1981 111 1972 43Q1994 41 2016.5 39.0Q2039 37 2062 35Q2056 80 2049.0 121.0Q2042 162 2035.0 191.0Q2028 220 2023 229Q2040 227 2057.0 225.5Q2074 224 2091 224Q2106 224 2121.5 225.0Q2137 226 2153 228Q2144 215 2132.0 159.5Q2120 104 2111 33Q2134 32 2157.5 31.0Q2181 30 2206 29L2207 0Q2181 0 2156.0 -0.5Q2131 -1 2107 -2Q2104 -29 2101.5 -57.0Q2099 -85 2098 -112H2074Q2073 -87 2071.5 -59.5Q2070 -32 2067 -4Q2041 -5 2015.5 -6.0Q1990 -7 1966 -9Q1963 -34 1961.0 -60.0Q1959 -86 1958 -112H1934Q1933 -89 1931.5 -63.5Q1930 -38 1927 -12Q1900 -13 1874.5 -15.5Q1849 -18 1825 -20Q1823 -42 1821.0 -65.5Q1819 -89 1818 -112ZM539 -120Q545 -90 548.5 -61.0Q552 -32 552 -4Q552 24 548.5 51.0Q545 78 539 103Q583 88 669.0 69.0Q755 50 871.5 32.0Q988 14 1124.0 2.5Q1260 -9 1402 -9V-40Q1263 -40 1128.0 -47.5Q993 -55 876.0 -66.5Q759 -78 671.5 -92.0Q584 -106 539 -120Z" />
  </g>
</svg>