<svg xmlns="http://www.w3.org/2000/svg" viewBox="100 -81 906 805">
  <g transform="translate(0, 643) scale(1, -1)">
    <path fill="black" d="M794 361Q669 437 566.0 475.5Q463 514 387 531Q424 567 460.0 617.5Q496 668 521 724Q545 687 588.0 633.0Q631 579 690.0 517.0Q749 455 819 394ZM969 -81Q871 -30 779.5 -6.0Q688 18 613.5 26.0Q539 34 491 36Q521 66 551.5 101.5Q582 137 610 177Q504 235 408.5 273.0Q313 311 243 327Q281 363 316.5 413.5Q352 464 378 519Q410 468 480.5 390.0Q551 312 645 228Q669 265 691.0 303.5Q713 342 732 382Q752 335 786.0 265.0Q820 195 873.5 116.5Q927 38 1006 -35ZM507 -48Q382 28 279.0 66.5Q176 105 100 122Q137 158 173.0 208.5Q209 259 234 315Q258 278 301.0 224.0Q344 170 403.0 107.5Q462 45 532 -15Z" />
  </g>
</svg>