<svg xmlns="http://www.w3.org/2000/svg" viewBox="100 195 747 235">
  <g transform="translate(0, 625) scale(1, -1)">
    <path fill="black" d="M100 195Q105 221 107.5 250.0Q110 279 110 310Q110 339 107.5 369.5Q105 400 100 430Q127 415 174.0 397.5Q221 380 276.0 364.0Q331 348 385.5 337.5Q440 327 482 327Q481 353 479.0 379.0Q477 405 472 430Q500 415 545.5 397.5Q591 380 645.0 363.5Q699 347 752.0 337.0Q805 327 847 327V298Q805 298 752.0 288.0Q699 278 645.0 261.5Q591 245 545.5 227.5Q500 210 472 195Q477 218 479.0 244.0Q481 270 482 298Q440 298 385.5 287.5Q331 277 276.0 261.0Q221 245 174.0 227.5Q127 210 100 195Z" />
  </g>
</svg>