<svg xmlns="http://www.w3.org/2000/svg" viewBox="100 195 1109 235">
  <g transform="translate(0, 625) scale(1, -1)">
    <path fill="black" d="M100 195Q105 221 107.5 250.0Q110 279 110 310Q110 339 107.5 369.5Q105 400 100 430Q127 415 174.0 397.5Q221 380 276.0 364.0Q331 348 385.5 337.5Q440 327 482 327Q481 353 479.0 379.0Q477 405 472 430Q499 415 544.5 397.5Q590 380 643.0 364.0Q696 348 749.0 337.5Q802 327 844 327Q843 353 841.0 379.0Q839 405 834 430Q862 415 907.5 397.5Q953 380 1007.0 363.5Q1061 347 1114.0 337.0Q1167 327 1209 327V298Q1167 298 1114.0 288.0Q1061 278 1007.0 261.5Q953 245 907.5 227.5Q862 210 834 195Q839 218 841.0 244.0Q843 270 844 298Q802 298 749.0 287.5Q696 277 643.0 261.0Q590 245 544.5 227.5Q499 210 472 195Q477 218 479.0 244.0Q481 270 482 298Q440 298 385.5 287.5Q331 277 276.0 261.0Q221 245 174.0 227.5Q127 210 100 195Z" />
  </g>
</svg>