<svg xmlns="http://www.w3.org/2000/svg" viewBox="100 68 1109 484">
  <g transform="translate(0, 620) scale(1, -1)">
    <path fill="black" d="M100 317Q105 343 107.5 372.0Q110 401 110 432Q110 461 107.5 491.5Q105 522 100 552Q127 537 174.0 519.5Q221 502 276.0 486.0Q331 470 385.5 459.5Q440 449 482 449Q481 475 479.0 501.0Q477 527 472 552Q499 537 544.5 519.5Q590 502 643.0 486.0Q696 470 749.0 459.5Q802 449 844 449Q843 475 841.0 501.0Q839 527 834 552Q862 537 907.5 519.5Q953 502 1007.0 485.5Q1061 469 1114.0 459.0Q1167 449 1209 449V420Q1167 420 1114.0 410.0Q1061 400 1007.0 383.5Q953 367 907.5 349.5Q862 332 834 317Q839 340 841.0 366.0Q843 392 844 420Q802 420 749.0 409.5Q696 399 643.0 383.0Q590 367 544.5 349.5Q499 332 472 317Q477 340 479.0 366.0Q481 392 482 420Q440 420 385.5 409.5Q331 399 276.0 383.0Q221 367 174.0 349.5Q127 332 100 317ZM100 68Q105 94 107.5 123.0Q110 152 110 183Q110 212 107.5 242.5Q105 273 100 303Q127 288 174.0 270.5Q221 253 276.0 237.0Q331 221 385.5 210.5Q440 200 482 200Q481 226 479.0 252.0Q477 278 472 303Q500 288 545.5 270.5Q591 253 645.0 236.5Q699 220 752.0 210.0Q805 200 847 200V171Q805 171 752.0 161.0Q699 151 645.0 134.5Q591 118 545.5 100.5Q500 83 472 68Q477 91 479.0 117.0Q481 143 482 171Q440 171 385.5 160.5Q331 150 276.0 134.0Q221 118 174.0 100.5Q127 83 100 68Z" />
  </g>
</svg>