<svg xmlns="http://www.w3.org/2000/svg" viewBox="100 68 1471 484">
  <g transform="translate(0, 620) scale(1, -1)">
    <path fill="black" d="M100 317Q105 343 107.5 372.0Q110 401 110 432Q110 461 107.5 491.5Q105 522 100 552Q127 537 174.0 519.5Q221 502 276.0 486.0Q331 470 385.5 459.5Q440 449 482 449Q481 475 479.0 501.0Q477 527 472 552Q499 537 544.5 519.5Q590 502 643.0 486.0Q696 470 749.0 459.5Q802 449 844 449Q843 475 841.0 501.0Q839 527 834 552Q861 537 906.5 519.5Q952 502 1005.0 486.0Q1058 470 1111.0 459.5Q1164 449 1206 449Q1205 475 1203.0 501.0Q1201 527 1196 552Q1224 537 1269.5 519.5Q1315 502 1369.0 485.5Q1423 469 1476.0 459.0Q1529 449 1571 449V420Q1529 420 1476.0 410.0Q1423 400 1369.0 383.5Q1315 367 1269.5 349.5Q1224 332 1196 317Q1201 340 1203.0 366.0Q1205 392 1206 420Q1164 420 1111.0 409.5Q1058 399 1005.0 383.0Q952 367 906.5 349.5Q861 332 834 317Q839 340 841.0 366.0Q843 392 844 420Q802 420 749.0 409.5Q696 399 643.0 383.0Q590 367 544.5 349.5Q499 332 472 317Q477 340 479.0 366.0Q481 392 482 420Q440 420 385.5 409.5Q331 399 276.0 383.0Q221 367 174.0 349.5Q127 332 100 317ZM100 68Q105 94 107.5 123.0Q110 152 110 183Q110 212 107.5 242.5Q105 273 100 303Q127 288 174.0 270.5Q221 253 276.0 237.0Q331 221 385.5 210.5Q440 200 482 200Q481 226 479.0 252.0Q477 278 472 303Q499 288 544.5 270.5Q590 253 643.0 237.0Q696 221 749.0 210.5Q802 200 844 200Q843 226 841.0 252.0Q839 278 834 303Q861 288 906.5 270.5Q952 253 1005.0 237.0Q1058 221 1111.0 210.5Q1164 200 1206 200Q1205 226 1203.0 252.0Q1201 278 1196 303Q1224 288 1269.5 270.5Q1315 253 1369.0 236.5Q1423 220 1476.0 210.0Q1529 200 1571 200V171Q1529 171 1476.0 161.0Q1423 151 1369.0 134.5Q1315 118 1269.5 100.5Q1224 83 1196 68Q1201 91 1203.0 117.0Q1205 143 1206 171Q1164 171 1111.0 160.5Q1058 150 1005.0 134.0Q952 118 906.5 100.5Q861 83 834 68Q839 91 841.0 117.0Q843 143 844 171Q802 171 749.0 160.5Q696 150 643.0 134.0Q590 118 544.5 100.5Q499 83 472 68Q477 91 479.0 117.0Q481 143 482 171Q440 171 385.5 160.5Q331 150 276.0 134.0Q221 118 174.0 100.5Q127 83 100 68Z" />
  </g>
</svg>