<svg xmlns="http://www.w3.org/2000/svg" viewBox="100 68 1833 484">
  <g transform="translate(0, 620) scale(1, -1)">
    <path fill="black" d="M100 317Q120 435 100 552Q293 461 482 449Q482 475 479.5 501.0Q477 527 472 552Q565 507 658.0 481.0Q751 455 844 449Q844 475 841.5 501.0Q839 527 834 552Q927 507 1020.0 481.0Q1113 455 1206 449Q1206 475 1203.5 501.0Q1201 527 1196 552Q1289 507 1382.0 480.5Q1475 454 1568 449Q1568 475 1565.5 501.0Q1563 527 1558 552Q1652 509 1745.5 481.0Q1839 453 1933 449V420Q1839 416 1745.5 388.5Q1652 361 1558 317Q1563 343 1565.5 369.0Q1568 395 1568 420Q1475 415 1382.0 388.0Q1289 361 1196 317Q1201 343 1203.5 369.0Q1206 395 1206 420Q1114 415 1020.5 388.0Q927 361 834 317Q839 343 841.5 369.0Q844 395 844 420Q751 415 658.0 388.0Q565 361 472 317Q477 343 479.5 369.0Q482 395 482 420Q387 413 291.0 387.0Q195 361 100 317ZM100 68Q120 186 100 303Q293 212 482 200Q482 226 479.5 252.0Q477 278 472 303Q565 258 658.0 232.0Q751 206 844 200Q844 226 841.5 252.0Q839 278 834 303Q927 258 1020.0 232.0Q1113 206 1206 200Q1206 226 1203.5 252.0Q1201 278 1196 303Q1290 258 1383.5 231.0Q1477 204 1571 200V171Q1477 167 1383.5 139.5Q1290 112 1196 68Q1201 94 1203.5 120.0Q1206 146 1206 171Q1113 164 1020.0 138.0Q927 112 834 68Q839 94 841.5 120.0Q844 146 844 171Q751 165 658.0 138.5Q565 112 472 68Q477 94 479.5 120.0Q482 146 482 171Q387 164 291.0 138.0Q195 112 100 68Z" />
  </g>
</svg>