<svg xmlns="http://www.w3.org/2000/svg" viewBox="100 -112 733 848">
  <g transform="translate(0, 624) scale(1, -1)">
    <path fill="black" d="M701 -112Q701 -78 694.5 -32.0Q688 14 676.5 65.0Q665 116 651.5 164.5Q638 213 624.0 252.5Q610 292 598 314Q621 309 647.0 306.5Q673 304 701 304Q701 338 694.0 385.0Q687 432 675.5 483.5Q664 535 650.5 584.5Q637 634 623.5 674.0Q610 714 598 736Q624 731 653.0 728.5Q682 726 713 726Q742 726 772.5 728.5Q803 731 833 736Q821 714 807.0 674.0Q793 634 779.5 584.5Q766 535 755.0 483.5Q744 432 737.0 385.0Q730 338 730 304Q756 305 782.0 307.5Q808 310 833 314Q821 292 807.0 252.5Q793 213 779.5 164.5Q766 116 754.5 65.0Q743 14 736.5 -32.0Q730 -78 730 -112ZM203 -112Q203 -78 196.5 -32.0Q190 14 178.5 65.0Q167 116 153.5 164.5Q140 213 126.0 252.5Q112 292 100 314Q123 309 149.0 306.5Q175 304 203 304Q203 338 196.0 385.0Q189 432 177.5 483.5Q166 535 152.5 584.5Q139 634 125.5 674.0Q112 714 100 736Q126 731 155.0 728.5Q184 726 215 726Q244 726 274.5 728.5Q305 731 335 736Q323 714 309.0 674.0Q295 634 281.5 584.5Q268 535 257.0 483.5Q246 432 239.0 385.0Q232 338 232 304Q258 305 284.0 307.5Q310 310 335 314Q323 292 309.0 252.5Q295 213 281.5 164.5Q268 116 256.5 65.0Q245 14 238.5 -32.0Q232 -78 232 -112ZM452 -112Q452 -78 445.5 -32.0Q439 14 427.5 65.0Q416 116 402.5 164.5Q389 213 375.0 252.5Q361 292 349 314Q372 309 398.0 306.5Q424 304 452 304Q452 338 445.0 385.0Q438 432 426.5 483.5Q415 535 401.5 584.5Q388 634 374.5 674.0Q361 714 349 736Q375 731 404.0 728.5Q433 726 464 726Q493 726 523.5 728.5Q554 731 584 736Q572 714 558.0 674.0Q544 634 530.5 584.5Q517 535 506.0 483.5Q495 432 488.0 385.0Q481 338 481 304Q507 305 533.0 307.5Q559 310 584 314Q572 292 558.0 252.5Q544 213 530.5 164.5Q517 116 505.5 65.0Q494 14 487.5 -32.0Q481 -78 481 -112Z" />
  </g>
</svg>