<svg xmlns="http://www.w3.org/2000/svg" viewBox="100 -112 982 848">
  <g transform="translate(0, 624) scale(1, -1)">
    <path fill="black" d="M328 -112Q328 -72 318.5 -15.0Q309 42 294.5 102.5Q280 163 263.0 216.0Q246 269 231 301H203Q203 335 196.5 382.0Q190 429 178.5 481.0Q167 533 153.5 583.0Q140 633 126.0 673.5Q112 714 100 736Q126 731 155.0 728.5Q184 726 215 726Q244 726 274.5 728.5Q305 731 335 736Q323 714 309.5 675.5Q296 637 283.0 589.5Q270 542 259.0 491.0Q248 440 240.5 393.5Q233 347 232 312Q257 308 284.5 306.0Q312 304 340 304Q367 304 395.5 306.0Q424 308 452 312Q451 347 443.5 393.5Q436 440 425.0 491.0Q414 542 400.5 589.5Q387 637 373.5 675.5Q360 714 349 736Q375 731 404.0 728.5Q433 726 464 726Q493 726 523.5 728.5Q554 731 584 736Q572 714 558.5 675.5Q545 637 532.0 589.5Q519 542 508.0 491.0Q497 440 489.5 393.5Q482 347 481 312Q506 308 533.5 306.0Q561 304 589 304Q616 304 644.5 306.0Q673 308 701 312Q700 347 692.5 393.5Q685 440 674.0 491.0Q663 542 649.5 589.5Q636 637 622.5 675.5Q609 714 598 736Q624 731 653.0 728.5Q682 726 713 726Q742 726 772.5 728.5Q803 731 833 736Q821 714 807.5 675.5Q794 637 781.0 589.5Q768 542 757.0 491.0Q746 440 738.5 393.5Q731 347 730 312Q755 308 782.5 306.0Q810 304 838 304Q865 304 893.5 306.0Q922 308 950 312Q949 347 941.5 393.5Q934 440 923.0 491.0Q912 542 898.5 589.5Q885 637 871.5 675.5Q858 714 847 736Q873 731 902.0 728.5Q931 726 962 726Q991 726 1021.5 728.5Q1052 731 1082 736Q1070 714 1056.0 673.5Q1042 633 1028.5 583.0Q1015 533 1003.5 481.0Q992 429 985.5 382.0Q979 335 979 301H951Q936 269 919.5 216.0Q903 163 888.0 102.5Q873 42 864.0 -15.0Q855 -72 855 -112H826Q826 -72 816.5 -15.0Q807 42 792.5 102.5Q778 163 761.0 216.0Q744 269 729 301H702Q687 269 670.5 216.0Q654 163 639.0 102.5Q624 42 615.0 -15.0Q606 -72 606 -112H577Q577 -72 567.5 -15.0Q558 42 543.5 102.5Q529 163 512.0 216.0Q495 269 480 301H453Q438 269 421.5 216.0Q405 163 390.0 102.5Q375 42 366.0 -15.0Q357 -72 357 -112Z" />
  </g>
</svg>