<svg xmlns="http://www.w3.org/2000/svg" viewBox="100 -112 498 847">
  <g transform="translate(0, 623) scale(1, -1)">
    <path fill="black" d="M576 -112Q525 -63 489.5 -31.0Q454 1 426.0 24.0Q398 47 372.0 66.0Q346 85 314 108Q345 130 370.0 148.5Q395 167 421.0 188.5Q447 210 480.0 239.0Q513 268 558 311Q512 355 479.5 384.0Q447 413 421.0 434.0Q395 455 369.5 473.5Q344 492 314 514Q346 537 372.5 556.5Q399 576 426.5 599.0Q454 622 489.5 654.5Q525 687 576 735L598 718Q558 655 529.5 608.0Q501 561 472 514Q501 467 529.5 420.0Q558 373 598 311Q558 248 529.5 201.5Q501 155 472 108Q501 61 529.5 14.0Q558 -33 598 -95ZM362 -112Q311 -63 275.5 -31.0Q240 1 212.0 24.0Q184 47 158.0 66.0Q132 85 100 108Q131 130 156.0 148.5Q181 167 207.0 188.5Q233 210 266.0 239.0Q299 268 344 311Q298 355 265.5 384.0Q233 413 207.0 434.0Q181 455 155.5 473.5Q130 492 100 514Q132 537 158.5 556.5Q185 576 212.5 599.0Q240 622 275.5 654.5Q311 687 362 735L384 718Q344 655 315.5 608.0Q287 561 258 514Q287 467 315.5 420.0Q344 373 384 311Q344 248 315.5 201.5Q287 155 258 108Q287 61 315.5 14.0Q344 -33 384 -95Z" />
  </g>
</svg>