<svg xmlns="http://www.w3.org/2000/svg" viewBox="100 -112 1140 847">
  <g transform="translate(0, 623) scale(1, -1)">
    <path fill="black" d="M1004 -112Q953 -63 917.5 -31.0Q882 1 854.0 24.0Q826 47 800.0 66.0Q774 85 742 108Q773 130 798.0 148.5Q823 167 849.0 188.5Q875 210 908.0 239.0Q941 268 986 311Q940 355 907.5 384.0Q875 413 849.0 434.0Q823 455 797.5 473.5Q772 492 742 514Q774 537 800.5 556.5Q827 576 854.5 599.0Q882 622 917.5 654.5Q953 687 1004 735L1026 718Q986 655 957.5 608.0Q929 561 900 514Q929 467 957.5 420.0Q986 373 1026 311Q986 248 957.5 201.5Q929 155 900 108Q929 61 957.5 14.0Q986 -33 1026 -95ZM362 -112Q311 -63 275.5 -31.0Q240 1 212.0 24.0Q184 47 158.0 66.0Q132 85 100 108Q131 130 156.0 148.5Q181 167 207.0 188.5Q233 210 266.0 239.0Q299 268 344 311Q298 355 265.5 384.0Q233 413 207.0 434.0Q181 455 155.5 473.5Q130 492 100 514Q132 537 158.5 556.5Q185 576 212.5 599.0Q240 622 275.5 654.5Q311 687 362 735L384 718Q344 655 315.5 608.0Q287 561 258 514Q287 467 315.5 420.0Q344 373 384 311Q344 248 315.5 201.5Q287 155 258 108Q287 61 315.5 14.0Q344 -33 384 -95ZM576 -112Q525 -63 489.5 -31.0Q454 1 426.0 24.0Q398 47 372.0 66.0Q346 85 314 108Q345 130 370.0 148.5Q395 167 421.0 188.5Q447 210 480.0 239.0Q513 268 558 311Q512 355 479.5 384.0Q447 413 421.0 434.0Q395 455 369.5 473.5Q344 492 314 514Q346 537 372.5 556.5Q399 576 426.5 599.0Q454 622 489.5 654.5Q525 687 576 735L598 718Q558 655 529.5 608.0Q501 561 472 514Q501 467 529.5 420.0Q558 373 598 311Q558 248 529.5 201.5Q501 155 472 108Q501 61 529.5 14.0Q558 -33 598 -95ZM790 -112Q739 -63 703.5 -31.0Q668 1 640.0 24.0Q612 47 586.0 66.0Q560 85 528 108Q559 130 584.0 148.5Q609 167 635.0 188.5Q661 210 694.0 239.0Q727 268 772 311Q726 355 693.5 384.0Q661 413 635.0 434.0Q609 455 583.5 473.5Q558 492 528 514Q560 537 586.5 556.5Q613 576 640.5 599.0Q668 622 703.5 654.5Q739 687 790 735L812 718Q772 655 743.5 608.0Q715 561 686 514Q715 467 743.5 420.0Q772 373 812 311Q772 248 743.5 201.5Q715 155 686 108Q715 61 743.5 14.0Q772 -33 812 -95ZM1218 294Q1167 343 1131.5 375.0Q1096 407 1068.0 430.0Q1040 453 1014.0 472.0Q988 491 956 514Q988 537 1014.5 556.5Q1041 576 1068.5 599.0Q1096 622 1131.5 654.5Q1167 687 1218 735L1240 718Q1200 655 1171.5 608.0Q1143 561 1114 514Q1143 467 1171.5 420.0Q1200 373 1240 311Z" />
  </g>
</svg>