<svg xmlns="http://www.w3.org/2000/svg" viewBox="100 -129 656 1016">
  <g transform="translate(0, 758) scale(1, -1)">
    <path fill="black" d="M255 -129Q255 78 244.5 229.5Q234 381 216.5 489.0Q199 597 178.5 671.5Q158 746 137.5 797.0Q117 848 100 887Q129 881 179.0 877.0Q229 873 278 873Q351 873 427 883Q468 878 504.5 875.5Q541 873 578 873Q625 873 675.0 877.0Q725 881 756 887Q740 848 719.0 797.0Q698 746 677.5 671.5Q657 597 639.5 489.0Q622 381 611.5 229.5Q601 78 601 -129H555Q555 46 547.0 181.5Q539 317 526.0 419.0Q513 521 496.5 596.0Q480 671 462.5 725.5Q445 780 428 821Q411 780 393.5 725.5Q376 671 359.5 596.0Q343 521 329.5 419.0Q316 317 308.5 181.5Q301 46 301 -129Z" />
  </g>
</svg>