<svg xmlns="http://www.w3.org/2000/svg" viewBox="100 -129 956 1016">
  <g transform="translate(0, 758) scale(1, -1)">
    <path fill="black" d="M255 -129Q255 78 244.5 229.5Q234 381 216.5 489.0Q199 597 178.5 671.5Q158 746 137.5 797.0Q117 848 100 887Q129 881 179.0 877.0Q229 873 278 873Q316 873 351.5 875.5Q387 878 427 882Q469 878 505.0 875.5Q541 873 578 873Q616 873 651.5 875.5Q687 878 727 882Q769 878 805.0 875.5Q841 873 878 873Q925 873 975.0 877.0Q1025 881 1056 887Q1040 848 1019.0 797.0Q998 746 977.5 671.5Q957 597 939.5 489.0Q922 381 911.5 229.5Q901 78 901 -129H855Q855 46 847.0 181.5Q839 317 826.0 419.0Q813 521 796.5 596.0Q780 671 762.5 725.5Q745 780 728 821Q711 780 693.5 725.5Q676 671 659.5 596.0Q643 521 629.5 419.0Q616 317 608.5 181.5Q601 46 601 -129H555Q555 46 547.0 181.5Q539 317 526.0 419.0Q513 521 496.5 596.0Q480 671 462.5 725.5Q445 780 428 821Q411 780 393.5 725.5Q376 671 359.5 596.0Q343 521 329.5 419.0Q316 317 308.5 181.5Q301 46 301 -129Z" />
  </g>
</svg>