<svg xmlns="http://www.w3.org/2000/svg" viewBox="100 -129 1256 1016">
  <g transform="translate(0, 758) scale(1, -1)">
    <path fill="black" d="M255 -129Q255 -12 241.5 71.0Q228 154 206.0 214.0Q184 274 156.5 321.5Q129 369 100 414Q126 409 168.0 405.0Q210 401 254 400Q251 501 236.5 574.0Q222 647 200.5 701.5Q179 756 153.0 800.0Q127 844 100 887Q129 881 179.0 877.0Q229 873 278 873Q316 873 350.0 875.0Q384 877 427 882Q469 878 505.0 875.5Q541 873 578 873Q616 873 650.0 875.0Q684 877 727 882Q767 878 804.0 875.5Q841 873 878 873Q916 873 950.0 875.0Q984 877 1027 882Q1067 878 1104.0 875.5Q1141 873 1178 873Q1225 873 1275.0 877.0Q1325 881 1356 887Q1328 842 1300.0 794.5Q1272 747 1250.0 686.5Q1228 626 1214.5 543.0Q1201 460 1201 344H1155Q1155 446 1144.5 522.5Q1134 599 1116.0 656.0Q1098 713 1075.5 758.0Q1053 803 1028 843Q997 793 970.0 735.0Q943 677 924.5 597.0Q906 517 902 400Q944 401 986.5 405.0Q1029 409 1056 414Q1028 369 1000.0 321.5Q972 274 950.0 213.5Q928 153 914.5 70.0Q901 -13 901 -129H855Q855 -27 844.5 49.5Q834 126 816.0 183.0Q798 240 775.5 285.0Q753 330 728 370Q703 330 680.0 285.0Q657 240 639.5 182.5Q622 125 611.5 49.0Q601 -27 601 -129H555Q555 -27 544.5 49.5Q534 126 516.0 183.0Q498 240 475.5 285.0Q453 330 428 370Q403 330 380.0 285.0Q357 240 339.5 182.5Q322 125 311.5 49.0Q301 -27 301 -129ZM302 400Q339 401 366.0 403.0Q393 405 427 409Q471 404 500.0 402.0Q529 400 554 400Q550 517 531.5 597.5Q513 678 486.0 736.0Q459 794 428 843Q397 793 370.0 735.0Q343 677 324.5 597.0Q306 517 302 400ZM602 400Q639 401 666.0 403.0Q693 405 727 409Q770 404 799.5 402.0Q829 400 854 400Q850 517 831.5 597.5Q813 678 786.0 736.0Q759 794 728 843Q697 793 670.0 735.0Q643 677 624.5 597.0Q606 517 602 400Z" />
  </g>
</svg>