<svg xmlns="http://www.w3.org/2000/svg" viewBox="100 -129 1256 1016">
  <g transform="translate(0, 758) scale(1, -1)">
    <path fill="black" d="M255 -129Q255 -12 241.5 71.0Q228 154 206.0 214.0Q184 274 156.5 321.5Q129 369 100 414Q126 409 168.0 405.0Q210 401 254 400Q251 501 236.5 574.0Q222 647 200.5 701.5Q179 756 153.0 800.0Q127 844 100 887Q129 881 179.0 877.0Q229 873 278 873Q309 873 345.0 875.0Q381 877 427 882Q458 878 499.5 875.5Q541 873 578 873Q609 873 645.0 875.0Q681 877 727 882Q764 878 798.5 875.5Q833 873 878 873Q909 873 945.0 875.0Q981 877 1027 882L1178 873Q1225 873 1275.0 877.0Q1325 881 1356 887Q1329 844 1303.0 800.0Q1277 756 1255.5 701.5Q1234 647 1219.5 574.0Q1205 501 1202 400Q1244 401 1286.5 405.0Q1329 409 1356 414Q1328 369 1300.0 321.5Q1272 274 1250.0 213.5Q1228 153 1214.5 70.0Q1201 -13 1201 -129H1155Q1155 -27 1144.5 49.5Q1134 126 1116.0 183.0Q1098 240 1075.5 285.0Q1053 330 1028 370Q1003 330 980.0 285.0Q957 240 939.5 182.5Q922 125 911.5 49.0Q901 -27 901 -129H855Q855 -27 844.5 49.5Q834 126 816.0 183.0Q798 240 775.5 285.0Q753 330 728 370Q703 330 680.0 285.0Q657 240 639.5 182.5Q622 125 611.5 49.0Q601 -27 601 -129H555Q555 -27 544.5 49.5Q534 126 516.0 183.0Q498 240 475.5 285.0Q453 330 428 370Q403 330 380.0 285.0Q357 240 339.5 182.5Q322 125 311.5 49.0Q301 -27 301 -129ZM302 400Q339 401 366.0 403.0Q393 405 427 409Q473 404 501.0 402.0Q529 400 554 400Q550 517 531.5 597.5Q513 678 486.0 736.0Q459 794 428 843Q397 793 370.0 735.0Q343 677 324.5 597.0Q306 517 302 400ZM602 400Q639 401 666.0 403.0Q693 405 727 409Q773 404 801.0 402.0Q829 400 854 400Q850 517 831.5 597.5Q813 678 786.0 736.0Q759 794 728 843Q697 793 670.0 735.0Q643 677 624.5 597.0Q606 517 602 400ZM902 400Q939 401 966.0 403.0Q993 405 1027 409Q1073 404 1101.0 402.0Q1129 400 1154 400Q1150 517 1131.5 597.5Q1113 678 1086.0 736.0Q1059 794 1028 843Q997 793 970.0 735.0Q943 677 924.5 597.0Q906 517 902 400Z" />
  </g>
</svg>