<svg xmlns="http://www.w3.org/2000/svg" viewBox="100 -129 1556 1016">
  <g transform="translate(0, 758) scale(1, -1)">
    <path fill="black" d="M255 -129Q255 -12 241.5 71.0Q228 154 206.0 214.0Q184 274 156.5 321.5Q129 369 100 414Q126 409 168.0 405.0Q210 401 254 400Q251 501 236.5 574.0Q222 647 200.5 701.5Q179 756 153.0 800.0Q127 844 100 887Q129 881 179.0 877.0Q229 873 278 873Q316 873 350.0 875.0Q384 877 427 882Q469 878 505.0 875.5Q541 873 578 873Q616 873 650.0 875.0Q684 877 727 882Q769 878 805.0 875.5Q841 873 878 873Q916 873 950.0 875.0Q984 877 1027 882Q1069 878 1105.0 875.5Q1141 873 1178 873Q1216 873 1250.0 875.0Q1284 877 1327 882Q1369 878 1405.0 875.5Q1441 873 1478 873Q1525 873 1575.0 877.0Q1625 881 1656 887Q1628 842 1600.0 794.5Q1572 747 1550.0 686.5Q1528 626 1514.5 543.0Q1501 460 1501 344H1455Q1455 446 1444.5 522.5Q1434 599 1416.0 656.0Q1398 713 1375.5 758.0Q1353 803 1328 843Q1297 793 1270.0 735.0Q1243 677 1224.5 597.0Q1206 517 1202 400Q1244 401 1286.5 405.0Q1329 409 1356 414Q1328 369 1300.0 321.5Q1272 274 1250.0 213.5Q1228 153 1214.5 70.0Q1201 -13 1201 -129H1155Q1155 -27 1144.5 49.5Q1134 126 1116.0 183.0Q1098 240 1075.5 285.0Q1053 330 1028 370Q1003 330 980.0 285.0Q957 240 939.5 182.5Q922 125 911.5 49.0Q901 -27 901 -129H855Q855 -27 844.5 49.5Q834 126 816.0 183.0Q798 240 775.5 285.0Q753 330 728 370Q703 330 680.0 285.0Q657 240 639.5 182.5Q622 125 611.5 49.0Q601 -27 601 -129H555Q555 -27 544.5 49.5Q534 126 516.0 183.0Q498 240 475.5 285.0Q453 330 428 370Q403 330 380.0 285.0Q357 240 339.5 182.5Q322 125 311.5 49.0Q301 -27 301 -129ZM902 400Q939 401 966.0 403.0Q993 405 1027 409Q1073 404 1101.0 402.0Q1129 400 1154 400Q1150 517 1131.5 597.5Q1113 678 1086.0 736.0Q1059 794 1028 843Q997 793 970.0 735.0Q943 677 924.5 597.0Q906 517 902 400ZM302 400Q339 401 366.0 403.0Q393 405 427 409Q473 404 501.0 402.0Q529 400 554 400Q550 517 531.5 597.5Q513 678 486.0 736.0Q459 794 428 843Q397 793 370.0 735.0Q343 677 324.5 597.0Q306 517 302 400ZM602 400Q639 401 666.0 403.0Q693 405 727 409Q773 404 801.0 402.0Q829 400 854 400Q850 517 831.5 597.5Q813 678 786.0 736.0Q759 794 728 843Q697 793 670.0 735.0Q643 677 624.5 597.0Q606 517 602 400Z" />
  </g>
</svg>