<svg xmlns="http://www.w3.org/2000/svg" viewBox="100 -129 497 1016">
  <g transform="translate(0, 758) scale(1, -1)">
    <path fill="black" d="M255 -129Q255 3 250.5 112.0Q246 221 238 310Q219 330 201.5 347.5Q184 365 168 379Q182 393 196.0 407.0Q210 421 224 436Q207 563 184.5 647.5Q162 732 140.0 788.5Q118 845 100 887Q129 881 179.0 877.0Q229 873 278 873Q325 873 375.0 877.0Q425 881 456 887Q442 854 425.0 812.0Q408 770 390.0 713.0Q372 656 355 577Q404 630 458.0 689.5Q512 749 576 818L597 803Q515 672 456.5 562.5Q398 453 360 379Q392 316 452.0 204.5Q512 93 597 -45L576 -60Q494 28 429.0 100.0Q364 172 312 229Q307 153 304.0 64.0Q301 -25 301 -129Z" />
  </g>
</svg>