<svg xmlns="http://www.w3.org/2000/svg" viewBox="100 -129 1301 1016">
  <g transform="translate(0, 758) scale(1, -1)">
    <path fill="black" d="M255 -129Q255 3 250.5 112.0Q246 221 238 310Q219 330 201.5 347.5Q184 365 168 379Q182 393 196.0 407.0Q210 421 224 436Q207 563 184.5 647.5Q162 732 140.0 788.5Q118 845 100 887Q129 881 179.0 877.0Q229 873 278 873Q325 873 375.0 877.0Q425 881 456 887Q442 854 425.0 812.0Q408 770 390.0 713.0Q372 656 355 577Q398 624 444.5 675.0Q491 726 544 784Q533 815 522.0 840.0Q511 865 502 887Q531 881 581.0 877.0Q631 873 680 873Q727 873 777.0 877.0Q827 881 858 887Q844 854 827.0 812.0Q810 770 792.0 713.0Q774 656 757 577Q800 624 846.5 675.0Q893 726 946 784Q935 815 924.0 840.0Q913 865 904 887Q933 881 983.0 877.0Q1033 873 1082 873Q1129 873 1179.0 877.0Q1229 881 1260 887Q1246 854 1229.0 812.0Q1212 770 1194.0 713.0Q1176 656 1159 577Q1208 630 1262.0 689.5Q1316 749 1380 818L1401 803Q1319 672 1260.5 562.5Q1202 453 1164 379Q1196 316 1256.0 204.5Q1316 93 1401 -45L1380 -60Q1298 28 1233.0 100.0Q1168 172 1116 229Q1111 153 1108.0 64.0Q1105 -25 1105 -129H1059Q1059 3 1054.5 112.0Q1050 221 1042 310Q1023 330 1005.5 347.5Q988 365 972 379Q986 393 1000.0 407.0Q1014 421 1028 436Q1014 539 996.5 613.0Q979 687 961 741Q894 630 845.0 537.0Q796 444 762 379Q794 316 854.0 204.5Q914 93 999 -45L978 -60Q896 28 831.0 100.0Q766 172 714 229Q709 153 706.0 64.0Q703 -25 703 -129H657Q657 3 652.5 112.0Q648 221 640 310Q621 330 603.5 347.5Q586 365 570 379Q584 393 598.0 407.0Q612 421 626 436Q612 539 594.5 613.0Q577 687 559 741Q492 630 443.0 537.0Q394 444 360 379Q392 316 452.0 204.5Q512 93 597 -45L576 -60Q494 28 429.0 100.0Q364 172 312 229Q307 153 304.0 64.0Q301 -25 301 -129Z" />
  </g>
</svg>