<svg xmlns="http://www.w3.org/2000/svg" viewBox="100 -129 680 1016">
  <g transform="translate(0, 758) scale(1, -1)">
    <path fill="black" d="M255 -129Q255 -70 251.5 -21.0Q248 28 241 70L192 106L229 132Q215 196 194.0 244.5Q173 293 149.0 334.0Q125 375 100 414Q126 409 168.0 405.0Q210 401 254 400Q253 440 249.5 476.0Q246 512 241 543L192 579L229 605Q215 669 194.0 717.5Q173 766 149.0 807.0Q125 848 100 887Q129 881 179.0 877.0Q229 873 278 873Q316 873 350.0 875.0Q384 877 427 882Q469 878 505.0 875.5Q541 873 578 873Q625 873 675.0 877.0Q725 881 756 887Q730 845 704.0 802.5Q678 760 657 706Q678 724 702.5 747.5Q727 771 758 800L780 783Q740 720 711.5 673.0Q683 626 654 579Q678 539 703.0 496.5Q728 454 755 413L780 376L758 359L735 381Q714 347 694.0 311.5Q674 276 657 233Q678 251 702.5 274.5Q727 298 758 327L780 310Q740 247 711.5 200.0Q683 153 654 106Q683 59 711.5 12.0Q740 -35 780 -97L758 -114Q707 -65 672.0 -33.0Q637 -1 608 21Q605 -12 603.0 -49.0Q601 -86 601 -129H555Q555 -69 551.5 -19.5Q548 30 541 73Q531 81 519.5 89.0Q508 97 496 106L530 130Q518 181 502.5 222.5Q487 264 468 298Q431 240 404.5 195.0Q378 150 350 106Q379 59 407.5 12.0Q436 -35 476 -97L454 -114Q405 -67 370.5 -35.5Q336 -4 308 18Q304 -14 302.5 -51.0Q301 -88 301 -129ZM359 711 453 800 428 843Q409 813 392.0 781.0Q375 749 359 711ZM554 400Q553 441 549.5 477.5Q546 514 541 546Q531 554 519.5 562.0Q508 570 496 579L530 603Q518 654 502.5 695.5Q487 737 468 771Q431 713 404.5 668.0Q378 623 350 579Q374 539 398.5 499.0Q423 459 457 406Q479 404 504.0 402.0Q529 400 554 400ZM602 400Q628 401 655.5 402.5Q683 404 707 407Q676 436 652.5 457.0Q629 478 608 494Q603 450 602 400ZM302 400Q328 401 354.0 402.5Q380 404 403 406Q374 434 351.0 454.5Q328 475 308 491Q303 449 302 400ZM359 238 453 327 428 370Q409 340 392.0 308.0Q375 276 359 238Z" />
  </g>
</svg>