<svg xmlns="http://www.w3.org/2000/svg" viewBox="100 -566 3560 1871">
  <g transform="translate(0, 739) scale(1, -1)">
    <path fill="black" d="M3188 357Q3147 397 3097.0 443.0Q3047 489 2994.5 534.5Q2942 580 2892.0 621.0Q2842 662 2800.0 692.0Q2758 722 2731 736Q2780 763 2821 806Q2800 828 2778.5 844.5Q2757 861 2731 876Q2761 891 2807.5 925.0Q2854 959 2908.0 1004.0Q2962 1049 3017.5 1098.5Q3073 1148 3122 1193L3110 1199Q3144 1219 3171.0 1244.0Q3198 1269 3225 1305Q3234 1284 3259.5 1248.0Q3285 1212 3322.0 1166.5Q3359 1121 3401.0 1071.5Q3443 1022 3485.0 974.0Q3527 926 3562 885Q3585 862 3608.5 845.0Q3632 828 3660 814Q3633 799 3590.0 761.5Q3547 724 3495.5 673.5Q3444 623 3389.0 566.0Q3334 509 3282.0 455.0Q3230 401 3188 357ZM557 357Q516 397 466.0 443.0Q416 489 363.5 534.5Q311 580 261.0 621.0Q211 662 169.0 692.0Q127 722 100 736Q149 763 190 806Q169 828 147.5 844.5Q126 861 100 876Q130 891 176.5 925.0Q223 959 277.0 1004.0Q331 1049 386.5 1098.5Q442 1148 491 1193L479 1199Q513 1219 540.0 1244.0Q567 1269 594 1305Q603 1284 628.5 1248.0Q654 1212 691.0 1166.5Q728 1121 770.0 1071.5Q812 1022 854.0 974.0Q896 926 931 885Q954 862 977.5 845.0Q1001 828 1029 814Q1002 799 959.0 761.5Q916 724 864.5 673.5Q813 623 758.0 566.0Q703 509 651.0 455.0Q599 401 557 357ZM1434 357Q1393 397 1343.0 443.0Q1293 489 1240.5 534.5Q1188 580 1138.0 621.0Q1088 662 1046.0 692.0Q1004 722 977 736Q1026 763 1067 806Q1046 828 1024.5 844.5Q1003 861 977 876Q1007 891 1053.5 925.0Q1100 959 1154.0 1004.0Q1208 1049 1263.5 1098.5Q1319 1148 1368 1193L1356 1199Q1390 1219 1417.0 1244.0Q1444 1269 1471 1305Q1480 1284 1505.5 1248.0Q1531 1212 1568.0 1166.5Q1605 1121 1647.0 1071.5Q1689 1022 1731.0 974.0Q1773 926 1808 885Q1831 862 1854.5 845.0Q1878 828 1906 814Q1879 799 1836.0 761.5Q1793 724 1741.5 673.5Q1690 623 1635.0 566.0Q1580 509 1528.0 455.0Q1476 401 1434 357ZM2311 357Q2270 397 2220.0 443.0Q2170 489 2117.5 534.5Q2065 580 2015.0 621.0Q1965 662 1923.0 692.0Q1881 722 1854 736Q1903 763 1944 806Q1923 828 1901.5 844.5Q1880 861 1854 876Q1884 891 1930.5 925.0Q1977 959 2031.0 1004.0Q2085 1049 2140.5 1098.5Q2196 1148 2245 1193L2233 1199Q2267 1219 2294.0 1244.0Q2321 1269 2348 1305Q2357 1284 2382.5 1248.0Q2408 1212 2445.0 1166.5Q2482 1121 2524.0 1071.5Q2566 1022 2608.0 974.0Q2650 926 2685 885Q2708 862 2731.5 845.0Q2755 828 2783 814Q2756 799 2713.0 761.5Q2670 724 2618.5 673.5Q2567 623 2512.0 566.0Q2457 509 2405.0 455.0Q2353 401 2311 357ZM558 390Q587 429 624.5 480.5Q662 532 702.0 589.0Q742 646 780.0 701.0Q818 756 848.0 803.0Q878 850 894 882Q851 920 801.0 962.0Q751 1004 700.5 1044.5Q650 1085 603.5 1119.5Q557 1154 521 1176Q484 1131 442.5 1080.0Q401 1029 360.5 978.5Q320 928 287.0 883.0Q254 838 235 806Q257 769 296.0 716.5Q335 664 382.0 605.5Q429 547 475.5 490.5Q522 434 558 390ZM1435 390Q1464 429 1501.5 480.5Q1539 532 1579.0 589.0Q1619 646 1657.0 701.0Q1695 756 1725.0 803.0Q1755 850 1771 882Q1728 920 1678.0 962.0Q1628 1004 1577.5 1044.5Q1527 1085 1480.5 1119.5Q1434 1154 1398 1176Q1361 1131 1319.5 1080.0Q1278 1029 1237.5 978.5Q1197 928 1164.0 883.0Q1131 838 1112 806Q1134 769 1173.0 716.5Q1212 664 1259.0 605.5Q1306 547 1352.5 490.5Q1399 434 1435 390ZM2312 390Q2341 429 2378.5 480.5Q2416 532 2456.0 589.0Q2496 646 2534.0 701.0Q2572 756 2602.0 803.0Q2632 850 2648 882Q2605 920 2555.0 962.0Q2505 1004 2454.5 1044.5Q2404 1085 2357.5 1119.5Q2311 1154 2275 1176Q2238 1131 2196.5 1080.0Q2155 1029 2114.5 978.5Q2074 928 2041.0 883.0Q2008 838 1989 806Q2011 769 2050.0 716.5Q2089 664 2136.0 605.5Q2183 547 2229.5 490.5Q2276 434 2312 390ZM3189 390Q3218 429 3255.5 480.5Q3293 532 3333.0 589.0Q3373 646 3411.0 701.0Q3449 756 3479.0 803.0Q3509 850 3525 882Q3482 920 3432.0 962.0Q3382 1004 3331.5 1044.5Q3281 1085 3234.5 1119.5Q3188 1154 3152 1176Q3115 1131 3073.5 1080.0Q3032 1029 2991.5 978.5Q2951 928 2918.0 883.0Q2885 838 2866 806Q2888 769 2927.0 716.5Q2966 664 3013.0 605.5Q3060 547 3106.5 490.5Q3153 434 3189 390ZM557 -566Q516 -526 466.0 -480.0Q416 -434 363.5 -388.0Q311 -342 261.0 -301.5Q211 -261 169.0 -230.5Q127 -200 100 -187Q126 -172 147.5 -155.5Q169 -139 190 -117Q149 -74 100 -47Q130 -32 176.5 2.0Q223 36 277.0 81.0Q331 126 386.5 175.5Q442 225 491 270L479 276Q513 296 540.0 321.0Q567 346 594 382Q603 361 628.5 325.0Q654 289 691.0 243.5Q728 198 770.0 148.5Q812 99 854.0 51.5Q896 4 931 -37Q954 -60 977.5 -77.5Q1001 -95 1029 -109Q1002 -124 959.0 -161.0Q916 -198 864.5 -249.0Q813 -300 758.0 -356.5Q703 -413 651.0 -467.5Q599 -522 557 -566ZM1434 -566Q1393 -526 1343.0 -480.0Q1293 -434 1240.5 -388.0Q1188 -342 1138.0 -301.5Q1088 -261 1046.0 -230.5Q1004 -200 977 -187Q1003 -172 1024.5 -155.5Q1046 -139 1067 -117Q1026 -74 977 -47Q1007 -32 1053.5 2.0Q1100 36 1154.0 81.0Q1208 126 1263.5 175.5Q1319 225 1368 270L1356 276Q1390 296 1417.0 321.0Q1444 346 1471 382Q1480 361 1505.5 325.0Q1531 289 1568.0 243.5Q1605 198 1647.0 148.5Q1689 99 1731.0 51.5Q1773 4 1808 -37Q1831 -60 1854.5 -77.5Q1878 -95 1906 -109Q1879 -124 1836.0 -161.0Q1793 -198 1741.5 -249.0Q1690 -300 1635.0 -356.5Q1580 -413 1528.0 -467.5Q1476 -522 1434 -566ZM2311 -566Q2270 -526 2220.0 -480.0Q2170 -434 2117.5 -388.0Q2065 -342 2015.0 -301.5Q1965 -261 1923.0 -230.5Q1881 -200 1854 -187Q1880 -172 1901.5 -155.5Q1923 -139 1944 -117Q1903 -74 1854 -47Q1884 -32 1930.5 2.0Q1977 36 2031.0 81.0Q2085 126 2140.5 175.5Q2196 225 2245 270L2233 276Q2267 296 2294.0 321.0Q2321 346 2348 382Q2357 361 2382.5 325.0Q2408 289 2445.0 243.5Q2482 198 2524.0 148.5Q2566 99 2608.0 51.5Q2650 4 2685 -37Q2708 -60 2731.5 -77.5Q2755 -95 2783 -109Q2756 -124 2713.0 -161.0Q2670 -198 2618.5 -249.0Q2567 -300 2512.0 -356.5Q2457 -413 2405.0 -467.5Q2353 -522 2311 -566ZM3188 -566Q3147 -526 3097.0 -480.0Q3047 -434 2994.5 -388.5Q2942 -343 2892.0 -302.0Q2842 -261 2800.0 -231.0Q2758 -201 2731 -187Q2780 -160 2821 -117Q2800 -95 2778.5 -78.5Q2757 -62 2731 -47Q2761 -32 2807.5 2.0Q2854 36 2908.0 81.0Q2962 126 3017.5 175.5Q3073 225 3122 270L3110 276Q3144 296 3171.0 321.0Q3198 346 3225 382Q3234 361 3259.5 325.0Q3285 289 3322.0 243.5Q3359 198 3401.0 148.5Q3443 99 3485.0 51.0Q3527 3 3562 -38Q3585 -61 3608.5 -78.0Q3632 -95 3660 -109Q3633 -124 3590.0 -161.5Q3547 -199 3495.5 -249.5Q3444 -300 3389.0 -357.0Q3334 -414 3282.0 -468.0Q3230 -522 3188 -566ZM558 -533Q587 -493 624.5 -441.5Q662 -390 702.0 -333.0Q742 -276 780.0 -221.0Q818 -166 848.0 -119.0Q878 -72 894 -40Q851 -2 801.0 39.5Q751 81 700.5 121.5Q650 162 603.5 196.5Q557 231 521 253Q484 208 442.5 157.0Q401 106 360.5 55.5Q320 5 287.0 -40.0Q254 -85 235 -117Q257 -153 296.0 -205.5Q335 -258 382.0 -316.5Q429 -375 475.5 -431.5Q522 -488 558 -533ZM1435 -533Q1464 -493 1501.5 -441.5Q1539 -390 1579.0 -333.0Q1619 -276 1657.0 -221.0Q1695 -166 1725.0 -119.0Q1755 -72 1771 -40Q1728 -2 1678.0 39.5Q1628 81 1577.5 121.5Q1527 162 1480.5 196.5Q1434 231 1398 253Q1361 208 1319.5 157.0Q1278 106 1237.5 55.5Q1197 5 1164.0 -40.0Q1131 -85 1112 -117Q1134 -153 1173.0 -205.5Q1212 -258 1259.0 -316.5Q1306 -375 1352.5 -431.5Q1399 -488 1435 -533ZM2312 -533Q2341 -493 2378.5 -441.5Q2416 -390 2456.0 -333.0Q2496 -276 2534.0 -221.0Q2572 -166 2602.0 -119.0Q2632 -72 2648 -40Q2605 -2 2555.0 39.5Q2505 81 2454.5 121.5Q2404 162 2357.5 196.5Q2311 231 2275 253Q2238 208 2196.5 157.0Q2155 106 2114.5 55.5Q2074 5 2041.0 -40.0Q2008 -85 1989 -117Q2011 -153 2050.0 -205.5Q2089 -258 2136.0 -316.5Q2183 -375 2229.5 -431.5Q2276 -488 2312 -533ZM3189 -533Q3218 -494 3255.5 -442.5Q3293 -391 3333.0 -334.0Q3373 -277 3411.0 -222.0Q3449 -167 3479.0 -120.0Q3509 -73 3525 -41Q3482 -3 3432.0 39.0Q3382 81 3331.5 121.5Q3281 162 3234.5 196.5Q3188 231 3152 253Q3115 208 3073.5 157.0Q3032 106 2991.5 55.5Q2951 5 2918.0 -40.0Q2885 -85 2866 -117Q2888 -154 2927.0 -206.5Q2966 -259 3013.0 -317.5Q3060 -376 3106.5 -432.5Q3153 -489 3189 -533Z" />
  </g>
</svg>