<svg xmlns="http://www.w3.org/2000/svg" viewBox="100 -125 929 948">
  <g transform="translate(0, 698) scale(1, -1)">
    <path fill="black" d="M557 -125 542 -114 543 -112Q505 -76 457.0 -32.5Q409 11 358.0 55.5Q307 100 258.5 140.0Q210 180 169.0 210.0Q128 240 100 254Q149 281 190 324Q169 346 147.5 362.5Q126 379 100 394Q130 409 176.5 443.0Q223 477 277.0 522.0Q331 567 386.5 616.5Q442 666 491 711L479 717Q513 737 540.0 762.0Q567 787 594 823Q603 802 628.5 766.0Q654 730 691.0 684.5Q728 639 770.0 589.5Q812 540 854.0 492.0Q896 444 931 403Q954 380 977.5 363.0Q1001 346 1029 332Q1002 317 959.5 280.0Q917 243 865.5 192.5Q814 142 760.5 87.0Q707 32 658.5 -19.0Q610 -70 572 -109L573 -110ZM558 -92Q587 -53 624.5 -1.5Q662 50 702.0 107.0Q742 164 780.0 219.0Q818 274 848.0 321.0Q878 368 894 400Q851 438 801.0 480.0Q751 522 700.5 562.5Q650 603 603.5 637.5Q557 672 521 694Q484 649 442.5 598.0Q401 547 360.5 496.5Q320 446 287.0 401.0Q254 356 235 324Q257 287 296.0 234.5Q335 182 382.0 123.5Q429 65 475.5 8.5Q522 -48 558 -92ZM598 132Q561 167 517.5 203.0Q474 239 431.5 270.5Q389 302 355 323Q387 347 427.0 381.5Q467 416 508.0 455.5Q549 495 585 534L604 523Q579 468 552.0 416.5Q525 365 502 326Q517 307 537.0 276.5Q557 246 578.0 212.0Q599 178 616 146Z" />
  </g>
</svg>