<svg xmlns="http://www.w3.org/2000/svg" viewBox="100 -125 1806 948">
  <g transform="translate(0, 698) scale(1, -1)">
    <path fill="black" d="M1434 -125Q1393 -85 1343.0 -39.0Q1293 7 1240.5 52.5Q1188 98 1138.0 139.0Q1088 180 1046.0 210.0Q1004 240 977 254Q1026 281 1067 324Q1046 346 1024.5 362.5Q1003 379 977 394Q1007 409 1053.5 443.0Q1100 477 1154.0 522.0Q1208 567 1263.5 616.5Q1319 666 1368 711L1356 717Q1390 737 1417.0 762.0Q1444 787 1471 823Q1480 802 1505.5 766.0Q1531 730 1568.0 684.5Q1605 639 1647.0 589.5Q1689 540 1731.0 492.0Q1773 444 1808 403Q1831 380 1854.5 363.0Q1878 346 1906 332Q1879 317 1836.0 279.5Q1793 242 1741.5 191.5Q1690 141 1635.0 84.0Q1580 27 1528.0 -27.0Q1476 -81 1434 -125ZM557 -125Q516 -85 466.0 -39.0Q416 7 363.5 52.5Q311 98 261.0 139.0Q211 180 169.0 210.0Q127 240 100 254Q149 281 190 324Q169 346 147.5 362.5Q126 379 100 394Q130 409 176.5 443.0Q223 477 277.0 522.0Q331 567 386.5 616.5Q442 666 491 711L479 717Q513 737 540.0 762.0Q567 787 594 823Q603 802 628.5 766.0Q654 730 691.0 684.5Q728 639 770.0 589.5Q812 540 854.0 492.0Q896 444 931 403Q954 380 977.5 363.0Q1001 346 1029 332Q1002 317 959.0 279.5Q916 242 864.5 191.5Q813 141 758.0 84.0Q703 27 651.0 -27.0Q599 -81 557 -125ZM558 -92Q587 -53 624.5 -1.5Q662 50 702.0 107.0Q742 164 780.0 219.0Q818 274 848.0 321.0Q878 368 894 400Q851 438 801.0 480.0Q751 522 700.5 562.5Q650 603 603.5 637.5Q557 672 521 694Q484 649 442.5 598.0Q401 547 360.5 496.5Q320 446 287.0 401.0Q254 356 235 324Q257 287 296.0 234.5Q335 182 382.0 123.5Q429 65 475.5 8.5Q522 -48 558 -92ZM1435 -92Q1464 -53 1501.5 -1.5Q1539 50 1579.0 107.0Q1619 164 1657.0 219.0Q1695 274 1725.0 321.0Q1755 368 1771 400Q1728 438 1678.0 480.0Q1628 522 1577.5 562.5Q1527 603 1480.5 637.5Q1434 672 1398 694Q1361 649 1319.5 598.0Q1278 547 1237.5 496.5Q1197 446 1164.0 401.0Q1131 356 1112 324Q1134 287 1173.0 234.5Q1212 182 1259.0 123.5Q1306 65 1352.5 8.5Q1399 -48 1435 -92ZM598 132Q561 167 517.5 203.0Q474 239 431.5 270.5Q389 302 355 323Q387 347 427.0 381.5Q467 416 508.0 455.5Q549 495 585 534L604 523Q579 468 552.0 416.5Q525 365 502 326Q517 307 537.0 276.5Q557 246 578.0 212.0Q599 178 616 146ZM1475 132Q1438 167 1394.5 203.0Q1351 239 1308.5 270.5Q1266 302 1232 323Q1264 347 1304.0 381.5Q1344 416 1385.0 455.5Q1426 495 1462 534L1481 523Q1456 468 1429.0 416.5Q1402 365 1379 326Q1394 307 1414.0 276.5Q1434 246 1455.0 212.0Q1476 178 1493 146Z" />
  </g>
</svg>