<svg xmlns="http://www.w3.org/2000/svg" viewBox="100 -187 915 1030">
  <g transform="translate(0, 656) scale(1, -1)">
    <path fill="black" d="M621 -187Q593 -151 564.0 -126.0Q535 -101 499 -81L507 -77Q458 -32 402.0 16.5Q346 65 290.0 110.0Q234 155 184.5 189.5Q135 224 100 240Q130 257 155.5 278.5Q181 300 204 328Q181 357 155.5 378.0Q130 399 100 416Q134 432 183.5 466.0Q233 500 289.5 545.0Q346 590 403.0 638.0Q460 686 509 731L499 737Q535 757 564.0 782.0Q593 807 621 843Q629 823 653.0 786.5Q677 750 712.5 703.5Q748 657 789.0 606.0Q830 555 872.0 504.0Q914 453 951.0 408.5Q988 364 1015 330Q988 297 951.0 251.5Q914 206 872.0 155.0Q830 104 789.0 52.0Q748 0 712.5 -46.5Q677 -93 653.0 -129.5Q629 -166 621 -187ZM531 -62Q578 -32 646.0 24.5Q714 81 784 144Q782 216 773 305Q736 301 699 293Q695 251 691.5 210.0Q688 169 686 137H671Q671 168 668.5 207.0Q666 246 662 286Q625 279 598 269Q601 285 602.0 297.5Q603 310 603 323Q603 336 602.0 348.0Q601 360 598 379Q621 372 652 364Q647 402 640.0 434.5Q633 467 626 488Q640 486 653.5 484.5Q667 483 680 483Q705 483 735 488Q727 466 720.0 430.0Q713 394 707 353Q721 350 736.5 347.5Q752 345 768 343Q762 388 754.5 426.5Q747 465 739 488Q753 486 766.5 484.5Q780 483 793 483Q799 483 805.0 483.0Q811 483 818 484Q767 530 715.5 574.0Q664 618 617.5 655.0Q571 692 535 715Q499 672 456.5 622.5Q414 573 373 523Q397 516 438.0 507.0Q479 498 521 493Q516 522 510.5 544.5Q505 567 499 582Q532 576 567 576Q598 576 634 582Q625 561 616.5 516.0Q608 471 600.0 411.5Q592 352 586.5 288.5Q581 225 577.5 166.5Q574 108 574 64H559Q559 88 558.0 117.0Q557 146 555 177Q526 175 488.5 168.0Q451 161 417.0 153.5Q383 146 364 139Q406 87 450.0 35.0Q494 -17 531 -62ZM357 148Q360 165 360 183Q360 194 359.0 205.5Q358 217 356 229Q366 225 389.0 218.5Q412 212 441.5 206.0Q471 200 501.0 195.0Q531 190 555 188Q554 209 552.0 231.0Q550 253 548 275Q516 272 475.5 264.5Q435 257 402.0 249.5Q369 242 356 236Q358 247 359.0 258.5Q360 270 360 281Q360 292 359.0 304.0Q358 316 356 329Q368 323 401.0 315.0Q434 307 474.0 300.0Q514 293 547 289Q544 333 538 375Q506 371 468.0 364.0Q430 357 399.0 349.5Q368 342 356 336Q358 347 359.0 358.0Q360 369 360 380Q360 392 359.0 404.0Q358 416 356 429Q368 424 398.0 416.5Q428 409 465.5 402.0Q503 395 536 391Q534 413 531.0 433.5Q528 454 525 473Q490 469 455.0 462.0Q420 455 393.5 448.0Q367 441 356 436Q358 447 359.0 459.0Q360 471 360 483Q360 489 359.5 494.5Q359 500 359 506Q316 454 281.0 406.5Q246 359 229 327Q246 294 280.5 247.5Q315 201 357 148ZM800 158Q853 205 900.5 250.0Q948 295 985 330Q955 358 918.0 392.5Q881 427 840 464Q834 439 828.5 406.5Q823 374 818 338Q841 335 863.5 333.5Q886 332 907 331V315Q885 315 861.5 313.5Q838 312 814 310Q805 227 800 158Z" />
  </g>
</svg>