<svg xmlns="http://www.w3.org/2000/svg" viewBox="100 -142 463 940">
  <g transform="translate(0, 656) scale(1, -1)">
    <path fill="black" d="M351 -142Q341 -127 330.0 -113.5Q319 -100 308 -89Q296 -77 283.0 -66.5Q270 -56 255 -47Q276 -36 308.0 -16.5Q340 3 377 27L324 87Q298 50 277.0 17.5Q256 -15 246 -37Q236 -22 225.0 -8.5Q214 5 203 16Q191 28 178.0 38.5Q165 49 150 58Q173 69 207.0 90.0Q241 111 279 137Q224 200 180.0 247.5Q136 295 100 328Q135 363 178.0 410.5Q221 458 277 519Q240 545 206.0 566.0Q172 587 150 598Q165 607 178.0 617.5Q191 628 203 640Q214 651 225.0 664.5Q236 678 246 693Q256 671 276.5 638.5Q297 606 322 570L376 629Q340 654 308.0 673.5Q276 693 255 703Q270 712 283.0 722.5Q296 733 308 745Q319 756 330.0 769.5Q341 783 351 798Q361 778 380.0 747.0Q399 716 423 681L501 766L527 751Q508 721 490.5 692.0Q473 663 456 634Q484 597 512.0 561.5Q540 526 563 501L552 490Q530 513 498.0 539.0Q466 565 431 591Q401 540 377 495Q398 467 419.0 441.5Q440 416 458 396L447 385Q430 402 407.0 422.0Q384 442 358 461Q336 420 319.0 385.5Q302 351 292 328Q302 304 319.0 270.0Q336 236 358 194Q411 235 447 271L458 260Q440 241 419.0 215.0Q398 189 377 160Q389 138 402.5 114.5Q416 91 431 65Q466 91 498.0 117.5Q530 144 552 166L563 155Q540 130 512.0 94.5Q484 59 456 21Q473 -7 490.5 -35.5Q508 -64 527 -95L501 -110L423 -25Q399 -59 380.0 -90.5Q361 -122 351 -142Z" />
  </g>
</svg>