<svg xmlns="http://www.w3.org/2000/svg" viewBox="100 -142 1203 940">
  <g transform="translate(0, 656) scale(1, -1)">
    <path fill="black" d="M351 -142Q341 -127 330.0 -113.5Q319 -100 308 -89Q296 -77 283.0 -66.5Q270 -56 255 -47Q276 -36 308.0 -16.5Q340 3 377 27L324 87Q298 50 277.0 17.5Q256 -15 246 -37Q236 -22 225.0 -8.5Q214 5 203 16Q191 28 178.0 38.5Q165 49 150 58Q173 69 207.0 90.0Q241 111 279 137Q224 200 180.0 247.5Q136 295 100 328Q135 363 178.0 410.5Q221 458 277 519Q240 545 206.0 566.0Q172 587 150 598Q165 607 178.0 617.5Q191 628 203 640Q214 651 225.0 664.5Q236 678 246 693Q256 671 276.5 638.5Q297 606 322 570L376 629Q340 654 308.0 673.5Q276 693 255 703Q270 712 283.0 722.5Q296 733 308 745Q319 756 330.0 769.5Q341 783 351 798Q361 778 380.0 747.0Q399 716 423 681L501 766L527 751Q508 721 490.5 692.0Q473 663 456 634Q484 597 512.0 561.5Q540 526 563 501L552 490Q530 513 498.0 539.0Q466 565 431 591Q401 540 377 495Q398 467 419.0 441.5Q440 416 458 396L447 385Q430 402 407.0 422.0Q384 442 358 461Q336 420 319.0 385.5Q302 351 292 328Q302 304 319.0 270.0Q336 236 358 194Q411 235 447 271L458 260Q440 241 419.0 215.0Q398 189 377 160Q389 138 402.5 114.5Q416 91 431 65Q466 91 498.0 117.5Q530 144 552 166L563 155Q540 130 512.0 94.5Q484 59 456 21Q473 -7 490.5 -35.5Q508 -64 527 -95L501 -110L423 -25Q399 -59 380.0 -90.5Q361 -122 351 -142ZM1091 -142Q1081 -127 1070.0 -113.5Q1059 -100 1048 -89Q1036 -77 1023.0 -66.5Q1010 -56 995 -47Q1016 -36 1048.0 -16.5Q1080 3 1117 27L1064 87Q1038 50 1017.0 17.5Q996 -15 986 -37Q976 -22 965.0 -8.5Q954 5 943 16Q931 28 918.0 38.5Q905 49 890 58Q913 69 947.0 90.0Q981 111 1019 137Q964 200 920.0 247.5Q876 295 840 328Q875 363 918.0 410.5Q961 458 1017 519Q980 545 946.0 566.0Q912 587 890 598Q905 607 918.0 617.5Q931 628 943 640Q954 651 965.0 664.5Q976 678 986 693Q996 671 1016.5 638.5Q1037 606 1062 570L1116 629Q1080 654 1048.0 673.5Q1016 693 995 703Q1010 712 1023.0 722.5Q1036 733 1048 745Q1059 756 1070.0 769.5Q1081 783 1091 798Q1101 778 1120.0 747.0Q1139 716 1163 681L1241 766L1267 751Q1248 721 1230.5 692.0Q1213 663 1196 634Q1224 597 1252.0 561.5Q1280 526 1303 501L1292 490Q1270 513 1238.0 539.0Q1206 565 1171 591Q1141 540 1117 495Q1138 467 1159.0 441.5Q1180 416 1198 396L1187 385Q1170 402 1147.0 422.0Q1124 442 1098 461Q1076 420 1059.0 385.5Q1042 351 1032 328Q1042 304 1059.0 270.0Q1076 236 1098 194Q1151 235 1187 271L1198 260Q1180 241 1159.0 215.0Q1138 189 1117 160Q1129 138 1142.5 114.5Q1156 91 1171 65Q1206 91 1238.0 117.5Q1270 144 1292 166L1303 155Q1280 130 1252.0 94.5Q1224 59 1196 21Q1213 -7 1230.5 -35.5Q1248 -64 1267 -95L1241 -110L1163 -25Q1139 -59 1120.0 -90.5Q1101 -122 1091 -142ZM721 -142Q711 -127 700.0 -113.5Q689 -100 678 -89Q666 -77 653.0 -66.5Q640 -56 625 -47Q646 -36 678.0 -16.5Q710 3 747 27L694 87Q668 50 647.0 17.5Q626 -15 616 -37Q606 -22 595.0 -8.5Q584 5 573 16Q561 28 548.0 38.5Q535 49 520 58Q543 69 577.0 90.0Q611 111 649 137Q594 200 550.0 247.5Q506 295 470 328Q505 363 548.0 410.5Q591 458 647 519Q610 545 576.0 566.0Q542 587 520 598Q535 607 548.0 617.5Q561 628 573 640Q584 651 595.0 664.5Q606 678 616 693Q626 671 646.5 638.5Q667 606 692 570L746 629Q710 654 678.0 673.5Q646 693 625 703Q640 712 653.0 722.5Q666 733 678 745Q689 756 700.0 769.5Q711 783 721 798Q731 778 750.0 747.0Q769 716 793 681L871 766L897 751Q878 721 860.5 692.0Q843 663 826 634Q854 597 882.0 561.5Q910 526 933 501L922 490Q900 513 868.0 539.0Q836 565 801 591Q771 540 747 495Q768 467 789.0 441.5Q810 416 828 396L817 385Q800 402 777.0 422.0Q754 442 728 461Q706 420 689.0 385.5Q672 351 662 328Q672 304 689.0 270.0Q706 236 728 194Q781 235 817 271L828 260Q810 241 789.0 215.0Q768 189 747 160Q759 138 772.5 114.5Q786 91 801 65Q836 91 868.0 117.5Q900 144 922 166L933 155Q910 130 882.0 94.5Q854 59 826 21Q843 -7 860.5 -35.5Q878 -64 897 -95L871 -110L793 -25Q769 -59 750.0 -90.5Q731 -122 721 -142Z" />
  </g>
</svg>