<svg xmlns="http://www.w3.org/2000/svg" viewBox="100 195 747 505">
  <g transform="translate(0, 895) scale(1, -1)">
    <path fill="black" d="M100 465Q105 491 107.5 520.0Q110 549 110 580Q110 609 107.5 639.5Q105 670 100 700Q127 685 174.0 667.5Q221 650 276.0 634.0Q331 618 385.5 607.5Q440 597 482 597Q481 623 479.0 649.0Q477 675 472 700Q500 685 545.5 667.5Q591 650 645.0 633.5Q699 617 752.0 607.0Q805 597 847 597V568Q805 568 752.0 558.0Q699 548 645.0 531.5Q591 515 545.5 497.5Q500 480 472 465Q477 488 479.0 514.0Q481 540 482 568Q440 568 385.5 557.5Q331 547 276.0 531.0Q221 515 174.0 497.5Q127 480 100 465ZM100 195Q105 221 107.5 250.0Q110 279 110 310Q110 339 107.5 369.5Q105 400 100 430Q128 415 175.0 397.5Q222 380 278.0 363.5Q334 347 388.5 337.0Q443 327 485 327V298Q443 298 388.5 288.0Q334 278 278.0 261.5Q222 245 175.0 227.5Q128 210 100 195Z" />
  </g>
</svg>