<svg xmlns="http://www.w3.org/2000/svg" viewBox="100 -112 733 848">
  <g transform="translate(0, 624) scale(1, -1)">
    <path fill="black" d="M203 301Q203 335 196.5 382.0Q190 429 178.5 481.0Q167 533 153.5 583.0Q140 633 126.0 673.5Q112 714 100 736Q126 731 155.0 728.5Q184 726 215 726Q244 726 274.5 728.5Q305 731 335 736Q323 714 309.0 673.5Q295 633 281.5 583.0Q268 533 256.5 481.0Q245 429 238.5 382.0Q232 335 232 301ZM452 301Q452 335 445.5 382.0Q439 429 427.5 481.0Q416 533 402.5 583.0Q389 633 375.0 673.5Q361 714 349 736Q375 731 404.0 728.5Q433 726 464 726Q493 726 523.5 728.5Q554 731 584 736Q572 714 558.0 673.5Q544 633 530.5 583.0Q517 533 505.5 481.0Q494 429 487.5 382.0Q481 335 481 301ZM701 301Q701 335 694.5 382.0Q688 429 676.5 481.0Q665 533 651.5 583.0Q638 633 624.0 673.5Q610 714 598 736Q624 731 653.0 728.5Q682 726 713 726Q742 726 772.5 728.5Q803 731 833 736Q821 714 807.0 673.5Q793 633 779.5 583.0Q766 533 754.5 481.0Q743 429 736.5 382.0Q730 335 730 301ZM444 -112Q444 -21 421.0 51.5Q398 124 362.5 187.0Q327 250 289 310Q318 304 368.0 300.0Q418 296 467 296Q514 296 564.0 300.0Q614 304 645 310Q607 250 571.5 187.0Q536 124 513.0 51.5Q490 -21 490 -112Z" />
  </g>
</svg>