<svg xmlns="http://www.w3.org/2000/svg" viewBox="100 -55 928 733">
  <g transform="translate(0, 623) scale(1, -1)">
    <path fill="black" d="M100 443Q105 469 107.5 498.0Q110 527 110 558Q110 587 107.5 617.5Q105 648 100 678Q122 666 165.5 652.0Q209 638 264.5 624.5Q320 611 378.0 600.0Q436 589 487.0 582.0Q538 575 572 575Q571 601 569.0 627.0Q567 653 562 678Q584 666 627.5 652.0Q671 638 725.5 624.5Q780 611 837.0 599.5Q894 588 944.0 581.5Q994 575 1028 575V546Q994 546 944.0 539.5Q894 533 837.0 521.5Q780 510 725.5 496.5Q671 483 627.5 469.0Q584 455 562 443Q567 466 569.0 492.0Q571 518 572 546Q538 546 487.0 539.0Q436 532 378.0 520.5Q320 509 264.5 495.5Q209 482 165.5 468.5Q122 455 100 443ZM100 195Q105 221 107.5 249.5Q110 278 110 309Q110 338 107.5 368.5Q105 399 100 429Q122 417 166.5 403.0Q211 389 267.0 375.5Q323 362 381.0 350.5Q439 339 490.0 332.5Q541 326 575 326V297Q541 297 490.0 290.5Q439 284 381.0 273.0Q323 262 267.0 248.5Q211 235 166.5 221.0Q122 207 100 195ZM100 -55Q105 -29 107.5 0.5Q110 30 110 61Q110 90 107.5 120.5Q105 151 100 181Q122 169 166.5 155.0Q211 141 267.0 127.0Q323 113 381.0 102.0Q439 91 490.0 84.0Q541 77 575 77V48Q541 48 490.0 41.5Q439 35 381.0 23.5Q323 12 267.0 -1.5Q211 -15 166.5 -29.0Q122 -43 100 -55Z" />
  </g>
</svg>