<svg xmlns="http://www.w3.org/2000/svg" viewBox="100 -178 733 1012">
  <g transform="translate(0, 656) scale(1, -1)">
    <path fill="black" d="M203 499Q203 541 193.0 588.0Q183 635 166.5 681.0Q150 727 132.5 766.5Q115 806 100 834Q126 829 155.0 826.5Q184 824 215 824Q244 824 274.5 826.5Q305 829 335 834Q320 806 302.5 766.5Q285 727 268.5 681.0Q252 635 242.0 588.0Q232 541 232 499ZM452 499Q452 541 442.0 588.0Q432 635 415.5 681.0Q399 727 381.5 766.5Q364 806 349 834Q375 829 404.0 826.5Q433 824 464 824Q493 824 523.5 826.5Q554 829 584 834Q569 806 551.5 766.5Q534 727 517.5 681.0Q501 635 491.0 588.0Q481 541 481 499ZM701 499Q701 541 691.0 588.0Q681 635 664.5 681.0Q648 727 630.5 766.5Q613 806 598 834Q624 829 653.0 826.5Q682 824 713 824Q742 824 772.5 826.5Q803 829 833 834Q818 806 800.5 766.5Q783 727 766.5 681.0Q750 635 740.0 588.0Q730 541 730 499ZM203 167Q203 209 193.0 256.0Q183 303 166.5 349.0Q150 395 132.5 434.5Q115 474 100 502Q126 497 155.0 494.5Q184 492 215 492Q244 492 274.5 494.5Q305 497 335 502Q320 474 302.5 434.5Q285 395 268.5 349.0Q252 303 242.0 256.0Q232 209 232 167ZM452 167Q452 209 442.0 256.0Q432 303 415.5 349.0Q399 395 381.5 434.5Q364 474 349 502Q375 497 404.0 494.5Q433 492 464 492Q493 492 523.5 494.5Q554 497 584 502Q569 474 551.5 434.5Q534 395 517.5 349.0Q501 303 491.0 256.0Q481 209 481 167ZM701 167Q701 209 691.0 256.0Q681 303 664.5 349.0Q648 395 630.5 434.5Q613 474 598 502Q624 497 653.0 494.5Q682 492 713 492Q742 492 772.5 494.5Q803 497 833 502Q818 474 800.5 434.5Q783 395 766.5 349.0Q750 303 740.0 256.0Q730 209 730 167ZM444 -178Q444 -96 419.0 -33.0Q394 30 358.5 80.5Q323 131 289 174Q318 168 368.0 164.0Q418 160 467 160Q514 160 564.0 164.0Q614 168 645 174Q612 131 576.0 80.5Q540 30 515.0 -33.0Q490 -96 490 -178Z" />
  </g>
</svg>