<svg xmlns="http://www.w3.org/2000/svg" viewBox="100 -112 982 848">
  <g transform="translate(0, 624) scale(1, -1)">
    <path fill="black" d="M952 -112Q952 93 935.5 253.0Q919 413 894.5 533.0Q870 653 847 736Q873 730 905.0 727.0Q937 724 964 724Q991 724 1022.5 727.0Q1054 730 1082 736Q1059 653 1035.0 533.5Q1011 414 994.5 254.0Q978 94 978 -112ZM203 309Q203 343 196.5 389.0Q190 435 178.5 486.0Q167 537 153.5 586.0Q140 635 126.0 674.5Q112 714 100 736Q126 731 155.0 728.5Q184 726 215 726Q244 726 274.5 728.5Q305 731 335 736Q323 714 309.0 674.5Q295 635 281.5 586.0Q268 537 256.5 486.0Q245 435 238.5 389.0Q232 343 232 309ZM452 309Q452 343 445.5 389.0Q439 435 427.5 486.0Q416 537 402.5 586.0Q389 635 375.0 674.5Q361 714 349 736Q375 731 404.0 728.5Q433 726 464 726Q493 726 523.5 728.5Q554 731 584 736Q572 714 558.0 674.5Q544 635 530.5 586.0Q517 537 505.5 486.0Q494 435 487.5 389.0Q481 343 481 309ZM701 309Q701 343 694.5 389.0Q688 435 676.5 486.0Q665 537 651.5 586.0Q638 635 624.0 674.5Q610 714 598 736Q624 731 653.0 728.5Q682 726 713 726Q742 726 772.5 728.5Q803 731 833 736Q821 714 807.0 674.5Q793 635 779.5 586.0Q766 537 754.5 486.0Q743 435 736.5 389.0Q730 343 730 309ZM203 -111Q203 -77 196.5 -31.0Q190 15 178.5 65.5Q167 116 153.5 164.5Q140 213 126.0 252.5Q112 292 100 314Q126 309 155.0 306.5Q184 304 215 304Q244 304 274.5 306.5Q305 309 335 314Q323 292 309.0 252.5Q295 213 281.5 164.5Q268 116 256.5 65.5Q245 15 238.5 -31.0Q232 -77 232 -111ZM452 -111Q452 -77 445.5 -31.0Q439 15 427.5 65.5Q416 116 402.5 164.5Q389 213 375.0 252.5Q361 292 349 314Q375 309 404.0 306.5Q433 304 464 304Q493 304 523.5 306.5Q554 309 584 314Q572 292 558.0 252.5Q544 213 530.5 164.5Q517 116 505.5 65.5Q494 15 487.5 -31.0Q481 -77 481 -111ZM701 -111Q701 -77 694.5 -31.0Q688 15 676.5 65.5Q665 116 651.5 164.5Q638 213 624.0 252.5Q610 292 598 314Q624 309 653.0 306.5Q682 304 713 304Q742 304 772.5 306.5Q803 309 833 314Q821 292 807.0 252.5Q793 213 779.5 164.5Q766 116 754.5 65.5Q743 15 736.5 -31.0Q730 -77 730 -111Z" />
  </g>
</svg>