<svg xmlns="http://www.w3.org/2000/svg" viewBox="100 -55 1277 733">
  <g transform="translate(0, 623) scale(1, -1)">
    <path fill="black" d="M100 443Q105 469 107.5 498.0Q110 527 110 558Q110 587 107.5 617.5Q105 648 100 678Q122 666 161.5 652.0Q201 638 250.5 624.5Q300 611 352.0 600.0Q404 589 451.0 582.0Q498 575 532 575Q531 601 529.0 627.0Q527 653 522 678Q544 666 583.5 652.0Q623 638 671.5 624.5Q720 611 771.0 599.5Q822 588 868.0 581.5Q914 575 948 575V546Q914 546 868.0 539.5Q822 533 771.0 521.5Q720 510 671.5 496.5Q623 483 583.5 469.0Q544 455 522 443Q527 466 529.0 492.0Q531 518 532 546Q498 546 451.0 539.0Q404 532 352.0 520.5Q300 509 250.5 495.5Q201 482 161.5 468.5Q122 455 100 443ZM951 318Q956 344 958.5 373.0Q961 402 961 433Q961 462 958.5 492.5Q956 523 951 553Q973 541 1012.5 527.0Q1052 513 1100.5 499.5Q1149 486 1200.0 474.5Q1251 463 1297.0 456.5Q1343 450 1377 450V421Q1343 421 1297.0 414.5Q1251 408 1200.0 396.5Q1149 385 1100.5 371.5Q1052 358 1012.5 344.0Q973 330 951 318ZM522 194Q527 217 529.0 243.0Q531 269 532 297Q498 297 451.0 290.0Q404 283 352.0 272.0Q300 261 250.5 247.5Q201 234 161.5 220.5Q122 207 100 195Q105 221 107.5 249.5Q110 278 110 309Q110 338 107.5 368.5Q105 399 100 429Q122 417 161.5 403.0Q201 389 250.5 375.5Q300 362 352.0 351.0Q404 340 451.0 333.0Q498 326 532 326Q531 352 529.0 378.0Q527 404 522 429Q544 417 583.5 403.0Q623 389 671.5 375.5Q720 362 771.0 350.5Q822 339 868.0 332.5Q914 326 948 326V297Q914 297 868.0 290.5Q822 284 771.0 272.5Q720 261 671.5 247.5Q623 234 583.5 220.0Q544 206 522 194ZM951 69Q956 95 958.5 124.0Q961 153 961 184Q961 213 958.5 243.5Q956 274 951 304Q973 292 1012.5 278.0Q1052 264 1100.5 250.5Q1149 237 1200.0 225.5Q1251 214 1297.0 207.5Q1343 201 1377 201V172Q1343 172 1297.0 165.5Q1251 159 1200.0 147.5Q1149 136 1100.5 122.5Q1052 109 1012.5 95.0Q973 81 951 69ZM100 -55Q105 -29 107.5 0.5Q110 30 110 61Q110 90 107.5 120.5Q105 151 100 181Q122 169 161.5 155.0Q201 141 250.5 127.5Q300 114 352.0 102.5Q404 91 451.0 84.0Q498 77 532 77Q531 103 529.0 129.0Q527 155 522 180Q544 168 583.5 154.0Q623 140 671.5 126.5Q720 113 771.0 101.5Q822 90 868.0 83.5Q914 77 948 77V48Q914 48 868.0 41.5Q822 35 771.0 23.5Q720 12 671.5 -1.5Q623 -15 583.5 -29.0Q544 -43 522 -55Q527 -31 529.0 -5.5Q531 20 532 48Q498 48 451.0 41.0Q404 34 352.0 23.0Q300 12 250.5 -1.5Q201 -15 161.5 -29.0Q122 -43 100 -55Z" />
  </g>
</svg>