<svg xmlns="http://www.w3.org/2000/svg" viewBox="100 -55 1109 733">
  <g transform="translate(0, 623) scale(1, -1)">
    <path fill="black" d="M100 443Q105 469 107.5 498.0Q110 527 110 558Q110 587 107.5 617.5Q105 648 100 678Q127 663 174.0 645.5Q221 628 276.0 612.0Q331 596 385.5 585.5Q440 575 482 575Q481 601 479.0 627.0Q477 653 472 678Q499 663 544.5 645.5Q590 628 643.0 612.0Q696 596 749.0 585.5Q802 575 844 575Q843 601 841.0 627.0Q839 653 834 678Q862 663 907.5 645.5Q953 628 1007.0 611.5Q1061 595 1114.0 585.0Q1167 575 1209 575V546Q1167 546 1114.0 536.0Q1061 526 1007.0 509.5Q953 493 907.5 475.5Q862 458 834 443Q839 466 841.0 492.0Q843 518 844 546Q802 546 749.0 535.5Q696 525 643.0 509.0Q590 493 544.5 475.5Q499 458 472 443Q477 466 479.0 492.0Q481 518 482 546Q440 546 385.5 535.5Q331 525 276.0 509.0Q221 493 174.0 475.5Q127 458 100 443ZM100 194Q105 220 107.5 249.0Q110 278 110 309Q110 338 107.5 368.5Q105 399 100 429Q127 414 174.0 396.5Q221 379 276.0 363.0Q331 347 385.5 336.5Q440 326 482 326Q481 352 479.0 378.0Q477 404 472 429Q499 414 544.5 396.5Q590 379 643.0 363.0Q696 347 749.0 336.5Q802 326 844 326Q843 352 841.0 378.0Q839 404 834 429Q862 414 907.5 396.5Q953 379 1007.0 362.5Q1061 346 1114.0 336.0Q1167 326 1209 326V297Q1167 297 1114.0 287.0Q1061 277 1007.0 260.5Q953 244 907.5 226.5Q862 209 834 194Q839 217 841.0 243.0Q843 269 844 297Q802 297 749.0 286.5Q696 276 643.0 260.0Q590 244 544.5 226.5Q499 209 472 194Q477 217 479.0 243.0Q481 269 482 297Q440 297 385.5 286.5Q331 276 276.0 260.0Q221 244 174.0 226.5Q127 209 100 194ZM100 -55Q105 -29 107.5 0.0Q110 29 110 60Q110 89 107.5 119.5Q105 150 100 180Q127 165 174.0 147.5Q221 130 276.0 114.0Q331 98 385.5 87.5Q440 77 482 77Q481 103 479.0 129.0Q477 155 472 180Q499 165 544.5 147.5Q590 130 643.0 114.0Q696 98 749.0 87.5Q802 77 844 77Q843 103 841.0 129.0Q839 155 834 180Q862 165 907.5 147.5Q953 130 1007.0 113.5Q1061 97 1114.0 87.0Q1167 77 1209 77V48Q1167 48 1114.0 38.0Q1061 28 1007.0 11.5Q953 -5 907.5 -22.5Q862 -40 834 -55Q839 -31 841.0 -5.5Q843 20 844 48Q802 48 749.0 37.5Q696 27 643.0 11.0Q590 -5 544.5 -22.5Q499 -40 472 -55Q477 -31 479.0 -5.5Q481 20 482 48Q440 48 385.5 37.5Q331 27 276.0 11.0Q221 -5 174.0 -22.5Q127 -40 100 -55Z" />
  </g>
</svg>