<svg xmlns="http://www.w3.org/2000/svg" viewBox="100 121 537 501">
  <g transform="translate(0, 743) scale(1, -1)">
    <path fill="black" d="M629 381Q596 400 548.5 419.5Q501 439 450.5 456.5Q400 474 356.0 487.0Q312 500 285 504Q308 529 325 559Q333 573 339.5 589.0Q346 605 351 622Q369 602 403.0 572.0Q437 542 479.0 508.5Q521 475 562.5 445.0Q604 415 637 394ZM537 251Q504 270 456.5 289.5Q409 309 358.5 326.5Q308 344 264.0 357.0Q220 370 193 374Q216 399 233 429Q241 443 247.5 459.0Q254 475 259 492Q277 472 311.0 442.0Q345 412 387.0 378.5Q429 345 470.5 315.0Q512 285 545 264ZM444 121Q411 140 363.5 159.5Q316 179 265.5 196.5Q215 214 171.0 227.0Q127 240 100 244Q123 269 140 299Q148 313 154.5 329.0Q161 345 166 362Q184 342 218.0 312.0Q252 282 294.0 248.5Q336 215 377.5 185.0Q419 155 452 134Z" />
  </g>
</svg>