<svg xmlns="http://www.w3.org/2000/svg" viewBox="100 60 850 676">
  <g transform="translate(0, 796) scale(1, -1)">
    <path fill="black" d="M629 495Q596 514 548.5 533.5Q501 553 450.5 570.5Q400 588 356.0 601.0Q312 614 285 618Q308 643 325 673Q333 687 339.5 703.0Q346 719 351 736Q369 716 403.0 686.0Q437 656 479.0 622.5Q521 589 562.5 559.0Q604 529 637 508ZM536 364Q503 383 455.5 403.0Q408 423 358.0 440.5Q308 458 263.5 470.5Q219 483 192 488Q215 513 232 543Q240 557 247.0 573.0Q254 589 259 606Q277 586 311.0 555.5Q345 525 386.5 492.0Q428 459 469.5 428.5Q511 398 544 378ZM942 320Q909 339 861.5 358.5Q814 378 763.5 395.5Q713 413 669.0 426.0Q625 439 598 443Q621 468 638 498Q646 512 652.5 528.0Q659 544 664 561Q682 541 716.0 511.0Q750 481 792.0 447.5Q834 414 875.5 384.0Q917 354 950 333ZM444 235Q411 254 363.5 273.5Q316 293 265.5 310.5Q215 328 171.0 341.0Q127 354 100 358Q123 383 140 413Q148 427 154.5 443.0Q161 459 166 476Q184 456 218.0 426.0Q252 396 294.0 362.5Q336 329 377.5 299.0Q419 269 452 248ZM849 189Q816 208 768.5 228.0Q721 248 671.0 265.5Q621 283 576.5 295.5Q532 308 505 313Q528 338 545 368Q553 382 560.0 398.0Q567 414 572 431Q590 411 624.0 380.5Q658 350 699.5 317.0Q741 284 782.5 253.5Q824 223 857 203ZM757 60Q724 79 676.5 98.5Q629 118 578.5 135.5Q528 153 484.0 166.0Q440 179 413 183Q436 208 453 238Q461 252 467.5 268.0Q474 284 479 301Q497 281 531.0 251.0Q565 221 607.0 187.5Q649 154 690.5 124.0Q732 94 765 73Z" />
  </g>
</svg>