<svg xmlns="http://www.w3.org/2000/svg" viewBox="100 -112 848 848">
  <g transform="translate(0, 624) scale(1, -1)">
    <path fill="black" d="M511 -112Q511 -48 509.0 10.0Q507 68 504 123Q373 107 273.0 86.0Q173 65 100 45Q106 71 109.0 102.5Q112 134 112 161Q112 188 109.0 219.5Q106 251 100 279Q172 259 270.5 238.0Q369 217 498 201Q494 255 488.5 304.5Q483 354 476 400Q355 384 262.0 364.0Q169 344 100 325Q106 351 109.0 382.5Q112 414 112 441Q112 468 109.0 499.5Q106 531 100 559Q167 540 257.0 521.0Q347 502 462 486Q449 562 434.5 624.5Q420 687 406 736Q432 730 464.0 727.0Q496 724 523 724Q550 724 581.5 727.0Q613 730 641 736Q627 684 611.5 618.0Q596 552 582 472Q662 464 753.5 459.5Q845 455 948 455V429Q842 429 748.5 424.0Q655 419 573 411Q566 362 559.5 308.0Q553 254 548 195Q634 186 734.0 180.5Q834 175 948 175V149Q833 149 732.0 143.0Q631 137 544 128Q540 73 538.5 13.0Q537 -47 537 -112Z" />
  </g>
</svg>