<svg xmlns="http://www.w3.org/2000/svg" viewBox="100 -112 765 848">
  <g transform="translate(0, 624) scale(1, -1)">
    <path fill="black" d="M439 -112Q439 -24 436 55Q362 46 304.0 33.5Q246 21 197.0 7.5Q148 -6 100 -19Q106 4 108.5 32.5Q111 61 111 85Q111 109 108.5 137.5Q106 166 100 191Q147 178 195.5 164.5Q244 151 301.5 138.5Q359 126 432 116Q430 160 427.0 200.5Q424 241 419 279Q316 265 242.0 245.0Q168 225 100 207Q106 230 108.5 258.5Q111 287 111 311Q111 335 108.5 363.5Q106 392 100 417Q168 398 239.5 378.5Q311 359 411 345Q406 387 400.0 426.0Q394 465 388 501Q297 487 230.0 468.5Q163 450 100 433Q106 456 108.5 484.5Q111 513 111 537Q111 561 108.5 589.5Q106 618 100 643Q161 627 224.5 609.0Q288 591 373 577Q363 623 353.0 662.5Q343 702 334 736Q360 730 392.0 727.0Q424 724 451 724Q478 724 509.5 727.0Q541 730 569 736Q548 660 527 558Q569 555 616.5 553.0Q664 551 719 550Q766 590 843 664L865 647Q825 584 796.5 537.0Q768 490 739 443Q768 396 796.5 349.0Q825 302 865 240L843 223Q796 268 760 300Q678 300 610.0 296.5Q542 293 485 287Q481 247 477.0 203.0Q473 159 471 112Q530 105 602.5 101.5Q675 98 764 98V74Q674 74 601.0 70.0Q528 66 468 59Q465 -22 465 -112ZM734 324Q705 350 680.5 369.0Q656 388 632.5 405.5Q609 423 581 443Q612 465 637.0 484.0Q662 503 690 525Q642 524 599.0 522.0Q556 520 518 516Q511 476 503.5 431.0Q496 386 490 336Q542 331 602.0 327.5Q662 324 734 324Z" />
  </g>
</svg>