<svg xmlns="http://www.w3.org/2000/svg" viewBox="100 -112 786 849">
  <g transform="translate(0, 625) scale(1, -1)">
    <path fill="black" d="M439 -112Q439 -24 436 55Q362 46 304.0 33.5Q246 21 197.0 7.5Q148 -6 100 -19Q106 4 108.5 32.5Q111 61 111 85Q111 109 108.5 137.5Q106 166 100 191Q147 178 195.5 164.5Q244 151 301.5 138.5Q359 126 432 116Q430 160 427.0 200.5Q424 241 419 279Q316 265 242.0 245.0Q168 225 100 207Q106 230 108.5 258.5Q111 287 111 311Q111 335 108.5 363.5Q106 392 100 417Q168 398 239.5 378.5Q311 359 411 345Q406 387 400.0 426.0Q394 465 388 501Q297 487 230.0 468.5Q163 450 100 433Q106 456 108.5 484.5Q111 513 111 537Q111 561 108.5 589.5Q106 618 100 643Q161 627 224.5 609.0Q288 591 373 577Q363 623 353.0 662.5Q343 702 334 736Q360 730 392.0 727.0Q424 724 451 724Q478 724 509.5 727.0Q541 730 569 736Q548 660 527 558Q584 553 652 552Q681 573 709.0 596.0Q737 619 774.0 652.5Q811 686 864 737L886 720Q846 657 817.5 610.0Q789 563 760 516Q789 469 817.5 422.0Q846 375 886 313Q846 250 817.5 203.0Q789 156 760 109Q789 62 817.5 15.0Q846 -32 886 -94L864 -111Q811 -60 774.0 -27.0Q737 6 709.0 28.5Q681 51 653 72Q601 70 555.0 67.0Q509 64 468 59Q465 -22 465 -112ZM613 101 602 109Q633 131 658.0 149.5Q683 168 709.0 189.5Q735 211 768.0 240.5Q801 270 846 313Q800 357 767.5 386.0Q735 415 709.0 436.0Q683 457 657.5 475.5Q632 494 602 516L611 522Q562 521 518 516Q511 476 503.5 431.0Q496 386 490 336Q547 330 614.5 327.0Q682 324 764 324V300Q681 300 612.0 296.5Q543 293 485 287Q481 247 477.0 203.0Q473 159 471 112Q503 108 538.0 105.5Q573 103 613 101Z" />
  </g>
</svg>