<svg xmlns="http://www.w3.org/2000/svg" viewBox="100 -112 639 848">
  <g transform="translate(0, 624) scale(1, -1)">
    <path fill="black" d="M402 -112Q402 -95 402.0 -78.5Q402 -62 401 -46Q292 -56 212.0 -68.5Q132 -81 101 -92Q108 -60 108 -24Q108 -9 106.5 9.0Q105 27 100 44Q130 34 210.5 22.0Q291 10 400 2L397 94Q289 85 210.5 72.5Q132 60 101 49Q108 81 108 117Q108 132 106.5 150.0Q105 168 100 185Q129 175 208.0 163.0Q287 151 394 143L387 234Q283 225 207.0 213.0Q131 201 101 190Q108 222 108 258Q108 273 106.5 291.0Q105 309 100 326Q129 316 203.5 304.5Q278 293 381 285Q379 308 376.5 330.0Q374 352 371 374Q273 364 201.5 352.5Q130 341 101 331Q108 363 108 399Q108 414 106.5 432.0Q105 450 100 467Q127 457 197.0 446.5Q267 436 363 428L348 513Q259 503 193.5 492.5Q128 482 101 472Q108 504 108 540Q108 555 106.5 573.0Q105 591 100 608Q126 599 188.0 589.0Q250 579 337 571Q327 619 317.0 660.0Q307 701 297 736Q323 730 355.0 727.0Q387 724 414 724Q441 724 472.5 727.0Q504 730 532 736Q522 699 511.5 655.0Q501 611 490 560Q549 556 612.0 554.5Q675 553 739 553V533Q605 533 483 524L465 420Q530 416 599.5 414.0Q669 412 739 412V392Q666 392 595.5 389.5Q525 387 460 382Q456 358 453.0 332.5Q450 307 447 280Q515 276 589.0 273.5Q663 271 739 271V251Q662 251 587.0 247.5Q512 244 443 239Q441 216 439.5 191.0Q438 166 436 140Q506 136 583.0 133.0Q660 130 739 130V110Q659 110 581.5 106.5Q504 103 433 98L429 0Q500 -4 579.0 -7.5Q658 -11 739 -11V-31Q658 -31 578.5 -34.5Q499 -38 428 -43V-112Z" />
  </g>
</svg>