<svg xmlns="http://www.w3.org/2000/svg" viewBox="100 -112 484 848">
  <g transform="translate(0, 624) scale(1, -1)">
    <path fill="black" d="M454 -112Q454 93 437.5 253.0Q421 413 396.5 533.0Q372 653 349 736Q375 730 407.0 727.0Q439 724 466 724Q493 724 524.5 727.0Q556 730 584 736Q561 653 537.0 533.5Q513 414 496.5 254.0Q480 94 480 -112ZM203 -112Q203 -78 196.5 -32.0Q190 14 178.5 65.0Q167 116 153.5 164.5Q140 213 126.0 252.5Q112 292 100 314Q123 309 149.0 306.5Q175 304 203 304Q203 338 196.0 385.0Q189 432 177.5 483.5Q166 535 152.5 584.5Q139 634 125.5 674.0Q112 714 100 736Q126 731 155.0 728.5Q184 726 215 726Q244 726 274.5 728.5Q305 731 335 736Q323 714 309.0 674.0Q295 634 281.5 584.5Q268 535 257.0 483.5Q246 432 239.0 385.0Q232 338 232 304Q258 305 284.0 307.5Q310 310 335 314Q323 292 309.0 252.5Q295 213 281.5 164.5Q268 116 256.5 65.0Q245 14 238.5 -32.0Q232 -78 232 -112Z" />
  </g>
</svg>