<svg xmlns="http://www.w3.org/2000/svg" viewBox="100 -97 717 813">
  <g transform="translate(0, 619) scale(1, -1)">
    <path fill="black" d="M795 -97Q748 -52 714.0 -21.5Q680 9 654.0 31.0Q628 53 604.0 71.5Q580 90 553 109Q519 109 470.0 102.0Q421 95 366.0 84.0Q311 73 258.5 60.0Q206 47 164.0 33.0Q122 19 100 7Q105 33 107.5 61.5Q110 90 110 121Q110 150 107.5 180.5Q105 211 100 241Q122 229 164.5 215.0Q207 201 259.5 187.5Q312 174 367.0 162.5Q422 151 471.0 144.5Q520 138 554 138Q587 161 615.0 183.0Q643 205 676.5 234.5Q710 264 758 309Q709 355 675.5 384.5Q642 414 614.0 436.0Q586 458 553 481Q519 481 470.0 474.0Q421 467 366.0 456.0Q311 445 258.5 432.0Q206 419 164.0 405.0Q122 391 100 379Q105 405 107.5 433.5Q110 462 110 493Q110 522 107.5 552.5Q105 583 100 613Q122 601 164.5 587.0Q207 573 259.5 559.5Q312 546 367.0 534.5Q422 523 471.0 516.5Q520 510 554 510Q581 530 605.0 548.0Q629 566 655.5 588.0Q682 610 715.5 641.0Q749 672 795 716L817 699Q777 636 748.5 589.0Q720 542 691 495Q714 457 737.0 419.5Q760 382 788 337L795 344L817 327L805 309L817 292L795 275L788 281Q760 236 737.0 198.5Q714 161 691 123Q720 76 748.5 29.0Q777 -18 817 -80Z" />
  </g>
</svg>