<svg xmlns="http://www.w3.org/2000/svg" viewBox="100 -112 937 935">
  <g transform="translate(0, 711) scale(1, -1)">
    <path fill="black" d="M907 -112Q717 -37 566.5 4.0Q416 45 301.0 64.0Q186 83 100 92Q114 114 128.5 143.0Q143 172 153 197Q164 222 172.5 252.0Q181 282 185 311Q224 281 272.0 247.5Q320 214 379 177Q418 395 424.5 555.5Q431 716 427 823Q451 812 481.5 801.0Q512 790 538 784Q564 778 595.5 774.0Q627 770 656 770Q605 675 539.5 525.5Q474 376 411 157Q466 124 531.0 88.5Q596 53 673 17Q671 60 664.0 114.0Q657 168 646.0 224.5Q635 281 622.0 333.5Q609 386 596.0 427.0Q583 468 572 489Q598 484 626.5 481.5Q655 479 686 479Q715 479 745.5 481.5Q776 484 806 489Q794 467 780.5 424.5Q767 382 753.5 327.0Q740 272 729.0 213.5Q718 155 711.0 100.0Q704 45 703 3Q750 -18 800.5 -39.5Q851 -61 907 -84Q906 113 889.0 267.5Q872 422 848.5 538.5Q825 655 802 736Q828 730 860.0 727.0Q892 724 919 724Q946 724 977.5 727.0Q1009 730 1037 736Q1014 653 990.0 533.5Q966 414 949.5 254.0Q933 94 933 -112Z" />
  </g>
</svg>