<svg xmlns="http://www.w3.org/2000/svg" viewBox="100 -67 674 803">
  <g transform="translate(0, 669) scale(1, -1)">
    <path fill="black" d="M348 -67Q289 -14 246.5 28.0Q204 70 169.5 103.5Q135 137 100 162Q118 177 145.5 199.0Q173 221 204 249Q196 362 182.5 449.5Q169 537 153.0 606.5Q137 676 120 736Q171 724 225 724Q279 724 336 736Q313 653 291.5 549.0Q270 445 256 295Q303 339 348 390L372 377Q332 306 303.0 256.0Q274 206 248 162Q274 118 303.0 68.0Q332 18 372 -53ZM585 36Q568 36 543.5 44.5Q519 53 493.5 77.0Q468 101 446.0 147.0Q424 193 410.0 266.5Q396 340 396 448H435Q420 495 411.5 534.5Q403 574 400.0 619.0Q397 664 396 726H774Q774 647 765.0 573.5Q756 500 734 448H774Q774 340 760.5 267.0Q747 194 725.0 148.0Q703 102 677.0 78.0Q651 54 627.0 45.0Q603 36 585 36ZM468 448H702Q711 467 720.0 504.0Q729 541 735.0 581.0Q741 621 741 649Q671 589 585 589Q500 589 429 649Q429 632 432.5 604.5Q436 577 441.0 547.0Q446 517 453.0 490.0Q460 463 468 448ZM585 66Q624 66 653.0 95.0Q682 124 701.0 170.0Q720 216 730.0 269.5Q740 323 741 371Q671 311 585 311Q500 311 429 371Q430 323 440.0 270.0Q450 217 469.0 170.5Q488 124 517.0 95.0Q546 66 585 66Z" />
  </g>
</svg>