<svg xmlns="http://www.w3.org/2000/svg" viewBox="100 -222 635 958">
  <g transform="translate(0, 514) scale(1, -1)">
    <path fill="black" d="M716 -222Q656 -171 604.5 -131.0Q553 -91 507 -59V-112H481Q481 -93 481.0 -75.5Q481 -58 480 -40Q399 15 334.0 49.0Q269 83 213.0 107.5Q157 132 100 158Q121 174 145.5 195.5Q170 217 188 236Q207 256 225.5 280.5Q244 305 260 330Q291 285 320.5 240.0Q350 195 387.0 145.5Q424 96 478 37Q469 283 437.5 455.0Q406 627 376 736Q402 730 434.0 727.0Q466 724 493 724Q520 724 551.5 727.0Q583 730 611 736Q590 661 568.0 556.5Q546 452 529.5 315.0Q513 178 508 5Q551 -39 606.5 -90.0Q662 -141 735 -202Z" />
  </g>
</svg>