<svg xmlns="http://www.w3.org/2000/svg" viewBox="100 -28 1393 858">
  <g transform="translate(0, 802) scale(1, -1)">
    <path fill="black" d="M819 418Q823 434 825.5 452.0Q828 470 829 489Q793 516 749.0 544.0Q705 572 660.5 596.5Q616 621 577.5 639.0Q539 657 514 664Q559 695 602 738Q623 759 642.5 782.0Q662 805 680 830Q689 801 712.0 753.0Q735 705 766.5 651.5Q798 598 831 551Q830 575 827.0 601.5Q824 628 819 652Q859 636 901.0 621.0Q943 606 995.0 593.0Q1047 580 1115.5 569.5Q1184 559 1276.5 553.5Q1369 548 1492 548V522Q1369 522 1277.0 516.5Q1185 511 1116.0 500.5Q1047 490 995.0 477.0Q943 464 901.0 449.0Q859 434 819 418ZM635 195Q643 233 646 277Q609 307 561.5 338.5Q514 370 465.0 398.5Q416 427 374.5 447.5Q333 468 307 476Q352 507 395 550Q416 571 435.5 594.0Q455 617 473 642Q480 619 497.5 582.5Q515 546 539.0 503.0Q563 460 591.0 416.5Q619 373 646 335Q645 382 635 429Q719 406 840.5 382.0Q962 358 1124.5 341.5Q1287 325 1492 325V299Q1287 299 1124.5 282.5Q962 266 840.5 242.0Q719 218 635 195ZM451 -28Q456 -5 459.0 24.0Q462 53 463 79Q429 109 379.5 143.5Q330 178 276.0 210.0Q222 242 175.0 265.5Q128 289 100 298Q145 329 188 372Q209 393 228.5 416.0Q248 439 266 464Q274 439 294.0 397.5Q314 356 342.0 307.5Q370 259 401.0 212.0Q432 165 461 128Q460 148 457.5 167.5Q455 187 451 206Q501 192 583.5 177.5Q666 163 771.5 149.5Q877 136 997.0 125.5Q1117 115 1243.5 108.5Q1370 102 1493 102V76Q1370 76 1244.0 69.5Q1118 63 997.5 52.5Q877 42 771.5 28.0Q666 14 583.5 0.0Q501 -14 451 -28Z" />
  </g>
</svg>