<svg xmlns="http://www.w3.org/2000/svg" viewBox="100 -168 547 913">
  <g transform="translate(0, 577) scale(1, -1)">
    <path fill="black" d="M349 206 306 218Q318 288 323.0 353.0Q328 418 328 482Q328 548 324.0 613.0Q320 678 313 745Q347 728 396.0 716.0Q445 704 496.0 697.5Q547 691 586 691Q557 645 515.5 582.0Q474 519 430.0 428.5Q386 338 349 206ZM125 -168 100 -145Q151 -80 185.5 -34.5Q220 11 243.5 46.5Q267 82 285.5 114.5Q304 147 324 185Q359 153 388.0 126.5Q417 100 450.5 73.0Q484 46 531.0 11.5Q578 -23 647 -72L630 -99Q545 -64 480.5 -40.5Q416 -17 353 8Q301 -32 248.0 -72.0Q195 -112 125 -168Z" />
  </g>
</svg>