<svg xmlns="http://www.w3.org/2000/svg" viewBox="100 -31 826 908">
  <g transform="translate(0, 846) scale(1, -1)">
    <path fill="black" d="M901 375Q847 426 808.5 461.0Q770 496 740.5 521.0Q711 546 683.5 566.5Q656 587 625 609Q569 606 505.5 598.0Q442 590 378.5 579.5Q315 569 259.0 556.5Q203 544 161.5 532.0Q120 520 100 509Q105 535 107.5 563.5Q110 592 110 623Q110 652 107.5 682.5Q105 713 100 743Q120 732 162.0 719.5Q204 707 260.0 694.5Q316 682 379.5 671.5Q443 661 507.0 653.0Q571 645 627 642Q658 664 685.5 685.0Q713 706 742.5 731.0Q772 756 810.5 791.0Q849 826 901 877L926 857Q880 786 848.0 732.0Q816 678 783 625L926 394ZM100 239Q105 265 107.5 293.5Q110 322 110 353Q110 382 107.5 412.5Q105 443 100 473Q122 461 171.0 447.0Q220 433 285.0 419.5Q350 406 422.0 394.5Q494 383 562.0 376.5Q630 370 685 370V341Q630 341 562.0 334.5Q494 328 422.0 317.0Q350 306 285.0 292.5Q220 279 171.0 265.0Q122 251 100 239ZM100 -31Q105 -5 107.5 23.5Q110 52 110 83Q110 112 107.5 142.5Q105 173 100 203Q122 191 171.0 177.0Q220 163 285.0 149.5Q350 136 422.0 124.5Q494 113 562.0 106.5Q630 100 685 100V71Q630 71 562.0 64.5Q494 58 422.0 47.0Q350 36 285.0 22.5Q220 9 171.0 -5.0Q122 -19 100 -31Z" />
  </g>
</svg>