<svg xmlns="http://www.w3.org/2000/svg" viewBox="100 -145 559 935">
  <g transform="translate(0, 645) scale(1, -1)">
    <path fill="black" d="M627 -145Q569 -89 525.0 -49.0Q481 -9 446.5 21.0Q412 51 381.5 74.5Q351 98 320.5 120.5Q290 143 253 169L278 187Q236 227 207.5 251.0Q179 275 155.0 293.5Q131 312 100 333Q129 353 151.5 370.5Q174 388 199.5 409.5Q225 431 260 463Q257 465 253.5 467.5Q250 470 247 473Q276 493 298.5 510.5Q321 528 346.5 549.5Q372 571 407 603Q404 605 400.5 607.5Q397 610 394 613Q420 631 441.0 647.0Q462 663 484.5 681.5Q507 700 535.5 725.5Q564 751 604 790L621 776Q589 726 566.5 688.5Q544 651 520 613Q541 579 561.0 545.0Q581 511 609 469L627 486L659 460Q621 401 590.5 351.5Q560 302 533.5 258.0Q507 214 479 169Q506 125 532.5 80.5Q559 36 590.0 -12.5Q621 -61 659 -121ZM461 331Q488 354 519.5 383.5Q551 413 590 450Q554 485 527.5 508.0Q501 531 480.5 548.0Q460 565 439 580Q420 551 405.0 525.0Q390 499 373 473Q393 440 413.5 406.0Q434 372 461 331ZM304 206Q339 231 371.0 256.5Q403 282 440 313Q387 363 354.5 390.5Q322 418 292 440Q273 411 258.0 385.0Q243 359 226 333Z" />
  </g>
</svg>