<svg xmlns="http://www.w3.org/2000/svg" viewBox="100 -33 736 823">
  <g transform="translate(0, 757) scale(1, -1)">
    <path fill="black" d="M567 -33Q531 1 506.5 23.5Q482 46 463.0 61.5Q444 77 426.0 90.0Q408 103 386 119L399 128Q362 164 337.0 185.5Q312 207 291.0 223.0Q270 239 243 257L256 266Q219 302 194.0 323.5Q169 345 148.0 361.0Q127 377 100 395Q125 413 144.5 427.5Q164 442 186.0 461.0Q208 480 238 508L227 516Q252 533 271.5 548.0Q291 563 312.5 582.0Q334 601 365 629Q362 631 359.5 633.0Q357 635 354 637Q376 653 394.0 666.5Q412 680 431.0 696.0Q450 712 474.5 734.5Q499 757 534 790L550 778Q522 735 502.5 702.0Q483 669 462 637Q479 610 495.0 583.5Q511 557 532 524Q552 539 571.0 555.0Q590 571 615.5 594.0Q641 617 677 652L693 640Q665 597 645.5 564.0Q626 531 605 499Q622 472 638.0 445.5Q654 419 675 386Q695 401 714.0 417.0Q733 433 758.5 456.0Q784 479 820 514L836 502Q808 459 788.5 426.0Q769 393 748 361Q768 329 788.0 297.0Q808 265 836 221L820 209Q785 243 760.0 265.5Q735 288 716.0 303.5Q697 319 678 333Q662 307 648.5 285.0Q635 263 621 240Q641 208 661.0 175.5Q681 143 709 101L694 88Q658 123 633.0 145.0Q608 167 589.0 182.5Q570 198 551 212Q535 187 522.0 164.5Q509 142 495 119Q515 88 534.5 55.0Q554 22 582 -20ZM405 403Q428 420 451.0 440.0Q474 460 508 491Q505 493 502.5 495.0Q500 497 497 499L510 508Q469 546 443.0 568.0Q417 590 392 609Q376 583 362.5 561.0Q349 539 335 516Q352 489 368.0 462.0Q384 435 405 403ZM278 282Q301 299 324.0 319.0Q347 339 381 370L370 378L383 387Q342 426 316.0 448.0Q290 470 265 488Q249 463 236.0 440.5Q223 418 209 395Q226 369 242.0 341.5Q258 314 278 282ZM548 265Q571 282 594.0 302.0Q617 322 651 353Q648 355 645.5 357.0Q643 359 640 361L653 370Q612 408 586.0 430.0Q560 452 535 471Q519 445 505.5 423.0Q492 401 478 378Q495 351 511.0 324.0Q527 297 548 265ZM421 144Q444 161 467.0 181.0Q490 201 524 232L513 240L526 249Q485 288 459.0 310.0Q433 332 408 350Q392 325 379.0 302.5Q366 280 352 257Q369 231 385.0 203.5Q401 176 421 144Z" />
  </g>
</svg>