<svg xmlns="http://www.w3.org/2000/svg" viewBox="100 -111 284 848">
  <g transform="translate(0, 626) scale(1, -1)">
    <path fill="black" d="M362 -111Q311 -62 275.5 -30.0Q240 2 212.0 25.0Q184 48 158.0 67.0Q132 86 100 109Q131 131 156.0 149.5Q181 168 207.0 189.5Q233 211 266.0 240.5Q299 270 344 313Q298 357 265.5 386.0Q233 415 207.0 436.0Q181 457 155.5 475.5Q130 494 100 516Q132 539 158.5 558.5Q185 578 212.5 601.0Q240 624 275.5 656.5Q311 689 362 737L384 720Q344 657 315.5 610.0Q287 563 258 516Q287 469 315.5 422.0Q344 375 384 313Q344 250 315.5 203.0Q287 156 258 109Q287 62 315.5 15.0Q344 -32 384 -94Z" />
  </g>
</svg>