<svg xmlns="http://www.w3.org/2000/svg" viewBox="100 -29 565 565">
  <g transform="translate(0, 507) scale(1, -1)">
    <path fill="black" d="M410 206Q380 236 339.5 261.5Q299 287 255.5 308.5Q212 330 171.0 345.5Q130 361 100 370Q123 385 144.5 403.5Q166 422 188 444Q209 465 229.0 488.0Q249 511 266 536Q275 506 290.5 465.0Q306 424 327.5 380.5Q349 337 374.5 296.5Q400 256 430 226ZM644 -29Q614 1 574.0 26.5Q534 52 490.0 73.5Q446 95 405.5 110.5Q365 126 335 135Q380 166 423 209Q444 230 464.0 253.0Q484 276 501 301Q510 271 525.5 230.5Q541 190 562.5 146.0Q584 102 609.5 62.0Q635 22 665 -8Z" />
  </g>
</svg>