<svg xmlns="http://www.w3.org/2000/svg" viewBox="100 -29 800 800">
  <g transform="translate(0, 742) scale(1, -1)">
    <path fill="black" d="M410 441Q380 471 340.0 496.5Q300 522 256.0 543.5Q212 565 171.0 580.5Q130 596 100 605Q123 619 145.0 638.0Q167 657 189 679Q232 722 266 771Q275 741 290.5 700.0Q306 659 327.5 615.0Q349 571 374.5 531.0Q400 491 430 461ZM645 206Q615 236 574.5 261.5Q534 287 490.5 308.5Q447 330 406.0 345.5Q365 361 335 370Q358 385 379.5 403.5Q401 422 423 444Q444 465 464.0 488.0Q484 511 501 536Q510 506 525.5 465.0Q541 424 562.5 380.5Q584 337 609.5 296.5Q635 256 665 226ZM879 -29Q849 1 809.0 26.5Q769 52 725.0 73.5Q681 95 640.5 110.5Q600 126 570 135Q615 166 658 209Q679 230 699.0 253.0Q719 276 736 301Q745 271 760.5 230.5Q776 190 797.5 146.0Q819 102 844.5 62.0Q870 22 900 -8Z" />
  </g>
</svg>