<svg xmlns="http://www.w3.org/2000/svg" viewBox="100 -72 1101 811">
  <g transform="translate(0, 667) scale(1, -1)">
    <path fill="black" d="M761 -72Q711 27 663.0 112.5Q615 198 569 271Q455 264 371.0 254.0Q287 244 222.5 232.0Q158 220 100 204Q113 262 113 315Q113 371 100 420Q164 402 223.5 388.5Q283 375 353.5 365.0Q424 355 521 345Q456 444 398.0 517.0Q340 590 293 642Q346 653 394.5 678.5Q443 704 486 739Q502 663 530.0 563.0Q558 463 606 338Q673 332 754.0 326.5Q835 321 934 314Q925 323 914.5 332.0Q904 341 891 348Q902 353 929.0 373.0Q956 393 992.0 421.5Q1028 450 1066.5 481.5Q1105 513 1139.0 540.5Q1173 568 1194 585L1201 578Q1183 554 1154.0 517.5Q1125 481 1092.5 441.0Q1060 401 1031.5 364.0Q1003 327 985 302Q1003 277 1031.5 240.0Q1060 203 1092.5 163.0Q1125 123 1154.0 87.0Q1183 51 1201 27L1194 20Q1173 37 1139.0 64.5Q1105 92 1066.5 123.5Q1028 155 992.0 183.5Q956 212 929.0 232.5Q902 253 891 257Q902 263 911.5 270.5Q921 278 929 286Q843 284 769.0 281.0Q695 278 631 274Q662 199 700.0 115.5Q738 32 784 -60Z" />
  </g>
</svg>