<svg xmlns="http://www.w3.org/2000/svg" viewBox="100 -334 3045 1264">
  <g transform="translate(0, 596) scale(1, -1)">
    <path fill="black" d="M172 -334Q159 -127 149.5 33.0Q140 193 129.0 310.5Q118 428 100 507Q165 492 235 501Q240 552 232 607H231Q231 608 231.5 609.0Q232 610 232 611Q232 612 231.5 612.5Q231 613 231 614H232Q239 669 239.5 718.5Q240 768 231 823Q286 811 336.5 801.5Q387 792 443.5 785.0Q500 778 569.0 773.5Q638 769 728.5 766.5Q819 764 939 763Q1026 838 1069 930Q1102 884 1134.0 843.0Q1166 802 1204.5 760.0Q1243 718 1293.0 668.0Q1343 618 1411.0 555.0Q1479 492 1570 409Q1574 413 1577.5 416.5Q1581 420 1585 423Q1578 434 1569.5 444.0Q1561 454 1552 463Q1597 479 1633.0 497.0Q1669 515 1715 542Q1801 622 1866.0 688.0Q1931 754 1980.5 813.5Q2030 873 2070 930Q2106 899 2188.0 852.0Q2270 805 2385.5 748.5Q2501 692 2640.0 630.5Q2779 569 2929 507Q2934 563 2936.0 613.5Q2938 664 2937 719Q3031 670 3145 663Q3119 618 3094.0 567.5Q3069 517 3042.5 453.5Q3016 390 2986.5 307.5Q2957 225 2922.5 116.5Q2888 8 2846 -134L2820 -127Q2758 -45 2708.5 8.5Q2659 62 2620.0 96.0Q2581 130 2550.0 150.0Q2519 170 2494 184Q2457 156 2426.0 132.0Q2395 108 2368 86V84L2363 83Q2292 27 2246.5 -12.0Q2201 -51 2171.0 -80.0Q2141 -109 2117.5 -136.0Q2094 -163 2067 -195L2022 -248Q2005 -204 1981.5 -162.0Q1958 -120 1922 -83Q1846 -5 1785.5 52.0Q1725 109 1676.5 151.0Q1628 193 1586.0 224.5Q1544 256 1504 283Q1417 202 1355.0 142.0Q1293 82 1248.0 33.5Q1203 -15 1166.5 -60.0Q1130 -105 1094 -156Q1078 -121 1055.0 -88.5Q1032 -56 1003 -26L1000 -104H972Q971 -83 970.0 -62.5Q969 -42 967 -22Q813 -38 696.5 -53.0Q580 -68 493.0 -82.5Q406 -97 342.5 -111.5Q279 -126 231 -140Q239 -85 239.5 -36.0Q240 13 232 68L231 67Q231 70 232 71Q231 73 231 76H232Q236 102 236.5 133.0Q237 164 234 195Q233 195 232.5 194.5Q232 194 231 194Q232 197 232.0 200.0Q232 203 233 206Q232 209 232.0 211.5Q232 214 231 218Q221 106 214.0 -34.0Q207 -174 200 -334ZM928 553Q918 649 904 718Q726 699 600.5 680.5Q475 662 389.0 645.0Q303 628 242 610Q265 604 313.0 597.5Q361 591 425.0 585.5Q489 580 560.0 575.0Q631 570 700.5 566.0Q770 562 829.5 558.5Q889 555 928 553ZM1990 524Q1992 544 1991.5 565.5Q1991 587 1989 609Q2036 594 2076.5 588.0Q2117 582 2174 576Q2155 625 2138.5 660.5Q2122 696 2111 709H2114Q2111 710 2107.5 710.5Q2104 711 2101 712Q2073 697 2041.5 679.5Q2010 662 1975 641Q1978 596 1990 524ZM1006 34Q1043 51 1082.0 72.0Q1121 93 1166 120Q1157 253 1136.5 351.0Q1116 449 1100 507Q1181 489 1271 507Q1252 432 1236.0 346.5Q1220 261 1210 147Q1267 182 1336.5 230.0Q1406 278 1489 336Q1502 345 1515.0 358.0Q1528 371 1540 383Q1428 465 1341.0 524.5Q1254 584 1186.5 626.5Q1119 669 1062 699Q1043 602 1030.0 430.0Q1017 258 1006 34ZM2830 -76Q2857 60 2876.0 161.0Q2895 262 2907.0 338.0Q2919 414 2926 475Q2719 545 2554.0 595.5Q2389 646 2260 677Q2266 627 2277.5 556.5Q2289 486 2304.0 409.0Q2319 332 2333.0 261.0Q2347 190 2357 139Q2381 153 2407.0 169.0Q2433 185 2461 203Q2448 210 2438 218Q2466 232 2496 254Q2496 299 2493 333Q2474 325 2457.0 317.5Q2440 310 2426 303Q2425 290 2425.0 276.0Q2425 262 2425 246H2408Q2408 259 2408.0 271.0Q2408 283 2407 294Q2400 290 2394.0 287.0Q2388 284 2383 281Q2381 303 2375.0 326.0Q2369 349 2358 365Q2367 365 2378.0 366.5Q2389 368 2402 369Q2398 404 2390.5 432.0Q2383 460 2373 487Q2414 478 2460 487Q2451 461 2444.0 434.0Q2437 407 2432 374Q2445 376 2459.0 378.5Q2473 381 2488 384Q2483 414 2476.0 438.5Q2469 463 2461 487Q2501 477 2548 487Q2540 465 2533.5 442.0Q2527 419 2522 391Q2582 404 2648.5 421.0Q2715 438 2778 455Q2720 471 2658.0 486.0Q2596 501 2538.0 514.0Q2480 527 2433.5 535.5Q2387 544 2358 545Q2369 562 2375.0 584.5Q2381 607 2383 629Q2400 618 2434.5 602.0Q2469 586 2514.5 567.0Q2560 548 2610.5 529.0Q2661 510 2709.5 492.5Q2758 475 2798 462L2796 455L2798 448Q2758 435 2709.5 417.5Q2661 400 2611.0 381.0Q2561 362 2516 343Q2515 327 2514.0 308.0Q2513 289 2512 267Q2528 280 2542.5 295.0Q2557 310 2571 326Q2585 296 2594.5 274.0Q2604 252 2614.0 232.5Q2624 213 2639.0 189.0Q2654 165 2677.5 131.0Q2701 97 2738.0 47.0Q2775 -3 2830 -76ZM1955 -53Q1986 -43 2013.5 -33.5Q2041 -24 2072 -12Q2057 29 2036.5 87.5Q2016 146 1993.5 212.0Q1971 278 1947.5 344.5Q1924 411 1902.5 469.0Q1881 527 1863 568Q1822 541 1775.0 508.5Q1728 476 1675 438L1642 408Q1662 369 1681.0 334.5Q1700 300 1723.0 263.0Q1746 226 1777.5 182.0Q1809 138 1852.0 81.0Q1895 24 1955 -53ZM2208 487Q2196 520 2184 550Q2130 546 2089.0 538.5Q2048 531 2010 520Q2042 510 2071.0 504.5Q2100 499 2133.0 495.5Q2166 492 2208 487ZM939 427 930 533Q888 529 824.0 524.0Q760 519 685.5 513.5Q611 508 536.0 502.5Q461 497 396.0 490.5Q331 484 287 476Q331 469 398.5 463.0Q466 457 543.0 451.5Q620 446 696.0 441.5Q772 437 836.0 433.0Q900 429 939 427ZM2005 441Q2007 458 2006.0 478.5Q2005 499 2003 518Q2001 517 1998.0 516.0Q1995 515 1992 514Q1995 497 1998.0 478.5Q2001 460 2005 441ZM2240 399 2216 465Q2155 461 2110.5 453.0Q2066 445 2026 433Q2060 423 2091.0 417.0Q2122 411 2157.5 407.5Q2193 404 2240 399ZM2021 351Q2023 370 2022.5 390.5Q2022 411 2020 432Q2017 431 2014.0 430.0Q2011 429 2007 427Q2011 409 2014.0 390.0Q2017 371 2021 351ZM948 284Q947 317 944.5 348.5Q942 380 940 409Q903 405 845.0 400.5Q787 396 717.0 391.0Q647 386 574.5 380.5Q502 375 436.0 369.0Q370 363 319.5 356.5Q269 350 243 342Q268 335 320.0 328.5Q372 322 440.0 316.5Q508 311 582.5 305.5Q657 300 728.5 296.0Q800 292 857.5 289.0Q915 286 948 284ZM2271 311 2247 379Q2180 375 2132.5 367.0Q2085 359 2043 346Q2079 335 2111.5 329.5Q2144 324 2181.5 320.0Q2219 316 2271 311ZM2039 261Q2041 280 2041.0 301.5Q2041 323 2038 345Q2034 344 2030.5 343.0Q2027 342 2024 340ZM2302 222 2277 293Q2206 289 2155.5 281.0Q2105 273 2061 259Q2099 248 2132.5 242.0Q2166 236 2206.0 232.0Q2246 228 2302 222ZM234 218Q237 247 237 279L231 219Q232 219 232.5 218.5Q233 218 234 218ZM956 156 950 267Q919 263 868.0 259.0Q817 255 754.5 250.5Q692 246 625.0 241.0Q558 236 493.0 231.0Q428 226 373.0 220.0Q318 214 281 207Q319 201 375.0 195.5Q431 190 498.0 185.0Q565 180 633.5 175.5Q702 171 765.5 167.0Q829 163 879.0 160.5Q929 158 956 156ZM2057 172Q2059 192 2059.0 214.0Q2059 236 2056 258Q2052 257 2048.5 256.0Q2045 255 2041 253Q2045 233 2049.0 212.5Q2053 192 2057 172ZM2333 134Q2322 167 2307 206Q2231 202 2178.0 194.0Q2125 186 2079 172Q2118 160 2152.5 154.0Q2187 148 2229.5 144.5Q2272 141 2333 134ZM2074 88Q2076 107 2076.0 128.0Q2076 149 2073 171Q2069 170 2065.5 168.5Q2062 167 2058 166ZM964 16H965Q963 48 961.0 79.5Q959 111 957 141Q926 137 870.0 132.5Q814 128 743.5 123.0Q673 118 598.0 112.5Q523 107 453.5 101.0Q384 95 329.5 88.0Q275 81 247 73Q300 62 350.5 53.0Q401 44 458.0 37.0Q515 30 585.5 25.5Q656 21 748.5 18.5Q841 16 964 16ZM2093 -3Q2135 15 2189.5 44.0Q2244 73 2323 119Q2238 115 2182.0 105.5Q2126 96 2076 79Q2081 56 2085.0 35.0Q2089 14 2093 -3Z" />
  </g>
</svg>