<svg xmlns="http://www.w3.org/2000/svg" viewBox="100 -334 3045 1264">
  <g transform="translate(0, 596) scale(1, -1)">
    <path fill="black" d="M172 -334Q161 -194 154.0 -47.5Q147 99 136.0 240.5Q125 382 100 507Q168 492 236 501Q238 527 236.5 554.0Q235 581 232 607H231L232 611L231 614H232Q240 667 239.5 719.0Q239 771 231 823Q334 797 451.0 784.0Q568 771 692.0 767.0Q816 763 939 763Q980 797 1012.5 838.5Q1045 880 1069 930Q1145 821 1229.0 733.0Q1313 645 1400.0 567.0Q1487 489 1570 409L1585 423Q1577 434 1568.5 444.5Q1560 455 1552 463Q1593 477 1634.0 497.0Q1675 517 1715 542Q1780 603 1840.0 662.0Q1900 721 1957.5 786.0Q2015 851 2070 930Q2119 893 2192.5 851.0Q2266 809 2355.0 764.0Q2444 719 2541.5 674.0Q2639 629 2738.0 586.5Q2837 544 2929 507Q2933 553 2934.5 598.5Q2936 644 2937 690V719Q2983 694 3035.0 680.5Q3087 667 3145 663Q3117 621 3086.0 553.5Q3055 486 3022.5 402.0Q2990 318 2958.5 226.0Q2927 134 2898.5 41.5Q2870 -51 2846 -134L2820 -127Q2744 -46 2667.5 37.5Q2591 121 2514 197Q2432 132 2350.5 69.5Q2269 7 2187.5 -68.5Q2106 -144 2022 -248Q2006 -206 1981.0 -164.5Q1956 -123 1922 -83Q1844 -2 1774.5 62.5Q1705 127 1639.5 181.0Q1574 235 1504 283Q1431 215 1356.5 143.0Q1282 71 1214.5 -3.5Q1147 -78 1094 -156Q1050 -72 1003 -26L1000 -104H972L967 -22Q888 -29 802.0 -39.5Q716 -50 631.0 -62.5Q546 -75 469.0 -88.0Q392 -101 330.5 -114.5Q269 -128 231 -140Q239 -88 239.5 -36.0Q240 16 232 68L231 67L232 71L231 76H232Q237 106 237.0 135.5Q237 165 234 195L231 194L233 206L231 218Q221 80 212.5 -58.0Q204 -196 200 -334ZM928 553Q919 636 904 718Q819 709 725.5 697.5Q632 686 541.0 671.5Q450 657 372.5 641.5Q295 626 242 610Q301 599 382.5 590.0Q464 581 557.5 574.5Q651 568 746.5 563.0Q842 558 928 553ZM2830 -76Q2857 62 2882.5 200.0Q2908 338 2925 476Q2719 544 2513.0 609.0Q2307 674 2101 712Q1995 655 1887.0 584.5Q1779 514 1675 438L1642 408Q1679 328 1732.5 248.0Q1786 168 1844.5 92.5Q1903 17 1955 -52Q2074 -15 2205.5 58.0Q2337 131 2486 223Q2457 249 2428.0 273.5Q2399 298 2370 320Q2444 358 2503 428Q2536 348 2589.5 264.0Q2643 180 2706.0 94.5Q2769 9 2830 -76ZM1006 34Q1046 54 1086.0 75.0Q1126 96 1166 120Q1153 314 1100 507Q1186 489 1271 507Q1248 417 1232.5 327.0Q1217 237 1210 147Q1350 237 1489 336L1540 383Q1421 469 1299.0 553.5Q1177 638 1062 699Q1036 533 1025.0 367.0Q1014 201 1006 34ZM1972 50Q1971 188 1903 326Q1920 325 1937.5 323.5Q1955 322 1972 322Q1966 451 1903 578Q1987 571 2070 578Q2038 514 2024.0 450.0Q2010 386 2003 322Q2020 322 2037.0 323.5Q2054 325 2070 326Q2006 188 2001 50ZM2142 50Q2141 119 2124.5 188.0Q2108 257 2073 326Q2090 325 2107.5 323.5Q2125 322 2142 322Q2138 386 2121.5 450.0Q2105 514 2073 578Q2157 571 2240 578Q2210 516 2194.0 451.0Q2178 386 2173 322Q2190 322 2207.0 323.5Q2224 325 2240 326Q2177 188 2171 50ZM939 427 930 533Q823 523 710.5 515.5Q598 508 490.0 499.0Q382 490 287 476Q439 459 607.5 447.0Q776 435 939 427ZM948 284 940 409Q853 401 754.5 394.0Q656 387 559.5 379.5Q463 372 380.5 363.0Q298 354 243 342Q302 331 386.0 322.5Q470 314 566.5 307.0Q663 300 761.5 294.5Q860 289 948 284ZM234 218Q239 250 237 282L231 219ZM956 156 950 267Q839 256 724.5 248.0Q610 240 498.0 231.0Q386 222 281 207Q381 193 494.5 184.5Q608 176 726.0 169.5Q844 163 956 156ZM965 16 957 141Q868 132 770.0 125.0Q672 118 576.0 110.5Q480 103 395.0 94.0Q310 85 247 73Q366 45 486.0 33.5Q606 22 726.0 20.0Q846 18 965 16Z" />
  </g>
</svg>