<svg xmlns="http://www.w3.org/2000/svg" viewBox="100 -112 1152 852">
  <g transform="translate(0, 628) scale(1, -1)">
    <path fill="black" d="M104 -112Q108 -91 110.0 -70.5Q112 -50 112 -29Q112 -9 110.0 13.0Q108 35 104 58Q124 50 147.5 43.0Q171 36 198 30Q199 41 200.0 52.0Q201 63 201 74Q201 95 197 112Q208 108 234.5 103.0Q261 98 296.5 93.0Q332 88 369.0 83.5Q406 79 438 77L432 178Q388 170 339.0 162.0Q290 154 251.0 146.0Q212 138 197 130Q198 144 199.5 159.0Q201 174 201 189Q201 210 197 227Q208 223 233.5 218.0Q259 213 293.0 208.0Q327 203 363.5 199.0Q400 195 431 192Q430 218 428.0 242.5Q426 267 424 291Q381 284 333.5 276.0Q286 268 248.5 260.0Q211 252 197 245Q198 259 199.5 274.0Q201 289 201 304Q201 325 197 342Q211 337 248.5 330.0Q286 323 333.5 317.5Q381 312 423 308Q421 334 419.0 358.0Q417 382 415 404Q372 397 326.5 389.0Q281 381 246.0 373.5Q211 366 197 359Q198 373 199.5 388.0Q201 403 201 418Q201 439 197 456Q210 451 245.5 444.5Q281 438 326.5 432.5Q372 427 413 423Q410 449 407.0 473.0Q404 497 401 516Q360 509 318.0 502.0Q276 495 243.0 488.0Q210 481 197 474Q198 488 199.5 503.0Q201 518 201 533V544Q171 540 145.5 534.5Q120 529 100 524Q112 581 112 635Q112 689 100 740Q190 715 329.5 698.5Q469 682 653.5 669.5Q838 657 1060 643Q1050 688 1036 736Q1087 724 1141 724Q1195 724 1252 736Q1238 686 1227.0 630.5Q1216 575 1207.0 507.0Q1198 439 1191.0 351.5Q1184 264 1178.5 150.0Q1173 36 1169 -112H1143Q1133 37 1124.5 147.5Q1116 258 1107.5 340.0Q1099 422 1090.0 485.0Q1081 548 1069 603Q914 598 770.5 591.0Q627 584 504 576Q496 522 490.0 430.5Q484 339 478.5 226.0Q473 113 467 -6Q472 -7 477.5 -7.0Q483 -7 488 -8Q492 13 494.0 33.0Q496 53 496 74Q496 94 494.0 116.0Q492 138 488 161Q516 150 563.5 140.0Q611 130 671.0 122.0Q731 114 797.0 108.0Q863 102 926 98Q952 118 986.0 146.0Q1020 174 1079 227L1098 215Q1073 177 1056.0 144.0Q1039 111 1021 78Q1039 47 1056.0 13.0Q1073 -21 1098 -60L1079 -75Q1037 -36 1010.5 -11.5Q984 13 964.5 30.0Q945 47 922 63Q839 57 757.0 47.5Q675 38 605.5 24.0Q536 10 491 -8Q501 -9 511.5 -9.0Q522 -9 532 -10V-32Q515 -33 498.5 -35.0Q482 -37 466 -39Q465 -57 464.0 -75.5Q463 -94 462 -112H447L444 -41Q336 -53 253.5 -69.0Q171 -85 104 -112ZM546 165Q552 189 552 216Q552 243 546 270L581 262Q577 302 570.5 334.0Q564 366 555 398Q567 395 579 395Q571 504 555 559Q572 556 590 556Q607 556 626 559Q643 556 660 556Q667 556 674.5 556.5Q682 557 689 558L688 559L692 558L697 559L696 557Q702 556 708.0 556.0Q714 556 721 556Q729 556 736.5 556.5Q744 557 751 558V559L755 558L759 559V557Q765 557 771.5 556.5Q778 556 784 556Q803 556 822 559Q809 513 801.0 431.5Q793 350 793 236Q846 232 895.0 229.0Q944 226 983 225Q930 271 886.5 303.0Q843 335 801 355Q815 363 827.5 371.5Q840 380 851 391Q849 447 841.5 488.5Q834 530 823 570Q838 566 857 566Q877 566 894 570Q883 532 875.5 494.0Q868 456 866 406L882 424Q897 383 935.0 325.0Q973 267 1028 202L1019 193L1000 210Q955 210 893.5 207.0Q832 204 765.5 198.0Q699 192 641.0 183.5Q583 175 546 165ZM398 539 392 567Q329 561 275 555Q304 551 335.5 546.5Q367 542 398 539ZM655 251Q652 467 626 557Q619 529 613.0 488.5Q607 448 603 395Q609 395 615.0 396.0Q621 397 627 398Q617 365 610.5 332.5Q604 300 600 259Q613 257 626.5 255.0Q640 253 655 251ZM780 237Q779 341 772.5 418.5Q766 496 755 543Q744 496 737.5 420.0Q731 344 730 242ZM717 243Q716 345 709.5 421.0Q703 497 692 543Q682 497 675.5 423.0Q669 349 668 249ZM442 -5 439 64Q403 58 362.5 51.0Q322 44 285.0 37.5Q248 31 223 24Q270 14 325.5 7.0Q381 0 442 -5Z" />
  </g>
</svg>