<svg xmlns="http://www.w3.org/2000/svg" viewBox="100 -167 1633 963">
  <g transform="translate(0, 629) scale(1, -1)">
    <path fill="black" d="M514 -167Q488 -130 461.5 -105.0Q435 -80 401 -58Q403 -56 406.5 -54.5Q410 -53 413 -51Q411 -20 408.0 35.0Q405 90 400.5 159.5Q396 229 391 301Q290 276 213.5 248.0Q137 220 103 193Q106 222 108.5 251.0Q111 280 111 310Q111 338 108.5 366.5Q106 395 100 426Q121 411 165.0 393.5Q209 376 267.5 361.0Q326 346 389 336Q384 412 378.5 479.0Q373 546 368.0 592.0Q363 638 358 649Q375 646 392.0 644.0Q409 642 426 642Q446 642 465 645Q443 661 427.0 672.0Q411 683 401 687Q435 709 461.5 734.0Q488 759 514 796Q521 780 557.0 737.0Q593 694 650.0 633.5Q707 573 775.5 502.0Q844 431 915 358L1223 627Q1215 632 1206.0 637.0Q1197 642 1189 646Q1215 669 1237.0 696.5Q1259 724 1276 763Q1311 716 1369.0 651.5Q1427 587 1516.0 502.5Q1605 418 1733 311Q1727 307 1721.0 302.5Q1715 298 1710 293Q1553 161 1447.5 63.0Q1342 -35 1276 -123Q1259 -84 1237.0 -56.5Q1215 -29 1189 -6L1215 8L915 271Q844 198 775.5 127.0Q707 56 650.0 -5.0Q593 -66 557.0 -108.5Q521 -151 514 -167ZM546 46Q613 100 696.5 170.5Q780 241 865 314Q794 376 723.5 435.5Q653 495 591.5 545.5Q530 596 484 631Q482 617 479.0 593.0Q476 569 473 538Q489 536 505.5 534.0Q522 532 538 532Q568 532 599 539Q594 528 588.5 488.0Q583 448 577.0 391.0Q571 334 565.0 270.5Q559 207 554.0 148.0Q549 89 546 46ZM1242 22Q1250 26 1257.0 30.0Q1264 34 1271 38Q1271 176 1260.5 280.5Q1250 385 1235 461Q1208 411 1188.0 372.0Q1168 333 1149 302Q1163 277 1189.0 239.0Q1215 201 1251 154L1235 141Q1169 200 1123.5 236.5Q1078 273 1039 302Q1058 318 1089.0 345.5Q1120 373 1155.5 408.0Q1191 443 1224 480L1232 475Q1227 499 1222.0 519.5Q1217 540 1212 559Q1228 555 1244.5 553.0Q1261 551 1278 551Q1308 551 1338 557Q1292 587 1248 613Q1217 580 1171.5 533.0Q1126 486 1071.0 430.0Q1016 374 957 314Q1043 227 1119.0 149.5Q1195 72 1242 22ZM1287 47Q1335 75 1392.0 109.5Q1449 144 1524.0 193.0Q1599 242 1701 311Q1577 395 1493.0 453.0Q1409 511 1344 553Q1324 477 1306.0 353.0Q1288 229 1287 47ZM434 -38Q451 -26 474.0 -9.5Q497 7 524 28Q521 65 517.0 119.5Q513 174 507.5 236.0Q502 298 496.0 356.5Q490 415 484.0 460.5Q478 506 472 528Q468 478 463.5 416.0Q459 354 454.5 288.0Q450 222 446.0 160.0Q442 98 439.0 46.5Q436 -5 434 -38ZM1320 230Q1324 247 1325.5 265.0Q1327 283 1327 302Q1327 320 1325.5 338.5Q1324 357 1320 376Q1355 362 1394.5 347.5Q1434 333 1489.5 323.0Q1545 313 1627 313V294Q1549 294 1496.0 285.0Q1443 276 1402.5 261.5Q1362 247 1320 230Z" />
  </g>
</svg>