<svg xmlns="http://www.w3.org/2000/svg" viewBox="100 -290 1821 1225">
  <g transform="translate(0, 645) scale(1, -1)">
    <path fill="black" d="M943 -290Q922 -235 892.5 -189.5Q863 -144 826 -107Q872 -93 941.0 -68.5Q1010 -44 1096 -11Q1086 11 1073.5 26.0Q1061 41 1047 54Q1052 56 1059.5 59.5Q1067 63 1077 68Q1027 112 997.0 143.0Q967 174 938 196Q958 213 997.5 245.5Q1037 278 1074 319Q1026 363 996.5 393.0Q967 423 938 445Q959 463 999.0 496.0Q1039 529 1077 572Q1056 582 1047 585Q1061 599 1074.0 614.5Q1087 630 1097 652Q1103 642 1127.5 618.5Q1152 595 1188.5 563.5Q1225 532 1267.0 496.5Q1309 461 1350.5 427.0Q1392 393 1427.5 365.0Q1463 337 1486 319Q1459 299 1415.5 264.0Q1372 229 1322.0 188.0Q1272 147 1225.0 107.0Q1178 67 1144.0 36.0Q1110 5 1099 -10Q1206 31 1334.0 83.5Q1462 136 1601.0 196.5Q1740 257 1881 323Q1751 384 1621.5 440.5Q1492 497 1372.0 546.5Q1252 596 1147.5 636.5Q1043 677 960.5 706.5Q878 736 826 752Q863 789 892.5 834.5Q922 880 943 935Q972 903 1030.0 859.5Q1088 816 1166.5 765.5Q1245 715 1338.0 660.0Q1431 605 1530.5 549.0Q1630 493 1730.0 440.0Q1830 387 1921 340L1913 323L1921 305Q1830 258 1730.0 205.0Q1630 152 1530.5 96.0Q1431 40 1338.0 -15.0Q1245 -70 1166.5 -120.5Q1088 -171 1030.0 -214.5Q972 -258 943 -290ZM818 -77Q817 -47 814.5 -6.5Q812 34 808 80Q696 76 615.0 66.0Q534 56 475.0 42.0Q416 28 369.5 12.0Q323 -4 279 -21Q285 5 288.0 36.5Q291 68 291 95Q291 122 288.0 153.5Q285 185 279 213Q322 196 368.5 179.5Q415 163 474.0 149.5Q533 136 613.5 126.0Q694 116 806 112Q801 176 794.5 245.0Q788 314 781.0 381.5Q774 449 766 508Q666 503 592.0 493.0Q518 483 463.0 469.5Q408 456 364.0 440.5Q320 425 279 409Q285 435 288.0 466.5Q291 498 291 525Q291 542 289.5 561.0Q288 580 286 599Q270 556 254.0 474.5Q238 393 225.5 264.5Q213 136 207 -47L178 -48Q163 243 141.5 401.0Q120 559 100 608Q123 604 147.5 602.0Q172 600 196 600Q220 600 242.5 602.0Q265 604 285 607L279 643Q320 627 363.5 611.5Q407 596 461.5 582.5Q516 569 589.0 559.0Q662 549 761 544Q754 599 746.0 639.5Q738 680 730 698Q780 690 833 690Q888 690 933 698Q922 672 912.5 618.0Q903 564 894.0 492.5Q885 421 877.0 342.0Q869 263 862.5 184.5Q856 106 850.5 38.5Q845 -29 840 -77ZM1092 76Q1128 96 1178.5 128.0Q1229 160 1283.0 196.0Q1337 232 1385.0 264.5Q1433 297 1464 318Q1434 339 1386.0 372.5Q1338 406 1283.5 442.0Q1229 478 1178.5 510.5Q1128 543 1092 563Q1070 525 1054.0 497.5Q1038 470 1023 445Q1039 420 1055.0 391.0Q1071 362 1095 321V320Q1071 279 1055.0 250.5Q1039 222 1023 196Q1038 171 1054.0 143.0Q1070 115 1092 76Z" />
  </g>
</svg>