<svg xmlns="http://www.w3.org/2000/svg" viewBox="100 -290 1821 1225">
  <g transform="translate(0, 645) scale(1, -1)">
    <path fill="black" d="M943 -290Q922 -235 892.5 -189.5Q863 -144 826 -107Q884 -89 977.0 -55.0Q1070 -21 1189.5 25.5Q1309 72 1444 129Q1442 152 1440.0 174.0Q1438 196 1436 215Q1388 211 1330.0 206.5Q1272 202 1217.0 196.0Q1162 190 1122 182Q1133 166 1146.5 154.5Q1160 143 1173 133Q1160 128 1130.5 107.5Q1101 87 1066.5 61.0Q1032 35 1002 14L998 18Q1007 29 1018.0 42.5Q1029 56 1039 70Q995 102 956.5 128.0Q918 154 898 161H897Q911 181 932.0 212.0Q953 243 975.0 276.5Q997 310 1014.5 338.0Q1032 366 1039 379Q1012 402 984.0 426.0Q956 450 933.5 468.0Q911 486 900 490Q915 501 929.0 514.0Q943 527 955 545Q959 536 972.5 513.5Q986 491 1004.5 462.0Q1023 433 1043.0 404.5Q1063 376 1079 356Q1082 376 1082 395Q1082 408 1080.5 421.0Q1079 434 1077 449Q1097 441 1133 435Q1131 449 1129.0 459.0Q1127 469 1125 473Q1133 471 1141.0 470.5Q1149 470 1156 470Q1164 470 1171.5 470.5Q1179 471 1186 472L1185 473H1190L1189 472Q1197 471 1203.5 470.5Q1210 470 1217 470Q1225 470 1232.0 470.5Q1239 471 1246 472L1245 473L1248 472L1251 473L1250 472Q1258 471 1264.5 470.5Q1271 470 1278 470Q1285 470 1292.5 470.5Q1300 471 1307 472L1306 473L1309 472L1311 473L1310 472Q1318 471 1323.5 470.5Q1329 470 1336 470Q1354 470 1372 473Q1370 468 1367.0 451.5Q1364 435 1361 413L1404 410Q1397 439 1390.0 459.5Q1383 480 1379 495Q1395 491 1411.0 489.0Q1427 487 1443 487Q1471 487 1499 493Q1353 556 1222.5 607.5Q1092 659 990.0 696.0Q888 733 826 752Q863 789 892.5 834.5Q922 880 943 935Q972 903 1030.0 859.5Q1088 816 1166.5 765.5Q1245 715 1338.0 660.0Q1431 605 1530.5 549.0Q1630 493 1730.0 440.0Q1830 387 1921 340L1913 323L1921 305Q1830 258 1730.0 205.0Q1630 152 1530.5 96.0Q1431 40 1338.0 -15.0Q1245 -70 1166.5 -120.5Q1088 -171 1030.0 -214.5Q972 -258 943 -290ZM818 -77Q817 -47 814.5 -6.5Q812 34 808 80Q696 76 615.0 66.0Q534 56 475.0 42.0Q416 28 369.5 12.0Q323 -4 279 -21Q285 5 288.0 36.5Q291 68 291 95Q291 122 288.0 153.5Q285 185 279 213Q322 196 368.5 179.5Q415 163 474.0 149.5Q533 136 613.5 126.0Q694 116 806 112Q801 176 794.5 245.0Q788 314 781.0 381.5Q774 449 766 508Q666 503 592.0 493.0Q518 483 463.0 469.5Q408 456 364.0 440.5Q320 425 279 409Q285 435 288.0 466.5Q291 498 291 525Q291 542 289.5 561.0Q288 580 286 599Q270 556 254.0 474.5Q238 393 225.5 264.5Q213 136 207 -47L178 -48Q163 243 141.5 401.0Q120 559 100 608Q123 604 147.5 602.0Q172 600 196 600Q220 600 242.5 602.0Q265 604 285 607L279 643Q320 627 363.5 611.5Q407 596 461.5 582.5Q516 569 589.0 559.0Q662 549 761 544Q754 599 746.0 639.5Q738 680 730 698Q780 690 833 690Q888 690 933 698Q922 672 912.5 618.0Q903 564 894.0 492.5Q885 421 877.0 342.0Q869 263 862.5 184.5Q856 106 850.5 38.5Q845 -29 840 -77ZM1460 136Q1561 179 1668.0 226.0Q1775 273 1881 323Q1787 367 1693.0 409.0Q1599 451 1508 489Q1500 465 1490.0 425.0Q1480 385 1472.0 316.5Q1464 248 1460 136ZM1317 416Q1315 433 1313.0 446.0Q1311 459 1309 466Q1307 459 1305.0 446.0Q1303 433 1301 417Q1305 416 1309.0 416.0Q1313 416 1317 416ZM1256 421Q1254 435 1252.0 447.0Q1250 459 1248 466Q1247 459 1245.0 447.5Q1243 436 1241 422ZM1195 427Q1193 440 1191.0 450.0Q1189 460 1187 466Q1186 460 1184.5 450.0Q1183 440 1181 428ZM1434 232Q1429 282 1422.5 321.0Q1416 360 1409 389Q1396 388 1383.5 387.5Q1371 387 1358 385Q1354 347 1350.0 306.5Q1346 266 1343 242H1337Q1334 265 1330.0 304.5Q1326 344 1321 382L1297 380Q1293 343 1289.0 304.0Q1285 265 1282 242Q1323 238 1362.5 236.0Q1402 234 1434 232ZM1276 243Q1274 264 1270.0 301.5Q1266 339 1261 376L1235 374Q1231 340 1228.0 305.5Q1225 271 1222 248Q1236 247 1249.5 245.5Q1263 244 1276 243ZM1214 249Q1212 270 1209.0 303.0Q1206 336 1201 370L1174 367Q1171 336 1168.0 306.0Q1165 276 1162 255ZM1089 140Q1097 152 1103.5 162.5Q1110 173 1113 180Q1091 175 1077 169Q1079 182 1080.5 194.5Q1082 207 1082 220Q1082 232 1080.5 245.5Q1079 259 1077 273Q1088 268 1108.0 264.0Q1128 260 1153 256L1142 361Q1124 358 1109.0 355.0Q1094 352 1083 348Q1088 345 1092.5 342.0Q1097 339 1102 336Q1092 332 1067.0 310.0Q1042 288 1012 261Q1022 242 1043.0 208.0Q1064 174 1089 140ZM1042 75Q1053 90 1063.5 104.5Q1074 119 1083 132Q1046 159 1012.5 181.0Q979 203 959 212Q956 209 956 209Q966 188 990.0 149.5Q1014 111 1042 75Z" />
  </g>
</svg>