<svg xmlns="http://www.w3.org/2000/svg" viewBox="100 -290 1821 1225">
  <g transform="translate(0, 645) scale(1, -1)">
    <path fill="black" d="M943 -290Q922 -235 892.5 -189.5Q863 -144 826 -107Q878 -91 960.5 -61.5Q1043 -32 1147.5 8.5Q1252 49 1372.0 99.0Q1492 149 1621.5 205.5Q1751 262 1881 323Q1751 384 1621.5 440.5Q1492 497 1372.0 546.5Q1252 596 1147.5 636.5Q1043 677 960.5 706.5Q878 736 826 752Q863 789 892.5 834.5Q922 880 943 935Q972 903 1030.0 859.5Q1088 816 1166.5 765.5Q1245 715 1338.0 660.0Q1431 605 1530.5 549.0Q1630 493 1730.0 440.0Q1830 387 1921 340L1913 323L1921 305Q1830 258 1730.0 205.0Q1630 152 1530.5 96.0Q1431 40 1338.0 -15.0Q1245 -70 1166.5 -120.5Q1088 -171 1030.0 -214.5Q972 -258 943 -290ZM818 -77Q817 -47 814.5 -6.5Q812 34 808 80Q696 76 615.0 66.0Q534 56 475.0 42.0Q416 28 369.5 12.0Q323 -4 279 -21Q285 5 288.0 36.5Q291 68 291 95Q291 122 288.0 153.5Q285 185 279 213Q322 196 368.5 179.5Q415 163 474.0 149.5Q533 136 613.5 126.0Q694 116 806 112Q801 176 794.5 245.0Q788 314 781.0 381.5Q774 449 766 508Q666 503 592.0 493.0Q518 483 463.0 469.5Q408 456 364.0 440.5Q320 425 279 409Q285 435 288.0 466.5Q291 498 291 525Q291 542 289.5 561.0Q288 580 286 599Q270 556 254.0 474.5Q238 393 225.5 264.5Q213 136 207 -47L178 -48Q163 243 141.5 401.0Q120 559 100 608Q123 604 147.5 602.0Q172 600 196 600Q220 600 242.5 602.0Q265 604 285 607L279 643Q320 627 363.5 611.5Q407 596 461.5 582.5Q516 569 589.0 559.0Q662 549 761 544Q754 599 746.0 639.5Q738 680 730 698Q780 690 833 690Q888 690 933 698Q922 672 912.5 618.0Q903 564 894.0 492.5Q885 421 877.0 342.0Q869 263 862.5 184.5Q856 106 850.5 38.5Q845 -29 840 -77ZM1054 -10 1048 -3Q1074 29 1105.0 70.5Q1136 112 1166 153Q1099 198 1043.5 231.5Q988 265 957 277Q983 296 1008.0 318.5Q1033 341 1053 372Q1057 362 1064.5 348.0Q1072 334 1082 316Q1102 342 1122.5 369.5Q1143 397 1162 424Q1097 469 1042.0 505.0Q987 541 957 552Q983 572 1008.0 594.5Q1033 617 1053 648Q1060 631 1077.5 598.5Q1095 566 1121.0 526.0Q1147 486 1177 445Q1206 486 1227.5 520.0Q1249 554 1256 569Q1276 538 1301.0 515.0Q1326 492 1351 473Q1335 467 1307.0 449.0Q1279 431 1244.0 405.0Q1209 379 1170.5 350.5Q1132 322 1095 295Q1112 267 1133.5 236.0Q1155 205 1179 173Q1208 214 1228.5 246.5Q1249 279 1256 294Q1276 262 1301.0 239.5Q1326 217 1351 197Q1333 190 1299.5 167.5Q1266 145 1223.5 114.0Q1181 83 1137.0 50.0Q1093 17 1054 -10Z" />
  </g>
</svg>