<svg xmlns="http://www.w3.org/2000/svg" viewBox="100 -290 1821 1225">
  <g transform="translate(0, 645) scale(1, -1)">
    <path fill="black" d="M943 -290Q922 -235 892.5 -189.5Q863 -144 826 -107Q880 -90 964.5 -59.5Q1049 -29 1157.5 13.0Q1266 55 1389 106Q1377 123 1363.0 139.5Q1349 156 1335 167L1332 127H1322Q1321 135 1321.0 145.5Q1321 156 1320 167Q1221 166 1151.5 159.5Q1082 153 1034.0 144.0Q986 135 949 124L946 93H936Q935 119 933.0 157.5Q931 196 928.0 239.0Q925 282 921.5 322.5Q918 363 913.5 393.5Q909 424 904 437Q915 436 925.0 434.5Q935 433 944 433Q947 455 946.0 478.5Q945 502 940 523Q978 512 1028.5 502.0Q1079 492 1153.0 485.5Q1227 479 1335 478Q1349 489 1363.0 505.5Q1377 522 1389 539Q1266 590 1157.5 632.0Q1049 674 964.5 705.0Q880 736 826 752Q863 789 892.5 834.5Q922 880 943 935Q972 903 1030.0 859.5Q1088 816 1166.5 765.5Q1245 715 1338.0 660.0Q1431 605 1530.5 549.0Q1630 493 1730.0 440.0Q1830 387 1921 340L1913 323L1921 305Q1830 260 1730.0 207.5Q1630 155 1530.5 99.5Q1431 44 1338.0 -11.0Q1245 -66 1166.5 -117.5Q1088 -169 1030.0 -213.0Q972 -257 943 -290ZM818 -77Q817 -47 814.5 -6.5Q812 34 808 80Q696 76 615.0 66.0Q534 56 475.0 42.0Q416 28 369.5 12.0Q323 -4 279 -21Q285 5 288.0 36.5Q291 68 291 95Q291 122 288.0 153.5Q285 185 279 213Q322 196 368.5 179.5Q415 163 474.0 149.5Q533 136 613.5 126.0Q694 116 806 112Q801 176 794.5 245.0Q788 314 781.0 381.5Q774 449 766 508Q666 503 592.0 493.0Q518 483 463.0 469.5Q408 456 364.0 440.5Q320 425 279 409Q285 435 288.0 466.5Q291 498 291 525Q291 542 289.5 561.0Q288 580 286 599Q270 556 254.0 474.5Q238 393 225.5 264.5Q213 136 207 -47L178 -48Q163 243 141.5 401.0Q120 559 100 608Q123 604 147.5 602.0Q172 600 196 600Q220 600 242.5 602.0Q265 604 285 607L279 643Q320 627 363.5 611.5Q407 596 461.5 582.5Q516 569 589.0 559.0Q662 549 761 544Q754 599 746.0 639.5Q738 680 730 698Q780 690 833 690Q888 690 933 698Q922 672 912.5 618.0Q903 564 894.0 492.5Q885 421 877.0 342.0Q869 263 862.5 184.5Q856 106 850.5 38.5Q845 -29 840 -77ZM1441 128Q1546 172 1657.5 221.5Q1769 271 1881 323Q1769 375 1658.0 424.0Q1547 473 1442 517Q1471 481 1517.0 435.0Q1563 389 1641 324Q1561 257 1515.5 210.5Q1470 164 1441 128ZM1303 398Q1298 443 1292 466Q1211 464 1154.5 457.5Q1098 451 1056.5 441.5Q1015 432 979 422V420Q991 418 1020.5 415.5Q1050 413 1088.5 410.5Q1127 408 1168.0 406.0Q1209 404 1244.5 402.0Q1280 400 1303 398ZM1336 178H1362Q1391 189 1421.0 202.0Q1451 215 1488 236Q1485 261 1480.0 292.0Q1475 323 1471.0 349.5Q1467 376 1463 386Q1460 375 1455.0 345.5Q1450 316 1446.0 283.0Q1442 250 1439 226H1434Q1431 252 1426.0 286.0Q1421 320 1416.5 349.0Q1412 378 1408 387Q1422 385 1435.0 384.5Q1448 384 1463 387H1464Q1497 383 1519 387Q1516 379 1511.5 353.5Q1507 328 1503.0 296.5Q1499 265 1496 240Q1522 255 1553.0 275.0Q1584 295 1621 323Q1561 367 1516.0 393.5Q1471 420 1436.0 436.0Q1401 452 1368 465Q1364 452 1360.5 432.0Q1357 412 1354 387Q1368 385 1381.0 384.5Q1394 384 1408 387Q1405 378 1400.0 348.5Q1395 319 1390.5 284.5Q1386 250 1383 226H1378Q1375 250 1370.5 282.0Q1366 314 1361.5 342.0Q1357 370 1353 383Q1348 336 1344.0 280.0Q1340 224 1336 178ZM974 224Q977 245 974 265H973Q973 267 974 268Q973 269 973 271H974Q977 293 974 315H973Q973 317 974 318Q973 319 973 321H974Q977 343 974 365H973Q973 367 974 368Q973 369 973 371H974Q975 379 975.5 387.0Q976 395 975 403Q969 372 964.5 325.0Q960 278 956 229Q961 228 965.5 227.0Q970 226 974 224ZM1308 347Q1307 358 1306.5 368.5Q1306 379 1304 389Q1278 387 1235.5 384.0Q1193 381 1145.5 378.5Q1098 376 1057.0 373.0Q1016 370 993 368Q1016 365 1058.5 362.5Q1101 360 1149.5 357.0Q1198 354 1241.0 351.5Q1284 349 1308 347ZM1312 297 1309 339Q1284 337 1241.0 334.0Q1198 331 1149.5 328.5Q1101 326 1058.5 323.0Q1016 320 993 318Q1017 315 1060.5 312.5Q1104 310 1153.5 307.0Q1203 304 1246.0 301.5Q1289 299 1312 297ZM1316 247 1313 290Q1290 288 1246.5 285.0Q1203 282 1153.5 279.0Q1104 276 1060.5 273.5Q1017 271 993 268Q1012 266 1045.5 263.5Q1079 261 1118.5 258.5Q1158 256 1196.5 254.0Q1235 252 1267.0 250.0Q1299 248 1316 247ZM1319 178 1316 240Q1295 238 1252.5 235.0Q1210 232 1160.5 229.0Q1111 226 1066.5 223.5Q1022 221 996 218Q1032 209 1075.0 200.0Q1118 191 1177.0 185.5Q1236 180 1319 178Z" />
  </g>
</svg>