<svg xmlns="http://www.w3.org/2000/svg" viewBox="100 -290 1821 1225">
  <g transform="translate(0, 645) scale(1, -1)">
    <path fill="black" d="M943 -290Q922 -235 892.5 -189.5Q863 -144 826 -107Q886 -88 984.5 -52.5Q1083 -17 1209.0 33.0Q1335 83 1477 143Q1455 158 1431.5 170.0Q1408 182 1384 192Q1404 206 1425.0 219.0Q1446 232 1471.0 252.5Q1496 273 1526 307L1401 302Q1376 237 1370.5 195.0Q1365 153 1361 118Q1333 144 1301.0 161.5Q1269 179 1237 192Q1265 211 1297.0 233.0Q1329 255 1372 300L1195 292Q1204 240 1211.5 194.5Q1219 149 1223 120L1212 118Q1204 144 1188.0 190.5Q1172 237 1153 289Q1123 288 1094.0 285.5Q1065 283 1039 281Q1037 243 1035.5 197.0Q1034 151 1032 95H1018Q1014 152 1011.0 197.0Q1008 242 1005 279Q962 275 932.5 271.0Q903 267 895 262Q898 292 898 321Q898 350 895 374Q905 370 932.0 365.5Q959 361 997 356Q991 409 983.0 446.5Q975 484 964 525Q988 518 1017 518Q1046 518 1074 525Q1073 523 1073 520Q1099 525 1123.5 532.0Q1148 539 1168 547Q1167 543 1166.5 537.0Q1166 531 1166 523Q1166 493 1172.5 444.0Q1179 395 1187 341Q1228 338 1269.0 335.5Q1310 333 1349 331Q1334 353 1318.0 377.0Q1302 401 1289.0 419.5Q1276 438 1270 443Q1297 452 1319 467Q1319 460 1326.5 436.5Q1334 413 1344.0 384.0Q1354 355 1363 330Q1383 329 1399.0 328.5Q1415 328 1419 328Q1403 353 1383.5 383.0Q1364 413 1348.5 437.5Q1333 462 1327 467Q1340 472 1351.5 477.5Q1363 483 1374 492Q1374 486 1380.5 467.0Q1387 448 1396.0 423.0Q1405 398 1415.0 372.5Q1425 347 1432 327L1490 324Q1478 344 1461.5 370.0Q1445 396 1428.0 422.5Q1411 449 1398.5 468.0Q1386 487 1381 492Q1409 500 1430 515Q1430 509 1438.0 486.5Q1446 464 1458.0 434.0Q1470 404 1481.5 374.5Q1493 345 1501 324L1539 322L1541 323L1543 322Q1548 321 1553.5 320.5Q1559 320 1563 320Q1552 337 1533.5 367.0Q1515 397 1494.5 429.0Q1474 461 1458.5 485.5Q1443 510 1438 515L1443 517Q1308 574 1189.0 620.5Q1070 667 977.0 701.0Q884 735 826 752Q863 789 892.5 834.5Q922 880 943 935Q972 903 1030.0 859.5Q1088 816 1166.5 765.5Q1245 715 1338.0 660.0Q1431 605 1530.5 549.0Q1630 493 1730.0 440.0Q1830 387 1921 340L1913 323L1921 305Q1830 258 1730.0 205.0Q1630 152 1530.5 96.0Q1431 40 1338.0 -15.0Q1245 -70 1166.5 -120.5Q1088 -171 1030.0 -214.5Q972 -258 943 -290ZM818 -77Q817 -47 814.5 -6.5Q812 34 808 80Q696 76 615.0 66.0Q534 56 475.0 42.0Q416 28 369.5 12.0Q323 -4 279 -21Q285 5 288.0 36.5Q291 68 291 95Q291 122 288.0 153.5Q285 185 279 213Q322 196 368.5 179.5Q415 163 474.0 149.5Q533 136 613.5 126.0Q694 116 806 112Q801 176 794.5 245.0Q788 314 781.0 381.5Q774 449 766 508Q666 503 592.0 493.0Q518 483 463.0 469.5Q408 456 364.0 440.5Q320 425 279 409Q285 435 288.0 466.5Q291 498 291 525Q291 542 289.5 561.0Q288 580 286 599Q270 556 254.0 474.5Q238 393 225.5 264.5Q213 136 207 -47L178 -48Q163 243 141.5 401.0Q120 559 100 608Q123 604 147.5 602.0Q172 600 196 600Q220 600 242.5 602.0Q265 604 285 607L279 643Q320 627 363.5 611.5Q407 596 461.5 582.5Q516 569 589.0 559.0Q662 549 761 544Q754 599 746.0 639.5Q738 680 730 698Q780 690 833 690Q888 690 933 698Q922 672 912.5 618.0Q903 564 894.0 492.5Q885 421 877.0 342.0Q869 263 862.5 184.5Q856 106 850.5 38.5Q845 -29 840 -77ZM1133 344Q1115 395 1097.5 438.0Q1080 481 1068 503Q1061 473 1055.0 437.0Q1049 401 1044 351Q1065 350 1087.5 348.0Q1110 346 1133 344ZM1512 158Q1601 196 1694.5 237.5Q1788 279 1881 323Q1785 367 1689.5 410.0Q1594 453 1502 492Q1512 465 1525.5 430.5Q1539 396 1551.5 366.0Q1564 336 1570 320V308H1549Q1529 256 1521.5 221.0Q1514 186 1512 158Z" />
  </g>
</svg>