<svg xmlns="http://www.w3.org/2000/svg" viewBox="100 -290 1821 1225">
  <g transform="translate(0, 645) scale(1, -1)">
    <path fill="black" d="M943 -290Q922 -235 892.5 -189.5Q863 -144 826 -107Q890 -87 998.0 -47.5Q1106 -8 1242 46Q1228 86 1191 123Q1209 128 1233.5 137.0Q1258 146 1287 157Q1254 191 1220.0 223.0Q1186 255 1152 285Q1151 285 1148.5 284.5Q1146 284 1144 284Q1110 241 1084.0 203.5Q1058 166 1044 137Q1030 158 1011.5 174.5Q993 191 967 205Q984 217 1009.5 235.5Q1035 254 1064 278Q997 273 949.5 268.0Q902 263 892 258Q894 272 894.5 289.0Q895 306 895 322Q895 339 894.5 355.0Q894 371 892 381Q904 375 952.0 369.0Q1000 363 1068 358Q1037 383 1011.0 402.5Q985 422 967 434Q993 448 1011.5 464.5Q1030 481 1044 502Q1058 472 1085.5 433.5Q1113 395 1147 351H1149Q1183 381 1218.0 414.0Q1253 447 1286 481Q1257 493 1233.0 502.0Q1209 511 1191 516Q1211 536 1224.0 556.0Q1237 576 1245 598Q1108 653 999.0 693.0Q890 733 826 752Q863 789 892.5 834.5Q922 880 943 935Q972 903 1030.0 859.5Q1088 816 1166.5 765.5Q1245 715 1338.0 660.0Q1431 605 1530.5 549.0Q1630 493 1730.0 440.0Q1830 387 1921 340L1913 323L1921 305Q1830 258 1730.0 205.0Q1630 152 1530.5 96.0Q1431 40 1338.0 -15.0Q1245 -70 1166.5 -120.5Q1088 -171 1030.0 -214.5Q972 -258 943 -290ZM818 -77Q817 -47 814.5 -6.5Q812 34 808 80Q696 76 615.0 66.0Q534 56 475.0 42.0Q416 28 369.5 12.0Q323 -4 279 -21Q285 5 288.0 36.5Q291 68 291 95Q291 122 288.0 153.5Q285 185 279 213Q322 196 368.5 179.5Q415 163 474.0 149.5Q533 136 613.5 126.0Q694 116 806 112Q801 176 794.5 245.0Q788 314 781.0 381.5Q774 449 766 508Q666 503 592.0 493.0Q518 483 463.0 469.5Q408 456 364.0 440.5Q320 425 279 409Q285 435 288.0 466.5Q291 498 291 525Q291 542 289.5 561.0Q288 580 286 599Q270 556 254.0 474.5Q238 393 225.5 264.5Q213 136 207 -47L178 -48Q163 243 141.5 401.0Q120 559 100 608Q123 604 147.5 602.0Q172 600 196 600Q220 600 242.5 602.0Q265 604 285 607L279 643Q320 627 363.5 611.5Q407 596 461.5 582.5Q516 569 589.0 559.0Q662 549 761 544Q754 599 746.0 639.5Q738 680 730 698Q780 690 833 690Q888 690 933 698Q922 672 912.5 618.0Q903 564 894.0 492.5Q885 421 877.0 342.0Q869 263 862.5 184.5Q856 106 850.5 38.5Q845 -29 840 -77ZM1265 55Q1405 111 1563.0 179.0Q1721 247 1881 323Q1718 400 1556.0 469.0Q1394 538 1253 594Q1288 559 1347.0 515.0Q1406 471 1479.0 422.0Q1552 373 1626 323L1625 322H1626V309Q1556 262 1487.0 217.0Q1418 172 1360.0 131.0Q1302 90 1265 55ZM1604 323Q1526 369 1446.0 408.0Q1366 447 1301 475L1250 413Q1255 412 1261.0 411.5Q1267 411 1273 411Q1286 411 1301 414Q1297 406 1294.0 386.5Q1291 367 1289 341L1308 340Q1306 357 1303.5 370.0Q1301 383 1298 390Q1312 387 1325 387Q1338 387 1353 390Q1350 383 1347.5 369.5Q1345 356 1343 338L1366 337Q1364 354 1361.0 368.0Q1358 382 1355 390Q1369 387 1382 387Q1395 387 1410 390Q1407 383 1404.0 368.0Q1401 353 1399 335L1425 333Q1420 368 1412 390Q1426 387 1439 387Q1452 387 1467 390Q1463 381 1460.0 366.0Q1457 351 1454 331ZM1258 343Q1253 388 1247 410L1195 348ZM1445 226Q1524 264 1602 309Q1576 308 1537.5 306.0Q1499 304 1451 302Q1449 283 1447.5 263.5Q1446 244 1445 226ZM1388 200Q1400 205 1412.5 211.0Q1425 217 1438 223Q1437 242 1434.5 262.0Q1432 282 1430 301L1395 299Q1393 274 1391.5 247.5Q1390 221 1388 200ZM1331 175Q1343 180 1355.5 185.5Q1368 191 1381 196Q1378 219 1375.5 245.5Q1373 272 1371 298Q1363 297 1355.0 297.0Q1347 297 1339 296Q1336 264 1334.0 231.0Q1332 198 1331 175ZM1302 163 1324 172Q1322 196 1319.0 229.0Q1316 262 1314 294L1285 293Q1283 265 1281.5 238.0Q1280 211 1279 191Q1285 184 1291.0 177.5Q1297 171 1302 163ZM1270 202Q1268 221 1266.5 244.5Q1265 268 1263 291L1198 288Q1215 267 1233.0 245.5Q1251 224 1270 202Z" />
  </g>
</svg>