<svg xmlns="http://www.w3.org/2000/svg" viewBox="100 -290 1821 1225">
  <g transform="translate(0, 645) scale(1, -1)">
    <path fill="black" d="M943 -290Q922 -235 892.5 -189.5Q863 -144 826 -107Q878 -91 960.5 -61.5Q1043 -32 1147.5 8.5Q1252 49 1372.0 99.0Q1492 149 1621.5 205.5Q1751 262 1881 323Q1774 373 1666.5 420.0Q1559 467 1457 510Q1443 472 1433.5 408.5Q1424 345 1418.5 269.0Q1413 193 1409 115H1390Q1388 137 1386.0 158.0Q1384 179 1382 199Q1273 192 1186.5 187.5Q1100 183 1047 161Q1048 174 1049.5 185.5Q1051 197 1051 208Q1051 223 1049.5 237.5Q1048 252 1047 267Q1076 255 1126.0 248.0Q1176 241 1241.0 237.0Q1306 233 1379 229Q1375 277 1370.0 321.0Q1365 365 1358 402Q1257 396 1177.0 391.0Q1097 386 1047 366Q1048 379 1049.5 390.5Q1051 402 1051 413Q1051 428 1049.5 442.5Q1048 457 1047 472Q1087 456 1169.0 448.0Q1251 440 1352 435Q1343 478 1329 515Q1347 512 1362.5 510.0Q1378 508 1392 508Q1406 508 1419.5 509.5Q1433 511 1450 514Q1314 571 1193.5 618.0Q1073 665 978.5 699.5Q884 734 826 752Q863 789 892.5 834.5Q922 880 943 935Q972 903 1030.0 859.5Q1088 816 1166.5 765.5Q1245 715 1338.0 660.0Q1431 605 1530.5 549.0Q1630 493 1730.0 440.0Q1830 387 1921 340L1913 323L1921 305Q1830 258 1730.0 205.0Q1630 152 1530.5 96.0Q1431 40 1338.0 -15.0Q1245 -70 1166.5 -120.5Q1088 -171 1030.0 -214.5Q972 -258 943 -290ZM818 -77Q817 -47 814.5 -6.5Q812 34 808 80Q696 76 615.0 66.0Q534 56 475.0 42.0Q416 28 369.5 12.0Q323 -4 279 -21Q285 5 288.0 36.5Q291 68 291 95Q291 122 288.0 153.5Q285 185 279 213Q322 196 368.5 179.5Q415 163 474.0 149.5Q533 136 613.5 126.0Q694 116 806 112Q801 176 794.5 245.0Q788 314 781.0 381.5Q774 449 766 508Q666 503 592.0 493.0Q518 483 463.0 469.5Q408 456 364.0 440.5Q320 425 279 409Q285 435 288.0 466.5Q291 498 291 525Q291 542 289.5 561.0Q288 580 286 599Q270 556 254.0 474.5Q238 393 225.5 264.5Q213 136 207 -47L178 -48Q163 243 141.5 401.0Q120 559 100 608Q123 604 147.5 602.0Q172 600 196 600Q220 600 242.5 602.0Q265 604 285 607L279 643Q320 627 363.5 611.5Q407 596 461.5 582.5Q516 569 589.0 559.0Q662 549 761 544Q754 599 746.0 639.5Q738 680 730 698Q780 690 833 690Q888 690 933 698Q922 672 912.5 618.0Q903 564 894.0 492.5Q885 421 877.0 342.0Q869 263 862.5 184.5Q856 106 850.5 38.5Q845 -29 840 -77ZM990 115Q977 245 966.0 347.5Q955 450 929 515Q947 512 962.5 510.0Q978 508 992 508Q1007 508 1023.0 510.0Q1039 512 1059 515Q1044 477 1034.0 413.0Q1024 349 1018.5 271.5Q1013 194 1009 115Z" />
  </g>
</svg>