<svg xmlns="http://www.w3.org/2000/svg" viewBox="100 -290 1821 1225">
  <g transform="translate(0, 645) scale(1, -1)">
    <path fill="black" d="M943 -290Q922 -235 892.5 -189.5Q863 -144 826 -107Q888 -88 990.0 -50.5Q1092 -13 1221 38Q1189 70 1149 90L1158 94Q1114 130 1064.0 167.5Q1014 205 970.5 235.0Q927 265 900 276Q934 293 963 319Q934 345 900 362Q927 374 970.0 403.5Q1013 433 1062.5 470.5Q1112 508 1157 544L1149 547Q1192 568 1227 605Q1096 657 992.0 695.0Q888 733 826 752Q863 789 892.5 834.5Q922 880 943 935Q972 903 1030.0 859.5Q1088 816 1166.5 765.5Q1245 715 1338.0 660.0Q1431 605 1530.5 549.0Q1630 493 1730.0 440.0Q1830 387 1921 340L1913 323L1921 305Q1830 258 1730.0 205.0Q1630 152 1530.5 96.0Q1431 40 1338.0 -15.0Q1245 -70 1166.5 -120.5Q1088 -171 1030.0 -214.5Q972 -258 943 -290ZM818 -77Q817 -47 814.5 -6.5Q812 34 808 80Q696 76 615.0 66.0Q534 56 475.0 42.0Q416 28 369.5 12.0Q323 -4 279 -21Q285 5 288.0 36.5Q291 68 291 95Q291 122 288.0 153.5Q285 185 279 213Q322 196 368.5 179.5Q415 163 474.0 149.5Q533 136 613.5 126.0Q694 116 806 112Q801 176 794.5 245.0Q788 314 781.0 381.5Q774 449 766 508Q666 503 592.0 493.0Q518 483 463.0 469.5Q408 456 364.0 440.5Q320 425 279 409Q285 435 288.0 466.5Q291 498 291 525Q291 542 289.5 561.0Q288 580 286 599Q270 556 254.0 474.5Q238 393 225.5 264.5Q213 136 207 -47L178 -48Q163 243 141.5 401.0Q120 559 100 608Q123 604 147.5 602.0Q172 600 196 600Q220 600 242.5 602.0Q265 604 285 607L279 643Q320 627 363.5 611.5Q407 596 461.5 582.5Q516 569 589.0 559.0Q662 549 761 544Q754 599 746.0 639.5Q738 680 730 698Q780 690 833 690Q888 690 933 698Q922 672 912.5 618.0Q903 564 894.0 492.5Q885 421 877.0 342.0Q869 263 862.5 184.5Q856 106 850.5 38.5Q845 -29 840 -77ZM1243 47Q1386 104 1550.5 174.0Q1715 244 1881 323Q1712 402 1546.5 472.5Q1381 543 1237 601Q1250 579 1280.0 543.0Q1310 507 1347.5 465.5Q1385 424 1422.0 385.5Q1459 347 1485 319Q1460 292 1425.5 255.5Q1391 219 1355.0 180.0Q1319 141 1289.0 106.0Q1259 71 1243 47ZM1181 106Q1210 123 1246.5 149.0Q1283 175 1322.0 205.0Q1361 235 1398.0 265.0Q1435 295 1464 319Q1435 343 1398.0 372.5Q1361 402 1321.5 432.0Q1282 462 1245.5 488.0Q1209 514 1180 531Q1147 495 1110.0 455.0Q1073 415 1042.0 379.5Q1011 344 994 319Q1011 294 1042.0 258.0Q1073 222 1110.0 182.0Q1147 142 1181 106Z" />
  </g>
</svg>