<svg xmlns="http://www.w3.org/2000/svg" viewBox="100 -290 1821 1225">
  <g transform="translate(0, 645) scale(1, -1)">
    <path fill="black" d="M943 -290Q922 -235 892.5 -189.5Q863 -144 826 -107Q878 -91 960.5 -61.5Q1043 -32 1147.5 8.5Q1252 49 1372.0 99.0Q1492 149 1621.5 205.5Q1751 262 1881 323Q1751 384 1621.5 440.5Q1492 497 1372.0 546.5Q1252 596 1147.5 636.5Q1043 677 960.5 706.5Q878 736 826 752Q863 789 892.5 834.5Q922 880 943 935Q972 903 1030.0 859.5Q1088 816 1166.5 765.5Q1245 715 1338.0 660.0Q1431 605 1530.5 549.0Q1630 493 1730.0 440.0Q1830 387 1921 340L1913 323L1921 305Q1830 258 1730.0 205.0Q1630 152 1530.5 96.0Q1431 40 1338.0 -15.0Q1245 -70 1166.5 -120.5Q1088 -171 1030.0 -214.5Q972 -258 943 -290ZM818 -77Q817 -47 814.5 -6.5Q812 34 808 80Q696 76 615.0 66.0Q534 56 475.0 42.0Q416 28 369.5 12.0Q323 -4 279 -21Q285 5 288.0 36.5Q291 68 291 95Q291 122 288.0 153.5Q285 185 279 213Q322 196 368.5 179.5Q415 163 474.0 149.5Q533 136 613.5 126.0Q694 116 806 112Q801 176 794.5 245.0Q788 314 781.0 381.5Q774 449 766 508Q666 503 592.0 493.0Q518 483 463.0 469.5Q408 456 364.0 440.5Q320 425 279 409Q285 435 288.0 466.5Q291 498 291 525Q291 542 289.5 561.0Q288 580 286 599Q270 556 254.0 474.5Q238 393 225.5 264.5Q213 136 207 -47L178 -48Q163 243 141.5 401.0Q120 559 100 608Q123 604 147.5 602.0Q172 600 196 600Q220 600 242.5 602.0Q265 604 285 607L279 643Q320 627 363.5 611.5Q407 596 461.5 582.5Q516 569 589.0 559.0Q662 549 761 544Q754 599 746.0 639.5Q738 680 730 698Q780 690 833 690Q888 690 933 698Q922 672 912.5 618.0Q903 564 894.0 492.5Q885 421 877.0 342.0Q869 263 862.5 184.5Q856 106 850.5 38.5Q845 -29 840 -77ZM1239 54Q1239 84 1238.5 111.5Q1238 139 1237 164L1205 163L1202 160L1199 162Q1127 158 1075.5 153.0Q1024 148 987.0 142.0Q950 136 919 128Q921 137 922.0 146.0Q923 155 923 164Q923 173 922.0 183.0Q921 193 919 203Q956 193 1021.0 186.5Q1086 180 1184 175Q1155 201 1130.5 222.0Q1106 243 1085 260Q1029 255 990.0 248.5Q951 242 919 234Q921 242 922.0 251.5Q923 261 923 270Q923 289 919 309Q941 302 973.0 297.5Q1005 293 1048 290Q1038 297 1029.0 303.5Q1020 310 1011 317Q1022 325 1035.5 337.0Q1049 349 1065 364Q1018 359 983.0 353.5Q948 348 919 340Q921 348 922.0 357.0Q923 366 923 375Q923 395 919 415Q947 408 990.5 402.0Q1034 396 1095 392Q1116 412 1138.5 434.5Q1161 457 1182 481Q1124 478 1084.5 474.5Q1045 471 1017.0 466.5Q989 462 966.0 457.0Q943 452 919 446Q921 454 922.0 463.0Q923 472 923 481Q923 490 922.0 500.0Q921 510 919 521Q947 513 981.5 507.0Q1016 501 1068.0 497.5Q1120 494 1200 491Q1196 512 1191.5 531.5Q1187 551 1182 567Q1198 563 1213.5 561.5Q1229 560 1245 560Q1262 560 1279.0 561.5Q1296 563 1313 567Q1292 491 1273.5 366.0Q1255 241 1255 54ZM1218 386Q1215 410 1211.5 432.5Q1208 455 1204 475Q1191 451 1180.0 429.5Q1169 408 1158 388Q1172 388 1187.0 387.5Q1202 387 1218 386ZM1285 247Q1289 263 1290.0 280.5Q1291 298 1291 317Q1291 334 1290.0 352.5Q1289 371 1285 389Q1319 376 1358.0 361.5Q1397 347 1451.0 337.5Q1505 328 1585 328V309Q1508 309 1456.5 300.5Q1405 292 1365.5 278.0Q1326 264 1285 247ZM1230 279Q1228 305 1225.5 329.0Q1223 353 1220 375Q1201 374 1183.0 373.0Q1165 372 1148 371Q1133 341 1118 317Q1127 302 1139 284Q1160 283 1182.5 281.5Q1205 280 1230 279ZM1237 173 1231 270 1151 265Q1165 246 1181.0 223.0Q1197 200 1216 174Q1221 174 1226.5 174.0Q1232 174 1237 173Z" />
  </g>
</svg>