<svg xmlns="http://www.w3.org/2000/svg" viewBox="100 -290 1821 1225">
  <g transform="translate(0, 645) scale(1, -1)">
    <path fill="black" d="M943 -290Q922 -235 892.5 -189.5Q863 -144 826 -107Q878 -91 960.5 -61.5Q1043 -32 1147.5 8.5Q1252 49 1372.0 99.0Q1492 149 1621.5 205.5Q1751 262 1881 323Q1751 384 1621.5 440.5Q1492 497 1372.0 546.5Q1252 596 1147.5 636.5Q1043 677 960.5 706.5Q878 736 826 752Q863 789 892.5 834.5Q922 880 943 935Q972 903 1030.0 859.5Q1088 816 1166.5 765.5Q1245 715 1338.0 660.0Q1431 605 1530.5 549.0Q1630 493 1730.0 440.0Q1830 387 1921 340L1913 323L1921 305Q1830 258 1730.0 205.0Q1630 152 1530.5 96.0Q1431 40 1338.0 -15.0Q1245 -70 1166.5 -120.5Q1088 -171 1030.0 -214.5Q972 -258 943 -290ZM818 -77Q817 -47 814.5 -6.5Q812 34 808 80Q696 76 615.0 66.0Q534 56 475.0 42.0Q416 28 369.5 12.0Q323 -4 279 -21Q285 5 288.0 36.5Q291 68 291 95Q291 122 288.0 153.5Q285 185 279 213Q322 196 368.5 179.5Q415 163 474.0 149.5Q533 136 613.5 126.0Q694 116 806 112Q801 176 794.5 245.0Q788 314 781.0 381.5Q774 449 766 508Q666 503 592.0 493.0Q518 483 463.0 469.5Q408 456 364.0 440.5Q320 425 279 409Q285 435 288.0 466.5Q291 498 291 525Q291 542 289.5 561.0Q288 580 286 599Q270 556 254.0 474.5Q238 393 225.5 264.5Q213 136 207 -47L178 -48Q163 243 141.5 401.0Q120 559 100 608Q123 604 147.5 602.0Q172 600 196 600Q220 600 242.5 602.0Q265 604 285 607L279 643Q320 627 363.5 611.5Q407 596 461.5 582.5Q516 569 589.0 559.0Q662 549 761 544Q754 599 746.0 639.5Q738 680 730 698Q780 690 833 690Q888 690 933 698Q922 672 912.5 618.0Q903 564 894.0 492.5Q885 421 877.0 342.0Q869 263 862.5 184.5Q856 106 850.5 38.5Q845 -29 840 -77ZM1152 336Q1099 372 1054.0 389.5Q1009 407 971.0 413.5Q933 420 900 423Q942 453 972.5 479.0Q1003 505 1029.5 535.5Q1056 566 1086 608Q1089 576 1095.5 538.0Q1102 500 1119.5 455.5Q1137 411 1173 358ZM1432 258Q1379 294 1334.0 311.5Q1289 329 1251.5 335.5Q1214 342 1181 344Q1223 374 1253.5 400.5Q1284 427 1310.5 457.5Q1337 488 1367 530Q1370 498 1376.5 460.0Q1383 422 1400.5 377.0Q1418 332 1453 279ZM1231 56Q1178 92 1133.0 109.5Q1088 127 1050.5 133.5Q1013 140 980 143Q1022 173 1052.0 199.5Q1082 226 1108.5 256.5Q1135 287 1165 328Q1168 296 1174.5 258.0Q1181 220 1198.5 175.5Q1216 131 1252 78Z" />
  </g>
</svg>