<svg xmlns="http://www.w3.org/2000/svg" viewBox="100 -280 2088 1220">
  <g transform="translate(0, 660) scale(1, -1)">
    <path fill="black" d="M943 -280Q932 -221 912.0 -171.5Q892 -122 861 -79Q913 -73 998.0 -52.0Q1083 -31 1192.0 2.0Q1301 35 1427.0 76.0Q1553 117 1686 163Q1672 177 1655.5 192.0Q1639 207 1621 223Q1592 188 1571.0 159.5Q1550 131 1545 118Q1532 137 1516.0 153.0Q1500 169 1484 180Q1498 186 1525.5 206.0Q1553 226 1586 253L1542 290Q1515 256 1496.0 230.0Q1477 204 1472 192Q1459 211 1442.5 227.0Q1426 243 1410 253Q1424 258 1449.5 276.5Q1475 295 1506 320Q1475 345 1449.5 363.0Q1424 381 1410 387Q1426 398 1442.5 413.5Q1459 429 1472 448Q1477 436 1496.0 409.5Q1515 383 1542 350Q1553 359 1564.5 368.5Q1576 378 1586 387Q1553 414 1525.5 434.0Q1498 454 1484 460Q1500 471 1516.0 487.0Q1532 503 1545 521Q1550 509 1571.0 480.5Q1592 452 1621 417Q1644 437 1665.0 456.0Q1686 475 1702 491Q1566 538 1438.0 580.0Q1310 622 1198.5 656.0Q1087 690 1000.5 711.5Q914 733 861 739Q892 782 912.0 832.0Q932 882 943 940Q977 914 1049.5 873.5Q1122 833 1222.0 783.5Q1322 734 1440.5 678.5Q1559 623 1686.5 565.5Q1814 508 1942.0 452.5Q2070 397 2188 347L2185 330L2188 313Q2070 264 1942.0 208.0Q1814 152 1686.5 94.5Q1559 37 1440.5 -18.5Q1322 -74 1222.0 -123.5Q1122 -173 1049.5 -213.5Q977 -254 943 -280ZM818 -77Q817 -47 814.5 -6.5Q812 34 808 80Q696 76 615.0 66.0Q534 56 475.0 42.0Q416 28 369.5 12.0Q323 -4 279 -21Q285 5 288.0 36.5Q291 68 291 95Q291 122 288.0 153.5Q285 185 279 213Q322 196 368.5 179.5Q415 163 474.0 149.5Q533 136 613.5 126.0Q694 116 806 112Q801 176 794.5 245.0Q788 314 781.0 381.5Q774 449 766 508Q666 503 592.0 493.0Q518 483 463.0 469.5Q408 456 364.0 440.5Q320 425 279 409Q285 435 288.0 466.5Q291 498 291 525Q291 542 289.5 561.0Q288 580 286 599Q270 556 254.0 474.5Q238 393 225.5 264.5Q213 136 207 -47L178 -48Q163 243 141.5 401.0Q120 559 100 608Q123 604 147.5 602.0Q172 600 196 600Q220 600 242.5 602.0Q265 604 285 607L279 643Q320 627 363.5 611.5Q407 596 461.5 582.5Q516 569 589.0 559.0Q662 549 761 544Q754 599 746.0 639.5Q738 680 730 698Q780 690 833 690Q888 690 933 698Q922 672 912.5 618.0Q903 564 894.0 492.5Q885 421 877.0 342.0Q869 263 862.5 184.5Q856 106 850.5 38.5Q845 -29 840 -77ZM962 27Q952 47 940.5 61.0Q929 75 914 88Q925 91 947 105Q945 148 941.0 201.5Q937 255 932.0 309.0Q927 363 920.5 407.5Q914 452 908 476Q921 473 933.0 472.0Q945 471 956 471H971Q934 497 914 503Q929 516 940.5 530.0Q952 544 962 563Q968 553 989.0 530.0Q1010 507 1040.5 477.5Q1071 448 1104.0 416.5Q1137 385 1167.5 357.0Q1198 329 1219 309Q1239 329 1268.5 357.5Q1298 386 1324 418L1335 411Q1315 374 1301.0 344.5Q1287 315 1273 292Q1284 276 1301.0 249.0Q1318 222 1341 189L1331 179Q1294 214 1267.0 238.0Q1240 262 1217 280Q1196 260 1165.5 231.5Q1135 203 1102.0 172.0Q1069 141 1039.5 112.0Q1010 83 989.0 60.5Q968 38 962 27ZM1371 93Q1371 121 1368.5 166.0Q1366 211 1362.0 263.0Q1358 315 1353.0 365.5Q1348 416 1342.0 457.5Q1336 499 1330 522Q1356 516 1378 516Q1401 516 1423 522Q1416 495 1409.5 452.5Q1403 410 1398.0 359.5Q1393 309 1389.5 258.5Q1386 208 1384.0 164.5Q1382 121 1382 93ZM1700 168Q1814 208 1929.5 249.0Q2045 290 2156 330Q2049 369 1937.0 409.0Q1825 449 1714 487Q1698 471 1677.5 448.5Q1657 426 1634 400Q1659 369 1687 338Q1718 364 1744.5 388.5Q1771 413 1788 430L1795 422Q1778 404 1753.5 377.5Q1729 351 1702 320Q1729 289 1753.5 262.5Q1778 236 1795 218L1788 210Q1771 227 1744.5 251.5Q1718 276 1687 302Q1674 287 1660.5 271.0Q1647 255 1634 240Q1652 220 1669.0 201.5Q1686 183 1700 168ZM1201 305Q1175 325 1139.5 351.5Q1104 378 1066.5 405.5Q1029 433 996 455Q987 408 979 343Q1015 330 1074.5 320.0Q1134 310 1201 305ZM1608 270Q1622 282 1637.5 294.5Q1653 307 1667 320Q1653 333 1637.5 345.0Q1622 357 1608 369L1566 320ZM962 113Q995 135 1038.5 166.0Q1082 197 1125.0 229.0Q1168 261 1199 284Q1129 276 1071.0 266.0Q1013 256 972 238Q974 251 975.5 264.0Q977 277 977 290Q977 295 977.0 300.5Q977 306 976 312Q971 261 967.5 208.5Q964 156 962 113Z" />
  </g>
</svg>