<svg xmlns="http://www.w3.org/2000/svg" viewBox="100 -280 2088 1220">
  <g transform="translate(0, 660) scale(1, -1)">
    <path fill="black" d="M943 -280Q932 -221 912.0 -171.5Q892 -122 861 -79Q911 -73 991.5 -53.5Q1072 -34 1175.0 -3.0Q1278 28 1396.5 66.5Q1515 105 1643.0 149.0Q1771 193 1901.0 239.0Q2031 285 2156 330Q2031 375 1901.0 421.0Q1771 467 1643.0 511.0Q1515 555 1396.5 593.5Q1278 632 1175.0 663.0Q1072 694 991.5 713.5Q911 733 861 739Q892 782 912.0 832.0Q932 882 943 940Q977 914 1049.5 873.5Q1122 833 1222.0 783.5Q1322 734 1440.5 678.5Q1559 623 1686.5 565.5Q1814 508 1942.0 452.5Q2070 397 2188 347L2185 330L2188 313Q2070 264 1942.0 208.0Q1814 152 1686.5 94.5Q1559 37 1440.5 -18.5Q1322 -74 1222.0 -123.5Q1122 -173 1049.5 -213.5Q977 -254 943 -280ZM818 -77Q817 -47 814.5 -6.5Q812 34 808 80Q696 76 615.0 66.0Q534 56 475.0 42.0Q416 28 369.5 12.0Q323 -4 279 -21Q285 5 288.0 36.5Q291 68 291 95Q291 122 288.0 153.5Q285 185 279 213Q322 196 368.5 179.5Q415 163 474.0 149.5Q533 136 613.5 126.0Q694 116 806 112Q801 176 794.5 245.0Q788 314 781.0 381.5Q774 449 766 508Q666 503 592.0 493.0Q518 483 463.0 469.5Q408 456 364.0 440.5Q320 425 279 409Q285 435 288.0 466.5Q291 498 291 525Q291 542 289.5 561.0Q288 580 286 599Q270 556 254.0 474.5Q238 393 225.5 264.5Q213 136 207 -47L178 -48Q163 243 141.5 401.0Q120 559 100 608Q123 604 147.5 602.0Q172 600 196 600Q220 600 242.5 602.0Q265 604 285 607L279 643Q320 627 363.5 611.5Q407 596 461.5 582.5Q516 569 589.0 559.0Q662 549 761 544Q754 599 746.0 639.5Q738 680 730 698Q780 690 833 690Q888 690 933 698Q924 675 915.0 629.0Q906 583 898.0 522.0Q890 461 882 392L1188 335Q1185 366 1182.0 393.5Q1179 421 1176 443Q1161 417 1150.0 391.0Q1139 365 1134 346Q1126 358 1116.5 369.5Q1107 381 1096 391Q1076 411 1052 427Q1075 434 1108.0 448.0Q1141 462 1170 481Q1163 526 1155 544Q1185 538 1218 538Q1250 538 1278 544Q1268 519 1257.5 464.0Q1247 409 1239 325L1271 319L1417 347L1406 443Q1391 417 1380.0 390.5Q1369 364 1364 345Q1346 371 1326 391Q1306 411 1282 427Q1305 434 1338.0 448.0Q1371 462 1400 481Q1393 526 1385 544Q1415 538 1448 538Q1480 538 1508 544Q1499 522 1489.5 475.0Q1480 428 1472 357L1670 395L1662 398Q1706 427 1735 472Q1746 453 1773.0 420.5Q1800 388 1831 353Q1856 369 1877.5 384.0Q1899 399 1914 412L1924 400Q1910 386 1892.0 367.5Q1874 349 1854 329Q1874 308 1892.0 289.5Q1910 271 1924 257L1914 245Q1899 258 1877.5 273.0Q1856 288 1831 304Q1800 270 1773.0 237.5Q1746 205 1735 185Q1727 198 1714 213L1463 260Q1457 185 1454 90L1436 89Q1436 94 1435.5 99.0Q1435 104 1435 109Q1415 128 1386.5 144.0Q1358 160 1330.0 171.5Q1302 183 1282 189Q1306 205 1326 225Q1346 245 1364 271Q1372 245 1390.5 204.0Q1409 163 1434 131Q1432 169 1429.0 203.0Q1426 237 1424 268L1271 296L1235 290Q1231 247 1228.5 196.5Q1226 146 1224 90L1206 89Q1206 94 1205.5 99.0Q1205 104 1205 109Q1185 128 1156.5 144.0Q1128 160 1100.0 171.5Q1072 183 1052 189Q1076 205 1096 225Q1107 236 1116.5 247.5Q1126 259 1134 270Q1142 244 1160.5 203.5Q1179 163 1204 131Q1201 172 1198.5 210.0Q1196 248 1193 282L866 220Q858 133 851.5 54.5Q845 -24 840 -77ZM1686 241Q1674 252 1662 259Q1682 267 1718.0 286.5Q1754 306 1792 329Q1769 343 1746.0 355.5Q1723 368 1704 378L1470 334Q1469 322 1467.5 309.5Q1466 297 1465 283ZM868 243 1191 304Q1191 306 1190.5 308.0Q1190 310 1190 312L880 370ZM1422 291 1419 324 1332 308Z" />
  </g>
</svg>