<svg xmlns="http://www.w3.org/2000/svg" viewBox="100 -290 1821 1225">
  <g transform="translate(0, 645) scale(1, -1)">
    <path fill="black" d="M943 -290Q922 -235 892.5 -189.5Q863 -144 826 -107Q900 -84 1032.5 -34.5Q1165 15 1331 82Q1295 105 1244.5 138.0Q1194 171 1138.0 206.5Q1082 242 1029.5 274.0Q977 306 937.0 328.5Q897 351 879 358Q871 277 863.5 195.5Q856 114 850.5 43.0Q845 -28 840 -77H818Q817 -47 814.5 -6.5Q812 34 808 80Q696 76 615.0 66.0Q534 56 475.0 42.0Q416 28 369.5 12.0Q323 -4 279 -21Q285 5 288.0 36.5Q291 68 291 95Q291 122 288.0 153.5Q285 185 279 213Q322 196 368.5 179.5Q415 163 474.0 149.5Q533 136 613.5 126.0Q694 116 806 112Q801 176 794.5 245.0Q788 314 781.0 381.5Q774 449 766 508Q666 503 592.0 493.0Q518 483 463.0 469.5Q408 456 364.0 440.5Q320 425 279 409Q285 435 288.0 466.5Q291 498 291 525Q291 542 289.5 561.0Q288 580 286 599Q270 556 254.0 474.5Q238 393 225.5 264.5Q213 136 207 -47L178 -48Q163 243 141.5 401.0Q120 559 100 608Q123 604 147.5 602.0Q172 600 196 600Q220 600 242.5 602.0Q265 604 285 607L279 643Q320 627 363.5 611.5Q407 596 461.5 582.5Q516 569 589.0 559.0Q662 549 761 544Q754 599 746.0 639.5Q738 680 730 698Q780 690 833 690Q888 690 933 698Q923 673 913.5 622.5Q904 572 895.5 505.5Q887 439 879 364Q892 378 903.0 393.0Q914 408 924 427Q930 418 958.0 393.0Q986 368 1028.0 334.0Q1070 300 1117 263V268Q1113 276 1107.5 283.5Q1102 291 1096 297Q1104 299 1116 304Q1115 318 1114.0 332.0Q1113 346 1112 359Q1111 358 1109.0 356.5Q1107 355 1106 353Q1097 382 1077 402L1084 404Q1023 441 974.0 468.5Q925 496 908 500Q922 514 935.0 530.0Q948 546 958 568Q966 555 1007.5 520.5Q1049 486 1104 442Q1102 457 1099.5 469.0Q1097 481 1095 488Q1109 485 1122 485Q1137 485 1152 488Q1164 485 1179 485Q1193 485 1209 488Q1223 485 1236 485Q1250 485 1263 488Q1278 496 1291.5 503.0Q1305 510 1317 517L1313 536Q1327 533 1342.0 531.0Q1357 529 1372 529Q1389 529 1407 532Q1280 585 1168.0 628.5Q1056 672 968.5 703.5Q881 735 826 752Q863 789 892.5 834.5Q922 880 943 935Q972 903 1030.0 859.5Q1088 816 1166.5 765.5Q1245 715 1338.0 660.0Q1431 605 1530.5 549.0Q1630 493 1730.0 440.0Q1830 387 1921 340L1913 323L1921 305Q1830 258 1730.0 205.0Q1630 152 1530.5 96.0Q1431 40 1338.0 -15.0Q1245 -70 1166.5 -120.5Q1088 -171 1030.0 -214.5Q972 -258 943 -290ZM1383 103Q1500 152 1627.0 207.5Q1754 263 1881 323Q1766 376 1652.0 426.5Q1538 477 1430 522Q1422 488 1414.0 437.0Q1406 386 1399.5 327.5Q1393 269 1389.0 210.5Q1385 152 1383 103ZM1311 399Q1323 405 1337 413Q1333 439 1329.0 462.5Q1325 486 1320 506L1287 485Q1303 484 1321 488Q1319 481 1316.0 456.5Q1313 432 1311 399ZM1202 457 1213 462Q1212 470 1211.0 476.5Q1210 483 1208 487Q1207 483 1205.5 475.0Q1204 467 1202 457ZM1143 428 1160 436Q1157 472 1152 487Q1150 480 1147.5 464.0Q1145 448 1143 428ZM1251 368 1276 380Q1274 409 1272.0 432.5Q1270 456 1268 471Q1266 470 1264.5 469.0Q1263 468 1261 467Q1259 450 1256.0 424.0Q1253 398 1251 368ZM1219 352 1223 353Q1221 376 1219.5 397.5Q1218 419 1216 436Q1212 433 1207.5 430.0Q1203 427 1199 424L1194 371ZM1355 250Q1353 288 1348.5 326.0Q1344 364 1339 400L1310 381L1304 288ZM1165 394Q1164 396 1164 399L1161 397ZM1133 310 1170 328 1168 352 1137 371Q1136 356 1135.0 341.0Q1134 326 1133 310ZM1281 305 1277 359 1250 341Q1249 338 1249.0 335.0Q1249 332 1249 329ZM1231 176Q1230 202 1228.5 239.0Q1227 276 1225 316L1219 319L1189 299Q1188 274 1187.0 250.5Q1186 227 1186 210ZM1287 133Q1287 159 1285.5 198.0Q1284 237 1282 280Q1274 285 1265.0 290.5Q1256 296 1247 301Q1245 263 1243.5 227.0Q1242 191 1242 168ZM1174 219Q1174 233 1173.5 250.0Q1173 267 1172 286Q1158 276 1147.5 267.5Q1137 259 1130 254ZM1347 89Q1352 91 1356.5 92.5Q1361 94 1365 96Q1364 126 1362.0 160.0Q1360 194 1357 231L1303 265Q1301 223 1299.5 185.5Q1298 148 1298 125Z" />
  </g>
</svg>