<svg xmlns="http://www.w3.org/2000/svg" viewBox="100 -290 1821 1225">
  <g transform="translate(0, 645) scale(1, -1)">
    <path fill="black" d="M943 -290Q922 -235 892.5 -189.5Q863 -144 826 -107Q878 -91 960.5 -61.5Q1043 -32 1147.5 8.5Q1252 49 1372.0 99.0Q1492 149 1621.5 205.5Q1751 262 1881 323Q1789 366 1696.0 407.5Q1603 449 1514 486Q1504 450 1494.5 394.0Q1485 338 1478.5 277.5Q1472 217 1471 165V155Q1413 155 1348.0 150.0Q1283 145 1226.5 137.5Q1170 130 1136 120Q1142 146 1142 167H1129Q1129 188 1128.5 209.5Q1128 231 1127 252Q1071 251 1022.5 238.5Q974 226 934 212Q940 235 940 258Q940 282 934 307Q974 292 1022.5 280.0Q1071 268 1127 266Q1126 295 1124.0 322.5Q1122 350 1118 372Q1066 369 1018.5 357.5Q971 346 934 332Q936 340 937.5 348.0Q939 356 939 364Q931 325 927.5 269.0Q924 213 924 146H910Q910 224 906.0 287.0Q902 350 889 388Q897 387 904.0 386.5Q911 386 917 386Q922 386 927.5 386.5Q933 387 939 388Q939 405 934 427Q970 414 1017.5 402.0Q1065 390 1116 387Q1115 398 1112.0 408.0Q1109 418 1107 426Q1115 425 1122.0 424.5Q1129 424 1136 424Q1142 424 1149.0 424.5Q1156 425 1164 426Q1154 394 1149.0 336.5Q1144 279 1143 213Q1152 210 1163.5 207.0Q1175 204 1188 201Q1188 249 1185.5 295.0Q1183 341 1179.0 379.5Q1175 418 1167 440L1136 433Q1142 459 1142 482Q1142 506 1136 528Q1164 519 1209.0 510.0Q1254 501 1308.0 494.0Q1362 487 1415 484L1414 488Q1438 482 1463 482Q1475 482 1487.0 483.5Q1499 485 1512 487Q1363 551 1230.0 604.0Q1097 657 993.0 695.0Q889 733 826 752Q863 789 892.5 834.5Q922 880 943 935Q972 903 1030.0 859.5Q1088 816 1166.5 765.5Q1245 715 1338.0 660.0Q1431 605 1530.5 549.0Q1630 493 1730.0 440.0Q1830 387 1921 340L1913 323L1921 305Q1830 258 1730.0 205.0Q1630 152 1530.5 96.0Q1431 40 1338.0 -15.0Q1245 -70 1166.5 -120.5Q1088 -171 1030.0 -214.5Q972 -258 943 -290ZM818 -77Q817 -47 814.5 -6.5Q812 34 808 80Q696 76 615.0 66.0Q534 56 475.0 42.0Q416 28 369.5 12.0Q323 -4 279 -21Q285 5 288.0 36.5Q291 68 291 95Q291 122 288.0 153.5Q285 185 279 213Q322 196 368.5 179.5Q415 163 474.0 149.5Q533 136 613.5 126.0Q694 116 806 112Q801 176 794.5 245.0Q788 314 781.0 381.5Q774 449 766 508Q666 503 592.0 493.0Q518 483 463.0 469.5Q408 456 364.0 440.5Q320 425 279 409Q285 435 288.0 466.5Q291 498 291 525Q291 542 289.5 561.0Q288 580 286 599Q270 556 254.0 474.5Q238 393 225.5 264.5Q213 136 207 -47L178 -48Q163 243 141.5 401.0Q120 559 100 608Q123 604 147.5 602.0Q172 600 196 600Q220 600 242.5 602.0Q265 604 285 607L279 643Q320 627 363.5 611.5Q407 596 461.5 582.5Q516 569 589.0 559.0Q662 549 761 544Q754 599 746.0 639.5Q738 680 730 698Q780 690 833 690Q888 690 933 698Q922 672 912.5 618.0Q903 564 894.0 492.5Q885 421 877.0 342.0Q869 263 862.5 184.5Q856 106 850.5 38.5Q845 -29 840 -77ZM1195 437Q1201 437 1206.5 437.5Q1212 438 1219 439V440L1221 439L1224 440L1223 439Q1230 438 1236.0 437.5Q1242 437 1247 437Q1253 437 1258.5 437.5Q1264 438 1271 439V440L1274 439L1276 440V439Q1282 438 1287.5 437.5Q1293 437 1298 437Q1303 437 1309.0 437.5Q1315 438 1322 439V440L1325 439L1328 440L1327 439Q1334 438 1339.5 437.5Q1345 437 1350 437Q1355 437 1361.0 437.5Q1367 438 1374 439V440L1377 439L1379 440V439Q1385 438 1390.5 437.5Q1396 437 1401 437Q1407 437 1413.0 437.5Q1419 438 1426 439Q1425 446 1423.0 453.0Q1421 460 1419 466Q1351 464 1288.0 457.5Q1225 451 1169 440Q1184 437 1195 437ZM1241 191Q1240 260 1236.0 327.0Q1232 394 1222 432Q1212 395 1207.5 330.5Q1203 266 1202 198Q1212 197 1221.5 195.0Q1231 193 1241 191ZM1292 183Q1292 230 1290.0 277.0Q1288 324 1284.5 364.0Q1281 404 1274 430Q1267 405 1263.0 365.5Q1259 326 1257.0 280.5Q1255 235 1255 189ZM1457 169Q1456 231 1448.5 300.5Q1441 370 1428 430Q1421 403 1417.0 360.5Q1413 318 1411.0 269.0Q1409 220 1409 171Q1422 170 1434.0 170.0Q1446 170 1457 169ZM1395 172Q1395 220 1393.5 269.5Q1392 319 1388.0 361.0Q1384 403 1377 430Q1370 403 1366.0 361.5Q1362 320 1360.0 271.5Q1358 223 1358 175ZM1344 177Q1344 225 1342.0 273.0Q1340 321 1336.0 362.0Q1332 403 1325 430Q1318 404 1314.0 363.5Q1310 323 1308.5 275.5Q1307 228 1306 181Q1316 180 1325.0 179.0Q1334 178 1344 177Z" />
  </g>
</svg>