<svg xmlns="http://www.w3.org/2000/svg" viewBox="100 -290 1821 1225">
  <g transform="translate(0, 645) scale(1, -1)">
    <path fill="black" d="M943 -290Q922 -235 892.5 -189.5Q863 -144 826 -107Q878 -91 960.5 -61.5Q1043 -32 1147.5 8.5Q1252 49 1372.0 99.0Q1492 149 1621.5 205.5Q1751 262 1881 323Q1751 384 1621.5 440.5Q1492 497 1372.0 546.5Q1252 596 1147.5 636.5Q1043 677 960.5 706.5Q878 736 826 752Q863 789 892.5 834.5Q922 880 943 935Q972 903 1030.0 859.5Q1088 816 1166.5 765.5Q1245 715 1338.0 660.0Q1431 605 1530.5 549.0Q1630 493 1730.0 440.0Q1830 387 1921 340L1913 323L1921 305Q1830 258 1730.0 205.0Q1630 152 1530.5 96.0Q1431 40 1338.0 -15.0Q1245 -70 1166.5 -120.5Q1088 -171 1030.0 -214.5Q972 -258 943 -290ZM818 -77Q817 -47 814.5 -6.5Q812 34 808 80Q696 76 615.0 66.0Q534 56 475.0 42.0Q416 28 369.5 12.0Q323 -4 279 -21Q285 5 288.0 36.5Q291 68 291 95Q291 122 288.0 153.5Q285 185 279 213Q322 196 368.5 179.5Q415 163 474.0 149.5Q533 136 613.5 126.0Q694 116 806 112Q801 176 794.5 245.0Q788 314 781.0 381.5Q774 449 766 508Q666 503 592.0 493.0Q518 483 463.0 469.5Q408 456 364.0 440.5Q320 425 279 409Q285 435 288.0 466.5Q291 498 291 525Q291 542 289.5 561.0Q288 580 286 599Q270 556 254.0 474.5Q238 393 225.5 264.5Q213 136 207 -47L178 -48Q163 243 141.5 401.0Q120 559 100 608Q123 604 147.5 602.0Q172 600 196 600Q220 600 242.5 602.0Q265 604 285 607L279 643Q320 627 363.5 611.5Q407 596 461.5 582.5Q516 569 589.0 559.0Q662 549 761 544Q754 599 746.0 639.5Q738 680 730 698Q780 690 833 690Q888 690 933 698Q922 672 912.5 618.0Q903 564 894.0 492.5Q885 421 877.0 342.0Q869 263 862.5 184.5Q856 106 850.5 38.5Q845 -29 840 -77ZM1093 12Q1047 48 1014.0 76.0Q981 104 954.5 126.0Q928 148 900 165Q928 186 980.0 223.5Q1032 261 1082 308Q1018 358 978.5 393.5Q939 429 900 454Q920 468 952.0 490.5Q984 513 1021.5 543.0Q1059 573 1093 607L1111 598L1103 587Q1117 585 1131.5 584.0Q1146 583 1159 583Q1180 583 1202.0 585.0Q1224 587 1246 591Q1219 507 1195.5 368.0Q1172 229 1172 22H1152Q1152 211 1132.5 344.0Q1113 477 1087 562Q1066 528 1049.0 502.5Q1032 477 1015 454Q1035 424 1057.0 390.5Q1079 357 1110 310Q1079 261 1057.0 227.5Q1035 194 1015 165Q1035 136 1057.5 102.5Q1080 69 1111 21ZM1210 270Q1215 287 1216.5 306.5Q1218 326 1218 347Q1218 367 1216.5 387.5Q1215 408 1210 427Q1253 412 1304.0 397.5Q1355 383 1422.0 372.5Q1489 362 1578 358V341Q1509 335 1457.0 328.0Q1405 321 1363.5 312.5Q1322 304 1285.5 294.0Q1249 284 1210 270Z" />
  </g>
</svg>