<svg xmlns="http://www.w3.org/2000/svg" viewBox="100 -290 1821 1225">
  <g transform="translate(0, 645) scale(1, -1)">
    <path fill="black" d="M943 -290Q922 -235 892.5 -189.5Q863 -144 826 -107Q880 -90 965.5 -59.5Q1051 -29 1159.5 13.5Q1268 56 1392 107Q1342 144 1307.0 167.5Q1272 191 1241 210Q1264 226 1305.5 257.5Q1347 289 1387 326Q1339 361 1305.0 383.5Q1271 406 1241 425Q1264 441 1305.5 472.0Q1347 503 1386 540Q1264 591 1156.5 633.0Q1049 675 964.5 705.5Q880 736 826 752Q863 789 892.5 834.5Q922 880 943 935Q972 903 1030.0 859.5Q1088 816 1166.5 765.5Q1245 715 1338.0 660.0Q1431 605 1530.5 549.0Q1630 493 1730.0 440.0Q1830 387 1921 340L1913 323L1921 305Q1830 258 1730.0 205.0Q1630 152 1530.5 96.0Q1431 40 1338.0 -15.0Q1245 -70 1166.5 -120.5Q1088 -171 1030.0 -214.5Q972 -258 943 -290ZM818 -77Q817 -47 814.5 -6.5Q812 34 808 80Q696 76 615.0 66.0Q534 56 475.0 42.0Q416 28 369.5 12.0Q323 -4 279 -21Q285 5 288.0 36.5Q291 68 291 95Q291 122 288.0 153.5Q285 185 279 213Q322 196 368.5 179.5Q415 163 474.0 149.5Q533 136 613.5 126.0Q694 116 806 112Q801 176 794.5 245.0Q788 314 781.0 381.5Q774 449 766 508Q666 503 592.0 493.0Q518 483 463.0 469.5Q408 456 364.0 440.5Q320 425 279 409Q285 435 288.0 466.5Q291 498 291 525Q291 542 289.5 561.0Q288 580 286 599Q270 556 254.0 474.5Q238 393 225.5 264.5Q213 136 207 -47L178 -48Q163 243 141.5 401.0Q120 559 100 608Q123 604 147.5 602.0Q172 600 196 600Q220 600 242.5 602.0Q265 604 285 607L279 643Q320 627 363.5 611.5Q407 596 461.5 582.5Q516 569 589.0 559.0Q662 549 761 544Q754 599 746.0 639.5Q738 680 730 698Q780 690 833 690Q888 690 933 698Q922 672 912.5 618.0Q903 564 894.0 492.5Q885 421 877.0 342.0Q869 263 862.5 184.5Q856 106 850.5 38.5Q845 -29 840 -77ZM1067 96Q1010 138 972.0 164.0Q934 190 900 210Q923 226 964.5 257.5Q1006 289 1046 326Q998 361 964.0 383.5Q930 406 900 425Q916 437 942.5 456.5Q969 476 999.5 500.5Q1030 525 1057 551L1072 545Q1047 507 1028.5 477.5Q1010 448 993 425Q1006 408 1027.5 381.0Q1049 354 1080 321L1067 311L1062 315Q1041 282 1025.0 256.5Q1009 231 993 210Q1006 193 1027.5 166.0Q1049 139 1080 106ZM1412 116Q1524 162 1643.0 214.5Q1762 267 1881 323Q1760 379 1639.0 432.5Q1518 486 1405 533Q1383 499 1366.5 472.5Q1350 446 1334 425Q1347 408 1368.5 381.0Q1390 354 1421 321L1408 311L1403 315Q1381 282 1365.0 256.5Q1349 231 1334 210Q1346 194 1365.5 169.5Q1385 145 1412 116ZM1117 341Q1085 365 1066.0 379.5Q1047 394 1032.0 404.0Q1017 414 997 425Q1017 440 1042.5 455.5Q1068 471 1117 507L1128 501Q1112 480 1100.5 461.5Q1089 443 1077 425Q1089 408 1100.5 389.0Q1112 370 1128 349ZM1199 341Q1167 365 1148.0 379.5Q1129 394 1114.0 404.0Q1099 414 1079 425Q1099 440 1124.5 455.5Q1150 471 1199 507L1210 501Q1194 480 1182.0 461.5Q1170 443 1159 425Q1170 408 1182.0 389.0Q1194 370 1210 349ZM1280 341Q1248 365 1229.0 379.5Q1210 394 1195.0 404.0Q1180 414 1160 425Q1180 440 1205.5 455.5Q1231 471 1280 507L1291 501Q1275 480 1263.5 461.5Q1252 443 1240 425Q1252 408 1263.5 389.0Q1275 370 1291 349ZM1117 126Q1085 150 1066.0 164.5Q1047 179 1032.0 189.0Q1017 199 997 210Q1017 225 1042.5 240.5Q1068 256 1117 292L1128 286Q1112 265 1100.5 246.5Q1089 228 1077 210Q1089 193 1100.5 174.0Q1112 155 1128 134ZM1199 126Q1167 150 1148.0 164.5Q1129 179 1114.0 189.0Q1099 199 1079 210Q1099 225 1124.5 240.5Q1150 256 1199 292L1210 286Q1194 265 1182.0 246.5Q1170 228 1159 210Q1170 193 1182.0 174.0Q1194 155 1210 134ZM1280 126Q1248 150 1229.0 164.5Q1210 179 1195.0 189.0Q1180 199 1160 210Q1180 225 1205.5 240.5Q1231 256 1280 292L1291 286Q1275 265 1263.5 246.5Q1252 228 1240 210Q1252 193 1263.5 174.0Q1275 155 1291 134Z" />
  </g>
</svg>