<svg xmlns="http://www.w3.org/2000/svg" viewBox="100 -290 1821 1225">
  <g transform="translate(0, 645) scale(1, -1)">
    <path fill="black" d="M943 -290Q922 -235 892.5 -189.5Q863 -144 826 -107Q878 -91 959.5 -62.0Q1041 -33 1144.0 7.5Q1247 48 1365 96H1359V121Q1295 121 1226.0 114.0Q1157 107 1095.5 96.0Q1034 85 992 73Q996 88 997.5 102.5Q999 117 999 130Q999 159 992 183Q1022 175 1056.0 167.5Q1090 160 1127 155Q1125 216 1118.5 255.0Q1112 294 1102.0 323.5Q1092 353 1080 384Q1112 378 1137 378Q1149 378 1160.5 379.0Q1172 380 1184 383Q1184 391 1183.5 400.5Q1183 410 1181 417Q1188 415 1211.0 410.5Q1234 406 1267.0 402.0Q1300 398 1335 396Q1333 417 1329.5 437.0Q1326 457 1323 474Q1275 473 1220.5 468.0Q1166 463 1112.5 456.5Q1059 450 1014.5 442.0Q970 434 941 426Q944 441 946.0 456.0Q948 471 948 484Q948 498 946.0 511.0Q944 524 941 537Q986 524 1051.0 514.0Q1116 504 1186.5 497.5Q1257 491 1320 488Q1316 512 1311 530Q1326 526 1340.5 524.5Q1355 523 1368 523Q1380 523 1392.0 524.5Q1404 526 1415 528Q1286 582 1172.5 626.5Q1059 671 970.5 703.0Q882 735 826 752Q863 789 892.5 834.5Q922 880 943 935Q972 903 1030.0 859.5Q1088 816 1166.5 765.5Q1245 715 1338.0 660.0Q1431 605 1530.5 549.0Q1630 493 1730.0 440.0Q1830 387 1921 340L1913 323L1921 305Q1830 258 1730.0 205.0Q1630 152 1530.5 96.0Q1431 40 1338.0 -15.0Q1245 -70 1166.5 -120.5Q1088 -171 1030.0 -214.5Q972 -258 943 -290ZM818 -77Q817 -47 814.5 -6.5Q812 34 808 80Q696 76 615.0 66.0Q534 56 475.0 42.0Q416 28 369.5 12.0Q323 -4 279 -21Q285 5 288.0 36.5Q291 68 291 95Q291 122 288.0 153.5Q285 185 279 213Q322 196 368.5 179.5Q415 163 474.0 149.5Q533 136 613.5 126.0Q694 116 806 112Q801 176 794.5 245.0Q788 314 781.0 381.5Q774 449 766 508Q666 503 592.0 493.0Q518 483 463.0 469.5Q408 456 364.0 440.5Q320 425 279 409Q285 435 288.0 466.5Q291 498 291 525Q291 542 289.5 561.0Q288 580 286 599Q270 556 254.0 474.5Q238 393 225.5 264.5Q213 136 207 -47L178 -48Q163 243 141.5 401.0Q120 559 100 608Q123 604 147.5 602.0Q172 600 196 600Q220 600 242.5 602.0Q265 604 285 607L279 643Q320 627 363.5 611.5Q407 596 461.5 582.5Q516 569 589.0 559.0Q662 549 761 544Q754 599 746.0 639.5Q738 680 730 698Q780 690 833 690Q888 690 933 698Q922 672 912.5 618.0Q903 564 894.0 492.5Q885 421 877.0 342.0Q869 263 862.5 184.5Q856 106 850.5 38.5Q845 -29 840 -77ZM1373 99Q1492 149 1621.5 205.5Q1751 262 1881 323Q1763 378 1646.5 429.0Q1530 480 1420 526Q1410 488 1401.5 435.0Q1393 382 1386.5 322.5Q1380 263 1376.5 205.0Q1373 147 1373 99ZM1342 345Q1341 356 1340.0 366.0Q1339 376 1337 386Q1307 384 1276.0 380.0Q1245 376 1220.5 372.5Q1196 369 1185 366Q1200 362 1245.5 354.5Q1291 347 1342 345ZM1358 135Q1357 158 1356.0 183.5Q1355 209 1353 236Q1320 235 1282.5 230.5Q1245 226 1216.5 221.5Q1188 217 1181 214Q1184 226 1184 243Q1184 248 1183.5 254.0Q1183 260 1182 264L1181 263V267L1182 266Q1183 271 1183.5 278.0Q1184 285 1184 291Q1184 297 1183.5 303.0Q1183 309 1182 314L1181 313V317L1182 316Q1183 322 1183.5 328.0Q1184 334 1184 341Q1184 347 1183.5 353.0Q1183 359 1182 364Q1172 337 1163.5 309.0Q1155 281 1149.5 244.0Q1144 207 1142 152Q1195 145 1250.0 140.0Q1305 135 1358 135ZM1347 295 1343 336Q1313 334 1280.0 330.0Q1247 326 1221.5 322.0Q1196 318 1185 315Q1196 312 1221.0 308.0Q1246 304 1279.5 300.5Q1313 297 1347 295ZM1352 245 1348 286Q1318 285 1284.0 281.0Q1250 277 1223.0 272.5Q1196 268 1185 265Q1196 262 1222.0 257.5Q1248 253 1282.5 249.5Q1317 246 1352 245Z" />
  </g>
</svg>