<svg xmlns="http://www.w3.org/2000/svg" viewBox="100 -92 1660 890">
  <g transform="translate(0, 706) scale(1, -1)">
    <path fill="black" d="M1181 -92Q1181 -72 1181.0 -50.0Q1181 -28 1180 -3Q1098 -6 1025.0 -15.0Q952 -24 900.0 -35.5Q848 -47 828 -57Q830 -43 831.0 -28.5Q832 -14 832 1Q832 17 831.0 33.0Q830 49 827 65Q854 52 931 40Q930 101 927.5 169.0Q925 237 921.0 306.5Q917 376 912 438Q879 399 847.5 357.0Q816 315 789.0 276.5Q762 238 744.5 208.5Q727 179 722 166Q712 179 701.0 191.0Q690 203 679 214Q668 225 657.0 234.5Q646 244 634 251Q646 256 666 269Q589 314 527.0 341.5Q465 369 433 379Q455 403 474.0 427.0Q493 451 504 478Q514 462 539.0 431.5Q564 401 602.0 362.5Q640 324 687 283Q716 304 752.5 332.5Q789 361 828.5 393.5Q868 426 904 458Q828 449 771.0 437.5Q714 426 692 415Q694 429 695.0 443.5Q696 458 696 473Q696 489 695.0 505.0Q694 521 691 537Q711 527 769.5 516.0Q828 505 906 497Q906 499 905.5 501.0Q905 503 905 504Q869 537 829.5 570.0Q790 603 753.0 632.0Q716 661 687 681Q640 641 602.0 602.0Q564 563 539.0 532.5Q514 502 504 486Q493 513 474.0 537.0Q455 561 433 585Q465 595 527.0 622.5Q589 650 666 695Q646 708 634 713Q646 721 657.0 730.0Q668 739 679 750Q690 761 701.0 773.0Q712 785 722 798Q726 785 742.5 757.5Q759 730 784.5 693.0Q810 656 840.0 616.0Q870 576 901 538Q892 614 880 649Q896 646 912.0 645.0Q928 644 944 644Q961 644 977.0 645.0Q993 646 1009 649Q1000 622 992.5 571.5Q985 521 979.0 455.5Q973 390 968.5 317.0Q964 244 961.5 172.0Q959 100 958 36Q1005 29 1062.0 24.0Q1119 19 1180 17Q1179 32 1179.0 47.5Q1179 63 1178 79Q1141 75 1104.0 68.0Q1067 61 1040.5 54.0Q1014 47 1007 42Q1008 56 1008.5 71.5Q1009 87 1009 103Q1009 113 1009.0 124.0Q1009 135 1007 145Q1014 140 1039.0 132.5Q1064 125 1100.5 118.0Q1137 111 1177 106Q1177 147 1174 189Q1137 185 1101.5 178.0Q1066 171 1040.0 164.5Q1014 158 1007 153Q1008 167 1008.5 182.5Q1009 198 1009 214Q1009 224 1009.0 235.0Q1009 246 1007 256Q1014 251 1038.5 243.5Q1063 236 1098.5 229.5Q1134 223 1173 218Q1172 238 1171.5 259.0Q1171 280 1169 300Q1133 296 1098.5 289.0Q1064 282 1039.0 275.5Q1014 269 1007 264Q1008 278 1008.5 293.5Q1009 309 1009 325Q1009 335 1009.0 346.0Q1009 357 1007 367Q1018 359 1063.5 347.5Q1109 336 1167 329Q1166 350 1165.0 370.5Q1164 391 1162 410Q1127 405 1094.0 398.5Q1061 392 1037.5 386.0Q1014 380 1007 375Q1008 389 1008.5 404.5Q1009 420 1009 436Q1009 446 1009.0 457.0Q1009 468 1007 478Q1017 470 1060.5 459.5Q1104 449 1159 441Q1158 462 1156.0 481.5Q1154 501 1152 519Q1102 512 1059.5 502.0Q1017 492 1007 486Q1008 500 1008.5 515.5Q1009 531 1009 547Q1009 557 1009.0 568.0Q1009 579 1007 589Q1017 582 1056.5 571.5Q1096 561 1148 554Q1144 586 1139.5 610.0Q1135 634 1130 649Q1146 646 1162.0 645.0Q1178 644 1194 644Q1211 644 1227.0 645.0Q1243 646 1259 649Q1251 624 1243.5 573.0Q1236 522 1231 456Q1268 465 1326.5 491.0Q1385 517 1455.5 553.0Q1526 589 1598.0 629.5Q1670 670 1734 708Q1679 708 1601.5 706.5Q1524 705 1434.5 702.0Q1345 699 1254.0 694.5Q1163 690 1078.5 683.5Q994 677 927.0 668.0Q860 659 819 648Q828 684 828 718Q828 751 819 793Q850 784 905.0 777.0Q960 770 1032.0 763.5Q1104 757 1185.5 752.5Q1267 748 1350.0 744.0Q1433 740 1510.5 737.5Q1588 735 1652.5 734.0Q1717 733 1760 733V708H1752L1760 694Q1708 663 1651.5 625.5Q1595 588 1539.0 549.0Q1483 510 1433.5 472.5Q1384 435 1347.0 402.5Q1310 370 1290 347Q1281 376 1264.0 400.5Q1247 425 1230 450Q1225 384 1220.5 308.5Q1216 233 1213.5 158.0Q1211 83 1209 16H1239V-2H1209Q1208 -27 1208.0 -49.5Q1208 -72 1208 -92ZM186 82 181 88Q205 117 233.0 154.0Q261 191 287 227Q228 268 178.0 298.0Q128 328 100 338Q123 355 145.5 375.5Q168 396 186 424Q189 415 196.0 402.5Q203 390 212 374Q229 397 247.5 421.0Q266 445 283 470Q225 511 176.0 542.5Q127 574 100 584Q123 602 145.5 622.0Q168 642 186 671Q192 655 208.0 626.0Q224 597 247.0 561.0Q270 525 297 488Q323 526 342.5 556.0Q362 586 367 599Q386 571 408.0 551.0Q430 531 453 514Q435 507 397.0 481.0Q359 455 313.0 421.0Q267 387 223 355Q239 330 258.5 302.0Q278 274 299 245Q325 281 343.5 310.5Q362 340 367 353Q386 325 408.0 304.5Q430 284 453 267Q437 261 406.5 240.5Q376 220 338.5 192.5Q301 165 261.0 135.5Q221 106 186 82Z" />
  </g>
</svg>