<svg xmlns="http://www.w3.org/2000/svg" viewBox="100 -128 979 971">
  <g transform="translate(0, 715) scale(1, -1)">
    <path fill="black" d="M816 -128Q807 -117 797.5 -105.0Q788 -93 777 -83Q767 -74 756.5 -64.5Q746 -55 734 -46Q739 -45 743.5 -43.5Q748 -42 753 -41L587 123L368 -96L351 -79Q327 -55 294.0 -26.5Q261 2 226.5 28.5Q192 55 160.5 73.0Q129 91 108 94Q119 103 131.0 112.5Q143 122 153 133Q162 143 171.5 153.5Q181 164 190 176Q191 172 192.5 167.0Q194 162 195 157L332 296Q341 305 350.0 314.0Q359 323 368 333Q307 389 253.5 431.5Q200 474 159 494Q165 498 170.0 501.5Q175 505 179 509Q172 519 162.0 529.5Q152 540 143 550Q126 569 100 588Q133 594 172.5 619.0Q212 644 251.5 677.5Q291 711 322 741Q310 749 299.5 755.5Q289 762 278 767Q292 776 301.5 784.5Q311 793 319 801Q336 818 354 843Q380 791 442.5 716.0Q505 641 584 558Q634 614 672.5 664.0Q711 714 730 751Q734 745 737.5 740.5Q741 736 745 731Q755 739 765.5 748.5Q776 758 786 767Q805 784 824 810Q830 777 855.0 737.5Q880 698 913.5 659.0Q947 620 977 588Q985 600 991.5 611.0Q998 622 1003 632Q1012 619 1020.5 609.0Q1029 599 1037 591Q1054 574 1079 556Q1028 531 955.5 471.0Q883 411 803 335L1006 132L990 116Q966 92 937.0 59.0Q908 26 881.5 -9.0Q855 -44 837.0 -75.5Q819 -107 816 -128ZM183 512Q188 516 192.0 520.0Q196 524 200 528Q208 536 216.5 546.0Q225 556 234 569L248 543L393 688Q378 700 364.5 710.5Q351 721 338 730Q308 698 274.0 657.0Q240 616 214.5 577.5Q189 539 183 512ZM924 517Q936 532 946.5 545.5Q957 559 966 572Q934 603 893.0 636.5Q852 670 813.5 695.5Q775 721 748 727Q752 723 756.0 718.5Q760 714 764 710Q772 702 782.0 693.5Q792 685 805 676L779 662ZM295 477 454 636Q435 654 413 671L263 522Q270 512 278.0 500.5Q286 489 295 477ZM872 456Q890 476 907 497L758 647Q748 640 736.5 632.0Q725 624 713 615ZM346 415 514 582Q504 592 494.0 601.0Q484 610 473 619L311 456ZM818 396Q828 407 837.0 417.0Q846 427 855 437L692 599L651 564ZM394 359Q438 404 481.5 448.5Q525 493 564 536Q556 544 548.5 551.0Q541 558 533 565L363 395ZM781 357Q786 362 791.0 367.0Q796 372 801 377L631 547L611 530Q642 497 674.0 464.5Q706 432 738 400ZM708 280Q718 290 727.5 300.0Q737 310 746 320L571 494Q561 485 551.5 476.0Q542 467 532 457ZM764 338 765 339 626 476ZM653 223 690 262 513 439Q503 430 493.5 420.5Q484 411 473 402ZM596 166 634 204 455 384Q445 374 435.5 365.0Q426 356 417 346ZM620 124 800 304 786 319Q711 247 636 172L604 140ZM540 110 570 140Q524 186 477.5 231.0Q431 276 386 316L360 290ZM677 67 857 247 819 285 639 105ZM483 53 521 91 341 271 303 233ZM733 11 913 191 875 229 695 49ZM427 -3 465 35 285 215 247 177ZM775 -31Q809 -15 846.0 13.0Q883 41 917.0 72.0Q951 103 977 128L932 172L752 -8ZM364 -67 408 -22 228 158 205 135Q221 101 249.0 64.0Q277 27 308.0 -7.0Q339 -41 364 -67Z" />
  </g>
</svg>