<svg xmlns="http://www.w3.org/2000/svg" viewBox="100 -234 2070 1041">
  <g transform="translate(0, 573) scale(1, -1)">
    <path fill="black" d="M602 -234Q614 -183 614 -129Q614 -75 602 -18L655 -39Q655 10 653.0 56.0Q651 102 649 145Q529 141 429.5 130.0Q330 119 260.5 105.0Q191 91 161 78Q165 97 166.5 116.5Q168 136 168 155Q168 175 166.5 196.0Q165 217 160 238L165 236Q157 283 149.5 313.0Q142 343 130.5 366.5Q119 390 100 418Q116 417 131.0 415.5Q146 414 162 413Q168 449 168 485Q168 505 166.5 526.0Q165 547 160 568Q187 557 252.0 545.5Q317 534 409.5 524.5Q502 515 610 509Q599 577 586.5 633.5Q574 690 561 736Q612 724 666 724Q690 724 715.5 726.5Q741 729 766 734Q765 752 762.0 770.0Q759 788 755 807Q778 796 805.0 785.0Q832 774 871.0 763.5Q910 753 969.5 744.0Q1029 735 1119 728Q1136 742 1155.5 758.5Q1175 775 1197 796L1211 784Q1187 751 1169 724Q1201 722 1238.0 720.0Q1275 718 1315 716Q1335 731 1357.0 751.0Q1379 771 1407 796L1421 784Q1407 765 1395.0 747.5Q1383 730 1372 714Q1392 713 1411.5 713.0Q1431 713 1452 712L1446 736Q1497 724 1551 724Q1605 724 1662 736Q1652 701 1642.5 658.5Q1633 616 1624 566Q1662 551 1758.5 533.0Q1855 515 2002 510L1977 607Q2024 596 2071 596Q2095 596 2120.0 599.0Q2145 602 2170 607Q2139 493 2117.0 341.0Q2095 189 2095 -12H2062Q2062 29 2060.5 67.5Q2059 106 2057 143Q1876 134 1769.5 114.5Q1663 95 1621 78Q1625 97 1626.5 116.5Q1628 136 1628 155Q1628 175 1626.5 196.0Q1625 217 1620 238Q1647 227 1701.5 213.5Q1756 200 1843.0 190.0Q1930 180 2054 178Q2047 261 2035.5 334.5Q2024 408 2010 472Q1861 466 1760.0 444.5Q1659 423 1621 408Q1625 427 1626.5 446.5Q1628 466 1628 485Q1628 502 1627.0 520.0Q1626 538 1622 556Q1601 433 1586.5 266.5Q1572 100 1572 -113H1616V-139Q1550 -139 1490.0 -139.5Q1430 -140 1375 -141Q1385 -156 1396.5 -172.0Q1408 -188 1421 -206L1407 -218Q1381 -194 1360.0 -175.5Q1339 -157 1320 -142Q1280 -143 1242.0 -144.0Q1204 -145 1169 -147Q1178 -160 1188.5 -175.0Q1199 -190 1211 -206L1197 -218Q1175 -197 1155.5 -180.0Q1136 -163 1119 -150Q993 -156 907.0 -165.5Q821 -175 763.5 -186.5Q706 -198 668.5 -210.0Q631 -222 602 -234ZM1541 -113Q1540 162 1515.5 360.0Q1491 558 1459 685Q1431 685 1405.0 684.5Q1379 684 1354 684Q1329 641 1316.0 605.0Q1303 569 1293 532Q1279 549 1264.0 563.0Q1249 577 1235 589Q1204 614 1172 633Q1199 645 1221.5 656.5Q1244 668 1266 682L1139 676Q1117 635 1104.5 601.0Q1092 567 1083 532Q1069 549 1054.0 563.0Q1039 577 1025 589Q994 614 962 633Q982 642 998.5 650.0Q1015 658 1031 667Q956 659 907.5 649.0Q859 639 830.0 629.0Q801 619 784.0 609.0Q767 599 755 591Q767 642 767 696V698Q737 578 713.5 394.5Q690 211 687 -50Q721 -60 766.5 -70.0Q812 -80 881.0 -87.5Q950 -95 1052 -101Q1031 -88 1009.5 -77.5Q988 -67 962 -55Q994 -36 1025 -11Q1039 1 1054.0 15.5Q1069 30 1083 46Q1093 9 1106.0 -26.5Q1119 -62 1144 -106Q1174 -107 1207.0 -107.5Q1240 -108 1275 -110Q1251 -93 1226.5 -80.5Q1202 -68 1172 -55Q1204 -36 1235 -11Q1249 1 1264.0 15.5Q1279 30 1293 46Q1303 8 1316.5 -28.5Q1330 -65 1357 -111Q1399 -112 1445.0 -112.5Q1491 -113 1541 -113ZM1131 10Q1131 67 1128 116L1093 114L1089 111L1087 113Q1006 109 948.5 104.5Q891 100 849.5 94.5Q808 89 774 81Q777 89 778.0 97.5Q779 106 779 115Q779 124 778.0 133.5Q777 143 774 153Q815 143 887.5 136.5Q960 130 1070 126Q1037 151 1009.5 171.0Q982 191 959 207Q897 203 853.0 196.5Q809 190 774 182Q777 190 778.0 199.0Q779 208 779 216Q779 225 778.0 234.5Q777 244 774 254Q821 243 918 235Q908 243 897.5 249.0Q887 255 877 261Q888 269 903.5 280.5Q919 292 937 307Q885 302 845.5 296.5Q806 291 774 283Q777 291 778.0 300.0Q779 309 779 318Q779 326 778.0 335.5Q777 345 774 355Q835 340 970 333Q994 353 1019.0 374.5Q1044 396 1067 418Q1003 415 958.5 411.5Q914 408 883.0 404.5Q852 401 826.5 396.0Q801 391 774 385Q777 393 778.0 401.5Q779 410 779 419Q779 428 778.0 437.5Q777 447 774 457Q806 450 844.0 444.0Q882 438 939.5 434.5Q997 431 1087 428Q1083 448 1077.5 466.5Q1072 485 1067 501Q1084 498 1102.0 496.0Q1120 494 1138 494Q1156 494 1174.5 496.0Q1193 498 1212 501Q1189 428 1169.0 308.5Q1149 189 1149 10ZM647 177Q642 261 634.0 335.0Q626 409 616 473Q515 468 427.0 458.0Q339 448 274.0 436.0Q209 424 175 413H177Q196 413 216.0 414.5Q236 416 258 418Q242 394 229.0 368.5Q216 343 207.5 309.5Q199 276 194 227Q256 211 375.0 196.5Q494 182 647 177ZM1107 327Q1104 351 1100.0 372.5Q1096 394 1091 413Q1076 390 1064.0 369.0Q1052 348 1040 330Q1057 329 1073.5 329.0Q1090 329 1107 327ZM1182 195Q1186 210 1187.5 227.0Q1189 244 1189 261Q1189 278 1187.5 296.0Q1186 314 1182 331Q1220 318 1263.0 304.0Q1306 290 1366.0 281.0Q1426 272 1515 272V254Q1430 254 1372.5 245.5Q1315 237 1271.0 224.0Q1227 211 1182 195ZM1121 226Q1117 274 1109 317Q1088 316 1068.0 315.0Q1048 314 1029 313Q1021 299 1012.5 286.0Q1004 273 996 261Q1001 254 1006.5 246.5Q1012 239 1019 230Q1042 229 1067.5 228.0Q1093 227 1121 226ZM1128 124 1122 217 1033 212Q1047 193 1065.0 171.0Q1083 149 1105 125Q1111 125 1116.5 125.0Q1122 125 1128 124Z" />
  </g>
</svg>