<svg xmlns="http://www.w3.org/2000/svg" viewBox="100 -234 2070 1041">
  <g transform="translate(0, 573) scale(1, -1)">
    <path fill="black" d="M602 -234Q614 -183 614 -129Q614 -75 602 -18L655 -39Q655 10 653.0 56.0Q651 102 649 145Q529 141 429.5 130.0Q330 119 260.5 105.0Q191 91 161 78Q165 97 166.5 116.5Q168 136 168 155Q168 175 166.5 196.0Q165 217 160 238Q162 237 163.0 237.0Q164 237 165 236Q157 283 149.5 313.0Q142 343 130.5 366.5Q119 390 100 418Q116 417 131.0 415.5Q146 414 162 413Q168 449 168 485Q168 505 166.5 526.0Q165 547 160 568Q187 557 252.0 545.5Q317 534 409.5 524.5Q502 515 610 509Q599 577 586.5 633.5Q574 690 561 736Q612 724 666 724Q690 724 715.5 726.5Q741 729 766 734Q765 752 762.0 770.0Q759 788 755 807Q778 796 805.0 785.0Q832 774 871.0 763.5Q910 753 969.5 744.0Q1029 735 1119 728Q1136 742 1155.5 758.5Q1175 775 1197 796L1211 784Q1187 751 1169 724Q1201 722 1238.0 720.0Q1275 718 1315 716Q1335 731 1357.0 751.0Q1379 771 1407 796L1421 784Q1407 765 1395.0 747.5Q1383 730 1372 714Q1392 713 1411.5 713.0Q1431 713 1452 712L1446 736Q1497 724 1551 724Q1605 724 1662 736Q1652 701 1642.5 658.5Q1633 616 1624 566Q1662 551 1758.5 533.0Q1855 515 2002 510L1977 607Q2024 596 2071 596Q2095 596 2120.0 599.0Q2145 602 2170 607Q2139 493 2117.0 341.0Q2095 189 2095 -12H2062Q2062 29 2060.5 67.5Q2059 106 2057 143Q1876 134 1769.5 114.5Q1663 95 1621 78Q1625 97 1626.5 116.5Q1628 136 1628 155Q1628 175 1626.5 196.0Q1625 217 1620 238Q1647 227 1701.5 213.5Q1756 200 1843.0 190.0Q1930 180 2054 178Q2047 261 2035.5 334.5Q2024 408 2010 472Q1861 466 1760.0 444.5Q1659 423 1621 408Q1625 427 1626.5 446.5Q1628 466 1628 485Q1628 502 1627.0 520.0Q1626 538 1622 556Q1601 433 1586.5 266.5Q1572 100 1572 -113H1616V-139Q1550 -139 1490.0 -139.5Q1430 -140 1375 -141Q1385 -156 1396.5 -172.0Q1408 -188 1421 -206L1407 -218Q1381 -194 1360.0 -175.5Q1339 -157 1320 -142Q1280 -143 1242.0 -144.0Q1204 -145 1169 -147Q1178 -160 1188.5 -175.0Q1199 -190 1211 -206L1197 -218Q1175 -197 1155.5 -180.0Q1136 -163 1119 -150Q993 -156 907.0 -165.5Q821 -175 763.5 -186.5Q706 -198 668.5 -210.0Q631 -222 602 -234ZM1541 -113Q1540 162 1515.5 360.0Q1491 558 1459 685Q1431 685 1405.0 684.5Q1379 684 1354 684Q1329 641 1316.0 605.0Q1303 569 1293 532Q1279 549 1264.0 563.0Q1249 577 1235 589Q1204 614 1172 633Q1199 645 1221.5 656.5Q1244 668 1266 682L1139 676Q1117 635 1104.5 601.0Q1092 567 1083 532Q1069 549 1054.0 563.0Q1039 577 1025 589Q994 614 962 633Q982 642 998.5 650.0Q1015 658 1031 667Q956 659 907.5 649.0Q859 639 830.0 629.0Q801 619 784.0 609.0Q767 599 755 591Q767 642 767 696V698Q737 578 713.5 394.5Q690 211 687 -50Q721 -60 766.5 -70.0Q812 -80 881.0 -87.5Q950 -95 1052 -101Q1031 -88 1009.5 -77.5Q988 -67 962 -55Q994 -36 1025 -11Q1036 -2 1047.0 8.5Q1058 19 1068 30Q1064 29 1058.5 27.0Q1053 25 1048 23Q1050 36 1051.5 49.0Q1053 62 1053 75Q1053 89 1051.5 102.5Q1050 116 1048 131Q1059 127 1071.0 123.5Q1083 120 1097 117Q1096 176 1091.0 213.5Q1086 251 1080 275Q1069 275 1058.0 274.5Q1047 274 1036 274Q1035 255 1034.5 232.5Q1034 210 1034 182H1022Q1022 209 1021.5 231.5Q1021 254 1020 273L965 270Q964 251 963.5 229.5Q963 208 963 182H951Q951 208 950.5 229.0Q950 250 949 269Q920 265 894 260Q893 244 893.0 224.5Q893 205 893 182H881Q881 204 880.5 222.5Q880 241 879 257Q845 250 820.0 240.5Q795 231 768 221Q771 235 772.0 248.0Q773 261 773 274Q773 288 772.0 301.5Q771 315 768 330Q793 320 816.0 312.0Q839 304 877 298Q874 344 868.0 364.5Q862 385 855.5 394.0Q849 403 844 415Q871 409 889 409Q902 409 915 412L914 415L922 413L929 415L928 412Q945 409 958 409Q971 409 986 412L985 415L993 413L1000 415L999 412Q1016 409 1029 409Q1047 409 1071 415Q1066 403 1059.0 393.5Q1052 384 1046.0 361.5Q1040 339 1036 288H1077Q1073 302 1069.0 312.5Q1065 323 1061 331Q1075 327 1085.5 326.0Q1096 325 1106 325Q1116 325 1125.5 326.0Q1135 327 1147 331Q1141 317 1133.5 295.0Q1126 273 1120.0 231.0Q1114 189 1111 114Q1151 106 1207.5 101.0Q1264 96 1344 91Q1344 108 1343.5 127.0Q1343 146 1342 166Q1312 164 1274.0 159.5Q1236 155 1205.0 149.5Q1174 144 1164 139Q1167 157 1167 174Q1167 182 1166.5 189.5Q1166 197 1164 205Q1173 201 1204.0 196.0Q1235 191 1273.0 186.5Q1311 182 1341 179L1337 246Q1306 243 1269.5 238.5Q1233 234 1203.5 229.5Q1174 225 1164 220Q1166 228 1167.0 237.0Q1168 246 1168 255Q1168 269 1165 284H1164V285Q1167 302 1167 318Q1167 333 1164 349Q1167 366 1167 383Q1167 391 1166.5 398.5Q1166 406 1164 414Q1172 411 1197.5 406.5Q1223 402 1256.5 398.0Q1290 394 1321 391Q1318 411 1315.0 429.5Q1312 448 1308 465Q1218 459 1152.0 453.5Q1086 448 1036.0 442.5Q986 437 946.5 430.0Q907 423 871 413Q877 439 877 466Q877 492 871 522Q931 505 1033.0 495.5Q1135 486 1305 481L1297 511Q1324 505 1350 505Q1378 505 1406 511Q1397 480 1389.0 428.0Q1381 376 1374.5 315.0Q1368 254 1364.0 195.0Q1360 136 1360 91L1387 89V76Q1307 68 1251.5 61.5Q1196 55 1157.0 49.5Q1118 44 1086 35Q1095 1 1108.0 -32.0Q1121 -65 1144 -106Q1174 -107 1207.0 -107.5Q1240 -108 1275 -110Q1251 -93 1226.5 -80.5Q1202 -68 1172 -55Q1204 -36 1235 -11Q1249 1 1264.0 15.5Q1279 30 1293 46Q1303 8 1316.5 -28.5Q1330 -65 1357 -111Q1399 -112 1445.0 -112.5Q1491 -113 1541 -113ZM647 177Q642 261 634.0 335.0Q626 409 616 473Q515 468 427.0 458.0Q339 448 274.0 436.0Q209 424 175 413H177Q196 413 216.0 414.5Q236 416 258 418Q242 394 229.0 368.5Q216 343 207.5 309.5Q199 276 194 227Q256 211 375.0 196.5Q494 182 647 177ZM948 291Q946 330 941.5 350.5Q937 371 932.0 382.0Q927 393 922 401Q917 394 912.0 383.5Q907 373 903.0 353.0Q899 333 896 296ZM1019 288Q1017 328 1012.5 349.5Q1008 371 1003.0 382.0Q998 393 993 401Q988 393 982.5 382.0Q977 371 973.0 350.0Q969 329 966 290ZM1329 325 1323 372Q1293 369 1259.5 365.0Q1226 361 1200.5 357.0Q1175 353 1165 349Q1174 346 1201.5 341.5Q1229 337 1263.5 332.5Q1298 328 1329 325ZM1335 260Q1334 272 1333.5 284.0Q1333 296 1331 308Q1301 305 1267.0 301.0Q1233 297 1205.5 293.0Q1178 289 1167 285Q1178 281 1206.5 276.5Q1235 272 1270.0 267.5Q1305 263 1335 260Z" />
  </g>
</svg>