<svg xmlns="http://www.w3.org/2000/svg" viewBox="100 -234 2070 1041">
  <g transform="translate(0, 573) scale(1, -1)">
    <path fill="black" d="M602 -234Q614 -183 614 -129Q614 -75 602 -18L655 -39Q655 10 653.0 56.0Q651 102 649 145Q529 141 429.5 130.0Q330 119 260.5 105.0Q191 91 161 78Q165 97 166.5 116.5Q168 136 168 155Q168 175 166.5 196.0Q165 217 160 238Q162 237 163.0 237.0Q164 237 165 236Q157 283 149.5 313.0Q142 343 130.5 366.5Q119 390 100 418Q116 417 131.0 415.5Q146 414 162 413Q168 449 168 485Q168 505 166.5 526.0Q165 547 160 568Q187 557 252.0 545.5Q317 534 409.5 524.5Q502 515 610 509Q599 577 586.5 633.5Q574 690 561 736Q612 724 666 724Q690 724 715.5 726.5Q741 729 766 734Q765 752 762.0 770.0Q759 788 755 807Q778 796 805.0 785.0Q832 774 871.0 763.5Q910 753 969.5 744.0Q1029 735 1119 728Q1136 742 1155.5 758.5Q1175 775 1197 796L1211 784Q1187 751 1169 724Q1201 722 1238.0 720.0Q1275 718 1315 716Q1335 731 1357.0 751.0Q1379 771 1407 796L1421 784Q1407 765 1395.0 747.5Q1383 730 1372 714Q1392 713 1411.5 713.0Q1431 713 1452 712L1446 736Q1497 724 1551 724Q1605 724 1662 736Q1652 701 1642.5 658.5Q1633 616 1624 566Q1662 551 1758.5 533.0Q1855 515 2002 510L1977 607Q2024 596 2071 596Q2095 596 2120.0 599.0Q2145 602 2170 607Q2139 493 2117.0 341.0Q2095 189 2095 -12H2062Q2062 29 2060.5 67.5Q2059 106 2057 143Q1876 134 1769.5 114.5Q1663 95 1621 78Q1625 97 1626.5 116.5Q1628 136 1628 155Q1628 175 1626.5 196.0Q1625 217 1620 238Q1647 227 1701.5 213.5Q1756 200 1843.0 190.0Q1930 180 2054 178Q2047 261 2035.5 334.5Q2024 408 2010 472Q1861 466 1760.0 444.5Q1659 423 1621 408Q1625 427 1626.5 446.5Q1628 466 1628 485Q1628 502 1627.0 520.0Q1626 538 1622 556Q1601 433 1586.5 266.5Q1572 100 1572 -113H1616V-139Q1550 -139 1490.0 -139.5Q1430 -140 1375 -141Q1385 -156 1396.5 -172.0Q1408 -188 1421 -206L1407 -218Q1381 -194 1360.0 -175.5Q1339 -157 1320 -142Q1280 -143 1242.0 -144.0Q1204 -145 1169 -147Q1178 -160 1188.5 -175.0Q1199 -190 1211 -206L1197 -218Q1175 -197 1155.5 -180.0Q1136 -163 1119 -150Q993 -156 907.0 -165.5Q821 -175 763.5 -186.5Q706 -198 668.5 -210.0Q631 -222 602 -234ZM1541 -113Q1540 162 1515.5 360.0Q1491 558 1459 685Q1431 685 1405.0 684.5Q1379 684 1354 684Q1329 641 1316.0 605.0Q1303 569 1293 532Q1279 549 1264.0 563.0Q1249 577 1235 589Q1204 614 1172 633Q1199 645 1221.5 656.5Q1244 668 1266 682L1139 676Q1117 635 1104.5 601.0Q1092 567 1083 532Q1069 549 1054.0 563.0Q1039 577 1025 589Q994 614 962 633Q982 642 998.5 650.0Q1015 658 1031 667Q956 659 907.5 649.0Q859 639 830.0 629.0Q801 619 784.0 609.0Q767 599 755 591Q767 642 767 696V698Q737 578 713.5 394.5Q690 211 687 -50Q721 -60 766.5 -70.0Q812 -80 881.0 -87.5Q950 -95 1052 -101Q1031 -88 1009.5 -77.5Q988 -67 962 -55Q994 -36 1025 -11Q1039 1 1054.0 15.5Q1069 30 1083 46Q1093 9 1106.0 -26.5Q1119 -62 1144 -106Q1174 -107 1207.0 -107.5Q1240 -108 1275 -110Q1251 -93 1226.5 -80.5Q1202 -68 1172 -55Q1204 -36 1235 -11Q1249 1 1264.0 15.5Q1279 30 1293 46Q1303 8 1316.5 -28.5Q1330 -65 1357 -111Q1399 -112 1445.0 -112.5Q1491 -113 1541 -113ZM1044 47Q1047 62 1048.5 75.5Q1050 89 1051 102H1036Q1036 128 1035.5 153.0Q1035 178 1034 203Q972 202 918.0 187.0Q864 172 820 155Q826 182 826 210Q826 238 820 268Q864 251 917.5 236.0Q971 221 1034 219Q1033 254 1030.5 286.0Q1028 318 1024 345Q966 341 913.0 327.0Q860 313 820 298Q822 307 823.0 316.5Q824 326 825 336Q815 290 812.0 223.5Q809 157 809 78H793Q793 170 788.0 244.5Q783 319 769 364Q789 361 801 361Q807 361 813.0 361.5Q819 362 825 363Q825 374 823.5 386.0Q822 398 820 410Q860 394 912.5 380.5Q965 367 1022 363Q1020 376 1017.5 387.5Q1015 399 1012 409Q1030 406 1044 406Q1057 406 1075 409Q1063 370 1058.0 302.5Q1053 235 1051 157Q1062 153 1075.0 150.0Q1088 147 1102 143Q1102 199 1099.5 254.0Q1097 309 1092.0 354.0Q1087 399 1078 425Q1061 421 1044 416Q1047 432 1049.0 447.0Q1051 462 1051 475Q1051 489 1049.0 502.5Q1047 516 1044 529Q1075 519 1125.0 508.5Q1175 498 1235.0 489.5Q1295 481 1354 477L1353 482Q1366 478 1380.0 476.5Q1394 475 1407 475Q1437 475 1465 482Q1456 450 1448.0 404.0Q1440 358 1433.0 305.5Q1426 253 1421.5 200.0Q1417 147 1417 101V89Q1368 89 1314.5 85.5Q1261 82 1209.5 76.0Q1158 70 1115.0 62.5Q1072 55 1044 47ZM647 177Q642 261 634.0 335.0Q626 409 616 473Q515 468 427.0 458.0Q339 448 274.0 436.0Q209 424 175 413H177Q196 413 216.0 414.5Q236 416 258 418Q242 394 229.0 368.5Q216 343 207.5 309.5Q199 276 194 227Q256 211 375.0 196.5Q494 182 647 177ZM1110 422Q1116 422 1122.5 422.5Q1129 423 1136 424V425L1139 424L1142 425L1141 424Q1149 423 1155.0 422.5Q1161 422 1168 422Q1174 422 1180.5 422.5Q1187 423 1194 424V425L1197 424L1200 425L1199 424Q1207 423 1212.5 422.5Q1218 422 1224 422Q1230 422 1237.0 422.5Q1244 423 1251 424V425L1254 424L1257 425V424Q1264 423 1270.0 422.5Q1276 422 1282 422Q1288 422 1294.5 422.5Q1301 423 1308 424V425L1311 424L1315 425L1314 424Q1321 423 1327.0 422.5Q1333 422 1339 422Q1345 422 1352.0 422.5Q1359 423 1366 424Q1365 432 1363.0 441.0Q1361 450 1359 457Q1284 453 1207.5 444.5Q1131 436 1079 425Q1097 422 1110 422ZM1160 131Q1160 186 1157.5 240.0Q1155 294 1151.0 340.0Q1147 386 1139 415Q1132 386 1127.5 341.5Q1123 297 1121.0 245.0Q1119 193 1118 140ZM1401 105Q1400 178 1391.5 260.5Q1383 343 1369 413Q1361 381 1356.5 331.0Q1352 281 1350.0 222.5Q1348 164 1348 107Q1362 106 1375.0 106.0Q1388 106 1401 105ZM1332 108Q1332 166 1330.0 224.0Q1328 282 1323.5 331.5Q1319 381 1311 413Q1304 382 1299.5 332.5Q1295 283 1293.0 226.0Q1291 169 1291 113Q1302 112 1312.0 110.5Q1322 109 1332 108ZM1275 114Q1275 171 1273.0 227.5Q1271 284 1266.5 333.0Q1262 382 1254 413Q1246 382 1241.5 334.0Q1237 286 1235.5 230.5Q1234 175 1233 119Q1244 118 1254.5 117.0Q1265 116 1275 114ZM1218 121Q1218 177 1215.5 232.5Q1213 288 1209.0 335.5Q1205 383 1197 413Q1190 383 1185.0 337.0Q1180 291 1178.0 237.0Q1176 183 1176 128Q1187 127 1197.0 125.0Q1207 123 1218 121Z" />
  </g>
</svg>