<svg xmlns="http://www.w3.org/2000/svg" viewBox="100 -224 2223 1034">
  <g transform="translate(0, 586) scale(1, -1)">
    <path fill="black" d="M492 -193Q492 -170 490.5 -148.0Q489 -126 487 -105Q405 -115 342.0 -125.0Q279 -135 241 -146Q253 -95 253 -41Q253 13 241 70Q276 60 331.5 50.5Q387 41 458 32Q443 83 426.5 122.5Q410 162 399 185Q428 181 456.5 178.5Q485 176 515 176Q540 176 565.0 178.0Q590 180 615 185Q605 161 587.0 119.5Q569 78 553 21Q643 11 745.0 3.0Q847 -5 954.5 -11.5Q1062 -18 1168.0 -21.5Q1274 -25 1371 -25H2201Q2197 195 2178.0 378.5Q2159 562 2134 689H1369Q1267 689 1154.0 685.0Q1041 681 926.5 674.5Q812 668 704.0 659.0Q596 650 501.5 639.0Q407 628 335.0 617.0Q263 606 221 594Q233 645 233 699Q233 753 221 810Q262 799 332.5 787.5Q403 776 495.5 765.0Q588 754 694.0 745.0Q800 736 912.5 729.5Q1025 723 1137.0 719.0Q1249 715 1351 715H2129Q2124 741 2118.0 764.0Q2112 787 2107 806Q2158 794 2212 794Q2266 794 2323 806Q2300 723 2278.0 586.0Q2256 449 2242.0 271.5Q2228 94 2228 -112H2202V-51H1389Q1287 -51 1175.5 -54.5Q1064 -58 950.0 -65.0Q836 -72 728.5 -80.5Q621 -89 528 -100Q522 -143 522 -193ZM639 20Q629 177 623.0 281.0Q617 385 603 445Q613 443 623.5 442.0Q634 441 644 441Q651 441 657.5 441.0Q664 441 671 442Q671 447 671.5 452.0Q672 457 672 462Q672 478 669 496V499Q671 513 672.0 526.0Q673 539 673 552Q673 565 672.0 578.0Q671 591 669 605Q703 598 735.0 592.5Q767 587 805.5 583.0Q844 579 897.0 577.0Q950 575 1026 575Q1048 593 1064.5 614.5Q1081 636 1092 659Q1113 630 1133.5 604.5Q1154 579 1181.5 550.5Q1209 522 1248.0 485.0Q1287 448 1345 396L1353 403Q1349 408 1345.0 413.0Q1341 418 1336 423Q1359 431 1377.0 440.0Q1395 449 1418 463Q1463 505 1494.5 536.5Q1526 568 1550.0 596.5Q1574 625 1598 658Q1649 621 1762.0 565.5Q1875 510 2032 445Q2035 474 2035.5 499.0Q2036 524 2036 552Q2083 529 2142 524Q2126 496 2110.0 462.5Q2094 429 2076.5 384.0Q2059 339 2038.0 275.0Q2017 211 1990 121L1977 125Q1916 190 1881.5 227.5Q1847 265 1822 289Q1774 252 1740.5 225.0Q1707 198 1682.5 176.5Q1658 155 1637.5 134.5Q1617 114 1595 88L1574 64Q1564 88 1550.5 111.0Q1537 134 1516 155Q1464 207 1428.0 239.5Q1392 272 1365.0 293.5Q1338 315 1312 332Q1253 278 1216.5 241.0Q1180 204 1155.0 174.5Q1130 145 1105 110Q1089 145 1059 175L1057 136H1043Q1042 147 1041.5 157.5Q1041 168 1041 178Q938 168 866.5 157.5Q795 147 748.0 137.5Q701 128 669 118Q671 133 672.0 147.5Q673 162 673 176Q673 187 672.0 199.0Q671 211 669 223V227Q671 235 671.0 243.5Q671 252 671 261Q671 268 671.0 274.5Q671 281 670 288L669 287L670 293L669 299L670 298Q671 305 671.5 313.5Q672 322 671 329Q669 310 666.5 272.0Q664 234 661.5 188.5Q659 143 656.5 98.0Q654 53 653 20ZM195 -224Q191 -45 177.0 109.5Q163 264 143.0 387.5Q123 511 100 594Q151 582 205 582Q259 582 316 594Q293 511 273.0 385.5Q253 260 239.5 105.0Q226 -50 221 -224ZM1054 557H1059V558Q1057 557 1054 557ZM1021 469Q1015 519 1009 552Q874 537 797.0 524.0Q720 511 674 497Q688 493 720.0 489.5Q752 486 793.5 482.5Q835 479 878.5 476.5Q922 474 959.5 472.0Q997 470 1021 469ZM1558 453Q1558 458 1558.5 462.5Q1559 467 1559 471Q1559 478 1558.5 484.0Q1558 490 1557 497Q1581 490 1601.5 486.5Q1622 483 1651 480Q1641 505 1633.0 522.5Q1625 540 1619 547H1620Q1618 548 1614 548Q1599 541 1583.0 532.5Q1567 524 1550 513Q1551 503 1553.0 487.5Q1555 472 1558 453ZM1060 206Q1079 215 1099.0 225.5Q1119 236 1141 250Q1137 317 1126.5 366.5Q1116 416 1108 445Q1127 441 1150 441Q1161 441 1172.0 442.0Q1183 443 1194 445Q1184 408 1176.5 364.5Q1169 321 1164 263Q1193 281 1227.5 304.5Q1262 328 1305 359L1330 382Q1245 445 1188.5 482.5Q1132 520 1089 542Q1079 493 1072.0 406.0Q1065 319 1060 206ZM1982 151Q2003 254 2014.5 318.5Q2026 383 2030 429Q1926 464 1842.5 489.5Q1759 515 1694 531Q1697 506 1703.0 471.0Q1709 436 1716.5 397.5Q1724 359 1731.0 323.5Q1738 288 1743 262L1808 301Q1795 315 1781.0 326.5Q1767 338 1750 351Q1769 360 1785.5 374.0Q1802 388 1817 405Q1827 382 1838.5 360.5Q1850 339 1867.5 311.5Q1885 284 1912.5 245.5Q1940 207 1982 151ZM1540 163Q1554 168 1568.5 173.0Q1583 178 1598 185Q1588 211 1575.0 250.0Q1562 289 1547.0 331.5Q1532 374 1518.0 412.5Q1504 451 1493 476Q1473 463 1449.0 446.5Q1425 430 1398 410Q1394 407 1390.0 403.0Q1386 399 1382 395Q1394 371 1406.5 349.0Q1419 327 1436.0 302.5Q1453 278 1478.0 244.5Q1503 211 1540 163ZM1667 435 1656 467Q1628 465 1607.5 461.0Q1587 457 1567 452Q1592 445 1613.5 442.0Q1635 439 1667 435ZM1026 405 1022 458Q995 455 952.0 452.0Q909 449 860.5 445.5Q812 442 768.5 438.5Q725 435 697 430Q725 426 770.0 422.0Q815 418 865.0 414.5Q915 411 958.5 409.0Q1002 407 1026 405ZM1565 411V429Q1565 434 1565.0 439.5Q1565 445 1564 451L1559 449ZM1684 391 1672 424Q1641 422 1618.0 418.0Q1595 414 1575 408Q1601 400 1624.5 397.0Q1648 394 1684 391ZM1573 366Q1574 370 1574.0 374.5Q1574 379 1574 383Q1574 389 1574.0 395.0Q1574 401 1573 407L1566 405Q1568 395 1570.0 385.5Q1572 376 1573 366ZM1031 332 1027 396Q1005 393 967.5 390.5Q930 388 886.0 384.5Q842 381 799.5 377.5Q757 374 724.0 370.0Q691 366 675 361Q690 357 724.5 353.5Q759 350 802.5 346.5Q846 343 891.0 340.0Q936 337 973.5 335.0Q1011 333 1031 332ZM1700 346 1688 381Q1625 377 1585 364Q1612 356 1636.0 353.0Q1660 350 1700 346ZM1583 320Q1583 325 1583.5 330.0Q1584 335 1584 340Q1584 345 1583.5 351.0Q1583 357 1582 363L1574 361ZM1715 301 1703 337Q1635 333 1594 320Q1622 311 1647.0 308.5Q1672 306 1715 301ZM1035 268 1032 324Q1008 321 964.0 318.0Q920 315 868.0 311.0Q816 307 769.5 303.0Q723 299 694 294Q717 290 753.0 286.5Q789 283 831.0 280.0Q873 277 913.5 274.5Q954 272 986.5 270.5Q1019 269 1035 268ZM1592 275Q1592 280 1592.5 285.0Q1593 290 1593 295Q1593 301 1592.5 307.0Q1592 313 1591 319L1583 317ZM1731 256 1718 293Q1679 291 1652.0 287.0Q1625 283 1602 276Q1632 267 1658.5 264.0Q1685 261 1731 256ZM1600 233Q1601 238 1601.0 242.0Q1601 246 1601 250Q1601 256 1601.0 262.5Q1601 269 1600 275L1592 272Q1594 262 1596.5 252.5Q1599 243 1600 233ZM1039 197 1036 260Q1017 258 980.5 255.0Q944 252 899.0 249.0Q854 246 809.0 242.5Q764 239 728.5 234.5Q693 230 676 225Q710 218 742.5 213.0Q775 208 814.5 204.5Q854 201 908.0 199.0Q962 197 1039 197ZM1609 190Q1651 208 1721 249Q1681 247 1653.5 242.0Q1626 237 1601 229Z" />
  </g>
</svg>