<svg xmlns="http://www.w3.org/2000/svg" viewBox="100 -224 1723 1034">
  <g transform="translate(0, 586) scale(1, -1)">
    <path fill="black" d="M492 -193Q492 -170 490.5 -148.0Q489 -126 487 -105Q405 -115 342.0 -125.0Q279 -135 241 -146Q253 -94 252.5 -39.0Q252 16 241 70Q276 60 331.5 50.5Q387 41 458 32Q443 83 426.5 122.5Q410 162 399 185Q456 178 511.5 176.5Q567 175 615 185Q605 161 587.0 119.5Q569 78 553 21Q643 11 745.0 3.0Q847 -5 954.5 -11.5Q1062 -18 1168.0 -21.5Q1274 -25 1371 -25H1701Q1697 195 1678.0 378.5Q1659 562 1634 689H1369Q1267 689 1154.0 685.0Q1041 681 926.5 674.5Q812 668 704.0 659.0Q596 650 501.5 639.0Q407 628 335.0 617.0Q263 606 221 594Q233 646 232.5 701.0Q232 756 221 810Q262 799 332.5 787.5Q403 776 495.5 765.0Q588 754 694.0 745.0Q800 736 912.5 729.5Q1025 723 1137.0 719.0Q1249 715 1351 715H1629Q1624 741 1618.0 764.0Q1612 787 1607 806Q1659 794 1714.0 794.5Q1769 795 1823 806Q1800 723 1778.0 586.0Q1756 449 1742.0 271.5Q1728 94 1728 -112H1702V-51H1389Q1287 -51 1175.5 -54.5Q1064 -58 950.0 -65.0Q836 -72 728.5 -80.5Q621 -89 528 -100Q522 -143 522 -193ZM1153 6Q1126 67 1079 106Q1132 120 1193.5 142.0Q1255 164 1336 199Q1323 212 1306.0 227.0Q1289 242 1270 258Q1244 227 1225.5 201.5Q1207 176 1202 165Q1191 182 1176.0 196.0Q1161 210 1147 220Q1160 225 1184.5 243.0Q1209 261 1239 285Q1220 302 1199 319Q1175 289 1158.0 265.5Q1141 242 1136 231Q1110 266 1080 286Q1092 291 1115.0 307.5Q1138 324 1166 346Q1141 366 1119.5 382.0Q1098 398 1085 404Q1079 353 1074.5 297.5Q1070 242 1066.5 192.5Q1063 143 1059 111H1045Q1044 131 1042.5 160.0Q1041 189 1039 222Q970 218 882.0 205.0Q794 192 702 170Q709 196 709.0 228.5Q709 261 702 289Q794 265 876.5 253.0Q959 241 1038 236Q1035 284 1031.0 335.5Q1027 387 1022 431Q955 426 871.5 413.0Q788 400 702 380Q708 403 708.5 434.5Q709 466 704 489Q697 467 690.5 427.0Q684 387 679.0 337.5Q674 288 670.0 237.0Q666 186 662.5 141.0Q659 96 656 67H642Q641 97 638.0 145.0Q635 193 631.5 248.0Q628 303 623.0 354.5Q618 406 612.0 445.0Q606 484 599 498Q622 494 650.5 494.0Q679 494 702 497V499Q767 483 820.5 473.0Q874 463 922.5 457.0Q971 451 1020 447Q1016 481 1011.5 506.5Q1007 532 1002 542Q1026 538 1057.0 538.0Q1088 538 1111 542Q1104 526 1097.0 490.5Q1090 455 1085 410Q1099 420 1112.0 433.0Q1125 446 1136 461Q1141 451 1158.0 427.0Q1175 403 1199 373Q1220 390 1239 407Q1209 431 1184.5 449.0Q1160 467 1147 472Q1161 482 1176.0 496.5Q1191 511 1202 528Q1207 517 1225.5 491.0Q1244 465 1270 433L1327 484Q1249 518 1190.0 539.0Q1131 560 1079 573Q1126 612 1153 673Q1212 618 1339.5 535.5Q1467 453 1665 340Q1471 231 1341.5 146.5Q1212 62 1153 6ZM195 -224Q191 -45 177.0 109.5Q163 264 143.0 387.5Q123 511 100 594Q152 582 207.0 582.5Q262 583 316 594Q293 511 273.0 385.5Q253 260 239.5 105.0Q226 -50 221 -224ZM1330 362Q1357 385 1380.0 406.0Q1403 427 1419 443L1338 479L1283 418ZM1347 203Q1406 229 1476.5 262.5Q1547 296 1633 339Q1574 369 1522.0 394.0Q1470 419 1425 440L1427 438Q1411 422 1389.5 398.0Q1368 374 1344 346Q1368 318 1389.5 294.0Q1411 270 1427 254L1421 247Q1405 262 1381.5 284.0Q1358 306 1330 330L1283 274ZM1259 301 1312 346Q1299 357 1285.5 368.5Q1272 380 1259 391L1221 346Z" />
  </g>
</svg>