<svg xmlns="http://www.w3.org/2000/svg" viewBox="100 -224 1723 1034">
  <g transform="translate(0, 586) scale(1, -1)">
    <path fill="black" d="M492 -193Q492 -170 490.5 -148.0Q489 -126 487 -105Q405 -115 342.0 -125.0Q279 -135 241 -146Q253 -95 253 -41Q253 13 241 70Q276 60 331.5 50.5Q387 41 458 32Q443 83 426.5 122.5Q410 162 399 185Q428 181 456.5 178.5Q485 176 515 176Q540 176 565.0 178.0Q590 180 615 185Q605 161 587.0 119.5Q569 78 553 21Q643 11 745.0 3.0Q847 -5 954.5 -11.5Q1062 -18 1168.0 -21.5Q1274 -25 1371 -25H1701Q1697 195 1678.0 378.5Q1659 562 1634 689H1369Q1267 689 1154.0 685.0Q1041 681 926.5 674.5Q812 668 704.0 659.0Q596 650 501.5 639.0Q407 628 335.0 617.0Q263 606 221 594Q233 645 233 699Q233 753 221 810Q262 799 332.5 787.5Q403 776 495.5 765.0Q588 754 694.0 745.0Q800 736 912.5 729.5Q1025 723 1137.0 719.0Q1249 715 1351 715H1629Q1624 741 1618.0 764.0Q1612 787 1607 806Q1658 794 1712 794Q1766 794 1823 806Q1800 723 1778.0 586.0Q1756 449 1742.0 271.5Q1728 94 1728 -112H1702V-51H1389Q1287 -51 1175.5 -54.5Q1064 -58 950.0 -65.0Q836 -72 728.5 -80.5Q621 -89 528 -100Q522 -143 522 -193ZM643 60Q646 78 646 100Q646 120 643 141Q649 138 684.0 135.5Q719 133 775.5 130.5Q832 128 902 125L900 155Q862 151 831.5 147.5Q801 144 793 140Q796 157 796 176Q796 191 793 209Q800 205 830.0 201.0Q860 197 898 193L895 238Q858 234 829.5 230.5Q801 227 793 223Q796 241 796 259Q796 276 793 292Q800 289 828.0 285.0Q856 281 893 276L890 318Q855 315 828.0 311.5Q801 308 793 304Q796 322 796 340Q796 357 793 373Q800 370 826.5 366.0Q853 362 888 358L885 399Q851 395 825.5 391.5Q800 388 793 385Q796 403 796 421Q796 438 793 454Q799 451 824.0 447.5Q849 444 883 440L880 482Q848 478 824.0 473.5Q800 469 792 466Q795 484 795 506Q795 515 794.5 524.0Q794 533 792 541Q798 538 821.5 534.5Q845 531 876 527L872 554Q819 549 775.0 542.5Q731 536 717 530Q720 548 720 575Q720 600 717 621Q726 616 758.0 611.5Q790 607 833.5 602.5Q877 598 923.0 594.0Q969 590 1007 587Q1005 599 1002.0 610.5Q999 622 996 632Q1023 626 1052 626Q1081 626 1111 632Q1092 567 1082.0 439.5Q1072 312 1067 121Q1146 119 1223.5 117.0Q1301 115 1369.0 113.5Q1437 112 1487.0 110.5Q1537 109 1561 108Q1556 178 1552.0 235.0Q1548 292 1544 340Q1525 338 1498.5 336.0Q1472 334 1443 332Q1439 281 1435.5 228.5Q1432 176 1430 135H1418Q1415 176 1412.0 228.0Q1409 280 1405 329L1371 327Q1367 278 1363.5 226.5Q1360 175 1358 135H1346Q1343 175 1340.0 225.0Q1337 275 1334 324L1298 322Q1294 273 1291.0 223.5Q1288 174 1286 135H1274Q1271 173 1268.0 222.0Q1265 271 1261 319L1225 316Q1221 269 1218.5 221.0Q1216 173 1214 135H1202Q1199 173 1196.5 219.5Q1194 266 1190 313Q1156 309 1132.5 305.5Q1109 302 1101 298Q1104 316 1104 343Q1104 370 1101 389Q1107 386 1129.5 383.0Q1152 380 1185 377Q1181 415 1176.5 444.5Q1172 474 1167 487Q1186 483 1208 483Q1216 483 1224.0 483.5Q1232 484 1240 485Q1239 486 1239 487L1243 486L1248 487V485Q1256 484 1264.0 483.5Q1272 483 1280 483Q1288 483 1296.0 483.5Q1304 484 1312 485Q1311 486 1311 487L1316 486L1320 487V485Q1328 484 1336.0 483.5Q1344 483 1352 483Q1360 483 1368.0 483.5Q1376 484 1384 485Q1383 486 1383 487L1388 486L1392 487V485Q1400 484 1408.0 483.5Q1416 483 1423 483Q1433 483 1443.5 484.0Q1454 485 1465 487Q1460 474 1455.0 439.0Q1450 404 1445 358L1543 352Q1536 426 1527.5 480.0Q1519 534 1506 579Q1535 573 1562 573Q1591 573 1621 579Q1603 513 1592.5 385.5Q1582 258 1577 66H1563Q1562 74 1562.0 82.0Q1562 90 1561 98Q1539 96 1490.0 94.5Q1441 93 1373.5 91.0Q1306 89 1228.5 87.0Q1151 85 1071.5 82.5Q992 80 918.5 77.5Q845 75 785.0 72.0Q725 69 687.5 66.0Q650 63 643 60ZM195 -224Q191 -45 177.0 109.5Q163 264 143.0 387.5Q123 511 100 594Q151 582 205 582Q259 582 316 594Q293 511 273.0 385.5Q253 260 239.5 105.0Q226 -50 221 -224ZM1020 512 1011 567Q982 564 948.0 561.5Q914 559 880 555Q886 554 891.5 553.5Q897 553 903 553Q922 553 941 556Q938 552 935 521ZM1030 425 1021 499 933 488Q932 476 931.0 462.5Q930 449 929 435ZM1403 360Q1400 395 1396.5 424.0Q1393 453 1388 471Q1384 454 1380.5 425.5Q1377 397 1374 362ZM1330 365Q1327 398 1323.5 426.0Q1320 454 1316 471Q1312 455 1309.0 427.5Q1306 400 1302 367ZM1257 370Q1254 402 1251.0 428.5Q1248 455 1244 471Q1240 455 1237.0 429.5Q1234 404 1231 372Q1237 371 1243.5 371.0Q1250 371 1257 370ZM1037 343 1031 414Q986 408 927 403Q926 391 925.5 379.0Q925 367 925 354Q938 364 949.5 375.0Q961 386 971 402Q974 395 983.0 380.0Q992 365 1005 346ZM1040 298Q1039 307 1038.5 316.0Q1038 325 1038 333Q1033 333 1027.0 332.5Q1021 332 1015 331Q1021 323 1027.0 314.5Q1033 306 1040 298ZM1042 261V270Q1022 286 1003.0 300.0Q984 314 967 326Q957 325 945.5 324.0Q934 323 923 322L920 273ZM1048 178 1043 253Q1020 250 986.5 246.5Q953 243 918 240L916 191ZM1052 121 1049 171Q1025 167 988.0 163.5Q951 160 913 156L910 125Q944 124 979.5 123.0Q1015 122 1052 121Z" />
  </g>
</svg>