<svg xmlns="http://www.w3.org/2000/svg" viewBox="100 -224 1723 1034">
  <g transform="translate(0, 586) scale(1, -1)">
    <path fill="black" d="M492 -193Q492 -170 490.5 -148.0Q489 -126 487 -105Q405 -115 342.0 -125.0Q279 -135 241 -146Q253 -95 253 -41Q253 13 241 70Q276 60 331.5 50.5Q387 41 458 32Q443 83 426.5 122.5Q410 162 399 185Q428 181 456.5 178.5Q485 176 515 176Q540 176 565.0 178.0Q590 180 615 185Q605 161 587.0 119.5Q569 78 553 21Q585 17 618.5 14.0Q652 11 687 8Q685 55 681.0 115.5Q677 176 671.5 236.0Q666 296 659.0 344.0Q652 392 643 413Q659 411 673.0 409.5Q687 408 700 408Q710 408 719.0 408.5Q728 409 738 410V430Q738 438 738.0 444.0Q738 450 737 456L734 455Q742 492 742 531Q742 552 740.0 572.0Q738 592 734 611Q774 600 815.5 589.5Q857 579 912.0 570.0Q967 561 1046.5 555.5Q1126 550 1241 550Q1268 572 1294.5 605.0Q1321 638 1337 672Q1360 641 1386.5 607.5Q1413 574 1449.5 534.0Q1486 494 1538.5 444.5Q1591 395 1664 333Q1589 270 1536.5 220.0Q1484 170 1448.0 130.0Q1412 90 1386.0 56.0Q1360 22 1337 -8Q1321 26 1294.5 58.5Q1268 91 1241 113Q1237 113 1233.0 112.5Q1229 112 1224 112L1220 56H1205L1202 112Q1103 110 1031.0 104.5Q959 99 906.0 90.5Q853 82 812.0 72.0Q771 62 734 52Q742 92 742 133Q742 144 741.5 153.5Q741 163 740 173L736 172L738 187L734 208L738 206Q738 217 738.0 227.0Q738 237 736 245Q738 254 738.0 263.5Q738 273 738 282Q738 292 738.0 301.0Q738 310 736 317Q737 325 737.5 332.5Q738 340 738 347Q730 301 724.0 240.0Q718 179 713.0 117.5Q708 56 703 6Q810 -3 925.0 -10.0Q1040 -17 1153.5 -21.0Q1267 -25 1371 -25H1701Q1697 195 1678.0 378.5Q1659 562 1634 689H1369Q1267 689 1154.0 685.0Q1041 681 926.5 674.5Q812 668 704.0 659.0Q596 650 501.5 639.0Q407 628 335.0 617.0Q263 606 221 594Q233 645 233 699Q233 753 221 810Q262 799 332.5 787.5Q403 776 495.5 765.0Q588 754 694.0 745.0Q800 736 912.5 729.5Q1025 723 1137.0 719.0Q1249 715 1351 715H1629Q1624 741 1618.0 764.0Q1612 787 1607 806Q1658 794 1712 794Q1766 794 1823 806Q1800 723 1778.0 586.0Q1756 449 1742.0 271.5Q1728 94 1728 -112H1702V-51H1389Q1287 -51 1175.5 -54.5Q1064 -58 950.0 -65.0Q836 -72 728.5 -80.5Q621 -89 528 -100Q522 -143 522 -193ZM195 -224Q191 -45 177.0 109.5Q163 264 143.0 387.5Q123 511 100 594Q151 582 205 582Q259 582 316 594Q293 511 273.0 385.5Q253 260 239.5 105.0Q226 -50 221 -224ZM1479 225Q1513 245 1551.5 271.0Q1590 297 1636 331Q1570 381 1517.5 414.0Q1465 447 1422.5 469.0Q1380 491 1343.0 507.0Q1306 523 1270 538V533Q1171 533 1100.5 529.0Q1030 525 979.0 517.5Q928 510 890.0 500.5Q852 491 819.0 481.0Q786 471 750 460Q771 456 810.0 452.5Q849 449 898.5 446.0Q948 443 999.5 440.5Q1051 438 1097.5 436.5Q1144 435 1177 434Q1173 468 1168.0 493.0Q1163 518 1158 530Q1174 528 1188.0 526.5Q1202 525 1215 525Q1229 525 1242.5 526.5Q1256 528 1270 530Q1263 513 1257.5 481.0Q1252 449 1247 408Q1270 405 1287 405Q1308 405 1330 408V410Q1344 408 1356.5 406.5Q1369 405 1380 405Q1391 405 1401.0 406.0Q1411 407 1422 408V410Q1436 408 1448.0 406.5Q1460 405 1471 405Q1482 405 1493.0 406.5Q1504 408 1516 409Q1501 372 1493.5 328.0Q1486 284 1479 225ZM1184 361 1179 418Q1146 417 1099.5 416.0Q1053 415 1000.5 412.5Q948 410 898.5 407.0Q849 404 809.0 400.5Q769 397 748 393Q748 392 747.5 390.5Q747 389 747 388Q766 384 806.5 380.0Q847 376 898.0 373.0Q949 370 1002.5 367.5Q1056 365 1104.0 363.5Q1152 362 1184 361ZM1291 134Q1309 142 1328.0 149.5Q1347 157 1367 166Q1364 213 1359.0 259.5Q1354 306 1347.0 344.5Q1340 383 1331 406Q1314 361 1306.5 287.0Q1299 213 1291 134ZM1387 175Q1404 183 1421.5 192.5Q1439 202 1458 213Q1454 275 1445.5 324.0Q1437 373 1423 406Q1408 367 1400.5 305.0Q1393 243 1387 175ZM1277 130Q1275 177 1270.5 225.5Q1266 274 1260.0 317.0Q1254 360 1245 389Q1239 328 1234.5 259.0Q1230 190 1226 131Q1238 130 1251.0 130.0Q1264 130 1277 130ZM1191 288 1186 346Q1153 345 1102.5 343.5Q1052 342 995.0 339.5Q938 337 885.0 333.5Q832 330 792.0 326.0Q752 322 737 317Q750 313 790.0 309.0Q830 305 884.0 301.5Q938 298 996.5 295.5Q1055 293 1106.5 291.0Q1158 289 1191 288ZM1196 216 1192 273Q1161 272 1110.5 270.5Q1060 269 1002.0 266.5Q944 264 889.0 260.5Q834 257 793.5 253.5Q753 250 737 245Q751 240 791.5 236.0Q832 232 887.5 228.5Q943 225 1002.5 222.5Q1062 220 1113.5 218.5Q1165 217 1196 216ZM1201 131 1198 200Q1170 200 1123.0 198.5Q1076 197 1021.0 195.0Q966 193 912.0 190.0Q858 187 816 183Q859 171 908.5 160.0Q958 149 1028.5 141.5Q1099 134 1201 131Z" />
  </g>
</svg>