<svg xmlns="http://www.w3.org/2000/svg" viewBox="100 -224 1723 1034">
  <g transform="translate(0, 586) scale(1, -1)">
    <path fill="black" d="M492 -193Q492 -170 490.5 -148.0Q489 -126 487 -105Q405 -115 342.0 -125.0Q279 -135 241 -146Q253 -95 253 -41Q253 13 241 70Q276 60 331.5 50.5Q387 41 458 32Q443 83 426.5 122.5Q410 162 399 185Q428 181 456.5 178.5Q485 176 515 176Q540 176 565.0 178.0Q590 180 615 185Q605 161 587.0 119.5Q569 78 553 21Q643 11 745.0 3.0Q847 -5 954.5 -11.5Q1062 -18 1168.0 -21.5Q1274 -25 1371 -25H1701Q1697 195 1678.0 378.5Q1659 562 1634 689H1369Q1267 689 1154.0 685.0Q1041 681 926.5 674.5Q812 668 704.0 659.0Q596 650 501.5 639.0Q407 628 335.0 617.0Q263 606 221 594Q233 645 233 699Q233 753 221 810Q262 799 332.5 787.5Q403 776 495.5 765.0Q588 754 694.0 745.0Q800 736 912.5 729.5Q1025 723 1137.0 719.0Q1249 715 1351 715H1629Q1624 741 1618.0 764.0Q1612 787 1607 806Q1658 794 1712 794Q1766 794 1823 806Q1800 723 1778.0 586.0Q1756 449 1742.0 271.5Q1728 94 1728 -112H1702V-51H1389Q1287 -51 1175.5 -54.5Q1064 -58 950.0 -65.0Q836 -72 728.5 -80.5Q621 -89 528 -100Q522 -143 522 -193ZM1373 23Q1351 43 1317.0 74.5Q1283 106 1244.0 141.5Q1205 177 1166.5 210.5Q1128 244 1097.5 268.0Q1067 292 1050 300Q1069 311 1084.5 323.5Q1100 336 1115 354L1110 350L1101 359Q1124 386 1155.5 423.5Q1187 461 1218.5 499.5Q1250 538 1273.5 570.5Q1297 603 1304 620Q1318 603 1331.0 591.0Q1344 579 1360 569Q1392 588 1417 620Q1423 603 1447.0 570.5Q1471 538 1502.5 499.5Q1534 461 1566.0 423.5Q1598 386 1620 359L1611 350L1609 351Q1623 335 1638.0 323.0Q1653 311 1671 300Q1655 293 1627.0 271.5Q1599 250 1564.5 220.5Q1530 191 1494.0 159.0Q1458 127 1425.5 97.5Q1393 68 1370 46L1382 32ZM638 38Q638 241 618.0 379.0Q598 517 575 600Q592 596 609.5 594.0Q627 592 645 592Q663 592 681.5 594.0Q700 596 719 600Q697 519 677.0 386.5Q657 254 656 60Q685 98 714.5 137.5Q744 177 772 215Q769 253 763.0 300.0Q757 347 750.0 391.5Q743 436 736.0 467.5Q729 499 724 505Q738 502 751.5 501.0Q765 500 779 500Q793 500 808.5 501.0Q824 502 840 505Q836 500 829.5 473.5Q823 447 816.5 408.0Q810 369 804.0 326.0Q798 283 794 245Q838 309 875.5 367.0Q913 425 938 472H936Q924 524 910.5 554.5Q897 585 885 599Q899 596 912.5 595.0Q926 594 940 594Q955 594 970.0 595.0Q985 596 1001 599Q990 587 977.0 559.5Q964 532 953 485Q984 453 1015.0 426.5Q1046 400 1080 380Q1025 350 954.0 298.5Q883 247 806.5 181.0Q730 115 656 38ZM195 -224Q191 -45 177.0 109.5Q163 264 143.0 387.5Q123 511 100 594Q151 582 205 582Q259 582 316 594Q293 511 273.0 385.5Q253 260 239.5 105.0Q226 -50 221 -224ZM1361 57Q1384 85 1418.0 124.5Q1452 164 1488.5 206.5Q1525 249 1553 285Q1519 281 1474.5 277.0Q1430 273 1386.5 269.0Q1343 265 1310.5 261.0Q1278 257 1269 254Q1271 265 1272.5 275.5Q1274 286 1274 296Q1274 305 1272.5 313.5Q1271 322 1269 332Q1278 328 1312.5 323.5Q1347 319 1393.5 314.5Q1440 310 1486.0 305.5Q1532 301 1564 298Q1595 339 1603 357L1570 387Q1545 384 1509.5 381.0Q1474 378 1435.5 374.5Q1397 371 1362.0 367.5Q1327 364 1302.0 361.0Q1277 358 1269 355Q1271 366 1272.5 376.5Q1274 387 1274 397Q1274 405 1272.5 414.0Q1271 423 1269 433Q1278 429 1310.5 424.5Q1343 420 1388.0 415.5Q1433 411 1478.0 406.5Q1523 402 1556 399Q1523 429 1486.5 460.5Q1450 492 1416.5 517.5Q1383 543 1360 556Q1338 544 1307.5 520.5Q1277 497 1242.5 468.0Q1208 439 1175.5 410.0Q1143 381 1117 357Q1122 345 1141.5 319.0Q1161 293 1189.0 259.0Q1217 225 1248.5 188.5Q1280 152 1309.5 117.5Q1339 83 1361 57Z" />
  </g>
</svg>