<svg xmlns="http://www.w3.org/2000/svg" viewBox="100 -224 1723 1034">
  <g transform="translate(0, 586) scale(1, -1)">
    <path fill="black" d="M492 -193Q492 -170 490.5 -148.0Q489 -126 487 -105Q405 -115 342.0 -125.0Q279 -135 241 -146Q253 -95 253 -41Q253 13 241 70Q276 60 331.5 50.5Q387 41 458 32Q443 83 426.5 122.5Q410 162 399 185Q428 181 456.5 178.5Q485 176 515 176Q540 176 565.0 178.0Q590 180 615 185Q605 161 587.0 119.5Q569 78 553 21Q643 11 745.0 3.0Q847 -5 954.5 -11.5Q1062 -18 1168.0 -21.5Q1274 -25 1371 -25H1701Q1697 195 1678.0 378.5Q1659 562 1634 689H1369Q1267 689 1154.0 685.0Q1041 681 926.5 674.5Q812 668 704.0 659.0Q596 650 501.5 639.0Q407 628 335.0 617.0Q263 606 221 594Q233 645 233 699Q233 753 221 810Q262 799 332.5 787.5Q403 776 495.5 765.0Q588 754 694.0 745.0Q800 736 912.5 729.5Q1025 723 1137.0 719.0Q1249 715 1351 715H1629Q1624 741 1618.0 764.0Q1612 787 1607 806Q1658 794 1712 794Q1766 794 1823 806Q1800 723 1778.0 586.0Q1756 449 1742.0 271.5Q1728 94 1728 -112H1702V-51H1389Q1287 -51 1175.5 -54.5Q1064 -58 950.0 -65.0Q836 -72 728.5 -80.5Q621 -89 528 -100Q522 -143 522 -193ZM1502 27Q1494 112 1484.5 172.5Q1475 233 1462.0 281.0Q1449 329 1430 375Q1447 372 1464.0 370.0Q1481 368 1498 368Q1482 465 1464.5 526.5Q1447 588 1430 623Q1450 621 1470.5 619.0Q1491 617 1512 617Q1529 617 1546.5 618.0Q1564 619 1582 623Q1569 589 1548.5 524.5Q1528 460 1517 368Q1532 369 1548.0 370.5Q1564 372 1582 375Q1557 317 1541.5 233.0Q1526 149 1520 27ZM1278 27Q1278 243 1257.0 389.0Q1236 535 1211 623Q1229 619 1247.5 617.0Q1266 615 1285 615Q1305 615 1324.5 617.0Q1344 619 1363 623Q1339 535 1318.0 389.5Q1297 244 1297 27ZM699 52Q691 132 682.0 189.0Q673 246 661.0 291.5Q649 337 631 381Q647 378 663.0 376.0Q679 374 695 374Q679 466 663.0 524.0Q647 582 631 616Q669 610 708 610Q725 610 741.5 611.0Q758 612 775 616Q762 584 742.5 522.5Q723 461 713 374Q727 375 742.5 376.5Q758 378 774 381Q759 346 748.0 301.0Q737 256 729 199Q761 225 800.0 261.0Q839 297 873 334L886 326Q869 287 850.5 251.0Q832 215 815 188Q830 168 853.0 131.5Q876 95 895 61L882 52Q847 85 804.0 119.0Q761 153 726 177Q723 149 720.5 118.0Q718 87 716 52ZM938 52Q930 132 921.0 189.0Q912 246 900.0 291.5Q888 337 870 381Q886 378 902.0 376.0Q918 374 934 374Q919 466 902.5 524.0Q886 582 871 616Q909 610 948 610Q965 610 981.5 611.0Q998 612 1014 616Q1001 584 982.0 522.5Q963 461 952 374Q966 375 979.5 376.5Q993 378 1007 379Q1039 405 1080.0 442.5Q1121 480 1155 517L1168 509Q1151 470 1132.5 434.0Q1114 398 1097 371Q1112 351 1135.0 315.0Q1158 279 1177 245L1164 235Q1128 269 1084.5 303.5Q1041 338 1006 361Q987 307 974.0 232.0Q961 157 956 52ZM195 -224Q191 -45 177.0 109.5Q163 264 143.0 387.5Q123 511 100 594Q151 582 205 582Q259 582 316 594Q293 511 273.0 385.5Q253 260 239.5 105.0Q226 -50 221 -224Z" />
  </g>
</svg>