<svg xmlns="http://www.w3.org/2000/svg" viewBox="100 -224 1723 1034">
  <g transform="translate(0, 586) scale(1, -1)">
    <path fill="black" d="M492 -193Q492 -170 490.5 -148.0Q489 -126 487 -105Q405 -115 342.0 -125.0Q279 -135 241 -146Q253 -95 253 -41Q253 13 241 70Q276 60 331.5 50.5Q387 41 458 32Q443 83 426.5 122.5Q410 162 399 185Q428 181 456.5 178.5Q485 176 515 176Q540 176 565.0 178.0Q590 180 615 185Q605 161 587.0 119.5Q569 78 553 21Q643 11 745.0 3.0Q847 -5 954.5 -11.5Q1062 -18 1168.0 -21.5Q1274 -25 1371 -25H1701Q1697 195 1678.0 378.5Q1659 562 1634 689H1369Q1267 689 1154.0 685.0Q1041 681 926.5 674.5Q812 668 704.0 659.0Q596 650 501.5 639.0Q407 628 335.0 617.0Q263 606 221 594Q233 645 233 699Q233 753 221 810Q262 799 332.5 787.5Q403 776 495.5 765.0Q588 754 694.0 745.0Q800 736 912.5 729.5Q1025 723 1137.0 719.0Q1249 715 1351 715H1629Q1624 741 1618.0 764.0Q1612 787 1607 806Q1658 794 1712 794Q1766 794 1823 806Q1800 723 1778.0 586.0Q1756 449 1742.0 271.5Q1728 94 1728 -112H1702V-51H1389Q1287 -51 1175.5 -54.5Q1064 -58 950.0 -65.0Q836 -72 728.5 -80.5Q621 -89 528 -100Q522 -143 522 -193ZM652 32Q641 55 628.5 70.5Q616 86 599 100Q613 105 636 119Q634 167 629.5 227.5Q625 288 619.0 349.0Q613 410 606.5 460.0Q600 510 593 537Q607 533 620.0 532.0Q633 531 646 531H662Q620 559 599 567Q616 581 628.5 597.0Q641 613 652 635Q658 623 681.5 597.0Q705 571 738.0 538.0Q771 505 807.5 469.5Q844 434 877.0 402.0Q910 370 933 348Q956 370 988.0 402.5Q1020 435 1048 471L1060 463Q1038 421 1022.5 388.5Q1007 356 993 330Q1004 311 1023.0 281.0Q1042 251 1067 213L1056 203Q1015 242 985.5 269.0Q956 296 931 316Q908 294 874.5 262.0Q841 230 805.0 195.0Q769 160 736.5 127.0Q704 94 681.0 69.0Q658 44 652 32ZM1321 99Q1305 123 1284.5 143.0Q1264 163 1244 177Q1262 185 1296.5 210.0Q1331 235 1373 269Q1360 281 1345.5 292.5Q1331 304 1317 316Q1283 274 1259.0 240.5Q1235 207 1229 192Q1213 215 1192.0 235.5Q1171 256 1151 269Q1168 277 1199.5 300.0Q1231 323 1271 354Q1231 386 1199.5 409.0Q1168 432 1151 439Q1171 453 1192.0 473.0Q1213 493 1229 516Q1235 501 1259.0 467.5Q1283 434 1317 392Q1345 414 1373 439Q1331 474 1296.5 499.0Q1262 524 1244 531Q1264 545 1284.5 565.5Q1305 586 1321 609Q1328 593 1354.0 557.5Q1380 522 1417 477Q1452 509 1483.0 537.0Q1514 565 1534 586L1545 576Q1524 555 1495.0 523.5Q1466 492 1434 455Q1450 436 1467.0 416.0Q1484 396 1500 376Q1539 410 1572.0 440.5Q1605 471 1627 493L1637 483Q1615 461 1584.0 426.5Q1553 392 1520 354Q1553 315 1584.0 281.5Q1615 248 1637 225L1627 215Q1605 237 1572.0 267.5Q1539 298 1500 332Q1484 313 1467.0 293.0Q1450 273 1434 253Q1466 217 1495.0 185.5Q1524 154 1545 132L1534 123Q1514 143 1483.0 171.5Q1452 200 1417 231Q1380 186 1354.0 150.5Q1328 115 1321 99ZM195 -224Q191 -45 177.0 109.5Q163 264 143.0 387.5Q123 511 100 594Q151 582 205 582Q259 582 316 594Q293 511 273.0 385.5Q253 260 239.5 105.0Q226 -50 221 -224ZM1099 105Q1099 137 1096.5 187.5Q1094 238 1089.5 296.5Q1085 355 1079.5 412.0Q1074 469 1067.5 516.0Q1061 563 1055 588Q1069 584 1082.0 583.0Q1095 582 1108 582Q1120 582 1132.0 583.0Q1144 584 1157 588Q1149 558 1142.5 510.0Q1136 462 1130.0 405.0Q1124 348 1120.0 291.5Q1116 235 1114.0 186.0Q1112 137 1112 105ZM914 344Q885 366 846.5 396.0Q808 426 767.0 457.0Q726 488 689 513Q684 488 679.5 455.5Q675 423 671 387Q710 371 775.0 360.0Q840 349 914 344ZM1401 291Q1419 307 1438.0 322.5Q1457 338 1475 354Q1457 370 1438.0 386.0Q1419 402 1401 417L1348 354ZM651 129Q688 153 735.5 187.5Q783 222 830.5 258.5Q878 295 912 321Q834 311 771.0 300.0Q708 289 663 269Q665 283 666.5 297.5Q668 312 668 327Q668 333 668.0 339.5Q668 346 667 352Q662 294 657.5 235.5Q653 177 651 129Z" />
  </g>
</svg>