<svg xmlns="http://www.w3.org/2000/svg" viewBox="100 -224 1403 1034">
  <g transform="translate(0, 586) scale(1, -1)">
    <path fill="black" d="M492 -193Q492 -170 490.5 -148.0Q489 -126 487 -105Q405 -115 342.0 -125.0Q279 -135 241 -146Q253 -95 253 -41Q253 13 241 70Q276 60 331.5 50.5Q387 41 458 32Q443 83 426.5 122.5Q410 162 399 185Q428 181 456.5 178.5Q485 176 515 176Q540 176 565.0 178.0Q590 180 615 185Q605 161 587.0 119.5Q569 78 553 21Q643 11 745.0 3.0Q847 -5 954.5 -11.5Q1062 -18 1168.0 -21.5Q1274 -25 1371 -25H1381Q1377 195 1358.0 378.5Q1339 562 1314 689Q1193 688 1061.5 682.0Q930 676 801.0 666.5Q672 657 558.0 645.0Q444 633 356.5 620.0Q269 607 221 594Q233 645 233 699Q233 753 221 810Q268 797 355.0 783.5Q442 770 555.5 758.5Q669 747 797.0 737.5Q925 728 1056.5 722.0Q1188 716 1309 715Q1303 741 1297.5 764.0Q1292 787 1287 806Q1338 794 1392 794Q1446 794 1503 806Q1480 723 1458.0 586.0Q1436 449 1422.0 271.5Q1408 94 1408 -112H1382V-51Q1281 -51 1170.0 -55.0Q1059 -59 946.0 -65.5Q833 -72 726.5 -81.0Q620 -90 528 -100Q522 -143 522 -193ZM1155 -13Q1128 4 1083.0 32.0Q1038 60 981.5 94.5Q925 129 863.5 166.0Q802 203 742.5 238.5Q683 274 631.0 303.0Q579 332 541.5 351.0Q504 370 488 374Q507 392 524.0 413.0Q541 434 555 462Q564 450 602.0 418.0Q640 386 697.0 342.0Q754 298 818 250V255Q807 278 789 293Q794 295 801.0 297.0Q808 299 816 302Q815 319 814.0 337.5Q813 356 811 373L803 366Q791 404 763 429L773 432Q718 464 669.0 490.5Q620 517 585.0 534.5Q550 552 534 556Q553 574 570.0 595.0Q587 616 601 644Q608 633 636.0 609.0Q664 585 707.0 551.5Q750 518 800 480Q794 522 789 541Q807 536 825 536Q835 536 845.0 537.5Q855 539 865 541Q885 536 903 536Q913 536 922.5 537.5Q932 539 942 541Q952 539 961.0 537.5Q970 536 980 536Q989 536 998.5 537.5Q1008 539 1017 540Q1037 551 1055.5 560.0Q1074 569 1090 578L1084 602Q1104 598 1124.0 596.0Q1144 594 1165 594Q1185 594 1206.5 596.0Q1228 598 1250 602Q1239 566 1228.5 509.0Q1218 452 1209.0 383.0Q1200 314 1193.0 242.5Q1186 171 1182.0 105.0Q1178 39 1178 -13ZM195 -224Q191 -45 177.0 109.5Q163 264 143.0 387.5Q123 511 100 594Q151 582 205 582Q259 582 316 594Q293 511 273.0 385.5Q253 260 239.5 105.0Q226 -50 221 -224ZM1082 425Q1091 430 1100.0 434.5Q1109 439 1117 443Q1112 476 1106.5 506.5Q1101 537 1094 563L1050 536Q1061 536 1072.5 537.0Q1084 538 1096 541Q1092 531 1088.5 499.5Q1085 468 1082 425ZM853 463 877 474Q875 497 871.5 513.5Q868 530 865 539Q862 529 859.0 509.0Q856 489 853 463ZM934 500 948 506Q945 531 942 539Q940 533 938.0 523.0Q936 513 934 500ZM1001 385 1034 401Q1029 478 1023 519Q1021 518 1018.5 516.0Q1016 514 1014 513Q1010 491 1007.0 457.5Q1004 424 1001 385ZM957 364 962 366Q960 395 957.5 423.0Q955 451 952 473Q947 469 940.5 465.5Q934 462 929 458L923 389Q931 383 940.0 377.0Q949 371 957 364ZM1142 232Q1138 282 1132.5 331.0Q1127 380 1120 426L1080 402Q1078 374 1076.5 343.0Q1075 312 1073 282ZM883 418Q882 421 882 426L877 423ZM839 311 890 333 887 364 845 389ZM1041 304 1036 374 998 350V335ZM972 137Q972 171 970.0 219.0Q968 267 965 317L956 322L916 295Q914 263 912.5 233.5Q911 204 911 181ZM1050 82Q1049 115 1047.0 165.5Q1045 216 1042 271Q1031 277 1019.0 284.5Q1007 292 995 299Q992 249 990.0 203.0Q988 157 988 126ZM896 192Q896 211 895.0 233.0Q894 255 893 279Q874 266 859.5 255.5Q845 245 836 237ZM1155 7Q1155 51 1152.5 102.0Q1150 153 1145 207L1071 253Q1068 198 1066.0 149.5Q1064 101 1064 71Z" />
  </g>
</svg>