<svg xmlns="http://www.w3.org/2000/svg" viewBox="100 -224 1403 1034">
  <g transform="translate(0, 586) scale(1, -1)">
    <path fill="black" d="M492 -193Q492 -170 490.5 -148.0Q489 -126 487 -105Q405 -115 342.0 -125.0Q279 -135 241 -146Q253 -95 253 -41Q253 13 241 70Q276 60 331.5 50.5Q387 41 458 32Q443 83 426.5 122.5Q410 162 399 185Q428 181 456.5 178.5Q485 176 515 176Q540 176 565.0 178.0Q590 180 615 185Q605 161 587.0 119.5Q569 78 553 21Q643 11 745.0 3.0Q847 -5 954.5 -11.5Q1062 -18 1168.0 -21.5Q1274 -25 1371 -25H1381Q1377 195 1358.0 378.5Q1339 562 1314 689Q1193 688 1061.5 682.0Q930 676 801.0 666.5Q672 657 558.0 645.0Q444 633 356.5 620.0Q269 607 221 594Q233 645 233 699Q233 753 221 810Q268 797 355.0 783.5Q442 770 555.5 758.5Q669 747 797.0 737.5Q925 728 1056.5 722.0Q1188 716 1309 715Q1303 741 1297.5 764.0Q1292 787 1287 806Q1338 794 1392 794Q1446 794 1503 806Q1480 723 1458.0 586.0Q1436 449 1422.0 271.5Q1408 94 1408 -112H1382V-51Q1281 -51 1170.0 -55.0Q1059 -59 946.0 -65.5Q833 -72 726.5 -81.0Q620 -90 528 -100Q522 -143 522 -193ZM1156 -13Q1129 4 1083.5 32.0Q1038 60 981.5 94.5Q925 129 863.5 166.0Q802 203 742.5 238.5Q683 274 631.0 303.0Q579 332 541.5 351.0Q504 370 488 374Q507 392 524.0 413.0Q541 434 555 462Q564 450 602.0 418.0Q640 386 697.0 342.0Q754 298 819 250V255Q807 278 790 293L816 302Q815 319 814.0 337.5Q813 356 811 373L803 366Q791 404 764 429L774 432Q719 464 670.0 490.5Q621 517 585.5 534.5Q550 552 534 556Q553 574 570.0 595.0Q587 616 601 644Q609 633 637.0 609.0Q665 585 707.5 551.5Q750 518 800 480Q795 522 789 541Q807 536 826 536Q836 536 845.5 537.5Q855 539 865 541Q885 536 903 536Q913 536 923.0 537.5Q933 539 943 541Q952 539 961.0 537.5Q970 536 980 536Q990 536 999.0 537.5Q1008 539 1017 540Q1038 551 1056.5 560.0Q1075 569 1091 578L1084 602Q1104 598 1124.0 596.0Q1144 594 1165 594Q1185 594 1206.5 596.0Q1228 598 1250 602Q1240 566 1229.5 509.0Q1219 452 1210.0 383.0Q1201 314 1194.0 242.5Q1187 171 1183.0 105.0Q1179 39 1179 -13ZM195 -224Q191 -45 177.0 109.5Q163 264 143.0 387.5Q123 511 100 594Q151 582 205 582Q259 582 316 594Q293 511 273.0 385.5Q253 260 239.5 105.0Q226 -50 221 -224ZM1082 425Q1091 430 1100.5 434.5Q1110 439 1117 443Q1108 508 1094 563L1050 536Q1061 536 1072.5 537.0Q1084 538 1096 541Q1092 531 1089.0 499.5Q1086 468 1082 425ZM853 463 877 474Q875 497 871.5 513.5Q868 530 865 539Q863 529 859.5 509.0Q856 489 853 463ZM934 500 948 506Q947 517 945.5 526.0Q944 535 942 539Q941 533 938.5 523.0Q936 513 934 500ZM1001 385 1035 401Q1032 438 1029.0 469.0Q1026 500 1023 519Q1021 518 1018.5 516.0Q1016 514 1014 513Q1010 491 1007.0 457.5Q1004 424 1001 385ZM957 364 962 366Q960 395 957.5 423.0Q955 451 953 473Q947 469 941.0 465.5Q935 462 930 458L923 389Q931 383 940.0 377.0Q949 371 957 364ZM1143 232Q1139 282 1133.5 331.0Q1128 380 1120 426L1081 402Q1079 374 1077.0 343.0Q1075 312 1073 282L1087 272Q1089 275 1092.0 278.0Q1095 281 1097 285Q1098 280 1098.0 274.5Q1098 269 1099 263ZM883 418Q882 421 882 426L878 423ZM839 311 890 333 888 364 846 389Q844 370 842.5 350.5Q841 331 839 311ZM1041 304 1036 374 999 350Q998 346 998.0 342.5Q998 339 998 335ZM961 146 973 155Q972 172 971.5 191.5Q971 211 970 232Q954 238 940.0 240.5Q926 243 914 244Q946 266 967 290Q966 297 966.0 303.5Q966 310 965 317L957 322L916 295Q915 263 913.0 233.5Q911 204 911 181ZM1049 113Q1048 134 1047.5 159.0Q1047 184 1045 211Q1040 212 1034.5 212.0Q1029 212 1024 213Q1030 217 1035.0 220.5Q1040 224 1044 228Q1044 239 1043.5 250.0Q1043 261 1042 271Q1031 277 1019.5 284.5Q1008 292 996 299Q995 292 995.0 286.0Q995 280 994 273Q998 261 1004.5 247.5Q1011 234 1021 218L1013 210L991 223Q991 210 990.5 196.5Q990 183 989 171Q997 179 1004.0 188.0Q1011 197 1018 207Q1020 188 1025.0 165.0Q1030 142 1049 113ZM896 192Q896 231 893 279Q874 266 859.5 255.5Q845 245 836 237ZM1156 7Q1155 51 1152.5 102.0Q1150 153 1145 207L1108 230Q1114 210 1130 187L1122 179Q1094 197 1069 205Q1068 164 1066.5 129.0Q1065 94 1065 71ZM1050 82Q1050 87 1050.0 93.0Q1050 99 1049 106L1044 100Q1028 111 1014.0 117.0Q1000 123 988 127V126Z" />
  </g>
</svg>