<svg xmlns="http://www.w3.org/2000/svg" viewBox="100 -224 1723 1034">
  <g transform="translate(0, 586) scale(1, -1)">
    <path fill="black" d="M492 -193Q492 -170 490.5 -148.0Q489 -126 487 -105Q405 -115 342.0 -125.0Q279 -135 241 -146Q253 -95 253 -41Q253 13 241 70Q276 60 331.5 50.5Q387 41 458 32Q443 83 426.5 122.5Q410 162 399 185Q428 181 456.5 178.5Q485 176 515 176Q540 176 565.0 178.0Q590 180 615 185Q605 161 587.0 119.5Q569 78 553 21Q643 11 745.0 3.0Q847 -5 954.5 -11.5Q1062 -18 1168.0 -21.5Q1274 -25 1371 -25H1701Q1697 195 1678.0 378.5Q1659 562 1634 689H1369Q1267 689 1154.0 685.0Q1041 681 926.5 674.5Q812 668 704.0 659.0Q596 650 501.5 639.0Q407 628 335.0 617.0Q263 606 221 594Q233 645 233 699Q233 753 221 810Q262 799 332.5 787.5Q403 776 495.5 765.0Q588 754 694.0 745.0Q800 736 912.5 729.5Q1025 723 1137.0 719.0Q1249 715 1351 715H1629Q1624 741 1618.0 764.0Q1612 787 1607 806Q1658 794 1712 794Q1766 794 1823 806Q1800 723 1778.0 586.0Q1756 449 1742.0 271.5Q1728 94 1728 -112H1702V-51H1389Q1287 -51 1175.5 -54.5Q1064 -58 950.0 -65.0Q836 -72 728.5 -80.5Q621 -89 528 -100Q522 -143 522 -193ZM1098 16Q1098 45 1097.5 77.0Q1097 109 1097 143Q1022 143 969.0 141.0Q916 139 875.5 134.5Q835 130 800.5 123.5Q766 117 728 106Q730 121 731.5 132.5Q733 144 733 155Q733 173 730 194H728L729 199L728 204L729 203Q731 214 732.0 224.5Q733 235 733 245Q733 254 732.0 263.0Q731 272 730 282H728L729 287L728 292L729 291Q731 302 732.0 312.5Q733 323 733 333Q733 342 732.0 351.0Q731 360 730 371H728L729 375L728 380L729 379Q732 403 732 421Q732 444 728 469Q765 458 799.0 451.0Q833 444 871.5 439.5Q910 435 961.5 433.5Q1013 432 1084 432Q1079 495 1070.0 552.5Q1061 610 1047 655Q1063 653 1079.5 651.5Q1096 650 1112 650Q1124 650 1135.5 650.5Q1147 651 1159 652V655L1167 653L1176 655L1175 652Q1187 651 1199.0 650.5Q1211 650 1222 650Q1234 650 1246.5 650.5Q1259 651 1271 652V655L1279 653L1288 655L1287 652Q1298 651 1310.0 650.5Q1322 650 1334 650Q1346 650 1358.5 650.5Q1371 651 1383 652V655L1390 653L1399 655L1398 652Q1409 651 1421.0 650.5Q1433 650 1445 650Q1462 650 1478.5 651.5Q1495 653 1511 655Q1499 615 1490.5 556.0Q1482 497 1476.0 427.0Q1470 357 1466.5 284.0Q1463 211 1461.5 142.0Q1460 73 1460 16H1434Q1434 82 1433.0 162.0Q1432 242 1427.5 325.0Q1423 408 1414.0 485.0Q1405 562 1390 623Q1378 568 1369.5 492.0Q1361 416 1356.5 331.0Q1352 246 1350.0 164.0Q1348 82 1348 16H1322Q1322 82 1321.0 162.0Q1320 242 1315.5 325.0Q1311 408 1302.5 485.0Q1294 562 1279 623Q1266 568 1258.0 492.0Q1250 416 1245.0 331.0Q1240 246 1238.0 164.0Q1236 82 1236 16H1210Q1210 82 1209.0 162.0Q1208 242 1203.5 325.0Q1199 408 1190.5 485.0Q1182 562 1167 623Q1155 568 1146.5 492.0Q1138 416 1133.5 331.0Q1129 246 1127.0 164.0Q1125 82 1125 16ZM195 -224Q191 -45 177.0 109.5Q163 264 143.0 387.5Q123 511 100 594Q151 582 205 582Q259 582 316 594Q293 511 273.0 385.5Q253 260 239.5 105.0Q226 -50 221 -224ZM1090 343Q1090 360 1089.0 376.0Q1088 392 1086 408Q996 408 937.0 405.0Q878 402 834.0 395.0Q790 388 746 375Q791 363 835.0 356.0Q879 349 939.0 346.0Q999 343 1090 343ZM1095 255 1092 319Q1023 319 972.5 317.0Q922 315 883.5 311.5Q845 308 812.5 302.0Q780 296 746 287Q780 278 813.0 271.5Q846 265 884.5 261.5Q923 258 974.0 256.5Q1025 255 1095 255ZM1097 167 1096 231Q1026 231 975.0 229.0Q924 227 885.0 223.5Q846 220 813.0 214.0Q780 208 746 199Q780 190 813.0 183.5Q846 177 885.0 173.5Q924 170 975.5 168.5Q1027 167 1097 167Z" />
  </g>
</svg>