<svg xmlns="http://www.w3.org/2000/svg" viewBox="100 -224 1403 1034">
  <g transform="translate(0, 586) scale(1, -1)">
    <path fill="black" d="M492 -193Q492 -170 490.5 -148.0Q489 -126 487 -105Q405 -115 342.0 -125.0Q279 -135 241 -146Q253 -95 253 -41Q253 13 241 70Q276 60 331.5 50.5Q387 41 458 32Q443 83 426.5 122.5Q410 162 399 185Q428 181 456.5 178.5Q485 176 515 176Q540 176 565.0 178.0Q590 180 615 185Q605 161 587.0 119.5Q569 78 553 21Q643 11 745.0 3.0Q847 -5 954.5 -11.5Q1062 -18 1168.0 -21.5Q1274 -25 1371 -25H1381Q1377 195 1358.0 378.5Q1339 562 1314 689Q1193 688 1061.5 682.0Q930 676 801.0 666.5Q672 657 558.0 645.0Q444 633 356.5 620.0Q269 607 221 594Q233 645 233 699Q233 753 221 810Q268 797 355.0 783.5Q442 770 555.5 758.5Q669 747 797.0 737.5Q925 728 1056.5 722.0Q1188 716 1309 715Q1303 741 1297.5 764.0Q1292 787 1287 806Q1338 794 1392 794Q1446 794 1503 806Q1480 723 1458.0 586.0Q1436 449 1422.0 271.5Q1408 94 1408 -112H1382V-51Q1281 -51 1170.0 -55.0Q1059 -59 946.0 -65.5Q833 -72 726.5 -81.0Q620 -90 528 -100Q522 -143 522 -193ZM1194 332Q1194 354 1193.5 374.0Q1193 394 1192 413Q1127 406 1078.0 397.5Q1029 389 991 373Q993 384 994.0 395.0Q995 406 995 418Q995 429 994.0 441.0Q993 453 991 464Q1022 451 1075.0 439.5Q1128 428 1192 424Q1190 465 1186.5 499.0Q1183 533 1178 562Q1117 555 1071.5 546.5Q1026 538 991 524Q993 534 994.0 545.0Q995 556 995 568Q995 579 994.0 591.0Q993 603 991 615Q1020 602 1068.5 591.5Q1117 581 1175 576Q1171 601 1166.5 622.0Q1162 643 1157 659Q1167 657 1177.5 656.0Q1188 655 1198 655Q1209 655 1219.5 656.0Q1230 657 1241 659Q1228 611 1216.0 531.0Q1204 451 1204 332ZM975 493Q959 510 929.0 526.0Q899 542 874 555Q884 560 894.5 567.0Q905 574 915 581Q879 578 838.5 574.5Q798 571 758.5 566.5Q719 562 688.0 556.5Q657 551 640 544Q643 565 643 589Q643 613 640 635Q655 629 688.5 623.0Q722 617 766.0 611.5Q810 606 854.0 602.0Q898 598 934 596Q939 601 944.0 605.5Q949 610 954 615Q958 588 964.0 553.0Q970 518 984 499ZM195 -224Q191 -45 177.0 109.5Q163 264 143.0 387.5Q123 511 100 594Q151 582 205 582Q259 582 316 594Q293 511 273.0 385.5Q253 260 239.5 105.0Q226 -50 221 -224ZM982 312Q967 329 942.5 345.0Q918 361 890.5 375.5Q863 390 840 401Q854 407 868.0 415.5Q882 424 895 434Q879 451 849.0 467.5Q819 484 794 497Q814 506 834.5 520.5Q855 535 873 554Q878 527 884.5 493.0Q891 459 904 440Q916 450 928.5 460.5Q941 471 952 483Q956 458 960.5 427.0Q965 396 973.0 367.5Q981 339 993 322ZM815 375Q805 386 789.5 396.0Q774 406 757 416Q711 409 684.5 399.0Q658 389 640 378Q643 399 643 423Q643 445 640 469Q654 461 670.0 452.5Q686 444 713 438Q755 457 793 496Q798 468 804.0 434.0Q810 400 823 382ZM748 14Q748 49 746.0 89.0Q744 129 740.0 166.0Q736 203 731.0 230.0Q726 257 720 266Q727 265 735.0 264.5Q743 264 752 264Q760 264 768.5 264.5Q777 265 785 266Q785 272 785.0 278.5Q785 285 783 291Q792 288 823.0 284.5Q854 281 898.5 278.0Q943 275 993.0 273.0Q1043 271 1089 270Q1087 278 1084.5 286.0Q1082 294 1079 301Q1090 300 1102.0 298.5Q1114 297 1125 297Q1137 297 1149.0 298.5Q1161 300 1174 301Q1159 261 1145.5 188.0Q1132 115 1132 14H1121Q1121 80 1115 134Q1030 133 978.0 127.0Q926 121 903 113Q906 130 905 147Q899 137 892.5 124.0Q886 111 881.5 85.5Q877 60 877 14H869Q869 54 866.0 77.5Q863 101 858.0 114.0Q853 127 847 137Q836 90 836 14H827Q827 68 822.0 106.0Q817 144 809 167Q804 136 800.5 95.5Q797 55 797 14H789Q789 67 784.0 118.0Q779 169 771 201Q765 161 761.0 109.5Q757 58 757 14ZM1100 226Q1099 236 1096.5 245.0Q1094 254 1092 262Q1046 261 996.5 259.0Q947 257 902.0 254.5Q857 252 825.5 248.5Q794 245 783 241Q784 246 784.5 252.0Q785 258 785 265Q781 258 776 231H790Q799 231 808.0 231.5Q817 232 826 233Q826 238 825.5 241.0Q825 244 824 248Q833 245 860.5 241.5Q888 238 927.0 234.5Q966 231 1011.0 229.0Q1056 227 1100 226ZM1108 183 1102 219Q1044 218 985.0 215.0Q926 212 882.5 207.5Q839 203 824 198Q826 203 826.0 209.5Q826 216 826 223V231Q819 220 813 189H830Q838 189 847.0 189.5Q856 190 864 191Q864 196 862 204Q875 200 911.5 195.0Q948 190 999.5 187.0Q1051 184 1108 183ZM873 146Q881 146 889.5 146.5Q898 147 905 148Q905 153 903 163Q874 158 862 154Q864 159 864.0 165.5Q864 172 864 178V190Q856 176 849 147Q855 146 860.5 146.0Q866 146 873 146ZM1114 141Q1113 150 1112.0 159.0Q1111 168 1110 176Q1049 175 994.0 171.5Q939 168 904 163Q923 156 976.5 149.0Q1030 142 1114 141Z" />
  </g>
</svg>