<svg xmlns="http://www.w3.org/2000/svg" viewBox="100 -224 1403 1034">
  <g transform="translate(0, 586) scale(1, -1)">
    <path fill="black" d="M492 -193Q492 -170 490.5 -148.0Q489 -126 487 -105Q405 -115 342.0 -125.0Q279 -135 241 -146Q253 -95 253 -41Q253 13 241 70Q276 60 331.5 50.5Q387 41 458 32Q443 83 426.5 122.5Q410 162 399 185Q428 181 456.5 178.5Q485 176 515 176Q540 176 565.0 178.0Q590 180 615 185Q605 161 587.0 119.5Q569 78 553 21Q643 11 745.0 3.0Q847 -5 954.5 -11.5Q1062 -18 1168.0 -21.5Q1274 -25 1371 -25H1381Q1377 195 1358.0 378.5Q1339 562 1314 689Q1193 688 1061.5 682.0Q930 676 801.0 666.5Q672 657 558.0 645.0Q444 633 356.5 620.0Q269 607 221 594Q233 645 233 699Q233 753 221 810Q268 797 355.0 783.5Q442 770 555.5 758.5Q669 747 797.0 737.5Q925 728 1056.5 722.0Q1188 716 1309 715Q1303 741 1297.5 764.0Q1292 787 1287 806Q1338 794 1392 794Q1446 794 1503 806Q1480 723 1458.0 586.0Q1436 449 1422.0 271.5Q1408 94 1408 -112H1382V-51Q1281 -51 1170.0 -55.0Q1059 -59 946.0 -65.5Q833 -72 726.5 -81.0Q620 -90 528 -100Q522 -143 522 -193ZM1194 332Q1194 354 1193.5 374.0Q1193 394 1192 413Q1127 406 1078.0 397.5Q1029 389 991 373Q993 384 994.0 395.0Q995 406 995 418Q995 429 994.0 441.0Q993 453 991 464Q1022 451 1075.0 439.5Q1128 428 1192 424Q1190 465 1186.5 499.0Q1183 533 1178 562Q1117 555 1071.5 546.5Q1026 538 991 524Q993 534 994.0 545.0Q995 556 995 568Q995 579 994.0 591.0Q993 603 991 615Q1020 602 1068.5 591.5Q1117 581 1175 576Q1171 601 1166.5 622.0Q1162 643 1157 659Q1167 657 1177.5 656.0Q1188 655 1198 655Q1209 655 1219.5 656.0Q1230 657 1241 659Q1228 611 1216.0 531.0Q1204 451 1204 332ZM975 493Q959 510 929.0 526.0Q899 542 874 555Q884 560 894.5 567.0Q905 574 915 581Q879 578 838.5 574.5Q798 571 758.5 566.5Q719 562 688.0 556.5Q657 551 640 544Q643 565 643 589Q643 613 640 635Q655 629 688.5 623.0Q722 617 766.0 611.5Q810 606 854.0 602.0Q898 598 934 596Q939 601 944.0 605.5Q949 610 954 615Q958 588 964.0 553.0Q970 518 984 499ZM195 -224Q191 -45 177.0 109.5Q163 264 143.0 387.5Q123 511 100 594Q151 582 205 582Q259 582 316 594Q293 511 273.0 385.5Q253 260 239.5 105.0Q226 -50 221 -224ZM982 312Q967 329 942.5 345.0Q918 361 890.5 375.5Q863 390 840 401Q854 407 868.0 415.5Q882 424 895 434Q879 451 849.0 467.5Q819 484 794 497Q814 506 835.0 521.0Q856 536 874 555Q879 528 885.0 493.5Q891 459 904 440Q916 450 928.5 460.5Q941 471 952 483Q956 458 960.5 427.0Q965 396 973.0 367.5Q981 339 993 322ZM815 375Q805 386 789.5 396.0Q774 406 757 416Q711 409 684.5 399.0Q658 389 640 378Q643 399 643 423Q643 445 640 469Q654 461 670.0 452.5Q686 444 713 438Q755 457 794 497Q799 469 804.5 434.5Q810 400 823 382ZM804 10Q801 48 799.0 78.0Q797 108 795 132Q767 130 747.0 127.0Q727 124 722 121Q723 132 723.5 141.5Q724 151 724 161Q724 170 723.5 179.0Q723 188 722 196Q728 193 746.0 190.0Q764 187 790 184Q786 219 781.0 244.0Q776 269 768 296Q776 294 785.0 293.0Q794 292 803 292Q812 292 821.5 293.0Q831 294 840 296V293Q857 296 873.5 301.0Q890 306 903 311Q902 307 902 295Q902 275 906.0 242.5Q910 210 916 174Q943 172 970.5 170.5Q998 169 1024 167Q1009 189 992.5 212.5Q976 236 971 242Q980 245 988.0 248.5Q996 252 1004 258Q1004 253 1009.0 237.5Q1014 222 1020.5 203.0Q1027 184 1033 167Q1045 166 1053.0 165.5Q1061 165 1070 165Q1060 182 1047.0 202.0Q1034 222 1023.5 238.0Q1013 254 1009 258Q1017 261 1025.0 264.5Q1033 268 1040 274Q1041 269 1047.5 249.0Q1054 229 1063.0 205.5Q1072 182 1079 164L1118 162Q1107 180 1091.5 204.5Q1076 229 1063.0 249.5Q1050 270 1045 274Q1054 277 1062.0 280.5Q1070 284 1077 290Q1078 285 1087.0 261.0Q1096 237 1107.0 209.0Q1118 181 1125 162L1150 161L1151 162L1153 161Q1159 160 1162.0 160.0Q1165 160 1166 160Q1159 171 1146.5 191.0Q1134 211 1120.5 232.5Q1107 254 1096.5 270.5Q1086 287 1083 290Q1092 293 1100.0 296.5Q1108 300 1115 306Q1115 302 1122.0 283.0Q1129 264 1139.0 239.5Q1149 215 1158.0 193.0Q1167 171 1171 160V152H1157Q1138 105 1135.0 77.5Q1132 50 1129 25Q1110 42 1089.0 54.0Q1068 66 1047 75Q1067 88 1089.0 102.5Q1111 117 1142 151L1058 148Q1042 105 1038.0 77.0Q1034 49 1032 25Q1013 42 992.0 54.0Q971 66 949 75Q968 87 989.5 102.0Q1011 117 1039 147L921 141Q927 107 932.5 76.5Q938 46 940 26L933 25L894 139Q874 138 854.5 137.0Q835 136 818 134Q817 109 815.5 78.5Q814 48 813 10ZM880 176Q868 210 856.5 238.5Q845 267 837 282Q827 242 821 181Q835 180 849.5 179.0Q864 178 880 176Z" />
  </g>
</svg>