<svg xmlns="http://www.w3.org/2000/svg" viewBox="100 -110 1195 1044">
  <g transform="translate(0, 824) scale(1, -1)">
    <path fill="black" d="M848 -110V66Q848 263 833.0 429.5Q818 596 795.5 724.5Q773 853 750 934Q779 928 810.0 925.0Q841 922 868 922Q895 922 927.5 925.0Q960 928 985 934Q973 889 960.0 830.0Q947 771 935 699Q981 669 1034.0 636.0Q1087 603 1137.5 574.0Q1188 545 1229.5 525.0Q1271 505 1295 499Q1273 480 1255.5 455.0Q1238 430 1221 398Q1211 416 1181.0 447.5Q1151 479 1109.0 517.5Q1067 556 1020.5 596.5Q974 637 931 673Q927 648 923.5 622.5Q920 597 917 570Q959 534 1009.0 494.0Q1059 454 1108.5 417.5Q1158 381 1198.5 354.5Q1239 328 1262 319Q1237 303 1216.5 280.5Q1196 258 1176 228Q1168 247 1141.0 283.0Q1114 319 1075.5 364.0Q1037 409 995.0 456.0Q953 503 914 543Q910 509 906.5 474.0Q903 439 900 401Q942 365 992.5 324.0Q1043 283 1092.5 245.5Q1142 208 1183.0 181.0Q1224 154 1248 145Q1223 128 1203.0 105.5Q1183 83 1163 53Q1154 72 1126.5 109.0Q1099 146 1060.5 192.0Q1022 238 979.5 285.5Q937 333 898 373Q896 339 894.0 303.5Q892 268 890 230Q932 194 979.5 155.0Q1027 116 1073.5 81.5Q1120 47 1158.5 21.5Q1197 -4 1220 -13Q1195 -29 1174.5 -51.0Q1154 -73 1133 -103Q1126 -85 1101.0 -51.0Q1076 -17 1041.0 25.5Q1006 68 966.5 113.0Q927 158 889 198Q888 166 887.5 133.0Q887 100 887 66V-110ZM508 -110V66Q508 100 507.5 133.0Q507 166 506 198Q468 158 428.5 113.0Q389 68 354.0 25.5Q319 -17 294.5 -51.0Q270 -85 262 -103Q241 -73 220.5 -51.0Q200 -29 175 -13Q198 -4 236.5 21.5Q275 47 321.5 81.5Q368 116 415.5 155.0Q463 194 505 230Q504 268 501.5 303.5Q499 339 497 373Q458 333 415.5 285.5Q373 238 334.5 192.0Q296 146 268.5 109.0Q241 72 232 53Q212 83 192.0 105.5Q172 128 147 145Q171 154 212.0 181.0Q253 208 302.5 245.5Q352 283 402.5 324.0Q453 365 495 401Q492 439 488.5 474.0Q485 509 481 543Q442 503 400.0 456.0Q358 409 319.5 364.0Q281 319 254.0 283.0Q227 247 219 228Q199 258 178.5 280.5Q158 303 133 319Q156 328 196.5 354.5Q237 381 286.5 417.5Q336 454 386.0 494.0Q436 534 478 570Q475 597 471.5 622.5Q468 648 464 673Q421 637 374.5 596.5Q328 556 286.0 517.5Q244 479 214.0 447.5Q184 416 174 398Q158 430 140.5 455.0Q123 480 100 499Q124 505 165.5 525.0Q207 545 257.5 574.0Q308 603 361.0 636.0Q414 669 460 699Q448 771 435.0 830.0Q422 889 410 934Q436 928 468.0 925.0Q500 922 527 922Q554 922 585.5 925.0Q617 928 645 934Q623 853 600.0 724.5Q577 596 562.0 429.5Q547 263 547 66V-110Z" />
  </g>
</svg>