<svg xmlns="http://www.w3.org/2000/svg" viewBox="100 -256 1806 1239">
  <g transform="translate(0, 727) scale(1, -1)">
    <path fill="black" d="M956 -256Q860 -171 788.5 -111.0Q717 -51 663.0 -8.5Q609 34 565 63Q463 52 383.5 39.5Q304 27 260 15Q272 67 271.5 122.0Q271 177 260 231Q304 219 381.5 206.5Q459 194 559 183Q567 192 573.5 201.0Q580 210 586 220L604 191Q657 231 745 318Q666 377 607.5 416.5Q549 456 531 460L574 504L513 497L486 471L464 490L465 491Q402 483 351.5 474.5Q301 466 268 457Q255 359 244.0 242.0Q233 125 227 0H189Q182 150 168.0 287.5Q154 425 136.5 534.5Q119 644 100 710Q152 698 207.0 698.5Q262 699 316 710L304 661Q353 651 423.0 640.5Q493 630 578 621Q651 706 699.5 767.5Q748 829 780.5 877.5Q813 926 836 970Q858 933 884.0 906.0Q910 879 940 860L911 842Q936 811 981.0 762.0Q1026 713 1082 655Q1135 710 1180.5 757.5Q1226 805 1259 839Q1222 862 1191 879Q1228 901 1255.0 927.0Q1282 953 1301 983Q1327 940 1354.5 902.5Q1382 865 1419.0 821.5Q1456 778 1510.5 719.5Q1565 661 1645 576H1719Q1705 656 1690 710Q1742 698 1797.0 698.5Q1852 699 1906 710Q1888 644 1870.0 534.5Q1852 425 1838.0 287.5Q1824 150 1817 0H1779L1773 110H1649Q1614 86 1578.0 57.0Q1542 28 1497.5 -11.5Q1453 -51 1393.0 -107.5Q1333 -164 1249 -244L1227 -225Q1251 -198 1273.0 -172.5Q1295 -147 1315 -124Q1284 -98 1235.5 -59.5Q1187 -21 1128 25Q1070 -54 1030.5 -112.5Q991 -171 986 -189Q920 -120 859 -78Q879 -69 930.0 -23.5Q981 22 1048 87L1033 99Q949 95 866.5 89.5Q784 84 706 77L700 63Q743 12 807.5 -57.0Q872 -126 975 -234ZM1526 576 1556 607Q1462 688 1396.0 740.5Q1330 793 1277 827Q1247 790 1204.5 737.5Q1162 685 1113 623L1155 581Q1207 579 1259.5 577.5Q1312 576 1376.0 576.0Q1440 576 1526 576ZM1015 587Q933 649 870.0 692.5Q807 736 783 746Q754 721 718.5 689.0Q683 657 638 615Q725 607 821.0 599.5Q917 592 1015 587ZM1554 576H1592L1570 595ZM1348 391 1501 550Q1421 550 1366.0 549.5Q1311 549 1269.5 548.5Q1228 548 1190 546Q1270 466 1348 391ZM1689 136H1771Q1763 253 1750.5 359.0Q1738 465 1724 550H1670L1690 529L1671 507L1622 550H1533Q1503 513 1464.5 463.5Q1426 414 1382 358Q1435 307 1480.5 263.0Q1526 219 1559 187Q1582 224 1599 255Q1621 218 1647.0 191.0Q1673 164 1703 145ZM1104 143Q1155 193 1208.5 248.0Q1262 303 1314 356Q1256 402 1195.0 449.5Q1134 497 1075 541L1048 540Q960 429 881 324Q925 280 971.0 234.5Q1017 189 1063 144ZM817 388Q853 423 890.5 460.5Q928 498 965 536Q896 532 828.5 526.5Q761 521 697 516Q720 490 751.0 457.0Q782 424 817 388ZM1525 136 1547 169Q1513 198 1463.0 238.0Q1413 278 1355 324Q1320 278 1284.0 231.5Q1248 185 1213 139Q1250 138 1290.0 137.5Q1330 137 1386.0 136.5Q1442 136 1525 136ZM968 149Q934 176 899.0 203.0Q864 230 829 255Q811 230 794.0 207.0Q777 184 763 164Q813 160 864.5 156.0Q916 152 968 149ZM1327 -110Q1387 -41 1430.5 13.0Q1474 67 1506 110Q1424 110 1367.0 109.5Q1310 109 1268.5 108.5Q1227 108 1188 106L1152 58Q1206 6 1251.5 -37.5Q1297 -81 1327 -110Z" />
  </g>
</svg>