<svg xmlns="http://www.w3.org/2000/svg" viewBox="100 -100 2077 891">
  <g transform="translate(0, 691) scale(1, -1)">
    <path fill="black" d="M688 -100Q671 -62 652.5 -35.0Q634 -8 609 15Q618 19 630.5 25.0Q643 31 659 39Q658 47 656.5 57.0Q655 67 655 79Q529 78 440.5 69.0Q352 60 290.5 44.5Q229 29 184.0 11.0Q139 -7 100 -26Q104 -1 106.0 26.5Q108 54 108 82Q108 110 106.0 138.5Q104 167 100 195Q133 179 177.0 162.5Q221 146 284.0 133.0Q347 120 437.0 112.0Q527 104 652 104Q649 145 645.0 197.5Q641 250 637.5 306.5Q634 363 630.0 417.0Q626 471 622 516Q507 514 424.5 504.0Q342 494 283.5 479.5Q225 465 181.5 447.5Q138 430 100 412Q104 437 106.0 464.5Q108 492 108 520Q108 548 106.0 576.5Q104 605 100 633Q143 612 209.5 591.0Q276 570 376.5 555.5Q477 541 621 538Q618 572 614.5 595.5Q611 619 609 627Q624 624 638.5 622.0Q653 620 669 620Q678 620 687.5 620.5Q697 621 706 623Q675 643 650.0 656.5Q625 670 609 676Q634 700 652.5 727.0Q671 754 688 791Q697 774 725.0 741.5Q753 709 793.0 667.5Q833 626 879.0 580.5Q925 535 971.0 491.0Q1017 447 1056.0 409.5Q1095 372 1121 346Q1095 320 1056.0 282.5Q1017 245 971.0 200.5Q925 156 879.0 110.5Q833 65 793.0 23.5Q753 -18 725.0 -50.0Q697 -82 688 -100ZM1186 -62Q1182 117 1168.0 271.5Q1154 426 1134.0 549.5Q1114 673 1091 756Q1142 744 1196 744Q1250 744 1307 756Q1306 750 1304.0 743.5Q1302 737 1300 730Q1346 719 1417.5 707.0Q1489 695 1579.5 684.0Q1670 673 1773.5 663.5Q1877 654 1986 648Q1980 678 1974.0 705.0Q1968 732 1961 756Q2012 744 2066 744Q2120 744 2177 756Q2154 673 2134.0 547.5Q2114 422 2100.5 267.0Q2087 112 2082 -62H2056Q2055 -29 2054.5 3.0Q2054 35 2052 66Q1924 61 1800.0 51.5Q1676 42 1567.5 29.5Q1459 17 1374.5 3.5Q1290 -10 1240 -23Q1252 25 1252 77Q1252 129 1240 183Q1290 170 1374.0 156.0Q1458 142 1566.5 129.0Q1675 116 1798.5 106.5Q1922 97 2050 92Q2043 245 2028.0 376.5Q2013 508 1994 611Q1880 604 1773.0 594.5Q1666 585 1573.0 574.0Q1480 563 1407.5 551.0Q1335 539 1290 527Q1302 575 1302 627Q1302 647 1300.5 667.5Q1299 688 1295 708Q1275 622 1257.5 502.5Q1240 383 1228.0 240.0Q1216 97 1212 -62ZM670 46Q714 72 771.5 111.0Q829 150 889.5 194.0Q950 238 1003.5 278.5Q1057 319 1094 347Q1062 371 1016.5 405.0Q971 439 919.0 476.5Q867 514 814.5 550.5Q762 587 717 616Q713 596 709.0 554.5Q705 513 700.5 458.0Q696 403 691.5 343.0Q687 283 683.0 226.0Q679 169 676.0 121.5Q673 74 670 46ZM1538 150Q1544 176 1544 202Q1544 229 1538 257Q1553 252 1572 249Q1569 289 1562.5 321.0Q1556 353 1547 386Q1552 385 1558.0 384.0Q1564 383 1570 382Q1563 490 1547 548Q1555 547 1563.5 545.5Q1572 544 1580 544Q1589 544 1597.5 545.5Q1606 547 1616 548Q1624 547 1632.5 545.5Q1641 544 1649 544Q1664 544 1677 547V548L1681 547L1685 548V546Q1691 545 1696.5 544.5Q1702 544 1709 544Q1723 544 1739 547L1738 548L1742 547L1747 548L1746 546Q1752 545 1758.5 544.5Q1765 544 1771 544Q1780 544 1789.0 545.5Q1798 547 1808 548Q1795 502 1787.5 419.5Q1780 337 1779 222Q1831 218 1879.5 215.0Q1928 212 1965 211Q1913 257 1871.0 289.5Q1829 322 1788 342Q1814 357 1836 378Q1834 435 1826.5 476.5Q1819 518 1808 558Q1816 557 1824.5 555.5Q1833 554 1842 554Q1851 554 1860.0 555.5Q1869 557 1878 558Q1868 520 1860.5 482.0Q1853 444 1851 393Q1855 398 1858.5 402.5Q1862 407 1866 412Q1881 370 1918.5 312.0Q1956 254 2010 188L2001 179L1982 196Q1938 196 1877.5 192.5Q1817 189 1752.5 183.0Q1688 177 1631.0 168.5Q1574 160 1538 150ZM1644 237Q1643 345 1635.5 423.5Q1628 502 1616 546Q1609 518 1603.0 477.0Q1597 436 1594 382Q1599 383 1605.0 384.0Q1611 385 1617 386Q1607 352 1600.5 319.0Q1594 286 1591 245Q1603 244 1616.5 241.5Q1630 239 1644 237ZM1767 223Q1766 328 1759.5 406.0Q1753 484 1742 531Q1732 484 1725.5 408.0Q1719 332 1718 228ZM1705 229Q1704 333 1698.0 409.0Q1692 485 1681 531Q1671 485 1664.5 410.5Q1658 336 1657 235Z" />
  </g>
</svg>