<svg xmlns="http://www.w3.org/2000/svg" viewBox="100 -230 1897 1162">
  <g transform="translate(0, 702) scale(1, -1)">
    <path fill="black" d="M1128 -230Q1096 -187 1071.5 -159.0Q1047 -131 1023.5 -109.5Q1000 -88 970.0 -63.5Q940 -39 898 -4Q882 -18 868.5 -30.5Q855 -43 844 -54Q815 36 748 117Q547 209 379.0 267.5Q211 326 100 348Q117 368 132.0 390.0Q147 412 159 436Q171 459 181.0 485.5Q191 512 198 540L199 539Q204 564 207.0 589.0Q210 614 210 640Q210 694 198 751Q243 739 321.5 726.5Q400 714 503.0 702.5Q606 691 722 682Q705 695 686.5 705.5Q668 716 651 723Q671 738 691.5 751.5Q712 765 739.5 785.5Q767 806 806.5 840.5Q846 875 902 932L928 913Q901 876 883.5 847.0Q866 818 853.5 793.0Q841 768 829.5 740.0Q818 712 803 676Q935 667 1070.5 661.5Q1206 656 1328 656H1744Q1731 685 1712.0 712.5Q1693 740 1674 753Q1728 768 1766.0 778.0Q1804 788 1835.0 798.0Q1866 808 1900.0 823.5Q1934 839 1981 865L1997 837Q1957 807 1915.0 770.5Q1873 734 1840.5 700.5Q1808 667 1793 647Q1802 624 1808.5 600.0Q1815 576 1826.0 543.5Q1837 511 1858.0 463.0Q1879 415 1916 344L1890 325Q1860 366 1836.5 393.0Q1813 420 1790.0 441.0Q1767 462 1740.0 484.5Q1713 507 1675 538Q1567 472 1455.5 399.0Q1344 326 1240.0 253.5Q1136 181 1049.5 116.0Q963 51 905 2Q937 11 973.0 37.5Q1009 64 1031 92Q1040 69 1046.5 45.0Q1053 21 1064.0 -11.5Q1075 -44 1096.0 -92.0Q1117 -140 1154 -211ZM1612 537Q1650 557 1687.0 578.0Q1724 599 1758 618Q1757 621 1756.5 624.0Q1756 627 1754 630H1612ZM1512 483 1590 525V630H1512ZM1412 432Q1432 442 1451.5 452.0Q1471 462 1490 472V630H1412ZM1312 381 1390 420V630H1312ZM1212 333Q1232 342 1251.5 351.5Q1271 361 1290 370V630Q1271 629 1251.5 629.0Q1232 629 1212 628ZM1112 286Q1131 294 1151.0 303.5Q1171 313 1190 322V628Q1171 627 1151.5 626.5Q1132 626 1112 626ZM1012 240 1090 275V625Q1071 624 1051.5 623.5Q1032 623 1012 621ZM912 197Q931 205 950.5 213.5Q970 222 990 231V620Q971 619 951.5 618.5Q932 618 912 616ZM812 158 890 188V615Q871 614 851.5 613.0Q832 612 812 610ZM773 145 790 150V608L712 602V180Q744 162 773 145ZM690 194V601Q671 599 651.0 597.5Q631 596 612 594V241Q631 229 650.5 217.5Q670 206 690 194ZM590 255V592Q570 590 550.5 588.0Q531 586 512 584V305ZM490 320V581L412 572V373ZM390 389V569Q369 567 349.5 564.0Q330 561 312 558V446Q348 419 390 389ZM290 463V554Q264 550 241.5 545.5Q219 541 202 536Q221 520 243.0 501.5Q265 483 290 463Z" />
  </g>
</svg>