<svg xmlns="http://www.w3.org/2000/svg" viewBox="100 -252 591 1373">
  <g transform="translate(0, 869) scale(1, -1)">
    <path fill="black" d="M435 448Q416 474 396.0 491.0Q376 508 352 521L360 526Q315 568 265.0 611.0Q215 654 171.0 688.5Q127 723 100 736Q135 755 163 786Q149 801 133.5 813.0Q118 825 100 835Q127 848 171.0 882.0Q215 916 265.0 959.5Q315 1003 360 1044L352 1048Q376 1062 396.0 1079.0Q416 1096 435 1121Q442 1104 462.5 1073.5Q483 1043 512.5 1005.0Q542 967 575.0 927.0Q608 887 638.5 850.0Q669 813 691 785Q669 757 638.5 720.0Q608 683 575.0 643.0Q542 603 512.5 564.5Q483 526 462.5 495.5Q442 465 435 448ZM384 540Q413 560 450.0 589.5Q487 619 526.5 653.5Q566 688 603.5 722.5Q641 757 670 785Q641 813 603.5 847.0Q566 881 526.0 915.5Q486 950 449.0 980.0Q412 1010 383 1029Q349 988 312.0 942.5Q275 897 243.5 855.5Q212 814 195 786Q212 757 243.5 715.0Q275 673 312.5 627.5Q350 582 384 540ZM269 744Q271 755 272.0 766.0Q273 777 273 788Q273 798 272.0 808.0Q271 818 269 828Q277 824 303.5 820.0Q330 816 366.0 811.5Q402 807 440.5 802.5Q479 798 513.0 794.5Q547 791 568 789V781Q546 778 511.5 774.5Q477 771 439.0 767.0Q401 763 365.0 759.0Q329 755 303.0 751.5Q277 748 269 744ZM435 -252Q416 -226 396.0 -209.0Q376 -192 352 -179L360 -174Q315 -132 265.0 -89.0Q215 -46 171.0 -11.5Q127 23 100 36Q135 55 163 86Q149 101 133.5 113.0Q118 125 100 135Q127 148 171.0 182.0Q215 216 265.0 259.5Q315 303 360 344L352 348Q376 362 396.0 379.0Q416 396 435 421Q442 404 462.5 373.5Q483 343 512.5 305.0Q542 267 575.0 227.0Q608 187 638.5 150.0Q669 113 691 85Q669 57 638.5 20.0Q608 -17 575.0 -57.0Q542 -97 512.5 -135.5Q483 -174 462.5 -204.5Q442 -235 435 -252ZM384 -160Q413 -140 450.0 -110.5Q487 -81 526.5 -46.5Q566 -12 603.5 22.5Q641 57 670 85Q641 113 603.5 147.0Q566 181 526.0 215.5Q486 250 449.0 280.0Q412 310 383 329Q349 288 312.0 242.5Q275 197 243.5 155.5Q212 114 195 86Q212 57 243.5 15.0Q275 -27 312.5 -73.0Q350 -119 384 -160ZM269 44Q271 55 272.0 66.0Q273 77 273 88Q273 98 272.0 108.0Q271 118 269 128Q277 124 303.5 120.0Q330 116 366.0 111.5Q402 107 440.5 102.5Q479 98 513.0 94.5Q547 91 568 89V81Q546 78 511.5 74.5Q477 71 439.0 67.0Q401 63 365.0 59.0Q329 55 303.0 51.5Q277 48 269 44Z" />
  </g>
</svg>