<svg xmlns="http://www.w3.org/2000/svg" viewBox="100 -112 1679 878">
  <g transform="translate(0, 654) scale(1, -1)">
    <path fill="black" d="M728 -112V-71Q643 -30 544.0 12.0Q445 54 355 89Q354 55 352.0 28.0Q350 1 349 -15H330Q330 5 329.0 35.0Q328 65 326 100Q240 134 178.0 156.0Q116 178 100 179Q122 205 140.0 241.0Q158 277 169 308Q158 340 140.0 376.0Q122 412 100 437Q112 438 151.5 451.0Q191 464 249.0 485.5Q307 507 376.0 535.0Q445 563 518.0 594.0Q591 625 659 656Q653 688 646.5 715.0Q640 742 633 766Q684 754 738 754Q792 754 849 766Q843 745 837.5 721.5Q832 698 826 672Q844 667 890.0 661.0Q936 655 1001.5 648.0Q1067 641 1143.5 634.5Q1220 628 1300.5 622.5Q1381 617 1458.0 613.0Q1535 609 1599 608Q1581 701 1563 766Q1614 754 1668 754Q1722 754 1779 766Q1756 683 1734.0 556.0Q1712 429 1698.0 261.5Q1684 94 1684 -112H1658Q1658 -78 1657.5 -45.0Q1657 -12 1656 20Q1609 20 1544.0 17.0Q1479 14 1403.5 9.5Q1328 5 1250.0 -1.0Q1172 -7 1099.0 -13.5Q1026 -20 966.5 -26.0Q907 -32 868.0 -37.5Q829 -43 819 -47Q822 -28 824.5 -6.0Q827 16 827 39Q827 77 819 112Q830 107 877.5 100.5Q925 94 997.5 86.5Q1070 79 1156.5 72.0Q1243 65 1333.5 59.0Q1424 53 1507.5 49.5Q1591 46 1656 45Q1651 208 1636.5 342.5Q1622 477 1604 581Q1545 580 1467.5 576.0Q1390 572 1305.5 566.0Q1221 560 1139.5 553.0Q1058 546 989.5 539.0Q921 532 875.5 526.0Q830 520 819 515Q822 534 824.5 556.0Q827 578 827 601Q827 615 826.0 628.5Q825 642 823 655Q797 531 777.0 353.0Q757 175 754 -53Q773 -63 790.0 -72.5Q807 -82 822 -90L810 -111Q797 -104 783.0 -97.0Q769 -90 754 -83V-112ZM726 32Q725 58 724.5 82.5Q724 107 722 132Q692 150 650.5 173.5Q609 197 563.5 219.5Q518 242 477.0 258.5Q436 275 408 280Q427 300 439.0 319.5Q451 339 464 367L461 368Q481 389 493.0 408.5Q505 428 518 458Q533 437 565.5 408.0Q598 379 637.5 348.5Q677 318 711 293Q709 319 706.0 343.5Q703 368 701 392Q657 415 609.5 433.0Q562 451 519 458Q539 479 551.0 498.5Q563 518 576 548Q594 523 627.5 492.0Q661 461 696 432Q683 537 666 622Q605 586 538.5 544.5Q472 503 408.5 462.0Q345 421 294 386Q314 382 335 382Q359 382 392 388Q383 366 376.0 314.5Q369 263 364 204Q378 221 388.5 237.5Q399 254 409 279Q420 264 448.0 239.5Q476 215 513.5 186.0Q551 157 591.0 128.0Q631 99 667.0 74.0Q703 49 726 32ZM979 102Q981 113 982.5 125.0Q984 137 984 149Q984 161 982.5 173.5Q981 186 979 199Q1000 193 1041 188Q1040 242 1034.0 306.0Q1028 370 1019.5 429.0Q1011 488 1000 527Q1012 525 1023.5 523.5Q1035 522 1047 522Q1059 522 1071.5 523.5Q1084 525 1097 527Q1090 502 1083.0 461.0Q1076 420 1070.5 372.0Q1065 324 1061.5 275.5Q1058 227 1056 186Q1103 180 1162.5 175.0Q1222 170 1283.5 166.0Q1345 162 1399.0 159.5Q1453 157 1488 157Q1487 190 1485.0 230.5Q1483 271 1479 313Q1426 312 1361.0 306.0Q1296 300 1235.5 291.5Q1175 283 1135 272Q1137 283 1138.5 294.5Q1140 306 1140 319Q1140 331 1138.5 343.0Q1137 355 1135 368Q1146 365 1160.0 362.0Q1174 359 1190 356Q1188 412 1181.5 455.0Q1175 498 1165 527Q1173 526 1181.5 525.5Q1190 525 1198 525Q1206 525 1214.5 525.5Q1223 526 1230 527Q1211 469 1206 353Q1246 347 1294.0 341.0Q1342 335 1390.0 331.5Q1438 328 1478 327Q1472 384 1464.5 438.0Q1457 492 1446 527Q1457 525 1469.0 523.5Q1481 522 1493 522Q1505 522 1517.5 523.5Q1530 525 1543 527Q1536 500 1528.5 454.5Q1521 409 1515.0 355.0Q1509 301 1505.0 249.0Q1501 197 1501 157V144Q1470 144 1416.0 142.0Q1362 140 1297.5 136.5Q1233 133 1170.0 127.5Q1107 122 1056.0 116.0Q1005 110 979 102ZM317 216Q313 267 305.5 312.0Q298 357 288 382Q253 358 226.0 339.0Q199 320 185 308Q202 295 236.5 270.5Q271 246 317 216ZM721 158Q720 185 718.0 210.5Q716 236 714 261Q677 282 632.5 304.0Q588 326 544.5 343.5Q501 361 467 367Q481 349 511.5 322.0Q542 295 580.5 265.0Q619 235 656.0 207.0Q693 179 721 158ZM727 -38V6Q705 20 669.5 40.5Q634 61 591.5 84.0Q549 107 506.0 128.5Q463 150 425.5 166.0Q388 182 363 188V186Q420 150 483.0 110.0Q546 70 609.0 32.0Q672 -6 727 -38Z" />
  </g>
</svg>