<svg xmlns="http://www.w3.org/2000/svg" viewBox="100 87 1115 461">
  <g transform="translate(0, 635) scale(1, -1)">
    <path fill="black" d="M270 87Q275 130 277.5 173.5Q280 217 281 261Q226 246 177.5 227.5Q129 209 100 194Q105 220 107.5 249.0Q110 278 110 309Q110 338 107.5 368.5Q105 399 100 429Q129 414 177.5 396.0Q226 378 281 362Q280 408 277.5 454.5Q275 501 270 548Q318 519 386.5 489.0Q455 459 535.0 432.0Q615 405 700.0 383.5Q785 362 867.5 350.0Q950 338 1021 338H1215V297H1017Q945 297 863.5 285.0Q782 273 698.0 251.5Q614 230 534.5 203.0Q455 176 387.0 146.0Q319 116 270 87Z" />
  </g>
</svg>