<svg xmlns="http://www.w3.org/2000/svg" viewBox="100 -318 2259 1394">
  <g transform="translate(0, 758) scale(1, -1)">
    <path fill="black" d="M1274 -318Q1227 -267 1171 -239L1181 -233Q1139 -199 1093.5 -163.5Q1048 -128 1003.5 -96.0Q959 -64 921.5 -40.0Q884 -16 859 -5Q877 4 893.0 14.5Q909 25 924 37H845Q846 30 847.5 23.0Q849 16 850 8H835L827 37Q757 37 686.5 34.5Q616 32 547 27L550 8H535L530 26Q404 16 292.0 0.0Q180 -16 100 -38Q106 -12 109.0 8.5Q112 29 112 48Q112 68 109.0 89.0Q106 110 100 138Q146 125 214.0 114.0Q282 103 360.0 94.5Q438 86 515 79Q492 162 467.5 247.5Q443 333 418.5 412.0Q394 491 371.5 557.0Q349 623 331 666Q264 657 205.5 646.0Q147 635 100 622Q106 648 109.0 668.5Q112 689 112 708Q112 728 109.0 749.0Q106 770 100 798Q141 787 199.5 776.5Q258 766 326.0 758.0Q394 750 464.5 743.5Q535 737 601.0 732.5Q667 728 721.0 725.5Q775 723 810 723H922Q908 735 892.5 744.5Q877 754 859 763Q892 777 945.5 813.5Q999 850 1057 895Q1055 900 1053.0 904.0Q1051 908 1049 912Q1056 911 1062.5 910.0Q1069 909 1075 908Q1102 929 1128.5 950.0Q1155 971 1180 991L1171 996Q1201 1011 1225.0 1029.5Q1249 1048 1274 1076Q1282 1058 1307.5 1024.5Q1333 991 1369.0 950.0Q1405 909 1445.0 865.0Q1485 821 1522 782Q1579 771 1649.0 761.5Q1719 752 1793.5 745.0Q1868 738 1938.0 733.0Q2008 728 2065.5 725.5Q2123 723 2160 723H2359V697H2178Q2154 697 2130.0 697.0Q2106 697 2082 696Q2085 653 2096.0 585.0Q2107 517 2122.0 432.5Q2137 348 2154.5 253.5Q2172 159 2190 63H2359V37H2195L2200 8H2185L2177 37Q2107 37 2036.5 34.5Q1966 32 1897 27L1900 8H1885L1880 26Q1781 19 1690.5 7.0Q1600 -5 1526 -20Q1489 -60 1448.5 -104.0Q1408 -148 1371.0 -190.0Q1334 -232 1308.0 -266.0Q1282 -300 1274 -318ZM1210 442Q1242 461 1281.5 489.0Q1321 517 1363 548Q1363 550 1362.5 551.5Q1362 553 1362 554Q1334 549 1301.0 543.0Q1268 537 1242.0 531.0Q1216 525 1208 520Q1206 534 1201.0 554.5Q1196 575 1192 582Q1203 579 1232.5 574.0Q1262 569 1297.5 565.0Q1333 561 1360 560Q1356 577 1351.0 593.0Q1346 609 1341 625Q1314 621 1282.0 615.5Q1250 610 1224.5 605.0Q1199 600 1190 595Q1187 611 1184.0 625.0Q1181 639 1175 657Q1185 653 1213.5 648.0Q1242 643 1276.5 639.5Q1311 636 1339 633Q1334 650 1329.0 666.0Q1324 682 1319 698Q1292 694 1261.0 688.5Q1230 683 1205.5 677.5Q1181 672 1173 667Q1170 684 1166.5 700.5Q1163 717 1158 730Q1168 726 1195.0 721.5Q1222 717 1255.5 713.5Q1289 710 1316 708Q1312 724 1307.0 739.5Q1302 755 1297 770Q1270 766 1240.5 761.0Q1211 756 1188.5 751.0Q1166 746 1158 740Q1157 757 1153.5 773.0Q1150 789 1143 803Q1153 800 1178.0 795.5Q1203 791 1234.5 787.0Q1266 783 1293 780Q1288 797 1282.5 813.0Q1277 829 1272 842Q1234 835 1195.5 828.0Q1157 821 1146 815Q1145 831 1141.5 846.0Q1138 861 1131 876Q1140 873 1162.0 869.5Q1184 866 1212.5 862.5Q1241 859 1267 856Q1260 874 1254.0 888.5Q1248 903 1243 912Q1262 908 1280 908Q1287 908 1293.5 908.5Q1300 909 1306 910Q1279 930 1254.5 946.5Q1230 963 1209 975Q1190 954 1169.0 932.5Q1148 911 1128 888Q1133 845 1144.5 776.5Q1156 708 1171.5 627.0Q1187 546 1202 465H1193Q1176 528 1156.5 595.5Q1137 663 1117.5 725.5Q1098 788 1081 835Q1053 804 1028.5 775.0Q1004 746 987 723H1009V697H985Q1009 665 1046.5 621.5Q1084 578 1127.5 531.0Q1171 484 1210 442ZM1379 560 1462 625 1450 622Q1456 648 1459.0 668.5Q1462 689 1462 708Q1462 728 1459.0 749.0Q1456 770 1450 798L1456 796Q1423 823 1388.0 849.5Q1353 876 1320 900Q1324 867 1333.0 814.0Q1342 761 1354.0 695.5Q1366 630 1379 560ZM840 63H922Q908 75 892.5 84.5Q877 94 859 103Q892 117 945.5 153.5Q999 190 1057 235Q1055 240 1053.0 244.0Q1051 248 1049 252Q1056 251 1062.5 250.0Q1069 249 1075 248Q1102 269 1128.5 290.0Q1155 311 1180 331L1171 336Q1206 354 1236 379Q1221 391 1205.0 401.5Q1189 412 1171 421L1181 427Q1139 461 1093.5 496.5Q1048 532 1003.5 564.0Q959 596 921.5 620.0Q884 644 859 655Q877 664 893.0 674.5Q909 685 924 697H828Q804 697 780.0 697.0Q756 697 732 696Q735 653 746.0 585.0Q757 517 772.0 432.5Q787 348 804.5 253.5Q822 159 840 63ZM820 63Q814 83 808.5 104.0Q803 125 797 146Q765 140 727.5 133.5Q690 127 655.0 120.5Q620 114 593.5 107.5Q567 101 557 95Q554 109 552.0 124.0Q550 139 547 154Q542 174 534 192Q546 188 576.0 182.5Q606 177 644.5 171.5Q683 166 722.5 162.0Q762 158 794 156L764 260Q732 254 695.5 247.5Q659 241 624.5 235.0Q590 229 565.0 222.5Q540 216 530 210Q527 224 525.0 239.0Q523 254 520 269Q515 289 507 307Q519 303 547.5 297.5Q576 292 613.5 287.0Q651 282 689.5 278.0Q728 274 760 272L730 373Q688 366 640.0 357.5Q592 349 554.0 341.0Q516 333 503 325Q500 339 498.5 354.0Q497 369 493 384Q488 404 480 422Q492 418 519.0 413.0Q546 408 582.0 403.0Q618 398 656.0 393.5Q694 389 726 387L695 485Q654 478 608.5 470.0Q563 462 528.0 454.0Q493 446 481 439Q479 453 477.0 468.0Q475 483 471 498Q466 518 458 536Q473 531 511.5 524.0Q550 517 598.5 511.5Q647 506 689 502Q681 528 673.0 551.5Q665 575 657 597Q618 590 577.0 582.5Q536 575 504.5 568.0Q473 561 462 554Q460 568 458.0 583.0Q456 598 452 613Q447 633 439 651Q453 646 487.0 640.0Q521 634 564.5 628.5Q608 623 649 619Q641 641 633.5 659.5Q626 678 620 691Q572 689 525.5 685.5Q479 682 433 677Q438 632 448.5 566.5Q459 501 473.5 421.5Q488 342 504.5 254.0Q521 166 537 77Q620 70 694.5 66.5Q769 63 820 63ZM2160 63H2170Q2164 83 2158.5 104.0Q2153 125 2147 146Q2115 140 2077.5 133.5Q2040 127 2005.0 120.5Q1970 114 1943.5 107.5Q1917 101 1907 95Q1904 109 1902.0 124.0Q1900 139 1897 154Q1892 174 1884 192Q1896 188 1926.0 182.5Q1956 177 1994.5 171.5Q2033 166 2072.5 162.0Q2112 158 2144 156L2114 260Q2082 254 2045.5 247.5Q2009 241 1974.5 235.0Q1940 229 1915.0 222.5Q1890 216 1880 210Q1877 224 1875.0 239.0Q1873 254 1870 269Q1865 289 1857 307Q1869 303 1897.5 297.5Q1926 292 1963.5 287.0Q2001 282 2039.5 278.0Q2078 274 2110 272L2080 373Q2037 366 1989.0 357.5Q1941 349 1903.5 341.0Q1866 333 1853 325Q1850 339 1848.5 354.0Q1847 369 1843 384Q1838 404 1830 422Q1842 418 1869.0 413.0Q1896 408 1932.0 403.0Q1968 398 2006.0 393.5Q2044 389 2076 387L2045 485Q2004 478 1958.5 470.0Q1913 462 1878.0 454.0Q1843 446 1831 439Q1829 453 1827.0 468.0Q1825 483 1821 498Q1816 518 1808 536Q1823 531 1861.5 524.0Q1900 517 1948.5 511.5Q1997 506 2039 502Q2031 528 2023.0 551.5Q2015 575 2007 597Q1968 590 1927.0 582.5Q1886 575 1854.5 568.0Q1823 561 1812 554Q1810 568 1808.0 583.0Q1806 598 1802 613Q1797 633 1789 651Q1803 646 1837.0 640.0Q1871 634 1914.5 628.5Q1958 623 1999 619Q1991 641 1983.5 659.5Q1976 678 1970 691Q1922 689 1875.5 685.5Q1829 682 1783 677Q1788 632 1798.5 566.5Q1809 501 1823.5 421.5Q1838 342 1854.5 254.0Q1871 166 1887 77Q1972 70 2044.5 66.5Q2117 63 2160 63ZM1865 79Q1842 162 1817.5 247.5Q1793 333 1768.5 412.0Q1744 491 1721.5 557.0Q1699 623 1681 666Q1639 660 1600.0 654.0Q1561 648 1526 640Q1486 597 1442.0 548.5Q1398 500 1359.5 455.5Q1321 411 1297 379Q1320 347 1358.0 303.0Q1396 259 1439.5 212.0Q1483 165 1522 122Q1593 108 1684.0 97.5Q1775 87 1865 79ZM1210 -218Q1242 -199 1281.5 -171.0Q1321 -143 1363 -112Q1363 -110 1362.5 -108.5Q1362 -107 1362 -106Q1334 -111 1301.0 -117.0Q1268 -123 1242.0 -129.0Q1216 -135 1208 -140Q1206 -126 1201.0 -105.5Q1196 -85 1192 -78Q1203 -81 1232.5 -86.0Q1262 -91 1297.5 -95.0Q1333 -99 1360 -100Q1356 -83 1351.0 -67.0Q1346 -51 1341 -35Q1314 -39 1282.0 -44.5Q1250 -50 1224.5 -55.0Q1199 -60 1190 -65Q1187 -48 1184.5 -34.0Q1182 -20 1175 -3Q1185 -7 1213.5 -12.0Q1242 -17 1276.5 -20.5Q1311 -24 1339 -27Q1334 -10 1329.0 6.0Q1324 22 1319 38Q1292 34 1261.0 28.5Q1230 23 1205.5 17.5Q1181 12 1173 7Q1170 25 1167.0 38.0Q1164 51 1158 70Q1168 66 1195.0 61.5Q1222 57 1255.5 53.5Q1289 50 1316 48Q1312 64 1307.0 79.5Q1302 95 1297 110Q1270 106 1240.5 101.0Q1211 96 1188.5 91.0Q1166 86 1158 80Q1156 100 1152.5 115.0Q1149 130 1143 143Q1153 140 1178.0 135.5Q1203 131 1234.5 127.0Q1266 123 1293 120Q1288 137 1282.5 153.0Q1277 169 1272 182Q1234 175 1195.5 168.0Q1157 161 1146 155Q1143 173 1141.0 185.0Q1139 197 1131 216Q1140 213 1162.0 209.5Q1184 206 1212.5 202.5Q1241 199 1267 196Q1260 214 1254.0 228.5Q1248 243 1243 252Q1262 248 1280 248Q1287 248 1293.5 248.5Q1300 249 1306 250Q1279 270 1254.5 286.5Q1230 303 1209 315Q1190 294 1169.0 272.5Q1148 251 1128 228Q1133 185 1144.5 116.5Q1156 48 1171.5 -33.0Q1187 -114 1202 -195H1193Q1176 -132 1156.5 -64.5Q1137 3 1117.5 65.5Q1098 128 1081 175Q1053 144 1028.5 115.0Q1004 86 987 63H1009V37H985Q1009 5 1046.5 -38.5Q1084 -82 1127.5 -129.0Q1171 -176 1210 -218ZM1379 -100 1462 -35 1450 -38Q1456 -12 1459.0 8.5Q1462 29 1462 48Q1462 68 1459.0 89.0Q1456 110 1450 138L1456 136Q1423 163 1388.0 189.5Q1353 216 1320 240Q1324 207 1333.0 154.0Q1342 101 1354.0 35.5Q1366 -30 1379 -100Z" />
  </g>
</svg>