<svg xmlns="http://www.w3.org/2000/svg" viewBox="100 -138 1138 1037">
  <g transform="translate(0, 761) scale(1, -1)">
    <path fill="black" d="M1115 -138Q982 -75 880.0 -31.0Q778 13 700.5 42.0Q623 71 563.5 88.0Q504 105 456.5 114.5Q409 124 366 128Q436 198 478 298Q436 297 382.0 286.5Q328 276 273.5 260.0Q219 244 173.0 227.0Q127 210 100 195Q105 221 107.5 250.0Q110 279 110 310Q110 339 107.5 369.5Q105 400 100 430Q127 415 173.0 398.0Q219 381 273.5 365.0Q328 349 381.5 338.5Q435 328 477 327Q435 426 366 495Q417 500 475.5 512.5Q534 525 611.5 550.0Q689 575 797.0 619.5Q905 664 1055 733Q1048 779 1039.5 820.5Q1031 862 1022 899Q1073 887 1127 887Q1181 887 1238 899Q1228 863 1218.5 802.0Q1209 741 1199.5 662.5Q1190 584 1182.0 495.5Q1174 407 1167.0 317.0Q1160 227 1155.0 142.0Q1150 57 1147.5 -14.5Q1145 -86 1145 -137H1115ZM1095 373Q1088 456 1079.5 538.0Q1071 620 1060 696L1053 692V407Q1063 399 1073.5 390.5Q1084 382 1095 373ZM1031 425V681L953 640V497Q986 464 1031 425ZM931 519V628Q915 619 899.5 610.5Q884 602 870 594Q880 579 895.0 560.5Q910 542 931 519ZM818 59Q785 107 754 139Q780 142 831 161V451Q780 470 754 473Q769 489 783.0 506.0Q797 523 809 541Q815 549 821.0 557.0Q827 565 831 572Q810 560 790.5 548.0Q771 536 753 525V98Q769 88 785.0 78.5Q801 69 818 59ZM731 111V512Q710 499 690.5 486.0Q671 473 653 460V163Q671 150 690.5 137.5Q710 125 731 111ZM631 179V444Q609 428 590.0 412.5Q571 397 553 381V242Q571 226 590.0 210.5Q609 195 631 179ZM853 169Q870 176 889.5 184.5Q909 193 931 203V409Q909 419 889.5 427.5Q870 436 853 443ZM953 214Q989 231 1031 253V359Q989 382 953 398ZM531 262V361Q519 350 507.5 338.0Q496 326 485 314V309Q496 297 507.5 285.0Q519 273 531 262ZM1053 264 1101 290 1098 323Q1087 330 1075.5 336.0Q1064 342 1053 348ZM1115 -101Q1114 -28 1111.5 60.5Q1109 149 1103 245Q1090 235 1077.5 225.0Q1065 215 1053 205V-69Q1068 -77 1083.5 -85.0Q1099 -93 1115 -101ZM1031 -58V186Q1009 167 989.5 149.0Q970 131 953 115V-17ZM931 -5V92Q913 73 899.0 56.5Q885 40 875 26Q889 19 903.0 11.0Q917 3 931 -5Z" />
  </g>
</svg>