<svg xmlns="http://www.w3.org/2000/svg" viewBox="100 -261 1132 1149">
  <g transform="translate(0, 627) scale(1, -1)">
    <path fill="black" d="M660 -261Q589 -167 498 -117L501 -116V271Q484 269 467.0 267.0Q450 265 434 263Q427 184 422.5 95.5Q418 7 418 -93H392Q392 4 388.0 90.5Q384 177 377 254Q292 241 223.0 225.0Q154 209 100 195Q106 221 109.0 252.5Q112 284 112 311Q112 338 109.0 369.5Q106 401 100 429Q152 415 217.5 400.0Q283 385 364 372Q348 495 327.5 590.0Q307 685 287 755Q313 749 345.0 746.0Q377 743 404 743Q430 743 458.5 745.5Q487 748 514 753Q555 778 591.5 812.0Q628 846 660 888Q682 844 705.0 804.5Q728 765 758.5 724.0Q789 683 831.0 636.0Q873 589 931.5 531.5Q990 474 1070 400Q1054 513 1034.5 601.0Q1015 689 997 755Q1023 749 1055.0 746.0Q1087 743 1114 743Q1141 743 1172.5 746.0Q1204 749 1232 755Q1209 672 1185.0 552.5Q1161 433 1144.5 273.0Q1128 113 1128 -93H1102Q1102 0 1098.5 84.0Q1095 168 1088 243Q1003 166 942.0 106.0Q881 46 837.0 -2.5Q793 -51 761.5 -93.0Q730 -135 706.0 -175.5Q682 -216 660 -261ZM601 342V699Q581 709 562.0 717.5Q543 726 523 734V350Q542 348 561.5 346.0Q581 344 601 342ZM701 335V641Q679 655 660.0 666.5Q641 678 623 687V340Q642 339 661.5 338.0Q681 337 701 335ZM501 352V674Q486 611 471.0 533.0Q456 455 444 360Q458 358 472.5 356.0Q487 354 501 352ZM801 330V571Q779 587 760.0 600.5Q741 614 723 626V334Q742 333 761.5 332.0Q781 331 801 330ZM901 328V493Q880 510 860.5 525.5Q841 541 823 554V330Q842 329 861.5 329.0Q881 329 901 328ZM923 328H1001V411Q980 428 960.5 444.5Q941 461 923 475ZM1023 328H1079L1077 346Q1063 358 1049.5 370.0Q1036 382 1023 392ZM823 73Q841 87 860.5 102.0Q880 117 901 134V296Q881 295 861.5 295.0Q842 295 823 294ZM923 152Q941 166 960.5 182.5Q980 199 1001 216V296H923ZM1023 235Q1037 247 1052.5 260.0Q1068 273 1084 286L1083 296H1023ZM723 1Q741 13 760.0 26.5Q779 40 801 56V294Q781 293 761.5 292.0Q742 291 723 290ZM623 -60Q641 -51 660.0 -39.0Q679 -27 701 -14V289L623 283ZM523 -107Q543 -99 562.0 -90.5Q581 -82 601 -72V281Q581 280 561.5 278.0Q542 276 523 274Z" />
  </g>
</svg>