<svg xmlns="http://www.w3.org/2000/svg" viewBox="100 -502 1724 1657">
  <g transform="translate(0, 653) scale(1, -1)">
    <path fill="black" d="M465 -502Q458 -413 451.5 -333.5Q445 -254 439 -185Q326 -196 237.0 -209.0Q148 -222 100 -236Q112 -185 112 -131Q112 -77 100 -20Q147 -33 233.0 -46.5Q319 -60 429 -71Q420 27 409.0 102.5Q398 178 381 233Q405 229 429.0 227.0Q453 225 478 225Q503 225 529.0 227.0Q555 229 581 233Q565 186 552.0 106.0Q539 26 528 -81L717 -96Q717 41 714.5 146.5Q712 252 707.5 332.0Q703 412 695.5 474.5Q688 537 678.5 587.5Q669 638 657 685L519 673Q513 600 508.0 518.5Q503 437 498 348H465Q458 437 451.5 516.5Q445 596 439 665Q326 654 237.0 641.0Q148 628 100 614Q112 665 112 719Q112 773 100 830Q147 817 233.0 803.5Q319 790 429 779Q420 877 409.0 952.5Q398 1028 381 1083Q405 1079 429.0 1077.0Q453 1075 478 1075Q503 1075 529.0 1077.0Q555 1079 581 1083Q565 1036 552.0 956.0Q539 876 528 769Q639 759 759.0 751.5Q879 744 999.5 739.5Q1120 735 1230 735H1233Q1229 751 1223.5 766.5Q1218 782 1211 797Q1203 816 1193.0 834.0Q1183 852 1170 869Q1202 870 1273.5 888.5Q1345 907 1443.0 940.5Q1541 974 1652 1019Q1646 1060 1639.0 1094.0Q1632 1128 1624 1155Q1648 1151 1672.0 1149.0Q1696 1147 1721 1147Q1746 1147 1772.0 1149.0Q1798 1151 1824 1155Q1809 1112 1796.5 1034.0Q1784 956 1774.0 852.5Q1764 749 1756.0 628.0Q1748 507 1741 377H1708Q1708 382 1707 385Q1619 421 1534.0 455.5Q1449 490 1375.5 517.5Q1302 545 1248.5 561.5Q1195 578 1170 579Q1183 596 1192.5 614.0Q1202 632 1211 651Q1224 678 1232 709Q1169 709 1102.0 707.0Q1035 705 965 703Q982 700 997.5 699.0Q1013 698 1029 698Q1049 698 1068.5 699.5Q1088 701 1107 705Q1094 656 1083.5 604.0Q1073 552 1065.5 488.0Q1058 424 1053.0 340.5Q1048 257 1045.5 146.0Q1043 35 1043 -112Q1141 -115 1233 -115Q1229 -99 1223.5 -83.5Q1218 -68 1211 -53Q1203 -34 1193.0 -16.0Q1183 2 1170 19Q1202 20 1273.5 38.5Q1345 57 1443.0 90.5Q1541 124 1652 169Q1646 210 1639.0 244.0Q1632 278 1624 305Q1648 301 1672.0 299.0Q1696 297 1721 297Q1746 297 1772.0 299.0Q1798 301 1824 305Q1809 262 1796.5 184.0Q1784 106 1774.0 2.5Q1764 -101 1756.0 -222.0Q1748 -343 1741 -473H1708L1707 -465Q1619 -429 1534.0 -394.5Q1449 -360 1375.5 -332.5Q1302 -305 1248.5 -288.5Q1195 -272 1170 -271Q1183 -254 1193.0 -236.0Q1203 -218 1211 -199Q1225 -168 1232 -141Q1121 -141 998.5 -146.0Q876 -151 753.5 -158.5Q631 -166 519 -177Q513 -250 508.0 -331.5Q503 -413 498 -502ZM1705 419Q1691 592 1680.5 735.5Q1670 879 1656 985Q1557 936 1473.0 887.0Q1389 838 1329.5 797.0Q1270 756 1243 731V717Q1264 696 1309.0 662.0Q1354 628 1415.5 586.5Q1477 545 1551.0 501.5Q1625 458 1705 419ZM1520 557Q1517 597 1514.5 629.0Q1512 661 1510 686Q1488 658 1473.5 635.0Q1459 612 1445 586Q1423 620 1386 644Q1406 655 1428.0 670.0Q1450 685 1476 707Q1445 703 1420.0 698.5Q1395 694 1368 687Q1373 707 1373 725Q1373 735 1371.5 745.0Q1370 755 1368 767Q1388 762 1409.0 758.0Q1430 754 1457 751Q1438 767 1420.5 779.0Q1403 791 1383 804Q1400 813 1414.0 826.0Q1428 839 1442 857Q1453 837 1467.0 815.0Q1481 793 1502 765Q1498 797 1493.0 821.5Q1488 846 1480 873Q1489 871 1499.0 869.5Q1509 868 1519 868Q1529 868 1539.5 869.5Q1550 871 1562 873Q1549 830 1542 763Q1562 781 1584.5 801.5Q1607 822 1633 847L1641 838L1557 743Q1580 742 1607.5 741.0Q1635 740 1666 739V723Q1629 720 1598.5 718.0Q1568 716 1542 714Q1561 691 1584.0 664.0Q1607 637 1635 604L1628 596Q1600 622 1577.5 643.5Q1555 665 1535 682Q1534 656 1533.0 625.0Q1532 594 1530 557ZM972 625Q968 645 963.0 664.0Q958 683 953 702Q916 701 879.0 699.0Q842 697 804 695L795 657Q832 648 880.5 639.0Q929 630 972 625ZM992 507Q988 535 984.0 560.0Q980 585 975 608Q926 604 870.5 593.0Q815 582 777 571Q776 565 775.0 559.0Q774 553 773 547Q800 540 838.0 531.5Q876 523 916.5 516.5Q957 510 992 507ZM1004 390Q1002 419 999.0 444.5Q996 470 994 493Q956 491 911.5 484.0Q867 477 827.0 468.0Q787 459 761 451Q761 447 760.5 443.0Q760 439 760 434Q786 427 829.0 417.0Q872 407 919.0 399.5Q966 392 1004 390ZM1010 274Q1009 330 1004 378Q964 376 914.5 368.0Q865 360 821.0 350.5Q777 341 752 332V321Q770 315 801.0 307.5Q832 300 869.0 292.5Q906 285 943.0 280.0Q980 275 1010 274ZM1014 158 1011 262Q980 261 941.5 256.0Q903 251 865.0 243.5Q827 236 795.5 228.0Q764 220 747 214V206Q764 200 796.0 192.0Q828 184 867.0 176.5Q906 169 944.5 164.0Q983 159 1014 158ZM1016 42Q1016 70 1015.5 95.5Q1015 121 1014 146Q982 145 942.5 140.0Q903 135 864.0 127.5Q825 120 793.5 111.5Q762 103 745 97V91Q761 85 793.5 77.0Q826 69 865.5 61.0Q905 53 945.0 47.5Q985 42 1016 42ZM1705 -431Q1691 -258 1680.5 -114.5Q1670 29 1656 135Q1557 86 1473.0 37.0Q1389 -12 1329.5 -53.0Q1270 -94 1243 -119V-133Q1264 -154 1309.0 -188.0Q1354 -222 1415.5 -263.5Q1477 -305 1551.0 -348.5Q1625 -392 1705 -431ZM1017 -74Q1017 -46 1017.0 -20.5Q1017 5 1016 30Q984 30 943.5 24.5Q903 19 863.0 11.5Q823 4 791.0 -4.5Q759 -13 743 -20V-24Q759 -30 791.5 -38.5Q824 -47 864.5 -55.0Q905 -63 945.5 -68.5Q986 -74 1017 -74ZM1520 -293Q1517 -253 1514.5 -221.0Q1512 -189 1510 -164Q1488 -192 1473.5 -215.0Q1459 -238 1445 -264Q1423 -230 1386 -206Q1406 -195 1428.0 -180.0Q1450 -165 1476 -143Q1445 -147 1420.0 -151.5Q1395 -156 1368 -163Q1373 -143 1373 -125Q1373 -115 1371.5 -105.0Q1370 -95 1368 -83Q1388 -88 1409.0 -92.0Q1430 -96 1457 -99Q1438 -83 1420.5 -71.0Q1403 -59 1383 -46Q1400 -37 1414.0 -24.0Q1428 -11 1442 7Q1453 -13 1467.0 -35.0Q1481 -57 1502 -85Q1498 -53 1493.0 -28.5Q1488 -4 1480 23Q1489 21 1499.0 19.5Q1509 18 1519 18Q1529 18 1539.5 19.5Q1550 21 1562 23Q1549 -20 1542 -87Q1562 -69 1584.5 -48.5Q1607 -28 1633 -3L1641 -12L1557 -107Q1580 -108 1607.5 -109.0Q1635 -110 1666 -111V-127Q1629 -130 1598.5 -132.0Q1568 -134 1542 -136Q1561 -159 1584.0 -186.0Q1607 -213 1635 -246L1628 -254Q1600 -228 1577.5 -206.5Q1555 -185 1535 -168Q1534 -194 1533.0 -225.0Q1532 -256 1530 -293ZM1017 -111V-86Q985 -87 944.0 -92.0Q903 -97 864 -105Q902 -106 941.0 -108.0Q980 -110 1017 -111Z" />
  </g>
</svg>