<svg xmlns="http://www.w3.org/2000/svg" viewBox="100 72 936 483">
  <g transform="translate(0, 627) scale(1, -1)">
    <path fill="black" d="M100 72Q105 98 107.5 127.0Q110 156 110 187Q110 216 107.5 246.5Q105 277 100 307Q128 292 175.0 274.5Q222 257 278.0 240.5Q334 224 388.5 214.0Q443 204 485 204H534Q538 229 540.0 256.0Q542 283 542 311Q542 368 533 423H485Q443 423 388.5 413.0Q334 403 278.0 386.5Q222 370 175.0 352.5Q128 335 100 320Q105 346 107.5 375.0Q110 404 110 435Q110 464 107.5 494.5Q105 525 100 555Q128 540 175.0 522.5Q222 505 278.0 488.5Q334 472 388.5 462.0Q443 452 485 452H554V423H547Q588 403 652.5 381.0Q717 359 800.0 343.5Q883 328 977 328H1036V299H977Q892 299 809.0 283.5Q726 268 657.5 246.0Q589 224 548 204H554V175H485Q443 175 388.5 165.0Q334 155 278.0 138.5Q222 122 175.0 104.5Q128 87 100 72Z" />
  </g>
</svg>