<svg xmlns="http://www.w3.org/2000/svg" viewBox="100 -303 1623 1165">
  <g transform="translate(0, 559) scale(1, -1)">
    <path fill="black" d="M196 -303Q164 -184 100 -98Q143 -97 185.5 -93.0Q228 -89 282.5 -77.5Q337 -66 412.5 -41.0Q488 -16 597 27L529 36Q545 58 560.0 86.5Q575 115 585 140Q596 165 605.0 195.5Q614 226 620 254Q666 218 726.0 175.5Q786 133 862 85V644Q845 640 828.5 636.0Q812 632 798 628Q804 654 807.0 685.5Q810 717 810 744Q810 771 807.0 802.5Q804 834 798 862Q861 845 955.0 826.5Q1049 808 1169.0 792.5Q1289 777 1429.0 767.5Q1569 758 1723 758V745Q1702 699 1673.5 633.0Q1645 567 1613.5 488.5Q1582 410 1549.5 325.5Q1517 241 1487.0 157.5Q1457 74 1431.5 -1.0Q1406 -76 1388.5 -135.5Q1371 -195 1365 -231Q1323 -198 1273.5 -174.0Q1224 -150 1170 -139L1181 -125Q1027 -69 900.0 -36.0Q773 -3 673 14Q568 -36 494.5 -76.5Q421 -117 369.0 -152.5Q317 -188 276.5 -224.5Q236 -261 196 -303ZM1584 644H1641L1684 732Q1659 732 1634.0 731.5Q1609 731 1584 730ZM1484 644H1562V730L1484 727ZM1384 644H1462V725Q1442 724 1422.5 723.0Q1403 722 1384 720ZM1284 644H1362V719Q1342 718 1322.5 716.0Q1303 714 1284 712ZM1184 644H1262V709Q1222 706 1184 700ZM1084 644H1162V698L1084 686ZM984 644H1062V683Q1042 680 1022.5 676.5Q1003 673 984 669ZM884 644H962V665Q941 661 921.5 657.0Q902 653 884 649ZM1284 544H1362V618H1284ZM984 544H1062V618H984ZM884 544H962V618H884ZM1084 544H1162V618H1084ZM1384 544H1462V618H1384ZM1484 544H1562V618H1484ZM1584 544H1590Q1600 563 1609.0 581.5Q1618 600 1627 618H1584ZM1184 544H1262V618H1184ZM1184 444H1262V518H1184ZM1384 444H1462V518H1384ZM884 444H962V518H884ZM1084 444H1162V518H1084ZM1484 444H1537L1562 492V518H1484ZM984 444H1062V518H984ZM1284 444H1362V518H1284ZM1384 344H1462V418H1384ZM1284 344H1362V418H1284ZM1184 344H1262V418H1184ZM1084 344H1162V418H1084ZM984 344H1062V418H984ZM1484 348Q1494 366 1503.5 383.5Q1513 401 1523 418H1484ZM884 344H962V418H884ZM1184 244H1262V318H1184ZM1084 244H1162V318H1084ZM1284 244H1362V318H1284ZM984 244H1062V318H984ZM1384 244H1425Q1434 261 1443.5 277.0Q1453 293 1462 309V318H1384ZM884 244H962V318H884ZM1384 176 1409 218H1384ZM1284 144H1362V218H1284ZM1184 144H1262V218H1184ZM1084 144H1162V218H1084ZM984 144H1062V218H984ZM884 144H962V218H884ZM1284 44H1302L1349 118H1284ZM1184 44H1262V118H1184ZM1084 44H1162V118H1084ZM984 44H1062V118H984ZM931 44H962V118H884V72Q895 65 907.0 58.0Q919 51 931 44ZM1203 -97Q1217 -78 1232.0 -57.5Q1247 -37 1262 -15V18H1184V-88ZM1162 -78V18H1084V-39Q1122 -58 1162 -78ZM1062 -28V18H984V14Q1022 -7 1062 -28Z" />
  </g>
</svg>