<svg xmlns="http://www.w3.org/2000/svg" viewBox="100 -185 1966 1456">
  <g transform="translate(0, 1086) scale(1, -1)">
    <path fill="black" d="M420 -185Q396 -159 377.0 -142.0Q358 -125 327 -111Q350 -96 386.0 -64.5Q422 -33 462.5 5.5Q503 44 537 81Q506 81 476.5 80.0Q447 79 418 77Q397 40 376.5 2.5Q356 -35 341.0 -67.5Q326 -100 319 -121Q297 -96 279.5 -80.0Q262 -64 233 -51Q257 -36 295.0 -1.0Q333 34 372 74Q350 73 329.5 70.5Q309 68 289 66Q268 28 251.0 -6.5Q234 -41 227 -63Q208 -41 192.0 -27.0Q176 -13 150 -1Q164 7 182.0 23.0Q200 39 221 58Q172 51 140.5 44.5Q109 38 100 33Q102 50 103.0 66.5Q104 83 104 100Q104 114 103.0 127.5Q102 141 100 155Q120 143 221 128Q200 148 182.0 163.5Q164 179 150 187Q176 199 192.0 213.0Q208 227 227 249Q234 227 251.0 192.5Q268 158 289 120Q309 118 329.5 116.0Q350 114 372 112Q334 153 295.5 187.5Q257 222 233 237Q262 251 279.5 266.5Q297 282 319 307Q326 286 341.0 253.5Q356 221 376.5 183.5Q397 146 418 109Q446 108 476.0 106.5Q506 105 537 104Q503 142 462.5 180.5Q422 219 386.0 250.5Q350 282 327 297Q338 302 347.0 307.0Q356 312 364 318Q356 324 347.0 329.0Q338 334 327 339Q350 354 386.0 385.5Q422 417 462.5 455.5Q503 494 537 531Q506 531 476.5 530.0Q447 529 418 527Q397 490 376.5 452.5Q356 415 341.0 382.5Q326 350 319 329Q297 354 279.5 370.0Q262 386 233 399Q257 414 295.0 449.0Q333 484 372 524Q350 523 329.5 520.5Q309 518 289 516Q268 478 251.0 443.5Q234 409 227 387Q208 409 192.0 423.0Q176 437 150 449Q164 457 182.0 473.0Q200 489 221 508Q172 501 140.5 494.5Q109 488 100 483Q102 500 103.0 516.5Q104 533 104 550Q104 564 103.0 577.5Q102 591 100 605Q120 593 221 578Q200 598 182.0 613.5Q164 629 150 637Q176 649 192.0 663.0Q208 677 227 699Q234 677 251.0 642.5Q268 608 289 570Q309 568 329.5 566.0Q350 564 372 562Q334 603 295.5 637.5Q257 672 233 687Q262 701 279.5 716.5Q297 732 319 757Q326 736 341.0 703.5Q356 671 376.5 633.5Q397 596 418 559Q446 558 476.0 556.5Q506 555 537 554Q503 592 462.5 630.5Q422 669 386.0 700.5Q350 732 327 747Q338 752 347.0 757.0Q356 762 364 768Q356 774 347.0 779.0Q338 784 327 789Q350 804 386.0 835.5Q422 867 462.5 905.5Q503 944 537 981Q506 981 476.5 980.0Q447 979 418 977Q397 940 376.5 902.5Q356 865 341.0 832.5Q326 800 319 779Q297 804 279.5 820.0Q262 836 233 849Q257 864 295.0 899.0Q333 934 372 974Q350 973 329.5 970.5Q309 968 289 966Q268 928 251.0 893.5Q234 859 227 837Q208 859 192.0 873.0Q176 887 150 899Q164 907 182.0 923.0Q200 939 221 958Q172 951 140.5 944.5Q109 938 100 933Q102 950 103.0 966.5Q104 983 104 1000Q104 1014 103.0 1027.5Q102 1041 100 1055Q120 1043 221 1028Q200 1048 182.0 1063.5Q164 1079 150 1087Q176 1099 192.0 1113.0Q208 1127 227 1149Q234 1127 251.0 1092.5Q268 1058 289 1020Q309 1018 329.5 1016.0Q350 1014 372 1012Q334 1053 295.5 1087.5Q257 1122 233 1137Q262 1151 279.5 1166.5Q297 1182 319 1207Q326 1186 341.0 1153.5Q356 1121 376.5 1083.5Q397 1046 418 1009Q446 1008 476.0 1006.5Q506 1005 537 1004Q503 1042 462.5 1080.5Q422 1119 386.0 1150.5Q350 1182 327 1197Q358 1211 377.0 1228.0Q396 1245 420 1271Q429 1244 453.0 1198.0Q477 1152 507.5 1100.5Q538 1049 566 1004H592V982H566Q535 932 500.0 873.5Q465 815 442 768Q465 722 500.0 663.0Q535 604 566 554H592V532H566Q535 482 500.0 423.5Q465 365 442 318Q465 272 500.0 213.0Q535 154 566 104H592V82H566Q538 38 507.5 -14.0Q477 -66 453.0 -111.5Q429 -157 420 -185ZM977 -52Q961 -21 935.5 12.0Q910 45 882.0 73.5Q854 102 829 121Q842 127 857.5 135.5Q873 144 892 155V345Q886 380 874.0 420.5Q862 461 847 487H892V619H847Q858 639 867.0 664.5Q876 690 881 711Q884 722 887.0 735.0Q890 748 892 761V874Q870 795 851.0 679.0Q832 563 820.0 396.5Q808 230 808 0H768Q768 216 757.0 377.5Q746 539 728.0 655.5Q710 772 688.5 852.0Q667 932 646.5 983.0Q626 1034 610 1065Q639 1059 689.0 1055.0Q739 1051 788 1051Q835 1051 885.0 1055.0Q935 1059 966 1065Q958 1049 949.0 1029.0Q940 1009 930 986Q961 1015 990.0 1052.0Q1019 1089 1037 1123Q1057 1095 1103.0 1044.0Q1149 993 1216.0 925.5Q1283 858 1365.0 778.5Q1447 699 1538 615Q1670 716 1801.0 818.0Q1932 920 2044 1011L2066 982Q1960 894 1837.5 785.5Q1715 677 1593 564Q1712 455 1834.5 346.5Q1957 238 2066 147L2044 118Q1927 213 1796.0 314.0Q1665 415 1536 511Q1436 418 1344.0 329.5Q1252 241 1176.5 165.0Q1101 89 1049.0 33.0Q997 -23 977 -52ZM992 759V893Q947 920 914 938V800ZM1092 711V828Q1050 857 1014 879V748Q1032 739 1051.5 730.0Q1071 721 1092 711ZM1192 669V760Q1172 774 1152.5 787.5Q1133 801 1114 813V701ZM1292 631V690Q1272 704 1252.5 718.0Q1233 732 1214 745V660ZM1392 598V618L1314 674V624Q1333 617 1352.5 610.5Q1372 604 1392 598ZM914 487Q935 488 954.5 488.0Q974 488 992 489V617Q974 618 954.5 618.0Q935 618 914 619ZM1014 490Q1034 492 1053.5 493.0Q1073 494 1092 496V610Q1073 612 1053.5 613.5Q1034 615 1014 616ZM1114 498Q1152 501 1192 507V599Q1152 605 1114 608ZM1438 584 1414 601V591ZM1214 510Q1252 515 1292 522V584Q1252 592 1214 596ZM1314 526Q1352 532 1392 541V565Q1352 574 1314 580ZM1414 545Q1423 547 1432.0 549.0Q1441 551 1450 553Q1441 555 1432.0 557.0Q1423 559 1414 561ZM1314 447Q1334 461 1353.5 475.5Q1373 490 1392 505V508Q1372 502 1352.5 495.5Q1333 489 1314 482ZM1214 374 1292 431V475L1214 446ZM1114 303Q1133 316 1152.5 330.0Q1172 344 1192 358V437L1114 405ZM1014 233 1092 287V395Q1071 385 1051.5 376.0Q1032 367 1014 358ZM914 168Q931 179 951.0 192.0Q971 205 992 219V347L914 306Z" />
  </g>
</svg>