<svg xmlns="http://www.w3.org/2000/svg" viewBox="100 -112 2173 847">
  <g transform="translate(0, 623) scale(1, -1)">
    <path fill="black" d="M362 294Q311 343 275.5 375.0Q240 407 212.0 430.0Q184 453 158.0 472.0Q132 491 100 514Q132 537 158.5 556.5Q185 576 212.5 599.0Q240 622 275.5 654.5Q311 687 362 735L384 718Q344 655 315.5 608.0Q287 561 258 514L384 311ZM576 -112Q525 -63 489.5 -31.0Q454 1 426.0 24.0Q398 47 372.0 66.0Q346 85 314 108Q345 130 370.0 148.5Q395 167 421.0 188.5Q447 210 480.0 239.0Q513 268 558 311Q512 355 479.5 384.0Q447 413 421.0 434.0Q395 455 369.5 473.5Q344 492 314 514Q346 537 372.5 556.5Q399 576 426.5 599.0Q454 622 489.5 654.5Q525 687 576 735L598 718Q558 655 529.5 608.0Q501 561 472 514L598 311Q558 248 529.5 201.5Q501 155 472 108L598 -95ZM792 -112Q741 -63 705.5 -31.0Q670 1 642.0 24.0Q614 47 588.0 66.0Q562 85 530 108Q561 130 586.0 148.5Q611 167 637.0 188.5Q663 210 695.5 239.0Q728 268 773 311Q727 355 694.0 384.0Q661 413 635.0 434.0Q609 455 583.5 473.5Q558 492 528 514Q560 537 586.5 556.5Q613 576 640.5 599.0Q668 622 703.5 654.5Q739 687 790 735L812 718Q772 655 743.5 608.0Q715 561 686 514L810 314L814 311Q774 248 745.5 201.5Q717 155 688 108L814 -95ZM1004 294Q953 343 917.5 375.0Q882 407 854.0 430.0Q826 453 800.0 472.0Q774 491 742 514Q774 537 800.5 556.5Q827 576 854.5 599.0Q882 622 917.5 654.5Q953 687 1004 735L1026 718Q986 655 957.5 608.0Q929 561 900 514L1026 311ZM1218 294Q1167 343 1131.5 375.0Q1096 407 1068.0 430.0Q1040 453 1014.0 472.0Q988 491 956 514Q988 537 1014.5 556.5Q1041 576 1068.5 599.0Q1096 622 1131.5 654.5Q1167 687 1218 735L1240 718Q1200 655 1171.5 608.0Q1143 561 1114 514L1240 311ZM1434 -112Q1383 -63 1347.5 -31.0Q1312 1 1284.0 24.0Q1256 47 1230.0 66.0Q1204 85 1172 108Q1203 130 1228.0 148.5Q1253 167 1279.0 188.5Q1305 210 1337.5 239.0Q1370 268 1415 311Q1369 355 1336.0 384.0Q1303 413 1277.0 434.0Q1251 455 1225.5 473.5Q1200 492 1170 514Q1202 537 1228.5 556.5Q1255 576 1282.5 599.0Q1310 622 1345.5 654.5Q1381 687 1432 735L1454 718Q1414 655 1385.5 608.0Q1357 561 1328 514L1452 314L1456 311Q1416 248 1387.5 201.5Q1359 155 1330 108L1456 -95ZM1566 434Q1566 469 1565.0 496.5Q1564 524 1562 546Q1518 542 1481.5 536.5Q1445 531 1420 524Q1422 537 1423.0 551.0Q1424 565 1424 578Q1424 592 1423.0 605.5Q1422 619 1420 632Q1446 625 1480.0 619.5Q1514 614 1554 609Q1549 635 1542.0 662.0Q1535 689 1524 726Q1538 723 1551.5 722.0Q1565 721 1578 721Q1592 721 1605.0 722.0Q1618 723 1631 726Q1620 685 1612.5 656.5Q1605 628 1600 604Q1615 603 1630.5 602.0Q1646 601 1662 599Q1658 628 1650.0 657.0Q1642 686 1631 726Q1645 723 1658.5 722.0Q1672 721 1685 721Q1699 721 1712.0 722.0Q1725 723 1738 726Q1726 682 1718.5 652.5Q1711 623 1706 597L1770 594Q1766 624 1758.0 654.0Q1750 684 1738 726Q1752 723 1765.5 722.0Q1779 721 1792 721Q1806 721 1819.0 722.0Q1832 723 1845 726Q1832 680 1824.5 649.5Q1817 619 1812 592Q1829 592 1845.5 591.5Q1862 591 1878 591Q1873 622 1865.0 652.5Q1857 683 1845 726Q1859 723 1872.5 722.0Q1886 721 1899 721Q1913 721 1926.0 722.0Q1939 723 1952 726Q1939 679 1931.0 648.0Q1923 617 1918 590Q1935 590 1952.0 589.5Q1969 589 1985 589Q1981 621 1972.5 652.0Q1964 683 1952 726Q1966 723 1979.5 722.0Q1993 721 2006 721Q2020 721 2033.0 722.0Q2046 723 2059 726Q2046 679 2038.0 647.5Q2030 616 2025 589H2074V567H2022Q2019 542 2017.5 511.0Q2016 480 2016 435L1994 434Q1994 478 1992.5 509.5Q1991 541 1988 566Q1971 566 1952.5 566.0Q1934 566 1915 565Q1912 540 1910.5 509.5Q1909 479 1909 435L1887 434Q1887 476 1885.5 507.5Q1884 539 1881 564Q1863 564 1844.5 563.5Q1826 563 1807 562Q1805 537 1803.5 507.5Q1802 478 1802 435L1780 434Q1780 475 1778.5 505.0Q1777 535 1775 560L1700 557Q1697 533 1696.0 504.5Q1695 476 1695 435L1673 434Q1673 472 1671.5 501.5Q1670 531 1668 555L1592 549Q1590 527 1589.0 500.0Q1588 473 1588 435ZM2251 94Q2203 140 2169.0 171.0Q2135 202 2108.5 224.0Q2082 246 2057.5 264.5Q2033 283 2005 303Q1891 299 1809.0 289.0Q1727 279 1667.0 265.0Q1607 251 1560.5 234.5Q1514 218 1470 201Q1476 227 1479.0 258.5Q1482 290 1482 317Q1482 344 1479.0 375.5Q1476 407 1470 435Q1514 418 1561.5 401.5Q1609 385 1670.0 370.5Q1731 356 1815.0 346.5Q1899 337 2016 333Q2042 352 2065.5 370.0Q2089 388 2114.5 410.0Q2140 432 2173.0 462.0Q2206 492 2251 535L2273 518Q2233 455 2204.5 408.0Q2176 361 2147 314L2273 111ZM1566 -96Q1566 -61 1565.0 -33.5Q1564 -6 1562 16Q1518 12 1481.5 6.5Q1445 1 1420 -6Q1422 7 1423.0 21.0Q1424 35 1424 48Q1424 62 1423.0 75.5Q1422 89 1420 102Q1446 95 1480.0 89.5Q1514 84 1554 79Q1549 105 1542.0 132.0Q1535 159 1524 196Q1538 193 1551.5 192.0Q1565 191 1578 191Q1592 191 1605.0 192.0Q1618 193 1631 196Q1620 155 1612.5 126.5Q1605 98 1600 74Q1615 73 1630.5 72.0Q1646 71 1662 69Q1658 98 1650.0 127.0Q1642 156 1631 196Q1645 193 1658.5 192.0Q1672 191 1685 191Q1699 191 1712.0 192.0Q1725 193 1738 196Q1726 152 1718.5 122.5Q1711 93 1706 67L1770 64Q1766 94 1758.0 124.0Q1750 154 1738 196Q1752 193 1765.5 192.0Q1779 191 1792 191Q1806 191 1819.0 192.0Q1832 193 1845 196Q1832 150 1824.5 119.5Q1817 89 1812 62Q1829 62 1845.5 61.5Q1862 61 1878 61Q1873 92 1865.0 122.5Q1857 153 1845 196Q1859 193 1872.5 192.0Q1886 191 1899 191Q1913 191 1926.0 192.0Q1939 193 1952 196Q1939 149 1931.0 118.0Q1923 87 1918 60Q1935 60 1952.0 59.5Q1969 59 1985 59Q1981 91 1972.5 122.0Q1964 153 1952 196Q1966 193 1979.5 192.0Q1993 191 2006 191Q2020 191 2033.0 192.0Q2046 193 2059 196Q2046 149 2038.0 117.5Q2030 86 2025 59H2074V37H2022Q2019 12 2017.5 -19.0Q2016 -50 2016 -95L1994 -96Q1994 -52 1992.5 -20.5Q1991 11 1988 36Q1971 36 1952.5 36.0Q1934 36 1915 35Q1912 10 1910.5 -20.5Q1909 -51 1909 -95L1887 -96Q1887 -54 1885.5 -22.5Q1884 9 1881 34Q1863 34 1844.5 33.5Q1826 33 1807 32Q1805 7 1803.5 -22.5Q1802 -52 1802 -95L1780 -96Q1780 -55 1778.5 -25.0Q1777 5 1775 30L1700 27Q1697 3 1696.0 -25.5Q1695 -54 1695 -95L1673 -96Q1673 -58 1671.5 -28.5Q1670 1 1668 25L1592 19Q1590 -3 1589.0 -30.0Q1588 -57 1588 -95Z" />
  </g>
</svg>