<svg xmlns="http://www.w3.org/2000/svg" viewBox="100 -177 2213 984">
  <g transform="translate(0, 630) scale(1, -1)">
    <path fill="black" d="M1134 -177Q1118 -121 1092.5 -64.0Q1067 -7 1034 33L1078 39Q1043 56 996.0 75.5Q949 95 898.0 114.5Q847 134 799.5 150.5Q752 167 714.0 178.5Q676 190 655 194Q678 218 695 251Q637 250 579.5 247.5Q522 245 469 241Q465 196 460 139Q525 135 596.0 132.5Q667 130 739 130V110Q666 110 594.5 107.0Q523 104 458 99Q457 82 456.0 63.0Q455 44 454 24H422Q421 44 420.0 62.0Q419 80 417 96Q302 87 217.5 73.5Q133 60 101 49Q105 65 106.5 81.5Q108 98 108 114Q108 131 106.5 149.0Q105 167 100 185Q131 174 215.0 162.0Q299 150 413 142Q411 168 408.0 191.5Q405 215 403 236Q294 226 213.0 213.5Q132 201 101 190Q105 206 106.5 222.5Q108 239 108 255Q108 272 106.5 290.0Q105 308 100 326Q130 316 209.0 304.5Q288 293 396 284Q392 311 388.0 333.5Q384 356 379 375Q278 365 204.0 353.5Q130 342 101 331Q105 347 106.5 363.5Q108 380 108 396Q108 413 106.5 431.0Q105 449 100 467Q128 457 198.0 446.5Q268 436 365 428L339 510Q361 506 388.0 503.5Q415 501 437 501Q460 501 486.0 503.5Q512 506 536 510Q526 490 517.0 468.0Q508 446 500 419Q542 417 586.0 415.0Q630 413 674 413Q670 419 665.0 424.5Q660 430 655 436Q676 440 714.0 451.5Q752 463 799.5 479.5Q847 496 898.0 515.5Q949 535 996.0 554.5Q1043 574 1078 591L1034 597Q1067 637 1092.5 694.0Q1118 751 1134 807Q1181 758 1254.5 709.5Q1328 661 1422.0 613.5Q1516 566 1622.5 519.5Q1729 473 1841.5 428.0Q1954 383 2065 340Q2097 363 2127.0 387.0Q2157 411 2195.5 445.5Q2234 480 2291 535L2313 518Q2273 455 2244.5 408.0Q2216 361 2187 314L2313 111L2291 94Q2233 150 2194.0 184.5Q2155 219 2125.5 243.0Q2096 267 2063 290Q1952 247 1839.5 202.0Q1727 157 1621.0 110.5Q1515 64 1421.5 16.0Q1328 -32 1254.5 -80.0Q1181 -128 1134 -177ZM101 472Q105 488 106.5 504.5Q108 521 108 537Q108 554 106.5 572.0Q105 590 100 608Q126 599 187.5 589.5Q249 580 337.0 571.5Q425 563 528.0 558.0Q631 553 739 553V533Q631 533 528.0 527.0Q425 521 338.0 512.0Q251 503 189.0 492.0Q127 481 101 472ZM1108 44Q1266 72 1500.5 140.0Q1735 208 2029 314L2031 316Q1736 423 1501.5 490.5Q1267 558 1108 586Q1078 567 1037.0 539.5Q996 512 951.0 481.0Q906 450 863.5 419.0Q821 388 787.5 361.0Q754 334 735 315Q754 296 787.5 269.0Q821 242 863.5 211.0Q906 180 951.0 149.0Q996 118 1037.0 90.5Q1078 63 1108 44ZM1127 115Q1124 150 1115.0 181.5Q1106 213 1089 238Q1117 239 1154.0 243.0Q1191 247 1239 254Q1238 291 1234.5 327.0Q1231 363 1226 399Q1183 406 1149.0 409.0Q1115 412 1089 413Q1106 439 1115.0 470.0Q1124 501 1127 536Q1142 526 1162.5 514.0Q1183 502 1210 488L1202 517Q1227 506 1253 506Q1277 506 1302 517Q1301 510 1299.0 503.5Q1297 497 1295 489Q1318 480 1342 480Q1366 480 1391 491Q1388 477 1384 464Q1406 456 1428 456Q1452 456 1477 467L1471 445Q1493 437 1515 437Q1539 437 1564 448Q1560 430 1553.5 410.0Q1547 390 1540 359L1620 336L1618 326L1620 315Q1596 308 1573.0 301.5Q1550 295 1528 288Q1526 270 1524.5 248.5Q1523 227 1521 202H1504Q1503 221 1501.0 240.0Q1499 259 1497 278Q1482 274 1468.0 269.0Q1454 264 1440 259Q1439 244 1438.0 227.5Q1437 211 1436 193H1417L1414 250L1353 227Q1352 216 1352.0 204.5Q1352 193 1351 180H1331Q1331 190 1330.5 199.0Q1330 208 1329 218Q1311 211 1294.0 203.5Q1277 196 1262 189Q1262 182 1261.5 174.5Q1261 167 1261 159H1243Q1243 164 1243.0 169.5Q1243 175 1242 179Q1203 160 1175.0 144.0Q1147 128 1127 115ZM1303 444Q1301 454 1298.5 463.5Q1296 473 1293 482Q1290 467 1287 451Q1291 450 1295.0 448.0Q1299 446 1303 444ZM1391 409Q1389 420 1386.5 431.0Q1384 442 1381 452Q1380 444 1378.0 435.5Q1376 427 1374 416Q1378 415 1382.5 413.0Q1387 411 1391 409ZM1481 378Q1478 392 1475.0 406.0Q1472 420 1468 433Q1465 423 1462.5 411.5Q1460 400 1457 386Q1463 385 1469.0 382.5Q1475 380 1481 378ZM705 271Q710 282 714.5 293.0Q719 304 724 315Q715 336 706.5 355.5Q698 375 688 392Q637 391 587.5 389.0Q538 387 491 384Q487 362 482.5 336.5Q478 311 473 279Q528 276 586.5 274.0Q645 272 705 271ZM1265 258Q1279 260 1294.5 263.0Q1310 266 1326 269Q1323 327 1314 384Q1304 386 1295.0 388.0Q1286 390 1277 391Q1274 366 1270.5 333.0Q1267 300 1265 258ZM1356 275Q1370 277 1383.5 279.5Q1397 282 1411 285Q1406 328 1399 368L1367 374Q1364 355 1361.0 330.0Q1358 305 1356 275ZM1443 292Q1456 295 1468.5 297.5Q1481 300 1494 303Q1493 315 1491.0 326.5Q1489 338 1487 350Q1478 352 1469.0 354.0Q1460 356 1452 357Q1448 331 1443 292ZM1532 311Q1546 315 1562.0 318.5Q1578 322 1594 326Q1579 329 1564.5 332.0Q1550 335 1536 339Q1535 332 1534.0 325.5Q1533 319 1532 311Z" />
  </g>
</svg>