<svg xmlns="http://www.w3.org/2000/svg" viewBox="100 -64 1479 1281">
  <g transform="translate(0, 1153) scale(1, -1)">
    <path fill="black" d="M560 -64Q566 -41 568.5 -12.5Q571 16 571 40Q571 64 568.5 92.5Q566 121 560 146Q620 130 683.0 112.5Q746 95 828 81Q827 116 825.0 147.5Q823 179 821 209Q766 205 719.5 198.5Q673 192 632 185V175H604V179Q540 166 488.0 152.0Q436 138 385 124Q391 147 393.5 175.5Q396 204 396 228Q396 256 393 286L385 284Q387 289 388.0 295.0Q389 301 390 308Q389 315 388.0 321.5Q387 328 385 334L393 332Q396 361 396 388Q396 412 393.5 440.5Q391 469 385 494Q432 481 480.5 467.5Q529 454 587 441Q578 524 566.0 589.0Q554 654 540.0 709.0Q526 764 511 816Q562 804 619 804Q671 804 728 816Q713 763 698.0 706.5Q683 650 670.5 583.0Q658 516 649 430Q681 424 718.0 419.5Q755 415 797 411Q784 487 768.5 547.5Q753 608 737 666Q788 654 845 654Q851 654 857.0 654.0Q863 654 869 655Q872 684 872 710Q872 734 869.5 762.5Q867 791 861 816Q898 806 935.5 795.5Q973 785 1015 774Q1011 818 1006.0 855.0Q1001 892 995 923Q934 910 884.0 896.5Q834 883 785 870L775 853Q666 926 570.0 962.5Q474 999 399.0 1014.0Q324 1029 276 1035Q262 984 252.0 916.5Q242 849 240 758Q266 761 296.5 766.5Q327 772 362 782Q350 837 335.5 877.0Q321 917 305 949Q356 937 413 937Q465 937 522 949Q499 904 480.0 847.0Q461 790 448.0 713.5Q435 637 428 531L394 533Q390 593 384.5 643.0Q379 693 372 734Q293 690 246.5 647.5Q200 605 166 565Q162 592 156.5 617.5Q151 643 143 666Q135 690 124.0 714.5Q113 739 100 759Q117 758 135.0 756.5Q153 755 174 755Q182 755 190.5 755.0Q199 755 208 756Q206 873 191.5 953.0Q177 1033 157.5 1087.5Q138 1142 118 1181Q169 1169 226 1169Q278 1169 335 1181Q320 1152 306.0 1119.5Q292 1087 279 1046Q313 1080 338 1119Q353 1142 365.5 1166.0Q378 1190 388 1217Q427 1148 525.0 1069.5Q623 991 783 884Q787 905 788.5 929.0Q790 953 790 972Q790 996 787.5 1024.5Q785 1053 779 1078Q824 1066 869.5 1053.0Q915 1040 968 1028Q960 1055 950.5 1078.0Q941 1101 931 1120Q982 1108 1039 1108Q1077 1108 1114 1114L1111 1120L1129 1116L1148 1120L1145 1114Q1181 1108 1219 1108Q1271 1108 1328 1120Q1314 1092 1301.0 1059.5Q1288 1027 1277 989Q1322 986 1373 986Q1371 995 1368.0 1004.0Q1365 1013 1362 1022Q1413 1010 1470 1010Q1522 1010 1579 1022Q1560 962 1541.0 892.5Q1522 823 1508 723H1525V699H1504Q1492 605 1486 478H1453Q1450 543 1445.5 597.0Q1441 651 1435 698Q1314 695 1225.0 684.5Q1136 674 1068.5 659.5Q1001 645 944 629Q930 579 916.5 524.5Q903 470 892 405Q912 404 932.5 403.5Q953 403 975 402V376L887 373Q883 344 879.0 312.5Q875 281 871 246Q895 245 921.0 244.0Q947 243 975 242V216Q947 215 920.0 214.5Q893 214 868 212Q865 181 863.5 147.0Q862 113 860 76Q918 68 989.5 62.0Q1061 56 1150 54V28Q1032 25 944.5 16.0Q857 7 790.0 -6.5Q723 -20 668.0 -35.0Q613 -50 560 -64ZM1157 998Q1150 1021 1143.5 1041.5Q1137 1062 1129 1080Q1114 1046 1102 1005Q1115 1003 1129.0 1001.5Q1143 1000 1157 998ZM1432 724Q1422 798 1408.5 854.5Q1395 911 1381 960Q1351 960 1323.0 959.0Q1295 958 1269 956Q1259 912 1250.5 858.0Q1242 804 1237 736Q1321 727 1432 724ZM1197 741Q1193 805 1185.5 856.0Q1178 907 1169 949Q1147 947 1125.5 944.0Q1104 941 1084 939Q1077 902 1070.5 859.0Q1064 816 1059 764Q1090 758 1124.0 752.0Q1158 746 1197 741ZM818 249Q815 281 811.5 310.5Q808 340 804 367Q757 363 716.5 357.5Q676 352 641 346Q640 328 638.5 310.0Q637 292 636 272Q675 265 720.0 259.5Q765 254 818 249ZM600 279 597 338Q563 331 533.5 324.0Q504 317 476 309Q505 301 535.5 293.5Q566 286 600 279Z" />
  </g>
</svg>