<svg xmlns="http://www.w3.org/2000/svg" viewBox="100 -420 2432 1537">
  <g transform="translate(0, 697) scale(1, -1)">
    <path fill="black" d="M2117 500 2102 556Q2020 573 1922.0 589.5Q1824 606 1723 606Q1733 620 1740.5 638.5Q1748 657 1748 669V676H1746L1748 679Q1748 685 1747.5 691.0Q1747 697 1746 703L1758 696Q1772 722 1772 749Q1772 755 1771.5 761.0Q1771 767 1770 773L1789 764Q1803 794 1803 823Q1803 828 1802.5 833.0Q1802 838 1801 843Q1806 840 1812.0 837.0Q1818 834 1824 830Q1838 858 1838 887Q1838 893 1838.0 898.5Q1838 904 1836 910Q1841 908 1845.5 905.5Q1850 903 1854 900Q1866 926 1867 951Q1845 977 1819.0 1006.0Q1793 1035 1760 1066Q1787 1070 1807.5 1083.0Q1828 1096 1846 1117Q1852 1099 1857.0 1077.5Q1862 1056 1872.5 1026.5Q1883 997 1904 953Q1918 945 1936.5 936.0Q1955 927 1980 916Q1959 965 1941.5 1000.0Q1924 1035 1912 1051Q1950 1051 1985.5 1056.0Q2021 1061 2058 1074Q2057 1067 2056.5 1058.0Q2056 1049 2056 1038Q2056 990 2065.5 905.5Q2075 821 2093.5 717.0Q2112 613 2139 504ZM2015 826Q2011 838 2007.0 849.5Q2003 861 1998 872Q1948 877 1891 878Q1912 867 1941.0 854.0Q1970 841 2015 826ZM718 -68Q720 -55 720.0 -40.5Q720 -26 720 -13Q720 32 713.0 80.0Q706 128 692 176Q689 131 687.5 87.0Q686 43 684 0H656V13Q568 63 481.0 105.0Q394 147 317.5 177.5Q241 208 184.0 225.0Q127 242 100 243Q131 281 156.0 324.0Q181 367 200 411Q181 455 156.0 498.0Q131 541 100 579Q124 580 173.0 594.0Q222 608 288.0 633.0Q354 658 430.5 693.0Q507 728 586 770Q580 802 574.5 828.5Q569 855 563 876Q614 864 671 864Q723 864 780 876Q760 802 740 667Q766 657 823.5 646.0Q881 635 961.5 626.0Q1042 617 1137.0 611.0Q1232 605 1332 604Q1352 645 1366.5 692.0Q1381 739 1392 781Q1433 741 1506.0 699.5Q1579 658 1675.0 617.0Q1771 576 1880.5 535.0Q1990 494 2104.0 455.0Q2218 416 2327.5 379.5Q2437 343 2532 309L2519 284L2523 254L1851 174Q1808 169 1762.0 163.0Q1716 157 1669 149Q1671 127 1673.0 102.5Q1675 78 1679 51L1658 46Q1647 100 1634 144L1564 132Q1565 110 1567.5 85.0Q1570 60 1574 33L1552 28Q1547 55 1541.0 79.5Q1535 104 1529 126L1459 114Q1461 92 1462.5 67.0Q1464 42 1468 16L1447 10Q1442 37 1436.0 61.5Q1430 86 1424 108Q1407 104 1389.0 101.0Q1371 98 1354 94Q1356 72 1358.0 48.5Q1360 25 1364 -1L1342 -7Q1337 19 1331.0 42.5Q1325 66 1319 88L1249 73Q1251 30 1258 -19L1237 -24Q1232 1 1226.5 23.5Q1221 46 1215 66Q1104 43 1006.5 19.0Q909 -5 834.5 -27.0Q760 -49 718 -68ZM2046 741 2025 799Q1988 804 1947.0 808.0Q1906 812 1857 813Q1885 799 1929.0 781.5Q1973 764 2046 741ZM2073 657Q2069 673 2063.5 688.5Q2058 704 2053 719Q2001 730 1946.5 737.0Q1892 744 1827 745Q1863 729 1921.0 707.0Q1979 685 2073 657ZM655 47Q651 170 641.5 295.0Q632 420 619.5 533.5Q607 647 592 735Q519 688 455.0 640.0Q391 592 339.0 548.0Q287 504 252.0 468.5Q217 433 203 411Q219 387 260.0 346.5Q301 306 361.5 255.5Q422 205 497.0 151.0Q572 97 655 47ZM2097 575 2079 636Q2014 649 1942.0 659.5Q1870 670 1801 674Q1842 656 1913.0 631.5Q1984 607 2097 575ZM998 157Q1087 157 1184 160Q1168 198 1153.0 226.5Q1138 255 1124 275Q1130 274 1136.0 273.5Q1142 273 1148 273Q1194 273 1236 286Q1234 288 1232.5 291.0Q1231 294 1229 296Q1235 295 1241.0 294.5Q1247 294 1253 294H1259L1270 299L1269 294Q1286 296 1303.5 299.0Q1321 302 1340 308Q1337 311 1333 317Q1338 316 1344.5 316.0Q1351 316 1357 316H1365L1376 320L1375 316Q1413 319 1445 329L1439 338H1471L1480 342L1479 339Q1515 340 1551 351Q1549 353 1547.5 356.0Q1546 359 1544 361Q1550 360 1556.5 359.5Q1563 359 1570 359H1576L1586 363L1585 359Q1611 361 1637.0 366.5Q1663 372 1691 385Q1681 354 1674.5 303.0Q1668 252 1668 196V189Q1709 193 1749.5 197.5Q1790 202 1828 206L2500 285Q2361 330 2218.5 368.5Q2076 407 1939.0 438.0Q1802 469 1680.5 492.5Q1559 516 1461.0 531.0Q1363 546 1300 552Q1305 558 1310.0 565.5Q1315 573 1319 580Q1219 579 1125.5 571.5Q1032 564 953.0 553.5Q874 543 818.0 531.5Q762 520 738 509Q742 528 743.5 547.0Q745 566 745 585Q745 622 739 659Q724 556 712.0 432.5Q700 309 692 181Q738 172 817.5 164.5Q897 157 998 157ZM483 231Q480 324 468.0 387.5Q456 451 440.0 495.0Q424 539 408 571Q429 566 453.0 563.5Q477 561 499 561Q521 561 543.5 563.5Q566 566 590 571Q571 536 554.0 491.5Q537 447 525.0 384.5Q513 322 510 233ZM1562 180Q1577 182 1592.0 183.0Q1607 184 1622 185Q1610 223 1597.5 254.0Q1585 285 1573 309Q1569 282 1565.5 249.0Q1562 216 1562 180ZM1458 173Q1472 174 1486.0 175.0Q1500 176 1514 177Q1491 246 1468 289Q1464 264 1461.5 234.5Q1459 205 1458 173ZM1353 167 1404 170Q1394 199 1384.0 223.5Q1374 248 1363 267Q1359 245 1356.5 220.5Q1354 196 1353 167ZM1248 162Q1259 163 1271.0 163.0Q1283 163 1295 164Q1285 189 1276.0 210.0Q1267 231 1258 248Q1254 229 1251.5 208.0Q1249 187 1248 162ZM1846 -420Q1828 -399 1807.5 -386.0Q1787 -373 1760 -369Q1793 -337 1819.0 -308.5Q1845 -280 1867 -254Q1866 -229 1854 -203Q1850 -206 1845.5 -208.5Q1841 -211 1836 -213Q1838 -207 1838.0 -201.5Q1838 -196 1838 -190Q1838 -161 1824 -133Q1818 -137 1812.0 -140.0Q1806 -143 1801 -146Q1802 -141 1802.5 -136.0Q1803 -131 1803 -126Q1803 -97 1789 -67L1770 -76Q1771 -70 1771.5 -64.0Q1772 -58 1772 -52Q1772 -25 1758 1L1746 -6Q1747 0 1747.5 6.0Q1748 12 1748 18L1746 21H1748V28Q1748 39 1741.0 58.5Q1734 78 1723 91Q1824 91 1922.0 107.5Q2020 124 2102 141L2117 197L2139 193Q2112 85 2093.5 -19.5Q2075 -124 2065.5 -208.0Q2056 -292 2056 -341Q2056 -352 2056.5 -361.0Q2057 -370 2058 -377Q2021 -363 1985.5 -358.5Q1950 -354 1912 -354Q1924 -337 1941.5 -302.5Q1959 -268 1980 -219Q1955 -229 1936.5 -238.5Q1918 -248 1904 -256Q1883 -300 1872.5 -329.5Q1862 -359 1857.0 -380.0Q1852 -401 1846 -420ZM1801 23Q1870 27 1942.0 37.5Q2014 48 2079 61L2097 122Q1984 91 1913.0 66.0Q1842 41 1801 23ZM1827 -48Q1892 -46 1946.5 -39.0Q2001 -32 2053 -22Q2058 -7 2063.5 8.5Q2069 24 2073 40Q1979 12 1921.0 -9.5Q1863 -31 1827 -48ZM1857 -116Q1906 -114 1947.0 -110.5Q1988 -107 2025 -102L2046 -44Q1973 -66 1929.0 -84.0Q1885 -102 1857 -116ZM1891 -181Q1948 -180 1998 -175Q2003 -164 2007.0 -152.5Q2011 -141 2015 -129Q1970 -144 1941.0 -157.0Q1912 -170 1891 -181Z" />
  </g>
</svg>