<svg xmlns="http://www.w3.org/2000/svg" viewBox="100 -507 1740 1700">
  <g transform="translate(0, 686) scale(1, -1)">
    <path fill="black" d="M798 853Q789 875 778.0 894.0Q767 913 755 930Q742 949 727.0 965.0Q712 981 695 995Q724 1002 767.5 1017.5Q811 1033 861.5 1054.0Q912 1075 964.0 1098.5Q1016 1122 1063.0 1146.5Q1110 1171 1144 1193L1156 1178Q1123 1154 1082.0 1120.5Q1041 1087 998.5 1050.0Q956 1013 917.0 976.0Q878 939 846.5 907.0Q815 875 798 853ZM632 -244Q616 -188 590.5 -131.0Q565 -74 532 -34L553 -31Q493 2 425.0 37.0Q357 72 292.5 103.5Q228 135 177.0 157.5Q126 180 100 187Q131 226 155.5 262.5Q180 299 201 339Q214 320 245.5 289.0Q277 258 320.5 219.0Q364 180 414.0 138.0Q464 96 514.0 55.0Q564 14 608 -21Q646 -13 690.5 -2.5Q735 8 786 21V272Q701 262 634.0 250.5Q567 239 528 228Q534 254 537.0 283.0Q540 312 540 339Q540 366 537.0 397.0Q534 428 528 456Q567 445 634.0 433.5Q701 422 786 411V665Q735 679 690.5 689.5Q646 700 608 707Q564 672 514.0 631.0Q464 590 414.0 548.0Q364 506 320.5 467.0Q277 428 245.5 397.0Q214 366 201 347Q180 388 155.5 424.0Q131 460 100 499Q126 506 177.0 528.5Q228 551 292.5 582.5Q357 614 425.0 649.0Q493 684 553 717L532 720Q565 760 590.5 817.0Q616 874 632 930Q672 889 749.5 841.0Q827 793 930.5 742.5Q1034 692 1152.5 640.0Q1271 588 1393.0 538.5Q1515 489 1630.0 443.5Q1745 398 1840 359L1835 343L1840 327Q1745 289 1630.0 243.0Q1515 197 1393.0 147.5Q1271 98 1152.5 46.0Q1034 -6 930.5 -56.5Q827 -107 749.5 -154.5Q672 -202 632 -244ZM886 400V638Q846 650 808 659V409ZM986 390V610Q966 615 946.5 621.0Q927 627 908 632V397Q927 396 946.5 394.0Q966 392 986 390ZM1086 381V580Q1067 586 1047.5 592.0Q1028 598 1008 603V388Q1028 386 1047.5 384.5Q1067 383 1086 381ZM1186 373V549Q1147 563 1108 573V379ZM1286 367V518Q1267 524 1247.5 530.5Q1228 537 1208 543V372Q1228 371 1247.5 369.5Q1267 368 1286 367ZM1386 362V486Q1367 492 1347.5 498.5Q1328 505 1308 511V366Q1328 365 1347.5 364.0Q1367 363 1386 362ZM1486 358V453Q1467 459 1447.5 465.5Q1428 472 1408 478V361ZM1586 356V419Q1567 426 1547.5 432.0Q1528 438 1508 445V357Q1528 356 1547.5 356.0Q1567 356 1586 356ZM1608 355H1768Q1729 369 1689.0 383.0Q1649 397 1608 411ZM1608 275Q1647 289 1686.0 302.5Q1725 316 1762 329H1608ZM1508 241Q1528 248 1547.5 254.0Q1567 260 1586 267V328Q1567 328 1547.5 327.5Q1528 327 1508 326ZM1408 208Q1428 214 1447.5 220.5Q1467 227 1486 233V326L1408 323ZM1308 175Q1328 181 1347.5 187.5Q1367 194 1386 200V322Q1367 321 1347.5 320.0Q1328 319 1308 318ZM1208 143Q1228 149 1247.5 155.5Q1267 162 1286 168V316Q1267 315 1247.5 314.0Q1228 313 1208 311ZM1108 113Q1147 124 1186 137V310L1108 304ZM1008 83Q1028 88 1047.5 94.0Q1067 100 1086 106V302Q1067 301 1047.5 299.0Q1028 297 1008 295ZM908 54Q927 59 946.5 65.0Q966 71 986 76V293Q966 292 946.5 290.0Q927 288 908 286ZM808 27Q846 36 886 48V283Q866 282 846.5 279.5Q827 277 808 275ZM1144 -507Q1110 -485 1063.0 -460.5Q1016 -436 964.0 -412.0Q912 -388 861.5 -367.5Q811 -347 767.5 -331.5Q724 -316 695 -309Q712 -295 727.0 -279.0Q742 -263 755 -244Q767 -227 778.0 -208.0Q789 -189 798 -167Q815 -189 846.5 -221.0Q878 -253 917.0 -290.0Q956 -327 998.5 -364.0Q1041 -401 1082.0 -434.5Q1123 -468 1156 -492Z" />
  </g>
</svg>