<svg xmlns="http://www.w3.org/2000/svg" viewBox="100 -217 1593 1347">
  <g transform="translate(0, 913) scale(1, -1)">
    <path fill="black" d="M583 -217 568 -190 895 -5Q847 -12 799.5 -21.0Q752 -30 732 -40Q733 -26 734.0 -11.0Q735 4 735 19Q735 28 734.5 37.5Q734 47 732 57Q745 52 779.5 46.0Q814 40 859.0 34.0Q904 28 945 24Q952 29 959 32Q958 50 957.5 68.0Q957 86 955 104Q929 101 896.5 96.0Q864 91 831.5 85.0Q799 79 772.5 72.5Q746 66 732 60Q733 74 734.0 89.0Q735 104 735 119Q735 128 734.5 137.5Q734 147 732 157Q745 152 782.0 145.0Q819 138 866.0 132.5Q913 127 954 123Q953 143 952.5 163.0Q952 183 950 203Q915 199 871.0 192.0Q827 185 788.5 177.0Q750 169 732 160Q733 174 734.0 189.0Q735 204 735 219Q735 228 734.5 237.5Q734 247 732 257Q745 252 781.0 245.5Q817 239 862.5 233.5Q908 228 949 224Q948 244 947.0 263.5Q946 283 944 302Q909 298 866.0 291.0Q823 284 786.5 276.0Q750 268 732 260Q733 274 734.0 289.0Q735 304 735 319Q735 328 734.5 337.5Q734 347 732 357Q745 352 779.0 346.0Q813 340 857.5 334.0Q902 328 943 324L937 401Q902 397 861.0 390.0Q820 383 784.5 375.5Q749 368 732 360Q733 374 734.0 389.0Q735 404 735 419Q735 428 734.5 437.5Q734 447 732 457Q745 452 778.0 446.0Q811 440 853.0 434.5Q895 429 935 425L929 500Q894 496 854.5 489.5Q815 483 782.0 475.5Q749 468 732 460Q733 474 734.0 489.0Q735 504 735 519Q735 526 735.0 532.5Q735 539 734 546Q729 458 724.0 353.5Q719 249 714.0 136.5Q709 24 703 -88H684Q680 5 675.0 105.0Q670 205 664.0 303.0Q658 401 650.5 487.5Q643 574 634.5 642.0Q626 710 616 749Q606 683 597.0 600.5Q588 518 579.5 425.5Q571 333 564.5 238.0Q558 143 553.5 51.5Q549 -40 547 -120H514Q512 -32 507.0 68.0Q502 168 495.0 271.0Q488 374 479.5 471.5Q471 569 461.0 653.5Q451 738 440 799Q406 780 365.0 754.5Q324 729 284.0 702.0Q244 675 211.5 651.0Q179 627 160 610Q180 591 217.0 564.0Q254 537 298.0 508.0Q342 479 385.5 452.5Q429 426 463 408L453 388Q418 404 369.5 419.5Q321 435 269.0 448.0Q217 461 172.0 470.0Q127 479 100 482Q120 508 135.5 541.0Q151 574 158 610Q151 645 135.5 678.5Q120 712 100 737Q126 740 167.5 748.0Q209 756 257.5 768.0Q306 780 353.0 794.5Q400 809 436 824Q433 839 430.0 852.5Q427 866 424 876Q475 864 532 864Q584 864 641 876Q635 856 629.5 827.0Q624 798 619 763Q636 759 651.5 757.5Q667 756 682 756Q701 756 719.0 758.5Q737 761 755 765Q751 743 748.0 715.5Q745 688 742 654Q766 647 815.5 639.5Q865 632 916 627Q911 673 905.0 708.5Q899 744 892 765Q930 756 962 756Q968 756 974.0 756.0Q980 756 985 757Q857 814 750.5 855.5Q644 897 576 914Q600 936 623.5 974.0Q647 1012 668.0 1054.5Q689 1097 704 1130Q734 1086 795.5 1031.5Q857 977 940.0 916.5Q1023 856 1119.5 792.5Q1216 729 1316.0 666.5Q1416 604 1511.0 546.0Q1606 488 1686 438L1670 412Q1646 426 1622.0 439.5Q1598 453 1573 466Q1440 539 1300.0 608.5Q1160 678 1031 737Q1024 686 1018.5 611.5Q1013 537 1008.0 446.5Q1003 356 999.0 255.0Q995 154 990 50Q1052 87 1113.0 123.5Q1174 160 1230 196Q1217 282 1199.0 347.0Q1181 412 1164 446Q1215 434 1272 434Q1324 434 1381 446Q1365 415 1349.5 366.5Q1334 318 1321 256Q1409 315 1475.0 369.0Q1541 423 1573 466Q1588 433 1607.0 390.0Q1626 347 1648.5 308.0Q1671 269 1693 246Q1628 231 1525.5 196.0Q1423 161 1299 111Q1292 56 1288.5 -4.0Q1285 -64 1285 -129H1255Q1255 -71 1252.0 -16.0Q1249 39 1244 89Q1183 64 1117.5 36.0Q1052 8 986 -22L983 -88H964Q963 -74 963.0 -60.0Q963 -46 962 -33Q865 -76 769.0 -123.0Q673 -170 583 -217ZM927 526Q925 546 923.0 564.0Q921 582 919 599Q886 595 849.5 588.5Q813 582 782.5 575.0Q752 568 735 561V556Q749 552 779.5 546.0Q810 540 849.5 535.0Q889 530 927 526ZM453 -142Q418 -126 369.5 -110.5Q321 -95 269.0 -82.0Q217 -69 172.0 -60.0Q127 -51 100 -48Q120 -22 135.5 11.0Q151 44 158 80Q151 115 135.5 148.5Q120 182 100 207Q127 210 172.0 219.0Q217 228 269.0 241.0Q321 254 369.5 269.5Q418 285 453 301L463 281Q429 263 385.5 237.0Q342 211 298.0 181.5Q254 152 217.0 125.0Q180 98 160 80Q180 61 217.0 34.0Q254 7 298.0 -22.0Q342 -51 385.5 -77.5Q429 -104 463 -122Z" />
  </g>
</svg>