<svg xmlns="http://www.w3.org/2000/svg" viewBox="100 -110 1409 846">
  <g transform="translate(0, 626) scale(1, -1)">
    <path fill="black" d="M1379 -110Q1379 -21 1375.5 59.5Q1372 140 1366 212Q1339 235 1313.5 256.5Q1288 278 1264 297Q1163 186 1101.5 97.0Q1040 8 994 -64Q980 -40 965.5 -20.5Q951 -1 934 18Q917 37 897.5 54.5Q878 72 858 85L901 107Q766 98 667.5 83.0Q569 68 531 54Q534 69 536.0 83.5Q538 98 538 113Q538 130 536.5 150.0Q535 170 530 190Q557 181 617.5 170.5Q678 160 765.0 152.0Q852 144 955 139V246Q853 241 767.0 231.5Q681 222 620.0 211.0Q559 200 531 190Q534 205 536.0 219.5Q538 234 538 249Q538 266 536.5 286.0Q535 306 530 326H531Q534 340 536.0 354.5Q538 369 538 384Q538 401 536.5 421.0Q535 441 530 461Q557 452 617.5 442.0Q678 432 765.0 423.5Q852 415 955 410V515L950 517Q849 512 763.5 502.5Q678 493 618.0 482.0Q558 471 531 461Q534 476 536.0 490.5Q538 505 538 520Q538 537 536.5 557.0Q535 577 530 597Q565 585 662.5 571.0Q760 557 893 549Q884 554 875.0 558.5Q866 563 858 567Q899 594 934 634Q951 653 965.5 672.5Q980 692 994 716Q1040 644 1101.5 555.0Q1163 466 1264 355Q1283 370 1302.5 386.0Q1322 402 1342 419Q1326 518 1308.5 596.5Q1291 675 1274 736Q1300 730 1332.0 727.0Q1364 724 1391 724Q1418 724 1449.5 727.0Q1481 730 1509 736Q1486 653 1462.0 534.0Q1438 415 1421.5 255.5Q1405 96 1405 -110ZM474 26Q416 82 372.0 122.0Q328 162 293.5 192.0Q259 222 228.5 245.5Q198 269 167.5 291.5Q137 314 100 340Q146 373 184.0 401.0Q222 429 261.5 462.0Q301 495 351.5 541.5Q402 588 474 657L506 631Q468 572 437.5 522.5Q407 473 380.5 429.0Q354 385 326 340Q353 296 379.5 252.0Q406 208 437.0 159.0Q468 110 506 50ZM985 155Q1038 187 1098.0 229.0Q1158 271 1228 326Q1158 382 1098.0 423.5Q1038 465 985 497ZM1362 253Q1359 288 1355.0 320.5Q1351 353 1347 384Q1332 369 1318.5 354.5Q1305 340 1291 326Q1308 308 1325.5 290.0Q1343 272 1362 253ZM955 275V381Q853 376 767.0 366.5Q681 357 620.5 346.0Q560 335 532 325Q560 316 620.5 306.0Q681 296 767.0 288.0Q853 280 955 275Z" />
  </g>
</svg>