<svg xmlns="http://www.w3.org/2000/svg" viewBox="100 -423 1850 1532">
  <g transform="translate(0, 686) scale(1, -1)">
    <path fill="black" d="M559 -423Q535 -398 507 -380Q479 -362 446 -348L472 -325Q428 -301 380.0 -279.5Q332 -258 290.0 -241.5Q248 -225 222 -218Q235 -207 245.5 -194.0Q256 -181 266 -167Q275 -153 283.0 -138.5Q291 -124 298 -107Q314 -128 345.5 -161.5Q377 -195 416.0 -232.5Q455 -270 493 -304Q520 -275 553.0 -238.0Q586 -201 618.5 -161.5Q651 -122 678 -87Q661 -56 642 -34L662 -31Q594 7 515.5 47.0Q437 87 368 120Q347 83 322.5 33.0Q298 -17 275.0 -69.0Q252 -121 235.5 -164.0Q219 -207 213 -231Q189 -206 161 -188Q133 -170 100 -156Q119 -142 150.0 -109.5Q181 -77 217.5 -35.0Q254 7 289.0 50.0Q324 93 351 128Q305 150 267.5 165.5Q230 181 210 187Q241 226 265.5 262.5Q290 299 311 339Q324 320 355.5 289.0Q387 258 430.5 219.0Q474 180 524.0 138.0Q574 96 624.0 55.0Q674 14 717 -21Q793 -6 898.5 21.5Q1004 49 1128.5 85.5Q1253 122 1386.5 164.5Q1520 207 1653.5 252.5Q1787 298 1910 343Q1787 388 1653.5 433.0Q1520 478 1386.5 520.5Q1253 563 1128.5 599.5Q1004 636 899.0 664.0Q794 692 717 707Q674 672 624.0 631.0Q574 590 524.0 548.0Q474 506 430.5 467.0Q387 428 355.5 397.0Q324 366 311 347Q290 388 265.5 424.0Q241 460 210 499Q230 504 267.5 520.0Q305 536 351 558Q324 593 289.0 635.5Q254 678 217.5 720.0Q181 762 150.0 795.0Q119 828 100 842Q133 856 161 874Q189 892 213 917Q219 893 235.5 849.5Q252 806 275.0 754.5Q298 703 322.5 652.5Q347 602 368 565Q437 598 515.5 639.0Q594 680 662 717L642 720Q661 742 678 773Q651 808 618.5 847.5Q586 887 553.0 924.5Q520 962 493 990Q455 957 416.0 919.5Q377 882 345.5 848.5Q314 815 298 793Q291 810 282.5 824.5Q274 839 266 853Q257 868 246.0 880.5Q235 893 222 904Q248 911 290.0 927.5Q332 944 380.0 966.0Q428 988 472 1011L446 1034Q479 1048 507 1066Q535 1084 559 1109Q564 1088 577.5 1052.0Q591 1016 610.0 972.0Q629 928 650.0 882.5Q671 837 691 798Q707 830 719.5 863.5Q732 897 742 930Q782 889 859.5 841.0Q937 793 1040.5 742.5Q1144 692 1262.5 640.0Q1381 588 1503.0 538.5Q1625 489 1740.0 443.5Q1855 398 1950 359V327Q1855 289 1740.0 243.0Q1625 197 1503.0 147.5Q1381 98 1262.5 46.0Q1144 -6 1040.5 -56.5Q937 -107 859.5 -154.5Q782 -202 742 -244Q732 -211 719.5 -177.0Q707 -143 692 -112Q672 -151 650.5 -196.5Q629 -242 610.5 -286.0Q592 -330 578.0 -366.0Q564 -402 559 -423ZM790 54Q790 203 779.0 316.0Q768 429 752 511Q722 458 700.5 416.5Q679 375 659 341Q675 316 702.5 275.0Q730 234 768 184L751 170Q681 232 632.5 271.0Q584 310 542 341Q563 359 595.5 388.0Q628 417 666.0 454.5Q704 492 739 532L748 527Q743 553 737.5 575.0Q732 597 727 616Q744 612 761.5 610.0Q779 608 797 608Q814 608 832.5 610.0Q851 612 870 616Q848 533 827.5 395.5Q807 258 807 54ZM842 265Q846 282 847.5 301.5Q849 321 849 341Q849 361 847.5 381.0Q846 401 842 421Q879 406 921.5 390.0Q964 374 1023.5 363.5Q1083 353 1170 353V333Q1086 333 1029.5 323.5Q973 314 929.5 298.5Q886 283 842 265Z" />
  </g>
</svg>