<svg xmlns="http://www.w3.org/2000/svg" viewBox="100 -423 1850 1532">
  <g transform="translate(0, 686) scale(1, -1)">
    <path fill="black" d="M559 -423Q535 -398 507 -380Q479 -362 446 -348L472 -325Q428 -301 380.0 -279.5Q332 -258 290.0 -241.5Q248 -225 222 -218Q235 -207 245.5 -194.0Q256 -181 266 -167Q275 -153 283.0 -138.5Q291 -124 298 -107Q314 -128 345.5 -161.5Q377 -195 416.0 -232.5Q455 -270 493 -304Q520 -275 553.0 -238.0Q586 -201 618.5 -161.5Q651 -122 678 -87Q661 -56 642 -34L662 -31Q594 7 515.5 47.0Q437 87 368 120Q347 83 322.5 33.0Q298 -17 275.0 -69.0Q252 -121 235.5 -164.0Q219 -207 213 -231Q189 -206 161 -188Q133 -170 100 -156Q119 -142 150.0 -109.5Q181 -77 217.5 -35.0Q254 7 289.0 50.0Q324 93 351 128Q305 150 267.5 165.5Q230 181 210 187Q241 226 265.5 262.5Q290 299 311 339Q324 320 355.5 289.0Q387 258 430.5 219.0Q474 180 524.0 138.0Q574 96 624.0 55.0Q674 14 717 -21Q793 -6 898.5 21.5Q1004 49 1128.5 85.5Q1253 122 1386.5 164.5Q1520 207 1653.5 252.5Q1787 298 1910 343Q1787 388 1653.5 433.0Q1520 478 1386.5 520.5Q1253 563 1128.5 599.5Q1004 636 899.0 664.0Q794 692 717 707Q674 672 624.0 631.0Q574 590 524.0 548.0Q474 506 430.5 467.0Q387 428 355.5 397.0Q324 366 311 347Q290 388 265.5 424.0Q241 460 210 499Q230 504 267.5 520.0Q305 536 351 558Q324 593 289.0 635.5Q254 678 217.5 720.0Q181 762 150.0 795.0Q119 828 100 842Q133 856 161 874Q189 892 213 917Q219 893 235.5 849.5Q252 806 275.0 754.5Q298 703 322.5 652.5Q347 602 368 565Q437 598 515.5 639.0Q594 680 662 717L642 720Q661 742 678 773Q651 808 618.5 847.5Q586 887 553.0 924.5Q520 962 493 990Q455 957 416.0 919.5Q377 882 345.5 848.5Q314 815 298 793Q291 810 282.5 824.5Q274 839 266 853Q257 868 246.0 880.5Q235 893 222 904Q248 911 290.0 927.5Q332 944 380.0 966.0Q428 988 472 1011L446 1034Q479 1048 507 1066Q535 1084 559 1109Q564 1088 577.5 1052.0Q591 1016 610.0 972.0Q629 928 650.0 882.5Q671 837 691 798Q707 830 719.5 863.5Q732 897 742 930Q782 889 859.5 841.0Q937 793 1040.5 742.5Q1144 692 1262.5 640.0Q1381 588 1503.0 538.5Q1625 489 1740.0 443.5Q1855 398 1950 359V327Q1855 289 1740.0 243.0Q1625 197 1503.0 147.5Q1381 98 1262.5 46.0Q1144 -6 1040.5 -56.5Q937 -107 859.5 -154.5Q782 -202 742 -244Q732 -211 719.5 -177.0Q707 -143 692 -112Q672 -151 650.5 -196.5Q629 -242 610.5 -286.0Q592 -330 578.0 -366.0Q564 -402 559 -423ZM1084 146Q1087 161 1087 177Q1087 192 1084 207Q1089 206 1093.0 205.0Q1097 204 1101 203Q1101 211 1100.5 219.0Q1100 227 1100 234Q1074 232 1054.5 228.0Q1035 224 1013 217Q1015 225 1015.0 231.0Q1015 237 1015 243Q1015 248 1015.0 253.0Q1015 258 1014 264H1013V268Q1015 274 1015.0 279.5Q1015 285 1015 290Q1015 295 1015.0 299.5Q1015 304 1014 310H1013V314Q1015 320 1015.0 325.0Q1015 330 1015 335Q1015 340 1015.0 345.0Q1015 350 1013 356V360Q1015 367 1015.0 372.0Q1015 377 1015 382Q1015 388 1015.0 394.0Q1015 400 1013 407Q1032 401 1049.0 397.0Q1066 393 1087 391Q1086 404 1083.0 416.0Q1080 428 1077 440Q1092 437 1107 437Q1123 437 1138 440Q1135 429 1132.0 415.5Q1129 402 1127 388H1194V375Q1173 375 1156.0 375.0Q1139 375 1125 374L1121 343Q1136 342 1154.0 341.5Q1172 341 1194 341V329Q1171 329 1153.0 329.0Q1135 329 1120 328L1117 297Q1133 296 1151.5 295.5Q1170 295 1194 295V283Q1170 283 1151.0 282.5Q1132 282 1116 281Q1116 274 1116.0 266.5Q1116 259 1115 251Q1131 250 1150.0 249.5Q1169 249 1194 249V237Q1169 237 1150.0 236.5Q1131 236 1114 235L1113 200Q1170 189 1238.0 186.0Q1306 183 1369 183V242Q1340 240 1318.0 236.0Q1296 232 1273 225Q1275 232 1275.0 237.5Q1275 243 1275 249Q1275 254 1275.0 259.0Q1275 264 1274 271H1273L1274 273L1273 276L1274 275Q1275 281 1275.5 286.5Q1276 292 1276 297Q1276 302 1275.5 306.5Q1275 311 1274 317H1273L1274 319L1273 322L1274 321Q1275 327 1275.5 332.5Q1276 338 1276 343Q1276 348 1275.5 352.5Q1275 357 1274 363H1273L1274 365L1273 368L1274 367Q1275 374 1275.0 379.5Q1275 385 1275 389Q1275 395 1275.0 401.0Q1275 407 1273 414Q1295 407 1315.0 403.0Q1335 399 1362 397Q1361 415 1358.5 431.5Q1356 448 1354 463Q1309 463 1261.5 460.5Q1214 458 1172.5 453.0Q1131 448 1101 440Q1103 448 1103.0 455.5Q1103 463 1103 470Q1103 478 1103.0 486.0Q1103 494 1101 501Q1154 486 1220.5 481.5Q1287 477 1351 476Q1350 484 1348.5 491.0Q1347 498 1345 504Q1353 503 1360.5 502.5Q1368 502 1376 502Q1384 502 1391.5 502.5Q1399 503 1406 504Q1404 497 1402.5 488.0Q1401 479 1399 468V464H1398Q1396 449 1394.0 431.5Q1392 414 1390 396Q1404 395 1421.5 395.0Q1439 395 1458 395V382Q1438 382 1420.5 382.0Q1403 382 1389 381Q1388 374 1388.0 365.5Q1388 357 1387 349H1458V336Q1436 336 1418.5 336.0Q1401 336 1386 335Q1385 327 1385.0 319.5Q1385 312 1385 304Q1400 303 1418.0 303.0Q1436 303 1458 303V290Q1436 290 1417.5 290.0Q1399 290 1384 289L1383 258Q1399 257 1417.5 256.5Q1436 256 1458 256V244Q1436 244 1417.0 243.5Q1398 243 1383 243Q1382 227 1382.0 212.0Q1382 197 1382 183V170Q1333 170 1277.0 168.0Q1221 166 1170.0 161.0Q1119 156 1084 146ZM497 203Q486 221 471.5 236.5Q457 252 435 266Q461 280 488.0 299.5Q515 319 551 350Q515 382 488.5 402.0Q462 422 431 441Q450 452 465.5 466.0Q481 480 495 501Q509 473 528.0 443.5Q547 414 578 373Q604 395 633.5 423.0Q663 451 700 487L708 479Q672 437 645.0 405.5Q618 374 598 348Q618 323 644.0 292.0Q670 261 702 223L695 215Q658 250 630.0 277.0Q602 304 579 325Q551 288 532.5 261.0Q514 234 497 203ZM777 203Q766 221 751.5 236.5Q737 252 715 266Q741 280 768.0 299.5Q795 319 831 350Q795 382 768.5 402.0Q742 422 711 441Q730 452 745.5 466.0Q761 480 775 501Q789 473 808.0 443.5Q827 414 858 373Q884 395 913.5 423.0Q943 451 980 487L988 479Q952 437 925.0 405.5Q898 374 878 348Q898 323 924.0 292.0Q950 261 982 223L975 215Q938 250 910.0 277.0Q882 304 859 325Q831 288 812.5 261.0Q794 234 777 203ZM1365 351 1364 380Q1339 378 1320.0 374.5Q1301 371 1281 365Q1301 360 1320.5 356.5Q1340 353 1365 351ZM1094 344Q1093 352 1092.5 358.5Q1092 365 1090 372Q1053 368 1021 358Q1054 348 1094 344ZM1367 305 1366 334Q1341 332 1321.0 328.5Q1301 325 1281 319Q1319 308 1367 305ZM1098 298 1095 326Q1054 322 1021 312Q1040 307 1057.5 303.5Q1075 300 1098 298ZM1369 258Q1369 266 1368.5 273.5Q1368 281 1368 288Q1342 286 1321.5 282.5Q1301 279 1281 273Q1301 267 1321.5 263.5Q1342 260 1369 258ZM1100 252Q1100 259 1099.5 266.0Q1099 273 1099 280Q1076 279 1058.0 275.0Q1040 271 1021 266Q1056 255 1100 252Z" />
  </g>
</svg>