<svg xmlns="http://www.w3.org/2000/svg" viewBox="100 -423 1850 1532">
  <g transform="translate(0, 686) scale(1, -1)">
    <path fill="black" d="M559 -423Q535 -398 507 -380Q479 -362 446 -348L472 -325Q428 -301 380.0 -279.5Q332 -258 290.0 -241.5Q248 -225 222 -218Q235 -207 245.5 -194.0Q256 -181 266 -167Q275 -153 283.0 -138.5Q291 -124 298 -107Q314 -128 345.5 -161.5Q377 -195 416.0 -232.5Q455 -270 493 -304Q520 -275 553.0 -238.0Q586 -201 618.5 -161.5Q651 -122 678 -87Q661 -56 642 -34L662 -31Q594 7 515.5 47.0Q437 87 368 120Q347 83 322.5 33.0Q298 -17 275.0 -69.0Q252 -121 235.5 -164.0Q219 -207 213 -231Q189 -206 161 -188Q133 -170 100 -156Q119 -142 150.0 -109.5Q181 -77 217.5 -35.0Q254 7 289.0 50.0Q324 93 351 128Q305 150 267.5 165.5Q230 181 210 187Q241 226 265.5 262.5Q290 299 311 339Q324 320 355.5 289.0Q387 258 430.5 219.0Q474 180 524.0 138.0Q574 96 624.0 55.0Q674 14 717 -21Q793 -6 898.5 21.5Q1004 49 1128.5 85.5Q1253 122 1386.5 164.5Q1520 207 1653.5 252.5Q1787 298 1910 343Q1787 388 1653.5 433.0Q1520 478 1386.5 520.5Q1253 563 1128.5 599.5Q1004 636 899.0 664.0Q794 692 717 707Q674 672 624.0 631.0Q574 590 524.0 548.0Q474 506 430.5 467.0Q387 428 355.5 397.0Q324 366 311 347Q290 388 265.5 424.0Q241 460 210 499Q230 504 267.5 520.0Q305 536 351 558Q324 593 289.0 635.5Q254 678 217.5 720.0Q181 762 150.0 795.0Q119 828 100 842Q133 856 161 874Q189 892 213 917Q219 893 235.5 849.5Q252 806 275.0 754.5Q298 703 322.5 652.5Q347 602 368 565Q437 598 515.5 639.0Q594 680 662 717L642 720Q661 742 678 773Q651 808 618.5 847.5Q586 887 553.0 924.5Q520 962 493 990Q455 957 416.0 919.5Q377 882 345.5 848.5Q314 815 298 793Q291 810 282.5 824.5Q274 839 266 853Q257 868 246.0 880.5Q235 893 222 904Q248 911 290.0 927.5Q332 944 380.0 966.0Q428 988 472 1011L446 1034Q479 1048 507 1066Q535 1084 559 1109Q564 1088 577.5 1052.0Q591 1016 610.0 972.0Q629 928 650.0 882.5Q671 837 691 798Q707 830 719.5 863.5Q732 897 742 930Q782 889 859.5 841.0Q937 793 1040.5 742.5Q1144 692 1262.5 640.0Q1381 588 1503.0 538.5Q1625 489 1740.0 443.5Q1855 398 1950 359V327Q1855 289 1740.0 243.0Q1625 197 1503.0 147.5Q1381 98 1262.5 46.0Q1144 -6 1040.5 -56.5Q937 -107 859.5 -154.5Q782 -202 742 -244Q732 -211 719.5 -177.0Q707 -143 692 -112Q672 -151 650.5 -196.5Q629 -242 610.5 -286.0Q592 -330 578.0 -366.0Q564 -402 559 -423ZM1256 158Q1256 166 1256.0 174.0Q1256 182 1255 190Q1193 211 1149.5 221.5Q1106 232 1074.5 236.5Q1043 241 1016.5 242.5Q990 244 962 245Q987 288 992 334Q1015 318 1036.5 303.0Q1058 288 1086.0 272.5Q1114 257 1154.5 240.0Q1195 223 1255 202Q1255 237 1253.0 269.0Q1251 301 1248 330Q1224 328 1199.0 324.0Q1174 320 1154.5 316.0Q1135 312 1128 309Q1129 316 1129.0 323.0Q1129 330 1129 337Q1129 345 1129.0 351.5Q1129 358 1128 365Q1139 361 1175.0 354.5Q1211 348 1247 344Q1243 379 1239.0 408.5Q1235 438 1230 463Q1169 440 1125.5 419.0Q1082 398 1050.5 378.5Q1019 359 992 340Q988 387 962 430Q994 432 1031.0 435.5Q1068 439 1115.5 448.5Q1163 458 1227 477Q1224 491 1220.5 504.5Q1217 518 1214 529Q1225 527 1236.5 525.5Q1248 524 1260 524Q1272 524 1284.0 525.5Q1296 527 1309 529Q1299 495 1290.0 449.0Q1281 403 1275 341H1285V333H1275Q1271 295 1269.0 251.5Q1267 208 1267 158ZM601 150Q601 193 598 242Q561 235 530.5 227.5Q500 220 473 212Q480 237 480 269Q480 283 478.5 298.0Q477 313 473 328Q499 321 528.5 313.5Q558 306 595 299L590 369Q556 362 527.5 355.5Q499 349 473 341Q477 355 478.5 369.0Q480 383 480 397Q480 412 478.5 427.0Q477 442 473 457Q498 450 524.5 443.0Q551 436 584 430Q580 470 576.0 496.0Q572 522 570 525Q584 522 604 522Q625 522 643 525Q658 522 679 522Q699 522 717 525Q731 522 751 522Q772 522 790 525Q804 522 825 522Q845 522 863 525Q860 521 855.5 488.0Q851 455 846 407Q863 406 880.5 406.0Q898 406 917 406V392Q898 392 880.0 392.0Q862 392 845 391L836 278Q855 278 875.5 277.5Q896 277 917 277V263Q895 263 875.0 263.0Q855 263 835 262Q832 202 832 150H821Q821 175 820.0 203.5Q819 232 817 262L762 259Q759 201 759 150H748Q748 174 747.0 201.5Q746 229 744 258Q729 257 715.5 256.0Q702 255 689 253Q687 225 686.0 199.0Q685 173 685 150H674Q674 197 671 252Q656 250 642.0 248.0Q628 246 615 244Q612 195 612 150ZM806 408Q802 455 797.5 487.5Q793 520 790 524Q787 520 782.5 488.0Q778 456 773 409ZM733 412Q729 458 724.0 489.0Q719 520 716 524Q714 520 709.5 489.5Q705 459 701 414Q709 413 717.0 413.0Q725 413 733 412ZM659 419Q655 462 650.5 491.0Q646 520 643 524Q640 520 636.5 492.0Q633 464 628 423Q636 422 643.5 421.0Q651 420 659 419ZM816 278Q815 307 812.5 335.5Q810 364 808 390L771 388Q769 363 767.0 336.0Q765 309 763 281ZM743 282Q742 309 739.5 335.0Q737 361 735 386Q725 386 715.5 385.5Q706 385 697 384Q696 361 694.0 336.5Q692 312 690 286ZM669 288Q668 312 666.0 335.0Q664 358 662 380Q652 379 642.5 377.5Q633 376 624 374L617 295Q630 294 643.0 292.0Q656 290 669 288Z" />
  </g>
</svg>