<svg xmlns="http://www.w3.org/2000/svg" viewBox="100 -235 2015 1129">
  <g transform="translate(0, 659) scale(1, -1)">
    <path fill="black" d="M1351 -235Q1331 -180 1302.0 -124.5Q1273 -69 1237 -32Q1315 -19 1387.5 4.0Q1460 27 1534.5 59.0Q1609 91 1692.0 132.0Q1775 173 1873.5 222.5Q1972 272 2093 330Q1958 394 1850.5 448.0Q1743 502 1653.5 545.5Q1564 589 1482.5 621.5Q1401 654 1318 674Q1307 629 1295.5 585.5Q1284 542 1273.5 489.5Q1263 437 1254.5 366.5Q1246 296 1241.0 199.0Q1236 102 1236 -31H1211Q1211 56 1209.5 126.5Q1208 197 1204 253Q1182 228 1149.5 212.5Q1117 197 1079 197Q1044 197 1013.0 211.0Q982 225 959 249Q989 194 1043.0 129.5Q1097 65 1192 -20L1176 -41Q1089 21 1024.0 57.5Q959 94 910.0 113.0Q861 132 820 140Q839 154 856.0 171.0Q873 188 888 206Q898 218 907.0 231.5Q916 245 924 258Q877 227 827.5 190.5Q778 154 738.5 122.0Q699 90 681 71Q677 88 671.0 103.5Q665 119 657 134Q650 149 640.5 163.0Q631 177 620 192Q640 195 675.5 205.0Q711 215 754.0 229.5Q797 244 842.5 261.0Q888 278 928 294Q912 328 912 364Q912 397 925 428Q885 444 840.0 460.5Q795 477 752.5 492.0Q710 507 675.0 516.5Q640 526 620 529Q631 544 640.0 558.0Q649 572 657 587Q674 618 681 650Q699 632 737.0 601.0Q775 570 823.0 534.5Q871 499 917 467Q904 542 882.0 594.0Q860 646 839 686Q862 681 886.0 678.5Q910 676 933 676Q981 676 1028 686Q1003 648 986.0 597.0Q969 546 957 479Q980 504 1011.5 518.0Q1043 532 1079 532Q1133 532 1176 501Q1165 554 1152.5 595.5Q1140 637 1129 686Q1152 680 1176.5 677.0Q1201 674 1224 674Q1257 674 1293 680Q1279 683 1265.0 686.0Q1251 689 1237 691Q1273 729 1302.0 784.0Q1331 839 1351 894Q1425 806 1541.0 713.0Q1657 620 1804.0 528.0Q1951 436 2115 349L2104 330L2115 310Q1951 224 1804.0 131.5Q1657 39 1541.0 -54.0Q1425 -147 1351 -235ZM161 71Q157 88 151.0 103.5Q145 119 137 134Q130 149 120.5 163.0Q111 177 100 192Q121 195 158.0 205.5Q195 216 240.0 231.5Q285 247 332.0 265.0Q379 283 420 299Q425 314 428.5 330.5Q432 347 432 364Q432 381 429.0 396.5Q426 412 421 426Q381 442 335.0 459.0Q289 476 245.5 491.0Q202 506 166.5 516.0Q131 526 110 529Q121 544 130.0 558.0Q139 572 147 587Q164 618 171 650Q189 632 226.5 601.0Q264 570 312.0 534.5Q360 499 406 468Q396 493 396 507Q396 519 405.5 525.5Q415 532 439 532Q467 532 506.5 523.5Q546 515 587.5 499.5Q629 484 665.5 463.0Q702 442 724.5 417.0Q747 392 747 364Q747 336 724.5 311.0Q702 286 665.5 265.5Q629 245 587.5 229.5Q546 214 506.5 205.5Q467 197 439 197Q415 197 405.5 203.5Q396 210 396 222Q396 236 406 259Q359 228 309.0 191.0Q259 154 219.0 122.0Q179 90 161 71ZM439 237Q460 237 493.0 243.5Q526 250 563.0 261.5Q600 273 632.5 289.0Q665 305 685.5 324.0Q706 343 706 364Q706 385 685.5 404.0Q665 423 632.5 439.0Q600 455 563.0 466.5Q526 478 493.0 484.5Q460 491 439 491Q443 478 451.0 462.0Q459 446 465.5 422.5Q472 399 472 364Q472 329 464.5 303.0Q457 277 449.0 260.5Q441 244 439 237ZM1079 237Q1121 237 1154.0 262.0Q1187 287 1200 324Q1197 354 1194.0 380.0Q1191 406 1188 429Q1172 457 1143.0 474.0Q1114 491 1079 491Q1044 491 1015.0 474.0Q986 457 969.0 428.0Q952 399 952 364Q952 329 969.0 300.0Q986 271 1015.0 254.0Q1044 237 1079 237Z" />
  </g>
</svg>