<svg xmlns="http://www.w3.org/2000/svg" viewBox="100 -237 1120 1149">
  <g transform="translate(0, 675) scale(1, -1)">
    <path fill="black" d="M687 197Q641 197 603.0 219.5Q565 242 542.5 280.0Q520 318 520 364Q520 419 551 461Q524 484 484.0 516.5Q444 549 400.0 583.5Q356 618 314.0 648.5Q272 679 240 699Q247 654 262.5 589.0Q278 524 299.5 453.5Q321 383 346 320L328 314Q313 343 290.5 384.0Q268 425 241.5 470.5Q215 516 188.5 559.0Q162 602 139.0 635.5Q116 669 100 685Q135 693 164.5 703.5Q194 714 220 730Q249 752 270.5 772.5Q292 793 311 818Q323 793 348.0 753.0Q373 713 408.0 665.0Q443 617 482.5 568.0Q522 519 562 476L565 479H564Q572 537 575.5 601.0Q579 665 579 724Q579 785 575.5 834.5Q572 884 567 912Q615 896 664 894Q670 893 675.5 893.0Q681 893 688 893Q694 893 699.5 893.0Q705 893 711 894Q760 896 808 912Q803 884 799.5 834.5Q796 785 796 724Q796 665 800.0 601.0Q804 537 811 479H810L812 477Q852 520 891.5 569.0Q931 618 965.5 666.0Q1000 714 1025.0 753.5Q1050 793 1062 818Q1082 789 1108.0 766.0Q1134 743 1168 718Q1148 709 1115.0 687.0Q1082 665 1042.0 636.0Q1002 607 961.5 575.0Q921 543 885.0 513.5Q849 484 824 462Q838 441 846.5 416.5Q855 392 855 364Q855 318 832.5 280.0Q810 242 772.0 219.5Q734 197 687 197ZM588 499Q632 532 687 532Q743 532 787 499Q779 533 767.0 577.0Q755 621 741.5 668.5Q728 716 714.0 760.5Q700 805 688 839Q675 805 661.0 760.5Q647 716 633.5 669.0Q620 622 608.0 577.5Q596 533 588 499ZM687 237Q722 237 751.0 254.0Q780 271 797.0 300.0Q814 329 814 364Q814 399 797.0 428.0Q780 457 751.0 474.0Q722 491 687 491Q652 491 623.0 474.0Q594 457 577.0 428.0Q560 399 560 364Q560 329 577.0 300.0Q594 271 623.0 254.0Q652 237 687 237ZM1212 74Q1181 84 1136.0 97.0Q1091 110 1040.0 123.0Q989 136 940.0 147.5Q891 159 851.0 166.0Q811 173 788 173Q811 210 825.0 241.5Q839 273 846 307Q866 290 902.0 265.5Q938 241 984.5 213.0Q1031 185 1083.0 157.0Q1135 129 1187 106Q1153 135 1106.5 172.0Q1060 209 1011.5 245.5Q963 282 922.0 310.0Q881 338 857 349Q891 374 916.5 397.0Q942 420 963 449Q975 424 1001.0 383.0Q1027 342 1062.5 293.0Q1098 244 1138.5 194.0Q1179 144 1220 101L1212 94L1220 91ZM606 -237 580 -235Q575 -114 563.5 -31.0Q552 52 537 110Q491 82 438.0 46.0Q385 10 337.0 -25.0Q289 -60 258 -84L253 -80L236 -74Q279 24 313.0 128.5Q347 233 361 341Q424 298 494 283Q477 266 450.0 229.0Q423 192 392.5 145.5Q362 99 332.0 51.0Q302 3 279 -37Q347 30 409.5 105.0Q472 180 521 262Q537 237 557.5 212.5Q578 188 601 170Q635 171 676 182Q653 122 635.5 37.0Q618 -48 610 -176Q655 -93 692.5 -4.5Q730 84 753 176Q779 154 814.5 132.0Q850 110 879 104Q862 91 835.0 62.0Q808 33 776.5 -4.5Q745 -42 713.5 -82.5Q682 -123 654.0 -160.0Q626 -197 607 -224Z" />
  </g>
</svg>