<svg xmlns="http://www.w3.org/2000/svg" viewBox="100 -125 1723 1434">
  <g transform="translate(0, 1184) scale(1, -1)">
    <path fill="black" d="M1112 -125 1092 -104Q1124 -72 1153.5 -41.0Q1183 -10 1211 20Q1183 19 1157.5 16.5Q1132 14 1108 12Q1108 2 1107.5 -8.5Q1107 -19 1107 -30H1081Q1081 -20 1080.5 -10.5Q1080 -1 1080 9Q991 -1 929.0 -13.5Q867 -26 823 -39Q827 -15 829.5 5.0Q832 25 832 43Q832 61 829.5 78.5Q827 96 823 112Q876 99 936.5 87.5Q997 76 1078 68Q1077 91 1076.0 114.5Q1075 138 1074 160Q987 150 927.0 137.5Q867 125 823 112Q827 137 829.5 156.5Q832 176 832 194Q832 212 829.5 230.0Q827 248 823 265Q875 252 933.5 240.5Q992 229 1070 221Q1069 244 1067.0 266.0Q1065 288 1063 310Q981 301 923.5 289.0Q866 277 823 265Q827 289 829.5 308.5Q832 328 832 346Q832 365 829.5 382.5Q827 400 823 416Q873 404 928.5 393.5Q984 383 1056 375L1047 460Q971 450 917.5 438.5Q864 427 823 416Q827 440 829.5 460.0Q832 480 832 498Q832 516 829.5 533.5Q827 551 823 569Q870 557 921.0 546.5Q972 536 1037 528Q1034 550 1030.5 570.0Q1027 590 1024 609Q957 600 909.0 589.5Q861 579 823 569Q827 592 829.5 612.0Q832 632 832 649Q832 669 829.5 686.0Q827 703 823 720Q864 710 908.5 701.0Q953 692 1008 684Q1003 707 997.5 726.5Q992 746 986 762Q1037 750 1091 750Q1145 750 1202 762Q1195 742 1188.0 718.5Q1181 695 1175 667Q1304 658 1499 658H1656Q1648 726 1639.0 785.0Q1630 844 1619 890H870Q808 890 754.0 888.0Q700 886 653 882Q642 758 633.5 625.0Q625 492 622 367H596L593 464H592Q540 585 495.5 678.0Q451 771 412 844Q363 833 320.5 820.5Q278 808 236 797Q242 820 244.5 848.5Q247 877 247 901Q247 925 244.5 953.5Q242 982 236 1007L333 980Q311 1016 289.0 1046.5Q267 1077 246 1105Q235 1052 228.0 983.5Q221 915 221 826H191Q191 961 177.0 1051.0Q163 1141 142.0 1200.0Q121 1259 100 1301Q151 1289 208 1289Q260 1289 317 1301Q298 1263 279.5 1217.0Q261 1171 247 1109Q298 1117 348 1138Q373 1149 396.0 1162.0Q419 1175 444 1191Q450 1139 458.0 1079.0Q466 1019 480 945Q499 941 519.0 938.0Q539 935 560 932Q548 1052 533.0 1150.5Q518 1249 501 1309Q552 1297 606 1297Q660 1297 717 1309Q701 1248 685.5 1146.5Q670 1045 657 922Q704 918 757.5 916.0Q811 914 872 914H1614Q1613 922 1611.0 928.5Q1609 935 1607 942Q1658 930 1712 930Q1766 930 1823 942Q1809 892 1796.5 814.0Q1784 736 1772.5 639.0Q1761 542 1752.0 434.0Q1743 326 1737.0 215.0Q1731 104 1728 0H1702L1701 28H1497Q1436 28 1382.0 27.0Q1328 26 1279 24Q1241 -10 1199.0 -47.0Q1157 -84 1112 -125ZM589 556Q585 636 579.5 716.0Q574 796 566 872Q548 870 531.0 867.5Q514 865 498 862Q513 796 535.5 720.0Q558 644 589 556ZM1499 506H1672Q1669 540 1666.0 572.0Q1663 604 1659 635H1497Q1397 635 1315.0 632.0Q1233 629 1165 624Q1161 599 1156.5 572.5Q1152 546 1147 517Q1216 512 1303.0 509.0Q1390 506 1499 506ZM1478 355Q1528 428 1560 483H1497Q1388 483 1300.0 479.5Q1212 476 1141 470Q1138 445 1135.0 419.5Q1132 394 1130 368Q1198 362 1283.5 358.5Q1369 355 1478 355ZM1684 367Q1682 396 1679.5 425.5Q1677 455 1674 483H1582Q1596 463 1609.0 444.5Q1622 426 1638 409Q1649 398 1660.5 387.5Q1672 377 1684 367ZM1368 204Q1394 238 1417.5 270.0Q1441 302 1462 331Q1359 330 1275.5 326.5Q1192 323 1125 317Q1123 292 1121.5 267.0Q1120 242 1118 216Q1170 212 1231.5 209.0Q1293 206 1368 204ZM1506 203H1694Q1693 232 1691.0 262.0Q1689 292 1687 321Q1647 299 1602.5 270.0Q1558 241 1506 203ZM1499 50H1701Q1700 82 1698.5 114.5Q1697 147 1695 180H1474Q1438 153 1398.0 121.5Q1358 90 1314 53Q1397 50 1499 50ZM1243 56Q1272 88 1297.5 118.5Q1323 149 1347 178Q1279 176 1221.5 172.5Q1164 169 1115 164Q1114 140 1112.5 115.5Q1111 91 1110 65Q1170 59 1243 56Z" />
  </g>
</svg>