<svg xmlns="http://www.w3.org/2000/svg" viewBox="100 -213 2086 949">
  <g transform="translate(0, 523) scale(1, -1)">
    <path fill="black" d="M1959 -213V-180L1671 -87Q1592 -61 1515.0 -42.5Q1438 -24 1365 -12V-136H1338V-8Q1319 -5 1301.0 -2.5Q1283 0 1265 2V-136H1238V4Q1219 6 1201.0 7.0Q1183 8 1165 9V-136H1138V10Q1128 11 1118.5 11.0Q1109 11 1099 11H1065V-136H1038V10Q1019 9 1001.0 8.0Q983 7 965 5V-136H938V3Q831 -8 736.5 -28.5Q642 -49 564.0 -72.5Q486 -96 427.0 -116.5Q368 -137 332 -147Q338 -118 341.0 -88.5Q344 -59 344 -32Q344 -6 341.0 18.5Q338 43 333 67H289Q287 25 286.0 -20.0Q285 -65 285 -112H259Q259 -65 258.0 -20.0Q257 25 255 67H100V93H254Q253 112 252.0 130.5Q251 149 249 167H100V193H247L241 267H100V293H238L229 367H100V393H225Q223 413 220.0 431.0Q217 449 214 467H100V493H209Q196 567 182.0 627.0Q168 687 154 736Q180 730 212.0 727.0Q244 724 271 724Q298 724 329.5 727.0Q361 730 389 736Q376 687 362.0 627.0Q348 567 334 493H384Q389 516 391.5 540.0Q394 564 394 588Q394 615 391.0 645.0Q388 675 382 703Q418 693 471.0 672.5Q524 652 594.0 628.5Q664 605 750.0 585.0Q836 565 938 554V731H965V551Q983 550 1001.0 548.5Q1019 547 1038 546V731H1065V545H1099Q1109 545 1118.5 545.0Q1128 545 1138 546V731H1165V547Q1183 548 1201.0 549.5Q1219 551 1238 552V731H1265V555Q1283 557 1301.0 559.5Q1319 562 1338 565V731H1365V569Q1510 593 1671 643L1863 703L1854 736Q1880 730 1912.0 727.0Q1944 724 1971 724Q1998 724 2029.5 727.0Q2061 730 2089 736Q2077 693 2064.0 631.0Q2051 569 2039 493H2186V467H2035Q2033 449 2030.0 431.0Q2027 413 2025 393H2186V367H2021Q2019 349 2017.0 330.5Q2015 312 2013 293H2186V267H2010Q2009 249 2007.0 230.5Q2005 212 2003 193H2186V167H2001L1995 93H2186V67H1994Q1985 -68 1985 -213ZM1365 493H1904Q1896 544 1887.5 589.0Q1879 634 1870 671L1687 613Q1596 584 1515.5 564.5Q1435 545 1365 532ZM403 493H938V515Q869 523 805.5 531.0Q742 539 674 539Q607 539 537.0 530.0Q467 521 403 493ZM1265 493H1338V527Q1319 524 1300.5 521.5Q1282 519 1265 517ZM1165 493H1238V514Q1199 509 1165 508ZM965 493H1038V507Q1019 508 1000.5 509.5Q982 511 965 512ZM1065 493H1138V507Q1128 506 1117.5 506.0Q1107 506 1096 506H1065ZM1165 393H1238V467H1165ZM965 393H1038V467H965ZM318 393H938V467H330ZM1265 393H1338V467H1265ZM1065 393H1138V467H1065ZM1365 393H1919Q1916 413 1913.5 431.0Q1911 449 1908 467H1365ZM306 293H938V367H315ZM1165 293H1238V367H1165ZM1365 293H1931L1922 367H1365ZM1065 293H1138V367H1065ZM1265 293H1338V367H1265ZM965 293H1038V367H965ZM1165 193H1238V267H1165ZM1265 193H1338V267H1265ZM965 193H1038V267H965ZM1065 193H1138V267H1065ZM296 193H938V267H303Q302 249 300.0 230.5Q298 212 296 193ZM1365 193H1941Q1939 212 1937.5 230.5Q1936 249 1934 267H1365ZM1165 93H1238V167H1165ZM1065 93H1138V167H1065ZM965 93H1038V167H965ZM1265 93H1338V167H1265ZM290 93H938V167H295Q294 149 292.5 130.5Q291 112 290 93ZM1365 93H1949L1943 167H1365ZM1338 29V67H1265V40Q1282 38 1300.5 35.5Q1319 33 1338 29ZM1958 -145Q1957 -90 1955.0 -37.0Q1953 16 1950 67H1365V25Q1435 12 1515.5 -7.5Q1596 -27 1687 -57ZM1238 43V67H1165V48Q1182 47 1200.5 46.0Q1219 45 1238 43ZM1138 49V67H1065V50H1096Q1107 50 1117.5 50.0Q1128 50 1138 49ZM965 44Q983 46 1001.5 47.0Q1020 48 1038 49V67H965ZM624 17Q695 17 774.5 26.0Q854 35 938 42V67H344Q410 36 482.5 26.5Q555 17 624 17Z" />
  </g>
</svg>