<svg xmlns="http://www.w3.org/2000/svg" viewBox="100 -356 1133 1434">
  <g transform="translate(0, 722) scale(1, -1)">
    <path fill="black" d="M314 468Q309 489 295.5 524.5Q282 560 263.0 604.5Q244 649 222.5 695.5Q201 742 179.0 784.5Q157 827 138 858Q128 854 118.5 851.0Q109 848 100 844Q106 870 109.0 901.5Q112 933 112 960Q112 987 109.0 1018.5Q106 1050 100 1078Q192 1042 360.5 1011.0Q529 980 787 975L788 947Q566 943 410.5 919.0Q255 895 157 864Q186 827 225.0 779.5Q264 732 305.0 685.0Q346 638 381.0 601.5Q416 565 437 549Q400 532 369.5 513.5Q339 495 314 468ZM688 -196Q685 -174 675.0 -136.5Q665 -99 650.5 -52.0Q636 -5 619.5 44.0Q603 93 586.0 137.5Q569 182 553 215Q536 207 516.5 202.0Q497 197 476 197Q449 197 424.0 205.5Q399 214 379 228Q360 185 340.0 129.0Q320 73 302.0 16.5Q284 -40 271.5 -87.0Q259 -134 255 -159Q227 -134 195.0 -119.0Q163 -104 124 -91Q143 -73 172.5 -35.0Q202 3 236.5 52.0Q271 101 304.0 151.0Q337 201 362 242Q338 265 323.5 296.5Q309 328 309 364Q309 411 331.5 449.0Q354 487 392.0 509.5Q430 532 476 532Q523 532 561.0 509.5Q599 487 621.5 449.0Q644 411 644 364Q644 321 623.5 284.0Q603 247 568 224Q592 185 625.0 134.5Q658 84 694.0 32.0Q730 -20 762.0 -61.5Q794 -103 815 -124Q874 -61 910.0 -11.0Q946 39 971 81Q922 164 874.0 220.5Q826 277 782.5 318.0Q739 359 704 395Q811 426 895 498Q896 494 897.0 489.5Q898 485 899 480Q952 539 985.0 587.0Q1018 635 1043 675Q999 743 956.0 790.0Q913 837 874.0 873.0Q835 909 803 942Q910 973 994 1045Q1004 1004 1010.5 958.0Q1017 912 1030.0 854.5Q1043 797 1070 720L1093 756Q1119 707 1154.0 665.5Q1189 624 1233 589Q1191 570 1141.5 551.0Q1092 532 1034.0 504.0Q976 476 908 429Q915 391 923.5 346.0Q932 301 948.0 245.0Q964 189 993 117Q1002 132 1010.5 146.0Q1019 160 1028 173Q1054 124 1089.0 82.5Q1124 41 1168 6Q1122 -15 1066.5 -36.5Q1011 -58 945.5 -91.5Q880 -125 803 -183L779 -161Q787 -153 793.5 -146.0Q800 -139 807 -132Q773 -145 743.5 -159.0Q714 -173 688 -196ZM636 468Q611 495 581.0 513.5Q551 532 513 549Q532 563 561.5 593.5Q591 624 626.0 663.5Q661 703 696.5 745.0Q732 787 763.0 825.5Q794 864 814 892L827 882Q808 855 785.5 812.0Q763 769 739.0 719.0Q715 669 694.0 620.0Q673 571 657.5 531.0Q642 491 636 468ZM476 237Q511 237 540.0 254.0Q569 271 586.0 300.0Q603 329 603 364Q603 399 586.0 428.0Q569 457 540.0 474.0Q511 491 476 491Q441 491 412.0 474.0Q383 457 366.0 428.0Q349 399 349 364Q349 329 366.0 300.0Q383 271 412.0 254.0Q441 237 476 237ZM100 -356Q106 -330 109.0 -298.5Q112 -267 112 -240Q112 -213 109.0 -181.5Q106 -150 100 -122Q192 -158 360.5 -189.0Q529 -220 787 -225L788 -253Q530 -258 361.0 -289.0Q192 -320 100 -356Z" />
  </g>
</svg>