<svg xmlns="http://www.w3.org/2000/svg" viewBox="100 -314 2273 1208">
  <g transform="translate(0, 580) scale(1, -1)">
    <path fill="black" d="M1471 -314Q1469 -261 1465.0 -213.5Q1461 -166 1456 -121Q1378 -102 1314.0 -91.0Q1250 -80 1196 -74Q1116 -65 1052.5 -65.0Q989 -65 929 -64V-112H903Q903 -46 901.0 15.5Q899 77 896 134Q765 133 669.0 124.0Q573 115 501.0 101.0Q429 87 371.0 71.5Q313 56 258 41Q264 64 266.5 92.5Q269 121 269 145Q269 166 267.5 190.5Q266 215 261 238Q253 177 246.5 108.0Q240 39 236 -38H200Q189 187 159.0 345.5Q129 504 100 607Q126 601 158.0 598.0Q190 595 217 595Q226 595 236.0 595.0Q246 595 256 596Q255 608 252.5 620.0Q250 632 248 643Q301 629 356.0 613.5Q411 598 478.5 585.0Q546 572 634.0 562.5Q722 553 842 551Q832 605 820.5 651.0Q809 697 798 736Q824 730 856.0 727.0Q888 724 915 724Q957 724 1000 730Q998 734 996.0 738.0Q994 742 992 746Q1054 747 1119.0 747.0Q1184 747 1266 756Q1328 763 1404.0 777.0Q1480 791 1576 816Q1596 855 1609 894Q1683 806 1799.0 713.0Q1915 620 2062.0 528.0Q2209 436 2373 349L2362 330L2373 310Q2209 224 2062.0 131.5Q1915 39 1799.0 -54.0Q1683 -147 1609 -235Q1593 -193 1573.0 -150.0Q1553 -107 1527 -72Q1521 -127 1515.5 -187.0Q1510 -247 1507 -314ZM1452 -89Q1436 48 1414.0 152.0Q1392 256 1371 331Q1397 325 1429.0 322.0Q1461 319 1488 319Q1515 319 1546.5 322.0Q1578 325 1606 331Q1588 265 1568.5 176.5Q1549 88 1533 -25Q1608 -9 1678.5 15.5Q1749 40 1825 73Q1818 190 1800.0 260.0Q1782 330 1771 360Q1754 319 1742.0 276.5Q1730 234 1723.5 183.5Q1717 133 1715 66H1693Q1687 191 1667.5 264.0Q1648 337 1637 365Q1648 362 1660.0 360.5Q1672 359 1683 358Q1673 435 1659.0 482.0Q1645 529 1637 550Q1654 546 1671.5 544.5Q1689 543 1705 543Q1722 543 1737.5 544.0Q1753 545 1769 549V550L1771 549L1773 550V549Q1789 545 1805.0 544.0Q1821 543 1837 543Q1854 543 1870.5 544.5Q1887 546 1903 550Q1794 602 1697.5 637.5Q1601 673 1495 691Q1513 710 1529.0 733.5Q1545 757 1560 783Q1455 750 1378.5 718.5Q1302 687 1245.0 657.5Q1188 628 1141.5 599.5Q1095 571 1050 544Q1046 579 1038.5 613.5Q1031 648 1019 682Q988 563 960.5 383.0Q933 203 929 -48Q951 -2 963.0 44.0Q975 90 980 138Q1023 113 1067.0 86.0Q1111 59 1164.5 30.5Q1218 2 1288.0 -28.0Q1358 -58 1452 -89ZM1848 84Q1950 131 2070.5 192.5Q2191 254 2351 330Q2213 395 2105.0 450.0Q1997 505 1905 549Q1886 505 1874.0 460.0Q1862 415 1855 358Q1868 359 1880.0 360.0Q1892 361 1905 365Q1880 305 1866.0 241.5Q1852 178 1848 84ZM1723 358Q1734 359 1745.5 360.0Q1757 361 1769 364V365L1771 364L1773 365V364Q1794 360 1815 358Q1806 430 1792.5 476.5Q1779 523 1771 545Q1753 502 1741.0 458.0Q1729 414 1723 358ZM894 158Q887 266 874.5 357.5Q862 449 847 525Q740 523 658.0 515.5Q576 508 512.0 496.5Q448 485 396.0 472.0Q344 459 296 446Q287 403 278.5 354.0Q270 305 262 250Q317 235 374.5 219.5Q432 204 503.0 190.5Q574 177 669.0 168.0Q764 159 894 158Z" />
  </g>
</svg>