<svg xmlns="http://www.w3.org/2000/svg" viewBox="100 -459 2232 1531">
  <g transform="translate(0, 613) scale(1, -1)">
    <path fill="black" d="M1601 -110Q1601 -84 1600.5 -56.0Q1600 -28 1599 2Q1487 2 1378.5 -4.5Q1270 -11 1173.5 -22.0Q1077 -33 998.0 -47.5Q919 -62 866 -78Q872 -48 875.5 -20.0Q879 8 879 35Q879 61 875.5 86.0Q872 111 866 136Q864 95 862.5 55.5Q861 16 861 -20H831Q831 62 825 150Q714 147 631.5 139.0Q549 131 485.5 119.0Q422 107 369.5 94.0Q317 81 266 69Q272 89 274.5 115.0Q277 141 277 162Q277 184 274.5 209.5Q272 235 266 257Q316 245 368.5 231.5Q421 218 484.5 206.0Q548 194 630.5 186.0Q713 178 824 175Q819 249 810.5 323.5Q802 398 791 469Q689 466 612.5 457.5Q536 449 476.0 437.5Q416 426 365.5 413.5Q315 401 266 389Q272 409 274.5 435.0Q277 461 277 482V491Q262 434 248.5 365.0Q235 296 225.5 207.5Q216 119 213 0H187Q184 114 175.5 200.0Q167 286 155.0 353.0Q143 420 129.0 475.0Q115 530 100 581Q150 570 201 570Q218 570 234.0 571.5Q250 573 267 575Q266 576 266 577Q268 577 269.5 576.5Q271 576 272 576Q280 577 287.5 578.5Q295 580 302 581L299 569Q358 554 423.5 539.0Q489 524 576.5 512.5Q664 501 787 497Q766 624 738 726Q789 714 843 714Q890 714 939 723L936 738Q993 719 1068 699Q1061 748 1050.5 781.5Q1040 815 1028.0 840.5Q1016 866 1003 891Q1025 886 1049.0 883.5Q1073 881 1097 881Q1144 881 1191 891Q1176 862 1162.5 833.5Q1149 805 1139.0 770.0Q1129 735 1121 686Q1165 676 1214.0 667.0Q1263 658 1318 651Q1312 731 1301.0 787.5Q1290 844 1276.0 885.0Q1262 926 1246 957Q1169 946 1112.5 930.5Q1056 915 1003 901Q1008 919 1010.0 943.0Q1012 967 1012 986Q1012 1006 1010.0 1028.5Q1008 1051 1003 1072Q1043 1061 1084.5 1049.5Q1126 1038 1175.5 1027.5Q1225 1017 1288.5 1009.0Q1352 1001 1436 998V974Q1383 972 1338.5 968.0Q1294 964 1256 958Q1276 954 1296.5 952.5Q1317 951 1338 951Q1385 951 1432 961Q1404 908 1384.0 835.5Q1364 763 1354 647Q1437 638 1529 635Q1525 661 1519.0 683.5Q1513 706 1508 726Q1559 714 1613 714Q1667 714 1724 726Q1710 676 1696.5 598.5Q1683 521 1671.5 428.0Q1660 335 1650.5 238.0Q1641 141 1636.0 51.0Q1631 -39 1631 -110ZM1597 34Q1593 125 1584.5 224.5Q1576 324 1564.0 421.5Q1552 519 1536 601Q1336 597 1185.5 574.5Q1035 552 936 522Q942 552 945.5 580.0Q949 608 949 635Q949 649 948.0 663.0Q947 677 945 691Q929 623 913.0 531.0Q897 439 885.0 337.5Q873 236 867 138Q920 120 997.5 102.0Q1075 84 1171.0 68.5Q1267 53 1375.0 43.5Q1483 34 1597 34ZM2217 0Q2216 41 2214.0 78.5Q2212 116 2210 150Q2106 147 2027.5 138.5Q1949 130 1888.0 118.5Q1827 107 1776.0 94.0Q1725 81 1675 69Q1681 89 1683.5 115.0Q1686 141 1686 162Q1686 184 1683.5 209.5Q1681 235 1675 257Q1724 245 1774.5 232.0Q1825 219 1886.0 207.5Q1947 196 2025.5 187.5Q2104 179 2208 176Q2200 269 2187.5 338.5Q2175 408 2161 466Q2050 460 1970.0 447.0Q1890 434 1827.5 418.5Q1765 403 1706 389Q1712 409 1714.5 435.0Q1717 461 1717 482Q1717 504 1714.5 529.5Q1712 555 1706 577Q1764 563 1825.5 547.5Q1887 532 1965.0 519.5Q2043 507 2152 500Q2147 521 2141.5 541.5Q2136 562 2130 581Q2180 570 2231 570Q2256 570 2281.0 573.0Q2306 576 2332 581Q2317 530 2302.5 475.0Q2288 420 2275.5 352.5Q2263 285 2254.5 199.0Q2246 113 2243 0ZM1325 70 1313 73Q1318 93 1322.0 110.5Q1326 128 1329 144Q1247 173 1173.0 192.0Q1099 211 1046 218Q1074 265 1084 311Q1122 276 1187.5 235.5Q1253 195 1332 157Q1342 210 1345.0 251.0Q1348 292 1349 332Q1367 324 1387 317Q1366 372 1347.5 412.0Q1329 452 1309 484Q1230 446 1176.5 410.5Q1123 375 1084 339Q1074 384 1046 433Q1099 439 1160.0 453.0Q1221 467 1301 495Q1294 506 1285.5 517.5Q1277 529 1269 540Q1317 546 1366 569Q1367 533 1370.0 495.5Q1373 458 1380.0 414.0Q1387 370 1401 312Q1412 309 1423.5 307.0Q1435 305 1446 304Q1413 261 1384.5 208.5Q1356 156 1325 70ZM1003 -459Q1008 -441 1010.0 -417.0Q1012 -393 1012 -374Q1012 -354 1010.0 -331.5Q1008 -309 1003 -288Q1021 -293 1039.0 -298.0Q1057 -303 1076 -308Q1069 -234 1058.0 -188.0Q1047 -142 1033.0 -110.5Q1019 -79 1003 -49Q1025 -54 1049.0 -56.5Q1073 -59 1097 -59Q1144 -59 1191 -49Q1173 -84 1157.5 -118.5Q1142 -153 1131.0 -199.5Q1120 -246 1113 -318Q1155 -328 1205.5 -338.0Q1256 -348 1320 -354Q1314 -265 1302.5 -202.5Q1291 -140 1276.0 -96.5Q1261 -53 1244 -20Q1266 -25 1290.0 -27.5Q1314 -30 1338 -30Q1385 -30 1432 -20Q1412 -57 1396.5 -103.5Q1381 -150 1370.0 -211.5Q1359 -273 1352 -357Q1372 -358 1393.0 -359.5Q1414 -361 1436 -362V-386Q1352 -389 1289.0 -397.0Q1226 -405 1176.5 -415.5Q1127 -426 1085.5 -437.0Q1044 -448 1003 -459Z" />
  </g>
</svg>