<svg xmlns="http://www.w3.org/2000/svg" viewBox="80 -189 1601 1006">
  <g transform="translate(0, 628) scale(1, -1)">
    <path fill="black" d="M437 -189Q437 -143 435.0 -102.5Q433 -62 430 -27Q359 -37 319.0 -49.0Q279 -61 258.0 -73.0Q237 -85 223 -94Q235 -43 235 11Q235 59 226 107Q222 57 218.5 2.0Q215 -53 213 -112L183 -113Q178 58 161.0 193.5Q144 329 122.5 432.5Q101 536 80 610Q106 604 138.0 601.0Q170 598 197 598Q223 598 254.0 601.0Q285 604 313 610Q318 633 320.5 657.0Q323 681 323 706Q323 760 311 817Q337 805 367.5 792.5Q398 780 445.5 768.5Q493 757 569.0 747.5Q645 738 760.5 731.0Q876 724 1044 721Q1067 766 1083 811Q1131 754 1172.5 709.0Q1214 664 1260.0 625.0Q1306 586 1367.0 545.5Q1428 505 1515 456Q1499 558 1481.0 639.0Q1463 720 1446 781Q1472 775 1504.0 772.0Q1536 769 1563 769Q1590 769 1621.5 772.0Q1653 775 1681 781Q1658 698 1634.0 578.5Q1610 459 1593.5 299.0Q1577 139 1577 -67H1551Q1551 31 1547.0 119.5Q1543 208 1535 285Q1460 244 1404.5 209.5Q1349 175 1306.0 142.5Q1263 110 1227.5 77.0Q1192 44 1157.5 5.5Q1123 -33 1083 -80Q1076 -60 1067.5 -39.5Q1059 -19 1049 0H962Q791 0 673.0 -6.0Q555 -12 475 -21Q471 -57 469.0 -99.0Q467 -141 467 -189ZM966 26H1036Q1021 54 1004.5 79.0Q988 104 969 123Q1020 128 1065.0 135.5Q1110 143 1156.5 155.5Q1203 168 1256.0 189.0Q1309 210 1376.5 241.0Q1444 272 1532 317L1520 420Q1435 463 1369.5 493.5Q1304 524 1251.5 544.0Q1199 564 1154.0 576.5Q1109 589 1064.5 596.0Q1020 603 969 608Q986 626 1001.5 648.0Q1017 670 1031 695Q854 695 733.5 688.5Q613 682 537.0 671.5Q461 661 417.0 648.5Q373 636 350.0 624.0Q327 612 313 602Q290 518 266.0 399.0Q242 280 227 120Q248 110 272.5 100.0Q297 90 332.0 80.5Q367 71 419 62Q405 142 385.5 194.5Q366 247 346 286Q397 274 454 274Q506 274 563 286Q540 242 519.5 187.5Q499 133 485 53Q563 43 679.5 36.0Q796 29 966 26ZM1195 197Q1171 197 1161.5 203.5Q1152 210 1152 222Q1152 237 1161.0 259.0Q1170 281 1179.0 307.5Q1188 334 1188 364Q1188 394 1179.0 421.0Q1170 448 1161.0 470.0Q1152 492 1152 507Q1152 519 1161.5 525.5Q1171 532 1195 532Q1252 532 1300.0 509.5Q1348 487 1377.0 449.0Q1406 411 1406 364Q1406 318 1377.0 280.0Q1348 242 1300.0 219.5Q1252 197 1195 197ZM1195 237Q1278 237 1321.5 274.5Q1365 312 1365 364Q1365 417 1321.5 454.0Q1278 491 1195 491Q1199 478 1207.0 462.0Q1215 446 1221.5 422.5Q1228 399 1228 364Q1228 329 1220.5 303.0Q1213 277 1205.0 260.5Q1197 244 1195 237Z" />
  </g>
</svg>