<svg xmlns="http://www.w3.org/2000/svg" viewBox="100 -200 1764 1027">
  <g transform="translate(0, 627) scale(1, -1)">
    <path fill="black" d="M1033 611Q1045 662 1045 716Q1045 770 1033 827Q1059 815 1090.5 801.5Q1122 788 1172.0 775.5Q1222 763 1300.5 753.0Q1379 743 1497.5 737.0Q1616 731 1786 731H1864V705H1772Q1618 705 1506.5 700.5Q1395 696 1317.5 688.0Q1240 680 1190.0 670.0Q1140 660 1110.0 649.5Q1080 639 1062.5 629.0Q1045 619 1033 611ZM1445 -200Q1445 -135 1443.0 -74.0Q1441 -13 1438 43H1076Q955 43 860.0 40.0Q765 37 693 32Q681 -53 681 -172H651Q651 -113 648.0 -63.5Q645 -14 640 27Q556 20 502.5 10.0Q449 0 417.5 -11.0Q386 -22 368.0 -32.5Q350 -43 337 -51Q349 0 349 54Q349 108 337 165Q364 152 398.0 138.0Q432 124 486.5 111.0Q541 98 631 88Q618 164 598.5 215.0Q579 266 560 303Q611 291 668 291Q720 291 777 303Q755 260 735.0 208.0Q715 156 701 81Q774 76 870.0 72.5Q966 69 1090 69H1436Q1430 152 1421.5 225.5Q1413 299 1402 363H1036Q857 363 734.5 357.0Q612 351 534.0 340.5Q456 330 410.5 318.0Q365 306 341.0 294.0Q317 282 302 272Q281 227 262.5 168.5Q244 110 232.5 27.5Q221 -55 221 -172H191Q191 -37 177.0 53.0Q163 143 142.0 202.0Q121 261 100 303Q151 291 208 291Q254 291 303 300Q309 336 309 374Q309 428 297 485Q323 473 354.5 459.5Q386 446 436.0 433.5Q486 421 564.5 411.0Q643 401 761.5 395.0Q880 389 1050 389H1398Q1385 468 1369.5 532.5Q1354 597 1340 648Q1366 642 1398.0 639.0Q1430 636 1457 636Q1484 636 1515.5 639.0Q1547 642 1575 648Q1552 565 1528.0 445.5Q1504 326 1487.5 166.0Q1471 6 1471 -200Z" />
  </g>
</svg>