<svg xmlns="http://www.w3.org/2000/svg" viewBox="100 -234 1735 1041">
  <g transform="translate(0, 573) scale(1, -1)">
    <path fill="black" d="M667 -234Q679 -183 679 -129Q679 -75 667 -18Q675 -21 683.5 -24.5Q692 -28 700 -31Q699 10 698.0 49.0Q697 88 695 125Q622 124 561.0 122.0Q500 120 450 117Q438 51 429.0 -29.0Q420 -109 415 -204H385Q380 -111 372.0 -33.5Q364 44 353 108Q266 98 217.0 84.0Q168 70 142.5 56.0Q117 42 100 31Q112 82 112 136Q112 190 100 247Q126 235 156.5 221.5Q187 208 231.0 195.5Q275 183 341 173Q331 223 319.5 262.5Q308 302 296 332Q347 320 401 320Q428 320 453.5 323.0Q479 326 507 332Q494 301 481.5 258.0Q469 215 458 160Q554 152 694 151Q690 222 684.0 285.0Q678 348 671 405Q539 403 446.5 396.0Q354 389 293.0 378.0Q232 367 194.5 355.0Q157 343 135.5 331.5Q114 320 100 311Q112 362 112 416Q112 470 100 527Q130 512 169.0 496.5Q208 481 269.5 467.0Q331 453 427.0 443.5Q523 434 667 432Q657 506 645.0 569.0Q633 632 620 684Q501 681 417.5 673.5Q334 666 278.5 655.5Q223 645 188.5 633.5Q154 622 134.0 611.0Q114 600 100 591Q112 642 112 696Q112 750 100 807Q129 793 165.5 778.0Q202 763 257.5 749.5Q313 736 399.0 726.0Q485 716 612 713L606 736Q657 724 711 724Q765 724 822 736Q790 618 763.0 427.5Q736 237 732 -42Q766 -54 812.0 -64.5Q858 -75 926.5 -84.0Q995 -93 1096.0 -99.5Q1197 -106 1340.5 -109.5Q1484 -113 1681 -113H1714Q1713 161 1688.5 359.0Q1664 557 1633 684Q1460 682 1336.0 675.0Q1212 668 1126.0 658.5Q1040 649 983.0 637.5Q926 626 888.5 614.0Q851 602 822 590Q834 641 834 695Q834 749 822 806Q851 795 880.0 784.5Q909 774 948.0 764.0Q987 754 1042.0 745.5Q1097 737 1176.0 730.0Q1255 723 1365.0 718.5Q1475 714 1625 712L1619 736Q1670 724 1724 724Q1778 724 1835 736Q1801 611 1773.0 398.5Q1745 186 1745 -122V-139H1681Q1494 -139 1352.5 -143.0Q1211 -147 1108.0 -154.0Q1005 -161 932.5 -170.5Q860 -180 811.0 -190.5Q762 -201 728.0 -212.0Q694 -223 667 -234ZM1076 36Q1082 63 1082 93Q1082 124 1076 155L1083 152Q1083 182 1080 222Q1051 222 1025 219Q1021 181 1018.0 144.0Q1015 107 1015 81H1005Q1005 107 1003.0 143.0Q1001 179 996 216Q979 214 962.5 211.5Q946 209 932 205Q928 170 926.0 137.0Q924 104 924 81H913Q913 104 911.5 135.0Q910 166 906 199Q875 192 853.0 183.5Q831 175 818 170Q824 199 824 228Q824 258 818 289Q830 285 850.5 277.0Q871 269 899 261Q891 321 880 353Q896 349 918 349Q927 349 937.0 350.0Q947 351 957 353Q952 339 947.0 311.5Q942 284 937 252Q962 246 993 243Q989 277 983.5 306.5Q978 336 971 353Q988 349 1009 349Q1018 349 1028.0 350.0Q1038 351 1049 353Q1043 337 1037.5 306.5Q1032 276 1027 239Q1040 238 1053.0 237.5Q1066 237 1079 237Q1078 273 1074.5 312.5Q1071 352 1067 387Q970 384 907.0 364.5Q844 345 818 335Q824 364 824 393Q824 423 818 454Q844 444 906.5 424.5Q969 405 1065 402Q1062 428 1058.5 448.5Q1055 469 1050 480Q1057 479 1063.0 477.5Q1069 476 1076 476Q1082 505 1082 534Q1082 564 1076 595Q1137 577 1241.0 560.5Q1345 544 1490 542L1489 548Q1503 545 1516.0 543.0Q1529 541 1542 541Q1556 541 1570.0 543.0Q1584 545 1599 548Q1581 479 1566.0 348.5Q1551 218 1551 48H1537V88Q1436 88 1346.5 80.0Q1257 72 1187.5 60.5Q1118 49 1076 36ZM1191 493Q1207 493 1223 496L1222 497L1227 496L1231 497V496Q1246 493 1261 493Q1276 493 1292 496L1291 497L1295 496L1300 497L1299 496Q1314 493 1330 493Q1345 493 1360 496V497L1364 496L1369 497L1368 496Q1383 493 1399 493Q1414 493 1429 496V497L1433 496L1437 497V496Q1451 493 1466 493Q1482 493 1500 496L1494 528Q1388 527 1304.5 518.0Q1221 509 1159 496Q1174 493 1191 493ZM1187 130Q1184 173 1181.0 228.0Q1178 283 1174.0 337.5Q1170 392 1165.0 434.5Q1160 477 1154 495Q1132 491 1113.0 486.0Q1094 481 1077 476H1088Q1097 476 1107.0 477.0Q1117 478 1127 480Q1123 467 1118.5 437.5Q1114 408 1109.5 369.5Q1105 331 1102.0 289.5Q1099 248 1097.0 211.5Q1095 175 1094 150Q1134 139 1187 130ZM1537 102Q1535 221 1525.0 319.0Q1515 417 1503 485Q1499 465 1495.0 429.0Q1491 393 1488.0 348.5Q1485 304 1482.5 257.5Q1480 211 1478.0 170.5Q1476 130 1475 103Q1490 103 1505.5 102.5Q1521 102 1537 102ZM1464 104Q1461 138 1458.0 190.5Q1455 243 1451.5 299.5Q1448 356 1443.5 405.0Q1439 454 1433 481Q1428 455 1424.0 407.0Q1420 359 1416.5 302.0Q1413 245 1410.5 193.0Q1408 141 1406 107Q1420 106 1434.5 105.0Q1449 104 1464 104ZM1395 107Q1392 142 1389.5 194.0Q1387 246 1383.0 302.0Q1379 358 1375.0 406.0Q1371 454 1365 481Q1360 456 1355.5 408.5Q1351 361 1347.5 305.5Q1344 250 1342.0 198.5Q1340 147 1338 112Q1352 111 1366.5 109.5Q1381 108 1395 107ZM1326 113Q1323 149 1320.5 200.0Q1318 251 1314.0 306.0Q1310 361 1306.0 407.5Q1302 454 1296 481Q1291 456 1287.0 411.0Q1283 366 1279.5 312.5Q1276 259 1274.0 207.5Q1272 156 1270 118Q1284 117 1298.0 115.5Q1312 114 1326 113ZM1256 120Q1253 159 1250.5 210.0Q1248 261 1244.5 313.5Q1241 366 1237.0 411.0Q1233 456 1227 481Q1223 457 1219.0 414.0Q1215 371 1211.5 319.5Q1208 268 1206.0 217.5Q1204 167 1202 128Q1215 126 1228.5 124.0Q1242 122 1256 120Z" />
  </g>
</svg>