<svg xmlns="http://www.w3.org/2000/svg" viewBox="100 -234 1735 1041">
  <g transform="translate(0, 573) scale(1, -1)">
    <path fill="black" d="M667 -234Q679 -183 679 -129Q679 -75 667 -18Q675 -21 683.5 -24.5Q692 -28 700 -31Q699 10 698.0 49.0Q697 88 695 125Q622 124 561.0 122.0Q500 120 450 117Q438 51 429.0 -29.0Q420 -109 415 -204H385Q380 -111 372.0 -33.5Q364 44 353 108Q266 98 217.0 84.0Q168 70 142.5 56.0Q117 42 100 31Q112 82 112 136Q112 190 100 247Q126 235 156.5 221.5Q187 208 231.0 195.5Q275 183 341 173Q331 223 319.5 262.5Q308 302 296 332Q347 320 401 320Q428 320 453.5 323.0Q479 326 507 332Q494 301 481.5 258.0Q469 215 458 160Q554 152 694 151Q690 222 684.0 285.0Q678 348 671 405Q539 403 446.5 396.0Q354 389 293.0 378.0Q232 367 194.5 355.0Q157 343 135.5 331.5Q114 320 100 311Q112 362 112 416Q112 470 100 527Q130 512 169.0 496.5Q208 481 269.5 467.0Q331 453 427.0 443.5Q523 434 667 432Q657 506 645.0 569.0Q633 632 620 684Q501 681 417.5 673.5Q334 666 278.5 655.5Q223 645 188.5 633.5Q154 622 134.0 611.0Q114 600 100 591Q112 642 112 696Q112 750 100 807Q129 793 165.5 778.0Q202 763 257.5 749.5Q313 736 399.0 726.0Q485 716 612 713L606 736Q657 724 711 724Q765 724 822 736Q790 618 763.0 427.5Q736 237 732 -42Q766 -54 812.0 -64.5Q858 -75 926.5 -84.0Q995 -93 1096.0 -99.5Q1197 -106 1340.5 -109.5Q1484 -113 1681 -113H1714Q1713 161 1688.5 359.0Q1664 557 1633 684Q1460 682 1336.0 675.0Q1212 668 1126.0 658.5Q1040 649 983.0 637.5Q926 626 888.5 614.0Q851 602 822 590Q834 641 834 695Q834 749 822 806Q851 795 880.0 784.5Q909 774 948.0 764.0Q987 754 1042.0 745.5Q1097 737 1176.0 730.0Q1255 723 1365.0 718.5Q1475 714 1625 712L1619 736Q1670 724 1724 724Q1778 724 1835 736Q1801 611 1773.0 398.5Q1745 186 1745 -122V-139H1681Q1494 -139 1352.5 -143.0Q1211 -147 1108.0 -154.0Q1005 -161 932.5 -170.5Q860 -180 811.0 -190.5Q762 -201 728.0 -212.0Q694 -223 667 -234ZM861 24Q860 60 856.5 109.5Q853 159 848.5 210.0Q844 261 838.5 301.5Q833 342 826 359Q838 357 849.5 356.0Q861 355 871 355Q879 355 886.5 355.5Q894 356 901 357Q902 361 902.0 364.5Q902 368 902 372Q902 378 901.5 383.5Q901 389 901 393L898 392Q904 419 904 453Q904 486 898 516Q930 507 963.5 498.5Q997 490 1041.0 483.0Q1085 476 1149.0 471.5Q1213 467 1305 467Q1327 485 1348.0 511.0Q1369 537 1382 564Q1406 532 1437.0 494.5Q1468 457 1517.0 409.0Q1566 361 1645 295Q1565 228 1515.5 179.5Q1466 131 1436.0 94.0Q1406 57 1382 24Q1369 51 1348.0 77.0Q1327 103 1305 121Q1301 121 1298.0 120.5Q1295 120 1292 120L1288 75H1276L1274 120Q1168 118 1099.5 111.0Q1031 104 984.5 93.5Q938 83 898 72Q904 102 904 136Q904 144 904.0 152.5Q904 161 903 168L900 167L901 179L898 196L902 195Q902 203 901.5 211.0Q901 219 900 225V226Q901 232 901.5 240.0Q902 248 902 255Q902 263 901.5 270.0Q901 277 900 283L902 306Q895 267 890.0 216.0Q885 165 881.0 114.0Q877 63 873 24ZM1496 209Q1523 225 1554.0 246.0Q1585 267 1622 294Q1551 346 1499.5 376.0Q1448 406 1407.0 424.5Q1366 443 1328 458V454Q1229 454 1164.5 449.0Q1100 444 1056.5 435.5Q1013 427 980.0 417.0Q947 407 911 396Q932 392 975.0 389.0Q1018 386 1069.5 383.0Q1121 380 1170.5 378.5Q1220 377 1253 376Q1249 402 1246.0 422.0Q1243 442 1238 452Q1251 450 1262.5 448.5Q1274 447 1284 447Q1295 447 1306.0 448.5Q1317 450 1328 452Q1322 438 1318.0 412.5Q1314 387 1310 355Q1328 352 1342 352Q1360 352 1376 355V356Q1399 353 1416 353Q1425 353 1433.0 353.5Q1441 354 1450 355V356Q1473 353 1490 353Q1507 353 1525 356Q1513 326 1507.0 291.0Q1501 256 1496 209ZM1259 317 1255 363Q1222 362 1173.0 360.5Q1124 359 1071.0 356.5Q1018 354 974.5 350.5Q931 347 910 343L909 339Q925 336 957.0 333.0Q989 330 1029.5 327.0Q1070 324 1113.0 322.0Q1156 320 1194.5 319.0Q1233 318 1259 317ZM1422 170Q1449 182 1479 200Q1475 249 1468.5 288.0Q1462 327 1451 353Q1439 322 1433.0 273.0Q1427 224 1422 170ZM1345 137Q1360 143 1375.0 149.5Q1390 156 1406 163Q1402 219 1395.0 272.0Q1388 325 1377 353Q1364 317 1357.5 258.5Q1351 200 1345 137ZM1334 134Q1331 190 1325.0 247.5Q1319 305 1308 340Q1303 291 1299.5 236.5Q1296 182 1293 135Q1303 134 1313.0 134.0Q1323 134 1334 134ZM1265 260 1261 305Q1234 305 1193.5 303.5Q1153 302 1107.5 300.0Q1062 298 1019.5 295.5Q977 293 945.0 290.0Q913 287 901 283Q912 279 943.5 276.0Q975 273 1018.5 270.5Q1062 268 1109.0 265.5Q1156 263 1197.0 262.0Q1238 261 1265 260ZM1269 202 1266 248Q1241 247 1200.0 246.0Q1159 245 1112.5 243.0Q1066 241 1022.5 238.0Q979 235 946.0 232.0Q913 229 901 225Q912 221 944.5 218.0Q977 215 1021.5 212.0Q1066 209 1113.5 207.0Q1161 205 1202.5 203.5Q1244 202 1269 202ZM1273 135 1270 190Q1248 190 1210.5 188.5Q1173 187 1129.0 185.5Q1085 184 1041.5 181.5Q998 179 964 176Q998 166 1038.0 157.5Q1078 149 1134.5 143.0Q1191 137 1273 135Z" />
  </g>
</svg>