<svg xmlns="http://www.w3.org/2000/svg" viewBox="100 -234 1735 1041">
  <g transform="translate(0, 573) scale(1, -1)">
    <path fill="black" d="M667 -234Q679 -183 679 -129Q679 -75 667 -18Q675 -21 683.5 -24.5Q692 -28 700 -31Q699 10 698.0 49.0Q697 88 695 125Q622 124 561.0 122.0Q500 120 450 117Q438 51 429.0 -29.0Q420 -109 415 -204H385Q380 -111 372.0 -33.5Q364 44 353 108Q266 98 217.0 84.0Q168 70 142.5 56.0Q117 42 100 31Q112 82 112 136Q112 190 100 247Q126 235 156.5 221.5Q187 208 231.0 195.5Q275 183 341 173Q331 223 319.5 262.5Q308 302 296 332Q347 320 401 320Q428 320 453.5 323.0Q479 326 507 332Q494 301 481.5 258.0Q469 215 458 160Q554 152 694 151Q690 222 684.0 285.0Q678 348 671 405Q539 403 446.5 396.0Q354 389 293.0 378.0Q232 367 194.5 355.0Q157 343 135.5 331.5Q114 320 100 311Q112 362 112 416Q112 470 100 527Q130 512 169.0 496.5Q208 481 269.5 467.0Q331 453 427.0 443.5Q523 434 667 432Q657 506 645.0 569.0Q633 632 620 684Q501 681 417.5 673.5Q334 666 278.5 655.5Q223 645 188.5 633.5Q154 622 134.0 611.0Q114 600 100 591Q112 642 112 696Q112 750 100 807Q129 793 165.5 778.0Q202 763 257.5 749.5Q313 736 399.0 726.0Q485 716 612 713L606 736Q657 724 711 724Q765 724 822 736Q790 618 763.0 427.5Q736 237 732 -42Q766 -54 812.0 -64.5Q858 -75 926.5 -84.0Q995 -93 1096.0 -99.5Q1197 -106 1340.5 -109.5Q1484 -113 1681 -113H1714Q1713 161 1688.5 359.0Q1664 557 1633 684Q1460 682 1336.0 675.0Q1212 668 1126.0 658.5Q1040 649 983.0 637.5Q926 626 888.5 614.0Q851 602 822 590Q834 641 834 695Q834 749 822 806Q851 795 880.0 784.5Q909 774 948.0 764.0Q987 754 1042.0 745.5Q1097 737 1176.0 730.0Q1255 723 1365.0 718.5Q1475 714 1625 712L1619 736Q1670 724 1724 724Q1778 724 1835 736Q1801 611 1773.0 398.5Q1745 186 1745 -122V-139H1681Q1494 -139 1352.5 -143.0Q1211 -147 1108.0 -154.0Q1005 -161 932.5 -170.5Q860 -180 811.0 -190.5Q762 -201 728.0 -212.0Q694 -223 667 -234ZM1161 -44Q1161 123 1148.0 249.0Q1135 375 1118 466Q1085 407 1061.0 361.0Q1037 315 1015 277Q1032 249 1062.5 203.0Q1093 157 1136 101L1117 86Q1038 156 984.5 199.5Q931 243 884 277Q907 297 943.5 329.5Q980 362 1022.5 403.5Q1065 445 1104 490L1114 484Q1108 513 1102.0 537.0Q1096 561 1090 583Q1128 574 1168 574Q1208 574 1250 583Q1225 491 1202.5 337.5Q1180 184 1180 -44ZM1219 192Q1223 212 1224.5 233.5Q1226 255 1226 277Q1226 299 1224.5 321.5Q1223 344 1219 366Q1260 349 1307.5 331.5Q1355 314 1421.0 302.0Q1487 290 1585 290V267Q1515 267 1462.0 261.0Q1409 255 1368.0 244.5Q1327 234 1291.5 220.5Q1256 207 1219 192Z" />
  </g>
</svg>