<svg xmlns="http://www.w3.org/2000/svg" viewBox="100 -234 1735 1041">
  <g transform="translate(0, 573) scale(1, -1)">
    <path fill="black" d="M667 -234Q679 -183 679 -129Q679 -75 667 -18Q675 -21 683.5 -24.5Q692 -28 700 -31Q699 10 698.0 49.0Q697 88 695 125Q622 124 561.0 122.0Q500 120 450 117Q438 51 429.0 -29.0Q420 -109 415 -204H385Q380 -111 372.0 -33.5Q364 44 353 108Q266 98 217.0 84.0Q168 70 142.5 56.0Q117 42 100 31Q112 82 112 136Q112 190 100 247Q126 235 156.5 221.5Q187 208 231.0 195.5Q275 183 341 173Q331 223 319.5 262.5Q308 302 296 332Q347 320 401 320Q428 320 453.5 323.0Q479 326 507 332Q494 301 481.5 258.0Q469 215 458 160Q554 152 694 151Q690 222 684.0 285.0Q678 348 671 405Q539 403 446.5 396.0Q354 389 293.0 378.0Q232 367 194.5 355.0Q157 343 135.5 331.5Q114 320 100 311Q112 362 112 416Q112 470 100 527Q130 512 169.0 496.5Q208 481 269.5 467.0Q331 453 427.0 443.5Q523 434 667 432Q657 506 645.0 569.0Q633 632 620 684Q501 681 417.5 673.5Q334 666 278.5 655.5Q223 645 188.5 633.5Q154 622 134.0 611.0Q114 600 100 591Q112 642 112 696Q112 750 100 807Q129 793 165.5 778.0Q202 763 257.5 749.5Q313 736 399.0 726.0Q485 716 612 713L606 736Q657 724 711 724Q765 724 822 736Q790 618 763.0 427.5Q736 237 732 -42Q766 -54 812.0 -64.5Q858 -75 926.5 -84.0Q995 -93 1096.0 -99.5Q1197 -106 1340.5 -109.5Q1484 -113 1681 -113H1714Q1713 161 1688.5 359.0Q1664 557 1633 684Q1460 682 1336.0 675.0Q1212 668 1126.0 658.5Q1040 649 983.0 637.5Q926 626 888.5 614.0Q851 602 822 590Q834 641 834 695Q834 749 822 806Q851 795 880.0 784.5Q909 774 948.0 764.0Q987 754 1042.0 745.5Q1097 737 1176.0 730.0Q1255 723 1365.0 718.5Q1475 714 1625 712L1619 736Q1670 724 1724 724Q1778 724 1835 736Q1801 611 1773.0 398.5Q1745 186 1745 -122V-139H1681Q1494 -139 1352.5 -143.0Q1211 -147 1108.0 -154.0Q1005 -161 932.5 -170.5Q860 -180 811.0 -190.5Q762 -201 728.0 -212.0Q694 -223 667 -234ZM1012 -55Q1012 -29 1012.0 -4.5Q1012 20 1010 42Q985 30 970 19Q962 94 930 148Q944 148 962.5 150.0Q981 152 1001 155Q994 217 982.0 265.5Q970 314 954 359Q970 355 986.5 353.5Q1003 352 1020 352Q1037 352 1054.5 353.5Q1072 355 1089 359Q1074 316 1062.0 268.5Q1050 221 1042 162Q1065 167 1090.0 172.0Q1115 177 1142 183Q1135 234 1123.5 276.5Q1112 319 1098 359Q1114 355 1130.5 353.5Q1147 352 1164 352Q1181 352 1198.5 353.5Q1216 355 1234 359Q1220 322 1209.5 281.5Q1199 241 1191 194Q1292 217 1404.5 247.0Q1517 277 1623 306Q1527 333 1424.5 360.0Q1322 387 1227.0 409.5Q1132 432 1054.5 447.0Q977 462 930 464Q962 517 970 592Q998 574 1055.0 547.0Q1112 520 1187.0 488.5Q1262 457 1345.0 424.5Q1428 392 1507.5 363.0Q1587 334 1653 312L1650 306L1653 299Q1587 278 1505.5 248.0Q1424 218 1340.5 185.5Q1257 153 1182 121Q1178 84 1176.5 40.0Q1175 -4 1175 -55H1156Q1156 37 1150 107Q1117 93 1087.5 79.0Q1058 65 1034 53Q1031 5 1031 -55Z" />
  </g>
</svg>