<svg xmlns="http://www.w3.org/2000/svg" viewBox="100 -234 1735 1041">
  <g transform="translate(0, 573) scale(1, -1)">
    <path fill="black" d="M667 -234Q679 -183 679 -129Q679 -75 667 -18Q675 -21 683.5 -24.5Q692 -28 700 -31Q699 10 698.0 49.0Q697 88 695 125Q622 124 561.0 122.0Q500 120 450 117Q438 51 429.0 -29.0Q420 -109 415 -204H385Q380 -111 372.0 -33.5Q364 44 353 108Q266 98 217.0 84.0Q168 70 142.5 56.0Q117 42 100 31Q112 82 112 136Q112 190 100 247Q126 235 156.5 221.5Q187 208 231.0 195.5Q275 183 341 173Q331 223 319.5 262.5Q308 302 296 332Q347 320 401 320Q428 320 453.5 323.0Q479 326 507 332Q494 301 481.5 258.0Q469 215 458 160Q554 152 694 151Q690 222 684.0 285.0Q678 348 671 405Q539 403 446.5 396.0Q354 389 293.0 378.0Q232 367 194.5 355.0Q157 343 135.5 331.5Q114 320 100 311Q112 362 112 416Q112 470 100 527Q130 512 169.0 496.5Q208 481 269.5 467.0Q331 453 427.0 443.5Q523 434 667 432Q657 506 645.0 569.0Q633 632 620 684Q501 681 417.5 673.5Q334 666 278.5 655.5Q223 645 188.5 633.5Q154 622 134.0 611.0Q114 600 100 591Q112 642 112 696Q112 750 100 807Q129 793 165.5 778.0Q202 763 257.5 749.5Q313 736 399.0 726.0Q485 716 612 713L606 736Q657 724 711 724Q765 724 822 736Q790 618 763.0 427.5Q736 237 732 -42Q766 -54 812.0 -64.5Q858 -75 926.5 -84.0Q995 -93 1096.0 -99.5Q1197 -106 1340.5 -109.5Q1484 -113 1681 -113H1714Q1713 161 1688.5 359.0Q1664 557 1633 684Q1460 682 1336.0 675.0Q1212 668 1126.0 658.5Q1040 649 983.0 637.5Q926 626 888.5 614.0Q851 602 822 590Q834 641 834 695Q834 749 822 806Q851 795 880.0 784.5Q909 774 948.0 764.0Q987 754 1042.0 745.5Q1097 737 1176.0 730.0Q1255 723 1365.0 718.5Q1475 714 1625 712L1619 736Q1670 724 1724 724Q1778 724 1835 736Q1801 611 1773.0 398.5Q1745 186 1745 -122V-139H1681Q1494 -139 1352.5 -143.0Q1211 -147 1108.0 -154.0Q1005 -161 932.5 -170.5Q860 -180 811.0 -190.5Q762 -201 728.0 -212.0Q694 -223 667 -234ZM1348 344Q1337 362 1322.5 377.5Q1308 393 1286 407Q1312 421 1339.0 440.5Q1366 460 1402 491Q1366 523 1339.5 543.0Q1313 563 1282 582Q1301 593 1316.5 607.0Q1332 621 1346 642Q1360 614 1379.0 584.5Q1398 555 1429 514Q1455 536 1484.5 564.0Q1514 592 1551 628L1559 620Q1523 578 1496.0 546.5Q1469 515 1449 489Q1469 464 1495.0 433.0Q1521 402 1553 364L1546 356Q1509 391 1481.0 418.0Q1453 445 1430 466Q1402 429 1383.5 402.0Q1365 375 1348 344ZM1068 344Q1057 362 1042.5 377.5Q1028 393 1006 407Q1032 421 1059.0 440.5Q1086 460 1122 491Q1086 523 1059.5 543.0Q1033 563 1002 582Q1021 593 1036.5 607.0Q1052 621 1066 642Q1080 614 1099.0 584.5Q1118 555 1149 514Q1175 536 1204.5 564.0Q1234 592 1271 628L1279 620Q1243 578 1216.0 546.5Q1189 515 1169 489Q1189 464 1215.0 433.0Q1241 402 1273 364L1266 356Q1229 391 1201.0 418.0Q1173 445 1150 466Q1122 429 1103.5 402.0Q1085 375 1068 344ZM1099 -89Q1102 -71 1102 -53Q1102 -35 1099 -17Q1104 -18 1108.5 -19.5Q1113 -21 1118 -22Q1118 -13 1118.0 -4.0Q1118 5 1117 14Q1087 12 1064.0 7.5Q1041 3 1015 -5Q1018 13 1018 25Q1018 31 1018.0 36.5Q1018 42 1016 49H1015L1016 52L1015 55L1016 54Q1017 62 1017.5 68.0Q1018 74 1018 80Q1018 85 1017.5 90.5Q1017 96 1016 103H1015L1016 106L1015 109L1016 108Q1017 115 1017.5 121.0Q1018 127 1018 132Q1018 138 1017.5 144.0Q1017 150 1016 157H1015L1016 160L1015 163L1016 162Q1017 170 1017.5 176.0Q1018 182 1018 188Q1018 201 1015 217Q1038 210 1058.0 205.5Q1078 201 1103 198Q1100 213 1097.0 227.5Q1094 242 1090 256Q1108 253 1126 253Q1144 253 1162 256Q1158 243 1154.5 227.5Q1151 212 1149 195Q1165 195 1184.5 194.5Q1204 194 1227 194V180Q1203 180 1183.0 179.5Q1163 179 1146 178L1142 142Q1160 141 1181.0 140.5Q1202 140 1227 140V126Q1201 126 1179.5 125.5Q1158 125 1140 124L1138 88Q1156 87 1178.0 86.5Q1200 86 1227 86V71Q1199 71 1177.0 71.0Q1155 71 1137 69Q1136 61 1136.0 52.0Q1136 43 1135 34Q1154 33 1176.5 32.5Q1199 32 1227 32V17Q1199 17 1176.0 17.0Q1153 17 1134 15L1133 -25Q1200 -39 1279.5 -42.0Q1359 -45 1433 -46V23Q1399 21 1373.0 16.0Q1347 11 1320 3Q1323 20 1323 32Q1323 37 1322.5 43.5Q1322 50 1321 57H1320L1321 60L1320 63H1321Q1322 70 1322.5 76.0Q1323 82 1323 88Q1323 94 1322.5 99.0Q1322 104 1321 111H1320L1321 114L1320 117H1321Q1322 124 1322.5 130.0Q1323 136 1323 142Q1323 148 1322.5 153.5Q1322 159 1321 165H1320L1321 168L1320 171H1321Q1322 179 1322.5 185.0Q1323 191 1323 196Q1323 209 1320 225Q1346 218 1370.0 213.0Q1394 208 1425 206Q1423 226 1420.5 246.0Q1418 266 1415 283Q1362 283 1307.0 280.0Q1252 277 1202.5 271.0Q1153 265 1118 255Q1121 273 1121 291Q1121 309 1118 327Q1180 310 1258.0 305.0Q1336 300 1412 299Q1411 307 1409.0 315.5Q1407 324 1405 331Q1423 328 1441 328Q1459 328 1477 331Q1471 313 1468 289V284H1467Q1461 248 1458 204Q1475 203 1494.5 203.0Q1514 203 1537 203V188Q1513 188 1493.5 188.0Q1474 188 1457 187L1454 150Q1471 149 1491.5 149.0Q1512 149 1537 149V134Q1512 134 1491.0 133.5Q1470 133 1453 132Q1452 123 1452.0 114.0Q1452 105 1451 96Q1469 95 1490.5 95.0Q1512 95 1537 95V80Q1512 80 1490.0 79.5Q1468 79 1451 78L1449 42Q1468 41 1489.5 40.5Q1511 40 1537 40V26Q1511 26 1489.0 25.5Q1467 25 1449 24Q1449 5 1448.5 -12.0Q1448 -29 1448 -46V-60Q1390 -60 1324.5 -62.5Q1259 -65 1199.5 -71.0Q1140 -77 1099 -89ZM1429 151 1427 185Q1373 181 1330 168Q1353 161 1376.0 157.0Q1399 153 1429 151ZM1110 144Q1109 152 1108.5 160.0Q1108 168 1106 176Q1083 174 1064.0 170.0Q1045 166 1025 160Q1046 154 1065.5 150.0Q1085 146 1110 144ZM1431 97 1430 131Q1400 130 1376.5 125.5Q1353 121 1330 114Q1354 107 1377.0 103.0Q1400 99 1431 97ZM1114 89Q1114 97 1113.5 105.5Q1113 114 1112 122Q1087 120 1066.5 116.0Q1046 112 1025 106Q1046 100 1067.0 95.5Q1088 91 1114 89ZM1432 43V77Q1401 75 1377.5 71.0Q1354 67 1330 60Q1354 53 1377.5 49.0Q1401 45 1432 43ZM1117 35Q1117 43 1116.5 51.5Q1116 60 1116 69Q1089 67 1068.0 62.5Q1047 58 1025 52Q1066 39 1117 35Z" />
  </g>
</svg>