<svg xmlns="http://www.w3.org/2000/svg" viewBox="100 -234 1735 1041">
  <g transform="translate(0, 573) scale(1, -1)">
    <path fill="black" d="M667 -234Q679 -183 679 -129Q679 -75 667 -18Q675 -21 683.5 -24.5Q692 -28 700 -31Q699 10 698.0 49.0Q697 88 695 125Q622 124 561.0 122.0Q500 120 450 117Q438 51 429.0 -29.0Q420 -109 415 -204H385Q380 -111 372.0 -33.5Q364 44 353 108Q266 98 217.0 84.0Q168 70 142.5 56.0Q117 42 100 31Q112 82 112 136Q112 190 100 247Q126 235 156.5 221.5Q187 208 231.0 195.5Q275 183 341 173Q331 223 319.5 262.5Q308 302 296 332Q347 320 401 320Q428 320 453.5 323.0Q479 326 507 332Q494 301 481.5 258.0Q469 215 458 160Q554 152 694 151Q690 222 684.0 285.0Q678 348 671 405Q539 403 446.5 396.0Q354 389 293.0 378.0Q232 367 194.5 355.0Q157 343 135.5 331.5Q114 320 100 311Q112 362 112 416Q112 470 100 527Q130 512 169.0 496.5Q208 481 269.5 467.0Q331 453 427.0 443.5Q523 434 667 432Q657 506 645.0 569.0Q633 632 620 684Q501 681 417.5 673.5Q334 666 278.5 655.5Q223 645 188.5 633.5Q154 622 134.0 611.0Q114 600 100 591Q112 642 112 696Q112 750 100 807Q129 793 165.5 778.0Q202 763 257.5 749.5Q313 736 399.0 726.0Q485 716 612 713L606 736Q657 724 711 724Q765 724 822 736Q790 618 763.0 427.5Q736 237 732 -42Q766 -54 812.0 -64.5Q858 -75 926.5 -84.0Q995 -93 1096.0 -99.5Q1197 -106 1340.5 -109.5Q1484 -113 1681 -113H1714Q1713 161 1688.5 359.0Q1664 557 1633 684Q1460 682 1336.0 675.0Q1212 668 1126.0 658.5Q1040 649 983.0 637.5Q926 626 888.5 614.0Q851 602 822 590Q834 641 834 695Q834 749 822 806Q851 795 880.0 784.5Q909 774 948.0 764.0Q987 754 1042.0 745.5Q1097 737 1176.0 730.0Q1255 723 1365.0 718.5Q1475 714 1625 712L1619 736Q1670 724 1724 724Q1778 724 1835 736Q1801 611 1773.0 398.5Q1745 186 1745 -122V-139H1681Q1494 -139 1352.5 -143.0Q1211 -147 1108.0 -154.0Q1005 -161 932.5 -170.5Q860 -180 811.0 -190.5Q762 -201 728.0 -212.0Q694 -223 667 -234ZM1186 30Q1188 43 1189.0 56.0Q1190 69 1190 83V95H1183Q1183 123 1180 162Q1084 152 1013.0 138.5Q942 125 889 102Q892 117 893.0 134.0Q894 151 894 169Q894 186 893.0 203.5Q892 221 889 239Q933 219 1010.0 201.5Q1087 184 1179 179Q1176 227 1171.0 281.0Q1166 335 1161 375Q1073 365 1006.5 352.0Q940 339 889 317Q891 331 892.5 347.5Q894 364 894 382V402Q891 392 887.0 363.0Q883 334 878.5 293.5Q874 253 870.5 209.0Q867 165 864.5 126.5Q862 88 862 62H851Q851 88 848.5 128.0Q846 168 842.5 213.0Q839 258 834.5 298.5Q830 339 825.5 368.0Q821 397 818 404Q827 403 837.5 401.5Q848 400 859 400Q868 400 877.0 401.0Q886 402 894 404Q893 416 892.0 428.5Q891 441 889 453Q931 434 1002.0 417.5Q1073 401 1158 394Q1154 426 1150 437Q1158 436 1167.0 434.5Q1176 433 1186 433Q1188 445 1189.0 457.0Q1190 469 1190 482Q1190 493 1189.0 506.0Q1188 519 1186 532Q1201 526 1237.0 520.5Q1273 515 1321.0 510.5Q1369 506 1420.0 502.5Q1471 499 1516 496L1515 500Q1526 498 1537.5 497.0Q1549 496 1561 496Q1572 496 1584.0 497.0Q1596 498 1609 500Q1603 485 1598.0 447.5Q1593 410 1588.5 360.0Q1584 310 1581.0 257.0Q1578 204 1575.5 156.5Q1573 109 1572 77Q1541 74 1498.0 70.5Q1455 67 1408.0 63.5Q1361 60 1316.5 55.0Q1272 50 1237.5 44.0Q1203 38 1186 30ZM1558 91Q1555 130 1551.5 182.0Q1548 234 1543.5 289.5Q1539 345 1534.0 394.0Q1529 443 1522 474Q1478 471 1427.0 467.0Q1376 463 1328.0 458.0Q1280 453 1242.5 447.0Q1205 441 1187 433Q1197 433 1207.0 434.0Q1217 435 1227 437Q1224 430 1219.0 395.0Q1214 360 1209.0 312.0Q1204 264 1200.0 214.0Q1196 164 1194 126Q1217 119 1261.5 113.5Q1306 108 1360.5 103.5Q1415 99 1467.5 96.0Q1520 93 1558 91Z" />
  </g>
</svg>