<svg xmlns="http://www.w3.org/2000/svg" viewBox="100 -148 2701 1004">
  <g transform="translate(0, 708) scale(1, -1)">
    <path fill="black" d="M1731 -148Q1701 -105 1663.0 -63.5Q1625 -22 1584 3Q1637 19 1680.5 35.5Q1724 52 1767 75Q1666 156 1571.5 230.5Q1477 305 1406 358Q1298 262 1229.0 192.5Q1160 123 1119.0 73.0Q1078 23 1053.5 -15.5Q1029 -54 1010 -87Q997 -61 981.5 -37.5Q966 -14 949 7Q917 48 874 80Q887 84 900.5 89.0Q914 94 930 101Q929 130 928.5 156.0Q928 182 926 207H497Q496 167 495.5 122.0Q495 77 495 26V15H472V26Q472 77 472.0 122.0Q472 167 471 207H387Q386 160 385.5 107.5Q385 55 385 -4V-15H362V-4Q362 55 362.0 108.0Q362 161 360 207H277Q276 160 275.5 107.5Q275 55 275 -4V-45H252V-4Q252 55 252.0 108.0Q252 161 250 207H167Q166 160 165.5 107.5Q165 55 165 -4V-75H142V-4Q142 150 139.0 262.0Q136 374 127.0 458.0Q118 542 100 611Q118 607 130.0 605.0Q142 603 152 603Q163 603 176.0 605.0Q189 607 210 611Q206 592 201.5 572.5Q197 553 194 533H226Q223 553 219.0 572.5Q215 592 210 611Q228 607 240.0 605.0Q252 603 262 603Q273 603 286.0 605.0Q299 607 320 611Q316 592 311.5 572.5Q307 553 304 533H336Q333 553 329.0 572.5Q325 592 320 611Q338 607 350.0 605.0Q362 603 372 603Q383 603 396.0 605.0Q409 607 430 611Q426 592 421.5 572.5Q417 553 414 533H447Q443 553 439.0 572.5Q435 592 430 611Q448 607 460.0 605.0Q472 603 482 603Q493 603 506.0 605.0Q519 607 540 611Q536 592 531.5 572.5Q527 553 523 533H883Q876 565 869.0 595.5Q862 626 854 655Q898 644 944 644Q952 644 960.5 644.5Q969 645 977 646Q946 663 920.5 672.5Q895 682 874 689Q895 705 913.5 723.0Q932 741 949 762Q983 803 1010 856Q1029 823 1053.5 784.5Q1078 746 1119.0 696.0Q1160 646 1229.0 576.5Q1298 507 1406 411Q1466 456 1535.0 510.0Q1604 564 1683 627Q1637 645 1584 661Q1625 686 1663.0 727.5Q1701 769 1731 812Q1758 759 1788 711L1805 691L1802 689Q1837 637 1889.0 580.5Q1941 524 2024 448Q2014 468 2002.5 486.5Q1991 505 1980 522Q2044 524 2096.5 530.0Q2149 536 2202.5 549.5Q2256 563 2319.5 589.5Q2383 616 2469 660Q2454 727 2439 781Q2465 775 2497.0 772.0Q2529 769 2556 769Q2583 769 2614.5 772.0Q2646 775 2674 781Q2656 716 2637.0 629.5Q2618 543 2603 433H2699Q2693 460 2685 480Q2701 477 2716.0 476.0Q2731 475 2744 475Q2759 475 2773.0 476.0Q2787 477 2801 480Q2785 439 2773.5 374.5Q2762 310 2754 233H2759V207H2751Q2750 189 2749.0 171.0Q2748 153 2746 135H2732Q2731 152 2730.0 170.0Q2729 188 2728 207H2579Q2570 83 2570 -67H2544V-36Q2458 10 2393.0 41.0Q2328 72 2276.0 91.0Q2224 110 2177.5 120.5Q2131 131 2083.5 135.5Q2036 140 1980 142Q1991 159 2002.5 178.0Q2014 197 2024 216Q1958 156 1912.0 108.5Q1866 61 1834.0 19.0Q1802 -23 1778.0 -63.0Q1754 -103 1731 -148ZM2544 -7Q2541 109 2535 207H2391Q2390 189 2389.0 171.0Q2388 153 2386 135H2372Q2370 182 2366.0 233.0Q2362 284 2356.0 332.0Q2350 380 2342.0 419.0Q2334 458 2325 480Q2341 477 2356.0 476.0Q2371 475 2384 475Q2399 475 2413.0 476.0Q2427 477 2441 480Q2437 470 2433.0 458.5Q2429 447 2426 433H2511Q2494 547 2475 633Q2402 593 2348.0 561.5Q2294 530 2254.5 503.0Q2215 476 2184.5 451.0Q2154 426 2126.5 397.5Q2099 369 2069 334V329Q2102 291 2131.5 261.0Q2161 231 2196.0 203.5Q2231 176 2277.0 146.0Q2323 116 2388.0 79.5Q2453 43 2544 -7ZM1081 539Q1097 539 1112.5 540.5Q1128 542 1144 546Q1110 569 1080.5 587.0Q1051 605 1025 620Q1021 603 1017.0 585.0Q1013 567 1008 548Q1044 539 1081 539ZM1640 212Q1637 271 1630.5 332.0Q1624 393 1615.5 443.0Q1607 493 1595 520Q1611 517 1626.0 516.0Q1641 515 1654 515Q1669 515 1683.0 516.0Q1697 517 1711 520Q1707 510 1703.0 497.0Q1699 484 1695 470L2061 363Q2060 369 2057.5 375.0Q2055 381 2053 388Q1973 452 1914.0 495.0Q1855 538 1806.5 567.0Q1758 596 1711 616Q1629 549 1561.0 492.0Q1493 435 1436 385Q1480 346 1531.0 303.0Q1582 260 1640 212ZM1103 197Q1155 230 1221.0 276.0Q1287 322 1371 385Q1309 431 1257.0 468.0Q1205 505 1161 534Q1151 488 1140.0 442.0Q1129 396 1119.5 338.0Q1110 280 1103 197ZM180 433H239Q236 473 230 507H189ZM290 433H349Q346 473 340 507H299ZM985 433H1027L1009 507H999Q995 490 992.0 471.5Q989 453 985 433ZM400 433H460L451 507H409ZM509 433H902Q899 453 896.0 471.5Q893 490 889 507H519Q516 490 513.5 471.5Q511 453 509 433ZM1660 233 2046 343 1689 445Q1679 401 1672.0 346.5Q1665 292 1660 233ZM2406 333H2523Q2520 370 2514 407H2420Q2416 390 2412.5 371.5Q2409 353 2406 333ZM2590 333H2715Q2713 353 2710.0 372.0Q2707 391 2704 407H2599ZM971 333H1046Q1043 354 1039.5 372.5Q1036 391 1032 407H981Q979 390 976.0 371.5Q973 353 971 333ZM282 333H356Q355 353 354.0 371.5Q353 390 351 407H288ZM501 333H916Q914 353 911.5 371.5Q909 390 906 407H507Q505 390 504.0 371.5Q503 353 501 333ZM392 333H467Q466 353 465.0 371.5Q464 390 462 407H398ZM172 333H246Q245 353 244.0 371.5Q243 390 241 407H178ZM1792 88Q1844 118 1905.5 162.5Q1967 207 2053 276Q2058 289 2061.5 301.0Q2065 313 2067 325L1658 205Q1658 200 1657 197Q1684 175 1713.0 151.5Q1742 128 1772 104ZM168 233H250L247 307H171ZM2581 233H2726Q2725 252 2723.0 270.5Q2721 289 2719 307H2588Q2586 289 2584.5 270.5Q2583 252 2581 233ZM2394 233H2533Q2532 252 2530.0 270.5Q2528 289 2526 307H2402Q2400 289 2398.0 271.0Q2396 253 2394 233ZM278 233H360L357 307H281ZM388 233H470Q470 253 469.5 271.5Q469 290 468 307H391ZM497 233H924L918 307H500ZM962 233H1057Q1056 253 1053.5 272.0Q1051 291 1049 307H968ZM955 112Q978 123 1004.5 137.5Q1031 152 1062 171L1059 207H960Q959 185 958.0 161.5Q957 138 955 112Z" />
  </g>
</svg>