<svg xmlns="http://www.w3.org/2000/svg" viewBox="100 -214 2341 1089">
  <g transform="translate(0, 661) scale(1, -1)">
    <path fill="black" d="M1000 -214Q999 -168 994.5 -130.0Q990 -92 985 -61Q860 -68 737.5 -78.0Q615 -88 507.5 -100.0Q400 -112 317.5 -125.0Q235 -138 189 -151Q195 -125 198.0 -96.5Q201 -68 201 -41Q201 16 189 73Q200 70 213.0 67.0Q226 64 241 61Q176 120 100 165Q189 217 297.5 324.5Q406 432 516 581Q506 596 496.0 608.5Q486 621 477 631Q503 637 529.5 646.0Q556 655 580 666Q605 677 627.5 691.5Q650 706 673 723Q682 672 704.5 591.5Q727 511 759.5 412.5Q792 314 831.5 207.0Q871 100 914 -6L973 -9Q963 26 952.5 53.0Q942 80 931 102Q951 97 972.5 95.0Q994 93 1015 93Q1034 93 1054.5 95.0Q1075 97 1096 102H1098Q1117 97 1138.5 95.0Q1160 93 1180 93Q1200 93 1220.0 95.0Q1240 97 1262 102H1264Q1290 96 1305.5 94.5Q1321 93 1345 93Q1365 93 1385.0 95.0Q1405 97 1427 102H1429Q1444 99 1454.0 97.0Q1464 95 1476.5 94.0Q1489 93 1511 93Q1530 93 1550.5 95.0Q1571 97 1592 102H1594Q1608 98 1625.0 95.5Q1642 93 1676 93Q1696 93 1716.0 95.0Q1736 97 1758 102H1760Q1792 95 1809.5 94.0Q1827 93 1841 93Q1861 93 1882.0 95.0Q1903 97 1925 102Q1912 77 1899.5 48.5Q1887 20 1877 -18H2391Q2292 49 2186.0 119.0Q2080 189 1974 257Q1768 256 1621.0 250.0Q1474 244 1374.5 234.5Q1275 225 1210.5 213.0Q1146 201 1104.5 188.0Q1063 175 1032 162Q1044 213 1044 267Q1044 321 1032 378Q1075 365 1110.5 353.0Q1146 341 1186.0 330.5Q1226 320 1283.0 311.5Q1340 303 1424.5 297.0Q1509 291 1632.5 287.5Q1756 284 1932 283Q1815 358 1704.0 426.0Q1593 494 1497.0 550.0Q1401 606 1327.0 644.5Q1253 683 1210 699Q1233 719 1252 741Q1164 706 1084.0 667.5Q1004 629 938.5 592.0Q873 555 828.0 524.5Q783 494 766 475Q757 528 740.0 580.5Q723 633 702 680Q719 677 747 677Q787 677 846.0 683.5Q905 690 977.5 703.0Q1050 716 1129.5 737.0Q1209 758 1288 787Q1314 826 1337 875Q1358 850 1405.5 805.5Q1453 761 1522.0 702.5Q1591 644 1675.0 575.5Q1759 507 1853.0 433.0Q1947 359 2044 283H2046V282Q2147 203 2248.0 126.5Q2349 50 2440 -18H2441V-52L2440 -51H1869Q1862 -84 1857.5 -123.5Q1853 -163 1851 -212L1827 -214Q1826 -164 1821.0 -124.0Q1816 -84 1810 -51H1704Q1697 -84 1692.5 -123.5Q1688 -163 1686 -212L1661 -214Q1660 -164 1655.5 -124.0Q1651 -84 1644 -51H1538Q1531 -84 1527.0 -123.5Q1523 -163 1521 -212L1496 -214Q1495 -164 1490.0 -124.0Q1485 -84 1479 -51H1373Q1366 -84 1361.5 -123.5Q1357 -163 1355 -212L1331 -214Q1330 -164 1325.0 -124.0Q1320 -84 1314 -51Q1288 -51 1261.5 -51.5Q1235 -52 1208 -53Q1201 -85 1196.5 -124.5Q1192 -164 1190 -212L1165 -214Q1164 -166 1159.5 -126.0Q1155 -86 1149 -54Q1122 -55 1095.0 -56.0Q1068 -57 1041 -59Q1035 -90 1031.0 -128.0Q1027 -166 1025 -212ZM873 -4Q816 104 756.0 208.0Q696 312 639.5 401.5Q583 491 536 555Q487 485 445.5 414.0Q404 343 371 279Q395 288 422.5 303.5Q450 319 473 334Q495 348 519.0 368.5Q543 389 563 410Q575 358 590.5 301.5Q606 245 636.5 174.0Q667 103 722 6Q759 3 797.0 0.5Q835 -2 873 -4ZM664 10Q602 86 551.0 134.5Q500 183 456.5 215.5Q413 248 370 277Q333 206 308.5 148.0Q284 90 275 55Q346 42 447.0 31.0Q548 20 664 10ZM1140 -15Q1131 22 1119.5 50.0Q1108 78 1097 100Q1084 77 1072.5 49.5Q1061 22 1052 -13Q1074 -14 1096.0 -14.5Q1118 -15 1140 -15ZM1712 -18H1802Q1792 20 1781.0 49.0Q1770 78 1759 100Q1746 75 1734.0 47.0Q1722 19 1712 -18ZM1306 -18Q1296 20 1285.0 49.0Q1274 78 1263 100Q1250 76 1238.0 47.5Q1226 19 1216 -17Q1239 -18 1261.5 -18.0Q1284 -18 1306 -18ZM1381 -18H1471Q1461 20 1450.0 49.0Q1439 78 1428 100Q1415 75 1403.0 47.0Q1391 19 1381 -18ZM1546 -18H1637Q1627 20 1615.5 49.0Q1604 78 1593 100Q1580 76 1568.0 47.5Q1556 19 1546 -18Z" />
  </g>
</svg>