<svg xmlns="http://www.w3.org/2000/svg" viewBox="100 -214 2341 1165">
  <g transform="translate(0, 737) scale(1, -1)">
    <path fill="black" d="M1080 -214Q1079 -166 1074.5 -126.5Q1070 -87 1063 -55Q928 -59 795.0 -69.0Q662 -79 544.0 -92.5Q426 -106 334.0 -121.0Q242 -136 189 -151Q195 -125 198.0 -96.5Q201 -68 201 -41Q201 16 189 73L241 60Q209 90 173.0 116.5Q137 143 100 165Q189 217 297.5 324.5Q406 432 516 581Q506 596 496.0 608.5Q486 621 477 631Q503 637 529.5 646.0Q556 655 580 666Q605 677 627.5 691.5Q650 706 673 723Q682 674 703.0 597.0Q724 520 755.0 426.0Q786 332 823.5 228.5Q861 125 903 22Q944 125 981.5 228.5Q1019 332 1050.0 426.0Q1081 520 1102.0 597.0Q1123 674 1132 723Q1155 706 1177.5 691.5Q1200 677 1225 666Q1249 655 1276.0 646.0Q1303 637 1328 631Q1294 592 1247.5 525.0Q1201 458 1147.5 372.0Q1094 286 1038.0 188.5Q982 91 929 -10Q961 -11 992.0 -12.5Q1023 -14 1054 -15Q1045 23 1033.5 51.5Q1022 80 1011 102Q1031 97 1052.5 95.0Q1074 93 1095 93Q1114 93 1134.5 95.0Q1155 97 1176 102H1178Q1189 99 1207.5 96.0Q1226 93 1260 93Q1280 93 1300.0 95.0Q1320 97 1342 102H1344Q1361 97 1383.0 95.0Q1405 93 1425 93Q1445 93 1466.0 95.0Q1487 97 1509 102Q1496 77 1483.5 48.5Q1471 20 1461 -18H2391Q2281 56 2152.5 138.0Q2024 220 1891 302Q1851 248 1819.5 201.0Q1788 154 1765 114Q1749 140 1732.0 162.0Q1715 184 1696 203Q1677 223 1656.5 240.0Q1636 257 1614 270Q1649 290 1690.5 315.0Q1732 340 1779 371Q1658 444 1543.5 510.5Q1429 577 1331.0 631.5Q1233 686 1160.0 723.5Q1087 761 1048 775Q1088 810 1119.0 853.5Q1150 897 1175 951Q1197 924 1259.5 870.5Q1322 817 1414.0 745.5Q1506 674 1617.5 590.5Q1729 507 1848 419Q1862 429 1877.0 440.0Q1892 451 1907 462Q1819 528 1745.5 575.5Q1672 623 1614 654Q1636 668 1656.5 685.0Q1677 702 1696 721Q1715 740 1732.0 762.5Q1749 785 1765 810Q1799 752 1851.0 678.0Q1903 604 1976 515Q2041 566 2111.5 627.0Q2182 688 2258 760L2279 736Q2204 662 2139.5 593.0Q2075 524 2021 462Q2075 400 2139.5 331.0Q2204 262 2279 188L2258 164Q2182 236 2111.5 297.0Q2041 358 1976 409Q1965 396 1954.5 382.5Q1944 369 1933 356Q2070 256 2201.5 159.0Q2333 62 2440 -18H2441V-52L2440 -51H1453Q1446 -84 1441.5 -123.5Q1437 -163 1435 -212L1411 -214Q1410 -164 1405.0 -124.0Q1400 -84 1394 -51H1288Q1281 -84 1276.5 -123.5Q1272 -163 1270 -212L1245 -214Q1244 -164 1239.5 -124.0Q1235 -84 1228 -51Q1202 -51 1175.5 -51.5Q1149 -52 1122 -53Q1115 -85 1111.0 -124.5Q1107 -164 1105 -212ZM875 -8Q818 101 757.5 205.5Q697 310 640.0 400.0Q583 490 536 555Q487 485 445.5 414.0Q404 343 371 279Q395 288 422.5 303.5Q450 319 473 334Q495 348 519.0 368.5Q543 389 563 410Q572 370 582.5 329.0Q593 288 610.0 240.5Q627 193 654.5 134.5Q682 76 724 2Q761 -1 799.0 -3.5Q837 -6 875 -8ZM667 6Q604 84 552.5 133.0Q501 182 457.0 215.0Q413 248 370 277Q333 206 308.5 147.5Q284 89 274 54Q348 41 449.0 28.5Q550 16 667 6ZM1296 -18H1386Q1376 20 1365.0 49.0Q1354 78 1343 100Q1330 75 1318.0 47.0Q1306 19 1296 -18ZM1221 -18Q1211 20 1199.5 49.0Q1188 78 1177 100Q1164 76 1152.0 47.5Q1140 19 1130 -17Q1153 -18 1176.0 -18.0Q1199 -18 1221 -18Z" />
  </g>
</svg>