<svg xmlns="http://www.w3.org/2000/svg" viewBox="100 -214 2422 1165">
  <g transform="translate(0, 737) scale(1, -1)">
    <path fill="black" d="M1080 -214Q1079 -166 1074.5 -126.5Q1070 -87 1063 -55Q928 -59 795.0 -69.0Q662 -79 544.0 -92.5Q426 -106 334.0 -121.0Q242 -136 189 -151Q195 -125 198.0 -96.5Q201 -68 201 -41Q201 16 189 73L241 60Q209 90 173.0 116.5Q137 143 100 165Q189 217 297.5 324.5Q406 432 516 581Q506 596 496.0 608.5Q486 621 477 631Q503 637 529.5 646.0Q556 655 580 666Q605 677 627.5 691.5Q650 706 673 723Q682 674 703.0 597.0Q724 520 755.0 426.0Q786 332 823.5 228.5Q861 125 903 22Q944 125 981.5 228.5Q1019 332 1050.0 426.0Q1081 520 1102.0 597.0Q1123 674 1132 723Q1155 706 1177.5 691.5Q1200 677 1225 666Q1249 655 1276.0 646.0Q1303 637 1328 631Q1294 592 1247.5 525.0Q1201 458 1147.5 372.0Q1094 286 1038.0 188.5Q982 91 929 -10Q961 -11 992.0 -12.5Q1023 -14 1054 -15Q1045 23 1033.5 51.5Q1022 80 1011 102Q1031 97 1052.5 95.0Q1074 93 1095 93Q1114 93 1134.5 95.0Q1155 97 1176 102H1178Q1193 98 1211.0 95.5Q1229 93 1260 93Q1280 93 1300.0 95.0Q1320 97 1342 102H1344Q1368 96 1388.5 94.5Q1409 93 1425 93Q1445 93 1466.0 95.0Q1487 97 1509 102Q1496 77 1483.5 48.5Q1471 20 1461 -18H2391Q2326 26 2253.5 73.0Q2181 120 2105 168Q2001 160 1898.0 148.5Q1795 137 1707.0 123.0Q1619 109 1560 92Q1572 143 1572 197Q1572 251 1560 308Q1574 304 1591.5 300.0Q1609 296 1629 292Q1620 393 1601 477Q1475 551 1365.0 613.0Q1255 675 1173.0 717.5Q1091 760 1048 775Q1088 810 1119.0 853.5Q1150 897 1175 951Q1198 924 1261.5 870.0Q1325 816 1418.5 743.0Q1512 670 1623 586Q1616 688 1604.5 767.5Q1593 847 1578 901Q1613 893 1646 893Q1663 893 1681.0 895.0Q1699 897 1718 901Q1735 897 1752.0 895.0Q1769 893 1787 893Q1801 893 1815.5 894.5Q1830 896 1844 898Q1843 899 1843 901L1851 899L1860 901Q1859 900 1859 897Q1871 895 1883.0 894.0Q1895 893 1908 893Q1923 893 1938.0 894.5Q1953 896 1969 898Q1968 899 1968 901L1976 899L1985 901Q1984 900 1984 897Q1997 896 2009.5 894.5Q2022 893 2035 893Q2053 893 2072.0 895.0Q2091 897 2110 901Q2085 810 2069.5 650.5Q2054 491 2052 268Q2064 260 2075.5 251.0Q2087 242 2099 234Q2191 226 2277.0 221.5Q2363 217 2431 215Q2325 309 2238.5 374.5Q2152 440 2069 481Q2123 513 2167 555Q2165 633 2157.0 695.0Q2149 757 2137.5 812.0Q2126 867 2111 922Q2128 918 2145.0 916.0Q2162 914 2180 914Q2198 914 2216.0 916.0Q2234 918 2253 922Q2239 870 2227.5 819.0Q2216 768 2208.5 711.5Q2201 655 2197 586Q2212 602 2229 624Q2260 539 2336.0 420.5Q2412 302 2522 168L2503 151L2465 185Q2407 185 2334.0 182.0Q2261 179 2180 174Q2251 122 2316.5 74.0Q2382 26 2440 -18H2441V-52L2440 -51H1453Q1446 -84 1441.5 -123.5Q1437 -163 1435 -212L1411 -214Q1410 -164 1405.0 -124.0Q1400 -84 1394 -51H1288Q1281 -84 1276.5 -123.5Q1272 -163 1270 -212L1245 -214Q1244 -164 1239.5 -124.0Q1235 -84 1228 -51Q1202 -51 1175.5 -51.5Q1149 -52 1122 -53Q1115 -85 1111.0 -124.5Q1107 -164 1105 -212ZM1770 476Q1764 617 1751.0 723.5Q1738 830 1719 897Q1703 840 1691.5 756.5Q1680 673 1673 564Q1684 565 1696.0 567.0Q1708 569 1720 571Q1717 559 1713.5 547.0Q1710 535 1707 523Q1723 512 1738.5 500.0Q1754 488 1770 476ZM2026 288Q2023 484 2010.0 630.0Q1997 776 1976 867Q1957 784 1945.0 656.5Q1933 529 1929 359Q1953 341 1977.0 323.0Q2001 305 2026 288ZM1899 381Q1895 542 1882.0 664.5Q1869 787 1851 867Q1835 796 1823.5 691.0Q1812 586 1806 449Q1829 433 1852.5 415.5Q1876 398 1899 381ZM875 -8Q818 101 757.5 205.5Q697 310 640.0 400.0Q583 490 536 555Q487 485 445.5 414.0Q404 343 371 279Q395 288 422.5 303.5Q450 319 473 334Q495 348 519.0 368.5Q543 389 563 410Q572 370 582.5 329.0Q593 288 610.0 240.5Q627 193 654.5 134.5Q682 76 724 2Q761 -1 799.0 -3.5Q837 -6 875 -8ZM1776 269Q1776 296 1775.5 322.0Q1775 348 1774 373Q1752 387 1730.0 400.0Q1708 413 1686 426Q1680 394 1675.0 359.0Q1670 324 1667 285Q1692 281 1719.5 277.0Q1747 273 1776 269ZM1901 253V296Q1876 311 1852.0 326.0Q1828 341 1803 356Q1803 334 1802.5 311.0Q1802 288 1802 265ZM1984 244Q1970 253 1955.5 262.0Q1941 271 1927 279V250ZM667 6Q604 84 552.5 133.0Q501 182 457.0 215.0Q413 248 370 277Q333 206 308.5 147.5Q284 89 274 54Q348 41 449.0 28.5Q550 16 667 6ZM1221 -18Q1211 20 1199.5 49.0Q1188 78 1177 100Q1164 76 1152.0 47.5Q1140 19 1130 -17Q1153 -18 1176.0 -18.0Q1199 -18 1221 -18ZM1296 -18H1386Q1376 20 1365.0 49.0Q1354 78 1343 100Q1330 75 1318.0 47.0Q1306 19 1296 -18Z" />
  </g>
</svg>