<svg xmlns="http://www.w3.org/2000/svg" viewBox="100 -241 1373 1168">
  <g transform="translate(0, 686) scale(1, -1)">
    <path fill="black" d="M560 369Q535 407 503.5 438.5Q472 470 428 501L447 509L334 605Q292 550 259.0 501.0Q226 452 210 415Q189 447 162.5 473.5Q136 500 100 525Q131 538 178.5 571.5Q226 605 281 648Q226 692 178.5 725.0Q131 758 100 771Q136 796 162.5 823.0Q189 850 210 881Q226 844 259.0 794.5Q292 745 333 691Q362 715 390.5 739.5Q419 764 445 787L428 795Q472 826 503.5 858.0Q535 890 560 927Q580 881 597.0 843.5Q614 806 638.5 767.0Q663 728 702 675L708 680Q707 693 705.0 705.5Q703 718 701 730Q712 726 724.5 723.0Q737 720 750 717L752 719L756 715Q778 710 802.0 705.0Q826 700 853 695Q849 729 845.0 752.0Q841 775 836 790Q854 785 871 785Q887 785 909 790Q917 788 925.5 786.5Q934 785 943 785Q952 785 961.0 786.5Q970 788 980 790Q989 788 997.5 786.5Q1006 785 1016 785Q1024 785 1033.5 786.5Q1043 788 1052 789V790L1053 789L1054 790V789Q1062 788 1070.5 786.5Q1079 785 1087 785Q1096 785 1106.0 786.5Q1116 788 1126 790Q1121 775 1116.0 744.5Q1111 714 1107 668Q1137 667 1170.0 665.5Q1203 664 1239 664Q1263 684 1296.5 714.5Q1330 745 1368.0 783.0Q1406 821 1441 862L1461 851Q1427 788 1402.0 740.0Q1377 692 1354 654Q1371 625 1401.0 581.0Q1431 537 1473 482L1454 466Q1383 529 1333.5 570.5Q1284 612 1241 644Q1203 643 1169.0 641.0Q1135 639 1104 637Q1100 573 1098 484H1089Q1083 572 1077 635Q1065 634 1054.0 633.0Q1043 632 1032 631Q1028 568 1026 484H1017Q1011 570 1005 627L959 621Q954 561 953 484H945L934 617Q921 615 909.0 612.0Q897 609 886 607Q885 580 883.5 549.5Q882 519 881 484H872L863 602Q818 592 779.0 581.0Q740 570 701 559Q704 573 705.5 587.0Q707 601 708 617Q707 618 706.0 619.0Q705 620 704 621Q665 569 640.5 529.5Q616 490 598.0 453.0Q580 416 560 369ZM927 684Q918 758 908 788Q904 775 899.5 750.0Q895 725 892 689Q900 688 909.0 686.5Q918 685 927 684ZM1000 676Q996 717 990.5 744.5Q985 772 980 788Q976 774 971.5 747.0Q967 720 963 680Q972 679 981.0 678.0Q990 677 1000 676ZM1073 670Q1069 712 1063.5 740.5Q1058 769 1053 787Q1043 756 1035 673ZM472 519Q517 540 564.0 569.5Q611 599 671 648Q610 698 563.5 727.0Q517 756 472 776Q446 745 419.5 712.5Q393 680 367 648Q393 616 419.5 583.5Q446 551 472 519ZM800 165Q799 188 796.5 220.5Q794 253 791.0 286.5Q788 320 783.5 346.5Q779 373 774 384Q792 381 807 381Q812 381 817.5 381.5Q823 382 829 383V393Q829 402 828 406H826Q828 415 829.5 425.0Q831 435 831 446Q831 465 826 487Q849 481 873.5 475.5Q898 470 929.5 465.5Q961 461 1007.0 458.0Q1053 455 1120 455Q1135 466 1150.0 483.5Q1165 501 1175 519Q1192 498 1214.5 473.5Q1237 449 1272.5 417.5Q1308 386 1364 342Q1306 299 1271.0 267.0Q1236 235 1214.5 210.5Q1193 186 1175 165Q1154 203 1120 228Q1117 228 1114.5 227.5Q1112 227 1110 227L1107 198H1099L1097 227Q1021 226 971.5 221.5Q922 217 888.5 210.0Q855 203 826 196Q831 218 831 238Q831 243 831.0 248.5Q831 254 830 259L828 258L829 266L826 277L829 276Q829 282 829.0 287.0Q829 292 828 296Q838 293 871.5 290.5Q905 288 948.5 286.0Q992 284 1032.0 282.5Q1072 281 1094 281L1091 311Q1068 311 1029.0 309.5Q990 308 948.0 306.5Q906 305 872.5 302.0Q839 299 828 296Q829 301 829.0 306.0Q829 311 829 316Q829 321 829.0 325.5Q829 330 828 334Q838 331 870.5 328.5Q903 326 945.0 324.0Q987 322 1027.0 320.5Q1067 319 1091 319L1088 349Q1064 349 1025.0 347.5Q986 346 945.0 344.0Q904 342 871.5 339.5Q839 337 828 334L829 350Q824 324 820.5 290.5Q817 257 814.0 224.0Q811 191 808 165ZM1257 286Q1277 297 1299.0 310.5Q1321 324 1348 341Q1297 376 1259.5 395.5Q1222 415 1193.0 427.0Q1164 439 1136 449V446Q1065 446 1018.5 443.0Q972 440 941.0 434.5Q910 429 886.0 422.0Q862 415 836 408Q851 406 882.0 403.5Q913 401 950.0 399.5Q987 398 1022.5 396.5Q1058 395 1082 395Q1080 412 1077.0 425.0Q1074 438 1072 445Q1089 442 1105 442Q1120 442 1136 445Q1132 436 1129.0 419.5Q1126 403 1123 381Q1130 380 1135.5 380.0Q1141 380 1146 380Q1153 380 1158.0 380.5Q1163 381 1170 382Q1178 381 1185.5 380.5Q1193 380 1200 380Q1206 380 1211.5 380.5Q1217 381 1224 382Q1232 381 1239.0 380.5Q1246 380 1253 380Q1259 380 1265.0 380.5Q1271 381 1278 382Q1270 363 1265.5 340.0Q1261 317 1257 286ZM1087 357 1083 387Q1060 386 1024.0 385.0Q988 384 950.0 382.5Q912 381 880.5 378.5Q849 376 834 373V371Q848 368 880.0 366.0Q912 364 951.0 362.0Q990 360 1026.5 358.5Q1063 357 1087 357ZM1204 260Q1214 265 1224.0 269.5Q1234 274 1245 280Q1239 346 1224 380Q1216 360 1211.5 328.0Q1207 296 1204 260ZM1148 238Q1159 243 1170.0 247.0Q1181 251 1192 255Q1189 292 1184.0 327.0Q1179 362 1171 380Q1161 357 1157.0 318.5Q1153 280 1148 238ZM1111 237H1140Q1138 273 1133.5 311.0Q1129 349 1122 372Q1118 340 1115.5 304.0Q1113 268 1111 237ZM560 -241Q535 -203 503.5 -171.5Q472 -140 428 -109Q433 -107 437.5 -104.5Q442 -102 447 -101Q420 -77 391.5 -53.0Q363 -29 334 -5Q292 -59 259.0 -108.0Q226 -157 210 -195Q189 -163 162.5 -136.5Q136 -110 100 -85Q131 -71 178.5 -38.0Q226 -5 281 38Q226 82 178.5 115.0Q131 148 100 161Q136 186 162.5 213.0Q189 240 210 271Q226 234 259.0 184.5Q292 135 333 81Q362 105 390.5 129.5Q419 154 445 177L428 185Q472 216 503.5 248.0Q535 280 560 317Q580 271 597.0 233.5Q614 196 638.5 157.0Q663 118 702 65L708 70Q707 83 705.0 95.5Q703 108 701 120Q712 116 724.5 113.0Q737 110 750 107L752 109L756 105Q778 100 802.0 95.0Q826 90 853 85Q849 119 845.0 142.0Q841 165 836 180Q854 175 871 175Q887 175 909 180V179Q917 178 925.5 176.5Q934 175 942 175Q951 175 961.0 176.5Q971 178 981 180V179Q996 175 1015 175Q1035 175 1052 179V180L1053 179L1054 180V179Q1062 178 1070.5 176.5Q1079 175 1087 175Q1096 175 1106.0 176.5Q1116 178 1126 180Q1121 165 1116.0 134.5Q1111 104 1107 58Q1137 57 1170.0 55.5Q1203 54 1239 54Q1263 74 1296.5 105.0Q1330 136 1368.0 173.5Q1406 211 1441 252L1461 241Q1427 178 1402.0 130.0Q1377 82 1354 44Q1371 15 1401.0 -29.0Q1431 -73 1473 -128L1454 -144Q1383 -81 1333.5 -39.5Q1284 2 1241 34Q1203 33 1169.0 31.0Q1135 29 1104 27Q1100 -36 1098 -126H1089Q1086 -80 1083.0 -43.0Q1080 -6 1077 25Q1065 24 1054.0 23.0Q1043 22 1032 21Q1027 -42 1026 -126H1017Q1014 -83 1011.0 -47.5Q1008 -12 1005 17L959 11Q955 -47 953 -126H945L934 7Q921 5 909.0 2.5Q897 0 886 -2Q885 -30 883.5 -60.5Q882 -91 881 -126H872L863 -7Q818 -17 779.0 -28.5Q740 -40 701 -51Q704 -37 705.5 -22.5Q707 -8 708 7Q707 8 706.0 9.0Q705 10 704 11Q665 -41 640.5 -80.5Q616 -120 598.0 -157.0Q580 -194 560 -241ZM1097 237 1094 273Q1073 273 1033.0 272.0Q993 271 950.0 269.0Q907 267 874 264Q899 258 927.5 252.0Q956 246 997.0 242.5Q1038 239 1097 237ZM927 74Q918 148 908 178Q904 165 899.5 140.0Q895 115 892 79Q900 78 909.0 76.5Q918 75 927 74ZM1000 66Q996 107 990.5 134.5Q985 162 980 178Q976 164 971.5 137.0Q967 110 963 70Q972 69 981.0 68.0Q990 67 1000 66ZM1073 60Q1069 102 1063.5 130.5Q1058 159 1053 177Q1043 146 1035 63ZM472 -90Q517 -70 564.0 -40.5Q611 -11 671 38Q610 88 563.5 117.0Q517 146 472 166Q446 135 419.5 102.5Q393 70 367 38Q393 6 419.5 -26.0Q446 -58 472 -90Z" />
  </g>
</svg>