<svg xmlns="http://www.w3.org/2000/svg" viewBox="100 -176 1610 976">
  <g transform="translate(0, 624) scale(1, -1)">
    <path fill="black" d="M491 584Q503 635 503 689Q503 743 491 800Q532 789 602.5 777.5Q673 766 765.5 755.0Q858 744 964.0 735.0Q1070 726 1182.5 719.5Q1295 713 1407.0 709.0Q1519 705 1621 705H1710V679H1639Q1537 679 1424.0 675.0Q1311 671 1196.5 664.5Q1082 658 974.0 649.0Q866 640 771.5 629.0Q677 618 605.0 607.0Q533 596 491 584ZM571 57Q533 93 506.0 114.0Q479 135 460.0 148.0Q441 161 424 172Q349 164 281.0 148.5Q213 133 165.0 117.5Q117 102 100 94Q102 111 104.0 139.5Q106 168 106 198Q106 223 104.5 246.0Q103 269 100 283Q117 276 161.0 259.5Q205 243 272.5 227.0Q340 211 427 204Q452 221 484.5 246.5Q517 272 567 318Q515 365 482.0 390.0Q449 415 423 432Q348 424 280.5 408.5Q213 393 165.0 377.5Q117 362 100 354Q102 371 104.0 399.5Q106 428 106 458Q106 483 104.5 506.0Q103 529 100 543Q117 536 161.5 519.5Q206 503 274.0 486.5Q342 470 429 463Q445 473 464.0 485.5Q483 498 508.5 518.5Q534 539 571 572L587 562Q574 544 560.0 521.0Q546 498 535.0 477.5Q524 457 518 446Q524 435 537.5 412.0Q551 389 567.5 363.5Q584 338 597 320Q584 302 567.5 274.5Q551 247 537.5 222.0Q524 197 518 186Q524 175 535.0 155.0Q546 135 560.0 112.5Q574 90 587 72ZM1448 47Q1445 75 1442.5 102.0Q1440 129 1438 155Q1344 149 1262.5 145.0Q1181 141 1116.5 133.0Q1052 125 1007 106Q1008 123 1010.0 137.5Q1012 152 1012 167Q1012 186 1010.0 204.5Q1008 223 1007 242Q1044 227 1108.0 218.0Q1172 209 1256.0 203.5Q1340 198 1434 193Q1428 255 1421.5 311.0Q1415 367 1406 416Q1276 409 1173.5 402.5Q1071 396 1007 370Q1008 386 1010.0 401.0Q1012 416 1012 430Q1012 450 1010.0 468.5Q1008 487 1007 506Q1041 492 1100.0 483.5Q1159 475 1235.5 469.0Q1312 463 1399 458Q1387 515 1369 561Q1392 557 1412.0 554.5Q1432 552 1450 552Q1470 552 1490.5 554.5Q1511 557 1536 561Q1517 512 1504.5 430.0Q1492 348 1484.5 248.5Q1477 149 1472 47ZM933 47Q917 214 903.0 345.5Q889 477 855 561Q878 557 898.0 554.5Q918 552 936 552Q956 552 976.0 554.5Q996 557 1022 561Q1003 512 990.5 430.0Q978 348 970.5 248.5Q963 149 958 47ZM491 -176Q503 -125 503 -71Q503 -17 491 40Q532 29 602.5 17.5Q673 6 765.5 -5.0Q858 -16 964.0 -25.0Q1070 -34 1182.5 -40.5Q1295 -47 1407.0 -51.0Q1519 -55 1621 -55H1710V-81H1639Q1537 -81 1424.0 -85.0Q1311 -89 1196.5 -95.5Q1082 -102 974.0 -111.0Q866 -120 771.5 -131.0Q677 -142 605.0 -153.0Q533 -164 491 -176Z" />
  </g>
</svg>