<svg xmlns="http://www.w3.org/2000/svg" viewBox="100 -176 1610 976">
  <g transform="translate(0, 624) scale(1, -1)">
    <path fill="black" d="M491 584Q503 635 503 689Q503 743 491 800Q532 789 602.5 777.5Q673 766 765.5 755.0Q858 744 964.0 735.0Q1070 726 1182.5 719.5Q1295 713 1407.0 709.0Q1519 705 1621 705H1710V679H1639Q1537 679 1424.0 675.0Q1311 671 1196.5 664.5Q1082 658 974.0 649.0Q866 640 771.5 629.0Q677 618 605.0 607.0Q533 596 491 584ZM850 3Q856 26 856 49Q856 73 850 98Q868 93 888.5 89.0Q909 85 934 81L927 198Q838 194 769.5 181.5Q701 169 656 157Q658 169 659.5 181.5Q661 194 661 205Q661 217 659.5 228.5Q658 240 656 251L670 248Q667 313 658.5 350.0Q650 387 637 419Q648 417 658.0 416.0Q668 415 678 415Q686 415 693.0 415.0Q700 415 707 416L703 432Q690 429 678.5 426.0Q667 423 656 420Q658 433 659.5 445.0Q661 457 661 469Q661 481 659.5 492.5Q658 504 656 515Q698 503 761.5 491.0Q825 479 907 474Q903 512 898.5 541.5Q894 571 888 592Q911 586 934 586Q958 586 983 592Q982 588 981.0 583.0Q980 578 979 573L984 572Q985 579 985.5 585.0Q986 591 986 598Q986 609 985.0 619.0Q984 629 982 639Q1008 629 1030.0 622.0Q1052 615 1081.5 610.0Q1111 605 1157 600V589Q1104 587 1070.0 581.0Q1036 575 1010 566Q1042 561 1085.0 557.0Q1128 553 1168 551Q1166 562 1163.5 572.5Q1161 583 1159 592Q1182 586 1205 586Q1229 586 1254 592Q1250 579 1246.5 559.0Q1243 539 1241 513Q1282 503 1342.0 491.5Q1402 480 1479 475Q1475 498 1467 521Q1478 519 1490.0 517.5Q1502 516 1513 516Q1525 516 1537.0 517.5Q1549 519 1562 521Q1549 475 1541.5 402.5Q1534 330 1529 210H1547V198H1528L1526 124H1514L1509 198Q1419 195 1350.0 182.0Q1281 169 1236 157Q1238 169 1239.5 181.5Q1241 194 1241 205Q1241 217 1239.5 228.5Q1238 240 1236 251Q1251 247 1269.0 242.5Q1287 238 1308 234Q1305 269 1301.5 307.5Q1298 346 1293.0 379.5Q1288 413 1282 432Q1257 426 1236 420Q1238 433 1239.5 445.0Q1241 457 1241 468Q1241 476 1240.5 482.5Q1240 489 1239 496Q1234 442 1230.0 370.0Q1226 298 1223.0 219.0Q1220 140 1217 62L1248 61V50Q1163 44 1102.0 39.5Q1041 35 996.5 30.0Q952 25 917.5 18.5Q883 12 850 3ZM571 57Q533 93 506.0 114.0Q479 135 460.0 148.0Q441 161 424 172Q349 164 281.0 148.5Q213 133 165.0 117.5Q117 102 100 94Q102 111 104.0 139.5Q106 168 106 198Q106 223 104.5 246.0Q103 269 100 283Q117 276 161.0 259.5Q205 243 272.5 227.0Q340 211 427 204Q452 221 484.5 246.5Q517 272 567 318Q515 365 482.0 390.0Q449 415 423 432Q348 424 280.5 408.5Q213 393 165.0 377.5Q117 362 100 354Q102 371 104.0 399.5Q106 428 106 458Q106 483 104.5 506.0Q103 529 100 543Q117 536 161.5 519.5Q206 503 274.0 486.5Q342 470 429 463Q445 473 464.0 485.5Q483 498 508.5 518.5Q534 539 571 572L587 562Q574 544 560.0 521.0Q546 498 535.0 477.5Q524 457 518 446Q524 435 537.5 412.0Q551 389 567.5 363.5Q584 338 597 320Q584 302 567.5 274.5Q551 247 537.5 222.0Q524 197 518 186Q524 175 535.0 155.0Q546 135 560.0 112.5Q574 90 587 72ZM975 77Q976 81 976.0 84.0Q976 87 976 91Q976 100 973 116V133L976 132Q976 136 976.5 139.5Q977 143 977 147Q977 152 976.5 157.0Q976 162 975 166L973 165L975 175L973 183L976 182Q976 185 976.5 188.5Q977 192 977 196Q977 201 976.5 206.0Q976 211 975 216L973 215L975 224L973 232L976 231Q976 234 976.5 237.0Q977 240 977 243Q977 248 976.5 253.5Q976 259 975 265L973 264L975 272L973 281L976 280V288Q976 295 973 313V330Q974 330 974.5 329.5Q975 329 976 329Q976 333 976.5 336.0Q977 339 977 343Q977 348 976.5 353.5Q976 359 975 363L973 362L975 372L973 380L976 379Q976 382 976.5 386.0Q977 390 977 394Q977 399 976.5 403.5Q976 408 975 413L973 412L975 421L973 429L976 428L977 444Q977 449 976.5 453.0Q976 457 976 461L973 460L975 470L973 478L976 477Q976 481 976.5 484.5Q977 488 977 492Q977 497 976.5 501.5Q976 506 975 510L973 509L975 518L973 526L976 525L977 541Q977 545 976.5 549.0Q976 553 976 557Q973 540 970.5 519.0Q968 498 966 473H967V462H965Q961 409 957.5 344.0Q954 279 952 210H967V198H951Q950 169 949.0 139.0Q948 109 947 80ZM1175 501 1170 537Q1129 533 1084.0 529.0Q1039 525 1006 518Q1039 512 1086.0 508.0Q1133 504 1175 501ZM1180 453 1176 488Q1134 485 1088.0 480.5Q1042 476 1008 469Q1043 463 1091.0 459.0Q1139 455 1180 453ZM726 434Q735 434 751 438H767L766 435Q771 434 776.5 434.0Q782 434 787 434Q792 434 797.0 434.0Q802 434 806 435Q806 436 805.5 436.5Q805 437 805 438L813 436L820 438L818 435Q823 434 829.0 434.0Q835 434 840 434Q845 434 849.5 434.0Q854 434 858 435V438L866 436L872 438L871 435Q877 434 882.5 434.0Q888 434 894 434Q898 434 902.0 434.0Q906 434 910 435Q910 442 909.5 448.0Q909 454 908 460Q850 458 801.5 450.5Q753 443 715 435Q719 434 726 434ZM1305 434Q1314 434 1330 438H1346L1345 435Q1350 434 1355.5 434.0Q1361 434 1366 434Q1371 434 1376.0 434.0Q1381 434 1385 435V438L1392 436L1399 438L1398 435Q1403 434 1408.5 434.0Q1414 434 1419 434Q1424 434 1428.5 434.0Q1433 434 1438 435Q1438 436 1437.5 436.5Q1437 437 1437 438L1445 436L1451 438L1450 435Q1455 434 1460.0 434.0Q1465 434 1470 434Q1474 434 1478.0 434.0Q1482 434 1486 435L1481 460Q1426 457 1379.0 450.0Q1332 443 1294 435Q1298 434 1305 434ZM1184 403 1181 441Q1138 437 1089.5 432.5Q1041 428 1006 420Q1041 414 1091.5 409.5Q1142 405 1184 403ZM888 212Q886 244 882.5 281.0Q879 318 875.0 353.0Q871 388 865 413Q860 389 856.5 354.5Q853 320 850.5 283.0Q848 246 846 216Q857 215 867.5 214.0Q878 213 888 212ZM836 217Q833 249 830.0 285.0Q827 321 822.5 355.0Q818 389 812 413Q808 390 804.5 356.5Q801 323 798.5 287.5Q796 252 794 222Q804 221 814.5 219.5Q825 218 836 217ZM782 224Q778 270 773.0 323.5Q768 377 760 413Q753 380 748.5 328.0Q744 276 742 231Q752 230 762.0 228.0Q772 226 782 224ZM1361 224Q1357 270 1352.0 323.5Q1347 377 1339 413Q1332 380 1328.0 328.0Q1324 276 1321 231Q1331 230 1341.0 228.0Q1351 226 1361 224ZM1415 217Q1412 249 1409.0 285.0Q1406 321 1402.0 355.0Q1398 389 1392 413Q1387 390 1383.5 357.0Q1380 324 1377.5 288.5Q1375 253 1373 222ZM1467 212Q1465 244 1461.5 281.0Q1458 318 1454.0 353.0Q1450 388 1444 413Q1439 389 1435.5 354.5Q1432 320 1429.5 283.0Q1427 246 1425 216ZM729 234Q725 274 721.0 318.0Q717 362 711 396Q700 366 693.0 334.5Q686 303 681 244ZM926 210Q923 259 920.0 305.0Q917 351 914 393Q908 354 904.0 302.5Q900 251 898 211Q905 211 912.0 210.5Q919 210 926 210ZM1188 354Q1185 374 1185 392Q1141 388 1091.0 383.5Q1041 379 1006 371Q1041 365 1093.0 360.5Q1145 356 1188 354ZM1509 210Q1505 267 1501.0 311.0Q1497 355 1493 389Q1487 350 1483.0 300.0Q1479 250 1477 211Q1485 211 1493.0 210.5Q1501 210 1509 210ZM1191 305 1188 343Q1145 339 1094.0 334.5Q1043 330 1006 322Q1042 316 1095.0 311.5Q1148 307 1191 305ZM1194 255 1191 293Q1147 289 1095.0 284.5Q1043 280 1006 273Q1031 269 1064.0 265.0Q1097 261 1131.5 258.5Q1166 256 1194 255ZM1197 206Q1196 216 1195.5 225.5Q1195 235 1195 245Q1150 241 1097.0 236.0Q1044 231 1006 223Q1031 219 1064.5 215.5Q1098 212 1133.0 210.0Q1168 208 1197 206ZM1199 157 1197 196Q1152 192 1098.0 187.0Q1044 182 1006 174Q1032 170 1066.0 166.5Q1100 163 1135.5 160.5Q1171 158 1199 157ZM1203 107 1200 147Q1155 143 1100.0 138.0Q1045 133 1006 125Q1032 121 1067.0 117.5Q1102 114 1138.0 111.5Q1174 109 1203 107ZM1205 62Q1205 71 1204.5 80.0Q1204 89 1203 97Q1172 95 1134.0 91.5Q1096 88 1060.0 84.0Q1024 80 998 74Q1039 71 1090.0 67.5Q1141 64 1205 62ZM491 -176Q503 -125 503 -71Q503 -17 491 40Q532 29 602.5 17.5Q673 6 765.5 -5.0Q858 -16 964.0 -25.0Q1070 -34 1182.5 -40.5Q1295 -47 1407.0 -51.0Q1519 -55 1621 -55H1710V-81H1639Q1537 -81 1424.0 -85.0Q1311 -89 1196.5 -95.5Q1082 -102 974.0 -111.0Q866 -120 771.5 -131.0Q677 -142 605.0 -153.0Q533 -164 491 -176Z" />
  </g>
</svg>