<svg xmlns="http://www.w3.org/2000/svg" viewBox="100 -176 1610 976">
  <g transform="translate(0, 624) scale(1, -1)">
    <path fill="black" d="M491 584Q503 635 503 689Q503 743 491 800Q532 789 602.5 777.5Q673 766 765.5 755.0Q858 744 964.0 735.0Q1070 726 1182.5 719.5Q1295 713 1407.0 709.0Q1519 705 1621 705H1710V679H1639Q1537 679 1424.0 675.0Q1311 671 1196.5 664.5Q1082 658 974.0 649.0Q866 640 771.5 629.0Q677 618 605.0 607.0Q533 596 491 584ZM1081 -29Q1039 26 985 57H986V287Q976 286 966.0 285.0Q956 284 946 282Q942 236 939.5 183.0Q937 130 937 71H922Q922 186 913 277Q862 269 821.0 259.5Q780 250 748 242Q752 257 753.5 276.0Q755 295 755 311Q755 327 753.5 345.5Q752 364 748 381Q779 372 818.0 363.5Q857 355 905 347Q895 420 883.0 476.5Q871 533 859 574Q875 570 894.0 568.5Q913 567 929 567Q943 567 960.5 568.5Q978 570 994 573Q1043 603 1081 653Q1097 621 1115.0 592.0Q1133 563 1159.0 531.0Q1185 499 1225.0 458.5Q1265 418 1324 364Q1315 431 1303.5 483.0Q1292 535 1281 574Q1296 570 1315.0 568.5Q1334 567 1350 567Q1367 567 1385.5 568.5Q1404 570 1420 574Q1400 500 1379.5 377.0Q1359 254 1359 71H1343Q1343 127 1341.0 176.5Q1339 226 1335 270Q1272 213 1230.5 171.0Q1189 129 1161.5 96.0Q1134 63 1116.0 33.5Q1098 4 1081 -29ZM571 57Q533 93 506.0 114.0Q479 135 460.0 148.0Q441 161 424 172Q349 164 281.0 148.5Q213 133 165.0 117.5Q117 102 100 94Q102 111 104.0 139.5Q106 168 106 198Q106 223 104.5 246.0Q103 269 100 283Q117 276 161.0 259.5Q205 243 272.5 227.0Q340 211 427 204Q452 221 484.5 246.5Q517 272 567 318Q515 365 482.0 390.0Q449 415 423 432Q348 424 280.5 408.5Q213 393 165.0 377.5Q117 362 100 354Q102 371 104.0 399.5Q106 428 106 458Q106 483 104.5 506.0Q103 529 100 543Q117 536 161.5 519.5Q206 503 274.0 486.5Q342 470 429 463Q445 473 464.0 485.5Q483 498 508.5 518.5Q534 539 571 572L587 562Q574 544 560.0 521.0Q546 498 535.0 477.5Q524 457 518 446Q524 435 537.5 412.0Q551 389 567.5 363.5Q584 338 597 320Q584 302 567.5 274.5Q551 247 537.5 222.0Q524 197 518 186Q524 175 535.0 155.0Q546 135 560.0 112.5Q574 90 587 72ZM1046 329V541Q1034 547 1022.0 552.5Q1010 558 999 562V334Q1010 333 1022.0 332.0Q1034 331 1046 329ZM1105 325V507Q1092 515 1081.0 522.0Q1070 529 1059 534V328ZM986 335V523Q977 486 968.5 440.5Q960 395 953 340Q961 339 969.5 338.0Q978 337 986 335ZM1165 322V465Q1152 475 1140.5 483.0Q1129 491 1118 498V324Q1129 324 1141.0 323.5Q1153 323 1165 322ZM1224 321V419L1178 455V322Q1189 322 1200.5 321.5Q1212 321 1224 321ZM1237 321H1283V370Q1271 381 1259.5 390.5Q1248 400 1237 408ZM1296 321H1329L1328 332Q1320 339 1312.0 345.5Q1304 352 1296 359ZM1296 265Q1305 273 1314.0 280.5Q1323 288 1332 296L1331 302H1296ZM1237 216Q1248 224 1259.5 234.0Q1271 244 1283 254V302H1237ZM1178 169 1224 205V302Q1212 302 1200.5 301.5Q1189 301 1178 301ZM1118 126 1165 159V301L1118 298ZM1059 90 1105 117V298Q1093 297 1081.5 296.5Q1070 296 1059 294ZM999 63Q1010 68 1022.0 72.5Q1034 77 1046 84V293Q1034 292 1022.0 291.0Q1010 290 999 288ZM491 -176Q503 -125 503 -71Q503 -17 491 40Q532 29 602.5 17.5Q673 6 765.5 -5.0Q858 -16 964.0 -25.0Q1070 -34 1182.5 -40.5Q1295 -47 1407.0 -51.0Q1519 -55 1621 -55H1710V-81H1639Q1537 -81 1424.0 -85.0Q1311 -89 1196.5 -95.5Q1082 -102 974.0 -111.0Q866 -120 771.5 -131.0Q677 -142 605.0 -153.0Q533 -164 491 -176Z" />
  </g>
</svg>