<svg xmlns="http://www.w3.org/2000/svg" viewBox="100 -176 1610 976">
  <g transform="translate(0, 624) scale(1, -1)">
    <path fill="black" d="M491 584Q503 635 503 689Q503 743 491 800Q532 789 602.5 777.5Q673 766 765.5 755.0Q858 744 964.0 735.0Q1070 726 1182.5 719.5Q1295 713 1407.0 709.0Q1519 705 1621 705H1710V679H1639Q1537 679 1424.0 675.0Q1311 671 1196.5 664.5Q1082 658 974.0 649.0Q866 640 771.5 629.0Q677 618 605.0 607.0Q533 596 491 584ZM1263 33Q1242 68 1214.0 97.0Q1186 126 1145 151Q1194 179 1246.0 215.5Q1298 252 1368 310Q1322 351 1284.5 380.0Q1247 409 1211.5 433.5Q1176 458 1137 482Q1172 502 1202.0 529.0Q1232 556 1260 595Q1287 543 1323.5 487.0Q1360 431 1419 354Q1467 395 1525.0 448.0Q1583 501 1653 568L1668 554Q1599 475 1547.0 415.0Q1495 355 1457 307Q1532 213 1657 70L1642 56Q1572 122 1518.0 173.0Q1464 224 1420 263Q1384 217 1356.5 179.5Q1329 142 1307.0 107.0Q1285 72 1263 33ZM743 33Q722 68 694.0 97.0Q666 126 625 151Q674 179 726.0 215.5Q778 252 848 310Q802 351 764.5 380.0Q727 409 691.5 433.5Q656 458 617 482Q652 502 682.0 529.0Q712 556 740 595Q767 543 803.5 487.0Q840 431 899 354Q947 395 1005.0 448.0Q1063 501 1133 568L1148 554Q1079 475 1027.0 415.0Q975 355 937 307Q1012 213 1137 70L1122 56Q1052 122 998.0 173.0Q944 224 900 263Q864 217 836.5 179.5Q809 142 787.0 107.0Q765 72 743 33ZM571 57Q533 93 506.0 114.0Q479 135 460.0 148.0Q441 161 424 172Q349 164 281.0 148.5Q213 133 165.0 117.5Q117 102 100 94Q102 111 104.0 139.5Q106 168 106 198Q106 223 104.5 246.0Q103 269 100 283Q117 276 161.0 259.5Q205 243 272.5 227.0Q340 211 427 204Q452 221 484.5 246.5Q517 272 567 318Q515 365 482.0 390.0Q449 415 423 432Q348 424 280.5 408.5Q213 393 165.0 377.5Q117 362 100 354Q102 371 104.0 399.5Q106 428 106 458Q106 483 104.5 506.0Q103 529 100 543Q117 536 161.5 519.5Q206 503 274.0 486.5Q342 470 429 463Q445 473 464.0 485.5Q483 498 508.5 518.5Q534 539 571 572L587 562Q574 544 560.0 521.0Q546 498 535.0 477.5Q524 457 518 446Q524 435 537.5 412.0Q551 389 567.5 363.5Q584 338 597 320Q584 302 567.5 274.5Q551 247 537.5 222.0Q524 197 518 186Q524 175 535.0 155.0Q546 135 560.0 112.5Q574 90 587 72ZM491 -176Q503 -125 503 -71Q503 -17 491 40Q532 29 602.5 17.5Q673 6 765.5 -5.0Q858 -16 964.0 -25.0Q1070 -34 1182.5 -40.5Q1295 -47 1407.0 -51.0Q1519 -55 1621 -55H1710V-81H1639Q1537 -81 1424.0 -85.0Q1311 -89 1196.5 -95.5Q1082 -102 974.0 -111.0Q866 -120 771.5 -131.0Q677 -142 605.0 -153.0Q533 -164 491 -176Z" />
  </g>
</svg>