<svg xmlns="http://www.w3.org/2000/svg" viewBox="100 -176 1610 976">
  <g transform="translate(0, 624) scale(1, -1)">
    <path fill="black" d="M491 584Q503 635 503 689Q503 743 491 800Q532 789 602.5 777.5Q673 766 765.5 755.0Q858 744 964.0 735.0Q1070 726 1182.5 719.5Q1295 713 1407.0 709.0Q1519 705 1621 705H1710V679H1639Q1537 679 1424.0 675.0Q1311 671 1196.5 664.5Q1082 658 974.0 649.0Q866 640 771.5 629.0Q677 618 605.0 607.0Q533 596 491 584ZM1107 22Q1109 35 1110.5 48.5Q1112 62 1112 76Q1112 81 1112.0 86.5Q1112 92 1111 97H1102Q1102 131 1099 176Q981 164 893.0 148.5Q805 133 739 106Q743 123 744.5 143.0Q746 163 746 184Q746 204 744.5 224.5Q743 245 739 265Q794 243 889.0 222.5Q984 202 1098 195Q1094 252 1088.0 315.0Q1082 378 1075 425Q966 413 884.0 398.0Q802 383 739 357Q742 374 744.0 393.5Q746 413 746 433Q746 439 746.0 444.5Q746 450 745 457Q741 446 736.0 411.5Q731 377 726.0 329.5Q721 282 716.5 231.0Q712 180 709.0 134.5Q706 89 706 59H692Q692 90 689.0 136.5Q686 183 681.5 235.0Q677 287 671.5 335.0Q666 383 660.5 416.5Q655 450 651 459Q662 458 675.5 456.0Q689 454 702 454Q722 454 745 459Q744 488 739 516Q791 494 878.5 475.0Q966 456 1072 448Q1069 467 1066.5 480.0Q1064 493 1062 497Q1072 496 1083.0 494.5Q1094 493 1107 493Q1120 493 1132.5 494.0Q1145 495 1157 497Q1154 490 1149.5 462.0Q1145 434 1140.0 393.5Q1135 353 1130.5 306.5Q1126 260 1122.5 215.0Q1119 170 1117 134Q1139 128 1179.5 122.5Q1220 117 1271.0 112.0Q1322 107 1376.0 103.5Q1430 100 1480.0 97.5Q1530 95 1567 93Q1563 138 1559.0 199.0Q1555 260 1549.5 325.0Q1544 390 1537.5 447.0Q1531 504 1523 541Q1468 537 1405.0 532.5Q1342 528 1282.0 522.5Q1222 517 1175.5 510.0Q1129 503 1107 494Q1109 508 1110.5 521.5Q1112 535 1112 550Q1112 564 1110.5 578.5Q1109 593 1107 609Q1125 602 1169.5 595.5Q1214 589 1273.5 583.5Q1333 578 1396.5 574.0Q1460 570 1515 567L1514 571Q1528 569 1542.0 567.5Q1556 566 1571 566Q1585 566 1599.5 567.5Q1614 569 1630 571Q1623 553 1616.5 509.5Q1610 466 1605.0 407.5Q1600 349 1595.5 287.0Q1591 225 1588.5 169.5Q1586 114 1584 77Q1545 73 1492.0 69.5Q1439 66 1381.0 61.5Q1323 57 1268.5 51.0Q1214 45 1171.5 38.0Q1129 31 1107 22ZM571 57Q533 93 506.0 114.0Q479 135 460.0 148.0Q441 161 424 172Q349 164 281.0 148.5Q213 133 165.0 117.5Q117 102 100 94Q102 111 104.0 139.5Q106 168 106 198Q106 223 104.5 246.0Q103 269 100 283Q117 276 161.0 259.5Q205 243 272.5 227.0Q340 211 427 204Q452 221 484.5 246.5Q517 272 567 318Q515 365 482.0 390.0Q449 415 423 432Q348 424 280.5 408.5Q213 393 165.0 377.5Q117 362 100 354Q102 371 104.0 399.5Q106 428 106 458Q106 483 104.5 506.0Q103 529 100 543Q117 536 161.5 519.5Q206 503 274.0 486.5Q342 470 429 463Q445 473 464.0 485.5Q483 498 508.5 518.5Q534 539 571 572L587 562Q574 544 560.0 521.0Q546 498 535.0 477.5Q524 457 518 446Q524 435 537.5 412.0Q551 389 567.5 363.5Q584 338 597 320Q584 302 567.5 274.5Q551 247 537.5 222.0Q524 197 518 186Q524 175 535.0 155.0Q546 135 560.0 112.5Q574 90 587 72ZM491 -176Q503 -125 503 -71Q503 -17 491 40Q532 29 602.5 17.5Q673 6 765.5 -5.0Q858 -16 964.0 -25.0Q1070 -34 1182.5 -40.5Q1295 -47 1407.0 -51.0Q1519 -55 1621 -55H1710V-81H1639Q1537 -81 1424.0 -85.0Q1311 -89 1196.5 -95.5Q1082 -102 974.0 -111.0Q866 -120 771.5 -131.0Q677 -142 605.0 -153.0Q533 -164 491 -176Z" />
  </g>
</svg>