<svg xmlns="http://www.w3.org/2000/svg" viewBox="100 -112 1386 848">
  <g transform="translate(0, 624) scale(1, -1)">
    <path fill="black" d="M416 -112V-44Q416 -4 414.5 32.0Q413 68 411 99Q329 146 250.0 183.5Q171 221 100 243Q123 267 141.0 294.5Q159 322 174 352Q159 382 141.0 409.5Q123 437 100 461Q186 488 255.0 518.0Q324 548 390.5 586.0Q457 624 535 674Q531 691 527.5 706.5Q524 722 520 736Q571 724 625 724Q679 724 736 736Q726 700 715 644Q853 607 997.5 597.5Q1142 588 1302 587Q1295 630 1287.0 667.5Q1279 705 1270 736Q1321 724 1375 724Q1429 724 1486 736Q1472 686 1458.5 607.5Q1445 529 1433.5 434.5Q1422 340 1412.5 241.5Q1403 143 1398.0 52.0Q1393 -39 1393 -110H1363Q1363 -52 1360 17H1351Q1233 17 1118.0 12.0Q1003 7 900.0 -5.5Q797 -18 713 -41Q719 -5 719 32Q719 69 713 105Q812 78 914.0 65.5Q1016 53 1124.5 50.0Q1233 47 1351 47H1359Q1355 128 1347.5 216.5Q1340 305 1330.0 392.0Q1320 479 1307 557Q1197 556 1090.0 550.5Q983 545 887.5 533.0Q792 521 713 499Q719 535 719 572Q719 588 717.5 604.5Q716 621 714 637Q702 573 691.0 493.0Q680 413 671.0 326.5Q662 240 655.0 155.0Q648 70 645 -5Q677 -27 707.5 -47.0Q738 -67 766 -86L750 -111Q725 -94 698.5 -77.0Q672 -60 644 -43Q643 -60 643.0 -77.0Q643 -94 643 -110H613Q613 -90 612.5 -67.5Q612 -45 612 -22Q572 3 531.5 28.0Q491 53 450 77Q448 52 447.0 24.0Q446 -4 446 -34V-112ZM610 19Q607 93 601.0 174.5Q595 256 586.0 339.0Q577 422 566.0 499.5Q555 577 542 642Q431 567 347.5 499.0Q264 431 193 352Q231 312 285.5 265.0Q340 218 403 169Q390 266 368.5 327.0Q347 388 325 431Q376 419 433 419Q485 419 542 431Q524 396 506.5 354.0Q489 312 475.5 258.0Q462 204 454 130Q492 102 531.5 74.0Q571 46 610 19ZM889 75Q882 113 872.0 127.5Q862 142 852 158Q838 154 824.5 149.5Q811 145 794 139Q796 152 797.0 165.0Q798 178 798 191Q798 204 797.0 217.5Q796 231 794 246Q816 238 837.5 231.5Q859 225 887.5 220.0Q916 215 957.5 211.5Q999 208 1060 205L1061 206Q1055 283 1050.0 330.0Q1045 377 1039.5 407.0Q1034 437 1027.0 463.0Q1020 489 1011 523Q1037 517 1064 517Q1091 517 1119 523Q1114 504 1109.5 487.0Q1105 470 1101 452Q1111 450 1126.5 447.0Q1142 444 1158 441Q1154 461 1148.5 479.5Q1143 498 1136 523Q1162 517 1189 517Q1216 517 1244 523Q1236 495 1230.0 470.0Q1224 445 1219.5 414.0Q1215 383 1211.5 337.5Q1208 292 1205 224Q1215 234 1225.0 244.5Q1235 255 1244 266L1253 261Q1238 235 1227.5 215.0Q1217 195 1208 178Q1215 166 1227.5 147.5Q1240 129 1258 106L1250 99Q1232 116 1217.5 128.0Q1203 140 1191 150H1190V151L1154 178L1186 206Q1185 220 1184.0 233.0Q1183 246 1182 258Q1167 257 1151.0 254.0Q1135 251 1121 249Q1109 227 1100.0 209.5Q1091 192 1083 178Q1090 166 1102.5 147.5Q1115 129 1133 106L1125 99Q1107 116 1092.5 128.0Q1078 140 1066 150H1065V151L1029 178L1039 186Q963 178 922.5 172.0Q882 166 853 158Q863 156 873.5 155.5Q884 155 894 155Q905 155 915.5 155.5Q926 156 938 158Q928 142 918.0 127.5Q908 113 900 75ZM1080 224 1100 245 1093 242Q1094 247 1094.5 252.5Q1095 258 1095 264Q1095 269 1094.5 273.5Q1094 278 1093 282Q1101 278 1128.5 273.5Q1156 269 1181 266L1177 315Q1152 311 1126.5 307.5Q1101 304 1093 300Q1094 305 1094.5 310.5Q1095 316 1095 321Q1095 326 1094.5 330.5Q1094 335 1093 340Q1101 336 1126.0 331.5Q1151 327 1176 324Q1175 338 1174.0 350.0Q1173 362 1171 372Q1146 368 1123.5 364.5Q1101 361 1093 357Q1094 362 1094.5 367.5Q1095 373 1095 379Q1095 384 1094.5 388.5Q1094 393 1093 397Q1100 394 1123.0 390.0Q1146 386 1169 382Q1167 395 1165.0 406.5Q1163 418 1161 428Q1141 425 1122.0 422.0Q1103 419 1095 416Q1090 384 1086.5 338.5Q1083 293 1080 224Z" />
  </g>
</svg>