<svg xmlns="http://www.w3.org/2000/svg" viewBox="100 -111 1346 847">
  <g transform="translate(0, 625) scale(1, -1)">
    <path fill="black" d="M750 -111Q731 -99 712.5 -86.5Q694 -74 674 -61Q673 -74 673.0 -86.5Q673 -99 673 -110H643Q643 -93 643.0 -76.0Q643 -59 642 -41Q554 16 459.5 71.5Q365 127 273.0 172.5Q181 218 100 243Q123 267 141.0 294.5Q159 322 174 352Q159 382 141.0 409.5Q123 437 100 461Q168 482 224.5 505.0Q281 528 334.0 555.5Q387 583 442.0 616.0Q497 649 561 691Q559 703 556.0 714.5Q553 726 550 736Q601 724 655 724Q709 724 766 736Q758 706 749.5 665.0Q741 624 733 575Q861 540 994.0 529.5Q1127 519 1273 517Q1255 646 1230 736Q1281 724 1335 724Q1389 724 1446 736Q1432 686 1418.5 607.5Q1405 529 1393.5 434.5Q1382 340 1372.5 241.5Q1363 143 1358.0 52.0Q1353 -39 1353 -110H1323Q1323 -59 1321.0 1.5Q1319 62 1314 127Q1206 126 1101.5 120.5Q997 115 903.5 102.5Q810 90 733 69Q739 105 739 142Q739 179 733 215Q870 178 1012.0 168.0Q1154 158 1312 157Q1306 239 1297.5 323.5Q1289 408 1278 486Q1125 484 983.5 471.5Q842 459 733 429Q739 465 739 502Q739 538 733 574Q723 508 713.5 431.5Q704 355 696.0 275.5Q688 196 682.5 119.0Q677 42 675 -25Q698 -41 721.0 -56.5Q744 -72 766 -86ZM641 -2Q638 76 631.5 163.0Q625 250 615.5 338.5Q606 427 594.0 509.5Q582 592 568 660Q488 606 421.5 557.0Q355 508 299.0 458.0Q243 408 193 352Q241 301 314.0 240.5Q387 180 472.0 117.5Q557 55 641 -2ZM590 194Q556 224 533.5 242.5Q511 261 491 275Q505 286 529.5 309.0Q554 332 578 359Q550 383 529.5 399.5Q509 416 491 429Q505 442 532.0 467.0Q559 492 584 520L593 515Q578 488 567.5 467.0Q557 446 547 429Q554 417 567.0 397.5Q580 378 598 355L590 348L587 351L547 275Q554 263 567.0 243.5Q580 224 598 201ZM388 194Q354 224 331.5 242.5Q309 261 289 275Q303 286 327.5 309.0Q352 332 376 359Q348 383 327.5 399.5Q307 416 289 429Q303 442 330.0 467.0Q357 492 382 520L391 515Q376 488 365.5 467.0Q355 446 344 429Q352 417 365.0 397.5Q378 378 396 355L388 348L385 351Q372 327 362.5 309.0Q353 291 344 275Q352 263 365.0 243.5Q378 224 396 201ZM514 369Q486 395 473.5 406.0Q461 417 443 429Q455 440 470.5 451.5Q486 463 514 488L521 484Q511 469 504.5 455.5Q498 442 491 429Q498 417 504.5 403.5Q511 390 521 375ZM466 369Q438 395 425.5 406.0Q413 417 395 429Q407 440 422.0 451.5Q437 463 466 488L473 484Q463 469 456.5 455.5Q450 442 442 429Q450 417 456.5 403.5Q463 390 473 375ZM418 369Q390 395 377.0 406.0Q364 417 347 429Q358 440 373.5 451.5Q389 463 418 488L424 484Q414 469 407.5 455.5Q401 442 394 429Q401 417 407.5 403.5Q414 390 424 375ZM466 215Q438 241 425.5 252.5Q413 264 395 275Q407 286 422.0 297.5Q437 309 466 334L473 330Q463 315 456.5 302.0Q450 289 442 275Q450 263 456.5 249.5Q463 236 473 221ZM514 215Q486 241 473.5 252.5Q461 264 443 275Q455 286 470.5 297.5Q486 309 514 334L521 330Q511 315 504.5 302.0Q498 289 491 275Q498 263 504.5 249.5Q511 236 521 221ZM418 215Q390 241 377.0 252.5Q364 264 347 275Q358 286 373.5 297.5Q389 309 418 334L424 330Q414 315 407.5 302.0Q401 289 394 275Q401 263 407.5 249.5Q414 236 424 221Z" />
  </g>
</svg>