<svg xmlns="http://www.w3.org/2000/svg" viewBox="100 -112 1386 848">
  <g transform="translate(0, 624) scale(1, -1)">
    <path fill="black" d="M416 -112V-44Q416 -4 414.5 32.0Q413 68 411 99Q329 146 250.0 183.5Q171 221 100 243Q123 267 141.0 294.5Q159 322 174 352Q159 382 141.0 409.5Q123 437 100 461Q186 488 255.0 518.0Q324 548 390.5 586.0Q457 624 535 674Q531 691 527.5 706.5Q524 722 520 736Q571 724 625 724Q679 724 736 736Q726 700 715 644Q853 607 997.5 597.5Q1142 588 1302 587Q1295 630 1287.0 667.5Q1279 705 1270 736Q1321 724 1375 724Q1429 724 1486 736Q1472 686 1458.5 607.5Q1445 529 1433.5 434.5Q1422 340 1412.5 241.5Q1403 143 1398.0 52.0Q1393 -39 1393 -110H1363Q1363 -52 1360 17H1351Q1233 17 1118.0 12.0Q1003 7 900.0 -5.5Q797 -18 713 -41Q719 -5 719 32Q719 69 713 105Q812 78 914.0 65.5Q1016 53 1124.5 50.0Q1233 47 1351 47H1359Q1355 128 1347.5 216.5Q1340 305 1330.0 392.0Q1320 479 1307 557Q1197 556 1090.0 550.5Q983 545 887.5 533.0Q792 521 713 499Q719 535 719 572Q719 588 717.5 604.5Q716 621 714 637Q702 573 691.0 493.0Q680 413 671.0 326.5Q662 240 655.0 155.0Q648 70 645 -5Q677 -27 707.5 -47.0Q738 -67 766 -86L750 -111Q725 -94 698.5 -77.0Q672 -60 644 -43Q643 -60 643.0 -77.0Q643 -94 643 -110H613Q613 -90 612.5 -67.5Q612 -45 612 -22Q572 3 531.5 28.0Q491 53 450 77Q448 52 447.0 24.0Q446 -4 446 -34V-112ZM610 19Q607 93 601.0 174.5Q595 256 586.0 339.0Q577 422 566.0 499.5Q555 577 542 642Q431 567 347.5 499.0Q264 431 193 352Q231 312 285.5 265.0Q340 218 403 169Q390 266 368.5 327.0Q347 388 325 431Q376 419 433 419Q485 419 542 431Q524 396 506.5 354.0Q489 312 475.5 258.0Q462 204 454 130Q492 102 531.5 74.0Q571 46 610 19ZM825 86Q831 113 831 141Q831 170 825 200Q840 196 861 191Q858 235 851.0 269.5Q844 304 834 339Q840 338 846.5 337.0Q853 336 859 335Q855 394 849.0 438.5Q843 483 834 514Q843 512 852.0 510.5Q861 509 870 509Q880 509 889.5 510.5Q899 512 909 514Q927 509 945 509Q960 509 975 512V514L979 512L984 514L983 511Q990 510 996.0 509.5Q1002 509 1009 509Q1025 509 1041 512V514L1045 512L1050 514L1049 511Q1056 510 1062.5 509.5Q1069 509 1076 509Q1086 509 1096.0 510.5Q1106 512 1116 514Q1102 464 1094.0 375.5Q1086 287 1085 163Q1141 158 1193.0 155.0Q1245 152 1286 151Q1230 201 1184.0 235.0Q1138 269 1094 291Q1123 308 1146 331Q1144 393 1136.0 437.0Q1128 481 1116 525Q1125 523 1134.0 521.5Q1143 520 1153 520Q1163 520 1172.5 521.5Q1182 523 1192 525Q1180 484 1172.5 443.0Q1165 402 1162 347Q1167 352 1171.0 357.0Q1175 362 1179 367Q1196 322 1236.0 259.5Q1276 197 1334 126L1324 117L1304 135Q1257 135 1191.5 131.5Q1126 128 1056.5 121.5Q987 115 925.5 106.0Q864 97 825 86ZM939 179Q938 295 930.0 379.0Q922 463 909 511Q901 481 894.5 437.0Q888 393 885 335Q891 336 897.0 337.0Q903 338 910 339Q900 303 892.5 267.5Q885 232 882 188Q895 186 909.5 183.5Q924 181 939 179ZM1005 171Q1004 281 997.0 363.0Q990 445 979 496Q968 446 961.0 366.0Q954 286 953 177ZM1071 164Q1070 390 1045 496Q1034 445 1027.0 362.5Q1020 280 1019 169Z" />
  </g>
</svg>