<svg xmlns="http://www.w3.org/2000/svg" viewBox="100 -559 2008 1950">
  <g transform="translate(0, 832) scale(1, -1)">
    <path fill="black" d="M777 33 754 36Q753 87 747.5 143.0Q742 199 734.5 251.5Q727 304 718 343Q757 338 808.5 333.5Q860 329 915 328Q913 372 908.0 417.0Q903 462 896 502L892 498Q807 583 748.0 631.0Q689 679 648.5 703.0Q608 727 578 739Q621 680 685.5 605.5Q750 531 838 443L824 429Q695 558 591.0 639.0Q487 720 428 752Q469 698 523.5 633.5Q578 569 640.0 502.0Q702 435 766 371L751 357Q687 422 617.5 485.0Q548 548 482.5 603.5Q417 659 361.5 701.0Q306 743 269 766Q304 719 352.0 660.0Q400 601 456.5 537.5Q513 474 571.5 411.0Q630 348 686 292L672 278Q611 339 541.5 403.0Q472 467 402.0 527.5Q332 588 270.5 637.5Q209 687 164.0 718.5Q119 750 100 757Q112 767 124.5 777.5Q137 788 148 799L146 801Q160 815 174.0 829.5Q188 844 203 859L207 865L208 864Q265 923 323.5 987.5Q382 1052 436.0 1115.0Q490 1178 534.0 1233.0Q578 1288 607.0 1329.0Q636 1370 643 1391Q660 1364 688.5 1336.0Q717 1308 750 1283L742 1280Q770 1248 807 1215Q809 1215 809 1218L818 1205L833 1194L829 1193Q845 1176 860.0 1160.0Q875 1144 892 1130Q894 1132 894 1133Q897 1129 903.5 1122.5Q910 1116 917 1111Q913 1111 913 1109Q949 1064 1002 1026Q959 1012 880.0 960.5Q801 909 679 795Q692 766 716.0 729.5Q740 693 782.5 643.5Q825 594 894 525Q890 543 886.5 559.0Q883 575 880 590Q927 583 991.5 579.5Q1056 576 1123 576Q1140 576 1157.5 576.0Q1175 576 1192 577L1198 556Q1141 534 1085.5 516.5Q1030 499 986 488Q982 460 972.5 416.0Q963 372 952 328L1029 329L1035 308Q978 286 923.0 269.0Q868 252 824 241Q821 217 813.5 181.0Q806 145 796.5 106.5Q787 68 777 33ZM245 800Q274 821 297.0 846.0Q320 871 336 894Q339 885 345.5 872.5Q352 860 361 845Q436 923 503.5 1000.5Q571 1078 623.0 1144.5Q675 1211 702 1256Q664 1230 607.0 1185.0Q550 1140 484.0 1083.5Q418 1027 349.0 965.0Q280 903 218 843Q223 834 229.5 823.0Q236 812 245 800ZM406 780Q434 803 457.5 827.5Q481 852 499 875Q505 858 517 835Q613 937 682.0 1024.0Q751 1111 785 1168Q741 1140 673.5 1087.5Q606 1035 528.5 967.5Q451 900 374 826Q381 816 389.0 804.0Q397 792 406 780ZM561 762Q588 785 611.5 809.5Q635 834 654 858Q660 836 668 817Q758 912 806.0 978.5Q854 1045 877 1092Q822 1060 729.0 987.5Q636 915 529 814Q536 802 544.0 789.0Q552 776 561 762ZM1349 -559 1331 -540Q1371 -491 1404.0 -448.5Q1437 -406 1465 -368Q1435 -338 1401.0 -305.0Q1367 -272 1331 -237Q1288 -277 1249.0 -315.0Q1210 -353 1176 -386L1158 -368Q1192 -334 1229.5 -295.5Q1267 -257 1307 -214Q1272 -180 1236 -149Q1193 -188 1155.0 -225.0Q1117 -262 1084 -295L1065 -277Q1133 -209 1211 -125L1140 -63Q1100 -100 1063.0 -136.0Q1026 -172 994 -204L976 -185Q1007 -154 1042.5 -117.0Q1078 -80 1115 -40L1039 24Q1001 -12 966.0 -46.0Q931 -80 901 -110L882 -92Q912 -62 945.5 -27.5Q979 7 1014 44Q973 77 935.5 103.5Q898 130 869 146Q898 166 924.0 193.0Q950 220 972 249Q990 217 1015.5 180.5Q1041 144 1071 105Q1125 164 1179.0 224.0Q1233 284 1280 339Q1244 368 1211.5 391.0Q1179 414 1152 429Q1211 471 1255 532Q1271 504 1292.0 472.5Q1313 441 1338 408Q1387 467 1419.5 511.0Q1452 555 1459 574Q1479 547 1507.0 518.5Q1535 490 1567 467L1560 464Q1574 445 1594.0 424.0Q1614 403 1639 385L1640 387L1647 378L1657 370H1654Q1669 350 1689.0 330.5Q1709 311 1731 293L1732 295L1737 288L1748 280L1744 279Q1765 254 1788.5 231.0Q1812 208 1840 188Q1822 181 1772.5 144.0Q1723 107 1656 51Q1685 20 1713.0 -8.0Q1741 -36 1767 -62Q1811 -1 1850.5 56.0Q1890 113 1918.5 158.0Q1947 203 1956 229Q1988 188 2025.0 147.0Q2062 106 2108 76Q2084 66 2037.5 37.0Q1991 8 1931.5 -32.0Q1872 -72 1810.0 -117.5Q1748 -163 1694 -207Q1710 -221 1728.0 -236.0Q1746 -251 1766 -265Q1683 -299 1580.0 -370.5Q1477 -442 1349 -559ZM1423 304Q1461 349 1489.5 385.5Q1518 422 1534 447Q1509 431 1473.5 403.0Q1438 375 1394 339Q1407 321 1423 304ZM1508 207Q1544 250 1572.0 286.0Q1600 322 1618 348Q1593 330 1557.5 302.0Q1522 274 1480 238ZM1156 3Q1215 67 1273.0 131.5Q1331 196 1382 255Q1371 266 1360.0 274.5Q1349 283 1338 292Q1281 243 1218.5 187.5Q1156 132 1095 76Q1109 58 1124.5 39.5Q1140 21 1156 3ZM1597 111Q1635 157 1665.0 195.0Q1695 233 1712 260Q1687 242 1649.5 212.5Q1612 183 1566 145ZM1241 -93Q1303 -27 1364.5 41.0Q1426 109 1478 171L1439 205Q1379 153 1312.0 93.5Q1245 34 1181 -26ZM1331 -188Q1393 -120 1456.5 -50.5Q1520 19 1573 83L1536 119Q1473 66 1403.0 4.0Q1333 -58 1266 -120ZM1483 -343Q1527 -281 1557.5 -225.5Q1588 -170 1613 -112Q1627 -132 1642.5 -151.0Q1658 -170 1675 -188L1749 -86Q1696 -33 1630 30Q1567 -25 1495.5 -88.0Q1424 -151 1356 -214Q1390 -248 1421.5 -280.5Q1453 -313 1483 -343Z" />
  </g>
</svg>