<svg xmlns="http://www.w3.org/2000/svg" viewBox="100 -496 703 1501">
  <g transform="translate(0, 509) scale(1, -1)">
    <path fill="black" d="M785 264Q709 332 657.0 374.0Q605 416 560 449Q580 466 612.5 495.0Q645 524 683.0 561.0Q721 598 757 638Q693 694 647.0 731.5Q601 769 560 799Q582 818 617.5 849.5Q653 881 694.0 921.5Q735 962 772 1005L792 994Q758 933 733.5 885.0Q709 837 686 799Q703 771 732.5 727.0Q762 683 803 629L785 614L778 620Q750 567 728.0 525.5Q706 484 686 449Q703 421 732.5 377.0Q762 333 803 279ZM325 264Q249 332 197.0 374.0Q145 416 100 449Q120 466 152.5 495.0Q185 524 223.0 561.0Q261 598 297 638Q233 694 187.0 731.5Q141 769 100 799Q122 818 157.5 849.5Q193 881 234.0 921.5Q275 962 312 1005L332 994Q298 933 273.5 885.0Q249 837 226 799Q243 771 272.5 727.0Q302 683 343 629L325 614L318 620Q290 567 268.0 525.5Q246 484 226 449Q243 421 272.5 377.0Q302 333 343 279ZM613 662Q570 701 544.0 724.5Q518 748 498.0 764.5Q478 781 451 799Q469 815 489.5 831.0Q510 847 539.5 870.5Q569 894 613 933L628 923Q606 889 590.5 858.5Q575 828 559 799Q575 771 590.5 740.5Q606 710 628 675ZM503 662Q460 701 434.0 724.5Q408 748 388.0 764.5Q368 781 341 799Q359 815 379.5 831.0Q400 847 429.5 870.5Q459 894 503 933L518 923Q496 889 480.5 858.5Q465 828 449 799Q465 771 480.5 740.5Q496 710 518 675ZM393 662Q350 701 324.0 724.5Q298 748 278.0 764.5Q258 781 231 799Q249 815 269.5 831.0Q290 847 319.5 870.5Q349 894 393 933L408 923Q386 889 370.5 858.5Q355 828 339 799Q355 771 370.5 740.5Q386 710 408 675ZM393 312Q350 351 324.0 374.5Q298 398 278.0 414.5Q258 431 231 449Q249 465 269.5 481.0Q290 497 319.5 520.5Q349 544 393 583L408 573Q386 539 370.5 508.5Q355 478 339 449Q355 421 370.5 390.5Q386 360 408 325ZM503 312Q460 351 434.0 374.5Q408 398 388.0 414.5Q368 431 341 449Q359 465 379.5 481.0Q400 497 429.5 520.5Q459 544 503 583L518 573Q496 539 480.5 508.5Q465 478 449 449Q465 421 480.5 390.5Q496 360 518 325ZM613 312Q570 351 544.0 374.5Q518 398 498.0 414.5Q478 431 451 449Q469 465 489.5 481.0Q510 497 539.5 520.5Q569 544 613 583L628 573Q606 539 590.5 508.5Q575 478 559 449Q575 421 590.5 390.5Q606 360 628 325ZM785 -496Q709 -428 657.0 -386.0Q605 -344 560 -311Q580 -294 612.5 -265.0Q645 -236 683.0 -199.0Q721 -162 757 -122Q693 -66 647.0 -28.5Q601 9 560 39Q582 58 617.5 89.5Q653 121 694.0 161.5Q735 202 772 245L792 234Q758 173 733.5 125.0Q709 77 686 39Q703 11 732.5 -33.0Q762 -77 803 -131L785 -146L778 -140Q750 -193 728.0 -234.5Q706 -276 686 -311Q703 -339 732.5 -383.0Q762 -427 803 -481ZM325 -496Q249 -428 197.0 -386.0Q145 -344 100 -311Q120 -294 152.5 -265.0Q185 -236 223.0 -199.0Q261 -162 297 -122Q233 -66 187.0 -28.5Q141 9 100 39Q122 58 157.5 89.5Q193 121 234.0 161.5Q275 202 312 245L332 234Q298 173 273.5 125.0Q249 77 226 39Q243 11 272.5 -33.0Q302 -77 343 -131L325 -146L318 -140Q290 -193 268.0 -234.5Q246 -276 226 -311Q243 -339 272.5 -383.0Q302 -427 343 -481ZM393 -98Q350 -59 324.0 -35.5Q298 -12 278.0 4.5Q258 21 231 39Q249 55 269.5 71.0Q290 87 319.5 110.5Q349 134 393 173L408 163Q386 129 370.5 98.5Q355 68 339 39Q355 11 370.5 -19.5Q386 -50 408 -85ZM503 -98Q460 -59 434.0 -35.5Q408 -12 388.0 4.5Q368 21 341 39Q359 55 379.5 71.0Q400 87 429.5 110.5Q459 134 503 173L518 163Q496 129 480.5 98.5Q465 68 449 39Q465 11 480.5 -19.5Q496 -50 518 -85ZM613 -98Q570 -59 544.0 -35.5Q518 -12 498.0 4.5Q478 21 451 39Q469 55 489.5 71.0Q510 87 539.5 110.5Q569 134 613 173L628 163Q606 129 590.5 98.5Q575 68 559 39Q575 11 590.5 -19.5Q606 -50 628 -85ZM503 -448Q460 -409 434.0 -385.5Q408 -362 388.0 -345.5Q368 -329 341 -311Q359 -295 379.5 -279.0Q400 -263 429.5 -239.5Q459 -216 503 -177L518 -187Q496 -221 480.5 -251.5Q465 -282 449 -311Q465 -339 480.5 -369.5Q496 -400 518 -435ZM613 -448Q570 -409 544.0 -385.5Q518 -362 498.0 -345.5Q478 -329 451 -311Q469 -295 489.5 -279.0Q510 -263 539.5 -239.5Q569 -216 613 -177L628 -187Q606 -221 590.5 -251.5Q575 -282 559 -311Q575 -339 590.5 -369.5Q606 -400 628 -435ZM393 -448Q350 -409 324.0 -385.5Q298 -362 278.0 -345.5Q258 -329 231 -311Q249 -295 269.5 -279.0Q290 -263 319.5 -239.5Q349 -216 393 -177L408 -187Q386 -221 370.5 -251.5Q355 -282 339 -311Q355 -339 370.5 -369.5Q386 -400 408 -435Z" />
  </g>
</svg>