<svg xmlns="http://www.w3.org/2000/svg" viewBox="100 -112 1407 850">
  <g transform="translate(0, 626) scale(1, -1)">
    <path fill="black" d="M1386 -112Q1386 -88 1385.5 -64.0Q1385 -40 1385 -18Q1281 -19 1177.5 -30.0Q1074 -41 982.0 -59.0Q890 -77 820 -98Q826 -68 829.5 -39.5Q833 -11 833 15Q833 41 829.5 67.0Q826 93 820 118Q833 114 847.5 109.0Q862 104 877 99Q876 131 874.0 178.0Q872 225 869.0 276.5Q866 328 861.0 378.0Q856 428 849.0 467.0Q842 506 834 526Q861 520 883 520Q907 520 940 526Q933 509 927.0 469.5Q921 430 916.5 378.0Q912 326 909.0 271.5Q906 217 903.5 169.5Q901 122 899 93Q967 73 1047.0 55.5Q1127 38 1213.0 26.5Q1299 15 1384 14Q1383 70 1380.5 121.5Q1378 173 1374 221Q1258 209 1175.0 193.0Q1092 177 1024 150Q1028 170 1030.0 189.0Q1032 208 1032 228Q1032 247 1030.5 266.0Q1029 285 1024 305Q1141 259 1372 245Q1366 322 1357 390Q1248 378 1169.0 362.0Q1090 346 1024 320Q1028 340 1030.0 359.0Q1032 378 1032 398Q1032 417 1030.5 436.0Q1029 455 1024 475Q1135 431 1354 417Q1347 467 1339.0 513.0Q1331 559 1323 599Q1221 594 1146.0 582.5Q1071 571 1010.0 555.5Q949 540 890 522Q896 552 899.5 580.5Q903 609 903 635Q903 661 899.5 687.0Q896 713 890 738Q948 719 1007.0 699.0Q1066 679 1140.0 663.0Q1214 647 1315 639Q1309 666 1303.0 690.0Q1297 714 1291 736Q1342 724 1396 724Q1450 724 1507 736Q1484 653 1462.0 533.5Q1440 414 1426.0 254.0Q1412 94 1412 -112ZM785 -66Q709 2 657.0 44.0Q605 86 560 119Q580 136 612.5 165.0Q645 194 683.0 231.0Q721 268 757 308Q693 364 647.0 401.5Q601 439 560 469Q582 488 617.5 519.5Q653 551 694.0 591.5Q735 632 772 675L792 664Q758 603 733.5 555.0Q709 507 686 469Q703 441 732.5 397.0Q762 353 803 299L785 284L778 290Q750 237 728.0 195.5Q706 154 686 119Q703 91 732.5 47.0Q762 3 803 -51ZM325 -66Q249 2 197.0 44.0Q145 86 100 119Q120 136 152.5 165.0Q185 194 223.0 231.0Q261 268 297 308Q233 364 187.0 401.5Q141 439 100 469Q122 488 157.5 519.5Q193 551 234.0 591.5Q275 632 312 675L332 664Q298 603 273.5 555.0Q249 507 226 469Q243 441 272.5 397.0Q302 353 343 299L325 284L318 290Q290 237 268.0 195.5Q246 154 226 119Q243 91 272.5 47.0Q302 3 343 -51ZM613 332Q570 371 544.0 394.5Q518 418 498.0 434.5Q478 451 451 469Q469 485 489.5 501.0Q510 517 539.5 540.5Q569 564 613 603L628 593Q606 559 590.5 528.5Q575 498 559 469Q575 441 590.5 410.5Q606 380 628 345ZM503 332Q460 371 434.0 394.5Q408 418 388.0 434.5Q368 451 341 469Q359 485 379.5 501.0Q400 517 429.5 540.5Q459 564 503 603L518 593Q496 559 480.5 528.5Q465 498 449 469Q465 441 480.5 410.5Q496 380 518 345ZM393 332Q350 371 324.0 394.5Q298 418 278.0 434.5Q258 451 231 469Q249 485 269.5 501.0Q290 517 319.5 540.5Q349 564 393 603L408 593Q386 559 370.5 528.5Q355 498 339 469Q355 441 370.5 410.5Q386 380 408 345ZM393 -18Q350 21 324.0 44.5Q298 68 278.0 84.5Q258 101 231 119Q249 135 269.5 151.0Q290 167 319.5 190.5Q349 214 393 253L408 243Q386 209 370.5 178.5Q355 148 339 119Q355 91 370.5 60.5Q386 30 408 -5ZM503 -18Q460 21 434.0 44.5Q408 68 388.0 84.5Q368 101 341 119Q359 135 379.5 151.0Q400 167 429.5 190.5Q459 214 503 253L518 243Q496 209 480.5 178.5Q465 148 449 119Q465 91 480.5 60.5Q496 30 518 -5ZM613 -18Q570 21 544.0 44.5Q518 68 498.0 84.5Q478 101 451 119Q469 135 489.5 151.0Q510 167 539.5 190.5Q569 214 613 253L628 243Q606 209 590.5 178.5Q575 148 559 119Q575 91 590.5 60.5Q606 30 628 -5Z" />
  </g>
</svg>