<svg xmlns="http://www.w3.org/2000/svg" viewBox="100 -290 2081 1225">
  <g transform="translate(0, 645) scale(1, -1)">
    <path fill="black" d="M1203 -290Q1182 -235 1152.5 -189.5Q1123 -144 1086 -107Q1124 -95 1178.5 -76.0Q1233 -57 1300 -32H1285Q1285 -6 1285.0 18.5Q1285 43 1283 65Q1258 53 1243 42Q1235 117 1203 171Q1217 171 1235.5 173.0Q1254 175 1274 178Q1267 240 1255.0 288.5Q1243 337 1227 382Q1243 378 1259.5 376.5Q1276 375 1293 375Q1310 375 1327.5 376.5Q1345 378 1362 382Q1347 339 1335.0 291.5Q1323 244 1315 185Q1338 190 1363.0 195.0Q1388 200 1415 206Q1408 257 1396.5 299.5Q1385 342 1371 382Q1387 378 1403.5 376.5Q1420 375 1437 375Q1454 375 1471.5 376.5Q1489 378 1507 382Q1493 345 1482.5 304.5Q1472 264 1464 217Q1565 240 1677.5 270.0Q1790 300 1896 329Q1800 356 1697.5 383.0Q1595 410 1500.0 432.5Q1405 455 1327.5 470.0Q1250 485 1203 487Q1235 540 1243 615Q1271 597 1328.0 570.0Q1385 543 1460.0 511.5Q1535 480 1618.0 447.5Q1701 415 1780.5 386.0Q1860 357 1926 335L1923 329L1926 322Q1860 301 1778.5 271.0Q1697 241 1613.5 208.5Q1530 176 1455 144Q1449 92 1449 25Q1599 84 1778.5 160.5Q1958 237 2141 323Q2010 384 1881.0 440.5Q1752 497 1632.0 546.5Q1512 596 1407.5 636.5Q1303 677 1220.5 706.5Q1138 736 1086 752Q1123 789 1152.5 834.5Q1182 880 1203 935Q1232 903 1290.0 859.5Q1348 816 1426.5 765.5Q1505 715 1598.0 660.0Q1691 605 1790.5 549.0Q1890 493 1990.0 440.0Q2090 387 2181 340L2173 323L2181 305Q2090 258 1990.0 205.0Q1890 152 1790.5 96.0Q1691 40 1598.0 -15.0Q1505 -70 1426.5 -120.5Q1348 -171 1290.0 -214.5Q1232 -258 1203 -290ZM348 -127Q317 -99 291.0 -74.0Q265 -49 242 -27Q241 -48 241.0 -69.0Q241 -90 241 -112H215Q215 -83 214.5 -55.0Q214 -27 213 0Q182 31 155.0 56.5Q128 82 100 102Q118 118 145.5 140.0Q173 162 205 190Q193 375 169.0 510.0Q145 645 120 736Q171 724 225 724Q279 724 336 736Q312 650 289.5 526.0Q267 402 253 233Q277 256 301.5 280.0Q326 304 348 330L372 317Q332 246 303.0 196.0Q274 146 248 102Q274 58 303.0 8.0Q332 -42 372 -113ZM1078 -77Q1077 -47 1074.5 -6.5Q1072 34 1068 80Q956 76 875.0 66.0Q794 56 735.0 42.0Q676 28 629.5 12.0Q583 -4 539 -21Q545 5 548.0 36.5Q551 68 551 95Q551 122 548.0 153.5Q545 185 539 213Q582 196 628.5 179.5Q675 163 734.0 149.5Q793 136 873.5 126.0Q954 116 1066 112Q1061 176 1054.5 245.0Q1048 314 1041.0 381.5Q1034 449 1026 508Q926 503 852.0 493.0Q778 483 723.0 469.5Q668 456 624.0 440.5Q580 425 539 409Q545 435 548.0 466.5Q551 498 551 525Q551 542 549.5 561.0Q548 580 546 599Q530 556 514.0 474.5Q498 393 485.5 264.5Q473 136 467 -47L438 -48Q423 243 401.5 401.0Q380 559 360 608Q383 604 407.5 602.0Q432 600 456 600Q480 600 502.5 602.0Q525 604 545 607L539 643Q580 627 623.5 611.5Q667 596 721.5 582.5Q776 569 849.0 559.0Q922 549 1021 544Q1014 599 1006.0 639.5Q998 680 990 698Q1040 690 1093 690Q1148 690 1193 698Q1182 672 1172.5 618.0Q1163 564 1154.0 492.5Q1145 421 1137.0 342.0Q1129 263 1122.5 184.5Q1116 106 1110.5 38.5Q1105 -29 1100 -77ZM1304 -31 1429 17Q1428 79 1423 130Q1390 116 1360.5 102.0Q1331 88 1307 76Q1304 28 1304 -31Z" />
  </g>
</svg>