<svg xmlns="http://www.w3.org/2000/svg" viewBox="100 -127 1911 942">
  <g transform="translate(0, 688) scale(1, -1)">
    <path fill="black" d="M1103 0Q1103 80 1100.0 169.5Q1097 259 1091.0 347.0Q1085 435 1077.0 511.0Q1069 587 1060.0 641.0Q1051 695 1041 715Q1073 709 1110 709Q1147 709 1181 715Q1181 732 1180.0 749.5Q1179 767 1176 785Q1191 778 1237.5 770.0Q1284 762 1352.5 755.0Q1421 748 1502.0 742.0Q1583 736 1667.5 731.0Q1752 726 1831 724Q1827 750 1821.0 772.5Q1815 795 1810 815Q1858 803 1908 803Q1959 803 2011 815Q1979 698 1951.0 492.5Q1923 287 1923 0H1898Q1898 94 1895.0 179.0Q1892 264 1885 340Q1704 339 1593.0 320.5Q1482 302 1433 279Q1439 312 1439 354Q1439 359 1438.5 364.5Q1438 370 1438 375Q1428 354 1417.0 329.0Q1406 304 1397.5 264.0Q1389 224 1383.5 161.0Q1378 98 1378 0H1360Q1360 84 1356.0 141.5Q1352 199 1345.5 237.5Q1339 276 1330.5 301.5Q1322 327 1312 348Q1302 283 1296.0 195.0Q1290 107 1290 0H1271Q1271 152 1260.0 260.0Q1249 368 1232 434Q1221 343 1214.0 228.0Q1207 113 1207 0H1188Q1188 100 1183.5 198.5Q1179 297 1170.5 383.0Q1162 469 1150 530Q1142 454 1135.5 362.0Q1129 270 1125.0 176.0Q1121 82 1121 0ZM348 -127Q317 -99 291.0 -74.0Q265 -49 242 -27Q241 -48 241.0 -69.0Q241 -90 241 -112H215Q215 -83 214.5 -55.0Q214 -27 213 0Q182 31 155.0 56.5Q128 82 100 102Q118 118 145.5 140.0Q173 162 205 190Q193 375 169.0 510.0Q145 645 120 736Q171 724 225 724Q279 724 336 736Q312 650 289.5 526.0Q267 402 253 233Q277 256 301.5 280.0Q326 304 348 330L372 317Q332 246 303.0 196.0Q274 146 248 102Q274 58 303.0 8.0Q332 -42 372 -113ZM1871 477Q1869 505 1865.5 530.5Q1862 556 1858 581Q1764 579 1669.0 573.5Q1574 568 1490.5 559.5Q1407 551 1347.0 541.0Q1287 531 1264 520Q1267 537 1268.0 555.0Q1269 573 1269 592Q1269 616 1268.5 627.0Q1268 638 1264 662Q1279 655 1320.5 647.0Q1362 639 1421.5 631.5Q1481 624 1553.0 618.0Q1625 612 1702.0 607.5Q1779 603 1855 601Q1851 629 1846.0 654.0Q1841 679 1836 703Q1757 701 1673.0 697.0Q1589 693 1508.0 687.5Q1427 682 1358.5 675.0Q1290 668 1242.0 660.0Q1194 652 1176 643Q1178 659 1179.5 676.0Q1181 693 1181 712Q1176 700 1171.0 675.0Q1166 650 1161 615Q1169 614 1177.0 614.0Q1185 614 1192 614Q1229 614 1268 620Q1261 606 1254.0 574.0Q1247 542 1241 496Q1250 495 1259.0 494.5Q1268 494 1278 494Q1313 494 1350 500Q1349 510 1348.5 519.5Q1348 529 1346 539Q1366 529 1415.5 519.0Q1465 509 1537.0 500.0Q1609 491 1694.5 485.0Q1780 479 1871 477ZM693 66Q693 140 690.5 206.0Q688 272 683 330Q637 270 603.5 218.5Q570 167 547 126Q504 193 430 242Q471 265 522.5 299.0Q574 333 635 379Q559 369 499.5 356.5Q440 344 394 331Q403 375 403 415Q403 456 394 495Q434 484 485.0 473.0Q536 462 598 452Q549 489 505.5 516.5Q462 544 427 564Q465 589 493.5 618.0Q522 647 544 680Q565 643 595.0 596.5Q625 550 665 496Q655 562 643.5 615.5Q632 669 621 710Q660 701 701 701Q742 701 785 710Q772 663 759.5 601.0Q747 539 736 461Q783 499 833.0 545.5Q883 592 937 646L951 632Q896 578 850.5 528.5Q805 479 766 433Q826 429 894.0 426.0Q962 423 1038 423V403Q874 403 748 391Q789 342 839.0 287.5Q889 233 948 174L934 160Q877 216 824.5 264.5Q772 313 724 353Q719 290 716.0 218.5Q713 147 713 66ZM1884 359Q1882 385 1879.5 409.5Q1877 434 1874 458Q1783 457 1698.0 451.5Q1613 446 1542.0 437.5Q1471 429 1420.0 418.5Q1369 408 1346 397Q1348 412 1349.5 429.0Q1351 446 1351 463Q1351 472 1351.0 480.5Q1351 489 1350 497Q1342 480 1333.5 449.5Q1325 419 1317 376Q1343 373 1369 373Q1386 373 1404.0 374.5Q1422 376 1438 378Q1437 389 1436.0 400.0Q1435 411 1433 421Q1474 401 1588.5 381.5Q1703 362 1884 359Z" />
  </g>
</svg>