<svg xmlns="http://www.w3.org/2000/svg" viewBox="100 -112 2226 848">
  <g transform="translate(0, 624) scale(1, -1)">
    <path fill="black" d="M1256 -112V-44Q1256 -4 1254.5 32.0Q1253 68 1251 99Q1169 146 1090.0 183.5Q1011 221 940 243Q963 267 981.0 294.5Q999 322 1014 352Q999 382 981.0 409.5Q963 437 940 461Q1026 488 1095.0 518.0Q1164 548 1230.5 586.0Q1297 624 1375 674Q1371 691 1367.5 706.5Q1364 722 1360 736Q1411 724 1465 724Q1519 724 1576 736Q1566 700 1555 644Q1693 607 1837.5 597.5Q1982 588 2142 587Q2135 630 2127.0 667.5Q2119 705 2110 736Q2161 724 2215 724Q2269 724 2326 736Q2312 686 2298.5 607.5Q2285 529 2273.5 434.5Q2262 340 2252.5 241.5Q2243 143 2238.0 52.0Q2233 -39 2233 -110H2203Q2203 -52 2200 17H2191Q2073 17 1958.0 12.0Q1843 7 1740.0 -5.5Q1637 -18 1553 -41Q1559 -5 1559 32Q1559 69 1553 105Q1652 78 1754.0 65.5Q1856 53 1964.5 50.0Q2073 47 2191 47H2199Q2195 128 2187.5 216.5Q2180 305 2170.0 392.0Q2160 479 2147 557Q2037 556 1930.0 550.5Q1823 545 1727.5 533.0Q1632 521 1553 499Q1559 535 1559 572Q1559 588 1557.5 604.5Q1556 621 1554 637Q1542 573 1531.0 493.0Q1520 413 1511.0 326.5Q1502 240 1495.0 155.0Q1488 70 1485 -5Q1517 -27 1547.5 -47.0Q1578 -67 1606 -86L1590 -111Q1565 -94 1538.5 -77.0Q1512 -60 1484 -43Q1483 -60 1483.0 -77.0Q1483 -94 1483 -110H1453Q1453 -90 1452.5 -67.5Q1452 -45 1452 -22Q1412 3 1371.5 28.0Q1331 53 1290 77Q1288 52 1287.0 24.0Q1286 -4 1286 -34V-112ZM100 -99Q112 -48 112 6Q112 60 100 117Q114 113 131.5 109.0Q149 105 169 101Q162 182 149.0 247.5Q136 313 118 380Q129 377 141.0 375.5Q153 374 165 373Q150 594 118 710Q153 702 186 702Q203 702 221.0 704.0Q239 706 258 710Q275 706 292.0 704.0Q309 702 327 702Q341 702 355.5 703.5Q370 705 384 707Q383 708 383 710L391 708L400 710Q399 709 399 706Q411 704 423.0 703.0Q435 702 448 702Q463 702 478.0 703.5Q493 705 509 707Q508 708 508 710L516 708L525 710Q524 709 524 706Q537 705 549.5 703.5Q562 702 575 702Q593 702 612.0 704.0Q631 706 650 710Q624 616 608.5 448.5Q593 281 592 47Q696 37 795.0 31.5Q894 26 971 24Q865 118 778.5 183.5Q692 249 609 290Q663 322 707 364Q705 442 697.0 504.0Q689 566 677.5 621.0Q666 676 651 731Q668 727 685.0 725.0Q702 723 720 723Q738 723 756.0 725.0Q774 727 793 731Q779 679 767.5 628.0Q756 577 748.5 520.5Q741 464 737 395Q752 411 769 433Q800 348 876.0 229.5Q952 111 1062 -23L1043 -40L1005 -6Q946 -6 869.5 -9.0Q793 -12 708.0 -18.0Q623 -24 536.5 -32.0Q450 -40 368.5 -50.5Q287 -61 218.0 -73.0Q149 -85 100 -99ZM316 78Q314 298 299.0 456.5Q284 615 259 706Q243 649 231.5 565.5Q220 482 213 373Q224 374 236.0 376.0Q248 378 260 380Q241 312 227.5 245.0Q214 178 207 94Q232 90 259.5 86.0Q287 82 316 78ZM441 62Q440 271 426.5 426.0Q413 581 391 676Q370 582 357.0 430.5Q344 279 342 74ZM566 49Q565 263 552.0 421.0Q539 579 516 676Q494 580 481.5 424.5Q469 269 467 59ZM1450 19Q1447 93 1441.0 174.5Q1435 256 1426.0 339.0Q1417 422 1406.0 499.5Q1395 577 1382 642Q1271 567 1187.5 499.0Q1104 431 1033 352Q1071 312 1125.5 265.0Q1180 218 1243 169Q1230 266 1208.5 327.0Q1187 388 1165 431Q1216 419 1273 419Q1325 419 1382 431Q1364 396 1346.5 354.0Q1329 312 1315.5 258.0Q1302 204 1294 130Q1332 102 1371.5 74.0Q1411 46 1450 19Z" />
  </g>
</svg>