<svg xmlns="http://www.w3.org/2000/svg" viewBox="100 -293 1810 1252">
  <g transform="translate(0, 666) scale(1, -1)">
    <path fill="black" d="M1516 -293Q1513 -283 1510.5 -273.5Q1508 -264 1504 -255L1482 -263L1383 -13Q1301 -17 1222.0 -21.0Q1143 -25 1079.0 -29.0Q1015 -33 974.0 -36.5Q933 -40 926 -43Q931 -12 932.0 15.0Q933 42 926 70Q932 67 970.5 63.5Q1009 60 1070.0 56.0Q1131 52 1206.5 48.0Q1282 44 1362 40L1311 167Q1230 193 1162.0 213.5Q1094 234 1050.0 246.5Q1006 259 998 259Q1012 282 1022.0 306.5Q1032 331 1036 359Q1041 355 1070.0 341.0Q1099 327 1146.0 306.0Q1193 285 1251 260L1268 268Q1234 347 1205.0 407.0Q1176 467 1150 515Q1059 511 997.0 506.0Q935 501 926 497Q931 528 932.0 555.0Q933 582 926 610Q934 607 983.0 603.0Q1032 599 1105 594Q1087 623 1069.0 649.5Q1051 676 1032 701Q1074 710 1118 727Q1108 757 1091 787Q1103 787 1131.0 791.0Q1159 795 1196.0 801.5Q1233 808 1272.0 816.5Q1311 825 1345 835Q1333 852 1321.0 869.0Q1309 886 1297 902Q1376 917 1441 959Q1447 906 1457.0 850.5Q1467 795 1485.5 728.5Q1504 662 1533 574Q1611 571 1677.5 568.5Q1744 566 1791.0 564.5Q1838 563 1855 563L1868 537L1595 400Q1615 346 1638.5 284.5Q1662 223 1690 152L1726 62Q1752 51 1776.0 41.0Q1800 31 1821 23H1855V9L1910 -12L1903 -29Q1892 -24 1867.5 -16.0Q1843 -8 1809 3L1749 1L1804 -137L1779 -146L1775 -136Q1744 -148 1703.5 -170.0Q1663 -192 1624.0 -216.0Q1585 -240 1555.5 -261.0Q1526 -282 1516 -293ZM1186 685Q1217 690 1256.0 697.0Q1295 704 1335.0 713.0Q1375 722 1407 732Q1394 757 1381.0 778.5Q1368 800 1354 820Q1312 799 1264.0 770.5Q1216 742 1181 717Q1182 710 1183.5 701.5Q1185 693 1186 685ZM877 74Q841 109 799.5 144.0Q758 179 717.0 210.0Q676 241 640 264Q621 264 584.5 262.5Q548 261 503 258Q500 226 498.5 198.0Q497 170 497 150H482Q482 170 480.0 197.5Q478 225 476 256L407 251Q405 221 403.5 195.0Q402 169 402 150H387Q387 168 385.5 194.0Q384 220 381 249L312 243Q310 215 308.5 191.0Q307 167 307 150H292Q292 167 290.5 190.0Q289 213 287 240L216 234Q214 209 213.0 187.5Q212 166 212 150H197Q197 166 196.0 186.5Q195 207 193 231Q156 227 131.5 223.5Q107 220 100 217Q105 248 106.0 275.0Q107 302 100 330Q106 327 129.0 323.5Q152 320 185 316Q180 364 173.5 409.0Q167 454 161.5 487.0Q156 520 151 531Q173 527 199.0 525.5Q225 524 247 528L246 531L253 529L258 531L257 529Q280 526 300.5 525.0Q321 524 342 528L341 531L348 529L353 531L352 529Q395 522 437 528L436 531L443 529L448 531L447 529Q475 525 496.5 525.5Q518 526 543 531Q538 520 531.0 481.5Q524 443 517.5 392.0Q511 341 506 289Q549 286 583.0 284.5Q617 283 637 283Q675 312 724.0 352.5Q773 393 819 436Q774 476 727.0 512.5Q680 549 640 574Q616 574 570.0 571.5Q524 569 466.0 565.0Q408 561 348.0 556.0Q288 551 235.0 546.0Q182 541 145.5 536.0Q109 531 100 527Q105 558 106.0 585.0Q107 612 100 640Q109 636 144.0 631.5Q179 627 231.5 621.5Q284 616 343.5 611.0Q403 606 461.0 602.0Q519 598 565.5 595.5Q612 593 637 593Q671 619 713.5 653.5Q756 688 799.0 727.5Q842 767 877 806L899 794Q873 736 838.5 680.5Q804 625 779 584Q794 565 814.5 535.0Q835 505 855 472L877 496L899 484L876 438L899 399L877 384L857 402Q836 366 815.5 333.0Q795 300 779 274Q795 253 816.0 222.5Q837 192 859.0 157.0Q881 122 899 89ZM1279 585Q1324 593 1374.0 604.0Q1424 615 1461 628Q1448 654 1436.0 676.5Q1424 699 1413 720Q1380 705 1340.5 682.0Q1301 659 1264.5 636.0Q1228 613 1203 595L1205 589Q1223 588 1241.5 587.0Q1260 586 1279 585ZM1485 576 1466 617Q1450 610 1431.5 600.5Q1413 591 1393 580Q1416 579 1439.5 578.0Q1463 577 1485 576ZM1585 427 1816 543Q1775 542 1704.0 539.5Q1633 537 1547 534Q1555 509 1565.0 482.5Q1575 456 1585 427ZM1238 465Q1260 467 1294.0 472.5Q1328 478 1367.5 485.5Q1407 493 1444.0 502.5Q1481 512 1509 522L1505 532L1298 523Q1279 510 1262.0 498.5Q1245 487 1234 478ZM1273 357Q1293 359 1328.5 364.0Q1364 369 1406.0 377.0Q1448 385 1487.5 395.0Q1527 405 1556 416L1514 511Q1486 499 1450.0 479.5Q1414 460 1378.5 438.5Q1343 417 1314.0 397.5Q1285 378 1270 365ZM472 291Q468 334 462.5 376.0Q457 418 452.0 453.5Q447 489 442 510Q435 478 426.5 417.5Q418 357 412 295ZM377 298Q370 360 362.0 419.5Q354 479 347 510Q340 479 332.0 421.5Q324 364 317 303ZM281 307Q274 367 266.5 423.0Q259 479 252 510Q245 480 237.5 425.5Q230 371 223 312ZM1311 248Q1330 249 1366.0 254.5Q1402 260 1445.0 268.0Q1488 276 1529.0 286.5Q1570 297 1600 308Q1592 329 1584.0 348.5Q1576 368 1568 386L1317 261L1309 254ZM1487 161Q1530 169 1572.0 179.5Q1614 190 1643 201Q1633 227 1623.5 251.0Q1614 275 1604 298Q1578 287 1545.0 269.0Q1512 251 1477.5 230.5Q1443 210 1414 191ZM1667 86 1686 93 1648 190Q1626 181 1599.0 167.5Q1572 154 1543 137ZM1352 140 1383 143 1358 151 1350 145ZM1442 37Q1477 42 1522.0 51.0Q1567 60 1609 70Q1581 79 1552.0 88.5Q1523 98 1494 107Q1462 88 1435.5 69.0Q1409 50 1395 39Q1407 38 1418.5 37.5Q1430 37 1442 37ZM1692 76 1690 81 1685 79ZM1712 26 1707 37 1642 59Q1630 52 1617.0 45.5Q1604 39 1590 31Q1623 30 1653.5 28.5Q1684 27 1712 26ZM1740 25H1743L1740 26ZM1436 -77Q1453 -76 1489.0 -71.0Q1525 -66 1569.0 -57.0Q1613 -48 1655.5 -37.5Q1698 -27 1728 -16L1722 0Q1681 -1 1631.5 -3.0Q1582 -5 1528 -7Q1496 -27 1471.0 -44.5Q1446 -62 1435 -73ZM1479 -185Q1497 -184 1532.5 -178.5Q1568 -173 1612.0 -164.5Q1656 -156 1698.0 -145.5Q1740 -135 1770 -123L1733 -27Q1703 -39 1664.5 -59.5Q1626 -80 1588.0 -103.5Q1550 -127 1520.0 -148.0Q1490 -169 1477 -181Z" />
  </g>
</svg>