<svg xmlns="http://www.w3.org/2000/svg" viewBox="100 -112 1810 918">
  <g transform="translate(0, 694) scale(1, -1)">
    <path fill="black" d="M877 74Q841 109 799.5 144.0Q758 179 717.0 210.0Q676 241 640 264Q621 264 584.5 262.5Q548 261 503 258Q500 226 498.5 198.0Q497 170 497 150H482Q482 170 480.0 197.5Q478 225 476 256L407 251Q405 221 403.5 195.0Q402 169 402 150H387Q387 168 385.5 194.0Q384 220 381 249L312 243Q310 215 308.5 191.0Q307 167 307 150H292Q292 167 290.5 190.0Q289 213 287 240L216 234Q214 209 213.0 187.5Q212 166 212 150H197Q197 166 196.0 186.5Q195 207 193 231Q156 227 131.5 223.5Q107 220 100 217Q102 231 104.0 246.5Q106 262 106 278Q106 305 100 330Q106 327 129.0 323.5Q152 320 185 316Q180 364 173.5 409.0Q167 454 161.5 487.0Q156 520 151 531Q180 525 209 525Q228 525 247 528L246 531L253 529L258 531L257 529Q269 528 281.0 526.5Q293 525 305 525Q323 525 342 528L341 531L348 529L353 531L352 529Q364 528 376.0 526.5Q388 525 400 525Q418 525 437 528L436 531L443 529L448 531L447 529Q458 528 469.5 526.5Q481 525 492 525Q516 525 543 531Q538 520 531.0 481.5Q524 443 517.5 392.0Q511 341 506 289Q549 286 583.0 284.5Q617 283 637 283Q675 312 724.0 352.5Q773 393 819 436Q774 476 727.0 512.5Q680 549 640 574Q616 574 570.0 571.5Q524 569 466.0 565.0Q408 561 348.0 556.0Q288 551 235.0 546.0Q182 541 145.5 536.0Q109 531 100 527Q102 541 104.0 556.5Q106 572 106 588Q106 615 100 640Q109 636 144.0 631.5Q179 627 231.5 621.5Q284 616 343.5 611.0Q403 606 461.0 602.0Q519 598 565.5 595.5Q612 593 637 593Q671 619 713.5 653.5Q756 688 799.0 727.5Q842 767 877 806L899 794Q873 736 838.5 680.5Q804 625 779 584Q794 565 814.5 535.0Q835 505 855 472L877 496L899 484L876 438Q882 428 888.0 418.5Q894 409 899 399L877 384L857 402Q836 366 815.5 333.0Q795 300 779 274Q795 253 816.0 222.5Q837 192 859.0 157.0Q881 122 899 89ZM1125 -112Q1125 -90 1125.0 -68.5Q1125 -47 1124 -26Q1043 -30 988.5 -34.5Q934 -39 926 -43Q928 -29 930.0 -13.5Q932 2 932 18Q932 45 926 70Q934 66 988.0 62.0Q1042 58 1122 53Q1119 147 1113 229Q1065 243 1035.0 251.0Q1005 259 998 259Q1012 282 1022.0 306.5Q1032 331 1036 359Q1040 355 1057.5 346.5Q1075 338 1104 324Q1099 376 1092.5 422.5Q1086 469 1079 511Q1015 507 974.0 503.5Q933 500 926 497Q928 511 930.0 526.5Q932 542 932 558Q932 585 926 610Q932 607 969.0 604.0Q1006 601 1063 597Q1047 674 1030 736Q1081 724 1135 724Q1161 724 1187.0 727.0Q1213 730 1240 735V736Q1242 736 1243 735Q1244 736 1246 736V735Q1270 730 1295.0 727.0Q1320 724 1345 724Q1371 724 1397.0 727.0Q1423 730 1450 735V736Q1452 736 1453 735Q1454 736 1456 736V735Q1480 730 1505.0 727.0Q1530 724 1555 724Q1609 724 1666 736Q1656 701 1646.5 659.5Q1637 618 1628 570Q1711 567 1772.5 565.0Q1834 563 1855 563L1868 537L1601 403Q1594 342 1587.5 272.0Q1581 202 1577 123Q1648 94 1711.0 68.5Q1774 43 1821 23H1855V9Q1874 2 1888.5 -3.5Q1903 -9 1910 -12L1903 -29Q1892 -24 1867.5 -16.0Q1843 -8 1809 3Q1771 2 1708.5 0.0Q1646 -2 1572 -5Q1571 -31 1571.0 -57.5Q1571 -84 1571 -112H1545Q1545 -85 1545.0 -58.5Q1545 -32 1544 -6Q1500 -8 1454.0 -10.0Q1408 -12 1362 -14Q1361 -38 1361.0 -62.0Q1361 -86 1361 -112H1335Q1335 -87 1335.0 -63.0Q1335 -39 1334 -15Q1286 -17 1240.0 -20.0Q1194 -23 1152 -25Q1151 -46 1151.0 -67.5Q1151 -89 1151 -112ZM1487 576Q1479 618 1470.5 655.5Q1462 693 1453 725Q1445 694 1436.0 657.0Q1427 620 1419 579ZM1275 585Q1268 625 1259.5 659.5Q1251 694 1243 725Q1235 695 1227.0 661.0Q1219 627 1211 588ZM1606 438 1816 543Q1785 542 1734.5 540.5Q1684 539 1622 537Q1618 514 1614.0 489.0Q1610 464 1606 438ZM1382 326 1516 393Q1507 467 1495 532Q1474 531 1453.0 530.0Q1432 529 1410 528Q1403 483 1395.5 432.5Q1388 382 1382 326ZM1251 260 1317 293Q1311 358 1303.0 415.0Q1295 472 1287 522Q1265 521 1242.5 520.0Q1220 519 1198 518Q1190 469 1182.5 413.0Q1175 357 1169 295Q1188 287 1208.5 278.5Q1229 270 1251 260ZM472 291Q468 334 462.5 376.0Q457 418 452.0 453.5Q447 489 442 510Q435 478 426.5 417.5Q418 357 412 295Q427 294 442.5 293.5Q458 293 472 291ZM377 298Q370 360 362.0 419.5Q354 479 347 510Q340 479 332.0 421.5Q324 364 317 303Q332 302 347.0 301.0Q362 300 377 298ZM281 307Q274 367 266.5 423.0Q259 479 252 510Q245 480 237.5 425.5Q230 371 223 312ZM1538 139Q1532 262 1520 362L1379 292Q1377 272 1375.5 251.0Q1374 230 1372 209ZM1322 230Q1322 238 1321.5 246.0Q1321 254 1320 262L1286 245ZM1333 42Q1332 73 1330.5 103.0Q1329 133 1327 161Q1283 175 1241.0 188.5Q1199 202 1162 213Q1160 175 1158.0 134.5Q1156 94 1154 51ZM1543 32Q1542 48 1542.0 63.0Q1542 78 1541 92Q1498 106 1454.5 120.5Q1411 135 1368 148Q1367 123 1366.0 96.0Q1365 69 1363 40Q1409 38 1454.5 36.0Q1500 34 1543 32ZM1743 25Q1706 38 1663.0 52.0Q1620 66 1575 81Q1574 69 1574.0 56.5Q1574 44 1573 31Q1621 30 1664.0 28.5Q1707 27 1743 25Z" />
  </g>
</svg>