<svg xmlns="http://www.w3.org/2000/svg" viewBox="100 -112 1570 884">
  <g transform="translate(0, 660) scale(1, -1)">
    <path fill="black" d="M1583 -112Q1583 -90 1583.0 -70.0Q1583 -50 1582 -31Q1495 -31 1428.5 -35.5Q1362 -40 1309.0 -48.5Q1256 -57 1208.0 -68.5Q1160 -80 1110 -94Q1114 -76 1115.5 -58.0Q1117 -40 1117 -21Q1062 18 1016.0 48.5Q970 79 932 103Q873 95 822.5 83.0Q772 71 719 56Q723 73 724.5 91.5Q726 110 726 129Q726 148 724.5 167.0Q723 186 719 206L753 197Q728 208 703.0 216.5Q678 225 652 235Q666 247 678.0 261.0Q690 275 701 291Q600 290 529.5 285.0Q459 280 408.0 272.0Q357 264 313.5 253.5Q270 243 223 229Q227 246 228.5 264.5Q230 283 230 302Q230 321 228.5 340.0Q227 359 223 379Q262 369 302.5 358.5Q343 348 393.0 339.0Q443 330 512 324Q514 331 515.0 337.0Q516 343 517 349Q462 369 413.0 381.5Q364 394 328 398Q347 430 354 460Q380 437 423.5 410.5Q467 384 519 358Q526 393 528.0 420.0Q530 447 531 475Q537 471 543.5 468.5Q550 466 556 464Q543 501 530.0 527.5Q517 554 504 576Q452 551 416.0 527.0Q380 503 354 479Q346 511 328 542Q363 546 404.0 555.0Q445 564 499 583Q494 591 488.5 598.5Q483 606 478 613Q489 615 500.0 617.5Q511 620 522 624Q455 619 404.5 611.0Q354 603 311.5 592.5Q269 582 223 569Q227 587 228.5 605.0Q230 623 230 642Q230 652 229.5 661.5Q229 671 228 681Q211 596 198.5 470.0Q186 344 186 156H163Q163 279 158.5 371.5Q154 464 146.0 535.0Q138 606 126.5 663.5Q115 721 100 772Q137 764 173 764Q192 764 211.0 766.0Q230 768 250 772Q246 759 242.5 745.0Q239 731 236 715Q275 705 317.5 695.0Q360 685 413.5 676.5Q467 668 539.5 662.5Q612 657 711 655Q726 679 740 707Q767 674 796.5 639.5Q826 605 867.0 564.5Q908 524 968.0 473.5Q1028 423 1115 359Q1114 368 1113.0 377.0Q1112 386 1110 396Q1164 382 1225.0 368.0Q1286 354 1365.0 344.0Q1444 334 1550 332Q1543 361 1535.5 389.0Q1528 417 1520 446Q1557 438 1593 438Q1612 438 1631.0 440.0Q1650 442 1670 446Q1658 403 1647.0 355.5Q1636 308 1626.5 246.0Q1617 184 1611.5 97.0Q1606 10 1606 -112ZM1582 -8Q1580 105 1572.5 178.5Q1565 252 1554 309Q1474 308 1412.5 303.0Q1351 298 1300.5 290.0Q1250 282 1204.0 271.0Q1158 260 1110 246Q1113 262 1115.0 279.0Q1117 296 1117 313V328Q1025 394 958.5 436.0Q892 478 841.0 504.5Q790 531 745.5 549.0Q701 567 652 585Q663 595 673.5 606.5Q684 618 694 631Q608 630 542 625Q544 591 548.0 553.5Q552 516 566 461Q574 460 581.0 458.0Q588 456 595 455Q576 430 558.5 400.0Q541 370 524 323Q564 320 612.0 318.0Q660 316 717 315Q723 325 729.0 335.5Q735 346 740 357Q775 314 815.5 267.5Q856 221 924 161Q980 152 1049.5 147.0Q1119 142 1207 142V119Q1140 119 1085.5 117.0Q1031 115 985 110Q1013 87 1045.5 61.5Q1078 36 1116 8Q1115 32 1110 56Q1167 41 1231.5 26.5Q1296 12 1380.5 2.5Q1465 -7 1582 -8Z" />
  </g>
</svg>