<svg xmlns="http://www.w3.org/2000/svg" viewBox="100 -219 1700 1095">
  <g transform="translate(0, 657) scale(1, -1)">
    <path fill="black" d="M204 -219Q216 -168 216 -114Q216 -60 204 -3Q262 -19 377.0 -35.0Q492 -51 637 -64Q636 20 629.5 129.0Q623 238 613 350Q450 340 348.5 319.0Q247 298 191 273Q197 296 199.5 319.5Q202 343 202 367Q202 391 199.5 414.5Q197 438 191 463Q239 443 297.5 428.0Q356 413 432.0 403.0Q508 393 609 387Q601 473 591.0 553.0Q581 633 569.0 701.0Q557 769 544 816Q595 804 649 804Q703 804 760 816Q749 777 738.5 714.0Q728 651 718.0 573.5Q708 496 699.5 410.5Q691 325 684.0 239.0Q677 153 673.0 74.5Q669 -4 667 -67Q774 -76 888.5 -83.0Q1003 -90 1116.5 -94.0Q1230 -98 1334 -98H1677Q1677 -31 1673.0 56.5Q1669 144 1661.5 241.0Q1654 338 1644.5 434.5Q1635 531 1622.5 617.0Q1610 703 1596 768H1417Q1235 768 1106.0 756.5Q977 745 893.0 726.5Q809 708 760 686Q766 709 768.5 732.5Q771 756 771 780Q771 804 768.5 827.5Q766 851 760 876Q815 861 874.5 846.5Q934 832 1007.5 819.5Q1081 807 1177.5 800.0Q1274 793 1403 793H1590L1584 816Q1635 804 1689 804Q1743 804 1800 816Q1789 774 1777.5 706.0Q1766 638 1755.5 554.0Q1745 470 1736.0 378.0Q1727 286 1720.5 196.0Q1714 106 1710.5 26.5Q1707 -53 1707 -112H1703V-124H1352Q1250 -124 1137.0 -128.0Q1024 -132 909.5 -138.5Q795 -145 687.0 -154.0Q579 -163 484.5 -174.0Q390 -185 318.0 -196.0Q246 -207 204 -219ZM881 -77Q873 -63 862.5 -53.5Q852 -44 841 -36Q847 -33 865.0 -19.5Q883 -6 905 13Q901 18 897.0 23.0Q893 28 889 32Q870 9 856.0 -10.0Q842 -29 840 -36Q832 -22 821.5 -12.5Q811 -3 799 5Q806 8 824.5 22.5Q843 37 866 56L850 74Q831 50 815.5 31.0Q800 12 798 6Q790 20 780.0 28.5Q770 37 759 46Q765 48 784.5 63.5Q804 79 828 98L811 117Q791 92 775.5 73.0Q760 54 758 47Q749 61 739.0 69.5Q729 78 718 86Q725 89 745.0 105.0Q765 121 790 141Q738 198 704 230Q720 247 744.5 269.5Q769 292 797 320Q770 343 747.5 360.5Q725 378 718 382Q729 390 739.5 399.5Q750 409 759 422Q761 415 778.5 392.0Q796 369 817 341L837 362Q810 384 788.5 401.5Q767 419 760 422Q771 431 781.0 440.5Q791 450 799 463Q802 456 818.5 433.5Q835 411 857 384Q861 389 866.0 394.5Q871 400 875 405Q849 427 828.0 443.5Q807 460 800 463Q812 471 822.0 481.0Q832 491 840 504Q842 497 858.0 476.0Q874 455 894 429L911 450Q886 470 866.5 485.5Q847 501 841 504Q852 512 862.5 521.5Q873 531 881 544Q884 538 898.0 518.5Q912 499 932.0 474.0Q952 449 972.0 424.5Q992 400 1006 383L1009 386L1024 378Q998 332 979.5 296.5Q961 261 944 232Q957 211 979.0 178.0Q1001 145 1032 104L1018 93L1015 96Q1003 81 982.5 55.5Q962 30 939.5 2.5Q917 -25 900.5 -47.0Q884 -69 881 -77ZM1005 -13Q1009 -1 1009 13Q1009 21 1008.0 29.0Q1007 37 1005 44Q1013 41 1043.5 37.5Q1074 34 1114.0 30.5Q1154 27 1191.0 24.0Q1228 21 1247 18Q1246 41 1244 60Q1220 58 1189.5 53.0Q1159 48 1134.0 43.0Q1109 38 1100 34Q1103 48 1103 61Q1103 69 1102.0 77.0Q1101 85 1100 92Q1109 88 1134.0 83.5Q1159 79 1189.0 74.5Q1219 70 1244 67Q1243 81 1242.5 96.5Q1242 112 1240 127Q1216 124 1186.5 119.5Q1157 115 1133.0 110.5Q1109 106 1100 102Q1103 116 1103 128Q1103 136 1102.0 144.0Q1101 152 1100 159Q1109 156 1132.5 151.5Q1156 147 1185.5 143.0Q1215 139 1240 135Q1239 149 1237.5 164.5Q1236 180 1235 193Q1211 191 1182.5 186.5Q1154 182 1131.0 177.5Q1108 173 1100 169Q1103 183 1103 196Q1103 204 1102.0 212.0Q1101 220 1100 227Q1109 223 1131.0 219.0Q1153 215 1181.0 211.0Q1209 207 1234 203L1228 262Q1204 260 1177.5 255.0Q1151 250 1130.0 245.5Q1109 241 1100 237Q1103 251 1103 263Q1103 271 1102.0 279.0Q1101 287 1100 294Q1114 288 1152.0 281.5Q1190 275 1227 270Q1223 293 1220.0 309.5Q1217 326 1213 335Q1226 334 1237.5 332.5Q1249 331 1260 331Q1271 331 1282.0 332.5Q1293 334 1304 335Q1295 312 1287.5 257.5Q1280 203 1275 141Q1304 146 1347.0 156.0Q1390 166 1437.5 179.5Q1485 193 1530.0 206.5Q1575 220 1609 230Q1575 244 1522.0 266.0Q1469 288 1408.5 312.0Q1348 336 1291.5 357.5Q1235 379 1193.0 392.5Q1151 406 1135 407Q1146 423 1154.5 440.5Q1163 458 1169 480Q1177 472 1207.5 453.5Q1238 435 1283.0 411.0Q1328 387 1379.5 360.5Q1431 334 1481.5 308.5Q1532 283 1574.5 262.5Q1617 242 1642 230Q1587 209 1527.0 184.0Q1467 159 1413.5 134.5Q1360 110 1321.5 90.5Q1283 71 1269 60L1261 -38H1249Q1249 -24 1248.5 -10.5Q1248 3 1247 16V13Q1233 12 1206.0 9.5Q1179 7 1147.0 4.0Q1115 1 1084.5 -2.0Q1054 -5 1032.5 -8.0Q1011 -11 1005 -13ZM966 340Q975 349 983.5 358.0Q992 367 1000 376L923 439L909 410ZM1061 39Q1060 68 1057.5 109.0Q1055 150 1052.0 195.0Q1049 240 1045.0 281.5Q1041 323 1036.0 355.0Q1031 387 1025 401Q1037 400 1049.0 398.5Q1061 397 1071 397Q1082 397 1093.5 398.5Q1105 400 1116 401Q1107 380 1101.0 335.5Q1095 291 1090.0 236.5Q1085 182 1081.0 129.5Q1077 77 1073 39ZM925 300Q934 308 943.0 316.5Q952 325 961 334L896 387L879 356ZM883 260 919 294 868 336 848 303ZM834 177Q845 188 856.0 196.5Q867 205 875 212L850 232Q861 240 876 255L838 286Q830 272 822.0 258.0Q814 244 807 230ZM161 -206Q161 -88 153.5 -0.5Q146 87 132.5 154.0Q119 221 100 277Q136 271 173 271Q210 271 246 277Q228 221 214.0 154.0Q200 87 192.5 -0.5Q185 -88 185 -206ZM861 126Q878 140 894.0 153.0Q910 166 921 176Q911 184 901.5 191.5Q892 199 883 206Q875 196 865.0 184.5Q855 173 844 159ZM890 75Q912 93 932.5 110.5Q953 128 966 138L927 171L873 104ZM919 25Q945 46 970.0 67.0Q995 88 1010 100L971 134L904 51Z" />
  </g>
</svg>