<svg xmlns="http://www.w3.org/2000/svg" viewBox="100 -219 1700 1095">
  <g transform="translate(0, 657) scale(1, -1)">
    <path fill="black" d="M204 -219Q216 -168 216 -114Q216 -60 204 -3Q262 -19 377.0 -35.0Q492 -51 637 -64Q636 20 629.5 129.0Q623 238 613 350Q450 340 348.5 319.0Q247 298 191 273Q197 296 199.5 319.5Q202 343 202 367Q202 391 199.5 414.5Q197 438 191 463Q239 443 297.5 428.0Q356 413 432.0 403.0Q508 393 609 387Q601 473 591.0 553.0Q581 633 569.0 701.0Q557 769 544 816Q595 804 649 804Q703 804 760 816Q749 777 738.5 714.0Q728 651 718.0 573.5Q708 496 699.5 410.5Q691 325 684.0 239.0Q677 153 673.0 74.5Q669 -4 667 -67Q774 -76 888.5 -83.0Q1003 -90 1116.5 -94.0Q1230 -98 1334 -98H1677Q1677 -31 1673.0 56.5Q1669 144 1661.5 241.0Q1654 338 1644.5 434.5Q1635 531 1622.5 617.0Q1610 703 1596 768H1417Q1235 768 1106.0 756.5Q977 745 893.0 726.5Q809 708 760 686Q766 709 768.5 732.5Q771 756 771 780Q771 804 768.5 827.5Q766 851 760 876Q815 861 874.5 846.5Q934 832 1007.5 819.5Q1081 807 1177.5 800.0Q1274 793 1403 793H1590L1584 816Q1635 804 1689 804Q1743 804 1800 816Q1789 774 1777.5 706.0Q1766 638 1755.5 554.0Q1745 470 1736.0 378.0Q1727 286 1720.5 196.0Q1714 106 1710.5 26.5Q1707 -53 1707 -112H1703V-124H1352Q1250 -124 1137.0 -128.0Q1024 -132 909.5 -138.5Q795 -145 687.0 -154.0Q579 -163 484.5 -174.0Q390 -185 318.0 -196.0Q246 -207 204 -219ZM824 3Q826 17 827.0 32.0Q828 47 828 62Q828 76 827.0 90.0Q826 104 824 119Q828 117 832.0 114.5Q836 112 840 110Q840 192 838.5 248.5Q837 305 833.0 346.5Q829 388 821.0 424.0Q813 460 799 501Q806 500 812.5 499.0Q819 498 824 497Q826 510 827.0 524.5Q828 539 828 552Q828 566 827.0 580.0Q826 594 824 609Q852 590 897.5 580.0Q943 570 994.5 565.5Q1046 561 1090 560Q1087 574 1084.0 587.0Q1081 600 1077 610Q1093 607 1105.5 606.0Q1118 605 1130 605Q1142 605 1155.0 606.0Q1168 607 1184 610Q1170 568 1161.5 502.0Q1153 436 1149.0 355.0Q1145 274 1143.5 185.0Q1142 96 1142 7H1118V52Q1084 52 1040.5 49.0Q997 46 953.5 40.0Q910 34 875.5 25.0Q841 16 824 3ZM897 473H1102Q1099 511 1093 541Q1049 540 996.0 535.0Q943 530 898.0 521.0Q853 512 829 497Q835 496 841.0 496.0Q847 496 852 496Q864 496 877.0 497.0Q890 498 906 501ZM878 393H1109Q1108 407 1107.5 420.5Q1107 434 1105 447H890Q883 420 878 393ZM869 313H1113Q1113 327 1112.5 340.5Q1112 354 1111 367H874Q873 354 871.5 341.0Q870 328 869 313ZM1154 3Q1156 17 1157.0 32.0Q1158 47 1158 62Q1158 76 1157.0 90.0Q1156 104 1154 119Q1158 116 1163.0 113.5Q1168 111 1174 108V254Q1168 251 1163.0 248.5Q1158 246 1154 243Q1156 257 1157.0 272.0Q1158 287 1158 302Q1158 316 1157.0 330.0Q1156 344 1154 359Q1177 343 1220.5 333.5Q1264 324 1316.0 319.0Q1368 314 1418.0 312.0Q1468 310 1503 310Q1495 340 1483 355Q1497 354 1512.0 352.5Q1527 351 1542 351Q1556 351 1570.0 352.0Q1584 353 1599 355Q1583 331 1573.0 293.5Q1563 256 1558.0 212.5Q1553 169 1551.5 127.0Q1550 85 1550 52H1534Q1507 52 1465.0 50.5Q1423 49 1375.0 45.5Q1327 42 1281.5 36.0Q1236 30 1202.0 22.0Q1168 14 1154 3ZM1496 70H1532Q1532 102 1529.0 141.5Q1526 181 1521.0 220.5Q1516 260 1508 292H1496ZM1474 71V291Q1465 291 1455.5 290.5Q1446 290 1436 290V72Q1446 71 1455.5 71.0Q1465 71 1474 71ZM1414 73V289L1376 286V75Q1386 74 1395.5 73.5Q1405 73 1414 73ZM865 233H1116Q1115 247 1115.0 260.5Q1115 274 1114 287H867Q866 274 866.0 261.0Q866 248 865 233ZM1354 76V284L1316 281V80Q1326 79 1335.0 78.0Q1344 77 1354 76ZM1294 82V278Q1284 277 1274.5 276.0Q1265 275 1256 273V88ZM161 -206Q161 -88 153.5 -0.5Q146 87 132.5 154.0Q119 221 100 277Q136 271 173 271Q210 271 246 277Q228 221 214.0 154.0Q200 87 192.5 -0.5Q185 -88 185 -206ZM1234 92V269Q1224 268 1214.0 265.5Q1204 263 1196 261V101Q1212 95 1234 92ZM864 153H1117Q1117 167 1117.0 180.5Q1117 194 1116 207H865Q864 194 864.0 180.5Q864 167 864 153ZM1118 70V127H864V99Q900 87 945.0 80.5Q990 74 1036.0 72.0Q1082 70 1118 70Z" />
  </g>
</svg>