<svg xmlns="http://www.w3.org/2000/svg" viewBox="100 -219 1700 1095">
  <g transform="translate(0, 657) scale(1, -1)">
    <path fill="black" d="M204 -219Q216 -168 216 -114Q216 -60 204 -3Q262 -19 377.0 -35.0Q492 -51 637 -64Q636 20 629.5 129.0Q623 238 613 350Q450 340 348.5 319.0Q247 298 191 273Q197 296 199.5 319.5Q202 343 202 367Q202 391 199.5 414.5Q197 438 191 463Q239 443 297.5 428.0Q356 413 432.0 403.0Q508 393 609 387Q601 473 591.0 553.0Q581 633 569.0 701.0Q557 769 544 816Q595 804 649 804Q703 804 760 816Q749 777 738.5 714.0Q728 651 718.0 573.5Q708 496 699.5 410.5Q691 325 684.0 239.0Q677 153 673.0 74.5Q669 -4 667 -67Q774 -76 888.5 -83.0Q1003 -90 1116.5 -94.0Q1230 -98 1334 -98H1677Q1677 -31 1673.0 56.5Q1669 144 1661.5 241.0Q1654 338 1644.5 434.5Q1635 531 1622.5 617.0Q1610 703 1596 768H1417Q1235 768 1106.0 756.5Q977 745 893.0 726.5Q809 708 760 686Q766 709 768.5 732.5Q771 756 771 780Q771 804 768.5 827.5Q766 851 760 876Q815 861 874.5 846.5Q934 832 1007.5 819.5Q1081 807 1177.5 800.0Q1274 793 1403 793H1590L1584 816Q1635 804 1689 804Q1743 804 1800 816Q1789 774 1777.5 706.0Q1766 638 1755.5 554.0Q1745 470 1736.0 378.0Q1727 286 1720.5 196.0Q1714 106 1710.5 26.5Q1707 -53 1707 -112H1703V-124H1352Q1250 -124 1137.0 -128.0Q1024 -132 909.5 -138.5Q795 -145 687.0 -154.0Q579 -163 484.5 -174.0Q390 -185 318.0 -196.0Q246 -207 204 -219ZM887 -26Q889 -11 890.5 3.5Q892 18 892 34Q892 48 890.5 63.5Q889 79 887 94Q895 91 903.0 89.0Q911 87 920 85Q920 101 919.5 116.0Q919 131 918 146Q867 142 828.5 134.0Q790 126 748 113Q750 129 751.5 140.5Q753 152 753 164Q753 182 750 203H748Q748 207 749 208Q748 210 748 213L749 212Q751 224 752.0 234.5Q753 245 753 255Q753 264 752.0 273.5Q751 283 750 294H748Q748 297 749 298Q748 300 748 303H749Q752 324 752 343Q752 360 749 384H748Q748 387 749 389Q748 390 748 394L749 393Q752 417 752 435Q752 446 751.0 458.0Q750 470 748 484Q785 472 818.5 464.5Q852 457 894 453Q890 477 884.5 501.0Q879 525 872 548Q887 546 902.0 545.0Q917 544 932 544Q947 544 962.0 545.0Q977 546 992 548Q986 526 980.5 501.0Q975 476 971 448Q998 447 1030.0 446.5Q1062 446 1101 446V421Q1061 421 1028.0 421.0Q995 421 967 419L959 358Q989 357 1023.5 356.5Q1058 356 1101 356V331Q1057 331 1021.5 330.5Q986 330 957 329L952 268Q982 267 1018.5 266.5Q1055 266 1101 266V241Q1010 241 950 238Q949 223 949.0 208.0Q949 193 948 178Q979 177 1016.5 176.5Q1054 176 1101 176V151Q1053 151 1015.5 150.5Q978 150 946 148L945 80Q1019 65 1103.5 58.0Q1188 51 1275.5 49.0Q1363 47 1445 46Q1445 73 1444.5 101.5Q1444 130 1444 161Q1386 157 1343.5 149.0Q1301 141 1257 127Q1261 152 1261 175Q1261 185 1260.0 195.0Q1259 205 1257 217V226Q1259 238 1260.5 248.5Q1262 259 1262 269Q1262 278 1261.0 287.5Q1260 297 1258 307H1257V317Q1259 328 1260.5 338.5Q1262 349 1262 359Q1262 368 1261.0 377.5Q1260 387 1258 398H1257V407Q1259 419 1260.0 429.0Q1261 439 1261 449Q1261 460 1260.0 472.0Q1259 484 1257 498Q1298 485 1338.0 477.0Q1378 469 1430 465Q1427 500 1423.5 532.5Q1420 565 1415 594Q1327 593 1234.5 588.5Q1142 584 1060.0 574.0Q978 564 920 548Q922 562 923.5 577.0Q925 592 925 607Q925 622 923.5 637.5Q922 653 920 667Q989 648 1070.0 638.0Q1151 628 1238.0 624.5Q1325 621 1410 620Q1408 634 1404.5 647.5Q1401 661 1398 674Q1412 672 1427.0 670.5Q1442 669 1457 669Q1472 669 1487.0 670.5Q1502 672 1517 674Q1513 658 1509.5 640.5Q1506 623 1502 603V595H1501Q1497 566 1493.0 532.0Q1489 498 1486 462Q1514 461 1546.5 460.5Q1579 460 1618 460V435Q1578 435 1545.0 435.0Q1512 435 1484 433Q1483 418 1481.5 403.0Q1480 388 1479 371Q1508 370 1542.5 370.0Q1577 370 1618 370V345Q1576 345 1541.5 344.5Q1507 344 1478 343Q1475 312 1475 282Q1505 281 1540.0 280.5Q1575 280 1618 280V255Q1575 255 1539.0 254.5Q1503 254 1474 253L1471 192Q1502 190 1538.0 189.5Q1574 189 1618 189V165Q1531 165 1471 162Q1470 131 1470.0 102.0Q1470 73 1470 46V21Q1397 21 1316.5 19.0Q1236 17 1157.0 12.0Q1078 7 1008.0 -2.5Q938 -12 887 -26ZM1437 374 1434 430Q1386 427 1348.5 420.5Q1311 414 1273 403Q1311 392 1349.5 385.0Q1388 378 1437 374ZM906 362Q905 376 903.0 389.0Q901 402 899 415Q861 411 829.5 405.0Q798 399 764 389Q799 379 832.0 372.5Q865 366 906 362ZM1441 284 1439 340Q1389 337 1350.5 330.0Q1312 323 1273 312Q1312 301 1351.0 294.0Q1390 287 1441 284ZM913 271Q913 285 912.0 298.5Q911 312 909 326Q867 322 833.0 315.5Q799 309 764 298Q800 288 834.5 281.5Q869 275 913 271ZM161 -206Q161 -88 153.5 -0.5Q146 87 132.5 154.0Q119 221 100 277Q136 271 173 271Q210 271 246 277Q228 221 214.0 154.0Q200 87 192.5 -0.5Q185 -88 185 -206ZM1443 194V251Q1391 247 1351.5 240.0Q1312 233 1273 222Q1312 211 1351.5 204.0Q1391 197 1443 194ZM917 180Q917 194 917.0 208.0Q917 222 916 236Q870 232 835.5 225.5Q801 219 764 208Q801 198 836.5 191.0Q872 184 917 180Z" />
  </g>
</svg>