<svg xmlns="http://www.w3.org/2000/svg" viewBox="100 -113 335 751">
  <g transform="translate(0, 525) scale(1, -1)">
    <path fill="black" d="M267 277Q239 277 214.0 299.5Q189 322 168.5 358.5Q148 395 132.5 436.5Q117 478 108.5 517.5Q100 557 100 585V638H435V585Q435 557 426.5 517.5Q418 478 402.5 436.5Q387 395 366.0 358.5Q345 322 320.0 299.5Q295 277 267 277ZM267 318Q288 318 307.0 338.5Q326 359 342.0 391.5Q358 424 369.5 461.0Q381 498 387.5 531.0Q394 564 394 585Q381 581 365.0 573.0Q349 565 325.5 558.5Q302 552 267 552Q232 552 206.0 559.5Q180 567 163.5 575.0Q147 583 140 585Q140 564 146.5 531.0Q153 498 164.5 461.0Q176 424 192.0 391.5Q208 359 227.0 338.5Q246 318 267 318ZM267 -113Q239 -113 214.0 -90.5Q189 -68 168.5 -31.5Q148 5 132.5 46.5Q117 88 108.5 127.5Q100 167 100 195V248H435V195Q435 167 426.5 127.5Q418 88 402.5 46.5Q387 5 366.0 -31.5Q345 -68 320.0 -90.5Q295 -113 267 -113ZM267 -72Q288 -72 307.0 -51.5Q326 -31 342.0 1.5Q358 34 369.5 71.0Q381 108 387.5 141.0Q394 174 394 195Q381 191 365.0 183.0Q349 175 325.5 168.5Q302 162 267 162Q232 162 206.0 169.5Q180 177 163.5 185.0Q147 193 140 195Q140 174 146.5 141.0Q153 108 164.5 71.0Q176 34 192.0 1.5Q208 -31 227.0 -51.5Q246 -72 267 -72Z" />
  </g>
</svg>