<svg xmlns="http://www.w3.org/2000/svg" viewBox="53 -10 677 735">
  <g transform="translate(0, 715) scale(1, -1)">
    <path fill="black" d="M304 725Q384 725 430.5 684.5Q477 644 477 571Q477 508 436.5 464.0Q396 420 334 384L527 198Q553 229 569.5 269.5Q586 310 597 357H686Q670 293 646.0 238.0Q622 183 584 142L730 0H611L524 84Q477 42 419.0 16.0Q361 -10 278 -10Q175 -10 114.0 41.0Q53 92 53 186Q53 263 94.5 309.5Q136 356 207 396Q175 432 147.5 473.0Q120 514 120 569Q120 643 169.5 684.0Q219 725 304 725ZM301 653Q259 653 232.5 631.0Q206 609 206 570Q206 534 225.0 503.5Q244 473 280 436Q339 470 364.5 500.5Q390 531 390 571Q390 607 366.0 630.0Q342 653 301 653ZM260 341Q206 309 175.5 276.0Q145 243 145 189Q145 134 182.0 101.0Q219 68 281 68Q345 68 391.0 89.0Q437 110 468 139Z" />
  </g>
</svg>