<svg xmlns="http://www.w3.org/2000/svg" viewBox="55 -10 470 734">
  <g transform="translate(0, 714) scale(1, -1)">
    <path fill="black" d="M55 305Q55 382 68.5 456.5Q82 531 117.5 591.5Q153 652 217.0 688.0Q281 724 382 724Q403 724 428.5 722.0Q454 720 470 715V640Q452 646 429.5 649.0Q407 652 384 652Q315 652 269.0 629.0Q223 606 196.5 566.0Q170 526 158.0 474.0Q146 422 143 363H149Q172 398 213.0 422.5Q254 447 318 447Q411 447 468.0 390.5Q525 334 525 230Q525 118 463.5 54.0Q402 -10 298 -10Q230 -10 175.0 24.0Q120 58 87.5 128.0Q55 198 55 305ZM297 64Q360 64 399.0 104.5Q438 145 438 230Q438 298 403.5 338.0Q369 378 300 378Q253 378 218.0 358.5Q183 339 163.5 309.0Q144 279 144 247Q144 204 161.0 161.5Q178 119 212.0 91.5Q246 64 297 64Z" />
  </g>
</svg>