<svg xmlns="http://www.w3.org/2000/svg" viewBox="97 0 499 714">
  <g transform="translate(0, 714) scale(1, -1)">
    <path fill="black" d="M301 714Q435 714 503.5 674.5Q572 635 572 537Q572 474 537.0 432.5Q502 391 436 379V374Q481 367 517.5 348.0Q554 329 575.0 294.0Q596 259 596 203Q596 106 529.5 53.0Q463 0 348 0H97V714ZM319 410Q411 410 445.0 439.5Q479 469 479 527Q479 586 437.5 611.5Q396 637 305 637H187V410ZM187 335V76H331Q426 76 463.0 113.0Q500 150 500 210Q500 266 461.5 300.5Q423 335 324 335Z" />
  </g>
</svg>