<svg xmlns="http://www.w3.org/2000/svg" viewBox="24 -192 396 738">
  <g transform="translate(0, 354) scale(1, -1)">
    <path fill="black" d="M315 478Q315 441 297.5 426.0Q280 411 253 411Q228 411 210.0 426.0Q192 441 192 478Q192 514 210.0 530.0Q228 546 253 546Q280 546 297.5 530.0Q315 514 315 478ZM292 304Q292 267 284.5 239.0Q277 211 259.0 186.5Q241 162 208 134Q170 102 148.0 79.5Q126 57 117.0 36.0Q108 15 108 -15Q108 -63 139.5 -89.0Q171 -115 229 -115Q279 -115 317.0 -102.0Q355 -89 389 -73L420 -143Q380 -164 331.5 -178.0Q283 -192 223 -192Q128 -192 76.0 -145.0Q24 -98 24 -17Q24 28 38.5 59.5Q53 91 79.5 117.5Q106 144 142 174Q176 203 193.0 223.5Q210 244 216.0 265.0Q222 286 222 314V331H292Z" />
  </g>
</svg>