<svg xmlns="http://www.w3.org/2000/svg" viewBox="0 0 638 908">
  <g transform="translate(0, 908) scale(1, -1)">
    <path fill="black" d="M545 0 459 221H176L91 0H0L279 717H360L638 0ZM352 517Q349 525 342.0 546.0Q335 567 328.5 589.5Q322 612 318 624Q311 593 302.0 563.5Q293 534 287 517L206 301H432ZM178 859Q178 885 192.0 896.5Q206 908 225 908Q244 908 258.0 896.5Q272 885 272 859Q272 834 258.0 821.5Q244 809 225 809Q206 809 192.0 821.5Q178 834 178 859ZM366 859Q366 885 379.5 896.5Q393 908 412 908Q431 908 445.0 896.5Q459 885 459 859Q459 834 445.0 821.5Q431 809 412 809Q393 809 379.5 821.5Q366 834 366 859Z" />
  </g>
</svg>