<svg xmlns="http://www.w3.org/2000/svg" viewBox="0 0 638 878">
  <g transform="translate(0, 878) scale(1, -1)">
    <path fill="black" d="M545 0 459 221H176L91 0H0L279 717H360L638 0ZM352 517Q349 525 342.0 546.0Q335 567 328.5 589.5Q322 612 318 624Q311 593 302.0 563.5Q293 534 287 517L206 301H432ZM317 667Q268 667 238.0 695.0Q208 723 208 773Q208 823 238.0 850.5Q268 878 317 878Q364 878 396.0 850.5Q428 823 428 774Q428 723 396.5 695.0Q365 667 317 667ZM317 717Q342 717 357.5 732.0Q373 747 373 773Q373 799 357.0 814.0Q341 829 317 829Q293 829 277.0 814.0Q261 799 261 773Q261 747 275.5 732.0Q290 717 317 717Z" />
  </g>
</svg>