<svg xmlns="http://www.w3.org/2000/svg" viewBox="46 -10 767 556">
  <g transform="translate(0, 536) scale(1, -1)">
    <path fill="black" d="M603 546Q668 546 715.0 516.0Q762 486 787.5 432.0Q813 378 813 306V252H470Q472 156 511.5 110.5Q551 65 625 65Q675 65 713.0 74.5Q751 84 789 102V25Q749 7 710.5 -1.5Q672 -10 622 -10Q481 -10 419 103Q385 51 339.0 20.5Q293 -10 216 -10Q143 -10 94.5 28.5Q46 67 46 149Q46 229 106.0 272.5Q166 316 290 320L380 323V357Q380 422 349.5 448.0Q319 474 268 474Q228 474 189.5 462.0Q151 450 118 433L91 499Q126 519 176.0 532.0Q226 545 275 545Q337 545 377.5 524.5Q418 504 439 459Q465 500 507.0 523.0Q549 546 603 546ZM602 474Q544 474 510.5 434.5Q477 395 472 321H720Q720 390 691.5 432.0Q663 474 602 474ZM303 259Q209 255 173.0 227.0Q137 199 137 148Q137 103 162.5 82.0Q188 61 230 61Q293 61 335.5 98.5Q378 136 378 214V262Z" />
  </g>
</svg>