<svg xmlns="http://www.w3.org/2000/svg" viewBox="55 -10 496 775">
  <g transform="translate(0, 755) scale(1, -1)">
    <path fill="black" d="M216 765Q248 750 280.5 732.0Q313 714 342 693L457 760L495 706L396 649Q464 585 507.5 491.0Q551 397 551 275Q551 133 484.0 61.5Q417 -10 301 -10Q229 -10 173.5 19.5Q118 49 86.5 103.5Q55 158 55 233Q55 345 118.5 409.0Q182 473 290 473Q343 473 382.5 459.0Q422 445 446 415L450 417Q434 474 401.0 522.0Q368 570 326 608L196 533L158 588L270 652Q249 666 226.0 679.5Q203 693 180 705ZM303 402Q219 402 181.5 357.5Q144 313 144 230Q144 157 182.0 109.5Q220 62 303 62Q386 62 424.0 110.5Q462 159 462 251Q462 313 423.0 357.5Q384 402 303 402Z" />
  </g>
</svg>