<svg xmlns="http://www.w3.org/2000/svg" viewBox="61 -10 659 954">
  <g transform="translate(0, 934) scale(1, -1)">
    <path fill="black" d="M720 358Q720 247 682.5 164.5Q645 82 572.0 36.0Q499 -10 391 -10Q280 -10 206.5 36.0Q133 82 97.0 165.0Q61 248 61 359Q61 469 97.0 551.0Q133 633 206.5 679.0Q280 725 392 725Q499 725 572.0 679.5Q645 634 682.5 551.5Q720 469 720 358ZM156 358Q156 223 213.0 145.5Q270 68 391 68Q513 68 569.0 145.5Q625 223 625 358Q625 493 569.0 569.5Q513 646 392 646Q271 646 213.5 569.5Q156 493 156 358ZM539 934Q527 916 502.0 887.5Q477 859 448.5 830.5Q420 802 396 784H338V796Q353 815 370.5 841.0Q388 867 405.0 894.5Q422 922 433 944H539Z" />
  </g>
</svg>