<svg xmlns="http://www.w3.org/2000/svg" viewBox="55 -33 496 599">
  <g transform="translate(0, 533) scale(1, -1)">
    <path fill="black" d="M551 269Q551 136 483.5 63.0Q416 -10 301 -10Q228 -10 172 23L132 -33L74 6L119 68Q88 104 71.5 154.5Q55 205 55 269Q55 402 122.0 474.0Q189 546 304 546Q377 546 435 510L474 566L533 528L488 465Q517 430 534.0 380.5Q551 331 551 269ZM146 269Q146 231 151.5 198.5Q157 166 170 141L390 447Q354 472 302 472Q220 472 183.0 418.0Q146 364 146 269ZM460 269Q460 343 437 392L217 86Q251 63 303 63Q384 63 422.0 118.5Q460 174 460 269Z" />
  </g>
</svg>