<svg xmlns="http://www.w3.org/2000/svg" viewBox="0 -220 638 937">
  <g transform="translate(0, 497) scale(1, -1)">
    <path fill="black" d="M545 0 459 221H176L91 0H0L279 717H360L638 0ZM352 517Q349 525 342.0 546.0Q335 567 328.5 589.5Q322 612 318 624Q311 593 302.0 563.5Q293 534 287 517L206 301H432ZM545 -116Q545 -161 590 -161Q607 -161 618.5 -158.5Q630 -156 638 -155V-211Q624 -215 610.0 -217.5Q596 -220 576 -220Q523 -220 498.0 -195.0Q473 -170 473 -126Q473 -97 487.5 -70.0Q502 -43 523.5 -21.0Q545 1 565 15L613 0Q579 -32 562.0 -58.5Q545 -85 545 -116Z" />
  </g>
</svg>