<svg xmlns="http://www.w3.org/2000/svg" viewBox="46 -220 459 765">
  <g transform="translate(0, 325) scale(1, -1)">
    <path fill="black" d="M288 545Q386 545 433.0 502.0Q480 459 480 365V0H416L399 76H395Q360 32 321.5 11.0Q283 -10 215 -10Q142 -10 94.0 28.5Q46 67 46 149Q46 229 109.0 272.5Q172 316 303 320L394 323V355Q394 422 365.0 448.0Q336 474 283 474Q241 474 203.0 461.5Q165 449 132 433L105 499Q140 518 188.0 531.5Q236 545 288 545ZM314 259Q214 255 175.5 227.0Q137 199 137 148Q137 103 164.5 82.0Q192 61 235 61Q303 61 348.0 98.5Q393 136 393 214V262ZM412 -116Q412 -161 457 -161Q474 -161 485.5 -158.5Q497 -156 505 -155V-211Q491 -215 477.0 -217.5Q463 -220 443 -220Q390 -220 365.0 -195.0Q340 -170 340 -126Q340 -97 354.5 -70.0Q369 -43 390.5 -21.0Q412 1 432 15L480 0Q446 -32 429.0 -58.5Q412 -85 412 -116Z" />
  </g>
</svg>