<svg xmlns="http://www.w3.org/2000/svg" viewBox="55 -10 398 776">
  <g transform="translate(0, 756) scale(1, -1)">
    <path fill="black" d="M300 -10Q229 -10 173.5 19.0Q118 48 86.5 109.0Q55 170 55 265Q55 364 88.0 426.0Q121 488 177.5 517.0Q234 546 306 546Q347 546 385.0 537.5Q423 529 447 517L420 444Q396 453 364.0 461.0Q332 469 304 469Q146 469 146 266Q146 169 184.5 117.5Q223 66 299 66Q343 66 376.5 75.0Q410 84 438 97V19Q411 5 378.5 -2.5Q346 -10 300 -10ZM238 606Q225 629 203.0 655.5Q181 682 157.0 708.0Q133 734 115 753V766H175Q201 749 229.0 725.0Q257 701 282 674Q309 701 337.0 725.0Q365 749 391 766H453V753Q434 734 409.5 708.0Q385 682 362.5 655.5Q340 629 328 606Z" />
  </g>
</svg>