<svg xmlns="http://www.w3.org/2000/svg" viewBox="55 -10 633 770">
  <g transform="translate(0, 750) scale(1, -1)">
    <path fill="black" d="M275 -10Q175 -10 115.0 59.5Q55 129 55 267Q55 405 115.5 475.5Q176 546 276 546Q338 546 377.5 523.0Q417 500 442 467H448Q447 480 444.5 505.5Q442 531 442 546V760H530V0H459L446 72H442Q418 38 378.0 14.0Q338 -10 275 -10ZM289 63Q374 63 408.5 109.5Q443 156 443 250V266Q443 366 410.0 419.5Q377 473 288 473Q217 473 181.5 416.5Q146 360 146 265Q146 169 181.5 116.0Q217 63 289 63ZM688 751Q684 733 672.5 706.0Q661 679 646.0 650.5Q631 622 616 600H568V612Q575 631 581.5 657.5Q588 684 593.5 711.5Q599 739 601 760H688Z" />
  </g>
</svg>