<svg xmlns="http://www.w3.org/2000/svg" viewBox="55 -10 551 770">
  <g transform="translate(0, 750) scale(1, -1)">
    <path fill="black" d="M275 -10Q175 -10 115.0 59.5Q55 129 55 265Q55 405 115.5 474.0Q176 543 275 543Q338 543 377.5 520.0Q417 497 442 464H448Q446 477 444.0 502.5Q442 528 442 544V605H229V671H442V760H530V671H606V605H530V0H458L445 72H441Q417 38 377.0 14.0Q337 -10 275 -10ZM290 63Q374 63 408.5 109.0Q443 155 443 248V265Q443 366 410.0 418.0Q377 470 288 470Q217 470 182.0 415.0Q147 360 147 264Q147 168 182.0 115.5Q217 63 290 63Z" />
  </g>
</svg>