<svg xmlns="http://www.w3.org/2000/svg" viewBox="85 0 452 766">
  <g transform="translate(0, 766) scale(1, -1)">
    <path fill="black" d="M343 546Q439 546 488.0 499.5Q537 453 537 349V0H450V343Q450 472 330 472Q241 472 207.0 422.0Q173 372 173 278V0H85V536H156L169 463H174Q200 505 246.0 525.5Q292 546 343 546ZM263 606Q250 629 228.0 655.5Q206 682 182.0 708.0Q158 734 140 753V766H200Q226 749 254.0 725.0Q282 701 307 674Q334 701 362.0 725.0Q390 749 416 766H478V753Q459 734 434.5 708.0Q410 682 387.5 655.5Q365 629 353 606Z" />
  </g>
</svg>