<svg xmlns="http://www.w3.org/2000/svg" viewBox="79 -10 454 776">
  <g transform="translate(0, 756) scale(1, -1)">
    <path fill="black" d="M533 536V0H461L448 71H444Q418 29 372.0 9.5Q326 -10 274 -10Q177 -10 128.0 36.5Q79 83 79 185V536H168V191Q168 63 287 63Q376 63 410.5 113.0Q445 163 445 257V536ZM488 756Q478 739 455.0 710.0Q432 681 405.0 652.5Q378 624 355 606H305V618Q319 637 335.0 663.0Q351 689 366.5 716.5Q382 744 392 766H488ZM312 756Q302 739 279.0 710.0Q256 681 229.0 652.5Q202 624 179 606H129V618Q150 647 175.0 689.5Q200 732 216 766H312Z" />
  </g>
</svg>