<svg xmlns="http://www.w3.org/2000/svg" viewBox="112 42 734 735">
  <g transform="translate(0, 819) scale(1, -1)">
    <path fill="black" d="M479 777Q495 777 506.0 765.5Q517 754 517 738Q517 723 506.0 711.5Q495 700 479 700Q463 700 452.0 711.5Q441 723 441 738Q441 754 452.0 765.5Q463 777 479 777ZM355 750Q371 750 382.0 739.0Q393 728 393 712Q393 696 382.0 685.0Q371 674 355 674Q339 674 328.0 685.0Q317 696 317 712Q317 728 328.0 739.0Q339 750 355 750ZM603 750Q619 750 630.0 739.0Q641 728 641 712Q641 696 630.0 685.0Q619 674 603 674Q587 674 576.0 685.0Q565 696 565 712Q565 728 576.0 739.0Q587 750 603 750ZM208 643Q208 658 219.0 669.5Q230 681 246 681Q262 681 273.0 669.5Q284 658 284 643Q284 627 273.0 615.5Q262 604 246 604Q230 604 219.0 615.5Q208 627 208 643ZM674 643Q674 658 685.0 669.5Q696 681 712 681Q728 681 739.0 669.5Q750 658 750 643Q750 627 739.0 615.5Q728 604 712 604Q696 604 685.0 615.5Q674 627 674 643ZM138 533Q138 549 149.5 560.5Q161 572 177 572Q192 572 203.5 560.5Q215 549 215 533Q215 518 203.5 506.5Q192 495 177 495Q161 495 149.5 506.5Q138 518 138 533ZM743 533Q743 549 754.5 560.5Q766 572 781 572Q797 572 808.5 560.5Q820 549 820 533Q820 518 808.5 506.5Q797 495 781 495Q766 495 754.5 506.5Q743 518 743 533ZM112 409Q112 425 123.0 436.5Q134 448 150 448Q166 448 177.0 436.5Q188 425 188 409Q188 394 177.0 382.5Q166 371 150 371Q134 371 123.0 382.5Q112 394 112 409ZM770 409Q770 425 781.0 436.5Q792 448 808 448Q824 448 835.0 436.5Q846 425 846 409Q846 394 835.0 382.5Q824 371 808 371Q792 371 781.0 382.5Q770 394 770 409ZM138 285Q138 301 149.5 312.5Q161 324 177 324Q192 324 203.5 312.5Q215 301 215 285Q215 270 203.5 258.5Q192 247 177 247Q161 247 149.5 258.5Q138 270 138 285ZM743 285Q743 301 754.5 312.5Q766 324 781 324Q797 324 808.5 312.5Q820 301 820 285Q820 270 808.5 258.5Q797 247 781 247Q766 247 754.5 258.5Q743 270 743 285ZM208 176Q208 192 219.0 203.5Q230 215 246 215Q262 215 273.0 203.5Q284 192 284 176Q284 161 273.0 149.5Q262 138 246 138Q230 138 219.0 149.5Q208 161 208 176ZM674 176Q674 192 685.0 203.5Q696 215 712 215Q728 215 739.0 203.5Q750 192 750 176Q750 161 739.0 149.5Q728 138 712 138Q696 138 685.0 149.5Q674 161 674 176ZM355 145Q371 145 382.0 134.0Q393 123 393 107Q393 91 382.0 80.0Q371 69 355 69Q339 69 328.0 80.0Q317 91 317 107Q317 123 328.0 134.0Q339 145 355 145ZM603 145Q619 145 630.0 134.0Q641 123 641 107Q641 91 630.0 80.0Q619 69 603 69Q587 69 576.0 80.0Q565 91 565 107Q565 123 576.0 134.0Q587 145 603 145ZM479 119Q495 119 506.0 107.5Q517 96 517 80Q517 65 506.0 53.5Q495 42 479 42Q463 42 452.0 53.5Q441 65 441 80Q441 96 452.0 107.5Q463 119 479 119Z" />
  </g>
</svg>