<svg xmlns="http://www.w3.org/2000/svg" viewBox="49 0 800 1001">
  <g transform="translate(0, 1001) scale(1, -1)">
    <path fill="black" d="M82 0V45L166 60L180 69Q179 73 179 80Q179 100 194.5 121.0Q210 142 243 157L192 347Q191 352 188.5 364.0Q186 376 186 382Q186 408 202.0 430.5Q218 453 249 453Q264 453 280.0 446.5Q296 440 307 427L457 299L472 351L441 593L326 491L297 490L52 728L67 749L107 732L98 757L49 790L62 814L134 779L161 743L174 700L292 589L354 650Q375 671 399.5 696.5Q424 722 457 730L511 743L504 769L464 754L440 817L409 819L458 929L460 942Q468 971 488.5 986.0Q509 1001 548 1001Q584 1001 615.0 989.0Q646 977 665.0 955.0Q684 933 684 902Q684 874 667.5 847.0Q651 820 624 783V745L727 720Q753 714 760.5 695.0Q768 676 772 662L849 422L815 381L652 446L640 328L660 325V176H695L716 85Q721 66 714.5 50.5Q708 35 695 27Q688 22 672.5 15.5Q657 9 641.5 4.5Q626 0 617 0L602 39L632 54Q642 59 640.5 64.5Q639 70 635 78L619 112L396 29Q367 18 339.5 11.5Q312 5 293.5 2.5Q275 0 271 0Q240 0 217 13L170 0ZM612 795Q632 823 648.5 850.5Q665 878 665 906Q665 932 645.0 949.0Q625 966 598.0 974.0Q571 982 549 982Q524 982 505.0 972.0Q486 962 478 939L556 895Q561 899 567.0 902.0Q573 905 580 905Q593 905 600.0 895.5Q607 886 607 875Q607 868 602.0 858.5Q597 849 592 843L578 825ZM474 293 622 326 635 451 491 513 499 538 542 534 525 555 477 567 481 595 553 587 589 561 610 522 643 511 683 622 703 621 779 464 774 455 604 507 578 551 547 574 496 582 495 574 540 562 567 526 563 520 512 525 510 520 645 465 810 401 830 426 756 655Q752 669 745.0 684.0Q738 699 724 703L605 732V779L557 820L579 851Q582 856 586.0 862.5Q590 869 590 873Q590 876 588.5 881.5Q587 887 579 887Q567 887 558 875L473 923L433 832L452 831L472 776L517 791L532 729L456 713Q443 711 426.5 697.5Q410 684 394.5 667.5Q379 651 368 640L294 566Q270 589 250.0 607.0Q230 625 210.0 643.5Q190 662 165 685L146 737L124 769L71 797L67 790L114 759L128 717L122 712L76 733L72 728L300 509H319L443 617H457L490 352ZM497 866Q486 866 478.0 869.5Q470 873 462 878Q467 884 476.5 886.0Q486 888 489 888Q508 888 521 868Q514 867 508.0 866.5Q502 866 497 866ZM757 479 692 604 660 507ZM260 165 304 194 246 365 274 428Q264 434 248 434Q229 434 217.0 419.5Q205 405 205 382Q205 375 207.0 365.5Q209 356 211 348ZM322 203 448 286 290 420 266 366ZM281 86Q361 127 456.0 148.0Q551 169 643 174V311H634L468 274L245 132ZM628 16Q638 20 657.0 27.5Q676 35 686 42Q696 49 698.5 61.5Q701 74 698 85L679 160Q576 159 473.5 135.0Q371 111 276 63L227 123Q198 109 198 82Q198 57 210.5 43.5Q223 30 240.5 25.0Q258 20 272 20Q289 20 324.0 28.5Q359 37 396 50L626 136L653 82Q661 70 659.5 58.5Q658 47 650 43L622 31ZM101 19H168L199 27Q189 38 185 50L173 42L101 33Z" />
  </g>
</svg>