<svg xmlns="http://www.w3.org/2000/svg" viewBox="49 0 810 1001">
  <g transform="translate(0, 1001) scale(1, -1)">
    <path fill="black" d="M154 0V45L235 57L273 68L292 96Q294 104 300.5 130.5Q307 157 315.0 191.0Q323 225 330.5 255.0Q338 285 342 298Q351 332 364.0 357.0Q377 382 402 389Q407 397 422.0 404.0Q437 411 450 411Q491 411 529.0 398.0Q567 385 597.0 369.0Q627 353 644 343L646 346L601 432L544 478L472 557L338 527L306 529L188 736L163 758V482H97V674H49V1001H370V958H587V896H163V876L213 837L228 800V789L339 614L256 813L276 825L303 797L305 821L276 866L295 882L342 826L352 787L348 744L409 628L494 649L486 681L438 667L427 727H397L433 813L438 831Q439 832 444.5 847.0Q450 862 468.5 876.5Q487 891 524 891Q550 891 575.0 880.0Q600 869 617.0 849.5Q634 830 634 802Q634 775 617.5 746.5Q601 718 589 701L597 667Q606 666 625.5 660.0Q645 654 666.5 642.5Q688 631 701 611Q713 593 726.5 566.0Q740 539 752.5 509.5Q765 480 774.5 455.0Q784 430 788 417Q797 407 814.0 383.0Q831 359 845.0 329.5Q859 300 859 272Q859 251 850.5 231.0Q842 211 822.5 197.5Q803 184 768 184Q735 184 694.0 195.0Q653 206 614.5 221.5Q576 237 548.0 250.5Q520 264 513 270Q515 258 520.0 237.0Q525 216 528 189Q531 164 529.5 142.5Q528 121 529 110Q530 97 538.0 74.5Q546 52 556 30L520 0H361V45L435 57L460 85Q451 118 439.5 154.5Q428 191 417 225Q410 208 401.5 187.0Q393 166 386.5 149.5Q380 133 379 130Q377 124 371.0 108.0Q365 92 359.5 78.0Q354 64 354 63L346 0ZM115 501H145V914H569V940H353V982H67V693H115ZM580 721Q590 735 602.5 757.5Q615 780 615 802Q615 828 587.0 850.0Q559 872 522 872Q497 872 482.5 862.5Q468 853 462.0 842.0Q456 831 455 826L452 817L515 798Q524 811 542 811Q552 811 560.0 803.0Q568 795 568 784Q568 775 553 735ZM356 614 393 623 334 737 337 787 331 822 297 865 291 859 319 816 315 777 308 774 277 809 273 806ZM381 19H511L534 38Q530 46 521.0 69.0Q512 92 512 110Q512 121 513.0 141.5Q514 162 510 190Q506 224 498.5 253.0Q491 282 488 291L501 298Q521 284 553.5 267.5Q586 251 624.5 236.5Q663 222 700.5 213.0Q738 204 767 204Q805 204 822.5 226.0Q840 248 840 272Q840 294 826.5 321.5Q813 349 797.0 372.5Q781 396 773 404Q769 419 759.0 445.5Q749 472 736.0 502.0Q723 532 709.5 559.5Q696 587 685 603Q671 623 649.0 633.0Q627 643 608.0 647.0Q589 651 583 652L570 708L533 725Q545 756 548.5 766.0Q552 776 552 780Q552 782 550.5 788.0Q549 794 541 794Q533 794 529.0 790.5Q525 787 522 779L445 801L420 741H440L449 687L497 700L511 639L333 592L214 783L213 799L201 831L163 858V850L191 815L185 787H163V778L200 748L318 546L335 545L477 578L559 487L619 438L673 328L659 316Q635 329 602.5 347.0Q570 365 532.5 378.5Q495 392 454 392Q426 392 420.0 371.5Q414 351 415 331Q416 315 423.5 281.5Q431 248 442.0 208.5Q453 169 464.0 133.5Q475 98 481 78L443 41L381 33ZM163 797H175L178 812L163 831ZM478 756Q467 756 459.0 759.5Q451 763 443 769Q448 774 457.5 776.0Q467 778 470 778Q490 778 501 758Q494 757 488.5 756.5Q483 756 478 756ZM173 19H329Q331 28 333.0 44.0Q335 60 336 66Q339 75 344.5 90.5Q350 106 355.0 120.0Q360 134 361 136L411 256Q405 278 401.5 297.5Q398 317 396 332Q395 351 397 366Q383 356 373.0 332.5Q363 309 358 288Q356 279 349.5 253.5Q343 228 335.5 197.0Q328 166 321.0 136.0Q314 106 309 88L284 54L242 42L173 33Z" />
  </g>
</svg>