<svg xmlns="http://www.w3.org/2000/svg" viewBox="49 0 726 1001">
  <g transform="translate(0, 1001) scale(1, -1)">
    <path fill="black" d="M180 0V42L248 55L259 64V74Q259 112 314 141L270 295Q269 300 267.0 311.0Q265 322 265 328Q265 353 278.0 373.5Q291 394 317 394Q329 394 344.5 388.0Q360 382 370 371L487 247L500 299L483 440L443 489L382 430L354 428L163 636V450H97V653H49V1001H410V958H672V896H614Q644 886 664.0 864.5Q684 843 684 812Q684 786 670.5 760.5Q657 735 634 700V666L674 649Q706 636 711.5 614.5Q717 593 717 573Q717 561 711.5 535.0Q706 509 698.5 478.5Q691 448 683 420Q673 384 662.0 344.0Q651 304 647 267L664 265V88L705 55L775 42V0H697L590 33L420 8Q388 4 364.5 2.0Q341 0 336 0Q312 0 292 12L253 0ZM115 468H145V914H654V940H392V982H67V672H115ZM356 522 384 553 309 635 322 655 354 639 347 662 306 692 319 715 379 682 402 649 411 608 422 596Q436 614 452.5 629.5Q469 645 491 651L535 663L530 688L497 674L477 732L451 734L492 836L494 849Q496 862 505.0 876.0Q514 890 527 896H163V727L165 730L225 697L247 664L258 624ZM620 712Q637 738 650.5 763.0Q664 788 664 815Q664 839 647.5 854.5Q631 870 608.0 878.0Q585 886 567 886Q547 886 531.0 877.0Q515 868 508 846L573 804Q583 814 593 814Q604 814 610.0 805.5Q616 797 616 786Q616 780 611.5 771.0Q607 762 603 757L591 740ZM504 235 628 265Q633 309 643.5 347.0Q654 385 664 426Q678 488 686.0 524.5Q694 561 694 572Q694 588 690.5 605.5Q687 623 665 632L614 654V697L574 735L592 764Q595 769 598.0 775.0Q601 781 601 784Q601 787 600.0 792.0Q599 797 592 797Q585 797 582.0 794.0Q579 791 575 786L504 831L470 747L486 746L504 694L541 708L554 649L491 634Q478 631 462.5 615.5Q447 600 433 584L474 542L489 556L493 521L508 506L562 557Q581 574 597.0 592.5Q613 611 640 619L639 600Q623 596 605.0 577.5Q587 559 573 545L509 484L402 594L387 643L369 673L325 699L322 693L360 664L373 625L367 621L329 640L326 635L516 432H530L645 536L648 517L537 415L512 414L504 422L518 300ZM524 778Q507 778 496 789Q500 794 508.0 796.0Q516 798 517 798Q533 798 543 780Q538 779 533.0 778.5Q528 778 524 778ZM360 446H376L432 501L394 542L356 499L248 609L233 658L214 688L170 714L167 708L206 678L218 640L213 635L174 654L171 649ZM200 653 192 677 163 698V664L167 669ZM330 148 366 168 315 313 339 371Q335 374 329.0 375.0Q323 376 317 376Q301 376 291.0 363.0Q281 350 281 328Q281 321 283.0 312.5Q285 304 287 296ZM381 176 479 228 354 360 333 311ZM349 74 645 92V251H638L498 217L314 123ZM699 17H755V30L694 39L646 77L341 58L299 115Q276 100 276 76Q276 52 286.5 40.0Q297 28 311.0 23.5Q325 19 337 19Q351 19 376.0 21.5Q401 24 420 27L592 51ZM195 17H251L276 25Q272 30 269.5 35.5Q267 41 265 46L255 39L195 30Z" />
  </g>
</svg>