<svg xmlns="http://www.w3.org/2000/svg" viewBox="49 0 748 993">
  <g transform="translate(0, 993) scale(1, -1)">
    <path fill="black" d="M77 0V35Q74 48 61.5 63.5Q49 79 49 100Q49 111 58.5 123.5Q68 136 77.5 148.0Q87 160 87 167Q87 177 79.5 188.0Q72 199 64.5 211.0Q57 223 56 235Q56 244 63.0 251.5Q70 259 77.5 266.0Q85 273 85 281Q85 290 77.0 304.0Q69 318 60.5 331.5Q52 345 52 354Q52 366 63.5 380.0Q75 394 87.0 407.0Q99 420 99 428Q100 436 90.5 449.5Q81 463 72.0 479.0Q63 495 63 510Q64 521 78.0 534.0Q92 547 106.0 558.5Q120 570 120 576Q120 585 112.5 597.0Q105 609 97.5 621.5Q90 634 90 644Q90 655 104.0 669.5Q118 684 132.0 696.5Q146 709 146 715Q146 723 140.5 733.5Q135 744 132.0 755.5Q129 767 134 777Q137 783 150.0 787.5Q163 792 179.0 796.5Q195 801 207.5 805.0Q220 809 221 813Q225 823 223.5 838.0Q222 853 220.5 867.0Q219 881 223 887Q226 891 241.0 890.5Q256 890 271.5 890.0Q287 890 291 893Q298 899 302.0 912.5Q306 926 309.5 938.5Q313 951 319 953Q324 955 340.0 951.0Q356 947 374.5 940.0Q393 933 408.0 927.5Q423 922 426 922Q438 921 452.0 927.5Q466 934 479 938Q475 949 470.5 957.5Q466 966 461 976L477 984Q479 980 483.5 971.5Q488 963 492 953Q507 975 537.5 984.0Q568 993 605 993Q656 993 693.0 973.0Q730 953 730 925Q730 901 703.0 882.5Q676 864 635 859Q663 850 684.5 829.0Q706 808 706 776Q706 751 692.5 727.0Q679 703 656 670V637L696 622Q728 610 733.5 588.5Q739 567 739 548Q739 537 733.5 512.0Q728 487 720.0 457.5Q712 428 705 402Q695 367 684.0 328.5Q673 290 669 255L686 253V84L727 53L797 40V0H719L612 32L442 8Q410 4 386.5 2.0Q363 0 358 0Q334 0 314 12L275 0H202V40L270 53L281 62V71Q281 106 336 135L292 283Q291 288 289.0 298.0Q287 308 287 314Q287 338 300.0 357.5Q313 377 339 377Q351 377 366.5 371.0Q382 365 392 354L509 236L522 286L505 421L465 468L404 411L376 410L175 620L189 640L222 625L214 647L175 677L187 698L247 667L269 635L280 597L378 500L406 529L331 607L344 626L376 611L369 633L328 663L341 685L401 653L424 621L433 582L444 570Q458 587 474.5 602.5Q491 618 513 623L557 634L552 658L519 645L499 701L472 702L512 800L514 812Q524 851 560 862Q513 871 492 897Q487 884 483.0 876.0Q479 868 477 865L461 874Q465 882 471.5 894.5Q478 907 481 919Q477 918 456.5 911.0Q436 904 424 903Q418 903 404.0 907.5Q390 912 373.5 918.0Q357 924 344.5 928.0Q332 932 330 929Q322 920 318.0 901.5Q314 883 304 875Q298 870 284.5 870.5Q271 871 259.0 872.5Q247 874 244 870Q240 865 241.5 850.5Q243 836 244.5 821.0Q246 806 241 800Q237 795 217.5 790.0Q198 785 179.0 779.0Q160 773 157 765Q154 756 158.0 746.0Q162 736 166.5 726.5Q171 717 168 709Q166 701 151.0 688.0Q136 675 122.0 662.5Q108 650 109 641Q110 632 117.5 619.5Q125 607 132.5 595.0Q140 583 139 572Q139 562 124.5 549.0Q110 536 96.5 525.0Q83 514 83 507Q84 497 93.5 481.0Q103 465 112.0 450.0Q121 435 119 427Q117 415 105.0 402.0Q93 389 82.0 376.5Q71 364 72 353Q74 339 88.5 321.0Q103 303 104 278Q105 270 97.5 262.0Q90 254 82.5 246.5Q75 239 76 232Q77 224 84.5 213.0Q92 202 99.0 190.0Q106 178 106 165Q106 152 96.5 141.0Q87 130 78.0 119.5Q69 109 69 97Q70 90 76.5 77.5Q83 65 89.5 53.5Q96 42 96 38V0ZM605 877Q648 877 678.0 891.0Q708 905 708 925Q708 945 678.0 959.0Q648 973 605 973Q567 973 538.0 961.0Q509 949 504 932H493V917H504Q511 900 539.5 888.5Q568 877 605 877ZM642 682Q659 706 672.5 730.5Q686 755 686 780Q686 803 669.5 818.0Q653 833 630.0 840.5Q607 848 589 848Q569 848 553.0 839.0Q537 830 530 810L595 770Q600 774 604.5 776.5Q609 779 615 779Q626 779 632.0 770.5Q638 762 638 752Q638 747 633.5 738.0Q629 729 625 724L613 708ZM526 225 650 254Q655 296 665.5 332.0Q676 368 686 408Q700 467 708.0 502.0Q716 537 716 547Q716 563 712.0 580.0Q708 597 687 605L636 625V667L596 703L614 731Q616 735 619.5 741.0Q623 747 623 750Q623 752 622.0 757.5Q621 763 614 763Q607 763 604.0 760.0Q601 757 597 752L526 795L492 714L508 713L526 665L563 677L576 622L513 607Q500 604 484.5 589.0Q469 574 455 559L496 518L511 532L515 499L530 484L583 533Q602 550 618.5 567.5Q635 585 662 592L661 574Q645 570 627.0 552.5Q609 535 595 521L531 463L424 568L409 615L391 644L347 669L344 663L382 635L395 598L389 594L351 612L348 608L538 414H552L667 513L670 494L559 396H534L526 404L540 287ZM546 744Q537 744 530.0 747.5Q523 751 518 755Q522 760 530.0 761.5Q538 763 539 763Q556 763 565 746Q560 745 555.0 744.5Q550 744 546 744ZM382 427H398L454 479L416 518L378 478L270 583L255 629L236 658L192 683L189 677L228 649L240 612L235 607L196 626L193 622ZM352 142 388 161 337 299 361 354Q356 358 350.5 359.0Q345 360 339 360Q323 360 313.0 347.5Q303 335 303 314Q303 307 305.0 299.5Q307 292 309 284ZM403 168 501 218 376 344 355 298ZM371 70 667 88V240H660L520 208L336 117ZM721 16H777V29L716 37L668 74L363 56L321 110Q298 96 298 72Q298 50 308.5 38.0Q319 26 333.0 22.0Q347 18 359 18Q373 18 399.5 21.0Q426 24 442 26L614 49ZM217 16H273L298 24Q294 29 291.5 34.0Q289 39 287 44L277 37L217 29Z" />
  </g>
</svg>