<svg xmlns="http://www.w3.org/2000/svg" viewBox="49 0 945.1739130434783 993">
  <g transform="translate(0, 993) scale(1, -1)">
    <path fill="black" d="M77 0V35Q74 48 61.5 63.5Q49 79 49 100Q49 111 58.5 123.5Q68 136 77.5 148.0Q87 160 87 167Q87 177 79.5 188.0Q72 199 64.5 211.0Q57 223 56 235Q56 244 63.0 251.5Q70 259 77.5 266.0Q85 273 85 281Q85 290 77.0 304.0Q69 318 60.5 331.5Q52 345 52 354Q52 366 63.5 380.0Q75 394 87.0 407.0Q99 420 99 428Q100 436 90.5 449.5Q81 463 72.0 479.0Q63 495 63 510Q64 521 78.0 534.0Q92 547 106.0 558.5Q120 570 120 576Q120 585 112.5 597.0Q105 609 97.5 621.5Q90 634 90 644Q90 655 104.0 669.5Q118 684 132.0 696.5Q146 709 146 715Q146 727 136.5 744.5Q127 762 134 777Q137 783 150.0 787.5Q163 792 179.0 796.5Q195 801 207.5 805.0Q220 809 221 813Q225 823 223.0 838.0Q221 853 220.0 866.5Q219 880 223 887Q226 891 241.0 890.5Q256 890 271.5 890.0Q287 890 291 893Q298 899 302.0 912.5Q306 926 309.5 938.5Q313 951 319 953Q324 955 340.0 951.0Q356 947 374.5 940.0Q393 933 408.0 927.5Q423 922 426 922Q438 921 452.0 927.5Q466 934 479 938Q475 949 469.5 960.0Q464 971 461 976L477 984Q478 982 483.0 973.0Q488 964 492 953Q507 970 537.5 981.5Q568 993 605 993Q656 993 693.0 973.0Q730 953 730 925Q730 897 693.0 877.0Q656 857 605 857Q568 857 537.5 868.5Q507 880 492 897Q488 887 483.5 878.0Q479 869 477 865L461 874Q466 883 472.5 896.0Q479 909 481 919Q477 918 456.5 911.0Q436 904 424 903Q418 903 404.0 907.5Q390 912 373.5 918.5Q357 925 344.5 928.5Q332 932 330 929Q323 920 318.0 901.5Q313 883 304 875Q298 870 284.5 870.5Q271 871 259.0 872.5Q247 874 244 870Q240 865 241.5 850.5Q243 836 244.5 821.0Q246 806 241 800Q237 795 217.5 790.0Q198 785 179.0 779.0Q160 773 157 765Q154 756 158.0 746.0Q162 736 166.5 726.5Q171 717 168 709Q166 701 151.0 688.0Q136 675 122.0 662.5Q108 650 109 641Q110 632 117.5 619.5Q125 607 132.5 595.0Q140 583 139 572Q139 562 124.5 549.0Q110 536 96.5 525.0Q83 514 83 507Q84 497 93.5 481.0Q103 465 112.0 450.0Q121 435 119 427Q117 415 105.0 402.0Q93 389 82.0 376.5Q71 364 72 353Q73 344 81.0 332.0Q89 320 96.5 306.5Q104 293 104 278Q104 270 96.5 262.0Q89 254 82.0 246.5Q75 239 76 232Q77 224 84.5 213.0Q92 202 99.0 190.0Q106 178 106 165Q106 152 97.0 141.0Q88 130 78.5 119.5Q69 109 69 97Q69 91 76.0 78.5Q83 66 89.5 54.0Q96 42 96 38V0ZM605 877Q648 877 678.0 891.0Q708 905 708 925Q708 945 678.0 959.0Q648 973 605 973Q567 973 538.0 961.0Q509 949 504 932H493V917H504Q511 900 539.5 888.5Q568 877 605 877ZM571 10Q536 10 510.0 30.5Q484 51 484 87Q484 109 497.0 127.0Q510 145 542 166L748 308H751Q734 348 713.5 372.5Q693 397 664 415L603 288L585 274L417 223L336 167L322 189L351 215L330 214L281 178L264 199L319 253L367 256L409 269L534 330L587 452Q578 455 568.0 458.0Q558 461 547 464L512 355L489 338L345 292L268 230L253 252L282 278H261L212 241L195 263L250 317L296 321L332 341L444 398L479 521Q483 535 491.0 550.5Q499 566 513 573L544 588L531 623L500 604L468 656L441 652L462 745V756Q464 794 494.0 818.0Q524 842 561 842Q609 842 640.0 818.5Q671 795 671 749Q671 728 657.5 700.0Q644 672 633 655L643 617L689 612Q718 609 750.0 580.5Q782 552 814.5 510.0Q847 468 876.0 423.0Q905 378 928 342H939V188H972L992 96Q997 77 990.5 61.0Q984 45 973 37Q962 30 937.0 20.0Q912 10 898 10L884 48L914 63Q922 69 921.0 75.0Q920 81 916 88L900 122L690 39Q650 23 619.0 16.5Q588 10 571 10ZM619 670Q627 684 638.5 705.5Q650 727 650 749Q650 787 623.0 805.0Q596 823 561 823Q532 823 507.0 804.0Q482 785 479 757L554 744Q557 749 562.0 752.5Q567 756 578 756Q589 756 595.5 749.0Q602 742 602 731Q602 726 599.0 717.5Q596 709 594 704L587 684ZM342 185 411 236 577 289 588 299 669 468 686 460 672 433Q704 413 728.0 386.0Q752 359 771 313L903 342Q881 377 853.0 419.5Q825 462 794.5 501.0Q764 540 735.0 566.0Q706 592 682 594L627 599L613 655L568 675L581 708Q585 720 585 728Q585 730 583.5 735.5Q582 741 576 741Q569 741 565.0 737.0Q561 733 559 727L478 743L459 668L476 671L503 625L539 645L566 579L527 560Q511 553 505.0 537.0Q499 521 496 510L458 382L339 328L297 307L256 304L212 263L218 257L257 288L298 290L302 284L266 252L271 247L339 304L480 353L494 364L535 487L542 485Q556 481 569.5 477.5Q583 474 595 469Q606 489 620.0 516.0Q634 543 656 553V527Q647 522 634.0 500.5Q621 479 606.0 448.0Q591 417 575.5 383.0Q560 349 548 318L416 256L368 241H325L281 200L287 193L326 225L367 226L371 220L338 191ZM500 708Q488 708 477 714Q480 720 488.0 723.5Q496 727 497 727H504Q516 727 528 714Q510 708 500 708ZM582 96Q656 137 744.5 159.5Q833 182 920 188V324H913L753 289L547 145ZM909 26Q913 28 924.0 32.0Q935 36 947.0 41.5Q959 47 964 51Q973 59 975.5 71.5Q978 84 975 96L958 170Q859 169 762.5 145.5Q666 122 577 73L532 132Q503 116 503 87Q503 60 524.5 44.5Q546 29 573 29Q589 29 622.5 38.0Q656 47 690 60L907 146L933 92Q939 79 937.5 68.5Q936 58 928 54L903 41ZM123 0V106H473V0ZM143 20H453V87H143Z" />
  </g>
</svg>