<svg xmlns="http://www.w3.org/2000/svg" viewBox="49 0 1049 1001">
  <g transform="translate(0, 1001) scale(1, -1)">
    <path fill="black" d="M49 0V45L130 57L167 68L187 96Q195 131 203.5 170.0Q212 209 220.5 246.0Q229 283 235.5 310.0Q242 337 245 347Q251 368 257 383L168 326L139 287L60 271L51 304L108 322L121 340L79 330L69 358L169 392L312 509L431 685Q445 702 469.0 712.5Q493 723 525 730L580 743L573 769L533 754L509 817L478 819L527 929L529 942Q537 971 557.5 986.0Q578 1001 617 1001Q653 1001 684.0 989.0Q715 977 733.5 955.0Q752 933 752 902Q752 874 736.0 847.0Q720 820 693 783V745L795 720Q823 713 830.0 694.5Q837 676 841 662L899 477L985 313L1020 285L1065 267L1098 192L1072 177L1041 229L1021 237L1039 203L1003 184L949 271L820 437L761 604L721 446L716 337V179H749L769 86Q774 67 767.5 51.0Q761 35 750 27Q743 22 728.5 15.5Q714 9 699.0 4.5Q684 0 675 0L661 39L688 53Q697 58 697.5 63.0Q698 68 693 78L677 112L467 29Q427 13 396.0 6.5Q365 0 348 0Q313 0 287.0 20.5Q261 41 261 78Q261 83 262 86Q258 80 254.5 74.5Q251 69 249 66L240 0ZM681 795Q701 823 717.5 850.5Q734 878 734 906Q734 932 714.0 949.0Q694 966 667.0 974.0Q640 982 618 982Q593 982 574.0 972.0Q555 962 547 939L625 895Q630 899 636.0 902.0Q642 905 649 905Q662 905 669.0 895.5Q676 886 676 875Q676 868 671.0 858.5Q666 849 661 843L647 825ZM1008 199 1023 208 1001 251 1008 258 1047 243 1073 199 1080 203 1055 257 1013 272 974 304 881 471 825 655Q821 669 814.0 684.0Q807 699 793 703L674 732V779L625 820L648 851Q651 856 655.0 862.5Q659 869 659 873Q659 876 657.0 881.5Q655 887 647 887Q636 887 627 875L542 923L501 832L521 831L541 776L586 791L601 729L524 713Q505 709 480.0 698.0Q455 687 444 673L327 497L174 378L89 352L91 345L139 356L143 346L120 311L71 296L74 289L132 301L157 338L357 469L488 630H495L554 379L547 309L699 341L704 451L749 622L772 621L832 453L960 281ZM566 866Q555 866 547.0 869.5Q539 873 531 878Q536 884 545.5 886.0Q555 888 558 888Q578 888 589 868Q582 867 576.5 866.5Q571 866 566 866ZM530 306 535 378 483 600 363 450 329 428Q366 428 405.0 408.5Q444 389 477.5 360.5Q511 332 530 306ZM68 19H224Q225 27 227.0 41.5Q229 56 230 66Q242 83 255.0 109.5Q268 136 279.0 163.0Q290 190 296 206Q307 236 313.0 270.5Q319 305 320 331L331 336Q346 332 365.0 311.0Q384 290 401.0 266.0Q418 242 425 230L515 293Q495 318 465.0 344.5Q435 371 400.0 390.0Q365 409 328 409Q321 409 306.5 403.5Q292 398 288 394Q279 385 273.0 371.0Q267 357 262 337Q259 328 253.0 301.5Q247 275 238.5 238.5Q230 202 221.0 162.5Q212 123 204 88L178 54L136 42L68 33ZM358 86Q433 127 521.5 149.5Q610 172 697 178V322L540 287L324 135ZM282 127Q289 134 298.0 141.0Q307 148 319 156L410 220Q403 231 390.0 249.0Q377 267 362.5 284.5Q348 302 336 309Q335 282 328.5 251.5Q322 221 314 199Q310 189 301.5 169.0Q293 149 282 127ZM686 16Q700 21 717.0 29.0Q734 37 741 42Q749 49 752.0 61.5Q755 74 752 86L734 160Q636 159 539.5 135.5Q443 112 354 63L309 122Q280 106 280 77Q280 51 301.0 35.5Q322 20 350 20Q366 20 399.0 28.0Q432 36 467 50L684 136L709 82Q715 69 713.5 58.5Q712 48 705 44L680 31Z" />
  </g>
</svg>