<svg xmlns="http://www.w3.org/2000/svg" viewBox="46 0 858 1018">
  <g transform="translate(0, 1018) scale(1, -1)">
    <path fill="black" d="M135 78Q135 87 138.0 101.5Q141 116 159 129Q153 184 144.5 237.5Q136 291 125 346Q119 378 128.5 397.5Q138 417 155.5 426.0Q173 435 194.0 433.5Q215 432 231 421L404 306L409 378L387 468Q343 454 298.0 446.0Q253 438 210 434L187 446Q189 473 201.0 507.0Q213 541 230.5 575.0Q248 609 266.0 638.0Q284 667 299 685Q313 702 340.0 712.5Q367 723 399 730L454 743L447 769L407 754L383 817L352 819L401 929L403 942Q411 971 431.5 986.0Q452 1001 491 1001Q527 1001 558.0 989.0Q589 977 607.5 955.0Q626 933 626 902Q626 874 610.0 847.0Q594 820 567 783V745Q594 746 628.5 739.5Q663 733 697.5 724.0Q732 715 762.0 706.0Q792 697 811 694Q804 738 802.5 797.0Q801 856 806 902L774 932V1017L863 1018L891 996L889 937L864 906Q869 845 878.5 772.0Q888 699 904 624L889 614Q845 608 787.5 612.5Q730 617 637 632L595 446L590 337V179H623L643 86Q648 67 641.5 51.0Q635 35 624 27Q617 22 602.5 15.5Q588 9 573.0 4.5Q558 0 549 0L535 39L564 54Q573 59 572.0 65.0Q571 71 567 78L551 112L341 29Q301 13 270.0 6.5Q239 0 222 0Q197 0 175 11L134 0H46V45L130 60L136 64Q135 68 135.0 71.0Q135 74 135 78ZM823 1000V969L837 956L871 958L872 987L857 1000ZM882 632Q865 735 858.0 796.5Q851 858 850.0 886.0Q849 914 848 914L869 940L830 938L805 962V999H792V940L823 911Q822 910 821.0 887.0Q820 864 820.5 828.5Q821 793 823.5 754.0Q826 715 832 683L815 675Q801 677 768.5 687.0Q736 697 695.0 707.5Q654 718 614.5 724.5Q575 731 548 726V779L499 820L522 851Q525 856 529.0 862.5Q533 869 533 873Q533 876 531.0 881.5Q529 887 521 887Q510 887 501 875L416 923L375 832L395 831L415 776L460 791L475 729L398 713Q379 709 351.0 698.0Q323 687 312 673Q289 644 266.0 604.0Q243 564 226.0 524.5Q209 485 204 457L216 452Q274 457 327.5 470.5Q381 484 420.5 498.5Q460 513 475 520L517 512L545 524L557 546L548 573L507 559L501 576L543 590L539 601L480 580L465 543Q411 527 366.5 515.5Q322 504 269 496Q274 508 294.0 541.0Q314 574 363 632H369L390 540L450 554L467 594L551 624L576 544L558 510L519 493L474 502Q461 495 438.0 485.5Q415 476 404 473L428 379L421 309L573 341L578 451L624 653Q700 640 750.0 635.0Q800 630 832.0 630.5Q864 631 882 632ZM492 982Q467 982 448.0 972.0Q429 962 421 939L499 895Q504 899 510.0 902.0Q516 905 523 905Q536 905 543.0 895.5Q550 886 550 875Q550 868 545.0 858.5Q540 849 535 843L521 825L555 795Q575 823 591.5 850.5Q608 878 608 906Q608 932 588.0 949.0Q568 966 541.0 974.0Q514 982 492 982ZM432 888Q452 888 463 868Q456 867 450.5 866.5Q445 866 440 866Q429 866 421.0 869.5Q413 873 405 878Q410 884 419.5 886.0Q429 888 432 888ZM357 600Q324 560 313.5 543.5Q303 527 299 519Q310 521 327.5 524.5Q345 528 372 535ZM223 175 194 345 198 413Q191 415 175.5 413.0Q160 411 149.0 397.5Q138 384 143 351L176 141ZM390 296 216 410 213 351 238 187ZM571 322 414 287 198 135 232 86Q307 127 395.5 149.5Q484 172 571 178ZM608 160Q510 159 413.5 135.5Q317 112 228 63L183 122Q154 106 154 77Q154 51 175.0 35.5Q196 20 224 20Q240 20 273.0 28.0Q306 36 341 50L558 136L583 82Q589 69 587.5 58.5Q586 48 579 44L554 31L560 16Q574 21 591.0 29.0Q608 37 615 42Q623 49 626.0 61.5Q629 74 626 86ZM142 45 137 42 65 33V19H132L156 25Q148 33 142 45Z" />
  </g>
</svg>