<svg xmlns="http://www.w3.org/2000/svg" viewBox="49 0 733 1010">
  <g transform="translate(0, 1010) scale(1, -1)">
    <path fill="black" d="M49 0V45L133 60L147 69Q146 73 146 80Q146 121 213 151L159 347Q158 352 155.5 364.0Q153 376 153 382Q153 408 169.0 430.5Q185 453 216 453Q231 453 247.0 446.5Q263 440 274 427L424 259L439 351L390 579L225 678V716L348 876L354 922L374 962L438 1010L445 1001H618L574 909Q608 899 629.5 875.5Q651 852 651 819Q651 791 634.5 764.0Q618 737 591 700V662L674 637Q700 630 709.5 611.5Q719 593 723 579L782 383L741 223L757 180L754 136L718 74L693 87L712 132L705 159L683 123L658 131L709 376L645 519L607 287L627 285V95L677 60L761 45V0H672L537 38L339 9Q300 3 271.5 1.5Q243 0 238 0Q207 0 185 13L138 0ZM716 93 741 138V177L723 224L763 388L707 572Q703 586 694.5 601.0Q686 616 672 620L573 649V696L524 737L546 768Q550 773 553.5 779.5Q557 786 557 790Q557 793 555.5 798.5Q554 804 546 804Q536 804 525 792L440 840L400 749L419 748L439 693L484 708L496 629H480L294 698L375 842L443 923L439 927L397 898L390 902L397 946L437 984L436 986L432 991L385 954L369 918L360 863L242 712L243 688L408 587L458 352L441 253L589 286L633 539L654 538L728 378L676 143L681 141L707 184H715L727 141L709 97ZM487 920H561L593 986H454ZM479 645 472 686 431 671 407 734 376 736 426 846 428 859Q437 898 472 911L441 975L413 947L409 920L444 944L463 926L387 830L317 706ZM579 712Q599 740 615.5 767.5Q632 795 632 823Q632 849 612.0 866.0Q592 883 565.0 891.0Q538 899 516 899Q491 899 472.0 889.0Q453 879 445 856L523 812Q528 816 534.0 819.0Q540 822 547 822Q560 822 567.5 812.5Q575 803 575 792Q575 785 569.5 775.5Q564 766 560 760L545 742ZM464 783Q453 783 445.0 786.5Q437 790 430 795Q435 801 444.5 803.0Q454 805 456 805Q475 805 488 785Q481 784 475.0 783.5Q469 783 464 783ZM230 159 274 181 213 365 242 428Q230 434 215 434Q196 434 184.0 419.5Q172 405 172 382Q172 375 174.5 365.5Q177 356 179 348ZM292 189 416 245 257 420 233 366ZM254 80 610 100V270H602L432 234L212 132ZM675 19H739V33L670 42L612 83L244 63L194 123Q165 109 165 82Q165 57 177.5 43.5Q190 30 207.5 25.0Q225 20 239 20Q256 20 286.5 22.0Q317 24 340 27L547 55ZM71 19H135L166 27Q156 38 152 50L140 42L71 33Z" />
  </g>
</svg>