<svg xmlns="http://www.w3.org/2000/svg" viewBox="49 0 863 1102">
  <g transform="translate(0, 1102) scale(1, -1)">
    <path fill="black" d="M70 0V45L151 57L188 68L208 96Q216 131 225.0 170.0Q234 209 242.5 246.0Q251 283 257.0 310.0Q263 337 266 347Q277 391 298 412Q304 418 321.5 423.0Q339 428 349 428Q387 428 426.0 408.5Q465 389 498.0 360.5Q531 332 551 306L562 377L559 389L536 357L513 376L550 427V429L541 436L538 464L541 467L511 600L414 490L215 483L200 465L167 459V112H119Q119 151 106.5 176.0Q94 201 83 223Q71 249 60.0 278.5Q49 308 49 351Q49 388 65.0 423.0Q81 458 97 488Q95 499 95.5 508.0Q96 517 100 531L108 534L107 538Q95 555 81.5 584.5Q68 614 58.5 649.0Q49 684 49 716Q49 759 60.0 788.5Q71 818 83 844Q94 867 106.5 891.5Q119 916 119 955H167V576L206 571L231 546L372 565L452 685Q464 703 489.0 713.0Q514 723 546 730L601 743L594 769L564 758L511 723L493 763L545 776L530 817L499 819L548 929L550 942Q558 971 578.5 986.0Q599 1001 638 1001Q658 1001 680 996Q688 1008 696.5 1023.0Q705 1038 716 1052Q739 1081 752.5 1091.5Q766 1102 784 1102Q801 1102 807.0 1094.5Q813 1087 813 1076Q813 1060 795.5 1052.5Q778 1045 765 1044Q767 1040 769.5 1029.5Q772 1019 772.0 1008.0Q772 997 765 991Q754 982 735.0 986.5Q716 991 703 997L699 991Q731 980 752.0 957.0Q773 934 773 902Q773 874 759.5 839.0Q746 804 719 767L705 771L704 745L769 731L839 830L863 813L799 724L816 720Q843 714 851.0 695.0Q859 676 863 656L912 460L878 419L741 427L737 337V179H770L790 86Q795 67 788.5 51.0Q782 35 771 27Q764 22 749.5 15.5Q735 9 720.0 4.5Q705 0 696 0L682 39L711 54Q720 59 719.0 65.0Q718 71 714 78L698 112L488 29Q448 13 417.0 6.5Q386 0 369 0Q334 0 308.0 20.5Q282 41 282 78Q282 83 283 86Q279 80 275.5 74.5Q272 69 270 66L261 0ZM745 1057Q751 1058 762.5 1059.5Q774 1061 783.5 1065.0Q793 1069 793 1076Q793 1086 782 1084Q767 1083 745 1057ZM751 1006Q757 1013 751.0 1030.0Q745 1047 743 1054Q736 1045 727.5 1034.5Q719 1024 711 1011Q720 1007 730.5 1004.5Q741 1002 751 1006ZM711 788Q731 816 743.0 847.0Q755 878 755 906Q755 932 735.0 949.0Q715 966 688.0 974.0Q661 982 639 982Q614 982 595.0 972.0Q576 962 568 939L646 895Q651 899 657.0 902.0Q663 905 670 905Q683 905 690.0 895.5Q697 886 697 875Q697 868 692.0 858.5Q687 849 682 843L668 825ZM119 562 145 571V933H138Q137 902 125.5 880.5Q114 859 103 836Q93 813 82.0 783.5Q71 754 71 716Q71 673 87.0 630.5Q103 588 119 562ZM554 483 574 506 578 503 587 518 608 509 758 716 686 732 687 784 646 820 669 851Q672 856 676.0 862.5Q680 869 680 873Q680 876 678.0 881.5Q676 887 668 887Q657 887 648 875L563 923L522 832L542 831L562 776L607 791L622 729L545 713Q526 709 500.5 698.5Q475 688 465 673L380 546L226 532L200 557L167 559V548L203 534L213 500L229 501L408 509L521 637ZM587 866Q576 866 568.0 869.5Q560 873 552 878Q557 884 566.5 886.0Q576 888 579 888Q599 888 610 868Q603 867 597.5 866.5Q592 866 587 866ZM617 415 659 446 872 439 892 465 846 655Q843 669 835.5 684.5Q828 700 814 703L788 709L635 497L667 480L734 486L770 622L793 621L838 485L833 477L664 464L627 484L618 472L626 464L619 456L577 490L551 459L553 444L583 418ZM752 487 815 493 782 604ZM134 540 145 542V554L127 549ZM167 472 190 479 201 492 189 525 167 535V534L112 523V509L116 492L132 484ZM597 491 602 498 591 503 588 499ZM138 135H145V464L125 470L114 478Q100 450 85.5 418.0Q71 386 71 351Q71 312 81.0 283.5Q91 255 103 231Q114 209 125.5 188.0Q137 167 138 135ZM568 309 720 341 724 428 662 431 618 399 579 404 573 409 572 408 580 378ZM89 19H245Q246 27 248.0 41.5Q250 56 251 66Q263 83 276.0 110.0Q289 137 300.0 163.5Q311 190 317 206Q328 235 334.0 270.0Q340 305 341 331L352 336Q367 332 386.0 311.0Q405 290 422.0 266.0Q439 242 446 230L536 293Q516 318 486.0 344.5Q456 371 421.0 390.0Q386 409 349 409Q342 409 327.5 403.5Q313 398 309 394Q300 385 294.0 371.0Q288 357 283 337Q280 328 274.0 301.5Q268 275 259.5 238.5Q251 202 242.0 162.5Q233 123 225 88L199 54L157 42L89 33ZM379 86Q454 127 542.5 149.5Q631 172 718 178V322L561 287L345 135ZM303 127Q310 134 319.0 141.5Q328 149 340 156L431 220Q424 231 411.0 249.0Q398 267 383.5 284.5Q369 302 357 309Q356 282 349.5 251.5Q343 221 335 199Q331 189 322.5 169.0Q314 149 303 127ZM707 16Q721 21 738.0 29.0Q755 37 762 42Q770 49 773.0 61.5Q776 74 773 86L755 160Q657 159 560.5 135.5Q464 112 375 63L330 122Q301 106 301 77Q301 51 322.0 35.5Q343 20 371 20Q387 20 420.0 28.0Q453 36 488 50L705 136L730 82Q736 69 734.5 58.5Q733 48 726 44L701 31Z" />
  </g>
</svg>