<svg xmlns="http://www.w3.org/2000/svg" viewBox="49 0 792.5384615384615 1001">
  <g transform="translate(0, 1001) scale(1, -1)">
    <path fill="black" d="M136 0Q100 0 74.5 20.5Q49 41 49 78Q49 99 61.5 117.0Q74 135 106 156L317 303L323 378Q318 410 312.5 447.0Q307 484 302.0 518.5Q297 553 294.0 579.5Q291 606 291 616Q291 621 293.0 637.5Q295 654 302.5 674.5Q310 695 325.0 714.0Q340 733 367 743L361 769L332 758L303 701L266 726L313 773L296 817L265 819L315 929L317 942Q325 971 345.5 986.0Q366 1001 404 1001Q441 1001 471.5 989.0Q502 977 521.0 955.0Q540 933 540 902Q540 874 524.0 847.0Q508 820 480 783V745Q497 746 512.5 745.0Q528 744 547 739Q568 734 591.0 708.0Q614 682 637.5 644.0Q661 606 681 563Q677 571 674.5 581.0Q672 591 672 602Q672 626 686.5 647.5Q701 669 734 669Q759 669 771.0 658.5Q783 648 787.5 633.0Q792 618 792 604Q792 578 771.5 556.0Q751 534 733 521L832 478Q841 475 841.5 465.0Q842 455 836.0 448.5Q830 442 817 447L767 474L808 416Q812 406 805.0 399.0Q798 392 789.0 390.5Q780 389 777 394L705 505Q718 461 724.0 428.5Q730 396 731.5 366.5Q733 337 731 300L773 203L746 191L726 230L720 209L745 154L714 139L673 208L684 256Q680 273 676.0 289.0Q672 305 668 321L652 285V180H622L619 224L605 207L606 146L572 145L562 225L590 265Q598 307 606.5 353.5Q615 400 624 443Q621 451 619.5 459.5Q618 468 620 473Q620 473 623 476Q606 508 587.0 537.5Q568 567 547 591L508 446L503 337V179H537L557 86Q562 67 555.5 51.0Q549 35 537 27Q530 22 515.5 15.5Q501 9 486.5 4.5Q472 0 463 0L449 39L478 54Q486 59 485.0 65.0Q484 71 480 78L465 112L254 29Q214 13 183.0 6.5Q152 0 136 0ZM468 795Q488 823 504.5 850.5Q521 878 521 906Q521 932 501.0 949.0Q481 966 454.0 974.0Q427 982 405 982Q381 982 361.5 972.0Q342 962 334 939L413 895Q418 899 424.0 902.0Q430 905 437 905Q450 905 457.0 895.5Q464 886 464 875Q464 868 459.0 858.5Q454 849 449 843L435 825ZM335 309 487 341 491 451 538 631Q567 603 591.0 565.0Q615 527 637 488Q646 497 658.0 506.5Q670 516 679 523Q668 549 650.5 581.5Q633 614 613.5 644.5Q594 675 575.5 696.5Q557 718 544 722Q522 729 498.5 728.5Q475 728 462 726V779L413 820L436 851Q439 856 442.5 862.5Q446 869 446 873Q446 876 444.5 881.5Q443 887 435 887Q424 887 415 875L329 923L289 832L308 831L329 776L374 791L389 729Q364 725 348.5 709.5Q333 694 325.0 674.5Q317 655 314.0 637.5Q311 620 311 611Q311 602 313.5 577.0Q316 552 320.5 518.0Q325 484 330.5 447.5Q336 411 341 379ZM354 866Q342 866 334.0 869.5Q326 873 319 878Q324 884 333.5 886.0Q343 888 345 888Q364 888 377 868Q370 867 364.5 866.5Q359 866 354 866ZM719 548Q729 555 742.5 571.5Q756 588 756 601Q756 631 731 631Q718 631 713.0 621.5Q708 612 708 601Q708 590 710.5 576.0Q713 562 719 548ZM718 161 725 164 704 210 715 251 725 254 749 210 755 213 718 295Q718 343 712.5 392.0Q707 441 691 490L657 453Q669 415 680.0 359.5Q691 304 700 255L689 212ZM584 163 592 164 591 214 618 247 627 246 632 197H639L638 287Q644 302 650.5 317.0Q657 332 662 348Q657 369 652.0 390.5Q647 412 643 434Q634 391 624.0 345.0Q614 299 605 257L578 222ZM146 86Q221 127 309.5 149.5Q398 172 485 178V322L327 287L112 135ZM474 16Q488 21 505.0 29.0Q522 37 529 42Q537 49 540.0 61.5Q543 74 540 86L522 160Q424 159 327.5 135.5Q231 112 142 63L97 122Q83 115 75.0 102.5Q67 90 67 77Q67 51 88.5 35.5Q110 20 137 20Q154 20 187.0 28.5Q220 37 254 50L472 136L497 82Q503 69 501.5 58.5Q500 48 492 44L468 31Z" />
  </g>
</svg>