<svg xmlns="http://www.w3.org/2000/svg" viewBox="49 0 1273 936.9512195121952">
  <g transform="translate(0, 936.9512195121952) scale(1, -1)">
    <path fill="black" d="M1024 0 1020 41 1071 52 1093 76 1101 137Q1090 143 1067.0 156.0Q1044 169 1017.0 184.0Q990 199 963.5 214.0Q937 229 917.5 239.5Q898 250 891 253Q871 262 849.0 277.5Q827 293 811.5 313.5Q796 334 794 358Q793 379 805.5 413.5Q818 448 835.5 484.5Q853 521 869.0 549.0Q885 577 890 585Q850 583 816.0 582.0Q782 581 738 585Q722 587 691.0 591.0Q660 595 626.0 599.5Q592 604 566.0 608.0Q540 612 534 613Q534 607 533.5 580.5Q533 554 530.0 518.0Q527 482 520.0 447.0Q513 412 502.0 387.0Q491 362 474 359Q457 356 426.0 352.0Q395 348 357.0 344.0Q319 340 280.0 336.5Q241 333 208 330L188 340H167L154 325H125V241H101V331L80 340L70 350L59 400L71 413V430L101 437V481L97 482L64 501L56 512L49 558L56 571L64 572L65 591L101 597V696Q101 710 104.0 739.0Q107 768 123 788Q135 802 148.5 809.0Q162 816 172 820Q172 823 173.0 825.5Q174 828 175 831Q186 866 206.5 892.5Q227 919 253.5 930.5Q280 942 309 933Q335 925 357.0 901.5Q379 878 406 841L442 831L472 850Q491 862 522.0 864.0Q553 866 593 855Q618 847 651.5 832.0Q685 817 721.5 802.0Q758 787 791 780Q812 776 850.5 773.5Q889 771 929.5 769.0Q970 767 997 762Q1047 753 1069.0 724.0Q1091 695 1091 648Q1091 628 1077.0 593.5Q1063 559 1040.0 517.0Q1017 475 990.5 433.0Q964 391 940 355Q948 352 947.5 352.5Q947 353 955 348Q977 347 1011.5 342.0Q1046 337 1079.0 331.0Q1112 325 1130 320Q1156 313 1192.0 301.0Q1228 289 1253 280L1288 279L1322 245L1313 85H1269Q1265 108 1259.0 133.5Q1253 159 1248.0 178.0Q1243 197 1239 200Q1236 202 1218.5 205.5Q1201 209 1180.5 213.0Q1160 217 1145 218Q1153 211 1160.0 204.0Q1167 197 1171 193L1207 176L1219 145L1143 28L1093 0ZM214 747 279 809Q277 815 276.0 821.5Q275 828 276 834Q279 847 291.0 851.0Q303 855 313 852Q319 851 327.0 842.5Q335 834 339 828L352 810L390 833Q370 861 348.5 884.5Q327 908 299 916Q275 924 253.0 909.5Q231 895 215.0 871.5Q199 848 193 827Q186 803 190.5 782.0Q195 761 214 747ZM1042 18H1088L1130 42Q1133 46 1144.5 63.0Q1156 80 1170.5 102.5Q1185 125 1197 144L1189 165L1168 173Q1152 187 1132.5 204.0Q1113 221 1095.5 236.0Q1078 251 1068 258Q1047 274 1019.5 291.0Q992 308 964.0 323.5Q936 339 913 348Q939 386 966.5 430.5Q994 475 1017.5 518.0Q1041 561 1056.0 595.5Q1071 630 1071 648Q1071 686 1053.0 711.5Q1035 737 994 743Q953 749 900.5 752.0Q848 755 788 765Q765 769 734.5 780.0Q704 791 674.0 803.5Q644 816 621.0 826.5Q598 837 589 839Q564 846 532.5 847.5Q501 849 479 832L449 809L404 822L351 788L328 818Q318 830 310 834Q307 836 301.0 836.0Q295 836 293 828Q291 821 293.0 816.0Q295 811 299 805L228 737L304 672L310 690L369 694L368 741L443 737Q441 718 439.0 694.0Q437 670 437 659Q437 648 437.5 618.0Q438 588 439.0 548.0Q440 508 441 465Q442 444 425.0 428.5Q408 413 381 410Q374 410 345.5 407.0Q317 404 280.5 400.5Q244 397 212 394L164 418L136 427L88 417V409L78 396L86 361L92 356L121 342H146L157 355L184 356L206 347Q242 350 282.5 353.5Q323 357 361.5 361.0Q400 365 428.5 369.0Q457 373 469 377Q484 382 492.5 410.5Q501 439 506.0 478.5Q511 518 512.0 557.0Q513 596 513 621L516 633Q550 628 594.0 621.5Q638 615 679.0 609.5Q720 604 746 602Q779 599 823.5 599.5Q868 600 923 602Q905 572 885.0 537.0Q865 502 848.5 467.0Q832 432 822.0 403.5Q812 375 813 358Q815 335 829.5 318.0Q844 301 862.5 290.0Q881 279 893 272Q900 269 924.0 256.0Q948 243 981.5 224.0Q1015 205 1052.5 184.5Q1090 164 1123 146L1106 63L1075 37L1040 30ZM424 483Q422 537 421.0 585.5Q420 634 421 665Q422 677 422.5 693.5Q423 710 424 720L385 723L387 680L320 675L310 646L218 725L206 730Q189 741 179.0 756.0Q169 771 168 792Q161 788 152.0 781.5Q143 775 138 767Q131 756 128.0 738.0Q125 720 125 691V599L168 585L203 557Q242 544 287.5 528.5Q333 513 371.0 500.5Q409 488 424 483ZM268 714Q264 721 265.0 730.5Q266 740 267 742Q274 761 294 767Q292 751 290 744Q286 733 281.0 726.0Q276 719 268 714ZM379 426Q401 428 411.5 440.0Q422 452 424 464L201 540L159 573L131 583H125V571H129L156 548L158 509L175 511L192 499Q261 472 299.5 457.0Q338 442 354.5 435.5Q371 429 375.0 427.5Q379 426 379 426ZM76 570 101 571V582L75 581ZM106 494H129L144 504L140 544L121 559L63 558L68 520L75 513ZM216 411Q239 413 275.0 416.5Q311 420 338 422L190 481L167 495L155 497L136 478L125 479V442L136 445L174 435ZM1281 103H1297L1304 238L1282 259L1251 261Q1225 272 1187.5 285.5Q1150 299 1124 304Q1111 307 1086.5 311.5Q1062 316 1036.0 321.0Q1010 326 991 328Q1010 317 1036.0 301.0Q1062 285 1077 274Q1085 268 1097.5 257.5Q1110 247 1123 236Q1141 235 1169.0 231.0Q1197 227 1221.0 222.5Q1245 218 1250 214Q1254 212 1259.5 193.5Q1265 175 1271.0 150.5Q1277 126 1281 103Z" />
  </g>
</svg>