<svg xmlns="http://www.w3.org/2000/svg" viewBox="49 0 838 1035">
  <g transform="translate(0, 1035) scale(1, -1)">
    <path fill="black" d="M88 0V45L169 57L207 68L227 96Q235 128 244.5 164.5Q254 201 262.5 235.5Q271 270 277.5 295.5Q284 321 287 331Q298 375 319 396Q325 402 342.5 407.0Q360 412 370 412Q408 412 446.5 396.0Q485 380 517.5 356.0Q550 332 569 306L575 378L524 598Q520 593 503.5 575.5Q487 558 463.5 535.5Q440 513 415.5 493.5Q391 474 369.5 463.5Q348 453 335 460Q320 469 288.5 488.5Q257 508 221.0 532.0Q185 556 155 576L148 593L135 603L120 601L108 617L66 565L49 581L95 636L88 650L86 661L104 697L127 711L148 702L169 729L159 758L160 769L179 801L190 806L196 802L208 816L231 804L420 1035Q438 1020 463.0 998.5Q488 977 514.0 955.5Q540 934 561 916L567 929L569 942Q577 971 597.0 986.0Q617 1001 656 1001Q693 1001 723.5 989.0Q754 977 773.0 955.0Q792 933 792 902Q792 874 776.0 847.0Q760 820 732 783V745L762 739Q793 733 806.5 713.5Q820 694 824.0 672.0Q828 650 828 635Q828 610 817.0 566.5Q806 523 792 476Q808 489 828 489Q848 489 866.5 475.5Q885 462 885 441Q885 424 872.5 407.0Q860 390 843 389Q881 364 887 324L849 309Q847 326 826.5 352.0Q806 378 771 394H768Q764 378 760.5 363.5Q757 349 755 337V179H789L809 86Q814 67 807.5 51.0Q801 35 789 27Q782 22 767.5 15.5Q753 9 738.5 4.5Q724 0 715 0L701 39L730 54Q738 59 737.0 65.0Q736 71 732 78L717 112L506 29Q466 13 435.0 6.5Q404 0 388 0Q352 0 326.5 20.5Q301 41 301 78V86Q297 80 294.0 74.5Q291 69 289 66L280 0ZM548 889 553 899Q536 913 512.0 931.5Q488 950 464.0 969.0Q440 988 422 1002V1001L370 937Q417 929 461.0 917.5Q505 906 548 889ZM720 795Q740 823 756.5 850.5Q773 878 773 906Q773 932 753.0 949.0Q733 966 706.0 974.0Q679 982 657 982Q633 982 613.5 972.0Q594 962 586 939L665 895Q670 899 675.5 902.0Q681 905 688 905Q702 905 709.0 895.5Q716 886 716 875Q716 868 711.0 858.5Q706 849 701 843L687 825ZM591 386Q602 388 624.5 393.5Q647 399 674.5 405.5Q702 412 725.5 418.5Q749 425 761 428Q772 468 782.5 510.5Q793 553 800.5 587.0Q808 621 808 635Q808 646 803.0 666.0Q798 686 786.0 703.0Q774 720 751 723L714 728V779L665 820L688 851Q691 856 694.5 862.5Q698 869 698 873Q698 876 696.5 881.5Q695 887 687 887Q676 887 667 875L581 923L541 832L560 831L581 776L625 791L641 729L564 713Q525 705 503.5 691.5Q482 678 471 664L411 589Q381 551 358.0 541.0Q335 531 296 554L195 613L179 656L166 676L131 694L115 686L103 660V654L115 630L124 616L138 623L155 610L165 592Q196 571 232.5 546.0Q269 521 299.5 502.5Q330 484 341 479Q353 474 378.5 490.5Q404 507 434.5 534.0Q465 561 492.5 589.5Q520 618 536 638ZM384 582 462 679Q477 698 504.5 710.0Q532 722 565 730L619 743L613 769L572 754L548 817L517 819L541 871Q495 887 448.5 899.5Q402 912 356 921L250 791L269 760L276 725ZM605 866Q594 866 586.0 869.5Q578 873 571 878Q576 884 585.5 886.0Q595 888 597 888Q616 888 629 868Q622 867 616.0 866.5Q610 866 605 866ZM216 785 224 795 209 805 202 795ZM197 720H211L228 745L224 765L188 794L171 767V759L181 732ZM318 560Q336 553 349.0 556.5Q362 560 370 570L265 714L256 755L240 779L234 772L240 740L224 718L235 710L239 693Q265 648 280.0 622.0Q295 596 303.0 583.5Q311 571 314.0 566.5Q317 562 318 560ZM289 576 228 681 221 702 214 709H192L187 713L168 690L175 687L194 661L208 625Q224 616 247.5 602.0Q271 588 289 576ZM794 426Q804 422 815.5 419.5Q827 417 836.0 420.5Q845 424 845 437Q845 444 839.0 448.0Q833 452 828 453Q820 455 812.0 447.0Q804 439 794 426ZM107 19H263Q264 27 266.5 41.5Q269 56 270 66Q282 83 295.0 109.5Q308 136 319.0 163.0Q330 190 336 206Q347 235 354.0 262.0Q361 289 362 315L373 320Q388 316 406.5 298.0Q425 280 441.5 260.5Q458 241 465 230L555 293Q535 317 505.0 340.0Q475 363 440.5 378.0Q406 393 370 393Q363 393 349.0 387.0Q335 381 330 377Q320 370 314.5 355.5Q309 341 304 321Q301 312 294.5 287.0Q288 262 279.0 228.0Q270 194 260.5 157.0Q251 120 243 88L218 54L176 42L107 33ZM587 309 739 341Q742 358 750 389L590 350ZM398 86Q473 127 561.5 149.5Q650 172 737 178V322L579 287L364 135ZM322 127Q329 134 337.5 141.5Q346 149 358 156L449 219Q442 228 429.5 243.0Q417 258 403.5 272.0Q390 286 378 292Q377 266 370.5 243.0Q364 220 354 199Q350 189 341.0 169.0Q332 149 322 127ZM726 16Q740 21 757.0 29.0Q774 37 781 42Q789 49 792.0 61.5Q795 74 792 86L774 160Q676 159 579.5 135.5Q483 112 394 63L349 122Q335 115 327.0 102.5Q319 90 319 77Q319 51 340.5 35.5Q362 20 389 20Q406 20 439.0 28.5Q472 37 506 50L724 136L749 82Q755 69 753.5 58.5Q752 48 744 44L720 31Z" />
  </g>
</svg>