<svg xmlns="http://www.w3.org/2000/svg" viewBox="49 0 1188 624.2631578947369">
  <g transform="translate(0, 624.2631578947369) scale(1, -1)">
    <path fill="black" d="M74 0 49 13 86 84 122 111 166 124 273 240Q289 268 306.0 301.0Q323 334 335.5 360.5Q348 387 348 396L352 438L308 432L292 393L233 396Q231 390 228.5 383.5Q226 377 224 370L131 442L118 448Q68 477 86 538Q95 567 114.5 589.0Q134 611 160.5 620.0Q187 629 216 619Q233 614 247.5 603.5Q262 593 276 578L314 537L333 543Q335 544 347.5 553.5Q360 563 380.0 572.5Q400 582 422 582Q451 582 490.0 575.0Q529 568 564.0 559.0Q599 550 614 544L886 592V567L1237 599V431H1186L1172 497Q1167 524 1144 524Q1139 524 1131 522L886 465V428L1237 341V192H1186L1172 259Q1168 278 1154.5 284.5Q1141 291 1124 294L982 319L932 315L886 332V315L632 397L535 387L501 248L339 15L313 24L321 63L298 49L277 0L249 6L268 76L297 106L338 128L410 242L436 346L360 224L135 1L114 18L132 57L107 48ZM126 464 189 515Q187 520 186.0 525.5Q185 531 186 536Q189 547 201.0 551.0Q213 555 223 550Q228 548 237.5 539.5Q247 531 251 526L262 513L296 530L261 567Q251 578 238.5 587.0Q226 596 206 602Q183 609 162.5 598.0Q142 587 128.0 568.5Q114 550 109 533Q104 515 106.0 495.5Q108 476 126 464ZM1200 449H1216V580L886 547V485L1129 541Q1134 543 1138.0 543.0Q1142 543 1146 543Q1166 543 1175.5 531.5Q1185 520 1189 499ZM864 348V569L620 525L650 412ZM73 19 105 64 147 79 152 72 131 26 136 23 347 236 440 390 627 415 596 529Q576 535 542.0 542.5Q508 550 474.5 555.5Q441 561 423 561Q401 561 381.0 548.5Q361 536 350 524L312 518L261 491L236 519Q232 523 227.5 527.5Q223 532 219 533Q217 534 212.5 534.0Q208 534 206 529Q203 520 213 509L144 453L215 398Q217 402 218.5 405.0Q220 408 221 412L279 409L296 450L373 460L366 380L290 230Q267 206 251.5 189.0Q236 172 220.5 155.5Q205 139 181 114L127 97L95 75L66 21ZM184 434Q178 440 179.0 449.5Q180 459 181 461Q187 479 211 484Q209 469 207 461Q204 451 198.0 444.5Q192 438 184 434ZM1200 211H1216V330L886 410V350L936 333L985 335L1131 309Q1160 304 1172.5 291.0Q1185 278 1189 261ZM272 16 292 63 331 84 338 80 328 35 333 34 485 255 516 385 462 378 429 238Q412 212 402.0 196.0Q392 180 382.5 164.5Q373 149 355 122L306 96L279 70L265 17Z" />
  </g>
</svg>