<svg xmlns="http://www.w3.org/2000/svg" viewBox="49 0 736.48 1001">
  <g transform="translate(0, 1001) scale(1, -1)">
    <path fill="black" d="M285 0V52L352 65Q370 69 377.0 83.0Q384 97 387 113L426 255L422 305L439 351H423L549 560L403 626L388 482L282 296L256 302L258 340L238 324L224 272L196 273L205 346L229 381L266 408L309 489L136 313L114 321L124 359L102 347L78 299L49 306L72 375L102 404L153 419L245 522Q251 553 257.5 589.0Q264 625 270.5 653.5Q277 682 280 691Q286 705 301.0 720.5Q316 736 323 743L284 762L249 737L200 771Q191 762 180 754L139 864L131 875Q121 894 121 911Q121 935 138.5 955.5Q156 976 182.0 988.5Q208 1001 233 1001Q268 1001 295.5 977.0Q323 953 333 902L344 847L366 839Q372 841 379.0 842.5Q386 844 395 844Q409 844 426.5 841.0Q444 838 459 829Q474 820 499.0 800.5Q524 781 553.5 756.0Q583 731 610.5 707.0Q638 683 658.0 664.0Q678 645 684 637Q768 601 768 523Q768 507 760.5 485.0Q753 463 751 439Q749 417 749.0 399.0Q749 381 750 351Q761 308 771.0 247.0Q781 186 784.5 120.5Q788 55 779 0H613V52L680 65Q694 68 704.5 75.5Q715 83 715 94Q715 97 715.0 100.0Q715 103 714 106L654 315L649 351H545L434 0ZM325 851 315 902Q312 916 303.0 934.0Q294 952 278.5 965.5Q263 979 239 979Q213 979 191.0 968.0Q169 957 155.5 940.0Q142 923 142 905Q142 894 146 885L227 895Q228 904 232.5 911.5Q237 919 248 919Q264 919 273.5 906.0Q283 893 285 872L287 855ZM209 287H217L230 336L265 364L272 360L269 314H275L371 487L385 654L564 575L659 637Q640 654 609.5 680.5Q579 707 545.5 734.5Q512 762 485.5 783.0Q459 804 449 811Q439 818 425.5 820.5Q412 823 401 823Q380 823 368 819L333 833L274 837L269 874Q268 882 264.0 891.0Q260 900 252 900Q248 900 245.5 895.5Q243 891 243 886V878L155 866L187 782Q189 784 192.5 786.0Q196 788 199 790L247 757L283 783L351 745Q338 732 321.5 713.0Q305 694 297 680Q293 672 287.0 644.0Q281 616 275.5 581.5Q270 547 265 517L170 413L111 393L83 368L65 316L74 315L96 359L135 380L142 375L130 331L135 330L306 511L316 652L335 651L323 477L284 405L241 371L217 342ZM184 829Q178 829 178 831Q178 848 191.5 855.0Q205 862 209 862Q216 862 228 857Q216 841 206.0 835.0Q196 829 184 829ZM457 371H729Q728 387 728.0 403.5Q728 420 731 439Q734 459 741.5 482.5Q749 506 749 522Q749 559 732.5 580.0Q716 601 697.5 611.5Q679 622 673 624L570 555ZM632 21H762Q770 71 766.0 131.5Q762 192 752.0 250.5Q742 309 730 351H668L673 316L732 108Q734 104 734.0 100.0Q734 96 734 91Q734 72 718.0 62.0Q702 52 682 48L632 38ZM304 21H422L527 351H458L440 302L442 252L402 106Q397 78 384.0 64.5Q371 51 354 48L304 38Z" />
  </g>
</svg>