<svg xmlns="http://www.w3.org/2000/svg" viewBox="49 -1 735 1002">
  <g transform="translate(0, 1000) scale(1, -1)">
    <path fill="black" d="M351 -1 336 44 390 76Q414 88 414 105Q414 107 413.0 113.5Q412 120 409 124Q392 149 372.5 177.0Q353 205 338.5 227.5Q324 250 320 256Q310 276 305 299L205 0H49V48L123 59Q140 61 147.5 75.0Q155 89 159 104L194 259L199 302Q203 317 208.5 335.0Q214 353 218 358Q241 391 280.0 408.5Q319 426 353 438Q376 447 400.5 453.5Q425 460 446.0 468.5Q467 477 478 492L480 525L438 663L234 590L207 607L201 638L349 818L361 846L388 866L449 871L456 849L413 837L401 819L434 822L442 801L381 772Q371 758 352.0 733.0Q333 708 319 690L401 735Q426 759 475 770L512 779V816L476 813L469 870L444 877L508 958L512 968Q530 1001 568 1001Q601 1001 628.5 987.0Q656 973 672.5 951.5Q689 930 689 906Q689 876 669.5 854.0Q650 832 615 803L614 783L688 763Q709 757 717.5 741.0Q726 725 729 713L784 521L757 378L771 352V319L743 265L719 272L734 314L727 334L710 305L685 311L697 372L708 519L661 664L625 539L622 467Q622 464 624.5 449.5Q627 435 630.0 417.5Q633 400 635.5 387.0Q638 374 638 374Q638 354 627.0 332.5Q616 311 586 308Q569 307 535.5 305.0Q502 303 467.5 300.5Q433 298 412 295Q422 278 438.0 240.0Q454 202 470.5 151.5Q487 101 496 46ZM606 816Q629 836 651.5 858.0Q674 880 674 906Q674 931 654.0 948.5Q634 966 609.5 975.5Q585 985 571 985Q558 985 546.0 980.0Q534 975 526 962L581 909Q588 913 597 913Q608 913 614.0 905.0Q620 897 620 888Q620 881 614.0 873.0Q608 865 600 859L585 847ZM738 279 758 320 755 349 740 377 765 525 711 708Q709 719 703.0 731.0Q697 743 686 746L597 768V803L566 847L591 868Q605 879 605 889Q605 892 603.0 895.5Q601 899 593 899Q588 899 579 892L518 949L467 883L482 878L487 828L527 832V766L474 753Q459 750 440.0 742.0Q421 734 412 723L292 659L286 669L373 782L427 808L426 813L387 809L382 814L400 842L441 854L440 860L394 853L372 834L358 805Q341 784 316.0 753.0Q291 722 265.0 690.0Q239 658 219 633L221 617L240 607L452 685L499 527L496 482Q477 459 441.0 448.5Q405 438 359 423Q336 416 303.5 400.5Q271 385 246 362Q282 356 322.5 344.5Q363 333 400 313Q431 316 467.5 318.5Q504 321 536.5 323.5Q569 326 584 327Q604 329 611.5 344.0Q619 359 619 374Q619 374 616.5 386.5Q614 399 611.0 416.5Q608 434 605.5 448.0Q603 462 603 464L608 543L651 681H673L725 521L711 374L702 319L707 318L726 352H733L746 321L732 281ZM546 895Q527 896 517.5 900.5Q508 905 500 915Q506 918 514 918Q529 918 535.5 912.5Q542 907 546 895ZM66 20H195L299 333Q286 338 268.0 343.0Q250 348 234 349Q231 342 226.5 328.0Q222 314 218 299L212 257L176 98Q169 72 158.0 59.0Q147 46 131 44L66 35ZM361 23 475 61Q467 112 450.5 160.0Q434 208 417.5 244.0Q401 280 392 294Q364 314 318 327Q319 322 322.0 309.0Q325 296 329.0 283.0Q333 270 337 263Q340 259 354.0 237.0Q368 215 387.5 186.0Q407 157 424 131Q429 125 431.0 116.5Q433 108 433 103Q433 90 422.0 79.5Q411 69 397 61L356 38Z" />
  </g>
</svg>