<svg xmlns="http://www.w3.org/2000/svg" viewBox="36 0 764 1001">
  <g transform="translate(0, 1001) scale(1, -1)">
    <path fill="black" d="M109 0V48L182 59Q199 61 207.0 75.0Q215 89 219 104L210 259L215 302Q219 317 224.5 335.0Q230 353 234 358Q256 390 294.0 408.5Q332 427 373.0 439.0Q414 451 447.5 462.5Q481 474 494 492L496 525L454 663L330 537L154 563L89 542L81 563L107 584L87 589L48 567L36 588L85 627L118 630L146 623L302 608L390 713Q410 736 437.5 750.0Q465 764 491 770L528 779V816L492 813L485 870L460 877L524 958L528 968Q546 1001 584 1001Q617 1001 644.5 987.0Q672 973 688.5 951.5Q705 930 705 906Q705 876 685.5 854.0Q666 832 631 803L630 783L704 763Q725 757 733.0 741.0Q741 725 745 713L800 521L773 378L787 352V319L759 265L735 272L750 314L743 334L726 305L701 311L713 372L724 519L677 664L641 539L638 467Q638 464 640.5 449.5Q643 435 646.0 417.5Q649 400 651.5 387.0Q654 374 654 374Q654 354 643.0 332.5Q632 311 602 308Q590 307 565.5 305.0Q541 303 512.0 301.0Q483 299 456.5 296.5Q430 294 414 292L455 0H276V48L345 59Q362 61 364.0 74.0Q366 87 366 100Q358 120 347.5 146.5Q337 173 327.0 198.5Q317 224 310 241L265 0ZM622 816Q645 836 667.5 858.0Q690 880 690 906Q690 931 670.0 948.5Q650 966 625.5 975.5Q601 985 587 985Q574 985 562.0 980.0Q550 975 542 962L597 909Q604 913 613 913Q624 913 630.0 905.0Q636 897 636 888Q636 881 630.0 873.0Q624 865 616 859L601 847ZM754 279 774 320 771 349 756 377 782 520 727 708Q724 719 718.5 731.5Q713 744 702 746L613 768V803L582 847L607 868Q621 879 621 889Q621 892 619.0 895.5Q617 899 609 899Q604 899 595 892L534 949L483 883L498 878L503 828L543 832V766L490 753Q475 749 448.5 737.5Q422 726 405 706L308 592L147 608L118 614L89 613L51 586L54 581L92 601L124 593L125 586L95 562L97 557L154 578L323 554L449 679L468 674L514 527L512 482Q496 463 466.5 452.0Q437 441 400.5 431.0Q364 421 328.0 405.5Q292 390 262 362Q298 356 338.5 344.5Q379 333 416 313Q447 316 484.0 318.5Q521 321 553.0 323.5Q585 326 600 327Q620 329 627.5 344.0Q635 359 635 374Q635 374 632.5 387.0Q630 400 627.0 417.0Q624 434 621.5 448.0Q619 462 619 464L624 543L667 681H689L741 521L727 374L718 319L723 318L742 352H749L762 321L748 281ZM562 895Q543 896 533.5 900.5Q524 905 516 915Q522 918 530 918Q545 918 551.5 912.5Q558 907 562 895ZM126 20H253L297 264Q295 307 307 334Q294 339 279.5 343.5Q265 348 250 349Q247 342 242.5 328.0Q238 314 234 299L228 257L236 98Q229 72 218.0 59.0Q207 46 191 44L126 35ZM293 20H435L394 301Q381 309 361.0 316.5Q341 324 324 328Q322 323 318.0 303.5Q314 284 316 270L384 98Q384 79 377.0 62.5Q370 46 354 44L293 35Z" />
  </g>
</svg>