<svg xmlns="http://www.w3.org/2000/svg" viewBox="49 -1 671 1005">
  <g transform="translate(0, 1003) scale(1, -1)">
    <path fill="black" d="M324 -1 311 40 361 69Q370 74 376.0 81.0Q382 88 382 95Q382 97 381.0 103.0Q380 109 377 113Q365 132 346.5 157.5Q328 183 313.5 205.0Q299 227 296 233Q292 242 288.5 252.0Q285 262 283 271L192 0H49V43L116 53Q131 55 138.5 68.5Q146 82 149 95L181 235L185 274Q189 288 194.0 304.5Q199 321 202 325Q222 356 258.5 372.0Q295 388 326 399Q358 410 391.5 418.5Q425 427 441 447L443 477L404 601L219 535L194 550L188 580L323 744L334 769L358 787L414 792L420 771L381 761L371 745L400 748L408 729L353 702Q343 689 326.0 666.5Q309 644 296 627L371 668Q393 690 437 700L472 708V742L438 739L432 791L410 797L458 858V910H614Q601 925 588.0 942.5Q575 960 575 976Q575 987 584.0 995.5Q593 1004 607 1004Q621 1004 630.0 997.5Q639 991 639 980Q639 973 633.0 966.5Q627 960 622 957L614 967Q617 969 620.5 972.0Q624 975 624 978Q624 989 607 989Q592 989 592 974Q592 962 605.0 944.5Q618 927 634 910L683 1001H712L568 730V711L633 693Q652 688 659.5 673.5Q667 659 670 648L720 474L696 344L709 320V290L683 240L660 248L674 286L667 304L651 278L628 283L639 338L650 472L607 604L575 490L571 425Q572 422 574.5 409.0Q577 396 579.5 380.0Q582 364 584.0 352.0Q586 340 586 339Q586 321 576.0 301.5Q566 282 538 280Q523 279 492.0 277.0Q461 275 430.0 273.0Q399 271 380 268Q389 252 404.0 217.5Q419 183 434.0 137.5Q449 92 457 42ZM558 742 639 895H473V862H567V847H562V832Q576 832 576 817Q576 801 568.0 784.5Q560 768 552 754ZM677 253 695 292 693 317 679 343 701 478 652 644Q649 653 644.5 664.5Q640 676 629 678L547 698V728L534 754Q542 767 551.0 784.5Q560 802 560 812Q560 819 555.5 821.0Q551 823 546 822V847H466L431 802L444 798L449 753L485 756V696L437 685Q423 682 406.0 675.0Q389 668 380 657L271 599L266 608L345 710L395 734L393 739L357 735L354 741L370 766L407 777L406 782L364 775L344 758L332 732Q317 713 294.0 684.5Q271 656 247.0 627.0Q223 598 205 576L207 561L225 552L418 623L461 479L458 438Q440 417 407.5 408.0Q375 399 334 385Q312 378 283.0 364.0Q254 350 231 329Q264 324 300.0 313.5Q336 303 370 284Q398 286 431.0 288.5Q464 291 493.0 293.5Q522 296 536 297Q556 299 562.0 315.5Q568 332 567 339Q567 342 565.0 354.0Q563 366 560.0 381.0Q557 396 555.0 408.0Q553 420 553 422L558 493L596 619H618L666 473L652 339L644 291L648 289L667 320H673L684 292L672 255ZM502 813Q485 814 476.5 818.5Q468 823 461 832Q466 835 473 835Q487 835 493.0 829.5Q499 824 502 813ZM66 18H183L278 303Q266 308 249.5 312.0Q233 316 219 317Q216 310 211.5 298.0Q207 286 204 272L198 233L166 89Q154 44 125 40L66 31ZM334 21 438 55Q430 101 415.0 145.0Q400 189 385.0 222.0Q370 255 362 268Q351 276 333.5 284.0Q316 292 295 297Q297 290 302.0 268.5Q307 247 312 239Q315 235 326.5 217.0Q338 199 352.5 177.0Q367 155 378.5 138.0Q390 121 392 119Q396 113 397.5 105.5Q399 98 399 94Q399 82 389.5 72.5Q380 63 367 55L330 34Z" />
  </g>
</svg>