<svg xmlns="http://www.w3.org/2000/svg" viewBox="50 -1 717 1004">
  <g transform="translate(0, 1002) scale(1, -1)">
    <path fill="black" d="M90 -1V699H88L64 718L52 744L50 754L65 787L75 793L81 790L89 801L90 800V880H124V786L135 781L154 755L163 724L255 648Q269 666 287.0 686.5Q305 707 322.0 724.0Q339 741 350 748Q376 764 403 767L384 797H347L328 840Q323 839 316.5 839.0Q310 839 305 837L324 933V944Q325 975 347.0 989.0Q369 1003 400 1003Q441 1003 467.0 981.0Q493 959 493 921Q493 901 484 875L467 832L480 813Q503 814 531.5 810.5Q560 807 588 784L697 694L733 533L755 516L767 489L764 435L741 432L738 472L725 485L722 455L703 454L689 507L647 644L570 700Q579 669 589.0 633.0Q599 597 606.5 569.5Q614 542 615 535Q630 514 637.0 499.5Q644 485 646.0 471.0Q648 457 648 435Q648 421 642.0 403.0Q636 385 634 365Q633 355 632.0 347.0Q631 339 631 331Q631 323 632.0 313.5Q633 304 633 292Q639 268 646.0 231.5Q653 195 657.5 153.0Q662 111 662 71Q662 53 661.0 35.0Q660 17 657 0H514V43L569 54Q581 57 589.5 62.5Q598 68 598 78Q598 84 597 88L547 262L543 292H463L371 0H230V43L296 54Q311 57 317.0 69.0Q323 81 325 94L358 211L354 253L368 292H357L481 539L390 677L277 566L254 565L124 679V0ZM453 842 468 882Q470 889 472.0 898.0Q474 907 474 917Q474 946 454.0 965.0Q434 984 399 984Q377 984 361.0 974.5Q345 965 341 945L402 916Q409 927 419 927Q429 927 435.0 918.0Q441 909 441 898Q441 893 439.0 887.0Q437 881 434 874L429 861ZM749 444H754L756 484L743 508L720 525L682 685L572 774Q559 785 541.0 790.0Q523 795 484 795Q474 795 468 801L450 827L410 855L422 883Q426 893 426 900Q426 910 419 910Q414 910 411.5 905.5Q409 901 407 897L339 927L325 854Q328 855 331.0 854.5Q334 854 336 855L355 811L393 813L427 756Q409 754 391.0 749.5Q373 745 358 734Q346 726 328.0 707.5Q310 689 291.0 667.5Q272 646 257 628L156 710L141 750L128 769L91 791L88 784L95 779L121 761L130 736L124 727V701L257 584H271L393 704L500 543L597 546L548 720L560 726L659 658L702 511L711 464H715L718 500L725 502L745 482ZM361 883Q354 883 346.5 886.0Q339 889 339 892Q339 899 349.5 901.5Q360 904 362 904Q373 904 377.5 900.0Q382 896 386 889Q371 883 361 883ZM90 715H102L116 740L111 757L76 778L63 753L64 747L76 723ZM387 309H613V326Q613 334 613.5 344.0Q614 354 615 365Q617 382 623.0 401.0Q629 420 629 434Q629 460 624.0 481.5Q619 503 598 529L495 527ZM246 18H358L446 292H388L373 251V209L341 88Q337 64 326.0 53.5Q315 43 301 40L246 31ZM532 18H641Q644 45 644 76Q644 113 639.0 153.5Q634 194 627.5 231.0Q621 268 614 292H562L567 263L616 89Q617 85 617.0 82.0Q617 79 617 76Q617 60 604.0 51.5Q591 43 574 40L532 31Z" />
  </g>
</svg>