<svg xmlns="http://www.w3.org/2000/svg" viewBox="49 0 753.8888888888889 1001">
  <g transform="translate(0, 1001) scale(1, -1)">
    <path fill="black" d="M83 0 49 5 129 575 113 584 106 591 100 627 104 638 112 639 109 653 141 658 189 992 223 987 176 656 190 652 218 639H323L385 733Q396 751 418.0 765.5Q440 780 467 780H487V801L450 804L442 855Q437 856 430.5 856.5Q424 857 418 858L450 927Q450 931 449.5 937.0Q449 943 449 947Q448 967 465.5 984.0Q483 1001 529 1001Q575 1001 599.0 976.0Q623 951 623 917Q623 904 618.0 888.0Q613 872 602 855L576 816V787H599Q628 787 642.0 781.0Q656 775 663.5 765.0Q671 755 677 743L740 595L732 467L745 443V424Q778 416 792.0 392.0Q806 368 802 346Q798 330 787.0 319.5Q776 309 755 313Q736 316 729.0 331.0Q722 346 725 361Q727 372 732.0 378.0Q737 384 738 389Q738 394 736 396L721 365L699 372L694 379Q688 373 683.0 365.5Q678 358 676 354Q672 370 664.5 381.0Q657 392 649 397Q650 399 654.5 403.5Q659 408 669 414L674 462L681 565L628 667L610 597L607 562Q630 541 642.5 519.0Q655 497 655 463Q655 449 649.0 431.0Q643 413 641 393Q638 368 638 342Q638 331 638.5 318.5Q639 306 640 292Q646 268 652.5 231.5Q659 195 663.5 153.0Q668 111 668 71Q668 53 667.0 35.0Q666 17 664 0H520V43L575 54Q587 57 595.5 62.5Q604 68 604 78V88L554 262L549 292H489L396 0H256V43L319 54Q334 57 339.0 69.0Q344 81 348 94L380 211L377 253L391 292H320L476 553L471 596L445 666L334 556L182 574L170 569H163ZM566 833 588 866Q593 874 598.0 887.5Q603 901 603 914Q603 939 585.0 960.5Q567 982 529 982Q495 982 481.5 971.0Q468 960 468 946Q468 941 468.5 937.5Q469 934 469 932H534Q536 934 539.0 935.5Q542 937 549 937Q562 937 569.0 927.5Q576 918 576 907Q576 889 564 875L548 850ZM715 378 733 413 731 440 715 465 724 589 660 737Q653 748 644.0 757.5Q635 767 606 767H576Q560 767 560 788V818L529 847L547 877Q550 882 554.5 891.0Q559 900 559 904Q559 909 556.5 914.5Q554 920 545 920Q539 920 537.0 918.5Q535 917 533 915H461L442 870Q445 870 449.0 869.0Q453 868 455 868L462 817L503 814V763H466Q436 763 421.5 748.0Q407 733 399 720L333 624H219L183 642L163 649L122 646L123 639H161L183 623L186 591L331 575L441 687L456 684L489 594L492 558L590 568L593 603L616 689L633 693L697 569L685 420L694 424L705 443L711 442L718 414Q714 412 707.5 405.0Q701 398 699 393L706 381ZM486 889Q480 889 472.0 891.0Q464 893 464 898Q464 903 470.5 906.0Q477 909 484 909Q493 909 499.0 905.5Q505 902 510 897Q505 894 499.5 891.5Q494 889 486 889ZM146 583H163L172 590L169 619L155 629L114 626L119 602L125 593ZM350 309H620Q619 317 619.0 325.0Q619 333 619 341Q619 368 622 393Q624 410 630.0 429.0Q636 448 636 462Q636 488 624.5 508.0Q613 528 592 551L490 541ZM679 382Q686 392 690.5 399.5Q695 407 708 415Q708 415 708.0 415.5Q708 416 707 417Q694 416 685.5 410.0Q677 404 668 396Q671 394 674.0 391.0Q677 388 679 382ZM758 327Q771 325 778.0 331.5Q785 338 788 350Q792 371 779.0 388.0Q766 405 744 412L743 410Q755 402 752 387Q751 380 746.5 374.5Q742 369 740 358Q738 348 741.5 338.5Q745 329 758 327ZM539 18H647Q649 32 650.0 46.5Q651 61 651 76Q651 113 646.0 153.5Q641 194 634.0 231.0Q627 268 620 292H569L573 263L622 89Q624 85 624.0 82.0Q624 79 624 76Q624 60 610.5 51.5Q597 43 580 40L539 31ZM272 18H384L472 292H412L400 251V209L367 88Q354 43 327 40L272 31Z" />
  </g>
</svg>