<svg xmlns="http://www.w3.org/2000/svg" viewBox="49 0 811 1001">
  <g transform="translate(0, 1001) scale(1, -1)">
    <path fill="black" d="M49 0V27H102L188 652L177 657L163 670L158 679L161 715L168 724L175 723L177 739L199 734L234 993L268 988L232 728L241 727L255 716L276 691L384 647L440 733Q452 751 474.0 765.5Q496 780 522 780H542V801L505 804L498 855Q493 856 486.5 856.5Q480 857 474 858L506 927Q504 937 504 947Q504 967 521.5 984.0Q539 1001 585 1001Q631 1001 654.5 976.0Q678 951 678 917Q678 904 673.5 888.0Q669 872 658 855L632 816V787H655Q697 787 710.0 773.5Q723 760 732 743L796 632V466L828 445L833 417H860V396H834V377L824 366L772 371L765 380V384L754 396H697Q696 395 696 393Q693 369 693.0 345.5Q693 322 695 292Q701 270 708.0 236.0Q715 202 719.5 161.5Q724 121 724 81Q724 53 721 27H844V0ZM622 833 644 866Q649 874 653.5 887.5Q658 901 658 914Q658 939 640.0 960.5Q622 982 585 982Q551 982 537.0 971.0Q523 960 523 946Q523 936 525 932H590Q592 934 595.0 935.5Q598 937 605 937Q618 937 624.5 927.5Q631 918 631 907Q631 890 620 875L604 850ZM818 377 823 382 822 414 815 440 779 461V626L715 737Q709 748 700.0 757.5Q691 767 662 767H632Q615 767 615 788V818L584 847L603 877Q606 882 610.0 891.0Q614 900 614 904Q614 909 612.0 914.5Q610 920 601 920Q594 920 592.0 918.5Q590 917 589 915H517L498 870Q500 870 504.0 869.0Q508 868 511 868L518 817L559 814V763H522Q492 763 478.0 748.0Q464 733 455 720L391 626L273 675L245 708L225 720L187 727L186 719L222 709L240 689L235 659L387 577L497 687L511 684L544 594L548 558L646 568L649 603L672 691L687 694L755 595L761 452L764 417H771L773 426H780L784 417L775 389L782 380ZM542 889Q535 889 527.5 891.0Q520 893 520 898Q520 903 526.5 906.0Q533 909 540 909Q555 909 565 897Q561 894 555.5 891.5Q550 889 542 889ZM213 657 221 661 225 684 214 699 175 710 173 686 176 675 182 670ZM701 417H750L746 450L737 594L684 667L666 597L663 562Q686 541 698.0 519.0Q710 497 710 463Q710 453 707.0 441.5Q704 430 701 417ZM137 27H312V53L375 64Q390 66 394.5 78.5Q399 91 403 104L436 211L433 253L446 292L480 396H443Q436 382 422.5 371.0Q409 360 397 360Q385 360 371.5 371.0Q358 382 351 396H329V417H351Q357 432 370.5 443.0Q384 454 397 454Q409 454 423.0 443.0Q437 432 443 417H487L531 553L526 596L501 666L390 556L227 643L220 642ZM505 417H682Q686 429 688.5 441.0Q691 453 691 462Q691 488 680.0 508.0Q669 528 648 551L546 541ZM397 379Q402 379 412.0 387.0Q422 395 427 407Q422 419 412.0 427.0Q402 435 397 435Q393 435 382.5 427.0Q372 419 367 407Q372 395 382.5 387.0Q393 379 397 379ZM473 309H675Q674 328 674.5 350.0Q675 372 677 393Q677 395 678 396H500ZM594 28H703Q705 42 706.0 56.0Q707 70 707 85Q707 123 702.0 162.0Q697 201 690.0 235.5Q683 270 676 292H625L629 263L678 99Q679 95 679.0 92.0Q679 89 679 85Q679 69 666.0 61.0Q653 53 636 49L594 41ZM458 27H576V53L631 64Q643 66 651.5 72.0Q660 78 660 87Q660 94 659 98L609 262L605 292H545ZM328 28H440L527 292H468L453 251L456 209L423 98Q417 74 407.0 62.5Q397 51 383 49L328 41Z" />
  </g>
</svg>