<svg xmlns="http://www.w3.org/2000/svg" viewBox="48 0 730 1024">
  <g transform="translate(0, 1024) scale(1, -1)">
    <path fill="black" d="M82 0V401L48 466H82V651L72 654L57 665L51 673L49 709L54 719H62L61 735H82V994H116V735H126L142 723L167 701L302 647L358 733Q370 751 392.0 765.5Q414 780 440 780H461V801L439 803L387 769L369 809L421 822L416 855Q411 856 404.5 856.5Q398 857 393 858L418 915H403V931Q398 935 391.0 944.0Q384 953 384 965Q384 979 393.5 986.0Q403 993 403 996Q403 1000 396 1000Q393 1000 386.0 1000.5Q379 1001 379 1007Q379 1014 386.0 1019.0Q393 1024 409 1024Q425 1024 434.5 1017.0Q444 1010 444 1001Q444 993 441 985Q451 992 466.5 996.5Q482 1001 503 1001Q536 1001 557.5 987.5Q579 974 589 953Q592 955 596.0 956.0Q600 957 604 957Q622 957 629.0 947.0Q636 937 636 926Q636 910 626.0 902.0Q616 894 605 888L638 864L608 829L583 865L550 816V787H573Q615 787 628.0 773.5Q641 760 650 743L714 632V466L746 445L750 417H778V396H752V377L742 366L690 371L683 380V384L672 396H615Q614 395 614 393Q611 369 611.0 345.5Q611 322 613 292Q619 268 626.0 231.5Q633 195 637.5 153.0Q642 111 642 71Q642 53 641.0 35.0Q640 17 637 0H494V43L549 54Q561 57 569.5 62.5Q578 68 578 78Q578 84 577 88L527 262L523 292H463L370 0H230V43L292 54Q308 57 312.5 69.0Q317 81 321 94L354 211L351 253L364 292L398 396H361Q354 382 340.5 371.0Q327 360 315 360Q303 360 289.5 371.0Q276 382 269 396H247V417H269Q275 432 288.5 443.0Q302 454 315 454Q327 454 341.0 443.0Q355 432 361 417H405L449 553L444 596L419 666L308 556L124 646L116 645V466H151L116 399V0ZM442 935H573Q567 954 549.5 968.0Q532 982 503 982Q469 982 455.5 971.0Q442 960 442 946ZM736 377 741 382 740 414 733 440 697 461V626L633 737Q627 748 618.0 757.5Q609 767 580 767H550Q534 767 534 788V818L503 847L521 877Q524 882 528.5 891.0Q533 900 533 904Q533 911 530 915H436L416 870Q419 870 423.0 869.0Q427 868 429 868L437 817L478 814V763H440Q410 763 395.5 747.5Q381 732 373 720L309 626L166 685L133 714L112 723L72 725L73 717L110 711L131 695L130 664L305 577L415 687L429 684L462 594L466 558L564 568L567 603L590 691L604 694L673 595L679 452L682 417H689L691 426H698L702 417L693 389L700 380ZM541 833 562 866Q567 874 572.0 887.5Q577 901 577 914V915H548Q549 913 549.5 911.0Q550 909 550 907Q550 890 539 875L522 850ZM460 889Q454 889 446.0 891.0Q438 893 438 898Q438 903 444.5 906.0Q451 909 458 909Q467 909 473.0 905.5Q479 902 484 897Q480 894 474.0 891.5Q468 889 460 889ZM109 659 116 664V687L104 701L63 707L64 682L69 672L76 668ZM619 417H667L664 450L655 594L602 667L584 597L581 562Q604 541 616.0 519.0Q628 497 628 463Q628 453 625.0 441.5Q622 430 619 417ZM423 417H600Q603 429 606.0 441.0Q609 453 609 462Q609 488 598.0 508.0Q587 528 566 551L464 541ZM315 379Q320 379 330.0 387.0Q340 395 345 407Q340 419 330.0 427.0Q320 435 315 435Q311 435 300.5 427.0Q290 419 285 407Q290 395 300.5 387.0Q311 379 315 379ZM391 309H593Q592 328 592.5 350.0Q593 372 595 393Q595 395 596 396H417ZM512 18H621Q623 32 624.0 46.5Q625 61 625 76Q625 113 620.0 153.5Q615 194 608.0 231.0Q601 268 594 292H542L547 263L596 89Q597 85 597.0 82.0Q597 79 597 76Q597 60 584.0 51.5Q571 43 554 40L512 31ZM246 18H358L445 292H386L371 251L374 209L341 88Q329 43 301 40L246 31Z" />
  </g>
</svg>