<svg xmlns="http://www.w3.org/2000/svg" viewBox="49 0 624 1001">
  <g transform="translate(0, 1001) scale(1, -1)">
    <path fill="black" d="M241 0V43L307 54Q322 57 328.0 69.0Q334 81 336 94L369 211L365 253L379 292H368L491 536L424 646L343 515L161 493L147 500H132L123 490H119L125 428L107 427L101 489H99L71 501L63 508L56 543L64 552V564L93 570L91 598L83 599L60 614L54 621L49 653L54 663L60 664V678L83 683L73 783Q72 797 72.5 817.5Q73 838 81 851Q88 862 97.5 868.5Q107 875 116 877L118 857Q108 854 103.0 848.5Q98 843 95 836Q91 828 90.5 814.5Q90 801 91 781L100 684H103L133 675L158 654L311 601L375 729Q386 752 401.5 762.0Q417 772 436 777V801L388 804L380 855Q375 856 368.5 856.5Q362 857 356 858L388 927Q388 931 387.5 937.0Q387 943 387 947Q386 967 403.5 984.0Q421 1001 467 1001Q513 1001 537.0 976.0Q561 951 561 917Q561 890 540 855L524 827V791Q557 787 585.0 761.5Q613 736 617 686Q622 635 622.0 600.0Q622 565 623 555Q645 523 652.0 495.5Q659 468 659 435Q659 421 653.0 403.0Q647 385 645 365Q644 355 643.0 347.0Q642 339 642 331Q642 323 643.0 313.5Q644 304 644 292Q650 268 657.0 231.5Q664 195 668.5 153.0Q673 111 673 71Q673 53 671.5 35.0Q670 17 668 0H524V43L580 54Q592 57 600.5 62.5Q609 68 609 78Q609 84 608 88L558 262L554 292H474L381 0ZM506 833 527 866Q532 874 537.0 887.5Q542 901 542 914Q542 939 524.0 960.5Q506 982 469 982Q435 982 421.0 971.0Q407 960 407 946Q407 936 409 932H474Q476 934 479.0 935.5Q482 937 489 937Q501 937 508.0 927.5Q515 918 515 907Q515 890 504 875L487 850ZM100 502H117L125 513L144 514L159 507L334 528L418 671H430L511 546L604 566Q602 601 601.0 620.5Q600 640 599.5 654.0Q599 668 597 684Q594 720 578.0 740.0Q562 760 542.5 768.0Q523 776 509 776V810L467 847L485 877Q488 882 492.5 891.0Q497 900 497 904Q497 909 494.5 914.5Q492 920 483 920Q477 920 475.0 918.5Q473 917 471 915H399L380 870Q383 870 387.0 869.0Q391 868 393 868L400 817L452 814V765Q432 764 414.5 751.0Q397 738 389 723L304 551L164 536L129 556L110 562L76 555V549L69 540L75 516L80 510ZM424 889Q418 889 410.0 891.0Q402 893 402 898Q402 903 408.5 906.0Q415 909 422 909Q431 909 437.0 905.5Q443 902 448 897Q443 894 437.5 891.5Q432 889 424 889ZM265 563 292 564 303 588 156 641 126 664 106 672H85L68 670V663H103L124 646L125 623L137 624L149 615ZM89 608H105L115 616L113 644L100 653H59L63 627L67 622ZM166 550 241 559 148 600 134 610 122 608 108 598 111 574 137 567ZM398 309H624V326Q624 334 624.5 344.0Q625 354 626 365Q628 382 634.0 401.0Q640 420 640 434Q640 460 633.5 491.5Q627 523 606 549L506 530ZM543 18H651Q653 32 654.0 46.5Q655 61 655 76Q655 113 650.0 153.5Q645 194 638.5 231.0Q632 268 625 292H573L578 263L626 89Q628 85 628.0 82.0Q628 79 628 76Q628 60 614.5 51.5Q601 43 584 40L543 31ZM257 18H369L457 292H398L384 251V209L352 88Q348 64 337.0 53.5Q326 43 312 40L257 31Z" />
  </g>
</svg>