<svg xmlns="http://www.w3.org/2000/svg" viewBox="49 0 775 1001">
  <g transform="translate(0, 1001) scale(1, -1)">
    <path fill="black" d="M304 0V43L370 54Q385 57 390.5 69.0Q396 81 398 94L431 211L428 253L441 292H431L555 539L468 667L324 570L155 594L141 602L127 598L161 475L138 470L103 595H93L65 607L58 616L50 650L58 673L79 678L63 734Q62 739 58.5 752.5Q55 766 52.0 781.5Q49 797 49 807Q49 823 55.5 841.0Q62 859 78.5 871.5Q95 884 125 884Q144 884 156.5 877.5Q169 871 173 866L161 846Q158 850 148.5 855.5Q139 861 123 861Q95 861 85.0 843.0Q75 825 75 808Q75 801 77.5 786.0Q80 771 83.0 757.5Q86 744 87 741L103 684L105 685L131 678L160 661L295 642L424 748Q434 756 445.5 762.0Q457 768 467 770L449 801L407 804L399 855L376 858L408 927Q406 937 406 947Q406 967 423.5 984.0Q441 1001 487 1001Q533 1001 556.5 976.0Q580 951 580 917Q580 888 560 855L536 823L544 810Q567 810 600.5 808.5Q634 807 661 784L774 664L791 500L812 483L824 456L820 401L798 399L795 439L783 450L780 421H760L747 474L725 613L643 700L682 558Q704 526 713.0 497.0Q722 468 722 435Q722 421 716.0 403.0Q710 385 708 365Q705 346 705 331Q705 323 705.5 312.5Q706 302 707 292Q713 268 719.5 231.5Q726 195 730.5 153.0Q735 111 735 71Q735 53 734.0 35.0Q733 17 730 0H587V43L642 54Q654 57 662.5 62.5Q671 68 671 78Q671 84 670 88L621 262L616 292H537L444 0ZM526 833 547 866Q552 874 557.0 887.5Q562 901 562 914Q562 939 544.0 960.5Q526 982 488 982Q454 982 440.5 971.0Q427 960 427 946Q427 941 427.5 937.5Q428 934 428 932H493Q495 934 498.0 935.5Q501 937 508 937Q521 937 528.0 927.5Q535 918 535 907Q535 889 523 875L513 853ZM806 412H811L813 452L800 475L777 493L759 654L646 774Q632 785 602.5 788.5Q573 792 535 792L494 852L505 877Q508 882 512.0 891.0Q516 900 516 904Q516 909 514.0 914.5Q512 920 503 920Q496 920 494.0 918.5Q492 917 491 915H419L398 870L413 868L420 817L461 814L490 760Q459 754 432 734L302 624L158 644L122 662L103 667L71 661L65 647L71 624L76 619L94 611H110L138 617L153 610L323 589L474 694L570 548L665 565L622 720L639 727L740 625L759 479L768 431L772 432L775 467L782 469L802 449ZM444 889Q437 889 429.5 891.0Q422 893 422 898Q422 903 428.0 906.0Q434 909 441 909Q450 909 456.0 905.5Q462 902 467 897Q463 894 457.5 891.5Q452 889 444 889ZM460 309H687Q686 313 686.0 317.5Q686 322 686 326Q686 334 686.5 344.0Q687 354 688 365Q690 382 696.5 401.0Q703 420 703 434Q703 460 695.5 491.5Q688 523 667 548L569 531ZM319 18H432L519 292H461L446 251V209L415 88Q411 64 400.0 53.5Q389 43 375 40L319 31ZM605 18H714Q716 32 717.0 46.5Q718 61 718 76Q718 113 713.0 153.5Q708 194 701.0 231.0Q694 268 687 292H636L640 263L689 89Q690 85 690.0 82.0Q690 79 690 76Q690 60 677.0 51.5Q664 43 647 40L605 31Z" />
  </g>
</svg>