<svg xmlns="http://www.w3.org/2000/svg" viewBox="49 0 758 1001">
  <g transform="translate(0, 1001) scale(1, -1)">
    <path fill="black" d="M287 0V43L353 54Q368 57 373.5 69.0Q379 81 382 94L415 211L411 253L425 292H414L538 528L485 661L341 628L168 668L105 672L75 686L49 714L66 734L92 713L118 707H145V710L131 716H104V745H146L188 721L338 706L433 743Q439 750 455.0 757.0Q471 764 488.5 770.0Q506 776 514 777V801L466 804L458 855Q454 856 447.5 856.5Q441 857 435 858L467 927Q465 937 465 947Q465 967 482.5 984.0Q500 1001 546 1001Q592 1001 615.5 976.0Q639 951 639 917Q639 888 619 855L603 827V793Q626 793 656.5 787.0Q687 781 706 751L758 653L774 489L795 473L807 445L804 389H782L778 428L766 439L763 411H743L729 463L707 603L661 689L665 547Q688 515 696.5 486.0Q705 457 705 424Q705 410 699.0 397.5Q693 385 691 365Q688 346 688 331Q688 323 688.5 312.5Q689 302 690 292Q696 268 703.0 231.5Q710 195 714.5 153.0Q719 111 719 71Q719 53 717.5 35.0Q716 17 714 0H570V43L625 54Q638 57 646.5 62.5Q655 68 655 78Q655 84 654 88L604 262L600 292H520L427 0ZM584 833 606 866Q611 874 616.0 887.5Q621 901 621 914Q621 939 603.0 960.5Q585 982 547 982Q513 982 499.5 971.0Q486 960 486 946Q486 941 486.5 937.5Q487 934 487 932H552Q554 934 557.0 935.5Q560 937 567 937Q580 937 587.0 927.5Q594 918 594 907Q594 890 583 875L566 850ZM790 401H794L797 441L784 464L761 482L743 644L688 745Q678 760 659.5 767.5Q641 775 603 775H588V810L545 847L564 877Q567 882 571.0 891.0Q575 900 575 904Q575 909 573.0 914.5Q571 920 562 920Q555 920 553.0 918.5Q551 917 550 915H478L458 870Q461 870 465.0 869.0Q469 868 472 868L479 817L531 814V763Q512 760 483.5 749.5Q455 739 441 726L343 688L186 708L139 734H113V725H132L166 709V696H117L89 703L66 720L63 716L83 697L109 685L174 680L340 647L497 684L553 537L648 554L643 709L662 717L722 608L743 468L751 420H755L758 456L765 458L786 438ZM503 889Q496 889 488.5 891.0Q481 893 481 898Q481 903 487.0 906.0Q493 909 500 909Q516 909 526 897Q522 894 516.5 891.5Q511 889 503 889ZM444 309H670Q669 313 669.0 317.5Q669 322 669 326Q669 343 672 365Q674 382 680.0 395.5Q686 409 686 423Q686 449 679.0 480.5Q672 512 650 538L553 521ZM589 18H697Q699 32 700.0 46.5Q701 61 701 76Q701 113 696.0 153.5Q691 194 684.0 231.0Q677 268 670 292H619L624 263L672 89Q674 85 674.0 82.0Q674 79 674 76Q674 60 660.5 51.5Q647 43 630 40L589 31ZM303 18H415L502 292H444L430 251V209L398 88Q394 64 383.0 53.5Q372 43 358 40L303 31Z" />
  </g>
</svg>