<svg xmlns="http://www.w3.org/2000/svg" viewBox="49 0 626 1001">
  <g transform="translate(0, 1001) scale(1, -1)">
    <path fill="black" d="M78 0 56 32 49 64 59 134 74 304 97 325 275 322 311 473 207 710H217L204 748L205 790L174 907Q170 921 165.5 933.0Q161 945 146 947L80 958V1001H220L313 710H392L396 740L446 913Q447 917 447 924Q447 933 438.5 939.0Q430 945 418 947L363 958V1001H506Q509 985 510.0 967.0Q511 949 511 931Q511 891 506.0 849.0Q501 807 494.5 770.5Q488 734 482 710Q481 700 476.5 683.0Q472 666 472 658Q472 649 472.5 641.0Q473 633 474 624Q476 605 477.0 598.5Q478 592 478 578Q478 544 469.5 515.0Q461 486 438 454L449 322L627 325L650 304L665 134L675 64L668 32L646 0L620 13L637 42L636 70L630 95H627L625 80L630 54L600 48L591 88L604 142L595 232L581 248L481 238Q464 233 442.0 227.5Q420 222 403 220V175L422 146Q433 129 438.0 113.5Q443 98 443 85Q443 51 419.5 25.5Q396 0 350 0Q304 0 286.5 17.0Q269 34 269 55Q269 64 271 74L239 144Q245 144 251.0 145.0Q257 146 262 146L270 197L310 200V224Q293 226 265.0 230.5Q237 235 219 240L143 248L129 232L121 142L133 88L124 48L94 54L100 80L97 95H94L88 70L87 42L104 13ZM412 710H463Q470 735 477.0 771.0Q484 807 489.0 848.0Q494 889 494 926Q494 941 493.0 955.5Q492 970 490 983H381V970L423 962Q440 959 453.0 951.0Q466 943 466 926Q466 922 466.0 919.0Q466 916 465 912L416 739ZM237 710H295L208 983H95V970L150 962Q164 959 174.0 948.0Q184 937 190 913L222 792V750ZM420 463Q442 489 450.5 521.0Q459 553 459 579Q459 593 458.0 600.5Q457 608 455 624Q452 645 452 663Q452 673 460 692H238L327 481ZM83 13 90 17 76 42 74 72 88 118 103 116 111 80 107 61 115 60 121 84 104 139 114 242 132 264 228 257Q243 251 272.5 245.5Q302 240 326 238V188L283 185L275 134Q273 134 269.0 133.0Q265 132 262 132L282 86H354Q355 85 357.0 83.0Q359 81 366 81Q374 81 376.5 86.5Q379 92 379 98Q379 102 375.0 111.0Q371 120 368 124L345 154L388 192V237Q419 239 438.5 244.0Q458 249 473 255L592 264L610 242L620 139L604 84L609 60L617 61L613 80L621 116L636 118L650 72L648 42L634 17L642 13L656 37L663 65L648 134L634 294L621 308L435 303L421 447L326 464L289 303L104 308L90 294L76 134L61 65L68 37ZM351 19Q388 19 406.0 41.0Q424 63 424 88Q424 101 419.5 114.5Q415 128 410 136L384 169L366 151L386 126Q391 121 394.0 111.5Q397 102 397 95Q397 85 390.5 74.5Q384 64 371 64Q364 64 361.0 66.0Q358 68 356 69H291Q291 68 290.5 64.5Q290 61 290 55Q290 41 303.5 30.0Q317 19 351 19ZM304 92Q297 92 291.0 95.5Q285 99 285 103Q285 109 292.5 111.0Q300 113 307 113Q315 113 320.5 110.5Q326 108 330 104Q325 100 319.0 96.0Q313 92 304 92Z" />
  </g>
</svg>