<svg xmlns="http://www.w3.org/2000/svg" viewBox="49 0 584 1003">
  <g transform="translate(0, 1003) scale(1, -1)">
    <path fill="black" d="M202 0V43L268 54Q283 57 288.0 69.0Q293 81 296 94L327 211L326 253L339 292H329L433 528L397 679L216 687L107 824L67 861L52 899L81 911L90 887L101 876L104 877L94 902L80 925L49 939L63 965L100 951L124 929L157 866L251 767H253L215 857L183 901L174 941L205 947L209 922L218 910H221L217 936L206 961L179 981L197 1003L230 983L250 957L272 889L327 769H346Q369 773 393.5 774.5Q418 776 435 777V801L392 804L384 855Q379 856 373.0 856.5Q367 857 361 858L393 927Q391 937 391 947Q391 967 408.5 984.0Q426 1001 472 1001Q518 1001 541.5 976.0Q565 951 565 917Q565 904 560.0 888.0Q555 872 544 855L529 827V782Q553 782 565.5 767.0Q578 752 581.5 728.5Q585 705 581 679L560 547Q583 515 591.5 486.0Q600 457 600 424Q600 410 599.0 404.0Q598 398 596 378Q595 368 594.5 360.0Q594 352 594 344Q594 336 598.5 319.0Q603 302 604 292Q610 268 617.0 231.5Q624 195 628.5 153.0Q633 111 633 71Q633 53 632.0 35.0Q631 17 628 0H485V43L540 54Q552 57 560.5 62.5Q569 68 569 78Q569 84 568 88L519 262L514 292H435L342 0ZM270 767 309 768 254 886 239 951 222 974 199 990 193 984 216 967 229 938 236 892 221 887 199 917 195 937 188 935 192 910 229 866ZM510 833 532 866Q537 874 541.5 887.5Q546 901 546 914Q546 939 528.0 960.5Q510 982 473 982Q439 982 425.5 971.0Q412 960 412 946Q412 941 412.5 937.5Q413 934 413 932H478Q480 934 483.0 935.5Q486 937 493 937Q506 937 513.0 927.5Q520 918 520 907Q520 889 508 875L492 850ZM448 537 543 554 564 698Q567 721 556.5 744.0Q546 767 514 765V810L471 847L490 877Q493 882 497.0 891.0Q501 900 501 904Q501 909 499.0 914.5Q497 920 488 920Q481 920 479.0 918.5Q477 917 476 915H404L384 870Q387 870 391.0 869.0Q395 868 397 868L405 817L452 814V763Q428 761 401.0 759.0Q374 757 354 752L242 748L140 859L114 921L93 940L67 952L63 944L88 932L107 907L122 862L107 855L81 880L74 898L66 896L75 872L119 835L227 705L411 698ZM429 889Q422 889 414.5 891.0Q407 893 407 898Q407 903 413.0 906.0Q419 909 426 909Q435 909 441.0 905.5Q447 902 452 897Q448 894 442.5 891.5Q437 889 429 889ZM360 309H583Q574 329 574 339Q574 356 577 378Q579 395 580.0 402.0Q581 409 581 423Q581 449 572.5 480.5Q564 512 542 538L449 521ZM217 18H330L417 292H359L344 251V209L313 88Q306 65 296.5 54.0Q287 43 272 40L217 31ZM503 18H612Q614 32 615.0 46.5Q616 61 616 76Q616 113 611.0 153.5Q606 194 599.0 231.0Q592 268 585 292H534L538 263L587 89Q588 85 588.0 82.0Q588 79 588 76Q588 60 575.0 51.5Q562 43 545 40L503 31Z" />
  </g>
</svg>