<svg xmlns="http://www.w3.org/2000/svg" viewBox="49 0 612 1001">
  <g transform="translate(0, 1001) scale(1, -1)">
    <path fill="black" d="M338 0V43L394 54Q406 57 414.5 62.5Q423 68 423 78Q423 80 422.5 82.5Q422 85 422 88L412 180L254 279L242 309V332L358 530L356 565L320 679Q270 671 240.5 666.5Q211 662 191.0 661.5Q171 661 147 664L135 672Q107 734 87.0 786.5Q67 839 61 905L49 943L77 1001L103 992L87 946L92 929L106 961L129 954L112 873Q123 842 143.0 804.5Q163 767 188 738Q207 742 243.0 754.0Q279 766 314 773Q329 776 344.0 777.5Q359 779 372 780V801L329 804L321 855Q316 856 309.5 856.5Q303 857 297 858L329 927Q329 931 328.5 937.0Q328 943 328 947Q327 967 344.5 984.0Q362 1001 408 1001Q454 1001 477.5 976.0Q501 951 501 917Q501 888 481 855L465 827V779Q470 778 476.5 777.0Q483 776 488 775Q514 770 536.5 761.0Q559 752 569 738Q585 719 605.5 684.5Q626 650 642.5 612.5Q659 575 661 545L642 535Q608 533 569.5 538.5Q531 544 497 562L491 565L487 547Q505 531 516.0 511.0Q527 491 527 458Q527 435 521.5 418.0Q516 401 509.5 384.5Q503 368 497.5 346.0Q492 324 492 292Q492 281 491.0 259.0Q490 237 489 214L577 156L621 153L635 113L586 18L549 0H496V40L534 49L555 72L552 88L487 131V71Q487 53 485.5 35.0Q484 17 482 0ZM632 551 642 555Q638 578 625.0 610.0Q612 642 594.0 673.5Q576 705 556 728Q546 739 526.0 747.0Q506 755 489 758Q480 760 468.5 761.5Q457 763 450 764V810L408 847L426 877Q429 882 433.5 891.0Q438 900 438 904Q438 909 435.5 914.5Q433 920 424 920Q418 920 416.0 918.5Q414 917 412 915H340L321 870Q324 870 328.0 869.0Q332 868 334 868L341 817L388 814V760Q376 762 356.0 760.5Q336 759 322 757Q284 751 246.0 737.5Q208 724 189 721L174 727Q146 761 127.0 803.0Q108 845 101 876L115 944L110 946L94 910L85 912L74 944L88 982L82 985L62 941L73 907Q80 851 103.5 791.0Q127 731 153 681Q168 680 185.5 679.5Q203 679 236.5 683.0Q270 687 333 698L344 662L407 666L438 641Q445 638 459.0 633.5Q473 629 489 624L511 695H521Q551 661 570.5 631.0Q590 601 597 584Q581 585 561.5 589.0Q542 593 512.0 602.0Q482 611 431 628L404 653L354 651L355 645L397 643L422 620L420 611H380V605L453 603Q485 584 529.5 566.0Q574 548 632 551ZM447 833 468 866Q473 874 478.0 887.5Q483 901 483 914Q483 939 465.0 960.5Q447 982 410 982Q376 982 362.0 971.0Q348 960 348 946Q348 936 350 932H415Q417 934 420.0 935.5Q423 937 430 937Q442 937 449.0 927.5Q456 918 456 907Q456 890 445 875L428 850ZM365 889Q358 889 350.5 891.0Q343 893 343 898Q343 903 349.5 906.0Q356 909 363 909Q372 909 378.0 905.5Q384 902 389 897Q384 894 378.5 891.5Q373 889 365 889ZM567 604Q563 611 555.0 624.0Q547 637 521 669L504 617Q526 611 542.0 608.0Q558 605 567 604ZM374 537 469 554 475 574Q465 579 459.0 583.5Q453 588 451 589L366 596L368 620H403L390 632L353 633L371 574ZM469 309Q469 340 478.5 364.5Q488 389 497.0 411.5Q506 434 506 457Q506 483 495.5 504.0Q485 525 468 538L376 521L264 331V325ZM407 206 402 251 339 301 269 307 274 289ZM401 276 400 297 370 299ZM357 18H465Q467 32 468.0 46.5Q469 61 469 76Q469 113 469.5 153.5Q470 194 471.0 231.0Q472 268 473 292L421 295V263L440 89Q441 85 441.5 82.0Q442 79 442 76Q442 60 428.5 51.5Q415 43 398 40L357 31ZM511 16H546L576 34Q578 37 584.5 50.5Q591 64 600.0 81.5Q609 99 616 114L606 138L573 136L489 193L487 153L567 100V63L537 34L511 29Z" />
  </g>
</svg>