<svg xmlns="http://www.w3.org/2000/svg" viewBox="49 0 713 1001">
  <g transform="translate(0, 1001) scale(1, -1)">
    <path fill="black" d="M318 0V43L384 54Q399 57 404.0 69.0Q409 81 413 94L445 211L442 253L456 292H445L526 518L428 639L435 506L403 492L211 538L199 546L169 542H150L138 549L62 492L49 510L119 562L116 566L111 601L122 625L168 631L197 620L402 772L385 801L343 804L335 855Q331 856 324.5 856.5Q318 857 312 858L344 927Q342 937 342 947Q342 967 359.5 984.0Q377 1001 423 1001Q469 1001 492.5 976.0Q516 951 516 917Q516 888 496 855L474 826L657 961L669 944L658 935Q670 907 687.5 889.5Q705 872 722.0 858.0Q739 844 750.5 827.0Q762 810 762 784Q762 759 746.5 735.5Q731 712 693 712Q662 712 638.5 737.0Q615 762 615 824Q615 846 618.0 868.5Q621 891 622 909L488 809Q511 808 535.0 796.0Q559 784 575 755L672 581Q691 547 701.5 523.0Q712 499 712 471Q712 457 707.0 430.5Q702 404 700 384Q699 375 698.0 366.5Q697 358 697 350Q697 342 697.5 322.0Q698 302 699 292Q705 268 712.0 231.5Q719 195 723.5 153.0Q728 111 728 71Q728 53 727.0 35.0Q726 17 723 0H580V43L635 54Q647 57 655.5 62.5Q664 68 664 78Q664 84 663 88L613 262L609 292H551L458 0ZM462 833 483 866Q488 874 493.0 887.5Q498 901 498 914Q498 939 480.0 960.5Q462 982 424 982Q390 982 376.5 971.0Q363 960 363 946Q363 941 363.5 937.5Q364 934 364 932H429Q431 934 434.0 935.5Q437 937 444 937Q457 937 464.0 927.5Q471 918 471 907Q471 889 459 875L449 853ZM692 730Q720 730 731.5 747.5Q743 765 743 784Q743 805 732.0 820.0Q721 835 704.5 848.5Q688 862 672.0 879.0Q656 896 646 921L642 918Q641 909 637.0 880.0Q633 851 633 825Q633 775 650.5 752.5Q668 730 692 730ZM415 782 457 813 430 852 441 877Q444 882 448.0 891.0Q452 900 452 904Q452 909 450.0 914.5Q448 920 439 920Q432 920 430.0 918.5Q428 917 427 915H355L335 870Q338 870 342.0 869.0Q346 868 349 868L356 817L397 814ZM380 889Q373 889 365.5 891.0Q358 893 358 898Q358 903 364.0 906.0Q370 909 377 909Q386 909 392.0 905.5Q398 902 403 897Q399 894 393.5 891.5Q388 889 380 889ZM404 510 417 516 406 664 424 671 540 531 646 586 557 750Q548 766 528.5 779.5Q509 793 469 795Q453 783 444.0 776.5Q435 770 427.5 764.0Q420 758 407.5 748.5Q395 739 371 721Q368 708 365.5 692.0Q363 676 364 669L380 573L364 566L218 587L183 608L165 614L133 610L126 596L130 573L135 567L152 559L168 558L196 562L211 554ZM359 583 346 664Q344 676 346.5 688.5Q349 701 352 708L216 607L222 604ZM475 309H679V345Q679 354 679.5 364.0Q680 374 681 384Q683 401 688.0 428.5Q693 456 693 470Q693 496 684.0 516.5Q675 537 655 567L541 510ZM333 18H446L533 292H475L460 251V209L429 88Q422 65 412.5 54.0Q403 43 389 40L333 31ZM598 18H707Q710 45 710 76Q710 113 705.0 153.5Q700 194 693.5 231.0Q687 268 680 292H628L633 263L682 89Q683 85 683.0 82.0Q683 79 683 76Q683 60 670.0 51.5Q657 43 640 40L598 31Z" />
  </g>
</svg>