<svg xmlns="http://www.w3.org/2000/svg" viewBox="49 0 625 1001">
  <g transform="translate(0, 1001) scale(1, -1)">
    <path fill="black" d="M54 0 49 236H118V492L96 501L89 508L81 543L89 552V564L118 570V596H115L93 612L85 619L81 653L87 663L93 664V680L116 685H118V943H148V683L167 677L192 656L333 603L376 729Q387 752 402.5 762.0Q418 772 437 777V801L389 804L381 855Q376 856 369.5 856.5Q363 857 357 858L389 927Q389 931 388.5 937.0Q388 943 388 947Q387 967 404.5 984.0Q422 1001 468 1001Q514 1001 538.0 976.0Q562 951 562 917Q562 890 541 855L525 827V791Q558 787 586.0 761.5Q614 736 618 686Q623 635 623.0 600.0Q623 565 624 555Q646 523 653.0 495.5Q660 468 660 435Q660 421 654.0 403.0Q648 385 646 365Q645 355 644.0 347.0Q643 339 643 331Q643 323 644.0 313.5Q645 304 645 292Q651 268 658.0 231.5Q665 195 669.5 153.0Q674 111 674 71Q674 53 672.5 35.0Q671 17 669 0H525V43L581 54Q593 57 601.5 62.5Q610 68 610 78Q610 84 609 88L559 262L555 292H475L382 0H242V43L308 54Q323 57 328.5 69.0Q334 81 337 94L370 211L366 253L380 292H369L492 536L425 646L372 503L186 493L172 500H157L148 490V236H217L212 0ZM507 833 528 866Q533 874 538.0 887.5Q543 901 543 914Q543 939 525.0 960.5Q507 982 470 982Q436 982 422.0 971.0Q408 960 408 946Q408 936 410 932H475Q477 934 480.0 935.5Q483 937 490 937Q502 937 509.0 927.5Q516 918 516 907Q516 890 505 875L488 850ZM125 502H143L150 513L169 514L185 507L359 517L415 672L428 674L507 545L605 566Q603 601 602.0 620.5Q601 640 600.5 654.0Q600 668 598 684Q595 720 579.0 740.0Q563 760 543.5 768.0Q524 776 510 776V810L468 847L486 877Q489 882 493.5 891.0Q498 900 498 904Q498 909 495.5 914.5Q493 920 484 920Q478 920 476.0 918.5Q474 917 472 915H400L381 870Q384 870 388.0 869.0Q392 868 394 868L401 817L453 814V765Q433 764 417.5 751.0Q402 738 394 723L331 550L189 536L155 556L135 562L102 555V549L95 540L101 516L105 510ZM425 889Q419 889 411.0 891.0Q403 893 403 898Q403 903 409.5 906.0Q416 909 423 909Q432 909 438.0 905.5Q444 902 449 897Q444 894 438.5 891.5Q433 889 425 889ZM291 563 319 564 327 588 189 641 159 664 140 672H118L101 670V663H136L157 646L159 623L170 624L182 615ZM122 608H139L148 616L146 643L133 652H93L96 627L101 622ZM191 550 264 559 182 598 167 608 155 606 148 601V571L162 567ZM399 309H625V326Q625 334 625.5 344.0Q626 354 627 365Q629 382 635.0 401.0Q641 420 641 434Q641 460 634.5 491.5Q628 523 607 549L507 530ZM544 18H652Q654 32 655.0 46.5Q656 61 656 76Q656 113 651.0 153.5Q646 194 639.0 231.0Q632 268 625 292H574L579 263L627 89Q629 85 629.0 82.0Q629 79 629 76Q629 60 615.5 51.5Q602 43 585 40L544 31ZM258 18H370L458 292H399L385 251V209L353 88Q349 64 338.0 53.5Q327 43 313 40L258 31ZM73 20H193L198 216H68Z" />
  </g>
</svg>