<svg xmlns="http://www.w3.org/2000/svg" viewBox="49 0 891 1001">
  <g transform="translate(0, 1001) scale(1, -1)">
    <path fill="black" d="M54 0V134H121V229H49V354H121V441H49V566H121V651H49V783H121V866H54V995H186V928H358V995H490V868L520 856L540 828L555 785L647 697L680 742Q688 756 699.0 768.0Q710 780 734 783L754 785L748 804L714 795L689 844Q682 844 675.0 844.5Q668 845 661 845L705 940L706 952Q718 1001 786 1001Q833 1001 868.0 977.5Q903 954 903 914Q903 886 882 854L853 813V784L875 771Q900 755 900 718V710L883 540L933 304H907L940 0H766V45L834 57Q862 61 862 81Q862 83 862.0 86.0Q862 89 861 92L802 304H763L672 0H519V45L588 57Q607 60 614.0 72.0Q621 84 624 98L650 221L646 264L663 304H609L731 523L722 587L689 559L678 556L545 600L504 597L470 605L431 648L434 651H423V566H496V441H423V354H496V229H423V134H490V0H358V62H186V0ZM840 826 867 864Q875 875 880.0 888.0Q885 901 885 918Q885 939 868.0 953.0Q851 967 828.0 974.0Q805 981 787 981Q768 981 749.5 974.5Q731 968 725 950L793 910Q804 918 814 918Q825 918 831.5 910.0Q838 902 838 891Q838 886 833.0 876.5Q828 867 823 862L813 850ZM74 883H121V928H167V978H74ZM423 883H471V978H378V928H423ZM749 528 866 555 880 708Q880 710 880.5 712.0Q881 714 881 715Q881 746 862 758L834 774V809L792 845L812 872Q815 876 818.0 881.5Q821 887 821 890Q821 892 819.5 896.0Q818 900 813 900Q804 900 795 889L719 932L686 859Q690 859 693.5 858.5Q697 858 701 858L723 814L761 827L775 770L739 766Q722 764 714.5 757.5Q707 751 698 735L658 678L646 674L541 773L527 822L511 846L476 861L473 854L500 835L517 794L511 789L479 803L478 799L539 749L632 631L665 624L739 704L751 693L667 607L568 632L508 665L505 662L529 637L526 630L482 631L456 649L450 644L476 617L504 611L555 616L682 571L795 677L841 684L846 669L807 664L737 601ZM141 79H404V911H141ZM746 882Q735 882 727.0 885.5Q719 889 711 895Q716 900 725.5 902.0Q735 904 738 904Q757 904 770 884Q763 883 757.0 882.5Q751 882 746 882ZM423 783H474L457 798L470 818L494 808L484 833L454 852L460 866H423ZM68 668H121V766H68ZM423 668H476V766H423ZM609 637 529 735 496 764V677L501 685L577 645ZM510 643 496 657V651H473L483 644ZM423 458H476V549H423ZM68 458H121V549H68ZM643 323H909L864 535L738 505ZM423 246H476V337H423ZM68 246H121V337H68ZM785 19H920L887 304H822L880 93Q881 89 881.5 85.5Q882 82 882 79Q882 62 870.0 53.5Q858 45 836 42L785 33ZM538 19H661L745 304H682L664 261L667 218L640 92Q635 67 621.0 55.5Q607 44 590 42L538 33ZM378 17H471V117H423V62H378ZM74 17H167V62H121V117H74Z" />
  </g>
</svg>