<svg xmlns="http://www.w3.org/2000/svg" viewBox="49 0 835.48 1001">
  <g transform="translate(0, 1001) scale(1, -1)">
    <path fill="black" d="M179 0Q163 29 146.0 64.5Q129 100 117.0 133.0Q105 166 105 185Q105 216 115.5 240.0Q126 264 140 277Q112 281 85.5 298.0Q59 315 49 334V368H98L111 407L142 436L193 451L276 542Q282 572 288.5 606.0Q295 640 301.5 667.5Q308 695 311 704Q315 716 327.0 724.0Q339 732 352.0 738.0Q365 744 372 748L344 762L310 737L261 771Q257 767 251.0 762.5Q245 758 240 754L199 864L191 875Q182 895 182 911Q182 935 199.5 955.5Q217 976 242.5 988.5Q268 1001 293 1001Q328 1001 355.5 977.0Q383 953 394 902L404 847L426 839Q432 841 439.0 842.5Q446 844 455 844Q470 844 487.5 841.0Q505 838 520 829Q534 820 563.0 800.0Q592 780 627.0 755.5Q662 731 695.5 707.0Q729 683 753.0 664.0Q777 645 783 637Q827 618 847.5 591.0Q868 564 868 523Q868 507 860.5 485.0Q853 463 851 439Q848 417 848.5 399.0Q849 381 850 351Q861 308 870.5 247.0Q880 186 883.5 120.5Q887 55 878 0H713V52L779 65Q794 68 804.5 75.5Q815 83 815 94Q815 97 815.0 100.0Q815 103 813 106L753 315L749 351H679L654 267L610 0H453V52L521 65Q540 69 547.5 83.0Q555 97 556 113L562 255L558 305L573 351H557L649 560L526 604L518 527L396 417L426 378L441 338L435 266L408 270L405 324L404 325Q391 308 367.0 294.5Q343 281 318 277Q332 264 342.5 240.0Q353 216 353 185Q353 166 341.0 133.0Q329 100 312.0 64.5Q295 29 279 0ZM386 851 375 902Q373 916 364.0 934.0Q355 952 339.0 965.5Q323 979 299 979Q274 979 251.5 968.0Q229 957 215.5 940.0Q202 923 202 905Q202 897 207 885L287 895Q289 904 293.0 911.5Q297 919 309 919Q324 919 333.5 906.0Q343 893 345 872L347 855ZM425 282 428 337 412 370 374 418 499 534 520 734H539L528 625L664 575L758 637Q743 651 716.0 671.0Q689 691 657.0 713.0Q625 735 594.5 755.5Q564 776 541.0 791.0Q518 806 510 811Q499 818 486.0 820.5Q473 823 462 823Q440 823 428 819L393 833L335 837L329 874Q328 882 324.5 891.0Q321 900 313 900Q308 900 305.5 895.5Q303 891 303 886Q303 881 304 878L216 866L248 782Q250 784 253.5 786.0Q257 788 259 790L307 757L344 783L411 745Q389 739 362.5 726.5Q336 714 329 700Q325 692 319.0 664.0Q313 636 307.0 601.5Q301 567 296 537L210 444L151 425L122 400L111 368H124L136 391L175 412L182 407L171 368H181L337 531L388 677L443 657L448 738H467L454 536L342 433L335 415L345 331L354 330L364 382L373 385L415 334L417 284ZM245 829Q239 829 239 831Q239 848 252.0 855.0Q265 862 270 862Q276 862 289 857Q277 841 266.5 835.0Q256 829 245 829ZM199 368H326L318 416L329 443L437 548L442 633L403 647L353 520ZM591 371H829Q828 387 828.5 403.5Q829 420 831 439Q833 459 840.5 482.5Q848 506 848 522Q848 554 830.5 581.0Q813 608 773 624L669 555ZM136 368H158L164 391L141 379ZM731 21H862Q870 71 865.5 131.5Q861 192 851.0 250.5Q841 309 830 351H768L773 316L832 108Q834 104 834.0 100.0Q834 96 834 91Q834 72 818.0 62.5Q802 53 781 48L731 38ZM472 21H597L636 271L659 351H591L575 302L578 252L571 106Q570 77 555.0 64.5Q540 52 523 48L472 38ZM151 296H307Q333 296 357.0 310.0Q381 324 390 339V342L384 349H371L361 315H335L329 349H68V339Q77 324 101.5 310.0Q126 296 151 296ZM190 20H268Q282 46 297.0 78.5Q312 111 322.5 140.5Q333 170 333 185Q333 211 324.0 231.5Q315 252 302.5 264.0Q290 276 280 276H178Q168 276 155.5 264.0Q143 252 134.0 231.5Q125 211 125 185Q125 170 135.5 140.5Q146 111 161.0 78.5Q176 46 190 20Z" />
  </g>
</svg>