<svg xmlns="http://www.w3.org/2000/svg" viewBox="49 0 932 1001">
  <g transform="translate(0, 1001) scale(1, -1)">
    <path fill="black" d="M471 0Q349 0 267.5 21.0Q186 42 138.0 94.0Q90 146 69.5 236.5Q49 327 49 466Q49 509 55.0 588.5Q61 668 83 797L63 819L64 855L71 862H78V878H99Q103 897 107.0 916.0Q111 935 116 954L135 952Q131 933 126.5 914.5Q122 896 118 878H136L155 865L205 822L302 708L410 767Q427 776 446.0 776.5Q465 777 482 778V801L439 804L432 855Q427 856 420.5 856.5Q414 857 408 858L440 927Q438 937 438 947Q438 967 455.5 984.0Q473 1001 519 1001Q565 1001 588.5 976.0Q612 951 612 917Q612 889 592 855L576 827V778Q593 777 613.0 776.5Q633 776 649 767L747 708L839 822L889 865L908 878H923L915 952L934 954L943 878H966V862H973L979 855L981 819L955 791L952 790Q958 713 962.0 660.5Q966 608 968.0 573.0Q970 538 970.5 513.5Q971 489 971 467Q971 331 942.0 240.5Q913 150 853.0 97.0Q793 44 698.0 22.0Q603 0 471 0ZM558 833 579 866Q584 874 589.0 887.5Q594 901 594 914Q594 939 576.0 960.5Q558 982 521 982Q487 982 473.0 971.0Q459 960 459 946Q459 941 459.5 937.5Q460 934 460 932H525Q527 934 530.5 935.5Q534 937 541 937Q553 937 560.0 927.5Q567 918 567 907Q567 890 556 875L539 850ZM496 542 591 559 601 704 764 645 877 792 895 809 905 810 903 837 921 858 952 862V867L917 866L899 854L856 816L750 686L642 750Q627 758 605.5 759.5Q584 761 561 763V810L519 847L537 877Q540 882 544.0 891.0Q548 900 548 904Q548 909 546.0 914.5Q544 920 535 920Q528 920 526.0 918.5Q524 917 523 915H451L432 870Q435 870 438.5 869.0Q442 868 445 868L452 817L499 814V763Q475 761 453.0 760.0Q431 759 417 750L299 686L188 816L145 854L127 866L92 867V862L123 858L141 837L139 810L149 809L167 792L285 645L454 702ZM476 889Q469 889 461.5 891.0Q454 893 454 898Q454 903 460.5 906.0Q467 909 474 909Q482 909 488.5 905.5Q495 902 500 897Q495 894 489.5 891.5Q484 889 476 889ZM937 800 947 803 969 826 967 849 929 845 918 833 920 805ZM109 800 126 805 128 833 117 845 79 849 77 826 99 803ZM683 36Q777 61 836.5 109.0Q896 157 924.0 243.0Q952 329 952 467Q952 497 950.0 533.5Q948 570 943.5 630.0Q939 690 931 787L914 793L900 792L889 781L771 622L618 679L608 552Q631 520 642.0 495.5Q653 471 653 438Q653 424 652.0 418.0Q651 412 649 392Q648 382 647.5 374.0Q647 366 647 358Q647 350 652.0 333.0Q657 316 658 306Q664 285 671.0 250.5Q678 216 682.5 175.5Q687 135 687 95Q687 80 686.0 65.0Q685 50 683 36ZM255 47V67L321 79Q336 81 341.0 93.5Q346 106 350 119L380 236L379 277L393 306H382L481 533L440 679L278 622L155 781L144 792L130 793L109 786L101 788Q79 660 73.5 581.5Q68 503 68 466Q68 349 83.0 263.0Q98 177 138.5 123.0Q179 69 255 47ZM413 323H636Q627 343 627 353Q627 370 630 392Q632 409 633.0 416.0Q634 423 634 437Q634 490 590 543L497 525ZM557 42H665Q667 56 668.0 70.5Q669 85 669 100Q669 138 664.0 177.0Q659 216 652.0 250.0Q645 284 638 306H587L591 287L640 114Q642 110 642.0 106.5Q642 103 642 100Q642 84 628.5 75.5Q615 67 598 64L557 56ZM471 20Q506 20 538.5 21.0Q571 22 601 24H538V67L593 79Q605 81 614.0 87.0Q623 93 623 102Q623 104 623.0 107.0Q623 110 622 113L572 286L567 306H488L395 24H364Q388 22 415.0 21.0Q442 20 471 20ZM271 42H383L470 306H412L397 275V234L366 113Q359 89 349.5 78.0Q340 67 326 64L271 56Z" />
  </g>
</svg>