<svg xmlns="http://www.w3.org/2000/svg" viewBox="49 0 1053 1001.0444444444445">
  <g transform="translate(0, 1001.0444444444445) scale(1, -1)">
    <path fill="black" d="M525 0Q403 0 321.5 21.0Q240 42 192.0 94.0Q144 146 123.5 236.5Q103 327 103 466Q103 509 109.0 588.5Q115 668 137 797L117 819L119 855L125 862H132V878H153Q157 892 159.5 907.0Q162 922 162 926Q162 933 161 937Q154 931 140.5 924.5Q127 918 109 918Q99 918 84.5 921.0Q70 924 59.5 933.5Q49 943 49 960Q49 979 64.5 990.0Q80 1001 109 1001Q142 1002 162.0 980.5Q182 959 182 926Q182 915 179.0 902.0Q176 889 172 878H190L209 865L259 822L356 708L464 767Q481 776 500.5 776.5Q520 777 537 778V801L494 804L486 855Q481 856 474.5 856.5Q468 857 462 858L494 927Q494 931 493.5 937.0Q493 943 493 947Q492 967 509.5 984.0Q527 1001 573 1001Q619 1001 643.0 976.0Q667 951 667 917Q667 891 646 855L630 827V778Q647 777 667.0 776.5Q687 776 703 767L801 708L894 822L943 865L962 878H978Q974 889 971.5 902.0Q969 915 969 926Q969 959 988.5 980.5Q1008 1002 1042 1001Q1071 1001 1086.5 990.0Q1102 979 1102 960Q1102 943 1091.0 933.5Q1080 924 1066.0 921.0Q1052 918 1041 918Q1024 918 1010.5 924.5Q997 931 989 937V926Q989 922 991.5 907.0Q994 892 998 878H1020V862H1027L1034 855L1036 819L1009 791L1006 790Q1012 713 1016.0 660.5Q1020 608 1022.0 573.0Q1024 538 1024.5 513.5Q1025 489 1025 467Q1025 331 996.0 240.5Q967 150 907.0 97.0Q847 44 752.0 22.0Q657 0 525 0ZM99 936H109Q126 936 139.0 944.0Q152 952 156 955Q143 984 109 984Q66 982 66 960Q66 948 80 941Q90 944 102.0 946.0Q114 948 127 945Q119 944 112.0 941.5Q105 939 99 936ZM1041 936H1051Q1045 939 1038.0 941.5Q1031 944 1023 945Q1037 948 1049.0 946.0Q1061 944 1070 941Q1084 948 1084 960Q1084 982 1042 984Q1006 984 995 955Q998 952 1011.0 944.0Q1024 936 1041 936ZM612 833 633 866Q638 874 643.0 887.5Q648 901 648 914Q648 939 630.0 960.5Q612 982 575 982Q541 982 527.0 971.0Q513 960 513 946Q513 936 515 932H580Q582 934 585.0 935.5Q588 937 595 937Q607 937 614.0 927.5Q621 918 621 907Q621 890 610 875L593 850ZM1051 961Q1040 961 1031 970Q1039 980 1051 980Q1060 980 1065.5 976.5Q1071 973 1071 970Q1071 961 1051 961ZM99 961Q91 961 85.0 964.0Q79 967 79 970Q79 973 85.0 976.5Q91 980 99 980Q111 980 119 970Q112 961 99 961ZM550 542 645 559 655 704 818 645 931 792 949 809 959 810 958 837 975 858 1006 862V867L971 866L954 854L911 816L804 686L696 750Q681 758 659.5 759.5Q638 761 615 763V810L573 847L591 877Q594 882 598.5 891.0Q603 900 603 904Q603 909 600.5 914.5Q598 920 589 920Q583 920 581.0 918.5Q579 917 577 915H505L486 870Q489 870 493.0 869.0Q497 868 499 868L506 817L553 814V763Q529 761 507.0 760.0Q485 759 471 750L353 686L242 816L199 854L181 866L146 867V862L177 858L195 837L193 810L203 809L221 792L339 645L508 702ZM530 889Q523 889 515.5 891.0Q508 893 508 898Q508 903 514.5 906.0Q521 909 528 909Q537 909 543.0 905.5Q549 902 554 897Q549 894 543.5 891.5Q538 889 530 889ZM991 800 1001 803 1023 826 1021 849 983 845 972 833 974 805ZM163 800 180 805 182 833 171 845 133 849 131 826 153 803ZM737 36Q831 61 890.5 109.0Q950 157 978.0 243.0Q1006 329 1006 467Q1006 497 1004.0 533.5Q1002 570 997.5 630.0Q993 690 985 787L968 793L954 792L943 781L825 622L672 679L662 552Q685 520 696.5 495.5Q708 471 708 438Q708 424 706.5 418.0Q705 412 703 392Q702 382 702.0 374.0Q702 366 702 358Q702 350 706.5 333.0Q711 316 712 306Q718 285 725.0 250.5Q732 216 736.5 175.5Q741 135 741 95Q741 80 740.0 65.0Q739 50 737 36ZM309 47V67L375 79Q390 81 395.0 93.5Q400 106 404 119L435 236L433 277L447 306H436L535 533L495 679L333 622L209 781L198 792L185 793L163 786L155 788Q133 660 128.0 581.5Q123 503 123 466Q123 349 138.0 263.0Q153 177 193.0 123.0Q233 69 309 47ZM467 323H690Q686 333 684.0 341.0Q682 349 682 353Q682 362 682.5 371.5Q683 381 684 392Q686 409 687.0 416.0Q688 423 688 437Q688 489 645 543L551 525ZM325 42H437L524 306H466L452 275V234L420 113Q414 89 404.0 78.0Q394 67 380 64L325 56ZM611 42H719Q721 56 722.0 70.5Q723 85 723 100Q723 138 718.0 177.0Q713 216 706.0 250.0Q699 284 692 306H641L646 287L694 114Q696 110 696.0 106.5Q696 103 696 100Q696 84 682.5 75.5Q669 67 652 64L611 56ZM525 20Q560 20 592.5 21.0Q625 22 655 24H592V67L647 79Q660 81 668.5 87.0Q677 93 677 102Q677 104 677.0 107.0Q677 110 676 113L626 286L622 306H542L449 24H418Q442 22 469.0 21.0Q496 20 525 20Z" />
  </g>
</svg>