<svg xmlns="http://www.w3.org/2000/svg" viewBox="49 0 1193 1002">
  <g transform="translate(0, 1002) scale(1, -1)">
    <path fill="black" d="M210 0 206 15 236 54 242 66Q242 73 245.0 98.5Q248 124 250 145L256 343Q243 351 233.0 363.5Q223 376 218 394Q217 399 216.5 405.5Q216 412 216 419Q216 439 219.0 457.5Q222 476 225 485Q225 487 220.5 515.5Q216 544 209.0 588.5Q202 633 194.0 683.5Q186 734 179 780L164 763L136 754L105 736L78 733L53 740L49 751L64 796L101 838L128 871L151 889Q147 891 141.0 893.5Q135 896 132 899Q127 905 127.0 914.5Q127 924 134 933Q149 932 158.5 921.5Q168 911 172 900L189 901Q189 912 184.5 920.5Q180 929 180 939Q180 943 182.5 946.5Q185 950 189 950Q197 950 200.0 943.5Q203 937 203 932Q204 927 204.5 917.5Q205 908 207 903H209Q211 906 214.0 915.0Q217 924 219 931Q220 936 224.0 946.5Q228 957 237 957Q242 957 244.5 952.5Q247 948 247 943Q247 936 244.5 929.5Q242 923 240 921Q237 917 234.0 910.5Q231 904 229 896L247 889Q252 894 265.0 904.5Q278 915 292 916Q297 901 293.0 883.5Q289 866 277 862Q272 861 264.5 860.5Q257 860 253 860Q257 854 259.0 847.0Q261 840 262 834L265 835L277 829L306 815L448 811L579 867Q588 872 601.5 872.5Q615 873 625 874V887L596 888L591 918L578 919L596 959Q596 961 595.5 964.5Q595 968 595 971Q595 982 607.5 992.0Q620 1002 646 1002Q672 1002 688.5 987.5Q705 973 705 953Q705 938 693 918L679 901V874Q689 873 700.0 872.5Q711 872 721 867L854 812L976 816L1002 830L1017 836L1028 833V834Q1030 840 1032.0 847.0Q1034 854 1037 860Q1033 860 1026.0 860.5Q1019 861 1014 862Q1002 866 998.0 883.5Q994 901 999 916Q1013 915 1026.0 904.5Q1039 894 1043 889L1062 896Q1060 904 1057.0 910.5Q1054 917 1051 921Q1050 923 1046.5 929.5Q1043 936 1043 943Q1043 948 1046.0 952.5Q1049 957 1053 957Q1062 957 1066.5 946.5Q1071 936 1072 931Q1074 924 1077.0 915.0Q1080 906 1081 903H1084Q1086 908 1086.5 917.5Q1087 927 1087 932Q1088 937 1091.0 943.5Q1094 950 1101 950Q1105 950 1107.5 946.5Q1110 943 1110 939Q1110 929 1106.0 920.5Q1102 912 1102 901L1119 900Q1123 911 1132.0 921.5Q1141 932 1156 933Q1164 924 1164.0 914.5Q1164 905 1159 899Q1151 892 1139 889L1163 871L1189 838L1226 796L1242 751L1237 740L1212 733L1186 736L1155 754L1127 763L1111 780Q1104 734 1096.0 683.5Q1088 633 1081.5 588.5Q1075 544 1070.5 515.5Q1066 487 1066 485Q1069 476 1072.0 457.5Q1075 439 1075 419Q1075 412 1075.0 405.5Q1075 399 1073 394Q1069 376 1059.0 363.5Q1049 351 1035 343L1041 145Q1043 124 1045.5 98.5Q1048 73 1048 66L1055 54L1085 15L1080 0H1009L990 37Q991 41 991.5 45.5Q992 50 993 53L985 83Q987 90 990.5 98.5Q994 107 995 111L990 167Q990 169 989.0 182.5Q988 196 986.0 216.0Q984 236 982 254L944 144Q943 123 942.5 98.0Q942 73 942 66L948 54L979 15L974 0H906L887 37Q888 41 888.5 45.5Q889 50 890 53L882 83Q885 90 889.0 98.5Q893 107 894 111V174Q894 175 899.0 194.0Q904 213 910.5 239.5Q917 266 922.5 290.0Q928 314 929 325Q915 312 900.5 304.0Q886 296 865 294L821 145L831 54L854 11L848 0H800L778 40Q779 44 779.5 49.0Q780 54 781 57L766 141L771 191L746 132L747 54L770 11L763 0H716L693 40Q694 44 694.5 49.0Q695 54 696 57L691 128L702 216Q689 242 682.5 261.5Q676 281 677 309Q671 290 671.5 274.0Q672 258 673 236L675 205Q677 183 676.5 163.0Q676 143 663 143Q651 143 645 155Q641 143 627 143Q616 143 615.5 161.5Q615 180 615 205Q615 217 618 238Q620 258 619.5 274.0Q619 290 613 309Q615 281 608.5 261.5Q602 242 589 216L599 128L594 57Q595 54 595.5 49.0Q596 44 597 40L575 0H527L521 11L544 54V132L520 191L524 141L510 57Q511 54 511.5 49.0Q512 44 513 40L490 0H443L437 11L459 54L470 145L426 294Q404 296 389.5 304.0Q375 312 361 325Q362 314 367.5 290.0Q373 266 380.0 239.5Q387 213 392.0 194.0Q397 175 397 174V111Q398 107 401.5 98.5Q405 90 408 83L401 53Q402 50 402.5 45.5Q403 41 404 37L385 0H317L312 15L342 54L349 66Q348 73 347.5 98.0Q347 123 347 144L309 254Q307 236 305.0 216.0Q303 196 302.0 182.5Q301 169 301 167L296 111Q297 107 300.0 98.5Q303 90 305 83L298 53Q299 50 299.5 45.5Q300 41 301 37L282 0ZM668 905 681 923Q684 928 686.5 936.0Q689 944 689 952Q689 966 678.5 976.0Q668 986 647 986Q628 986 620.0 982.0Q612 978 612 970V962H650Q651 963 653.0 964.0Q655 965 659 965Q666 965 670.0 959.5Q674 954 674 948Q674 938 667 929L658 915ZM633 737 688 747 694 835 852 780 990 793 1002 798 1020 791Q1025 817 1025.5 819.5Q1026 822 1026 823L1021 824L1006 820L981 801L848 796L717 853Q709 858 694.0 858.5Q679 859 666 860V892L641 913L657 931Q659 933 661.0 938.5Q663 944 663 946Q663 949 662.0 952.0Q661 955 656 955Q652 955 650.5 951.5Q649 948 649 947H605L596 926Q598 926 600.5 925.5Q603 925 604 925L608 896L635 894V860Q621 859 606.0 857.5Q591 856 583 853L454 795L301 800L273 818L264 821L270 794L280 797L292 789L450 774L604 830ZM622 932Q618 932 613.5 933.0Q609 934 609 938Q609 940 612.5 942.0Q616 944 620 944Q628 944 635 937Q632 936 629.5 934.0Q627 932 622 932ZM159 898Q154 907 150.0 912.0Q146 917 138 920Q135 916 138.0 911.5Q141 907 143 905Q145 903 150.0 901.0Q155 899 159 898ZM1132 898Q1141 900 1148 905Q1150 907 1152.5 911.5Q1155 916 1153 920Q1141 915 1132 898ZM254 875Q260 875 265.5 875.5Q271 876 275 878Q280 880 281.0 887.0Q282 894 282 899Q274 894 267.0 888.5Q260 883 254 875ZM1037 875Q1030 883 1023.5 888.5Q1017 894 1009 899Q1009 894 1010.0 887.0Q1011 880 1015 878Q1020 876 1025.0 875.5Q1030 875 1037 875ZM724 14H748L729 48L731 140L795 296Q797 304 799.0 315.0Q801 326 802 333Q803 339 802.5 343.5Q802 348 802 353Q802 363 810 363Q814 363 816.5 358.5Q819 354 819 337Q819 330 818.5 323.5Q818 317 818 313Q844 309 869.5 313.0Q895 317 932 342Q932 346 932.5 349.0Q933 352 933 355Q933 357 932.5 358.5Q932 360 932 361Q932 373 940 373Q950 373 950 350Q950 346 950.0 338.0Q950 330 948 319V317Q945 297 937.0 270.5Q929 244 921.5 218.0Q914 192 911 173L910 107Q908 101 904.5 93.5Q901 86 899 82L907 53Q907 46 905 40L918 14H952L949 26L934 43L925 60V147L999 352Q1025 354 1038.0 366.0Q1051 378 1055 398Q1058 410 1058 425Q1058 445 1054.5 462.5Q1051 480 1048 488L1099 808L1122 795L1134 778L1161 769L1187 753L1210 750L1223 755L1209 792L1173 831L1151 859Q1137 870 1122.5 879.0Q1108 888 1089 888Q1065 888 1058.0 868.0Q1051 848 1046 830Q1036 778 1026.5 730.5Q1017 683 1008.0 649.0Q999 615 992 603Q977 577 950.5 548.5Q924 520 892.0 497.5Q860 475 828 466Q795 457 759.0 440.0Q723 423 706 404Q687 384 676.0 365.0Q665 346 657 305Q656 297 655.5 282.0Q655 267 655.5 253.5Q656 240 656 236Q655 229 654.0 216.0Q653 203 653 191Q653 177 655.5 165.0Q658 153 662 153Q667 154 666.5 166.5Q666 179 665 194Q664 206 663.5 219.0Q663 232 663 239Q663 252 661.5 259.0Q660 266 660.0 274.0Q660 282 663 299Q665 314 672.0 327.0Q679 340 692 347Q690 311 698.5 274.0Q707 237 720 216L709 128L715 56Q714 52 713.5 47.5Q713 43 712 41ZM338 14H372L386 40Q385 42 384.5 46.0Q384 50 383 53L392 82Q390 86 386.0 93.5Q382 101 380 107V173Q378 192 370.0 218.0Q362 244 354.0 270.5Q346 297 343 317V319Q340 340 340 350Q340 362 343.5 367.5Q347 373 351 373Q358 373 358 361V355Q358 352 358.0 349.0Q358 346 359 342Q396 317 421.5 313.0Q447 309 472 313V337Q472 354 474.5 358.5Q477 363 481 363Q489 363 489 353Q489 348 488.0 343.5Q487 339 488 333Q489 326 491.5 315.0Q494 304 495 296L560 140L561 48L542 14H566L579 41Q578 43 577.5 47.5Q577 52 576 56L581 128L571 216Q583 237 592.0 274.0Q601 311 599 347Q623 332 628 299Q631 282 630.5 274.0Q630 266 629.0 259.0Q628 252 627 239Q627 232 626.5 219.0Q626 206 625 194Q625 179 625.0 166.5Q625 154 629 153Q633 153 635.5 165.0Q638 177 638 191Q638 203 637.0 216.0Q636 229 635 236Q635 240 635.5 253.5Q636 267 636.0 282.0Q636 297 634 305Q627 346 615.5 365.0Q604 384 585 404Q568 423 532.0 440.0Q496 457 463 466Q431 475 398.5 497.5Q366 520 340.0 548.5Q314 577 299 603Q289 620 275.0 682.0Q261 744 244 830Q240 848 232.5 868.0Q225 888 201 888Q183 888 168.5 879.0Q154 870 139 859L118 831L81 792L67 755L81 750L104 753L130 769L157 778L169 795L192 808L242 488Q239 480 236.0 462.5Q233 445 233 425Q233 418 233.5 411.0Q234 404 235 398Q240 378 253.0 366.0Q266 354 292 352L366 147V60L356 43L342 26ZM1139 821Q1130 821 1122.0 824.5Q1114 828 1108 832Q1111 834 1117.0 836.5Q1123 839 1134 839H1142Q1150 839 1156.0 837.5Q1162 836 1163 831Q1163 824 1155.5 822.5Q1148 821 1139 821ZM151 821Q143 821 135.5 822.5Q128 824 128 831Q131 839 149 839H156Q167 839 173.5 836.5Q180 834 182 832Q176 828 168.0 824.5Q160 821 151 821ZM803 476 825 481Q852 488 882.5 511.0Q913 534 938.5 562.0Q964 590 976 611Q983 623 991.0 652.0Q999 681 1006.5 716.5Q1014 752 1019 781L1011 785L1002 786L996 782L849 764L708 814L703 741ZM471 480 480 500 517 491Q525 489 529.0 493.5Q533 498 536 505L557 551L561 571L568 593H562L619 729L592 810L453 758L287 776L279 782L271 781Q277 752 284.5 716.5Q292 681 300.0 652.0Q308 623 314 611Q327 590 352.5 562.0Q378 534 408.5 511.0Q439 488 466 481ZM588 608H737L689 732L633 722ZM645 317Q648 341 657.5 364.0Q667 387 688 410Q696 418 703.5 425.0Q711 432 720 438L710 458L736 478Q751 487 746 498L742 503L702 574L693 593H634L559 445Q571 438 582.0 429.5Q593 421 603 410Q623 387 632.5 364.0Q642 341 645 317ZM731 451 788 477 742 593H709L718 574L756 508Q758 506 759.0 504.5Q760 503 761 501Q765 493 760.0 485.5Q755 478 747 472L727 458ZM545 453 618 593H584L576 570L571 549L547 499Q536 474 520 478L489 487L486 479L512 468Q529 462 545 453ZM1021 14H1059L1055 26L1041 43L1031 60L1023 148L1016 340Q1016 338 1014 338L997 297Q1000 264 1002.5 234.0Q1005 204 1007 166L1011 107Q1009 101 1006.5 93.5Q1004 86 1002 82L1010 53Q1010 46 1008 40ZM232 14H269L283 40Q282 42 281.5 46.0Q281 50 280 53L289 82Q287 86 284.0 93.5Q281 101 279 107L284 166Q286 204 288.0 234.0Q290 264 293 297L277 338Q276 338 274 340L267 148L259 60L250 43L235 26ZM809 14H833L814 48L806 153L844 294Q831 294 816 297L795 246L784 141L799 56Q798 52 797.5 47.5Q797 43 796 41ZM458 14H482L494 41Q493 43 492.5 47.5Q492 52 491 56L506 141L496 246L474 297Q459 294 446 294L485 153L477 48Z" />
  </g>
</svg>