<svg xmlns="http://www.w3.org/2000/svg" viewBox="49 0 626 1001">
  <g transform="translate(0, 1001) scale(1, -1)">
    <path fill="black" d="M49 0V43L152 87L104 319Q101 333 97.0 353.0Q93 373 93 391Q93 416 110.0 434.5Q127 453 151 453Q179 453 192.0 442.5Q205 432 219 414L323 286L348 589Q351 623 367.0 645.0Q383 667 404.5 683.5Q426 700 445 715L438 769L411 760L370 691Q359 672 335.5 667.5Q312 663 294 670L302 689Q316 684 331.5 687.5Q347 691 353 701L393 770L374 817L343 819L393 929L395 942Q402 971 422.5 986.0Q443 1001 482 1001Q537 1001 578.0 975.0Q619 949 630 892L650 518H596V77L675 43V0ZM504 537H629L611 892Q605 926 583.5 945.5Q562 965 534.5 973.5Q507 982 483 982Q458 982 439.0 972.0Q420 962 412 939L490 895Q495 899 501.0 902.0Q507 905 514 905Q527 905 534.5 895.5Q542 886 542 875Q542 868 537.5 856.5Q533 845 522 837ZM68 20H655V32L577 66V518H480L505 842Q516 850 520.0 859.5Q524 869 524 873Q524 876 522.5 881.5Q521 887 513 887Q506 887 501.5 884.0Q497 881 492 875L407 923L367 832L386 831L406 776L453 791L464 704Q431 682 401.5 656.0Q372 630 368 590L337 257L325 252L208 397Q198 411 184.0 422.0Q170 433 153 433Q135 433 124.0 421.0Q113 409 113 390Q113 375 118.0 352.5Q123 330 125 316L175 80L68 32ZM431 866Q420 866 412.0 869.5Q404 873 396 878Q401 884 410.5 886.0Q420 888 423 888Q442 888 455 868Q448 867 442.0 866.5Q436 866 431 866Z" />
  </g>
</svg>