<svg xmlns="http://www.w3.org/2000/svg" viewBox="49 0 626 1001">
  <g transform="translate(0, 1001) scale(1, -1)">
    <path fill="black" d="M49 0V43L152 87L104 319Q101 333 97.0 353.0Q93 373 93 391Q93 416 110.0 434.5Q127 453 151 453Q179 453 192.0 442.5Q205 432 219 414L323 286L348 589Q351 622 367.0 645.5Q383 669 404.5 686.0Q426 703 445 715L438 769L417 761L362 686L327 716L391 774L374 817L343 819L393 931Q383 936 372.0 942.0Q361 948 361 958Q361 966 365.0 971.0Q369 976 369 979Q369 984 362 984H353Q352 984 349.0 984.5Q346 985 346 988Q346 990 354.0 995.5Q362 1001 376 1001Q388 1001 393.0 995.0Q398 989 398 983Q398 973 393.0 971.0Q388 969 388 960Q388 955 391.5 952.5Q395 950 397 948Q405 976 433.5 988.5Q462 1001 500 1001Q532 1001 563.5 990.5Q595 980 616.0 951.5Q637 923 637 869Q637 837 629.5 815.0Q622 793 613.0 774.5Q604 756 599 731Q605 719 613.0 706.5Q621 694 628 685Q642 667 656.5 653.0Q671 639 671 622Q671 606 662.5 598.0Q654 590 641 590Q626 590 614.5 601.5Q603 613 596 626V77L675 43V0ZM68 20H655V32L577 66V693Q577 733 587.5 760.5Q598 788 608.0 813.0Q618 838 618 869Q618 907 605.0 930.0Q592 953 572.5 964.0Q553 975 533.5 978.5Q514 982 501 982Q476 982 448.0 972.0Q420 962 412 939L490 895Q495 899 501.0 902.0Q507 905 514 905Q527 905 534.5 895.5Q542 886 542 875Q542 868 537.5 856.5Q533 845 522 837Q517 827 511.0 812.5Q505 798 505 787Q505 774 508.5 760.5Q512 747 516 739V718Q491 718 466.0 705.0Q441 692 419.5 671.5Q398 651 384.0 629.5Q370 608 368 590L337 257L325 252L208 397Q198 411 184.0 422.0Q170 433 153 433Q135 433 124.0 421.0Q113 409 113 390Q113 375 118.0 352.5Q123 330 125 316L175 80L68 32ZM461 724Q470 728 478.5 731.5Q487 735 497 737Q493 742 489.5 754.5Q486 767 486 786Q486 800 492.5 816.0Q499 832 505 842Q516 850 520.0 859.5Q524 869 524 873Q524 876 522.5 881.5Q521 887 513 887Q506 887 501.5 884.0Q497 881 492 875L407 923L367 832L386 831L406 776L453 791ZM431 866Q420 866 412.0 869.5Q404 873 396 878Q401 884 410.5 886.0Q420 888 423 888Q442 888 455 868Q448 867 442.0 866.5Q436 866 431 866ZM642 610Q652 610 652 622Q651 628 640.5 639.5Q630 651 618 667Q611 678 606.0 685.5Q601 693 596 704V698Q597 676 604.5 656.0Q612 636 622.5 623.0Q633 610 642 610Z" />
  </g>
</svg>