<svg xmlns="http://www.w3.org/2000/svg" viewBox="48.916666666666664 0 628.0833333333334 995">
  <g transform="translate(0, 995) scale(1, -1)">
    <path fill="black" d="M82 0V43L186 87L140 295Q137 309 133.5 328.5Q130 348 130 366Q130 387 140 401L124 455L132 470H151V692Q151 727 141.5 742.5Q132 758 116 763Q113 758 110.5 753.5Q108 749 106 745Q94 720 91.0 697.5Q88 675 88 663H62Q58 672 54.0 688.0Q50 704 49 720Q48 743 59.0 771.0Q70 799 83 821Q94 839 102.0 854.0Q110 869 113 881Q115 891 116.0 901.0Q117 911 117 918H143Q148 910 153.5 892.5Q159 875 158 854Q158 838 150.5 822.0Q143 806 135 791Q147 785 164.5 763.0Q182 741 182 689V470H201L259 383L358 262L379 452Q384 493 398.0 520.0Q412 547 431 560L425 607L396 598L354 525Q343 506 319.5 501.5Q296 497 278 504L285 523Q299 518 314.5 521.5Q330 525 336 535L379 608L361 656L330 658L379 768Q386 783 400.5 814.5Q415 846 438.5 879.0Q462 912 495 931Q494 935 493.5 938.5Q493 942 493 945Q493 966 508.5 980.5Q524 995 543 995Q565 995 579.5 980.0Q594 965 594 945Q594 924 581 911Q589 895 596.5 861.0Q604 827 604 789Q604 752 593.5 713.5Q583 675 568 640Q620 623 643.0 596.5Q666 570 671.5 540.5Q677 511 677 484V441H604V489Q604 526 591.5 555.5Q579 585 551 607L536 610L529 561Q552 547 567.5 518.0Q583 489 583 443V77L662 43V0ZM542 628Q559 665 572.0 707.0Q585 749 585 789Q585 833 574.0 868.0Q563 903 555 916Q574 929 574 945Q574 957 565.5 966.5Q557 976 543 976Q531 976 522.0 967.0Q513 958 513 945Q513 937 519 922Q484 904 458.5 872.0Q433 840 418.0 809.5Q403 779 398 765L523 734L506 637ZM70 687H75Q74 707 80.5 728.5Q87 750 93 763Q98 776 108.5 790.5Q119 805 123 813Q129 826 134.5 843.0Q140 860 136 885H131Q130 869 122.0 850.5Q114 832 105 818Q98 806 88.0 787.5Q78 769 73 752Q65 719 70 687ZM447 568Q455 571 463.0 573.0Q471 575 479 575Q493 575 510 570L516 615L485 623L502 720L388 748L354 671L373 670L393 615L438 629ZM418 705Q398 705 383 717Q388 723 397.5 725.0Q407 727 410 727Q430 727 441 707Q434 706 428.5 705.5Q423 705 418 705ZM624 458H657V491Q657 512 651.5 537.5Q646 563 626.0 587.0Q606 611 562 625L559 620Q600 593 612.0 559.5Q624 526 624 494ZM102 20H642V32L564 66V444Q564 494 543.0 524.5Q522 555 478 555Q451 555 428.5 532.0Q406 509 399 450L373 232L361 228L244 373Q233 387 219.5 398.0Q206 409 189 409Q171 409 159.5 396.5Q148 384 148 366Q148 351 153.0 328.5Q158 306 161 292L208 80L102 32ZM155 418Q162 423 169.5 425.5Q177 428 187 428Q192 428 198.0 428.0Q204 428 208 426L190 451H150L147 445Z" />
  </g>
</svg>