<svg xmlns="http://www.w3.org/2000/svg" viewBox="49 0 784 995">
  <g transform="translate(0, 995) scale(1, -1)">
    <path fill="black" d="M239 0V43L342 87L297 295Q294 309 290.5 328.5Q287 348 287 366Q287 386 296 401L280 455L289 470H309L200 648L146 389L127 393L133 420L110 425L105 398L88 402L93 429L81 432L67 407L49 411L193 692L331 470H357L416 383L515 262L536 452Q541 493 555.0 520.0Q569 547 588 560L582 607L541 594L518 656L486 658L529 751Q519 756 508.5 762.5Q498 769 498 779Q498 787 501.5 791.5Q505 796 505 799Q505 804 499 804H489Q488 804 485.0 804.5Q482 805 482 808Q482 811 490.0 816.5Q498 822 513 822Q524 822 529.5 815.5Q535 809 535 803Q535 793 529.5 791.0Q524 789 524 781Q524 775 528.5 772.5Q533 770 536 768Q542 785 556.5 816.5Q571 848 595.0 880.0Q619 912 652 931Q651 935 650.5 938.5Q650 942 650 945Q650 966 665.0 980.5Q680 995 700 995Q722 995 736.0 980.0Q750 965 750 945Q750 923 737 911Q745 895 753.0 861.0Q761 827 761 789Q761 752 750.5 713.5Q740 675 725 640Q777 623 799.5 596.5Q822 570 827.5 540.5Q833 511 833 484V441H761V489Q761 526 748.5 555.5Q736 585 708 607L692 610L686 561Q709 547 724.0 518.0Q739 489 739 443V77L818 43V0ZM699 628Q716 665 729.0 707.0Q742 749 742 789Q742 833 731.0 868.0Q720 903 712 916Q731 929 731 945Q731 957 722.5 966.5Q714 976 700 976Q688 976 678.5 967.0Q669 958 669 945Q669 941 671.0 935.5Q673 930 676 922Q640 904 614.5 872.0Q589 840 574.5 809.5Q560 779 555 765L680 734L663 637ZM604 568Q612 571 620.0 573.0Q628 575 636 575Q650 575 667 570L673 615L642 623L659 720L545 748L510 671L529 670L550 615L595 629ZM575 705Q554 705 540 717Q545 723 554.5 725.0Q564 727 566 727Q578 727 584.5 722.5Q591 718 598 707Q591 706 585.5 705.5Q580 705 575 705ZM781 458H814V491Q814 512 808.5 537.5Q803 563 782.5 587.0Q762 611 718 625L716 620Q757 593 769.0 559.5Q781 526 781 494ZM138 437 176 619 89 448ZM258 20H799V32L721 66V444Q721 494 699.5 524.5Q678 555 635 555Q608 555 585.5 532.0Q563 509 556 450L530 232L518 228L400 373Q390 387 376.5 398.0Q363 409 346 409Q327 409 316.0 396.5Q305 384 305 366Q305 351 310.0 328.5Q315 306 318 292L365 80L258 32ZM312 418Q327 428 343 428Q349 428 354.5 428.0Q360 428 364 426L347 451H307L304 445Z" />
  </g>
</svg>