<svg xmlns="http://www.w3.org/2000/svg" viewBox="48.916666666666664 0 630.0833333333334 1016">
  <g transform="translate(0, 1016) scale(1, -1)">
    <path fill="black" d="M82 0V43L186 87L140 295Q137 309 133.5 328.5Q130 348 130 366Q130 387 140 401L124 455L132 470H151V692Q151 727 141.5 742.5Q132 758 116 763Q113 758 110.5 753.5Q108 749 106 745Q94 720 91.0 697.5Q88 675 88 663H62Q58 672 54.0 688.0Q50 704 49 720Q48 743 59.0 771.0Q70 799 83 821Q94 839 102.0 854.0Q110 869 113 881Q115 891 116.0 901.0Q117 911 117 918H143Q148 910 153.5 892.5Q159 875 158 854Q158 838 150.5 822.0Q143 806 135 791Q147 785 164.5 763.0Q182 741 182 689V470H201L259 383L358 262L379 452Q384 493 398.0 520.0Q412 547 431 560L425 607L397 599L354 525Q343 506 319.5 501.5Q296 497 278 504L285 523Q299 518 314.5 521.5Q330 525 336 535L379 608L361 656L330 658L379 766L372 815L375 820L544 813L447 920Q436 933 427.5 946.0Q419 959 419 976Q419 992 430.0 1004.0Q441 1016 460 1016Q477 1016 487.0 1006.5Q497 997 497 983Q497 970 488.0 962.5Q479 955 469 955H459V972H466Q477 972 477 984Q477 989 473.0 993.5Q469 998 460 998Q439 998 439 977Q439 964 445.0 954.0Q451 944 461 932L563 820L630 1006H679L563 642Q618 625 641.5 598.0Q665 571 671.0 541.0Q677 511 677 484V441H604V489Q604 526 591.5 555.5Q579 585 551 607L536 610L529 561Q552 547 567.5 518.0Q583 489 583 443V77L662 43V0ZM539 628 654 986H642L576 807L554 795L394 802L398 765L481 740Q493 750 505 750Q518 750 525.0 740.5Q532 731 532 720Q532 714 528.0 702.0Q524 690 513 683L504 637ZM70 687H75Q74 707 80.5 728.5Q87 750 93 763Q98 776 108.5 790.5Q119 805 123 813Q129 826 134.5 843.0Q140 860 136 885H131Q130 869 122.0 850.5Q114 832 105 818Q98 806 88.0 787.5Q78 769 73 752Q65 719 70 687ZM447 568Q455 571 463.0 573.0Q471 575 479 575Q493 575 510 570L516 615L485 623L496 688Q507 696 511.0 705.5Q515 715 515 719Q515 722 513.0 727.5Q511 733 503 733Q492 733 483 720L388 748L354 671L373 670L393 615L438 629ZM418 705Q398 705 383 717Q388 723 397.5 725.0Q407 727 410 727Q430 727 441 707Q434 706 428.5 705.5Q423 705 418 705ZM624 458H657V491Q657 512 651.5 537.5Q646 563 626.0 587.0Q606 611 562 625L559 620Q600 593 612.0 559.5Q624 526 624 494ZM102 20H642V32L564 66V444Q564 494 543.0 524.5Q522 555 478 555Q451 555 428.5 532.0Q406 509 399 450L373 232L361 228L244 373Q233 387 219.5 398.0Q206 409 189 409Q171 409 159.5 396.5Q148 384 148 366Q148 351 153.0 328.5Q158 306 161 292L208 80L102 32ZM155 418Q162 423 169.5 425.5Q177 428 187 428Q192 428 198.0 428.0Q204 428 208 426L190 451H150L147 445Z" />
  </g>
</svg>