<svg xmlns="http://www.w3.org/2000/svg" viewBox="49 0 640 1001">
  <g transform="translate(0, 1001) scale(1, -1)">
    <path fill="black" d="M63 0V43L167 87L118 319Q115 333 111.0 353.0Q107 373 107 391Q107 408 117 425L100 483L108 498H133L113 563L88 516L70 524L98 577L51 572L49 591L103 597L86 651Q84 660 80.0 675.5Q76 691 76 707Q76 727 84.5 742.0Q93 757 114 757Q128 757 135.5 752.0Q143 747 147 739L131 729Q129 733 126.0 735.0Q123 737 115 737Q105 737 100.5 728.5Q96 720 96 707Q96 693 99.5 678.5Q103 664 104 657L118 614L128 635Q133 644 142.0 658.0Q151 672 165.0 682.5Q179 693 199 693Q220 693 233.5 682.0Q247 671 247 649Q247 627 235.0 613.5Q223 600 206.5 593.5Q190 587 175 585L128 580L154 498H177L238 407L337 286L362 589Q365 623 381.0 645.0Q397 667 418.5 683.5Q440 700 459 715L453 769L431 761L407 722L377 748L405 774L388 817L357 819L407 929L409 942Q416 971 436.5 986.0Q457 1001 496 1001Q551 1001 592.0 975.0Q633 949 644 892L664 707H610V77L689 43V0ZM538 726H644L625 892Q619 926 597.5 945.5Q576 965 548.5 973.5Q521 982 497 982Q472 982 453.0 972.0Q434 962 426 939L504 895Q509 899 515.0 902.0Q521 905 528 905Q541 905 548.5 895.5Q556 886 556 875Q556 868 551.5 856.5Q547 845 536 837ZM83 20H669V32L591 66V707H517L520 842Q530 850 534.0 859.5Q538 869 538 873Q538 876 536.5 881.5Q535 887 527 887Q517 887 506 875L421 923L381 832L400 831L420 776L467 791L478 704Q445 682 415.5 656.0Q386 630 382 590L352 257L339 252L222 397Q212 411 198.0 422.0Q184 433 167 433Q149 433 138.0 421.0Q127 409 127 390Q127 375 132.0 352.5Q137 330 140 316L189 80L83 32ZM445 866Q434 866 426.0 869.5Q418 873 411 878Q416 884 425.5 886.0Q435 888 437 888Q456 888 469 868Q462 867 456.0 866.5Q450 866 445 866ZM132 600 173 604Q190 606 209.0 616.5Q228 627 228 649Q228 660 220.0 666.5Q212 673 199 673Q177 673 164.5 655.0Q152 637 146 626ZM132 442Q148 453 165 453Q177 453 187 450L167 479H126L124 473Z" />
  </g>
</svg>