<svg xmlns="http://www.w3.org/2000/svg" viewBox="49 0 636 1001">
  <g transform="translate(0, 1001) scale(1, -1)">
    <path fill="black" d="M59 0V43L163 87L114 319Q111 333 107.5 353.0Q104 373 104 391Q104 410 113 425L96 483L104 498H124Q108 527 91.5 560.0Q75 593 66 619Q56 647 52.5 670.0Q49 693 49 714Q49 732 54.5 744.0Q60 756 71 756Q82 756 95.0 745.0Q108 734 118 716Q126 701 132.0 683.0Q138 665 142 645Q146 624 148.5 595.5Q151 567 152.5 540.5Q154 514 155 498H173L234 407L333 286L358 589Q361 623 377.0 645.0Q393 667 414.5 683.5Q436 700 455 715L449 769L409 756L384 817L353 819L403 929L405 942Q413 971 433.0 986.0Q453 1001 492 1001Q547 1001 588.0 975.0Q629 949 640 892L660 707H606V77L685 43V0ZM534 726H640L622 892Q616 926 594.0 945.5Q572 965 544.5 973.5Q517 982 493 982Q468 982 449.0 972.0Q430 962 422 939L500 895Q505 899 511.0 902.0Q517 905 524 905Q538 905 545.0 895.5Q552 886 552 875Q552 868 547.5 856.5Q543 845 532 837ZM79 20H666V32L587 66V707H513L516 842Q526 850 530.0 859.5Q534 869 534 873Q534 876 532.5 881.5Q531 887 523 887Q513 887 502 875L417 923L377 832L396 831L417 776L463 791L474 704Q441 682 411.5 656.0Q382 630 378 590L348 257L335 252L218 397Q208 411 194.5 422.0Q181 433 164 433Q145 433 134.0 421.0Q123 409 123 390Q123 375 128.0 352.5Q133 330 136 316L185 80L79 32ZM441 866Q430 866 422.0 869.5Q414 873 407 878Q412 884 421.5 886.0Q431 888 433 888Q452 888 465 868Q458 867 452.0 866.5Q446 866 441 866ZM135 515Q134 539 130.5 576.0Q127 613 122 641Q119 658 114.5 673.5Q110 689 104 702Q97 718 88.5 727.5Q80 737 74 737Q71 737 69.5 732.5Q68 728 68 714Q68 694 72.0 673.5Q76 653 84 625Q90 605 106.0 571.5Q122 538 135 515ZM128 442Q144 453 161 453Q173 453 183 450L163 479H123L120 473Z" />
  </g>
</svg>