<svg xmlns="http://www.w3.org/2000/svg" viewBox="49 0 626 1001">
  <g transform="translate(0, 1001) scale(1, -1)">
    <path fill="black" d="M668 559V547L596 536V77L675 43V0H49V43L152 87L104 319Q101 333 97.0 353.0Q93 373 93 391Q93 408 103 425L85 483L94 498H118L67 663Q54 706 61.5 731.5Q69 757 99 757Q113 757 120.5 752.0Q128 747 132 739L115 729Q114 733 110.5 735.0Q107 737 99 737Q78 737 78.5 715.0Q79 693 86 668L138 498H163L224 407L323 286L378 607Q386 655 406.0 680.0Q426 705 445 716L438 769L417 761L390 735L377 742L391 774L374 817L343 819L393 929L395 942Q402 971 422.5 986.0Q443 1001 482 1001Q535 1001 567.5 983.0Q600 965 615.0 938.5Q630 912 630 885Q630 847 618.0 816.0Q606 785 592 762Q607 755 624.5 734.5Q642 714 655.0 672.5Q668 631 668 559ZM573 767Q587 790 599.0 819.0Q611 848 611 885Q611 918 591.5 939.5Q572 961 542.5 971.5Q513 982 483 982Q458 982 439.0 972.0Q420 962 412 939L490 895Q495 899 501.0 902.0Q507 905 514 905Q527 905 534.5 895.5Q542 886 542 875Q542 868 537.5 856.5Q533 845 522 837Q518 821 520.0 794.0Q522 767 540 754ZM532 738Q515 749 508.0 768.5Q501 788 501.0 808.5Q501 829 505 842Q516 850 520.0 859.5Q524 869 524 873Q524 876 522.5 881.5Q521 887 513 887Q506 887 501.5 884.0Q497 881 492 875L407 923L367 832L386 831L406 776L453 791L462 724Q473 728 480.5 729.0Q488 730 492 730Q510 730 527 723ZM423 888Q442 888 455 868Q448 867 442.0 866.5Q436 866 431 866Q420 866 412.0 869.5Q404 873 396 878Q401 884 410.5 886.0Q420 888 423 888ZM581 746 549 733 544 714Q565 701 580.5 673.5Q596 646 596 598V555L649 563Q649 633 636.0 670.5Q623 708 607.5 724.5Q592 741 581 746ZM491 710Q464 710 436.5 687.0Q409 664 398 605L337 257L325 252L208 397Q198 411 184.0 422.0Q170 433 153 433Q135 433 124.0 421.0Q113 409 113 390Q113 375 117.5 352.5Q122 330 125 316L175 80L68 32V20H655V32L577 66V599Q577 649 556.0 679.5Q535 710 491 710ZM112 479 109 473 118 442Q132 453 151 453Q163 453 172 450L152 479Z" />
  </g>
</svg>