<svg xmlns="http://www.w3.org/2000/svg" viewBox="49 0 926 1001">
  <g transform="translate(0, 1001) scale(1, -1)">
    <path fill="black" d="M414 0Q377 0 350.0 21.0Q323 42 323 80Q323 120 389 151L585 246L597 365L586 364L399 359L286 360L284 385L319 395L307 402L245 395L238 427L313 444L333 439L326 469L318 467L289 473L270 504L271 515L277 518L268 533L305 561L234 875L182 583L163 588L167 609L134 620L126 599L106 605L114 625L80 636L68 617L49 623L223 924H244L325 565L583 553L581 588Q578 622 593.5 644.5Q609 667 632.5 683.5Q656 700 675 715L668 769L646 761L634 726L599 745L621 774L604 817L573 819L623 929L625 942Q632 971 652.5 986.0Q673 1001 712 1001Q767 1001 808.0 975.0Q849 949 860 892L881 518H827L815 379L824 287L842 285V95L890 60L975 45V0H886L750 38L516 9Q476 3 447.5 1.5Q419 0 414 0ZM734 537H861L841 892Q835 926 813.5 945.5Q792 965 764.5 973.5Q737 982 713 982Q688 982 669.0 972.0Q650 962 642 939L720 895Q725 899 731.0 902.0Q737 905 744 905Q757 905 764.0 895.5Q771 886 771 875Q771 868 767.0 856.5Q763 845 752 837ZM604 250 805 286 796 379 807 518H710L735 842Q746 850 750.0 859.5Q754 869 754 873Q754 876 752.5 881.5Q751 887 743 887Q736 887 731.5 884.0Q727 881 722 875L637 923L597 832L616 831L636 776L683 791L694 704Q672 689 649.5 672.5Q627 656 613.0 636.0Q599 616 601 589L608 476L684 557L697 542L576 416L384 397L347 422L313 431L254 420L256 409L312 416L345 396V390L299 378V375H399L588 383L597 385L745 511L756 496L616 374ZM661 866Q650 866 642.0 869.5Q634 873 626 878Q631 884 640.5 886.0Q650 888 653 888Q672 888 685 868Q678 867 672.0 866.5Q666 866 661 866ZM170 629 212 863 90 654ZM587 489 584 535 329 548 332 536 343 533 356 511 366 515ZM290 525 305 533 303 542 286 532ZM315 481H323L342 488L350 497L337 519L314 521L307 520L285 507L296 487ZM384 412 570 436 590 457 589 471 371 497 360 490 347 472H346L354 434H353ZM430 80 823 100V270H815L595 230L388 132ZM888 19H953V33L883 42L825 83L420 63L370 123Q341 108 341 82Q341 57 353.5 43.5Q366 30 383.5 25.0Q401 20 416 20Q433 20 463.0 22.0Q493 24 516 27L761 55Z" />
  </g>
</svg>