<svg xmlns="http://www.w3.org/2000/svg" viewBox="29 0 316 1001">
  <g transform="translate(0, 1001) scale(1, -1)">
    <path fill="black" d="M122 0V52L202 73Q218 78 224.0 84.5Q230 91 230 103Q230 118 228 126L144 561Q142 572 141.0 585.5Q140 599 140 615Q140 651 147.5 684.0Q155 717 174 741L168 790L147 782L105 709Q94 690 70.5 685.5Q47 681 29 688L36 707Q49 702 65.0 705.0Q81 708 87 719L128 788L113 833H84L127 936L129 948Q143 1001 209 1001Q241 1001 272.0 986.5Q303 972 324.0 946.0Q345 920 345 885V628H330V0ZM232 646H326V884Q326 916 305.5 937.5Q285 959 258.0 970.5Q231 982 210 982Q188 982 170.0 973.5Q152 965 147 945L215 906Q220 910 224.0 912.5Q228 915 237 915Q252 915 258.5 906.0Q265 897 265 886Q265 881 261.0 870.0Q257 859 248 853ZM142 20H311V628H209L229 857Q238 865 242.0 873.0Q246 881 246 885Q246 888 244.0 893.0Q242 898 234 898Q227 898 225.0 895.0Q223 892 218 886L143 930L108 848L125 847L143 796L182 810L191 731Q173 711 166.5 678.0Q160 645 160 616Q160 603 161.0 586.5Q162 570 164 559L246 124Q248 117 248.5 110.5Q249 104 249 95Q249 75 236.5 66.5Q224 58 210 54L142 34ZM165 878Q155 878 147.5 881.5Q140 885 134 890Q139 895 147.0 896.5Q155 898 157 898Q175 898 185 880Q179 879 174.0 878.5Q169 878 165 878Z" />
  </g>
</svg>