<svg xmlns="http://www.w3.org/2000/svg" viewBox="49 -17 1101 342">
  <g transform="translate(0, 308) scale(1, -1)">
    <path fill="black" d="M177 -17Q139 -17 110.0 5.5Q81 28 65.0 62.5Q49 97 49 133Q49 172 64.0 193.0Q79 214 107 221L121 223L231 272L232 241L280 223L354 267Q366 274 368.5 290.0Q371 306 366 318L385 325Q393 306 388.0 283.0Q383 260 365 249L291 207L281 177L335 170Q361 191 397.5 199.5Q434 208 473 208Q490 208 506.0 207.0Q522 206 533 204L1018 108Q1026 106 1042 106Q1056 106 1063.5 113.0Q1071 120 1075 138L1099 227H1150V0H459V-17ZM459 17H1131V210H1115L1093 132Q1089 116 1080.0 101.5Q1071 87 1048 87Q1038 87 1031.5 88.5Q1025 90 1017 91L535 185Q523 187 505.0 188.0Q487 189 473 189Q441 189 405.0 182.0Q369 175 346 153L259 164L274 209L219 229L218 249L127 208L175 123Q163 114 163 103Q163 95 168.5 93.0Q174 91 177 91Q181 91 190.5 95.5Q200 100 208 110L459 133ZM182 161Q162 172 162 192Q162 195 164.0 204.5Q166 214 171 219Q177 212 180.5 203.5Q184 195 184 184Q184 179 183.5 173.5Q183 168 182 161ZM178 0H439V111L212 93Q205 83 193.5 78.5Q182 74 175 74Q164 74 154.5 81.0Q145 88 145 101Q145 113 155 125L110 203Q88 196 77.5 176.5Q67 157 67 132Q67 109 80.0 77.5Q93 46 118.0 23.0Q143 0 178 0Z" />
  </g>
</svg>