<svg xmlns="http://www.w3.org/2000/svg" viewBox="49 0 1116 805">
  <g transform="translate(0, 805) scale(1, -1)">
    <path fill="black" d="M72 0V141L142 215V238L105 398V489Q78 511 63.5 544.5Q49 578 49 613Q49 652 64.0 673.0Q79 694 107 701L121 703L231 752L232 721L281 703L355 747Q367 754 369.5 770.0Q372 786 367 798L386 805Q394 786 389.0 763.0Q384 740 366 729L292 686L281 657L335 650Q361 671 397.5 679.5Q434 688 473 688Q490 688 506.0 687.0Q522 686 533 684L1018 588Q1026 586 1042 586Q1056 586 1063.5 593.0Q1071 600 1075 618L1099 707H1150V497H1165V402Q1161 398 1151.5 379.0Q1142 360 1133.5 337.5Q1125 315 1125 299Q1125 282 1132.5 264.5Q1140 247 1148.5 233.0Q1157 219 1161 211L1151 78L1135 55L1128 0H1030L1082 105L1083 183L1028 327V432H246L217 315L245 195L208 156L180 158L132 104V0ZM459 497H1131V690H1115L1093 612Q1089 596 1080.0 581.5Q1071 567 1048 567Q1038 567 1031.5 568.5Q1025 570 1017 571L535 665Q523 667 505.0 668.0Q487 669 473 669Q441 669 405.0 662.0Q369 655 346 633L259 644L274 689L219 709L218 729L127 688L175 603Q163 594 163 583Q163 575 168.5 573.0Q174 571 177 571Q181 571 190.5 575.5Q200 580 208 590L459 613ZM182 641Q162 652 162 672Q162 675 164.0 684.5Q166 694 171 699Q177 692 180.5 683.5Q184 675 184 664Q184 659 183.5 653.5Q183 648 182 641ZM178 480H439V591L212 573Q205 563 193.5 558.5Q182 554 175 554Q164 554 154.5 561.0Q145 568 145 581Q145 593 155 605L110 683Q88 676 77.5 656.5Q67 637 67 612Q67 589 80.0 557.5Q93 526 118.0 503.0Q143 480 178 480ZM1058 17H1110L1116 62L1132 85L1141 207Q1134 218 1119.5 244.0Q1105 270 1105 299Q1105 318 1114.0 341.0Q1123 364 1132.5 383.0Q1142 402 1145 408V478H459V463H177Q149 463 125 476V402L161 241V208L91 132V20H112V112L172 176L201 174L224 201L198 316L231 451H1047V340L1104 186L1102 101Z" />
  </g>
</svg>