<svg xmlns="http://www.w3.org/2000/svg" viewBox="49 0 830 1001">
  <g transform="translate(0, 1001) scale(1, -1)">
    <path fill="black" d="M82 0V45L167 60L180 69V80Q180 120 246 151L192 347Q191 352 189.0 364.0Q187 376 187 382Q187 408 202.5 430.5Q218 453 250 453Q264 453 280.0 446.5Q296 440 308 427L458 259L472 351L441 593L326 491L297 490L52 728L67 749L107 732L98 757L49 790L62 814L134 779L161 743L174 700L298 595L354 650Q375 671 399.5 697.0Q424 723 457 730L511 743L504 769L464 754L440 817L409 819L458 929L460 942Q468 971 488.5 986.0Q509 1001 548 1001Q584 1001 615.0 989.0Q646 977 665.0 955.0Q684 933 684 902Q684 874 667.5 847.0Q651 820 624 783V745L683 730Q719 770 763.0 802.0Q807 834 855 857L865 836Q822 816 782.5 787.5Q743 759 709 724L727 720Q753 714 766.5 693.0Q780 672 787 659L879 492L848 441L654 464L640 287L660 285V95L710 60L794 45V0H706L570 38L373 9Q333 3 304.5 1.5Q276 0 271 0Q240 0 218 13L171 0ZM612 795Q632 823 648.5 850.5Q665 878 665 906Q665 932 645.0 949.0Q625 966 598.0 974.0Q571 982 549 982Q524 982 505.0 972.0Q486 962 478 939L556 895Q561 899 567.0 902.0Q573 905 580 905Q593 905 600.0 895.5Q607 886 607 875Q607 868 602.0 858.5Q597 849 592 843L578 825ZM474 253 623 286 637 467 623 474 582 444 542 449 505 480 502 509 538 551 542 548 550 561 571 552Q606 645 669 716L605 732V779L557 820L579 851Q582 856 586.0 862.5Q590 869 590 873Q590 876 588.5 881.5Q587 887 579 887Q567 887 558 875L473 923L433 832L452 831L472 776L517 791L532 729L456 713Q443 711 426.5 697.5Q410 684 394.5 667.5Q379 651 368 640L300 572L165 685L146 737L124 769L71 797L67 790L114 759L128 717L122 712L76 733L72 728L300 509H319L443 617H457L490 352ZM497 866Q486 866 478.0 869.5Q470 873 462 878Q467 884 476.5 886.0Q486 888 489 888Q508 888 521 868Q514 867 508.0 866.5Q502 866 497 866ZM838 458 859 492 773 646Q766 658 752.0 678.5Q738 699 724 703L696 709Q629 637 592 542L631 525L649 523L676 622H694L798 518L794 502L625 509L587 529L582 514L584 512L577 503L541 535L515 504L517 488L546 463L581 459L623 490L650 479ZM777 518 688 605 667 522ZM563 529Q565 537 567 540L557 545L552 539ZM263 159 307 181 247 365 275 428Q263 434 249 434Q230 434 218.0 419.5Q206 405 206 382Q206 375 208.0 365.5Q210 356 212 348ZM325 189 449 245 290 420 266 366ZM287 80 643 100V270H635L465 234L245 132ZM708 19H775V33L703 42L645 83L277 63L227 123Q198 108 198 82Q198 57 210.5 43.5Q223 30 240.5 25.0Q258 20 272 20Q289 20 319.5 22.0Q350 24 373 27L580 55ZM101 19H168L199 27Q189 38 185 50L173 42L101 33Z" />
  </g>
</svg>