<svg xmlns="http://www.w3.org/2000/svg" viewBox="49 0 913 1010">
  <g transform="translate(0, 1010) scale(1, -1)">
    <path fill="black" d="M194 0V44L256 56Q271 58 276.0 70.5Q281 83 285 96L318 196L314 238L328 276L413 529L408 572L383 637L319 491L149 444L143 435L109 412L90 408L81 409L52 433L49 443L63 456L50 467L84 501L106 509L141 510L268 552L319 691Q341 751 404 751H424V772L387 775L379 826Q375 827 368.5 828.0Q362 829 356 829L388 898Q386 910 386 918Q386 938 403.5 955.5Q421 973 467 973Q513 973 536.5 948.0Q560 923 560 888Q560 875 555.5 859.0Q551 843 540 826L514 787V758L679 772L750 873L766 907L760 917L767 935L649 993L658 1010L764 958Q763 966 762.5 973.5Q762 981 761 985Q769 987 779.5 984.5Q790 982 793 973Q794 970 795.0 967.0Q796 964 796 961L813 968L836 958L852 945V915L962 860L954 842L848 895L845 888L812 862L735 705L621 684Q598 682 585.0 671.0Q572 660 567 641L548 573L544 538Q567 517 579.5 495.0Q592 473 592 439Q592 422 586.5 404.5Q581 387 579 369Q577 349 576.0 336.0Q575 323 575.5 310.0Q576 297 577 276Q586 246 596.0 189.0Q606 132 606 72Q606 45 603 19L598 0H458V44L513 56Q525 58 533.5 64.0Q542 70 542 79Q542 86 541 90L491 247L487 276H427L331 0ZM776 953 785 956Q784 961 782.5 967.5Q781 974 774 975ZM504 804 525 837Q530 845 535.0 858.5Q540 872 540 885Q540 910 522.0 932.0Q504 954 467 954Q433 954 419.0 943.0Q405 932 405 917Q405 907 407 903H472Q474 905 477.0 906.5Q480 908 487 908Q499 908 506.0 898.5Q513 889 513 878Q513 861 502 846L485 821ZM831 901 834 918 835 940 829 948 812 952 790 941 779 920 799 905ZM144 458 305 504 373 660 393 661 426 570 430 534 528 544 531 579 550 651Q556 673 571.5 687.5Q587 702 618 704L718 724L795 870L823 889L794 891L779 901L768 872L694 754L514 738Q497 738 497 759V790L466 818L485 849Q488 853 492.0 862.0Q496 871 496 875Q496 880 494.0 886.0Q492 892 483 892Q476 892 474.0 890.0Q472 888 471 886H399L379 841Q382 841 386.0 840.0Q390 839 393 839L400 788L441 785V734H404Q374 734 357.5 719.5Q341 705 336 691L282 539L152 497H106L85 487L66 468L72 462L92 479L119 482ZM424 860Q417 860 409.5 862.0Q402 864 402 870Q402 875 408.0 877.5Q414 880 421 880Q430 880 436.0 876.5Q442 873 447 868Q443 865 437.5 862.5Q432 860 424 860ZM355 294H557Q557 311 556.5 326.5Q556 342 560 370Q562 387 567.5 404.5Q573 422 573 438Q573 464 562.0 484.0Q551 504 530 527L429 517ZM94 422 101 424 130 442 131 450 115 466H96L64 441L83 425ZM476 20H584Q586 34 587.0 48.0Q588 62 588 77Q588 115 583.0 153.0Q578 191 571.5 223.0Q565 255 558 276H506L511 248L560 91Q561 87 561.0 84.0Q561 81 561 77Q561 61 548.0 52.5Q535 44 518 41L476 33ZM209 20H322L409 276H350L335 236L337 194L305 90Q292 45 265 41L209 33Z" />
  </g>
</svg>