<svg xmlns="http://www.w3.org/2000/svg" viewBox="47 0 904 1048">
  <g transform="translate(0, 1048) scale(1, -1)">
    <path fill="black" d="M539 994Q528 994 520.0 1002.0Q512 1010 512 1021Q512 1032 520.0 1040.0Q528 1048 539 1048Q550 1048 558.5 1040.0Q567 1032 567 1021Q567 1010 558.5 1002.0Q550 994 539 994ZM613 1020Q613 1031 621.5 1039.0Q630 1047 641 1047Q652 1047 660.0 1039.0Q668 1031 668 1020Q668 1009 660.0 1001.0Q652 993 641 993Q630 993 621.5 1001.0Q613 1009 613 1020ZM440 974Q429 974 421.0 982.0Q413 990 413 1001Q413 1012 421.0 1020.0Q429 1028 440 1028Q451 1028 459.0 1020.0Q467 1012 467 1001Q467 990 459.0 982.0Q451 974 440 974ZM713 1001Q713 1012 721.0 1020.0Q729 1028 740 1028Q751 1028 759.0 1020.0Q767 1012 767 1001Q767 990 759.0 981.5Q751 973 740 973Q729 973 721.0 981.5Q713 990 713 1001ZM809 968Q809 979 817.0 987.0Q825 995 836 995Q847 995 855.0 987.0Q863 979 863 968Q863 957 855.0 949.0Q847 941 836 941Q825 941 817.0 949.0Q809 957 809 968ZM349 932Q338 932 329.5 940.0Q321 948 321 959Q321 970 329.0 978.0Q337 986 348 986Q359 986 367.5 978.0Q376 970 376 959Q376 948 368.0 940.0Q360 932 349 932ZM259 0V44L321 56Q336 58 341.0 70.5Q346 83 350 96L383 196L379 238L393 276L478 529L473 572L448 637L373 466L179 458L125 429L49 443L51 472L115 469L129 479L89 485L92 513L180 516L324 530L384 691Q406 751 469 751H489V772L452 775L444 826Q440 827 433.5 828.0Q427 829 421 829L453 898Q451 910 451 918Q451 938 468.5 955.5Q486 973 532 973Q578 973 601.5 948.0Q625 923 625 888Q625 875 620.5 859.0Q616 843 604 826L579 787V758L759 739L834 846L871 926L897 918L888 879L902 889L923 949L951 940L936 864L888 819L805 660L677 666Q654 665 644.0 658.5Q634 652 629 632L613 573L609 538Q632 517 644.5 495.0Q657 473 657 439Q657 422 651.5 404.5Q646 387 644 369Q642 349 641.0 336.0Q640 323 640.5 310.0Q641 297 642 276Q651 246 661.0 189.0Q671 132 671 72Q671 45 668 19L663 0H523L522 44L578 56Q590 58 598.5 64.0Q607 70 607 79Q607 86 606 90L556 247L552 276H492L396 0ZM569 804 590 837Q595 845 600.0 858.5Q605 872 605 885Q605 910 587.0 932.0Q569 954 532 954Q498 954 484.0 943.0Q470 932 470 917Q470 907 472 903H537Q539 905 542.0 906.5Q545 908 552 908Q564 908 571.0 898.5Q578 889 578 878Q578 861 567 846L550 821ZM123 446 181 474 360 482 438 660 458 661 491 570 495 534 593 544 596 579 612 643Q618 669 633.0 677.5Q648 686 679 684L793 678L874 828L921 873L937 931L930 933L912 880L883 861L873 867L884 911L877 912L844 832L767 720L579 738Q562 739 562 759V790L531 818L550 849Q553 853 557.0 862.0Q561 871 561 875Q561 880 559.0 886.0Q557 892 548 892Q541 892 539.0 890.0Q537 888 536 886H464L444 841Q447 841 451.0 840.0Q455 839 458 839L465 788L506 785V734H469Q439 734 422.5 719.5Q406 705 401 691L338 516L189 502L103 501L102 494L146 488L148 477L120 457L63 460V453ZM269 870Q258 870 249.5 878.0Q241 886 241 897Q241 908 249.5 916.0Q258 924 269 924Q280 924 288.0 916.0Q296 908 296 897Q296 886 288.0 878.0Q280 870 269 870ZM489 860Q482 860 474.5 862.0Q467 864 467 870Q467 875 473.0 877.5Q479 880 486 880Q495 880 501.0 876.5Q507 873 512 868Q508 865 502.5 862.5Q497 860 489 860ZM202 793Q191 793 183.0 801.0Q175 809 175 820Q175 831 183.0 839.5Q191 848 202 848Q213 848 221.0 839.5Q229 831 229 820Q229 809 221.0 801.0Q213 793 202 793ZM149 707Q138 707 130.0 715.0Q122 723 122 734Q122 745 130.0 753.5Q138 762 149 762Q160 762 168.0 753.5Q176 745 176 734Q176 723 168.0 715.0Q160 707 149 707ZM107 615Q96 615 88.0 623.0Q80 631 80 642Q80 653 88.0 661.0Q96 669 107 669Q118 669 126.0 661.0Q134 653 134 642Q134 631 126.0 623.0Q118 615 107 615ZM75 519Q64 519 55.5 527.0Q47 535 47 546Q47 557 55.5 565.0Q64 573 75 573Q86 573 94.0 565.0Q102 557 102 546Q102 535 94.0 527.0Q86 519 75 519ZM420 294H622Q622 311 621.5 326.5Q621 342 625 370Q627 387 632.5 404.5Q638 422 638 438Q638 464 627.0 484.0Q616 504 595 527L493 517ZM541 20H649Q651 34 652.0 48.0Q653 62 653 77Q653 115 648.0 153.0Q643 191 636.5 223.0Q630 255 623 276H571L576 248L625 91Q626 87 626.0 84.0Q626 81 626 77Q626 61 613.0 52.5Q600 44 583 41L541 33ZM274 20H387L474 276H415L400 236L402 194L370 90Q357 45 330 41L274 33Z" />
  </g>
</svg>