<svg xmlns="http://www.w3.org/2000/svg" viewBox="49 0 537 1001">
  <g transform="translate(0, 1001) scale(1, -1)">
    <path fill="black" d="M49 0V43L115 54Q130 57 135.0 69.0Q140 81 144 94L176 292L291 510L244 678H241L194 555L162 422L169 353L154 314L125 325L135 349V364L131 365L122 341L117 313L130 282L102 273L84 308L82 340L104 417L128 579L165 711Q180 763 236 772L288 780V801L261 803L201 767L177 805L241 829L237 855Q232 856 225.5 856.5Q219 857 213 858L245 927Q249 956 266.0 978.5Q283 1001 329 1001Q375 1001 395.0 976.0Q415 951 417 917L427 785H381V777Q410 777 436 770Q461 764 478.5 751.5Q496 739 503 711L540 579L564 417L586 340L583 308L566 273L538 282L551 313L546 341L537 365L533 364V349L542 325L514 314L499 353L506 422L474 555L427 678H424L431 528Q443 509 451.0 490.0Q459 471 459 438Q459 426 453.5 409.0Q448 392 442.0 374.5Q436 357 436 342Q436 335 440.0 317.5Q444 300 446 290Q448 283 457.0 251.5Q466 220 474.5 173.0Q483 126 483 71Q483 53 481.5 35.0Q480 17 478 0H332V43L387 54Q399 57 408.0 62.5Q417 68 417 78Q417 84 416 88L406 121Q366 117 319.0 114.0Q272 111 224 109L189 0ZM356 802H407L399 914Q398 939 383.0 960.5Q368 982 331 982Q296 982 283.5 967.0Q271 952 266 932H331Q333 934 336.0 935.5Q339 937 346 937Q358 937 365.0 927.5Q372 918 372 907Q372 888 362 875ZM333 763Q351 763 366 772V785H336L343 877Q346 882 350.0 891.0Q354 900 354 904Q354 909 351.5 914.5Q349 920 340 920Q334 920 332.0 918.5Q330 917 328 915H256L237 870Q240 870 244.0 869.0Q248 868 250 868L257 825L262 815L304 814V770Q318 763 333 763ZM281 889Q274 889 266.5 891.0Q259 893 259 898Q259 903 265.5 906.0Q272 909 279 909Q288 909 294.0 905.5Q300 902 305 897Q300 894 294.5 891.5Q289 889 281 889ZM170 129Q230 130 274.5 131.5Q319 133 361.5 137.0Q404 141 458 148Q452 202 443.0 232.0Q434 262 427 290Q416 331 416 337Q416 353 422.0 372.0Q428 391 433.5 409.5Q439 428 439 439Q439 465 432.0 484.5Q425 504 412 520L406 698H437L459 641L499 653L486 701Q479 729 463.0 740.5Q447 752 426 756Q408 760 385 762Q361 743 333 743Q301 743 284 762L244 756Q221 752 205.5 740.0Q190 728 182 701L169 653L208 641L231 698H258L312 506L196 289ZM108 286 117 288 105 314 109 346 128 389 144 384 146 347 139 329 147 326 157 350 146 421 177 560 202 623 164 635 146 568 121 409 95 340 97 312ZM560 286 571 312 573 340 547 409 521 568 503 634 466 622 491 560 522 421 511 350 521 326 529 329 522 347 524 384 540 389 559 346 563 314 551 288ZM351 18H459Q461 32 462.0 46.5Q463 61 463 76Q463 102 460 129L424 123L434 89Q436 85 436.0 82.0Q436 79 436 76Q436 60 422.5 51.5Q409 43 392 40L351 31ZM64 18H177L206 109H165L160 88Q153 65 143.5 54.0Q134 43 120 40L64 31Z" />
  </g>
</svg>