<svg xmlns="http://www.w3.org/2000/svg" viewBox="49 0 819 1009">
  <g transform="translate(0, 1009) scale(1, -1)">
    <path fill="black" d="M93 0V45L162 57Q182 60 188.5 72.0Q195 84 198 98L231 326Q237 365 241.5 386.0Q246 407 255.5 417.5Q265 428 285 433L358 452L348 478L522 529L505 650L380 583L209 665L195 655L74 68L49 72L172 663L157 668L152 686L171 746L182 751L190 749L236 970L259 965L212 740L227 735L230 721V719L366 660L464 726Q472 731 478.5 736.5Q485 742 493 746L469 766L528 819L516 844Q509 844 502.0 844.5Q495 845 488 845L530 937L499 952L507 982Q500 983 491.5 986.0Q483 989 481 995Q483 1000 487.5 1004.5Q492 1009 505 1009Q512 1009 521.5 1004.5Q531 1000 531 989Q531 982 527.0 974.0Q523 966 523 958L533 954Q547 1001 613 1001Q683 1001 716.5 960.5Q750 920 750 853V840L813 924Q824 928 835.5 935.0Q847 942 847 958Q847 983 822 983Q810 983 805.5 976.5Q801 970 801 965Q801 959 803.5 954.0Q806 949 808 944L759 925L753 943L783 956Q781 960 781 966Q781 983 793.5 993.0Q806 1003 823 1003Q846 1003 857.0 989.5Q868 976 868 962Q868 940 856.0 926.5Q844 913 824 909L750 809V741Q760 735 766.5 726.5Q773 718 777 710L851 580L828 532L655 577L647 521V506Q647 455 635.5 420.0Q624 385 593.0 367.5Q562 350 504 350H453V249H662V489Q662 505 671.5 519.5Q681 534 703 534Q720 534 729.5 524.5Q739 515 739 501Q739 488 730.5 480.5Q722 473 711 473H702V490H709Q720 490 720 502Q720 507 716.0 511.5Q712 516 703 516Q690 516 686.0 507.5Q682 499 682 490V0H318V292L247 0ZM654 713 730 814V835Q730 900 706.0 940.5Q682 981 614 981Q595 981 576.5 974.5Q558 968 551 950L615 927Q621 933 628 933Q640 933 647.0 924.5Q654 916 654 906ZM626 527 636 582 619 586 600 580 586 589 565 560 548 572 569 600 566 602V621L599 674L611 677L622 669L635 687V905Q635 907 634.0 911.0Q633 915 627 915Q620 915 615 909L545 932L512 859Q517 859 520.5 858.5Q524 858 528 858L549 814L588 827L602 753L542 747Q528 746 515.5 739.0Q503 732 482 717L369 639L224 702L217 679L380 603L508 674L520 672L541 528ZM573 882Q553 882 538 895Q543 900 552.5 902.0Q562 904 564 904Q576 904 582.5 899.5Q589 895 596 884Q589 883 583.5 882.5Q578 882 573 882ZM515 758Q521 761 528.5 763.0Q536 765 545 766L581 769L575 804L542 796ZM670 703H730V783ZM199 677 212 721 185 730 172 687ZM820 552 833 578 762 698Q759 703 756.0 708.5Q753 714 750 719V686H701L784 593L782 587L640 619L630 602ZM656 634 677 686H658L638 658L650 650V635ZM742 615 689 669 675 629ZM609 601 632 640 608 656 585 616ZM414 367H501Q524 367 546.0 370.5Q568 374 586.5 386.5Q605 399 616.0 426.5Q627 454 627 503V510H522L375 465ZM112 19H235L318 364V367H392L365 435L288 414Q269 409 262.0 391.0Q255 373 248 323L214 92Q209 67 195.5 55.5Q182 44 164 42L112 33ZM337 17H433V350H337ZM453 17H476V212H662V232H453ZM495 17H662V195H495Z" />
  </g>
</svg>