<svg xmlns="http://www.w3.org/2000/svg" viewBox="49 3 429 995">
  <g transform="translate(0, 1001) scale(1, -1)">
    <path fill="black" d="M132 3V23H223Q237 86 251.0 153.0Q265 220 278 284H101V303H422Q431 326 444.0 375.0Q457 424 457 492Q457 521 450.5 555.0Q444 589 435 621H280V477H369V458H101V477H216Q216 493 208.5 516.5Q201 540 186 565L86 735Q72 758 60.5 786.0Q49 814 49 840Q49 874 57.0 898.0Q65 922 71 936L89 927Q84 914 76.0 893.0Q68 872 68 840Q68 826 74.5 806.5Q81 787 89.5 769.5Q98 752 103 744L203 575Q219 548 227.5 521.0Q236 494 236 477H260V806Q245 822 236.0 841.5Q227 861 227 883Q227 911 239.5 937.0Q252 963 276.5 980.5Q301 998 337 998Q371 998 396.0 982.0Q421 966 435.5 940.5Q450 915 450 886Q450 851 438.5 822.5Q427 794 407 757Q410 751 420.5 723.5Q431 696 444.0 656.5Q457 617 466.5 573.5Q476 530 476 492Q476 439 468.5 397.0Q461 355 452.0 327.5Q443 300 438 289Q444 270 453.5 239.0Q463 208 470.5 173.5Q478 139 478 111Q478 77 475.0 47.0Q472 17 469 3H391V23H453Q455 33 456.5 55.0Q458 77 458 111Q458 139 451.0 170.5Q444 202 435.0 232.5Q426 263 419 284H298L239 3ZM391 768Q409 802 420.0 828.0Q431 854 431 886Q431 921 405.0 950.0Q379 979 337 979Q308 979 288.0 964.5Q268 950 257.5 928.0Q247 906 247 883Q247 849 270.5 824.0Q294 799 327.5 785.0Q361 771 391 768ZM280 641H429Q417 680 405.0 710.0Q393 740 390 748Q363 750 334.0 760.5Q305 771 280 789ZM313 675V695H401V675ZM101 381V401H298V381Z" />
  </g>
</svg>