<svg xmlns="http://www.w3.org/2000/svg" viewBox="49 0 517 1001">
  <g transform="translate(0, 1001) scale(1, -1)">
    <path fill="black" d="M49 0V43L115 54Q130 56 135.5 68.5Q141 81 144 94L174 211L173 253L187 292L251 528L215 678H211L152 558L135 451L142 382L126 343L98 354L108 378L107 393L104 394L94 370L90 343L103 311L74 302L57 337L54 370L76 446L86 582L135 711Q144 736 162.5 752.5Q181 769 207 771L256 775V801L213 804L206 855Q201 856 194.5 856.5Q188 857 182 858L214 927Q212 937 212 947Q212 967 235.5 984.0Q259 1001 305 1001Q351 1001 374.5 976.0Q398 951 398 917Q398 888 378 855L362 827V777Q373 776 388.5 775.0Q404 774 416 771Q441 765 459.0 750.5Q477 736 486 711L548 585L562 420L566 340L556 310L531 279L506 294L525 322L527 350L523 375H520L516 361L520 335L490 331L484 372L506 438L482 561L410 678H407L390 547Q413 515 421.5 486.0Q430 457 430 424Q430 410 429.0 404.0Q428 398 426 378Q423 350 427.0 330.0Q431 310 435 292Q441 268 447.5 231.5Q454 195 458.5 153.0Q463 111 463 71Q463 53 462.0 35.0Q461 17 458 0H300V43L355 54Q368 56 376.5 61.5Q385 67 385 76Q385 84 379 103L319 292L313 328H311L301 292L204 0ZM344 833 365 866Q370 874 375.0 887.5Q380 901 380 914Q380 939 362.0 960.5Q344 982 307 982Q273 982 253.0 971.0Q233 960 233 946Q233 941 233.5 937.5Q234 934 234 932H312Q314 934 317.0 935.5Q320 937 327 937Q339 937 346.0 927.5Q353 918 353 907Q353 890 342 875L325 850ZM528 293 544 316 553 343 544 416 530 575 469 701Q459 728 443.5 740.0Q428 752 407 756Q394 758 380.0 759.5Q366 761 347 763V810L305 847L323 877Q326 882 330.0 891.0Q334 900 334 904Q334 909 332.0 914.5Q330 920 321 920Q315 920 313.0 918.5Q311 917 309 915H225L206 870Q208 870 212.0 869.0Q216 868 219 868L226 817L273 814V760Q266 760 247.5 759.0Q229 758 215 756Q194 754 178.5 741.0Q163 728 153 701L105 571L93 438L67 369L70 341L81 315L89 317L78 343L82 375L101 418L116 413L119 376L112 358L120 355L129 379L118 450L136 563L202 698H229L271 522L255 464Q280 469 304.5 482.0Q329 495 347.5 511.0Q366 527 372 542L373 541L393 698H419L499 566L522 433L495 367L499 341L507 342L505 362L516 396L531 398L540 352L537 320L520 297ZM250 889Q243 889 235.5 891.0Q228 893 228 898Q228 903 234.5 906.0Q241 909 248 909Q263 909 273 897Q269 894 263.5 891.5Q258 889 250 889ZM410 313Q406 330 406.0 346.0Q406 362 407 378Q409 395 410.0 402.0Q411 409 411 423Q411 445 404.5 471.5Q398 498 384 522Q368 498 330.5 475.0Q293 452 256 445Q273 401 293.0 379.5Q313 358 344 341Q358 334 377.5 326.0Q397 318 410 313ZM213 310Q232 315 259.5 324.0Q287 333 305 342Q287 355 272.0 374.0Q257 393 244 422ZM319 18H442Q444 32 445.0 46.5Q446 61 446 76Q446 113 441.0 153.5Q436 194 429.0 231.0Q422 268 415 292Q404 295 378.0 305.0Q352 315 334 325L339 292L396 106Q398 98 400.5 90.0Q403 82 403 76Q403 60 390.0 52.0Q377 44 360 40L319 31ZM64 18H191L283 292L288 318Q283 316 268.0 310.5Q253 305 235.5 299.5Q218 294 206 292L191 251V209L160 88Q154 65 144.0 54.0Q134 43 120 40L64 31Z" />
  </g>
</svg>