<svg xmlns="http://www.w3.org/2000/svg" viewBox="48.62222222222222 0 757.3777777777777 1001">
  <g transform="translate(0, 1001) scale(1, -1)">
    <path fill="black" d="M286 0V43L352 54Q367 57 372.5 69.0Q378 81 380 94L413 211L410 253L423 292H413L537 528L487 657L391 511L235 554L222 550L218 547L224 531L205 525L201 536H182L149 553L140 588L144 597L150 599L146 614L162 619Q133 633 102.0 654.5Q71 676 60 710Q44 757 50.5 817.5Q57 878 68 939L87 946L190 630L201 634L364 591L430 721Q441 742 462.0 759.5Q483 777 513 779V801L465 804L457 855Q452 856 445.5 856.5Q439 857 434 858L465 927Q465 931 464.5 937.0Q464 943 464 947Q463 967 480.5 984.0Q498 1001 544 1001Q590 1001 614.0 976.0Q638 951 638 917Q638 890 617 855L602 827V793Q617 793 637.0 791.5Q657 790 675.5 781.0Q694 772 705 751L756 653L772 489L794 473L806 445L802 389H780L777 428L765 439L762 411H742L727 463L706 603L659 689L664 547Q686 515 695.0 486.0Q704 457 704 424Q704 410 697.5 397.5Q691 385 689 365Q688 355 687.5 347.0Q687 339 687 331Q687 323 687.0 312.5Q687 302 688 292Q694 268 701.0 231.5Q708 195 712.5 153.0Q717 111 717 71Q717 53 716.0 35.0Q715 17 712 0H569V43L624 54Q636 57 644.5 62.5Q653 68 653 78Q653 84 652 88L603 262L598 292H519L426 0ZM583 833 604 866Q609 874 614.0 887.5Q619 901 619 914Q619 939 601.0 960.5Q583 982 546 982Q512 982 498.0 971.0Q484 960 484 946Q484 936 486 932H551Q553 934 556.0 935.5Q559 937 566 937Q579 937 585.5 927.5Q592 918 592 907Q592 890 581 875L564 850ZM788 401H793L795 441L782 464L759 482L741 644L686 745Q678 761 659.0 768.0Q640 775 602 775H586V810L544 847L563 877Q565 882 569.5 891.0Q574 900 574 904Q574 909 571.5 914.5Q569 920 561 920Q554 920 552.0 918.5Q550 917 548 915H477L457 870Q460 870 464.0 869.0Q468 868 470 868L478 817L529 814V763Q498 763 477.0 747.5Q456 732 446 712L374 571L195 618L162 607L165 603L194 609L218 595L224 569L234 568L385 533L485 686H496L552 537L646 554L641 709L661 717L721 608L741 468L750 420H754L757 456L764 458L784 438ZM501 889Q495 889 487.0 891.0Q479 893 479 898Q479 903 485.5 906.0Q492 909 499 909Q508 909 514.0 905.5Q520 902 525 897Q521 894 515.0 891.5Q509 889 501 889ZM168 637 81 900Q72 849 69.0 801.5Q66 754 78 716Q88 688 114.5 669.0Q141 650 168 637ZM189 549 200 550 214 560 207 587 192 595 155 586 161 564ZM442 309H668V326Q668 334 668.5 344.0Q669 354 670 365Q672 382 678.5 395.5Q685 409 685 423Q685 449 677.5 480.5Q670 512 649 538L551 521ZM301 18H414L501 292H443L428 251V209L396 88Q392 64 381.0 53.5Q370 43 356 40L301 31ZM587 18H696Q698 32 699.0 46.5Q700 61 700 76Q700 113 695.0 153.5Q690 194 683.0 231.0Q676 268 669 292H618L622 263L671 89Q672 85 672.0 82.0Q672 79 672 76Q672 60 659.0 51.5Q646 43 629 40L587 31Z" />
  </g>
</svg>