<svg xmlns="http://www.w3.org/2000/svg" viewBox="49 0 896 1001">
  <g transform="translate(0, 1001) scale(1, -1)">
    <path fill="black" d="M49 0V45L133 60L147 69Q146 73 146 80Q146 121 213 151L159 347Q158 352 155.5 364.0Q153 376 153 382Q153 408 169.0 430.5Q185 453 216 453Q231 453 247.0 446.5Q263 440 274 427L424 259L439 351L386 591L186 587L138 816L83 921L106 938L137 907L136 934L103 981L129 1001L182 941L194 899L191 838L254 682L455 715L447 744L407 730L383 793L352 794L401 905L403 918Q411 947 431.5 962.0Q452 977 491 977Q527 977 558.0 965.0Q589 953 607.5 930.5Q626 908 626 877Q626 849 610.0 822.0Q594 795 567 758V715L774 682L837 838L834 899L846 941L899 1001L925 981L892 934L891 907L921 938L945 921L890 816L842 587L660 591L619 446L607 287L627 285V95L677 60L761 45V0H672L537 38L339 9Q300 3 271.5 1.5Q243 0 238 0Q207 0 185 13L138 0ZM441 253 589 286 602 451 647 611 827 607 875 821 925 914 919 919 884 883 876 886 875 930 906 976 899 981 860 935 853 897 854 833 786 662 548 699V754L500 796L522 827Q525 832 529.0 838.5Q533 845 533 849Q533 852 531.0 857.5Q529 863 521 863Q514 863 510.0 859.5Q506 856 501 850L416 898L375 808L395 807L415 751L460 766L475 701L242 662L174 833L175 897L167 935L128 981L122 976L153 930L151 886L144 883L109 919L103 914L153 821L201 607L401 611L458 352ZM555 771Q575 799 591.5 826.0Q608 853 608 882Q608 908 588.0 924.5Q568 941 541.0 949.5Q514 958 492 958Q467 958 448.0 948.0Q429 938 421 915L499 870Q511 880 523 880Q536 880 543.0 870.5Q550 861 550 850Q550 844 545.0 834.5Q540 825 535 818L521 801ZM440 841Q429 841 421.0 844.5Q413 848 405 854Q410 860 419.5 861.5Q429 863 432 863Q452 863 463 844Q450 841 440 841ZM230 159 274 181 213 365 242 428Q230 434 215 434Q196 434 184.0 419.5Q172 405 172 382Q172 375 174.5 365.5Q177 356 179 348ZM292 189 416 245 257 420 233 366ZM254 80 610 100V270H602L432 234L212 132ZM675 19H742V33L670 42L612 83L244 63L194 123Q165 109 165 82Q165 57 177.5 43.5Q190 30 207.5 25.0Q225 20 239 20Q256 20 285.0 22.5Q314 25 336 29L543 59ZM68 19H135L166 27Q156 38 152 50L140 42L68 33Z" />
  </g>
</svg>