<svg xmlns="http://www.w3.org/2000/svg" viewBox="49 0 789 1001">
  <g transform="translate(0, 1001) scale(1, -1)">
    <path fill="black" d="M270 0Q227 0 201.0 21.5Q175 43 175 81Q175 107 192.0 121.5Q209 136 242 151L405 225Q398 235 384.5 259.5Q371 284 371 315Q371 340 382.5 367.0Q394 394 410.0 418.5Q426 443 440.5 462.0Q455 481 461 490L430 522L332 419L213 349L142 254L116 268L131 309L106 298L76 247L49 261L80 335L114 364L163 382L287 487L364 596Q392 646 412.0 674.0Q432 702 449.5 716.0Q467 730 487 736L507 743L500 769L460 754L436 817L405 819L455 929L457 942Q464 971 484.5 986.0Q505 1001 544 1001Q589 1001 625.5 982.5Q662 964 674 931L735 987L764 939L710 920L779 919L771 864L680 892Q680 880 682.0 843.5Q684 807 688 720L719 712Q745 706 756.5 686.0Q768 666 773 652L838 498L800 358L822 301L815 257L779 186L750 198L770 253L762 279L741 242L714 252L743 379L753 498L695 588L700 507H664L638 393L636 287L656 285V95L706 60L790 45V0H701L565 38L368 9Q329 3 302.0 1.5Q275 0 270 0ZM554 526H679L665 810Q664 833 662.5 860.0Q661 887 661 906Q661 932 641.0 949.0Q621 966 594.0 974.0Q567 982 545 982Q520 982 501.0 972.0Q482 962 474 939L552 895Q557 899 563.0 902.0Q569 905 576 905Q589 905 596.5 895.5Q604 886 604 875Q604 868 598.5 858.5Q593 849 588 843L570 818ZM420 232 618 286 621 397 646 507H530L553 820L575 851Q579 856 582.5 862.5Q586 869 586 873Q586 876 584.5 881.5Q583 887 575 887Q568 887 563.5 884.0Q559 881 554 875L469 923L429 832L448 831L468 776L513 791L528 729L492 719Q473 714 446.5 686.5Q420 659 377 585L298 475L175 369L124 348L92 324L67 269L75 266L104 314L144 331L149 325L131 278L140 275L202 361L321 431L419 534L400 557L457 643L472 634L423 557L484 489Q474 477 458.5 456.0Q443 435 427.0 410.5Q411 386 400.5 360.5Q390 335 390 314Q390 282 401.5 262.5Q413 243 420 232ZM493 866Q482 866 474.0 869.5Q466 873 458 878Q463 884 472.5 886.0Q482 888 485 888Q504 888 517 868Q510 867 504.0 866.5Q498 866 493 866ZM773 205 799 259 804 298 782 357 817 502 756 642Q751 655 741.0 672.5Q731 690 717 694L689 702L694 628L772 497L759 375L731 264L739 260L763 304L771 303L784 262L765 208ZM283 80 639 100V270H630L437 217L241 132ZM704 19H771V33L699 42L641 83L272 63L223 123Q194 109 194 82Q194 57 206.5 43.5Q219 30 236.0 25.0Q253 20 268 20Q285 20 313.5 22.5Q342 25 365 29L572 59Z" />
  </g>
</svg>