<svg xmlns="http://www.w3.org/2000/svg" viewBox="49 0 648 1001">
  <g transform="translate(0, 1001) scale(1, -1)">
    <path fill="black" d="M293 0 281 42 287 68 238 139 267 183Q234 180 229 180Q195 180 171.0 199.5Q147 219 147 250Q147 271 163.0 285.5Q179 300 206 311L346 370Q348 404 357.5 444.0Q367 484 376.0 522.0Q385 560 385 584L363 605L281 524L183 467L125 392L104 403L116 436L98 427L74 386L49 397L74 458L102 481L138 496L238 582L301 670Q325 711 341.5 734.0Q358 757 372.0 768.5Q386 780 402 785L418 790L414 809L380 798L360 851L335 853L375 942L377 953Q389 1001 453 1001Q478 1001 503.5 995.5Q529 990 547.5 971.0Q566 952 568 912L575 776L600 768Q622 763 630.5 745.5Q639 728 643 717L697 591L667 477L684 430L678 394L645 336L619 346L635 391L631 412L614 381L588 390L611 494L623 590L581 657L584 598H555L534 504L532 418L548 417V266L584 237L653 226V180H581L486 206L531 139L483 69L488 42L477 0L449 3L454 36L447 42L435 24L411 41L473 134L422 204H420V184Q431 169 437.5 158.0Q444 147 444 136Q444 114 428.0 101.0Q412 88 389 88Q374 88 362.5 97.0Q351 106 348 119L347 124L327 169H344L348 187L370 188V196L339 192L296 133L356 42L334 23L321 41L315 35L319 3ZM461 614H563L552 860Q550 898 546.0 925.0Q542 952 522.5 966.5Q503 981 454 981Q411 981 400 954L459 917Q469 925 479 925Q490 925 496.5 916.0Q503 907 503 898Q503 884 493 872L478 852ZM366 377 513 417 515 509 536 598H441L460 854L478 879Q487 888 487 896Q487 899 486.0 903.5Q485 908 478 908Q468 908 461 898L392 937L359 863L375 862L391 817L426 829L438 779L411 771Q395 767 373.0 744.0Q351 721 316 662L252 572L151 485L110 468L84 449L64 404L70 401L93 440L126 455L131 449L116 412L123 409L174 479L271 536L351 620L335 639L382 708L399 702L359 639L405 587Q401 543 385.5 488.0Q370 433 366 377ZM411 891Q402 891 395.5 894.0Q389 897 383 901Q388 906 395.5 907.5Q403 909 405 909Q414 909 419.5 905.0Q425 901 431 893Q425 892 420.5 891.5Q416 891 411 891ZM640 352 661 396 665 427 647 476 677 594 627 708Q623 719 614.0 733.5Q605 748 594 751L576 757L580 697L643 593L628 490L606 399L612 396L631 432H638L648 398L633 354ZM241 253 530 270V401H523L366 358L208 292ZM583 196H638V211L579 218L532 252L231 235L190 285Q167 271 167 251Q167 220 188.5 208.5Q210 197 228 197Q242 197 265.0 199.5Q288 202 307 205L476 229ZM466 10 473 41 465 68 512 139 465 210 440 207 491 135 427 42 432 37 446 55 465 42 460 11ZM356 128 392 148Q394 147 395.0 145.0Q396 143 399 143Q405 143 405 148Q405 152 401 156L389 173L406 186V202L382 198V179L355 178L352 161H342ZM303 10 308 11 304 41 323 55 337 36 342 41 277 135 315 188H310Q304 187 298.5 186.0Q293 185 288 185L257 138L303 67L295 41ZM388 102Q405 102 418.0 111.5Q431 121 431 134Q431 145 425.5 155.0Q420 165 412 175L404 170L410 162Q412 159 414.0 155.5Q416 152 416 147Q415 142 412.0 137.5Q409 133 402 133Q399 133 397.0 134.5Q395 136 393 137L361 119Q369 102 388 102ZM365 141Q359 141 355 145Q360 149 368 149Q374 149 378 148Q372 141 365 141Z" />
  </g>
</svg>