<svg xmlns="http://www.w3.org/2000/svg" viewBox="49 0 648 1001">
  <g transform="translate(0, 1001) scale(1, -1)">
    <path fill="black" d="M197 0 243 71V180H229Q195 180 171.0 199.5Q147 219 147 250Q147 271 163.0 285.5Q179 300 206 311L346 370Q348 404 357.5 444.0Q367 484 376.0 522.0Q385 560 385 584L363 605L281 524L183 467L125 392L104 403L116 436L98 427L74 386L49 397L74 458L102 481L138 496L238 582L301 670Q325 711 341.5 734.0Q358 757 372.0 768.5Q386 780 402 785L418 790L414 809L380 798L360 851L335 853L375 942L377 953Q389 1001 453 1001Q478 1001 503.5 995.5Q529 990 547.5 971.0Q566 952 568 912L575 776L600 768Q622 763 630.5 745.5Q639 728 643 717L697 591L667 477L684 430L678 394L645 336L619 346L635 391L631 412L614 381L588 390L611 494L623 590L581 657L584 598H555L534 504L532 418L548 417V266L584 237L653 226V180H581L522 195V71L567 0H457L502 71V201L469 209L392 199V71L438 0H327L373 71V196L310 188Q297 187 285.5 185.0Q274 183 262 182V71L308 0ZM461 614H563L552 860Q550 898 546.0 925.0Q542 952 522.5 966.5Q503 981 454 981Q411 981 400 954L459 917Q469 925 479 925Q490 925 496.5 916.0Q503 907 503 898Q503 884 493 872L478 852ZM366 377 513 417 515 509 536 598H441L460 854L478 879Q487 888 487 896Q487 899 486.0 903.5Q485 908 478 908Q468 908 461 898L392 937L359 863L375 862L391 817L426 829L438 779L411 771Q395 767 373.0 744.0Q351 721 316 662L252 572L151 485L110 468L84 449L64 404L70 401L93 440L126 455L131 449L116 412L123 409L174 479L271 536L351 620L335 639L382 708L399 702L359 639L405 587Q401 543 385.5 488.0Q370 433 366 377ZM411 891Q402 891 395.5 894.0Q389 897 383 901Q388 906 395.5 907.5Q403 909 405 909Q414 909 419.5 905.0Q425 901 431 893Q425 892 420.5 891.5Q416 891 411 891ZM640 352 661 396 665 427 647 476 677 594 627 708Q623 719 614.0 733.5Q605 748 594 751L576 757L580 697L643 593L628 490L606 399L612 396L631 432H638L648 398L633 354ZM241 253 530 270V401H523L366 358L208 292ZM583 196H638V211L579 218L532 252L231 235L190 285Q167 271 167 251Q167 220 188.5 208.5Q210 197 228 197Q242 197 265.0 199.5Q288 202 307 205L476 229ZM491 19H534L512 51ZM361 19H404L382 51ZM231 19H274L252 51Z" />
  </g>
</svg>