<svg xmlns="http://www.w3.org/2000/svg" viewBox="49 0 653 1001">
  <g transform="translate(0, 1001) scale(1, -1)">
    <path fill="black" d="M182 0Q139 0 113.0 21.5Q87 43 87 81Q87 107 104.0 121.5Q121 136 154 151L185 166L230 358L49 484L60 500L235 378L264 503L283 499L252 367L328 313Q342 358 359.5 401.5Q377 445 375 485L313 557L424 728L413 769L372 754L348 817L317 819L367 929L369 942Q376 971 396.5 986.0Q417 1001 456 1001Q502 1001 529.5 988.5Q557 976 570 955Q580 970 594.5 983.5Q609 997 628 997Q651 997 659.5 986.0Q668 975 668 962Q668 939 642.5 923.5Q617 908 588 907Q605 894 626.0 882.0Q647 870 660 868L658 846Q645 848 627.0 857.5Q609 867 592 877L612 507H576L550 393L548 287L568 285V95L618 60L702 45V0H613L478 38L280 9Q241 3 214.0 1.5Q187 0 182 0ZM466 526H591L575 827Q573 857 571.0 884.5Q569 912 559.0 934.0Q549 956 525.5 969.0Q502 982 457 982Q432 982 413.0 972.0Q394 962 386 939L464 895Q469 899 475.0 902.0Q481 905 488 905Q501 905 508.5 895.5Q516 886 516 875Q516 868 510.5 858.5Q505 849 500 843L482 818ZM584 924Q604 928 625.0 939.0Q646 950 646 962Q646 967 642.5 972.0Q639 977 628 977Q615 977 602.0 961.0Q589 945 581 934Q583 932 583.0 929.5Q583 927 584 924ZM333 232 530 286 533 397 558 507H442L465 820L487 851Q491 856 494.5 862.5Q498 869 498 873Q498 876 496.5 881.5Q495 887 487 887Q477 887 466 875L381 923L341 832L360 831L380 776L425 791L443 725L335 557L396 489Q396 449 380.5 405.5Q365 362 349.5 318.0Q334 274 333 232ZM405 866Q394 866 386.0 869.5Q378 873 371 878Q376 884 385.5 886.0Q395 888 397 888Q416 888 429 868Q422 867 416.0 866.5Q410 866 405 866ZM207 175 315 224Q312 258 323 294L247 347ZM195 80 551 100V270H542L349 217L153 132ZM616 19H683V33L611 42L553 83L185 63L135 123Q106 109 106 82Q106 57 118.5 43.5Q131 30 148.5 25.0Q166 20 180 20Q197 20 226.0 22.5Q255 25 277 29L484 59Z" />
  </g>
</svg>