<svg xmlns="http://www.w3.org/2000/svg" viewBox="49 0 669 1001">
  <g transform="translate(0, 1001) scale(1, -1)">
    <path fill="black" d="M49 0V43L131 54Q146 56 157.0 74.0Q168 92 169 105L170 337Q170 361 184.5 387.0Q199 413 227 429L204 499L199 473L175 477L176 512L170 498L160 454L136 457L139 520L158 551L180 576Q191 590 200.0 602.0Q209 614 220 627Q223 634 230.0 643.5Q237 653 249 660L265 671L266 682Q257 687 241.0 702.0Q225 717 225 739Q225 762 240.0 779.5Q255 797 284 797Q305 797 316.0 784.0Q327 771 329 758Q331 755 338.0 744.5Q345 734 352 725L343 720L344 716L490 784L509 792L505 809L472 798L452 851H426L467 942L468 953Q482 1001 544 1001Q569 1001 595.0 995.5Q621 990 639.0 971.0Q657 952 659 912L675 616H646L632 540Q636 542 640.5 542.0Q645 542 649 542Q680 542 687.0 523.5Q694 505 694 483V443Q694 427 702.5 413.5Q711 400 718 394L705 378Q695 386 684.5 403.5Q674 421 674 443V483Q674 497 670.0 510.0Q666 523 649 523Q633 523 629.0 511.5Q625 500 625 483V0H300V352Q284 346 278.5 332.0Q273 318 271 303Q266 274 261.0 231.5Q256 189 249.5 144.5Q243 100 233 63L230 0ZM569 632H654L643 860Q641 898 637.5 925.0Q634 952 614.5 966.5Q595 981 545 981Q503 981 492 954L551 917Q561 925 570 925Q581 925 588.0 916.0Q595 907 595 898Q595 893 591.5 885.0Q588 877 584 872L569 852ZM486 599 550 678V854L569 879Q578 888 578 896Q578 899 577.0 903.5Q576 908 569 908Q561 908 552 898L483 937L450 863L466 862L482 817L518 829L530 779L487 764L349 700L350 694L333 685L334 679L362 659L473 708L490 702L450 639ZM502 891Q493 891 486.5 894.0Q480 897 474 901Q479 906 486.5 907.5Q494 909 496 909Q512 909 522 893Q516 892 511.5 891.5Q507 891 502 891ZM252 366 258 369 247 403 264 410 274 387 280 389 265 424 250 435 229 521 258 607H272L289 497L371 511Q357 517 357 541V609H365L404 543V519L417 521L416 562L386 628L324 671L320 689L338 700L332 725L337 728L318 754L279 733Q277 740 271 740Q264 740 264 733Q264 727 269.5 725.0Q275 723 279 723L295 689L277 681V664L257 650Q241 639 236.5 629.0Q232 619 230 611Q224 590 217.0 563.5Q210 537 209 526Q211 521 216.0 504.5Q221 488 227.5 467.5Q234 447 240 429L236 401ZM299 728Q301 733 303.5 736.0Q306 739 313 739Q318 739 320 738Q317 733 313.5 731.0Q310 729 299 728ZM431 531 476 586 427 639 457 684 378 648 397 635 430 565ZM291 449 460 483 578 616H550V651L435 508L290 483L278 477L276 469L279 454ZM491 376H556Q592 376 598.5 393.5Q605 411 605 441V483Q605 489 605.0 495.5Q605 502 606 509L627 616H602L472 472L454 468L471 456ZM152 464 162 509 182 533 187 530 184 489 192 488 196 521Q195 524 194.5 525.5Q194 527 194 528L211 593Q207 587 203.0 581.0Q199 575 195 570L169 542L151 515L146 466ZM265 437 277 442 268 448 263 472 265 487 276 494 262 582 243 521 260 440ZM391 517 392 539 371 575V541Q371 533 375.0 526.0Q379 519 391 517ZM537 308 540 319 485 339 458 449 436 463 400 458 418 444 426 428 474 325ZM477 285 478 294 416 310 405 438 382 454 317 441 378 412 404 297ZM64 18H213L216 62Q226 106 232.0 154.5Q238 203 242.5 246.5Q247 290 252 318Q257 341 271.5 358.5Q286 376 321 376H370L363 403L300 433L288 432Q284 431 279.0 429.0Q274 427 273 426L290 386L272 378L261 401L256 398L268 364L248 354L224 398V403Q207 387 199.0 366.5Q191 346 191 329L189 99Q188 74 171.0 58.0Q154 42 139 40L64 31ZM424 376H434L420 405ZM359 20H420V264H605V370Q595 362 584.0 359.0Q573 356 562 356H496L498 347L552 326L544 294L463 315L445 356H425L428 318L490 303L485 273L391 287L374 356H359ZM319 20H340V356H319ZM439 20H460V224H605V245H439ZM479 20H605V205H479Z" />
  </g>
</svg>