<svg xmlns="http://www.w3.org/2000/svg" viewBox="53 0 750 1001">
  <g transform="translate(0, 1001) scale(1, -1)">
    <path fill="black" d="M209 678Q271 678 298.5 637.5Q326 597 326 525V454H345L405 365L501 247L522 399L478 462L575 623L567 698L527 683L502 747L471 748L521 860Q511 865 498.5 871.5Q486 878 486 888Q486 896 489.5 900.5Q493 905 493 908Q493 913 487 913H477Q476 913 473.0 913.5Q470 914 470 917Q470 919 478.0 925.0Q486 931 501 931Q512 931 517.5 924.5Q523 918 523 912Q523 902 518.0 900.0Q513 898 513 890Q513 882 524 876Q530 895 549.0 908.0Q568 921 594 927Q590 941 579.0 952.5Q568 964 554 969V1001H715V969Q701 964 690.0 951.5Q679 939 675 925Q711 917 736.5 888.5Q762 860 765 798L785 365H724V77L803 43V0H231V43L335 87L286 275Q282 289 278.5 309.0Q275 329 275 347Q275 364 285 381L268 439L276 454H298V524Q298 595 275.5 622.5Q253 650 209 650Q174 650 146.5 620.5Q119 591 119 525V447Q139 440 147.0 416.5Q155 393 155 373H143Q145 360 148.0 338.5Q151 317 151 300Q151 257 136.5 224.5Q122 192 104 192Q86 192 71.5 224.5Q57 257 57 300Q57 317 60.0 338.5Q63 360 65 373H53Q53 393 62.0 417.0Q71 441 91 448V527Q91 577 108.0 610.5Q125 644 152.0 661.0Q179 678 209 678ZM575 984V977Q587 971 597.0 957.0Q607 943 611 929Q616 930 623.0 930.0Q630 930 634 930Q639 930 646.5 930.0Q654 930 658 929Q662 943 672.5 957.0Q683 971 695 977V984ZM635 912Q597 912 573.5 902.0Q550 892 540 868L618 824Q630 834 642 834Q655 834 662.5 824.5Q670 815 670 804Q670 797 663.5 787.0Q657 777 652 771L637 383H764L746 798Q744 847 724.0 871.0Q704 895 678.5 903.5Q653 912 635 912ZM581 720 584 699 595 619 501 462 542 406 514 199 390 354Q380 367 366.5 378.0Q353 389 336 389Q317 389 306.0 377.0Q295 365 295 346Q295 331 299.5 308.5Q304 286 308 272L357 80L251 32V20H783V32L705 66V365H615L633 769Q634 775 643.0 786.5Q652 798 652 802Q652 805 650.5 810.5Q649 816 641 816Q631 816 620 804L535 852L495 761L514 760L534 705ZM551 817Q571 817 583 797Q576 796 570.0 795.5Q564 795 559 795Q548 795 540.0 798.5Q532 802 525 808Q530 813 539.5 815.0Q549 817 551 817ZM295 435 292 429 300 398Q308 403 316.0 406.0Q324 409 333 409Q345 409 354 406L335 435ZM92 405V391Q86 375 80.0 348.0Q74 321 74 300Q74 265 84.0 238.0Q94 211 104 211Q115 211 124.5 238.0Q134 265 134 300Q134 321 128.0 348.0Q122 375 116 391V405Z" />
  </g>
</svg>