<svg xmlns="http://www.w3.org/2000/svg" viewBox="49 0 626 1001">
  <g transform="translate(0, 1001) scale(1, -1)">
    <path fill="black" d="M49 0V43L152 87L104 247Q100 260 96.5 280.0Q93 300 93 318Q93 344 110.0 362.0Q127 380 151 380Q179 380 192.0 369.5Q205 359 219 341L323 213L348 454Q352 488 367.5 510.0Q383 532 404.5 548.5Q426 565 445 580L438 633L408 623L366 550Q355 531 331.5 526.5Q308 522 290 529L297 548Q311 543 326.5 546.5Q342 550 348 560L392 634L374 682L343 683L382 771Q387 806 408.0 829.5Q429 853 461 860Q453 865 446 874Q439 871 430 871Q408 871 392.5 883.0Q377 895 369.0 911.0Q361 927 361 940Q361 950 368.5 958.5Q376 967 388 970Q381 969 373.0 973.0Q365 977 365 983Q365 988 373.0 993.5Q381 999 395 999Q412 999 418.5 989.5Q425 980 425 972Q425 959 421.0 948.5Q417 938 417 924Q417 912 421.5 905.5Q426 899 432 903Q430 910 429.5 914.5Q429 919 429 924Q429 955 451.0 978.0Q473 1001 507 1001Q539 1001 561.5 978.5Q584 956 584 924Q584 916 583 913L625 866L618 853Q609 860 595.5 870.0Q582 880 574 885Q564 869 549 859Q584 850 605.5 825.0Q627 800 630 756L650 431H596V77L675 43V0ZM429 884Q436 884 438 886L436 889Q435 889 433.0 888.5Q431 888 430 888Q420 888 411.0 897.5Q402 907 402 924Q402 942 405.5 951.0Q409 960 409 972Q409 977 406.0 982.5Q403 988 395 988Q387 988 384.0 986.0Q381 984 381 983Q381 980 391.0 977.5Q401 975 404 974V964Q395 961 387.0 956.0Q379 951 379 940Q379 923 390.0 903.5Q401 884 429 884ZM507 866Q531 866 548.0 883.0Q565 900 565 924Q565 948 548.0 965.0Q531 982 507 982Q483 982 466.0 965.0Q449 948 449 924Q449 900 466.0 883.0Q483 866 507 866ZM504 450H629L611 756Q608 804 576.0 825.0Q544 846 507 846Q467 846 437.5 827.5Q408 809 397 765H491Q497 771 511 771Q527 771 534.5 760.5Q542 750 542 739Q542 732 537.5 720.5Q533 709 522 702ZM68 20H655V32L576 66V431H480L505 707Q516 715 520.0 724.0Q524 733 524 737Q524 742 521.0 748.0Q518 754 507 754Q496 754 492 746H388L367 696L386 695L406 640L453 655L464 568Q431 546 401.5 520.0Q372 494 368 454L340 184H325L208 325Q198 338 184.0 349.0Q170 360 153 360Q135 360 124.0 348.0Q113 336 113 317Q113 302 117.0 279.5Q121 257 125 244L175 80L68 32ZM434 714Q423 714 415.0 717.5Q407 721 399 727Q404 732 413.5 734.0Q423 736 426 736Q445 736 458 716Q451 715 445.0 714.5Q439 714 434 714Z" />
  </g>
</svg>