<svg xmlns="http://www.w3.org/2000/svg" viewBox="49 0 628 1001">
  <g transform="translate(0, 1001) scale(1, -1)">
    <path fill="black" d="M98 0V43L201 87L156 295Q153 309 149.5 328.5Q146 348 146 366Q146 384 153 397L125 469L133 479L151 476L127 550L76 516L59 555L111 570L76 602Q65 613 57.0 626.0Q49 639 49 655Q49 673 60.0 687.0Q71 701 93 701Q122 701 133.0 679.5Q144 658 144 620V581L190 613L208 576L146 560L196 468L227 463L239 420Q247 415 254.5 407.5Q262 400 270 390L374 262L391 415H349V446Q349 470 355.5 497.0Q362 524 372.0 548.5Q382 573 394 587L252 709H230L316 780Q327 789 340.5 798.5Q354 808 371 813Q347 826 332.5 849.5Q318 873 318 902Q318 943 347.0 972.0Q376 1001 417 1001Q458 1001 487.0 972.0Q516 943 516 902Q516 875 503.0 852.5Q490 830 468 817Q520 808 553.0 782.0Q586 756 604.0 719.5Q622 683 629.0 641.5Q636 600 636 560V415H598V77L677 43V0ZM417 822Q450 822 473.5 845.5Q497 869 497 902Q497 935 473.5 958.0Q450 981 417 981Q384 981 360.5 958.0Q337 935 337 902Q337 869 360.5 845.5Q384 822 417 822ZM405 603 442 652Q454 668 462.0 692.0Q470 716 470 731Q470 757 457.0 780.0Q444 803 409 803Q385 803 367.0 792.0Q349 781 333 768L284 728H320V709H284ZM368 435H393L395 452Q402 516 431.0 545.5Q460 575 495 575Q536 575 567.0 543.5Q598 512 598 443V435H618V560Q618 631 602.0 676.0Q586 721 561.0 746.5Q536 772 510.5 783.5Q485 795 465 799Q479 788 484.5 764.5Q490 741 490 729Q490 705 481.0 683.0Q472 661 449 630L417 587Q388 549 378.0 505.0Q368 461 368 435ZM372 731Q354 731 354 750Q354 758 359.5 763.5Q365 769 372 769Q380 769 385.5 763.5Q391 758 391 750Q391 731 372 731ZM126 582 125 620Q125 659 116.5 670.0Q108 681 93 681Q89 681 78.0 676.5Q67 672 67 655Q67 644 74.0 634.0Q81 624 91 615ZM117 20H658V32L580 66V444Q580 494 558.5 524.5Q537 555 494 555Q467 555 444.5 532.0Q422 509 415 450L389 232L376 228L259 373Q249 387 235.5 398.0Q222 409 205 409Q186 409 175.0 396.5Q164 384 164 366Q164 351 169.0 328.5Q174 306 177 292L224 80L117 32ZM166 414Q182 428 202 428Q207 428 211.0 428.0Q215 428 219 427L213 445L149 455Z" />
  </g>
</svg>