<svg xmlns="http://www.w3.org/2000/svg" viewBox="49 0 579 1001">
  <g transform="translate(0, 1001) scale(1, -1)">
    <path fill="black" d="M49 0V43L152 87L107 295Q104 309 100.5 328.5Q97 348 97 366Q97 390 113.5 409.0Q130 428 153 428Q176 428 192.0 417.0Q208 406 221 390L325 262L342 415H300V446Q300 470 306.5 497.0Q313 524 323.0 548.5Q333 573 345 587L204 709H181L267 780Q278 789 291.5 798.5Q305 808 322 813Q299 826 284.0 849.5Q269 873 269 902Q269 943 298.0 972.0Q327 1001 368 1001Q409 1001 438.0 972.0Q467 943 467 902Q467 875 454.0 852.5Q441 830 419 817Q471 808 504.0 782.0Q537 756 555.0 719.5Q573 683 580.0 641.5Q587 600 587 560V415H549V77L628 43V0ZM368 822Q401 822 424.5 845.5Q448 869 448 902Q448 935 424.5 958.0Q401 981 368 981Q335 981 311.5 958.0Q288 935 288 902Q288 869 311.5 845.5Q335 822 368 822ZM356 603 394 652Q406 668 413.5 692.0Q421 716 421 731Q421 757 408.0 780.0Q395 803 360 803Q336 803 318.0 792.0Q300 781 284 768L235 728H271V709H235ZM319 435H344L346 452Q353 516 382.0 545.5Q411 575 446 575Q487 575 518.0 543.5Q549 512 549 443V435H569V560Q569 631 553.0 676.0Q537 721 512.5 746.5Q488 772 462.0 783.5Q436 795 417 799Q431 788 436.0 764.5Q441 741 441 729Q441 705 432.0 683.0Q423 661 400 630L368 587Q339 549 329.0 505.0Q319 461 319 435ZM323 731Q305 731 305 750Q305 758 310.5 763.5Q316 769 323 769Q331 769 336.5 763.5Q342 758 342 750Q342 731 323 731ZM68 20H609V32L531 66V444Q531 494 509.5 524.5Q488 555 445 555Q418 555 395.5 532.0Q373 509 366 450L340 232L328 228L210 373Q200 387 186.5 398.0Q173 409 156 409Q137 409 126.0 396.5Q115 384 115 366Q115 351 120.0 328.5Q125 306 128 292L175 80L68 32Z" />
  </g>
</svg>