<svg xmlns="http://www.w3.org/2000/svg" viewBox="49 0 694 1001">
  <g transform="translate(0, 1001) scale(1, -1)">
    <path fill="black" d="M49 0V43L152 87L102 314Q99 328 96.5 348.0Q94 368 94 386Q94 411 111.5 429.5Q129 448 153 448Q180 448 193.5 437.5Q207 427 221 409L325 281L346 523H298V555Q298 588 311.5 622.5Q325 657 347 686Q376 723 386.0 737.0Q396 751 397 764Q390 760 378.5 756.5Q367 753 353 753Q328 753 298.0 759.5Q268 766 238 768Q225 752 225 733H193Q186 744 189 772Q179 775 171.0 778.0Q163 781 158 783Q154 786 151.5 794.0Q149 802 149 810Q149 825 155 831Q182 857 212.0 870.0Q242 883 254 887Q254 888 266.5 896.5Q279 905 300.0 916.5Q321 928 346 935V938Q342 940 325 940Q312 940 296.0 932.0Q280 924 263 924Q252 924 240.0 931.0Q228 938 215.0 944.5Q202 951 187 951Q163 951 145.5 940.0Q128 929 111 929Q83 929 66.5 948.0Q50 967 50 1001H74Q75 988 81.5 978.0Q88 968 111 968Q125 968 144.5 979.5Q164 991 186 991Q203 991 215.5 984.0Q228 977 239.5 969.5Q251 962 264 962Q281 962 302.5 970.5Q324 979 343 979Q357 979 369.5 972.5Q382 966 388 959H404Q411 966 423.5 972.5Q436 979 449 979Q469 979 490.5 970.5Q512 962 529 962Q542 962 553.5 969.5Q565 977 577.5 984.0Q590 991 606 991Q629 991 648.5 979.5Q668 968 681 968Q705 968 711.5 978.0Q718 988 719 1001H743Q743 967 726.0 948.0Q709 929 681 929Q665 929 647.5 940.0Q630 951 606 951Q591 951 577.5 944.5Q564 938 552.5 931.0Q541 924 529 924Q513 924 496.5 932.0Q480 940 467 940Q450 940 446 938V935Q515 918 554.0 876.5Q593 835 609.0 780.5Q625 726 625 670V523H579V77L658 43V0ZM318 542H348Q356 597 387.0 628.0Q418 659 461 659Q507 659 538.5 628.5Q570 598 577 542H605V670Q605 710 594.5 753.5Q584 797 559.5 835.5Q535 874 495.0 898.5Q455 923 396 924Q363 924 332.5 910.5Q302 897 282.5 884.0Q263 871 263 870Q251 866 223.5 854.5Q196 843 168 817V810H251V795H173Q188 792 213.5 788.5Q239 785 267.0 781.0Q295 777 317.5 774.5Q340 772 349 772Q373 772 391.0 781.5Q409 791 416 800Q422 772 415.0 751.5Q408 731 393.5 713.0Q379 695 362 673Q318 617 318 555ZM347 847Q326 847 306 860Q314 868 323.5 873.5Q333 879 346 879Q368 879 385 862Q375 855 366.5 851.0Q358 847 347 847ZM68 20H638V32L560 66V514Q560 547 550.0 576.0Q540 605 518.0 622.5Q496 640 459 640Q422 640 397.0 609.5Q372 579 366 520L340 252L328 247L210 393Q200 406 186.5 417.0Q173 428 156 428Q137 428 124.5 416.0Q112 404 112 385Q112 370 116.0 348.0Q120 326 123 312L175 80L68 32Z" />
  </g>
</svg>