<svg xmlns="http://www.w3.org/2000/svg" viewBox="49 0 579 1001">
  <g transform="translate(0, 1001) scale(1, -1)">
    <path fill="black" d="M49 0V43L152 87L102 314Q99 328 96.5 348.0Q94 368 94 386Q94 411 111.5 429.5Q129 448 153 448Q180 448 193.5 437.5Q207 427 221 409L325 281L346 445Q347 455 348.0 463.5Q349 472 351 480H313V506Q313 513 325.0 535.0Q337 557 348 579Q358 596 366.5 616.0Q375 636 375 652Q375 664 370.0 675.5Q365 687 354 691L196 698Q189 699 177.5 712.0Q166 725 166 741V762Q189 765 219.5 770.0Q250 775 264 780Q279 785 294.0 799.0Q309 813 327.5 825.5Q346 838 369 838H411Q416 879 417.5 920.5Q419 962 411 1001H441Q445 995 452.5 981.0Q460 967 466.0 951.0Q472 935 473 922Q478 935 481.5 957.0Q485 979 482 996H513Q521 974 526.5 946.0Q532 918 533 898Q535 874 527.0 846.5Q519 819 510 802Q542 746 561.5 682.5Q581 619 581 538V480H547Q548 470 548.5 460.0Q549 450 549 439V77L628 43V0ZM430 844Q440 852 449.0 863.5Q458 875 462 885Q459 911 452.5 935.0Q446 959 431 981Q437 947 436.5 911.5Q436 876 430 844ZM333 500H355Q380 581 450 581Q527 581 543 500H561V538Q561 618 540.5 683.0Q520 748 488 802Q498 820 507.0 847.0Q516 874 514 897Q513 918 507.5 936.0Q502 954 500 967Q498 941 490.0 912.0Q482 883 467.0 858.5Q452 834 428 820H368Q353 820 335.0 807.0Q317 794 300.0 780.0Q283 766 270 761Q258 757 232.0 752.5Q206 748 186 745Q186 733 192.5 726.0Q199 719 207 719L359 710Q376 704 385.5 687.5Q395 671 395 652Q395 632 385.5 610.0Q376 588 366 569Q355 549 344.0 530.0Q333 511 333 506ZM395 772Q385 772 377.5 775.0Q370 778 362 782Q368 789 375.5 793.5Q383 798 394 798Q411 798 424 785Q417 779 410.5 775.5Q404 772 395 772ZM68 20H609V32L531 66V436Q531 469 524.5 497.5Q518 526 500.5 544.0Q483 562 448 562Q411 562 391.5 531.5Q372 501 366 442L340 252L328 247L210 393Q200 406 186.5 417.0Q173 428 156 428Q137 428 124.5 416.0Q112 404 112 385Q112 370 116.0 348.0Q120 326 123 312L175 80L68 32Z" />
  </g>
</svg>