<svg xmlns="http://www.w3.org/2000/svg" viewBox="49 0 597 999">
  <g transform="translate(0, 999) scale(1, -1)">
    <path fill="black" d="M49 0V43L152 87L102 314Q99 328 96.5 348.0Q94 368 94 386Q94 411 111.5 429.5Q129 448 153 448Q180 448 193.5 437.5Q207 427 221 409L325 281L346 445Q348 464 353 480H310V515Q310 538 316.0 565.0Q322 592 338 620Q354 647 367.0 662.0Q380 677 380 681Q380 686 371.5 687.5Q363 689 340 689Q323 689 296.5 683.5Q270 678 241.5 670.5Q213 663 191 656Q186 655 181.5 654.5Q177 654 173 654Q160 654 153 661L139 660Q129 660 122.0 667.5Q115 675 115 683Q115 690 137.5 713.0Q160 736 197.5 764.0Q235 792 281.5 814.5Q328 837 377 843L379 999L468 991L434 843L439 842L498 986L577 945L491 826Q529 809 551.5 775.5Q574 742 586.5 700.5Q599 659 603.0 617.5Q607 576 607 543V480H564Q567 459 567 439V77L646 43V0ZM330 500H358Q371 533 395.0 557.0Q419 581 459 581Q503 581 526.5 557.0Q550 533 560 500H588V543Q588 576 583.5 616.5Q579 657 566.5 697.5Q554 738 529.0 770.0Q504 802 463 817L548 938L508 959L448 821Q435 825 415 825L444 975L399 979L395 826Q358 824 321.0 809.5Q284 795 250.5 775.0Q217 755 191.0 734.5Q165 714 150.0 699.5Q135 685 135 683Q135 680 139 680H151Q165 691 185.0 700.0Q205 709 223 714L227 702Q216 699 199.5 692.0Q183 685 169 674Q170 673 173 673Q178 673 186 675Q209 683 238.0 690.5Q267 698 294.5 703.5Q322 709 340 709Q376 709 390.0 702.0Q404 695 404 681Q404 677 399.5 670.5Q395 664 388 656Q381 646 371.0 633.5Q361 621 355 610Q342 584 336.0 559.5Q330 535 330 515ZM333 772Q323 772 315.0 775.0Q307 778 300 782Q306 789 313.0 793.5Q320 798 332 798Q348 798 362 785Q355 779 348.5 775.5Q342 772 333 772ZM68 20H627V32L549 66V436Q549 469 540.5 497.5Q532 526 512.0 544.0Q492 562 458 562Q381 562 366 442L340 252L328 247L210 393Q200 406 186.5 417.0Q173 428 156 428Q137 428 124.5 416.0Q112 404 112 385Q112 370 116.0 348.0Q120 326 123 312L175 80L68 32Z" />
  </g>
</svg>