<svg xmlns="http://www.w3.org/2000/svg" viewBox="49 0 698 1001">
  <g transform="translate(0, 1001) scale(1, -1)">
    <path fill="black" d="M583 896 747 681 668 636 609 786 595 739 575 572 461 569V64H556V0H49L93 64H229V83L271 92Q281 94 295.5 100.5Q310 107 310 114Q310 116 309.5 118.5Q309 121 309 123L287 257L281 279L271 377Q271 384 268.0 386.0Q265 388 258 390Q242 395 224.0 400.5Q206 406 188 412Q169 419 169 436Q169 444 178.0 450.5Q187 457 200 453Q215 449 235.5 443.0Q256 437 269 435L268 442Q255 522 236.5 559.0Q218 596 209 607Q199 598 184.5 597.0Q170 596 159 600L166 616Q175 612 186.0 614.5Q197 617 201 624L232 677L227 708L209 711L233 764Q234 775 233.5 781.0Q233 787 227 808L297 968Q304 983 316.5 992.0Q329 1001 342 1001Q359 1001 365 979Q382 994 397 994Q408 994 419.0 983.0Q430 972 421 945L372 800L371 774H381Q415 774 432.0 763.5Q449 753 455.0 727.5Q461 702 461 656V639H536L551 741L549 767L503 647L490 653ZM342 985Q335 985 326.0 979.0Q317 973 312 962L244 808H289L348 955Q353 967 351.5 976.0Q350 985 342 985ZM405 950Q412 972 403.5 977.0Q395 982 382.5 974.5Q370 967 363 950V949L306 808H358ZM583 853 564 804 580 798 573 781V771L575 770L582 786L585 805L577 828L591 832ZM598 852 675 655 726 686ZM326 750Q326 755 324.0 757.0Q322 759 321 759Q316 759 309 749L250 762Q250 757 247 752L231 720L242 718L248 679L284 677V634H226L220 623Q230 610 251.0 568.5Q272 527 284 450Q289 418 277 419Q256 421 233.0 427.5Q210 434 195 438Q187 440 187 435Q187 429 194 427L274 404Q283 401 286.5 397.0Q290 393 291 383L300 279L306 258L328 124Q328 121 328.5 118.0Q329 115 329 113Q329 100 311.0 91.5Q293 83 279 81L247 74V64H358Q361 85 361 108Q361 152 359.5 188.0Q358 224 356 240Q358 274 363.0 309.5Q368 345 372.5 372.0Q377 399 377 406Q377 446 364 469L375 586L562 590L580 737L601 787L600 807L592 826L586 824L594 805L591 783L577 753L566 757L565 782L570 794L564 797L558 781L563 734L546 620L419 623Q405 627 376.5 630.0Q348 633 329 635L327 684L311 729Q316 733 317 734Q320 736 323.0 740.0Q326 744 326 750ZM337 704Q347 728 351.0 745.5Q355 763 356 792H247L250 778L302 767Q309 775 320 775Q329 775 335.5 768.0Q342 761 342 750Q342 740 338.0 733.5Q334 727 330 724ZM345 682V652Q358 651 382.5 647.5Q407 644 426 641L442 640V656Q442 714 432.0 735.0Q422 756 384 756H370Q368 738 362.0 722.5Q356 707 345 682ZM264 750Q271 750 275.5 747.5Q280 745 284 741Q280 738 276.0 736.0Q272 734 266 734Q261 734 255.0 736.0Q249 738 249 742Q249 746 254.0 748.0Q259 750 264 750ZM247 668 235 649H271V667ZM442 568 393 565 383 477Q390 462 393.5 447.0Q397 432 397 406Q397 390 392.0 363.5Q387 337 381.5 305.0Q376 273 375 240Q377 224 378.0 187.5Q379 151 379 104Q379 84 376 64H442ZM102 45 83 19H537V45Z" />
  </g>
</svg>