<svg xmlns="http://www.w3.org/2000/svg" viewBox="49 0 474 1001">
  <g transform="translate(0, 1001) scale(1, -1)">
    <path fill="black" d="M49 0V35L136 70L96 222Q94 233 90.5 249.5Q87 266 87 279Q87 305 102.0 319.0Q117 333 136 333Q159 333 170.5 322.5Q182 312 194 298L274 205L293 351L255 405L333 522L323 585L289 581L273 617L248 618L288 706L290 716Q296 747 330 758Q330 768 328.5 777.5Q327 787 322 794V811H350V814Q324 817 304.5 838.0Q285 859 279 886Q274 914 273.0 944.5Q272 975 255 996L280 1001Q297 977 299.5 948.0Q302 919 310 896Q314 882 327 870Q306 891 306 922Q306 951 327.0 972.0Q348 993 377 993Q407 993 428.0 972.0Q449 951 449 922Q449 898 435 879Q442 887 445 896Q453 919 455.5 948.0Q458 977 475 1001L500 996Q484 975 482.5 944.5Q481 914 476 886Q470 859 450.5 838.0Q431 817 405 814V811H433V794Q428 787 426.5 776.5Q425 766 424 755Q451 747 468.5 727.5Q486 708 487 676L503 338H459V62L523 35V0ZM384 811H392V827Q418 832 437.5 848.5Q457 865 464 890Q472 914 471.0 940.0Q470 966 486 988L479 990Q466 972 463.0 942.0Q460 912 455 892Q449 867 427.5 854.5Q406 842 384 838ZM363 811H371V838Q349 842 327.5 854.5Q306 867 300 892Q295 912 292.0 942.0Q289 972 276 990L269 988Q286 966 285.0 940.0Q284 914 291 890Q298 865 318.0 848.5Q338 832 363 827ZM377 860Q403 860 421.0 878.5Q439 897 439 922Q439 948 421.0 965.5Q403 983 377 983Q352 983 334.0 965.5Q316 948 316 922Q316 897 334.0 878.5Q352 860 377 860ZM408 760Q408 765 409.0 774.5Q410 784 413 793H342Q345 786 346.0 777.0Q347 768 347 762Q352 763 357.0 763.5Q362 764 367 764Q378 764 388.0 763.0Q398 762 408 760ZM385 358H483L468 675Q467 705 449.0 720.0Q431 735 408.0 740.0Q385 745 368 745Q348 745 330.5 738.5Q313 732 307 714L370 678Q372 682 376.5 684.5Q381 687 389 687Q403 687 409.0 679.0Q415 671 415 662Q415 653 410.0 646.5Q405 640 400 635ZM68 16H504V26L441 52V338H362L382 634Q383 639 390.0 647.5Q397 656 397 661Q397 665 395.5 668.5Q394 672 387 672Q376 672 372 662L303 701L271 630L286 629L299 595L335 600L353 520L277 404L311 360L287 171L277 167L183 285Q174 296 163.0 304.5Q152 313 138 313Q124 313 115.0 303.5Q106 294 106 279Q106 267 110.0 249.0Q114 231 116 220L155 63L68 26ZM322 655Q307 655 294 665Q299 670 306.5 671.0Q314 672 316 672Q331 672 341 657Q335 656 331.0 655.5Q327 655 322 655Z" />
  </g>
</svg>