<svg xmlns="http://www.w3.org/2000/svg" viewBox="49 0 490 1001">
  <g transform="translate(0, 1001) scale(1, -1)">
    <path fill="black" d="M49 0V35L136 70L96 222Q94 233 90.5 249.5Q87 266 87 279Q87 305 102.0 319.0Q117 333 136 333Q159 333 170.5 322.5Q182 312 194 298L274 205L293 351L255 405L333 522L323 585L289 581L273 617L248 618L288 706Q306 764 378 764V962Q382 973 391.5 985.5Q401 998 417 1001Q435 1001 448.5 985.5Q462 970 467 956Q464 951 457.0 941.5Q450 932 443 927L485 802Q467 803 440.0 798.5Q413 794 398 789V763Q424 760 443.5 750.0Q463 740 475 720Q477 731 485.0 738.0Q493 745 506 745Q523 745 530.0 735.0Q537 725 537 714Q537 690 508 682Q521 658 528 629Q533 609 535.5 589.5Q538 570 539 553H493L503 338H459V62L523 35V0ZM393 804Q404 809 425.5 812.5Q447 816 463 817L425 932Q433 938 439.5 945.0Q446 952 450 957Q446 963 439.0 975.0Q432 987 417 987Q407 983 401.0 972.5Q395 962 393 956ZM302 699H378V745Q353 745 332.5 735.5Q312 726 304 703ZM398 699H464Q457 720 437.5 730.5Q418 741 398 743ZM499 697Q521 700 521 714Q521 719 517.5 723.5Q514 728 506 728Q499 728 495.0 723.5Q491 719 491 714Q491 711 493.5 707.0Q496 703 499 697ZM68 16H504V26L441 52V338H362L382 642Q383 647 390.0 655.5Q397 664 397 669Q397 672 395.5 675.5Q394 679 389 680H294L271 630L286 629L299 595L335 600L353 520L277 404L311 360L287 171L277 167L183 285Q174 296 163.0 304.5Q152 313 138 313Q124 313 115.0 303.5Q106 294 106 279Q106 267 110.0 249.0Q114 231 116 220L155 63L68 26ZM385 358H483L468 675V680H413Q415 674 415 670Q415 662 410.0 655.0Q405 648 400 644ZM492 569H522Q522 578 520.0 594.0Q518 610 514 623Q510 638 504.5 652.5Q499 667 490 680H486Q486 679 486.5 678.0Q487 677 487 676ZM322 655Q307 655 294 665Q299 670 306.5 671.0Q314 672 316 672Q331 672 341 657Q335 656 331.0 655.5Q327 655 322 655Z" />
  </g>
</svg>