<svg xmlns="http://www.w3.org/2000/svg" viewBox="49 0 534 1001">
  <g transform="translate(0, 1001) scale(1, -1)">
    <path fill="black" d="M93 0V35L180 70L140 222Q138 233 134.5 249.5Q131 266 131 279Q131 293 137 305L115 361L123 370L138 367L117 431L73 402L58 436L103 448L73 476Q63 484 56.0 495.5Q49 507 49 521Q49 537 58.5 548.5Q68 560 87 560Q113 560 122.0 542.0Q131 524 131 491V457L170 485L185 453L133 438L176 361L202 356L211 325Q219 320 225.0 313.0Q231 306 238 298L318 205L337 351L299 405L377 522L367 585L333 581L317 617L292 618L332 706Q350 764 422 764V962Q426 973 435.5 985.5Q445 998 461 1001Q479 1001 492.5 985.5Q506 970 511 956Q508 951 501.0 941.5Q494 932 487 927L529 802Q511 803 483.5 798.5Q456 794 442 789V763Q468 760 487.5 750.0Q507 740 519 720Q521 731 529.0 738.0Q537 745 550 745Q567 745 574.0 735.0Q581 725 581 714Q581 690 552 682Q565 658 572 629Q577 609 579.5 589.5Q582 570 583 553H537L547 338H503V62L567 35V0ZM437 804Q448 809 469.5 812.5Q491 816 507 817L469 932Q477 938 483.5 945.0Q490 952 494 957Q490 963 483.0 975.0Q476 987 461 987Q451 983 445.0 972.5Q439 962 437 956ZM346 699H422V745Q397 745 376.5 735.5Q356 726 348 703ZM442 699H508Q501 720 481.5 730.5Q462 741 442 743ZM542 697Q564 700 564 714Q564 719 561.0 723.5Q558 728 550 728Q543 728 539.0 723.5Q535 719 535 714Q535 711 537.5 707.0Q540 703 542 697ZM536 569H566Q566 578 564.0 594.0Q562 610 558 623Q554 638 548.5 652.5Q543 667 534 680H530Q530 679 530.5 678.0Q531 677 531 676ZM429 358H527L512 675V680H457Q458 678 458.0 675.0Q458 672 458 670Q458 662 453.5 655.0Q449 648 444 644ZM112 16H548V26L485 52V338H406L426 642Q427 647 434.0 655.5Q441 664 441 669Q441 672 439.5 675.5Q438 679 433 680H338L315 630L330 629L343 595L379 600L397 520L321 404L354 360L331 171L321 167L227 285Q218 296 207.0 304.5Q196 313 182 313Q168 313 159.0 303.5Q150 294 150 279Q150 267 154.0 249.0Q158 231 160 220L199 63L112 26ZM366 655Q357 655 350.5 658.0Q344 661 338 665Q343 670 350.5 671.0Q358 672 360 672Q375 672 385 657Q379 656 375.0 655.5Q371 655 366 655ZM114 459V492Q114 524 107.0 533.0Q100 542 87 542Q83 542 74.5 538.5Q66 535 66 521Q66 511 71.5 502.5Q77 494 85 486ZM148 320Q163 333 180 333Q183 333 186.0 332.5Q189 332 192 332L189 341L137 349Z" />
  </g>
</svg>