<svg xmlns="http://www.w3.org/2000/svg" viewBox="48 0 741 1001">
  <g transform="translate(0, 1001) scale(1, -1)">
    <path fill="black" d="M137 330Q137 353 151.0 373.0Q165 393 193 393Q207 393 220.5 387.0Q234 381 244 370L371 227L383 300L338 506L151 502L141 512L132 708L116 758L115 796L145 858L174 848L158 797L164 779L181 812L206 803L187 703L204 584L328 602L350 640L335 679L308 681L351 775L353 786Q364 834 436 836V870Q433 871 424.5 874.0Q416 877 408.0 884.0Q400 891 400 902Q400 916 410.0 922.0Q420 928 436 929V950Q436 979 449.5 990.0Q463 1001 479 1001Q498 1001 507.5 989.5Q517 978 518 973L500 970Q500 973 495.0 978.5Q490 984 479 984Q470 984 462.0 977.0Q454 970 454 950V835Q492 832 520.5 810.0Q549 788 549 751V606L700 584L717 703L698 803L724 812L741 779L747 797L730 848L760 858L789 796L788 758L772 708L763 512L752 502L577 506L542 382L531 249L548 248V84L589 54L663 41V0H585L468 33L299 8Q265 3 241.0 1.5Q217 0 212 0Q200 0 188.0 2.5Q176 5 165 11L125 0H48V41L121 54L132 61Q131 64 131 70Q131 93 151.5 109.0Q172 125 189 132L142 300Q141 305 139.0 315.0Q137 325 137 330ZM436 915Q415 914 415 902Q415 895 422.0 890.0Q429 885 436 883ZM515 589Q514 547 500.5 529.5Q487 512 470.0 508.5Q453 505 439 505V682L458 708Q461 712 464.5 718.0Q468 724 468 727Q468 729 465.5 734.0Q463 739 456 739Q450 739 446.5 736.0Q443 733 438 728L365 770L331 691H347L365 644L403 656L417 598L342 587L324 556Q313 537 289.5 532.5Q266 528 248 535L255 554Q269 549 284.5 552.5Q300 556 306 566L316 583L191 564L171 703L189 792L183 795L164 757L157 758L144 793L159 838L152 841L131 794L134 761L149 708L156 526L162 522L353 525L401 301L388 221L513 249L525 386L564 525L743 522L748 526L755 708L770 761L773 794L752 841L745 838L760 793L747 758L740 757L721 795L714 792L732 703L712 564L538 589ZM496 589V607H530V751Q530 773 514.0 788.0Q498 803 477.0 810.5Q456 818 440 818Q416 818 396.0 811.0Q376 804 370 786L437 748Q447 756 460 756Q485 756 485 728Q485 723 481.5 714.5Q478 706 473 701L457 682V524Q468 526 482.0 536.5Q496 547 497 589ZM379 740Q390 740 395.5 736.0Q401 732 407 723Q400 722 395.5 721.5Q391 721 386 721Q369 721 357 731Q361 736 369.0 738.0Q377 740 379 740ZM353 606 399 613 393 638 366 629ZM192 374Q191 374 182.0 372.0Q173 370 164.5 360.5Q156 351 156 330Q156 316 161 301L205 140L241 158L189 316L213 369Q203 374 192 374ZM228 361 209 316 259 166 362 213ZM524 232 379 202 191 114 226 71 531 89V232ZM150 72Q150 66 153.5 53.5Q157 41 170.0 30.5Q183 20 212 20Q226 20 252.5 22.0Q279 24 299 26L478 50L588 19H644V29L583 36L533 71L215 54L173 106Q150 95 150 72ZM137 42 128 36 66 29V19H123L147 25Q140 34 137 42Z" />
  </g>
</svg>