<svg xmlns="http://www.w3.org/2000/svg" viewBox="49 0 646 1001">
  <g transform="translate(0, 1001) scale(1, -1)">
    <path fill="black" d="M98 0V43L201 87L156 295Q153 309 149.5 328.5Q146 348 146 366Q146 384 153 397L125 469L133 479L175 472L170 482L91 529L137 555L126 580L77 557Q66 577 57.5 608.0Q49 639 49 667Q49 712 66.0 739.0Q83 766 107.5 780.0Q132 794 156 800L164 792Q145 758 138.0 731.5Q131 705 131 672Q131 642 139.5 611.5Q148 581 155 565L186 583L198 566L190 492L198 468L227 463L239 420Q257 409 270 390L376 237L395 403Q399 444 413.0 471.0Q427 498 447 511L441 559L411 549L369 476Q358 457 334.5 452.5Q311 448 293 455L300 474Q314 469 329.5 472.5Q345 476 351 486L394 556L376 607L345 609L395 717L387 755L391 760H396L458 925Q464 940 472.5 957.5Q481 975 496.5 988.0Q512 1001 537 1001Q570 1001 586 980Q595 990 607.0 995.5Q619 1001 635 1001Q653 1001 671.0 993.0Q689 985 695 977L600 667Q603 667 606.5 667.5Q610 668 614 668Q643 668 653.5 648.5Q664 629 664 606V94L645 98V604Q645 623 636.5 636.0Q628 649 610 649Q601 649 593 646L567 558L551 562L545 512Q568 499 583.0 470.0Q598 441 598 395V77L677 43V0ZM492 756 573 963Q569 974 558.0 978.0Q547 982 534 982Q516 982 503.5 969.0Q491 956 478 922L416 759ZM604 752 671 968Q668 973 657.0 977.5Q646 982 632 982Q614 982 601.5 969.0Q589 956 576 922L512 756ZM86 581 122 598Q111 639 111 672Q111 733 140 779Q104 762 86.0 736.0Q68 710 68 665Q68 645 72.0 625.0Q76 605 86 581ZM555 580 599 734 409 742 414 716 497 691Q502 696 508.0 699.0Q514 702 521 702Q534 702 541.0 692.5Q548 683 548 671Q548 665 544.0 653.5Q540 642 529 634L520 588ZM462 519Q470 522 478.5 524.0Q487 526 495 526Q510 526 525 521L532 566L500 574L512 639Q522 647 526.0 656.5Q530 666 530 670Q530 673 528.5 678.5Q527 684 519 684Q508 684 499 671L404 699L369 622L388 621L409 566L454 581ZM434 656Q422 656 414.0 659.5Q406 663 399 668Q404 674 413.5 676.0Q423 678 425 678Q444 678 457 658Q450 657 444.5 656.5Q439 656 434 656ZM171 502 176 554 128 527ZM117 20H658V32L580 66V395Q580 445 558.5 475.5Q537 506 494 506Q467 506 444.5 483.0Q422 460 415 401L391 208L379 203L259 373Q249 387 235.5 398.0Q222 409 205 409Q186 409 175.0 396.5Q164 384 164 366Q164 351 169.0 328.5Q174 306 177 292L224 80L117 32ZM166 414Q182 428 202 428Q207 428 211.0 428.0Q215 428 219 427L213 445L149 455Z" />
  </g>
</svg>