<svg xmlns="http://www.w3.org/2000/svg" viewBox="49 0 641 1016">
  <g transform="translate(0, 1016) scale(1, -1)">
    <path fill="black" d="M92 0V43L196 87L150 295Q147 309 143.5 328.5Q140 348 140 366Q140 387 152 404L125 473L133 484L151 480L127 554L76 521L59 560L111 574L76 606Q65 617 57.0 630.0Q49 643 49 659Q49 677 60.0 691.0Q71 705 93 705Q122 705 133.0 683.5Q144 662 144 624V585L190 618L208 580L146 564L196 473L227 467L239 422L373 256L389 403Q394 444 408.0 471.0Q422 498 441 511L436 559L406 549L364 476Q353 457 329.5 452.5Q306 448 288 455L295 474Q309 469 324.5 472.5Q340 476 346 486L389 556L371 607L340 609L389 717L400 808Q417 826 439.5 842.5Q462 859 478 871L434 920Q423 933 414.5 946.0Q406 959 406 976Q406 992 417.0 1004.0Q428 1016 447 1016Q464 1016 473.5 1006.5Q483 997 483 983Q483 970 474.5 962.5Q466 955 456 955H446V972H453Q464 972 464 984Q464 989 460.0 993.5Q456 998 447 998Q426 998 426 977Q426 964 432.0 954.0Q438 944 448 932L493 881Q516 896 526.5 905.0Q537 914 543 921Q547 925 549.0 930.0Q551 935 553 939Q558 953 567.5 966.5Q577 980 600 980Q617 980 626.0 970.0Q635 960 635 945Q635 932 628.5 925.5Q622 919 614 911Q600 896 611 890Q618 886 615 876L669 977H690L562 558L546 562L540 512Q563 499 578.0 470.0Q593 441 593 395V77L672 43V0ZM571 801 597 847Q609 869 593 880Q584 888 584.0 896.0Q584 904 595 916Q602 922 609.0 930.0Q616 938 616 944Q616 962 600 962Q586 962 580.0 953.0Q574 944 569 933Q566 926 563.5 920.0Q561 914 556 909Q547 899 533.5 888.0Q520 877 490 858Q476 848 456.0 833.0Q436 818 425 807ZM549 580 650 906 579 783 419 789 408 716 491 691Q496 696 502.0 699.0Q508 702 515 702Q528 702 535.0 692.5Q542 683 542 671Q542 665 538.0 653.5Q534 642 523 634L514 588ZM457 519Q465 522 473.5 524.0Q482 526 490 526Q503 526 520 521L526 566L495 574L506 639Q517 647 521.0 656.5Q525 666 525 670Q525 673 523.5 678.5Q522 684 514 684Q507 684 502.5 681.0Q498 678 493 671L398 699L364 622L383 621L403 566L448 581ZM126 586 125 625Q125 664 116.5 675.0Q108 686 93 686Q89 686 78.0 681.5Q67 677 67 659Q67 649 74.0 639.0Q81 629 91 619ZM428 656Q417 656 409.0 659.5Q401 663 394 668Q399 674 408.5 676.0Q418 678 420 678Q439 678 452 658Q445 657 439.0 656.5Q433 656 428 656ZM112 20H652V32L574 66V395Q574 445 553.0 475.5Q532 506 488 506Q462 506 439.0 483.0Q416 460 409 401L387 232L372 227L254 373Q244 387 230.0 398.0Q216 409 199 409Q181 409 170.0 396.5Q159 384 159 366Q159 351 163.5 328.5Q168 306 171 292L218 80L112 32ZM166 418Q179 428 197 428Q212 428 221 425L213 450L149 459Z" />
  </g>
</svg>