<svg xmlns="http://www.w3.org/2000/svg" viewBox="49 0 507 1001">
  <g transform="translate(0, 1001) scale(1, -1)">
    <path fill="black" d="M49 0 93 64H141Q144 64 153.0 66.0Q162 68 170 74Q178 79 181.5 90.0Q185 101 185 109H196V499L177 506L165 513L158 547L171 572L196 576V599L185 603L173 608L164 640L166 649L170 651L168 667L196 677V776Q196 810 185.5 828.0Q175 846 159 851Q156 847 152.0 839.5Q148 832 146 829Q134 804 131.0 781.0Q128 758 128 746H102Q98 755 94.0 771.0Q90 787 89 803Q88 827 99.5 854.5Q111 882 124 904Q135 923 142.5 937.5Q150 952 153 964Q155 975 156.0 985.0Q157 995 157 1001H183Q188 994 193.5 976.5Q199 959 198 937Q198 921 191.0 905.5Q184 890 175 875Q187 868 204.5 846.0Q222 824 222 773V680L236 679L261 667L343 673Q344 703 353.0 733.0Q362 763 373 777V815L347 816L323 767L290 790L331 831L326 865Q321 866 315.0 866.5Q309 867 304 868L333 932Q333 934 332.5 938.5Q332 943 332 947Q332 969 351.5 985.0Q371 1001 412 1001Q459 1001 486.0 973.0Q513 945 513 905Q513 897 512.0 881.5Q511 866 503.0 850.0Q495 834 474 823V785Q506 773 513.0 745.0Q520 717 518 680L512 576Q517 555 524.0 535.5Q531 516 531 472Q531 453 523.0 422.5Q515 392 506.5 355.5Q498 319 497 279Q499 259 500.0 214.5Q501 170 501 113Q501 88 498 64H556V0ZM458 838Q477 838 486.0 853.5Q495 869 495 905Q495 937 471.0 960.5Q447 984 413 984Q379 984 365.0 971.0Q351 958 351 947Q351 939 353 937H424Q426 939 428.5 940.0Q431 941 438 941Q450 941 456.5 932.0Q463 923 463 913Q463 902 459.5 892.5Q456 883 448 882Q447 882 441.5 875.5Q436 869 436 858Q436 840 458 838ZM110 770H115Q114 791 120.5 812.5Q127 834 133 847Q138 859 148.5 874.0Q159 889 163 897Q169 909 174.5 926.5Q180 944 176 969H171Q170 952 162.0 934.0Q154 916 146 902Q139 889 128.5 870.5Q118 852 113 835Q105 803 110 770ZM407 776Q440 776 458 791V822Q445 822 431.5 829.0Q418 836 418 858Q418 867 423.5 877.0Q429 887 434 892Q440 893 443.0 897.0Q446 901 446 911Q446 916 444.0 921.0Q442 926 434 926Q427 926 425.0 924.0Q423 922 422 921H344L326 878Q328 878 331.5 877.5Q335 877 338 877L345 830L388 827V778Q393 777 398.0 776.5Q403 776 407 776ZM367 896Q361 896 354.0 898.0Q347 900 347 905Q347 910 352.5 913.0Q358 916 365 916Q373 916 378.5 912.5Q384 909 389 904Q385 901 379.5 898.5Q374 896 367 896ZM432 726Q449 728 463.0 737.0Q477 746 484 754Q480 759 473.5 763.5Q467 768 458 770Q436 759 407 759Q401 759 395.5 759.5Q390 760 384 761L375 739Q384 733 398.5 728.5Q413 724 432 726ZM346 64H481Q483 77 484.0 90.5Q485 104 485 118Q485 171 483.0 214.5Q481 258 479 279Q482 320 490.0 361.0Q498 402 505.0 432.5Q512 463 512 472Q512 510 505.0 531.0Q498 552 493 568L500 691Q502 710 499.5 720.5Q497 731 493 738Q483 728 466.5 718.5Q450 709 432 708Q412 707 396.5 711.0Q381 715 370 722Q366 709 364.0 694.5Q362 680 363 664Q364 645 366.0 622.0Q368 599 371 573L435 696L451 687L379 552L258 542L228 559L211 564L182 558L176 544L181 524L185 519L202 512H217L224 521L240 522L254 517L404 523L477 645L492 635L413 504L381 503Q381 501 381.5 496.0Q382 491 385.0 475.0Q388 459 394.0 423.5Q400 388 410 326L418 301L443 141Q445 131 445 124Q445 114 434.5 105.5Q424 97 410.0 91.5Q396 86 385 84L346 77ZM346 625Q345 633 344.5 641.0Q344 649 344 656L261 650L231 664L213 667L195 663L181 657L182 651L212 659L233 649L239 629L249 633L261 627ZM208 610 220 613 227 621 220 640 212 644 179 636 185 620 190 616ZM260 559 353 567 348 607 263 610 248 615 238 611 229 600 222 598V577L234 574ZM276 64H328V87L375 98Q383 100 395.5 104.0Q408 108 417.5 114.0Q427 120 427 125Q427 128 426.5 130.5Q426 133 426 136L399 299L392 326Q382 388 376.0 422.5Q370 457 367.0 473.5Q364 490 363.0 495.0Q362 500 362 503L255 500L243 506H230L223 497H222V109H233Q233 101 236.5 90.0Q240 79 247 74Q256 68 265.0 66.0Q274 64 276 64ZM194 64H224Q214 74 211 86H206Q203 73 194 64ZM83 19H537V45H102Z" />
  </g>
</svg>