<svg xmlns="http://www.w3.org/2000/svg" viewBox="49 0 708 1001.0833333333334">
  <g transform="translate(0, 1001.0833333333334) scale(1, -1)">
    <path fill="black" d="M50 0V59H110V775Q101 777 93.5 783.0Q86 789 86 801V804Q86 811 85.5 819.0Q85 827 82 832Q77 841 66 847L63 853Q49 853 49 866V874H71L143 959Q161 980 181.5 991.0Q202 1002 230 1001Q235 1001 251.0 999.5Q267 998 276 997L661 945Q664 945 666.5 945.5Q669 946 672 946Q689 946 702.5 942.5Q716 939 729 934L726 927Q715 921 710 912Q707 907 706.5 899.0Q706 891 706 884V881Q706 869 698.5 863.0Q691 857 682 855V59H757V0ZM130 59H233Q242 67 251.5 84.0Q261 101 261 123V463L256 465L245 471L239 503L250 525L261 527V555L252 559L244 587L246 597L250 598L248 613L258 617Q255 627 251.0 635.0Q247 643 243 648H233V660H243V667H233V679H243V686H233V698H243V705H233V717H268V756Q268 769 264.0 775.0Q260 781 255 782Q252 778 249.0 771.5Q246 765 244 761Q233 738 230.0 717.5Q227 697 227 686H203Q200 694 196.0 708.5Q192 723 191 738Q190 760 200.0 785.5Q210 811 223 831Q233 848 240.0 861.5Q247 875 250 886Q252 895 252.5 904.5Q253 914 253 920H277Q282 913 287.0 897.0Q292 881 291 861Q291 846 284.5 831.5Q278 817 270 803Q279 799 284.5 789.0Q290 779 291 759V717H326V705H316V698H326V686H316V679H326V667H316V660H326V648H315Q312 644 308.5 638.0Q305 632 303 625L310 624L333 613L409 618Q410 646 418.0 673.5Q426 701 436 714V749L412 750L390 705L360 725L397 763L393 794Q389 795 383.5 795.5Q378 796 373 797L400 856Q398 862 398 870Q398 890 416.0 905.0Q434 920 472 920Q515 920 540.0 894.0Q565 868 565 832Q565 825 563.5 810.5Q562 796 555.0 781.0Q548 766 529 756V721Q558 710 564.5 684.0Q571 658 569 625L563 529Q568 510 575.0 492.0Q582 474 582 434Q582 416 574.5 388.0Q567 360 559.0 326.5Q551 293 550 256Q552 237 553.0 196.5Q554 156 554 104Q554 82 551 59H662V855Q653 857 645.5 863.0Q638 869 638 881V884Q638 891 637.5 899.0Q637 907 634 912Q631 916 627.0 920.0Q623 924 618 927L616 932L287 976Q274 978 255.0 979.5Q236 981 231 981Q203 982 188.0 972.5Q173 963 156 943L89 862Q96 864 103.5 865.0Q111 866 120 866Q138 866 151.5 862.5Q165 859 177 854L174 847Q169 844 165.0 840.0Q161 836 158 832Q155 827 154.5 819.0Q154 811 154 804V801Q154 789 146.5 783.0Q139 777 130 775ZM672 868Q692 868 692 881V884Q692 892 692.5 901.0Q693 910 697 917Q701 923 705 927Q693 932 672 932Q651 932 639 927Q643 923 647 917Q652 910 651.5 901.0Q651 892 651 884V881Q651 868 672 868ZM514 770Q532 770 540.0 784.5Q548 799 548 832Q548 861 526.0 882.5Q504 904 473 904Q442 904 429.0 892.5Q416 881 416 870Q416 866 416.5 864.0Q417 862 417 861H483Q485 862 487.5 863.5Q490 865 496 865Q507 865 513.0 856.5Q519 848 519 839Q519 829 515.5 820.0Q512 811 505 811Q504 810 499.0 804.5Q494 799 494 788Q494 772 514 770ZM210 708H215Q214 727 220.0 746.5Q226 766 231 778Q236 789 245.0 802.5Q254 816 258 824Q264 835 269.0 850.5Q274 866 271 890H267Q266 874 258.5 858.0Q251 842 243 829Q236 817 226.5 800.5Q217 784 213 768Q205 737 210 708ZM120 788Q141 788 141 801V804Q141 812 141.0 820.5Q141 829 145 836Q148 842 153 847Q141 852 120 852Q99 852 87 847Q92 842 95 836Q100 829 100.0 820.5Q100 812 100 804V801Q100 788 120 788ZM467 713Q482 713 494.5 717.0Q507 721 514 726V755Q503 755 490.5 761.0Q478 767 478 789Q478 797 483.0 806.0Q488 815 492 819Q503 820 503 836Q503 841 501.0 846.0Q499 851 492 851Q486 851 484.0 849.0Q482 847 481 846H409L393 807Q395 807 398.0 806.5Q401 806 404 806L410 762L450 759V715Q455 714 459.0 713.5Q463 713 467 713ZM431 824Q425 824 418.5 825.5Q412 827 412 832Q412 836 417.0 838.5Q422 841 428 841Q436 841 441.0 838.0Q446 835 450 830Q446 828 441.5 826.0Q437 824 431 824ZM490 667Q505 669 518.0 677.0Q531 685 538 692Q534 697 528.0 701.5Q522 706 514 708Q494 697 467 697Q462 697 456.5 697.5Q451 698 446 699L438 679Q446 673 459.5 669.0Q473 665 490 667ZM257 698H302V705H257ZM257 679H302V686H257ZM411 59H536Q539 82 539 108Q539 157 537.0 197.0Q535 237 533 256Q536 294 543.0 331.5Q550 369 556.5 397.5Q563 426 563 434Q563 468 556.5 488.0Q550 508 546 521L553 635Q555 652 552.0 661.5Q549 671 546 678Q537 669 522.0 660.5Q507 652 490 650Q472 649 457.5 653.0Q443 657 433 663Q429 651 427.5 637.5Q426 624 427 610Q428 593 430.0 571.5Q432 550 434 526L493 639L507 631L441 507L330 498L303 513L298 515L284 517L275 515L261 512L255 500L260 481L261 480L275 472L279 471H284L298 478L299 479L314 480L327 475L465 480L531 592L545 583L473 463L443 462Q443 460 444.0 455.5Q445 451 447.5 436.0Q450 421 455.0 389.0Q460 357 470 300L477 276L500 129Q502 121 502 113Q502 99 482.0 89.5Q462 80 447 78L411 70ZM257 660H302V667H257ZM271 622 289 625Q293 640 299 648H259Q262 643 265.5 636.5Q269 630 271 622ZM411 574 409 603 333 598 306 610 285 612 260 604 261 598 284 604 306 596 313 578 322 582 333 576ZM284 561 298 566 302 570 297 586 286 592 258 584 262 570 273 563ZM332 513 417 521 413 558 334 560 321 565 312 562 304 551 298 549V528L309 527ZM275 529H284V550H275ZM326 59H395V80L438 90Q445 92 456.5 96.0Q468 100 477.0 105.0Q486 110 486 115Q486 118 485.5 120.0Q485 122 484 125L460 275L454 300Q444 356 438.5 388.0Q433 420 430.5 435.0Q428 450 427.0 455.0Q426 460 426 462L328 459L317 465H305L298 457V123Q298 101 307.5 84.0Q317 67 326 59ZM250 59H309Q305 63 294.5 80.0Q284 97 284 131V458H275V131Q275 97 264.5 80.0Q254 63 250 59ZM67 17H740V42H67Z" />
  </g>
</svg>