<svg xmlns="http://www.w3.org/2000/svg" viewBox="49 0 429 1000">
  <g transform="translate(0, 1000) scale(1, -1)">
    <path fill="black" d="M49 0V33L130 62Q143 66 140 76Q137 83 125.0 107.0Q113 131 98.5 160.5Q84 190 73.0 214.5Q62 239 62 245V277Q65 287 74.5 304.0Q84 321 96.0 339.0Q108 357 116 368Q110 376 97.0 392.0Q84 408 72.5 425.0Q61 442 58 453V479Q60 488 69.5 507.5Q79 527 92.5 551.0Q106 575 120.5 596.0Q135 617 146 629L170 645Q159 672 159 695V752Q155 759 155 768Q155 789 179 795L173 827Q157 849 135.0 874.5Q113 900 100 913Q104 923 112.5 935.5Q121 948 133.5 958.0Q146 968 159 968Q164 968 170.5 966.5Q177 965 179 961Q184 974 196.5 987.0Q209 1000 230 1000Q242 1000 251.0 995.5Q260 991 265 986Q270 991 279.0 995.5Q288 1000 300 1000Q322 1000 334.0 987.0Q346 974 351 961Q353 965 359.5 966.5Q366 968 372 968Q385 968 397.0 958.0Q409 948 418.0 935.5Q427 923 430 913Q417 900 394.5 874.5Q372 849 357 827L351 795Q375 789 375 768Q375 759 371 752V695Q371 672 358 643L380 629Q392 617 406.5 596.0Q421 575 434.5 551.0Q448 527 457.5 507.5Q467 488 468 479V453Q466 442 454.5 425.0Q443 408 430.0 392.0Q417 376 410 368Q419 357 431.0 339.0Q443 321 452.5 304.0Q462 287 465 277V245Q465 239 454.0 214.5Q443 190 428.5 160.5Q414 131 402.0 107.0Q390 83 387 76Q384 67 396 62L478 33V0H302V46Q308 57 312.5 77.0Q317 97 322 121Q330 154 337.0 187.0Q344 220 357 242Q349 247 332.0 257.5Q315 268 298.5 280.5Q282 293 273 305H272V133Q280 128 285.5 113.5Q291 99 291 82Q291 60 282.5 43.5Q274 27 263 27Q251 27 243.0 43.5Q235 60 235 82Q235 100 240.0 114.5Q245 129 254 134V305H253Q244 293 227.5 280.5Q211 268 194.5 257.5Q178 247 169 242Q183 220 190.0 187.0Q197 154 204 121Q209 97 213.5 77.0Q218 57 224 46V0ZM274 827H293Q297 853 308.0 886.0Q319 919 337 951Q333 962 324.0 972.0Q315 982 300 982Q291 982 284.0 978.5Q277 975 274 971ZM237 827H256V971Q254 975 247.0 978.5Q240 982 230 982Q215 982 206.0 972.0Q197 962 193 951Q211 919 222.0 886.0Q233 853 237 827ZM312 827H336Q348 848 371.0 875.0Q394 902 409 917Q404 928 394.5 939.0Q385 950 372 950Q369 950 363.5 949.0Q358 948 354 943Q337 912 326.0 881.5Q315 851 312 827ZM194 827H219Q215 851 204.5 881.5Q194 912 177 943Q173 948 167.5 949.0Q162 950 158 950Q145 950 135.5 939.0Q126 928 121 917Q136 902 159.0 875.0Q182 848 194 827ZM193 797H337L340 812H190ZM278 656V682Q298 692 306.0 700.5Q314 709 318 716Q320 721 324.0 727.0Q328 733 334 738Q342 745 349.0 753.0Q356 761 356 768Q356 774 348.5 776.5Q341 779 321 779H209Q189 779 181.0 776.5Q173 774 173 768Q173 761 180.5 753.0Q188 745 195 738Q202 733 205.5 727.0Q209 721 211 716Q216 709 224.0 700.5Q232 692 251 682V657L263 658ZM297 729Q289 729 284.0 733.0Q279 737 277 742Q279 747 284.0 751.0Q289 755 297 755Q306 755 310.5 751.0Q315 747 317 742Q315 737 310.5 733.0Q306 729 297 729ZM232 729Q224 729 219.0 733.0Q214 737 212 742Q214 747 219.0 751.0Q224 755 232 755Q248 755 252 742Q248 729 232 729ZM235 594V670Q219 680 209.5 689.0Q200 698 195 707Q192 712 189.5 717.0Q187 722 183 726L178 729V687Q180 670 188.5 650.0Q197 630 209.0 614.5Q221 599 235 594ZM295 594Q309 599 321.5 614.5Q334 630 342.0 650.0Q350 670 352 687V729L347 726Q343 722 340.0 717.0Q337 712 335 707Q330 698 321.0 689.0Q312 680 295 670ZM64 16H206V41Q200 52 195.0 73.5Q190 95 186 117Q179 149 170.5 182.5Q162 216 146 242L145 252Q154 257 175.0 269.0Q196 281 216.0 296.0Q236 311 241 323H286Q291 311 310.5 296.0Q330 281 351.0 269.0Q372 257 381 252V242Q365 216 356.5 182.5Q348 149 341 117Q337 95 331.5 73.5Q326 52 321 41V16H462V22L396 45Q380 51 372.0 61.5Q364 72 369 83L446 244V274Q442 284 430.5 303.0Q419 322 406.5 340.5Q394 359 385 368Q372 384 349.0 407.5Q326 431 311 444V449L355 530H359L408 473V463L375 407Q382 400 388.0 393.5Q394 387 398 382Q411 397 428.5 419.5Q446 442 450 453V477Q449 485 440.0 503.0Q431 521 418.0 542.5Q405 564 391.5 584.0Q378 604 367 616L350 627Q338 607 320.0 591.0Q302 575 278 568V638L263 640L251 638V568Q227 575 208.5 591.5Q190 608 178 628L159 616Q148 604 134.5 584.0Q121 564 108.5 542.5Q96 521 87.5 503.0Q79 485 77 477V453Q82 442 98.5 419.5Q115 397 128 382Q133 387 139.0 393.5Q145 400 151 407L119 463V473L167 530H171L216 449V444Q201 431 178.0 407.5Q155 384 141 368Q133 359 120.0 340.5Q107 322 95.5 303.0Q84 284 80 274V244L157 83Q163 72 155.0 61.5Q147 51 131 45L64 22ZM164 420Q181 439 194 450L166 501L137 467Q144 455 150.5 443.5Q157 432 164 420ZM362 420Q369 432 376.0 443.5Q383 455 390 467L361 501L333 450Q338 445 346.0 437.0Q354 429 362 420ZM263 42Q269 42 272.5 54.0Q276 66 276 82Q276 99 272.5 110.0Q269 121 263 122H262Q257 121 253.5 110.0Q250 99 250 82Q250 66 253.5 54.0Q257 42 263 42Z" />
  </g>
</svg>