<svg xmlns="http://www.w3.org/2000/svg" viewBox="49 0 579 1002">
  <g transform="translate(0, 1002) scale(1, -1)">
    <path fill="black" d="M49 0V43L152 87L107 265Q104 279 100.5 299.0Q97 319 97 336Q97 361 113.5 379.5Q130 398 153 398Q176 398 192.0 387.0Q208 376 221 360L325 232L342 385H300V417Q300 441 306.5 468.0Q313 495 323.0 519.0Q333 543 345 558L204 680H181L267 750Q280 761 293.0 769.5Q306 778 321 784Q270 798 238.5 836.5Q207 875 205 932L234 933Q254 868 311 840Q287 866 287 904Q287 945 316.0 973.5Q345 1002 385 1002Q426 1002 455.0 973.5Q484 945 484 904Q484 867 460 840Q517 870 535 933L564 932Q563 874 529.5 835.0Q496 796 443 782Q500 766 531.0 726.5Q562 687 574.5 635.5Q587 584 587 530V385H549V77L628 43V0ZM385 824Q418 824 441.5 847.5Q465 871 465 904Q465 937 441.5 960.0Q418 983 385 983Q352 983 328.5 960.0Q305 937 305 904Q305 871 328.5 847.5Q352 824 385 824ZM385 792Q424 792 458.5 805.0Q493 818 516.5 844.5Q540 871 546 909Q526 863 482.0 834.0Q438 805 385 805Q331 805 287.5 834.0Q244 863 224 909Q230 871 253.5 844.5Q277 818 312.0 805.0Q347 792 385 792ZM356 573 394 622Q406 638 413.5 662.0Q421 686 421 702Q421 728 408.0 750.5Q395 773 360 773Q336 773 318.0 762.0Q300 751 284 738L235 698H271V680H235ZM319 405H344L346 422Q353 486 382.0 515.5Q411 545 446 545Q487 545 518.0 513.5Q549 482 549 414V405H569V530Q569 602 553.0 647.0Q537 692 512.5 717.0Q488 742 462.0 753.5Q436 765 417 769Q431 758 436.0 734.5Q441 711 441 700Q441 675 432.0 653.0Q423 631 400 600L368 558Q339 519 329.0 475.0Q319 431 319 405ZM323 701Q305 701 305 720Q305 728 310.5 733.5Q316 739 323 739Q331 739 336.5 733.5Q342 728 342 720Q342 701 323 701ZM68 20H609V32L531 66V414Q531 464 509.5 494.5Q488 525 445 525Q418 525 395.5 502.0Q373 479 366 420L340 203L328 198L210 343Q200 357 186.5 368.0Q173 379 156 379Q137 379 126.0 366.5Q115 354 115 336Q115 321 120.0 298.5Q125 276 128 262L175 80L68 32Z" />
  </g>
</svg>