<svg xmlns="http://www.w3.org/2000/svg" viewBox="49 -138 1081 568">
  <g transform="translate(0, 292) scale(1, -1)">
    <path fill="black" d="M769 -138Q764 -103 752.5 -54.0Q741 -5 721.5 49.5Q702 104 673.0 156.5Q644 209 604.5 252.0Q565 295 513 320H79Q69 334 59.0 355.5Q49 377 49 396Q49 412 58.0 421.0Q67 430 95 430H866Q903 430 929.0 414.0Q955 398 972.0 376.5Q989 355 997 337Q1029 279 1052.5 212.5Q1076 146 1092.0 80.5Q1108 15 1117.5 -42.0Q1127 -99 1130 -138H1111Q1108 -99 1099.0 -44.5Q1090 10 1074.5 72.5Q1059 135 1036.5 199.0Q1014 263 984 320H784Q818 293 846.0 245.0Q874 197 896.0 139.5Q918 82 933.5 26.0Q949 -30 957.5 -74.0Q966 -118 968 -138H948Q947 -120 940.0 -84.0Q933 -48 920.5 -1.5Q908 45 891.0 94.5Q874 144 852.5 190.0Q831 236 804.5 270.5Q778 305 748 320H552Q611 282 653.5 223.0Q696 164 724.0 97.0Q752 30 767.5 -32.0Q783 -94 789 -138ZM88 340H969Q968 347 954.0 364.0Q940 381 916.0 396.0Q892 411 857 411H102Q85 411 76.5 409.0Q68 407 68 395Q68 382 74.5 366.5Q81 351 88 340Z" />
  </g>
</svg>