<svg xmlns="http://www.w3.org/2000/svg" viewBox="49 27 1125 401">
  <g transform="translate(0, 455) scale(1, -1)">
    <path fill="black" d="M592 100Q564 100 520.0 106.0Q476 112 424.5 121.0Q373 130 321.5 140.5Q270 151 224.5 161.0Q179 171 148.0 178.5Q117 186 107 188Q92 175 79.5 162.5Q67 150 61 144L49 160Q92 203 153.5 250.0Q215 297 287.0 337.5Q359 378 435.5 403.0Q512 428 585 428Q679 428 757.0 401.5Q835 375 899.5 336.0Q964 297 1018 260Q1062 230 1100.5 206.5Q1139 183 1174 176L1170 156Q1146 161 1121.0 173.5Q1096 186 1069 203Q1063 201 1034.0 193.0Q1005 185 961.5 173.5Q918 162 866.5 149.0Q815 136 763.0 125.0Q711 114 666.5 107.0Q622 100 592 100ZM585 121Q625 121 657.0 140.5Q689 160 708.5 192.0Q728 224 728 263Q728 303 708.5 335.0Q689 367 657.0 386.5Q625 406 585 406Q546 406 513.5 386.5Q481 367 461.5 335.0Q442 303 442 263Q442 224 461.5 192.0Q481 160 513.5 140.5Q546 121 585 121ZM673 127Q723 135 781.5 148.0Q840 161 895.0 175.5Q950 190 991.0 201.5Q1032 213 1048 217L1007 244Q963 275 911.5 307.0Q860 339 800.0 364.5Q740 390 669 401Q704 380 725.5 343.5Q747 307 747 263Q747 220 726.5 184.5Q706 149 673 127ZM495 128Q463 150 443.0 185.5Q423 221 423 263Q423 306 443.0 341.5Q463 377 496 398Q421 383 351.0 349.0Q281 315 223.5 275.5Q166 236 126 204Q141 200 180.5 191.0Q220 182 274.0 170.0Q328 158 386.0 147.0Q444 136 495 128ZM600 27Q524 27 455.5 37.5Q387 48 330.5 62.5Q274 77 232 89Q206 97 185.5 102.0Q165 107 154 107Q138 107 124.0 102.0Q110 97 99 91L87 107Q100 114 117.5 120.5Q135 127 154 127Q166 127 187.0 121.0Q208 115 237 107Q278 96 333.5 81.5Q389 67 456.5 57.0Q524 47 600 47Q642 47 697.0 57.0Q752 67 811.0 81.5Q870 96 923 109Q973 122 1012.5 132.5Q1052 143 1072 144Q1098 146 1123.0 138.0Q1148 130 1163 124L1159 104Q1146 112 1120.0 118.5Q1094 125 1073 124Q1054 124 1014.5 113.5Q975 103 928 91Q875 77 815.0 62.0Q755 47 699.0 37.0Q643 27 600 27Z" />
  </g>
</svg>