<svg xmlns="http://www.w3.org/2000/svg" viewBox="49 23 1115 345">
  <g transform="translate(0, 391) scale(1, -1)">
    <path fill="black" d="M188 23Q151 23 119.5 39.0Q88 55 68.5 86.5Q49 118 49 166V226Q49 274 68.5 305.5Q88 337 119.5 352.5Q151 368 188 368H1024Q1062 368 1093.5 352.5Q1125 337 1144.5 305.5Q1164 274 1164 226V166Q1164 118 1144.5 86.5Q1125 55 1093.5 39.0Q1062 23 1024 23ZM187 43H1026Q1076 43 1110.5 75.0Q1145 107 1145 166V226Q1145 285 1110.5 317.0Q1076 349 1026 349H187Q138 349 103.0 317.0Q68 285 68 226V166Q68 107 103.0 75.0Q138 43 187 43ZM585 63Q560 63 518.0 69.0Q476 75 429.0 84.5Q382 94 338.0 103.5Q294 113 262.5 120.0Q231 127 223 129Q212 119 204.0 112.0Q196 105 193 103L180 116Q212 148 257.5 183.0Q303 218 357.0 248.0Q411 278 468.0 296.5Q525 315 580 315Q650 315 708.0 295.0Q766 275 814.0 246.5Q862 218 902 190Q935 168 963.5 150.0Q992 132 1018 127L1015 110Q977 116 938 141Q933 139 904.0 130.5Q875 122 832.0 111.0Q789 100 742.0 89.0Q695 78 653.0 70.5Q611 63 585 63ZM579 83Q609 83 633.5 97.5Q658 112 672.5 136.0Q687 160 687 189Q687 233 655.0 264.0Q623 295 579 295Q536 295 505.0 264.0Q474 233 474 189Q474 146 505.0 114.5Q536 83 579 83ZM651 88Q688 94 730.5 104.0Q773 114 812.0 124.5Q851 135 880.5 143.5Q910 152 922 155L906 166Q904 168 900.5 169.5Q897 171 892 175Q859 197 822.5 221.0Q786 245 743.5 264.5Q701 284 648 292Q674 276 690.0 249.0Q706 222 706 189Q706 158 691.5 131.5Q677 105 651 88ZM507 90Q483 107 468.5 132.5Q454 158 454 189Q454 221 469.0 247.0Q484 273 508 289Q452 278 402.0 253.0Q352 228 310.5 199.0Q269 170 240 146Q251 143 279.5 136.0Q308 129 346.5 120.5Q385 112 427.0 103.5Q469 95 507 90Z" />
  </g>
</svg>