<svg xmlns="http://www.w3.org/2000/svg" viewBox="49 -219 1125 803">
  <g transform="translate(0, 365) scale(1, -1)">
    <path fill="black" d="M319 -219 300 -213 458 271Q405 280 348.0 291.0Q291 302 240.0 313.5Q189 325 153.5 333.0Q118 341 107 344Q92 331 80.0 319.5Q68 308 63 303L49 317Q92 360 153.5 406.5Q215 453 287.0 493.5Q359 534 435.5 559.0Q512 584 585 584Q679 584 757.0 557.5Q835 531 899.5 492.5Q964 454 1018 417Q1062 386 1100.5 362.5Q1139 339 1174 332L1170 313Q1146 317 1121.0 329.5Q1096 342 1069 359Q1062 357 1026.5 347.0Q991 337 938.0 323.0Q885 309 825.5 295.0Q766 281 711 271L869 -213L850 -219L692 267Q631 256 594 256V-219H575V256Q534 259 477 268ZM585 277Q625 277 657.0 296.5Q689 316 708.5 348.0Q728 380 728 419Q728 459 708.5 491.0Q689 523 657.0 542.5Q625 562 585 562Q546 562 513.5 542.5Q481 523 461.5 491.0Q442 459 442 419Q442 380 461.5 348.0Q481 316 513.5 296.5Q546 277 585 277ZM673 283Q723 291 781.5 304.5Q840 318 895.0 332.0Q950 346 991.0 357.5Q1032 369 1048 373L1007 400Q961 431 909.5 463.0Q858 495 799.0 521.0Q740 547 669 558Q704 536 725.5 499.5Q747 463 747 419Q747 376 726.5 340.5Q706 305 673 283ZM495 285Q463 306 443.0 341.5Q423 377 423 419Q423 462 443.0 497.5Q463 533 496 555Q421 540 351.0 505.5Q281 471 223.5 431.5Q166 392 126 360Q141 357 180.5 347.5Q220 338 274.0 326.5Q328 315 386.0 304.0Q444 293 495 285Z" />
  </g>
</svg>