<svg xmlns="http://www.w3.org/2000/svg" viewBox="49 -219 1150 960">
  <g transform="translate(0, 522) scale(1, -1)">
    <path fill="black" d="M64 429 49 440Q65 461 101.0 498.0Q137 535 189.0 576.5Q241 618 306.0 655.5Q371 693 446.0 717.0Q521 741 603 741Q662 741 720.0 726.5Q778 712 831.5 690.5Q885 669 929.0 646.0Q973 623 1003.0 604.5Q1033 586 1043 579Q1054 572 1075.0 558.5Q1096 545 1120.5 530.0Q1145 515 1166.5 502.0Q1188 489 1199 483L1189 466Q1178 472 1157.0 485.0Q1136 498 1111.0 513.0Q1086 528 1064.0 542.0Q1042 556 1030 564Q1020 571 991.5 589.0Q963 607 920.5 629.0Q878 651 826.0 672.0Q774 693 717.0 707.0Q660 721 603 721Q524 721 450.5 697.5Q377 674 314.0 638.0Q251 602 200.5 561.0Q150 520 115.0 484.5Q80 449 64 429ZM581 -219Q577 -173 565.5 -119.0Q554 -65 537.5 -13.0Q521 39 501.5 80.0Q482 121 460 141V170Q523 183 547 210Q562 227 567.0 252.0Q572 277 574 311Q533 315 479.0 324.0Q425 333 367.5 344.5Q310 356 258.5 367.0Q207 378 171.0 386.5Q135 395 125 398Q109 385 97.0 373.5Q85 362 80 357L66 371Q109 414 170.5 460.5Q232 507 304.0 547.5Q376 588 452.5 613.0Q529 638 603 638Q697 638 774.5 611.5Q852 585 916.5 546.0Q981 507 1035 470Q1079 440 1118.0 416.5Q1157 393 1191 386L1187 366Q1163 371 1138.5 383.5Q1114 396 1086 413Q1080 411 1046.5 401.5Q1013 392 963.5 379.0Q914 366 857.0 352.0Q800 338 745.5 327.5Q691 317 649 312L997 -151Q1010 -169 1029.5 -184.5Q1049 -200 1078 -200Q1112 -200 1138.0 -178.5Q1164 -157 1164 -120Q1164 -90 1144.5 -65.0Q1125 -40 1092 -40Q1061 -40 1044.0 -61.0Q1027 -82 1023 -102L1004 -99Q1007 -82 1017.5 -63.5Q1028 -45 1046.5 -32.5Q1065 -20 1092 -20Q1133 -20 1158.5 -51.0Q1184 -82 1184 -120Q1184 -166 1152.0 -192.5Q1120 -219 1078 -219Q1041 -219 1018.5 -201.0Q996 -183 980 -163L626 310H625V-219ZM602 331Q642 331 674.0 350.5Q706 370 725.5 402.0Q745 434 745 473Q745 513 725.5 545.0Q706 577 674.0 596.5Q642 616 602 616Q563 616 530.5 596.5Q498 577 478.5 545.0Q459 513 459 473Q459 434 478.5 402.0Q498 370 530.5 350.5Q563 331 602 331ZM690 337Q740 345 798.5 358.0Q857 371 912.0 385.5Q967 400 1008.0 411.5Q1049 423 1065 427L1024 454Q980 485 928.5 517.0Q877 549 817.0 574.5Q757 600 686 611Q721 590 742.5 553.5Q764 517 764 473Q764 430 743.5 394.5Q723 359 690 337ZM512 338Q480 360 460.0 395.5Q440 431 440 473Q440 516 460.0 551.5Q480 587 513 608Q438 593 368.0 559.0Q298 525 240.5 485.5Q183 446 144 414Q158 410 197.5 401.0Q237 392 291.0 380.0Q345 368 403.0 357.0Q461 346 512 338ZM599 -200H605V310H594Q592 271 587.0 244.5Q582 218 566 199Q554 186 533.5 175.0Q513 164 481 157V150Q502 130 521.0 90.0Q540 50 556.0 0.0Q572 -50 583.5 -102.5Q595 -155 599 -200Z" />
  </g>
</svg>