<svg xmlns="http://www.w3.org/2000/svg" viewBox="49 -44.31578947368421 639 400.7773279352227">
  <g transform="translate(0, 312.14574898785423) scale(1, -1)">
    <path fill="black" d="M684 -43Q610 -48 530.0 -34.0Q450 -20 375 -1L347 6Q313 17 265.0 29.0Q217 41 169 41Q140 41 112.5 34.0Q85 27 63 10L49 24Q91 76 150.5 125.5Q210 175 279.5 218.0Q349 261 421.5 293.5Q494 326 562.0 342.5Q630 359 686 356L688 338Q609 319 559.0 269.5Q509 220 509 146Q509 97 534.0 61.5Q559 26 599.0 5.0Q639 -16 684 -24ZM610 -23Q559 -1 524.5 41.0Q490 83 490 146Q490 211 524.0 258.5Q558 306 616 333Q555 324 485.0 298.0Q415 272 344.0 233.5Q273 195 209.0 148.0Q145 101 97 50Q133 61 169 61Q219 61 260.0 51.0Q301 41 335 30Q365 21 370 20Q396 12 435.5 3.0Q475 -6 521.0 -13.0Q567 -20 610 -23Z" />
  </g>
</svg>