<svg xmlns="http://www.w3.org/2000/svg" viewBox="49 -61 329 330">
  <g transform="translate(0, 208) scale(1, -1)">
    <path fill="black" d="M213 -61Q168 -61 131.0 -38.5Q94 -16 71.5 21.5Q49 59 49 104Q49 150 71.5 187.0Q94 224 131.0 246.5Q168 269 213 269Q259 269 296.0 246.5Q333 224 355.5 187.0Q378 150 378 104Q378 59 355.5 21.5Q333 -16 296.0 -38.5Q259 -61 213 -61ZM213 -41Q253 -41 286.0 -21.5Q319 -2 338.5 31.0Q358 64 358 104Q358 144 338.5 177.0Q319 210 286.0 229.5Q253 249 213 249Q173 249 140.0 229.5Q107 210 87.5 177.0Q68 144 68 104Q68 64 87.5 31.0Q107 -2 140.0 -21.5Q173 -41 213 -41Z" />
  </g>
</svg>