<svg xmlns="http://www.w3.org/2000/svg" viewBox="49 -61 1072 221">
  <g transform="translate(0, 99) scale(1, -1)">
    <path fill="black" d="M993 -61Q954 -61 908.5 -47.5Q863 -34 815.0 -12.5Q767 9 721 33Q671 59 614.5 84.0Q558 109 501.0 125.0Q444 141 393 141Q318 141 252.5 117.5Q187 94 138.5 60.5Q90 27 63 -4L49 9Q77 42 127.5 77.0Q178 112 246.5 136.0Q315 160 393 160Q445 160 504.5 143.5Q564 127 622.0 102.0Q680 77 729 51Q772 29 819.5 7.5Q867 -14 912.5 -27.5Q958 -41 993 -41Q1028 -41 1064.0 -34.5Q1100 -28 1117 -25L1121 -44Q1104 -48 1067.5 -54.5Q1031 -61 993 -61Z" />
  </g>
</svg>