<svg xmlns="http://www.w3.org/2000/svg" viewBox="49 -44 706 398">
  <g transform="translate(0, 310) scale(1, -1)">
    <path fill="black" d="M54 -44 52 -24Q100 -17 141.0 5.5Q182 28 207.5 63.5Q233 99 233 143Q233 205 206.5 244.0Q180 283 138.0 304.5Q96 326 49 335L51 354Q198 344 320.5 292.5Q443 241 558 158Q604 126 650.5 96.5Q697 67 755 47L748 27Q723 35 701.0 45.5Q679 56 659 67Q586 62 527.0 50.0Q468 38 415.0 23.0Q362 8 308.0 -7.0Q254 -22 192.5 -32.0Q131 -42 54 -44ZM140 -19Q224 -9 302.0 13.5Q380 36 459.5 57.5Q539 79 627 85Q607 99 587.0 113.0Q567 127 546 141Q484 185 424.5 218.5Q365 252 299.0 277.5Q233 303 150 321Q194 297 223.5 254.0Q253 211 253 143Q253 90 221.0 48.0Q189 6 140 -19Z" />
  </g>
</svg>