<svg xmlns="http://www.w3.org/2000/svg" viewBox="49 -53 1023 790">
  <g transform="translate(0, 684) scale(1, -1)">
    <path fill="black" d="M870 -53Q811 -53 748.0 -23.0Q685 7 620.0 59.0Q555 111 490.0 178.5Q425 246 362.5 321.0Q300 396 241.0 472.5Q182 549 130 618Q109 647 88.5 674.0Q68 701 49 726L64 737Q83 713 103.5 686.0Q124 659 146 630Q198 562 256.0 486.5Q314 411 376.0 336.5Q438 262 502.0 195.5Q566 129 629.5 77.0Q693 25 753.5 -4.5Q814 -34 870 -34Q925 -34 966.0 -12.5Q1007 9 1030.0 45.0Q1053 81 1053 122Q1053 142 1046.0 166.0Q1039 190 1023.0 212.0Q1007 234 980.0 248.5Q953 263 913 263Q870 263 843.0 243.0Q816 223 803.0 194.5Q790 166 789 139L770 140Q771 171 785.5 204.0Q800 237 831.5 260.0Q863 283 913 283Q957 283 987.5 267.5Q1018 252 1036.5 227.5Q1055 203 1063.5 175.0Q1072 147 1072 122Q1072 74 1046.5 34.0Q1021 -6 975.5 -29.5Q930 -53 870 -53Z" />
  </g>
</svg>