<svg xmlns="http://www.w3.org/2000/svg" viewBox="49 -233 1050 791">
  <g transform="translate(0, 325) scale(1, -1)">
    <path fill="black" d="M228 -233Q224 -196 214.0 -139.0Q204 -82 188.0 -17.5Q172 47 150.5 107.5Q129 168 103.5 212.5Q78 257 49 273V330Q120 330 156.5 352.0Q193 374 205.5 424.5Q218 475 218 558H284Q376 437 437.5 355.5Q499 274 537.5 223.0Q576 172 597.5 143.5Q619 115 629.5 102.0Q640 89 645 81Q684 27 724.0 -24.5Q764 -76 803.0 -118.5Q842 -161 881.0 -186.0Q920 -211 958 -211Q1000 -211 1027.0 -194.5Q1054 -178 1067.0 -152.0Q1080 -126 1080 -97Q1080 -75 1070.0 -47.5Q1060 -20 1035.5 0.5Q1011 21 966 21Q938 21 918.5 10.0Q899 -1 887.0 -15.5Q875 -30 868.5 -43.0Q862 -56 861 -60L843 -55Q844 -52 850.5 -37.0Q857 -22 871.5 -4.0Q886 14 909.5 27.5Q933 41 966 41Q1014 41 1043.5 19.0Q1073 -3 1086.0 -35.0Q1099 -67 1099 -97Q1099 -131 1083.0 -161.5Q1067 -192 1036.0 -211.0Q1005 -230 958 -230Q916 -230 875.0 -204.5Q834 -179 793.0 -136.0Q752 -93 711.0 -40.0Q670 13 629 69Q552 176 462.5 291.5Q373 407 284 525V-233ZM246 -213H265V539H237Q237 458 221.5 408.5Q206 359 169.5 336.0Q133 313 70 312V292Q110 251 140.0 188.5Q170 126 191.0 54.5Q212 -17 225.5 -87.0Q239 -157 246 -213Z" />
  </g>
</svg>