<svg xmlns="http://www.w3.org/2000/svg" viewBox="49 -49 514 701">
  <g transform="translate(0, 603) scale(1, -1)">
    <path fill="black" d="M137 -49Q49 -49 49 38Q49 58 64.0 83.5Q79 109 94 131Q108 151 119.5 170.0Q131 189 131 202Q131 223 144.0 242.0Q157 261 175.5 275.5Q194 290 208 297H217L234 269L232 258Q215 250 201.5 236.5Q188 223 188 210Q188 202 192.5 196.5Q197 191 201 191Q218 191 231.0 201.5Q244 212 253 223Q259 230 272.0 251.0Q285 272 298.5 296.0Q312 320 319.0 338.5Q326 357 320 358Q307 361 295.5 356.0Q284 351 272 351Q246 351 231.0 368.0Q216 385 210.5 408.5Q205 432 205 449Q205 497 226.0 543.5Q247 590 289.5 621.0Q332 652 394 652Q475 652 519.0 598.0Q563 544 563 456Q563 404 543.5 355.0Q524 306 493.0 264.0Q462 222 428.0 189.5Q394 157 364 137Q346 124 323.5 109.5Q301 95 280.5 78.5Q260 62 249 44Q239 24 223.0 2.0Q207 -20 186.0 -34.5Q165 -49 137 -49ZM137 -29Q172 -29 195.0 -2.0Q218 25 231 53Q241 69 263.5 88.0Q286 107 311.0 124.0Q336 141 353 152Q383 172 416.0 205.0Q449 238 478.5 279.0Q508 320 526.0 365.5Q544 411 544 456Q544 535 505.0 583.5Q466 632 394 632Q338 632 300.0 604.0Q262 576 243.0 534.0Q224 492 224 449Q224 435 228.0 416.5Q232 398 242.5 384.5Q253 371 271 371Q255 385 246.5 406.0Q238 427 238 444Q238 492 258.5 529.0Q279 566 314.0 587.5Q349 609 392 609Q437 609 463.5 587.0Q490 565 502.0 531.0Q514 497 514 462Q514 404 488.5 349.5Q463 295 421.5 247.0Q380 199 332.5 160.5Q285 122 241 96Q238 95 233.5 89.5Q229 84 225 79Q214 67 200.0 54.5Q186 42 167 42Q136 42 130.0 58.0Q124 74 125 90Q126 101 134.5 114.0Q143 127 150 137Q159 148 165.5 159.5Q172 171 172 184Q172 189 171 191Q170 196 169.5 200.5Q169 205 169 211Q169 227 181.5 244.0Q194 261 210 270L208 276Q191 266 170.5 246.0Q150 226 150 202Q150 185 137.5 164.0Q125 143 110 121Q94 99 81.0 77.0Q68 55 68 38Q68 -29 137 -29ZM419 272Q453 316 474.0 364.0Q495 412 495 462Q495 493 485.0 522.0Q475 551 452.5 570.5Q430 590 392 590Q353 590 321.5 567.5Q290 545 272.5 510.5Q255 476 257 441Q258 422 265.5 406.0Q273 390 291 375Q283 392 278.0 407.0Q273 422 273 438Q273 475 299.5 502.5Q326 530 369 530Q397 530 416.5 514.0Q436 498 446.5 473.5Q457 449 457 421Q457 381 446.5 342.5Q436 304 419 272ZM167 62Q180 62 190.5 72.0Q201 82 210 92Q215 98 220.5 103.5Q226 109 231 112Q267 134 303.5 162.0Q340 190 370.5 227.0Q401 264 419.0 312.0Q437 360 437 421Q437 455 419.0 482.5Q401 510 369 510Q335 510 313.5 488.5Q292 467 292 438Q292 421 298.0 407.0Q304 393 311 380H323Q343 378 341.5 358.5Q340 339 327.5 312.0Q315 285 299.0 259.5Q283 234 272 220Q261 206 243.5 188.5Q226 171 200 171Q197 171 194.5 171.5Q192 172 190 172Q187 159 180.5 147.5Q174 136 166 125Q159 115 152.0 105.5Q145 96 145 88Q144 79 147.0 70.5Q150 62 167 62Z" />
  </g>
</svg>