<svg xmlns="http://www.w3.org/2000/svg" viewBox="49 -219 1079 700">
  <g transform="translate(0, 262) scale(1, -1)">
    <path fill="black" d="M579 -219V195Q518 195 459.5 200.5Q401 206 348 214V0H328V217Q247 231 184.0 251.0Q121 271 85.0 293.5Q49 316 49 338Q49 362 94.0 387.5Q139 413 215.5 434.0Q292 455 388.5 468.0Q485 481 588 481Q692 481 788.5 468.0Q885 455 961.5 434.0Q1038 413 1083.0 387.5Q1128 362 1128 338Q1128 316 1091.5 293.5Q1055 271 992.0 251.0Q929 231 849 217V0H829V214Q775 206 716.5 200.5Q658 195 598 195V-219ZM588 214Q665 214 739.5 222.5Q814 231 879.5 244.5Q945 258 995.0 274.5Q1045 291 1073.5 307.5Q1102 324 1102 338Q1102 352 1073.5 368.5Q1045 385 995.0 401.0Q945 417 879.5 431.0Q814 445 739.5 453.0Q665 461 588 461Q511 461 436.5 453.0Q362 445 297.0 431.0Q232 417 182.0 401.0Q132 385 103.5 368.5Q75 352 75 338Q75 324 103.5 307.5Q132 291 182.0 274.5Q232 258 297.0 244.5Q362 231 436.5 222.5Q511 214 588 214Z" />
  </g>
</svg>