<svg xmlns="http://www.w3.org/2000/svg" viewBox="49 143.34328358208955 1046 280.65671641791045">
  <g transform="translate(0, 567.3432835820895) scale(1, -1)">
    <path fill="black" d="M49 162Q49 182 79.0 214.5Q109 247 161.5 283.5Q214 320 281.0 352.0Q348 384 423.0 404.0Q498 424 572 424Q646 424 720.5 404.0Q795 384 862.5 352.0Q930 320 982.5 283.5Q1035 247 1065.0 214.5Q1095 182 1095 162Q1095 137 1073.5 145.5Q1052 154 1013 177Q989 191 958.5 208.0Q928 225 891 242V162H242V236Q208 220 180.5 204.5Q153 189 131 177Q91 154 70.0 145.5Q49 137 49 162ZM68 165Q68 160 86.0 171.0Q104 182 126 195Q157 213 201.5 236.5Q246 260 303.0 283.0Q360 306 427.5 321.0Q495 336 572 336Q649 336 716.0 321.0Q783 306 840.0 283.0Q897 260 941.5 236.5Q986 213 1017 195Q1040 182 1057.5 171.0Q1075 160 1075 165Q1075 179 1047.5 207.0Q1020 235 971.0 268.5Q922 302 858.0 333.0Q794 364 721.0 384.0Q648 404 572 404Q496 404 423.0 384.0Q350 364 286.0 333.0Q222 302 173.0 268.5Q124 235 96.0 207.0Q68 179 68 165ZM531 181H602V316Q595 316 587.5 316.5Q580 317 572 317Q562 317 551.5 316.5Q541 316 531 315ZM621 181H691V306Q656 312 621 315ZM441 181H512V314Q493 313 475.5 310.0Q458 307 441 304ZM711 181H781V284Q765 289 747.0 293.5Q729 298 711 302ZM352 181H422V300Q403 296 386.0 291.0Q369 286 352 281ZM801 181H871V250Q855 258 837.0 264.5Q819 271 801 277ZM262 181H332V274Q313 267 296.0 260.0Q279 253 262 246Z" />
  </g>
</svg>