<svg xmlns="http://www.w3.org/2000/svg" viewBox="49 -8 1046 667">
  <g transform="translate(0, 651) scale(1, -1)">
    <path fill="black" d="M49 396Q49 417 79.0 449.5Q109 482 161.5 518.0Q214 554 281.0 586.5Q348 619 423.0 639.0Q498 659 572 659Q646 659 720.5 639.0Q795 619 862.5 586.5Q930 554 982.5 518.0Q1035 482 1065.0 449.5Q1095 417 1095 396Q1095 372 1073.5 380.5Q1052 389 1013 412Q989 426 958.5 443.0Q928 460 891 477V396H781V519Q765 524 747.0 528.5Q729 533 711 537V396H602V551Q595 551 587.5 551.5Q580 552 572 552Q562 552 551.5 551.5Q541 551 531 550V396H422V535Q403 531 386.0 526.0Q369 521 352 516V396H242V471Q208 455 180.5 439.5Q153 424 131 412Q91 389 70.0 380.5Q49 372 49 396ZM68 399Q68 395 86.0 406.0Q104 417 126 430Q157 448 201.5 471.5Q246 495 303.0 518.0Q360 541 427.5 556.0Q495 571 572 571Q649 571 716.0 556.0Q783 541 840.0 518.0Q897 495 941.5 471.5Q986 448 1017 430Q1040 417 1057.5 406.0Q1075 395 1075 399Q1075 413 1047.5 441.0Q1020 469 971.0 503.0Q922 537 858.0 568.0Q794 599 721.0 619.0Q648 639 572 639Q496 639 423.0 619.0Q350 599 286.0 568.0Q222 537 173.0 503.0Q124 469 96.0 441.0Q68 413 68 399ZM621 416H691V541Q656 547 621 550ZM441 416H512V549Q493 547 475.5 544.5Q458 542 441 539ZM801 416H871V485Q855 493 837.0 499.5Q819 506 801 512ZM262 416H332V509Q313 502 296.0 495.0Q279 488 262 480ZM572 -8Q498 -8 423.0 12.0Q348 32 281.0 64.0Q214 96 161.5 132.0Q109 168 79.0 200.5Q49 233 49 254Q49 279 70.0 270.5Q91 262 131 239Q153 226 180.5 210.5Q208 195 242 179V254H352V135Q369 129 386.0 124.5Q403 120 422 116V254H531V100Q541 99 551.5 99.0Q562 99 572 99Q580 99 587.5 99.0Q595 99 602 100V254H711V113Q729 118 747.0 122.5Q765 127 781 132V254H891V174Q928 191 958.5 208.5Q989 226 1013 239Q1052 262 1073.5 270.5Q1095 279 1095 254Q1095 233 1065.0 200.5Q1035 168 982.5 132.0Q930 96 862.5 64.0Q795 32 720.5 12.0Q646 -8 572 -8ZM572 11Q648 11 721.0 31.0Q794 51 858.0 82.0Q922 113 971.0 147.0Q1020 181 1047.5 209.5Q1075 238 1075 251Q1075 256 1057.5 245.0Q1040 234 1017 220Q986 202 941.5 178.5Q897 155 840.0 132.0Q783 109 716.0 94.0Q649 79 572 79Q495 79 427.5 94.0Q360 109 303.0 132.0Q246 155 201.5 178.5Q157 202 126 220Q104 234 86.0 245.0Q68 256 68 251Q68 238 96.0 209.5Q124 181 173.0 147.0Q222 113 286.0 82.0Q350 51 423.0 31.0Q496 11 572 11ZM621 101Q639 103 656.5 104.5Q674 106 691 109V234H621ZM801 138Q819 144 837.0 151.0Q855 158 871 165V234H801ZM512 102V234H441V112Q458 108 475.5 106.0Q493 104 512 102ZM332 142V234H262V170Q279 163 296.0 155.5Q313 148 332 142Z" />
  </g>
</svg>