<svg xmlns="http://www.w3.org/2000/svg" viewBox="49 -16 605 483">
  <g transform="translate(0, 451) scale(1, -1)">
    <path fill="black" d="M352 -16Q326 -16 312.5 0.0Q299 16 293.5 40.0Q288 64 286 87Q201 99 152.0 145.5Q103 192 80.5 272.5Q58 353 49 467H654Q646 353 622.5 272.5Q599 192 550.5 145.5Q502 99 417 87Q416 64 410.5 40.0Q405 16 391.5 0.0Q378 -16 352 -16ZM352 103Q455 103 512.5 141.5Q570 180 597.0 256.5Q624 333 633 447H70Q80 333 106.5 256.5Q133 180 191.0 141.5Q249 103 352 103ZM352 3Q370 3 379.0 16.0Q388 29 392.0 48.0Q396 67 397 85Q386 84 375.0 83.5Q364 83 352 83Q339 83 328.0 83.5Q317 84 306 85Q307 67 310.5 48.0Q314 29 324.0 16.0Q334 3 352 3Z" />
  </g>
</svg>