<svg xmlns="http://www.w3.org/2000/svg" viewBox="49 -191 811 941">
  <g transform="translate(0, 559) scale(1, -1)">
    <path fill="black" d="M455 -191Q423 -191 405.0 -170.5Q387 -150 379.0 -121.0Q371 -92 369 -69Q286 -57 221.0 -16.0Q156 25 116.0 108.0Q76 191 69 328L49 750H860L840 328Q834 191 794.0 108.0Q754 25 689.0 -16.0Q624 -57 540 -69Q539 -92 530.5 -121.0Q522 -150 504.5 -170.5Q487 -191 455 -191ZM455 -54Q569 -54 647.5 -17.5Q726 19 768.5 103.0Q811 187 818 328L839 730H70L91 328Q98 187 140.5 103.0Q183 19 262.0 -17.5Q341 -54 455 -54ZM455 -172Q480 -172 497.5 -144.5Q515 -117 515 -71Q505 -72 486.0 -72.5Q467 -73 455 -73Q442 -73 423.5 -72.5Q405 -72 394 -71Q394 -117 412.0 -144.5Q430 -172 455 -172Z" />
  </g>
</svg>