<svg xmlns="http://www.w3.org/2000/svg" viewBox="49 -185 706 1053">
  <g transform="translate(0, 683) scale(1, -1)">
    <path fill="black" d="M420 -185V73L315 209H229L211 172H135L116 209H99V229H736V250H154Q132 250 119.0 259.0Q106 268 98 282L92 295Q89 303 86.0 308.0Q83 313 79 313Q72 313 70.0 306.0Q68 299 68 291Q68 274 74.5 260.5Q81 247 88 241L75 227Q67 235 58.0 252.5Q49 270 49 291Q49 307 55.0 320.0Q61 333 79 333Q93 333 100.0 323.5Q107 314 111 302L110 303L116 291Q121 281 129.5 275.0Q138 269 154 269H193L178 280V628L157 704V771L184 832L224 868L251 844L218 789Q213 781 212.0 767.0Q211 753 211 738Q211 722 213.0 711.5Q215 701 219 692L227 694Q226 701 225.0 713.0Q224 725 224 731Q224 760 243 783L272 769Q271 762 267.5 752.5Q264 743 264 735Q264 719 267.5 708.5Q271 698 272 687L249 635L282 479V363L292 351H434L450 342L465 351H607L617 363V479L651 635L627 687Q629 698 632.5 708.5Q636 719 636 735Q636 743 632.5 752.5Q629 762 627 769L656 783Q676 758 676 731Q676 725 675.0 713.0Q674 701 672 694L681 692Q688 709 688 738Q688 753 687.5 767.0Q687 781 682 789L648 844L675 868L715 832L743 771V704L721 628V280L706 269H755V209H479V-185ZM225 269H675L702 290V631L727 705V767L703 822L676 849L667 842L691 801Q702 784 702.5 770.0Q703 756 703 739Q703 723 700.0 707.0Q697 691 689 678L660 687Q661 695 662.0 709.0Q663 723 663 730Q663 755 652 766L645 763Q647 757 649.0 750.0Q651 743 651 737Q651 721 648.0 709.0Q645 697 643 688L669 637L637 479V352L620 332H465L450 323L434 332H279L263 352V479L230 637L256 688Q255 697 252.0 709.0Q249 721 249 737Q249 743 251.0 750.0Q253 757 254 763L247 766Q236 753 236 730Q236 723 237.0 709.0Q238 695 239 687L210 678Q196 704 196 739Q196 756 197.0 770.0Q198 784 208 801L233 842L224 849L197 822L173 767V705L197 631V290ZM146 189H200L210 209H136ZM440 -166H459V209H440ZM420 100V122L354 209H336ZM420 149V209H374Z" />
  </g>
</svg>