<svg xmlns="http://www.w3.org/2000/svg" viewBox="49 -178 1033 934">
  <g transform="translate(0, 578) scale(1, -1)">
    <path fill="black" d="M1023 -178V140Q1023 175 1012.5 208.5Q1002 242 977.0 269.0Q952 296 907.0 313.5Q862 331 793 333V29L763 -11H288L212 -33H146L85 -5L49 35L72 62L127 28Q136 23 150.0 22.0Q164 21 179 21Q195 21 205.0 23.0Q215 25 224 29L222 38Q216 37 203.5 35.5Q191 34 186 34Q157 34 134 54L148 83Q156 81 165.0 77.5Q174 74 182 74Q197 74 208.0 78.0Q219 82 229 83L281 59L501 93H680L692 103V346L702 362L692 377V621L680 631H501L281 665L229 641Q219 643 208.0 646.0Q197 649 182 649Q174 649 165.0 646.0Q156 643 148 641L134 670Q156 689 186 689Q191 689 203.5 688.5Q216 688 222 686L224 694Q215 698 205.0 700.0Q195 702 179 702Q164 702 150.0 701.0Q136 700 127 695L72 662L49 689L85 729L146 756H212L288 735H763L793 695V390Q878 388 943.0 362.5Q1008 337 1045.0 282.0Q1082 227 1082 136V-178ZM149 -17H211L286 8H754L774 35V688L754 716H286L211 740H149L94 716L67 689L75 680L116 705Q133 715 146.5 716.0Q160 717 177 717Q213 717 238 703L229 674Q222 675 208.0 676.0Q194 677 186 677Q164 677 150 666L154 659Q160 661 167.0 663.0Q174 665 180 665Q196 665 208.0 661.5Q220 658 229 657L280 683L500 650H691L711 634V377L721 362L711 346V90L691 73H500L280 41L229 67Q220 66 208.0 62.5Q196 59 180 59Q174 59 167.0 61.5Q160 64 154 65L150 58Q162 47 186 47Q194 47 208.0 48.0Q222 49 229 50L238 21Q226 14 210.0 10.5Q194 7 177 7Q160 7 146.5 8.0Q133 9 116 19L75 43L67 34L94 7ZM1042 -158H1063V136Q1063 224 1028.0 275.0Q993 326 932.5 349.0Q872 372 793 372V352Q866 351 914.5 332.0Q963 313 991.0 282.5Q1019 252 1030.5 215.0Q1042 178 1042 140Z" />
  </g>
</svg>