<svg xmlns="http://www.w3.org/2000/svg" viewBox="49 -162 605 1012">
  <g transform="translate(0, 688) scale(1, -1)">
    <path fill="black" d="M258 68Q271 101 284.0 139.5Q297 178 306.5 211.0Q316 244 316 257Q316 299 301.5 371.0Q287 443 267 522Q256 564 246.5 604.0Q237 644 231.0 675.5Q225 707 225 722Q225 739 229.5 760.5Q234 782 247.0 802.5Q260 823 285.5 836.5Q311 850 352 850Q393 850 418.0 836.5Q443 823 456.5 802.5Q470 782 474.5 760.5Q479 739 479 722Q479 707 473.0 675.5Q467 644 457.5 604.0Q448 564 437 522Q417 443 402.0 371.0Q387 299 387 257Q387 244 396.5 211.0Q406 178 419.5 139.5Q433 101 445 68ZM287 88H417Q407 116 396.0 150.0Q385 184 377.0 213.0Q369 242 368 255Q365 299 381.5 372.0Q398 445 418 527Q434 591 446.5 645.0Q459 699 459 722Q459 741 451.5 766.5Q444 792 421.0 811.5Q398 831 352 831Q306 831 282.5 811.5Q259 792 251.5 766.5Q244 741 244 722Q244 699 256.5 645.0Q269 591 285 527Q306 445 322.0 372.0Q338 299 335 255Q335 242 327.0 213.0Q319 184 308.0 150.0Q297 116 287 88ZM110 -162 70 -131V217L49 292V359L76 420L116 456L143 433L110 377Q105 369 104.0 355.0Q103 341 103 326Q103 310 105.0 299.5Q107 289 111 281L119 283Q118 289 117.0 301.5Q116 314 116 319Q116 348 135 371L165 357Q163 350 159.5 340.5Q156 331 156 323Q156 308 159.5 297.0Q163 286 164 275L141 224L174 67V-48L184 -61H336L352 -70L367 -61H519L529 -48V67L563 224L539 275Q541 286 544.0 297.0Q547 308 547 323Q547 331 544.0 340.5Q541 350 539 357L568 371Q587 348 587 319Q587 314 586.0 301.5Q585 289 584 283L592 281Q596 289 598.0 299.5Q600 310 600 326Q600 341 599.0 355.0Q598 369 593 377L560 433L587 456L627 420L654 359V292L633 217V-131L593 -162ZM117 -143H586L614 -122V219L638 293V355L614 411L587 438L578 430L603 389Q613 373 614.0 359.0Q615 345 615 328Q615 292 601 267L572 275Q573 283 574.0 297.5Q575 312 575 319Q575 341 564 354L557 351Q559 345 561.0 338.0Q563 331 563 325Q563 309 559.5 297.0Q556 285 555 276L581 225L548 68V-60L532 -80H367L352 -89L336 -80H171L155 -60V68L123 225L148 276Q147 285 144.0 297.0Q141 309 141 325Q141 331 143.0 338.0Q145 345 146 351L139 354Q128 341 128 319Q128 312 129.0 297.5Q130 283 131 275L102 267Q88 292 88 328Q88 345 89.5 359.0Q91 373 101 389L125 430L116 438L89 411L65 355V293L89 219V-122Z" />
  </g>
</svg>