<svg xmlns="http://www.w3.org/2000/svg" viewBox="49 -155 786 1005">
  <g transform="translate(0, 695) scale(1, -1)">
    <path fill="black" d="M361 -155 310 -138 257 -99 219 -39 201 50 49 402V448L235 830L270 850H318L406 824H478L565 850H614L649 830L835 448V402L683 50L665 -39L627 -99L574 -138L523 -155L507 -124L559 -85Q567 -80 573.5 -67.0Q580 -54 585 -41Q591 -26 593.0 -15.5Q595 -5 595 4L587 6Q586 0 582.0 -12.0Q578 -24 576 -29Q565 -57 538 -70L517 -45Q522 -40 528.5 -32.5Q535 -25 538 -18Q543 -4 544.5 8.0Q546 20 548 30L590 68L710 416V446L583 683L556 734H530L487 715H397L354 734H328L301 683L173 446V416L294 68L335 30Q338 20 339.0 8.0Q340 -4 346 -18Q349 -25 356.0 -32.5Q363 -40 367 -45L346 -70Q319 -57 308 -29Q306 -24 302.5 -12.0Q299 0 297 6L289 4Q289 -5 291.0 -15.5Q293 -26 299 -41Q304 -54 310.5 -67.0Q317 -80 325 -85L376 -124ZM353 -139 359 -128 321 -100Q305 -88 298.5 -76.0Q292 -64 286 -48Q279 -33 276.0 -16.5Q273 0 275 14L305 17Q307 10 311.5 -3.5Q316 -17 319 -24Q328 -46 343 -53L348 -47Q344 -42 339.5 -36.5Q335 -31 333 -25Q327 -10 325.5 2.0Q324 14 321 23L278 60L152 419V449L283 694L314 755H352L399 734H485L532 755H569L601 694L732 449V419L606 60L563 23Q560 14 558.5 2.0Q557 -10 551 -25Q549 -31 544.5 -36.5Q540 -42 536 -47L541 -53Q556 -45 564 -24Q567 -17 572.0 -3.5Q577 10 579 17L609 14Q611 0 607.5 -16.5Q604 -33 598 -48Q591 -64 585.0 -76.0Q579 -88 563 -100L525 -128L531 -139L566 -124L613 -90L650 -33L664 55L816 408V439L636 811L612 828H565L478 802H406L318 828H272L248 811L68 439V408L220 55L234 -33L271 -90L318 -124Z" />
  </g>
</svg>