<svg xmlns="http://www.w3.org/2000/svg" viewBox="49 -141 889 998">
  <g transform="translate(0, 716) scale(1, -1)">
    <path fill="black" d="M866 -141Q832 -141 803.0 -121.0Q774 -101 752.5 -73.0Q731 -45 721 -21L580 59L557 38L533 36L499 64L501 85L489 93L495 107L253 245L214 232L202 245H188L152 280L158 299L49 362L64 389L183 321L186 323L221 327L438 419L450 438L453 636Q386 683 344.0 726.0Q302 769 302 800Q302 825 316.0 829.0Q330 833 340 833Q347 833 366.5 829.5Q386 826 410 821Q440 815 469.5 809.5Q499 804 509 804Q549 804 575.5 814.5Q602 825 623 836Q640 844 655.0 850.5Q670 857 686 857Q707 857 718.5 839.5Q730 822 737.5 795.0Q745 768 750 738Q755 714 760.5 691.0Q766 668 773 654Q782 638 802.5 615.5Q823 593 844 570H843Q866 546 883.5 526.0Q901 506 901 495Q901 478 887.0 474.0Q873 470 860 470Q835 470 808.0 474.5Q781 479 750 487L759 310L755 292L600 97L596 86L736 6Q742 8 759.5 13.5Q777 19 803 19Q837 19 868.0 6.0Q899 -7 918.5 -28.0Q938 -49 938 -74Q938 -106 915.0 -123.5Q892 -141 866 -141ZM860 489Q867 489 874.0 490.0Q881 491 881 495Q881 500 865.0 517.0Q849 534 829 556Q808 579 787.0 603.0Q766 627 756 644Q748 661 742.0 685.0Q736 709 731 734Q726 760 720.0 783.5Q714 807 706.0 822.0Q698 837 686 837Q673 837 659.5 831.5Q646 826 632 818Q610 807 580.5 796.0Q551 785 509 785Q497 785 466.0 790.0Q435 795 406 802Q383 807 363.5 810.5Q344 814 340 814Q335 814 328.5 812.0Q322 810 322 800Q322 783 346.0 755.0Q370 727 412.0 693.5Q454 660 507 626Q563 591 625.0 559.5Q687 528 748.0 508.5Q809 489 860 489ZM202 258 266 286 316 301 518 379 529 396 531 586 497 608 473 624 468 433 455 411 227 312 189 308 171 292 167 281 190 259ZM514 132 570 172 657 325 649 524Q624 535 600.0 548.5Q576 562 551 576L548 391L533 367L320 285L284 277L276 268ZM539 48 547 49 568 66 577 83 585 106 738 299 740 311 729 494Q714 499 699.0 504.5Q684 510 669 516L676 317L584 164L528 125L537 119L513 84L511 71ZM166 309 172 313 68 373 65 367ZM518 108 523 113 255 266 247 263ZM220 246 239 253 232 257 216 250ZM507 93 511 98 504 102 501 96ZM725 -9 728 -3 591 74 589 68ZM867 -121Q886 -121 902.0 -109.5Q918 -98 918 -75Q918 -56 902.0 -39.5Q886 -23 859.5 -12.0Q833 -1 802 -1Q785 -1 769.5 -4.0Q754 -7 746 -10L741 -19Q748 -34 764.5 -58.0Q781 -82 807.0 -101.5Q833 -121 867 -121Z" />
  </g>
</svg>