<svg xmlns="http://www.w3.org/2000/svg" viewBox="49 0 1425 446">
  <g transform="translate(0, 446) scale(1, -1)">
    <path fill="black" d="M146 0 85 27 49 67 72 94 127 61Q136 56 150.0 55.0Q164 54 179 54Q195 54 205.0 56.0Q215 58 224 62L222 70Q216 69 203.5 68.0Q191 67 186 67Q156 67 134 86L148 116Q156 114 165.0 110.5Q174 107 182 107Q197 107 208.0 110.5Q219 114 229 115L281 92L438 104L563 103L575 113L666 370Q680 411 706.0 428.0Q732 445 761 446Q791 445 817.0 428.0Q843 411 857 370L947 113L959 103L1084 104L1241 92L1293 115Q1304 114 1314.5 110.5Q1325 107 1341 107Q1349 107 1358.5 110.5Q1368 114 1375 116L1389 86Q1366 67 1337 67Q1331 67 1319.0 68.0Q1307 69 1300 70L1298 62Q1307 58 1317.5 56.0Q1328 54 1344 54Q1359 54 1373.0 55.0Q1387 56 1395 61L1450 94L1474 67L1438 27L1376 0H1310L1234 21L921 0H892L862 21L761 271L660 21L631 0H602L288 21L212 0ZM149 16H211L286 41L604 18H625L641 29L754 304H768L882 29L898 18H918L1237 41L1311 16H1373L1428 40L1455 67L1448 76L1407 52Q1390 42 1376.0 41.0Q1362 40 1345 40Q1329 40 1313.0 43.0Q1297 46 1284 53L1293 83Q1301 82 1315.0 81.0Q1329 80 1336 80Q1361 80 1372 90L1369 98Q1363 96 1356.0 94.0Q1349 92 1343 92Q1327 92 1315.0 95.5Q1303 99 1293 100L1243 74L1085 85L948 83L928 100L837 367Q837 368 830.0 382.5Q823 397 806.5 411.5Q790 426 761 426Q733 426 716.5 411.5Q700 397 693.0 382.5Q686 368 685 367L594 100L574 83L437 85L280 74L229 100Q220 99 208.0 95.5Q196 92 180 92Q174 92 167.0 94.0Q160 96 154 98L150 90Q163 80 186 80Q194 80 208.0 81.0Q222 82 229 83L238 53Q226 46 210.0 43.0Q194 40 177 40Q160 40 146.5 41.0Q133 42 116 52L75 76L67 67L94 40Z" />
  </g>
</svg>