<svg xmlns="http://www.w3.org/2000/svg" viewBox="49 0 1408 580">
  <g transform="translate(0, 580) scale(1, -1)">
    <path fill="black" d="M226 0 127 43 49 118 81 164 170 104Q181 97 208.5 87.5Q236 78 258 73L374 83L371 102Q367 101 354.5 100.5Q342 100 330.0 99.5Q318 99 314 99Q305 99 285.0 101.0Q265 103 244.0 107.0Q223 111 211 116L223 172Q228 171 243.5 169.0Q259 167 277.5 166.0Q296 165 308 165Q319 165 336.0 166.5Q353 168 369.5 170.0Q386 172 393 173L468 139L932 165L1239 161L1251 170L1277 580H1436L1457 62L1427 21H476L366 0ZM229 20H365L473 41H1417L1438 70L1418 561H1296L1270 158L1250 141L931 146L460 121L387 153Q381 153 366.0 151.0Q351 149 335.0 147.0Q319 145 308 145Q300 145 284.5 146.0Q269 147 254.5 148.5Q240 150 235 151L231 130Q250 123 276.5 120.5Q303 118 314 118Q319 118 334.5 118.5Q350 119 365.0 120.0Q380 121 385 121L394 66L256 53Q231 59 200.5 69.0Q170 79 158 87L84 137L72 120L137 61Z" />
  </g>
</svg>