<svg xmlns="http://www.w3.org/2000/svg" viewBox="49 0 1408 600">
  <g transform="translate(0, 600) scale(1, -1)">
    <path fill="black" d="M226 0 127 43 49 118 81 164 108 146 227 600H260L369 170L393 173L468 139L932 165L1239 161L1251 170L1277 580H1436L1457 62L1427 21H476L366 0ZM314 78 370 85 246 581H243L125 134L170 104Q172 102 175.5 100.5Q179 99 183 97L233 285H261ZM229 20H365L473 41H1417L1438 70L1418 561H1296L1270 158L1250 141L931 146L460 121L387 153L373 151L392 77L383 66L293 58L256 53Q231 59 200.5 69.0Q170 79 158 87L84 137L72 120L137 61ZM258 73 295 76 248 265 200 91 250 75Q258 73 258 73Z" />
  </g>
</svg>