<svg xmlns="http://www.w3.org/2000/svg" viewBox="49 0 1408 580">
  <g transform="translate(0, 580) scale(1, -1)">
    <path fill="black" d="M226 0 127 43 49 118 81 164 119 137V190Q119 267 134.0 327.5Q149 388 179.5 423.0Q210 458 256 458Q303 458 333.0 423.0Q363 388 378.0 327.5Q393 267 393 190V170L418 173L468 139L932 165L1239 161L1251 170L1277 580H1436L1457 62L1427 21H476L366 0ZM229 20H365L473 41H1417L1438 70L1418 561H1296L1270 158L1250 141L931 146L460 121L408 153L393 151V78L383 67L256 53Q231 59 200.5 69.0Q170 79 158 87L84 137L72 120L137 61ZM258 73 374 86V190Q374 259 360.5 315.5Q347 372 321.0 405.5Q295 439 256 439Q218 439 191.5 405.5Q165 372 152.0 315.5Q139 259 139 190V125L183 97Z" />
  </g>
</svg>