<svg xmlns="http://www.w3.org/2000/svg" viewBox="49 0 1408 580">
  <g transform="translate(0, 580) scale(1, -1)">
    <path fill="black" d="M226 0 127 43 49 118 81 164 107 146Q89 181 89 222Q89 265 109.0 300.5Q129 336 163 358Q160 360 153.5 369.5Q147 379 147 390Q147 404 154.5 414.0Q162 424 185.0 430.0Q208 436 252 436Q297 436 319.5 430.0Q342 424 349.5 414.0Q357 404 357 390Q357 379 350.5 369.5Q344 360 341 358Q375 336 395.0 300.5Q415 265 415 222Q415 197 408 176H442L493 139L932 165L1239 161L1251 170L1277 580H1436L1457 62L1427 21H476L366 0ZM229 20H365L473 41H1417L1438 70L1418 561H1296L1270 158L1250 141L931 146L484 121L437 158H401Q398 148 394 143L417 114V78L408 67L256 53Q244 55 226 61Q200 65 176 78Q164 83 158 87L84 137L72 120L137 61ZM179 368Q195 376 214.0 380.5Q233 385 252 385Q271 385 290.0 380.5Q309 376 325 368Q328 370 332.5 375.5Q337 381 337 391Q337 404 319.5 410.5Q302 417 252 417Q203 417 185.0 410.5Q167 404 167 391Q167 381 171.5 375.5Q176 370 179 368ZM237 79H252Q292 79 324.5 98.5Q357 118 376.5 150.5Q396 183 396 222Q396 262 376.5 294.5Q357 327 324.5 346.5Q292 366 252 366Q213 366 180.0 346.5Q147 327 127.5 294.5Q108 262 108 222Q108 188 122.5 159.5Q137 131 161 111L183 97ZM331 80 398 86V108L383 125Q363 97 331 80Z" />
  </g>
</svg>