<svg xmlns="http://www.w3.org/2000/svg" viewBox="49 -11 1408 591">
  <g transform="translate(0, 569) scale(1, -1)">
    <path fill="black" d="M393 -11Q386 -10 369.5 -8.0Q353 -6 336.0 -4.0Q319 -2 308 -2Q296 -2 277.5 -3.5Q259 -5 243.5 -6.5Q228 -8 223 -10L211 46Q223 52 244.0 55.5Q265 59 285.0 61.0Q305 63 314 63Q318 63 330.0 62.5Q342 62 354.5 62.0Q367 62 371 61L374 80L258 89Q236 84 208.5 75.0Q181 66 170 59L81 -2L49 44L127 119L226 162H366L476 141L932 165L1239 161L1251 170L1277 580H1436L1457 62L1427 21H468ZM387 9 460 41H1417L1438 70L1418 561H1296L1270 158L1250 141L931 146L473 121L365 143H229L137 101L72 42L84 25L158 75Q170 83 200.5 93.0Q231 103 256 109L394 96L385 42Q380 42 365.0 42.5Q350 43 334.5 43.5Q319 44 314 44Q303 44 276.5 42.0Q250 40 231 32L235 11Q240 13 254.5 14.0Q269 15 284.5 16.0Q300 17 308 17Q319 17 335.0 15.0Q351 13 366.0 11.5Q381 10 387 9Z" />
  </g>
</svg>