<svg xmlns="http://www.w3.org/2000/svg" viewBox="49 11 1452 825">
  <g transform="translate(0, 847) scale(1, -1)">
    <path fill="black" d="M326 11Q328 15 327.5 34.0Q327 53 319 88H231L161 140V242L185 270H161L155 317L246 327L238 351L139 379Q115 386 111.0 394.0Q107 402 102 425L52 699Q51 703 50.0 711.0Q49 719 49 725Q49 741 55.0 760.0Q61 779 77.5 793.0Q94 807 124 807Q149 807 165.5 796.5Q182 786 193.0 772.0Q204 758 209 747L339 511Q350 492 350 477Q350 467 346.5 459.0Q343 451 335 440L287 366L299 327L363 323L491 244L729 310L963 350L1275 759Q1286 774 1302.0 792.0Q1318 810 1341.5 823.0Q1365 836 1397 836Q1439 836 1461.5 820.5Q1484 805 1492.5 785.5Q1501 766 1501 754Q1501 713 1476.5 679.5Q1452 646 1429 615L1110 192L479 123L379 89Q391 59 399.0 47.0Q407 35 410 36ZM240 108H377L477 142L1101 211L1414 626Q1439 659 1460.0 691.0Q1481 723 1481 754Q1481 763 1474.0 778.0Q1467 793 1449.0 804.5Q1431 816 1397 816Q1357 816 1333.0 794.0Q1309 772 1294 752L974 330L728 290L482 226L352 305L306 308L314 281L332 277V258L288 270H210L181 234V152ZM243 370 271 377 319 451Q324 459 327.5 465.5Q331 472 331 477Q331 486 321 502L192 737Q185 751 170.0 769.5Q155 788 125 788Q102 788 89.5 777.5Q77 767 72.5 752.5Q68 738 68 725Q68 721 69.0 715.0Q70 709 71 706L122 429Q124 413 127.0 407.5Q130 402 145 397ZM174 287 258 288 251 309 172 301Z" />
  </g>
</svg>