<svg xmlns="http://www.w3.org/2000/svg" viewBox="49 -45 1784 648">
  <g transform="translate(0, 558) scale(1, -1)">
    <path fill="black" d="M511 78Q488 78 461.5 84.5Q435 91 411.0 109.5Q387 128 371.5 163.5Q356 199 356 256Q356 313 373.5 350.0Q391 387 417.0 407.0Q443 427 469.5 435.0Q496 443 514 443H734Q694 455 664.0 486.0Q634 517 633 565Q632 581 640.5 592.0Q649 603 670 603Q683 603 696.0 597.0Q709 591 723 583Q743 573 769.5 561.5Q796 550 831 550Q850 550 886.0 555.0Q922 560 962 565Q1012 573 1063.5 579.0Q1115 585 1149 585Q1225 584 1290.5 567.5Q1356 551 1408.5 527.0Q1461 503 1499.0 480.0Q1537 457 1558 444L1833 492V139L1611 181Q1597 172 1573.5 155.5Q1550 139 1514.5 121.0Q1479 103 1430.5 90.5Q1382 78 1319 78ZM511 98H1319Q1381 98 1429.5 111.5Q1478 125 1513.5 143.5Q1549 162 1572.0 179.5Q1595 197 1607 204L1813 164V466L1553 424Q1531 438 1492.5 461.0Q1454 484 1402.5 508.0Q1351 532 1287.0 548.0Q1223 564 1149 565Q1116 566 1064.0 559.5Q1012 553 965 546Q924 540 888.0 535.5Q852 531 831 531Q791 531 763.0 542.5Q735 554 714 566Q701 573 690.0 578.0Q679 583 670 583Q652 583 652 565Q654 531 673.5 506.5Q693 482 722.5 469.0Q752 456 783 456Q804 456 824.5 462.0Q845 468 872.0 473.5Q899 479 937 479Q965 479 995.5 472.0Q1026 465 1053.0 456.5Q1080 448 1096 443H1190V423H514Q498 423 474.5 416.0Q451 409 428.5 391.0Q406 373 390.5 340.0Q375 307 375 256Q375 205 388.5 173.5Q402 142 423.0 125.5Q444 109 467.5 103.5Q491 98 511 98ZM409 490Q393 490 381.0 502.0Q369 514 369 530Q369 547 381.0 558.5Q393 570 409 570Q426 570 437.5 558.5Q449 547 449 530Q449 514 437.5 502.0Q426 490 409 490ZM561 488Q545 488 533.0 500.0Q521 512 521 528Q521 545 533.0 556.5Q545 568 561 568Q578 568 589.5 556.5Q601 545 601 528Q601 512 589.5 500.0Q578 488 561 488ZM409 510Q417 510 423.0 516.0Q429 522 429 530Q429 539 423.0 545.0Q417 551 409 551Q400 551 394.0 545.0Q388 539 388 530Q388 522 394.0 516.0Q400 510 409 510ZM561 507Q569 507 575.5 513.5Q582 520 582 528Q582 536 575.5 542.0Q569 548 561 548Q553 548 547.0 542.0Q541 536 541 528Q541 520 547.0 513.5Q553 507 561 507ZM269 416Q253 416 241.0 428.0Q229 440 229 456Q229 473 241.0 484.5Q253 496 269 496Q286 496 297.5 484.5Q309 473 309 456Q309 440 297.5 428.0Q286 416 269 416ZM269 435Q277 435 283.5 441.0Q290 447 290 456Q290 464 283.5 470.0Q277 476 269 476Q261 476 255.0 470.0Q249 464 249 456Q249 447 255.0 441.0Q261 435 269 435ZM833 443H1032Q1009 449 984.5 454.0Q960 459 937 459Q903 459 879.0 453.5Q855 448 833 443ZM184 268Q168 268 156.0 280.0Q144 292 144 308Q144 325 156.0 336.5Q168 348 184 348Q201 348 212.5 336.5Q224 325 224 308Q224 292 212.5 280.0Q201 268 184 268ZM184 287Q192 287 198.0 293.0Q204 299 204 308Q204 316 198.0 322.0Q192 328 184 328Q175 328 169.0 322.0Q163 316 163 308Q163 299 169.0 293.0Q175 287 184 287ZM115 121Q99 121 87.0 133.0Q75 145 75 161Q75 178 87.0 189.5Q99 201 115 201Q132 201 143.5 189.5Q155 178 155 161Q155 145 143.5 133.0Q132 121 115 121ZM115 141Q123 141 129.5 147.0Q136 153 136 161Q136 169 129.5 175.5Q123 182 115 182Q107 182 101.0 175.5Q95 169 95 161Q95 153 101.0 147.0Q107 141 115 141ZM89 -45Q73 -45 61.0 -33.0Q49 -21 49 -5Q49 12 61.0 23.5Q73 35 89 35Q106 35 117.5 23.5Q129 12 129 -5Q129 -21 117.5 -33.0Q106 -45 89 -45ZM89 -25Q97 -25 103.0 -19.0Q109 -13 109 -5Q109 3 103.0 9.5Q97 16 89 16Q81 16 74.5 9.5Q68 3 68 -5Q68 -13 74.5 -19.0Q81 -25 89 -25Z" />
  </g>
</svg>