<svg xmlns="http://www.w3.org/2000/svg" viewBox="49 80 1474 497">
  <g transform="translate(0, 657) scale(1, -1)">
    <path fill="black" d="M728 80Q657 80 579.5 94.5Q502 109 425.5 136.0Q349 163 281.5 199.0Q214 235 161.5 278.0Q109 321 79.0 369.0Q49 417 49 466Q57 481 81.5 497.0Q106 513 146 513Q160 513 183.5 499.5Q207 486 239 465Q276 441 326.5 411.0Q377 381 440.0 353.5Q503 326 578.5 308.0Q654 290 742 290Q821 290 877.5 300.5Q934 311 970.5 324.5Q1007 338 1022 346L991 404Q962 398 905.5 391.0Q849 384 775 385Q737 386 689.5 393.5Q642 401 594.0 419.5Q546 438 504 471L553 577Q559 573 577.0 564.5Q595 556 619.0 547.0Q643 538 667.5 531.5Q692 525 710 525Q744 525 772.5 531.0Q801 537 829 544Q864 553 903.5 561.5Q943 570 998 570Q1055 570 1114.5 551.5Q1174 533 1226.0 506.0Q1278 479 1312 454Q1324 455 1359.5 456.5Q1395 458 1440.0 460.5Q1485 463 1523 465V187L1321 204Q1317 202 1279.5 189.0Q1242 176 1181.0 158.0Q1120 140 1044.5 122.0Q969 104 887.5 92.0Q806 80 728 80ZM728 99Q800 99 880.5 111.0Q961 123 1041.5 142.0Q1122 161 1193.5 183.0Q1265 205 1318 225L1502 209V444L1305 434Q1275 459 1225.5 486.0Q1176 513 1117.0 531.5Q1058 550 998 550Q946 550 906.0 542.0Q866 534 834 526Q804 518 774.5 512.0Q745 506 710 506Q693 506 670.0 511.5Q647 517 624.0 525.0Q601 533 584.0 540.5Q567 548 562 552L528 477Q565 450 609.0 434.0Q653 418 696.5 411.5Q740 405 775 405Q852 404 912.5 412.0Q973 420 1002 426L1049 338Q1038 333 1000.0 316.0Q962 299 897.5 284.5Q833 270 742 270Q654 270 577.5 288.0Q501 306 436.0 334.0Q371 362 319.0 393.0Q267 424 228 449Q200 467 177.5 480.0Q155 493 146 493Q116 493 96.0 482.5Q76 472 68 462Q69 418 98.5 373.5Q128 329 179.5 288.5Q231 248 296.5 213.5Q362 179 435.5 153.5Q509 128 584.0 113.5Q659 99 728 99Z" />
  </g>
</svg>