<svg xmlns="http://www.w3.org/2000/svg" viewBox="49 83 1464 436">
  <g transform="translate(0, 602) scale(1, -1)">
    <path fill="black" d="M216 83Q158 83 121.0 106.5Q84 130 66.5 165.0Q49 200 49 234V356Q49 402 69.5 438.5Q90 475 128.0 497.0Q166 519 216 519H1040Q1072 519 1104.5 517.0Q1137 515 1168.0 504.5Q1199 494 1225 467Q1252 440 1279.5 425.5Q1307 411 1337 411H1360Q1382 411 1410.0 418.5Q1438 426 1465.5 436.5Q1493 447 1513 457V145Q1493 155 1465.5 165.5Q1438 176 1410.0 183.5Q1382 191 1360 191H1337Q1307 191 1279.5 176.5Q1252 162 1225 134Q1190 99 1146.5 91.0Q1103 83 1059 83ZM216 102H1059Q1100 102 1140.0 109.5Q1180 117 1211 148Q1241 178 1272.0 194.0Q1303 210 1337 210H1361Q1384 210 1410.5 204.0Q1437 198 1459.5 190.5Q1482 183 1493 177V424Q1482 419 1459.5 411.0Q1437 403 1410.5 397.0Q1384 391 1361 391H1337Q1303 391 1272.0 407.0Q1241 423 1211 454Q1180 485 1140.0 492.5Q1100 500 1059 500H216Q172 500 138.5 480.5Q105 461 86.5 428.5Q68 396 68 356V234Q68 204 83.5 173.5Q99 143 132.0 122.5Q165 102 216 102Z" />
  </g>
</svg>