<svg xmlns="http://www.w3.org/2000/svg" viewBox="49 3 1293 570">
  <g transform="translate(0, 576) scale(1, -1)">
    <path fill="black" d="M523 3Q460 3 393.5 16.0Q327 29 265.5 51.5Q204 74 155.0 103.0Q106 132 77.5 164.5Q49 197 49 230Q49 263 77.0 276.0Q105 289 139 289Q147 289 154.5 288.5Q162 288 169 287Q155 304 149.5 321.5Q144 339 144 360Q144 396 169.5 418.5Q195 441 234.0 453.0Q273 465 316.5 470.0Q360 475 396 475Q389 481 382.0 488.5Q375 496 375 516Q375 550 428.0 561.5Q481 573 583 573Q632 573 687.0 568.5Q742 564 792.5 556.0Q843 548 878 537Q921 524 969.5 490.0Q1018 456 1061 423Q1083 406 1103.5 390.5Q1124 375 1143 363H1342V122Q1278 119 1204.0 108.5Q1130 98 1053.0 84.5Q976 71 904 58Q831 45 760.0 32.0Q689 19 628.0 11.0Q567 3 523 3ZM523 23Q588 23 688.0 39.5Q788 56 900 77Q1010 97 1119.0 116.0Q1228 135 1323 141V344H1137Q1118 356 1095.0 373.0Q1072 390 1049 407Q1022 429 990.5 451.5Q959 474 929.0 492.0Q899 510 873 518Q839 529 789.5 537.0Q740 545 686.0 549.5Q632 554 583 554Q499 554 446.5 545.0Q394 536 394 513Q394 496 406.5 488.0Q419 480 431 475Q504 475 572.0 467.5Q640 460 693.5 444.0Q747 428 778.0 402.0Q809 376 809 340Q809 298 782.0 270.5Q755 243 711.0 227.5Q667 212 615.0 205.5Q563 199 513 199Q437 199 375.0 210.0Q313 221 268.5 235.5Q224 250 199 260V261Q173 269 139 269Q113 269 90.5 261.0Q68 253 68 230Q68 200 95.5 170.0Q123 140 170.0 114.0Q217 88 276.0 67.5Q335 47 399.0 35.0Q463 23 523 23ZM513 218Q560 218 608.5 223.5Q657 229 698.0 242.5Q739 256 764.0 279.5Q789 303 789 340Q789 371 758.5 393.0Q728 415 676.0 429.0Q624 443 559.0 449.5Q494 456 424 456Q375 456 328.5 451.0Q282 446 245.0 435.0Q208 424 186.0 405.5Q164 387 164 360Q164 337 174.0 317.0Q184 297 207 277Q231 268 274.5 254.0Q318 240 378.5 229.0Q439 218 513 218Z" />
  </g>
</svg>