<svg xmlns="http://www.w3.org/2000/svg" viewBox="49 -219 238 1220.2051282051282">
  <g transform="translate(0, 782.2051282051282) scale(1, -1)">
    <path fill="black" d="M63 -219Q71 -150 80.0 -72.0Q89 6 97.0 84.0Q105 162 110.0 233.0Q115 304 115 359Q115 415 104.5 477.5Q94 540 81 598Q69 654 59.0 708.5Q49 763 49 813Q49 885 77.0 926.5Q105 968 149.0 985.5Q193 1003 240 1001Q233 966 228.0 932.0Q223 898 223 858Q223 837 229.5 795.5Q236 754 246 701Q255 650 264.5 591.5Q274 533 280.5 476.5Q287 420 287 373Q287 311 280.5 219.5Q274 128 261.5 16.0Q249 -96 229 -219ZM210 794Q204 835 204 858Q203 899 206.5 926.5Q210 954 216 982Q206 982 196.0 981.0Q186 980 177 978Q164 950 155.0 921.5Q146 893 146 852Q146 822 164.0 807.5Q182 793 210 794ZM85 -200H212Q231 -80 243.5 27.5Q256 135 262.0 223.5Q268 312 268 373Q268 418 261.5 474.0Q255 530 246.0 588.0Q237 646 227 697Q223 718 219.5 737.5Q216 757 213 775Q176 772 151.5 791.5Q127 811 127 852Q127 893 135.0 921.0Q143 949 152 970Q116 955 92.0 917.5Q68 880 68 813Q68 766 78.0 712.0Q88 658 101 602Q114 544 124.5 481.0Q135 418 135 359Q135 305 130.5 236.5Q126 168 118.5 93.5Q111 19 102.0 -56.5Q93 -132 85 -200Z" />
  </g>
</svg>