<svg xmlns="http://www.w3.org/2000/svg" viewBox="49 -219 561 1220.2051282051282">
  <g transform="translate(0, 782.2051282051282) scale(1, -1)">
    <path fill="black" d="M385 -219Q394 -150 403.0 -72.0Q412 6 420.0 84.0Q428 162 433.0 233.0Q438 304 438 359Q438 415 427.5 477.5Q417 540 404 598Q392 654 382.0 708.5Q372 763 372 813Q372 885 400.0 926.5Q428 968 472.0 985.5Q516 1003 563 1001Q556 966 551.0 932.0Q546 898 546 858Q546 837 552.5 795.5Q559 754 569 701Q578 650 587.5 591.5Q597 533 603.5 476.5Q610 420 610 373Q610 311 603.5 219.5Q597 128 584.5 16.0Q572 -96 552 -219ZM63 -219Q71 -150 80.0 -72.0Q89 6 97.0 84.0Q105 162 110.0 233.0Q115 304 115 359Q115 415 104.5 477.5Q94 540 81 598Q69 654 59.0 708.5Q49 763 49 813Q49 885 77.0 926.5Q105 968 149.0 985.5Q193 1003 240 1001Q233 966 228.0 932.0Q223 898 223 858Q223 837 229.5 795.5Q236 754 246 701Q255 650 264.5 591.5Q274 533 280.5 476.5Q287 420 287 373Q287 311 280.5 219.5Q274 128 261.5 16.0Q249 -96 229 -219ZM210 794Q204 835 204 858Q203 899 206.5 926.5Q210 954 216 982Q206 982 196.0 981.0Q186 980 177 978Q164 950 155.0 921.5Q146 893 146 852Q146 822 164.0 807.5Q182 793 210 794ZM533 794Q530 814 528.0 830.5Q526 847 526 858Q525 899 529.0 926.5Q533 954 539 982Q529 982 519.0 981.0Q509 980 500 978Q487 950 478.0 921.5Q469 893 469 852Q469 822 487.0 807.5Q505 793 533 794ZM85 -200H212Q231 -80 243.5 27.5Q256 135 262.0 223.5Q268 312 268 373Q268 418 261.5 474.0Q255 530 246.0 588.0Q237 646 227 697Q223 718 219.5 737.5Q216 757 213 775Q176 772 151.5 791.5Q127 811 127 852Q127 893 135.0 921.0Q143 949 152 970Q116 955 92.0 917.5Q68 880 68 813Q68 766 78.0 712.0Q88 658 101 602Q114 544 124.5 481.0Q135 418 135 359Q135 305 130.5 236.5Q126 168 118.5 93.5Q111 19 102.0 -56.5Q93 -132 85 -200ZM408 -200H535Q554 -80 566.0 27.5Q578 135 584.0 223.5Q590 312 590 373Q590 418 583.5 474.0Q577 530 568.0 588.0Q559 646 549 697Q545 718 542.0 737.5Q539 757 536 775Q498 772 474.0 791.5Q450 811 450 852Q450 893 458.0 921.0Q466 949 475 970Q439 955 415.0 917.5Q391 880 391 813Q391 766 401.0 712.0Q411 658 423 602Q436 544 447.0 481.0Q458 418 458 359Q458 305 453.5 236.5Q449 168 441.5 93.5Q434 19 425.0 -56.5Q416 -132 408 -200Z" />
  </g>
</svg>