<svg xmlns="http://www.w3.org/2000/svg" viewBox="49 -293 609 1294.1052631578946">
  <g transform="translate(0, 708.1052631578946) scale(1, -1)">
    <path fill="black" d="M524 395Q536 468 543.5 540.5Q551 613 551 669Q551 698 545.5 732.0Q540 766 534 796Q527 825 522.5 852.5Q518 880 518 906Q518 943 537.0 964.0Q556 985 583.0 993.5Q610 1002 634 1001Q630 983 628.0 966.0Q626 949 626 929Q626 918 629.5 896.5Q633 875 638 848Q644 809 651.0 760.5Q658 712 658 676Q658 629 651.0 559.5Q644 490 629 395ZM290 395Q301 468 309.0 540.5Q317 613 317 669Q317 698 311.5 732.0Q306 766 299 796Q293 825 288.0 852.5Q283 880 283 906Q283 943 302.5 964.0Q322 985 349.0 993.5Q376 1002 400 1001Q396 983 394.0 966.0Q392 949 392 929Q392 905 403 848Q410 809 417.0 760.5Q424 712 424 676Q424 629 417.0 559.5Q410 490 395 395ZM56 395Q67 468 75.0 540.5Q83 613 83 669Q83 698 77.5 732.0Q72 766 65 796Q59 825 54.0 852.5Q49 880 49 906Q49 943 68.0 964.0Q87 985 114.5 993.5Q142 1002 166 1001Q162 983 159.5 966.0Q157 949 157 929Q157 918 160.5 896.5Q164 875 169 848Q176 809 182.5 760.5Q189 712 189 676Q189 629 182.0 559.5Q175 490 160 395ZM608 891Q607 902 606.5 908.5Q606 915 606 920Q605 941 607.0 954.5Q609 968 612 982Q608 981 604.0 980.0Q600 979 595 978Q588 963 585.0 947.0Q582 931 582 916Q582 889 608 891ZM374 891Q373 902 372.5 908.5Q372 915 372 920Q371 941 373.0 954.5Q375 968 378 982Q374 981 369.5 980.0Q365 979 361 978Q347 947 347 916Q347 889 374 891ZM140 891Q137 912 137 920Q137 941 139.0 954.5Q141 968 144 982Q140 981 135.5 980.0Q131 979 126 978Q113 946 113 916Q113 889 140 891ZM78 415H143Q157 507 163.5 568.5Q170 630 170 676Q170 711 163.5 754.5Q157 798 149 837Q147 848 146.5 855.5Q146 863 144 873Q125 871 110.0 881.0Q95 891 95 916Q95 936 99.0 949.0Q103 962 107 972Q93 967 80.5 949.5Q68 932 68 906Q68 882 73.5 854.0Q79 826 85 798Q91 769 96.5 733.5Q102 698 102 669Q102 614 95.0 549.0Q88 484 78 415ZM546 415H611Q626 507 632.5 568.5Q639 630 639 676Q639 711 632.0 754.5Q625 798 618 837Q616 848 615.0 855.5Q614 863 612 873Q593 871 578.5 881.0Q564 891 564 916Q564 936 567.5 949.0Q571 962 576 972Q562 967 549.5 949.5Q537 932 537 906Q537 882 542.0 854.0Q547 826 554 798Q560 769 565.5 733.5Q571 698 571 669Q571 614 564.0 549.0Q557 484 546 415ZM312 415H377Q391 507 397.5 568.5Q404 630 404 676Q404 711 397.5 754.5Q391 798 383 837Q382 848 381.0 855.5Q380 863 378 873Q359 871 344.5 881.0Q330 891 330 916Q330 936 333.5 949.0Q337 962 341 972Q327 967 315.0 949.5Q303 932 303 906Q303 882 308.0 854.0Q313 826 319 798Q326 769 331.0 733.5Q336 698 336 669Q336 614 329.5 549.0Q323 484 312 415ZM524 -293Q536 -220 543.5 -147.5Q551 -75 551 -19Q551 10 545.5 44.0Q540 78 534 108Q527 137 522.5 164.5Q518 192 518 218Q518 255 537.0 276.0Q556 297 583.0 305.5Q610 314 634 313Q630 295 628.0 278.0Q626 261 626 241Q626 230 629.5 208.5Q633 187 638 160Q644 121 651.0 72.5Q658 24 658 -12Q658 -59 651.0 -128.5Q644 -198 629 -293ZM290 -293Q301 -220 309.0 -147.5Q317 -75 317 -19Q317 10 311.5 44.0Q306 78 299 108Q293 137 288.0 164.5Q283 192 283 218Q283 255 302.5 276.0Q322 297 349.0 305.5Q376 314 400 313Q396 295 394.0 278.0Q392 261 392 241Q392 217 403 160Q410 121 417.0 72.5Q424 24 424 -12Q424 -59 417.0 -128.5Q410 -198 395 -293ZM56 -293Q67 -220 75.0 -147.5Q83 -75 83 -19Q83 10 77.5 44.0Q72 78 65 108Q59 137 54.0 164.5Q49 192 49 218Q49 255 68.0 276.0Q87 297 114.5 305.5Q142 314 166 313Q162 295 159.5 278.0Q157 261 157 241Q157 230 160.5 208.5Q164 187 169 160Q176 121 182.5 72.5Q189 24 189 -12Q189 -59 182.0 -128.5Q175 -198 160 -293ZM374 203Q373 214 372.5 220.5Q372 227 372 232Q371 253 373.0 266.5Q375 280 378 294Q374 293 369.5 292.5Q365 292 361 290Q347 260 347 228Q347 201 374 203ZM140 203Q137 224 137 232Q137 253 139.0 266.5Q141 280 144 294Q140 293 135.5 292.5Q131 292 126 290Q113 259 113 228Q113 201 140 203ZM608 203Q607 214 606.5 220.5Q606 227 606 232Q605 253 607.0 266.5Q609 280 612 294Q608 293 604.0 292.5Q600 292 595 290Q588 276 585.0 259.5Q582 243 582 228Q582 201 608 203ZM546 -273H611Q626 -181 632.5 -119.5Q639 -58 639 -12Q639 23 632.0 66.5Q625 110 618 149Q616 160 615.0 167.5Q614 175 612 185Q593 183 578.5 193.0Q564 203 564 228Q564 248 567.5 261.0Q571 274 576 284Q562 279 549.5 261.5Q537 244 537 218Q537 194 542.0 166.0Q547 138 554 110Q560 81 565.5 46.0Q571 11 571 -19Q571 -74 564.0 -139.0Q557 -204 546 -273ZM312 -273H377Q391 -181 397.5 -119.5Q404 -58 404 -12Q404 23 397.5 66.5Q391 110 383 149Q382 160 381.0 167.5Q380 175 378 185Q359 183 344.5 193.0Q330 203 330 228Q330 248 333.5 261.0Q337 274 341 284Q327 279 315.0 261.5Q303 244 303 218Q303 194 308.0 166.0Q313 138 319 110Q326 81 331.0 46.0Q336 11 336 -19Q336 -74 329.5 -139.0Q323 -204 312 -273ZM78 -273H143Q157 -181 163.5 -119.5Q170 -58 170 -12Q170 23 163.5 66.5Q157 110 149 149Q147 160 146.5 167.5Q146 175 144 185Q125 183 110.0 193.0Q95 203 95 228Q95 248 99.0 261.0Q103 274 107 284Q93 279 80.5 261.5Q68 244 68 218Q68 194 73.5 166.0Q79 138 85 110Q91 81 96.5 46.0Q102 11 102 -19Q102 -74 95.0 -139.0Q88 -204 78 -273Z" />
  </g>
</svg>