<svg xmlns="http://www.w3.org/2000/svg" viewBox="49 -293 520 1294.142857142857">
  <g transform="translate(0, 708.1428571428571) scale(1, -1)">
    <path fill="black" d="M261 588Q269 638 274.5 687.0Q280 736 280 775Q280 794 276.5 817.5Q273 841 268 861Q264 881 260.0 900.0Q256 919 256 937Q256 962 271.5 976.0Q287 990 308.5 996.0Q330 1002 346 1001Q344 989 342.0 977.5Q340 966 340 952Q340 945 342.5 930.5Q345 916 348 897Q353 870 357.5 837.0Q362 804 362 778Q362 746 357.5 699.5Q353 653 342 588ZM54 588Q62 638 67.0 687.0Q72 736 72 775Q72 794 68.5 817.5Q65 841 61 861Q56 881 52.5 900.0Q49 919 49 937Q49 962 64.5 976.0Q80 990 101.0 996.0Q122 1002 139 1001Q133 977 133 952Q133 937 141 897Q146 870 150.0 837.0Q154 804 154 778Q154 715 135 588ZM469 588Q477 638 482.0 687.0Q487 736 487 775Q487 794 483.5 817.5Q480 841 476 861Q471 881 467.5 900.0Q464 919 464 937Q464 962 479.5 976.0Q495 990 516.0 996.0Q537 1002 554 1001Q548 977 548 952Q548 937 556 897Q561 870 565.0 837.0Q569 804 569 778Q569 715 550 588ZM531 922Q530 929 529.5 933.5Q529 938 529 942Q529 956 530.5 965.0Q532 974 534 984Q531 983 529.0 982.5Q527 982 524 981Q515 962 515 938Q515 921 531 922ZM324 922Q323 929 322.5 933.5Q322 938 322 942Q322 956 323.5 965.0Q325 974 326 984Q320 982 316 981Q312 971 309.5 960.0Q307 949 307 938Q307 921 324 922ZM116 922Q115 929 114.5 933.5Q114 938 114 942Q114 956 115.5 965.0Q117 974 119 984Q116 983 114.0 982.5Q112 982 109 981Q100 962 100 938Q100 921 116 922ZM489 607H533Q543 669 547.0 708.0Q551 747 551 778Q551 803 546.5 833.0Q542 863 537 889L534 905Q521 904 509.5 911.5Q498 919 498 938Q498 953 500.5 961.5Q503 970 506 977Q496 973 489.0 962.0Q482 951 482 937Q482 921 486.0 901.5Q490 882 494 863Q498 842 501.5 818.5Q505 795 505 775Q505 737 500.5 695.5Q496 654 489 607ZM74 607H118Q128 669 132.0 708.0Q136 747 136 778Q136 803 131.5 833.0Q127 863 122 889L119 905Q106 904 94.5 911.5Q83 919 83 938Q83 953 85.5 961.5Q88 970 91 977Q81 973 74.0 962.0Q67 951 67 937Q67 921 71.0 901.5Q75 882 79 863Q83 842 86.5 818.5Q90 795 90 775Q90 737 85.5 695.5Q81 654 74 607ZM282 607H326Q336 669 340.0 708.0Q344 747 344 778Q344 803 339.5 833.0Q335 863 330 889L327 905Q314 904 302.5 911.5Q291 919 291 938Q291 953 293.5 961.5Q296 970 298 977Q289 973 281.5 962.0Q274 951 274 937Q274 921 278.0 901.5Q282 882 286 863Q291 842 294.5 818.5Q298 795 298 775Q298 737 293.5 695.5Q289 654 282 607ZM54 147Q62 197 67.0 246.0Q72 295 72 334Q72 353 68.5 376.5Q65 400 61 420Q56 440 52.5 459.0Q49 478 49 496Q49 521 64.5 535.0Q80 549 101.0 555.5Q122 562 139 561Q133 536 133 511Q133 495 141 457Q146 429 150.0 396.0Q154 363 154 337Q154 274 135 147ZM469 147Q477 197 482.0 246.0Q487 295 487 334Q487 353 483.5 376.5Q480 400 476 420Q471 440 467.5 459.0Q464 478 464 496Q464 521 479.5 535.0Q495 549 516.0 555.5Q537 562 554 561Q548 536 548 511Q548 495 556 457Q561 429 565.0 396.0Q569 363 569 337Q569 274 550 147ZM261 147Q269 197 274.5 246.0Q280 295 280 334Q280 353 276.5 376.5Q273 400 268 420Q264 440 260.0 459.0Q256 478 256 496Q256 521 271.5 535.0Q287 549 308.5 555.5Q330 562 346 561Q344 548 342.0 536.5Q340 525 340 511Q340 504 342.5 489.5Q345 475 348 457Q353 429 357.5 396.0Q362 363 362 337Q362 305 357.5 258.5Q353 212 342 147ZM531 481Q530 488 529.5 492.5Q529 497 529 501Q529 515 530.5 524.0Q532 533 534 543Q531 542 529.0 542.0Q527 542 524 541Q515 520 515 497Q515 480 531 481ZM116 481Q115 488 114.5 492.5Q114 497 114 501Q114 515 115.5 524.0Q117 533 119 543Q116 542 114.0 542.0Q112 542 109 541Q100 520 100 497Q100 480 116 481ZM324 481Q323 488 322.5 492.5Q322 497 322 501Q322 515 323.5 524.0Q325 533 326 543Q324 542 321.5 542.0Q319 542 316 541Q312 531 309.5 519.5Q307 508 307 497Q307 480 324 481ZM74 166H118Q128 228 132.0 267.0Q136 306 136 337Q136 362 131.5 392.0Q127 422 122 448L119 464Q106 463 94.5 470.5Q83 478 83 497Q83 512 85.5 520.5Q88 529 91 536Q81 532 74.0 521.0Q67 510 67 496Q67 480 71.0 460.5Q75 441 79 422Q83 402 86.5 378.0Q90 354 90 334Q90 296 85.5 254.5Q81 213 74 166ZM282 166H326Q336 228 340.0 267.0Q344 306 344 337Q344 362 339.5 392.0Q335 422 330 448L327 464Q314 463 302.5 470.5Q291 478 291 497Q291 512 293.5 520.5Q296 529 298 536Q289 532 281.5 521.0Q274 510 274 496Q274 480 278.0 460.5Q282 441 286 422Q291 402 294.5 378.0Q298 354 298 334Q298 296 293.5 254.5Q289 213 282 166ZM489 166H533Q543 228 547.0 267.0Q551 306 551 337Q551 362 546.5 392.0Q542 422 537 448L534 464Q521 463 509.5 470.5Q498 478 498 497Q498 512 500.5 520.5Q503 529 506 536Q496 532 489.0 521.0Q482 510 482 496Q482 480 486.0 460.5Q490 441 494 422Q498 402 501.5 378.0Q505 354 505 334Q505 296 500.5 254.5Q496 213 489 166ZM261 -293Q269 -243 274.5 -194.0Q280 -145 280 -106Q280 -87 276.5 -63.5Q273 -40 268 -21Q264 -1 260.0 18.5Q256 38 256 55Q256 80 271.5 94.5Q287 109 308.5 115.0Q330 121 346 120Q344 108 342.0 96.5Q340 85 340 71Q340 64 342.5 49.5Q345 35 348 16Q353 -12 357.5 -45.0Q362 -78 362 -103Q362 -135 357.5 -181.5Q353 -228 342 -293ZM469 -293Q477 -243 482.0 -194.0Q487 -145 487 -106Q487 -87 483.5 -63.5Q480 -40 476 -21Q471 -1 467.5 18.5Q464 38 464 55Q464 80 479.5 94.5Q495 109 516.0 115.0Q537 121 554 120Q548 96 548 71Q548 56 556 16Q561 -12 565.0 -45.0Q569 -78 569 -103Q569 -167 550 -293ZM54 -293Q62 -243 67.0 -194.0Q72 -145 72 -106Q72 -87 68.5 -63.5Q65 -40 61 -21Q56 -1 52.5 18.5Q49 38 49 55Q49 80 64.5 94.5Q80 109 101.0 115.0Q122 121 139 120Q133 96 133 71Q133 56 141 16Q146 -12 150.0 -45.0Q154 -78 154 -103Q154 -167 135 -293ZM531 41Q530 47 529.5 52.0Q529 57 529 61Q529 75 530.5 84.0Q532 93 534 103Q531 102 529.0 101.5Q527 101 524 100Q515 79 515 57Q515 40 531 41ZM324 41Q323 47 322.5 52.0Q322 57 322 61Q322 75 323.5 84.0Q325 93 326 103Q320 101 316 100Q312 90 309.5 79.0Q307 68 307 57Q307 40 324 41ZM116 41Q115 47 114.5 52.0Q114 57 114 61Q114 75 115.5 84.0Q117 93 119 103Q116 102 114.0 101.5Q112 101 109 100Q100 79 100 57Q100 40 116 41ZM489 -274H533Q543 -212 547.0 -173.0Q551 -134 551 -103Q551 -79 546.5 -49.0Q542 -19 537 8L534 24Q521 23 509.5 30.5Q498 38 498 57Q498 71 500.5 80.0Q503 89 506 96Q496 92 489.0 80.5Q482 69 482 55Q482 39 486.0 20.0Q490 1 494 -19Q498 -39 501.5 -62.5Q505 -86 505 -106Q505 -144 500.5 -185.5Q496 -227 489 -274ZM282 -274H326Q336 -212 340.0 -173.0Q344 -134 344 -103Q344 -79 339.5 -49.0Q335 -19 330 8L327 24Q314 23 302.5 30.5Q291 38 291 57Q291 71 293.5 80.0Q296 89 298 96Q289 92 281.5 80.5Q274 69 274 55Q274 39 278.0 20.0Q282 1 286 -19Q291 -39 294.5 -62.5Q298 -86 298 -106Q298 -144 293.5 -185.5Q289 -227 282 -274ZM74 -274H118Q128 -212 132.0 -173.0Q136 -134 136 -103Q136 -79 131.5 -49.0Q127 -19 122 8L119 24Q106 23 94.5 30.5Q83 38 83 57Q83 71 85.5 80.0Q88 89 91 96Q81 92 74.0 80.5Q67 69 67 55Q67 39 71.0 20.0Q75 1 79 -19Q83 -39 86.5 -62.5Q90 -86 90 -106Q90 -144 85.5 -185.5Q81 -227 74 -274Z" />
  </g>
</svg>