<svg xmlns="http://www.w3.org/2000/svg" viewBox="49 -244 1376 1256">
  <g transform="translate(0, 768) scale(1, -1)">
    <path fill="black" d="M579 -244V294H216Q137 294 93.0 324.0Q49 354 49 397Q49 453 89.0 484.5Q129 516 227 516Q254 516 265.0 511.5Q276 507 279.0 499.5Q282 492 282 484Q281 478 286 473Q291 468 302.5 467.0Q314 466 336 466H579V826Q579 861 583.0 894.0Q587 927 602.0 953.5Q617 980 649.5 996.0Q682 1012 739 1012Q797 1012 829.5 994.5Q862 977 877.0 948.5Q892 920 895.5 887.0Q899 854 899 824V466H1154Q1228 466 1279.5 443.0Q1331 420 1363.0 383.0Q1395 346 1410.0 301.5Q1425 257 1425 213Q1425 150 1406.5 107.5Q1388 65 1359.5 43.5Q1331 22 1300 22Q1272 22 1253.0 39.5Q1234 57 1222.5 82.5Q1211 108 1204 131Q1199 107 1189.5 81.5Q1180 56 1161.0 39.0Q1142 22 1106 22Q1070 22 1046.5 39.5Q1023 57 1009.5 83.0Q996 109 990.5 135.0Q985 161 985 179Q985 209 993.0 239.0Q1001 269 1011 291Q1001 292 988.5 293.0Q976 294 962 294H899V93H820V294H659V-244ZM599 466H639V826Q639 844 642.0 866.0Q645 888 654.5 907.5Q664 927 684.0 939.5Q704 952 739 952Q786 952 807.0 933.5Q828 915 833.5 886.5Q839 858 839 826V466H880V824Q880 851 877.0 880.5Q874 910 860.5 935.5Q847 961 818.5 977.0Q790 993 739 993Q689 993 660.5 978.5Q632 964 619.0 940.0Q606 916 602.5 886.5Q599 857 599 826ZM659 466H820V826Q820 853 815.5 877.5Q811 902 794.0 917.5Q777 933 739 933Q702 933 685.0 915.0Q668 897 663.5 872.0Q659 847 659 826ZM216 313H579V447H336Q307 447 293.5 449.0Q280 451 270 461Q265 466 263.5 472.5Q262 479 262 484Q262 489 257.5 492.5Q253 496 227 496Q139 496 103.5 471.0Q68 446 68 397Q68 365 106.5 339.0Q145 313 216 313ZM599 313H639V447H599ZM1106 42Q1135 42 1151.5 58.5Q1168 75 1176.5 101.0Q1185 127 1188.0 154.0Q1191 181 1193 202H1214Q1215 169 1225.0 132.0Q1235 95 1254.0 68.5Q1273 42 1300 42Q1326 42 1350.5 61.0Q1375 80 1390.5 118.0Q1406 156 1406 213Q1406 253 1392.0 294.5Q1378 336 1348.0 370.5Q1318 405 1270.0 426.0Q1222 447 1154 447H899V313H962Q1018 313 1057.5 300.5Q1097 288 1104 278L1089 266Q1080 277 1031 287Q1021 268 1013.0 239.0Q1005 210 1005 179Q1005 164 1009.5 141.0Q1014 118 1025.5 95.0Q1037 72 1056.5 57.0Q1076 42 1106 42ZM659 313H820V447H659ZM839 313H880V447H839ZM839 112H880V294H839ZM599 -225H639V294H599Z" />
  </g>
</svg>