<svg xmlns="http://www.w3.org/2000/svg" viewBox="49 -155 1132.0714285714287 889">
  <g transform="translate(0, 579) scale(1, -1)">
    <path fill="black" d="M49 -155V-86Q87 -77 133.0 -64.0Q179 -51 219.0 -36.5Q259 -22 279 -9Q299 3 318.5 33.5Q338 64 357.0 103.5Q376 143 393.0 184.5Q410 226 423 262Q431 285 439.0 305.5Q447 326 454 340Q473 384 500.5 436.5Q528 489 559.0 543.0Q590 597 620.0 646.5Q650 696 674 734H772Q794 708 820.5 668.5Q847 629 875.0 584.0Q903 539 929.0 493.5Q955 448 977.0 408.5Q999 369 1013 342Q1027 313 1045.0 272.0Q1063 231 1081.5 188.5Q1100 146 1114.5 111.5Q1129 77 1135 62Q1150 26 1160.5 -13.0Q1171 -52 1181 -82Q1182 -100 1169.0 -121.0Q1156 -142 1139 -155H1075Q1050 -155 1028.5 -145.0Q1007 -135 990 -135Q962 -135 935.5 -144.0Q909 -153 877 -155H718V-86Q755 -77 800.0 -64.5Q845 -52 884.5 -38.0Q924 -24 944 -11Q962 0 969.0 10.0Q976 20 976 30Q976 44 959.0 73.0Q942 102 918.0 137.0Q894 172 871.0 205.0Q848 238 836 260Q827 277 812.0 304.5Q797 332 780.5 363.0Q764 394 751.0 419.5Q738 445 733 457Q731 452 720.0 427.0Q709 402 692.0 365.0Q675 328 654.0 285.5Q633 243 611 204Q601 187 580.0 158.0Q559 129 535.5 97.0Q512 65 492 39Q491 34 489.0 21.0Q487 8 487 -6Q487 -18 492.5 -41.5Q498 -65 502 -82Q500 -101 491.0 -119.5Q482 -138 460 -155H406Q381 -155 359.5 -145.0Q338 -135 321 -135Q293 -135 266.5 -144.0Q240 -153 208 -155ZM67 -136 201 -135Q229 -136 262.0 -126.0Q295 -116 321 -116Q342 -116 364.0 -126.0Q386 -136 409 -136H450Q459 -129 469.5 -114.0Q480 -99 482 -81Q481 -76 477.5 -62.0Q474 -48 471.0 -32.0Q468 -16 468 -6Q468 7 470.5 22.0Q473 37 475 47Q495 73 519.0 105.0Q543 137 563.5 167.0Q584 197 594 214Q617 255 639.5 300.5Q662 346 680.5 386.0Q699 426 710.5 452.0Q722 478 722 479H744Q749 467 763.0 438.5Q777 410 795.0 376.0Q813 342 829.0 313.0Q845 284 854 270Q866 251 884.5 222.5Q903 194 923.0 165.0Q943 136 958.0 113.0Q973 90 977 81Q986 62 991.5 47.5Q997 33 997 23Q997 12 989.0 0.5Q981 -11 955 -28Q937 -40 898.5 -53.5Q860 -67 816.0 -80.0Q772 -93 736 -102V-136L870 -135Q898 -136 931.0 -126.0Q964 -116 990 -116Q1011 -116 1033.0 -126.0Q1055 -136 1078 -136H1129Q1157 -117 1161 -81Q1154 -55 1142.0 -17.5Q1130 20 1117 54Q1111 69 1096.0 104.5Q1081 140 1062.5 183.0Q1044 226 1026.0 266.5Q1008 307 995 333Q983 358 963.0 395.5Q943 433 918.0 476.5Q893 520 865.5 564.5Q838 609 811.5 648.5Q785 688 763 715H685Q679 706 661.5 678.0Q644 650 619.5 609.5Q595 569 568.0 521.5Q541 474 515.5 425.0Q490 376 471 333Q464 318 457.0 298.0Q450 278 441 255Q427 218 410.5 175.5Q394 133 375.0 92.5Q356 52 334.5 20.5Q313 -11 290 -26Q272 -38 233.0 -52.0Q194 -66 149.0 -79.5Q104 -93 67 -102Z" />
  </g>
</svg>