<svg xmlns="http://www.w3.org/2000/svg" viewBox="49 -87 1133 890">
  <g transform="translate(0, 716) scale(1, -1)">
    <path fill="black" d="M92 -87Q75 -73 62.0 -52.5Q49 -32 49 -14Q59 17 69.5 56.0Q80 95 96 130Q102 145 116.5 179.5Q131 214 149.5 256.5Q168 299 186.0 340.5Q204 382 218 411Q232 438 254.0 477.5Q276 517 302.0 562.0Q328 607 355.5 652.5Q383 698 409.5 737.0Q436 776 458 803H556Q580 765 610.5 715.5Q641 666 672.0 611.5Q703 557 730.5 505.0Q758 453 777 409Q784 394 792.0 373.5Q800 353 808 331Q822 295 838.5 253.0Q855 211 874.0 171.5Q893 132 913.0 101.5Q933 71 952 59Q972 46 1012.0 31.5Q1052 17 1098.5 4.0Q1145 -9 1182 -18V-87H1022Q990 -85 963.5 -76.0Q937 -67 910 -67Q893 -67 871.5 -77.0Q850 -87 825 -87H771Q749 -69 740.0 -51.0Q731 -33 728 -14Q733 4 738.0 27.5Q743 51 743 63Q743 76 741.5 89.0Q740 102 738 107Q719 133 695.0 165.0Q671 197 650.5 226.0Q630 255 620 272Q598 311 576.5 353.5Q555 396 538.0 433.0Q521 470 510.0 495.0Q499 520 497 525Q493 513 480.0 487.5Q467 462 450.0 431.5Q433 401 418.0 373.5Q403 346 394 329Q382 307 359.5 274.0Q337 241 312.5 206.0Q288 171 271.5 141.5Q255 112 255 98Q255 88 262.0 78.0Q269 68 286 57Q306 44 345.5 30.0Q385 16 430.5 3.5Q476 -9 513 -18V-87H353Q322 -85 295.0 -76.0Q268 -67 241 -67Q224 -67 202.5 -77.0Q181 -87 156 -87ZM102 -67H152Q175 -67 197.5 -57.0Q220 -47 241 -47Q267 -47 299.5 -57.0Q332 -67 360 -67H494V-33Q458 -24 414.0 -11.5Q370 1 332.0 14.5Q294 28 275 41Q250 58 242.0 69.0Q234 80 234 92Q234 101 239.5 115.5Q245 130 254 149Q259 158 273.5 181.0Q288 204 308.0 233.5Q328 263 346.5 291.0Q365 319 377 338Q386 352 402.0 381.5Q418 411 435.5 445.0Q453 479 467.5 507.0Q482 535 486 547H507Q507 546 518.5 520.5Q530 495 549.0 454.5Q568 414 590.5 368.5Q613 323 636 282Q646 265 667.0 235.0Q688 205 712.0 173.0Q736 141 756 115Q758 105 760.5 90.0Q763 75 763 63Q763 53 760.0 37.0Q757 21 753.5 7.0Q750 -7 749 -12Q751 -31 761.0 -46.0Q771 -61 780 -67H821Q844 -67 866.5 -57.0Q889 -47 910 -47Q936 -47 968.5 -57.0Q1001 -67 1029 -67H1163V-33Q1126 -24 1081.5 -11.0Q1037 2 998.5 16.0Q960 30 941 42Q918 57 896.5 88.5Q875 120 856.0 160.5Q837 201 820.0 243.5Q803 286 789 324Q781 347 773.5 366.5Q766 386 759 401Q740 444 715.0 493.0Q690 542 662.5 589.5Q635 637 610.5 677.5Q586 718 568.5 746.0Q551 774 545 783H467Q445 756 418.5 716.5Q392 677 365.0 633.0Q338 589 312.5 545.0Q287 501 267.0 463.5Q247 426 235 402Q222 376 204.0 335.5Q186 295 168.0 251.5Q150 208 135.0 173.0Q120 138 114 122Q101 89 89.5 51.0Q78 13 70 -12Q74 -49 102 -67Z" />
  </g>
</svg>