<svg xmlns="http://www.w3.org/2000/svg" viewBox="49 -293 1076 1315">
  <g transform="translate(0, 729) scale(1, -1)">
    <path fill="black" d="M49 -293V-206Q61 -204 85.0 -198.5Q109 -193 136 -186Q159 -180 189.5 -168.0Q220 -156 246 -149Q287 -138 317.5 -131.0Q348 -124 364 -114Q414 -80 434.5 -38.5Q455 3 452 79Q451 91 450.5 115.5Q450 140 449.5 167.5Q449 195 449.0 218.0Q449 241 449 249Q451 379 462.0 457.0Q473 535 479 580Q484 609 495.0 628.5Q506 648 533 671L932 1022L1125 802L753 513Q711 480 709 439Q708 399 704.5 325.0Q701 251 690 170Q686 136 679.0 98.0Q672 60 665.5 25.0Q659 -10 654.5 -36.5Q650 -63 650 -74Q650 -82 653.5 -105.0Q657 -128 662.5 -156.0Q668 -184 673 -208Q670 -227 661.5 -251.5Q653 -276 631 -293H542Q526 -293 505.5 -286.5Q485 -280 467.0 -274.0Q449 -268 438 -268Q420 -268 396.0 -274.0Q372 -280 347.5 -286.0Q323 -292 301 -293ZM67 -273H304Q323 -273 347.5 -267.0Q372 -261 396.5 -255.0Q421 -249 438 -249Q452 -249 471.5 -255.0Q491 -261 511.0 -267.0Q531 -273 546 -273H621Q630 -267 640.5 -246.0Q651 -225 653 -207Q652 -204 648.5 -186.0Q645 -168 641.0 -145.0Q637 -122 634.0 -102.0Q631 -82 631 -74Q631 -54 639.0 -15.5Q647 23 656.5 72.5Q666 122 670 173Q674 209 677.5 257.5Q681 306 684.5 355.0Q688 404 690 440Q691 469 703.5 489.0Q716 509 740 528Q773 555 818.0 590.5Q863 626 913.0 664.5Q963 703 1010.5 739.5Q1058 776 1096 805L930 995L546 657Q531 644 516.0 621.5Q501 599 499 576Q495 526 482.5 441.5Q470 357 468 248Q468 240 468.5 217.5Q469 195 469.5 167.5Q470 140 470.5 115.5Q471 91 471 79Q474 -1 453.5 -48.5Q433 -96 375 -131Q359 -141 327.0 -148.0Q295 -155 252 -167Q224 -175 192.0 -187.5Q160 -200 136 -206Q114 -211 95.0 -215.5Q76 -220 67 -222Z" />
  </g>
</svg>