<svg xmlns="http://www.w3.org/2000/svg" viewBox="49 -293 1567 1310">
  <g transform="translate(0, 724) scale(1, -1)">
    <path fill="black" d="M364 -293V-214Q378 -212 405.0 -206.5Q432 -201 462 -194Q482 -189 510.5 -177.5Q539 -166 561 -161Q606 -150 636.0 -144.5Q666 -139 679 -129Q708 -110 725.5 -89.5Q743 -69 750.5 -40.0Q758 -11 756 33Q755 67 753.0 108.5Q751 150 750 196Q657 225 565.5 269.5Q474 314 391.0 368.5Q308 423 239.0 482.5Q170 542 121.0 600.5Q72 659 49 711L56 723L739 491Q738 544 737.0 589.0Q736 634 736 662Q736 695 741.0 720.5Q746 746 761.5 771.5Q777 797 806.5 829.5Q836 862 884.0 907.0Q932 952 1004 1017L1137 853Q1073 796 1033.5 762.0Q994 728 973.0 707.0Q952 686 943.5 670.0Q935 654 931 633Q938 607 945.5 578.5Q953 550 959.5 511.5Q966 473 966 417L1145 356Q1262 316 1342.0 267.5Q1422 219 1473.0 166.5Q1524 114 1553.0 63.0Q1582 12 1595.5 -32.5Q1609 -77 1616 -109L1458 -124L1271 163Q1252 162 1177.5 158.0Q1103 154 996 154Q983 154 970.5 155.0Q958 156 944 157Q938 115 932.5 71.5Q927 28 922.0 -9.0Q917 -46 914.0 -71.5Q911 -97 911 -104Q911 -111 914.0 -131.0Q917 -151 922.0 -175.5Q927 -200 931 -221Q929 -237 920.0 -257.5Q911 -278 891 -293H814Q800 -293 777.0 -287.5Q754 -282 733.0 -276.5Q712 -271 702 -271Q678 -271 644.5 -281.0Q611 -291 583 -293ZM945 423Q943 501 931.0 548.5Q919 596 912 625Q906 657 932.0 691.0Q958 725 1004.5 765.5Q1051 806 1106 854L1001 987Q937 928 893.0 886.5Q849 845 822.0 815.0Q795 785 780.5 761.0Q766 737 761.0 712.5Q756 688 756 658Q756 625 757.0 580.5Q758 536 760 486ZM1470 -103 1592 -92Q1586 -64 1572.5 -24.0Q1559 16 1531.0 63.0Q1503 110 1454.0 159.0Q1405 208 1328.0 254.0Q1251 300 1139 338Q1101 352 1070.0 362.5Q1039 373 1004.5 383.5Q970 394 923.5 409.0Q877 424 809.5 445.5Q742 467 644.0 500.0Q546 533 408.5 580.0Q271 627 84 692Q112 643 165.5 586.0Q219 529 292.0 470.5Q365 412 451.0 359.0Q537 306 629.5 264.5Q722 223 815.5 198.5Q909 174 996 174Q1056 174 1111.0 175.5Q1166 177 1210.5 179.5Q1255 182 1281 184ZM384 -273 577 -272Q593 -272 616.5 -267.0Q640 -262 663.5 -256.5Q687 -251 702 -251Q714 -251 736.5 -256.5Q759 -262 781.5 -267.5Q804 -273 817 -273H882Q890 -267 899.5 -251.0Q909 -235 910 -219Q909 -216 906.0 -200.5Q903 -185 899.5 -165.0Q896 -145 893.5 -128.0Q891 -111 891 -104Q891 -93 896.0 -51.5Q901 -10 909.0 46.0Q917 102 924 158Q850 167 770 190L776 34Q778 -36 760.0 -77.0Q742 -118 692 -149Q678 -158 644.5 -163.5Q611 -169 564 -180Q540 -186 510.5 -197.5Q481 -209 460 -214Q435 -219 414.5 -224.5Q394 -230 384 -232Z" />
  </g>
</svg>