<svg xmlns="http://www.w3.org/2000/svg" viewBox="49 -293 1080 1294">
  <g transform="translate(0, 708) scale(1, -1)">
    <path fill="black" d="M111 -293 92 -292 94 -253Q91 -248 80.0 -231.0Q69 -214 59.0 -195.0Q49 -176 49 -168Q49 -161 58.0 -148.5Q67 -136 78.5 -122.0Q90 -108 99.0 -97.5Q108 -87 108 -84Q108 -79 97.5 -62.0Q87 -45 76.0 -25.5Q65 -6 65 4Q65 15 75.0 27.0Q85 39 95.0 49.0Q105 59 105 64Q105 68 98.0 80.0Q91 92 81.5 107.0Q72 122 65.0 136.0Q58 150 58 158Q58 167 68.0 180.5Q78 194 91.5 209.0Q105 224 115.0 237.0Q125 250 125 257Q125 266 112.0 281.5Q99 297 85.5 316.0Q72 335 72 354Q72 369 85.0 381.5Q98 394 115.0 404.5Q132 415 145.0 423.0Q158 431 158 438Q158 449 147.0 464.0Q136 479 125.0 495.5Q114 512 114 525Q114 535 127.0 548.5Q140 562 157.0 575.5Q174 589 187.0 599.0Q200 609 200 613Q200 625 190.5 642.0Q181 659 181 678Q181 693 194.0 703.0Q207 713 225.0 719.5Q243 726 259.0 730.5Q275 735 280 741Q283 744 283.0 758.5Q283 773 281.5 789.0Q280 805 280 812Q280 834 289 840Q297 846 317.5 848.0Q338 850 358.0 851.0Q378 852 384 854Q387 855 391.5 865.5Q396 876 402.0 889.0Q408 902 415.5 912.0Q423 922 432 922Q438 922 453.5 912.0Q469 902 485.0 892.0Q501 882 505 882Q512 882 524.5 891.0Q537 900 550.0 909.0Q563 918 569 918Q579 918 592.5 909.5Q606 901 618.5 892.5Q631 884 636 884Q647 884 666.5 885.5Q686 887 693 887V990H712V939H747Q762 959 809.0 980.0Q856 1001 931 1001Q1001 1001 1044.5 983.0Q1088 965 1108.5 937.0Q1129 909 1129 877Q1129 846 1109.5 818.0Q1090 790 1048 773H1086Q1085 740 1083.5 699.5Q1082 659 1080.5 617.5Q1079 576 1077.5 539.5Q1076 503 1075 479Q1074 440 1068.5 394.0Q1063 348 1057.0 304.0Q1051 260 1047 224Q1043 177 1039.0 127.5Q1035 78 1032.0 35.0Q1029 -8 1027.5 -37.5Q1026 -67 1026 -74Q1026 -82 1029.5 -105.0Q1033 -128 1038.5 -156.0Q1044 -184 1049 -208Q1046 -227 1037.5 -251.5Q1029 -276 1007 -293H918Q902 -293 876.5 -286.5Q851 -280 827.5 -274.0Q804 -268 793 -268Q779 -268 746.0 -271.5Q713 -275 673.0 -279.5Q633 -284 599.0 -288.0Q565 -292 549 -293H389V-201Q403 -200 431.5 -196.0Q460 -192 495 -184Q525 -176 563.5 -157.0Q602 -138 636 -130Q652 -126 672.0 -117.5Q692 -109 711.5 -99.0Q731 -89 742 -82Q775 -59 795.0 -37.0Q815 -15 823.5 16.5Q832 48 830 99Q829 132 827.5 172.0Q826 212 824 255L787 773H813Q787 783 770.0 795.5Q753 808 747 816H712V765H693V868Q686 867 666.0 866.0Q646 865 637 865Q630 865 617.0 873.5Q604 882 591.0 890.0Q578 898 569 898Q564 898 551.5 889.5Q539 881 525.5 872.5Q512 864 503 864Q499 864 483.0 874.0Q467 884 451.5 893.5Q436 903 432 903Q428 903 421.5 887.5Q415 872 407.5 855.0Q400 838 391 835Q383 833 363.5 832.0Q344 831 325.5 830.0Q307 829 301 825Q299 823 299 812Q299 799 300.5 781.5Q302 764 302 747Q302 727 293 723Q292 722 277.5 717.0Q263 712 245.5 705.0Q228 698 214.5 690.5Q201 683 201 678Q201 660 210.0 644.0Q219 628 219 613Q219 605 206.0 593.0Q193 581 176.5 567.5Q160 554 147.0 542.5Q134 531 134 525Q134 517 145.0 501.5Q156 486 166.5 469.5Q177 453 177 438Q177 425 164.0 414.0Q151 403 134.5 393.5Q118 384 105.0 374.5Q92 365 92 354Q92 336 105.0 320.5Q118 305 131.5 290.0Q145 275 145 257Q145 247 134.5 232.0Q124 217 111.0 202.0Q98 187 87.5 175.0Q77 163 77 158Q77 153 84.5 140.5Q92 128 101.5 113.0Q111 98 118.0 85.0Q125 72 125 64Q125 54 115.0 42.5Q105 31 94.5 20.5Q84 10 84 4Q84 -3 95.0 -21.0Q106 -39 116.5 -57.5Q127 -76 127 -84Q127 -90 118.0 -102.5Q109 -115 97.5 -128.5Q86 -142 77.0 -153.0Q68 -164 68 -168Q68 -172 75.5 -185.5Q83 -199 93.5 -215.5Q104 -232 114 -247ZM931 773Q1024 773 1067.0 805.0Q1110 837 1110 877Q1110 918 1067.0 950.0Q1024 982 931 982Q893 982 855.5 973.0Q818 964 791.5 949.0Q765 934 760 917H712V838H760Q765 821 791.5 806.0Q818 791 855.5 782.0Q893 773 931 773ZM408 -273H542Q553 -273 578.5 -270.5Q604 -268 636.0 -264.5Q668 -261 700.0 -257.5Q732 -254 757.5 -251.5Q783 -249 793 -249Q807 -249 831.5 -255.0Q856 -261 881.5 -267.0Q907 -273 922 -273H997Q1006 -267 1016.5 -246.0Q1027 -225 1029 -207Q1028 -204 1024.5 -186.0Q1021 -168 1017.0 -145.0Q1013 -122 1010.0 -102.0Q1007 -82 1007 -74Q1007 -65 1008.5 -33.5Q1010 -2 1013.0 42.5Q1016 87 1019.0 135.5Q1022 184 1025 227Q1027 246 1031.5 279.5Q1036 313 1041.5 351.0Q1047 389 1051.5 424.0Q1056 459 1056 480Q1057 513 1058.5 562.0Q1060 611 1062.5 662.5Q1065 714 1067 753H808Q809 727 813.0 671.0Q817 615 822.0 543.5Q827 472 833.0 396.5Q839 321 844 256L849 100Q851 46 843.0 10.0Q835 -26 813.5 -51.5Q792 -77 753 -101Q736 -111 701.5 -127.0Q667 -143 638 -150Q621 -154 596.0 -165.0Q571 -176 545.0 -187.0Q519 -198 500 -203Q435 -217 408 -217Z" />
  </g>
</svg>