<svg xmlns="http://www.w3.org/2000/svg" viewBox="49 -293 1523 1308">
  <g transform="translate(0, 722) scale(1, -1)">
    <path fill="black" d="M1485 -293Q1436 -293 1410.5 -263.5Q1385 -234 1385 -179Q1385 -165 1387.0 -150.0Q1389 -135 1391 -119Q1393 -105 1395.0 -91.0Q1397 -77 1397 -66Q1397 -44 1379.0 -29.0Q1361 -14 1326 -14H1232V-92H1171V-14H838V-92H777V-14H444V-92H383V-14H155V69H383V868Q346 848 321.0 806.5Q296 765 288 698Q284 663 274.5 621.0Q265 579 249.0 541.5Q233 504 208.0 480.0Q183 456 147 456Q101 456 75.0 491.0Q49 526 49 581Q49 607 58.5 649.5Q68 692 90.5 739.5Q113 787 151.5 832.0Q190 877 247.0 909.5Q304 942 383 953V1015H444V605Q448 636 460.5 677.0Q473 718 497.0 762.0Q521 806 558.5 846.0Q596 886 650.0 914.5Q704 943 777 953V1015H838V605Q842 636 854.5 677.0Q867 718 891.0 762.0Q915 806 952.5 846.0Q990 886 1044.0 914.5Q1098 943 1171 953V1015H1232V69H1343Q1401 69 1441.5 49.5Q1482 30 1507.5 -0.5Q1533 -31 1547.0 -65.0Q1561 -99 1566.5 -129.5Q1572 -160 1572 -178Q1572 -224 1553.0 -258.5Q1534 -293 1485 -293ZM147 475Q178 475 199.5 499.0Q221 523 235.0 559.0Q249 595 256.5 633.0Q264 671 268 698Q286 842 383 890V934Q310 925 256.5 894.0Q203 863 166.5 820.5Q130 778 108.5 732.0Q87 686 77.5 646.0Q68 606 68 581Q68 535 89.0 505.0Q110 475 147 475ZM541 475Q573 475 594.5 499.0Q616 523 629.5 559.0Q643 595 650.5 633.0Q658 671 662 698Q680 842 777 890V934Q704 925 650.5 894.0Q597 863 560.5 820.5Q524 778 502.5 732.0Q481 686 471.5 646.0Q462 606 462 581Q462 535 483.0 505.0Q504 475 541 475ZM935 475Q967 475 988.5 499.0Q1010 523 1023.5 559.0Q1037 595 1044.5 633.0Q1052 671 1056 698Q1074 842 1171 890V934Q1098 925 1044.5 894.0Q991 863 954.5 820.5Q918 778 896.5 732.0Q875 686 865.5 646.0Q856 606 856 581Q856 535 877.0 505.0Q898 475 935 475ZM444 69H777V868Q741 848 715.5 806.5Q690 765 682 698Q678 663 668.5 621.0Q659 579 643.0 541.5Q627 504 602.0 480.0Q577 456 541 456Q500 456 475.0 483.5Q450 511 444 556ZM838 69H1171V868Q1135 848 1109.5 806.5Q1084 765 1076 698Q1072 663 1062.5 621.0Q1053 579 1037.0 541.5Q1021 504 996.0 480.0Q971 456 935 456Q894 456 869.0 483.5Q844 511 838 556ZM1485 -273Q1523 -273 1538.0 -244.5Q1553 -216 1553 -178Q1553 -162 1548.0 -134.0Q1543 -106 1530.0 -74.5Q1517 -43 1493.5 -15.0Q1470 13 1433.0 31.0Q1396 49 1343 49H174V5H1326Q1370 5 1393.5 -15.5Q1417 -36 1417 -66Q1417 -79 1415.0 -93.5Q1413 -108 1411 -122Q1409 -138 1406.5 -153.0Q1404 -168 1404 -179Q1404 -224 1425.0 -248.5Q1446 -273 1485 -273Z" />
  </g>
</svg>