<svg xmlns="http://www.w3.org/2000/svg" viewBox="49 -293 1463 1308">
  <g transform="translate(0, 722) scale(1, -1)">
    <path fill="black" d="M1425 -293Q1376 -293 1350.5 -266.5Q1325 -240 1325 -194Q1325 -171 1331.0 -148.0Q1337 -125 1337 -101Q1337 -78 1319.0 -63.0Q1301 -48 1266 -48H243V15H462V719Q385 740 277.5 754.0Q170 768 49 775V937Q133 939 257.5 955.5Q382 972 523 1015V15H1170V718Q1094 740 986.0 753.5Q878 767 757 774V936Q842 938 966.5 955.0Q1091 972 1232 1015V15H1283Q1356 15 1401.0 -7.0Q1446 -29 1470.0 -61.5Q1494 -94 1503.0 -127.0Q1512 -160 1512 -182Q1512 -209 1504.0 -234.5Q1496 -260 1477.0 -276.5Q1458 -293 1425 -293ZM462 740V976Q404 960 333.5 947.0Q263 934 194.0 926.5Q125 919 68 917V794Q184 787 283.5 773.0Q383 759 462 740ZM1170 739V975Q1112 959 1041.5 946.5Q971 934 902.0 926.5Q833 919 777 917V794Q893 787 992.5 772.5Q1092 758 1170 739ZM1425 -273Q1450 -273 1465.0 -259.0Q1480 -245 1486.5 -224.0Q1493 -203 1493 -182Q1493 -161 1485.0 -131.5Q1477 -102 1455.0 -72.5Q1433 -43 1391.5 -23.5Q1350 -4 1283 -4H263V-29H1266Q1310 -29 1333.0 -50.0Q1356 -71 1356 -101Q1356 -124 1350.0 -147.0Q1344 -170 1344 -194Q1344 -273 1425 -273Z" />
  </g>
</svg>