<svg xmlns="http://www.w3.org/2000/svg" viewBox="49 -149 531 1106">
  <g transform="translate(0, 808) scale(1, -1)">
    <path fill="black" d="M393 -149Q361 -149 322.5 -138.0Q284 -127 249.5 -101.5Q215 -76 192.5 -32.0Q170 12 170 79Q170 136 192.0 204.5Q214 273 242 333L284 423Q308 475 325.0 518.5Q342 562 342 590Q342 643 312.5 674.0Q283 705 218 705H171Q116 705 82.5 717.5Q49 730 49 770Q49 792 66.0 823.5Q83 855 115.5 885.5Q148 916 195.5 936.5Q243 957 304 957Q362 957 412.0 935.0Q462 913 500.0 874.0Q538 835 559.0 783.5Q580 732 580 674Q580 604 551.5 539.5Q523 475 481 419L387 294Q349 245 322.5 196.0Q296 147 296 99Q296 60 309.5 34.0Q323 8 336 -2Q341 7 355.5 26.0Q370 45 395.5 60.5Q421 76 457 76Q503 76 528.0 50.5Q553 25 553 -11Q553 -45 536.0 -76.5Q519 -108 484.0 -128.5Q449 -149 393 -149ZM393 -129Q442 -129 473.0 -111.5Q504 -94 518.5 -67.0Q533 -40 533 -11Q533 17 513.0 36.5Q493 56 457 56Q431 56 408.5 43.0Q386 30 370.0 10.5Q354 -9 345 -27Q323 -20 300.0 11.0Q277 42 277 99Q277 150 305.5 202.5Q334 255 372 306L465 431Q506 485 533.5 546.0Q561 607 561 674Q561 746 527.0 806.0Q493 866 434.5 901.5Q376 937 304 937Q247 937 203.5 919.0Q160 901 129.5 873.5Q99 846 83.5 818.0Q68 790 68 770Q68 742 96.5 733.0Q125 724 171 724H218Q294 724 327.5 687.5Q361 651 361 590Q361 559 343.0 513.0Q325 467 302 416L260 326Q232 265 211.0 201.0Q190 137 190 79Q190 18 210.5 -22.0Q231 -62 262.5 -85.5Q294 -109 329.0 -119.0Q364 -129 393 -129Z" />
  </g>
</svg>