<svg xmlns="http://www.w3.org/2000/svg" viewBox="49 -47 364 364">
  <g transform="translate(0, 270) scale(1, -1)">
    <path fill="black" d="M231 -47Q181 -47 139.5 -22.5Q98 2 73.5 43.5Q49 85 49 135Q49 185 73.5 226.5Q98 268 139.5 292.5Q181 317 231 317Q281 317 322.5 292.5Q364 268 388.5 226.5Q413 185 413 135Q413 85 388.5 43.5Q364 2 322.5 -22.5Q281 -47 231 -47ZM231 4Q268 4 297.5 22.0Q327 40 344.5 69.5Q362 99 362 135Q362 172 344.5 201.5Q327 231 297.5 249.0Q268 267 231 267Q195 267 165.0 249.0Q135 231 117.5 201.5Q100 172 100 135Q100 99 117.5 69.5Q135 40 165.0 22.0Q195 4 231 4Z" />
  </g>
</svg>