<svg xmlns="http://www.w3.org/2000/svg" viewBox="49 -47 834 836">
  <g transform="translate(0, 742) scale(1, -1)">
    <path fill="black" d="M230 425Q180 425 139.0 449.5Q98 474 73.5 515.5Q49 557 49 607Q49 658 73.5 699.0Q98 740 139.0 764.5Q180 789 230 789Q281 789 322.5 764.5Q364 740 388.5 699.0Q413 658 413 607Q413 557 388.5 515.5Q364 474 322.5 449.5Q281 425 230 425ZM702 425Q652 425 610.5 449.5Q569 474 544.5 515.5Q520 557 520 607Q520 658 544.5 699.0Q569 740 610.5 764.5Q652 789 702 789Q752 789 793.0 764.5Q834 740 858.5 699.0Q883 658 883 607Q883 557 858.5 515.5Q834 474 793.0 449.5Q752 425 702 425ZM230 476Q267 476 296.5 493.5Q326 511 344.0 541.0Q362 571 362 607Q362 644 344.0 673.5Q326 703 296.5 720.5Q267 738 230 738Q194 738 164.5 720.5Q135 703 117.0 673.5Q99 644 99 607Q99 571 117.0 541.0Q135 511 164.5 493.5Q194 476 230 476ZM702 476Q738 476 768.0 493.5Q798 511 815.5 541.0Q833 571 833 607Q833 644 815.5 673.5Q798 703 768.0 720.5Q738 738 702 738Q666 738 636.0 720.5Q606 703 588.0 673.5Q570 644 570 607Q570 571 588.0 541.0Q606 511 636.0 493.5Q666 476 702 476ZM466 -47Q416 -47 374.5 -22.5Q333 2 308.5 43.5Q284 85 284 135Q284 185 308.5 226.5Q333 268 374.5 292.5Q416 317 466 317Q516 317 557.5 292.5Q599 268 623.5 226.5Q648 185 648 135Q648 85 623.5 43.5Q599 2 557.5 -22.5Q516 -47 466 -47ZM466 4Q503 4 532.5 22.0Q562 40 579.5 69.5Q597 99 597 135Q597 172 579.5 201.5Q562 231 532.5 249.0Q503 267 466 267Q430 267 400.0 249.0Q370 231 352.0 201.5Q334 172 334 135Q334 99 352.0 69.5Q370 40 400.0 22.0Q430 4 466 4Z" />
  </g>
</svg>