<svg xmlns="http://www.w3.org/2000/svg" viewBox="49 -47 834 836">
  <g transform="translate(0, 742) scale(1, -1)">
    <path fill="black" d="M230 425Q180 425 139.0 449.5Q98 474 73.5 515.5Q49 557 49 607Q49 658 73.5 699.0Q98 740 139.0 764.5Q180 789 230 789Q281 789 322.5 764.5Q364 740 388.5 699.0Q413 658 413 607Q413 557 388.5 515.5Q364 474 322.5 449.5Q281 425 230 425ZM702 425Q652 425 610.5 449.5Q569 474 544.5 515.5Q520 557 520 607Q520 658 544.5 699.0Q569 740 610.5 764.5Q652 789 702 789Q752 789 793.0 764.5Q834 740 858.5 699.0Q883 658 883 607Q883 557 858.5 515.5Q834 474 793.0 449.5Q752 425 702 425ZM230 476Q267 476 296.5 493.5Q326 511 344.0 541.0Q362 571 362 607Q362 644 344.0 673.5Q326 703 296.5 720.5Q267 738 230 738Q194 738 164.5 720.5Q135 703 117.0 673.5Q99 644 99 607Q99 571 117.0 541.0Q135 511 164.5 493.5Q194 476 230 476ZM702 476Q738 476 768.0 493.5Q798 511 815.5 541.0Q833 571 833 607Q833 644 815.5 673.5Q798 703 768.0 720.5Q738 738 702 738Q666 738 636.0 720.5Q606 703 588.0 673.5Q570 644 570 607Q570 571 588.0 541.0Q606 511 636.0 493.5Q666 476 702 476ZM230 -47Q180 -47 139.0 -22.5Q98 2 73.5 43.5Q49 85 49 135Q49 185 73.5 226.5Q98 268 139.0 292.5Q180 317 230 317Q281 317 322.5 292.5Q364 268 388.5 226.5Q413 185 413 135Q413 85 388.5 43.5Q364 2 322.5 -22.5Q281 -47 230 -47ZM702 -47Q652 -47 610.5 -22.5Q569 2 544.5 43.5Q520 85 520 135Q520 185 544.5 226.5Q569 268 610.5 292.5Q652 317 702 317Q752 317 793.0 292.5Q834 268 858.5 226.5Q883 185 883 135Q883 85 858.5 43.5Q834 2 793.0 -22.5Q752 -47 702 -47ZM230 4Q267 4 296.5 22.0Q326 40 344.0 69.5Q362 99 362 135Q362 172 344.0 201.5Q326 231 296.5 249.0Q267 267 230 267Q194 267 164.5 249.0Q135 231 117.0 201.5Q99 172 99 135Q99 99 117.0 69.5Q135 40 164.5 22.0Q194 4 230 4ZM702 4Q738 4 768.0 22.0Q798 40 815.5 69.5Q833 99 833 135Q833 172 815.5 201.5Q798 231 768.0 249.0Q738 267 702 267Q666 267 636.0 249.0Q606 231 588.0 201.5Q570 172 570 135Q570 99 588.0 69.5Q606 40 636.0 22.0Q666 4 702 4Z" />
  </g>
</svg>