<svg xmlns="http://www.w3.org/2000/svg" viewBox="49 -47 1305 836">
  <g transform="translate(0, 742) scale(1, -1)">
    <path fill="black" d="M702 425Q652 425 610.5 449.5Q569 474 544.5 515.5Q520 557 520 607Q520 658 544.5 699.0Q569 740 610.5 764.5Q652 789 702 789Q752 789 793.5 764.5Q835 740 859.5 699.0Q884 658 884 607Q884 557 859.5 515.5Q835 474 793.5 449.5Q752 425 702 425ZM231 425Q181 425 139.5 449.5Q98 474 73.5 515.5Q49 557 49 607Q49 658 73.5 699.0Q98 740 139.5 764.5Q181 789 231 789Q281 789 322.5 764.5Q364 740 388.5 699.0Q413 658 413 607Q413 557 388.5 515.5Q364 474 322.5 449.5Q281 425 231 425ZM1172 425Q1122 425 1081.0 449.5Q1040 474 1015.5 515.5Q991 557 991 607Q991 658 1015.5 699.0Q1040 740 1081.0 764.5Q1122 789 1172 789Q1222 789 1263.5 764.5Q1305 740 1329.5 699.0Q1354 658 1354 607Q1354 557 1329.5 515.5Q1305 474 1263.5 449.5Q1222 425 1172 425ZM231 476Q268 476 297.5 493.5Q327 511 344.5 541.0Q362 571 362 607Q362 644 344.5 673.5Q327 703 297.5 720.5Q268 738 231 738Q195 738 165.0 720.5Q135 703 117.5 673.5Q100 644 100 607Q100 571 117.5 541.0Q135 511 165.0 493.5Q195 476 231 476ZM702 476Q738 476 768.0 493.5Q798 511 815.5 541.0Q833 571 833 607Q833 644 815.5 673.5Q798 703 768.0 720.5Q738 738 702 738Q666 738 636.0 720.5Q606 703 588.0 673.5Q570 644 570 607Q570 571 588.0 541.0Q606 511 636.0 493.5Q666 476 702 476ZM1172 476Q1209 476 1238.5 493.5Q1268 511 1286.0 541.0Q1304 571 1304 607Q1304 644 1286.0 673.5Q1268 703 1238.5 720.5Q1209 738 1172 738Q1136 738 1106.5 720.5Q1077 703 1059.0 673.5Q1041 644 1041 607Q1041 571 1059.0 541.0Q1077 511 1106.5 493.5Q1136 476 1172 476ZM231 -47Q181 -47 139.5 -22.5Q98 2 73.5 43.5Q49 85 49 135Q49 185 73.5 226.5Q98 268 139.5 292.5Q181 317 231 317Q281 317 322.5 292.5Q364 268 388.5 226.5Q413 185 413 135Q413 85 388.5 43.5Q364 2 322.5 -22.5Q281 -47 231 -47ZM702 -47Q652 -47 610.5 -22.5Q569 2 544.5 43.5Q520 85 520 135Q520 185 544.5 226.5Q569 268 610.5 292.5Q652 317 702 317Q752 317 793.5 292.5Q835 268 859.5 226.5Q884 185 884 135Q884 85 859.5 43.5Q835 2 793.5 -22.5Q752 -47 702 -47ZM1172 -47Q1122 -47 1081.0 -22.5Q1040 2 1015.5 43.5Q991 85 991 135Q991 185 1015.5 226.5Q1040 268 1081.0 292.5Q1122 317 1172 317Q1222 317 1263.5 292.5Q1305 268 1329.5 226.5Q1354 185 1354 135Q1354 85 1329.5 43.5Q1305 2 1263.5 -22.5Q1222 -47 1172 -47ZM231 4Q268 4 297.5 22.0Q327 40 344.5 69.5Q362 99 362 135Q362 172 344.5 201.5Q327 231 297.5 249.0Q268 267 231 267Q195 267 165.0 249.0Q135 231 117.5 201.5Q100 172 100 135Q100 99 117.5 69.5Q135 40 165.0 22.0Q195 4 231 4ZM702 4Q738 4 768.0 22.0Q798 40 815.5 69.5Q833 99 833 135Q833 172 815.5 201.5Q798 231 768.0 249.0Q738 267 702 267Q666 267 636.0 249.0Q606 231 588.0 201.5Q570 172 570 135Q570 99 588.0 69.5Q606 40 636.0 22.0Q666 4 702 4ZM1172 4Q1209 4 1238.5 22.0Q1268 40 1286.0 69.5Q1304 99 1304 135Q1304 172 1286.0 201.5Q1268 231 1238.5 249.0Q1209 267 1172 267Q1136 267 1106.5 249.0Q1077 231 1059.0 201.5Q1041 172 1041 135Q1041 99 1059.0 69.5Q1077 40 1106.5 22.0Q1136 4 1172 4Z" />
  </g>
</svg>