<svg xmlns="http://www.w3.org/2000/svg" viewBox="49 -47 1776 836">
  <g transform="translate(0, 742) scale(1, -1)">
    <path fill="black" d="M1643 425Q1593 425 1551.5 449.5Q1510 474 1485.5 515.5Q1461 557 1461 607Q1461 658 1485.5 699.0Q1510 740 1551.5 764.5Q1593 789 1643 789Q1693 789 1734.5 764.5Q1776 740 1800.5 699.0Q1825 658 1825 607Q1825 557 1800.5 515.5Q1776 474 1734.5 449.5Q1693 425 1643 425ZM230 425Q180 425 139.0 449.5Q98 474 73.5 515.5Q49 557 49 607Q49 658 73.5 699.0Q98 740 139.0 764.5Q180 789 230 789Q281 789 322.5 764.5Q364 740 388.5 699.0Q413 658 413 607Q413 557 388.5 515.5Q364 474 322.5 449.5Q281 425 230 425ZM701 425Q651 425 610.0 449.5Q569 474 544.5 515.5Q520 557 520 607Q520 658 544.5 699.0Q569 740 610.0 764.5Q651 789 701 789Q752 789 793.0 764.5Q834 740 858.5 699.0Q883 658 883 607Q883 557 858.5 515.5Q834 474 793.0 449.5Q752 425 701 425ZM1172 425Q1122 425 1080.5 449.5Q1039 474 1014.5 515.5Q990 557 990 607Q990 658 1014.5 699.0Q1039 740 1080.5 764.5Q1122 789 1172 789Q1222 789 1263.5 764.5Q1305 740 1329.5 699.0Q1354 658 1354 607Q1354 557 1329.5 515.5Q1305 474 1263.5 449.5Q1222 425 1172 425ZM230 476Q267 476 296.5 493.5Q326 511 344.0 541.0Q362 571 362 607Q362 644 344.0 673.5Q326 703 296.5 720.5Q267 738 230 738Q194 738 164.5 720.5Q135 703 117.0 673.5Q99 644 99 607Q99 571 117.0 541.0Q135 511 164.5 493.5Q194 476 230 476ZM701 476Q738 476 767.5 493.5Q797 511 815.0 541.0Q833 571 833 607Q833 644 815.0 673.5Q797 703 767.5 720.5Q738 738 701 738Q665 738 635.0 720.5Q605 703 587.5 673.5Q570 644 570 607Q570 571 587.5 541.0Q605 511 635.0 493.5Q665 476 701 476ZM1172 476Q1209 476 1238.5 493.5Q1268 511 1286.0 541.0Q1304 571 1304 607Q1304 644 1286.0 673.5Q1268 703 1238.5 720.5Q1209 738 1172 738Q1136 738 1106.5 720.5Q1077 703 1059.0 673.5Q1041 644 1041 607Q1041 571 1059.0 541.0Q1077 511 1106.5 493.5Q1136 476 1172 476ZM1643 476Q1680 476 1709.5 493.5Q1739 511 1756.5 541.0Q1774 571 1774 607Q1774 644 1756.5 673.5Q1739 703 1709.5 720.5Q1680 738 1643 738Q1607 738 1577.0 720.5Q1547 703 1529.5 673.5Q1512 644 1512 607Q1512 571 1529.5 541.0Q1547 511 1577.0 493.5Q1607 476 1643 476ZM230 -47Q180 -47 139.0 -22.5Q98 2 73.5 43.5Q49 85 49 135Q49 185 73.5 226.5Q98 268 139.0 292.5Q180 317 230 317Q281 317 322.5 292.5Q364 268 388.5 226.5Q413 185 413 135Q413 85 388.5 43.5Q364 2 322.5 -22.5Q281 -47 230 -47ZM701 -47Q651 -47 610.0 -22.5Q569 2 544.5 43.5Q520 85 520 135Q520 185 544.5 226.5Q569 268 610.0 292.5Q651 317 701 317Q752 317 793.0 292.5Q834 268 858.5 226.5Q883 185 883 135Q883 85 858.5 43.5Q834 2 793.0 -22.5Q752 -47 701 -47ZM1172 -47Q1122 -47 1080.5 -22.5Q1039 2 1014.5 43.5Q990 85 990 135Q990 185 1014.5 226.5Q1039 268 1080.5 292.5Q1122 317 1172 317Q1222 317 1263.5 292.5Q1305 268 1329.5 226.5Q1354 185 1354 135Q1354 85 1329.5 43.5Q1305 2 1263.5 -22.5Q1222 -47 1172 -47ZM1643 -47Q1593 -47 1551.5 -22.5Q1510 2 1485.5 43.5Q1461 85 1461 135Q1461 185 1485.5 226.5Q1510 268 1551.5 292.5Q1593 317 1643 317Q1693 317 1734.5 292.5Q1776 268 1800.5 226.5Q1825 185 1825 135Q1825 85 1800.5 43.5Q1776 2 1734.5 -22.5Q1693 -47 1643 -47ZM230 4Q267 4 296.5 22.0Q326 40 344.0 69.5Q362 99 362 135Q362 172 344.0 201.5Q326 231 296.5 249.0Q267 267 230 267Q194 267 164.5 249.0Q135 231 117.0 201.5Q99 172 99 135Q99 99 117.0 69.5Q135 40 164.5 22.0Q194 4 230 4ZM701 4Q738 4 767.5 22.0Q797 40 815.0 69.5Q833 99 833 135Q833 172 815.0 201.5Q797 231 767.5 249.0Q738 267 701 267Q665 267 635.0 249.0Q605 231 587.5 201.5Q570 172 570 135Q570 99 587.5 69.5Q605 40 635.0 22.0Q665 4 701 4ZM1172 4Q1209 4 1238.5 22.0Q1268 40 1286.0 69.5Q1304 99 1304 135Q1304 172 1286.0 201.5Q1268 231 1238.5 249.0Q1209 267 1172 267Q1136 267 1106.5 249.0Q1077 231 1059.0 201.5Q1041 172 1041 135Q1041 99 1059.0 69.5Q1077 40 1106.5 22.0Q1136 4 1172 4ZM1643 4Q1680 4 1709.5 22.0Q1739 40 1756.5 69.5Q1774 99 1774 135Q1774 172 1756.5 201.5Q1739 231 1709.5 249.0Q1680 267 1643 267Q1607 267 1577.0 249.0Q1547 231 1529.5 201.5Q1512 172 1512 135Q1512 99 1529.5 69.5Q1547 40 1577.0 22.0Q1607 4 1643 4Z" />
  </g>
</svg>