<svg xmlns="http://www.w3.org/2000/svg" viewBox="49 -292 1305 1307">
  <g transform="translate(0, 723) scale(1, -1)">
    <path fill="black" d="M1172 651Q1122 651 1081.0 675.5Q1040 700 1015.5 741.5Q991 783 991 833Q991 884 1015.5 925.0Q1040 966 1081.0 990.5Q1122 1015 1172 1015Q1222 1015 1263.5 990.5Q1305 966 1329.5 925.0Q1354 884 1354 833Q1354 783 1329.5 741.5Q1305 700 1263.5 675.5Q1222 651 1172 651ZM231 651Q181 651 139.5 675.5Q98 700 73.5 741.5Q49 783 49 833Q49 884 73.5 925.0Q98 966 139.5 990.5Q181 1015 231 1015Q281 1015 322.5 990.5Q364 966 388.5 925.0Q413 884 413 833Q413 783 388.5 741.5Q364 700 322.5 675.5Q281 651 231 651ZM702 651Q652 651 610.5 675.5Q569 700 544.5 741.5Q520 783 520 833Q520 884 544.5 925.0Q569 966 610.5 990.5Q652 1015 702 1015Q752 1015 793.5 990.5Q835 966 859.5 925.0Q884 884 884 833Q884 783 859.5 741.5Q835 700 793.5 675.5Q752 651 702 651ZM1172 702Q1209 702 1238.5 720.0Q1268 738 1286.0 767.5Q1304 797 1304 833Q1304 870 1286.0 899.5Q1268 929 1238.5 947.0Q1209 965 1172 965Q1136 965 1106.5 947.0Q1077 929 1059.0 899.5Q1041 870 1041 833Q1041 797 1059.0 767.5Q1077 738 1106.5 720.0Q1136 702 1172 702ZM702 702Q738 702 768.0 720.0Q798 738 815.5 767.5Q833 797 833 833Q833 870 815.5 899.5Q798 929 768.0 947.0Q738 965 702 965Q666 965 636.0 947.0Q606 929 588.0 899.5Q570 870 570 833Q570 797 588.0 767.5Q606 738 636.0 720.0Q666 702 702 702ZM231 702Q268 702 297.5 720.0Q327 738 344.5 767.5Q362 797 362 833Q362 870 344.5 899.5Q327 929 297.5 947.0Q268 965 231 965Q195 965 165.0 947.0Q135 929 117.5 899.5Q100 870 100 833Q100 797 117.5 767.5Q135 738 165.0 720.0Q195 702 231 702ZM702 179Q652 179 610.5 203.5Q569 228 544.5 269.5Q520 311 520 361Q520 411 544.5 452.5Q569 494 610.5 518.5Q652 543 702 543Q752 543 793.5 518.5Q835 494 859.5 452.5Q884 411 884 361Q884 311 859.5 269.5Q835 228 793.5 203.5Q752 179 702 179ZM1172 179Q1122 179 1081.0 203.5Q1040 228 1015.5 269.5Q991 311 991 361Q991 411 1015.5 452.5Q1040 494 1081.0 518.5Q1122 543 1172 543Q1222 543 1263.5 518.5Q1305 494 1329.5 452.5Q1354 411 1354 361Q1354 311 1329.5 269.5Q1305 228 1263.5 203.5Q1222 179 1172 179ZM231 179Q181 179 139.5 203.5Q98 228 73.5 269.5Q49 311 49 361Q49 411 73.5 452.5Q98 494 139.5 518.5Q181 543 231 543Q281 543 322.5 518.5Q364 494 388.5 452.5Q413 411 413 361Q413 311 388.5 269.5Q364 228 322.5 203.5Q281 179 231 179ZM702 230Q738 230 768.0 248.0Q798 266 815.5 295.5Q833 325 833 361Q833 398 815.5 427.5Q798 457 768.0 475.0Q738 493 702 493Q666 493 636.0 475.0Q606 457 588.0 427.5Q570 398 570 361Q570 325 588.0 295.5Q606 266 636.0 248.0Q666 230 702 230ZM231 230Q268 230 297.5 248.0Q327 266 344.5 295.5Q362 325 362 361Q362 398 344.5 427.5Q327 457 297.5 475.0Q268 493 231 493Q195 493 165.0 475.0Q135 457 117.5 427.5Q100 398 100 361Q100 325 117.5 295.5Q135 266 165.0 248.0Q195 230 231 230ZM1172 230Q1209 230 1238.5 248.0Q1268 266 1286.0 295.5Q1304 325 1304 361Q1304 398 1286.0 427.5Q1268 457 1238.5 475.0Q1209 493 1172 493Q1136 493 1106.5 475.0Q1077 457 1059.0 427.5Q1041 398 1041 361Q1041 325 1059.0 295.5Q1077 266 1106.5 248.0Q1136 230 1172 230ZM1172 -292Q1122 -292 1081.0 -267.5Q1040 -243 1015.5 -202.0Q991 -161 991 -111Q991 -60 1015.5 -19.0Q1040 22 1081.0 46.5Q1122 71 1172 71Q1222 71 1263.5 46.5Q1305 22 1329.5 -19.0Q1354 -60 1354 -111Q1354 -161 1329.5 -202.0Q1305 -243 1263.5 -267.5Q1222 -292 1172 -292ZM702 -292Q652 -292 610.5 -267.5Q569 -243 544.5 -202.0Q520 -161 520 -111Q520 -60 544.5 -19.0Q569 22 610.5 46.5Q652 71 702 71Q752 71 793.5 46.5Q835 22 859.5 -19.0Q884 -60 884 -111Q884 -161 859.5 -202.0Q835 -243 793.5 -267.5Q752 -292 702 -292ZM231 -292Q181 -292 139.5 -267.5Q98 -243 73.5 -202.0Q49 -161 49 -111Q49 -60 73.5 -19.0Q98 22 139.5 46.5Q181 71 231 71Q281 71 322.5 46.5Q364 22 388.5 -19.0Q413 -60 413 -111Q413 -161 388.5 -202.0Q364 -243 322.5 -267.5Q281 -292 231 -292ZM1172 -242Q1209 -242 1238.5 -224.5Q1268 -207 1286.0 -177.0Q1304 -147 1304 -111Q1304 -74 1286.0 -44.5Q1268 -15 1238.5 3.0Q1209 21 1172 21Q1136 21 1106.5 3.0Q1077 -15 1059.0 -44.5Q1041 -74 1041 -111Q1041 -147 1059.0 -177.0Q1077 -207 1106.5 -224.5Q1136 -242 1172 -242ZM702 -242Q738 -242 768.0 -224.5Q798 -207 815.5 -177.0Q833 -147 833 -111Q833 -74 815.5 -44.5Q798 -15 768.0 3.0Q738 21 702 21Q666 21 636.0 3.0Q606 -15 588.0 -44.5Q570 -74 570 -111Q570 -147 588.0 -177.0Q606 -207 636.0 -224.5Q666 -242 702 -242ZM231 -242Q268 -242 297.5 -224.5Q327 -207 344.5 -177.0Q362 -147 362 -111Q362 -74 344.5 -44.5Q327 -15 297.5 3.0Q268 21 231 21Q195 21 165.0 3.0Q135 -15 117.5 -44.5Q100 -74 100 -111Q100 -147 117.5 -177.0Q135 -207 165.0 -224.5Q195 -242 231 -242Z" />
  </g>
</svg>