<svg xmlns="http://www.w3.org/2000/svg" viewBox="45 -5 1171 823">
  <g transform="translate(0, 813) scale(1, -1)">
    <path fill="black" d="M268 654Q292 673 309.0 698.0Q326 723 340.5 747.0Q355 771 370.5 790.0Q386 809 406 816L413 818L435 787L427 781Q410 770 399.0 746.0Q388 722 374.0 692.0Q360 662 333 633L345 638L368 645L373 637L365 610Q451 592 507.0 579.5Q563 567 603.0 560.5Q643 554 680 554Q701 554 737.5 558.5Q774 563 815.5 568.5Q857 574 895.0 578.5Q933 583 957 583Q1033 583 1074.5 570.5Q1116 558 1134.5 536.0Q1153 514 1157 485L1186 309Q1194 288 1205.0 267.0Q1216 246 1216 210Q1216 190 1209 168L1195 167Q1173 179 1163.0 201.5Q1153 224 1153 246Q1153 257 1155.5 270.0Q1158 283 1162 305L1151 382L1131 303L1140 236L1120 26L1103 28L1091 0L1038 -5L1015 7L1039 56L1047 61L1055 227L983 279L956 271L928 195L832 26L824 28L813 0L759 -5L737 7L760 56L769 61L820 141L850 236L795 219L786 234L809 242L573 253L511 26L502 28L490 0L437 -5L414 7L438 56L446 61L476 217Q469 219 463.0 220.0Q457 221 451 223L445 195L348 26L341 28L329 0L276 -5L253 7L277 56L285 61L337 141L372 258Q351 274 337.0 293.0Q323 312 313 333L265 441L120 422L88 447L57 496V508Q83 534 109.0 559.0Q135 584 162 609Q140 632 126.5 655.0Q113 678 102 699Q90 724 82.0 736.5Q74 749 66.0 757.0Q58 765 45 774L67 803L73 801Q102 791 122.5 765.0Q143 739 163.5 708.5Q184 678 211 652Q224 660 241 660Q253 660 265 655Q266 655 266.5 654.5Q267 654 268 654ZM409 791 406 795Q390 786 375.5 765.5Q361 745 345.0 719.0Q329 693 309.0 668.5Q289 644 261 626L251 642Q235 647 219.0 636.5Q203 626 187 611L76 504L100 464L154 476L163 462L109 449L125 441L271 460L322 502L336 490L286 447L330 346Q350 299 387.0 273.5Q424 248 473 240L436 290Q413 321 404.0 352.5Q395 384 395 425H414Q414 385 422.0 357.0Q430 329 453 297L498 235L466 57L499 48L562 281L546 331L565 339L581 284L578 271L848 257L969 294L904 397L923 407L991 299L1075 238L1066 57L1105 47L1121 238L1111 303L1144 427L1136 479Q1133 501 1118.0 520.5Q1103 540 1065.5 552.5Q1028 565 957 565Q934 565 896.0 560.5Q858 556 816.0 550.0Q774 544 737.5 539.5Q701 535 681 535Q640 535 593.0 542.5Q546 550 501.0 560.0Q456 570 419.0 579.0Q382 588 360 590L352 565L301 556L295 573L336 582L348 624L280 591L272 606L271 608Q307 628 327.5 653.5Q348 679 360.0 705.0Q372 731 382.5 754.0Q393 777 409 791ZM73 781 71 778Q94 759 106.5 733.0Q119 707 133.5 678.5Q148 650 176 622L196 640Q170 665 150.5 693.5Q131 722 113.0 746.5Q95 771 73 781ZM223 583 227 567 201 554 188 537 175 534 170 558 176 573ZM120 515 128 498 108 480 91 508ZM931 262 875 244 841 137 788 57 821 48 913 204ZM388 248 357 137 304 57 338 48 429 204 432 228Q409 235 388 248ZM776 40 766 17H800L805 33ZM454 40 444 17H477L483 33ZM293 40 282 17H316L321 33ZM1054 40 1044 17H1078L1083 33Z" />
  </g>
</svg>