<svg xmlns="http://www.w3.org/2000/svg" viewBox="49 0 1076.060606060606 1018">
  <g transform="translate(0, 1018) scale(1, -1)">
    <path fill="black" d="M113 0 53 20 49 63 97 98 315 124 303 198Q292 195 280.0 193.5Q268 192 257 190L281 162L259 142L233 172L180 125L160 148L213 194L191 220L213 240L235 215Q242 232 250.0 247.5Q258 263 267 279Q266 281 265.5 282.5Q265 284 264 285L252 273L201 279Q197 276 184.0 268.5Q171 261 160 254L119 255Q107 256 93.0 265.5Q79 275 69.0 288.0Q59 301 57 312Q58 318 71.0 338.0Q84 358 103.5 384.0Q123 410 143.5 435.5Q164 461 179.5 479.0Q195 497 199 500H219Q216 512 212.0 530.5Q208 549 208 570Q208 589 212.5 608.0Q217 627 221 641Q232 679 234.0 716.5Q236 754 232 794H265Q270 770 274.5 737.5Q279 705 279 685Q279 679 278.5 672.5Q278 666 277 659Q312 705 371 705Q391 705 404 701L317 798L479 922Q471 930 466.5 941.5Q462 953 462 963Q462 985 479.5 1001.5Q497 1018 522 1018Q538 1018 558.0 1004.5Q578 991 578 959Q578 953 577 950Q585 956 595.0 960.0Q605 964 616 964Q648 964 660.5 943.5Q673 923 673 903Q673 883 658.5 867.0Q644 851 624 851Q611 851 600 857L572 645L450 675Q469 659 480.0 635.5Q491 612 491 585Q491 567 487.0 549.5Q483 532 469 516Q497 533 535.5 549.0Q574 565 621 573V534Q591 524 570.0 511.5Q549 499 529 485Q501 466 472.0 448.5Q443 431 408 423L410 422Q416 423 417.5 423.0Q419 423 420 423Q450 423 468.5 399.5Q487 376 488 351Q502 345 521 339L895 722L1075 441L1059 432L1043 456L1004 444L1012 418L995 412L986 438L944 426L948 402L930 399L887 688L541 334Q559 330 581.5 327.5Q604 325 631 325Q684 325 779 340Q811 345 839.0 348.5Q867 352 889 352Q949 352 995.5 330.0Q1042 308 1073.0 276.5Q1104 245 1118 215L1125 103Q1126 74 1110.5 45.5Q1095 17 1080 0H820L778 11H544L458 0ZM424 711 533 894Q544 911 552.0 927.5Q560 944 560 959Q560 981 546.5 990.0Q533 999 522 999Q504 999 492.0 988.0Q480 977 480 963Q480 953 488.5 941.5Q497 930 504 923L345 796ZM556 667 586 891Q593 884 605.0 877.0Q617 870 624 870Q637 870 646.0 880.0Q655 890 655 903Q655 917 646.5 931.0Q638 945 616 945Q595 945 580.0 927.5Q565 910 550 886L437 698ZM239 500H283Q280 505 276.5 510.5Q273 516 270 521Q251 551 251 585Q251 599 254 612Q256 629 258.5 647.0Q261 665 261 684Q261 706 259.0 725.0Q257 744 255 757H250Q252 728 249.5 698.0Q247 668 238 637Q234 623 230.5 606.5Q227 590 227 570Q227 549 231.5 530.0Q236 511 239 500ZM473 585Q473 627 443.0 657.0Q413 687 371 687Q329 687 299.5 657.0Q270 627 270 585Q270 563 281.0 539.5Q292 516 315.5 500.0Q339 484 376 484Q414 484 443.5 513.5Q473 543 473 585ZM942 444 1033 472 909 665ZM317 222Q355 234 388.0 252.5Q421 271 443.0 294.0Q465 317 469 340Q452 353 427.0 377.5Q402 402 385 419Q381 418 376.5 417.5Q372 417 368 416L379 410L402 358H339L306 386L318 399L345 377H374Q372 382 369.5 387.0Q367 392 365 397L341 412Q334 411 328.0 410.0Q322 409 319 409L317 427L345 429Q382 434 408.0 441.5Q434 449 459.0 462.5Q484 476 518 498Q529 506 546.5 517.0Q564 528 596 541V551Q550 541 520.0 524.5Q490 508 459 492Q436 479 417.0 472.0Q398 465 376 465Q357 465 340.5 468.5Q324 472 305 482H206Q200 477 186.0 460.5Q172 444 154.0 421.5Q136 399 119.0 377.0Q102 355 90.0 337.5Q78 320 76 313Q79 301 93.0 288.0Q107 275 120 274L156 272L197 297L246 291L281 326L294 312L279 299ZM193 387V412L202 425H251V408L223 401L206 387ZM467 365Q466 370 463.5 375.0Q461 380 457 384Q444 401 428 403ZM822 18 1072 19Q1075 22 1083.5 33.5Q1092 45 1100.0 63.0Q1108 81 1106 102L1100 211Q1096 219 1081.5 238.5Q1067 258 1041.5 279.5Q1016 301 978.0 317.0Q940 333 889 333Q870 333 842.0 329.5Q814 326 782 321Q750 316 710.5 311.0Q671 306 637 306Q585 306 547.5 314.0Q510 322 486 331Q476 291 428.5 256.0Q381 221 322 203L334 111L102 80Q97 77 86.5 69.5Q76 62 68 57L70 34Q82 30 93.0 26.0Q104 22 116 19H457L542 30H780ZM124 287 99 309 125 325 138 311ZM277 258Q272 249 265.5 236.0Q259 223 253 208Q264 209 275.5 211.0Q287 213 298 216Z" />
  </g>
</svg>