<svg xmlns="http://www.w3.org/2000/svg" viewBox="49 -14 1126 780">
  <g transform="translate(0, 752) scale(1, -1)">
    <path fill="black" d="M573 -14 569 4 563 3 556 38 539 79 537 124Q535 126 531.5 130.5Q528 135 524 141Q524 137 523.5 133.5Q523 130 523 126Q523 107 526.0 98.5Q529 90 530 79Q531 73 531.0 63.5Q531 54 522 53Q512 51 510.5 61.0Q509 71 508 79Q507 91 509.0 102.0Q511 113 511 127Q511 154 516 182Q518 197 525.5 209.0Q533 221 549 228Q554 230 564.5 233.0Q575 236 588 240Q616 248 646.5 257.5Q677 267 688 274Q697 279 705.5 291.5Q714 304 718 313Q715 318 711.5 325.0Q708 332 708 338Q708 349 716.5 353.5Q725 358 734 359L731 370L623 331L509 319Q510 315 510.5 310.0Q511 305 511 300Q511 292 500.5 281.0Q490 270 475.0 263.0Q460 256 443 257L392 287L371 217Q371 215 370.0 188.5Q369 162 368.0 124.5Q367 87 366 52L346 50L338 37L340 28L328 0L275 -5L252 7L276 56L280 58L307 98V243L297 320Q293 322 292 322L277 264L223 169L155 42L142 45L135 38L137 28L125 0L72 -5L49 7L73 56L166 203L214 365Q184 388 158.0 421.0Q132 454 132 499Q132 551 154.5 580.0Q177 609 210 623Q205 644 200.0 670.0Q195 696 192.5 720.0Q190 744 190 759L215 766Q224 743 239.0 706.0Q254 669 267 638Q285 640 302.5 641.0Q320 642 336 642Q368 642 400.0 639.5Q432 637 463 635Q495 633 526.0 631.0Q557 629 586 630L608 638L612 632Q653 637 700.0 647.0Q747 657 798 667Q839 675 883.5 683.0Q928 691 975 691Q1028 691 1056.5 670.0Q1085 649 1098.0 615.0Q1111 581 1115.0 542.0Q1119 503 1122 467Q1124 441 1130.0 411.0Q1136 381 1141 363Q1149 342 1162.0 319.0Q1175 296 1175 270Q1175 260 1174.0 241.0Q1173 222 1169 210L1155 209Q1139 226 1126.5 252.0Q1114 278 1114 300Q1114 311 1114.0 324.0Q1114 337 1118 359Q1113 376 1107.0 404.5Q1101 433 1099 457Q1098 471 1096.5 489.0Q1095 507 1093 526Q1086 506 1079.0 473.5Q1072 441 1073 413Q1074 400 1083.5 375.5Q1093 351 1102 332Q1100 295 1098.0 255.5Q1096 216 1094.0 181.5Q1092 147 1091.0 126.0Q1090 105 1090 105L1092 76L1076 27L1072 28L1061 0L1007 -5L984 7L1004 48L1026 133L1022 241L971 323Q967 322 962.0 320.0Q957 318 951 316L952 285H933L932 313H917L913 288L895 291L899 317L888 322L879 298L873 300L800 179L823 150L848 112L865 86L862 78L830 68L815 95L788 132L767 151L768 142L803 93L822 66L820 59L783 48L772 66L751 94L699 34L700 28L688 0L635 -5L612 7L629 42L601 76L594 89Q593 84 591.0 79.0Q589 74 588 72L606 18L614 -1L611 -9ZM449 275Q465 274 478.5 283.5Q492 293 493 300L489 327L406 499L371 528Q366 529 346.5 531.0Q327 533 310 535Q300 543 285.0 564.5Q270 586 256 617Q243 648 232.0 678.0Q221 708 210 745L205 743Q207 724 213.0 689.0Q219 654 232 610Q240 584 254.0 559.5Q268 535 287 513L269 486L292 480L287 462L257 472L218 446Q220 442 222.5 438.5Q225 435 226 433H249Q253 435 262.0 438.5Q271 442 278 445L285 429L250 414L216 417L193 451L247 487L264 513Q248 532 235.5 557.0Q223 582 215 604Q187 591 169.0 566.5Q151 542 151 499Q151 462 174.5 430.5Q198 399 232.0 376.0Q266 353 297 340Q298 340 316.0 333.0Q334 326 356.0 318.5Q378 311 389 307L388 313L399 314L408 298ZM1066 49 1072 82V104L1083 328Q1083 330 1075.5 346.5Q1068 363 1061.0 382.5Q1054 402 1054 413Q1054 437 1059.5 466.5Q1065 496 1073.5 524.5Q1082 553 1089 573Q1082 617 1052.5 645.0Q1023 673 971 671Q940 670 895.0 663.5Q850 657 802 647Q754 638 707.0 629.0Q660 620 623 615L626 610Q612 600 593.0 585.5Q574 571 565 563Q555 555 546.0 542.5Q537 530 526 516Q510 495 493.0 473.0Q476 451 456 437L504 337L619 349L768 402L804 401Q823 386 845.5 370.0Q868 354 888.0 343.0Q908 332 918 331Q941 331 959 339Q931 368 907.0 405.5Q883 443 872 489L889 494Q900 448 924.5 410.5Q949 373 977 347L1040 246L1042 121L1026 59Q1042 55 1052.0 52.5Q1062 50 1066 49ZM428 494Q451 508 464.0 522.5Q477 537 489 551Q497 560 507.0 571.0Q517 582 529 593Q538 602 553 611Q510 612 462 617Q431 619 399.5 621.0Q368 623 336 623Q322 623 306.0 622.5Q290 622 275 620L276 617Q285 598 297.5 580.0Q310 562 318 553Q325 552 344.0 550.0Q363 548 378 546L421 510ZM447 455Q466 468 482.0 488.0Q498 508 511 526Q529 550 540.0 563.5Q551 577 564.5 588.0Q578 599 605 614L601 621Q561 604 541.0 583.5Q521 563 502 540Q490 525 476.0 509.5Q462 494 437 477ZM385 413 368 427 340 434V451H389L398 438V413ZM835 336 843 349Q830 358 817.0 368.0Q804 378 797 384H771L749 376L752 362Q761 369 772 369Q781 369 801.5 358.0Q822 347 835 336ZM126 50 139 63 146 60 207 179 260 270 273 330Q266 334 255.0 340.0Q244 346 231 354L182 195L91 59ZM575 17 591 21 569 74Q574 83 580.0 97.5Q586 112 589 124Q598 155 600 174L615 170Q614 165 613.0 158.0Q612 151 610 143Q621 145 637.0 148.5Q653 152 663 156Q680 162 690.0 166.0Q700 170 707 174L708 208H722L724 169Q725 163 729.5 152.0Q734 141 736 136Q738 134 752.0 116.5Q766 99 779 82L791 87L754 136L749 191L746 221L755 224L758 208L760 196Q761 197 764.0 198.5Q767 200 769 201L770 236Q773 252 777.0 270.5Q781 289 783 293Q787 299 797.0 302.0Q807 305 816 307Q817 308 823 308Q827 315 826 319Q824 324 812.5 331.5Q801 339 789.5 345.0Q778 351 772 351Q771 351 769.0 350.5Q767 350 765 350L753 338L745 349Q739 349 732.0 346.0Q725 343 725 338Q725 332 729 325L758 329V321L737 312Q733 302 722.5 284.5Q712 267 698 258Q691 254 673.0 247.5Q655 241 633.5 234.5Q612 228 594 222Q581 218 570.5 215.0Q560 212 555 210Q544 206 539.0 195.0Q534 184 534 170Q534 159 540.5 148.0Q547 137 554 131V81L570 39ZM787 195 868 333 859 339 845 317Q845 311 843.0 306.0Q841 301 839 299Q833 289 830.5 290.0Q828 291 821 289Q814 288 807.0 286.5Q800 285 800 284Q798 280 794.0 265.0Q790 250 788 236Q787 228 786.0 216.5Q785 205 784 198ZM787 320Q777 320 777 329Q777 338 787 338Q795 338 795 329Q795 320 787 320ZM436 296 435 324 453 330 468 304ZM326 51 338 67 353 68V219L375 293Q362 297 346.0 303.0Q330 309 316 313L325 245L326 92L298 58ZM826 101 835 106 812 142 773 185Q771 184 768.5 183.0Q766 182 764 181V171L798 140ZM651 73 714 157 713 161Q705 156 693.0 149.5Q681 143 669 139Q660 136 649.5 133.0Q639 130 629 127L634 98ZM688 50 740 109 720 135 659 57ZM634 52 641 61 622 91 614 125 604 122Q604 121 603.5 119.5Q603 118 601 109L612 83ZM834 81 853 85 846 99 829 91ZM788 61 808 66 800 79 782 71ZM1014 17H1047L1053 33L1024 40ZM281 17H315L320 33L292 40ZM78 17H112L117 33L88 40ZM641 17H675L680 33L651 40ZM581 -4 602 -1 597 12 578 7Z" />
  </g>
</svg>