<svg xmlns="http://www.w3.org/2000/svg" viewBox="49 0 1131.095238095238 866">
  <g transform="translate(0, 866) scale(1, -1)">
    <path fill="black" d="M277 0 289 46 332 107 384 392Q377 400 370.5 408.0Q364 416 360 421H361Q355 430 343.0 451.0Q331 472 317.0 497.5Q303 523 292 544L280 552V536Q280 524 274.5 510.0Q269 496 252 496Q232 496 227.5 511.5Q223 527 223 542Q223 550 223.0 558.5Q223 567 224 577L176 574Q171 571 153.5 560.5Q136 550 121 541L94 545Q89 544 78.5 542.5Q68 541 60 540L49 585Q59 612 70.5 642.5Q82 673 92.0 697.5Q102 722 106 729Q110 736 117.0 744.5Q124 753 133 763Q133 768 133.5 774.0Q134 780 134 784Q134 804 130.5 823.5Q127 843 118 865L140 866Q163 847 174.5 832.5Q186 818 192 801Q203 804 213 804H221Q227 830 227 863H250Q286 818 290 775L318 753Q323 750 347.5 737.0Q372 724 409.0 706.0Q446 688 490.5 670.5Q535 653 580.5 641.5Q626 630 666 630Q717 630 759.5 637.5Q802 645 836 652Q861 658 882.5 662.0Q904 666 924 666Q949 666 981.0 656.5Q1013 647 1044.5 634.0Q1076 621 1099 608Q1103 610 1110.0 624.0Q1117 638 1117 654Q1117 678 1108.5 697.5Q1100 717 1089 734Q1124 727 1151.5 701.0Q1179 675 1180 641Q1181 620 1171.5 596.5Q1162 573 1149.0 553.0Q1136 533 1123 519Q1119 512 1107.0 480.5Q1095 449 1082 417L1098 358Q1101 354 1113.0 337.5Q1125 321 1141.0 300.0Q1157 279 1171 260Q1170 235 1169.5 204.5Q1169 174 1169 166Q1169 161 1170.5 141.0Q1172 121 1174.5 98.0Q1177 75 1178 61L1168 37L1163 0H1066L1079 46L1100 75L1090 242Q1088 244 1083.0 249.0Q1078 254 1072 260L1087 230Q1085 212 1083.0 189.5Q1081 167 1082 158Q1083 148 1082.0 122.0Q1081 96 1080 75L1046 39L1042 0H948L960 46L1001 105L999 153Q999 158 994.5 176.0Q990 194 980.5 216.0Q971 238 955 256Q935 279 910.5 305.0Q886 331 870 346Q862 343 840.0 335.0Q818 327 791.5 320.0Q765 313 742 313Q716 313 684.5 319.5Q653 326 623.5 335.5Q594 345 573 354V350Q573 339 574.0 325.5Q575 312 579 302Q584 289 589.5 270.5Q595 252 599 238L588 200Q590 191 595.5 166.5Q601 142 608.0 111.5Q615 81 621 55L604 39L601 0H506L517 43L543 82L508 196Q504 200 493.5 209.0Q483 218 475 225L470 259L466 239Q458 223 448.5 204.0Q439 185 431.5 170.0Q424 155 422 149Q419 140 414.0 116.0Q409 92 404 72L375 39L371 0ZM153 782Q164 790 174 794Q167 814 149 833Q151 821 152.0 809.0Q153 797 153 784ZM588 49 599 61 567 202 582 239Q578 250 571.5 266.0Q565 282 560 295Q556 306 555.0 321.5Q554 337 554 350Q554 356 554.5 367.0Q555 378 555 385Q555 405 552.0 427.0Q549 449 544 465L563 470Q568 450 571.5 423.5Q575 397 575 375Q591 368 618.0 357.5Q645 347 677.5 339.5Q710 332 742 332Q759 332 781.0 337.0Q803 342 823.5 349.0Q844 356 857 361Q851 372 847.0 385.0Q843 398 843 411Q843 433 851.0 455.5Q859 478 870 494L886 483Q877 469 869.5 450.0Q862 431 862 411Q862 400 867.5 387.0Q873 374 882 361Q893 349 920.0 322.0Q947 295 970 269Q991 244 1003.5 211.0Q1016 178 1019 155L1021 105L992 58L1035 55L1059 83Q1061 102 1062.0 125.0Q1063 148 1062 156Q1061 165 1063.0 187.5Q1065 210 1067 228L1026 309L1033 350L1106 530Q1124 546 1142.5 576.0Q1161 606 1160 640Q1159 660 1149.0 678.0Q1139 696 1122 706Q1129 695 1131.0 682.0Q1133 669 1133 655Q1133 639 1126.5 623.0Q1120 607 1111.5 596.5Q1103 586 1098 586Q1076 599 1044.5 613.0Q1013 627 981.0 636.5Q949 646 924 646Q908 646 885.5 642.0Q863 638 840 633Q806 626 762.5 618.0Q719 610 666 610Q624 610 576.5 622.5Q529 635 482.5 653.0Q436 671 397.0 690.0Q358 709 333.5 722.5Q309 736 306 738L291 749Q291 743 290.5 737.0Q290 731 289 725L269 728Q275 770 261 810Q263 794 261.5 776.5Q260 759 255 742L243 748Q248 765 248.5 786.0Q249 807 245 826Q240 791 226 759L208 767Q210 772 212.0 776.5Q214 781 215 785Q193 785 174.0 772.5Q155 760 142.0 744.5Q129 729 123 719Q118 710 108.0 687.0Q98 664 87.5 635.5Q77 607 68 583L74 562L85 563Q93 572 104.5 582.0Q116 592 126 598L135 584Q122 577 108 563L118 561Q125 565 142.5 575.0Q160 585 173 593L243 598L307 559Q319 536 333.0 509.5Q347 483 359.0 461.5Q371 440 376 432Q381 425 387.0 418.0Q393 411 400 402Q411 391 421.5 377.5Q432 364 440 350Q450 334 464.0 310.5Q478 287 488 270L492 234Q497 230 507.0 222.0Q517 214 525 208L561 79L549 58ZM160 668V692L170 706H218V689L190 682L174 668ZM92 586 82 597 101 614 109 604ZM252 516Q255 516 258.0 522.0Q261 528 261 536Q261 542 260.5 553.0Q260 564 260 566L243 578Q243 567 242.5 560.5Q242 554 242 542Q242 537 243.5 526.5Q245 516 252 516ZM1109 58 1158 60Q1158 62 1156.5 76.5Q1155 91 1153.5 110.0Q1152 129 1151.0 145.5Q1150 162 1150 166Q1150 174 1150.5 202.5Q1151 231 1152 254Q1149 259 1136.5 275.0Q1124 291 1109.0 311.5Q1094 332 1081 349L1069 387Q1064 374 1059.0 362.0Q1054 350 1052 344L1047 315L1109 250L1118 69ZM373 63 385 81Q390 100 395.5 123.5Q401 147 404 156Q406 162 413.5 177.5Q421 193 430.0 211.5Q439 230 447 246L455 289Q447 301 438.5 315.0Q430 329 423 340Q419 348 413.5 356.0Q408 364 401 371L349 99L323 68ZM302 20H353L357 47L315 51L307 37ZM1092 20H1144L1147 42L1098 41ZM532 20H582L583 32L538 40ZM974 20H1024L1026 38L979 39Z" />
  </g>
</svg>