<svg xmlns="http://www.w3.org/2000/svg" viewBox="49 0 1105 1085">
  <g transform="translate(0, 1085) scale(1, -1)">
    <path fill="black" d="M898 0 910 46 930 74 951 105 949 153Q948 161 945.0 180.0Q942 199 918 227Q887 262 864.5 282.0Q842 302 829.0 318.5Q816 335 813 358H794Q767 358 725.0 363.0Q683 368 639 384Q619 392 595.0 406.5Q571 421 549.5 438.0Q528 455 512 469Q501 470 467.0 472.0Q433 474 391.0 476.5Q349 479 313 481L294 470L284 403L269 353L254 335L244 282L147 283L164 341L182 362L201 409L225 520Q232 532 242.0 546.0Q252 560 258 563Q261 564 264.5 565.0Q268 566 272 567Q265 569 258.5 570.5Q252 572 248 573L228 566L201 505L176 458L161 442L140 396L49 404L74 466L96 483L123 525L169 629Q178 639 190.5 650.5Q203 662 210 664Q220 666 238.0 664.0Q256 662 269 660L403 635Q398 658 394.0 681.0Q390 704 384 728L374 750L366 735Q362 726 353.5 717.5Q345 709 334 709Q320 709 313.5 718.5Q307 728 307 735Q307 751 316.0 766.0Q325 781 334 797L291 816Q286 816 265.0 815.0Q244 814 227 812L204 828Q200 829 189.5 832.5Q179 836 171 839L182 884Q200 900 221.0 918.0Q242 936 260.0 950.5Q278 965 286 969Q292 974 302.0 978.5Q312 983 325 987Q337 1013 346.5 1033.5Q356 1054 357 1085L378 1076Q396 1034 396 1008Q396 1004 396.0 1001.0Q396 998 395 994Q406 993 415.5 992.0Q425 991 435 983Q443 994 453.0 1008.5Q463 1023 470 1039L491 1028Q493 1016 494.5 1005.0Q496 994 496 983Q496 955 486 932Q496 916 510.5 883.0Q525 850 546.5 811.5Q568 773 599.0 737.5Q630 702 673 679Q718 655 754.0 645.0Q790 635 824 626Q860 617 899.0 609.0Q938 601 976.0 585.0Q1014 569 1046 536Q1051 537 1069.0 544.5Q1087 552 1094 566Q1103 585 1108.0 603.0Q1113 621 1113 638V649Q1133 633 1143.5 610.0Q1154 587 1154 563Q1154 532 1138.5 511.0Q1123 490 1103.0 478.0Q1083 466 1069 460Q1055 455 1048.0 446.5Q1041 438 1031 417L1048 358L1121 260Q1120 235 1119.5 204.5Q1119 174 1119 166Q1119 161 1120.5 141.0Q1122 121 1124.0 98.0Q1126 75 1127 61L1122 48L1118 37L1112 0H1016L1028 46L1049 75L1040 242Q1038 244 1033.0 249.0Q1028 254 1022 260L1037 230Q1035 212 1032.5 189.5Q1030 167 1031 158Q1032 148 1031.5 122.0Q1031 96 1030 75L1007 50L996 39L992 0ZM352 995Q357 996 363.0 996.5Q369 997 375 997Q376 1000 376 1008Q376 1016 375.0 1024.0Q374 1032 371 1042Q367 1031 362.5 1019.0Q358 1007 352 996ZM985 55 995 67 1009 83Q1011 102 1012.0 125.0Q1013 148 1012 156Q1011 165 1013.0 187.5Q1015 210 1017 228L976 309L983 350L1019 438Q1024 452 1035.0 464.0Q1046 476 1065 482Q1079 487 1096.5 499.0Q1114 511 1126 534Q1131 542 1132.5 551.0Q1134 560 1134 568Q1134 587 1127 600Q1126 592 1122.0 581.0Q1118 570 1111 558Q1105 545 1091.0 536.5Q1077 528 1062.0 523.5Q1047 519 1039 519Q1035 519 1034 520Q1016 543 978.5 559.0Q941 575 898.0 586.5Q855 598 819 607Q785 616 748.5 626.5Q712 637 664 661Q618 685 584.5 722.0Q551 759 529.0 797.5Q507 836 494.0 866.5Q481 897 475 908Q472 903 469.0 897.5Q466 892 462 887L446 898Q470 932 476 975Q471 960 461.0 945.5Q451 931 440 918L432 928Q444 942 454.0 960.0Q464 978 469 997Q459 984 446.5 968.0Q434 952 420 941L408 957Q412 959 415.0 962.5Q418 966 422 969Q415 973 406.0 976.0Q397 979 389 979Q361 979 334.0 969.0Q307 959 296 952Q287 947 270.0 934.0Q253 921 234.0 904.5Q215 888 199 874L194 852L205 848Q216 852 230.5 855.5Q245 859 257 860L259 844Q252 843 242.5 841.0Q233 839 225 837L233 831Q241 832 260.5 832.5Q280 833 296 834L361 808L400 743Q405 732 408.5 708.0Q412 684 418.0 655.0Q424 626 433 601Q440 609 445.5 617.5Q451 626 455 632L471 622Q465 611 452.5 594.5Q440 578 423.5 565.0Q407 552 387 550L316 551Q304 551 289.0 549.5Q274 548 267 545Q263 544 255.5 532.5Q248 521 242 510L222 403L201 354L191 343L237 340L255 364L267 408L277 482L309 500L516 489L560 517L571 500L534 477Q546 467 564.5 452.0Q583 437 604.5 423.5Q626 410 646 402Q688 386 728.5 381.5Q769 377 794 377Q799 377 804.0 377.0Q809 377 813 378Q815 399 822.5 419.0Q830 439 840 455L856 444Q847 430 840.0 410.5Q833 391 833 372Q833 346 848.5 325.5Q864 305 887.5 285.0Q911 265 933 239Q954 214 962.0 191.0Q970 168 968 155L970 105L951 73L941 58ZM367 882 339 889 318 884 306 890 317 912 332 919 375 897ZM221 865 217 880 242 886 245 874ZM333 729Q341 729 349 744L362 771L352 789Q347 779 343.5 773.5Q340 768 334 757Q333 754 330.5 748.0Q328 742 328 737Q328 735 329.0 732.0Q330 729 333 729ZM145 450 165 472 185 513 212 581 248 592 340 570H386Q395 570 403.5 574.5Q412 579 419 585Q416 593 413.5 600.5Q411 608 409 615L265 641Q254 643 238.5 645.0Q223 647 216 645Q212 644 202.0 634.5Q192 625 184 616L143 515L112 471L101 462ZM126 416 135 435 87 448 77 420ZM1059 58 1107 59V60Q1107 62 1106.0 76.5Q1105 91 1103.5 110.0Q1102 129 1101.0 145.5Q1100 162 1100 166Q1100 174 1100.5 202.5Q1101 231 1102 254Q1099 259 1086.5 275.0Q1074 291 1059.0 311.5Q1044 332 1030 349L1019 387L1002 344L997 315L1059 250L1068 69ZM226 301 230 323 184 327 177 302ZM1042 20H1094L1097 42L1048 41ZM923 20H974L976 38L929 39Z" />
  </g>
</svg>