<svg xmlns="http://www.w3.org/2000/svg" viewBox="49 0 1363 913">
  <g transform="translate(0, 913) scale(1, -1)">
    <path fill="black" d="M472 0 501 60 543 102Q582 203 605.5 264.5Q629 326 642.0 358.5Q655 391 660 405Q646 409 623.0 419.5Q600 430 586 449Q577 461 565.5 482.5Q554 504 542.5 528.5Q531 553 523.0 573.0Q515 593 512 601Q509 609 503.0 623.5Q497 638 489 651V637Q489 629 485.0 621.0Q481 613 472 613Q457 613 457 646V674Q449 676 436.0 669.5Q423 663 417 659L410 655V625Q410 611 410.0 595.0Q410 579 396 580Q383 581 381.5 592.5Q380 604 379 620L377 646Q364 648 344.0 661.0Q324 674 324 692Q324 710 342.0 733.0Q360 756 384.0 778.0Q408 800 426 814Q435 822 444.5 829.0Q454 836 464 841Q460 846 455.0 849.5Q450 853 445 853Q438 853 427.5 850.0Q417 847 406 843Q391 838 374.0 833.0Q357 828 341 828Q329 828 316.0 832.0Q303 836 289 840Q276 845 264.5 848.5Q253 852 243 852Q233 852 221.5 849.0Q210 846 197 842Q180 837 162.0 832.5Q144 828 127 828Q105 828 89.0 840.0Q73 852 63.5 867.0Q54 882 49 892L75 913Q83 902 98.5 888.5Q114 875 134 875Q143 875 159.0 879.5Q175 884 191 890Q209 895 226.5 900.5Q244 906 257 906Q268 906 278.5 902.5Q289 899 298 895Q308 891 319.5 887.0Q331 883 344 883Q355 883 366.5 886.5Q378 890 388 894Q402 898 419.0 902.5Q436 907 457 907Q482 907 499.0 894.5Q516 882 525 869Q535 882 552.0 894.5Q569 907 594 907Q615 907 632.5 902.5Q650 898 663 894Q674 890 684.5 886.5Q695 883 707 883Q721 883 732.0 887.0Q743 891 753 895Q762 899 772.5 902.5Q783 906 794 906Q807 906 824.0 900.5Q841 895 860 890Q877 884 892.0 879.5Q907 875 917 875Q937 875 953.0 888.5Q969 902 976 913L1002 892Q997 882 987.5 867.0Q978 852 962.5 840.0Q947 828 924 828Q908 828 889.5 832.5Q871 837 854 842Q841 846 829.0 849.0Q817 852 808 852Q798 852 786.0 848.5Q774 845 762 840Q748 836 735.0 832.0Q722 828 710 828Q694 828 677.0 833.0Q660 838 645 843Q634 847 623.5 850.0Q613 853 606 853Q599 853 591.5 846.0Q584 839 580 834Q585 832 590.0 828.5Q595 825 600 821Q610 814 637.0 796.0Q664 778 697.5 757.5Q731 737 760.5 721.0Q790 705 804 700Q829 692 866.0 689.0Q903 686 941.0 686.0Q979 686 1004 687Q1054 688 1092.0 693.0Q1130 698 1163 698Q1192 698 1219.0 694.5Q1246 691 1265 686Q1286 681 1304.5 662.5Q1323 644 1328 627Q1356 608 1374.0 580.0Q1392 552 1393 502Q1394 472 1388.5 440.0Q1383 408 1380 380Q1378 361 1376.5 345.5Q1375 330 1375 320Q1375 303 1381.0 273.0Q1387 243 1395.5 209.5Q1404 176 1412 149L1384 141Q1376 150 1366.5 168.5Q1357 187 1349.0 207.0Q1341 227 1335 239L1328 156Q1329 153 1329.5 138.5Q1330 124 1331.0 104.5Q1332 85 1333 67L1309 31L1304 0H1212L1242 59Q1247 73 1254.0 93.5Q1261 114 1266.0 131.5Q1271 149 1271 155Q1271 168 1264.0 194.5Q1257 221 1248.0 248.0Q1239 275 1233 290Q1226 273 1212 273Q1207 273 1201.5 276.0Q1196 279 1193 282Q1190 278 1187 276L1169 228Q1156 201 1139.0 168.0Q1122 135 1106.5 104.0Q1091 73 1080 51L1050 21L1047 0H955L985 59V58L1029 105L1156 417L1154 422Q1141 418 1126.5 413.0Q1112 408 1097 403L1017 356L1007 374L1027 385Q1014 382 1002.0 380.5Q990 379 977 378Q934 375 889.5 380.5Q845 386 803 393L802 356L875 102L835 35L828 0H744L771 56L803 114Q803 116 802.5 129.0Q802 142 801 153Q800 160 789.0 185.5Q778 211 762.5 244.0Q747 277 732 307Q727 297 716.5 280.5Q706 264 694.5 247.5Q683 231 675 219Q661 203 648.0 180.5Q635 158 628 142L594 56L563 28L559 0ZM562 843Q567 849 579.0 861.0Q591 873 606 873Q615 873 626.5 869.5Q638 866 651 861Q665 856 680.5 852.0Q696 848 710 848Q719 848 731.5 851.5Q744 855 756 859Q769 864 782.5 868.0Q796 872 808 872Q818 872 831.0 868.5Q844 865 859 860Q876 856 892.5 852.0Q909 848 924 848Q951 848 964.5 863.0Q978 878 982 888L978 893Q969 880 954.0 868.5Q939 857 917 857Q907 857 889.0 861.0Q871 865 854 871Q837 877 821.0 882.0Q805 887 794 887Q785 887 777.0 884.0Q769 881 761 877Q750 873 737.0 868.5Q724 864 707 864Q692 864 680.0 867.5Q668 871 656 875Q643 880 628.5 884.0Q614 888 594 888Q572 888 557.5 875.0Q543 862 537 852V851H536V850Q543 849 549.5 847.0Q556 845 562 843ZM127 848Q142 848 158.5 852.0Q175 856 191 860Q206 865 219.5 868.5Q233 872 243 872Q255 872 268.5 868.0Q282 864 295 859Q307 855 319.5 851.5Q332 848 341 848Q355 848 370.0 852.0Q385 856 400 861Q413 866 424.5 869.5Q436 873 445 873Q457 873 467.5 865.0Q478 857 483 849Q489 851 495.0 852.0Q501 853 507 853H514Q507 863 493.0 875.5Q479 888 457 888Q438 888 423.5 884.0Q409 880 395 875Q383 871 371.0 867.5Q359 864 344 864Q328 864 314.5 868.5Q301 873 290 877Q282 881 274.0 884.0Q266 887 257 887Q247 887 230.5 882.0Q214 877 197 871Q179 865 161.5 861.0Q144 857 133 857Q111 857 96.0 868.5Q81 880 73 893L69 888Q74 878 86.5 863.0Q99 848 127 848ZM1297 36 1313 72Q1313 79 1312.0 106.5Q1311 134 1309 157L1318 277L1288 368L1289 396Q1300 439 1312.0 489.0Q1324 539 1319 587Q1332 581 1341.0 565.5Q1350 550 1355.0 532.0Q1360 514 1358 500Q1356 471 1350.5 435.0Q1345 399 1340.5 365.0Q1336 331 1337 307Q1338 287 1347.5 256.5Q1357 226 1369.5 198.5Q1382 171 1391 159Q1388 169 1382.5 190.0Q1377 211 1371.0 236.5Q1365 262 1361.0 284.5Q1357 307 1357 320Q1357 331 1358.5 347.0Q1360 363 1362 382Q1365 409 1370.5 441.5Q1376 474 1375 502Q1375 534 1358.5 567.5Q1342 601 1313 611Q1308 629 1295.5 645.0Q1283 661 1260 667Q1242 672 1217.5 675.5Q1193 679 1163 679Q1127 679 1089.5 674.0Q1052 669 1005 667Q955 667 900.5 666.0Q846 665 798 681Q783 686 756.0 701.0Q729 716 697.5 735.0Q666 754 638.5 772.0Q611 790 596 800Q594 778 585.5 754.5Q577 731 563.5 715.0Q550 699 531 699Q523 699 514.0 709.0Q505 719 505 741Q505 762 521.0 786.5Q537 811 550 827Q532 833 507 833Q488 833 472.5 823.0Q457 813 439 799Q423 787 400.5 767.5Q378 748 361.0 728.0Q344 708 344 692Q344 684 354 676L380 691L398 695L400 685L386 678L370 667Q379 664 384 664Q386 664 393.0 668.0Q400 672 408 676Q422 684 436.5 691.0Q451 698 462 698Q478 698 492.0 680.0Q506 662 516.5 640.0Q527 618 530 607Q533 599 541.0 580.0Q549 561 560.0 537.5Q571 514 582.0 493.0Q593 472 602 460Q613 444 632.5 435.5Q652 427 664 423Q648 446 633.5 473.5Q619 501 616 523L635 525Q639 504 653.5 476.5Q668 449 687.5 422.0Q707 395 724 375L820 167L822 110L788 54L819 41L855 106L783 358L785 403Q776 420 765.5 441.5Q755 463 747.5 484.0Q740 505 739 519L758 523Q760 508 767.5 487.0Q775 466 784.0 446.0Q793 426 798 414Q827 409 874.0 403.0Q921 397 966 397Q990 397 1018.5 402.5Q1047 408 1074.0 415.5Q1101 423 1122.0 430.0Q1143 437 1150 440Q1143 457 1125.5 483.0Q1108 509 1091 533L1112 537Q1141 498 1161.5 467.5Q1182 437 1201.5 402.0Q1221 367 1246 312Q1257 290 1268.0 256.5Q1279 223 1286.0 192.5Q1293 162 1291 148Q1290 138 1283.0 116.5Q1276 95 1269.5 75.5Q1263 56 1261 51ZM531 718Q546 718 556.0 735.5Q566 753 571.5 775.5Q577 798 578 813L568 818Q557 803 541.0 780.5Q525 758 525 741Q525 718 531 718ZM453 766V786L461 796H500V783L478 777L464 766ZM368 693 356 705 376 722 384 712ZM1321 330Q1326 379 1332.0 418.0Q1338 457 1341 499Q1342 506 1340.5 515.5Q1339 525 1337 533Q1335 516 1330.0 491.0Q1325 466 1319.0 440.0Q1313 414 1308 394L1307 368ZM1042 36 1063 62Q1074 84 1088.5 114.0Q1103 144 1119.5 176.0Q1136 208 1149 233L1164 273Q1154 278 1152.5 290.0Q1151 302 1151 315Q1151 334 1156.5 353.0Q1162 372 1168.0 386.0Q1174 400 1175 403Q1174 404 1173.5 405.0Q1173 406 1172 407L1045 95L1006 50ZM550 40 577 68 610 147Q618 166 631.5 191.0Q645 216 658 229Q673 252 690.5 278.5Q708 305 721 330Q714 344 708.0 356.5Q702 369 699 376Q697 379 692.0 385.0Q687 391 682 398L560 92L522 51ZM1177 290Q1182 290 1186.5 295.0Q1191 300 1191 321H1202Q1201 312 1203.0 302.0Q1205 292 1212 292Q1216 292 1218.5 300.5Q1221 309 1222 316Q1216 328 1207.5 344.5Q1199 361 1187 382Q1182 370 1176.0 351.5Q1170 333 1170 315Q1170 307 1172.0 298.5Q1174 290 1177 290ZM504 20H543V26L512 34ZM775 20H814V26L783 34ZM989 20H1028V26L997 34ZM1246 20H1285V24L1254 34Z" />
  </g>
</svg>