<svg xmlns="http://www.w3.org/2000/svg" viewBox="49 -1 919 1070">
  <g transform="translate(0, 1068) scale(1, -1)">
    <path fill="black" d="M100 -1Q98 16 101.5 34.5Q105 53 116.5 65.5Q128 78 149 78Q156 78 163.0 77.5Q170 77 177 74L196 92Q200 100 206.0 133.0Q212 166 219.0 209.0Q226 252 231 289Q227 294 212.5 314.0Q198 334 184.5 361.5Q171 389 171 416Q171 430 177.5 456.0Q184 482 192 511Q201 544 208.5 577.0Q216 610 216 632Q216 673 204.0 697.5Q192 722 176.5 733.0Q161 744 150 744H104L70 778L74 800Q71 803 66.0 807.0Q61 811 57 814L49 871L181 962H185Q189 1005 198.5 1035.0Q208 1065 227 1069Q238 1068 248.0 1050.5Q258 1033 265 1007Q274 1027 285.0 1039.0Q296 1051 307 1051Q318 1051 324.5 1033.0Q331 1015 334.0 989.0Q337 963 337 938V925Q339 922 341.0 919.0Q343 916 344 914Q348 907 355.5 884.5Q363 862 372.5 834.0Q382 806 389 782L392 771Q397 752 405.0 729.0Q413 706 431 695Q439 690 457.0 684.0Q475 678 497 671Q529 661 566.5 647.5Q604 634 632 617Q661 598 688.5 573.5Q716 549 740 520Q778 542 818.5 553.5Q859 565 902 565Q936 565 952.0 559.0Q968 553 968 532Q968 513 948.0 507.0Q928 501 899 500Q865 498 832.5 489.5Q800 481 774 467Q812 405 834.0 328.5Q856 252 856 167Q856 122 852.5 78.5Q849 35 835 0H461L425 11Q417 5 407 -1H339Q339 11 341.0 30.5Q343 50 354.5 65.5Q366 81 395 81Q414 81 426.0 76.0Q438 71 443 65L599 78Q594 84 579.0 101.0Q564 118 546.5 142.5Q529 167 514.0 194.0Q499 221 494 246Q452 260 408.5 266.0Q365 272 330 273V270H329V256Q320 235 309.0 209.5Q298 184 288.5 161.5Q279 139 274 127Q270 116 263.0 95.0Q256 74 248.0 51.5Q240 29 234 10L203 8L187 -1ZM204 963 249 965Q250 967 250.5 969.0Q251 971 252 974Q248 1002 242.0 1023.5Q236 1045 229 1045Q219 1045 213.0 1022.0Q207 999 204 963ZM119 18H182L198 27H223Q226 37 232.0 57.5Q238 78 245.0 99.5Q252 121 256 134Q260 146 269.5 167.5Q279 189 290.0 214.0Q301 239 310 259V335H330V292Q366 291 408.5 285.5Q451 280 492 268Q493 291 504.5 320.5Q516 350 542.0 372.5Q568 395 611 396Q632 429 660.0 458.0Q688 487 722 509Q700 537 675.0 559.5Q650 582 622 600Q594 618 558.5 630.5Q523 643 491 652Q468 660 449.5 666.0Q431 672 420 678Q398 692 388.0 718.0Q378 744 373 766L369 780V779Q361 803 350.0 837.0Q339 871 332 891Q331 893 329.0 898.0Q327 903 325 906Q323 901 319.5 896.0Q316 891 313 887L301 895Q307 903 312.0 913.0Q317 923 318 942Q319 960 317.5 981.0Q316 1002 313.0 1017.0Q310 1032 305 1032Q295 1032 286.0 1012.5Q277 993 268 964Q267 960 264.0 949.5Q261 939 257 920L238 924Q240 929 241.0 934.5Q242 940 243 945Q228 945 212.0 944.5Q196 944 187 943Q182 940 162.0 926.5Q142 913 116.5 896.0Q91 879 68 864L75 823L89 809H134V790H91L89 783L110 763H150Q165 763 185.0 750.0Q205 737 220.5 708.5Q236 680 236 632Q236 610 227.5 574.5Q219 539 210 506Q203 478 197.0 454.0Q191 430 191 416Q191 394 202.0 371.0Q213 348 226 329Q224 346 222.0 366.0Q220 386 220 407Q220 445 235.5 475.5Q251 506 264 525L280 515Q267 496 253.0 467.5Q239 439 239 407Q239 380 243.0 347.5Q247 315 251 295Q247 264 241.5 229.5Q236 195 230.5 163.5Q225 132 220.5 110.5Q216 89 213 83L181 53H175Q173 55 168.5 57.0Q164 59 154 59Q138 59 130.5 51.0Q123 43 121.0 33.0Q119 23 119 18ZM207 859Q188 859 179.0 865.5Q170 872 165 878Q167 883 176.5 892.5Q186 902 201 902Q218 902 228.0 893.5Q238 885 249 876Q242 871 230.5 865.0Q219 859 207 859ZM207 872Q217 872 225 878Q220 883 216.0 886.5Q212 890 205 890Q198 890 194.0 886.0Q190 882 189 878Q191 877 195.0 874.5Q199 872 207 872ZM103 840Q99 840 92.5 842.0Q86 844 81 845V854Q83 856 89.0 861.0Q95 866 103 866Q123 866 123 853Q123 840 103 840ZM711 19H756Q699 63 657.5 119.0Q616 175 616 251Q616 331 657.5 388.5Q699 446 757 479Q796 502 832.0 509.5Q868 517 899 519Q920 521 934.5 524.0Q949 527 949 532Q949 542 937.5 544.0Q926 546 902 546Q847 546 791.5 523.5Q736 501 690.0 460.5Q644 420 616.0 366.5Q588 313 588 251Q588 208 607.5 163.0Q627 118 656.0 80.0Q685 42 711 19ZM789 19 822 20Q831 47 834.0 87.0Q837 127 837 167Q837 250 816.0 323.5Q795 397 759 458Q715 428 682 385Q705 378 719.0 367.0Q733 356 739 348L724 336Q719 343 706.0 352.5Q693 362 671 369Q636 313 636 251Q636 200 657.5 158.0Q679 116 714.0 82.0Q749 48 789 19ZM358 18H402Q405 20 411.0 24.0Q417 28 421 31L463 19H682Q656 46 630.0 84.0Q604 122 586.5 165.5Q569 209 569 251Q569 316 600 375Q565 371 545.0 349.0Q525 327 517.5 301.0Q510 275 512 257Q517 232 535.5 199.5Q554 167 578.0 135.5Q602 104 623 83L617 60Q597 58 565.0 55.0Q533 52 499.0 49.0Q465 46 438 44Q434 50 422.5 56.0Q411 62 395 62Q379 62 371.0 52.5Q363 43 360.5 32.5Q358 22 358 18Z" />
  </g>
</svg>