<svg xmlns="http://www.w3.org/2000/svg" viewBox="49 0 1118 955">
  <g transform="translate(0, 955) scale(1, -1)">
    <path fill="black" d="M121 0V58H178Q187 84 202.0 127.5Q217 171 235.0 223.0Q253 275 271.0 326.5Q289 378 304.5 421.5Q320 465 329.5 491.5Q339 518 339 518L222 763L49 779V815L207 860L246 946H255L258 906L292 955H300L297 817L373 676Q387 651 420.0 640.5Q453 630 485 630Q526 630 557.0 633.5Q588 637 622 641Q661 646 704.0 651.5Q747 657 786.5 660.5Q826 664 851 664Q899 664 942.0 654.0Q985 644 1003 638Q1012 641 1029.0 648.5Q1046 656 1059.5 668.5Q1073 681 1073 698Q1073 716 1059.5 727.5Q1046 739 1011 739Q1004 739 1000.0 743.5Q996 748 996 753Q996 758 999.5 762.5Q1003 767 1010 767Q1054 767 1078.0 751.5Q1102 736 1102 698Q1102 672 1086.0 655.0Q1070 638 1051.0 629.5Q1032 621 1023 618Q1034 602 1046.5 577.5Q1059 553 1061 532Q1063 513 1068.5 480.5Q1074 448 1083.5 417.0Q1093 386 1104 370Q1118 353 1136.0 331.5Q1154 310 1167 296L1119 0H1023V58H1072L1095 280Q1066 312 1035.5 345.5Q1005 379 985 420Q981 427 978.0 434.5Q975 442 970 449Q966 430 962.5 407.5Q959 385 959 367Q959 345 964.5 316.0Q970 287 976 274Q963 260 941.5 221.0Q920 182 894.0 125.5Q868 69 838 0H749V58H805Q819 94 836.5 134.5Q854 175 869.5 209.5Q885 244 892 259Q885 280 875.0 315.5Q865 351 854.5 391.0Q844 431 835.5 467.0Q827 503 823 525Q798 522 758.5 515.5Q719 509 672.5 500.5Q626 492 579.5 482.5Q533 473 495 465Q500 451 511.0 417.0Q522 383 536.0 343.5Q550 304 561 271L578 0H468V58H514Q513 91 511.0 129.0Q509 167 506.5 199.0Q504 231 500 244Q497 257 483.0 281.0Q469 305 451.0 332.0Q433 359 416.5 382.0Q400 405 391 417Q378 393 357.0 347.5Q336 302 310.5 244.0Q285 186 259.5 122.5Q234 59 211 0ZM226 863 229 864 244 885V909ZM487 20H557L542 268Q540 274 532.5 296.5Q525 319 514.5 350.0Q504 381 492.5 415.5Q481 450 470 480Q519 491 576.0 502.5Q633 514 687.5 524.0Q742 534 784.5 540.0Q827 546 846 546Q892 546 922.5 529.0Q953 512 972.5 485.5Q992 459 1005 429Q1023 387 1054.5 354.5Q1086 322 1116 288L1087 38H1042V20H1104L1147 290Q1136 301 1119.5 320.5Q1103 340 1089 358Q1076 377 1066.0 410.0Q1056 443 1050.0 476.5Q1044 510 1041 530Q1039 548 1025.5 574.5Q1012 601 1001 619Q993 622 970.0 628.0Q947 634 916.0 639.0Q885 644 851 644Q828 644 789.0 640.5Q750 637 706.5 632.0Q663 627 625 622Q594 618 561.0 614.5Q528 611 485 611Q441 611 406.0 623.5Q371 636 355 666L277 812L280 907L242 852L65 803V794L233 779L400 437Q401 435 412.5 419.5Q424 404 440.5 381.0Q457 358 474.0 332.5Q491 307 503.5 285.0Q516 263 519 249Q523 233 526.0 196.0Q529 159 531.0 116.5Q533 74 534 38H487ZM224 815Q210 815 210 826Q210 835 224 835Q239 835 239 826Q239 815 224 815ZM768 20H828Q847 66 870.5 116.5Q894 167 916.0 210.5Q938 254 953 278Q948 293 944.0 319.5Q940 346 940 367Q940 390 945.5 420.0Q951 450 956 472Q940 494 914.0 510.5Q888 527 846 527H842Q847 503 856.0 465.0Q865 427 876.0 386.0Q887 345 897.0 310.0Q907 275 914 258Q905 241 889.0 207.0Q873 173 853.5 129.0Q834 85 813 38H768ZM140 20H200Q211 51 229.5 96.0Q248 141 269.0 191.0Q290 241 311.0 289.5Q332 338 350.0 376.5Q368 415 379 436L351 493L188 38H140Z" />
  </g>
</svg>