<svg xmlns="http://www.w3.org/2000/svg" viewBox="49 -15 1190 970">
  <g transform="translate(0, 940) scale(1, -1)">
    <path fill="black" d="M1235 -15Q1177 12 1147.0 67.0Q1117 122 1090 201Q1080 230 1069.5 268.0Q1059 306 1048.0 345.5Q1037 385 1025.0 418.0Q1013 451 999 469H996L1037 336Q1039 332 1040.0 327.0Q1041 322 1041 317Q1041 301 1030.0 290.5Q1019 280 993 280H841Q837 279 815.5 276.5Q794 274 770 274Q755 274 732.0 275.5Q709 277 697 279Q696 276 695.0 273.5Q694 271 693 269H599V313Q601 319 615.0 334.5Q629 350 656 350Q671 350 690.5 346.0Q710 342 723 337Q740 339 773.5 345.5Q807 352 854 355Q833 371 810.0 393.5Q787 416 774 434Q758 423 723.0 404.5Q688 386 643.5 372.0Q599 358 552 358H522V337Q522 309 507.5 297.0Q493 285 472.0 282.5Q451 280 433 280H320Q312 280 297.5 279.5Q283 279 266 277Q247 276 228.0 274.5Q209 273 198 273Q187 273 170.0 276.0Q153 279 141 282L132 269H49V320Q56 331 73.0 342.5Q90 354 112 354Q124 354 138.0 350.0Q152 346 160 341Q172 343 208.0 347.5Q244 352 290.0 357.5Q336 363 375 368L371 398Q362 404 339.5 424.0Q317 444 302 472Q296 485 286.0 517.0Q276 549 265.5 588.5Q255 628 247 661Q212 670 176.5 679.5Q141 689 106 697Q83 703 68.0 715.0Q53 727 53 743V770L140 773Q151 787 169.0 800.5Q187 814 206.0 823.5Q225 833 236 834Q245 859 247.5 890.0Q250 921 250 955H273Q280 944 289.5 924.5Q299 905 303 887Q309 919 309 955H332Q341 939 350.0 913.5Q359 888 359 866Q359 853 354.5 835.5Q350 818 342 803Q356 784 368.0 760.0Q380 736 390 715Q393 709 396.0 701.0Q399 693 402 685Q413 656 427.5 626.0Q442 596 458 590Q483 583 512.5 581.0Q542 579 566 579Q589 579 623.0 585.0Q657 591 685 596Q727 604 764.0 609.5Q801 615 836 615Q901 615 954.0 586.0Q1007 557 1047.5 512.5Q1088 468 1117.5 419.0Q1147 370 1165.5 328.0Q1184 286 1192 264Q1215 202 1227.0 140.5Q1239 79 1239 29Q1239 22 1238.0 9.0Q1237 -4 1235 -15ZM256 835H285Q286 840 286.5 846.0Q287 852 287 859Q287 873 281.0 891.5Q275 910 270 921Q269 899 266.0 877.0Q263 855 256 835ZM1219 16V29Q1219 78 1208.0 136.0Q1197 194 1174 257Q1167 276 1150.0 315.5Q1133 355 1105.5 403.0Q1078 451 1038.5 495.0Q999 539 948.5 567.5Q898 596 836 596Q805 596 767.5 590.0Q730 584 688 576Q661 571 626.5 565.5Q592 560 566 560Q541 560 510.0 562.0Q479 564 452 572Q430 581 413.0 613.5Q396 646 383 678Q380 686 377.5 693.0Q375 700 373 707Q363 727 353.0 748.5Q343 770 332 787Q330 784 327.0 781.0Q324 778 322 776L309 792Q322 806 330.5 825.5Q339 845 339 866Q339 878 335.5 893.0Q332 908 328 918Q326 896 322.0 875.0Q318 854 311 835Q303 813 298.0 804.5Q293 796 290 791L273 802Q275 805 277.0 808.5Q279 812 280 815Q234 815 205.5 800.0Q177 785 151 754L73 753V738L143 737V725L94 722Q102 717 111 716L264 677Q272 643 282.0 602.5Q292 562 302.5 528.5Q313 495 320 481Q329 465 343.0 450.5Q357 436 369 425Q368 430 368.0 434.0Q368 438 368 442Q368 462 371.0 483.0Q374 504 380 518L397 510Q393 498 390.5 479.0Q388 460 388 442Q388 432 389.5 416.5Q391 401 396 354L155 321Q149 326 137.5 330.0Q126 334 112 334Q98 334 86.0 327.5Q74 321 68 314V289H79V306H90V289H104V306H115V289H122Q124 293 127.5 297.5Q131 302 132 304Q145 300 164.0 296.5Q183 293 198 293Q209 293 227.0 294.5Q245 296 264 297Q281 298 296.5 299.0Q312 300 320 300H433Q447 300 463.5 301.5Q480 303 491.5 311.0Q503 319 503 337V445H522V378H552Q592 378 633.0 391.0Q674 404 708.5 421.5Q743 439 763 452Q758 463 752.0 484.5Q746 506 746 515H765Q765 508 769.5 490.0Q774 472 779 463Q785 451 799.0 434.5Q813 418 831.0 401.5Q849 385 865.5 372.0Q882 359 892 355L889 338Q829 338 788.0 330.0Q747 322 718 317Q707 322 689.0 326.0Q671 330 656 330Q642 330 632.0 322.5Q622 315 618 308V289H631V306H642V289H656V306H667V289H679Q683 297 685 303Q706 297 728.0 295.5Q750 294 770 294Q788 294 808.0 296.0Q828 298 839 299H993Q1021 299 1021 317Q1021 324 1018 331L978 458Q978 470 980.5 485.5Q983 501 988 506Q1014 481 1031.5 444.0Q1049 407 1061.5 365.5Q1074 324 1085.0 283.0Q1096 242 1108 208Q1134 133 1157.0 85.5Q1180 38 1219 16ZM232 766Q218 766 218 776Q218 786 232 786Q247 786 247 776Q247 766 232 766Z" />
  </g>
</svg>