<svg xmlns="http://www.w3.org/2000/svg" viewBox="49 0 1228 983">
  <g transform="translate(0, 983) scale(1, -1)">
    <path fill="black" d="M172 0V42L266 101L324 456Q317 469 310.0 479.5Q303 490 298 500Q291 513 281.0 545.5Q271 578 261.0 617.5Q251 657 243 690Q208 699 172.5 708.0Q137 717 102 726Q78 732 63.5 743.5Q49 755 49 771V799L135 802Q146 816 164.0 829.5Q182 843 201.0 852.5Q220 862 232 863Q240 888 243.0 918.5Q246 949 246 983H269Q276 972 285.5 953.0Q295 934 299 916Q301 932 303.0 949.0Q305 966 305 983H328Q336 967 345.0 942.0Q354 917 354 895Q354 863 337 832Q351 813 363.5 789.0Q376 765 386 744Q392 730 397 714Q405 694 414.0 667.0Q423 640 433.0 619.0Q443 598 454 594Q478 586 507.5 584.5Q537 583 562 583Q585 583 618.5 588.5Q652 594 680 599Q722 607 759.0 613.0Q796 619 832 619Q897 619 952.5 590.5Q1008 562 1053.0 518.0Q1098 474 1132.0 426.0Q1166 378 1187.0 337.5Q1208 297 1216 277Q1240 215 1258.5 156.0Q1277 97 1277 47Q1277 40 1276.0 27.0Q1275 14 1273 3Q1215 30 1178.0 82.5Q1141 135 1113 214Q1103 243 1091.0 279.0Q1079 315 1065.5 351.0Q1052 387 1038.0 417.5Q1024 448 1010 466H1007Q1012 436 1024.5 395.0Q1037 354 1055.0 313.0Q1073 272 1093 242Q1093 221 1092.0 192.0Q1091 163 1089.0 133.5Q1087 104 1083 81L1081 35L1028 0H951V42L1019 93Q1020 98 1020.0 103.5Q1020 109 1020 113Q1020 139 1016.5 174.5Q1013 210 1010 235Q1007 238 1004.5 241.0Q1002 244 999 246L1002 227L938 81L920 41L861 0H783V42L871 96L906 234V255Q885 281 861.0 313.5Q837 346 818 383Q801 399 789.0 413.5Q777 428 770 438Q754 427 718.5 409.0Q683 391 638.5 377.0Q594 363 547 362L511 361L532 323L537 256Q536 234 537.0 211.0Q538 188 538 167Q539 157 541.0 138.0Q543 119 545.5 103.5Q548 88 548 86L547 36L491 0H414V42L476 88Q474 99 468.0 125.0Q462 151 454.0 181.0Q446 211 438 233Q431 255 423.5 276.5Q416 298 406 317L404 304Q394 279 381.5 249.0Q369 219 359.5 194.0Q350 169 347 157Q341 136 335.0 108.5Q329 81 316 47L250 0ZM252 866H281Q282 871 282.5 877.0Q283 883 283 890Q283 904 277.0 922.5Q271 941 266 952Q265 929 262.0 907.5Q259 886 252 866ZM431 19H442V36H454V19H468V36H479V19H485L529 47V86Q528 91 526.0 106.0Q524 121 522.0 137.5Q520 154 519 165Q518 188 517.5 211.0Q517 234 518 256Q518 258 517.0 270.0Q516 282 515.5 297.0Q515 312 513 322L452 422L471 423L501 380L547 381Q588 382 629.0 395.0Q670 408 704.5 425.5Q739 443 759 456Q753 466 747.0 487.5Q741 509 741 519H761Q761 511 765.5 493.5Q770 476 774 467Q790 436 821.5 405.0Q853 374 878 354Q903 336 930.5 319.5Q958 303 984.0 285.0Q1010 267 1028 243Q1032 219 1035.5 181.0Q1039 143 1039 113V83L968 33V19H979V36H991V19H1005V36H1016V19H1022L1063 46L1065 91Q1069 120 1071.0 163.0Q1073 206 1074 236Q1055 268 1038.0 306.5Q1021 345 1008.5 384.0Q996 423 990 456Q990 468 992.0 483.0Q994 498 1000 503Q1034 469 1057.5 420.5Q1081 372 1098.5 319.5Q1116 267 1132 221Q1158 147 1188.0 101.5Q1218 56 1257 34V47Q1257 80 1247.5 119.0Q1238 158 1224.0 198.0Q1210 238 1197 271Q1190 289 1170.0 327.5Q1150 366 1118.5 412.5Q1087 459 1044.0 501.5Q1001 544 947.5 571.5Q894 599 832 599Q801 599 763.0 593.5Q725 588 684 580Q656 575 622.0 569.0Q588 563 562 563Q537 563 505.5 565.0Q474 567 448 575Q433 581 420.5 604.5Q408 628 398.0 657.0Q388 686 379 707Q376 715 373.5 722.0Q371 729 368 736Q359 756 349.0 777.5Q339 799 327 815Q325 813 322.5 810.0Q320 807 317 805L305 821Q318 835 326.5 854.5Q335 874 335 895Q335 907 331.5 922.0Q328 937 323 947Q320 903 306 864Q298 842 293.5 833.5Q289 825 285 820L269 831Q271 834 272.5 837.0Q274 840 275 844Q229 844 201.0 829.0Q173 814 146 783L68 782V771Q68 769 69 767L139 766V753L89 750Q93 749 97.5 747.5Q102 746 107 745L259 706Q267 672 277.0 631.5Q287 591 297.5 557.5Q308 524 315 510Q335 473 353.5 443.5Q372 414 389.5 385.5Q407 357 423.5 322.0Q440 287 457 240Q466 217 474.5 183.0Q483 149 489.5 119.5Q496 90 497 80L431 33ZM228 794Q213 794 213 805Q213 814 228 814Q243 814 243 805Q243 794 228 794ZM189 19H201V36H212V19H226V36H237V19H244L300 59Q312 100 318.0 122.5Q324 145 328 162Q332 174 341.5 199.0Q351 224 362.5 253.5Q374 283 384 307L391 347Q379 370 365.5 391.5Q352 413 340 432L281 90L189 33ZM801 19H812V36H823V19H837V36H849V19H855L904 52L917 81L981 229L977 266Q950 287 919.5 305.0Q889 323 864 343Q878 321 894.0 302.0Q910 283 925 261V231L886 85L801 33Z" />
  </g>
</svg>