<svg xmlns="http://www.w3.org/2000/svg" viewBox="49 0 1105 983">
  <g transform="translate(0, 983) scale(1, -1)">
    <path fill="black" d="M49 0V41L143 100L201 456Q147 544 147 651Q146 708 160.5 757.5Q175 807 206 832Q188 863 188 895Q188 917 197.0 942.0Q206 967 215 983H238Q238 965 240.0 948.0Q242 931 244 915Q249 934 258.0 953.0Q267 972 274 983H297Q297 949 300.0 918.0Q303 887 311 863Q323 862 341.5 852.0Q360 842 379.0 828.5Q398 815 408 801L494 798V771Q494 755 479.5 743.0Q465 731 441 726Q406 717 370.5 707.5Q335 698 300 689Q309 639 325.0 616.5Q341 594 369.0 588.0Q397 582 439 582Q462 582 495.5 588.0Q529 594 557 599Q599 607 636.0 612.5Q673 618 708 618Q773 618 829.0 589.5Q885 561 930.0 517.0Q975 473 1009.0 425.0Q1043 377 1064.0 337.0Q1085 297 1093 277Q1117 215 1135.5 155.5Q1154 96 1154 46Q1154 39 1153.0 26.0Q1152 13 1150 3Q1092 30 1055.0 82.5Q1018 135 990 213Q977 252 960.0 302.0Q943 352 924.5 397.0Q906 442 887 466H884Q889 436 901.5 395.0Q914 354 932.0 313.0Q950 272 970 241Q970 220 969.0 191.0Q968 162 966.0 132.5Q964 103 960 80L958 35L905 0H828V41L896 92V113Q896 138 893.0 173.5Q890 209 887 234L876 246L879 227L815 80L797 41L738 0H660V41L748 95L783 233V255Q762 280 738.0 313.0Q714 346 695 383Q678 399 666.0 413.0Q654 427 646 437Q630 426 595.0 408.5Q560 391 515.5 377.0Q471 363 424 361L388 360L409 323L414 255Q413 233 414.0 210.5Q415 188 415 166Q416 156 418.0 137.5Q420 119 422.5 103.5Q425 88 425 85L424 36L368 0H291V41L353 88Q351 98 345.0 124.0Q339 150 331.0 180.5Q323 211 315 233Q308 255 300.5 276.0Q293 297 283 317L281 303Q271 279 258.5 249.0Q246 219 236.5 193.5Q227 168 224 156Q218 135 212.0 107.5Q206 80 193 47L126 0ZM262 865H291Q284 885 281.5 907.0Q279 929 277 952Q272 941 266.0 922.5Q260 904 260 889Q260 882 260.5 876.0Q261 870 262 865ZM308 18H319V35H331V18H345V35H356V18H362L406 47V85Q405 90 402.5 105.0Q400 120 398.0 137.0Q396 154 396 164Q395 187 394.5 210.0Q394 233 395 256Q395 258 394.0 270.0Q393 282 392.5 297.0Q392 312 390 322L329 422L348 423L378 380L424 381Q465 382 506.0 395.0Q547 408 581.5 425.0Q616 442 636 455Q630 466 624.0 487.5Q618 509 618 518H638Q638 511 642.5 493.0Q647 475 651 466Q667 436 698.5 405.0Q730 374 755 354Q780 335 807.5 319.0Q835 303 861.0 285.0Q887 267 905 242Q909 218 912.5 180.0Q916 142 916 113V83L845 32V18H856V35H868V18H882V35H893V18H899L939 46L942 90Q945 110 946.5 136.5Q948 163 949.5 189.5Q951 216 951 236Q932 267 915.0 305.5Q898 344 885.5 383.5Q873 423 867 455Q867 467 869.0 482.5Q871 498 876 503Q911 469 934.5 420.5Q958 372 975.5 319.0Q993 266 1009 220Q1035 146 1065.0 101.0Q1095 56 1134 33V46Q1134 79 1124.5 118.0Q1115 157 1101.0 197.0Q1087 237 1074 270Q1067 289 1047.0 327.5Q1027 366 995.5 412.5Q964 459 920.5 501.5Q877 544 824.0 571.5Q771 599 708 599Q677 599 639.5 593.0Q602 587 561 579Q533 574 499.0 569.0Q465 564 439 563Q384 561 351.5 572.0Q319 583 302.5 615.0Q286 647 278 704L436 744Q447 747 454 750L404 753V766L474 767Q475 768 475 771V782L396 783Q370 814 342.0 829.0Q314 844 268 844L274 830L258 819Q254 825 249.5 833.0Q245 841 237 863Q223 902 220 946Q216 936 212.0 921.5Q208 907 208 895Q208 874 216.5 854.0Q225 834 238 820L226 805Q223 807 220.5 809.5Q218 812 216 815Q194 793 181.0 755.0Q168 717 167 649Q166 594 179.0 552.5Q192 511 213.0 475.5Q234 440 257 403Q278 369 298.0 329.5Q318 290 334 240Q342 216 350.5 182.0Q359 148 366.0 118.5Q373 89 374 79L308 32ZM315 794Q300 794 300 804Q300 814 315 814Q330 814 330 804Q330 794 315 794ZM66 18H78V35H89V18H103V35H114V18H121L177 58Q189 99 195.0 121.5Q201 144 205 161Q209 173 218.5 198.0Q228 223 239.5 253.0Q251 283 261 307L268 346Q255 369 242.0 391.0Q229 413 217 432L158 90L66 32ZM678 18H689V35H700V18H714V35H726V18H732L781 52L794 81L858 229L854 266Q827 287 796.5 305.0Q766 323 741 342Q755 320 771.0 301.5Q787 283 802 261V231L763 84L678 32Z" />
  </g>
</svg>