<svg xmlns="http://www.w3.org/2000/svg" viewBox="49 -122 1033 1121">
  <g transform="translate(0, 877) scale(1, -1)">
    <path fill="black" d="M252 -122V-72L333 -34Q340 -8 345.5 35.0Q351 78 355.5 129.0Q360 180 364.0 230.0Q368 280 371.0 321.0Q374 362 376 385Q368 405 356.0 435.5Q344 466 336 488Q334 495 332.0 504.0Q330 513 328 524Q323 547 315.5 575.0Q308 603 294 622Q284 639 265.5 644.5Q247 650 231 650Q215 650 199.5 644.5Q184 639 168 632Q158 628 144.5 623.0Q131 618 123 618Q113 618 107.0 620.0Q101 622 96 625Q92 622 87.5 617.5Q83 613 81 611L49 639Q81 678 115.0 710.0Q149 742 180 761Q200 773 209.5 783.5Q219 794 229.0 803.0Q239 812 258 820Q266 824 287.0 828.0Q308 832 324 833L384 999L454 977L430 923Q444 938 455.5 951.5Q467 965 473 972L531 920L436 827Q429 820 423.0 813.5Q417 807 417 800Q417 791 435.5 764.0Q454 737 480.0 701.5Q506 666 531.0 631.0Q556 596 569 570Q586 551 623.5 528.0Q661 505 705.0 482.0Q749 459 784 441L827 420Q858 405 888.0 374.0Q918 343 941.5 302.0Q965 261 978 214Q980 246 979.5 292.0Q979 338 977.5 389.5Q976 441 974.0 491.0Q972 541 970.5 581.5Q969 622 968 644L1014 700H1037L1082 648Q1077 582 1069.0 495.0Q1061 408 1051.0 313.5Q1041 219 1029.0 128.5Q1017 38 1002 -34Q995 -66 966.5 -91.0Q938 -116 902 -116H689Q675 -116 652.0 -114.5Q629 -113 617 -111Q616 -117 613 -122H519V-77Q521 -71 535.0 -56.0Q549 -41 576 -41Q591 -41 608.5 -44.0Q626 -47 637 -50L817 -20Q799 1 776.0 24.5Q753 48 733.0 77.5Q713 107 701 146Q691 160 665.0 176.5Q639 193 616 201Q602 207 580.0 212.5Q558 218 538.0 222.5Q518 227 509 229Q490 189 471.5 148.5Q453 108 436 66L400 -93L340 -122ZM349 843Q370 860 396 887L430 965L396 975ZM270 -103H281V-86H292V-103H307V-86H318V-103H335L383 -82L417 73Q424 90 438.0 122.5Q452 155 469.5 192.0Q487 229 504.0 261.5Q521 294 533 311L549 304Q541 290 533.5 277.0Q526 264 518 247Q532 244 552.0 239.5Q572 235 591.5 230.0Q611 225 623 220Q646 211 667.0 198.0Q688 185 702 172Q704 206 715.5 233.5Q727 261 742 276L756 262Q743 249 732.5 223.0Q722 197 722 164Q722 138 737.0 111.0Q752 84 774.0 58.5Q796 33 818.5 10.0Q841 -13 856 -33Q820 -40 779.0 -46.5Q738 -53 700.5 -58.5Q663 -64 637 -68Q626 -66 608.5 -63.5Q591 -61 576 -61Q562 -61 552.0 -68.5Q542 -76 538 -83V-102H551V-85H562V-102H576V-85H587V-102H599Q604 -93 605 -87Q626 -93 648.0 -95.0Q670 -97 689 -97H902Q931 -97 955.0 -76.0Q979 -55 983 -29Q994 22 1003.5 90.5Q1013 159 1022.5 235.5Q1032 312 1039.5 387.5Q1047 463 1053.0 529.0Q1059 595 1063 642L1049 657L1042 530L1030 531L1038 670L1028 681L1022 682L1012 669L1020 531L1007 530L1000 653L988 637Q992 585 995.0 518.0Q998 451 999.0 379.5Q1000 308 998.5 242.0Q997 176 992 126L972 127Q971 168 957.5 211.0Q944 254 922.0 292.0Q900 330 873.0 359.0Q846 388 818 402L775 424Q740 442 695.0 465.0Q650 488 611.0 513.0Q572 538 554 559Q544 580 525.5 608.0Q507 636 485.0 666.0Q463 696 443.0 723.5Q423 751 410.5 771.0Q398 791 398 799Q398 816 404.5 823.5Q411 831 425 844L503 920Q496 926 489.5 931.5Q483 937 475 944Q465 932 442.0 907.0Q419 882 393.0 856.5Q367 831 347 817Q335 816 318.5 813.0Q302 810 287.0 807.0Q272 804 266 801Q245 793 237.0 784.5Q229 776 220.5 767.0Q212 758 189 745Q163 732 139.5 710.5Q116 689 98.5 669.0Q81 649 73 640L81 633Q97 649 115.0 662.0Q133 675 154 688L162 676Q152 671 135.0 659.0Q118 647 109 639Q112 636 118 636Q129 636 140.0 640.5Q151 645 162 649Q179 657 195.5 663.0Q212 669 231 669Q250 669 273.5 661.0Q297 653 311 633Q325 611 333.5 581.5Q342 552 347 528Q351 508 355 495Q361 478 369.0 456.5Q377 435 384 418Q396 470 418 508L435 499Q422 477 411.0 445.0Q400 413 395 376Q393 360 390.5 319.5Q388 279 384.0 221.5Q380 164 372.5 96.5Q365 29 353 -42L270 -81ZM259 734Q252 734 246.5 736.5Q241 739 238 741Q240 748 248.0 757.0Q256 766 270 766Q287 766 294 760Q290 750 280.5 742.0Q271 734 259 734Z" />
  </g>
</svg>