<svg xmlns="http://www.w3.org/2000/svg" viewBox="49 -127 1069 1127">
  <g transform="translate(0, 873) scale(1, -1)">
    <path fill="black" d="M583 -127Q440 -127 335.0 -87.0Q230 -47 159.5 17.5Q89 82 49 156H287V184L349 213Q355 238 360.0 281.5Q365 325 369.0 374.0Q373 423 376.0 464.5Q379 506 381 528Q375 543 366.0 566.0Q357 589 351 606Q350 611 348.0 618.0Q346 625 345 633Q341 651 335.5 669.5Q330 688 319 703Q311 715 299.5 720.0Q288 725 276 725Q263 725 251.5 720.5Q240 716 229 711Q221 708 210.5 704.0Q200 700 193 700Q180 700 172 705Q170 703 166.5 699.5Q163 696 161 694L137 726Q162 756 188.0 780.5Q214 805 237 818Q253 828 260.0 836.0Q267 844 274.5 851.0Q282 858 296 864Q303 866 316.5 869.5Q330 873 342 874L391 1000L449 982L427 937Q438 948 447.0 958.5Q456 969 460 974L509 935L438 864Q432 859 428.0 853.5Q424 848 424 843Q424 836 438.0 815.5Q452 795 471.5 768.0Q491 741 510.5 714.5Q530 688 540 668Q552 654 579.0 637.5Q606 621 638.0 605.0Q670 589 697 575L729 559Q764 542 795.0 504.0Q826 466 841 414Q843 444 841.5 488.5Q840 533 838.0 580.5Q836 628 834.0 668.0Q832 708 832 729L872 772H889L928 732Q924 682 918.0 615.5Q912 549 904.5 476.0Q897 403 888.0 333.5Q879 264 868 209Q865 198 854.5 183.0Q844 168 830 156H1118Q1079 82 1008.0 17.5Q937 -47 832.0 -87.0Q727 -127 583 -127ZM365 876Q373 883 382.5 891.5Q392 900 401 910L427 969L401 976ZM305 156H314V169H325V156H333V169H344V156H355L392 172L417 290Q422 303 433.0 328.0Q444 353 457.5 381.0Q471 409 483.5 433.5Q496 458 505 471L522 466L499 427Q515 424 538.0 418.0Q561 412 575 407Q610 393 635 371Q636 397 644.5 415.5Q653 434 665 445L680 434Q670 424 662.0 404.5Q654 385 654 359Q654 333 673.0 306.0Q692 279 716.5 254.5Q741 230 756 210Q729 205 697.0 199.5Q665 194 635.5 190.0Q606 186 585 183Q577 185 563.0 186.5Q549 188 538 188Q528 188 520.0 182.5Q512 177 509 172V157H519V170H530V157H538V170H549V157H556Q557 160 558.5 163.0Q560 166 561 168Q577 164 593.0 161.0Q609 158 625 158H786Q808 158 826.5 177.0Q845 196 848 212Q856 251 863.5 303.0Q871 355 878.0 413.5Q885 472 891.0 529.5Q897 587 901.5 637.0Q906 687 909 723L898 734L894 638L884 639L890 745L881 753H878L871 744L876 639L867 638L861 731L852 720Q855 680 857.0 629.0Q859 578 860.0 523.5Q861 469 859.5 419.0Q858 369 854 331L839 332Q839 374 821.5 416.5Q804 459 778.0 493.0Q752 527 723 541L690 557Q663 571 629.0 588.5Q595 606 565.0 625.0Q535 644 521 660Q512 680 493.0 708.0Q474 736 453.0 764.0Q432 792 417.5 814.0Q403 836 403 843Q403 855 408.0 861.0Q413 867 423 877L482 935Q478 940 473.0 943.5Q468 947 461 953Q454 944 436.5 925.0Q419 906 399.5 886.5Q380 867 364 856Q351 855 330.5 851.0Q310 847 302 844Q286 838 280.0 831.5Q274 825 267.5 818.0Q261 811 244 802Q225 792 206.5 776.0Q188 760 175.0 745.5Q162 731 156 724L162 716Q174 728 187.5 738.0Q201 748 217 758L224 748Q217 744 204.0 735.0Q191 726 184 720Q185 719 190 719Q198 719 206.5 722.0Q215 725 223 729Q236 734 248.5 739.0Q261 744 276 744Q290 744 308.0 737.5Q326 731 336 716Q348 700 354.0 677.0Q360 654 364 636Q366 628 367.5 622.0Q369 616 370 611Q375 598 381.0 586.5Q387 575 392 562Q397 582 401.5 595.0Q406 608 414 622L431 614Q421 597 413.0 573.5Q405 550 400 521Q398 505 395.5 456.5Q393 408 387.0 341.0Q381 274 368 203L305 173ZM297 793Q292 793 287.5 795.0Q283 797 281 798Q283 803 289.0 810.5Q295 818 305 818Q317 818 324 813Q320 806 313.5 799.5Q307 793 297 793ZM395 156H495V181Q497 186 507.5 197.0Q518 208 538 208Q549 208 563.0 205.5Q577 203 585 201L717 224Q695 248 671.0 274.5Q647 301 633 346Q626 357 606.0 369.0Q586 381 569 388Q552 394 527.0 400.5Q502 407 492 409Q479 378 464.5 347.5Q450 317 437 285L409 164ZM583 -108Q710 -108 807.0 -74.0Q904 -40 972.0 16.0Q1040 72 1080 137H87Q127 72 195.0 16.0Q263 -40 360.0 -74.0Q457 -108 583 -108Z" />
  </g>
</svg>