<svg xmlns="http://www.w3.org/2000/svg" viewBox="49 0 1180 752">
  <g transform="translate(0, 752) scale(1, -1)">
    <path fill="black" d="M72 0 49 35V58L77 82L141 80L193 76L344 102Q347 110 351.5 126.0Q356 142 361.0 159.0Q366 176 369 187Q364 196 357.5 208.0Q351 220 349 224Q339 244 330.0 278.5Q321 313 311.5 347.5Q302 382 288 402Q279 414 267.5 419.0Q256 424 245 424Q232 424 218.0 419.0Q204 414 192 409Q185 406 174.0 402.0Q163 398 157 398Q149 398 144.5 399.5Q140 401 136 403Q133 401 130.0 398.0Q127 395 125 393L96 434Q121 464 146.0 486.5Q171 509 193 525Q209 536 222.5 550.0Q236 564 257 571Q259 573 264 573L181 667L238 711L330 587H332L423 712L483 665L403 577Q398 571 395.5 566.5Q393 562 393 554Q393 547 405.0 526.0Q417 505 434.5 477.5Q452 450 469.0 423.0Q486 396 497 376Q504 364 518.0 350.0Q532 336 558.5 326.0Q585 316 628 316Q676 316 721.5 324.5Q767 333 812.5 341.0Q858 349 904 349Q934 349 961.0 343.5Q988 338 1015 335Q1032 343 1049.0 364.0Q1066 385 1075 418Q1078 432 1084.5 464.5Q1091 497 1098.0 540.5Q1105 584 1113.0 629.5Q1121 675 1127 715L1173 752H1194L1229 705Q1219 674 1207.5 628.0Q1196 582 1181.0 530.5Q1166 479 1146.0 430.0Q1126 381 1100.5 342.0Q1075 303 1043 283Q1048 266 1053.5 238.0Q1059 210 1064.5 184.5Q1070 159 1075 148Q1077 144 1081.0 137.5Q1085 131 1089 124Q1101 105 1113.0 83.5Q1125 62 1125 47Q1125 26 1114.0 16.0Q1103 6 1091.0 3.0Q1079 0 1075 0L878 6Q871 6 847.5 8.0Q824 10 804 12V0H716V43Q718 48 731.5 60.5Q745 73 765 73Q782 73 799.5 71.5Q817 70 827 68Q850 68 878.5 69.5Q907 71 933.5 73.5Q960 76 977 80Q964 90 942.0 102.0Q920 114 898.5 128.0Q877 142 863 158Q845 153 828.0 147.5Q811 142 794 135Q750 119 705.0 107.0Q660 95 607 95Q567 95 531.0 101.0Q495 107 485 110Q476 99 456.5 72.5Q437 46 425 24L384 3L232 13L150 0ZM81 19H149L231 32L381 22L412 37Q419 49 435.0 73.0Q451 97 475.0 124.0Q499 151 530 169L542 154Q532 149 521.0 140.5Q510 132 503 126Q521 122 549.0 118.0Q577 114 607 114Q654 114 701.0 127.0Q748 140 788 154Q803 159 819.0 164.5Q835 170 851 175Q844 189 841.5 206.5Q839 224 838 240H857Q859 199 871 178Q884 155 908.5 140.0Q933 125 959.5 112.0Q986 99 1005 80V67Q977 62 944.0 58.0Q911 54 880.0 52.5Q849 51 827 50Q818 51 801.0 52.0Q784 53 765 53Q754 53 745.0 46.5Q736 40 731 34V19H747V33H758V19H766V33H777V19H789V30Q811 29 839.0 27.0Q867 25 878 25L1073 20Q1084 20 1094.5 24.5Q1105 29 1105 47Q1105 58 1094.5 77.5Q1084 97 1073 113Q1069 120 1064.5 127.0Q1060 134 1057 139Q1052 152 1045.5 181.0Q1039 210 1032.5 241.5Q1026 273 1021 292Q1057 311 1084.0 348.5Q1111 386 1130.5 434.0Q1150 482 1164.5 532.0Q1179 582 1189.5 626.5Q1200 671 1209 701L1202 710L1173 613L1162 616L1193 722L1184 733Q1183 733 1181.5 733.5Q1180 734 1179 734L1172 728L1153 617H1142L1157 715L1146 705Q1145 698 1140.0 671.0Q1135 644 1128.5 606.0Q1122 568 1114.5 529.0Q1107 490 1101.0 458.5Q1095 427 1092 414Q1082 372 1059.5 348.5Q1037 325 1018 315Q989 319 961.0 324.5Q933 330 904 330Q879 330 842.5 325.0Q806 320 766.0 313.0Q726 306 689.5 301.0Q653 296 628 296Q572 296 541.0 311.0Q510 326 496.0 345.0Q482 364 476 375Q465 396 448.0 423.0Q431 450 414.0 477.0Q397 504 385.5 524.5Q374 545 374 553Q374 566 377.0 573.0Q380 580 390 590L457 665L429 688Q415 668 397.5 643.5Q380 619 363.5 598.5Q347 578 337 568Q319 566 294.5 561.0Q270 556 263 553Q242 544 231.0 532.5Q220 521 203 510Q175 492 149.0 467.0Q123 442 115 432L125 415Q137 427 151.0 436.5Q165 446 180 456L188 446Q180 442 167.0 433.0Q154 424 147 418Q148 417 153 417Q161 417 169.5 420.0Q178 423 186 427Q199 432 214.0 437.5Q229 443 245 443Q259 443 277.0 437.0Q295 431 305 415Q322 390 330.5 358.0Q339 326 346.0 294.0Q353 262 365 236Q367 233 368.5 229.0Q370 225 377 212Q382 228 389.0 250.5Q396 273 400 289L418 284Q414 267 408.0 247.0Q402 227 397.0 210.5Q392 194 390 187Q388 181 382.5 163.5Q377 146 371.0 124.5Q365 103 359 84L194 56L140 61L83 63L71 54L87 55L88 44L68 42V38L69 36L89 37L90 26L77 25ZM284 578 310 583 234 687 208 666ZM255 501Q250 501 246.0 503.0Q242 505 240 506Q242 511 248.0 518.5Q254 526 264 526Q275 526 282 521Q278 514 271.5 507.5Q265 501 255 501Z" />
  </g>
</svg>