<svg xmlns="http://www.w3.org/2000/svg" viewBox="49.23529411764706 0 1127.2885154061626 578">
  <g transform="translate(0, 578) scale(1, -1)">
    <path fill="black" d="M128 0 93 7 73 51 101 83H158L239 260L192 322L170 302L134 300L113 323L110 333H101L55 380Q48 388 49.5 399.0Q51 410 58 417L149 518Q148 538 155.0 558.0Q162 578 182 578Q198 578 205 567Q208 569 214.5 571.5Q221 574 233 574Q250 574 262.5 563.5Q275 553 276 541Q314 533 342.5 503.5Q371 474 382 440Q390 439 417.5 435.5Q445 432 482 432Q502 432 535.0 437.0Q568 442 604 449Q645 457 684.5 463.0Q724 469 755 469Q835 469 888.5 445.5Q942 422 978.5 382.0Q1015 342 1041.0 292.5Q1067 243 1091 192Q1101 173 1108.0 159.0Q1115 145 1119 140H1118Q1124 132 1136 124Q1144 117 1152.0 111.0Q1160 105 1167 94Q1177 80 1176.5 62.5Q1176 45 1168.0 33.0Q1160 21 1145 21Q1119 21 1104.0 34.0Q1089 47 1083 66Q1082 73 1079.5 84.0Q1077 95 1072 107Q1060 135 1043.5 169.5Q1027 204 1012.5 232.5Q998 261 992 271Q986 283 972.0 305.5Q958 328 936.5 347.5Q915 367 886 371Q887 359 889.0 337.0Q891 315 895.0 292.0Q899 269 906.0 250.0Q913 231 925 225Q948 212 976.5 195.5Q1005 179 1022 168L1019 84L1026 47L1011 16H970L931 0L896 7L875 51L904 83H946L945 92L939 126L838 166L833 135L813 80L804 26L758 16L719 0L684 7L664 51L692 83H744L746 95L754 159Q750 164 742.5 172.5Q735 181 730 188Q725 196 716.5 210.5Q708 225 702 235Q676 226 640.0 218.0Q604 210 564.5 205.5Q525 201 488.0 201.0Q451 201 424 208L432 193L434 153L455 47L439 16H399L359 0L325 7L304 51L333 83H375L367 110L336 173Q322 164 308.0 155.5Q294 147 283 137Q270 126 258.0 107.5Q246 89 244 84Q243 81 236.0 68.0Q229 55 221.0 42.0Q213 29 207 25L167 16ZM167 534 190 558Q188 560 184 560Q176 560 171.5 552.5Q167 545 167 534ZM126 21 164 35 195 42Q201 48 209.0 62.0Q217 76 222 86Q230 103 242.0 120.5Q254 138 270 152Q287 167 306.5 178.0Q326 189 345.0 202.0Q364 215 376 235Q383 246 391.5 268.5Q400 291 400 310H420Q420 295 413.5 271.5Q407 248 401 234Q443 219 500.0 220.5Q557 222 616.0 233.0Q675 244 720 259Q711 280 707.0 308.0Q703 336 703 358H722Q723 333 729.0 300.5Q735 268 753 243Q768 222 786.5 209.5Q805 197 821 190Q826 188 848.0 179.5Q870 171 899.5 160.0Q929 149 955 139L965 90L969 70L964 63H913L898 47L899 44L924 56L927 48L903 37L906 30L931 41L934 34L913 23L929 21L966 35H999L1006 48L999 81L1004 158L916 208Q902 216 893.0 236.5Q884 257 878.5 283.5Q873 310 871.0 334.5Q869 359 868 375Q859 380 854.5 386.5Q850 393 845 400L857 408Q865 399 870.0 396.0Q875 393 883 391Q921 384 946.5 362.0Q972 340 988.0 316.0Q1004 292 1010 280Q1015 271 1029.5 241.5Q1044 212 1061.0 176.0Q1078 140 1090 111Q1095 98 1097.5 88.0Q1100 78 1102 72Q1107 55 1119.0 48.0Q1131 41 1142 41Q1153 41 1158.5 56.0Q1164 71 1153 84Q1149 89 1140.5 96.0Q1132 103 1124 109Q1118 114 1112.0 119.0Q1106 124 1103 127Q1095 137 1074 183Q1050 232 1025.5 279.0Q1001 326 967.0 364.5Q933 403 882.0 426.0Q831 449 755 449Q727 449 688.0 443.0Q649 437 608 430Q572 423 538.5 418.0Q505 413 482 413Q451 413 426.5 415.0Q402 417 387 419Q390 398 389 384L373 385Q374 399 370.0 415.0Q366 431 364 436Q351 465 329.0 490.0Q307 515 279 522Q280 518 280.0 512.0Q280 506 280 500Q278 484 272 471L254 479Q257 484 258.0 490.0Q259 496 260 502Q261 511 259.5 523.5Q258 536 252.0 545.5Q246 555 232 555Q216 555 210.5 549.0Q205 543 200 536Q197 535 193.0 533.5Q189 532 187 531L82 415Q84 408 84.5 397.0Q85 386 82 378L110 351L115 350L153 381L163 371L128 337L131 331Q133 328 136.0 324.0Q139 320 141 318L162 321Q167 326 180.5 338.5Q194 351 211.0 367.0Q228 383 242 396L247 412Q246 417 242.0 428.0Q238 439 236 447L254 453L267 412L259 385L207 335L249 279L253 290L271 282L168 63H110L95 47L97 44L121 56L125 48L100 37L104 30L128 41L131 34L110 23ZM162 441Q154 441 149.0 444.5Q144 448 142 452Q144 455 150.0 459.5Q156 464 164 464Q172 464 178.5 460.5Q185 457 187 454Q176 441 162 441ZM717 21 754 35 788 43 796 83 814 136 818 169Q799 177 774.5 196.5Q750 216 730 242L719 239Q723 232 731.0 219.5Q739 207 744 199Q749 190 757.5 180.0Q766 170 771 164L763 94L759 63H701L686 47L688 44L712 56L715 48L691 37L694 30L719 41L722 34L701 23ZM357 21 395 35H427L435 48L414 152L412 190L404 210Q395 212 391 215Q381 202 374.0 197.0Q367 192 353 183L385 113L397 70L391 63H341L327 47L328 44L353 56L356 48L332 37L335 30L359 41L363 34L341 23Z" />
  </g>
</svg>