<svg xmlns="http://www.w3.org/2000/svg" viewBox="49 -4 1262 511">
  <g transform="translate(0, 503) scale(1, -1)">
    <path fill="black" d="M1182 -4Q1157 -4 1135.5 0.0Q1114 4 1104 8L896 12Q892 11 880.0 6.5Q868 2 857 -2L820 17Q816 14 807.5 9.0Q799 4 793 1H761L718 15V66Q696 58 672.0 49.0Q648 40 634 35H581L571 15L539 1L207 5L185 19H170Q162 13 151 2L100 0L68 12L49 58L87 92Q96 96 111.0 98.0Q126 100 136 100Q154 93 179.0 84.5Q204 76 217 76Q258 76 300.5 80.0Q343 84 375.5 90.5Q408 97 416 104Q422 109 427.0 117.0Q432 125 436 134L407 167V226L404 245L341 195L306 196L285 219L282 228H273L216 280Q209 288 210.5 299.0Q212 310 219 317L327 469Q330 475 341.0 491.0Q352 507 368 507Q377 507 382.5 502.5Q388 498 392 493Q398 498 407.5 502.5Q417 507 428 507Q451 507 461.5 496.0Q472 485 473 477Q511 468 537.5 450.0Q564 432 586 400Q589 397 601.5 381.0Q614 365 635.5 346.0Q657 327 685.0 313.0Q713 299 747 299Q780 299 819.5 313.0Q859 327 900 343L957 366Q974 413 1010.5 445.0Q1047 477 1099 477Q1138 477 1172.5 464.5Q1207 452 1233.5 433.5Q1260 415 1275.0 395.5Q1290 376 1290 362Q1290 350 1283.0 342.5Q1276 335 1259 335Q1248 335 1235.5 344.0Q1223 353 1209 366Q1189 384 1162.0 403.0Q1135 422 1100 422Q1078 422 1061.0 412.0Q1044 402 1033 387Q1057 393 1081 393Q1123 393 1164.0 375.0Q1205 357 1238.0 325.5Q1271 294 1291.0 253.5Q1311 213 1311 167Q1311 106 1290.5 68.5Q1270 31 1240.5 13.5Q1211 -4 1182 -4ZM103 19 144 21Q147 24 153.5 30.0Q160 36 164 40L190 37L212 25Q221 25 254.5 24.5Q288 24 335.5 23.0Q383 22 435.5 21.5Q488 21 535 20L556 29L583 96L602 90L587 54H631L750 99Q770 107 800.5 114.0Q831 121 863.5 126.0Q896 131 921 131Q941 131 957.0 129.0Q973 127 985 125Q968 151 955.5 187.5Q943 224 941 260Q938 300 949 342L907 325Q866 309 824.5 294.5Q783 280 747 280Q711 280 676.5 297.5Q642 315 615.0 340.5Q588 366 571 389Q554 415 528.0 434.5Q502 454 476 458Q476 441 472.5 420.5Q469 400 461 383L444 389Q447 394 451.0 410.0Q455 426 456.0 444.0Q457 462 451.0 475.0Q445 488 427 488Q417 488 406.5 481.0Q396 474 390 467L340 455L243 315Q245 308 245.5 297.5Q246 287 243 279L282 247L287 245L339 294L349 284L300 232L303 226L313 214H335L440 299L447 315L444 354H463L467 315L457 289L422 260L425 229V173L443 155L447 168Q452 183 457.5 198.5Q463 214 470 224L485 212Q479 203 474.5 190.0Q470 177 466 163Q459 141 451.0 120.5Q443 100 429 88V89Q419 81 384.0 73.0Q349 65 304.0 60.5Q259 56 217 56Q202 56 176.5 64.5Q151 73 133 81Q126 81 116.0 80.0Q106 79 99 76Q95 73 85.0 66.5Q75 60 71 56L74 50L99 63L104 52L79 40L83 30L109 42L114 32L95 23Q97 22 99.5 21.0Q102 20 103 19ZM353 476 377 481Q373 487 368 487Q360 487 353 476ZM1178 15Q1203 15 1229.0 30.5Q1255 46 1273.5 79.5Q1292 113 1292 167Q1292 209 1274.0 246.0Q1256 283 1225.5 311.5Q1195 340 1157.5 356.5Q1120 373 1081 373Q1052 373 1019 364Q1008 341 1004.0 317.5Q1000 294 1000 279V260Q1008 271 1019.5 279.5Q1031 288 1049 288Q1073 288 1089.0 275.0Q1105 262 1110 250L1093 242Q1089 251 1077.5 260.0Q1066 269 1049 269Q1035 269 1025.5 260.5Q1016 252 1011.0 242.0Q1006 232 1004 227Q1013 184 1033.5 154.5Q1054 125 1079.0 107.5Q1104 90 1127.0 82.5Q1150 75 1163 75Q1188 75 1204.0 79.5Q1220 84 1226 88L1237 72Q1230 67 1210.5 61.0Q1191 55 1163 55Q1147 55 1116.5 66.0Q1086 77 1055.0 102.5Q1024 128 1002.0 171.0Q980 214 980 279Q980 315 993.5 352.5Q1007 390 1033.5 415.5Q1060 441 1100 441Q1139 441 1169.0 420.5Q1199 400 1222 380Q1234 370 1243.5 362.0Q1253 354 1259 354Q1270 354 1270 369Q1270 374 1256.5 388.0Q1243 402 1219.5 418.5Q1196 435 1165.0 446.5Q1134 458 1099 458Q1062 458 1035.0 440.0Q1008 422 990.5 392.0Q973 362 966.0 327.5Q959 293 960 260Q962 219 981.0 176.0Q1000 133 1031.0 96.5Q1062 60 1100.0 37.5Q1138 15 1178 15ZM341 359Q331 359 325.0 364.5Q319 370 316 373Q320 376 326.5 382.5Q333 389 343 389Q354 389 361.0 383.5Q368 378 371 375Q365 371 357.0 365.0Q349 359 341 359ZM875 85Q903 85 931.5 86.0Q960 87 981.5 88.5Q1003 90 1009 91L998 102Q994 104 973.5 107.5Q953 111 921 111Q897 111 865.5 106.5Q834 102 805 95Q818 91 835.5 88.0Q853 85 875 85ZM857 18 893 32 1081 28Q1052 47 1023 76Q998 72 954.5 70.0Q911 68 875 67Q846 66 818.0 73.0Q790 80 775 87Q766 84 756.5 81.0Q747 78 736 73V66H764V54H736V43H764V32H736V29Q741 27 749.5 24.0Q758 21 764 19H788Q793 21 803.0 26.5Q813 32 820 36Z" />
  </g>
</svg>