<svg xmlns="http://www.w3.org/2000/svg" viewBox="49 0 1219 480">
  <g transform="translate(0, 480) scale(1, -1)">
    <path fill="black" d="M206 0 171 7 151 51 179 83H236L299 236L287 258L280 275L215 277Q210 271 194.0 253.0Q178 235 164 220L141 212Q124 212 102.5 223.5Q81 235 64 242L49 262V320Q54 337 63.5 359.0Q73 381 83 391Q86 394 91.5 398.0Q97 402 104 406Q104 408 105.0 422.5Q106 437 112.5 451.0Q119 465 136 465Q141 465 145.0 462.5Q149 460 152 457Q156 463 161.5 467.5Q167 472 174 472Q185 472 191.0 467.0Q197 462 201 455Q227 463 264.5 471.5Q302 480 330 480Q347 480 378.0 473.0Q409 466 443 458Q475 450 506.0 443.5Q537 437 554 437H795Q837 436 877.0 422.0Q917 408 948 376Q957 367 971.0 350.5Q985 334 1000 315Q1024 285 1056.0 245.5Q1088 206 1116 177Q1142 149 1160.5 137.0Q1179 125 1194 125Q1217 125 1227.0 132.0Q1237 139 1252 139Q1258 139 1263.0 132.5Q1268 126 1268 118Q1268 108 1247.5 91.0Q1227 74 1192 74Q1168 74 1145.5 85.0Q1123 96 1105.5 111.5Q1088 127 1077 140Q1054 168 1024.0 203.5Q994 239 966.5 272.0Q939 305 923 324Q924 306 927.0 285.5Q930 265 936.5 248.5Q943 232 956 225Q979 212 1004.5 195.5Q1030 179 1044 168L1041 84L1048 47L1033 16H992L953 0L918 7L897 51L926 83H970L961 126Q956 127 936.0 134.0Q916 141 894.0 149.5Q872 158 859 163L854 135L835 80L826 26L780 16L741 0L706 7L686 51L714 83H769L776 159Q772 164 764.5 172.5Q757 181 752 188Q748 195 742.0 204.0Q736 213 732 220Q696 213 656.5 207.5Q617 202 591 202Q562 202 522.0 206.0Q482 210 454 213L464 193L466 153L498 47L482 16H441L402 0L367 7L347 51L375 83H408L393 118L363 156Q354 146 342.5 130.0Q331 114 322.5 100.5Q314 87 312 84Q311 81 304.0 68.0Q297 55 289.0 42.0Q281 29 275 25L236 16ZM400 21 438 35H470L477 48L447 152L445 190L402 275L423 273L443 234Q459 232 486.0 229.0Q513 226 542.0 224.0Q571 222 591 222Q610 222 639.0 225.5Q668 229 698.0 234.5Q728 240 750 244Q749 248 747.0 251.0Q745 254 743 257Q733 277 729.0 306.5Q725 336 725 358H744Q745 333 750.5 300.0Q756 267 775 243Q793 220 823.0 202.0Q853 184 886.0 170.5Q919 157 944.5 149.0Q970 141 977 139L991 70L986 63H935L920 47L921 44L946 56L949 48L925 37L928 30L953 41L956 34L935 23L951 21L988 35H1021L1028 48L1021 81L1026 158L946 208Q927 219 918.5 244.5Q910 270 907.0 299.5Q904 329 903 350L918 359L1093 151Q1109 132 1136.0 112.5Q1163 93 1192 93Q1218 93 1233.5 102.0Q1249 111 1249 118Q1249 119 1248.5 119.0Q1248 119 1248 119Q1238 114 1226.5 109.5Q1215 105 1194 105Q1171 105 1150.0 120.0Q1129 135 1101 163Q1073 194 1041.0 233.0Q1009 272 984 303Q966 326 952.5 341.5Q939 357 934 363Q906 392 869.0 404.0Q832 416 794 417H554Q536 417 504.5 424.0Q473 431 438 439Q406 447 376.5 453.5Q347 460 330 460Q304 460 268.0 451.5Q232 443 206 436Q209 412 199 390H178Q183 399 185.0 409.5Q187 420 187 430Q187 445 183.0 450.5Q179 456 174 455Q167 453 163.5 441.5Q160 430 159.0 417.5Q158 405 158 399L143 398L144 410Q134 405 120.5 397.0Q107 389 96 377Q89 370 81.0 351.5Q73 333 68 319Q68 313 68.0 299.5Q68 286 67 277Q71 280 74.5 282.5Q78 285 82 285Q92 285 92 277Q92 273 87.5 271.5Q83 270 81 265Q79 259 79 256L108 243Q113 251 120.0 257.0Q127 263 134 267L141 256Q137 252 132.0 247.0Q127 242 125 235Q134 231 137 231L153 237Q158 244 173.0 260.0Q188 276 198 287Q204 295 207.0 305.0Q210 315 210 330L230 329Q229 319 228.0 311.5Q227 304 225 297L276 295Q275 306 274.0 317.0Q273 328 274 335L293 334Q293 324 295.0 307.5Q297 291 299 281L305 264L319 239L411 121L434 70L428 63H384L369 47L371 44L395 56L398 48L374 37L377 30L402 41L405 34L384 23ZM124 419 143 430Q143 445 136 445Q129 445 127.0 436.0Q125 427 124 419ZM123 325Q117 325 110.0 336.0Q103 347 104 360H148V357Q135 352 130.0 343.5Q125 335 123 325ZM739 21 776 35 810 43 818 83 836 136 840 169Q827 176 805.0 191.5Q783 207 764 227L749 224Q753 217 757.5 210.5Q762 204 766 199Q771 190 779.5 180.0Q788 170 793 164L784 65L723 63L708 47L709 44L734 56L737 48L713 37L716 30L741 41L744 34L723 23ZM204 21 232 35 264 42Q269 48 277.5 62.0Q286 76 291 86Q296 96 306.0 112.0Q316 128 328.5 144.5Q341 161 351 171L312 220L246 63H188L173 47L175 44L199 56L203 48L178 37L182 30L206 41L209 34L188 23Z" />
  </g>
</svg>