<svg xmlns="http://www.w3.org/2000/svg" viewBox="49 -2 1356 710">
  <g transform="translate(0, 706) scale(1, -1)">
    <path fill="black" d="M299 -2 295 10Q307 24 324.5 44.5Q342 65 356.0 81.5Q370 98 370 97Q376 105 382.0 116.0Q388 127 388 133Q388 141 392.0 169.5Q396 198 406.5 238.5Q417 279 434 323Q431 327 429 331Q422 342 412.0 353.0Q402 364 391 363Q378 362 359.5 357.5Q341 353 330 348Q319 341 303.5 325.0Q288 309 271.0 292.0Q254 275 238.0 263.0Q222 251 209 251Q190 251 180.5 263.5Q171 276 169 283Q158 285 138.0 295.0Q118 305 97.5 318.5Q77 332 63.0 346.5Q49 361 49 371Q49 383 61.0 396.5Q73 410 89.5 423.5Q106 437 121 448Q130 456 137.5 461.5Q145 467 146 469Q149 472 153.5 482.0Q158 492 164 505Q174 529 187.5 557.5Q201 586 217 602Q228 612 255.0 626.5Q282 641 317 654L324 708Q338 703 355.5 694.5Q373 686 384 677Q412 685 440.0 690.5Q468 696 492 696Q530 696 555.0 693.0Q580 690 600 688Q616 686 631.5 684.5Q647 683 664 683Q682 683 707.5 685.5Q733 688 761 692Q798 697 838.0 701.5Q878 706 916 706Q1008 706 1095.0 683.5Q1182 661 1252.0 614.5Q1322 568 1363.5 496.5Q1405 425 1405 327Q1405 317 1400.5 302.5Q1396 288 1382 288Q1369 288 1362.5 305.5Q1356 323 1353 339Q1349 359 1343.5 381.0Q1338 403 1327 425Q1331 409 1333.5 392.5Q1336 376 1336 361Q1336 345 1328.5 318.5Q1321 292 1311 263Q1301 232 1292.5 204.0Q1284 176 1284 159Q1284 137 1286.5 108.5Q1289 80 1292.0 54.5Q1295 29 1297 16L1275 -2L1256 20L1235 -2H1109L1105 14L1154 63V147Q1144 157 1131.0 174.0Q1118 191 1104 207L1108 124Q1101 112 1091.0 95.5Q1081 79 1076 68Q1071 57 1064.5 42.0Q1058 27 1053 16L1020 -2L1014 18L988 -2H880L875 14L950 85L960 103Q960 106 960.5 117.0Q961 128 961 138Q961 146 959.0 170.0Q957 194 954 208Q935 205 913.5 202.5Q892 200 870 200Q833 200 795.5 204.5Q758 209 729.0 214.5Q700 220 685 224Q683 215 682.0 208.0Q681 201 681 196Q681 179 685.5 161.0Q690 143 694 129Q697 117 699 109L660 7L648 -2L626 14Q622 11 616.5 6.5Q611 2 607 -2H516L510 12Q520 25 533.5 43.0Q547 61 557.0 77.5Q567 94 567 101Q567 109 563.0 126.5Q559 144 553.0 164.5Q547 185 542 201Q538 186 533.0 167.0Q528 148 523.5 132.0Q519 116 516 109Q512 101 505.0 91.5Q498 82 492 74Q482 63 480 58Q477 52 467.5 36.5Q458 21 450 8L427 -2L411 19L392 -2ZM535 17H546L567 45L576 38L560 17H575L596 45L605 38L589 17H601Q604 19 612.0 24.0Q620 29 627 33L646 21Q651 33 658.5 53.0Q666 73 672.5 90.0Q679 107 679 109Q679 111 678.0 115.0Q677 119 675 124Q671 138 666.0 157.5Q661 177 661 196Q661 209 668.0 240.5Q675 272 685.0 309.0Q695 346 704 377L722 371Q715 347 705.0 309.5Q695 272 688 243Q702 240 730.5 234.5Q759 229 796.0 224.5Q833 220 870 220Q909 220 946.0 228.0Q983 236 1013.5 246.0Q1044 256 1062 263Q1046 284 1032.5 308.0Q1019 332 1007 363L1026 370Q1038 339 1051.0 315.0Q1064 291 1080 271Q1081 271 1081.0 271.5Q1081 272 1081 272Q1084 267 1096.0 251.5Q1108 236 1123.5 216.0Q1139 196 1153.5 179.0Q1168 162 1176 154L1174 55L1136 17H1163L1184 45L1192 38L1176 17H1198L1219 45L1228 38L1212 17H1231L1259 44L1277 26Q1274 47 1271.0 72.5Q1268 98 1266.0 121.5Q1264 145 1264 159Q1264 178 1273.0 208.0Q1282 238 1292 269Q1301 297 1308.5 322.5Q1316 348 1316 361Q1316 380 1311.5 401.5Q1307 423 1302.0 441.0Q1297 459 1295 465Q1294 466 1293.5 468.5Q1293 471 1292 473L1307 482Q1342 449 1354.5 412.0Q1367 375 1373 343Q1375 333 1378.0 320.0Q1381 307 1382 307Q1384 307 1385.0 314.5Q1386 322 1386 327Q1386 420 1346.0 488.0Q1306 556 1239.0 600.0Q1172 644 1088.0 665.5Q1004 687 916 687Q880 687 840.0 682.5Q800 678 764 673Q736 669 710.0 666.0Q684 663 664 663Q645 663 629.0 665.0Q613 667 597 668Q577 671 552.0 673.5Q527 676 492 676Q459 676 419.0 666.5Q379 657 340.5 642.5Q302 628 272.5 613.5Q243 599 231 588Q217 573 203.5 546.5Q190 520 181 497Q175 483 170.5 472.0Q166 461 161 456Q157 452 150.0 446.5Q143 441 133 433Q120 423 104.5 411.0Q89 399 78.5 388.5Q68 378 68 371Q68 363 81.5 351.5Q95 340 114.0 328.5Q133 317 150.0 309.5Q167 302 174 302Q187 302 194.5 319.5Q202 337 205.5 357.0Q209 377 208 384Q218 390 231.5 401.5Q245 413 255.5 425.0Q266 437 268 441L284 432Q282 427 272.5 415.5Q263 404 251.0 392.5Q239 381 228 374Q227 363 222.5 345.0Q218 327 209.5 310.5Q201 294 188 286Q190 282 195.0 276.5Q200 271 209 271Q230 271 255.0 299.0Q280 327 317 361Q318 362 320.0 362.5Q322 363 323 364Q323 369 322.0 374.0Q321 379 319 381Q318 384 311.5 388.5Q305 393 300 396L307 409Q314 404 322.5 397.5Q331 391 332 389Q334 387 334.5 381.0Q335 375 336 370L348 374Q347 377 346.0 383.5Q345 390 343 392Q339 399 333.0 405.0Q327 411 321 415L329 427Q337 420 346.5 411.0Q356 402 357 398Q359 389 361 377L373 380Q372 385 371.5 391.5Q371 398 370 401Q369 404 361.5 413.5Q354 423 347 430L355 441Q363 433 372.5 422.5Q382 412 383 408Q385 404 385.5 396.0Q386 388 386 382Q387 382 388.0 382.5Q389 383 390 383Q393 383 396.0 382.5Q399 382 402 381Q402 387 401.5 394.5Q401 402 400 404Q399 408 392.5 418.5Q386 429 381 437L392 446Q399 436 406.0 424.0Q413 412 414 409Q416 404 416.5 393.5Q417 383 417 375Q426 368 433.0 359.0Q440 350 445 341Q453 331 456 327Q463 320 477.0 311.0Q491 302 523 277Q534 269 542.0 255.5Q550 242 553 232Q553 231 558.5 214.0Q564 197 570.5 174.0Q577 151 582.0 130.5Q587 110 587 101Q587 96 578.5 81.5Q570 67 558.0 49.5Q546 32 535 17ZM338 662Q343 664 349.0 666.0Q355 668 360 670Q351 676 341 681ZM389 572 370 574 376 647Q390 642 413.5 630.0Q437 618 447 608L433 594Q417 608 394 619Q393 610 391.5 596.0Q390 582 389 572ZM247 525 228 526Q229 534 236.5 547.5Q244 561 259.5 572.0Q275 583 299 583Q304 583 309.5 582.5Q315 582 322 580L317 562Q313 563 308.5 563.5Q304 564 299 564Q273 564 260.5 549.0Q248 534 247 525ZM285 511Q269 511 269 526Q269 532 273.5 537.0Q278 542 285 542Q290 542 295.0 537.0Q300 532 300 526Q300 520 295.0 515.5Q290 511 285 511ZM105 357Q86 357 86 376Q86 396 105 396Q113 396 119.0 390.5Q125 385 125 376Q125 368 119.0 362.5Q113 357 105 357ZM105 370Q113 370 113 376Q113 383 105 383Q99 383 99 376Q99 370 105 370ZM152 327Q144 327 138.0 333.0Q132 339 132 347Q132 355 138.0 361.0Q144 367 152 367Q160 367 165.5 361.0Q171 355 171 347Q171 339 165.5 333.0Q160 327 152 327ZM152 340Q159 340 159 347Q159 354 152 354Q145 354 145 347Q145 340 152 340ZM328 17H341L362 45L371 38L355 17H370L391 45L400 38L384 17H391L418 41L431 20L438 24Q445 35 452.5 48.5Q460 62 462 66Q464 71 468.0 75.5Q472 80 476 85Q482 93 488.5 102.0Q495 111 499 118Q502 127 507.0 144.5Q512 162 517.0 182.0Q522 202 526.0 217.5Q530 233 531 236Q529 242 524.5 249.0Q520 256 512 262Q487 281 472.0 291.5Q457 302 449 307Q434 266 425.0 228.5Q416 191 412.0 165.5Q408 140 408 133Q408 123 400.0 108.5Q392 94 384 83ZM906 17H932L953 45L962 38L946 17H961L982 45L991 38L975 17H985L1024 45L1033 24Q1038 35 1046.0 51.0Q1054 67 1058 76Q1063 87 1072.5 103.0Q1082 119 1089 130Q1089 134 1087.5 151.0Q1086 168 1085.0 190.5Q1084 213 1083 233H1084L1074 247Q1063 242 1036.0 231.5Q1009 221 973 213Q976 199 978.5 174.0Q981 149 981 138Q981 130 980.5 118.0Q980 106 979 98L964 72Z" />
  </g>
</svg>