<svg xmlns="http://www.w3.org/2000/svg" viewBox="49 -5 1631.75 913.1428571428571">
  <g transform="translate(0, 903.1428571428571) scale(1, -1)">
    <path fill="black" d="M430 -5Q417 -5 410.5 4.0Q404 13 404 26Q404 32 411.5 48.5Q419 65 426 77Q434 92 447.5 114.0Q461 136 466 154Q466 154 471.5 167.0Q477 180 485.0 199.5Q493 219 501.5 238.0Q510 257 516 268Q522 278 534.0 296.5Q546 315 559.5 335.0Q573 355 583.0 370.5Q593 386 596 390Q587 395 578.0 398.5Q569 402 560 402Q539 402 519.5 395.0Q500 388 489 381L479 396Q445 339 404.0 286.5Q363 234 313.0 200.0Q263 166 200 166Q182 166 157.0 170.5Q132 175 110.5 181.0Q89 187 80 190Q76 189 72.0 188.5Q68 188 63 188Q58 188 53.5 192.0Q49 196 49 202Q49 210 55.0 215.5Q61 221 61 228Q61 232 58.0 241.0Q55 250 55 257Q55 270 67 270Q72 270 81 263Q101 248 121.0 238.5Q141 229 169 229Q196 229 221.0 248.0Q246 267 267.5 296.5Q289 326 306.0 359.5Q323 393 334 421Q301 433 270.0 457.0Q239 481 217.0 508.5Q195 536 187 557Q182 569 186.0 580.0Q190 591 200 591Q208 591 224.0 578.5Q240 566 248 558Q260 547 289.5 526.0Q319 505 353 491Q359 526 369.5 572.0Q380 618 397.0 666.5Q414 715 440.0 755.5Q466 796 503 820Q528 836 557.5 845.5Q587 855 616 859Q622 873 632.5 890.0Q643 907 656 908Q668 909 675.0 903.0Q682 897 692 892Q700 888 713.5 889.0Q727 890 732 879Q734 877 733.5 873.5Q733 870 734 864Q782 864 831.0 863.0Q880 862 931 863Q956 864 998.0 866.0Q1040 868 1086.0 870.5Q1132 873 1168 875Q1252 873 1320.0 847.0Q1388 821 1439.5 780.0Q1491 739 1528.0 689.0Q1565 639 1588.5 589.0Q1612 539 1622 496Q1636 435 1644.0 387.5Q1652 340 1654 319Q1660 303 1666.0 280.5Q1672 258 1676 235Q1679 221 1680.5 198.5Q1682 176 1674.5 158.0Q1667 140 1642 140Q1620 140 1607.0 162.5Q1594 185 1586 221Q1580 250 1580.0 282.0Q1580 314 1585 345Q1583 376 1577.5 409.0Q1572 442 1565 473Q1552 534 1525.5 593.0Q1499 652 1467 685Q1482 661 1494.5 638.0Q1507 615 1515.0 586.5Q1523 558 1523 517Q1523 500 1519.5 474.0Q1516 448 1511 421Q1503 371 1493.5 301.0Q1484 231 1484 148Q1484 128 1490.5 105.0Q1497 82 1503 64V65Q1507 54 1509.5 45.0Q1512 36 1512 31Q1512 18 1504.5 6.5Q1497 -5 1479 -5Q1474 -5 1468.0 -1.0Q1462 3 1458 7Q1448 -5 1435 -5Q1429 -5 1422.0 -1.5Q1415 2 1410 6Q1406 2 1399.5 -1.5Q1393 -5 1385 -5Q1378 -5 1370.0 0.5Q1362 6 1357 11Q1353 5 1345.0 0.0Q1337 -5 1328 -5Q1315 -5 1308.5 4.0Q1302 13 1302 26Q1302 32 1305.0 40.5Q1308 49 1312 59Q1318 75 1324.0 94.0Q1330 113 1330 129Q1330 139 1326.0 164.0Q1322 189 1317.0 219.0Q1312 249 1307.5 276.0Q1303 303 1301 316Q1292 298 1276.0 263.5Q1260 229 1243.0 192.5Q1226 156 1214 131Q1207 112 1202.0 97.0Q1197 82 1204 64V65Q1212 41 1212 31Q1212 18 1205.0 6.5Q1198 -5 1179 -5Q1174 -5 1168.5 -1.0Q1163 3 1159 7Q1155 2 1149.0 -1.5Q1143 -5 1135 -5Q1130 -5 1123.0 -1.5Q1116 2 1111 6Q1107 2 1100.5 -1.5Q1094 -5 1085 -5Q1078 -5 1070.5 0.5Q1063 6 1058 11Q1053 5 1045.5 0.0Q1038 -5 1029 -5Q1016 -5 1009.5 4.0Q1003 13 1003 26Q1003 32 1005.5 40.5Q1008 49 1012 59Q1019 75 1032.5 99.0Q1046 123 1053 140Q1060 157 1069.5 181.0Q1079 205 1088.5 230.5Q1098 256 1106.0 277.0Q1114 298 1118 308Q1095 309 1064.0 312.0Q1033 315 1000.5 318.5Q968 322 941.0 326.0Q914 330 898 332Q886 312 865 312Q858 312 852 315Q847 287 842.5 266.0Q838 245 835.5 218.5Q833 192 833 148Q833 128 839.5 105.0Q846 82 853 64V65Q861 41 861 31Q861 18 855.0 6.5Q849 -5 831 -5Q826 -5 820.0 -1.0Q814 3 810 7Q806 2 801.5 -1.5Q797 -5 789 -5Q783 -5 776.5 -1.5Q770 2 765 6Q761 2 755.5 -1.5Q750 -5 742 -5Q735 -5 727.0 0.5Q719 6 714 11Q710 5 703.5 0.0Q697 -5 688 -5Q675 -5 668.5 4.0Q662 13 662 26Q662 32 664.5 40.5Q667 49 671 59Q677 75 683.0 94.0Q689 113 689 129Q688 146 683.5 175.5Q679 205 671 239Q664 229 653.5 212.0Q643 195 636 183Q628 166 616.5 139.5Q605 113 603 100Q599 81 596.0 58.5Q593 36 593 31Q593 18 587.0 6.5Q581 -5 562 -5Q557 -5 551.5 -1.0Q546 3 542 7Q538 2 533.5 -1.5Q529 -5 521 -5Q515 -5 509.5 -1.5Q504 2 501 6Q497 2 491.5 -1.5Q486 -5 478 -5Q471 -5 465.0 0.5Q459 6 457 11Q452 5 445.5 0.0Q439 -5 430 -5ZM688 14Q693 14 698.5 23.0Q704 32 709 41L724 42Q727 32 732.0 23.0Q737 14 742 14Q747 14 752.0 23.0Q757 32 761 41H771Q775 32 780.0 23.0Q785 14 789 14Q793 14 798.0 23.5Q803 33 808 41H817Q820 33 824.0 23.5Q828 14 831 14Q839 14 840.5 19.5Q842 25 842 31Q842 34 838.0 43.5Q834 53 831 63Q824 81 819.0 103.5Q814 126 814 148Q814 189 816.5 217.0Q819 245 823.5 270.5Q828 296 833 328Q831 332 828.0 335.0Q825 338 823 341L836 351Q842 343 851.0 336.0Q860 329 867 329Q877 329 883.5 342.0Q890 355 894.0 371.0Q898 387 899 395L916 394Q915 385 913.0 373.5Q911 362 907 351Q924 348 953.0 344.0Q982 340 1016.0 336.0Q1050 332 1081.0 329.5Q1112 327 1133 327Q1158 327 1188.5 330.5Q1219 334 1247.5 339.0Q1276 344 1293 347Q1287 370 1273.5 397.5Q1260 425 1243.0 452.0Q1226 479 1207 498L1221 512Q1256 476 1280.5 432.5Q1305 389 1317 332Q1321 314 1326.0 285.0Q1331 256 1336.5 224.5Q1342 193 1345.5 167.0Q1349 141 1349 129Q1350 110 1343.0 89.5Q1336 69 1330 52Q1327 43 1324.5 35.5Q1322 28 1322 26Q1322 14 1328 14Q1333 14 1340.0 23.0Q1347 32 1353 41L1367 42Q1370 32 1375.0 23.0Q1380 14 1385 14Q1390 14 1396.0 23.0Q1402 32 1406 41H1417Q1420 32 1425.0 23.0Q1430 14 1435 14Q1438 14 1444.5 23.5Q1451 33 1456 41H1465Q1468 33 1472.0 23.5Q1476 14 1479 14Q1487 14 1489.5 19.5Q1492 25 1492 31Q1492 37 1484 58Q1478 77 1471.0 101.5Q1464 126 1464 148Q1464 235 1473.5 304.0Q1483 373 1492 424Q1497 453 1500.5 477.0Q1504 501 1504 517Q1504 578 1484.0 622.0Q1464 666 1439 703L1460 719Q1484 693 1509.5 652.5Q1535 612 1555.5 566.0Q1576 520 1584 477Q1591 446 1596.5 413.0Q1602 380 1604 342Q1599 315 1599.5 284.5Q1600 254 1605 225Q1611 195 1619.0 177.5Q1627 160 1642 160Q1656 160 1659.0 175.0Q1662 190 1660.0 208.0Q1658 226 1657 233Q1654 256 1648.5 277.5Q1643 299 1634 315Q1634 326 1627.0 370.5Q1620 415 1603 492Q1594 533 1571.5 582.0Q1549 631 1513.0 679.0Q1477 727 1426.0 767.0Q1375 807 1308.5 831.0Q1242 855 1158 855Q1143 855 1114.0 853.5Q1085 852 1050.5 850.0Q1016 848 984.5 846.0Q953 844 932 844Q887 843 841.5 843.5Q796 844 746 844Q749 840 753.5 835.5Q758 831 762 829Q767 824 765.5 818.0Q764 812 760 806Q756 796 756 795Q756 794 759.5 790.5Q763 787 767 782Q773 776 778.0 770.0Q783 764 784 757Q785 752 782.5 745.5Q780 739 777 731Q770 717 770 711Q770 708 773.0 701.0Q776 694 780 688Q783 682 785.5 677.0Q788 672 789 668Q791 661 786.5 655.5Q782 650 777 645Q769 639 768 634Q768 633 771.0 629.0Q774 625 778 621Q784 614 789.0 607.5Q794 601 792 593Q791 585 783.5 579.5Q776 574 768 568Q764 567 760.0 564.0Q756 561 754 559Q754 558 756.5 553.5Q759 549 760 547Q764 540 765.5 532.0Q767 524 763 518Q756 507 746.5 504.5Q737 502 729 500Q704 498 691 481Q684 474 675.0 467.5Q666 461 650 461Q638 462 631.0 480.0Q624 498 621.0 519.0Q618 540 617 548Q616 566 604.0 586.0Q592 606 576 628L591 640Q608 616 621.5 593.5Q635 571 636 549Q637 543 638.5 526.5Q640 510 643.5 495.5Q647 481 651 481Q660 480 665.5 485.0Q671 490 676 495Q697 517 727 520Q733 521 739.0 522.0Q745 523 747 529Q748 531 746.0 534.0Q744 537 742 541Q738 548 736.0 555.0Q734 562 738 569Q740 573 745.5 577.0Q751 581 757 585Q763 589 768.0 592.0Q773 595 773 596Q772 600 768.0 603.0Q764 606 761 610Q757 615 752.5 621.5Q748 628 749 637Q750 646 757.5 653.0Q765 660 770 664Q770 667 763 678Q759 686 754.5 694.5Q750 703 750 711Q750 717 753.0 724.5Q756 732 759 739Q761 744 763.0 748.5Q765 753 765 755Q763 757 759.0 761.0Q755 765 752 769Q747 774 741.5 780.0Q736 786 736 792Q736 797 739.5 804.5Q743 812 748 816Q741 821 737.0 825.5Q733 830 728 835Q723 840 720.5 854.0Q718 868 717 872Q710 871 701.0 871.0Q692 871 685 874Q672 880 667.0 884.5Q662 889 657 889Q652 888 647.5 880.0Q643 872 638 861Q633 845 621.5 816.5Q610 788 596.5 756.5Q583 725 572 700L555 708Q564 728 574.5 753.0Q585 778 594.5 801.0Q604 824 609 837Q555 829 514 804Q481 783 457.0 743.5Q433 704 416.5 656.5Q400 609 389.5 563.5Q379 518 373 484Q375 483 377.5 482.5Q380 482 382 481Q396 478 413.0 477.0Q430 476 446 476Q465 476 481.5 477.0Q498 478 509 479Q514 487 521.0 495.0Q528 503 534 503Q542 503 544.5 498.0Q547 493 547 483Q547 479 536.5 463.0Q526 447 513.5 430.0Q501 413 495 406Q503 410 523.5 415.5Q544 421 560 421Q579 421 601.0 408.5Q623 396 638 380Q635 391 632.0 401.5Q629 412 626 420L645 429Q648 423 655.0 398.0Q662 373 671.0 336.5Q680 300 688.5 260.0Q697 220 702.5 185.5Q708 151 708 129Q708 110 702.0 89.5Q696 69 689 52Q686 43 683.5 35.5Q681 28 681 26Q681 14 688 14ZM456 589Q456 622 477.5 650.0Q499 678 524 690L532 672L529 670Q534 659 533.0 642.5Q532 626 526 618Q515 603 501.0 600.5Q487 598 476 598Q475 595 475 589ZM481 619Q491 619 498.0 621.0Q505 623 509 630Q514 640 509 656Q501 649 493.5 639.5Q486 630 481 619ZM458 424H483Q487 429 492.0 435.0Q497 441 500 445Q502 447 505.0 451.0Q508 455 510 459Q498 458 482.0 457.0Q466 456 446 456Q427 456 407.5 458.0Q388 460 369 465Q344 472 316.0 487.5Q288 503 266.0 519.5Q244 536 235 544Q231 549 220.5 559.0Q210 569 206 569Q201 569 205 560Q224 526 259.5 490.5Q295 455 341 439Q368 430 402.0 427.0Q436 424 458 424ZM200 185Q245 185 282.5 204.5Q320 224 352.0 256.5Q384 289 411.5 328.0Q439 367 463 405Q439 405 411.0 407.0Q383 409 353 416Q341 385 322.5 349.5Q304 314 280.0 282.0Q256 250 228.0 229.5Q200 209 169 209Q140 209 119.0 219.5Q98 230 77 242Q78 238 79.0 234.5Q80 231 80 228Q80 221 78.0 218.5Q76 216 74 211Q89 207 123.0 196.0Q157 185 200 185ZM430 14Q435 14 441.0 23.0Q447 32 452 41L466 42Q470 32 471.5 23.0Q473 14 478 14Q483 14 488.0 23.0Q493 32 497 41H508Q511 32 513.5 23.0Q516 14 521 14Q524 14 529.5 23.5Q535 33 539 41H548Q551 33 555.5 23.5Q560 14 562 14Q570 14 571.5 19.5Q573 25 573 31Q573 33 575.0 47.0Q577 61 580.0 78.5Q583 96 586 109Q589 119 595.5 136.0Q602 153 610.5 171.0Q619 189 625 201Q632 213 645.0 233.0Q658 253 666 264Q662 285 657.0 306.0Q652 327 647 346Q643 351 634.0 359.5Q625 368 614 377Q612 374 599.5 357.5Q587 341 572.0 319.0Q557 297 544.0 278.0Q531 259 527 250Q523 241 515.5 223.0Q508 205 499.0 184.0Q490 163 483 146Q477 124 464.5 105.5Q452 87 442 68Q438 60 431.0 44.0Q424 28 424 26Q424 14 430 14ZM1029 14Q1034 14 1041.0 23.0Q1048 32 1053 41L1067 42Q1071 32 1076.0 23.0Q1081 14 1085 14Q1090 14 1096.5 23.0Q1103 32 1107 41H1118Q1121 32 1126.0 23.0Q1131 14 1135 14Q1139 14 1145.5 23.5Q1152 33 1156 41H1166Q1168 33 1172.5 23.5Q1177 14 1179 14Q1187 14 1190.0 19.5Q1193 25 1193 31Q1193 34 1190.5 41.0Q1188 48 1185 58Q1179 77 1182.0 94.0Q1185 111 1195 131Q1212 166 1230.0 205.0Q1248 244 1263.0 277.0Q1278 310 1285 325Q1260 320 1218.0 314.0Q1176 308 1139 307Q1135 297 1126.0 274.5Q1117 252 1106.0 225.5Q1095 199 1086.0 175.5Q1077 152 1072 141Q1065 124 1051.0 96.5Q1037 69 1031 52Q1027 43 1024.5 35.5Q1022 28 1022 26Q1022 14 1029 14Z" />
  </g>
</svg>