<svg xmlns="http://www.w3.org/2000/svg" viewBox="49 -219 1129 1222">
  <g transform="translate(0, 784) scale(1, -1)">
    <path fill="black" d="M49 -219V-200H131V-114H49V-94H131V-8H49V12H116V17Q116 44 113.5 79.5Q111 115 106.5 151.0Q102 187 98.0 215.0Q94 243 91 254H283Q280 243 276.0 215.0Q272 187 267.5 151.0Q263 115 260.5 79.5Q258 44 258 17V12H350L398 79L420 223Q421 225 424.0 243.0Q427 261 431.0 286.0Q435 311 438 333Q419 353 396.0 377.0Q373 401 365 417Q355 436 339.5 461.5Q324 487 311.0 508.0Q298 529 295 533Q285 526 273.5 519.5Q262 513 247 511Q234 504 226.0 500.0Q218 496 207 496Q191 496 179.5 507.5Q168 519 168 530Q168 538 176.5 553.0Q185 568 198.0 585.0Q211 602 223 614Q231 622 246 642Q259 659 274.0 676.0Q289 693 305 703Q311 738 325.5 785.0Q340 832 365 874Q396 928 421.5 958.0Q447 988 465 1003L482 990Q460 964 430.5 922.5Q401 881 382 833Q408 877 437.5 912.0Q467 947 492.5 970.0Q518 993 531 1000L544 984Q514 956 480.0 914.0Q446 872 426 835Q413 810 398.5 775.0Q384 740 373 709Q378 716 386.5 723.5Q395 731 406 737Q428 750 449.5 757.0Q471 764 490 762Q497 746 481.0 721.5Q465 697 442 683Q429 675 417.0 670.5Q405 666 395 663Q398 658 402.0 651.0Q406 644 410 636Q424 611 442.0 583.5Q460 556 470 548Q487 536 514.5 529.5Q542 523 573 521Q618 519 663.5 511.5Q709 504 758 505Q790 505 811.0 506.0Q832 507 851.0 507.5Q870 508 895 508Q963 510 1006.5 486.0Q1050 462 1069 433Q1086 407 1089.0 385.0Q1092 363 1092 355Q1092 344 1087.5 333.0Q1083 322 1072 322Q1060 322 1056.5 332.5Q1053 343 1049 356Q1043 391 1025 404Q1026 383 1020.0 364.0Q1014 345 1008 334Q1015 318 1025.5 296.0Q1036 274 1044 262Q1053 249 1065.0 233.5Q1077 218 1085 208L1063 109Q1063 104 1063.5 96.0Q1064 88 1064 83L1069 61L1056 38L1051 12H1178V-8H1096V-94H1178V-114H1096V-200H1178V-219ZM323 708Q325 708 326.5 708.5Q328 709 329 709Q344 760 360.0 806.5Q376 853 401.0 897.5Q426 942 467 985L463 989Q445 973 422.5 943.0Q400 913 375 868Q350 825 339.5 783.0Q329 741 323 708ZM355 704Q385 786 422.0 853.0Q459 920 528 981L525 986Q497 965 468.0 932.5Q439 900 414.5 863.5Q390 827 374 792Q363 769 355.5 746.5Q348 724 343 708Q347 707 350.0 706.0Q353 705 355 704ZM381 677Q391 679 406.0 683.5Q421 688 434 696Q447 704 459.5 719.5Q472 735 471 745Q461 747 443.0 739.5Q425 732 414 724Q401 716 391.0 705.0Q381 694 375 686ZM598 49H625Q624 60 621.5 78.0Q619 96 616.5 113.5Q614 131 612 137Q609 148 605.0 178.5Q601 209 599 234Q607 281 610.5 308.0Q614 335 614 348Q614 366 610.0 382.5Q606 399 601 415L620 418Q625 399 628.5 380.0Q632 361 632 347Q632 337 631.0 325.5Q630 314 628 304Q657 303 685.0 308.0Q713 313 748 318Q774 323 808.0 326.5Q842 330 868 331Q871 349 875.5 368.5Q880 388 887 410L906 406Q900 385 895.0 365.0Q890 345 887 327Q887 322 885.0 302.5Q883 283 880.5 259.0Q878 235 876.0 215.0Q874 195 874 188Q874 179 869.5 159.0Q865 139 859.5 120.0Q854 101 850 93Q846 85 839.5 71.5Q833 58 828 49H849L862 60V91Q870 110 879.5 133.0Q889 156 893 165Q896 171 906.5 189.5Q917 208 930.5 231.0Q944 254 955.5 273.5Q967 293 972 301Q994 336 1002.5 367.5Q1011 399 1007 434Q1032 427 1046.0 406.5Q1060 386 1064 360Q1066 352 1068.0 344.5Q1070 337 1072 337Q1075 337 1077.0 344.5Q1079 352 1079 356Q1079 364 1074.5 382.5Q1070 401 1054 424Q1036 450 998.0 470.0Q960 490 895 489Q869 489 850.0 488.0Q831 487 811.0 486.0Q791 485 759 485Q713 485 666.5 492.0Q620 499 572 502Q540 504 507.5 511.5Q475 519 457 532Q444 541 426.0 571.0Q408 601 393 628Q386 640 377.5 655.5Q369 671 357.5 682.0Q346 693 329 693Q315 693 296.5 672.5Q278 652 262 632Q255 624 248.5 616.5Q242 609 237 603Q223 590 208.5 570.5Q194 551 189 539H207Q206 535 201.5 530.0Q197 525 192 521Q194 519 198 517Q203 522 215.0 533.0Q227 544 240 550L243 543Q237 540 229.0 531.0Q221 522 219 517Q222 519 227.0 521.5Q232 524 243 531Q259 533 275.0 541.5Q291 550 304 558Q307 555 316.5 539.0Q326 523 339.0 501.5Q352 480 364.5 459.0Q377 438 384 425Q391 412 407.0 394.5Q423 377 442.0 360.0Q461 343 476.5 330.5Q492 318 498 314Q508 309 521 309Q508 328 494.0 354.0Q480 380 481 410H501Q500 379 515.5 352.5Q531 326 544 309Q544 307 552.5 283.5Q561 260 580 208Q581 202 585.0 185.0Q589 168 593.5 148.0Q598 128 601.5 111.0Q605 94 605 88Q605 87 602.5 74.0Q600 61 598 49ZM305 625Q298 625 293.5 629.0Q289 633 286 636Q289 638 294.0 643.0Q299 648 307 648Q315 648 320.5 644.0Q326 640 329 637Q325 633 318.0 629.0Q311 625 305 625ZM399 49H423Q426 51 429.0 53.5Q432 56 435 58L450 164L491 296Q485 300 476.0 307.0Q467 314 456 324L440 221L417 73ZM1019 49H1042L1050 64L1045 81L1044 109L1065 200Q1061 206 1050.0 220.5Q1039 235 1031 250Q1024 261 1014.5 280.0Q1005 299 999 312Q996 307 992.5 300.0Q989 293 978 277L1030 199V79ZM638 12H780L801 41Q807 52 817.5 71.0Q828 90 832 100Q836 108 841.0 125.5Q846 143 850.0 161.0Q854 179 854 188Q854 195 856.0 215.5Q858 236 861.0 262.5Q864 289 866 312Q843 311 810.0 307.5Q777 304 750 299Q716 294 685.0 289.0Q654 284 627 286Q626 279 624.5 269.0Q623 259 618 233Q619 228 621.0 209.0Q623 190 626.0 170.0Q629 150 631 141Q633 133 636.0 114.5Q639 96 642.0 74.5Q645 53 647 34H641ZM421 12H558L577 36Q578 40 580.0 50.5Q582 61 584.0 72.0Q586 83 586 86Q586 90 583.0 106.0Q580 122 575.0 142.5Q570 163 566.5 181.0Q563 199 561 205Q559 212 548.5 239.0Q538 266 529 289Q525 289 521.5 289.5Q518 290 510 291L469 161Q466 134 461.5 105.0Q457 76 454 49L432 34H424ZM859 12H973L995 39L1012 82V195L970 256Q958 237 945.5 216.5Q933 196 924.0 180.0Q915 164 912 158Q908 149 898.5 127.0Q889 105 882 87V53L863 37ZM135 12H239V17Q239 50 242.0 93.0Q245 136 249.5 175.5Q254 215 258 235H116Q120 215 124.5 175.5Q129 136 132.0 93.0Q135 50 135 17ZM798 12H814L824 32H814ZM1021 12H1035L1039 32H1029ZM827 12H841L845 32H835ZM992 12H1008L1018 32H1008ZM366 12H381L392 32H382ZM394 12H408L412 32H403ZM577 12H592L603 32H593ZM605 12H619L623 32H614ZM269 -94H367V-8H269ZM387 -94H485V-8H387ZM505 -94H604V-8H505ZM150 -94H249V-8H150ZM978 -94H1076V-8H978ZM623 -94H722V-8H623ZM859 -94H958V-8H859ZM741 -94H840V-8H741ZM269 -200H367V-114H269ZM623 -200H722V-114H623ZM387 -200H485V-114H387ZM978 -200H1076V-114H978ZM859 -200H958V-114H859ZM150 -200H249V-114H150ZM505 -200H604V-114H505ZM741 -200H840V-114H741Z" />
  </g>
</svg>