<svg xmlns="http://www.w3.org/2000/svg" viewBox="49 -220 1186 1220">
  <g transform="translate(0, 780) scale(1, -1)">
    <path fill="black" d="M306 -220 212 -219 254 -166Q260 -158 271.0 -137.5Q282 -117 294.0 -91.5Q306 -66 316 -45Q325 -7 335.0 36.0Q345 79 354.5 120.0Q364 161 371.5 192.0Q379 223 382 236Q359 259 339.5 284.5Q320 310 306 339Q302 350 301.5 351.5Q301 353 300 354L270 321L317 303L291 259L255 294L206 174L154 206L233 309L181 326L210 370L246 336L251 422Q237 430 220 430Q208 430 192.5 426.0Q177 422 163 417Q163 416 163.5 413.5Q164 411 164 408Q164 392 156.5 372.5Q149 353 135.5 338.0Q122 323 103 319V399Q84 402 66.5 411.0Q49 420 49 429V458Q50 464 56.5 472.0Q63 480 71 489Q78 497 86.0 506.5Q94 516 104 535Q115 557 129.5 586.0Q144 615 173 638V652Q173 683 188.5 720.0Q204 757 227 784Q258 821 293.5 854.0Q329 887 360.0 922.0Q391 957 409 1000H448Q441 960 422.0 924.0Q403 888 376 856Q411 883 443.0 914.5Q475 946 487 988H519Q518 949 500.0 916.5Q482 884 455.0 856.5Q428 829 396.5 803.5Q365 778 336 753Q329 747 318.0 731.5Q307 716 297.5 699.0Q288 682 283 669Q300 686 322.0 696.5Q344 707 375 707Q383 707 382.0 695.5Q381 684 379 675Q373 649 365.5 630.5Q358 612 332 610Q338 601 344.0 592.5Q350 584 356 576Q362 578 369 578Q381 578 393.0 569.0Q405 560 405 530Q428 514 454.5 504.0Q481 494 515 486Q570 473 602.0 464.5Q634 456 651 456Q678 456 710.0 460.5Q742 465 768.0 470.5Q794 476 803 478Q847 489 896.5 495.5Q946 502 998 500Q1018 500 1031.5 496.5Q1045 493 1058 489Q1075 485 1097.5 484.5Q1120 484 1140.5 490.0Q1161 496 1173 509Q1183 520 1191.5 534.5Q1200 549 1208.5 560.0Q1217 571 1225 571Q1235 571 1235 544Q1235 506 1217.5 479.0Q1200 452 1174.0 436.0Q1148 420 1122 414Q1129 394 1137.5 363.0Q1146 332 1152.0 297.0Q1158 262 1155 230Q1148 215 1149.0 193.5Q1150 172 1155.5 149.0Q1161 126 1169.0 107.5Q1177 89 1183 81V46L1165 -92V-174L1136 -186L1122 -219H1032L1069 -173L1106 -86L1092 86L1026 149L1024 96Q1017 77 1001.5 40.5Q986 4 968.0 -36.0Q950 -76 935 -109L926 -164L906 -166L897 -186H881L868 -220L774 -219L805 -180L871 -106L925 55L922 186Q882 170 841.0 161.5Q800 153 759 153Q694 153 600 172L615 148L617 11Q619 5 625.5 -20.0Q632 -45 637 -69Q642 -88 645.0 -115.0Q648 -142 649 -159L609 -186L596 -220L502 -219L544 -167L577 -125L578 -92Q577 -88 572.5 -71.5Q568 -55 561.5 -33.0Q555 -11 547 9Q537 35 525.5 53.5Q514 72 500 92L461 149L412 -20L331 -186H319ZM192 649Q196 651 202.5 654.0Q209 657 216 660Q221 691 241.0 728.5Q261 766 290 792Q298 801 313 813Q336 834 360.5 863.5Q385 893 403.5 925.5Q422 958 427 986H421Q401 942 370.5 907.0Q340 872 306.5 841.0Q273 810 242 776Q219 750 205.5 716.0Q192 682 192 652ZM306 391Q329 417 354.5 452.0Q380 487 385 518Q347 548 309 610Q301 609 296.5 602.0Q292 595 291 593L279 601Q284 609 293.5 619.5Q303 630 322 630Q326 630 329.5 629.5Q333 629 335 629Q346 629 350.5 636.5Q355 644 357 658Q332 655 307.5 642.0Q283 629 266 609L252 620Q256 658 276.0 699.5Q296 741 322 766Q342 784 371.0 807.5Q400 831 429.0 858.0Q458 885 478.5 914.5Q499 944 502 974H497Q485 941 468.5 919.5Q452 898 428.5 879.5Q405 861 373.5 837.5Q342 814 301 777Q273 752 254.5 715.0Q236 678 238 643Q205 638 182.5 617.0Q160 596 145.5 570.5Q131 545 121 526Q109 504 101.0 494.0Q93 484 86 477Q82 473 78.5 469.0Q75 465 73 462H92V448L71 432L82 427L117 445L122 435L100 419Q104 418 108.0 417.5Q112 417 116 417Q119 417 127.5 423.0Q136 429 146 432Q163 438 177.5 444.0Q192 450 220 450Q252 450 272.5 432.0Q293 414 306 391ZM276 633Q294 650 317.0 661.5Q340 673 362 675Q368 689 357 689Q329 689 309.5 673.5Q290 658 273 635ZM203 556Q193 556 187.0 561.0Q181 566 177 570Q180 573 188.0 579.5Q196 586 205 586Q214 586 222.0 581.0Q230 576 233 571Q228 566 220.0 561.0Q212 556 203 556ZM385 546Q385 549 381.5 554.0Q378 559 370 559ZM606 -167 629 -150Q628 -135 624.5 -112.0Q621 -89 618 -73Q614 -53 608.0 -29.5Q602 -6 597 10L593 144L543 229L559 241L587 194V195Q639 183 681.5 177.5Q724 172 759 172Q790 172 826.5 178.5Q863 185 897.0 198.0Q931 211 953 228Q949 233 946.0 239.0Q943 245 941 250Q931 273 926.5 297.5Q922 322 922 349Q922 358 922.5 364.5Q923 371 923 374L943 371Q941 363 941 349Q941 308 955.5 271.5Q970 235 998 207L1112 95L1125 -91L1092 -167H1123L1146 -159V-88L1164 49V76Q1150 94 1141.0 125.5Q1132 157 1130.5 188.0Q1129 219 1135 235Q1139 285 1124.0 337.0Q1109 389 1095 429Q1139 432 1166.0 451.5Q1193 471 1205.0 497.0Q1217 523 1217 546Q1210 538 1202.5 522.5Q1195 507 1184 497Q1158 472 1124.0 467.0Q1090 462 1058 469Q1042 473 1027.5 476.5Q1013 480 996 481Q942 482 893.0 474.5Q844 467 797 456Q781 452 755.0 447.5Q729 443 701.5 439.5Q674 436 651 436Q618 436 580.5 448.0Q543 460 511 467Q475 475 449.0 484.0Q423 493 402 506Q396 483 381.0 458.0Q366 433 348.0 410.5Q330 388 314 371L321 353Q335 316 361.0 286.0Q387 256 418 229Q408 255 399.5 286.5Q391 318 387 356L406 361Q410 303 425.5 261.0Q441 219 464.5 182.0Q488 145 517 103Q531 82 543.0 62.0Q555 42 565 16Q575 -9 584.0 -39.0Q593 -69 597 -89L596 -135L570 -166ZM122 353Q134 359 139.0 379.0Q144 399 144 408V411Q132 402 122 398ZM266 346Q271 352 278.5 359.5Q286 367 291 374Q287 382 282.0 391.0Q277 400 270 407ZM198 203 231 280 183 211ZM278 -167H320L395 -9Q403 19 413.0 54.0Q423 89 432.5 122.0Q442 155 446 174Q441 181 437 190Q427 198 418.0 205.0Q409 212 400 220Q396 203 388.5 171.0Q381 139 371.5 100.0Q362 61 352.0 21.0Q342 -19 334 -53Q323 -77 310.0 -103.0Q297 -129 288.0 -147.5Q279 -166 278 -167ZM844 -167H884L894 -150L909 -149L917 -102Q931 -72 946.0 -38.0Q961 -4 974.0 26.0Q987 56 995.5 77.0Q1004 98 1005 102L1004 165Q993 176 988.0 182.5Q983 189 963 208Q959 204 953.5 201.0Q948 198 943 195L948 53L888 -119ZM535 -206H552L565 -186H551ZM567 -207H583L594 -186H578ZM277 -207H293L304 -186H288ZM245 -206H262L275 -186H261ZM1098 -206H1110L1120 -186H1109ZM1064 -206H1080L1093 -186H1081ZM807 -206H824L837 -186H823ZM839 -207H855L866 -186H850Z" />
  </g>
</svg>