<svg xmlns="http://www.w3.org/2000/svg" viewBox="49 -228.11764705882354 1207 885.1176470588235">
  <g transform="translate(0, 428.88235294117646) scale(1, -1)">
    <path fill="black" d="M78 -228Q49 -228 49 -198Q49 -182 58.0 -170.0Q67 -158 76.5 -151.5Q86 -145 89 -144Q83 -141 83 -136Q83 -126 97.5 -122.0Q112 -118 128.0 -117.5Q144 -117 148 -117Q158 -117 167.0 -118.0Q176 -119 186 -121Q197 -115 209.5 -96.0Q222 -77 250 -30Q267 -1 283.0 28.5Q299 58 314 90L319 123Q312 129 297.5 143.0Q283 157 282 170Q281 191 285.5 216.0Q290 241 304.5 281.0Q319 321 348 384Q349 391 347.0 400.5Q345 410 340 414H280Q279 413 266.5 410.0Q254 407 234 407Q207 407 195.5 418.0Q184 429 181.5 442.0Q179 455 179 461V462Q175 465 171.5 469.0Q168 473 168 480Q168 495 176.5 505.0Q185 515 192 526Q196 531 201.0 538.0Q206 545 213 552Q233 572 269 593Q273 603 284.0 618.0Q295 633 314.5 645.0Q334 657 362 657Q401 657 437.0 639.0Q473 621 502.0 595.0Q531 569 548 545Q563 534 588.5 516.5Q614 499 636 486Q650 479 671.5 462.0Q693 445 717.5 426.5Q742 408 763.0 393.5Q784 379 796 376Q831 369 889.5 364.5Q948 360 1012 361Q1041 362 1071.5 366.0Q1102 370 1128.0 374.0Q1154 378 1168 378Q1208 378 1232.0 347.0Q1256 316 1256 272Q1256 251 1248.0 219.0Q1240 187 1232 154Q1225 126 1218.5 106.0Q1212 86 1212 72Q1212 47 1217.5 20.5Q1223 -6 1227 -22L1196 -31Q1183 -14 1168.5 15.5Q1154 45 1154 72Q1154 92 1161.5 113.5Q1169 135 1179 163Q1188 191 1193.0 211.0Q1198 231 1198 250Q1198 278 1187.5 297.0Q1177 316 1157 316Q1138 316 1128.5 310.0Q1119 304 1111 293Q1110 288 1109.5 272.5Q1109 257 1108 245Q1107 231 1089.0 198.0Q1071 165 1046.0 125.5Q1021 86 998 53Q999 49 999.0 44.0Q999 39 999 37Q1006 20 1013.5 -1.0Q1021 -22 1028.0 -41.0Q1035 -60 1037 -71Q1042 -94 1052.5 -121.0Q1063 -148 1063 -171Q1063 -189 1050.0 -201.5Q1037 -214 1011 -214H949Q944 -214 936.5 -216.5Q929 -219 921 -221Q904 -228 894 -228Q865 -228 865 -198Q865 -191 876.0 -179.5Q887 -168 897 -161Q893 -155 893 -151Q893 -141 904.0 -137.5Q915 -134 927 -134Q931 -134 936.0 -135.0Q941 -136 948 -136Q952 -136 957.5 -134.0Q963 -132 963 -125Q963 -122 953.5 -99.0Q944 -76 930.0 -44.0Q916 -12 903 17Q892 3 872.5 -23.5Q853 -50 842 -69Q832 -88 820.5 -110.5Q809 -133 802 -150Q789 -188 748 -207Q732 -214 719.5 -219.5Q707 -225 697 -226Q684 -227 675.0 -223.0Q666 -219 666 -210Q666 -205 667 -203Q660 -203 653 -210Q648 -216 642.0 -222.0Q636 -228 627 -228Q616 -229 599.5 -221.5Q583 -214 583 -199Q583 -180 596.0 -168.0Q609 -156 624 -152Q638 -148 653.0 -147.0Q668 -146 679 -146Q694 -145 703.0 -142.5Q712 -140 723 -127Q723 -127 731.5 -108.0Q740 -89 752.0 -61.5Q764 -34 775.5 -6.5Q787 21 793 37Q799 51 809.0 72.5Q819 94 831.0 118.0Q843 142 852 160Q849 168 839.5 168.5Q830 169 822 169Q807 168 779.5 163.0Q752 158 721.0 151.5Q690 145 664 139L644 135Q628 131 591.5 128.0Q555 125 523 123L528 92Q523 71 516.5 44.5Q510 18 505.5 -5.5Q501 -29 499 -40Q497 -54 494.0 -78.5Q491 -103 489 -117Q486 -142 479.5 -170.0Q473 -198 454 -207Q438 -214 426.0 -219.5Q414 -225 403 -226Q390 -227 381.5 -223.0Q373 -219 373 -210V-203Q367 -203 359 -210Q355 -216 349.0 -221.5Q343 -227 333 -228Q320 -229 305.0 -221.5Q290 -214 290 -199Q290 -180 302.5 -168.0Q315 -156 331 -152Q345 -147 359.5 -146.0Q374 -145 386 -146Q402 -146 409.5 -139.5Q417 -133 417 -114L422 30Q419 33 415 41Q399 25 380.0 7.0Q361 -11 350 -22Q335 -37 315.0 -65.0Q295 -93 277.5 -123.0Q260 -153 251 -173Q245 -189 233.0 -201.5Q221 -214 195 -214H132Q127 -214 120.0 -216.5Q113 -219 105 -221Q88 -228 78 -228ZM78 -208Q84 -208 99 -203Q107 -200 115.5 -197.5Q124 -195 132 -194H195Q212 -194 220.5 -185.5Q229 -177 233 -167Q242 -146 260.5 -114.5Q279 -83 300.0 -53.5Q321 -24 336 -8Q348 4 368.0 23.0Q388 42 406.0 59.0Q424 76 431 82Q453 102 465.0 136.5Q477 171 482.5 209.0Q488 247 488 278H507Q509 201 483 136Q503 138 532.0 140.5Q561 143 590.5 146.5Q620 150 640 154L660 159Q687 165 719.0 172.0Q751 179 780.0 184.0Q809 189 825 189Q842 189 859.0 186.0Q876 183 892 170Q894 191 896.5 214.0Q899 237 903 252L923 249Q916 215 912.5 183.5Q909 152 909 120Q909 101 911.0 76.0Q913 51 916 34Q924 18 935.5 -7.5Q947 -33 958.0 -59.0Q969 -85 976.5 -104.0Q984 -123 984 -127Q984 -141 974.0 -147.0Q964 -153 948 -153Q942 -153 934.0 -151.0Q926 -149 916 -149Q912 -149 912.0 -152.5Q912 -156 915 -157Q928 -157 927.5 -161.5Q927 -166 921 -170Q909 -177 896.5 -185.5Q884 -194 884 -198Q884 -208 894 -208Q900 -208 915 -203Q923 -200 931.5 -197.5Q940 -195 948 -194H1011Q1043 -194 1043 -171Q1043 -151 1033.5 -125.5Q1024 -100 1019 -76Q1017 -66 1010.0 -47.0Q1003 -28 994.5 -6.0Q986 16 979 34Q978 42 980.0 53.5Q982 65 989 74Q1010 103 1032.0 138.0Q1054 173 1070.5 203.5Q1087 234 1089 247Q1089 252 1089.5 269.0Q1090 286 1091 300Q1104 317 1118.5 326.0Q1133 335 1157 335Q1186 335 1201.5 310.0Q1217 285 1217 250Q1217 230 1211.5 207.0Q1206 184 1197 157Q1189 131 1181.0 110.0Q1173 89 1173 72Q1173 47 1183.0 24.5Q1193 2 1202 -9L1206 -8Q1203 3 1198.0 25.0Q1193 47 1193 72Q1193 87 1199.5 108.5Q1206 130 1213 159Q1221 190 1228.5 221.5Q1236 253 1236 272Q1236 307 1216.5 333.0Q1197 359 1168 359Q1155 359 1125.5 355.0Q1096 351 1065.0 347.0Q1034 343 1015 342Q982 341 942.0 342.0Q902 343 863.0 347.0Q824 351 792 357Q770 362 740.5 384.0Q711 406 681.0 431.0Q651 456 626 469Q604 482 577.5 500.5Q551 519 534 532Q518 555 490.5 579.0Q463 603 430.0 620.0Q397 637 362 637Q347 637 333 631Q350 628 359.5 620.0Q369 612 374 602Q375 598 369.0 594.5Q363 591 360 594Q356 599 343.0 607.5Q330 616 307 614Q297 605 292.0 595.5Q287 586 285 581Q266 569 250.5 558.0Q235 547 227 538Q222 533 217.5 526.5Q213 520 208 515Q203 507 195.5 499.0Q188 491 188 480Q188 477 198.5 472.0Q209 467 242 467V455Q237 455 225.5 455.0Q214 455 199 454Q200 446 206.5 436.0Q213 426 234 426Q246 426 257.0 428.5Q268 431 274 433Q281 434 298.5 434.0Q316 434 333.0 433.0Q350 432 354 428Q362 420 366.0 405.5Q370 391 368 382Q364 364 347.5 332.0Q331 300 316.5 259.5Q302 219 302 173Q302 164 315.0 152.0Q328 140 341 132L333 85Q320 54 303.0 24.0Q286 -6 267 -40Q238 -89 222.5 -111.0Q207 -133 191 -141Q175 -136 152.0 -135.0Q129 -134 116 -136Q108 -137 107.5 -141.0Q107 -145 112 -145L121 -146Q129 -147 128.5 -151.0Q128 -155 120 -156Q113 -156 100.5 -161.0Q88 -166 78.0 -175.0Q68 -184 68 -198Q68 -208 78 -208ZM392 496Q385 497 383.0 503.0Q381 509 385 515Q390 523 399.5 525.5Q409 528 418 529Q426 531 432.0 542.5Q438 554 438 567Q438 572 434.0 577.5Q430 583 421 583Q412 583 403.0 573.0Q394 563 391 561V581Q394 588 403.0 595.5Q412 603 426 603Q441 603 448.5 591.0Q456 579 456 567Q456 551 445.0 532.0Q434 513 411 512Q406 508 402.5 501.5Q399 495 392 496ZM330 550Q323 550 314.0 554.5Q305 559 305 566Q305 582 325 582Q334 582 344.0 575.5Q354 569 359 561Q352 554 344.5 552.0Q337 550 330 550ZM623 -208Q628 -208 631.5 -204.5Q635 -201 638 -197Q646 -189 653.0 -186.5Q660 -184 673 -184Q678 -184 691.0 -183.5Q704 -183 708 -184Q704 -189 697.0 -193.5Q690 -198 691 -203Q692 -208 701.5 -205.5Q711 -203 723.0 -197.0Q735 -191 741 -188Q753 -181 763.5 -172.0Q774 -163 784 -143Q790 -128 802.0 -104.0Q814 -80 826 -60Q834 -46 846.5 -27.5Q859 -9 873.0 9.0Q887 27 896 39Q892 57 891.0 79.5Q890 102 890 120V145Q886 150 882.0 153.0Q878 156 873 160Q873 159 861.5 136.0Q850 113 836.0 83.5Q822 54 812 30Q806 15 793.5 -12.5Q781 -40 767.5 -69.5Q754 -99 744.0 -120.5Q734 -142 732 -145Q723 -160 709.5 -162.0Q696 -164 680 -165Q669 -166 654.5 -167.0Q640 -168 629 -170Q620 -172 611.0 -182.5Q602 -193 603 -198Q605 -208 623 -208ZM329 -208Q334 -208 338.0 -204.5Q342 -201 345 -197Q352 -189 359.5 -186.5Q367 -184 380 -184Q385 -184 397.5 -183.5Q410 -183 414 -184Q410 -189 403.5 -193.5Q397 -198 398 -203Q399 -208 407.5 -206.0Q416 -204 427.0 -199.0Q438 -194 444 -190Q456 -183 462.5 -160.5Q469 -138 470 -121Q472 -106 474.5 -79.0Q477 -52 479 -37Q480 -28 485.0 -6.5Q490 15 496.5 42.0Q503 69 508 91Q507 94 506.0 104.5Q505 115 503 122Q494 121 487.5 121.0Q481 121 479 121Q477 112 466.0 94.5Q455 77 443 66L430 55L442 36L438 -112Q437 -137 423.5 -151.0Q410 -165 387 -165Q362 -165 335 -170Q322 -173 315.5 -183.0Q309 -193 310 -198Q312 -208 329 -208Z" />
  </g>
</svg>