<svg xmlns="http://www.w3.org/2000/svg" viewBox="49 -228.11764705882354 1145 893.1176470588235">
  <g transform="translate(0, 436.88235294117646) scale(1, -1)">
    <path fill="black" d="M78 -228Q49 -228 49 -198Q49 -182 58.0 -170.0Q67 -158 76.5 -151.5Q86 -145 89 -144Q83 -141 83 -136Q83 -126 97.5 -122.0Q112 -118 128.0 -117.5Q144 -117 148 -117Q158 -117 167.0 -118.0Q176 -119 186 -121Q197 -115 209.5 -96.0Q222 -77 250 -30Q267 -1 277.5 28.5Q288 58 303 90Q308 116 307.5 142.5Q307 169 302 194Q298 212 294.0 230.0Q290 248 279 264Q269 276 256 274Q220 232 217 229Q217 228 211.0 215.5Q205 203 192 189Q175 169 159.0 167.5Q143 166 131.5 172.5Q120 179 115 183V184Q103 181 94 187Q83 197 81.0 209.5Q79 222 75 235Q74 242 71.5 250.0Q69 258 69 269Q69 288 70.0 298.0Q71 308 73.0 316.0Q75 324 77 337Q70 348 67.5 371.0Q65 394 65 413Q65 451 93.0 480.0Q121 509 159 509Q186 509 214.0 499.0Q242 489 259 481Q279 471 301.5 465.0Q324 459 338 459Q348 459 383 464Q409 468 441.0 472.0Q473 476 500 476Q564 476 645.0 463.0Q726 450 801 432Q819 428 851.5 419.5Q884 411 922.0 401.5Q960 392 993.5 385.5Q1027 379 1046 379Q1057 379 1078.0 393.0Q1099 407 1116.5 433.0Q1134 459 1134 495Q1134 550 1098.5 579.0Q1063 608 996 608Q962 608 910.0 595.5Q858 583 807 567Q764 554 727.0 544.5Q690 535 669 535Q629 535 606.5 545.5Q584 556 584 568Q584 581 602.0 584.5Q620 588 640 588Q683 588 724.0 600.0Q765 612 805 625Q851 639 903.5 652.0Q956 665 992 665Q1092 665 1143.0 617.5Q1194 570 1194 501Q1194 472 1183.5 440.5Q1173 409 1157.5 380.5Q1142 352 1128 333Q1131 302 1117.0 262.0Q1103 222 1080.5 181.0Q1058 140 1035.0 106.0Q1012 72 998 53Q999 49 999.0 44.0Q999 39 999 37Q1006 20 1013.5 -1.0Q1021 -22 1028.0 -41.0Q1035 -60 1037 -71Q1042 -94 1052.5 -121.0Q1063 -148 1063 -171Q1063 -189 1050.0 -201.5Q1037 -214 1011 -214H949Q944 -214 936.5 -216.5Q929 -219 921 -221Q904 -228 894 -228Q865 -228 865 -198Q865 -191 876.5 -179.5Q888 -168 899 -161Q894 -156 894 -151Q894 -141 904.5 -138.0Q915 -135 927 -135Q931 -135 936.0 -135.5Q941 -136 948 -136Q952 -136 957.5 -134.0Q963 -132 963 -125Q963 -122 953.5 -99.0Q944 -76 930.0 -44.0Q916 -12 903 17Q892 3 872.5 -23.5Q853 -50 842 -69Q832 -88 820.5 -110.5Q809 -133 802 -150Q789 -188 748 -207Q732 -214 719.5 -219.5Q707 -225 697 -226Q684 -227 675.0 -223.0Q666 -219 666 -210Q666 -205 667 -203Q660 -203 653 -210Q648 -216 642.0 -222.0Q636 -228 627 -228Q616 -229 599.5 -221.5Q583 -214 583 -199Q583 -180 596.0 -168.0Q609 -156 624 -152Q638 -148 653.0 -147.0Q668 -146 679 -146Q694 -145 703.0 -142.5Q712 -140 723 -127Q723 -127 731.5 -108.0Q740 -89 752.0 -61.5Q764 -34 775.5 -6.5Q787 21 793 37Q799 51 809.0 72.5Q819 94 831.0 118.0Q843 142 852 160Q849 168 839.5 168.5Q830 169 822 169Q807 168 779.5 163.0Q752 158 721.0 151.5Q690 145 664 139L644 135Q628 131 591.5 128.0Q555 125 523 123L528 92Q523 71 516.5 44.5Q510 18 505.5 -5.5Q501 -29 499 -40Q497 -54 494.0 -78.5Q491 -103 489 -117Q486 -142 479.5 -170.0Q473 -198 454 -207Q438 -214 426.0 -219.5Q414 -225 403 -226Q390 -227 381.5 -223.0Q373 -219 373 -210V-203Q367 -203 359 -210Q355 -216 349.0 -221.5Q343 -227 333 -228Q320 -229 305.0 -221.5Q290 -214 290 -199Q290 -180 302.5 -168.0Q315 -156 331 -152Q345 -147 359.5 -146.0Q374 -145 386 -146Q402 -146 409.5 -139.5Q417 -133 417 -114L422 30Q419 33 415 41Q399 25 380.0 7.0Q361 -11 350 -22Q335 -37 315.0 -65.0Q295 -93 277.5 -123.0Q260 -153 251 -173Q245 -189 233.0 -201.5Q221 -214 195 -214H132Q127 -214 120.0 -216.5Q113 -219 105 -221Q88 -228 78 -228ZM78 -208Q84 -208 99 -203Q107 -200 115.5 -197.5Q124 -195 132 -194H195Q212 -194 220.5 -185.5Q229 -177 233 -167Q242 -146 260.5 -114.5Q279 -83 300.0 -53.5Q321 -24 336 -8Q348 4 368.0 23.0Q388 42 406.0 59.0Q424 76 431 82Q453 102 465.0 136.5Q477 171 482.5 209.0Q488 247 488 278H507Q509 201 483 136Q503 138 532.0 140.5Q561 143 590.5 146.5Q620 150 640 154L660 159Q687 165 719.0 172.0Q751 179 780.0 184.0Q809 189 825 189Q842 189 859.0 186.0Q876 183 892 170Q894 191 896.5 214.0Q899 237 903 252L923 249Q916 215 912.5 183.5Q909 152 909 120Q909 101 911.0 76.0Q913 51 916 34Q924 18 935.5 -7.5Q947 -33 958.0 -59.0Q969 -85 976.5 -104.0Q984 -123 984 -127Q984 -141 974.0 -147.0Q964 -153 948 -153Q942 -153 934.0 -151.0Q926 -149 916 -149Q912 -149 912.0 -152.5Q912 -156 915 -157Q928 -157 927.5 -161.5Q927 -166 921 -170Q909 -177 896.5 -185.5Q884 -194 884 -198Q884 -208 894 -208Q900 -208 915 -203Q923 -200 931.5 -197.5Q940 -195 948 -194H1011Q1043 -194 1043 -171Q1043 -151 1033.5 -125.5Q1024 -100 1019 -76Q1017 -66 1010.0 -47.0Q1003 -28 994.5 -6.0Q986 16 979 34Q978 42 980.0 54.0Q982 66 989 75Q1012 110 1040.5 154.5Q1069 199 1090.0 247.0Q1111 295 1109 340Q1123 358 1138.0 385.0Q1153 412 1163.5 442.5Q1174 473 1174 501Q1174 563 1128.5 604.5Q1083 646 992 646Q957 646 907.5 633.5Q858 621 811 606Q768 593 727.0 581.0Q686 569 640 569Q627 569 615.5 569.0Q604 569 604 568Q604 564 621.0 559.5Q638 555 669 555Q688 555 724.5 564.5Q761 574 801 586Q852 601 906.5 614.5Q961 628 996 628Q1072 628 1113.0 594.0Q1154 560 1154 495Q1154 463 1141.5 438.0Q1129 413 1110.5 395.5Q1092 378 1074.0 369.0Q1056 360 1046 360Q1018 360 976.5 369.0Q935 378 889.0 390.5Q843 403 801 412Q727 430 646.0 443.0Q565 456 500 456Q475 456 443.5 452.5Q412 449 386 445Q370 443 357.5 441.0Q345 439 338 439Q325 439 309.0 443.0Q293 447 276 454V453Q275 454 272.0 455.5Q269 457 266 458L257 462Q240 470 212.5 479.5Q185 489 159 489Q129 489 109.5 466.5Q90 444 87 411Q100 422 113.0 423.5Q126 425 136 422Q140 421 139.0 414.0Q138 407 134 407Q127 406 112.0 402.5Q97 399 83 379Q84 366 87.5 356.0Q91 346 95 341Q91 319 89.0 300.5Q87 282 88 270Q89 263 91.0 255.5Q93 248 94 241Q97 231 97.5 220.5Q98 210 107 203Q109 200 120.0 204.5Q131 209 152 234L161 228Q157 224 150.0 214.5Q143 205 134 194Q141 189 153.0 187.5Q165 186 178 202Q186 211 191.5 221.0Q197 231 199 237Q203 242 214.0 255.5Q225 269 237.0 281.0Q249 293 254 294Q265 294 280.0 289.0Q295 284 303 262Q311 246 314.5 229.5Q318 213 321 198Q324 185 326.0 162.5Q328 140 327.5 118.5Q327 97 322 85Q309 54 297.5 24.0Q286 -6 267 -40Q238 -89 222.5 -111.0Q207 -133 191 -141Q175 -136 152.0 -135.0Q129 -134 116 -136Q108 -137 107.5 -141.0Q107 -145 112 -145L121 -146Q129 -147 128.5 -151.0Q128 -155 120 -156Q113 -156 100.5 -161.0Q88 -166 78.0 -175.0Q68 -184 68 -198Q68 -208 78 -208ZM228 367Q223 362 217.0 365.0Q211 368 208 375Q207 383 211.0 392.0Q215 401 220 409Q225 416 220.0 428.0Q215 440 204 448Q201 451 194.0 451.5Q187 452 182 446Q176 439 177.5 425.5Q179 412 178 409L164 421Q160 428 160.0 440.0Q160 452 169 463Q180 474 193.5 472.0Q207 470 216 462Q229 452 235.5 430.5Q242 409 228 392Q228 385 230.5 378.5Q233 372 228 367ZM118 348Q105 358 120 373Q125 380 136.5 383.0Q148 386 157 384Q158 374 154.5 367.5Q151 361 146 355Q142 350 132.5 346.5Q123 343 118 348ZM622 -208Q627 -208 631.0 -204.5Q635 -201 638 -197Q645 -189 652.5 -186.5Q660 -184 673 -184Q678 -184 691.0 -183.5Q704 -183 707 -184Q703 -189 696.5 -193.5Q690 -198 691 -203Q692 -208 701.5 -205.5Q711 -203 723.0 -197.0Q735 -191 741 -188Q753 -181 763.0 -172.0Q773 -163 783 -143Q790 -128 802.0 -104.0Q814 -80 825 -60Q833 -46 846.0 -27.5Q859 -9 872.5 9.0Q886 27 895 39Q892 57 890.5 79.5Q889 102 889 120Q889 126 889.0 132.5Q889 139 890 145Q886 150 882.0 153.0Q878 156 872 160Q872 159 865.5 145.5Q859 132 849.0 111.5Q839 91 829.0 69.5Q819 48 812 30Q806 15 793.5 -12.5Q781 -40 767.0 -69.5Q753 -99 743.0 -120.5Q733 -142 731 -145Q723 -160 709.5 -162.0Q696 -164 680 -165Q668 -166 654.0 -167.0Q640 -168 628 -170Q619 -172 610.5 -182.5Q602 -193 603 -198Q605 -208 622 -208ZM329 -208Q334 -208 337.5 -204.5Q341 -201 344 -197Q352 -189 359.0 -186.5Q366 -184 379 -184Q384 -184 397.0 -183.5Q410 -183 414 -184Q410 -189 403.0 -193.5Q396 -198 397 -203Q398 -208 407.0 -206.0Q416 -204 427.0 -199.0Q438 -194 444 -190Q455 -183 461.5 -160.5Q468 -138 469 -121Q471 -106 474.0 -79.0Q477 -52 479 -37Q480 -28 485.0 -6.5Q490 15 496.5 42.0Q503 69 508 91Q507 94 505.5 104.5Q504 115 502 122Q493 121 486.5 121.0Q480 121 478 121Q477 112 466.0 94.5Q455 77 442 66L429 55L441 36L437 -112Q436 -137 422.5 -151.0Q409 -165 386 -165Q360 -165 335 -170Q322 -173 315.0 -183.0Q308 -193 309 -198Q311 -208 329 -208Z" />
  </g>
</svg>