<svg xmlns="http://www.w3.org/2000/svg" viewBox="49 -7 1111 534">
  <g transform="translate(0, 520) scale(1, -1)">
    <path fill="black" d="M49 -7V46L88 67H216L335 84Q334 95 330.0 110.0Q326 125 316 138Q304 155 287.5 168.5Q271 182 262 182Q255 182 242.0 177.0Q229 172 219 167L191 166L138 216Q139 222 147.0 241.0Q155 260 169.0 284.0Q183 308 202.5 331.5Q222 355 245.0 370.0Q268 385 293 385H297Q314 428 350.0 456.0Q386 484 435 497Q483 510 524.0 513.5Q565 517 596 517Q616 517 636.5 516.0Q657 515 680 515Q699 515 723.0 516.5Q747 518 784 527Q776 510 760.0 496.5Q744 483 722 473Q739 475 756.5 476.5Q774 478 789 479Q775 459 747.0 435.0Q719 411 680.0 391.0Q641 371 593 362Q545 354 517.5 350.5Q490 347 458 342Q430 338 420.0 336.5Q410 335 403 333Q413 323 417.5 315.5Q422 308 426 301Q435 286 445.0 269.5Q455 253 473.0 242.0Q491 231 523 231Q555 231 604.0 243.0Q653 255 705 269Q758 283 806.5 295.0Q855 307 886 307Q920 307 948.0 293.0Q976 279 998.0 258.5Q1020 238 1035.0 216.0Q1050 194 1056 177Q1061 163 1064.5 145.5Q1068 128 1070.5 114.5Q1073 101 1074 98Q1076 91 1080.0 83.0Q1084 75 1090 75Q1097 75 1102.5 84.0Q1108 93 1109 96Q1112 102 1118.5 111.5Q1125 121 1134 121Q1145 121 1152.5 111.5Q1160 102 1160 83Q1160 71 1151.5 50.5Q1143 30 1125.0 13.5Q1107 -3 1076 -3Q1066 -3 1051.5 3.0Q1037 9 1027 14Q1024 11 1020.0 6.5Q1016 2 1013 0H836L785 5H766Q763 4 756.5 0.0Q750 -4 745 -7L682 -3V28L685 36Q666 26 637.5 14.0Q609 2 584 2Q557 2 529.0 13.0Q501 24 489 32V21L454 0H170L138 7H126L114 -7ZM331 381Q353 401 393.5 424.0Q434 447 489 456Q543 464 584.0 467.5Q625 471 661 472Q695 477 715.5 486.0Q736 495 749 505Q727 501 711.5 498.0Q696 495 680 495Q664 495 644.5 496.5Q625 498 596 498Q566 498 525.5 494.5Q485 491 438 479Q395 467 364.5 444.0Q334 421 317 383Q322 382 324.5 382.5Q327 383 331 381ZM68 13H80L106 35L111 29L92 13H107Q111 19 119 27H141L173 20H445L470 32Q470 48 468.5 65.5Q467 83 466 87H485Q487 80 488.0 68.5Q489 57 489 52Q498 44 515.0 37.0Q532 30 551.0 25.5Q570 21 584 21Q603 21 623.5 29.0Q644 37 662.5 47.0Q681 57 692 63Q721 80 760.0 103.5Q799 127 846 133Q828 157 828 176Q828 185 829.5 194.0Q831 203 833 213L853 211Q850 200 849.0 191.0Q848 182 848 176Q848 163 862.0 144.0Q876 125 896.5 105.0Q917 85 936.0 69.5Q955 54 965 46H703L698 33V19L716 35L721 29L703 13H714L740 35L745 29L727 13H739Q747 17 761 25H787L838 20H1007L1018 30Q1016 45 1001.0 65.5Q986 86 968 107L954 124L967 133L980 118Q1000 94 1015.5 72.5Q1031 51 1034 32Q1042 28 1054.0 22.5Q1066 17 1076 17Q1101 17 1114.5 29.5Q1128 42 1134.0 57.5Q1140 73 1140 83Q1140 101 1134 101Q1131 101 1127.5 93.5Q1124 86 1122 82Q1119 76 1110.0 65.5Q1101 55 1090 55Q1071 55 1064.0 68.0Q1057 81 1054 92Q1054 96 1051.5 110.0Q1049 124 1045.5 141.0Q1042 158 1037 171Q1030 191 1008.5 218.5Q987 246 956.0 266.5Q925 287 886 287Q856 287 808.0 275.5Q760 264 709 250Q656 236 605.0 223.5Q554 211 522 211Q481 212 460.0 225.5Q439 239 429.0 257.5Q419 276 408 292Q404 299 398.5 308.0Q393 317 382 328Q372 325 363.5 321.5Q355 318 348 315L337 332Q356 341 381.5 347.5Q407 354 453 360Q479 363 511.0 368.0Q543 373 586 381Q640 392 684.5 416.0Q729 440 750 459Q730 458 711.0 456.0Q692 454 672 453Q635 452 591.0 449.5Q547 447 491 437Q443 428 399.5 403.5Q356 379 321 344L310 355L317 363Q312 365 305.5 365.0Q299 365 293 365Q266 365 243.0 346.5Q220 328 202.0 302.0Q184 276 173.0 252.5Q162 229 159 219L168 228L179 217L170 208L185 195L212 224L223 212L197 185Q200 182 201 182L214 183Q218 185 234.5 191.5Q251 198 262 198Q275 198 297.0 182.5Q319 167 333 147Q344 133 349.5 108.5Q355 84 356 67L218 48H93L64 32V20L82 35L87 29ZM355 348 349 356Q380 379 404.0 390.5Q428 402 455.5 406.5Q483 411 522 413Q564 416 605.5 423.5Q647 431 687 447L690 438Q651 421 609.5 410.5Q568 400 523 397Q475 395 436.5 384.0Q398 373 355 348ZM269 286Q264 283 256.0 283.5Q248 284 246 289Q239 299 254 308Q261 312 270.0 310.5Q279 309 286 305Q283 297 278.5 293.0Q274 289 269 286ZM724 65H915Q903 76 887.5 89.5Q872 103 858 118Q818 114 783.0 97.5Q748 81 724 65Z" />
  </g>
</svg>