<svg xmlns="http://www.w3.org/2000/svg" viewBox="49 -212 800 1209">
  <g transform="translate(0, 785) scale(1, -1)">
    <path fill="black" d="M194 361H231L319 344Q316 358 315.0 372.5Q314 387 314 402Q314 462 331.5 520.5Q349 579 373.0 626.5Q397 674 418 700Q423 706 428.0 710.5Q433 715 437 719Q436 728 422.0 735.0Q408 742 400 742Q396 742 381.0 739.5Q366 737 348.0 734.0Q330 731 314.0 728.5Q298 726 292 726Q278 726 266.0 736.5Q254 747 247 756Q226 785 217.0 819.5Q208 854 204 874Q264 879 313.5 889.5Q363 900 382 928L376 931L380 939Q391 964 413.5 976.0Q436 988 464.5 992.5Q493 997 522 997Q551 997 585.0 979.5Q619 962 643.5 928.5Q668 895 668 845Q668 822 666.0 798.0Q664 774 657 752Q696 689 719.5 620.5Q743 552 755.0 471.0Q767 390 769 286Q754 284 739.0 282.0Q724 280 710 279V271Q710 230 718.0 182.5Q726 135 738.0 91.5Q750 48 763 18Q777 -13 777 -40Q805 -44 827.0 -66.5Q849 -89 849 -119Q849 -130 844.5 -145.5Q840 -161 825.0 -176.5Q810 -192 780.0 -202.0Q750 -212 699 -212L661 -211Q657 -211 652.0 -211.5Q647 -212 642 -212Q632 -212 622.0 -210.5Q612 -209 603 -207Q575 -204 548.5 -201.0Q522 -198 495 -198Q449 -198 420.5 -205.0Q392 -212 384 -212Q372 -212 363.5 -203.5Q355 -195 355 -183Q355 -173 361.0 -164.5Q367 -156 377 -154Q411 -146 440.5 -142.5Q470 -139 496 -139H504L495 -127L299 139Q302 112 305.0 74.5Q308 37 308 8Q308 -20 305.0 -59.0Q302 -98 299 -124Q301 -127 304.5 -133.5Q308 -140 310 -145V-212H255L239 -196H229L195 -212H49V-166L173 -138L210 -110V-91Q203 -66 192.5 -26.5Q182 13 174 44L168 68Q159 107 149.0 158.0Q139 209 139 270V283L105 271L104 314ZM649 845Q649 888 627.5 917.5Q606 947 576.5 962.5Q547 978 522 978Q482 978 448.5 969.5Q415 961 401 939Q421 929 444.5 924.0Q468 919 497 917L500 899Q481 892 470.0 873.5Q459 855 454.0 833.5Q449 812 447.5 795.0Q446 778 446 774Q446 759 453.0 738.0Q460 717 480.0 701.0Q500 685 540 685Q565 685 590.0 695.5Q615 706 632.0 740.5Q649 775 649 845ZM400 761Q413 761 429 753Q428 759 427.5 764.5Q427 770 427 774Q427 806 436.0 842.0Q445 878 467 900Q443 903 427.0 908.5Q411 914 399 919Q382 891 340.5 877.5Q299 864 227 857Q233 832 240.5 812.5Q248 793 255 779Q293 780 323.5 786.5Q354 793 373 800L380 783Q361 775 332.5 769.0Q304 763 268 761Q282 745 292 745Q296 745 310.5 747.0Q325 749 343.5 752.5Q362 756 378.0 758.5Q394 761 400 761ZM395 863Q380 863 372 865Q373 873 379.0 883.5Q385 894 397 894Q405 894 416.5 889.5Q428 885 435 880Q424 869 415.0 866.0Q406 863 395 863ZM648 730Q635 702 609.0 684.0Q583 666 540 666Q506 666 484.5 677.5Q463 689 450 705Q447 703 442.5 698.5Q438 694 433 688Q413 663 389.5 617.5Q366 572 349.5 515.5Q333 459 333 402Q333 386 334.0 370.5Q335 355 339 340L496 309Q532 303 570.0 299.5Q608 296 646 296Q700 296 749 302Q746 415 726.0 524.0Q706 633 648 730ZM591 278Q566 280 542.5 282.5Q519 285 498 289L228 341H199L121 305V296L209 326L227 321L233 294L203 282L208 271L255 290H279Q312 277 351.0 263.5Q390 250 428.0 238.0Q466 226 497.5 218.5Q529 211 546 211Q568 211 578.5 227.0Q589 243 591 278ZM496 -158Q471 -158 443.0 -161.0Q415 -164 382 -172Q374 -173 374 -182Q374 -186 377.0 -189.5Q380 -193 384 -193Q388 -193 418.5 -186.0Q449 -179 495 -179Q543 -179 589.0 -186.0Q635 -193 699 -193Q727 -193 757.0 -187.5Q787 -182 808.0 -165.5Q829 -149 829 -117Q829 -97 814.0 -80.0Q799 -63 776 -59L758 -58Q761 -26 751 -2Q736 32 722.0 78.0Q708 124 699.0 174.5Q690 225 690 271V278Q669 277 649.0 276.5Q629 276 610 277Q606 232 592.0 211.5Q578 191 546 191Q528 191 496.5 198.5Q465 206 426.5 218.0Q388 230 349.0 244.0Q310 258 277 271H257L204 252L192 255L181 282L185 291L214 302L212 308L159 290V270Q159 211 168.5 160.5Q178 110 187 73L193 49Q201 18 212.0 -22.5Q223 -63 230 -89L229 -120L181 -155L68 -181V-193H190L224 -178H246L263 -193H291V-149L279 -127Q282 -101 285.5 -62.0Q289 -23 289 8Q289 29 287.0 60.0Q285 91 281.5 122.5Q278 154 275 178L291 184L511 -116L530 -140Q570 -142 609.5 -147.5Q649 -153 699 -153Q707 -153 714.0 -153.0Q721 -153 727 -152Q738 -135 744.5 -115.5Q751 -96 755 -77L770 -79Q771 -79 771.5 -79.5Q772 -80 773 -80H774Q788 -82 798.5 -93.5Q809 -105 809 -120Q809 -148 776.0 -160.0Q743 -172 699 -172Q637 -172 591.5 -165.0Q546 -158 496 -158ZM770 -98Q768 -108 763.5 -121.0Q759 -134 751 -148Q770 -143 777 -139Q789 -131 789 -117Q788 -110 783.0 -104.5Q778 -99 770 -98Z" />
  </g>
</svg>