<svg xmlns="http://www.w3.org/2000/svg" viewBox="49 -212 1216 1204">
  <g transform="translate(0, 780) scale(1, -1)">
    <path fill="black" d="M378 933Q383 944 391.5 956.0Q400 968 422.0 977.0Q444 986 489 986Q512 986 538.0 973.0Q564 960 582.5 934.0Q601 908 601 870Q601 854 599.0 836.0Q597 818 592 801Q621 754 639.0 703.5Q657 653 666.0 591.5Q675 530 676 448Q648 444 619 442Q621 405 630.0 365.5Q639 326 649.0 288.0Q659 250 662 215Q688 215 706.5 196.5Q725 178 725 154Q725 138 717.0 124.0Q709 110 696 101H818V992L973 857L1127 992V796Q1138 815 1155.0 826.0Q1172 837 1196 837Q1214 837 1233.0 825.5Q1252 814 1252 778Q1252 744 1229.0 716.5Q1206 689 1167 676Q1175 654 1184.5 631.5Q1194 609 1199 598L1156 578Q1149 592 1141.0 609.0Q1133 626 1127 642V101H1265Q1235 46 1177.0 -9.5Q1119 -65 1038.5 -111.0Q958 -157 861.0 -184.5Q764 -212 657 -212Q550 -212 453.0 -184.5Q356 -157 275.5 -111.0Q195 -65 137.0 -9.5Q79 46 49 101H112V119L205 140L232 160V174Q209 254 194.0 317.5Q179 381 179 439V449L154 441L153 473L225 507L253 512L335 496Q334 507 332.5 517.0Q331 527 331 537Q331 576 341.0 614.5Q351 653 366.0 686.0Q381 719 396.5 742.5Q412 766 423 776Q421 781 412.0 785.0Q403 789 398 789Q394 789 377.0 786.5Q360 784 342.5 781.0Q325 778 318 778Q310 778 297.5 785.5Q285 793 272.0 817.5Q259 842 249 893L260 894Q315 899 343.0 908.0Q371 917 381 931ZM582 870Q582 902 566.5 923.5Q551 945 529.0 956.0Q507 967 489 967Q460 967 437.0 960.5Q414 954 403 940Q428 928 471 926L473 907Q454 900 446.0 879.0Q438 858 436.5 838.5Q435 819 435 816Q435 805 440.0 789.5Q445 774 459.5 762.5Q474 751 503 751Q520 751 538.5 758.5Q557 766 569.5 791.5Q582 817 582 870ZM837 949V713H1108V949L973 833ZM305 804Q312 797 317 797Q322 797 339.0 800.0Q356 803 374.0 805.5Q392 808 398 808Q409 808 417 804Q416 807 416.0 810.0Q416 813 416 816Q416 840 422.5 866.0Q429 892 444 909Q428 911 417.0 914.5Q406 918 398 922Q385 902 354.0 891.5Q323 881 272 876Q276 859 281.0 846.0Q286 833 291 823Q319 824 341.5 828.0Q364 832 377 838L384 820Q371 814 351.0 810.0Q331 806 305 804ZM425 894Q421 890 413.0 885.0Q405 880 391 880Q387 880 383.5 880.5Q380 881 375 882Q375 883 379.0 894.0Q383 905 397 905Q409 905 425 894ZM1196 820Q1162 820 1144.5 792.5Q1127 765 1127 732Q1127 698 1139.5 665.0Q1152 632 1167 600L1176 604Q1168 621 1159.0 644.0Q1150 667 1144.0 689.0Q1138 711 1138 726Q1138 756 1151.5 783.0Q1165 810 1192 810Q1209 810 1217.0 799.5Q1225 789 1225 777Q1225 760 1208.5 737.0Q1192 714 1158 700L1161 690Q1196 704 1215.0 728.5Q1234 753 1234 778Q1234 804 1221.0 812.0Q1208 820 1196 820ZM1192 792Q1173 792 1162.5 770.5Q1152 749 1152 726Q1152 724 1152.5 720.5Q1153 717 1153 715Q1179 726 1193.0 745.0Q1207 764 1207 777Q1207 792 1192 792ZM435 761Q421 749 400.5 713.5Q380 678 365.0 631.5Q350 585 350 537Q350 526 351.5 514.5Q353 503 355 492Q412 481 446.5 474.5Q481 468 502.0 465.0Q523 462 540.0 461.0Q557 460 581 460Q606 460 625.5 461.5Q645 463 657 464Q655 547 640.0 627.0Q625 707 584 778Q574 759 554.5 745.5Q535 732 503 732Q478 732 461.5 740.5Q445 749 435 761ZM837 693V684H1108V693ZM837 664V101H1108V664ZM517 444Q504 446 490.5 447.5Q477 449 463 451V452L250 493H229L170 465L171 459L236 481L249 478L254 458L231 449L235 441L271 455H289Q322 443 361.0 429.0Q400 415 434.5 405.5Q469 396 486 396Q502 396 509.0 407.5Q516 419 517 444ZM199 439Q199 381 214.0 317.0Q229 253 251 173V150L215 124L131 105V101H233L247 107H264L270 101H292V128L283 145Q285 164 287.5 193.0Q290 222 290 245Q290 269 287.0 307.0Q284 345 281 372L301 376L475 141Q508 140 539.0 135.5Q570 131 611 131H623Q637 145 641.0 160.0Q645 175 645 186H663Q675 186 685.0 175.5Q695 165 695 152Q695 137 677.0 124.5Q659 112 611 112Q565 112 531.5 117.0Q498 122 461 122Q442 122 421.5 120.0Q401 118 377 112Q373 111 373 106Q373 101 378 101Q381 101 403.5 106.0Q426 111 460 111Q496 111 530.0 106.0Q564 101 610 101H613Q633 101 654.5 105.0Q676 109 691.0 121.0Q706 133 706 155Q706 170 693.0 183.5Q680 197 662 197H644Q644 232 633.5 272.5Q623 313 612.5 356.0Q602 399 600 441L537 442Q531 377 486 377Q469 377 434.0 386.5Q399 396 359.5 410.0Q320 424 287 436H272L232 422L223 424L215 449L218 456L240 464L238 468L199 455ZM451 141 303 343Q305 323 307.5 294.5Q310 266 310 245Q310 224 307.5 195.5Q305 167 303 147Q304 145 306.5 140.5Q309 136 311 132V101H355Q355 103 354.5 104.0Q354 105 354 106Q354 125 373 130Q395 135 414.5 137.5Q434 140 451 141ZM649 134Q657 136 666.5 140.5Q676 145 676 153Q676 159 671.5 163.0Q667 167 662 167Q659 149 649 134ZM87 82Q117 33 174.0 -15.5Q231 -64 307.5 -104.0Q384 -144 473.0 -168.5Q562 -193 657 -193Q752 -193 841.0 -168.5Q930 -144 1006.5 -104.0Q1083 -64 1139.5 -15.5Q1196 33 1226 82Z" />
  </g>
</svg>