<svg xmlns="http://www.w3.org/2000/svg" viewBox="32 -5 1200 908">
  <g transform="translate(0, 898) scale(1, -1)">
    <path fill="black" d="M257 660Q269 660 281 655Q282 654 282.5 654.0Q283 654 284 653Q320 681 349.0 720.5Q378 760 403.0 799.5Q428 839 451 866Q468 886 478.5 892.5Q489 899 500 903L517 874L510 869Q494 857 479.5 831.0Q465 805 449.0 771.5Q433 738 411.0 702.5Q389 667 357 636L361 638L384 645L389 637L381 610Q467 592 523.0 579.5Q579 567 619.0 560.5Q659 554 696 554Q717 554 753.5 558.5Q790 563 831.5 568.5Q873 574 911.0 578.5Q949 583 973 583Q1049 583 1090.5 570.5Q1132 558 1150.5 536.0Q1169 514 1173 485L1202 309Q1210 288 1221.0 267.0Q1232 246 1232 210Q1232 190 1225 168L1211 167Q1189 179 1179.0 201.5Q1169 224 1169 246Q1169 257 1171.5 270.0Q1174 283 1178 305L1167 382L1147 303L1156 236L1136 26L1119 28L1107 0L1054 -5L1031 7L1055 56L1063 61L1070 203Q1062 193 1050.0 185.5Q1038 178 1024 173L1028 146L1009 144L1006 168L979 167L974 143L955 147L960 172Q949 176 938 184L848 26L840 28L829 0L775 -5L753 7L776 56L785 61L836 141L872 254Q868 255 864.0 255.5Q860 256 855 255L581 223L527 26L518 28L506 0L453 -5L430 7L454 56L462 61L492 217L467 223L461 195L364 26L357 28L345 0L292 -5L269 7L293 56L301 61L353 141L388 258Q367 274 353.0 293.0Q339 312 329 333L281 441L136 422L104 447L73 496V508Q99 534 125.0 559.0Q151 584 178 609Q138 651 115.5 698.0Q93 745 77 783Q65 814 57.5 828.5Q50 843 45.0 850.0Q40 857 32 864L54 890L60 887Q80 875 96.0 849.0Q112 823 129.5 788.5Q147 754 169.5 718.0Q192 682 226 652Q232 657 240.5 658.5Q249 660 257 660ZM493 878 492 880Q471 867 449.0 835.5Q427 804 401.5 764.0Q376 724 345.5 687.0Q315 650 277 626L274 630L268 640L267 641V642Q251 647 235.0 636.5Q219 626 203 611L92 504L116 464L170 476L179 462L125 449L141 441L287 460L338 502L352 490L302 447L346 346Q366 299 403.0 273.5Q440 248 489 240L452 290Q429 321 420.0 352.5Q411 384 411 425H430Q430 385 438.0 357.0Q446 329 469 297L514 235L482 57L515 48L578 281L562 331L581 339L597 284L586 243L842 273Q845 274 848.5 274.0Q852 274 855 274Q893 274 910 249Q930 218 946.0 201.5Q962 185 991 185Q1019 185 1039.5 201.5Q1060 218 1065 231L991 285L920 397L939 407L1007 299L1091 238L1082 57L1121 47L1137 238L1127 303L1160 427L1152 479Q1149 501 1134.0 520.5Q1119 540 1081.5 552.5Q1044 565 973 565Q950 565 912.0 560.5Q874 556 832.0 550.0Q790 544 753.5 539.5Q717 535 697 535Q656 535 609.0 542.5Q562 550 517.0 560.0Q472 570 435.0 579.0Q398 588 376 590L368 565L317 556L311 573L352 582L364 624L296 591L288 606L287 607Q335 634 366.0 672.0Q397 710 417.5 750.5Q438 791 455.0 825.5Q472 860 493 878ZM57 867 56 865Q74 843 89.0 801.5Q104 760 127.0 712.0Q150 664 191 621Q196 626 201.5 631.0Q207 636 212 640Q180 669 157.5 703.0Q135 737 118.5 770.0Q102 803 87.5 828.5Q73 854 57 867ZM208 552Q199 552 193.0 558.5Q187 565 187 573Q187 581 193.0 587.5Q199 594 208 594Q216 594 222.5 587.5Q229 581 229 573Q229 565 222.5 558.5Q216 552 208 552ZM107 508 136 515 144 498 124 480ZM404 248 373 137 320 57 354 48 445 204 448 228Q425 235 404 248ZM925 197Q917 206 910.0 216.5Q903 227 895 239Q894 240 893.5 241.0Q893 242 891 243L857 137L804 57L837 48ZM309 40 298 17H332L337 33ZM792 40 782 17H816L821 33ZM1070 40 1060 17H1094L1099 33ZM470 40 460 17H493L499 33Z" />
  </g>
</svg>