<svg xmlns="http://www.w3.org/2000/svg" viewBox="37 178 700 769">
  <g transform="translate(0, 1125) scale(1, -1)">
    <path fill="black" d="M737 929Q737 922 734.0 917.5Q731 913 726 908Q706 886 688.5 846.5Q671 807 650.5 758.0Q630 709 600.0 655.5Q570 602 525 551Q548 562 566.5 567.0Q585 572 609 572L627 571Q627 543 620 523Q637 516 648.0 507.0Q659 498 659 489Q659 474 647.5 442.5Q636 411 617.5 374.0Q599 337 578.0 306.0Q557 275 539 260Q510 236 475.0 222.0Q440 208 420 208Q400 208 379.5 210.5Q359 213 337 213Q333 213 320.5 209.5Q308 206 291 201Q265 194 235.0 186.0Q205 178 185 178Q164 178 136.0 188.5Q108 199 86.5 221.5Q65 244 62 278V347Q76 356 93.0 367.0Q110 378 113 381Q118 384 125 393Q135 401 147.5 413.0Q160 425 171 435Q181 443 190.0 449.0Q199 455 207 460Q214 465 219.0 468.0Q224 471 225 472L255 521V522Q203 571 170.5 624.0Q138 677 117.5 727.0Q97 777 81.0 817.5Q65 858 47 882Q37 895 37 906Q37 915 43.0 919.5Q49 924 56 924Q62 924 68.0 921.0Q74 918 80 913Q109 891 131.0 852.5Q153 814 176.0 768.0Q199 722 229.5 675.0Q260 628 306 588Q310 592 324.5 599.0Q339 606 376 606Q395 606 411.5 602.0Q428 598 443 592Q487 636 520.0 687.0Q553 738 581.0 787.0Q609 836 635.5 875.5Q662 915 693 936Q700 941 706.0 944.0Q712 947 719 947Q727 947 732.0 941.5Q737 936 737 929ZM476 517 470 522Q527 575 563.5 633.5Q600 692 624.5 747.5Q649 803 668.5 848.0Q688 893 712 920Q714 922 715.0 924.5Q716 927 717 928Q713 927 703 920Q672 899 644.5 855.5Q617 812 586.5 758.0Q556 704 517.0 649.0Q478 594 425 549L413 564Q417 567 420.0 570.5Q423 574 427 577Q403 586 377 586Q340 586 326.0 576.5Q312 567 301 555Q293 545 278.5 522.0Q264 499 254 482L241 460Q238 457 232.0 452.5Q226 448 218 443Q210 439 200.0 432.0Q190 425 184 420Q173 410 160.5 398.5Q148 387 139 379L126 366Q128 368 112.5 357.5Q97 347 81 336V294Q108 260 135.5 247.5Q163 235 191 235Q200 235 212.0 236.0Q224 237 244 238V218Q207 215 191 215Q162 215 137.0 223.5Q112 232 86 260Q99 229 130.5 213.0Q162 197 185 197Q202 197 231.0 204.5Q260 212 285 220Q302 225 316.5 228.5Q331 232 337 232Q357 232 377.5 230.0Q398 228 420 228Q438 228 469.5 240.5Q501 253 527 274Q544 289 563.5 318.5Q583 348 600.0 382.5Q617 417 628.0 446.5Q639 476 639 489Q639 495 614 507Q600 479 570.5 468.5Q541 458 502 456L501 476Q527 477 550.0 482.5Q573 488 588.5 504.0Q604 520 607 552Q531 549 476 489L462 502ZM292 575Q246 616 214.5 663.5Q183 711 160.0 757.0Q137 803 115.5 840.0Q94 877 68 898Q58 905 56 905Q57 904 58.5 900.5Q60 897 62 894Q82 869 97.5 828.5Q113 788 133.5 738.5Q154 689 185.0 637.5Q216 586 266 538ZM356 452Q376 452 389.0 436.0Q402 420 407 404L389 398L386 405Q374 398 356 398Q336 398 323 407Q319 403 319 402L304 412Q312 425 326.5 438.5Q341 452 356 452ZM356 434Q351 434 345.5 430.0Q340 426 335 421Q342 417 356 417Q369 417 377 421Q373 426 368.0 430.0Q363 434 356 434ZM152 309H169V291Q151 291 151 282Q151 278 154.5 274.5Q158 271 169 271V255H159Q144 255 135.0 265.0Q126 275 126 282Q126 295 134.5 302.0Q143 309 152 309Z" />
  </g>
</svg>