<svg xmlns="http://www.w3.org/2000/svg" viewBox="49 207 760 513">
  <g transform="translate(0, 927) scale(1, -1)">
    <path fill="black" d="M144 207Q127 207 104.5 217.0Q82 227 65.5 246.0Q49 265 49 292Q49 317 66.5 337.0Q84 357 104.5 370.0Q125 383 135 386Q152 407 177.5 437.0Q203 467 231.5 499.5Q260 532 286 560Q315 592 343.0 619.0Q371 646 388 662Q398 671 412.5 685.0Q427 699 447.5 709.5Q468 720 497 720Q553 720 575.5 686.5Q598 653 598 605Q615 616 642.0 632.0Q669 648 698.5 660.5Q728 673 750 673Q776 673 792.5 662.0Q809 651 809 625Q809 586 785.5 559.5Q762 533 723.5 518.0Q685 503 639 496Q643 480 646.0 460.5Q649 441 649 424Q649 380 631.5 341.0Q614 302 586.0 272.5Q558 243 525.5 226.5Q493 210 463 210Q439 210 402.0 217.5Q365 225 331 234Q308 240 288.5 245.0Q269 250 260 250Q249 250 234.5 243.5Q220 237 205 229Q189 221 173.5 214.0Q158 207 144 207ZM146 370Q137 367 118.0 356.0Q99 345 83.5 328.5Q68 312 68 292Q68 271 81.5 256.5Q95 242 113.0 234.0Q131 226 144 226Q155 226 168.5 232.5Q182 239 196 246Q213 254 229.0 261.5Q245 269 260 269Q270 269 290.5 264.5Q311 260 336 253Q368 245 403.5 237.0Q439 229 463 229Q486 229 514.0 241.5Q542 254 568.5 279.0Q595 304 612.0 341.0Q629 378 629 426Q629 450 627.0 469.0Q625 488 623 508Q668 515 705.5 529.0Q743 543 766.0 567.0Q789 591 789 625Q789 641 778.0 647.0Q767 653 750 653Q731 653 699.5 638.5Q668 624 634.0 603.5Q600 583 573 563Q575 574 577.0 588.0Q579 602 579 607Q579 624 573.5 646.0Q568 668 550.5 684.5Q533 701 497 701Q473 701 455.0 691.0Q437 681 424.0 668.5Q411 656 402 648Q386 634 357.5 606.0Q329 578 300 546Q274 518 245.0 485.0Q216 452 190.0 421.5Q164 391 146 370ZM313 481Q314 485 317.0 499.5Q320 514 329.0 527.5Q338 541 354 541Q368 541 374.5 534.5Q381 528 381 520Q381 506 373.5 498.5Q366 491 356 488Q344 484 328.0 479.0Q312 474 313 481Z" />
  </g>
</svg>