<svg xmlns="http://www.w3.org/2000/svg" viewBox="49.07692307692308 8 934.9230769230769 808.9629629629629">
  <g transform="translate(0, 824.9629629629629) scale(1, -1)">
    <path fill="black" d="M715 8Q708 31 694.5 64.5Q681 98 662.0 130.0Q643 162 618 178Q588 126 556.5 92.0Q525 58 470 57Q445 57 423.5 70.0Q402 83 391 96L394 119Q396 133 396.5 143.5Q397 154 397 165Q397 180 395.0 202.0Q393 224 388 263Q386 277 382.0 299.0Q378 321 373 344Q343 333 303.5 324.5Q264 316 220.0 323.5Q176 331 132 366Q116 379 99.5 400.5Q83 422 69.5 446.5Q56 471 51.0 491.0Q46 511 54 521Q59 527 65.5 528.5Q72 530 81 523Q91 515 108.5 488.0Q126 461 158 435Q199 402 253.0 405.0Q307 408 355 429Q357 431 379.5 451.0Q402 471 430 494Q430 499 429.5 504.5Q429 510 430 514Q434 561 422.5 605.5Q411 650 390.5 686.0Q370 722 345 742Q334 751 322.0 760.0Q310 769 297 779Q290 786 284.5 793.5Q279 801 285 808Q294 819 315.5 816.5Q337 814 364.0 801.0Q391 788 415 768Q467 725 492.0 677.0Q517 629 521 582Q528 598 537.5 613.5Q547 629 560 641Q573 630 584.5 616.5Q596 603 603 587Q625 592 651.0 595.0Q677 598 708 598Q746 598 789.5 588.0Q833 578 873.5 564.0Q914 550 944.0 536.0Q974 522 984 513L982 498Q918 462 872.5 398.0Q827 334 793.5 238.5Q760 143 731 9ZM721 52Q762 231 815.5 341.0Q869 451 959 506Q943 516 914.5 528.0Q886 540 850.0 551.5Q814 563 777.0 570.5Q740 578 708 578Q679 578 654.0 575.0Q629 572 607 567Q607 566 607.5 564.0Q608 562 608 560Q608 538 598.0 516.5Q588 495 571 472L555 483Q569 502 579.5 522.0Q590 542 588 562Q587 577 581.5 588.5Q576 600 562 613Q553 602 545.0 586.5Q537 571 529 539Q525 523 525.5 506.5Q526 490 529 473L509 469Q506 489 506 513L496 516Q496 517 497.0 521.0Q498 525 500 545Q505 600 483.0 652.5Q461 705 403 753Q374 777 344.5 789.5Q315 802 301 798Q312 792 326.0 781.5Q340 771 350 763Q411 714 432.0 643.0Q453 572 452 487Q452 470 469 459L457 444Q438 457 434 473Q415 458 399.0 444.0Q383 430 375 422Q381 399 387.5 369.5Q394 340 399.5 312.5Q405 285 407 266Q412 230 414.5 205.5Q417 181 417 165Q417 152 416.0 141.5Q415 131 413 117L412 103Q414 102 416.0 99.5Q418 97 421 95Q462 96 488.0 109.0Q514 122 531 144Q537 151 543.5 160.5Q550 170 563 187L578 175Q567 159 559.5 149.0Q552 139 546 131Q530 109 506.5 96.5Q483 84 450 80Q454 78 462.0 77.5Q470 77 477 77Q508 77 535.0 99.0Q562 121 584.5 155.5Q607 190 624.5 229.0Q642 268 653.5 302.5Q665 337 669 357L689 353Q684 328 667.5 284.0Q651 240 626 194Q661 170 684.5 128.5Q708 87 721 52ZM369 363Q367 376 364.0 387.5Q361 399 359 408Q326 394 287.5 388.0Q249 382 212.5 388.5Q176 395 147 418Q122 439 102.5 464.5Q83 490 69 509Q65 500 76.0 475.5Q87 451 106.0 424.5Q125 398 145 382Q186 349 226.5 342.5Q267 336 304.0 344.0Q341 352 369 363ZM479 329Q474 343 472.0 363.5Q470 384 479 395Q492 410 513.0 410.0Q534 410 549 404L542 386L535 388Q534 382 530.5 375.0Q527 368 521 360Q515 353 507.5 348.0Q500 343 494 340Q495 337 495 334ZM490 359Q500 362 507 372Q516 382 517 391Q510 391 504.5 389.5Q499 388 494 383Q488 374 490 359ZM498 127Q484 121 471.0 126.5Q458 132 456 138Q450 149 455.5 159.0Q461 169 469 173L484 180L491 163Q475 156 479 148Q480 145 485.0 143.0Q490 141 500 145L506 130Z" />
  </g>
</svg>