<svg xmlns="http://www.w3.org/2000/svg" viewBox="49 -17 1063 839">
  <g transform="translate(0, 805) scale(1, -1)">
    <path fill="black" d="M117 -17 104 -5H67V13H49V46L61 79Q60 94 66.5 112.0Q73 130 87.5 142.5Q102 155 123 155Q125 155 129.5 155.0Q134 155 137 154Q151 156 162 156Q185 156 218.5 149.5Q252 143 284 136Q308 130 327.0 126.5Q346 123 354 123Q360 123 389.5 126.0Q419 129 461.5 134.0Q504 139 551.0 145.0Q598 151 639.5 156.0Q681 161 708.0 164.5Q735 168 737 168Q736 179 734.0 198.0Q732 217 732 239Q732 255 740.5 289.5Q749 324 762.0 365.0Q775 406 786 439L720 385L675 366L644 367L608 406V428L583 421L509 485L498 526Q510 547 525.0 573.0Q540 599 555.5 624.0Q571 649 582 664Q602 693 622.0 715.0Q642 737 663 753Q663 762 668.5 778.5Q674 795 687.5 808.5Q701 822 725 822Q744 822 755.0 816.5Q766 811 771 803Q788 813 811 813Q834 813 851.5 802.0Q869 791 873 774Q917 765 959.0 740.0Q1001 715 1036.0 678.0Q1071 641 1091.5 597.0Q1112 553 1112 506Q1112 454 1092.5 410.5Q1073 367 1050 327Q1029 290 1011.0 250.0Q993 210 993 163Q993 150 999.5 131.5Q1006 113 1014 94Q1021 75 1027.5 57.0Q1034 39 1034 25Q1034 5 1014.5 -5.0Q995 -15 970 -14H342L230 16H205L168 -17ZM681 765Q698 775 716.0 781.5Q734 788 753 789L758 793Q754 798 746.5 802.0Q739 806 725 806Q704 806 694.0 792.0Q684 778 681 765ZM672 385 707 401 796 474Q817 497 835.0 528.5Q853 560 853 597Q853 604 851.0 612.0Q849 620 847 627Q843 638 840.5 649.5Q838 661 838 674Q838 685 839.5 692.5Q841 700 845 710Q850 722 853.5 733.5Q857 745 858 758Q854 773 842.0 783.0Q830 793 807 793Q797 793 785.0 788.0Q773 783 762 770H761Q746 751 745 730L725 733Q726 742 729.5 751.0Q733 760 737 769Q707 763 680.0 742.0Q653 721 631.5 696.5Q610 672 597 653Q578 625 554.5 587.0Q531 549 517 523L525 498Q527 515 538.0 529.0Q549 543 571 543V523Q555 523 548.5 509.0Q542 495 543 481L588 443Q593 445 600.0 446.5Q607 448 613 450L666 494L679 479L628 437V414L652 386Q657 386 662.5 385.5Q668 385 672 385ZM758 170Q790 175 801.5 193.0Q813 211 815 240Q820 282 832.0 325.0Q844 368 863.5 405.0Q883 442 908.5 464.5Q934 487 964 487Q984 487 998.0 474.0Q1012 461 1020.5 442.0Q1029 423 1032 405H1069Q1080 428 1086.0 453.0Q1092 478 1092 506Q1092 548 1073.5 588.5Q1055 629 1024.0 663.0Q993 697 954.5 720.5Q916 744 877 753Q876 739 872.5 728.0Q869 717 866 707Q863 698 860.5 690.0Q858 682 858 674Q858 663 860.5 652.5Q863 642 865 633Q868 623 870.0 614.5Q872 606 872 597Q872 556 856.0 524.0Q840 492 817 467Q809 444 797.5 411.5Q786 379 775.5 345.0Q765 311 758.0 282.5Q751 254 751 239Q751 221 753.5 202.5Q756 184 758 170ZM641 602 670 649H729L727 635H710L693 613H668L662 602ZM125 3H134Q135 22 148.5 37.0Q162 52 181 53L182 37Q169 36 160.5 26.0Q152 16 151 3H161L198 35H231L343 6H972Q989 4 1001.5 9.5Q1014 15 1014 25Q1014 36 1008.0 53.0Q1002 70 995 87Q987 107 980.5 127.0Q974 147 974 163Q974 214 992.5 255.5Q1011 297 1034 337Q1040 349 1047.0 361.0Q1054 373 1060 386H1013Q1013 404 1008.0 422.5Q1003 441 992.5 454.0Q982 467 964 467Q938 467 916.0 446.0Q894 425 877.0 391.0Q860 357 849.5 317.0Q839 277 835 238Q831 198 814.0 175.0Q797 152 746 149Q724 146 680.5 140.5Q637 135 584.5 128.5Q532 122 482.0 116.5Q432 111 397.0 107.0Q362 103 354 103Q344 103 323.0 107.5Q302 112 280 116Q249 123 215.5 130.0Q182 137 162 137Q158 137 150.5 136.0Q143 135 138 133Q128 136 123 136Q107 136 97.0 125.5Q87 115 83 101Q97 116 117.5 120.5Q138 125 162 124L161 107Q136 109 113.5 100.5Q91 92 80 72L68 42V33H72Q80 55 100.0 76.5Q120 98 160 98V82Q126 82 109.5 63.0Q93 44 86 25V15H100Q105 42 124.5 57.5Q144 73 166 74L167 58Q151 57 136.0 44.5Q121 32 116 10Z" />
  </g>
</svg>