<svg xmlns="http://www.w3.org/2000/svg" viewBox="49 -80 673 1067">
  <g transform="translate(0, 907) scale(1, -1)">
    <path fill="black" d="M422 -80Q419 -45 415.5 -4.5Q412 36 408.0 75.0Q404 114 401.0 144.0Q398 174 395 188Q386 237 374.5 272.5Q363 308 345 342Q338 339 325.5 336.0Q313 333 302 332H271L201 284Q197 282 182.5 272.5Q168 263 157 263Q152 263 136.5 267.5Q121 272 103.0 280.0Q85 288 74 296Q64 304 56.5 315.5Q49 327 49 345Q49 350 59.0 368.0Q69 386 85.5 412.0Q102 438 121.0 466.5Q140 495 157 520Q162 532 171.5 552.5Q181 573 197.5 596.0Q214 619 239 637Q224 652 210.0 670.5Q196 689 187.0 722.0Q178 755 178 812Q178 867 171.0 893.5Q164 920 150.0 933.0Q136 946 115 959V987Q181 977 209.0 942.0Q237 907 239 829Q240 821 241.5 798.5Q243 776 248.0 750.5Q253 725 261 709Q268 697 282.0 684.5Q296 672 304 666Q312 667 321.5 668.0Q331 669 341 669Q368 669 393 660Q403 667 418.0 679.0Q433 691 440 702Q450 718 456.5 742.5Q463 767 466.5 790.0Q470 813 470 821Q478 898 507.5 931.0Q537 964 604 970L602 943Q581 931 566.0 918.5Q551 906 542.5 880.0Q534 854 530 799Q527 759 521.0 731.5Q515 704 506 686L578 693Q581 660 557.5 632.5Q534 605 496 585Q531 545 555.5 499.5Q580 454 594 426L722 171Q660 149 608.0 108.0Q556 67 511.0 17.5Q466 -32 422 -80ZM256 648Q262 651 268.0 654.0Q274 657 281 659Q271 667 260.0 678.0Q249 689 244 699Q235 716 230.0 742.5Q225 769 223.0 793.5Q221 818 220 828Q216 897 192.0 930.5Q168 964 133 967Q154 953 168.0 939.5Q182 926 189.5 898.0Q197 870 197 812Q197 757 205.5 726.0Q214 695 228.0 678.5Q242 662 256 648ZM429 643 466 681 481 683Q492 701 500.0 728.5Q508 756 511 800Q515 859 524.0 886.5Q533 914 548.5 927.0Q564 940 585 952Q550 951 524.0 919.0Q498 887 490 818Q489 808 485.5 784.0Q482 760 475.5 734.0Q469 708 458 691Q451 680 438.0 669.5Q425 659 415 651Q421 647 429 643ZM438 -33Q459 -9 488.0 22.0Q517 53 550.5 84.5Q584 116 621.0 142.0Q658 168 695 182L577 417Q564 445 538.5 491.0Q513 537 478 577Q456 568 435 562L430 581Q488 597 519.0 624.5Q550 652 556 672L475 663Q470 658 451.0 638.0Q432 618 415 601L401 614L416 629Q381 649 341 649Q298 649 268.5 632.5Q239 616 220.0 592.5Q201 569 191.0 547.0Q181 525 176 513Q159 488 140.0 460.5Q121 433 104.5 408.5Q88 384 78.0 366.5Q68 349 68 345Q68 332 73.0 324.5Q78 317 85 312Q90 308 97.5 304.0Q105 300 112 297Q126 300 137.5 305.0Q149 310 159 317L171 301Q164 296 157.0 292.5Q150 289 142 286Q151 282 157 282Q162 282 172.0 288.0Q182 294 189 300L266 351H300Q320 353 343.0 364.0Q366 375 382 388L396 373Q389 368 380.0 362.0Q371 356 363 351Q382 315 394.0 277.0Q406 239 414 192Q417 175 421.5 136.0Q426 97 430.5 51.5Q435 6 438 -33ZM274 473Q276 490 285.0 501.5Q294 513 313 513Q331 513 335.0 506.0Q339 499 339 494H331Q331 493 326.0 486.5Q321 480 305 480Q300 480 296 482Q290 479 290 473ZM95 319Q95 324 103.5 337.0Q112 350 125 350Q137 350 143.5 344.0Q150 338 152 331L133 325Q131 331 125 331Q121 331 118.0 326.0Q115 321 115 319Z" />
  </g>
</svg>