<svg xmlns="http://www.w3.org/2000/svg" viewBox="49 -99 686 1100">
  <g transform="translate(0, 902) scale(1, -1)">
    <path fill="black" d="M115 -99Q78 -99 63.5 -71.5Q49 -44 49 -13Q49 7 58.5 25.5Q68 44 87 51L469 193Q469 203 467.5 233.0Q466 263 462.0 300.5Q458 338 450 369Q440 409 431.0 436.5Q422 464 408 490Q402 488 393.5 485.0Q385 482 377 481H353L298 443Q295 442 281.5 434.5Q268 427 259 427Q256 427 243.5 432.0Q231 437 216.5 444.0Q202 451 193 457Q186 464 180.0 473.0Q174 482 174 496Q174 501 187.5 524.0Q201 547 221.0 577.5Q241 608 259 634Q265 648 279.5 676.0Q294 704 324 726Q312 737 301.0 751.5Q290 766 283.0 792.0Q276 818 276 863Q276 907 270.0 928.0Q264 949 253.5 959.0Q243 969 227 979V1001Q283 1001 307.5 969.5Q332 938 332 876Q332 870 333.5 852.5Q335 835 339.0 815.5Q343 796 349 783Q354 773 365.5 763.5Q377 754 383 749Q390 750 395.0 750.5Q400 751 408 751Q419 751 427.0 749.5Q435 748 445 745Q453 750 465.0 758.5Q477 767 482 777Q490 790 495.0 809.5Q500 829 503.0 846.5Q506 864 506 871Q513 925 535.5 956.5Q558 988 617 991V967Q601 957 589.0 947.5Q577 938 570.5 917.5Q564 897 561 853Q560 822 555.5 802.0Q551 782 543 768L599 777Q601 752 583.0 724.0Q565 696 535 680Q562 648 581.5 615.0Q601 582 611 559L690 390Q692 388 706.0 375.0Q720 362 733 351L735 311L613 111Q604 96 589.5 79.5Q575 63 546 57L339 11L511 23L590 33V11L657 8L670 -93L588 -58H458ZM341 735 360 744Q353 749 344.5 758.0Q336 767 332 775Q324 789 320.0 809.5Q316 830 314.5 849.0Q313 868 313 876Q311 931 291.5 957.0Q272 983 244 986Q260 975 271.5 964.5Q283 954 289.0 931.5Q295 909 295 863Q295 820 301.5 796.0Q308 772 319.0 758.5Q330 745 341 735ZM477 730 507 762 520 764Q529 778 534.5 799.0Q540 820 542 854Q545 900 552.0 922.0Q559 944 571.0 954.0Q583 964 600 974Q572 973 551.5 948.0Q531 923 525 868Q524 860 521.5 841.0Q519 822 514.0 801.5Q509 781 500 769Q494 760 484.0 751.5Q474 743 466 737Q468 736 470.5 734.5Q473 733 477 730ZM111 -79Q126 -77 163.5 -73.0Q201 -69 251.5 -63.0Q302 -57 356.0 -50.5Q410 -44 457 -38H594L648 -64L640 -11Q632 -10 612.0 -9.0Q592 -8 576 -7V12L514 4L198 -15V-2L542 75Q561 80 573.5 92.0Q586 104 595 118L716 315L714 342Q710 347 697.5 358.0Q685 369 674 378L593 553Q583 575 564.0 608.5Q545 642 516 673Q509 669 500.0 666.5Q491 664 482 662L479 680Q527 693 549.5 714.0Q572 735 576 754L514 744L468 695L456 708L463 717Q439 731 408 731Q374 731 351.0 719.0Q328 707 313.0 689.0Q298 671 289.5 654.0Q281 637 278 628Q260 602 240.0 573.0Q220 544 206.5 522.5Q193 501 193 496Q193 486 197.0 480.5Q201 475 207 470Q211 467 216.5 463.5Q222 460 229 458Q250 463 265 474L274 461Q269 458 263.0 454.5Q257 451 251 449Q260 446 263 446Q268 446 275.5 451.0Q283 456 289 460L349 501H376Q392 503 410.0 511.5Q428 520 440 530L451 515Q446 510 439.0 505.5Q432 501 425 497Q439 468 450.5 436.0Q462 404 469 367Q472 353 475.5 328.0Q479 303 482.5 274.5Q486 246 487.5 220.5Q489 195 487 179L94 32Q81 27 74.5 14.5Q68 2 68 -13Q68 -36 80.0 -57.5Q92 -79 111 -79ZM348 597Q350 611 358.0 621.0Q366 631 382 631Q397 631 400.0 625.5Q403 620 403 615H396Q396 614 392.5 608.5Q389 603 375 603Q372 603 370.5 603.5Q369 604 368 604Q362 603 362 597ZM214 476Q214 480 221.0 490.0Q228 500 237 500Q247 500 252.5 495.0Q258 490 259 485L244 481Q243 484 237 484Q234 484 232.0 481.0Q230 478 230 476Z" />
  </g>
</svg>