<svg xmlns="http://www.w3.org/2000/svg" viewBox="49 0 881 1001">
  <g transform="translate(0, 1001) scale(1, -1)">
    <path fill="black" d="M490 0V348Q490 373 479.0 401.0Q468 429 449 446L357 395Q320 374 291.0 362.0Q262 350 247 350Q227 350 205.0 367.0Q183 384 155 418L68 525Q61 536 55.0 547.5Q49 559 49 572Q49 585 55.0 599.0Q61 613 75 629L221 794Q273 852 311.0 881.0Q349 910 376 915Q394 952 419.5 976.5Q445 1001 464 1001Q478 1001 486.5 994.5Q495 988 501 975L514 947Q540 962 569 962Q583 962 596.5 941.5Q610 921 614 896Q688 866 746.5 809.0Q805 752 846.0 678.5Q887 605 908.5 527.5Q930 450 930 380V0ZM400 919Q414 921 424.5 921.0Q435 921 445 921H477Q487 931 497 938L484 967Q482 972 477.0 976.5Q472 981 463 981Q454 981 441.0 969.5Q428 958 416.5 943.5Q405 929 400 919ZM510 17H910V377Q910 441 890.0 515.0Q870 589 832.0 660.5Q794 732 739.5 789.0Q685 846 616 876Q615 849 606.0 815.0Q597 781 587 754L569 761Q580 792 588.0 823.5Q596 855 596 883Q596 896 590.5 911.5Q585 927 577 936Q577 853 532 789L517 797Q539 830 548.5 866.5Q558 903 558 943Q515 933 488.5 906.0Q462 879 445 847L430 854Q439 879 458 902H423Q365 902 321.5 866.0Q278 830 230 777L85 616Q79 609 73.5 597.0Q68 585 68 571Q68 563 71.0 553.5Q74 544 81 536L165 432Q176 438 191.5 446.5Q207 455 221.0 464.0Q235 473 241 477L250 462Q246 460 233.0 452.5Q220 445 204.0 435.5Q188 426 176 419Q202 388 216.5 378.0Q231 368 247 368Q259 368 280.0 376.5Q301 385 323.5 397.0Q346 409 362 418L479 484Q547 522 583.5 557.0Q620 592 620 631Q620 661 608 695H627Q634 675 636.5 659.0Q639 643 639 631Q639 587 602.5 549.5Q566 512 480 464L466 456Q490 434 500.0 403.0Q510 372 510 348ZM268 675 258 689 287 704Q272 712 272 732Q272 749 287 761L258 776L268 790L362 739V726ZM307 714Q314 714 319.5 719.5Q325 725 325 732Q325 740 319.5 745.5Q314 751 307 751Q299 751 293.5 745.5Q288 740 288 732Q288 714 307 714ZM127 532 108 539 117 566 98 585 110 597 137 571Z" />
  </g>
</svg>