<svg xmlns="http://www.w3.org/2000/svg" viewBox="49 143 1169 728">
  <g transform="translate(0, 1014) scale(1, -1)">
    <path fill="black" d="M49 143V308H207Q296 308 376.0 343.0Q456 378 539 444Q528 456 517.5 468.5Q507 481 496 493Q447 551 398.0 602.5Q349 654 299 689Q267 712 242.5 727.5Q218 743 195.5 755.5Q173 768 147.5 780.0Q122 792 87 807Q73 813 63.5 821.5Q54 830 54 846Q54 860 68.0 865.5Q82 871 104 871Q125 871 157.5 862.0Q190 853 227.0 838.0Q264 823 299.5 803.5Q335 784 363 763Q443 705 508.0 643.0Q573 581 633 525Q693 581 758.5 643.0Q824 705 903 763Q941 791 991.0 815.5Q1041 840 1087.5 855.5Q1134 871 1163 871Q1184 871 1198.5 865.5Q1213 860 1213 846Q1213 830 1203.0 821.5Q1193 813 1179 807Q1145 792 1119.5 780.0Q1094 768 1071.5 755.5Q1049 743 1024.5 727.5Q1000 712 968 689Q917 654 869.0 602.0Q821 550 771 493L728 444Q811 378 891.0 343.0Q971 308 1060 308H1218V143H1035Q955 143 884.5 170.0Q814 197 752.0 242.5Q690 288 633 343Q577 288 515.0 242.5Q453 197 382.5 170.0Q312 143 232 143ZM1035 163H1198V288H1060Q965 288 881.5 326.0Q798 364 720.0 427.0Q642 490 563 564Q515 610 464.0 657.0Q413 704 355.0 746.0Q297 788 228 817Q190 834 157.0 843.0Q124 852 96 852Q86 852 79.5 850.0Q73 848 73 844Q73 837 79.5 832.5Q86 828 95 824Q142 804 174.0 788.0Q206 772 237.0 753.5Q268 735 310 706Q364 669 415.5 613.0Q467 557 520.5 493.5Q574 430 632 370Q688 313 751.0 266.0Q814 219 885.0 191.0Q956 163 1035 163ZM713 456Q776 528 835.5 595.5Q895 663 957 706Q999 735 1030.0 753.5Q1061 772 1093.0 788.0Q1125 804 1171 824Q1180 828 1186.5 832.5Q1193 837 1193 844Q1193 852 1170 852Q1142 852 1109.5 843.0Q1077 834 1039 817Q970 788 912.0 746.0Q854 704 803.0 657.0Q752 610 704 564Q690 551 675.5 538.0Q661 525 647 512Q660 501 674.5 488.5Q689 476 713 456ZM68 163H232Q308 163 376.0 189.0Q444 215 505.0 258.5Q566 302 620 355Q603 373 585.5 391.5Q568 410 551 429Q472 367 387.5 327.5Q303 288 207 288H68Z" />
  </g>
</svg>