<svg xmlns="http://www.w3.org/2000/svg" viewBox="49 0 1030 1001">
  <g transform="translate(0, 1001) scale(1, -1)">
    <path fill="black" d="M438 0Q438 24 426.5 48.5Q415 73 396 86Q391 90 383.0 95.0Q375 100 365 105Q344 118 317.5 134.0Q291 150 267.5 169.5Q244 189 231 210Q216 234 205.0 271.0Q194 308 186.0 350.5Q178 393 172.0 435.5Q166 478 161 514Q158 534 155.5 550.5Q153 567 151 579Q143 631 119.0 683.5Q95 736 49 790L85 813Q145 758 173.0 706.5Q201 655 213 605Q216 592 220.5 572.5Q225 553 229 529Q235 494 243.5 452.5Q252 411 261.5 371.0Q271 331 280.5 301.5Q290 272 299 261Q317 239 349.5 223.5Q382 208 415.0 199.0Q448 190 469 186Q507 180 530 168V450H518Q505 450 486.0 453.0Q467 456 448.5 466.0Q430 476 418.0 495.5Q406 515 406 548Q406 581 418.0 600.5Q430 620 448.5 630.0Q467 640 486.0 643.0Q505 646 518 646H530V874Q530 887 534.0 908.0Q538 929 551.5 950.5Q565 972 592.5 986.5Q620 1001 666 1001Q689 1001 710.5 994.0Q732 987 746.0 974.0Q760 961 760 944Q760 929 750.5 920.0Q741 911 729 911Q718 911 708 919Q701 924 691.0 928.5Q681 933 664 933Q635 933 621.0 921.5Q607 910 602.5 893.5Q598 877 598 863V168Q622 180 659 186Q680 190 713.5 199.0Q747 208 779.0 223.5Q811 239 829 261Q838 272 847.5 301.5Q857 331 866.5 371.0Q876 411 884.5 452.5Q893 494 899 529Q904 553 908.0 572.5Q912 592 915 605Q927 655 955.0 706.5Q983 758 1042 813L1079 790Q1033 736 1009.0 683.5Q985 631 977 579Q975 567 972.5 550.5Q970 534 967 514Q963 478 956.5 435.5Q950 393 942.0 350.5Q934 308 923.0 271.0Q912 234 897 210Q885 189 861.5 169.5Q838 150 811.5 134.0Q785 118 763 105Q753 100 745.0 95.0Q737 90 731 86Q713 73 701.0 48.5Q689 24 689 0ZM564 142Q570 150 579 157V863Q579 881 585.0 902.0Q591 923 609.0 938.0Q627 953 664 953Q685 953 698.0 947.0Q711 941 718 936Q722 934 724.5 932.0Q727 930 729 930Q741 930 741 944Q741 961 717.0 971.5Q693 982 666 982Q627 982 603.5 969.5Q580 957 568.0 939.0Q556 921 552.5 903.0Q549 885 549 874V626H518Q503 626 481.0 621.0Q459 616 442.0 599.5Q425 583 425 548Q425 513 442.0 496.0Q459 479 481.0 474.0Q503 469 518 469H549V157Q558 150 564 142ZM458 20H554V108Q553 129 532.0 144.5Q511 160 466 167Q444 170 408.5 180.0Q373 190 338.5 207.0Q304 224 284 249Q273 263 262.5 294.0Q252 325 242.0 364.5Q232 404 224.0 446.5Q216 489 209 525Q205 549 201.0 568.0Q197 587 194 600Q182 650 158.0 696.5Q134 743 84 789L79 785Q119 736 140.5 685.0Q162 634 171 583Q173 570 175.5 553.5Q178 537 180 517Q185 482 191.5 439.5Q198 397 206.0 355.0Q214 313 224.5 277.5Q235 242 248 220Q259 202 281.0 184.0Q303 166 328.5 150.0Q354 134 375 122Q385 116 393.5 111.0Q402 106 408 102Q430 87 443.0 65.0Q456 43 458 20ZM574 20H670Q672 43 685.0 65.0Q698 87 720 102Q726 106 734.5 111.0Q743 116 753 122Q774 134 799.0 150.0Q824 166 846.5 184.0Q869 202 880 220Q893 242 903.5 277.5Q914 313 922.0 355.0Q930 397 936.5 439.5Q943 482 948 517Q950 537 952.5 553.5Q955 570 957 582Q967 634 988.0 685.0Q1009 736 1049 785L1043 789Q994 743 970.0 696.5Q946 650 934 600Q931 587 927.5 568.0Q924 549 919 525Q912 489 904.0 446.5Q896 404 886.0 364.5Q876 325 865.5 294.0Q855 263 844 249Q824 224 789.5 207.0Q755 190 719.5 180.0Q684 170 662 167Q616 160 595.0 144.0Q574 128 574 106ZM512 486Q502 486 485.0 490.0Q468 494 455.0 507.0Q442 520 442 548Q442 576 455.0 589.0Q468 602 485.0 606.0Q502 610 512 610H549V486ZM512 505H530V590H512Q505 590 492.5 587.5Q480 585 470.5 576.0Q461 567 461 548Q461 529 470.5 520.0Q480 511 492.5 508.0Q505 505 512 505Z" />
  </g>
</svg>