<svg xmlns="http://www.w3.org/2000/svg" viewBox="49 201 1136 598">
  <g transform="translate(0, 1000) scale(1, -1)">
    <path fill="black" d="M851 201Q766 203 697.5 228.0Q629 253 572 311Q558 325 532.5 355.5Q507 386 474.0 425.0Q441 464 403.5 504.5Q366 545 327.5 581.0Q289 617 252 641Q214 667 174.0 690.0Q134 713 83 734Q72 739 60.5 748.0Q49 757 49 772Q49 786 58.5 792.5Q68 799 84 799Q95 799 108.5 796.5Q122 794 135 790Q151 785 184.0 771.5Q217 758 256.0 737.5Q295 717 329 692Q380 655 427.0 613.5Q474 572 513.0 533.5Q552 495 579.0 467.5Q606 440 618 430Q639 412 656.0 398.5Q673 385 694.0 376.0Q715 367 749.0 362.5Q783 358 839 358H1185V201ZM859 221H1166V338H843Q783 338 746.0 343.5Q709 349 685.5 359.0Q662 369 644.5 383.0Q627 397 606 414Q594 425 565.0 454.0Q536 483 495.5 522.0Q455 561 409.0 602.0Q363 643 317 677Q285 701 248.5 720.0Q212 739 180.0 752.5Q148 766 129 771Q103 779 84 779Q69 779 69 773Q69 766 78.5 759.0Q88 752 98 748Q135 733 176.5 710.5Q218 688 264 657Q301 632 339.5 595.5Q378 559 416.0 518.0Q454 477 487.0 438.0Q520 399 546.0 368.5Q572 338 586 324Q642 269 708.5 245.0Q775 221 859 221Z" />
  </g>
</svg>