<svg xmlns="http://www.w3.org/2000/svg" viewBox="49 -15 992 993">
  <g transform="translate(0, 963) scale(1, -1)">
    <path fill="black" d="M354 -15V20Q351 33 339.0 48.5Q327 64 327 85Q327 96 336.0 108.5Q345 121 354.5 133.0Q364 145 364 152Q364 162 356.5 173.0Q349 184 341.5 196.0Q334 208 333 221Q333 230 340.5 237.0Q348 244 355.0 251.0Q362 258 362 266Q362 276 354.0 289.5Q346 303 338.0 317.0Q330 331 330 340Q330 352 341.5 366.0Q353 380 364.5 393.0Q376 406 376 414Q377 424 362.5 442.5Q348 461 342 480Q314 510 284.5 537.0Q255 564 228 582Q194 605 158.0 625.0Q122 645 78 663Q68 667 58.5 677.5Q49 688 49 701Q49 727 80 727Q101 727 127 719Q141 715 169.5 703.0Q198 691 232.0 673.5Q266 656 295 634Q321 615 346.0 594.5Q371 574 394 554Q397 559 397 561Q397 571 389.5 583.0Q382 595 374.5 607.0Q367 619 367 629Q367 640 381.5 654.5Q396 669 410.0 681.5Q424 694 424 700Q424 708 419.0 718.5Q414 729 410.5 740.5Q407 752 412 762Q415 768 427.5 773.0Q440 778 456.0 782.5Q472 787 484.5 791.0Q497 795 498 799Q502 809 500.0 824.0Q498 839 497.0 853.0Q496 867 500 873Q503 877 518.0 876.5Q533 876 549.0 875.5Q565 875 568 878Q575 885 579.0 898.0Q583 911 587.0 923.0Q591 935 597 938Q602 941 617.5 937.0Q633 933 651.5 926.0Q670 919 685.0 913.5Q700 908 703 908Q716 907 729.5 913.0Q743 919 756 923Q753 932 747.5 943.0Q742 954 738 961L754 970Q757 965 761.5 956.0Q766 947 770 938Q784 955 815.0 966.5Q846 978 883 978Q934 978 970.5 958.0Q1007 938 1007 910Q1007 882 970.5 862.0Q934 842 883 842Q846 842 815.0 853.5Q784 865 770 882Q766 873 761.5 864.5Q757 856 754 851L738 859Q743 868 749.5 881.5Q756 895 758 904Q755 903 744.5 899.5Q734 896 722.0 892.5Q710 889 702 888Q696 888 681.5 893.0Q667 898 650.5 904.0Q634 910 621.5 914.0Q609 918 607 915Q600 905 594.5 886.5Q589 868 581 860Q575 855 562.0 855.5Q549 856 536.5 857.5Q524 859 521 855Q517 850 518.5 835.5Q520 821 521.0 806.5Q522 792 518 786Q514 780 494.5 775.0Q475 770 456.0 764.0Q437 758 434 750Q431 741 435.0 731.0Q439 721 443.5 712.0Q448 703 445 695Q443 687 428.0 674.0Q413 661 399.5 648.0Q386 635 387 626Q388 617 395.5 604.5Q403 592 410.0 580.0Q417 568 416 557Q416 553 413.5 549.5Q411 546 408 541Q459 495 496.5 456.0Q534 417 547 406Q566 390 580.5 378.5Q595 367 613.5 359.0Q632 351 661.5 347.0Q691 343 739 343H1041V201H750Q676 203 616.0 224.0Q556 245 506 294Q490 310 460.5 345.5Q431 381 394 424Q396 420 396.0 417.0Q396 414 396 412Q394 400 382.0 387.0Q370 374 359.5 361.5Q349 349 350 338Q351 329 358.5 317.5Q366 306 374.0 292.5Q382 279 382 264Q382 256 374.5 248.0Q367 240 360.0 232.5Q353 225 353 218Q354 210 361.5 198.5Q369 187 376.5 175.0Q384 163 384 150Q384 138 374.0 126.0Q364 114 354.5 103.5Q345 93 346 83Q347 76 354.0 63.5Q361 51 368.0 39.0Q375 27 374 23V-15ZM883 862Q925 862 955.5 876.5Q986 891 986 910Q986 930 955.5 944.0Q925 958 883 958Q845 958 815.5 946.0Q786 934 781 917H770V903H782Q789 885 817.5 873.5Q846 862 883 862ZM345 507Q350 515 360.0 524.0Q370 533 379 540Q356 560 332.0 580.5Q308 601 285 618Q257 639 225.5 655.5Q194 672 166.0 683.5Q138 695 122 699Q100 707 83 707Q69 707 69 701Q69 695 77.5 689.0Q86 683 94 679Q161 653 239 600Q265 583 292.0 558.5Q319 534 345 507ZM757 221H1021V323H743Q691 323 658.5 328.0Q626 333 606.0 341.5Q586 350 570.5 362.0Q555 374 537 389Q528 397 506.5 417.5Q485 438 456.0 467.0Q427 496 394 527Q382 517 371.0 507.5Q360 498 360 492V491Q395 454 426.0 417.5Q457 381 481.5 352.5Q506 324 519 311Q568 262 626.0 241.5Q684 221 757 221Z" />
  </g>
</svg>