<svg xmlns="http://www.w3.org/2000/svg" viewBox="49 180 767 585">
  <g transform="translate(0, 945) scale(1, -1)">
    <path fill="black" d="M77 180 49 195V230Q58 244 80.5 259.0Q103 274 132 274Q164 274 180.0 264.5Q196 255 200 252H339V256Q331 262 309.5 279.5Q288 297 261.5 326.0Q235 355 210.0 396.0Q185 437 168.5 489.5Q152 542 152 606Q152 656 179.5 692.5Q207 729 247 729Q276 729 296.0 711.0Q316 693 336 668Q350 651 368.0 632.0Q386 613 409 596L431 582Q455 567 486.0 544.0Q517 521 547.0 491.0Q577 461 596.5 423.5Q616 386 616 341Q616 320 612.0 297.0Q608 274 604 260Q610 254 629 254Q665 254 689.5 275.0Q714 296 729.0 327.0Q744 358 750.5 390.5Q757 423 757 446Q757 511 734.0 558.0Q711 605 688 639Q669 657 657.5 677.5Q646 698 646 715Q646 740 657.5 752.5Q669 765 688 765Q711 765 728.5 747.5Q746 730 755.5 706.0Q765 682 763 662Q771 639 783.5 603.5Q796 568 806.0 526.5Q816 485 816 443Q816 367 794.0 316.0Q772 265 738.5 235.0Q705 205 670.5 192.5Q636 180 611 180Q588 180 557.0 188.5Q526 197 506 204L502 180ZM83 199H485L488 219L502 227Q521 218 552.0 208.5Q583 199 611 199Q634 199 665.0 211.0Q696 223 726.0 250.5Q756 278 776.0 325.0Q796 372 796 443Q796 483 786.5 523.0Q777 563 764.5 597.5Q752 632 744 655Q744 675 737.0 696.0Q730 717 717.5 731.5Q705 746 688 746Q666 746 666 715Q666 702 675.0 684.5Q684 667 703 649Q728 614 752.0 564.5Q776 515 776 446Q776 421 768.5 385.5Q761 350 744.0 315.0Q727 280 698.5 257.0Q670 234 629 234Q613 234 599.0 239.5Q585 245 578 249Q584 264 590.5 290.0Q597 316 597 341Q597 383 578.0 417.5Q559 452 531.0 480.0Q503 508 473.0 529.5Q443 551 420 565L397 580Q373 597 355.0 617.0Q337 637 321 656Q302 679 286.0 694.0Q270 709 247 709Q215 709 193.0 679.0Q171 649 171 606Q171 545 188.5 491.5Q206 438 234.5 394.5Q263 351 295.5 318.5Q328 286 358 267V232H191Q188 237 174.5 246.0Q161 255 132 255Q110 255 92.5 244.5Q75 234 67 224V207Q70 206 75.0 203.5Q80 201 83 199Z" />
  </g>
</svg>