<svg xmlns="http://www.w3.org/2000/svg" viewBox="49 169 1061 335">
  <g transform="translate(0, 673) scale(1, -1)">
    <path fill="black" d="M1036 169 1026 172 1003 210 983 215Q961 243 935.0 273.5Q909 304 887.0 325.0Q865 346 856 346Q845 346 828.5 336.0Q812 326 795.0 312.5Q778 299 765 289Q751 278 730.0 262.5Q709 247 685.5 235.0Q662 223 640 223Q627 223 606.0 229.5Q585 236 562 243Q536 251 511.5 258.5Q487 266 471 266Q440 266 404.5 256.0Q369 246 335 235Q313 228 275.5 220.0Q238 212 202.0 207.0Q166 202 145 202Q116 202 105.5 206.0Q95 210 93 211Q77 225 63.0 257.0Q49 289 49 340Q49 391 61.0 433.0Q73 475 85 493Q96 497 124.5 500.5Q153 504 190 504Q277 504 334.5 496.0Q392 488 431.0 474.0Q470 460 501.0 440.5Q532 421 565 398Q594 378 619.0 362.0Q644 346 658 346Q664 346 681.0 356.0Q698 366 720 379Q752 399 789.0 418.5Q826 438 849 438Q874 438 897.5 419.5Q921 401 941.5 376.5Q962 352 977 335Q1005 306 1027.0 282.0Q1049 258 1071 237L1110 200ZM145 222Q165 222 200.0 227.0Q235 232 271.5 239.5Q308 247 330 254Q364 265 401.0 275.0Q438 285 471 285Q488 285 515.0 277.5Q542 270 567 262Q590 255 609.5 249.0Q629 243 640 243Q656 243 677.0 254.0Q698 265 719.0 280.0Q740 295 754 305Q767 314 785.0 328.5Q803 343 822.0 354.5Q841 366 856 366Q868 366 888.5 347.5Q909 329 931.5 303.5Q954 278 971.0 256.5Q988 235 992 229L1016 224L1047 237Q1043 240 1029.5 254.0Q1016 268 998.5 286.5Q981 305 964 323Q950 339 929.5 361.5Q909 384 888.0 401.5Q867 419 849 419Q829 419 795.5 401.0Q762 383 731 363Q707 348 688.0 337.0Q669 326 658 326Q639 326 612.0 343.5Q585 361 554 382Q521 405 491.5 423.5Q462 442 424.0 455.5Q386 469 330.5 476.5Q275 484 190 484Q153 484 131.0 481.5Q109 479 101 477Q115 457 126.0 433.0Q137 409 144.5 387.5Q152 366 152 354Q151 339 144.0 315.0Q137 291 128.0 266.0Q119 241 111 224Q114 223 122.0 222.5Q130 222 145 222ZM96 237Q103 251 111.0 274.5Q119 298 125.5 321.5Q132 345 133 358Q132 372 119.0 401.5Q106 431 89 457Q81 437 74.5 407.0Q68 377 68 340Q68 303 76.5 277.5Q85 252 96 237ZM1069 199 1083 205 1065 223 1053 218ZM1040 187 1055 193 1039 213 1025 208Z" />
  </g>
</svg>