<svg xmlns="http://www.w3.org/2000/svg" viewBox="49.6 0 339.4 979">
  <g transform="translate(0, 979) scale(1, -1)">
    <path fill="black" d="M92 0 100 13 56 5Q52 10 50.0 19.0Q48 28 56 40L118 131Q150 174 172.0 217.0Q194 260 194 320V382Q194 394 191.5 428.5Q189 463 185.0 511.0Q181 559 176.0 613.0Q171 667 166 717Q160 782 155.5 830.0Q151 878 151 888Q151 923 164.5 951.0Q178 979 206 979Q218 979 234.0 972.5Q250 966 263.5 959.0Q277 952 279 951L389 896Q380 862 369.0 810.5Q358 759 346.5 697.5Q335 636 324.5 571.0Q314 506 305.5 445.5Q297 385 292.0 336.0Q287 287 287 256Q287 237 289.5 205.0Q292 173 296.0 138.0Q300 103 303 75H256Q255 81 251.5 90.0Q248 99 237 99Q224 99 226 82L238 0ZM208 71 207 82Q205 96 212.0 107.0Q219 118 238 118Q249 118 258.0 111.0Q267 104 270 95H280Q279 110 275.5 139.0Q272 168 269.5 200.5Q267 233 267 256Q267 292 273.5 353.5Q280 415 291.0 489.0Q302 563 315.5 638.5Q329 714 342.0 779.0Q355 844 366 886L270 934Q256 942 236.5 950.5Q217 959 206 959Q188 959 179.0 937.5Q170 916 170 888Q170 883 172.5 858.5Q175 834 178.5 797.5Q182 761 186 719Q191 671 196.0 617.0Q201 563 205.0 513.5Q209 464 211.5 428.0Q214 392 213 381V320Q213 254 190.5 210.0Q168 166 134 119L132 117Q149 98 171.0 86.5Q193 75 208 71ZM75 28 111 35 153 77Q143 82 136.0 88.5Q129 95 121 102L75 35Q70 28 75 28ZM121 20H215Q213 34 210 52Q203 54 192.0 58.0Q181 62 169 67Z" />
  </g>
</svg>