<svg xmlns="http://www.w3.org/2000/svg" viewBox="49 -23 583 1005">
  <g transform="translate(0, 959) scale(1, -1)">
    <path fill="black" d="M560 -23Q535 -23 497.0 -2.5Q459 18 417.5 59.0Q376 100 339.5 162.5Q303 225 280.0 310.0Q257 395 257 502Q257 536 258.5 562.5Q260 589 261 608Q234 587 202.5 564.5Q171 542 140.5 521.5Q110 501 85.5 486.0Q61 471 49 465L62 504Q73 534 82.0 566.0Q91 598 97.5 639.0Q104 680 105 736Q106 771 97.5 806.0Q89 841 77.0 873.5Q65 906 54 930Q107 955 176.0 968.5Q245 982 308 982Q370 982 439.0 968.5Q508 955 561 930Q551 906 538.5 873.5Q526 841 517.5 806.0Q509 771 510 736Q511 680 517.5 639.0Q524 598 533.5 566.0Q543 534 553 504L566 465Q553 471 526.0 488.0Q499 505 465.5 527.5Q432 550 398.5 574.5Q365 599 339 620Q338 609 337.5 598.0Q337 587 337 579Q337 471 384.0 376.0Q431 281 516 216Q572 176 602.0 136.0Q632 96 632 52Q632 10 612.5 -6.5Q593 -23 560 -23ZM83 504Q105 518 136.5 540.0Q168 562 202.0 587.5Q236 613 264.5 636.0Q293 659 308 675Q323 659 351.5 636.0Q380 613 413.5 587.5Q447 562 479.0 540.0Q511 518 532 504Q516 548 504.0 599.5Q492 651 490 736Q489 788 504.5 836.5Q520 885 536 920Q489 941 427.5 952.0Q366 963 308 963Q250 963 188.5 952.0Q127 941 80 920Q95 885 110.5 836.0Q126 787 125 736Q124 680 118.0 639.0Q112 598 103.0 566.0Q94 534 83 504ZM560 -4Q583 -4 597.5 8.5Q612 21 612 52Q612 91 585.0 126.0Q558 161 504 200Q410 268 363.5 366.0Q317 464 317 579Q317 590 318.5 606.0Q320 622 321 635Q317 638 314.0 641.5Q311 645 308 647Q303 643 296.5 637.0Q290 631 283 625Q281 607 278.5 575.5Q276 544 276 502Q276 399 298.0 317.5Q320 236 355.0 175.5Q390 115 429.0 75.0Q468 35 503.0 15.5Q538 -4 560 -4Z" />
  </g>
</svg>