<svg xmlns="http://www.w3.org/2000/svg" viewBox="49 -23 517 1005">
  <g transform="translate(0, 959) scale(1, -1)">
    <path fill="black" d="M307 -23Q291 -23 277.0 5.5Q263 34 252.5 80.5Q242 127 236.0 181.0Q230 235 230 287Q230 341 236.0 403.0Q242 465 251.0 521.5Q260 578 267 614Q239 593 207.0 569.5Q175 546 144.0 524.5Q113 503 88.0 487.0Q63 471 49 465L62 504Q73 534 82.0 566.0Q91 598 97.5 639.0Q104 680 105 736Q106 771 97.5 806.0Q89 841 77.0 873.5Q65 906 54 930Q107 955 176.0 968.5Q245 982 308 982Q370 982 439.0 968.5Q508 955 561 930Q551 906 538.5 873.5Q526 841 517.5 806.0Q509 771 510 736Q511 680 517.5 639.0Q524 598 533.5 566.0Q543 534 553 504L566 465Q553 471 527.5 487.0Q502 503 470.5 525.0Q439 547 406.5 570.5Q374 594 346 616Q354 579 363.0 522.5Q372 466 378.0 403.5Q384 341 384 287Q384 235 378.0 181.0Q372 127 361.5 80.5Q351 34 337.0 5.5Q323 -23 307 -23ZM83 504Q105 518 136.5 540.0Q168 562 202.0 587.5Q236 613 264.5 636.0Q293 659 308 675Q323 659 351.5 636.0Q380 613 413.5 587.5Q447 562 479.0 540.0Q511 518 532 504Q522 534 513.0 566.0Q504 598 498.0 639.0Q492 680 490 736Q489 787 505.0 836.0Q521 885 536 920Q489 941 427.5 952.0Q366 963 308 963Q250 963 188.5 952.0Q127 941 80 920Q95 885 110.5 836.0Q126 787 125 736Q124 680 118.0 639.0Q112 598 103.0 566.0Q94 534 83 504ZM307 -4Q316 -4 326.5 22.0Q337 48 345.5 91.0Q354 134 359.5 185.0Q365 236 365 287Q365 332 360.5 382.5Q356 433 349.5 482.0Q343 531 335.5 571.0Q328 611 322 635L308 647Q304 644 300.5 641.0Q297 638 292 634Q286 610 279.0 570.5Q272 531 265.0 482.0Q258 433 254.0 382.5Q250 332 250 287Q250 236 255.5 185.0Q261 134 269.5 91.0Q278 48 288.0 22.0Q298 -4 307 -4Z" />
  </g>
</svg>