<svg xmlns="http://www.w3.org/2000/svg" viewBox="49 -23 1019 1005">
  <g transform="translate(0, 959) scale(1, -1)">
    <path fill="black" d="M480 -23Q464 -23 450.0 5.5Q436 34 425.5 80.5Q415 127 409.0 181.0Q403 235 403 287Q403 341 409.0 403.0Q415 465 424.0 521.5Q433 578 440 614Q413 593 380.5 569.5Q348 546 317.0 524.5Q286 503 261.0 487.0Q236 471 222 465L235 504Q250 546 262.5 594.0Q275 642 278 718H136L167 694L155 678L49 739V752L155 813L167 797L136 773H277Q272 817 256.5 858.0Q241 899 228 930Q281 955 349.5 968.5Q418 982 481 982Q543 982 612.5 968.5Q682 955 734 930Q721 899 705.5 858.0Q690 817 685 773H833Q844 792 868.0 803.5Q892 815 922 815Q950 815 973.0 804.5Q996 794 1008 777L1049 798L1058 780L1017 760L1018 755H1068V736H1018L1017 731L1058 711L1049 693L1008 714Q996 697 973.0 686.5Q950 676 922 676Q892 676 868.0 687.5Q844 699 833 718H684Q687 642 699.5 594.0Q712 546 727 504L740 465Q726 471 700.5 487.0Q675 503 643.5 525.0Q612 547 579.5 570.5Q547 594 520 616Q528 579 536.5 522.5Q545 466 551.5 403.5Q558 341 558 287Q558 235 552.0 181.0Q546 127 535.0 80.5Q524 34 510.0 5.5Q496 -23 480 -23ZM256 504Q278 518 309.5 540.0Q341 562 375.0 587.5Q409 613 437.5 636.0Q466 659 481 675Q496 659 524.5 636.0Q553 613 587.0 587.5Q621 562 652.5 540.0Q684 518 706 504Q691 546 679.0 594.0Q667 642 664 718H566V737H826Q825 740 825 746Q825 751 826 754H566V773H666Q671 814 683.5 852.5Q696 891 709 920Q662 941 601.0 952.0Q540 963 481 963Q423 963 361.5 952.0Q300 941 253 920Q270 879 284.0 833.0Q298 787 298 737Q296 677 289.5 635.0Q283 593 274.5 562.5Q266 532 256 504ZM922 695Q954 695 977.0 710.0Q1000 725 1000 746Q1000 766 977.0 781.0Q954 796 922 796Q890 796 867.5 781.0Q845 766 845 746Q845 725 867.5 710.0Q890 695 922 695ZM112 725 106 737H279Q279 742 279.0 746.0Q279 750 278 754H106L112 767L73 746ZM480 -4Q489 -4 499.5 22.0Q510 48 518.5 91.0Q527 134 532.5 185.0Q538 236 538 287Q538 332 534.0 382.5Q530 433 523.0 482.0Q516 531 508.5 571.0Q501 611 495 635L481 647Q477 644 473.5 641.0Q470 638 465 634Q459 610 452.0 570.5Q445 531 438.0 482.0Q431 433 427.0 382.5Q423 332 423 287Q423 236 428.5 185.0Q434 134 442.5 91.0Q451 48 461.0 22.0Q471 -4 480 -4Z" />
  </g>
</svg>