<svg xmlns="http://www.w3.org/2000/svg" viewBox="49 -28 626 1029">
  <g transform="translate(0, 973) scale(1, -1)">
    <path fill="black" d="M131 -28Q113 -28 101.5 -7.5Q90 13 83.0 43.0Q76 73 73.0 103.0Q70 133 70 152Q70 179 74.0 218.5Q78 258 83 287Q66 289 58.0 299.5Q50 310 50 323Q50 331 55.0 339.5Q60 348 67 360Q75 373 83.5 389.5Q92 406 98 425Q95 424 92.5 423.5Q90 423 87 423Q68 423 59.0 434.0Q50 445 50 460Q50 467 55.0 476.0Q60 485 67 497Q75 510 84.0 527.0Q93 544 98 563Q94 561 87 561Q49 561 49 604Q49 651 70.5 687.5Q92 724 126.5 749.5Q161 775 200.5 788.0Q240 801 275 801H291L174 907L231 962Q272 915 298.0 885.0Q324 855 333 844L323 1001H402L393 847L491 962L548 907L430 801H449Q484 801 523.5 788.0Q563 775 597.5 749.5Q632 724 653.5 687.5Q675 651 675 604Q675 561 636 561Q634 561 631.0 561.5Q628 562 625 563Q631 544 640.0 527.0Q649 510 657 497Q665 485 669.5 476.0Q674 467 674 460Q674 445 665.0 434.0Q656 423 636 423Q632 423 626 425Q631 406 640.0 389.5Q649 373 657 360Q665 348 669.5 339.5Q674 331 674 323Q674 310 666.0 299.5Q658 289 641 287Q646 258 650.0 218.5Q654 179 654 152Q654 133 651.0 103.0Q648 73 641.0 43.0Q634 13 622.0 -7.5Q610 -28 593 -28Q575 -28 563.5 -7.5Q552 13 545.0 43.0Q538 73 535.0 103.0Q532 133 532 152Q532 179 536.5 218.5Q541 258 545 287Q528 289 520.0 299.5Q512 310 512 323Q512 331 517.0 340.0Q522 349 529 362Q537 375 546.0 391.0Q555 407 560 425Q554 423 549 423Q530 423 521.0 434.0Q512 445 512 460Q512 468 517.0 477.0Q522 486 529 499Q537 512 546.0 528.0Q555 544 561 563Q558 562 555.0 561.5Q552 561 549 561Q531 561 521.0 570.5Q511 580 512 596Q512 602 514.5 607.5Q517 613 520 619Q522 624 523.5 629.5Q525 635 525 640Q525 660 514.0 681.0Q503 702 480.0 717.0Q457 732 419 733Q411 720 395 711Q397 688 406.5 669.5Q416 651 425 636Q433 625 438.0 615.0Q443 605 443 597Q443 583 434.0 572.0Q425 561 405 561Q398 561 394 563Q399 544 408.5 528.0Q418 512 425 499Q433 486 438.0 477.0Q443 468 443 460Q443 445 434.0 434.0Q425 423 405 423Q401 423 395 425Q400 407 409.0 391.0Q418 375 425 362Q433 349 438.0 340.0Q443 331 443 323Q443 310 435.0 299.5Q427 289 410 287Q415 258 419.0 218.5Q423 179 423 152Q423 133 420.0 103.0Q417 73 410.0 43.0Q403 13 391.0 -7.5Q379 -28 362 -28Q344 -28 332.5 -7.5Q321 13 314.0 43.0Q307 73 304.0 103.0Q301 133 301 152Q301 179 305.0 218.5Q309 258 313 287Q297 289 289.0 299.5Q281 310 281 323Q281 331 286.0 339.5Q291 348 298 360Q306 373 314.5 389.5Q323 406 329 425Q326 424 323.5 423.5Q321 423 318 423Q299 423 290.0 434.0Q281 445 281 460Q281 467 286.0 476.0Q291 485 298 497Q306 510 315.0 527.0Q324 544 329 563Q325 561 318 561Q299 561 290.0 572.0Q281 583 281 597Q281 605 286.0 615.0Q291 625 298 636Q308 650 317.5 668.5Q327 687 328 710Q311 720 302 732Q266 731 243.0 716.0Q220 701 209.5 680.5Q199 660 199 640Q199 629 204 619Q207 613 209.0 607.5Q211 602 212 596Q213 580 202.5 570.5Q192 561 174 561Q167 561 163 563Q168 544 177.5 528.0Q187 512 194 499Q202 486 207.0 477.0Q212 468 212 460Q212 445 203.0 434.0Q194 423 174 423Q170 423 164 425Q169 407 178.0 391.0Q187 375 194 362Q202 349 207.0 340.0Q212 331 212 323Q212 310 204.0 299.5Q196 289 179 287Q184 258 188.0 218.5Q192 179 192 152Q192 133 189.0 103.0Q186 73 179.0 43.0Q172 13 160.0 -7.5Q148 -28 131 -28ZM375 848 382 981H344L350 849Q353 849 355.5 849.5Q358 850 361 850Q367 850 375 848ZM422 816 520 907 492 934 405 835Q410 831 414.0 826.0Q418 821 422 816ZM299 816Q306 827 317 835L229 934L202 907ZM361 723Q384 723 399.5 738.5Q415 754 415 776Q415 799 399.5 814.5Q384 830 361 830Q339 830 323.0 814.5Q307 799 307 776Q307 754 323.0 738.5Q339 723 361 723ZM549 580Q557 580 567.0 591.5Q577 603 584 613H601Q608 603 618.5 591.5Q629 580 636 580Q655 580 655 604Q655 646 636.0 678.5Q617 711 586.0 734.0Q555 757 519.0 769.0Q483 781 449 781H434V776Q434 763 429 750Q465 749 490.5 731.5Q516 714 530.0 689.5Q544 665 544 640Q544 632 542.0 625.0Q540 618 537 611Q536 606 533.5 602.5Q531 599 531 595Q531 580 549 580ZM87 580Q95 580 105.5 591.5Q116 603 123 613H139Q146 603 156.5 591.5Q167 580 174 580Q192 580 192 595Q192 599 190.5 602.5Q189 606 187 611Q184 618 181.5 625.0Q179 632 179 640Q179 664 192.5 688.5Q206 713 231.5 730.0Q257 747 292 749Q290 755 289.0 762.0Q288 769 288 776V781H275Q241 781 204.5 769.0Q168 757 137.0 734.0Q106 711 87.0 678.5Q68 646 68 604Q68 580 87 580ZM318 580Q326 580 336.5 591.5Q347 603 354 613H370Q377 603 387.5 591.5Q398 580 405 580Q414 580 418.5 585.0Q423 590 423 597Q423 601 419.0 608.5Q415 616 409 625Q399 641 389.0 660.0Q379 679 376 699H348Q345 680 334.5 660.5Q324 641 315 625Q309 616 304.5 608.5Q300 601 300 597Q300 590 304.5 585.0Q309 580 318 580ZM549 443Q557 443 567.0 454.5Q577 466 584 476H601Q608 466 618.5 454.5Q629 443 636 443Q645 443 649.5 448.0Q654 453 654 460Q654 463 649.5 470.5Q645 478 640 487Q630 505 617.0 530.0Q604 555 601 582L593 591Q591 589 589.0 586.5Q587 584 584 582Q581 557 569.0 532.0Q557 507 546 489Q540 479 535.5 471.0Q531 463 531 460Q531 453 535.5 448.0Q540 443 549 443ZM87 443Q95 443 105.5 454.5Q116 466 123 476H139Q146 466 156.5 454.5Q167 443 174 443Q184 443 188.0 448.0Q192 453 192 460Q192 463 188.0 471.0Q184 479 178 489Q167 507 155.0 532.0Q143 557 139 582Q133 588 131 591L123 582Q119 555 106.5 530.0Q94 505 83 487Q78 478 73.5 470.5Q69 463 69 460Q69 453 73.5 448.0Q78 443 87 443ZM318 443Q326 443 336.5 454.5Q347 466 354 476H370Q377 466 387.5 454.5Q398 443 405 443Q414 443 418.5 448.0Q423 453 423 460Q423 463 419.0 471.0Q415 479 409 489Q398 507 386.0 532.0Q374 557 370 582Q364 588 362 591L354 582Q350 555 337.5 530.0Q325 505 314 487Q309 478 304.5 470.5Q300 463 300 460Q300 453 304.5 448.0Q309 443 318 443ZM87 306Q95 306 105.5 317.5Q116 329 123 339H139Q146 329 156.5 317.5Q167 306 174 306Q184 306 188.0 311.0Q192 316 192 323Q192 326 188.0 334.0Q184 342 178 352Q167 370 155.0 394.5Q143 419 139 444Q135 448 131 454L123 444Q119 418 106.5 393.0Q94 368 83 351Q78 341 73.5 334.0Q69 327 69 323Q69 316 73.5 311.0Q78 306 87 306ZM549 306Q557 306 567.0 317.5Q577 329 584 339H601Q608 329 618.5 317.5Q629 306 636 306Q645 306 649.5 311.0Q654 316 654 323Q654 327 649.5 334.0Q645 341 640 351Q630 368 617.5 393.0Q605 418 601 444L593 454Q591 452 589.0 449.0Q587 446 584 444Q581 419 569.0 394.5Q557 370 546 352Q540 342 535.5 334.0Q531 326 531 323Q531 316 535.5 311.0Q540 306 549 306ZM318 306Q326 306 336.5 317.5Q347 329 354 339H370Q377 329 387.5 317.5Q398 306 405 306Q414 306 418.5 311.0Q423 316 423 323Q423 326 419.0 334.0Q415 342 409 352Q398 370 386.0 394.5Q374 419 370 444Q366 448 362 454L354 444Q350 418 337.5 393.0Q325 368 314 351Q309 341 304.5 334.0Q300 327 300 323Q300 316 304.5 311.0Q309 306 318 306ZM131 -9Q143 -9 151.0 9.0Q159 27 163.5 54.0Q168 81 170.0 108.0Q172 135 172 152Q172 180 167.5 221.5Q163 263 158 292Q150 297 143.0 304.0Q136 311 131 317Q126 311 119.0 304.0Q112 297 104 292Q99 263 94.0 221.5Q89 180 89 152Q89 135 91.0 108.0Q93 81 98.0 54.0Q103 27 111.0 9.0Q119 -9 131 -9ZM593 -9Q605 -9 613.0 9.0Q621 27 625.5 54.0Q630 81 632.0 108.0Q634 135 634 152Q634 180 629.5 221.5Q625 263 620 292Q612 297 605.0 304.0Q598 311 593 317Q588 311 581.0 304.0Q574 297 566 292Q561 263 556.0 221.5Q551 180 551 152Q551 135 553.0 108.0Q555 81 560.0 54.0Q565 27 573.0 9.0Q581 -9 593 -9ZM362 -9Q374 -9 382.0 9.0Q390 27 394.5 54.0Q399 81 401.0 108.0Q403 135 403 152Q403 180 398.5 221.5Q394 263 389 292Q381 297 374.0 304.0Q367 311 362 317Q357 311 350.0 304.0Q343 297 335 292Q330 263 325.0 221.5Q320 180 320 152Q320 135 322.0 108.0Q324 81 329.0 54.0Q334 27 342.0 9.0Q350 -9 362 -9Z" />
  </g>
</svg>