<svg xmlns="http://www.w3.org/2000/svg" viewBox="49 191 1078 274">
  <g transform="translate(0, 656) scale(1, -1)">
    <path fill="black" d="M155 191Q135 191 126.0 204.5Q117 218 117 235Q117 242 118.0 249.5Q119 257 122 265Q118 270 113.5 274.0Q109 278 106 283Q82 286 65.5 296.5Q49 307 49 328Q49 349 65.5 360.0Q82 371 106 374Q112 382 122 391Q119 399 118.0 406.5Q117 414 117 421Q117 438 126.0 451.5Q135 465 155 465Q170 465 182.5 454.5Q195 444 204 426Q211 428 217.0 428.0Q223 428 229 428H236Q244 444 254.5 453.5Q265 463 280 463Q304 463 313.0 448.0Q322 433 322 414V410Q330 408 338.5 405.5Q347 403 355 400Q364 416 376.5 425.0Q389 434 405 432Q428 429 435.0 412.0Q442 395 440 376L439 370L479 354Q517 367 572.0 378.0Q627 389 691.0 395.5Q755 402 817 402Q869 402 923.0 397.5Q977 393 1023.5 383.5Q1070 374 1098.5 360.0Q1127 346 1127 328Q1127 310 1098.5 296.0Q1070 282 1023.5 272.5Q977 263 923.0 258.5Q869 254 817 254Q755 254 691.0 260.5Q627 267 572.0 278.0Q517 289 479 301L439 286L440 280Q442 261 435.0 244.5Q428 228 405 224Q389 223 376.5 231.5Q364 240 355 256Q347 253 338.5 251.0Q330 249 322 246V243Q322 224 313.0 208.5Q304 193 280 193Q265 193 254.5 203.0Q244 213 236 229Q233 228 229 228Q223 228 217.0 228.5Q211 229 204 230Q195 213 182.5 202.0Q170 191 155 191ZM139 404Q157 415 184 422Q170 446 155 446Q145 446 141.0 438.5Q137 431 137 421Q137 417 137.5 413.0Q138 409 139 404ZM303 416Q302 427 297.0 435.5Q292 444 280 444Q267 444 257 426Q268 424 279.0 421.5Q290 419 303 416ZM420 377V379Q422 391 418.5 401.0Q415 411 402 413Q388 414 374 394ZM229 248Q254 248 290.5 257.0Q327 266 367.0 279.5Q407 293 441.5 306.5Q476 320 496 328Q476 337 441.5 350.5Q407 364 367.0 377.5Q327 391 290.5 400.0Q254 409 229 409Q205 409 178.0 400.5Q151 392 131.5 374.0Q112 356 112 328Q112 300 131.5 282.5Q151 265 178.0 256.5Q205 248 229 248ZM233 258Q184 258 154.5 277.0Q125 296 125 328Q125 361 154.5 379.5Q184 398 233 398Q264 398 307.0 385.5Q350 373 393.5 357.0Q437 341 467 328Q437 316 393.5 299.5Q350 283 307.0 270.5Q264 258 233 258ZM817 274Q899 274 965.0 283.0Q1031 292 1069.5 304.5Q1108 317 1108 328Q1108 339 1069.5 351.5Q1031 364 965.0 373.0Q899 382 817 382Q729 382 647.0 370.0Q565 358 509 343Q520 338 530.0 334.0Q540 330 544 328Q540 326 530.0 322.0Q520 318 509 313Q565 298 647.0 286.0Q729 274 817 274ZM233 277Q258 277 290.0 285.5Q322 294 355.5 306.0Q389 318 417 328Q389 339 355.5 350.5Q322 362 290.0 370.5Q258 379 233 379Q193 379 169.0 365.5Q145 352 145 328Q145 304 169.0 290.5Q193 277 233 277ZM96 304Q92 315 92 328Q92 343 96 352Q68 345 68 328Q68 311 96 304ZM402 244Q415 246 418.5 256.0Q422 266 420 277V279L374 263Q387 241 402 244ZM155 210Q163 210 170.0 217.0Q177 224 184 234Q157 241 139 252Q138 248 137.5 243.5Q137 239 137 235Q137 225 141.0 217.5Q145 210 155 210ZM280 212Q292 212 297.0 221.0Q302 230 303 241Q290 237 279.0 234.5Q268 232 257 230Q267 212 280 212Z" />
  </g>
</svg>