<svg xmlns="http://www.w3.org/2000/svg" viewBox="49 178 967 629">
  <g transform="translate(0, 985) scale(1, -1)">
    <path fill="black" d="M984 178 910 219Q906 218 900.5 218.0Q895 218 890 218Q866 218 828.5 224.5Q791 231 747.5 244.5Q704 258 661.0 279.5Q618 301 582.5 331.5Q547 362 527 402Q518 422 510.5 444.5Q503 467 500 480L49 765L74 807L531 530Q539 532 561.5 536.0Q584 540 612 540Q661 540 707.5 519.0Q754 498 795.0 465.0Q836 432 868.0 395.5Q900 359 920.5 327.5Q941 296 946 279L1016 232ZM977 205 990 226Q975 237 959.0 247.0Q943 257 929 267Q927 281 908.5 310.5Q890 340 860.0 376.0Q830 412 790.5 445.0Q751 478 705.5 499.5Q660 521 612 521Q587 521 564.0 517.0Q541 513 528 509L81 781L75 772Q185 702 296.0 631.0Q407 560 517 491Q519 478 526.5 456.0Q534 434 545 411Q564 374 597.5 345.0Q631 316 672.0 296.0Q713 276 754.5 263.0Q796 250 832.0 244.0Q868 238 890 238Q896 238 902.0 238.5Q908 239 913 241Z" />
  </g>
</svg>