<svg xmlns="http://www.w3.org/2000/svg" viewBox="49 -1 262 997">
  <g transform="translate(0, 995) scale(1, -1)">
    <path fill="black" d="M180 -1Q170 -1 148.5 6.0Q127 13 104.0 35.0Q81 57 65.0 99.5Q49 142 49 213Q49 258 61.0 290.0Q73 322 90.0 343.0Q107 364 123.0 375.5Q139 387 147 392V862H54V917H147V996H212V917H306V862H212V392Q221 387 237.0 375.0Q253 363 270.0 342.0Q287 321 299.0 289.5Q311 258 311 213Q311 142 295.0 99.5Q279 57 256.0 35.0Q233 13 212.0 6.0Q191 -1 180 -1ZM93 83Q98 103 108.0 126.5Q118 150 136.0 167.0Q154 184 180 184Q206 184 223.5 167.0Q241 150 251.5 126.5Q262 103 266 83Q277 106 284.0 137.5Q291 169 291 213Q291 269 272.5 302.5Q254 336 232.5 353.5Q211 371 201 376L202 375L192 380V977H167V380L158 375V376Q151 372 136.5 361.5Q122 351 106.0 332.0Q90 313 79.0 284.0Q68 255 68 213Q68 169 75.5 137.5Q83 106 93 83ZM73 882H147V898H73ZM212 882H286V898H212ZM110 213 91 219Q97 231 107.5 245.0Q118 259 136.0 269.5Q154 280 180 280Q206 280 223.5 269.5Q241 259 251.5 245.0Q262 231 268 219L250 213Q243 227 226.0 243.5Q209 260 180 260Q150 260 133.0 243.5Q116 227 110 213ZM180 19Q189 19 210.0 26.5Q231 34 250 59Q249 68 245.0 85.5Q241 103 232.5 121.0Q224 139 211.0 152.0Q198 165 180 165Q161 165 148.0 152.0Q135 139 126.5 121.0Q118 103 114.0 85.5Q110 68 109 59H108Q128 34 149.0 26.5Q170 19 180 19Z" />
  </g>
</svg>