<svg xmlns="http://www.w3.org/2000/svg" viewBox="49 -12 267 1013">
  <g transform="translate(0, 989) scale(1, -1)">
    <path fill="black" d="M183 -12Q156 -12 141.0 2.0Q126 16 119.5 37.0Q113 58 108 79Q106 87 104.5 94.5Q103 102 100 107Q96 118 91.5 127.0Q87 136 82 145Q70 166 59.5 189.0Q49 212 49 233Q49 261 67.0 285.0Q85 309 122 309Q137 309 150.0 306.5Q163 304 171 300L127 933H55V1001H316V933H237L194 300Q203 304 215.5 306.5Q228 309 244 309Q280 309 298.0 285.0Q316 261 316 233Q316 212 305.5 189.0Q295 166 283 145Q278 135 273.0 125.0Q268 115 265 107Q263 103 261.0 95.5Q259 88 257 79Q253 58 246.0 37.0Q239 16 224.5 2.0Q210 -12 183 -12ZM75 953H297V982H75ZM183 378 218 933H147ZM173 8 172 277Q168 281 155.0 285.5Q142 290 122 290Q95 290 81.5 271.5Q68 253 68 233Q68 216 78.0 195.0Q88 174 99 154Q105 144 110.5 133.5Q116 123 119 115H118Q122 107 124.0 99.0Q126 91 127 83Q132 60 141.5 36.5Q151 13 173 8ZM192 8Q215 13 224.0 36.5Q233 60 238 83Q240 91 241.5 99.0Q243 107 247 115Q249 123 254.5 133.5Q260 144 267 154Q278 174 287.5 195.0Q297 216 297 233Q297 253 283.5 271.5Q270 290 244 290Q225 290 212.0 286.0Q199 282 193 278Z" />
  </g>
</svg>