<svg xmlns="http://www.w3.org/2000/svg" viewBox="49 -18 1055 820">
  <g transform="translate(0, 784) scale(1, -1)">
    <path fill="black" d="M1007 -18Q988 -18 967.5 -6.0Q947 6 933.0 27.5Q919 49 919 77Q919 96 924.0 116.0Q929 136 934 156Q939 176 943.5 196.0Q948 216 948 237Q948 265 934.0 298.5Q920 332 896.5 363.0Q873 394 843 412Q831 417 812.0 418.5Q793 420 777 420H676L609 94H589L657 420H512L444 94H425L492 420H347L280 94H260L328 420H183L115 94H96L163 420H49V440H167L242 802H262L187 440H332L407 802H426L351 440H496L571 802H591L516 440H661L736 802H755L680 440H774Q850 440 905.5 420.0Q961 400 999.5 367.0Q1038 334 1061.0 294.5Q1084 255 1094.0 216.5Q1104 178 1104 147Q1104 94 1089.0 57.0Q1074 20 1052.0 1.0Q1030 -18 1007 -18ZM1007 1Q1034 1 1059.0 39.0Q1084 77 1084 147Q1084 195 1062.5 247.0Q1041 299 997.0 342.5Q953 386 883 408Q916 374 942.0 332.0Q968 290 968 237Q968 216 963.0 194.0Q958 172 953 151Q948 133 943.5 113.5Q939 94 939 77Q939 43 962.0 22.0Q985 1 1007 1Z" />
  </g>
</svg>