<svg xmlns="http://www.w3.org/2000/svg" viewBox="49 63 794 841">
  <g transform="translate(0, 967) scale(1, -1)">
    <path fill="black" d="M291 63Q273 63 249.0 74.0Q225 85 204.5 108.0Q184 131 175 167H87V222H169Q171 272 183.0 300.5Q195 329 205 345L206 346L49 889L99 904L256 361Q268 355 288.0 340.5Q308 326 329.0 304.0Q350 282 365 252Q370 287 380.5 309.5Q391 332 398 345L399 346L242 889L292 904L449 361Q461 355 481.0 340.5Q501 326 522.5 304.0Q544 282 559 252Q563 287 573.5 309.5Q584 332 592 345L593 346L436 889L485 904L643 361Q657 354 681.0 335.5Q705 317 729.0 289.0Q753 261 764 222H843V167H771Q771 129 756.5 106.0Q742 83 721.0 73.0Q700 63 678 63Q655 63 624.5 80.0Q594 97 574 134Q564 95 538.0 79.0Q512 63 484 63Q462 63 431.0 80.0Q400 97 380 134Q371 95 345.0 79.0Q319 63 291 63ZM189 222H357Q346 258 322.0 283.5Q298 309 274.5 325.0Q251 341 239 347L85 880Q83 879 80.5 878.5Q78 878 73 876L227 344Q225 341 223.5 338.0Q222 335 221 333V334Q212 320 201.0 294.0Q190 268 189 222ZM382 222H550Q539 258 515.5 283.5Q492 309 468.5 325.0Q445 341 433 347L278 880Q276 879 273.5 878.5Q271 878 266 876L420 344Q418 341 417.0 338.0Q416 335 414 333L415 334Q406 320 395.0 294.0Q384 268 382 222ZM576 222H744Q733 258 709.0 283.5Q685 309 661.5 325.0Q638 341 626 347L472 880Q469 879 466.5 878.5Q464 878 459 876L613 344Q612 341 610.5 338.0Q609 335 607 333L608 334Q599 320 588.0 294.0Q577 268 576 222ZM106 187H823V203H106ZM291 83Q317 83 340.5 101.5Q364 120 365 167H195Q208 123 238.5 103.0Q269 83 291 83ZM484 83Q510 83 534.0 101.5Q558 120 559 167H388Q402 123 432.0 103.0Q462 83 484 83ZM678 83Q704 83 727.5 101.5Q751 120 752 167H582Q595 123 625.0 103.0Q655 83 678 83Z" />
  </g>
</svg>