<svg xmlns="http://www.w3.org/2000/svg" viewBox="49 225 733.0 467">
  <g transform="translate(0, 917) scale(1, -1)">
    <path fill="black" d="M92 225Q73 225 61.0 238.0Q49 251 49 270Q49 287 58.0 302.0Q67 317 75 329L168 458L75 588Q67 600 58.0 615.5Q49 631 49 647Q49 667 61.0 679.5Q73 692 92 692Q105 692 117.0 687.5Q129 683 143 664L147 657Q150 673 161.5 682.5Q173 692 190 692Q203 692 215.0 687.5Q227 683 240 664L245 657Q248 673 259.5 682.5Q271 692 288 692Q300 692 312.0 687.5Q324 683 338 664L342 657Q345 673 357.0 682.5Q369 692 385 692Q398 692 410.0 687.5Q422 683 436 664L546 510Q586 509 620.5 502.0Q655 495 681 478Q716 456 736.0 424.5Q756 393 765.5 359.5Q775 326 780 298Q782 292 782.0 285.5Q782 279 782 273Q782 254 774.5 240.5Q767 227 751 226Q736 226 723.0 239.5Q710 253 700.0 272.0Q690 291 684 307L679 321Q668 350 653.0 380.0Q638 410 616 423Q605 430 589.0 432.0Q573 434 565 434L436 253Q422 234 410.0 229.5Q398 225 385 225Q369 225 357.0 234.5Q345 244 342 260L338 253Q324 234 312.0 229.5Q300 225 288 225Q271 225 259.5 234.5Q248 244 245 260L240 253Q227 234 215.0 229.5Q203 225 190 225Q173 225 161.5 234.5Q150 244 147 260L143 253Q129 234 117.0 229.5Q105 225 92 225ZM92 245Q100 245 108.5 248.5Q117 252 127 265L266 458L127 652Q117 666 108.5 669.0Q100 672 92 672Q68 672 68 647Q68 634 76.0 622.0Q84 610 91 600L192 458L91 317Q84 307 76.0 295.0Q68 283 68 270Q68 245 92 245ZM190 245Q198 245 206.5 248.5Q215 252 225 265L364 458L225 652Q215 666 206.5 669.0Q198 672 190 672Q166 672 166 647Q166 637 171.5 626.0Q177 615 184 606L290 458L184 311Q177 301 171.5 291.0Q166 281 166 270Q166 245 190 245ZM288 245Q296 245 304.0 248.5Q312 252 322 265L461 458L322 652Q312 666 304.0 669.0Q296 672 288 672Q264 672 264 647Q264 637 269.0 626.0Q274 615 281 606L388 458L281 311Q274 301 269.0 291.0Q264 281 264 270Q264 245 288 245ZM385 245Q393 245 401.5 248.5Q410 252 420 265L555 452H579Q590 451 603.0 448.0Q616 445 625 440Q653 423 669.0 390.0Q685 357 697 327L703 313Q708 301 715.0 285.0Q722 269 731.5 257.0Q741 245 750 245Q755 245 759.0 254.5Q763 264 763 277Q763 282 762.5 287.5Q762 293 761 297Q755 322 745.5 352.5Q736 383 718.5 412.5Q701 442 670 461Q650 475 621.5 481.0Q593 487 561 490H537L420 652Q410 666 401.5 669.0Q393 672 385 672Q361 672 361 647Q361 637 366.5 626.0Q372 615 379 606L485 458L379 311Q372 301 366.5 291.0Q361 281 361 270Q361 245 385 245Z" />
  </g>
</svg>