<svg xmlns="http://www.w3.org/2000/svg" viewBox="49 17 849 909">
  <g transform="translate(0, 943) scale(1, -1)">
    <path fill="black" d="M816 17Q792 17 768.5 38.0Q745 59 745 111Q745 126 747.5 142.0Q750 158 753 174Q757 193 760.0 212.0Q763 231 763 248Q763 324 737.0 373.0Q711 422 664 432V415H596V367H454V415H251V367H109V415H49V522H87L153 884Q157 905 170.5 915.5Q184 926 203 926Q224 926 239 909Q253 926 277 926Q299 926 313 909Q328 926 352 926Q374 926 388 909Q402 926 427 926Q449 926 463 909Q477 926 501 926Q523 926 538 909Q552 926 576 926Q598 926 612 909Q627 926 651 926Q671 926 684.5 912.5Q698 899 695 880Q679 792 662.5 701.5Q646 611 630 522H664V491Q721 479 761.5 449.5Q802 420 828.5 381.0Q855 342 870.5 301.5Q886 261 892.0 226.0Q898 191 898 170Q898 114 885.0 80.5Q872 47 853.5 32.0Q835 17 816 17ZM555 522H610L676 884Q678 893 670.0 899.5Q662 906 651 906Q626 906 621 880L587 695ZM480 522H535L601 884Q603 893 595.0 899.5Q587 906 576 906Q566 906 557.0 899.5Q548 893 546 880L512 695ZM406 522H460L526 884Q528 893 520.0 899.5Q512 906 501 906Q491 906 482.0 899.5Q473 893 471 880L438 695ZM331 522H386L452 884Q454 893 446.0 899.5Q438 906 427 906Q416 906 407.0 899.5Q398 893 396 880L363 695ZM256 522H311L377 884Q379 893 371.0 899.5Q363 906 352 906Q327 906 322 880L288 695ZM182 522H236L302 884Q304 893 296.0 899.5Q288 906 277 906Q267 906 258.0 899.5Q249 893 247 880L213 695ZM107 522H162L228 884Q229 893 221.5 899.5Q214 906 203 906Q192 906 183.0 899.5Q174 893 172 880ZM128 386H232V434H473V386H577V434H644V502H68V434H128ZM816 37Q837 37 857.5 67.0Q878 97 878 170Q878 190 872.0 222.5Q866 255 852.0 293.0Q838 331 814.0 367.0Q790 403 753.0 431.0Q716 459 664 471V452Q720 442 751.5 387.0Q783 332 783 248Q783 228 780.0 208.0Q777 188 773 170Q770 154 767.0 138.0Q764 122 764 111Q764 71 781.0 54.0Q798 37 816 37Z" />
  </g>
</svg>