<svg xmlns="http://www.w3.org/2000/svg" viewBox="49 17 1093 909">
  <g transform="translate(0, 943) scale(1, -1)">
    <path fill="black" d="M131 17Q113 17 94.0 32.0Q75 47 62.0 80.5Q49 114 49 170Q49 191 56.0 226.5Q63 262 79.0 303.5Q95 345 123.0 384.0Q151 423 193.0 452.5Q235 482 293 493V522H331L397 884Q401 905 414.5 915.5Q428 926 447 926Q469 926 483 909Q497 926 521 926Q543 926 558 909Q572 926 596 926Q618 926 632 909Q647 926 671 926Q693 926 707 909Q721 926 746 926Q767 926 782 909Q796 926 820 926Q842 926 856 909Q871 926 895 926Q915 926 928.5 912.5Q942 899 939 880Q923 792 907.0 701.5Q891 611 874 522H908V491Q965 479 1005.5 449.5Q1046 420 1072.5 381.0Q1099 342 1114.5 301.5Q1130 261 1136.0 226.0Q1142 191 1142 170Q1142 114 1129.0 80.5Q1116 47 1097.5 32.0Q1079 17 1060 17Q1036 17 1012.5 38.0Q989 59 989 111Q989 126 991.5 142.0Q994 158 998 174Q1001 193 1004.0 212.0Q1007 231 1007 248Q1007 324 981.0 373.0Q955 422 908 432V415H840V367H698V415H496V367H353V415H293V433Q243 426 213.5 376.5Q184 327 184 248Q184 231 186.5 212.0Q189 193 193 174Q197 158 199.5 142.0Q202 126 202 111Q202 59 178.5 38.0Q155 17 131 17ZM799 522H854L920 884Q922 893 914.0 899.5Q906 906 895 906Q870 906 865 880L831 695ZM725 522H779L845 884Q847 893 839.0 899.5Q831 906 820 906Q810 906 801.0 899.5Q792 893 790 880L756 695ZM650 522H705L771 884Q772 893 764.5 899.5Q757 906 746 906Q735 906 726.0 899.5Q717 893 715 880L682 695ZM575 522H630L696 884Q698 893 690.0 899.5Q682 906 671 906Q646 906 641 880L607 695ZM351 522H406L472 884Q474 893 466.0 899.5Q458 906 447 906Q436 906 427.5 899.5Q419 893 417 880ZM426 522H480L546 884Q548 893 540.0 899.5Q532 906 521 906Q511 906 502.0 899.5Q493 893 491 880L458 695ZM500 522H555L621 884Q623 893 615.0 899.5Q607 906 596 906Q586 906 577.0 899.5Q568 893 566 880L532 695ZM373 386H476V434H717V386H821V434H888V502H313V434H373ZM131 37Q148 37 165.5 54.0Q183 71 183 111Q183 122 180.0 138.0Q177 154 174 170Q170 188 167.0 208.0Q164 228 164 248Q164 335 199.0 390.5Q234 446 293 453V472Q239 461 200.5 433.5Q162 406 136.5 369.5Q111 333 96.0 294.5Q81 256 74.5 223.0Q68 190 68 170Q68 97 89.0 67.0Q110 37 131 37ZM1060 37Q1081 37 1102.0 67.0Q1123 97 1123 170Q1123 190 1117.0 222.5Q1111 255 1097.0 293.0Q1083 331 1058.5 367.0Q1034 403 997.0 431.0Q960 459 908 471V452Q964 442 995.5 387.0Q1027 332 1027 248Q1027 228 1024.0 208.0Q1021 188 1017 170Q1014 154 1011.0 138.0Q1008 122 1008 111Q1008 71 1025.5 54.0Q1043 37 1060 37Z" />
  </g>
</svg>