<svg xmlns="http://www.w3.org/2000/svg" viewBox="49 184 1100 439">
  <g transform="translate(0, 807) scale(1, -1)">
    <path fill="black" d="M1090 184Q1055 184 1034.5 208.0Q1014 232 991 268Q975 295 953.0 326.0Q931 357 896 384Q887 379 855.5 365.5Q824 352 781.5 340.0Q739 328 694 328Q632 328 582.0 350.0Q532 372 495.5 403.5Q459 435 436.0 463.0Q413 491 405 503Q336 493 276.5 474.5Q217 456 176 442Q151 433 132.5 427.5Q114 422 103 422Q84 422 66.5 430.0Q49 438 49 463Q49 493 85.0 521.5Q121 550 184.5 573.0Q248 596 331.5 609.5Q415 623 511 623Q624 623 715.0 600.0Q806 577 876.5 539.5Q947 502 998.5 458.5Q1050 415 1083.5 372.5Q1117 330 1133.0 297.0Q1149 264 1149 249Q1149 217 1132.5 200.5Q1116 184 1090 184ZM1090 203Q1108 203 1119.0 214.5Q1130 226 1130 249Q1130 262 1114.5 292.5Q1099 323 1066.5 363.0Q1034 403 984.0 445.0Q934 487 865.5 523.0Q797 559 708.5 581.0Q620 603 511 603Q414 603 332.5 590.0Q251 577 192.0 555.5Q133 534 100.5 509.5Q68 485 68 462Q68 441 103 441Q113 441 129.0 447.0Q145 453 169 461Q208 474 260.0 490.0Q312 506 374.5 518.0Q437 530 504 530Q600 530 676.5 510.0Q753 490 810.0 461.0Q867 432 903 404Q941 376 965.5 341.5Q990 307 1008 278Q1028 247 1045.5 225.0Q1063 203 1090 203ZM694 348Q732 348 769.5 357.5Q807 367 836.5 378.5Q866 390 879 397Q843 424 789.5 450.0Q736 476 664.5 493.0Q593 510 504 510Q485 510 465.5 508.5Q446 507 427 505Q438 490 460.5 464.0Q483 438 517.0 411.5Q551 385 595.5 366.5Q640 348 694 348Z" />
  </g>
</svg>