<svg xmlns="http://www.w3.org/2000/svg" viewBox="49 -20 501 1021">
  <g transform="translate(0, 981) scale(1, -1)">
    <path fill="black" d="M290 -20V867Q290 917 257.0 949.5Q224 982 167 982Q112 982 90.0 954.0Q68 926 68 894Q68 866 80.5 844.5Q93 823 115 823Q136 823 143.5 842.5Q151 862 149 881L168 882Q169 865 164.5 847.0Q160 829 148.0 816.5Q136 804 115 804Q83 804 66.0 832.0Q49 860 49 894Q49 920 60.0 944.5Q71 969 97.0 985.0Q123 1001 167 1001Q218 1001 251.5 977.5Q285 954 299 916Q313 954 346.5 977.5Q380 1001 431 1001Q476 1001 502.0 985.0Q528 969 539.0 944.5Q550 920 550 894Q550 860 533.0 832.0Q516 804 484 804Q463 804 450.5 816.5Q438 829 433.5 847.0Q429 865 430 882L450 881Q449 862 456.0 842.5Q463 823 484 823Q507 823 518.5 844.5Q530 866 530 894Q530 926 508.5 954.0Q487 982 431 982Q374 982 341.5 949.5Q309 917 309 867V-20Z" />
  </g>
</svg>