<svg xmlns="http://www.w3.org/2000/svg" viewBox="49 163 1122 357">
  <g transform="translate(0, 683) scale(1, -1)">
    <path fill="black" d="M196 163Q152 163 118.5 188.5Q85 214 67.0 255.0Q49 296 49 341Q49 383 64.5 424.5Q80 466 112.5 493.0Q145 520 196 520H1054Q1107 520 1139.0 499.0Q1171 478 1171 423Q1171 384 1154.5 364.5Q1138 345 1114.5 338.5Q1091 332 1069 332H238V351H1069Q1087 351 1106.0 356.0Q1125 361 1138.0 376.5Q1151 392 1151 423Q1151 467 1124.5 483.5Q1098 500 1054 500H197Q154 500 125.0 476.0Q96 452 82.0 415.5Q68 379 68 341Q68 300 84.0 263.5Q100 227 129.0 205.0Q158 183 196 183H1167V163Z" />
  </g>
</svg>