<svg xmlns="http://www.w3.org/2000/svg" viewBox="49 -44 1029 1030">
  <g transform="translate(0, 942) scale(1, -1)">
    <path fill="black" d="M432 -44V290H196Q152 290 118.5 313.5Q85 337 67.0 375.0Q49 413 49 458Q49 500 64.5 539.0Q80 578 112.5 602.5Q145 627 196 627H432V864Q432 892 443.0 920.0Q454 948 483.0 967.0Q512 986 565 986Q619 986 648.0 967.0Q677 948 688.0 920.0Q699 892 699 864V627H961Q1014 627 1046.0 608.5Q1078 590 1078 535Q1078 496 1061.5 477.5Q1045 459 1021.5 454.0Q998 449 976 449H699V310H1074V290H699V226H631V290H500V-44ZM451 -24H480V858Q480 895 503.0 917.5Q526 940 565 940Q605 940 628.0 917.5Q651 895 651 858V245H680V864Q680 888 670.5 911.5Q661 935 636.5 951.0Q612 967 565 967Q519 967 494.5 951.0Q470 935 460.5 911.5Q451 888 451 864ZM500 627H631V858Q631 886 613.5 903.5Q596 921 565 921Q534 921 517.0 903.5Q500 886 500 858ZM196 310H432V449H238V468H432V607H197Q154 607 125.0 586.0Q96 565 82.0 531.0Q68 497 68 458Q68 417 84.0 383.5Q100 350 129.0 330.0Q158 310 196 310ZM500 468H631V607H500ZM699 468H976Q994 468 1013.0 471.5Q1032 475 1045.5 489.5Q1059 504 1059 535Q1059 579 1032.0 593.0Q1005 607 961 607H699ZM500 310H631V449H500Z" />
  </g>
</svg>