<svg xmlns="http://www.w3.org/2000/svg" viewBox="49 149 393 501">
  <g transform="translate(0, 799) scale(1, -1)">
    <path fill="black" d="M376 149Q373 209 353.5 245.5Q334 282 304.5 303.5Q275 325 240.5 338.5Q206 352 172.5 364.0Q139 376 111.0 393.5Q83 411 66.0 441.5Q49 472 49 523Q49 578 83.5 614.0Q118 650 182 650Q220 650 265.0 628.5Q310 607 350.5 565.5Q391 524 416.5 463.5Q442 403 442 325Q442 267 427.5 219.5Q413 172 399 149ZM393 178Q401 195 411.5 232.5Q422 270 422 325Q422 399 398.0 455.5Q374 512 337.0 551.5Q300 591 258.5 611.0Q217 631 182 631Q126 631 97.0 600.5Q68 570 68 523Q68 478 84.0 451.0Q100 424 126.0 407.5Q152 391 184.5 379.0Q217 367 250.0 354.0Q283 341 313.0 320.5Q343 300 364.0 266.0Q385 232 393 178Z" />
  </g>
</svg>