<svg xmlns="http://www.w3.org/2000/svg" viewBox="49 -94 316 1094">
  <g transform="translate(0, 906) scale(1, -1)">
    <path fill="black" d="M307 597Q304 653 283.5 684.0Q263 715 234.0 732.0Q205 749 173.0 759.5Q141 770 112.5 784.0Q84 798 66.5 824.0Q49 850 49 898Q49 942 77.5 971.0Q106 1000 155 1000Q186 1000 222.5 982.5Q259 965 291.5 932.0Q324 899 344.5 850.0Q365 801 365 738Q365 692 353.5 654.0Q342 616 331 597ZM323 625Q329 639 337.5 667.0Q346 695 346 738Q346 796 327.5 841.0Q309 886 279.5 917.0Q250 948 217.5 964.0Q185 980 157 980Q114 980 91.0 957.0Q68 934 68 898Q68 856 84.5 833.0Q101 810 127.5 797.0Q154 784 184.5 773.5Q215 763 244.0 747.5Q273 732 294.5 703.5Q316 675 323 625ZM307 251Q304 307 283.5 338.5Q263 370 234.0 386.5Q205 403 173.0 414.0Q141 425 112.5 439.0Q84 453 66.5 479.0Q49 505 49 553Q49 597 77.5 626.0Q106 655 155 655Q186 655 222.5 637.5Q259 620 291.5 587.0Q324 554 344.5 505.0Q365 456 365 393Q365 347 353.5 308.5Q342 270 331 251ZM323 280Q329 294 337.5 322.0Q346 350 346 393Q346 450 327.5 495.0Q309 540 279.5 571.5Q250 603 217.5 619.0Q185 635 157 635Q114 635 91.0 612.0Q68 589 68 553Q68 511 84.5 488.0Q101 465 127.5 452.0Q154 439 184.5 428.5Q215 418 244.0 402.5Q273 387 294.5 358.5Q316 330 323 280ZM307 -94Q304 -38 283.5 -6.5Q263 25 234.0 41.5Q205 58 173.0 69.0Q141 80 112.5 94.0Q84 108 66.5 134.0Q49 160 49 208Q49 252 77.5 281.0Q106 310 155 310Q186 310 222.5 292.5Q259 275 291.5 241.5Q324 208 344.5 159.0Q365 110 365 47Q365 1 353.5 -37.0Q342 -75 331 -94ZM323 -65Q329 -51 337.5 -23.0Q346 5 346 47Q346 105 327.5 150.0Q309 195 279.5 226.5Q250 258 217.5 274.0Q185 290 157 290Q114 290 91.0 266.5Q68 243 68 208Q68 166 84.5 143.0Q101 120 127.5 107.0Q154 94 184.5 83.5Q215 73 244.0 57.5Q273 42 294.5 13.5Q316 -15 323 -65Z" />
  </g>
</svg>