<svg xmlns="http://www.w3.org/2000/svg" viewBox="49 141 335 529">
  <g transform="translate(0, 811) scale(1, -1)">
    <path fill="black" d="M227 141Q181 141 140.0 159.5Q99 178 74.0 212.5Q49 247 49 293Q49 328 63.0 355.5Q77 383 97.5 403.0Q118 423 138.0 437.0Q158 451 171 458Q185 466 201.0 477.0Q217 488 229.0 498.5Q241 509 241 516Q241 525 230.5 535.0Q220 545 206 556Q183 575 160.5 600.5Q138 626 138 670H178Q182 651 203.0 629.0Q224 607 243 594Q279 571 308.5 549.0Q338 527 338 510Q338 498 330.5 485.5Q323 473 314 462Q308 455 303.5 448.0Q299 441 299 438Q299 437 305.0 428.5Q311 420 319 409Q332 392 347.0 368.0Q362 344 373.0 318.5Q384 293 384 269Q384 208 340.5 174.5Q297 141 227 141ZM227 161Q288 161 326.0 189.0Q364 217 364 269Q364 291 353.5 314.5Q343 338 329.0 359.5Q315 381 303 397Q293 411 286.5 421.0Q280 431 280 438Q280 446 285.5 455.0Q291 464 298 474Q306 483 312.5 493.0Q319 503 319 510Q319 516 307.0 526.0Q295 536 277.5 548.0Q260 560 243 571Q216 588 195.5 610.0Q175 632 167 651H157Q161 625 180.0 605.5Q199 586 218 571Q235 558 248.0 545.0Q261 532 261 516Q261 503 247.5 489.0Q234 475 215.0 463.0Q196 451 181 442Q170 436 151.5 423.5Q133 411 113.5 393.0Q94 375 81.0 350.0Q68 325 68 293Q68 252 90.5 222.5Q113 193 149.5 177.0Q186 161 227 161Z" />
  </g>
</svg>