<svg xmlns="http://www.w3.org/2000/svg" viewBox="49 0 911 996">
  <g transform="translate(0, 996) scale(1, -1)">
    <path fill="black" d="M650 0Q645 0 628.0 1.5Q611 3 590 4Q562 6 532.0 7.5Q502 9 488 9Q478 9 455.0 8.0Q432 7 404.0 6.0Q376 5 351 4Q330 3 313.5 2.0Q297 1 294 1Q289 1 282.5 6.5Q276 12 271 16Q267 13 261.0 10.0Q255 7 250 6Q238 10 212 10Q203 10 191.5 8.0Q180 6 170 4Q164 3 159.5 2.0Q155 1 150 1Q125 1 122 22Q114 17 110 7L92 14Q100 32 118.5 42.5Q137 53 159 55L277 64Q288 87 298.5 123.0Q309 159 315 202Q266 183 224.0 173.5Q182 164 153 162Q126 161 98.5 166.5Q71 172 49 190L322 274Q323 285 323.5 295.5Q324 306 324 317Q325 317 323.5 335.5Q322 354 319.5 382.5Q317 411 313.5 441.0Q310 471 307.0 493.0Q304 515 301 521Q298 529 287.5 555.0Q277 581 265.0 614.5Q253 648 244.0 680.0Q235 712 235 731Q235 755 241.0 777.0Q247 799 253 816Q257 827 259.5 836.5Q262 846 262 853Q262 867 255.0 879.0Q248 891 234 891L111 896Q104 896 100.0 892.5Q96 889 96 885H72V908Q72 921 82.0 934.5Q92 948 113 952L315 996H395Q426 996 444.0 984.0Q462 972 469 943L486 868L557 796Q562 789 570.0 778.0Q578 767 589 751Q615 716 651.0 665.0Q687 614 720 563Q736 589 751.0 619.5Q766 650 767 696Q743 718 707.0 738.0Q671 758 607 774Q615 809 620.5 841.5Q626 874 626 908Q626 922 625.0 940.0Q624 958 622 979H699Q695 959 689.5 931.0Q684 903 684 886Q684 852 718.0 817.0Q752 782 809.0 752.5Q866 723 935 703Q934 695 918.5 665.5Q903 636 879.5 597.5Q856 559 829.5 521.5Q803 484 780 461L960 34L952 7H918L867 57L875 33Q868 23 852.5 12.5Q837 2 818 2Q778 2 747.5 27.0Q717 52 697 107L642 257Q631 229 618.5 201.0Q606 173 596 145L530 173L511 63L521 55H654Q674 55 691.0 44.0Q708 33 716 15L697 8Q693 17 685 24Q683 16 674.5 8.0Q666 0 650 0ZM650 20Q658 20 662.5 23.5Q667 27 667 30Q667 35 661.5 35.5Q656 36 652 36H508L490 58L513 201L586 170L629 285L496 421Q469 449 440.5 485.0Q412 521 387.0 559.0Q362 597 346.5 632.0Q331 667 331 694Q331 714 339.5 724.0Q348 734 358.5 737.5Q369 741 376 741Q381 741 388.5 740.0Q396 739 403 738Q414 737 423.5 735.5Q433 734 439 734Q447 734 455.5 734.5Q464 735 472 736Q480 737 486.5 737.5Q493 738 500 738Q511 738 525.5 737.0Q540 736 549 735L547 715Q538 717 524.0 718.0Q510 719 500 719Q495 719 488.5 718.5Q482 718 474 717Q466 716 458.0 715.0Q450 714 439 714Q432 714 421.0 715.5Q410 717 400 718Q393 720 385.5 720.5Q378 721 376 721Q370 721 360.0 716.0Q350 711 350 694Q350 669 365.0 636.0Q380 603 404.0 567.0Q428 531 456.0 496.5Q484 462 510 435L926 25L938 26Q940 32 940 33L756 469Q732 511 698.5 561.5Q665 612 631.5 659.5Q598 707 573 740Q563 755 554.0 766.5Q545 778 541 785L468 859L449 939Q441 977 395 977H316Q312 976 294.5 972.5Q277 969 254 964Q260 947 286 921L277 910Q273 913 264.5 916.0Q256 919 232 919L162 920Q125 920 111.0 915.5Q97 911 93 907V905Q97 907 104.5 908.5Q112 910 121 910H235Q259 911 270.5 892.0Q282 873 282 853Q282 844 279.0 833.5Q276 823 271 810V811Q266 794 260.5 773.5Q255 753 255 731Q255 713 263.0 682.5Q271 652 282.5 619.5Q294 587 304.5 562.0Q315 537 319 529L452 292Q465 273 478.0 242.5Q491 212 490 186L489 119Q488 69 473.0 52.0Q458 35 420 33L308 29Q304 29 298.0 28.5Q292 28 287 27Q292 21 294 21Q297 21 312.5 21.5Q328 22 350 23Q375 25 403.0 26.0Q431 27 454.5 28.0Q478 29 488 29Q502 29 532.5 27.0Q563 25 591 23Q612 22 628.5 21.0Q645 20 650 20ZM317 919Q308 919 301.5 926.0Q295 933 295 942Q295 951 301.5 957.5Q308 964 317 964Q327 964 333.5 957.5Q340 951 340 942Q340 933 333.5 926.0Q327 919 317 919ZM771 480Q791 501 813.5 531.5Q836 562 856.0 593.5Q876 625 891.0 650.5Q906 676 912 689Q843 710 787.0 741.5Q731 773 698.0 810.5Q665 848 665 886Q665 890 666.5 904.0Q668 918 671.0 934.0Q674 950 677 960H643Q646 932 646 908Q646 873 641.5 845.0Q637 817 631 788Q692 772 726.0 751.0Q760 730 786 704Q786 652 769.5 615.0Q753 578 732 545Q743 528 753.0 511.5Q763 495 771 480ZM93 919Q104 925 119.5 929.0Q135 933 162 933L252 934Q242 947 238 960L123 937Q112 934 104.0 930.0Q96 926 93 923ZM317 933Q326 933 326 942Q326 951 317 951Q309 951 309 942Q309 933 317 933ZM291 47 311 49 360 236 432 196 447 267 329 471Q333 440 336.0 403.5Q339 367 341.0 338.5Q343 310 343 301Q343 252 336.0 203.5Q329 155 317.0 114.5Q305 74 291 47ZM818 22Q827 22 837.0 27.5Q847 33 853 37Q851 44 845.0 61.5Q839 79 837 86L664 256L715 114Q732 67 758.5 44.5Q785 22 818 22ZM152 182Q180 185 223.5 195.5Q267 206 318 225Q319 232 319.5 239.0Q320 246 321 253L97 184Q126 179 152 182ZM331 50 419 52Q446 53 457.0 67.5Q468 82 469 119L471 186Q471 197 467.5 212.5Q464 228 461 238Q457 219 453.0 200.5Q449 182 446 166L372 207Q361 166 351.5 129.0Q342 92 331 50ZM150 21Q151 21 156.0 22.0Q161 23 167 24Q177 26 189.0 27.5Q201 29 212 29Q223 29 234.0 28.0Q245 27 251 26L253 28Q253 41 260 42L153 35Q141 33 141 29Q141 21 150 21Z" />
  </g>
</svg>