<svg xmlns="http://www.w3.org/2000/svg" viewBox="49 -10 1265 1016">
  <g transform="translate(0, 996) scale(1, -1)">
    <path fill="black" d="M184 -10Q181 4 181.0 21.0Q181 38 189.5 50.0Q198 62 218 62Q229 62 236.5 58.0Q244 54 248 51Q256 62 274 62Q286 62 293.5 58.0Q301 54 305 51Q313 62 331 62Q340 62 346.5 59.0Q353 56 357 54Q363 61 372.5 65.0Q382 69 393 67Q396 81 400.0 113.0Q404 145 399 178Q397 211 384.0 260.0Q371 309 352.5 362.0Q334 415 315 458Q314 460 296.0 478.0Q278 496 253.0 525.0Q228 554 203.0 587.5Q178 621 161.5 653.5Q145 686 145 710Q145 749 150.5 770.5Q156 792 161.5 804.5Q167 817 167 828Q167 843 154.0 853.0Q141 863 123 863Q105 863 85.0 856.5Q65 850 49 837V897Q49 912 62.0 929.5Q75 947 89 957Q93 957 102.5 957.5Q112 958 121 959Q140 964 160.0 975.5Q180 987 201.0 996.5Q222 1006 244 1006Q290 1006 319.0 997.5Q348 989 367 963Q383 943 387.0 915.5Q391 888 391 861V830Q408 822 443.5 805.5Q479 789 521.5 768.0Q564 747 603.5 726.0Q643 705 667 689Q703 665 743.5 629.5Q784 594 823.5 555.0Q863 516 897.5 480.0Q932 444 958.5 418.0Q985 392 998 383Q1010 375 1035.5 359.5Q1061 344 1093.0 325.5Q1125 307 1157.0 289.0Q1189 271 1213.5 256.0Q1238 241 1248 234Q1273 217 1293.5 196.0Q1314 175 1314 162Q1314 145 1305.0 141.0Q1296 137 1288 137Q1281 137 1263.5 144.5Q1246 152 1232 159L1101 226Q1128 207 1158.0 184.5Q1188 162 1215 140Q1237 122 1251.5 106.0Q1266 90 1267 77Q1268 71 1262.5 67.5Q1257 64 1252 64Q1248 64 1243.0 65.5Q1238 67 1234 68Q1236 62 1236 58Q1236 53 1231.5 47.5Q1227 42 1218 42Q1208 42 1200 46Q1200 43 1200.5 40.5Q1201 38 1201 36Q1201 32 1199.5 27.5Q1198 23 1193 23Q1188 23 1179.5 25.5Q1171 28 1164 30Q1165 26 1165 20Q1165 14 1163.5 9.0Q1162 4 1158 4Q1155 4 1141.0 11.5Q1127 19 1106.5 30.0Q1086 41 1065.0 54.0Q1044 67 1029 77Q1014 87 985.0 108.5Q956 130 921.0 156.5Q886 183 851.5 209.5Q817 236 792 257L635 292Q639 280 638.5 252.0Q638 224 629 195L587 221L579 185H572Q572 174 569.5 148.5Q567 123 567.0 98.0Q567 73 572 62Q574 58 579.0 56.5Q584 55 597 55H647Q652 59 661.0 64.0Q670 69 683 69Q706 69 715.0 53.5Q724 38 725.0 20.0Q726 2 725 -6Q710 18 690 18Q682 18 674.5 11.5Q667 5 662 -2H622Q608 1 586.0 4.5Q564 8 547 8Q528 8 511.0 4.5Q494 1 485 -2H406Q404 5 399.0 11.5Q394 18 387 18Q373 18 368.0 6.0Q363 -6 363 -8Q354 -1 353 11Q349 13 343.5 14.0Q338 15 330 15Q319 15 310.0 6.5Q301 -2 297 -10Q296 -5 295.5 0.5Q295 6 294 12Q290 13 285.0 14.0Q280 15 273 15Q262 15 253.5 6.5Q245 -2 241 -10Q238 1 238 12Q234 13 229.0 14.0Q224 15 216 15Q205 15 196.5 6.5Q188 -2 184 -10ZM1288 156Q1294 156 1294 162Q1294 170 1276.0 187.0Q1258 204 1237 219Q1229 225 1204.5 239.0Q1180 253 1148.5 271.0Q1117 289 1084.0 308.0Q1051 327 1025.0 342.5Q999 358 987 366Q974 375 948.0 401.0Q922 427 887.5 462.5Q853 498 813.5 537.0Q774 576 734.0 611.5Q694 647 656 672Q635 686 600.5 705.0Q566 724 526.0 744.0Q486 764 445.5 783.0Q405 802 372 817V861Q372 886 368.5 910.0Q365 934 351 952Q335 972 311.0 979.5Q287 987 247 987Q226 987 204.0 977.0Q182 967 161 956L162 937Q164 934 170.0 925.0Q176 916 180 908L165 869Q186 853 186 828Q186 813 180.5 800.5Q175 788 169.5 768.0Q164 748 164 710Q164 682 184.0 647.5Q204 613 232.5 578.0Q261 543 288.5 514.0Q316 485 331 470Q396 402 441.5 337.5Q487 273 509 220L523 249L567 209Q569 217 571.5 228.0Q574 239 575 246L617 223Q621 240 619.0 264.5Q617 289 609 313L805 273Q824 273 857.5 281.0Q891 289 917 299Q862 310 800.5 319.0Q739 328 680.5 340.0Q622 352 574 370Q554 378 520.5 395.5Q487 413 449.5 438.5Q412 464 378.5 496.0Q345 528 324.0 564.5Q303 601 303 641Q303 664 315.0 678.0Q327 692 344.5 699.0Q362 706 378 706H524V686H378Q360 686 341.5 675.5Q323 665 323 641Q323 604 343.5 569.0Q364 534 396.5 504.0Q429 474 465.0 450.5Q501 427 532.0 411.0Q563 395 581 389Q628 371 689.0 359.5Q750 348 811 337Q868 328 925.0 317.5Q982 307 1024 286L1241 177Q1254 170 1269.0 163.0Q1284 156 1288 156ZM223 920Q213 920 206.5 926.5Q200 933 200 943Q200 953 206.5 959.5Q213 966 223 966Q232 966 239.0 959.5Q246 953 246 943Q246 933 239.0 926.5Q232 920 223 920ZM223 933Q232 933 232 943Q232 953 223 953Q212 953 212 943Q212 933 223 933ZM151 876 163 904 144 932V947Q133 943 122.0 940.0Q111 937 101 937L104 907H141L139 891L100 892L91 878Q108 883 123 883Q137 883 151 876ZM68 875 89 901 84 928Q77 921 72.5 913.0Q68 905 68 897ZM444 184 463 215 479 192Q481 197 483.5 205.5Q486 214 487 219Q468 264 432.5 318.5Q397 373 349 426Q372 368 391.5 304.0Q411 240 417 195L437 214ZM1151 23Q1147 27 1146.5 37.0Q1146 47 1149 49Q1154 52 1163.0 49.5Q1172 47 1180 42Q1179 46 1179.0 49.5Q1179 53 1179 56Q1179 59 1180.5 63.5Q1182 68 1189 68Q1194 68 1203.0 65.0Q1212 62 1217 61Q1210 68 1210 78Q1210 84 1214.5 87.0Q1219 90 1223 90Q1231 90 1238.5 86.0Q1246 82 1247 82Q1247 82 1247.5 82.5Q1248 83 1249 84Q1241 94 1228.5 105.0Q1216 116 1201 129Q1170 156 1131.5 184.5Q1093 213 1061.0 236.5Q1029 260 1015 271Q999 278 981.5 283.5Q964 289 944 293Q932 285 910.5 277.0Q889 269 866.0 263.5Q843 258 824 256Q889 204 942.0 162.5Q995 121 1038 92Q1075 67 1104.0 50.5Q1133 34 1151 23ZM419 17H481Q484 19 502.0 23.0Q520 27 547 27Q564 27 586.5 23.5Q609 20 623 17H650Q654 24 663.0 32.0Q672 40 685 40Q690 40 697.0 36.5Q704 33 705 31Q702 39 696.5 45.5Q691 52 682 52Q672 52 662.0 46.0Q652 40 647 35H597Q568 35 559.5 48.0Q551 61 550 80Q549 108 550.5 136.5Q552 165 555 195L530 217L518 197Q522 185 524.5 174.5Q527 164 528 154V66Q528 50 518.0 42.0Q508 34 491 34H421Q418 39 410.5 44.0Q403 49 393 49Q380 49 375.5 41.5Q371 34 369 28Q372 31 379.5 32.5Q387 34 391 34Q402 34 409.0 28.0Q416 22 419 17ZM447 53H491Q501 53 504.5 57.5Q508 62 508 75V153Q505 172 496 199L484 163L474 180Q473 175 468.5 158.0Q464 141 459.0 119.5Q454 98 450.5 79.5Q447 61 447 53ZM427 55Q432 81 440.5 119.0Q449 157 456 182L439 158L430 189L419 173Q419 169 419.5 164.5Q420 160 420 155Q420 125 418.5 109.5Q417 94 415.0 84.5Q413 75 410 63Q415 63 419.5 60.0Q424 57 427 55ZM308 25Q312 27 318.0 29.5Q324 32 331 32Q337 32 342.5 30.5Q348 29 351 28V38Q349 40 344.0 42.5Q339 45 331 45Q322 45 316.0 38.5Q310 32 308 25ZM195 25Q199 27 205.0 29.5Q211 32 217 32Q225 32 231.0 30.0Q237 28 238 27L240 36Q239 37 233.5 41.0Q228 45 217 45Q208 45 202.5 38.5Q197 32 195 25ZM251 25Q255 27 261.0 29.5Q267 32 274 32Q281 32 287.0 30.0Q293 28 295 27L296 36Q296 37 290.5 41.0Q285 45 274 45Q265 45 259.0 38.5Q253 32 251 25Z" />
  </g>
</svg>