<svg xmlns="http://www.w3.org/2000/svg" viewBox="49 -20 1016 1024">
  <g transform="translate(0, 984) scale(1, -1)">
    <path fill="black" d="M147 -20Q153 10 174.5 28.5Q196 47 244 50L339 57L354 152Q355 157 355.5 164.5Q356 172 356 178Q356 237 336.5 300.5Q317 364 298 418L289 446Q276 463 262.5 479.5Q249 496 238 512Q220 536 199.5 565.0Q179 594 164.0 626.0Q149 658 149 691V776Q149 786 146.0 800.5Q143 815 133.5 826.5Q124 838 105 838Q87 838 78.5 829.5Q70 821 68 816H49V835Q49 875 66.5 893.5Q84 912 101 925L129 953Q133 960 144.0 972.0Q155 984 180.5 994.0Q206 1004 251 1004Q308 1004 341.0 985.0Q374 966 395.0 933.5Q416 901 435 860Q442 856 463.5 844.5Q485 833 503 824Q541 788 585.0 734.5Q629 681 672.5 623.5Q716 566 750 518Q750 518 764.0 501.0Q778 484 799.5 457.5Q821 431 844.0 404.0Q867 377 885.0 356.0Q903 335 910 330Q919 324 945.0 300.0Q971 276 1004.0 245.5Q1037 215 1065 188L1039 154Q1015 171 984.0 190.0Q953 209 916 231L1002 102L835 -5L725 197Q717 212 700.0 234.0Q683 256 661.0 275.0Q639 294 613 299V90Q597 104 573.0 119.0Q549 134 535 137V57Q556 57 583.5 54.0Q611 51 626 46Q652 38 668.0 17.0Q684 -4 687 -20Q671 -11 656.0 -7.5Q641 -4 619 -4H376Q354 -4 339.5 -7.5Q325 -11 308 -20Q309 -16 310.5 -12.5Q312 -9 313 -5Q289 -8 267 -20Q268 -13 272 -4H256Q234 -4 219.5 -7.5Q205 -11 188 -20Q189 -16 190.0 -12.5Q191 -9 193 -5Q169 -8 147 -20ZM395 15H600V32Q581 35 556.0 36.0Q531 37 514 37V164Q534 160 557.0 149.5Q580 139 593 131V320Q630 319 660.0 298.0Q690 277 711.5 251.0Q733 225 742 207L843 23Q878 45 909.0 65.5Q940 86 975 108Q967 120 950.5 144.5Q934 169 914.5 198.0Q895 227 879 250Q815 287 738.5 329.0Q662 371 582.5 413.0Q503 455 430.5 492.5Q358 530 303 558Q288 566 267.0 581.5Q246 597 225.5 617.5Q205 638 191.0 661.0Q177 684 177 706Q177 732 200.5 758.0Q224 784 266.0 802.5Q308 821 361 824L362 805Q314 802 276.5 786.5Q239 771 218.0 749.5Q197 728 197 706Q197 687 209.5 667.5Q222 648 241.0 629.5Q260 611 279.5 597.0Q299 583 313 575Q383 540 464.5 498.5Q546 457 630.0 412.5Q714 368 791.5 325.0Q869 282 932.5 244.5Q996 207 1035 180L1039 185Q1030 193 1010.5 211.5Q991 230 967.5 251.5Q944 273 924.5 290.5Q905 308 897 314Q891 319 873.0 339.0Q855 359 831.5 387.5Q808 416 782.5 447.0Q757 478 734 506Q709 541 678.0 582.0Q647 623 614.5 665.0Q582 707 550.0 744.0Q518 781 490 808Q486 810 463.0 822.5Q440 835 420 845Q402 884 382.5 915.5Q363 947 332.5 965.5Q302 984 251 984Q207 984 184.5 975.0Q162 966 154.5 956.0Q147 946 146 943L113 910Q100 900 86.0 886.5Q72 873 69 847Q73 854 86.0 869.5Q99 885 122 885Q134 885 143.5 880.5Q153 876 161 869Q165 868 169.0 869.0Q173 870 173 875Q173 879 172 881Q161 881 153.5 889.0Q146 897 146 908Q146 919 153.5 927.5Q161 936 174 936H215Q247 936 268.0 916.5Q289 897 289 868Q289 848 277.5 832.5Q266 817 250.5 806.5Q235 796 224 790Q220 788 213.0 788.5Q206 789 204 796H195V784H183Q180 802 172.0 821.5Q164 841 151.5 854.0Q139 867 122 867Q115 867 109.0 864.0Q103 861 98 857H105Q131 857 144.5 844.5Q158 832 163.5 813.5Q169 795 169 776V691Q169 662 183.0 631.5Q197 601 217.5 572.0Q238 543 257 518Q289 477 326.0 431.5Q363 386 393 354Q430 315 450.0 276.5Q470 238 478.0 208.5Q486 179 485 164L478 38Q462 38 437.5 36.5Q413 35 395 32ZM173 896Q184 896 184 908Q184 919 173 919Q161 919 161 908Q161 896 173 896ZM190 818Q190 820 189.5 824.0Q189 828 189 830Q189 842 196.5 851.5Q204 861 217 861Q231 861 238.5 850.5Q246 840 246 832Q246 829 244 821Q255 829 263.0 841.0Q271 853 271 868Q271 889 255.5 903.5Q240 918 215 918H198Q200 915 200 908Q200 891 185 883Q187 880 189.0 875.5Q191 871 190 865Q189 860 184.0 857.5Q179 855 174 854Q179 847 183.5 837.0Q188 827 190 818ZM217 808Q232 808 232 827Q232 832 229.0 839.0Q226 846 217 846Q202 846 202 827Q202 817 207.5 812.5Q213 808 217 808ZM359 50 390 51 412 173Q423 171 438.5 165.0Q454 159 465 153V165Q466 178 459.0 205.5Q452 233 432.5 268.5Q413 304 378 341Q366 353 353.0 368.5Q340 384 326 401Q344 349 360.0 291.5Q376 234 376 178Q376 171 375.5 164.0Q375 157 374 149ZM409 54 459 57 463 132Q459 136 448.0 141.5Q437 147 427 150Q424 138 418.5 108.0Q413 78 409 54ZM279 15H285Q296 28 309 35L279 32ZM228 10Q233 12 243.0 13.5Q253 15 262 15V30Q252 30 242.0 24.0Q232 18 228 10ZM348 10Q352 12 360.0 13.5Q368 15 377 15V30Q367 30 360.0 24.0Q353 18 348 10ZM183 10Q186 11 192.0 12.0Q198 13 205 14Q211 23 220 29Q205 29 196.5 23.0Q188 17 183 10ZM303 10Q306 11 312.0 12.0Q318 13 325 14Q331 23 340 29Q325 29 316.5 23.0Q308 17 303 10ZM647 10Q634 24 618 28L617 29V15Q625 14 634.0 13.0Q643 12 647 10Z" />
  </g>
</svg>