<svg xmlns="http://www.w3.org/2000/svg" viewBox="49 -11 837 1017">
  <g transform="translate(0, 995) scale(1, -1)">
    <path fill="black" d="M606 -11V131L381 314H282L267 251H148L135 307Q118 312 98.0 325.5Q78 339 63.5 360.0Q49 381 49 410Q49 453 68.0 467.5Q87 482 106 482Q127 482 142.5 467.0Q158 452 158 429Q158 418 154.0 409.5Q150 401 146 393Q138 382 138 375Q138 362 149.5 352.0Q161 342 171 342H197Q212 362 253 366L316 370L326 434Q326 438 326.5 443.0Q327 448 327 452Q327 491 314.0 533.5Q301 576 288 613L281 632Q273 643 264.5 654.5Q256 666 248 676Q229 700 208.0 731.5Q187 763 187 796V853Q187 864 185.0 877.0Q183 890 165 890Q152 890 146.5 885.0Q141 880 140 876H122V893Q122 920 134.0 932.5Q146 945 156 954L176 972Q180 980 198.5 993.0Q217 1006 263 1006Q319 1006 346.0 978.5Q373 951 392 910Q397 907 411.5 899.5Q426 892 438 885Q463 861 493.0 825.0Q523 789 552.0 750.5Q581 712 604 679Q604 679 613.5 667.5Q623 656 637.5 639.0Q652 622 667.5 603.5Q683 585 695.5 571.5Q708 558 712 554Q718 550 735.5 533.5Q753 517 775.0 496.5Q797 476 815 458L792 436Q776 447 758.0 456.5Q740 466 715 481L771 399L681 342H886V314H633V-11ZM358 342H497V353Q484 355 467.5 356.0Q451 357 440 357V448Q453 445 468.0 438.5Q483 432 492 427V547Q522 547 543.0 533.0Q564 519 577.0 501.0Q590 483 597 471L664 351L749 404L685 500Q642 525 590.5 553.0Q539 581 486.0 609.0Q433 637 385.0 662.0Q337 687 300 705Q287 711 267.5 725.0Q248 739 233.0 759.5Q218 780 218 804Q217 831 251.0 855.5Q285 880 338 883L339 867Q293 864 264.5 844.0Q236 824 237 804Q237 786 249.5 769.0Q262 752 279.5 739.5Q297 727 311 719Q368 690 437.0 654.5Q506 619 573.5 582.0Q641 545 697.5 512.5Q754 480 787 457L791 461Q785 467 771.5 478.5Q758 490 742.5 503.5Q727 517 714.0 528.0Q701 539 696 543Q691 548 672.5 569.0Q654 590 630.5 618.5Q607 647 587 672Q565 704 536.0 742.0Q507 780 477.5 815.5Q448 851 423 875Q420 876 405.0 884.5Q390 893 376 900Q364 926 350.5 946.0Q337 966 317.0 977.0Q297 988 263 988Q233 988 217.5 983.5Q202 979 197.5 973.5Q193 968 192 966L169 944Q161 937 151.5 927.5Q142 918 140 901Q143 906 154.0 916.5Q165 927 180 927Q188 927 194.5 923.5Q201 920 206 916Q208 915 211.0 915.5Q214 916 214 919Q214 923 213 924Q206 924 201.0 929.5Q196 935 196 942Q196 949 201.5 954.5Q207 960 215 960H248Q268 960 282.0 947.5Q296 935 296 915Q296 902 287.0 891.5Q278 881 266.5 874.0Q255 867 248 863Q246 862 241.0 862.0Q236 862 235 867H229V858H217Q217 865 213.5 878.5Q210 892 201.0 903.5Q192 915 176 915Q170 915 165.5 912.0Q161 909 158 906H165Q191 906 199.0 888.5Q207 871 207 853V796Q207 767 229.0 735.5Q251 704 270 678Q292 651 316.5 622.0Q341 593 361 572Q399 532 412.0 495.5Q425 459 423 434L419 357Q407 357 389.0 356.0Q371 355 358 353ZM214 934Q222 934 222 942Q222 950 214 950Q206 950 206 942Q206 934 214 934ZM226 882Q226 884 225.5 886.0Q225 888 225 889Q225 910 244 910Q254 910 258.5 903.0Q263 896 263 891Q263 886 261 884Q269 889 275.5 897.0Q282 905 282 915Q282 929 271.0 939.0Q260 949 243 949H231Q233 945 233 941Q233 932 225 926Q230 921 227 914Q225 908 214 906Q218 901 221.5 894.5Q225 888 226 882ZM244 876Q252 876 252 888Q252 892 250.5 895.5Q249 899 244 899Q235 899 235 888Q235 876 244 876ZM335 370 356 371 371 455Q379 454 388.0 450.0Q397 446 404 441L405 450Q406 464 394.5 493.5Q383 523 348 561Q340 569 331.0 579.5Q322 590 313 601Q325 567 335.5 528.5Q346 490 346 452Q346 447 346.0 442.0Q346 437 345 432ZM549 342H647L581 465Q575 475 564.0 489.0Q553 503 539.5 514.0Q526 525 510 525V392Q499 401 483.5 411.5Q468 422 458 424V375Q470 374 487.5 372.0Q505 370 515 367Q528 363 536.0 356.0Q544 349 549 342ZM149 326V330Q138 335 128.0 346.5Q118 358 118 375Q118 383 121.5 390.0Q125 397 129 404Q132 409 135.5 415.5Q139 422 139 429Q139 444 129.5 453.0Q120 462 106 462Q93 462 80.5 451.5Q68 441 68 410Q68 386 81.5 368.5Q95 351 114.0 340.5Q133 330 149 326ZM374 372 403 375 405 420Q401 423 396.5 426.0Q392 429 385 430Q383 423 379.5 404.5Q376 386 374 372ZM282 342H286Q291 350 302 356L282 353ZM249 342H270V352Q256 352 249 342ZM219 342H231Q233 344 236.0 347.0Q239 350 241 352Q233 352 227.5 349.0Q222 346 219 342ZM299 342H313Q315 344 317.0 347.0Q319 350 322 352Q314 352 308.5 349.0Q303 346 299 342ZM330 342H347V352Q335 352 330 342ZM508 342H525Q521 346 517.0 348.0Q513 350 509 351H508ZM163 271H252L262 314H153ZM606 164V314H421Z" />
  </g>
</svg>