<svg xmlns="http://www.w3.org/2000/svg" viewBox="49 -16 867 1022">
  <g transform="translate(0, 990) scale(1, -1)">
    <path fill="black" d="M201 -16V42H328V252Q276 265 226.5 291.0Q177 317 137.0 358.5Q97 400 73.0 461.0Q49 522 49 605H81Q113 493 173.0 435.0Q233 377 313 355Q326 363 354 366L417 370L426 434Q428 444 428 452Q428 491 414.5 533.5Q401 576 388 613L381 632Q373 643 364.5 654.5Q356 666 348 676Q330 700 309.0 731.5Q288 763 288 796V853Q288 864 286.0 877.0Q284 890 265 890Q253 890 247.5 885.0Q242 880 240 876H223V893Q223 920 234.5 932.5Q246 945 257 954L276 972Q280 980 298.5 993.0Q317 1006 363 1006Q401 1006 424.5 993.5Q448 981 464.0 959.5Q480 938 493 910Q498 907 512.5 899.5Q527 892 539 885Q564 861 593.5 825.0Q623 789 652.5 750.5Q682 712 705 679Q705 679 714.5 667.5Q724 656 738.5 639.0Q753 622 768.5 603.5Q784 585 796.0 571.5Q808 558 813 554V553Q824 578 831 605H863Q863 557 854 516Q871 501 888.5 484.5Q906 468 916 458L892 436Q881 444 868.5 451.0Q856 458 841 466L835 452L871 399L755 327L750 334Q720 308 685.0 289.5Q650 271 613 260V42H744V-16ZM459 339Q491 339 522.5 342.0Q554 345 583 352V353Q570 355 558.5 356.0Q547 357 541 357V448Q554 445 569.0 438.5Q584 432 593 427V547Q623 547 644.0 533.0Q665 519 678.0 501.0Q691 483 697 471L762 353L849 404L786 500Q743 525 691.5 553.0Q640 581 587.0 609.0Q534 637 485.5 662.0Q437 687 400 705Q388 711 368.5 725.0Q349 739 334.0 759.5Q319 780 318 804Q318 831 351.5 855.5Q385 880 439 883L440 867Q394 864 365.5 844.0Q337 824 337 804Q338 786 350.5 769.0Q363 752 380.0 739.5Q397 727 411 719Q449 700 497.5 675.0Q546 650 599.0 622.0Q652 594 702.5 566.0Q753 538 795 514Q829 494 846.5 483.0Q864 472 872.5 466.5Q881 461 887 457L891 461Q869 483 844.0 502.0Q819 521 797 543Q792 548 773.5 569.0Q755 590 731.5 618.5Q708 647 688 672Q665 704 636.0 742.0Q607 780 577.5 815.5Q548 851 523 875Q521 876 506.0 884.5Q491 893 477 900Q464 926 451.0 946.0Q438 966 417.5 977.0Q397 988 363 988Q318 988 305.5 978.5Q293 969 292 966L270 944Q261 937 252.0 927.5Q243 918 241 901Q243 906 254.0 916.5Q265 927 281 927Q289 927 295.5 923.5Q302 920 306 916Q314 914 314 919V924Q307 924 301.5 929.5Q296 935 296 942Q296 949 301.5 954.5Q307 960 315 960H348Q368 960 382.5 947.5Q397 935 397 915Q397 902 387.5 891.5Q378 881 367.0 874.0Q356 867 349 863Q347 862 342.0 862.0Q337 862 335 867H330V858H317Q317 865 313.5 878.5Q310 892 301.5 903.5Q293 915 276 915Q271 915 266.5 912.0Q262 909 258 906H265Q291 906 299.0 888.5Q307 871 307 853V796Q307 767 329.5 735.5Q352 704 371 678Q392 651 417.0 622.0Q442 593 462 572Q500 532 513.0 495.5Q526 459 524 434L520 357Q507 357 489.0 356.0Q471 355 459 353ZM314 934Q323 934 323 942Q323 950 314 950Q307 950 307 942Q307 934 314 934ZM326 882V889Q326 910 345 910Q355 910 359.5 903.0Q364 896 364 891Q364 888 362 884Q369 889 375.5 897.0Q382 905 382 915Q382 929 371.5 939.0Q361 949 344 949H332Q334 945 334 941Q334 932 326 926Q327 925 328.5 921.5Q330 918 328 914Q325 908 315 906Q318 901 321.5 894.5Q325 888 326 882ZM345 876Q353 876 353 888Q353 892 351.0 895.5Q349 899 345 899Q336 899 336 888Q336 876 345 876ZM436 370 457 371 472 455Q480 454 489.0 450.0Q498 446 505 441V450Q507 464 495.5 493.5Q484 523 448 561Q431 579 414 601Q425 567 436.0 528.5Q447 490 447 452Q447 447 447.0 442.0Q447 437 446 432ZM838 531Q842 553 844 580Q840 569 836.5 559.0Q833 549 829 539ZM456 255Q501 255 551.0 264.5Q601 274 650.5 296.0Q700 318 740 354L721 390Q668 350 601.0 335.0Q534 320 456 320Q365 320 289.0 342.0Q213 364 156.5 420.5Q100 477 68 580Q72 506 99.0 451.0Q126 396 167.5 358.5Q209 321 258.5 298.0Q308 275 359.0 265.0Q410 255 456 255ZM616 360Q642 369 665.5 381.0Q689 393 710 409L681 465Q676 475 665.0 489.0Q654 503 640.0 514.0Q626 525 610 525V392Q599 401 583.5 411.5Q568 422 558 424V375Q566 374 578.5 372.0Q591 370 601 367Q611 364 616 360ZM821 473 823 477 815 481ZM475 372 503 375 506 420Q502 423 497.5 426.0Q493 429 485 430Q484 423 480.5 404.5Q477 386 475 372ZM387 342Q392 349 402 356L382 353V343Q385 343 387 342ZM370 344V352Q361 352 354 347ZM339 350 342 352Q340 352 338.0 351.5Q336 351 334 351Q335 350 339 350ZM412 340Q414 343 417.0 346.5Q420 350 423 352Q416 352 409.5 348.5Q403 345 399 341ZM448 339V352Q441 352 437.0 348.0Q433 344 431 340Q435 339 439.5 339.0Q444 339 448 339ZM347 42H594V254Q557 244 522.5 240.0Q488 236 456 236Q431 236 403.5 238.5Q376 241 347 247ZM220 3H724V22H220Z" />
  </g>
</svg>