<svg xmlns="http://www.w3.org/2000/svg" viewBox="49 -23 693 1027">
  <g transform="translate(0, 981) scale(1, -1)">
    <path fill="black" d="M76 -23V289Q76 321 89.5 335.5Q103 350 132 353Q140 364 149.0 370.0Q158 376 180 378L243 382L252 441Q253 446 253.5 450.5Q254 455 254 459Q254 498 240.5 541.0Q227 584 214 621L208 639Q199 650 190.5 661.5Q182 673 174 684Q156 707 135.0 734.0Q114 761 114 794V851Q114 861 112.0 874.5Q110 888 91 888Q79 888 73.5 882.5Q68 877 66 874H49V891Q49 917 60.5 929.5Q72 942 83 951L103 970Q106 977 124.5 990.5Q143 1004 189 1004Q227 1004 250.5 991.0Q274 978 290.0 956.5Q306 935 319 907Q324 905 338.5 897.5Q353 890 365 883Q390 859 419.5 825.0Q449 791 478.5 755.0Q508 719 531 687Q551 663 574.0 635.0Q597 607 615.5 586.5Q634 566 639 561Q645 557 662.0 540.5Q679 524 701.0 503.5Q723 483 742 465L718 443Q702 454 684.5 464.0Q667 474 642 489L697 411L608 354H652Q694 354 712.5 340.5Q731 327 731 289V-23H661V245Q661 271 652.0 281.0Q643 291 635 291Q624 291 613.5 282.5Q603 274 590 263L572 247L577 243Q581 241 592.0 230.0Q603 219 613.0 204.5Q623 190 623 174Q623 166 616.0 157.5Q609 149 598 149Q583 149 571.0 165.0Q559 181 552.5 199.5Q546 218 545 223L544 226Q540 223 535.0 220.0Q530 217 525 214L528 212Q531 210 540.5 199.0Q550 188 558.0 173.5Q566 159 566 143Q566 133 560.0 124.5Q554 116 541 116Q526 116 515.5 133.5Q505 151 499.5 170.5Q494 190 494 195V198L475 190H476Q480 186 491.5 166.5Q503 147 503 122Q503 110 497.0 101.5Q491 93 477 93Q466 93 457.0 105.0Q448 117 443.5 134.5Q439 152 439 166Q439 170 439.0 173.5Q439 177 440 179V182Q436 181 432.0 180.5Q428 180 423 180Q426 173 429.0 161.5Q432 150 432 133Q432 113 425.5 100.5Q419 88 404 88Q389 88 382.0 100.5Q375 113 375 133Q375 150 378.5 161.5Q382 173 384 180Q380 180 376.0 180.5Q372 181 368 182V179Q369 177 369.0 173.5Q369 170 369 166Q369 152 364.5 134.5Q360 117 351.5 105.0Q343 93 331 93Q318 93 311.5 101.5Q305 110 305 122Q305 147 317.0 166.5Q329 186 333 190Q328 192 323.5 194.0Q319 196 314 198V195Q314 190 308.5 170.5Q303 151 293.0 133.5Q283 116 267 116Q254 116 248.0 124.5Q242 133 242 143Q242 159 250.5 173.5Q259 188 268.0 199.0Q277 210 280 212L282 213L263 226V223Q262 218 255.5 199.5Q249 181 237.5 165.0Q226 149 210 149Q199 149 192.5 157.5Q186 166 186 174Q186 190 196.0 204.5Q206 219 217.0 230.0Q228 241 231 243L236 247Q231 251 226.5 255.0Q222 259 217 263Q205 274 194.5 282.5Q184 291 172 291Q165 291 156.0 281.0Q147 271 147 245V-23ZM285 354H423V365Q410 367 394.0 368.0Q378 369 367 369V456Q380 453 395.0 446.0Q410 439 419 434V555Q449 555 470.0 540.5Q491 526 504.0 508.0Q517 490 523 478L590 363L675 417L612 507Q569 532 517.5 560.0Q466 588 413.0 616.0Q360 644 312.0 669.0Q264 694 227 712Q214 718 194.5 730.0Q175 742 160.0 760.0Q145 778 145 802Q144 829 177.5 853.0Q211 877 265 881L266 864Q220 862 191.5 842.0Q163 822 164 802Q164 784 176.5 769.5Q189 755 206.0 744.5Q223 734 237 726Q294 697 363.0 661.5Q432 626 499.5 589.0Q567 552 623.5 519.5Q680 487 713 464L717 469Q711 474 698.0 485.5Q685 497 669.5 510.5Q654 524 641.0 535.0Q628 546 623 550Q618 555 599.5 576.0Q581 597 557.5 625.5Q534 654 514 679Q491 711 462.0 746.5Q433 782 404.0 815.5Q375 849 350 872Q347 874 332.0 882.0Q317 890 303 897Q290 924 277.0 943.5Q264 963 243.5 974.0Q223 985 189 985Q144 985 132.0 976.0Q120 967 119 963L96 941Q87 934 78.0 925.0Q69 916 67 899Q69 904 80.0 914.0Q91 924 107 924Q121 924 132 913Q141 911 141 917Q141 920 140 922Q133 922 128.0 927.0Q123 932 123 939Q123 947 128.0 952.5Q133 958 142 958H174Q195 958 209.0 945.0Q223 932 223 913Q223 900 213.5 889.5Q204 879 193.0 871.5Q182 864 175 860Q173 859 168.0 859.5Q163 860 162 865H156V855H144Q144 863 140.5 876.5Q137 890 128.0 901.0Q119 912 103 912Q97 912 92.5 909.0Q88 906 84 903Q86 903 88.0 903.5Q90 904 91 904Q117 904 125.0 886.5Q133 869 133 851V794Q133 765 155.5 738.0Q178 711 197 685Q219 658 243.5 629.0Q268 600 288 579Q326 539 339.0 503.0Q352 467 350 441L346 369Q334 369 316.0 368.0Q298 367 285 365ZM152 880V887Q152 895 157.0 901.5Q162 908 171 908Q181 908 185.5 901.0Q190 894 190 889Q190 884 188 882Q195 887 201.5 895.0Q208 903 208 913Q208 927 197.5 937.0Q187 947 170 947H158Q159 945 159.5 943.5Q160 942 160 938Q160 929 152 924Q153 922 154.5 919.0Q156 916 154 911Q151 905 141 903Q149 892 152 880ZM141 932Q149 932 149 939Q149 947 141 947Q133 947 133 939Q133 932 141 932ZM171 874Q179 874 179 886Q179 889 177.0 892.5Q175 896 171 896Q162 896 162 886Q162 874 171 874ZM262 382 283 383 298 462Q315 459 331 449L332 457Q333 471 321.5 501.0Q310 531 274 568Q267 577 258.0 587.5Q249 598 240 608Q251 574 262.0 535.5Q273 497 273 459Q273 454 273.0 449.5Q273 445 272 439ZM476 354H574L507 472Q502 482 491.0 496.0Q480 510 466.0 521.0Q452 532 437 532V399Q426 408 410.0 419.0Q394 430 384 431V387Q396 386 413.5 384.0Q431 382 441 379Q455 375 462.5 368.0Q470 361 476 354ZM301 384 330 387 332 428Q328 430 323.5 433.0Q319 436 312 438Q310 431 306.5 414.0Q303 397 301 384ZM208 354H212Q215 359 219.5 362.0Q224 365 229 368L208 365ZM226 354H239Q241 356 243.5 359.0Q246 362 249 364Q240 364 234.5 361.0Q229 358 226 354ZM175 354H196V364Q183 364 175 354ZM256 354H274V364Q263 364 256 354ZM146 354H158Q160 356 163.0 359.0Q166 362 168 364Q160 364 154.5 361.0Q149 358 146 354ZM435 354H452Q448 358 444.0 360.0Q440 362 436 363H435ZM96 -3H127V245Q127 283 142.0 296.5Q157 310 173 310Q190 310 203.0 301.0Q216 292 231 278Q249 262 272.5 243.5Q296 225 328.5 212.0Q361 199 404 199Q448 199 480.0 212.0Q512 225 536.0 243.5Q560 262 577 278Q592 292 605.0 301.0Q618 310 635 310Q651 310 665.5 296.5Q680 283 680 245V-3H712V289Q712 315 698.0 324.5Q684 334 652 334H156Q124 334 110.0 324.5Q96 315 96 289ZM598 167Q605 167 605 175Q605 185 597.5 196.0Q590 207 580.5 216.0Q571 225 566 229L563 228Q564 221 569.0 206.5Q574 192 582.0 179.5Q590 167 598 167ZM210 167Q219 167 226.5 179.5Q234 192 239.5 206.5Q245 221 246 228L242 229Q237 225 227.5 216.0Q218 207 210.5 196.0Q203 185 203 175Q203 167 210 167ZM542 134Q549 134 549 143Q549 158 535.5 175.0Q522 192 516 199L512 198Q513 192 516.5 176.5Q520 161 526.5 147.5Q533 134 542 134ZM266 134Q275 134 281.5 147.5Q288 161 292.0 176.5Q296 192 296 198L292 199Q286 192 272.5 175.0Q259 158 259 143Q259 134 266 134ZM478 111Q485 111 485 122Q485 139 476.0 156.0Q467 173 461 180L458 179Q458 176 457.5 173.0Q457 170 457 167Q457 152 462.5 131.5Q468 111 478 111ZM330 111Q340 111 345.5 131.5Q351 152 351 167V179L347 180Q341 173 332.0 156.0Q323 139 323 122Q323 111 330 111ZM404 105Q409 105 412.0 113.0Q415 121 415 133Q415 147 411.5 158.0Q408 169 406 176H402Q399 169 396.0 158.0Q393 147 393 133Q393 121 395.5 113.0Q398 105 404 105Z" />
  </g>
</svg>