<svg xmlns="http://www.w3.org/2000/svg" viewBox="49 -20 842 1024">
  <g transform="translate(0, 984) scale(1, -1)">
    <path fill="black" d="M133 -20Q138 5 155.5 20.5Q173 36 213 39L288 47L300 121Q302 133 302 143Q302 191 285.5 243.5Q269 296 253 340L246 363Q224 392 204 417Q189 437 172.0 461.0Q155 485 143.0 511.0Q131 537 131 564V634Q131 642 129.5 653.5Q128 665 121.5 673.5Q115 682 99 682Q84 682 77.0 675.0Q70 668 68 663H49V683Q49 715 63.5 731.0Q78 747 92 757L115 780Q118 786 131.0 798.0Q144 810 172 817Q150 831 137.0 853.5Q124 876 124 904Q124 945 153.0 974.5Q182 1004 224 1004Q265 1004 294.5 974.5Q324 945 324 904Q324 875 309.5 852.0Q295 829 271 815Q312 803 333.0 772.5Q354 742 373 704Q378 701 396.0 691.5Q414 682 429 674Q460 645 496.5 600.5Q533 556 568.0 509.0Q603 462 631 422Q631 422 643.0 408.0Q655 394 672.5 372.5Q690 351 709.5 328.5Q729 306 744.0 289.5Q759 273 764 268Q771 262 792.5 242.0Q814 222 841.0 197.0Q868 172 891 150L866 123Q847 137 821.0 153.0Q795 169 765 186L836 81L695 -8L604 158Q598 171 586.0 188.5Q574 206 557.5 221.0Q541 236 520 240V70Q506 81 486.0 92.5Q466 104 455 105V46Q471 46 492.5 44.0Q514 42 527 38Q547 31 560.5 12.5Q574 -6 576 -20Q554 -7 521 -7H321Q289 -7 266 -20Q266 -17 267.5 -14.0Q269 -11 270 -8Q259 -9 250.5 -12.0Q242 -15 231 -20Q232 -17 233.0 -13.5Q234 -10 235 -7H223Q204 -7 192.0 -9.5Q180 -12 166 -20Q167 -17 168.0 -14.0Q169 -11 170 -8Q160 -9 151.5 -12.0Q143 -15 133 -20ZM224 823Q258 823 281.0 846.5Q304 870 304 904Q304 938 281.0 961.0Q258 984 224 984Q190 984 166.5 961.0Q143 938 143 904Q143 870 166.5 846.5Q190 823 224 823ZM337 9H505V23Q490 25 469.5 26.0Q449 27 435 27V134Q451 131 470.0 122.5Q489 114 500 107V263Q533 263 557.0 245.0Q581 227 597.5 204.0Q614 181 622 167L703 20L807 87L730 205Q678 235 615.5 269.5Q553 304 488.5 338.0Q424 372 365.0 402.5Q306 433 261 455Q245 464 220.5 483.5Q196 503 177.0 527.5Q158 552 158 576Q158 598 177.5 619.0Q197 640 231.5 655.5Q266 671 309 674L310 655Q250 651 213.5 626.0Q177 601 177 576Q177 556 194.5 534.0Q212 512 235.0 494.5Q258 477 272 469Q329 441 395.5 406.5Q462 372 530.5 335.5Q599 299 663.0 263.5Q727 228 778.5 197.5Q830 167 862 144L866 149Q859 155 842.5 170.5Q826 186 807.0 203.5Q788 221 772.0 235.5Q756 250 750 255Q743 261 720.0 287.0Q697 313 669.0 347.5Q641 382 616 412Q589 451 553.5 497.5Q518 544 482.0 588.0Q446 632 415 661Q412 663 393.0 672.5Q374 682 357 691Q342 723 326.0 748.5Q310 774 285.5 788.5Q261 803 219 803Q183 803 164.5 796.0Q146 789 140.0 781.5Q134 774 133 771L105 744Q94 736 82.5 725.0Q71 714 68 693Q72 698 82.5 711.0Q93 724 112 724Q122 724 130.0 720.0Q138 716 145 710Q147 709 150.5 710.0Q154 711 154 715V720Q145 720 137.5 726.5Q130 733 130 743Q130 751 137.5 759.0Q145 767 155 767H189Q219 767 235.0 750.0Q251 733 251 710Q251 693 241.0 680.5Q231 668 218.0 659.0Q205 650 196 645Q192 644 186.5 644.5Q181 645 180 651H172V641H162Q158 663 145.5 686.0Q133 709 112 709Q102 709 92 701Q94 701 96.0 701.5Q98 702 99 702Q130 702 140.5 679.5Q151 657 151 634V564Q151 529 175.5 491.0Q200 453 224 422Q250 388 281.5 351.0Q313 314 338 288Q383 239 399.0 194.0Q415 149 414 131L409 27Q395 27 373.5 26.0Q352 25 337 23ZM154 733Q163 733 163 743Q163 752 154 752Q145 752 145 743Q145 733 154 733ZM168 669Q168 671 167.5 674.0Q167 677 167 678Q167 689 173.5 698.0Q180 707 190 707Q202 707 209.0 698.0Q216 689 216 682Q216 679 214 673Q223 680 229.0 688.5Q235 697 235 710Q235 727 222.0 739.0Q209 751 189 751H175Q177 747 177 743Q177 728 167 723Q170 719 170 713Q170 701 155 699Q164 683 168 669ZM190 663Q195 663 198.5 665.5Q202 668 202 676Q202 681 199.5 685.5Q197 690 190 690Q179 690 179 676Q179 669 183.0 666.0Q187 663 190 663ZM307 43 332 44 351 142Q360 141 372.0 135.5Q384 130 394 125L395 135Q396 152 381.0 191.0Q366 230 323 276Q313 287 302.0 299.5Q291 312 280 326Q295 284 308.0 236.5Q321 189 321 143Q321 137 320.5 131.0Q320 125 319 119ZM352 44 389 46 393 105Q389 107 381.5 111.0Q374 115 366 117Q364 108 359.5 85.0Q355 62 352 44ZM242 9H247Q251 14 255.5 18.0Q260 22 266 26L242 23ZM298 4Q302 6 308.5 7.5Q315 9 322 9V21Q307 21 298 4ZM261 4Q264 5 269.0 6.0Q274 7 279 8Q285 15 292 21Q279 21 272.0 15.5Q265 10 261 4ZM199 4Q204 6 212.0 7.5Q220 9 227 9V21Q208 21 199 4ZM162 4Q170 7 180 8Q183 12 186.0 15.0Q189 18 192 21Q181 21 173.5 15.5Q166 10 162 4ZM544 4Q539 11 532.5 15.0Q526 19 521 20H519V9Q526 8 533.0 7.0Q540 6 544 4Z" />
  </g>
</svg>