<svg xmlns="http://www.w3.org/2000/svg" viewBox="49 -11 1221 1027">
  <g transform="translate(0, 1005) scale(1, -1)">
    <path fill="black" d="M464 -11Q412 -11 373.5 8.0Q335 27 313.5 56.5Q292 86 292 118Q292 135 297.5 146.0Q303 157 319 157Q329 157 338.5 145.5Q348 134 365 109Q385 79 417 64V89Q417 133 435.5 166.5Q454 200 486.0 220.0Q518 240 557 241H579V301Q545 318 516.5 337.0Q488 356 464 376L227 345V334Q227 316 229.5 286.5Q232 257 234 236L219 234Q217 255 214.0 285.0Q211 315 211 334V343L125 332V344L212 355Q213 364 213.5 373.5Q214 383 215 393L103 384V396L217 405Q219 427 220 440L85 435V447L221 453V458Q221 471 218 487L73 484V496L217 499L214 520L211 534L61 536V548L210 546Q209 551 208.5 556.0Q208 561 208 565V580L55 583V596L209 592Q211 601 213.0 609.5Q215 618 217 625L50 636V648L221 636L222 639L196 646L200 667L50 687V699L202 680L206 704L49 736V749L206 716Q201 728 201 738Q201 744 202 746L55 788V800L212 755H215Q226 755 231.0 746.5Q236 738 237 730Q237 738 239.0 749.5Q241 761 251 761Q259 761 262.0 756.0Q265 751 265 745Q265 737 264 734Q266 737 269.5 740.0Q273 743 277 743Q282 743 284.5 739.0Q287 735 287 731Q287 727 285.5 722.5Q284 718 282 716L307 702V706Q287 719 287 744Q287 750 291.0 759.0Q295 768 302 772Q293 771 281.0 771.5Q269 772 260 777Q244 785 234.5 804.0Q225 823 223 835Q232 836 257.5 829.5Q283 823 309 797Q297 818 280.0 845.5Q263 873 245.0 901.5Q227 930 211.0 954.0Q195 978 185 990L194 996Q205 989 222.5 971.5Q240 954 256 937Q251 949 236.5 971.5Q222 994 211 1010L219 1016Q248 990 278.0 951.0Q308 912 332.5 875.5Q357 839 367 818Q378 810 393.0 795.0Q408 780 422.0 765.5Q436 751 443 742Q479 701 479 683Q479 673 472.0 665.0Q465 657 455 657Q453 657 448.0 657.5Q443 658 439 658V649Q417 655 395.5 664.0Q374 673 352 683Q364 621 395.0 561.5Q426 502 476.5 453.5Q527 405 594 374Q595 375 602.0 375.5Q609 376 648 379L656 430Q657 434 657.5 437.5Q658 441 658 445Q658 479 646.0 515.5Q634 552 624 583L618 599L590 638Q575 658 557.5 681.0Q540 704 540 732V780Q540 790 538.5 799.5Q537 809 525 809Q510 809 507.5 804.5Q505 800 504 797H485V818Q485 841 495.0 852.0Q505 863 515 870L535 886Q537 893 553.0 904.5Q569 916 606 916Q654 916 678.5 890.0Q703 864 719 829Q723 827 735.0 820.0Q747 813 757 808Q778 788 803.0 759.0Q828 730 852.5 699.0Q877 668 896 640Q896 640 908.0 625.5Q920 611 936.0 590.5Q952 570 966.5 553.0Q981 536 985 532Q990 529 1005.0 515.5Q1020 502 1038.5 484.5Q1057 467 1072 451L1048 431L987 467L1030 404L964 360Q999 370 1037.0 392.5Q1075 415 1107 440L1046 497L1066 517L1130 457L1148 472L1081 535L1100 555L1169 490L1191 510Q1202 520 1217.0 534.5Q1232 549 1239 549Q1254 549 1256.0 540.5Q1258 532 1253 516Q1249 505 1239.5 487.5Q1230 470 1214 448L1220 443Q1235 443 1249 430Q1270 411 1270 378Q1236 375 1216 395Q1201 407 1201 422L1196 427Q1192 423 1188.5 419.0Q1185 415 1181 410L1186 405Q1201 405 1215 392Q1224 384 1230.0 369.5Q1236 355 1235 340Q1201 337 1182 356Q1174 363 1170.5 370.5Q1167 378 1167 384L1161 390Q1136 368 1106.0 347.0Q1076 326 1038 308V240Q1073 240 1110.0 250.5Q1147 261 1169 271L1184 218Q1163 209 1122.5 199.0Q1082 189 1038 187V116H1051V55H1175V-11ZM343 812 350 815Q334 848 310.5 885.0Q287 922 264 945ZM420 674V680Q430 679 441.0 677.0Q452 675 455 675Q460 675 460 683Q460 696 431 728Q422 738 408.0 752.5Q394 767 380.0 781.0Q366 795 356 802L340 793Q326 818 307.0 847.5Q288 877 270.0 901.5Q252 926 240 935Q254 912 271.5 883.5Q289 855 306.5 829.0Q324 803 336 784Q318 774 311.5 762.0Q305 750 305 744Q305 727 325.5 716.5Q346 706 361 699Q380 692 395.5 684.0Q411 676 420 674ZM691 355H797V364Q786 366 774.0 367.0Q762 368 755 368V442Q766 440 777.0 434.5Q788 429 795 424V528Q820 528 839.0 515.0Q858 502 871.0 486.5Q884 471 889 461L942 366L1007 409L959 480L638 663Q633 666 616.0 676.0Q599 686 584.0 702.0Q569 718 569 739Q569 765 597.0 784.5Q625 804 670 807V788Q627 785 608.0 770.5Q589 756 589 739Q589 723 600.0 711.0Q611 699 626.0 690.0Q641 681 652 674L1047 451L1049 454Q1043 460 1026.0 474.5Q1009 489 992.0 504.0Q975 519 969 523Q965 527 949.5 545.5Q934 564 914.5 588.5Q895 613 878 634Q859 661 834.5 691.5Q810 722 785.5 750.5Q761 779 740 799Q739 800 725.5 807.0Q712 814 701 821Q685 854 667.0 875.5Q649 897 606 897Q569 897 558.5 888.5Q548 880 547 877L526 859Q519 853 511.5 846.0Q504 839 504 822Q506 826 513.5 835.0Q521 844 536 844Q543 844 549.0 841.0Q555 838 559 834Q566 832 566 838Q566 841 565 842Q560 842 554.5 845.5Q549 849 549 856Q549 865 554.5 870.0Q560 875 567 875H590Q614 875 625.5 864.5Q637 854 637 837Q637 820 622.0 807.5Q607 795 596 790Q594 789 589.5 789.0Q585 789 583 793H579V785H567Q567 791 564.5 802.0Q562 813 555.0 822.5Q548 832 535 832Q526 832 520 826H525Q546 826 553.0 811.5Q560 797 560 780V732Q560 707 578.5 684.0Q597 661 613 639Q631 616 652.0 591.0Q673 566 690 548Q721 514 732.5 482.5Q744 451 742 430L738 368Q729 368 715.5 367.0Q702 366 691 364ZM566 850Q573 850 573 856Q573 863 566 863Q559 863 559 856Q559 850 566 850ZM576 806V812Q576 830 591 830Q599 830 603.0 824.0Q607 818 607 813Q607 810 605 808Q611 812 617.0 820.5Q623 829 623 837Q623 849 613.5 856.0Q604 863 590 863H581Q583 861 583 856Q583 852 581.0 849.0Q579 846 577 844Q578 842 579.0 839.5Q580 837 578 833Q576 826 566 826Q569 822 572.0 816.5Q575 811 576 806ZM591 801Q598 801 598 811Q598 813 596.5 816.5Q595 820 591 820Q584 820 584 811Q584 801 591 801ZM295 788Q283 799 269.0 807.0Q255 815 244 818Q249 811 254.0 803.5Q259 796 268 792Q279 787 295 788ZM366 746Q359 746 354.5 749.0Q350 752 348 755Q350 757 355.5 762.0Q361 767 367 767Q374 767 379.5 763.0Q385 759 387 756Q383 752 378.0 749.0Q373 746 366 746ZM308 653Q307 663 306.0 671.5Q305 680 306 688L268 709Q270 712 271.5 716.5Q273 721 273 723Q273 726 271 726Q269 726 265.5 722.0Q262 718 260 713L254 716Q255 718 256.5 731.0Q258 744 251 744Q249 744 248.5 733.0Q248 722 248 720L229 717Q227 724 223.5 731.5Q220 739 217 739Q215 739 215 736Q215 733 218.0 725.5Q221 718 223 712L214 660L236 654Q238 660 244.5 666.0Q251 672 261 672Q275 672 288.0 665.0Q301 658 308 653ZM799 278Q899 278 973.0 302.5Q1047 327 1098.0 363.5Q1149 400 1180.0 437.0Q1211 474 1224.5 500.5Q1238 527 1238 529Q1231 522 1222.5 513.5Q1214 505 1206 497Q1203 494 1183.5 476.5Q1164 459 1133.5 435.5Q1103 412 1067.5 389.0Q1032 366 996.0 350.5Q960 335 929 335H640Q551 364 486.0 418.5Q421 473 382.0 544.0Q343 615 332 692L321 695Q321 671 330.5 631.5Q340 592 362.0 545.0Q384 498 420.0 451.0Q456 404 509.0 365.0Q562 326 634.0 302.0Q706 278 799 278ZM311 630V633Q301 642 287.5 650.0Q274 658 263 658Q253 658 250.0 649.0Q247 640 245 635ZM321 590Q319 598 317.0 604.5Q315 611 313 618L232 624Q230 617 228.0 609.0Q226 601 224 592ZM338 544Q334 553 331.0 561.0Q328 569 325 578L223 580Q223 576 223.0 573.0Q223 570 224 566Q224 562 224.5 556.5Q225 551 226 546ZM667 379 685 380 697 448Q711 445 723 436V443Q724 454 715.0 479.5Q706 505 676 537Q669 545 663.0 551.5Q657 558 649 567Q659 537 668.0 507.0Q677 477 677 445Q677 441 677.0 437.0Q677 433 676 428ZM1157 479 1161 483 1100 541 1096 536ZM232 499 359 501Q355 509 351.5 516.5Q348 524 344 532L228 534Q228 530 228.5 527.0Q229 524 229 521ZM849 355H929L872 456Q861 476 844.0 492.0Q827 508 814 508V394Q804 402 791.0 411.0Q778 420 770 421V383Q780 383 794.0 381.5Q808 380 817 377Q828 374 836.0 367.5Q844 361 849 355ZM1117 447Q1118 448 1119.0 448.5Q1120 449 1121 450L1065 502L1062 498ZM236 453 387 459Q382 467 377.0 474.5Q372 482 367 490L234 487Q235 479 235.5 471.5Q236 464 236 458ZM232 407 417 421 396 447 236 441ZM1258 388Q1257 408 1241 422Q1237 426 1230.0 429.0Q1223 432 1217 431L1207 440L1204 435L1213 426Q1211 412 1224 403Q1237 390 1258 388ZM700 381 724 383 726 418Q719 423 709 427Q708 420 705.0 406.0Q702 392 700 381ZM228 357 452 387 428 410 231 395Q230 385 229.5 375.5Q229 366 228 357ZM1224 350Q1223 370 1207 384Q1203 388 1196.0 391.0Q1189 394 1183 393L1173 402Q1172 401 1171.0 400.0Q1170 399 1169 398L1179 388Q1177 375 1189 365Q1204 351 1224 350ZM630 359Q632 361 634.0 363.0Q636 365 639 367L623 364V362ZM662 355H677V363Q667 363 662 355ZM643 355H648Q650 357 652.0 359.0Q654 361 656 363Q644 363 639 356ZM812 355H826Q820 360 812 363ZM1001 239H1019V299L1001 292ZM599 241H616V287Q612 289 607.5 290.5Q603 292 599 293ZM982 240V286Q964 280 944.5 275.0Q925 270 904 267V246ZM713 240V264Q693 267 673.0 271.0Q653 275 635 280V241Q654 241 673.5 240.5Q693 240 713 240ZM867 248H884V264L867 262ZM733 241Q737 241 741.5 241.0Q746 241 750 242V260L733 262ZM770 242Q787 244 807.0 245.0Q827 246 848 246V260Q836 259 823.5 258.5Q811 258 799 258Q792 258 784.5 258.0Q777 258 770 259ZM451 56V89Q451 131 468.5 157.5Q486 184 511.5 196.5Q537 209 560 209Q619 208 651.5 207.5Q684 207 712 207Q751 207 791.5 210.5Q832 214 872 214Q907 214 941.5 210.0Q976 206 1009 206Q1065 206 1105.5 214.5Q1146 223 1162 231L1157 247Q1135 238 1097.0 229.0Q1059 220 1007 220Q975 220 954.5 222.0Q934 224 916.0 226.0Q898 228 872 228Q829 228 790.0 224.5Q751 221 713 221H557Q505 220 471.0 183.5Q437 147 437 89V58ZM867 116H884V196H867ZM783 55H834V116H848V195L770 190V116H783ZM917 55H969V116H982V188Q964 189 943.0 191.0Q922 193 904 194V116H917ZM733 116H750V189Q746 189 741.5 188.5Q737 188 733 188ZM648 55H700V116H713V188Q698 188 678.0 188.0Q658 188 635 189V116H648ZM599 116H616V189H599ZM471 55H566V116H579V189H560Q541 189 520.0 178.5Q499 168 485.0 146.0Q471 124 471 89ZM1001 116H1019V186H1001ZM464 8H1156V36H472Q425 36 396.5 52.5Q368 69 348 98Q333 120 327.5 128.5Q322 137 319 137Q312 137 312 118Q312 91 332.5 66.0Q353 41 388.0 24.5Q423 8 464 8ZM988 57H1032V97H988ZM854 57H897V97H854ZM720 57H763V97H720ZM585 57H629V97H585Z" />
  </g>
</svg>