<svg xmlns="http://www.w3.org/2000/svg" viewBox="49 117 983 843">
  <g transform="translate(0, 1077) scale(1, -1)">
    <path fill="black" d="M527 117V255Q490 280 456.5 312.5Q423 345 400 370H49V444H206Q224 452 248.5 460.5Q273 469 297.5 476.5Q322 484 339 489Q315 501 280.0 522.0Q245 543 211.5 571.5Q178 600 155.5 634.0Q133 668 133 706Q133 714 134.5 720.5Q136 727 137 732Q138 737 139.0 742.0Q140 747 140 750V771Q140 785 131.0 803.5Q122 822 99 822Q85 822 77.5 815.5Q70 809 68 801H54V815Q54 833 63.0 860.0Q72 887 100 899Q103 905 115.5 920.0Q128 935 154.5 947.5Q181 960 225 960Q276 960 306.0 941.0Q336 922 351.5 892.5Q367 863 374 831L388 827Q414 820 443.0 809.5Q472 799 509.0 776.0Q546 753 596 710Q655 659 703.0 620.0Q751 581 785 564Q810 553 841.5 541.5Q873 530 902.5 521.0Q932 512 949 506Q961 503 979.0 493.5Q997 484 1012.5 471.0Q1028 458 1032 444V370H672Q682 357 690.5 340.0Q699 323 699 303Q699 272 682.0 245.0Q665 218 622 218Q598 218 577 228V117ZM260 444H1011Q1002 458 979.5 470.5Q957 483 943 488Q925 494 895.5 503.0Q866 512 834.5 523.5Q803 535 777 547Q740 564 691.5 603.5Q643 643 583 695Q535 736 499.0 758.0Q463 780 435.5 791.0Q408 802 383 809L356 816Q350 846 336.5 874.5Q323 903 297.0 922.0Q271 941 225 941Q178 941 151.0 922.0Q124 903 116 884Q96 877 87.0 861.5Q78 846 75 832Q80 834 85 837Q86 843 92.0 853.5Q98 864 116 864Q124 864 133.0 861.5Q142 859 149 855L148 861Q135 866 135 882Q135 891 141.0 897.5Q147 904 157 904Q159 904 161.0 903.5Q163 903 165 902Q177 907 192 907Q214 907 225.5 898.0Q237 889 241.0 877.0Q245 865 245 856Q245 839 233.0 821.0Q221 803 201 789L193 798Q202 808 204.5 814.5Q207 821 207 830Q207 835 204.5 840.0Q202 845 196 845Q189 845 186.0 837.0Q183 829 183 820Q183 813 184.0 805.5Q185 798 186 793L170 789Q166 800 157.0 813.5Q148 827 137.0 837.5Q126 848 116 848Q106 848 104 840Q125 839 137.0 827.0Q149 815 154.0 799.0Q159 783 159 771V750Q159 738 156 729Q155 723 154.0 717.0Q153 711 153 706Q153 670 178.5 635.5Q204 601 242.0 572.0Q280 543 319.0 521.5Q358 500 383 490V481Q352 473 320.0 463.5Q288 454 260 444ZM171 819Q170 833 175.0 846.5Q180 860 196 860Q222 860 220 831Q222 833 225.5 841.0Q229 849 229 856Q229 864 222.0 877.0Q215 890 192 890Q188 890 184.5 890.0Q181 890 177 889Q179 883 179 882Q179 866 165 861Q165 856 165.5 851.0Q166 846 166 844L151 845Q156 841 161.5 833.5Q167 826 171 819ZM157 875Q164 875 164 882Q164 889 157 889Q149 889 149 882Q149 875 157 875ZM68 389H1013V425H68ZM625 266Q644 266 659.0 273.0Q674 280 678 285Q678 301 663.0 318.0Q648 335 630.0 349.0Q612 363 602 370H577V282Q604 266 625 266ZM677 328Q672 340 664.0 351.5Q656 363 649 370H630Q641 361 654.5 350.5Q668 340 677 328ZM622 235Q642 235 652.5 242.5Q663 250 668 259Q662 255 651.5 252.0Q641 249 625 249Q602 249 573.0 265.5Q544 282 516.5 304.5Q489 327 470.0 346.0Q451 365 446 370H426Q451 343 485.5 311.5Q520 280 556.5 257.5Q593 235 622 235ZM527 317V370H471Q480 360 495.0 345.5Q510 331 527 317ZM557 295V365H547V302ZM547 137H557V237Q552 239 547 242Z" />
  </g>
</svg>