<svg xmlns="http://www.w3.org/2000/svg" viewBox="49 202 983 692">
  <g transform="translate(0, 1096) scale(1, -1)">
    <path fill="black" d="M49 202V276H206Q224 284 248.5 292.5Q273 301 297.5 308.5Q322 316 339 321Q315 333 280.0 354.0Q245 375 211.5 403.5Q178 432 155.5 466.0Q133 500 133 538Q133 546 134.5 552.5Q136 559 137 564Q138 569 139.0 574.0Q140 579 140 582V604Q140 617 131.0 635.5Q122 654 99 654Q85 654 77.5 647.5Q70 641 68 633H54V647Q54 665 63.0 692.0Q72 719 100 731Q103 737 115.5 752.0Q128 767 154.5 779.5Q181 792 225 792Q276 792 306.0 773.0Q336 754 351.5 724.5Q367 695 374 663L388 659Q409 653 431.5 645.5Q454 638 481 623L667 894L810 533L792 526L781 553L740 548L744 521L726 518L721 545L678 541V516L659 517L653 835L500 613Q539 590 596 542Q655 491 703.0 452.0Q751 413 785 396Q810 385 841.5 373.5Q873 362 902.5 353.0Q932 344 949 338Q961 335 979.0 325.5Q997 316 1012.5 303.0Q1028 290 1032 276V202ZM679 559 773 570 672 834ZM260 276H1011Q1002 290 979.5 302.5Q957 315 943 320Q925 326 895.5 335.0Q866 344 834.5 355.5Q803 367 777 379Q740 396 691.5 435.5Q643 475 583 527Q535 568 499.0 590.0Q463 612 435.5 623.0Q408 634 383 641L356 648Q350 678 336.5 706.5Q323 735 297.0 754.0Q271 773 225 773Q178 773 151.0 754.0Q124 735 116 716Q96 709 87.0 693.5Q78 678 75 664Q77 666 80.0 667.0Q83 668 85 669Q86 675 92.0 685.5Q98 696 116 696Q124 696 133.0 693.5Q142 691 149 688L148 693Q135 698 135 714Q135 723 141.0 729.5Q147 736 157 736Q159 736 161.0 735.5Q163 735 165 734Q177 739 192 739Q214 739 225.5 730.0Q237 721 241.0 709.0Q245 697 245 688Q245 672 233.0 653.5Q221 635 201 621L193 630Q202 640 204.5 646.5Q207 653 207 662Q207 667 204.5 672.0Q202 677 196 677Q189 677 186.0 669.0Q183 661 183 652Q183 645 184.0 637.5Q185 630 186 625L170 621Q166 632 157.0 645.5Q148 659 137.0 669.5Q126 680 116 680Q106 680 104 672Q125 671 137.0 659.0Q149 647 154.0 631.5Q159 616 159 604V582Q159 570 156 561Q155 555 154.0 549.0Q153 543 153 538Q153 502 178.5 467.5Q204 433 242.0 404.0Q280 375 319.0 353.5Q358 332 383 322V313Q352 305 320.0 295.5Q288 286 260 276ZM171 651Q170 665 175.0 678.5Q180 692 196 692Q222 692 220 663Q222 665 225.5 673.0Q229 681 229 688Q229 696 222.0 709.0Q215 722 192 722Q188 722 184.5 722.0Q181 722 177 721Q179 715 179 714Q179 698 165 693Q165 688 165.5 683.0Q166 678 166 676L151 677Q156 673 161.5 665.5Q167 658 171 651ZM157 707Q164 707 164 714Q164 721 157 721Q149 721 149 714Q149 707 157 707ZM68 221H1013V257H68Z" />
  </g>
</svg>