<svg xmlns="http://www.w3.org/2000/svg" viewBox="49 -18 1210 1019">
  <g transform="translate(0, 983) scale(1, -1)">
    <path fill="black" d="M259 -18 240 -4 260 22Q269 35 277.0 45.5Q285 56 315 56H450V292Q449 305 448.5 320.5Q448 336 446 353H405L314 335H197L115 371L49 434L76 474L101 457L219 807L319 484L330 485L399 457L432 458Q429 475 425.0 490.5Q421 506 417 520L342 609Q310 648 289.5 688.5Q269 729 269 791Q269 839 278.0 892.5Q287 946 307 1001H547Q563 961 574.0 914.5Q585 868 587 821Q620 811 656.5 788.5Q693 766 715 746Q744 735 763.0 718.5Q782 702 795 683L942 476L1038 475L1048 483L1070 781H1210L1228 386L1203 353H1031L1259 33L1208 -10L1076 125L1130 6L929 23L830 215L778 246L797 144L778 136L699 179V56H795Q825 56 833.0 45.5Q841 35 851 22L870 -4L850 -18L839 0H477L464 -18L445 -4L448 0H271ZM489 462 630 469 573 512Q556 525 531.5 544.5Q507 564 488.0 592.0Q469 620 469 660Q469 699 493.5 720.5Q518 742 553.5 751.0Q589 760 622 760Q648 760 669 757Q645 773 616.5 788.0Q588 803 568 810Q568 852 557.5 899.5Q547 947 533 981H321Q303 930 296.0 881.0Q289 832 289 785Q289 745 300.5 714.5Q312 684 328.0 661.5Q344 639 356 623ZM495 864Q481 864 470.5 874.0Q460 884 460 899Q460 913 470.5 923.5Q481 934 495 934Q509 934 519.5 923.5Q530 913 530 899Q530 884 519.5 874.0Q509 864 495 864ZM358 864Q344 864 334.0 874.0Q324 884 324 899Q324 913 334.0 923.5Q344 934 358 934Q372 934 382.5 923.5Q393 913 393 899Q393 884 382.5 874.0Q372 864 358 864ZM495 880Q503 880 508.5 886.0Q514 892 514 899Q514 907 508.5 912.0Q503 917 495 917Q488 917 482.5 912.0Q477 907 477 899Q477 892 482.5 886.0Q488 880 495 880ZM358 880Q366 880 371.5 886.0Q377 892 377 899Q377 907 371.5 912.0Q366 917 358 917Q351 917 345.5 912.0Q340 907 340 899Q340 892 345.5 886.0Q351 880 358 880ZM419 774 387 863 404 870 427 808 447 870 463 865 435 774ZM199 354H313L403 372H1191L1208 396L1192 762H1090L1068 469L1052 455L785 458L392 438L325 465L333 438L348 392L222 382Q202 387 176.5 395.0Q151 403 140 410L79 452L68 437L122 389ZM272 402 323 406 218 743 118 445 149 423Q152 422 156.5 420.0Q161 418 165 416L219 566ZM661 471 786 478 919 476 780 671Q758 703 722.0 722.5Q686 742 627 742Q595 742 563.0 735.0Q531 728 510.0 709.5Q489 691 489 657Q489 616 518.0 586.5Q547 557 592 523ZM223 398 252 401 218 506 184 410Q195 406 205.5 403.0Q216 400 223 398ZM452 460H465L446 484Q448 478 449.5 472.0Q451 466 452 460ZM489 17H826L811 39H703L679 56V195L688 208L772 163L753 266L765 276L846 228L943 42L1097 29L1035 164L785 353H580L586 344Q617 307 628.5 270.5Q640 234 640 185V56L619 39H505ZM1210 15 1234 37 1008 353H819L1052 179ZM284 17H461L465 22Q473 33 479.5 43.0Q486 53 508 55V232L526 245L621 167V186Q621 237 608.5 270.5Q596 304 573 332L555 353H468Q469 340 469.0 326.5Q469 313 469 299V56L448 39H300ZM528 56H621V140L528 216Z" />
  </g>
</svg>