<svg xmlns="http://www.w3.org/2000/svg" viewBox="49 -13 893 1026">
  <g transform="translate(0, 1000) scale(1, -1)">
    <path fill="black" d="M119 -13 100 -11Q102 3 108.0 19.0Q114 35 125 41Q145 52 174.5 55.5Q204 59 233.0 64.0Q262 69 277 83L354 196Q351 209 344.0 236.0Q337 263 330.5 292.0Q324 321 321 338Q275 378 236.0 431.0Q197 484 173.5 539.5Q150 595 150 639V646Q143 637 140.5 623.5Q138 610 138 602Q138 586 128.5 568.5Q119 551 93 551Q77 551 65.5 563.5Q54 576 54 598Q54 617 69.0 637.0Q84 657 108.5 672.0Q133 687 162 690Q170 713 182.0 733.0Q194 753 202 765Q198 770 193.0 774.5Q188 779 183 786Q155 786 127.5 789.0Q100 792 90 795Q82 788 80 780H49Q50 816 70.0 832.0Q90 848 119.0 852.5Q148 857 177 858Q184 869 196.0 878.0Q208 887 227 891Q223 902 217.5 919.0Q212 936 208.0 952.5Q204 969 204 977Q204 1000 214.0 1006.5Q224 1013 230 1013Q236 1013 243.0 1008.0Q250 1003 257.5 987.0Q265 971 270 937Q270 951 272.0 967.5Q274 984 280.5 996.0Q287 1008 302 1008Q319 1008 326.0 992.5Q333 977 333 960Q333 931 323.0 905.5Q313 880 308 872Q325 859 333.5 840.0Q342 821 342 801Q342 774 331.5 751.0Q321 728 310.0 713.0Q299 698 296 694Q299 694 316.0 689.5Q333 685 355.5 678.0Q378 671 398.0 663.0Q418 655 427 647Q442 635 469.0 607.5Q496 580 526.5 545.0Q557 510 584.0 476.0Q611 442 625 416Q639 391 660.0 354.0Q681 317 704.5 279.0Q728 241 749.5 209.0Q771 177 784 162Q795 152 822.0 135.5Q849 119 882.0 102.0Q915 85 942 71L889 34L833 52L845 19L715 -2Q699 19 675.5 48.5Q652 78 624.5 109.5Q597 141 570.5 170.0Q544 199 522 220Q519 206 513.5 184.0Q508 162 503 146L438 53Q451 52 466.0 49.0Q481 46 489 41Q500 35 506.5 19.0Q513 3 515 -11L495 -13Q494 -10 493.0 -6.0Q492 -2 491 0H248Q247 -2 246.0 -6.0Q245 -10 244 -13L225 -11Q225 -8 227 0H123Q122 -2 121.0 -6.0Q120 -10 119 -13ZM257 893Q257 898 257.5 904.5Q258 911 258 916Q258 930 255.0 941.5Q252 953 249 966Q244 988 239.0 991.5Q234 995 230 995Q229 995 225.5 991.5Q222 988 222 977Q222 970 226.0 953.5Q230 937 235.5 920.5Q241 904 244 894H248Q254 894 257 893ZM293 882Q298 890 306.5 912.5Q315 935 315 960Q315 971 312.5 981.0Q310 991 302 991Q295 991 291.5 981.5Q288 972 287 967Q286 962 283.0 939.0Q280 916 280 890V888Q287 887 293 882ZM723 16 818 31 808 57Q781 66 746.5 87.0Q712 108 674.5 134.0Q637 160 602.5 187.5Q568 215 541 238Q503 271 483 284Q459 300 424.0 324.0Q389 348 351.5 378.5Q314 409 282.0 443.0Q250 477 229.5 513.0Q209 549 209 583Q209 608 223.5 620.0Q238 632 259.0 636.0Q280 640 299 640Q304 640 311.0 640.0Q318 640 322 639H326V620H299Q284 620 267.5 617.5Q251 615 240.0 607.0Q229 599 229 583Q229 551 249.0 517.5Q269 484 300.5 451.5Q332 419 368.0 390.5Q404 362 437.5 339.0Q471 316 494 301Q509 290 554 252Q581 229 616.0 201.0Q651 173 688.0 146.5Q725 120 759.5 100.0Q794 80 821 73V72L883 52L904 67Q889 75 861.5 89.5Q834 104 808.0 120.5Q782 137 770 149Q756 165 734.0 197.0Q712 229 688.5 267.5Q665 306 643.0 343.0Q621 380 607 406Q593 432 567.0 466.0Q541 500 511.0 534.0Q481 568 455.5 595.0Q430 622 416 632Q407 639 386.5 647.0Q366 655 343.5 662.0Q321 669 303.0 674.0Q285 679 279 679V703Q293 720 307.5 748.0Q322 776 322 801Q322 827 302.5 850.5Q283 874 248 874Q217 874 203.0 857.0Q189 840 189 828Q189 814 201.0 799.0Q213 784 227 768Q220 758 206.0 735.0Q192 712 180.5 686.0Q169 660 169 639Q169 598 190.5 548.0Q212 498 247.5 448.5Q283 399 325.5 360.0Q368 321 411 302Q420 293 432.0 270.0Q444 247 456.0 219.5Q468 192 477 168L388 36Q367 37 339.5 35.5Q312 34 289.5 31.0Q267 28 259 23Q257 22 255 20H484L479 23Q471 28 451.5 31.5Q432 35 417 36L416 56L485 155Q486 160 490.5 176.5Q495 193 500.5 214.5Q506 236 511 255Q534 235 563.0 204.5Q592 174 622.0 139.0Q652 104 678.5 71.5Q705 39 723 16ZM237 813Q227 813 219.5 820.5Q212 828 212 838Q212 848 219.5 855.0Q227 862 237 862Q247 862 254.0 855.0Q261 848 261 838Q261 828 254.0 820.5Q247 813 237 813ZM237 829Q246 829 246 838Q246 847 237 847Q228 847 228 838Q228 829 237 829ZM65 796H72Q78 808 97.0 818.5Q116 829 164 829H169Q169 832 171 840Q122 839 98.5 829.0Q75 819 65 796ZM175 803Q174 806 173.0 809.0Q172 812 171 814H164Q128 814 108 808Q135 803 175 803ZM93 571Q108 571 113.0 581.5Q118 592 118 602Q118 614 124.0 635.0Q130 656 145 667Q115 659 94.5 638.0Q74 617 74 598Q74 571 93 571ZM130 20H233Q236 27 240.0 32.5Q244 38 250 41Q262 48 296 51L378 173L419 256Q407 278 399 286Q386 292 372.0 298.0Q358 304 347 315Q351 297 356.0 273.0Q361 249 366.5 228.0Q372 207 374 197L285 64Q267 52 239.0 47.0Q211 42 182.5 38.0Q154 34 134 23Q132 22 130 20ZM321 54Q335 55 349.0 55.5Q363 56 376 56L457 170Q453 181 445.5 199.0Q438 217 430 234L395 163Z" />
  </g>
</svg>