<svg xmlns="http://www.w3.org/2000/svg" viewBox="49 -13 1073 835">
  <g transform="translate(0, 809) scale(1, -1)">
    <path fill="black" d="M331 -13 311 -11Q313 -3 315.5 7.0Q318 17 319 20Q322 27 326.0 32.5Q330 38 336 41Q351 50 376.5 52.0Q402 54 424 55L472 153L423 223Q398 239 374.5 255.0Q351 271 335 284Q308 308 281.5 337.0Q255 366 238.0 401.5Q221 437 221 480Q221 500 225.5 511.5Q230 523 234 531Q236 535 238.0 539.0Q240 543 240 547Q240 558 222.0 565.5Q204 573 166 573Q135 573 119.0 568.5Q103 564 97.0 558.5Q91 553 89 550H49Q49 569 57.5 588.0Q66 607 88.5 619.5Q111 632 153 632H233Q233 637 235.0 645.0Q237 653 241 661L167 755Q178 766 198.5 782.0Q219 798 251.0 810.0Q283 822 327 822Q371 822 403.0 810.0Q435 798 456.0 782.0Q477 766 488 755L382 628V597Q382 583 386.0 573.0Q390 563 401 555L407 550Q425 537 460.0 511.5Q495 486 540.0 454.5Q585 423 633.5 390.0Q682 357 728.5 328.5Q775 300 813.5 280.5Q852 261 875 256V250Q887 247 914.5 241.0Q942 235 978.0 227.5Q1014 220 1051.5 212.0Q1089 204 1122 197L1062 35Q1048 48 1008.5 71.5Q969 95 914.0 120.5Q859 146 797.5 164.5Q736 183 678 186H643Q628 186 609.0 188.5Q590 191 577 193Q584 183 589.5 174.5Q595 166 595 158L573 53Q605 48 619 41Q630 35 636.5 19.0Q643 3 645 -11L625 -13L621 0H450L446 -13L427 -11Q427 -9 428.0 -6.0Q429 -3 430 0H334ZM377 654 460 752Q455 758 437.0 770.0Q419 782 391.0 792.0Q363 802 327 802Q291 802 263.0 792.0Q235 782 217.5 770.0Q200 758 194 752L254 678Q262 686 274.5 690.5Q287 695 305 695Q340 695 356.0 682.0Q372 669 377 654ZM457 20H614L609 23Q601 28 582.5 31.5Q564 35 550 36L575 161Q574 169 561.5 184.0Q549 199 538 209L549 224Q558 218 583.0 212.0Q608 206 643 206H678Q733 205 790.0 189.0Q847 173 899.0 150.5Q951 128 991.5 105.5Q1032 83 1053 68L1096 183Q1081 186 1054.5 192.0Q1028 198 997.0 205.0Q966 212 936.5 218.5Q907 225 886.0 230.0Q865 235 860 236Q844 232 808.5 225.5Q773 219 733 219Q699 219 648.0 225.5Q597 232 540.0 246.0Q483 260 430 284Q394 301 362.5 324.5Q331 348 311.5 376.5Q292 405 292 436Q292 465 310.0 482.0Q328 499 365 499Q383 499 396.0 495.0Q409 491 413 487L401 471Q398 473 389.0 476.0Q380 479 365 479Q338 479 325.0 467.5Q312 456 312 436Q312 411 331.0 386.0Q350 361 379.0 339.5Q408 318 438 302Q488 281 544.0 267.0Q600 253 650.0 246.0Q700 239 733 239Q760 239 788.0 242.5Q816 246 836 250Q800 263 749.0 292.0Q698 321 643.0 358.0Q588 395 537.0 431.5Q486 468 448.0 496.0Q410 524 396 534L389 539Q373 551 367.5 564.5Q362 578 362 597V624Q362 632 359.0 644.5Q356 657 344.0 666.5Q332 676 305 676Q284 676 272.5 667.5Q261 659 257.0 648.5Q253 638 253 631V618H153Q107 618 90.0 602.5Q73 587 68 573Q86 593 109.5 599.5Q133 606 170 606Q183 606 201.5 605.5Q220 605 235 605V594Q220 595 201.5 595.5Q183 596 170 596Q102 596 73 563H81Q84 567 104.0 577.5Q124 588 166 588Q213 588 236.5 576.5Q260 565 260 547Q260 539 257.5 533.0Q255 527 251 521Q247 515 244.0 506.0Q241 497 241 480Q241 441 257.0 408.0Q273 375 297.5 348.0Q322 321 348 298Q367 282 404.5 258.0Q442 234 485.0 210.0Q528 186 563 167L542 56L538 36Q528 37 511.5 36.5Q495 36 480.0 32.5Q465 29 457 20ZM285 621Q271 621 271 634Q271 647 285 647Q298 647 298 634Q298 621 285 621ZM341 20H435Q440 35 452 41Q452 41 452.5 41.5Q453 42 454 42L508 155L498 180L465 198L495 156L440 43L437 36Q427 37 407.0 36.5Q387 36 368.0 32.5Q349 29 341 20ZM479 51Q490 53 500.5 54.0Q511 55 521 55L541 157Q539 158 535.0 160.0Q531 162 526 165L530 155Z" />
  </g>
</svg>