<svg xmlns="http://www.w3.org/2000/svg" viewBox="49 -14 1037 1042">
  <g transform="translate(0, 1014) scale(1, -1)">
    <path fill="black" d="M706 -14 682 16 663 0H506L493 12L481 0H304L292 12L274 -2H257L282 38Q310 45 344.0 48.5Q378 52 400 52Q408 52 423.5 57.0Q439 62 446 78Q453 95 463.0 121.5Q473 148 483.0 175.0Q493 202 499.5 220.5Q506 239 506 239Q497 258 482.5 282.0Q468 306 451.5 328.0Q435 350 420 362Q398 372 378.5 380.5Q359 389 349 395Q336 403 307.5 421.5Q279 440 248.0 469.0Q217 498 195.5 537.5Q174 577 174 626Q174 654 179.0 679.5Q184 705 188 727Q192 743 194.5 756.0Q197 769 197 778Q197 798 181.5 814.0Q166 830 125 830Q103 830 94.5 828.0Q86 826 85 818L49 819V837Q49 862 79.5 879.5Q110 897 155 897H165Q170 904 185.5 918.0Q201 932 225 935L320 939Q329 939 340.0 941.0Q351 943 358 950Q367 958 384.0 982.0Q401 1006 409 1028H429Q432 1019 435.5 1002.0Q439 985 439 965Q439 945 427.0 923.5Q415 902 397.5 883.5Q380 865 364 853Q365 845 367.0 824.0Q369 803 373.0 777.5Q377 752 382.0 730.0Q387 708 394 697Q408 680 438.0 664.0Q468 648 504.0 633.5Q540 619 572 608Q590 601 606.5 595.0Q623 589 634 584Q656 574 693.5 552.0Q731 530 768 507Q803 486 832.5 469.0Q862 452 875 446Q891 440 927.0 427.5Q963 415 1006.5 400.0Q1050 385 1086 373L1083 340L984 341L1073 292L1004 173L846 265Q828 276 802.0 287.5Q776 299 758 299Q747 299 727.0 298.0Q707 297 693 295Q708 256 724 216L705 59L741 14ZM710 10 718 16 686 57 703 213 666 312Q684 314 711.5 316.0Q739 318 758 318Q778 318 807.0 305.5Q836 293 855 282Q892 260 926.0 240.5Q960 221 997 200Q1021 241 1046 284L943 342Q785 344 674.0 364.5Q563 385 480 414Q432 431 388.0 454.5Q344 478 309.5 503.0Q275 528 255.5 551.0Q236 574 236 589Q236 607 252.0 618.0Q268 629 290.0 635.5Q312 642 330.5 645.0Q349 648 353 648L356 629Q352 628 336.5 625.5Q321 623 302.5 618.5Q284 614 270.0 607.0Q256 600 256 589Q256 577 275.0 557.5Q294 538 326.5 515.5Q359 493 400.5 472.0Q442 451 487 434Q598 394 698.5 379.5Q799 365 891.5 363.0Q984 361 1069 357L1070 361Q1058 365 1029.5 374.0Q1001 383 968.5 393.5Q936 404 908.0 413.5Q880 423 868 428Q855 434 824.5 451.5Q794 469 758 491Q721 514 683.5 535.5Q646 557 626 566Q617 571 601.0 576.5Q585 582 565 589Q532 601 495.0 616.0Q458 631 426.5 648.5Q395 666 378 686Q370 698 363.0 728.0Q356 758 351.5 795.0Q347 832 344 863Q360 873 377.5 889.5Q395 906 407.0 925.5Q419 945 419 965Q419 976 418.5 983.5Q418 991 417 997Q407 978 393.0 960.0Q379 942 371 935Q360 925 345.5 922.0Q331 919 320 919L227 916Q212 913 198.0 901.0Q184 889 176 878H155Q119 878 93.5 866.5Q68 855 67 838H68Q76 852 91.0 859.5Q106 867 124 867Q141 867 168 861L167 852Q153 854 143.0 855.5Q133 857 124 857Q110 857 98.0 852.5Q86 848 79 838H81Q90 850 125 850Q176 850 196.5 828.5Q217 807 217 778Q217 768 214.5 753.5Q212 739 208 722V723Q204 701 199.0 676.0Q194 651 194 626Q194 583 213.5 547.0Q233 511 261.5 483.5Q290 456 316.5 438.0Q343 420 358 411Q368 406 390.0 396.5Q412 387 438.5 376.0Q465 365 490 355Q513 347 534.0 338.5Q555 330 562 326Q572 321 592.5 302.0Q613 283 636.5 259.0Q660 235 679 214L667 80Q665 49 646.5 40.5Q628 32 614 32Q615 32 594.5 31.5Q574 31 549.0 29.5Q524 28 508 24L514 19L656 20Q659 22 668.5 29.0Q678 36 685 42ZM226 851Q216 851 209.0 858.0Q202 865 202 875Q202 886 209.0 892.5Q216 899 226 899Q236 899 243.0 892.5Q250 886 250 875Q250 865 243.0 858.0Q236 851 226 851ZM226 866Q235 866 235 875Q235 884 226 884Q217 884 217 875Q217 866 226 866ZM311 19 471 20 490 35 482 57Q491 84 507.0 122.5Q523 161 540.0 196.0Q557 231 569 249L552 309Q545 312 526.0 319.5Q507 327 483 337L462 345Q482 320 500.0 289.5Q518 259 528 239Q528 239 520.5 219.5Q513 200 502.5 173.0Q492 146 482.5 121.0Q473 96 468 83Q455 49 434.5 40.5Q414 32 400 32Q401 32 383.5 31.5Q366 31 343.5 29.5Q321 28 305 24ZM506 41Q533 46 564.0 49.0Q595 52 614 52Q622 52 634.5 56.5Q647 61 648 80L660 208Q644 225 620.5 249.0Q597 273 578 289L591 244Q581 231 566.5 202.5Q552 174 537.5 142.0Q523 110 513 84L503 58Z" />
  </g>
</svg>