<svg xmlns="http://www.w3.org/2000/svg" viewBox="49 -21 1097 876">
  <g transform="translate(0, 834) scale(1, -1)">
    <path fill="black" d="M222 -21 182 -7Q168 -14 163 -19L138 19L205 62L295 73Q300 75 322.0 83.0Q344 91 363 98L492 88L425 181Q389 198 346.0 227.0Q303 256 263.5 292.5Q224 329 199.0 370.0Q174 411 174 453Q174 481 179.0 506.0Q184 531 188 553Q192 569 194.5 582.0Q197 595 197 604Q197 625 181.5 641.0Q166 657 125 657Q103 657 94.5 654.5Q86 652 85 645L49 646V664Q49 689 79.5 706.5Q110 724 155 724H165Q170 731 185.5 745.0Q201 759 225 762L320 766Q329 766 340.0 768.0Q351 770 358 776Q367 784 384.0 808.5Q401 833 409 855H429Q432 846 435.5 829.0Q439 812 439 792Q439 771 427.0 750.0Q415 729 397.5 710.5Q380 692 364 680Q362 669 360.0 646.5Q358 624 362 599Q365 580 375.0 562.0Q385 544 393 533Q416 553 444.5 586.0Q473 619 505.0 652.5Q537 686 570.0 708.5Q603 731 635 731Q673 731 716.0 727.5Q759 724 788 724Q835 724 890.5 736.0Q946 748 998.5 765.5Q1051 783 1088 799Q1085 737 1061.0 697.0Q1037 657 1004.5 632.5Q972 608 943 590Q997 584 1049 584Q1070 584 1094.5 586.0Q1119 588 1146 592Q1128 541 1097.0 508.0Q1066 475 1029.0 456.0Q992 437 955.5 428.0Q919 419 889.5 417.0Q860 415 846 415Q829 415 792.5 420.0Q756 425 714.0 432.5Q672 440 636 446Q626 443 609.5 437.0Q593 431 578 423Q605 407 638.0 380.5Q671 354 699 331Q719 315 751.0 288.5Q783 262 817.5 233.5Q852 205 878 182L1048 116L984 -8L821 91Q808 99 785.0 104.0Q762 109 736.0 112.5Q710 116 689 117Q700 102 708.5 79.0Q717 56 717 36Q717 12 706.0 1.5Q695 -9 684 -9H652L474 16V-11L377 1L310 -12H266ZM222 -1 262 8H307L377 21L458 9V16L403 26L408 45L655 11H684Q689 11 693.5 17.0Q698 23 698 36Q698 61 682.5 90.5Q667 120 652 139Q682 138 718.5 134.0Q755 130 786.5 123.5Q818 117 832 108L975 19L1020 105L870 164Q844 186 809.5 214.5Q775 243 742.0 270.5Q709 298 686 316Q658 339 624.5 366.0Q591 393 556 413Q534 404 503.5 394.5Q473 385 447 380L444 399Q476 403 512.0 416.5Q548 430 581.0 444.5Q614 459 635 466Q671 460 714.0 452.5Q757 445 793.5 440.0Q830 435 846 435Q862 435 896.5 439.5Q931 444 972.0 457.0Q1013 470 1051.5 496.5Q1090 523 1114 567Q1099 566 1082.5 565.5Q1066 565 1049 565Q984 565 910.5 574.0Q837 583 769.0 598.0Q701 613 652 631Q631 619 596.5 597.5Q562 576 524.0 552.5Q486 529 454.0 511.0Q422 493 405 489L376 520Q376 520 376.0 520.5Q376 521 377 521Q368 534 357.5 553.5Q347 573 343 596Q339 619 339.5 640.0Q340 661 342.0 675.5Q344 690 344 690Q360 700 377.5 716.0Q395 732 407.0 752.0Q419 772 419 792Q419 802 418.5 810.0Q418 818 417 824Q407 805 393.0 787.0Q379 769 371 762Q360 752 345.5 749.0Q331 746 320 746L227 742Q212 739 198.0 727.5Q184 716 176 705H155Q119 705 93.5 693.5Q68 682 67 665H68Q76 679 91.0 686.0Q106 693 124 693Q134 693 144.5 692.0Q155 691 168 688L167 678Q153 681 143.0 682.5Q133 684 124 684Q93 684 79 665H81Q89 676 125 676Q176 676 196.5 654.5Q217 633 217 604Q217 594 214.5 580.0Q212 566 208 549Q204 528 199.0 503.0Q194 478 194 453Q194 415 217.0 378.0Q240 341 277.5 307.5Q315 274 357.5 246.0Q400 218 439 198Q452 191 483.5 177.5Q515 164 552.0 143.5Q589 123 618.5 96.0Q648 69 657 36L588 29L380 55Q362 48 343.0 41.0Q324 34 306 26L253 27L203 4Q212 1 222 -1ZM413 511Q429 517 461.0 536.0Q493 555 530.5 578.5Q568 602 601.0 622.5Q634 643 651 652Q700 633 768.5 617.5Q837 602 909 594Q935 609 967.5 632.5Q1000 656 1027.5 690.0Q1055 724 1064 768Q1043 759 998.0 744.0Q953 729 897.5 716.5Q842 704 788 704Q759 704 715.0 708.0Q671 712 636 712Q611 712 584.5 695.5Q558 679 532.0 653.5Q506 628 482.0 600.5Q458 573 438.5 551.0Q419 529 405 519ZM226 678Q216 678 209.0 685.0Q202 692 202 702Q202 712 209.0 719.0Q216 726 226 726Q236 726 243.0 719.0Q250 712 250 702Q250 692 243.0 685.0Q236 678 226 678ZM226 693Q235 693 235 702Q235 711 226 711Q217 711 217 702Q217 693 226 693ZM169 4 207 25 251 42 302 41 377 71 536 53Q539 54 549.5 60.5Q560 67 560 77Q560 94 550.0 110.5Q540 127 538 130Q519 141 496.0 151.0Q473 161 456 168L522 68L366 78Q360 76 338.5 68.0Q317 60 298 53L211 43L162 14ZM590 44Q602 45 611.0 46.0Q620 47 633 48Q624 70 603.5 86.5Q583 103 568 115Q573 106 576.5 96.0Q580 86 580 75Q580 66 575.0 59.0Q570 52 563 47Z" />
  </g>
</svg>