<svg xmlns="http://www.w3.org/2000/svg" viewBox="49 -7 1014 1011">
  <g transform="translate(0, 997) scale(1, -1)">
    <path fill="black" d="M208 -7Q212 16 231.5 34.0Q251 52 279 56L355 69Q380 74 395.5 90.5Q411 107 420 123L471 222Q461 254 450.0 287.0Q439 320 428 352Q415 361 402.5 368.5Q390 376 383 380Q382 381 362.5 394.5Q343 408 315.0 429.5Q287 451 259.0 478.5Q231 506 212.5 534.5Q194 563 194 590Q194 616 206.5 640.5Q219 665 236.5 685.5Q254 706 269 721Q305 761 320.5 786.5Q336 812 331 843Q249 839 189.0 787.0Q129 735 79 656H49Q49 709 73.0 759.0Q97 809 136 845Q153 861 181.0 880.5Q209 900 235.0 915.5Q261 931 272 936Q274 942 281.0 958.5Q288 975 308.0 989.5Q328 1004 366 1004Q435 1004 477.0 975.0Q519 946 538.0 899.5Q557 853 557 800Q557 785 555.5 768.5Q554 752 552 734H380L370 713Q366 704 360.5 693.5Q355 683 355 677Q355 673 356.5 669.5Q358 666 361 666Q366 666 372.0 669.5Q378 673 385 677L420 701Q430 707 443.0 713.0Q456 719 481 719Q525 719 564.0 704.5Q603 690 634.0 669.5Q665 649 686 630Q698 620 720.5 602.0Q743 584 770.0 563.0Q797 542 824.0 522.0Q851 502 872.0 487.5Q893 473 903 468Q916 462 943.5 446.0Q971 430 1003.5 410.0Q1036 390 1063 373Q1061 366 1053.0 357.0Q1045 348 1031 345Q1033 338 1025.5 328.0Q1018 318 995 312L956 302L960 296Q965 291 968.0 285.0Q971 279 971 273Q971 266 967.0 260.5Q963 255 955 253Q948 251 942.0 255.5Q936 260 934 261Q936 254 935.0 249.0Q934 244 927 240Q921 237 914.5 241.0Q908 245 905 249Q911 232 900 228Q895 226 888.0 228.0Q881 230 879 233Q881 225 876.5 218.0Q872 211 861 209Q853 208 846.5 213.0Q840 218 835 225L790 282L683 272Q682 271 680.0 269.5Q678 268 676 266V243Q677 239 681.0 225.0Q685 211 685 205Q685 198 683.0 175.0Q681 152 681 132Q681 123 682.0 108.0Q683 93 687 69Q701 54 712.0 31.5Q723 9 728 -7H708L706 0H675Q659 2 637.5 3.5Q616 5 602 5Q589 6 564.5 4.0Q540 2 521 0Q501 0 499 7Q495 3 493.0 -1.0Q491 -5 490 -7H471Q476 16 495.0 34.0Q514 52 542 56L621 69Q624 70 627.0 72.0Q630 74 629 78Q626 128 611.0 179.0Q596 230 559 264L530 219L536 197L508 167L445 50Q457 38 461.0 21.0Q465 4 464 -7H445L442 0H411Q396 2 374.0 3.5Q352 5 338 5Q325 6 300.5 4.0Q276 2 257 0Q237 0 235 7Q229 0 227 -7ZM535 20Q547 22 566.5 23.5Q586 25 602 25Q619 25 648.0 23.5Q677 22 698 20Q696 25 689.0 35.5Q682 46 668 59Q666 78 664.0 96.0Q662 114 662 132Q662 152 664.0 175.5Q666 199 666 205Q666 208 662.5 219.5Q659 231 656 240L658 274L674 291L777 300L677 430L414 505Q381 514 357.0 533.0Q333 552 333 586Q333 607 350.0 622.0Q367 637 389.5 646.0Q412 655 432.0 659.5Q452 664 458 665L461 647Q437 643 411.5 634.0Q386 625 369.0 613.0Q352 601 352 586Q352 568 363.5 555.0Q375 542 389.5 534.5Q404 527 413 524L1001 359Q1014 358 1022.0 362.0Q1030 366 1033 370Q1023 376 1004.5 387.0Q986 398 964.0 411.0Q942 424 923.5 434.5Q905 445 895 450Q885 455 863.0 470.0Q841 485 814.0 505.0Q787 525 759.0 546.5Q731 568 708.0 586.0Q685 604 673 615Q653 633 623.5 652.5Q594 672 558.0 686.0Q522 700 481 700Q460 700 449.5 695.0Q439 690 431 685L396 663Q392 661 378.5 653.5Q365 646 360 646Q347 647 341.0 656.5Q335 666 335 677Q335 685 340.5 696.5Q346 708 351 717L406 827Q411 838 422.0 861.5Q433 885 433 913Q433 938 416.5 961.0Q400 984 366 984Q331 984 315.0 971.0Q299 958 295.0 943.5Q291 929 289 924Q291 897 309.0 881.5Q327 866 350 855Q358 818 341.0 785.0Q324 752 283 708Q258 680 236.0 651.5Q214 623 214 590Q214 568 231.0 542.5Q248 517 275.0 490.5Q302 464 333.5 439.5Q365 415 394 397Q422 379 455.0 357.5Q488 336 515.5 319.0Q543 302 553 295Q592 269 614.5 219.0Q637 169 650 70Q651 62 645.0 57.0Q639 52 631 51L540 36Q533 35 526.5 31.0Q520 27 516 23Q519 20 535 20ZM391 754H535Q538 778 538 800Q538 860 513.5 906.0Q489 952 431 972Q452 946 452 913Q452 880 443.0 859.0Q434 838 423 818ZM341 910Q331 910 324.0 917.0Q317 924 317 934Q317 944 324.0 951.0Q331 958 341 958Q351 958 358.0 951.0Q365 944 365 934Q365 924 358.0 917.0Q351 910 341 910ZM341 925Q350 925 350 934Q350 943 341 943Q332 943 332 934Q332 925 341 925ZM63 674Q70 694 88.5 725.5Q107 757 135.0 791.0Q163 825 200.5 851.5Q238 878 283 888Q275 899 271 917Q243 903 208.0 880.0Q173 857 147 833Q122 810 103.5 779.5Q85 749 74.5 721.0Q64 693 63 674ZM89 701Q128 762 184.0 806.5Q240 851 307 859Q297 867 292 875Q242 867 202.0 836.5Q162 806 133.5 768.5Q105 731 89 701ZM861 230Q866 232 864.5 236.5Q863 241 859 245L728 415L708 420L851 237Q853 235 855.5 232.0Q858 229 861 230ZM889 245Q896 247 890 256L780 400L759 406L879 252Q881 250 884.0 247.0Q887 244 889 245ZM916 260Q921 262 919.5 265.5Q918 269 916 271L828 387L811 392L906 267Q908 265 911.0 262.0Q914 259 916 260ZM947 271Q952 273 949.5 277.5Q947 282 945 284Q934 299 913.0 326.0Q892 353 876 373L859 377L937 277Q939 275 941.5 272.5Q944 270 947 271ZM943 318Q983 326 995.0 330.0Q1007 334 1003 334L958 349L908 364ZM271 20Q283 22 302.5 23.5Q322 25 338 25Q355 25 384.0 23.5Q413 22 434 20Q436 22 433.5 28.5Q431 35 417 47Q422 56 429.0 67.5Q436 79 450.5 104.5Q465 130 492 179L514 203L508 222L544 277L542 278Q530 286 505.0 302.5Q480 319 454 335L492 220L443 125Q431 100 408.5 77.0Q386 54 359 49L276 36Q266 35 260.0 30.5Q254 26 252 23Q255 20 271 20Z" />
  </g>
</svg>