<svg xmlns="http://www.w3.org/2000/svg" viewBox="49 -7 982 1015">
  <g transform="translate(0, 1001) scale(1, -1)">
    <path fill="black" d="M209 -7Q214 16 233.5 34.0Q253 52 281 56L343 69Q366 74 377.0 88.0Q388 102 395 119L444 252L403 397Q373 415 335.0 440.0Q297 465 262.5 495.0Q228 525 205.5 558.0Q183 591 183 625Q183 660 198.0 684.5Q213 709 231 731Q245 748 262.0 774.0Q279 800 292.0 822.0Q305 844 307 850Q300 852 292.0 855.5Q284 859 277 864Q240 856 200.0 828.5Q160 801 129.5 764.5Q99 728 90 690H49V717Q49 754 72.0 796.5Q95 839 139.5 877.0Q184 915 248 936Q249 944 257.0 961.0Q265 978 284.5 993.0Q304 1008 341 1008Q382 1008 407.0 988.5Q432 969 432 931Q432 919 422.5 894.5Q413 870 397.0 839.0Q381 808 363.5 775.0Q346 742 329 714L338 702Q351 705 375.5 710.0Q400 715 427 715Q462 715 503.5 701.0Q545 687 589.0 665.0Q633 643 674.5 618.0Q716 593 751.0 569.5Q786 546 809 530L837 510Q850 503 883.0 486.5Q916 470 956.5 450.5Q997 431 1031 415L1019 387Q1014 386 1003.5 386.0Q993 386 976 386L1005 375L1007 347Q983 337 949.5 325.5Q916 314 896 314Q884 314 858.5 320.5Q833 327 807.0 333.0Q781 339 767 339Q748 339 720.0 333.0Q692 327 674 327Q670 327 664.5 329.0Q659 331 654 332Q657 320 660.0 307.0Q663 294 663 285Q663 280 662.0 256.5Q661 233 659.0 202.0Q657 171 655.0 141.0Q653 111 652.0 91.0Q651 71 651 71Q665 56 676.0 33.0Q687 10 691 -7H672L669 0H638Q623 2 601.0 3.5Q579 5 565 5Q552 6 534.0 4.0Q516 2 503 0Q484 0 482 7Q478 3 476.0 -1.0Q474 -5 473 -7H454Q459 16 478.0 33.0Q497 50 525 56L582 69Q592 71 592 78L591 252Q585 261 569.5 276.5Q554 292 533 308L514 264Q514 263 513.5 255.0Q513 247 513 240L428 53Q436 41 439.0 21.0Q442 1 442 -7H423L420 0H389Q377 2 358.0 3.5Q339 5 325 5Q313 6 293.0 4.0Q273 2 259 0Q239 0 237 7Q229 -1 229 -7ZM518 20Q524 22 536.5 23.5Q549 25 565 25Q582 25 611.0 23.5Q640 22 661 20Q659 27 652.0 39.0Q645 51 631 63Q631 66 632.5 87.5Q634 109 635.5 139.0Q637 169 639.0 200.0Q641 231 642.0 253.5Q643 276 643 282Q643 297 636.5 321.0Q630 345 623 362L640 370Q645 363 654.5 354.5Q664 346 674 346Q688 346 715.0 352.0Q742 358 767 358Q781 358 806.5 352.0Q832 346 857.5 339.5Q883 333 896 333Q919 333 945.0 341.0Q971 349 987 356V361Q980 367 957.5 375.5Q935 384 916 390Q865 394 807.0 402.5Q749 411 698.0 422.0Q647 433 615 444Q585 455 542.5 469.5Q500 484 455.5 501.5Q411 519 372.5 539.5Q334 560 310.0 582.5Q286 605 286 629Q286 643 300.5 653.0Q315 663 336.5 670.0Q358 677 378.0 681.0Q398 685 408 685L409 666Q387 665 363.0 658.5Q339 652 322.5 643.5Q306 635 306 626Q306 608 328.5 589.0Q351 570 387.5 552.0Q424 534 466.5 517.5Q509 501 550.0 487.0Q591 473 622 462Q687 440 787.5 423.5Q888 407 1004 400V405Q972 421 935.0 439.0Q898 457 868.0 472.5Q838 488 827 494L798 513Q775 529 741.0 552.0Q707 575 666.0 599.5Q625 624 582.5 646.0Q540 668 500.0 681.5Q460 695 427 695Q402 695 373.5 689.5Q345 684 328 679L306 708Q323 737 342.0 770.5Q361 804 377.0 836.5Q393 869 403.0 894.0Q413 919 413 931Q413 960 393.0 974.5Q373 989 341 989Q312 989 295.5 977.0Q279 965 272.5 950.0Q266 935 266 925Q267 892 286.5 881.5Q306 871 337 864Q325 842 308.5 812.5Q292 783 283 769Q267 742 248.0 721.0Q229 700 215.5 678.5Q202 657 202 625Q202 592 226.5 559.5Q251 527 289.0 497.0Q327 467 368.5 441.5Q410 416 444 396Q467 383 491.5 365.0Q516 347 539 329L542 327V326Q566 306 585.0 287.0Q604 268 610 257L612 70Q612 54 593 51L523 36Q516 35 509.5 31.0Q503 27 499 23Q502 20 518 20ZM321 913Q311 913 303.5 920.5Q296 928 296 938Q296 948 303.5 954.5Q311 961 321 961Q331 961 338.0 954.5Q345 948 345 938Q345 928 338.0 920.5Q331 913 321 913ZM321 928Q330 928 330 938Q330 946 321 946Q312 946 312 938Q312 928 321 928ZM66 710Q83 774 128.5 825.0Q174 876 251 903Q250 907 249.5 910.0Q249 913 248 917Q189 896 148.5 861.0Q108 826 87.5 786.0Q67 746 66 710ZM74 710H77Q88 745 117.5 779.0Q147 813 185.5 839.5Q224 866 262 878Q258 883 255 891Q211 878 175.0 849.0Q139 820 113.5 783.5Q88 747 74 710ZM273 20Q281 22 295.5 23.5Q310 25 326 25Q343 25 368.5 23.5Q394 22 412 20Q417 22 417.0 29.0Q417 36 403 48L493 244Q493 246 493.5 253.5Q494 261 494 268L518 321Q475 354 435 379L427 383L465 250L417 120Q393 59 347 49L278 36Q268 35 262.0 30.5Q256 26 254 23Q257 20 273 20Z" />
  </g>
</svg>