<svg xmlns="http://www.w3.org/2000/svg" viewBox="49 -17 1083 1025">
  <g transform="translate(0, 991) scale(1, -1)">
    <path fill="black" d="M273 -17Q281 12 296.5 30.5Q312 49 335 53Q358 56 388.5 62.0Q419 68 432 74Q445 80 457.5 97.5Q470 115 479 130L557 270L530 440Q470 459 416.0 489.0Q362 519 320.5 556.0Q279 593 255.5 634.0Q232 675 232 716Q217 711 203.5 690.0Q190 669 183 638Q180 617 173.5 599.5Q167 582 144 582Q130 582 119.0 595.5Q108 609 108 636Q108 662 129.5 690.0Q151 718 185 738Q208 751 231.5 764.0Q255 777 268 784L342 848Q350 855 358.0 863.5Q366 872 366 877Q366 885 351.0 888.0Q336 891 311 890Q304 887 278.0 877.0Q252 867 215.0 853.0Q178 839 137.5 823.5Q97 808 61 794L49 821Q84 841 121.5 863.5Q159 886 193.0 906.0Q227 926 249.5 939.5Q272 953 275 956Q288 969 314.0 988.5Q340 1008 379 1008Q409 1008 438.0 987.5Q467 967 471 930Q473 901 462.5 877.0Q452 853 432 833L353 755Q348 750 338.5 739.5Q329 729 329 726Q329 723 333 723Q335 723 338.5 724.5Q342 726 347 727Q370 735 412.5 747.5Q455 760 501 760Q548 760 597.5 745.0Q647 730 695.5 706.5Q744 683 787.5 658.0Q831 633 864 612Q884 600 899.0 591.0Q914 582 921 578Q942 569 979.0 551.0Q1016 533 1057.0 513.5Q1098 494 1130 478V453Q1125 452 1119.0 452.0Q1113 452 1108 451L1132 425L1033 358L942 395Q940 396 919.0 402.0Q898 408 880 408Q874 408 862 405Q852 404 838.0 402.0Q824 400 805 400Q789 400 771.5 405.5Q754 411 743 415Q748 395 759.5 355.0Q771 315 784.0 270.5Q797 226 808 189L805 69L837 58Q866 48 882.0 31.0Q898 14 907 -17H891Q880 -5 854.0 -0.5Q828 4 802.0 5.0Q776 6 764 6Q750 6 729.0 4.5Q708 3 688.5 1.5Q669 0 659 -1Q647 -2 633.5 -4.5Q620 -7 611 -17H596Q603 12 618.5 30.5Q634 49 657 53L743 68L738 167Q739 181 733.5 206.0Q728 231 713 253Q706 264 687.5 285.0Q669 306 646 329L617 247L500 63Q540 50 557.5 32.0Q575 14 584 -17H569Q558 -5 532.0 -0.5Q506 4 480.0 5.0Q454 6 442 6Q428 6 407.0 4.5Q386 3 366.5 1.5Q347 0 337 -1Q325 -2 311.0 -4.5Q297 -7 289 -17ZM662 18Q685 20 716.5 23.0Q748 26 764 26Q781 26 803.0 24.5Q825 23 840 21L838 38L785 56L788 189Q779 221 768.0 257.5Q757 294 747.0 329.0Q737 364 729.5 390.0Q722 416 719 427L745 438Q754 432 770.5 426.0Q787 420 805 420Q821 420 835.0 422.0Q849 424 859 425Q865 426 870.5 426.5Q876 427 880 427Q896 427 916.0 422.5Q936 418 949 413L1030 381Q1050 395 1066.0 405.0Q1082 415 1102 428L1083 449Q1061 448 1040.5 447.5Q1020 447 1000 447Q953 447 898.0 450.0Q843 453 778 457Q714 462 650.0 473.5Q586 485 527.5 502.0Q469 519 424.0 539.0Q379 559 352.5 580.0Q326 601 326 621Q326 651 346.0 670.0Q366 689 385 696L391 677Q377 673 361.5 658.5Q346 644 346 621Q346 600 384.5 577.0Q423 554 487.0 533.5Q551 513 627.5 498.0Q704 483 779 477Q838 473 897.0 469.5Q956 466 1000 466H1108Q1096 472 1071.0 484.0Q1046 496 1016.5 510.5Q987 525 959.0 538.5Q931 552 913 561H914Q902 566 887.0 575.0Q872 584 853 596Q821 616 779.0 640.5Q737 665 689.5 688.0Q642 711 594.0 726.0Q546 741 501 741Q458 741 416.5 728.5Q375 716 352 708Q337 703 331 703Q323 703 316.0 708.0Q309 713 309 726Q309 735 320.5 748.5Q332 762 339 769L418 846Q436 864 444.5 883.5Q453 903 451 928Q449 957 426.0 972.5Q403 988 379 988Q352 988 331.0 975.5Q310 963 297 950Q298 940 303.0 929.0Q308 918 313 910Q349 912 367.5 901.5Q386 891 386 877Q386 866 375.5 854.0Q365 842 355 834L277 767Q264 760 241.0 747.5Q218 735 195 721Q166 705 146.5 681.0Q127 657 127 636Q127 619 132.0 610.0Q137 601 144 601Q154 601 157.5 613.5Q161 626 164 641Q170 682 197.0 710.5Q224 739 253 737Q250 695 272.0 653.5Q294 612 335.0 574.0Q376 536 429.5 505.5Q483 475 544 457Q551 450 569.5 432.5Q588 415 611.5 391.5Q635 368 659.0 343.0Q683 318 702.5 297.0Q722 276 730 264Q747 239 753.0 212.0Q759 185 758 168L763 51L664 34ZM359 939Q353 939 348.5 943.5Q344 948 344 954Q344 960 348.5 964.5Q353 969 359 969Q365 969 369.5 964.5Q374 960 374 954Q374 948 369.5 943.5Q365 939 359 939ZM70 811 294 904Q284 920 280 936Q270 930 246.0 917.0Q222 904 191.0 887.0Q160 870 127.5 852.0Q95 834 66 819ZM340 18Q363 20 394.5 23.0Q426 26 442 26Q459 26 481.0 24.5Q503 23 518 21L516 38Q509 43 489 50Q482 52 480.0 56.5Q478 61 486 74L598 253L630 345Q608 368 587.5 388.0Q567 408 553 421L577 267L502 132Q492 114 478.5 90.5Q465 67 447 59Q430 51 397.5 44.0Q365 37 342 34ZM887 0Q882 14 872.0 21.5Q862 29 855 31L857 18Q865 16 874.0 10.0Q883 4 887 0ZM615 0Q619 4 628.0 10.0Q637 16 645 18L647 31Q640 29 630.0 21.5Q620 14 615 0ZM565 0Q560 14 550.0 21.5Q540 29 533 31L535 18Q543 16 552.0 10.0Q561 4 565 0ZM293 0Q297 4 306.0 10.0Q315 16 323 18L325 31Q318 29 308.0 21.5Q298 14 293 0Z" />
  </g>
</svg>