<svg xmlns="http://www.w3.org/2000/svg" viewBox="49 -15 1717 925">
  <g transform="translate(0, 895) scale(1, -1)">
    <path fill="black" d="M249 -15Q256 11 269.5 28.0Q283 45 304 48Q325 51 352.5 56.5Q380 62 392 67Q403 72 414.5 88.5Q426 105 434 118L504 243L479 397Q428 413 380.5 439.0Q333 465 295.5 497.0Q258 529 236.0 564.5Q214 600 214 635Q201 629 190.0 615.0Q179 601 173 575Q170 556 163.0 539.0Q156 522 136 522Q123 522 112.5 535.5Q102 549 102 573Q102 597 121.0 622.0Q140 647 171 665L244 706L311 764Q317 770 325.0 777.5Q333 785 333 791Q333 797 320.0 798.5Q307 800 285 800Q279 797 255.5 788.0Q232 779 199.0 766.5Q166 754 129.5 740.0Q93 726 60 714L49 741Q80 759 114.5 779.5Q149 800 179.0 818.0Q209 836 229.0 848.5Q249 861 252 863Q264 874 287.5 892.0Q311 910 346 910Q373 910 400.5 890.5Q428 871 431 837Q433 811 423.5 789.5Q414 768 396 750L325 680Q320 675 311.5 666.0Q303 657 303 654Q303 651 306 651Q310 651 319 655Q339 663 376.5 675.0Q414 687 456 687Q488 687 520.5 679.0Q553 671 586 658Q589 670 598.0 684.5Q607 699 625 715L682 764Q688 770 696.0 777.5Q704 785 704 791Q704 797 691.5 798.5Q679 800 656 800Q650 797 626.5 788.0Q603 779 570.0 766.5Q537 754 500.5 740.0Q464 726 431 714L420 741Q451 759 485.5 779.5Q520 800 550.5 818.0Q581 836 601.0 848.5Q621 861 624 863Q635 874 658.5 892.0Q682 910 717 910Q744 910 771.5 890.5Q799 871 802 837Q804 811 795.0 789.5Q786 768 767 750L696 680Q691 675 682.5 666.0Q674 657 674 654Q674 651 677 651Q681 651 690 655Q710 663 747.5 675.0Q785 687 827 687Q859 687 892.0 679.0Q925 671 958 658Q960 670 969.0 684.5Q978 699 996 715L1053 764Q1060 770 1067.5 777.5Q1075 785 1075 791Q1075 797 1062.5 798.5Q1050 800 1027 800Q1021 797 997.5 788.0Q974 779 941.0 766.5Q908 754 871.5 740.0Q835 726 802 714L791 741Q822 759 856.5 779.5Q891 800 921.5 818.0Q952 836 972.0 848.5Q992 861 995 863Q1006 874 1030.0 892.0Q1054 910 1088 910Q1115 910 1142.5 890.5Q1170 871 1173 837Q1175 811 1166.0 789.5Q1157 768 1138 750L1067 680Q1062 675 1053.5 666.0Q1045 657 1045 654Q1045 651 1048 651Q1052 651 1061 655Q1081 663 1118.5 675.0Q1156 687 1198 687Q1240 687 1284.5 673.5Q1329 660 1373.0 639.0Q1417 618 1455.5 595.5Q1494 573 1524 554Q1542 543 1555.5 534.5Q1569 526 1576 523Q1595 514 1628.0 498.0Q1661 482 1698.0 464.5Q1735 447 1764 433V409Q1759 408 1754.5 407.5Q1750 407 1745 407L1766 381L1676 321L1595 354Q1594 354 1575.0 360.0Q1556 366 1540 366Q1534 366 1522 363Q1513 362 1501.0 360.5Q1489 359 1472 359Q1459 360 1441.5 363.5Q1424 367 1416 374Q1421 356 1431.0 320.5Q1441 285 1453.5 244.5Q1466 204 1476 171L1473 64L1500 55Q1551 38 1565 -15H1549Q1539 -4 1516.0 0.0Q1493 4 1469.5 5.0Q1446 6 1435 6Q1423 6 1404.0 4.5Q1385 3 1367.0 2.0Q1349 1 1340 0Q1330 -1 1317.5 -3.5Q1305 -6 1297 -15H1281Q1288 11 1303.0 29.0Q1318 47 1338 50L1414 64L1410 151Q1410 165 1405.5 187.0Q1401 209 1387 229Q1380 239 1364.0 257.5Q1348 276 1328 297L1304 223L1199 58Q1235 46 1251.5 29.5Q1268 13 1275 -15H1259Q1249 -4 1226.0 0.0Q1203 4 1179.5 5.0Q1156 6 1145 6Q1133 6 1114.0 4.5Q1095 3 1077.0 2.0Q1059 1 1050 0Q1040 -1 1027.5 -3.5Q1015 -6 1007 -15H991Q993 -10 994.0 -6.0Q995 -2 997 2L969 0Q959 -1 946.5 -3.5Q934 -6 926 -15H910Q917 11 931.5 29.0Q946 47 967 50L1042 64L1039 151Q1039 165 1034.5 187.0Q1030 209 1016 229Q1009 239 993.0 257.5Q977 276 957 297L933 223L828 58Q864 46 880.5 29.5Q897 13 904 -15H888Q878 -4 854.5 0.0Q831 4 807.5 5.0Q784 6 773 6Q761 6 742.0 4.5Q723 3 705.5 2.0Q688 1 679 0Q669 -1 656.5 -3.5Q644 -6 636 -15H620Q622 -10 623.0 -6.0Q624 -2 625 2L598 0Q587 -1 575.0 -3.5Q563 -6 555 -15H539Q546 11 560.5 29.0Q575 47 596 50L671 64L667 151Q668 165 663.5 187.0Q659 209 645 229Q638 239 622.0 257.5Q606 276 586 297L562 223L457 58Q493 46 509.0 29.5Q525 13 533 -15H517Q507 -4 483.5 0.0Q460 4 436.5 5.0Q413 6 402 6Q390 6 371.0 4.5Q352 3 334.5 2.0Q317 1 308 0Q297 -1 285.0 -3.5Q273 -6 265 -15ZM691 51Q696 52 701.0 52.5Q706 53 711 54L714 171Q703 210 690.0 254.5Q677 299 666.5 335.5Q656 372 652 385L675 395Q683 390 698.0 384.0Q713 378 729 378Q744 378 756.5 380.0Q769 382 778 383Q783 384 788.0 384.5Q793 385 797 385Q812 385 829.5 380.5Q847 376 854 374L851 397Q837 400 829 404Q801 406 770.0 408.0Q739 410 705 412Q634 417 562.0 432.5Q490 448 430.0 469.0Q370 490 334.0 513.5Q298 537 298 559Q298 587 316.5 604.0Q335 621 352 627L357 610Q344 606 331.0 593.0Q318 580 318 559Q318 540 352.5 520.0Q387 500 444.0 482.0Q501 464 569.5 450.5Q638 437 706 432Q723 431 740.5 429.5Q758 428 775 427Q723 452 679.5 486.0Q636 520 610.5 559.0Q585 598 584 638Q552 652 519.5 659.5Q487 667 456 667Q417 667 379.5 656.5Q342 646 322 638Q309 633 303 633Q295 633 289.0 637.5Q283 642 283 654Q283 662 293.5 674.0Q304 686 310 692L381 762Q397 779 405.0 796.0Q413 813 411 835Q409 862 388.5 876.0Q368 890 346 890Q321 890 302.5 878.5Q284 867 272 856Q273 847 277.5 837.5Q282 828 287 820Q319 822 335.5 813.0Q352 804 352 791Q352 780 342.5 769.5Q333 759 324 751Q293 724 279.0 712.0Q265 700 261.0 696.0Q257 692 255 690L182 650Q155 635 138.0 613.5Q121 592 121 573Q121 542 136 542Q145 542 148.0 553.5Q151 565 153 578Q158 608 179.0 631.5Q200 655 238 663Q235 655 234.0 646.5Q233 638 233 634Q233 609 255.0 577.5Q277 546 314.0 513.5Q351 481 398.0 454.0Q445 427 495 412Q503 404 526.0 381.5Q549 359 577.0 331.0Q605 303 629.0 277.5Q653 252 662 238Q676 216 681.5 191.5Q687 167 687 152ZM1063 51Q1067 52 1072.0 52.5Q1077 53 1082 54L1085 171Q1074 210 1061.0 254.5Q1048 299 1037.5 335.5Q1027 372 1023 385L1046 395Q1054 390 1069.5 384.0Q1085 378 1101 378Q1115 378 1127.5 380.0Q1140 382 1149 383Q1154 384 1159.0 384.5Q1164 385 1168 385Q1183 385 1200.5 380.5Q1218 376 1225 374L1222 397Q1208 400 1200 404Q1172 406 1141.5 408.0Q1111 410 1076 412Q1005 417 933.0 432.5Q861 448 801.0 469.0Q741 490 705.0 513.5Q669 537 669 559Q669 587 687.5 604.0Q706 621 723 627L728 610Q715 606 702.0 593.0Q689 580 689 559Q689 540 723.5 520.0Q758 500 815.0 482.0Q872 464 940.5 450.5Q1009 437 1077 432Q1094 431 1111.5 429.5Q1129 428 1146 427Q1094 452 1050.5 486.0Q1007 520 981.5 559.0Q956 598 956 638Q923 652 890.5 659.5Q858 667 827 667Q788 667 750.5 656.5Q713 646 693 638Q680 633 674 633Q667 633 660.5 637.5Q654 642 654 654Q654 662 664.5 674.0Q675 686 681 692L752 762Q768 779 776.0 796.0Q784 813 782 835Q780 862 759.5 876.0Q739 890 717 890Q693 890 674.0 878.5Q655 867 643 856Q646 837 658 820Q690 822 706.5 813.0Q723 804 723 791Q723 780 713.5 769.5Q704 759 695 751L636 700Q618 684 611.0 665.5Q604 647 604 638Q609 592 646.0 547.5Q683 503 741.0 467.5Q799 432 866 412Q874 404 897.0 381.5Q920 359 948.0 331.0Q976 303 1000.0 277.5Q1024 252 1033 238Q1048 216 1053.5 191.5Q1059 167 1058 152ZM1343 17Q1364 19 1392.0 21.5Q1420 24 1435 24Q1449 24 1469.5 23.0Q1490 22 1503 20L1501 35L1453 51L1457 171Q1446 210 1432.5 254.5Q1419 299 1409.0 335.5Q1399 372 1395 385L1417 395Q1425 390 1440.5 384.0Q1456 378 1472 378Q1486 378 1498.5 380.0Q1511 382 1520 383Q1525 384 1530.5 384.5Q1536 385 1540 385Q1554 385 1572.0 381.0Q1590 377 1602 373L1674 343Q1692 356 1706.0 365.0Q1720 374 1739 386L1721 405Q1702 404 1683.5 403.5Q1665 403 1647 403Q1604 403 1555.0 405.5Q1506 408 1447 412Q1376 417 1304.0 432.5Q1232 448 1172.5 469.0Q1113 490 1077.0 513.5Q1041 537 1041 559Q1041 587 1059.0 604.0Q1077 621 1094 627L1099 610Q1086 606 1073.0 593.0Q1060 580 1060 559Q1060 540 1094.5 520.0Q1129 500 1186.5 482.0Q1244 464 1312.5 450.5Q1381 437 1448 432Q1501 428 1554.0 425.5Q1607 423 1647 422H1742L1569 505Q1559 510 1545.5 518.5Q1532 527 1515 537Q1486 555 1448.0 577.5Q1410 600 1367.5 620.0Q1325 640 1281.5 653.5Q1238 667 1198 667Q1159 667 1121.5 656.5Q1084 646 1064 638Q1051 633 1045 633Q1038 633 1031.5 637.5Q1025 642 1025 654Q1025 662 1035.5 674.0Q1046 686 1052 692L1123 762Q1140 779 1147.5 796.0Q1155 813 1153 835Q1151 862 1130.5 876.0Q1110 890 1088 890Q1064 890 1045.0 878.5Q1026 867 1014 856Q1017 837 1029 820Q1061 822 1077.5 813.0Q1094 804 1094 791Q1094 780 1084.5 769.5Q1075 759 1066 751L1007 700Q989 684 982.0 665.5Q975 647 976 638Q980 592 1017.0 547.5Q1054 503 1112.0 467.5Q1170 432 1237 412Q1245 404 1268.0 381.5Q1291 359 1319.0 331.0Q1347 303 1371.0 277.5Q1395 252 1404 238Q1419 216 1424.5 191.5Q1430 167 1429 152L1434 47L1345 31ZM1070 846Q1057 846 1057 859Q1057 873 1070 873Q1083 873 1083 859Q1083 846 1070 846ZM328 846Q314 846 314 859Q314 873 328 873Q341 873 341 859Q341 846 328 846ZM699 846Q686 846 686 859Q686 873 699 873Q712 873 712 859Q712 846 699 846ZM68 730 270 814Q266 821 262.5 828.5Q259 836 257 843Q245 836 211.5 818.0Q178 800 138.0 778.5Q98 757 64 738ZM439 730 641 814Q637 821 633.5 828.5Q630 836 628 843Q616 836 583.0 818.0Q550 800 510.0 778.5Q470 757 436 738ZM811 730 1012 814Q1008 821 1004.5 828.5Q1001 836 999 843Q987 836 954.0 818.0Q921 800 881.0 778.5Q841 757 807 738ZM311 17Q332 19 360.0 21.5Q388 24 402 24Q417 24 437.5 23.0Q458 22 471 20L469 35Q466 37 459.5 40.5Q453 44 445 45Q440 47 437.5 51.5Q435 56 442 67L543 229L572 311Q552 331 533.5 349.5Q515 368 502 380L524 241L457 119Q448 103 436.0 82.0Q424 61 407 53Q391 46 362.5 40.0Q334 34 313 31ZM1053 17Q1074 19 1102.0 21.5Q1130 24 1145 24Q1159 24 1179.5 23.0Q1200 22 1213 20L1211 35Q1208 37 1201.5 40.5Q1195 44 1187 45Q1182 47 1180.0 51.5Q1178 56 1185 67L1285 229L1314 311Q1295 331 1276.0 349.5Q1257 368 1245 380L1267 241L1199 119Q1190 103 1178.0 82.0Q1166 61 1149 53Q1134 46 1105.0 40.0Q1076 34 1055 31ZM682 17Q703 19 731.0 21.5Q759 24 773 24Q788 24 808.5 23.0Q829 22 842 20L840 35Q837 37 830.5 40.5Q824 44 816 45Q811 47 808.5 51.5Q806 56 813 67L914 229L943 311Q924 331 905.0 349.5Q886 368 874 380L896 241L828 119Q819 103 807.0 82.0Q795 61 778 53Q763 46 734.0 40.0Q705 34 684 31ZM730 58Q740 60 748.5 62.5Q757 65 763 67Q774 72 785.5 88.5Q797 105 805 118L875 243L857 354Q846 357 827.5 361.5Q809 366 797 366Q794 366 790.0 365.0Q786 364 780 363Q771 362 758.5 360.5Q746 359 729 359Q716 360 698.5 363.5Q681 367 673 374Q678 356 688.5 320.5Q699 285 711.5 244.5Q724 204 734 171ZM1102 58Q1111 60 1119.5 62.5Q1128 65 1134 67Q1145 72 1157.0 88.5Q1169 105 1176 118L1246 243L1229 354Q1217 357 1198.5 361.5Q1180 366 1168 366Q1166 366 1161.5 365.0Q1157 364 1151 363Q1142 362 1130.0 360.5Q1118 359 1101 359Q1088 360 1070.0 363.5Q1052 367 1044 374Q1049 356 1059.5 320.5Q1070 285 1082.5 244.5Q1095 204 1105 171ZM972 17Q977 18 986.5 18.5Q996 19 1006 20Q1013 32 1025 40L974 31ZM601 17Q606 18 615.5 18.5Q625 19 635 20Q642 32 654 40L603 31ZM930 0Q933 4 941.5 9.5Q950 15 957 17L958 28Q952 26 943.5 19.0Q935 12 930 0ZM1545 0Q1540 12 1531.5 19.0Q1523 26 1517 28L1519 17Q1526 15 1534.0 9.5Q1542 4 1545 0ZM269 0Q272 4 280.0 9.5Q288 15 295 17L297 28Q291 26 282.5 19.0Q274 12 269 0ZM513 0Q508 12 499.5 19.0Q491 26 485 28L486 17Q494 15 502.0 9.5Q510 4 513 0ZM559 0Q562 4 570.0 9.5Q578 15 585 17L587 28Q581 26 572.5 19.0Q564 12 559 0ZM1301 0Q1304 4 1312.5 9.5Q1321 15 1328 17L1329 28Q1323 26 1314.5 19.0Q1306 12 1301 0ZM640 0Q643 4 651.5 9.5Q660 15 667 17L668 28Q662 26 653.5 19.0Q645 12 640 0ZM1255 0Q1250 12 1241.5 19.0Q1233 26 1227 28L1229 17Q1236 15 1244.0 9.5Q1252 4 1255 0ZM884 0Q879 12 870.5 19.0Q862 26 856 28L857 17Q865 15 873.0 9.5Q881 4 884 0ZM1011 0Q1014 4 1022.5 9.5Q1031 15 1038 17L1039 28Q1033 26 1024.5 19.0Q1016 12 1011 0Z" />
  </g>
</svg>