<svg xmlns="http://www.w3.org/2000/svg" viewBox="46 -17 999 1030">
  <g transform="translate(0, 996) scale(1, -1)">
    <path fill="black" d="M319 1013Q348 1013 363.5 1005.0Q379 997 404 986Q462 958 524.5 950.0Q587 942 651 938V892Q635 894 608.0 896.5Q581 899 558 903Q566 901 584.5 897.0Q603 893 623.0 889.5Q643 886 656 884V847Q584 859 509.5 876.5Q435 894 385 922Q386 919 386 914Q386 905 379 891Q370 871 351.0 845.5Q332 820 313.5 797.5Q295 775 286 764L331 781Q354 790 376.5 794.0Q399 798 421 798Q483 798 537.5 771.0Q592 744 640 712L1039 439L1025 412L1004 416L1045 385L904 328Q886 348 851.0 363.5Q816 379 776.0 390.0Q736 401 700.5 408.0Q665 415 646 419Q653 408 662.0 382.0Q671 356 679.0 327.5Q687 299 689 277L652 69L677 60Q706 49 722.5 31.5Q739 14 748 -17H732Q721 -5 695.0 -0.5Q669 4 643.0 5.0Q617 6 605 6Q591 6 570.0 4.5Q549 3 529.5 1.5Q510 0 500 -1Q488 -2 474.5 -4.5Q461 -7 452 -17H437Q439 -11 440.5 -5.0Q442 1 444 5Q431 6 419.0 6.0Q407 6 400 6Q386 6 365.0 4.5Q344 3 324.5 1.5Q305 0 295 -1Q283 -2 269.5 -4.5Q256 -7 247 -17H232Q239 12 254.5 30.5Q270 49 293 53Q316 56 346.5 62.0Q377 68 390 74Q401 79 411.0 94.0Q421 109 425 129L462 310Q458 336 445.0 368.5Q432 401 415.0 433.5Q398 466 382.0 492.0Q366 518 355 530Q346 537 325.5 556.0Q305 575 280.5 598.5Q256 622 235.5 642.0Q215 662 206 671Q189 688 184 701Q180 712 182.0 723.5Q184 735 195 751L194 750Q196 753 209.0 769.0Q222 785 239.5 807.0Q257 829 273.5 850.5Q290 872 298 884Q306 894 309 903Q300 898 282.0 894.5Q264 891 246 893L58 799L46 823L205 950Q210 964 226.5 977.5Q243 991 273 1003Q284 1008 296.0 1010.5Q308 1013 319 1013ZM318 994Q301 994 280 986Q244 972 231.5 955.5Q219 939 222 931Q227 918 242.0 914.5Q257 911 273.0 913.0Q289 915 296 918Q307 923 315.5 925.5Q324 928 328 918Q332 909 326.5 895.0Q321 881 314 872Q313 871 302.5 857.5Q292 844 277.0 824.5Q262 805 247.0 785.5Q232 766 221.5 753.0Q211 740 211 740Q196 720 201 708Q207 697 220 685L349 560Q378 537 401.0 521.0Q424 505 448.5 491.5Q473 478 505 459Q534 443 563.5 411.0Q593 379 616.0 335.5Q639 292 647 240L616 54L505 34L503 18Q526 20 557.5 23.0Q589 26 605 26Q622 26 644.0 24.5Q666 23 681 21L679 38L632 56L668 277Q670 287 664.0 308.5Q658 330 648.0 356.5Q638 383 626.5 406.5Q615 430 605 443Q631 441 673.5 433.5Q716 426 763.0 414.0Q810 402 850.0 386.5Q890 371 910 353L1006 390L960 424L553 498Q529 504 499.5 512.5Q470 521 445.5 529.5Q421 538 411 544Q398 553 374.0 569.5Q350 586 326.5 610.5Q303 635 290 666Q284 683 292.5 698.5Q301 714 317.5 726.5Q334 739 351 747L360 729Q340 720 321.0 704.0Q302 688 308 673Q320 644 341.0 622.5Q362 601 384.0 586.0Q406 571 418 562Q429 556 453.0 547.5Q477 539 505.5 531.0Q534 523 558 517L1011 434L629 695Q583 727 533.0 752.5Q483 778 424 778Q390 778 363.0 770.0Q336 762 335 762L273 739L261 765Q278 784 297.5 808.5Q317 833 335.0 857.5Q353 882 362 901Q364 905 365.0 908.0Q366 911 366 914Q366 922 361.5 929.5Q357 937 355 940L366 953Q387 937 421.5 923.0Q456 909 496.0 897.5Q536 886 574.0 877.0Q612 868 641 863V871Q635 872 603.5 878.5Q572 885 528.5 896.5Q485 908 442.0 923.5Q399 939 369 958L376 967Q396 954 436.0 940.5Q476 927 528.5 917.5Q581 908 636 906V924Q599 924 556.0 928.5Q513 933 470.5 942.5Q428 952 394 968Q366 982 352.0 988.0Q338 994 318 994ZM246 950Q246 963 259 963Q264 963 268.5 959.0Q273 955 273 950Q273 945 268.5 940.5Q264 936 259 936Q254 936 250.0 940.5Q246 945 246 950ZM203 927 70 827 207 917 204 924ZM214 910 75 819 223 902Q218 905 214 910ZM446 127Q442 105 432.0 85.5Q422 66 405 59Q388 51 355.5 44.0Q323 37 300 34L298 18Q321 20 352.5 23.0Q384 26 400 26Q413 26 427.5 25.0Q442 24 454 23Q458 28 462.0 32.5Q466 37 470 41Q469 43 464.0 45.5Q459 48 451 50Q445 52 446.0 60.0Q447 68 451 83L508 315Q510 334 505.5 361.5Q501 389 494.0 414.5Q487 440 481 452Q462 464 440.5 477.0Q419 490 399 502Q416 476 433.5 442.5Q451 409 464.5 374.0Q478 339 482 310ZM508 434Q516 407 522.5 371.5Q529 336 527 312L466 63Q481 59 493 52L597 72L628 241Q620 292 596.5 331.5Q573 371 548.0 397.0Q523 423 508 434ZM283 31Q276 29 266.0 21.5Q256 14 251 0Q255 4 264.0 10.0Q273 16 281 18ZM488 31Q481 29 471.5 21.5Q462 14 456 0Q460 4 469.0 10.0Q478 16 486 18ZM697 31 698 18Q706 16 715.0 10.0Q724 4 728 0Q723 14 713.5 21.5Q704 29 697 31Z" />
  </g>
</svg>