<svg xmlns="http://www.w3.org/2000/svg" viewBox="49 -2 764 1011">
  <g transform="translate(0, 1007) scale(1, -1)">
    <path fill="black" d="M209 -2 234 38Q254 43 277.0 47.0Q300 51 309 52Q328 55 341.5 66.5Q355 78 362 94L424 237Q423 242 422.5 253.5Q422 265 423 272Q424 278 430.5 287.5Q437 297 443 304L446 344Q398 364 357.0 393.0Q316 422 295 445Q288 444 277.5 443.0Q267 442 262 442Q217 442 182.5 463.0Q148 484 128.0 520.5Q108 557 108 603Q108 639 125.0 675.0Q142 711 164.0 745.0Q186 779 203.0 810.5Q220 842 220 869Q220 898 208.5 904.5Q197 911 169 910Q136 907 107.0 906.5Q78 906 55 913L49 923L113 961Q124 971 128.0 975.0Q132 979 134 982Q145 994 161.5 1001.5Q178 1009 206 1009Q243 1009 266.0 983.0Q289 957 289 920Q289 886 273.5 838.5Q258 791 243 750Q232 722 223.5 697.5Q215 673 215 662Q215 637 223.5 623.5Q232 610 253 610Q273 610 289.5 625.0Q306 640 322 658Q344 684 371.5 707.0Q399 730 441 730Q462 730 482.0 724.0Q502 718 512 713Q511 687 505.0 664.5Q499 642 491 633Q512 636 546 636Q599 636 641.0 611.5Q683 587 715.5 548.0Q748 509 769.5 466.0Q791 423 802.0 384.0Q813 345 813 322Q813 300 805.0 289.5Q797 279 787 279Q780 279 763 290Q745 300 718.0 313.0Q691 326 669 326Q647 326 635.0 323.5Q623 321 615 319L616 304Q619 300 624.5 290.0Q630 280 630 269Q630 262 626.0 250.5Q622 239 617 231Q616 222 614.0 183.5Q612 145 607 63L624 0H602L589 18L567 0H465L454 12L436 -2H419L444 38Q464 43 487.0 47.0Q510 51 518 52Q526 54 539.0 57.5Q552 61 553 77L563 230Q562 234 556.5 244.5Q551 255 550 268Q549 275 550.5 284.0Q552 293 553 298L536 319Q532 319 528.0 319.5Q524 320 520 320L506 278Q506 275 505.0 263.5Q504 252 498 244Q490 234 475 219Q473 213 461.5 186.5Q450 160 435.5 125.5Q421 91 408 60L414 0H393L380 18L357 0H256L244 12L226 -2ZM473 19H560Q562 20 570.5 27.0Q579 34 586 41L598 31L587 56L598 238Q603 245 607.0 254.5Q611 264 611 269Q611 275 606.5 283.0Q602 291 597 296Q597 299 596.0 323.5Q595 348 593 399L613 400L615 339Q626 341 638.0 343.5Q650 346 669 346Q695 346 724.0 332.0Q753 318 772 307Q783 301 787 298Q793 298 793 322Q793 344 783.0 380.5Q773 417 753.0 457.5Q733 498 703.0 534.5Q673 571 634.0 594.0Q595 617 546 617Q520 617 503.0 615.5Q486 614 477 613Q466 598 448.0 584.0Q430 570 413.5 559.5Q397 549 388 546L380 561Q436 588 463.0 624.5Q490 661 492 701Q486 704 473.5 707.0Q461 710 441 710Q404 710 380.0 689.5Q356 669 336 646Q318 624 299.0 607.0Q280 590 253 590Q221 590 208.0 608.5Q195 627 195 662Q195 676 203.5 701.0Q212 726 224 757Q240 798 255.0 843.0Q270 888 270 920Q270 949 252.0 969.5Q234 990 206 990Q169 990 155.0 975.0Q141 960 141 949Q141 934 154.5 931.5Q168 929 181 930H190Q210 930 225.0 916.5Q240 903 240 869Q240 838 223.0 805.5Q206 773 184.0 739.5Q162 706 145.0 672.0Q128 638 128 603Q128 542 166.0 501.5Q204 461 262 461Q264 461 277.5 463.0Q291 465 303 466Q315 451 339.5 432.0Q364 413 395.5 394.0Q427 375 460.0 360.5Q493 346 521 341L499 375L515 385L572 303Q571 298 569.5 288.5Q568 279 569 270Q570 262 574.5 252.0Q579 242 583 235L573 79Q572 58 562.5 49.0Q553 40 541.0 37.5Q529 35 520 33Q512 32 498.0 30.5Q484 29 467 24ZM171 950Q161 950 161 960Q161 971 171 971Q182 971 182 960Q182 950 171 950ZM77 924 122 940Q121 943 121 949V951ZM87 919Q98 919 108.5 920.5Q119 922 129 923Q128 925 127.0 926.0Q126 927 125 929ZM263 19H351Q353 20 361.0 27.0Q369 34 376 41L388 31L386 58L459 230Q465 236 472.0 244.0Q479 252 482 256Q485 259 485.5 267.0Q486 275 486 281L500 324Q494 326 482.5 330.0Q471 334 464 336L461 296Q456 292 450.0 284.0Q444 276 443 269Q442 263 442.5 253.0Q443 243 444 235L379 84Q369 61 351.5 48.5Q334 36 311 33Q303 32 289.0 30.5Q275 29 257 24Z" />
  </g>
</svg>