<svg xmlns="http://www.w3.org/2000/svg" viewBox="49 -10 1166 724">
  <g transform="translate(0, 704) scale(1, -1)">
    <path fill="black" d="M555 -10Q536 -10 536 2Q536 8 541 13L514 3Q506 1 498 1Q491 1 485.0 4.0Q479 7 479 14Q479 19 482.5 24.0Q486 29 501 36L500 38L428 4Q419 0 407 0Q387 0 387 12Q387 17 392 24L360 13Q357 12 351 12Q341 12 336.0 17.0Q331 22 331 29Q331 35 335.0 39.0Q339 43 352 47Q345 48 343.0 51.5Q341 55 341 58Q341 60 345.0 65.5Q349 71 364 73L496 95Q517 115 529.5 130.0Q542 145 542 149Q542 154 533.5 165.5Q525 177 514.0 189.5Q503 202 497 207Q450 224 407.5 250.5Q365 277 342 296Q320 315 290.0 344.0Q260 373 238.0 408.0Q216 443 216 478Q216 505 229.0 529.5Q242 554 275.5 570.0Q309 586 368 586H437Q446 586 462.0 587.0Q478 588 478 594Q478 599 473.5 601.5Q469 604 452 604Q431 604 410.0 602.0Q389 600 366 600Q363 600 346.5 600.0Q330 600 313.5 600.5Q297 601 292 603L137 606Q110 607 97.5 606.0Q85 605 82.0 603.0Q79 601 77 597H49V606Q50 623 61.5 633.0Q73 643 87.5 648.0Q102 653 111 655L280 696Q291 704 309.0 709.0Q327 714 354 714Q416 714 461.0 696.5Q506 679 531.0 653.0Q556 627 556 601Q556 570 543.0 552.0Q530 534 511.0 526.0Q492 518 472.5 516.0Q453 514 439 514Q399 514 379.5 512.0Q360 510 360 500Q360 494 370.5 491.0Q381 488 388 488Q394 488 413.5 490.0Q433 492 455.5 494.5Q478 497 491 497Q569 497 632.0 479.5Q695 462 751.0 436.5Q807 411 863.0 385.5Q919 360 983 343Q993 341 1018.0 336.0Q1043 331 1076.5 324.5Q1110 318 1146.0 311.5Q1182 305 1213 299L1215 265Q1211 265 1203.0 265.0Q1195 265 1185 264Q1196 259 1196 250V188Q1196 166 1181.0 156.5Q1166 147 1147 147Q1145 147 1142.0 147.0Q1139 147 1136 148L869 186Q867 186 853.0 186.0Q839 186 821.0 185.5Q803 185 786.5 185.0Q770 185 763 185Q743 185 727.0 187.0Q711 189 700 191Q708 180 715.0 168.5Q722 157 722 150Q722 144 714.0 126.5Q706 109 695.0 88.5Q684 68 675.0 51.5Q666 35 664 31L577 -6Q571 -10 555 -10ZM561 5Q564 5 568.5 6.0Q573 7 575 8L647 40Q649 45 658.0 60.5Q667 76 677.0 95.5Q687 115 694.5 130.5Q702 146 702 150Q702 157 687.5 176.0Q673 195 659 211L670 225Q681 219 702.0 211.5Q723 204 763 204Q770 204 788.5 204.5Q807 205 830.0 205.5Q853 206 872 206L1139 167H1147Q1159 167 1167.5 171.5Q1176 176 1176 188V241Q1176 253 1160.5 257.0Q1145 261 1127.0 261.5Q1109 262 1101 262Q1050 261 990.5 259.0Q931 257 875.0 255.5Q819 254 778.5 253.0Q738 252 727 252Q614 252 529.0 275.5Q444 299 396.5 334.5Q349 370 349 406Q349 425 366.0 442.5Q383 460 409 460Q427 460 436.0 457.5Q445 455 458 455Q467 455 485.0 459.5Q503 464 516 468L522 449Q508 445 488.5 440.0Q469 435 458 435Q442 435 432.0 437.5Q422 440 409 440Q392 440 380.5 429.0Q369 418 369 406Q369 375 414.0 343.5Q459 312 539.5 291.5Q620 271 727 271Q736 271 765.5 271.5Q795 272 836.5 272.5Q878 273 926.0 274.0Q974 275 1020.5 275.5Q1067 276 1106 277Q1136 278 1161.5 278.5Q1187 279 1200 279V284Q1186 287 1153.5 292.5Q1121 298 1084.0 304.5Q1047 311 1017.0 316.5Q987 322 978 325Q916 341 860.0 366.5Q804 392 748.0 417.5Q692 443 629.5 460.5Q567 478 491 478Q480 478 458.0 475.5Q436 473 416.0 471.0Q396 469 388 469Q378 469 359.5 476.5Q341 484 341 500Q341 523 363.5 528.0Q386 533 431 533Q440 533 457.5 534.0Q475 535 493.0 540.5Q511 546 524.0 560.0Q537 574 537 601Q537 623 511.0 644.5Q485 666 443.5 680.5Q402 695 354 695Q322 695 304.5 687.5Q287 680 280.5 671.0Q274 662 274 656Q274 643 285.5 635.5Q297 628 313.0 624.5Q329 621 344.0 620.5Q359 620 366 620Q388 620 409.0 622.0Q430 624 452 624Q473 624 485.5 615.0Q498 606 498 594Q498 578 480.0 572.0Q462 566 437 566H368Q316 566 287.0 553.0Q258 540 246.5 520.0Q235 500 235 478Q235 448 256.0 416.0Q277 384 305.0 356.5Q333 329 354 312Q374 296 406.0 274.5Q438 253 476.0 235.5Q514 218 550 213Q587 209 616.5 197.0Q646 185 664.0 171.0Q682 157 682 146Q682 142 676.0 129.5Q670 117 662.0 102.5Q654 88 647.5 76.5Q641 65 639 63L514 26Q502 23 498.5 20.5Q495 18 495 15Q495 12 501 12Q509 12 520 16L606 43V32L565 17Q561 16 557.5 13.5Q554 11 554 9Q554 5 561 5ZM328 639Q319 639 313.0 645.0Q307 651 307 660Q307 668 313.0 674.5Q319 681 328 681Q336 681 342.0 674.5Q348 668 348 660Q348 651 342.0 645.0Q336 639 328 639ZM63 608H69Q72 614 80.5 621.5Q89 629 111.0 634.0Q133 639 175 639Q207 639 226.5 638.5Q246 638 259 637Q255 645 255 656Q255 664 259 672L118 641Q96 637 80.5 629.0Q65 621 63 608ZM328 652Q335 652 335 660Q335 667 328 667Q320 667 320 660Q320 652 328 652ZM102 620H274Q272 621 270 623Q255 625 234.5 625.5Q214 626 176 626Q123 626 102 620ZM408 13Q418 13 430 20L507 61Q524 78 543.0 96.0Q562 114 575.5 129.5Q589 145 589 151Q589 155 585.5 166.0Q582 177 573 190Q563 193 552.5 194.5Q542 196 530 197Q542 184 552.0 170.0Q562 156 562 149Q562 141 550.5 127.0Q539 113 526.0 100.0Q513 87 508 83L361 38Q347 34 347 30Q347 25 355 25Q357 25 360.5 25.5Q364 26 368 27L457 54V43L420 31Q407 27 403.5 25.0Q400 23 400 18Q400 13 408 13ZM534 63 622 72Q638 98 650.5 120.0Q663 142 663 146Q663 150 644.0 161.5Q625 173 599 183Q604 172 606.5 163.5Q609 155 609 151Q609 139 593.0 122.0Q577 105 534 63ZM367 56 467 78V79L366 63Q359 62 359 58Q359 55 367 56ZM533 44 587 58 586 59 527 52Q512 49 512 45Q512 40 533 44Z" />
  </g>
</svg>