<svg xmlns="http://www.w3.org/2000/svg" viewBox="49 160 1103 772">
  <g transform="translate(0, 1092) scale(1, -1)">
    <path fill="black" d="M266 160 275 200 351 215Q370 219 380.5 227.5Q391 236 402 253L442 314Q450 325 451.5 333.5Q453 342 447 354L386 480L275 561Q263 570 241.5 588.5Q220 607 202.5 634.0Q185 661 185 696Q185 714 187.5 725.0Q190 736 192 743Q194 748 195.0 751.5Q196 755 196 759Q196 773 188.5 786.5Q181 800 172 812L169 816L50 828L49 843L161 886Q173 905 201.0 918.5Q229 932 272 932Q314 932 340.5 917.0Q367 902 385.0 879.5Q403 857 419.5 833.0Q436 809 459 790Q467 783 484.5 771.5Q502 760 521 746L572 710Q580 704 599.5 687.5Q619 671 644.5 649.0Q670 627 696.5 604.0Q723 581 745 562Q774 537 808.5 513.0Q843 489 872.5 472.0Q902 455 915 451Q939 444 975.5 438.5Q1012 433 1051.5 429.5Q1091 426 1121 424V392Q1105 391 1075.0 390.0Q1045 389 1013 388L1152 304L1146 287Q1126 290 1100.0 293.5Q1074 297 1049.0 299.5Q1024 302 1007 302Q991 302 991 299Q991 293 1004.5 274.0Q1018 255 1038.0 231.0Q1058 207 1076 186L1065 172L794 329Q757 350 710.0 366.5Q663 383 616 391L633 360Q637 353 637.0 345.0Q637 337 632 324L603 249Q599 239 602.5 230.0Q606 221 613 218L672 200L675 160Q650 162 616.0 164.5Q582 167 563 167Q538 167 499.0 164.5Q460 162 432 160L433 166Q423 167 413.5 167.0Q404 167 396 167Q371 167 332.5 164.5Q294 162 266 160ZM1026 216Q1007 241 988.0 266.0Q969 291 969 305Q969 314 979.5 318.0Q990 322 1007 322Q1021 322 1048.5 319.0Q1076 316 1097 314Q1071 330 1036.0 351.5Q1001 373 978 386Q945 385 913.0 384.5Q881 384 857 384Q751 384 656.0 407.0Q561 430 483.0 467.0Q405 504 348.0 547.5Q291 591 260.0 632.0Q229 673 229 703Q229 732 249.0 747.0Q269 762 297 762Q317 762 337.0 758.0Q357 754 368 749L361 730Q351 734 333.0 738.0Q315 742 297 742Q278 742 263.0 732.5Q248 723 248 703Q248 675 278.0 636.0Q308 597 363.0 556.5Q418 516 494.0 481.5Q570 447 662.0 425.5Q754 404 857 404Q889 404 933.5 404.5Q978 405 1024.0 405.5Q1070 406 1105 406Q1087 407 1051.0 410.0Q1015 413 976.0 419.0Q937 425 909 433Q896 437 865.0 454.5Q834 472 798.0 496.5Q762 521 732 547Q710 566 683.5 589.5Q657 613 631.5 635.5Q606 658 587.0 674.0Q568 690 561 695L510 730Q489 744 471.0 756.5Q453 769 446 774Q424 794 407.0 818.0Q390 842 372.0 863.5Q354 885 330.5 898.5Q307 912 272 912Q223 912 197.0 894.5Q171 877 171 857Q171 850 176.0 841.5Q181 833 188 824Q198 810 207.0 794.0Q216 778 216 759Q216 752 214.5 747.0Q213 742 211 736Q209 729 206.5 720.0Q204 711 204 696Q204 668 219.5 644.5Q235 621 255.0 603.5Q275 586 287 576L536 395Q548 385 563.5 373.5Q579 362 583 348L613 355Q608 366 598.0 384.0Q588 402 580 415Q642 408 701.5 389.5Q761 371 804 345ZM228 837Q213 837 213 853Q213 859 217.5 863.5Q222 868 228 868Q234 868 238.5 863.5Q243 859 243 853Q243 837 228 837ZM157 835Q151 846 151 857Q151 861 152 864L94 841ZM470 344H499Q496 355 490.5 375.5Q485 396 480 411L417 457ZM479 208 522 218Q536 221 542.5 232.0Q549 243 551 252L562 300Q567 326 566.5 335.5Q566 345 556 353L505 392L518 350Q524 326 511 311L453 237Q448 230 449.0 224.0Q450 218 465 213ZM454 177Q477 179 510.0 182.0Q543 185 563 185Q582 185 609.0 182.0Q636 179 655 177L654 184L612 199Q592 204 585.0 219.5Q578 235 586 257L617 340L589 333L568 244Q565 229 556.5 216.5Q548 204 532 201L456 186ZM288 177Q311 179 344.0 182.0Q377 185 396 185Q405 185 416.0 184.5Q427 184 437 183L441 200Q425 205 424.5 217.5Q424 230 437 246L501 328L472 327L423 249Q415 236 399.5 219.5Q384 203 367 200L290 186Z" />
  </g>
</svg>