<svg xmlns="http://www.w3.org/2000/svg" viewBox="49 151 905 636">
  <g transform="translate(0, 938) scale(1, -1)">
    <path fill="black" d="M224 151 231 184 293 196Q309 199 317.5 206.0Q326 213 335 228L368 277Q374 286 375.5 293.5Q377 301 372 311L322 413L231 479Q221 487 203.5 502.5Q186 518 171.5 540.0Q157 562 157 591Q157 605 159.5 614.0Q162 623 163 629Q165 633 166.0 636.0Q167 639 167 642Q167 653 162.0 663.0Q157 673 147 685L50 695L49 714L141 750Q151 765 174.0 776.0Q197 787 232 787Q267 787 289.0 774.5Q311 762 326.5 742.5Q342 723 356.0 702.5Q370 682 389 667Q395 662 409.0 652.0Q423 642 439 631L481 602Q490 596 515.0 575.0Q540 554 570.0 527.5Q600 501 623 480Q647 460 674.0 441.0Q701 422 724.5 409.5Q748 397 759 393Q779 387 809.0 382.5Q839 378 871.5 375.5Q904 373 928 371V341Q915 340 890.0 339.0Q865 338 839 337L954 269L947 252Q941 254 921.5 257.0Q902 260 879.5 263.0Q857 266 841.0 267.0Q825 268 825 265Q825 260 836.0 244.5Q847 229 863.0 210.5Q879 192 894 176L882 157L660 286Q630 303 593.0 316.5Q556 330 518 336L531 312Q535 306 535.0 301.0Q535 296 530 286L506 224Q503 216 505.5 208.5Q508 201 515 199L563 184L566 151Q544 153 514.5 155.0Q485 157 470 157Q450 157 418.0 155.0Q386 153 363 151L364 155Q356 156 348.0 156.5Q340 157 334 157Q313 157 280.0 155.0Q247 153 224 151ZM851 197Q835 217 819.0 237.5Q803 258 803 270Q803 277 812.0 280.5Q821 284 834 284Q845 284 868.5 281.5Q892 279 909 277Q887 291 858.5 308.0Q830 325 811 336Q784 335 758.0 335.0Q732 335 712 335Q624 335 546.0 354.0Q468 373 404.0 403.5Q340 434 293.5 469.0Q247 504 221.5 537.5Q196 571 196 596Q196 620 213.0 633.5Q230 647 252 647Q269 647 285.5 643.5Q302 640 311 637L305 618Q297 621 282.0 624.5Q267 628 252 628Q236 628 226.0 620.5Q216 613 216 596Q216 574 240.0 542.5Q264 511 309.0 478.5Q354 446 415.5 417.5Q477 389 552.0 371.5Q627 354 712 354Q737 354 769.5 354.0Q802 354 833.0 353.5Q864 353 886.0 353.0Q908 353 912 353Q896 354 867.0 356.5Q838 359 807.5 363.5Q777 368 754 375Q743 378 718.0 392.5Q693 407 663.5 427.0Q634 447 609 468Q574 500 526.0 541.0Q478 582 427 618Q410 630 395.0 640.0Q380 650 375 655Q357 671 343.0 690.5Q329 710 314.0 727.5Q299 745 280.0 756.5Q261 768 232 768Q192 768 172.0 753.5Q152 739 152 722Q152 717 156.5 710.0Q161 703 167 695Q175 684 180.5 671.0Q186 658 186 642Q186 637 185.0 633.0Q184 629 182 624Q180 618 178.0 610.0Q176 602 176 591Q176 568 189.0 548.0Q202 528 218.0 514.0Q234 500 244 492L448 343Q459 336 471.0 326.0Q483 316 487 305L511 311Q507 319 498.5 334.0Q490 349 484 360Q535 354 584.0 339.0Q633 324 668 303ZM196 707Q184 707 184 719Q184 731 196 731Q208 731 208 719Q208 707 196 707ZM138 704Q133 714 133 722V728L86 709ZM395 302H418Q415 311 410.5 327.5Q406 344 403 356L351 394ZM405 190 434 198Q445 201 450.5 210.0Q456 219 457 226L466 266Q471 287 470.0 294.5Q469 302 461 309L430 336L437 307Q441 287 432 275L383 214Q379 209 380.0 203.5Q381 198 394 194ZM381 165Q400 167 427.0 169.0Q454 171 470 171Q485 171 507.5 169.0Q530 167 546 165L545 170L511 183Q495 187 489.0 199.5Q483 212 490 230L515 298L492 292L475 220Q472 208 465.0 197.5Q458 187 445 185L383 172ZM245 165Q264 167 291.0 169.0Q318 171 334 171Q342 171 350.0 170.5Q358 170 367 169L371 184Q358 188 357.5 198.5Q357 209 367 222L420 289L396 288L355 224Q349 213 336.5 199.5Q324 186 310 184L247 172Z" />
  </g>
</svg>