<svg xmlns="http://www.w3.org/2000/svg" viewBox="49 160 1035 776">
  <g transform="translate(0, 1096) scale(1, -1)">
    <path fill="black" d="M200 160 209 200 285 215Q304 219 319.0 228.0Q334 237 346 254Q356 268 368.5 285.5Q381 303 391.5 318.0Q402 333 405 339V372Q341 413 285.5 474.5Q230 536 208 610Q199 644 187.0 682.5Q175 721 164.0 753.0Q153 785 146 798Q140 801 123.0 807.0Q106 813 86.0 820.0Q66 827 49 833L132 882Q136 887 150.0 900.0Q164 913 189.0 924.5Q214 936 252 936Q290 936 324.5 914.0Q359 892 386.5 860.5Q414 829 430 799Q442 796 467.0 786.5Q492 777 508 760Q566 704 621.5 650.5Q677 597 738.0 553.0Q799 509 874 479Q897 469 889.0 457.0Q881 445 864 440Q893 425 934.5 408.0Q976 391 1017.0 377.0Q1058 363 1084 357V332Q1072 329 1051.0 324.5Q1030 320 1001 320Q968 320 924.5 329.0Q881 338 841.0 350.5Q801 363 776 374Q762 368 726.0 356.5Q690 345 648.0 334.5Q606 324 571 320Q567 312 556.5 290.0Q546 268 538 250Q534 240 537.0 230.5Q540 221 547 218L606 200L609 160Q584 162 550.0 164.5Q516 167 497 167Q472 167 433.0 164.5Q394 162 366 160L367 166Q357 167 347.5 167.0Q338 167 331 167Q306 167 267.0 164.5Q228 162 200 160ZM388 177Q411 179 444.0 182.0Q477 185 497 185Q516 185 543.0 182.0Q570 179 589 177L588 184L546 199Q526 204 519.0 219.5Q512 235 521 257L553 327L528 365L545 375L568 339Q595 343 627.0 350.5Q659 358 689.5 367.0Q720 376 743.5 384.0Q767 392 777 396Q800 385 841.0 371.5Q882 358 925.5 349.0Q969 340 1001 340Q1016 340 1032.0 340.5Q1048 341 1058 343Q1030 351 990.0 365.5Q950 380 910.5 398.0Q871 416 842 432Q829 430 795.0 424.5Q761 419 728 419Q658 419 594.5 425.0Q531 431 473.5 451.0Q416 471 366.0 510.0Q316 549 274 615L291 626Q331 563 379.0 525.5Q427 488 482.5 469.5Q538 451 599.5 445.0Q661 439 728 439Q751 439 777.0 442.0Q803 445 826 449Q855 455 855 461Q855 466 833 475Q786 495 748.0 519.0Q710 543 673.0 575.0Q636 607 593.5 649.0Q551 691 495 746Q479 761 453.5 770.5Q428 780 417 781Q402 810 376.5 841.5Q351 873 319.0 895.0Q287 917 252 917Q212 917 188.0 902.5Q164 888 153 877Q158 870 159.5 860.5Q161 851 161 841Q161 826 158 814H160Q167 802 179.0 768.5Q191 735 204.0 693.5Q217 652 227 616Q243 566 276.0 521.0Q309 476 352.0 439.0Q395 402 441.0 374.5Q487 347 528 333L529 308L501 244Q495 228 484.5 215.5Q474 203 458 200L390 186ZM221 837Q206 837 206 853Q206 868 221 868Q227 868 231.5 863.5Q236 859 236 853Q236 837 221 837ZM97 847H145Q144 852 143.5 856.5Q143 861 141 865ZM142 820Q144 826 144 831H98ZM222 177Q245 179 278.0 182.0Q311 185 331 185Q339 185 350.0 184.5Q361 184 371 183L375 200Q359 205 365.0 219.0Q371 233 383 249Q393 262 405.5 280.5Q418 299 428.5 316.0Q439 333 441 339V350L424 359V335Q423 330 412.0 315.0Q401 300 387.5 282.0Q374 264 364 249Q355 235 336.5 219.0Q318 203 301 200L224 186ZM413 208 448 216Q462 220 470.5 230.0Q479 240 484 252L510 311L509 318Q485 327 461 339V335Q460 330 448.5 313.0Q437 296 423.0 275.5Q409 255 399 240Q389 224 389.5 220.0Q390 216 413 208Z" />
  </g>
</svg>