<svg xmlns="http://www.w3.org/2000/svg" viewBox="49 -58 1092 1088">
  <g transform="translate(0, 972) scale(1, -1)">
    <path fill="black" d="M372 -58 354 -55 358 -35 351 -20 333 -13 312 -45 297 -36 306 -22 247 -3 235 -15 222 -2 245 21 253 30V57L346 103Q351 111 360.0 127.0Q369 143 377 152Q391 167 411.0 192.0Q431 217 444 235L438 342Q423 348 403.0 364.5Q383 381 362.5 403.0Q342 425 325.5 448.5Q309 472 302 492Q293 520 287.5 558.0Q282 596 277 633Q273 668 269.0 696.5Q265 725 259 735Q248 756 225.0 783.0Q202 810 185 828Q170 844 159 869L65 968Q55 980 55 988Q55 990 55.5 992.0Q56 994 56 995Q49 1004 49 1013Q49 1020 53.0 1025.0Q57 1030 70 1030Q78 1030 87.5 1025.5Q97 1021 107 1016Q116 1012 124.0 1007.5Q132 1003 139 1001Q160 994 185.5 987.0Q211 980 227 978Q233 979 239.0 979.0Q245 979 251 979Q307 979 346.0 952.5Q385 926 385 872Q385 845 382.0 830.0Q379 815 377 805Q374 792 374 782Q374 755 386.5 720.0Q399 685 422.5 657.5Q446 630 478 624Q497 646 530.0 678.5Q563 711 610.0 745.5Q657 780 717.5 811.0Q778 842 851.5 861.0Q925 880 1011 880Q1037 880 1070.5 875.0Q1104 870 1125 865Q1125 848 1122 831Q1129 830 1134.0 828.0Q1139 826 1141 825Q1136 767 1105.5 720.5Q1075 674 1028.0 638.5Q981 603 926.0 576.0Q871 549 816.0 529.0Q761 509 714 493Q705 490 700.0 488.5Q695 487 687 484Q692 462 713.0 431.5Q734 401 761.5 371.0Q789 341 813 318Q818 320 829.0 321.5Q840 323 851 323Q872 323 882.0 310.5Q892 298 895.0 280.0Q898 262 898 245V229Q905 225 917.0 214.5Q929 204 939.0 190.0Q949 176 949 160Q949 139 939.0 129.0Q929 119 916.0 116.0Q903 113 894 113Q887 113 867.5 122.5Q848 132 831 141Q824 138 810.5 132.0Q797 126 783.5 121.5Q770 117 762 116Q743 116 733.0 135.5Q723 155 717 174Q716 179 714.5 184.0Q713 189 711 190Q701 198 687.5 206.0Q674 214 659 221Q654 215 636.0 195.5Q618 176 604 164Q596 157 585.0 150.5Q574 144 563 136Q547 127 532.5 117.0Q518 107 513 102Q506 93 492.5 73.5Q479 54 468 39L375 -40ZM166 948Q170 954 175.0 958.0Q180 962 187 966Q174 970 159.5 974.0Q145 978 133 982Q125 985 115.5 989.5Q106 994 99 998Q89 1003 81.0 1007.0Q73 1011 70 1011L69 1010ZM153 905Q153 920 157 931L74 988Q74 988 77.5 983.5Q81 979 98.0 962.0Q115 945 153 905ZM313 -6Q318 2 330.5 18.0Q343 34 353 47Q362 52 374.0 60.0Q386 68 392 76Q397 84 399.5 98.5Q402 113 402 123Q421 141 445.5 163.5Q470 186 483 196Q494 205 519.5 230.5Q545 256 576 291L590 280L582 271Q606 264 633.0 252.5Q660 241 684.5 229.0Q709 217 723 205Q728 201 730.0 194.5Q732 188 735 180Q740 166 746.5 150.5Q753 135 761 136Q769 136 791.0 145.0Q813 154 832 163Q849 153 868.5 143.0Q888 133 894 133Q902 133 916.0 137.0Q930 141 930 160Q930 175 912.0 191.5Q894 208 877 218Q878 227 878.0 233.0Q878 239 878 245Q878 265 873.5 284.0Q869 303 851 303Q841 303 828.5 300.5Q816 298 808 296Q779 322 747.0 358.0Q715 394 692.0 431.0Q669 468 666 497Q674 500 686.5 504.0Q699 508 708 511Q753 526 805.5 546.5Q858 567 911.0 593.0Q964 619 1009.0 651.5Q1054 684 1083.5 724.0Q1113 764 1120 813Q1113 815 1096.0 818.0Q1079 821 1049 821Q968 821 882.5 795.5Q797 770 723 729Q700 716 675.5 700.5Q651 685 629 671Q586 643 549.5 623.0Q513 603 486 603Q455 605 430.5 624.0Q406 643 389.0 671.0Q372 699 363.0 728.5Q354 758 354 782Q354 790 355.5 796.0Q357 802 358 809Q360 819 362.5 833.5Q365 848 365 872Q365 916 331.5 938.0Q298 960 251 960Q222 960 197.0 949.0Q172 938 172 903Q172 885 181.5 868.0Q191 851 199 841Q216 823 239.5 795.5Q263 768 276 745Q284 732 288.5 701.0Q293 670 297 635Q301 601 307.5 561.0Q314 521 321 498Q330 476 350.0 450.0Q370 424 394.0 401.5Q418 379 437 367L436 378L455 379L463 229Q451 213 436.0 193.5Q421 174 409.0 159.5Q397 145 392 140Q384 131 374.5 115.5Q365 100 360 89L271 47Q271 36 273 22L260 9ZM291 867Q282 867 275.5 873.5Q269 880 269 889Q269 898 275.5 904.5Q282 911 291 911Q300 911 306.5 904.5Q313 898 313 889Q313 880 306.5 873.5Q300 867 291 867ZM504 624Q523 629 553.5 647.5Q584 666 619 688Q665 718 713 746Q784 786 873.0 813.0Q962 840 1049 840Q1065 840 1079.0 838.5Q1093 837 1104 835Q1105 838 1105.0 842.0Q1105 846 1106 849Q1095 852 1067.5 856.5Q1040 861 1011 861Q912 861 830.0 835.5Q748 810 684.0 771.5Q620 733 575.0 693.0Q530 653 504 624ZM372 -20 453 52Q463 66 477.0 85.5Q491 105 499 114Q507 123 521.5 133.0Q536 143 552 153Q564 161 574.5 167.5Q585 174 591 179Q604 190 618.5 206.5Q633 223 640 230Q621 239 602.0 245.5Q583 252 569 256Q566 253 560.0 246.5Q554 240 548 233L542 180L443 83L415 77Q412 69 408 64Q401 55 388.0 45.5Q375 36 365 31L345 3L365 -6ZM420 98 434 101 523 189Q524 192 524.5 198.0Q525 204 526 210Q517 201 509.0 193.5Q501 186 495 181Q486 174 463.0 152.5Q440 131 422 114Q421 112 421.0 107.5Q421 103 420 98Z" />
  </g>
</svg>