<svg xmlns="http://www.w3.org/2000/svg" viewBox="49 0 1105 712">
  <g transform="translate(0, 712) scale(1, -1)">
    <path fill="black" d="M341 0 313 39 355 75 468 68Q479 68 482.0 74.0Q485 80 485 91V106Q485 116 483.5 133.0Q482 150 477 160Q469 174 452.0 189.0Q435 204 430 208Q374 220 318.5 238.5Q263 257 217.0 282.5Q171 308 143.5 340.0Q116 372 116 412Q116 449 129.0 471.5Q142 494 161.0 506.0Q180 518 199 522L196 524L102 507Q74 502 61.5 508.5Q49 515 49 526Q49 547 76 560L173 606Q180 629 197.0 653.5Q214 678 243.0 695.0Q272 712 315 712Q369 712 400.5 692.5Q432 673 447.5 645.5Q463 618 467.5 593.5Q472 569 472 559Q481 562 494.0 564.5Q507 567 526 567Q563 567 611.0 555.0Q659 543 706.5 526.5Q754 510 789 497Q860 469 934.0 452.0Q1008 435 1083 417V384L1046 367Q1066 362 1091.5 353.0Q1117 344 1135.5 331.0Q1154 318 1154 300Q1154 284 1132.0 271.0Q1110 258 1074.0 246.5Q1038 235 995.0 226.5Q952 218 909.5 211.5Q867 205 833.0 200.5Q799 196 780 193Q776 182 770.5 160.0Q765 138 765 122Q765 109 768.5 94.0Q772 79 776 66Q778 57 780.5 49.5Q783 42 783 37Q783 17 770.0 8.5Q757 0 733 0H579L551 39L593 75L689 68Q700 68 703.0 74.0Q706 80 706 91V106Q706 117 700.0 136.0Q694 155 673 165Q659 172 643.0 176.5Q627 181 617 183Q595 183 565 186L546 139V68H545V37Q545 17 532.0 8.5Q519 0 495 0ZM589 20H733Q763 20 763 37Q763 40 761.0 47.0Q759 54 757 61Q753 75 749.0 91.5Q745 108 745 122Q745 139 752.0 165.5Q759 192 766 211Q825 217 889.5 227.0Q954 237 1009.5 248.5Q1065 260 1099.5 273.5Q1134 287 1134 300Q1134 313 1115.0 322.5Q1096 332 1072.0 339.5Q1048 347 1032 351L1016 354Q977 339 923.5 323.5Q870 308 805.0 297.0Q740 286 668 286Q600 286 542.0 300.0Q484 314 449.5 342.5Q415 371 415 413Q415 441 438.5 467.5Q462 494 484 508L495 491Q476 479 455.0 457.5Q434 436 434 413Q434 377 466.5 353.0Q499 329 552.0 317.0Q605 305 668 305Q744 305 810.0 316.0Q876 327 928.5 342.5Q981 358 1016.0 373.0Q1051 388 1065 395V403Q995 420 923.5 436.0Q852 452 782 478Q747 492 700.5 508.0Q654 524 608.0 536.0Q562 548 526 548Q505 548 484.0 540.5Q463 533 452 526Q451 535 449.5 554.0Q448 573 443.0 596.5Q438 620 424.0 642.0Q410 664 384.0 678.0Q358 692 315 692Q281 692 256.5 679.0Q232 666 217.0 647.0Q202 628 195.0 608.5Q188 589 188 576Q188 557 204.0 541.5Q220 526 235 523Q259 519 284.5 517.0Q310 515 351 515V496Q307 496 276.5 498.0Q246 500 223 505Q185 504 160.5 480.5Q136 457 136 412Q136 377 162.5 348.0Q189 319 233.0 296.0Q277 273 329.0 256.0Q381 239 433.5 227.0Q486 215 529.5 208.5Q573 202 599 200Q583 211 567.0 222.5Q551 234 542 243L554 257Q564 248 581.0 235.5Q598 223 616.0 212.0Q634 201 647 195Q664 190 682 182Q710 169 717.5 144.5Q725 120 725 106V91Q725 71 720.0 59.0Q715 47 692 49L597 55L583 44L665 42V28L579 32ZM308 598Q298 598 290.5 605.5Q283 613 283 624Q283 634 290.5 641.0Q298 648 308 648Q319 648 326.0 641.0Q333 634 333 624Q333 613 326.0 605.5Q319 598 308 598ZM308 614Q317 614 317 624Q317 632 308 632Q299 632 299 624Q299 614 308 614ZM69 532 169 565Q168 568 168 576Q168 581 169 584L84 543Q71 537 69 532ZM82 524Q86 524 90.5 524.0Q95 524 99 525L181 541Q179 543 177.5 545.5Q176 548 174 550ZM351 20H495Q525 20 525 37Q525 39 525.5 51.5Q526 64 526 74V142L545 188Q510 191 468 200Q484 184 493 169Q500 156 502.5 135.0Q505 114 504 98V91Q504 71 499.0 59.0Q494 47 471 49L359 55L345 44L444 42L427 28L341 32Z" />
  </g>
</svg>