<svg xmlns="http://www.w3.org/2000/svg" viewBox="49 -13 991 1014.0444444444445">
  <g transform="translate(0, 988.0444444444445) scale(1, -1)">
    <path fill="black" d="M383 -13 364 -11Q366 3 372.0 19.0Q378 35 389 41Q409 52 438.0 56.0Q467 60 495.5 64.5Q524 69 540 83Q541 84 543.5 90.5Q546 97 554.0 118.5Q562 140 577 185L533 389Q517 413 495.0 447.5Q473 482 451.5 518.0Q430 554 415.0 583.0Q400 612 397 626L387 691Q384 715 380.0 740.5Q376 766 372.0 786.5Q368 807 365 815Q357 833 333.0 849.5Q309 866 278 873Q280 882 287.5 894.0Q295 906 308 913Q317 918 329.5 923.5Q342 929 350 933Q352 939 362.5 955.0Q373 971 396.0 985.5Q419 1000 458 1001Q494 1002 525.0 980.5Q556 959 581.0 929.5Q606 900 624 875Q631 866 636.5 859.0Q642 852 646 847Q653 838 665 828Q684 809 706.0 784.5Q728 760 745.0 734.0Q762 708 764 683Q781 673 804.5 650.5Q828 628 851.0 603.0Q874 578 887 557Q895 545 909.5 519.0Q924 493 940 465Q957 434 973.0 405.0Q989 376 995 368Q1004 356 1012 349Q1023 338 1031.5 327.0Q1040 316 1040 303Q1040 289 1028.5 279.5Q1017 270 1000 270Q987 270 968.0 272.0Q949 274 936 276Q928 272 899.5 262.5Q871 253 836 253Q818 253 790.0 258.0Q762 263 742 267Q747 252 755.5 227.5Q764 203 770 186L726 53Q735 52 751.0 50.5Q767 49 782.0 46.5Q797 44 802 41Q813 35 819.0 19.0Q825 3 827 -11L808 -13Q804 -5 804 0H512Q511 -2 510.0 -6.0Q509 -10 508 -13L489 -11Q489 -8 491 0H387Q386 -2 385.0 -6.0Q384 -10 383 -13ZM519 20H796L792 23Q783 28 755.5 31.5Q728 35 705 36V56L749 186Q748 191 741.5 209.0Q735 227 727.0 251.0Q719 275 712 296Q737 289 774.0 281.0Q811 273 836 273Q862 273 890.0 281.5Q918 290 934 297Q947 295 966.5 292.5Q986 290 1000 290Q1021 290 1021 303Q1021 311 1014.0 318.5Q1007 326 999 335Q994 340 989.0 345.5Q984 351 979 356Q972 367 956.0 395.0Q940 423 922 455Q907 484 893.0 509.0Q879 534 871 546Q860 563 841.5 583.5Q823 604 803.0 624.0Q783 644 765 657V655Q765 618 742.5 588.5Q720 559 669 559Q664 559 653.5 560.5Q643 562 635 563Q646 547 657.5 528.0Q669 509 669 499Q669 483 661.5 468.0Q654 453 627 453Q610 453 584.0 470.0Q558 487 532.0 515.0Q506 543 488.5 577.5Q471 612 471 648Q471 692 504.0 707.0Q537 722 616 722Q623 722 629.5 721.5Q636 721 643 721V702H616Q548 702 519.0 691.0Q490 680 490 648Q490 616 505.5 585.0Q521 554 544.0 528.5Q567 503 589.5 487.5Q612 472 627 472Q641 472 645.0 480.5Q649 489 649 499Q649 504 639.0 520.0Q629 536 615.0 556.5Q601 577 587 595Q607 590 632.0 584.5Q657 579 669 579Q710 579 728.0 602.0Q746 625 746 655Q746 658 745.5 663.0Q745 668 745 672Q744 697 728.0 723.0Q712 749 690.5 772.5Q669 796 651 814Q646 819 640.5 824.5Q635 830 631 834V833Q627 838 621.5 845.5Q616 853 608 863Q592 886 568.0 913.5Q544 941 516.0 961.0Q488 981 458 981Q419 979 398.5 960.0Q378 941 370 928Q374 921 381.0 902.5Q388 884 389 868Q374 872 357.5 874.5Q341 877 327 878Q370 857 384 822Q389 809 395.0 770.5Q401 732 407 694L417 630Q421 616 435.0 588.5Q449 561 468.5 528.0Q488 495 508.5 463.0Q529 431 545.0 406.0Q561 381 568 370Q575 360 592.0 339.5Q609 319 632.0 293.0Q655 267 679.5 239.5Q704 212 726 188L671 36Q650 37 618.5 35.5Q587 34 559.5 31.0Q532 28 523 23Q521 22 519 20ZM436 890Q420 890 409.0 898.5Q398 907 398 912Q398 916 409.0 925.5Q420 935 436 935Q454 935 464.5 926.5Q475 918 475 912Q475 906 464.5 898.0Q454 890 436 890ZM436 905Q447 905 452.5 908.0Q458 911 458 912Q458 919 436 919Q426 919 421.0 916.5Q416 914 416 912Q416 911 421.0 908.0Q426 905 436 905ZM371 888Q369 894 365.5 902.0Q362 910 359 916Q349 913 331.0 905.5Q313 898 308 892Q322 892 339.5 891.0Q357 890 371 888ZM49 309Q57 369 82.5 416.5Q108 464 151.5 492.0Q195 520 256 520Q317 520 360.0 492.0Q403 464 429.0 416.5Q455 369 463 309ZM71 328H440Q430 374 407.0 413.0Q384 452 346.5 476.0Q309 500 256 500Q203 500 165.5 476.0Q128 452 105.0 413.0Q82 374 71 328ZM394 20H497Q500 27 504.0 32.5Q508 38 514 41Q519 44 535.0 47.5Q551 51 567 52L627 195L612 285Q598 302 585.0 317.0Q572 332 563 344L597 185Q581 137 573.0 112.5Q565 88 560.5 78.5Q556 69 548 64Q530 52 502.0 47.5Q474 43 446.0 38.5Q418 34 398 23Q396 22 394 20ZM590 55Q604 56 625.5 56.0Q647 56 660 56L705 182Q698 188 679.0 209.5Q660 231 637 256L647 193Z" />
  </g>
</svg>