<svg xmlns="http://www.w3.org/2000/svg" viewBox="49 -13 1028 1014.0444444444445">
  <g transform="translate(0, 988.0444444444445) scale(1, -1)">
    <path fill="black" d="M368 -13 349 -11Q351 3 357.0 19.0Q363 35 374 41Q394 52 423.0 56.0Q452 60 480.0 64.5Q508 69 524 83Q526 84 528.5 90.5Q531 97 539.0 118.5Q547 140 562 185L518 389Q498 419 469.5 463.5Q441 508 418 548H405L314 531H197L115 567L49 629L76 667L149 616Q159 610 182.0 603.0Q205 596 223 591L326 599L323 615Q320 614 308.5 613.5Q297 613 285.5 612.5Q274 612 270 612Q262 612 245.5 613.5Q229 615 212.0 618.5Q195 622 185 626L195 673Q199 672 212.0 670.5Q225 669 240.0 668.0Q255 667 265 667Q274 667 288.5 668.5Q303 670 317.0 671.5Q331 673 336 674L378 652L372 691Q369 715 365.0 740.5Q361 766 357.0 786.5Q353 807 350 815Q341 833 317.5 849.5Q294 866 263 873Q265 882 272.0 894.0Q279 906 292 913Q302 918 314.5 923.5Q327 929 334 933Q337 939 347.5 955.0Q358 971 381.0 985.5Q404 1000 443 1001Q479 1002 510.0 980.5Q541 959 566.0 929.5Q591 900 609 875Q616 866 621.5 859.0Q627 852 631 847Q635 843 639.5 838.0Q644 833 649 828Q668 809 690.5 784.5Q713 760 730.0 734.0Q747 708 749 683Q755 679 762.5 673.0Q770 667 778 660L906 659L917 667L938 932H1059L1077 582L1051 548H877Q886 534 899.0 511.5Q912 489 925 465Q942 434 958.0 405.0Q974 376 980 368Q989 356 997 349Q1008 338 1016.5 327.0Q1025 316 1025 303Q1025 289 1013.5 279.5Q1002 270 984 270Q971 270 952.0 272.0Q933 274 920 276Q913 272 884.5 262.5Q856 253 821 253Q803 253 775.0 258.0Q747 263 727 267Q732 252 740.0 227.5Q748 203 754 186L711 53Q720 52 736.0 50.5Q752 49 766.5 46.5Q781 44 787 41Q798 35 804.0 19.0Q810 3 812 -11L792 -13Q791 -10 790.0 -6.0Q789 -2 789 0H497Q496 -2 495.0 -6.0Q494 -10 493 -13L474 -11Q474 -8 476 0H372Q371 -2 370.0 -6.0Q369 -10 368 -13ZM399 641 456 646V648Q456 692 489.0 707.0Q522 722 601 722Q607 722 614.0 721.5Q621 721 628 721V702H601Q533 702 504.0 691.0Q475 680 475 648V647L649 662L730 661Q730 664 729.5 667.0Q729 670 729 672Q729 697 713.0 723.0Q697 749 675.5 772.5Q654 796 636 814Q630 819 625.0 824.5Q620 830 616 834V833Q612 838 606.5 845.5Q601 853 593 863Q577 886 553.0 913.5Q529 941 501.0 961.0Q473 981 443 981Q404 979 383.5 960.0Q363 941 355 928Q359 921 366.0 902.5Q373 884 374 868Q359 872 342.5 874.5Q326 877 312 878Q353 858 369 822Q374 809 380.0 770.5Q386 732 392 694ZM421 890Q405 890 394.0 898.5Q383 907 383 912Q383 916 394.0 925.5Q405 935 421 935Q439 935 449.5 926.5Q460 918 460 912Q460 906 449.5 898.0Q439 890 421 890ZM421 905Q432 905 437.5 908.0Q443 911 443 912Q443 919 421 919Q411 919 405.5 916.5Q400 914 400 912Q400 911 405.5 908.0Q411 905 421 905ZM355 888Q354 894 350.5 902.0Q347 910 344 916Q334 913 316.0 905.5Q298 898 292 892Q306 892 324.0 891.0Q342 890 355 888ZM199 549H313L403 568H1040L1057 591L1041 912H958L937 653L920 639L648 643L385 622L381 628L332 654Q324 653 301.5 649.5Q279 646 265 646Q259 646 245.5 647.0Q232 648 220.0 649.5Q208 651 204 652L201 639Q217 632 239.0 630.0Q261 628 270 628Q275 628 289.5 628.5Q304 629 319.0 629.5Q334 630 338 630L346 584L222 574Q202 579 176.5 587.0Q151 595 140 602L79 644L68 632L122 584ZM612 472Q626 472 630.0 480.5Q634 489 634 499Q634 504 625.0 518.0Q616 532 605 548H512Q536 515 565.0 493.5Q594 472 612 472ZM504 20H781L777 23Q768 28 740.5 31.5Q713 35 690 36L689 56L734 186Q732 191 726.0 209.0Q720 227 712.0 251.0Q704 275 697 296Q722 289 758.5 281.0Q795 273 821 273Q847 273 874.5 281.5Q902 290 918 297Q931 295 950.5 292.5Q970 290 984 290Q1005 290 1005 303Q1005 311 998.5 318.5Q992 326 983 335Q979 340 974.0 345.5Q969 351 964 356Q957 367 941.0 395.0Q925 423 907 455Q892 484 877.5 509.0Q863 534 855 546L854 548H630Q639 535 646.5 521.0Q654 507 654 499Q654 483 646.0 468.0Q638 453 612 453Q590 453 554.0 480.5Q518 508 490 548H441Q461 514 484.0 477.0Q507 440 526.5 411.0Q546 382 553 370Q560 360 577.0 339.5Q594 319 617.0 293.0Q640 267 664.5 239.5Q689 212 711 188L656 36Q635 37 603.0 35.5Q571 34 543.5 31.0Q516 28 508 23Q506 22 504 20ZM379 20H482Q485 27 489.0 32.5Q493 38 499 41Q504 44 520.0 47.5Q536 51 552 52L612 195L597 285Q583 302 570.0 317.0Q557 332 548 344L582 185Q566 137 558.0 112.5Q550 88 545.0 78.5Q540 69 533 64Q515 52 487.0 47.5Q459 43 431.0 38.5Q403 34 383 23Q381 22 379 20ZM575 55Q589 56 610.5 56.0Q632 56 645 56L689 182Q683 188 664.0 209.5Q645 231 622 256L632 193Z" />
  </g>
</svg>