<svg xmlns="http://www.w3.org/2000/svg" viewBox="49 -13 937 1023">
  <g transform="translate(0, 997) scale(1, -1)">
    <path fill="black" d="M222 -13 202 -11Q204 3 210.5 19.0Q217 35 227 41Q247 52 276.0 56.0Q305 60 333.5 64.5Q362 69 378 83Q379 84 381.5 90.5Q384 97 392.0 118.5Q400 140 415 185L412 200Q328 166 238.0 146.5Q148 127 49 127V157Q141 184 231.0 218.0Q321 252 393 286L371 389Q355 413 333.0 447.5Q311 482 289.5 518.0Q268 554 253.0 583.0Q238 612 235 626L226 691Q222 715 218.0 740.5Q214 766 210.5 786.5Q207 807 204 815Q195 833 171.5 849.5Q148 866 116 873Q118 882 125.5 894.0Q133 906 146 913Q155 918 167.5 923.5Q180 929 188 933Q190 939 200.5 955.0Q211 971 234.0 985.5Q257 1000 297 1001Q332 1002 363.0 980.5Q394 959 419.0 929.5Q444 900 462 875Q469 866 474.5 859.0Q480 852 484 847Q488 843 493.0 838.0Q498 833 503 828Q522 809 544.0 784.5Q566 760 583.5 734.0Q601 708 603 683Q619 673 643.0 650.5Q667 628 690.0 603.0Q713 578 726 557L736 540Q765 575 784.0 611.0Q803 647 803 681Q803 701 786.5 717.5Q770 734 745.5 746.0Q721 758 695.0 766.0Q669 774 649.5 777.5Q630 781 625 780Q634 803 643.0 841.5Q652 880 652 917Q652 941 650.5 966.5Q649 992 648 1002L725 1010Q721 987 715.5 955.5Q710 924 710 906Q710 875 735.5 846.0Q761 817 802.5 791.5Q844 766 892.5 745.5Q941 725 986 711Q978 665 927.5 592.5Q877 520 791 441Q805 416 817.0 395.0Q829 374 833 368Q838 363 842.5 358.0Q847 353 851 349Q862 338 870.0 327.0Q878 316 878 303Q878 289 867.0 279.5Q856 270 838 270Q825 270 806.0 272.0Q787 274 774 276Q767 272 738.0 262.5Q709 253 675 253Q657 253 629.0 258.0Q601 263 581 267Q586 252 594.0 227.5Q602 203 608 186L564 53Q573 52 589.0 50.5Q605 49 620.0 46.5Q635 44 640 41Q651 35 657.5 19.0Q664 3 666 -11L646 -13Q645 -10 644.0 -6.0Q643 -2 642 0H350Q349 -2 348.5 -6.0Q348 -10 347 -13L327 -11Q327 -8 329 0H225Q224 -2 223.5 -6.0Q223 -10 222 -13ZM782 457Q859 527 906.0 592.5Q953 658 963 698Q917 712 869.0 733.5Q821 755 780.5 782.0Q740 809 715.5 840.5Q691 872 691 906Q691 920 694.0 945.0Q697 970 700 988L669 984Q670 973 670.5 955.0Q671 937 671 917Q671 888 665.0 854.5Q659 821 654 801Q671 798 699.0 788.0Q727 778 755.0 763.0Q783 748 802.5 727.5Q822 707 822 681Q822 643 800.5 602.5Q779 562 746 523Q754 510 762.0 495.0Q770 480 778 465ZM357 20H635L630 23Q622 28 594.0 31.5Q566 35 543 36V56L587 186Q586 191 580.0 209.0Q574 227 566.0 251.0Q558 275 551 296Q576 289 612.5 281.0Q649 273 675 273Q701 273 728.5 281.5Q756 290 772 297Q785 295 804.5 292.5Q824 290 838 290Q859 290 859 303Q859 311 852.0 318.5Q845 326 837 335Q832 340 827.0 345.5Q822 351 818 356Q810 367 794.0 395.0Q778 423 761 455Q745 484 731.0 509.0Q717 534 709 546Q699 563 680.5 583.5Q662 604 641.5 624.0Q621 644 604 657V655Q604 618 581.5 588.5Q559 559 508 559Q503 559 492.5 560.5Q482 562 474 563Q485 547 496.0 528.0Q507 509 507 499Q507 483 499.5 468.0Q492 453 465 453Q448 453 422.0 470.0Q396 487 370.0 515.0Q344 543 326.5 577.5Q309 612 309 648Q309 692 342.5 707.0Q376 722 455 722Q461 722 467.5 721.5Q474 721 481 721V702H455Q386 702 357.5 691.0Q329 680 329 648Q329 616 344.5 585.0Q360 554 382.5 528.5Q405 503 427.5 487.5Q450 472 465 472Q479 472 483.5 480.5Q488 489 488 499Q488 504 478.0 520.0Q468 536 454.0 556.5Q440 577 426 595Q445 590 470.0 584.5Q495 579 508 579Q549 579 566.5 602.0Q584 625 584 655Q584 658 583.5 663.0Q583 668 583 672Q583 697 567.0 723.0Q551 749 529.0 772.5Q507 796 489 814Q484 819 479.0 824.5Q474 830 470 834V833Q466 838 460.5 845.5Q455 853 447 863Q430 886 406.0 913.5Q382 941 354.0 961.0Q326 981 297 981Q258 979 237.0 960.0Q216 941 208 928Q212 921 219.5 902.5Q227 884 228 868Q213 872 196.0 874.5Q179 877 165 878Q208 858 222 822Q227 809 233.5 770.5Q240 732 245 694L255 630Q259 616 273.5 588.5Q288 561 307.5 528.0Q327 495 347.0 463.0Q367 431 383.5 406.0Q400 381 407 370Q414 359 432.0 337.5Q450 316 472.5 290.5Q495 265 516.0 241.5Q537 218 550.5 203.0Q564 188 564 188L510 36Q489 37 457.0 35.5Q425 34 397.5 31.0Q370 28 362 23Q358 21 357 20ZM274 890Q258 890 247.5 898.5Q237 907 237 912Q237 916 247.5 925.5Q258 935 274 935Q292 935 302.5 926.5Q313 918 313 912Q313 906 302.5 898.0Q292 890 274 890ZM274 905Q285 905 290.5 908.0Q296 911 296 912Q296 919 274 919Q265 919 259.5 916.5Q254 914 254 912Q254 911 259.5 908.0Q265 905 274 905ZM209 888Q207 894 203.5 902.0Q200 910 197 916Q188 913 170.0 905.5Q152 898 146 892Q160 892 177.5 891.0Q195 890 209 888ZM232 20H335Q338 27 342.0 32.5Q346 38 352 41Q358 44 374.0 47.5Q390 51 406 52L465 195L451 285Q437 302 424.0 317.0Q411 332 401 344L436 185Q420 137 412.0 112.5Q404 88 399.0 78.5Q394 69 386 64Q368 52 340.5 47.5Q313 43 285.0 38.5Q257 34 237 23Q233 21 232 20ZM74 147Q154 147 239.5 167.0Q325 187 407 221L397 266Q331 235 248.5 203.5Q166 172 74 147ZM473 250 482 255 472 262ZM428 55Q442 56 464.0 56.0Q486 56 499 56L543 182Q538 187 524.5 202.5Q511 218 493 237L479 231L486 193Z" />
  </g>
</svg>