<svg xmlns="http://www.w3.org/2000/svg" viewBox="48.607142857142854 -25 940.3928571428571 1041">
  <g transform="translate(0, 991) scale(1, -1)">
    <path fill="black" d="M82 -25 68 19 98 28Q97 33 93.5 40.5Q90 48 88 54Q102 61 137.0 72.5Q172 84 218.5 93.5Q265 103 314 103Q325 103 352.5 100.0Q380 97 416.5 92.5Q453 88 491.5 83.0Q530 78 564 73Q550 96 538.0 119.5Q526 143 515 164Q509 175 504.5 184.5Q500 194 495 203Q446 232 417.0 262.0Q388 292 366 321Q341 300 303.5 275.5Q266 251 223.0 225.0Q180 199 137.5 176.0Q95 153 60 135Q56 161 51.5 195.0Q47 229 49.5 263.5Q52 298 67 322Q107 377 155.5 422.5Q204 468 245 522H246Q234 554 234 584Q234 605 241.0 633.5Q248 662 258.5 692.5Q269 723 279 750Q288 776 295.5 797.5Q303 819 303 826Q303 840 300.5 847.0Q298 854 287 854Q277 854 259.0 854.5Q241 855 222.5 860.5Q204 866 191 880L80 854L76 866L150 904H89V918H151L76 957L80 969L182 945Q189 973 207.0 988.0Q225 1003 248.5 1009.5Q272 1016 293 1016Q326 1016 351.0 1000.5Q376 985 390.0 961.5Q404 938 404 914Q404 896 396.5 864.5Q389 833 381 804Q376 784 371.5 766.5Q367 749 367 741Q367 723 380.0 707.0Q393 691 417 691Q427 691 440.0 700.0Q453 709 466.0 720.5Q479 732 488 741Q490 742 493.0 745.0Q496 748 507.0 758.5Q518 769 541.5 791.0Q565 813 607 852Q622 866 647.0 884.0Q672 902 708.0 916.0Q744 930 791 930Q829 930 863.5 908.5Q898 887 916 867Q869 847 834.0 819.5Q799 792 770.0 756.5Q741 721 709 677Q693 656 676.5 633.5Q660 611 640 591Q655 579 685.0 555.0Q715 531 749 509Q769 497 799.0 476.5Q829 456 860.5 430.5Q892 405 917.5 376.0Q943 347 953 316H974L989 265L958 243Q959 191 935.5 144.5Q912 98 873.5 69.0Q835 40 791 40Q775 40 743.5 49.5Q712 59 688 68Q691 58 695.5 44.5Q700 31 702 23L655 -15Q618 -7 573.5 1.5Q529 10 492.0 16.5Q455 23 438 23Q414 24 381.0 28.0Q348 32 326 35Q337 22 346 12L324 -21Q308 -10 284.5 1.5Q261 13 241 13Q228 13 200.0 7.0Q172 1 140.0 -8.0Q108 -17 82 -25ZM93 -1Q106 2 135.0 10.0Q164 18 194.5 25.0Q225 32 241 32Q262 32 283.5 23.0Q305 14 316 5L323 13L289 47L294 59Q312 57 339.5 53.0Q367 49 395.0 46.0Q423 43 439 42Q451 42 486.5 35.5Q522 29 567.5 20.0Q613 11 651 2L679 29Q676 39 669.0 63.0Q662 87 657 106Q677 96 702.0 85.0Q727 74 751.5 66.5Q776 59 791 59Q831 59 865.5 87.0Q900 115 920.5 159.0Q941 203 938 252L968 272L959 297H938Q930 328 907.5 357.0Q885 386 855.0 411.0Q825 436 794.0 457.0Q763 478 739 493Q727 501 706.0 516.5Q685 532 663.0 548.5Q641 565 626 576Q619 569 607.5 559.0Q596 549 585 541L573 557Q584 565 595.0 574.5Q606 584 612 590Q634 612 655.5 637.5Q677 663 694 688Q732 741 775.5 790.0Q819 839 883 873Q872 884 848.0 897.5Q824 911 791 911Q748 911 714.5 898.0Q681 885 658.0 867.5Q635 850 621 837L501 727Q491 717 476.0 704.0Q461 691 445.5 681.0Q430 671 417 671Q383 671 365.5 693.5Q348 716 348 741Q348 750 352.5 768.5Q357 787 363 809Q371 837 378.0 866.5Q385 896 385 914Q385 943 359.5 970.0Q334 997 293 997Q273 997 251.0 990.0Q229 983 213.5 966.0Q198 949 198 918Q198 894 215.5 885.0Q233 876 254.5 874.5Q276 873 287 873Q307 873 315.0 862.5Q323 852 322 826Q322 816 315.0 794.0Q308 772 297 744Q283 703 268.0 658.0Q253 613 253 584Q253 555 267.0 520.0Q281 485 302.0 450.5Q323 416 343 388Q368 353 388.0 326.0Q408 299 430.0 277.0Q452 255 482 233Q478 247 474.0 265.5Q470 284 470 303Q470 327 480.0 354.5Q490 382 511.0 401.5Q532 421 565 421Q576 421 584.0 420.5Q592 420 596 419L593 400Q583 402 565 402Q538 402 521.5 385.5Q505 369 497.5 346.0Q490 323 490 303Q490 272 502.5 239.5Q515 207 532 173Q545 148 561.0 117.5Q577 87 605 46Q566 52 520.5 58.5Q475 65 432.5 70.5Q390 76 358.5 79.5Q327 83 314 83Q244 83 192.5 69.0Q141 55 113 44L117 34Q132 39 150.5 44.5Q169 50 182 51L185 36Q172 34 148.5 27.5Q125 21 89 9ZM263 919Q246 919 246 937Q246 944 251.0 949.0Q256 954 263 954Q270 954 275.0 949.0Q280 944 280 937Q280 930 275.0 924.5Q270 919 263 919ZM179 918V932L130 944ZM130 879 184 892Q183 894 182.0 897.0Q181 900 180 904ZM75 165Q92 174 127.0 192.5Q162 211 204.0 235.5Q246 260 286.5 286.5Q327 313 354 337Q320 385 293.5 426.0Q267 467 253 501Q215 452 168.0 408.5Q121 365 83 311Q72 296 70.0 268.0Q68 240 70.5 211.5Q73 183 75 165Z" />
  </g>
</svg>