<svg xmlns="http://www.w3.org/2000/svg" viewBox="49 -7 1250 837">
  <g transform="translate(0, 823) scale(1, -1)">
    <path fill="black" d="M674 -7Q566 -7 472.0 18.0Q378 43 301.5 84.0Q225 125 169.5 174.0Q114 223 83.0 271.5Q52 320 49 359L64 374Q90 358 124.5 344.0Q159 330 200 317Q218 328 238.5 330.0Q259 332 280 330Q268 343 255.5 360.0Q243 377 227 399L96 366Q98 415 123.0 451.0Q148 487 177 510Q170 530 170 551Q170 585 177.5 601.5Q185 618 192 629Q209 657 220.0 674.5Q231 692 236 702Q238 706 238.5 710.5Q239 715 229 718Q223 720 217.0 722.5Q211 725 206 728L125 710L121 720L179 754L111 764V775L193 791Q204 808 224.0 819.0Q244 830 270 830Q308 830 325.0 807.5Q342 785 342 762Q342 750 332.5 725.0Q323 700 312 674Q304 655 297.5 639.5Q291 624 291 619Q291 603 298.0 595.0Q305 587 313 587Q329 587 344.0 598.5Q359 610 374.0 625.0Q389 640 406.5 651.5Q424 663 445 663Q461 663 481.0 653.0Q501 643 514 633Q481 627 469.0 612.0Q457 597 447 576Q439 559 429.5 543.5Q420 528 411 515Q425 503 437.0 486.0Q449 469 451 449H474V398L465 391Q464 354 448.5 321.5Q433 289 410 273Q479 264 548 258Q573 281 605.5 288.0Q638 295 671 292Q663 301 652.0 321.0Q641 341 629.0 363.0Q617 385 606 399L475 366Q478 415 502.5 451.0Q527 487 556 510Q553 521 551.0 531.0Q549 541 549 551Q549 585 556.5 601.5Q564 618 571 629Q589 657 599.5 674.5Q610 692 615 702Q617 706 617.5 710.5Q618 715 608 718Q602 720 596.0 722.5Q590 725 585 728L504 710L500 720L559 754L490 764V775L573 791Q583 808 603.0 819.0Q623 830 649 830Q687 830 704.5 807.5Q722 785 722 762Q722 750 712.5 725.0Q703 700 691 674Q683 655 676.5 639.5Q670 624 670 619Q670 603 677.0 595.0Q684 587 692 587Q709 587 724.0 598.5Q739 610 754.0 625.0Q769 640 786.0 651.5Q803 663 824 663Q841 663 860.5 653.0Q880 643 893 633Q861 627 848.5 612.0Q836 597 826 576Q818 559 809.0 543.5Q800 528 790 515Q805 503 817.0 486.0Q829 469 831 449H853V398L844 391Q843 357 831.5 319.0Q820 281 800 258Q827 260 854.0 262.5Q881 265 908 269Q920 287 946.5 298.0Q973 309 1002.0 316.5Q1031 324 1049 328Q1037 341 1021.0 361.0Q1005 381 989 402L851 366Q853 415 878.0 451.0Q903 487 932 510Q929 521 927.0 531.0Q925 541 925 551Q925 585 932.5 601.5Q940 618 947 629Q965 657 975.5 674.5Q986 692 991 702Q993 706 993.5 710.5Q994 715 984 718Q978 720 972.0 722.5Q966 725 961 728L880 710L876 720L935 754L866 764V775L949 791Q959 808 979.0 819.0Q999 830 1025 830Q1063 830 1080.5 807.5Q1098 785 1098 762Q1098 750 1088.5 725.0Q1079 700 1067 674Q1059 655 1052.5 639.5Q1046 624 1046 619Q1046 603 1053.0 595.0Q1060 587 1068 587Q1085 587 1100.0 598.5Q1115 610 1130.0 625.0Q1145 640 1162.0 651.5Q1179 663 1200 663Q1216 663 1236.0 653.0Q1256 643 1269 633Q1237 627 1224.5 612.0Q1212 597 1202 576Q1194 559 1185.0 543.5Q1176 528 1166 515Q1181 503 1193.0 486.0Q1205 469 1207 449H1234V398L1220 391Q1220 374 1214.5 360.0Q1209 346 1201 335Q1225 344 1246.0 354.0Q1267 364 1283 374L1299 359Q1296 320 1265.0 271.5Q1234 223 1178.5 174.0Q1123 125 1046.5 84.0Q970 43 876.0 18.0Q782 -7 674 -7ZM373 279Q377 279 379.5 279.5Q382 280 385 281Q401 286 415.0 304.0Q429 322 438.0 348.0Q447 374 446 402L460 409V431H433Q433 455 417.5 477.0Q402 499 384 512Q399 530 410.0 548.0Q421 566 430 583Q439 603 447.5 617.5Q456 632 469 640Q460 644 445 644Q427 644 410.5 632.5Q394 621 378.0 606.0Q362 591 346.0 579.5Q330 568 313 568Q298 568 285.0 581.0Q272 594 272 619Q272 627 279.0 643.5Q286 660 295 681Q306 704 315.0 728.0Q324 752 324 762Q324 779 311.5 795.5Q299 812 270 812Q241 812 222.5 796.5Q204 781 204 763Q204 750 216.0 744.5Q228 739 239 735Q248 732 254.5 729.0Q261 726 261 718Q261 708 249.5 686.5Q238 665 208 619Q201 609 194.5 594.5Q188 580 188 551Q188 521 204.0 484.5Q220 448 242.5 413.0Q265 378 286.0 350.0Q307 322 318 308Q299 312 273.5 314.5Q248 317 227 310Q236 308 245.5 305.0Q255 302 265 300L288 308L293 294Q331 285 373 279ZM646 253H674Q695 253 716.0 253.5Q737 254 759 255Q763 256 769 258Q785 262 798.0 286.0Q811 310 819.0 342.0Q827 374 826 402L839 409V431H813Q813 455 797.5 477.0Q782 499 764 512Q778 530 789.0 548.0Q800 566 809 583Q818 603 826.5 617.5Q835 632 848 640Q839 644 824 644Q806 644 789.5 632.5Q773 621 757.5 606.0Q742 591 726.0 579.5Q710 568 692 568Q677 568 664.0 581.0Q651 594 651 619Q651 627 658.5 643.5Q666 660 674 681Q685 704 694.0 728.0Q703 752 703 762Q703 779 690.5 795.5Q678 812 649 812Q621 812 602.0 796.5Q583 781 583 763Q583 750 595.5 744.5Q608 739 618 735Q627 732 633.5 729.0Q640 726 640 718Q640 708 628.5 686.5Q617 665 587 619Q580 609 574.0 594.5Q568 580 568 551Q568 521 585.0 479.5Q602 438 626.0 396.5Q650 355 673.0 322.0Q696 289 707 275Q673 279 633.5 276.5Q594 274 573 256Q584 255 596.0 254.5Q608 254 619 254L644 271L653 258ZM942 274H943Q960 276 976.5 279.0Q993 282 1009 285L1034 303L1042 291Q1071 297 1097.5 304.0Q1124 311 1148 318Q1167 326 1185.0 346.0Q1203 366 1202 402L1215 409V431H1188Q1188 455 1173.0 477.0Q1158 499 1140 512Q1154 530 1165.0 548.0Q1176 566 1185 583Q1194 603 1202.5 617.5Q1211 632 1224 640Q1215 644 1200 644Q1182 644 1165.5 632.5Q1149 621 1133.5 606.0Q1118 591 1102.0 579.5Q1086 568 1068 568Q1053 568 1040.0 581.0Q1027 594 1027 619Q1027 627 1034.5 643.5Q1042 660 1050 681Q1061 704 1070.0 728.0Q1079 752 1079 762Q1079 779 1066.5 795.5Q1054 812 1025 812Q997 812 978.0 796.5Q959 781 959 763Q959 750 971.0 744.5Q983 739 994 735Q1003 732 1009.5 729.0Q1016 726 1016 718Q1016 708 1004.5 686.5Q993 665 963 619Q956 609 950.0 594.5Q944 580 944 551Q944 521 961.0 485.5Q978 450 1002.0 416.0Q1026 382 1048.5 355.5Q1071 329 1083 317Q1064 313 1037.5 306.5Q1011 300 985.5 292.0Q960 284 942 274ZM625 756Q620 756 615.5 760.0Q611 764 611 770Q611 775 615.5 779.0Q620 783 625 783Q630 783 634.5 779.0Q639 775 639 770Q639 764 634.5 760.0Q630 756 625 756ZM246 756Q232 756 232 770Q232 783 246 783Q259 783 259 770Q259 756 246 756ZM1001 756Q996 756 991.5 760.0Q987 764 987 770Q987 775 991.5 779.0Q996 783 1001 783Q1006 783 1010.5 779.0Q1015 775 1015 770Q1015 764 1010.5 760.0Q1006 756 1001 756ZM564 765Q564 771 567 777L528 771ZM940 765Q940 771 943 777L904 771ZM185 765Q185 771 188 777L148 771ZM917 731 949 738Q945 742 944 747ZM541 731 573 738Q569 742 568 747ZM161 731 194 738Q191 741 188 747ZM116 390 219 417Q209 434 200.0 454.0Q191 474 184 492Q160 473 140.5 447.5Q121 422 116 390ZM495 390 599 417Q588 434 579.5 454.0Q571 474 563 492Q540 473 520.0 447.5Q500 422 495 390ZM871 390 979 418Q955 455 939 492Q916 473 896.0 447.5Q876 422 871 390ZM674 13Q772 13 859.5 36.0Q947 59 1020.0 97.0Q1093 135 1147.5 179.5Q1202 224 1235.5 268.0Q1269 312 1277 347Q1232 322 1163.5 301.0Q1095 280 1012.5 265.0Q930 250 843.0 242.0Q756 234 674 234Q592 234 505.0 242.0Q418 250 335.5 265.0Q253 280 184.5 301.0Q116 322 71 347Q79 312 112.0 268.0Q145 224 200.0 179.5Q255 135 327.5 97.0Q400 59 487.5 36.0Q575 13 674 13Z" />
  </g>
</svg>