<svg xmlns="http://www.w3.org/2000/svg" viewBox="49 0 1297 706">
  <g transform="translate(0, 706) scale(1, -1)">
    <path fill="black" d="M133 0Q80 0 64.5 27.5Q49 55 49 97V212Q49 254 64.5 281.5Q80 309 133 309H147Q146 314 145.5 321.5Q145 329 145 337Q145 359 163.5 393.5Q182 428 202 461Q218 488 231.0 511.5Q244 535 244 546Q244 569 229.5 585.0Q215 601 184 601H98Q99 605 107.5 619.5Q116 634 135.5 649.0Q155 664 188 667Q192 671 203.5 680.0Q215 689 232.5 697.5Q250 706 271 706Q309 706 327.0 680.0Q345 654 345 627Q345 607 333.5 579.5Q322 552 306.0 523.5Q290 495 276 471Q266 455 259.5 444.0Q253 433 253 431Q253 428 265.0 429.0Q277 430 296 430Q356 430 408.0 409.5Q460 389 499 363Q507 385 521.0 410.5Q535 436 550 461Q566 488 579.0 511.5Q592 535 592 546Q592 569 577.5 585.0Q563 601 532 601H446Q447 605 455.5 619.5Q464 634 483.0 649.0Q502 664 536 667Q540 671 551.5 680.0Q563 689 580.5 697.5Q598 706 619 706Q657 706 675.0 680.0Q693 654 693 627Q693 607 681.5 579.5Q670 552 654.0 523.5Q638 495 624 471Q614 455 608.0 444.0Q602 433 602 431Q602 428 613.5 429.0Q625 430 644 430Q703 430 754.0 410.5Q805 391 844 366Q852 387 866.0 412.0Q880 437 894 461Q910 488 923.0 511.5Q936 535 936 546Q936 569 921.5 585.0Q907 601 876 601H791Q791 605 799.5 619.5Q808 634 827.5 649.0Q847 664 880 667Q884 671 895.5 680.0Q907 689 924.5 697.5Q942 706 963 706Q1002 706 1019.5 680.0Q1037 654 1037 627Q1037 607 1025.5 579.5Q1014 552 998.0 523.5Q982 495 968 471Q959 455 952.5 444.0Q946 433 946 431Q946 428 957.5 429.0Q969 430 988 430Q1036 430 1078.5 417.0Q1121 404 1156.0 384.5Q1191 365 1217.5 344.5Q1244 324 1259 309H1261Q1315 309 1330.5 281.5Q1346 254 1346 212V97Q1346 55 1330.5 27.5Q1315 0 1261 0ZM915 309H1229Q1211 325 1176.0 349.0Q1141 373 1093.5 392.0Q1046 411 988 411Q983 411 974.0 410.0Q965 409 960 409Q941 410 933.5 414.0Q926 418 926 431Q926 436 934.0 450.0Q942 464 952 481Q965 503 980.5 530.5Q996 558 1007.0 584.0Q1018 610 1018 627Q1018 647 1005.0 667.0Q992 687 963 687Q940 687 922.5 677.0Q905 667 897 657V618Q923 612 939.5 595.0Q956 578 956 546Q956 531 942.0 505.5Q928 480 911 451Q895 426 880.5 400.0Q866 374 860 354Q878 341 891.5 329.5Q905 318 915 309ZM168 309H537Q519 325 484.0 349.0Q449 373 401.0 392.0Q353 411 296 411Q291 411 281.5 410.0Q272 409 268 409Q249 410 241.5 414.0Q234 418 234 431Q234 436 241.5 450.0Q249 464 259 481Q273 503 288.0 530.5Q303 558 314.0 584.0Q325 610 325 627Q325 647 312.5 667.0Q300 687 271 687Q248 687 230.5 677.0Q213 667 205 657V618Q230 612 246.5 595.0Q263 578 263 546Q263 531 249.5 505.5Q236 480 218 451Q199 419 182.0 387.5Q165 356 165 337Q165 327 166.0 319.5Q167 312 168 309ZM567 309H885Q867 325 832.0 349.0Q797 373 749.0 392.0Q701 411 644 411Q639 411 630.0 410.0Q621 409 616 409Q597 410 589.5 414.0Q582 418 582 431Q582 436 589.5 450.0Q597 464 607 481Q621 503 636.0 530.5Q651 558 662.0 584.0Q673 610 673 627Q673 647 660.5 667.0Q648 687 619 687Q596 687 578.5 677.0Q561 667 553 657V618Q578 612 594.5 595.0Q611 578 611 546Q611 531 597.5 505.5Q584 480 566 451Q550 425 535.0 398.5Q520 372 515 352Q532 340 545.0 328.5Q558 317 567 309ZM820 624Q847 634 877 636V653Q857 649 842.5 640.5Q828 632 820 624ZM128 624Q155 634 185 636V653Q164 649 150.0 640.5Q136 632 128 624ZM476 624Q503 634 533 636V653Q512 649 498.0 640.5Q484 632 476 624ZM938 628Q925 628 925 640Q925 652 938 652Q950 652 950 640Q950 628 938 628ZM593 628Q581 628 581 640Q581 652 593 652Q605 652 605 640Q605 628 593 628ZM245 628Q233 628 233 640Q233 652 245 652Q257 652 257 640Q257 628 245 628ZM483 615H533V625Q505 623 483 615ZM135 615H185V625Q172 624 159.0 622.0Q146 620 135 615ZM827 615H877V625Q849 623 827 615ZM132 20H1263Q1301 20 1313.5 39.0Q1326 58 1326 97V212Q1326 251 1313.5 270.0Q1301 289 1263 289H132Q95 289 81.5 270.0Q68 251 68 212V97Q68 58 81.5 39.0Q95 20 132 20Z" />
  </g>
</svg>