<svg xmlns="http://www.w3.org/2000/svg" viewBox="49 -3 1377 955">
  <g transform="translate(0, 949) scale(1, -1)">
    <path fill="black" d="M328 -3Q298 -3 286.0 1.0Q274 5 266.0 8.5Q258 12 239 12Q227 12 214.5 7.5Q202 3 195 -2H167Q171 12 181.0 28.5Q191 45 206 52Q225 60 253.0 63.5Q281 67 298 68Q327 69 342.5 84.5Q358 100 368 128L415 262Q412 267 401.0 289.0Q390 311 378.0 336.0Q366 361 360 374Q309 402 262.0 433.0Q215 464 184.5 503.0Q154 542 154 592Q154 614 165.5 639.5Q177 665 190 691L239 794Q232 793 224.5 794.5Q217 796 209 798L54 794L49 808L177 903V902Q191 923 214.0 937.5Q237 952 265 952Q306 952 330.0 925.5Q354 899 354 855Q354 840 345.5 817.0Q337 794 324.5 769.5Q312 745 301 724Q292 708 286.0 697.0Q280 686 280 684Q280 669 297 669Q321 669 345.0 676.5Q369 684 396 684Q448 684 494.0 665.0Q540 646 577 624Q582 640 590.5 657.0Q599 674 607 691L656 794Q649 793 641.5 794.5Q634 796 626 798L471 794L466 808L594 903V902Q608 923 631.0 937.5Q654 952 682 952Q723 952 747.0 925.5Q771 899 771 855Q771 840 762.5 817.0Q754 794 741.5 769.5Q729 745 718 724Q709 708 703.0 697.0Q697 686 697 684Q697 669 714 669Q738 669 762.0 676.5Q786 684 813 684Q860 684 902.0 668.5Q944 653 979.0 632.0Q1014 611 1039 594L1215 479Q1232 468 1259.5 453.0Q1287 438 1319.0 423.5Q1351 409 1379.5 397.5Q1408 386 1426 381L1404 350Q1392 352 1367.5 356.5Q1343 361 1314 367L1382 335L1315 279Q1269 294 1208.0 299.5Q1147 305 1087 305Q1074 305 1054.5 309.0Q1035 313 1021 317Q1024 308 1027.5 298.0Q1031 288 1033 281Q1026 241 1020.0 202.0Q1014 163 1017 123Q1019 92 1029.0 64.0Q1039 36 1046 10L1028 4L1014 23Q999 16 984.5 6.5Q970 -3 957 -3Q927 -3 911.5 1.0Q896 5 884.5 8.5Q873 12 853 12Q841 12 828.5 7.5Q816 3 809 -2H781Q781 1 785 9Q776 4 766.0 0.5Q756 -3 745 -3Q715 -3 703.0 1.0Q691 5 683.0 8.5Q675 12 656 12Q644 12 631.5 7.5Q619 3 612 -2H583Q585 6 591 18Q576 9 562.0 3.0Q548 -3 540 -3Q509 -3 494.0 1.0Q479 5 467.5 8.5Q456 12 436 12Q424 12 411.5 7.5Q399 3 392 -2H364Q364 1 368 9Q359 4 349.0 0.5Q339 -3 328 -3ZM388 11Q393 13 408.0 21.0Q423 29 440 29Q446 29 447.0 28.5Q448 28 453 28Q466 36 484.5 40.5Q503 45 531 43V31Q515 32 502.5 30.0Q490 28 479 23Q494 21 506.5 19.0Q519 17 540 17Q550 17 567.5 26.5Q585 36 598 45Q591 65 586.0 85.5Q581 106 580 125Q579 151 582.0 184.0Q585 217 589.0 245.0Q593 273 595 281Q592 289 585.0 311.0Q578 333 573 350Q593 342 622.0 333.5Q651 325 670 325Q703 325 737.0 323.5Q771 322 804 317Q796 333 788.5 348.5Q781 364 777 374Q766 379 755.0 385.5Q744 392 733 398Q662 412 593.0 425.5Q524 439 480 449Q456 454 420.5 467.0Q385 480 349.0 499.0Q313 518 289.0 540.5Q265 563 265 587Q265 603 274.0 618.0Q283 633 292 640L305 625Q298 619 291.5 608.5Q285 598 285 587Q285 567 307.5 547.5Q330 528 363.0 512.0Q396 496 429.5 485.0Q463 474 484 469L688 426Q639 459 605.0 499.0Q571 539 571 592Q571 595 571.0 598.0Q571 601 572 604Q536 626 491.0 645.5Q446 665 396 665Q366 665 344.5 657.5Q323 650 297 650Q275 650 268.0 659.5Q261 669 261 684Q261 689 267.5 702.5Q274 716 283 733Q294 753 306.0 777.0Q318 801 326.5 822.0Q335 843 335 855Q335 890 316.0 911.0Q297 932 265 932Q230 932 206.5 907.5Q183 883 183 856Q183 836 200.0 825.0Q217 814 238.0 811.5Q259 809 270 813L208 684Q195 658 184.5 634.0Q174 610 174 592Q174 551 198.0 517.0Q222 483 261.0 454.5Q300 426 345.0 402.0Q390 378 433.5 355.0Q477 332 510.0 310.0Q543 288 557 263Q559 200 560.5 152.5Q562 105 563 85Q534 51 485 50Q469 49 448.5 45.0Q428 41 411 34Q404 32 397.0 24.0Q390 16 388 11ZM805 11Q810 13 824.5 21.0Q839 29 857 29Q863 29 864.0 28.5Q865 28 870 28Q883 36 901.5 40.5Q920 45 948 43V31Q932 32 919.5 30.0Q907 28 896 23Q911 21 923.5 19.0Q936 17 957 17Q967 17 984.5 26.5Q1002 36 1015 45Q1008 65 1003.0 85.5Q998 106 997 125Q996 151 999.0 184.0Q1002 217 1006.0 245.0Q1010 273 1012 281Q1009 289 1002.0 311.0Q995 333 990 350Q1010 342 1039.0 333.5Q1068 325 1087 325Q1145 325 1205.0 319.0Q1265 313 1312 298L1346 331L1237 381Q1179 393 1115.0 405.5Q1051 418 993.5 429.5Q936 441 897 449Q873 454 837.5 467.0Q802 480 766.0 499.0Q730 518 706.0 540.5Q682 563 682 587Q682 603 691.0 618.0Q700 633 709 640L722 625Q715 619 708.5 608.5Q702 598 702 587Q702 567 724.5 547.5Q747 528 780.0 512.0Q813 496 846.5 485.0Q880 474 901 469Q939 461 999.0 448.5Q1059 436 1128.5 422.0Q1198 408 1268.0 394.0Q1338 380 1395 368L1397 372Q1372 380 1334.0 396.5Q1296 413 1260.0 431.0Q1224 449 1204 462L1028 578Q1004 595 970.0 615.0Q936 635 896.5 650.0Q857 665 813 665Q783 665 761.5 657.5Q740 650 714 650Q692 650 685.0 659.5Q678 669 678 684Q678 689 684.5 702.5Q691 716 700 733Q711 753 723.0 777.0Q735 801 743.5 822.0Q752 843 752 855Q752 890 733.0 911.0Q714 932 682 932Q647 932 623.5 907.5Q600 883 600 856Q600 836 617.0 825.0Q634 814 655.0 811.5Q676 809 687 813L625 684Q612 658 601.5 634.0Q591 610 591 592Q591 551 615.0 517.0Q639 483 678.0 454.5Q717 426 762.0 402.0Q807 378 850.5 355.0Q894 332 927.0 310.0Q960 288 974 263Q976 200 977.0 152.5Q978 105 979 85Q952 51 902 50Q886 49 865.5 45.0Q845 41 828 34Q821 32 814.0 24.0Q807 16 805 11ZM656 852Q646 852 638.5 859.5Q631 867 631 877Q631 888 638.5 895.0Q646 902 656 902Q667 902 674.0 895.0Q681 888 681 877Q681 867 674.0 859.5Q667 852 656 852ZM239 852Q229 852 221.5 859.5Q214 867 214 877Q214 888 221.5 895.0Q229 902 239 902Q250 902 257.0 895.0Q264 888 264 877Q264 867 257.0 859.5Q250 852 239 852ZM656 868Q665 868 665 877Q665 886 656 886Q647 886 647 877Q647 868 656 868ZM239 868Q248 868 248 877Q248 886 239 886Q230 886 230 877Q230 868 239 868ZM95 823 164 846Q163 848 163.0 851.0Q163 854 163 856Q163 860 163.5 864.5Q164 869 165 873ZM512 823 581 846Q580 848 580.0 851.0Q580 854 580 856Q580 860 580.5 864.5Q581 869 582 873ZM112 813 182 814Q176 819 169 829ZM529 813 599 814Q593 819 586 829ZM608 11Q613 13 627.5 21.0Q642 29 660 29Q666 29 671.5 28.5Q677 28 682 28Q696 36 714.5 40.5Q733 45 761 43V31Q744 32 731.5 30.0Q719 28 708 23Q723 21 728.5 19.0Q734 17 753 17Q764 17 780.5 27.5Q797 38 808 48Q813 93 828.5 133.5Q844 174 862.5 216.5Q881 259 896 306Q877 320 853.5 333.0Q830 346 805 359Q814 339 828.5 311.0Q843 283 853 264L802 118Q788 84 768.5 67.0Q749 50 715 48Q699 48 673.0 44.0Q647 40 630 34Q623 32 616.5 24.0Q610 16 608 11ZM191 11Q196 13 210.5 21.0Q225 29 243 29Q249 29 254.5 28.5Q260 28 265 28Q279 36 297.5 40.5Q316 45 344 43V31Q327 32 315.0 30.0Q303 28 292 23Q306 21 311.5 19.0Q317 17 336 17Q347 17 363.5 27.5Q380 38 391 48Q396 93 411.5 133.5Q427 174 445.5 216.5Q464 259 479 306Q460 320 436.5 333.0Q413 346 388 359Q397 339 411.5 311.0Q426 283 436 264L385 118Q371 84 351.5 67.0Q332 50 298 48Q282 48 256.0 44.0Q230 40 213 34Q206 32 199.5 24.0Q193 16 191 11ZM618 49 623 52Q642 60 670.0 63.5Q698 67 715 68Q744 69 759.5 84.5Q775 100 785 128L832 262Q830 265 825.0 274.5Q820 284 814 297Q780 302 743.0 303.5Q706 305 670 305Q657 305 637.5 309.0Q618 313 604 317Q607 308 610.5 298.0Q614 288 616 281Q609 241 603.5 202.0Q598 163 600 123Q602 104 606.5 86.0Q611 68 618 49ZM411 55Q430 61 450.0 64.0Q470 67 485 68Q507 70 519.5 76.0Q532 82 542 92Q542 98 541.0 132.5Q540 167 537 255Q523 275 496 294Q481 247 463.5 208.0Q446 169 431.5 132.0Q417 95 411 55ZM828 55Q847 61 867.0 64.0Q887 67 902 68Q924 70 936.5 76.0Q949 82 959 92Q959 98 958.0 132.5Q957 167 954 255Q940 275 913 294Q898 247 880.5 208.0Q863 169 848.5 132.0Q834 95 828 55Z" />
  </g>
</svg>