<svg xmlns="http://www.w3.org/2000/svg" viewBox="49 -178 1226 1193">
  <g transform="translate(0, 837) scale(1, -1)">
    <path fill="black" d="M474 -178Q456 -173 430.0 -161.5Q404 -150 377.0 -135.0Q350 -120 327.5 -106.0Q305 -92 293 -82Q237 -67 188.0 -48.0Q139 -29 104.5 -12.0Q70 5 56 13L78 41Q65 52 49 61Q59 72 70.0 83.0Q81 94 94 104Q88 115 82.5 134.0Q77 153 77 174Q77 186 82.5 214.5Q88 243 96.0 276.5Q104 310 111.0 338.0Q118 366 121 376Q116 385 113.5 396.0Q111 407 110 419Q109 424 109.0 429.0Q109 434 109 438Q109 472 118.0 495.0Q127 518 144.0 538.5Q161 559 184 583Q192 591 202.0 608.0Q212 625 217 638Q219 642 221.0 656.5Q223 671 226 690Q231 724 238.5 766.0Q246 808 256.0 844.0Q266 880 276 895Q294 917 342.5 945.0Q391 973 469.5 994.0Q548 1015 654 1015Q703 1015 752.5 1000.0Q802 985 846.5 964.5Q891 944 924 926Q935 921 949.0 914.0Q963 907 995 890Q1025 876 1064.0 857.5Q1103 839 1147.0 825.5Q1191 812 1235 812Q1248 812 1275 815V770Q1262 766 1240.5 760.5Q1219 755 1191 750L1262 718L1198 606Q1172 620 1138.5 634.0Q1105 648 1075.0 658.0Q1045 668 1027 668Q1015 668 989.0 663.5Q963 659 928.5 651.5Q894 644 858.0 635.0Q822 626 791 618Q793 608 796.5 588.5Q800 569 804.5 546.5Q809 524 812 505L800 481V242L846 230Q884 216 901 186Q917 185 946.0 184.0Q975 183 995 183Q1027 183 1058.0 196.0Q1089 209 1113 219Q1113 204 1101.5 183.0Q1090 162 1075.0 142.5Q1060 123 1048 111Q1066 97 1080.0 75.0Q1094 53 1102.5 30.5Q1111 8 1111 -8Q1098 2 1076.0 10.5Q1054 19 1031.5 25.0Q1009 31 991 31Q963 31 920.5 23.5Q878 16 831 -3L796 -18L859 -83Q828 -91 802.5 -94.5Q777 -98 757 -98Q720 -98 687.5 -92.0Q655 -86 636 -79Q595 -92 552.0 -100.0Q509 -108 468 -108Q460 -108 451.5 -107.5Q443 -107 435 -106Q440 -117 449.5 -136.0Q459 -155 474 -178ZM848 193 846 210 780 230 781 486 792 507Q792 512 787.5 533.0Q783 554 777.5 581.0Q772 608 767 632Q801 641 840.5 651.0Q880 661 917.5 669.0Q955 677 984.5 682.5Q1014 688 1027 688Q1043 688 1071.5 679.0Q1100 670 1132.5 657.0Q1165 644 1191 631L1234 709L1159 744Q1105 735 1043.0 726.5Q981 718 923.5 712.5Q866 707 827 707Q713 707 638.5 724.0Q564 741 520.5 766.5Q477 792 456.5 818.0Q436 844 430.0 864.0Q424 884 424 888Q424 903 430.0 912.0Q436 921 440 925L441 926L455 913L454 911Q451 909 447.0 903.0Q443 897 443 888Q443 884 449.0 866.5Q455 849 474.5 825.5Q494 802 535.5 779.5Q577 757 648.0 742.0Q719 727 827 727Q863 727 911.0 731.0Q959 735 1011.5 741.5Q1064 748 1113.0 755.0Q1162 762 1199.5 769.0Q1237 776 1254 781L1255 795H1234Q1188 795 1142.0 808.0Q1096 821 1056.0 839.5Q1016 858 986 873L915 909Q883 926 840.5 946.0Q798 966 750.0 981.0Q702 996 654 996Q551 996 475.5 976.0Q400 956 354.0 929.5Q308 903 292 883Q283 871 274.0 836.5Q265 802 258.0 761.0Q251 720 246 687Q242 666 240.0 651.0Q238 636 236 631Q231 618 219.5 598.5Q208 579 198 569Q165 536 147.0 509.0Q129 482 129 438V421Q131 403 136.0 389.5Q141 376 154 376Q174 376 189.0 394.0Q204 412 214.0 434.5Q224 457 229 472Q231 480 234.0 496.5Q237 513 240 529Q243 543 245.5 554.5Q248 566 250 572Q266 612 277.0 642.5Q288 673 292 688Q297 704 301.0 727.5Q305 751 309.5 773.5Q314 796 321.5 811.5Q329 827 341 827Q348 827 379.0 805.0Q410 783 447 757Q479 735 508.5 714.0Q538 693 548 688Q562 681 590.0 675.0Q618 669 639 665L760 522Q759 515 757.0 506.0Q755 497 755 492Q755 489 760.5 480.5Q766 472 770 465L756 226L638 212L636 197Q656 198 680.0 199.0Q704 200 725.5 201.0Q747 202 757 201Q774 200 801.5 197.5Q829 195 848 193ZM124 125Q153 146 186.0 163.0Q219 180 250 193Q261 204 276.5 214.0Q292 224 311 228L408 246Q422 248 441.0 255.0Q460 262 466 276Q468 281 475.5 296.0Q483 311 492.5 330.5Q502 350 510 367L553 475Q558 487 561.0 519.0Q564 551 564 592Q564 626 561 663Q554 665 549.0 667.0Q544 669 539 671Q528 676 498.0 697.5Q468 719 436 742Q401 767 376.5 785.0Q352 803 344 803Q335 803 330.0 782.0Q325 761 321.5 732.5Q318 704 311 683Q302 654 290.5 624.5Q279 595 268 565V566Q267 563 264.5 551.5Q262 540 260 525Q257 509 253.5 493.0Q250 477 247 466Q241 449 229.0 424.0Q217 399 200 380Q183 341 165.0 292.0Q147 243 135.5 197.5Q124 152 124 125ZM575 184Q577 186 577 188Q576 188 558.5 193.5Q541 199 523 207Q495 219 495 243Q495 255 503 274Q511 291 521.0 312.0Q531 333 538 346L607 474Q608 476 607.5 483.5Q607 491 606 497L654 618Q647 627 640.0 635.0Q633 643 630 647Q622 649 608.5 651.5Q595 654 581 657Q583 641 583.0 624.5Q583 608 583 592Q583 549 579.5 515.0Q576 481 572 468L525 352H524Q520 343 511.0 324.5Q502 306 494.5 289.5Q487 273 484 268Q474 249 454.5 240.0Q435 231 412 228Q393 225 365.0 219.5Q337 214 323 211L320 197Q342 199 365.5 200.5Q389 202 407.5 203.0Q426 204 432 204Q458 204 486.0 195.5Q514 187 536 185Q550 183 562.0 183.0Q574 183 575 184ZM584 201Q603 228 632 231L740 245L750 459Q747 464 741.0 474.5Q735 485 735 492Q735 501 739 517L668 601L626 495Q627 491 627.5 481.0Q628 471 625 465Q624 463 612.0 440.5Q600 418 583.5 387.0Q567 356 551 328H550L521 266Q515 253 515 243Q515 232 534 223ZM159 409Q152 409 147.0 414.0Q142 419 142 426Q142 434 147.0 438.5Q152 443 159 443Q166 443 171.0 438.5Q176 434 176 426Q176 419 171.0 414.0Q166 409 159 409ZM97 130Q96 135 96.0 140.5Q96 146 96 151Q96 167 98.5 186.0Q101 205 107 228L142 358Q136 360 133 362Q129 346 122.5 319.5Q116 293 109.5 263.5Q103 234 98.0 209.5Q93 185 93 174Q92 158 93.5 148.0Q95 138 97 130ZM110 130Q111 153 117.5 183.5Q124 214 133.5 247.0Q143 280 153.0 309.5Q163 339 170 358Q166 356 163.0 356.0Q160 356 155 356L120 225Q114 202 111.5 183.5Q109 165 109 151Q109 146 109.0 140.5Q109 135 110 130ZM588 180Q592 184 601.0 190.0Q610 196 619 197L621 210Q614 208 604.0 201.0Q594 194 588 180ZM277 193 301 196 303 207Q294 204 287.0 199.5Q280 195 277 193ZM884 180Q879 194 873.0 198.5Q867 203 863 202L865 189Q873 187 877.0 185.5Q881 184 884 180ZM1081 33Q1071 51 1055.0 73.5Q1039 96 1013 111Q1020 113 1034.0 126.5Q1048 140 1062.5 157.5Q1077 175 1084 188Q1057 175 1033.0 170.5Q1009 166 995 165H976Q983 152 986.0 135.5Q989 119 989 102Q989 88 986.5 74.5Q984 61 979 50H991Q1012 50 1037.0 45.0Q1062 40 1081 33ZM468 -88Q524 -88 580.0 -74.0Q636 -60 689.0 -39.5Q742 -19 787 0L824 15Q860 29 893.5 37.0Q927 45 955 48Q970 66 970 102Q970 139 955 164L875 168Q858 175 833.5 177.5Q809 180 788.0 180.5Q767 181 757 181Q743 182 717.0 181.0Q691 180 666.5 179.0Q642 178 632 177Q620 176 606.0 174.5Q592 173 583 163L568 164V166Q562 166 554.0 165.5Q546 165 536 165Q510 165 484.5 174.5Q459 184 432 184Q425 184 402.5 182.5Q380 181 351.0 179.0Q322 177 294.5 175.0Q267 173 250 172L236 166Q244 154 257.5 123.5Q271 93 271 58Q271 18 262.0 -11.5Q253 -41 249 -49Q263 -53 276.5 -57.5Q290 -62 304 -65H305V-66Q343 -76 384.5 -82.0Q426 -88 468 -88ZM230 -43Q233 -38 242.5 -10.0Q252 18 252 58Q252 91 239.0 119.5Q226 148 219 158Q182 140 140.5 114.0Q99 88 76 62Q80 58 87.0 52.0Q94 46 99 42L83 22Q103 12 141.5 -6.5Q180 -25 230 -43ZM176 55Q169 55 164.5 60.0Q160 65 160 71Q160 87 176 87Q192 87 192 71Q192 65 187.5 60.0Q183 55 176 55ZM757 -79Q790 -79 823 -73L777 -25Q752 -36 724.5 -47.0Q697 -58 668 -68Q686 -72 709.0 -75.5Q732 -79 757 -79ZM431 -145Q424 -132 419.5 -121.0Q415 -110 413 -105Q395 -103 377.5 -100.5Q360 -98 342 -94Q388 -125 431 -145Z" />
  </g>
</svg>