<svg xmlns="http://www.w3.org/2000/svg" viewBox="49 42 1440 738">
  <g transform="translate(0, 822) scale(1, -1)">
    <path fill="black" d="M470 42 463 44Q461 51 463 57L442 56Q428 56 413 44L406 46Q407 77 422.0 86.5Q437 96 448 101Q468 109 489.5 113.0Q511 117 535 118Q548 121 564.5 126.0Q581 131 597.5 145.0Q614 159 626 187L658 261Q655 268 647.0 284.5Q639 301 631.0 317.5Q623 334 620 339L611 343V342Q587 352 563.5 362.5Q540 373 520 382Q504 390 480.0 405.0Q456 420 429.5 438.5Q403 457 380.5 476.5Q358 496 344 514V513Q331 530 315.0 546.0Q299 562 276 562Q262 562 249.0 549.5Q236 537 225.5 518.5Q215 500 208.5 482.0Q202 464 202 453Q202 443 207.0 417.5Q212 392 216 372Q221 349 225.0 326.5Q229 304 229 292Q229 288 226.5 273.0Q224 258 220.5 239.0Q217 220 213 204Q214 189 218.0 164.0Q222 139 227.5 112.5Q233 86 237 65L212 56Q199 74 182.5 96.5Q166 119 152.0 141.0Q138 163 131 178Q114 191 94.5 210.5Q75 230 62.0 254.0Q49 278 49 301Q49 321 55.0 352.5Q61 384 70.0 418.0Q79 452 87.5 480.0Q96 508 101 521Q108 539 123.0 572.0Q138 605 157.5 639.5Q177 674 197 694Q214 712 252.0 732.0Q290 752 357.5 766.0Q425 780 530 780Q601 780 670.5 773.0Q740 766 786 752Q810 745 854.0 727.0Q898 709 951.5 686.0Q1005 663 1057 640Q1113 615 1160.0 595.0Q1207 575 1226 569Q1247 562 1284.0 545.0Q1321 528 1362.0 508.0Q1403 488 1435 471V443Q1425 440 1406.5 437.0Q1388 434 1364 430L1489 341V314Q1479 306 1457.5 295.0Q1436 284 1404 284Q1349 284 1296.5 299.0Q1244 314 1215 327Q1205 323 1168.5 311.5Q1132 300 1077.0 290.0Q1022 280 956 280Q942 280 910.0 283.5Q878 287 853 290Q860 280 869.0 266.5Q878 253 884 244L871 151Q871 149 870.5 141.0Q870 133 870 125Q870 124 883.5 118.0Q897 112 916.5 105.0Q936 98 954 91V52Q944 54 922.5 56.0Q901 58 876.0 59.0Q851 60 830 60Q818 60 800.0 59.5Q782 59 765.0 58.0Q748 57 739 55Q732 54 725.0 50.5Q718 47 711 42L706 43Q703 48 705 57L684 56Q677 56 668.0 52.0Q659 48 651 43H648Q648 48 648.0 51.5Q648 55 649 58Q633 59 617.5 59.5Q602 60 588 60Q576 60 558.0 59.5Q540 59 523.0 58.0Q506 57 497 55Q490 54 483.5 50.5Q477 47 470 42ZM935 70V80Q926 84 905.5 90.0Q885 96 868.0 105.0Q851 114 851 125Q851 131 851.5 139.5Q852 148 852 153L865 239Q859 248 842.0 272.5Q825 297 811 316Q835 313 864.5 309.0Q894 305 919.0 302.0Q944 299 956 299Q1008 299 1058.5 307.0Q1109 315 1150.5 326.5Q1192 338 1217 348Q1241 334 1292.0 318.5Q1343 303 1404 303Q1433 303 1447.5 310.0Q1462 317 1469 323V331L1334 427Q1282 421 1218.5 416.0Q1155 411 1092.5 407.0Q1030 403 980.0 401.0Q930 399 905 399Q843 399 780.0 413.0Q717 427 658.5 450.0Q600 473 551.0 500.5Q502 528 467.5 555.5Q433 583 419 606L436 616Q453 589 499.5 555.0Q546 521 612.0 490.0Q678 459 754.0 439.0Q830 419 905 419Q928 419 970.0 420.5Q1012 422 1064.5 424.5Q1117 427 1173.0 430.5Q1229 434 1279.0 438.0Q1329 442 1366.0 446.5Q1403 451 1417 455V461Q1407 466 1382.0 478.5Q1357 491 1326.0 505.5Q1295 520 1266.5 532.0Q1238 544 1220 550Q1203 556 1154.5 577.0Q1106 598 1049 623Q1013 639 972.5 656.0Q932 673 894.0 689.0Q856 705 826.0 717.0Q796 729 780 734Q737 746 668.5 753.0Q600 760 530 760Q430 760 366.0 746.0Q302 732 265.0 713.5Q228 695 209 679Q192 661 173.5 627.5Q155 594 141.0 562.0Q127 530 120 514Q115 501 106.5 473.5Q98 446 89.0 413.5Q80 381 74.0 350.5Q68 320 68 301Q68 276 89.5 247.5Q111 219 132 201Q138 205 149.0 211.5Q160 218 167 222L199 221Q201 232 205.0 254.0Q209 276 209 292Q209 303 205.0 323.5Q201 344 196 368Q191 392 186.5 415.5Q182 439 182 453Q182 467 190.0 488.0Q198 509 211.5 531.0Q225 553 241.5 567.5Q258 582 276 582Q305 582 325.0 563.0Q345 544 360 524Q378 502 410.0 477.0Q442 452 475.0 431.0Q508 410 528 400Q548 390 571.5 380.5Q595 371 619 360Q648 349 674.0 337.5Q700 326 719 316Q738 307 760.0 288.5Q782 270 803.5 249.0Q825 228 840 211L835 157Q834 135 821.0 118.5Q808 102 786 97Q781 96 771.0 90.5Q761 85 756 72Q769 74 793.0 76.0Q817 78 831 78Q844 78 864.5 76.5Q885 75 905.0 73.5Q925 72 935 70ZM515 72Q527 74 551.0 76.0Q575 78 589 78Q600 78 618.0 77.0Q636 76 654 74Q657 80 661.5 84.0Q666 88 670 91Q657 99 651.0 107.5Q645 116 645 129Q645 140 653.5 157.0Q662 174 664 178L708 263V300Q695 307 679.5 313.5Q664 320 648 327L678 261L641 179Q621 133 593.5 117.5Q566 102 544 97Q540 96 530.0 90.5Q520 85 515 72ZM688 100Q688 100 688.0 100.0Q688 100 689 101Q709 109 731.0 113.0Q753 117 776 118Q796 122 805.5 134.0Q815 146 816 161L819 205Q814 211 800.0 225.5Q786 240 767.0 257.5Q748 275 728 288V258L679 171Q676 165 670.5 153.0Q665 141 663 135Q660 125 667.5 115.0Q675 105 688 100ZM131 245Q124 245 119.0 250.0Q114 255 114 262Q114 269 119.0 273.5Q124 278 131 278Q147 278 147 262Q147 245 131 245ZM215 95Q211 118 205.5 150.0Q200 182 198 204L179 203Q183 184 194.0 151.0Q205 118 215 95ZM201 95Q191 118 180.0 148.0Q169 178 165 199L146 188Q156 166 172.0 140.0Q188 114 201 95ZM444 69H462Q466 74 477.0 83.5Q488 93 507 102Q482 98 465.5 87.5Q449 77 444 69ZM686 69H704Q707 74 718.5 83.5Q730 93 749 102Q724 98 707.5 87.5Q691 77 686 69ZM475 57Q481 62 487.5 64.5Q494 67 497 68Q499 73 501.0 77.5Q503 82 508 88Q499 84 488.0 75.0Q477 66 475 57ZM717 57Q723 62 729.0 64.5Q735 67 738 68Q740 73 742.5 77.5Q745 82 750 88Q740 84 729.5 75.0Q719 66 717 57ZM659 58Q668 66 675 67Q677 76 685 85Q677 83 669.0 77.0Q661 71 659 58ZM417 58Q426 65 434 67Q436 74 443 85Q436 83 427.5 77.0Q419 71 417 58Z" />
  </g>
</svg>