<svg xmlns="http://www.w3.org/2000/svg" viewBox="49 -199 1250 1215">
  <g transform="translate(0, 817) scale(1, -1)">
    <path fill="black" d="M215 -199 197 -186 216 -159Q226 -147 234.0 -136.0Q242 -125 272 -125L406 -119Q441 -86 453.0 -50.5Q465 -15 465 0Q465 15 463.0 45.5Q461 76 447 116Q438 142 423.0 183.0Q408 224 389.0 269.0Q370 314 348 351Q333 370 311.5 399.5Q290 429 269.0 464.0Q248 499 234.0 535.5Q220 572 220 605Q220 631 225.5 651.0Q231 671 235 686Q238 694 240.0 700.5Q242 707 242 711Q242 714 232.5 717.0Q223 720 210 721L184 660L140 681L175 733L131 813L167 891Q167 892 169.0 905.0Q171 918 178.5 936.5Q186 955 202.5 973.0Q219 991 247.0 1003.5Q275 1016 318 1016Q364 1016 394.5 994.0Q425 972 440.5 942.5Q456 913 456 889Q456 854 442.0 822.5Q428 791 418 758Q417 754 415.5 747.0Q414 740 415 732Q479 729 540.0 703.0Q601 677 652.5 641.5Q704 606 739 575Q813 510 882.5 434.0Q952 358 1034 274Q1108 201 1177.5 139.0Q1247 77 1299 37L1272 3Q1253 11 1209.5 31.0Q1166 51 1109 76L1198 -52L996 -177L771 189L741 -67L657 -26L655 -125H751Q782 -125 790.0 -136.0Q798 -147 807 -159L827 -186L807 -199L795 -182H433L420 -199L402 -186L405 -182H228ZM398 732Q396 741 397.0 750.5Q398 760 400 764Q409 795 423.0 825.0Q437 855 437 889Q437 909 423.5 934.0Q410 959 383.5 977.5Q357 996 318 996Q279 996 254.5 984.5Q230 973 216.0 956.5Q202 940 196.0 923.5Q190 907 188 897L307 881Q311 885 318.0 889.5Q325 894 336 894Q352 894 362.5 883.5Q373 873 373 854Q373 844 369.0 837.5Q365 831 360 825Q356 821 352.5 814.5Q349 808 349 797Q349 780 365.5 762.5Q382 745 398 732ZM446 -165H783L767 -143H652L636 -125L639 6L724 -37Q729 4 734.5 52.0Q740 100 746.0 147.5Q752 195 756 236L438 380Q418 389 387.0 408.0Q356 427 325.5 455.5Q295 484 274.0 523.5Q253 563 253 614Q253 646 270.0 670.0Q287 694 314.5 709.5Q342 725 371 731Q358 742 344.0 758.5Q330 775 330 797Q330 813 335.5 822.5Q341 832 346 838Q349 842 351.5 845.5Q354 849 354 854Q354 874 336 874Q330 874 324.0 869.0Q318 864 315 859L182 878L153 814L194 742Q208 741 223.5 738.5Q239 736 250.5 730.0Q262 724 262 711Q262 704 259.5 696.5Q257 689 254 680Q250 666 244.5 647.5Q239 629 239 605Q239 573 254.5 536.0Q270 499 293.0 462.5Q316 426 338.5 396.5Q361 367 374 350Q418 294 464.5 234.5Q511 175 555 119Q576 92 591.0 60.5Q606 29 608 -2L597 -125L583 -143H461ZM245 823Q227 820 214.5 823.0Q202 826 193 838Q195 843 200.5 849.0Q206 855 216 855Q230 855 238.5 846.0Q247 837 245 823ZM1268 23 1276 35Q1227 73 1159.5 132.0Q1092 191 1021 261Q988 294 949.5 335.0Q911 376 870.5 418.0Q830 460 793.0 497.0Q756 534 727 560Q701 583 664.5 609.5Q628 636 584.0 660.0Q540 684 493.5 699.5Q447 715 402 715Q373 715 343.0 702.5Q313 690 293.0 667.5Q273 645 273 614Q273 565 293.5 528.0Q314 491 343.5 465.0Q373 439 401.5 422.5Q430 406 447 397Q448 396 479.0 382.0Q510 368 562.5 344.5Q615 321 681.0 291.0Q747 261 819.0 228.0Q891 195 962.0 162.5Q1033 130 1095.0 102.0Q1157 74 1202.0 53.0Q1247 32 1268 23ZM118 -57 49 145H138Q138 153 137.0 168.0Q136 183 131 196Q130 202 124.5 213.5Q119 225 112 238Q107 250 98.0 267.5Q89 285 82.0 303.5Q75 322 75 336Q75 353 80.5 371.5Q86 390 93 406H97Q102 381 121.5 343.5Q141 306 161 280Q171 267 189.5 242.5Q208 218 226.0 191.5Q244 165 251 145H343L274 -57ZM158 145H230Q222 163 205.0 187.0Q188 211 171.0 233.0Q154 255 145 267Q132 285 117.5 310.5Q103 336 95 358Q94 353 94.0 345.5Q94 338 95 330Q98 314 109.0 290.5Q120 267 130 247Q137 234 142.0 222.0Q147 210 150 202Q155 187 156.0 170.5Q157 154 158 145ZM241 -165H417L421 -159Q429 -148 436.0 -138.0Q443 -128 465 -126H485L531 17L588 -13L589 -2Q587 26 573.5 54.0Q560 82 540 107L406 277Q426 232 441.0 190.5Q456 149 465 123Q479 83 481.5 49.5Q484 16 484 0Q484 -10 477.5 -35.0Q471 -60 455.5 -88.0Q440 -116 412 -137L256 -143ZM1002 -150 1171 -46 1076 91 769 230ZM132 -38H260L316 125H76ZM504 -125H577L586 -35L542 -11Z" />
  </g>
</svg>