<svg xmlns="http://www.w3.org/2000/svg" viewBox="49 36 773 864">
  <g transform="translate(0, 936) scale(1, -1)">
    <path fill="black" d="M306 36Q308 102 332.0 154.5Q356 207 392.5 255.0Q429 303 466 354Q493 390 515.0 423.5Q537 457 550.0 483.5Q563 510 563 524Q563 552 535.0 568.5Q507 585 460.0 593.0Q413 601 355 604H342L145 612Q129 613 112.5 606.0Q96 599 87 592H49Q54 647 76.0 677.5Q98 708 134.0 723.5Q170 739 215 749Q256 757 292.5 761.0Q329 765 345 766Q346 768 364.0 788.0Q382 808 415.0 834.5Q448 861 492.0 880.5Q536 900 590 900Q663 900 715.0 871.5Q767 843 794.5 796.5Q822 750 822 695Q822 647 809.0 592.5Q796 538 776.0 480.5Q756 423 735 366Q715 312 696.0 257.5Q677 203 665.0 153.5Q653 104 653 63Q653 59 653.0 53.5Q653 48 654 36ZM330 56H633V63Q633 128 659.0 208.5Q685 289 716 373Q748 459 775.0 542.5Q802 626 802 695Q802 745 777.0 787.0Q752 829 704.5 854.5Q657 880 590 880Q545 880 506.5 864.0Q468 848 438.0 826.0Q408 804 390.0 786.0Q372 768 369 763Q373 753 375.0 732.0Q377 711 377 691Q377 675 374.0 654.0Q371 633 367 622Q432 618 480.5 608.5Q529 599 556.0 579.5Q583 560 583 524Q583 499 554.0 449.0Q525 399 484 344Q462 313 435.5 278.5Q409 244 385.0 207.0Q361 170 345.5 132.0Q330 94 330 56ZM527 718Q514 718 504.5 727.5Q495 737 495 750Q495 764 504.5 773.0Q514 782 527 782Q540 782 549.5 773.0Q559 764 559 750Q559 737 549.5 727.5Q540 718 527 718ZM73 628Q85 650 116.0 667.0Q147 684 206 684H357V691Q357 705 355.0 720.0Q353 735 351 747Q338 746 302.0 742.5Q266 739 219 729Q164 717 125.0 697.0Q86 677 73 628ZM86 615Q95 620 111.0 626.0Q127 632 146 631L348 623Q350 632 352.0 643.0Q354 654 355 664H206Q149 664 121.5 648.0Q94 632 86 615Z" />
  </g>
</svg>