<svg xmlns="http://www.w3.org/2000/svg" viewBox="49 32 742 877">
  <g transform="translate(0, 941) scale(1, -1)">
    <path fill="black" d="M507 32V67Q507 110 517.5 164.0Q528 218 545.0 273.0Q562 328 579 373Q583 382 587.0 391.5Q591 401 594 411Q614 461 627.5 497.0Q641 533 641 546Q641 579 616.5 599.0Q592 619 529 619Q498 619 471.0 608.5Q444 598 429 578Q417 560 395.5 528.5Q374 497 349.0 460.0Q324 423 301.0 388.5Q278 354 262.5 331.5Q247 309 245 306Q224 279 202.5 274.0Q181 269 155 269Q148 267 142.0 265.5Q136 264 129 264Q111 264 92.5 274.0Q74 284 61.5 302.0Q49 320 49 343Q49 366 64.0 390.5Q79 415 98.5 436.0Q118 457 132 470L354 673Q365 684 377.5 699.0Q390 714 394 732Q395 741 401.5 761.5Q408 782 421.5 807.0Q435 832 457.5 855.5Q480 879 514.0 894.0Q548 909 595 909Q651 909 695.0 888.0Q739 867 765.0 831.0Q791 795 791 749Q791 717 782.0 672.5Q773 628 760.0 582.0Q747 536 736 497Q731 480 727.0 465.5Q723 451 720 440Q707 392 695.0 315.0Q683 238 683 148V32ZM526 51H664V148Q664 240 676.5 318.0Q689 396 701 445Q704 456 708.0 471.0Q712 486 717 503Q729 541 741.5 586.5Q754 632 762.5 675.5Q771 719 771 749Q771 790 748.0 821.5Q725 853 685.0 871.0Q645 889 595 889Q547 889 514.5 872.0Q482 855 461.5 829.5Q441 804 430.5 779.0Q420 754 416 739L479 738L512 753Q511 755 511 761Q511 778 523.5 790.0Q536 802 552 802Q569 802 581.0 790.0Q593 778 593 761Q593 745 581.0 732.5Q569 720 552 720Q533 720 520 735L490 722Q487 701 487 685Q487 669 488.5 655.0Q490 641 491 635Q508 638 529 638Q603 638 632.0 613.0Q661 588 661 546Q661 536 654.0 513.5Q647 491 636.0 462.5Q625 434 613 404Q609 395 605.0 385.0Q601 375 598 366Q581 321 564.0 266.5Q547 212 536.5 159.5Q526 107 526 67ZM552 738Q561 738 568.0 745.0Q575 752 575 761Q575 770 568.0 777.0Q561 784 552 784Q543 784 536.0 777.0Q529 770 529 761Q529 752 536.0 745.0Q543 738 552 738ZM129 284Q150 284 173.0 301.5Q196 319 219 349Q257 399 297.0 450.0Q337 501 374 550Q396 579 418.0 599.5Q440 620 472 630Q471 638 469.0 653.0Q467 668 467 685Q467 693 467.5 702.0Q468 711 469 719Q456 719 440.5 719.5Q425 720 411 720Q405 701 391.5 685.0Q378 669 367 658L146 455Q133 443 114.5 424.0Q96 405 82.0 383.5Q68 362 68 343Q68 317 88.5 300.5Q109 284 129 284ZM193 292Q206 293 213.5 298.5Q221 304 232 320L382 535L380 536L235 337Q225 323 214.5 312.0Q204 301 193 292Z" />
  </g>
</svg>