<svg xmlns="http://www.w3.org/2000/svg" viewBox="49 -2 1525 400">
  <g transform="translate(0, 396) scale(1, -1)">
    <path fill="black" d="M587 -2Q573 -2 559.5 3.5Q546 9 538 22Q532 13 522.0 6.5Q512 0 499 0Q486 0 475.5 6.5Q465 13 459 23Q452 13 442.5 6.5Q433 0 419 0Q406 0 395.5 6.5Q385 13 379 23Q372 13 362.0 6.5Q352 0 339 0Q326 0 315.5 6.5Q305 13 299 23Q292 13 282.0 6.5Q272 0 259 0Q246 0 235.5 6.5Q225 13 219 23Q212 13 202.0 6.5Q192 0 179 0Q166 0 155.5 6.5Q145 13 139 23Q132 13 122.0 6.5Q112 0 99 0Q75 0 62.0 18.5Q49 37 49 56V398H930L1473 344Q1493 342 1516.5 334.0Q1540 326 1557.0 310.0Q1574 294 1574 267Q1574 246 1561.0 233.0Q1548 220 1528.5 214.0Q1509 208 1491 208Q1484 208 1477.0 208.5Q1470 209 1462 210Q1473 201 1479.0 190.0Q1485 179 1485 164Q1485 133 1461.5 120.0Q1438 107 1413 107Q1396 107 1369.0 112.5Q1342 118 1313 126Q1326 108 1326 84Q1326 54 1304.0 36.5Q1282 19 1256 19Q1234 19 1208.0 27.5Q1182 36 1159.5 46.5Q1137 57 1125 63L1106 75Q1107 71 1107.5 67.5Q1108 64 1108 61Q1108 39 1092.5 20.5Q1077 2 1051 2Q1023 2 995.5 18.5Q968 35 945 54V53Q945 32 931.0 15.5Q917 -1 894 -1Q874 -1 856.0 9.5Q838 20 824 36Q820 19 805.0 8.5Q790 -2 773 -2Q754 -2 741.0 6.0Q728 14 719 27Q713 12 699.5 5.0Q686 -2 671 -2Q660 -2 647.5 3.5Q635 9 627 21Q613 -2 587 -2ZM68 203H549Q606 203 645.5 203.5Q685 204 715.0 208.5Q745 213 771.5 223.5Q798 234 828 255Q855 274 879.5 308.5Q904 343 921 379H68ZM1491 228Q1503 228 1518.0 231.5Q1533 235 1544.0 243.5Q1555 252 1555 268Q1555 294 1529.0 307.5Q1503 321 1471 324L941 377L923 341L1358 246Q1393 239 1429.5 233.5Q1466 228 1491 228ZM1413 126Q1432 126 1449.0 135.0Q1466 144 1466 164Q1466 187 1442.0 200.0Q1418 213 1388 219Q1356 226 1332.5 231.0Q1309 236 1281.0 242.0Q1253 248 1209.5 257.5Q1166 267 1095.0 282.5Q1024 298 913 322L891 289Q1022 244 1104.0 216.5Q1186 189 1213 180Q1227 176 1253.5 167.0Q1280 158 1310.5 148.5Q1341 139 1369.0 132.5Q1397 126 1413 126ZM1256 38Q1274 38 1290.5 50.5Q1307 63 1307 84Q1307 112 1289.0 125.0Q1271 138 1248 146L877 272L851 248Q901 218 951.5 188.0Q1002 158 1052 129L1141 78Q1161 68 1194.0 53.0Q1227 38 1256 38ZM1051 21Q1068 21 1078.0 33.5Q1088 46 1088 61Q1088 71 1084.5 80.5Q1081 90 1070 96L835 234L809 220L928 97Q939 85 959.5 67.0Q980 49 1004.5 35.0Q1029 21 1051 21ZM892 18Q908 18 917.0 28.5Q926 39 926 53Q926 63 922.0 69.0Q918 75 914 82L791 210L747 194L824 69Q836 50 854.5 34.0Q873 18 892 18ZM773 17Q786 17 796.0 26.0Q806 35 806 49Q806 54 805.5 58.5Q805 63 802 67L727 189L685 184L721 72Q728 50 739.5 33.5Q751 17 773 17ZM99 20Q113 20 121.0 31.5Q129 43 129 56V183H68V56Q68 43 76.0 31.5Q84 20 99 20ZM499 20Q514 20 521.5 31.5Q529 43 529 56V183H469V56Q469 43 476.5 31.5Q484 20 499 20ZM419 20Q433 20 441.0 31.5Q449 43 449 56V183H389V54Q389 41 397.0 30.5Q405 20 419 20ZM339 20Q353 20 361.0 31.5Q369 43 369 56V183H309V56Q309 43 316.5 31.5Q324 20 339 20ZM259 20Q273 20 281.0 31.5Q289 43 289 56V183H229V56Q229 43 236.5 31.5Q244 20 259 20ZM179 20Q193 20 201.0 31.5Q209 43 209 56V183H148V56Q148 43 156.0 31.5Q164 20 179 20ZM587 17Q604 17 610.5 30.5Q617 44 617 57L602 182H549V56Q549 36 561.5 26.5Q574 17 587 17ZM671 17Q684 17 694.5 25.5Q705 34 705 50Q705 55 704.0 59.5Q703 64 701 69Q693 95 683.0 125.0Q673 155 665 182H622L637 57Q640 36 650.5 26.5Q661 17 671 17Z" />
  </g>
</svg>