<svg xmlns="http://www.w3.org/2000/svg" viewBox="49 -287 536 1300">
  <g transform="translate(0, 726) scale(1, -1)">
    <path fill="black" d="M237 -287V158L49 283L60 299L237 181V246L49 371L60 388L237 270V794Q237 834 242.5 873.0Q248 912 264.5 943.5Q281 975 313.0 994.0Q345 1013 397 1013Q465 1013 500.0 980.0Q535 947 535 888Q535 852 515.5 828.0Q496 804 472.5 790.5Q449 777 435 771Q439 754 450.0 705.5Q461 657 477.0 587.5Q493 518 511.5 437.5Q530 357 549.0 275.0Q568 193 585 119Q494 97 416.5 51.5Q339 6 295 -53V-287ZM256 -267H276V-46Q322 17 397.5 64.5Q473 112 563 134Q559 152 547.5 200.5Q536 249 520.0 318.0Q504 387 485.5 467.0Q467 547 448.5 629.5Q430 712 413 785Q416 786 432.0 792.5Q448 799 467.5 812.0Q487 825 501.0 844.0Q515 863 515 888Q515 935 485.5 964.0Q456 993 397 993Q351 993 323.0 976.0Q295 959 280.5 930.5Q266 902 261.0 866.5Q256 831 256 794Z" />
  </g>
</svg>