<svg xmlns="http://www.w3.org/2000/svg" viewBox="49 -304 1470 1303">
  <g transform="translate(0, 695) scale(1, -1)">
    <path fill="black" d="M276 -304 269 -301Q270 -276 276.0 -256.0Q282 -236 292 -221Q282 -222 272.5 -223.0Q263 -224 250 -229Q231 -236 212.5 -237.5Q194 -239 180 -239Q168 -239 156.5 -234.5Q145 -230 139 -226Q130 -227 115.0 -236.0Q100 -245 84.5 -255.5Q69 -266 57 -274L49 -271Q51 -226 69.0 -197.5Q87 -169 114.0 -153.5Q141 -138 169 -133Q183 -118 217.5 -111.5Q252 -105 313 -104Q317 -104 343.5 -105.5Q370 -107 410.0 -108.5Q450 -110 495 -110Q545 -109 593.5 -106.5Q642 -104 676.5 -101.0Q711 -98 719 -95Q752 -83 774.5 -54.5Q797 -26 809.5 12.0Q822 50 823 90Q818 237 812.5 391.0Q807 545 801.5 699.0Q796 853 791 999H963L931 90Q930 58 937.0 19.0Q944 -20 963.5 -51.0Q983 -82 1017 -90Q1057 -98 1100.0 -101.5Q1143 -105 1181 -107Q1200 -108 1217.0 -109.0Q1234 -110 1248 -112Q1310 -118 1347.5 -133.0Q1385 -148 1399 -162Q1428 -167 1454.5 -182.5Q1481 -198 1499.0 -226.5Q1517 -255 1519 -300L1511 -303Q1494 -292 1474.0 -283.0Q1454 -274 1440 -271Q1436 -275 1425.5 -280.0Q1415 -285 1399 -285Q1385 -285 1367.5 -280.0Q1350 -275 1332 -269Q1313 -262 1293.0 -256.0Q1273 -250 1257 -250Q1241 -250 1230.0 -250.5Q1219 -251 1211 -252Q1204 -253 1195.5 -253.5Q1187 -254 1175 -254Q1152 -254 1102.5 -243.5Q1053 -233 1003 -221Q963 -211 927.0 -203.0Q891 -195 877 -195Q863 -195 832.0 -203.0Q801 -211 767 -221Q724 -232 681.0 -243.0Q638 -254 615 -254Q603 -254 595.0 -253.5Q587 -253 579 -252Q571 -251 560.0 -250.5Q549 -250 533 -250Q517 -250 497.0 -256.0Q477 -262 457 -269Q438 -275 420.5 -280.0Q403 -285 389 -285Q378 -285 366.5 -280.5Q355 -276 348 -272Q335 -275 314.5 -284.0Q294 -293 276 -304ZM389 -266Q401 -266 417.5 -261.0Q434 -256 451 -250Q471 -243 492.5 -237.0Q514 -231 533 -231Q551 -231 561.5 -231.5Q572 -232 581 -233Q589 -234 597.0 -234.5Q605 -235 615 -235Q638 -235 679.0 -224.5Q720 -214 762 -202Q799 -191 830.0 -183.0Q861 -175 877 -175Q892 -175 928.5 -183.0Q965 -191 1008 -202Q1058 -214 1105.5 -224.5Q1153 -235 1175 -235Q1186 -235 1194.0 -234.5Q1202 -234 1209 -233Q1218 -232 1228.5 -231.5Q1239 -231 1257 -231Q1276 -231 1297.5 -237.0Q1319 -243 1338 -250Q1355 -256 1371.5 -261.0Q1388 -266 1399 -266Q1411 -266 1419 -261Q1409 -248 1401.0 -227.5Q1393 -207 1388 -179Q1376 -165 1341.0 -151.0Q1306 -137 1246 -131Q1232 -129 1215.5 -128.5Q1199 -128 1180 -127Q1140 -125 1096.0 -121.5Q1052 -118 1013 -110Q982 -103 961.5 -81.0Q941 -59 930.0 -29.0Q919 1 914.5 32.5Q910 64 911 91L943 979H811L843 91Q845 29 818.5 -26.0Q792 -81 741 -104Q725 -111 694.0 -116.0Q663 -121 626.5 -123.5Q590 -126 555.0 -127.0Q520 -128 494 -129Q450 -129 410.5 -128.0Q371 -127 345.0 -125.5Q319 -124 315 -124Q201 -124 180 -150Q176 -178 172.5 -190.0Q169 -202 159 -214Q169 -219 180 -219Q191 -219 208.5 -217.5Q226 -216 243 -210Q263 -204 277.5 -203.0Q292 -202 309 -202Q326 -185 346.5 -175.5Q367 -166 389 -162Q398 -158 423.5 -154.5Q449 -151 482.5 -147.5Q516 -144 550.0 -141.0Q584 -138 610 -137Q616 -136 633.0 -133.5Q650 -131 667.0 -128.0Q684 -125 689 -126L688 -146Q681 -145 665.0 -147.5Q649 -150 633.5 -153.0Q618 -156 611 -157Q560 -160 506.0 -164.5Q452 -169 399 -180Q395 -208 387.0 -228.0Q379 -248 369 -261Q379 -266 389 -266ZM70 -243Q84 -235 106.0 -221.0Q128 -207 141 -205Q149 -195 151.5 -187.0Q154 -179 159 -155Q127 -164 101.5 -185.0Q76 -206 70 -243ZM1499 -272Q1492 -235 1466.5 -214.0Q1441 -193 1409 -185Q1414 -209 1421.5 -225.5Q1429 -242 1437 -251Q1469 -258 1499 -272ZM290 -272Q304 -265 321.0 -259.0Q338 -253 351 -251Q359 -241 366.5 -224.5Q374 -208 378 -185Q347 -194 321.0 -214.5Q295 -235 290 -272Z" />
  </g>
</svg>