<svg xmlns="http://www.w3.org/2000/svg" viewBox="49 -311 1405 1194">
  <g transform="translate(0, 572) scale(1, -1)">
    <path fill="black" d="M1426 -311Q1412 -297 1388.0 -263.5Q1364 -230 1339.5 -185.5Q1315 -141 1297 -95Q1288 -70 1281.0 -42.5Q1274 -15 1268 10Q1255 65 1232.5 127.5Q1210 190 1174 244Q1155 270 1123.5 300.0Q1092 330 1054.0 356.5Q1016 383 979 398Q975 387 954.5 366.0Q934 345 916 329Q940 325 965.5 318.0Q991 311 1009 292L1021 300Q1028 306 1036 306Q1039 306 1041.5 305.5Q1044 305 1047 304Q1052 306 1059.0 308.5Q1066 311 1070 311Q1076 311 1076 307Q1076 303 1071.5 296.5Q1067 290 1063 285Q1063 276 1056.5 270.5Q1050 265 1041 257L1056 258Q1076 258 1083 246Q1091 244 1100.0 240.0Q1109 236 1109 231Q1109 227 1100.0 224.5Q1091 222 1083 221Q1078 213 1065 213Q1061 213 1054.5 213.5Q1048 214 1034 218L1044 187Q1047 180 1047 172Q1047 164 1041 156V149Q1041 142 1040.0 134.5Q1039 127 1034 127Q1030 127 1025.0 135.0Q1020 143 1017 149Q1006 153 1001 167L994 190L993 196Q989 183 982.0 171.5Q975 160 967 160Q963 154 956.5 148.0Q950 142 946 142Q941 142 941 151Q941 162 945 172Q942 177 942 183Q942 194 949 202L956 214L940 208Q938 207 935.0 207.0Q932 207 930 207Q920 207 916 211Q913 210 908 210Q901 210 895.0 211.5Q889 213 889 217Q889 222 897.0 227.0Q905 232 910 235Q915 248 934 251L957 256Q933 257 901.5 260.0Q870 263 841.0 270.0Q812 277 792.5 289.5Q773 302 773 321Q773 331 784.5 345.0Q796 359 814.0 374.5Q832 390 849 403L838 400Q807 393 770.0 386.5Q733 380 684 380Q657 380 617.0 384.5Q577 389 539 394Q548 383 558.0 364.5Q568 346 574.5 327.0Q581 308 581 294Q581 264 558.0 254.5Q535 245 494 245Q482 245 461.5 248.5Q441 252 422.0 256.0Q403 260 394 262L395 247Q397 227 384 219Q383 212 379.5 202.5Q376 193 372 193Q368 192 364.5 201.5Q361 211 359 218Q351 223 351 241V251L342 239Q329 223 315 224Q310 220 301.0 214.5Q292 209 289 212Q285 214 288.5 223.5Q292 233 295 239Q294 245 296.5 250.5Q299 256 303 262Q309 270 315 274L323 280L292 291Q272 296 269 312Q264 316 256.5 322.5Q249 329 250 333Q251 338 261.0 337.5Q271 337 278 335Q288 342 302 337L324 329L330 327L327 331Q324 334 322.0 337.5Q320 341 318 345Q311 360 317 369Q315 377 314.0 386.5Q313 396 316 397Q321 399 328.5 391.5Q336 384 340 379Q346 378 352.0 373.0Q358 368 361 358L366 345L367 347Q368 351 369.5 354.5Q371 358 372 362Q377 377 388 379Q392 385 398.5 392.0Q405 399 409 397Q413 396 412.5 386.0Q412 376 411 370Q419 357 410 340L400 320L470 323L396 418Q375 421 356 421Q348 421 339.0 419.5Q330 418 320 416Q307 413 290.0 410.0Q273 407 248 407Q226 407 193.0 413.5Q160 420 127.0 432.5Q94 445 71.5 464.0Q49 483 49 507Q49 532 65.0 547.5Q81 563 105.5 571.5Q130 580 155.5 583.0Q181 586 200 586Q220 586 238.0 581.5Q256 577 272 572Q286 568 298.5 565.0Q311 562 324 562Q347 562 371.5 567.0Q396 572 415 575Q435 598 464.5 627.5Q494 657 518 683L469 730L464 708Q459 687 446 684Q443 678 438.0 670.0Q433 662 428 663Q424 665 423.0 674.0Q422 683 423 690Q417 698 420 714L426 730L415 724Q399 713 385 720Q378 719 367.5 717.5Q357 716 354 720Q353 723 359.5 730.5Q366 738 373 742Q373 753 389 760Q396 764 409 768L381 776Q368 780 362 792Q357 796 349.0 801.5Q341 807 342 811Q343 816 353.5 816.5Q364 817 371 817Q381 827 401 819L432 808L430 818Q429 823 428.5 826.5Q428 830 428 834Q428 852 436 857Q437 865 440.0 874.0Q443 883 447 883Q452 883 455.5 874.0Q459 865 461 857Q473 851 473 830L472 814L478 822Q487 835 500 835Q505 840 513.0 845.0Q521 850 524 847Q528 844 524.5 834.5Q521 825 519 819Q522 805 510 790L500 779Q512 773 533.5 762.5Q555 752 569 741Q601 717 613.0 694.5Q625 672 607 648Q599 638 587.0 623.5Q575 609 561 598Q587 601 612.5 603.0Q638 605 661 605Q775 605 863 587Q853 602 845.0 622.0Q837 642 837 661Q837 670 838.5 685.5Q840 701 848.5 713.5Q857 726 877 726Q889 726 916.5 720.5Q944 715 976.5 707.0Q1009 699 1036 691Q1047 688 1056.5 684.0Q1066 680 1073 678L1053 690Q1037 700 1037 714Q1033 719 1027.5 725.5Q1022 732 1022 737Q1022 741 1029 741Q1038 741 1050 735Q1052 735 1054.0 735.5Q1056 736 1057 736Q1065 736 1074 729L1087 718Q1084 730 1083.5 734.0Q1083 738 1083 740Q1083 755 1091 761Q1091 767 1094.0 778.0Q1097 789 1102 789Q1106 789 1110.0 780.5Q1114 772 1116 765Q1123 763 1126.0 753.0Q1129 743 1129 731Q1129 730 1129.0 727.0Q1129 724 1128 722L1146 746Q1150 751 1156.0 754.0Q1162 757 1167 758Q1172 762 1178.5 767.0Q1185 772 1189 772Q1193 772 1193 766Q1193 761 1190.5 754.5Q1188 748 1187 743Q1188 740 1188 734Q1188 728 1185.5 723.0Q1183 718 1179 713L1159 687Q1185 685 1193.5 680.0Q1202 675 1204 667Q1211 664 1217.5 658.5Q1224 653 1224 649Q1224 646 1218.0 645.0Q1212 644 1206 644H1195Q1188 639 1179 639Q1172 639 1166 642L1151 648Q1156 640 1159.5 633.5Q1163 627 1163 621Q1163 616 1162 614Q1164 610 1165.5 604.0Q1167 598 1167 593Q1167 586 1164 586Q1159 586 1152.0 592.0Q1145 598 1141 602Q1130 602 1116 615Q1115 617 1111.0 619.5Q1107 622 1099 624Q1080 621 1069.0 612.5Q1058 604 1051 602Q1042 602 1018.5 606.5Q995 611 974 618Q979 610 984.0 602.0Q989 594 993 585Q1000 564 1002 547Q1094 510 1153.0 459.0Q1212 408 1247.0 355.5Q1282 303 1300 259Q1315 220 1328.5 171.0Q1342 122 1353.5 72.0Q1365 22 1373.0 -20.5Q1381 -63 1385 -89Q1396 -154 1418.0 -208.0Q1440 -262 1454 -292ZM452 585Q466 587 485.5 589.5Q505 592 518 594Q530 596 544.0 608.0Q558 620 571.0 635.5Q584 651 592 661Q603 675 592.5 691.0Q582 707 557 726Q546 735 524.5 746.0Q503 757 486 764Q485 767 482.5 771.0Q480 775 478 776L498 800Q509 813 501 819Q497 822 490 813Q489 812 485.5 806.5Q482 801 472 781Q468 786 463.0 787.0Q458 788 456 788L458 830Q458 846 449 846Q442 846 442 835Q442 833 444.0 825.5Q446 818 450 791Q446 791 440 787L396 805Q381 812 377 801Q376 794 387.0 789.5Q398 785 404 784L434 776Q433 773 432.0 767.0Q431 761 432 759Q410 752 403.5 750.5Q397 749 395 747Q385 742 389 736Q393 727 407 736L435 752Q437 751 441.0 747.5Q445 744 449 743L439 722Q438 718 436.5 714.5Q435 711 434 709Q432 699 438 698Q445 695 449 710L456 740Q463 740 469.0 742.5Q475 745 479 747L541 686L539 675ZM981 555Q980 558 979.0 563.0Q978 568 973 577Q967 591 955.5 607.5Q944 624 936 635L946 648Q958 643 978.5 636.5Q999 630 1018.5 625.5Q1038 621 1047 621Q1054 626 1070.0 633.5Q1086 641 1102 642Q1109 643 1116.5 637.0Q1124 631 1128 625Q1133 621 1135.0 618.5Q1137 616 1141 616Q1148 616 1148 622Q1148 630 1137 641L1120 659Q1129 664 1131 670L1170 656Q1173 655 1175.5 654.5Q1178 654 1180 654Q1190 654 1190 660Q1190 666 1184 667Q1181 668 1173.0 670.0Q1165 672 1137 676Q1138 678 1137.5 681.0Q1137 684 1137 686L1168 722Q1170 726 1172.0 728.0Q1174 730 1174 734Q1174 743 1167 743Q1162 743 1156.5 737.0Q1151 731 1145 722L1127 696Q1122 703 1111 703Q1112 724 1112.5 730.0Q1113 736 1113 738Q1113 752 1105 752Q1099 752 1099 741Q1099 740 1100.0 734.5Q1101 729 1105 703Q1099 701 1090 692L1075 709Q1062 722 1056 721Q1051 721 1051 715Q1051 710 1062 704L1086 687Q1085 683 1084.5 679.5Q1084 676 1084 673Q1084 666 1085 662Q1054 669 1019.5 677.0Q985 685 954.5 691.5Q924 698 903.0 702.5Q882 707 877 707Q868 707 863.5 698.0Q859 689 858.0 678.0Q857 667 857 661Q857 638 870.0 614.5Q883 591 892 581Q916 575 938.5 569.0Q961 563 981 555ZM1427 -287 1430 -285Q1416 -254 1396.5 -203.0Q1377 -152 1366 -92Q1361 -64 1352.5 -21.0Q1344 22 1333.0 71.5Q1322 121 1309.0 168.0Q1296 215 1281 251Q1266 288 1238.5 333.0Q1211 378 1165.5 422.5Q1120 467 1051.5 503.5Q983 540 887.0 562.5Q791 585 661 585Q625 585 581.0 580.0Q537 575 493.5 568.5Q450 562 413 555Q387 551 360.5 546.5Q334 542 324 542Q311 542 296.5 546.0Q282 550 267 554Q251 559 234.5 562.5Q218 566 200 566Q184 566 161.5 563.5Q139 561 117.5 555.0Q96 549 82.0 537.5Q68 526 68 507Q68 488 88.5 472.5Q109 457 138.5 447.0Q168 437 198.5 431.5Q229 426 248 426Q269 426 286.0 429.0Q303 432 316 435Q326 437 336.0 438.5Q346 440 356 440Q381 440 404.0 437.5Q427 435 458 428Q473 425 501.5 420.0Q530 415 564.0 410.5Q598 406 630.0 403.0Q662 400 684 400Q733 400 768.5 406.0Q804 412 833 419Q856 424 877.0 428.0Q898 432 917 432Q950 432 989.5 415.0Q1029 398 1068.0 370.5Q1107 343 1139.0 312.5Q1171 282 1190 255Q1233 194 1252.5 134.5Q1272 75 1287 15Q1293 -10 1299.0 -36.0Q1305 -62 1315 -89Q1330 -128 1350.5 -167.0Q1371 -206 1392.0 -237.5Q1413 -269 1427 -287ZM122 522Q118 523 112.5 524.0Q107 525 101 524Q98 523 97.0 524.5Q96 526 99 528Q107 536 116 541Q149 547 184 547Q218 547 243 542L255 535Q257 534 257.0 532.0Q257 530 252 528Q248 527 245.5 526.0Q243 525 239 524Q229 526 215.0 527.0Q201 528 184 528Q152 528 122 522ZM1285 128Q1281 133 1276.5 140.0Q1272 147 1270 152Q1241 238 1195.0 297.0Q1149 356 1092.5 393.5Q1036 431 976.5 452.0Q917 473 861.0 482.5Q805 492 759.0 494.0Q713 496 684 497Q677 498 670.0 498.0Q663 498 656 498Q610 498 565.0 493.5Q520 489 485 485Q459 481 435.0 479.0Q411 477 391 477Q372 477 342.0 479.5Q312 482 289 486Q284 487 276.0 489.5Q268 492 262 496Q259 498 259.0 500.5Q259 503 263 503Q269 503 274.0 503.5Q279 504 293 506Q308 503 335.5 500.0Q363 497 391 497Q411 497 433.5 499.0Q456 501 483 504Q519 509 562.0 513.0Q605 517 656 517H685Q717 516 765.5 513.0Q814 510 872.0 499.5Q930 489 990.5 467.0Q1051 445 1108.5 406.0Q1166 367 1212.5 306.5Q1259 246 1288 159Q1291 151 1291.5 144.0Q1292 137 1292 130Q1292 126 1289.5 125.5Q1287 125 1285 128ZM218 452Q185 452 157.0 459.0Q129 466 111 473Q106 478 103.5 482.0Q101 486 99 489Q98 491 99.0 492.5Q100 494 102 493Q106 492 111.5 490.5Q117 489 121 490Q138 483 163.0 477.5Q188 472 218 472Q229 469 236.0 468.5Q243 468 249 469Q252 469 253.0 466.0Q254 463 251 461Q245 459 236.0 455.5Q227 452 218 452ZM1025 163Q1032 163 1032 172Q1032 176 1030 182L1013 227Q1014 229 1015.5 231.0Q1017 233 1017 236Q1045 231 1053.5 229.5Q1062 228 1064 228Q1072 228 1073 233Q1073 238 1068.0 240.5Q1063 243 1056 243H1014Q1014 251 1007 258L1029 269Q1037 273 1042.0 276.5Q1047 280 1047 284Q1047 291 1038 291Q1032 291 1027 287L1006 270Q1001 277 994 279Q977 297 942.0 302.0Q907 307 878 307H854Q875 323 898.5 342.0Q922 361 940.0 378.5Q958 396 961 405Q949 409 938.5 411.0Q928 413 917 413Q913 413 908.5 412.5Q904 412 899 412Q889 406 871.5 394.0Q854 382 835.5 368.0Q817 354 804.5 341.0Q792 328 792 321Q792 308 810.5 299.0Q829 290 858.0 283.5Q887 277 918.0 273.5Q949 270 974 267Q971 262 968.5 256.0Q966 250 966 244L937 237Q932 236 927.5 233.5Q923 231 923 227Q923 221 929 221Q936 221 948 227L968 236Q972 227 979 222L961 194Q958 187 958 182Q958 175 964 175Q968 175 971.0 182.0Q974 189 976 195L984 219H989Q992 219 996.0 219.0Q1000 219 1001 220L1009 190Q1013 179 1016.0 171.0Q1019 163 1025 163ZM372 229Q377 229 379.0 234.0Q381 239 380 246L378 278Q381 278 385.5 279.0Q390 280 393 282Q416 276 447.5 270.0Q479 264 494 264Q526 264 544.0 270.0Q562 276 562 294Q562 307 554.0 326.5Q546 346 535.5 364.0Q525 382 517 390Q507 396 477.5 402.0Q448 408 425 412L502 313L498 304L397 300Q394 312 384 320L396 347Q399 352 399.5 357.5Q400 363 395 364Q390 366 385 357Q384 355 383.0 351.5Q382 348 381 344L377 322Q373 324 367.0 323.5Q361 323 359 323L348 353Q341 368 333 364Q327 362 331 351Q333 349 334.5 346.0Q336 343 339 340L354 319Q352 318 348.5 313.0Q345 308 344 305L316 317Q312 319 305.5 320.5Q299 322 297 323Q287 326 284 319Q281 310 296 305L342 292Q343 291 344.5 288.0Q346 285 348 283L324 262Q322 260 319.0 257.5Q316 255 314 253Q309 244 313 240Q319 234 330 248L355 282Q358 277 371 277L367 254Q366 250 365.5 246.5Q365 243 365 241Q365 229 372 229Z" />
  </g>
</svg>