<svg xmlns="http://www.w3.org/2000/svg" viewBox="49 -304 1394.111111111111 1064">
  <g transform="translate(0, 456) scale(1, -1)">
    <path fill="black" d="M534 -304 520 -284Q516 -283 508.5 -281.0Q501 -279 493 -274Q483 -267 474.5 -257.5Q466 -248 464 -246L454 -242L453 -256L430 -261L405 -225L403 -236L377 -237L353 -178L344 -191L329 -190L317 -146H294L288 -79L280 -89L265 -87Q264 -75 263.0 -56.0Q262 -37 262 -22Q262 16 278.5 48.0Q295 80 338 87Q331 102 328 118Q302 124 282 135Q276 131 256.5 122.5Q237 114 208 114Q192 114 167.5 119.0Q143 124 117.5 135.5Q92 147 73.0 164.0Q54 181 49 204Q54 227 72.0 244.5Q90 262 113.5 275.0Q137 288 160.0 295.0Q183 302 199 303Q228 305 248.5 298.5Q269 292 275 289Q285 294 295.5 299.5Q306 305 319 309Q321 326 328 342Q290 347 271.0 374.5Q252 402 247 437Q244 452 242.0 471.0Q240 490 239 502L254 506L263 497L259 564L281 569L286 614L301 617L312 605L327 667L353 671L356 659L375 700L399 698L402 684L411 690Q413 693 420.0 704.0Q427 715 435 722Q442 729 449.0 732.0Q456 735 460 736L471 758L490 760L495 733L521 756L540 746L528 718L559 735L570 720L549 695L578 701L582 681L518 648Q486 590 466.0 546.0Q446 502 438 472Q447 479 464.0 490.5Q481 502 498.0 512.0Q515 522 522 522Q530 523 534.5 522.0Q539 521 542 519Q556 530 576.5 541.5Q597 553 610 554Q618 555 624.0 553.0Q630 551 634 548L638 553Q642 558 658.0 562.5Q674 567 692.0 571.0Q710 575 721 576Q732 577 738.0 575.0Q744 573 748 571Q757 578 773.0 581.5Q789 585 814 587Q828 589 838.5 585.0Q849 581 855 576Q863 582 875.0 585.5Q887 589 897 590Q920 592 935.5 587.5Q951 583 959 578Q964 583 973.5 588.0Q983 593 996 594Q1008 596 1019 594Q1027 603 1045.5 621.0Q1064 639 1089 653Q1108 664 1132.5 674.5Q1157 685 1178.5 694.0Q1200 703 1211 707L1278 757L1293 744L1289 734L1290 732L1305 738L1314 717L1307 712L1308 710L1316 711L1318 693L1305 682V680L1316 679L1318 661L1309 659V657L1318 654Q1318 650 1317.0 642.5Q1316 635 1313 624Q1306 598 1277.0 579.0Q1248 560 1223 549Q1237 540 1249.0 529.0Q1261 518 1271 507Q1296 500 1318.0 482.5Q1340 465 1357.0 445.0Q1374 425 1383 410Q1395 392 1408.5 362.0Q1422 332 1432.5 304.5Q1443 277 1443 263Q1444 250 1436.0 221.5Q1428 193 1417.5 162.5Q1407 132 1397 112Q1389 96 1373.5 74.5Q1358 53 1338.0 33.5Q1318 14 1294 5Q1286 -5 1275.0 -16.0Q1264 -27 1252 -38Q1269 -43 1291.0 -52.5Q1313 -62 1332.5 -75.5Q1352 -89 1358 -108Q1366 -130 1366 -138L1357 -141V-144L1367 -145V-163L1355 -165V-167L1370 -177L1369 -195H1360V-197L1368 -201L1360 -223L1344 -218L1343 -220L1349 -230L1335 -244L1264 -199Q1253 -196 1230.5 -189.0Q1208 -182 1183.0 -173.5Q1158 -165 1138 -156Q1109 -142 1088.0 -124.5Q1067 -107 1061 -100Q1046 -105 1027 -105Q1013 -105 1003.5 -101.5Q994 -98 989 -93Q982 -98 966.5 -104.0Q951 -110 928 -110Q918 -110 905.5 -107.5Q893 -105 885 -100Q879 -104 869.5 -109.5Q860 -115 846 -115Q821 -115 804.5 -113.0Q788 -111 777 -104Q774 -107 768.0 -109.5Q762 -112 751 -112Q740 -112 722.0 -109.5Q704 -107 688.0 -103.5Q672 -100 667 -96L663 -92Q659 -95 653.5 -97.5Q648 -100 640 -100Q627 -100 605.0 -90.0Q583 -80 569 -70Q566 -72 561.5 -74.0Q557 -76 549 -76Q542 -76 523.5 -67.0Q505 -58 486.5 -47.5Q468 -37 459 -32Q473 -60 498.5 -99.0Q524 -138 563 -188L631 -211V-231L601 -229L626 -250L617 -268L584 -256L601 -281L583 -294L554 -275L553 -303ZM507 660Q515 664 529.0 670.5Q543 677 553 681V683L529 678L523 692L541 706L540 708L520 699L507 706L520 730L517 731L502 709L485 710L481 739L479 740L476 722Q471 722 463.5 720.5Q456 719 451 715Q441 706 432 692Q452 688 473.0 678.0Q494 668 507 660ZM1282 610Q1286 615 1289.5 620.0Q1293 625 1294 630Q1296 637 1296.5 640.0Q1297 643 1298 645H1290L1288 663L1297 668L1296 670H1286L1284 685L1297 694L1296 696L1284 694L1276 711L1289 719L1288 721L1279 717L1270 725L1274 735L1273 737L1228 700Q1244 681 1259.5 657.0Q1275 633 1282 610ZM1155 560Q1162 564 1175 566Q1180 567 1186.0 565.5Q1192 564 1199 562Q1223 570 1243.0 581.0Q1263 592 1266 596Q1261 619 1244.5 644.0Q1228 669 1212 687Q1188 678 1154.0 663.5Q1120 649 1099 636Q1079 625 1063.5 612.0Q1048 599 1040 589L1048 585Q1051 587 1055.5 588.0Q1060 589 1065 590Q1078 591 1106.0 582.0Q1134 573 1155 560ZM335 360Q352 393 366 410Q374 421 387.5 433.5Q401 446 414 456Q420 486 440.5 536.0Q461 586 494 646Q482 654 462.0 663.5Q442 673 423 676L401 662H390V677L386 676L353 615L345 616L343 642H340L321 564L308 565L305 578H302L298 520H286L282 542H279L287 455L277 453L264 475H262Q263 468 264.0 457.0Q265 446 266 440Q267 436 268.0 431.0Q269 426 270 421Q273 411 280.5 396.5Q288 382 301.0 371.5Q314 361 335 360ZM1035 523Q1034 531 1033.0 541.5Q1032 552 1033 555Q1033 563 1036 569Q1031 571 1021.5 573.5Q1012 576 998 575Q986 574 981.0 571.0Q976 568 975 566Q973 564 975.0 549.0Q977 534 978 528Q995 528 1008.5 526.5Q1022 525 1035 523ZM897 521Q905 522 917.0 523.5Q929 525 941 526Q945 527 949.5 527.0Q954 527 958 527Q957 532 957.0 539.0Q957 546 955 558Q950 562 936.0 567.5Q922 573 899 571Q888 570 876.0 567.0Q864 564 864 560Q866 550 872.0 540.0Q878 530 879 528Q884 527 888.5 525.0Q893 523 897 521ZM1127 499Q1129 507 1131.0 515.5Q1133 524 1134 528Q1136 536 1142 545Q1122 556 1099.5 564.0Q1077 572 1066 570Q1059 569 1056.0 564.0Q1053 559 1053 553Q1053 549 1053.5 536.0Q1054 523 1055 518Q1068 514 1078.5 509.5Q1089 505 1097 500Q1100 501 1102.5 501.5Q1105 502 1109 502Q1117 502 1127 499ZM766 528Q786 533 809.5 534.0Q833 535 854 533Q846 546 845 558V559Q843 561 836.0 565.0Q829 569 816 568Q790 566 776.0 563.5Q762 561 758 555Q758 546 761.0 539.0Q764 532 766 528ZM671 505Q687 512 707.0 517.0Q727 522 747 526Q741 536 738 553Q737 554 733.5 556.0Q730 558 722 557Q712 556 696.5 553.0Q681 550 668.0 546.5Q655 543 652 540Q648 536 649 532Q649 524 658.0 517.0Q667 510 671 505ZM1217 447 1255 498Q1238 515 1215.0 532.0Q1192 549 1176 547Q1166 546 1160.5 537.5Q1155 529 1153 523Q1146 507 1146 491Q1160 484 1177.5 473.5Q1195 463 1217 447ZM581 479Q598 486 614.5 491.5Q631 497 647 501Q642 506 637.0 512.0Q632 518 628 526Q627 529 623.0 532.0Q619 535 612 534Q600 533 580.5 524.5Q561 516 554 508ZM782 348Q790 353 813.0 365.0Q836 377 876 381Q876 407 877.5 440.5Q879 474 885 505Q865 513 840.0 513.5Q815 514 783 511Q755 508 727.5 502.5Q700 497 681 489Q681 485 684.5 464.0Q688 443 691 425Q693 410 696.5 387.5Q700 365 703 350Q723 352 746.0 350.5Q769 349 782 348ZM976 361Q985 364 1014.0 373.5Q1043 383 1070 386Q1071 395 1072.5 414.0Q1074 433 1075.5 450.0Q1077 467 1077 471Q1078 476 1078.5 479.5Q1079 483 1081 487Q1064 495 1037.0 501.5Q1010 508 979 509Q970 508 960.5 508.0Q951 508 942 506Q929 505 920.0 504.0Q911 503 905 503Q900 476 898.0 442.5Q896 409 896 383Q922 382 942.5 375.5Q963 369 976 361ZM500 430Q526 453 563 470L532 502Q531 503 524 503Q519 502 506.5 495.0Q494 488 480.5 479.0Q467 470 458 463Q463 459 468.5 453.0Q474 447 478 444Q484 439 490.0 435.5Q496 432 500 430ZM1281 351 1363 406Q1351 427 1324.5 452.5Q1298 478 1271 487L1230 434Q1246 418 1254.5 402.0Q1263 386 1270 367Q1272 363 1275.5 359.0Q1279 355 1281 351ZM577 303Q596 313 627.0 327.0Q658 341 684 347Q681 360 678.0 376.5Q675 393 673.5 406.5Q672 420 671 422Q669 433 666.5 451.5Q664 470 662 483Q630 478 593.5 463.5Q557 449 527.5 428.0Q498 407 485 380Q479 367 476.0 348.0Q473 329 473 316Q481 319 490 319Q507 321 534.5 314.5Q562 308 577 303ZM1154 366Q1166 369 1183.0 371.5Q1200 374 1216 375Q1224 376 1231.5 376.5Q1239 377 1246 376Q1238 393 1225.5 409.0Q1213 425 1193 440Q1171 456 1144.5 470.0Q1118 484 1110 483Q1102 482 1100.0 478.0Q1098 474 1097 469Q1096 465 1094.5 449.0Q1093 433 1092.0 414.5Q1091 396 1090 386Q1108 384 1126.0 377.5Q1144 371 1154 366ZM355 357Q385 375 420.5 386.0Q456 397 475 401L485 415Q481 418 475.5 421.5Q470 425 465 429Q452 439 443 452Q428 444 410.0 427.5Q392 411 381 397Q376 392 368.5 381.5Q361 371 355 357ZM1385 132Q1394 149 1403.0 175.5Q1412 202 1418.0 226.5Q1424 251 1423 263Q1423 275 1415.0 298.5Q1407 322 1396.0 348.0Q1385 374 1374 390L1290 332Q1299 305 1301 285Q1302 275 1302.0 267.5Q1302 260 1302 256Q1302 252 1302.5 245.5Q1303 239 1303 229Q1303 219 1301.5 207.0Q1300 195 1296 181ZM373 237 378 240 412 243 413 249Q414 257 422.5 276.0Q431 295 453 307Q453 317 455.5 338.5Q458 360 463 378Q443 373 414.5 363.5Q386 354 363 339Q355 335 349.5 326.0Q344 317 342 310ZM1091 128Q1103 129 1121.0 136.5Q1139 144 1152 151L1144 251Q1144 254 1144.0 274.0Q1144 294 1143.5 316.5Q1143 339 1143 349Q1130 355 1111.5 361.5Q1093 368 1080 367Q1059 366 1035.5 359.5Q1012 353 997 348L1004 245L1006 140Q1022 136 1046.0 131.5Q1070 127 1091 128ZM899 116Q923 116 948.0 127.0Q973 138 986 148Q986 158 986.0 179.5Q986 201 985.5 221.0Q985 241 985 244Q983 267 981.0 297.0Q979 327 978 338Q963 347 937.5 355.5Q912 364 888 362Q847 359 825.0 349.0Q803 339 796 334Q798 324 800.5 311.5Q803 299 804 287Q805 278 804.0 259.5Q803 241 802 236Q803 234 804.5 223.5Q806 213 807.5 201.5Q809 190 809 184Q809 172 808.0 159.0Q807 146 805 136Q812 132 835.5 124.0Q859 116 899 116ZM1227 151Q1248 151 1263 154Q1276 171 1280.0 192.0Q1284 213 1284 229Q1284 238 1283.0 245.5Q1282 253 1282 257Q1282 261 1282.0 268.0Q1282 275 1281 283Q1280 300 1273.5 320.5Q1267 341 1253 357Q1246 358 1237.5 357.5Q1229 357 1218 356Q1188 353 1162 348L1163 251L1171 155Q1183 154 1198.0 152.5Q1213 151 1227 151ZM711 131Q725 131 747.5 134.0Q770 137 786 140Q787 147 788.5 159.0Q790 171 790 184Q790 190 787.5 208.5Q785 227 783 235Q784 241 785.0 259.5Q786 278 785 285Q784 297 781.5 309.5Q779 322 777 329Q761 331 738.5 331.5Q716 332 702 330Q687 329 665.0 321.5Q643 314 622.5 304.0Q602 294 588 287L584 227L593 164Q608 158 629.5 150.5Q651 143 673.5 137.0Q696 131 711 131ZM499 143Q510 143 533.5 150.0Q557 157 574 164Q572 179 569.0 194.5Q566 210 565 226L568 285Q550 290 526.5 295.5Q503 301 492 300Q471 298 457.5 287.5Q444 277 438.0 265.5Q432 254 432 249Q432 238 432.5 231.0Q433 224 433 221Q433 206 435 188Q435 183 442.0 172.0Q449 161 463.5 152.0Q478 143 499 143ZM337 132 354 197Q349 206 348 217Q349 220 350.0 224.5Q351 229 353 233L330 296Q311 293 294.5 281.5Q278 270 271 260L277 214L275 163Q283 153 300.5 143.5Q318 134 337 132ZM253 270Q257 272 258 275Q250 278 235.0 282.0Q220 286 201 284Q196 283 189.5 282.5Q183 282 175 280Q200 278 220.0 275.0Q240 272 253 270ZM119 233Q132 245 150.0 250.5Q168 256 183 257Q196 259 212.0 258.5Q228 258 241 258Q225 262 200.5 265.0Q176 268 146 271Q118 260 97 245ZM188 177Q203 177 224.5 179.5Q246 182 256 183L259 210L254 238Q244 239 222.0 239.0Q200 239 185 238Q174 237 159.5 234.0Q145 231 134.5 224.5Q124 218 123 206Q123 194 134.5 187.5Q146 181 161.5 179.0Q177 177 188 177ZM84 176 108 190Q104 198 104 207Q104 212 107 218L82 230Q71 217 68 203Q71 189 84 176ZM385 211H413V224L385 221L367 218L366 216L367 215ZM478 63Q471 80 466.5 101.5Q462 123 460 132Q438 143 427.5 160.5Q417 178 415 187L414 192H380L375 195L350 120Q353 113 359.5 105.0Q366 97 375 92Q399 81 427.5 73.5Q456 66 478 63ZM151 142Q212 151 246 162Q233 161 217.0 159.5Q201 158 188 158Q172 158 154.0 162.0Q136 166 122 176L100 163Q122 149 151 142ZM1292 25Q1318 37 1342.0 64.5Q1366 92 1376 114L1289 162Q1288 158 1285.0 153.5Q1282 149 1280 145Q1275 126 1268.0 109.0Q1261 92 1247 75ZM208 133Q227 133 241.5 138.0Q256 143 264 147Q263 149 261.5 150.0Q260 151 258 152Q233 143 182 135Q189 134 196.0 133.5Q203 133 208 133ZM685 -25Q686 -11 686.5 7.0Q687 25 688 37Q689 40 689.5 53.0Q690 66 691.5 83.0Q693 100 694 113Q668 117 635.5 128.0Q603 139 584 147Q569 142 542.5 133.0Q516 124 499 124Q495 124 490.5 124.0Q486 124 481 125Q483 113 487.5 94.0Q492 75 500 62Q515 37 546.5 18.5Q578 0 615.5 -11.0Q653 -22 685 -25ZM1132 16Q1140 16 1165.0 32.0Q1190 48 1210 65Q1229 82 1239.5 99.0Q1250 116 1256 133Q1249 132 1242.0 132.0Q1235 132 1227 132Q1211 132 1194.0 133.0Q1177 134 1165 136Q1155 130 1137.5 122.0Q1120 114 1103 110Q1105 100 1107.5 82.0Q1110 64 1113.0 48.0Q1116 32 1117 28Q1118 23 1120.5 19.5Q1123 16 1132 16ZM966 -23Q975 -23 984.5 -23.0Q994 -23 1003 -22Q1033 -19 1059.5 -10.0Q1086 -1 1102 9Q1099 16 1097 24Q1096 28 1093.0 45.0Q1090 62 1087.5 81.0Q1085 100 1083 109Q1055 109 1025.5 116.0Q996 123 987 125Q974 116 954.0 107.5Q934 99 909 97Q911 71 916.0 37.5Q921 4 928 -22Q934 -23 943.5 -23.0Q953 -23 966 -23ZM808 -42Q840 -42 865.0 -39.5Q890 -37 909 -27Q901 4 896.5 37.5Q892 71 890 96Q849 98 824.5 107.5Q800 117 792 121Q779 119 756.0 115.5Q733 112 713 112Q712 96 710.5 73.5Q709 51 708 36Q707 17 705.5 -3.5Q704 -24 705 -29Q723 -35 751.5 -38.0Q780 -41 808 -42ZM464 -13Q468 -6 473.5 0.5Q479 7 484 12Q489 17 493.5 20.5Q498 24 502 27Q500 31 497.0 34.0Q494 37 491 41Q472 43 436.0 50.5Q400 58 368 73Q376 61 384.0 51.0Q392 41 397 36Q409 23 428.5 9.0Q448 -5 464 -13ZM437 -237 441 -236 438 -222 450 -220 474 -230Q492 -225 510.5 -212.5Q529 -200 540 -190Q498 -136 470.0 -90.0Q442 -44 431 -15Q418 -7 405.0 3.0Q392 13 383 22Q377 29 367.0 41.5Q357 54 348 69Q323 68 309.5 55.0Q296 42 290.5 25.5Q285 9 283 -3Q282 -7 282.0 -12.0Q282 -17 282 -22Q282 -28 282.5 -38.5Q283 -49 283 -57L286 -56L294 -33H305L311 -121H313L314 -97L326 -96L339 -152H342L343 -139L355 -136L387 -209H389L388 -184L395 -181ZM1203 -42Q1218 -42 1239.5 -23.0Q1261 -4 1276 14L1234 61L1223 51Q1196 29 1167 11Q1169 5 1171.5 -4.5Q1174 -14 1177 -21Q1179 -26 1186.0 -34.0Q1193 -42 1203 -42ZM549 -56Q557 -56 561 -52L584 -21Q566 -13 549.5 -4.5Q533 4 519 15Q515 12 509.0 8.0Q503 4 498 -1Q494 -5 489.0 -11.0Q484 -17 480 -22Q490 -27 504.0 -35.5Q518 -44 531.0 -50.0Q544 -56 549 -56ZM1095 -76Q1106 -76 1128.0 -66.0Q1150 -56 1168 -43Q1165 -39 1162.5 -35.0Q1160 -31 1159 -27Q1158 -23 1155.0 -14.5Q1152 -6 1150 1Q1137 -4 1132 -4Q1128 -4 1125.0 -3.5Q1122 -3 1120 -3Q1112 -8 1102.0 -13.5Q1092 -19 1079 -24Q1079 -30 1079.5 -42.5Q1080 -55 1080 -59Q1080 -65 1084.0 -70.5Q1088 -76 1095 -76ZM640 -80Q647 -80 650.5 -76.5Q654 -73 655 -70Q657 -66 658.5 -62.5Q660 -59 663 -55Q666 -49 672 -43Q656 -41 638.5 -37.0Q621 -33 604 -27L580 -59Q587 -66 607.5 -73.0Q628 -80 640 -80ZM1027 -86Q1041 -86 1050.5 -83.0Q1060 -80 1064 -78Q1063 -75 1062.5 -71.0Q1062 -67 1061 -63Q1060 -60 1060.0 -49.5Q1060 -39 1060 -31Q1047 -35 1033.5 -37.5Q1020 -40 1003 -42Q1002 -49 1001.5 -61.5Q1001 -74 1003 -80Q1005 -86 1027 -86ZM928 -91Q951 -91 965.0 -84.0Q979 -77 983 -73Q983 -61 983.0 -54.0Q983 -47 984 -42Q980 -43 975.5 -43.0Q971 -43 966 -43Q954 -43 942.0 -42.5Q930 -42 922 -42Q918 -44 914.0 -46.0Q910 -48 905 -50Q904 -52 899.0 -62.5Q894 -73 894 -83Q894 -87 906.0 -89.0Q918 -91 928 -91ZM751 -92Q767 -92 767 -88Q768 -80 770.0 -72.5Q772 -65 773 -60Q753 -58 733.0 -54.5Q713 -51 696 -45Q695 -47 689.0 -53.5Q683 -60 679 -66Q676 -70 676 -74Q676 -79 680 -82Q683 -84 696.5 -86.5Q710 -89 725.5 -90.5Q741 -92 751 -92ZM1264 -180Q1278 -160 1292.0 -134.0Q1306 -108 1310 -84Q1306 -80 1281.5 -69.5Q1257 -59 1229 -53Q1216 -62 1203 -62Q1191 -62 1183 -57Q1163 -71 1136.0 -83.0Q1109 -95 1095 -95Q1087 -95 1081 -93Q1089 -101 1106.0 -114.5Q1123 -128 1146 -139Q1169 -149 1204.0 -161.0Q1239 -173 1264 -180ZM846 -95Q858 -95 865.0 -90.0Q872 -85 874 -83Q874 -76 876.0 -69.0Q878 -62 880 -57Q864 -60 846.0 -60.5Q828 -61 808 -61H793Q792 -64 789.0 -71.5Q786 -79 787 -87Q791 -93 805.5 -94.0Q820 -95 846 -95ZM1329 -224 1330 -223 1324 -213 1333 -204 1342 -207 1343 -205 1330 -198 1335 -181H1348V-179L1335 -172V-157L1346 -155V-153L1337 -149L1338 -131L1345 -130Q1345 -127 1340 -116Q1336 -105 1327 -97Q1321 -119 1307.5 -145.0Q1294 -171 1280 -191ZM539 -285 542 -284 541 -255 557 -251 576 -271 578 -269 562 -247 573 -238 594 -244 595 -242 576 -231 579 -216 603 -217V-215Q592 -213 577.5 -209.0Q563 -205 555 -202Q542 -212 523.5 -225.0Q505 -238 485 -246Q490 -250 496.0 -255.5Q502 -261 507 -264Q513 -267 521.0 -267.5Q529 -268 533 -267Z" />
  </g>
</svg>