<svg xmlns="http://www.w3.org/2000/svg" viewBox="48.76923076923077 -19 1505.2307692307693 426">
  <g transform="translate(0, 388) scale(1, -1)">
    <path fill="black" d="M780 -19 776 -3 787 6 748 2 746 19 778 32H744V47L765 54L744 52V56Q725 53 700.0 53.0Q675 53 665 54Q640 56 605.0 64.0Q570 72 534 83Q533 78 532.5 73.5Q532 69 532 64Q537 42 539.0 33.0Q541 24 541 19Q541 9 537.0 1.0Q533 -7 524 -7Q507 -7 487.5 -3.0Q468 1 447 1Q433 1 399.5 -3.5Q366 -8 340 -13L337 3L348 12L308 8L307 25L338 33L304 36V51L336 57L310 63L311 79L422 85Q421 93 420.5 102.0Q420 111 421 120Q366 149 317.5 175.0Q269 201 216 227Q194 238 166.0 251.5Q138 265 112.0 277.5Q86 290 71 296Q54 304 50.0 323.0Q46 342 55 358L52 360Q59 375 75.5 391.0Q92 407 101 407Q109 407 126.0 401.0Q143 395 162 389L195 377Q229 371 267.5 378.0Q306 385 351 380Q370 379 388.5 368.0Q407 357 429.5 342.5Q452 328 483.0 313.0Q514 298 559 289Q601 280 641.0 277.0Q681 274 714 274Q740 274 765.5 275.5Q791 277 816 275Q846 273 895.0 258.5Q944 244 1000.5 223.5Q1057 203 1110.5 182.0Q1164 161 1204.5 145.0Q1245 129 1260 124Q1285 116 1331.0 103.0Q1377 90 1435.5 75.0Q1494 60 1554 47L1544 1Q1435 16 1340.0 28.0Q1245 40 1155.0 49.0Q1065 58 972 63Q972 62 971.5 60.5Q971 59 971 58Q976 35 978.0 26.0Q980 17 980 12Q980 2 976.0 -6.0Q972 -14 964 -14Q947 -14 927.0 -9.5Q907 -5 887 -5Q874 -5 853.0 -7.5Q832 -10 812.0 -13.5Q792 -17 780 -19ZM950 5Q960 5 960 16Q960 18 958.0 27.5Q956 37 954.5 46.5Q953 56 952 58Q953 87 962.0 109.5Q971 132 985 148L1002 141Q987 125 981.0 110.0Q975 95 973 82Q1070 77 1155.5 68.5Q1241 60 1330.5 48.0Q1420 36 1528 20L1531 36Q1486 46 1435.0 58.0Q1384 70 1337.0 82.0Q1290 94 1254 105Q1238 110 1197.5 126.5Q1157 143 1103.5 164.0Q1050 185 994.0 205.5Q938 226 890.0 240.0Q842 254 814 256Q792 258 767.5 256.5Q743 255 714 255Q679 255 638.5 258.0Q598 261 555 270Q509 279 477.0 293.5Q445 308 422.5 323.0Q400 338 383.0 348.5Q366 359 349 361Q309 366 268.5 359.0Q228 352 190 357L155 370Q137 376 121.5 382.0Q106 388 101 388Q95 388 86.0 379.0Q77 370 73 361L83 354L93 336L109 341L121 323L144 329L160 307Q166 309 174.0 311.0Q182 313 187 314L198 292Q204 292 211.5 294.5Q219 297 224 297L234 276L251 277L337 229L333 223L249 259L225 257L213 279Q207 279 199.5 277.0Q192 275 187 275L177 293Q171 292 165.0 290.5Q159 289 154 287L136 311L111 306L102 321L84 316L72 338H69Q68 332 70.0 324.5Q72 317 79 314Q105 302 135.0 287.5Q165 273 189.5 261.5Q214 250 222 246Q269 222 324.5 193.5Q380 165 423 142Q424 150 426.0 159.0Q428 168 431 178L449 173Q440 140 440 110Q440 100 441.0 90.5Q442 81 445 64L356 61L362 54L350 47L364 41L354 28H369L370 12Q388 15 411.0 18.0Q434 21 447 21Q452 21 472.5 18.0Q493 15 510 12Q521 12 521 22Q521 24 519.0 33.5Q517 43 515.0 52.5Q513 62 512 64Q514 84 519.5 109.0Q525 134 539 165L556 157Q549 141 544.5 127.5Q540 114 537 101Q572 91 607.5 83.0Q643 75 665 73Q685 73 710.0 74.0Q735 75 743 76V79Q757 81 773.5 83.0Q790 85 813 85Q822 85 837.0 84.5Q852 84 862 83Q860 94 861 104Q862 120 869.5 139.5Q877 159 889 172L902 160Q892 147 886.5 134.0Q881 121 880 104Q879 94 880.0 88.0Q881 82 884 65Q869 67 849.5 68.0Q830 69 821 69Q795 69 781 63L800 57L789 45L803 39L793 22H809V6Q827 8 850.5 11.5Q874 15 887 15Q892 15 912.5 11.5Q933 8 950 5ZM100 352 85 362Q90 370 96.5 372.5Q103 375 109 375Q117 375 123.0 372.0Q129 369 133 366L120 353Q119 355 116.0 356.5Q113 358 109 358Q105 358 100 352ZM345 294Q344 296 343.5 299.5Q343 303 342 305Q338 298 326 298Q315 298 310.0 305.0Q305 312 305 321L301 317L287 328Q291 333 299.0 337.5Q307 342 318 342Q336 342 344.0 332.0Q352 322 353.5 310.5Q355 299 355 294ZM325 314Q331 314 332 318Q328 325 317 325Q317 314 325 314Z" />
  </g>
</svg>