<svg xmlns="http://www.w3.org/2000/svg" viewBox="49 -1 1439 309">
  <g transform="translate(0, 307) scale(1, -1)">
    <path fill="black" d="M331 -1Q302 -1 274.5 1.5Q247 4 229.0 13.5Q211 23 211 44Q211 64 226.5 73.0Q242 82 263.0 84.0Q284 86 300 86H408Q403 91 382.0 106.0Q361 121 324.5 135.0Q288 149 236 149H178Q158 149 138 146Q128 145 116.5 144.0Q105 143 97 144Q75 145 66.0 153.0Q57 161 57 171Q57 180 61 188Q49 198 49 217V234Q49 250 62.0 261.0Q75 272 92 272H159Q178 272 196.0 277.5Q214 283 233 290Q252 296 272.0 302.0Q292 308 313 308Q336 308 362.0 302.5Q388 297 414 291Q432 287 458.0 282.5Q484 278 544 273Q576 271 615.5 268.5Q655 266 693.0 263.0Q731 260 760.5 257.0Q790 254 802 250Q877 228 965.0 194.5Q1053 161 1144.5 127.5Q1236 94 1324.0 70.0Q1412 46 1488 42V-1H856Q804 -1 752.5 5.0Q701 11 646 11Q594 11 549.5 5.0Q505 -1 458 -1ZM412 107Q416 143 429.5 186.5Q443 230 461 261Q449 263 436.0 266.0Q423 269 409 272Q385 278 359.5 283.0Q334 288 313 288Q295 288 276.5 282.5Q258 277 240 271Q221 264 201.0 258.0Q181 252 159 252H92Q82 252 75.0 248.0Q68 244 68 234V217Q68 209 77 200L105 217L118 205L133 214L151 200L173 213L194 203L218 219L237 202L257 216L277 204L341 189V182L272 187L257 195L238 182L218 198L194 183L169 193L152 179L134 194L116 183L104 195L86 185Q79 181 77.5 177.0Q76 173 76 171Q76 164 97 163Q105 163 115.5 164.0Q126 165 136 166Q146 167 157.0 168.0Q168 169 178 169H236Q304 169 347.5 147.0Q391 125 412 107ZM304 234Q289 234 284 250L281 245L265 250Q265 250 268.0 257.0Q271 264 280.0 270.5Q289 277 303 277Q321 277 329.5 262.0Q338 247 340 242L331 238Q327 244 324 247Q320 234 304 234ZM303 250Q310 250 310 256Q310 258 307.0 258.5Q304 259 302 259Q297 259 294 258Q296 250 303 250ZM856 18H1469V25Q1381 33 1295.5 56.5Q1210 80 1126.5 111.0Q1043 142 961.0 174.0Q879 206 796 231Q785 234 756.5 237.5Q728 241 690.5 244.0Q653 247 614.0 249.5Q575 252 543 254L482 258Q468 237 456.5 206.5Q445 176 438.0 144.0Q431 112 430 87V66H299Q289 66 273.0 65.0Q257 64 244.0 59.5Q231 55 231 44Q231 33 247.0 27.5Q263 22 286.5 20.5Q310 19 330 19H458Q505 19 551.0 24.5Q597 30 646 30Q699 30 751.0 24.0Q803 18 856 18ZM98 220 83 229Q88 237 95.0 240.0Q102 243 108 243Q123 243 131 233L119 221Q117 223 114.0 224.5Q111 226 108 226Q103 226 98 220Z" />
  </g>
</svg>