<svg xmlns="http://www.w3.org/2000/svg" viewBox="49 -235 556 1238">
  <g transform="translate(0, 768) scale(1, -1)">
    <path fill="black" d="M415 -235Q413 -223 412.0 -213.5Q411 -204 411 -197Q411 -168 418.0 -137.5Q425 -107 433 -76Q441 -50 447.0 -23.0Q453 4 456 34Q460 74 463.0 119.5Q466 165 466 212Q466 236 465.0 260.5Q464 285 462 310Q450 306 431.5 301.5Q413 297 387 295L201 255L196 273L226 281L219 290L188 285L186 304L208 305L202 315H182V334L275 333Q257 345 241.0 360.5Q225 376 213 395Q199 416 185.5 451.0Q172 486 161.0 525.0Q150 564 143.5 597.5Q137 631 137 650Q137 673 141.0 702.0Q145 731 149 754Q151 769 153.0 781.0Q155 793 155 797Q155 809 144.5 821.0Q134 833 123 844Q115 852 106.0 859.5Q97 867 81 880Q77 883 71.0 890.5Q65 898 63 909Q59 911 54.0 916.5Q49 922 49 932Q49 946 64.5 962.5Q80 979 118.5 991.0Q157 1003 225 1003Q260 1003 283.0 989.0Q306 975 319.0 957.5Q332 940 336 927Q343 908 363.0 873.0Q383 838 409.0 797.0Q435 756 459.5 719.0Q484 682 500 659Q508 647 525.0 616.5Q542 586 560.5 541.0Q579 496 592.0 440.0Q605 384 605 320Q605 250 590.5 172.5Q576 95 552.0 20.0Q528 -55 501.0 -121.0Q474 -187 448 -235ZM432 -217H436Q442 -206 458.5 -170.0Q475 -134 496.5 -80.0Q518 -26 538.0 40.0Q558 106 571.5 178.0Q585 250 585 320Q585 382 572.5 436.5Q560 491 542.5 534.5Q525 578 508.5 607.0Q492 636 484 648Q468 671 443.5 708.5Q419 746 392.5 787.0Q366 828 345.5 864.0Q325 900 317 920Q314 931 303.0 946.0Q292 961 273.0 972.5Q254 984 225 984Q168 984 133.5 974.5Q99 965 83.5 953.5Q68 942 68 935Q68 932 73.5 928.5Q79 925 83 923L139 894L130 876L90 898Q91 897 93.5 895.0Q96 893 105.5 885.5Q115 878 136 858Q150 846 162.5 831.0Q175 816 175 797Q175 790 173.0 778.5Q171 767 168 751Q164 728 160.0 700.0Q156 672 156 650Q156 632 162.0 600.0Q168 568 178.5 530.5Q189 493 202.0 459.5Q215 426 229 405Q261 360 314 334H323Q324 339 319.0 356.0Q314 373 308.0 392.0Q302 411 299 419L336 470L350 457L319 418Q325 400 331.5 378.0Q338 356 343.0 338.5Q348 321 348 315Q335 315 313.0 315.0Q291 315 269.5 315.0Q248 315 234 314L238 308L258 309L259 296L245 294L250 287Q259 290 283.5 294.0Q308 298 335.5 303.0Q363 308 379 313Q380 321 374.0 347.5Q368 374 362 396L380 418L396 407L383 391Q388 375 393.0 352.0Q398 329 400 315Q424 317 446.5 324.0Q469 331 479 337Q483 300 484.5 269.0Q486 238 486 212Q486 164 483.0 117.5Q480 71 476 32Q473 4 466.0 -25.0Q459 -54 452 -81Q444 -111 437.5 -139.5Q431 -168 431 -197Q431 -204 431.5 -208.5Q432 -213 432 -217ZM159 913Q149 913 141.5 920.5Q134 928 134 938Q134 949 141.5 956.0Q149 963 159 963Q170 963 177.0 956.0Q184 949 184 938Q184 928 177.0 920.5Q170 913 159 913ZM159 927Q170 927 170 938Q170 949 159 949Q148 949 148 938Q148 927 159 927Z" />
  </g>
</svg>