<svg xmlns="http://www.w3.org/2000/svg" viewBox="49 -11 1404.5 394">
  <g transform="translate(0, 372) scale(1, -1)">
    <path fill="black" d="M456 -11Q412 -11 385.5 -5.0Q359 1 342.0 14.5Q325 28 308 48L266 99Q259 108 247.5 121.0Q236 134 225 134Q221 134 215.5 133.0Q210 132 205 130Q195 128 183.0 126.0Q171 124 154 124Q114 124 81.5 141.0Q49 158 49 189Q49 212 71.5 236.0Q94 260 132 272L57 345Q47 355 52.0 369.0Q57 383 72 383Q83 383 92 375L187 283L282 375Q291 383 302 383Q317 383 323.0 369.0Q329 355 318 345L242 272Q274 260 295.0 240.5Q316 221 323 211L358 164Q369 151 384.0 137.0Q399 123 420 123Q446 123 480.5 133.0Q515 143 560 158Q583 166 624.0 177.5Q665 189 705 189Q754 189 799.0 173.5Q844 158 889 139Q913 129 959.5 111.0Q1006 93 1069.5 79.0Q1133 65 1208 65Q1254 65 1288.0 66.5Q1322 68 1355.0 71.5Q1388 75 1429 81Q1443 83 1449.0 74.5Q1455 66 1453.0 55.0Q1451 44 1438 38Q1380 10 1320.5 -0.5Q1261 -11 1203 -11Q1145 -11 1080.0 -5.0Q1015 1 954 7Q903 13 858.5 17.0Q814 21 782 21Q742 21 699.5 16.0Q657 11 618 5Q579 -1 538.0 -6.0Q497 -11 456 -11ZM153 278 164 279 82 360Q77 365 73 365Q69 365 69 362Q69 359 76 352ZM221 278 299 352Q306 359 306 362Q306 365 302 365Q298 365 293 360L210 280ZM456 8Q496 8 535.5 13.0Q575 18 615 24Q656 31 697.0 36.0Q738 41 782 41Q815 41 860.5 36.5Q906 32 956 27Q1016 20 1082.0 14.0Q1148 8 1203 8Q1255 8 1312.5 19.0Q1370 30 1419 51Q1430 56 1429.0 59.0Q1428 62 1418 60Q1366 51 1320.0 48.0Q1274 45 1208 45Q1134 45 1069.5 59.0Q1005 73 956.5 91.5Q908 110 881 121Q841 138 795.0 153.5Q749 169 705 169Q668 169 628.5 158.5Q589 148 566 140Q520 125 484.5 114.0Q449 103 420 103Q391 103 373.0 119.5Q355 136 343 152L308 200Q303 207 287.5 222.0Q272 237 247.5 249.5Q223 262 189 262Q154 262 126.5 250.0Q99 238 83.5 221.5Q68 205 68 189Q68 167 94.0 155.0Q120 143 154 143Q171 143 181.5 145.0Q192 147 200 149Q207 151 213.0 152.0Q219 153 225 153Q243 153 257.5 137.5Q272 122 281 111L323 61Q341 39 368.5 23.5Q396 8 456 8ZM179 211Q162 211 162 228Q162 244 179 244Q195 244 195 228Q195 211 179 211Z" />
  </g>
</svg>