<svg xmlns="http://www.w3.org/2000/svg" viewBox="49 0 1358 555">
  <g transform="translate(0, 555) scale(1, -1)">
    <path fill="black" d="M61 0V78H1325V476H799V555H1407V0ZM81 20H1388V535H819V496H1345V59H81ZM422 156Q382 156 358.0 161.5Q334 167 318.5 179.0Q303 191 287 209L249 256Q242 265 231.5 277.0Q221 289 212 289Q208 289 203.0 288.0Q198 287 193 285Q185 283 173.5 280.5Q162 278 146 278Q109 278 79.0 292.0Q49 306 49 340Q49 369 70.5 387.5Q92 406 127 418L58 484Q48 493 53.0 506.0Q58 519 72 519Q82 519 90 511L177 427L264 511Q272 519 282 519Q296 519 301.0 506.0Q306 493 296 484L227 417Q256 406 275.0 388.5Q294 371 301 362L333 319Q343 306 357.0 293.5Q371 281 390 281Q413 281 444.5 290.5Q476 300 518 313Q539 321 576.5 331.5Q614 342 650 342Q694 342 736.0 327.0Q778 312 818 295Q840 286 877.5 270.0Q915 254 968.5 241.0Q1022 228 1091 228Q1133 228 1164.0 229.5Q1195 231 1224.5 234.0Q1254 237 1292 243Q1305 245 1310.5 236.5Q1316 228 1314.0 217.5Q1312 207 1301 201Q1247 175 1192.5 165.5Q1138 156 1085 156Q1033 156 983.0 161.5Q933 167 877 172Q831 177 790.5 181.5Q750 186 721 186Q683 186 644.5 181.0Q606 176 570 170Q535 165 497.5 160.5Q460 156 422 156ZM146 423 155 424 81 498Q74 503 72 503Q69 503 69 500Q69 497 75 491ZM208 423 279 491Q285 497 285 500Q285 503 282 503Q280 503 273 498L198 424ZM422 175Q459 175 495.0 179.5Q531 184 567 189Q605 195 643.0 200.0Q681 205 721 205Q750 205 791.5 201.0Q833 197 879 192Q934 186 985.0 180.5Q1036 175 1085 175Q1132 175 1185.0 185.0Q1238 195 1283 214Q1293 218 1292.0 221.0Q1291 224 1283 222Q1235 214 1192.5 211.0Q1150 208 1091 208Q1022 208 968.0 221.0Q914 234 875.0 251.0Q836 268 811 278Q775 294 732.5 308.0Q690 322 650 322Q616 322 580.0 312.0Q544 302 523 295Q481 282 448.5 271.5Q416 261 390 261Q363 261 346.5 276.5Q330 292 319 307L287 350Q282 357 268.0 370.5Q254 384 232.0 395.5Q210 407 179 407Q130 407 99.0 384.5Q68 362 68 340Q68 320 92.0 309.0Q116 298 146 298Q162 298 172.0 300.0Q182 302 189 303Q202 308 212 308Q228 308 241.0 294.0Q254 280 263 269L301 223Q318 202 343.0 188.5Q368 175 422 175ZM169 360Q163 360 158.5 364.5Q154 369 154 375Q154 391 169 391Q184 391 184 375Q184 360 169 360Z" />
  </g>
</svg>