<svg xmlns="http://www.w3.org/2000/svg" viewBox="49 -10 972 1012">
  <g transform="translate(0, 992) scale(1, -1)">
    <path fill="black" d="M997 -10Q931 29 885.0 96.5Q839 164 839 261Q839 284 843.0 319.5Q847 355 851.0 392.5Q855 430 855 457Q855 560 826.5 615.0Q798 670 736.0 691.0Q674 712 571 712Q534 712 486.5 708.0Q439 704 392.0 699.5Q345 695 308.5 691.0Q272 687 257 687Q225 687 207.0 713.0Q189 739 189 785Q189 802 193.0 828.0Q197 854 204 876Q190 872 174.0 869.0Q158 866 139 866Q125 866 107.0 868.5Q89 871 73.0 881.5Q57 892 49 916Q51 947 73.0 966.0Q95 985 124.5 993.5Q154 1002 178 1002Q225 1002 257.0 988.5Q289 975 289 936Q289 909 282.0 889.0Q275 869 275 850Q275 820 285.5 808.0Q296 796 310 796Q326 796 360.5 802.0Q395 808 440.5 815.5Q486 823 535.0 829.0Q584 835 628 835Q699 835 761.0 824.5Q823 814 870.5 785.0Q918 756 945.0 702.0Q972 648 972 562Q972 523 964.5 483.5Q957 444 949.5 401.0Q942 358 942 309Q942 220 963.0 144.0Q984 68 1021 15ZM993 15 997 21Q954 90 938.0 157.5Q922 225 922 303Q922 354 930.0 399.5Q938 445 945.5 486.0Q953 527 953 562Q953 661 912.5 716.0Q872 771 800.0 793.5Q728 816 633 816Q593 816 544.0 810.5Q495 805 447.0 797.5Q399 790 362.5 784.5Q326 779 311 779Q257 779 257 850Q257 859 260.0 876.5Q263 894 266.0 911.0Q269 928 269 936Q269 961 246.0 971.5Q223 982 178 982Q155 982 129.5 973.0Q104 964 86.5 949.5Q69 935 68 917Q74 902 97.5 894.0Q121 886 139 886Q152 886 171.5 889.5Q191 893 218 900L224 891Q216 862 212.0 835.0Q208 808 208 784Q208 756 222.0 731.0Q236 706 261 706Q285 706 333.0 712.5Q381 719 443.5 725.5Q506 732 571 732Q654 732 712.0 720.5Q770 709 806.0 679.0Q842 649 858.5 595.5Q875 542 875 458Q875 428 871.0 389.5Q867 351 863.0 315.0Q859 279 859 255Q859 207 877.0 159.5Q895 112 925.5 74.0Q956 36 993 15ZM172 938Q156 938 156 953Q156 969 172 969Q187 969 187 953Q187 947 182.5 942.5Q178 938 172 938Z" />
  </g>
</svg>