<svg xmlns="http://www.w3.org/2000/svg" viewBox="49 168 1176 734">
  <g transform="translate(0, 1070) scale(1, -1)">
    <path fill="black" d="M335 168Q272 168 231.0 198.0Q190 228 170.5 279.5Q151 331 151 394Q151 423 159.0 461.5Q167 500 178.0 540.5Q189 581 199 614Q213 658 223.5 698.5Q234 739 234 766Q234 783 226.5 788.5Q219 794 211 794Q198 794 185.0 790.0Q172 786 157 786Q115 786 87.0 799.0Q59 812 54 819V824H49V837Q54 849 67.0 864.5Q80 880 104.5 891.0Q129 902 167 902Q237 902 272.5 867.5Q308 833 308 781Q308 747 294.5 695.5Q281 644 265 588Q249 533 235.0 479.5Q221 426 221 391Q221 322 251.5 280.0Q282 238 338 238Q378 238 400.5 260.0Q423 282 432.5 313.0Q442 344 442 371Q442 391 438.5 424.5Q435 458 431 491Q427 523 423.5 555.0Q420 587 420 608Q420 641 424.5 675.0Q429 709 442.5 738.5Q456 768 481.5 786.0Q507 804 548 804Q603 804 631.0 779.5Q659 755 669.0 719.0Q679 683 679 649Q679 633 674.5 596.0Q670 559 665 516Q658 469 652.5 424.5Q647 380 647 360Q647 329 651.5 301.0Q656 273 674.0 255.5Q692 238 731 238Q762 238 781.0 253.0Q800 268 809.5 290.5Q819 313 822.5 338.0Q826 363 826 382Q826 402 823.5 431.5Q821 461 817 492Q814 523 811.5 551.5Q809 580 809 602Q809 632 812.0 667.0Q815 702 826.5 733.0Q838 764 864.5 784.0Q891 804 937 804Q993 804 1021.0 780.5Q1049 757 1058.5 722.0Q1068 687 1068 652Q1068 631 1065.0 596.5Q1062 562 1057.5 523.0Q1053 484 1048 447Q1044 407 1040.0 375.0Q1036 343 1036 332Q1036 277 1055.0 253.0Q1074 229 1101 229Q1134 229 1156.0 235.5Q1178 242 1209 255L1225 229Q1207 207 1172.5 187.5Q1138 168 1100 168Q1054 168 1024.0 190.5Q994 213 980.0 250.0Q966 287 966 332Q966 355 971.0 393.5Q976 432 981 472Q988 517 993.5 562.0Q999 607 999 635Q999 679 988.0 706.5Q977 734 939 734Q911 734 898.0 715.0Q885 696 881.5 668.5Q878 641 878 615Q878 597 881.0 566.5Q884 536 887 503Q891 469 893.5 439.0Q896 409 896 389Q896 373 894.0 346.0Q892 319 884.5 288.5Q877 258 860.0 230.5Q843 203 812.5 185.5Q782 168 734 168Q679 168 647.0 187.0Q615 206 600.5 235.5Q586 265 582.0 298.0Q578 331 578 359Q578 388 583.0 430.0Q588 472 595 513Q600 550 604.5 582.5Q609 615 609 634Q609 677 596.0 705.5Q583 734 551 734Q519 734 504.5 699.5Q490 665 490 617Q490 601 493.0 574.0Q496 547 500 517Q504 481 508.0 444.0Q512 407 512 380Q512 321 495.5 280.0Q479 239 452.5 214.5Q426 190 395.0 179.0Q364 168 335 168ZM335 188Q369 188 405.5 206.0Q442 224 467.0 266.5Q492 309 492 380Q492 406 488.5 442.5Q485 479 480 515Q476 546 473.0 573.0Q470 600 470 617Q470 673 489.5 713.5Q509 754 551 754Q594 754 611.5 719.5Q629 685 629 634Q629 613 624.5 580.0Q620 547 614 510Q608 468 602.5 427.0Q597 386 597 359Q597 334 600.5 304.5Q604 275 617.0 248.5Q630 222 657.5 205.0Q685 188 734 188Q776 188 802.5 204.0Q829 220 844.0 245.0Q859 270 866.0 298.0Q873 326 874.5 350.5Q876 375 876 389Q876 407 873.5 437.5Q871 468 868 501Q864 534 861.5 565.0Q859 596 859 615Q859 645 863.0 677.5Q867 710 884.0 732.0Q901 754 939 754Q989 754 1003.5 721.0Q1018 688 1018 635Q1018 604 1012.5 559.5Q1007 515 1001 469Q995 428 990.5 390.5Q986 353 986 332Q986 273 1013.5 230.5Q1041 188 1100 188Q1132 188 1159.5 200.5Q1187 213 1202 229L1200 233Q1178 223 1156.5 216.0Q1135 209 1101 209Q1066 209 1041.5 238.0Q1017 267 1017 332Q1017 359 1029 450Q1034 487 1038.5 526.0Q1043 565 1046.0 598.5Q1049 632 1049 652Q1049 682 1041.0 713.0Q1033 744 1009.0 764.5Q985 785 937 785Q898 785 875.5 767.0Q853 749 843.0 721.0Q833 693 830.5 661.0Q828 629 828 602Q828 582 831.0 553.5Q834 525 837 494Q840 463 843.0 433.5Q846 404 846 382Q846 360 842.0 332.0Q838 304 826.0 278.5Q814 253 791.5 236.0Q769 219 731 219Q683 219 661.0 239.5Q639 260 633.5 292.5Q628 325 628 360Q628 382 633.5 427.0Q639 472 645 519Q650 561 655.0 598.0Q660 635 660 649Q660 679 651.5 710.5Q643 742 619.0 763.5Q595 785 548 785Q513 785 491.5 768.5Q470 752 458.5 725.5Q447 699 443.0 668.0Q439 637 439 608Q439 588 442.5 557.0Q446 526 450 493Q455 459 458.0 426.5Q461 394 461 371Q461 340 450.0 304.5Q439 269 412.5 244.0Q386 219 338 219Q272 219 237.0 266.5Q202 314 202 391Q202 428 216.0 482.5Q230 537 246 594Q262 649 275.0 699.0Q288 749 288 781Q288 825 258.0 854.0Q228 883 167 883Q132 883 111.5 875.0Q91 867 81.0 856.5Q71 846 68 838H98V825H78Q84 820 104.0 812.5Q124 805 157 805Q171 805 184.0 809.5Q197 814 211 814Q225 814 239.5 804.5Q254 795 254 766Q254 737 242.5 696.0Q231 655 217 608Q201 553 186.0 497.0Q171 441 171 394Q171 336 188.0 289.5Q205 243 241.5 215.5Q278 188 335 188ZM158 843Q142 843 142 857Q142 873 158 873Q172 873 172 857Q172 843 158 843Z" />
  </g>
</svg>