<svg xmlns="http://www.w3.org/2000/svg" viewBox="49 321 1197 442">
  <g transform="translate(0, 1084) scale(1, -1)">
    <path fill="black" d="M1208 321Q1172 342 1119.0 366.5Q1066 391 1008.5 411.0Q951 431 901 437L951 374Q926 380 906.0 383.5Q886 387 871 387Q839 387 802.0 378.0Q765 369 730 348L652 411Q648 410 642 410Q627 410 597.5 414.0Q568 418 530.5 425.5Q493 433 454 443L432 360L313 494Q290 495 268.0 504.0Q246 513 238 519Q204 527 165.0 554.5Q126 582 94.5 618.5Q63 655 49 688L79 704L68 739Q88 747 124.5 755.0Q161 763 200 763Q226 763 259.0 758.0Q292 753 326.0 745.5Q360 738 389.0 730.5Q418 723 434 718L501 697L774 763Q761 737 748.0 700.0Q735 663 734 628L763 620L964 661L906 576Q928 569 951.0 564.0Q974 559 993 559Q1024 559 1052.0 564.5Q1080 570 1097 576Q1108 579 1131.5 586.0Q1155 593 1182.5 602.0Q1210 611 1232 618L1246 595Q1225 581 1201.5 560.0Q1178 539 1161.5 516.5Q1145 494 1145 475Q1145 455 1155.0 434.0Q1165 413 1178.5 394.0Q1192 375 1204.5 362.5Q1217 350 1222 346ZM1026 425Q1040 448 1040 482Q1040 513 1025 541Q1018 540 1009.5 540.0Q1001 540 993 540Q966 540 931.0 550.0Q896 560 872 567L428 699Q413 704 385.5 711.0Q358 718 324.5 725.5Q291 733 258.5 738.0Q226 743 200 743Q170 743 139.0 737.5Q108 732 91 727Q93 720 95.0 709.5Q97 699 98 692L73 679Q88 652 115.0 623.0Q142 594 174.5 571.5Q207 549 238 540Q289 558 306 601L324 593Q307 552 262 529L271 524Q297 534 314.5 553.0Q332 572 340 593L358 585Q350 566 335.0 547.5Q320 529 298 516Q301 515 304.0 514.5Q307 514 310 514Q333 530 356.0 562.0Q379 594 387 619Q402 619 425.0 617.0Q448 615 464 612Q523 601 551.5 579.5Q580 558 596 542Q570 531 537.5 522.5Q505 514 477 514Q446 514 423.0 518.5Q400 523 368 542Q350 519 333 505Q365 489 410.0 475.5Q455 462 501.5 452.0Q548 442 586.0 436.0Q624 430 642 430Q651 430 668.5 433.0Q686 436 705 440Q737 447 777.5 453.0Q818 459 861 459Q899 459 942.0 449.5Q985 440 1026 425ZM714 634Q716 662 723.5 688.5Q731 715 740 735Q694 724 640.5 711.0Q587 698 538 687ZM191 683Q181 683 173.5 690.5Q166 698 166 708Q166 718 173.5 725.0Q181 732 191 732Q202 732 209.0 725.0Q216 718 216 708Q216 698 209.0 690.5Q202 683 191 683ZM191 697Q195 697 198.5 700.5Q202 704 202 708Q202 712 198.5 715.0Q195 718 191 718Q187 718 183.5 715.0Q180 712 180 708Q180 704 183.5 700.5Q187 697 191 697ZM887 582 921 632 803 607Q842 596 858.5 590.5Q875 585 880.0 584.0Q885 583 887 582ZM477 533Q499 533 521.5 537.5Q544 542 562 549Q549 560 526.5 572.5Q504 585 460 593Q445 596 428.5 597.0Q412 598 401 599Q393 578 380 558Q408 541 428.5 537.0Q449 533 477 533ZM1187 354Q1175 368 1160.5 388.0Q1146 408 1135.5 431.0Q1125 454 1125 475Q1125 498 1140.0 521.0Q1155 544 1175.0 563.0Q1195 582 1209 593Q1196 588 1175.0 580.5Q1154 573 1134.0 566.5Q1114 560 1103 557Q1092 554 1077.0 550.5Q1062 547 1045 544Q1060 514 1060 482Q1060 448 1044 419Q1089 402 1127.0 384.0Q1165 366 1187 354ZM422 400 435 448Q414 454 394.0 460.5Q374 467 357 474ZM732 372Q765 390 801.5 398.0Q838 406 871 406Q879 406 886.5 406.0Q894 406 901 405L875 439Q871 439 867.5 439.5Q864 440 861 440Q820 440 780.0 433.5Q740 427 708 420Q701 419 693.5 417.5Q686 416 678 415Z" />
  </g>
</svg>