<svg xmlns="http://www.w3.org/2000/svg" viewBox="49 122 1272 463">
  <g transform="translate(0, 707) scale(1, -1)">
    <path fill="black" d="M503 122Q484 122 462.5 133.5Q441 145 420.5 161.5Q400 178 383.0 195.0Q366 212 357 222Q335 230 310.5 234.0Q286 238 260 242Q243 246 225.0 249.0Q207 252 192 255Q158 263 120.5 278.0Q83 293 57 314L73 334L49 355Q95 407 140.0 440.0Q185 473 236.5 490.5Q288 508 353 512L476 585Q557 585 636.5 580.0Q716 575 785.5 563.0Q855 551 906 530L876 455Q917 448 961.0 441.5Q1005 435 1043.0 430.5Q1081 426 1104 426Q1128 426 1167.5 437.5Q1207 449 1249.0 465.5Q1291 482 1321 497Q1319 461 1305.0 430.5Q1291 400 1272.5 377.0Q1254 354 1237 342Q1246 331 1263.5 308.0Q1281 285 1294.5 253.0Q1308 221 1306 181Q1278 208 1235.0 230.0Q1192 252 1147.0 264.5Q1102 277 1068 277Q1049 277 1021.5 273.0Q994 269 965 264L982 178Q945 178 903.5 184.0Q862 190 825.0 199.5Q788 209 765 217Q719 207 670.0 199.0Q621 191 580 191Q563 191 547.0 191.5Q531 192 515 193L538 150Q538 146 532.0 134.0Q526 122 503 122ZM856 458 881 519Q835 537 770.5 547.0Q706 557 631.5 561.5Q557 566 481 565L393 514Q513 514 592.0 503.0Q671 492 724 481Q756 475 789.5 469.0Q823 463 856 458ZM580 210Q622 210 672.0 218.0Q722 226 769.0 237.5Q816 249 850 257Q889 267 930.0 275.5Q971 284 1008.0 290.0Q1045 296 1068 296Q1084 296 1102.5 293.5Q1121 291 1141 286Q1154 315 1154 351Q1154 386 1142 411Q1131 409 1121.5 407.5Q1112 406 1104 406Q1069 406 1020.5 411.5Q972 417 918.5 426.0Q865 435 813.5 444.5Q762 454 720 462Q666 473 590.5 483.5Q515 494 402 494Q335 494 284.0 484.0Q233 474 190.5 451.5Q148 429 108 390Q124 360 124 339Q124 320 113 301Q151 284 196 275Q207 272 220.5 269.5Q234 267 248 265Q277 284 292.0 309.5Q307 335 308 372L328 371Q325 301 274 260L288 257Q349 297 352 372L371 371Q369 297 314 252Q379 237 443.0 223.5Q507 210 580 210ZM1280 229Q1271 255 1248.5 288.5Q1226 322 1208 344Q1231 361 1258.0 392.5Q1285 424 1292 460Q1264 447 1228.5 435.0Q1193 423 1161 415Q1174 384 1174 351Q1174 312 1160 281Q1192 272 1224.0 258.5Q1256 245 1280 229ZM227 367Q216 367 208.0 375.0Q200 383 200 394Q200 405 208.0 413.0Q216 421 227 421Q238 421 246.0 413.0Q254 405 254 394Q254 383 246.0 375.0Q238 367 227 367ZM227 383Q231 383 234.5 386.5Q238 390 238 394Q238 398 234.5 401.5Q231 405 227 405Q223 405 219.5 401.5Q216 398 216 394Q216 390 219.5 386.5Q223 383 227 383ZM96 310Q104 324 104 339Q104 357 93 375L76 357L100 337L84 317Q86 316 89.0 314.0Q92 312 96 310ZM484 282Q455 282 424.0 288.0Q393 294 374 300L388 373Q399 373 423.5 372.5Q448 372 479.0 367.5Q510 363 541.5 353.0Q573 343 598 323Q582 310 550.5 296.0Q519 282 484 282ZM484 302Q505 302 528.5 309.0Q552 316 565 323Q541 338 509.5 344.5Q478 351 449.5 352.5Q421 354 404 354Q402 343 400.0 333.5Q398 324 396 313Q407 311 431.5 306.5Q456 302 484 302ZM958 197 946 260Q910 252 854 238Q840 235 825.0 231.0Q810 227 802 225Q835 215 878.0 207.0Q921 199 958 197ZM503 142Q508 142 511.5 144.0Q515 146 517 147Q513 155 504.0 172.5Q495 190 492 196Q463 199 437.5 204.0Q412 209 392 213Q407 198 426.0 181.5Q445 165 465.5 153.5Q486 142 503 142Z" />
  </g>
</svg>