<svg xmlns="http://www.w3.org/2000/svg" viewBox="49 107 494 841">
  <g transform="translate(0, 1055) scale(1, -1)">
    <path fill="black" d="M177 107Q186 158 186 192Q186 281 149.5 362.0Q113 443 49 521V534Q113 612 149.5 693.0Q186 774 186 862Q186 897 177 948Q284 911 355.0 859.5Q426 808 467.0 750.5Q508 693 525.5 635.0Q543 577 543 527Q543 477 525.5 419.5Q508 362 467.0 304.5Q426 247 355.0 196.0Q284 145 177 107ZM202 137Q292 171 354.0 218.0Q416 265 453.0 319.0Q490 373 506.5 427.0Q523 481 523 527Q523 574 506.5 628.0Q490 682 453.0 735.5Q416 789 354.0 836.5Q292 884 202 918Q205 891 205 862Q205 771 169.0 689.0Q133 607 69 527Q133 448 169.0 366.0Q205 284 205 192Q205 164 202 137Z" />
  </g>
</svg>