<svg xmlns="http://www.w3.org/2000/svg" viewBox="49 54 1258 456">
  <g transform="translate(0, 564) scale(1, -1)">
    <path fill="black" d="M104 54 81 64Q83 78 96.0 106.0Q109 134 124 158Q96 143 72 116L58 136Q72 166 89.5 185.5Q107 205 127 219Q109 217 90.0 211.0Q71 205 56 194L49 229Q63 240 75.0 247.5Q87 255 98 260L49 261V302L98 304Q87 309 75.0 316.5Q63 324 49 335L56 370Q71 358 90.0 352.5Q109 347 127 344Q107 359 89.5 378.0Q72 397 58 427L72 448Q83 435 97.0 424.0Q111 413 124 405Q109 430 96.0 457.5Q83 485 81 499L104 510Q109 500 123.5 482.0Q138 464 156.5 445.0Q175 426 191.5 413.0Q208 400 218 400Q232 400 247.0 405.5Q262 411 274 416Q302 427 335.0 437.0Q368 447 400 448Q422 449 460.0 452.5Q498 456 527 462L553 468Q577 473 603.0 478.5Q629 484 655 484Q673 484 695.5 481.5Q718 479 731 477V451Q721 450 704.5 445.5Q688 441 677 438Q692 435 706.0 432.0Q720 429 734 425L777 462L1086 380L1052 332Q1062 330 1070.0 329.0Q1078 328 1084 328Q1099 328 1120.0 334.0Q1141 340 1161 347Q1181 354 1199.0 359.0Q1217 364 1230 364Q1264 364 1285.5 338.5Q1307 313 1307 282Q1307 251 1285.5 225.0Q1264 199 1230 199Q1217 199 1199.0 204.5Q1181 210 1161 216Q1141 224 1120.0 230.0Q1099 236 1084 236Q1078 236 1070.0 235.0Q1062 234 1052 232L1086 184L777 101L734 139Q720 135 706.0 132.0Q692 129 677 126Q688 123 704.5 119.0Q721 115 731 113V86Q718 84 695.5 82.0Q673 80 655 80Q629 80 603.0 85.0Q577 90 553 96L527 102Q498 107 460.0 111.0Q422 115 400 116Q368 118 335.0 127.5Q302 137 274 147Q262 152 247.0 157.5Q232 163 218 163Q208 163 191.5 150.0Q175 137 156.5 118.0Q138 99 123.5 81.0Q109 63 104 54ZM108 88Q121 106 142.5 128.0Q164 150 185.0 166.5Q206 183 218 183Q235 183 252.0 177.0Q269 171 282 165Q302 158 321.0 152.0Q340 146 359 141Q387 174 399.5 212.0Q412 250 415 282Q412 314 399.5 352.0Q387 390 359 422Q340 418 321.0 412.0Q302 406 282 398Q269 393 252.0 387.0Q235 381 218 381Q206 381 185.0 397.5Q164 414 142.5 436.0Q121 458 108 475Q115 460 127.0 439.5Q139 419 152.0 398.0Q165 377 175 362Q153 371 129.0 384.0Q105 397 88 413Q105 385 134.5 364.0Q164 343 199 320Q146 323 116.0 328.0Q86 333 64 348Q91 327 111.5 318.5Q132 310 161 303L160 286L68 284V280L160 277L161 261Q132 254 111.5 245.0Q91 236 64 216Q86 230 116.0 235.5Q146 241 199 243Q164 221 134.5 199.5Q105 178 88 151Q105 166 129.0 179.5Q153 193 175 201Q165 187 152.0 166.0Q139 145 127.0 124.5Q115 104 108 88ZM655 99Q668 99 680.0 100.0Q692 101 702 102Q652 113 597.0 133.5Q542 154 505 185V207Q528 214 557.0 224.0Q586 234 599 239Q621 249 633.0 258.0Q645 267 654 277V287Q645 296 633.0 305.5Q621 315 599 324Q586 329 557.0 339.0Q528 349 505 356V378Q542 410 597.0 430.5Q652 451 702 461Q683 464 655 464Q630 464 605.5 459.0Q581 454 558 449L531 442Q503 436 464.0 433.0Q425 430 401 428Q397 428 391.5 427.5Q386 427 381 426Q408 392 420.0 353.5Q432 315 434 282Q432 248 420.0 210.0Q408 172 381 137Q386 136 391.5 136.0Q397 136 401 135Q425 134 464.0 130.5Q503 127 531 121L558 115Q581 109 605.5 104.0Q630 99 655 99ZM1033 336 1055 368Q986 387 919.0 404.5Q852 422 782 441L757 419Q764 418 775.5 414.5Q787 411 821 402Q841 397 865.0 389.0Q889 381 914 373Q945 363 976.0 353.0Q1007 343 1033 336ZM634 139Q663 143 687.5 148.0Q712 153 742.5 161.0Q773 169 816 180Q835 185 859.0 193.5Q883 202 908 209Q941 220 975.0 230.5Q1009 241 1038.0 248.0Q1067 255 1084 255Q1097 255 1112.0 252.0Q1127 249 1142 244Q1148 253 1150.5 263.5Q1153 274 1153 282Q1153 290 1150.5 300.5Q1148 311 1142 320Q1127 315 1112.0 311.5Q1097 308 1084 308Q1067 308 1038.0 315.0Q1009 322 975.0 333.0Q941 344 908 354Q883 362 859.0 370.0Q835 378 816 383Q773 395 742.5 403.0Q712 411 687.5 416.0Q663 421 634 424Q604 415 572.0 401.0Q540 387 522 369Q524 369 539.5 364.5Q555 360 574.5 354.0Q594 348 606 342Q632 331 647.0 319.0Q662 307 673 294V270Q662 257 647.0 245.0Q632 233 606 222Q594 216 574.5 210.0Q555 204 539.5 200.0Q524 196 522 195Q540 177 572.0 163.0Q604 149 634 139ZM344 322Q333 322 325.0 330.0Q317 338 317 350Q317 361 325.0 369.0Q333 377 344 377Q355 377 363.5 369.0Q372 361 372 350Q372 338 363.5 330.0Q355 322 344 322ZM344 339Q355 339 355 350Q355 360 344 360Q340 360 336.5 357.0Q333 354 333 350Q333 346 336.5 342.5Q340 339 344 339ZM1230 219Q1255 219 1271.5 238.5Q1288 258 1288 282Q1288 305 1271.5 325.0Q1255 345 1230 345Q1220 345 1203.0 340.0Q1186 335 1168 329Q1167 328 1165.0 327.5Q1163 327 1161 326Q1167 315 1169.5 302.5Q1172 290 1172 282Q1172 273 1169.5 261.0Q1167 249 1161 237Q1164 237 1168 235Q1186 228 1203.0 223.5Q1220 219 1230 219ZM344 187Q333 187 325.0 195.0Q317 203 317 214Q317 225 325.0 233.0Q333 241 344 241Q355 241 363.5 233.0Q372 225 372 214Q372 203 363.5 195.0Q355 187 344 187ZM782 123Q852 141 919.0 159.0Q986 177 1055 195L1033 228Q1007 221 976.0 211.5Q945 202 914 191Q889 183 865.0 175.0Q841 167 821 162Q787 153 775.5 150.0Q764 147 757 145ZM344 203Q355 203 355 214Q355 218 352.0 221.5Q349 225 344 225Q340 225 336.5 221.5Q333 218 333 214Q333 210 336.5 206.5Q340 203 344 203Z" />
  </g>
</svg>