<svg xmlns="http://www.w3.org/2000/svg" viewBox="49 -83 1179 1085">
  <g transform="translate(0, 919) scale(1, -1)">
    <path fill="black" d="M292 202Q274 202 268.5 213.5Q263 225 263 250V299Q263 311 259.5 330.5Q256 350 246.5 370.5Q237 391 218.0 404.5Q199 418 168 418Q148 418 128.5 403.5Q109 389 97 374Q87 361 80.5 354.5Q74 348 66 348Q57 348 53.0 354.0Q49 360 49 367Q49 380 61 397Q65 403 78.5 418.5Q92 434 115.0 447.5Q138 461 168 461Q209 461 232.5 447.0Q256 433 268 417Q267 441 258.5 467.0Q250 493 228.5 511.5Q207 530 168 530Q143 530 125.5 515.0Q108 500 93 480Q86 471 80.0 465.0Q74 459 66 459Q57 459 53.0 465.5Q49 472 49 478Q49 491 61 508Q65 514 78.5 529.5Q92 545 115.0 558.5Q138 572 168 572Q211 572 235.5 557.5Q260 543 272 526V890Q272 905 269.5 921.5Q267 938 257.5 950.0Q248 962 226 962Q205 962 193.0 948.5Q181 935 176.5 919.0Q172 903 171 895Q171 885 167.0 874.5Q163 864 151 864Q141 864 137.0 872.5Q133 881 133 892Q133 899 136.5 916.5Q140 934 149.5 954.0Q159 974 177.5 988.0Q196 1002 226 1002Q313 1002 313 895V526Q325 543 349.5 557.5Q374 572 417 572Q448 572 470.5 558.5Q493 545 507.0 529.5Q521 514 524 508Q536 491 536 478Q536 472 531.0 465.5Q526 459 519 459Q511 459 504.0 466.0Q497 473 488 485Q479 498 461.5 514.0Q444 530 417 530Q378 530 356.5 511.5Q335 493 326.5 467.0Q318 441 317 417Q329 433 352.5 447.0Q376 461 417 461Q448 461 470.5 447.5Q493 434 507.0 418.5Q521 403 524 397Q536 380 536 367Q536 360 531.0 354.0Q526 348 519 348Q511 348 504.0 354.5Q497 361 488 374Q479 387 461.5 402.5Q444 418 417 418Q386 418 367.0 404.5Q348 391 338.5 370.5Q329 350 325.5 330.5Q322 311 322 299V250Q322 225 316.5 213.5Q311 202 292 202ZM292 218Q307 218 307 250V299Q307 313 310.5 335.0Q314 357 325.5 380.0Q337 403 359.0 418.5Q381 434 417 434Q451 434 471.0 415.0Q491 396 501 382Q504 378 509.5 371.0Q515 364 519 364Q521 364 521 367Q521 375 512 388Q508 394 495.5 407.5Q483 421 463.0 433.0Q443 445 417 445Q381 445 360.0 432.0Q339 419 329.0 404.0Q319 389 315 381L302 384V411Q302 438 311.0 469.0Q320 500 345.0 522.5Q370 545 417 545Q451 545 471.0 526.0Q491 507 501 493Q504 489 509.5 482.0Q515 475 519 475Q521 475 521 478Q521 485 512 500Q508 506 495.5 519.5Q483 533 463.0 545.0Q443 557 417 557Q381 557 359.0 544.0Q337 531 326.0 515.5Q315 500 311 492L297 495V895Q297 942 278.5 964.0Q260 986 226 986Q201 986 185.5 974.0Q170 962 162.0 945.0Q154 928 151.5 913.0Q149 898 149 892Q149 880 151 880Q154 880 154.5 887.0Q155 894 156 897Q156 902 159.0 915.0Q162 928 169.0 942.5Q176 957 190.0 967.5Q204 978 226 978Q255 978 268.0 963.5Q281 949 284.5 928.5Q288 908 288 890V495L274 492Q271 500 259.5 515.5Q248 531 226.0 544.0Q204 557 168 557Q142 557 122.0 545.0Q102 533 89.5 519.5Q77 506 73 500Q64 485 64 478Q64 475 66 475Q71 475 84 494Q94 507 114.5 526.0Q135 545 168 545Q215 545 240.0 522.5Q265 500 274.0 469.0Q283 438 283 411V384L270 381Q266 389 256.0 404.0Q246 419 225.0 432.0Q204 445 168 445Q142 445 122.0 433.0Q102 421 89.5 407.5Q77 394 73 388Q64 375 64 367Q64 364 66 364Q71 364 84 383Q94 396 114.5 415.0Q135 434 168 434Q204 434 226.0 418.5Q248 403 259.5 380.0Q271 357 274.5 335.0Q278 313 278 299V250Q278 218 292 218ZM650 232Q627 232 627 250Q627 259 636.0 262.5Q645 266 651 266H667Q676 283 687.5 303.5Q699 324 699 337Q699 340 694.5 349.0Q690 358 685.0 368.5Q680 379 677 384L670 390Q667 374 660.5 357.5Q654 341 646 333H634Q616 350 597.0 379.5Q578 409 578 447Q578 470 578.5 480.5Q579 491 580 496Q581 500 580 504Q580 505 572.0 516.0Q564 527 553.0 541.5Q542 556 534 566Q524 580 510.5 599.5Q497 619 487.0 641.0Q477 663 477 682Q477 695 477.5 708.0Q478 721 479 728H500Q500 711 505 686Q513 647 539.0 616.0Q565 585 587 552L583 579Q580 598 573.0 624.0Q566 650 560.0 674.5Q554 699 554 713Q554 730 560.0 744.0Q566 758 572 765L587 760Q583 746 583 726Q583 719 587.0 704.5Q591 690 596 674Q604 647 610.0 619.0Q616 591 619 562Q622 537 627.5 521.5Q633 506 642 494Q647 487 654.0 481.0Q661 475 666 470Q685 497 717 505Q716 516 713.5 542.0Q711 568 711 601Q711 661 723.5 720.5Q736 780 760.5 830.5Q785 881 822.0 916.0Q859 951 907 961L902 693Q963 767 1023.5 815.0Q1084 863 1142 863Q1157 863 1183.0 860.5Q1209 858 1228 856L1063 604Q1039 574 1013.0 547.5Q987 521 963 499Q948 506 923.0 513.5Q898 521 877 521Q859 521 845.0 516.5Q831 512 820 504Q866 490 883 464Q888 472 898.0 479.0Q908 486 929 486Q971 486 1014.0 465.0Q1057 444 1094.0 412.0Q1131 380 1153.5 345.5Q1176 311 1176 284Q1176 270 1173.0 257.5Q1170 245 1167 234H1147Q1147 240 1145.0 253.0Q1143 266 1136.5 278.0Q1130 290 1116 293Q1106 296 1090.5 298.5Q1075 301 1058 303L1040 305Q1048 296 1057.5 288.5Q1067 281 1076 274Q1086 267 1093.5 260.5Q1101 254 1103 242L1099 238Q1084 251 1075 235Q1041 258 1023.0 275.5Q1005 293 993 313L984 316Q953 327 924.0 344.5Q895 362 876 381Q873 378 870.0 375.5Q867 373 863 370Q868 361 871.5 352.0Q875 343 875 338Q875 313 869.0 282.5Q863 252 858 232H822Q816 232 814.0 233.5Q812 235 810 235L809 232H767Q752 232 747 239Q746 237 745.0 235.0Q744 233 744 232H708Q698 232 691 237Q689 233 689 232ZM733 508Q748 512 764 512H769Q795 551 825.0 593.5Q855 636 886 673L891 941Q851 929 820.5 896.0Q790 863 769.5 816.0Q749 769 738.5 713.5Q728 658 728 601Q728 570 730.0 544.5Q732 519 733 508ZM708 246H736Q738 252 745.0 267.5Q752 283 758.0 302.5Q764 322 764 338Q764 345 754.0 363.0Q744 381 735 396L746 402Q750 396 756.0 386.0Q762 376 767 366Q772 365 776.0 365.0Q780 365 784 365Q795 365 805.5 366.5Q816 368 824 369Q821 374 818.5 378.5Q816 383 814 385L826 393Q835 378 844.5 360.0Q854 342 854 337Q854 328 852.0 311.5Q850 295 847.0 279.0Q844 263 840 253H816Q806 253 806 250Q806 246 815 246H847Q850 254 856.0 280.5Q862 307 862 338Q862 345 852.0 363.0Q842 381 833 396L844 402Q850 396 856 382Q864 387 868 392L867 403L932 410Q951 412 957.0 407.5Q963 403 969 393Q988 357 994.0 343.0Q1000 329 1003 324Q1014 303 1029.0 286.5Q1044 270 1074 250Q1076 256 1084 254Q1068 268 1050.5 281.0Q1033 294 1022 309Q1006 334 996.0 359.5Q986 385 967 413Q963 419 938 418Q932 418 911.5 416.0Q891 414 874 412L873 425Q874 425 876.0 425.0Q878 425 881 426Q881 439 877 446Q868 465 849.0 477.0Q830 489 807 494Q800 488 793.0 481.0Q786 474 779 466L769 475Q792 498 814.5 517.5Q837 537 877 537Q896 537 920.0 531.0Q944 525 960 519Q983 540 1005.5 562.0Q1028 584 1049 610Q1089 671 1126.0 727.0Q1163 783 1203 843Q1192 845 1174.0 846.5Q1156 848 1142 848Q1098 848 1048.0 813.0Q998 778 947.5 722.0Q897 666 849.5 600.0Q802 534 761 471L747 478L760 499Q723 498 695.0 481.5Q667 465 667 430Q667 408 684.0 395.0Q701 382 724 374Q721 377 719.0 380.5Q717 384 716 385L728 393Q737 378 746.5 360.0Q756 342 756 337Q756 322 746.0 296.0Q736 270 728 253H708Q698 253 698 250Q698 249 699.5 247.5Q701 246 708 246ZM634 350V377H647V356Q652 367 655.5 381.0Q659 395 660 405Q654 417 654 430Q654 446 660 458Q654 463 646.0 470.0Q638 477 631 486Q612 513 606 560Q604 587 598.0 613.5Q592 640 583 670Q579 686 575.5 700.5Q572 715 572 723Q572 733 574 741H573Q571 737 569.0 730.0Q567 723 567 713Q567 699 573.0 674.0Q579 649 586.5 623.0Q594 597 596 579Q598 564 600.5 549.5Q603 535 604 520L595 517Q581 545 559.5 570.0Q538 595 519.5 622.0Q501 649 495 683Q494 692 492.5 701.0Q491 710 490 715H489Q488 708 487.5 698.0Q487 688 487 682Q487 665 497.0 645.0Q507 625 519.0 608.5Q531 592 537 583Q556 560 574.5 535.5Q593 511 594 504Q594 498 593 494Q592 489 591.5 478.5Q591 468 591 447Q591 414 605.0 389.5Q619 365 634 350ZM1159 253Q1161 260 1162.0 267.0Q1163 274 1163 284Q1163 310 1141.5 342.0Q1120 374 1085.5 404.0Q1051 434 1009.5 453.5Q968 473 929 473Q906 473 899.0 463.0Q892 453 891 448Q893 444 893.5 438.5Q894 433 895 427Q907 429 920.0 430.0Q933 431 938 432Q953 432 963.0 430.5Q973 429 977 422Q993 398 1003.5 372.0Q1014 346 1029 320Q1037 319 1044.5 318.0Q1052 317 1059 316Q1077 314 1093.0 312.0Q1109 310 1120 306Q1139 300 1147.5 283.5Q1156 267 1159 253ZM618 397Q609 397 605.5 403.5Q602 410 602 416Q602 421 605.5 427.5Q609 434 616 434Q632 434 632 415Q632 406 627.5 401.5Q623 397 618 397ZM618 407Q621 407 621 415Q621 424 616 424Q614 424 613.5 421.0Q613 418 613 416Q613 407 618 407ZM984 330 958 386Q954 393 950.5 395.5Q947 398 933 396L885 392H884Q900 376 927.5 358.5Q955 341 984 330ZM650 246H681L685 251Q686 257 690 261Q700 276 709.5 297.5Q719 319 719 338Q719 347 709 365L699 370Q704 360 707.5 350.5Q711 341 711 337Q711 328 704.0 312.5Q697 297 688.0 280.5Q679 264 672 253H651Q643 253 640 250Q640 246 650 246ZM708 266H719Q727 284 735.0 304.0Q743 324 743 337Q743 342 732 358Q731 358 727 360Q732 345 732 338Q732 323 724.5 303.0Q717 283 708 266ZM817 266H831Q835 280 838.0 301.0Q841 322 841 335Q841 337 838.0 343.5Q835 350 831 357L821 355Q824 351 825.0 346.0Q826 341 826 338Q826 320 823.5 301.0Q821 282 817 266ZM767 246H793V250Q793 255 796.0 258.5Q799 262 803 264Q807 278 810.0 297.0Q813 316 813 338Q813 342 808 354L800 353Q805 341 805 337Q805 328 803.0 311.5Q801 295 798.0 279.0Q795 263 791 253H768Q763 253 760.5 252.0Q758 251 757 250Q757 246 767 246ZM758 265Q760 266 763.0 266.0Q766 266 768 266H781Q786 280 789.0 301.0Q792 322 792 335Q792 339 784 352Q777 352 773 353Q775 349 776.0 344.5Q777 340 777 338Q777 322 771.0 302.0Q765 282 758 265ZM95 -83Q103 -43 117.5 -3.5Q132 36 156.0 68.0Q180 100 217.0 119.5Q254 139 308 139Q362 139 399.5 119.5Q437 100 461.0 68.0Q485 36 499.0 -3.5Q513 -43 521 -83ZM749 -83Q757 -43 771.5 -3.5Q786 36 810.0 68.0Q834 100 871.0 119.5Q908 139 962 139Q1016 139 1053.0 119.5Q1090 100 1114.0 68.0Q1138 36 1152.5 -3.5Q1167 -43 1175 -83ZM119 -63H497Q487 -18 466.5 24.0Q446 66 408.5 93.0Q371 120 308 120Q246 120 208.0 93.0Q170 66 149.5 24.0Q129 -18 119 -63ZM773 -63H1151Q1141 -18 1120.5 24.0Q1100 66 1062.0 93.0Q1024 120 962 120Q900 120 862.0 93.0Q824 66 803.5 24.0Q783 -18 773 -63Z" />
  </g>
</svg>