<svg xmlns="http://www.w3.org/2000/svg" viewBox="49 102 1183 547">
  <g transform="translate(0, 751) scale(1, -1)">
    <path fill="black" d="M792 102Q790 104 784.0 107.0Q778 110 770 110H708Q705 112 699.0 116.5Q693 121 688 126L686 123Q685 124 681.0 125.0Q677 126 671 126L590 131L572 145Q570 151 567.0 174.0Q564 197 562.0 222.5Q560 248 558 260Q548 259 535.5 257.0Q523 255 509 253Q485 249 459.5 246.0Q434 243 418 243Q420 230 419.5 211.0Q419 192 418.5 175.5Q418 159 419 151Q427 147 443.5 140.0Q460 133 474 125L464 112Q455 115 439.5 119.5Q424 124 409 127L408 128L398 118Q385 123 366.0 133.5Q347 144 335 159Q339 185 343.0 205.5Q347 226 348 245Q304 249 272 260Q264 250 249 235Q235 223 226 212L205 147Q192 143 175.0 137.0Q158 131 150 128Q137 122 135 114L127 119L135 136L138 141L78 128L69 114L59 122L76 147L123 163L150 236L211 265Q210 277 213 294Q209 297 206.0 299.5Q203 302 199 306L178 314Q162 287 138 287H135L137 271L123 269L121 290Q119 290 117 292L112 271L98 277L104 301Q87 320 87 362Q87 384 95.0 406.5Q103 429 116 442Q112 450 98.5 474.5Q85 499 74 527Q63 557 56.0 585.0Q49 613 49 618Q49 626 51.5 631.5Q54 637 59 637Q62 638 65.0 633.5Q68 629 69 624Q74 607 81.5 578.0Q89 549 101.0 516.5Q113 484 130 454L134 455Q132 463 126.5 488.5Q121 514 121 542Q122 561 123.5 582.0Q125 603 127.0 619.0Q129 635 130 638Q133 643 135.5 646.0Q138 649 142 649Q148 649 150.0 642.5Q152 636 151 630Q151 623 147.0 598.0Q143 573 143 544Q143 514 145.0 495.0Q147 476 151 457Q175 455 187 435H212Q217 438 233.5 448.0Q250 458 269.5 466.5Q289 475 302 475Q311 475 317 472Q335 474 370.5 479.0Q406 484 446 489Q453 503 465.0 523.0Q477 543 491.0 564.5Q505 586 518.5 602.0Q532 618 542 624Q550 625 558.5 617.0Q567 609 568 604L571 577Q584 592 593.5 601.0Q603 610 607 610Q621 610 627.0 602.5Q633 595 633 586Q636 567 638.5 549.0Q641 531 644 512Q695 517 739.5 520.5Q784 524 814 524Q893 524 963.0 519.5Q1033 515 1087.0 504.5Q1141 494 1171.5 475.5Q1202 457 1202 428Q1202 416 1191.5 408.0Q1181 400 1163 395Q1190 380 1211.0 362.5Q1232 345 1232 332Q1232 320 1223.0 308.5Q1214 297 1201 291Q1194 288 1175.0 285.0Q1156 282 1134.5 280.5Q1113 279 1097 279Q1075 279 1037.5 281.5Q1000 284 954 288L993 277Q995 277 1006.5 273.5Q1018 270 1029.0 264.0Q1040 258 1040 249Q1040 238 1020.5 223.5Q1001 209 976.5 199.0Q952 189 935 189Q913 189 881.5 194.5Q850 200 825 206L688 239Q693 212 696.5 193.5Q700 175 701 173Q712 158 722 151Q727 151 735.5 150.5Q744 150 753 149Q790 144 813 128ZM469 492 503 497Q506 506 511.0 521.0Q516 536 521.0 549.0Q526 562 528 564Q535 580 551 602Q553 604 550.5 605.5Q548 607 546 605Q536 597 521.5 576.5Q507 556 493.0 533.0Q479 510 469 492ZM415 262Q429 262 454.5 265.5Q480 269 506 273Q529 276 548.5 279.0Q568 282 578 282Q585 282 596.0 280.5Q607 279 636 272L628 318L621 319Q602 321 568.0 325.0Q534 329 494 333Q482 316 471.0 302.0Q460 288 455 283L442 295Q449 302 462.5 319.5Q476 337 490.5 359.5Q505 382 515 403Q525 424 537.5 454.0Q550 484 563.0 512.0Q576 540 587 553Q615 587 615 586Q615 592 607 592Q605 592 589.0 572.0Q573 552 550.5 523.0Q528 494 506.5 466.5Q485 439 473 423Q464 411 454.5 387.0Q445 363 438.0 336.0Q431 309 426 287L408 291Q410 298 413.0 312.0Q416 326 420 341Q377 346 342.5 350.5Q308 355 296 357Q290 351 283.0 346.0Q276 341 269 336Q259 329 246.0 323.0Q233 317 222 312L233 308Q230 301 228.5 289.5Q227 278 225 270Q229 277 236.5 290.5Q244 304 250 314L262 307L253 290Q265 284 281 277L285 289Q296 289 306 292Q314 294 327.0 300.0Q340 306 348 310Q348 312 347.5 313.0Q347 314 347 315Q340 312 327.0 307.0Q314 302 304 298L298 311L355 336Q374 336 376 309Q377 302 377.5 291.0Q378 280 377 263Q386 262 395.5 262.0Q405 262 415 262ZM554 558 560 565 558 586 552 577ZM789 122 792 127Q785 130 773.5 132.0Q762 134 752 135Q741 136 731.5 136.0Q722 136 717 136Q711 140 704.5 145.5Q698 151 690 165Q688 170 681.5 196.5Q675 223 668.0 259.5Q661 296 655 330Q647 388 637.0 445.0Q627 502 618 560L612 554L654 273Q657 260 662.5 237.0Q668 214 674.5 192.0Q681 170 685 160Q690 149 697.5 141.5Q705 134 712 128Q721 128 733.0 128.5Q745 129 750 128Q757 128 768.5 126.5Q780 125 789 122ZM534 533 543 544 542 557Q541 553 538.5 546.5Q536 540 534 533ZM580 505 600 508 596 534Q587 521 580 505ZM1134 408Q1156 413 1169.5 417.5Q1183 422 1183 428Q1183 451 1154.0 465.5Q1125 480 1073.5 488.5Q1022 497 955.5 500.5Q889 504 814 504Q752 504 647 493L655 448Q684 449 709.5 449.5Q735 450 752 450Q778 450 817.5 447.5Q857 445 902.0 441.0Q947 437 990.0 432.5Q1033 428 1067.5 423.0Q1102 418 1119 414Q1123 413 1126.5 411.5Q1130 410 1134 408ZM553 446 609 448 603 488 569 484Q565 475 561.0 465.5Q557 456 553 446ZM336 441 363 442 466 444 489 475 334 455Q336 447 336 441ZM204 326Q212 329 229.0 337.0Q246 345 258 353Q280 366 298.5 389.5Q317 413 317 441Q317 456 302 456Q290 456 264.0 442.5Q238 429 218 416H193Q196 403 196 385Q196 355 187 332ZM138 307Q155 307 166.0 330.0Q177 353 177 385Q177 416 168.5 427.0Q160 438 145 438Q130 438 118.0 413.0Q106 388 106 362Q106 337 114.0 322.0Q122 307 138 307ZM1097 298Q1112 298 1131.5 299.5Q1151 301 1168.5 303.5Q1186 306 1192 309Q1213 318 1213 332Q1213 341 1197.0 353.0Q1181 365 1157.5 377.0Q1134 389 1113 395Q1099 399 1067.0 404.0Q1035 409 992.5 413.5Q950 418 904.5 421.5Q859 425 819.0 427.5Q779 430 752 430Q735 430 711.0 430.0Q687 430 658 429Q663 406 666.0 382.0Q669 358 673 334Q725 329 786.0 323.0Q847 317 907.5 311.0Q968 305 1017.5 301.5Q1067 298 1097 298ZM625 338Q622 359 619.0 382.0Q616 405 612 429L545 427Q542 419 538.5 411.0Q535 403 532 395Q527 385 520.5 373.5Q514 362 506 351Q542 347 573.0 344.0Q604 341 623 339ZM426 360Q431 377 438.0 394.5Q445 412 452 425L363 422L334 421Q332 408 326.0 397.0Q320 386 312 375Q329 373 359.5 369.0Q390 365 426 360ZM140 380Q131 380 127.0 387.0Q123 394 123 403Q123 412 128.0 418.5Q133 425 140 425Q158 425 158 403Q158 393 153.5 386.5Q149 380 140 380ZM140 393Q146 393 146 403Q146 406 145.0 409.5Q144 413 140 413Q136 413 134.5 409.5Q133 406 133 403Q133 393 140 393ZM935 209Q948 209 967.0 216.5Q986 224 1001.0 233.5Q1016 243 1015 247Q1013 254 985 262Q975 265 952.0 271.5Q929 278 903.0 285.0Q877 292 854 296Q811 301 766.5 305.5Q722 310 676 314Q678 301 680.5 287.5Q683 274 685 261Q711 254 746.5 245.0Q782 236 830 225Q853 219 883.0 214.0Q913 209 935 209ZM350 265Q351 271 350.5 280.0Q350 289 350 295L311 279Q304 276 298.5 275.5Q293 275 290 275Q301 272 318.0 269.5Q335 267 350 265ZM140 146 185 162 206 226Q213 231 221.5 238.5Q230 246 234 249Q238 252 242.5 259.0Q247 266 250 270Q249 271 247.5 271.5Q246 272 244 273L234 256L172 223ZM676 142Q672 146 669 152Q664 165 655.0 195.5Q646 226 640 251Q619 256 607.5 258.0Q596 260 589 261Q591 246 592.5 221.0Q594 196 596.0 175.5Q598 155 601 153Q609 152 622.0 150.0Q635 148 646 147Q654 146 661.5 145.0Q669 144 676 142ZM395 141Q393 149 392.5 170.5Q392 192 392.0 213.5Q392 235 391 243H376Q375 226 369.5 202.5Q364 179 361 165Q368 161 376.5 155.0Q385 149 395 141Z" />
  </g>
</svg>