<svg xmlns="http://www.w3.org/2000/svg" viewBox="48.714285714285715 111 1180.2857142857142 330.42105263157896">
  <g transform="translate(0, 552.421052631579) scale(1, -1)">
    <path fill="black" d="M1202 111 1110 188Q1108 187 1107.5 187.5Q1107 188 1105 187L1121 127L1113 126L1087 186Q1083 188 1072 189L1086 131L1076 129L1048 196L1035 199L1040 140L1032 137L1006 207Q1003 208 1001.0 208.0Q999 208 996 209L1002 151L994 148L972 215L962 217L964 161H954L940 222Q936 223 932.0 223.5Q928 224 923 225L933 167L923 163L890 231L872 234L882 179L875 177L843 238L830 240L846 179L838 175L796 243H788L801 178L792 175L763 244H753L759 180L751 179L724 244Q722 244 720.5 243.5Q719 243 717 243L721 175L712 174L690 242Q686 242 682.0 241.5Q678 241 673 241L693 181L683 175L644 239L627 237L648 180L640 177L596 234L582 233L604 173L596 171L550 229L538 228L562 162L549 158L507 224Q503 224 499.5 223.5Q496 223 491 222L525 164L517 156L457 218L439 216L479 150L467 146L414 212Q410 211 406.5 211.0Q403 211 399 210L419 144L407 140L371 207L347 205L364 139L353 135L315 205Q305 207 297 208L320 141L310 136L259 216Q252 212 239.5 208.5Q227 205 214 205Q196 205 179.0 216.0Q162 227 154 244Q120 235 103.5 208.0Q87 181 81 149Q80 140 77.0 131.5Q74 123 64 123Q53 123 50.5 131.0Q48 139 49 154Q52 198 80.0 232.0Q108 266 151 278Q151 278 150.5 278.5Q150 279 151 280Q111 298 89.5 334.0Q68 370 69 412Q70 428 73.5 435.5Q77 443 87 441Q98 440 99.5 431.5Q101 423 102 414Q104 380 119.0 350.5Q134 321 168 310Q187 327 211 327Q227 327 238.5 322.0Q250 317 257 312L300 403L313 399L297 330Q302 332 307.5 333.5Q313 335 318 336L343 403L355 400L347 343L358 344L388 408H399L389 348L407 350L447 420L460 415L441 352Q446 352 450.0 352.0Q454 352 458 353L490 420L502 416L489 354H501L535 421L547 416L530 356H543L573 424H585L575 357Q579 358 583.5 358.0Q588 358 592 358L633 425L644 422L627 359H641L673 426L683 424L669 359Q675 359 680.5 358.5Q686 358 690 358L724 425L733 422L719 357H732L765 424L775 420L762 355Q765 355 768.0 354.5Q771 354 774 354L810 423L821 419L804 352L814 351L854 413L864 410L842 347L857 345L898 405L907 401L884 340L903 336L938 397L947 395L931 330Q937 328 939 328L983 383L992 377L968 319L983 314L1020 372L1030 367L1007 305L1015 302L1057 351L1063 347L1037 292Q1039 291 1041.5 290.0Q1044 289 1045 288L1107 325L1109 320L1067 277L1078 272L1131 301L1135 294L1098 260Q1106 256 1108 253L1166 275L1167 267L1123 239Q1125 236 1125.5 234.5Q1126 233 1127 229L1226 244L1229 231L1129 209Q1128 208 1128.5 206.5Q1129 205 1128 203L1209 119ZM156 293 158 298Q121 312 105.5 343.5Q90 375 88 413Q87 418 87.0 423.0Q87 428 86 428Q85 428 83 412Q80 374 100.0 341.5Q120 309 156 293ZM1106 227Q1105 229 1103.0 231.0Q1101 233 1098 237Q1094 241 1072.5 253.0Q1051 265 1019.0 279.5Q987 294 950 305Q884 325 804.5 332.0Q725 339 651 339Q590 339 532.5 336.0Q475 333 422 331Q361 328 327.5 319.0Q294 310 280.0 298.5Q266 287 263 275Q268 274 281.0 270.5Q294 267 315 267Q324 267 352.5 271.0Q381 275 418 279Q463 286 517.0 292.5Q571 299 622.5 304.0Q674 309 711 309Q770 309 837.0 302.5Q904 296 973.0 278.5Q1042 261 1106 227ZM214 225Q225 225 234.0 227.5Q243 230 248 232Q244 240 243.0 249.0Q242 258 242 268Q242 282 248 294Q245 296 235.5 302.0Q226 308 211 308Q196 308 182.5 297.0Q169 286 169 266Q169 249 183.5 237.0Q198 225 214 225ZM1091 205Q1099 205 1102 206Q1039 240 971.0 258.0Q903 276 836.5 283.0Q770 290 711 290Q674 290 623.0 285.0Q572 280 519.0 273.0Q466 266 421 260Q383 255 354.5 251.5Q326 248 315 248Q295 248 282.0 250.5Q269 253 262 255Q264 242 277.5 233.0Q291 224 336 224Q347 224 372.5 227.5Q398 231 434 235Q479 241 534.0 248.0Q589 255 647.5 259.5Q706 264 758 264Q810 264 867.0 254.5Q924 245 975.0 233.0Q1026 221 1059 213Q1071 210 1080.0 207.5Q1089 205 1091 205ZM64 137Q65 137 65.5 142.0Q66 147 67 151Q74 189 93.0 218.5Q112 248 150 258Q150 259 149.5 260.5Q149 262 149 263Q112 252 88.5 221.5Q65 191 63 153Q63 137 64 137Z" />
  </g>
</svg>