<svg xmlns="http://www.w3.org/2000/svg" viewBox="49 106 464 767">
  <g transform="translate(0, 979) scale(1, -1)">
    <path fill="black" d="M468 106Q419 116 362.5 145.0Q306 174 250.5 220.0Q195 266 149.5 327.5Q104 389 76.5 464.5Q49 540 49 628Q49 674 55.5 719.5Q62 765 71.5 805.0Q81 845 88 873H119Q126 839 148.0 791.0Q170 743 203.0 693.0Q236 643 277.0 601.5Q318 560 362 538Q362 527 361.5 513.5Q361 500 361 489Q361 403 378.0 337.5Q395 272 429.0 217.0Q463 162 513 106ZM468 126H470Q427 175 398.5 226.5Q370 278 356.0 341.5Q342 405 342 489V526Q299 550 259.5 590.0Q220 630 188.0 677.5Q156 725 134.0 771.5Q112 818 103 853Q96 828 88.0 790.5Q80 753 74.0 710.5Q68 668 68 628Q68 545 94.0 473.0Q120 401 163.5 342.0Q207 283 259.5 238.0Q312 193 366.5 165.0Q421 137 468 126Z" />
  </g>
</svg>