<svg xmlns="http://www.w3.org/2000/svg" viewBox="49 106 464 767">
  <g transform="translate(0, 979) scale(1, -1)">
    <path fill="black" d="M49 106Q100 162 133.5 217.0Q167 272 184.0 337.5Q201 403 201 489Q201 500 200.5 513.5Q200 527 200 538Q244 560 285.0 601.5Q326 643 359.0 693.0Q392 743 414.0 791.0Q436 839 443 873H474Q482 845 491.0 805.0Q500 765 506.5 719.5Q513 674 513 628Q513 540 485.5 464.5Q458 389 412.5 327.5Q367 266 311.5 220.0Q256 174 199.5 145.0Q143 116 94 106ZM92 126H94Q141 136 195.5 164.5Q250 193 302.5 238.0Q355 283 398.5 342.0Q442 401 468.0 473.0Q494 545 494 628Q494 668 488.0 710.5Q482 753 474.0 790.5Q466 828 459 853Q450 818 428.0 771.5Q406 725 374.0 677.5Q342 630 302.5 590.0Q263 550 220 526V489Q220 405 206.0 341.5Q192 278 163.5 226.5Q135 175 92 126Z" />
  </g>
</svg>