<svg xmlns="http://www.w3.org/2000/svg" viewBox="49 -136 840 1137">
  <g transform="translate(0, 865) scale(1, -1)">
    <path fill="black" d="M396 -136Q381 -136 357.0 -132.5Q333 -129 313 -124V-105Q354 -79 376.0 -63.5Q398 -48 414 -35L413 -23Q325 107 283.5 238.0Q242 369 242 482Q242 499 244.0 521.5Q246 544 248 559Q234 557 210.5 553.5Q187 550 165 550Q113 550 81.0 562.5Q49 575 49 588V612Q49 626 62.5 657.0Q76 688 97.5 722.5Q119 757 143 781Q177 816 198.5 844.0Q220 872 227 882Q229 886 230.5 891.0Q232 896 233 901Q236 914 241.5 928.0Q247 942 257 952Q276 972 310.0 986.5Q344 1001 392 1001V971Q373 963 349.0 943.0Q325 923 310 906L367 935L393 905L348 861L294 837L261 828Q257 818 245.0 795.0Q233 772 218.0 743.5Q203 715 188.0 687.5Q173 660 161 640Q187 643 211.0 646.0Q235 649 261 652Q264 660 274.0 678.5Q284 697 299.5 717.0Q315 737 336.0 751.0Q357 765 384 765Q416 765 435.0 753.5Q454 742 469 725Q483 742 502.5 753.5Q522 765 553 765Q580 765 603.5 747.0Q627 729 646.0 703.0Q665 677 676 652Q702 649 725.0 646.5Q748 644 776 640Q766 658 751.0 684.5Q736 711 721.5 739.0Q707 767 694.5 791.0Q682 815 676 828L643 837L590 861L544 905L570 935L625 906Q610 923 587.0 943.0Q564 963 546 971V1001Q594 1001 628.0 986.5Q662 972 681 952Q692 942 696.5 928.0Q701 914 704 901Q706 896 707.5 891.0Q709 886 711 882Q718 872 739.5 844.0Q761 816 795 781Q819 757 840.5 722.5Q862 688 875.5 657.0Q889 626 889 612V588Q889 575 856.5 562.5Q824 550 773 550Q756 550 731.0 553.0Q706 556 689 559Q691 546 693.0 525.5Q695 505 695 482Q695 370 654.0 239.0Q613 108 524 -22L525 -34Q548 -53 570.0 -68.5Q592 -84 625 -105V-124Q605 -129 581.0 -132.5Q557 -136 542 -136Q518 -136 499.5 -121.5Q481 -107 469 -91Q457 -107 438.0 -121.5Q419 -136 396 -136ZM396 -117Q417 -117 437.0 -95.5Q457 -74 469 -54Q481 -74 500.5 -95.5Q520 -117 542 -117Q553 -117 568.0 -115.0Q583 -113 596 -111Q571 -94 550.5 -78.0Q530 -62 505 -42V-16Q594 113 635.0 242.0Q676 371 676 482Q676 508 672.5 537.0Q669 566 665 584Q687 580 719.0 575.0Q751 570 773 570Q816 570 842.5 578.5Q869 587 869 593V612Q869 625 856.5 653.0Q844 681 824.0 713.0Q804 745 781 768Q747 803 724.5 831.5Q702 860 694 871Q690 880 686 896Q683 907 679.0 919.0Q675 931 667 938Q648 958 620.5 972.5Q593 987 561 986L565 983Q589 971 615.0 944.5Q641 918 655 897L640 881L576 912L571 906L600 877Q613 872 624.5 866.5Q636 861 649 855L692 843Q692 841 702.0 821.5Q712 802 727.0 773.5Q742 745 759.0 714.0Q776 683 790.5 656.5Q805 630 814 616L662 634Q653 658 636.5 684.0Q620 710 599.0 728.0Q578 746 553 746Q525 746 507.5 733.0Q490 720 476 705H461Q448 720 430.5 733.0Q413 746 384 746Q360 746 338.5 728.0Q317 710 300.5 684.0Q284 658 275 634L123 616Q132 630 147.0 656.5Q162 683 178.5 714.0Q195 745 210.0 773.5Q225 802 235.0 821.5Q245 841 245 843L289 855Q301 860 313.0 866.5Q325 873 337 877L366 906L361 912Q346 905 329.0 896.5Q312 888 298 881L283 897Q292 911 307.5 928.0Q323 945 341.0 960.0Q359 975 375 982L372 981Q338 980 312.5 967.5Q287 955 271 938Q263 931 259.0 919.0Q255 907 252 896Q250 889 248.0 882.5Q246 876 243 871Q236 860 213.5 831.5Q191 803 156 768Q134 745 114.0 713.0Q94 681 81.0 653.0Q68 625 68 612V593Q68 587 95.0 578.5Q122 570 165 570Q186 570 218.5 575.0Q251 580 273 584Q269 566 265.5 537.0Q262 508 262 482Q262 371 303.0 242.0Q344 113 432 -16V-42Q407 -62 386.5 -78.0Q366 -94 341 -111Q355 -113 370.0 -115.0Q385 -117 396 -117ZM460 -5Q380 121 338.5 237.0Q297 353 297 480Q297 551 308.0 594.0Q319 637 335.0 660.0Q351 683 367.5 691.0Q384 699 395 699Q413 699 434.5 687.5Q456 676 469 656Q483 676 503.5 687.5Q524 699 543 699Q554 699 570.5 691.0Q587 683 603.0 660.0Q619 637 630.0 594.0Q641 551 641 480Q641 353 599.5 237.0Q558 121 477 -5ZM469 19Q544 138 582.5 248.5Q621 359 621 480Q621 544 612.5 583.5Q604 623 591.0 643.5Q578 664 565.0 671.5Q552 679 543 679Q526 679 504.0 660.0Q482 641 469 608Q456 641 434.0 660.0Q412 679 395 679Q386 679 373.0 671.5Q360 664 346.5 643.5Q333 623 324.5 583.5Q316 544 316 480Q316 359 354.5 248.5Q393 138 469 19Z" />
  </g>
</svg>