<svg xmlns="http://www.w3.org/2000/svg" viewBox="49 -134 244 1132">
  <g transform="translate(0, 864) scale(1, -1)">
    <path fill="black" d="M171 -134Q150 -118 125.5 -89.5Q101 -61 84.0 -29.0Q67 3 67 31V684Q67 737 94.0 789.5Q121 842 158 885Q130 917 101.0 941.5Q72 966 49 982L60 998Q83 982 112.5 956.5Q142 931 171 899Q200 931 229.5 956.5Q259 982 282 998L293 982Q270 966 241.0 941.5Q212 917 183 885Q221 842 248.0 789.5Q275 737 275 684V31Q275 3 258.0 -29.0Q241 -61 217.0 -89.5Q193 -118 171 -134ZM88 709H253Q248 753 224.5 794.0Q201 835 171 871Q140 835 117.0 794.0Q94 753 88 709ZM171 -111Q190 -94 209.5 -69.5Q229 -45 242.0 -18.5Q255 8 255 31V690H86V31Q86 8 99.0 -18.5Q112 -45 132.0 -69.5Q152 -94 171 -111Z" />
  </g>
</svg>