<svg xmlns="http://www.w3.org/2000/svg" viewBox="49 -141 1250.5 1141">
  <g transform="translate(0, 859) scale(1, -1)">
    <path fill="black" d="M586 -141Q591 -124 597.5 -97.5Q604 -71 607 -52Q594 -53 581.5 -55.5Q569 -58 557 -60Q522 -64 485.5 -69.0Q449 -74 413 -74Q374 -74 350.5 -68.0Q327 -62 311.5 -50.5Q296 -39 281 -21L244 24Q237 33 227.0 44.5Q217 56 208 56Q204 56 199.0 55.0Q194 54 190 53Q181 51 169.0 48.5Q157 46 143 46Q106 46 77.5 62.0Q49 78 49 106Q49 126 68.5 149.5Q88 173 125 183L58 248Q48 256 53.5 269.0Q59 282 72 282Q81 282 89 274L173 192L258 274Q267 282 276 282Q290 282 294.5 269.0Q299 256 291 248L222 183Q251 173 269.5 155.5Q288 138 294 129L326 88Q335 75 348.5 62.5Q362 50 381 50Q404 50 434.5 59.5Q465 69 505 83Q517 86 534.0 91.5Q551 97 571 101Q550 134 521.5 158.0Q493 182 466.0 198.5Q439 215 420 226L565 898Q567 906 571.5 922.5Q576 939 587.0 957.0Q598 975 617.5 987.5Q637 1000 668 1000Q700 1000 719.5 987.5Q739 975 749.5 957.0Q760 939 765.0 922.5Q770 906 771 898L917 226Q896 214 866.0 195.5Q836 177 806.0 149.5Q776 122 755 83L797 65Q819 56 860.0 40.0Q901 24 957.5 11.5Q1014 -1 1082 -1Q1123 -1 1153.0 0.5Q1183 2 1212.0 5.5Q1241 9 1277 14Q1289 16 1295.0 7.0Q1301 -2 1299.0 -13.0Q1297 -24 1286 -30Q1234 -55 1181.0 -64.5Q1128 -74 1076 -74Q1025 -74 967.0 -68.5Q909 -63 855 -57Q820 -53 787.5 -49.5Q755 -46 729 -45Q731 -64 738.0 -92.5Q745 -121 751 -141ZM734 90Q754 129 783.0 156.0Q812 183 841.5 202.0Q871 221 894 235L752 895Q751 901 747.0 915.0Q743 929 734.0 944.0Q725 959 709.5 969.5Q694 980 668 980Q635 980 617.5 962.5Q600 945 593.5 924.5Q587 904 585 895L443 235Q464 222 491.0 204.5Q518 187 545.5 163.0Q573 139 593 105Q604 107 614.0 108.0Q624 109 634 109Q660 109 685.0 103.5Q710 98 734 90ZM204 188 273 254Q279 260 279 263Q279 266 276 266Q272 266 268 261L195 190ZM144 188 152 189 80 261Q76 266 72 266Q69 266 69 263Q69 260 75 254ZM413 -54Q448 -54 483.0 -49.5Q518 -45 554 -39Q590 -34 626.5 -29.5Q663 -25 703 -25Q732 -25 772.0 -28.5Q812 -32 856 -37Q910 -43 968.5 -48.5Q1027 -54 1076 -54Q1123 -54 1174.0 -44.0Q1225 -34 1269 -16Q1278 -12 1277.5 -9.0Q1277 -6 1269 -8Q1223 -16 1181.5 -18.5Q1140 -21 1082 -21Q1016 -21 958.5 -8.5Q901 4 858.0 20.0Q815 36 791 46Q756 61 714.5 75.5Q673 90 634 90Q601 90 566.0 80.0Q531 70 510 63Q470 50 438.5 40.0Q407 30 381 30Q355 30 339.0 45.0Q323 60 312 74L281 116Q276 123 262.5 136.0Q249 149 227.0 160.0Q205 171 175 171Q128 171 98.0 149.0Q68 127 68 106Q68 87 91.0 76.5Q114 66 145 66Q159 66 169.0 68.0Q179 70 186 71Q192 73 197.5 74.0Q203 75 208 75Q224 75 236.5 61.5Q249 48 257 38L294 -8Q311 -27 335.5 -40.5Q360 -54 413 -54ZM167 126Q152 126 152 141Q152 156 167 156Q172 156 176.5 151.5Q181 147 181 141Q181 135 176.5 130.5Q172 126 167 126ZM612 -121H725Q721 -106 715.5 -83.0Q710 -60 708 -44H703Q684 -44 665.0 -45.5Q646 -47 627 -49Q625 -65 620.5 -86.0Q616 -107 612 -121Z" />
  </g>
</svg>