<svg xmlns="http://www.w3.org/2000/svg" viewBox="49 72 716 820">
  <g transform="translate(0, 964) scale(1, -1)">
    <path fill="black" d="M755 72Q702 77 633.0 93.5Q564 110 490.0 139.5Q416 169 348.0 212.0Q280 255 229 311Q183 362 163.5 406.0Q144 450 139.0 481.5Q134 513 133 526Q127 543 121.0 563.0Q115 583 108 605Q98 636 87.0 670.5Q76 705 66.0 736.5Q56 768 49 788L73 798Q97 758 138.5 717.5Q180 677 231 648Q218 628 203.5 593.0Q189 558 189 525Q189 480 213.0 431.0Q237 382 272 344Q298 316 326.5 293.0Q355 270 382 252Q344 299 321.5 349.0Q299 399 287 445Q272 504 269.0 554.5Q266 605 266 633Q266 639 266.0 644.0Q266 649 265 653V652Q258 685 249.5 723.0Q241 761 231 797Q226 817 220.0 842.0Q214 867 210 883L235 892Q258 852 303.0 812.0Q348 772 394 744Q366 716 343.5 675.5Q321 635 321 590Q321 539 332.5 486.5Q344 434 366 381Q395 310 449.0 255.5Q503 201 559 175Q495 235 468.0 299.5Q441 364 432 437Q425 463 415.5 497.5Q406 532 395.5 568.5Q385 605 375.0 638.5Q365 672 357 695L381 705Q404 662 443.5 628.5Q483 595 533 565Q520 546 504.5 511.5Q489 477 488 443Q487 391 509.5 340.0Q532 289 558 254Q593 208 623.5 182.5Q654 157 688.0 142.0Q722 127 765 112ZM740 93 742 99Q702 113 670.0 128.0Q638 143 607.5 169.5Q577 196 542 242Q524 267 507.0 300.0Q490 333 479.0 370.0Q468 407 469 444Q470 472 482.0 505.0Q494 538 505 559Q471 580 441.5 603.5Q412 627 390 655Q401 623 412.0 584.0Q423 545 433.5 507.5Q444 470 451 441Q458 388 473.5 339.5Q489 291 523.0 244.5Q557 198 618 150L610 134Q559 151 507.5 183.5Q456 216 414.0 264.0Q372 312 347 373Q325 427 313.5 481.5Q302 536 302 590Q302 632 320.5 669.0Q339 706 364 740Q330 762 295.5 789.5Q261 817 236 854Q239 841 242.5 828.5Q246 816 250 802Q259 765 268.5 727.5Q278 690 285 657V633Q286 605 288.5 556.0Q291 507 306 450Q320 392 352.0 330.5Q384 269 445 215L434 199Q398 219 348.5 252.0Q299 285 257 330Q220 371 194.5 423.5Q169 476 169 525Q169 554 180.5 587.5Q192 621 203 642Q167 662 136.5 690.0Q106 718 83 747Q94 717 105.0 681.5Q116 646 126 611Q134 589 140.5 568.0Q147 547 152 530Q153 518 158.0 487.0Q163 456 182.0 413.0Q201 370 243 323Q291 270 355.0 229.5Q419 189 489.0 160.5Q559 132 624.5 115.0Q690 98 740 93Z" />
  </g>
</svg>