<svg xmlns="http://www.w3.org/2000/svg" viewBox="49 71 1266 342">
  <g transform="translate(0, 484) scale(1, -1)">
    <path fill="black" d="M192 71Q153 71 118.5 78.0Q84 85 62 96L63 136Q86 132 115.0 129.5Q144 127 169 127Q184 127 202.5 129.5Q221 132 240 137Q217 157 187.5 186.0Q158 215 129.5 251.0Q101 287 79.5 327.5Q58 368 49 410H97Q111 376 140.0 338.5Q169 301 205.5 266.0Q242 231 277.0 204.5Q312 178 336 166Q389 183 444.0 206.5Q499 230 552 257Q513 275 461.5 305.0Q410 335 371 377L396 413Q499 353 589.5 321.0Q680 289 763.5 277.0Q847 265 926 265Q962 265 1014.0 268.0Q1066 271 1121.5 275.5Q1177 280 1224.0 284.5Q1271 289 1295 292L1315 190L952 187Q899 187 847.5 174.5Q796 162 751.0 143.5Q706 125 670 107L647 146Q670 163 697.0 179.0Q724 195 761 211L676 221Q585 181 495.0 146.5Q405 112 327.0 91.5Q249 71 192 71ZM192 90Q247 90 325.0 111.0Q403 132 492.5 166.5Q582 201 673 242L796 224L797 202Q766 192 733.0 176.5Q700 161 678 144L682 136Q732 160 802.5 182.5Q873 205 952 206L1290 209L1279 269Q1252 266 1206.5 262.0Q1161 258 1109.0 254.5Q1057 251 1008.5 248.5Q960 246 926 246Q846 246 762.5 257.5Q679 269 589.0 300.0Q499 331 401 387L396 379Q436 338 493.5 308.0Q551 278 606 259Q540 227 493.5 206.0Q447 185 409.0 171.5Q371 158 332 146Q308 157 273.0 183.5Q238 210 201.0 245.0Q164 280 132.5 318.0Q101 356 83 390H74Q86 352 112.0 312.5Q138 273 170.5 237.5Q203 202 234.0 174.0Q265 146 286 129Q263 121 229.0 114.0Q195 107 168 107Q147 107 123.0 109.0Q99 111 82 114V105Q99 98 131.5 94.0Q164 90 192 90Z" />
  </g>
</svg>