<svg xmlns="http://www.w3.org/2000/svg" viewBox="49 -22 354 1026">
  <g transform="translate(0, 982) scale(1, -1)">
    <path fill="black" d="M199 -22Q186 -22 176.0 -17.0Q166 -12 166 0V450Q117 455 83.0 474.5Q49 494 49 541Q49 577 64.5 595.5Q80 614 107.0 622.0Q134 630 166 632V878Q166 907 181.0 936.0Q196 965 225.5 984.5Q255 1004 300 1004Q329 1004 352.5 994.0Q376 984 389.5 970.0Q403 956 403 944Q403 924 391.5 917.0Q380 910 366 910Q360 910 354.5 913.0Q349 916 342 920H343Q336 925 326.5 930.0Q317 935 304 935Q275 935 259.5 919.0Q244 903 238.5 880.5Q233 858 233 840V0Q233 -11 222.5 -16.5Q212 -22 199 -22ZM199 -3Q204 -3 208.5 -2.0Q213 -1 213 0V840Q213 862 220.5 889.0Q228 916 247.5 935.5Q267 955 304 955Q321 955 332.5 948.5Q344 942 354 936Q362 930 366 930Q373 930 378.5 932.5Q384 935 384 944Q384 955 359.5 969.5Q335 984 300 984Q262 984 236.5 967.5Q211 951 198.0 926.5Q185 902 185 878V0Q185 -1 189.5 -2.0Q194 -3 199 -3ZM166 464V477Q132 479 104.5 491.5Q77 504 77 541Q77 579 104.5 591.5Q132 604 166 605V617Q138 616 114.5 609.5Q91 603 77.0 587.5Q63 572 63 541Q63 501 93.0 484.5Q123 468 166 464ZM166 492V590Q137 588 114.5 578.0Q92 568 92 541Q92 514 114.5 504.0Q137 494 166 492Z" />
  </g>
</svg>