<svg xmlns="http://www.w3.org/2000/svg" viewBox="49 -22 698 1026">
  <g transform="translate(0, 982) scale(1, -1)">
    <path fill="black" d="M398 -22Q334 -22 271.5 -15.5Q209 -9 159.0 3.0Q109 15 79.0 32.0Q49 49 49 70Q49 90 75.5 106.0Q102 122 147.0 134.5Q192 147 248.5 154.0Q305 161 365 163V499Q316 503 282.0 522.5Q248 542 248 590Q248 626 263.5 644.5Q279 663 306.0 671.0Q333 679 365 681V878Q365 907 380.0 936.0Q395 965 425.0 984.5Q455 1004 499 1004Q528 1004 551.5 994.0Q575 984 589.0 970.0Q603 956 603 944Q603 924 591.0 917.0Q579 910 565 910Q559 910 553.5 913.0Q548 916 542 920Q535 925 526.0 930.0Q517 935 503 935Q474 935 458.5 919.0Q443 903 437.5 880.5Q432 858 432 840V163Q492 161 548.5 154.0Q605 147 650.0 134.5Q695 122 721.0 106.0Q747 90 747 70Q747 49 717.0 32.0Q687 15 637.0 3.0Q587 -9 525.0 -15.5Q463 -22 398 -22ZM384 163H413V840Q413 862 420.5 889.0Q428 916 447.5 935.5Q467 955 503 955Q520 955 532.0 948.5Q544 942 553 936Q561 930 565 930Q573 930 578.0 932.5Q583 935 583 944Q583 955 558.5 969.5Q534 984 499 984Q461 984 435.5 967.5Q410 951 397.0 926.5Q384 902 384 878ZM365 513V526Q331 527 303.5 540.0Q276 553 276 590Q276 628 303.5 640.5Q331 653 365 654V666Q324 664 293.5 649.5Q263 635 263 590Q263 550 293.0 533.5Q323 517 365 513ZM365 541V639Q336 637 313.5 627.0Q291 617 291 590Q291 563 313.5 553.0Q336 543 365 541ZM398 -3Q459 -3 517.5 3.5Q576 10 623.0 20.5Q670 31 697.5 44.0Q725 57 725 70Q725 83 697.5 96.0Q670 109 623.0 120.0Q576 131 517.5 137.5Q459 144 398 144Q337 144 278.5 137.5Q220 131 173.0 120.0Q126 109 98.5 96.0Q71 83 71 70Q71 57 98.5 44.0Q126 31 173.0 20.5Q220 10 278.5 3.5Q337 -3 398 -3Z" />
  </g>
</svg>