<svg xmlns="http://www.w3.org/2000/svg" viewBox="49 -22 354 1026">
  <g transform="translate(0, 982) scale(1, -1)">
    <path fill="black" d="M71 -22V228H166V459Q117 464 83.0 483.5Q49 503 49 551Q49 587 64.5 605.5Q80 624 107.0 632.0Q134 640 166 642V878Q166 907 181.0 936.0Q196 965 225.5 984.5Q255 1004 300 1004Q329 1004 352.5 994.0Q376 984 389.5 970.0Q403 956 403 944Q403 924 391.5 917.0Q380 910 366 910Q360 910 354.5 913.0Q349 916 342 920H343Q336 925 326.5 930.0Q317 935 304 935Q275 935 259.5 919.0Q244 903 238.5 880.5Q233 858 233 840V228H321V-22ZM185 228H213V840Q213 862 220.5 889.0Q228 916 247.5 935.5Q267 955 304 955Q321 955 332.5 948.5Q344 942 354 936Q362 930 366 930Q373 930 378.5 932.5Q384 935 384 944Q384 955 359.5 969.5Q335 984 300 984Q262 984 236.5 967.5Q211 951 198.0 926.5Q185 902 185 878ZM166 474V487Q132 488 104.5 500.5Q77 513 77 551Q77 589 104.5 601.5Q132 614 166 615V627Q124 625 93.5 610.5Q63 596 63 551Q63 511 93.0 494.5Q123 478 166 474ZM166 502V600Q137 598 114.5 588.0Q92 578 92 551Q92 524 114.5 514.0Q137 504 166 502ZM90 -2H301V208H90Z" />
  </g>
</svg>