<svg xmlns="http://www.w3.org/2000/svg" viewBox="49 172 1183 620">
  <g transform="translate(0, 964) scale(1, -1)">
    <path fill="black" d="M251 172Q236 172 211.5 174.0Q187 176 159.0 184.0Q131 192 106.0 210.0Q81 228 65.0 258.5Q49 289 49 336Q49 392 72.0 424.5Q95 457 128.5 473.5Q162 490 193 496V595Q170 604 158 637L142 679Q138 690 125.0 707.5Q112 725 84 734V754Q107 767 140.5 779.5Q174 792 220 792Q267 792 300.5 779.5Q334 767 356 754V734Q328 725 315.5 707.5Q303 690 298 679L283 637Q269 604 248 595V501H386V542Q379 544 369.0 551.0Q359 558 359 578Q359 592 363.0 619.5Q367 647 374.0 676.5Q381 706 390.5 726.5Q400 747 411 747Q422 747 431.5 726.5Q441 706 448.0 676.5Q455 647 459.0 619.5Q463 592 463 578Q463 558 453.5 551.0Q444 544 436 542V501H613V595Q590 604 578 637L563 679Q559 690 546.0 707.5Q533 725 505 734V754Q527 767 560.5 779.5Q594 792 641 792Q688 792 721.0 779.5Q754 767 776 754V734Q749 725 736.0 707.5Q723 690 719 679L703 637Q691 604 668 595V501H845V542Q838 544 828.0 551.0Q818 558 818 578Q818 592 822.0 619.5Q826 647 833.0 676.5Q840 706 849.5 726.5Q859 747 870 747Q881 747 890.5 726.5Q900 706 907.0 676.5Q914 647 918.0 619.5Q922 592 922 578Q922 558 912.5 551.0Q903 544 895 542V501H1034V595Q1011 604 999 637L983 679Q979 690 966.0 707.5Q953 725 925 734V754Q948 767 981.5 779.5Q1015 792 1061 792Q1108 792 1141.5 779.5Q1175 767 1197 754V734Q1169 725 1156.5 707.5Q1144 690 1139 679L1124 637Q1110 603 1088 595V496Q1120 490 1153.0 473.5Q1186 457 1209.0 424.5Q1232 392 1232 336Q1232 289 1216.0 258.5Q1200 228 1175.5 210.0Q1151 192 1123.0 184.0Q1095 176 1070.0 174.0Q1045 172 1030 172ZM251 191H1030Q1047 191 1077.0 194.5Q1107 198 1138.5 211.5Q1170 225 1191.5 254.5Q1213 284 1213 336Q1213 376 1199.0 402.0Q1185 428 1162.5 444.0Q1140 460 1115.0 468.0Q1090 476 1069 479V609Q1080 613 1090.0 621.5Q1100 630 1105 644L1121 686Q1125 697 1137.5 716.0Q1150 735 1175 747Q1159 756 1132.0 764.5Q1105 773 1061 773Q1021 773 993.0 764.0Q965 755 946 744Q972 734 984.5 715.5Q997 697 1001 686Q1005 676 1009.0 665.5Q1013 655 1017 644Q1022 630 1032.0 621.5Q1042 613 1053 609V480Q1046 481 1040.5 481.0Q1035 481 1030 481H875V562Q884 561 893.5 564.5Q903 568 903 578Q903 590 899.5 612.5Q896 635 891.0 658.5Q886 682 880.5 698.5Q875 715 870 715Q866 715 860.0 698.5Q854 682 849.0 658.5Q844 635 840.5 612.5Q837 590 837 578Q837 568 846.5 564.5Q856 561 865 562V481H648V609Q660 613 670.0 621.5Q680 630 685 644L700 686Q705 697 717.0 716.0Q729 735 754 747Q738 756 711.0 764.5Q684 773 641 773Q598 773 571.0 764.5Q544 756 527 747Q552 735 564.5 716.0Q577 697 581 686L597 644Q607 617 633 609V481H417V562Q426 561 435.0 564.5Q444 568 444 578Q444 590 440.5 612.5Q437 635 432.0 658.5Q427 682 421.5 698.5Q416 715 411 715Q407 715 401.0 698.5Q395 682 390.0 658.5Q385 635 381.5 612.5Q378 590 378 578Q378 568 387.5 564.5Q397 561 406 562V481H251Q247 481 241.0 481.0Q235 481 228 480V609Q254 617 264 644Q268 655 272.0 665.5Q276 676 280 686Q284 697 296.5 715.5Q309 734 335 744Q316 755 288.5 764.0Q261 773 220 773Q177 773 150.0 764.5Q123 756 106 747Q132 735 144.5 716.0Q157 697 161 686L176 644Q181 630 191.0 621.5Q201 613 212 609V479Q191 476 166.0 468.0Q141 460 118.5 444.0Q96 428 82.0 402.0Q68 376 68 336Q68 284 90.0 254.5Q112 225 143.0 211.5Q174 198 204.5 194.5Q235 191 251 191ZM281 227Q265 227 237.0 229.5Q209 232 180.0 242.0Q151 252 130.5 274.0Q110 296 110 336Q110 375 130.5 397.0Q151 419 180.5 429.5Q210 440 238.0 443.0Q266 446 281 446H1000Q1015 446 1043.0 443.0Q1071 440 1100.5 429.5Q1130 419 1150.5 397.0Q1171 375 1171 336Q1171 296 1151.0 274.0Q1131 252 1101.5 242.0Q1072 232 1044.0 229.5Q1016 227 1000 227ZM281 246H1000Q1014 246 1039.0 248.0Q1064 250 1090.0 258.5Q1116 267 1134.0 285.0Q1152 303 1152 336Q1152 368 1133.5 386.5Q1115 405 1088.5 413.5Q1062 422 1037.5 424.5Q1013 427 1000 427H281Q268 427 243.5 424.5Q219 422 192.5 413.5Q166 405 147.5 386.5Q129 368 129 336Q129 303 147.0 285.0Q165 267 191.0 258.5Q217 250 242.0 248.0Q267 246 281 246Z" />
  </g>
</svg>