<svg xmlns="http://www.w3.org/2000/svg" viewBox="49 -41 1010.1333333333334 755">
  <g transform="translate(0, 673) scale(1, -1)">
    <path fill="black" d="M1035 -41Q1016 -41 1009.0 -21.5Q1002 -2 999 26Q992 78 982.5 137.0Q973 196 957.5 253.5Q942 311 917.0 360.0Q892 409 855.0 441.5Q818 474 765 483Q750 450 719.5 430.0Q689 410 655.0 400.5Q621 391 593 391Q523 391 454.0 407.5Q385 424 321.5 451.0Q258 478 204.5 509.5Q151 541 111.0 572.5Q71 604 49 628Q94 652 166.0 671.5Q238 691 327.5 702.5Q417 714 514 714Q593 714 650.0 690.0Q707 666 739.5 627.0Q772 588 775 544Q844 533 892.0 492.5Q940 452 971.5 392.0Q1003 332 1021.0 262.5Q1039 193 1047.5 124.0Q1056 55 1059 -3Q1060 -19 1053.5 -30.0Q1047 -41 1035 -41ZM587 411Q570 438 562.0 467.0Q554 496 554 524Q554 567 571.0 607.5Q588 648 620 680Q597 687 570.5 691.0Q544 695 514 695Q423 695 340.0 685.5Q257 676 190.5 659.5Q124 643 81 623Q110 594 162.0 558.0Q214 522 282.0 488.5Q350 455 428.0 433.5Q506 412 587 411ZM1035 -21Q1042 -21 1040 -3Q1039 42 1031.5 105.0Q1024 168 1007.0 236.0Q990 304 960.0 365.5Q930 427 885.0 469.5Q840 512 775 524L756 527Q757 570 727.0 610.0Q697 650 640 672Q608 643 591.0 604.0Q574 565 574 524Q574 495 582.5 466.0Q591 437 609 411Q636 414 666.0 424.5Q696 435 720.0 455.0Q744 475 752 505L771 502Q828 492 867.5 457.5Q907 423 933.5 372.5Q960 322 976.0 262.5Q992 203 1001.5 142.5Q1011 82 1018 28Q1020 7 1024.0 -7.0Q1028 -21 1035 -21Z" />
  </g>
</svg>