<svg xmlns="http://www.w3.org/2000/svg" viewBox="49 180 951 534">
  <g transform="translate(0, 894) scale(1, -1)">
    <path fill="black" d="M77 180Q65 180 57.0 184.5Q49 189 49 202Q49 216 63.5 229.0Q78 242 101 255Q110 260 135.0 272.5Q160 285 194.5 300.5Q229 316 268.0 330.0Q307 344 345.5 353.5Q384 363 416 363Q451 363 495.0 351.0Q539 339 586.0 324.0Q633 309 678.0 297.0Q723 285 761 285Q821 285 856.5 296.0Q892 307 909.5 324.0Q927 341 932.5 358.5Q938 376 938 389Q938 421 904.0 447.0Q870 473 786 484Q761 433 714.0 412.0Q667 391 615 391Q545 391 476.0 407.5Q407 424 343.5 451.0Q280 478 226.0 509.5Q172 541 132.0 572.5Q92 604 70 628Q116 652 187.5 671.5Q259 691 348.5 702.5Q438 714 536 714Q615 714 672.0 690.0Q729 666 761.0 627.0Q793 588 796 544Q847 538 893.5 521.5Q940 505 970.0 473.5Q1000 442 1000 392Q1000 334 969.5 296.5Q939 259 885.0 241.0Q831 223 760 223Q726 223 678.5 234.5Q631 246 581.0 261.5Q531 277 487.5 288.5Q444 300 417 300Q385 300 347.5 289.5Q310 279 273.0 264.5Q236 250 206.0 236.0Q176 222 160 215Q130 202 106.0 191.0Q82 180 77 180ZM609 411Q592 438 584.0 467.0Q576 496 576 524Q576 567 593.0 607.5Q610 648 642 680Q619 687 592.0 691.0Q565 695 536 695Q444 695 361.0 685.5Q278 676 211.5 659.5Q145 643 102 623Q131 594 183.0 558.0Q235 522 303.5 488.5Q372 455 450.0 433.5Q528 412 609 411ZM78 200Q81 200 102.5 209.5Q124 219 152 232Q172 241 203.0 255.5Q234 270 271.0 285.0Q308 300 346.0 310.0Q384 320 417 320Q444 320 488.0 308.0Q532 296 582.0 281.0Q632 266 679.5 254.0Q727 242 760 242Q858 242 919.5 279.0Q981 316 981 392Q981 438 951.0 466.0Q921 494 874.5 508.5Q828 523 779 527H777Q779 570 748.5 610.0Q718 650 662 672Q630 643 612.5 604.0Q595 565 595 524Q595 464 631 411Q663 412 693.0 424.5Q723 437 744.5 458.0Q766 479 774 505Q876 495 916.5 462.0Q957 429 957 389Q957 374 951.0 353.0Q945 332 925.5 312.5Q906 293 867.0 279.5Q828 266 761 266Q724 266 678.5 277.5Q633 289 585.5 304.5Q538 320 494.5 331.5Q451 343 416 343Q378 343 330.0 329.0Q282 315 236.5 296.0Q191 277 156.5 260.5Q122 244 111 238Q86 225 78.5 218.0Q71 211 71 203Q71 200 78 200Z" />
  </g>
</svg>