<svg xmlns="http://www.w3.org/2000/svg" viewBox="49 166 1174.0740740740741 535">
  <g transform="translate(0, 867) scale(1, -1)">
    <path fill="black" d="M333 166Q288 166 262.0 190.5Q236 215 236 260Q236 309 263.0 332.0Q290 355 333 355H1121Q1132 355 1143.0 365.0Q1154 375 1154 394Q1153 408 1144.0 420.5Q1135 433 1121 433H338Q325 385 273 368Q228 353 199.0 333.0Q170 313 150.5 288.5Q131 264 114 236H72Q66 265 60.5 308.0Q55 351 52.0 395.0Q49 439 49 468Q49 498 52.0 542.0Q55 586 60.5 629.5Q66 673 72 701H114Q131 673 150.5 648.5Q170 624 199.0 604.0Q228 584 273 569Q325 552 339 503H1121Q1136 503 1160.5 493.5Q1185 484 1204.0 460.5Q1223 437 1223 394Q1223 352 1206.0 328.0Q1189 304 1165.5 294.5Q1142 285 1121 285H333Q324 285 314.5 279.5Q305 274 305 260Q305 244 315.5 240.0Q326 236 333 236H1179Q1200 236 1211.0 226.5Q1222 217 1223 201Q1224 180 1211.5 173.0Q1199 166 1179 166ZM86 256H104Q128 297 163.5 330.0Q199 363 267 387Q293 396 308.5 417.5Q324 439 324 469Q324 498 308.5 520.0Q293 542 267 551Q202 574 165.5 609.0Q129 644 104 684H86Q81 658 77.0 618.0Q73 578 70.5 537.5Q68 497 68 468Q68 435 71.5 393.5Q75 352 79.5 315.0Q84 278 86 256ZM333 185H1179Q1190 185 1196.5 188.0Q1203 191 1203 200Q1203 216 1179 216H333Q321 216 303.0 224.0Q285 232 285 260Q285 286 301.5 295.0Q318 304 333 304H1121Q1138 304 1157.0 312.0Q1176 320 1189.5 339.5Q1203 359 1203 394Q1203 429 1187.5 448.5Q1172 468 1152.5 476.0Q1133 484 1121 484H343Q343 480 343.5 476.5Q344 473 344 469Q344 465 343.5 461.0Q343 457 343 453H1121Q1142 453 1157.0 434.0Q1172 415 1173 395Q1175 366 1157.0 350.5Q1139 335 1121 335H333Q299 335 277.0 316.5Q255 298 255 260Q255 225 276.0 205.0Q297 185 333 185Z" />
  </g>
</svg>