<svg xmlns="http://www.w3.org/2000/svg" viewBox="49 -86 897 1088">
  <g transform="translate(0, 916) scale(1, -1)">
    <path fill="black" d="M748 467Q748 495 760.5 516.0Q773 537 795 547L753 571L773 606L820 580V864Q820 869 816.0 873.5Q812 878 792 885L787 887Q777 892 761.5 903.0Q746 914 746 942Q746 971 770.0 986.5Q794 1002 833 1002Q865 1002 893.5 991.5Q922 981 936 971Q917 967 900.0 960.0Q883 953 883 942Q883 927 902.5 918.0Q922 909 936 906L874 880V580L921 606L941 571L898 547Q946 525 946 467ZM283 467Q283 525 331 547L288 571L308 606L355 580V864Q355 869 351.0 873.5Q347 878 327 885L322 887Q312 892 296.5 903.0Q281 914 281 942Q281 971 305.0 986.5Q329 1002 368 1002Q400 1002 428.5 991.5Q457 981 471 971Q452 967 435.0 960.0Q418 953 418 942Q418 927 437.5 918.0Q457 909 471 906L409 880V580L456 606L476 571L434 547Q456 537 468.5 516.0Q481 495 481 467ZM51 467Q51 495 63.5 516.0Q76 537 98 547L56 571L76 606L123 580V864Q123 869 119.0 873.5Q115 878 95 885L90 887Q80 892 64.5 903.0Q49 914 49 942Q49 971 73.0 986.5Q97 1002 136 1002Q168 1002 196.5 991.5Q225 981 239 971Q220 967 203.0 960.0Q186 953 186 942Q186 927 205.0 918.0Q224 909 238 906L176 880V580L224 606L244 571L201 547Q223 537 236.0 516.0Q249 495 249 467ZM516 467Q516 495 528.5 516.0Q541 537 563 547L521 571L541 606L588 580V864Q588 869 584.0 873.5Q580 878 560 885L555 887Q545 892 529.5 903.0Q514 914 514 942Q514 971 538.0 986.5Q562 1002 601 1002Q633 1002 661.5 991.5Q690 981 704 971Q685 967 667.5 960.0Q650 953 650 942Q650 927 669.5 918.0Q689 909 703 906L641 880V580L688 606L708 571L666 547Q688 537 700.5 516.0Q713 495 713 467ZM72 487H227Q227 497 214.0 514.5Q201 532 168 548L223 578L219 584L158 551V889L197 906Q186 910 176.0 919.5Q166 929 166 942Q166 954 176.0 961.0Q186 968 196 970Q189 974 174.0 978.0Q159 982 136 982Q105 982 86.5 972.0Q68 962 68 942Q68 925 78.5 916.5Q89 908 103 903L109 901Q132 892 136.5 887.0Q141 882 141 874V551L80 584L77 578L131 548Q98 532 85.0 514.5Q72 497 72 487ZM770 487H924Q924 497 911.5 514.5Q899 532 865 548L920 578L917 584L855 551V889L895 906Q883 910 873.0 919.5Q863 929 863 942Q863 954 873.0 961.0Q883 968 893 970Q886 974 871.5 978.0Q857 982 833 982Q802 982 784.0 972.0Q766 962 766 942Q766 925 776.0 916.5Q786 908 800 903L806 901Q830 894 834.0 888.0Q838 882 838 874V551L777 584L774 578L829 548Q795 532 782.5 514.5Q770 497 770 487ZM537 487H692Q692 497 679.0 514.5Q666 532 633 548L688 578L684 584L623 551V889L662 906Q650 910 640.5 919.5Q631 929 631 942Q631 954 641.0 961.0Q651 968 661 970Q654 974 639.0 978.0Q624 982 601 982Q570 982 551.5 972.0Q533 962 533 942Q533 925 543.5 916.5Q554 908 567 903L574 901Q598 894 602.0 888.0Q606 882 606 874V551L545 584L542 578L596 548Q563 532 550.0 514.5Q537 497 537 487ZM305 487H459Q459 497 446.5 514.5Q434 532 400 548L455 578L452 584L391 551V889L430 906Q418 910 408.0 919.5Q398 929 398 942Q398 954 408.5 961.0Q419 968 428 970Q421 974 406.5 978.0Q392 982 368 982Q337 982 319.0 972.0Q301 962 301 942Q301 925 311.0 916.5Q321 908 335 903L341 901Q366 894 370.0 888.0Q374 882 374 874V551L313 584L309 578L364 548Q330 532 317.5 514.5Q305 497 305 487ZM646 -86Q646 -58 658.5 -37.5Q671 -17 693 -6L650 17L670 52L718 26V310Q718 315 713.5 319.5Q709 324 689 332L685 333Q675 338 659.5 349.0Q644 360 644 388Q644 417 668.0 432.5Q692 448 730 448Q762 448 790.5 437.5Q819 427 833 417Q815 413 797.5 406.5Q780 400 780 389Q780 374 799.5 364.5Q819 355 833 353L771 326V26L818 52L838 17L796 -6Q818 -17 830.5 -37.5Q843 -58 843 -86ZM181 -86Q181 -58 193.5 -37.5Q206 -17 228 -6L186 17L206 52L253 26V310Q253 315 249.0 319.5Q245 324 225 332L220 333Q210 338 194.5 349.0Q179 360 179 388Q179 417 203.0 432.5Q227 448 266 448Q298 448 326.5 437.5Q355 427 369 417Q350 413 332.5 406.5Q315 400 315 389Q315 374 334.5 364.5Q354 355 368 353L306 326V26L354 52L374 17L331 -6Q353 -17 365.5 -37.5Q378 -58 378 -86ZM413 -86Q413 -58 425.5 -37.5Q438 -17 460 -6L418 17L438 52L485 26V310Q485 315 481.0 319.5Q477 324 457 332L452 333Q442 338 426.5 349.0Q411 360 411 388Q411 417 435.0 432.5Q459 448 498 448Q530 448 558.5 437.5Q587 427 601 417Q582 413 565.0 406.5Q548 400 548 389Q548 374 567.5 364.5Q587 355 601 353L539 326V26L586 52L606 17L563 -6Q611 -30 611 -86ZM667 -67H822Q822 -57 809.0 -39.0Q796 -21 763 -5L817 24L814 31L753 -2V335L792 352Q780 356 770.5 366.0Q761 376 761 389Q761 400 771.0 407.0Q781 414 791 416Q784 420 769.0 424.5Q754 429 730 429Q699 429 681.0 418.5Q663 408 663 388Q663 372 673.5 363.0Q684 354 697 350L704 348Q727 338 731.5 333.0Q736 328 736 320V-2L675 31L671 24L726 -5Q693 -21 680.0 -39.0Q667 -57 667 -67ZM202 -67H357Q357 -57 344.0 -39.0Q331 -21 298 -5L353 24L349 31L288 -2V335L327 352Q316 356 306.0 366.0Q296 376 296 389Q296 400 306.0 407.0Q316 414 326 416Q319 420 304.0 424.5Q289 429 266 429Q235 429 216.5 418.5Q198 408 198 388Q198 372 208.5 363.0Q219 354 232 350L239 348Q262 338 266.5 333.0Q271 328 271 320V-2L210 31L207 24L261 -5Q228 -21 215.0 -39.0Q202 -57 202 -67ZM435 -67H589Q589 -57 576.5 -39.0Q564 -21 530 -5L585 24L582 31L521 -2V335L560 352Q548 356 538.0 366.0Q528 376 528 389Q528 400 538.0 407.0Q548 414 558 416Q551 420 536.5 424.5Q522 429 498 429Q467 429 449.0 418.5Q431 408 431 388Q431 372 441.0 363.0Q451 354 465 350L471 348Q494 338 498.5 333.0Q503 328 503 320V-2L442 31L439 24L494 -5Q460 -21 447.5 -39.0Q435 -57 435 -67Z" />
  </g>
</svg>