<svg xmlns="http://www.w3.org/2000/svg" viewBox="49 -86 425 1087">
  <g transform="translate(0, 915) scale(1, -1)">
    <path fill="black" d="M50 651Q50 688 81 703L53 719L67 742L98 725V911Q98 914 95.5 917.0Q93 920 79 925L76 926Q69 929 59.0 936.5Q49 944 49 962Q49 982 65.0 991.5Q81 1001 106 1001Q127 1001 145.5 994.5Q164 988 173 981Q161 979 150.0 974.5Q139 970 139 962Q139 952 151.5 946.0Q164 940 173 938L133 921V725L164 742L177 719L148 703Q180 689 180 651ZM344 651Q344 688 375 703L347 719L361 742L392 725V911Q392 914 389.5 917.0Q387 920 373 925L370 926Q363 929 353.0 936.5Q343 944 343 962Q343 982 359.0 991.5Q375 1001 400 1001Q421 1001 439.5 994.5Q458 988 467 981Q455 979 444.0 974.5Q433 970 433 962Q433 952 445.5 946.0Q458 940 467 938L427 921V725L458 742L471 719L442 703Q474 689 474 651ZM197 651Q197 688 228 703L200 719L214 742L245 725V911Q245 914 242.5 917.0Q240 920 226 925L223 926Q216 929 206.0 936.5Q196 944 196 962Q196 982 212.0 991.5Q228 1001 253 1001Q274 1001 292.5 994.5Q311 988 320 981Q308 979 297.0 974.5Q286 970 286 962Q286 952 298.5 946.0Q311 940 320 938L280 921V725L311 742L324 719L295 703Q327 689 327 651ZM358 664H460Q460 670 451.5 682.0Q443 694 421 704L457 724L455 728L415 706V927L440 938Q433 940 426.0 947.0Q419 954 419 962Q419 970 426.0 974.5Q433 979 439 980Q435 983 425.5 986.0Q416 989 400 989Q380 989 368.0 982.5Q356 976 356 962Q356 951 362.5 945.5Q369 940 378 937L382 936Q399 931 401.5 926.5Q404 922 404 917V706L363 728L361 724L397 704Q375 694 366.5 682.0Q358 670 358 664ZM211 664H313Q313 670 304.5 682.0Q296 694 274 704L310 724L308 728L268 706V927L293 938Q286 940 279.0 947.0Q272 954 272 962Q272 970 279.0 974.5Q286 979 292 980Q288 983 278.5 986.0Q269 989 253 989Q233 989 221.0 982.5Q209 976 209 962Q209 951 215.5 945.5Q222 940 231 937L235 936Q252 931 254.5 926.5Q257 922 257 917V706L216 728L214 724L250 704Q228 694 219.5 682.0Q211 670 211 664ZM64 664H166Q166 670 157.5 682.0Q149 694 127 704L163 724L161 728L121 706V927L146 938Q139 940 132.0 947.0Q125 954 125 962Q125 970 132.0 974.5Q139 979 145 980Q141 983 131.5 986.0Q122 989 106 989Q86 989 74.0 982.5Q62 976 62 962Q62 951 68.5 945.5Q75 940 84 937L88 936Q105 931 107.5 926.5Q110 922 110 917V706L69 728L67 724L103 704Q81 694 72.5 682.0Q64 670 64 664ZM344 282Q344 321 375 334L347 350L361 373L392 356V542Q392 545 389.5 548.0Q387 551 373 556L370 558Q363 560 353.0 567.5Q343 575 343 593Q343 613 359.0 623.0Q375 633 400 633Q421 633 439.5 626.0Q458 619 467 612Q455 610 444.0 605.5Q433 601 433 594Q433 584 445.5 578.0Q458 572 467 570L427 553V356L458 373L471 350L442 334Q474 321 474 282ZM197 282Q197 321 228 334L200 350L214 373L245 356V542Q245 545 242.5 548.0Q240 551 226 556L223 558Q216 560 206.0 567.5Q196 575 196 593Q196 613 212.0 623.0Q228 633 253 633Q274 633 292.5 626.0Q311 619 320 612Q308 610 297.0 605.5Q286 601 286 594Q286 584 298.5 578.0Q311 572 320 570L280 553V356L311 373L324 350L295 334Q327 321 327 282ZM50 282Q50 321 81 334L53 350L67 373L98 356V542Q98 545 95.5 548.0Q93 551 79 556L76 558Q69 560 59.0 567.5Q49 575 49 593Q49 613 65.0 623.0Q81 633 106 633Q127 633 145.5 626.0Q164 619 173 612Q161 610 150.0 605.5Q139 601 139 594Q139 584 151.5 578.0Q164 572 173 570L133 553V356L164 373L177 350L148 334Q180 321 180 282ZM64 295H166Q166 302 157.5 313.5Q149 325 127 335L163 355L161 359L121 337V559L146 570Q139 572 132.0 578.5Q125 585 125 594Q125 602 132.0 606.0Q139 610 145 611Q141 614 131.5 617.0Q122 620 106 620Q86 620 74.0 613.5Q62 607 62 593Q62 583 68.5 577.0Q75 571 84 568L88 567Q105 563 107.5 558.5Q110 554 110 549V337L69 359L67 355L103 335Q81 325 72.5 313.5Q64 302 64 295ZM358 295H460Q460 302 451.5 313.5Q443 325 421 335L457 355L455 359L415 337V559L440 570Q433 572 426.0 578.5Q419 585 419 594Q419 602 426.0 606.0Q433 610 439 611Q435 614 425.5 617.0Q416 620 400 620Q380 620 368.0 613.5Q356 607 356 593Q356 583 362.5 577.0Q369 571 378 568L382 567Q399 563 401.5 558.5Q404 554 404 549V337L363 359L361 355L397 335Q375 325 366.5 313.5Q358 302 358 295ZM211 295H313Q313 302 304.5 313.5Q296 325 274 335L310 355L308 359L268 337V559L293 570Q286 572 279.0 578.5Q272 585 272 594Q272 602 279.0 606.0Q286 610 292 611Q288 614 278.5 617.0Q269 620 253 620Q233 620 221.0 613.5Q209 607 209 593Q209 583 215.5 577.0Q222 571 231 568L235 567Q252 563 254.5 558.5Q257 554 257 549V337L216 359L214 355L250 335Q228 325 219.5 313.5Q211 302 211 295ZM344 -86Q344 -49 375 -34L347 -19L361 4L392 -12V174Q392 177 389.5 180.0Q387 183 373 188L370 189Q363 191 353.0 198.5Q343 206 343 225Q343 244 359.0 254.0Q375 264 400 264Q421 264 439.5 257.5Q458 251 467 244Q455 242 444.0 237.0Q433 232 433 225Q433 215 445.5 209.0Q458 203 467 201L427 184V-12L458 4L471 -19L442 -34Q474 -48 474 -86ZM50 -86Q50 -49 81 -34L53 -19L67 4L98 -12V174Q98 177 95.5 180.0Q93 183 79 188L76 189Q69 191 59.0 198.5Q49 206 49 225Q49 244 65.0 254.0Q81 264 106 264Q127 264 145.5 257.5Q164 251 173 244Q161 242 150.0 237.0Q139 232 139 225Q139 215 151.5 209.0Q164 203 173 201L133 184V-12L164 4L177 -19L148 -34Q180 -48 180 -86ZM197 -86Q197 -49 228 -34L200 -19L214 4L245 -12V174Q245 177 242.5 180.0Q240 183 226 188L223 189Q216 191 206.0 198.5Q196 206 196 225Q196 244 212.0 254.0Q228 264 253 264Q274 264 292.5 257.5Q311 251 320 244Q308 242 297.0 237.0Q286 232 286 225Q286 215 298.5 209.0Q311 203 320 201L280 184V-12L311 4L324 -19L295 -34Q327 -48 327 -86ZM358 -74H460Q460 -67 451.5 -55.0Q443 -43 421 -33L457 -14L455 -10L415 -31V190L440 201Q433 203 426.0 209.5Q419 216 419 225Q419 233 426.0 237.5Q433 242 439 243Q435 246 425.5 248.5Q416 251 400 251Q380 251 368.0 245.0Q356 239 356 225Q356 214 362.5 208.5Q369 203 378 199L382 198Q399 194 401.5 189.5Q404 185 404 180V-31L363 -10L361 -14L397 -33Q375 -43 366.5 -55.0Q358 -67 358 -74ZM211 -74H313Q313 -67 304.5 -55.0Q296 -43 274 -33L310 -14L308 -10L268 -31V190L293 201Q286 203 279.0 209.5Q272 216 272 225Q272 233 279.0 237.5Q286 242 292 243Q288 246 278.5 248.5Q269 251 253 251Q233 251 221.0 245.0Q209 239 209 225Q209 214 215.5 208.5Q222 203 231 199L235 198Q252 194 254.5 189.5Q257 185 257 180V-31L216 -10L214 -14L250 -33Q228 -43 219.5 -55.0Q211 -67 211 -74ZM64 -74H166Q166 -67 157.5 -55.0Q149 -43 127 -33L163 -14L161 -10L121 -31V190L146 201Q139 203 132.0 209.5Q125 216 125 225Q125 233 132.0 237.5Q139 242 145 243Q141 246 131.5 248.5Q122 251 106 251Q86 251 74.0 245.0Q62 239 62 225Q62 214 68.5 208.5Q75 203 84 199L88 198Q105 194 107.5 189.5Q110 185 110 180V-31L69 -10L67 -14L103 -33Q81 -43 72.5 -55.0Q64 -67 64 -74Z" />
  </g>
</svg>