<svg xmlns="http://www.w3.org/2000/svg" viewBox="49 -95 451 1096">
  <g transform="translate(0, 906) scale(1, -1)">
    <path fill="black" d="M274 -95Q247 -95 223.5 -57.0Q200 -19 185.5 50.0Q171 119 171 211Q171 256 176.5 314.5Q182 373 190.0 435.0Q198 497 207.0 554.0Q216 611 223.5 653.5Q231 696 234 715Q221 720 204.0 732.0Q187 744 179 762Q169 785 154.5 815.0Q140 845 126 872Q115 896 92.5 902.5Q70 909 49 909V945Q67 963 124.0 982.0Q181 1001 274 1001Q368 1001 425.0 982.0Q482 963 500 945V909Q479 909 456.5 902.5Q434 896 422 872Q409 845 394.5 815.0Q380 785 370 762Q362 744 345.0 732.0Q328 720 315 715Q318 696 325.5 653.5Q333 611 341.5 554.0Q350 497 358.0 435.0Q366 373 371.5 314.5Q377 256 377 211Q377 119 362.5 50.0Q348 -19 324.5 -57.0Q301 -95 274 -95ZM274 -75Q293 -75 312.0 -39.5Q331 -4 344.5 60.5Q358 125 358 211Q358 256 352.0 321.0Q346 386 336.0 459.5Q326 533 314.5 604.0Q303 675 292 732Q306 732 324.5 741.0Q343 750 352 770Q362 793 377.0 823.5Q392 854 405 880Q419 908 440.5 917.0Q462 926 480 926V937Q475 941 454.0 952.0Q433 963 390.0 972.5Q347 982 274 982Q202 982 159.0 972.5Q116 963 95.0 952.0Q74 941 68 937V926Q87 926 108.5 917.0Q130 908 144 880Q158 854 172.5 823.5Q187 793 197 770Q205 750 224.0 741.0Q243 732 257 732Q247 675 235.5 604.0Q224 533 214.0 459.5Q204 386 197.5 321.0Q191 256 191 211Q191 125 204.5 60.5Q218 -4 237.0 -39.5Q256 -75 274 -75Z" />
  </g>
</svg>