<svg xmlns="http://www.w3.org/2000/svg" viewBox="49 -95 937 1096">
  <g transform="translate(0, 906) scale(1, -1)">
    <path fill="black" d="M514 -95Q488 -95 464.0 -57.0Q440 -19 425.5 50.0Q411 119 411 211Q411 263 418.0 331.5Q425 400 435.0 471.5Q445 543 454 601Q402 594 350.0 589.0Q298 584 256 584Q209 584 187.0 603.5Q165 623 165 655Q165 672 169.0 693.0Q173 714 177 727Q168 726 154.5 724.5Q141 723 124 723Q88 723 68.5 736.5Q49 750 49 770Q49 781 56.5 801.0Q64 821 88.0 837.0Q112 853 160 853Q203 853 232.5 836.0Q262 819 262 781Q262 764 255.5 751.0Q249 738 242.5 725.5Q236 713 236 698Q236 686 243.5 674.0Q251 662 265 662Q272 662 279.5 662.0Q287 662 301.0 664.0Q315 666 343 670Q366 674 399.0 681.5Q432 689 470 696L474 715Q461 720 444.0 732.0Q427 744 419 762Q409 785 394.5 815.0Q380 845 366 872Q355 896 332.0 902.5Q309 909 289 909V945Q306 963 363.0 982.0Q420 1001 514 1001Q608 1001 665.0 982.0Q722 963 740 945V909Q719 909 696.5 902.5Q674 896 662 872Q649 845 634.5 815.0Q620 785 609 762Q602 744 585.0 732.0Q568 720 555 715Q555 712 556 710Q595 716 629 716Q689 716 745.5 705.5Q802 695 847.5 668.5Q893 642 920.0 594.5Q947 547 947 473Q947 427 938.5 386.5Q930 346 921.0 303.0Q912 260 912 204Q912 152 922.0 118.0Q932 84 945.0 63.5Q958 43 966 29Q979 7 982.5 -6.0Q986 -19 986 -29Q986 -47 969 -47Q961 -47 939.5 -27.0Q918 -7 893.5 28.5Q869 64 851.5 109.0Q834 154 834 204Q834 232 842.0 276.5Q850 321 857.5 369.0Q865 417 865 456Q865 515 846.0 551.0Q827 587 778.0 603.5Q729 620 639 620Q626 620 609.0 618.5Q592 617 572 615Q579 572 587.0 518.5Q595 465 601.5 409.5Q608 354 612.5 302.5Q617 251 617 211Q617 119 602.5 50.0Q588 -19 564.5 -57.0Q541 -95 514 -95ZM514 -75Q532 -75 551.5 -39.5Q571 -4 584.5 60.5Q598 125 598 211Q598 256 591.5 321.0Q585 386 575.0 459.5Q565 533 553.5 604.0Q542 675 531 732Q545 732 564.0 741.0Q583 750 592 770Q602 793 617.0 823.5Q632 854 645 880Q659 908 680.0 917.0Q701 926 720 926V937Q715 941 694.0 952.0Q673 963 630.0 972.5Q587 982 514 982Q442 982 398.5 972.5Q355 963 334.0 952.0Q313 941 308 937V926Q327 926 348.5 917.0Q370 908 384 880Q397 854 412.0 823.5Q427 793 437 770Q445 750 464.0 741.0Q483 732 497 732Q487 675 475.5 604.0Q464 533 454.0 459.5Q444 386 437.5 321.0Q431 256 431 211Q431 125 444.5 60.5Q458 -4 477.0 -39.5Q496 -75 514 -75ZM260 604Q307 604 357.5 609.0Q408 614 458 621L466 675Q430 668 398.5 661.0Q367 654 346 650Q318 646 298.5 644.0Q279 642 265 642Q241 642 229.0 658.5Q217 675 217 698Q217 717 223.5 730.5Q230 744 236.0 756.0Q242 768 242 781Q242 807 218.5 820.0Q195 833 160 833Q120 833 100.5 820.5Q81 808 74.5 793.0Q68 778 68 770Q68 763 85.0 752.5Q102 742 140 742Q154 742 172.5 745.5Q191 749 203 752Q197 727 191.0 697.5Q185 668 185 658Q185 604 260 604ZM152 782Q138 782 135 794V796Q135 803 140.5 808.0Q146 813 154 813Q161 813 166.0 809.0Q171 805 171 798Q171 792 165.5 787.0Q160 782 152 782ZM966 -29Q968 -29 968 -26Q968 -21 966.0 -10.5Q964 0 950 22Q944 32 930.0 54.5Q916 77 904.5 114.0Q893 151 893 204Q893 262 902.0 307.0Q911 352 919.5 392.0Q928 432 928 473Q928 543 901.5 587.0Q875 631 831.5 655.0Q788 679 735.0 688.0Q682 697 629 697Q597 697 559 691Q563 670 568 635Q588 637 605.5 638.0Q623 639 639 639Q724 639 773.5 625.0Q823 611 847.0 585.5Q871 560 878.0 527.0Q885 494 885 456Q885 415 877.5 366.0Q870 317 862.0 273.5Q854 230 854 204Q854 157 870.5 115.0Q887 73 908.5 40.5Q930 8 947.5 -10.5Q965 -29 966 -29Z" />
  </g>
</svg>