<svg xmlns="http://www.w3.org/2000/svg" viewBox="49 -99 571 1103">
  <g transform="translate(0, 905) scale(1, -1)">
    <path fill="black" d="M199 -99 253 95H273L215 171L187 110Q196 100 196 80Q196 47 180.0 15.5Q164 -16 142.5 -36.5Q121 -57 103 -57Q93 -57 86.5 -42.5Q80 -28 80 -9Q80 12 87.0 39.0Q94 66 108.5 89.0Q123 112 144 119L200 239L213 242L298 131L191 550Q168 554 152.5 575.0Q137 596 126 621Q123 628 120.0 635.0Q117 642 113 649Q106 660 88.0 664.0Q70 668 56 666L49 695Q57 703 85.5 715.5Q114 728 164 741Q214 755 245.5 757.0Q277 759 287 756L290 729Q278 725 265.5 714.0Q253 703 253 685Q253 677 253.5 669.0Q254 661 255 653Q256 631 253.5 603.0Q251 575 231 561L313 240V812Q292 821 282.0 845.5Q272 870 268 896Q267 904 265.5 912.0Q264 920 262 927Q258 941 241.5 948.5Q225 956 211 958V988Q220 993 251.0 998.5Q282 1004 334 1004Q386 1004 417.5 998.5Q449 993 458 988L453 961Q441 960 426.5 952.0Q412 944 407 927Q405 920 404.0 912.0Q403 904 401 896Q397 874 387.5 848.0Q378 822 355 812V240L438 561Q418 575 415.5 603.0Q413 631 414 653Q415 661 415.5 669.0Q416 677 416 685Q416 703 403.5 714.0Q391 725 379 729L382 756Q393 759 424.5 757.0Q456 755 505 741Q555 728 584.0 715.5Q613 703 620 695L613 666Q599 668 581.0 664.0Q563 660 556 649Q552 642 549.0 635.0Q546 628 543 621Q533 596 517.0 575.0Q501 554 478 550L371 131L456 242L469 239L525 119Q546 112 560.5 89.0Q575 66 582.0 39.0Q589 12 589 -9Q589 -28 582.5 -42.5Q576 -57 566 -57Q549 -57 527.0 -36.5Q505 -16 489.0 15.5Q473 47 473 80Q473 100 482 110L454 171L395 95H416L470 -99ZM334 828Q353 828 362.0 840.0Q371 852 375.0 868.5Q379 885 381 899Q383 907 385.0 916.0Q387 925 388 932Q393 947 409.0 958.5Q425 970 438 974V975Q431 977 407.5 980.5Q384 984 334 984Q298 984 270.5 981.0Q243 978 231 976V973Q242 971 258.5 962.5Q275 954 281 932Q283 925 285.0 916.0Q287 907 288 899Q290 887 294.0 870.0Q298 853 307.0 840.5Q316 828 334 828ZM330 95H339V808H330ZM461 570Q479 566 491.0 576.0Q503 586 511.5 601.0Q520 616 525 628Q528 636 532.0 643.5Q536 651 540 658Q551 678 569.5 682.0Q588 686 598 686L599 689Q588 694 561.5 703.5Q535 713 500 722Q453 734 429.0 736.5Q405 739 397 739V738Q409 731 422.0 716.0Q435 701 435 684Q436 677 435.5 668.0Q435 659 434 651Q433 637 433.0 620.0Q433 603 438.5 589.0Q444 575 461 570ZM208 570Q225 575 231.0 589.0Q237 603 236.5 620.0Q236 637 235 651Q234 659 233.5 668.0Q233 677 234 684Q234 701 246.5 716.0Q259 731 271 738V739Q264 739 240.0 736.5Q216 734 169 722Q134 713 107.5 703.5Q81 694 70 689L71 686Q82 686 100.5 682.0Q119 678 129 658Q133 651 137.0 643.5Q141 636 144 628Q150 616 158.0 601.0Q166 586 178.0 576.0Q190 566 208 570ZM355 137 461 550 453 553 355 171ZM313 137V171L216 553L208 550ZM294 95H305L209 220L163 122Q166 121 168.5 121.0Q171 121 173 120L211 202ZM363 95H375L458 202L496 120Q498 121 500.5 121.0Q503 121 506 122L460 220ZM566 -40Q569 -40 570.5 -30.5Q572 -21 572 -9Q572 11 565.0 38.0Q558 65 544.0 85.0Q530 105 509 105Q499 105 494.5 97.0Q490 89 490 80Q490 51 503.0 23.0Q516 -5 534.0 -22.5Q552 -40 566 -40ZM103 -40Q118 -40 135.5 -22.5Q153 -5 166.0 23.0Q179 51 179 80Q179 89 175.0 97.0Q171 105 160 105Q139 105 125.0 85.0Q111 65 104.0 38.0Q97 11 97 -9Q97 -21 98.5 -30.5Q100 -40 103 -40ZM224 -79H445L401 76H268Z" />
  </g>
</svg>