<svg xmlns="http://www.w3.org/2000/svg" viewBox="49 -99 571 1103">
  <g transform="translate(0, 905) scale(1, -1)">
    <path fill="black" d="M334 -99Q297 -99 266.5 -81.0Q236 -63 218.0 -32.0Q200 -1 200 36Q200 77 223.0 110.5Q246 144 282 159L191 300L160 200Q165 191 167.0 181.5Q169 172 169 155Q169 125 158.0 99.5Q147 74 132.5 58.0Q118 42 107 42Q96 42 84.5 64.0Q73 86 73 116Q73 146 84.0 170.5Q95 195 119 211L175 373L188 375L296 205L191 567Q168 571 152.5 592.5Q137 614 126 638Q123 645 120.0 652.5Q117 660 113 667Q106 678 88.0 682.0Q70 686 56 684L49 713Q57 720 85.5 733.0Q114 746 164 759Q214 772 245.5 774.0Q277 776 287 774L290 747Q278 743 265.5 731.5Q253 720 253 702Q253 695 253.5 687.0Q254 679 255 671Q257 648 254.0 620.5Q251 593 231 578L313 308V812Q292 821 282.0 845.5Q272 870 268 896Q267 904 265.5 912.0Q264 920 262 927Q258 941 241.5 948.5Q225 956 211 958V988Q220 993 251.0 998.5Q282 1004 334 1004Q386 1004 417.5 998.5Q449 993 458 988L453 961Q441 960 426.5 952.0Q412 944 407 927Q405 920 404.0 912.0Q403 904 401 896Q397 874 387.5 848.0Q378 822 355 812V308L438 578Q418 593 415.5 620.5Q413 648 414 671Q415 679 415.5 687.0Q416 695 416 702Q416 720 403.5 731.5Q391 743 379 747L382 774Q393 776 424.5 774.0Q456 772 505 759Q555 746 584.0 733.0Q613 720 620 713L613 684Q599 686 581.0 682.0Q563 678 556 667Q552 660 549.0 652.5Q546 645 543 638Q533 614 517.0 592.5Q501 571 478 567L372 205L480 375L493 373L549 211Q573 195 584.0 170.5Q595 146 595 116Q595 86 583.5 64.0Q572 42 561 42Q551 42 536.0 58.0Q521 74 510.0 99.5Q499 125 499 155Q499 172 501.5 181.5Q504 191 508 200L477 300L386 160Q423 145 446.0 111.5Q469 78 469 36Q469 -1 451.0 -32.0Q433 -63 402.5 -81.0Q372 -99 334 -99ZM334 828Q353 828 362.0 840.0Q371 852 375.0 868.5Q379 885 381 899Q383 907 385.0 916.0Q387 925 388 932Q393 947 409.0 958.5Q425 970 438 974V975Q431 977 407.5 980.5Q384 984 334 984Q298 984 270.5 981.0Q243 978 231 976V973Q242 971 258.5 962.5Q275 954 281 932Q283 925 285.0 916.0Q287 907 288 899Q290 887 294.0 870.0Q298 853 307.0 840.5Q316 828 334 828ZM330 170H339V808H330ZM461 588Q479 584 491.0 593.5Q503 603 511.5 618.5Q520 634 525 646Q528 654 532.0 661.5Q536 669 540 675Q551 696 569.5 700.0Q588 704 598 704L599 707Q588 712 561.5 721.5Q535 731 500 740Q453 752 429.0 754.0Q405 756 397 756V755Q409 748 422.0 733.0Q435 718 435 702Q435 695 435.0 686.0Q435 677 434 669Q433 655 433.0 638.0Q433 621 438.5 607.0Q444 593 461 588ZM208 588Q225 593 231.0 607.0Q237 621 236.5 638.0Q236 655 235 669Q234 677 233.5 686.0Q233 695 234 702Q234 718 246.5 733.0Q259 748 271 755V756Q264 756 240.0 754.0Q216 752 169 740Q134 731 107.5 721.5Q81 712 70 707L71 704Q82 704 100.5 700.0Q119 696 129 675Q133 669 137.0 661.5Q141 654 144 646Q150 634 158.0 618.5Q166 603 178.0 593.5Q190 584 208 588ZM355 206 461 568 453 570 355 240ZM313 206V240L216 570L208 568ZM294 164Q300 166 303 166L185 352L136 210Q138 210 141.0 209.5Q144 209 146 209L187 331ZM374 164 481 331 522 209Q524 209 527.0 209.5Q530 210 532 210L483 352L365 167ZM561 59Q569 59 573.5 79.5Q578 100 578 116Q578 129 573.0 147.0Q568 165 558.5 179.0Q549 193 535 193Q525 193 521.0 181.0Q517 169 517 155Q517 130 525.0 108.0Q533 86 543.5 72.5Q554 59 561 59ZM107 59Q114 59 124.5 72.5Q135 86 143.0 108.0Q151 130 151 155Q151 169 147.0 181.0Q143 193 133 193Q119 193 109.0 179.0Q99 165 94.5 147.0Q90 129 90 116Q90 100 95.0 79.5Q100 59 107 59ZM334 95Q347 107 358.5 118.0Q370 129 381 140Q371 145 359.0 147.5Q347 150 334 150Q311 150 288 140ZM270 -59 334 3 399 -59Q417 -47 429 -29L367 36L429 100Q423 109 415.5 117.0Q408 125 399 130L334 68L270 130Q261 125 253.5 117.0Q246 109 239 100L302 36L239 -29Q253 -48 270 -59ZM439 -11Q444 0 446.5 11.5Q449 23 449 36Q449 48 446.5 60.0Q444 72 439 83L394 36Q406 23 416.5 11.5Q427 0 439 -11ZM229 -11 275 36 229 83Q220 61 220 36Q220 10 229 -11ZM334 -79Q347 -79 359.0 -76.0Q371 -73 381 -69L334 -24L288 -69Q311 -79 334 -79Z" />
  </g>
</svg>