<svg xmlns="http://www.w3.org/2000/svg" viewBox="49 0 556 1001">
  <g transform="translate(0, 1001) scale(1, -1)">
    <path fill="black" d="M529 0V128Q529 166 518.0 194.0Q507 222 472 231L361 259L453 1001L555 960Q582 949 593.5 921.5Q605 894 605 868V0ZM216 0V128Q216 166 205.0 194.0Q194 222 159 231L49 259L140 1001L243 960Q269 949 281.0 921.5Q293 894 293 868V0ZM236 17H273V868Q273 888 264.5 910.0Q256 932 234 942L155 973L69 274L171 246Q200 238 213.5 219.5Q227 201 231.5 179.0Q236 157 236 137ZM548 17H586V868Q586 888 577.5 910.0Q569 932 547 942L468 973L382 274L483 246Q512 238 526.0 219.5Q540 201 544.0 179.0Q548 157 548 137Z" />
  </g>
</svg>