<svg xmlns="http://www.w3.org/2000/svg" viewBox="49 -3 418 1004">
  <g transform="translate(0, 998) scale(1, -1)">
    <path fill="black" d="M229 -3 193 15Q189 13 181.0 8.5Q173 4 166 0H49V39Q69 43 92.5 48.5Q116 54 135.0 59.5Q154 65 160 69Q170 76 179.0 84.5Q188 93 189 94L279 293L212 311L304 1001L406 960Q433 949 445.0 921.5Q457 894 457 868V170Q454 154 450.5 133.0Q447 112 447 104Q447 97 453.5 67.5Q460 38 467 12L426 -3L390 15Q386 13 378.0 8.5Q370 4 363 0H246V10ZM423 18 443 24Q439 46 433.5 71.5Q428 97 428 104Q428 113 431.0 134.5Q434 156 437 173V868Q437 888 429.0 911.0Q421 934 398 942L319 973L233 325L334 297Q360 290 371.5 277.0Q383 264 389 253Q388 238 387.0 216.5Q386 195 386 181Q386 158 388.0 131.5Q390 105 391 89Q384 81 373.5 70.0Q363 59 353 52Q344 47 315.5 38.0Q287 29 264 23V20H357Q360 22 370.0 27.5Q380 33 388 37ZM226 18 244 30Q239 53 239 65Q250 84 262.5 106.5Q275 129 286.0 147.5Q297 166 301 173Q306 182 316.0 202.5Q326 223 335.5 243.5Q345 264 348 271Q343 274 333.5 278.0Q324 282 298 288L208 89Q202 81 191.5 70.0Q181 59 171 52Q165 49 147.5 43.5Q130 38 108.0 32.5Q86 27 67 23V20H160Q163 22 173.0 27.5Q183 33 191 37ZM262 42Q279 47 305.5 54.5Q332 62 342 69Q350 74 358.5 82.0Q367 90 372 95Q371 102 369.5 118.5Q368 135 367.0 153.0Q366 171 366 181Q366 197 367.0 217.5Q368 238 368 245Q367 250 362 256Q357 245 348.5 226.0Q340 207 331.0 189.5Q322 172 317 164Q313 157 305.0 142.5Q297 128 287.5 111.0Q278 94 270.0 80.0Q262 66 259 61Q259 51 262 42Z" />
  </g>
</svg>