<svg xmlns="http://www.w3.org/2000/svg" viewBox="49 0 791 1005">
  <g transform="translate(0, 1005) scale(1, -1)">
    <path fill="black" d="M216 0V128Q216 166 205.0 194.0Q194 222 159 231L49 259L140 1001L243 960Q264 951 276.0 930.5Q288 910 292 888H615Q632 941 659.0 973.0Q686 1005 714 1005Q744 1005 772.0 970.0Q800 935 818.0 875.5Q836 816 836 742Q836 699 828.0 634.0Q820 569 808.5 497.0Q797 425 785 359Q773 292 764.5 241.0Q756 190 756 171Q756 134 767.0 108.5Q778 83 794.0 65.5Q810 48 826 31L840 15V0H589V17L603 31Q619 48 634.5 65.5Q650 83 661.0 108.5Q672 134 672 171Q672 181 669 205H293V0ZM619 20H809Q784 45 760.5 79.0Q737 113 737 171Q737 192 745.5 244.5Q754 297 765 362Q777 428 788.5 500.0Q800 572 808.0 636.5Q816 701 816 742Q816 811 801.0 866.0Q786 921 762.5 953.0Q739 985 714 985Q690 985 666.5 953.0Q643 921 627.5 866.0Q612 811 612 742Q612 701 620.0 636.5Q628 572 640.5 500.0Q653 428 664 362Q675 297 683.5 244.5Q692 192 692 171Q692 113 668.5 79.0Q645 45 619 20ZM236 17H273V868Q273 888 264.5 910.0Q256 932 234 942L155 973L69 274L171 246Q200 238 213.5 219.5Q227 201 231.5 179.0Q236 157 236 137ZM293 668 589 868H293ZM317 661H598Q596 684 594.5 704.5Q593 725 593 742Q593 804 605 855ZM293 451 576 641H293ZM315 442H629Q622 492 614.0 541.5Q606 591 601 634ZM293 231 605 423H293ZM317 224H667Q663 250 657.0 285.0Q651 320 644 359L634 418Z" />
  </g>
</svg>