<svg xmlns="http://www.w3.org/2000/svg" viewBox="49 0 975 1001">
  <g transform="translate(0, 1001) scale(1, -1)">
    <path fill="black" d="M49 0V68H116V173Q116 190 122.0 199.0Q128 208 145 208Q163 208 168.5 197.0Q174 186 174 173V68H256V128Q256 166 245.0 194.0Q234 222 199 231L89 259L180 1001L283 960Q309 949 321.0 921.5Q333 894 333 868V68H429V173Q429 190 435.0 199.0Q441 208 458 208Q476 208 481.0 197.0Q486 186 486 173V68H569V128Q569 166 558.0 194.0Q547 222 512 231L401 259L493 1001L595 960Q622 949 634.0 921.5Q646 894 646 868V68H741V173Q741 190 747.0 199.0Q753 208 770 208Q788 208 793.5 197.0Q799 186 799 173V68H881V128Q881 166 870.0 194.0Q859 222 824 231L714 259L805 1001L908 960Q934 949 946.0 921.5Q958 894 958 868V68H1024V0ZM68 20H1004V48H938V868Q938 888 929.5 910.0Q921 932 899 942L820 973L734 274L836 246Q865 238 878.5 219.5Q892 201 896.5 179.0Q901 157 901 137V48H779V173Q779 178 777.5 183.0Q776 188 770 188Q761 188 761 173V48H626V868Q626 888 617.5 910.0Q609 932 587 942L508 973L422 274L523 246Q552 238 566.0 219.5Q580 201 584.0 179.0Q588 157 588 137V48H467V173Q467 178 465.0 183.0Q463 188 458 188Q448 188 448 173V48H313V868Q313 888 304.5 910.0Q296 932 274 942L195 973L109 274L211 246Q240 238 253.5 219.5Q267 201 271.5 179.0Q276 157 276 137V48H154V173Q154 178 152.5 183.0Q151 188 145 188Q136 188 136 173V48H68Z" />
  </g>
</svg>