<svg xmlns="http://www.w3.org/2000/svg" viewBox="49 0 898 1001">
  <g transform="translate(0, 1001) scale(1, -1)">
    <path fill="black" d="M886 0Q858 0 841.0 15.0Q824 30 817.0 53.0Q810 76 810 100Q810 126 816.5 145.0Q823 164 833 184H49V243H223V333Q223 364 213.5 386.5Q204 409 175 416L83 439L159 1001L245 968Q267 959 277.0 936.5Q287 914 287 892V243H484V333Q484 364 474.5 386.5Q465 409 436 416L344 439L420 1001L506 968Q529 959 538.5 936.5Q548 914 548 892V243H746V333Q746 364 736.5 386.5Q727 409 698 416L605 439L682 1001L768 968Q790 959 800.0 936.5Q810 914 810 892V243H832Q882 243 906.5 218.0Q931 193 939.0 156.0Q947 119 947 83Q947 35 928.0 17.5Q909 0 886 0ZM886 20Q901 20 914.0 33.0Q927 46 927 83Q927 114 921.0 146.0Q915 178 893.5 200.5Q872 223 827 223H791V889Q791 906 783.5 924.0Q776 942 758 950L698 975L627 454L712 431Q736 425 747.5 409.0Q759 393 762.0 374.5Q765 356 765 339V223H529V889Q529 906 521.5 924.0Q514 942 496 950L436 975L365 454L450 431Q474 425 485.5 409.0Q497 393 500.0 374.5Q503 356 503 339V223H268V889Q268 906 260.5 924.0Q253 942 235 950L175 975L104 454L189 431Q213 425 224.5 409.0Q236 393 239.0 374.5Q242 356 242 339V223H65V203H857V185Q844 164 836.5 142.0Q829 120 829 100Q829 70 842.0 45.0Q855 20 886 20Z" />
  </g>
</svg>