<svg xmlns="http://www.w3.org/2000/svg" viewBox="49 0 1180 1002">
  <g transform="translate(0, 1002) scale(1, -1)">
    <path fill="black" d="M943 0Q922 0 915.5 13.5Q909 27 909 57V180Q909 194 905.0 217.5Q901 241 890.0 264.5Q879 288 856.5 304.0Q834 320 798 320Q774 320 751.0 303.0Q728 286 714 268Q704 253 695.5 245.0Q687 237 678 237Q668 237 663.0 245.0Q658 253 658 260Q658 274 671 294Q676 302 692.0 320.0Q708 338 735.0 354.0Q762 370 797 370Q846 370 876.0 353.0Q906 336 920 318V871Q920 888 917.0 907.5Q914 927 902.5 941.0Q891 955 865 955Q840 955 826.5 939.5Q813 924 808.0 905.0Q803 886 802 876Q802 865 797.0 853.0Q792 841 777 841Q764 841 760.0 850.5Q756 860 756 873Q756 881 760.0 901.5Q764 922 775.0 945.5Q786 969 807.5 985.5Q829 1002 865 1002Q966 1002 966 876V318Q980 336 1010.0 353.0Q1040 370 1089 370Q1125 370 1151.5 354.0Q1178 338 1194.5 320.0Q1211 302 1215 294Q1229 274 1229 260Q1229 253 1223.0 245.0Q1217 237 1208 237Q1199 237 1191.0 245.0Q1183 253 1172 268Q1162 283 1141.0 301.5Q1120 320 1088 320Q1052 320 1030.0 304.0Q1008 288 997.0 264.5Q986 241 982.0 217.5Q978 194 978 180V57Q978 27 971.5 13.5Q965 0 943 0ZM334 0Q313 0 306.5 13.5Q300 27 300 57V180Q300 194 296.0 217.5Q292 241 281.0 264.5Q270 288 247.5 304.0Q225 320 189 320Q165 320 142.0 303.0Q119 286 105 268Q95 253 86.5 245.0Q78 237 69 237Q59 237 54.0 245.0Q49 253 49 260Q49 274 63 294Q67 302 83.0 320.0Q99 338 126.0 354.0Q153 370 188 370Q237 370 267.0 353.0Q297 336 311 318V871Q311 888 308.0 907.5Q305 927 293.5 941.0Q282 955 256 955Q231 955 218.0 939.5Q205 924 199.5 905.0Q194 886 193 876Q193 865 188.0 853.0Q183 841 168 841Q155 841 151.0 850.5Q147 860 147 873Q147 881 151.0 901.5Q155 922 166.0 945.5Q177 969 198.5 985.5Q220 1002 256 1002Q357 1002 357 876V318Q371 336 401.5 353.0Q432 370 480 370Q516 370 542.5 354.0Q569 338 585.5 320.0Q602 302 606 294Q620 274 620 260Q620 253 614.0 245.0Q608 237 599 237Q590 237 582.0 245.0Q574 253 563 268Q553 283 532.0 301.5Q511 320 479 320Q443 320 421.0 304.0Q399 288 388.0 264.5Q377 241 373.0 217.5Q369 194 369 180V57Q369 27 362.5 13.5Q356 0 334 0ZM334 18Q345 18 348.0 27.5Q351 37 351 57V180Q351 196 355.5 222.0Q360 248 373.0 275.0Q386 302 411.5 320.5Q437 339 479 339Q506 339 525.0 328.0Q544 317 557.5 302.5Q571 288 578 277Q582 273 588.0 264.5Q594 256 599 256Q602 256 602 260Q602 268 591 285Q587 292 572.0 308.0Q557 324 534.0 338.0Q511 352 480 352Q438 352 412.0 337.0Q386 322 373.0 303.5Q360 285 356 276L340 280V876Q340 984 256 984Q226 984 208.5 969.5Q191 955 181.5 935.0Q172 915 169.0 897.0Q166 879 166 873Q166 859 168 859Q172 859 172.5 867.0Q173 875 174 879Q175 885 178.0 900.0Q181 915 189.5 932.0Q198 949 214.0 961.0Q230 973 256 973Q290 973 305.5 956.0Q321 939 325.0 915.5Q329 892 329 871V280L313 276Q309 285 295.5 303.5Q282 322 256.0 337.0Q230 352 188 352Q158 352 134.5 338.0Q111 324 97.0 308.0Q83 292 78 285Q67 270 67 260Q67 256 69 256Q73 256 91 279Q98 289 111.0 303.0Q124 317 143.5 328.0Q163 339 189 339Q231 339 256.5 320.5Q282 302 295.0 275.0Q308 248 312.5 222.0Q317 196 317 180V57Q317 37 320.5 27.5Q324 18 334 18ZM943 18Q954 18 957.0 27.5Q960 37 960 57V180Q960 196 964.5 222.0Q969 248 982.0 275.0Q995 302 1020.5 320.5Q1046 339 1088 339Q1115 339 1134.0 328.0Q1153 317 1166.5 302.5Q1180 288 1187 277Q1191 273 1197.0 264.5Q1203 256 1208 256Q1210 256 1210 260Q1210 269 1200 285Q1195 292 1180.5 308.0Q1166 324 1143.0 338.0Q1120 352 1089 352Q1047 352 1021.0 337.0Q995 322 982.0 303.5Q969 285 965 276L949 280V876Q949 984 865 984Q835 984 817.5 969.5Q800 955 790.5 935.0Q781 915 778.0 897.0Q775 879 775 873Q775 859 777 859Q781 859 781.5 867.0Q782 875 783 879Q784 885 787.0 900.0Q790 915 798.5 932.0Q807 949 823.0 961.0Q839 973 865 973Q899 973 914.5 956.0Q930 939 934.0 915.5Q938 892 938 871V280L922 276Q918 285 904.5 303.5Q891 322 865.0 337.0Q839 352 797 352Q767 352 743.5 338.0Q720 324 706.0 308.0Q692 292 687 285Q676 270 676 260Q676 256 678 256Q682 256 700 279Q707 289 720.0 303.0Q733 317 752.5 328.0Q772 339 798 339Q840 339 865.5 320.5Q891 302 904.0 275.0Q917 248 921.5 222.0Q926 196 926 180V57Q926 37 929.5 27.5Q933 18 943 18Z" />
  </g>
</svg>