<svg xmlns="http://www.w3.org/2000/svg" viewBox="49 0 327 966">
  <g transform="translate(0, 966) scale(1, -1)">
    <path fill="black" d="M212 0Q173 0 153.5 76.0Q134 152 134 279Q134 350 142.0 423.0Q150 496 161.0 560.0Q172 624 180 665Q163 672 149.0 691.0Q135 710 121 729Q114 740 102.0 758.0Q90 776 76.5 793.5Q63 811 49 818V838Q57 849 72.5 861.5Q88 874 107 874Q121 874 131.0 870.5Q141 867 148 864Q151 885 159.5 909.0Q168 933 181.0 949.5Q194 966 212 966Q231 966 244.0 949.5Q257 933 265.5 909.0Q274 885 277 864Q284 867 294.0 870.5Q304 874 318 874Q338 874 353.5 861.5Q369 849 376 838V818Q362 811 348.0 793.5Q334 776 322.5 758.0Q311 740 304 729Q291 710 276.5 691.0Q262 672 245 665Q253 624 264.0 560.0Q275 496 283.0 423.0Q291 350 291 279Q291 152 271.5 76.0Q252 0 212 0ZM213 773Q223 796 233.5 813.5Q244 831 258 847Q255 867 249.0 890.5Q243 914 234.0 930.5Q225 947 212 947Q200 947 191.0 930.5Q182 914 176.0 890.5Q170 867 167 847Q181 831 192.0 813.5Q203 796 213 773ZM212 20Q230 20 243.5 55.0Q257 90 264.0 149.0Q271 208 271 279Q271 332 265.5 389.0Q260 446 252.0 500.0Q244 554 235.5 600.5Q227 647 221 678Q246 685 259.5 702.0Q273 719 289 741Q303 760 320.5 788.5Q338 817 359 829Q355 835 344.0 844.5Q333 854 318 854Q284 854 262.5 822.0Q241 790 212 729Q184 790 162.5 822.0Q141 854 107 854Q92 854 81.5 844.5Q71 835 66 829Q87 817 105.0 788.5Q123 760 136 741Q152 719 165.5 702.0Q179 685 204 678Q198 647 189.0 600.5Q180 554 172.0 500.0Q164 446 158.5 389.0Q153 332 153 279Q153 208 160.5 149.0Q168 90 181.5 55.0Q195 20 212 20Z" />
  </g>
</svg>