<svg xmlns="http://www.w3.org/2000/svg" viewBox="49 -3 781 1005">
  <g transform="translate(0, 999) scale(1, -1)">
    <path fill="black" d="M363 -3Q350 -3 344.0 5.0Q338 13 338 34V92Q338 127 354.5 159.0Q371 191 415 199V273Q412 281 401.5 298.0Q391 315 371.0 329.0Q351 343 320 343Q294 343 274.0 327.0Q254 311 243 299Q251 291 251 277Q251 267 248.0 254.5Q245 242 241 230Q238 220 235.5 210.5Q233 201 233 196Q233 185 235.0 176.0Q237 167 243 156L227 142Q217 146 203.5 154.0Q190 162 181 173Q159 160 142.5 154.5Q126 149 94 142Q92 162 92.5 183.0Q93 204 98 226Q80 231 67.0 243.0Q54 255 49 265L56 290Q68 284 76 284Q84 284 94.0 287.0Q104 290 111 293Q116 296 121.5 301.0Q127 306 133 311Q144 320 155.5 328.5Q167 337 179 337Q187 337 193.0 335.5Q199 334 203 332Q218 349 246.0 370.5Q274 392 320 392Q355 392 378.0 381.0Q401 370 415 356V501Q412 509 401.5 526.0Q391 543 371.0 557.0Q351 571 320 571Q294 571 274.0 555.0Q254 539 243 527Q251 519 251 505Q251 495 248.0 482.5Q245 470 241 458Q238 448 235.5 438.5Q233 429 233 424Q233 413 235.0 404.0Q237 395 243 384L227 370Q217 374 203.5 382.0Q190 390 181 401Q159 388 142.5 382.5Q126 377 94 370Q92 390 92.5 411.0Q93 432 98 454Q80 459 67.0 471.0Q54 483 49 493L56 518Q68 512 76 512Q84 512 94.0 515.0Q104 518 111 521Q116 524 121.5 529.0Q127 534 133 539Q144 548 155.5 556.5Q167 565 179 565Q195 565 203 560Q218 577 246.0 598.5Q274 620 320 620Q355 620 378.0 609.0Q401 598 415 584V847Q415 875 409.0 899.0Q403 923 383.5 938.0Q364 953 323 953Q295 953 274.5 937.5Q254 922 243 910Q251 900 251 888Q251 878 248.0 865.0Q245 852 241 840Q238 830 235.5 820.5Q233 811 233 806Q233 795 235.0 786.0Q237 777 243 767L227 752Q217 756 203.5 764.0Q190 772 181 784Q159 770 142.5 764.5Q126 759 94 752Q92 773 92.5 794.0Q93 815 98 836Q80 841 67.0 853.0Q54 865 49 875L56 900Q68 894 76 894Q84 894 94.0 897.0Q104 900 111 904Q122 911 133 921Q144 931 155.5 939.5Q167 948 179 948Q187 948 193.0 946.0Q199 944 203 942Q219 961 248.0 981.5Q277 1002 323 1002Q372 1002 400.5 987.5Q429 973 442.5 949.5Q456 926 460.0 899.0Q464 872 464 847V584Q478 598 501.5 609.0Q525 620 559 620Q606 620 633.5 598.5Q661 577 676 560Q684 565 700 565Q712 565 723.5 556.5Q735 548 746 539Q752 534 758.0 529.0Q764 524 768 521Q775 518 785.0 515.0Q795 512 803 512Q811 512 823 518L830 493Q825 483 811.5 471.0Q798 459 781 454Q786 432 786.5 411.0Q787 390 785 370Q754 377 737.0 382.5Q720 388 698 401Q689 390 675.5 382.0Q662 374 652 370L636 384Q642 395 644.0 404.0Q646 413 646 424Q646 429 643.5 438.5Q641 448 638 458Q634 470 630.5 482.5Q627 495 627 505Q627 518 636 527Q626 539 605.5 555.0Q585 571 559 571Q528 571 508.0 557.0Q488 543 477.5 526.0Q467 509 464 501V356Q478 370 501.5 381.0Q525 392 559 392Q606 392 633.5 370.5Q661 349 676 332Q680 334 685.5 335.5Q691 337 700 337Q712 337 723.5 328.5Q735 320 746 311Q752 306 758.0 301.0Q764 296 768 293Q775 290 785.0 287.0Q795 284 803 284Q811 284 823 290L830 265Q825 255 811.5 243.0Q798 231 781 226Q786 204 786.5 183.0Q787 162 785 142Q754 149 737.0 154.5Q720 160 698 173Q689 162 675.5 154.0Q662 146 652 142L636 156Q642 167 644.0 176.0Q646 185 646 196Q646 201 643.5 210.5Q641 220 638 230Q634 242 630.5 254.5Q627 267 627 277Q627 290 636 299Q626 311 605.5 327.0Q585 343 559 343Q528 343 508.0 329.0Q488 315 477.5 298.0Q467 281 464 273V199Q508 191 524.5 159.0Q541 127 541 92V34Q541 13 535.0 5.0Q529 -3 516 -3Q503 -3 497.0 4.5Q491 12 491 34V93Q491 152 439 152Q388 152 388 93V34Q388 12 382.0 4.5Q376 -3 363 -3ZM219 166Q217 171 215.0 178.5Q213 186 213 196Q213 204 216.0 214.5Q219 225 223 236Q226 247 228.0 254.5Q230 262 231 271Q231 276 228.0 283.0Q225 290 215 297Q225 309 239.0 324.0Q253 339 272.5 350.5Q292 362 318 362Q359 362 388.5 339.5Q418 317 434 278V202H445V278Q462 317 491.5 339.5Q521 362 561 362Q587 362 606.5 350.5Q626 339 640.0 324.0Q654 309 664 297Q654 290 650.5 283.0Q647 276 648 271Q649 262 651.0 254.5Q653 247 656 236Q660 225 663.0 214.5Q666 204 666 196Q666 186 664.0 178.5Q662 171 660 166Q668 170 676.0 177.0Q684 184 688 194Q693 208 692.0 223.5Q691 239 687 252L707 266Q717 257 734.0 250.5Q751 244 764 244Q784 244 794.5 254.0Q805 264 809 269Q801 263 784.5 267.0Q768 271 758 276Q752 280 746.0 285.0Q740 290 734 295Q713 314 697 314Q683 314 673 305Q666 314 651.5 330.0Q637 346 615.0 359.0Q593 372 561 372Q520 373 491.5 353.5Q463 334 449 308L445 310V506Q462 545 491.5 567.5Q521 590 561 590Q587 590 606.5 578.5Q626 567 640.0 552.0Q654 537 664 525Q654 518 650.5 511.0Q647 504 648 500Q649 490 651.0 482.5Q653 475 656 464Q660 453 663.0 442.5Q666 432 666 424Q666 414 664.0 406.5Q662 399 660 394Q668 398 676.0 405.0Q684 412 688 422Q693 436 692.0 451.5Q691 467 687 480L707 494Q717 485 734.0 478.5Q751 472 764 472Q784 472 794.5 482.0Q805 492 809 497Q801 491 784.5 495.0Q768 499 758 504Q752 508 746.0 513.0Q740 518 734 523Q713 542 697 542Q683 542 673 533Q666 542 651.5 558.0Q637 574 615.0 587.0Q593 600 561 600Q520 601 491.5 581.5Q463 562 449 536L445 538V847Q445 869 441.5 892.5Q438 916 426.5 936.5Q415 957 390.0 969.5Q365 982 323 982Q290 982 266.5 969.0Q243 956 228.0 940.0Q213 924 206 915Q195 925 182 925Q173 925 164.0 919.5Q155 914 145 906Q134 895 121 887Q111 881 94.5 877.0Q78 873 70 879Q74 874 85.0 864.0Q96 854 115 854Q129 854 145.5 860.5Q162 867 172 876L192 863Q188 850 187.5 834.0Q187 818 191 804Q195 794 203.5 787.5Q212 781 219 776Q217 782 215.0 789.0Q213 796 213 806Q213 814 216.0 824.5Q219 835 223 846Q226 857 228.0 864.5Q230 872 231 882Q231 886 228.0 893.5Q225 901 215 908Q226 920 241.0 935.5Q256 951 276.5 962.0Q297 973 323 973Q375 973 398.5 954.0Q422 935 428.0 904.5Q434 874 434 840V538L430 536Q416 562 387.5 581.5Q359 601 318 600Q287 600 264.5 587.0Q242 574 227.5 558.0Q213 542 206 533Q196 542 182 542Q166 542 145 523Q139 518 133.0 513.0Q127 508 121 504Q111 499 94.5 495.0Q78 491 70 497Q74 492 85.0 482.0Q96 472 115 472Q129 472 145.5 478.5Q162 485 172 494L192 480Q188 467 187.5 451.5Q187 436 191 422Q195 412 203.5 405.0Q212 398 219 394Q217 399 215.0 406.5Q213 414 213 424Q213 432 216.0 442.5Q219 453 223 464Q226 475 228.0 482.5Q230 490 231 500Q231 504 228.0 511.0Q225 518 215 525Q225 537 239.0 552.0Q253 567 272.5 578.5Q292 590 318 590Q359 590 388.5 567.5Q418 545 434 506V310L430 308Q416 334 387.5 353.5Q359 373 318 372Q287 372 264.5 359.0Q242 346 227.5 330.0Q213 314 206 305Q196 314 182 314Q166 314 145 295Q139 290 133.0 285.0Q127 280 121 276Q111 271 94.5 267.0Q78 263 70 269Q74 264 85.0 254.0Q96 244 115 244Q129 244 145.5 250.5Q162 257 172 266L192 252Q188 239 187.5 223.5Q187 208 191 194Q195 184 203.5 177.0Q212 170 219 166ZM112 777Q132 782 143.5 786.0Q155 790 171 800Q168 811 167.5 824.5Q167 838 171 850Q161 843 146.0 839.0Q131 835 118 834Q110 807 112 777ZM767 395Q769 425 761 452Q748 453 733.5 457.0Q719 461 708 468Q712 456 711.5 442.5Q711 429 708 418Q724 408 735.5 403.5Q747 399 767 395ZM112 395Q132 399 143.5 403.5Q155 408 171 418Q168 429 167.5 442.5Q167 456 171 468Q161 461 146.0 457.0Q131 453 118 452Q110 425 112 395ZM767 167Q769 197 761 224Q748 225 733.5 229.0Q719 233 708 240Q712 228 711.5 214.5Q711 201 708 190Q724 180 735.5 175.5Q747 171 767 167ZM112 167Q132 171 143.5 175.5Q155 180 171 190Q168 201 167.5 214.5Q167 228 171 240Q161 233 146.0 229.0Q131 225 118 224Q110 197 112 167ZM363 17Q365 17 366.5 20.5Q368 24 368 34V93Q368 128 385.5 150.0Q403 172 439 172Q476 172 493.5 150.0Q511 128 511 93V34Q511 24 512.5 20.5Q514 17 516 17Q521 17 521 34V92Q521 114 514.0 134.5Q507 155 489.0 168.5Q471 182 439 182Q408 182 390.0 168.5Q372 155 364.5 134.5Q357 114 357 92V34Q357 17 363 17Z" />
  </g>
</svg>