<svg xmlns="http://www.w3.org/2000/svg" viewBox="49 -100 675 1104">
  <g transform="translate(0, 904) scale(1, -1)">
    <path fill="black" d="M387 -100Q342 -100 305.0 -78.0Q268 -56 246.0 -19.0Q224 18 224 63Q224 95 236.0 123.5Q248 152 268 174L186 500Q170 502 156.0 512.0Q142 522 129 535Q119 547 113.0 561.5Q107 576 98 589Q85 609 56 604L49 620Q51 626 61.0 639.5Q71 653 90 658Q98 660 106.0 660.0Q114 660 121 658Q123 675 129.5 695.0Q136 715 149 730Q168 723 183.0 708.5Q198 694 208 680Q219 691 235 694Q255 699 270.0 692.5Q285 686 289 681L291 663Q264 655 261 630Q259 614 261.0 598.5Q263 583 259 568Q255 550 247.5 535.0Q240 520 227 510L305 203Q319 211 334.0 216.5Q349 222 365 224V771Q351 778 339.5 791.0Q328 804 319 820Q312 834 310.0 849.0Q308 864 302 879Q294 902 265 904L262 922Q266 927 279.0 937.5Q292 948 312 948Q328 948 342 940Q348 957 359.0 975.0Q370 993 386 1004Q403 993 414.0 975.0Q425 957 431 940Q445 948 461 948Q481 948 493.5 937.5Q506 927 510 922L507 904Q480 902 470 879Q464 864 462.5 849.0Q461 834 453 820Q445 804 433.5 791.0Q422 778 407 771V224Q441 219 468 203L546 510Q533 520 525.5 535.0Q518 550 514 568Q510 583 512.0 598.5Q514 614 512 630Q509 655 481 663L483 681Q488 686 503.0 692.5Q518 699 538 694Q552 691 565 680Q575 694 590.0 708.5Q605 723 623 730Q636 715 642.5 695.0Q649 675 651 658Q659 660 667.0 660.0Q675 660 683 658Q702 653 712.0 639.5Q722 626 724 620L716 604Q689 609 674 589Q665 576 659.5 561.5Q654 547 644 535Q631 522 617.0 512.0Q603 502 587 500L504 175Q525 153 537.0 124.0Q549 95 549 63Q549 18 527.5 -19.0Q506 -56 469.0 -78.0Q432 -100 387 -100ZM386 891Q391 899 398.0 910.0Q405 921 414 929Q410 942 403.0 956.5Q396 971 386 980Q376 971 369.0 956.5Q362 942 358 929Q367 921 374.5 910.0Q382 899 386 891ZM382 225H391V787Q408 792 418.5 803.5Q429 815 436 829Q443 843 445.5 858.0Q448 873 452 886Q456 899 465.5 908.0Q475 917 486 921Q482 924 476.5 926.5Q471 929 461 929Q443 929 427.0 911.5Q411 894 400.0 873.5Q389 853 386 844Q383 853 372.0 873.5Q361 894 345.5 911.5Q330 929 312 929Q302 929 296.0 926.5Q290 924 286 921Q312 912 321 886Q326 873 328.0 858.0Q330 843 337 829Q344 815 354.5 803.5Q365 792 382 787ZM596 621Q602 628 612.0 637.0Q622 646 632 650Q631 664 628.0 680.0Q625 696 618 708Q606 701 595.5 688.5Q585 676 578 664Q585 654 589.5 642.0Q594 630 596 621ZM177 621Q179 630 183.5 642.0Q188 654 194 664Q188 676 177.5 688.5Q167 701 155 708Q148 696 144.5 680.0Q141 664 141 650Q151 646 161.0 637.0Q171 628 177 621ZM282 187 290 193 207 521Q222 531 229.0 544.0Q236 557 240 573Q243 588 241.5 603.0Q240 618 241 632Q244 661 266 674Q262 676 255.5 677.0Q249 678 240 676Q223 672 211.5 651.0Q200 630 194.5 607.5Q189 585 188 576Q183 584 167.5 601.0Q152 618 132.0 631.0Q112 644 95 639Q86 637 80.5 633.0Q75 629 72 625Q98 625 115 600Q123 587 128.5 573.5Q134 560 144 548Q155 537 167.5 529.0Q180 521 198 519ZM490 188 575 519Q593 521 605.5 529.0Q618 537 628 548Q639 560 645.0 573.5Q651 587 658 600Q673 625 700 625Q697 629 692.0 633.0Q687 637 677 639Q660 644 640.5 631.0Q621 618 605.0 601.0Q589 584 584 576Q584 585 578.0 607.5Q572 630 561.0 651.0Q550 672 533 676Q523 678 517.0 677.0Q511 676 506 674Q529 661 531 632Q532 618 530.5 603.0Q529 588 533 573Q536 557 543.5 544.0Q551 531 566 521L482 194Q484 193 486.5 191.0Q489 189 490 188ZM387 121 454 188Q439 196 422.0 201.0Q405 206 387 206Q368 206 351.0 201.0Q334 196 319 188ZM471 -53Q490 -38 502 -21L416 63L502 146Q496 156 488.0 163.5Q480 171 471 178L387 92L301 177Q293 170 285.0 162.5Q277 155 271 146L356 63L271 -21Q277 -30 285.0 -37.5Q293 -45 301 -52L387 33ZM513 -4Q530 27 530 63Q530 98 513 129L445 63ZM260 -3 328 63 260 128Q244 98 244 63Q244 27 260 -3ZM387 -81Q405 -81 422.0 -76.0Q439 -71 454 -63L387 4L319 -63Q334 -71 351.0 -76.0Q368 -81 387 -81Z" />
  </g>
</svg>