<svg xmlns="http://www.w3.org/2000/svg" viewBox="49 -88 589 964">
  <g transform="translate(0, 788) scale(1, -1)">
    <path fill="black" d="M210 -88Q184 -61 156.0 -20.5Q128 20 103.5 69.5Q79 119 64.0 175.0Q49 231 49 288Q49 343 61.5 389.5Q74 436 92.0 471.0Q110 506 127 524Q114 568 98.5 617.0Q83 666 70 709H145V876H206V709H257V876H318V709H369V876H430V709H480V876H542V709H617L560 524Q568 516 587.0 488.5Q606 461 622.0 412.0Q638 363 638 288Q638 231 623.0 175.0Q608 119 583.5 69.5Q559 20 530.5 -20.5Q502 -61 476 -88ZM218 -69H468Q477 -60 500.5 -29.0Q524 2 551.5 50.0Q579 98 598.5 158.5Q618 219 618 288Q618 347 605.0 393.5Q592 440 573.5 471.5Q555 503 538 518L590 689H522V857H500V689H410V857H388V689H298V857H276V689H187V857H165V689H96L149 518Q132 503 113.0 471.5Q94 440 81.0 393.5Q68 347 68 288Q68 238 82.0 186.5Q96 135 119.0 87.0Q142 39 168.0 -1.0Q194 -41 218 -69Z" />
  </g>
</svg>