<svg xmlns="http://www.w3.org/2000/svg" viewBox="49 -83 327 1075">
  <g transform="translate(0, 909) scale(1, -1)">
    <path fill="black" d="M95 -83 81 -69Q113 -38 143.5 -4.5Q174 29 201 66Q132 162 90.5 275.5Q49 389 49 518Q49 603 65.5 658.5Q82 714 105.0 745.0Q128 776 148 786L100 940Q99 945 97.5 952.0Q96 959 96 963Q96 974 101.0 981.5Q106 989 119 989Q139 989 147 960L188 820V954Q188 971 191.0 981.5Q194 992 212 992Q230 992 233.5 980.0Q237 968 237 954V820L277 960Q286 989 305 989Q319 989 324.0 981.0Q329 973 329 963Q329 953 326 945L276 786Q297 776 320.0 745.0Q343 714 359.5 658.5Q376 603 376 518Q376 389 334.0 275.5Q292 162 224 66Q278 -7 344 -69L330 -83Q299 -52 269.0 -19.0Q239 14 212 50Q186 14 156.5 -19.0Q127 -52 95 -83ZM212 83Q277 176 316.5 285.0Q356 394 356 518Q356 602 338.5 656.0Q321 710 297.5 738.5Q274 767 254 774L310 951Q312 958 311.0 964.0Q310 970 305 970Q298 970 294 954L239 776H220V954Q220 961 218.0 966.5Q216 972 212 972Q205 972 205 954V776H186L131 954Q127 965 124.0 967.5Q121 970 119 970Q115 970 114.5 963.5Q114 957 116 951L171 774Q152 767 127.5 738.5Q103 710 85.5 656.0Q68 602 68 518Q68 394 107.5 285.0Q147 176 212 83Z" />
  </g>
</svg>