<svg xmlns="http://www.w3.org/2000/svg" viewBox="49 153 1122 268">
  <g transform="translate(0, 574) scale(1, -1)">
    <path fill="black" d="M1164 153Q1128 155 1082.0 168.0Q1036 181 987.5 203.0Q939 225 895.5 256.0Q852 287 820.0 326.0Q788 365 774 411L784 421Q830 420 886.5 398.0Q943 376 999.0 339.5Q1055 303 1101.0 257.0Q1147 211 1171 161ZM438 153Q402 155 356.0 168.0Q310 181 262.0 203.0Q214 225 170.5 256.0Q127 287 95.0 326.0Q63 365 49 411L59 421Q105 420 161.5 398.0Q218 376 274.0 339.5Q330 303 376.0 257.0Q422 211 446 161ZM801 153Q765 155 719.0 168.0Q673 181 625.0 203.0Q577 225 533.5 256.0Q490 287 458.0 326.0Q426 365 412 411L421 421Q467 420 523.5 398.0Q580 376 636.5 339.5Q693 303 739.0 257.0Q785 211 809 161ZM420 171Q396 215 354.5 255.5Q313 296 263.5 327.5Q214 359 164.0 378.5Q114 398 72 401Q89 353 130.5 313.5Q172 274 224.5 244.0Q277 214 329.0 195.5Q381 177 420 171ZM783 171Q759 215 717.5 255.5Q676 296 626.5 327.5Q577 359 527.0 378.5Q477 398 435 401Q452 353 493.0 313.5Q534 274 586.5 244.0Q639 214 691.5 195.5Q744 177 783 171ZM1146 171Q1122 215 1080.5 255.5Q1039 296 989.0 327.5Q939 359 889.0 378.5Q839 398 797 401Q814 353 855.5 313.5Q897 274 949.5 244.0Q1002 214 1054.5 195.5Q1107 177 1146 171Z" />
  </g>
</svg>