<svg xmlns="http://www.w3.org/2000/svg" viewBox="49 -54 397 1030">
  <g transform="translate(0, 922) scale(1, -1)">
    <path fill="black" d="M438 708Q402 710 356.0 723.0Q310 736 262.0 758.0Q214 780 170.5 811.0Q127 842 95.0 881.0Q63 920 49 966L59 976Q105 975 161.5 953.0Q218 931 274.0 894.5Q330 858 376.0 812.0Q422 766 446 716ZM420 726Q396 770 354.5 810.0Q313 850 263.5 882.0Q214 914 164.0 933.5Q114 953 72 956Q89 908 130.5 868.0Q172 828 224.5 798.5Q277 769 329.0 750.5Q381 732 420 726ZM438 327Q402 329 356.0 342.0Q310 355 262.0 377.0Q214 399 170.5 430.0Q127 461 95.0 500.0Q63 539 49 585L59 595Q105 594 161.5 572.0Q218 550 274.0 513.5Q330 477 376.0 431.0Q422 385 446 335ZM420 345Q396 389 354.5 429.0Q313 469 263.5 501.0Q214 533 164.0 552.5Q114 572 72 575Q89 527 130.5 487.0Q172 447 224.5 417.5Q277 388 329.0 369.5Q381 351 420 345ZM438 -54Q402 -52 356.0 -39.0Q310 -26 262.0 -4.0Q214 18 170.5 49.0Q127 80 95.0 119.0Q63 158 49 204L59 214Q105 213 161.5 191.0Q218 169 274.0 132.5Q330 96 376.0 50.0Q422 4 446 -46ZM420 -36Q396 8 354.5 48.5Q313 89 263.5 120.5Q214 152 164.0 171.5Q114 191 72 194Q89 146 130.5 106.0Q172 66 224.5 36.5Q277 7 329.0 -11.5Q381 -30 420 -36Z" />
  </g>
</svg>