<svg xmlns="http://www.w3.org/2000/svg" viewBox="49 41 863 731">
  <g transform="translate(0, 813) scale(1, -1)">
    <path fill="black" d="M438 504Q402 506 356.0 519.0Q310 532 262.0 554.0Q214 576 170.5 607.0Q127 638 95.0 677.0Q63 716 49 762L59 772Q105 771 161.5 749.5Q218 728 274.0 691.5Q330 655 376.0 608.5Q422 562 446 512ZM904 504Q868 506 822.0 519.0Q776 532 728.0 554.0Q680 576 636.5 607.0Q593 638 561.0 677.0Q529 716 515 762L524 772Q570 771 626.5 749.5Q683 728 739.5 691.5Q796 655 842.0 608.5Q888 562 912 512ZM420 522Q396 566 354.5 606.5Q313 647 263.5 678.5Q214 710 164.0 729.5Q114 749 72 752Q89 704 130.5 664.5Q172 625 224.5 595.0Q277 565 329.0 546.5Q381 528 420 522ZM886 522Q862 566 820.5 606.5Q779 647 729.5 678.5Q680 710 630.0 729.5Q580 749 538 752Q555 704 596.0 664.5Q637 625 689.5 595.0Q742 565 794.5 546.5Q847 528 886 522ZM729 41Q693 43 647.0 56.0Q601 69 552.5 91.0Q504 113 460.5 144.0Q417 175 385.0 214.0Q353 253 339 299L349 310Q395 309 451.5 287.0Q508 265 564.0 228.5Q620 192 666.0 145.5Q712 99 736 49ZM710 60Q686 104 645.0 144.0Q604 184 554.0 216.0Q504 248 454.0 267.5Q404 287 362 290Q379 241 420.5 201.5Q462 162 514.5 132.5Q567 103 619.0 84.5Q671 66 710 60Z" />
  </g>
</svg>