<svg xmlns="http://www.w3.org/2000/svg" viewBox="49 -81 416 1076">
  <g transform="translate(0, 914) scale(1, -1)">
    <path fill="black" d="M257 -81Q240 -81 222.5 -73.0Q205 -65 200 -60Q202 -49 206.0 -16.0Q210 17 214.5 60.0Q219 103 222.5 144.5Q226 186 226 213Q226 247 219.5 282.0Q213 317 199 348L49 489L64 505L181 408Q177 425 173.0 446.5Q169 468 167 495L51 606L65 623L165 541V567Q165 583 165.5 598.0Q166 613 167 627L69 723L82 738L172 666Q174 684 178.0 700.5Q182 717 186 731L99 851L115 864L197 769Q202 780 206.0 790.0Q210 800 214 808L154 941L173 951L235 840L240 846L244 995H270L273 846L279 840L340 951L360 941L299 808Q304 800 308.0 790.0Q312 780 316 769L398 864L415 851L328 731Q332 717 335.5 700.5Q339 684 342 666L432 738L445 723L347 627Q348 613 348.5 598.0Q349 583 349 567V541L449 623L463 606L346 495Q344 468 340.5 446.5Q337 425 333 408L449 505L465 489L315 348Q301 317 294.5 282.0Q288 247 288 213Q288 186 291.0 144.5Q294 103 299.0 60.0Q304 17 308.0 -16.0Q312 -49 313 -60Q309 -65 291.5 -73.0Q274 -81 257 -81ZM257 -61Q267 -61 277.5 -57.0Q288 -53 292 -49Q290 -35 286.0 -2.5Q282 30 278.0 70.0Q274 110 271.0 148.5Q268 187 268 213Q268 260 275.5 288.5Q283 317 293 345L448 487L446 488L306 368L302 372Q310 395 316.5 422.0Q323 449 327 495L446 604L444 606L328 506Q329 521 329.5 535.0Q330 549 330 567Q330 584 329.5 598.0Q329 612 328 627L428 720L426 721L327 637Q324 666 320.0 688.0Q316 710 311 730L398 845L396 847L309 739Q302 762 296.0 777.0Q290 792 284 805L344 933L342 934L281 812Q270 833 261 835L258 979H255L253 835Q243 833 234 814L171 934L169 933L230 805Q223 792 217.0 777.0Q211 762 205 739L117 847L116 845L203 730Q198 710 193.5 688.0Q189 666 187 637L87 721L86 720L186 627Q185 612 184.5 598.0Q184 584 184 567Q184 549 184.5 535.0Q185 521 186 506L69 606L68 604L187 495Q190 449 196.5 422.0Q203 395 211 372L208 368L67 488L66 487L221 345Q232 317 239.0 288.5Q246 260 246 213Q246 187 243.0 148.5Q240 110 235.5 70.0Q231 30 227.0 -2.5Q223 -35 221 -49Q226 -53 236.5 -57.0Q247 -61 257 -61ZM244 325Q231 366 222.0 402.5Q213 439 208.5 480.0Q204 521 204 573Q204 641 215.0 698.5Q226 756 248 812H266Q287 756 298.5 698.5Q310 641 310 573Q310 521 305.5 480.0Q301 439 292.5 402.5Q284 366 270 325ZM257 344Q273 393 281.5 446.5Q290 500 290 573Q290 633 282.0 683.5Q274 734 257 784Q240 734 232.0 683.5Q224 633 224 573Q224 500 232.5 446.5Q241 393 257 344Z" />
  </g>
</svg>