<svg xmlns="http://www.w3.org/2000/svg" viewBox="49 -167 235 1168">
  <g transform="translate(0, 834) scale(1, -1)">
    <path fill="black" d="M127 -167V211L60 241L127 409Q99 410 74.0 430.5Q49 451 49 489Q49 526 72.0 546.5Q95 567 127 569V1001H284V-167ZM146 462H264V981H146ZM127 429H264V442H127Q105 442 93.0 456.0Q81 470 81 489Q81 507 93.0 520.5Q105 534 127 536V550Q103 547 85.5 531.5Q68 516 68 489Q68 461 87.0 445.0Q106 429 127 429ZM127 462V517Q114 515 107.5 507.0Q101 499 101 489Q101 479 107.5 471.0Q114 463 127 462ZM146 -148H264V409H146ZM127 232V356L84 251Z" />
  </g>
</svg>