<svg xmlns="http://www.w3.org/2000/svg" viewBox="49 46 905 478">
  <g transform="translate(0, 570) scale(1, -1)">
    <path fill="black" d="M890 46Q867 46 847.5 56.0Q828 66 809.0 79.5Q790 93 769 103Q742 116 699.0 129.0Q656 142 609.0 154.5Q562 167 521.0 179.0Q480 191 456 202Q432 213 398.0 236.5Q364 260 325.5 287.0Q287 314 252.0 337.0Q217 360 192 371Q174 379 150.0 387.5Q126 396 103.0 406.0Q80 416 64.5 430.0Q49 444 49 464Q49 488 58.5 501.0Q68 514 81.5 519.0Q95 524 105 524Q130 524 152.5 513.5Q175 503 196.5 489.0Q218 475 240 465Q284 452 338.0 437.0Q392 422 446.0 405.5Q500 389 543 370Q583 353 626.5 322.5Q670 292 714.5 259.0Q759 226 802 202Q816 194 841.0 186.0Q866 178 892.0 167.5Q918 157 936.0 141.5Q954 126 954 102Q954 78 938.0 62.0Q922 46 890 46ZM890 66Q913 66 924.0 76.0Q935 86 935 102Q935 118 920.0 130.0Q905 142 882.5 151.0Q860 160 836.0 168.0Q812 176 795 184Q774 193 743.0 215.0Q712 237 675.5 263.5Q639 290 602.5 314.5Q566 339 536 353Q464 386 386.5 404.0Q309 422 234 447Q214 454 193.0 467.5Q172 481 150.0 492.5Q128 504 105 504Q95 504 81.5 496.5Q68 489 68 464Q68 451 83.0 440.0Q98 429 120.0 420.0Q142 411 164.0 403.5Q186 396 200 389Q252 364 298.5 330.5Q345 297 387.0 266.5Q429 236 465 220Q491 208 532.0 196.0Q573 184 620.0 171.0Q667 158 709.0 145.0Q751 132 778 120Q795 112 813.0 99.0Q831 86 850.5 76.0Q870 66 890 66Z" />
  </g>
</svg>