<svg xmlns="http://www.w3.org/2000/svg" viewBox="49 50 709 709">
  <g transform="translate(0, 809) scale(1, -1)">
    <path fill="black" d="M403 50Q391 50 379.0 67.5Q367 85 357.5 113.5Q348 142 342.0 175.5Q336 209 336 241Q336 284 349.5 320.0Q363 356 373 373L372 374Q355 364 319.0 350.5Q283 337 240 337Q193 337 149.0 347.0Q105 357 77.0 372.5Q49 388 49 404Q49 416 66.5 428.0Q84 440 112.5 450.0Q141 460 174.5 465.5Q208 471 240 471Q283 471 319.0 457.5Q355 444 371 435L373 436Q363 453 349.5 488.5Q336 524 336 567Q336 599 342.0 632.5Q348 666 357.5 695.0Q367 724 379.0 741.5Q391 759 403 759Q420 759 435.5 731.0Q451 703 460.5 659.0Q470 615 470 567Q470 525 457.0 489.5Q444 454 434 437L436 435Q453 445 488.5 458.0Q524 471 566 471Q598 471 631.5 465.5Q665 460 694.0 450.0Q723 440 740.5 428.0Q758 416 758 404Q758 388 730.0 372.5Q702 357 658.0 347.0Q614 337 566 337Q524 337 488.5 350.5Q453 364 436 374L434 372Q443 355 456.5 319.5Q470 284 470 241Q470 194 460.5 150.0Q451 106 435.5 78.0Q420 50 403 50ZM389 446Q397 449 404 449Q409 449 417 447Q420 453 428.0 471.5Q436 490 443.5 515.5Q451 541 451 567Q451 594 446.0 623.0Q441 652 433.5 678.0Q426 704 417.5 720.0Q409 736 403 736Q397 736 389.0 720.0Q381 704 373.5 678.0Q366 652 361.0 623.0Q356 594 356 567Q356 524 369.0 491.5Q382 459 389 446ZM240 357Q267 357 292.5 364.5Q318 372 337.0 380.0Q356 388 361 391Q360 394 359.5 397.0Q359 400 359 404Q359 410 361 418Q348 426 315.5 439.0Q283 452 240 452Q214 452 184.5 447.0Q155 442 129.0 434.5Q103 427 87.0 418.5Q71 410 71 404Q71 398 87.0 390.0Q103 382 129.0 374.5Q155 367 184.5 362.0Q214 357 240 357ZM566 357Q593 357 622.0 362.0Q651 367 677.0 374.5Q703 382 719.0 390.0Q735 398 735 404Q735 410 719.0 418.5Q703 427 677.0 434.5Q651 442 622.0 447.0Q593 452 566 452Q524 452 491.5 439.0Q459 426 446 418Q448 410 448 404Q448 400 447.5 397.0Q447 394 446 390Q452 387 470.5 379.0Q489 371 514.5 364.0Q540 357 566 357ZM404 379Q414 379 421.5 386.5Q429 394 429 404Q429 415 421.5 422.0Q414 429 404 429Q394 429 386.5 422.0Q379 415 379 404Q379 394 386.5 386.5Q394 379 404 379ZM403 72Q409 72 417.5 88.0Q426 104 433.5 130.0Q441 156 446.0 185.5Q451 215 451 241Q451 267 444.0 292.0Q437 317 429.0 336.5Q421 356 417 362Q414 361 410.5 360.5Q407 360 404 360Q400 360 396.5 360.5Q393 361 389 362Q382 349 369.0 316.5Q356 284 356 241Q356 215 361.0 185.5Q366 156 373.5 130.0Q381 104 389.0 88.0Q397 72 403 72Z" />
  </g>
</svg>