<svg xmlns="http://www.w3.org/2000/svg" viewBox="49 51 1294 923">
  <g transform="translate(0, 1025) scale(1, -1)">
    <path fill="black" d="M1067 51 972 335H1127Q1127 359 1126.0 401.0Q1125 443 1120.5 494.0Q1116 545 1106.0 597.5Q1096 650 1079.0 696.0Q1062 742 1035.0 774.0Q1008 806 970 815Q952 768 939.5 736.0Q927 704 922 692L935 114Q935 97 926.5 78.5Q918 60 896 60Q874 60 865.0 78.5Q856 97 856 114Q857 167 858.5 239.5Q860 312 862.0 393.0Q864 474 866.0 552.0Q868 630 869 692L820 819H768V783Q790 779 807.5 760.0Q825 741 835.0 714.5Q845 688 845 660Q845 628 834.0 599.0Q823 570 803.5 552.5Q784 535 758 535Q733 535 713.0 552.5Q693 570 682.0 599.0Q671 628 671 660Q671 688 681.5 714.5Q692 741 709.5 760.0Q727 779 749 783V819H573V783Q595 779 612.0 760.0Q629 741 639.5 714.5Q650 688 650 660Q650 628 639.0 599.0Q628 570 608.5 552.5Q589 535 563 535Q537 535 517.5 552.5Q498 570 487.0 599.0Q476 628 476 660Q476 688 486.0 714.5Q496 741 513.5 760.0Q531 779 553 783V819H377V783Q399 779 416.5 760.0Q434 741 444.5 714.5Q455 688 455 660Q455 628 444.0 599.0Q433 570 413.5 552.5Q394 535 368 535Q342 535 322.5 552.5Q303 570 292.0 599.0Q281 628 281 660Q281 688 291.0 714.5Q301 741 318.5 760.0Q336 779 358 783V819H302L253 692Q255 630 256.5 552.0Q258 474 260.0 393.0Q262 312 263.5 239.5Q265 167 266 114Q266 97 257.0 78.5Q248 60 227 60Q205 60 196.5 78.5Q188 97 187 114L200 692Q192 712 178.5 748.0Q165 784 151 819H87Q69 819 59.0 824.0Q49 829 49 849Q49 879 87 879H127L118 906Q115 914 112.0 925.0Q109 936 109 946Q109 958 115.0 966.0Q121 974 134 974Q151 974 157.5 964.0Q164 954 169 940L192 879H261L282 933Q288 950 295.5 962.0Q303 974 320 974Q333 974 338.5 966.0Q344 958 344 946Q344 936 341.5 925.0Q339 914 335 906L325 879H796L787 906Q783 914 780.5 925.0Q778 936 778 946Q778 958 783.5 966.0Q789 974 802 974Q819 974 826.5 962.0Q834 950 840 933L861 879H929L953 940Q958 954 964.5 964.0Q971 974 988 974Q1001 974 1007.0 966.0Q1013 958 1013 946Q1013 936 1010.0 925.0Q1007 914 1004 906L993 875Q1050 863 1087.5 814.5Q1125 766 1147.0 691.0Q1169 616 1178.5 524.5Q1188 433 1188 335H1343L1249 51ZM817 879H840L822 926Q818 936 814.0 945.5Q810 955 804 955Q797 955 797 946Q797 939 799.5 930.0Q802 921 805 913ZM896 79Q907 79 911.5 91.0Q916 103 916 113L903 696L986 913Q989 920 991.5 929.5Q994 939 994 946Q994 955 988 955Q982 955 978.5 948.0Q975 941 971 932L896 738L864 819H841L888 696L875 113Q875 103 879.5 91.0Q884 79 896 79ZM281 879H304L317 913Q320 921 322.5 930.0Q325 939 325 946Q325 955 318 955Q313 955 308.5 945.5Q304 936 300 926ZM227 79Q238 79 242.5 91.0Q247 103 247 113L234 696L281 819H258L227 738L151 932Q147 941 143.5 948.0Q140 955 134 955Q128 955 128 946Q128 939 130.5 929.5Q133 920 136 913L219 696L207 113Q206 103 210.5 91.0Q215 79 227 79ZM87 838H143L135 860H87Q68 860 68 849Q68 842 73.0 840.0Q78 838 87 838ZM208 838H914L922 860H200ZM1147 335H1168Q1168 430 1159.0 519.0Q1150 608 1129.5 680.5Q1109 753 1074.0 800.0Q1039 847 986 857Q983 851 981.0 845.5Q979 840 977 834Q1018 823 1047.0 789.5Q1076 756 1094.5 707.5Q1113 659 1124.0 605.0Q1135 551 1139.5 498.0Q1144 445 1145.5 402.5Q1147 360 1147 335ZM227 792 237 819H216ZM896 792 906 819H885ZM368 555Q398 555 416.5 587.0Q435 619 435 660Q435 685 426.0 709.0Q417 733 402.0 749.0Q387 765 368 765Q349 765 333.5 749.0Q318 733 309.0 709.0Q300 685 300 660Q300 619 319.0 587.0Q338 555 368 555ZM563 555Q593 555 611.5 587.0Q630 619 630 660Q630 685 621.0 709.0Q612 733 597.0 749.0Q582 765 563 765Q544 765 529.0 749.0Q514 733 505.0 709.0Q496 685 496 660Q496 619 514.5 587.0Q533 555 563 555ZM758 555Q788 555 807.0 587.0Q826 619 826 660Q826 685 817.0 709.0Q808 733 792.5 749.0Q777 765 758 765Q740 765 724.5 749.0Q709 733 700.0 709.0Q691 685 691 660Q691 619 709.5 587.0Q728 555 758 555ZM1081 70H1235Q1256 133 1275.5 192.5Q1295 252 1316 316H999Q1020 252 1040.0 193.0Q1060 134 1081 70Z" />
  </g>
</svg>