<svg xmlns="http://www.w3.org/2000/svg" viewBox="49 -193 1156 1162">
  <g transform="translate(0, 776) scale(1, -1)">
    <path fill="black" d="M668 -193Q639 -174 613.5 -154.5Q588 -135 573.0 -108.0Q558 -81 558 -39Q558 -6 569.5 16.0Q581 38 598.0 51.5Q615 65 630.5 72.0Q646 79 654 81V520L507 390V808H230L49 644V969H1205V644L1023 808H585V573L733 703V81Q741 79 756.5 72.0Q772 65 789.0 51.5Q806 38 818.0 16.0Q830 -6 830 -39Q830 -81 814.5 -108.0Q799 -135 774.0 -154.5Q749 -174 720 -193L708 -182Q727 -149 738.5 -116.5Q750 -84 750 -43Q750 -24 736.5 -7.0Q723 10 694 10Q666 10 651.5 -7.0Q637 -24 637 -43Q637 -84 649.0 -116.5Q661 -149 680 -182ZM68 687 224 827H1030L1185 687V950H68ZM643 -153Q630 -127 624.0 -101.5Q618 -76 618 -43Q618 -17 637.0 6.5Q656 30 694 30Q732 30 751.0 6.5Q770 -17 770 -43Q770 -76 763.5 -101.5Q757 -127 745 -153Q773 -133 791.5 -107.5Q810 -82 810 -39Q810 -4 793.0 19.0Q776 42 753.0 53.0Q730 64 713 64V660L566 529V808H526V433L674 563V64Q657 64 634.5 53.0Q612 42 595.0 19.0Q578 -4 578 -39Q578 -82 596.5 -107.5Q615 -133 643 -153Z" />
  </g>
</svg>