<svg xmlns="http://www.w3.org/2000/svg" viewBox="49 -200 1156 1169">
  <g transform="translate(0, 769) scale(1, -1)">
    <path fill="black" d="M481 -200Q469 -200 450.0 -184.5Q431 -169 411.5 -143.0Q392 -117 378.5 -84.5Q365 -52 365 -18Q365 15 379.5 35.5Q394 56 412.5 67.5Q431 79 442 83V735H521V689H639V808H230L49 644V969H1205V644L1023 808H717V402H639V496H521V83Q532 79 550.0 67.5Q568 56 583.0 35.5Q598 15 598 -18Q598 -52 584.5 -84.5Q571 -117 551.5 -143.0Q532 -169 512.5 -184.5Q493 -200 481 -200ZM68 687 224 827H1030L1185 687V950H68ZM658 422H698V808H658ZM481 -178Q493 -178 509.5 -163.0Q526 -148 542.0 -124.0Q558 -100 568.5 -72.0Q579 -44 579 -18Q579 6 566.5 23.5Q554 41 536.0 52.5Q518 64 501 68V716H461V68Q445 64 427.0 52.5Q409 41 396.5 23.5Q384 6 384 -18Q384 -44 394.5 -72.0Q405 -100 421.0 -124.0Q437 -148 453.0 -163.0Q469 -178 481 -178ZM521 603H639V670H521ZM521 516H639V583H521Z" />
  </g>
</svg>