<svg xmlns="http://www.w3.org/2000/svg" viewBox="49 24 704 704">
  <g transform="translate(0, 752) scale(1, -1)">
    <path fill="black" d="M401 24Q328 24 264.5 51.5Q201 79 152.5 127.5Q104 176 76.5 239.5Q49 303 49 376Q49 449 76.5 512.5Q104 576 152.5 624.5Q201 673 264.5 700.5Q328 728 401 728Q474 728 537.5 700.5Q601 673 649.5 624.5Q698 576 725.5 512.5Q753 449 753 376Q753 303 725.5 239.5Q698 176 649.5 127.5Q601 79 537.5 51.5Q474 24 401 24ZM401 43Q470 43 530.0 69.0Q590 95 635.5 140.5Q681 186 707.0 246.5Q733 307 733 376Q733 445 707.0 505.0Q681 565 635.5 611.0Q590 657 530.0 682.5Q470 708 401 708Q332 708 271.5 682.5Q211 657 165.5 611.0Q120 565 94.0 505.0Q68 445 68 376Q68 307 94.0 246.5Q120 186 165.5 140.5Q211 95 271.5 69.0Q332 43 401 43ZM401 302Q370 302 348.5 323.5Q327 345 327 376Q327 407 348.5 428.5Q370 450 401 450Q431 450 453.0 428.5Q475 407 475 376Q475 345 453.0 323.5Q431 302 401 302ZM401 322Q424 322 439.5 338.0Q455 354 455 376Q455 399 439.5 414.5Q424 430 401 430Q379 430 363.0 414.5Q347 399 347 376Q347 354 363.0 338.0Q379 322 401 322Z" />
  </g>
</svg>