<svg xmlns="http://www.w3.org/2000/svg" viewBox="49 -203 634 940">
  <g transform="translate(0, 534) scale(1, -1)">
    <path fill="black" d="M67 -203 49 -196 231 321Q188 353 162.0 401.5Q136 450 136 507Q136 571 167.0 623.0Q198 675 250.5 706.0Q303 737 366 737Q429 737 481.0 706.0Q533 675 564.0 623.0Q595 571 595 507Q595 450 569.5 401.5Q544 353 500 321L683 -196L664 -203L482 310Q435 281 375 278V-199H356V278Q296 281 249 310ZM366 297Q424 297 471.5 325.5Q519 354 547.5 402.0Q576 450 576 507Q576 565 547.5 612.5Q519 660 471.5 688.5Q424 717 366 717Q308 717 260.5 688.5Q213 660 184.5 612.5Q156 565 156 507Q156 450 184.5 402.0Q213 354 260.5 325.5Q308 297 366 297ZM366 459Q346 459 332.0 473.5Q318 488 318 507Q318 527 332.0 541.0Q346 555 366 555Q386 555 400.0 541.0Q414 527 414 507Q414 488 400.0 473.5Q386 459 366 459ZM366 479Q377 479 385.5 487.5Q394 496 394 507Q394 519 385.5 527.5Q377 536 366 536Q354 536 345.5 527.5Q337 519 337 507Q337 496 345.5 487.5Q354 479 366 479Z" />
  </g>
</svg>