<svg xmlns="http://www.w3.org/2000/svg" viewBox="49 14 593 592">
  <g transform="translate(0, 620) scale(1, -1)">
    <path fill="black" d="M345 14Q284 14 230.5 37.0Q177 60 136.0 100.5Q95 141 72.0 195.0Q49 249 49 310Q49 372 72.0 425.5Q95 479 136.0 519.5Q177 560 230.5 583.0Q284 606 345 606Q407 606 460.5 583.0Q514 560 555.0 519.5Q596 479 619.0 425.5Q642 372 642 310Q642 249 619.0 195.0Q596 141 555.0 100.5Q514 60 460.5 37.0Q407 14 345 14ZM68 320H622Q620 394 582.0 454.5Q544 515 482.0 551.0Q420 587 345 587Q270 587 208.5 551.0Q147 515 109.0 454.5Q71 394 68 320ZM345 33Q420 33 482.0 69.0Q544 105 582.0 165.5Q620 226 622 300H68Q71 226 109.0 165.5Q147 105 208.5 69.0Q270 33 345 33Z" />
  </g>
</svg>