<svg xmlns="http://www.w3.org/2000/svg" viewBox="49 14 593 592">
  <g transform="translate(0, 620) scale(1, -1)">
    <path fill="black" d="M345 14Q284 14 230.5 37.0Q177 60 136.0 100.5Q95 141 72.0 195.0Q49 249 49 310Q49 372 72.0 425.5Q95 479 136.0 519.5Q177 560 230.5 583.0Q284 606 345 606Q407 606 460.5 583.0Q514 560 555.0 519.5Q596 479 619.0 425.5Q642 372 642 310Q642 249 619.0 195.0Q596 141 555.0 100.5Q514 60 460.5 37.0Q407 14 345 14ZM68 328Q83 342 109.5 363.0Q136 384 172.0 404.5Q208 425 252.0 438.5Q296 452 345 452Q395 452 438.5 438.5Q482 425 518.0 404.5Q554 384 580.5 363.0Q607 342 622 328Q621 376 599.5 422.5Q578 469 540.5 506.0Q503 543 453.0 565.0Q403 587 345 587Q287 587 237.5 565.0Q188 543 150.5 506.0Q113 469 91.5 422.5Q70 376 68 328ZM345 33Q420 33 482.0 68.5Q544 104 582.0 165.5Q620 227 622 304Q608 320 580.5 341.5Q553 363 516.0 384.0Q479 405 435.5 419.0Q392 433 345 433Q299 433 255.0 419.0Q211 405 174.0 384.0Q137 363 109.5 341.5Q82 320 68 304Q71 227 109.0 165.5Q147 104 208.5 68.5Q270 33 345 33Z" />
  </g>
</svg>