<svg xmlns="http://www.w3.org/2000/svg" viewBox="49 4 1266 490">
  <g transform="translate(0, 498) scale(1, -1)">
    <path fill="black" d="M49 4Q49 72 77.0 142.0Q105 212 158.5 275.0Q212 338 289.5 387.5Q367 437 465.5 465.5Q564 494 682 494Q800 494 899.0 465.5Q998 437 1075.0 387.5Q1152 338 1205.5 275.0Q1259 212 1287.0 142.0Q1315 72 1315 4H1288Q1275 30 1240.0 71.5Q1205 113 1150.5 159.0Q1096 205 1024.5 245.5Q953 286 866.5 312.0Q780 338 682 338Q584 338 497.5 312.0Q411 286 339.5 245.5Q268 205 213.5 159.0Q159 113 124.0 71.5Q89 30 76 4ZM1295 27Q1293 90 1264.5 154.0Q1236 218 1184.0 275.5Q1132 333 1057.5 377.5Q983 422 889.0 448.0Q795 474 682 474Q543 474 431.5 435.0Q320 396 240.5 331.5Q161 267 117.5 188.5Q74 110 69 32Q87 61 124.5 102.5Q162 144 218.0 188.0Q274 232 345.0 270.5Q416 309 501.0 333.0Q586 357 682 357Q780 357 866.0 332.0Q952 307 1024.0 267.5Q1096 228 1151.5 183.0Q1207 138 1243.5 96.5Q1280 55 1295 27Z" />
  </g>
</svg>