<svg xmlns="http://www.w3.org/2000/svg" viewBox="49 -326 1191 1192">
  <g transform="translate(0, 540) scale(1, -1)">
    <path fill="black" d="M645 -326Q546 -326 457.0 -296.0Q368 -266 293.5 -211.0Q219 -156 164.0 -81.5Q109 -7 79.0 82.0Q49 171 49 270Q49 369 79.0 458.0Q109 547 164.0 621.5Q219 696 293.5 751.0Q368 806 457.0 836.0Q546 866 645 866Q743 866 832.5 836.0Q922 806 996.0 751.0Q1070 696 1125.0 621.5Q1180 547 1210.0 458.0Q1240 369 1240 270Q1240 171 1210.0 82.0Q1180 -7 1125.0 -81.5Q1070 -156 996.0 -211.0Q922 -266 832.5 -296.0Q743 -326 645 -326ZM645 -306Q740 -306 826.5 -277.0Q913 -248 985.0 -195.0Q1057 -142 1110.0 -70.0Q1163 2 1192.0 88.5Q1221 175 1221 270Q1221 365 1192.0 451.5Q1163 538 1110.0 610.0Q1057 682 985.0 735.0Q913 788 826.5 817.0Q740 846 645 846Q550 846 463.5 817.0Q377 788 304.5 735.0Q232 682 179.0 610.0Q126 538 97.0 451.5Q68 365 68 270Q68 175 97.0 88.5Q126 2 179.0 -70.0Q232 -142 304.5 -195.0Q377 -248 463.5 -277.0Q550 -306 645 -306ZM372 -226 368 -169 555 234 120 330 84 372 137 393 589 340 613 792 645 827 676 792 700 339 1152 393 1205 372 1169 330 735 234 921 -169 917 -226 868 -206 645 175 421 -206ZM389 -198 409 -189 645 213 880 -189 900 -198 902 -173 707 249 1159 348 1173 363 1150 373 681 318 657 784 645 798 632 784 608 318 139 373 116 363 130 348 582 249 387 -173Z" />
  </g>
</svg>