<svg xmlns="http://www.w3.org/2000/svg" viewBox="49 -259 1274 367">
  <g transform="translate(0, -151) scale(1, -1)">
    <path fill="black" d="M146 -97Q109 -97 88.0 -80.5Q67 -64 58.0 -40.0Q49 -16 49 6Q49 46 70.0 77.0Q91 108 146 108H1226Q1281 108 1302.0 77.0Q1323 46 1323 6Q1323 -16 1314.0 -40.0Q1305 -64 1284.0 -80.5Q1263 -97 1226 -97ZM146 -77H1226Q1256 -77 1272.5 -63.5Q1289 -50 1296.0 -31.0Q1303 -12 1303 6Q1303 38 1286.5 63.5Q1270 89 1226 89H146Q102 89 85.0 63.5Q68 38 68 6Q68 -12 75.0 -31.0Q82 -50 99.0 -63.5Q116 -77 146 -77ZM442 -259Q420 -259 404.0 -243.0Q388 -227 388 -205Q388 -182 404.0 -166.5Q420 -151 442 -151Q465 -151 480.5 -166.5Q496 -182 496 -205Q496 -227 480.5 -243.0Q465 -259 442 -259ZM686 -259Q664 -259 648.0 -243.0Q632 -227 632 -205Q632 -182 648.0 -166.5Q664 -151 686 -151Q709 -151 724.5 -166.5Q740 -182 740 -205Q740 -227 724.5 -243.0Q709 -259 686 -259ZM930 -259Q908 -259 892.0 -243.0Q876 -227 876 -205Q876 -182 892.0 -166.5Q908 -151 930 -151Q953 -151 968.5 -166.5Q984 -182 984 -205Q984 -227 968.5 -243.0Q953 -259 930 -259ZM442 -241Q456 -241 467.0 -230.5Q478 -220 478 -205Q478 -191 467.0 -180.0Q456 -169 442 -169Q427 -169 416.5 -180.0Q406 -191 406 -205Q406 -220 416.5 -230.5Q427 -241 442 -241ZM686 -241Q701 -241 711.5 -230.5Q722 -220 722 -205Q722 -191 711.5 -180.0Q701 -169 686 -169Q672 -169 661.0 -180.0Q650 -191 650 -205Q650 -220 661.0 -230.5Q672 -241 686 -241ZM930 -241Q945 -241 955.5 -230.5Q966 -220 966 -205Q966 -191 955.5 -180.0Q945 -169 930 -169Q916 -169 905.5 -180.0Q895 -191 895 -205Q895 -220 905.5 -230.5Q916 -241 930 -241Z" />
  </g>
</svg>