<svg xmlns="http://www.w3.org/2000/svg" viewBox="49 -97 1274 205">
  <g transform="translate(0, 11) scale(1, -1)">
    <path fill="black" d="M146 -97Q109 -97 88.0 -80.5Q67 -64 58.0 -40.0Q49 -16 49 6Q49 46 70.0 77.0Q91 108 146 108H1226Q1281 108 1302.0 77.0Q1323 46 1323 6Q1323 -16 1314.0 -40.0Q1305 -64 1284.0 -80.5Q1263 -97 1226 -97ZM146 -77H1226Q1256 -77 1272.5 -63.5Q1289 -50 1296.0 -31.0Q1303 -12 1303 6Q1303 38 1286.5 63.5Q1270 89 1226 89H146Q102 89 85.0 63.5Q68 38 68 6Q68 -12 75.0 -31.0Q82 -50 99.0 -63.5Q116 -77 146 -77Z" />
  </g>
</svg>