<svg xmlns="http://www.w3.org/2000/svg" viewBox="49 -97 1274 361">
  <g transform="translate(0, 167) scale(1, -1)">
    <path fill="black" d="M199 -97Q156 -97 127.0 -80.0Q98 -63 81.0 -35.5Q64 -8 56.5 23.5Q49 55 49 83Q49 112 56.5 143.0Q64 174 81.0 202.0Q98 230 127.0 247.0Q156 264 199 264H1173Q1217 264 1246.0 247.0Q1275 230 1292.0 202.0Q1309 174 1316.0 143.0Q1323 112 1323 83Q1323 55 1316.0 23.5Q1309 -8 1292.0 -35.5Q1275 -63 1246.0 -80.0Q1217 -97 1173 -97ZM199 -77H1173Q1210 -77 1235.5 -61.0Q1261 -45 1276.0 -20.5Q1291 4 1297.5 31.5Q1304 59 1304 83Q1304 107 1297.5 135.0Q1291 163 1276.0 187.5Q1261 212 1235.5 228.0Q1210 244 1173 244H199Q162 244 136.5 228.0Q111 212 96.0 187.5Q81 163 74.5 135.0Q68 107 68 83Q68 59 74.5 31.5Q81 4 96.0 -20.5Q111 -45 136.5 -61.0Q162 -77 199 -77Z" />
  </g>
</svg>