<svg xmlns="http://www.w3.org/2000/svg" viewBox="49 -98 1128 242">
  <g transform="translate(0, 46) scale(1, -1)">
    <path fill="black" d="M108 -98Q67 -98 58.0 -83.0Q49 -68 49 -37V83Q49 114 58.0 129.0Q67 144 108 144H1117Q1159 144 1168.0 129.0Q1177 114 1177 83V-37Q1177 -68 1168.0 -83.0Q1159 -98 1117 -98ZM108 -79H1117Q1145 -79 1151.0 -68.5Q1157 -58 1157 -37V83Q1157 104 1151.0 114.5Q1145 125 1117 125H108Q80 125 74.0 114.5Q68 104 68 83V-37Q68 -58 74.0 -68.5Q80 -79 108 -79ZM274 -41 206 45 147 -31 131 -19 206 78 274 -9Q291 12 308.5 35.5Q326 59 342 78L410 -9Q426 12 444.0 35.5Q462 59 477 78L545 -9L612 78L680 -9Q697 12 714.5 35.5Q732 59 748 78L815 -9Q832 12 849.5 35.5Q867 59 883 78L951 -9L1019 78L1094 -19L1078 -31L1019 45L951 -41L883 45Q867 25 849.0 2.0Q831 -21 815 -41L748 45Q732 25 714.0 2.0Q696 -21 680 -41L612 45L545 -41L477 45Q461 25 443.0 2.0Q425 -21 410 -41L342 45Q326 25 308.0 2.0Q290 -21 274 -41Z" />
  </g>
</svg>