<svg xmlns="http://www.w3.org/2000/svg" viewBox="49 -105 1394 434.0">
  <g transform="translate(0, 224.0) scale(1, -1)">
    <path fill="black" d="M1296 -105Q1290 -105 1282.5 -105.0Q1275 -105 1269 -104Q1018 -84 754.0 -62.5Q490 -41 239 -21Q136 -13 92.5 14.5Q49 42 49 96V128Q49 181 94.0 208.5Q139 236 239 245Q490 266 754.5 287.0Q1019 308 1269 328Q1275 329 1282.5 329.0Q1290 329 1296 329Q1370 329 1406.5 296.5Q1443 264 1443 210V14Q1443 -41 1406.5 -73.0Q1370 -105 1296 -105ZM1296 -86Q1360 -86 1392.0 -59.0Q1424 -32 1424 14V210Q1424 256 1392.0 283.0Q1360 310 1296 310Q1290 310 1284.0 310.0Q1278 310 1271 309L241 225Q153 218 110.5 195.0Q68 172 68 128V96Q68 53 110.5 30.0Q153 7 241 -1Q492 -23 756.5 -44.0Q1021 -65 1271 -85Q1278 -86 1284.0 -86.0Q1290 -86 1296 -86ZM1234 -1 288 58Q230 62 198.5 68.0Q167 74 154.5 84.0Q142 94 142 108V116Q142 130 154.5 139.5Q167 149 198.5 155.5Q230 162 288 166L1234 225H1255Q1298 225 1324.0 208.5Q1350 192 1350 145V79Q1350 32 1324.0 15.5Q1298 -1 1255 -1ZM1255 18Q1289 18 1310.0 30.5Q1331 43 1331 79V145Q1331 180 1310.0 193.0Q1289 206 1255 206Q1251 206 1245.5 206.0Q1240 206 1235 205L289 146Q218 142 190.0 134.5Q162 127 162 116V108Q162 97 190.0 89.5Q218 82 289 78L1235 19Q1240 18 1245.5 18.0Q1251 18 1255 18Z" />
  </g>
</svg>