<svg xmlns="http://www.w3.org/2000/svg" viewBox="49 -84 564 382">
  <g transform="translate(0, 214) scale(1, -1)">
    <path fill="black" d="M523 -84Q508 -84 490.5 -77.0Q473 -70 454 -58L85 187Q67 199 58.0 215.0Q49 231 49 247Q49 266 60 279Q67 289 79.0 293.5Q91 298 104 298Q127 298 148 289L575 89Q594 80 603.5 64.5Q613 49 613 31Q613 12 602 -8L572 -56Q553 -84 523 -84ZM523 -64Q544 -64 555 -45L585 3Q594 17 594 31Q594 58 567 71L139 271Q121 279 104 279Q84 279 75 268Q68 256 68 247Q68 222 96 204L465 -41Q499 -64 523 -64Z" />
  </g>
</svg>