<svg xmlns="http://www.w3.org/2000/svg" viewBox="49 -91 1340 551">
  <g transform="translate(0, 369) scale(1, -1)">
    <path fill="black" d="M49 -91V460H1113Q1256 460 1322.5 385.5Q1389 311 1389 185Q1389 58 1322.5 -16.5Q1256 -91 1113 -91ZM68 -72H1113Q1247 -72 1308.0 -2.5Q1369 67 1369 185Q1369 302 1308.0 371.5Q1247 441 1113 441H68ZM143 -8V377H1057Q1181 377 1237.5 325.0Q1294 273 1294 185Q1294 97 1237.5 44.5Q1181 -8 1057 -8ZM163 12H1057Q1170 12 1222.5 59.0Q1275 106 1275 185Q1275 265 1222.5 311.0Q1170 357 1057 357H163Z" />
  </g>
</svg>