<svg xmlns="http://www.w3.org/2000/svg" viewBox="49 -94 617 388">
  <g transform="translate(0, 200) scale(1, -1)">
    <path fill="black" d="M103 -94Q49 -94 49 -46Q49 1 103 1H220L145 199H103Q49 199 49 247Q49 294 103 294H611Q666 294 666 247Q666 199 611 199H503L579 1H611Q666 1 666 -46Q666 -94 611 -94ZM103 218H611Q646 218 646 247Q646 275 611 275H103Q87 275 77.5 268.0Q68 261 68 247Q68 233 77.5 225.5Q87 218 103 218ZM242 1H298L223 199H166ZM320 1H479L403 199H244ZM500 1H557L481 199H425ZM103 -75H611Q646 -75 646 -46Q646 -18 611 -18H103Q87 -18 77.5 -25.0Q68 -32 68 -46Q68 -60 77.5 -67.5Q87 -75 103 -75Z" />
  </g>
</svg>