<svg xmlns="http://www.w3.org/2000/svg" viewBox="49 -91 1336 571">
  <g transform="translate(0, 389) scale(1, -1)">
    <path fill="black" d="M49 -91V402Q49 420 61.0 439.0Q73 458 108 458Q135 458 159.5 438.0Q184 418 206.0 385.5Q228 353 249 316Q272 276 296.0 236.5Q320 197 347.0 171.5Q374 146 405 146Q435 146 458.0 168.0Q481 190 500.5 225.0Q520 260 539 298Q561 343 585.0 384.5Q609 426 641.0 453.0Q673 480 717 480Q761 480 792.5 453.0Q824 426 848.5 384.5Q873 343 895 298Q914 260 933.0 225.0Q952 190 975.5 168.0Q999 146 1029 146Q1060 146 1086.5 171.5Q1113 197 1137.5 236.5Q1162 276 1185 316Q1206 353 1228.0 385.5Q1250 418 1274.5 438.0Q1299 458 1325 458Q1361 458 1373.0 439.0Q1385 420 1385 402V-91ZM68 -71H1365V386Q1365 408 1359.5 423.0Q1354 438 1325 438Q1304 438 1283.0 419.0Q1262 400 1242.0 370.0Q1222 340 1203 306Q1180 265 1152.5 223.5Q1125 182 1094.5 154.5Q1064 127 1029 127Q993 127 966.5 150.5Q940 174 918.5 211.0Q897 248 877 290Q857 332 834.5 371.0Q812 410 783.5 435.0Q755 460 717 460Q679 460 650.5 435.0Q622 410 600.0 371.0Q578 332 557 290Q537 248 515.5 211.0Q494 174 467.5 150.5Q441 127 405 127Q370 127 339.0 154.5Q308 182 281.5 223.5Q255 265 231 306Q212 340 191.5 370.0Q171 400 150.0 419.0Q129 438 108 438Q80 438 74.0 423.0Q68 408 68 386Z" />
  </g>
</svg>