<svg xmlns="http://www.w3.org/2000/svg" viewBox="49 -91 1060 450">
  <g transform="translate(0, 268) scale(1, -1)">
    <path fill="black" d="M49 -91V289Q49 307 60.0 325.0Q71 343 105 343Q140 343 168.5 307.5Q197 272 223 227Q240 197 258.0 168.0Q276 139 295.5 119.5Q315 100 336 100Q356 100 372.5 116.5Q389 133 403.5 158.5Q418 184 432 212Q450 249 469.0 282.5Q488 316 514.5 337.5Q541 359 579 359Q616 359 642.5 337.0Q669 315 689.0 281.5Q709 248 726 212Q740 185 754.5 159.0Q769 133 785.5 116.5Q802 100 822 100Q843 100 862.5 119.5Q882 139 901.0 168.5Q920 198 936 227Q953 257 971.5 283.5Q990 310 1010.5 326.5Q1031 343 1053 343Q1087 343 1098.0 325.0Q1109 307 1109 289V-91ZM68 -71H1090V289Q1090 300 1083.0 312.0Q1076 324 1053 324Q1027 324 1001.5 291.0Q976 258 953 217Q934 185 914.0 153.5Q894 122 871.5 101.5Q849 81 822 81Q796 81 776.0 99.0Q756 117 740.0 145.0Q724 173 708 204Q692 238 674.0 269.0Q656 300 633.5 320.0Q611 340 579 340Q549 340 525.5 319.5Q502 299 484.0 268.0Q466 237 449 204Q434 174 417.5 145.5Q401 117 381.5 99.0Q362 81 336 81Q310 81 287.5 101.5Q265 122 245.0 153.5Q225 185 206 217Q183 258 157.5 291.0Q132 324 105 324Q83 324 75.5 312.0Q68 300 68 289Z" />
  </g>
</svg>