<svg xmlns="http://www.w3.org/2000/svg" viewBox="49 -89 1184 602">
  <g transform="translate(0, 424) scale(1, -1)">
    <path fill="black" d="M49 -89V414Q49 431 54.5 454.0Q60 477 78.5 495.0Q97 513 134 513Q175 513 195.0 494.0Q215 475 225.0 445.0Q235 415 243 382Q265 290 320.0 217.0Q375 144 457.5 101.5Q540 59 641 59Q743 59 824.5 101.5Q906 144 961.5 217.5Q1017 291 1039 382Q1047 415 1056.5 445.0Q1066 475 1087.0 494.0Q1108 513 1148 513Q1186 513 1204.0 495.0Q1222 477 1227.5 454.0Q1233 431 1233 414V-89ZM68 -69H1214V414Q1214 428 1210.0 447.0Q1206 466 1192.0 480.0Q1178 494 1148 494Q1118 494 1101.5 477.0Q1085 460 1076.5 433.5Q1068 407 1060 378Q1033 276 974.0 200.0Q915 124 830.0 82.0Q745 40 641 40Q537 40 452.0 82.0Q367 124 308.5 200.0Q250 276 223 378Q216 407 206.5 433.5Q197 460 180.5 477.0Q164 494 134 494Q104 494 90.0 480.0Q76 466 72.0 447.0Q68 428 68 414Z" />
  </g>
</svg>