<svg xmlns="http://www.w3.org/2000/svg" viewBox="49 -81 791 181">
  <g transform="translate(0, 19) scale(1, -1)">
    <path fill="black" d="M750 -81Q713 -81 686.0 -54.5Q659 -28 659 9Q659 47 686.0 73.5Q713 100 750 100Q787 100 813.5 73.5Q840 47 840 9Q840 -28 813.5 -54.5Q787 -81 750 -81ZM139 -81Q102 -81 75.5 -54.5Q49 -28 49 9Q49 47 75.5 73.5Q102 100 139 100Q177 100 203.0 73.5Q229 47 229 9Q229 -28 203.0 -54.5Q177 -81 139 -81ZM444 -81Q407 -81 380.5 -54.5Q354 -28 354 9Q354 47 380.5 73.5Q407 100 444 100Q482 100 508.5 73.5Q535 47 535 9Q535 -28 508.5 -54.5Q482 -81 444 -81ZM139 -62Q168 -62 189.0 -41.0Q210 -20 210 9Q210 38 189.0 59.0Q168 80 139 80Q110 80 89.0 59.0Q68 38 68 9Q68 -20 89.0 -41.0Q110 -62 139 -62ZM444 -62Q473 -62 494.0 -41.0Q515 -20 515 9Q515 38 494.0 59.0Q473 80 444 80Q415 80 394.5 59.0Q374 38 374 9Q374 -20 394.5 -41.0Q415 -62 444 -62ZM750 -62Q779 -62 799.5 -41.0Q820 -20 820 9Q820 38 799.5 59.0Q779 80 750 80Q720 80 699.5 59.0Q679 38 679 9Q679 -20 699.5 -41.0Q720 -62 750 -62Z" />
  </g>
</svg>