<svg xmlns="http://www.w3.org/2000/svg" viewBox="49 -164 987 793">
  <g transform="translate(0, 465) scale(1, -1)">
    <path fill="black" d="M470 -164Q360 -164 278.0 -144.5Q196 -125 143 -106Q121 -98 99.5 -86.0Q78 -74 63.5 -60.5Q49 -47 49 -35Q49 -16 66.0 -2.0Q83 12 126 33Q147 43 182.5 62.5Q218 82 257.5 113.0Q297 144 332.0 189.5Q367 235 389.5 297.0Q412 359 412 440Q412 504 406.5 548.0Q401 592 393 629H1036V528Q1036 433 1016.0 335.0Q996 237 954.0 147.5Q912 58 845.5 -12.0Q779 -82 685.5 -123.0Q592 -164 470 -164ZM470 -144Q587 -144 677.0 -104.5Q767 -65 831.0 3.0Q895 71 936.0 158.0Q977 245 996.5 340.0Q1016 435 1016 528V610H417Q423 579 427.5 540.0Q432 501 432 440Q432 353 408.0 287.5Q384 222 347.0 174.5Q310 127 268.5 95.0Q227 63 190.5 44.0Q154 25 134 15Q97 -2 84.0 -13.0Q71 -24 71 -35Q71 -46 96.5 -61.5Q122 -77 150 -87Q202 -106 284.5 -125.0Q367 -144 470 -144Z" />
  </g>
</svg>