<svg xmlns="http://www.w3.org/2000/svg" viewBox="49 -81 1099 196">
  <g transform="translate(0, 34) scale(1, -1)">
    <path fill="black" d="M278 -81 206 8 136 -74H49L208 114L277 30L341 115L407 31L468 115L536 30L599 115L662 30L729 115L790 30L856 115L920 30L989 114L1148 -74H1062L991 8L919 -81L854 7L790 -81L727 7L662 -81L599 7L536 -81L471 7L408 -81L343 7ZM90 -55H127L207 39L277 -48L343 40L408 -47L471 40L536 -47L599 40L662 -47L727 40L790 -47L854 40L920 -48L990 39L1070 -55H1106L989 83L919 -1L856 83L789 -2L728 83L662 -2L599 83L536 -2L469 82L408 -2L341 83L278 -1L208 83Z" />
  </g>
</svg>