<svg xmlns="http://www.w3.org/2000/svg" viewBox="49 -218 1099 958">
  <g transform="translate(0, 522) scale(1, -1)">
    <path fill="black" d="M278 544 206 633 136 551H49L208 739L277 655L341 740L407 656L468 740L536 655L599 740L662 655L729 740L790 655L856 740L920 655L989 739L1148 551H1062L991 633L919 544L854 632L790 544L727 632L662 544L599 632L536 544L471 632L408 544L343 632ZM90 570H127L207 664L277 577L343 665L408 578L471 665L536 578L599 665L662 578L727 665L790 578L854 665L920 577L990 664L1070 570H1106L989 708L919 624L856 708L789 623L728 708L662 623L599 708L536 623L469 707L408 623L341 708L278 624L208 708ZM408 163 343 251 278 164 206 252 136 170H49L208 358L277 274L341 359L407 275L468 359L536 274L599 359L662 274L729 359L790 274L856 359L920 274L989 358L1148 170H1062L991 252L919 164L854 251L790 163L727 251L662 163L599 251L536 163L471 251ZM90 189H127L207 283L277 196L343 284L408 197L471 284L536 197L599 284L662 197L727 284L790 197L854 284L920 196L990 283L1070 189H1106L989 328L919 243L856 327L789 242L728 327L662 242L599 327L536 242L469 326L408 242L341 327L278 243L208 328ZM408 -218 343 -130 278 -217 206 -129 136 -211H49L208 -23L277 -107L341 -22L407 -106L468 -22L536 -106L599 -22L662 -106L729 -22L790 -106L856 -22L920 -107L989 -23L1148 -211H1062L991 -129L919 -217L854 -130L790 -218L727 -130L662 -218L599 -130L536 -218L471 -130ZM90 -191H127L207 -98L277 -185L343 -97L408 -184L471 -97L536 -184L599 -97L662 -184L727 -97L790 -184L854 -97L920 -185L990 -98L1070 -191H1106L989 -53L919 -138L856 -54L789 -139L728 -54L662 -139L599 -54L536 -139L469 -55L408 -139L341 -54L278 -138L208 -53Z" />
  </g>
</svg>