<svg xmlns="http://www.w3.org/2000/svg" viewBox="49 -74 1207 379">
  <g transform="translate(0, 231) scale(1, -1)">
    <path fill="black" d="M49 -74V305H1256V-74ZM68 -55H141L91 -7L152 52L91 113L151 166L92 225L146 285H68ZM169 -55H271L221 -7L281 52L221 113L281 166L222 225L276 285H173L119 226L180 165L120 112L179 52L119 -7ZM298 -55H400L350 -7L411 52L350 113L410 166L351 225L405 285H302L248 226L309 165L249 112L309 52L249 -7ZM428 -55H529L479 -7L540 52L479 113L540 166L480 225L535 285H432L377 226L438 165L378 112L438 52L378 -7ZM557 -55H659L609 -7L669 52L609 113L669 166L610 225L664 285H561L507 226L568 165L508 112L567 52L507 -7ZM687 -55H788L738 -7L799 52L738 113L798 166L739 225L793 285H690L636 226L697 165L637 112L697 52L637 -7ZM816 -55H917L868 -7L928 52L868 113L928 166L869 225L923 285H820L766 226L827 165L767 112L826 52L766 -7ZM945 -55H1047L997 -7L1058 52L997 113L1057 166L998 225L1052 285H949L895 226L956 165L896 112L956 52L896 -7ZM1075 -55H1176L1126 -7L1187 52L1126 113L1187 166L1127 225L1182 285H1079L1024 226L1085 165L1025 112L1085 52L1025 -7ZM1204 -55H1236V285H1208L1154 226L1215 165L1155 112L1214 52L1154 -7Z" />
  </g>
</svg>