<svg xmlns="http://www.w3.org/2000/svg" viewBox="49 110 574 577">
  <g transform="translate(0, 797) scale(1, -1)">
    <path fill="black" d="M336 110Q255 110 190.0 143.0Q125 176 87.0 244.0Q49 312 49 417Q49 452 51.0 500.5Q53 549 56.5 599.0Q60 649 63 687L82 685Q81 674 79.5 652.0Q78 630 76 604L116 656L172 585Q185 602 199.5 621.5Q214 641 226 656L282 585Q295 602 309.5 622.0Q324 642 336 657L390 585L446 656L500 585L556 656L596 604Q595 630 593.0 652.0Q591 674 590 685L609 687Q612 649 615.5 599.0Q619 549 621.0 500.5Q623 452 623 417Q623 312 585.0 244.0Q547 176 482.5 143.0Q418 110 336 110ZM336 129Q412 129 472.5 159.5Q533 190 568.5 254.0Q604 318 604 417Q604 449 602.0 490.0Q600 531 598 569L556 625L500 554L446 625L390 554L336 625Q323 609 308.0 589.0Q293 569 282 554L226 625Q213 609 198.5 589.0Q184 569 172 554L116 625L74 569Q72 531 70.0 490.0Q68 449 68 417Q68 318 103.5 254.0Q139 190 199.5 159.5Q260 129 336 129Z" />
  </g>
</svg>