<svg xmlns="http://www.w3.org/2000/svg" viewBox="49 -154 1130 1199">
  <g transform="translate(0, 891) scale(1, -1)">
    <path fill="black" d="M58 -154V-134H170V-51H58V-32H170V51H58V71H594V205Q560 227 530.0 254.0Q500 281 480.0 302.5Q460 324 455 329H283Q279 323 263.0 308.0Q247 293 221.0 280.5Q195 268 161 267Q126 267 104.0 279.0Q82 291 70.0 309.5Q58 328 53.5 346.5Q49 365 49 376Q49 426 67.5 462.5Q86 499 127 499Q148 499 170.5 487.0Q193 475 214.5 457.0Q236 439 252.5 422.0Q269 405 277 394H406L207 777Q196 799 193.0 814.0Q190 829 190 839Q190 865 205.5 883.5Q221 902 250 902Q282 902 296.5 886.5Q311 871 311 853Q311 843 306.5 829.0Q302 815 297 805Q341 753 387.5 699.0Q434 645 478 593L384 480L429 394H485Q493 404 505.5 410.0Q518 416 540 417L601 421L611 484L612 501Q612 540 599.0 582.0Q586 624 573 660L567 678L534 722Q516 745 495.5 775.5Q475 806 475 839V895Q475 905 473.0 918.0Q471 931 453 931Q441 931 435.5 926.0Q430 921 428 917H411V934Q411 960 422.5 972.5Q434 985 445 993L464 1011Q468 1019 486.0 1032.0Q504 1045 549 1045Q605 1045 631.0 1018.0Q657 991 676 950L721 926Q746 903 775.0 867.5Q804 832 832.5 794.0Q861 756 883 724Q883 724 892.5 713.0Q902 702 916.5 685.0Q931 668 946.0 650.0Q961 632 973.0 618.5Q985 605 989 602Q995 598 1012.0 581.5Q1029 565 1051.0 545.0Q1073 525 1091 507L1067 485Q1052 496 1034.5 506.0Q1017 516 992 531L1047 450L959 394H1174V329H768Q776 316 785.0 295.5Q794 275 794 255Q794 220 771.5 194.0Q749 168 692 168Q683 168 673.0 170.0Q663 172 653 175V71H1179V51H1069V-32H1179V-51H1069V-134H1179V-154ZM643 394H778V405Q766 407 750.0 408.0Q734 409 723 409V498Q736 495 750.5 488.5Q765 482 774 477V595Q804 595 824.0 581.0Q844 567 857.0 549.5Q870 532 876 520L942 403L1025 455L963 549Q921 573 870.5 600.5Q820 628 768.0 655.5Q716 683 668.5 707.5Q621 732 585 750Q573 756 554.0 769.5Q535 783 520.0 803.0Q505 823 505 847Q504 873 537.5 897.0Q571 921 623 924L624 908Q579 906 551.0 886.5Q523 867 523 847Q524 829 536.0 812.5Q548 796 565.0 783.5Q582 771 596 763Q652 735 719.5 700.0Q787 665 853.5 629.0Q920 593 975.0 561.0Q1030 529 1063 506L1066 511Q1060 516 1047.5 527.5Q1035 539 1020.0 552.0Q1005 565 992.0 576.0Q979 587 974 591Q969 596 951.0 616.5Q933 637 910.0 665.0Q887 693 867 717Q845 748 816.5 785.5Q788 823 759.5 858.0Q731 893 706 916L660 940Q648 966 635.0 985.5Q622 1005 602.5 1016.0Q583 1027 549 1027Q505 1027 492.5 1017.5Q480 1008 479 1005L457 984Q449 977 440.0 968.0Q431 959 429 942Q431 947 442.0 957.0Q453 967 468 967Q476 967 482.5 963.5Q489 960 493 956Q501 954 501 960Q501 963 500 964Q494 964 488.5 969.5Q483 975 483 982Q483 989 488.5 994.5Q494 1000 502 1000H534Q554 1000 568.0 987.5Q582 975 582 956Q582 943 573.0 932.5Q564 922 553.0 915.0Q542 908 535 904Q533 903 528.0 903.5Q523 904 522 909H516V899H504Q504 907 500.5 920.0Q497 933 488.5 944.0Q480 955 464 955Q459 955 454.5 952.0Q450 949 446 946L453 947Q478 947 486.0 929.5Q494 912 494 895V839Q494 811 515.5 779.5Q537 748 556 723Q577 697 601.5 668.5Q626 640 646 619Q682 580 695.5 544.5Q709 509 707 484L702 409Q690 409 672.5 408.0Q655 407 643 405ZM513 923 512 930Q512 938 517.5 944.5Q523 951 531 951Q541 951 545.0 944.0Q549 937 549 932Q549 927 547 925Q555 930 561.5 938.0Q568 946 568 956Q568 970 557.0 979.5Q546 989 530 989H518Q521 985 521 981Q521 976 518.5 972.5Q516 969 512 966Q517 962 514 954Q512 948 501 946Q505 941 508.5 935.0Q512 929 513 923ZM501 974Q509 974 509 982Q509 989 501 989Q494 989 494 982Q494 974 501 974ZM531 917Q539 917 539 929Q539 939 531 939Q522 939 522 929Q522 917 531 917ZM374 499 453 593Q410 645 364.0 698.0Q318 751 274 803Q279 812 285.0 827.0Q291 842 291 853Q291 864 282.0 873.5Q273 883 250 883Q231 883 221.0 870.0Q211 857 211 839Q211 828 214.0 815.0Q217 802 225 786ZM620 421 641 422 655 504Q672 502 688 491V500Q690 513 678.5 542.0Q667 571 632 608Q625 617 616.0 627.0Q607 637 598 648Q610 614 620.5 576.5Q631 539 631 501Q631 497 631.0 492.0Q631 487 630 482ZM830 394H926L860 514Q855 524 844.5 538.0Q834 552 820.0 562.5Q806 573 791 573V443Q781 452 765.5 462.5Q750 473 740 474V426Q752 425 769.0 423.0Q786 421 796 418Q809 414 816.5 407.5Q824 401 830 394ZM658 423 687 426 689 471Q685 473 680.5 476.0Q676 479 668 480ZM221 394H252Q239 410 217.0 429.5Q195 449 171.5 464.0Q148 479 127 479Q107 479 93 465Q102 469 118 469Q133 469 154.0 455.0Q175 441 194.0 423.0Q213 405 221 394ZM99 394H195Q187 404 172.5 417.5Q158 431 142.0 441.5Q126 452 112 452Q103 452 95.5 448.0Q88 444 88 432Q88 420 92.0 410.0Q96 400 99 394ZM161 287Q195 287 219.0 301.5Q243 316 256 329H230Q223 320 208.0 310.5Q193 301 167 301Q143 301 123.0 318.0Q103 335 90.0 360.5Q77 386 71 411Q70 401 69.5 391.5Q69 382 69 374Q71 336 97.0 311.0Q123 286 161 287ZM568 394H571Q577 401 587 408L568 405ZM535 394H556V404Q549 404 544.0 401.0Q539 398 535 394ZM615 394H632V404Q625 404 621.0 401.0Q617 398 615 394ZM506 394H519Q522 399 528 403Q520 403 514.5 400.0Q509 397 506 394ZM585 394H598Q600 396 602.5 398.5Q605 401 607 403Q599 403 593.5 400.0Q588 397 585 394ZM789 394H807Q799 400 790 403H789ZM122 348H1155V374H104Q107 369 112.5 361.5Q118 354 122 348ZM167 321Q187 321 200 329H140Q151 321 167 321ZM774 263Q770 283 759.5 302.5Q749 322 745 329H710Q728 316 746.0 297.5Q764 279 774 263ZM706 222Q729 220 746.0 224.5Q763 229 763 239Q763 250 750.0 266.5Q737 283 717.0 300.0Q697 317 674 329H653V245Q682 225 706 222ZM633 259V329H614V273Q619 269 623.5 265.5Q628 262 633 259ZM594 290V329H553Q561 321 571.0 311.0Q581 301 594 290ZM692 188Q740 188 760 211Q749 206 734.0 204.0Q719 202 706 203Q683 205 655.0 220.0Q627 235 600.0 256.0Q573 277 552.5 297.0Q532 317 524 329H488Q503 314 526.0 290.5Q549 267 576.5 243.5Q604 220 634.0 204.0Q664 188 692 188ZM614 71H633V183Q629 185 624.0 187.5Q619 190 614 193ZM629 -32H830V51H629ZM849 -32H1049V51H849ZM410 -32H610V51H410ZM190 -32H390V51H190ZM629 -134H830V-51H629ZM190 -134H390V-51H190ZM410 -134H610V-51H410ZM849 -134H1049V-51H849Z" />
  </g>
</svg>