<svg xmlns="http://www.w3.org/2000/svg" viewBox="49 -154 1130 1214">
  <g transform="translate(0, 906) scale(1, -1)">
    <path fill="black" d="M58 -154V-134H170V-51H58V-32H170V51H58V71H594V205Q560 227 530.0 254.0Q500 281 480.0 302.5Q460 324 455 329H283Q279 323 263.0 308.0Q247 293 221.0 280.5Q195 268 161 267Q126 267 104.0 279.0Q82 291 70.0 309.5Q58 328 53.5 346.5Q49 365 49 376Q49 426 67.5 462.5Q86 499 127 499Q148 499 170.5 487.0Q193 475 214.5 457.0Q236 439 252.5 422.0Q269 405 277 394H340V838Q340 844 340.5 850.0Q341 856 342 861L338 868H333Q312 868 293.5 885.5Q275 903 264.0 927.0Q253 951 253 971Q253 976 253.0 980.0Q253 984 254 988L217 1010Q221 1021 235.0 1033.0Q249 1045 270.0 1052.0Q291 1059 316 1054L304 1015Q328 1010 352.0 985.0Q376 960 378 925Q401 944 430.0 951.0Q459 958 480 958Q501 958 530.0 951.5Q559 945 583 925Q585 961 608.5 985.5Q632 1010 657 1015L644 1054Q670 1059 691.0 1052.0Q712 1045 726.0 1033.0Q740 1021 744 1010L706 988Q707 984 707.5 980.0Q708 976 708 971Q708 951 697.0 927.0Q686 903 667.5 885.5Q649 868 628 868H622L619 861Q620 856 620.5 850.0Q621 844 621 838V394H851Q835 402 824.5 411.5Q814 421 814 431Q814 450 844.0 467.0Q874 484 912 491V527Q912 541 906.5 563.5Q901 586 884.5 603.5Q868 621 834 621Q817 621 800.5 609.5Q784 598 774 584Q761 567 750 567Q732 567 732 589Q732 594 735.0 601.0Q738 608 742 613Q745 618 757.0 631.0Q769 644 789.0 655.0Q809 666 834 666Q868 666 887.5 652.0Q907 638 917 625Q915 645 907.5 665.5Q900 686 883.0 700.0Q866 714 834 714Q813 714 798.5 701.5Q784 689 771 672Q763 660 750 660Q732 660 732 677Q732 691 742 705Q747 713 758.5 726.0Q770 739 789.0 749.5Q808 760 834 760Q869 760 889.5 748.0Q910 736 920 721V958Q920 970 919.0 984.0Q918 998 911.0 1008.0Q904 1018 886 1018Q868 1018 860.0 1008.0Q852 998 850.0 985.5Q848 973 847 966Q847 952 841.0 946.5Q835 941 824 941Q816 941 810.5 948.5Q805 956 805 964Q805 970 807.5 985.0Q810 1000 817.5 1017.5Q825 1035 841.5 1047.5Q858 1060 886 1060Q928 1060 945.5 1035.5Q963 1011 963 966V721Q973 737 993.5 748.5Q1014 760 1050 760Q1076 760 1095.0 749.0Q1114 738 1126.0 725.0Q1138 712 1141 705Q1150 689 1150 675Q1150 671 1146.0 665.5Q1142 660 1134 660Q1121 660 1108 677Q1101 688 1086.5 701.0Q1072 714 1049 714Q1018 714 1000.5 700.0Q983 686 976.0 665.5Q969 645 967 625Q977 638 996.5 652.0Q1016 666 1050 666Q1075 666 1094.5 655.0Q1114 644 1126.0 631.0Q1138 618 1141 613Q1150 600 1150 589Q1150 580 1146.5 573.5Q1143 567 1134 567Q1127 567 1121.5 570.5Q1116 574 1108 584Q1101 595 1086.5 608.0Q1072 621 1049 621Q1015 621 998.0 603.5Q981 586 976.0 563.5Q971 541 971 527V491Q1012 485 1040.0 468.0Q1068 451 1068 431Q1068 421 1058.5 411.5Q1049 402 1032 394H1174V329H768Q776 316 785.0 295.5Q794 275 794 255Q794 220 771.5 194.0Q749 168 692 168Q683 168 673.0 170.0Q663 172 653 175V71H1179V51H1069V-32H1179V-51H1069V-134H1179V-154ZM929 493H953V527Q953 538 957.0 557.0Q961 576 971.0 595.0Q981 614 1000.0 627.0Q1019 640 1049 640Q1077 640 1094.0 623.5Q1111 607 1119 596Q1121 592 1125.5 586.5Q1130 581 1134 581Q1134 582 1134.5 582.5Q1135 583 1135 584Q1135 591 1128 601Q1125 606 1114.5 617.0Q1104 628 1088.0 638.0Q1072 648 1050 648Q1020 648 1002.5 637.5Q985 627 976.5 614.5Q968 602 965 595L948 598V620Q948 642 957.0 668.0Q966 694 988.5 713.0Q1011 732 1049 732Q1077 732 1094.5 716.0Q1112 700 1119 689Q1121 686 1126.0 679.5Q1131 673 1134 673Q1134 674 1134.5 675.0Q1135 676 1135 677Q1135 683 1128 693Q1125 698 1114.5 709.5Q1104 721 1088.0 731.0Q1072 741 1050 741Q1020 741 1001.0 730.5Q982 720 972.5 707.0Q963 694 960 688L945 690V966Q945 1005 931.5 1023.5Q918 1042 886 1042Q858 1042 844.5 1025.0Q831 1008 826.5 989.0Q822 970 822 964Q822 955 824 955Q829 955 829.5 960.5Q830 966 830 969Q831 974 834.5 990.0Q838 1006 850.0 1020.5Q862 1035 886 1035Q911 1035 921.5 1023.0Q932 1011 935.0 994.5Q938 978 938 963V690L923 688Q920 694 910.5 707.0Q901 720 882.5 730.5Q864 741 834 741Q811 741 794.5 731.0Q778 721 768.5 709.5Q759 698 755 693Q748 683 748 675Q748 673 750 673Q751 673 754.5 676.0Q758 679 765 689Q772 700 791.0 716.0Q810 732 834 732Q872 732 894.0 713.0Q916 694 925.0 668.0Q934 642 934 620V598L918 595Q915 602 906.0 614.5Q897 627 880.0 637.5Q863 648 834 648Q813 648 796.0 638.0Q779 628 769.0 617.0Q759 606 755 601Q748 591 748 584Q748 581 750 581Q754 581 765 597Q772 608 789.0 624.0Q806 640 834 640Q864 640 882.5 627.0Q901 614 911.5 595.0Q922 576 925.5 557.0Q929 538 929 527ZM333 888Q358 888 358 920Q358 943 347.0 960.0Q336 977 321.0 987.0Q306 997 292 997Q283 997 277.5 991.5Q272 986 272 971Q272 955 280.5 935.5Q289 916 303.0 902.0Q317 888 333 888ZM628 888Q644 888 657.5 902.0Q671 916 679.5 935.5Q688 955 688 971Q688 986 682.5 991.5Q677 997 668 997Q655 997 639.5 987.0Q624 977 613.0 960.0Q602 943 602 920Q602 905 609.5 896.5Q617 888 628 888ZM480 643 598 864Q591 894 569.5 910.0Q548 926 523.5 932.0Q499 938 480 938Q462 938 437.0 932.0Q412 926 391.0 910.0Q370 894 363 864ZM601 416V829L491 622ZM360 418 469 622 360 828ZM377 394H583Q569 407 547.0 422.0Q525 437 501 441L504 460Q523 457 540.5 448.0Q558 439 572 428L480 601L388 428Q403 439 420.5 448.0Q438 457 457 460L459 441Q436 437 413.5 422.0Q391 407 377 394ZM221 394H252Q239 410 217.0 429.5Q195 449 171.5 464.0Q148 479 127 479Q107 479 93 465Q102 469 118 469Q133 469 154.0 455.0Q175 441 194.0 423.0Q213 405 221 394ZM941 394Q966 394 991.0 399.5Q1016 405 1032.5 413.5Q1049 422 1049 431Q1049 446 1016.5 460.0Q984 474 941 474Q916 474 891.0 467.5Q866 461 850.0 451.0Q834 441 834 431Q834 422 850.5 413.5Q867 405 891.5 399.5Q916 394 941 394ZM99 394H195Q187 404 172.5 417.5Q158 431 142.0 441.5Q126 452 112 452Q103 452 95.5 448.0Q88 444 88 432Q88 420 92.0 410.0Q96 400 99 394ZM161 287Q195 287 219.0 301.5Q243 316 256 329H230Q223 320 208.0 310.5Q193 301 167 301Q143 301 123.0 318.0Q103 335 90.0 360.5Q77 386 71 411Q70 401 69.5 391.5Q69 382 69 374Q71 336 97.0 311.0Q123 286 161 287ZM122 348H1155V374H104Q107 369 112.5 361.5Q118 354 122 348ZM633 259V329H614V273Q619 269 623.5 265.5Q628 262 633 259ZM706 222Q729 220 746.0 224.5Q763 229 763 239Q763 250 750.0 266.5Q737 283 717.0 300.0Q697 317 674 329H653V245Q682 225 706 222ZM167 321Q187 321 200 329H140Q151 321 167 321ZM774 263Q770 283 759.5 302.5Q749 322 745 329H710Q728 316 746.0 297.5Q764 279 774 263ZM594 290V329H553Q561 321 571.0 311.0Q581 301 594 290ZM692 188Q740 188 760 211Q749 206 734.0 204.0Q719 202 706 203Q683 205 655.0 220.0Q627 235 600.0 256.0Q573 277 552.5 297.0Q532 317 524 329H488Q503 314 526.0 290.5Q549 267 576.5 243.5Q604 220 634.0 204.0Q664 188 692 188ZM614 71H633V183Q629 185 624.0 187.5Q619 190 614 193ZM410 -32H610V51H410ZM190 -32H390V51H190ZM849 -32H1049V51H849ZM629 -32H830V51H629ZM629 -134H830V-51H629ZM410 -134H610V-51H410ZM190 -134H390V-51H190ZM849 -134H1049V-51H849Z" />
  </g>
</svg>