<svg xmlns="http://www.w3.org/2000/svg" viewBox="49 -154 1130 1228">
  <g transform="translate(0, 920) scale(1, -1)">
    <path fill="black" d="M58 -154V-134H170V-51H58V-32H170V51H58V71H594V205Q560 227 530.0 254.0Q500 281 480.0 302.5Q460 324 455 329H283Q279 323 263.0 308.0Q247 293 221.0 280.5Q195 268 161 267Q126 267 104.0 279.0Q82 291 70.0 309.5Q58 328 53.5 346.5Q49 365 49 376Q49 426 67.5 462.5Q86 499 127 499Q148 499 170.5 487.0Q193 475 214.5 457.0Q236 439 252.5 422.0Q269 405 277 394H340V838Q340 844 340.5 850.0Q341 856 342 861L338 868H333Q312 868 293.5 885.5Q275 903 264.0 927.0Q253 951 253 971Q253 976 253.0 980.0Q253 984 254 988L217 1010Q221 1021 235.0 1033.0Q249 1045 270.0 1052.0Q291 1059 316 1054L304 1015Q328 1010 352.0 985.0Q376 960 378 925Q401 944 430.0 951.0Q459 958 480 958Q501 958 530.0 951.5Q559 945 583 925Q585 961 608.5 985.5Q632 1010 657 1015L644 1054Q670 1059 691.0 1052.0Q712 1045 726.0 1033.0Q740 1021 744 1010L706 988Q707 984 707.5 980.0Q708 976 708 971Q708 951 697.0 927.0Q686 903 667.5 885.5Q649 868 628 868H622L619 861Q620 856 620.5 850.0Q621 844 621 838V394H851L885 516H896L857 565L844 531Q848 527 849.0 519.0Q850 511 850 504Q850 481 838.5 459.0Q827 437 810.5 422.5Q794 408 777 408Q771 408 764.0 418.0Q757 428 757 441Q757 456 761.5 476.5Q766 497 776.0 514.5Q786 532 804 538L842 623L856 625L902 571L835 771Q819 773 808.0 788.5Q797 804 790 821Q787 826 785.0 831.0Q783 836 781 841Q776 849 763.0 851.5Q750 854 740 853L733 879Q740 884 762.5 893.0Q785 902 820 911Q855 920 879.5 922.0Q904 924 913 922L916 898Q908 896 899.0 888.0Q890 880 890 866Q890 861 890.0 855.5Q890 850 891 844Q892 828 890.5 808.5Q889 789 875 778L922 635V933Q907 939 900.0 956.0Q893 973 891 992Q890 998 889.5 1003.5Q889 1009 887 1014Q884 1024 872.5 1029.5Q861 1035 851 1036V1063Q859 1067 882.0 1070.5Q905 1074 942 1074Q979 1074 1002.5 1070.5Q1026 1067 1034 1063V1036Q1024 1035 1012.5 1029.5Q1001 1024 998 1014Q997 1009 996.5 1003.5Q996 998 994 992Q992 973 984.5 956.0Q977 939 962 933V635L1010 778Q997 789 995.0 808.5Q993 828 994 844Q995 850 995.0 855.5Q995 861 995 866Q995 880 986.0 888.0Q977 896 969 898L972 922Q981 924 1005.5 922.0Q1030 920 1065 911Q1100 902 1122.0 893.0Q1144 884 1151 879L1145 853Q1135 854 1122.0 851.5Q1109 849 1104 841Q1102 836 1100.0 831.0Q1098 826 1095 821Q1088 804 1077.0 788.5Q1066 773 1049 771L983 571L1028 625L1042 623L1081 538Q1099 532 1109.5 514.5Q1120 497 1124.0 476.5Q1128 456 1128 441Q1128 428 1121.0 418.0Q1114 408 1107 408Q1091 408 1074.5 422.5Q1058 437 1046.5 459.0Q1035 481 1035 504Q1035 511 1036.0 519.0Q1037 527 1041 531L1027 565L989 516H1000L1034 394H1174V329H768Q776 316 785.0 295.5Q794 275 794 255Q794 220 771.5 194.0Q749 168 692 168Q683 168 673.0 170.0Q663 172 653 175V71H1179V51H1069V-32H1179V-51H1069V-134H1179V-154ZM942 944Q962 944 967.5 963.0Q973 982 975 995L980 1018Q985 1034 997.0 1039.5Q1009 1045 1016 1047V1049Q1008 1051 988.0 1053.0Q968 1055 942 1055Q917 1055 897.0 1053.0Q877 1051 869 1049V1047Q877 1045 888.5 1039.5Q900 1034 904 1018L910 995Q912 982 917.5 963.0Q923 944 942 944ZM333 888Q358 888 358 920Q358 943 347.0 960.0Q336 977 321.0 987.0Q306 997 292 997Q283 997 277.5 991.5Q272 986 272 971Q272 955 280.5 935.5Q289 916 303.0 902.0Q317 888 333 888ZM628 888Q644 888 657.5 902.0Q671 916 679.5 935.5Q688 955 688 971Q688 986 682.5 991.5Q677 997 668 997Q655 997 639.5 987.0Q624 977 613.0 960.0Q602 943 602 920Q602 905 609.5 896.5Q617 888 628 888ZM480 643 598 864Q591 894 569.5 910.0Q548 926 523.5 932.0Q499 938 480 938Q462 938 437.0 932.0Q412 926 391.0 910.0Q370 894 363 864ZM939 516H945V930H939ZM853 785Q871 790 872.0 808.5Q873 827 872 843Q872 848 871.5 854.5Q871 861 871 866Q871 877 880.0 888.0Q889 899 898 905Q892 905 875.5 903.5Q859 902 825 893Q800 886 781.5 880.0Q763 874 755 870V867Q763 867 776.5 864.5Q790 862 797 848Q799 843 802.0 837.5Q805 832 808 826Q813 814 823.5 797.5Q834 781 853 785ZM1032 785Q1051 781 1061.0 797.5Q1071 814 1077 826Q1080 832 1082.5 837.5Q1085 843 1088 848Q1096 862 1109.0 864.5Q1122 867 1129 867L1130 870Q1123 874 1104.5 880.0Q1086 886 1060 893Q1026 902 1009.5 903.5Q993 905 987 905Q996 899 1005.0 888.0Q1014 877 1014 866Q1014 861 1013.5 854.5Q1013 848 1013 843Q1012 827 1013.0 808.5Q1014 790 1032 785ZM601 415V829L491 622ZM360 418 469 622 360 828ZM958 545 1032 771 1026 772 958 570ZM927 545V570L858 772L853 771ZM963 516H971L1030 592L1055 538Q1058 539 1063 539L1031 604ZM914 516H922L854 604L822 539Q827 539 830 538L855 592ZM377 394H583Q569 407 547.0 422.0Q525 437 501 441L504 460Q523 457 540.5 448.0Q558 439 572 428L480 601L388 428Q403 439 420.5 448.0Q438 457 457 460L459 441Q436 437 413.5 422.0Q391 407 377 394ZM1105 425Q1111 425 1111 441Q1111 456 1106.0 475.0Q1101 494 1091.0 508.5Q1081 523 1066 523Q1059 523 1056.0 517.0Q1053 511 1053 504Q1053 473 1071.0 449.0Q1089 425 1105 425ZM779 425Q796 425 814.0 449.0Q832 473 832 504Q832 511 829.0 517.0Q826 523 818 523Q804 523 794.0 508.5Q784 494 779.0 475.0Q774 456 774 441Q774 425 779 425ZM869 394H1016L987 497H898ZM221 394H252Q239 410 217.0 429.5Q195 449 171.5 464.0Q148 479 127 479Q107 479 93 465Q102 469 118 469Q133 469 154.0 455.0Q175 441 194.0 423.0Q213 405 221 394ZM99 394H195Q187 404 172.5 417.5Q158 431 142.0 441.5Q126 452 112 452Q103 452 95.5 448.0Q88 444 88 432Q88 420 92.0 410.0Q96 400 99 394ZM161 287Q195 287 219.0 301.5Q243 316 256 329H230Q223 320 208.0 310.5Q193 301 167 301Q143 301 123.0 318.0Q103 335 90.0 360.5Q77 386 71 411Q70 401 69.5 391.5Q69 382 69 374Q71 336 97.0 311.0Q123 286 161 287ZM122 348H1155V374H104Q107 369 112.5 361.5Q118 354 122 348ZM774 263Q770 283 759.5 302.5Q749 322 745 329H710Q728 316 746.0 297.5Q764 279 774 263ZM706 222Q729 220 746.0 224.5Q763 229 763 239Q763 250 750.0 266.5Q737 283 717.0 300.0Q697 317 674 329H653V245Q682 225 706 222ZM633 259V329H614V273Q619 269 623.5 265.5Q628 262 633 259ZM594 290V329H553Q561 321 571.0 311.0Q581 301 594 290ZM167 321Q187 321 200 329H140Q151 321 167 321ZM692 188Q740 188 760 211Q749 206 734.0 204.0Q719 202 706 203Q683 205 655.0 220.0Q627 235 600.0 256.0Q573 277 552.5 297.0Q532 317 524 329H488Q503 314 526.0 290.5Q549 267 576.5 243.5Q604 220 634.0 204.0Q664 188 692 188ZM614 71H633V183Q629 185 624.0 187.5Q619 190 614 193ZM410 -32H610V51H410ZM190 -32H390V51H190ZM629 -32H830V51H629ZM849 -32H1049V51H849ZM410 -134H610V-51H410ZM190 -134H390V-51H190ZM629 -134H830V-51H629ZM849 -134H1049V-51H849Z" />
  </g>
</svg>