<svg xmlns="http://www.w3.org/2000/svg" viewBox="49 -154 1130 1210.0833333333333">
  <g transform="translate(0, 902.0833333333333) scale(1, -1)">
    <path fill="black" d="M58 -154V-134H170V-51H58V-32H170V51H58V71H594V205Q560 227 530.0 254.0Q500 281 480.0 302.5Q460 324 455 329H283Q279 323 263.0 308.0Q247 293 221.0 280.5Q195 268 161 267Q126 267 104.0 279.0Q82 291 70.0 309.5Q58 328 53.5 346.5Q49 365 49 376Q49 426 67.5 462.5Q86 499 127 499Q148 499 170.5 487.0Q193 475 214.5 457.0Q236 439 252.5 422.0Q269 405 277 394H340V838Q340 844 340.5 850.0Q341 856 342 861L338 868H333Q312 868 293.5 885.5Q275 903 264.0 927.0Q253 951 253 971Q253 976 253.0 980.0Q253 984 254 988L217 1010Q221 1021 235.0 1033.0Q249 1045 270.0 1052.0Q291 1059 316 1054L304 1015Q328 1010 352.0 985.0Q376 960 378 925Q401 944 430.0 951.0Q459 958 480 958Q501 958 530.0 951.5Q559 945 583 925Q585 961 608.5 985.5Q632 1010 657 1015L644 1054Q670 1059 691.0 1052.0Q712 1045 726.0 1033.0Q740 1021 744 1010L706 988Q707 984 707.5 980.0Q708 976 708 971Q708 951 697.0 927.0Q686 903 667.5 885.5Q649 868 628 868H622L619 861Q620 856 620.5 850.0Q621 844 621 838V394H1174V329H768Q776 316 785.0 295.5Q794 275 794 255Q794 220 771.5 194.0Q749 168 692 168Q683 168 673.0 170.0Q663 172 653 175V71H1179V51H1069V-32H1179V-51H1069V-134H1179V-154ZM628 888Q644 888 657.5 902.0Q671 916 679.5 935.5Q688 955 688 971Q688 986 682.5 991.5Q677 997 668 997Q655 997 639.5 987.0Q624 977 613.0 960.0Q602 943 602 920Q602 905 609.5 896.5Q617 888 628 888ZM333 888Q358 888 358 920Q358 943 347.0 960.0Q336 977 321.0 987.0Q306 997 292 997Q283 997 277.5 991.5Q272 986 272 971Q272 955 280.5 935.5Q289 916 303.0 902.0Q317 888 333 888ZM480 643 598 864Q591 894 569.5 910.0Q548 926 523.5 932.0Q499 938 480 938Q462 938 437.0 932.0Q412 926 391.0 910.0Q370 894 363 864ZM1162 630Q1155 644 1134.0 666.0Q1113 688 1088.0 711.5Q1063 735 1041 753Q1028 744 994.0 729.0Q960 714 913 714Q878 714 839.5 726.5Q801 739 778 751Q773 745 761.5 734.0Q750 723 735.5 713.5Q721 704 707 704Q687 704 678.0 713.5Q669 723 667.0 736.0Q665 749 664 760V772Q665 783 667.0 796.5Q669 810 678.0 819.5Q687 829 707 829Q722 829 743.5 813.0Q765 797 778 781Q792 789 828.0 803.5Q864 818 913 818Q948 818 984.0 805.0Q1020 792 1041 779Q1049 785 1065.0 799.0Q1081 813 1100.5 831.5Q1120 850 1137.0 868.5Q1154 887 1162 902L1179 893Q1169 874 1146.0 849.0Q1123 824 1098.0 801.5Q1073 779 1057 766Q1073 753 1098.0 730.5Q1123 708 1146.0 683.5Q1169 659 1179 640ZM601 416V829L491 622ZM360 418 469 622 360 828ZM707 723Q720 723 737.5 738.5Q755 754 765 766Q755 777 737.5 793.0Q720 809 707 809Q691 809 687.5 795.5Q684 782 684 771V760Q684 750 687.5 736.5Q691 723 707 723ZM913 733Q950 733 978.5 744.5Q1007 756 1023 766Q1007 776 979.0 787.5Q951 799 913 799Q874 799 842.0 787.5Q810 776 792 766Q809 756 841.0 744.5Q873 733 913 733ZM781 454Q786 506 809.0 540.0Q832 574 866.0 591.0Q900 608 936 608Q973 608 1006.5 591.0Q1040 574 1063.5 540.0Q1087 506 1091 454ZM377 394H583Q569 407 547.0 422.0Q525 437 501 441L504 460Q523 457 540.5 448.0Q558 439 572 428L480 601L388 428Q403 439 420.5 448.0Q438 457 457 460L459 441Q436 437 413.5 422.0Q391 407 377 394ZM803 473H1069Q1060 531 1021.0 559.5Q982 588 936 588Q890 588 850.5 559.5Q811 531 803 473ZM221 394H252Q239 410 217.0 429.5Q195 449 171.5 464.0Q148 479 127 479Q107 479 93 465Q102 469 118 469Q133 469 154.0 455.0Q175 441 194.0 423.0Q213 405 221 394ZM99 394H195Q187 404 172.5 417.5Q158 431 142.0 441.5Q126 452 112 452Q103 452 95.5 448.0Q88 444 88 432Q88 420 92.0 410.0Q96 400 99 394ZM161 287Q195 287 219.0 301.5Q243 316 256 329H230Q223 320 208.0 310.5Q193 301 167 301Q143 301 123.0 318.0Q103 335 90.0 360.5Q77 386 71 411Q70 401 69.5 391.5Q69 382 69 374Q71 336 97.0 311.0Q123 286 161 287ZM122 348H1155V374H104Q107 369 112.5 361.5Q118 354 122 348ZM633 259V329H614V273Q619 269 623.5 265.5Q628 262 633 259ZM706 222Q729 220 746.0 224.5Q763 229 763 239Q763 250 750.0 266.5Q737 283 717.0 300.0Q697 317 674 329H653V245Q682 225 706 222ZM594 290V329H553Q561 321 571.0 311.0Q581 301 594 290ZM774 263Q770 283 759.5 302.5Q749 322 745 329H710Q728 316 746.0 297.5Q764 279 774 263ZM692 188Q740 188 760 211Q749 206 734.0 204.0Q719 202 706 203Q683 205 655.0 220.0Q627 235 600.0 256.0Q573 277 552.5 297.0Q532 317 524 329H488Q503 314 526.0 290.5Q549 267 576.5 243.5Q604 220 634.0 204.0Q664 188 692 188ZM167 321Q187 321 200 329H140Q151 321 167 321ZM614 71H633V183Q629 185 624.0 187.5Q619 190 614 193ZM190 -32H390V51H190ZM410 -32H610V51H410ZM629 -32H830V51H629ZM849 -32H1049V51H849ZM849 -134H1049V-51H849ZM410 -134H610V-51H410ZM190 -134H390V-51H190ZM629 -134H830V-51H629Z" />
  </g>
</svg>