<svg xmlns="http://www.w3.org/2000/svg" viewBox="49 -154 1151 1184">
  <g transform="translate(0, 876) scale(1, -1)">
    <path fill="black" d="M58 -154V-134H170V-51H58V-32H170V51H58V71H594V205Q560 227 530.0 254.0Q500 281 480.0 302.5Q460 324 455 329H283Q279 323 263.0 308.0Q247 293 221.0 280.5Q195 268 161 267Q126 267 104.0 279.0Q82 291 70.0 309.5Q58 328 53.5 346.5Q49 365 49 376Q49 426 67.5 462.5Q86 499 127 499Q148 499 170.5 487.0Q193 475 214.5 457.0Q236 439 252.5 422.0Q269 405 277 394H417L429 417L436 421L477 486L505 581Q489 594 477.5 609.5Q466 625 458 642L419 725L302 710L275 734L250 773L251 789L325 861Q317 865 305.0 879.0Q293 893 284.5 912.5Q276 932 276 951Q276 962 284.0 982.0Q292 1002 311 1021L325 1017Q322 1000 321.5 992.0Q321 984 321 975Q321 948 334.5 930.0Q348 912 376 898Q389 906 403 906Q411 906 423 902Q455 919 464.5 944.5Q474 970 474 1025L484 1030Q495 1017 504.0 998.0Q513 979 513 959Q513 943 507.0 923.0Q501 903 487 888L506 894L510 887L504 866Q573 851 618.5 841.0Q664 831 696.5 825.5Q729 820 759 820Q776 820 805.0 823.5Q834 827 868.0 832.0Q902 837 933.0 840.5Q964 844 983 844Q1044 844 1078.5 834.0Q1113 824 1129.0 806.0Q1145 788 1148 764L1175 622Q1182 606 1191.0 588.5Q1200 571 1200 542Q1200 528 1194 508L1179 507Q1162 517 1154.0 535.0Q1146 553 1146 571Q1146 585 1153 619L1143 682L1127 617L1135 563L1119 394H1174V329H768Q776 316 785.0 295.5Q794 275 794 255Q794 220 771.5 194.0Q749 168 692 168Q683 168 673.0 170.0Q663 172 653 175V71H1179V51H1069V-32H1179V-51H1069V-134H1179V-154ZM1102 410 1116 564 1107 617 1134 718 1127 759Q1125 777 1113.0 792.5Q1101 808 1071.0 817.0Q1041 826 983 826Q964 826 933.5 822.0Q903 818 869.0 813.5Q835 809 805.5 805.0Q776 801 760 801Q727 801 689.0 807.0Q651 813 614.5 821.5Q578 830 548.0 837.0Q518 844 500 846L493 826L452 822L447 836L480 843L490 876L436 850L428 863Q457 877 477.5 900.0Q498 923 498 960Q498 966 494.5 976.5Q491 987 489 991Q489 948 469.5 920.5Q450 893 417 882L412 892Q394 892 383.0 885.5Q372 879 359 867L270 780L289 748L333 757L340 746L296 735L310 729L428 744L469 778L481 767L441 731L475 652Q492 614 521.5 593.5Q551 573 591 566L561 606Q543 632 535.5 657.0Q528 682 528 716H547Q547 684 553.5 661.0Q560 638 579 612L616 563L589 418L608 411L659 600L646 640L666 646L679 605L676 595L891 584L990 614L939 693L959 701L1014 614L1082 564L1075 418ZM340 873 355 888Q324 903 314.0 927.5Q304 952 304 985Q298 973 296.5 966.0Q295 959 295 951Q295 927 305.0 903.0Q315 879 340 873ZM350 804 346 824 351 836 389 844 392 831 371 821 361 807ZM295 761 282 784 305 789 312 775ZM144 510V679H166Q194 641 221.5 609.5Q249 578 280 578Q311 578 338.5 609.5Q366 641 394 679H416V510ZM163 529H396V650Q382 631 364.5 609.5Q347 588 326.0 573.0Q305 558 280 558Q255 558 233.5 573.0Q212 588 194.5 609.5Q177 631 163 650ZM888 394H1037L1049 417L1056 421L1063 556L1004 598L986 591L963 530ZM873 411 947 537 962 584 916 570 889 483 846 418ZM623 394H808L820 417L827 421L868 486L893 563L847 549L841 562L859 568L672 577ZM478 411 552 537 554 557Q544 560 537.5 564.0Q531 568 523 572L498 483L455 418ZM493 394H551L563 417L569 421L594 548Q581 550 574 552L568 530ZM221 394H252Q239 410 217.0 429.5Q195 449 171.5 464.0Q148 479 127 479Q107 479 93 465Q102 469 118 469Q133 469 154.0 455.0Q175 441 194.0 423.0Q213 405 221 394ZM99 394H195Q187 404 172.5 417.5Q158 431 142.0 441.5Q126 452 112 452Q103 452 95.5 448.0Q88 444 88 432Q88 420 92.0 410.0Q96 400 99 394ZM161 287Q195 287 219.0 301.5Q243 316 256 329H230Q223 320 208.0 310.5Q193 301 167 301Q143 301 123.0 318.0Q103 335 90.0 360.5Q77 386 71 411Q70 401 69.5 391.5Q69 382 69 374Q71 336 97.0 311.0Q123 286 161 287ZM440 394H467L469 398L445 404ZM1057 394H1083L1085 398L1062 404ZM832 394H858L860 398L836 404ZM571 394H597L599 398L576 404ZM122 348H1155V374H104Q107 369 112.5 361.5Q118 354 122 348ZM774 263Q770 283 759.5 302.5Q749 322 745 329H710Q728 316 746.0 297.5Q764 279 774 263ZM706 222Q729 220 746.0 224.5Q763 229 763 239Q763 250 750.0 266.5Q737 283 717.0 300.0Q697 317 674 329H653V245Q682 225 706 222ZM633 259V329H614V273Q619 269 623.5 265.5Q628 262 633 259ZM594 290V329H553Q561 321 571.0 311.0Q581 301 594 290ZM692 188Q740 188 760 211Q749 206 734.0 204.0Q719 202 706 203Q683 205 655.0 220.0Q627 235 600.0 256.0Q573 277 552.5 297.0Q532 317 524 329H488Q503 314 526.0 290.5Q549 267 576.5 243.5Q604 220 634.0 204.0Q664 188 692 188ZM167 321Q187 321 200 329H140Q151 321 167 321ZM614 71H633V183Q629 185 624.0 187.5Q619 190 614 193ZM629 -32H830V51H629ZM190 -32H390V51H190ZM410 -32H610V51H410ZM849 -32H1049V51H849ZM410 -134H610V-51H410ZM190 -134H390V-51H190ZM849 -134H1049V-51H849ZM629 -134H830V-51H629Z" />
  </g>
</svg>