<svg xmlns="http://www.w3.org/2000/svg" viewBox="49 -154 1130 1179">
  <g transform="translate(0, 871) scale(1, -1)">
    <path fill="black" d="M1085 825Q1085 842 1097.0 854.0Q1109 866 1126 866Q1143 866 1155.0 854.0Q1167 842 1167 825Q1167 810 1157 798H1179V743H1038Q1051 721 1067.0 683.0Q1083 645 1083 609Q1083 578 1065.5 567.5Q1048 557 1031 555V394H1174V329H768Q776 316 785.0 295.5Q794 275 794 255Q794 220 771.5 194.0Q749 168 692 168Q683 168 673.0 170.0Q663 172 653 175V71H1179V51H1069V-32H1179V-51H1069V-134H1179V-154H58V-134H170V-51H58V-32H170V51H58V71H594V205Q560 227 530.0 254.0Q500 281 480.0 302.5Q460 324 455 329H283Q279 323 263.0 308.0Q247 293 221.0 280.5Q195 268 161 267Q126 267 104.0 279.0Q82 291 70.0 309.5Q58 328 53.5 346.5Q49 365 49 376Q49 426 67.5 462.5Q86 499 127 499Q148 499 170.5 487.0Q193 475 214.5 457.0Q236 439 252.5 422.0Q269 405 277 394H976V555Q960 557 942.0 567.5Q924 578 924 609Q924 645 940.0 683.0Q956 721 969 743H829V798H851Q841 810 841 825Q841 842 853.0 854.0Q865 866 882 866Q899 866 911.0 854.0Q923 842 923 825Q923 810 913 798H965Q944 816 944 843Q944 891 951.5 929.5Q959 968 966 996Q969 1009 980.0 1017.0Q991 1025 1004 1025Q1018 1025 1028.5 1017.0Q1039 1009 1042 996Q1050 968 1057.0 929.5Q1064 891 1064 843Q1064 816 1043 798H1095Q1085 810 1085 825ZM964 843Q964 827 976.0 815.5Q988 804 1004 804Q1021 804 1032.5 815.5Q1044 827 1044 843Q1044 890 1037.5 926.5Q1031 963 1023 991Q1020 1005 1004 1005Q989 1005 985 991Q978 963 971.0 926.5Q964 890 964 843ZM419 997H638V861Q684 860 715.5 841.0Q747 822 763.5 793.5Q780 765 780 734V422H760V734Q760 773 729.0 806.0Q698 839 638 841V422H619V978H539V422H519V978H439V422H419V841Q360 839 328.5 806.0Q297 773 297 734V422H278V734Q278 765 294.0 793.5Q310 822 341.5 841.0Q373 860 419 861ZM1105 825Q1105 816 1111.0 810.0Q1117 804 1126 804Q1135 804 1141.0 810.0Q1147 816 1147 825Q1147 834 1141.0 840.0Q1135 846 1126 846Q1117 846 1111.0 840.0Q1105 834 1105 825ZM861 825Q861 816 867.0 810.0Q873 804 882 804Q891 804 897.0 810.0Q903 816 903 825Q903 834 897.0 840.0Q891 846 882 846Q873 846 867.0 840.0Q861 834 861 825ZM849 763H1159V778H849ZM996 743V394H1012V743ZM976 718Q964 696 953.5 665.5Q943 635 943 609Q943 590 954.0 583.0Q965 576 976 574ZM1031 718V574Q1042 576 1053.0 583.0Q1064 590 1064 609Q1064 635 1053.5 665.5Q1043 696 1031 718ZM127 479Q107 479 93 465Q102 469 118 469Q133 469 154.0 455.0Q175 441 194.0 423.0Q213 405 221 394H252Q239 410 217.0 429.5Q195 449 171.5 464.0Q148 479 127 479ZM112 452Q103 452 95.5 448.0Q88 444 88 432Q88 420 92.0 410.0Q96 400 99 394H195Q187 404 172.5 417.5Q158 431 142.0 441.5Q126 452 112 452ZM71 411Q70 401 69.5 391.5Q69 382 69 374Q71 336 97.0 311.0Q123 286 161 287Q195 287 219.0 301.5Q243 316 256 329H230Q223 320 208.0 310.5Q193 301 167 301Q143 301 123.0 318.0Q103 335 90.0 360.5Q77 386 71 411ZM105 374 122 348H1155V374ZM553 329Q561 321 571.0 311.0Q581 301 594 290V329ZM488 329Q503 314 526.0 290.5Q549 267 576.5 243.5Q604 220 634.0 204.0Q664 188 692 188Q740 188 760 211Q751 207 738.5 205.0Q726 203 714 203Q687 203 656.0 219.0Q625 235 597.0 258.0Q569 281 549.0 301.0Q529 321 524 329ZM614 329V273L633 259V329ZM653 329V245Q661 239 678.5 230.0Q696 221 720 221Q738 221 750.5 226.0Q763 231 763 239Q763 250 750.0 266.5Q737 283 717.0 300.0Q697 317 674 329ZM710 329Q728 316 746.0 297.5Q764 279 774 263Q770 283 759.5 302.5Q749 322 745 329ZM140 329Q151 321 167 321Q187 321 200 329ZM614 193V71H633V183ZM629 51V-32H830V51ZM849 51V-32H1049V51ZM410 51V-32H610V51ZM190 51V-32H390V51ZM190 -51V-134H390V-51ZM410 -51V-134H610V-51ZM629 -51V-134H830V-51ZM849 -51V-134H1049V-51Z" />
  </g>
</svg>