<svg xmlns="http://www.w3.org/2000/svg" viewBox="49 -154 1130 1184">
  <g transform="translate(0, 876) scale(1, -1)">
    <path fill="black" d="M58 -154V-134H170V-51H58V-32H170V51H58V71H594V205Q560 227 530.0 254.0Q500 281 480.0 302.5Q460 324 455 329H283Q279 323 263.0 308.0Q247 293 221.0 280.5Q195 268 161 267Q126 267 104.0 279.0Q82 291 70.0 309.5Q58 328 53.5 346.5Q49 365 49 376Q49 426 67.5 462.5Q86 499 127 499Q148 499 170.5 487.0Q193 475 214.5 457.0Q236 439 252.5 422.0Q269 405 277 394H478Q484 403 494.0 410.0Q504 417 517 418L566 426Q580 429 592.0 438.5Q604 448 608 458L640 521Q635 536 626.5 561.5Q618 587 611 605L571 633Q548 647 523.0 667.0Q498 687 480.5 710.0Q463 733 463 754Q463 779 480.0 803.0Q497 827 510 842Q534 868 544.5 884.0Q555 900 553 918Q500 916 463.0 883.0Q426 850 394 800H368Q368 834 381.5 865.5Q395 897 423 924Q436 936 454.0 949.0Q472 962 489.0 972.0Q506 982 514 985Q515 989 520.0 999.5Q525 1010 539.5 1020.0Q554 1030 581 1030Q604 1030 622.5 1012.0Q641 994 641 965Q642 946 636.5 931.5Q631 917 624 904L588 836Q587 834 581.0 823.5Q575 813 580 813Q583 813 586.5 815.5Q590 818 594 821L612 833Q618 837 628.0 842.0Q638 847 654 847Q696 847 730.0 828.0Q764 809 785 792Q796 784 816.0 768.5Q836 753 858.0 736.0Q880 719 899.0 705.5Q918 692 926 687Q933 683 951.5 671.5Q970 660 992.0 646.5Q1014 633 1033 622Q1031 616 1025.5 609.5Q1020 603 1011 601Q1007 585 987.5 572.5Q968 560 930 560Q905 560 885.0 564.0Q865 568 853 567Q814 563 786 563V544Q787 542 789.5 528.0Q792 514 792 511Q792 507 790.5 491.5Q789 476 789 463Q789 453 793 425Q807 409 813 394H1174V329H768Q776 316 785.0 295.5Q794 275 794 255Q794 220 771.5 194.0Q749 168 692 168Q683 168 673.0 170.0Q663 172 653 175V71H1179V51H1069V-32H1179V-51H1069V-134H1179V-154ZM686 394H793Q792 397 787.5 404.0Q783 411 774 419Q771 443 771 463Q771 476 772.0 491.5Q773 507 773 511Q773 513 770.5 524.0Q768 535 766 545Q765 585 759 595L776 602Q780 597 781.5 592.0Q783 587 784 582Q791 582 808.5 583.0Q826 584 850 586Q870 588 890.0 583.5Q910 579 930 580Q950 580 963.0 581.5Q976 583 989 593L611 698Q586 706 572.5 717.5Q559 729 559 750Q559 769 576.5 781.0Q594 793 614.0 799.5Q634 806 639 806L641 787Q618 783 598.5 773.0Q579 763 579 750Q579 732 591.0 725.5Q603 719 614 715L988 609Q996 608 1001.5 611.0Q1007 614 1008 616Q1000 621 982.0 631.5Q964 642 946.5 652.5Q929 663 920 668Q912 673 893.0 686.5Q874 700 851.0 717.0Q828 734 808.0 749.5Q788 765 777 774Q758 790 726.0 809.0Q694 828 654 828Q642 828 634.5 825.0Q627 822 622 819L600 805Q597 803 588.5 797.5Q580 792 576 792Q568 793 564.0 799.5Q560 806 560 813Q560 818 563.0 826.0Q566 834 569 839L605 910Q610 918 616.0 932.5Q622 947 622 965Q622 981 612.0 996.0Q602 1011 581 1011Q558 1011 547.0 1002.5Q536 994 533.5 985.0Q531 976 531 972Q530 955 542.5 945.5Q555 936 569 928Q575 904 564.0 883.0Q553 862 526 833Q510 816 496.0 794.0Q482 772 482 758Q482 740 500.5 717.5Q519 695 546.0 674.5Q573 654 598 639Q616 628 637.5 615.0Q659 602 676.5 591.0Q694 580 700 575Q725 559 743.0 526.0Q761 493 763 425Q763 416 750 413L692 404Q682 402 676 396Q678 394 686 394ZM564 962Q558 962 553.5 967.0Q549 972 549 979Q549 985 553.5 989.5Q558 994 564 994Q580 994 580 979Q580 972 575.5 967.0Q571 962 564 962ZM564 973Q570 973 570 979Q570 984 564 984Q559 984 559 979Q559 973 564 973ZM380 812Q386 832 404.0 861.0Q422 890 451.5 916.0Q481 942 519 951Q516 956 515.5 959.0Q515 962 514 968Q495 958 473.0 943.5Q451 929 434 914Q410 891 395.5 860.0Q381 829 380 812ZM397 829Q422 868 457.5 896.5Q493 925 536 931Q534 933 531.0 936.0Q528 939 526 941Q494 936 468.5 916.5Q443 897 425.0 873.0Q407 849 397 829ZM520 394H624Q629 396 613 412Q617 417 621.0 423.5Q625 430 634.5 446.0Q644 462 661 494L675 509L671 521L695 557Q686 562 669.5 573.0Q653 584 637 594L661 519L629 458Q622 443 607.5 429.5Q593 416 576 413L522 404Q509 403 507 396Q509 394 520 394ZM647 394H655Q668 413 694 418L740 426Q742 427 744.0 427.0Q746 427 745 430Q743 462 737.0 491.5Q731 521 708 543L692 519L696 506L678 485L638 413Q643 408 644.5 403.5Q646 399 647 394ZM221 394H252Q239 410 217.0 429.5Q195 449 171.5 464.0Q148 479 127 479Q107 479 93 465Q102 469 118 469Q133 469 154.0 455.0Q175 441 194.0 423.0Q213 405 221 394ZM99 394H195Q187 404 172.5 417.5Q158 431 142.0 441.5Q126 452 112 452Q103 452 95.5 448.0Q88 444 88 432Q88 420 92.0 410.0Q96 400 99 394ZM161 287Q195 287 219.0 301.5Q243 316 256 329H230Q223 320 208.0 310.5Q193 301 167 301Q143 301 123.0 318.0Q103 335 90.0 360.5Q77 386 71 411Q70 401 69.5 391.5Q69 382 69 374Q71 336 97.0 311.0Q123 286 161 287ZM122 348H1155V374H104Q107 369 112.5 361.5Q118 354 122 348ZM594 290V329H553Q561 321 571.0 311.0Q581 301 594 290ZM633 259V329H614V273Q619 269 623.5 265.5Q628 262 633 259ZM706 222Q729 220 746.0 224.5Q763 229 763 239Q763 250 750.0 266.5Q737 283 717.0 300.0Q697 317 674 329H653V245Q682 225 706 222ZM167 321Q187 321 200 329H140Q151 321 167 321ZM774 263Q770 283 759.5 302.5Q749 322 745 329H710Q728 316 746.0 297.5Q764 279 774 263ZM692 188Q740 188 760 211Q749 206 734.0 204.0Q719 202 706 203Q683 205 655.0 220.0Q627 235 600.0 256.0Q573 277 552.5 297.0Q532 317 524 329H488Q503 314 526.0 290.5Q549 267 576.5 243.5Q604 220 634.0 204.0Q664 188 692 188ZM614 71H633V183Q629 185 624.0 187.5Q619 190 614 193ZM410 -32H610V51H410ZM629 -32H830V51H629ZM190 -32H390V51H190ZM849 -32H1049V51H849ZM849 -134H1049V-51H849ZM410 -134H610V-51H410ZM190 -134H390V-51H190ZM629 -134H830V-51H629Z" />
  </g>
</svg>