<svg xmlns="http://www.w3.org/2000/svg" viewBox="49 -154 1130 1186">
  <g transform="translate(0, 878) scale(1, -1)">
    <path fill="black" d="M514 862Q488 862 461.5 873.5Q435 885 409 903Q378 926 356.5 950.0Q335 974 335 993Q335 1010 344.5 1021.0Q354 1032 373 1032Q389 1032 406.0 1020.0Q423 1008 439 994Q456 981 478.5 965.5Q501 950 528 950H1082V862ZM514 882H1063V931H528Q496 931 470.5 947.5Q445 964 427 979Q412 992 398.0 1002.0Q384 1012 373 1012Q355 1012 355 993Q355 979 373.5 959.0Q392 939 420 919Q445 902 467.5 892.0Q490 882 514 882ZM545 636Q514 636 474.0 639.0Q434 642 397.0 649.0Q360 656 336.0 668.0Q312 680 312 697Q312 720 340.5 733.5Q369 747 413.5 754.0Q458 761 505 761L465 800Q486 806 525.0 812.5Q564 819 607.5 824.0Q651 829 685 829Q726 829 767.5 817.0Q809 805 840 793Q849 790 858.5 786.5Q868 783 875 781Q898 775 935.0 768.0Q972 761 1012.5 754.5Q1053 748 1085 745V676H927Q898 669 862.0 661.0Q826 653 797 648Q786 647 758.0 644.5Q730 642 692.5 640.5Q655 639 616.0 637.5Q577 636 545 636ZM545 656Q576 656 614.0 657.5Q652 659 688.5 660.5Q725 662 753.5 664.5Q782 667 794 668Q823 673 860.0 680.5Q897 688 925 695H1067V727Q1056 729 1029.5 733.0Q1003 737 971.5 742.5Q940 748 912.5 753.5Q885 759 870 763Q863 765 853.5 768.0Q844 771 833 775Q802 786 763.0 798.0Q724 810 685 810Q655 810 621.0 807.0Q587 804 556.0 799.5Q525 795 504 790L534 761Q578 761 623.5 758.0Q669 755 708.5 751.0Q748 747 774 744L772 725Q743 729 699.0 732.5Q655 736 606.0 739.0Q557 742 511 742Q467 742 426.0 737.5Q385 733 358.5 723.0Q332 713 332 697Q332 685 354.0 677.5Q376 670 409.5 665.0Q443 660 479.5 658.0Q516 656 545 656ZM58 -154V-134H170V-51H58V-32H170V51H58V71H594V205Q560 227 530.0 254.0Q500 281 480.0 302.5Q460 324 455 329H283Q279 323 263.0 308.0Q247 293 221.0 280.5Q195 268 161 267Q126 267 104.0 279.0Q82 291 70.0 309.5Q58 328 53.5 346.5Q49 365 49 376Q49 426 67.5 462.5Q86 499 127 499Q148 499 170.5 487.0Q193 475 214.5 457.0Q236 439 252.5 422.0Q269 405 277 394H899Q874 410 859.0 437.0Q844 464 844 496Q844 530 860.5 557.0Q877 584 904.5 600.5Q932 617 965 617Q999 617 1026.0 600.5Q1053 584 1069.5 557.0Q1086 530 1086 496Q1086 464 1070.5 437.0Q1055 410 1030 394H1174V329H768Q776 316 785.0 295.5Q794 275 794 255Q794 220 771.5 194.0Q749 168 692 168Q683 168 673.0 170.0Q663 172 653 175V71H1179V51H1069V-32H1179V-51H1069V-134H1179V-154ZM965 538 1012 585Q991 597 965 597Q938 597 917 585ZM351 418Q354 460 373.5 496.0Q393 532 426.5 554.0Q460 576 503 576Q547 576 580.0 554.0Q613 532 633.0 496.0Q653 460 656 418ZM901 417 965 479 1029 417Q1037 423 1044 432L981 496L1044 560Q1037 569 1029 574L965 511L900 574Q892 568 886 560L949 496L886 431Q893 422 901 417ZM374 438H633Q624 485 591.0 520.5Q558 556 503 556Q449 556 416.0 520.5Q383 485 374 438ZM1055 448Q1066 470 1066 496Q1066 521 1055 543L1008 496ZM875 448 922 496 875 543Q863 522 863 496Q863 469 875 448ZM221 394H252Q239 410 217.0 429.5Q195 449 171.5 464.0Q148 479 127 479Q107 479 93 465Q102 469 118 469Q133 469 154.0 455.0Q175 441 194.0 423.0Q213 405 221 394ZM965 394Q991 394 1012 406L965 453L917 406Q940 394 965 394ZM99 394H195Q187 404 172.5 417.5Q158 431 142.0 441.5Q126 452 112 452Q103 452 95.5 448.0Q88 444 88 432Q88 420 92.0 410.0Q96 400 99 394ZM161 287Q195 287 219.0 301.5Q243 316 256 329H230Q223 320 208.0 310.5Q193 301 167 301Q143 301 123.0 318.0Q103 335 90.0 360.5Q77 386 71 411Q70 401 69.5 391.5Q69 382 69 374Q71 336 97.0 311.0Q123 286 161 287ZM122 348H1155V374H104Q107 369 112.5 361.5Q118 354 122 348ZM774 263Q770 283 759.5 302.5Q749 322 745 329H710Q728 316 746.0 297.5Q764 279 774 263ZM167 321Q187 321 200 329H140Q151 321 167 321ZM706 222Q729 220 746.0 224.5Q763 229 763 239Q763 250 750.0 266.5Q737 283 717.0 300.0Q697 317 674 329H653V245Q682 225 706 222ZM633 259V329H614V273Q619 269 623.5 265.5Q628 262 633 259ZM594 290V329H553Q561 321 571.0 311.0Q581 301 594 290ZM692 188Q740 188 760 211Q749 206 734.0 204.0Q719 202 706 203Q683 205 655.0 220.0Q627 235 600.0 256.0Q573 277 552.5 297.0Q532 317 524 329H488Q503 314 526.0 290.5Q549 267 576.5 243.5Q604 220 634.0 204.0Q664 188 692 188ZM614 71H633V183Q629 185 624.0 187.5Q619 190 614 193ZM849 -32H1049V51H849ZM190 -32H390V51H190ZM629 -32H830V51H629ZM410 -32H610V51H410ZM190 -134H390V-51H190ZM849 -134H1049V-51H849ZM629 -134H830V-51H629ZM410 -134H610V-51H410Z" />
  </g>
</svg>