<svg xmlns="http://www.w3.org/2000/svg" viewBox="49 -154 1131 1215">
  <g transform="translate(0, 907) scale(1, -1)">
    <path fill="black" d="M58 -154V-134H170V-51H58V-32H170V51H58V71H594V205Q560 227 530.0 254.0Q500 281 480.0 302.5Q460 324 455 329H283Q279 323 263.0 308.0Q247 293 221.0 280.5Q195 268 161 267Q126 267 104.0 279.0Q82 291 70.0 309.5Q58 328 53.5 346.5Q49 365 49 376Q49 426 67.5 462.5Q86 499 127 499Q148 499 170.5 487.0Q193 475 214.5 457.0Q236 439 252.5 422.0Q269 405 277 394H292V414L333 420Q342 422 346.5 429.5Q351 437 354 445L373 527L375 551Q377 559 379.0 572.5Q381 586 383 589Q396 608 419.0 617.5Q442 627 461 632Q481 638 502.0 643.5Q523 649 532 661L533 677L513 739L400 698L373 719L371 738L457 834L464 850L479 866L522 868L525 849L503 843L500 838L519 840L524 823L488 805L464 777L494 795Q507 808 535 814L556 820V836L536 834L532 868L508 872L541 917Q547 930 551 934Q558 945 569.0 959.5Q580 974 592.5 987.0Q605 1000 614 1005Q604 1013 604 1029Q604 1042 613.5 1051.5Q623 1061 636 1061Q650 1061 659.0 1051.5Q668 1042 668 1029Q668 1019 664.0 1011.0Q660 1003 652 1000Q656 988 656.5 970.0Q657 952 657 932Q657 890 646.5 868.5Q636 847 616 833V821L664 808Q675 805 680.0 796.0Q685 787 687 781L716 673L702 596L712 579V560L696 524L670 530L680 558L676 569L667 548L643 551L650 590L657 672L636 729L622 683L620 643Q621 641 622.5 628.5Q624 616 626.0 604.0Q628 592 628 591Q628 580 621.0 565.5Q614 551 597 550Q584 549 556.5 546.5Q529 544 512 542Q520 527 535.0 489.0Q550 451 558 405L514 394H1174V329H768Q776 316 785.0 295.5Q794 275 794 255Q794 220 771.5 194.0Q749 168 692 168Q683 168 673.0 170.0Q663 172 653 175V71H1179V51H1069V-32H1179V-51H1069V-134H1179V-154ZM636 1013Q652 1013 652 1029Q652 1044 636 1044Q621 1044 621 1029Q621 1013 636 1013ZM605 846Q624 861 630.5 884.5Q637 908 637 933Q637 954 637.0 975.0Q637 996 632 996Q626 996 613.5 984.0Q601 972 589.0 956.0Q577 940 569 928L600 898Q611 888 613.5 876.5Q616 865 608 857L603 852ZM688 537 698 560 695 577 683 593 697 676 667 773Q666 778 662.5 785.5Q659 793 653 794L597 811V829L584 857L593 864Q599 869 597.0 874.0Q595 879 591 882L559 913L537 880L546 875L548 850L572 852V803L535 797Q526 795 515.5 790.5Q505 786 500 780L433 744L430 756L480 814L510 829L509 832L487 829L485 833L495 848L513 854V857L492 854L479 843L472 828Q458 809 434.0 781.5Q410 754 393 735L394 727L403 720L527 765L553 677L551 649Q541 636 521.5 630.5Q502 625 476 617Q463 613 447.0 607.5Q431 602 417 589Q454 584 494 562Q517 564 547.0 566.0Q577 568 590 569Q601 571 605.0 577.5Q609 584 609 591Q609 591 607.0 603.0Q605 615 603.0 628.0Q601 641 600 642L604 686L625 762H646L675 673L666 591L660 560H662L670 579H683L691 560L684 538ZM575 881Q557 884 549 893Q553 895 557 895Q571 895 575 881ZM851 507Q830 507 804.0 519.5Q778 532 759.0 553.0Q740 574 740 597Q740 621 752.5 656.0Q765 691 786.5 728.0Q808 765 835.5 797.0Q863 829 893.0 849.0Q923 869 951 869Q982 869 1001.0 859.5Q1020 850 1029 840Q1043 851 1068.5 866.0Q1094 881 1123 881Q1155 881 1167.5 869.0Q1180 857 1180 841Q1180 822 1164.5 804.5Q1149 787 1126.5 773.0Q1104 759 1084 749Q1084 733 1081.5 702.0Q1079 671 1074.5 641.5Q1070 612 1063 599Q1053 577 1039.0 559.5Q1025 542 1016 537Q1012 535 990.0 530.5Q968 526 939.5 520.5Q911 515 886.0 511.0Q861 507 851 507ZM1080 775Q1089 775 1095.5 778.0Q1102 781 1106 783Q1125 794 1142.5 810.5Q1160 827 1160 841Q1160 849 1152.0 855.0Q1144 861 1123 861Q1095 861 1070.0 837.5Q1045 814 1037 788Q1044 781 1056.5 778.0Q1069 775 1080 775ZM857 527Q870 528 893.5 532.0Q917 536 942.0 540.5Q967 545 985.5 549.0Q1004 553 1008 555Q1014 558 1025.0 573.0Q1036 588 1046 608Q1052 619 1055.5 644.0Q1059 669 1061.5 696.5Q1064 724 1064 741Q1054 737 1044.0 734.5Q1034 732 1024 731Q1019 730 1012.0 736.5Q1005 743 1003 747Q1001 752 1002.5 757.0Q1004 762 998 762Q991 763 981.5 757.5Q972 752 969 758Q967 761 974.0 773.5Q981 786 993.0 801.0Q1005 816 1017 827Q1013 832 996.5 841.5Q980 851 951 849Q925 848 898.0 829.0Q871 810 846.0 780.5Q821 751 801.5 717.0Q782 683 770.5 651.0Q759 619 759 597Q760 575 781.5 556.5Q803 538 827 530Q840 539 857.5 552.0Q875 565 888.0 575.0Q901 585 900 584L912 569Q900 560 883.0 547.0Q866 534 857 527ZM862 686 854 694Q855 697 858.5 708.0Q862 719 870.0 729.0Q878 739 890 739Q904 739 919.5 731.5Q935 724 945 716V708L922 703Q915 688 899 688Q892 688 885.5 690.5Q879 693 876 695ZM817 561Q816 561 808.0 567.5Q800 574 801 579Q802 584 810.5 590.5Q819 597 829 597Q839 597 846.5 589.5Q854 582 854 577V561H846Q844 563 839.5 566.0Q835 569 830 569Q823 569 821.0 565.5Q819 562 817 561ZM312 394H376L435 568Q428 571 420.0 573.5Q412 576 403 577Q402 573 400.0 565.0Q398 557 396 549L393 526L373 437Q366 410 348 407L312 402ZM475 397 535 415Q528 458 512.5 494.5Q497 531 489 543Q482 548 474.5 552.0Q467 556 454 560Q455 556 457.0 544.5Q459 533 462 528Q464 525 471.0 513.5Q478 502 487.0 488.0Q496 474 503.0 464.0Q510 454 510 454Q512 451 513.0 446.0Q514 441 514 439Q514 432 507.0 426.0Q500 420 492 415L472 405ZM396 394H452L446 411L476 427Q489 434 489 443Q489 445 489.0 447.5Q489 450 486 454Q476 468 463.0 486.0Q450 504 447 509Q442 521 442 527ZM221 394H252Q239 410 217.0 429.5Q195 449 171.5 464.0Q148 479 127 479Q107 479 93 465Q102 469 118 469Q133 469 154.0 455.0Q175 441 194.0 423.0Q213 405 221 394ZM99 394H195Q187 404 172.5 417.5Q158 431 142.0 441.5Q126 452 112 452Q103 452 95.5 448.0Q88 444 88 432Q88 420 92.0 410.0Q96 400 99 394ZM161 287Q195 287 219.0 301.5Q243 316 256 329H230Q223 320 208.0 310.5Q193 301 167 301Q143 301 123.0 318.0Q103 335 90.0 360.5Q77 386 71 411Q70 401 69.5 391.5Q69 382 69 374Q71 336 97.0 311.0Q123 286 161 287ZM122 348H1155V374H104Q107 369 112.5 361.5Q118 354 122 348ZM167 321Q187 321 200 329H140Q151 321 167 321ZM774 263Q770 283 759.5 302.5Q749 322 745 329H710Q728 316 746.0 297.5Q764 279 774 263ZM706 222Q729 220 746.0 224.5Q763 229 763 239Q763 250 750.0 266.5Q737 283 717.0 300.0Q697 317 674 329H653V245Q682 225 706 222ZM633 259V329H614V273Q619 269 623.5 265.5Q628 262 633 259ZM594 290V329H553Q561 321 571.0 311.0Q581 301 594 290ZM692 188Q740 188 760 211Q749 206 734.0 204.0Q719 202 706 203Q683 205 655.0 220.0Q627 235 600.0 256.0Q573 277 552.5 297.0Q532 317 524 329H488Q503 314 526.0 290.5Q549 267 576.5 243.5Q604 220 634.0 204.0Q664 188 692 188ZM614 71H633V183Q629 185 624.0 187.5Q619 190 614 193ZM190 -32H390V51H190ZM410 -32H610V51H410ZM629 -32H830V51H629ZM849 -32H1049V51H849ZM410 -134H610V-51H410ZM190 -134H390V-51H190ZM629 -134H830V-51H629ZM849 -134H1049V-51H849Z" />
  </g>
</svg>