<svg xmlns="http://www.w3.org/2000/svg" viewBox="49 -154 1145 1215">
  <g transform="translate(0, 907) scale(1, -1)">
    <path fill="black" d="M58 -154V-134H170V-51H58V-32H170V51H58V71H594V205Q560 227 530.0 254.0Q500 281 480.0 302.5Q460 324 455 329H283Q279 323 263.0 308.0Q247 293 221.0 280.5Q195 268 161 267Q126 267 104.0 279.0Q82 291 70.0 309.5Q58 328 53.5 346.5Q49 365 49 376Q49 426 67.5 462.5Q86 499 127 499Q148 499 170.5 487.0Q193 475 214.5 457.0Q236 439 252.5 422.0Q269 405 277 394H292V414L333 420Q342 422 346.5 429.5Q351 437 354 445L373 527L375 551Q377 559 379.0 572.5Q381 586 383 589Q396 608 419.0 617.5Q442 627 461 632Q481 638 502.0 643.5Q523 649 532 661L533 677L513 739L400 698L373 719L371 738L457 834L464 850L479 866L522 868L525 849L503 843L500 838L519 840L524 823L488 805L464 777L494 795Q507 808 535 814L556 820V836L536 834L532 868L508 872L541 917Q547 930 551 934Q558 945 569.0 959.5Q580 974 592.5 987.0Q605 1000 614 1005Q604 1013 604 1029Q604 1042 613.5 1051.5Q623 1061 636 1061Q650 1061 659.0 1051.5Q668 1042 668 1029Q668 1019 664.0 1011.0Q660 1003 652 1000Q656 988 656.5 970.0Q657 952 657 932Q657 890 646.5 868.5Q636 847 616 833V821L664 808Q675 805 680.0 796.0Q685 787 687 781L716 673L702 596L712 579V560L696 524L670 530L680 558L676 569L667 548L643 551L650 590L657 672L636 729L622 683L620 643Q621 641 622.5 628.5Q624 616 626.0 604.0Q628 592 628 591Q628 580 621.0 565.5Q614 551 597 550Q584 549 556.5 546.5Q529 544 512 542Q520 527 535.0 489.0Q550 451 558 405L514 394H1174V329H768Q776 316 785.0 295.5Q794 275 794 255Q794 220 771.5 194.0Q749 168 692 168Q683 168 673.0 170.0Q663 172 653 175V71H1179V51H1069V-32H1179V-51H1069V-134H1179V-154ZM636 1013Q652 1013 652 1029Q652 1044 636 1044Q621 1044 621 1029Q621 1013 636 1013ZM605 846Q624 861 630.5 884.5Q637 908 637 933Q637 954 637.0 975.0Q637 996 632 996Q626 996 613.5 984.0Q601 972 589.0 956.0Q577 940 569 928L600 898Q611 888 613.5 876.5Q616 865 608 857L603 852ZM688 537 698 560 695 577 683 593 697 676 667 773Q666 778 662.5 785.5Q659 793 653 794L597 811V829L584 857L593 864Q599 869 597.0 874.0Q595 879 591 882L559 913L537 880L546 875L548 850L572 852V803L535 797Q526 795 515.5 790.5Q505 786 500 780L433 744L430 756L480 814L510 829L509 832L487 829L485 833L495 848L513 854V857L492 854L479 843L472 828Q458 809 434.0 781.5Q410 754 393 735L394 727L403 720L527 765L553 677L551 649Q541 636 521.5 630.5Q502 625 476 617Q463 613 447.0 607.5Q431 602 417 589Q454 584 494 562Q517 564 547.0 566.0Q577 568 590 569Q601 571 605.0 577.5Q609 584 609 591Q609 591 607.0 603.0Q605 615 603.0 628.0Q601 641 600 642L604 686L625 762H646L675 673L666 591L660 560H662L670 579H683L691 560L684 538ZM718 545Q718 555 722.5 570.5Q727 586 740.0 598.5Q753 611 778 611Q795 611 806.0 606.5Q817 602 822 597H875Q854 618 830.5 649.0Q807 680 790.0 717.0Q773 754 773 792Q773 833 787.0 858.5Q801 884 830 884Q859 884 882.5 862.5Q906 841 928 819Q939 807 951.0 796.0Q963 785 977 775Q994 764 1014.0 747.5Q1034 731 1049.0 709.5Q1064 688 1064 661Q1064 647 1063.0 635.5Q1062 624 1061 618Q1060 616 1060.0 614.0Q1060 612 1060 611Q1060 610 1062.5 605.0Q1065 600 1073 600Q1080 600 1096.0 610.5Q1112 621 1126.0 645.5Q1140 670 1140 711Q1140 737 1130.5 768.0Q1121 799 1109 815Q1097 826 1082.5 842.0Q1068 858 1068 873Q1068 891 1080.5 901.0Q1093 911 1105 911Q1121 911 1132.0 899.0Q1143 887 1149.5 872.0Q1156 857 1158 847Q1168 827 1181.0 788.5Q1194 750 1194 711Q1194 669 1180.5 635.0Q1167 601 1147.5 578.5Q1128 556 1110 545ZM575 881Q557 884 549 893Q553 895 557 895Q571 895 575 881ZM742 565H992Q972 577 956.5 592.0Q941 607 932 619L947 630Q956 620 971.0 604.5Q986 589 1008.5 577.0Q1031 565 1059 565H1105Q1110 568 1127.0 584.0Q1144 600 1159.0 631.0Q1174 662 1174 711Q1174 744 1163.0 782.0Q1152 820 1139 843Q1137 854 1128.0 872.5Q1119 891 1105 891Q1100 891 1094.0 886.0Q1088 881 1088 873Q1088 863 1101.5 849.0Q1115 835 1125 827Q1139 805 1149.0 772.5Q1159 740 1159 711Q1159 663 1141.5 634.0Q1124 605 1103.5 592.5Q1083 580 1073 580Q1052 580 1046.0 591.5Q1040 603 1040 611Q1040 613 1040.5 615.5Q1041 618 1041 620Q1042 627 1043.0 637.5Q1044 648 1044 661Q1044 683 1031.0 701.5Q1018 720 1000.0 734.5Q982 749 966 759Q953 768 941.5 779.0Q930 790 914 805Q894 826 872.0 845.0Q850 864 830 864Q811 864 802.0 843.5Q793 823 793 792Q793 761 807.0 729.0Q821 697 843.0 667.5Q865 638 887.5 615.0Q910 592 926 578H814Q810 582 800.5 586.5Q791 591 778 591Q758 591 751.0 582.5Q744 574 742 565ZM312 394H376L435 568Q428 571 420.0 573.5Q412 576 403 577Q402 573 400.0 565.0Q398 557 396 549L393 526L373 437Q366 410 348 407L312 402ZM475 397 535 415Q528 458 512.5 494.5Q497 531 489 543Q482 548 474.5 552.0Q467 556 454 560Q455 556 457.0 544.5Q459 533 462 528Q464 525 471.0 513.5Q478 502 487.0 488.0Q496 474 503.0 464.0Q510 454 510 454Q512 451 513.0 446.0Q514 441 514 439Q514 432 507.0 426.0Q500 420 492 415L472 405ZM396 394H452L446 411L476 427Q489 434 489 443Q489 445 489.0 447.5Q489 450 486 454Q476 468 463.0 486.0Q450 504 447 509Q442 521 442 527ZM221 394H252Q239 410 217.0 429.5Q195 449 171.5 464.0Q148 479 127 479Q107 479 93 465Q102 469 118 469Q133 469 154.0 455.0Q175 441 194.0 423.0Q213 405 221 394ZM99 394H195Q187 404 172.5 417.5Q158 431 142.0 441.5Q126 452 112 452Q103 452 95.5 448.0Q88 444 88 432Q88 420 92.0 410.0Q96 400 99 394ZM161 287Q195 287 219.0 301.5Q243 316 256 329H230Q223 320 208.0 310.5Q193 301 167 301Q143 301 123.0 318.0Q103 335 90.0 360.5Q77 386 71 411Q70 401 69.5 391.5Q69 382 69 374Q71 336 97.0 311.0Q123 286 161 287ZM122 348H1155V374H104Q107 369 112.5 361.5Q118 354 122 348ZM167 321Q187 321 200 329H140Q151 321 167 321ZM774 263Q770 283 759.5 302.5Q749 322 745 329H710Q728 316 746.0 297.5Q764 279 774 263ZM706 222Q729 220 746.0 224.5Q763 229 763 239Q763 250 750.0 266.5Q737 283 717.0 300.0Q697 317 674 329H653V245Q682 225 706 222ZM633 259V329H614V273Q619 269 623.5 265.5Q628 262 633 259ZM594 290V329H553Q561 321 571.0 311.0Q581 301 594 290ZM692 188Q740 188 760 211Q749 206 734.0 204.0Q719 202 706 203Q683 205 655.0 220.0Q627 235 600.0 256.0Q573 277 552.5 297.0Q532 317 524 329H488Q503 314 526.0 290.5Q549 267 576.5 243.5Q604 220 634.0 204.0Q664 188 692 188ZM614 71H633V183Q629 185 624.0 187.5Q619 190 614 193ZM190 -32H390V51H190ZM410 -32H610V51H410ZM849 -32H1049V51H849ZM629 -32H830V51H629ZM190 -134H390V-51H190ZM410 -134H610V-51H410ZM849 -134H1049V-51H849ZM629 -134H830V-51H629Z" />
  </g>
</svg>