<svg xmlns="http://www.w3.org/2000/svg" viewBox="49 -154 1130 1168">
  <g transform="translate(0, 860) scale(1, -1)">
    <path fill="black" d="M665 692V929Q665 967 679.5 990.5Q694 1014 722 1014Q739 1014 749.0 1004.5Q759 995 759 979Q759 966 752.5 958.0Q746 950 738 944Q735 941 732.0 939.0Q729 937 729 935Q729 929 736 910Q741 894 746.0 873.0Q751 852 751 832Q751 802 728.5 788.0Q706 774 685 769V692ZM553 692V769Q531 774 508.5 788.0Q486 802 486 832Q486 852 491.5 873.0Q497 894 501 910Q508 929 508 935Q508 937 505.0 939.0Q502 941 499 944Q492 950 485.0 958.0Q478 966 478 979Q478 995 488.5 1004.5Q499 1014 516 1014Q544 1014 558.0 990.5Q572 967 572 929V692ZM685 790Q706 794 718.5 806.5Q731 819 731 832Q731 850 726.5 869.0Q722 888 717 904Q714 913 712.0 921.5Q710 930 710 935Q710 943 714.5 948.5Q719 954 726 958Q731 963 735.5 967.5Q740 972 740 979Q740 994 722 994Q703 994 694.0 976.0Q685 958 685 929ZM553 790V929Q553 958 544.0 976.0Q535 994 516 994Q498 994 498 979Q498 972 502.5 967.5Q507 963 512 958Q518 954 522.5 948.5Q527 943 527 935Q527 930 525.0 921.5Q523 913 520 904Q516 888 511.0 869.0Q506 850 506 832Q506 819 518.5 806.5Q531 794 553 790ZM619 399Q581 399 549.0 417.5Q517 436 498.0 468.0Q479 500 479 539Q479 578 498.0 609.5Q517 641 549.0 659.5Q581 678 619 678Q658 678 689.5 659.5Q721 641 739.5 609.5Q758 578 758 539Q758 500 739.5 468.0Q721 436 689.5 417.5Q658 399 619 399ZM619 418Q652 418 679.5 434.5Q707 451 723.0 478.0Q739 505 739 539Q739 572 723.0 599.5Q707 627 679.5 643.0Q652 659 619 659Q586 659 558.5 643.0Q531 627 515.0 599.5Q499 572 499 539Q499 505 515.0 478.0Q531 451 558.5 434.5Q586 418 619 418ZM639 462V617H658V462ZM579 462V617H599V462ZM58 -154V-134H170V-51H58V-32H170V51H58V71H594V205Q560 227 530.0 254.0Q500 281 480.0 302.5Q460 324 455 329H283Q279 323 263.0 308.0Q247 293 221.0 280.5Q195 268 161 267Q126 267 104.0 279.0Q82 291 70.0 309.5Q58 328 53.5 346.5Q49 365 49 376Q49 426 67.5 462.5Q86 499 127 499Q148 499 170.5 487.0Q193 475 214.5 457.0Q236 439 252.5 422.0Q269 405 277 394H1174V329H768Q776 316 785.0 295.5Q794 275 794 255Q794 220 771.5 194.0Q749 168 692 168Q683 168 673.0 170.0Q663 172 653 175V71H1179V51H1069V-32H1179V-51H1069V-134H1179V-154ZM221 394H252Q239 410 217.0 429.5Q195 449 171.5 464.0Q148 479 127 479Q107 479 93 465Q102 469 118 469Q133 469 154.0 455.0Q175 441 194.0 423.0Q213 405 221 394ZM99 394H195Q187 404 172.5 417.5Q158 431 142.0 441.5Q126 452 112 452Q103 452 95.5 448.0Q88 444 88 432Q88 420 92.0 410.0Q96 400 99 394ZM161 287Q195 287 219.0 301.5Q243 316 256 329H230Q223 320 208.0 310.5Q193 301 167 301Q143 301 123.0 318.0Q103 335 90.0 360.5Q77 386 71 411Q70 401 69.5 391.5Q69 382 69 374Q71 336 97.0 311.0Q123 286 161 287ZM122 348H1155V374H104Q107 369 112.5 361.5Q118 354 122 348ZM167 321Q187 321 200 329H140Q151 321 167 321ZM692 188Q740 188 760 211Q749 206 734.0 204.0Q719 202 706 203Q683 205 655.0 220.0Q627 235 600.0 256.0Q573 277 552.5 297.0Q532 317 524 329H488Q503 314 526.0 290.5Q549 267 576.5 243.5Q604 220 634.0 204.0Q664 188 692 188ZM594 290V329H553Q561 321 571.0 311.0Q581 301 594 290ZM633 259V329H614V273Q619 269 623.5 265.5Q628 262 633 259ZM706 222Q729 220 746.0 224.5Q763 229 763 239Q763 250 750.0 266.5Q737 283 717.0 300.0Q697 317 674 329H653V245Q682 225 706 222ZM774 263Q770 283 759.5 302.5Q749 322 745 329H710Q728 316 746.0 297.5Q764 279 774 263ZM614 71H633V183Q629 185 624.0 187.5Q619 190 614 193ZM849 -32H1049V51H849ZM629 -32H830V51H629ZM190 -32H390V51H190ZM410 -32H610V51H410ZM849 -134H1049V-51H849ZM410 -134H610V-51H410ZM190 -134H390V-51H190ZM629 -134H830V-51H629Z" />
  </g>
</svg>