<svg xmlns="http://www.w3.org/2000/svg" viewBox="49 -154 1130 1167">
  <g transform="translate(0, 859) scale(1, -1)">
    <path fill="black" d="M602 403Q589 408 575.5 420.5Q562 433 562 450Q562 466 572.0 479.5Q582 493 600 497V845Q578 826 562.0 797.0Q546 768 542 732H524Q523 743 520.5 766.5Q518 790 518.0 816.0Q518 842 523 858Q531 881 544.5 901.0Q558 921 568 938Q578 953 586.5 971.0Q595 989 596 1013H609Q619 1003 622.5 983.0Q626 963 626.0 942.0Q626 921 625 908H631Q638 925 651.0 944.5Q664 964 680.5 978.0Q697 992 713 992Q736 992 742.5 980.0Q749 968 749 960Q749 942 738.5 930.5Q728 919 713.5 909.5Q699 900 686.0 885.5Q673 871 668 847Q679 841 694.0 827.5Q709 814 720.5 795.5Q732 777 732 753Q732 721 712.5 706.0Q693 691 671 691Q662 691 650.0 694.0Q638 697 634 700V497Q653 493 662.5 479.5Q672 466 672 450Q672 433 658.5 420.5Q645 408 632 403L622 414Q626 417 629.5 425.0Q633 433 633 444Q633 462 617 462Q601 462 601 444Q601 433 605.0 425.0Q609 417 613 414ZM715 949Q725 949 725 959Q725 969 715 969Q706 969 706 959Q706 949 715 949ZM536 803H543Q546 824 559.5 846.0Q573 868 581 882Q586 891 596.5 911.5Q607 932 607 957H600Q599 942 587.5 924.5Q576 907 567 893Q555 872 545.5 847.0Q536 822 536 803ZM652 855Q656 880 672.5 902.5Q689 925 708 935Q702 934 696.0 936.0Q690 938 688 942Q672 926 659.0 901.5Q646 877 644 860ZM668 725Q676 725 683.5 734.0Q691 743 691 762Q691 777 681.0 792.5Q671 808 659.5 819.5Q648 831 644 833V753Q644 741 649.5 733.0Q655 725 668 725ZM58 -154V-134H170V-51H58V-32H170V51H58V71H594V205Q560 227 530.0 254.0Q500 281 480.0 302.5Q460 324 455 329H283Q279 323 263.0 308.0Q247 293 221.0 280.5Q195 268 161 267Q126 267 104.0 279.0Q82 291 70.0 309.5Q58 328 53.5 346.5Q49 365 49 376Q49 426 67.5 462.5Q86 499 127 499Q148 499 170.5 487.0Q193 475 214.5 457.0Q236 439 252.5 422.0Q269 405 277 394H1174V329H768Q776 316 785.0 295.5Q794 275 794 255Q794 220 771.5 194.0Q749 168 692 168Q683 168 673.0 170.0Q663 172 653 175V71H1179V51H1069V-32H1179V-51H1069V-134H1179V-154ZM221 394H252Q239 410 217.0 429.5Q195 449 171.5 464.0Q148 479 127 479Q107 479 93 465Q102 469 118 469Q133 469 154.0 455.0Q175 441 194.0 423.0Q213 405 221 394ZM99 394H195Q187 404 172.5 417.5Q158 431 142.0 441.5Q126 452 112 452Q103 452 95.5 448.0Q88 444 88 432Q88 420 92.0 410.0Q96 400 99 394ZM161 287Q195 287 219.0 301.5Q243 316 256 329H230Q223 320 208.0 310.5Q193 301 167 301Q143 301 123.0 318.0Q103 335 90.0 360.5Q77 386 71 411Q70 401 69.5 391.5Q69 382 69 374Q71 336 97.0 311.0Q123 286 161 287ZM122 348H1155V374H104Q107 369 112.5 361.5Q118 354 122 348ZM706 222Q729 220 746.0 224.5Q763 229 763 239Q763 250 750.0 266.5Q737 283 717.0 300.0Q697 317 674 329H653V245Q682 225 706 222ZM167 321Q187 321 200 329H140Q151 321 167 321ZM774 263Q770 283 759.5 302.5Q749 322 745 329H710Q728 316 746.0 297.5Q764 279 774 263ZM633 259V329H614V273Q619 269 623.5 265.5Q628 262 633 259ZM594 290V329H553Q561 321 571.0 311.0Q581 301 594 290ZM692 188Q740 188 760 211Q749 206 734.0 204.0Q719 202 706 203Q683 205 655.0 220.0Q627 235 600.0 256.0Q573 277 552.5 297.0Q532 317 524 329H488Q503 314 526.0 290.5Q549 267 576.5 243.5Q604 220 634.0 204.0Q664 188 692 188ZM614 71H633V183Q629 185 624.0 187.5Q619 190 614 193ZM849 -32H1049V51H849ZM410 -32H610V51H410ZM629 -32H830V51H629ZM190 -32H390V51H190ZM849 -134H1049V-51H849ZM410 -134H610V-51H410ZM190 -134H390V-51H190ZM629 -134H830V-51H629Z" />
  </g>
</svg>