<svg xmlns="http://www.w3.org/2000/svg" viewBox="49 -154 1130 1050">
  <g transform="translate(0, 742) scale(1, -1)">
    <path fill="black" d="M58 -154V-134H170V-51H58V-32H170V51H58V71H594V205Q560 227 530.0 254.0Q500 281 480.0 302.5Q460 324 455 329H283Q279 323 263.0 308.0Q247 293 221.0 280.5Q195 268 161 267Q126 267 104.0 279.0Q82 291 70.0 309.5Q58 328 53.5 346.5Q49 365 49 376Q49 426 67.5 462.5Q86 499 127 499Q148 499 170.5 487.0Q193 475 214.5 457.0Q236 439 252.5 422.0Q269 405 277 394H343Q344 394 348.0 404.0Q352 414 379 415L386 460Q386 463 386.5 466.5Q387 470 387 474Q387 504 376.5 537.0Q366 570 357 598L352 612L327 646Q314 664 298.0 684.5Q282 705 282 731V773Q282 782 282.0 790.5Q282 799 271 799Q258 799 255.5 795.0Q253 791 252 789H233V808Q233 828 242.0 838.5Q251 849 259 856L277 870Q279 876 294.0 886.0Q309 896 343 896Q386 896 408.5 872.5Q431 849 446 817Q449 815 460.0 809.0Q471 803 480 798Q509 770 543.5 728.0Q578 686 604 648Q607 644 618.5 630.0Q630 616 643.5 599.5Q657 583 668.5 569.5Q680 556 684 552Q689 549 702.0 536.5Q715 524 731.0 508.5Q747 493 761 479L738 461L684 494L722 438L656 394H752Q753 394 757.0 404.0Q761 414 788 415L795 460Q795 463 795.5 466.5Q796 470 796 474Q796 504 785.5 537.0Q775 570 766 598L761 612L736 646Q723 664 707.0 684.5Q691 705 691 731V773Q691 782 691.0 790.5Q691 799 680 799Q667 799 664.5 795.0Q662 791 661 789H643V808Q643 828 651.5 838.5Q660 849 668 856L687 870Q689 876 703.5 886.0Q718 896 752 896Q796 896 818.0 872.5Q840 849 855 817Q858 815 869.0 809.0Q880 803 889 798Q918 770 951.5 729.5Q985 689 1013 648Q1014 647 1025.5 633.0Q1037 619 1055.5 597.5Q1074 576 1093 552Q1098 549 1111.0 536.5Q1124 524 1140.0 508.5Q1156 493 1170 479L1147 461L1093 494L1131 438L1065 394H1174V329H768Q776 316 785.0 295.5Q794 275 794 255Q794 220 771.5 194.0Q749 168 692 168Q683 168 673.0 170.0Q663 172 653 175V71H1179V51H1069V-32H1179V-51H1069V-134H1179V-154ZM419 394H514V402Q504 403 493.5 404.0Q483 405 476 405V471Q486 470 496.0 465.5Q506 461 512 457V548Q539 548 556.0 536.5Q573 525 583.0 511.0Q593 497 598 488L645 408L700 444L657 505L372 668Q367 671 352.0 680.0Q337 689 323.5 703.5Q310 718 310 736Q310 761 335.0 777.5Q360 794 400 797V779Q361 776 345.5 764.0Q330 752 330 736Q330 715 350.5 701.0Q371 687 386 679L737 479L739 481Q734 487 718.5 500.0Q703 513 687.5 526.5Q672 540 667 544Q663 548 649.5 564.5Q636 581 618.5 602.5Q601 624 586 643Q560 678 525.5 720.5Q491 763 463 791Q462 792 450.5 798.0Q439 804 428 810Q414 840 397.5 859.0Q381 878 343 878Q309 878 300.5 870.0Q292 862 291 860L272 844Q266 838 259.0 832.0Q252 826 252 811Q254 814 260.5 822.5Q267 831 281 831Q287 831 292.0 828.0Q297 825 301 822Q307 819 307 825V829Q302 829 297.0 832.0Q292 835 292 842Q292 850 297.0 854.5Q302 859 308 859H329Q350 859 360.5 849.0Q371 839 371 824Q371 809 357.5 798.0Q344 787 334 782Q332 781 328.0 781.0Q324 781 323 785H319V777H308Q308 786 302.5 802.5Q297 819 279 819Q271 819 266 814H271Q290 814 296.0 801.0Q302 788 302 773V731Q302 709 318.5 688.0Q335 667 349 647Q366 627 384.0 605.5Q402 584 418 568Q446 537 457.0 508.0Q468 479 466 460L463 405Q455 405 442.0 404.0Q429 403 419 402ZM829 394H923V402Q913 403 902.5 404.0Q892 405 885 405V471Q895 470 905.0 465.5Q915 461 921 457V548Q948 548 965.0 536.5Q982 525 992.5 511.0Q1003 497 1007 488L1054 408L1109 444L1066 505L781 668Q776 671 761.0 680.0Q746 689 732.5 703.5Q719 718 719 736Q719 761 744.5 777.5Q770 794 810 797V779Q770 776 754.5 764.0Q739 752 739 736Q739 715 759.5 701.0Q780 687 795 679L1146 479L1148 481Q1143 487 1127.5 500.0Q1112 513 1097.0 526.5Q1082 540 1077 544Q1073 548 1059.0 564.5Q1045 581 1027.5 602.5Q1010 624 995 643Q969 678 934.5 720.5Q900 763 872 791Q871 792 859.5 798.0Q848 804 837 810Q823 840 806.5 859.0Q790 878 752 878Q719 878 710.0 870.0Q701 862 700 860L681 844Q675 838 668.5 832.0Q662 826 662 811Q664 814 670.0 822.5Q676 831 690 831Q696 831 701.5 828.0Q707 825 710 822Q716 819 716 825V829Q711 829 706.5 832.0Q702 835 702 842Q702 859 717 859H738Q759 859 769.5 849.0Q780 839 780 824Q780 809 766.5 798.0Q753 787 743 782Q741 781 737.0 781.0Q733 781 732 785H728V777H717Q717 786 711.5 802.5Q706 819 688 819Q680 819 675 814H680Q699 814 705.0 801.0Q711 788 711 773V731Q711 709 727.5 688.0Q744 667 758 647Q775 627 793.5 605.5Q812 584 827 568Q855 537 866.0 508.0Q877 479 875 460L873 405Q864 405 851.0 404.0Q838 403 829 402ZM716 836Q723 836 723 842Q723 848 716 848Q710 848 710 842Q710 836 716 836ZM307 836Q314 836 314 842Q314 848 307 848Q301 848 301 842Q301 836 307 836ZM316 796V801Q316 818 330 818Q337 818 340.5 813.0Q344 808 344 803Q344 802 343.5 800.5Q343 799 343 798Q348 802 353.0 809.5Q358 817 358 824Q358 835 349.5 841.0Q341 847 329 847H321Q322 846 322 841Q322 835 317 830Q318 829 319.0 826.5Q320 824 318 820Q316 814 308 814Q313 807 316 796ZM726 796Q726 797 725.5 798.5Q725 800 725 801Q725 818 739 818Q747 818 750.0 813.0Q753 808 753 803Q753 802 752.5 800.5Q752 799 752 798Q757 802 762.0 809.5Q767 817 767 824Q767 835 758.5 841.0Q750 847 738 847H730Q731 846 731 841Q731 835 726 830Q727 829 728.0 826.5Q729 824 728 820Q726 814 717 814Q719 810 722.0 805.5Q725 801 726 796ZM330 792Q335 792 335 801Q335 803 334.0 806.0Q333 809 330 809Q323 809 323 801Q323 792 330 792ZM739 792Q745 792 745 801Q745 803 743.5 806.0Q742 809 739 809Q732 809 732 801Q732 792 739 792ZM807 415 823 416 834 476Q846 474 856 466L857 472Q858 483 850.0 505.5Q842 528 815 556Q809 563 803.5 569.0Q798 575 791 583Q799 556 807.5 529.5Q816 503 816 474Q816 470 815.5 466.5Q815 463 814 459ZM398 415 414 416 425 476Q435 475 447 466L448 472Q449 483 441.0 505.5Q433 528 406 556Q400 563 394.5 569.0Q389 575 381 583Q390 556 398.5 529.5Q407 503 407 474Q407 470 406.5 466.5Q406 463 405 459ZM969 394H1041L990 484Q980 502 964.5 516.0Q949 530 938 530V428Q931 435 919.5 442.0Q908 449 900 450V418Q908 418 920.5 416.5Q933 415 941 413Q951 410 958.0 404.5Q965 399 969 394ZM560 394H631L581 484Q571 502 555.5 516.0Q540 530 529 530V428Q521 435 509.5 442.0Q498 449 491 450V418Q499 418 511.5 416.5Q524 415 532 413Q541 410 548.5 404.5Q556 399 560 394ZM221 394H252Q239 410 217.0 429.5Q195 449 171.5 464.0Q148 479 127 479Q107 479 93 465Q102 469 118 469Q133 469 154.0 455.0Q175 441 194.0 423.0Q213 405 221 394ZM429 417 448 418 450 450Q448 451 444.0 453.5Q440 456 437 458ZM838 417 857 418 859 450Q857 451 853.0 453.5Q849 456 846 458ZM99 394H195Q187 404 172.5 417.5Q158 431 142.0 441.5Q126 452 112 452Q103 452 95.5 448.0Q88 444 88 432Q88 420 92.0 410.0Q96 400 99 394ZM161 287Q195 287 219.0 301.5Q243 316 256 329H230Q223 320 208.0 310.5Q193 301 167 301Q143 301 123.0 318.0Q103 335 90.0 360.5Q77 386 71 411Q70 401 69.5 391.5Q69 382 69 374Q71 336 97.0 311.0Q123 286 161 287ZM356 394H363Q365 396 367.5 399.0Q370 402 372 403Q358 403 356 394ZM765 394H772Q774 396 776.5 399.0Q779 402 781 403Q767 403 765 394ZM393 394H407V401Q398 401 393 394ZM802 394H816V401Q807 401 802 394ZM936 394H949Q946 396 943.0 397.5Q940 399 936 400ZM527 394H540Q537 396 534.0 397.5Q531 399 527 400ZM781 394H790Q794 398 797 400Q791 400 787.0 398.0Q783 396 781 394ZM372 394H380Q382 396 388 400Q382 400 378.0 398.0Q374 396 372 394ZM122 348H1155V374H104Q107 369 112.5 361.5Q118 354 122 348ZM633 259V329H614V273Q619 269 623.5 265.5Q628 262 633 259ZM692 188Q740 188 760 211Q749 206 734.0 204.0Q719 202 706 203Q683 205 655.0 220.0Q627 235 600.0 256.0Q573 277 552.5 297.0Q532 317 524 329H488Q503 314 526.0 290.5Q549 267 576.5 243.5Q604 220 634.0 204.0Q664 188 692 188ZM594 290V329H553Q561 321 571.0 311.0Q581 301 594 290ZM774 263Q770 283 759.5 302.5Q749 322 745 329H710Q728 316 746.0 297.5Q764 279 774 263ZM706 222Q729 220 746.0 224.5Q763 229 763 239Q763 250 750.0 266.5Q737 283 717.0 300.0Q697 317 674 329H653V245Q682 225 706 222ZM167 321Q187 321 200 329H140Q151 321 167 321ZM614 71H633V183Q629 185 624.0 187.5Q619 190 614 193ZM410 -32H610V51H410ZM849 -32H1049V51H849ZM190 -32H390V51H190ZM629 -32H830V51H629ZM190 -134H390V-51H190ZM410 -134H610V-51H410ZM629 -134H830V-51H629ZM849 -134H1049V-51H849Z" />
  </g>
</svg>