<svg xmlns="http://www.w3.org/2000/svg" viewBox="49 -154 1130 1057">
  <g transform="translate(0, 749) scale(1, -1)">
    <path fill="black" d="M625 398 623 415 629 421 603 418 602 430 624 438 600 439V449L614 454L600 453V456Q587 454 570.0 454.0Q553 454 546 454Q530 456 505.5 461.5Q481 467 457 474L456 461Q459 445 460.5 439.5Q462 434 462 430Q462 423 459.0 414.5Q456 406 451 406Q439 406 425.5 409.0Q412 412 398 412Q388 412 365.5 408.5Q343 405 325 402L323 419L331 425L303 422V434L324 439L301 441V452L322 457L304 460L305 471L375 476Q374 481 374.0 487.0Q374 493 374 499Q337 519 307.0 536.5Q277 554 241 572Q226 579 205.0 588.5Q184 598 165.0 606.5Q146 615 136 619Q125 624 122.0 640.5Q119 657 125 667L123 668Q127 679 139.0 693.0Q151 707 157 707Q162 707 176.5 703.0Q191 699 203 695L226 687Q247 683 271.0 687.0Q295 691 323 689L397 854Q404 868 417.0 885.5Q430 903 455 903Q476 903 485.5 892.0Q495 881 495 868Q495 848 482.0 837.5Q469 827 449 828Q449 816 447.5 792.0Q446 768 444.5 741.0Q443 714 441 692H345L342 687Q358 683 374.5 671.5Q391 660 414.5 647.5Q438 635 474 627Q503 621 530.5 619.0Q558 617 580 617Q597 617 614.5 618.0Q632 619 649 618Q669 617 702.5 607.0Q736 597 774.5 582.5Q813 568 849.5 554.0Q886 540 913.5 529.0Q941 518 951 515Q968 509 999.5 500.0Q1031 491 1070.5 481.0Q1110 471 1151 462L1145 418Q1033 433 941.5 444.5Q850 456 755 460V457Q759 441 760.0 435.0Q761 429 761 425Q761 418 758.0 410.0Q755 402 750 402Q738 402 724.5 405.0Q711 408 697 408Q687 408 664.5 404.5Q642 401 625 398ZM354 712H422L431 850Q449 847 462.5 851.5Q476 856 476 868Q476 873 471.0 878.0Q466 883 455 883Q439 883 429.5 870.0Q420 857 415 846ZM645 421Q657 423 672.5 425.0Q688 427 697 427Q701 427 712.5 425.0Q724 423 734 421Q741 421 741 428Q741 430 738.0 442.5Q735 455 735 457Q735 476 741.5 495.0Q748 514 758 524L776 520Q766 508 762.0 498.0Q758 488 756 479Q822 476 880.0 470.5Q938 465 999.0 457.0Q1060 449 1134 438L1136 448Q1090 459 1036.5 471.5Q983 484 948 495Q937 499 909.5 510.0Q882 521 845.5 535.0Q809 549 770.5 563.0Q732 577 699.5 587.0Q667 597 648 598Q632 600 615.5 598.5Q599 597 580 597Q556 597 528.5 599.5Q501 602 471 607Q429 616 403.5 630.0Q378 644 362.0 656.0Q346 668 332 669Q304 672 276.5 667.5Q249 663 223 667L199 676Q187 681 176.5 684.5Q166 688 163 688Q159 688 152.0 682.0Q145 676 143 670L150 665L157 653L168 656L176 644L192 647L202 632L221 637L228 623Q233 623 238.0 624.0Q243 625 246 625L253 611L265 612L323 579L320 576L263 600L247 599L239 613Q235 613 229.5 612.0Q224 611 221 611L214 623Q210 622 206.0 621.0Q202 620 199 619L187 635L169 631L163 642L152 639L143 654H141Q139 641 147 637Q165 629 185.5 619.5Q206 610 222.5 602.0Q239 594 245 591Q277 575 311.5 555.5Q346 536 375 520Q376 526 377.0 532.0Q378 538 380 544L399 541Q396 531 395.0 520.5Q394 510 394 499Q394 492 394.5 482.5Q395 473 396 461L336 459L340 454L332 449L341 444L335 437H345L346 425Q357 427 373.0 429.5Q389 432 398 432Q401 432 413.0 429.5Q425 427 435 425Q442 425 442 433Q442 435 439.5 447.0Q437 459 436 461Q438 475 441.0 495.0Q444 515 454 536L472 531Q463 509 459 492Q484 485 507.5 479.5Q531 474 546 474Q560 474 577.0 474.0Q594 474 600 475V477Q609 479 620.0 480.5Q631 482 647 482Q660 482 674 480Q673 487 673 495Q674 506 679.0 518.5Q684 531 692 541L707 532Q701 524 697.0 515.0Q693 506 693 495Q692 488 693.0 480.5Q694 473 695 461Q685 462 672.0 463.0Q659 464 652 464Q633 464 626 460L638 457L631 448L641 444L634 433H645ZM162 664 152 670Q155 675 159.5 677.0Q164 679 168 679Q179 679 184 672L176 664Q173 667 168 667Q164 667 162 664ZM328 624Q328 627 326 631Q324 626 315 626Q308 626 304.5 631.0Q301 636 301 642L298 639L290 646Q292 650 297.5 653.5Q303 657 311 657Q329 657 332.5 643.0Q336 629 336 624ZM314 637Q319 637 319 640Q317 645 310 645Q310 637 314 637ZM58 -154V-134H170V-51H58V-32H170V51H58V71H594V205Q560 227 530.0 254.0Q500 281 480.0 302.5Q460 324 455 329H283Q279 323 263.0 308.0Q247 293 221.0 280.5Q195 268 161 267Q126 267 104.0 279.0Q82 291 70.0 309.5Q58 328 53.5 346.5Q49 365 49 376Q49 426 67.5 462.5Q86 499 127 499Q148 499 170.5 487.0Q193 475 214.5 457.0Q236 439 252.5 422.0Q269 405 277 394H1174V329H768Q776 316 785.0 295.5Q794 275 794 255Q794 220 771.5 194.0Q749 168 692 168Q683 168 673.0 170.0Q663 172 653 175V71H1179V51H1069V-32H1179V-51H1069V-134H1179V-154ZM221 394H252Q239 410 217.0 429.5Q195 449 171.5 464.0Q148 479 127 479Q107 479 93 465Q102 469 118 469Q133 469 154.0 455.0Q175 441 194.0 423.0Q213 405 221 394ZM99 394H195Q187 404 172.5 417.5Q158 431 142.0 441.5Q126 452 112 452Q103 452 95.5 448.0Q88 444 88 432Q88 420 92.0 410.0Q96 400 99 394ZM161 287Q195 287 219.0 301.5Q243 316 256 329H230Q223 320 208.0 310.5Q193 301 167 301Q143 301 123.0 318.0Q103 335 90.0 360.5Q77 386 71 411Q70 401 69.5 391.5Q69 382 69 374Q71 336 97.0 311.0Q123 286 161 287ZM122 348H1155V374H104Q107 369 112.5 361.5Q118 354 122 348ZM774 263Q770 283 759.5 302.5Q749 322 745 329H710Q728 316 746.0 297.5Q764 279 774 263ZM692 188Q740 188 760 211Q749 206 734.0 204.0Q719 202 706 203Q683 205 655.0 220.0Q627 235 600.0 256.0Q573 277 552.5 297.0Q532 317 524 329H488Q503 314 526.0 290.5Q549 267 576.5 243.5Q604 220 634.0 204.0Q664 188 692 188ZM706 222Q729 220 746.0 224.5Q763 229 763 239Q763 250 750.0 266.5Q737 283 717.0 300.0Q697 317 674 329H653V245Q682 225 706 222ZM594 290V329H553Q561 321 571.0 311.0Q581 301 594 290ZM167 321Q187 321 200 329H140Q151 321 167 321ZM633 259V329H614V273Q619 269 623.5 265.5Q628 262 633 259ZM614 71H633V183Q629 185 624.0 187.5Q619 190 614 193ZM190 -32H390V51H190ZM849 -32H1049V51H849ZM410 -32H610V51H410ZM629 -32H830V51H629ZM190 -134H390V-51H190ZM410 -134H610V-51H410ZM849 -134H1049V-51H849ZM629 -134H830V-51H629Z" />
  </g>
</svg>