<svg xmlns="http://www.w3.org/2000/svg" viewBox="49 -154 1130 1210">
  <g transform="translate(0, 902) scale(1, -1)">
    <path fill="black" d="M58 -154V-134H170V-51H58V-32H170V51H58V71H594V205Q560 227 530.0 254.0Q500 281 480.0 302.5Q460 324 455 329H283Q279 323 263.0 308.0Q247 293 221.0 280.5Q195 268 161 267Q126 267 104.0 279.0Q82 291 70.0 309.5Q58 328 53.5 346.5Q49 365 49 376Q49 426 67.5 462.5Q86 499 127 499Q148 499 170.5 487.0Q193 475 214.5 457.0Q236 439 252.5 422.0Q269 405 277 394H580L594 664Q574 680 555.5 711.0Q537 742 533 773Q525 771 519 771Q505 771 492.0 784.0Q479 797 479 814Q479 825 486.5 833.5Q494 842 513 842Q519 842 525.5 839.5Q532 837 536 834Q539 837 543.0 841.0Q547 845 553 849L483 924Q466 942 457.0 960.5Q448 979 448 1001Q448 1026 465.0 1041.0Q482 1056 503 1056Q522 1056 533.0 1049.0Q544 1042 549 1033L547 1044H691L689 1033Q694 1042 705.0 1049.0Q716 1056 735 1056Q757 1056 773.5 1041.0Q790 1026 790 1001Q790 979 781.0 960.5Q772 942 755 924L686 849Q692 845 696.5 841.0Q701 837 705 834Q715 842 727 842Q747 842 754.0 833.5Q761 825 761 814Q761 797 748.5 784.0Q736 771 721 771Q715 771 707 773Q703 742 684.5 710.5Q666 679 645 663L659 394H1174V329H768Q776 316 785.0 295.5Q794 275 794 255Q794 220 771.5 194.0Q749 168 692 168Q683 168 673.0 170.0Q663 172 653 175V71H1179V51H1069V-32H1179V-51H1069V-134H1179V-154ZM667 859 741 938Q755 953 763.0 968.5Q771 984 771 1001Q771 1017 760.5 1026.5Q750 1036 735 1036Q716 1036 707.0 1025.0Q698 1014 698 1003Q698 992 703.5 984.0Q709 976 716 976Q726 976 729.5 985.5Q733 995 733 1004L753 1005Q754 989 745.5 973.0Q737 957 716 957Q689 957 681 987L659 862Q665 860 667 859ZM571 859 579 862 557 987Q549 957 522 957Q501 957 492.5 973.0Q484 989 485 1005L505 1004Q505 995 508.5 985.5Q512 976 522 976Q530 976 535.0 984.0Q540 992 540 1003Q540 1014 531.5 1025.0Q523 1036 503 1036Q488 1036 478.0 1026.5Q468 1017 468 1001Q468 968 498 938ZM598 867Q603 868 608.5 868.5Q614 869 620 869Q625 869 630.5 868.5Q636 868 640 867L667 1025H571ZM620 672Q633 672 649.0 693.0Q665 714 676.5 744.5Q688 775 688 803Q696 799 706.5 795.0Q717 791 721 791Q729 791 735.0 798.0Q741 805 741 814Q741 822 727 822Q719 822 713.5 816.5Q708 811 704 805Q701 809 690.0 819.5Q679 830 661.5 839.5Q644 849 620 849Q596 849 578.5 839.5Q561 830 550.5 819.5Q540 809 536 805Q532 811 526.5 816.5Q521 822 513 822Q499 822 499 814Q499 805 505.5 798.0Q512 791 519 791Q524 791 534.0 795.0Q544 799 552 803Q552 775 563.5 744.5Q575 714 591.0 693.0Q607 672 620 672ZM620 726Q613 726 601.0 730.0Q589 734 592 747Q593 752 595.0 761.5Q597 771 601 778Q594 781 582.5 783.0Q571 785 560 784Q559 790 558.5 794.5Q558 799 558 803Q561 805 569.5 808.5Q578 812 588 812Q600 812 609.0 804.5Q618 797 618 789Q618 778 615.5 771.5Q613 765 613 757Q613 748 620 748Q627 748 627 757Q627 765 624.5 771.5Q622 778 622 789Q622 797 631.0 804.5Q640 812 652 812Q663 812 671.0 808.5Q679 805 683 803Q683 799 682.5 794.5Q682 790 680 784Q657 786 640 778Q643 771 645.0 761.5Q647 752 648 747Q651 734 639.0 730.0Q627 726 620 726ZM619 695Q603 695 590 702L599 719Q609 714 619 714Q630 714 642 719L650 702Q637 695 619 695ZM600 394H640L626 653H620Q616 653 613 654ZM221 394H252Q239 410 217.0 429.5Q195 449 171.5 464.0Q148 479 127 479Q107 479 93 465Q102 469 118 469Q133 469 154.0 455.0Q175 441 194.0 423.0Q213 405 221 394ZM99 394H195Q187 404 172.5 417.5Q158 431 142.0 441.5Q126 452 112 452Q103 452 95.5 448.0Q88 444 88 432Q88 420 92.0 410.0Q96 400 99 394ZM161 287Q195 287 219.0 301.5Q243 316 256 329H230Q223 320 208.0 310.5Q193 301 167 301Q143 301 123.0 318.0Q103 335 90.0 360.5Q77 386 71 411Q70 401 69.5 391.5Q69 382 69 374Q71 336 97.0 311.0Q123 286 161 287ZM122 348H1155V374H104Q107 369 112.5 361.5Q118 354 122 348ZM774 263Q770 283 759.5 302.5Q749 322 745 329H710Q728 316 746.0 297.5Q764 279 774 263ZM706 222Q729 220 746.0 224.5Q763 229 763 239Q763 250 750.0 266.5Q737 283 717.0 300.0Q697 317 674 329H653V245Q682 225 706 222ZM633 259V329H614V273Q619 269 623.5 265.5Q628 262 633 259ZM594 290V329H553Q561 321 571.0 311.0Q581 301 594 290ZM692 188Q740 188 760 211Q749 206 734.0 204.0Q719 202 706 203Q683 205 655.0 220.0Q627 235 600.0 256.0Q573 277 552.5 297.0Q532 317 524 329H488Q503 314 526.0 290.5Q549 267 576.5 243.5Q604 220 634.0 204.0Q664 188 692 188ZM167 321Q187 321 200 329H140Q151 321 167 321ZM614 71H633V183Q629 185 624.0 187.5Q619 190 614 193ZM410 -32H610V51H410ZM190 -32H390V51H190ZM629 -32H830V51H629ZM849 -32H1049V51H849ZM410 -134H610V-51H410ZM190 -134H390V-51H190ZM629 -134H830V-51H629ZM849 -134H1049V-51H849Z" />
  </g>
</svg>