<svg xmlns="http://www.w3.org/2000/svg" viewBox="49 -154 1130 1153">
  <g transform="translate(0, 845) scale(1, -1)">
    <path fill="black" d="M710 713 714 916Q715 950 726.0 974.5Q737 999 769 999Q788 999 795.0 989.0Q802 979 802 969Q802 954 789.0 945.5Q776 937 768 936L786 865Q788 857 790.5 845.5Q793 834 793 827Q793 814 784.5 810.0Q776 806 766 801Q759 798 748.5 793.5Q738 789 731 785L730 713ZM598 713 597 785Q590 789 580.0 793.5Q570 798 563 801Q553 806 544.0 810.0Q535 814 535 827Q535 834 538.0 845.5Q541 857 542 865L560 936Q552 937 539.0 945.5Q526 954 526 969Q526 979 533.0 989.0Q540 999 559 999Q592 999 602.5 974.5Q613 950 614 916L618 713ZM732 808Q737 811 743.0 813.0Q749 815 757 819Q762 821 767.0 823.5Q772 826 772 829Q772 834 770.5 843.5Q769 853 767 858L745 952Q762 951 772.0 956.0Q782 961 782 969Q782 979 769 979Q750 979 742.0 961.5Q734 944 734 916ZM596 808 594 916Q594 944 586.5 961.5Q579 979 559 979Q546 979 546 969Q546 961 556.5 956.0Q567 951 583 952L561 858Q560 853 558.0 843.5Q556 834 556 829Q556 826 561.0 823.5Q566 821 571 819Q580 815 585.5 813.0Q591 811 596 808ZM58 -154V-134H170V-51H58V-32H170V51H58V71H594V205Q560 227 530.0 254.0Q500 281 480.0 302.5Q460 324 455 329H283Q279 323 263.0 308.0Q247 293 221.0 280.5Q195 268 161 267Q126 267 104.0 279.0Q82 291 70.0 309.5Q58 328 53.5 346.5Q49 365 49 376Q49 426 67.5 462.5Q86 499 127 499Q148 499 170.5 487.0Q193 475 214.5 457.0Q236 439 252.5 422.0Q269 405 277 394H654V473H591Q571 473 566.0 482.5Q561 492 561 505V633Q530 632 521.0 629.5Q512 627 512 616V520Q512 511 502 511Q492 511 492 520V616Q492 638 505.0 645.0Q518 652 564 652Q574 664 589.5 678.0Q605 692 624.5 702.0Q644 712 664 712Q686 712 707.0 700.5Q728 689 744.0 673.5Q760 658 768 647V505Q768 492 762.5 482.5Q757 473 737 473H674V394H1174V329H768Q776 316 785.0 295.5Q794 275 794 255Q794 220 771.5 194.0Q749 168 692 168Q683 168 673.0 170.0Q663 172 653 175V71H1179V51H1069V-32H1179V-51H1069V-134H1179V-154ZM591 493H737Q745 493 746.5 496.5Q748 500 748 505V641Q742 650 728.5 662.0Q715 674 698.5 683.0Q682 692 664 692Q647 692 630.0 683.0Q613 674 600.0 662.0Q587 650 580 641V505Q580 493 591 493ZM221 394H252Q239 410 217.0 429.5Q195 449 171.5 464.0Q148 479 127 479Q107 479 93 465Q102 469 118 469Q133 469 154.0 455.0Q175 441 194.0 423.0Q213 405 221 394ZM99 394H195Q187 404 172.5 417.5Q158 431 142.0 441.5Q126 452 112 452Q103 452 95.5 448.0Q88 444 88 432Q88 420 92.0 410.0Q96 400 99 394ZM161 287Q195 287 219.0 301.5Q243 316 256 329H230Q223 320 208.0 310.5Q193 301 167 301Q143 301 123.0 318.0Q103 335 90.0 360.5Q77 386 71 411Q70 401 69.5 391.5Q69 382 69 374Q71 336 97.0 311.0Q123 286 161 287ZM122 348H1155V374H104Q107 369 112.5 361.5Q118 354 122 348ZM706 222Q729 220 746.0 224.5Q763 229 763 239Q763 250 750.0 266.5Q737 283 717.0 300.0Q697 317 674 329H653V245Q682 225 706 222ZM633 259V329H614V273Q619 269 623.5 265.5Q628 262 633 259ZM594 290V329H553Q561 321 571.0 311.0Q581 301 594 290ZM692 188Q740 188 760 211Q749 206 734.0 204.0Q719 202 706 203Q683 205 655.0 220.0Q627 235 600.0 256.0Q573 277 552.5 297.0Q532 317 524 329H488Q503 314 526.0 290.5Q549 267 576.5 243.5Q604 220 634.0 204.0Q664 188 692 188ZM774 263Q770 283 759.5 302.5Q749 322 745 329H710Q728 316 746.0 297.5Q764 279 774 263ZM167 321Q187 321 200 329H140Q151 321 167 321ZM614 71H633V183Q629 185 624.0 187.5Q619 190 614 193ZM849 -32H1049V51H849ZM190 -32H390V51H190ZM629 -32H830V51H629ZM410 -32H610V51H410ZM410 -134H610V-51H410ZM849 -134H1049V-51H849ZM190 -134H390V-51H190ZM629 -134H830V-51H629Z" />
  </g>
</svg>