<svg xmlns="http://www.w3.org/2000/svg" viewBox="49 -154 1130 1198">
  <g transform="translate(0, 890) scale(1, -1)">
    <path fill="black" d="M58 -154V-134H170V-51H58V-32H170V51H58V71H594V205Q560 227 530.0 254.0Q500 281 480.0 302.5Q460 324 455 329H283Q279 323 263.0 308.0Q247 293 221.0 280.5Q195 268 161 267Q126 267 104.0 279.0Q82 291 70.0 309.5Q58 328 53.5 346.5Q49 365 49 376Q49 426 67.5 462.5Q86 499 127 499Q148 499 170.5 487.0Q193 475 214.5 457.0Q236 439 252.5 422.0Q269 405 277 394H847Q848 427 850.5 455.5Q853 484 855 505Q858 535 858 551Q858 560 857.0 582.0Q856 604 848.0 631.5Q840 659 819.0 685.0Q798 711 759.5 727.5Q721 744 658 744Q630 744 580.0 739.5Q530 735 483 730Q450 727 424.0 724.5Q398 722 387 722Q359 722 337.5 741.5Q316 761 316 797Q316 809 319.0 828.5Q322 848 325 861Q316 860 304.5 858.0Q293 856 282 856Q269 856 252.0 861.5Q235 867 223.0 877.0Q211 887 211 902Q211 917 222.5 934.0Q234 951 257.0 963.0Q280 975 313 975Q348 975 367.5 965.0Q387 955 395.0 941.5Q403 928 403 918Q403 911 400.0 899.5Q397 888 394 875Q390 864 387.5 853.0Q385 842 385 836Q385 804 414 804Q417 804 439.0 807.0Q461 810 492 814Q526 819 564.5 823.5Q603 828 636.0 831.5Q669 835 686 835Q699 835 711.0 834.5Q723 834 735 833L952 1004Q972 1020 991.5 1032.0Q1011 1044 1031 1044Q1053 1044 1066.0 1032.5Q1079 1021 1079 1000Q1079 982 1067.5 967.0Q1056 952 1035 952Q1028 952 1019.5 955.5Q1011 959 1005 962Q998 950 981.0 922.5Q964 895 944.5 863.0Q925 831 908 804Q892 827 873.0 838.5Q854 850 834 851Q790 854 767 833L762 829Q826 818 864.0 792.0Q902 766 920.5 734.5Q939 703 944.5 673.5Q950 644 950 626Q950 606 946.5 571.0Q943 536 938 499Q934 468 931.0 441.0Q928 414 927 394H1174V329H930Q936 285 949.0 251.5Q962 218 969 207Q980 188 981.0 170.5Q982 153 966 153Q954 153 937.0 168.0Q920 183 901.5 208.0Q883 233 869.0 264.5Q855 296 849 329H768Q776 316 785.0 295.5Q794 275 794 255Q794 220 771.5 194.0Q749 168 692 168Q683 168 673.0 170.0Q663 172 653 175V71H1179V51H1069V-32H1179V-51H1069V-134H1179V-154ZM907 839Q916 853 932.5 880.0Q949 907 967.5 938.0Q986 969 1001 993Q1008 986 1018.0 978.5Q1028 971 1035 971Q1047 971 1053.5 980.5Q1060 990 1060 1000Q1060 1012 1052.0 1018.0Q1044 1024 1031 1024Q1015 1024 995.0 1010.5Q975 997 964 988L813 869Q818 870 823.0 870.0Q828 870 834 870Q878 870 907 839ZM866 394H907Q909 414 912.0 442.5Q915 471 918 500Q923 538 927.0 572.5Q931 607 931 626Q931 641 927.0 664.5Q923 688 909.5 714.0Q896 740 869.5 763.0Q843 786 798.5 800.5Q754 815 686 815Q670 815 637.5 811.5Q605 808 567.0 803.5Q529 799 495 794Q468 791 443.5 788.0Q419 785 414 785Q392 785 378.5 797.0Q365 809 365 836Q365 844 368.0 856.0Q371 868 375 881Q378 892 381.0 902.5Q384 913 384 918Q384 929 369.0 942.0Q354 955 313 955Q272 955 251.5 937.0Q231 919 231 902Q231 889 249.5 882.0Q268 875 282 875Q294 875 315.0 879.5Q336 884 352 888Q347 869 341.0 841.5Q335 814 335 797Q335 771 351.0 756.0Q367 741 387 741Q396 741 422.5 743.5Q449 746 481 750Q512 753 545.5 756.0Q579 759 609.0 761.0Q639 763 658 763Q727 763 769.5 744.5Q812 726 834.5 697.5Q857 669 866.0 639.0Q875 609 876.5 585.0Q878 561 878 551Q878 543 877.0 530.5Q876 518 875 503Q873 482 870.5 454.0Q868 426 866 394ZM306 910Q290 910 290 926Q290 942 306 942Q312 942 317.0 937.5Q322 933 322 926Q322 919 317.0 914.5Q312 910 306 910ZM221 394H252Q239 410 217.0 429.5Q195 449 171.5 464.0Q148 479 127 479Q107 479 93 465Q102 469 118 469Q133 469 154.0 455.0Q175 441 194.0 423.0Q213 405 221 394ZM99 394H195Q187 404 172.5 417.5Q158 431 142.0 441.5Q126 452 112 452Q103 452 95.5 448.0Q88 444 88 432Q88 420 92.0 410.0Q96 400 99 394ZM161 287Q195 287 219.0 301.5Q243 316 256 329H230Q223 320 208.0 310.5Q193 301 167 301Q143 301 123.0 318.0Q103 335 90.0 360.5Q77 386 71 411Q70 401 69.5 391.5Q69 382 69 374Q71 336 97.0 311.0Q123 286 161 287ZM122 348H1155V374H104Q107 369 112.5 361.5Q118 354 122 348ZM965 172Q965 173 960.5 181.0Q956 189 951 198Q944 210 930.5 246.0Q917 282 910 329H868Q875 290 893.0 254.0Q911 218 931.5 195.5Q952 173 965 172ZM774 263Q770 283 759.5 302.5Q749 322 745 329H710Q728 316 746.0 297.5Q764 279 774 263ZM706 222Q729 220 746.0 224.5Q763 229 763 239Q763 250 750.0 266.5Q737 283 717.0 300.0Q697 317 674 329H653V245Q682 225 706 222ZM633 259V329H614V273Q619 269 623.5 265.5Q628 262 633 259ZM594 290V329H553Q561 321 571.0 311.0Q581 301 594 290ZM692 188Q740 188 760 211Q749 206 734.0 204.0Q719 202 706 203Q683 205 655.0 220.0Q627 235 600.0 256.0Q573 277 552.5 297.0Q532 317 524 329H488Q503 314 526.0 290.5Q549 267 576.5 243.5Q604 220 634.0 204.0Q664 188 692 188ZM167 321Q187 321 200 329H140Q151 321 167 321ZM614 71H633V183Q629 185 624.0 187.5Q619 190 614 193ZM849 -32H1049V51H849ZM629 -32H830V51H629ZM410 -32H610V51H410ZM190 -32H390V51H190ZM849 -134H1049V-51H849ZM629 -134H830V-51H629ZM410 -134H610V-51H410ZM190 -134H390V-51H190Z" />
  </g>
</svg>