<svg xmlns="http://www.w3.org/2000/svg" viewBox="49 -154 1130 1200">
  <g transform="translate(0, 892) scale(1, -1)">
    <path fill="black" d="M67 486 49 495 126 619Q116 634 105.5 654.0Q95 674 95 695Q95 713 104.5 733.5Q114 754 125 766Q115 778 105.0 794.0Q95 810 95 832Q95 854 104.5 871.5Q114 889 125 899Q113 915 99.5 939.5Q86 964 86 984Q86 1010 102.5 1028.0Q119 1046 139 1046Q159 1046 175.0 1028.0Q191 1010 191 984Q191 964 177.5 939.5Q164 915 152 899Q163 889 173.0 871.5Q183 854 183 832Q183 810 173.0 793.5Q163 777 152 765Q164 753 173.5 734.0Q183 715 183 695Q183 674 172.5 653.5Q162 633 150 619Q155 610 168.0 588.5Q181 567 197.5 542.0Q214 517 228 495L210 486L139 597ZM139 914Q150 930 160.5 949.5Q171 969 171 984Q171 1002 161.5 1014.0Q152 1026 139 1026Q126 1026 116.0 1014.0Q106 1002 106 984Q106 969 116.5 949.5Q127 930 139 914ZM670 904 716 985H735L762 929L794 985H813L840 929L872 985H892L918 929L950 985H970L997 929L1028 985H1048L1075 929L1106 985H1126L1166 904H1143L1116 960L1084 904H1065L1038 960L1006 904H987L959 960L928 904H909L881 960L850 904H831L803 960L772 904H752L725 960L693 904ZM443 466 379 519 401 559Q405 566 407.0 574.0Q409 582 402 582Q395 582 391.0 572.0Q387 562 376 562Q368 562 362.5 567.0Q357 572 352 579Q349 583 345.5 587.0Q342 591 334 591L274 593L255 747H452Q404 768 358.5 792.5Q313 817 284.0 845.5Q255 874 255 906Q255 938 271.0 953.5Q287 969 309 969Q339 969 350.0 951.5Q361 934 361 918Q361 902 351.0 890.0Q341 878 326 878Q313 878 304.0 886.0Q295 894 295 906Q295 916 300.5 922.5Q306 929 315 929Q321 929 326.5 925.5Q332 922 332 915Q332 901 321 901Q319 901 317.0 902.5Q315 904 313 905Q314 903 316.5 899.5Q319 896 324 896Q332 896 336.5 903.5Q341 911 341 918Q341 928 334.5 939.0Q328 950 309 950Q295 950 284.5 939.0Q274 928 274 906Q274 883 294.0 861.5Q314 840 346.5 820.5Q379 801 417.5 783.5Q456 766 494 750L625 982L665 964ZM436 497 639 954 633 957Q614 924 589.5 880.5Q565 837 542.0 796.0Q519 755 503 727H277L292 613L338 610Q350 610 356.5 604.0Q363 598 367 591Q372 582 376 582Q381 582 386.0 591.5Q391 601 404 601Q424 601 426.0 584.0Q428 567 418 550L404 523ZM139 780Q148 792 155.5 805.0Q163 818 163 832Q163 846 155.5 860.0Q148 874 139 883Q129 874 121.5 860.0Q114 846 114 832Q114 818 121.5 805.0Q129 792 139 780ZM670 693 716 775H735L762 718L794 775H813L840 718L872 775H892L918 718L950 775H970L997 718L1028 775H1048L1075 718L1106 775H1126L1166 693H1143L1116 750L1084 693H1065L1038 750L1006 693H987L959 750L928 693H909L881 750L850 693H831L803 750L772 693H752L725 750L693 693ZM139 636Q148 650 155.5 666.0Q163 682 163 695Q163 708 156.0 723.5Q149 739 139 750Q129 739 121.5 724.0Q114 709 114 695Q114 682 121.5 666.0Q129 650 139 636ZM670 478 716 560H735L762 503L794 560H813L840 503L872 560H892L918 503L950 560H970L997 503L1028 560H1048L1075 503L1106 560H1126L1166 478H1143L1116 534L1084 478H1065L1038 534L1006 478H987L959 534L928 478H909L881 534L850 478H831L803 534L772 478H752L725 534L693 478ZM58 -154V-134H170V-51H58V-32H170V51H58V71H594V205Q560 227 530.0 254.0Q500 281 480.0 302.5Q460 324 455 329H283Q279 323 263.0 308.0Q247 293 221.0 280.5Q195 268 161 267Q126 267 104.0 279.0Q82 291 70.0 309.5Q58 328 53.5 346.5Q49 365 49 376Q49 426 67.5 462.5Q86 499 127 499Q148 499 170.5 487.0Q193 475 214.5 457.0Q236 439 252.5 422.0Q269 405 277 394H1174V329H768Q776 316 785.0 295.5Q794 275 794 255Q794 220 771.5 194.0Q749 168 692 168Q683 168 673.0 170.0Q663 172 653 175V71H1179V51H1069V-32H1179V-51H1069V-134H1179V-154ZM221 394H252Q239 410 217.0 429.5Q195 449 171.5 464.0Q148 479 127 479Q107 479 93 465Q102 469 118 469Q133 469 154.0 455.0Q175 441 194.0 423.0Q213 405 221 394ZM99 394H195Q187 404 172.5 417.5Q158 431 142.0 441.5Q126 452 112 452Q103 452 95.5 448.0Q88 444 88 432Q88 420 92.0 410.0Q96 400 99 394ZM161 287Q195 287 219.0 301.5Q243 316 256 329H230Q223 320 208.0 310.5Q193 301 167 301Q143 301 123.0 318.0Q103 335 90.0 360.5Q77 386 71 411Q70 401 69.5 391.5Q69 382 69 374Q71 336 97.0 311.0Q123 286 161 287ZM122 348H1155V374H104Q107 369 112.5 361.5Q118 354 122 348ZM167 321Q187 321 200 329H140Q151 321 167 321ZM774 263Q770 283 759.5 302.5Q749 322 745 329H710Q728 316 746.0 297.5Q764 279 774 263ZM706 222Q729 220 746.0 224.5Q763 229 763 239Q763 250 750.0 266.5Q737 283 717.0 300.0Q697 317 674 329H653V245Q682 225 706 222ZM633 259V329H614V273Q619 269 623.5 265.5Q628 262 633 259ZM594 290V329H553Q561 321 571.0 311.0Q581 301 594 290ZM692 188Q740 188 760 211Q749 206 734.0 204.0Q719 202 706 203Q683 205 655.0 220.0Q627 235 600.0 256.0Q573 277 552.5 297.0Q532 317 524 329H488Q503 314 526.0 290.5Q549 267 576.5 243.5Q604 220 634.0 204.0Q664 188 692 188ZM614 71H633V183Q629 185 624.0 187.5Q619 190 614 193ZM410 -32H610V51H410ZM849 -32H1049V51H849ZM629 -32H830V51H629ZM190 -32H390V51H190ZM849 -134H1049V-51H849ZM190 -134H390V-51H190ZM410 -134H610V-51H410ZM629 -134H830V-51H629Z" />
  </g>
</svg>