<svg xmlns="http://www.w3.org/2000/svg" viewBox="49 -154 1130 1163">
  <g transform="translate(0, 855) scale(1, -1)">
    <path fill="black" d="M547 667V959Q547 977 556.5 993.0Q566 1009 590 1009Q619 1009 633.0 984.5Q647 960 660 925Q666 907 673.5 888.5Q681 870 691 853Q714 816 749.0 789.5Q784 763 840 763Q897 763 932.0 789.5Q967 816 989 853Q999 870 1006.5 888.5Q1014 907 1021 925Q1034 960 1048.0 984.5Q1062 1009 1091 1009Q1115 1009 1124.0 993.0Q1133 977 1133 959V667ZM567 686H1114V959Q1114 970 1109.0 979.5Q1104 989 1091 989Q1072 989 1061.5 968.5Q1051 948 1040 918Q1033 902 1025.0 882.5Q1017 863 1006 843Q982 804 942.0 773.5Q902 743 840 743Q779 743 739.0 773.5Q699 804 675 843Q664 862 656.0 882.0Q648 902 641 918Q631 947 619.5 968.0Q608 989 590 989Q577 989 572.0 979.5Q567 970 567 959ZM436 464Q387 464 366.0 475.0Q345 486 325 509L293 547Q288 555 279.5 564.5Q271 574 263 574Q256 574 248 571Q241 570 231.5 568.0Q222 566 209 566Q178 566 151.5 579.0Q125 592 125 620Q125 643 145.0 658.5Q165 674 193 684L136 738Q128 746 132.5 757.0Q137 768 147 768Q156 768 163 761L234 692L305 761Q313 768 321 768Q332 768 336.0 757.0Q340 746 333 738L275 684Q300 674 317.5 659.5Q335 645 339 638L366 602Q374 592 384.0 581.5Q394 571 410 571Q428 571 454.0 579.0Q480 587 514 597Q532 603 563.0 612.0Q594 621 623 621Q659 621 693.5 609.0Q728 597 761 583Q780 575 810.5 561.5Q841 548 885.0 537.5Q929 527 986 527Q1021 527 1046.5 529.0Q1072 531 1096.5 534.5Q1121 538 1152 542Q1162 544 1166.5 535.5Q1171 527 1169.5 516.5Q1168 506 1159 501Q1119 481 1072.0 472.5Q1025 464 981 464Q938 464 897.5 469.0Q857 474 810 478Q773 483 739.0 486.0Q705 489 682 489Q651 489 619.0 485.5Q587 482 558 477Q529 473 498.0 468.5Q467 464 436 464ZM207 688 216 689 155 750Q151 754 148 754Q145 754 145 752Q145 749 150 744ZM261 688 318 744Q323 750 323 752Q323 754 320 754Q317 754 313 750L252 689ZM436 483Q466 483 496.0 487.5Q526 492 555 496Q586 501 617.0 505.0Q648 509 682 509Q706 509 740.5 505.5Q775 502 812 498Q857 493 899.0 488.0Q941 483 981 483Q1020 483 1063.0 490.0Q1106 497 1144 513Q1152 516 1151.5 520.0Q1151 524 1144 522Q1105 516 1070.0 512.0Q1035 508 986 508Q930 508 885.5 518.5Q841 529 808.5 543.0Q776 557 755 565Q726 579 691.0 590.5Q656 602 623 602Q595 602 565.5 593.5Q536 585 519 579Q485 568 458.0 560.0Q431 552 410 552Q387 552 373.5 564.5Q360 577 351 589L325 625Q321 630 309.5 641.0Q298 652 279.5 661.5Q261 671 235 671Q195 671 170.0 654.5Q145 638 145 620Q145 603 164.5 594.0Q184 585 209 585Q222 585 229.5 587.0Q237 589 244 590Q249 591 253.5 592.0Q258 593 263 593Q277 593 289.0 581.5Q301 570 308 562L339 523Q353 506 372.0 494.5Q391 483 436 483ZM228 637Q215 637 215 648Q215 662 228 662Q240 662 240 648Q240 637 228 637ZM58 -154V-134H170V-51H58V-32H170V51H58V71H594V205Q560 227 530.0 254.0Q500 281 480.0 302.5Q460 324 455 329H283Q279 323 263.0 308.0Q247 293 221.0 280.5Q195 268 161 267Q126 267 104.0 279.0Q82 291 70.0 309.5Q58 328 53.5 346.5Q49 365 49 376Q49 426 67.5 462.5Q86 499 127 499Q148 499 170.5 487.0Q193 475 214.5 457.0Q236 439 252.5 422.0Q269 405 277 394H1174V329H768Q776 316 785.0 295.5Q794 275 794 255Q794 220 771.5 194.0Q749 168 692 168Q683 168 673.0 170.0Q663 172 653 175V71H1179V51H1069V-32H1179V-51H1069V-134H1179V-154ZM221 394H252Q239 410 217.0 429.5Q195 449 171.5 464.0Q148 479 127 479Q107 479 93 465Q102 469 118 469Q133 469 154.0 455.0Q175 441 194.0 423.0Q213 405 221 394ZM99 394H195Q187 404 172.5 417.5Q158 431 142.0 441.5Q126 452 112 452Q103 452 95.5 448.0Q88 444 88 432Q88 420 92.0 410.0Q96 400 99 394ZM161 287Q195 287 219.0 301.5Q243 316 256 329H230Q223 320 208.0 310.5Q193 301 167 301Q143 301 123.0 318.0Q103 335 90.0 360.5Q77 386 71 411Q70 401 69.5 391.5Q69 382 69 374Q71 336 97.0 311.0Q123 286 161 287ZM122 348H1155V374H104Q107 369 112.5 361.5Q118 354 122 348ZM706 222Q729 220 746.0 224.5Q763 229 763 239Q763 250 750.0 266.5Q737 283 717.0 300.0Q697 317 674 329H653V245Q682 225 706 222ZM774 263Q770 283 759.5 302.5Q749 322 745 329H710Q728 316 746.0 297.5Q764 279 774 263ZM633 259V329H614V273Q619 269 623.5 265.5Q628 262 633 259ZM594 290V329H553Q561 321 571.0 311.0Q581 301 594 290ZM692 188Q740 188 760 211Q749 206 734.0 204.0Q719 202 706 203Q683 205 655.0 220.0Q627 235 600.0 256.0Q573 277 552.5 297.0Q532 317 524 329H488Q503 314 526.0 290.5Q549 267 576.5 243.5Q604 220 634.0 204.0Q664 188 692 188ZM167 321Q187 321 200 329H140Q151 321 167 321ZM614 71H633V183Q629 185 624.0 187.5Q619 190 614 193ZM410 -32H610V51H410ZM190 -32H390V51H190ZM629 -32H830V51H629ZM849 -32H1049V51H849ZM410 -134H610V-51H410ZM629 -134H830V-51H629ZM190 -134H390V-51H190ZM849 -134H1049V-51H849Z" />
  </g>
</svg>