<svg xmlns="http://www.w3.org/2000/svg" viewBox="49 -154 1130 1177">
  <g transform="translate(0, 869) scale(1, -1)">
    <path fill="black" d="M661 436V750Q661 776 671.5 803.0Q682 830 712.5 853.0Q743 876 802 888V1023H1027V888Q1087 876 1117.0 853.0Q1147 830 1157.5 803.0Q1168 776 1168 750V436H1149V750Q1149 772 1140.0 795.0Q1131 818 1105.0 837.5Q1079 857 1027 867V436H1008V1004H924V436H905V1004H821V436H802V867Q751 857 724.5 837.5Q698 818 689.0 795.0Q680 772 680 750V436ZM324 470 323 503Q322 503 320.5 502.5Q319 502 317 502Q301 500 284.0 497.5Q267 495 250 495Q223 495 209.0 501.0Q195 507 184 520L167 542Q164 545 159.0 550.5Q154 556 150 556Q148 556 145.5 555.5Q143 555 141 555Q137 554 132.0 552.5Q127 551 120 551Q98 551 84.0 562.5Q70 574 70 590Q70 612 85.5 622.5Q101 633 109 634L83 659Q78 664 82.5 672.5Q87 681 97 681Q105 681 109.0 677.0Q113 673 114 671L138 645L163 671Q165 673 168.5 677.0Q172 681 179 681Q190 681 194.5 672.5Q199 664 193 659L167 634Q178 630 189.0 621.5Q200 613 203 608L218 589Q223 583 228.0 577.5Q233 572 242 572Q252 572 263.5 576.0Q275 580 293 586L301 589L245 646L285 830Q295 872 304.5 909.5Q314 947 327.5 970.0Q341 993 361 993Q382 993 395.5 970.0Q409 947 419.0 909.5Q429 872 438 830Q450 775 460.0 729.5Q470 684 478 646L416 583L423 581Q438 574 464.5 560.5Q491 547 538 547Q567 547 589.0 548.5Q611 550 636 553Q643 554 645.5 548.5Q648 543 649 535Q649 520 642 516Q620 504 589.5 499.5Q559 495 535 495Q511 495 493.5 498.0Q476 501 450 503Q435 505 423.0 506.0Q411 507 400 508L399 470ZM396 591 457 652Q449 690 439.5 730.5Q430 771 418 826Q410 863 401.5 896.5Q393 930 383.0 951.5Q373 973 361 973Q350 973 340.0 950.5Q330 928 321.5 894.5Q313 861 305 826L266 652L322 595Q330 597 338.0 598.5Q346 600 353 600Q366 600 376.0 597.5Q386 595 396 591ZM147 637H153L182 665Q184 667 184.0 668.5Q184 670 182 670Q181 670 179 668ZM123 637H129L98 668Q97 669 96.5 669.5Q96 670 94 670Q93 670 93.0 668.5Q93 667 95 665ZM250 515Q267 515 283.0 517.0Q299 519 315 521Q332 524 349.5 526.5Q367 529 386 529Q399 529 414.5 527.0Q430 525 451 522Q476 520 494.0 517.5Q512 515 535 515Q556 515 579.5 518.5Q603 522 625 531Q629 533 629.0 535.5Q629 538 625 536Q603 532 584.0 530.0Q565 528 538 528Q492 528 464.5 540.5Q437 553 420 560Q404 567 387.5 573.5Q371 580 353 580Q338 580 322.0 575.5Q306 571 296 567Q277 561 262.0 556.5Q247 552 235 552Q223 552 216.0 559.0Q209 566 204 573L189 593Q186 598 173.0 608.0Q160 618 140 618Q118 618 103.5 609.5Q89 601 89 590Q89 581 100.0 576.0Q111 571 125 571Q132 571 136.5 571.5Q141 572 144 573Q147 574 149.5 575.0Q152 576 155 576Q163 576 169.5 569.5Q176 563 180 558L197 537Q205 527 215.0 521.0Q225 515 250 515ZM137 592Q126 592 126 603Q126 614 137 614Q148 614 148 603Q148 592 137 592ZM343 489H379L380 509Q370 508 361.0 507.5Q352 507 343 506ZM58 -154V-134H170V-51H58V-32H170V51H58V71H594V205Q560 227 530.0 254.0Q500 281 480.0 302.5Q460 324 455 329H283Q279 323 263.0 308.0Q247 293 221.0 280.5Q195 268 161 267Q126 267 104.0 279.0Q82 291 70.0 309.5Q58 328 53.5 346.5Q49 365 49 376Q49 426 67.5 462.5Q86 499 127 499Q148 499 170.5 487.0Q193 475 214.5 457.0Q236 439 252.5 422.0Q269 405 277 394H1174V329H768Q776 316 785.0 295.5Q794 275 794 255Q794 220 771.5 194.0Q749 168 692 168Q683 168 673.0 170.0Q663 172 653 175V71H1179V51H1069V-32H1179V-51H1069V-134H1179V-154ZM221 394H252Q239 410 217.0 429.5Q195 449 171.5 464.0Q148 479 127 479Q107 479 93 465Q102 469 118 469Q133 469 154.0 455.0Q175 441 194.0 423.0Q213 405 221 394ZM99 394H195Q187 404 172.5 417.5Q158 431 142.0 441.5Q126 452 112 452Q103 452 95.5 448.0Q88 444 88 432Q88 420 92.0 410.0Q96 400 99 394ZM161 287Q195 287 219.0 301.5Q243 316 256 329H230Q223 320 208.0 310.5Q193 301 167 301Q143 301 123.0 318.0Q103 335 90.0 360.5Q77 386 71 411Q70 401 69.5 391.5Q69 382 69 374Q71 336 97.0 311.0Q123 286 161 287ZM122 348H1155V374H104Q107 369 112.5 361.5Q118 354 122 348ZM594 290V329H553Q561 321 571.0 311.0Q581 301 594 290ZM167 321Q187 321 200 329H140Q151 321 167 321ZM774 263Q770 283 759.5 302.5Q749 322 745 329H710Q728 316 746.0 297.5Q764 279 774 263ZM706 222Q729 220 746.0 224.5Q763 229 763 239Q763 250 750.0 266.5Q737 283 717.0 300.0Q697 317 674 329H653V245Q682 225 706 222ZM692 188Q740 188 760 211Q749 206 734.0 204.0Q719 202 706 203Q683 205 655.0 220.0Q627 235 600.0 256.0Q573 277 552.5 297.0Q532 317 524 329H488Q503 314 526.0 290.5Q549 267 576.5 243.5Q604 220 634.0 204.0Q664 188 692 188ZM633 259V329H614V273Q619 269 623.5 265.5Q628 262 633 259ZM614 71H633V183Q629 185 624.0 187.5Q619 190 614 193ZM629 -32H830V51H629ZM849 -32H1049V51H849ZM410 -32H610V51H410ZM190 -32H390V51H190ZM629 -134H830V-51H629ZM849 -134H1049V-51H849ZM410 -134H610V-51H410ZM190 -134H390V-51H190Z" />
  </g>
</svg>