<svg xmlns="http://www.w3.org/2000/svg" viewBox="49 -154 1138 1192">
  <g transform="translate(0, 884) scale(1, -1)">
    <path fill="black" d="M700 666Q702 676 706.0 693.0Q710 710 722.0 723.5Q734 737 758 737Q778 737 788.5 734.0Q799 731 808 728Q815 725 823.0 723.0Q831 721 844 721H873Q829 766 799.5 815.5Q770 865 770 917Q770 960 786.0 986.0Q802 1012 829 1012Q854 1012 881.0 988.0Q908 964 929 941L950 919L974 899Q992 884 1012.0 862.0Q1032 840 1046.5 815.5Q1061 791 1061 765Q1061 758 1061.0 750.5Q1061 743 1059 738Q1057 731 1057.5 726.5Q1058 722 1069 726Q1097 737 1115.0 764.5Q1133 792 1133 835Q1133 861 1122.5 885.5Q1112 910 1098.5 932.5Q1085 955 1074.5 973.5Q1064 992 1064 1004Q1064 1016 1072.5 1027.0Q1081 1038 1098 1038Q1113 1038 1128.5 1021.0Q1144 1004 1157.5 976.0Q1171 948 1179.0 914.0Q1187 880 1187 847Q1187 770 1151.5 720.5Q1116 671 1045 669Q1018 667 1000 678Q1003 667 989.5 666.5Q976 666 966 666ZM723 686H981Q966 698 952.0 712.5Q938 727 930 737L946 750Q957 737 974.0 720.5Q991 704 1007 695Q1023 685 1047 687Q1108 689 1138.0 734.5Q1168 780 1168 847Q1168 887 1156.5 926.5Q1145 966 1128.5 992.5Q1112 1019 1098 1019Q1091 1019 1087.5 1013.5Q1084 1008 1084 1002Q1084 994 1094.5 977.0Q1105 960 1118.0 937.0Q1131 914 1141.5 887.5Q1152 861 1152 835Q1152 783 1125.5 747.0Q1099 711 1064 706Q1048 703 1040.0 707.5Q1032 712 1036 725Q1038 732 1040.0 741.0Q1042 750 1042 765Q1042 788 1029.0 810.0Q1016 832 997.5 851.0Q979 870 961 884Q954 890 947.0 895.5Q940 901 935 905L914 928Q895 949 871.5 971.0Q848 993 829 993Q811 993 800.0 972.0Q789 951 789 917Q789 865 827.0 810.0Q865 755 920 702H844Q828 702 818.5 704.0Q809 706 801 709Q794 712 784.0 714.5Q774 717 758 717Q739 717 732.0 706.5Q725 696 723 686ZM396 470V503Q395 503 393.5 502.5Q392 502 390 502Q374 500 357.0 497.5Q340 495 323 495Q296 495 282.0 501.0Q268 507 257 520L239 542Q236 545 231.5 550.5Q227 556 223 556Q217 556 210.5 553.5Q204 551 193 551Q171 551 157.0 562.5Q143 574 143 590Q143 612 158.0 622.5Q173 633 182 634L156 659Q150 664 154.5 672.5Q159 681 170 681Q178 681 181.5 677.0Q185 673 187 671L211 645L235 671Q237 673 241.0 677.0Q245 681 252 681Q263 681 267.0 672.5Q271 664 266 659L240 634Q251 630 262.0 621.5Q273 613 276 608L291 589Q296 583 301.0 577.5Q306 572 314 572Q325 572 336.0 576.0Q347 580 366 586L374 589L317 646L358 830Q367 872 377.0 909.5Q387 947 400.5 970.0Q414 993 434 993Q455 993 468.5 970.0Q482 947 491.5 909.5Q501 872 510 830Q522 775 532.5 729.5Q543 684 551 646L488 583L496 581Q511 574 537.0 560.5Q563 547 610 547Q639 547 661.0 548.5Q683 550 709 553Q715 554 718.0 548.5Q721 543 722 535Q722 529 720.0 523.5Q718 518 714 516Q692 504 662.0 499.5Q632 495 607 495Q584 495 566.0 498.0Q548 501 522 503Q507 505 495.0 506.0Q483 507 473 508L472 470ZM469 591 529 652Q522 690 512.0 730.5Q502 771 491 826Q483 863 474.5 896.5Q466 930 456.0 951.5Q446 973 434 973Q423 973 413.0 950.5Q403 928 394.0 894.5Q385 861 377 826L339 652L395 595Q412 600 426 600Q438 600 448.5 597.5Q459 595 469 591ZM220 637H226L254 665Q256 667 256.5 668.5Q257 670 255 670Q253 670 251 668ZM196 637H202L170 668Q168 670 167 670Q166 670 166.0 668.5Q166 667 167 665ZM323 515Q340 515 356.0 517.0Q372 519 388 521Q405 524 422.5 526.5Q440 529 458 529Q472 529 487.5 527.0Q503 525 523 522Q549 520 567.0 517.5Q585 515 607 515Q629 515 652.5 518.5Q676 522 697 531Q702 533 702.0 535.5Q702 538 697 536Q675 532 656.0 530.0Q637 528 610 528Q564 528 537.0 540.5Q510 553 493 560Q477 567 460.5 573.5Q444 580 426 580Q411 580 395.5 575.5Q380 571 369 567Q350 560 335.0 556.0Q320 552 308 552Q296 552 288.5 559.0Q281 566 276 573L262 593Q258 598 245.5 608.0Q233 618 212 618Q190 618 176.0 609.5Q162 601 162 590Q162 581 173.0 576.0Q184 571 198 571Q205 571 209.0 571.5Q213 572 217 573Q220 574 222.5 575.0Q225 576 228 576Q236 576 242.0 569.5Q248 563 252 558L270 537Q278 527 288.0 521.0Q298 515 323 515ZM210 592Q199 592 199 603Q199 614 210 614Q221 614 221 603Q221 592 210 592ZM795 452Q798 493 817.5 529.0Q837 565 870.0 587.0Q903 609 947 609Q991 609 1024.0 587.0Q1057 565 1077.0 529.0Q1097 493 1100 452ZM817 471H1077Q1067 519 1034.5 554.0Q1002 589 947 589Q893 589 860.0 554.0Q827 519 817 471ZM416 489H452L453 509Q443 508 434.0 507.5Q425 507 416 506ZM58 -154V-134H170V-51H58V-32H170V51H58V71H594V205Q560 227 530.0 254.0Q500 281 480.0 302.5Q460 324 455 329H283Q279 323 263.0 308.0Q247 293 221.0 280.5Q195 268 161 267Q126 267 104.0 279.0Q82 291 70.0 309.5Q58 328 53.5 346.5Q49 365 49 376Q49 426 67.5 462.5Q86 499 127 499Q148 499 170.5 487.0Q193 475 214.5 457.0Q236 439 252.5 422.0Q269 405 277 394H1174V329H768Q776 316 785.0 295.5Q794 275 794 255Q794 220 771.5 194.0Q749 168 692 168Q683 168 673.0 170.0Q663 172 653 175V71H1179V51H1069V-32H1179V-51H1069V-134H1179V-154ZM221 394H252Q239 410 217.0 429.5Q195 449 171.5 464.0Q148 479 127 479Q107 479 93 465Q102 469 118 469Q133 469 154.0 455.0Q175 441 194.0 423.0Q213 405 221 394ZM99 394H195Q187 404 172.5 417.5Q158 431 142.0 441.5Q126 452 112 452Q103 452 95.5 448.0Q88 444 88 432Q88 420 92.0 410.0Q96 400 99 394ZM161 287Q195 287 219.0 301.5Q243 316 256 329H230Q223 320 208.0 310.5Q193 301 167 301Q143 301 123.0 318.0Q103 335 90.0 360.5Q77 386 71 411Q70 401 69.5 391.5Q69 382 69 374Q71 336 97.0 311.0Q123 286 161 287ZM122 348H1155V374H104Q107 369 112.5 361.5Q118 354 122 348ZM706 222Q729 220 746.0 224.5Q763 229 763 239Q763 250 750.0 266.5Q737 283 717.0 300.0Q697 317 674 329H653V245Q682 225 706 222ZM167 321Q187 321 200 329H140Q151 321 167 321ZM692 188Q740 188 760 211Q749 206 734.0 204.0Q719 202 706 203Q683 205 655.0 220.0Q627 235 600.0 256.0Q573 277 552.5 297.0Q532 317 524 329H488Q503 314 526.0 290.5Q549 267 576.5 243.5Q604 220 634.0 204.0Q664 188 692 188ZM594 290V329H553Q561 321 571.0 311.0Q581 301 594 290ZM710 329Q728 316 746.0 297.5Q764 279 774 263Q770 283 759.5 302.5Q749 322 745 329ZM633 259V329H614V273Q619 269 623.5 265.5Q628 262 633 259ZM614 71H633V183Q629 185 624.0 187.5Q619 190 614 193ZM629 -32H830V51H629ZM410 -32H610V51H410ZM190 -32H390V51H190ZM849 -32H1049V51H849ZM629 -134H830V-51H629ZM849 -134H1049V-51H849ZM410 -134H610V-51H410ZM190 -134H390V-51H190Z" />
  </g>
</svg>