<svg xmlns="http://www.w3.org/2000/svg" viewBox="49 -154 1130 1013">
  <g transform="translate(0, 705) scale(1, -1)">
    <path fill="black" d="M58 -154V-134H170V-51H58V-32H170V51H58V71H594V205Q560 227 530.0 254.0Q500 281 480.0 302.5Q460 324 455 329H283Q279 323 263.0 308.0Q247 293 221.0 280.5Q195 268 161 267Q126 267 104.0 279.0Q82 291 70.0 309.5Q58 328 53.5 346.5Q49 365 49 376V394H193Q174 395 168 401Q160 411 160 424Q160 439 169 445Q179 450 192.5 453.5Q206 457 225 458Q247 458 274.5 458.5Q302 459 327.0 460.0Q352 461 365 462Q400 465 416 472Q411 488 401.0 506.5Q391 525 379.0 538.0Q367 551 355 551Q347 551 339.0 548.5Q331 546 324 543Q319 542 313.5 540.5Q308 539 303 539Q296 539 283.5 547.0Q271 555 260.5 567.0Q250 579 250 589Q250 618 266.0 642.0Q282 666 305.0 685.0Q328 704 350.0 717.0Q372 730 384 736Q396 754 423.5 780.5Q451 807 497.5 827.5Q544 848 613 848Q639 848 658.5 847.5Q678 847 691 846H716Q725 846 741.5 849.0Q758 852 772 855Q781 857 787.5 858.0Q794 859 798 859Q808 859 815.5 855.0Q823 851 823 840Q823 834 801 820Q821 820 821 802Q821 795 804.0 776.0Q787 757 756 741Q725 725 689.0 715.5Q653 706 615 704Q581 703 548.5 697.0Q516 691 487 683L488 682Q490 679 492.0 675.5Q494 672 495 668Q502 655 512.0 638.5Q522 622 539.0 610.0Q556 598 583 598Q615 598 657.0 607.5Q699 617 742 629Q788 641 832.0 651.0Q876 661 910 661Q956 661 987.0 638.5Q1018 616 1036.0 586.0Q1054 556 1061 533Q1064 523 1066.5 512.0Q1069 501 1071 493Q1076 465 1079 465Q1087 466 1097 481Q1100 489 1107.0 498.5Q1114 508 1125 508Q1139 508 1145.5 493.0Q1152 478 1152 464Q1152 434 1133.0 415.5Q1114 397 1083 394H1174V329H768Q776 316 785.0 295.5Q794 275 794 255Q794 220 771.5 194.0Q749 168 692 168Q683 168 673.0 170.0Q663 172 653 175V71H1179V51H1069V-32H1179V-51H1069V-134H1179V-154ZM220 412H469Q527 412 539 427Q541 431 541 437Q541 445 538.5 455.0Q536 465 532 474L549 481Q556 465 559 450Q564 444 583.0 429.5Q602 415 636 415Q663 415 689.5 428.5Q716 442 740 456L764 470Q784 481 808.5 493.5Q833 506 864 515Q860 524 857.0 533.0Q854 542 854 551Q854 565 857.5 575.5Q861 586 864 591L881 582Q879 578 876.5 570.0Q874 562 874 551Q874 526 896.0 503.0Q918 480 940 461L967 436H774Q743 436 743 420Q743 415 749.5 413.5Q756 412 763 412H986Q1002 412 1010.5 415.5Q1019 419 1019 430Q1019 438 1009.5 451.5Q1000 465 986.5 481.0Q973 497 960 509L974 522Q988 508 1003.0 490.5Q1018 473 1028.5 456.5Q1039 440 1039 430Q1039 427 1038.5 424.0Q1038 421 1038 419Q1043 417 1050.0 414.5Q1057 412 1067 412Q1096 412 1114.0 425.5Q1132 439 1132 464Q1132 472 1130.5 480.5Q1129 489 1125 489Q1123 489 1119.0 482.5Q1115 476 1113 471Q1100 447 1080 446Q1066 445 1060.5 457.5Q1055 470 1051 489Q1050 497 1048.0 507.0Q1046 517 1042 527Q1036 548 1019.5 575.0Q1003 602 976.0 622.0Q949 642 910 642Q877 642 834.0 631.5Q791 621 747 610Q703 599 659.0 589.0Q615 579 583 579Q550 579 529.5 592.5Q509 606 497.5 625.0Q486 644 478 659Q472 671 464.0 682.5Q456 694 446 702Q439 707 431.5 712.5Q424 718 416 722Q431 734 455.0 748.5Q479 763 507.0 775.0Q535 787 560 792Q580 796 606.5 799.5Q633 803 659.5 806.0Q686 809 705 811L735 814Q749 817 765.0 822.0Q781 827 792.5 832.5Q804 838 804 840H798Q796 840 776 835Q762 833 744.5 829.5Q727 826 716 826Q711 826 704.5 826.0Q698 826 690 827Q677 827 657.0 827.5Q637 828 613 828Q561 828 523.0 816.0Q485 804 459.5 786.0Q434 768 418.5 750.0Q403 732 396 721Q386 715 365.0 703.0Q344 691 322.0 673.5Q300 656 284.5 634.5Q269 613 269 589Q269 579 283 568L315 597L328 583L301 558H303Q307 558 317 562Q325 564 334.5 567.0Q344 570 355 570Q370 570 385.5 555.5Q401 541 414.5 519.5Q428 498 436 478Q441 480 446.0 482.5Q451 485 456 488L466 472Q445 459 419.0 451.5Q393 444 367 442Q353 441 328.0 440.0Q303 439 275.5 438.5Q248 438 225 438Q191 437 180 429Q180 428 179.5 427.0Q179 426 179 424Q179 417 180 417Q182 415 190.0 413.5Q198 412 220 412ZM476 700Q508 709 542.5 715.5Q577 722 614 723Q649 725 683.0 734.5Q717 744 747 759Q773 771 787.0 784.0Q801 797 801 801Q798 801 797 800Q794 800 782.5 796.0Q771 792 760 788Q753 785 746.5 783.0Q740 781 735 779Q726 776 704.5 770.0Q683 764 658.0 758.0Q633 752 612 747Q600 745 589.5 743.5Q579 742 568 740Q546 736 520.0 730.5Q494 725 465 712Q468 709 470.5 706.5Q473 704 476 700ZM468 735Q495 746 519.5 751.0Q544 756 565 759Q576 761 586.0 763.0Q596 765 608 767Q634 772 663.5 779.5Q693 787 712 792H707Q678 789 636.0 784.0Q594 779 563 773Q538 768 513.0 757.0Q488 746 468 735ZM351 633Q341 633 335.0 639.0Q329 645 329 650Q329 662 340.5 666.0Q352 670 363 670Q381 670 393 664V653Q387 655 382 655Q381 651 374.5 642.0Q368 633 351 633ZM776 455H917Q906 465 895.0 475.5Q884 486 875 499Q843 490 819.5 478.0Q796 466 776 455ZM495 394H750Q740 396 732.0 401.5Q724 407 724 420V423Q704 412 681.5 403.5Q659 395 636 395Q609 395 589.5 404.0Q570 413 558 423Q553 409 535.0 402.5Q517 396 495 394ZM1007 394H1051Q1038 395 1028 402Q1022 396 1007 394ZM118 348H1155V374H101Q106 360 118 348ZM161 287Q200 287 221.5 301.5Q243 316 256 329H230Q223 320 208.0 310.5Q193 301 167 301Q139 301 116.0 321.5Q93 342 80 374H69Q73 340 98.0 313.5Q123 287 161 287ZM706 222Q729 220 746.0 224.5Q763 229 763 239Q763 250 750.0 266.5Q737 283 717.0 300.0Q697 317 674 329H653V245Q682 225 706 222ZM633 259V329H614V273Q619 269 623.5 265.5Q628 262 633 259ZM594 290V329H553Q561 321 571.0 311.0Q581 301 594 290ZM774 263Q770 283 759.5 302.5Q749 322 745 329H710Q728 316 746.0 297.5Q764 279 774 263ZM692 188Q740 188 760 211Q749 206 734.0 204.0Q719 202 706 203Q683 205 655.0 220.0Q627 235 600.0 256.0Q573 277 552.5 297.0Q532 317 524 329H488Q503 314 526.0 290.5Q549 267 576.5 243.5Q604 220 634.0 204.0Q664 188 692 188ZM167 321Q187 321 200 329H140Q151 321 167 321ZM614 71H633V183Q629 185 624.0 187.5Q619 190 614 193ZM410 -32H610V51H410ZM629 -32H830V51H629ZM190 -32H390V51H190ZM849 -32H1049V51H849ZM629 -134H830V-51H629ZM410 -134H610V-51H410ZM190 -134H390V-51H190ZM849 -134H1049V-51H849Z" />
  </g>
</svg>