<svg xmlns="http://www.w3.org/2000/svg" viewBox="49 -154 1130 1216">
  <g transform="translate(0, 908) scale(1, -1)">
    <path fill="black" d="M58 -154V-134H170V-51H58V-32H170V51H58V71H594V205Q560 227 530.0 254.0Q500 281 480.0 302.5Q460 324 455 329H283Q279 323 263.0 308.0Q247 293 221.0 280.5Q195 268 161 267Q126 267 104.0 279.0Q82 291 70.0 309.5Q58 328 53.5 346.5Q49 365 49 376Q49 426 67.5 462.5Q86 499 127 499Q148 499 170.5 487.0Q193 475 214.5 457.0Q236 439 252.5 422.0Q269 405 277 394H465Q471 405 478.5 421.5Q486 438 490 450Q493 458 496.0 481.5Q499 505 502.0 534.5Q505 564 507 589Q500 597 485.5 613.5Q471 630 462 642Q455 653 441.5 676.0Q428 699 417 716Q403 707 387.5 698.0Q372 689 353 689Q341 689 330.5 694.5Q320 700 320 713Q320 722 325.5 734.5Q331 747 343 760L417 841Q425 912 463.5 973.0Q502 1034 563 1062Q565 1061 577.5 1049.0Q590 1037 601 1026Q560 993 537.5 962.5Q515 932 505.5 906.0Q496 880 491 857Q502 867 516.0 874.0Q530 881 538 881Q553 881 553 869Q553 860 538.5 843.0Q524 826 495 811Q500 789 512.0 766.5Q524 744 540 735Q556 726 584.5 720.0Q613 714 645.0 710.5Q677 707 703 707Q720 707 736.5 707.5Q753 708 769 709Q802 712 830 712Q857 711 880.5 707.0Q904 703 917 687Q941 676 959.5 652.0Q978 628 978 604Q978 573 960 573Q950 573 946.5 580.0Q943 587 940 594Q938 599 933.5 605.0Q929 611 925 614Q924 610 923.0 606.5Q922 603 920 598L965 498L955 428L959 394H1174V329H768Q776 316 785.0 295.5Q794 275 794 255Q794 220 771.5 194.0Q749 168 692 168Q683 168 673.0 170.0Q663 172 653 175V71H1179V51H1069V-32H1179V-51H1069V-134H1179V-154ZM485 394H517L521 438Q523 451 529.5 474.5Q536 498 542.0 524.5Q548 551 550 573H574Q567 590 560.5 606.5Q554 623 545 639L559 648Q583 607 600 546Q606 525 612.0 497.5Q618 470 622.5 447.5Q627 425 627 419Q627 416 623.5 408.5Q620 401 616 394H641V400Q641 438 636.0 476.5Q631 515 626 552Q624 574 623.5 581.0Q623 588 623 593Q623 623 633 660L651 655Q647 638 645.0 622.5Q643 607 643 593Q643 588 643.0 583.0Q643 578 644 572H662Q685 572 712.0 575.0Q739 578 764.5 581.5Q790 585 806 588Q808 603 811.0 618.5Q814 634 819 647L837 641Q833 629 831.0 616.5Q829 604 827 592Q825 565 822.0 533.0Q819 501 816.5 476.0Q814 451 811 442Q808 432 801.0 417.5Q794 403 787 394H810Q812 403 813.5 415.5Q815 428 816 437Q823 453 833.5 474.5Q844 496 851 507Q858 517 872.0 541.0Q886 565 898.0 594.0Q910 623 910 646Q910 678 885.5 685.0Q861 692 829 692Q816 693 801.0 692.0Q786 691 770 690Q737 687 703 687Q676 687 642.0 690.5Q608 694 578.0 701.0Q548 708 530 718Q511 729 498.0 753.0Q485 777 478.0 803.5Q471 830 471 848Q471 884 496 931Q505 950 527.0 976.5Q549 1003 577 1025L571 1031Q516 992 490.0 940.0Q464 888 458 834L445 835Q455 911 483.0 956.5Q511 1002 562 1040L556 1045Q533 1029 514.0 1012.0Q495 995 479.5 971.0Q464 947 449 908Q442 888 438.5 867.0Q435 846 435 834Q420 817 403.0 798.0Q386 779 373.5 764.5Q361 750 358 747Q369 743 376.0 735.0Q383 727 385 719Q396 724 406.0 731.0Q416 738 423 743Q437 720 454.5 691.5Q472 663 479 652Q489 637 503.0 621.0Q517 605 526 596Q524 569 521.0 537.0Q518 505 515.0 479.0Q512 453 509 444Q506 436 498.5 420.5Q491 405 485 394ZM493 828Q501 833 512.0 842.5Q523 852 528 856Q532 860 531.0 862.5Q530 865 526 863Q520 861 509.0 853.0Q498 845 492 839ZM422 777Q415 777 410.5 781.5Q406 786 406 790Q406 798 414.0 800.5Q422 803 430 803Q436 804 442.0 802.5Q448 801 451 799V792Q450 792 447.5 792.5Q445 793 443 793Q442 790 438.0 783.5Q434 777 422 777ZM348 706Q353 706 357.5 708.0Q362 710 364 711Q363 717 358.0 723.0Q353 729 348 729Q344 728 341.5 717.0Q339 706 348 706ZM959 594Q961 594 961 600Q961 617 950.0 633.5Q939 650 924 659Q927 650 925 638Q933 632 940.5 623.0Q948 614 952 606Q955 602 956.5 598.0Q958 594 959 594ZM916 394H940L936 428L945 495L909 571Q906 564 903.0 557.5Q900 551 896 545L930 492L926 430ZM661 394H763Q768 401 778.0 418.5Q788 436 792 448Q794 454 796.0 471.0Q798 488 800.0 508.5Q802 529 803.5 545.5Q805 562 805 566V567Q790 565 765.0 561.0Q740 557 712.5 554.5Q685 552 662 552Q658 552 654.0 552.0Q650 552 646 553Q646 553 646.5 549.5Q647 546 648.0 532.5Q649 519 652.0 488.0Q655 457 661 400ZM536 394H596Q601 400 604.5 407.5Q608 415 608 419Q608 430 604.0 453.0Q600 476 593.5 503.5Q587 531 581 554H565Q565 550 561.0 532.0Q557 514 551.5 492.0Q546 470 542.0 453.5Q538 437 538 435ZM830 394H895L905 430L909 488L885 524Q873 504 868 496Q861 486 853.0 470.5Q845 455 840.0 443.5Q835 432 835 433ZM221 394H252Q239 410 217.0 429.5Q195 449 171.5 464.0Q148 479 127 479Q107 479 93 465Q102 469 118 469Q133 469 154.0 455.0Q175 441 194.0 423.0Q213 405 221 394ZM99 394H195Q187 404 172.5 417.5Q158 431 142.0 441.5Q126 452 112 452Q103 452 95.5 448.0Q88 444 88 432Q88 420 92.0 410.0Q96 400 99 394ZM161 287Q195 287 219.0 301.5Q243 316 256 329H230Q223 320 208.0 310.5Q193 301 167 301Q143 301 123.0 318.0Q103 335 90.0 360.5Q77 386 71 411Q70 401 69.5 391.5Q69 382 69 374Q71 336 97.0 311.0Q123 286 161 287ZM122 348H1155V374H104Q107 369 112.5 361.5Q118 354 122 348ZM706 222Q729 220 746.0 224.5Q763 229 763 239Q763 250 750.0 266.5Q737 283 717.0 300.0Q697 317 674 329H653V245Q682 225 706 222ZM774 263Q770 283 759.5 302.5Q749 322 745 329H710Q728 316 746.0 297.5Q764 279 774 263ZM633 259V329H614V273Q619 269 623.5 265.5Q628 262 633 259ZM594 290V329H553Q561 321 571.0 311.0Q581 301 594 290ZM692 188Q740 188 760 211Q749 206 734.0 204.0Q719 202 706 203Q683 205 655.0 220.0Q627 235 600.0 256.0Q573 277 552.5 297.0Q532 317 524 329H488Q503 314 526.0 290.5Q549 267 576.5 243.5Q604 220 634.0 204.0Q664 188 692 188ZM167 321Q187 321 200 329H140Q151 321 167 321ZM614 71H633V183Q629 185 624.0 187.5Q619 190 614 193ZM410 -32H610V51H410ZM190 -32H390V51H190ZM849 -32H1049V51H849ZM629 -32H830V51H629ZM410 -134H610V-51H410ZM190 -134H390V-51H190ZM849 -134H1049V-51H849ZM629 -134H830V-51H629Z" />
  </g>
</svg>