<svg xmlns="http://www.w3.org/2000/svg" viewBox="49 -154 1127 1173">
  <g transform="translate(0, 865) scale(1, -1)">
    <path fill="black" d="M49 -154V-134H162V-51H49V-32H162V51H49V71H585V205Q551 227 521.0 254.0Q491 281 471.0 302.5Q451 324 446 329H49V394H58V425Q65 436 80.5 446.5Q96 457 117 457Q128 457 141.0 453.0Q154 449 161 445Q172 446 206.0 450.5Q240 455 282.5 460.5Q325 466 361 470L358 496Q350 502 328.5 521.0Q307 540 293 566Q287 578 277.5 608.0Q268 638 258.5 675.0Q249 712 241 743Q209 751 176.5 760.0Q144 769 111 777Q89 783 74.5 794.5Q60 806 60 820V846L143 849Q153 862 170.0 874.5Q187 887 204.5 896.0Q222 905 233 906Q241 929 244.0 958.5Q247 988 247 1019H268Q275 1009 283.5 991.0Q292 973 296 956Q302 986 302 1019H324Q332 1005 340.5 981.0Q349 957 349 936Q349 907 333 877Q347 859 359.0 836.5Q371 814 381 794Q383 789 386.5 781.0Q390 773 392 766Q403 738 414.5 711.0Q426 684 441 679Q465 671 492.5 669.5Q520 668 543 668Q565 668 597.0 673.5Q629 679 654 684Q694 691 728.0 696.5Q762 702 796 702Q857 702 907.0 675.0Q957 648 996.0 605.5Q1035 563 1063.0 517.0Q1091 471 1108.5 431.5Q1126 392 1133 371Q1154 313 1165.0 255.0Q1176 197 1176 150Q1176 143 1174.5 131.0Q1173 119 1171 109Q1117 135 1089.0 186.5Q1061 238 1035 312Q1025 339 1015.0 374.5Q1005 410 995.0 447.0Q985 484 973.5 515.0Q962 546 949 563H946L984 439Q986 434 987.0 429.5Q988 425 988 420Q988 414 986.5 407.0Q985 400 980 394H1006V329H759Q767 316 776.0 295.5Q785 275 785 255Q785 220 762.5 194.0Q740 168 684 168Q674 168 664.0 170.0Q654 172 644 175V71H1170V51H1060V-32H1170V-51H1060V-134H1170V-154ZM252 907H279Q279 912 279.5 917.0Q280 922 280 929Q280 943 274.5 960.5Q269 978 264 988Q263 966 260.5 945.5Q258 925 252 907ZM1156 138V150Q1156 196 1145.5 250.5Q1135 305 1113 365Q1107 382 1091.0 419.0Q1075 456 1049.0 501.0Q1023 546 986.0 587.0Q949 628 902.0 655.0Q855 682 796 682Q767 682 732.0 676.5Q697 671 658 664Q633 659 600.0 653.5Q567 648 543 648Q520 648 491.0 650.0Q462 652 436 660Q414 668 398.5 698.5Q383 729 372 760Q369 767 366.5 773.5Q364 780 361 787Q353 807 342.5 826.0Q332 845 321 861Q319 859 317.5 856.5Q316 854 314 852L302 866Q314 880 322.0 898.5Q330 917 330 936Q330 947 326.5 961.0Q323 975 319 984Q318 964 314.0 944.0Q310 924 303 907Q296 887 291.5 879.0Q287 871 283 865L268 876Q270 879 271.5 882.0Q273 885 274 889Q231 889 204.5 874.5Q178 860 153 831L80 830V815H146V803L100 801Q106 796 116 795L259 758Q267 726 276.5 688.5Q286 651 295.5 619.5Q305 588 312 575Q320 559 333.0 545.5Q346 532 357 522V538Q357 579 368 609L385 602Q380 590 378.0 572.5Q376 555 376 538Q376 528 377.5 513.5Q379 499 384 455L157 424Q152 429 141.0 433.0Q130 437 117 437Q104 437 92.5 430.5Q81 424 76 417V394H85V410H96V394H109V410H120V394H126Q128 398 131.5 402.0Q135 406 136 408Q147 404 165.5 399.0Q184 394 197 394H422Q442 395 462.0 404.5Q482 414 482 439V542H501V478H529Q567 478 605.5 490.0Q644 502 676.5 518.5Q709 535 728 547Q723 558 717.0 578.0Q711 598 711 606H729Q729 599 733.5 582.5Q738 566 743 558Q751 543 771.0 521.0Q791 499 813.5 480.5Q836 462 849 457L846 441Q790 441 751.5 433.0Q713 425 686 420Q675 425 658.0 429.0Q641 433 627 433Q614 433 605.0 426.0Q596 419 592 412V394H604V410H614V394H627V410H638V394H648Q650 397 651.5 401.0Q653 405 654 407Q672 403 691.5 399.0Q711 395 728 394H946Q959 395 964.5 404.0Q970 413 970 420Q970 427 967 433L930 553Q930 564 932.0 578.5Q934 593 939 598Q963 580 980.0 546.5Q997 513 1009.5 472.0Q1022 431 1032.5 390.5Q1043 350 1054 318Q1079 248 1099.0 203.5Q1119 159 1156 138ZM229 841Q216 841 216 852Q216 860 229 860Q243 860 243 852Q243 841 229 841ZM481 394H573V417Q575 422 588.5 436.5Q602 451 627 451Q641 451 659.5 447.0Q678 443 690 439Q706 441 737.5 447.5Q769 454 813 456Q794 471 771.5 492.5Q749 514 738 530Q723 520 690.5 503.0Q658 486 615.5 472.5Q573 459 529 459H501V439Q501 408 481 394ZM68 348H986V374H68ZM684 188Q731 188 751 211Q740 206 725.0 204.0Q710 202 697 203Q674 205 646.0 220.0Q618 235 591.5 256.0Q565 277 544.5 297.0Q524 317 516 329H479Q494 314 517.0 290.5Q540 267 568.0 243.5Q596 220 625.5 204.0Q655 188 684 188ZM765 263Q761 283 751.0 302.5Q741 322 736 329H701Q719 316 737.0 297.5Q755 279 765 263ZM697 222Q720 220 737.0 224.5Q754 229 754 239Q754 250 741.0 266.5Q728 283 708.0 300.0Q688 317 665 329H644V245Q673 225 697 222ZM625 259V329H605V273Q615 265 625 259ZM585 290V329H544Q552 321 562.0 311.0Q572 301 585 290ZM605 71H625V183Q620 185 615.0 187.5Q610 190 605 193ZM621 -32H821V51H621ZM840 -32H1041V51H840ZM401 -32H601V51H401ZM181 -32H381V51H181ZM621 -134H821V-51H621ZM401 -134H601V-51H401ZM181 -134H381V-51H181ZM840 -134H1041V-51H840Z" />
  </g>
</svg>