<svg xmlns="http://www.w3.org/2000/svg" viewBox="49 -154 1130 1208">
  <g transform="translate(0, 900) scale(1, -1)">
    <path fill="black" d="M58 -154V-134H170V-51H58V-32H170V51H58V71H594V205Q560 227 530.0 254.0Q500 281 480.0 302.5Q460 324 455 329H283Q279 323 263.0 308.0Q247 293 221.0 280.5Q195 268 161 267Q126 267 104.0 279.0Q82 291 70.0 309.5Q58 328 53.5 346.5Q49 365 49 376Q49 426 67.5 462.5Q86 499 127 499Q148 499 170.5 487.0Q193 475 214.5 457.0Q236 439 252.5 422.0Q269 405 277 394H519Q525 403 537.0 409.5Q549 416 569 417L624 421Q631 465 632.5 476.0Q634 487 634 491Q634 517 626.0 547.5Q618 578 607 611L523 559Q486 535 450.5 528.5Q415 522 371 534Q352 539 336.5 551.0Q321 563 312.0 574.5Q303 586 302 587L519 749Q515 757 512.5 765.0Q510 773 510 783V833Q510 842 509.0 853.0Q508 864 492 864Q482 864 476.5 859.0Q471 854 470 852H452V869Q452 892 462.0 904.5Q472 917 482 925L500 940Q503 948 520.5 959.5Q538 971 580 971Q630 971 654.5 946.0Q679 921 696 883L713 874L942 1054Q944 1053 952.0 1041.0Q960 1029 967.5 1011.0Q975 993 975 973Q975 928 959.5 895.5Q944 863 911 832L826 754Q837 739 848.0 723.5Q859 708 869 694L1025 445L944 394H1174V329H768Q776 316 785.0 295.5Q794 275 794 255Q794 220 771.5 194.0Q749 168 692 168Q683 168 673.0 170.0Q663 172 653 175V71H1179V51H1069V-32H1179V-51H1069V-134H1179V-154ZM814 771 897 847Q926 873 941.0 903.5Q956 934 956 973Q956 990 949.5 1004.5Q943 1019 938 1026L896 993Q899 987 903.0 975.0Q907 963 907 949Q907 924 893.0 901.5Q879 879 850 853L791 800Q797 793 802.5 785.5Q808 778 814 771ZM779 815 837 867Q887 911 887 949Q887 959 884.5 967.0Q882 975 880 980L731 864Q733 863 734.5 862.0Q736 861 737 861Q747 851 758.0 839.5Q769 828 779 815ZM666 394H785V404Q774 406 760.0 406.5Q746 407 737 407V490Q748 488 758.5 482.0Q769 476 775 471V577Q803 577 822.0 564.0Q841 551 853.0 535.0Q865 519 871 508L929 404L1003 451L853 687Q822 728 788.5 774.5Q755 821 721 852Q719 853 705.0 860.5Q691 868 679 875Q663 910 643.5 931.5Q624 953 580 953Q539 953 527.5 944.5Q516 936 516 933L496 914Q489 907 480.5 899.0Q472 891 470 876Q472 881 482.5 889.5Q493 898 506 898Q518 898 528 888Q530 888 533.0 888.5Q536 889 536 892Q536 895 535 896Q529 896 524.0 900.5Q519 905 519 912Q519 918 524.0 923.0Q529 928 537 928H565Q584 928 596.5 917.0Q609 906 609 888Q609 870 592.5 858.5Q576 847 566 842Q564 841 559.5 841.0Q555 841 554 845H549V838H539Q539 844 536.0 856.0Q533 868 524.5 878.0Q516 888 501 888Q497 888 493.0 885.0Q489 882 486 880Q488 880 489.5 880.5Q491 881 492 881Q514 881 521.5 865.0Q529 849 529 833V783Q529 758 550.0 736.5Q571 715 587 692Q607 668 629.0 642.5Q651 617 668 599Q702 563 713.0 530.5Q724 498 722 475L717 407Q707 407 692.0 406.5Q677 406 666 404ZM546 859Q546 861 545.5 862.5Q545 864 545 865Q545 873 550.0 878.5Q555 884 563 884Q571 884 575.5 878.0Q580 872 580 867Q580 863 579 862Q585 866 590.0 872.5Q595 879 595 888Q595 901 585.5 910.0Q576 919 562 919H551Q553 915 553 912Q553 903 545 898Q546 897 547.5 894.0Q549 891 547 887Q546 882 536 880Q543 870 546 859ZM536 905Q542 905 542 912Q542 919 536 919Q528 919 528 912Q528 905 536 905ZM563 854Q569 854 569 864Q569 867 567.5 870.5Q566 874 563 874Q555 874 555 864Q555 854 563 854ZM418 612Q437 607 459.5 614.0Q482 621 510 638L572 679L563 691Q556 702 546.5 712.0Q537 722 529 732L389 627Q394 624 401.0 619.5Q408 615 418 612ZM376 553Q414 543 447.5 549.0Q481 555 514 575L600 630L593 651Q591 654 588.5 657.5Q586 661 583 664L521 622Q489 601 463.0 594.0Q437 587 413 594Q399 598 388.5 604.5Q378 611 373 616L330 584Q335 577 347.5 567.5Q360 558 376 553ZM644 421 662 422 675 496Q682 495 690.0 491.5Q698 488 705 484Q706 502 696.0 528.5Q686 555 655 589Q648 597 640.0 605.5Q632 614 624 624Q634 593 643.5 559.0Q653 525 653 491Q653 488 652.5 483.0Q652 478 650.5 464.5Q649 451 644 421ZM833 394H914L854 503Q847 517 829.5 536.5Q812 556 792 556V438Q785 446 773.0 455.5Q761 465 752 466V425Q763 424 778.5 422.5Q794 421 803 418Q814 415 821.5 407.5Q829 400 833 394ZM221 394H252Q239 410 217.0 429.5Q195 449 171.5 464.0Q148 479 127 479Q107 479 93 465Q102 469 118 469Q133 469 154.0 455.0Q175 441 194.0 423.0Q213 405 221 394ZM678 422 703 425 706 463Q702 465 698.0 468.0Q694 471 687 472Q686 465 683.0 449.5Q680 434 678 422ZM99 394H195Q187 404 172.5 417.5Q158 431 142.0 441.5Q126 452 112 452Q103 452 95.5 448.0Q88 444 88 432Q88 420 92.0 410.0Q96 400 99 394ZM161 287Q195 287 219.0 301.5Q243 316 256 329H230Q223 320 208.0 310.5Q193 301 167 301Q143 301 123.0 318.0Q103 335 90.0 360.5Q77 386 71 411Q70 401 69.5 391.5Q69 382 69 374Q71 336 97.0 311.0Q123 286 161 287ZM595 394H599Q602 397 605.5 400.5Q609 404 613 406L595 404ZM566 394H585V403Q580 403 575.0 400.0Q570 397 566 394ZM638 394H654V403Q648 403 644.5 400.0Q641 397 638 394ZM796 394H813Q809 397 805.0 399.0Q801 401 796 402ZM540 394H551Q553 396 555.5 398.0Q558 400 560 402Q546 402 540 394ZM611 394H623Q625 396 627.0 398.0Q629 400 632 402Q624 402 619.0 399.5Q614 397 611 394ZM122 348H1155V374H104Q107 369 112.5 361.5Q118 354 122 348ZM706 222Q729 220 746.0 224.5Q763 229 763 239Q763 250 750.0 266.5Q737 283 717.0 300.0Q697 317 674 329H653V245Q682 225 706 222ZM774 263Q770 283 759.5 302.5Q749 322 745 329H710Q728 316 746.0 297.5Q764 279 774 263ZM633 259V329H614V273Q619 269 623.5 265.5Q628 262 633 259ZM594 290V329H553Q561 321 571.0 311.0Q581 301 594 290ZM692 188Q740 188 760 211Q749 206 734.0 204.0Q719 202 706 203Q683 205 655.0 220.0Q627 235 600.0 256.0Q573 277 552.5 297.0Q532 317 524 329H488Q503 314 526.0 290.5Q549 267 576.5 243.5Q604 220 634.0 204.0Q664 188 692 188ZM167 321Q187 321 200 329H140Q151 321 167 321ZM614 71H633V183Q629 185 624.0 187.5Q619 190 614 193ZM410 -32H610V51H410ZM629 -32H830V51H629ZM190 -32H390V51H190ZM849 -32H1049V51H849ZM629 -134H830V-51H629ZM410 -134H610V-51H410ZM190 -134H390V-51H190ZM849 -134H1049V-51H849Z" />
  </g>
</svg>