<svg xmlns="http://www.w3.org/2000/svg" viewBox="49 -154 1121 1193">
  <g transform="translate(0, 885) scale(1, -1)">
    <path fill="black" d="M49 -154V-134H162V-51H49V-32H162V51H49V71H585V205Q551 227 521.0 254.0Q491 281 471.0 302.5Q451 324 446 329H49V394H560V477Q499 487 444.5 516.5Q390 546 355.0 602.0Q320 658 317 744H351Q374 662 416.0 619.0Q458 576 517 560Q522 563 529.5 565.0Q537 567 547 568L588 571L595 618Q595 621 595.5 624.5Q596 628 596 631Q596 660 586.5 691.5Q577 723 567 750L562 764L538 796Q525 814 509.0 837.0Q493 860 493 884V926Q493 934 492.0 941.5Q491 949 481 949Q473 949 468.5 945.0Q464 941 463 938H445V956Q445 976 453.5 985.0Q462 994 471 1000L485 1014Q488 1019 504.0 1029.0Q520 1039 554 1039Q595 1039 617.0 1018.5Q639 998 653 968Q656 966 667.5 960.5Q679 955 688 950Q706 933 727.0 906.0Q748 879 769.5 850.0Q791 821 809 798Q834 767 854.0 745.5Q874 724 884 711Q888 718 891.5 726.0Q895 734 898 744H926Q926 710 920 678Q931 667 942.5 656.5Q954 646 961 641L945 616Q937 622 925.0 630.0Q913 638 905 642L900 632L927 592L842 540L838 545Q808 519 770.5 502.5Q733 486 692 479V394H1170V329H759Q767 316 776.0 295.5Q785 275 785 255Q785 220 762.5 194.0Q740 168 684 168Q674 168 664.0 170.0Q654 172 644 175V71H1170V51H1060V-32H1170V-51H1060V-134H1170V-154ZM624 549Q648 549 670.5 551.0Q693 553 715 558V559Q706 560 697.5 561.0Q689 562 684 562V633Q693 632 702.5 627.0Q712 622 717 618V706Q743 706 760.5 694.5Q778 683 788.5 668.5Q799 654 804 646L848 567L903 599L855 671Q813 694 762.0 721.5Q711 749 663.0 774.5Q615 800 581 818Q572 822 557.5 832.0Q543 842 532.0 857.5Q521 873 521 891Q520 911 545.0 928.5Q570 946 609 948L610 932Q576 930 557.5 917.5Q539 905 539 891Q540 870 559.0 853.0Q578 836 594 828Q630 810 679.0 784.0Q728 758 779.0 730.5Q830 703 871 679Q908 657 920.0 648.5Q932 640 939 635L941 638Q917 657 889.5 684.0Q862 711 836.0 740.5Q810 770 792 793Q775 817 754.0 845.0Q733 873 711.5 899.0Q690 925 671 942Q670 943 658.5 949.0Q647 955 637 960Q623 990 607.5 1007.5Q592 1025 554 1025Q520 1025 510.5 1018.0Q501 1011 501 1009L485 993Q479 988 472.0 981.5Q465 975 463 962Q465 967 472.0 973.5Q479 980 493 980Q505 980 511 972Q518 970 518 975Q518 977 517.5 977.5Q517 978 517 979Q512 979 507.0 982.5Q502 986 502 992Q502 1007 520 1007H542Q559 1007 570.0 996.5Q581 986 581 972Q581 957 567.5 947.0Q554 937 543 933Q542 933 538.5 933.0Q535 933 533 937H529V930H518Q518 938 512.5 954.5Q507 971 490 971Q481 971 477 965H481Q500 965 506.0 952.5Q512 940 512 926V884Q512 863 531.5 839.5Q551 816 564 797Q580 778 598.0 756.5Q616 735 631 720Q658 690 668.0 663.5Q678 637 677 618L673 562Q663 562 648.0 561.0Q633 560 624 559ZM518 986Q523 986 523 992Q523 998 518 998Q511 998 511 992Q511 986 518 986ZM526 948Q526 950 525.5 951.0Q525 952 525 953Q525 959 529.5 964.0Q534 969 540 969Q549 969 552.0 964.0Q555 959 555 956Q555 952 554 950Q559 955 563.0 960.0Q567 965 567 972Q567 983 559.0 990.0Q551 997 540 997H530Q532 996 532 991Q532 984 525 980Q530 977 527 971Q526 969 523.0 967.5Q520 966 518 965Q520 961 522.5 957.0Q525 953 526 948ZM540 943Q545 943 545 952Q545 960 540 960Q533 960 533 952Q533 943 540 943ZM607 571 622 572 633 634Q639 633 645.5 630.0Q652 627 658 624V629Q659 640 650.5 661.5Q642 683 616 711Q610 718 603.5 725.5Q597 733 590 741Q599 716 607.0 687.5Q615 659 615 631Q615 627 615.0 624.0Q615 621 614 617ZM902 689Q904 698 905.0 707.0Q906 716 907 725L896 695ZM622 492Q675 492 729.0 508.5Q783 525 828 565L816 581Q805 568 775.0 556.0Q745 544 705.0 536.5Q665 529 622 529Q555 529 499.0 546.5Q443 564 401.5 607.0Q360 650 337 725Q341 656 369.5 611.0Q398 566 440.5 540.0Q483 514 531.0 503.0Q579 492 622 492ZM739 564Q759 570 776.0 578.5Q793 587 809 600L787 641Q782 652 767.0 668.5Q752 685 735 685V587Q727 594 715.5 602.0Q704 610 697 611V574Q711 574 728 569Q732 568 735.0 567.0Q738 566 739 564ZM890 646 892 649 886 653ZM636 573 656 574 658 608Q655 610 651.5 612.0Q648 614 643 615Q642 610 640.0 597.0Q638 584 636 573ZM571 550Q573 556 582 561L567 559V551Q570 551 571 550ZM532 557H536L538 558Q536 558 534.5 557.5Q533 557 532 557ZM603 549H616V558Q611 558 608.0 555.0Q605 552 603 549ZM559 552V558Q551 558 547 554ZM589 549Q591 551 593.5 554.0Q596 557 597 558Q591 558 586.5 555.0Q582 552 580 550ZM580 394H672V476Q648 473 622 473Q611 473 600.5 473.5Q590 474 580 475ZM68 348H1150V374H68ZM684 188Q731 188 751 211Q740 206 725.0 204.0Q710 202 697 203Q674 205 646.0 220.0Q618 235 591.5 256.0Q565 277 544.5 297.0Q524 317 516 329H479Q494 314 517.0 290.5Q540 267 568.0 243.5Q596 220 625.5 204.0Q655 188 684 188ZM585 290V329H544Q552 321 562.0 311.0Q572 301 585 290ZM625 259V329H605V273Q615 265 625 259ZM644 245Q673 225 697 222Q720 220 737.0 224.5Q754 229 754 239Q754 250 741.0 266.5Q728 283 708.0 300.0Q688 317 665 329H644ZM765 263Q761 283 751.0 302.5Q741 322 736 329H701Q719 316 737.0 297.5Q755 279 765 263ZM605 71H625V183Q620 185 615.0 187.5Q610 190 605 193ZM840 -32H1041V51H840ZM621 -32H821V51H621ZM401 -32H601V51H401ZM181 -32H381V51H181ZM840 -134H1041V-51H840ZM621 -134H821V-51H621ZM401 -134H601V-51H401ZM181 -134H381V-51H181Z" />
  </g>
</svg>