<svg xmlns="http://www.w3.org/2000/svg" viewBox="49 -154 1130 1167">
  <g transform="translate(0, 859) scale(1, -1)">
    <path fill="black" d="M1021 403Q1007 408 992.0 420.5Q977 433 977 450Q977 466 986.5 479.5Q996 493 1015 497V845Q993 826 976.5 797.0Q960 768 957 732H939Q937 743 934.5 766.5Q932 790 932.5 816.0Q933 842 938 858Q946 881 959.0 901.0Q972 921 983 938Q992 953 1001.0 971.0Q1010 989 1010 1013H1024Q1034 1003 1039.5 978.0Q1045 953 1044.0 924.0Q1043 895 1031 871Q1035 868 1041.5 863.0Q1048 858 1053.5 846.0Q1059 834 1059 808V497Q1077 493 1087.0 479.5Q1097 466 1097 450Q1097 433 1081.5 420.5Q1066 408 1052 403L1041 414Q1046 417 1052.0 425.0Q1058 433 1058 444Q1058 452 1051.5 457.0Q1045 462 1037 462Q1029 462 1022.5 457.0Q1016 452 1016 444Q1016 433 1021.5 425.0Q1027 417 1032 414ZM371 403Q357 408 341.5 420.5Q326 433 326 450Q326 466 336.0 479.5Q346 493 364 497V845Q342 826 326.0 797.0Q310 768 307 732H289Q287 743 284.5 766.5Q282 790 282.5 816.0Q283 842 288 858Q295 881 308.5 901.0Q322 921 333 938Q342 953 350.5 971.0Q359 989 360 1013H374Q384 1003 389.5 978.0Q395 953 393.5 924.0Q392 895 380 871Q385 868 391.5 863.0Q398 858 403.0 846.0Q408 834 408 808V497Q427 493 436.5 479.5Q446 466 446 450Q446 433 430.5 420.5Q415 408 401 403L391 414Q396 417 401.5 425.0Q407 433 407 444Q407 452 400.5 457.0Q394 462 386 462Q379 462 372.0 457.0Q365 452 365 444Q365 433 371.0 425.0Q377 417 382 414ZM576 398Q558 399 543.0 408.0Q528 417 527 427V451Q541 461 571.0 470.0Q601 479 623 485L640 490Q650 493 668.0 502.5Q686 512 701.0 526.5Q716 541 716 557L715 977H818L814 550Q814 534 816.0 518.5Q818 503 820 489Q822 476 823.5 467.0Q825 458 825 440Q825 421 809.5 410.0Q794 399 771 399Q759 399 745.0 401.5Q731 404 718 406Q707 408 697.5 410.0Q688 412 683 412Q674 412 655.5 407.5Q637 403 623 398ZM580 418H620Q624 419 636.0 422.0Q648 425 661.5 428.0Q675 431 683 431Q697 431 722 426Q735 423 748.0 421.0Q761 419 771 419Q786 419 795.5 424.5Q805 430 805 440Q805 450 804.0 461.5Q803 473 801 486Q799 500 796.5 516.5Q794 533 795 550Q795 588 795.5 639.5Q796 691 797.0 748.0Q798 805 798.5 860.0Q799 915 799 958H734L736 557Q736 535 718.5 516.5Q701 498 679.5 486.5Q658 475 646 471L628 466Q609 461 583.5 453.5Q558 446 546 441V431Q547 427 557.5 422.5Q568 418 580 418ZM951 803H958Q960 824 973.5 846.0Q987 868 996 882Q1001 891 1011.0 911.5Q1021 932 1022 957H1015Q1014 942 1002.0 924.5Q990 907 982 893Q970 872 960.5 847.0Q951 822 951 803ZM300 803H308Q310 824 323.5 846.0Q337 868 345 882Q351 891 361.0 911.5Q371 932 372 957H364Q363 942 351.5 924.5Q340 907 332 893Q319 872 309.5 847.0Q300 822 300 803ZM1008 422 1010 425Q1001 432 1001 449Q1001 460 1009.5 469.0Q1018 478 1036 478Q1053 478 1061.5 469.0Q1070 460 1070 449Q1070 433 1062 425L1063 422Q1070 427 1075.0 433.5Q1080 440 1080 449Q1080 464 1071.0 475.0Q1062 486 1042 487V818Q1042 832 1037.5 837.5Q1033 843 1031 840Q1030 838 1031.0 831.0Q1032 824 1032 813V487Q1011 486 1001.0 475.0Q991 464 991 449Q991 440 996.5 433.5Q1002 427 1008 422ZM357 422 359 425Q351 431 351 449Q351 460 359.5 469.0Q368 478 385 478Q403 478 411.5 469.0Q420 460 420 449Q420 432 411 425L413 422Q419 427 424.5 433.5Q430 440 430 449Q430 464 420.5 475.0Q411 486 391 487V818Q391 832 387.0 837.5Q383 843 381 840Q380 838 380.5 831.0Q381 824 381 813V487Q361 486 351.0 475.0Q341 464 341 449Q341 440 346.0 433.5Q351 427 357 422ZM58 -154V-134H170V-51H58V-32H170V51H58V71H594V205Q560 227 530.0 254.0Q500 281 480.0 302.5Q460 324 455 329H283Q279 323 263.0 308.0Q247 293 221.0 280.5Q195 268 161 267Q126 267 104.0 279.0Q82 291 70.0 309.5Q58 328 53.5 346.5Q49 365 49 376Q49 426 67.5 462.5Q86 499 127 499Q148 499 170.5 487.0Q193 475 214.5 457.0Q236 439 252.5 422.0Q269 405 277 394H1174V329H768Q776 316 785.0 295.5Q794 275 794 255Q794 220 771.5 194.0Q749 168 692 168Q683 168 673.0 170.0Q663 172 653 175V71H1179V51H1069V-32H1179V-51H1069V-134H1179V-154ZM221 394H252Q239 410 217.0 429.5Q195 449 171.5 464.0Q148 479 127 479Q107 479 93 465Q102 469 118 469Q133 469 154.0 455.0Q175 441 194.0 423.0Q213 405 221 394ZM99 394H195Q187 404 172.5 417.5Q158 431 142.0 441.5Q126 452 112 452Q103 452 95.5 448.0Q88 444 88 432Q88 420 92.0 410.0Q96 400 99 394ZM161 287Q195 287 219.0 301.5Q243 316 256 329H230Q223 320 208.0 310.5Q193 301 167 301Q143 301 123.0 318.0Q103 335 90.0 360.5Q77 386 71 411Q70 401 69.5 391.5Q69 382 69 374Q71 336 97.0 311.0Q123 286 161 287ZM122 348H1155V374H104Q107 369 112.5 361.5Q118 354 122 348ZM774 263Q770 283 759.5 302.5Q749 322 745 329H710Q728 316 746.0 297.5Q764 279 774 263ZM167 321Q187 321 200 329H140Q151 321 167 321ZM706 222Q729 220 746.0 224.5Q763 229 763 239Q763 250 750.0 266.5Q737 283 717.0 300.0Q697 317 674 329H653V245Q682 225 706 222ZM633 259V329H614V273Q619 269 623.5 265.5Q628 262 633 259ZM594 290V329H553Q561 321 571.0 311.0Q581 301 594 290ZM692 188Q740 188 760 211Q749 206 734.0 204.0Q719 202 706 203Q683 205 655.0 220.0Q627 235 600.0 256.0Q573 277 552.5 297.0Q532 317 524 329H488Q503 314 526.0 290.5Q549 267 576.5 243.5Q604 220 634.0 204.0Q664 188 692 188ZM614 71H633V183Q629 185 624.0 187.5Q619 190 614 193ZM849 -32H1049V51H849ZM410 -32H610V51H410ZM190 -32H390V51H190ZM629 -32H830V51H629ZM410 -134H610V-51H410ZM849 -134H1049V-51H849ZM190 -134H390V-51H190ZM629 -134H830V-51H629Z" />
  </g>
</svg>