<svg xmlns="http://www.w3.org/2000/svg" viewBox="49 -154 1130 1177">
  <g transform="translate(0, 869) scale(1, -1)">
    <path fill="black" d="M616 436V750Q616 776 626.5 803.0Q637 830 667.5 853.0Q698 876 757 888V1023H982V888Q1042 876 1072.5 853.0Q1103 830 1113.5 803.0Q1124 776 1124 750V436H1104V750Q1104 772 1095.0 795.0Q1086 818 1060.0 837.5Q1034 857 982 867V436H963V1004H879V436H860V1004H776V436H757V867Q706 857 679.5 837.5Q653 818 644.0 795.0Q635 772 635 750V436ZM349 408 364 442Q368 452 371.0 462.0Q374 472 374 479Q374 501 365.5 514.0Q357 527 346 537L268 614L342 938Q346 957 352.0 975.0Q358 993 370.5 1005.0Q383 1017 408 1017Q433 1017 445.5 1005.0Q458 993 464.0 975.0Q470 957 474 938L548 614L470 537Q460 527 450.5 514.0Q441 501 441 479Q441 472 444.5 462.0Q448 452 452 442L466 408ZM378 428H437L433 436Q428 447 425.0 457.0Q422 467 422 479Q422 507 432.5 522.5Q443 538 456 551L526 620L454 934Q450 957 441.0 977.5Q432 998 408 998Q383 998 374.5 977.5Q366 957 361 934L289 620L359 551Q372 538 383.0 522.5Q394 507 394 479Q394 467 390.5 457.0Q387 447 382 436ZM58 -154V-134H170V-51H58V-32H170V51H58V71H594V205Q560 227 530.0 254.0Q500 281 480.0 302.5Q460 324 455 329H283Q279 323 263.0 308.0Q247 293 221.0 280.5Q195 268 161 267Q126 267 104.0 279.0Q82 291 70.0 309.5Q58 328 53.5 346.5Q49 365 49 376Q49 426 67.5 462.5Q86 499 127 499Q148 499 170.5 487.0Q193 475 214.5 457.0Q236 439 252.5 422.0Q269 405 277 394H1174V329H768Q776 316 785.0 295.5Q794 275 794 255Q794 220 771.5 194.0Q749 168 692 168Q683 168 673.0 170.0Q663 172 653 175V71H1179V51H1069V-32H1179V-51H1069V-134H1179V-154ZM221 394H252Q239 410 217.0 429.5Q195 449 171.5 464.0Q148 479 127 479Q107 479 93 465Q102 469 118 469Q133 469 154.0 455.0Q175 441 194.0 423.0Q213 405 221 394ZM99 394H195Q187 404 172.5 417.5Q158 431 142.0 441.5Q126 452 112 452Q103 452 95.5 448.0Q88 444 88 432Q88 420 92.0 410.0Q96 400 99 394ZM161 287Q195 287 219.0 301.5Q243 316 256 329H230Q223 320 208.0 310.5Q193 301 167 301Q143 301 123.0 318.0Q103 335 90.0 360.5Q77 386 71 411Q70 401 69.5 391.5Q69 382 69 374Q71 336 97.0 311.0Q123 286 161 287ZM122 348H1155V374H104Q107 369 112.5 361.5Q118 354 122 348ZM167 321Q187 321 200 329H140Q151 321 167 321ZM692 188Q740 188 760 211Q749 206 734.0 204.0Q719 202 706 203Q683 205 655.0 220.0Q627 235 600.0 256.0Q573 277 552.5 297.0Q532 317 524 329H488Q503 314 526.0 290.5Q549 267 576.5 243.5Q604 220 634.0 204.0Q664 188 692 188ZM594 290V329H553Q561 321 571.0 311.0Q581 301 594 290ZM633 259V329H614V273Q619 269 623.5 265.5Q628 262 633 259ZM774 263Q770 283 759.5 302.5Q749 322 745 329H710Q728 316 746.0 297.5Q764 279 774 263ZM706 222Q729 220 746.0 224.5Q763 229 763 239Q763 250 750.0 266.5Q737 283 717.0 300.0Q697 317 674 329H653V245Q682 225 706 222ZM614 71H633V183Q629 185 624.0 187.5Q619 190 614 193ZM849 -32H1049V51H849ZM629 -32H830V51H629ZM190 -32H390V51H190ZM410 -32H610V51H410ZM849 -134H1049V-51H849ZM410 -134H610V-51H410ZM190 -134H390V-51H190ZM629 -134H830V-51H629Z" />
  </g>
</svg>