<svg xmlns="http://www.w3.org/2000/svg" viewBox="49 -154 1130 1130">
  <g transform="translate(0, 822) scale(1, -1)">
    <path fill="black" d="M672 422Q624 476 581.5 532.5Q539 589 512.0 650.0Q485 711 485 778Q484 846 493.0 891.0Q502 936 517 976H552L765 696L741 664Q727 672 710.5 678.0Q694 684 681 684Q673 684 666.0 679.5Q659 675 659 661Q659 651 665.0 625.5Q671 600 680.5 569.0Q690 538 700.0 508.0Q710 478 718 457ZM674 449 694 463Q687 484 677.5 513.0Q668 542 659.5 572.0Q651 602 645.5 626.0Q640 650 640 661Q640 685 653.0 694.0Q666 703 681 703Q692 703 706.5 699.5Q721 696 735 688L740 695Q733 705 711.5 733.0Q690 761 661.5 799.5Q633 838 601.5 879.5Q570 921 543 957H530Q518 923 510.5 881.5Q503 840 504 778Q504 715 528.0 658.5Q552 602 591.0 550.5Q630 499 674 449ZM58 -154V-134H170V-51H58V-32H170V51H58V71H594V205Q560 227 530.0 254.0Q500 281 480.0 302.5Q460 324 455 329H283Q279 323 263.0 308.0Q247 293 221.0 280.5Q195 268 161 267Q126 267 104.0 279.0Q82 291 70.0 309.5Q58 328 53.5 346.5Q49 365 49 376Q49 426 67.5 462.5Q86 499 127 499Q148 499 170.5 487.0Q193 475 214.5 457.0Q236 439 252.5 422.0Q269 405 277 394H1174V329H768Q776 316 785.0 295.5Q794 275 794 255Q794 220 771.5 194.0Q749 168 692 168Q683 168 673.0 170.0Q663 172 653 175V71H1179V51H1069V-32H1179V-51H1069V-134H1179V-154ZM221 394H252Q239 410 217.0 429.5Q195 449 171.5 464.0Q148 479 127 479Q107 479 93 465Q102 469 118 469Q133 469 154.0 455.0Q175 441 194.0 423.0Q213 405 221 394ZM99 394H195Q187 404 172.5 417.5Q158 431 142.0 441.5Q126 452 112 452Q103 452 95.5 448.0Q88 444 88 432Q88 420 92.0 410.0Q96 400 99 394ZM161 287Q195 287 219.0 301.5Q243 316 256 329H230Q223 320 208.0 310.5Q193 301 167 301Q143 301 123.0 318.0Q103 335 90.0 360.5Q77 386 71 411Q70 401 69.5 391.5Q69 382 69 374Q71 336 97.0 311.0Q123 286 161 287ZM122 348H1155V374H104Q107 369 112.5 361.5Q118 354 122 348ZM167 321Q187 321 200 329H140Q151 321 167 321ZM774 263Q770 283 759.5 302.5Q749 322 745 329H710Q728 316 746.0 297.5Q764 279 774 263ZM706 222Q729 220 746.0 224.5Q763 229 763 239Q763 250 750.0 266.5Q737 283 717.0 300.0Q697 317 674 329H653V245Q682 225 706 222ZM633 259V329H614V273Q619 269 623.5 265.5Q628 262 633 259ZM594 290V329H553Q561 321 571.0 311.0Q581 301 594 290ZM692 188Q740 188 760 211Q749 206 734.0 204.0Q719 202 706 203Q683 205 655.0 220.0Q627 235 600.0 256.0Q573 277 552.5 297.0Q532 317 524 329H488Q503 314 526.0 290.5Q549 267 576.5 243.5Q604 220 634.0 204.0Q664 188 692 188ZM614 71H633V183Q629 185 624.0 187.5Q619 190 614 193ZM629 -32H830V51H629ZM849 -32H1049V51H849ZM410 -32H610V51H410ZM190 -32H390V51H190ZM849 -134H1049V-51H849ZM629 -134H830V-51H629ZM190 -134H390V-51H190ZM410 -134H610V-51H410Z" />
  </g>
</svg>