<svg xmlns="http://www.w3.org/2000/svg" viewBox="49 -182 903 1161">
  <g transform="translate(0, 797) scale(1, -1)">
    <path fill="black" d="M49 497V979H952V497H659V563H880V902H120V563H342V497ZM68 516H322V543H101V922H900V543H678V516H932V959H68ZM506 -182Q481 -182 464.5 -163.5Q448 -145 448 -126Q448 -115 449.5 -82.0Q451 -49 455 30L476 462Q455 471 432.5 491.0Q410 511 394.0 545.5Q378 580 378 631Q378 689 403.0 719.0Q428 749 472 752V791H541V752Q585 749 609.5 719.0Q634 689 634 631Q634 580 618.0 545.5Q602 511 579.5 491.0Q557 471 536 462L558 30Q561 -49 562.5 -82.0Q564 -115 564 -126Q564 -145 548.0 -163.5Q532 -182 506 -182ZM506 475Q522 475 547.5 490.0Q573 505 593.5 539.0Q614 573 614 631Q614 736 521 736V771H491V736Q446 736 421.5 710.0Q397 684 397 631Q397 588 409.5 558.0Q422 528 440.0 509.5Q458 491 476.0 483.0Q494 475 506 475ZM506 -163Q523 -163 533.5 -151.0Q544 -139 544 -126Q544 -115 542.5 -82.5Q541 -50 538 29L517 456Q514 456 511.5 455.5Q509 455 506 455Q503 455 500.5 455.5Q498 456 495 456L475 29Q471 -50 469.0 -82.5Q467 -115 467 -126Q467 -139 478.5 -151.0Q490 -163 506 -163Z" />
  </g>
</svg>