<svg xmlns="http://www.w3.org/2000/svg" viewBox="49 -255 1139 1234">
  <g transform="translate(0, 724) scale(1, -1)">
    <path fill="black" d="M49 497V979H1187V497H894V563H1115V902H120V563H342V497ZM68 516H322V543H101V922H1135V543H913V516H1167V959H68ZM618 -253Q602 -253 579.0 -224.0Q556 -195 538.5 -143.0Q521 -91 521 -23Q521 19 535.0 48.5Q549 78 564.0 95.5Q579 113 583 118L557 711H678L652 118Q659 112 674.0 95.0Q689 78 701.5 49.0Q714 20 714 -23Q714 -91 696.5 -143.0Q679 -195 656.5 -224.0Q634 -253 618 -253ZM618 -233Q629 -233 647.5 -206.5Q666 -180 680.5 -132.5Q695 -85 695 -23Q695 25 673.5 59.5Q652 94 632 107L658 691H578L603 107Q583 94 562.0 59.5Q541 25 541 -23Q541 -85 555.5 -132.5Q570 -180 588.5 -206.5Q607 -233 618 -233ZM189 -255Q144 -255 115.5 -238.5Q87 -222 74.0 -181.0Q61 -140 61 -69Q61 -7 70.5 50.5Q80 108 97.0 153.0Q114 198 137.5 224.5Q161 251 189 251Q217 251 240.5 224.5Q264 198 281.0 153.0Q298 108 307.5 50.5Q317 -7 317 -69Q317 -140 304.0 -181.0Q291 -222 263.0 -238.5Q235 -255 189 -255ZM189 -236Q228 -236 252.0 -221.0Q276 -206 286.5 -169.5Q297 -133 297 -69Q297 -11 288.5 43.0Q280 97 265.0 139.5Q250 182 230.5 207.0Q211 232 189 232Q167 232 147.5 207.0Q128 182 113.0 139.5Q98 97 89.5 43.0Q81 -11 81 -69Q81 -133 92.0 -169.5Q103 -206 126.5 -221.0Q150 -236 189 -236ZM933 -254 906 -142Q897 -104 887.0 -65.0Q877 -26 877 16Q877 60 908.0 95.5Q939 131 1000 144V181H895V230H1171V181H1065V144Q1126 131 1157.0 95.5Q1188 60 1188 16Q1188 -24 1179.0 -62.5Q1170 -101 1160 -142L1132 -254ZM948 -235H1117L1141 -137Q1150 -100 1159.0 -62.5Q1168 -25 1168 16Q1168 54 1137.5 85.5Q1107 117 1045 127V200H1151V211H914V200H1020V127Q959 117 928.0 85.5Q897 54 897 16Q897 -23 906.0 -60.5Q915 -98 924 -137Z" />
  </g>
</svg>