<svg xmlns="http://www.w3.org/2000/svg" viewBox="49 -260 741 1227">
  <g transform="translate(0, 707) scale(1, -1)">
    <path fill="black" d="M49 -260V967H790V-260ZM68 -241H771V948H68ZM100 -209V917H739V250H499V-209ZM119 -190H479V270H720V897H119ZM255 590Q255 641 277.5 681.0Q300 721 338.0 744.0Q376 767 422 767Q468 767 506.0 744.0Q544 721 566.5 681.0Q589 641 589 590ZM275 610H568Q566 644 547.0 675.5Q528 707 496.0 727.5Q464 748 422 748Q380 748 348.0 727.5Q316 707 297.0 675.5Q278 644 275 610ZM530 -209V219H739V-209ZM549 -190H720V200H549Z" />
  </g>
</svg>