<svg xmlns="http://www.w3.org/2000/svg" viewBox="49 -260 1291 1227">
  <g transform="translate(0, 707) scale(1, -1)">
    <path fill="black" d="M49 -260V967H1340V-260ZM68 -241H1320V948H68ZM117 -192V899H1271V68H977V-192ZM137 -172H957V88H1252V879H137ZM601 -133 636 333 424 317V398L627 370L614 395Q587 448 562.0 506.0Q537 564 521.0 619.5Q505 675 505 718Q505 755 522.0 787.0Q539 819 573.0 839.0Q607 859 657 859Q707 859 740.5 839.0Q774 819 791.0 787.0Q808 755 808 718Q808 675 792.5 619.5Q777 564 752.0 506.0Q727 448 700 395Q696 388 693.0 382.0Q690 376 687 371L890 398V317L678 332L712 -133ZM650 367H653L624 434Q611 462 598.5 499.0Q586 536 575.5 576.0Q565 616 558.5 652.5Q552 689 552 716Q552 757 583.0 783.5Q614 810 657 810Q701 810 732.0 783.5Q763 757 763 716Q763 679 752.0 627.0Q741 575 724.0 522.0Q707 469 688 429L661 367H664Q679 391 700.0 434.0Q721 477 741.5 528.5Q762 580 775.5 630.0Q789 680 789 718Q789 766 756.0 802.5Q723 839 657 839Q591 839 558.0 802.5Q525 766 525 718Q525 680 538.5 631.0Q552 582 572.0 531.0Q592 480 613.0 436.5Q634 393 650 367ZM657 401 671 431Q690 472 706.5 524.5Q723 577 733.0 628.0Q743 679 743 716Q743 748 717.5 769.0Q692 790 657 790Q621 790 596.0 769.0Q571 748 571 716Q571 689 577.0 653.0Q583 617 593.5 577.5Q604 538 616.5 501.0Q629 464 641 436ZM870 338V376L690 351ZM443 338 626 351 443 376ZM623 -114H691Q688 -64 683.5 -3.0Q679 58 674.5 121.0Q670 184 666.0 239.5Q662 295 659 334H655ZM1025 -192V20H1271V-192ZM1045 -172H1252V0H1045Z" />
  </g>
</svg>