<svg xmlns="http://www.w3.org/2000/svg" viewBox="49 -260 1291 1227">
  <g transform="translate(0, 707) scale(1, -1)">
    <path fill="black" d="M49 -260V967H1340V-260ZM68 -241H1320V948H68ZM1025 688V899H1271V688ZM117 -192V899H977V639H1271V-192ZM1045 707H1252V879H1045ZM137 -172H1252V619H957V879H137ZM402 -124Q391 -124 383.5 -119.0Q376 -114 376 -104Q376 -93 386.0 -89.0Q396 -85 403 -85H421Q432 -66 445.0 -42.5Q458 -19 458 -3Q458 0 453.0 10.5Q448 21 442.0 33.0Q436 45 433 50L425 58Q422 40 415.0 21.0Q408 2 397 -7H383Q363 12 341.0 45.0Q319 78 319 123Q319 149 320.0 161.0Q321 173 322 180Q322 183 322.5 185.0Q323 187 322 190Q322 191 312.5 203.5Q303 216 290.5 232.5Q278 249 269 261Q257 277 241.5 299.5Q226 322 214.5 347.0Q203 372 203 394Q203 409 204.0 424.0Q205 439 206 447H229Q230 437 231.5 424.5Q233 412 236 399Q242 369 258.0 343.5Q274 318 293.5 294.0Q313 270 330 244L326 276Q322 297 314.0 327.0Q306 357 299.0 385.5Q292 414 292 430Q292 450 299.0 466.0Q306 482 313 489L329 484Q328 478 326.5 467.0Q325 456 325 445Q325 437 330.0 420.5Q335 404 339 385Q349 354 356.0 322.0Q363 290 367 255Q370 227 376.5 209.5Q383 192 393 178Q398 170 406.5 162.0Q415 154 421 149Q441 181 479 191Q478 203 475.5 233.0Q473 263 473 300Q473 370 487.0 439.0Q501 508 529.5 566.5Q558 625 600.5 664.5Q643 704 699 716L693 407Q763 492 830.0 543.0Q897 594 962 594Q981 594 1011.0 591.0Q1041 588 1062 585L878 305Q850 270 820.5 239.5Q791 209 764 183Q746 191 717.5 199.5Q689 208 664 208Q643 208 627.5 203.0Q612 198 598 189Q623 182 641.5 170.5Q660 159 670 143Q676 152 688.0 160.5Q700 169 724 169Q762 169 802.0 153.0Q842 137 879.0 111.0Q916 85 945.0 54.0Q974 23 991.0 -8.0Q1008 -39 1008 -64Q1008 -81 1005.0 -95.0Q1002 -109 997 -122H975Q975 -115 972.5 -100.5Q970 -86 962.5 -72.0Q955 -58 939 -53Q928 -50 910.0 -47.5Q892 -45 872 -42L852 -40Q861 -50 872.0 -59.0Q883 -68 894 -76Q905 -85 913.0 -92.0Q921 -99 924 -113L920 -117Q913 -111 905.0 -111.5Q897 -112 893 -121Q853 -94 832.5 -74.0Q812 -54 798 -30L788 -27Q753 -15 719.0 5.5Q685 26 663 47Q659 43 655.5 40.5Q652 38 647 35Q653 25 657.5 14.5Q662 4 662 -2Q662 -31 655.5 -66.0Q649 -101 642 -124H601Q594 -124 591.0 -122.5Q588 -121 586 -121L585 -124H537Q520 -124 515 -116Q512 -122 510 -124H468Q458 -124 450 -119Q449 -120 448.0 -121.5Q447 -123 447 -124ZM498 194Q515 198 534 198H540Q570 244 604.5 292.5Q639 341 674 384L680 693Q634 680 598.5 642.0Q563 604 539.5 549.0Q516 494 504.0 430.0Q492 366 492 300Q492 265 494.5 236.5Q497 208 498 194ZM468 -109H502Q504 -102 512.0 -84.0Q520 -66 527.0 -43.5Q534 -21 534 -2Q534 6 522.5 26.5Q511 47 500 63L513 72Q518 65 525.0 53.0Q532 41 537 30Q542 29 547.0 29.0Q552 29 556 29Q581 29 603 34Q600 39 597.0 44.5Q594 50 592 52L605 61Q616 44 627.0 23.5Q638 3 638 -3Q638 -14 635.5 -32.5Q633 -51 629.0 -70.0Q625 -89 621 -100H594Q582 -100 582 -104Q582 -109 593 -109H629Q633 -99 640.0 -68.5Q647 -38 647 -2Q647 6 635.5 26.5Q624 47 613 63L626 72Q632 64 640 48Q647 52 653 60L652 73L727 81Q748 83 755.5 78.0Q763 73 769 61Q792 20 798.5 4.0Q805 -12 809 -18Q821 -42 839.0 -61.0Q857 -80 891 -103Q895 -98 903 -99Q884 -83 864.0 -68.0Q844 -53 832 -36Q813 -7 801.5 23.0Q790 53 768 84Q763 93 735 91Q728 91 704.5 88.0Q681 85 661 83L659 99Q661 99 663.0 99.0Q665 99 668 100Q668 114 664 123Q654 144 631.5 157.5Q609 171 583 178Q575 171 567.0 162.5Q559 154 551 145L540 156Q566 183 592.0 205.0Q618 227 664 227Q685 227 713.0 220.5Q741 214 760 207Q786 231 812.0 256.0Q838 281 862 312Q907 381 947.0 441.0Q987 501 1032 570Q1020 572 999.5 573.5Q979 575 962 575Q921 575 877.0 549.5Q833 524 787.5 481.0Q742 438 697.0 383.0Q652 328 610.0 268.5Q568 209 530 151L513 159L529 183Q486 182 454.0 163.0Q422 144 422 104Q422 79 441.5 63.0Q461 47 487 39Q481 48 479 52L492 61Q503 44 513.5 23.5Q524 3 524 -3Q524 -14 518.5 -32.0Q513 -50 505.5 -68.5Q498 -87 492 -100H470Q457 -100 457 -104Q457 -109 468 -109ZM383 12V44H399V19Q405 31 408.5 47.0Q412 63 413 76Q408 88 408 104Q408 121 413 136Q406 141 397.0 150.0Q388 159 381 169Q360 198 352 254Q349 285 342.0 316.0Q335 347 325 381Q319 398 316.0 415.0Q313 432 313 442Q313 452 315 462H313Q311 458 309.0 449.5Q307 441 307 430Q307 414 314.0 385.0Q321 356 329.0 326.0Q337 296 339 275Q342 259 345.0 241.5Q348 224 349 207L339 204Q323 236 298.5 264.5Q274 293 252.5 325.0Q231 357 223 396Q222 407 220.5 416.5Q219 426 218 433H216Q215 424 215.0 412.5Q215 401 215 394Q215 374 226.5 351.0Q238 328 251.5 309.0Q265 290 272 281Q286 263 301.0 243.5Q316 224 326.5 209.5Q337 195 337 190Q338 186 337.5 183.5Q337 181 337 177Q336 171 335.0 159.0Q334 147 334 123Q334 86 350.5 57.5Q367 29 383 12ZM988 -100Q990 -92 991.5 -83.5Q993 -75 993 -64Q993 -35 968.5 2.5Q944 40 904.0 74.5Q864 109 816.5 131.5Q769 154 724 154Q698 154 689.5 142.0Q681 130 680 124Q682 120 682.5 114.0Q683 108 684 101Q698 103 713.0 104.0Q728 105 734 105Q751 106 763.0 104.5Q775 103 779 95Q797 67 809.5 37.5Q822 8 839 -23Q848 -24 856.5 -25.0Q865 -26 873 -27Q893 -29 911.5 -32.0Q930 -35 943 -39Q966 -46 975.5 -65.5Q985 -85 988 -100ZM366 67Q356 67 351.5 74.0Q347 81 347 87Q347 94 351.0 101.0Q355 108 363 108Q382 108 382 87Q382 77 377.0 72.0Q372 67 366 67ZM366 78Q369 78 369 87Q369 97 363 97Q359 97 359 87Q359 78 366 78ZM788 -12 756 53Q753 61 748.5 64.5Q744 68 728 66L673 60H672Q690 41 722.0 21.0Q754 1 788 -12ZM402 -109H438L442 -102Q444 -94 449 -91Q460 -73 471.0 -48.5Q482 -24 482 -2Q482 2 479.0 11.0Q476 20 471 29L458 35Q464 24 468.5 13.0Q473 2 473 -3Q473 -13 465.0 -31.0Q457 -49 446.5 -68.0Q436 -87 429 -100H403Q391 -100 391 -104Q391 -109 402 -109ZM469 -85H482Q492 -65 500.5 -42.0Q509 -19 509 -3Q509 2 497 21Q495 21 491 23Q497 8 497 -2Q497 -19 488.5 -42.0Q480 -65 469 -85ZM595 -85H610Q615 -69 619.0 -44.5Q623 -20 623 -5Q623 -3 619.0 4.0Q615 11 610 20L600 18Q603 12 604.0 6.5Q605 1 605 -2Q605 -23 602.5 -45.0Q600 -67 595 -85ZM537 -109H567V-104Q567 -91 579 -88Q583 -72 586.5 -49.5Q590 -27 590 -2Q590 1 588.0 5.5Q586 10 584 16L575 15Q577 9 579.0 4.0Q581 -1 581 -3Q581 -14 578.5 -32.5Q576 -51 572.5 -70.0Q569 -89 565 -100H538Q525 -100 525 -104Q525 -109 537 -109ZM527 -87Q530 -85 538 -85H554Q559 -69 562.5 -44.5Q566 -20 566 -5Q566 -2 557 14H556Q554 14 550.5 14.0Q547 14 544 15Q548 6 548 -2Q548 -20 541.5 -43.5Q535 -67 527 -87Z" />
  </g>
</svg>