<svg xmlns="http://www.w3.org/2000/svg" viewBox="49 -260 1128 1227">
  <g transform="translate(0, 707) scale(1, -1)">
    <path fill="black" d="M49 -260 109 -167H168V500Q155 502 148.0 513.0Q141 524 141 535Q141 549 148.5 558.5Q156 568 170 569L108 677H104V731H147Q145 740 142.0 753.5Q139 767 139 785Q139 812 149.5 843.5Q160 875 183.5 903.0Q207 931 246.5 949.0Q286 967 344 967Q391 967 440.0 956.5Q489 946 532.5 931.5Q576 917 608 905L1100 731H1123V677H1119L1056 569Q1085 566 1085 535Q1085 524 1078.0 513.0Q1071 502 1058 500V-167H1117L1177 -260ZM168 731H1041L601 887Q570 899 527.5 913.0Q485 927 437.5 937.5Q390 948 344 948Q292 948 256.0 932.0Q220 916 199.0 891.0Q178 866 168.5 837.5Q159 809 159 785Q159 766 162.5 752.0Q166 738 168 731ZM124 696H1104V711H124ZM192 570H1035Q1051 597 1066.0 623.0Q1081 649 1096 677H130ZM175 519H1051Q1058 519 1061.5 524.0Q1065 529 1065 535Q1065 550 1051 550H175Q160 550 160 535Q160 529 164.0 524.0Q168 519 175 519ZM231 -167H995V499H231ZM85 -241H1141L1106 -187H1038V499H1014V-187H211V499H188V-187H120ZM546 -129V-87L568 0Q550 6 529.5 12.0Q509 18 494 31Q484 47 472.0 67.0Q460 87 451.0 105.0Q442 123 440 132H432Q425 136 410.0 149.0Q395 162 381.5 177.0Q368 192 364 200Q360 207 357.5 218.0Q355 229 355 241Q355 250 357.0 261.0Q359 272 368.0 280.0Q377 288 399 288L405 285Q407 308 415.0 334.5Q423 361 443.5 385.0Q464 409 504.5 425.5Q545 442 613 443Q681 442 721.0 425.5Q761 409 781.5 385.0Q802 361 810.0 334.5Q818 308 820 285L827 288Q849 288 858.0 280.0Q867 272 869.0 261.0Q871 250 871 241Q871 229 869.0 218.0Q867 207 862 200Q858 192 844.5 177.0Q831 162 816.0 149.0Q801 136 793 132H786Q784 123 775.0 105.0Q766 87 754.0 67.0Q742 47 731 31Q697 14 681.0 8.0Q665 2 657 0L680 -87V-129ZM426 288Q444 303 474.5 315.0Q505 327 567 327Q578 327 589.0 326.5Q600 326 613 325Q625 326 636.5 326.5Q648 327 658 327Q720 327 750.5 315.0Q781 303 799 288Q795 317 779.5 348.0Q764 379 725.5 400.5Q687 422 613 424Q558 423 522.5 409.5Q487 396 467.5 376.0Q448 356 438.5 333.0Q429 310 426 288ZM577 17H649Q650 18 662.5 22.0Q675 26 691.0 32.0Q707 38 717 45Q728 62 739.5 82.5Q751 103 759.5 122.0Q768 141 768 151H790Q797 155 809.0 166.5Q821 178 832.0 191.0Q843 204 845 210Q851 221 851 241Q851 249 847.5 259.0Q844 269 832 269L803 253Q802 254 802.5 255.5Q803 257 802 258L795 265Q784 276 769.0 285.5Q754 295 728.0 301.0Q702 307 658 307Q648 307 636.5 307.0Q625 307 613 306Q600 307 589.0 307.0Q578 307 567 307Q524 307 497.5 301.0Q471 295 456.5 285.5Q442 276 431 265L423 258V253L394 269Q382 269 378.5 259.0Q375 249 375 241Q375 232 376.0 223.5Q377 215 381 210Q383 204 393.5 191.0Q404 178 416.5 166.5Q429 155 436 151H458Q459 141 467.0 122.0Q475 103 486.5 82.5Q498 62 508 45Q519 37 540.0 29.5Q561 22 577 17ZM580 126V245Q579 247 577.5 250.0Q576 253 574 256L535 261V273L585 275L599 249V146H626V249L640 275L691 273V261L652 256Q651 253 649.0 250.0Q647 247 646 245V126ZM711 199Q690 199 675.5 204.5Q661 210 657 213V230Q665 238 680.0 243.5Q695 249 711 249Q734 249 747.5 241.5Q761 234 770 229V216Q762 210 747.0 204.5Q732 199 711 199ZM514 199Q493 199 478.5 204.5Q464 210 456 216V229Q464 234 477.5 241.5Q491 249 514 249Q531 249 545.5 243.5Q560 238 568 230V213Q564 210 549.5 204.5Q535 199 514 199ZM515 216Q523 216 523 225Q523 233 515 233H514Q506 233 506 225Q506 216 515 216ZM711 216Q720 216 720 225Q720 233 711 233Q702 233 702 225Q702 216 711 216ZM729 215Q737 217 742.0 218.5Q747 220 753 221V224Q749 226 743.5 228.5Q738 231 730 232Q731 229 731 225Q731 218 729 215ZM496 215Q494 221 494 225Q494 227 494.5 228.5Q495 230 495 232Q487 231 482.0 228.5Q477 226 473 224V221Q478 220 483.5 218.5Q489 217 496 215ZM692 216Q690 222 690 225Q690 227 692 231Q678 228 673 225V222Q675 221 680.0 219.5Q685 218 692 216ZM534 216Q541 218 546.0 219.5Q551 221 553 222V225Q547 228 534 231Q535 229 535 225Q535 219 534 216ZM613 73Q590 73 569.5 75.0Q549 77 538 78V95Q548 97 557.5 98.5Q567 100 571 101Q578 103 584.5 104.5Q591 106 598 112Q605 108 608.5 106.5Q612 105 613 105Q614 105 617.5 106.5Q621 108 628 112Q634 106 641.0 104.5Q648 103 655 101Q659 100 668.5 98.5Q678 97 688 95V78Q678 77 657.0 75.0Q636 73 613 73ZM613 85 672 87V88Q659 89 654.0 89.0Q649 89 629 94Q625 91 620.5 90.5Q616 90 613 91Q610 90 605.5 90.5Q601 91 597 94Q577 89 572.0 89.0Q567 89 553 88V87ZM565 -110H660V-87L638 -2H588L565 -87Z" />
  </g>
</svg>