<svg xmlns="http://www.w3.org/2000/svg" viewBox="49 -260 430 1230">
  <g transform="translate(0, 710) scale(1, -1)">
    <path fill="black" d="M49 -260V734H81L94 756Q84 764 84 779Q84 798 103 807Q94 823 88.0 840.0Q82 857 82 879Q82 908 91.5 928.5Q101 949 114 970H117Q130 949 139.0 928.5Q148 908 148 879Q148 857 142.5 840.5Q137 824 128 807Q147 798 147 779Q147 764 137 756L150 734H180L193 756Q183 764 183 779Q183 799 201 807Q192 823 186.5 840.0Q181 857 181 879Q181 908 190.0 928.5Q199 949 212 970H215Q228 949 237.5 928.5Q247 908 247 879Q247 857 241.5 840.5Q236 824 227 807Q246 798 246 779Q246 764 235 756L249 734H278L292 756Q282 764 282 779Q282 799 300 807Q291 823 285.0 840.0Q279 857 279 879Q279 908 288.5 928.5Q298 949 311 970H314Q327 949 336.5 928.5Q346 908 346 879Q346 857 340.0 840.5Q334 824 326 807Q334 803 339.0 796.0Q344 789 344 779Q344 764 334 756L348 734H377L390 756Q380 764 380 779Q380 798 398 807Q390 823 384.0 840.0Q378 857 378 879Q378 908 387.5 928.5Q397 949 410 970H413Q426 949 435.0 928.5Q444 908 444 879Q444 857 438.5 840.5Q433 824 424 807Q443 798 443 779Q443 764 433 756L446 734H479V-260ZM411 823Q424 846 425 879Q424 910 411 935Q398 910 397 879Q398 846 411 823ZM313 823Q326 847 326 879Q326 909 313 935Q299 910 299 879Q299 846 313 823ZM214 823Q227 846 228 879Q227 910 214 935Q201 910 200 879Q201 846 214 823ZM115 823Q122 834 125.0 848.5Q128 863 129 879Q128 895 125.0 909.0Q122 923 115 935Q102 909 102 879Q102 847 115 823ZM116 767Q127 767 127 779Q127 791 116 791Q104 791 104 779Q104 767 116 767ZM214 767Q226 767 226 779Q226 791 214 791Q203 791 203 779Q203 767 214 767ZM313 767Q325 767 325 779Q325 784 321.5 787.5Q318 791 313 791Q309 791 305.0 787.5Q301 784 301 779Q301 767 313 767ZM412 767Q423 767 423 779Q423 791 412 791Q400 791 400 779Q400 767 412 767ZM104 734H127L119 748H112ZM202 734H226L217 748H211ZM301 734H325L316 748H310ZM399 734H423L415 748H408ZM68 693H459V714H68ZM68 305 440 674H68ZM87 296H459V665ZM68 236H459V277H68ZM68 176H459V217H68ZM68 -241H459V157H68Z" />
  </g>
</svg>