<svg xmlns="http://www.w3.org/2000/svg" viewBox="49 -260 1238 1230">
  <g transform="translate(0, 710) scale(1, -1)">
    <path fill="black" d="M459 -260V353H405L314 335H197L115 371L49 434L76 474L149 423Q159 418 182.0 410.5Q205 403 223 398L326 407L323 422Q320 422 308.5 421.0Q297 420 285.5 419.5Q274 419 270 419Q262 419 245.5 420.5Q229 422 212.0 425.5Q195 429 185 434L195 485Q199 484 212.0 482.0Q225 480 240.0 479.0Q255 478 265 478Q274 478 288.5 479.5Q303 481 317.0 482.5Q331 484 336 485L399 457L459 459V734H491L504 756Q495 765 495 779Q495 799 513 807Q504 823 498.0 840.0Q492 857 492 879Q492 908 501.5 928.5Q511 949 524 970H527Q540 949 549.5 928.5Q559 908 559 879Q559 857 553.0 840.5Q547 824 539 807Q547 803 552.0 796.0Q557 789 557 779Q557 764 547 756L561 734H590L603 756Q593 764 593 779Q593 798 611 807Q603 823 597.0 840.0Q591 857 591 879Q591 908 600.5 928.5Q610 949 623 970H625Q639 949 648.0 928.5Q657 908 657 879Q657 857 651.5 840.5Q646 824 637 807Q656 798 656 779Q656 764 646 756L659 734H688L702 756Q692 764 692 779Q692 799 710 807Q701 823 695.0 840.0Q689 857 689 879Q689 908 698.5 928.5Q708 949 721 970H724Q737 949 746.5 928.5Q756 908 756 879Q756 857 750.5 840.5Q745 824 736 807Q754 799 754 779Q754 764 744 756L758 734H787L800 756Q791 764 791 779Q791 799 809 807Q800 823 794.0 840.0Q788 857 788 879Q788 908 797.5 928.5Q807 949 820 970H823Q836 949 845.0 928.5Q854 908 854 879Q854 857 848.5 840.5Q843 824 834 807Q853 798 853 779Q853 764 843 756L856 734H889V477L1096 475L1107 483L1129 820H1264L1287 386L1261 353H889V-260ZM821 823Q828 834 831.0 848.5Q834 863 835 879Q834 895 831.0 909.0Q828 923 821 935Q808 909 808 879Q808 847 821 823ZM723 823Q736 847 736 879Q736 909 723 935Q709 910 709 879Q709 846 723 823ZM624 823Q637 846 638 879Q637 910 624 935Q611 910 610 879Q611 846 624 823ZM525 823Q539 846 539 879Q539 910 525 935Q512 909 512 879Q512 847 525 823ZM199 354H313L403 372H1250L1267 396L1246 801H1148L1127 469L1110 455L805 458L392 438L332 465Q324 465 301.5 461.5Q279 458 265 458Q259 458 245.5 459.0Q232 460 220.0 461.0Q208 462 204 463L201 446Q217 440 239.0 438.0Q261 436 270 436Q275 436 289.5 436.5Q304 437 319.0 437.5Q334 438 338 438L346 392L222 382Q202 387 176.5 395.0Q151 403 140 410L79 452L68 437L122 389ZM822 767Q833 767 833 779Q833 791 822 791Q810 791 810 779Q810 767 822 767ZM723 767Q735 767 735 779Q735 784 731.5 787.5Q728 791 723 791Q719 791 715.0 787.5Q711 784 711 779Q711 767 723 767ZM625 767Q636 767 636 779Q636 791 625 791Q613 791 613 779Q613 767 625 767ZM526 767Q538 767 538 779Q538 784 534.5 787.5Q531 791 526 791Q522 791 518.0 787.5Q514 784 514 779Q514 767 526 767ZM514 734H538L529 748H522ZM810 734H833L825 748H818ZM711 734H735L726 748H720ZM612 734H636L627 748H621ZM479 693H869V714H479ZM479 460 643 468 851 674H479ZM671 469 710 471 806 478 869 477V665ZM498 296H869V353H554ZM479 305 526 353H479ZM479 236H869V277H479ZM479 176H869V217H479ZM479 -241H869V157H479Z" />
  </g>
</svg>