<svg xmlns="http://www.w3.org/2000/svg" viewBox="49 -260 1119 1227">
  <g transform="translate(0, 707) scale(1, -1)">
    <path fill="black" d="M49 -260V-17H85V724H49V967H218V923H999V967H1168V724H1132V-17H1168V-260H999V-17H1035V724H999V827H218V724H182V-17H218V-120H623V-17H659V610H756V-17H792V-260H623V-216H218V-260ZM68 -241H198V-197H643V-241H772V-36H736V591H679V-36H643V-139H198V-36H162V743H198V846H1019V743H1055V-36H1019V-241H1148V-36H1112V743H1148V948H1019V904H198V948H68V743H104V-36H68ZM1036 760V931H1131V760ZM86 760V931H181V760ZM1056 780H1111V911H1056ZM105 780H161V911H105ZM329 384 246 710H626L543 384ZM343 404H529Q548 478 565.5 547.5Q583 617 602 691H270ZM258 -46Q258 5 280.5 44.5Q303 84 341.0 107.0Q379 130 425 130Q472 130 509.5 107.0Q547 84 569.5 44.5Q592 5 592 -46ZM279 -27H572Q570 7 550.5 38.5Q531 70 499.0 90.5Q467 111 425 111Q384 111 352.0 90.5Q320 70 301.0 38.5Q282 7 279 -27ZM1036 -224V-53H1131V-224ZM660 -224V-53H755V-224ZM86 -224V-53H181V-224ZM1056 -204H1111V-73H1056ZM680 -204H735V-73H680ZM105 -204H161V-73H105Z" />
  </g>
</svg>