<svg xmlns="http://www.w3.org/2000/svg" viewBox="49 -255 1339 1003">
  <g transform="translate(0, 493) scale(1, -1)">
    <path fill="black" d="M1286 748Q1322 748 1341.5 733.5Q1361 719 1361 703Q1361 689 1348.5 681.0Q1336 673 1317 670Q1353 631 1353 586Q1353 558 1341.5 534.0Q1330 510 1316 494H1388V55H1204V-255H233V55H49V494H121Q108 510 96.0 534.0Q84 558 84 586Q84 631 120 670Q101 673 88.5 681.0Q76 689 76 703Q76 719 95.5 733.5Q115 748 151 748Q191 748 214.5 726.0Q238 704 238 666Q238 644 226.5 624.5Q215 605 202 588Q192 576 186.0 565.5Q180 555 180 547Q180 534 189.0 518.5Q198 503 207 494H309Q296 510 284.0 534.0Q272 558 272 586Q272 631 308 670Q289 673 276.5 681.0Q264 689 264 703Q264 719 283.5 733.5Q303 748 339 748Q379 748 402.5 726.0Q426 704 426 666Q426 644 414.5 624.5Q403 605 390 588Q380 576 374.0 565.5Q368 555 368 547Q368 534 377.0 518.5Q386 503 395 494H497Q484 510 472.0 534.0Q460 558 460 586Q460 631 496 670Q477 673 464.5 681.0Q452 689 452 703Q452 719 471.5 733.5Q491 748 527 748Q567 748 590.5 726.0Q614 704 614 666Q614 644 602.5 624.5Q591 605 578 588Q568 576 562.0 565.5Q556 555 556 547Q556 534 565.0 518.5Q574 503 583 494H666Q675 503 684.0 518.5Q693 534 693 547Q693 555 687.0 565.5Q681 576 671 588Q658 605 646.5 624.5Q635 644 635 666Q635 704 658.5 726.0Q682 748 722 748Q758 748 777.5 733.5Q797 719 797 703Q797 689 784.5 681.0Q772 673 753 670Q789 631 789 586Q789 558 777.5 534.0Q766 510 752 494H854Q863 503 872.0 518.5Q881 534 881 547Q881 555 875.0 565.5Q869 576 859 588Q846 605 834.5 624.5Q823 644 823 666Q823 704 846.5 726.0Q870 748 910 748Q946 748 965.5 733.5Q985 719 985 703Q985 689 972.5 681.0Q960 673 941 670Q977 631 977 586Q977 558 965.5 534.0Q954 510 940 494H1042Q1051 503 1060.0 518.5Q1069 534 1069 547Q1069 555 1063.0 565.5Q1057 576 1047 588Q1034 605 1022.5 624.5Q1011 644 1011 666Q1011 704 1034.5 726.0Q1058 748 1098 748Q1134 748 1153.5 733.5Q1173 719 1173 703Q1173 689 1160.5 681.0Q1148 673 1129 670Q1165 631 1165 586Q1165 558 1153.5 534.0Q1142 510 1128 494H1230Q1239 503 1248.0 518.5Q1257 534 1257 547Q1257 555 1251.0 565.5Q1245 576 1235 588Q1222 605 1210.5 624.5Q1199 644 1199 666Q1199 704 1222.5 726.0Q1246 748 1286 748ZM1273 474Q1296 494 1315.0 525.0Q1334 556 1334 586Q1334 604 1322.0 629.0Q1310 654 1287 670V686Q1310 686 1325.5 690.5Q1341 695 1341 703Q1341 712 1326.5 720.0Q1312 728 1286 728Q1255 728 1237.0 711.5Q1219 695 1219 666Q1219 649 1229.5 632.0Q1240 615 1251 600Q1262 586 1269.5 573.0Q1277 560 1277 547Q1277 528 1263.5 507.0Q1250 486 1237 474H1085Q1108 494 1127.0 525.0Q1146 556 1146 586Q1146 604 1134.0 629.0Q1122 654 1099 670V686Q1122 686 1137.5 690.5Q1153 695 1153 703Q1153 712 1138.5 720.0Q1124 728 1098 728Q1067 728 1049.0 711.5Q1031 695 1031 666Q1031 649 1041.5 632.0Q1052 615 1063 600Q1074 586 1081.5 573.0Q1089 560 1089 547Q1089 528 1075.5 507.0Q1062 486 1049 474H897Q920 494 939.0 525.0Q958 556 958 586Q958 604 946.0 629.0Q934 654 911 670V686Q934 686 949.5 690.5Q965 695 965 703Q965 712 950.5 720.0Q936 728 910 728Q879 728 861.0 711.5Q843 695 843 666Q843 649 853.5 632.0Q864 615 875 600Q886 586 893.5 573.0Q901 560 901 547Q901 528 887.5 507.0Q874 486 861 474H709Q732 494 751.0 525.0Q770 556 770 586Q770 604 758.0 629.0Q746 654 723 670V686Q746 686 761.5 690.5Q777 695 777 703Q777 712 762.5 720.0Q748 728 722 728Q691 728 673.0 711.5Q655 695 655 666Q655 649 665.5 632.0Q676 615 687 600Q698 586 705.5 573.0Q713 560 713 547Q713 528 699.5 507.0Q686 486 673 474H576Q563 486 549.5 507.0Q536 528 536 547Q536 560 544.0 573.0Q552 586 562 600Q573 615 583.5 632.0Q594 649 594 666Q594 695 576.5 711.5Q559 728 527 728Q501 728 486.5 720.0Q472 712 472 703Q472 695 488.0 690.5Q504 686 526 686V670Q504 654 491.5 629.0Q479 604 479 586Q479 556 498.0 525.0Q517 494 540 474H388Q375 486 361.5 507.0Q348 528 348 547Q348 560 356.0 573.0Q364 586 374 600Q385 615 395.5 632.0Q406 649 406 666Q406 695 388.5 711.5Q371 728 339 728Q313 728 298.5 720.0Q284 712 284 703Q284 695 300.0 690.5Q316 686 338 686V670Q316 654 303.5 629.0Q291 604 291 586Q291 556 310.0 525.0Q329 494 352 474H200Q187 486 173.5 507.0Q160 528 160 547Q160 560 168.0 573.0Q176 586 186 600Q197 615 207.5 632.0Q218 649 218 666Q218 695 200.5 711.5Q183 728 151 728Q125 728 110.5 720.0Q96 712 96 703Q96 695 112.0 690.5Q128 686 150 686V670Q128 654 115.5 629.0Q103 604 103 586Q103 556 122.0 525.0Q141 494 164 474H68V74H252V-236H1184V74H1368V474ZM131 410H1305V131H1184V285H252V131H131ZM151 150H233V304H1204V150H1286V390H151ZM315 227H1121V-176H315ZM335 208V-156H1102V208Z" />
  </g>
</svg>