<svg xmlns="http://www.w3.org/2000/svg" viewBox="49 -233 1339 981">
  <g transform="translate(0, 515) scale(1, -1)">
    <path fill="black" d="M49 -233V494H125Q112 510 100.0 534.0Q88 558 88 586Q88 631 124 670Q105 673 92.5 681.0Q80 689 80 703Q80 719 99.5 733.5Q119 748 155 748Q195 748 218.5 726.0Q242 704 242 666Q242 644 230.5 624.5Q219 605 206 588Q196 576 190.0 565.5Q184 555 184 547Q184 534 193.0 518.5Q202 503 211 494H313Q300 510 288.0 534.0Q276 558 276 586Q276 631 312 670Q293 673 280.5 681.0Q268 689 268 703Q268 719 287.5 733.5Q307 748 343 748Q383 748 406.5 726.0Q430 704 430 666Q430 644 418.5 624.5Q407 605 394 588Q384 576 378.0 565.5Q372 555 372 547Q372 534 381.0 518.5Q390 503 399 494H501Q488 510 476.0 534.0Q464 558 464 586Q464 631 500 670Q481 673 468.5 681.0Q456 689 456 703Q456 719 475.5 733.5Q495 748 531 748Q571 748 594.5 726.0Q618 704 618 666Q618 644 606.5 624.5Q595 605 582 588Q572 576 566.0 565.5Q560 555 560 547Q560 534 569.0 518.5Q578 503 587 494H689Q676 510 664.0 534.0Q652 558 652 586Q652 631 688 670Q669 673 656.5 681.0Q644 689 644 703Q644 719 663.5 733.5Q683 748 719 748Q759 748 782.5 726.0Q806 704 806 666Q806 644 794.5 624.5Q783 605 770 588Q760 576 754.0 565.5Q748 555 748 547Q748 534 757.0 518.5Q766 503 775 494H877Q864 510 852.0 534.0Q840 558 840 586Q840 631 876 670Q857 673 844.5 681.0Q832 689 832 703Q832 719 851.5 733.5Q871 748 907 748Q947 748 970.5 726.0Q994 704 994 666Q994 644 982.5 624.5Q971 605 958 588Q948 576 942.0 565.5Q936 555 936 547Q936 534 945.0 518.5Q954 503 963 494H1065Q1052 510 1040.0 534.0Q1028 558 1028 586Q1028 631 1064 670Q1045 673 1032.5 681.0Q1020 689 1020 703Q1020 719 1039.5 733.5Q1059 748 1095 748Q1135 748 1158.5 726.0Q1182 704 1182 666Q1182 644 1170.5 624.5Q1159 605 1146 588Q1136 576 1130.0 565.5Q1124 555 1124 547Q1124 534 1133.0 518.5Q1142 503 1151 494H1253Q1240 510 1228.0 534.0Q1216 558 1216 586Q1216 631 1252 670Q1233 673 1220.5 681.0Q1208 689 1208 703Q1208 719 1227.5 733.5Q1247 748 1283 748Q1323 748 1346.5 726.0Q1370 704 1370 666Q1370 644 1358.5 624.5Q1347 605 1333 588Q1324 576 1318.0 565.5Q1312 555 1312 547Q1312 534 1321.0 518.5Q1330 503 1339 494H1388V-233H957V-137H1286V390H151V-137H480V-233ZM68 -213H460V-157H131V410H1305V-157H976V-213H1368V474H1332Q1319 486 1305.5 507.0Q1292 528 1292 547Q1292 560 1300.0 573.0Q1308 586 1318 600Q1329 615 1339.5 632.0Q1350 649 1350 666Q1350 695 1332.5 711.5Q1315 728 1283 728Q1257 728 1242.5 720.0Q1228 712 1228 703Q1228 695 1243.5 690.5Q1259 686 1282 686V670Q1260 654 1247.5 629.0Q1235 604 1235 586Q1235 556 1254.0 525.0Q1273 494 1296 474H1144Q1131 486 1117.5 507.0Q1104 528 1104 547Q1104 560 1112.0 573.0Q1120 586 1130 600Q1141 615 1151.5 632.0Q1162 649 1162 666Q1162 695 1144.5 711.5Q1127 728 1095 728Q1069 728 1054.5 720.0Q1040 712 1040 703Q1040 695 1055.5 690.5Q1071 686 1094 686V670Q1072 654 1059.5 629.0Q1047 604 1047 586Q1047 556 1066.0 525.0Q1085 494 1108 474H956Q943 486 929.5 507.0Q916 528 916 547Q916 560 924.0 573.0Q932 586 942 600Q953 615 963.5 632.0Q974 649 974 666Q974 695 956.5 711.5Q939 728 907 728Q881 728 866.5 720.0Q852 712 852 703Q852 695 867.5 690.5Q883 686 906 686V670Q884 654 871.5 629.0Q859 604 859 586Q859 556 878.0 525.0Q897 494 920 474H768Q755 486 741.5 507.0Q728 528 728 547Q728 560 736.0 573.0Q744 586 754 600Q765 615 775.5 632.0Q786 649 786 666Q786 695 768.5 711.5Q751 728 719 728Q693 728 678.5 720.0Q664 712 664 703Q664 695 680.0 690.5Q696 686 718 686V670Q696 654 683.5 629.0Q671 604 671 586Q671 556 690.0 525.0Q709 494 732 474H580Q567 486 553.5 507.0Q540 528 540 547Q540 560 548.0 573.0Q556 586 566 600Q577 615 587.5 632.0Q598 649 598 666Q598 695 580.5 711.5Q563 728 531 728Q505 728 490.5 720.0Q476 712 476 703Q476 695 492.0 690.5Q508 686 530 686V670Q508 654 495.5 629.0Q483 604 483 586Q483 556 502.0 525.0Q521 494 544 474H392Q379 486 365.5 507.0Q352 528 352 547Q352 560 360.0 573.0Q368 586 378 600Q389 615 399.5 632.0Q410 649 410 666Q410 695 392.5 711.5Q375 728 343 728Q317 728 302.5 720.0Q288 712 288 703Q288 695 304.0 690.5Q320 686 342 686V670Q320 654 307.5 629.0Q295 604 295 586Q295 556 314.0 525.0Q333 494 356 474H204Q191 486 177.5 507.0Q164 528 164 547Q164 560 172.0 573.0Q180 586 190 600Q201 615 211.5 632.0Q222 649 222 666Q222 695 204.5 711.5Q187 728 155 728Q129 728 114.5 720.0Q100 712 100 703Q100 695 116.0 690.5Q132 686 154 686V670Q132 654 119.5 629.0Q107 604 107 586Q107 556 126.0 525.0Q145 494 168 474H68Z" />
  </g>
</svg>