<svg xmlns="http://www.w3.org/2000/svg" viewBox="49 -260 1406 1227">
  <g transform="translate(0, 707) scale(1, -1)">
    <path fill="black" d="M49 -260 109 -167H165V239L80 273L88 292L165 261V339L80 374L88 392L165 361V478L80 513L88 531L165 500V578L80 613L88 631L165 600V942H185V592L340 529V942H359V521L510 460V500Q497 502 489.5 513.0Q482 524 482 535Q482 549 490.0 558.5Q498 568 512 569L450 677H446V731H489Q486 740 483.5 753.5Q481 767 481 785Q481 812 491.5 843.5Q502 875 525.5 903.0Q549 931 588.5 949.0Q628 967 686 967Q733 967 781.5 955.0Q830 943 874.5 927.0Q919 911 950 899L1378 731H1401V677H1397L1334 569Q1363 566 1363 535Q1363 524 1356.5 513.0Q1350 502 1336 500V-167H1395L1455 -260ZM510 731H1330L943 880Q912 892 869.0 908.0Q826 924 778.5 936.0Q731 948 686 948Q634 948 598.0 932.0Q562 916 540.5 891.0Q519 866 509.5 837.5Q500 809 500 785Q500 766 503.5 752.0Q507 738 510 731ZM465 696H1382V711H465ZM534 570H1313Q1329 597 1344.0 623.0Q1359 649 1375 677H472ZM340 429V508L185 570V492ZM517 519H1329Q1336 519 1340.0 524.0Q1344 529 1344 535Q1344 550 1329 550H517Q502 550 502 535Q502 529 506.0 524.0Q510 519 517 519ZM510 360V439L359 500V421ZM85 -241H1419L1384 -187H1316V499H1292V-187H553V499H529V-187H120ZM573 -167H1273V499H573ZM340 290V408L185 470V353ZM510 221V339L359 400V282ZM340 190V269L185 331V253ZM510 121V200L359 261V182ZM185 -167H340V168L185 231ZM359 -167H510V100L359 161Z" />
  </g>
</svg>