<svg xmlns="http://www.w3.org/2000/svg" viewBox="49 -260 909 1134">
  <g transform="translate(0, 614) scale(1, -1)">
    <path fill="black" d="M49 -260 143 -153H161V-14Q161 -3 165.0 6.0Q169 15 185 15Q202 15 205.5 6.0Q209 -3 209 -14V-153H221V-14Q221 -3 225.0 6.0Q229 15 245 15Q262 15 265.5 6.0Q269 -3 269 -14V-153H281V-14Q281 -3 285.0 6.0Q289 15 305 15Q322 15 325.5 6.0Q329 -3 329 -14V-153H340V403Q317 408 286.5 419.0Q256 430 225 444Q187 463 159.5 483.5Q132 504 132 518Q132 526 137.0 532.5Q142 539 155 539Q162 539 170.5 534.0Q179 529 189 521Q213 505 246 487Q268 476 295.0 466.0Q322 456 340 451V467Q319 473 294.0 482.0Q269 491 245 503Q207 522 179.0 542.5Q151 563 151 577Q151 585 156.0 591.5Q161 598 174 598Q181 598 189.5 593.0Q198 588 209 580Q220 573 235.0 564.0Q250 555 266 546Q283 538 303.0 529.5Q323 521 340 516V531Q327 536 312.5 542.0Q298 548 284 555Q246 574 218.0 594.0Q190 614 190 628Q190 637 195.0 643.5Q200 650 213 650Q220 650 228.5 644.5Q237 639 248 631Q259 624 274.0 615.5Q289 607 305 598Q313 594 322.0 590.0Q331 586 340 582V618H361Q358 638 348.0 655.0Q338 672 325 684H220V757H278Q305 757 331.0 770.5Q357 784 384 802Q422 825 472.0 849.5Q522 874 589 874Q657 874 706.5 849.5Q756 825 793 802Q821 784 846.5 770.5Q872 757 899 757H958V684H853Q840 672 829.5 655.0Q819 638 816 618H837V-153H945V-260ZM239 704H938V737H899Q867 737 839.5 751.5Q812 766 783 785Q746 809 700.5 831.5Q655 854 589 854Q522 854 477.0 831.5Q432 809 395 785Q365 766 337.5 751.5Q310 737 278 737H239ZM381 618H797Q799 636 807.0 653.5Q815 671 826 684H352Q376 655 381 618ZM340 550V563Q317 572 297 583Q259 602 238 617Q228 623 221.5 627.5Q215 632 213 632Q208 632 208 628Q208 619 233.0 602.5Q258 586 292 570Q304 565 316.0 560.0Q328 555 340 550ZM360 -153H392V561H785V-153H817V598H360ZM340 485V497Q322 502 299.5 511.5Q277 521 258 531Q239 541 224.5 549.5Q210 558 199 565Q189 572 182.5 576.5Q176 581 174 581Q169 581 169 577Q169 567 194.0 551.5Q219 536 252 519Q275 509 298.0 500.0Q321 491 340 485ZM412 -153H766V541H412ZM340 421V433Q322 437 292.5 448.0Q263 459 238 472Q219 482 205.0 490.5Q191 499 180 506Q158 521 155 521Q149 521 149 518Q149 508 174.0 492.0Q199 476 233 460Q262 447 290.0 436.5Q318 426 340 421ZM180 -153H190V-13Q190 -4 185 -4Q180 -4 180 -13ZM240 -153H250V-13Q250 -4 245 -4Q240 -4 240 -13ZM300 -153H311V-13Q311 -4 305 -4Q300 -4 300 -13ZM94 -241H926V-172H154Z" />
  </g>
</svg>