<svg xmlns="http://www.w3.org/2000/svg" viewBox="49 -260 743 1153">
  <g transform="translate(0, 633) scale(1, -1)">
    <path fill="black" d="M49 -260V893H155V688Q267 818 421 818Q576 818 686 688V893H792V-260ZM68 -241H773V874H706V-173H136V874H68ZM155 532Q182 569 218.0 602.0Q254 635 303.5 655.5Q353 676 421 676Q489 676 538.0 655.5Q587 635 623.0 602.5Q659 570 686 532V657Q660 692 620.5 724.0Q581 756 531.0 777.0Q481 798 421 798Q361 798 310.5 777.0Q260 756 220.5 723.5Q181 691 155 656ZM161 506H680Q655 544 620.5 578.5Q586 613 537.5 635.0Q489 657 421 657Q354 657 305.0 635.0Q256 613 221.5 578.5Q187 544 161 506ZM155 420H686V487H155ZM155 334H686V401H155ZM155 -154H411V315H155ZM431 -154H686V315H431Z" />
  </g>
</svg>