<svg xmlns="http://www.w3.org/2000/svg" viewBox="49 -271 1164 938">
  <g transform="translate(0, 396) scale(1, -1)">
    <path fill="black" d="M631 -271Q592 -271 569.0 -204.0Q546 -137 546 -28Q546 45 555.5 117.5Q565 190 577.0 252.5Q589 315 597 357Q577 363 562.5 378.5Q548 394 543 415Q540 432 531.5 451.5Q523 471 509 486Q499 497 480.0 509.0Q461 521 447 526Q364 509 293.0 480.5Q222 452 170 421V-260H49V487Q183 570 324.0 618.5Q465 667 631 667Q798 667 938.5 618.5Q1079 570 1213 487V-260H1092V421Q1040 452 969.0 480.5Q898 509 815 526Q802 521 782.5 509.0Q763 497 752 486Q739 471 730.5 451.5Q722 432 718 415Q714 394 699.5 378.5Q685 363 665 357Q673 315 685.0 252.5Q697 190 706.5 117.5Q716 45 716 -28Q716 -137 693.0 -204.0Q670 -271 631 -271ZM68 -241H150V432Q205 466 280.5 496.0Q356 526 445.5 545.5Q535 565 631 565Q727 565 816.5 545.5Q906 526 981.5 496.0Q1057 466 1111 432V-241H1193V477Q1065 555 929.5 601.0Q794 647 631 647Q469 647 332.5 601.0Q196 555 68 477ZM631 -252Q657 -252 676.5 -192.0Q696 -132 696 -28Q696 23 690.0 80.0Q684 137 675.0 193.0Q666 249 657.0 296.0Q648 343 641 374Q664 376 680.0 389.0Q696 402 699 418Q703 438 712.5 460.0Q722 482 738 499Q746 507 758.0 516.0Q770 525 783 532Q746 539 708.0 542.5Q670 546 631 546Q554 546 479 532Q492 525 504.5 516.0Q517 507 524 499Q540 482 549.5 460.0Q559 438 563 418Q566 402 582.0 389.0Q598 376 621 374Q614 343 604.5 296.0Q595 249 586.0 193.0Q577 137 571.0 80.0Q565 23 565 -28Q565 -132 585.5 -192.0Q606 -252 631 -252Z" />
  </g>
</svg>