<svg xmlns="http://www.w3.org/2000/svg" viewBox="49 -260 1475 1149">
  <g transform="translate(0, 629) scale(1, -1)">
    <path fill="black" d="M49 -260 122 -123H151V642Q147 648 138.0 663.0Q129 678 129 686Q129 694 133.5 709.0Q138 724 142 735H93V797H194Q205 802 215.5 807.0Q226 812 238 817Q288 840 352.0 864.5Q416 889 492 889Q539 889 581.5 872.5Q624 856 657.5 832.0Q691 808 710 785H863Q883 808 916.5 832.0Q950 856 992.5 872.5Q1035 889 1081 889Q1157 889 1221.5 864.5Q1286 840 1335 817Q1347 812 1358.0 807.0Q1369 802 1379 797H1480V735H1431Q1435 725 1439.5 709.5Q1444 694 1444 686Q1444 678 1435.5 663.0Q1427 648 1422 642V-123H1452L1524 -260ZM690 743H883Q903 765 934.0 789.0Q965 813 1003.0 829.5Q1041 846 1080 846Q1129 846 1178.0 832.5Q1227 819 1270.0 800.5Q1313 782 1344 766L1367 754H1460V777H1376Q1366 782 1353.0 788.0Q1340 794 1327 799Q1279 822 1216.5 845.5Q1154 869 1081 869Q1034 869 993.0 852.5Q952 836 921.0 812.0Q890 788 873 766H701Q684 788 653.0 812.0Q622 836 581.0 852.5Q540 869 492 869Q419 869 357.0 845.5Q295 822 246 799Q233 794 220.5 788.0Q208 782 197 777H113V754H207L229 766Q261 782 304.0 800.5Q347 819 396.0 832.5Q445 846 494 846Q533 846 570.5 829.5Q608 813 639.5 789.0Q671 765 690 743ZM214 -123H304Q304 -93 309.5 -65.5Q315 -38 338 -17Q363 6 396.0 19.5Q429 33 455 55Q469 67 483.0 89.5Q497 112 516 140Q528 158 550.5 176.5Q573 195 607 195Q623 195 636.0 191.0Q649 187 656 182V21H609V-123H679V640Q675 646 666.5 661.0Q658 676 658 684Q658 692 662.5 708.0Q667 724 670 734Q658 748 632.5 770.0Q607 792 571.5 809.5Q536 827 494 827Q445 827 398.0 813.5Q351 800 310.0 781.5Q269 763 238 748L222 740Q225 731 230.5 713.0Q236 695 236 686Q236 678 227.0 662.5Q218 647 214 642ZM894 -123H964V21H917V182Q924 187 937.0 191.0Q950 195 966 195Q1001 195 1023.0 176.5Q1045 158 1058 140Q1076 112 1090.0 89.5Q1104 67 1118 55Q1144 33 1177.5 19.5Q1211 6 1235 -17Q1259 -38 1264.0 -65.5Q1269 -93 1269 -123H1359V642Q1355 647 1346.0 662.5Q1337 678 1337 686Q1337 695 1342.5 712.5Q1348 730 1352 740L1335 748Q1305 763 1264.0 781.5Q1223 800 1176.0 813.5Q1129 827 1080 827Q1038 827 1002.0 809.5Q966 792 940.5 770.0Q915 748 902 734Q906 724 911.0 708.0Q916 692 916 684Q916 676 907.5 661.0Q899 646 894 640ZM1378 -123H1403V650Q1410 659 1417.0 670.5Q1424 682 1424 686Q1424 694 1419.0 710.0Q1414 726 1411 735H1370Q1367 726 1362.0 710.0Q1357 694 1357 686Q1357 682 1364.0 670.5Q1371 659 1378 650ZM170 -123H195V650Q202 659 209.0 670.5Q216 682 216 686Q216 694 211.0 710.0Q206 726 203 735H162Q159 726 154.0 710.0Q149 694 149 686Q149 682 156.0 670.5Q163 659 170 650ZM850 -123H875V648Q882 657 889.0 668.5Q896 680 896 684Q896 689 892.5 701.0Q889 713 886 723H838Q835 713 832.0 701.0Q829 689 829 684Q829 680 836.0 668.5Q843 657 850 648ZM743 -123H831V640Q827 645 818.0 660.5Q809 676 809 684Q809 690 811.5 701.5Q814 713 818 723H754Q758 713 761.0 701.5Q764 690 764 684Q764 676 755.5 660.5Q747 645 743 640ZM699 -123H723V648Q730 657 737.5 668.5Q745 680 745 684Q745 689 741.5 701.0Q738 713 734 723H687Q684 713 680.5 701.0Q677 689 677 684Q677 680 684.5 668.5Q692 657 699 648ZM984 -123H1250Q1249 -96 1245.0 -72.0Q1241 -48 1222 -31Q1197 -7 1164.0 6.0Q1131 19 1105 40Q1089 54 1074.5 77.5Q1060 101 1042 129Q1032 144 1013.5 160.0Q995 176 966 176Q945 176 937 170V40H984ZM324 -123H589V40H637V170Q633 172 625.5 174.0Q618 176 607 176Q578 176 559.5 160.0Q541 144 531 129Q513 101 499.0 77.5Q485 54 468 40Q442 19 409.5 6.0Q377 -7 352 -31Q333 -48 328.5 -72.0Q324 -96 324 -123ZM85 -241H1488L1436 -142H138Z" />
  </g>
</svg>