<svg xmlns="http://www.w3.org/2000/svg" viewBox="49 -260 843 1189">
  <g transform="translate(0, 669) scale(1, -1)">
    <path fill="black" d="M49 -260V-126H114L226 302H291L381 796Q387 826 395.0 855.0Q403 884 417.0 905.0Q431 926 455 929H485Q509 926 523.5 905.0Q538 884 546.5 855.0Q555 826 560 796L649 302H715L827 -126H892V-260ZM402 803H538Q531 839 518.0 872.0Q505 905 482 910H458Q436 905 423.0 871.5Q410 838 402 803ZM311 302H629L542 784H399Q378 666 355.0 542.5Q332 419 311 302ZM134 -126H807L700 283H240ZM68 -241H872V-146H68Z" />
  </g>
</svg>