<svg xmlns="http://www.w3.org/2000/svg" viewBox="49 -260 869 1157">
  <g transform="translate(0, 637) scale(1, -1)">
    <path fill="black" d="M49 -260V-115H129V575Q129 629 150.5 685.5Q172 742 216.0 790.0Q260 838 326.5 867.5Q393 897 483 897Q573 897 639.5 867.5Q706 838 750.0 790.0Q794 742 815.5 685.5Q837 629 837 575V-115H918V-260ZM149 -115H818V575Q818 626 797.5 679.0Q777 732 735.5 777.0Q694 822 631.0 849.5Q568 877 483 877Q398 877 335.5 849.5Q273 822 231.5 777.0Q190 732 169.5 679.0Q149 626 149 575ZM68 -241H898V-135H68Z" />
  </g>
</svg>