<svg xmlns="http://www.w3.org/2000/svg" viewBox="49 -260 1204 1046">
  <g transform="translate(0, 526) scale(1, -1)">
    <path fill="black" d="M49 -260V786H1253V-260H1075V597H883V505L953 559V-168H979V-260H716V-168H748V559L817 505V597H484V505L554 559V-168H585V-260H322V-168H349V559L418 505V597H227V-260ZM68 -241H207V616H1095V-241H1233V766H68ZM837 496H864V597H837ZM438 496H465V597H438ZM368 175H535V517L484 477H420L368 517ZM767 175H934V517L881 477H818L767 517ZM368 -168H535V156H368ZM767 -168H934V156H767ZM736 -241H960V-188H736ZM342 -241H566V-188H342Z" />
  </g>
</svg>