<svg xmlns="http://www.w3.org/2000/svg" viewBox="49 -302 282 1228">
  <g transform="translate(0, 624) scale(1, -1)">
    <path fill="black" d="M190 -302Q131 -302 103.0 -250.0Q75 -198 74 -99Q74 -48 81.0 19.5Q88 87 98.0 158.0Q108 229 116 291Q124 347 130.5 395.5Q137 444 141.0 478.0Q145 512 145 524Q145 585 120.0 631.5Q95 678 49 702V732Q70 740 91.5 767.5Q113 795 132.0 836.5Q151 878 163 926H217Q230 878 248.5 836.5Q267 795 289.0 767.5Q311 740 331 732V702Q285 678 260.0 631.5Q235 585 235 524Q235 512 239.0 478.0Q243 444 250.0 395.5Q257 347 264 291Q272 229 282.0 158.0Q292 87 299.5 19.5Q307 -48 306 -99Q305 -198 277.0 -250.0Q249 -302 190 -302ZM88 733Q114 740 138.5 743.5Q163 747 190 747Q217 747 241.5 743.5Q266 740 292 733Q267 758 242.5 805.0Q218 852 202 907H178Q162 852 138.0 805.0Q114 758 88 733ZM190 -282Q240 -282 263.0 -231.5Q286 -181 286 -99Q287 -62 280.5 1.5Q274 65 264.0 140.0Q254 215 244 288Q237 342 230.5 391.0Q224 440 220.0 475.5Q216 511 216 524Q216 577 230.5 614.0Q245 651 265.5 675.0Q286 699 305 710Q277 718 248.5 722.5Q220 727 190 727Q160 727 132.0 722.5Q104 718 75 710Q94 699 114.5 675.0Q135 651 149.5 614.0Q164 577 164 524Q164 511 160.0 475.5Q156 440 149.5 391.0Q143 342 136 288Q126 215 116.0 140.0Q106 65 100.0 1.5Q94 -62 94 -99Q94 -181 117.5 -231.5Q141 -282 190 -282Z" />
  </g>
</svg>