<svg xmlns="http://www.w3.org/2000/svg" viewBox="49 -36 1098 712">
  <g transform="translate(0, 640) scale(1, -1)">
    <path fill="black" d="M67 -36V26Q96 33 131.5 42.5Q167 52 198.5 63.0Q230 74 245 84Q265 97 285.5 131.5Q306 166 324.5 209.0Q343 252 356 288Q363 305 369.5 321.0Q376 337 380 348Q397 386 421.5 430.0Q446 474 469 515Q450 521 437.5 532.0Q425 543 417 552H49V631H417Q428 645 450.5 660.5Q473 676 512 676Q548 676 570.0 657.0Q592 638 598 612Q604 638 626.0 657.0Q648 676 685 676Q723 676 746.0 660.5Q769 645 779 631H1147V552H779Q772 543 759.0 532.0Q746 521 727 515Q756 468 781.0 423.0Q806 378 821 350Q832 328 846.0 296.5Q860 265 874.0 232.0Q888 199 899.5 173.0Q911 147 916 135Q928 107 936.0 77.5Q944 48 951 25Q952 11 940.0 -7.0Q928 -25 915 -36H865Q846 -36 829.0 -28.0Q812 -20 799 -20Q778 -20 757.5 -27.0Q737 -34 712 -36H589V26Q618 32 652.5 41.5Q687 51 718.0 62.0Q749 73 764 83Q778 92 782.0 99.5Q786 107 786 115Q786 126 773.5 147.0Q761 168 742.5 194.0Q724 220 706.5 245.0Q689 270 680 287Q673 299 661.5 320.5Q650 342 637.0 365.5Q624 389 614.0 408.5Q604 428 601 437Q599 432 585.0 401.0Q571 370 550.0 327.0Q529 284 506 244Q499 231 483.0 208.5Q467 186 448.5 161.5Q430 137 415 117Q414 113 412.5 103.5Q411 94 411 83Q411 74 414.5 56.5Q418 39 422 25Q420 10 413.0 -6.0Q406 -22 389 -36H347Q328 -36 311.5 -28.0Q295 -20 282 -20Q260 -20 240.0 -27.0Q220 -34 195 -36ZM512 527Q539 527 560.0 544.0Q581 561 581 592Q581 623 560.0 639.5Q539 656 512 656Q475 656 456.0 639.5Q437 623 426 612H68V572H426Q437 560 456.0 543.5Q475 527 512 527ZM685 527Q721 527 740.5 543.5Q760 560 770 572H1128V612H770Q760 623 740.5 639.5Q721 656 685 656Q657 656 636.0 639.5Q615 623 615 592Q615 561 636.0 544.0Q657 527 685 527ZM85 -16H189Q211 -16 236.5 -8.5Q262 -1 282 -1Q298 -1 315.0 -8.5Q332 -16 351 -16H382Q399 -5 402 26Q401 31 396.0 51.0Q391 71 391 83Q391 93 393.0 105.0Q395 117 397 124Q413 144 431.5 168.5Q450 193 466.0 215.5Q482 238 489 251Q507 282 524.0 317.0Q541 352 555.5 383.0Q570 414 579.0 433.5Q588 453 588 453V454H613Q617 445 628.0 423.5Q639 402 652.5 376.0Q666 350 678.5 327.5Q691 305 698 294Q707 280 721.5 258.5Q736 237 751.0 214.0Q766 191 778.0 173.5Q790 156 793 149Q809 119 809 105Q809 91 773 66Q759 57 729.5 46.5Q700 36 665.5 26.5Q631 17 603 10V-16H706Q729 -16 754.0 -8.5Q779 -1 799 -1Q816 -1 833.0 -8.5Q850 -16 868 -16H907Q928 -2 932 26Q925 52 916.0 77.5Q907 103 897 129Q892 143 880.5 170.5Q869 198 855.0 230.0Q841 262 827.0 292.5Q813 323 803 343Q790 369 764.5 415.5Q739 462 709 510Q704 509 697.5 508.5Q691 508 685 508Q648 508 626.0 527.0Q604 546 598 572Q592 546 570.0 527.0Q548 508 512 508Q505 508 498.5 508.5Q492 509 486 510Q463 470 438.5 425.5Q414 381 397 342Q393 331 387.5 315.5Q382 300 375 283Q361 244 342.5 200.0Q324 156 303.0 120.0Q282 84 257 68Q243 59 213.0 48.0Q183 37 148.5 27.0Q114 17 85 10Z" />
  </g>
</svg>