<svg xmlns="http://www.w3.org/2000/svg" viewBox="49 -243 630 1144">
  <g transform="translate(0, 658) scale(1, -1)">
    <path fill="black" d="M438 -243V-188Q423 -187 404.5 -186.0Q386 -185 373 -183Q366 -194 356.5 -207.0Q347 -220 340 -230L180 -123L212 -77Q205 -68 196.0 -55.5Q187 -43 180 -32Q169 -36 156.0 -41.0Q143 -46 133 -50L61 128L113 148Q108 170 105.0 194.5Q102 219 100 233H49V425H100Q102 439 105.0 463.5Q108 488 113 510L61 529L133 708L180 690Q187 701 196.0 714.0Q205 727 212 735Q205 746 195.5 759.0Q186 772 180 781L340 889L373 840Q387 843 405.0 844.0Q423 845 438 846V901H631V846H679V790H430Q376 790 326.0 760.0Q276 730 236.5 671.5Q197 613 174.0 527.0Q151 441 151 329Q151 217 174.0 131.5Q197 46 236.5 -12.5Q276 -71 326.0 -101.0Q376 -131 430 -131H679V-188H631V-243ZM458 -224H611V-168H659V-151H430Q373 -151 319.5 -120.0Q266 -89 223.5 -28.0Q181 33 156.0 122.5Q131 212 131 329Q131 446 156.0 535.5Q181 625 223.5 686.0Q266 747 319.5 778.0Q373 809 430 809H659V827H611V882H458V826Q438 826 409.0 824.5Q380 823 363 819L334 861L208 775Q215 765 223.0 754.0Q231 743 237 733Q227 723 212.5 702.5Q198 682 189 666L144 683L86 541L135 522Q131 503 127.0 479.5Q123 456 120.5 435.5Q118 415 117 406H68V252H117Q118 243 120.5 222.5Q123 202 127.0 178.5Q131 155 135 136L86 118Q101 80 114.5 47.0Q128 14 144 -24Q155 -20 167.5 -15.5Q180 -11 189 -7Q198 -23 212.5 -44.0Q227 -65 237 -75L208 -117L334 -203L363 -160Q381 -164 410.0 -166.0Q439 -168 458 -168Z" />
  </g>
</svg>