<svg xmlns="http://www.w3.org/2000/svg" viewBox="49 -243 630 1144">
  <g transform="translate(0, 658) scale(1, -1)">
    <path fill="black" d="M97 -243V-188H49V-131H298Q351 -131 401.0 -101.0Q451 -71 490.5 -12.5Q530 46 553.5 131.5Q577 217 577 329Q577 441 553.5 527.0Q530 613 490.5 671.5Q451 730 401.0 760.0Q351 790 298 790H49V846H97V901H289V846Q305 845 323.0 844.0Q341 843 355 840L387 889L547 781Q541 772 532.0 759.0Q523 746 516 735Q523 727 532.0 714.0Q541 701 547 690L595 708L667 529L615 510Q620 488 623.0 463.5Q626 439 628 425H679V233H628Q627 219 623.5 194.5Q620 170 615 148L667 128L595 -50Q585 -46 572.0 -41.0Q559 -36 548 -32Q541 -43 532.0 -55.5Q523 -68 516 -77L547 -123L387 -230Q380 -220 371.5 -207.0Q363 -194 355 -183Q342 -185 323.5 -186.0Q305 -187 289 -188V-243ZM116 -224H270V-168Q290 -168 318.0 -166.0Q346 -164 364 -160L393 -203L520 -117L491 -75Q500 -65 514.5 -44.0Q529 -23 538 -7Q558 -15 584 -24Q599 14 612.5 47.0Q626 80 642 118L592 136Q597 155 600.5 178.5Q604 202 606.5 222.5Q609 243 610 252H659V406H610Q609 415 606.5 435.5Q604 456 600.5 479.5Q597 503 592 522L642 541L584 683L538 666Q529 682 514.5 702.5Q500 723 491 733Q497 743 505.0 754.0Q513 765 520 775L393 861L365 819Q347 823 318.5 824.5Q290 826 270 826V882H116V827H68V809H298Q355 809 408.5 778.0Q462 747 504.0 686.0Q546 625 571.0 535.5Q596 446 596 329Q596 212 571.0 122.5Q546 33 504.0 -28.0Q462 -89 408.5 -120.0Q355 -151 298 -151H68V-168H116Z" />
  </g>
</svg>