<svg xmlns="http://www.w3.org/2000/svg" viewBox="49 -243 418 1145">
  <g transform="translate(0, 659) scale(1, -1)">
    <path fill="black" d="M49 -243V-56H120V14H49V84H120V154H49V224H120V294H49V364H120V435H49V504H120V575H49V645H120V715H49V902H275V851H309V902H394V851H467V778H193V-120H467V-192H394V-243H309V-192H275V-243ZM68 734H120V851H255V882H68ZM328 851H374V882H328ZM140 -173H448V-139H173V798H448V832H140ZM68 594H120V625H68ZM68 454H120V485H68ZM68 314H120V345H68ZM68 174H120V205H68ZM68 34H120V64H68ZM68 -224H255V-192H120V-76H68ZM328 -224H374V-192H328Z" />
  </g>
</svg>