<svg xmlns="http://www.w3.org/2000/svg" viewBox="49 -243 418 1145">
  <g transform="translate(0, 659) scale(1, -1)">
    <path fill="black" d="M123 -243V-192H49V-120H323V778H49V851H123V902H208V851H241V902H467V715H396V645H467V575H396V504H467V435H396V364H467V294H396V224H467V154H396V84H467V14H396V-56H467V-243H241V-192H208V-243ZM142 851H188V882H142ZM396 734H448V882H261V851H396ZM68 -173H376V832H68V798H343V-139H68ZM396 594H448V625H396ZM396 454H448V485H396ZM396 314H448V345H396ZM396 174H448V205H396ZM396 34H448V64H396ZM261 -224H448V-76H396V-192H261ZM142 -224H188V-192H142Z" />
  </g>
</svg>