<svg xmlns="http://www.w3.org/2000/svg" viewBox="49 -24 1292 700">
  <g transform="translate(0, 652) scale(1, -1)">
    <path fill="black" d="M49 -24Q60 35 89.0 85.5Q118 136 156.5 176.5Q195 217 235.5 247.0Q276 277 311.5 295.5Q347 314 369 320L410 457Q405 465 399.5 477.0Q394 489 389 504H332Q324 497 307.5 488.5Q291 480 271 480Q246 480 231.0 494.5Q216 509 216 527Q216 545 231.0 559.5Q246 574 271 574Q291 574 307.5 565.5Q324 557 332 549H380V561Q380 587 391.0 613.5Q402 640 423.0 658.0Q444 676 474 676Q507 676 523.5 659.5Q540 643 545.5 622.0Q551 601 551 587Q551 577 549.0 568.0Q547 559 544 549H625V561Q625 587 635.5 613.5Q646 640 667.0 658.0Q688 676 718 676Q751 676 767.5 659.5Q784 643 789.5 622.0Q795 601 795 587Q795 577 793.0 568.0Q791 559 789 549H869V561Q869 587 879.5 613.5Q890 640 911.0 658.0Q932 676 962 676Q995 676 1011.5 659.5Q1028 643 1033.5 622.0Q1039 601 1039 587Q1039 569 1033 549H1113V561Q1113 587 1124.0 613.5Q1135 640 1155.5 658.0Q1176 676 1206 676Q1239 676 1255.5 659.5Q1272 643 1277.5 622.0Q1283 601 1283 587Q1283 569 1277 549H1339V504H1253Q1228 470 1188 446L1067 42H1341V-24ZM1036 42H1050L1175 458Q1212 478 1239.5 513.5Q1267 549 1267 587Q1267 599 1262.5 616.0Q1258 633 1245.0 646.0Q1232 659 1206 659Q1181 659 1164.0 643.5Q1147 628 1138.0 605.5Q1129 583 1129 561V549H1146Q1145 552 1145.5 555.0Q1146 558 1146 561Q1146 578 1152.0 597.5Q1158 617 1171.0 631.0Q1184 645 1204 645Q1225 645 1235.0 634.0Q1245 623 1247.5 609.0Q1250 595 1250 585Q1250 565 1238.5 542.5Q1227 520 1210.5 501.0Q1194 482 1178 472L1167 475Q1160 485 1154 504H1138Q1143 489 1149.5 477.5Q1156 466 1160 458ZM303 42H318L442 458Q479 478 506.5 513.5Q534 549 534 587Q534 599 529.5 616.0Q525 633 512.5 646.0Q500 659 474 659Q449 659 432.0 643.5Q415 628 406.0 605.5Q397 583 397 561Q397 558 396.5 555.0Q396 552 397 549H413V561Q413 578 419.0 597.5Q425 617 438.0 631.0Q451 645 471 645Q493 645 502.5 634.0Q512 623 515.0 609.0Q518 595 518 585Q518 565 506.5 542.5Q495 520 478.5 501.0Q462 482 446 472L434 475Q432 480 428.5 487.5Q425 495 422 504H406Q416 475 428 458L367 256ZM792 42H806L931 458Q967 478 994.5 513.5Q1022 549 1022 587Q1022 599 1018.0 616.0Q1014 633 1001.0 646.0Q988 659 962 659Q937 659 920.0 643.5Q903 628 894.0 605.5Q885 583 885 561V549H902Q901 552 901.0 555.0Q901 558 901 561Q901 578 907.0 597.5Q913 617 926.0 631.0Q939 645 959 645Q981 645 990.5 634.0Q1000 623 1003.0 609.0Q1006 595 1006 585Q1006 565 994.5 542.5Q983 520 966.5 501.0Q950 482 934 472L922 475Q919 480 916.5 487.5Q914 495 911 504H894Q899 489 905.5 477.5Q912 466 916 458ZM547 42H562L687 458Q723 478 750.5 513.5Q778 549 778 587Q778 599 774.0 616.0Q770 633 757.0 646.0Q744 659 718 659Q693 659 676.0 643.5Q659 628 650.0 605.5Q641 583 641 561V549H658Q657 552 657.0 555.0Q657 558 657 561Q657 578 663.0 597.5Q669 617 682.0 631.0Q695 645 715 645Q737 645 746.5 634.0Q756 623 759.0 609.0Q762 595 762 585Q762 565 750.5 542.5Q739 520 722.5 501.0Q706 482 690 472L678 475Q675 480 672.0 487.5Q669 495 666 504H650Q655 489 661.5 477.5Q668 466 672 458ZM430 549H492Q501 569 501 585Q501 596 496.5 612.0Q492 628 471 628Q450 628 440.0 604.5Q430 581 430 561ZM1163 549H1224Q1229 559 1231.5 568.0Q1234 577 1234 585Q1234 596 1229.0 612.0Q1224 628 1204 628Q1182 628 1172.0 604.5Q1162 581 1162 561Q1162 558 1162.0 555.0Q1162 552 1163 549ZM918 549H980Q985 559 987.5 568.0Q990 577 990 585Q990 596 985.0 612.0Q980 628 959 628Q938 628 928.0 604.5Q918 581 918 561ZM674 549H736Q741 559 743.5 568.0Q746 577 746 585Q746 596 741.0 612.0Q736 628 715 628Q694 628 684.0 604.5Q674 581 674 561ZM271 497Q289 497 304.0 506.0Q319 515 325 521H474Q476 524 478.5 526.5Q481 529 482 533H325Q319 539 304.0 548.0Q289 557 271 557Q254 557 243.5 547.5Q233 538 233 527Q233 516 243.5 506.5Q254 497 271 497ZM776 521H962Q964 524 966.5 526.5Q969 529 971 533H782ZM1264 521H1322V533H1270ZM1020 521H1207Q1209 524 1211.0 526.5Q1213 529 1215 533H1026ZM532 521H718Q720 524 722.5 526.5Q725 529 727 533H538ZM823 42H1018L1143 457Q1138 465 1132.0 477.0Q1126 489 1121 504H1009Q984 470 944 446ZM689 491Q693 494 696.5 497.0Q700 500 704 504H684Q686 498 689 491ZM933 491Q937 494 940.5 497.0Q944 500 948 504H928Q930 498 933 491ZM334 42H530L654 457Q649 465 643.5 477.0Q638 489 633 504H521Q494 470 456 446ZM1177 491Q1181 494 1185.0 497.0Q1189 500 1192 504H1172Q1174 501 1175.0 497.5Q1176 494 1177 491ZM445 491Q449 494 452.5 497.0Q456 500 460 504H439Q441 501 442.5 497.5Q444 494 445 491ZM579 42H774L898 457Q894 465 888.0 477.0Q882 489 877 504H765Q740 470 700 446ZM73 -4H1321V22H106Q119 61 149.5 101.0Q180 141 218.0 176.0Q256 211 292.5 236.5Q329 262 355 272L362 297Q334 287 291.0 262.5Q248 238 203.5 199.0Q159 160 123.0 109.0Q87 58 73 -4ZM134 42H286L348 248Q323 236 292.0 214.5Q261 193 230.0 164.5Q199 136 173.5 104.5Q148 73 134 42Z" />
  </g>
</svg>