<svg xmlns="http://www.w3.org/2000/svg" viewBox="49 -24 534 707">
  <g transform="translate(0, 659) scale(1, -1)">
    <path fill="black" d="M49 -24V419Q49 463 67.0 509.5Q85 556 119.0 595.5Q153 635 203.0 659.0Q253 683 316 683Q379 683 429.0 659.0Q479 635 513.0 595.5Q547 556 565.0 509.5Q583 463 583 419V-24ZM68 -4H316V185Q316 257 344.5 312.5Q373 368 428.0 401.0Q483 434 563 436Q560 475 541.5 515.0Q523 555 491.5 588.5Q460 622 416.0 642.5Q372 663 316 663Q258 663 212.0 640.5Q166 618 133.5 582.0Q101 546 84.5 503.0Q68 460 68 419ZM336 -4H563V416Q490 415 439.0 384.5Q388 354 362.0 302.5Q336 251 336 185Z" />
  </g>
</svg>