<svg xmlns="http://www.w3.org/2000/svg" viewBox="49 -24 1245 355">
  <g transform="translate(0, 307) scale(1, -1)">
    <path fill="black" d="M213 -24Q188 -24 159.5 -14.5Q131 -5 105.5 16.0Q80 37 64.5 71.0Q49 105 49 153Q49 218 76.0 257.0Q103 296 141.0 313.5Q179 331 213 331H1129Q1164 331 1202.0 313.5Q1240 296 1267.0 257.0Q1294 218 1294 153Q1294 89 1267.0 50.0Q1240 11 1202.0 -6.5Q1164 -24 1129 -24ZM213 -4H607L441 311H213Q183 311 149.0 295.5Q115 280 91.5 245.5Q68 211 68 153Q68 96 91.5 61.5Q115 27 149.0 11.5Q183 -4 213 -4ZM629 -4H881L714 311H463ZM903 -4H1129Q1160 -4 1193.5 11.5Q1227 27 1250.5 61.5Q1274 96 1274 153Q1274 211 1250.5 245.5Q1227 280 1193.5 295.5Q1160 311 1129 311H737Z" />
  </g>
</svg>