<svg xmlns="http://www.w3.org/2000/svg" viewBox="49 -24 582 582">
  <g transform="translate(0, 534) scale(1, -1)">
    <path fill="black" d="M340 -24Q280 -24 227.0 -1.5Q174 21 134.0 61.0Q94 101 71.5 154.0Q49 207 49 267Q49 327 71.5 380.0Q94 433 134.0 473.0Q174 513 227.0 535.5Q280 558 340 558Q400 558 452.5 535.5Q505 513 545.5 473.0Q586 433 608.5 380.0Q631 327 631 267Q631 207 608.5 154.0Q586 101 545.5 61.0Q505 21 452.5 -1.5Q400 -24 340 -24ZM340 -4Q396 -4 445.5 17.0Q495 38 532.0 75.0Q569 112 590.0 161.5Q611 211 611 267Q611 323 590.0 372.5Q569 422 532.0 459.5Q495 497 445.5 518.0Q396 539 340 539Q284 539 234.5 518.0Q185 497 147.5 459.5Q110 422 89.0 372.5Q68 323 68 267Q68 211 89.0 161.5Q110 112 147.5 75.0Q185 38 234.5 17.0Q284 -4 340 -4ZM242 102V433H307V102ZM373 102V433H438V102ZM262 121H287V413H262ZM393 121H418V413H393Z" />
  </g>
</svg>