<svg xmlns="http://www.w3.org/2000/svg" viewBox="49 -24 582 582">
  <g transform="translate(0, 534) scale(1, -1)">
    <path fill="black" d="M340 -24Q280 -24 227.0 -1.5Q174 21 134.0 61.0Q94 101 71.5 154.0Q49 207 49 267Q49 327 71.5 380.0Q94 433 134.0 473.0Q174 513 227.0 535.5Q280 558 340 558Q400 558 452.5 535.5Q505 513 545.5 473.0Q586 433 608.5 380.0Q631 327 631 267Q631 207 608.5 154.0Q586 101 545.5 61.0Q505 21 452.5 -1.5Q400 -24 340 -24ZM340 356 480 499Q449 518 413.5 528.5Q378 539 340 539Q301 539 265.5 528.5Q230 518 199 499ZM183 46 340 205 497 46Q516 59 532.0 75.0Q548 91 561 110L402 267L561 424Q548 443 532.0 459.0Q516 475 497 488L340 329L183 488Q145 462 119 424L278 267L119 110Q145 72 183 46ZM108 126 250 267 108 408Q89 377 78.5 341.0Q68 305 68 267Q68 228 78.5 192.5Q89 157 108 126ZM572 126Q611 190 611 267Q611 344 572 408L429 267ZM340 -4Q416 -4 480 35L340 178L199 35Q263 -4 340 -4Z" />
  </g>
</svg>