<svg xmlns="http://www.w3.org/2000/svg" viewBox="49 -2 511 519">
  <g transform="translate(0, 515) scale(1, -1)">
    <path fill="black" d="M346 -2Q287 -2 238.0 27.0Q189 56 160.0 104.5Q131 153 131 212Q131 271 161 320L49 434L126 517L242 399Q287 426 346 426Q405 426 453.5 397.0Q502 368 531.0 319.5Q560 271 560 212Q560 153 531.0 104.5Q502 56 453.5 27.0Q405 -2 346 -2ZM346 17Q400 17 444.0 43.5Q488 70 514.5 114.0Q541 158 541 212Q541 266 514.5 310.0Q488 354 444.0 380.5Q400 407 346 407Q292 407 247.5 380.5Q203 354 177.0 310.0Q151 266 151 212Q151 158 177.0 114.0Q203 70 247.5 43.5Q292 17 346 17Z" />
  </g>
</svg>