<svg xmlns="http://www.w3.org/2000/svg" viewBox="49 -24 1162 784">
  <g transform="translate(0, 736) scale(1, -1)">
    <path fill="black" d="M49 -24V284Q89 275 126.5 249.5Q164 224 195.0 192.5Q226 161 245 133L386 760H874L1015 133Q1035 161 1066.0 192.5Q1097 224 1134.5 249.5Q1172 275 1211 284V-24ZM262 117H998L857 741H402ZM558 589 545 603Q550 619 563.0 638.0Q576 657 607 678Q633 695 660.0 701.0Q687 707 703 705L714 690Q709 669 695.5 650.5Q682 632 659 617Q632 599 603.0 594.0Q574 589 558 589ZM569 608Q582 610 604.5 614.0Q627 618 648 633Q668 647 676.5 659.5Q685 672 690 685Q677 685 655.5 679.5Q634 674 618 662Q596 646 585.0 632.5Q574 619 569 608ZM558 452 545 466Q550 482 563.0 501.0Q576 520 607 542Q633 559 660.0 564.5Q687 570 703 568L714 553Q709 532 695.5 513.5Q682 495 659 480Q632 462 603.0 457.5Q574 453 558 452ZM569 472Q582 474 604.5 478.0Q627 482 648 497Q668 511 676.5 523.0Q685 535 690 548Q677 548 655.5 542.5Q634 537 618 525Q596 509 585.0 495.5Q574 482 569 472ZM558 315 545 330Q550 345 563.0 364.0Q576 383 607 405Q633 422 660.0 427.5Q687 433 703 431L714 417Q709 396 695.5 377.5Q682 359 659 343Q632 325 603.0 320.5Q574 316 558 315ZM569 335Q582 337 604.5 341.0Q627 345 648 360Q668 374 676.5 386.5Q685 399 690 412Q677 412 655.5 406.0Q634 400 618 388Q596 372 585.0 359.0Q574 346 569 335ZM558 179 545 193Q550 208 563.0 227.5Q576 247 607 268Q633 285 660.0 290.5Q687 296 703 294L714 280Q709 259 695.5 240.5Q682 222 659 207Q632 189 603.0 184.0Q574 179 558 179ZM569 198Q582 200 604.5 204.0Q627 208 648 223Q668 237 676.5 249.5Q685 262 690 275Q677 275 655.5 269.5Q634 264 618 251Q596 235 585.0 222.0Q574 209 569 198ZM68 -4H1191V260Q1156 248 1120.5 218.5Q1085 189 1057.0 156.0Q1029 123 1014 97H246Q232 123 203.5 156.0Q175 189 139.5 218.5Q104 248 68 260Z" />
  </g>
</svg>