<svg xmlns="http://www.w3.org/2000/svg" viewBox="49 -24 1333 681">
  <g transform="translate(0, 633) scale(1, -1)">
    <path fill="black" d="M294 -24V105H491Q386 125 303.5 157.5Q221 190 158.5 228.5Q96 267 49 302L68 335Q118 303 186.5 271.5Q255 240 336.5 214.0Q418 188 507 172Q507 182 509.0 200.0Q511 218 517.0 237.5Q523 257 535 269Q558 292 593.0 299.5Q628 307 660 311Q676 313 691.5 315.0Q707 317 717 321Q734 327 751.0 345.0Q768 363 784 382H783Q805 409 827.5 431.0Q850 453 878 453Q913 453 926.0 430.0Q939 407 939 375V175Q961 180 982.5 184.5Q1004 189 1025 194V481L940 636L978 657L1025 570V616H1068V492L1201 252Q1248 272 1289.0 293.0Q1330 314 1363 335L1382 302Q1351 279 1313.0 253.5Q1275 228 1228 203L1261 145Q1269 143 1289.5 129.5Q1310 116 1324 90Q1335 71 1338.5 48.0Q1342 25 1339.5 6.5Q1337 -12 1326 -18Q1316 -23 1299.0 -16.0Q1282 -9 1265.0 6.5Q1248 22 1236 42Q1223 67 1221.5 92.0Q1220 117 1223 125L1190 184Q1138 159 1076.5 139.0Q1015 119 941 105H1150V-24ZM1175 242 1187 247 972 636 961 630ZM1053 521V601H1041V542ZM1041 198Q1044 199 1047.0 200.0Q1050 201 1053 202V432L1041 453ZM715 153Q767 153 818.5 158.0Q870 163 920 171V375Q920 399 911.5 416.0Q903 433 878 433Q857 433 837.5 413.5Q818 394 798 370Q781 349 762.5 329.5Q744 310 724 302Q712 298 695.5 295.5Q679 293 662 291Q631 288 600.0 281.5Q569 275 549 255Q538 244 533.0 225.5Q528 207 527.5 191.0Q527 175 527 169Q573 162 620.5 157.5Q668 153 715 153ZM1068 206Q1092 213 1115.5 221.0Q1139 229 1161 237L1068 403ZM715 105Q834 105 931.5 123.5Q1029 142 1108.0 171.5Q1187 201 1248.0 235.5Q1309 270 1355 303L1352 308Q1301 275 1231.0 244.0Q1161 213 1077.5 188.0Q994 163 902.0 148.5Q810 134 715 134Q620 134 528.0 148.5Q436 163 353.0 188.0Q270 213 200.0 244.0Q130 275 79 308L76 303Q122 270 183.0 235.5Q244 201 322.5 171.5Q401 142 499.0 123.5Q597 105 715 105ZM1318 -2Q1329 3 1325.5 30.0Q1322 57 1308 82Q1294 108 1277.0 117.5Q1260 127 1250 134L1215 196Q1212 195 1209.0 194.0Q1206 193 1204 191L1239 127Q1238 116 1237.5 96.5Q1237 77 1251 50Q1265 26 1286.5 8.5Q1308 -9 1318 -2ZM314 -4H1131V85H314Z" />
  </g>
</svg>