<svg xmlns="http://www.w3.org/2000/svg" viewBox="49 -24 1164 918">
  <g transform="translate(0, 870) scale(1, -1)">
    <path fill="black" d="M54 -24V98H184L216 145Q144 180 96.5 234.5Q49 289 49 361Q49 411 76.0 445.0Q103 479 148.0 498.0Q193 517 247 521L293 594Q323 569 338.5 536.0Q354 503 354 471Q354 441 340.5 408.5Q327 376 305 354L254 428H237Q200 428 173.0 410.0Q146 392 146 361Q146 318 185.0 289.5Q224 261 286 244L396 401L418 399Q465 425 490.5 478.5Q516 532 516 595Q516 656 492.0 702.0Q468 748 424 771L396 770V787L637 801L703 894H723L789 801L1011 787V770L970 772Q1008 747 1028.0 701.5Q1048 656 1048 595Q1048 532 1024.5 480.0Q1001 428 960 397L1011 401V384L723 365V204Q819 206 919.5 226.0Q1020 246 1122 298L1154 474H1213V265Q1191 219 1152.0 186.0Q1113 153 1067.0 131.5Q1021 110 976 98H1201V-24ZM768 802 723 865V805ZM658 803 703 806V865ZM703 382V789L456 773Q494 748 514.5 702.5Q535 657 535 595Q535 532 512.0 480.0Q489 428 448 397ZM723 382 922 395Q972 418 1000.0 474.0Q1028 530 1028 595Q1028 658 1002.5 705.5Q977 753 930 775L723 788ZM502 98H843Q912 98 982.0 119.0Q1052 140 1109.0 177.5Q1166 215 1193 266V457H1171L1141 289Q1035 228 920.0 207.0Q805 186 685 186Q642 186 584.5 188.0Q527 190 464.0 195.5Q401 201 341.0 212.5Q281 224 233.0 243.0Q185 262 156.0 291.0Q127 320 127 361Q127 402 160.0 423.5Q193 445 234 445H261L306 384Q321 402 327.5 425.0Q334 448 334 471Q334 494 324.5 520.0Q315 546 295 564L258 503Q214 503 170.0 487.5Q126 472 97.0 441.0Q68 410 68 361Q68 303 105.5 254.5Q143 206 206.0 171.0Q269 136 346.0 117.0Q423 98 502 98ZM689 204H703V365L406 383L306 238Q362 224 427.5 216.5Q493 209 561.0 206.5Q629 204 689 204ZM208 98H352Q291 111 234 136ZM73 -7H1182V81H73Z" />
  </g>
</svg>