<svg xmlns="http://www.w3.org/2000/svg" viewBox="49 -24 1108.0 707">
  <g transform="translate(0, 659) scale(1, -1)">
    <path fill="black" d="M161 499V683H230V460L125 397Q132 377 149.5 352.5Q167 328 185 317Q247 277 316.5 259.0Q386 241 468 233V459Q468 493 502 512Q545 537 600.5 551.0Q656 565 718 565Q753 565 778.0 540.0Q803 515 803 471V236Q892 247 951.5 267.5Q1011 288 1042 307Q1056 315 1065.0 323.5Q1074 332 1080 338L1041 575L1109 586L1156 300Q1157 296 1157.0 292.0Q1157 288 1157 284Q1157 270 1152 264Q1128 231 1086.5 204.0Q1045 177 995.5 157.5Q946 138 895 125H1052V-24H191V125H349Q329 130 296.0 141.0Q263 152 225.0 170.5Q187 189 152.0 217.5Q117 246 93 285Q85 298 74.5 322.5Q64 347 56.5 376.5Q49 406 49 432ZM1062 559 1100 332Q1097 326 1086.5 316.5Q1076 307 1071 303Q1044 283 987.0 260.5Q930 238 843.0 222.5Q756 207 636 207Q560 207 478.5 213.0Q397 219 319.0 239.0Q241 259 174 301Q155 314 138.5 335.0Q122 356 112.5 376.5Q103 397 103 406L211 471V664H180V488L68 421Q70 398 77.0 372.5Q84 347 93.5 326.0Q103 305 109 295Q140 249 186.5 216.5Q233 184 287.5 164.0Q342 144 398.0 134.5Q454 125 503 125H753Q796 125 850.0 136.0Q904 147 959.0 167.0Q1014 187 1061.0 214.5Q1108 242 1136 275Q1138 281 1138 287Q1138 295 1136.5 303.5Q1135 312 1135 314L1093 564ZM784 471Q784 508 764.5 527.0Q745 546 718 546Q658 546 605.5 532.5Q553 519 512 496Q487 481 487 459V231Q520 229 557.5 227.5Q595 226 636 226Q677 226 714.0 228.0Q751 230 784 234ZM1033 106H210V-4H1033Z" />
  </g>
</svg>