<svg xmlns="http://www.w3.org/2000/svg" viewBox="49 -24 1015 510">
  <g transform="translate(0, 462) scale(1, -1)">
    <path fill="black" d="M164 -24V109H333Q281 121 230.5 140.5Q180 160 139.0 187.5Q98 215 73.5 251.0Q49 287 49 332Q49 371 71.0 399.0Q93 427 124.0 445.5Q155 464 184.0 474.0Q213 484 227 486L251 409Q237 405 217.0 396.0Q197 387 182.0 373.0Q167 359 167 337Q167 316 179.0 299.0Q191 282 211 268Q268 331 352.0 363.5Q436 396 557 396Q678 396 761.5 363.5Q845 331 902 268Q923 282 935.0 299.0Q947 316 947 337Q947 359 932.0 373.0Q917 387 897.0 396.0Q877 405 862 409L887 486Q901 484 929.5 474.0Q958 464 989.0 445.5Q1020 427 1042.0 399.0Q1064 371 1064 332Q1064 287 1039.5 251.0Q1015 215 974.0 187.5Q933 160 882.5 140.5Q832 121 780 109H950V-24ZM491 109H623Q666 109 721.5 117.5Q777 126 833.5 143.0Q890 160 938.0 186.5Q986 213 1015.5 249.5Q1045 286 1045 332Q1045 364 1027.5 388.0Q1010 412 984.5 428.5Q959 445 934.5 454.0Q910 463 896 466L881 420Q894 417 914.0 406.0Q934 395 950.0 378.0Q966 361 966 337Q966 298 936.0 270.5Q906 243 857.5 225.0Q809 207 753.5 196.5Q698 186 646.0 181.5Q594 177 557 177Q520 177 467.5 181.5Q415 186 359.5 196.5Q304 207 255.5 225.0Q207 243 177.0 270.5Q147 298 147 337Q147 361 163.0 378.0Q179 395 199.0 406.0Q219 417 232 420L217 466Q204 463 179.5 454.0Q155 445 129.0 428.5Q103 412 85.5 388.0Q68 364 68 332Q68 286 97.5 249.5Q127 213 175.0 186.5Q223 160 279.5 143.0Q336 126 392.0 117.5Q448 109 491 109ZM557 197Q588 197 630.5 200.0Q673 203 719.5 209.5Q766 216 809.0 227.5Q852 239 885 257Q831 316 751.5 346.0Q672 376 557 376Q442 376 362.0 346.0Q282 316 228 257Q261 239 304.0 227.5Q347 216 394.0 209.5Q441 203 483.5 200.0Q526 197 557 197ZM183 -4H930V90H183Z" />
  </g>
</svg>