<svg xmlns="http://www.w3.org/2000/svg" viewBox="49 -217 950 1010">
  <g transform="translate(0, 576) scale(1, -1)">
    <path fill="black" d="M476 -217 493 57 408 149 409 214Q331 217 259.0 221.0Q187 225 132.0 230.0Q77 235 49 239V307L103 301Q130 326 153.0 364.0Q176 402 176 454Q176 506 152.0 539.0Q128 572 102 597Q86 596 72.5 595.0Q59 594 49 592V653Q78 657 134.5 661.5Q191 666 264.5 671.0Q338 676 417 678L419 793H492L490 679H559L557 793H630L631 678Q712 676 784.5 671.5Q857 667 913.0 662.0Q969 657 999 653V592Q986 594 963.5 596.0Q941 598 911 600Q934 572 950.5 532.0Q967 492 967 454Q967 401 953.5 363.0Q940 325 919 299Q946 301 966.5 303.5Q987 306 999 307V239Q969 235 914.5 229.5Q860 224 789.5 220.0Q719 216 640 214L641 149L556 57L573 -217ZM612 678 610 773H577L578 679Q586 678 595.0 678.0Q604 678 612 678ZM437 678Q445 678 453.5 678.0Q462 678 471 679L472 773H438ZM68 614Q99 617 151.5 621.0Q204 625 267.5 628.5Q331 632 397.0 634.5Q463 637 521 637Q578 637 645.5 634.5Q713 632 778.5 628.5Q844 625 897.5 621.0Q951 617 979 614V636Q941 641 870.0 646.5Q799 652 708.5 656.0Q618 660 521 660Q454 660 385.5 657.5Q317 655 255.5 651.0Q194 647 145.5 642.5Q97 638 68 635ZM521 282Q575 282 640.5 284.0Q706 286 772.0 289.5Q838 293 891 297Q915 322 931.0 359.5Q947 397 947 454Q947 493 927.5 535.0Q908 577 882 602Q829 606 765.0 609.5Q701 613 637.5 615.0Q574 617 521 617Q459 617 388.0 614.5Q317 612 249.0 608.0Q181 604 128 600Q154 575 174.5 540.5Q195 506 195 454Q195 403 174.5 364.5Q154 326 128 299Q181 295 249.0 291.0Q317 287 388.0 284.5Q459 282 521 282ZM521 232Q618 232 708.5 236.0Q799 240 870.0 245.5Q941 251 979 256V285Q952 282 899.0 278.0Q846 274 780.0 270.5Q714 267 646.0 264.5Q578 262 521 262Q463 262 397.0 264.5Q331 267 267.5 270.5Q204 274 151.5 278.0Q99 282 68 285V256Q97 253 145.5 249.0Q194 245 255.5 241.0Q317 237 385.5 234.5Q454 232 521 232ZM497 -197H552L536 64L621 158L620 213H586V169L524 97L462 169L463 213H428V158L513 64ZM482 188H566V212H482ZM524 127 560 168H489Z" />
  </g>
</svg>