<svg xmlns="http://www.w3.org/2000/svg" viewBox="49 -217 1028 1005">
  <g transform="translate(0, 571) scale(1, -1)">
    <path fill="black" d="M554 -217 566 -18H405L314 -35H197L115 1L49 63L76 101L149 50Q159 44 182.0 37.0Q205 30 223 25L326 33L323 49Q320 48 308.5 47.5Q297 47 285.5 46.5Q274 46 270 46Q262 46 245.5 47.5Q229 49 212.0 52.5Q195 56 185 60L195 107Q199 106 212.0 104.5Q225 103 240.0 102.0Q255 101 265 101Q274 101 288.5 102.5Q303 104 317.0 105.5Q331 107 336 108L399 75L572 89L573 107L449 229L486 788H547L543 722H662L658 788H719L756 229L632 107V94L906 93L917 101L938 366H1059L1077 16L1051 -18H639L651 -217ZM575 -197H630L611 115L736 237L701 769H678L708 249L603 143L497 249L527 769H503L469 237L594 115ZM536 583H669L663 703H542ZM527 445H678L671 564H534ZM520 306H686L679 425H526ZM638 2H1040L1057 25L1041 346H958L937 87L920 73L634 75ZM603 172 688 255 687 287H518L517 255ZM199 -17H313L403 2H567L571 71L385 56L381 62L332 88Q324 87 301.5 84.0Q279 81 265 81Q259 81 245.5 81.5Q232 82 220.0 83.5Q208 85 204 86L201 73Q217 66 239.0 64.0Q261 62 270 62Q275 62 289.5 62.5Q304 63 319.0 63.5Q334 64 338 64L346 19L222 8Q202 13 176.5 21.0Q151 29 140 36L79 78L68 66L122 19Z" />
  </g>
</svg>