<svg xmlns="http://www.w3.org/2000/svg" viewBox="49 -221 202 1008">
  <g transform="translate(0, 566) scale(1, -1)">
    <path fill="black" d="M150 -221Q140 -221 123.0 -200.5Q106 -180 89.0 -147.0Q72 -114 60.5 -75.0Q49 -36 49 1Q49 52 69.0 92.5Q89 133 118 167L89 787H210L182 167Q211 133 231.0 92.5Q251 52 251 1Q251 -36 239.5 -75.0Q228 -114 211.0 -147.0Q194 -180 177.5 -200.5Q161 -221 150 -221ZM150 -198Q158 -198 171.5 -178.5Q185 -159 198.5 -128.5Q212 -98 221.5 -63.5Q231 -29 231 1Q231 56 209.5 92.5Q188 129 162 161L190 767H110L138 161Q113 129 90.5 92.5Q68 56 68 1Q68 -29 77.5 -63.5Q87 -98 101.0 -128.5Q115 -159 128.5 -178.5Q142 -198 150 -198Z" />
  </g>
</svg>