<svg xmlns="http://www.w3.org/2000/svg" viewBox="49 -221 1017.2 1008">
  <g transform="translate(0, 566) scale(1, -1)">
    <path fill="black" d="M528 -221Q518 -221 501.0 -200.5Q484 -180 467.0 -147.0Q450 -114 438.5 -75.0Q427 -36 427 1Q427 52 447.0 92.5Q467 133 496 167L493 235L465 231Q437 227 407.0 223.0Q377 219 348 219Q301 219 280.0 229.5Q259 240 241 262L211 299Q206 306 198.0 315.0Q190 324 182 324Q169 324 156.0 320.5Q143 317 129 317Q93 317 71.0 331.5Q49 346 49 369Q49 386 63.5 406.0Q78 426 115 434L60 486Q53 494 57.0 504.0Q61 514 71 514Q80 514 85 508L154 442L223 508Q229 514 237 514Q248 514 252.0 504.0Q256 494 249 486L193 434Q217 426 232.5 412.0Q248 398 252 391L277 357Q285 347 296.0 337.0Q307 327 322 327Q340 327 365.0 334.5Q390 342 423 353Q438 358 454.5 362.5Q471 367 487 370L467 787H588L569 370Q585 366 606.5 358.5Q628 351 659 338Q677 331 710.5 318.5Q744 306 789.5 295.5Q835 285 890 285Q923 285 947.5 286.5Q972 288 995.5 290.5Q1019 293 1049 297Q1059 299 1063.0 291.0Q1067 283 1066.0 273.0Q1065 263 1056 258Q1014 236 971.0 227.5Q928 219 886 219Q845 219 797.5 223.5Q750 228 706 232Q678 236 649.0 239.0Q620 242 583 243H563L560 167Q589 133 609.0 92.5Q629 52 629 1Q629 -36 617.5 -75.0Q606 -114 589.0 -147.0Q572 -180 555.5 -200.5Q539 -221 528 -221ZM506 373Q511 374 516.5 374.5Q522 375 527 375Q532 375 538.0 374.5Q544 374 549 373L568 767H488ZM178 438 235 492Q240 497 240 499Q240 501 237 501Q234 501 230 497L171 440ZM130 438 137 439 78 497Q75 501 72 501Q69 501 69 499Q69 497 74 492ZM348 238Q377 238 405.5 242.5Q434 247 462 251Q491 256 521.0 259.0Q551 262 583 262Q606 262 639.0 259.0Q672 256 708 252Q751 248 798.5 243.0Q846 238 886 238Q924 238 965.5 246.5Q1007 255 1042 270Q1050 273 1049.0 275.0Q1048 277 1042 276Q1005 270 971.0 268.0Q937 266 890 266Q836 266 789.5 276.0Q743 286 708.0 299.0Q673 312 654 320Q626 332 592.5 343.5Q559 355 527 355Q501 355 472.5 347.0Q444 339 427 333Q394 323 368.0 315.0Q342 307 322 307Q301 307 288.0 319.0Q275 331 266 343L241 377Q237 382 226.0 392.5Q215 403 197.5 412.0Q180 421 155 421Q117 421 92.5 403.5Q68 386 68 369Q68 353 87.0 344.5Q106 336 130 336Q144 336 156.5 339.5Q169 343 182 343Q195 343 205.0 332.0Q215 321 222 313L252 276Q266 260 285.5 249.0Q305 238 348 238ZM148 379Q133 379 133 394Q133 409 148 409Q154 409 158.5 404.5Q163 400 163 394Q163 388 158.5 383.5Q154 379 148 379ZM528 -198Q536 -198 549.5 -178.5Q563 -159 576.5 -128.5Q590 -98 599.5 -63.5Q609 -29 609 1Q609 56 587.5 92.5Q566 129 540 161L543 242Q536 241 528.0 240.5Q520 240 512 238L516 161Q491 129 468.5 92.5Q446 56 446 1Q446 -29 455.5 -63.5Q465 -98 479.0 -128.5Q493 -159 506.5 -178.5Q520 -198 528 -198Z" />
  </g>
</svg>