<svg xmlns="http://www.w3.org/2000/svg" viewBox="49 -41 991.8800000000001 821.0909090909091">
  <g transform="translate(0, 739.0909090909091) scale(1, -1)">
    <path fill="black" d="M962 -41Q890 -41 832.0 -10.5Q774 20 731.0 66.5Q688 113 660.0 164.5Q632 216 620 258L324 493Q315 456 319 418Q322 383 336.5 345.0Q351 307 368.5 273.5Q386 240 398 219Q407 204 412 195Q419 180 413.5 163.5Q408 147 388 147Q369 147 355.5 164.0Q342 181 329 198Q302 236 280.5 290.5Q259 345 251 397Q246 435 250.0 475.0Q254 515 261 543L82 686Q63 701 56.5 714.0Q50 727 49 739Q49 756 59.5 767.5Q70 779 92 780Q109 781 123.5 771.0Q138 761 152 748L663 302Q671 301 679.0 300.0Q687 299 695 297Q725 293 764.0 284.5Q803 276 861 244Q915 215 951.5 172.5Q988 130 1009.5 87.0Q1031 44 1037.5 12.5Q1044 -19 1038 -26Q1032 -33 1011.0 -37.0Q990 -41 962 -41ZM962 -21Q1011 -21 1020 -12Q1023 -7 1015.0 20.5Q1007 48 987.0 86.5Q967 125 933.5 163.0Q900 201 853 226Q797 255 759.5 264.5Q722 274 693 278Q685 279 674.5 280.5Q664 282 655 284L139 733Q127 744 115.5 753.0Q104 762 93 761Q67 759 69 740Q69 731 73.5 722.0Q78 713 93 702L636 270Q648 230 674.5 180.0Q701 130 742.0 84.0Q783 38 838.0 8.5Q893 -21 962 -21ZM383 167Q393 167 396.0 173.5Q399 180 394 189Q393 191 390.0 196.5Q387 202 382 209Q369 230 350.5 263.5Q332 297 317.0 337.5Q302 378 299 417Q294 462 308 506L280 528Q274 503 270.5 467.0Q267 431 271 397Q278 347 299.0 296.0Q320 245 345 210Q357 193 366.5 180.0Q376 167 383 167Z" />
  </g>
</svg>