<svg xmlns="http://www.w3.org/2000/svg" viewBox="49 -39 201 817">
  <g transform="translate(0, 739) scale(1, -1)">
    <path fill="black" d="M214 -39Q195 -39 185.5 -19.0Q176 1 170 26L54 519Q49 539 49 557Q49 574 57.0 587.5Q65 601 89 601H132Q147 601 153.5 613.0Q160 625 160 644V758H146V778H250V10Q250 -12 240.5 -25.5Q231 -39 214 -39ZM214 -19Q222 -19 226.0 -11.0Q230 -3 230 10V758H179V649Q179 618 168.5 599.5Q158 581 132 581H89Q77 581 72.5 573.5Q68 566 68 555Q68 545 70.5 535.0Q73 525 74 518L188 31Q193 14 198.0 -2.5Q203 -19 214 -19Z" />
  </g>
</svg>