<svg xmlns="http://www.w3.org/2000/svg" viewBox="49 -24 1191 806">
  <g transform="translate(0, 758) scale(1, -1)">
    <path fill="black" d="M49 -24V15Q49 25 54.0 41.5Q59 58 73.5 74.0Q88 90 116 96Q184 110 253.0 115.5Q322 121 391 139Q435 151 476.5 176.5Q518 202 545.0 246.5Q572 291 572 358Q572 414 557.5 450.0Q543 486 517.0 510.5Q491 535 457 557Q447 564 418.5 579.0Q390 594 354 612Q316 632 277.5 651.5Q239 671 212.0 686.0Q185 701 179 705Q169 711 161.0 721.5Q153 732 153 743Q153 759 165.5 770.5Q178 782 194 782Q207 782 227.5 772.5Q248 763 277 749Q329 725 386.5 700.0Q444 675 508.5 658.0Q573 641 645 641Q717 641 781.0 658.0Q845 675 902.5 700.0Q960 725 1012 749Q1041 763 1061.5 772.5Q1082 782 1095 782Q1112 782 1124.0 770.5Q1136 759 1136 743Q1136 732 1128.5 721.5Q1121 711 1110 705Q1105 701 1077.5 686.0Q1050 671 1011.5 651.5Q973 632 935 612Q899 594 870.5 579.0Q842 564 832 557Q798 535 772.0 510.5Q746 486 731.5 450.0Q717 414 717 358Q717 291 744.0 246.5Q771 202 812.5 176.5Q854 151 898 139Q967 121 1036.5 115.5Q1106 110 1173 96Q1202 90 1216.0 74.0Q1230 58 1235.0 41.5Q1240 25 1240 15V-24ZM68 -4H1221V15Q1221 22 1217.5 35.0Q1214 48 1203.0 60.0Q1192 72 1169 76Q1100 89 1030.5 95.5Q961 102 893 120Q845 133 800.0 160.5Q755 188 726.5 236.0Q698 284 698 358Q698 419 714.0 458.0Q730 497 757.5 524.0Q785 551 821 574Q847 591 874.5 605.0Q902 619 930 632Q974 654 1018.0 676.5Q1062 699 1104 724Q1117 731 1117 743Q1117 752 1110.0 757.5Q1103 763 1095 763Q1086 763 1065.0 753.0Q1044 743 1020 731Q957 701 898.5 676.0Q840 651 778.5 636.5Q717 622 645 622Q573 622 511.5 636.5Q450 651 391.5 676.0Q333 701 269 731Q245 743 224.0 753.0Q203 763 194 763Q187 763 179.5 757.5Q172 752 172 743Q172 731 186 724Q227 699 271.5 676.5Q316 654 359 632Q387 619 414.5 605.0Q442 591 468 574Q505 551 532.5 524.0Q560 497 575.5 458.0Q591 419 591 358Q591 284 562.5 236.0Q534 188 489.0 160.5Q444 133 396 120Q329 102 259.0 95.5Q189 89 120 76Q98 72 86.5 60.0Q75 48 71.5 35.0Q68 22 68 15Z" />
  </g>
</svg>