<svg xmlns="http://www.w3.org/2000/svg" viewBox="49 -219 1179 1134">
  <g transform="translate(0, 696) scale(1, -1)">
    <path fill="black" d="M460 -219Q469 -184 480.5 -157.0Q492 -130 504 -104Q528 -54 550.0 8.0Q572 70 572 152Q572 182 571.0 219.0Q570 256 568.5 291.0Q567 326 564 349H188Q145 349 113.5 369.5Q82 390 65.5 422.5Q49 455 49 490H184Q155 513 141.5 563.0Q128 613 128 689Q128 796 155.5 851.5Q183 907 246 907Q308 907 335.5 851.5Q363 796 363 689Q363 613 349.5 563.0Q336 513 307 490H535L495 594Q488 613 483.0 625.5Q478 638 475 649Q466 650 452.5 654.0Q439 658 428.5 668.5Q418 679 418 698Q418 722 438.0 732.5Q458 743 478 743Q489 766 512.5 783.5Q536 801 576 808Q569 822 557.5 836.0Q546 850 536 856H477V915H782V856H723Q713 850 701.0 836.0Q689 822 683 808Q723 801 747.0 783.5Q771 766 781 743Q801 743 820.5 732.5Q840 722 840 698Q840 679 830.0 668.5Q820 658 806.5 654.0Q793 650 783 649Q780 638 775.5 625.5Q771 613 764 594L723 490H930Q905 507 889.5 534.0Q874 561 874 593Q874 627 890.5 655.0Q907 683 934.5 699.5Q962 716 996 716Q1030 716 1058.0 699.5Q1086 683 1102.5 655.0Q1119 627 1119 593Q1119 561 1103.5 534.0Q1088 507 1063 490H1228Q1228 455 1211.0 422.5Q1194 390 1163.0 369.5Q1132 349 1089 349H712Q710 326 708.0 291.0Q706 256 705.0 219.0Q704 182 704 152Q704 70 726.5 8.0Q749 -54 772 -104Q785 -130 796.0 -157.0Q807 -184 816 -219ZM497 875H762V895H497ZM246 490Q298 490 321.0 541.0Q344 592 344 689Q344 786 321.0 837.0Q298 888 246 888Q194 888 170.5 837.0Q147 786 147 689Q147 592 170.5 541.0Q194 490 246 490ZM595 810Q603 811 611.5 811.5Q620 812 629 812Q639 812 647.5 811.5Q656 811 663 810Q668 821 676.0 833.5Q684 846 693 856H565Q585 834 595 810ZM556 490H702L745 601Q756 630 763.5 652.5Q771 675 771 697Q771 737 738.5 764.5Q706 792 629 792Q553 792 520.5 764.5Q488 737 488 697Q488 672 496.0 648.5Q504 625 514 601ZM471 669Q470 676 469.5 683.0Q469 690 469 697Q469 704 469.5 710.5Q470 717 471 723Q459 722 448.5 716.0Q438 710 438 698Q438 683 449.5 677.0Q461 671 471 669ZM788 669Q798 671 809.5 677.0Q821 683 821 698Q821 710 810.5 716.0Q800 722 787 723Q790 711 790 697Q790 690 789.5 683.0Q789 676 788 669ZM1000 490Q1041 492 1070.0 522.0Q1099 552 1099 593Q1099 636 1069.0 666.0Q1039 696 996 696Q953 696 923.0 666.0Q893 636 893 593Q893 550 923.5 520.0Q954 490 1000 490ZM188 368H1089Q1142 368 1173.0 399.5Q1204 431 1208 471H69Q73 431 104.0 399.5Q135 368 188 368ZM485 -200H791Q784 -179 774.5 -156.5Q765 -134 754 -112Q730 -60 707.5 2.5Q685 65 685 152Q685 182 686.0 219.0Q687 256 688.5 291.0Q690 326 692 349H584Q587 326 588.5 291.0Q590 256 591.0 219.0Q592 182 592 152Q592 65 569.5 2.5Q547 -60 522 -112Q512 -134 502.0 -156.5Q492 -179 485 -200Z" />
  </g>
</svg>