<svg xmlns="http://www.w3.org/2000/svg" viewBox="49 -219 1179 1151">
  <g transform="translate(0, 713) scale(1, -1)">
    <path fill="black" d="M460 -219Q469 -184 480.5 -157.0Q492 -130 504 -104Q528 -54 550.0 8.0Q572 70 572 152Q572 182 571.0 219.0Q570 256 568.5 291.0Q567 326 564 349H188Q145 349 113.5 369.5Q82 390 65.5 422.5Q49 455 49 490H209V780Q209 798 204.5 818.0Q200 838 184.5 854.5Q169 871 134 876V924Q140 926 151.0 929.0Q162 932 172 932Q226 932 251.5 891.0Q277 850 277 788V490H406V780Q406 798 401.5 818.0Q397 838 381.5 854.5Q366 871 331 876V924Q337 926 348.0 929.0Q359 932 369 932Q423 932 448.5 891.0Q474 850 474 788V490H604V780Q604 798 599.5 818.0Q595 838 579.0 854.5Q563 871 528 876V924Q534 926 545.0 929.0Q556 932 566 932Q621 932 646.0 891.0Q671 850 671 788V490H801V780Q801 798 796.5 818.0Q792 838 776.5 854.5Q761 871 726 876V924Q731 926 742.5 929.0Q754 932 764 932Q818 932 843.5 891.0Q869 850 869 788V490H998V780Q998 798 993.5 818.0Q989 838 973.5 854.5Q958 871 923 876V924Q929 926 940.0 929.0Q951 932 961 932Q1015 932 1040.5 891.0Q1066 850 1066 788V490H1228Q1228 455 1211.0 422.5Q1194 390 1163.0 369.5Q1132 349 1089 349H712Q710 326 708.0 291.0Q706 256 705.0 219.0Q704 182 704 152Q704 70 726.5 8.0Q749 -54 772 -104Q785 -130 796.0 -157.0Q807 -184 816 -219ZM229 490H257V788Q257 841 236.0 877.0Q215 913 173 913Q163 913 153 909V892Q189 882 205.0 863.5Q221 845 225.0 823.0Q229 801 229 780ZM426 490H455V788Q455 841 433.5 877.0Q412 913 370 913Q359 913 351 909V892Q386 882 402.0 863.5Q418 845 422.0 823.0Q426 801 426 780ZM623 490H652V788Q652 841 630.5 877.0Q609 913 567 913Q556 913 548 909V892Q584 882 599.5 863.5Q615 845 619.0 823.0Q623 801 623 780ZM820 490H849V788Q849 841 827.5 877.0Q806 913 765 913Q755 913 745 909V892Q781 882 796.5 863.5Q812 845 816.0 823.0Q820 801 820 780ZM1018 490H1046V788Q1046 841 1025.0 877.0Q1004 913 962 913Q952 913 942 909V892Q978 882 994.0 863.5Q1010 845 1014.0 823.0Q1018 801 1018 780ZM188 368H1089Q1142 368 1173.0 399.5Q1204 431 1208 471H69Q73 431 104.0 399.5Q135 368 188 368ZM485 -200H791Q784 -179 774.5 -156.5Q765 -134 754 -112Q730 -60 707.5 2.5Q685 65 685 152Q685 182 686.0 219.0Q687 256 688.5 291.0Q690 326 692 349H584Q587 326 588.5 291.0Q590 256 591.0 219.0Q592 182 592 152Q592 65 569.5 2.5Q547 -60 522 -112Q512 -134 502.0 -156.5Q492 -179 485 -200Z" />
  </g>
</svg>