<svg xmlns="http://www.w3.org/2000/svg" viewBox="49 -160 808 940">
  <g transform="translate(0, 620) scale(1, -1)">
    <path fill="black" d="M210 -160V-109Q257 -90 295.0 -70.0Q333 -50 360.0 -21.5Q387 7 401.5 51.5Q416 96 416 163V407Q352 413 293.0 436.0Q234 459 185.0 491.5Q136 524 101.0 560.5Q66 597 49 631H167Q154 642 145.5 659.5Q137 677 137 696Q137 731 162.0 755.5Q187 780 221 780Q256 780 280.5 755.5Q305 731 305 696Q305 677 297.0 659.5Q289 642 275 631H401Q372 655 372 696Q372 731 396.5 755.5Q421 780 456 780Q491 780 515.5 755.5Q540 731 540 696Q540 655 509 631H636Q623 642 614.5 659.5Q606 677 606 696Q606 731 631.0 755.5Q656 780 690 780Q725 780 749.5 755.5Q774 731 774 696Q774 677 766.0 659.5Q758 642 744 631H857Q840 597 805.0 560.5Q770 524 721.0 491.5Q672 459 613.5 436.0Q555 413 490 407V163Q490 96 504.5 51.5Q519 7 546.0 -21.5Q573 -50 611.0 -70.0Q649 -90 696 -109V-160ZM221 631Q248 631 267.0 650.0Q286 669 286 696Q286 722 267.0 741.0Q248 760 221 760Q195 760 176.0 741.0Q157 722 157 696Q157 669 176.0 650.0Q195 631 221 631ZM456 631Q482 631 501.0 650.0Q520 669 520 696Q520 722 501.0 741.0Q482 760 456 760Q429 760 410.0 741.0Q391 722 391 696Q391 669 410.0 650.0Q429 631 456 631ZM690 631Q717 631 735.5 650.0Q754 669 754 696Q754 722 735.5 741.0Q717 760 690 760Q663 760 644.0 741.0Q625 722 625 696Q625 669 644.0 650.0Q663 631 690 631ZM453 425Q513 425 568.5 442.0Q624 459 672.5 487.0Q721 515 758.5 548.0Q796 581 819 612H87Q110 581 147.5 548.0Q185 515 233.5 487.0Q282 459 337.5 442.0Q393 425 453 425ZM229 -140H677V-123Q630 -104 592.0 -83.0Q554 -62 527.0 -31.5Q500 -1 485.5 46.0Q471 93 471 163V406H436V163Q436 93 421.5 46.0Q407 -1 380.0 -31.5Q353 -62 314.5 -83.0Q276 -104 229 -123Z" />
  </g>
</svg>