<svg xmlns="http://www.w3.org/2000/svg" viewBox="49 -206 1264 1138">
  <g transform="translate(0, 726) scale(1, -1)">
    <path fill="black" d="M49 -206 177 242H302Q275 259 258.0 288.5Q241 318 241 353Q241 389 258.5 418.0Q276 447 305.5 464.5Q335 482 371 482Q407 482 436.5 464.5Q466 447 483.5 418.0Q501 389 501 353Q501 318 484.0 288.5Q467 259 439 242H643Q635 287 623.5 346.0Q612 405 600.0 463.0Q588 521 579 563Q575 584 569.5 617.5Q564 651 564 678Q564 711 573.0 742.0Q582 773 603.0 795.0Q624 817 659 823Q657 837 652.5 851.0Q648 865 644 875H580V932H790V875H726Q722 865 717.5 851.0Q713 837 711 823Q747 817 767.5 795.0Q788 773 797.0 742.0Q806 711 806 678Q806 651 801.5 617.5Q797 584 792 563Q783 521 771.0 463.0Q759 405 747.0 346.0Q735 287 727 242H931Q897 269 883.0 326.0Q869 383 869 456Q869 521 880.5 574.0Q892 627 919.0 658.0Q946 689 990 689Q1035 689 1061.5 658.0Q1088 627 1099.5 574.0Q1111 521 1111 456Q1111 383 1096.5 326.0Q1082 269 1048 242H1185L1313 -206H1234L1180 -17H182L128 -206ZM600 895H771V913H600ZM679 825Q681 825 682.5 825.5Q684 826 685 826Q687 826 688.5 825.5Q690 825 691 825Q693 838 697.0 851.5Q701 865 705 875H665Q670 865 673.5 851.5Q677 838 679 825ZM611 48H759Q731 66 713.0 91.0Q695 116 695 152Q695 157 695.5 163.5Q696 170 697 178L708 242Q715 288 726.5 347.5Q738 407 750.5 465.5Q763 524 772 567Q777 588 782.0 620.5Q787 653 787 678Q787 710 777.5 739.0Q768 768 746.0 787.0Q724 806 685 806Q647 806 624.5 787.0Q602 768 592.5 739.0Q583 710 583 678Q583 653 588.5 620.5Q594 588 598 567Q608 524 620.0 465.5Q632 407 643.5 347.5Q655 288 662 242L673 178Q675 170 675.0 163.5Q675 157 675 152Q675 116 657.0 91.0Q639 66 611 48ZM990 242Q1027 242 1049.0 270.5Q1071 299 1081.0 347.5Q1091 396 1091 456Q1091 516 1081.0 564.5Q1071 613 1049.0 641.5Q1027 670 990 670Q953 670 930.5 641.5Q908 613 898.0 564.5Q888 516 888 456Q888 396 898.0 347.5Q908 299 930.5 270.5Q953 242 990 242ZM371 242Q417 242 449.0 274.5Q481 307 481 353Q481 399 449.0 431.0Q417 463 371 463Q325 463 293.0 431.0Q261 399 261 353Q261 307 293.0 274.5Q325 242 371 242ZM74 -186H113L167 3H1194L1249 -186H1288Q1259 -82 1229.5 18.5Q1200 119 1170 223H724L720 197H1139L1187 28H175L223 197H650L646 223H191ZM201 48H571Q606 65 631.0 89.5Q656 114 656 152Q656 160 653 178H238ZM799 48H1161L1124 178H717Q714 160 714 152Q714 114 739.0 89.5Q764 65 799 48Z" />
  </g>
</svg>