<svg xmlns="http://www.w3.org/2000/svg" viewBox="49.0 0 1239.0 472">
  <g transform="translate(0, 472) scale(1, -1)">
    <path fill="black" d="M50 0Q49 9 49.0 17.5Q49 26 49 35Q49 127 81.5 189.5Q114 252 168.5 288.0Q223 324 288 335Q293 372 336.5 403.0Q380 434 450.5 453.0Q521 472 608 472Q652 472 710.0 462.0Q768 452 823 441Q885 429 948.5 418.0Q1012 407 1065 407Q1109 407 1153.0 417.5Q1197 428 1233.0 441.0Q1269 454 1288 462V191Q1269 199 1233.0 212.0Q1197 225 1153.0 235.5Q1109 246 1065 246Q1012 246 948.5 235.5Q885 225 823 212Q768 201 710.0 191.5Q652 182 608 182Q522 182 452.0 200.0Q382 218 338.5 248.5Q295 279 289 315Q228 305 178.0 271.0Q128 237 98.0 178.5Q68 120 68 35Q68 27 68.5 18.0Q69 9 70 0ZM608 201Q652 201 706.5 210.5Q761 220 819 231Q881 244 944.5 255.0Q1008 266 1065 266Q1106 266 1145.0 258.0Q1184 250 1216.0 239.5Q1248 229 1268 220V433Q1237 420 1182.0 404.0Q1127 388 1065 388Q1008 388 944.5 398.5Q881 409 819 422Q761 434 706.5 443.0Q652 452 608 452Q523 452 455.0 433.0Q387 414 347.0 385.0Q307 356 307 327Q307 298 347.0 268.5Q387 239 455.0 220.0Q523 201 608 201Z" />
  </g>
</svg>