<svg xmlns="http://www.w3.org/2000/svg" viewBox="49 0 491 809">
  <g transform="translate(0, 809) scale(1, -1)">
    <path fill="black" d="M147 0 49 359H235Q237 362 239.0 368.0Q241 374 241 383Q241 403 224.5 424.0Q208 445 188 467Q169 488 154.0 508.0Q139 528 139 547Q139 569 144 591Q146 602 148.0 614.0Q150 626 150 638Q150 660 137.0 680.5Q124 701 108 722Q104 728 97.0 737.0Q90 746 83 756Q76 767 71.5 777.0Q67 787 67 795Q67 800 69.5 804.5Q72 809 81 809Q92 809 101.5 802.5Q111 796 121 786Q133 773 149.0 756.5Q165 740 172 731Q194 709 212.5 682.5Q231 656 231 631Q231 618 226 601Q224 594 222.0 587.5Q220 581 220 574Q220 555 241.0 533.5Q262 512 287 489Q314 465 337.0 443.5Q360 422 360 388Q360 378 359.0 371.0Q358 364 357 359H540L442 0ZM256 359H337Q340 371 340 388Q340 414 318.0 435.0Q296 456 274 475Q247 499 224.0 524.0Q201 549 201 574Q201 583 203.0 591.0Q205 599 207 607Q209 613 210.5 619.5Q212 626 212 631Q212 650 194.5 674.0Q177 698 158 719Q147 733 129.0 753.0Q111 773 100 784Q92 791 88 791Q83 791 87 784Q95 771 104.5 758.0Q114 745 125 731Q142 709 156.0 686.5Q170 664 170 638Q170 623 168.0 610.5Q166 598 164 587Q162 577 160.0 567.0Q158 557 158 547Q158 534 170.5 518.5Q183 503 203 480Q223 458 242.0 433.5Q261 409 261 383Q261 369 256 359ZM162 20H427L515 339H74Q97 257 118.5 179.5Q140 102 162 20Z" />
  </g>
</svg>