<svg xmlns="http://www.w3.org/2000/svg" viewBox="49 -219 461 1144">
  <g transform="translate(0, 706) scale(1, -1)">
    <path fill="black" d="M386 -219Q354 -219 324.5 -204.0Q295 -189 277.0 -159.5Q259 -130 259 -88Q259 -51 276.5 -17.0Q294 17 316 47Q319 51 322.0 55.0Q325 59 328 64L176 196L235 251L347 145V686Q333 697 290.0 709.5Q247 722 188 722Q137 722 107.5 719.0Q78 716 49 709V908Q79 901 108.0 898.5Q137 896 188 896Q242 896 286.0 905.5Q330 915 354 925H415V80L424 72Q439 58 459.0 36.0Q479 14 494.5 -16.5Q510 -47 510 -86Q510 -150 473.5 -184.5Q437 -219 386 -219ZM396 99V906H367V126ZM347 710V899Q324 891 281.0 883.5Q238 876 188 876Q157 876 136.5 876.5Q116 877 101.0 878.5Q86 880 68 883V734Q88 736 121.0 738.5Q154 741 188 741Q231 741 277.0 732.5Q323 724 347 710ZM386 -200Q429 -200 460.0 -170.5Q491 -141 491 -86Q491 -51 476.5 -23.5Q462 4 443.0 24.5Q424 45 410 58L235 224Q228 217 221.0 210.5Q214 204 205 196L341 79Q390 37 427.0 -4.5Q464 -46 464 -90Q464 -131 443.5 -152.0Q423 -173 385 -173Q345 -173 325.0 -147.0Q305 -121 305 -90Q305 -63 317.5 -38.0Q330 -13 350 16L362 34L344 51Q341 47 337.5 43.0Q334 39 332 35Q316 15 297.5 -18.5Q279 -52 279 -88Q279 -142 312.0 -171.0Q345 -200 386 -200ZM385 -154Q413 -154 429.0 -137.5Q445 -121 445 -90Q445 -61 426.0 -34.0Q407 -7 376 21L366 5Q347 -21 336.0 -43.5Q325 -66 325 -90Q325 -113 340.0 -133.5Q355 -154 385 -154Z" />
  </g>
</svg>