<svg xmlns="http://www.w3.org/2000/svg" viewBox="49 -214 1122 1142">
  <g transform="translate(0, 714) scale(1, -1)">
    <path fill="black" d="M49 -214V-153H92L199 127H397L504 -153H633V665Q624 672 593.5 680.5Q563 689 523.0 695.0Q483 701 444 701Q341 701 286 688V910Q316 903 354.5 900.5Q393 898 444 898Q480 898 519.0 902.5Q558 907 590.5 914.0Q623 921 639 928H701V-153H770Q828 -117 869.5 -74.5Q911 -32 946 21Q964 48 983.5 77.0Q1003 106 1028.0 125.5Q1053 145 1086 145Q1125 145 1143.0 120.0Q1161 95 1166.0 58.5Q1171 22 1171 -13V-214ZM652 -153H681V908H652ZM633 689V901Q618 896 586.0 890.5Q554 885 516.0 881.5Q478 878 444 878Q397 878 364.0 879.5Q331 881 305 886V713Q319 715 343.0 716.5Q367 718 394.0 719.0Q421 720 444 720Q473 720 511.0 716.0Q549 712 583.0 705.0Q617 698 633 689ZM804 -153H1151V-13Q1151 18 1147.5 49.5Q1144 81 1130.0 103.0Q1116 125 1086 125Q1060 125 1037.5 106.5Q1015 88 996.5 61.5Q978 35 962 10Q932 -36 891.0 -81.0Q850 -126 804 -153ZM298 40 367 108H229ZM113 -153H206L287 24L209 100ZM391 -153H483L387 100L310 24ZM227 -153H369L298 2ZM68 -194H1151V-172H68Z" />
  </g>
</svg>