<svg xmlns="http://www.w3.org/2000/svg" viewBox="49 -174 595 1102">
  <g transform="translate(0, 754) scale(1, -1)">
    <path fill="black" d="M217 -174 332 126H396V665Q387 672 356.5 680.5Q326 689 286.5 695.0Q247 701 208 701Q104 701 49 688V910Q79 903 117.5 900.5Q156 898 208 898Q244 898 283.0 902.5Q322 907 354.5 914.0Q387 921 402 928H464V126H530L644 -174ZM416 126H444V908H416ZM396 689V901Q381 896 349.0 890.5Q317 885 279.0 881.5Q241 878 208 878Q160 878 127.0 879.5Q94 881 68 886V713Q82 715 106.0 716.5Q130 718 157.5 719.0Q185 720 208 720Q237 720 274.5 716.0Q312 712 346.0 705.0Q380 698 396 689ZM431 38 500 106H361ZM246 -154H338L419 22L342 98ZM523 -154H616L519 98L442 22ZM359 -154H501L431 1Z" />
  </g>
</svg>