<svg xmlns="http://www.w3.org/2000/svg" viewBox="49 -214 381 1151">
  <g transform="translate(0, 723) scale(1, -1)">
    <path fill="black" d="M49 -214Q79 -95 98.0 11.5Q117 118 126.5 207.0Q136 296 136 359Q136 421 114.0 452.0Q92 483 59 484V530H130Q122 565 103.0 583.0Q84 601 59 602V648H131Q123 684 104.0 702.5Q85 721 59 722V768H131Q123 804 104.0 822.5Q85 841 59 842V888H172V937H306V888H419V842Q394 841 374.5 822.5Q355 804 347 768H419V722Q394 721 374.5 702.5Q355 684 347 648H419V602Q394 601 375.0 583.0Q356 565 348 530H419V484Q386 483 364.0 452.0Q342 421 342 359Q342 296 351.5 207.0Q361 118 380.5 11.5Q400 -95 430 -214ZM192 888H287V917H192ZM151 768H327Q335 810 354.5 833.0Q374 856 400 860V869H79V860Q105 856 124.5 833.0Q144 810 151 768ZM151 648H327Q335 690 354.5 713.0Q374 736 400 740V749H79V740Q105 736 124.5 713.0Q144 690 151 648ZM151 530H328Q336 571 355.0 593.5Q374 616 400 620V628H79V620Q105 616 124.0 593.5Q143 571 151 530ZM73 -194H405Q362 -24 342.5 120.5Q323 265 323 359Q323 427 344.5 462.0Q366 497 400 502V511H79V502Q112 497 134.0 462.0Q156 427 156 359Q156 265 136.0 120.5Q116 -24 73 -194Z" />
  </g>
</svg>