<svg xmlns="http://www.w3.org/2000/svg" viewBox="49 -214 816 1164">
  <g transform="translate(0, 736) scale(1, -1)">
    <path fill="black" d="M363 -214V140H301L77 375Q64 389 56.5 402.5Q49 416 49 436Q49 457 64.5 474.0Q80 491 107 491Q134 491 148.5 475.5Q163 460 163 443Q163 424 153 412L336 300Q320 286 306.0 272.0Q292 258 292 235Q292 221 295.5 208.5Q299 196 306 182Q308 191 311.5 200.5Q315 210 319 218V259L366 306L375 368Q376 373 376.5 377.5Q377 382 377 386Q377 425 363.5 468.0Q350 511 337 547L331 566Q322 577 309.0 593.5Q296 610 288 620Q269 644 248.0 675.5Q227 707 227 740V797Q227 808 225.0 821.0Q223 834 205 834Q192 834 186.5 829.0Q181 824 180 820H162V837Q162 864 174.0 876.5Q186 889 196 897L216 916Q220 924 238.5 937.0Q257 950 303 950Q359 950 386.0 922.5Q413 895 432 854Q437 851 451.5 843.5Q466 836 478 829Q503 805 533.0 769.0Q563 733 592.0 694.5Q621 656 644 623Q673 589 702.0 554.5Q731 520 762 488Q768 482 785.5 466.0Q803 450 824.5 430.0Q846 410 865 392L841 370Q825 381 807.5 391.0Q790 401 765 416L820 333L705 262L630 399Q625 409 614.0 423.0Q603 437 589.0 448.0Q575 459 560 459V326Q549 335 533.0 345.5Q517 356 507 358V290Q555 261 543 198Q552 171 552 140H485V-23H430V140H418V-214ZM529 227Q530 242 522.0 254.5Q514 267 504.0 274.5Q494 282 490 282V382Q503 379 518.0 372.5Q533 366 542 361V481Q572 481 593.0 467.0Q614 453 627.0 435.0Q640 417 646 405L713 285L798 338L735 434Q692 459 639.5 488.0Q587 517 532.5 546.5Q478 576 428.0 602.5Q378 629 340 649Q327 655 307.5 669.0Q288 683 273.0 703.5Q258 724 258 748Q257 775 291.0 799.5Q325 824 378 827L379 811Q333 808 304.5 788.0Q276 768 277 748Q277 730 289.5 713.0Q302 696 319.5 683.5Q337 671 351 663Q410 633 480.0 595.5Q550 558 619.5 519.5Q689 481 746.0 447.5Q803 414 836 391L840 396Q834 401 821.0 412.5Q808 424 792.5 437.5Q777 451 764.0 462.0Q751 473 746 477Q741 482 721.0 505.0Q701 528 675.5 558.5Q650 589 627 616Q605 648 576.0 686.0Q547 724 517.5 759.5Q488 795 463 818Q460 820 445.0 828.5Q430 837 416 844Q404 870 390.5 890.0Q377 910 357.0 921.0Q337 932 303 932Q273 932 257.5 927.5Q242 923 237.5 917.5Q233 912 232 910L209 888Q201 881 191.5 871.5Q182 862 180 845Q183 850 194.0 860.5Q205 871 220 871Q228 871 234.5 867.5Q241 864 246 859Q248 858 251.0 858.5Q254 859 254 863Q254 867 253 868Q246 868 241.0 873.5Q236 879 236 886Q236 893 241.5 898.5Q247 904 255 904H288Q308 904 322.0 891.5Q336 879 336 859Q336 846 327.0 835.5Q318 825 306.5 818.0Q295 811 288 807Q286 806 281.0 806.0Q276 806 275 811H269V802H257Q257 809 253.5 822.5Q250 836 241.5 847.0Q233 858 216 858Q210 858 205.5 855.5Q201 853 198 850H205Q231 850 239.0 832.5Q247 815 247 797V740Q247 711 269.0 679.5Q291 648 310 622Q332 594 361.5 560.5Q391 527 411 506Q449 466 462.0 429.5Q475 393 473 368L469 291Q444 293 423.0 289.5Q402 286 394 274Q409 277 427 277Q463 277 488.5 263.5Q514 250 529 227ZM254 878Q262 878 262 886Q262 894 254 894Q246 894 246 886Q246 878 254 878ZM266 826Q266 828 265.5 830.0Q265 832 265 833Q265 854 284 854Q294 854 298.5 847.0Q303 840 303 835Q303 830 301 828Q309 833 315.5 841.0Q322 849 322 859Q322 873 311.0 883.0Q300 893 283 893H271Q273 889 273 885Q273 879 271.0 876.0Q269 873 265 870Q270 865 267 857Q265 852 254 850Q258 845 261.5 838.5Q265 832 266 826ZM284 820Q292 820 292 832Q292 835 290.5 839.0Q289 843 284 843Q275 843 275 832Q275 820 284 820ZM340 246Q346 251 353.0 256.0Q360 261 367 265Q374 276 386.5 287.0Q399 298 406 304L421 389Q429 388 438.0 384.0Q447 380 454 375L455 384Q456 398 444.5 427.5Q433 457 397 495Q390 503 381.0 514.0Q372 525 363 535Q374 501 385.0 462.5Q396 424 396 386Q396 381 396.0 376.5Q396 372 395 366L385 304L367 283Q364 279 355.0 268.5Q346 258 338 250ZM281 189Q273 211 273 235Q273 258 283.0 273.5Q293 289 303 297L119 411Q126 416 135.0 424.5Q144 433 144 443Q144 453 134.0 462.5Q124 472 107 472Q89 472 78.5 461.0Q68 450 68 436Q68 422 75.0 411.0Q82 400 92 389ZM424 305Q427 306 437.5 307.0Q448 308 452 308L455 354Q451 357 446.5 360.0Q442 363 435 364Q433 357 429.5 338.5Q426 320 424 305ZM321 159H533Q531 200 505.0 229.0Q479 258 427 258Q375 258 349.0 228.5Q323 199 321 159ZM449 -4H465V140H449ZM383 -194H399V140H383Z" />
  </g>
</svg>