<svg xmlns="http://www.w3.org/2000/svg" viewBox="49 -214 605 1162">
  <g transform="translate(0, 734) scale(1, -1)">
    <path fill="black" d="M497 611Q497 637 516.0 656.0Q535 675 561 675Q587 675 605.5 656.0Q624 637 624 611Q624 576 595 558H654V469H410Q417 452 429.5 420.0Q442 388 455.0 351.0Q468 314 477.0 281.5Q486 249 486 230Q486 197 469.5 177.0Q453 157 430.0 148.5Q407 140 387 139V-214H316V139Q297 140 273.5 148.5Q250 157 233.5 177.0Q217 197 217 230Q217 250 226.0 283.0Q235 316 248.5 353.5Q262 391 274.5 422.5Q287 454 293 469H49V558H109Q80 576 80 611Q80 637 98.5 656.0Q117 675 143 675Q169 675 188.0 656.0Q207 637 207 611Q207 576 177 558H309Q286 570 271.5 592.0Q257 614 257 642Q257 725 269.0 790.0Q281 855 294 904Q300 926 316.5 937.0Q333 948 352 948Q371 948 387.5 937.0Q404 926 410 904Q424 855 435.5 790.0Q447 725 447 642Q447 614 432.5 592.0Q418 570 395 558H527Q497 576 497 611ZM277 642Q277 611 299.0 589.0Q321 567 352 567Q383 567 405.0 589.0Q427 611 427 642Q427 723 415.5 786.0Q404 849 391 898Q387 911 376.5 919.5Q366 928 352 928Q338 928 327.5 919.5Q317 911 313 898Q300 849 288.5 786.0Q277 723 277 642ZM517 611Q517 593 530.0 580.5Q543 568 561 568Q579 568 591.5 580.5Q604 593 604 611Q604 629 591.5 642.0Q579 655 561 655Q543 655 530.0 642.0Q517 629 517 611ZM100 611Q100 593 112.5 580.5Q125 568 143 568Q161 568 174.0 580.5Q187 593 187 611Q187 629 174.0 642.0Q161 655 143 655Q125 655 112.5 642.0Q100 629 100 611ZM634 489V538H69V489ZM387 469V158Q403 160 421.5 167.0Q440 174 453.0 189.0Q466 204 466 230Q466 250 456.0 285.0Q446 320 432.0 359.0Q418 398 405.5 428.5Q393 459 389 469ZM336 469V-194H367V469ZM314 469Q309 457 296.5 426.0Q284 395 270.5 357.0Q257 319 247.0 284.0Q237 249 237 230Q237 204 250.0 189.0Q263 174 281.5 167.0Q300 160 316 158V469Z" />
  </g>
</svg>