<svg xmlns="http://www.w3.org/2000/svg" viewBox="49 -214 389 1162">
  <g transform="translate(0, 734) scale(1, -1)">
    <path fill="black" d="M250 -214Q223 -214 215.0 -197.0Q207 -180 208 -142L225 241L216 239Q203 237 189.5 235.0Q176 233 157 233Q111 233 80.0 252.0Q49 271 49 307Q49 338 69.0 353.5Q89 369 118 369Q150 369 177.5 355.0Q205 341 228 321L231 406Q216 410 202.0 418.5Q188 427 180 445Q172 462 171.0 491.5Q170 521 159 542Q153 555 138.5 561.0Q124 567 108.0 569.0Q92 571 81 571V607Q89 613 116 619L135 860Q137 881 143.0 901.0Q149 921 163.5 934.5Q178 948 205 948Q227 948 240.0 939.0Q253 930 260 915Q267 930 279.5 939.0Q292 948 314 948Q342 948 356.5 934.5Q371 921 377.0 901.0Q383 881 384 860L403 619Q417 616 425.5 612.5Q434 609 438 607V571Q428 571 412.0 569.0Q396 567 381.5 561.0Q367 555 360 542Q350 521 348.5 491.5Q347 462 339 445Q332 427 317.5 418.5Q303 410 288 406L293 263Q340 257 366.5 230.5Q393 204 404.0 171.0Q415 138 415 110H396Q396 134 387.0 162.0Q378 190 356.5 212.5Q335 235 297 242Q321 208 341.0 155.0Q361 102 361 22H342Q342 84 328.0 129.5Q314 175 296 206L311 -142Q313 -180 304.5 -197.0Q296 -214 270 -214ZM136 624Q156 627 184.0 630.0Q212 633 250 633V856Q250 882 242.0 905.5Q234 929 205 929Q177 929 167.0 906.0Q157 883 155 858ZM383 624 365 858Q363 883 353.0 906.0Q343 929 314 929Q287 929 278.5 907.0Q270 885 270 856V633Q308 633 336.0 630.5Q364 628 383 624ZM260 423Q273 423 292.5 428.5Q312 434 321 455Q329 473 330.5 502.5Q332 532 342 553Q349 568 363.5 575.5Q378 583 393.5 586.0Q409 589 419 589V593Q415 596 399.0 601.0Q383 606 350.0 610.0Q317 614 260 614Q203 614 170.0 610.0Q137 606 121.5 601.0Q106 596 101 593V589Q116 589 141.5 581.5Q167 574 178 553Q188 532 189.5 502.5Q191 473 199 455Q208 434 227.5 428.5Q247 423 260 423ZM273 274 268 403H251L247 304Q254 296 261.0 289.0Q268 282 273 274ZM157 252Q173 252 186.5 254.5Q200 257 213 259L225 261L227 295Q205 317 177.5 333.0Q150 349 118 349Q97 349 82.5 338.5Q68 328 68 307Q68 280 93.5 266.0Q119 252 157 252ZM250 -194H270Q287 -194 290.0 -180.0Q293 -166 292 -143L275 238Q272 244 260.5 258.0Q249 272 246 275L228 -143Q227 -166 230.5 -180.0Q234 -194 250 -194Z" />
  </g>
</svg>