<svg xmlns="http://www.w3.org/2000/svg" viewBox="49 -214 357 1162">
  <g transform="translate(0, 734) scale(1, -1)">
    <path fill="black" d="M218 -214Q191 -214 183.0 -197.0Q175 -180 176 -142L199 406Q184 410 170.0 418.5Q156 427 148 445Q140 462 139.0 491.5Q138 521 127 542Q121 555 106.5 561.0Q92 567 76.0 569.0Q60 571 49 571V607Q57 613 84 619L103 860Q105 881 110.5 901.0Q116 921 131.0 934.5Q146 948 173 948Q195 948 208.0 939.0Q221 930 228 915Q234 930 247.0 939.0Q260 948 282 948Q310 948 324.5 934.5Q339 921 345.0 901.0Q351 881 352 860L371 619Q385 616 393.5 612.5Q402 609 406 607V571Q390 571 364.0 566.0Q338 561 328 542Q318 521 316.5 491.5Q315 462 307 445Q299 427 285.0 418.5Q271 410 255 406L279 -142Q281 -180 272.5 -197.0Q264 -214 237 -214ZM104 624Q124 627 152.0 630.0Q180 633 218 633V856Q218 882 210.0 905.5Q202 929 173 929Q144 929 134.5 906.0Q125 883 123 858ZM351 624 333 858Q331 883 321.0 906.0Q311 929 282 929Q255 929 246.0 907.0Q237 885 237 856V633Q276 633 304.0 630.5Q332 628 351 624ZM228 423Q241 423 260.0 428.5Q279 434 289 455Q297 473 298.5 502.5Q300 532 310 553Q317 568 331.5 575.5Q346 583 361.5 586.0Q377 589 387 589V593Q382 596 366.0 601.0Q350 606 317.5 610.0Q285 614 228 614Q171 614 138.0 610.0Q105 606 89.0 601.0Q73 596 68 593V589Q83 589 108.5 581.5Q134 574 146 553Q156 532 157.5 502.5Q159 473 167 455Q176 434 195.5 428.5Q215 423 228 423ZM218 -194H237Q254 -194 257.5 -180.0Q261 -166 259 -143L236 403H219L196 -143Q195 -166 198.0 -180.0Q201 -194 218 -194Z" />
  </g>
</svg>