<svg xmlns="http://www.w3.org/2000/svg" viewBox="49 -214 525 1164">
  <g transform="translate(0, 736) scale(1, -1)">
    <path fill="black" d="M221 -214Q195 -214 187.0 -197.0Q179 -180 180 -142L195 124H49L64 353Q66 393 74.0 426.5Q82 460 97 485L111 863Q113 896 127.5 923.0Q142 950 174 950Q191 950 203.5 943.0Q216 936 224 925Q232 936 244.5 943.0Q257 950 273 950Q305 950 319.5 923.0Q334 896 336 863L351 485Q354 478 357.5 471.0Q361 464 364 456Q374 496 400.5 514.5Q427 533 461 533Q495 533 518.5 513.5Q542 494 542 463Q541 421 515.5 400.5Q490 380 455 373Q466 362 482.0 343.5Q498 325 513.0 307.5Q528 290 535 282Q545 272 559.5 252.5Q574 233 574 218Q574 191 550 191Q530 191 516.0 207.0Q502 223 491 239Q488 243 478.0 259.5Q468 276 455.5 297.0Q443 318 433 333Q444 308 457.0 277.0Q470 246 479.0 219.5Q488 193 488 180Q488 167 481.0 157.5Q474 148 458 148Q442 148 431.0 161.0Q420 174 414.0 189.5Q408 205 405 213Q399 225 390 258L398 124H252L269 -142Q271 -180 262.5 -197.0Q254 -214 227 -214ZM117 513Q151 550 214 553V895Q213 909 202.0 919.5Q191 930 174 930Q152 930 142.5 909.0Q133 888 131 862ZM330 513 316 862Q315 888 305.5 909.0Q296 930 273 930Q256 930 244.5 919.0Q233 908 233 893V553Q296 550 330 513ZM94 422H353Q340 474 309.0 504.0Q278 534 224 534Q168 534 137.5 504.5Q107 475 94 422ZM380 385Q401 385 425.5 387.0Q450 389 472.0 396.5Q494 404 508.0 420.0Q522 436 522 463Q522 483 504.5 498.5Q487 514 461 514Q428 514 404.5 492.0Q381 470 379 422H394Q394 437 398.5 455.0Q403 473 417.0 486.0Q431 499 459 499Q483 499 494.0 486.5Q505 474 505 461Q505 432 472.0 417.5Q439 403 398 403H377V401ZM413 422H417Q446 421 466.0 432.5Q486 444 486 461Q486 467 480.0 474.0Q474 481 459 481Q435 481 423.5 463.5Q412 446 413 422ZM87 385H360L357 403H89Q88 399 87.5 394.5Q87 390 87 385ZM550 211Q555 211 555 218Q555 226 543.5 241.0Q532 256 521 270Q514 278 497.5 297.0Q481 316 463.5 336.5Q446 357 434 369L424 368Q432 356 444.5 338.0Q457 320 470.5 301.5Q484 283 494.0 268.5Q504 254 507 250Q513 242 526.0 226.5Q539 211 550 211ZM458 167Q469 167 469 181Q469 189 461.5 212.0Q454 235 443.0 265.0Q432 295 421.5 322.5Q411 350 404 366Q399 366 392.5 365.5Q386 365 383 365Q388 336 396.5 306.0Q405 276 412.5 253.0Q420 230 423 220Q426 213 430.5 200.5Q435 188 442.0 177.5Q449 167 458 167ZM70 143H377Q374 196 371.0 248.0Q368 300 364 352L362 365H84Q84 362 83.5 358.5Q83 355 83 352ZM221 -194H227Q244 -194 247.0 -180.0Q250 -166 249 -143L233 124H214L199 -143Q198 -166 201.5 -180.0Q205 -194 221 -194Z" />
  </g>
</svg>