<svg xmlns="http://www.w3.org/2000/svg" viewBox="49 -218 427 1172">
  <g transform="translate(0, 736) scale(1, -1)">
    <path fill="black" d="M181 -218Q174 -213 158.5 -191.5Q143 -170 142 -141Q142 -110 161.0 -90.0Q180 -70 200 -66V592Q200 615 193.5 627.5Q187 640 158 641L155 629Q153 615 148.0 598.5Q143 582 131 561Q127 553 120.0 531.5Q113 510 109 497Q105 481 97.0 461.5Q89 442 74 442Q65 442 57.0 450.0Q49 458 49 482Q49 490 52.0 504.0Q55 518 59 534Q63 552 67.5 574.0Q72 596 71 610Q69 648 79.5 679.0Q90 710 106 741Q116 758 128.5 779.0Q141 800 152.5 821.0Q164 842 169 856Q176 873 181.0 902.5Q186 932 187 954H210Q221 935 232.5 903.0Q244 871 244 843Q244 818 234.0 791.5Q224 765 210.5 742.0Q197 719 186 702Q191 701 195.5 700.5Q200 700 204 699L364 876Q375 889 390.0 900.5Q405 912 423 912Q449 912 462.5 896.0Q476 880 476 857Q476 832 462.5 818.0Q449 804 432 804Q420 804 408 810Q403 797 392.0 770.5Q381 744 369.0 714.5Q357 685 347 660Q334 666 317.0 673.0Q300 680 282 680Q271 680 263.0 677.5Q255 675 249 672L250 671Q295 655 338.0 626.5Q381 598 409.5 562.5Q438 527 438 488Q438 455 429.5 438.5Q421 422 410.0 416.5Q399 411 393 411Q389 411 385.0 411.5Q381 412 378 413Q369 361 326 361Q307 361 295.5 375.0Q284 389 278.0 411.0Q272 433 269.0 455.5Q266 478 264 494V-66Q284 -70 303.0 -90.0Q322 -110 322 -141Q321 -170 305.5 -191.5Q290 -213 283 -218L252 -205Q259 -194 266.0 -175.5Q273 -157 273 -144Q273 -131 265.5 -119.0Q258 -107 232 -107Q207 -107 198.5 -119.0Q190 -131 190 -144Q190 -157 197.5 -175.5Q205 -194 211 -205ZM74 461Q79 461 83.5 475.0Q88 489 91 501Q94 515 101.5 538.0Q109 561 114 571Q124 588 128.5 604.0Q133 620 136 633Q140 653 146.0 670.5Q152 688 163 703Q174 719 188.0 742.0Q202 765 213.0 791.5Q224 818 224 843Q224 864 216.5 887.0Q209 910 204 923Q202 907 198.0 886.5Q194 866 188 849Q174 815 154.0 784.5Q134 754 117 722Q102 697 96.0 668.5Q90 640 90 611Q91 595 86.5 572.5Q82 550 77 529Q74 514 71.0 502.0Q68 490 68 482Q68 461 74 461ZM236 687Q244 692 255.0 695.5Q266 699 282 699Q298 699 312.0 695.5Q326 692 336 688Q341 700 351.5 725.5Q362 751 374.5 782.0Q387 813 397 838Q405 834 415.0 829.0Q425 824 432 824Q443 824 450.0 833.0Q457 842 457 857Q457 872 448.5 882.0Q440 892 423 892Q410 892 395.5 879.5Q381 867 372 856L225 693Q228 692 230.5 690.5Q233 689 236 687ZM123 642 104 647 118 703 137 698ZM186 -199 190 -196Q186 -188 179.0 -172.5Q172 -157 172 -141Q172 -124 185.0 -106.5Q198 -89 232 -89Q266 -89 279.0 -106.5Q292 -124 292 -141Q292 -157 285.5 -172.5Q279 -188 274 -196L278 -199Q303 -174 303 -141Q303 -121 288.0 -100.5Q273 -80 244 -80V610Q244 650 227.5 666.0Q211 682 173 683Q171 680 170.0 678.0Q169 676 168 675Q167 671 165.5 667.5Q164 664 162 660Q203 658 211.5 641.0Q220 624 220 592V-80Q192 -80 176.5 -100.5Q161 -121 161 -141Q161 -174 186 -199ZM393 431Q398 431 408.0 441.0Q418 451 418 488Q418 518 395.0 549.0Q372 580 336.0 606.5Q300 633 260 648L261 642Q294 630 321.5 600.0Q349 570 365.5 533.5Q382 497 382 465Q382 456 382.0 448.0Q382 440 381 432Q384 431 393 431ZM326 380Q347 380 355.0 404.0Q363 428 363 462Q363 492 349.0 524.0Q335 556 312.5 582.5Q290 609 264 620V591Q266 578 269.5 553.0Q273 528 277.5 498.5Q282 469 289.0 442.0Q296 415 305.0 397.5Q314 380 326 380Z" />
  </g>
</svg>