<svg xmlns="http://www.w3.org/2000/svg" viewBox="49 5 1297 278">
  <g transform="translate(0, 288) scale(1, -1)">
    <path fill="black" d="M578 5 152 50Q95 56 72.0 83.0Q49 110 49 144Q49 178 72.0 205.0Q95 232 152 238L578 283Q586 264 598.5 245.0Q611 226 624 212Q638 227 656.5 236.0Q675 245 697 245Q719 245 738.0 236.0Q757 227 771 212Q784 226 796.5 245.0Q809 264 816 283L1242 238Q1299 232 1322.5 205.0Q1346 178 1346 144Q1346 110 1322.5 83.0Q1299 56 1242 50L816 5Q809 24 796.5 43.0Q784 62 771 76Q757 61 738.0 52.0Q719 43 697 43Q675 43 656.5 52.0Q638 61 624 76Q611 62 598.5 43.0Q586 24 578 5ZM566 26Q574 43 586.5 61.0Q599 79 611 92Q597 115 597 144Q597 173 611 196Q599 209 586.5 227.0Q574 245 566 262L154 218Q107 213 87.5 191.0Q68 169 68 144Q68 119 88.0 97.0Q108 75 154 70ZM828 26 1240 70Q1287 75 1306.5 97.0Q1326 119 1326 144Q1326 169 1307.0 191.0Q1288 213 1240 218L828 262Q820 245 807.5 227.0Q795 209 783 196Q790 185 794.0 171.5Q798 158 798 144Q798 130 794.0 116.5Q790 103 783 92Q795 79 807.5 61.0Q820 43 828 26ZM697 63Q731 63 754.5 86.5Q778 110 778 144Q778 178 754.5 201.5Q731 225 697 225Q663 225 639.5 201.5Q616 178 616 144Q616 110 639.5 86.5Q663 63 697 63Z" />
  </g>
</svg>