<svg xmlns="http://www.w3.org/2000/svg" viewBox="49 6 1319 291">
  <g transform="translate(0, 303) scale(1, -1)">
    <path fill="black" d="M571 6V91H524V33L173 77Q146 81 117.5 87.5Q89 94 69.0 109.0Q49 124 49 152Q49 180 69.0 195.0Q89 210 117.5 217.0Q146 224 173 227L524 271V212H571V297H590V223Q608 253 639.5 271.5Q671 290 708 290Q746 290 777.5 271.5Q809 253 827 223V297H846V212H893V271L1244 227Q1271 224 1300.0 217.0Q1329 210 1348.5 195.0Q1368 180 1368 152Q1368 124 1348.5 109.0Q1329 94 1300.0 87.5Q1271 81 1244 77L893 33V91H846V6H827V81Q809 51 777.5 32.5Q746 14 708 14Q671 14 639.5 32.5Q608 51 590 81V6ZM708 34Q741 34 768.0 50.0Q795 66 811.0 92.5Q827 119 827 152Q827 186 810.5 212.5Q794 239 767.0 254.5Q740 270 708 270Q677 270 650.0 254.5Q623 239 606.5 212.5Q590 186 590 152Q590 119 606.0 92.5Q622 66 649.0 50.0Q676 34 708 34ZM504 56V248L175 207Q152 204 127.0 199.0Q102 194 85.0 183.0Q68 172 68 152Q68 132 85.0 121.0Q102 110 127.5 105.0Q153 100 176 97ZM913 56 1241 97Q1265 100 1290.0 105.0Q1315 110 1332.0 121.0Q1349 132 1349 152Q1349 172 1332.0 183.0Q1315 194 1290.0 199.0Q1265 204 1241 207L913 248ZM524 111H571V193H524ZM846 111H893V193H846Z" />
  </g>
</svg>