<svg xmlns="http://www.w3.org/2000/svg" viewBox="49.0 -103 1243.0 586">
  <g transform="translate(0, 380) scale(1, -1)">
    <path fill="black" d="M74 -103Q65 -103 58.0 -97.0Q51 -91 50 -80Q49 -74 49.0 -67.5Q49 -61 49 -55Q49 -2 65.5 46.5Q82 95 114.5 133.0Q147 171 193 190Q146 209 113.5 246.5Q81 284 65.0 333.0Q49 382 49 435Q49 441 49.0 447.5Q49 454 50 460Q52 483 74 483Q87 483 92.5 475.0Q98 467 98 459Q98 380 141.0 320.0Q184 260 260 243Q271 283 304.5 311.5Q338 340 393 340H948Q1003 340 1036.5 311.5Q1070 283 1081 243Q1157 260 1200.0 320.0Q1243 380 1243 459Q1243 467 1248.5 475.0Q1254 483 1267 483Q1288 483 1291 460Q1292 454 1292.0 447.5Q1292 441 1292 435Q1292 382 1276.0 333.0Q1260 284 1227.5 246.5Q1195 209 1147 190Q1194 171 1226.0 133.0Q1258 95 1275.0 46.5Q1292 -2 1292 -55Q1292 -61 1292.0 -67.5Q1292 -74 1291 -80Q1290 -91 1282.5 -97.0Q1275 -103 1267 -103Q1255 -103 1249.0 -95.5Q1243 -88 1243 -80Q1243 0 1200.0 60.0Q1157 120 1081 136Q1070 96 1036.5 68.0Q1003 40 948 40H393Q338 40 304.5 68.0Q271 96 260 136Q184 120 141.0 60.0Q98 0 98 -80Q98 -88 91.5 -95.5Q85 -103 74 -103ZM74 -83Q78 -83 78 -80Q78 -22 99.5 27.0Q121 76 161.0 110.0Q201 144 256 156Q255 161 254.5 166.0Q254 171 254 176V204Q254 209 254.5 214.0Q255 219 256 224Q201 237 161.0 270.5Q121 304 99.5 353.0Q78 402 78 459Q78 463 74 463Q71 463 69 459Q68 453 68.0 447.0Q68 441 68 435Q68 381 86.5 332.0Q105 283 141.5 247.5Q178 212 230 198V182Q178 168 141.5 132.5Q105 97 86.5 48.0Q68 -1 68 -55Q68 -61 68.0 -66.5Q68 -72 69 -79Q70 -83 74 -83ZM1267 -83Q1271 -83 1271 -79Q1272 -72 1272.0 -66.5Q1272 -61 1272 -55Q1272 -1 1253.5 48.0Q1235 97 1199.0 132.5Q1163 168 1110 182V198Q1163 212 1199.0 247.5Q1235 283 1253.5 332.0Q1272 381 1272 435Q1272 441 1272.0 447.0Q1272 453 1271 459Q1271 463 1267 463Q1262 463 1262 459Q1262 402 1240.5 353.0Q1219 304 1179.5 270.5Q1140 237 1084 224Q1085 219 1085.5 214.0Q1086 209 1086 204V176Q1086 171 1085.5 166.0Q1085 161 1084 156Q1140 144 1179.5 110.0Q1219 76 1240.5 27.0Q1262 -22 1262 -80Q1262 -83 1267 -83ZM393 60H948Q987 60 1013.5 76.5Q1040 93 1053.0 120.0Q1066 147 1066 176V204Q1066 234 1053.0 260.5Q1040 287 1013.5 303.5Q987 320 948 320H393Q354 320 327.5 303.5Q301 287 287.5 260.5Q274 234 274 204V176Q274 147 287.5 120.0Q301 93 327.5 76.5Q354 60 393 60Z" />
  </g>
</svg>