<svg xmlns="http://www.w3.org/2000/svg" viewBox="49 -219 929 1145.0">
  <g transform="translate(0, 707.0) scale(1, -1)">
    <path fill="black" d="M98 -219Q92 -219 86.0 -219.0Q80 -219 73 -218Q49 -215 49 -192Q49 -179 58.5 -172.0Q68 -165 75 -165Q161 -165 210.5 -132.0Q260 -99 274 -21H272Q219 -21 201.0 2.0Q183 25 183 74V634Q183 684 201.0 706.5Q219 729 272 729H274Q260 807 210.5 840.0Q161 873 75 873Q68 873 58.5 879.5Q49 886 49 899Q49 910 55.5 917.0Q62 924 73 925Q80 926 86.0 926.0Q92 926 98 926Q164 926 216.5 903.0Q269 880 302.5 836.5Q336 793 343 729H684Q691 793 724.0 836.5Q757 880 810.0 903.0Q863 926 928 926Q935 926 941.0 926.0Q947 926 953 925Q964 924 971.0 917.0Q978 910 978 899Q978 886 968.5 879.5Q959 873 951 873Q865 873 815.5 840.0Q766 807 752 729H754Q807 729 825.0 706.5Q843 684 843 634V74Q843 25 825.0 2.0Q807 -21 754 -21H752Q766 -99 815.5 -132.0Q865 -165 951 -165Q959 -165 968.5 -172.0Q978 -179 978 -192Q978 -215 953 -218Q947 -219 941.0 -219.0Q935 -219 928 -219Q863 -219 810.0 -196.0Q757 -173 724.0 -128.5Q691 -84 684 -21H343Q336 -84 302.5 -128.5Q269 -173 216.5 -196.0Q164 -219 98 -219ZM296 729H321Q313 791 280.0 830.0Q247 869 200.0 888.0Q153 907 99 907Q92 907 86.0 907.0Q80 907 74 906Q67 904 69 899Q69 892 75 892Q167 892 224.0 853.5Q281 815 296 729ZM705 729H730Q745 815 802.0 853.5Q859 892 951 892Q958 892 958 899Q958 904 952 906Q946 907 940.0 907.0Q934 907 927 907Q874 907 826.5 888.0Q779 869 746.5 830.0Q714 791 705 729ZM203 482 802 698Q787 709 754 709H272Q231 709 217.0 691.0Q203 673 203 634ZM249 478H824V634Q824 664 815 682ZM203 251 777 458H203ZM256 250H824V454ZM210 26 777 230H203V74Q203 43 210 26ZM272 -2H754Q796 -2 810.0 16.0Q824 34 824 74V226L224 10Q239 -2 272 -2ZM99 -199Q153 -199 200.0 -180.5Q247 -162 280.0 -122.5Q313 -83 321 -21H296Q281 -108 224.0 -146.5Q167 -185 75 -185Q69 -185 69 -192Q67 -198 74 -198Q80 -199 86.0 -199.0Q92 -199 99 -199ZM927 -199Q934 -199 940.0 -199.0Q946 -199 952 -198Q958 -198 958 -192Q958 -185 951 -185Q859 -185 802.0 -146.5Q745 -108 730 -21H705Q714 -83 746.5 -122.5Q779 -162 826.5 -180.5Q874 -199 927 -199Z" />
  </g>
</svg>