<svg xmlns="http://www.w3.org/2000/svg" viewBox="49 -219 963 1156">
  <g transform="translate(0, 718) scale(1, -1)">
    <path fill="black" d="M130 -219 58 -11 116 -52V300Q106 304 99.0 310.5Q92 317 90 321Q80 336 71.5 349.0Q63 362 49 372V394Q60 401 84.0 406.0Q108 411 125 411Q143 411 167.5 406.0Q192 401 202 394V372Q186 359 178.0 346.5Q170 334 161 321Q159 317 152.5 310.5Q146 304 135 300V-52L166 -32L192 -51Q200 33 225.5 110.5Q251 188 290.0 251.5Q329 315 377.0 357.5Q425 400 477 415Q463 421 443.0 433.5Q423 446 404.0 470.0Q385 494 373 531Q365 556 356.0 586.5Q347 617 333.0 645.0Q319 673 295.5 691.5Q272 710 235 710Q198 710 176.5 694.0Q155 678 145.5 654.5Q136 631 136 607V532Q146 528 152.5 521.0Q159 514 162 511Q171 498 179.0 485.0Q187 472 203 459V438Q192 431 167.5 425.5Q143 420 126 420Q109 420 84.5 425.5Q60 431 49 438V459Q63 470 71.5 483.0Q80 496 90 511Q93 514 99.5 521.0Q106 528 116 532V607Q116 635 127.0 663.5Q138 692 164.5 711.0Q191 730 235 730Q278 730 305.0 710.5Q332 691 347.5 661.0Q363 631 372.5 597.5Q382 564 391 537Q403 499 420.5 477.0Q438 455 456.5 445.0Q475 435 487 431L446 855H239V937H820V855H613L572 431Q585 435 603.0 445.0Q621 455 639.0 477.0Q657 499 668 537Q677 564 686.5 597.5Q696 631 711.5 661.0Q727 691 754.0 710.5Q781 730 824 730Q869 730 895.0 711.0Q921 692 932.0 663.5Q943 635 943 607V536Q958 528 966.0 515.0Q974 502 978 492Q982 481 988.5 467.5Q995 454 1012 438L985 417Q980 419 971.0 423.5Q962 428 954 433Q950 428 944.5 422.5Q939 417 933 412Q927 417 921.5 422.5Q916 428 913 433Q904 428 895.0 423.5Q886 419 881 417L854 438Q871 454 878.0 467.5Q885 481 889 492Q893 502 900.5 515.0Q908 528 923 536V607Q923 631 913.5 654.5Q904 678 882.5 694.0Q861 710 824 710Q788 710 764.5 691.5Q741 673 727.0 645.0Q713 617 704.0 586.5Q695 556 687 531Q675 494 656.0 470.0Q637 446 617.0 433.5Q597 421 583 415Q635 400 682.5 357.5Q730 315 769.0 251.5Q808 188 834.0 110.5Q860 33 868 -51L894 -32L924 -52V280H923V286Q908 294 900.5 307.0Q893 320 889 330Q885 341 878.0 354.5Q871 368 854 384L881 404Q886 402 895.0 398.0Q904 394 913 389Q916 394 921.5 399.5Q927 405 933 410Q939 405 944.5 399.5Q950 394 954 389Q962 394 971.0 398.0Q980 402 985 404L1012 384Q995 368 988.5 354.5Q982 341 978 330Q974 320 966.0 307.0Q958 294 944 286V-52L1002 -11L930 -219H787L715 -11L772 -51Q770 -20 758.0 19.0Q746 58 727.0 94.0Q708 130 685 152Q669 148 654.5 152.0Q640 156 629 160Q619 165 605.0 170.0Q591 175 567 175L572 208Q577 210 586.5 213.5Q596 217 606 219Q604 231 606 248Q623 250 635 248Q638 257 641.5 266.5Q645 276 647 280L681 285Q680 261 684.5 247.0Q689 233 693 222Q698 212 701.0 197.5Q704 183 699 166Q724 142 744.0 103.5Q764 65 777.0 23.0Q790 -19 792 -52L823 -32L848 -50Q840 33 814.5 109.0Q789 185 750.5 246.0Q712 307 665.5 347.0Q619 387 568 398L542 122Q553 127 569.0 132.0Q585 137 604 137Q641 137 660.0 112.0Q679 87 679 55Q679 30 666.5 4.0Q654 -22 642 -42Q638 -49 634.0 -56.0Q630 -63 627 -68Q614 -95 605.5 -124.0Q597 -153 592 -172Q587 -191 571.0 -205.0Q555 -219 530 -219Q505 -219 489.0 -205.0Q473 -191 468 -172Q463 -154 454.0 -124.5Q445 -95 432 -68Q430 -63 426.0 -56.0Q422 -49 418 -42Q405 -22 392.5 4.0Q380 30 380 55Q380 87 399.5 112.0Q419 137 456 137Q475 137 491.0 132.0Q507 127 518 122L491 398Q440 387 393.5 347.0Q347 307 309.0 246.0Q271 185 245.5 109.0Q220 33 212 -50L236 -32L268 -52Q270 -17 284.0 27.0Q298 71 320.5 111.0Q343 151 369 173Q365 184 366.0 193.0Q367 202 368 206Q373 224 377.0 238.5Q381 253 379 271L396 285Q408 281 428.0 266.5Q448 252 459 238Q471 225 483.0 203.5Q495 182 496 169L480 155Q460 159 445.0 156.5Q430 154 414 152Q410 152 400.5 152.5Q391 153 381 158Q357 138 336.5 101.0Q316 64 303.0 23.0Q290 -18 287 -51L345 -11L272 -219ZM259 875H801V917H259ZM530 205 594 855H466ZM880 435Q889 439 906.0 453.0Q923 467 933 487Q944 467 960.5 453.0Q977 439 986 435L991 439Q974 455 968.0 465.0Q962 475 960 481Q957 491 952.0 504.5Q947 518 933 518Q919 518 914.5 504.5Q910 491 906 481Q904 475 898.0 465.0Q892 455 875 439ZM126 440Q141 440 157.5 443.0Q174 446 182 450Q169 460 162.0 472.5Q155 485 146 499Q145 501 140.0 507.0Q135 513 125 513Q116 513 112.0 507.0Q108 501 106 499Q94 481 88.0 470.5Q82 460 72 452Q83 448 98.0 444.0Q113 440 126 440ZM933 431Q937 435 940.0 438.0Q943 441 944 444Q938 449 933 455Q928 449 922 444Q924 441 926.5 438.0Q929 435 933 431ZM125 318Q135 318 140.0 324.0Q145 330 146 333Q154 347 161.0 359.0Q168 371 181 381Q173 385 157.0 388.5Q141 392 125 392Q113 392 97.5 388.0Q82 384 72 379Q82 371 88.0 360.5Q94 350 105 333Q107 331 111.0 324.5Q115 318 125 318ZM933 367Q938 374 944 377Q941 383 933 391Q925 383 922 377Q928 374 933 367ZM933 304Q947 304 952.0 317.5Q957 331 960 341Q962 347 968.0 357.0Q974 367 991 383L986 387Q977 383 960.5 369.0Q944 355 933 335Q923 355 906.0 369.0Q889 383 880 387L875 383Q892 367 898.0 357.0Q904 347 906 341Q910 331 914.5 317.5Q919 304 933 304ZM680 172Q690 182 684.0 195.0Q678 208 673 218Q671 223 668.0 234.5Q665 246 666 269L660 268Q656 259 653.5 238.0Q651 217 658 194Q636 202 614.5 200.5Q593 199 584 195L583 189Q606 188 617.5 185.0Q629 182 634 179Q644 175 657.0 168.5Q670 162 680 172ZM413 172Q430 174 444.0 177.0Q458 180 473 177Q470 185 462.5 199.5Q455 214 444 226Q437 235 424.0 244.5Q411 254 400 258Q400 245 396.5 234.0Q393 223 387 202Q386 200 384.0 193.0Q382 186 389 178Q395 171 402.5 171.0Q410 171 413 172ZM621 217Q624 218 628.0 218.0Q632 218 635 218Q635 221 635.0 225.0Q635 229 636 232Q629 235 619 234Q619 230 619.5 225.5Q620 221 621 217ZM520 -199V98Q513 103 495.5 110.0Q478 117 456 117Q428 117 414.0 98.0Q400 79 400 55Q400 33 411.5 10.0Q423 -13 435 -33Q439 -40 443.0 -47.0Q447 -54 450 -60Q462 -87 471.5 -117.0Q481 -147 486 -167Q490 -178 498.5 -187.0Q507 -196 520 -199ZM540 -199Q553 -196 561.0 -187.0Q569 -178 573 -167Q578 -147 587.5 -117.0Q597 -87 610 -60Q613 -54 617.0 -47.0Q621 -40 625 -33Q637 -13 648.5 10.0Q660 33 660 55Q660 79 646.0 98.0Q632 117 604 117Q582 117 564.5 110.0Q547 103 540 98ZM144 -199H259L306 -61L277 -82L237 -56L201 -83L166 -56L125 -82L96 -61ZM801 -199H916L964 -61L934 -82L894 -56L858 -83L823 -56L783 -82L753 -61Z" />
  </g>
</svg>