<svg xmlns="http://www.w3.org/2000/svg" viewBox="49 -223 534 1162">
  <g transform="translate(0, 716) scale(1, -1)">
    <path fill="black" d="M321 -223Q308 -223 294.0 -215.5Q280 -208 274 -200L295 307Q267 314 246.0 345.0Q225 376 225 427Q225 466 230.5 498.5Q236 531 246 561L135 499Q122 492 107.0 484.0Q92 476 82 476Q67 476 58.0 486.5Q49 497 49 510Q49 527 59.0 536.0Q69 545 85 552L217 599L111 645Q93 653 82.0 661.0Q71 669 71 684Q71 694 79.0 700.0Q87 706 97 706Q102 706 112.0 702.5Q122 699 126 697L276 623H277Q261 647 244.0 689.0Q227 731 227 783Q227 824 237.0 859.5Q247 895 268.5 917.0Q290 939 324 939Q359 939 380.0 917.0Q401 895 410.5 859.5Q420 824 420 783Q420 756 413.5 728.0Q407 700 399 679L501 733Q513 739 529.5 747.5Q546 756 553 756Q565 756 572.0 749.0Q579 742 579 734Q579 715 560.5 703.0Q542 691 522 680L389 608Q427 598 469.5 584.5Q512 571 550 551Q564 544 573.5 535.0Q583 526 583 518Q583 508 574.0 496.5Q565 485 552 485Q546 485 540.5 488.5Q535 492 528 497Q524 500 516.0 506.0Q508 512 500 516Q478 529 459.5 535.0Q441 541 421 545Q456 510 475.0 469.0Q494 428 501.5 391.0Q509 354 509 332Q509 307 502.0 294.0Q495 281 475 281Q459 281 448.5 293.0Q438 305 438 330Q438 335 438.5 341.0Q439 347 440 353Q441 360 441.5 368.5Q442 377 442 384Q442 405 433.5 427.0Q425 449 415 467Q416 459 416.5 450.5Q417 442 417 434Q417 382 397.0 348.0Q377 314 346 307L368 -201Q361 -209 347.0 -216.0Q333 -223 321 -223ZM321 -203Q330 -203 337.0 -198.5Q344 -194 348 -190L326 324Q356 327 377.0 357.0Q398 387 398 434Q398 448 397.0 466.5Q396 485 394.5 500.5Q393 516 393 518L395 520Q408 507 423.0 482.5Q438 458 449.5 431.5Q461 405 461 384Q461 375 460.5 367.0Q460 359 459 351Q458 345 458.0 340.0Q458 335 458 330Q458 300 475 300Q489 300 489 332Q489 350 482.5 380.5Q476 411 461.5 446.5Q447 482 424.0 515.5Q401 549 367 573L368 578Q403 569 444.0 557.0Q485 545 510 532Q528 522 540 512Q550 504 552 504Q557 504 560.0 509.0Q563 514 563 518Q563 523 548.0 531.5Q533 540 511.5 549.5Q490 559 470 566Q454 572 425.5 582.0Q397 592 348 604L513 697Q530 707 544.5 716.0Q559 725 559 732Q559 736 553 736Q549 736 537.5 730.0Q526 724 507 714L354 633Q362 648 373.0 674.5Q384 701 392.5 730.5Q401 760 401 783Q401 819 393.0 850.0Q385 881 368.5 900.0Q352 919 324 919Q297 919 280.0 900.0Q263 881 255.0 850.0Q247 819 247 783Q247 731 265.5 689.0Q284 647 300 624L276 605L118 679Q114 681 107.5 683.5Q101 686 97 686Q91 686 91 683Q91 678 98.5 673.0Q106 668 119 662L255 597L93 534Q68 524 68 510Q68 505 71.5 500.5Q75 496 82 496Q89 496 101.0 502.5Q113 509 125 516L278 596Q259 551 251.5 512.0Q244 473 244 427Q244 381 266.0 354.0Q288 327 316 325L293 -190Q297 -194 304.0 -198.5Q311 -203 321 -203ZM316 628Q291 657 276.0 697.0Q261 737 261 783Q261 832 276.0 868.5Q291 905 324 905Q357 905 371.5 868.5Q386 832 386 783Q386 745 371.5 701.0Q357 657 331 628ZM324 650Q344 676 355.5 713.0Q367 750 367 783Q367 824 357.0 854.5Q347 885 324 885Q301 885 291.0 854.5Q281 824 281 783Q281 744 292.5 710.0Q304 676 324 650ZM321 338Q298 338 278.5 358.0Q259 378 259 427Q259 494 276.0 542.5Q293 591 321 616Q348 591 365.5 542.5Q383 494 383 427Q383 378 363.5 358.0Q344 338 321 338ZM321 357Q337 357 350.0 372.5Q363 388 363 427Q363 484 351.5 526.0Q340 568 321 589Q302 568 290.0 527.0Q278 486 278 427Q278 388 291.5 372.5Q305 357 321 357Z" />
  </g>
</svg>