<svg xmlns="http://www.w3.org/2000/svg" viewBox="49 -211 584 1139">
  <g transform="translate(0, 717) scale(1, -1)">
    <path fill="black" d="M341 -211Q294 -211 259.0 -183.0Q224 -155 198.0 -109.0Q172 -63 154.5 -8.5Q137 46 126.5 100.0Q116 154 110.5 198.5Q105 243 103 267Q102 280 98.5 313.5Q95 347 90.5 394.5Q86 442 80 494Q74 547 68.5 600.5Q63 654 58.5 699.5Q54 745 51.5 774.5Q49 804 49 809Q49 825 64.0 845.5Q79 866 112.5 884.5Q146 903 202.0 915.5Q258 928 341 928Q424 928 480.0 915.5Q536 903 569.5 884.5Q603 866 618.0 845.5Q633 825 633 809Q633 804 630.0 774.5Q627 745 622.5 700.0Q618 655 612.5 601.5Q607 548 602 494Q597 441 592.0 393.5Q587 346 583.5 312.5Q580 279 579 267Q577 243 571.5 198.5Q566 154 555.0 100.0Q544 46 526.5 -8.5Q509 -63 483.5 -109.0Q458 -155 423.0 -183.0Q388 -211 341 -211ZM158 48H312Q300 71 289.5 102.0Q279 133 279 152Q279 170 288.5 190.0Q298 210 308 229Q317 246 324.5 262.0Q332 278 332 290Q332 302 326.0 318.5Q320 335 312 353Q303 373 295.5 395.5Q288 418 288 437Q288 457 298.0 475.5Q308 494 318 510Q326 523 333.5 536.0Q341 549 341 558Q341 568 334.0 579.0Q327 590 318 602Q307 618 296.5 636.0Q286 654 286 673Q286 686 297.5 706.0Q309 726 320 739Q308 738 294.0 737.0Q280 736 269 736Q243 736 218.5 745.0Q194 754 194 785Q194 813 222.0 829.5Q250 846 302 846Q360 846 397.5 822.0Q435 798 435 763Q435 743 421.0 727.0Q407 711 393 697Q384 690 377.5 683.0Q371 676 371 672Q371 668 377.5 657.0Q384 646 392 634Q403 617 414.0 597.5Q425 578 425 560Q425 532 413.5 510.5Q402 489 390 472Q383 462 377.5 453.5Q372 445 372 438Q372 425 379.0 405.5Q386 386 394 365Q402 343 409.0 323.5Q416 304 416 290Q416 276 407.5 255.5Q399 235 388 214Q379 195 371.5 178.5Q364 162 364 152Q364 139 372.5 116.5Q381 94 400 48H523Q541 116 549.0 178.0Q557 240 559 269Q560 281 563.5 314.5Q567 348 572.0 395.5Q577 443 582 496Q588 550 593.5 603.5Q599 657 603.5 702.0Q608 747 610.5 776.0Q613 805 613 809Q613 827 588.0 850.0Q563 873 503.5 890.5Q444 908 341 908Q238 908 178.0 890.5Q118 873 93.0 850.0Q68 827 68 809Q68 805 71.0 776.0Q74 747 78.5 702.0Q83 657 88.5 603.5Q94 550 100 496Q105 443 110.0 395.5Q115 348 118.5 314.5Q122 281 123 269Q125 240 133.0 178.0Q141 116 158 48ZM334 48H379Q370 68 357.0 97.0Q344 126 344 152Q344 165 352.5 184.0Q361 203 371 223Q380 243 388.0 261.0Q396 279 396 290Q396 301 389.5 320.0Q383 339 375 358Q367 380 360.0 401.5Q353 423 353 438Q353 449 359.5 460.5Q366 472 375 484Q385 498 395.5 517.5Q406 537 406 560Q406 574 396.0 591.0Q386 608 375 624Q365 638 358.0 650.0Q351 662 351 672Q351 683 359.5 692.5Q368 702 379 712Q392 723 404.0 736.5Q416 750 416 763Q416 781 399.0 795.5Q382 810 356.0 818.5Q330 827 302 827Q268 827 240.5 814.5Q213 802 213 785Q213 769 231.5 762.5Q250 756 269 756Q290 756 323.5 759.0Q357 762 382 767Q372 758 354.0 741.5Q336 725 321.0 707.0Q306 689 306 673Q306 657 314.5 642.5Q323 628 333 614Q344 600 352.0 586.0Q360 572 360 558Q360 544 352.5 529.5Q345 515 335 500Q325 484 316.0 468.5Q307 453 307 437Q307 421 314.0 400.5Q321 380 330 360Q338 341 344.5 322.5Q351 304 351 290Q351 276 343.0 257.5Q335 239 325 221Q316 203 307.5 184.5Q299 166 299 152Q299 139 304.5 119.0Q310 99 318.5 79.5Q327 60 334 48ZM288 777Q280 777 274.5 783.0Q269 789 269 796Q269 804 274.5 810.0Q280 816 288 816Q296 816 302.0 810.0Q308 804 308 796Q308 789 302.0 783.0Q296 777 288 777ZM341 -191Q387 -191 421.0 -159.5Q455 -128 479.0 -78.0Q503 -28 519 28H163Q179 -28 202.5 -78.0Q226 -128 260.5 -159.5Q295 -191 341 -191Z" />
  </g>
</svg>