<svg xmlns="http://www.w3.org/2000/svg" viewBox="49 -219 1057 1155">
  <g transform="translate(0, 717) scale(1, -1)">
    <path fill="black" d="M578 -219Q484 -219 406.5 -197.0Q329 -175 267.0 -138.0Q205 -101 160.0 -55.5Q115 -10 87.0 37.0Q59 84 49 126H329Q326 203 350.0 274.5Q374 346 417.0 410.5Q460 475 513.5 529.5Q567 584 623 626Q665 658 693.5 683.0Q722 708 740 734Q748 746 754.0 766.5Q760 787 765 809Q772 840 781.0 869.0Q790 898 810.5 917.0Q831 936 869 936Q904 936 922.0 914.5Q940 893 940 866Q940 851 929.5 828.5Q919 806 905 781Q889 753 875.0 723.0Q861 693 861 675Q861 661 862.5 649.0Q864 637 866 624Q868 608 871.0 585.0Q874 562 874 526Q874 438 855.0 360.0Q836 282 811.5 222.0Q787 162 769 126H1106Q1096 84 1068.5 37.0Q1041 -10 995.5 -55.5Q950 -101 888.5 -138.0Q827 -175 749.0 -197.0Q671 -219 578 -219ZM348 126H747Q760 151 778.0 191.5Q796 232 813.5 284.0Q831 336 842.5 397.5Q854 459 854 526Q854 561 851.5 582.5Q849 604 846 621Q845 634 843.0 646.5Q841 659 841 675Q841 699 856.0 730.0Q871 761 887 791Q901 815 911.0 835.5Q921 856 921 866Q921 886 907.5 901.0Q894 916 869 916Q839 916 823.0 899.5Q807 883 798.5 857.5Q790 832 784 805Q780 782 773.5 761.0Q767 740 756 724Q735 694 707.5 670.0Q680 646 635 611Q581 570 529.0 517.5Q477 465 435.0 403.0Q393 341 369.0 271.0Q345 201 348 126ZM578 -200Q687 -200 773.0 -169.0Q859 -138 922.0 -90.0Q985 -42 1024.5 10.5Q1064 63 1079 106H76Q91 63 130.5 10.5Q170 -42 233.5 -90.0Q297 -138 383.0 -169.0Q469 -200 578 -200Z" />
  </g>
</svg>