<svg xmlns="http://www.w3.org/2000/svg" viewBox="49 -219 1057 1171">
  <g transform="translate(0, 733) scale(1, -1)">
    <path fill="black" d="M578 -219Q484 -219 406.5 -197.0Q329 -175 267.0 -138.0Q205 -101 160.0 -55.5Q115 -10 87.0 37.0Q59 84 49 126H354Q355 171 347.5 225.0Q340 279 329.0 330.0Q318 381 308 417Q428 417 507.5 420.0Q587 423 639.0 430.5Q691 438 727 451L415 778Q399 796 387.0 816.5Q375 837 375 867Q375 899 400.5 925.5Q426 952 465 952Q495 952 513.0 939.5Q531 927 539.5 910.5Q548 894 548 881Q548 852 531.5 835.0Q515 818 487 818Q474 818 458.0 826.0Q442 834 442 859Q442 878 457.0 887.0Q472 896 485 897L487 878Q479 877 470.0 872.5Q461 868 461 859Q461 846 470.5 841.5Q480 837 487 837Q506 837 517.5 849.0Q529 861 529 881Q529 895 514.5 913.5Q500 932 465 932Q435 932 415.0 911.5Q395 891 395 867Q395 842 405.0 825.0Q415 808 429 792L747 459Q755 463 756.5 464.5Q758 466 762 470L902 947H957L756 126H1106Q1096 84 1068.5 37.0Q1041 -10 995.5 -55.5Q950 -101 888.5 -138.0Q827 -175 749.0 -197.0Q671 -219 578 -219ZM374 126H737L933 927H917L779 459Q756 437 707.0 423.5Q658 410 568.0 404.0Q478 398 332 397Q342 359 351.5 310.5Q361 262 367.5 213.5Q374 165 374 126ZM578 -200Q687 -200 773.0 -169.0Q859 -138 922.0 -90.0Q985 -42 1024.5 10.5Q1064 63 1079 106H76Q91 63 130.5 10.5Q170 -42 233.5 -90.0Q297 -138 383.0 -169.0Q469 -200 578 -200Z" />
  </g>
</svg>