<svg xmlns="http://www.w3.org/2000/svg" viewBox="49 -253 552 1245">
  <g transform="translate(0, 739) scale(1, -1)">
    <path fill="black" d="M495 171Q476 171 463.0 189.0Q450 207 445 220Q441 234 434.0 259.0Q427 284 424 310Q423 326 418.5 340.5Q414 355 400 355Q379 355 372.5 342.5Q366 330 366 317V272H294Q292 304 278.0 330.5Q264 357 241 366Q221 374 188.0 376.5Q155 379 132 379H102Q104 398 101.5 431.5Q99 465 95.0 500.0Q91 535 87.5 560.0Q84 585 84 586Q194 589 274.5 591.0Q355 593 404 608L170 861Q160 872 152.0 887.0Q144 902 144 921Q144 947 162.0 968.5Q180 990 211 990Q242 990 257.5 972.5Q273 955 273 934Q273 915 261.5 901.0Q250 887 232 887Q214 887 204.5 897.0Q195 907 195 920Q195 938 208.0 943.5Q221 949 228 948V928Q226 929 220.0 927.0Q214 925 214 918Q214 914 219.0 910.5Q224 907 231 907Q254 907 254 934Q254 948 243.0 959.5Q232 971 211 971Q189 971 176.0 955.5Q163 940 163 921Q163 907 169.5 895.5Q176 884 185 875L425 616Q436 621 444 626L551 992H601L519 636Q508 589 496.5 532.0Q485 475 485 419Q485 397 488.0 364.0Q491 331 495.0 302.0Q499 273 501 262Q504 250 511.5 228.0Q519 206 519 195Q519 184 511.0 177.5Q503 171 495 171ZM494 190Q499 190 499 199Q499 208 492.5 227.0Q486 246 482 259Q480 272 476.0 301.5Q472 331 469.0 364.0Q466 397 466 419Q466 475 477.0 533.0Q488 591 500 640L577 973H566L460 613Q435 589 349.0 578.5Q263 568 107 567Q112 526 117.0 484.0Q122 442 122 398H132Q155 398 188.5 397.0Q222 396 249 385Q273 375 291.0 348.5Q309 322 313 291H346V323Q346 340 358.5 357.0Q371 374 400 374Q418 374 427.0 363.5Q436 353 439.0 339.0Q442 325 443 312Q447 287 453.5 262.5Q460 238 464 225Q468 214 475.5 202.0Q483 190 494 190ZM275 -253Q213 -253 161.5 -222.5Q110 -192 79.5 -140.5Q49 -89 49 -27Q49 36 79.5 88.0Q110 140 161.5 170.5Q213 201 275 201Q338 201 389.5 170.5Q441 140 472.0 88.0Q503 36 503 -27Q503 -89 472.0 -140.5Q441 -192 389.5 -222.5Q338 -253 275 -253ZM275 56 375 155Q353 167 328.0 174.0Q303 181 275 181Q221 181 175 155ZM159 -198 275 -82 392 -198Q409 -187 422.5 -173.5Q436 -160 447 -144L331 -27L447 90Q437 107 423.0 120.5Q409 134 392 145L275 28L159 145Q125 122 104 89L220 -27L104 -143Q115 -159 129.0 -173.0Q143 -187 159 -198ZM458 -126Q483 -81 483 -27Q483 26 458 73L358 -27ZM94 -126 193 -27 93 72Q68 27 68 -27Q68 -54 75.0 -78.5Q82 -103 94 -126ZM275 -234Q329 -234 375 -208L275 -109L176 -208Q222 -234 275 -234Z" />
  </g>
</svg>