<svg xmlns="http://www.w3.org/2000/svg" viewBox="49 -225 1064 1169">
  <g transform="translate(0, 719) scale(1, -1)">
    <path fill="black" d="M774 -225 632 -148Q640 -128 649.5 -102.5Q659 -77 666.0 -52.5Q673 -28 675 -13Q650 -14 642.0 -30.5Q634 -47 631 -61Q631 -62 630.5 -67.0Q630 -72 630 -74H532L531 -61Q528 -47 520.5 -30.0Q513 -13 485 -13Q476 -13 461.5 -15.5Q447 -18 433 -20Q419 -21 405.5 -23.0Q392 -25 381 -25Q369 -25 356.5 -20.5Q344 -16 330 -11Q317 -6 304.5 -2.0Q292 2 280 2Q268 2 248.0 -2.0Q228 -6 208 -11Q190 -15 173.5 -18.0Q157 -21 146 -21Q127 -21 104.0 -11.5Q81 -2 65.0 14.5Q49 31 49 51Q49 81 72 81Q82 81 89.5 74.0Q97 67 104 59L112 49Q117 44 129.0 38.0Q141 32 157 32Q165 32 180.0 37.0Q195 42 211 46Q230 53 248.5 58.0Q267 63 280 63Q294 63 310.0 58.0Q326 53 340 46L358 39Q359 50 360.0 62.5Q361 75 363 90Q353 110 330.0 134.0Q307 158 283 172Q303 268 342.0 364.0Q381 460 428.0 546.5Q475 633 516 700Q505 706 492.5 719.5Q480 733 480 759Q480 783 499.0 803.0Q518 823 552 823Q577 823 599 804Q586 827 559.5 852.5Q533 878 492 900Q533 908 562.5 901.0Q592 894 612.0 881.5Q632 869 644 859Q651 875 663.0 893.5Q675 912 687.0 926.5Q699 941 706 944Q716 938 724.5 920.5Q733 903 738.5 882.5Q744 862 746 846Q760 857 782.0 866.0Q804 875 832 875Q858 875 876.0 866.0Q894 857 901 848L875 836Q853 826 826.5 814.0Q800 802 778.5 786.0Q757 770 747 747Q761 764 778.0 774.0Q795 784 817 784Q846 784 863.5 763.5Q881 743 881 720Q881 687 862.5 669.0Q844 651 827 644Q849 595 869.0 528.0Q889 461 902.0 389.5Q915 318 915 254Q915 230 914.0 201.0Q913 172 911.0 144.5Q909 117 905 98Q878 97 852.0 85.0Q826 73 809 53L806 40L822 46Q836 53 852.0 58.0Q868 63 882 63Q896 63 914.0 58.0Q932 53 951 46Q966 42 981.5 37.0Q997 32 1005 32Q1022 32 1033.5 38.0Q1045 44 1050 49L1058 59Q1065 67 1072.5 74.0Q1080 81 1090 81Q1113 81 1113 51Q1113 31 1097.0 14.5Q1081 -2 1058.5 -11.5Q1036 -21 1016 -21Q1005 -21 988.5 -18.0Q972 -15 954 -11Q934 -6 914.0 -2.0Q894 2 882 2Q870 2 857.5 -2.0Q845 -6 832 -11Q822 -15 812.5 -18.5Q803 -22 793 -24Q788 -52 780.0 -99.0Q772 -146 772 -187Q772 -192 773.0 -206.0Q774 -220 774 -225ZM723 736Q730 767 753.5 788.5Q777 810 808.0 825.0Q839 840 868 851Q863 853 852.0 854.5Q841 856 832 856Q801 856 772.0 836.5Q743 817 726 801Q728 815 725.0 838.5Q722 862 717.0 885.0Q712 908 705 917Q697 910 686.0 892.5Q675 875 665.0 855.5Q655 836 651 821Q646 828 630.5 842.5Q615 857 593.5 870.0Q572 883 548 885Q587 859 609.0 823.5Q631 788 631 764Q631 755 628 744ZM367 120Q374 164 385.5 216.0Q397 268 413 320Q433 383 466.5 451.5Q500 520 532 580Q561 636 584.0 681.5Q607 727 611 754Q601 776 585.5 789.5Q570 803 552 803Q527 803 513.5 789.5Q500 776 500 759Q500 737 517.0 725.0Q534 713 544 708Q512 657 476.5 595.0Q441 533 407.5 464.0Q374 395 347.5 323.0Q321 251 306 181Q342 158 367 120ZM815 86Q848 113 887 116Q890 133 892.0 159.0Q894 185 895.0 212.5Q896 240 895 261Q895 321 881.5 391.0Q868 461 846.5 531.0Q825 601 801 659Q811 661 825.0 667.5Q839 674 850.0 687.0Q861 700 861 720Q861 736 849.0 750.5Q837 765 817 765Q795 765 778.0 750.0Q761 735 748 710L750 697Q758 657 771.5 601.0Q785 545 798.5 481.5Q812 418 821.0 355.0Q830 292 830 238Q830 196 825.0 156.0Q820 116 815 86ZM731 692V693L726 717L623 725Q622 719 619.0 713.0Q616 707 614 701ZM377 34H381Q393 34 406.5 36.5Q420 39 433 42Q448 45 460.5 47.0Q473 49 486 49H490Q478 64 471.0 83.0Q464 102 464 123Q464 156 480.0 182.5Q496 209 523.0 225.0Q550 241 582 241Q614 241 640.5 225.0Q667 209 683.0 182.5Q699 156 699 123Q699 102 692.0 83.0Q685 64 673 49H676Q689 49 702.5 46.0Q716 43 729 41Q743 38 756.0 36.0Q769 34 781 34H785Q788 45 794.0 75.5Q800 106 805.0 148.5Q810 191 810 238Q810 291 802.0 349.5Q794 408 782.0 466.5Q770 525 757.5 577.5Q745 630 735 672L606 682Q595 657 580.0 628.5Q565 600 549 571Q518 510 484.5 443.0Q451 376 431 314Q414 260 402.0 206.0Q390 152 384.0 107.0Q378 62 377 34ZM582 25Q607 25 629.5 38.0Q652 51 666.0 73.5Q680 96 680 123Q680 164 651.5 192.5Q623 221 582 221Q541 221 512.0 192.5Q483 164 483 123Q483 83 512.0 54.0Q541 25 582 25ZM550 -54H612Q615 -42 620.0 -28.0Q625 -14 638.0 -4.0Q651 6 677 6Q689 6 703.5 4.0Q718 2 732 0Q746 -2 759.5 -4.0Q773 -6 781 -6Q791 -6 802.0 -2.0Q813 2 824 6Q838 12 852.5 16.5Q867 21 882 21Q896 21 917.0 17.5Q938 14 958 9Q976 5 992.0 1.5Q1008 -2 1016 -2Q1032 -2 1050.0 5.0Q1068 12 1081.0 24.0Q1094 36 1094 51Q1094 62 1090 62Q1087 62 1082.5 56.5Q1078 51 1073 46L1064 37Q1058 30 1043.0 21.5Q1028 13 1005 13Q995 13 978.5 17.5Q962 22 945 28Q927 34 910.0 39.0Q893 44 882 44Q870 44 856.5 39.0Q843 34 830 29Q817 23 804.5 18.5Q792 14 781 14Q766 14 752.5 16.5Q739 19 726 22Q713 25 700.0 27.0Q687 29 676 29Q649 29 624.5 11.5Q600 -6 590 -33H572Q565 -7 539.0 11.0Q513 29 486 29Q475 29 462.5 27.0Q450 25 437 22Q424 19 410.0 16.5Q396 14 381 14Q371 14 358.5 18.5Q346 23 333 29Q320 34 306.0 39.0Q292 44 280 44Q269 44 252.0 39.0Q235 34 217 28Q199 22 183.5 17.5Q168 13 157 13Q135 13 119.5 21.5Q104 30 98 37L89 46Q85 51 80.0 56.5Q75 62 72 62Q68 62 68 51Q68 36 81.0 24.0Q94 12 112.5 5.0Q131 -2 146 -2Q154 -2 170.0 1.5Q186 5 204 9Q227 14 246.5 17.5Q266 21 280 21Q294 21 309.0 16.5Q324 12 337 6Q349 2 360.0 -2.0Q371 -6 381 -6Q390 -6 403.0 -4.0Q416 -2 430 0Q444 2 458.5 4.0Q473 6 485 6Q511 6 524.0 -4.0Q537 -14 542.5 -28.0Q548 -42 550 -54ZM581 -6Q584 0 589 5Q576 5 573 6Q575 3 577.5 0.5Q580 -2 581 -6ZM753 -191Q753 -146 760.0 -99.5Q767 -53 772 -25Q763 -24 752.0 -22.5Q741 -21 729 -20L695 -14Q692 -37 680.0 -74.0Q668 -111 657 -139Q685 -153 705.0 -164.5Q725 -176 753 -191Z" />
  </g>
</svg>