<svg xmlns="http://www.w3.org/2000/svg" viewBox="49 -218 661.3913043478261 1175">
  <g transform="translate(0, 739) scale(1, -1)">
    <path fill="black" d="M297 -218 194 -190 190 -67 49 -27 337 838Q345 862 359.5 889.5Q374 917 397.0 937.0Q420 957 454 957Q496 957 518.0 933.0Q540 909 547 885Q559 898 576.0 907.5Q593 917 619 917Q656 917 677.0 899.5Q698 882 705.5 858.5Q713 835 709 816L519 -158L355 -113ZM270 -69 531 860Q524 886 506.0 911.5Q488 937 454 937Q426 937 406.5 919.5Q387 902 375.0 877.5Q363 853 356 832L74 -14ZM503 -134 689 820Q692 835 686.0 853.0Q680 871 664.0 884.5Q648 898 619 898Q597 898 580.0 885.5Q563 873 549 856L288 -74Q341 -89 394.5 -104.0Q448 -119 503 -134ZM287 -196 335 -107 210 -72 213 -175Q233 -180 250.0 -185.0Q267 -190 287 -196Z" />
  </g>
</svg>