<svg xmlns="http://www.w3.org/2000/svg" viewBox="49 14 1014 1310">
  <g transform="translate(0, 1338) scale(1, -1)">
    <path fill="black" d="M478 518 498 552V603L528 634V934Q528 971 526.5 995.0Q525 1019 517 1028Q510 1013 503.0 998.5Q496 984 492 973Q483 948 480.0 929.5Q477 911 475 886H433Q432 897 431.0 915.0Q430 933 430 949Q430 961 430.5 973.0Q431 985 432 995Q438 1041 449.0 1070.5Q460 1100 472 1125Q479 1140 488.0 1155.5Q497 1171 506 1185Q514 1197 521.0 1209.0Q528 1221 531 1228Q538 1244 541.0 1273.0Q544 1302 544 1324H573Q584 1315 595.5 1292.5Q607 1270 607 1238Q607 1206 597.0 1176.5Q587 1147 574.5 1124.0Q562 1101 552 1087Q569 1076 576.0 1054.5Q583 1033 584.5 1008.0Q586 983 586 961V634L616 603V552L636 518H577L564 547V582L557 590L550 582V547L537 518ZM448 905H456Q459 938 473 979Q478 995 489.5 1017.0Q501 1039 511 1058Q518 1069 523.0 1077.5Q528 1086 532 1092Q540 1103 553.0 1125.0Q566 1147 576.5 1176.0Q587 1205 587 1238Q587 1259 579.5 1277.5Q572 1296 565 1305H563Q563 1291 560.0 1264.5Q557 1238 548 1220Q544 1211 537.0 1198.0Q530 1185 522 1174Q513 1159 504.0 1144.0Q495 1129 489 1117Q479 1093 468.0 1064.5Q457 1036 452 992Q451 982 449.5 970.5Q448 959 448 948Q447 929 447.5 920.5Q448 912 448 905ZM492 1042 472 1051 498 1107 518 1098ZM511 539H523L530 554V592L557 620L583 592V554L590 539H603L596 554V595L566 626V951Q566 974 564.5 998.0Q563 1022 558.0 1041.5Q553 1061 541 1069L530 1051Q541 1039 544.0 1010.0Q547 981 547 934V626L518 595V554ZM49 14V393Q49 455 81.5 481.5Q114 508 154 508H958Q999 508 1031.0 481.5Q1063 455 1063 393V14H968V333Q968 367 954.5 397.0Q941 427 910 427Q884 427 864.0 413.0Q844 399 821 378L803 362Q812 356 835.0 340.5Q858 325 871 307Q885 287 887.5 265.5Q890 244 875 233Q859 222 840.0 230.0Q821 238 806 257Q793 274 784.5 299.0Q776 324 772 336Q765 331 757.5 325.0Q750 319 742 314Q750 307 768.5 286.0Q787 265 795 245Q805 223 802.0 202.0Q799 181 782 173Q764 166 747.0 178.5Q730 191 720 213Q713 231 710.0 255.5Q707 280 707 294Q688 286 666 278Q674 268 687.0 246.5Q700 225 704 205Q709 181 703.0 161.0Q697 141 679 136Q660 132 645.5 147.0Q631 162 625 186Q621 206 622.5 231.5Q624 257 625 270Q614 269 602.5 267.5Q591 266 577 266Q582 253 589.5 229.5Q597 206 597 186Q597 167 587.5 146.0Q578 125 556 125Q533 125 524.5 146.5Q516 168 516 186Q516 206 523.0 229.5Q530 253 535 266Q522 266 510.0 267.5Q498 269 487 270Q489 257 490.5 231.5Q492 206 487 186Q481 162 466.5 147.0Q452 132 434 136Q415 141 409.0 161.0Q403 181 408 205Q413 224 426.0 245.5Q439 267 446 278Q436 282 425.5 286.0Q415 290 406 294Q405 280 402.5 256.0Q400 232 392 213Q382 191 365.0 178.5Q348 166 331 173Q314 181 311.0 202.0Q308 223 317 245Q325 265 343.0 285.5Q361 306 370 314Q363 319 355.5 325.0Q348 331 340 336Q336 325 328.0 300.0Q320 275 307 257Q292 238 272.5 230.0Q253 222 237 233Q222 244 224.5 265.5Q227 287 242 307Q255 324 277.5 340.0Q300 356 310 362Q306 366 301.0 370.0Q296 374 292 378Q269 399 249.0 413.0Q229 427 203 427Q172 427 158.0 397.0Q144 367 144 333V14ZM68 34H125V333Q125 361 132.5 387.0Q140 413 158.0 430.0Q176 447 207 447Q239 447 259.0 431.5Q279 416 304 393Q337 365 370.0 340.0Q403 315 446.5 300.0Q490 285 556 285Q622 285 666.0 300.0Q710 315 743.0 340.0Q776 365 808 393Q834 416 854.0 431.5Q874 447 905 447Q937 447 955.0 430.0Q973 413 980.5 387.0Q988 361 988 333V34H1044V393Q1044 444 1018.5 466.5Q993 489 958 489H154Q120 489 94.0 466.5Q68 444 68 393ZM863 249Q871 255 868.0 268.0Q865 281 855 294Q843 311 821.5 327.0Q800 343 789 350L787 348Q791 337 800.5 311.5Q810 286 821 270Q832 257 844.0 250.0Q856 243 863 249ZM249 249Q257 243 269.0 250.0Q281 257 291 270Q302 286 312.0 311.0Q322 336 326 348L323 350Q313 344 291.0 327.5Q269 311 257 294Q247 281 244.5 268.0Q242 255 249 249ZM774 191Q783 195 783.5 208.5Q784 222 777 237Q770 255 753.5 275.0Q737 295 728 305L723 303Q724 290 727.5 264.0Q731 238 738 221Q745 206 755.0 196.5Q765 187 774 191ZM338 191Q347 187 357.0 196.5Q367 206 374 221Q381 238 384.5 263.5Q388 289 389 303L384 305Q376 295 359.5 275.0Q343 255 335 237Q329 222 329.0 208.5Q329 195 338 191ZM674 155Q684 157 686.5 170.5Q689 184 685 200Q681 218 668.5 240.0Q656 262 648 274L643 273Q642 260 641.0 234.5Q640 209 644 190Q648 174 656.5 163.5Q665 153 674 155ZM438 155Q448 153 456.0 163.5Q464 174 468 190Q473 208 472.0 233.5Q471 259 469 273L463 274Q456 263 444.0 241.0Q432 219 427 200Q423 184 425.5 170.5Q428 157 438 155ZM556 144Q566 144 571.5 157.0Q577 170 577 186Q577 204 570.5 228.5Q564 253 559 266H553Q549 253 542.0 228.5Q535 204 535 186Q535 170 540.5 157.0Q546 144 556 144Z" />
  </g>
</svg>