<svg xmlns="http://www.w3.org/2000/svg" viewBox="49 -108 1133 1109">
  <g transform="translate(0, 893) scale(1, -1)">
    <path fill="black" d="M245 -108Q221 -108 199.5 -62.5Q178 -17 164.5 62.5Q151 142 151 242Q151 346 167.0 450.0Q183 554 215 669H165L49 558V867H177L139 1001H350L312 867H548L510 1001H721L682 867H918L880 1001H1091L1053 867H1182V558L1066 669H1015Q1048 554 1063.5 450.0Q1079 346 1079 242Q1079 142 1066.0 62.5Q1053 -17 1031.5 -62.5Q1010 -108 986 -108Q962 -108 941.0 -62.5Q920 -17 906.5 62.5Q893 142 893 242Q893 346 908.5 450.0Q924 554 956 669H645Q677 554 692.5 450.0Q708 346 708 242Q708 142 695.0 62.5Q682 -17 661.0 -62.5Q640 -108 615 -108Q591 -108 570.0 -62.5Q549 -17 535.5 62.5Q522 142 522 242Q522 346 537.5 450.0Q553 554 585 669H274Q306 554 322.0 450.0Q338 346 338 242Q338 142 325.0 62.5Q312 -17 290.5 -62.5Q269 -108 245 -108ZM197 867H291L324 981H165ZM568 867H662L694 981H536ZM938 867H1032L1065 981H906ZM68 604 157 689H1074L1162 604V847H68ZM245 -85Q259 -85 272.0 -56.5Q285 -28 295.5 19.0Q306 66 312.0 124.0Q318 182 318 242Q318 346 301.5 451.5Q285 557 254 669H235Q204 557 187.5 451.5Q171 346 171 242Q171 182 177.0 124.0Q183 66 193.5 19.0Q204 -28 217.0 -56.5Q230 -85 245 -85ZM615 -85Q630 -85 643.0 -56.5Q656 -28 666.5 19.0Q677 66 683.0 124.0Q689 182 689 242Q689 346 672.5 451.5Q656 557 625 669H605Q574 557 558.0 451.5Q542 346 542 242Q542 182 548.0 124.0Q554 66 564.5 19.0Q575 -28 588.0 -56.5Q601 -85 615 -85ZM986 -85Q1000 -85 1013.5 -56.5Q1027 -28 1037.5 19.0Q1048 66 1054.0 124.0Q1060 182 1060 242Q1060 346 1043.0 451.5Q1026 557 995 669H976Q945 557 928.5 451.5Q912 346 912 242Q912 182 918.0 124.0Q924 66 934.5 19.0Q945 -28 958.0 -56.5Q971 -85 986 -85Z" />
  </g>
</svg>