<svg xmlns="http://www.w3.org/2000/svg" viewBox="49 -114 738 1115">
  <g transform="translate(0, 887) scale(1, -1)">
    <path fill="black" d="M130 -114Q117 -114 98.0 -105.5Q79 -97 64.0 -71.0Q49 -45 49 7Q49 51 61.5 77.5Q74 104 92.0 118.5Q110 133 124 141Q114 147 99.5 159.0Q85 171 74.5 195.0Q64 219 64 259Q64 300 77.0 326.0Q90 352 108.5 367.5Q127 383 143 390Q127 403 112.5 425.0Q98 447 98 492Q98 545 127.0 575.0Q156 605 196 618Q187 631 177.5 651.0Q168 671 168 694Q168 734 189.0 761.5Q210 789 236.5 806.0Q263 823 278 828Q275 842 275 857Q275 897 294.5 929.5Q314 962 346.5 981.5Q379 1001 418 1001Q458 1001 490.5 981.5Q523 962 542.5 929.5Q562 897 562 857Q562 842 559 828Q575 823 600.5 806.0Q626 789 647.0 761.5Q668 734 668 694Q668 671 658.5 651.0Q649 631 640 618Q680 605 709.0 575.0Q738 545 738 492Q738 447 723.5 425.0Q709 403 693 390Q709 383 727.0 367.5Q745 352 758.0 326.0Q771 300 771 259Q771 219 760.5 195.0Q750 171 736.5 159.0Q723 147 712 141Q727 133 744.5 118.5Q762 104 774.5 77.5Q787 51 787 7Q787 -45 772.0 -71.0Q757 -97 738.0 -105.5Q719 -114 706 -114Q696 -114 681.0 -109.5Q666 -105 650.5 -91.5Q635 -78 624.5 -52.5Q614 -27 614 14Q614 68 634.5 96.0Q655 124 677 140Q651 157 627.5 184.0Q604 211 604 260Q604 310 622.0 339.0Q640 368 657 384Q641 391 622.0 404.5Q603 418 589.0 442.0Q575 466 575 505Q575 539 587.0 566.0Q599 593 609 608Q605 609 596.0 611.5Q587 614 579 617Q553 627 535.5 648.0Q518 669 509.0 694.0Q500 719 497 738Q489 732 479.5 728.0Q470 724 459 720Q474 704 487.0 677.0Q500 650 500 618Q500 584 480.0 557.5Q460 531 436 514Q456 500 478.0 475.5Q500 451 500 412Q500 376 480.5 358.5Q461 341 435 325Q447 317 462.5 302.5Q478 288 490.0 266.5Q502 245 502 215Q502 177 480.0 152.0Q458 127 439 115Q451 109 465.5 96.5Q480 84 491.0 62.0Q502 40 502 6Q502 -35 488.0 -60.0Q474 -85 454.5 -96.5Q435 -108 418 -108Q401 -108 381.5 -96.5Q362 -85 348.0 -60.0Q334 -35 334 6Q334 40 344.5 62.0Q355 84 370.0 96.5Q385 109 396 115Q378 127 356.0 152.0Q334 177 334 215Q334 245 345.5 266.5Q357 288 373.0 302.5Q389 317 400 325Q375 341 355.0 358.5Q335 376 335 412Q335 451 357.5 475.5Q380 500 400 514Q376 531 356.0 557.5Q336 584 336 618Q336 650 348.5 677.0Q361 704 376 720Q366 724 356.5 728.0Q347 732 338 738Q336 719 326.5 694.0Q317 669 300.0 648.0Q283 627 257 617Q249 614 240.5 611.5Q232 609 227 608Q237 593 249.0 566.0Q261 539 261 505Q261 466 247.0 442.0Q233 418 214.0 404.5Q195 391 179 384Q196 368 214.0 339.0Q232 310 232 260Q232 211 208.5 184.0Q185 157 159 140Q181 124 201.5 96.0Q222 68 222 14Q222 -27 211.5 -52.5Q201 -78 185.5 -91.5Q170 -105 155.0 -109.5Q140 -114 130 -114ZM418 734Q452 734 480.0 750.5Q508 767 525.0 795.0Q542 823 542 857Q542 892 525.0 920.0Q508 948 480.0 964.5Q452 981 418 981Q384 981 356.0 964.5Q328 948 311.0 920.0Q294 892 294 857Q294 823 311.0 795.0Q328 767 356.0 750.5Q384 734 418 734ZM620 625Q628 636 638.0 654.0Q648 672 648 694Q648 730 629.5 754.5Q611 779 588.0 793.0Q565 807 553 810Q541 777 516 752Q518 734 525.0 710.0Q532 686 547.5 664.5Q563 643 587 634Q595 632 604.5 629.0Q614 626 620 625ZM216 625Q222 626 232.0 629.0Q242 632 249 634Q273 643 288.0 664.5Q303 686 311.0 710.5Q319 735 320 753Q294 779 283 810Q272 807 249.0 793.0Q226 779 207.0 754.5Q188 730 188 694Q188 672 198.5 654.0Q209 636 216 625ZM418 526Q428 534 442.5 547.0Q457 560 468.5 578.0Q480 596 480 618Q480 650 465.5 677.0Q451 704 437 715Q432 715 427.5 714.5Q423 714 418 714Q414 714 409.0 714.5Q404 715 399 715Q384 704 369.5 677.0Q355 650 355 618Q355 596 366.5 578.0Q378 560 393.0 547.0Q408 534 418 526ZM163 399Q177 405 195.5 416.0Q214 427 228.0 448.5Q242 470 242 506Q242 538 229.0 564.0Q216 590 208 603Q171 591 144.5 565.5Q118 540 118 492Q118 449 132.5 431.0Q147 413 163 399ZM673 399Q689 413 703.5 431.0Q718 449 718 492Q718 540 692.0 565.5Q666 591 628 603Q620 590 607.0 564.0Q594 538 594 506Q594 470 608.0 448.5Q622 427 640.5 416.0Q659 405 673 399ZM418 335Q441 350 461.0 367.5Q481 385 481 412Q481 447 461.0 465.5Q441 484 418 501Q395 484 375.0 465.5Q355 447 355 412Q355 385 375.0 367.5Q395 350 418 335ZM694 152Q697 154 711.5 163.0Q726 172 739.0 194.5Q752 217 752 259Q752 298 738.5 321.5Q725 345 707.5 358.0Q690 371 677 376Q661 362 642.0 336.0Q623 310 623 260Q623 230 634.5 209.0Q646 188 663.0 174.5Q680 161 694 152ZM142 152Q157 161 173.5 174.5Q190 188 201.5 209.0Q213 230 213 260Q213 310 194.5 336.0Q176 362 159 376Q147 371 129.0 358.0Q111 345 97.5 321.5Q84 298 84 259Q84 217 97.0 194.5Q110 172 124.5 163.0Q139 154 142 152ZM418 124Q427 129 442.5 140.5Q458 152 470.0 170.5Q482 189 482 215Q482 242 470.0 261.5Q458 281 443.0 294.0Q428 307 418 313Q408 307 393.0 294.0Q378 281 366.0 261.5Q354 242 354 215Q354 189 366.5 170.5Q379 152 394.0 140.5Q409 129 418 124ZM705 -95Q711 -95 726.5 -90.0Q742 -85 755.0 -63.5Q768 -42 768 7Q768 46 757.0 69.0Q746 92 729.0 105.5Q712 119 694 129Q674 115 654.0 90.0Q634 65 634 14Q634 -30 647.5 -53.5Q661 -77 678.0 -86.0Q695 -95 705 -95ZM131 -95Q142 -95 158.5 -86.0Q175 -77 188.5 -53.5Q202 -30 202 14Q202 65 182.0 90.0Q162 115 142 129Q125 119 107.5 105.5Q90 92 79.0 69.0Q68 46 68 7Q68 -42 81.5 -63.5Q95 -85 110.0 -90.0Q125 -95 131 -95ZM418 -88Q430 -88 445.0 -79.5Q460 -71 471.0 -50.5Q482 -30 482 6Q482 42 468.5 62.0Q455 82 440.0 91.5Q425 101 418 103Q411 101 395.5 91.5Q380 82 367.0 62.0Q354 42 354 6Q354 -30 365.0 -50.5Q376 -71 391.0 -79.5Q406 -88 418 -88Z" />
  </g>
</svg>