<svg xmlns="http://www.w3.org/2000/svg" viewBox="49 -123 564 1124">
  <g transform="translate(0, 878) scale(1, -1)">
    <path fill="black" d="M96 -123 82 -109 134 -58 74 -3 133 46 74 96 134 148 74 206 134 254 74 305 134 357 74 412 133 462 74 509 134 564 74 612 134 667 73 723 119 756H49V905H241Q241 911 244.0 926.5Q247 942 256.0 959.5Q265 977 283.0 989.0Q301 1001 331 1001Q361 1001 378.5 989.0Q396 977 405.0 959.5Q414 942 417.0 926.5Q420 911 420 905H613V756H543L495 721L554 667L494 612L554 564L495 510L554 463L494 412L554 357L494 305Q508 293 525.0 279.0Q542 265 554 254L494 205L553 147L494 96Q508 85 525.0 71.0Q542 57 554 46L494 -3L553 -57L486 -123L473 -109L525 -58L465 -3L524 46L465 96L525 148L465 206L524 254L465 305L524 357L465 412L524 462L464 509L524 564L464 612L524 667L464 723L509 756H348L300 721L358 667L299 612L359 564L299 510L359 463L299 412L358 357L299 305Q313 293 329.5 279.0Q346 265 359 254L298 205L358 147L299 96Q331 71 359 46L299 -3L358 -57L291 -123L277 -109L330 -58L270 -3L329 46L270 96L330 148L270 206L329 254L270 305L329 357L270 412L329 462L269 509L329 564L269 612L329 667L269 723L314 756H152L104 721L163 667L104 612L164 564L104 510L164 463L104 412L163 357L104 305Q118 293 134.5 279.0Q151 265 164 254L103 205L163 147L104 96Q136 71 164 46L104 -3L163 -57ZM260 905H401Q401 913 396.0 931.0Q391 949 376.5 965.0Q362 981 331 981Q300 981 285.0 965.0Q270 949 265.5 931.0Q261 913 260 905ZM68 775H594V885H68Z" />
  </g>
</svg>