<svg xmlns="http://www.w3.org/2000/svg" viewBox="49 167 937 639">
  <g transform="translate(0, 973) scale(1, -1)">
    <path fill="black" d="M49 167V608Q49 651 65.5 672.5Q82 694 128 694H179V757H229V806H249V757H415V806H434V757H600V806H620V757H786V806H805V757H855V694H906Q953 694 969.5 672.5Q986 651 986 608V167H966V608Q966 645 954.0 660.0Q942 675 906 675H855V612H805V515Q835 511 851.5 482.0Q868 453 876.0 405.5Q884 358 886.0 297.0Q888 236 888 167H146Q146 236 148.0 297.0Q150 358 158.0 405.5Q166 453 182.5 482.0Q199 511 229 515V612H179V675H128Q93 675 80.5 660.0Q68 645 68 608V167ZM199 632H836V737H199ZM332 236Q333 312 339.0 373.0Q345 434 362.5 472.0Q380 510 415 515V612H249V515Q284 510 301.0 472.0Q318 434 324.5 373.0Q331 312 332 236ZM517 236Q519 278 521.0 325.0Q523 372 530.5 413.5Q538 455 554.0 483.0Q570 511 600 515V612H434V515Q464 511 480.0 483.0Q496 455 503.0 413.5Q510 372 512.5 325.5Q515 279 517 236ZM703 221Q704 300 709.5 364.5Q715 429 732.5 469.5Q750 510 786 515V612H620V515Q656 510 673.0 469.5Q690 429 696.0 364.5Q702 300 703 221ZM166 187H313Q313 248 311.0 303.5Q309 359 302.0 402.5Q295 446 280.0 471.0Q265 496 239 496Q213 496 198.5 471.0Q184 446 177.0 402.5Q170 359 168.0 303.5Q166 248 166 187ZM351 187H498Q498 248 496.0 303.5Q494 359 487.0 402.5Q480 446 465.0 471.0Q450 496 424 496Q398 496 383.5 471.0Q369 446 362.0 402.5Q355 359 353.0 303.5Q351 248 351 187ZM537 187H683Q683 248 681.0 303.5Q679 359 672.0 402.5Q665 446 650.5 471.0Q636 496 610 496Q584 496 569.5 470.5Q555 445 548.0 401.5Q541 358 539.0 302.5Q537 247 537 187ZM722 187H869Q869 248 867.0 303.5Q865 359 858.0 402.5Q851 446 836.0 471.0Q821 496 795 496Q769 496 754.5 471.0Q740 446 733.0 402.5Q726 359 724.0 303.5Q722 248 722 187Z" />
  </g>
</svg>