<svg xmlns="http://www.w3.org/2000/svg" viewBox="49 -120 820 1121">
  <g transform="translate(0, 881) scale(1, -1)">
    <path fill="black" d="M310 -120Q288 -120 255.0 -116.0Q222 -112 186.5 -97.5Q151 -83 119.5 -51.0Q88 -19 68.5 36.5Q49 92 49 178Q49 254 59.0 299.5Q69 345 82.0 371.5Q95 398 105 415Q122 445 149.5 469.5Q177 494 204 501Q187 512 187 534Q187 549 197.0 560.5Q207 572 221 573Q209 578 201.0 588.5Q193 599 193 612Q193 626 202.5 637.0Q212 648 225 651Q206 662 206 685Q206 701 217.0 712.5Q228 724 244 725Q220 735 220 762Q220 779 232.0 790.5Q244 802 260 802Q277 802 288.5 790.5Q300 779 300 762Q300 746 289.0 734.5Q278 723 262 722Q286 710 286 685Q286 671 277.0 659.5Q268 648 254 646Q273 634 273 612Q273 596 263.0 585.0Q253 574 238 572Q250 568 258.5 557.5Q267 547 267 534Q267 507 243 497Q259 488 265.0 471.5Q271 455 271 443Q271 427 267.0 405.5Q263 384 257 349Q251 317 243.5 279.5Q236 242 236 208Q236 160 254.5 131.5Q273 103 310 103Q348 103 365.5 132.5Q383 162 383 208Q383 242 376.0 279.5Q369 317 362 349Q356 384 352.0 405.5Q348 427 348 443Q348 455 354.5 472.0Q361 489 377 497Q365 501 357.0 512.0Q349 523 349 536Q349 561 372 572Q351 583 351 607Q351 633 375 645Q358 657 358 677Q358 694 370.0 705.5Q382 717 398 717Q394 725 394 736Q394 753 406.0 764.5Q418 776 434 776Q444 776 456 769Q457 785 468.5 795.5Q480 806 496 806Q510 806 520.0 798.0Q530 790 534 777Q547 795 567 795Q584 795 595.5 783.5Q607 772 607 755V749H611Q628 749 639.5 737.5Q651 726 651 709Q651 696 643 686H768Q759 695 759 711Q759 738 783 748H778Q762 748 750.0 760.0Q738 772 738 788Q738 803 747 813H740Q724 813 712.0 825.0Q700 837 700 853Q700 863 704 870Q697 867 687 867Q671 867 659.0 879.0Q647 891 647 907Q647 913 648 916Q637 908 625 908Q609 908 597.5 918.5Q586 929 584 944Q574 921 548 921Q535 921 524.0 929.5Q513 938 509 950Q507 937 495.5 927.5Q484 918 470 918Q447 918 435 938Q435 922 423.5 910.0Q412 898 395 898Q381 898 371 906Q372 903 372.5 900.0Q373 897 373 894Q373 878 361.5 866.0Q350 854 333 854Q327 854 324 855Q326 851 327.0 847.0Q328 843 328 838Q328 822 316.5 810.0Q305 798 288 798Q272 798 260.0 810.0Q248 822 248 838Q248 855 260.0 866.5Q272 878 288 878Q290 878 292.5 877.5Q295 877 297 877Q293 884 293 894Q293 911 305.0 922.5Q317 934 333 934Q346 934 357 926Q356 929 355.5 932.0Q355 935 355 938Q355 955 367.0 967.0Q379 979 395 979Q406 979 415.5 973.0Q425 967 430 958Q430 975 442.0 986.5Q454 998 470 998Q484 998 494.5 989.5Q505 981 509 968Q512 982 523.0 991.5Q534 1001 548 1001Q564 1001 575.5 990.5Q587 980 588 965Q598 988 625 988Q641 988 653.0 976.5Q665 965 665 948Q665 946 664.5 943.5Q664 941 664 939Q674 947 687 947Q704 947 715.5 935.5Q727 924 727 907Q727 896 723 889Q727 891 731.0 892.0Q735 893 740 893Q757 893 768.5 881.5Q780 870 780 853Q780 838 771 827Q773 827 774.5 827.5Q776 828 778 828Q795 828 806.5 816.5Q818 805 818 788Q818 775 811.5 765.0Q805 755 795 751Q796 751 799 751Q816 751 827.5 739.5Q839 728 839 711Q839 697 830 686H869L767 134Q802 121 824.5 90.0Q847 59 847 20Q847 -14 830.5 -42.0Q814 -70 786.0 -87.0Q758 -104 724 -104Q690 -104 662.5 -87.0Q635 -70 618.5 -42.0Q602 -14 602 20Q602 59 624.0 90.0Q646 121 681 134L579 684Q571 695 571 709V715H567Q554 715 543.5 723.5Q533 732 529 744Q516 726 496 726Q485 726 474 733Q473 717 461.5 706.5Q450 696 434 696Q438 688 438 677Q438 650 414 640Q431 628 431 607Q431 595 424.5 585.5Q418 576 408 571Q417 566 423.0 556.5Q429 547 429 536Q429 513 411 502Q438 498 466.5 472.5Q495 447 514 415Q524 398 537.0 371.5Q550 345 560.0 299.5Q570 254 570 178Q570 88 550.0 31.5Q530 -25 498.0 -56.5Q466 -88 430.0 -101.5Q394 -115 362.0 -117.5Q330 -120 310 -120ZM548 940Q557 940 563.0 946.5Q569 953 569 961Q569 969 563.0 975.0Q557 981 548 981Q540 981 534.0 975.0Q528 969 528 961Q528 953 534.0 946.5Q540 940 548 940ZM470 938Q478 938 484.5 944.0Q491 950 491 958Q491 966 484.5 972.5Q478 979 470 979Q462 979 456.0 972.5Q450 966 450 958Q450 950 456.0 944.0Q462 938 470 938ZM625 928Q633 928 639.0 934.0Q645 940 645 948Q645 956 639.0 962.5Q633 969 625 969Q616 969 610.0 962.5Q604 956 604 948Q604 940 610.0 934.0Q616 928 625 928ZM395 918Q403 918 409.5 924.0Q416 930 416 938Q416 947 409.5 953.0Q403 959 395 959Q387 959 381.0 953.0Q375 947 375 938Q375 930 381.0 924.0Q387 918 395 918ZM687 886Q695 886 701.5 892.5Q708 899 708 907Q708 915 701.5 921.0Q695 927 687 927Q679 927 673.0 921.0Q667 915 667 907Q667 899 673.0 892.5Q679 886 687 886ZM333 874Q341 874 347.5 880.0Q354 886 354 894Q354 902 347.5 908.5Q341 915 333 915Q325 915 319.0 908.5Q313 902 313 894Q313 886 319.0 880.0Q325 874 333 874ZM740 832Q748 832 754.0 838.0Q760 844 760 853Q760 861 754.0 867.0Q748 873 740 873Q732 873 725.5 867.0Q719 861 719 853Q719 844 725.5 838.0Q732 832 740 832ZM288 817Q296 817 302.0 823.5Q308 830 308 838Q308 846 302.0 852.0Q296 858 288 858Q279 858 273.0 852.0Q267 846 267 838Q267 830 273.0 823.5Q279 817 288 817ZM778 767Q786 767 792.0 773.0Q798 779 798 788Q798 796 792.0 802.0Q786 808 778 808Q770 808 763.5 802.0Q757 796 757 788Q757 779 763.5 773.0Q770 767 778 767ZM496 746Q504 746 510.0 752.0Q516 758 516 766Q516 774 510.0 780.5Q504 787 496 787Q487 787 481.0 780.5Q475 774 475 766Q475 758 481.0 752.0Q487 746 496 746ZM260 741Q268 741 274.0 747.0Q280 753 280 762Q280 770 274.0 776.0Q268 782 260 782Q252 782 245.5 776.0Q239 770 239 762Q239 753 245.5 747.0Q252 741 260 741ZM567 735Q576 735 582.0 741.0Q588 747 588 755Q588 764 582.0 770.0Q576 776 567 776Q559 776 553.0 770.0Q547 764 547 755Q547 747 553.0 741.0Q559 735 567 735ZM434 715Q442 715 448.0 721.5Q454 728 454 736Q454 744 448.0 750.0Q442 756 434 756Q425 756 419.0 750.0Q413 744 413 736Q413 728 419.0 721.5Q425 715 434 715ZM799 690Q807 690 813.0 696.5Q819 703 819 711Q819 719 813.0 725.0Q807 731 799 731Q791 731 784.5 725.0Q778 719 778 711Q778 703 784.5 696.5Q791 690 799 690ZM611 688Q619 688 625.0 694.5Q631 701 631 709Q631 717 625.0 723.0Q619 729 611 729Q603 729 596.5 723.0Q590 717 590 709Q590 701 596.5 694.5Q603 688 611 688ZM246 665Q254 665 260.0 671.0Q266 677 266 685Q266 693 260.0 699.5Q254 706 246 706Q237 706 231.0 699.5Q225 693 225 685Q225 677 231.0 671.0Q237 665 246 665ZM398 657Q407 657 413.0 663.0Q419 669 419 677Q419 685 413.0 691.5Q407 698 398 698Q390 698 384.0 691.5Q378 685 378 677Q378 669 384.0 663.0Q390 657 398 657ZM700 140Q706 141 712.0 141.5Q718 142 724 142Q730 142 736.0 141.5Q742 141 747 140L846 666H603ZM233 591Q241 591 247.0 597.5Q253 604 253 612Q253 620 247.0 626.0Q241 632 233 632Q225 632 218.5 626.0Q212 620 212 612Q212 604 218.5 597.5Q225 591 233 591ZM391 587Q399 587 405.0 593.0Q411 599 411 607Q411 616 405.0 622.0Q399 628 391 628Q382 628 376.0 622.0Q370 616 370 607Q370 599 376.0 593.0Q382 587 391 587ZM389 515Q397 515 403.5 521.0Q410 527 410 536Q410 544 403.5 550.0Q397 556 389 556Q381 556 375.0 550.0Q369 544 369 536Q369 527 375.0 521.0Q381 515 389 515ZM227 513Q235 513 241.0 519.0Q247 525 247 534Q247 542 241.0 548.0Q235 554 227 554Q218 554 212.0 548.0Q206 542 206 534Q206 525 212.0 519.0Q218 513 227 513ZM310 -101Q330 -101 360.5 -98.5Q391 -96 424.0 -83.5Q457 -71 486.0 -41.5Q515 -12 533.0 41.0Q551 94 551 178Q551 253 541.5 297.0Q532 341 519.5 365.5Q507 390 498 405Q480 437 452.5 460.0Q425 483 401 483Q382 483 375.0 468.5Q368 454 368 443Q368 427 372.0 407.0Q376 387 382 353Q388 322 395.0 282.5Q402 243 402 208Q402 177 393.0 148.0Q384 119 364.0 101.0Q344 83 310 83Q276 83 255.5 101.0Q235 119 226.0 148.0Q217 177 217 208Q217 243 224.0 282.5Q231 322 237 353Q244 387 247.5 407.0Q251 427 251 443Q251 454 244.5 468.5Q238 483 218 483Q194 483 167.0 460.0Q140 437 122 405Q113 390 100.0 365.5Q87 341 77.5 297.0Q68 253 68 178Q68 98 85.5 46.0Q103 -6 131.5 -36.0Q160 -66 192.5 -80.0Q225 -94 256.5 -97.5Q288 -101 310 -101ZM724 -84Q767 -84 797.5 -53.5Q828 -23 828 20Q828 63 797.5 93.0Q767 123 724 123Q681 123 651.0 93.0Q621 63 621 20Q621 -23 651.0 -53.5Q681 -84 724 -84Z" />
  </g>
</svg>