<svg xmlns="http://www.w3.org/2000/svg" viewBox="49 -31 1155 1032">
  <g transform="translate(0, 970) scale(1, -1)">
    <path fill="black" d="M253 -31V58H49V223H172Q172 328 182.0 430.5Q192 533 220.5 625.5Q249 718 306 792Q376 884 481.0 942.5Q586 1001 722 1001Q784 1001 851.5 983.0Q919 965 981.5 921.5Q1044 878 1094.5 803.0Q1145 728 1174.5 614.5Q1204 501 1204 343Q1204 247 1188.5 191.5Q1173 136 1148.0 109.5Q1123 83 1093.5 75.5Q1064 68 1035 68Q1014 68 986.0 72.0Q958 76 930.5 94.0Q903 112 885.0 153.5Q867 195 867 269Q867 378 856.0 456.5Q845 535 810.5 577.5Q776 620 705 620Q599 620 553.0 519.5Q507 419 506 223H626V58H422V-31ZM1035 88Q1058 88 1084.0 93.5Q1110 99 1132.5 122.5Q1155 146 1169.5 198.0Q1184 250 1184 343Q1184 497 1155.5 606.5Q1127 716 1079.0 789.0Q1031 862 970.5 904.0Q910 946 846.0 963.5Q782 981 722 981Q589 981 489.5 925.5Q390 870 322 781Q266 708 238.0 615.0Q210 522 201.0 421.5Q192 321 191 223H487Q488 429 538.5 534.0Q589 639 705 639Q784 639 822.5 594.0Q861 549 874.0 466.5Q887 384 887 269Q887 203 902.0 166.0Q917 129 940.0 112.5Q963 96 988.5 92.0Q1014 88 1035 88ZM68 77H607V204H68ZM273 -12H402V58H273Z" />
  </g>
</svg>