<svg xmlns="http://www.w3.org/2000/svg" viewBox="49 220 269 554">
  <g transform="translate(0, 994) scale(1, -1)">
    <path fill="black" d="M145 220V262H79V346H154Q149 357 139.5 379.5Q130 402 119.0 428.0Q108 454 99.0 477.0Q90 500 86 513Q82 528 73.0 551.5Q64 575 56.5 601.0Q49 627 49 649Q49 708 85.5 741.0Q122 774 184 774Q246 774 282.0 742.5Q318 711 318 649Q318 627 310.5 601.0Q303 575 294.5 551.5Q286 528 281 513Q277 500 268.0 477.0Q259 454 248.0 428.0Q237 402 227.5 379.5Q218 357 213 346H289V262H223V220ZM175 346H192Q194 351 203.5 373.0Q213 395 224.5 424.0Q236 453 246.5 479.5Q257 506 262 520Q268 537 277.0 560.5Q286 584 292.5 608.0Q299 632 299 649Q299 669 290.5 693.5Q282 718 257.5 736.0Q233 754 184 754Q135 754 110.0 736.0Q85 718 76.5 693.5Q68 669 68 649Q68 632 75.0 608.0Q82 584 90.5 560.5Q99 537 105 520Q110 506 120.5 479.5Q131 453 142.5 424.0Q154 395 163.5 373.0Q173 351 175 346ZM184 367 121 521Q118 528 109.5 551.5Q101 575 93.0 603.0Q85 631 85 650Q85 691 110.0 715.0Q135 739 184 739Q233 739 257.5 715.0Q282 691 282 650Q282 631 274.5 603.0Q267 575 258.5 551.5Q250 528 247 521Q243 512 232.5 485.5Q222 459 209.0 427.0Q196 395 184 367ZM184 417 228 529Q231 536 239.0 559.0Q247 582 254.5 608.0Q262 634 262 650Q262 682 242.5 701.0Q223 720 184 719Q145 719 125.0 700.5Q105 682 105 650Q105 634 112.5 608.0Q120 582 128.0 559.0Q136 536 139 529ZM98 281H270V326H98ZM165 239H203V262H165Z" />
  </g>
</svg>