<svg xmlns="http://www.w3.org/2000/svg" viewBox="49 228 546 546">
  <g transform="translate(0, 1002) scale(1, -1)">
    <path fill="black" d="M322 228Q265 228 215.5 249.0Q166 270 128.5 307.5Q91 345 70.0 394.5Q49 444 49 501Q49 558 70.0 607.5Q91 657 128.5 694.5Q166 732 215.5 753.0Q265 774 322 774Q379 774 428.5 753.0Q478 732 515.5 694.5Q553 657 574.0 607.5Q595 558 595 501Q595 444 574.0 394.5Q553 345 515.5 307.5Q478 270 428.5 249.0Q379 228 322 228ZM322 248Q374 248 419.5 268.0Q465 288 500.0 322.5Q535 357 555.0 403.0Q575 449 575 501Q575 553 555.0 599.0Q535 645 500.0 679.5Q465 714 419.5 734.0Q374 754 322 754Q253 754 195.0 719.5Q137 685 102.5 628.0Q68 571 68 501Q68 432 102.5 374.5Q137 317 195.0 282.5Q253 248 322 248ZM322 281Q262 281 212.0 311.0Q162 341 132.0 391.0Q102 441 102 501Q102 562 132.0 611.5Q162 661 212.0 691.0Q262 721 322 721Q383 721 432.5 691.0Q482 661 512.0 611.5Q542 562 542 501Q542 441 512.0 391.0Q482 341 432.5 311.0Q383 281 322 281ZM322 301Q377 301 422.5 328.0Q468 355 495.0 400.5Q522 446 522 501Q522 556 495.0 601.5Q468 647 422.5 674.0Q377 701 322 701Q267 701 221.5 674.0Q176 647 149.0 601.5Q122 556 122 501Q122 446 149.0 400.5Q176 355 221.5 328.0Q267 301 322 301Z" />
  </g>
</svg>