<svg xmlns="http://www.w3.org/2000/svg" viewBox="49 161 999 668">
  <g transform="translate(0, 990) scale(1, -1)">
    <path fill="black" d="M86 161V191Q86 273 101 333L49 349Q57 398 77.0 441.0Q97 484 134.0 517.0Q171 550 230 568Q157 598 122.0 630.0Q87 662 77.0 691.0Q67 720 67 739Q67 752 74.0 773.0Q81 794 101.5 811.5Q122 829 160 829Q192 829 216.5 810.0Q241 791 258.5 764.5Q276 738 286.0 714.0Q296 690 299 680H798Q801 690 811.5 714.0Q822 738 839.0 764.5Q856 791 881.0 810.0Q906 829 938 829Q977 829 996.5 811.5Q1016 794 1023.0 773.0Q1030 752 1030 739Q1030 720 1020.0 691.0Q1010 662 975.5 630.0Q941 598 867 568Q956 541 996.0 482.0Q1036 423 1048 349L996 333Q1003 303 1007.0 268.0Q1011 233 1011 191V161H895Q900 191 903.0 218.5Q906 246 906 271Q905 348 887.0 404.0Q869 460 811 498H286Q228 460 210.0 404.0Q192 348 191 271Q191 221 203 161ZM105 181H178Q175 201 173.0 225.0Q171 249 172 271Q173 354 194.5 414.5Q216 475 280 518H817Q882 475 903.0 414.5Q924 354 925 271Q926 249 924.0 225.0Q922 201 919 181H992V191Q992 272 976.5 328.0Q961 384 937.0 423.0Q913 462 885.0 488.5Q857 515 831 536V658Q839 680 850.5 700.5Q862 721 877 743Q894 767 908.5 775.0Q923 783 934 783Q951 783 965.0 771.5Q979 760 979 738Q979 715 963.0 693.0Q947 671 924.5 651.5Q902 632 881.5 617.5Q861 603 851 596V583Q923 612 956.5 641.0Q990 670 1000.0 696.0Q1010 722 1010 739Q1010 749 1004.5 765.5Q999 782 983.5 796.0Q968 810 938 810Q908 810 883.0 786.0Q858 762 839.5 727.5Q821 693 810 660H287Q276 693 257.5 727.5Q239 762 214.0 786.0Q189 810 160 810Q130 810 114.0 796.0Q98 782 92.5 765.5Q87 749 87 739Q87 722 97.0 696.0Q107 670 141.0 641.0Q175 612 247 583V596Q237 603 216.0 617.5Q195 632 172.5 651.5Q150 671 134.0 693.0Q118 715 118 738Q118 760 132.0 771.5Q146 783 163 783Q174 783 188.5 775.0Q203 767 220 743Q235 721 246.5 700.5Q258 680 266 658V536Q241 515 212.5 488.5Q184 462 160.0 423.0Q136 384 120.5 328.0Q105 272 105 191ZM247 620V652Q239 674 228.0 693.5Q217 713 204 732Q191 750 181.0 756.5Q171 763 163 763Q157 763 147.0 759.0Q137 755 137 738Q137 717 153.5 697.0Q170 677 195.0 658.0Q220 639 247 620ZM851 620Q878 639 903.0 658.0Q928 677 944.0 697.0Q960 717 960 738Q960 755 950.0 759.0Q940 763 934 763Q927 763 917.0 756.5Q907 750 893 732Q865 694 851 652ZM287 541V639H810V541ZM307 560H791V620H307ZM106 352Q122 404 145.5 439.5Q169 475 195.5 500.0Q222 525 247 545V553Q168 534 125.0 481.0Q82 428 71 363Q80 360 89.0 357.0Q98 354 106 352ZM990 352Q999 354 1008.0 357.0Q1017 360 1026 363Q1014 428 972.0 481.0Q930 534 851 553V545Q875 525 901.5 500.0Q928 475 951.5 439.5Q975 404 990 352Z" />
  </g>
</svg>