<svg xmlns="http://www.w3.org/2000/svg" viewBox="49 161 754 654">
  <g transform="translate(0, 976) scale(1, -1)">
    <path fill="black" d="M294 161V214H326Q286 254 286 313Q286 349 302.5 379.5Q319 410 347.0 430.0Q375 450 410 454L277 757L199 283L180 286L187 329L148 344L133 296L115 301L130 351L88 367L66 320L49 328L273 815L428 460L583 815L803 328L786 320L765 366L726 351L741 301L723 296L708 344L669 329L676 286L657 283L579 757L446 454Q481 450 509.0 430.0Q537 410 553.5 379.5Q570 349 570 313Q570 284 559.0 258.5Q548 233 529 214H563V161ZM190 349 252 730 96 385ZM666 349 756 384 605 718ZM313 181H543V194H466V197Q504 207 526.5 240.0Q549 273 549 313Q549 346 532.5 373.5Q516 401 488.5 418.0Q461 435 428 435Q394 435 366.5 418.0Q339 401 323.0 373.5Q307 346 307 313Q307 276 330.5 241.5Q354 207 391 197V194H313ZM428 209Q385 209 354.5 239.5Q324 270 324 313Q324 357 354.5 387.0Q385 417 428 417Q471 417 501.5 387.0Q532 357 532 313Q532 270 501.5 239.5Q471 209 428 209ZM428 229Q463 229 488.0 253.5Q513 278 513 313Q513 348 488.0 373.0Q463 398 428 398Q393 398 368.0 373.0Q343 348 343 313Q343 278 368.0 253.5Q393 229 428 229Z" />
  </g>
</svg>