<svg xmlns="http://www.w3.org/2000/svg" viewBox="49 161 832 189">
  <g transform="translate(0, 511) scale(1, -1)">
    <path fill="black" d="M49 161Q61 176 73.5 195.0Q86 214 94.5 230.5Q103 247 103 256Q103 266 95.5 282.5Q88 299 77.0 317.5Q66 336 56 350L402 288Q405 308 415.0 312.5Q425 317 438 317Q446 317 453.0 315.5Q460 314 465 309Q470 314 477.0 315.5Q484 317 492 317Q505 317 514.5 312.0Q524 307 527 288L874 350Q864 336 853.0 317.5Q842 299 834.5 282.5Q827 266 827 256Q827 247 835.5 230.5Q844 214 857.0 195.0Q870 176 881 161L527 229Q525 210 515.5 205.0Q506 200 492 200Q484 200 477.0 201.5Q470 203 465 208Q460 203 453.0 201.5Q446 200 438 200Q425 200 414.5 204.5Q404 209 402 229ZM95 190 401 250V268Q319 282 249.5 295.0Q180 308 97 322Q105 309 113.5 290.0Q122 271 122 256Q122 245 113.0 225.0Q104 205 95 190ZM835 190Q826 205 817.0 225.0Q808 245 808 256Q808 271 816.5 290.0Q825 309 833 322Q751 308 681.0 295.0Q611 282 528 268V250ZM438 220Q445 220 450.0 224.0Q455 228 455 244V272Q455 289 450.0 293.5Q445 298 438 298Q432 298 426.5 294.0Q421 290 421 275V241Q421 227 426.0 223.5Q431 220 438 220ZM491 220Q498 220 503.0 223.0Q508 226 509 241V272Q509 289 504.0 293.5Q499 298 492 298Q485 298 480.0 293.5Q475 289 475 272V244Q475 228 479.5 224.0Q484 220 491 220Z" />
  </g>
</svg>