<svg xmlns="http://www.w3.org/2000/svg" viewBox="49 161 941 649">
  <g transform="translate(0, 971) scale(1, -1)">
    <path fill="black" d="M297 161Q300 178 303.5 213.0Q307 248 307 288Q307 320 300.0 377.0Q293 434 278.5 502.5Q264 571 241.5 637.5Q219 704 188 755Q166 752 146.0 738.5Q126 725 114.0 696.0Q102 667 102 615V200Q102 175 92.0 170.5Q82 166 75 166Q68 166 58.5 170.5Q49 175 49 200V617Q49 683 66.5 722.0Q84 761 110.5 779.5Q137 798 165.5 804.0Q194 810 216 810H822Q844 810 872.5 804.0Q901 798 928.0 779.5Q955 761 972.5 722.0Q990 683 990 617V200Q990 175 980.0 170.5Q970 166 963 166Q957 166 947.0 170.5Q937 175 937 200V615Q937 665 925.5 694.0Q914 723 895.5 736.5Q877 750 855 754Q824 703 801.5 636.5Q779 570 764.5 502.0Q750 434 743.0 377.0Q736 320 736 288Q736 248 739.5 213.0Q743 178 746 161ZM75 185Q78 185 80.0 187.5Q82 190 82 200V615Q82 668 94.5 700.0Q107 732 127.0 748.5Q147 765 171.0 771.0Q195 777 217 777H821Q844 777 868.0 771.0Q892 765 912.0 748.5Q932 732 944.5 700.0Q957 668 957 615V200Q957 190 958.5 187.5Q960 185 963 185Q966 185 968.0 187.5Q970 190 970 200V617Q970 677 954.5 712.0Q939 747 915.5 764.0Q892 781 867.0 786.0Q842 791 822 791H216Q197 791 172.0 786.0Q147 781 123.0 764.0Q99 747 83.5 712.0Q68 677 68 617V200Q68 190 70.0 187.5Q72 185 75 185ZM320 181H724Q722 196 719.5 225.5Q717 255 717 288Q717 318 723.5 374.5Q730 431 744.0 499.0Q758 567 780.5 635.0Q803 703 834 757H209Q240 703 262.5 635.5Q285 568 299.0 499.5Q313 431 320.0 374.5Q327 318 327 288Q327 255 324.5 225.5Q322 196 320 181Z" />
  </g>
</svg>