<svg xmlns="http://www.w3.org/2000/svg" viewBox="49 161 1060 335">
  <g transform="translate(0, 657) scale(1, -1)">
    <path fill="black" d="M247 161Q222 161 188.5 167.0Q155 173 123.0 190.0Q91 207 70.0 240.5Q49 274 49 329Q49 384 70.0 417.0Q91 450 123.0 467.0Q155 484 188.5 490.0Q222 496 247 496H911Q936 496 969.5 490.0Q1003 484 1035.0 467.0Q1067 450 1088.0 417.0Q1109 384 1109 329Q1109 274 1088.0 240.5Q1067 207 1035.0 190.0Q1003 173 969.5 167.0Q936 161 911 161ZM247 181H911Q933 181 963.0 186.0Q993 191 1022.0 206.0Q1051 221 1070.0 250.5Q1089 280 1089 329Q1089 377 1070.0 406.5Q1051 436 1022.0 451.5Q993 467 963.0 472.0Q933 477 911 477H247Q225 477 194.5 472.0Q164 467 135.0 451.5Q106 436 87.0 406.5Q68 377 68 329Q68 280 87.0 250.5Q106 221 135.0 206.0Q164 191 194.5 186.0Q225 181 247 181Z" />
  </g>
</svg>