<svg xmlns="http://www.w3.org/2000/svg" viewBox="49 -244 320 1256">
  <g transform="translate(0, 768) scale(1, -1)">
    <path fill="black" d="M49 -244V826Q49 861 53.0 894.0Q57 927 72.0 953.5Q87 980 119.5 996.0Q152 1012 209 1012Q267 1012 299.5 994.5Q332 977 347.0 948.5Q362 920 365.5 887.0Q369 854 369 824V93H290V826Q290 853 285.5 877.5Q281 902 264.0 917.5Q247 933 209 933Q172 933 154.5 915.0Q137 897 132.5 872.0Q128 847 128 826V-244ZM68 -225H109V826Q109 844 112.0 866.0Q115 888 124.5 907.5Q134 927 154.0 939.5Q174 952 209 952Q256 952 277.0 933.5Q298 915 303.5 886.5Q309 858 309 826V112H350V824Q350 851 347.0 880.5Q344 910 330.5 935.5Q317 961 288.5 977.0Q260 993 209 993Q159 993 130.5 978.5Q102 964 88.5 940.0Q75 916 71.5 886.5Q68 857 68 826Z" />
  </g>
</svg>