<svg xmlns="http://www.w3.org/2000/svg" viewBox="49 -244 1293 1256">
  <g transform="translate(0, 768) scale(1, -1)">
    <path fill="black" d="M493 -244V150Q476 149 458.5 147.5Q441 146 424 146Q384 146 359.5 152.5Q335 159 319.5 172.0Q304 185 288 203L250 250Q243 258 232.5 269.0Q222 280 212 280Q199 280 184.5 275.5Q170 271 146 271Q109 271 79.0 287.5Q49 304 49 333Q49 359 72.5 379.0Q96 399 124 409L56 474Q49 481 49 490Q49 498 55.0 505.0Q61 512 71 512Q76 512 82.0 509.5Q88 507 98 497L176 421L255 497Q266 507 272.5 509.5Q279 512 283 512Q292 512 298.5 504.5Q305 497 305 490Q305 481 296 472L229 408Q259 397 277.0 379.5Q295 362 302 354L334 310Q344 297 358.0 284.0Q372 271 391 271Q411 271 436.0 278.0Q461 285 493 295V826Q493 861 497.0 894.0Q501 927 516.0 953.5Q531 980 563.5 996.0Q596 1012 653 1012Q711 1012 743.5 994.5Q776 977 791.0 948.5Q806 920 809.5 887.0Q813 854 813 824V291Q817 289 823 287Q845 278 887.5 261.5Q930 245 988.5 231.5Q1047 218 1117 218Q1159 218 1190.5 219.5Q1222 221 1252.0 224.5Q1282 228 1320 233Q1322 233 1323.0 233.5Q1324 234 1326 234Q1334 234 1338.0 228.5Q1342 223 1342 215Q1342 209 1338.5 203.0Q1335 197 1324 192Q1274 167 1219.5 156.5Q1165 146 1112 146Q1065 146 1012.5 150.5Q960 155 909.0 161.0Q858 167 813 171V93H733V177H725Q685 177 647.5 172.0Q610 167 572 161V-244ZM793 299V824Q793 851 790.0 880.5Q787 910 774.0 935.5Q761 961 732.5 977.0Q704 993 653 993Q603 993 574.5 978.5Q546 964 532.5 940.0Q519 916 515.5 886.5Q512 857 512 826V302Q514 303 516.0 303.5Q518 304 520 305Q527 307 535.0 309.5Q543 312 553 315V826Q553 844 556.0 866.0Q559 888 568.5 907.5Q578 927 598.0 939.5Q618 952 653 952Q700 952 721.0 933.5Q742 915 747.5 886.5Q753 858 753 826V314Q764 311 773.5 307.0Q783 303 793 299ZM572 320Q592 325 612.5 329.0Q633 333 653 333Q674 333 694.0 329.5Q714 326 733 320V826Q733 853 729.0 877.5Q725 902 708.0 917.5Q691 933 653 933Q616 933 598.5 915.0Q581 897 576.5 872.0Q572 847 572 826ZM208 415 279 483Q286 489 286 492Q286 495 282 495Q281 495 274 490L198 417ZM146 415 155 416 80 490Q75 495 71 495Q68 495 68 492Q68 489 74 483ZM424 167Q474 167 522.5 174.5Q571 182 621.5 189.0Q672 196 725 196Q758 196 804.5 191.5Q851 187 904.0 181.5Q957 176 1010.5 171.5Q1064 167 1112 167Q1160 167 1212.5 177.0Q1265 187 1311 206Q1320 209 1320 212Q1320 215 1315 215Q1314 215 1313.0 214.5Q1312 214 1311 214Q1263 207 1220.5 203.0Q1178 199 1117 199Q1048 199 988.5 212.0Q929 225 884.5 241.5Q840 258 815 268Q779 284 736.5 298.5Q694 313 653 313Q619 313 582.5 303.0Q546 293 525 286Q483 272 450.0 262.0Q417 252 391 252Q364 252 346.5 266.5Q329 281 318 297L286 343Q281 350 267.5 363.0Q254 376 231.5 387.0Q209 398 178 398Q129 398 99.0 376.5Q69 355 69 333Q69 313 92.0 302.0Q115 291 146 291Q175 291 187.0 295.5Q199 300 212 300Q229 300 243.0 286.0Q257 272 266 261L304 215Q321 194 345.0 180.5Q369 167 424 167ZM169 350Q163 350 157.5 355.0Q152 360 152 366Q152 373 157.5 377.5Q163 382 169 382Q175 382 180.0 377.5Q185 373 185 366Q185 360 180.0 355.0Q175 350 169 350ZM753 112H793V173Q783 174 772.5 174.5Q762 175 753 176ZM512 -225H553V158Q543 157 533.0 155.5Q523 154 512 153Z" />
  </g>
</svg>