<svg xmlns="http://www.w3.org/2000/svg" viewBox="49 -30 459 1035">
  <g transform="translate(0, 975) scale(1, -1)">
    <path fill="black" d="M212 -30 258 404Q208 403 151.5 394.0Q95 385 49 377V488Q72 484 105.0 478.0Q138 472 173.5 467.5Q209 463 240 461Q230 478 211.0 510.0Q192 542 170.0 583.0Q148 624 128.0 668.5Q108 713 95.5 755.5Q83 798 83 833Q83 896 111.0 934.0Q139 972 184.0 988.5Q229 1005 279 1005Q329 1005 373.5 988.5Q418 972 446.5 934.0Q475 896 475 833Q475 798 462.0 755.5Q449 713 429.5 668.5Q410 624 388.0 583.0Q366 542 347.0 510.0Q328 478 317 461Q349 463 384.5 467.5Q420 472 453.0 478.0Q486 484 508 488V376Q461 385 405.0 394.0Q349 403 299 404L345 -30ZM264 460H292Q278 486 258.0 522.5Q238 559 216.5 601.0Q195 643 176.0 685.5Q157 728 145.0 766.5Q133 805 133 833Q133 880 156.5 906.5Q180 933 214.0 944.0Q248 955 279 955Q310 955 343.5 944.0Q377 933 401.0 906.5Q425 880 425 833Q425 803 411.5 761.5Q398 720 377.0 674.5Q356 629 333.0 585.0Q310 541 290 505L305 479Q316 498 334.5 529.5Q353 561 374.0 600.5Q395 640 413.5 682.0Q432 724 443.5 763.0Q455 802 455 833Q455 889 430.0 922.0Q405 955 364.5 970.0Q324 985 279 985Q234 985 194.0 970.0Q154 955 128.5 922.0Q103 889 103 833Q103 797 119.0 749.5Q135 702 158.5 652.5Q182 603 205.5 560.0Q229 517 246.0 489.5Q263 462 264 460ZM279 525Q299 562 321.0 605.0Q343 648 362.0 691.0Q381 734 393.0 771.0Q405 808 405 833Q405 873 384.5 895.0Q364 917 335.0 926.5Q306 936 279 936Q252 936 222.5 926.5Q193 917 172.5 895.0Q152 873 152 833Q152 808 164.0 771.0Q176 734 195.0 691.0Q214 648 236.5 605.0Q259 562 279 525ZM68 400Q90 404 124.5 409.5Q159 415 199.5 419.5Q240 424 278 424Q316 424 356.5 419.5Q397 415 432.0 409.5Q467 404 488 400V464Q472 461 437.0 455.5Q402 450 359.5 445.0Q317 440 278 440Q251 440 212.5 444.0Q174 448 135.5 453.5Q97 459 68 464ZM235 -11H323Q310 90 301.0 195.0Q292 300 279 404Z" />
  </g>
</svg>