<svg xmlns="http://www.w3.org/2000/svg" viewBox="49 -31 722 1032">
  <g transform="translate(0, 970) scale(1, -1)">
    <path fill="black" d="M410 -31Q383 -31 375.0 -4.0Q367 23 367 67Q367 73 367.0 87.0Q367 101 368 120L385 491Q367 499 358.5 517.5Q350 536 348 550L337 556Q327 547 315.5 533.0Q304 519 294 503Q268 504 260.0 518.0Q252 532 252 542Q252 564 271 585H49V616Q49 632 51.5 666.0Q54 700 64.0 744.0Q74 788 96.5 832.5Q119 877 159.0 915.5Q199 954 260.5 977.5Q322 1001 410 1001Q499 1001 560.0 977.5Q621 954 661.0 915.5Q701 877 723.5 832.5Q746 788 756.0 744.0Q766 700 768.5 666.0Q771 632 771 616V585H548Q567 566 567 542Q567 532 559.0 518.0Q551 504 525 503Q504 537 482 556L471 550Q470 536 461.0 517.5Q452 499 435 491L452 120Q453 101 453.0 87.0Q453 73 453 67Q453 23 445.0 -4.0Q437 -31 410 -31ZM68 605H294V619Q294 624 296.5 642.5Q299 661 309.5 684.0Q320 707 344.0 723.5Q368 740 410 740Q452 740 475.5 723.5Q499 707 509.5 684.0Q520 661 522.5 642.5Q525 624 525 619V605H751V616Q751 632 748.5 664.5Q746 697 736.5 738.5Q727 780 706.0 822.5Q685 865 647.5 901.0Q610 937 552.0 959.0Q494 981 410 981Q326 981 267.5 959.0Q209 937 171.5 901.0Q134 865 113.0 822.5Q92 780 82.5 738.5Q73 697 70.5 664.5Q68 632 68 616ZM313 605H506V619Q506 623 504.0 638.5Q502 654 493.0 673.0Q484 692 464.5 706.0Q445 720 410 720Q375 720 355.0 706.0Q335 692 326.0 673.0Q317 654 315.0 638.5Q313 623 313 619ZM410 505Q432 505 443.0 525.0Q454 545 455 564L486 579Q498 569 511.5 554.5Q525 540 535 523Q543 525 545.0 530.5Q547 536 547 542Q547 550 540.5 562.5Q534 575 518 585H301Q285 575 278.5 562.5Q272 550 272 542Q272 536 274.0 530.5Q276 525 284 523Q295 540 308.0 554.5Q321 569 333 579L364 564Q366 545 377.0 525.0Q388 505 410 505ZM410 -12Q426 -12 429.5 10.0Q433 32 433 67Q433 81 431.5 121.5Q430 162 427.5 215.5Q425 269 422.5 323.5Q420 378 418.0 421.5Q416 465 415 485H404Q403 465 401.0 421.0Q399 377 396.5 323.0Q394 269 391.5 215.5Q389 162 387.5 121.5Q386 81 386 67Q386 32 390.0 10.0Q394 -12 410 -12Z" />
  </g>
</svg>