<svg xmlns="http://www.w3.org/2000/svg" viewBox="49 -31 589 1032">
  <g transform="translate(0, 970) scale(1, -1)">
    <path fill="black" d="M343 -31Q316 -31 308.0 -4.0Q300 23 300 67Q300 73 300.0 87.0Q300 101 301 120L318 675H49Q49 688 53.0 716.5Q57 745 68.0 781.5Q79 818 99.5 856.5Q120 895 152.0 928.0Q184 961 231.5 981.0Q279 1001 343 1001Q408 1001 455.0 981.0Q502 961 534.5 928.0Q567 895 587.5 856.5Q608 818 619.0 781.5Q630 745 634.0 716.5Q638 688 638 675H368L385 120Q386 101 386.0 87.0Q386 73 386 67Q386 23 378.0 -4.0Q370 -31 343 -31ZM69 695H617Q616 711 608.0 745.0Q600 779 582.5 819.0Q565 859 534.5 896.0Q504 933 457.0 957.0Q410 981 343 981Q276 981 229.0 957.0Q182 933 151.5 896.0Q121 859 103.5 819.0Q86 779 78.5 745.0Q71 711 69 695ZM343 -12Q359 -12 363.0 10.0Q367 32 367 67Q367 78 366.0 112.5Q365 147 363.5 197.0Q362 247 360.5 305.0Q359 363 357.0 422.0Q355 481 353.5 533.0Q352 585 350.5 622.5Q349 660 349 675H338Q338 660 336.5 622.0Q335 584 333.5 532.5Q332 481 330.0 422.0Q328 363 326.5 305.0Q325 247 323.5 197.0Q322 147 321.0 112.5Q320 78 320 67Q320 32 323.5 10.0Q327 -12 343 -12Z" />
  </g>
</svg>