<svg xmlns="http://www.w3.org/2000/svg" viewBox="49 -31 333 1032">
  <g transform="translate(0, 970) scale(1, -1)">
    <path fill="black" d="M215 -31Q188 -31 180.0 -4.0Q172 23 172 67Q172 81 175 120L193 337Q175 343 161.5 357.0Q148 371 146 396L144 413Q143 427 135.0 438.0Q127 449 113 449Q105 449 95.5 443.5Q86 438 75 438Q69 438 59.0 442.0Q49 446 49 459Q49 474 69 491Q83 502 108.0 513.5Q133 525 167 531V820Q167 840 165.0 860.5Q163 881 149 896Q145 901 140.5 904.5Q136 908 132 912Q122 922 113.0 932.0Q104 942 104 953Q104 970 120.0 985.5Q136 1001 176 1001Q215 1001 244.0 971.5Q273 942 273 891V530Q304 523 326.0 512.5Q348 502 361 491Q382 473 382 459Q382 446 372.0 442.0Q362 438 355 438Q345 438 335.5 443.5Q326 449 317 449Q304 449 296.0 438.0Q288 427 287 413L285 396Q283 371 269.0 357.0Q255 343 237 337L255 120Q257 101 257.5 87.0Q258 73 258 67Q258 23 250.0 -4.0Q242 -31 215 -31ZM253 533V891Q253 933 230.0 957.0Q207 981 176 981Q147 981 135.5 972.0Q124 963 124 953Q124 948 130.5 941.5Q137 935 145 928Q150 922 155.5 917.5Q161 913 165 908Q183 889 185.0 865.5Q187 842 187 820V534Q194 535 201.0 535.0Q208 535 215 535Q226 535 235.0 534.5Q244 534 253 533ZM215 354Q232 354 248.0 364.0Q264 374 266 396L267 416Q269 439 281.5 454.0Q294 469 313 469Q327 469 336.0 463.5Q345 458 355 458Q362 458 362 461Q362 464 349 476Q333 490 299.0 503.0Q265 516 215 516Q165 516 132.0 503.0Q99 490 82 476Q68 465 68 461Q68 460 71.0 459.0Q74 458 75 458Q85 458 95.0 463.5Q105 469 118 469Q138 469 150.0 454.0Q162 439 164 416L165 396Q167 374 182.5 364.0Q198 354 215 354ZM215 -12Q231 -12 235.0 10.0Q239 32 239 67Q239 84 236.5 120.5Q234 157 230.5 199.5Q227 242 223.5 279.0Q220 316 218 334H212Q211 316 207.5 279.5Q204 243 200.5 200.0Q197 157 194.5 120.5Q192 84 192 67Q192 32 195.5 10.0Q199 -12 215 -12Z" />
  </g>
</svg>