<svg xmlns="http://www.w3.org/2000/svg" viewBox="49 -44 270 1045">
  <g transform="translate(0, 957) scale(1, -1)">
    <path fill="black" d="M251 -44V852Q251 870 245.5 888.5Q240 907 226.0 919.5Q212 932 185 932Q116 932 116 874V772Q116 747 102.5 742.5Q89 738 83 738Q76 738 62.5 742.5Q49 747 49 772V879Q49 918 63.5 942.5Q78 967 99.5 979.5Q121 992 144.0 996.5Q167 1001 185 1001Q237 1001 266.0 980.0Q295 959 307.0 929.0Q319 899 319 871V-44ZM271 -24H299V871Q299 895 288.0 920.5Q277 946 252.5 963.5Q228 981 185 981Q170 981 150.0 977.5Q130 974 111.5 963.0Q93 952 80.5 932.0Q68 912 68 879V772Q68 762 74.0 759.5Q80 757 83 757Q85 757 91.0 759.5Q97 762 97 772V874Q97 918 122.0 935.0Q147 952 185 952Q220 952 238.5 936.0Q257 920 264.0 897.0Q271 874 271 852Z" />
  </g>
</svg>