<svg xmlns="http://www.w3.org/2000/svg" viewBox="49 -44 197 1045">
  <g transform="translate(0, 957) scale(1, -1)">
    <path fill="black" d="M181 -44 164 -14 168 20 162 25 152 14 140 -43H70L88 -11L100 41L125 70Q130 82 137.5 104.0Q145 126 145 140Q145 148 140.5 156.0Q136 164 131 172Q124 183 118.0 195.0Q112 207 112 222Q112 236 119.0 248.5Q126 261 133 272Q138 280 143.0 288.0Q148 296 148 302Q148 308 143.5 315.0Q139 322 134 330Q127 341 119.5 355.0Q112 369 112 387Q112 404 120.0 418.5Q128 433 135 446Q140 455 144.5 464.0Q149 473 149 480Q149 488 144.5 495.5Q140 503 134 512Q126 524 118.5 537.5Q111 551 111 567Q111 584 118.5 600.0Q126 616 133 632Q140 645 145.0 656.5Q150 668 150 678Q150 694 137.5 710.0Q125 726 117 733Q103 704 92.0 678.5Q81 653 76 634Q72 618 67 604L49 608V622Q49 638 49.5 662.5Q50 687 52.0 714.0Q54 741 59 762Q64 785 79.5 815.0Q95 845 110 873Q120 890 127.5 904.5Q135 919 137 926Q142 943 144.0 962.0Q146 981 145 992L159 1001Q161 1001 171.5 992.0Q182 983 191.5 964.0Q201 945 201 913Q201 887 185.0 853.0Q169 819 150 790Q149 789 148.5 788.0Q148 787 147 785Q155 778 170.5 761.5Q186 745 198.5 723.0Q211 701 211 678Q211 656 203.0 638.0Q195 620 187 606Q181 596 176.5 587.0Q172 578 172 567Q172 558 177.0 550.5Q182 543 188 535Q196 525 203.0 512.0Q210 499 210 480Q210 462 203.0 448.0Q196 434 188 423Q183 414 178.0 405.5Q173 397 173 387Q173 377 178.0 368.0Q183 359 188 351Q196 340 202.0 328.5Q208 317 208 302Q208 286 201.5 273.5Q195 261 187 250Q182 243 177.0 236.0Q172 229 172 222Q172 215 176.5 209.0Q181 203 185 195Q193 184 199.5 171.5Q206 159 206 140Q206 119 200.5 103.0Q195 87 190 78L226 38L219 -4L246 -44ZM70 679Q76 698 87.0 718.0Q98 738 109 760Q114 768 120.5 779.0Q127 790 134 801Q152 828 167.0 859.5Q182 891 182 913Q182 935 176.5 949.0Q171 963 165 971Q164 961 162.0 947.5Q160 934 155 920Q151 910 144.0 895.5Q137 881 127 864Q113 838 98.0 808.0Q83 778 79 761Q75 743 73.0 721.5Q71 700 70 679ZM99 746 85 751 98 783 112 778ZM124 -24 133 21 160 54 189 28 185 -11 191 -24H208L199 -9L206 32L167 72Q172 80 179.0 99.0Q186 118 186 140Q186 154 180.5 164.0Q175 174 168 184Q163 192 158.0 200.5Q153 209 153 222Q153 234 158.5 243.5Q164 253 171 262Q178 271 183.5 281.0Q189 291 189 302Q189 313 184.0 322.5Q179 332 173 340Q166 351 159.5 362.0Q153 373 153 387Q153 401 159.0 412.0Q165 423 172 434Q179 444 184.5 455.5Q190 467 190 480Q190 495 184.5 505.0Q179 515 172 523Q165 533 158.5 543.0Q152 553 152 567Q152 581 157.5 592.5Q163 604 170 616Q178 629 184.5 644.0Q191 659 191 678Q191 696 180.5 714.0Q170 732 157.5 747.0Q145 762 137 769Q134 764 131.5 759.0Q129 754 127 750Q138 742 154.0 720.5Q170 699 170 678Q170 665 164.0 651.0Q158 637 151 623Q144 609 137.5 594.5Q131 580 131 567Q131 554 137.0 543.5Q143 533 150 522Q158 512 163.5 502.0Q169 492 169 480Q169 469 164.0 458.5Q159 448 151 436Q144 425 138.0 413.0Q132 401 132 387Q132 374 138.0 362.5Q144 351 151 340Q157 331 162.0 322.0Q167 313 167 302Q167 291 162.0 281.5Q157 272 149 261Q143 252 137.0 242.0Q131 232 131 222Q131 212 136.0 201.5Q141 191 147 182Q154 172 159.5 161.5Q165 151 165 140Q165 131 160.0 113.5Q155 96 149.5 80.5Q144 65 143 61L117 31L104 -23Z" />
  </g>
</svg>