<svg xmlns="http://www.w3.org/2000/svg" viewBox="49 -34 333 1035">
  <g transform="translate(0, 967) scale(1, -1)">
    <path fill="black" d="M216 -34Q209 -34 195.5 -29.5Q182 -25 182 0V426Q168 433 158.0 446.5Q148 460 146 480L144 497Q143 511 135.0 522.0Q127 533 113 533Q105 533 95.5 527.5Q86 522 75 522Q69 522 59.0 526.0Q49 530 49 543Q49 558 69 575Q78 582 91.5 589.5Q105 597 122 604Q124 618 128.5 649.5Q133 681 138.0 722.0Q143 763 146.5 806.0Q150 849 150 885Q150 922 145.5 947.5Q141 973 135 1001H301Q295 973 290.5 947.5Q286 922 286 885Q286 848 289.5 804.0Q293 760 298.5 718.5Q304 677 308.5 645.5Q313 614 315 602Q330 595 341.5 588.0Q353 581 361 575Q382 557 382 543Q382 530 372.0 526.0Q362 522 355 522Q345 522 335.5 527.5Q326 533 317 533Q304 533 296.0 522.0Q288 511 287 497L285 480Q284 460 274.0 447.0Q264 434 250 426V0Q250 -25 236.5 -29.5Q223 -34 216 -34ZM293 608Q290 626 286.0 658.0Q282 690 277.5 729.5Q273 769 270.0 809.5Q267 850 267 885Q267 924 271.0 947.5Q275 971 278 981H159Q161 971 165.5 947.5Q170 924 170 885Q170 850 167.0 810.0Q164 770 159.5 731.0Q155 692 150.5 660.0Q146 628 143 610Q175 619 215 619Q238 619 257.5 616.0Q277 613 293 608ZM215 438Q232 438 248.0 448.0Q264 458 266 480L267 500Q269 523 281.5 538.0Q294 553 313 553Q327 553 336.0 547.5Q345 542 355 542Q362 542 362 545Q362 548 349 560Q333 574 299.0 587.0Q265 600 215 600Q165 600 132.0 587.0Q99 574 82 560Q68 549 68 545Q68 544 71.0 543.0Q74 542 75 542Q85 542 95.0 547.5Q105 553 118 553Q138 553 150.0 538.0Q162 523 164 500L165 480Q167 458 182.5 448.0Q198 438 215 438ZM216 -15Q219 -15 224.5 -12.5Q230 -10 230 0V419Q226 418 222.5 418.0Q219 418 215 418Q211 418 208.0 418.5Q205 419 202 419V0Q202 -10 207.5 -12.5Q213 -15 216 -15Z" />
  </g>
</svg>