<svg xmlns="http://www.w3.org/2000/svg" viewBox="49 152 641 634">
  <g transform="translate(0, 938) scale(1, -1)">
    <path fill="black" d="M483 152Q472 152 451.0 153.5Q430 155 405.0 161.0Q380 167 357.0 180.5Q334 194 319.5 218.5Q305 243 305 282Q305 326 320.5 363.0Q336 400 354 432Q371 463 386.5 497.5Q402 532 402 575Q402 607 386.5 626.5Q371 646 341 646Q318 646 294.0 630.5Q270 615 247 568H49Q59 603 83.5 641.0Q108 679 147.5 712.0Q187 745 242.0 765.5Q297 786 367 786Q434 786 484.5 761.5Q535 737 570.5 696.5Q606 656 629.5 606.5Q653 557 666.0 506.5Q679 456 684.5 411.5Q690 367 690 337Q690 286 673.0 252.5Q656 219 630.0 198.5Q604 178 575.0 168.0Q546 158 521.5 155.0Q497 152 483 152ZM483 171Q495 171 517.5 174.0Q540 177 566.0 186.0Q592 195 616.0 213.0Q640 231 655.0 261.0Q670 291 670 337Q670 366 665.0 408.5Q660 451 647.5 499.5Q635 548 613.0 595.0Q591 642 557.5 681.0Q524 720 477.0 743.5Q430 767 367 767Q298 767 248.5 748.0Q199 729 165.0 700.0Q131 671 110.0 640.5Q89 610 78 588H236Q260 632 287.0 648.5Q314 665 341 665Q381 665 401.0 640.5Q421 616 421 575Q421 528 405.5 491.5Q390 455 371 422Q353 391 338.5 357.5Q324 324 324 282Q324 241 344.0 218.5Q364 196 391.5 186.0Q419 176 445.0 173.5Q471 171 483 171Z" />
  </g>
</svg>