<svg xmlns="http://www.w3.org/2000/svg" viewBox="49 156 1114 272">
  <g transform="translate(0, 584) scale(1, -1)">
    <path fill="black" d="M128 156Q117 156 111.5 170.0Q106 184 101 202Q98 214 95.0 225.5Q92 237 88 245Q83 255 70.5 269.0Q58 283 49 292Q58 301 70.5 315.0Q83 329 88 339Q92 347 95.0 358.5Q98 370 101 382Q106 400 111.5 414.0Q117 428 128 428Q136 428 145.5 420.0Q155 412 174 392Q197 367 217.0 354.5Q237 342 264 342Q270 342 290.5 343.0Q311 344 336.0 345.0Q361 346 381.0 347.0Q401 348 406 348L1056 373Q1061 373 1072.0 373.5Q1083 374 1092 374Q1106 374 1122.5 368.5Q1139 363 1151.0 346.0Q1163 329 1163 292Q1163 256 1151.0 238.5Q1139 221 1122.5 215.5Q1106 210 1092 210Q1083 210 1072.0 210.5Q1061 211 1056 211L406 236Q401 236 381.0 237.0Q361 238 336.0 239.0Q311 240 290.5 241.0Q270 242 264 242Q234 242 212.0 225.5Q190 209 174 192Q161 179 148.5 167.5Q136 156 128 156ZM129 178Q132 178 138.5 183.5Q145 189 160 206Q183 232 208.0 247.0Q233 262 264 262Q275 262 296.5 261.0Q318 260 342.0 259.0Q366 258 384.5 257.0Q403 256 407 256L1057 231Q1062 230 1073.0 230.0Q1084 230 1091 230Q1101 230 1113.0 234.0Q1125 238 1134.5 251.5Q1144 265 1144 292Q1144 320 1134.5 333.0Q1125 346 1113.0 350.0Q1101 354 1091 354Q1084 354 1073.0 354.0Q1062 354 1057 353L407 328Q403 328 384.5 327.0Q366 326 342.0 325.0Q318 324 296.5 323.0Q275 322 264 322Q233 322 208.0 337.0Q183 352 160 378Q145 395 138.5 400.5Q132 406 129 406Q128 406 125.5 398.0Q123 390 120 377Q116 364 113.0 351.5Q110 339 105 330Q99 319 90.5 308.5Q82 298 76 292Q81 286 90.0 275.5Q99 265 105 254Q110 245 113.0 232.5Q116 220 120 207Q123 194 125.5 186.0Q128 178 129 178Z" />
  </g>
</svg>