<svg xmlns="http://www.w3.org/2000/svg" viewBox="49 106 779 780">
  <g transform="translate(0, 992) scale(1, -1)">
    <path fill="black" d="M773 106Q748 106 724.5 128.0Q701 150 664 191L315 573Q310 570 301.0 568.0Q292 566 278 566Q256 566 223.5 575.0Q191 584 153.5 604.5Q116 625 80 661Q63 678 56.0 696.0Q49 714 49 731Q49 748 55.0 764.5Q61 781 68 794Q65 797 60.5 805.5Q56 814 56 826Q56 846 72.5 862.0Q89 878 110 878Q121 878 129.0 873.5Q137 869 141 867Q155 875 170.5 880.5Q186 886 204 886Q221 886 238.5 878.5Q256 871 273 854Q328 800 348.5 744.0Q369 688 369 651Q369 631 362 619L743 271Q784 234 806.0 209.5Q828 185 828 161Q828 143 810.5 124.5Q793 106 773 106ZM277 586Q307 586 316 597L339 619Q350 630 350 658Q350 691 330.5 740.0Q311 789 266 834Q248 852 232.5 859.0Q217 866 203 866Q178 866 152.5 850.5Q127 835 113 820Q113 820 101.5 807.5Q90 795 79.0 775.0Q68 755 68 731Q68 718 74.5 703.5Q81 689 94 675Q144 626 193.5 606.0Q243 586 277 586ZM80 812Q94 830 100 834Q99 834 106.0 840.5Q113 847 123 855Q120 857 116.5 858.0Q113 859 108 859Q98 859 87.0 848.0Q76 837 76 826Q76 818 80 812ZM773 126Q785 126 797.0 138.0Q809 150 809 162Q809 175 797.0 189.5Q785 204 768 221Q759 230 729.5 257.0Q700 284 658.0 322.5Q616 361 569.0 404.0Q522 447 478.0 487.5Q434 528 399.5 559.0Q365 590 349 604L330 585Q345 569 376.0 534.5Q407 500 447.5 456.0Q488 412 530.5 365.0Q573 318 611.5 276.0Q650 234 677.5 205.0Q705 176 713 167Q730 150 745.0 138.0Q760 126 773 126Z" />
  </g>
</svg>