<svg xmlns="http://www.w3.org/2000/svg" viewBox="49 -14 253 1014">
  <g transform="translate(0, 986) scale(1, -1)">
    <path fill="black" d="M175 -14Q138 -14 128.0 13.0Q118 40 118 85Q118 91 118.0 104.5Q118 118 119 137L142 651Q126 659 104.0 686.5Q82 714 65.5 759.5Q49 805 49 865Q49 896 61.0 915.0Q73 934 91.5 944.5Q110 955 127 959Q128 964 131.5 973.5Q135 983 145.0 991.5Q155 1000 175 1000Q195 1000 205.0 992.0Q215 984 219.0 974.0Q223 964 223 959Q241 955 259.5 944.5Q278 934 290.0 915.0Q302 896 302 865Q302 805 285.0 759.5Q268 714 246.0 686.5Q224 659 208 651L231 137Q232 118 232.5 104.5Q233 91 233 85Q233 40 223.0 13.0Q213 -14 175 -14ZM148 963Q157 964 164.5 964.5Q172 965 176 965Q175 965 183.0 965.0Q191 965 202 963Q201 969 195.0 975.0Q189 981 175 981Q162 981 156.0 975.0Q150 969 148 963ZM160 669H190Q205 669 226.5 693.0Q248 717 265.0 761.0Q282 805 282 865Q282 897 266.0 913.5Q250 930 229.5 936.5Q209 943 192.5 944.0Q176 945 176 945Q175 945 158.5 944.0Q142 943 121.0 936.5Q100 930 84.0 913.5Q68 897 68 865Q68 805 85.0 761.0Q102 717 124.0 693.0Q146 669 160 669ZM175 6Q202 6 207.5 27.5Q213 49 213 85Q213 97 211.5 136.5Q210 176 207.5 231.5Q205 287 202.5 350.0Q200 413 197.0 472.5Q194 532 192.0 579.0Q190 626 189 649H162Q161 627 158.5 580.5Q156 534 153.0 474.5Q150 415 147.5 352.0Q145 289 142.5 232.5Q140 176 138.5 136.5Q137 97 137 85Q137 49 143.0 27.5Q149 6 175 6Z" />
  </g>
</svg>