<svg xmlns="http://www.w3.org/2000/svg" viewBox="49 -5 571 1003">
  <g transform="translate(0, 993) scale(1, -1)">
    <path fill="black" d="M49 -5V316Q56 327 71.5 337.5Q87 348 108 348Q147 348 161.0 324.5Q175 301 184 271Q186 265 193.0 244.0Q200 223 213.5 198.5Q227 174 248.5 155.0Q270 136 301 132V663Q289 672 268.0 693.0Q247 714 230.0 746.0Q213 778 213 818Q213 876 238.5 901.5Q264 927 296 934V962Q296 970 304.0 984.0Q312 998 334 998Q357 998 365.0 984.0Q373 970 373 962V934Q405 927 430.5 901.5Q456 876 456 818Q456 778 439.0 746.0Q422 714 401.0 693.0Q380 672 368 663V132Q399 136 420.0 155.0Q441 174 455.0 198.5Q469 223 476.0 244.0Q483 265 485 271Q492 291 499.5 308.5Q507 326 521.0 337.0Q535 348 561 348Q582 348 597.5 337.5Q613 327 620 316V-5ZM316 937Q321 938 325.5 938.0Q330 938 334 938Q339 938 344.0 938.0Q349 938 353 937V962Q353 966 349.0 972.0Q345 978 334 978Q324 978 320.0 972.0Q316 966 316 962ZM68 14H601V308Q597 315 587.0 321.5Q577 328 561 328Q534 328 522.5 308.5Q511 289 503 265Q501 257 492.5 233.0Q484 209 467.0 181.0Q450 153 423.0 132.5Q396 112 357 112H349V673Q368 685 388.5 706.5Q409 728 423.0 757.0Q437 786 437 818Q437 860 421.0 881.5Q405 903 381.0 910.5Q357 918 334 918Q312 918 288.0 910.5Q264 903 248.0 881.5Q232 860 232 818Q232 785 245.0 759.0Q258 733 274.5 714.0Q291 695 305.0 684.5Q319 674 320 673V112H312Q273 112 246.0 132.5Q219 153 202.0 181.0Q185 209 176.5 233.0Q168 257 166 265Q159 289 147.0 308.5Q135 328 108 328Q92 328 82.0 321.5Q72 315 68 308Z" />
  </g>
</svg>