<svg xmlns="http://www.w3.org/2000/svg" viewBox="49 -14 452 1014">
  <g transform="translate(0, 986) scale(1, -1)">
    <path fill="black" d="M291 -14Q266 -14 256.0 -1.5Q246 11 245.0 33.0Q244 55 244 85Q244 91 244.5 104.5Q245 118 246 137L252 338Q242 327 239.0 310.5Q236 294 236 275Q236 258 233.5 233.0Q231 208 222.0 183.5Q213 159 194.0 142.5Q175 126 142 126Q106 126 86.0 144.0Q66 162 57.5 190.0Q49 218 49 247Q49 317 84.0 379.5Q119 442 186 473V521L259 548L263 651Q245 657 221.5 684.0Q198 711 181.0 757.5Q164 804 164 865Q164 896 176.5 915.0Q189 934 207.0 944.5Q225 955 243 959Q244 964 247.0 973.5Q250 983 260.5 991.5Q271 1000 291 1000Q311 1000 320.5 992.0Q330 984 334.0 974.0Q338 964 338 959Q356 955 374.5 944.5Q393 934 405.0 915.0Q417 896 417 865Q417 804 400.0 757.5Q383 711 360.0 684.0Q337 657 318 651L321 542Q334 541 346 536Q363 529 377.0 521.0Q391 513 398 508V463Q427 444 445.0 418.0Q463 392 474.0 367.5Q485 343 491 326Q499 302 500.0 290.5Q501 279 501 274Q501 255 490.0 251.5Q479 248 475 248Q462 248 453.5 256.0Q445 264 435 296Q428 320 413.5 348.0Q399 376 382 393Q371 404 357.5 413.0Q344 422 325 427L326 412Q363 401 384.0 369.5Q405 338 414.5 298.0Q424 258 424 218Q424 188 414.5 177.0Q405 166 392 166Q382 166 371.5 175.0Q361 184 361 215Q361 244 359.0 260.0Q357 276 354 285Q354 287 349.0 305.5Q344 324 329 338L335 137Q336 118 336.5 104.5Q337 91 337 85Q337 55 336.0 33.0Q335 11 325.5 -1.5Q316 -14 291 -14ZM264 963Q276 965 284.0 965.0Q292 965 291 965Q295 965 302.0 964.5Q309 964 317 963Q316 969 310.5 975.0Q305 981 291 981Q278 981 272.0 975.0Q266 969 264 963ZM275 669H305Q320 669 341.5 693.0Q363 717 380.0 761.0Q397 805 397 865Q397 897 381.0 913.5Q365 930 344.5 936.5Q324 943 307.5 944.0Q291 945 291 945Q291 945 274.5 944.0Q258 943 237.0 936.5Q216 930 200.0 913.5Q184 897 184 865Q184 805 200.5 761.0Q217 717 239.0 693.0Q261 669 275 669ZM302 546 298 649H282L279 548Q284 547 289.5 547.0Q295 547 302 546ZM379 474V500Q375 502 365.5 507.5Q356 513 342 518Q324 525 301.0 527.0Q278 529 263 529L205 507V481Q244 495 289 495Q316 495 338.0 489.5Q360 484 379 474ZM142 146Q168 146 183.0 160.5Q198 175 205.0 196.0Q212 217 214.0 238.5Q216 260 216 275Q216 314 230.5 343.5Q245 373 291 373Q318 373 334.0 361.0Q350 349 358.5 332.5Q367 316 370.5 303.5Q374 291 374 289Q376 280 378.5 263.5Q381 247 381 215Q381 196 384.5 191.0Q388 186 392 186Q397 186 401.0 192.5Q405 199 405 218Q405 259 394.5 300.5Q384 342 359.0 369.5Q334 397 290 397Q240 397 214.5 363.5Q189 330 189 278Q189 262 186.0 236.5Q183 211 173.5 191.5Q164 172 142 172Q92 172 92 248Q92 309 120.5 354.5Q149 400 193.5 425.5Q238 451 286 451Q327 451 352.5 438.0Q378 425 396 406Q415 387 430.0 357.0Q445 327 454 301Q461 279 465.5 273.0Q470 267 475 267Q477 267 479.5 268.5Q482 270 482 276Q482 279 480.5 289.0Q479 299 472 320Q466 337 454.5 363.0Q443 389 422.5 414.5Q402 440 369.5 457.5Q337 475 289 475Q218 475 168.5 442.0Q119 409 93.5 356.5Q68 304 68 247Q68 223 74.5 199.5Q81 176 97.5 161.0Q114 146 142 146ZM274 416Q278 417 282.0 417.0Q286 417 290 417Q294 417 298.5 417.0Q303 417 307 416V430Q302 431 296.5 431.0Q291 431 286 431H274ZM142 192Q155 192 160.5 208.0Q166 224 168.0 244.5Q170 265 170 278Q170 329 191.0 365.5Q212 402 255 413V428Q218 421 185.0 396.5Q152 372 132.0 334.0Q112 296 112 248Q112 192 142 192ZM291 6Q309 6 314.0 16.0Q319 26 318.0 43.5Q317 61 317 85Q317 97 316.0 136.0Q315 175 313.0 231.5Q311 288 309 350Q302 353 291 353Q280 353 271 350Q269 289 267.5 232.5Q266 176 265.0 136.5Q264 97 264 85Q264 61 263.5 43.5Q263 26 268.0 16.0Q273 6 291 6Z" />
  </g>
</svg>