<svg xmlns="http://www.w3.org/2000/svg" viewBox="49 -14 789 1014">
  <g transform="translate(0, 986) scale(1, -1)">
    <path fill="black" d="M520 -14Q482 -14 472.0 13.0Q462 40 462 85Q462 91 462.0 104.5Q462 118 463 137L482 566H472Q442 566 405.0 563.0Q368 560 331.0 555.5Q294 551 264.0 548.0Q234 545 219 545Q194 545 179.5 566.0Q165 587 165 624Q165 638 167.0 658.0Q169 678 174 696Q163 693 148.5 690.0Q134 687 119 687Q108 687 91.0 690.0Q74 693 61.5 703.0Q49 713 49 733Q49 758 67.5 773.0Q86 788 111.0 794.5Q136 801 156 801Q194 801 221.0 789.0Q248 777 248 745Q248 724 242.0 707.5Q236 691 236 676Q236 653 243.5 646.0Q251 639 261 639Q275 639 307.5 644.5Q340 650 382.0 656.5Q424 663 466 667Q442 690 417.5 741.0Q393 792 393 865Q393 896 405.5 915.0Q418 934 436.0 944.5Q454 955 472 959Q473 964 476.0 973.5Q479 983 489.5 991.5Q500 1000 520 1000Q540 1000 549.5 992.0Q559 984 563.0 974.0Q567 964 567 959Q585 955 603.5 944.5Q622 934 634.0 915.0Q646 896 646 865Q646 792 621.5 741.0Q597 690 573 667Q636 662 686.5 640.0Q737 618 766.0 572.0Q795 526 795 445Q795 399 783.0 350.0Q771 301 771 242Q771 164 789.5 109.0Q808 54 838 10L806 -14Q754 11 721.5 69.0Q689 127 689 204Q689 222 693.0 250.5Q697 279 701.0 309.0Q705 339 705 361Q705 462 671.0 506.5Q637 551 557 562L576 137Q577 118 577.0 104.5Q577 91 577 85Q577 40 567.5 13.0Q558 -14 520 -14ZM493 963Q505 965 513.0 965.0Q521 965 520 965Q524 965 531.0 964.5Q538 964 546 963Q545 969 539.5 975.0Q534 981 520 981Q507 981 501.0 975.0Q495 969 493 963ZM504 669H534Q549 669 570.5 693.0Q592 717 609.0 761.0Q626 805 626 865Q626 897 610.0 913.5Q594 930 573.5 936.5Q553 943 536.5 944.0Q520 945 520 945Q520 945 503.5 944.0Q487 943 466.0 936.5Q445 930 429.0 913.5Q413 897 413 865Q413 805 429.5 761.0Q446 717 468.0 693.0Q490 669 504 669ZM223 564Q245 564 285.5 569.5Q326 575 375.5 580.5Q425 586 472 586H483L486 648Q444 645 397.5 638.0Q351 631 313.5 625.0Q276 619 262 619Q237 619 226.5 633.5Q216 648 216 676Q216 683 219.0 697.0Q222 711 225.0 725.0Q228 739 228 745Q228 759 210.5 770.5Q193 782 156 782Q119 782 94.0 767.5Q69 753 69 732Q69 718 87.5 712.5Q106 707 119 707Q133 707 152.5 710.5Q172 714 186 719L196 702Q185 659 185 623Q185 600 193.5 582.0Q202 564 223 564ZM151 740Q135 740 135 754Q135 770 151 770Q166 770 166 754Q166 740 151 740ZM520 6Q546 6 552.0 27.5Q558 49 558 85Q558 97 556.5 136.5Q555 176 552.5 231.5Q550 287 547.5 350.0Q545 413 542.0 472.5Q539 532 536.5 579.0Q534 626 533 649H506Q505 627 502.5 580.5Q500 534 497.0 474.5Q494 415 491.5 352.0Q489 289 486.5 232.5Q484 176 482.5 136.5Q481 97 481 85Q481 49 487.0 27.5Q493 6 520 6ZM805 9 811 14Q777 70 764.5 123.0Q752 176 752 238Q752 299 763.5 351.0Q775 403 775 445Q775 519 747.5 562.0Q720 605 670.0 625.0Q620 645 553 648L556 581Q644 570 684.0 521.5Q724 473 724 362Q724 338 720.5 307.5Q717 277 713.0 248.0Q709 219 709 200Q709 142 734.0 90.0Q759 38 805 9Z" />
  </g>
</svg>