<svg xmlns="http://www.w3.org/2000/svg" viewBox="49 -23 908 1023">
  <g transform="translate(0, 977) scale(1, -1)">
    <path fill="black" d="M924 -23Q889 -7 863.0 35.5Q837 78 822.5 132.5Q808 187 808 238Q808 256 812.0 284.5Q816 313 819.5 343.0Q823 373 823 395Q823 451 797.5 485.5Q772 520 730.5 539.0Q689 558 639.5 566.0Q590 574 542 575L548 434Q612 430 663.5 411.5Q715 393 745.5 352.5Q776 312 776 242Q776 218 774.5 181.5Q773 145 783.5 99.0Q794 53 830 0L797 -22Q756 9 734.0 40.5Q712 72 702.5 101.0Q693 130 691.5 152.5Q690 175 690 188Q690 245 676.5 276.5Q663 308 633.0 322.5Q603 337 553 341L562 137Q563 118 563.0 104.5Q563 91 563 85Q563 40 553.5 13.0Q544 -14 506 -14Q468 -14 458.0 13.0Q448 40 448 85Q448 91 448.5 104.5Q449 118 450 137L459 344Q421 343 374.0 338.0Q327 333 286.5 328.0Q246 323 227 323Q203 323 182.0 339.5Q161 356 161 391Q161 405 162.5 428.0Q164 451 169 467Q159 465 145.5 462.0Q132 459 118 459Q107 459 91.0 462.5Q75 466 63.0 476.0Q51 486 51 505Q51 529 67.5 543.0Q84 557 108.0 563.0Q132 569 153 569Q188 569 214.0 554.0Q240 539 240 510Q240 489 234.5 476.5Q229 464 229 450Q229 428 240.0 417.0Q251 406 268 406Q281 406 312.0 411.0Q343 416 383.0 422.5Q423 429 463 432L469 576Q378 575 315.5 570.5Q253 566 224 566Q199 566 177.5 581.5Q156 597 156 634Q156 648 158.0 664.0Q160 680 166 697Q154 694 144.0 692.5Q134 691 119 691Q108 691 91.0 694.5Q74 698 61.5 708.0Q49 718 49 738Q49 763 65.0 778.0Q81 793 104.0 799.5Q127 806 147 806Q185 806 211.5 792.0Q238 778 238 746Q238 725 230.0 707.0Q222 689 222 668Q222 651 229.5 645.0Q237 639 248 639Q262 639 292.5 644.0Q323 649 365.0 655.5Q407 662 453 666Q428 689 403.5 740.5Q379 792 379 865Q379 896 391.5 915.0Q404 934 422.0 944.5Q440 955 458 959Q459 964 462.5 973.5Q466 983 476.0 991.5Q486 1000 506 1000Q526 1000 535.5 992.0Q545 984 549.0 974.0Q553 964 553 959Q571 955 589.5 944.5Q608 934 620.0 915.0Q632 896 632 865Q632 794 609.0 743.0Q586 692 562 668Q604 668 652.0 664.0Q700 660 746.5 649.5Q793 639 831.0 618.0Q869 597 891.5 563.0Q914 529 914 479Q914 433 902.0 384.0Q890 335 890 276Q890 224 898.5 171.5Q907 119 922.0 74.0Q937 29 957 0ZM479 963Q491 965 499.0 965.0Q507 965 506 965Q510 965 517.0 964.5Q524 964 533 963Q531 969 525.5 975.0Q520 981 506 981Q493 981 487.0 975.0Q481 969 479 963ZM491 669H521Q536 669 557.5 693.0Q579 717 596.0 761.0Q613 805 613 865Q613 897 597.0 913.5Q581 930 560.0 936.5Q539 943 523.0 944.0Q507 945 506 945Q506 945 489.5 944.0Q473 943 452.0 936.5Q431 930 415.0 913.5Q399 897 399 865Q399 805 416.0 761.0Q433 717 454.5 693.0Q476 669 491 669ZM228 586Q259 586 319.5 590.5Q380 595 470 596L473 647Q420 645 374.0 638.0Q328 631 295.5 625.0Q263 619 249 619Q224 619 213.5 632.5Q203 646 203 668Q203 679 207.0 695.0Q211 711 215.0 725.5Q219 740 219 746Q219 760 201.5 773.5Q184 787 147 787Q110 787 89.5 772.5Q69 758 69 737Q69 723 87.5 717.0Q106 711 119 711Q133 711 148.5 713.5Q164 716 177 721L188 704Q181 680 178.5 666.5Q176 653 176 633Q176 610 191.5 598.0Q207 586 228 586ZM135 743Q119 743 119 757Q119 772 135 772Q150 772 150 757Q150 743 135 743ZM506 6Q533 6 538.5 27.5Q544 49 544 85Q544 97 542.5 136.5Q541 176 538.5 231.5Q536 287 533.5 350.0Q531 413 528.0 472.5Q525 532 523.0 579.0Q521 626 520 649H492Q491 627 489.0 580.5Q487 534 484.0 474.5Q481 415 478.5 352.0Q476 289 473.5 232.5Q471 176 469.5 136.5Q468 97 468 85Q468 49 473.5 27.5Q479 6 506 6ZM923 0 929 4Q906 42 893.0 88.5Q880 135 875.0 183.0Q870 231 870 272Q870 333 882.0 385.0Q894 437 894 479Q894 525 871.0 555.5Q848 586 809.5 604.5Q771 623 724.0 632.5Q677 642 629.0 645.5Q581 649 539 649L541 595Q595 594 648.5 585.5Q702 577 745.5 556.0Q789 535 815.5 496.5Q842 458 842 396Q842 372 838.5 341.5Q835 311 831.0 282.0Q827 253 827 234Q827 195 838.0 147.5Q849 100 870.5 59.5Q892 19 923 0ZM231 343Q251 343 288.5 348.0Q326 353 371.0 358.0Q416 363 460 363L462 412Q424 409 383.5 402.5Q343 396 312.0 391.0Q281 386 269 386Q237 386 223.5 404.5Q210 423 210 450Q210 461 215.5 481.0Q221 501 221 510Q221 522 204.5 536.0Q188 550 153 550Q118 550 94.5 537.0Q71 524 71 504Q71 491 88.0 485.0Q105 479 118 479Q132 479 150.0 483.0Q168 487 181 491L191 475Q185 453 182.5 431.0Q180 409 180 390Q180 368 196.0 355.5Q212 343 231 343ZM140 509Q125 509 125 523Q125 537 140 537Q154 537 154 523Q154 509 140 509ZM797 0 804 4Q771 49 762.0 94.0Q753 139 755.0 175.0Q757 211 757 228Q757 298 731.5 337.0Q706 376 659.0 393.5Q612 411 549 414L552 360Q620 354 653.5 335.0Q687 316 698.0 280.5Q709 245 709 189Q709 173 712.5 144.0Q716 115 734.0 78.0Q752 41 797 0Z" />
  </g>
</svg>