<svg xmlns="http://www.w3.org/2000/svg" viewBox="49 143 1060 416">
  <g transform="translate(0, 702) scale(1, -1)">
    <path fill="black" d="M1078 143Q1062 143 1040.0 153.0Q1018 163 996 176Q995 177 970.5 192.0Q946 207 906.0 231.0Q866 255 816.0 283.0Q766 311 712.5 338.0Q659 365 608.5 387.5Q558 410 516 421Q506 401 486.5 375.0Q467 349 439.0 324.5Q411 300 377.0 284.0Q343 268 305 268Q260 268 228.5 284.0Q197 300 176.5 325.5Q156 351 144.0 379.0Q132 407 127.0 431.5Q122 456 120 470Q114 469 108.0 468.5Q102 468 94 468Q73 468 61.0 479.5Q49 491 49 507Q49 533 84.0 546.0Q119 559 195 559Q309 559 420.5 530.5Q532 502 638.0 456.0Q744 410 840.0 355.5Q936 301 1018 250Q1057 225 1083.0 205.0Q1109 185 1109 168Q1109 152 1097.5 147.5Q1086 143 1078 143ZM1077 163Q1089 163 1089 168Q1089 177 1068.5 192.5Q1048 208 1007 233Q923 285 830.0 339.0Q737 393 634.5 438.5Q532 484 422.0 512.0Q312 540 195 540Q129 540 98.5 532.0Q68 524 68 507Q68 501 75.0 494.0Q82 487 94 487Q99 487 106.0 487.5Q113 488 119 490Q125 497 141.5 500.5Q158 504 205 504Q247 504 296.5 498.5Q346 493 392.0 484.0Q438 475 473.0 463.5Q508 452 521 439Q578 423 643.5 393.5Q709 364 772.0 330.0Q835 296 887.5 265.0Q940 234 972.5 213.5Q1005 193 1007 192Q1027 179 1046.0 171.0Q1065 163 1077 163ZM305 288Q340 288 371.5 303.0Q403 318 429.0 341.0Q455 364 473.5 388.0Q492 412 499 430Q474 443 436.0 453.0Q398 463 355.5 470.0Q313 477 273.5 480.5Q234 484 205 484Q152 484 140 480Q140 479 142.5 461.0Q145 443 152.0 417.5Q159 392 174 366Q174 366 176 362Q194 332 225.0 310.0Q256 288 305 288Z" />
  </g>
</svg>