<svg xmlns="http://www.w3.org/2000/svg" viewBox="49 -14 344 1015">
  <g transform="translate(0, 987) scale(1, -1)">
    <path fill="black" d="M221 -14Q169 -14 169 100Q169 106 168.0 132.0Q167 158 165.0 197.0Q163 236 159.5 279.5Q156 323 151.5 364.0Q147 405 140 435Q115 544 99.0 607.0Q83 670 83 701Q83 731 103.0 741.5Q123 752 147 752H151Q154 762 161.0 784.0Q168 806 173.5 829.0Q179 852 179 864Q179 898 145 898Q134 898 112.5 892.0Q91 886 72.0 880.0Q53 874 49 872Q54 900 74.0 929.5Q94 959 130.5 980.0Q167 1001 221 1001Q276 1001 312.0 980.0Q348 959 368.0 929.5Q388 900 393 872Q389 874 370.0 880.0Q351 886 329.5 892.0Q308 898 297 898Q281 898 271.5 889.5Q262 881 262 864Q262 852 268.0 828.0Q274 804 281.0 782.0Q288 760 290 752H295Q321 752 340.0 740.0Q359 728 359 698Q359 667 343.5 605.5Q328 544 303 434Q296 403 290.5 362.0Q285 321 282.0 277.5Q279 234 277.0 196.0Q275 158 274.0 132.0Q273 106 273 100Q273 -14 221 -14ZM172 752H269Q265 765 259.0 786.5Q253 808 248.0 830.0Q243 852 243 864Q243 891 259.5 904.0Q276 917 297 917Q309 917 327.0 912.5Q345 908 360 903Q356 911 342.0 930.0Q328 949 299.5 965.0Q271 981 221 981Q172 981 142.5 965.0Q113 949 99.5 930.0Q86 911 82 903Q97 908 114.5 912.5Q132 917 145 917Q165 917 182.0 904.0Q199 891 199 864Q199 852 194.0 830.0Q189 808 182.5 786.5Q176 765 172 752ZM221 6Q233 6 243.5 28.0Q254 50 254 103Q254 109 255.0 135.5Q256 162 258.5 201.0Q261 240 264.5 284.0Q268 328 273.0 369.0Q278 410 284 440Q291 471 300.0 511.0Q309 551 318.0 590.0Q327 629 333.0 658.0Q339 687 339 695Q339 715 327.0 724.0Q315 733 295 733H147Q128 733 115.5 723.0Q103 713 103 694Q103 685 109.0 656.5Q115 628 124.0 590.0Q133 552 142.0 512.0Q151 472 158 441Q165 411 170.0 369.5Q175 328 178.5 283.5Q182 239 184.0 199.5Q186 160 187.0 133.5Q188 107 188 103Q188 50 199.0 28.0Q210 6 221 6Z" />
  </g>
</svg>