<svg xmlns="http://www.w3.org/2000/svg" viewBox="49 289 802 134">
  <g transform="translate(0, 712) scale(1, -1)">
    <path fill="black" d="M248 289Q203 289 167.0 304.0Q131 319 105.5 341.0Q80 363 65.5 385.5Q51 408 49 423H851Q849 408 834.5 385.5Q820 363 794.0 341.0Q768 319 732.0 304.0Q696 289 651 289Q607 289 566.5 298.0Q526 307 495.0 318.5Q464 330 450 337Q436 330 405.0 318.5Q374 307 333.5 298.0Q293 289 248 289ZM248 309Q295 309 338.0 320.0Q381 331 408 341V403H78Q88 384 111.0 362.0Q134 340 168.5 324.5Q203 309 248 309ZM428 349Q433 351 436.0 352.5Q439 354 440 355V403H428ZM472 349V403H459V355Q461 354 464.5 352.5Q468 351 472 349ZM651 309Q697 309 731.5 324.5Q766 340 789.0 362.0Q812 384 822 403H491V341Q519 331 562.0 320.0Q605 309 651 309Z" />
  </g>
</svg>