<svg xmlns="http://www.w3.org/2000/svg" viewBox="49 279 1101 158">
  <g transform="translate(0, 716) scale(1, -1)">
    <path fill="black" d="M979 279Q952 279 928.5 288.5Q905 298 891 313Q884 318 878 329H173L202 293L191 280L49 354L186 437L198 424L170 387H878Q882 395 891 404Q913 426 946.0 432.5Q979 439 1012.5 432.0Q1046 425 1067 404L1073 397L1132 419L1150 392L1118 372L1146 365L1147 342L1119 334L1150 314L1133 288L1065 311Q1051 297 1028.5 288.0Q1006 279 979 279ZM979 299Q1002 298 1021.0 306.0Q1040 314 1053 326Q1067 340 1067.5 358.0Q1068 376 1053 391Q1036 408 1007.5 413.5Q979 419 950.5 413.5Q922 408 904 391Q890 376 890.0 358.5Q890 341 905 326Q916 314 936.0 306.5Q956 299 979 299ZM1123 312 1089 337 1123 353 1089 369 1124 396 1083 380Q1092 353 1079 328ZM155 321Q148 329 143.0 335.5Q138 342 133 349H871V368H134L152 394L88 355Q102 349 110.0 345.0Q118 341 127.5 336.0Q137 331 155 321Z" />
  </g>
</svg>