<svg xmlns="http://www.w3.org/2000/svg" viewBox="49 182 810 815">
  <g transform="translate(0, 1179) scale(1, -1)">
    <path fill="black" d="M49 182 86 337 104 336 111 291 414 596 257 753Q248 750 237 750Q216 750 193.5 760.5Q171 771 151 790Q132 809 122.5 831.0Q113 853 113 874L49 905L56 937L92 928L77 954L95 969L119 953L110 991L143 997L169 939Q171 939 173.5 939.5Q176 940 178 940Q208 940 236.5 921.5Q265 903 283.5 874.5Q302 846 302 815Q302 803 299 794L454 637L609 794Q606 803 606 815Q606 846 624.5 874.5Q643 903 671.5 921.5Q700 940 730 940Q732 940 734.5 939.5Q737 939 739 939L765 997L797 991L789 953L813 969L831 954L816 928L852 937L859 905L795 874Q794 853 784.5 831.0Q775 809 756 790Q737 771 714.5 760.5Q692 750 671 750Q659 750 650 753L494 596L796 291L804 336L821 337L859 182L706 230L708 248L753 252L454 555L154 252L200 248L202 230ZM115 895Q124 923 150 935L132 975L137 931L102 944L115 909L73 915ZM792 895 835 915 793 909 806 944 771 931 775 975 757 935Q784 922 792 895ZM671 770Q709 770 743 804Q759 820 767.0 839.0Q775 858 775 875Q775 895 762.5 908.0Q750 921 729 921Q705 921 681.0 904.5Q657 888 641.0 864.0Q625 840 625 815Q625 795 638.0 782.5Q651 770 671 770ZM236 770Q257 770 270.0 782.5Q283 795 283 815Q283 840 267.0 864.0Q251 888 227.0 904.5Q203 921 178 921Q157 921 144.5 908.0Q132 895 132 875Q132 837 165 804Q182 788 201.0 779.0Q220 770 236 770ZM480 610 631 762 618 774 468 623ZM833 210 814 283 809 251 290 774 277 762 796 237Q787 236 778.5 235.0Q770 234 761 233Q780 228 790.0 224.5Q800 221 809.0 218.0Q818 215 833 210ZM75 210Q90 215 98.5 218.0Q107 221 117.5 224.5Q128 228 147 233Q137 234 129.0 235.0Q121 236 112 237L440 569L427 582L115 268L99 251L93 283Z" />
  </g>
</svg>