<svg xmlns="http://www.w3.org/2000/svg" viewBox="49 0 796 802">
  <g transform="translate(0, 802) scale(1, -1)">
    <path fill="black" d="M359 0Q346 0 323.5 3.5Q301 7 274.5 18.0Q248 29 224.0 51.5Q200 74 184.5 112.5Q169 151 169 210Q169 261 190.0 313.5Q211 366 246.5 417.5Q282 469 324 515Q302 540 284.5 558.0Q267 576 257 586Q236 585 201.5 590.5Q167 596 132.0 610.0Q97 624 73.0 650.0Q49 676 49 717Q49 754 66.5 772.0Q84 790 106.0 796.0Q128 802 142 802Q251 802 303 625Q305 622 311.0 616.0Q317 610 324 602L364 557Q411 603 457.5 640.5Q504 678 543.0 703.5Q582 729 604 738L647 658Q659 650 679.5 634.5Q700 619 721.0 593.5Q742 568 756.5 531.5Q771 495 771 445Q771 429 770.5 410.0Q770 391 766 373L845 197L788 174L711 348Q677 361 647.0 393.5Q617 426 598.5 470.0Q580 514 580 561Q580 590 582.5 606.5Q585 623 589 638L579 659Q549 640 501.0 601.0Q453 562 403 511Q438 469 471.0 418.0Q504 367 526.0 314.0Q548 261 548 210Q548 151 533.0 112.5Q518 74 494.0 51.5Q470 29 443.5 18.0Q417 7 394.5 3.5Q372 0 359 0ZM337 529Q341 533 344.0 536.5Q347 540 351 543Q339 557 328.5 568.5Q318 580 310 588Q302 597 296.0 604.0Q290 611 286 616Q261 701 226.5 742.0Q192 783 142 783Q131 783 113.5 778.0Q96 773 82.0 759.0Q68 745 68 717Q68 682 91.5 659.5Q115 637 148.5 624.5Q182 612 215.0 607.5Q248 603 266 604L274 595Q284 586 300.5 569.0Q317 552 337 529ZM253 615Q237 615 208.0 620.0Q179 625 149.5 636.5Q120 648 99.5 667.5Q79 687 79 716Q79 738 90.0 750.5Q101 763 116.0 768.0Q131 773 144 773Q181 773 214.5 739.5Q248 706 268 638L274 615ZM248 634Q229 696 201.0 724.5Q173 753 144 753Q130 753 114.0 745.5Q98 738 98 716Q98 694 115.5 679.0Q133 664 158.0 654.5Q183 645 208.0 640.0Q233 635 248 634ZM359 20Q370 20 390.5 23.0Q411 26 434.5 36.0Q458 46 479.5 66.5Q501 87 514.5 122.0Q528 157 528 210Q528 260 507.5 311.0Q487 362 455.0 410.0Q423 458 390 498L376 483Q408 445 437.5 399.0Q467 353 486.0 305.0Q505 257 505 210Q505 151 483.0 113.5Q461 76 427.5 59.0Q394 42 358 42Q322 42 288.0 59.0Q254 76 232.5 113.5Q211 151 211 210Q211 258 232.0 308.0Q253 358 288.5 407.0Q324 456 366.0 500.5Q408 545 450.5 582.0Q493 619 529.0 646.0Q565 673 587 687L609 641Q605 625 602.5 608.0Q600 591 600 560Q600 517 618.0 475.5Q636 434 664.5 404.0Q693 374 726 363L798 198L819 208L747 370Q750 390 750.5 407.0Q751 424 751 445Q751 491 737.0 525.5Q723 560 702.5 583.5Q682 607 662.5 622.0Q643 637 632 644L596 713Q573 701 534.0 674.0Q495 647 449.0 608.5Q403 570 357.0 522.5Q311 475 272.5 423.0Q234 371 211.0 317.0Q188 263 188 210Q188 157 202.0 122.0Q216 87 237.5 66.5Q259 46 282.5 36.0Q306 26 327.0 23.0Q348 20 359 20ZM734 370Q689 386 661.0 421.5Q633 457 620.5 496.5Q608 536 608 563Q608 588 612.0 606.5Q616 625 620 639Q669 613 695.5 578.5Q722 544 732.5 507.5Q743 471 743 438Q743 425 741.5 405.0Q740 385 734 370ZM721 397Q724 417 724 435Q724 478 703.5 527.0Q683 576 632 609Q631 602 629.5 593.0Q628 584 628 563Q628 542 638.0 509.0Q648 476 669.0 445.0Q690 414 721 397ZM358 62Q389 62 418.0 77.0Q447 92 466.5 125.0Q486 158 486 210Q486 253 468.0 298.5Q450 344 422.0 387.5Q394 431 363 469Q309 408 270.0 340.0Q231 272 231 210Q231 158 250.0 125.0Q269 92 298.0 77.0Q327 62 358 62Z" />
  </g>
</svg>