<svg xmlns="http://www.w3.org/2000/svg" viewBox="49 -34 338 1035">
  <g transform="translate(0, 967) scale(1, -1)">
    <path fill="black" d="M110 -34 49 -6 298 554Q317 596 317 611Q317 619 316.0 628.5Q315 638 308 663L224 980L290 1001L378 666Q383 646 385.0 634.5Q387 623 387 611Q387 598 382.5 584.0Q378 570 366 542ZM101 -8 351 555Q359 572 363.0 585.5Q367 599 367 611Q367 619 364.0 635.0Q361 651 358 663L276 976L247 967L328 666Q333 647 334.5 634.5Q336 622 336 611Q336 601 331.5 585.5Q327 570 315 543L75 3Z" />
  </g>
</svg>