<svg xmlns="http://www.w3.org/2000/svg" viewBox="49 146 1100 410">
  <g transform="translate(0, 702) scale(1, -1)">
    <path fill="black" d="M474 146Q404 146 346.5 170.0Q289 194 243.5 230.5Q198 267 165.5 305.5Q133 344 113.5 374.5Q94 405 88 416Q81 430 71.5 451.5Q62 473 55.5 493.5Q49 514 49 524Q49 544 56.5 550.0Q64 556 74 556Q85 556 93.5 545.5Q102 535 120 506Q131 488 149.5 459.0Q168 430 195.5 397.5Q223 365 261.5 336.0Q300 307 351.0 288.5Q402 270 468 270Q524 270 569.5 287.5Q615 305 650.0 332.0Q685 359 709.5 387.0Q734 415 748.5 436.5Q763 458 767 465Q787 465 816.0 466.5Q845 468 862 469Q891 471 930.5 480.0Q970 489 1011.5 500.5Q1053 512 1089.0 523.0Q1125 534 1149 541V320Q1121 328 1083.0 337.0Q1045 346 1006.0 352.0Q967 358 936 358Q905 358 870.0 352.0Q835 346 814 340Q769 282 722.0 238.0Q675 194 616.0 170.0Q557 146 474 146ZM474 165Q544 165 594.0 183.0Q644 201 681.0 229.5Q718 258 747.0 292.0Q776 326 803 357Q824 364 861.5 370.5Q899 377 936 377Q961 377 996.0 372.0Q1031 367 1067.0 360.0Q1103 353 1130 346V515Q1111 509 1078.0 499.0Q1045 489 1006.5 478.5Q968 468 930.5 459.5Q893 451 864 449Q846 448 820.5 447.0Q795 446 778 445Q767 427 743.0 395.0Q719 363 681.0 329.5Q643 296 590.0 273.0Q537 250 468 250Q399 250 345.0 269.0Q291 288 250.5 318.0Q210 348 181.0 382.0Q152 416 133.5 446.0Q115 476 104 495Q102 499 95.5 509.0Q89 519 83.0 528.0Q77 537 74 537Q68 537 68 524Q68 516 74.5 497.0Q81 478 90.0 457.5Q99 437 105 424Q110 415 128.0 386.0Q146 357 177.5 319.5Q209 282 252.5 247.0Q296 212 351.5 188.5Q407 165 474 165Z" />
  </g>
</svg>