<svg xmlns="http://www.w3.org/2000/svg" viewBox="49 -34 270 1019">
  <g transform="translate(0, 951) scale(1, -1)">
    <path fill="black" d="M235 -34Q221 -34 208.0 -9.5Q195 15 195 57Q195 73 199.5 102.0Q204 131 210.5 163.5Q217 196 223 221Q210 223 199.5 230.5Q189 238 189 254Q189 267 181.0 273.5Q173 280 166 284Q160 288 156.0 291.0Q152 294 152 299Q152 304 165.5 314.0Q179 324 208 328V395Q200 405 179.0 418.0Q158 431 125.5 441.5Q93 452 49 452V602Q49 654 58.0 714.0Q67 774 88.0 830.5Q109 887 144 928Q167 956 199.5 970.5Q232 985 255 985Q273 985 289.5 977.5Q306 970 306 953Q306 940 296.5 934.0Q287 928 271 921Q215 896 183.5 839.5Q152 783 152 688Q152 626 170.0 578.5Q188 531 213.5 499.5Q239 468 263 454V328Q292 324 305.5 314.0Q319 304 319 299Q319 294 315.0 291.0Q311 288 305 284Q298 280 289.5 273.5Q281 267 281 254Q281 238 271.0 230.5Q261 223 248 221Q254 196 260.0 163.5Q266 131 270.5 102.0Q275 73 275 57Q275 15 262.5 -9.5Q250 -34 235 -34ZM228 330H243V443Q236 448 218.5 463.5Q201 479 181.0 508.5Q161 538 146.5 582.5Q132 627 132 688Q132 789 167.5 850.5Q203 912 264 939Q273 944 279.5 947.0Q286 950 286 953Q286 959 276.0 962.0Q266 965 255 965Q235 965 207.5 952.5Q180 940 158 915Q123 874 103.5 817.0Q84 760 76.0 702.0Q68 644 68 600V470Q117 467 149.5 453.5Q182 440 201.0 425.5Q220 411 228 402ZM235 239Q243 239 252.5 244.0Q262 249 262 260Q262 276 273.0 285.0Q284 294 293 299Q294 300 278.0 305.5Q262 311 235 311Q209 311 194.0 306.0Q179 301 177 299Q186 294 197.5 285.0Q209 276 209 260Q209 249 218.5 244.0Q228 239 235 239ZM235 -14Q243 -14 249.5 5.0Q256 24 256 57Q256 69 252.5 92.5Q249 116 244.5 143.5Q240 171 235 193Q231 175 226.5 149.0Q222 123 218.5 98.0Q215 73 215 57Q215 24 221.5 5.0Q228 -14 235 -14Z" />
  </g>
</svg>