<svg xmlns="http://www.w3.org/2000/svg" viewBox="49 0 1352 1001">
  <g transform="translate(0, 1001) scale(1, -1)">
    <path fill="black" d="M1169 0Q1113 0 1065.5 24.0Q1018 48 985.5 90.0Q953 132 942 185L782 231L799 295L271 438Q259 407 233.5 377.0Q208 347 186 329L59 425L49 471H98L180 424Q199 444 207.0 474.5Q215 505 215 534Q215 541 213.0 550.5Q211 560 209 567Q189 563 166.5 558.5Q144 554 124 550L81 583L117 610L251 653Q257 646 266.0 625.5Q275 605 282.0 578.0Q289 551 289 521Q289 518 289.0 513.0Q289 508 288 504L816 362L866 552Q870 566 881.5 592.0Q893 618 915 645Q889 664 861.0 683.5Q833 703 801 725Q733 771 700.0 809.0Q667 847 667 896Q667 920 680.5 944.5Q694 969 721.0 985.0Q748 1001 787 1001Q825 1001 851.0 991.0Q877 981 899.0 957.5Q921 934 945 893L1049 719Q1062 721 1076.0 722.5Q1090 724 1106 724Q1148 724 1177.5 716.5Q1207 709 1241 696L1372 645Q1362 617 1347.5 578.5Q1333 540 1318.5 500.5Q1304 461 1292 429Q1341 398 1371.0 346.0Q1401 294 1401 232Q1401 168 1369.5 115.5Q1338 63 1285.5 31.5Q1233 0 1169 0ZM929 659Q947 677 972.0 691.5Q997 706 1029 714L928 883Q897 936 866.0 958.5Q835 981 787 981Q738 981 712.5 953.0Q687 925 687 896Q687 853 718.0 818.5Q749 784 814 739Q845 719 873.5 699.5Q902 680 929 659ZM1274 438Q1285 468 1298.5 504.0Q1312 540 1324.5 574.5Q1337 609 1346 633L1231 678Q1200 690 1171.5 697.0Q1143 704 1106 704Q1081 704 1060 701L1203 461Q1223 459 1240.5 453.0Q1258 447 1274 438ZM1125 459Q1136 461 1147.0 462.5Q1158 464 1169 464Q1171 464 1174.0 464.0Q1177 464 1180 463L1040 697Q1009 690 985.0 677.0Q961 664 944 647Q976 622 1008.0 592.5Q1040 563 1073 523Q1084 510 1097.5 493.5Q1111 477 1125 459ZM938 206Q938 212 937.5 218.5Q937 225 937 232Q937 285 958.5 330.5Q980 376 1018.0 408.5Q1056 441 1104 455Q1092 471 1080.0 485.5Q1068 500 1057 513Q1029 548 997.5 577.0Q966 606 930 633Q910 610 899.5 586.0Q889 562 884 545L806 245ZM804 314 812 343 267 490Q268 501 268.5 509.0Q269 517 269 521Q269 559 260.0 588.5Q251 618 244 630L125 593L113 583Q117 580 120.5 577.5Q124 575 128 571L223 590Q227 579 230.5 562.5Q234 546 234 534Q234 499 223.0 462.5Q212 426 183 400L94 451H73Q75 447 75.5 443.5Q76 440 77 436Q105 415 131.5 395.0Q158 375 186 354Q206 371 227.0 399.5Q248 428 258 461ZM1169 20Q1228 20 1276.0 48.5Q1324 77 1352.5 125.5Q1381 174 1381 232Q1381 291 1352.5 339.0Q1324 387 1276.0 415.5Q1228 444 1169 444Q1111 444 1062.5 415.5Q1014 387 985.5 339.0Q957 291 957 232Q957 174 985.5 125.5Q1014 77 1062.5 48.5Q1111 20 1169 20ZM1169 43Q1117 43 1074.5 68.5Q1032 94 1006.5 136.5Q981 179 981 231Q981 283 1006.5 326.0Q1032 369 1074.5 394.5Q1117 420 1169 420Q1221 420 1263.5 394.5Q1306 369 1331.5 326.0Q1357 283 1357 231Q1357 179 1331.5 136.5Q1306 94 1263.5 68.5Q1221 43 1169 43ZM1212 344 1229 381 1223 392Q1197 400 1169 400Q1180 386 1191.0 371.5Q1202 357 1212 344ZM1164 262H1172L1204 327L1148 399Q1124 396 1103 387ZM1195 248 1331 279Q1313 344 1253 378L1291 315Q1278 303 1262.5 290.0Q1247 277 1244 276Q1242 278 1234.5 287.5Q1227 297 1217 310L1189 254ZM1144 248Q1145 250 1147 252L1086 378Q1058 362 1037.0 336.5Q1016 311 1007 279ZM1245 300Q1241 296 1249.5 303.5Q1258 311 1267 319L1241 361L1225 327Q1230 320 1235.5 313.0Q1241 306 1245 300ZM1309 137Q1323 157 1330.5 181.0Q1338 205 1338 231Q1338 246 1335 261L1200 229Q1200 228 1199.5 227.0Q1199 226 1199 225ZM1030 136 1140 224Q1139 226 1139 229L1003 260Q1000 245 1000 231Q1000 179 1030 136ZM1169 221Q1180 221 1180 231Q1180 243 1169 243Q1158 243 1158 231Q1158 221 1169 221ZM1179 63Q1214 65 1244.5 80.5Q1275 96 1297 121L1188 208Q1185 205 1179 203ZM1159 63V203Q1156 204 1150 208L1042 121Q1086 68 1159 63Z" />
  </g>
</svg>