<svg xmlns="http://www.w3.org/2000/svg" viewBox="49 -34 251 1043">
  <g transform="translate(0, 975) scale(1, -1)">
    <path fill="black" d="M233 -34V263L87 101L73 113L213 271H49V634H233L73 813L87 826L233 664V877Q233 902 217.5 923.0Q202 944 153 944Q129 944 110.5 938.0Q92 932 86 929L68 992Q76 996 98.0 1002.5Q120 1009 153 1009Q191 1009 224.5 997.0Q258 985 279.0 956.0Q300 927 300 877V-34ZM252 -14H281V877Q281 920 262.5 944.5Q244 969 215.0 979.0Q186 989 153 989Q131 989 115.5 986.0Q100 983 92 980L99 956Q107 958 120.5 961.0Q134 964 153 964Q210 964 231.0 937.0Q252 910 252 877ZM233 492V614H88ZM68 473H226L68 606ZM233 315V453H70ZM68 290H232L68 429Z" />
  </g>
</svg>