<svg xmlns="http://www.w3.org/2000/svg" viewBox="49 -34 208 1035">
  <g transform="translate(0, 967) scale(1, -1)">
    <path fill="black" d="M223 -34Q216 -34 202.5 -29.5Q189 -25 189 0V297Q185 305 170.0 327.5Q155 350 124 376Q95 402 81.5 412.5Q68 423 68 438Q68 452 78.0 460.0Q88 468 100 468Q113 468 127.5 458.0Q142 448 154 436Q164 426 172.5 417.0Q181 408 189 399V479Q157 490 127.0 513.0Q97 536 76 570Q60 596 57.0 616.5Q54 637 54 650Q54 673 64.5 681.0Q75 689 86 689Q98 689 106.0 681.5Q114 674 122 646Q126 635 131.5 618.5Q137 602 150.5 585.0Q164 568 189 557V882H83Q58 882 53.5 895.5Q49 909 49 916Q49 923 53.5 936.5Q58 950 83 950H189V967Q189 992 202.5 996.5Q216 1001 223 1001Q230 1001 243.5 996.5Q257 992 257 967V0Q257 -25 243.5 -29.5Q230 -34 223 -34ZM223 -15Q226 -15 231.5 -12.5Q237 -10 237 0V967Q237 977 231.5 979.5Q226 982 223 982Q220 982 214.5 979.5Q209 977 209 967V0Q209 -10 214.5 -12.5Q220 -15 223 -15ZM83 902H189V930H83Q73 930 70.5 924.5Q68 919 68 916Q68 913 70.5 907.5Q73 902 83 902ZM189 500V537Q158 548 141.0 567.0Q124 586 116.0 606.5Q108 627 104 640Q102 647 98.5 658.0Q95 669 86 669Q82 669 77.5 665.5Q73 662 73 649Q73 614 90.0 584.5Q107 555 133.5 533.0Q160 511 189 500ZM189 333V371Q181 382 168.0 395.0Q155 408 139 424Q129 433 118.5 441.0Q108 449 100 449Q88 449 88 438Q88 432 100.0 422.5Q112 413 137 391Q154 376 167.0 360.5Q180 345 189 333Z" />
  </g>
</svg>