<svg xmlns="http://www.w3.org/2000/svg" viewBox="49 141 1297 523">
  <g transform="translate(0, 805) scale(1, -1)">
    <path fill="black" d="M244 141 78 262Q70 268 59.5 278.0Q49 288 49 305Q49 320 61.0 331.0Q73 342 96 342H354V395H645L820 548Q815 554 811.0 563.0Q807 572 807 585Q807 603 820.0 621.5Q833 640 855.0 652.0Q877 664 902 664Q910 664 925.0 660.5Q940 657 952.5 645.5Q965 634 965 609Q965 592 952.0 573.5Q939 555 917.5 542.5Q896 530 870 530Q865 530 856.0 531.5Q847 533 837 537L675 395H880V342H1346V273H880V220H354V273H172L257 153ZM870 550Q900 550 923.0 570.0Q946 590 946 609Q946 625 937.5 632.5Q929 640 918.5 642.5Q908 645 902 645Q873 645 850.0 625.0Q827 605 827 585Q827 569 835.5 561.5Q844 554 854.5 552.0Q865 550 870 550ZM206 192 149 273 159 292H373V240H861V292H1326V322H861V375H373V322H96Q83 322 75.5 317.0Q68 312 68 305Q68 296 76.0 289.5Q84 283 89 278Z" />
  </g>
</svg>