<svg xmlns="http://www.w3.org/2000/svg" viewBox="49 0 355 1001">
  <g transform="translate(0, 1001) scale(1, -1)">
    <path fill="black" d="M155 0 188 100Q175 111 156.5 133.5Q138 156 123.5 193.0Q109 230 109 283Q109 340 126.0 383.0Q143 426 168 451L83 510Q67 521 58.0 530.5Q49 540 49 553Q49 560 55.0 570.5Q61 581 79 581Q93 581 105.5 573.5Q118 566 131 556L188 517L118 1001H335L266 517L322 556Q336 566 348.0 573.5Q360 581 374 581Q392 581 398.0 570.5Q404 560 404 553Q404 540 395.5 530.5Q387 521 370 510L285 451Q311 426 327.5 383.0Q344 340 344 283Q344 230 329.5 193.0Q315 156 296.5 133.5Q278 111 265 100L298 0ZM213 477Q216 478 219.5 478.0Q223 478 227 478Q230 478 233.0 478.0Q236 478 240 477L313 981H140Q158 855 176.5 729.0Q195 603 213 477ZM183 464Q186 466 188.5 467.5Q191 469 194 470L191 490L120 541Q111 546 100.5 553.5Q90 561 82 561Q74 561 71.0 557.5Q68 554 68 551Q68 546 75.5 540.0Q83 534 94 526ZM270 464 359 526Q370 534 377.5 540.0Q385 546 385 551Q385 554 382.5 557.5Q380 561 372 561Q364 561 353.0 553.5Q342 546 333 541L262 490L259 470Q261 469 264.0 467.5Q267 466 270 464ZM183 20H271L242 107Q254 116 273.5 137.0Q293 158 309.0 194.0Q325 230 325 283Q325 336 310.5 375.0Q296 414 273.5 436.0Q251 458 227 458Q203 458 180.5 436.0Q158 414 143.0 375.0Q128 336 128 283Q128 230 144.0 194.0Q160 158 180.0 137.0Q200 116 211 107Z" />
  </g>
</svg>