<svg xmlns="http://www.w3.org/2000/svg" viewBox="49 137 985 818">
  <g transform="translate(0, 1092) scale(1, -1)">
    <path fill="black" d="M303 137Q293 137 278.0 145.5Q263 154 263 179Q263 201 281.0 228.5Q299 256 323 280L357 314Q350 319 343.0 325.0Q336 331 329 337L283 284Q262 260 239.5 238.0Q217 216 191 216Q186 216 175.0 218.5Q164 221 155.0 230.0Q146 239 146 256Q146 282 174.5 305.0Q203 328 243 346L298 371Q293 377 288.5 384.0Q284 391 279 397L225 361Q195 340 175.0 329.5Q155 319 132 318Q115 318 99.5 328.5Q84 339 84 358Q84 388 119.5 406.0Q155 424 202 431L258 440Q254 451 251.0 460.0Q248 469 245 479L188 455Q160 442 141.0 435.0Q122 428 104 428Q84 428 66.5 438.5Q49 449 49 471Q49 491 64.5 503.0Q80 515 102.0 520.5Q124 526 145.5 527.0Q167 528 179 528L237 526Q237 531 236.5 536.5Q236 542 236 546Q236 551 236.5 556.0Q237 561 237 565L179 564Q167 564 145.5 565.0Q124 566 102.0 571.5Q80 577 64.5 588.5Q49 600 49 621Q49 643 66.5 653.5Q84 664 104 664Q122 664 141.0 656.5Q160 649 188 637L245 613Q248 622 251.0 631.5Q254 641 258 651L202 661Q155 669 119.5 686.5Q84 704 84 733Q84 753 99.5 763.0Q115 773 132 773Q155 773 175.0 762.0Q195 751 225 731L279 694Q284 701 288.5 707.5Q293 714 298 721L243 746Q203 764 174.5 787.5Q146 811 146 836Q146 854 155.0 862.5Q164 871 175.0 873.5Q186 876 191 876Q217 876 239.5 853.5Q262 831 283 808L329 755Q342 766 357 777L323 812Q299 836 281.0 863.5Q263 891 263 913Q263 938 278.0 946.5Q293 955 303 955Q327 955 341.5 939.5Q356 924 365.5 901.0Q375 878 383 854L402 803Q433 817 472.0 825.0Q511 833 558 833Q571 833 583.5 833.0Q596 833 608 832Q669 854 729.5 865.5Q790 877 836.5 881.5Q883 886 902 886Q962 886 990.0 873.0Q1018 860 1026.0 843.0Q1034 826 1034 813Q1034 788 1010.5 764.5Q987 741 932 741Q896 741 865.5 750.5Q835 760 805 770Q770 782 724.0 795.0Q678 808 610 813Q551 792 499.5 757.0Q448 722 417.0 670.5Q386 619 386 546Q386 473 417.0 421.5Q448 370 499.5 335.5Q551 301 610 279Q678 284 724.0 297.0Q770 310 805 322Q835 332 865.5 341.5Q896 351 932 351Q987 351 1010.5 327.5Q1034 304 1034 279Q1034 266 1026.0 249.0Q1018 232 990.5 219.0Q963 206 904 206Q884 206 837.0 210.5Q790 215 729.5 226.5Q669 238 608 260Q596 259 583.5 258.5Q571 258 558 258Q511 258 472.0 266.5Q433 275 402 289L383 237Q375 214 365.5 191.0Q356 168 341.5 152.5Q327 137 303 137ZM374 788 384 794 365 849Q355 879 341.5 907.0Q328 935 306 935Q299 935 290.5 931.0Q282 927 282 913Q282 896 298.5 871.5Q315 847 337 825ZM932 761Q977 761 996.0 778.0Q1015 795 1015 813Q1015 822 1008.0 834.5Q1001 847 977.5 856.5Q954 866 904 866Q888 866 850.0 862.5Q812 859 761.5 850.5Q711 842 658 827Q709 820 745.0 809.5Q781 799 812 788Q842 778 870.0 769.5Q898 761 932 761ZM311 737 315 741 268 796Q250 817 230.0 836.5Q210 856 191 856Q186 856 176.0 852.0Q166 848 166 834Q166 816 192.5 797.5Q219 779 250 764ZM563 278Q509 302 464.5 337.5Q420 373 393.0 424.5Q366 476 366 546Q366 616 393.0 667.5Q420 719 464.5 755.0Q509 791 563 814Q489 814 436.0 794.5Q383 775 348.0 744.0Q313 713 293.0 676.5Q273 640 264.5 605.5Q256 571 256 546Q256 521 264.5 486.0Q273 451 293.0 415.0Q313 379 348.0 348.0Q383 317 436.0 297.5Q489 278 563 278ZM267 669Q268 671 268.5 673.0Q269 675 270 677L214 715Q186 735 170.5 743.0Q155 751 146.5 752.5Q138 754 131 754Q127 754 115.5 750.5Q104 747 104 733Q104 719 120.0 708.5Q136 698 159.5 691.0Q183 684 205 680ZM179 583 240 585 241 593 167 625Q136 639 123.5 641.5Q111 644 103 644Q98 644 83.0 640.5Q68 637 68 621Q68 608 80.5 600.5Q93 593 111.5 589.0Q130 585 148.5 584.0Q167 583 179 583ZM103 448Q111 448 123.5 450.5Q136 453 167 466L241 498L240 506L179 508Q167 508 148.5 507.5Q130 507 111.5 503.0Q93 499 80.5 491.5Q68 484 68 471Q68 455 83.0 451.5Q98 448 103 448ZM131 338Q138 338 146.5 339.5Q155 341 170.5 349.0Q186 357 214 376L270 415Q268 419 267 422L205 412Q183 408 159.5 401.0Q136 394 120.0 383.5Q104 373 104 359Q104 345 115.5 341.5Q127 338 131 338ZM191 235Q210 235 230.0 255.0Q250 275 268 296L315 351L311 355L250 328Q219 313 192.5 294.5Q166 276 166 257Q166 244 176.0 239.5Q186 235 191 235ZM904 226Q954 226 977.5 235.5Q1001 245 1008.0 257.5Q1015 270 1015 279Q1015 297 996.0 314.0Q977 331 932 331Q898 331 870.0 322.5Q842 314 812 304Q781 294 745.0 283.0Q709 272 658 265Q711 250 761.5 241.5Q812 233 850.0 229.5Q888 226 904 226ZM306 157Q328 157 341.5 185.0Q355 213 365 243L384 297L374 304L337 267Q315 245 298.5 220.5Q282 196 282 179Q282 166 290.5 161.5Q299 157 306 157Z" />
  </g>
</svg>