<svg xmlns="http://www.w3.org/2000/svg" viewBox="49 0 528 998">
  <g transform="translate(0, 998) scale(1, -1)">
    <path fill="black" d="M49 0 103 132H91Q87 132 75.0 137.0Q63 142 63 163Q63 183 75.0 188.0Q87 193 91 193H114Q106 231 102.5 266.5Q99 302 99 341Q99 375 107.5 424.0Q116 473 135.0 530.5Q154 588 185.0 647.0Q216 706 262 760Q253 769 224.5 791.0Q196 813 151.0 834.0Q106 855 49 860L54 944Q90 943 125.5 926.5Q161 910 192.0 888.0Q223 866 243 848L211 998H416L362 760Q408 707 439.5 648.0Q471 589 490.5 531.0Q510 473 518.5 424.0Q527 375 527 341Q527 266 511 193H534Q539 193 551.0 188.0Q563 183 563 163Q563 142 551.0 137.0Q539 132 534 132H522L577 0H417L471 132H155L209 0ZM280 766H344L392 978H235ZM255 792 250 813Q238 827 209.5 850.5Q181 874 145.0 895.0Q109 916 72 922L69 877Q114 871 150.5 855.5Q187 840 214.0 822.5Q241 805 255 792ZM134 193H141Q157 213 180.5 249.5Q204 286 227.5 336.0Q251 386 268.0 447.5Q285 509 288 579L293 746H274Q230 697 200.0 638.5Q170 580 152.0 522.5Q134 465 126.0 417.5Q118 370 118 341Q118 266 134 193ZM165 193H460Q443 216 419.5 254.0Q396 292 374.0 342.0Q352 392 336.0 452.0Q320 512 318 579L313 746L307 579Q305 511 289.0 451.0Q273 391 251.0 341.5Q229 292 205.5 254.0Q182 216 165 193ZM484 193H491Q507 264 507 341Q507 370 499.0 417.5Q491 465 472.5 522.5Q454 580 424.5 638.5Q395 697 351 746H332L338 579Q340 509 357.0 447.5Q374 386 398.0 336.0Q422 286 445.5 249.5Q469 213 484 193ZM91 152H534Q536 152 539.5 154.0Q543 156 543 163Q543 170 539.5 171.5Q536 173 534 173H91Q90 173 86.5 171.5Q83 170 83 163Q83 156 86.5 154.0Q90 152 91 152ZM78 20H180L135 132H122ZM446 20H547L503 132H490Z" />
  </g>
</svg>