<svg xmlns="http://www.w3.org/2000/svg" viewBox="49 182 1024 675">
  <g transform="translate(0, 1039) scale(1, -1)">
    <path fill="black" d="M49 182V300H202Q207 311 221.5 336.0Q236 361 263.0 393.0Q290 425 331.0 457.5Q372 490 429.0 517.5Q486 545 561 560Q614 597 680.0 627.5Q746 658 828 675V857H946V690Q959 691 983.0 691.5Q1007 692 1020 692H1073V673H1020Q1007 673 983.0 672.5Q959 672 946 671V551Q994 543 1027.0 534.5Q1060 526 1073 521L1063 503Q1047 508 1017.5 516.0Q988 524 946 532V300H1073V182ZM848 679Q867 683 886.5 685.5Q906 688 927 689V838H848ZM927 554V670Q906 668 886.5 665.5Q867 663 848 659V565Q869 563 888.5 560.0Q908 557 927 554ZM606 567Q629 569 653.0 571.0Q677 573 702 573Q736 573 767.5 571.0Q799 569 828 567V655Q763 642 707.5 618.5Q652 595 606 567ZM358 300H828V548Q800 550 768.5 551.5Q737 553 702 553Q665 553 632.0 550.0Q599 547 569 542Q504 496 460.5 446.5Q417 397 392.0 357.5Q367 318 358 300ZM848 300H927V535Q909 538 889.0 541.0Q869 544 848 546ZM222 300H337Q342 310 362.5 346.0Q383 382 422.5 432.0Q462 482 523 531Q445 510 390.0 476.5Q335 443 299.5 407.0Q264 371 245.5 341.5Q227 312 222 300ZM68 202H1053V281H68Z" />
  </g>
</svg>