<svg xmlns="http://www.w3.org/2000/svg" viewBox="49 0 1294 715">
  <g transform="translate(0, 715) scale(1, -1)">
    <path fill="black" d="M1276 0Q1249 0 1218.0 19.0Q1187 38 1159.5 77.0Q1132 116 1114 176Q1096 170 1054.5 155.5Q1013 141 957.0 129.0Q901 117 841 117Q790 117 738.0 133.5Q686 150 640.0 174.0Q594 198 559.5 221.5Q525 245 509 259L109 616Q91 633 70.0 652.5Q49 672 49 685Q49 704 62.0 709.5Q75 715 85 715Q97 715 108.0 712.5Q119 710 142 701L1156 311Q1188 298 1220.5 271.5Q1253 245 1281.0 212.0Q1309 179 1326.0 144.5Q1343 110 1343 79Q1343 49 1331.0 24.5Q1319 0 1276 0ZM1275 20Q1306 20 1314.5 36.5Q1323 53 1323 79Q1323 106 1306.5 139.0Q1290 172 1263.5 203.0Q1237 234 1206.5 258.0Q1176 282 1149 292L133 683Q114 691 104.0 693.5Q94 696 84 696Q80 696 74.0 693.5Q68 691 68 685Q68 678 87.0 661.5Q106 645 123 630L522 274Q537 261 570.5 238.0Q604 215 648.5 192.0Q693 169 743.0 153.0Q793 137 841 137Q899 137 954.5 149.0Q1010 161 1055.5 177.0Q1101 193 1128 204Q1139 146 1165.0 104.5Q1191 63 1221.5 41.5Q1252 20 1275 20Z" />
  </g>
</svg>