<svg xmlns="http://www.w3.org/2000/svg" viewBox="49 -70 1119 1071">
  <g transform="translate(0, 931) scale(1, -1)">
    <path fill="black" d="M494 -70V417L101 762Q79 781 64.0 796.5Q49 812 49 828Q49 845 59.5 851.0Q70 857 79 857Q91 857 107.0 853.5Q123 850 150 839L494 713V885Q494 896 496.5 915.0Q499 934 508.0 953.5Q517 973 537.0 987.0Q557 1001 591 1001Q626 1001 646.0 988.5Q666 976 675.0 957.0Q684 938 686.5 917.0Q689 896 689 878V641L998 528Q1041 512 1079.5 478.5Q1118 445 1143.0 403.5Q1168 362 1168 321Q1168 301 1162.5 281.0Q1157 261 1141.5 247.5Q1126 234 1095 233Q1070 232 1041.0 246.0Q1012 260 988.0 292.5Q964 325 954 379Q927 369 872.5 353.0Q818 337 728 337Q718 337 708.0 337.0Q698 337 689 338V259H670V340Q616 348 578.0 365.0Q540 382 513 401V-70ZM670 648V878Q670 898 666.0 922.0Q662 946 645.5 963.5Q629 981 591 981Q563 981 547.5 969.5Q532 958 524.5 942.0Q517 926 515.0 911.5Q513 897 513 891V706ZM494 442V692L143 821Q119 830 108.0 833.5Q97 837 92.0 837.5Q87 838 82 838Q77 838 72.5 835.5Q68 833 68 828Q68 818 79.0 807.0Q90 796 112 776Q219 682 288.5 621.0Q358 560 399.0 524.5Q440 489 459.5 472.0Q479 455 485.5 449.5Q492 444 494 442ZM670 360V627L513 685V425Q539 406 576.5 387.0Q614 368 670 360ZM1094 252Q1128 254 1138.0 276.0Q1148 298 1148 321Q1148 349 1131.5 379.0Q1115 409 1090.0 435.5Q1065 462 1038.5 482.0Q1012 502 991 509L689 620V358Q698 357 708.0 356.5Q718 356 728 356Q815 356 871.0 372.5Q927 389 968 405Q979 347 1000.5 313.5Q1022 280 1047.5 266.0Q1073 252 1094 252Z" />
  </g>
</svg>