<svg xmlns="http://www.w3.org/2000/svg" viewBox="48.96610169491525 -73 243.03389830508473 1074">
  <g transform="translate(0, 928) scale(1, -1)">
    <path fill="black" d="M177 -73Q190 -58 203.5 -26.0Q217 6 217 45Q217 80 195.5 133.5Q174 187 146 247Q105 339 76.5 418.0Q48 497 49 579Q50 635 69.0 689.0Q88 743 117.5 792.0Q147 841 180.0 882.5Q213 924 243.0 954.5Q273 985 292 1001V-73ZM213 -54H272V955Q252 936 218.5 897.0Q185 858 151.0 806.0Q117 754 93.5 695.5Q70 637 69 579Q68 524 82.0 468.5Q96 413 119.0 359.0Q142 305 165 254Q194 192 215.5 137.5Q237 83 237 45Q237 8 227.0 -19.0Q217 -46 213 -54Z" />
  </g>
</svg>