<svg xmlns="http://www.w3.org/2000/svg" viewBox="49 102 1222 735">
  <g transform="translate(0, 939) scale(1, -1)">
    <path fill="black" d="M176 102Q122 102 85.5 108.0Q49 114 49 140Q49 157 63.5 165.5Q78 174 115 174Q172 174 239.0 185.0Q306 196 375.5 213.5Q445 231 508.5 251.0Q572 271 622.5 290.0Q673 309 702 323Q734 338 777.5 362.0Q821 386 862.5 415.0Q904 444 931.5 473.0Q959 502 959 527Q959 551 941.5 567.0Q924 583 900.0 591.5Q876 600 856.0 604.0Q836 608 832 608Q840 629 849.0 664.5Q858 700 858 733Q858 761 855.0 786.5Q852 812 849 825Q863 829 886.5 833.0Q910 837 933 837Q956 837 979.5 833.5Q1003 830 1016 826Q1012 811 1008.5 785.0Q1005 759 1005 733Q1005 687 1029.5 663.0Q1054 639 1098.5 630.5Q1143 622 1202 622Q1248 622 1259.5 613.5Q1271 605 1271 588Q1271 579 1266.0 568.5Q1261 558 1253 544Q1219 487 1162.5 434.5Q1106 382 1036.5 337.0Q967 292 894.5 257.5Q822 223 756 202Q614 158 464.5 130.0Q315 102 176 102ZM176 122Q259 122 356.5 134.0Q454 146 555.5 168.5Q657 191 750 220Q825 244 900.0 281.0Q975 318 1041.5 363.5Q1108 409 1158.5 458.0Q1209 507 1236 554Q1243 565 1247.0 573.5Q1251 582 1251 588Q1251 596 1242.5 599.0Q1234 602 1202 602Q1137 602 1088.0 612.0Q1039 622 1012.0 650.5Q985 679 985 733Q985 752 988.0 774.5Q991 797 993 811Q989 812 972.5 814.5Q956 817 933 817Q909 817 893.0 815.0Q877 813 873 811Q875 801 876.5 781.5Q878 762 878 733Q878 706 871.0 674.0Q864 642 857 622Q869 619 889.0 613.0Q909 607 930.0 596.5Q951 586 965.0 569.0Q979 552 979 527Q979 499 954.5 468.5Q930 438 889.5 408.5Q849 379 802.0 352.5Q755 326 710 305Q680 291 629.0 271.5Q578 252 514.0 232.0Q450 212 380.5 194.5Q311 177 244.0 166.0Q177 155 120 155Q86 155 77.0 151.0Q68 147 68 139Q68 132 84.0 128.0Q100 124 124.5 123.0Q149 122 176 122Z" />
  </g>
</svg>