<svg xmlns="http://www.w3.org/2000/svg" viewBox="49 -72 1062 1073">
  <g transform="translate(0, 929) scale(1, -1)">
    <path fill="black" d="M85 -72Q65 -72 57.0 -67.5Q49 -63 49 -50Q49 -35 80.0 -19.0Q111 -3 177 25Q266 64 333.0 103.5Q400 143 460.0 186.0Q520 229 585 280Q615 303 651.0 332.5Q687 362 722.5 396.5Q758 431 785 467Q772 471 759.0 476.5Q746 482 732 492Q728 490 702.5 482.5Q677 475 639.5 465.0Q602 455 560.0 445.5Q518 436 480.0 429.5Q442 423 416 423Q393 423 355.5 428.5Q318 434 275.5 442.0Q233 450 193.5 458.5Q154 467 126.5 473.5Q99 480 91 481Q70 463 64 457L50 471Q52 473 72.0 491.0Q92 509 126.5 535.5Q161 562 206.5 588.0Q252 614 304.0 631.5Q356 649 411 649Q474 649 526.0 631.0Q578 613 621.5 587.5Q665 562 701 537Q729 518 748.5 505.0Q768 492 796 483Q813 508 824.0 532.5Q835 557 836 580Q820 581 794.0 582.0Q768 583 739.5 587.0Q711 591 687.5 598.0Q664 605 652 618Q652 628 657.5 662.5Q663 697 671 739Q677 770 685.0 812.5Q693 855 699.5 901.0Q706 947 708 987Q720 992 740.5 996.5Q761 1001 791 1001Q815 1001 840.5 996.0Q866 991 880 985Q873 953 864.5 915.5Q856 878 848.5 840.5Q841 803 835.5 773.0Q830 743 829 726Q870 713 913.0 710.5Q956 708 990 708H1049Q1072 708 1091.5 701.5Q1111 695 1111 670Q1111 638 1091.0 597.0Q1071 556 1037.5 511.5Q1004 467 963.5 422.0Q923 377 881.5 336.5Q840 296 804.0 264.5Q768 233 743 214Q680 167 599.0 118.0Q518 69 414 23Q369 3 318.0 -14.0Q267 -31 219.5 -44.0Q172 -57 136.0 -64.5Q100 -72 85 -72ZM85 -53Q99 -53 134.5 -45.5Q170 -38 216.5 -25.0Q263 -12 313.0 5.5Q363 23 406 42Q500 84 582.5 132.5Q665 181 720 221Q742 237 777.0 267.5Q812 298 854.0 338.5Q896 379 937.5 424.5Q979 470 1014.0 515.0Q1049 560 1070.0 600.0Q1091 640 1091 670Q1091 682 1079.0 685.0Q1067 688 1050 688H989Q952 688 900.0 692.0Q848 696 805 712Q806 724 812.0 755.5Q818 787 826.0 827.5Q834 868 842.0 906.5Q850 945 856 972Q848 976 829.5 978.5Q811 981 791 981Q766 981 752.0 979.0Q738 977 728 974Q726 934 719.0 889.5Q712 845 704.0 804.0Q696 763 690 733Q682 692 677.5 664.0Q673 636 672 628Q684 618 715.0 611.5Q746 605 784.0 602.5Q822 600 856 600Q856 554 829.5 506.5Q803 459 762.0 414.0Q721 369 677.0 330.5Q633 292 597 264Q532 214 472.0 170.5Q412 127 344.0 87.5Q276 48 185 8Q124 -18 96.0 -31.5Q68 -45 68 -50Q68 -53 85 -53ZM410 442Q449 442 477.0 469.5Q505 497 505 536Q505 574 477.0 601.5Q449 629 410 629Q371 629 344.0 601.5Q317 574 317 536Q317 497 344.0 469.5Q371 442 410 442ZM480 449Q568 464 630.5 482.5Q693 501 713 505Q685 524 648.5 548.0Q612 572 569.0 593.5Q526 615 479 624Q498 610 511.0 587.5Q524 565 524 536Q524 508 512.0 485.5Q500 463 480 449ZM341 450Q320 467 309.0 487.5Q298 508 298 536Q298 565 310.0 587.0Q322 609 340 622Q263 603 207.5 566.5Q152 530 111 498Q124 495 161.5 485.5Q199 476 247.5 466.5Q296 457 341 450Z" />
  </g>
</svg>