<svg xmlns="http://www.w3.org/2000/svg" viewBox="49 -72 1071 1073">
  <g transform="translate(0, 929) scale(1, -1)">
    <path fill="black" d="M94 -72Q74 -72 66.0 -67.5Q58 -63 58 -50Q58 -35 89.0 -19.0Q120 -3 186 25Q275 64 342.5 103.5Q410 143 469.5 186.0Q529 229 594 280Q628 306 669.5 341.0Q711 376 750.0 416.5Q789 457 816.0 499.0Q843 541 846 580Q829 581 803.0 582.0Q777 583 748.5 587.0Q720 591 696.5 598.0Q673 605 661 618Q661 628 666.5 662.5Q672 697 680 739Q686 770 694.0 812.5Q702 855 708.5 901.0Q715 947 717 987Q729 992 749.5 996.5Q770 1001 800 1001Q825 1001 850.5 996.0Q876 991 889 985Q882 953 873.5 915.5Q865 878 857.5 840.5Q850 803 845.0 773.0Q840 743 838 726Q879 713 922.5 710.5Q966 708 999 708H1058Q1081 708 1100.5 701.5Q1120 695 1120 670Q1120 638 1100.0 597.0Q1080 556 1046.5 511.5Q1013 467 972.5 422.0Q932 377 890.5 336.5Q849 296 813.0 264.5Q777 233 752 214Q689 167 608.0 118.0Q527 69 423 23Q378 3 327.0 -14.0Q276 -31 228.5 -44.0Q181 -57 145.0 -64.5Q109 -72 94 -72ZM94 -53Q108 -53 143.5 -45.5Q179 -38 225.5 -25.0Q272 -12 322.0 5.5Q372 23 416 42Q510 84 592.5 132.5Q675 181 729 221Q751 237 786.0 267.5Q821 298 863.0 338.5Q905 379 947.0 424.5Q989 470 1024.0 515.0Q1059 560 1080.0 600.0Q1101 640 1101 670Q1101 682 1089.0 685.0Q1077 688 1059 688H999Q975 688 942.5 689.5Q910 691 876.5 696.0Q843 701 814 712Q815 724 821.0 755.5Q827 787 835.0 827.5Q843 868 851.5 906.5Q860 945 866 972Q844 981 800 981Q775 981 761.0 979.0Q747 977 737 974Q735 934 728.0 889.5Q721 845 713.5 804.0Q706 763 700 733Q691 692 686.5 664.0Q682 636 682 628Q694 618 724.5 611.5Q755 605 793.5 602.5Q832 600 866 600Q866 554 839.5 506.5Q813 459 772.0 414.0Q731 369 686.5 330.5Q642 292 606 264Q541 214 481.5 170.5Q422 127 353.5 87.5Q285 48 194 8Q134 -18 106.0 -31.5Q78 -45 78 -50Q78 -53 94 -53ZM49 401 145 525H656V401ZM89 420H637V505H155Z" />
  </g>
</svg>