<svg xmlns="http://www.w3.org/2000/svg" viewBox="49 102 1237 735">
  <g transform="translate(0, 939) scale(1, -1)">
    <path fill="black" d="M191 102Q138 102 101.0 108.0Q64 114 64 140Q64 157 78.5 165.5Q93 174 130 174Q187 174 254.5 185.0Q322 196 391.0 213.5Q460 231 523.5 251.0Q587 271 637.5 290.0Q688 309 717 323Q743 335 776.5 353.0Q810 371 845.0 392.5Q880 414 909.5 437.5Q939 461 957.0 484.0Q975 507 975 527Q975 551 957.0 567.0Q939 583 915.0 591.5Q891 600 871.0 604.0Q851 608 847 608Q856 629 865.0 664.5Q874 700 874 733Q874 761 870.5 786.5Q867 812 864 825Q878 829 901.5 833.0Q925 837 948 837Q971 837 994.5 833.5Q1018 830 1031 826Q1027 811 1023.5 785.0Q1020 759 1020 733Q1020 687 1044.5 663.0Q1069 639 1113.5 630.5Q1158 622 1217 622Q1263 622 1274.5 613.5Q1286 605 1286 588Q1286 579 1281.5 568.5Q1277 558 1269 544Q1235 487 1178.0 434.5Q1121 382 1052.0 337.0Q983 292 910.0 257.5Q837 223 771 202Q630 158 480.0 130.0Q330 102 191 102ZM191 122Q274 122 372.0 134.0Q470 146 571.0 168.5Q672 191 765 220Q840 244 915.0 281.0Q990 318 1056.5 363.5Q1123 409 1173.5 458.0Q1224 507 1251 554Q1258 565 1262.0 573.5Q1266 582 1266 588Q1266 596 1257.5 599.0Q1249 602 1217 602Q1152 602 1103.0 612.0Q1054 622 1027.0 650.5Q1000 679 1000 733Q1000 752 1003.0 774.5Q1006 797 1008 811Q1004 812 987.5 814.5Q971 817 948 817Q924 817 908.5 815.0Q893 813 888 811Q890 801 891.5 781.5Q893 762 893 733Q893 706 886.5 674.0Q880 642 873 622Q885 619 905.0 613.0Q925 607 945.5 596.5Q966 586 980.0 569.0Q994 552 994 527Q994 499 969.5 468.5Q945 438 905.0 408.5Q865 379 818.0 352.5Q771 326 726 305Q696 291 644.5 271.5Q593 252 529.0 232.0Q465 212 395.5 194.5Q326 177 259.0 166.0Q192 155 135 155Q101 155 92.0 151.0Q83 147 83 139Q83 132 99.0 128.0Q115 124 139.5 123.0Q164 122 191 122ZM49 397 169 547H759V397ZM90 417H739V528H179Z" />
  </g>
</svg>