<svg xmlns="http://www.w3.org/2000/svg" viewBox="49 -49 372 1050">
  <g transform="translate(0, 952) scale(1, -1)">
    <path fill="black" d="M301 -49Q287 -49 277.5 -41.5Q268 -34 268 -18Q268 -1 277 30Q281 45 294.0 98.5Q307 152 318.5 235.5Q330 319 330 425V427Q320 434 314.5 442.5Q309 451 308 458L217 486Q210 476 191 473L122 225Q120 217 115.0 205.0Q110 193 102.0 183.5Q94 174 81 174Q63 174 56.0 184.5Q49 195 49 208Q49 217 51.0 227.0Q53 237 55 243L124 491Q117 496 112.5 503.0Q108 510 108 519Q108 538 120.5 543.5Q133 549 141 550L224 849Q221 854 217.5 859.0Q214 864 210 869Q183 905 183 923Q183 934 192.0 943.5Q201 953 213 953Q228 953 248 933L253 951Q258 970 266.5 985.5Q275 1001 294 1001Q314 1001 320.5 990.5Q327 980 327 969Q327 959 324.5 949.5Q322 940 320 934L300 861Q350 776 372.0 677.0Q394 578 398 477Q403 473 412.0 465.0Q421 457 421 445Q421 435 414.5 427.5Q408 420 399 416Q398 374 394.0 320.5Q390 267 382.5 210.5Q375 154 365.5 102.0Q356 50 345 12Q336 -19 326.5 -34.0Q317 -49 301 -49ZM286 883 301 938Q303 943 305.0 952.0Q307 961 307 968Q307 981 293 981Q283 981 278.0 968.0Q273 955 271 947L262 917L268 909Q273 903 277.5 896.5Q282 890 286 883ZM376 433H379Q379 509 368.0 590.5Q357 672 330.0 751.0Q303 830 251 898Q235 919 226.5 926.5Q218 934 212 934Q207 934 204.5 930.5Q202 927 202 924Q202 919 207.0 909.5Q212 900 227 880Q266 826 291.5 766.5Q317 707 331.5 632.5Q346 558 349 458Q349 451 349.5 446.5Q350 442 350 438Q358 435 365.5 434.0Q373 433 376 433ZM176 492 259 788Q254 799 249.0 808.5Q244 818 238 828L146 500Q160 494 176 492ZM312 475Q317 484 329 487Q325 552 312.5 622.5Q300 693 272 760L208 529Q213 525 218.5 519.0Q224 513 224 504V502ZM130 512 135 529Q128 527 128 518Q128 514 130 512ZM197 494Q204 498 204 503Q204 505 202 509ZM79 191Q90 191 94.5 204.0Q99 217 103 229L171 474Q164 475 156.5 477.0Q149 479 141 481L73 237Q72 232 70.0 224.0Q68 216 68 208Q68 201 70.0 196.0Q72 191 79 191ZM330 452Q330 457 330.0 460.5Q330 464 329 468Q327 466 327 462Q327 457 330 452ZM399 439Q401 443 401 447Q401 453 398 454Q398 450 398.5 446.5Q399 443 399 439ZM300 -29Q308 -29 313.0 -20.0Q318 -11 326 17Q344 82 355.5 154.5Q367 227 373.0 294.5Q379 362 379 413Q371 413 363.5 414.5Q356 416 350 417Q350 316 338.0 233.0Q326 150 313.0 95.5Q300 41 295 25Q288 -2 288 -16Q288 -29 300 -29Z" />
  </g>
</svg>