<svg xmlns="http://www.w3.org/2000/svg" viewBox="49 119 1149 466">
  <g transform="translate(0, 704) scale(1, -1)">
    <path fill="black" d="M1115 119Q1041 119 958.0 127.5Q875 136 795.0 150.5Q715 165 651 182Q643 167 624 167Q607 167 598.5 180.0Q590 193 588 200L584 202Q546 215 495.5 233.5Q445 252 388.5 279.5Q332 307 275.0 346.0Q218 385 167 438H119Q109 438 92.5 439.5Q76 441 62.5 449.0Q49 457 49 476Q49 499 69.0 505.5Q89 512 106 513Q89 540 89 555Q89 567 99.0 576.0Q109 585 120 585Q136 585 150.0 574.0Q164 563 185 536Q189 530 193.5 524.5Q198 519 202 514H591Q593 519 600.5 528.5Q608 538 624 538Q637 538 645.0 531.5Q653 525 657 514H945Q955 514 971.5 512.5Q988 511 1001.5 503.0Q1015 495 1015 476Q1015 457 1001.5 449.0Q988 441 971.5 439.5Q955 438 945 438H656Q648 419 634 415V291Q651 285 659 259Q743 235 819.5 221.5Q896 208 957.5 202.5Q1019 197 1060.0 195.5Q1101 194 1115 194Q1165 194 1181.5 185.0Q1198 176 1198 156Q1198 137 1181.5 128.0Q1165 119 1115 119ZM641 205Q642 210 642.5 215.5Q643 221 643 226Q643 230 643.0 234.5Q643 239 642 243Q634 245 625.5 248.0Q617 251 608 253Q496 289 416.0 328.5Q336 368 276.5 415.5Q217 463 168 523Q146 552 137.5 559.0Q129 566 121 566Q117 566 112.5 563.0Q108 560 108 555Q108 548 115.0 536.0Q122 524 139 501Q199 424 274.5 370.5Q350 317 434.0 280.5Q518 244 601 217Q609 214 619.5 211.0Q630 208 641 205ZM613 514H635Q630 519 624 519Q620 519 617.5 517.5Q615 516 613 514ZM119 458H149Q136 473 124 489L120 494H119Q112 494 99.5 493.0Q87 492 77.5 488.5Q68 485 68 476Q68 467 77.5 463.0Q87 459 99.5 458.5Q112 458 119 458ZM257 458H641Q643 463 643.0 468.5Q643 474 643 479Q643 483 643.0 486.5Q643 490 642 494H220Q229 484 238.5 475.0Q248 466 257 458ZM661 458H945Q952 458 964.0 458.5Q976 459 986.0 463.0Q996 467 996 476Q996 485 986.0 488.5Q976 492 964.0 493.0Q952 494 945 494H662Q662 490 662.5 486.5Q663 483 663 479Q663 473 662.5 468.0Q662 463 661 458ZM598 277Q603 288 615 292V414Q605 416 600.5 424.0Q596 432 594 438H281Q351 382 433.0 343.0Q515 304 598 277ZM623 432Q629 432 633 438H615Q617 432 623 432ZM634 266Q630 273 623 273Q620 273 618 271ZM1115 138Q1154 138 1166.5 142.5Q1179 147 1179 156Q1179 166 1166.5 170.5Q1154 175 1115 175Q1096 175 1032.0 177.0Q968 179 873.0 192.0Q778 205 662 237Q662 234 662.5 231.5Q663 229 663 226Q663 212 660 200Q718 185 794.5 170.5Q871 156 954.5 147.0Q1038 138 1115 138ZM624 187Q627 187 629 188Q625 189 621.0 190.5Q617 192 612 193Q615 187 624 187Z" />
  </g>
</svg>