<svg xmlns="http://www.w3.org/2000/svg" viewBox="49 -135 1181 963">
  <g transform="translate(0, 693) scale(1, -1)">
    <path fill="black" d="M941 175Q871 175 810.0 187.0Q749 199 707.5 213.0Q666 227 653 232V563Q666 568 707.5 582.5Q749 597 810.0 610.5Q871 624 941 624H947Q928 635 903.0 654.5Q878 674 860 696Q835 728 822.5 760.0Q810 792 807 817L824 828Q848 816 881.5 792.5Q915 769 934 743Q959 711 971.5 679.5Q984 648 987 622Q1048 618 1099.0 605.0Q1150 592 1184.5 579.5Q1219 567 1230 563V232Q1218 227 1176.0 213.0Q1134 199 1073.0 187.0Q1012 175 941 175ZM801 611Q778 623 745.0 647.0Q712 671 691 696Q667 728 654.5 760.0Q642 792 639 817L656 828Q679 816 712.5 792.5Q746 769 766 743Q791 711 803.5 679.5Q816 648 818 622ZM1138 611Q1115 623 1081.5 647.0Q1048 671 1028 696Q1004 728 991.0 760.0Q978 792 976 817L993 828Q1016 816 1049.5 792.5Q1083 769 1103 743Q1128 711 1140.5 679.5Q1153 648 1155 622ZM795 635Q793 655 782.5 678.0Q772 701 749 729Q727 758 703.0 775.5Q679 793 662 804Q664 784 675.0 761.5Q686 739 708 710Q735 676 757.5 661.0Q780 646 795 635ZM964 635Q961 655 950.5 678.0Q940 701 917 729Q895 758 871.5 775.5Q848 793 831 804Q834 765 876 710Q903 676 926.0 661.0Q949 646 964 635ZM1132 635Q1130 655 1119.5 678.0Q1109 701 1086 729Q1064 758 1040.0 775.5Q1016 793 999 804Q1001 784 1012.0 761.5Q1023 739 1045 710Q1072 676 1094.5 661.0Q1117 646 1132 635ZM930 199V601Q870 600 818.0 589.0Q766 578 729.5 565.5Q693 553 677 546V249Q695 242 733.0 230.5Q771 219 822.0 209.5Q873 200 930 199ZM953 199Q1012 200 1063.5 209.5Q1115 219 1152.5 230.5Q1190 242 1207 248V546Q1191 553 1154.0 565.5Q1117 578 1065.5 589.0Q1014 600 953 601ZM594 267Q565 272 522.0 285.5Q479 299 449 319Q412 345 387.5 374.0Q363 403 352 428L366 446Q386 443 412.5 436.0Q439 429 465.5 418.0Q492 407 512 393Q550 368 574.0 339.0Q598 310 608 284ZM580 290Q570 310 551.0 330.5Q532 351 499 373Q465 396 434.0 406.0Q403 416 381 422Q390 403 409.0 382.5Q428 362 462 339Q502 312 531.5 304.0Q561 296 580 290ZM492 132Q473 136 447.0 143.0Q421 150 394.5 161.0Q368 172 348 185Q311 211 286.5 240.0Q262 269 251 294L265 312Q294 307 337.0 293.0Q380 279 410 259Q448 234 472.0 204.5Q496 175 507 149ZM479 156Q469 176 450.0 196.5Q431 217 397 239Q364 262 333.0 272.0Q302 282 280 289Q289 268 308.0 248.0Q327 228 360 205Q401 178 430.5 170.0Q460 162 479 156ZM391 -1Q372 2 346.0 9.0Q320 16 293.5 27.0Q267 38 247 51Q210 77 185.5 106.0Q161 135 150 160L164 178Q193 174 236.0 160.0Q279 146 309 125Q347 100 371.0 71.0Q395 42 406 16ZM377 22Q368 42 349.0 62.5Q330 83 296 105Q263 128 232.0 138.0Q201 148 179 154Q188 134 207.0 114.0Q226 94 259 71Q300 44 329.0 36.0Q358 28 377 22ZM290 -135Q271 -132 245.0 -125.0Q219 -118 192.5 -107.0Q166 -96 146 -83Q109 -57 84.5 -28.0Q60 1 49 26L63 44Q92 40 135.0 26.0Q178 12 208 -9Q246 -34 270.0 -63.0Q294 -92 305 -118ZM276 -112Q267 -92 248.0 -71.5Q229 -51 195 -28Q162 -5 131.0 5.0Q100 15 78 21Q87 1 106.0 -19.5Q125 -40 158 -63Q199 -90 228.0 -98.0Q257 -106 276 -112Z" />
  </g>
</svg>