<svg xmlns="http://www.w3.org/2000/svg" viewBox="49 -178 888 1179">
  <g transform="translate(0, 823) scale(1, -1)">
    <path fill="black" d="M702 8Q643 8 593.5 18.0Q544 28 510.5 40.0Q477 52 466 56V326Q476 330 504.0 340.5Q532 351 574.5 362.0Q617 373 667 376V796Q685 804 704.5 818.0Q724 832 737.5 849.5Q751 867 751 886Q751 905 742.0 919.0Q733 933 711 933Q690 933 679.5 922.5Q669 912 669 898Q669 887 672.0 875.5Q675 864 678 857L588 812L556 871L603 894Q601 896 602 912Q604 947 633.0 974.0Q662 1001 711 1001Q758 1001 788.5 970.0Q819 939 819 886Q819 844 802.5 817.0Q786 790 766.0 775.5Q746 761 735 756V376Q786 373 828.5 362.0Q871 351 899.5 340.5Q928 330 937 326V56Q927 52 893.5 40.0Q860 28 810.5 18.0Q761 8 702 8ZM687 377H716V770Q719 771 732.0 778.5Q745 786 761.0 801.0Q777 816 788.5 837.0Q800 858 800 886Q800 927 774.5 954.0Q749 981 711 981Q671 981 646.0 959.0Q621 937 621 912Q621 894 624 883L583 862Q586 856 589.0 851.0Q592 846 596 838L655 868Q649 882 649 898Q649 924 667.5 938.5Q686 953 711 953Q737 953 754.0 935.5Q771 918 771 886Q771 863 757.5 842.5Q744 822 724.5 806.5Q705 791 687 782ZM692 28V358Q642 357 600.0 348.0Q558 339 528.5 328.5Q499 318 486 313V69Q502 63 532.0 54.0Q562 45 603.5 37.0Q645 29 692 28ZM711 28Q761 29 802.5 36.5Q844 44 873.5 53.5Q903 63 917 69V313Q904 318 874.5 328.5Q845 339 803.5 348.0Q762 357 711 358ZM412 84Q388 89 352.5 100.0Q317 111 291 128Q260 150 240.0 174.0Q220 198 210 219L222 234Q246 230 282.0 218.5Q318 207 343 190Q375 169 395.0 144.5Q415 120 424 99ZM400 104Q393 121 377.0 137.5Q361 154 333 173Q305 193 279.0 201.5Q253 210 234 214Q242 198 258.0 181.0Q274 164 302 145Q335 123 359.5 116.0Q384 109 400 104ZM311 -43Q287 -39 251.5 -28.0Q216 -17 190 0Q159 22 139.0 46.0Q119 70 110 91L122 106Q146 102 182.0 90.5Q218 79 243 62Q274 41 294.0 17.0Q314 -7 323 -29ZM299 -24Q292 -7 276.0 10.0Q260 27 232 45Q204 65 178.0 73.5Q152 82 134 86Q142 70 157.5 53.0Q173 36 201 17Q235 -5 259.0 -12.0Q283 -19 299 -24ZM250 -178Q226 -174 190.5 -162.5Q155 -151 129 -134Q98 -113 78.0 -89.0Q58 -65 49 -43L61 -29Q85 -33 121.0 -44.5Q157 -56 182 -73Q213 -94 233.0 -118.0Q253 -142 262 -164ZM238 -159Q231 -142 215.0 -125.0Q199 -108 171 -89Q143 -70 117.0 -61.5Q91 -53 73 -48Q81 -65 96.5 -82.0Q112 -99 140 -118Q174 -140 198.0 -147.0Q222 -154 238 -159Z" />
  </g>
</svg>