<svg xmlns="http://www.w3.org/2000/svg" viewBox="49 110 1141 891">
  <g transform="translate(0, 1111) scale(1, -1)">
    <path fill="black" d="M654 110Q590 110 532.0 115.5Q474 121 429.0 128.5Q384 136 358 143L377 222Q403 214 464.0 204.0Q525 194 604 191L712 414L186 818Q132 819 102.5 833.5Q73 848 61.0 869.5Q49 891 49 912Q49 933 58.5 953.5Q68 974 87.0 987.5Q106 1001 136 1001Q172 1001 192.5 985.5Q213 970 223.0 948.5Q233 927 236.0 907.5Q239 888 239 879L904 369L1052 670L1110 640L958 328L977 313L1132 630L1190 600L1030 272L1110 211Q1065 182 991.5 159.0Q918 136 830.5 123.0Q743 110 654 110ZM654 129Q737 129 817.0 140.0Q897 151 964.5 170.0Q1032 189 1075 213L219 870Q219 876 217.0 893.5Q215 911 207.5 931.0Q200 951 183.0 966.0Q166 981 136 981Q108 981 88.0 961.5Q68 942 68 912Q68 886 95.5 862.0Q123 838 192 838L992 224Q973 217 928.5 204.0Q884 191 816.0 180.5Q748 170 658 170Q604 170 552.5 174.5Q501 179 459.0 185.0Q417 191 391 197Q385 172 384.0 167.0Q383 162 381 157Q401 152 472.0 140.5Q543 129 654 129ZM941 340 1084 631 1061 643 920 356ZM1014 284 1164 591 1141 603 993 301ZM626 190H666L757 380L729 402ZM688 190Q790 192 855.5 206.0Q921 220 952 230L773 368Z" />
  </g>
</svg>