<svg xmlns="http://www.w3.org/2000/svg" viewBox="49 -47 1147 548">
  <g transform="translate(0, 454) scale(1, -1)">
    <path fill="black" d="M271 -47Q269 -47 257.5 -45.5Q246 -44 232.5 -36.0Q219 -28 209.0 -10.5Q199 7 199 38Q199 55 204.5 76.5Q210 98 217 121Q177 130 147.0 155.5Q117 181 82 227L49 271L106 315L139 272Q168 232 191.0 212.5Q214 193 245 187Q263 226 280.5 257.5Q298 289 307 303Q260 311 226.5 336.5Q193 362 155 413L122 456L180 501L212 458Q237 424 257.0 404.5Q277 385 300.5 377.0Q324 369 359 369H1196V299H1087V184H1196V112L361 114V99Q361 48 350.0 18.5Q339 -11 323.5 -25.0Q308 -39 293.5 -43.0Q279 -47 271 -47ZM1176 317V350H354Q314 350 287.5 361.0Q261 372 241.0 393.5Q221 415 197 444L174 474L149 454L170 425Q199 387 223.5 363.5Q248 340 278.0 330.0Q308 320 351 319ZM265 184H339Q338 227 335.5 257.0Q333 287 332 300H328Q324 293 304.5 260.0Q285 227 265 184ZM359 184H506V299H352Q354 285 356.0 255.5Q358 226 359 184ZM526 184H589V299H526ZM609 184H985V299H609ZM1004 184H1068V299H1004ZM224 139Q227 146 230.0 153.5Q233 161 236 168Q199 177 175.5 200.0Q152 223 124 259L101 289L76 268L97 239Q130 195 158.0 171.0Q186 147 224 139ZM341 133Q341 141 340.5 149.0Q340 157 340 164H280Q273 164 267.5 164.5Q262 165 256 165Q253 158 250.0 151.0Q247 144 244 136Q259 133 277 133ZM1176 131V164H360V133ZM271 -28Q277 -28 288.5 -24.5Q300 -21 312.0 -9.0Q324 3 332.5 29.0Q341 55 341 99V114H277Q256 114 236 117Q229 95 224.0 75.0Q219 55 219 38Q219 6 231.0 -8.0Q243 -22 256.0 -25.0Q269 -28 271 -28Z" />
  </g>
</svg>