<svg xmlns="http://www.w3.org/2000/svg" viewBox="49 -30 982 607">
  <g transform="translate(0, 547) scale(1, -1)">
    <path fill="black" d="M992 -30Q973 -30 957.5 -14.0Q942 2 930.5 23.0Q919 44 910 59Q894 86 873.0 116.0Q852 146 816 167Q783 186 740.0 195.5Q697 205 653.0 210.0Q609 215 571 222Q479 237 420.0 259.5Q361 282 326.5 314.0Q292 346 275.0 389.5Q258 433 249 489H137V380Q137 345 122.0 335.5Q107 326 93 326Q79 326 64.0 335.5Q49 345 49 380V577H327Q333 500 347.5 452.0Q362 404 391.5 376.5Q421 349 471.5 333.5Q522 318 601 306Q676 295 722.0 286.5Q768 278 799.0 268.5Q830 259 859 244Q888 230 915.5 203.0Q943 176 966.0 146.0Q989 116 1001 92Q1013 70 1022.0 48.0Q1031 26 1031 7Q1031 -3 1022.5 -16.5Q1014 -30 992 -30ZM992 -10Q1003 -10 1007.5 -4.0Q1012 2 1012 7Q1012 23 1003.5 42.0Q995 61 983 83Q972 105 951.5 133.0Q931 161 904.5 187.0Q878 213 850 227Q823 241 791.5 250.0Q760 259 714.0 267.5Q668 276 598 287Q520 299 467.0 314.5Q414 330 382.0 357.5Q350 385 333.0 433.0Q316 481 309 558H68V380Q68 358 76.5 352.0Q85 346 93 346Q101 346 109.0 352.0Q117 358 117 380V509H265Q274 452 289.5 408.5Q305 365 337.0 332.5Q369 300 426.0 277.5Q483 255 574 241Q616 234 659.0 229.5Q702 225 745.0 215.5Q788 206 827 184Q864 163 888.0 129.5Q912 96 928 69Q934 59 944.0 40.0Q954 21 966.5 5.5Q979 -10 992 -10Z" />
  </g>
</svg>