<svg xmlns="http://www.w3.org/2000/svg" viewBox="49 182 794 268">
  <g transform="translate(0, 632) scale(1, -1)">
    <path fill="black" d="M813 188Q800 188 789.5 195.5Q779 203 765 213Q744 228 714.5 246.5Q685 265 653 269Q622 273 588.0 275.5Q554 278 521 279Q487 281 453.0 283.0Q419 285 383 290Q343 295 307.0 316.0Q271 337 258 380H223V332H195V294Q195 266 183.5 255.5Q172 245 161 245Q137 245 131.0 259.5Q125 274 125 288V393H151V450H315Q317 437 323.0 416.0Q329 395 349.5 378.0Q370 361 415 358Q449 356 495.5 353.0Q542 350 589.0 346.0Q636 342 668 337Q700 333 731.0 319.5Q762 306 787.5 288.5Q813 271 828.0 252.5Q843 234 843 219Q843 207 836.5 197.5Q830 188 813 188ZM811 208Q824 208 824 219Q824 235 800.0 255.5Q776 276 739.5 294.0Q703 312 665 318Q632 323 585.5 327.0Q539 331 493.0 333.5Q447 336 414 338Q369 342 345.0 358.0Q321 374 311.5 394.5Q302 415 299 431H171V373H145V288Q145 281 148.0 273.0Q151 265 161 265Q166 265 171.0 271.5Q176 278 176 294V352H204V400H272Q281 357 314.0 335.0Q347 313 400 307Q427 303 457.5 302.0Q488 301 523 299Q565 296 602.5 293.5Q640 291 656 288Q694 283 724.5 264.0Q755 245 777 229Q803 208 811 208ZM49 182V275Q49 292 55.0 298.0Q61 304 68 304Q79 304 84.0 296.5Q89 289 97 273Q103 259 115.0 244.5Q127 230 157 230Q188 230 199.5 244.5Q211 259 218 273Q226 289 231.0 296.5Q236 304 246 304Q253 304 259.5 298.0Q266 292 266 275V182ZM68 202H246V285Q245 284 242.5 280.0Q240 276 235 265Q227 247 212.0 228.5Q197 210 157 210Q117 210 102.0 228.5Q87 247 79 265Q70 283 68 285Z" />
  </g>
</svg>