<svg xmlns="http://www.w3.org/2000/svg" viewBox="49 -5 317 1006">
  <g transform="translate(0, 996) scale(1, -1)">
    <path fill="black" d="M208 -5Q200 -5 194.5 4.0Q189 13 182 47Q178 70 170.5 116.5Q163 163 155.5 224.5Q148 286 143.0 354.0Q138 422 138 487Q138 560 150.0 604.5Q162 649 172 668H49Q51 669 63.0 677.5Q75 686 90.5 698.0Q106 710 117.5 723.0Q129 736 129 746Q129 755 123.5 766.0Q118 777 109 794Q102 809 92.0 834.5Q82 860 82 893Q82 943 118.5 972.0Q155 1001 208 1001Q261 1001 297.0 972.0Q333 943 333 893Q333 860 323.5 834.5Q314 809 306 794Q297 777 291.5 766.0Q286 755 286 746Q286 736 297.5 723.0Q309 710 324.5 698.0Q340 686 352.5 677.5Q365 669 366 668H243Q253 649 265.0 605.5Q277 562 277 487Q277 422 272.0 354.0Q267 286 259.5 224.5Q252 163 245.0 116.5Q238 70 233 47Q226 13 221.0 4.0Q216 -5 208 -5ZM106 688H309Q296 697 281.0 713.0Q266 729 266 746Q266 760 272.0 771.5Q278 783 288 801Q296 817 305.0 840.0Q314 863 314 893Q314 934 283.0 957.5Q252 981 208 981Q163 981 132.0 957.5Q101 934 101 893Q101 863 110.5 840.0Q120 817 127 801Q137 783 143.0 771.5Q149 760 149 746Q149 729 134.5 713.0Q120 697 106 688ZM208 14 215 54Q218 71 225.0 117.0Q232 163 239.0 225.5Q246 288 251.5 356.0Q257 424 257 487Q257 563 242.5 608.5Q228 654 220 668H194Q187 655 172.5 610.0Q158 565 158 487Q158 424 163.5 356.0Q169 288 176.0 225.5Q183 163 190.0 117.0Q197 71 200 54Z" />
  </g>
</svg>