<svg xmlns="http://www.w3.org/2000/svg" viewBox="49 -5 366 1003">
  <g transform="translate(0, 993) scale(1, -1)">
    <path fill="black" d="M220 -5Q198 3 174.5 28.5Q151 54 144 86H66V105H142V106Q142 137 159.0 160.5Q176 184 203 193V493H144Q152 522 159.5 576.5Q167 631 168 692H49V715Q49 734 57.5 758.0Q66 782 85.5 805.5Q105 829 136.5 845.5Q168 862 214 865Q229 870 251.0 884.0Q273 898 295.5 917.5Q318 937 335.5 958.0Q353 979 359 998L378 992Q372 971 351.5 947.0Q331 923 305.0 901.5Q279 880 255 865Q316 860 351.0 833.0Q386 806 400.5 773.0Q415 740 415 715V692H261V193Q287 184 304.5 160.5Q322 137 322 106V105H397V86H320Q313 54 289.5 28.5Q266 3 244 -5Q258 24 262.5 48.0Q267 72 268 86H196Q197 72 201.0 48.0Q205 24 220 -5ZM68 712H396V721Q396 735 387.5 755.5Q379 776 360.5 797.0Q342 818 310.5 832.0Q279 846 232 846Q185 846 153.5 832.0Q122 818 103.0 797.0Q84 776 76.0 755.5Q68 735 68 721ZM223 197Q225 197 227.5 197.5Q230 198 232 198Q234 198 236.5 197.5Q239 197 241 197V692H223ZM168 513H203V692H188Q187 643 180.5 592.5Q174 542 168 513ZM161 105H176Q178 134 195.0 147.5Q212 161 232 161Q252 161 269.5 147.5Q287 134 288 105H303V106Q303 136 282.0 157.0Q261 178 232 178Q202 178 181.5 157.0Q161 136 161 106ZM196 105H268Q266 123 256.0 132.0Q246 141 232 141Q219 141 208.5 132.0Q198 123 196 105ZM188 39Q184 51 181.5 62.5Q179 74 177 86H163Q166 72 173.0 59.5Q180 47 188 39ZM275 39Q294 56 300 86H287Q284 64 275 39Z" />
  </g>
</svg>