<svg xmlns="http://www.w3.org/2000/svg" viewBox="49 -5 242 963">
  <g transform="translate(0, 953) scale(1, -1)">
    <path fill="black" d="M169 -5Q141 -5 121.5 14.5Q102 34 102 62Q102 82 112.5 99.0Q123 116 140 124V502H49V958H291V502H198V124Q215 116 226.0 99.0Q237 82 237 62Q237 34 217.5 14.5Q198 -5 169 -5ZM68 522H271V939H68ZM160 130H178V502H160ZM169 14Q189 14 203.0 28.0Q217 42 217 62Q217 82 204.0 95.5Q191 109 171 110H169Q149 110 135.0 96.0Q121 82 121 62Q121 42 135.0 28.0Q149 14 169 14Z" />
  </g>
</svg>