<svg xmlns="http://www.w3.org/2000/svg" viewBox="49 -5 588 963">
  <g transform="translate(0, 953) scale(1, -1)">
    <path fill="black" d="M340 91Q311 91 282.5 104.5Q254 118 237.0 143.5Q220 169 224 205L248 412L149 448Q135 454 111.0 467.5Q87 481 68.0 504.5Q49 528 49 562Q49 589 62.0 607.5Q75 626 94.5 635.0Q114 644 132 644Q158 644 181.5 629.5Q205 615 205 580Q205 556 195.5 543.5Q186 531 174.0 526.5Q162 522 153 522Q137 522 126.5 532.0Q116 542 113 551L131 558Q133 553 138.5 547.5Q144 542 153 542Q161 542 173.5 549.0Q186 556 186 580Q186 604 169.0 614.5Q152 625 133 625Q111 625 89.5 609.5Q68 594 68 562Q68 539 79.0 522.0Q90 505 105.5 493.5Q121 482 134.5 475.5Q148 469 153 467Q158 465 187.0 454.5Q216 444 250 432L298 845Q303 894 308.5 926.0Q314 958 340 958Q366 958 371.5 926.0Q377 894 383 845L439 361Q462 352 485.0 341.0Q508 330 526 319Q566 295 595.0 263.5Q624 232 637 212L621 201Q608 222 579.0 252.5Q550 283 516 303Q483 322 441 339L457 206Q461 170 443.5 144.5Q426 119 397.5 105.0Q369 91 340 91ZM340 110Q364 110 388.0 121.5Q412 133 426.5 154.5Q441 176 438 206L363 842Q358 889 355.0 914.0Q352 939 340 939Q329 939 326.0 914.0Q323 889 317 842L243 206Q240 176 254.5 154.5Q269 133 293.0 121.5Q317 110 340 110ZM138 -5V152Q138 172 147.0 181.0Q156 190 169 190Q185 190 191.5 179.0Q198 168 200 159Q204 142 218.5 119.0Q233 96 262.5 78.5Q292 61 340 61Q389 61 418.0 78.0Q447 95 462.0 118.5Q477 142 481 159Q483 168 489.5 179.0Q496 190 512 190Q542 190 542 152V-5ZM158 14H523V152Q523 170 512 170Q503 170 500 154Q495 135 479.0 108.5Q463 82 429.5 61.5Q396 41 340 41Q285 41 251.5 62.0Q218 83 202.0 109.5Q186 136 181 154Q178 170 168 170Q158 170 158 152Z" />
  </g>
</svg>