<svg xmlns="http://www.w3.org/2000/svg" viewBox="49 182 547 650">
  <g transform="translate(0, 1014) scale(1, -1)">
    <path fill="black" d="M53 182 49 203Q81 222 109.5 250.5Q138 279 156.0 318.5Q174 358 174 409Q174 435 170.5 467.5Q167 500 162.5 532.5Q158 565 153 590L137 674Q140 685 151.5 710.0Q163 735 188.0 763.5Q213 792 257.0 812.0Q301 832 368 832Q435 832 478.5 812.0Q522 792 546.5 763.5Q571 735 582.0 710.0Q593 685 596 674L541 182ZM158 674H575Q572 686 560.5 708.5Q549 731 526.0 755.5Q503 780 464.5 796.5Q426 813 368 813Q310 813 270.5 796.5Q231 780 207.5 755.5Q184 731 172.5 708.5Q161 686 158 674ZM84 202H521L574 655H162L172 594Q177 569 182.0 536.0Q187 503 190.5 470.0Q194 437 194 409Q194 356 176.5 315.5Q159 275 133.5 246.5Q108 218 84 202Z" />
  </g>
</svg>