<svg xmlns="http://www.w3.org/2000/svg" viewBox="49 -30 404 1034">
  <g transform="translate(0, 974) scale(1, -1)">
    <path fill="black" d="M266 76Q237 76 211.5 89.5Q186 103 172.0 129.0Q158 155 161 190L228 824Q229 835 230.0 848.0Q231 861 231 872Q231 898 219.0 918.0Q207 938 166 938Q147 938 134.5 933.5Q122 929 113 924Q105 920 97.5 916.5Q90 913 80 913Q73 913 61.0 919.0Q49 925 49 942Q49 961 66.0 974.5Q83 988 110.0 996.0Q137 1004 167 1004Q217 1004 245.0 988.0Q273 972 286.5 947.5Q300 923 304.5 895.5Q309 868 311 845L370 191Q373 155 358.5 129.5Q344 104 319.5 90.0Q295 76 266 76ZM266 96Q301 96 328.0 121.0Q355 146 351 191L291 842Q289 866 285.0 890.5Q281 915 269.5 936.5Q258 958 234.0 971.0Q210 984 167 984Q146 984 123.0 978.5Q100 973 84.0 963.5Q68 954 68 942Q68 937 72.5 935.0Q77 933 80 933Q85 933 90.5 935.5Q96 938 103 941Q114 946 128.5 952.0Q143 958 166 958Q202 958 220.0 946.0Q238 934 244.5 915.0Q251 896 251 874Q251 860 250.0 848.0Q249 836 247 825L181 191Q176 147 203.0 121.5Q230 96 266 96ZM266 -30Q202 -30 160.0 -6.0Q118 18 98.0 54.5Q78 91 78 128Q78 148 87.0 157.0Q96 166 109 166Q125 166 131.5 155.0Q138 144 140 135Q144 118 155.0 94.5Q166 71 192.0 53.5Q218 36 266 36Q314 36 339.5 53.5Q365 71 376.5 94.5Q388 118 392 135Q394 144 400.0 155.0Q406 166 422 166Q436 166 444.5 157.0Q453 148 453 128Q453 91 433.0 54.5Q413 18 371.5 -6.0Q330 -30 266 -30ZM266 -10Q323 -10 360.5 11.0Q398 32 416.0 64.0Q434 96 434 128Q434 146 423 146Q415 146 410 130Q406 116 398.5 96.5Q391 77 376.0 59.0Q361 41 334.5 29.0Q308 17 266 17Q224 17 197.5 29.0Q171 41 155.5 59.5Q140 78 132.5 97.0Q125 116 121 130Q117 146 108 146Q98 146 98 128Q98 96 116.0 64.0Q134 32 171.5 11.0Q209 -10 266 -10Z" />
  </g>
</svg>