<svg xmlns="http://www.w3.org/2000/svg" viewBox="49 -34 283 1035">
  <g transform="translate(0, 967) scale(1, -1)">
    <path fill="black" d="M229 -34Q186 -34 155.0 -7.5Q124 19 124 83V262Q124 276 124.0 285.0Q124 294 122 313Q121 321 117.0 333.5Q113 346 110 353L73 467Q66 492 61.0 511.0Q56 530 56 537Q56 557 66.5 564.0Q77 571 88 571Q97 571 106.5 567.0Q116 563 129 549L261 410V813Q261 845 257.0 873.0Q253 901 237.5 918.5Q222 936 186 936Q161 936 144.0 931.0Q127 926 112.5 920.5Q98 915 80 915Q73 915 61.0 921.0Q49 927 49 944Q49 963 72.0 975.5Q95 988 128.0 994.5Q161 1001 191 1001Q241 1001 269.5 983.5Q298 966 311.5 937.5Q325 909 328.5 876.0Q332 843 332 813V83Q332 36 318.5 10.5Q305 -15 281.5 -24.5Q258 -34 229 -34ZM229 -14Q265 -14 289.0 4.5Q313 23 313 81V813Q313 841 309.5 870.5Q306 900 294.5 925.0Q283 950 258.5 965.5Q234 981 191 981Q168 981 139.0 975.5Q110 970 89.0 961.5Q68 953 68 944Q68 939 72.5 937.0Q77 935 81 935Q103 935 126.5 945.0Q150 955 186 955Q221 955 240.0 942.0Q259 929 267.0 907.5Q275 886 277.0 861.0Q279 836 279 813V362L116 534Q106 545 100.5 548.0Q95 551 88 551Q84 551 79.5 548.0Q75 545 75 537Q75 532 80.0 514.0Q85 496 92 473L129 359Q132 349 135.5 337.5Q139 326 140 318Q144 294 144 263V81Q144 30 169.0 8.0Q194 -14 229 -14Z" />
  </g>
</svg>