<svg xmlns="http://www.w3.org/2000/svg" viewBox="49 -34 294 1035">
  <g transform="translate(0, 967) scale(1, -1)">
    <path fill="black" d="M196 -34Q189 -34 175.5 -29.5Q162 -25 162 0V622Q136 631 119.0 651.5Q102 672 93.0 696.0Q84 720 80.0 741.0Q76 762 75 772H49V781Q49 795 54.5 816.0Q60 837 75.0 859.0Q90 881 117.0 896.0Q144 911 186 913V952H150V972H186V1001H206V972H242V952H206V913Q248 911 275.0 896.0Q302 881 316.5 859.0Q331 837 337.0 816.0Q343 795 343 781V772H317Q316 762 312.0 741.0Q308 720 298.5 696.0Q289 672 272.0 651.5Q255 631 229 622V0Q229 -25 216.0 -29.5Q203 -34 196 -34ZM69 792H322Q321 801 315.0 818.0Q309 835 296.0 852.5Q283 870 259.0 882.0Q235 894 196 894Q157 894 133.0 882.0Q109 870 95.5 852.5Q82 835 76.5 818.0Q71 801 69 792ZM196 636Q226 636 245.5 652.5Q265 669 276.0 692.5Q287 716 291.5 738.5Q296 761 297 772H94Q96 761 100.5 738.5Q105 716 116.0 692.5Q127 669 146.0 652.5Q165 636 196 636ZM196 -15Q199 -15 204.5 -12.5Q210 -10 210 0V617Q206 617 203.0 616.5Q200 616 196 616Q192 616 188.5 616.5Q185 617 182 617V0Q182 -10 187.5 -12.5Q193 -15 196 -15Z" />
  </g>
</svg>