<svg xmlns="http://www.w3.org/2000/svg" viewBox="59.0 -34 1062.0 1035">
  <g transform="translate(0, 967) scale(1, -1)">
    <path fill="black" d="M580 -34Q573 -34 559.5 -29.5Q546 -25 546 0V457Q527 454 509.5 450.5Q492 447 473 443Q442 439 420.5 435.5Q399 432 370 432Q332 432 304.0 457.0Q276 482 254 507Q241 522 230.5 532.5Q220 543 211 543Q204 543 187.0 539.5Q170 536 150 536Q131 536 110.5 541.0Q90 546 75.5 558.0Q61 570 61 590Q61 602 72.5 620.0Q84 638 114 648L100 665L67 702Q57 713 59.5 728.0Q62 743 82 745Q98 747 108 734L139 700L175 659L236 728Q251 745 267 743Q287 741 289.5 726.0Q292 711 282 700L232 644Q252 634 269.0 618.0Q286 602 300 586Q316 570 329.0 558.5Q342 547 353 547Q364 547 378.0 550.5Q392 554 409 560Q435 568 468.0 576.0Q501 584 546 587V622Q520 631 503.0 651.5Q486 672 476.5 696.0Q467 720 463.0 741.0Q459 762 458 772H433V781Q433 795 438.5 816.0Q444 837 459.0 859.0Q474 881 501.0 896.0Q528 911 570 913V952H534V972H570V1001H589V972H625V952H589V913Q631 911 658.0 896.0Q685 881 700.0 859.0Q715 837 721.0 816.0Q727 795 727 781V772H701Q700 762 696.0 741.0Q692 720 682.5 696.0Q673 672 656.0 651.5Q639 631 613 622V585Q653 580 687.0 566.0Q721 552 752 538Q784 524 808.0 516.5Q832 509 856 508Q891 507 933.0 513.5Q975 520 1012 520Q1037 520 1062.0 516.5Q1087 513 1104.0 506.0Q1121 499 1121 487Q1121 465 1097.0 455.0Q1073 445 1031.5 442.5Q990 440 939 440Q920 440 888.0 442.5Q856 445 820 449Q791 452 753.0 454.5Q715 457 677.5 459.5Q640 462 613 462V0Q613 -25 599.5 -29.5Q586 -34 580 -34ZM453 792H706Q705 801 699.0 818.0Q693 835 680.0 852.5Q667 870 643.0 882.0Q619 894 580 894Q541 894 517.0 882.0Q493 870 479.5 852.5Q466 835 460.5 818.0Q455 801 453 792ZM580 636Q610 636 629.5 652.5Q649 669 660.0 692.5Q671 716 675.5 738.5Q680 761 681 772H478Q479 761 483.5 738.5Q488 716 499.0 692.5Q510 669 529.5 652.5Q549 636 580 636ZM135 654 151 657 125 687 98 717Q91 725 87.0 726.0Q83 727 81 725Q76 720 87 708L114 678ZM213 652 262 707Q272 719 268 723Q263 728 251 715L199 656Q208 655 213 652ZM370 452Q396 452 418.5 455.5Q441 459 470 463Q489 466 508.0 470.0Q527 474 546 477V567Q503 565 471.0 557.0Q439 549 415 541Q396 535 381.0 531.0Q366 527 353 527Q337 527 320.5 541.5Q304 556 287 573Q265 596 238.5 617.5Q212 639 179 639Q142 639 120.0 630.5Q98 622 89.0 610.5Q80 599 80 590Q80 577 91.5 569.0Q103 561 119.5 558.0Q136 555 150 555Q173 555 188.5 559.0Q204 563 212 563Q226 563 239.5 550.0Q253 537 269 520Q289 497 314.0 474.5Q339 452 370 452ZM172 598Q163 598 156.5 602.0Q150 606 150 611Q150 616 156.5 620.5Q163 625 172 625Q181 625 187.5 620.5Q194 616 194 611Q194 606 187.5 602.0Q181 598 172 598ZM580 -15Q582 -15 588.0 -12.5Q594 -10 594 0V617Q590 617 586.5 616.5Q583 616 580 616Q576 616 572.5 616.5Q569 617 565 617V0Q565 -10 571.0 -12.5Q577 -15 580 -15ZM939 459Q960 459 987.0 459.5Q1014 460 1039.0 463.0Q1064 466 1080.0 471.0Q1096 476 1096 485Q1096 490 1072.0 495.0Q1048 500 1012 500Q978 500 936.5 494.0Q895 488 857 488Q831 488 803.5 497.5Q776 507 745 521Q716 535 683.5 548.0Q651 561 613 566V482Q641 482 678.5 479.5Q716 477 754.5 474.0Q793 471 822 468Q859 464 889.5 461.5Q920 459 939 459Z" />
  </g>
</svg>