<svg xmlns="http://www.w3.org/2000/svg" viewBox="49 0 442 1001">
  <g transform="translate(0, 1001) scale(1, -1)">
    <path fill="black" d="M49 0V59H86Q100 81 119.0 114.5Q138 148 154.0 190.5Q170 233 175 282H236V772Q191 784 161.0 814.5Q131 845 116.0 881.5Q101 918 101 948Q101 960 107.0 973.0Q113 986 129 986Q151 986 159 954Q163 941 170.5 918.0Q178 895 193.5 872.5Q209 850 236 838V967Q236 992 249.5 996.5Q263 1001 270 1001Q277 1001 290.5 996.5Q304 992 304 967V282H365Q371 233 386.5 190.5Q402 148 421.0 114.5Q440 81 454 59H491V0ZM256 59H284V967Q284 977 278.5 979.5Q273 982 270 982Q267 982 261.5 979.5Q256 977 256 967ZM236 792V818Q203 829 183.5 853.5Q164 878 154.5 904.5Q145 931 141 949Q139 957 136.5 961.5Q134 966 129 966Q124 966 122.5 959.5Q121 953 121 948Q121 922 134.0 889.5Q147 857 173.0 830.0Q199 803 236 792ZM109 59H131Q152 91 175.5 137.5Q199 184 205 238H236V263H192Q182 198 157.0 145.5Q132 93 109 59ZM409 59H430Q408 93 383.0 145.5Q358 198 348 263H304V238H335Q341 184 364.5 137.5Q388 91 409 59ZM154 59H236V219H222Q213 172 193.5 131.5Q174 91 154 59ZM304 59H385Q365 91 346.0 131.5Q327 172 318 219H304ZM68 20H472V40H68Z" />
  </g>
</svg>