<svg xmlns="http://www.w3.org/2000/svg" viewBox="49 170 1345 624">
  <g transform="translate(0, 964) scale(1, -1)">
    <path fill="black" d="M1289 170Q1287 181 1278.5 218.5Q1270 256 1249.5 307.0Q1229 358 1189 407Q1146 462 1124.5 502.5Q1103 543 1096.0 574.5Q1089 606 1089 631Q1089 707 1135.0 750.5Q1181 794 1255 794Q1316 794 1355.0 760.0Q1394 726 1394 670Q1394 636 1378.0 608.0Q1362 580 1334.5 563.5Q1307 547 1273 547Q1245 547 1218.0 559.5Q1191 572 1174 603L1191 613Q1204 586 1227.5 576.5Q1251 567 1273 567Q1317 567 1346.0 597.0Q1375 627 1375 670Q1375 714 1342.5 744.5Q1310 775 1255 775Q1190 775 1149.0 737.0Q1108 699 1108 631Q1108 603 1116.0 573.0Q1124 543 1145.0 506.0Q1166 469 1206 417Q1241 373 1261.0 328.0Q1281 283 1292.0 243.0Q1303 203 1308 173ZM249 170Q247 181 238.5 218.5Q230 256 209.5 307.0Q189 358 149 407Q106 462 84.5 502.5Q63 543 56.0 574.5Q49 606 49 631Q49 707 95.0 750.5Q141 794 215 794Q276 794 315.0 760.0Q354 726 354 670Q354 636 338.0 608.0Q322 580 294.5 563.5Q267 547 233 547Q205 547 178.0 559.5Q151 572 134 603L151 613Q164 586 187.5 576.5Q211 567 233 567Q277 567 305.5 597.0Q334 627 334 670Q334 714 302.0 744.5Q270 775 215 775Q150 775 109.0 737.0Q68 699 68 631Q68 603 76.0 573.0Q84 543 105.0 506.0Q126 469 166 417Q201 373 221.0 328.0Q241 283 252.0 243.0Q263 203 268 173ZM595 170Q593 181 584.5 218.5Q576 256 555.5 307.0Q535 358 496 407Q453 462 431.5 502.5Q410 543 403.0 574.5Q396 606 396 631Q396 707 441.5 750.5Q487 794 562 794Q623 794 662.0 760.0Q701 726 701 670Q701 636 685.0 608.0Q669 580 641.5 563.5Q614 547 580 547Q552 547 524.5 559.5Q497 572 481 603L498 613Q511 586 534.5 576.5Q558 567 580 567Q623 567 652.0 597.0Q681 627 681 670Q681 714 648.5 744.5Q616 775 562 775Q497 775 456.0 737.0Q415 699 415 631Q415 603 423.0 573.0Q431 543 452.0 506.0Q473 469 513 417Q548 373 568.0 328.0Q588 283 599.0 243.0Q610 203 615 173ZM942 170Q940 181 931.5 218.5Q923 256 902.5 307.0Q882 358 843 407Q800 462 778.0 502.5Q756 543 749.0 574.5Q742 606 742 631Q742 707 788.0 750.5Q834 794 909 794Q969 794 1008.0 760.0Q1047 726 1047 670Q1047 618 1012.5 582.5Q978 547 926 547Q899 547 871.5 559.5Q844 572 828 603L844 613Q858 586 881.0 576.5Q904 567 926 567Q970 567 999.0 597.0Q1028 627 1028 670Q1028 714 995.5 744.5Q963 775 909 775Q844 775 803.0 737.0Q762 699 762 631Q762 603 770.0 573.0Q778 543 799.0 506.0Q820 469 859 417Q911 350 932.5 284.0Q954 218 961 173Z" />
  </g>
</svg>