<svg xmlns="http://www.w3.org/2000/svg" viewBox="49 -25 1148 1026">
  <g transform="translate(0, 976) scale(1, -1)">
    <path fill="black" d="M1113 512Q1101 571 1081.0 616.0Q1061 661 1028 707Q994 754 979.0 783.0Q964 812 960.5 832.5Q957 853 957 873Q957 932 994.5 966.5Q1032 1001 1090 1001Q1138 1001 1167.5 974.0Q1197 947 1197 903Q1197 864 1170.5 835.0Q1144 806 1106 806Q1081 806 1058.0 816.0Q1035 826 1022 852L1038 861Q1048 839 1067.0 832.0Q1086 825 1106 825Q1135 825 1156.5 848.5Q1178 872 1178 903Q1178 934 1154.5 958.0Q1131 982 1090 982Q1039 982 1008.0 953.5Q977 925 977 873Q977 840 989.5 805.0Q1002 770 1045 714Q1089 656 1107.0 603.0Q1125 550 1130 515ZM811 512Q798 571 778.0 616.0Q758 661 725 707Q691 754 676.0 783.0Q661 812 657.5 832.5Q654 853 654 873Q654 932 691.5 966.5Q729 1001 788 1001Q835 1001 865.0 974.0Q895 947 895 903Q895 864 868.0 835.0Q841 806 804 806Q778 806 755.0 816.0Q732 826 720 852L735 861Q746 839 764.5 832.0Q783 825 804 825Q833 825 854.0 848.5Q875 872 875 903Q875 934 852.0 958.0Q829 982 788 982Q736 982 705.0 953.5Q674 925 674 873Q674 840 687.0 805.0Q700 770 742 714Q787 656 804.5 603.0Q822 550 828 515ZM508 512Q495 571 475.0 616.0Q455 661 422 707Q388 754 373.5 783.0Q359 812 355.5 832.5Q352 853 352 873Q352 932 389.5 966.5Q427 1001 485 1001Q532 1001 562.0 974.0Q592 947 592 903Q592 864 565.0 835.0Q538 806 501 806Q475 806 452.5 816.0Q430 826 417 852L433 861Q443 839 462.0 832.0Q481 825 501 825Q530 825 551.0 848.5Q572 872 572 903Q572 934 549.0 958.0Q526 982 485 982Q434 982 402.5 953.5Q371 925 371 873Q371 840 384.0 805.0Q397 770 439 714Q484 656 501.5 603.0Q519 550 525 515ZM205 512Q192 571 172.5 616.0Q153 661 120 707Q86 754 71.0 783.0Q56 812 52.5 832.5Q49 853 49 873Q49 932 86.5 966.5Q124 1001 182 1001Q230 1001 259.5 974.0Q289 947 289 903Q289 864 262.5 835.0Q236 806 198 806Q173 806 150.0 816.0Q127 826 114 852L130 861Q140 839 159.0 832.0Q178 825 198 825Q227 825 248.5 848.5Q270 872 270 903Q270 934 246.5 958.0Q223 982 182 982Q131 982 99.5 953.5Q68 925 68 873Q68 840 81.0 805.0Q94 770 137 714Q181 656 198.5 603.0Q216 550 222 515ZM703 -25Q691 34 671.0 79.0Q651 124 618 169Q584 216 569.0 245.5Q554 275 550.5 295.5Q547 316 547 336Q547 395 584.5 429.5Q622 464 680 464Q728 464 757.5 437.0Q787 410 787 366Q787 327 760.5 298.0Q734 269 696 269Q671 269 648.0 279.0Q625 289 612 314L628 324Q638 302 657.0 295.0Q676 288 696 288Q725 288 746.5 311.5Q768 335 768 366Q768 397 744.5 421.0Q721 445 680 445Q629 445 597.5 416.5Q566 388 566 336Q566 303 579.0 267.5Q592 232 635 177Q679 119 696.5 66.0Q714 13 720 -22ZM1006 -25Q993 34 973.0 79.0Q953 124 920 169Q886 216 871.5 245.5Q857 275 853.5 295.5Q850 316 850 336Q850 395 887.5 429.5Q925 464 983 464Q1030 464 1060.0 437.0Q1090 410 1090 366Q1090 327 1063.0 298.0Q1036 269 999 269Q973 269 950.5 279.0Q928 289 915 314L931 324Q941 302 960.0 295.0Q979 288 999 288Q1028 288 1049.0 311.5Q1070 335 1070 366Q1070 397 1047.0 421.0Q1024 445 983 445Q932 445 900.5 416.5Q869 388 869 336Q869 303 882.0 267.5Q895 232 938 177Q982 119 999.5 66.0Q1017 13 1023 -22ZM400 -25Q388 34 368.0 79.0Q348 124 315 169Q281 216 266.0 245.5Q251 275 247.5 295.5Q244 316 244 336Q244 395 281.5 429.5Q319 464 377 464Q425 464 454.5 437.0Q484 410 484 366Q484 327 457.5 298.0Q431 269 394 269Q368 269 345.0 279.0Q322 289 310 314L325 324Q335 302 354.0 295.0Q373 288 394 288Q423 288 444.0 311.5Q465 335 465 366Q465 397 441.5 421.0Q418 445 377 445Q326 445 295.0 416.5Q264 388 264 336Q264 303 276.5 267.5Q289 232 332 177Q377 119 394.5 66.0Q412 13 417 -22Z" />
  </g>
</svg>