<svg xmlns="http://www.w3.org/2000/svg" viewBox="49 205 1451 488">
  <g transform="translate(0, 898) scale(1, -1)">
    <path fill="black" d="M811 205Q798 263 778.0 308.5Q758 354 725 399Q691 446 676.0 475.5Q661 505 657.5 525.5Q654 546 654 565Q654 625 691.5 659.0Q729 693 788 693Q835 693 865.0 666.5Q895 640 895 596Q895 556 868.0 527.5Q841 499 804 499Q778 499 755.0 508.5Q732 518 720 544L735 553Q746 531 764.5 524.0Q783 517 804 517Q833 517 854.0 541.0Q875 565 875 596Q875 627 852.0 651.0Q829 675 788 675Q736 675 705.0 646.5Q674 618 674 565Q674 532 687.0 497.0Q700 462 742 407Q787 349 804.5 295.5Q822 242 828 208ZM205 205Q192 263 172.5 308.5Q153 354 120 399Q86 446 71.0 475.5Q56 505 52.5 525.5Q49 546 49 565Q49 625 86.5 659.0Q124 693 182 693Q230 693 259.5 666.5Q289 640 289 596Q289 556 262.5 527.5Q236 499 198 499Q173 499 150.0 508.5Q127 518 114 544L130 553Q140 531 159.0 524.0Q178 517 198 517Q227 517 248.5 541.0Q270 565 270 596Q270 627 246.5 651.0Q223 675 182 675Q131 675 99.5 646.5Q68 618 68 565Q68 532 81.0 497.0Q94 462 137 407Q181 349 198.5 295.5Q216 242 222 208ZM508 205Q495 263 475.0 308.5Q455 354 422 399Q388 446 373.5 475.5Q359 505 355.5 525.5Q352 546 352 565Q352 625 389.5 659.0Q427 693 485 693Q532 693 562.0 666.5Q592 640 592 596Q592 556 565.0 527.5Q538 499 501 499Q475 499 452.5 508.5Q430 518 417 544L433 553Q443 531 462.0 524.0Q481 517 501 517Q530 517 551.0 541.0Q572 565 572 596Q572 627 549.0 651.0Q526 675 485 675Q434 675 402.5 646.5Q371 618 371 565Q371 532 384.0 497.0Q397 462 439 407Q484 349 501.5 295.5Q519 242 525 208ZM1113 205Q1101 263 1081.0 308.5Q1061 354 1028 399Q994 446 979.0 475.5Q964 505 960.5 525.5Q957 546 957 565Q957 625 994.5 659.0Q1032 693 1090 693Q1138 693 1167.5 666.5Q1197 640 1197 596Q1197 556 1170.5 527.5Q1144 499 1106 499Q1081 499 1058.0 508.5Q1035 518 1022 544L1038 553Q1048 531 1067.0 524.0Q1086 517 1106 517Q1135 517 1156.5 541.0Q1178 565 1178 596Q1178 627 1154.5 651.0Q1131 675 1090 675Q1039 675 1008.0 646.5Q977 618 977 565Q977 532 989.5 497.0Q1002 462 1045 407Q1089 349 1107.0 295.5Q1125 242 1130 208ZM1416 205Q1403 263 1383.5 308.5Q1364 354 1331 399Q1297 446 1282.0 475.5Q1267 505 1263.5 525.5Q1260 546 1260 565Q1260 625 1297.5 659.0Q1335 693 1393 693Q1441 693 1470.5 666.5Q1500 640 1500 596Q1500 556 1473.0 527.5Q1446 499 1409 499Q1384 499 1361.0 508.5Q1338 518 1325 544L1341 553Q1351 531 1370.0 524.0Q1389 517 1409 517Q1438 517 1459.0 541.0Q1480 565 1480 596Q1480 627 1457.0 651.0Q1434 675 1393 675Q1342 675 1310.5 646.5Q1279 618 1279 565Q1279 532 1292.0 497.0Q1305 462 1348 407Q1392 349 1409.5 295.5Q1427 242 1433 208Z" />
  </g>
</svg>