<svg xmlns="http://www.w3.org/2000/svg" viewBox="49 170 529 624">
  <g transform="translate(0, 964) scale(1, -1)">
    <path fill="black" d="M380 170Q378 181 369.5 218.5Q361 256 340.5 307.0Q320 358 281 407L271 420H49V489H224Q197 536 189.0 569.5Q181 603 181 631Q181 707 227.0 750.5Q273 794 347 794Q408 794 447.0 760.0Q486 726 486 670Q486 636 470.0 608.0Q454 580 426.5 563.5Q399 547 365 547Q337 547 310.0 559.5Q283 572 266 603L283 613Q296 586 319.5 576.5Q343 567 365 567Q408 567 437.0 597.0Q466 627 466 670Q466 714 433.5 744.5Q401 775 347 775Q282 775 241.0 737.0Q200 699 200 631Q200 600 209.5 566.5Q219 533 247 489H578V420H295Q331 374 352.0 328.5Q373 283 384.0 243.0Q395 203 400 173ZM68 439H256Q251 447 246.0 454.5Q241 462 236 469H68ZM281 439H558V469H260Q265 462 270.0 454.5Q275 447 281 439Z" />
  </g>
</svg>