<svg xmlns="http://www.w3.org/2000/svg" viewBox="49 -1 775 848">
  <g transform="translate(0, 846) scale(1, -1)">
    <path fill="black" d="M746 -1Q652 78 570.0 171.0Q488 264 419 368L154 147L116 193L389 420Q364 461 341.0 502.0Q318 543 289 604Q277 602 247.0 597.0Q217 592 184.0 588.0Q151 584 128 584Q97 584 73.5 593.0Q50 602 49 630Q49 655 56.5 666.0Q64 677 73.0 680.5Q82 684 85 684Q92 684 105.5 679.5Q119 675 125 675Q136 675 156.0 680.0Q176 685 195.5 692.5Q215 700 225 706Q230 708 234.0 714.0Q238 720 238 729Q238 735 229.5 755.5Q221 776 221 796Q221 812 231.0 829.5Q241 847 274 847Q307 847 325.5 832.5Q344 818 351.5 797.5Q359 777 361.0 757.0Q363 737 363 726Q363 707 355.0 682.5Q347 658 342 648Q343 637 358.5 607.0Q374 577 397.0 539.5Q420 502 442 465L703 682L741 637L474 414Q540 323 602.0 260.0Q664 197 720.5 154.0Q777 111 824 78ZM745 28 791 74Q760 97 717.5 131.0Q675 165 627.0 209.0Q579 253 533.0 306.0Q487 359 449 418L714 639L701 655L437 436Q419 465 399.0 498.0Q379 531 361.5 562.0Q344 593 333.0 616.0Q322 639 322 648Q326 655 335.0 680.0Q344 705 344 726Q344 736 342.0 753.0Q340 770 333.0 787.0Q326 804 312.0 816.0Q298 828 274 828Q261 828 250.5 820.5Q240 813 240 796Q240 773 248.5 757.5Q257 742 257 729Q257 714 252.5 705.0Q248 696 243 694Q233 687 209.5 678.0Q186 669 162.0 662.5Q138 656 125 656Q112 656 102.0 660.0Q92 664 84 664Q82 664 75.0 656.5Q68 649 69 630Q69 614 87.0 609.0Q105 604 128 604Q147 604 177.5 607.5Q208 611 241.0 616.5Q274 622 300 627Q334 558 359.0 510.5Q384 463 414 416L144 190L156 175L424 398Q460 344 493.0 298.5Q526 253 562.0 210.0Q598 167 642.5 123.0Q687 79 745 28Z" />
  </g>
</svg>