<svg xmlns="http://www.w3.org/2000/svg" viewBox="49 170 1207 627">
  <g transform="translate(0, 967) scale(1, -1)">
    <path fill="black" d="M320 170Q314 241 289.5 302.5Q265 364 235 401H49V460H195Q163 515 153.0 552.5Q143 590 143 624Q143 704 189.0 750.5Q235 797 308 797Q370 797 409.5 759.0Q449 721 449 660Q449 621 432.5 590.0Q416 559 387.5 541.0Q359 523 323 523Q295 523 264.0 541.0Q233 559 210 605L262 640Q276 609 292.5 597.5Q309 586 323 586Q352 586 370.5 607.5Q389 629 389 660Q389 692 367.5 714.5Q346 737 308 737Q262 737 232.5 706.5Q203 676 203 624Q203 589 214.0 557.5Q225 526 240.0 501.5Q255 477 267 460H552Q520 515 510.0 552.5Q500 590 500 624Q500 704 545.5 750.5Q591 797 665 797Q727 797 766.5 759.0Q806 721 806 660Q806 621 789.0 590.0Q772 559 743.5 541.0Q715 523 680 523Q651 523 620.5 541.0Q590 559 567 605L618 640Q632 609 649.0 597.5Q666 586 680 586Q709 586 727.5 607.5Q746 629 746 660Q746 692 724.0 714.5Q702 737 665 737Q619 737 589.5 706.5Q560 676 560 624Q560 589 571.0 557.5Q582 526 597.0 501.5Q612 477 624 460H908Q876 515 866.0 552.5Q856 590 856 624Q856 704 902.0 750.5Q948 797 1021 797Q1083 797 1122.5 759.0Q1162 721 1162 660Q1162 621 1145.5 590.0Q1129 559 1100.5 541.0Q1072 523 1036 523Q1008 523 977.0 541.0Q946 559 923 605L975 640Q989 609 1005.5 597.5Q1022 586 1036 586Q1065 586 1083.5 607.5Q1102 629 1102 660Q1102 692 1080.5 714.5Q1059 737 1021 737Q975 737 945.5 706.5Q916 676 916 624Q916 589 927.0 557.5Q938 526 953.5 501.5Q969 477 980 460H1256V401H1019Q1051 345 1067.5 285.0Q1084 225 1091 180L1033 170Q1026 241 1002.0 302.5Q978 364 948 401H663Q695 345 711.0 285.0Q727 225 734 180L676 170Q670 241 646.0 302.5Q622 364 592 401H306Q338 345 354.5 285.0Q371 225 378 180ZM931 460H957Q922 513 909.0 550.0Q896 587 896 624Q896 686 931.0 721.0Q966 756 1021 756Q1067 756 1094.5 728.0Q1122 700 1122 660Q1122 620 1097.0 593.0Q1072 566 1036 566Q1017 566 997.5 575.5Q978 585 966 610L949 598Q963 567 987.5 555.0Q1012 543 1036 543Q1082 543 1112.5 576.5Q1143 610 1143 660Q1143 712 1108.5 745.0Q1074 778 1021 778Q956 778 915.5 736.5Q875 695 875 624Q875 599 879.0 576.0Q883 553 895.5 526.0Q908 499 931 460ZM574 460H600Q566 513 553.0 550.0Q540 587 540 624Q540 686 575.0 721.0Q610 756 665 756Q711 756 738.0 728.0Q765 700 765 660Q765 620 740.5 593.0Q716 566 680 566Q661 566 641.0 575.5Q621 585 610 610L592 598Q607 567 631.0 555.0Q655 543 680 543Q725 543 755.5 576.5Q786 610 786 660Q786 712 752.0 745.0Q718 778 665 778Q600 778 559.5 736.5Q519 695 519 624Q519 599 523.0 576.0Q527 553 539.0 526.0Q551 499 574 460ZM218 460H244Q209 513 196.5 550.0Q184 587 184 624Q184 686 218.5 721.0Q253 756 308 756Q354 756 381.5 728.0Q409 700 409 660Q409 620 384.5 593.0Q360 566 323 566Q304 566 284.5 575.5Q265 585 253 610L236 598Q250 567 274.5 555.0Q299 543 323 543Q369 543 399.5 576.5Q430 610 430 660Q430 712 395.5 745.0Q361 778 308 778Q243 778 203.0 736.5Q163 695 163 624Q163 599 167.0 576.0Q171 553 183.0 526.0Q195 499 218 460ZM68 421H1237V441H68ZM335 190 357 194Q350 235 335.0 288.0Q320 341 284 401H259Q285 365 301.0 321.0Q317 277 325.5 241.0Q334 205 335 190ZM691 190 714 194Q707 235 691.5 288.0Q676 341 640 401H615Q641 365 657.0 321.0Q673 277 681.5 241.0Q690 205 691 190ZM1048 190 1070 194Q1063 235 1047.5 288.0Q1032 341 997 401H972Q998 365 1014.0 321.0Q1030 277 1038.5 241.0Q1047 205 1048 190Z" />
  </g>
</svg>