<svg xmlns="http://www.w3.org/2000/svg" viewBox="49 -19 1035 1019">
  <g transform="translate(0, 981) scale(1, -1)">
    <path fill="black" d="M1070 -19Q1009 36 969.5 115.0Q930 194 912 270Q906 296 899.5 343.0Q893 390 888.0 447.5Q883 505 879.0 563.0Q875 621 872.5 670.5Q870 720 870 750Q870 789 858.0 829.5Q846 870 816.5 904.5Q787 939 734.5 960.0Q682 981 600 981Q532 981 483.5 959.0Q435 937 404.0 902.5Q373 868 358.5 829.0Q344 790 344 756L347 409Q392 450 443.0 475.0Q494 500 543 500Q564 500 589.0 494.5Q614 489 632.0 474.5Q650 460 650 432Q650 406 636.5 390.5Q623 375 603.5 367.0Q584 359 564.5 356.5Q545 354 532 354Q497 354 455.5 360.5Q414 367 372 377Q389 354 408.0 319.0Q427 284 441.0 245.5Q455 207 455 171Q455 118 434.5 87.0Q414 56 384.0 43.0Q354 30 325 30Q285 30 257.5 49.0Q230 68 216.5 99.0Q203 130 203 164Q203 217 236.5 275.0Q270 333 319 383L325 390Q311 394 297.5 398.5Q284 403 271 407Q188 435 131.0 461.0Q74 487 49 500L60 517Q69 511 102.5 495.5Q136 480 182.0 461.0Q228 442 274 426Q288 422 301.0 417.5Q314 413 327 409L325 756Q325 791 339.5 833.0Q354 875 387.0 913.0Q420 951 472.5 975.5Q525 1000 600 1000Q687 1000 744.0 976.5Q801 953 833.0 915.0Q865 877 877.5 833.0Q890 789 889 748Q889 719 891.0 670.0Q893 621 897.0 563.5Q901 506 906.5 449.0Q912 392 918.5 345.0Q925 298 931 271Q949 195 987.5 120.5Q1026 46 1084 -5ZM532 374Q534 374 549.5 375.0Q565 376 583.5 380.5Q602 385 616.0 397.5Q630 410 630 432Q630 451 616.0 461.0Q602 471 582.0 475.5Q562 480 543 480Q503 480 456.5 458.5Q410 437 364 398Q408 387 451.5 380.5Q495 374 532 374ZM325 50Q345 50 371.0 60.0Q397 70 416.5 96.0Q436 122 436 171Q436 209 420.0 249.5Q404 290 383.0 325.0Q362 360 346 382L338 375Q308 346 281.5 310.0Q255 274 238.5 236.5Q222 199 222 164Q222 116 249.0 83.0Q276 50 325 50Z" />
  </g>
</svg>