<svg xmlns="http://www.w3.org/2000/svg" viewBox="49 -4 537 1005">
  <g transform="translate(0, 997) scale(1, -1)">
    <path fill="black" d="M219 -4Q203 -4 181.5 3.0Q160 10 144.5 36.5Q129 63 129 120Q129 166 154.0 219.0Q179 272 209 319Q193 348 177.0 374.0Q161 400 147 421Q122 463 99.5 504.0Q77 545 63.0 596.5Q49 648 49 719Q49 797 73.5 861.0Q98 925 156.5 963.0Q215 1001 316 1001Q418 1001 477.0 963.0Q536 925 561.0 861.0Q586 797 586 719Q586 645 570.0 590.0Q554 535 531.0 494.5Q508 454 488 421Q486 418 468.0 389.5Q450 361 427 320Q446 292 464.5 258.0Q483 224 495.5 188.5Q508 153 508 120Q508 78 498.0 53.0Q488 28 473.5 15.5Q459 3 443.5 -0.5Q428 -4 416 -4Q399 -4 379.0 3.0Q359 10 345.0 35.0Q331 60 331 114Q331 159 353.5 213.5Q376 268 404 319Q388 345 375.0 362.5Q362 380 358 386Q351 397 340.5 410.5Q330 424 318 440Q308 426 298.0 413.0Q288 400 279 387Q269 373 257.0 356.0Q245 339 232 320Q261 271 284.5 216.0Q308 161 308 114Q308 88 300.5 60.5Q293 33 273.5 14.5Q254 -4 219 -4ZM416 338Q433 367 448.0 392.0Q463 417 473 435Q490 463 511.5 500.5Q533 538 549.5 591.5Q566 645 566 719Q566 794 543.0 853.0Q520 912 465.5 946.5Q411 981 316 981Q225 981 170.5 948.0Q116 915 92.0 857.5Q68 800 68 726Q68 654 84.0 600.0Q100 546 122.5 506.5Q145 467 163 435Q173 418 188.5 393.0Q204 368 222 339Q232 354 241.5 367.5Q251 381 259 393L306 457Q282 492 258.0 534.0Q234 576 218.0 622.0Q202 668 202 714Q202 757 216.0 781.5Q230 806 249.5 818.0Q269 830 287.5 833.5Q306 837 316 837Q327 837 346.5 834.0Q366 831 386.0 819.0Q406 807 420.0 782.5Q434 758 434 714Q434 641 402.0 577.0Q370 513 331 458Q361 417 376 393Q379 389 390.0 374.5Q401 360 416 338ZM319 475Q355 527 385.0 587.0Q415 647 415 714Q415 753 402.5 774.0Q390 795 372.0 804.5Q354 814 338.0 816.0Q322 818 316 818Q312 818 296.5 816.0Q281 814 264.0 805.0Q247 796 234.0 774.5Q221 753 221 714Q221 672 236.0 629.5Q251 587 273.5 548.0Q296 509 319 475ZM219 15Q231 15 247.0 22.0Q263 29 275.5 50.5Q288 72 288 114Q288 154 267.5 203.5Q247 253 220 301Q192 257 170.5 209.0Q149 161 149 120Q149 81 157.5 59.5Q166 38 178.5 28.5Q191 19 202.5 17.0Q214 15 219 15ZM416 15Q421 15 432.5 17.0Q444 19 456.5 28.5Q469 38 478.5 59.5Q488 81 488 120Q488 146 477.5 176.5Q467 207 450.5 239.0Q434 271 417 299Q392 253 371.5 202.0Q351 151 351 114Q351 77 359.0 57.0Q367 37 378.5 28.0Q390 19 400.5 17.0Q411 15 416 15Z" />
  </g>
</svg>