<svg xmlns="http://www.w3.org/2000/svg" viewBox="49 136 315 690">
  <g transform="translate(0, 962) scale(1, -1)">
    <path fill="black" d="M207 136Q134 136 98.5 188.5Q63 241 63 325Q63 366 74.0 404.0Q85 442 100.0 474.5Q115 507 129.0 530.0Q143 553 150 563Q154 568 166.0 584.0Q178 600 194 622Q170 654 141.5 691.5Q113 729 88.0 762.5Q63 796 49 814L64 826Q82 803 107.0 770.0Q132 737 158.5 702.5Q185 668 207 639Q229 668 255.0 702.5Q281 737 306.0 770.0Q331 803 349 826L364 814Q350 796 324.5 762.5Q299 729 271.0 691.5Q243 654 219 622Q232 606 246.0 586.5Q260 567 263 563Q270 553 284.0 530.0Q298 507 313.5 474.5Q329 442 339.5 404.0Q350 366 350 325Q350 241 317.0 188.5Q284 136 207 136ZM207 155Q269 155 300.0 200.5Q331 246 331 325Q331 364 319.5 403.0Q308 442 291.5 474.5Q275 507 260.5 530.0Q246 553 241 560Q233 570 207 605Q194 589 185.5 577.0Q177 565 172 560Q167 553 152.5 530.0Q138 507 122.0 474.5Q106 442 94.5 403.0Q83 364 83 325Q83 246 114.5 200.5Q146 155 207 155Z" />
  </g>
</svg>