<svg xmlns="http://www.w3.org/2000/svg" viewBox="49 136 317 690">
  <g transform="translate(0, 962) scale(1, -1)">
    <path fill="black" d="M65 136 49 146Q60 165 77.0 195.5Q94 226 115.0 262.0Q136 298 156.5 333.5Q177 369 195 397Q188 408 180.0 421.5Q172 435 170 438Q158 459 138.5 494.5Q119 530 103.5 575.0Q88 620 88 666Q88 739 119.0 782.5Q150 826 208 826Q247 826 270.5 810.5Q294 795 306.0 770.0Q318 745 322.5 717.5Q327 690 327 666Q327 620 311.5 575.0Q296 530 276.5 494.5Q257 459 244 438Q241 434 234.5 423.0Q228 412 219 397Q236 369 257.0 334.0Q278 299 299.0 263.0Q320 227 338.0 196.0Q356 165 366 146L350 136Q331 169 305.0 213.0Q279 257 253.0 301.0Q227 345 207 377Q188 345 162.0 301.0Q136 257 110.0 213.0Q84 169 65 136ZM207 418Q211 425 214.5 431.0Q218 437 221 441Q229 454 243.5 478.5Q258 503 272.5 534.0Q287 565 297.0 599.5Q307 634 307 666Q307 745 277.0 776.0Q247 807 208 807Q162 807 135.0 770.5Q108 734 108 666Q108 634 118.0 599.5Q128 565 143.0 534.0Q158 503 172.0 478.5Q186 454 193 441Z" />
  </g>
</svg>