<svg xmlns="http://www.w3.org/2000/svg" viewBox="49 0 401 1001">
  <g transform="translate(0, 1001) scale(1, -1)">
    <path fill="black" d="M49 0V20H240V562Q206 527 170.0 493.0Q134 459 101 432L88 448Q124 477 160.5 511.5Q197 546 233 583Q201 624 171.5 666.5Q142 709 124.0 752.0Q106 795 106 836Q106 893 129.0 929.5Q152 966 185.5 983.5Q219 1001 250 1001Q281 1001 314.0 984.0Q347 967 370.0 931.0Q393 895 393 836Q393 795 375.0 752.0Q357 709 328.0 666.5Q299 624 266 583Q302 545 341.0 511.0Q380 477 416 448L403 432Q369 460 331.5 492.5Q294 525 259 562V20H450V0ZM250 596Q282 632 310.0 673.5Q338 715 355.5 757.5Q373 800 373 836Q373 888 353.5 919.5Q334 951 305.5 966.0Q277 981 250 981Q223 981 194.0 965.5Q165 950 145.5 918.5Q126 887 126 838Q126 801 144.0 758.5Q162 716 190.5 674.0Q219 632 250 596Z" />
  </g>
</svg>