<svg xmlns="http://www.w3.org/2000/svg" viewBox="49 -1 462 1002">
  <g transform="translate(0, 1000) scale(1, -1)">
    <path fill="black" d="M65 -1 49 8Q105 103 159.5 199.5Q214 296 269 393Q264 402 258.5 411.0Q253 420 248 430Q213 492 183.5 545.5Q154 599 136.5 653.0Q119 707 119 768Q119 836 137.0 888.5Q155 941 191.0 971.0Q227 1001 280 1001Q334 1001 369.5 971.0Q405 941 422.5 888.5Q440 836 440 768Q440 707 423.0 653.0Q406 599 377.0 545.5Q348 492 312 430L291 393Q346 296 400.5 199.5Q455 103 511 8L494 -1Q438 93 385.5 186.5Q333 280 280 373Q227 280 174.0 186.5Q121 93 65 -1ZM280 412 295 439Q329 499 357.5 552.0Q386 605 403.5 657.5Q421 710 421 768Q421 830 405.0 878.0Q389 926 358.0 953.5Q327 981 280 981Q234 981 202.5 953.5Q171 926 155.0 878.0Q139 830 139 768Q139 710 156.5 657.5Q174 605 202.5 552.0Q231 499 264 439Q268 432 272.0 425.5Q276 419 280 412ZM166 836Q166 845 171.0 862.5Q176 880 188.0 899.5Q200 919 222.5 932.5Q245 946 281 946Q317 946 340.0 932.5Q363 919 375.5 899.5Q388 880 392.5 862.5Q397 845 397 836ZM189 855H374Q371 867 361.0 883.5Q351 900 332.0 913.0Q313 926 281 926Q248 926 229.5 913.0Q211 900 202.0 883.5Q193 867 189 855Z" />
  </g>
</svg>