<svg xmlns="http://www.w3.org/2000/svg" viewBox="49 165 583 628">
  <g transform="translate(0, 958) scale(1, -1)">
    <path fill="black" d="M69 165V250H194Q129 288 89.0 354.5Q49 421 49 502Q49 562 71.5 615.0Q94 668 134.0 708.0Q174 748 227.0 770.5Q280 793 340 793Q400 793 453.0 770.5Q506 748 546.5 708.0Q587 668 609.5 615.0Q632 562 632 502Q632 421 591.5 354.5Q551 288 486 250H611V165ZM89 184H592V230H383V233Q447 244 499.0 282.5Q551 321 581.5 378.0Q612 435 612 502Q612 558 590.5 607.0Q569 656 531.5 693.5Q494 731 445.0 752.5Q396 774 340 774Q284 774 235.0 752.5Q186 731 148.5 693.5Q111 656 89.5 607.0Q68 558 68 502Q68 435 98.5 377.5Q129 320 181.0 282.0Q233 244 297 233V230H89ZM340 283Q280 283 230.0 312.5Q180 342 150.5 392.0Q121 442 121 502Q121 563 150.5 612.5Q180 662 230.0 691.5Q280 721 340 721Q401 721 450.5 691.5Q500 662 530.0 612.5Q560 563 560 502Q560 442 530.0 392.0Q500 342 450.5 312.5Q401 283 340 283ZM340 302Q395 302 440.5 329.0Q486 356 513.5 401.5Q541 447 541 502Q541 557 513.5 602.5Q486 648 440.5 675.0Q395 702 340 702Q285 702 239.5 675.0Q194 648 167.0 602.5Q140 557 140 502Q140 447 167.0 401.5Q194 356 239.5 329.0Q285 302 340 302Z" />
  </g>
</svg>