<svg xmlns="http://www.w3.org/2000/svg" viewBox="49 187 430 419">
  <g transform="translate(0, 793) scale(1, -1)">
    <path fill="black" d="M49 187V606H126V574Q146 594 176.0 600.0Q206 606 249 606H479V542H241Q187 542 159.5 518.5Q132 495 122.5 461.0Q113 427 113 396Q113 373 118.0 347.5Q123 322 136.5 300.0Q150 278 175.5 264.0Q201 250 241 250H479V187H249Q206 187 176.0 193.5Q146 200 126 219V187ZM68 207H107V270Q130 229 169.5 218.0Q209 207 259 207H459V231H241Q195 231 166.0 247.0Q137 263 121.0 288.0Q105 313 99.5 342.0Q94 371 94 396Q94 422 99.5 451.0Q105 480 121.0 505.0Q137 530 166.0 546.0Q195 562 241 562H459V586H259Q209 586 170.5 576.5Q132 567 107 523V586H68Z" />
  </g>
</svg>