<svg xmlns="http://www.w3.org/2000/svg" viewBox="50 -260 503 1227">
  <g transform="translate(0, 707) scale(1, -1)">
    <path fill="black" d="M483 273V434Q483 529 460.0 612.5Q437 696 396.0 760.0Q355 824 301.5 860.5Q248 897 188 897H50V967H188Q264 967 330.5 925.5Q397 884 447.0 810.5Q497 737 525.0 640.5Q553 544 553 434V273Q553 163 525.0 66.5Q497 -30 447.0 -103.5Q397 -177 330.5 -218.5Q264 -260 188 -260H50V-190H188Q248 -190 301.5 -153.5Q355 -117 396.0 -53.0Q437 11 460.0 94.5Q483 178 483 273ZM502 434V273Q502 174 477.5 86.5Q453 -1 409.5 -67.5Q366 -134 309.5 -171.5Q253 -209 188 -209H68V-241H188Q258 -241 320.5 -201.5Q383 -162 431.0 -92.0Q479 -22 506.5 71.5Q534 165 534 273V434Q534 542 506.5 635.5Q479 729 431.0 799.0Q383 869 320.5 908.5Q258 948 188 948H68V916H188Q253 916 309.5 878.5Q366 841 409.5 774.5Q453 708 477.5 620.5Q502 533 502 434Z" />
  </g>
</svg>