<svg xmlns="http://www.w3.org/2000/svg" viewBox="49 173 707 437">
  <g transform="translate(0, 783) scale(1, -1)">
    <path fill="black" d="M729 173Q715 173 700.5 184.5Q686 196 666 215Q639 241 599.0 275.0Q559 309 509.5 342.0Q460 375 403.5 396.5Q347 418 286 418Q264 418 241.0 414.0Q218 410 193 410Q158 410 124.5 423.5Q91 437 70.0 463.5Q49 490 49 528Q49 559 69.5 584.5Q90 610 121 610Q145 610 162.5 600.0Q180 590 191.5 577.0Q203 564 209 555Q223 560 259.0 568.0Q295 576 347 576Q428 576 482.0 560.5Q536 545 569.5 525.5Q603 506 621 493Q642 479 660.5 460.5Q679 442 693.0 425.5Q707 409 712 401Q672 380 644.5 356.5Q617 333 602 313Q643 293 677.5 274.0Q712 255 733.5 237.0Q755 219 756 201Q756 173 729 173ZM578 317Q604 349 629.0 369.5Q654 390 683 407Q676 416 656.5 437.5Q637 459 611 477Q595 488 562.5 507.0Q530 526 477.5 541.5Q425 557 347 557Q295 557 256.5 548.0Q218 539 202 531Q192 551 170.5 571.0Q149 591 121 591Q98 591 83.0 570.5Q68 550 68 528Q68 496 86.5 474.0Q105 452 133.5 441.0Q162 430 193 430Q216 430 238.5 434.0Q261 438 286 438Q341 438 393.0 420.5Q445 403 492.0 375.5Q539 348 578 317ZM731 192Q736 192 736 199Q736 210 717.5 224.5Q699 239 672.0 254.5Q645 270 621 282Q638 268 652.5 254.5Q667 241 680 229Q697 213 711.0 202.5Q725 192 731 192Z" />
  </g>
</svg>