<svg xmlns="http://www.w3.org/2000/svg" viewBox="49 85.81481481481481 688.1702127659574 524.1851851851852">
  <g transform="translate(0, 695.8148148148148) scale(1, -1)">
    <path fill="black" d="M670 87Q630 194 582.0 265.5Q534 337 476 368Q419 397 375.0 405.0Q331 413 286 418Q250 423 209.0 426.0Q168 429 131.5 437.5Q95 446 72.0 467.0Q49 488 49 528Q49 549 61.0 567.5Q73 586 91.5 598.0Q110 610 131 610Q154 610 166.5 600.0Q179 590 184.5 575.5Q190 561 191.5 547.5Q193 534 193 529Q202 532 228.5 537.5Q255 543 291.0 547.5Q327 552 361 552Q435 552 495.5 531.0Q556 510 600.5 480.0Q645 450 669.0 421.0Q693 392 693 375Q693 359 680.0 349.0Q667 339 659 334Q676 303 692.5 265.0Q709 227 721.0 188.0Q733 149 737 115Q739 102 717.5 92.5Q696 83 670 87ZM684 106Q698 105 706.5 110.5Q715 116 715 117Q715 132 706.0 164.5Q697 197 682.0 235.5Q667 274 650.0 309.0Q633 344 618 363Q588 402 544.0 423.5Q500 445 454.5 453.5Q409 462 371.0 463.5Q333 465 315 465Q254 465 221.0 476.0Q188 487 180 506Q177 514 175.5 528.0Q174 542 170.5 556.5Q167 571 158.0 581.0Q149 591 130 591Q108 591 88.0 570.5Q68 550 68 528Q68 498 87.5 481.0Q107 464 139.0 456.5Q171 449 209.5 445.5Q248 442 286 438Q372 429 436.0 407.5Q500 386 552 335Q593 294 626.0 237.0Q659 180 684 106ZM649 351Q657 356 665.5 362.0Q674 368 674 375Q674 387 659.0 405.5Q644 424 618.0 445.0Q592 466 558 483Q518 503 469.0 517.5Q420 532 361 532Q313 532 270.5 525.0Q228 518 203 512Q203 509 211.0 502.0Q219 495 243.5 489.5Q268 484 318 484Q401 484 457.5 472.5Q514 461 549.5 443.5Q585 426 605.0 407.0Q625 388 635 374Q643 362 649 351Z" />
  </g>
</svg>