<svg xmlns="http://www.w3.org/2000/svg" viewBox="49 169 822 236">
  <g transform="translate(0, 574) scale(1, -1)">
    <path fill="black" d="M113 169Q85 169 67.0 184.0Q49 199 49 224Q49 250 67.0 264.5Q85 279 113 279Q136 279 156.5 266.5Q177 254 182 234H729Q785 234 811.0 241.5Q837 249 844.5 261.0Q852 273 852 287Q852 301 844.5 313.0Q837 325 811.0 332.5Q785 340 729 340H182Q177 320 156.5 307.5Q136 295 113 295Q85 295 67.0 310.0Q49 325 49 350Q49 376 67.0 390.5Q85 405 113 405Q136 405 156.5 392.5Q177 380 182 360H729Q793 360 823.0 350.5Q853 341 862.0 324.5Q871 308 871 287Q871 267 862.0 250.0Q853 233 823.0 223.5Q793 214 729 214H182Q177 195 156.5 182.0Q136 169 113 169ZM113 315Q131 315 146.5 326.0Q162 337 162 350Q162 364 146.5 375.0Q131 386 113 386Q95 386 82.5 377.0Q70 368 70 350Q70 333 82.5 324.0Q95 315 113 315ZM113 189Q131 189 146.5 200.0Q162 211 162 224Q162 238 146.5 249.0Q131 260 113 260Q95 260 81.5 251.0Q68 242 68 224Q68 207 81.5 198.0Q95 189 113 189Z" />
  </g>
</svg>