<svg xmlns="http://www.w3.org/2000/svg" viewBox="49 -18 472 1019">
  <g transform="translate(0, 983) scale(1, -1)">
    <path fill="black" d="M140 -18 123 -10Q140 28 158.5 76.0Q177 124 193.0 175.5Q209 227 219.0 275.5Q229 324 229 361Q229 401 216.5 454.5Q204 508 189 567H86Q80 601 73.5 639.5Q67 678 61.5 713.0Q56 748 52.5 773.5Q49 799 49 806Q49 821 54.0 849.5Q59 878 63 899H147Q159 941 181.5 963.0Q204 985 232.0 993.0Q260 1001 285 1001Q310 1001 337.5 993.0Q365 985 388.0 963.0Q411 941 422 899Q437 899 456.5 899.0Q476 899 491.5 899.0Q507 899 508 899Q513 878 517.0 849.5Q521 821 521 806Q521 799 517.5 773.5Q514 748 508.5 713.0Q503 678 496.5 639.5Q490 601 484 567H381Q365 508 352.5 454.5Q340 401 340 361Q340 324 350.0 275.5Q360 227 376.0 175.5Q392 124 411.0 76.0Q430 28 447 -10L430 -18Q414 18 393.5 70.5Q373 123 355.0 180.0Q337 237 328 287H241Q232 237 214.5 180.0Q197 123 177.0 70.5Q157 18 140 -18ZM245 406H324Q329 443 340.0 486.5Q351 530 363 574Q380 639 395.5 706.0Q411 773 411 827Q411 892 391.0 925.0Q371 958 342.0 969.5Q313 981 285 981Q258 981 228.5 969.5Q199 958 179.0 925.0Q159 892 159 827Q159 773 174.5 706.0Q190 639 207 574Q219 530 229.5 486.5Q240 443 245 406ZM103 587H184Q168 650 153.5 712.5Q139 775 139 827Q139 841 140.5 854.5Q142 868 144 879H77Q74 868 71.0 844.0Q68 820 68 806Q68 800 71.5 777.5Q75 755 80.0 722.5Q85 690 91.0 654.5Q97 619 103 587ZM386 587H468Q474 619 480.0 654.5Q486 690 491.0 722.5Q496 755 499.0 777.5Q502 800 502 806Q502 820 499.5 844.0Q497 868 493 879H426Q428 867 429.5 854.0Q431 841 431 827Q431 775 417.0 712.5Q403 650 386 587ZM249 356H321V361Q321 367 321.0 373.5Q321 380 322 387H248Q249 380 249.0 373.5Q249 367 249 361ZM245 307H325Q322 322 322 337H248Q247 330 246.5 322.5Q246 315 245 307Z" />
  </g>
</svg>