<svg xmlns="http://www.w3.org/2000/svg" viewBox="49 166 609 835">
  <g transform="translate(0, 1167) scale(1, -1)">
    <path fill="black" d="M391 654V882Q391 931 427.0 966.0Q463 1001 524 1001Q583 1001 620.5 967.0Q658 933 658 882V654H638V882Q638 924 605.0 952.5Q572 981 524 981Q476 981 443.0 952.0Q410 923 410 882V654ZM49 654V882Q49 931 85.5 966.0Q122 1001 183 1001Q242 1001 279.0 967.0Q316 933 316 882V654H296V882Q296 924 263.0 952.5Q230 981 183 981Q134 981 101.0 952.0Q68 923 68 882V654ZM49 166V394Q49 443 85.5 478.0Q122 513 183 513Q242 513 279.0 479.0Q316 445 316 394V166H296V394Q296 435 263.0 464.0Q230 493 183 493Q134 493 101.0 464.0Q68 435 68 394V166ZM391 166V394Q391 443 427.0 478.0Q463 513 524 513Q583 513 620.5 479.0Q658 445 658 394V166H638V394Q638 435 605.0 464.0Q572 493 524 493Q476 493 443.0 464.0Q410 435 410 394V166Z" />
  </g>
</svg>