<svg xmlns="http://www.w3.org/2000/svg" viewBox="49 166 951 835">
  <g transform="translate(0, 1167) scale(1, -1)">
    <path fill="black" d="M732 654V882Q732 931 768.5 966.0Q805 1001 866 1001Q925 1001 962.5 967.0Q1000 933 1000 882V654H980V882Q980 924 947.0 952.5Q914 981 866 981Q818 981 785.0 952.0Q752 923 752 882V654ZM49 654V882Q49 931 85.5 966.0Q122 1001 183 1001Q242 1001 279.0 967.0Q316 933 316 882V654H296V882Q296 924 263.0 952.5Q230 981 183 981Q134 981 101.0 952.0Q68 923 68 882V654ZM391 654V882Q391 931 427.0 966.0Q463 1001 524 1001Q583 1001 620.5 967.0Q658 933 658 882V654H638V882Q638 924 605.0 952.5Q572 981 524 981Q476 981 443.0 952.0Q410 923 410 882V654ZM220 166V394Q220 443 256.5 478.0Q293 513 354 513Q413 513 450.0 479.0Q487 445 487 394V166H467V394Q467 435 434.0 464.0Q401 493 354 493Q305 493 272.0 464.0Q239 435 239 394V166ZM562 166V394Q562 443 598.0 478.0Q634 513 695 513Q754 513 791.5 479.0Q829 445 829 394V166H809V394Q809 435 776.0 464.0Q743 493 695 493Q647 493 614.0 464.0Q581 435 581 394V166Z" />
  </g>
</svg>