<svg xmlns="http://www.w3.org/2000/svg" viewBox="49 -15 951 1070">
  <g transform="translate(0, 1040) scale(1, -1)">
    <path fill="black" d="M732 708V936Q732 985 768.5 1020.0Q805 1055 866 1055Q925 1055 962.5 1021.0Q1000 987 1000 936V708H980V936Q980 977 947.0 1006.0Q914 1035 866 1035Q818 1035 785.0 1006.0Q752 977 752 936V708ZM391 708V936Q391 985 427.0 1020.0Q463 1055 524 1055Q583 1055 620.5 1021.0Q658 987 658 936V708H638V936Q638 977 605.0 1006.0Q572 1035 524 1035Q476 1035 443.0 1006.0Q410 977 410 936V708ZM49 708V936Q49 985 85.5 1020.0Q122 1055 183 1055Q242 1055 279.0 1021.0Q316 987 316 936V708H296V936Q296 977 263.0 1006.0Q230 1035 183 1035Q134 1035 101.0 1006.0Q68 977 68 936V708ZM49 347V574Q49 624 85.5 658.5Q122 693 183 693Q242 693 279.0 659.5Q316 626 316 574V347H296V574Q296 616 263.0 645.0Q230 674 183 674Q134 674 101.0 644.5Q68 615 68 574V347ZM391 347V574Q391 624 427.0 658.5Q463 693 524 693Q583 693 620.5 659.5Q658 626 658 574V347H638V574Q638 616 605.0 645.0Q572 674 524 674Q476 674 443.0 644.5Q410 615 410 574V347ZM732 347V574Q732 624 768.5 658.5Q805 693 866 693Q925 693 962.5 659.5Q1000 626 1000 574V347H980V574Q980 616 947.0 645.0Q914 674 866 674Q818 674 785.0 644.5Q752 615 752 574V347ZM49 -15V213Q49 262 85.5 297.0Q122 332 183 332Q242 332 279.0 298.0Q316 264 316 213V-15H296V213Q296 255 263.0 284.0Q230 313 183 313Q134 313 101.0 283.5Q68 254 68 213V-15ZM391 -15V213Q391 262 427.0 297.0Q463 332 524 332Q583 332 620.5 298.0Q658 264 658 213V-15H638V213Q638 255 605.0 284.0Q572 313 524 313Q476 313 443.0 283.5Q410 254 410 213V-15ZM732 -15V213Q732 262 768.5 297.0Q805 332 866 332Q925 332 962.5 298.0Q1000 264 1000 213V-15H980V213Q980 255 947.0 284.0Q914 313 866 313Q818 313 785.0 283.5Q752 254 752 213V-15Z" />
  </g>
</svg>