<svg xmlns="http://www.w3.org/2000/svg" viewBox="49 166 951 347">
  <g transform="translate(0, 679) scale(1, -1)">
    <path fill="black" d="M732 166V394Q732 443 768.5 478.0Q805 513 866 513Q925 513 962.5 479.0Q1000 445 1000 394V166H980V394Q980 435 947.0 464.0Q914 493 866 493Q818 493 785.0 464.0Q752 435 752 394V166ZM49 166V394Q49 443 85.5 478.0Q122 513 183 513Q242 513 279.0 479.0Q316 445 316 394V166H296V394Q296 435 263.0 464.0Q230 493 183 493Q134 493 101.0 464.0Q68 435 68 394V166ZM391 166V394Q391 443 427.0 478.0Q463 513 524 513Q583 513 620.5 479.0Q658 445 658 394V166H638V394Q638 435 605.0 464.0Q572 493 524 493Q476 493 443.0 464.0Q410 435 410 394V166Z" />
  </g>
</svg>