<svg xmlns="http://www.w3.org/2000/svg" viewBox="49 166 1634 347">
  <g transform="translate(0, 679) scale(1, -1)">
    <path fill="black" d="M732 166V394Q732 443 768.5 478.0Q805 513 866 513Q925 513 962.5 479.0Q1000 445 1000 394V166H980V394Q980 435 947.0 464.0Q914 493 866 493Q818 493 785.0 464.0Q752 435 752 394V166ZM49 166V394Q49 443 85.5 478.0Q122 513 183 513Q242 513 279.0 479.0Q316 445 316 394V166H296V394Q296 435 263.0 464.0Q230 493 183 493Q134 493 101.0 464.0Q68 435 68 394V166ZM391 166V394Q391 443 427.0 478.0Q463 513 524 513Q583 513 620.5 479.0Q658 445 658 394V166H638V394Q638 435 605.0 464.0Q572 493 524 493Q476 493 443.0 464.0Q410 435 410 394V166ZM1074 166V394Q1074 443 1110.5 478.0Q1147 513 1208 513Q1267 513 1304.0 479.0Q1341 445 1341 394V166H1322V394Q1322 435 1288.5 464.0Q1255 493 1208 493Q1160 493 1127.0 464.0Q1094 435 1094 394V166ZM1416 166V394Q1416 443 1452.5 478.0Q1489 513 1550 513Q1609 513 1646.0 479.0Q1683 445 1683 394V166H1664V394Q1664 435 1630.5 464.0Q1597 493 1550 493Q1501 493 1468.5 464.0Q1436 435 1436 394V166Z" />
  </g>
</svg>