<svg xmlns="http://www.w3.org/2000/svg" viewBox="49 -3 873 1004">
  <g transform="translate(0, 998) scale(1, -1)">
    <path fill="black" d="M905 -3Q897 -3 875.5 14.0Q854 31 829.5 62.0Q805 93 787.5 135.0Q770 177 770 227Q770 246 772.0 265.5Q774 285 777 306Q780 332 783.5 361.0Q787 390 787 422Q787 446 784.0 477.0Q781 508 769.0 540.0Q757 572 730 598V0H710V614Q685 633 646.0 644.0Q607 655 551 655Q484 655 418.5 646.5Q353 638 285 635V0H265V634H247Q197 634 181.0 656.5Q165 679 165 712Q165 729 169.0 752.0Q173 775 177 790Q168 789 154.5 787.5Q141 786 124 786Q88 786 68.5 799.5Q49 813 49 833Q49 844 56.5 864.0Q64 884 88.0 900.0Q112 916 160 916Q203 916 232.5 899.5Q262 883 262 845Q262 828 255.5 814.5Q249 801 242.5 789.0Q236 777 236 762Q236 750 244.0 739.5Q252 729 265 726V750Q265 791 278.5 835.0Q292 879 320.5 916.5Q349 954 393.0 977.5Q437 1001 498 1001Q559 1001 603.0 977.5Q647 954 675.0 916.5Q703 879 716.5 835.0Q730 791 730 750V738Q773 723 807.5 695.5Q842 668 862.5 624.5Q883 581 883 517Q883 485 880.0 462.5Q877 440 873 419Q868 394 864.0 365.5Q860 337 860 292Q860 201 878.0 145.5Q896 90 906 68Q922 34 922 15Q922 -3 905 -3ZM285 724Q293 725 308.5 727.5Q324 730 343 733Q389 741 453.5 750.5Q518 760 584 760Q615 760 647.0 756.5Q679 753 710 744V748Q710 778 700.0 817.5Q690 857 666.0 894.5Q642 932 601.0 956.5Q560 981 498 981Q436 981 394.5 956.5Q353 932 329.0 894.5Q305 857 295.0 817.5Q285 778 285 748ZM247 654H265V706Q242 710 229.5 726.5Q217 743 217 762Q217 781 223.5 794.5Q230 808 236.0 820.0Q242 832 242 845Q242 871 218.5 883.5Q195 896 160 896Q120 896 100.5 883.5Q81 871 74.5 856.0Q68 841 68 833Q68 826 85.0 816.0Q102 806 140 806Q154 806 172.5 809.5Q191 813 203 816Q199 798 195.0 777.0Q191 756 188.0 739.0Q185 722 185 715Q185 687 197.0 670.5Q209 654 247 654ZM156 846Q138 842 135 858Q133 874 151 876Q159 878 164.5 874.5Q170 871 171 864Q173 849 156 846ZM710 639V723Q679 733 647.0 737.0Q615 741 584 741Q520 741 456.0 731.5Q392 722 346 714Q306 707 285 705V655Q350 658 416.0 666.0Q482 674 551 674Q604 674 643.0 665.0Q682 656 710 639ZM902 15Q904 15 904 18Q904 23 898.5 36.5Q893 50 886 66Q881 79 869.5 108.0Q858 137 849.0 183.5Q840 230 840 292Q840 337 844.5 368.5Q849 400 853 423Q857 443 860.5 466.0Q864 489 864 517Q864 600 825.0 647.5Q786 695 730 717V626Q767 598 783.0 561.0Q799 524 802.5 487.0Q806 450 806 422Q806 387 803.0 358.0Q800 329 796 303Q790 261 790 227Q790 180 806.5 141.0Q823 102 844.5 74.0Q866 46 883.5 30.5Q901 15 902 15Z" />
  </g>
</svg>