<svg xmlns="http://www.w3.org/2000/svg" viewBox="49 73 851 626">
  <g transform="translate(0, 772) scale(1, -1)">
    <path fill="black" d="M863 73Q838 105 814.5 148.5Q791 192 776.0 240.5Q761 289 761 334Q761 371 762.5 407.5Q764 444 757.5 477.0Q751 510 727.5 535.5Q704 561 654 577Q598 555 539.0 539.5Q480 524 419 524Q367 524 331.0 531.0Q295 538 265.0 545.0Q235 552 201 552Q185 552 162.0 545.0Q139 538 115 538Q83 538 66.0 561.0Q49 584 49 611Q49 623 54.5 639.5Q60 656 74.5 668.5Q89 681 115 681Q147 681 164.5 671.0Q182 661 198 661Q224 661 258.5 670.5Q293 680 340.5 689.5Q388 699 452 699Q504 699 567.5 690.5Q631 682 689 659L820 689L835 670L832 648Q819 641 799.0 631.5Q779 622 762 617Q795 590 815.5 551.0Q836 512 836 458Q836 435 833.5 407.0Q831 379 828.5 354.0Q826 329 826 314Q826 289 838.0 249.5Q850 210 867.0 169.5Q884 129 900 97ZM867 98 875 104Q869 116 857.5 141.5Q846 167 834.5 198.5Q823 230 815.0 261.0Q807 292 807 314Q807 337 811.0 378.5Q815 420 815 455Q815 513 789.5 552.5Q764 592 722.5 617.0Q681 642 632.5 655.5Q584 669 536.5 674.0Q489 679 453 679Q390 679 342.5 669.5Q295 660 260.0 650.5Q225 641 198 641Q185 641 174.5 646.0Q164 651 151.0 656.0Q138 661 115 661Q88 661 78.0 642.0Q68 623 68 611Q68 591 80.5 574.0Q93 557 115 557Q138 557 160.0 564.5Q182 572 201 572Q236 572 265.0 565.0Q294 558 329.5 551.0Q365 544 419 544Q478 544 532.5 558.5Q587 573 654 597Q710 579 737.5 552.5Q765 526 773.5 492.5Q782 459 781.5 419.0Q781 379 781 334Q781 291 795.0 247.0Q809 203 829.0 164.5Q849 126 867 98ZM741 631Q758 634 779.5 643.5Q801 653 814 660L813 668L717 645Q724 642 729.5 638.5Q735 635 741 631Z" />
  </g>
</svg>