<svg xmlns="http://www.w3.org/2000/svg" viewBox="49 0 241 1001">
  <g transform="translate(0, 1001) scale(1, -1)">
    <path fill="black" d="M165 0V635Q111 639 85.5 675.0Q60 711 60 761Q60 797 72.0 826.5Q84 856 112 872Q100 883 85.0 898.0Q70 913 60.0 937.5Q50 962 49 1001H68Q70 964 82.5 936.0Q95 908 132 880Q147 885 165 886V1001H185V886Q241 883 265.5 847.0Q290 811 290 761Q290 711 264.0 675.0Q238 639 185 636V0ZM174 655Q221 655 245.5 686.0Q270 717 270 761Q270 805 248.5 836.0Q227 867 174 867Q122 867 100.5 836.0Q79 805 79 761Q79 717 103.5 686.0Q128 655 174 655Z" />
  </g>
</svg>