<svg xmlns="http://www.w3.org/2000/svg" viewBox="49 227 1157 305">
  <g transform="translate(0, 759) scale(1, -1)">
    <path fill="black" d="M627 227Q522 227 449.0 243.5Q376 260 332.0 280.0Q288 300 269 311Q251 288 217.5 281.5Q184 275 137 275H49V295H137Q178 295 207.0 300.0Q236 305 252.0 323.0Q268 341 268 379Q268 416 251.0 433.5Q234 451 204.5 456.0Q175 461 137 461H49V480H137Q180 480 213.5 474.5Q247 469 266 447Q283 457 327.0 477.5Q371 498 445.5 515.0Q520 532 627 532Q735 532 809.0 515.0Q883 498 927.0 477.5Q971 457 988 447Q1008 469 1041.5 474.5Q1075 480 1118 480H1206V461H1118Q1081 461 1051.0 456.0Q1021 451 1004.0 433.5Q987 416 987 379Q987 341 1003.0 323.0Q1019 305 1048.5 300.0Q1078 295 1118 295H1206V275H1118Q1072 275 1038.0 281.5Q1004 288 986 311Q968 300 923.5 280.0Q879 260 805.5 243.5Q732 227 627 227ZM627 247Q727 247 798.5 263.0Q870 279 914.5 298.5Q959 318 976 328Q968 349 968 379Q968 411 978 430Q962 440 917.5 460.0Q873 480 800.5 496.5Q728 513 627 513Q527 513 454.5 496.5Q382 480 337.5 460.0Q293 440 277 430Q287 411 287 379Q287 348 278 328Q295 318 339.5 298.5Q384 279 456.0 263.0Q528 247 627 247Z" />
  </g>
</svg>