<svg xmlns="http://www.w3.org/2000/svg" viewBox="49 193 1159 211">
  <g transform="translate(0, 597) scale(1, -1)">
    <path fill="black" d="M167 193Q130 193 97.5 208.0Q65 223 49 237Q62 254 67.5 261.5Q73 269 77.0 274.0Q81 279 87 286Q96 279 120.5 268.5Q145 258 166 258Q188 258 207.0 266.5Q226 275 226 299Q226 323 207.0 331.0Q188 339 166 339Q145 339 120.5 328.5Q96 318 87 312L49 360Q65 374 97.5 389.0Q130 404 167 404Q202 404 234.5 387.5Q267 371 281 339H976Q990 371 1022.5 387.5Q1055 404 1090 404Q1128 404 1160.0 389.0Q1192 374 1208 360L1170 312Q1161 318 1137.0 328.5Q1113 339 1092 339Q1070 339 1051.0 331.0Q1032 323 1032 299Q1032 275 1051.0 266.5Q1070 258 1092 258Q1113 258 1137.0 268.5Q1161 279 1170 286Q1177 279 1180.5 274.0Q1184 269 1190.0 261.5Q1196 254 1208 237Q1192 223 1160.0 208.0Q1128 193 1090 193Q1055 193 1022.5 209.5Q990 226 976 259H281Q267 226 234.5 209.5Q202 193 167 193ZM168 213Q201 213 230.5 230.5Q260 248 267 278H991Q998 248 1027.0 230.5Q1056 213 1089 213Q1119 213 1143.5 222.5Q1168 232 1181 241L1166 260Q1153 253 1133.0 246.0Q1113 239 1092 239Q1074 239 1055.5 244.0Q1037 249 1024.5 262.5Q1012 276 1012 299Q1012 323 1024.5 336.0Q1037 349 1055.5 354.0Q1074 359 1092 359Q1114 359 1133.5 351.5Q1153 344 1166 337L1181 356Q1168 365 1143.5 375.0Q1119 385 1089 385Q1056 385 1027.0 367.0Q998 349 990 319H267Q260 349 230.5 367.0Q201 385 168 385Q138 385 114.0 375.0Q90 365 76 356L91 337Q105 344 124.5 351.5Q144 359 166 359Q184 359 202.0 354.0Q220 349 232.5 336.0Q245 323 245 299Q245 276 232.5 262.5Q220 249 202.0 244.0Q184 239 166 239Q144 239 124.5 246.0Q105 253 91 260L76 241Q90 232 114.0 222.5Q138 213 168 213Z" />
  </g>
</svg>