<svg xmlns="http://www.w3.org/2000/svg" viewBox="-346 -3 1051 1004">
  <g transform="translate(0, 998) scale(1, -1)">
    <path fill="black" d="M68 -3 49 11 206 248 132 362Q119 382 109.5 403.0Q100 424 100 449V456H18L-97 422H-196L-295 468L-346 524L-313 553L-232 506Q-221 499 -196.5 494.0Q-172 489 -150 489Q-108 489 -81 500L-84 511Q-90 510 -103.0 509.0Q-116 508 -129.0 507.5Q-142 507 -148 507Q-188 507 -220 534L-201 571Q-190 567 -177.0 562.5Q-164 558 -153 558Q-132 558 -110.0 563.0Q-88 568 -74 570L9 535L169 558Q138 572 119.0 601.0Q100 630 100 667Q100 704 120.0 732.5Q140 761 172 774Q140 788 120.0 817.5Q100 847 100 884Q100 934 134.5 967.5Q169 1001 219 1001Q251 1001 278.0 985.5Q305 970 321.0 943.0Q337 916 337 883Q337 846 317.0 817.0Q297 788 265 774Q297 761 317.0 732.0Q337 703 337 666Q337 639 326.5 616.5Q316 594 298 577L305 578H531L556 875H681L705 456H337V449Q337 426 328.5 404.5Q320 383 306 362L231 248L389 11L369 -3L219 228ZM223 784Q261 786 289.5 815.0Q318 844 318 884Q318 910 304.5 932.0Q291 954 268.5 968.0Q246 982 219 982Q179 982 149.5 953.0Q120 924 120 884Q120 842 150.0 813.0Q180 784 223 784ZM-191 439H-99L14 473H685L661 857H574L551 561H304Q280 557 262.0 554.5Q244 552 225.5 549.0Q207 546 180.0 542.0Q153 538 111.5 532.0Q70 526 6 516L-75 553Q-88 551 -110.5 546.0Q-133 541 -156 541Q-164 541 -174.0 544.0Q-184 547 -192 549L-197 539Q-179 524 -147 524Q-140 524 -125.0 525.0Q-110 526 -95.0 527.0Q-80 528 -73 528Q-70 521 -67.0 511.0Q-64 501 -62 491Q-78 481 -104.0 476.5Q-130 472 -153 472Q-177 472 -201.5 477.5Q-226 483 -249 497L-313 536L-326 525L-282 480ZM226 566Q254 566 274.5 581.0Q295 596 306.5 619.5Q318 643 318 667Q318 693 304.5 715.0Q291 737 268.5 751.0Q246 765 219 765Q176 765 148.0 735.0Q120 705 120 667Q120 625 150.5 595.5Q181 566 226 566ZM219 268 288 372Q299 389 308.5 408.0Q318 427 318 449Q318 454 317 456H120V450Q120 429 127.5 411.5Q135 394 147 376Z" />
  </g>
</svg>