<svg xmlns="http://www.w3.org/2000/svg" viewBox="49 -3 490 1003">
  <g transform="translate(0, 997) scale(1, -1)">
    <path fill="black" d="M132 -3 115 11 282 265 200 392Q192 404 179.5 429.0Q167 454 167 485Q167 526 189.0 557.0Q211 588 245 601Q211 615 189.0 647.0Q167 679 167 720Q167 728 167.5 735.5Q168 743 170 750L49 826Q62 864 93.5 904.0Q125 944 175.5 972.0Q226 1000 294 1000Q363 1000 413.0 972.0Q463 944 495.0 904.0Q527 864 539 826L418 751Q422 738 422 719Q422 679 400.0 647.0Q378 615 343 601Q377 588 399.5 558.0Q422 528 422 485Q422 454 409.5 429.0Q397 404 389 392L306 265L474 11L457 -3L294 247ZM176 770Q190 804 222.0 825.0Q254 846 294 846Q333 846 365.0 825.0Q397 804 412 770L514 833Q503 865 474.0 899.5Q445 934 400.0 957.5Q355 981 294 981Q233 981 188.0 957.5Q143 934 114.5 899.5Q86 865 74 833Q83 828 102.5 816.0Q122 804 143.0 791.0Q164 778 176 770ZM294 610Q325 610 349.5 625.5Q374 641 388.5 666.0Q403 691 403 720Q403 748 388.5 772.5Q374 797 349.0 812.5Q324 828 294 828Q265 828 240.0 813.0Q215 798 200.5 773.5Q186 749 186 720Q186 675 217.5 642.5Q249 610 294 610ZM294 283 375 404Q383 415 393.0 438.0Q403 461 403 485Q403 513 388.0 537.0Q373 561 348.5 576.0Q324 591 294 591Q266 591 241.0 577.0Q216 563 201.0 539.0Q186 515 186 485Q186 461 196.5 438.0Q207 415 214 404Z" />
  </g>
</svg>