<svg xmlns="http://www.w3.org/2000/svg" viewBox="49 240 954 311">
  <g transform="translate(0, 791) scale(1, -1)">
    <path fill="black" d="M526 240Q433 240 361.5 260.5Q290 281 237.5 314.0Q185 347 148.5 385.0Q112 423 90.0 458.0Q68 493 58.5 518.5Q49 544 49 551H1003Q1003 544 993.0 518.5Q983 493 961.0 458.0Q939 423 903.0 385.0Q867 347 814.5 314.0Q762 281 690.5 260.5Q619 240 526 240ZM526 260Q629 260 704.5 285.5Q780 311 832.0 349.0Q884 387 915.5 426.5Q947 466 962.0 495.5Q977 525 979 531H74Q76 525 91.0 495.5Q106 466 137.5 426.5Q169 387 221.0 349.0Q273 311 348.0 285.5Q423 260 526 260Z" />
  </g>
</svg>