<svg xmlns="http://www.w3.org/2000/svg" viewBox="49 267 764 253">
  <g transform="translate(0, 787) scale(1, -1)">
    <path fill="black" d="M431 267Q342 267 277.0 290.5Q212 314 168.0 349.5Q124 385 98.0 421.5Q72 458 60.5 485.5Q49 513 49 520H813Q813 513 801.5 485.5Q790 458 763.5 421.5Q737 385 693.5 349.5Q650 314 585.0 290.5Q520 267 431 267ZM431 286Q510 286 569.0 306.0Q628 326 669.0 356.0Q710 386 735.0 417.0Q760 448 771.5 471.5Q783 495 784 500H80Q81 495 92.5 471.5Q104 448 129.0 417.0Q154 386 194.5 356.0Q235 326 293.5 306.0Q352 286 431 286Z" />
  </g>
</svg>