<svg xmlns="http://www.w3.org/2000/svg" viewBox="49 240 1071 311">
  <g transform="translate(0, 791) scale(1, -1)">
    <path fill="black" d="M643 240Q545 240 470.5 263.0Q396 286 342.0 321.5Q288 357 252.5 397.5Q217 438 197.0 473.5Q177 509 170 530Q167 524 160.5 512.5Q154 501 154 490Q154 477 159.0 459.0Q164 441 164 418Q164 383 152.5 367.0Q141 351 126.5 347.0Q112 343 104 343Q96 343 82.5 349.0Q69 355 59.0 372.5Q49 390 49 426Q49 462 64.0 485.5Q79 509 97.5 523.0Q116 537 125 541Q133 545 147.0 548.0Q161 551 190 551H1120Q1120 544 1110.0 518.5Q1100 493 1078.0 458.0Q1056 423 1020.0 385.0Q984 347 931.5 314.0Q879 281 807.5 260.5Q736 240 643 240ZM643 260Q746 260 821.0 285.5Q896 311 948.0 349.0Q1000 387 1031.5 426.5Q1063 466 1078.0 495.5Q1093 525 1095 531H190Q192 525 207.0 495.5Q222 466 253.5 426.5Q285 387 337.0 349.0Q389 311 464.5 285.5Q540 260 643 260ZM104 363Q108 363 117.5 366.0Q127 369 135.5 381.5Q144 394 144 420Q144 442 139.0 457.0Q134 472 134 488Q134 501 138.0 510.0Q142 519 146 527Q131 524 113.0 510.0Q95 496 82.0 474.5Q69 453 69 426Q69 398 75.5 384.5Q82 371 90.5 367.0Q99 363 104 363Z" />
  </g>
</svg>