<svg xmlns="http://www.w3.org/2000/svg" viewBox="49 227 1151 408">
  <g transform="translate(0, 862) scale(1, -1)">
    <path fill="black" d="M625 227Q605 227 568.5 233.5Q532 240 488.0 250.0Q444 260 402.0 270.5Q360 281 326.5 290.0Q293 299 278 303H214L49 264V498L214 452H281Q298 457 330.5 466.0Q363 475 404.0 486.0Q445 497 485 507L386 635H458L543 530Q551 554 570.5 579.0Q590 604 624 604Q657 604 677.0 579.0Q697 554 704 530L789 635H861L763 507Q804 497 845.0 486.0Q886 475 918.5 466.0Q951 457 968 452H1035L1200 498V264L1035 303H971Q955 299 921.0 289.5Q887 280 844.5 269.5Q802 259 759.0 249.5Q716 240 680.5 233.5Q645 227 625 227ZM742 512 823 617H800L720 517Q725 516 730.5 515.0Q736 514 742 512ZM505 512 528 517 447 617H424ZM560 523Q599 532 625 532Q645 532 687 524Q678 548 663.0 566.0Q648 584 624 584Q599 584 583.5 566.0Q568 548 560 523ZM625 247Q635 247 649.0 248.5Q663 250 680 252V506Q663 509 649.0 511.0Q635 513 625 513Q615 513 600.5 511.0Q586 509 569 506V252Q586 250 600.5 248.5Q615 247 625 247ZM699 256Q734 263 774.0 272.0Q814 281 852.5 291.0Q891 301 920.5 308.5Q950 316 963 320V434Q950 438 921.0 446.0Q892 454 853.5 464.5Q815 475 774.5 485.0Q734 495 699 502ZM550 256V502Q513 495 471.5 484.5Q430 474 391.5 463.5Q353 453 325.0 445.0Q297 437 286 434V320Q300 316 329.0 308.5Q358 301 396.5 291.0Q435 281 475.0 272.0Q515 263 550 256ZM68 291 204 320V435L68 473ZM1181 291V473L1045 435V320ZM223 322H266V432H223ZM983 322H1026V432H983Z" />
  </g>
</svg>