<svg xmlns="http://www.w3.org/2000/svg" viewBox="49 177 526 707">
  <g transform="translate(0, 1061) scale(1, -1)">
    <path fill="black" d="M312 177Q258 177 210.0 204.5Q162 232 126.0 280.5Q90 329 69.5 393.0Q49 457 49 530Q49 604 69.5 668.0Q90 732 126.0 780.5Q162 829 210.0 856.5Q258 884 312 884Q366 884 414.0 856.5Q462 829 498.0 780.5Q534 732 554.5 668.0Q575 604 575 530Q575 457 554.5 393.0Q534 329 498.0 280.5Q462 232 414.0 204.5Q366 177 312 177ZM86 655H538Q520 717 486.0 764.0Q452 811 407.5 838.0Q363 865 312 865Q261 865 216.0 838.0Q171 811 137.5 764.0Q104 717 86 655ZM68 540H555Q553 590 543 635H81Q75 613 72.0 589.0Q69 565 68 540ZM81 425H542Q548 448 551.0 472.0Q554 496 555 521H68Q69 496 72.0 472.0Q75 448 81 425ZM312 196Q363 196 407.5 223.0Q452 250 486.0 297.5Q520 345 538 406H86Q104 345 137.5 297.5Q171 250 216.0 223.0Q261 196 312 196Z" />
  </g>
</svg>