<svg xmlns="http://www.w3.org/2000/svg" viewBox="49 177 583 818">
  <g transform="translate(0, 1172) scale(1, -1)">
    <path fill="black" d="M351 177Q269 177 213.5 213.0Q158 249 124.5 307.0Q91 365 76.5 434.0Q62 503 62 569H106Q127 615 159.5 654.0Q192 693 227.0 723.5Q262 754 293.5 776.0Q325 798 345 810Q308 820 265.5 834.0Q223 848 183.0 862.5Q143 877 112.0 889.5Q81 902 66 909L49 918L89 995L99 991Q162 969 215.0 938.0Q268 907 308.0 877.5Q348 848 370 829Q374 838 384.5 852.0Q395 866 411.0 877.5Q427 889 446 889Q472 889 484.5 874.5Q497 860 497 841Q497 822 481.0 807.0Q465 792 433 792Q428 792 421.0 792.5Q414 793 406 794Q422 779 451.5 745.5Q481 712 514.0 666.5Q547 621 572 569H632Q632 501 618.5 431.5Q605 362 573.5 304.5Q542 247 487.5 212.0Q433 177 351 177ZM339 830Q314 850 277.0 876.0Q240 902 194.5 927.0Q149 952 99 970L76 927Q89 920 118.0 908.0Q147 896 185.0 882.0Q223 868 263.0 854.5Q303 841 339 830ZM433 811Q456 811 467.0 820.5Q478 830 478 841Q478 852 470.0 861.0Q462 870 446 870Q427 870 410.0 851.0Q393 832 385 818Q400 814 413.0 812.5Q426 811 433 811ZM128 569H549Q515 637 466.0 699.0Q417 761 373 802H372Q360 796 330.0 777.0Q300 758 262.0 727.5Q224 697 188.0 657.0Q152 617 128 569ZM351 196Q415 196 459.5 220.0Q504 244 532.5 282.0Q561 320 577.5 363.5Q594 407 601.5 447.0Q609 487 611.0 515.0Q613 543 613 549H82Q82 543 84.5 515.0Q87 487 95.0 447.0Q103 407 120.5 363.5Q138 320 167.5 282.0Q197 244 242.0 220.0Q287 196 351 196Z" />
  </g>
</svg>