<svg xmlns="http://www.w3.org/2000/svg" viewBox="49 194 646 732">
  <g transform="translate(0, 1120) scale(1, -1)">
    <path fill="black" d="M105 194Q106 209 110.5 246.0Q115 283 125.0 329.5Q135 376 152 420Q164 449 179.0 483.0Q194 517 209.5 549.0Q225 581 236 604Q225 618 205.5 642.5Q186 667 163.0 697.0Q140 727 117.5 757.5Q95 788 77.0 813.0Q59 838 49 852L145 926L459 663L695 194H571Q560 225 534.0 258.5Q508 292 470.0 315.0Q432 338 382 338Q333 338 297.0 315.0Q261 292 238.0 258.5Q215 225 206 194ZM125 213H191Q196 225 208.0 248.5Q220 272 242.5 297.0Q265 322 299.5 340.0Q334 358 382 358Q435 358 476.0 334.5Q517 311 544.0 277.5Q571 244 583 213H663Q653 235 628.5 284.0Q604 333 572.0 396.5Q540 460 506.5 526.5Q473 593 444 651L145 901Q127 887 110.5 874.5Q94 862 75 848Q89 828 114.5 794.0Q140 760 168.5 722.0Q197 684 222.0 652.5Q247 621 260 606Q248 583 232.0 549.5Q216 516 199.5 480.0Q183 444 171 413Q155 373 145.5 333.0Q136 293 131.5 261.5Q127 230 125 213Z" />
  </g>
</svg>