<svg xmlns="http://www.w3.org/2000/svg" viewBox="49 -5 250 1023">
  <g transform="translate(0, 1013) scale(1, -1)">
    <path fill="black" d="M174 -5Q169 -5 165.0 -2.5Q161 0 158 2Q145 16 127.5 50.0Q110 84 94.5 134.0Q79 184 69 245Q59 312 54.0 373.5Q49 435 49 506Q49 578 54.0 639.5Q59 701 69 768Q79 829 94.5 879.0Q110 929 127.5 963.0Q145 997 158 1010Q161 1013 165.0 1015.5Q169 1018 174 1018Q183 1018 189 1010Q211 988 237.0 924.0Q263 860 277 768Q288 701 293.5 639.5Q299 578 299 506Q299 435 293.5 373.5Q288 312 277 245Q263 154 237.0 89.0Q211 24 189 2Q187 0 183.0 -2.5Q179 -5 174 -5ZM173 21Q185 21 201.5 53.5Q218 86 233.5 138.0Q249 190 257 246Q265 297 269.5 338.0Q274 379 276.5 419.0Q279 459 279 506Q279 554 276.5 594.0Q274 634 269.5 675.5Q265 717 257 767Q249 824 233.5 875.5Q218 927 201.5 959.5Q185 992 173 992Q163 992 146.0 959.5Q129 927 113.5 875.5Q98 824 89 767Q82 717 77.0 675.5Q72 634 70.0 594.0Q68 554 68 506Q68 459 70.0 419.0Q72 379 77.0 338.0Q82 297 89 246Q98 190 113.5 138.0Q129 86 146.0 53.5Q163 21 173 21Z" />
  </g>
</svg>