<svg xmlns="http://www.w3.org/2000/svg" viewBox="49 0 435 1001">
  <g transform="translate(0, 1001) scale(1, -1)">
    <path fill="black" d="M119 0 121 20Q133 43 143.5 65.5Q154 88 163 113Q147 100 121 100Q95 100 79.0 114.0Q63 128 56.0 166.0Q49 204 49 276V455Q49 542 69.0 585.0Q89 628 125.0 643.0Q161 658 209 658Q205 669 197.0 684.5Q189 700 179 718Q160 753 141.5 792.5Q123 832 123 866Q123 931 161.5 966.0Q200 1001 269 1001Q338 1001 376.5 966.0Q415 931 415 866Q415 832 397.0 792.5Q379 753 359 718Q349 700 341.0 684.5Q333 669 329 658Q376 657 411.0 642.0Q446 627 465.0 583.5Q484 540 484 455V276Q484 204 477.0 166.0Q470 128 454.5 114.0Q439 100 412 100Q391 100 377 108Q385 86 395.5 64.0Q406 42 417 20L419 0ZM223 676H245Q234 693 218.5 721.0Q203 749 191.5 782.5Q180 816 180 849Q180 882 190.5 900.5Q201 919 216.5 927.0Q232 935 246.5 936.5Q261 938 269 938Q277 938 291.5 936.5Q306 935 321.5 927.0Q337 919 347.5 900.5Q358 882 358 849Q358 816 346.0 782.5Q334 749 318.5 721.0Q303 693 292 676H314Q319 687 326.5 700.0Q334 713 341 728Q360 762 378.0 799.0Q396 836 396 866Q396 922 362.0 951.5Q328 981 269 981Q210 981 176.5 951.5Q143 922 143 866Q143 836 160.5 799.0Q178 762 197 728Q205 713 212.0 700.0Q219 687 223 676ZM269 676Q277 688 293.5 715.5Q310 743 324.0 779.0Q338 815 338 849Q338 884 324.0 898.5Q310 913 293.5 916.0Q277 919 269 919Q261 919 244.5 916.0Q228 913 214.0 898.5Q200 884 200 849Q200 815 214.0 779.0Q228 743 244.5 715.5Q261 688 269 676ZM231 606Q240 607 249.5 607.0Q259 607 269 607Q279 607 288.5 607.0Q298 607 307 606V646Q307 648 307.0 650.5Q307 653 308 656H230Q231 653 231.0 650.5Q231 648 231 646ZM121 119Q144 119 156.0 134.0Q168 149 172.5 171.0Q177 193 177.0 215.5Q177 238 177 254Q170 330 166.5 372.5Q163 415 161.5 434.0Q160 453 159.5 459.0Q159 465 159 467Q159 511 170.0 528.5Q181 546 212 550V585Q169 581 150.0 565.5Q131 550 131 512V190H112V512Q112 562 135.0 581.5Q158 601 212 605V638Q166 638 134.0 624.5Q102 611 85.0 572.0Q68 533 68 455V276Q68 212 74.0 178.0Q80 144 92.0 131.5Q104 119 121 119ZM412 119Q430 119 441.5 131.5Q453 144 459.0 178.0Q465 212 465 276V455Q465 532 449.0 571.0Q433 610 402.0 624.0Q371 638 326 638V605Q380 601 403.0 581.5Q426 562 426 512V190H407V512Q407 550 388.0 565.5Q369 581 326 585V550Q354 545 364.0 527.0Q374 509 374 467Q374 465 373.5 459.0Q373 453 371.5 434.0Q370 415 366.5 372.5Q363 330 356 254Q356 238 356.0 215.5Q356 193 360.5 171.0Q365 149 377.0 134.0Q389 119 412 119ZM231 552Q239 553 248.0 553.0Q257 553 267 553Q278 553 288.0 553.0Q298 553 307 552V587Q298 587 289.0 587.5Q280 588 269 588Q259 588 249.5 587.5Q240 587 231 587ZM144 20H259V534Q252 534 244.5 533.5Q237 533 231 533V523Q231 408 224.5 328.5Q218 249 206.5 194.0Q195 139 179.0 98.5Q163 58 144 20ZM279 20H394Q375 58 359.0 98.5Q343 139 331.5 194.0Q320 249 313.5 328.5Q307 408 307 523V532Q300 533 293.5 533.0Q287 533 279 534ZM196 255Q204 304 208.0 369.0Q212 434 212 523V530Q193 525 186.0 511.5Q179 498 179 467Q179 465 179.5 459.5Q180 454 181.5 434.5Q183 415 186.5 373.0Q190 331 196 255ZM338 273Q344 342 347.5 380.5Q351 419 352.0 436.5Q353 454 353.5 459.5Q354 465 354 467Q354 496 348.5 509.5Q343 523 326 528V523Q326 444 329.5 383.5Q333 323 338 273Z" />
  </g>
</svg>