<svg xmlns="http://www.w3.org/2000/svg" viewBox="49 0 703 1001">
  <g transform="translate(0, 1001) scale(1, -1)">
    <path fill="black" d="M262 0Q225 0 212.0 9.5Q199 19 199 42Q199 57 209.0 73.5Q219 90 229 100Q231 103 233.0 125.0Q235 147 235 209Q235 246 228.5 297.5Q222 349 211.5 404.0Q201 459 190.5 506.5Q180 554 171 582Q154 639 140.0 675.0Q126 711 110 731Q102 743 87.5 753.0Q73 763 61.0 779.0Q49 795 49 823Q49 846 64.5 857.0Q80 868 102 868H237L162 966L206 1001L283 902Q292 920 307.0 939.0Q322 958 345.0 970.5Q368 983 400 983Q432 983 455.0 970.5Q478 958 493.0 939.0Q508 920 517 902L594 1001L638 966L562 868H699Q721 868 736.5 857.0Q752 846 752 823Q752 795 739.5 780.5Q727 766 712.0 756.0Q697 746 690 731Q681 711 668.5 681.5Q656 652 645.5 624.0Q635 596 630 582Q621 554 610.0 506.5Q599 459 588.5 404.0Q578 349 571.5 297.5Q565 246 565 209Q565 147 567.5 125.0Q570 103 571 100Q581 90 591.5 73.5Q602 57 602 42Q602 19 589.0 9.5Q576 0 539 0ZM262 868H270L274 881L202 974L188 963ZM531 868H538L611 963L597 974L526 881ZM291 868H509Q503 884 489.5 905.5Q476 927 454.0 943.5Q432 960 400 960Q368 960 346.0 943.5Q324 927 311.0 905.5Q298 884 291 868ZM71 807H730Q731 811 731.5 815.0Q732 819 732 823Q732 839 721.5 843.5Q711 848 699 848H102Q90 848 79.0 843.5Q68 839 68 823Q68 815 71 807ZM195 569H606L611 588Q614 600 623.5 623.5Q633 647 644.0 673.5Q655 700 665.0 721.0Q675 742 680 749Q687 760 700.0 768.5Q713 777 718 787H83Q88 777 99.5 767.0Q111 757 121 749Q128 744 138.0 723.0Q148 702 158.5 675.0Q169 648 177.5 624.0Q186 600 189 588ZM259 20H542Q565 20 572.0 26.0Q579 32 579 42Q579 53 571.5 65.5Q564 78 556 85Q553 93 549.5 123.5Q546 154 546 209Q546 241 551.0 285.0Q556 329 564.5 377.0Q573 425 582.5 470.0Q592 515 601 549H200Q209 515 218.5 470.0Q228 425 236.5 377.0Q245 329 250.0 285.0Q255 241 255 209Q255 154 251.5 123.5Q248 93 245 85Q238 78 230.0 65.5Q222 53 222 42Q222 32 229.5 26.0Q237 20 259 20Z" />
  </g>
</svg>