<svg xmlns="http://www.w3.org/2000/svg" viewBox="49 0 703 1001">
  <g transform="translate(0, 1001) scale(1, -1)">
    <path fill="black" d="M262 0Q225 0 212.0 9.5Q199 19 199 42Q199 57 209.0 73.5Q219 90 229 100Q231 103 233.0 125.0Q235 147 235 209Q235 246 228.5 300.0Q222 354 211.5 412.5Q201 471 190.5 521.5Q180 572 171 600Q167 614 156.5 642.0Q146 670 134.0 700.5Q122 731 110 750Q105 765 90.0 774.5Q75 784 62.0 798.5Q49 813 49 841Q49 864 64.5 875.0Q80 886 102 886H270Q273 896 281.5 915.0Q290 934 305.0 953.5Q320 973 343.5 987.0Q367 1001 400 1001Q434 1001 457.5 987.0Q481 973 496.0 953.5Q511 934 519.5 915.0Q528 896 531 886H699Q721 886 736.5 875.0Q752 864 752 841Q752 813 739.0 798.5Q726 784 711.0 774.5Q696 765 690 750Q679 731 666.5 700.5Q654 670 644.5 642.0Q635 614 630 600Q621 572 610.0 521.5Q599 471 588.5 412.5Q578 354 571.5 300.0Q565 246 565 209Q565 147 567.5 125.0Q570 103 571 100Q581 90 591.5 73.5Q602 57 602 42Q602 19 589.0 9.5Q576 0 539 0ZM291 886H510Q504 902 490.0 924.5Q476 947 454.0 964.0Q432 981 400 981Q368 981 346.0 964.0Q324 947 311.0 924.5Q298 902 291 886ZM71 823H729Q732 832 732 841Q732 857 721.5 861.5Q711 866 699 866H102Q90 866 79.0 861.5Q68 857 68 841Q68 832 71 823ZM178 641H391V804H84Q93 794 103.5 785.5Q114 777 121 767Q138 742 153.0 706.0Q168 670 178 641ZM410 641H623Q633 670 648.5 706.0Q664 742 680 767Q687 777 697.5 785.5Q708 794 717 804H410ZM259 20H542Q565 20 572.0 26.0Q579 32 579 42Q579 53 571.5 65.5Q564 78 556 85Q553 93 549.5 123.5Q546 154 546 209Q546 239 550.5 281.0Q555 323 562.5 370.0Q570 417 578.5 462.5Q587 508 595.5 545.5Q604 583 611 606L616 621H185L189 606Q196 583 204.5 545.5Q213 508 222.0 462.5Q231 417 238.5 370.0Q246 323 250.5 281.0Q255 239 255 209Q255 154 251.5 123.5Q248 93 245 85Q238 78 230.0 65.5Q222 53 222 42Q222 32 229.5 26.0Q237 20 259 20Z" />
  </g>
</svg>