<svg xmlns="http://www.w3.org/2000/svg" viewBox="49 187 954 310">
  <g transform="translate(0, 684) scale(1, -1)">
    <path fill="black" d="M526 187Q433 187 361.5 207.5Q290 228 237.5 261.0Q185 294 148.5 332.0Q112 370 90.0 405.0Q68 440 58.5 465.0Q49 490 49 497H1003Q1003 490 993.0 465.0Q983 440 961.0 405.0Q939 370 903.0 332.0Q867 294 814.5 261.0Q762 228 690.5 207.5Q619 187 526 187ZM511 206 401 341 512 478H74Q76 472 90.5 443.5Q105 415 135.5 376.0Q166 337 216.0 299.0Q266 261 339.0 234.5Q412 208 511 206ZM542 206Q641 208 714.0 234.5Q787 261 837.0 299.0Q887 337 917.5 376.0Q948 415 962.5 443.5Q977 472 979 478H540L651 341ZM526 218 625 341 526 464Q509 444 489.0 419.0Q469 394 452.0 372.5Q435 351 427 340Q435 330 452.0 309.0Q469 288 489.0 263.5Q509 239 526 218Z" />
  </g>
</svg>