<svg xmlns="http://www.w3.org/2000/svg" viewBox="49 166 1163 396">
  <g transform="translate(0, 728) scale(1, -1)">
    <path fill="black" d="M630 166Q574 166 524.5 183.5Q475 201 436.0 225.0Q397 249 372.0 270.0Q347 291 340 298L49 265V463L340 430Q347 437 372.0 458.0Q397 479 436.0 503.0Q475 527 524.5 544.5Q574 562 630 562Q686 562 735.5 544.5Q785 527 824.0 503.0Q863 479 888.5 458.0Q914 437 921 430L1212 463V265L921 298Q914 291 888.5 270.0Q863 249 824.0 225.0Q785 201 735.5 183.5Q686 166 630 166ZM630 186Q688 186 742.5 207.5Q797 229 842.5 260.0Q888 291 915 319L1192 288V440L915 409Q888 438 842.5 468.5Q797 499 742.5 520.5Q688 542 630 542Q573 542 518.0 520.5Q463 499 418.5 468.5Q374 438 346 409L68 440V288L346 319Q374 291 418.5 260.0Q463 229 518.0 207.5Q573 186 630 186Z" />
  </g>
</svg>