<svg xmlns="http://www.w3.org/2000/svg" viewBox="49 241 513 715">
  <g transform="translate(0, 1197) scale(1, -1)">
    <path fill="black" d="M197 241Q180 281 162.0 331.5Q144 382 131.5 430.0Q119 478 119 508Q119 528 122.5 545.5Q126 563 128 570Q119 577 100.0 596.5Q81 616 65.0 655.0Q49 694 49 757Q49 785 54.0 819.0Q59 853 72.5 884.5Q86 916 110.0 936.0Q134 956 172 956H533V898Q515 895 491.5 876.5Q468 858 450.0 826.5Q432 795 432 750Q432 715 446.0 688.5Q460 662 476 639Q482 629 488.5 619.5Q495 610 500 599Q508 604 522 604Q539 604 550.5 592.5Q562 581 562 564Q562 551 548.5 536.5Q535 522 514 503Q510 469 499.5 421.0Q489 373 477.0 325.0Q465 277 454 241ZM133 589Q135 595 139.5 603.5Q144 612 147 617Q131 639 114.0 673.0Q97 707 97 771Q97 812 108.5 841.0Q120 870 135.0 886.5Q150 903 160 905H497Q505 910 513 913V936H173Q125 936 96.5 888.0Q68 840 68 757Q68 708 79.0 674.5Q90 641 105.5 620.5Q121 600 133 589ZM212 261H439Q443 275 452.5 309.5Q462 344 472.0 387.0Q482 430 489.5 470.5Q497 511 497 537Q497 563 485.0 585.0Q473 607 459 628Q443 653 428.0 682.0Q413 711 413 750Q413 797 430.5 831.0Q448 865 470 886H184Q195 867 210.0 830.0Q225 793 225 747Q225 713 216.0 690.0Q207 667 194.5 650.0Q182 633 169.5 616.5Q157 600 150 577Q146 567 142.0 547.5Q138 528 138 508Q138 476 150.0 431.0Q162 386 179.0 340.5Q196 295 212 261ZM158 634Q163 640 174.5 655.5Q186 671 196.0 694.5Q206 718 206 747Q206 786 190.0 823.5Q174 861 161 883Q146 873 131.5 845.5Q117 818 117 771Q117 717 131.0 682.0Q145 647 158 634ZM517 531Q530 542 536.0 549.5Q542 557 542 564Q542 572 536.5 578.0Q531 584 522 584Q517 584 513.5 583.5Q510 583 508 582Q512 572 514.5 560.5Q517 549 517 537Z" />
  </g>
</svg>