<svg xmlns="http://www.w3.org/2000/svg" viewBox="49 241 500 439">
  <g transform="translate(0, 921) scale(1, -1)">
    <path fill="black" d="M299 241Q247 241 202.5 253.0Q158 265 124.0 281.5Q90 298 70.5 311.5Q51 325 49 327Q63 359 78.0 395.5Q93 432 106.0 467.5Q119 503 127.0 531.0Q135 559 135 573Q135 590 126.5 597.0Q118 604 109 608Q98 613 89.0 620.0Q80 627 80 643Q80 667 97.0 673.5Q114 680 136 680H462Q484 680 501.0 673.5Q518 667 518 643Q518 627 509.0 620.0Q500 613 489 608Q480 604 471.5 597.0Q463 590 463 573Q463 559 471.0 531.0Q479 503 492.0 467.5Q505 432 520.0 395.5Q535 359 549 327Q547 325 527.0 311.5Q507 298 473.5 281.5Q440 265 395.5 253.0Q351 241 299 241ZM117 625H481Q488 628 493.0 632.0Q498 636 498 643Q498 655 487.0 658.0Q476 661 465 661H133Q122 661 111.0 658.0Q100 655 100 643Q100 632 117 625ZM299 261Q356 261 402.5 275.5Q449 290 480.5 307.5Q512 325 525 334Q512 364 497.5 399.5Q483 435 470.5 469.5Q458 504 450.5 531.5Q443 559 443 573Q443 584 445.5 592.0Q448 600 452 605H146Q154 594 154 573Q154 559 146.5 531.5Q139 504 126.5 469.5Q114 435 100.0 399.5Q86 364 73 334Q86 325 117.5 307.5Q149 290 195.5 275.5Q242 261 299 261ZM302 336Q271 336 250.5 343.5Q230 351 223 358L302 547L381 358Q374 351 354.0 343.5Q334 336 302 336ZM302 355Q320 355 335.0 358.5Q350 362 357 366L302 498L247 366Q254 362 268.5 358.5Q283 355 302 355Z" />
  </g>
</svg>