<svg xmlns="http://www.w3.org/2000/svg" viewBox="49 246 575 434">
  <g transform="translate(0, 926) scale(1, -1)">
    <path fill="black" d="M106 246Q72 246 60.5 263.5Q49 281 49 297Q49 318 63.0 332.0Q77 346 90 350Q93 354 102.5 370.0Q112 386 123.5 409.0Q135 432 143.5 458.5Q152 485 152 511Q152 546 144.5 563.5Q137 581 126 591Q115 602 105.5 609.5Q96 617 96 639Q96 660 109.5 670.0Q123 680 154 680H518Q550 680 563.0 670.0Q576 660 576 639Q576 619 567.5 610.5Q559 602 548.5 593.5Q538 585 529.5 567.5Q521 550 521 511Q521 485 529.5 458.5Q538 432 549.0 409.0Q560 386 570.0 370.0Q580 354 583 350Q597 346 610.5 332.0Q624 318 624 297Q624 281 612.5 263.5Q601 246 566 246ZM134 610H539Q547 617 552.0 623.0Q557 629 557 639Q557 661 518 661H154Q133 661 124.5 655.5Q116 650 116 639Q116 629 121.5 623.0Q127 617 134 610ZM112 347H243L336 529L429 347H561Q551 362 537.0 388.5Q523 415 512.0 447.5Q501 480 501 511Q501 542 507.0 560.5Q513 579 521 590H152Q160 579 165.5 560.0Q171 541 171 511Q171 480 160.0 447.5Q149 415 135.5 388.5Q122 362 112 347ZM265 347H282L336 449L390 347H407L336 486ZM305 347H368L336 407ZM106 266H566Q589 266 596.5 276.5Q604 287 604 297Q604 310 598.0 317.0Q592 324 585 328H87Q80 324 74.0 317.0Q68 310 68 297Q68 287 75.5 276.5Q83 266 106 266Z" />
  </g>
</svg>