<svg xmlns="http://www.w3.org/2000/svg" viewBox="49 246 575 434">
  <g transform="translate(0, 926) scale(1, -1)">
    <path fill="black" d="M336 246Q273 246 216.5 262.5Q160 279 117.0 302.5Q74 326 49 347Q63 376 78.0 410.0Q93 444 106.5 477.5Q120 511 128.0 539.0Q136 567 136 583V680H537V583Q537 567 545.0 539.0Q553 511 566.5 477.5Q580 444 595.0 410.0Q610 376 624 347Q600 326 556.0 302.5Q512 279 455.5 262.5Q399 246 336 246ZM336 265Q389 265 433.0 276.0Q477 287 511.5 302.0Q546 317 568.5 331.5Q591 346 600 352Q582 390 563.0 435.5Q544 481 530.5 521.0Q517 561 517 580V660H156V580Q156 561 143.0 521.0Q130 481 110.5 435.5Q91 390 73 352Q82 346 104.5 331.5Q127 317 161.5 302.0Q196 287 240.0 276.0Q284 265 336 265Z" />
  </g>
</svg>