<svg xmlns="http://www.w3.org/2000/svg" viewBox="49 0 304 1001">
  <g transform="translate(0, 1001) scale(1, -1)">
    <path fill="black" d="M74 0V24Q95 45 117.5 73.5Q140 102 155.5 133.0Q171 164 171 189Q171 208 164.0 245.5Q157 283 145.5 331.5Q134 380 122 432Q109 489 96.5 543.5Q84 598 76.0 642.0Q68 686 68 710Q68 767 92.0 801.5Q116 836 169 843V882Q169 902 162.5 917.0Q156 932 151 938H100Q91 938 79.0 939.5Q67 941 58.0 948.0Q49 955 49 970Q49 985 58.0 991.5Q67 998 79.0 999.5Q91 1001 100 1001H302Q311 1001 323.0 999.5Q335 998 344.0 991.5Q353 985 353 970Q353 955 344.0 948.0Q335 941 323.0 939.5Q311 938 302 938H250Q246 932 239.0 917.0Q232 902 232 882V843Q286 836 309.5 801.5Q333 767 333 710Q333 686 325.0 642.0Q317 598 305.0 543.5Q293 489 279 432Q267 380 255.5 331.5Q244 283 237.0 245.5Q230 208 230 189Q230 164 246.0 133.0Q262 102 284.5 73.5Q307 45 328 24V0ZM100 958H302Q310 958 321.5 959.5Q333 961 333 970Q333 978 321.5 979.5Q310 981 302 981H100Q91 981 79.5 979.5Q68 978 68 970Q68 961 79.5 959.5Q91 958 100 958ZM188 845Q192 846 201 846Q204 846 207.0 846.0Q210 846 213 845V882Q213 899 218.0 913.5Q223 928 228 938H173Q179 928 183.5 914.0Q188 900 188 882ZM96 20H305Q288 40 266.0 67.0Q244 94 227.5 125.0Q211 156 211 189Q211 214 218.5 254.0Q226 294 238.0 341.5Q250 389 261 437Q270 473 279.0 514.0Q288 555 296.0 593.5Q304 632 309.0 663.0Q314 694 314 710Q314 766 287.5 796.0Q261 826 201 826Q140 826 113.5 796.0Q87 766 87 710Q87 694 92.0 663.0Q97 632 105.5 593.5Q114 555 123.0 514.0Q132 473 141 437Q152 389 163.5 341.5Q175 294 182.5 254.0Q190 214 190 189Q190 156 174.0 125.0Q158 94 136.0 67.0Q114 40 96 20Z" />
  </g>
</svg>