<svg xmlns="http://www.w3.org/2000/svg" viewBox="49 0 565 1001">
  <g transform="translate(0, 1001) scale(1, -1)">
    <path fill="black" d="M108 0 106 29 51 58 120 113 50 156 119 199 49 242 111 282Q98 293 81.0 305.5Q64 318 53 327L110 364L49 405L106 447L53 487L108 534Q94 545 78.0 557.5Q62 570 50 580L104 627Q93 639 79.0 652.0Q65 665 55 675L120 721Q106 732 89.0 744.0Q72 756 60 766L132 808L99 849Q105 872 121.0 898.0Q137 924 164.0 943.5Q191 963 228 968V970Q228 985 237.0 991.5Q246 998 258.0 999.5Q270 1001 279 1001H481Q490 1001 502.0 999.5Q514 998 523.0 991.5Q532 985 532 970Q532 955 523.0 948.0Q514 941 502.0 939.5Q490 938 481 938H429Q425 932 418.5 917.0Q412 902 412 882V843Q479 833 502 777Q517 780 526 791Q531 796 534.5 810.5Q538 825 542 833Q558 866 599 866H614V805H604Q593 805 590.0 797.0Q587 789 587 783Q587 771 585.5 760.0Q584 749 576 738Q566 723 550.5 715.0Q535 707 512 702Q511 676 503.0 633.0Q495 590 483.0 538.0Q471 486 458 432L433 320H517L574 0H184L241 320H327Q321 346 314.5 374.5Q308 403 301 432Q288 489 275.5 543.5Q263 598 255.0 642.0Q247 686 247 710Q247 767 271.0 801.5Q295 836 348 843V882Q348 902 341.5 917.0Q335 932 330 938H279Q269 938 256.0 940.0Q243 942 235 950Q204 948 179.0 930.0Q154 912 138.5 890.0Q123 868 121 852L163 801L95 764L153 721L85 673L133 626L81 581L138 535L84 488L140 447L83 406Q99 396 116.0 384.0Q133 372 146 364L87 325L144 280L86 242Q103 232 122.5 219.5Q142 207 156 199L87 156Q104 146 122.0 135.0Q140 124 154 115L86 61L126 41L128 1ZM279 958H481Q489 958 500.5 959.5Q512 961 512 970Q512 978 500.5 979.5Q489 981 481 981H279Q271 981 259.5 979.5Q248 978 248 970Q248 961 259.5 959.5Q271 958 279 958ZM368 845Q372 846 380 846Q383 846 386.0 846.0Q389 846 392 845V882Q392 899 397.0 913.5Q402 928 407 938H353Q358 928 363.0 914.0Q368 900 368 882ZM512 723Q530 728 541.0 733.0Q552 738 559 748Q569 762 569 784Q569 796 574.0 808.5Q579 821 594 822V848Q581 847 572.5 841.5Q564 836 559 824Q554 814 551.0 801.5Q548 789 540 779Q530 764 507 760Q512 742 512 723ZM275 20H484Q467 40 445.0 67.0Q423 94 406.5 125.0Q390 156 390 189Q390 214 397.5 254.0Q405 294 417.0 341.5Q429 389 440 437Q449 473 458.0 514.0Q467 555 475.0 593.5Q483 632 488.0 663.0Q493 694 493 710Q493 766 466.5 796.0Q440 826 380 826Q319 826 293.0 796.0Q267 766 267 710Q267 694 272.0 663.0Q277 632 285.0 593.5Q293 555 302.0 514.0Q311 473 320 437Q331 389 342.5 341.5Q354 294 362.0 254.0Q370 214 370 189Q370 156 353.5 125.0Q337 94 315.0 67.0Q293 40 275 20ZM208 20H246Q269 42 293.0 71.5Q317 101 333.5 132.5Q350 164 350 189Q350 205 345.0 234.5Q340 264 332 301H258Q245 230 233.0 160.5Q221 91 208 20ZM512 20H550Q537 91 525.0 160.5Q513 230 500 301H428Q420 263 415.0 234.0Q410 205 410 189Q410 164 426.5 132.5Q443 101 466.5 71.5Q490 42 512 20Z" />
  </g>
</svg>