<svg xmlns="http://www.w3.org/2000/svg" viewBox="49 0 926 992">
  <g transform="translate(0, 992) scale(1, -1)">
    <path fill="black" d="M159 0V24Q177 41 196.5 65.5Q216 90 229.0 117.0Q242 144 242 166Q242 183 236.0 215.5Q230 248 220.0 290.5Q210 333 199 378Q190 416 181.0 458.5Q172 501 164.5 541.5Q157 582 152.5 614.0Q148 646 148 662Q148 683 151 699H130Q100 699 87.0 684.5Q74 670 71.5 654.0Q69 638 69 633V7H49V633Q49 639 50.5 653.0Q52 667 59.0 682.0Q66 697 83.0 708.0Q100 719 130 719H157Q167 747 188.0 765.5Q209 784 241 789V816Q241 834 235.5 849.5Q230 865 226 871H211Q199 871 183.0 876.0Q167 881 167 900Q167 920 183.0 925.0Q199 930 211 930L270 992L328 930Q340 930 356.5 925.0Q373 920 373 900Q373 881 356.5 876.0Q340 871 328 871H313Q309 865 304.0 849.5Q299 834 299 816V789Q342 782 364.5 752.5Q387 723 391 679Q395 723 417.5 752.5Q440 782 483 789V816Q483 834 478.0 849.5Q473 865 468 871H453Q442 871 425.5 876.0Q409 881 409 900Q409 920 425.5 925.0Q442 930 453 930L512 992L570 930Q582 930 598.5 925.0Q615 920 615 900Q615 881 598.5 876.0Q582 871 570 871H555Q551 865 546.5 849.5Q542 834 542 816V789Q585 782 607.0 752.5Q629 723 633 679Q637 723 660.0 752.5Q683 782 726 789V816Q726 834 720.5 849.5Q715 865 710 871H695Q684 871 667.5 876.0Q651 881 651 900Q651 920 667.5 925.0Q684 930 695 930L754 992L813 930Q824 930 840.5 925.0Q857 920 857 900Q857 881 840.5 876.0Q824 871 813 871H797Q793 865 788.5 849.5Q784 834 784 816V789Q816 784 836.5 765.5Q857 747 867 719H894Q924 719 941.0 708.0Q958 697 965.0 682.0Q972 667 973.5 653.0Q975 639 975 633V7H955V633Q955 639 952.5 655.0Q950 671 937.5 685.0Q925 699 894 699H872Q874 691 875.0 681.5Q876 672 876 662Q876 646 871.5 614.0Q867 582 859.5 541.5Q852 501 843.0 458.5Q834 416 825 378Q814 333 804.0 290.5Q794 248 788.0 215.5Q782 183 782 166Q782 144 795.5 117.0Q809 90 828.0 65.5Q847 41 865 24V0H643V24Q661 41 680.5 65.5Q700 90 713.5 117.0Q727 144 727 166Q727 183 720.5 215.5Q714 248 704.5 290.5Q695 333 684 378Q674 423 663.0 474.5Q652 526 644.0 572.5Q636 619 633 646Q631 619 623.0 572.5Q615 526 604.5 474.5Q594 423 583 378Q572 333 562.0 290.5Q552 248 546.0 215.5Q540 183 540 166Q540 144 553.5 117.0Q567 90 586.0 65.5Q605 41 623 24V0H401V24Q419 41 438.5 65.5Q458 90 471.0 117.0Q484 144 484 166Q484 183 478.0 215.5Q472 248 462.0 290.5Q452 333 441 378Q431 423 420.0 474.5Q409 526 401.5 572.5Q394 619 391 646Q389 619 380.5 572.5Q372 526 361.5 474.5Q351 423 340 378Q330 333 320.0 290.5Q310 248 303.5 215.5Q297 183 297 166Q297 144 310.5 117.0Q324 90 343.5 65.5Q363 41 381 24V0ZM213 890H326Q334 890 343.5 891.5Q353 893 353 900Q353 905 342.0 908.0Q331 911 320 911L271 966L217 911Q210 911 198.0 909.5Q186 908 186 900Q186 893 196.0 891.5Q206 890 213 890ZM455 890H568Q576 890 585.5 891.5Q595 893 595 900Q595 905 584.5 908.0Q574 911 563 911L513 966L459 911Q452 911 440.0 909.5Q428 908 428 900Q428 893 438.0 891.5Q448 890 455 890ZM697 890H811Q818 890 827.5 891.5Q837 893 837 900Q837 905 826.5 908.0Q816 911 805 911L755 966L701 911Q694 911 682.0 909.5Q670 908 670 900Q670 893 680.0 891.5Q690 890 697 890ZM261 791H279V816Q279 832 284.0 847.0Q289 862 293 871H246Q251 862 256.0 847.0Q261 832 261 816ZM503 791H521V816Q521 832 526.0 847.0Q531 862 536 871H488Q493 862 498.0 847.0Q503 832 503 816ZM745 791H764V816Q764 832 768.5 847.0Q773 862 778 871H730Q735 862 740.0 847.0Q745 832 745 816ZM182 20H358Q344 37 325.0 60.0Q306 83 292.0 110.0Q278 137 278 166Q278 188 285.0 222.5Q292 257 302.0 299.0Q312 341 321 383Q329 415 337.5 456.5Q346 498 354.0 540.0Q362 582 367.0 615.0Q372 648 372 662Q372 711 347.5 741.0Q323 771 270 771Q217 771 192.0 741.0Q167 711 167 662Q167 648 172.0 615.0Q177 582 185.0 540.0Q193 498 202.0 456.5Q211 415 218 383Q228 341 238.0 299.0Q248 257 255.0 222.5Q262 188 262 166Q262 137 247.5 110.0Q233 83 214.5 60.0Q196 37 182 20ZM424 20H600Q586 37 567.0 60.0Q548 83 534.0 110.0Q520 137 520 166Q520 188 527.0 222.5Q534 257 544.0 299.0Q554 341 563 383Q571 415 579.5 456.5Q588 498 596.0 540.0Q604 582 609.0 615.0Q614 648 614 662Q614 711 589.5 741.0Q565 771 512 771Q459 771 434.5 741.0Q410 711 410 662Q410 648 415.0 615.0Q420 582 427.5 540.0Q435 498 444.0 456.5Q453 415 460 383Q470 341 480.0 299.0Q490 257 497.0 222.5Q504 188 504 166Q504 137 490.0 110.0Q476 83 457.0 60.0Q438 37 424 20ZM666 20H842Q828 37 809.0 60.0Q790 83 776.0 110.0Q762 137 762 166Q762 188 769.0 222.5Q776 257 786.0 299.0Q796 341 806 383Q814 415 822.5 456.5Q831 498 838.5 540.0Q846 582 851.0 615.0Q856 648 856 662Q856 711 831.5 741.0Q807 771 754 771Q702 771 677.0 741.0Q652 711 652 662Q652 648 657.0 615.0Q662 582 670.0 540.0Q678 498 687.0 456.5Q696 415 703 383Q713 341 722.5 299.0Q732 257 739.0 222.5Q746 188 746 166Q746 137 732.0 110.0Q718 83 699.0 60.0Q680 37 666 20Z" />
  </g>
</svg>