<svg xmlns="http://www.w3.org/2000/svg" viewBox="49 0 1030 1001">
  <g transform="translate(0, 1001) scale(1, -1)">
    <path fill="black" d="M49 0V563Q49 605 72.0 648.5Q95 692 160 723Q195 740 227.5 750.5Q260 761 283 771V1001H845V771Q868 761 900.5 750.5Q933 740 968 723Q1033 692 1056.0 648.5Q1079 605 1079 563V0H1060V549Q1060 605 1037.5 642.0Q1015 679 960 705Q923 723 895.0 732.0Q867 741 845 750V0H825V981H664V0H645V981H483V0H464V981H303V0H283V750Q261 741 233.0 732.0Q205 723 168 705Q113 679 90.5 642.0Q68 605 68 549V0Z" />
  </g>
</svg>