<svg xmlns="http://www.w3.org/2000/svg" viewBox="49 0 422 1001">
  <g transform="translate(0, 1001) scale(1, -1)">
    <path fill="black" d="M182 0Q172 27 158.0 67.0Q144 107 130.0 152.0Q116 197 105 238H49V257H100Q91 291 86.0 321.5Q81 352 81 375H49V394H81Q85 444 103.5 475.5Q122 507 145.0 524.0Q168 541 183 548V592H155Q151 592 139.0 597.0Q127 602 127 623Q127 643 139.0 648.0Q151 653 155 653H226V870Q226 910 217.5 920.5Q209 931 192 934Q184 935 171.0 937.5Q158 940 147.5 947.5Q137 955 137 970Q137 990 150.5 995.5Q164 1001 183 1001Q191 1001 209.0 997.0Q227 993 246.5 981.5Q266 970 280.0 946.0Q294 922 294 882V653H364Q369 653 381.0 648.0Q393 643 393 623Q393 602 381.0 597.0Q369 592 364 592H336V548Q352 541 374.5 524.0Q397 507 416.0 475.5Q435 444 438 394H471V375H439Q437 326 419 257H471V238H415Q404 197 390.0 152.0Q376 107 362.0 67.0Q348 27 338 0ZM245 653H275V882Q275 916 263.5 936.0Q252 956 236.0 966.0Q220 976 205.0 979.5Q190 983 183 983Q172 983 164.0 980.5Q156 978 156 970Q156 963 165.0 959.0Q174 955 185.5 953.0Q197 951 203 949Q211 948 221.0 942.5Q231 937 238.0 921.0Q245 905 245 870ZM155 612H364Q366 612 369.5 614.0Q373 616 373 623Q373 630 369.5 631.5Q366 633 364 633H155Q154 633 150.0 631.5Q146 630 146 623Q146 616 150.0 614.0Q154 612 155 612ZM101 394H418Q415 442 396.5 470.5Q378 499 355.0 514.0Q332 529 317 535V592H203V535Q188 529 165.0 514.0Q142 499 123.5 470.5Q105 442 101 394ZM120 257H399Q408 291 413.5 321.5Q419 352 419 375H100Q100 352 105.5 321.5Q111 291 120 257ZM196 20H324Q329 33 341.0 67.0Q353 101 368.0 146.5Q383 192 395 238H125Q138 192 152.5 146.5Q167 101 179.0 67.0Q191 33 196 20Z" />
  </g>
</svg>