<svg xmlns="http://www.w3.org/2000/svg" viewBox="49 176 646 696">
  <g transform="translate(0, 1048) scale(1, -1)">
    <path fill="black" d="M251 176Q239 176 221.0 182.5Q203 189 184.0 207.5Q165 226 149.5 262.0Q134 298 126 356H94Q78 356 63.5 366.0Q49 376 49 396Q49 416 63.5 426.0Q78 436 94 436H120V457Q120 465 120.0 473.0Q120 481 121 488H94Q78 488 63.5 497.5Q49 507 49 528Q49 548 63.5 558.0Q78 568 94 568H126Q132 616 142.0 658.0Q152 700 164 734Q186 799 210.5 835.5Q235 872 251 872Q268 872 292.0 835.5Q316 799 338 734Q349 704 357.5 668.5Q366 633 372 592Q378 633 387.0 668.5Q396 704 406 734Q428 799 452.5 835.5Q477 872 493 872Q510 872 534.5 835.5Q559 799 581 734Q592 700 602.0 658.0Q612 616 617 568H650Q667 568 681.0 558.0Q695 548 695 528Q695 507 681.0 497.5Q667 488 650 488H623Q624 481 624.0 473.0Q624 465 624 457V436H650Q667 436 681.0 426.0Q695 416 695 396Q695 376 681.0 366.0Q667 356 650 356H618Q610 298 594.0 262.5Q578 227 559.5 208.0Q541 189 523.0 182.5Q505 176 493 176Q478 176 454.0 187.0Q430 198 407.0 232.0Q384 266 372 334Q360 266 337.0 232.0Q314 198 290.5 187.0Q267 176 251 176ZM146 568H355Q350 615 340.0 655.5Q330 696 319 729Q300 787 279.5 819.0Q259 851 251 851Q243 851 223.0 819.0Q203 787 183 729Q171 696 161.5 655.5Q152 615 146 568ZM388 568H597Q591 615 582.0 655.5Q573 696 562 729Q542 787 521.5 819.0Q501 851 493 851Q485 851 465.0 819.0Q445 787 425 729Q414 696 404.0 655.5Q394 615 388 568ZM94 507H650Q664 507 670.0 514.0Q676 521 676 528Q676 536 670.0 542.0Q664 548 650 548H94Q81 548 74.5 542.0Q68 536 68 528Q68 521 74.5 514.0Q81 507 94 507ZM140 436H362V488H140V457Q140 452 139.5 446.5Q139 441 140 436ZM382 436H604V488H382V457Q382 452 381.5 446.5Q381 441 382 436ZM94 375H650Q664 375 670.0 382.0Q676 389 676 396Q676 404 670.0 410.5Q664 417 650 417H94Q81 417 74.5 410.5Q68 404 68 396Q68 389 74.5 382.0Q81 375 94 375ZM251 195Q263 195 283.5 206.5Q304 218 324.5 252.5Q345 287 355 356H146Q156 287 176.5 252.5Q197 218 218.5 206.5Q240 195 251 195ZM493 195Q505 195 525.5 206.5Q546 218 567.0 252.5Q588 287 598 356H388Q399 287 419.5 252.5Q440 218 461.0 206.5Q482 195 493 195Z" />
  </g>
</svg>