<svg xmlns="http://www.w3.org/2000/svg" viewBox="49 166 421 633">
  <g transform="translate(0, 965) scale(1, -1)">
    <path fill="black" d="M139 166Q124 196 108.5 234.0Q93 272 79.5 312.0Q66 352 57.5 388.0Q49 424 49 450Q49 501 76.5 537.0Q104 573 134 604Q157 627 175.0 649.0Q193 671 193 695Q193 716 184.0 726.0Q175 736 168 739H152Q148 739 136.0 744.0Q124 749 124 769Q124 789 136.0 794.0Q148 799 152 799H366Q371 799 383.0 794.0Q395 789 395 769Q395 749 383.0 744.0Q371 739 366 739H350Q343 736 334.0 726.5Q325 717 325 695Q325 671 343.5 649.0Q362 627 384 604Q415 573 442.5 537.0Q470 501 470 450Q470 424 461.5 388.0Q453 352 439.5 312.0Q426 272 410.5 234.0Q395 196 380 166ZM152 758H366Q368 758 371.5 760.0Q375 762 375 769Q375 777 371.5 778.5Q368 780 366 780H152Q151 780 147.5 778.5Q144 777 144 769Q144 762 147.5 760.0Q151 758 152 758ZM86 516H432Q421 536 404.5 554.5Q388 573 371 590Q346 616 326.0 640.5Q306 665 306 695Q306 711 310.0 721.5Q314 732 319 739H199Q205 732 209.0 721.5Q213 711 213 695Q213 665 193.5 640.5Q174 616 148 590Q131 573 114.5 554.5Q98 536 86 516ZM151 185H368Q386 225 405.0 275.0Q424 325 437.0 372.5Q450 420 450 450Q450 475 441 496H77Q68 475 68 450Q68 420 81.5 372.5Q95 325 114.0 275.0Q133 225 151 185Z" />
  </g>
</svg>