<svg xmlns="http://www.w3.org/2000/svg" viewBox="49 151 1228 408">
  <g transform="translate(0, 710) scale(1, -1)">
    <path fill="black" d="M1088 151Q1036 151 993.5 176.5Q951 202 925.5 244.5Q900 287 900 339Q900 386 921.5 426.5Q943 467 979 492Q970 495 964.0 502.5Q958 510 958 524Q958 547 972.0 553.0Q986 559 1001 559H1175Q1190 559 1204.0 553.0Q1218 547 1218 524Q1218 510 1212.0 502.5Q1206 495 1198 493Q1234 467 1255.5 426.5Q1277 386 1277 339Q1277 287 1251.5 244.5Q1226 202 1183.0 176.5Q1140 151 1088 151ZM237 151Q185 151 142.5 176.5Q100 202 74.5 244.5Q49 287 49 339Q49 386 70.5 426.5Q92 467 127 492Q119 495 112.5 502.5Q106 510 106 524Q106 547 120.0 553.0Q134 559 149 559H324Q339 559 353.0 553.0Q367 547 367 524Q367 510 360.5 502.5Q354 495 346 493Q382 467 403.5 426.5Q425 386 425 339Q425 287 399.5 244.5Q374 202 331.5 176.5Q289 151 237 151ZM663 151Q611 151 568.5 176.5Q526 202 500.5 244.5Q475 287 475 339Q475 386 496.0 426.5Q517 467 553 492Q545 495 538.5 502.5Q532 510 532 524Q532 547 546.0 553.0Q560 559 575 559H750Q765 559 778.5 553.0Q792 547 792 524Q792 510 786.0 502.5Q780 495 772 493Q808 467 829.5 426.5Q851 386 851 339Q851 287 825.5 244.5Q800 202 757.5 176.5Q715 151 663 151ZM151 507Q171 517 192.5 522.5Q214 528 237 528Q284 528 323 507L329 508Q347 510 347 524Q347 534 341.5 537.0Q336 540 323 540H150Q137 540 131.5 537.0Q126 534 126 524Q126 510 144 508ZM577 507Q597 517 618.0 522.5Q639 528 663 528Q710 528 749 507L755 508Q773 510 773 524Q773 534 767.5 537.0Q762 540 749 540H576Q563 540 557.5 537.0Q552 534 552 524Q552 510 570 508ZM1002 507Q1022 517 1043.5 522.5Q1065 528 1088 528Q1135 528 1174 507L1181 508Q1189 509 1194.0 512.5Q1199 516 1199 524Q1199 534 1193.0 537.0Q1187 540 1174 540H1002Q989 540 983.5 537.0Q978 534 978 524Q978 510 996 508ZM237 171Q284 171 322.5 193.5Q361 216 383.5 254.5Q406 293 406 339Q406 386 383.5 424.5Q361 463 322.5 485.5Q284 508 237 508Q190 508 151.5 485.5Q113 463 90.5 424.5Q68 386 68 339Q68 293 90.5 254.5Q113 216 151.5 193.5Q190 171 237 171ZM663 171Q710 171 748.0 193.5Q786 216 809.0 254.5Q832 293 832 339Q832 386 809.0 424.5Q786 463 748.0 485.5Q710 508 663 508Q616 508 577.5 485.5Q539 463 516.5 424.5Q494 386 494 339Q494 293 516.5 254.5Q539 216 577.5 193.5Q616 171 663 171ZM1088 171Q1135 171 1173.5 193.5Q1212 216 1234.5 254.5Q1257 293 1257 339Q1257 386 1234.5 424.5Q1212 463 1173.5 485.5Q1135 508 1088 508Q1042 508 1003.5 485.5Q965 463 942.5 424.5Q920 386 920 339Q920 293 942.5 254.5Q965 216 1003.5 193.5Q1042 171 1088 171Z" />
  </g>
</svg>