<svg xmlns="http://www.w3.org/2000/svg" viewBox="49 -3 561 1004">
  <g transform="translate(0, 998) scale(1, -1)">
    <path fill="black" d="M123 -3Q104 -3 86.0 -1.5Q68 0 59 1L49 39Q50 39 65.5 43.5Q81 48 104.5 55.5Q128 63 152.5 72.5Q177 82 195.5 91.0Q214 100 219 108Q228 122 232.5 153.0Q237 184 238.5 218.5Q240 253 240 277Q240 300 244.0 322.5Q248 345 252 363Q254 374 256.0 383.5Q258 393 258 398Q258 411 255 421Q254 427 253.5 434.5Q253 442 253 452Q253 461 257.5 474.5Q262 488 268.0 501.0Q274 514 276 520Q280 530 288.0 557.0Q296 584 303.0 616.5Q310 649 311 674Q285 696 269.5 728.0Q254 760 254 798Q254 842 274.0 877.5Q294 913 328 935Q320 937 314.0 944.5Q308 952 308 966Q308 989 322.0 995.0Q336 1001 351 1001H506Q521 1001 535.0 995.0Q549 989 549 966Q549 953 543.0 945.0Q537 937 529 935Q563 913 583.5 877.5Q604 842 604 798Q604 754 584.0 719.0Q564 684 531 662L533 633Q535 618 537.0 607.0Q539 596 539 564Q539 554 538.5 543.0Q538 532 538 519Q538 491 541 476Q554 430 563.5 386.5Q573 343 578.5 309.5Q584 276 584 260L591 112Q592 95 601 76Q604 66 607.0 56.5Q610 47 610 37Q610 13 593.5 5.5Q577 -2 563 -2Q555 -2 547.5 1.0Q540 4 534 8Q527 12 521.0 15.0Q515 18 508 18Q502 18 491.0 15.0Q480 12 468 9Q450 5 430.5 1.0Q411 -3 397 -3Q378 -3 360.0 -1.5Q342 0 333 1L332 11Q322 4 309.5 1.0Q297 -2 289 -2Q280 -2 273.0 1.0Q266 4 259 8Q253 12 247.0 15.0Q241 18 234 18Q227 18 216.5 15.0Q206 12 193 9Q175 5 156.0 1.0Q137 -3 123 -3ZM354 949Q390 963 429 963Q466 963 502 949L507 950Q515 951 522.5 954.5Q530 958 530 966Q530 976 524.0 978.5Q518 981 505 981H352Q339 981 333.5 978.5Q328 976 328 966Q328 952 346 950ZM429 652Q472 652 507.0 670.5Q542 689 563.0 722.0Q584 755 584 798Q584 841 563.0 874.0Q542 907 507.0 925.5Q472 944 429 944Q386 944 350.5 925.5Q315 907 294.0 874.0Q273 841 273 798Q273 755 294.0 722.0Q315 689 350.5 670.5Q386 652 429 652ZM119 15Q133 15 152.5 19.5Q172 24 188 28Q203 32 215.0 34.5Q227 37 234 37Q242 37 252.5 32.5Q263 28 269 25Q280 18 290 18Q298 18 312.0 21.5Q326 25 326 37Q326 44 323.0 52.5Q320 61 317 69Q313 80 309.5 93.0Q306 106 306 119Q306 130 311.0 155.5Q316 181 323.0 212.0Q330 243 336.5 271.0Q343 299 347 315Q351 329 352.0 359.0Q353 389 353 411Q353 420 359.0 440.5Q365 461 372 486Q383 523 392.0 560.0Q401 597 404 634Q384 637 365.5 643.5Q347 650 330 660Q328 638 321.5 608.5Q315 579 307.5 552.5Q300 526 294 512Q288 496 280.0 479.5Q272 463 272 449Q272 442 273.0 436.0Q274 430 275 425Q276 419 276.5 413.5Q277 408 277 398Q277 382 271 359Q268 341 264.0 319.0Q260 297 260 277Q260 252 258.0 215.5Q256 179 251.0 146.0Q246 113 236 98Q228 86 202.5 73.5Q177 61 147.0 50.5Q117 40 95.0 33.0Q73 26 72 26V17Q79 16 91.0 15.5Q103 15 119 15ZM394 15Q408 15 427.5 19.5Q447 24 463 28Q477 32 489.0 34.5Q501 37 508 37Q516 37 527.0 32.5Q538 28 543 25Q554 18 564 18Q572 18 581.0 21.5Q590 25 590 37Q590 44 587.5 52.5Q585 61 582 69Q578 80 574.5 93.0Q571 106 571 119L565 259Q564 277 558.5 310.5Q553 344 543.5 386.5Q534 429 522 471Q520 481 519.0 493.5Q518 506 518 519Q518 530 518.5 540.5Q519 551 519 564Q519 594 516.5 604.0Q514 614 514 629L513 652Q475 633 432 633Q434 626 436.0 618.0Q438 610 438 602V570Q439 560 439.5 539.0Q440 518 440.5 496.0Q441 474 442 458Q443 443 450.5 421.5Q458 400 463 375Q475 329 481.5 297.5Q488 266 490 259Q491 256 495.0 241.0Q499 226 504.0 206.0Q509 186 513.0 167.5Q517 149 517 138Q517 113 511.0 103.5Q505 94 501 90Q487 76 461.5 64.5Q436 53 409.0 45.0Q382 37 363.5 33.0Q345 29 344 29V28L346 18Q352 17 365.0 16.0Q378 15 394 15ZM344 47Q361 51 386.5 57.5Q412 64 437.5 74.0Q463 84 479 95Q488 101 493.0 110.5Q498 120 498 138Q498 153 491.5 178.5Q485 204 478.5 226.0Q472 248 471 252Q469 262 463.0 290.5Q457 319 446 365Q439 393 430.5 418.5Q422 444 422 458Q422 469 422.0 490.5Q422 512 421.0 533.0Q420 554 419.5 566.0Q419 578 419 570Q418 578 418.0 585.5Q418 593 418 599Q413 567 405.5 538.5Q398 510 390 480Q383 456 378.0 437.5Q373 419 373 411Q373 389 371.5 357.5Q370 326 366 310Q362 295 355.5 267.5Q349 240 342.0 209.5Q335 179 330.5 154.5Q326 130 326 119Q326 108 329.0 97.0Q332 86 336 76Q338 69 340.5 61.5Q343 54 344 47Z" />
  </g>
</svg>