<svg xmlns="http://www.w3.org/2000/svg" viewBox="49 202 432 741">
  <g transform="translate(0, 1145) scale(1, -1)">
    <path fill="black" d="M143 202 49 478H64Q85 489 104.0 553.0Q123 617 137 716Q146 777 156.5 828.5Q167 880 191.5 911.5Q216 943 265 943Q314 943 338.5 911.5Q363 880 374.0 828.5Q385 777 394 716Q408 617 426.5 553.0Q445 489 466 478H481L387 202ZM92 478H438Q419 502 403.5 558.0Q388 614 374 713Q366 770 356.5 817.5Q347 865 326.5 894.0Q306 923 265 923Q225 923 204.0 894.0Q183 865 173.5 817.5Q164 770 156 713Q142 614 127.0 558.0Q112 502 92 478ZM158 222H373L454 458H77Z" />
  </g>
</svg>