<svg xmlns="http://www.w3.org/2000/svg" viewBox="49 219 1020 267">
  <g transform="translate(0, 705) scale(1, -1)">
    <path fill="black" d="M189 219Q171 219 147.5 221.5Q124 224 101.5 236.0Q79 248 64.0 275.5Q49 303 49 353Q49 403 64.0 430.0Q79 457 101.5 469.0Q124 481 147.5 483.5Q171 486 189 486H929Q946 486 970.0 483.5Q994 481 1016.5 469.5Q1039 458 1054.0 430.5Q1069 403 1069 353Q1069 303 1054.0 275.5Q1039 248 1017.0 236.0Q995 224 971.0 221.5Q947 219 929 219ZM189 239H929Q947 239 967.5 241.0Q988 243 1007.0 253.0Q1026 263 1038.0 286.5Q1050 310 1050 353Q1050 396 1037.5 419.5Q1025 443 1006.0 453.0Q987 463 966.5 465.0Q946 467 929 467H189Q173 467 152.0 465.0Q131 463 112.0 453.0Q93 443 80.5 419.5Q68 396 68 353Q68 310 80.5 286.5Q93 263 112.0 253.0Q131 243 151.5 241.0Q172 239 189 239Z" />
  </g>
</svg>