<svg xmlns="http://www.w3.org/2000/svg" viewBox="49 219 1169 361">
  <g transform="translate(0, 799) scale(1, -1)">
    <path fill="black" d="M338 219Q321 219 297.0 221.5Q273 224 250.5 236.0Q228 248 213.0 275.5Q198 303 198 353Q198 387 206 411Q153 425 114.0 453.5Q75 482 49 520L65 531Q89 495 126.0 468.5Q163 442 213 429Q225 453 243 465Q196 480 160.0 507.0Q124 534 101 569L118 580Q142 544 179.5 517.5Q217 491 268 478Q288 484 306.5 485.0Q325 486 338 486H1078Q1095 486 1118.5 483.5Q1142 481 1165.0 469.5Q1188 458 1203.0 430.5Q1218 403 1218 353Q1218 303 1203.0 275.5Q1188 248 1165.5 236.0Q1143 224 1119.0 221.5Q1095 219 1078 219ZM338 239H1078Q1095 239 1116.0 241.0Q1137 243 1156.0 253.0Q1175 263 1187.0 286.5Q1199 310 1199 353Q1199 396 1186.5 419.5Q1174 443 1155.0 453.0Q1136 463 1115.5 465.0Q1095 467 1078 467H338Q322 467 301.5 465.0Q281 463 261.5 453.0Q242 443 229.5 419.5Q217 396 217 353Q217 310 229.5 286.5Q242 263 261.0 253.0Q280 243 300.5 241.0Q321 239 338 239Z" />
  </g>
</svg>