<svg xmlns="http://www.w3.org/2000/svg" viewBox="49 212 583 583">
  <g transform="translate(0, 1007) scale(1, -1)">
    <path fill="black" d="M340 212Q280 212 227.0 234.5Q174 257 134.0 297.0Q94 337 71.5 390.0Q49 443 49 503Q49 564 71.5 617.0Q94 670 134.0 710.0Q174 750 227.0 772.5Q280 795 340 795Q400 795 453.0 772.5Q506 750 546.5 710.0Q587 670 609.5 617.0Q632 564 632 503Q632 443 609.5 390.0Q587 337 546.5 297.0Q506 257 453.0 234.5Q400 212 340 212ZM197 272 242 449H439L483 272Q542 308 577.0 369.0Q612 430 612 503Q612 559 591.0 608.5Q570 658 532.5 695.5Q495 733 445.5 754.0Q396 775 340 775Q284 775 234.5 754.0Q185 733 147.5 695.5Q110 658 89.0 608.5Q68 559 68 503Q68 430 103.5 369.0Q139 308 197 272ZM340 231Q374 231 405.5 239.5Q437 248 465 262L424 429H257L215 262Q243 248 274.5 239.5Q306 231 340 231Z" />
  </g>
</svg>