<svg xmlns="http://www.w3.org/2000/svg" viewBox="49 0 775 1001">
  <g transform="translate(0, 1001) scale(1, -1)">
    <path fill="black" d="M49 0V497H146V869Q146 875 153.0 896.0Q160 917 178.0 941.5Q196 966 230.5 983.5Q265 1001 320 1001Q375 1001 409.0 983.5Q443 966 461.5 942.0Q480 918 487.0 897.0Q494 876 494 869V534Q499 541 507 551Q541 591 585.0 621.0Q629 651 668 651H670V728Q667 728 664.0 728.5Q661 729 657 730Q635 737 624.5 751.5Q614 766 603 786Q594 803 591.5 820.5Q589 838 583 855Q579 868 567.0 875.5Q555 883 540 884L537 905Q542 913 556.5 924.0Q571 935 594 935Q613 935 628 926Q636 945 649.0 965.5Q662 986 680 1000Q699 986 712.0 965.5Q725 945 732 926Q747 935 767 935Q790 935 804.5 924.0Q819 913 824 905L820 884Q806 883 794.0 875.5Q782 868 777 855Q771 838 768.5 820.5Q766 803 758 786Q748 767 736.5 752.0Q725 737 703 730Q699 729 696.0 729.0Q693 729 690 728V648Q710 644 719.0 633.0Q728 622 731.0 610.5Q734 599 734 592Q734 576 722.0 560.0Q710 544 690 529V5H670V515Q669 515 667 513Q643 498 616.0 485.0Q589 472 566 462Q544 452 526.0 442.0Q508 432 494 423V413H532Q534 410 535.5 405.0Q537 400 537 394Q537 380 523 361Q538 351 547.0 334.5Q556 318 556 292Q556 270 543.5 248.5Q531 227 510.0 213.0Q489 199 463 199Q438 199 417.0 213.0Q396 227 383.5 248.5Q371 270 371 292Q371 318 380.0 334.5Q389 351 404 361Q397 370 394.0 379.0Q391 388 391 394Q391 400 393.0 405.0Q395 410 396 413H434V851Q434 856 430.0 870.5Q426 885 414.5 901.0Q403 917 380.5 928.5Q358 940 320 940Q282 940 259.5 928.5Q237 917 225.5 901.0Q214 885 210.0 870.5Q206 856 206 851V497H331V0ZM453 463Q458 473 463.0 483.5Q468 494 475 504V869Q475 874 469.5 892.0Q464 910 448.0 930.5Q432 951 401.0 966.0Q370 981 320 981Q270 981 239.0 966.0Q208 951 192.0 930.5Q176 910 170.5 892.0Q165 874 165 869V497H187V851Q187 857 191.0 874.5Q195 892 207.5 912.0Q220 932 247.0 946.0Q274 960 320 960Q366 960 392.5 946.0Q419 932 432.0 912.0Q445 892 449.0 874.5Q453 857 453 851ZM680 870Q686 881 694.0 892.0Q702 903 714 915Q710 930 700.5 946.5Q691 963 680 974Q656 948 646 915Q669 892 680 870ZM680 745Q704 745 718.0 762.0Q732 779 741 795Q750 813 752.0 830.0Q754 847 759 864Q764 879 776.5 888.0Q789 897 802 901Q798 904 791.0 910.0Q784 916 770 916Q743 916 724.5 897.5Q706 879 695.0 857.0Q684 835 680 824Q677 835 666.0 857.0Q655 879 636.5 897.5Q618 916 591 916Q577 916 569.5 910.0Q562 904 558 901Q572 897 584.5 888.0Q597 879 601 864Q606 847 608.0 830.0Q610 813 620 795Q628 779 642.0 762.0Q656 745 680 745ZM494 446Q507 454 522.0 462.0Q537 470 556 479Q582 490 606.0 502.0Q630 514 652 527Q661 531 670 538V631H668Q644 631 617.5 617.0Q591 603 566.0 581.5Q541 560 521 537Q506 519 494 498ZM690 553Q714 574 714 592Q714 603 709.0 613.5Q704 624 690 628ZM68 20H312V478H68ZM454 417 475 433V462Q468 449 462.5 437.0Q457 425 454 417ZM190 275Q162 275 142.5 294.5Q123 314 123 342Q123 370 142.5 389.5Q162 409 190 409Q218 409 237.5 389.5Q257 370 257 342Q257 314 237.5 294.5Q218 275 190 275ZM421 370Q441 376 464 376Q475 376 485.5 375.0Q496 374 506 370Q517 381 517 393H411Q411 387 414.0 381.0Q417 375 421 370ZM190 294Q210 294 224.0 308.5Q238 323 238 342Q238 362 224.0 376.0Q210 390 190 390Q171 390 157.0 376.0Q143 362 143 342Q143 323 157.0 308.5Q171 294 190 294ZM463 218Q484 218 500.5 229.5Q517 241 527.0 258.5Q537 276 537 292Q537 327 515.5 342.0Q494 357 463 357Q433 357 411.5 342.0Q390 327 390 292Q390 276 400.0 258.5Q410 241 426.5 229.5Q443 218 463 218ZM190 88Q162 88 142.5 107.5Q123 127 123 155Q123 183 142.5 203.0Q162 223 190 223Q218 223 237.5 203.0Q257 183 257 155Q257 127 237.5 107.5Q218 88 190 88Z" />
  </g>
</svg>