<svg xmlns="http://www.w3.org/2000/svg" viewBox="49 0 775 1001">
  <g transform="translate(0, 1001) scale(1, -1)">
    <path fill="black" d="M542 0V497H667V851Q667 856 663.0 870.5Q659 885 647.5 901.0Q636 917 613.5 928.5Q591 940 553 940Q515 940 492.5 928.5Q470 917 458.5 901.0Q447 885 443.0 870.5Q439 856 439 851V413H477Q481 405 481 394Q481 388 478.5 379.0Q476 370 469 361Q484 351 493.0 334.5Q502 318 502 292Q502 270 489.5 248.5Q477 227 456.0 213.0Q435 199 409 199Q384 199 362.5 213.0Q341 227 328.5 248.5Q316 270 316 292Q316 318 325.0 334.5Q334 351 349 361Q336 378 336 394Q336 405 340 413H378V423Q365 432 347.0 442.0Q329 452 306 462Q283 472 256.0 485.0Q229 498 206 513Q204 515 202 515V5H183V529Q164 544 151.5 560.0Q139 576 139 592Q139 599 141.5 610.5Q144 622 153.5 633.0Q163 644 183 648V728Q180 729 176.5 729.0Q173 729 169 730Q147 737 136.0 752.0Q125 767 115 786Q107 803 104.5 820.5Q102 838 96 855Q92 868 79.5 875.5Q67 883 52 884L49 905Q54 913 68.5 924.0Q83 935 106 935Q125 935 141 926Q148 945 161.0 965.5Q174 986 192 1000Q211 986 224.0 965.5Q237 945 244 926Q259 935 279 935Q302 935 317.0 924.0Q332 913 336 905L333 884Q318 883 306.0 875.5Q294 868 289 855Q283 838 280.5 820.5Q278 803 270 786Q260 766 249.0 751.5Q238 737 215 730Q212 729 209.0 728.5Q206 728 202 728V651H204Q244 651 288.0 621.0Q332 591 366 551Q369 547 372.5 543.0Q376 539 378 534V869Q378 876 385.0 897.0Q392 918 410.5 942.0Q429 966 463.5 983.5Q498 1001 553 1001Q608 1001 642.5 983.5Q677 966 695.0 941.5Q713 917 720.0 896.0Q727 875 727 869V497H824V0ZM419 463V851Q419 857 423.0 874.5Q427 892 440.0 912.0Q453 932 480.0 946.0Q507 960 553 960Q599 960 625.5 946.0Q652 932 665.0 912.0Q678 892 682.0 874.5Q686 857 686 851V497H708V869Q708 874 702.5 892.0Q697 910 681.0 930.5Q665 951 634.0 966.0Q603 981 553 981Q502 981 471.5 966.0Q441 951 425.0 930.5Q409 910 403.5 892.0Q398 874 398 869V504Q411 484 419 463ZM192 870Q198 881 206.0 892.0Q214 903 227 915Q223 930 213.0 946.5Q203 963 192 974Q168 948 158 915Q181 892 192 870ZM192 745Q216 745 230.5 762.0Q245 779 253 795Q262 813 264.5 830.0Q267 847 271 864Q276 879 288.5 888.0Q301 897 314 901Q310 904 303.0 910.0Q296 916 282 916Q255 916 236.5 897.5Q218 879 207.0 857.0Q196 835 192 824Q189 835 178.0 857.0Q167 879 148.5 897.5Q130 916 103 916Q89 916 82.0 910.0Q75 904 70 901Q84 897 96.5 888.0Q109 879 113 864Q118 847 120.5 830.0Q123 813 132 795Q140 779 154.5 762.0Q169 745 192 745ZM378 446V498Q372 509 365.5 518.5Q359 528 352 537Q332 560 307.0 581.5Q282 603 255.5 617.0Q229 631 204 631H202V538Q207 535 211.5 532.0Q216 529 220 527Q243 514 267.5 502.0Q292 490 317 479Q336 470 351.0 462.0Q366 454 378 446ZM183 553V628Q170 624 164.0 613.5Q158 603 158 592Q158 582 165.0 572.5Q172 563 183 553ZM561 20H804V478H561ZM419 417Q413 432 398 462V433ZM683 275Q655 275 635.0 294.5Q615 314 615 342Q615 370 635.0 389.5Q655 409 683 409Q711 409 730.5 389.5Q750 370 750 342Q750 314 730.5 294.5Q711 275 683 275ZM367 370Q376 374 387.0 375.0Q398 376 409 376Q432 376 451 370Q462 381 462 393H355Q355 387 359.0 381.0Q363 375 367 370ZM683 294Q702 294 716.0 308.5Q730 323 730 342Q730 362 716.0 376.0Q702 390 683 390Q664 390 649.5 376.0Q635 362 635 342Q635 323 649.5 308.5Q664 294 683 294ZM409 218Q430 218 446.5 229.5Q463 241 473.0 258.5Q483 276 483 292Q483 327 461.5 342.0Q440 357 409 357Q378 357 357.0 342.0Q336 327 336 292Q336 276 346.0 258.5Q356 241 372.5 229.5Q389 218 409 218ZM683 88Q655 88 635.0 107.5Q615 127 615 155Q615 183 635.0 203.0Q655 223 683 223Q711 223 730.5 203.0Q750 183 750 155Q750 127 730.5 107.5Q711 88 683 88Z" />
  </g>
</svg>