<svg xmlns="http://www.w3.org/2000/svg" viewBox="65 0 424 1001">
  <g transform="translate(0, 1001) scale(1, -1)">
    <path fill="black" d="M276 0Q255 0 244.0 12.0Q233 24 230.0 40.5Q227 57 228 68L250 423Q227 435 209.5 458.5Q192 482 181.0 509.0Q170 536 165 557Q155 558 141.5 562.0Q128 566 118.0 578.0Q108 590 108 614Q108 631 128.0 629.5Q148 628 167 620Q171 627 186 640L170 667Q166 675 159.0 678.0Q152 681 145 681H142V731H150Q141 748 127.0 775.5Q113 803 98.5 834.0Q84 865 74.5 893.0Q65 921 65 937Q65 965 82.0 983.0Q99 1001 125 1001Q142 1001 152.0 996.0Q162 991 167 983V997H388V983Q393 991 403.0 996.0Q413 1001 429 1001Q456 1001 472.5 983.0Q489 965 489 937Q489 921 479.5 893.0Q470 865 455.5 834.0Q441 803 427.0 775.5Q413 748 404 731H413V681H410Q403 681 396.5 678.0Q390 675 385 667L369 640Q375 634 380.0 629.0Q385 624 388 620Q407 628 427.0 629.5Q447 631 447 614Q447 590 437.0 578.0Q427 566 414.0 562.0Q401 558 390 557Q386 535 374.0 507.5Q362 480 344.0 457.0Q326 434 302 422L325 68Q326 57 322.5 40.5Q319 24 308.5 12.0Q298 0 276 0ZM383 732Q390 745 404.0 773.0Q418 801 433.5 833.5Q449 866 459.5 894.5Q470 923 470 937Q470 956 458.5 968.5Q447 981 429 981Q410 981 404.5 972.0Q399 963 399 956Q399 930 417 930Q420 930 425.0 933.0Q430 936 430 943V947H449V943Q449 924 437.5 917.5Q426 911 417 911Q401 911 390.0 922.5Q379 934 379 956V958Q376 955 373.5 951.5Q371 948 369 944Q374 943 374 935V924Q374 917 372.0 916.0Q370 915 364 915H361ZM171 732 193 915H190Q185 915 183.0 916.0Q181 917 181 924V935Q181 943 186 944Q182 952 175 958V956Q175 934 164.0 922.5Q153 911 138 911Q128 911 116.5 917.5Q105 924 105 943V947H125V943Q125 936 129.5 933.0Q134 930 138 930Q145 930 150.5 936.5Q156 943 156 956Q156 963 150.5 972.0Q145 981 125 981Q108 981 96.5 968.5Q85 956 85 937Q85 922 95.5 893.5Q106 865 121.0 832.5Q136 800 150.0 772.5Q164 745 171 732ZM208 944H346Q355 964 369 976V977H186V976Q192 971 198.0 961.5Q204 952 208 944ZM191 731H203L225 907H330L351 731H363L341 915H212ZM223 731H331Q327 775 322.0 810.0Q317 845 312 888H243ZM161 700H394V712H161ZM202 652Q216 661 234.5 668.0Q253 675 277 675Q302 675 320.5 668.0Q339 661 353 652L369 681H185ZM277 433Q295 433 312.0 447.5Q329 462 342.5 484.5Q356 507 365.0 531.5Q374 556 375 577Q392 575 409.0 581.0Q426 587 426 608Q426 612 410.5 606.5Q395 601 381 594Q369 614 341.5 634.5Q314 655 277 655Q240 655 212.5 634.5Q185 614 173 594Q159 601 144.0 606.5Q129 612 129 608Q129 587 146.0 581.0Q163 575 179 577Q181 556 190.0 531.5Q199 507 213.0 484.5Q227 462 244.0 447.5Q261 433 277 433ZM278 493Q266 493 254.0 498.0Q242 503 242 509Q242 516 246.5 531.0Q251 546 257 558Q256 558 249.5 557.5Q243 557 232 557Q199 557 199 571Q199 578 207.0 584.5Q215 591 233 591Q251 591 263.5 580.5Q276 570 276 557Q276 545 272.0 535.5Q268 526 268 520Q268 514 272.5 513.5Q277 513 278 513Q280 513 284.5 513.5Q289 514 289 520Q289 526 284.5 535.5Q280 545 280 557Q280 570 293.0 580.5Q306 591 324 591Q342 591 350.0 584.5Q358 578 358 571Q358 557 325 557Q314 557 307.5 557.5Q301 558 299 558Q306 546 310.0 531.0Q314 516 314 509Q314 503 302.0 498.0Q290 493 278 493ZM278 459Q267 459 256.5 462.5Q246 466 241 470L250 485Q262 479 278 479Q295 479 307 485L316 470Q311 466 300.5 462.5Q290 459 278 459ZM276 20Q291 20 297.0 29.0Q303 38 305.0 49.0Q307 60 306 67L283 414H270L247 67Q247 60 248.0 49.0Q249 38 255.5 29.0Q262 20 276 20Z" />
  </g>
</svg>