<svg xmlns="http://www.w3.org/2000/svg" viewBox="49 144 164 691">
  <g transform="translate(0, 979) scale(1, -1)">
    <path fill="black" d="M131 671Q97 671 73.0 695.0Q49 719 49 753Q49 787 73.0 811.0Q97 835 131 835Q165 835 189.0 811.0Q213 787 213 753Q213 719 189.0 695.0Q165 671 131 671ZM131 690Q157 690 175.0 708.5Q193 727 193 753Q193 779 175.0 797.0Q157 815 131 815Q105 815 86.5 797.0Q68 779 68 753Q68 727 86.5 708.5Q105 690 131 690ZM131 407Q97 407 73.0 431.0Q49 455 49 489Q49 524 73.0 547.5Q97 571 131 571Q165 571 189.0 547.5Q213 524 213 489Q213 455 189.0 431.0Q165 407 131 407ZM131 427Q157 427 175.0 445.0Q193 463 193 489Q193 515 175.0 533.5Q157 552 131 552Q105 552 86.5 533.5Q68 515 68 489Q68 463 86.5 445.0Q105 427 131 427ZM131 144Q97 144 73.0 168.0Q49 192 49 226Q49 260 73.0 284.0Q97 308 131 308Q165 308 189.0 284.0Q213 260 213 226Q213 192 189.0 168.0Q165 144 131 144ZM131 163Q157 163 175.0 181.0Q193 199 193 226Q193 252 175.0 270.0Q157 288 131 288Q105 288 86.5 270.0Q68 252 68 226Q68 199 86.5 181.0Q105 163 131 163Z" />
  </g>
</svg>