<svg xmlns="http://www.w3.org/2000/svg" viewBox="49 -1 290 415">
  <g transform="translate(0, 413) scale(1, -1)">
    <path fill="black" d="M229 -1Q225 19 220.5 36.5Q216 54 194 83Q176 109 165.0 126.5Q154 144 147.5 160.0Q141 176 136 195Q132 210 126.0 235.0Q120 260 113.5 287.0Q107 314 99 334Q89 363 76.0 382.0Q63 401 49 414H159Q168 407 182.0 388.5Q196 370 205 342Q215 315 224.0 275.5Q233 236 242 202Q250 172 262.5 149.0Q275 126 298 95Q318 69 328.0 42.0Q338 15 339 -1ZM247 19H313Q311 25 307.5 39.5Q304 54 282 83Q264 109 253.0 126.5Q242 144 235.5 160.0Q229 176 224 195Q220 210 214.0 235.0Q208 260 201.5 287.0Q195 314 187 334Q180 355 169.0 371.5Q158 388 150 395H91Q97 386 103.5 373.0Q110 360 117 342Q127 315 136.5 275.5Q146 236 154 202Q162 172 174.5 149.0Q187 126 210 95Q226 73 234.5 53.0Q243 33 247 19Z" />
  </g>
</svg>