<svg xmlns="http://www.w3.org/2000/svg" viewBox="49 202 718 301">
  <g transform="translate(0, 705) scale(1, -1)">
    <path fill="black" d="M179 202Q164 202 142.0 206.5Q120 211 99.0 226.0Q78 241 63.5 271.0Q49 301 49 353Q49 404 63.5 434.5Q78 465 99.0 479.5Q120 494 142.0 498.5Q164 503 179 503H637Q652 503 674.0 498.5Q696 494 717.0 479.5Q738 465 752.5 434.5Q767 404 767 353Q767 301 752.5 271.0Q738 241 717.0 226.0Q696 211 674.0 206.5Q652 202 637 202ZM179 222H637Q650 222 668.5 225.5Q687 229 705.0 242.0Q723 255 735.0 281.5Q747 308 747 353Q747 398 735.0 424.5Q723 451 705.0 463.5Q687 476 668.5 480.0Q650 484 637 484H179Q166 484 147.5 480.0Q129 476 111.0 463.5Q93 451 80.5 424.5Q68 398 68 353Q68 308 80.5 281.5Q93 255 111.0 242.0Q129 229 147.5 225.5Q166 222 179 222Z" />
  </g>
</svg>