<svg xmlns="http://www.w3.org/2000/svg" viewBox="49 122 435 435">
  <g transform="translate(0, 679) scale(1, -1)">
    <path fill="black" d="M266 122Q206 122 156.5 151.0Q107 180 78.0 229.5Q49 279 49 339Q49 399 78.0 448.5Q107 498 156.5 527.5Q206 557 266 557Q326 557 375.5 527.5Q425 498 454.5 448.5Q484 399 484 339Q484 279 454.5 229.5Q425 180 375.5 151.0Q326 122 266 122ZM266 142Q321 142 366.0 168.5Q411 195 437.5 239.5Q464 284 464 339Q464 394 437.5 439.0Q411 484 366.0 511.0Q321 538 266 538Q211 538 166.0 511.0Q121 484 94.5 439.0Q68 394 68 339Q68 284 94.5 239.5Q121 195 166.0 168.5Q211 142 266 142Z" />
  </g>
</svg>