<svg xmlns="http://www.w3.org/2000/svg" viewBox="49 98 341 429">
  <g transform="translate(0, 625) scale(1, -1)">
    <path fill="black" d="M348 98Q331 98 297.5 115.0Q264 132 223.0 162.5Q182 193 142 233Q112 263 93.5 299.0Q75 335 65.5 368.0Q56 401 52.5 425.0Q49 449 49 455Q49 471 49.0 488.0Q49 505 55 515Q59 521 67.0 524.0Q75 527 82 527Q90 527 97.0 525.0Q104 523 109 512Q114 502 117.5 487.0Q121 472 126 449Q138 401 159.5 352.5Q181 304 211 274Q240 246 271.0 223.5Q302 201 329 185Q355 170 372.5 158.0Q390 146 390 132Q390 116 378.5 107.0Q367 98 348 98ZM348 117Q370 117 370 128Q370 136 356.0 145.5Q342 155 319 168Q291 185 259.5 207.5Q228 230 197 261Q164 294 143.0 343.0Q122 392 110 435Q101 466 97.0 487.0Q93 508 82 508Q73 508 71.0 498.5Q69 489 69 470Q69 459 72.0 433.5Q75 408 84.0 375.5Q93 343 110.5 309.0Q128 275 156 247Q194 209 233.0 179.5Q272 150 303.5 133.5Q335 117 348 117Z" />
  </g>
</svg>