<svg xmlns="http://www.w3.org/2000/svg" viewBox="49 -83 578 578">
  <g transform="translate(0, 412) scale(1, -1)">
    <path fill="black" d="M338 -83Q278 -83 225.5 -60.5Q173 -38 133.5 1.5Q94 41 71.5 93.5Q49 146 49 206Q49 266 71.5 318.0Q94 370 133.5 410.0Q173 450 225.5 472.5Q278 495 338 495Q398 495 450.0 472.5Q502 450 542.0 410.0Q582 370 604.5 318.0Q627 266 627 206Q627 146 604.5 93.5Q582 41 542.0 1.5Q502 -38 450.0 -60.5Q398 -83 338 -83ZM143 391H533Q496 430 446.0 453.0Q396 476 338 476Q280 476 230.0 453.0Q180 430 143 391ZM77 274H598Q591 301 579.0 325.5Q567 350 550 372H125Q109 350 97.0 325.5Q85 301 77 274ZM73 158H603Q605 169 606.0 181.0Q607 193 607 206Q607 219 606.0 231.0Q605 243 603 255H73Q71 243 69.5 231.0Q68 219 68 206Q68 193 69.5 181.0Q71 169 73 158ZM125 41H550Q584 84 599 138H77Q84 111 96.5 86.5Q109 62 125 41ZM338 -63Q396 -63 446.5 -40.5Q497 -18 534 21H142Q179 -18 229.5 -40.5Q280 -63 338 -63Z" />
  </g>
</svg>