<svg xmlns="http://www.w3.org/2000/svg" viewBox="49 -89 864 623">
  <g transform="translate(0, 445) scale(1, -1)">
    <path fill="black" d="M418 -57Q395 -57 375.5 -46.5Q356 -36 341 -21Q312 8 312 51Q312 83 323.5 100.0Q335 117 346 125Q289 219 289 313Q289 354 301.0 391.5Q313 429 338 458Q336 459 325 459Q267 459 219.5 432.0Q172 405 138.0 360.5Q104 316 86.0 262.0Q68 208 68 154V114H49V163Q49 217 68.0 272.5Q87 328 123.5 375.0Q160 422 212.0 450.5Q264 479 329 479Q347 479 354 476Q385 505 425.5 519.5Q466 534 511 534Q561 534 613.0 517.5Q665 501 714 469Q722 480 738.5 491.0Q755 502 784 502Q807 502 827.0 492.0Q847 482 861 467Q875 453 883.0 434.0Q891 415 891 393Q891 363 879.5 346.0Q868 329 856 321Q913 225 913 132Q913 86 897.5 45.5Q882 5 851 -27Q820 -58 779.0 -73.5Q738 -89 691 -89Q589 -89 488 -23Q481 -34 464.5 -45.5Q448 -57 418 -57ZM837 -14Q866 15 880.0 52.5Q894 90 894 133Q894 198 863.0 267.0Q832 336 773 395Q715 454 645.5 484.5Q576 515 511 515Q468 515 431.0 501.5Q394 488 365 459Q337 431 323.0 393.0Q309 355 309 312Q309 248 339.5 178.5Q370 109 429 50Q488 -8 557.5 -39.0Q627 -70 691 -70Q734 -70 771.5 -56.0Q809 -42 837 -14ZM845 339Q852 343 862.0 354.5Q872 366 872 391Q872 408 865.5 425.0Q859 442 848 453Q835 467 819.5 474.5Q804 482 784 482Q758 482 746.5 472.5Q735 463 731 457Q746 446 760.5 434.5Q775 423 788 409Q805 393 818.5 375.0Q832 357 845 339ZM418 -37Q444 -37 455.5 -27.5Q467 -18 471 -11Q456 0 442.5 12.0Q429 24 415 37Q399 54 384.5 71.0Q370 88 357 106Q350 103 340.5 91.5Q331 80 331 54Q331 38 337.0 21.0Q343 4 354 -7Q368 -21 383.5 -29.0Q399 -37 418 -37Z" />
  </g>
</svg>