<svg xmlns="http://www.w3.org/2000/svg" viewBox="49 0 1055 419">
  <g transform="translate(0, 419) scale(1, -1)">
    <path fill="black" d="M205 0Q205 101 186.0 172.0Q167 243 139.5 289.5Q112 336 86.5 362.0Q61 388 49 398L57 419Q127 419 179.0 399.5Q231 380 266.5 349.5Q302 319 324.5 285.0Q347 251 358.5 221.5Q370 192 374 176H843Q914 176 964.0 156.0Q1014 136 1045.0 106.5Q1076 77 1090.0 48.0Q1104 19 1104 0ZM224 20H1081Q1075 37 1060.0 59.5Q1045 82 1017.0 104.5Q989 127 946.0 141.5Q903 156 843 156H358Q355 170 346.0 197.0Q337 224 318.5 256.5Q300 289 269.0 320.0Q238 351 191.0 372.5Q144 394 78 398Q96 382 120.5 353.0Q145 324 168.5 278.5Q192 233 208.0 169.5Q224 106 224 20Z" />
  </g>
</svg>