<svg xmlns="http://www.w3.org/2000/svg" viewBox="48.81818181818182 -1 1265.1818181818182 992">
  <g transform="translate(0, 990) scale(1, -1)">
    <path fill="black" d="M364 -1Q354 16 340.0 32.5Q326 49 318 49Q305 49 281.0 35.0Q257 21 239 7L49 14Q48 23 52.5 40.5Q57 58 69.0 76.5Q81 95 103.0 108.0Q125 121 161 121Q176 121 190.5 119.0Q205 117 215 114Q225 112 236.5 110.0Q248 108 270 108Q290 108 316.0 112.5Q342 117 376.5 132.5Q411 148 456.0 182.0Q501 216 559.5 275.0Q618 334 691 425Q761 512 809.0 575.0Q857 638 889.0 682.0Q921 726 943 757Q968 792 984.5 814.5Q1001 837 1019 855Q1063 899 1112.0 929.5Q1161 960 1203.0 975.5Q1245 991 1268 991Q1288 991 1297.5 968.5Q1307 946 1310.5 912.0Q1314 878 1314 843Q1314 788 1310.0 764.5Q1306 741 1301 729Q1294 714 1265.0 680.5Q1236 647 1192.0 601.5Q1148 556 1095.0 505.0Q1042 454 987.0 403.0Q932 352 881.0 307.5Q830 263 789.0 231.0Q748 199 725 186L702 265Q681 259 646.5 235.5Q612 212 572.0 179.0Q532 146 493.0 111.5Q454 77 424 50Q405 32 389.5 18.5Q374 5 364 -1ZM369 26 412 64Q443 92 484.5 129.0Q526 166 569.5 201.5Q613 237 652.0 261.5Q691 286 716 289L736 219Q751 227 786.5 255.5Q822 284 870.5 326.5Q919 369 973.5 419.0Q1028 469 1081.0 519.5Q1134 570 1178.0 614.5Q1222 659 1250.5 691.0Q1279 723 1283 735Q1287 747 1290.5 768.5Q1294 790 1294 843Q1294 874 1292.5 903.5Q1291 933 1285.5 952.5Q1280 972 1268 972Q1246 972 1206.5 957.0Q1167 942 1121.0 912.5Q1075 883 1033 841Q1016 824 997.5 799.5Q979 775 958 746Q926 700 864.0 615.0Q802 530 707 413Q618 305 551.5 240.0Q485 175 435.0 142.5Q385 110 345.5 99.0Q306 88 270 88Q248 88 234.5 90.5Q221 93 210 96Q201 98 189.0 100.0Q177 102 161 102Q128 102 108.5 88.5Q89 75 81.0 59.0Q73 43 72 34L234 28Q241 33 256.0 42.5Q271 52 288.0 60.5Q305 69 318 69Q328 69 343.5 54.5Q359 40 369 26Z" />
  </g>
</svg>