<svg xmlns="http://www.w3.org/2000/svg" viewBox="49 -10 1178 632">
  <g transform="translate(0, 612) scale(1, -1)">
    <path fill="black" d="M49 -10V264H614L712 439Q696 457 696 487Q696 520 710.5 548.5Q725 577 744 595Q774 622 807 622Q830 622 843.5 605.0Q857 588 857 560Q857 528 842.5 499.5Q828 471 809 452Q780 426 746 426Q736 426 728 429L636 264H1227V-10ZM750 445Q776 445 801 472Q815 488 826.0 511.0Q837 534 837 560Q837 579 828.5 590.5Q820 602 803 602Q777 602 752 575Q737 560 726.0 536.5Q715 513 715 487Q715 468 724.0 456.5Q733 445 750 445ZM69 10H1208V245H69Z" />
  </g>
</svg>