<svg xmlns="http://www.w3.org/2000/svg" viewBox="49 -213 1051 1214">
  <g transform="translate(0, 788) scale(1, -1)">
    <path fill="black" d="M342 -213V196H474L571 328V381H413L298 347H199L100 393L49 449L83 478L163 431Q174 424 198.5 419.0Q223 414 245 414Q267 414 284.0 416.5Q301 419 314 425L311 436Q305 435 292.0 434.0Q279 433 266.0 432.5Q253 432 247 432Q228 432 209.5 438.5Q191 445 175 458L194 496Q205 492 218.0 487.5Q231 483 242 483Q264 483 285.5 488.0Q307 493 321 495L404 459L571 484V1001H591V487L700 503H926L951 799H1076L1100 381H591V328L688 196H822V-213L582 -33ZM591 398H1080L1056 782H969L946 486H699L591 469ZM204 364H296L409 398H571V466L401 441L320 478Q307 476 284.5 471.0Q262 466 239 466Q231 466 221.0 469.0Q211 472 203 474L198 464Q216 449 248 449Q255 449 270.0 450.0Q285 451 300.0 452.0Q315 453 322 453Q325 446 328.0 436.0Q331 426 333 416Q317 406 291.0 401.0Q265 396 242 396Q218 396 193.5 402.0Q169 408 146 421L82 460L69 450L113 405ZM499 196H663L581 309ZM362 -174 582 -9 802 -174V177H362Z" />
  </g>
</svg>