<svg xmlns="http://www.w3.org/2000/svg" viewBox="49 74 1118 679">
  <g transform="translate(0, 827) scale(1, -1)">
    <path fill="black" d="M264 74 201 423H179Q164 423 142.0 426.5Q120 430 99.0 444.0Q78 458 63.5 487.5Q49 517 49 568Q49 623 64.5 653.0Q80 683 103.0 696.0Q126 709 148 712L141 750L160 753L167 714H379L387 753L406 750L399 714H816L810 750L829 753L836 714H1048L1056 753L1075 750L1068 712Q1090 709 1112.5 696.0Q1135 683 1151.0 653.0Q1167 623 1167 568Q1167 517 1152.5 487.5Q1138 458 1117.0 444.0Q1096 430 1074.0 426.5Q1052 423 1037 423H1015L952 74H933L870 423H346L283 74ZM217 442H330L376 695H171ZM350 442H866L820 695H396ZM886 442H999L1045 695H840ZM179 442H197L151 692Q133 689 114.0 678.0Q95 667 81.5 641.0Q68 615 68 568Q68 523 80.5 497.5Q93 472 111.0 460.0Q129 448 147.5 445.0Q166 442 179 442ZM1019 442H1037Q1050 442 1068.5 445.0Q1087 448 1105.0 460.0Q1123 472 1135.0 497.5Q1147 523 1147 568Q1147 615 1134.0 641.0Q1121 667 1102.0 678.0Q1083 689 1064 692ZM273 134 326 423H221ZM942 134 995 423H890Z" />
  </g>
</svg>