<svg xmlns="http://www.w3.org/2000/svg" viewBox="49 -194 342 1195">
  <g transform="translate(0, 807) scale(1, -1)">
    <path fill="black" d="M85 -194 127 -7Q94 29 94 79Q94 126 123 160Q94 192 71.5 244.0Q49 296 49 370Q49 392 59.5 441.5Q70 491 88.0 558.5Q106 626 128.0 702.5Q150 779 174.0 856.0Q198 933 220 1001Q242 933 266.0 856.0Q290 779 312.0 702.5Q334 626 352.0 558.5Q370 491 380.5 441.5Q391 392 391 370Q391 296 368.0 244.0Q345 192 316 160Q346 125 346 79Q346 22 306 -13L347 -194ZM137 173Q172 205 220 205Q243 205 265.0 196.5Q287 188 303 174Q330 203 350.5 252.0Q371 301 371 370Q371 387 361.5 430.0Q352 473 336.5 533.5Q321 594 301.5 663.5Q282 733 261.0 804.0Q240 875 220 938Q212 912 197.5 866.0Q183 820 165.5 762.5Q148 705 131.0 644.5Q114 584 99.5 528.5Q85 473 76.5 431.0Q68 389 68 370Q68 301 89.0 252.0Q110 203 137 173ZM220 -28Q264 -28 295.5 3.5Q327 35 327 79Q327 123 295.5 154.5Q264 186 220 186Q176 186 144.5 154.5Q113 123 113 79Q113 35 144.5 3.5Q176 -28 220 -28ZM109 -174H322L288 -27Q259 -47 220 -47Q177 -47 144 -22Z" />
  </g>
</svg>