<svg xmlns="http://www.w3.org/2000/svg" viewBox="49 -194 302 1195">
  <g transform="translate(0, 807) scale(1, -1)">
    <path fill="black" d="M209 -194Q135 -194 92.0 -151.0Q49 -108 49 -29Q49 31 61.5 100.0Q74 169 86.5 246.5Q99 324 99 406Q99 489 86.5 564.5Q74 640 61.5 708.5Q49 777 49 837Q49 916 92.0 958.5Q135 1001 209 1001Q259 1001 290.5 983.5Q322 966 336.5 940.0Q351 914 351 887Q351 847 328.0 816.0Q305 785 255 785Q239 785 218.5 787.5Q198 790 189 792Q200 752 211.0 701.0Q222 650 231.5 596.5Q241 543 247.0 493.5Q253 444 253 406Q253 368 247.0 318.0Q241 268 231.5 213.5Q222 159 211.0 107.5Q200 56 189 15Q198 18 218.5 20.0Q239 22 255 22Q305 22 328.0 -8.5Q351 -39 351 -80Q351 -106 336.5 -132.5Q322 -159 290.5 -176.5Q259 -194 209 -194ZM209 -174Q252 -174 279.0 -159.5Q306 -145 318.5 -123.5Q331 -102 331 -80Q331 -47 313.0 -22.0Q295 3 255 3Q232 3 206.0 -1.0Q180 -5 164 -10Q175 35 187.5 90.5Q200 146 210.5 204.5Q221 263 227.5 315.5Q234 368 234 406Q234 444 227.5 496.5Q221 549 210.5 606.5Q200 664 187.5 719.0Q175 774 164 818Q180 814 206.0 809.5Q232 805 255 805Q295 805 313.0 830.0Q331 855 331 887Q331 910 318.5 931.5Q306 953 279.0 967.0Q252 981 209 981Q144 981 106.0 944.5Q68 908 68 837Q68 784 80.5 713.5Q93 643 105.5 564.0Q118 485 118 406Q118 326 105.5 246.0Q93 166 80.5 95.0Q68 24 68 -29Q68 -100 106.0 -137.0Q144 -174 209 -174Z" />
  </g>
</svg>