<svg xmlns="http://www.w3.org/2000/svg" viewBox="49 -260 503 1227">
  <g transform="translate(0, 707) scale(1, -1)">
    <path fill="black" d="M119 434V273Q119 178 142.0 94.5Q165 11 206.0 -53.0Q247 -117 300.5 -153.5Q354 -190 414 -190H552V-260H414Q323 -260 246.0 -200.5Q169 -141 119 -42V-260H49V967H119V749Q169 848 246.0 907.5Q323 967 414 967H552V897H414Q354 897 300.5 860.5Q247 824 206.0 760.0Q165 696 142.0 612.5Q119 529 119 434ZM100 273V434Q100 533 124.5 620.5Q149 708 192.5 774.5Q236 841 293.0 878.5Q350 916 414 916H534V948H414Q353 948 297.0 918.0Q241 888 195.0 832.5Q149 777 118 702L100 657V948H68V-241H100V50L118 5Q149 -70 195.0 -125.0Q241 -180 297.0 -210.5Q353 -241 414 -241H534V-209H414Q350 -209 293.0 -171.5Q236 -134 192.5 -67.5Q149 -1 124.5 86.5Q100 174 100 273Z" />
  </g>
</svg>