<svg xmlns="http://www.w3.org/2000/svg" viewBox="49 -260 1291 1227">
  <g transform="translate(0, 707) scale(1, -1)">
    <path fill="black" d="M152 967H180L49 836V864ZM342 967H370L49 646V674ZM532 967H560L49 456V484ZM722 967H750L49 266V294ZM912 967H940L49 76V104ZM1102 967H1130L49 -114V-86ZM1292 967H1320L93 -260H65ZM1340 825V797L283 -260H255ZM1340 635V607L473 -260H445ZM1340 445V417L663 -260H635ZM1340 255V227L853 -260H825ZM1340 65V37L1043 -260H1015ZM1340 -125V-153L1233 -260H1205Z" />
  </g>
</svg>