<?xml version='1.0' encoding='utf-8'?>
<svg xmlns="http://www.w3.org/2000/svg" width="400" height="400" viewBox="0 0 400 400" version="1.1"><!--description: набор букв --><path fill="#3B88C3" d="M36 32c0 2.209-1.791 4-4 4H4c-2.209 0-4-1.791-4-4V4c0-2.209 1.791-4 4-4h28c2.209 0 4 1.791 4 4v28z" transform="translate(0, 0) scale(5, 8)" /><path d="M12.821 22.328c0 .703 0 1.785-1.311 1.785-.798 0-1.121-.436-1.311-1.158-.703.836-1.558 1.273-2.603 1.273-2.565 0-4.521-2.186-4.521-5.263 0-3.001 2.014-5.3 4.521-5.3 1.007 0 1.995.399 2.603 1.254.076-.665.646-1.14 1.311-1.14 1.311 0 1.311 1.083 1.311 1.786v6.763zm-4.844-.607c1.425 0 2.109-1.444 2.109-2.755s-.665-2.792-2.109-2.792c-1.501 0-2.166 1.482-2.166 2.792.001 1.31.684 2.755 2.166 2.755zm6.403-10.829c0-.912.57-1.52 1.368-1.52.798 0 1.368.608 1.368 1.52v3.723c.722-.627 1.652-.95 2.603-.95 2.944 0 4.407 2.754 4.407 5.415 0 2.584-1.747 5.148-4.503 5.148-.93 0-1.994-.418-2.507-1.254-.171.722-.608 1.139-1.368 1.139-.798 0-1.368-.607-1.368-1.52V10.892zm4.883 10.829c1.425 0 2.128-1.482 2.128-2.755 0-1.292-.703-2.792-2.128-2.792-1.463 0-2.146 1.368-2.146 2.697-.001 1.33.645 2.85 2.146 2.85zm12.824-5.016c-.684 0-1.292-.532-2.165-.532-1.559 0-2.299 1.387-2.299 2.792 0 1.349.817 2.755 2.299 2.755.684 0 1.709-.57 2.032-.57.647 0 1.178.551 1.178 1.197 0 1.405-2.355 1.881-3.344 1.881-2.944 0-4.901-2.413-4.901-5.263 0-2.773 2.015-5.3 4.901-5.3 1.083 0 3.344.399 3.344 1.729 0 .57-.399 1.311-1.045 1.311z" fill="#FFF" transform="translate(0, 0) scale(5, 8)" /><path fill="#553788" d="M15 31c0 2.209-.791 4-3 4H5c-4 0-4-14 0-14h7c2.209 0 3 1.791 3 4v6z" transform="translate(200, 0) scale(5, 8)" /><path fill="#9266CC" d="M34 33h-1V23h1c.553 0 1-.447 1-1s-.447-1-1-1H10c-4 0-4 14 0 14h24c.553 0 1-.447 1-1s-.447-1-1-1z" transform="translate(200, 0) scale(5, 8)" /><path fill="#CCD6DD" d="M34.172 33H11c-2 0-2-10 0-10h23.172c1.104 0 1.104 10 0 10z" transform="translate(200, 0) scale(5, 8)" /><path fill="#99AAB5" d="M11.5 25h23.35c-.135-1.175-.36-2-.678-2H11c-1.651 0-1.938 6.808-.863 9.188C9.745 29.229 10.199 25 11.5 25z" transform="translate(200, 0) scale(5, 8)" /><path fill="#269" d="M12 8c0 2.209-1.791 4-4 4H4C0 12 0 1 4 1h4c2.209 0 4 1.791 4 4v3z" transform="translate(200, 0) scale(5, 8)" /><path fill="#55ACEE" d="M31 10h-1V3h1c.553 0 1-.447 1-1s-.447-1-1-1H7C3 1 3 12 7 12h24c.553 0 1-.447 1-1s-.447-1-1-1z" transform="translate(200, 0) scale(5, 8)" /><path fill="#CCD6DD" d="M31.172 10H8c-2 0-2-7 0-7h23.172c1.104 0 1.104 7 0 7z" transform="translate(200, 0) scale(5, 8)" /><path fill="#99AAB5" d="M8 5h23.925c-.114-1.125-.364-2-.753-2H8C6.807 3 6.331 5.489 6.562 7.5 6.718 6.142 7.193 5 8 5z" transform="translate(200, 0) scale(5, 8)" /><path fill="#F4900C" d="M20 17c0 2.209-1.791 4-4 4H6c-4 0-4-9 0-9h10c2.209 0 4 1.791 4 4v1z" transform="translate(200, 0) scale(5, 8)" /><path fill="#FFAC33" d="M35 19h-1v-5h1c.553 0 1-.447 1-1s-.447-1-1-1H15c-4 0-4 9 0 9h20c.553 0 1-.447 1-1s-.447-1-1-1z" transform="translate(200, 0) scale(5, 8)" /><path fill="#CCD6DD" d="M35.172 19H16c-2 0-2-5 0-5h19.172c1.104 0 1.104 5 0 5z" transform="translate(200, 0) scale(5, 8)" /><path fill="#99AAB5" d="M16 16h19.984c-.065-1.062-.334-2-.812-2H16c-1.274 0-1.733 2.027-1.383 3.5.198-.839.657-1.5 1.383-1.5z" transform="translate(200, 0) scale(5, 8)" /><defs transform="translate(75, 275)" /><g fill="#000000" transform="translate(75, 275)"><g transform="translate(0, 0)"><path d="M0 34.52L0 30.10L13.50 30.10L13.50 34.52L0 34.52Z" /></g></g><defs transform="translate(275, 275)" /><g fill="#000000" transform="translate(275, 275)"><g transform="translate(0, 0)"><path d="M0 34.52L0 30.10L13.50 30.10L13.50 34.52L0 34.52Z" /></g></g></svg>