<?xml version='1.0' encoding='utf-8'?>
<svg xmlns="http://www.w3.org/2000/svg" width="400" height="400" viewBox="0 0 400 400" version="1.1"><!--description: высокое здание --><path fill="#DAC8B1" d="M34 13c0 1.104-.896 2-2 2h-6c-1.104 0-2-.896-2-2v-2c0-1.104.896-2 2-2h6c1.104 0 2 .896 2 2v2zm-22 0c0 1.104-.896 2-2 2H4c-1.104 0-2-.896-2-2v-2c0-1.104.896-2 2-2h6c1.104 0 2 .896 2 2v2z" transform="translate(0, 0) scale(5, 8)" /><path fill="#F1DCC1" d="M36 34c0 1.104-.896 2-2 2H2c-1.104 0-2-.896-2-2V13c0-1.104.896-2 2-2h32c1.104 0 2 .896 2 2v21z" transform="translate(0, 0) scale(5, 8)" /><path fill="#DAC8B1" d="M22 9V7c0-.738-.404-1.376-1-1.723V5c0-1.104-.896-2-2-2h-2c-1.104 0-2 .896-2 2v.277c-.595.347-1 .985-1 1.723v2h-1v27h10V9h-1z" transform="translate(0, 0) scale(5, 8)" /><path fill="#55ACEE" d="M14 7h2v2h-2zm6 0h2v2h-2zm-3 0h2v2h-2z" transform="translate(0, 0) scale(5, 8)" /><path fill="#3B88C3" d="M15 15h2v14h-2zm4 0h2v14h-2z" transform="translate(0, 0) scale(5, 8)" /><path fill="#55ACEE" d="M24 17h2v12h-2zm4 0h2v12h-2zm4 0h2v12h-2zM2 17h2v12H2zm4 0h2v12H6zm4 0h2v12h-2zM2 30h2v2H2zm4 0h2v2H6zm4 0h2v2h-2z" transform="translate(0, 0) scale(5, 8)" /><path fill="#3B88C3" d="M15 30h2v2h-2zm4 0h2v2h-2z" transform="translate(0, 0) scale(5, 8)" /><path fill="#55ACEE" d="M24 30h2v2h-2zm4 0h2v2h-2zm4 0h2v2h-2z" transform="translate(0, 0) scale(5, 8)" /><path fill="#66757F" d="M2 33h2v3H2zm4 0h2v3H6zm4 0h2v3h-2zm5 0h2v3h-2zm4 0h2v3h-2zm5 0h2v3h-2zm4 0h2v3h-2zm4 0h2v3h-2z" transform="translate(0, 0) scale(5, 8)" /><path fill="#CCD6DD" d="M31 2H5C3.343 2 2 3.343 2 5v26c0 1.657 1.343 3 3 3h26c1.657 0 3-1.343 3-3V5c0-1.657-1.343-3-3-3z" transform="translate(200, 0) scale(5, 8)" /><path fill="#E1E8ED" d="M31 1H5C2.791 1 1 2.791 1 5v26c0 2.209 1.791 4 4 4h26c2.209 0 4-1.791 4-4V5c0-2.209-1.791-4-4-4zm0 2c1.103 0 2 .897 2 2v4h-6V3h4zm-4 16h6v6h-6v-6zm0-2v-6h6v6h-6zM25 3v6h-6V3h6zm-6 8h6v6h-6v-6zm0 8h6v6h-6v-6zM17 3v6h-6V3h6zm-6 8h6v6h-6v-6zm0 8h6v6h-6v-6zM3 5c0-1.103.897-2 2-2h4v6H3V5zm0 6h6v6H3v-6zm0 8h6v6H3v-6zm2 14c-1.103 0-2-.897-2-2v-4h6v6H5zm6 0v-6h6v6h-6zm8 0v-6h6v6h-6zm12 0h-4v-6h6v4c0 1.103-.897 2-2 2z" transform="translate(200, 0) scale(5, 8)" /><path fill="#DD2E44" d="M4.998 33c-.32 0-.645-.076-.946-.239-.973-.523-1.336-1.736-.813-2.709l7-13c.299-.557.845-.939 1.47-1.031.626-.092 1.258.118 1.705.565l6.076 6.076 9.738-18.59c.512-.978 1.721-1.357 2.699-.843.979.512 1.356 1.721.844 2.7l-11 21c-.295.564-.841.953-1.47 1.05-.627.091-1.266-.113-1.716-.563l-6.1-6.099-5.724 10.631C6.4 32.619 5.71 33 4.998 33z" transform="translate(200, 0) scale(5, 8)" /><defs transform="translate(75, 275)" /><g fill="#000000" transform="translate(75, 275)"><g transform="translate(0, 0)"><path d="M0 34.52L0 30.10L13.50 30.10L13.50 34.52L0 34.52Z" /></g></g><defs transform="translate(275, 275)" /><g fill="#000000" transform="translate(275, 275)"><g transform="translate(0, 0)"><path d="M0 34.52L0 30.10L13.50 30.10L13.50 34.52L0 34.52Z" /></g></g></svg>