<?xml version='1.0' encoding='utf-8'?>
<svg xmlns="http://www.w3.org/2000/svg" width="400" height="400" viewBox="0 0 400 400" version="1.1"><!--description: место денег --><path fill="#FDD888" d="M31.898 23.938C31.3 17.32 28 14 28 14l-6-8h-8l-6 8s-1.419 1.433-2.567 4.275C3.444 18.935 2 20.789 2 23c0 1.448.625 2.742 1.609 3.655C3.233 27.357 3 28.147 3 29c0 1.958 1.136 3.636 2.775 4.456C7.058 35.378 8.772 36 10 36h16c1.379 0 3.373-.779 4.678-3.31C32.609 31.999 34 30.17 34 28c0-1.678-.834-3.154-2.102-4.062zM18 6c.55 0 1.058-.158 1.5-.416.443.258.951.416 1.5.416 1.657 0 4-2.344 4-4 0 0 0-2-2-2-.788 0-1 1-2 1s-1-1-3-1-2 1-3 1-1.211-1-2-1c-2 0-2 2-2 2 0 1.656 2.344 4 4 4 .549 0 1.057-.158 1.5-.416.443.258.951.416 1.5.416z" transform="translate(0, 0) scale(5, 10)" /><path fill="#BF6952" d="M24 6c0 .552-.447 1-1 1H13c-.552 0-1-.448-1-1s.448-1 1-1h10c.553 0 1 .448 1 1z" transform="translate(0, 0) scale(5, 10)" /><path fill="#67757F" d="M23.901 24.542c0-4.477-8.581-4.185-8.581-6.886 0-1.308 1.301-1.947 2.811-1.947 2.538 0 2.99 1.569 4.139 1.569.813 0 1.205-.493 1.205-1.046 0-1.284-2.024-2.256-3.965-2.592V12.4c0-.773-.65-1.4-1.454-1.4-.805 0-1.456.627-1.456 1.4v1.283c-2.116.463-3.937 1.875-3.937 4.176 0 4.299 8.579 4.125 8.579 7.145 0 1.047-1.178 2.093-3.111 2.093-2.901 0-3.867-1.889-5.045-1.889-.574 0-1.087.464-1.087 1.164 0 1.113 1.938 2.451 4.603 2.824l-.001.01v1.398c0 .772.652 1.4 1.456 1.4.804 0 1.455-.628 1.455-1.4v-1.398c0-.017-.008-.03-.009-.045 2.398-.43 4.398-1.932 4.398-4.619z" transform="translate(0, 0) scale(5, 10)" /><path fill="#66757F" d="M3 16h30v18H3z" transform="translate(200, 0) scale(5, 10)" /><path fill="#CCD6DD" d="M2 34h32c1.104 0 2 .896 2 2H0c0-1.104.896-2 2-2z" transform="translate(200, 0) scale(5, 10)" /><path fill="#292F33" d="M18 23c-1.657 0-3 1.343-3 3v6h6v-6c0-1.657-1.343-3-3-3z" transform="translate(200, 0) scale(5, 10)" /><path fill="#CCD6DD" d="M3 21h4v11H3zm6 0h4v11H9zm20 0h4v11h-4zm-6 0h4v11h-4z" transform="translate(200, 0) scale(5, 10)" /><path fill="#AAB8C2" d="M2 32h32v2H2z" transform="translate(200, 0) scale(5, 10)" /><path fill="#66757F" d="M36 11L18 0 0 11z" transform="translate(200, 0) scale(5, 10)" /><path fill="#CCD6DD" d="M18 2.4L2 12v4h32v-4z" transform="translate(200, 0) scale(5, 10)" /><path fill="#8899A6" d="M3 19h4v2H3zm6 0h4v2H9zm14 0h4v2h-4zm6 0h4v2h-4z" transform="translate(200, 0) scale(5, 10)" /><path fill="#CCD6DD" d="M1 12h34v5H1z" transform="translate(200, 0) scale(5, 10)" /><path fill="#AAB8C2" d="M36 12c0 .552-.447 1-1 1H1c-.552 0-1-.448-1-1v-1c0-.552.448-1 1-1h34c.553 0 1 .448 1 1v1zm0 6c0 .552-.447 1-1 1H1c-.552 0-1-.448-1-1v-1c0-.552.448-1 1-1h34c.553 0 1 .448 1 1v1z" transform="translate(200, 0) scale(5, 10)" /><path fill="#E1E8ED" d="M13 32h10v2H13z" transform="translate(200, 0) scale(5, 10)" /><path fill="#F5F8FA" d="M11 34h14v2H11z" transform="translate(200, 0) scale(5, 10)" /></svg>