<?xml version='1.0' encoding='utf-8'?>
<svg xmlns="http://www.w3.org/2000/svg" width="400" height="400" viewBox="0 0 400 400" version="1.1"><!--description: музыка ударами --><path fill="#F18F26" d="M0 18h36v9H0z" transform="translate(0, 0) scale(5, 8)" /><ellipse fill="#F18F26" cx="18" cy="26" rx="18" ry="9" transform="translate(0, 0) scale(5, 8)" /><ellipse fill="#F18F26" cx="18" cy="27" rx="18" ry="9" transform="translate(0, 0) scale(5, 8)" /><path fill="#9D0522" d="M0 10v16h.117c.996 4.499 8.619 8 17.883 8s16.887-3.501 17.883-8H36V10H0z" transform="translate(0, 0) scale(5, 8)" /><ellipse fill="#F18F26" cx="18" cy="11" rx="18" ry="9" transform="translate(0, 0) scale(5, 8)" /><ellipse fill="#F18F26" cx="18" cy="12" rx="18" ry="9" transform="translate(0, 0) scale(5, 8)" /><path fill="#F18F26" d="M0 10h1v2H0zm35 0h1v2h-1z" transform="translate(0, 0) scale(5, 8)" /><ellipse fill="#FCAB40" cx="18" cy="10" rx="18" ry="9" transform="translate(0, 0) scale(5, 8)" /><ellipse fill="#F5F8FA" cx="18" cy="10" rx="17" ry="8" transform="translate(0, 0) scale(5, 8)" /><path fill="#FDD888" d="M18 3c9.03 0 16.395 3.316 16.946 7.5.022-.166.054-.331.054-.5 0-4.418-7.611-8-17-8S1 5.582 1 10c0 .169.032.334.054.5C1.605 6.316 8.97 3 18 3z" transform="translate(0, 0) scale(5, 8)" /><path d="M28.601 2.599c.44-.33.53-.96.2-1.4l-.6-.8c-.33-.44-.96-.53-1.4-.2L14.157 10.243c-.774-.167-1.785.083-2.673.749-1.326.994-1.863 2.516-1.2 3.4s2.275.794 3.6-.2c.835-.626 1.355-1.461 1.462-2.215l13.255-9.378zm5.868 2.919l-.509-.861c-.28-.474-.896-.632-1.37-.352l-13.913 8.751c-.719-.141-1.626.023-2.472.524-1.426.843-2.127 2.297-1.565 3.248.562.951 2.174 1.039 3.6.196 1.005-.594 1.638-1.49 1.735-2.301l14.142-7.835c.474-.281.632-.897.352-1.37z" fill="#AA695B" transform="translate(0, 0) scale(5, 8)" /><path fill="#DA2F47" d="M2 28c-.55 0-1-.45-1-1v-9c0-.55.45-1 1-1s1 .45 1 1v9c0 .55-.45 1-1 1zm9 4c-.55 0-1-.45-1-1v-9c0-.55.45-1 1-1s1 .45 1 1v9c0 .55-.45 1-1 1zm12 0c-.55 0-1-.45-1-1v-9c0-.55.45-1 1-1s1 .45 1 1v9c0 .55-.45 1-1 1zm11-4c-.55 0-1-.45-1-1v-9c0-.55.45-1 1-1s1 .45 1 1v9c0 .55-.45 1-1 1z" transform="translate(0, 0) scale(5, 8)" /><path fill="#FFDC5D" d="M32.942 11.244c-.041-.609-.284-1.18-.674-1.644l-.357-2.057c-.376-2.006-2.232-3.386-4.262-3.169L4.259 8.11C2.377 8.312.909 9.833.774 11.721l1.761 11.147c.305 2.169 2.151 3.788 4.341 3.813.677.008 1.238.017 1.463.027l9.483.463c-.363.483-.822 1.08-.822 1.718v.052c0 1.581 1.771 3.06 3.353 3.06h7.282c.76 0 1.488-.4 2.025-.938l4.424-4.472c.583-.584.887-1.416.832-2.24l-1.974-13.107z" transform="translate(200, 0) scale(5, 8)" /><path fill="#EF9645" d="M8.217 26.623c-.474 0-.895-.338-.983-.821L5.174 14.47c-.099-.543.262-1.064.805-1.163.546-.097 1.064.262 1.163.805l2.06 11.332c.099.543-.262 1.063-.805 1.162-.061.012-.121.017-.18.017zm6.181 0c-.517 0-.955-.398-.996-.923l-1.03-13.393c-.043-.551.37-1.031.92-1.074.549-.044 1.031.371 1.074.92l1.03 13.392c.043.551-.37 1.032-.92 1.074-.026.003-.053.004-.078.004zm7.207 1.106c-.508 0-.757-.001-.951-1.062l-.044-.003c.001-.055.007-.108.017-.161-.174-1.068-.309-3.069-.561-6.817-.235-3.49-.486-7.552-.486-8.485 0-.552.447-1 1-1 .553 0 1 .448 1 1 0 1.533.795 13.324.981 15.145.032.097.049.2.049.308 0 .266-.108.557-.295.744s-.444.331-.71.331z" transform="translate(200, 0) scale(5, 8)" /><path fill="#EF9645" d="M25.178 28.684H18.52c-.552 0-1-.447-1-1s.448-1 1-1h6.658c1.458 0 2.644-1.186 2.644-2.644V11.201c0-.552.447-1 1-1s1 .448 1 1V24.04c-.001 2.561-2.084 4.644-4.644 4.644z" transform="translate(200, 0) scale(5, 8)" /><defs transform="translate(75, 275)" /><g fill="#000000" transform="translate(75, 275)"><g transform="translate(0, 0)"><path d="M0 55.79L0 8.86L3.83 8.86L3.83 55.79L0 55.79ZM12.99 55.79L12.99 8.86L16.82 8.86L16.82 55.79L12.99 55.79Z" /></g></g><defs transform="translate(275, 275)" /><g fill="#000000" transform="translate(275, 275)"><g transform="translate(0, 0)"><path d="M0 34.52L0 30.10L13.50 30.10L13.50 34.52L0 34.52Z" /></g></g></svg>