<?xml version='1.0' encoding='utf-8'?>
<svg xmlns="http://www.w3.org/2000/svg" width="400" height="400" viewBox="0 0 400 400" version="1.1"><!--description: давать благословение --><path fill="#50A5E6" d="M30 22c-3 0-6.688 7.094-7 10-.421 3.915 2 4 2 4h11V26s-3.438-4-6-4z" transform="translate(0, 0) scale(5, 8)" /><ellipse transform="translate(0, 0) scale(5, 8)" fill="#1C6399" cx="27.574" cy="28.489" rx="5.848" ry="1.638" /><path fill="#F9CA55" d="M20.086 0c1.181 0 2.138.957 2.138 2.138 0 .789.668 10.824.668 10.824L17.948 18V2.138C17.948.957 18.905 0 20.086 0z" transform="translate(0, 0) scale(5, 8)" /><path fill="#FFDC5D" d="M18.875 4.323c0-1.099.852-1.989 1.903-1.989 1.051 0 1.903.891 1.903 1.989 0 0 .535 5.942 1.192 9.37.878 1.866 1.369 4.682 1.261 6.248.054.398 5.625 5.006 5.625 5.006-.281 1.813-2.259 6.155-4.759 8.159l-3.521-2.924c-2.885-.404-4.458-3.331-4.458-4.264 0-2.984.854-21.595.854-21.595z" transform="translate(0, 0) scale(5, 8)" /><path fill="#50A5E6" d="M6 22c3 0 6.688 7.094 7 10 .421 3.915-2 4-2 4H0V26s3.438-4 6-4z" transform="translate(0, 0) scale(5, 8)" /><ellipse transform="translate(0, 0) scale(5, 8)" fill="#1C6399" cx="8.426" cy="28.489" rx="1.638" ry="5.848" /><path fill="#F9CA55" d="M16.061.011c-1.266-.127-2.333.864-2.333 2.103 0 .78-.184 10.319-.184 10.319L17.895 18l.062-15.765c0-1.106-.795-2.114-1.896-2.224z" transform="translate(0, 0) scale(5, 8)" /><path fill="#FFDC5D" d="M17.125 4.323c0-1.099-.852-1.989-1.903-1.989-1.051 0-1.903.891-1.903 1.989 0 0-.535 5.942-1.192 9.37-.878 1.866-1.369 4.682-1.261 6.248-.054.398-5.625 5.006-5.625 5.006C5.522 26.76 7.5 31.102 10 33.106l3.521-2.924c2.885-.404 4.458-3.331 4.458-4.264 0-2.984-.854-21.595-.854-21.595z" transform="translate(0, 0) scale(5, 8)" /><path fill="#F9CA55" d="M17.958 25.823c-.414 0-.75-.336-.75-.75V2.792c0-.414.336-.75.75-.75s.75.336.75.75v22.282c.001.413-.335.749-.75.749z" transform="translate(0, 0) scale(5, 8)" /><path fill="#FDD888" d="M33 31c0 2.2-1.8 4-4 4H7c-2.2 0-4-1.8-4-4V14c0-2.2 1.8-4 4-4h22c2.2 0 4 1.8 4 4v17z" transform="translate(200, 0) scale(5, 8)" /><path fill="#FDD888" d="M36 11c0 2.2-1.8 4-4 4H4c-2.2 0-4-1.8-4-4s1.8-4 4-4h28c2.2 0 4 1.8 4 4z" transform="translate(200, 0) scale(5, 8)" /><path fill="#FCAB40" d="M3 15h30v2H3z" transform="translate(200, 0) scale(5, 8)" /><path fill="#DA2F47" d="M19 3h-2c-1.657 0-3 1.343-3 3v29h8V6c0-1.656-1.343-3-3-3z" transform="translate(200, 0) scale(5, 8)" /><path fill="#DA2F47" d="M16 7c1.1 0 1.263-.516.361-1.147L9.639 1.147c-.902-.631-2.085-.366-2.631.589L4.992 5.264C4.446 6.219 4.9 7 6 7h10zm4 0c-1.1 0-1.263-.516-.361-1.147l6.723-4.706c.901-.631 2.085-.366 2.631.589l2.016 3.527C31.554 6.219 31.1 7 30 7H20z" transform="translate(200, 0) scale(5, 8)" /><defs transform="translate(200, 275)" /><g fill="#000000" transform="translate(200, 275)"><g transform="translate(0, 0)"><path d="M23.71 29.61L0 39.75L0 35.38L18.77 27.59L0 19.87L0 15.50L23.71 25.51L23.71 29.61Z" /></g></g></svg>