<?xml version='1.0' encoding='utf-8'?>
<svg xmlns="http://www.w3.org/2000/svg" width="400" height="400" viewBox="0 0 400 400" version="1.1"><!--description: принимать душой --><path fill="#BDDDF4" d="M35 12c0-3.866-3.134-7-7-7-1.167 0-2.265.29-3.232.794-2.082-2.827-5.425-4.669-9.205-4.669-5.132 0-9.475 3.38-10.923 8.036C1.982 9.778 0 12.155 0 15c0 2.979 2.174 5.445 5.021 5.913C5.237 24.862 8.498 28 12.5 28c2.176 0 4.13-.933 5.5-2.413C19.37 27.067 21.323 28 23.5 28c4.143 0 7.5-3.357 7.5-7.5 0-.71-.105-1.394-.289-2.045C33.23 17.396 35 14.905 35 12z" transform="translate(0, 0) scale(5, 8)" /><circle fill="#BDDDF4" cx="4" cy="31" r="3" transform="translate(0, 0) scale(5, 8)" /><path fill="#77B255" d="M36 32c0 2.209-1.791 4-4 4H4c-2.209 0-4-1.791-4-4V4c0-2.209 1.791-4 4-4h28c2.209 0 4 1.791 4 4v28z" transform="translate(200, 0) scale(5, 8)" /><path fill="#FFF" d="M29.28 6.362c-1.156-.751-2.704-.422-3.458.736L14.936 23.877l-5.029-4.65c-1.014-.938-2.596-.875-3.533.138-.937 1.014-.875 2.596.139 3.533l7.209 6.666c.48.445 1.09.665 1.696.665.673 0 1.534-.282 2.099-1.139.332-.506 12.5-19.27 12.5-19.27.751-1.159.421-2.707-.737-3.458z" transform="translate(200, 0) scale(5, 8)" /><defs transform="translate(200, 275)" /><g fill="#000000" transform="translate(200, 275)"><g transform="translate(0, 0)"><path d="M23.71 29.61L0 39.75L0 35.38L18.77 27.59L0 19.87L0 15.50L23.71 25.51L23.71 29.61Z" /></g></g></svg>