<?xml version='1.0' encoding='utf-8'?>
<svg xmlns="http://www.w3.org/2000/svg" width="400" height="400" viewBox="0 0 400 400" version="1.1"><!--description: человек с верой --><path fill="#50A5E6" d="M30 22c-3 0-6.688 7.094-7 10-.421 3.915 2 4 2 4h11V26s-3.438-4-6-4z" transform="translate(0, 0) scale(5, 8)" /><ellipse transform="translate(0, 0) scale(5, 8)" fill="#1C6399" cx="27.574" cy="28.489" rx="5.848" ry="1.638" /><path fill="#F9CA55" d="M20.086 0c1.181 0 2.138.957 2.138 2.138 0 .789.668 10.824.668 10.824L17.948 18V2.138C17.948.957 18.905 0 20.086 0z" transform="translate(0, 0) scale(5, 8)" /><path fill="#FFDC5D" d="M18.875 4.323c0-1.099.852-1.989 1.903-1.989 1.051 0 1.903.891 1.903 1.989 0 0 .535 5.942 1.192 9.37.878 1.866 1.369 4.682 1.261 6.248.054.398 5.625 5.006 5.625 5.006-.281 1.813-2.259 6.155-4.759 8.159l-3.521-2.924c-2.885-.404-4.458-3.331-4.458-4.264 0-2.984.854-21.595.854-21.595z" transform="translate(0, 0) scale(5, 8)" /><path fill="#50A5E6" d="M6 22c3 0 6.688 7.094 7 10 .421 3.915-2 4-2 4H0V26s3.438-4 6-4z" transform="translate(0, 0) scale(5, 8)" /><ellipse transform="translate(0, 0) scale(5, 8)" fill="#1C6399" cx="8.426" cy="28.489" rx="1.638" ry="5.848" /><path fill="#F9CA55" d="M16.061.011c-1.266-.127-2.333.864-2.333 2.103 0 .78-.184 10.319-.184 10.319L17.895 18l.062-15.765c0-1.106-.795-2.114-1.896-2.224z" transform="translate(0, 0) scale(5, 8)" /><path fill="#FFDC5D" d="M17.125 4.323c0-1.099-.852-1.989-1.903-1.989-1.051 0-1.903.891-1.903 1.989 0 0-.535 5.942-1.192 9.37-.878 1.866-1.369 4.682-1.261 6.248-.054.398-5.625 5.006-5.625 5.006C5.522 26.76 7.5 31.102 10 33.106l3.521-2.924c2.885-.404 4.458-3.331 4.458-4.264 0-2.984-.854-21.595-.854-21.595z" transform="translate(0, 0) scale(5, 8)" /><path fill="#F9CA55" d="M17.958 25.823c-.414 0-.75-.336-.75-.75V2.792c0-.414.336-.75.75-.75s.75.336.75.75v22.282c.001.413-.335.749-.75.749z" transform="translate(0, 0) scale(5, 8)" /><path fill="#269" d="M24 26.799v-2.566c2-1.348 4.08-3.779 4.703-6.896.186.103.206.17.413.17.991 0 1.709-1.287 1.709-2.873 0-1.562-.823-2.827-1.794-2.865.187-.674.293-1.577.293-2.735C29.324 5.168 26 .527 18.541.527c-6.629 0-10.777 4.641-10.777 8.507 0 1.123.069 2.043.188 2.755-.911.137-1.629 1.352-1.629 2.845 0 1.587.804 2.873 1.796 2.873.206 0 .025-.067.209-.17C8.952 20.453 11 22.885 13 24.232v2.414c-5 .645-12 3.437-12 6.23v1.061C1 35 2.076 35 3.137 35h29.725C33.924 35 35 35 35 33.938v-1.061c0-2.615-6-5.225-11-6.078z" transform="translate(200, 0) scale(5, 8)" /><defs transform="translate(75, 275)" /><g fill="#000000" transform="translate(75, 275)"><g transform="translate(0, 0)"><path d="M0 55.79L0 8.86L3.83 8.86L3.83 55.79L0 55.79ZM12.99 55.79L12.99 8.86L16.82 8.86L16.82 55.79L12.99 55.79Z" /></g></g><defs transform="translate(275, 275)" /><g fill="#000000" transform="translate(275, 275)"><g transform="translate(0, 0)"><path d="M0 34.52L0 30.10L13.50 30.10L13.50 34.52L0 34.52Z" /></g></g></svg>