<?xml version='1.0' encoding='utf-8'?>
<svg xmlns="http://www.w3.org/2000/svg" width="400" height="400" viewBox="0 0 400 400" version="1.1"><!--description: нечестные деньги --><path fill="#FDD888" d="M31.898 23.938C31.3 17.32 28 14 28 14l-6-8h-8l-6 8s-1.419 1.433-2.567 4.275C3.444 18.935 2 20.789 2 23c0 1.448.625 2.742 1.609 3.655C3.233 27.357 3 28.147 3 29c0 1.958 1.136 3.636 2.775 4.456C7.058 35.378 8.772 36 10 36h16c1.379 0 3.373-.779 4.678-3.31C32.609 31.999 34 30.17 34 28c0-1.678-.834-3.154-2.102-4.062zM18 6c.55 0 1.058-.158 1.5-.416.443.258.951.416 1.5.416 1.657 0 4-2.344 4-4 0 0 0-2-2-2-.788 0-1 1-2 1s-1-1-3-1-2 1-3 1-1.211-1-2-1c-2 0-2 2-2 2 0 1.656 2.344 4 4 4 .549 0 1.057-.158 1.5-.416.443.258.951.416 1.5.416z" transform="translate(0, 0) scale(5, 8)" /><path fill="#BF6952" d="M24 6c0 .552-.447 1-1 1H13c-.552 0-1-.448-1-1s.448-1 1-1h10c.553 0 1 .448 1 1z" transform="translate(0, 0) scale(5, 8)" /><path fill="#67757F" d="M23.901 24.542c0-4.477-8.581-4.185-8.581-6.886 0-1.308 1.301-1.947 2.811-1.947 2.538 0 2.99 1.569 4.139 1.569.813 0 1.205-.493 1.205-1.046 0-1.284-2.024-2.256-3.965-2.592V12.4c0-.773-.65-1.4-1.454-1.4-.805 0-1.456.627-1.456 1.4v1.283c-2.116.463-3.937 1.875-3.937 4.176 0 4.299 8.579 4.125 8.579 7.145 0 1.047-1.178 2.093-3.111 2.093-2.901 0-3.867-1.889-5.045-1.889-.574 0-1.087.464-1.087 1.164 0 1.113 1.938 2.451 4.603 2.824l-.001.01v1.398c0 .772.652 1.4 1.456 1.4.804 0 1.455-.628 1.455-1.4v-1.398c0-.017-.008-.03-.009-.045 2.398-.43 4.398-1.932 4.398-4.619z" transform="translate(0, 0) scale(5, 8)" /><path fill="#FFDB5E" d="M34.956 18.084c0 .503-.12.975-.321 1.404-1.341 4.326-7.619 4.01-16.549 4.221-1.493.035-.639 1.798-.115 5.668.341 2.517-1.282 6.382-4.01 6.382-4.498 0-.171-3.548-4.148-12.322-2.125-4.688-6.875-2.062-6.875-6.771V5.948c0-1.833.18-3.595 2.758-3.885C8.195 1.781 7.633 0 11.238 0h18.044c1.838 0 3.333 1.496 3.333 3.334 0 .762-.267 1.456-.698 2.018 1.02.571 1.72 1.649 1.72 2.899 0 .76-.266 1.454-.696 2.015 1.023.57 1.725 1.649 1.725 2.901 0 .909-.368 1.733-.961 2.336.757.611 1.251 1.535 1.251 2.581z" transform="translate(200, 0) scale(5, 8)" /><path fill="#EE9547" d="M23.02 14.751h8.604c1.17 0 2.268.626 2.866 1.633.246.415.109.952-.307 1.199-.415.247-.952.108-1.199-.307-.283-.479-.806-.775-1.361-.775h-8.81c-.873 0-1.583.71-1.583 1.583s.71 1.583 1.583 1.583H28.7c.483 0 .875.392.875.875s-.392.875-.875.875h-5.888c-1.838 0-3.333-1.495-3.333-3.333 0-1.025.475-1.932 1.205-2.544-.615-.605-.998-1.445-.998-2.373 0-1.028.478-1.938 1.212-2.549-.611-.604-.99-1.441-.99-2.367 0-1.12.559-2.108 1.409-2.713-.524-.589-.852-1.356-.852-2.204 0-1.838 1.495-3.333 3.333-3.333h5.484c1.17 0 2.269.625 2.867 1.632.247.415.11.952-.305 1.199-.416.245-.953.11-1.199-.305-.285-.479-.808-.776-1.363-.776h-5.484c-.873 0-1.583.71-1.583 1.583s.71 1.583 1.583 1.583h6.506c1.17 0 2.27.626 2.867 1.633.247.416.11.953-.305 1.199-.419.251-.954.11-1.199-.305-.289-.487-.799-.777-1.363-.777h-7.063c-.873 0-1.583.711-1.583 1.584s.71 1.583 1.583 1.583h8.091c1.17 0 2.269.625 2.867 1.632.247.415.11.952-.305 1.199-.417.246-.953.11-1.199-.305-.289-.486-.799-.776-1.363-.776H23.02c-.873 0-1.583.71-1.583 1.583s.709 1.584 1.583 1.584z" transform="translate(200, 0) scale(5, 8)" /><defs transform="translate(75, 275)" /><g fill="#000000" transform="translate(75, 275)"><g transform="translate(0, 0)"><path d="M0 55.79L0 8.86L3.83 8.86L3.83 55.79L0 55.79ZM12.99 55.79L12.99 8.86L16.82 8.86L16.82 55.79L12.99 55.79Z" /></g></g><defs transform="translate(275, 275)" /><g fill="#000000" transform="translate(275, 275)"><g transform="translate(0, 0)"><path d="M0 34.52L0 30.10L13.50 30.10L13.50 34.52L0 34.52Z" /></g></g></svg>