<?xml version='1.0' encoding='utf-8'?>
<svg xmlns="http://www.w3.org/2000/svg" width="400" height="400" viewBox="0 0 400 400" version="1.1"><!--description: зверь леса --><path fill="#66757F" d="M14.858 9.497c.475 2.326-.182 4.236-2.921 4.638-2.741.403-6.7 3.898-8.848-1.798C1.844 9.038 1.092 2.234 2.628 2.009c1.537-.226 11.756 5.162 12.23 7.488z" transform="translate(0, 0) scale(5, 10)" /><path fill="#CCD6DD" d="M12.784 9.851c.865 1.392-2.205 3.833-3.844 4.568-1.639.736-2.915-.66-4.173-4.1-.55-1.503-1.234-5.532-.634-5.802.599-.268 7.785 3.942 8.651 5.334z" transform="translate(0, 0) scale(5, 10)" /><path fill="#66757F" d="M21.372 9.497c-.458 2.326.176 4.236 2.818 4.638 2.644.403 6.464 3.898 8.536-1.798 1.201-3.3 1.927-10.103.445-10.329-1.483-.225-11.342 5.163-11.799 7.489z" transform="translate(0, 0) scale(5, 10)" /><path fill="#CCD6DD" d="M23.373 9.851c-.835 1.392 2.127 3.833 3.708 4.568 1.581.736 2.812-.66 4.026-4.1.531-1.503 1.19-5.532.611-5.802-.577-.268-7.509 3.942-8.345 5.334z" transform="translate(0, 0) scale(5, 10)" /><path fill="#66757F" d="M32.347 26.912c0-.454-.188-1.091-.407-1.687.585.028 1.519.191 2.77.817-.008-.536-.118-.984-.273-1.393.041.02.075.034.116.055-1.104-3.31-3.309-5.517-3.309-5.517h2.206c-2.331-4.663-4.965-8.015-8.075-9.559-1.39-.873-3.688-1.338-7.373-1.339h-.003c-3.696 0-5.996.468-7.385 1.346-3.104 1.547-5.734 4.896-8.061 9.552H4.76s-2.207 2.206-3.311 5.517l.084-.039c-.201.392-.307.847-.282 1.377 1.263-.632 2.217-.792 2.813-.818-.189.513-.343 1.044-.386 1.475-.123.371-.191.812-.135 1.343 3.207-1.458 4.707-1.25 6.457-.375C11.213 31.29 14.206 34 18.001 34c3.793 0 6.746-2.794 7.958-6.416 1.458-1.25 3.708-.875 6.416.416.066-.413.036-.773-.036-1.093l.008.005z" transform="translate(0, 0) scale(5, 10)" /><path fill="#CCD6DD" d="M34.553 24.704c-.437-1.313-3.665-3.101-6.973-4.513.26-.664.42-1.401.42-2.191 0-2.761-1.791-5-4-5s-4 2.239-4 5c0 3 4 10-2.001 11.118-5.125-.955-2.954-6.201-2.212-9.58.072-.276.125-.559.158-.853.034-.245.055-.476.055-.685 0-2.761-1.791-5-4-5s-4 2.239-4 5c0 .79.16 1.527.421 2.191-3.308 1.412-6.535 3.2-6.973 4.513C3.655 23.6 4.759 23.6 4.759 23.6s-1.104 2.208-1.104 3.312c2.67-1.78 5.339-2.122 7.429-.452C12.297 30.083 14 33 18.001 30.124c3.999 2.876 5.7-.04 6.912-3.662 2.092-1.673 4.763-1.33 7.434.45 0-1.104-1.103-3.312-1.103-3.312s1.103.001 3.309 1.104z" transform="translate(0, 0) scale(5, 10)" /><path fill="#292F33" d="M11 17s0-1.5 1.5-1.5S14 17 14 17v1.5s0 1.5-1.5 1.5-1.5-1.5-1.5-1.5V17zm11 0s0-1.5 1.5-1.5S25 17 25 17v1.5s0 1.5-1.5 1.5-1.5-1.5-1.5-1.5V17zm-7.061 9.156c-1.021.208 2.041 3.968 3.062 3.968 1.02 0 4.082-3.76 3.062-3.968s-5.103-.208-6.124 0z" transform="translate(0, 0) scale(5, 10)" /><path fill="#662113" d="M22 33c0 2.209-1.791 3-4 3s-4-.791-4-3l1-9c0-2.209.791-2 3-2s3-.209 3 2l1 9z" transform="translate(200, 0) scale(5, 10)" /><path fill="#5C913B" d="M31.406 27.297C24.443 21.332 21.623 12.791 18 12.791c-3.623 0-6.443 8.541-13.405 14.506-2.926 2.507-1.532 3.957 2.479 3.667 3.576-.258 6.919-1.069 10.926-1.069s7.352.812 10.926 1.069c4.012.29 5.405-1.16 2.48-3.667z" transform="translate(200, 0) scale(5, 10)" /><path fill="#3E721D" d="M29.145 24.934C23.794 20.027 20.787 13 18 13c-2.785 0-5.793 7.027-11.144 11.934-4.252 3.898 5.572 4.773 11.144 0 5.569 4.773 15.396 3.898 11.145 0z" transform="translate(200, 0) scale(5, 10)" /><path fill="#5C913B" d="M29.145 20.959C23.794 16.375 20.787 9.811 18 9.811c-2.785 0-5.793 6.564-11.144 11.148-4.252 3.642 5.572 4.459 11.144 0 5.569 4.459 15.396 3.642 11.145 0z" transform="translate(200, 0) scale(5, 10)" /><path fill="#3E721D" d="M26.7 17.703C22.523 14.125 20.176 9 18 9c-2.174 0-4.523 5.125-8.7 8.703-3.319 2.844 4.35 3.482 8.7 0 4.349 3.482 12.02 2.844 8.7 0z" transform="translate(200, 0) scale(5, 10)" /><path fill="#5C913B" d="M26.7 14.726c-4.177-3.579-6.524-8.703-8.7-8.703-2.174 0-4.523 5.125-8.7 8.703-3.319 2.844 4.35 3.481 8.7 0 4.349 3.481 12.02 2.843 8.7 0z" transform="translate(200, 0) scale(5, 10)" /><path fill="#3E721D" d="M25.021 12.081C21.65 9.193 19.756 5.057 18 5.057c-1.755 0-3.65 4.136-7.021 7.024-2.679 2.295 3.511 2.809 7.021 0 3.51 2.81 9.701 2.295 7.021 0z" transform="translate(200, 0) scale(5, 10)" /><path fill="#5C913B" d="M25.021 9.839C21.65 6.951 19.756 2.815 18 2.815c-1.755 0-3.65 4.136-7.021 7.024-2.679 2.295 3.511 2.809 7.021 0 3.51 2.81 9.701 2.295 7.021 0z" transform="translate(200, 0) scale(5, 10)" /><path fill="#3E721D" d="M23.343 6.54C20.778 4.342 19.336 1.195 18 1.195c-1.335 0-2.778 3.148-5.343 5.345-2.038 1.747 2.671 2.138 5.343 0 2.671 2.138 7.382 1.746 5.343 0z" transform="translate(200, 0) scale(5, 10)" /><path fill="#5C913B" d="M23.343 5.345C20.778 3.148 19.336 0 18 0c-1.335 0-2.778 3.148-5.343 5.345-2.038 1.747 2.671 2.138 5.343 0 2.671 2.138 7.382 1.746 5.343 0z" transform="translate(200, 0) scale(5, 10)" /></svg>