<?xml version='1.0' encoding='utf-8'?>
<svg xmlns="http://www.w3.org/2000/svg" width="400" height="400" viewBox="0 0 400 400" version="1.1"><!--description: с многими волосами --><path fill="#9AAAB4" d="M30.169 8.15L15.32 23s-.707-2.121.707-3.535L28.755 6.736l1.414 1.414z" transform="translate(0, 0) scale(5, 8)" /><path fill="#67757F" d="M28.755 6.736c-1.952 1.953-2.586 4.484-1.414 5.656s3.705.539 5.657-1.414c1.952-1.952 2.586-4.484 1.414-5.656-1.172-1.172-3.704-.539-5.657 1.414zm1.414 1.414c1.172-1.172 2.438-1.805 2.829-1.414.392.391-.243 1.656-1.415 2.828-1.171 1.172-2.437 1.805-2.828 1.414-.391-.39.243-1.656 1.414-2.828z" transform="translate(0, 0) scale(5, 8)" /><path fill="#FFAC33" d="M19.629 11.361c.178-4.812-2.645-8.456-7.723-10.099-2.02-.654-6.772-.475-7.96 1.069C2.632 2.357 1.224 2.88 0 3.752V12l15.399 10.066c1.147-.887 2.038-2.083 2.713-3.528C20.273 20.831 23 20.447 23 20.447c-3.709-2.863-3.371-9.086-3.371-9.086z" transform="translate(0, 0) scale(5, 8)" /><path fill="#FA743E" d="M20.61 29.303C19.97 27.946 18.6 27 17 27H0v9h21v-5c0-.609-.147-1.18-.39-1.697z" transform="translate(0, 0) scale(5, 8)" /><path fill="#DD551F" d="M16 32h1v4h-1z" transform="translate(0, 0) scale(5, 8)" /><path fill="#FFDC5D" d="M15.909 11.701c-.677-.938-1.544-1.693-3.445-1.96.713.327 1.396 1.455 1.485 2.079.089.624.178 1.129-.386.505C11.302 9.826 8.84 10.81 6.4 9.284 4.695 8.217 4.177 7.038 4.177 7.038s-.208 1.574-2.792 3.178c-.452.28-.947.792-1.385 1.469v9.39c1.042 2.02 2.834 3.598 5 4.38V28c0 1.657 1.343 3 3 3s3-1.343 3-3v-2.539c1.795-.651 3.333-1.852 4.399-3.395C16.406 20.608 17 18.857 17 17c0-3.041-.318-4.229-1.091-5.299z" transform="translate(0, 0) scale(5, 8)" /><path fill="#C1694F" d="M12 22H4s1 2 4 2 4-2 4-2zm-3-2.5H7c-.276 0-.5-.224-.5-.5s.224-.5.5-.5h2c.276 0 .5.224.5.5s-.224.5-.5.5z" transform="translate(0, 0) scale(5, 8)" /><path fill="#662113" d="M4 16c-.552 0-1-.448-1-1v-1c0-.552.448-1 1-1s1 .448 1 1v1c0 .552-.448 1-1 1zm8 0c-.552 0-1-.448-1-1v-1c0-.552.448-1 1-1s1 .448 1 1v1c0 .552-.448 1-1 1z" transform="translate(0, 0) scale(5, 8)" /><path fill="#9AAAB4" d="M24 6v21s2-1 2-3V6h-2z" transform="translate(0, 0) scale(5, 8)" /><circle fill="#67757F" cx="25" cy="12" r="1" transform="translate(0, 0) scale(5, 8)" /><path fill="#67757F" d="M23 1c-1.657 0-3 2.239-3 5s1.343 5 3 5 3-2.239 3-5-1.343-5-3-5zm0 8c-.553 0-1-1.343-1-3s.447-3 1-3 1 1.343 1 3-.447 3-1 3z" transform="translate(0, 0) scale(5, 8)" /><path fill="#CCD6DD" d="M31 2H5C3.343 2 2 3.343 2 5v26c0 1.657 1.343 3 3 3h26c1.657 0 3-1.343 3-3V5c0-1.657-1.343-3-3-3z" transform="translate(200, 0) scale(5, 8)" /><path fill="#E1E8ED" d="M31 1H5C2.791 1 1 2.791 1 5v26c0 2.209 1.791 4 4 4h26c2.209 0 4-1.791 4-4V5c0-2.209-1.791-4-4-4zm0 2c1.103 0 2 .897 2 2v4h-6V3h4zm-4 16h6v6h-6v-6zm0-2v-6h6v6h-6zM25 3v6h-6V3h6zm-6 8h6v6h-6v-6zm0 8h6v6h-6v-6zM17 3v6h-6V3h6zm-6 8h6v6h-6v-6zm0 8h6v6h-6v-6zM3 5c0-1.103.897-2 2-2h4v6H3V5zm0 6h6v6H3v-6zm0 8h6v6H3v-6zm2 14c-1.103 0-2-.897-2-2v-4h6v6H5zm6 0v-6h6v6h-6zm8 0v-6h6v6h-6zm12 0h-4v-6h6v4c0 1.103-.897 2-2 2z" transform="translate(200, 0) scale(5, 8)" /><path fill="#DD2E44" d="M4.998 33c-.32 0-.645-.076-.946-.239-.973-.523-1.336-1.736-.813-2.709l7-13c.299-.557.845-.939 1.47-1.031.626-.092 1.258.118 1.705.565l6.076 6.076 9.738-18.59c.512-.978 1.721-1.357 2.699-.843.979.512 1.356 1.721.844 2.7l-11 21c-.295.564-.841.953-1.47 1.05-.627.091-1.266-.113-1.716-.563l-6.1-6.099-5.724 10.631C6.4 32.619 5.71 33 4.998 33z" transform="translate(200, 0) scale(5, 8)" /><defs transform="translate(75, 275)" /><g fill="#000000" transform="translate(75, 275)"><g transform="translate(0, 0)"><path d="M0 29.61L0 25.51L23.71 15.50L23.71 19.87L4.91 27.59L23.71 35.38L23.71 39.75L0 29.61Z" /></g></g><defs transform="translate(275, 275)" /><g fill="#000000" transform="translate(275, 275)"><g transform="translate(0, 0)"><path d="M0 32.30Q0 25.10 4.00 21.63Q7.35 18.75 12.16 18.75Q17.50 18.75 20.90 22.25Q24.29 25.76 24.29 31.93Q24.29 36.94 22.79 39.81Q21.29 42.68 18.42 44.26Q15.55 45.85 12.16 45.85Q6.71 45.85 3.36 42.36Q0 38.87 0 32.30M4.52 32.30Q4.52 37.28 6.69 39.76Q8.86 42.24 12.16 42.24Q15.43 42.24 17.60 39.75Q19.78 37.26 19.78 32.15Q19.78 27.34 17.59 24.87Q15.41 22.39 12.16 22.39Q8.86 22.39 6.69 24.85Q4.52 27.32 4.52 32.30Z" /></g></g></svg>