<?xml version='1.0' encoding='utf-8'?>
<svg xmlns="http://www.w3.org/2000/svg" width="400" height="400" viewBox="0 0 400 400" version="1.1"><!--description: событие встречи --><path fill="#EF9645" d="M16.428 30.331a2.31 2.31 0 0 0 3.217-.568.798.798 0 0 0-.197-1.114l-1.85-1.949 4.222 2.955a1.497 1.497 0 0 0 2.089-.369 1.5 1.5 0 0 0-.369-2.089l-3.596-3.305 5.375 3.763a1.497 1.497 0 0 0 2.089-.369 1.5 1.5 0 0 0-.369-2.089l-4.766-4.073 5.864 4.105a1.497 1.497 0 0 0 2.089-.369 1.5 1.5 0 0 0-.369-2.089L4.733 11.194l-3.467 5.521c-.389.6-.283 1.413.276 1.891l7.786 6.671c.355.304.724.591 1.107.859l5.993 4.195z" transform="translate(0, 0) scale(5, 10)" /><path fill="#FFDC5D" d="M29.802 21.752 18.5 13.601l-.059-.08.053-.08.053-.053.854.469c.958.62 3.147 1.536 4.806 1.536 1.135 0 1.815-.425 2.018-1.257a1.409 1.409 0 0 0-1.152-1.622 6.788 6.788 0 0 1-2.801-1.091l-.555-.373c-.624-.421-1.331-.898-1.853-1.206-.65-.394-1.357-.585-2.163-.585-1.196 0-2.411.422-3.585.83l-1.266.436a5.18 5.18 0 0 1-1.696.271c-1.544 0-3.055-.586-4.516-1.152l-.147-.058a1.389 1.389 0 0 0-1.674.56L1.35 15.669a1.357 1.357 0 0 0 .257 1.761l7.785 6.672c.352.301.722.588 1.1.852l6.165 4.316a2 2 0 0 0 2.786-.491.803.803 0 0 0-.196-1.115l-1.833-1.283a.424.424 0 0 1-.082-.618.422.422 0 0 1 .567-.075l3.979 2.785a1.4 1.4 0 0 0 1.606-2.294l-3.724-2.606a.424.424 0 0 1-.082-.618.423.423 0 0 1 .567-.075l5.132 3.593a1.4 1.4 0 0 0 1.606-2.294l-4.868-3.407a.42.42 0 0 1-.081-.618.377.377 0 0 1 .506-.066l5.656 3.959a1.4 1.4 0 0 0 1.606-2.295z" transform="translate(0, 0) scale(5, 10)" /><path d="M16.536 27.929c-.07.267-.207.498-.389.681l-1.004.996a1.494 1.494 0 0 1-1.437.396 1.5 1.5 0 0 1-.683-2.512l1.004-.996a1.494 1.494 0 0 1 1.437-.396 1.502 1.502 0 0 1 1.072 1.831zM5.992 23.008l1.503-1.497a1.5 1.5 0 0 0-.444-2.429 1.495 1.495 0 0 0-1.674.31l-1.503 1.497a1.5 1.5 0 0 0 .445 2.429 1.496 1.496 0 0 0 1.673-.31zm5.204.052a1.5 1.5 0 1 0-2.122-2.118L6.072 23.94a1.5 1.5 0 1 0 2.122 2.118l3.002-2.998zm2.25 3a1.5 1.5 0 0 0-.945-2.555 1.489 1.489 0 0 0-1.173.44L9.323 25.94a1.5 1.5 0 0 0 .945 2.556c.455.036.874-.141 1.173-.44l2.005-1.996zm16.555-4.137.627-.542-6.913-10.85-12.27 1.985a1.507 1.507 0 0 0-1.235 1.737c.658 2.695 6.003.693 8.355-.601l11.436 8.271z" fill="#EF9645" transform="translate(0, 0) scale(5, 10)" /><path d="M16.536 26.929c-.07.267-.207.498-.389.681l-1.004.996a1.494 1.494 0 0 1-1.437.396 1.5 1.5 0 0 1-.683-2.512l1.004-.996a1.494 1.494 0 0 1 1.437-.396 1.502 1.502 0 0 1 1.072 1.831zM5.992 22.008l1.503-1.497a1.5 1.5 0 0 0-.444-2.429 1.497 1.497 0 0 0-1.674.31l-1.503 1.497a1.5 1.5 0 0 0 .445 2.429 1.496 1.496 0 0 0 1.673-.31zm5.204.052a1.5 1.5 0 1 0-2.122-2.118L6.072 22.94a1.5 1.5 0 1 0 2.122 2.118l3.002-2.998zm2.25 3a1.5 1.5 0 0 0-.945-2.555 1.489 1.489 0 0 0-1.173.44L9.323 24.94a1.5 1.5 0 0 0 .945 2.556c.455.036.874-.141 1.173-.44l2.005-1.996zm21.557-7.456a1.45 1.45 0 0 0 .269-1.885l-.003-.005-3.467-6.521a1.488 1.488 0 0 0-1.794-.6c-1.992.771-4.174 1.657-6.292.937l-1.098-.377c-1.948-.675-4.066-1.466-6-.294-.695.409-1.738 1.133-2.411 1.58a6.873 6.873 0 0 1-2.762 1.076 1.502 1.502 0 0 0-1.235 1.737c.613 2.512 5.3.908 7.838-.369a.968.968 0 0 1 1.002.081l11.584 8.416 4.369-3.776z" fill="#FFCC4D" transform="translate(0, 0) scale(5, 10)" /><path fill="#E0E7EC" d="M36 32c0 2.209-1.791 4-4 4H4c-2.209 0-4-1.791-4-4V9c0-2.209 1.791-4 4-4h28c2.209 0 4 1.791 4 4v23z" transform="translate(200, 0) scale(5, 10)" /><path d="M23.657 19.12H17.87c-1.22 0-1.673-.791-1.673-1.56 0-.791.429-1.56 1.673-1.56h8.184c1.154 0 1.628 1.04 1.628 1.628 0 .452-.249.927-.52 1.492l-5.607 11.395c-.633 1.266-.882 1.717-1.899 1.717-1.244 0-1.877-.949-1.877-1.605 0-.271.068-.474.226-.791l5.652-10.716zM10.889 19h-.5c-1.085 0-1.538-.731-1.538-1.5 0-.792.565-1.5 1.538-1.5h2.015c.972 0 1.515.701 1.515 1.605V30.47c0 1.13-.558 1.763-1.53 1.763s-1.5-.633-1.5-1.763V19z" fill="#66757F" transform="translate(200, 0) scale(5, 10)" /><path fill="#DD2F45" d="M34 0h-3.277c.172.295.277.634.277 1 0 1.104-.896 2-2 2s-2-.896-2-2c0-.366.105-.705.277-1H8.723C8.895.295 9 .634 9 1c0 1.104-.896 2-2 2s-2-.896-2-2c0-.366.105-.705.277-1H2C.896 0 0 .896 0 2v11h36V2c0-1.104-.896-2-2-2z" transform="translate(200, 0) scale(5, 10)" /><path d="M13.182 4.604c0-.5.32-.78.75-.78.429 0 .749.28.749.78v5.017h1.779c.51 0 .73.38.72.72-.02.33-.28.659-.72.659h-2.498c-.49 0-.78-.319-.78-.819V4.604zm-6.91 0c0-.5.32-.78.75-.78s.75.28.75.78v3.488c0 .92.589 1.649 1.539 1.649.909 0 1.529-.769 1.529-1.649V4.604c0-.5.319-.78.749-.78s.75.28.75.78v3.568c0 1.679-1.38 2.949-3.028 2.949-1.669 0-3.039-1.25-3.039-2.949V4.604zM5.49 9.001c0 1.679-1.069 2.119-1.979 2.119-.689 0-1.839-.27-1.839-1.14 0-.269.23-.609.56-.609.4 0 .75.37 1.199.37.56 0 .56-.52.56-.84V4.604c0-.5.32-.78.749-.78.431 0 .75.28.75.78v4.397z" fill="#F5F8FA" transform="translate(200, 0) scale(5, 10)" /><path d="M32 10c0 .552.447 1 1 1s1-.448 1-1-.447-1-1-1-1 .448-1 1m0-3c0 .552.447 1 1 1s1-.448 1-1-.447-1-1-1-1 .448-1 1m-3 3c0 .552.447 1 1 1s1-.448 1-1-.447-1-1-1-1 .448-1 1m0-3c0 .552.447 1 1 1s1-.448 1-1-.447-1-1-1-1 .448-1 1m-3 3c0 .552.447 1 1 1s1-.448 1-1-.447-1-1-1-1 .448-1 1m0-3c0 .552.447 1 1 1s1-.448 1-1-.447-1-1-1-1 .448-1 1m-3 0c0 .552.447 1 1 1s1-.448 1-1-.447-1-1-1-1 .448-1 1m0 3c0 .552.447 1 1 1s1-.448 1-1-.447-1-1-1-1 .448-1 1" fill="#F4ABBA" transform="translate(200, 0) scale(5, 10)" /></svg>