<?xml version='1.0' encoding='utf-8'?>
<svg xmlns="http://www.w3.org/2000/svg" width="400" height="400" viewBox="0 0 400 400" version="1.1"><!--description: свойство глупого --><path fill="#FFCB4C" d="M35.597 14.232c2.083 9.72-4.108 19.289-13.828 21.372C12.049 37.687 2.48 31.496.397 21.776-1.686 12.056 4.506 2.487 14.225.404c9.72-2.084 19.289 4.108 21.372 13.828" transform="translate(0, 0) scale(5, 10)" /><path fill="#F4F7F9" d="M29.284 9.012c.779 3.636-1.537 7.216-5.173 7.995-3.636.779-7.216-1.537-7.996-5.173-.779-3.636 1.537-7.216 5.173-7.995s7.217 1.536 7.996 5.173z" transform="translate(0, 0) scale(5, 10)" /><circle fill="#292F33" cx="22.306" cy="9.291" r="2.037" transform="translate(0, 0) scale(5, 10)" /><path fill="#F4F7F9" d="M14.088 14.282c.456 2.126-.899 4.219-3.025 4.675s-4.219-.899-4.675-3.025c-.456-2.126.899-4.219 3.025-4.675s4.219.899 4.675 3.025z" transform="translate(0, 0) scale(5, 10)" /><ellipse transform="translate(0, 0) scale(5, 10)" fill="#292F33" cx="10.238" cy="15.857" rx="1.942" ry="1.942" /><path fill="#65471B" d="M18.625 20.937c-3.543.759-5.981.85-9.01.908-.691.015-1.955.419-1.536 2.375.838 3.911 6.379 7.837 12.642 6.495 6.262-1.342 9.708-7.194 8.87-11.105-.419-1.956-1.739-1.808-2.375-1.536-2.786 1.187-5.048 2.104-8.591 2.863z" transform="translate(0, 0) scale(5, 10)" /><path fill="#E8596E" d="M11 24.004v6c0 3 2 6 6 6s6-3 6-6v-6H11z" transform="translate(0, 0) scale(5, 10)" /><path fill="#DD2F45" d="M17 31.883c.301 0 .545-.244.545-.545v-6.295h-1.091v6.295c.001.301.245.545.546.545z" transform="translate(0, 0) scale(5, 10)" /><path fill="#FFF" d="M10.034 23.801s3.143.349 9.01-.908c5.867-1.257 8.591-2.864 8.591-2.864s-1.117 4.33-7.962 5.797c-6.845 1.467-9.639-2.025-9.639-2.025z" transform="translate(0, 0) scale(5, 10)" /><path fill="#CCD6DD" d="M31 2H5C3.343 2 2 3.343 2 5v26c0 1.657 1.343 3 3 3h26c1.657 0 3-1.343 3-3V5c0-1.657-1.343-3-3-3z" transform="translate(200, 0) scale(5, 10)" /><path fill="#E1E8ED" d="M31 1H5C2.791 1 1 2.791 1 5v26c0 2.209 1.791 4 4 4h26c2.209 0 4-1.791 4-4V5c0-2.209-1.791-4-4-4zm0 2c1.103 0 2 .897 2 2v4h-6V3h4zm-4 16h6v6h-6v-6zm0-2v-6h6v6h-6zM25 3v6h-6V3h6zm-6 8h6v6h-6v-6zm0 8h6v6h-6v-6zM17 3v6h-6V3h6zm-6 8h6v6h-6v-6zm0 8h6v6h-6v-6zM3 5c0-1.103.897-2 2-2h4v6H3V5zm0 6h6v6H3v-6zm0 8h6v6H3v-6zm2 14c-1.103 0-2-.897-2-2v-4h6v6H5zm6 0v-6h6v6h-6zm8 0v-6h6v6h-6zm12 0h-4v-6h6v4c0 1.103-.897 2-2 2z" transform="translate(200, 0) scale(5, 10)" /><path fill="#5C913B" d="M13 33H7V16c0-1.104.896-2 2-2h2c1.104 0 2 .896 2 2v17z" transform="translate(200, 0) scale(5, 10)" /><path fill="#3B94D9" d="M29 33h-6V9c0-1.104.896-2 2-2h2c1.104 0 2 .896 2 2v24z" transform="translate(200, 0) scale(5, 10)" /><path fill="#DD2E44" d="M21 33h-6V23c0-1.104.896-2 2-2h2c1.104 0 2 .896 2 2v10z" transform="translate(200, 0) scale(5, 10)" /></svg>