<?xml version='1.0' encoding='utf-8'?>
<svg xmlns="http://www.w3.org/2000/svg" width="400" height="400" viewBox="0 0 400 400" version="1.1"><!--description: соревнование в беге --><path fill="#8899A6" d="M5 36c-1.104 0-2-.896-2-2V3c0-1.104.896-2 2-2s2 .896 2 2v31c0 1.104-.896 2-2 2z" transform="translate(0, 0) scale(5, 8)" /><path fill="#AAB8C2" d="M5 1c-1.105 0-2 .895-2 2v31c0 .276.224.5.5.5s.5-.224.5-.5V4.414C4 3.633 4.633 3 5.414 3H7c0-1.105-.895-2-2-2z" transform="translate(0, 0) scale(5, 8)" /><path fill="#8899A6" d="M5 36c-1.104 0-2-.896-2-2V3c0-1.104.896-2 2-2s2 .896 2 2v31c0 1.104-.896 2-2 2z" transform="translate(0, 0) scale(5, 8)" /><path fill="#AAB8C2" d="M5 1c-1.105 0-2 .895-2 2v31c0 .276.224.5.5.5s.5-.224.5-.5V4.414C4 3.633 4.633 3 5.414 3H7c0-1.105-.895-2-2-2z" transform="translate(0, 0) scale(5, 8)" /><path fill="#31373D" d="M32.396 3.082C30.732 2.363 28.959 2.006 27 1.974l-1.375.38L21 3l-1-.128c-.237.051-.476.099-.711.15-2.169.469-4.23.894-6.289.982L12 5 6 4v19h6l1 2h.077c2.244-.096 4.472-.556 6.633-1.022l.29-.061.646-.645 5.438-.708.916.41c1.68.032 3.193.335 4.604.944.309.133.665.103.945-.082.282-.186.451-.499.451-.836V4c0-.399-.237-.76-.604-.918z" transform="translate(0, 0) scale(5, 8)" /><path fill="#E1E8ED" d="M13 4.004c-.239.01-.478.035-.717.035-1.797 0-3.396-.313-4.887-.957-.308-.135-.665-.103-.945.083C6.169 3.349 6 3.664 6 4v6s3.292 1 7 1V4.004zM20 10s-3.75 1-7 1v7c3 0 7-1 7-1v-7zm7-1V1.974c-.096-.002-.186-.013-.283-.013-2.267 0-4.521.442-6.717.911V10s2.167-1 7-1zM6.604 23.918c1.5.648 3.09.993 4.82 1.082H13v-7c-4.167 0-7-1-7-1v6c0 .399.237.76.604.918zM20 17v6.916c2.313-.499 4.511-.955 6.717-.955.097 0 .187.011.283.013V16c-4.5 0-7 1-7 1zm7-1c2.676 0 4.82.56 6 .954V9.908C31.853 9.527 29.769 9 27 9v7z" transform="translate(0, 0) scale(5, 8)" /><path fill="#FFAC33" d="M5.123 5h6C12.227 5 13 4.896 13 6V4c0-1.104-.773-2-1.877-2h-8c-2 0-3.583 2.125-3 5 0 0 1.791 9.375 1.917 9.958C2.373 18.5 4.164 20 6.081 20h6.958c1.105 0-.039-1.896-.039-3v-2c0 1.104-.773 2-1.877 2h-4c-1.104 0-1.833-1.042-2-2S3.539 7.667 3.539 7.667C3.206 5.75 4.018 5 5.123 5zm25.812 0h-6C23.831 5 22 4.896 22 6V4c0-1.104 1.831-2 2.935-2h8c2 0 3.584 2.125 3 5 0 0-1.633 9.419-1.771 10-.354 1.5-2.042 3-4 3h-7.146C21.914 20 22 18.104 22 17v-2c0 1.104 1.831 2 2.935 2h4c1.104 0 1.834-1.042 2-2s1.584-7.333 1.584-7.333C32.851 5.75 32.04 5 30.935 5zM20.832 22c0-6.958-2.709 0-2.709 0s-3-6.958-3 0-3.291 10-3.291 10h12.292c-.001 0-3.292-3.042-3.292-10z" transform="translate(200, 0) scale(5, 8)" /><path fill="#FFCC4D" d="M29.123 6.577c0 6.775-6.77 18.192-11 18.192-4.231 0-11-11.417-11-18.192 0-5.195 1-6.319 3-6.319 1.374 0 6.025-.027 8-.027l7-.001c2.917-.001 4 .684 4 6.347z" transform="translate(200, 0) scale(5, 8)" /><path fill="#C1694F" d="M27 33c0 1.104.227 2-.877 2h-16C9.018 35 9 34.104 9 33v-1c0-1.104 1.164-2 2.206-2h13.917c1.042 0 1.877.896 1.877 2v1z" transform="translate(200, 0) scale(5, 8)" /><path fill="#C1694F" d="M29 34.625c0 .76.165 1.375-1.252 1.375H8.498C7.206 36 7 35.385 7 34.625v-.25C7 33.615 7.738 33 8.498 33h19.25c.759 0 1.252.615 1.252 1.375v.25z" transform="translate(200, 0) scale(5, 8)" /><defs transform="translate(75, 275)" /><g fill="#000000" transform="translate(75, 275)"><g transform="translate(0, 0)"><path d="M0 34.52L0 30.10L13.50 30.10L13.50 34.52L0 34.52Z" /></g></g><defs transform="translate(275, 275)" /><g fill="#000000" transform="translate(275, 275)"><g transform="translate(0, 0)"><path d="M0 34.52L0 30.10L13.50 30.10L13.50 34.52L0 34.52Z" /></g></g></svg>