<?xml version='1.0' encoding='utf-8'?>
<svg xmlns="http://www.w3.org/2000/svg" width="400" height="400" viewBox="0 0 400 400" version="1.1"><!--description: мера громкости --><path fill="#BE1931" d="M12.908 30.75c-.276 2.209-2.291 3-4.5 3s-3.776-1.791-3.5-4l1-9c.276-2.209 2.291-4 4.5-4s6.468 0 3.5 4-1 10-1 10z" transform="translate(0, 0) scale(5, 10)" /><path fill="#CCD6DD" d="M35.825 14.75c0 6.902-1.544 12.5-3.45 12.5-1.905 0-20.45-5.598-20.45-12.5 0-6.903 18.545-12.5 20.45-12.5 1.906 0 3.45 5.597 3.45 12.5z" transform="translate(0, 0) scale(5, 10)" /><ellipse fill="#66757F" cx="32.375" cy="14.75" rx="3.45" ry="12.5" transform="translate(0, 0) scale(5, 10)" /><path fill="#DD2E44" d="M17.925 21.75l-14-1c-5 0-5-12 0-12l14-1c-3 3-3 11 0 14z" transform="translate(0, 0) scale(5, 10)" /><ellipse fill="#99AAB5" cx="31.325" cy="14.75" rx="1.5" ry="4.348" transform="translate(0, 0) scale(5, 10)" /><path fill="#FFCC4D" d="M30.021 34.264c-1.563 1.563-4.095 1.562-5.656 0L1.736 11.636c-1.562-1.562-1.563-4.094 0-5.657l4.243-4.242c1.562-1.562 4.095-1.562 5.657 0l22.626 22.628c1.562 1.562 1.562 4.096.001 5.656l-4.242 4.243z" transform="translate(200, 0) scale(5, 10)" /><path fill="#292F33" d="M9.515 6.687c-.391.39-1.023.39-1.414 0-.39-.391-.39-1.024 0-1.415l3.536-3.536 1.414 1.415-3.536 3.536zm5.656 1.414c-.39.391-1.024.391-1.414 0-.391-.391-.391-1.024 0-1.414l1.415-1.415 1.414 1.415-1.415 1.414zm1.415 5.656c-.391.391-1.024.391-1.414 0-.39-.391-.39-1.024 0-1.414l3.536-3.536c.486.486.929.928 1.414 1.415l-3.536 3.535zm5.656 1.414c-.39.391-1.023.391-1.413 0-.392-.391-.391-1.024 0-1.414l1.414-1.415c.485.487.928.928 1.414 1.415l-1.415 1.414zm1.415 5.657c-.391.391-1.023.392-1.414 0-.391-.391-.391-1.023-.001-1.414l3.536-3.535 1.414 1.414-3.535 3.535zm7.071 7.071c-.39.391-1.023.391-1.413 0-.392-.391-.392-1.023-.001-1.414l3.536-3.535 1.414 1.414-3.536 3.535zm-1.415-5.657c-.391.391-1.022.391-1.414.001-.391-.391-.39-1.024 0-1.414l1.415-1.414 1.413 1.413-1.414 1.414z" transform="translate(200, 0) scale(5, 10)" /></svg>