<?xml version='1.0' encoding='utf-8'?>
<svg xmlns="http://www.w3.org/2000/svg" width="400" height="400" viewBox="0 0 400 400" version="1.1"><!--description: человек, который носит груз --><path fill="#662113" d="M4 11v12.375c0 2.042 1.093 2.484 1.093 2.484l11.574 9.099C18.489 36.39 18 33.375 18 33.375V22L4 11z" transform="translate(0, 0) scale(5, 8)" /><path fill="#C1694F" d="M32 11v12.375c0 2.042-1.063 2.484-1.063 2.484s-9.767 7.667-11.588 9.099C17.526 36.39 18 33.375 18 33.375V22l14-11z" transform="translate(0, 0) scale(5, 8)" /><path fill="#D99E82" d="M19.289.5c-.753-.61-1.988-.61-2.742 0L4.565 10.029c-.754.61-.754 1.607 0 2.216l12.023 9.646c.754.609 1.989.609 2.743 0l12.104-9.73c.754-.609.754-1.606 0-2.216L19.289.5z" transform="translate(0, 0) scale(5, 8)" /><path fill="#D99E82" d="M18 35.75c-.552 0-1-.482-1-1.078V21.745c0-.596.448-1.078 1-1.078.553 0 1 .482 1 1.078v12.927c0 .596-.447 1.078-1 1.078z" transform="translate(0, 0) scale(5, 8)" /><path fill="#99AAB5" d="M28 18.836c0 1.104.104 1.646-1 2.442l-2.469 1.878c-1.104.797-1.531.113-1.531-.992v-2.961c0-.193-.026-.4-.278-.608C20.144 16.47 10.134 8.519 8.31 7.051l4.625-3.678c1.266.926 10.753 8.252 14.722 11.377.197.156.343.328.343.516v3.57z" transform="translate(0, 0) scale(5, 8)" /><path fill="#CCD6DD" d="M27.656 14.75C23.688 11.625 14.201 4.299 12.935 3.373l-1.721 1.368-2.904 2.31c1.825 1.468 11.834 9.419 14.412 11.544.151.125.217.25.248.371L27.903 15c-.06-.087-.146-.171-.247-.25z" transform="translate(0, 0) scale(5, 8)" /><path fill="#CCD6DD" d="M28 18.836v-3.57c0-.188-.146-.359-.344-.516-3.968-3.125-13.455-10.451-14.721-11.377l-2.073 1.649c3.393 2.669 12.481 9.681 14.86 11.573.256.204.278.415.278.608v4.836l1-.761c1.104-.797 1-1.338 1-2.442z" transform="translate(0, 0) scale(5, 8)" /><path fill="#E1E8ED" d="M27.656 14.75C23.688 11.625 14.201 4.299 12.935 3.373l-2.073 1.649c3.393 2.669 12.481 9.681 14.86 11.573.037.029.06.059.087.088L27.903 15c-.06-.087-.146-.171-.247-.25z" transform="translate(0, 0) scale(5, 8)" /><path fill="#F2760F" d="M32.043 36L32 35c0-4-2.957-7-7.957-7h-12C7.043 28 4 31 4 35l.043 1h28z" transform="translate(200, 0) scale(5, 8)" /><path fill="#FFF75F" d="M9 28.298V36h3v-8c-1.103 0-2.102.103-3 .298zM24 28v8h3v-7.702c-.898-.195-1.897-.298-3-.298z" transform="translate(200, 0) scale(5, 8)" /><path fill="#292F33" d="M13 27h10v4H13z" transform="translate(200, 0) scale(5, 8)" /><path fill="#292F33" d="M14 27h8s-1.018 7-4 7-4-7-4-7" transform="translate(200, 0) scale(5, 8)" /><path fill="#FFDC5D" d="M13.64 30.038c1.745 1.268 2.849 1.963 4.36 1.963s2.615-.696 4.359-1.963v-5.749h-8.72v5.749z" transform="translate(200, 0) scale(5, 8)" /><path fill="#F9CA55" d="M13.632 25.973c1.216 1.374 2.724 1.746 4.364 1.746 1.639 0 3.146-.373 4.363-1.746v-3.491h-8.728v3.491z" transform="translate(200, 0) scale(5, 8)" /><path fill="#FFAC33" d="M21.513 4.15c-1.881-.608-6.306-.443-7.412.996-2.876.055-6.25 2.654-6.693 6.084-.438 3.394.538 4.97.885 7.523.393 2.892 2.019 3.817 3.319 4.204 1.87 2.47 3.858 2.365 7.195 2.365 6.518 0 9.622-4.361 9.896-11.768.167-4.481-2.462-7.874-7.19-9.404z" transform="translate(200, 0) scale(5, 8)" /><path fill="#FFDC5D" d="M25.24 13.87c-.631-.873-1.438-1.576-3.208-1.825.664.304 1.3 1.355 1.383 1.936.083.581.166 1.051-.359.47-2.105-2.327-4.397-1.411-6.669-2.832-1.587-.993-2.07-2.091-2.07-2.091s-.194 1.466-2.6 2.959c-.697.433-1.53 1.397-1.991 2.821-.332 1.023-.229 1.936-.229 3.496 0 4.553 3.752 8.38 8.38 8.38s8.38-3.861 8.38-8.38c-.001-2.833-.297-3.939-1.017-4.934z" transform="translate(200, 0) scale(5, 8)" /><path fill="#C1694F" d="M18.807 21.131h-1.862c-.257 0-.466-.208-.466-.466s.208-.466.466-.466h1.862c.257 0 .466.208.466.466s-.208.466-.466.466zM18 24.467c-2.754 0-3.6-.705-3.74-.848-.257-.256-.257-.671 0-.927.248-.248.644-.255.902-.023.051.037.721.487 2.838.487 2.201 0 2.836-.485 2.842-.49.256-.255.658-.243.914.015.256.256.242.683-.014.938-.142.143-.988.848-3.742.848" transform="translate(200, 0) scale(5, 8)" /><path fill="#662113" d="M14.152 17.872c-.514 0-.931-.417-.931-.931v-.931c0-.514.417-.931.931-.931s.931.417.931.931v.931c0 .514-.417.931-.931.931zm7.449 0c-.514 0-.931-.417-.931-.931v-.931c0-.514.417-.931.931-.931s.931.417.931.931v.931c0 .514-.417.931-.931.931z" transform="translate(200, 0) scale(5, 8)" /><path fill="#292F33" d="M19 34.938l-1 1.061-1-1v-3h2z" transform="translate(200, 0) scale(5, 8)" /><path fill="#55ACEE" d="M11 28c0 1 1 3 3 5 1.582 1.581 4 3 4 3 0-3.063-1-4-2-5s-3-2-3-4c0-1-2 1-2 1m14 0c0 1-1 3-3 5-1.58 1.581-4 3-4 3 0-3.063 1-4 2-5s3-2 3-4c0-1 2 1 2 1" transform="translate(200, 0) scale(5, 8)" /><path fill="#FFF75F" d="M30 11c-3-2-1.008-4.169-3-7-1.873-2.663-5-4-9.002-4C13 0 10.874 1.337 9 4c-1.992 2.831 0 5-3 7-1.861 1.24 6 2.313 12 2.313S31.861 12.24 30 11" transform="translate(200, 0) scale(5, 8)" /><path fill="#FFAC33" d="M16 11.5V.088c-.35.032-.683.074-1 .124v10.281c-2.09-.05-5.124-.396-7.653-.853-.174.297-.41.59-.73.877 2.91.566 6.596.983 8.883.983h.5zm12.855-1.553c-2.853.304-5.839.517-7.855.549V.292c-.323-.066-.66-.112-1-.155V11.5h.5c2.018 0 5.796-.261 9.289-.657-.402-.295-.708-.593-.934-.896z" transform="translate(200, 0) scale(5, 8)" /><defs transform="translate(75, 275)" /><g fill="#000000" transform="translate(75, 275)"><g transform="translate(0, 0)"><path d="M0 55.79L0 8.86L3.83 8.86L3.83 55.79L0 55.79ZM12.99 55.79L12.99 8.86L16.82 8.86L16.82 55.79L12.99 55.79Z" /></g></g><defs transform="translate(275, 275)" /><g fill="#000000" transform="translate(275, 275)"><g transform="translate(0, 0)"><path d="M0 34.52L0 30.10L13.50 30.10L13.50 34.52L0 34.52Z" /></g></g></svg>