<?xml version='1.0' encoding='utf-8'?>
<svg xmlns="http://www.w3.org/2000/svg" width="400" height="400" viewBox="0 0 400 400" version="1.1"><!--description: ломать зубами --><path fill="#E1E8ED" d="M18 2C13 2 11.11-1.276 7.002.7 3 2.625 7 17.002 9 20c-.444 2.537-.59 8.787-.171 10.91.576 2.921 1.561 5.09 2.748 5.09 2 0 2.423-13.002 6.423-13V2zm0 0c5 0 6.89-3.276 10.998-1.3C33 2.625 29 17.002 27 20c.444 2.537.59 8.787.171 10.91-.575 2.921-1.561 5.09-2.748 5.09-2 0-2.423-13.002-6.423-13V2z" transform="translate(0, 0) scale(5, 8)" /><path fill="#9AAAB4" d="M18 7.259c-2.278 0-4.419-.81-5.444-1.563-.334-.245-.406-.715-.161-1.048.246-.335.714-.405 1.048-.161.84.617 2.722 1.273 4.556 1.273 1.97 0 3.942-.709 4.489-1.217.305-.282.777-.264 1.06.039.281.304.265.778-.039 1.06-.958.891-3.431 1.617-5.509 1.617z" transform="translate(0, 0) scale(5, 8)" /><g fill="#DD2E44" transform="translate(200, 0) scale(5, 8)"><path d="M13.589 26.521c-.297-.495-.284-1.117.035-1.599l4.395-6.646-5.995-5.139c-.556-.476-.686-1.283-.31-1.911l4.304-7.172c-1.669-1.301-3.755-2.09-6.035-2.09-5.45 0-9.868 4.417-9.868 9.868 0 .772.098 1.52.266 2.241C1.751 22.587 11.216 31.568 18 34.034c.025-.009.052-.022.077-.032l-4.488-7.481z" /><path d="M26.018 1.966c-2.765 0-5.248 1.151-7.037 2.983l-4.042 6.737 6.039 5.176c.574.492.691 1.335.274 1.966l-4.604 6.962 4.161 6.935c6.338-3.529 13.621-11.263 14.809-18.649.17-.721.268-1.469.268-2.241-.001-5.452-4.419-9.869-9.868-9.869z" /></g><defs transform="translate(75, 275)" /><g fill="#000000" transform="translate(75, 275)"><g transform="translate(0, 0)"><path d="M0 55.79L0 8.86L3.83 8.86L3.83 55.79L0 55.79ZM12.99 55.79L12.99 8.86L16.82 8.86L16.82 55.79L12.99 55.79Z" /></g></g><defs transform="translate(275, 275)" /><g fill="#000000" transform="translate(275, 275)"><g transform="translate(0, 0)"><path d="M0 45.26L0 40.26L5.00 40.26L5.00 45.26L0 45.26Z" /></g></g></svg>