<?xml version='1.0' encoding='utf-8'?>
<svg xmlns="http://www.w3.org/2000/svg" width="400" height="400" viewBox="0 0 400 400" version="1.1"><!--description: отдавать вещь другому --><path fill="#FDD888" d="M33 31c0 2.2-1.8 4-4 4H7c-2.2 0-4-1.8-4-4V14c0-2.2 1.8-4 4-4h22c2.2 0 4 1.8 4 4v17z" transform="translate(0, 0) scale(5, 8)" /><path fill="#FDD888" d="M36 11c0 2.2-1.8 4-4 4H4c-2.2 0-4-1.8-4-4s1.8-4 4-4h28c2.2 0 4 1.8 4 4z" transform="translate(0, 0) scale(5, 8)" /><path fill="#FCAB40" d="M3 15h30v2H3z" transform="translate(0, 0) scale(5, 8)" /><path fill="#DA2F47" d="M19 3h-2c-1.657 0-3 1.343-3 3v29h8V6c0-1.656-1.343-3-3-3z" transform="translate(0, 0) scale(5, 8)" /><path fill="#DA2F47" d="M16 7c1.1 0 1.263-.516.361-1.147L9.639 1.147c-.902-.631-2.085-.366-2.631.589L4.992 5.264C4.446 6.219 4.9 7 6 7h10zm4 0c-1.1 0-1.263-.516-.361-1.147l6.723-4.706c.901-.631 2.085-.366 2.631.589l2.016 3.527C31.554 6.219 31.1 7 30 7H20z" transform="translate(0, 0) scale(5, 8)" /><path fill="#55ACEE" d="M29 20.729v-1.963c1-1.03 2.914-2.89 3.391-5.273.142.079.055.13.213.13.758 0 1.256-.983 1.256-2.197 0-1.194-.656-2.161-1.399-2.191.143-.516.212-1.206.212-2.092 0-2.956-2.549-6.505-8.253-6.505-5.068 0-8.244 3.549-8.244 6.505 0 .858.051 1.562.142 2.107-.697.105-1.247 1.033-1.247 2.175 0 1.214.614 2.197 1.373 2.197.157 0-.069-.051.072-.13.477 2.384 2.484 4.243 3.484 5.274v1.847c-4 .492-7 2.628-7 4.765v.81c0 .812.823.812 1.634.812h18.73c.813 0 1.636 0 1.636-.812v-.81c0-2.001-3-3.997-6-4.649z" transform="translate(200, 0) scale(5, 8)" /><path fill="#269" d="M17 28.729v-1.963c1-1.03 2.914-2.89 3.391-5.273.142.079.055.13.213.13.758 0 1.256-.983 1.256-2.197 0-1.194-.656-2.161-1.399-2.191.143-.516.212-1.206.212-2.092 0-2.956-2.549-6.505-8.253-6.505-5.069 0-8.244 3.549-8.244 6.505 0 .858.051 1.562.142 2.107-.697.105-1.247 1.033-1.247 2.175 0 1.214.614 2.197 1.373 2.197.157 0-.069-.051.072-.13C4.993 23.876 7 25.735 8 26.766v1.847c-4 .492-7 2.628-7 4.765v.811C1 35 1.823 35 2.634 35h18.73c.813 0 1.636 0 1.636-.812v-.811c0-2-3-3.996-6-4.648z" transform="translate(200, 0) scale(5, 8)" /><defs transform="translate(200, 275)" /><g fill="#000000" transform="translate(200, 275)"><g transform="translate(0, 0)"><path d="M23.71 29.61L0 39.75L0 35.38L18.77 27.59L0 19.87L0 15.50L23.71 25.51L23.71 29.61Z" /></g></g></svg>