<?xml version='1.0' encoding='utf-8'?>
<svg xmlns="http://www.w3.org/2000/svg" width="400" height="400" viewBox="0 0 400 400" version="1.1"><!--description: менять место --><ellipse fill="#292F33" cx="18" cy="34.5" rx="4" ry="1.5" transform="translate(0, 0) scale(5, 8)" /><path fill="#99AAB5" d="M14.339 10.725S16.894 34.998 18.001 35c1.106.001 3.66-24.275 3.66-24.275h-7.322z" transform="translate(0, 0) scale(5, 8)" /><circle fill="#DD2E44" cx="18" cy="8" r="8" transform="translate(0, 0) scale(5, 8)" /><path fill="#3B88C3" d="M36 32c0 2.209-1.791 4-4 4H4c-2.209 0-4-1.791-4-4V4c0-2.209 1.791-4 4-4h28c2.209 0 4 1.791 4 4v28z" transform="translate(200, 0) scale(5, 8)" /><path fill="#FFF" d="M22.242 22.242l2.829 2.829c-3.905 3.905-10.237 3.904-14.143-.001-2.247-2.246-3.194-5.296-2.854-8.225l-4.037.367c-.215 3.84 1.128 7.752 4.062 10.687 5.467 5.467 14.333 5.468 19.799 0l2.828 2.828.849-9.334-9.333.849zM27.899 8.1C22.431 2.633 13.568 2.633 8.1 8.1L5.272 5.272l-.849 9.334 9.334-.849-2.829-2.829c3.906-3.905 10.236-3.905 14.142 0 2.248 2.247 3.194 5.297 2.856 8.226l4.036-.366c.216-3.841-1.128-7.753-4.063-10.688z" transform="translate(200, 0) scale(5, 8)" /><defs transform="translate(200, 275)" /><g fill="#000000" transform="translate(200, 275)"><g transform="translate(0, 0)"><path d="M23.71 29.61L0 39.75L0 35.38L18.77 27.59L0 19.87L0 15.50L23.71 25.51L23.71 29.61Z" /></g></g></svg>