<?xml version='1.0' encoding='utf-8'?>
<svg xmlns="http://www.w3.org/2000/svg" width="400" height="400" viewBox="0 0 400 400" version="1.1"><!--description: человек-женщина --><path fill="#269" d="M24 26.799v-2.566c2-1.348 4.08-3.779 4.703-6.896.186.103.206.17.413.17.991 0 1.709-1.287 1.709-2.873 0-1.562-.823-2.827-1.794-2.865.187-.674.293-1.577.293-2.735C29.324 5.168 26 .527 18.541.527c-6.629 0-10.777 4.641-10.777 8.507 0 1.123.069 2.043.188 2.755-.911.137-1.629 1.352-1.629 2.845 0 1.587.804 2.873 1.796 2.873.206 0 .025-.067.209-.17C8.952 20.453 11 22.885 13 24.232v2.414c-5 .645-12 3.437-12 6.23v1.061C1 35 2.076 35 3.137 35h29.725C33.924 35 35 35 35 33.938v-1.061c0-2.615-6-5.225-11-6.078z" transform="translate(0, 0) scale(5, 8)" /><path fill="#FFAC33" d="M18 3c6 0 16 3 16 16s0 16-3 16-7-3-13-3-9.915 3-13 3c-3.343 0-3-12-3-16C2 6 12 3 18 3z" transform="translate(200, 0) scale(5, 8)" /><path fill="#FFDC5D" d="M6 18.562c0-8.526 5.373-15.438 12-15.438s12 6.912 12 15.438S24.627 34 18 34 6 27.088 6 18.562z" transform="translate(200, 0) scale(5, 8)" /><path fill="#DF1F32" d="M18 30c-2.347 0-3.575-1.16-3.707-1.293-.391-.391-.391-1.023 0-1.414.387-.387 1.013-.39 1.404-.01.051.047.806.717 2.303.717 1.519 0 2.273-.69 2.305-.719.398-.373 1.027-.362 1.408.029.379.393.38 1.011-.006 1.397C21.575 28.84 20.347 30 18 30z" transform="translate(200, 0) scale(5, 8)" /><path fill="#C1694F" d="M19 25h-2c-.552 0-1-.447-1-1s.448-1 1-1h2c.553 0 1 .447 1 1s-.447 1-1 1z" transform="translate(200, 0) scale(5, 8)" /><path fill="#FFAC33" d="M3.064 24c-.03-.325-.064-.647-.064-1 0-5 3 .562 3-3 0-3.563 2-4 4-6l3-3s5 3 9 3 8 2 8 6 3-2 3 3c0 .355-.033.673-.058 1h1.049C34 22.523 34 20.868 34 19 34 6 24 1 18 1S2 6 2 19c0 1.158-.028 2.986.012 5h1.052z" transform="translate(200, 0) scale(5, 8)" /><path d="M13 22c-.552 0-1-.447-1-1v-2c0-.552.448-1 1-1s1 .448 1 1v2c0 .553-.448 1-1 1zm10 0c-.553 0-1-.447-1-1v-2c0-.552.447-1 1-1s1 .448 1 1v2c0 .553-.447 1-1 1z" fill="#662113" transform="translate(200, 0) scale(5, 8)" /><defs transform="translate(75, 275)" /><g fill="#000000" transform="translate(75, 275)"><g transform="translate(0, 0)"><path d="M0 34.52L0 30.10L13.50 30.10L13.50 34.52L0 34.52Z" /></g></g><defs transform="translate(275, 275)" /><g fill="#000000" transform="translate(275, 275)"><g transform="translate(0, 0)"><path d="M0 34.52L0 30.10L13.50 30.10L13.50 34.52L0 34.52Z" /></g></g></svg>