<?xml version='1.0' encoding='utf-8'?>
<svg xmlns="http://www.w3.org/2000/svg" width="400" height="400" viewBox="0 0 400 400" version="1.1"><!--description: место человека --><path fill="#269" d="M24 26.799v-2.566c2-1.348 4.08-3.779 4.703-6.896.186.103.206.17.413.17.991 0 1.709-1.287 1.709-2.873 0-1.562-.823-2.827-1.794-2.865.187-.674.293-1.577.293-2.735C29.324 5.168 26 .527 18.541.527c-6.629 0-10.777 4.641-10.777 8.507 0 1.123.069 2.043.188 2.755-.911.137-1.629 1.352-1.629 2.845 0 1.587.804 2.873 1.796 2.873.206 0 .025-.067.209-.17C8.952 20.453 11 22.885 13 24.232v2.414c-5 .645-12 3.437-12 6.23v1.061C1 35 2.076 35 3.137 35h29.725C33.924 35 35 35 35 33.938v-1.061c0-2.615-6-5.225-11-6.078z" transform="translate(0, 0) scale(5, 10)" /><path fill="#A0041E" d="M9.344 14.702h-2c-.276 0-.5-.224-.5-.5v-7c0-.276.224-.5.5-.5h2c.276 0 .5.224.5.5v7c0 .276-.224.5-.5.5z" transform="translate(200, 0) scale(5, 10)" /><path fill="#FFE8B6" d="M5 16L18 3l13 13v17H5z" transform="translate(200, 0) scale(5, 10)" /><path fill="#FFCC4D" d="M18 16h1v16h-1z" transform="translate(200, 0) scale(5, 10)" /><path fill="#66757F" d="M31 17c-.256 0-.512-.098-.707-.293L18 4.414 5.707 16.707c-.391.391-1.023.391-1.414 0s-.391-1.023 0-1.414l13-13c.391-.391 1.023-.391 1.414 0l13 13c.391.391.391 1.023 0 1.414-.195.195-.451.293-.707.293z" transform="translate(200, 0) scale(5, 10)" /><path fill="#66757F" d="M18 17c-.256 0-.512-.098-.707-.293-.391-.391-.391-1.023 0-1.414l6.5-6.5c.391-.391 1.023-.391 1.414 0s.391 1.023 0 1.414l-6.5 6.5c-.195.195-.451.293-.707.293z" transform="translate(200, 0) scale(5, 10)" /><path fill="#C1694F" d="M10 26h4v6h-4z" transform="translate(200, 0) scale(5, 10)" /><path fill="#55ACEE" d="M10 17h4v4h-4zm12.5 0h4v4h-4zm0 9h4v4h-4z" transform="translate(200, 0) scale(5, 10)" /><path fill="#5C913B" d="M33.5 33.5c0 .828-.672 1.5-1.5 1.5H4c-.828 0-1.5-.672-1.5-1.5S3.172 32 4 32h28c.828 0 1.5.672 1.5 1.5z" transform="translate(200, 0) scale(5, 10)" /></svg>