<?xml version='1.0' encoding='utf-8'?>
<svg xmlns="http://www.w3.org/2000/svg" width="400" height="400" viewBox="0 0 400 400" version="1.1"><!--description: внутреннее в теле --><path fill="#269" d="M24 26.799v-2.566c2-1.348 4.08-3.779 4.703-6.896.186.103.206.17.413.17.991 0 1.709-1.287 1.709-2.873 0-1.562-.823-2.827-1.794-2.865.187-.674.293-1.577.293-2.735C29.324 5.168 26 .527 18.541.527c-6.629 0-10.777 4.641-10.777 8.507 0 1.123.069 2.043.188 2.755-.911.137-1.629 1.352-1.629 2.845 0 1.587.804 2.873 1.796 2.873.206 0 .025-.067.209-.17C8.952 20.453 11 22.885 13 24.232v2.414c-5 .645-12 3.437-12 6.23v1.061C1 35 2.076 35 3.137 35h29.725C33.924 35 35 35 35 33.938v-1.061c0-2.615-6-5.225-11-6.078z" transform="translate(0, 0) scale(5, 10)" /><path fill="#BDDDF4" d="M35 12c0-3.866-3.134-7-7-7-1.167 0-2.265.29-3.232.794-2.082-2.827-5.425-4.669-9.205-4.669-5.132 0-9.475 3.38-10.923 8.036C1.982 9.778 0 12.155 0 15c0 2.979 2.174 5.445 5.021 5.913C5.237 24.862 8.498 28 12.5 28c2.176 0 4.13-.933 5.5-2.413C19.37 27.067 21.323 28 23.5 28c4.143 0 7.5-3.357 7.5-7.5 0-.71-.105-1.394-.289-2.045C33.23 17.396 35 14.905 35 12z" transform="translate(200, 0) scale(5, 10)" /><circle fill="#BDDDF4" cx="4" cy="31" r="3" transform="translate(200, 0) scale(5, 10)" /></svg>