<?xml version='1.0' encoding='utf-8'?>
<svg xmlns="http://www.w3.org/2000/svg" width="400" height="400" viewBox="0 0 400 400" version="1.1"><!--description: имеющий жир --><path fill="#DD2E44" d="M20.469 32.031c-.847-.703-.443-2.444-2-4-1.557-1.557-5.102-1.785-6.658-3.342-1.557-1.557-2.785-6.102-4.342-7.659-1.556-1.557-3.016-1.508-4-2-2-1-2.882-2.942-3-4 0 0 3.143-3.001 3-5-.143-1.999 2-5 2-5s1-1.001 5 5c.784 1.177 4 1 6 3s2 4.999 4 7c2 2 5 2 7 4s1.822 5.216 3 6c6 4 5 5 5 5s-4.17 3-6.999 3c-1.001 0-4.001 1-4.001 1-1 .001-2.123-1.439-4-2.999z" transform="translate(0, 0) scale(5, 8)" /><path fill="#F4ABBA" d="M34.452 31.467c-.257-.657-1.298-1.979-4.984-4.436-1.178-.784-1-4-3-6s-5-2-7-4-2-5-4-7-5.216-1.823-6-3C7.012 3.345 5.69 2.305 5.033 2.048c-.066-.026-.125-.045-.178-.057-.196.331-.413.723-.619 1.15.079.043.166.095.26.159.753.511 1.995 1.763 3.973 4.73.784 1.177 4 1 6 3s2 5 4 7 5 2 7 4 1.822 5.216 3 6c2.967 1.978 4.219 3.22 4.73 3.973.083.122.145.23.193.327.425-.238.805-.467 1.122-.667-.012-.056-.033-.123-.062-.196z" transform="translate(0, 0) scale(5, 8)" /><path fill="#FFE8B6" d="M33.199 32.004c-.511-.753-1.763-1.995-4.73-3.973-1.178-.784-1-4-3-6s-5-2-7-4-2-5-4-7-5.216-1.823-6-3c-1.978-2.967-3.22-4.219-3.973-4.73-.094-.064-.181-.117-.26-.159-.202.418-.389.866-.529 1.314.068.053.142.115.217.179.769.656 1.9 1.929 3.545 4.396 2 3 4 2 6 4s2 4 4 6 4 2 6 4 1 4 4 6c2.466 1.644 3.739 2.775 4.396 3.545.12.141.224.272.306.389.431-.206.842-.422 1.221-.634-.048-.097-.11-.205-.193-.327z" transform="translate(0, 0) scale(5, 8)" /><path fill="#EA596E" d="M31.865 32.576c-.656-.769-1.929-1.9-4.396-3.545-3-2-2-4-4-6s-4-2-6-4c-2-2.001-2-4-4-6s-4-1-6-4C5.825 6.564 4.694 5.292 3.924 4.635c-.075-.064-.149-.126-.217-.179-.134.425-.222.848-.239 1.244-.005.112-.007.224.001.331.025.353-.056.738-.2 1.131.607.651 1.329 1.562 2.2 2.869.784 1.177 4 1 6 3s2 6 4 8 5 2 7 4 2.822 5.216 4 6c1.521 1.014 2.524 1.833 3.18 2.494.102.102.185.196.27.291.751-.195 1.524-.504 2.251-.852-.081-.116-.185-.247-.305-.388z" transform="translate(0, 0) scale(5, 8)" /><path fill="#FFE8B6" d="M26.469 31.031c-1.178-.784-2-4-4-6s-5-2-7-4c-2-2.001-2-6-4-8s-5.216-1.823-6-3c-.871-1.307-1.593-2.218-2.2-2.869-.227.618-.616 1.256-1.036 1.834.614.73 1.347 1.702 2.236 3.035.784 1.177 4 1 6 3s2 5 4 7 5 2 7 4 1.822 5.216 3 6c1.277.852 2.223 1.56 2.943 2.159.426-.095.806-.159 1.058-.159.456 0 .947-.084 1.45-.214-.085-.095-.169-.189-.27-.291-.657-.661-1.66-1.481-3.181-2.495z" transform="translate(0, 0) scale(5, 8)" /><path fill="#EA596E" d="M21.469 26.031c-2-2-5-2-7-4-2-2.001-2-5-4-7s-5.216-1.823-6-3c-.889-1.333-1.622-2.305-2.236-3.035-.134.184-.269.36-.405.529-.171.214-.338.411-.495.59.054.066.104.122.161.192.559.691 1.212 1.578 1.975 2.724.784 1.177 4 1 6 3s2 5 4 7 5 2 7 4 1.822 5.216 3 6c.908.605 1.638 1.134 2.253 1.608.53-.157 1.147-.329 1.689-.45-.72-.599-1.665-1.307-2.943-2.159-1.177-.783-.999-3.999-2.999-5.999z" transform="translate(0, 0) scale(5, 8)" /><path fill="#EF9645" d="M32.218 10.913c-.81-1.187-2.172-1.967-3.718-1.967H28s-5.353-5.672-5.15-6.091C21.754 3.446 21 4.591 21 5.924c0 0-5.509-3.431-5.247-3.947C14.71 2.669 14 3.946 14 5.424v.522S8.553 4.321 8.857 3.851C7.757 4.441 7 5.588 7 6.924V8.81l-6 6.272v2.645l17.16 14.439c0 .001 13.128-22.164 14.058-21.253z" transform="translate(200, 0) scale(5, 8)" /><g fill="#FFDC5D" transform="translate(200, 0) scale(5, 8)"><path d="M4.124 18.946c1.474 0 2.738-.831 3.392-2.043.678 1.212 1.958 2.043 3.446 2.043h.076c1.153 0 2.169-.51 2.889-1.298.023-.024.073-.082.073-.082.185-.212.343-.448.481-.695.04-.072.281-.621.342-.833.052-.173.106-.344.134-.526.141.167.296.319.46.46.069.059.45.339.576.413.589.351 1.271.56 2.008.56h3.166c-.535.27-.999.614-1.424 1-1.729 1.568-2.579 4.085-2.579 7.663 0 .276.224.5.5.5s.5-.224.5-.5c0-3.962 1.01-6.427 3.24-7.663 1.175-.651 2.682-.967 4.571-.967.059 0 .526-.033.526-.033.276 0 .5-.224.5-.5s-.224-.5-.5-.5H18c-1.657 0-3-1.343-3-3s1.343-3 3-3h11c.973 0 2.288.056 3.218.967.325.318.604.736.803 1.297l1.659 5.472c.156.512.73 2.857.626 3.346 0 7.34-8.7 14.972-19.004 14.972C6.326 36 1 27.883 1 17.957v-.229c.01.01.021.016.031.026.881.882 1.799 1.192 2.845 1.192h.248z" /><path d="M3.864 5.946h.271C5.718 5.946 7 7.229 7 8.81v6.272c0 1.582-1.282 2.864-2.864 2.864h-.272C2.282 17.946 1 16.664 1 15.082V8.81c0-1.581 1.282-2.864 2.864-2.864zm10.136 9c0 .891-.396 1.683-1.014 2.233-.53.472-1.221.767-1.986.767-1.657 0-3-1.343-3-3v-9c0-.816.328-1.554.857-2.095.544-.557 1.302-.905 2.143-.905 1.657 0 3 1.343 3 3v9zm4-6c-1.201 0-2.267.541-3 1.38v-6.38c0-.758.29-1.442.753-1.97.55-.627 1.347-1.03 2.247-1.03 1.657 0 3 1.343 3 3v5h-3zm4-4.007c0-.812.326-1.545.85-2.085.544-.559 1.301-.909 2.143-.909h.014C26.66 1.946 28 3.286 28 4.939v4.007h-6V4.939z" /></g><defs transform="translate(75, 275)" /><g fill="#000000" transform="translate(75, 275)"><g transform="translate(0, 0)"><path d="M23.71 29.61L0 39.75L0 35.38L18.77 27.59L0 19.87L0 15.50L23.71 25.51L23.71 29.61Z" /></g></g><defs transform="translate(275, 275)" /><g fill="#000000" transform="translate(275, 275)"><g transform="translate(0, 0)"><path d="M0 32.30Q0 25.10 4.00 21.63Q7.35 18.75 12.16 18.75Q17.50 18.75 20.90 22.25Q24.29 25.76 24.29 31.93Q24.29 36.94 22.79 39.81Q21.29 42.68 18.42 44.26Q15.55 45.85 12.16 45.85Q6.71 45.85 3.36 42.36Q0 38.87 0 32.30M4.52 32.30Q4.52 37.28 6.69 39.76Q8.86 42.24 12.16 42.24Q15.43 42.24 17.60 39.75Q19.78 37.26 19.78 32.15Q19.78 27.34 17.59 24.87Q15.41 22.39 12.16 22.39Q8.86 22.39 6.69 24.85Q4.52 27.32 4.52 32.30Z" /></g></g></svg>