<?xml version='1.0' encoding='utf-8'?>
<svg xmlns="http://www.w3.org/2000/svg" width="400" height="400" viewBox="0 0 400 400" version="1.1"><!--description: задняя часть тела --><path fill="#269" d="M24 26.799v-2.566c2-1.348 4.08-3.779 4.703-6.896.186.103.206.17.413.17.991 0 1.709-1.287 1.709-2.873 0-1.562-.823-2.827-1.794-2.865.187-.674.293-1.577.293-2.735C29.324 5.168 26 .527 18.541.527c-6.629 0-10.777 4.641-10.777 8.507 0 1.123.069 2.043.188 2.755-.911.137-1.629 1.352-1.629 2.845 0 1.587.804 2.873 1.796 2.873.206 0 .025-.067.209-.17C8.952 20.453 11 22.885 13 24.232v2.414c-5 .645-12 3.437-12 6.23v1.061C1 35 2.076 35 3.137 35h29.725C33.924 35 35 35 35 33.938v-1.061c0-2.615-6-5.225-11-6.078z" transform="translate(0, 0) scale(5, 10)" /><path fill="#5C913B" d="M1.062 5.125s4.875-5 10-5C17.188.125 19 5.062 19 5.062s.625-4 5-4 6.938 3.125 6.938 3.125-3.562 2.125-4.625 2.562c-2.801 1.153-11.375 3.562-15.375 2.562S1.062 5.125 1.062 5.125z" transform="translate(200, 0) scale(5, 10)" /><path fill="#FF886C" d="M18 6s1.042-.896 6-.896c6.542 0 12 4.812 12 12.927 0 11.531-14.958 17.881-14.958 17.881S1 34.833 1 17.977C1 8.018 7.75 5 12 5c4.958 0 6 1 6 1z" transform="translate(200, 0) scale(5, 10)" /><path fill="#77B255" d="M1.062 5.125s4.875-5 10-5C17.188.125 19 5.062 19 5.062s-4.062 5.25-8.062 4.25-9.876-4.187-9.876-4.187z" transform="translate(200, 0) scale(5, 10)" /><path fill="#DD2E44" d="M22.999 30c-.19 0-.383-.055-.554-.168-.46-.307-.584-.927-.277-1.387C22.183 28.423 24 25.538 24 19c0-6.445-4.578-10.182-4.625-10.219-.431-.345-.501-.974-.156-1.405.346-.431.975-.501 1.406-.156C20.844 7.395 26 11.604 26 19c0 7.22-2.079 10.422-2.168 10.555-.192.289-.51.445-.833.445z" transform="translate(200, 0) scale(5, 10)" /></svg>