<?xml version='1.0' encoding='utf-8'?>
<svg xmlns="http://www.w3.org/2000/svg" width="400" height="400" viewBox="0 0 400 400" version="1.1"><!--description: свет в небе --><path fill="#FFAC33" d="M27.287 34.627c-.404 0-.806-.124-1.152-.371L18 28.422l-8.135 5.834c-.693.496-1.623.496-2.312-.008-.689-.499-.979-1.385-.721-2.194l3.034-9.792-8.062-5.681c-.685-.505-.97-1.393-.708-2.203.264-.808 1.016-1.357 1.866-1.363L12.947 13l3.179-9.549c.268-.809 1.023-1.353 1.874-1.353.851 0 1.606.545 1.875 1.353L23 13l10.036.015c.853.006 1.606.556 1.867 1.363.263.81-.022 1.698-.708 2.203l-8.062 5.681 3.034 9.792c.26.809-.033 1.695-.72 2.194-.347.254-.753.379-1.16.379z" transform="translate(0, 0) scale(5, 10)" /><path fill="#FFD983" d="M29 11.06c0 6.439-5 7.439-5 13.44 0 3.098-3.123 3.359-5.5 3.359-2.053 0-6.586-.779-6.586-3.361C11.914 18.5 7 17.5 7 11.06 7 5.029 12.285.14 18.083.14 23.883.14 29 5.029 29 11.06z" transform="translate(200, 0) scale(5, 10)" /><path fill="#CCD6DD" d="M22.167 32.5c0 .828-2.234 2.5-4.167 2.5-1.933 0-4.167-1.672-4.167-2.5 0-.828 2.233-.5 4.167-.5 1.933 0 4.167-.328 4.167.5z" transform="translate(200, 0) scale(5, 10)" /><path fill="#FFCC4D" d="M22.707 10.293c-.391-.391-1.023-.391-1.414 0L18 13.586l-3.293-3.293c-.391-.391-1.023-.391-1.414 0s-.391 1.023 0 1.414L17 15.414V26c0 .553.448 1 1 1s1-.447 1-1V15.414l3.707-3.707c.391-.391.391-1.023 0-1.414z" transform="translate(200, 0) scale(5, 10)" /><path fill="#99AAB5" d="M24 31c0 1.104-.896 2-2 2h-8c-1.104 0-2-.896-2-2v-6h12v6z" transform="translate(200, 0) scale(5, 10)" /><path fill="#CCD6DD" d="M11.999 32c-.48 0-.904-.347-.985-.836-.091-.544.277-1.06.822-1.15l12-2c.544-.098 1.06.277 1.15.822.091.544-.277 1.06-.822 1.15l-12 2c-.055.01-.111.014-.165.014zm0-4c-.48 0-.904-.347-.985-.836-.091-.544.277-1.06.822-1.15l12-2c.544-.097 1.06.277 1.15.822.091.544-.277 1.06-.822 1.15l-12 2c-.055.01-.111.014-.165.014z" transform="translate(200, 0) scale(5, 10)" /></svg>