<?xml version='1.0' encoding='utf-8'?>
<svg xmlns="http://www.w3.org/2000/svg" width="400" height="400" viewBox="0 0 400 400" version="1.1"><!--description: волна в воздухе --><path fill="#BDDDF4" d="M36 15c0-4.155-3.169-7.568-7.221-7.96C27.884 3.013 24.297 0 20 0c-4.971 0-9 3.56-9 8.531 0 1.156.25 2.906 1.121 3.785C8.859 12.5 4.094 12.6 0 12.015c0 0 4.816 3.831 15.357 3.985-.151.313-.254 1.43-.306 1.786-.249.003-.595.009-1.051.009C6 17.795 0 17 0 17s3 3.234 15.406 4.106C15 21.234 15 23 15 23c-8 0-15-1-15-1 3.362 2.802 6.724 4.033 9.03 4.574-.011.142-.03.281-.03.426 0 3.313 2.686 5 6 5 .487 0 .958-.064 1.412-.174C18.009 34.333 20.807 36 24 36c4.971 0 9-4.029 9-9 0-1.788-.527-3.449-1.427-4.851C34.195 20.837 36 18.132 36 15z" transform="translate(0, 0) scale(5, 8)" /><path fill="#269" d="M33.398 23.678c-7.562 4.875-20.062-.438-18.375-8.062 1.479-6.684 9.419-4.763 11.225-3.861 1.806.902.713-3.889-3.475-5.327C17.1 4.48 10.156 4.893 7.961 14.678c-1.5 6.687 1.438 16.062 12.719 16.187 11.281.125 12.718-7.187 12.718-7.187z" transform="translate(200, 0) scale(5, 8)" /><path fill="#55ACEE" d="M35.988 25.193c0-2.146-2.754-2.334-4-1.119-2.994 2.919-7.402 4.012-13.298 2.861-10.25-2-10.341-14.014-3.333-17.441 3.791-1.854 8.289.341 9.999 1.655 1.488 1.143 4.334 2.66 4.185.752C29.223 7.839 21.262-.86 10.595 4.64-.071 10.14 0 22.553 0 24.803v7.25C0 34.262 1.814 36 4.023 36h28C34.232 36 36 34.262 36 32.053c0 0-.004-6.854-.012-6.86z" transform="translate(200, 0) scale(5, 8)" /><defs transform="translate(75, 275)" /><g fill="#000000" transform="translate(75, 275)"><g transform="translate(0, 0)"><path d="M0 55.79L0 8.86L3.83 8.86L3.83 55.79L0 55.79ZM12.99 55.79L12.99 8.86L16.82 8.86L16.82 55.79L12.99 55.79Z" /></g></g><defs transform="translate(275, 275)" /><g fill="#000000" transform="translate(275, 275)"><g transform="translate(0, 0)"><path d="M0 34.52L0 30.10L13.50 30.10L13.50 34.52L0 34.52Z" /></g></g></svg>