<?xml version='1.0' encoding='utf-8'?>
<svg xmlns="http://www.w3.org/2000/svg" width="400" height="400" viewBox="0 0 400 400" version="1.1"><!--description: не добро --><path fill="#FFDB5E" d="M34.956 17.916c0-.503-.12-.975-.321-1.404-1.341-4.326-7.619-4.01-16.549-4.221-1.493-.035-.639-1.798-.115-5.668.341-2.517-1.282-6.382-4.01-6.382-4.498 0-.171 3.548-4.148 12.322-2.125 4.688-6.875 2.062-6.875 6.771v10.719c0 1.833.18 3.595 2.758 3.885C8.195 34.219 7.633 36 11.238 36h18.044c1.838 0 3.333-1.496 3.333-3.334 0-.762-.267-1.456-.698-2.018 1.02-.571 1.72-1.649 1.72-2.899 0-.76-.266-1.454-.696-2.015 1.023-.57 1.725-1.649 1.725-2.901 0-.909-.368-1.733-.961-2.336.757-.611 1.251-1.535 1.251-2.581z" transform="translate(0, 0) scale(5, 8)" /><path fill="#EE9547" d="M23.02 21.249h8.604c1.17 0 2.268-.626 2.866-1.633.246-.415.109-.952-.307-1.199-.415-.247-.952-.108-1.199.307-.283.479-.806.775-1.361.775h-8.81c-.873 0-1.583-.71-1.583-1.583s.71-1.583 1.583-1.583H28.7c.483 0 .875-.392.875-.875s-.392-.875-.875-.875h-5.888c-1.838 0-3.333 1.495-3.333 3.333 0 1.025.475 1.932 1.205 2.544-.615.605-.998 1.445-.998 2.373 0 1.028.478 1.938 1.212 2.549-.611.604-.99 1.441-.99 2.367 0 1.12.559 2.108 1.409 2.713-.524.589-.852 1.356-.852 2.204 0 1.838 1.495 3.333 3.333 3.333h5.484c1.17 0 2.269-.625 2.867-1.632.247-.415.11-.952-.305-1.199-.416-.245-.953-.11-1.199.305-.285.479-.808.776-1.363.776h-5.484c-.873 0-1.583-.71-1.583-1.583s.71-1.583 1.583-1.583h6.506c1.17 0 2.27-.626 2.867-1.633.247-.416.11-.953-.305-1.199-.419-.251-.954-.11-1.199.305-.289.487-.799.777-1.363.777h-7.063c-.873 0-1.583-.711-1.583-1.584s.71-1.583 1.583-1.583h8.091c1.17 0 2.269-.625 2.867-1.632.247-.415.11-.952-.305-1.199-.417-.246-.953-.11-1.199.305-.289.486-.799.776-1.363.776H23.02c-.873 0-1.583-.71-1.583-1.583s.709-1.584 1.583-1.584z" transform="translate(0, 0) scale(5, 8)" /><path fill="#DD2E44" d="M21.533 18.002L33.768 5.768c.976-.976.976-2.559 0-3.535-.977-.977-2.559-.977-3.535 0L17.998 14.467 5.764 2.233c-.976-.977-2.56-.977-3.535 0-.977.976-.977 2.559 0 3.535l12.234 12.234L2.201 30.265c-.977.977-.977 2.559 0 3.535.488.488 1.128.732 1.768.732s1.28-.244 1.768-.732l12.262-12.263 12.234 12.234c.488.488 1.128.732 1.768.732.64 0 1.279-.244 1.768-.732.976-.977.976-2.559 0-3.535L21.533 18.002z" transform="translate(200, 0) scale(5, 8)" /><defs transform="translate(75, 275)" /><g fill="#000000" transform="translate(75, 275)"><g transform="translate(0, 0)"><path d="M0 45.26L9.47 31.79L0.71 19.34L6.20 19.34L10.18 25.42Q11.30 27.15 11.99 28.32Q13.06 26.71 13.96 25.46L18.33 19.34L23.58 19.34L14.62 31.54L24.27 45.26L18.87 45.26L13.55 37.21L12.13 35.03L5.32 45.26L0 45.26Z" /></g></g><defs transform="translate(275, 275)" /><g fill="#000000" transform="translate(275, 275)"><g transform="translate(0, 0)"><path d="M0 34.52L0 30.10L13.50 30.10L13.50 34.52L0 34.52Z" /></g></g></svg>