<?xml version='1.0' encoding='utf-8'?>
<svg xmlns="http://www.w3.org/2000/svg" width="400" height="400" viewBox="0 0 400 400" version="1.1"><!--description: веселое действие --><path fill="#31373D" d="M2.13 14.856l-.004-.002S.075 27.271.075 29.061c0 1.824 1.343 3.302 3 3.302.68 0 1.3-.258 1.803-.678l10.166-8.938L2.13 14.856zm31.69 0l.004-.002s2.051 12.417 2.051 14.207c0 1.824-1.343 3.302-3 3.302-.68 0-1.3-.258-1.803-.678l-10.166-8.938 12.914-7.891z" transform="translate(0, 0) scale(5, 8)" /><g fill="#14171A" transform="translate(0, 0) scale(5, 8)"><circle cx="25.975" cy="15.551" r="8.5" /><circle cx="9.975" cy="15.551" r="8.5" /><path d="M9.975 7.051h16v16.87h-16z" /></g><circle fill="#14171A" cx="13.075" cy="23.301" r="5" transform="translate(0, 0) scale(5, 8)" /><circle fill="#14171A" cx="22.875" cy="23.301" r="5" transform="translate(0, 0) scale(5, 8)" /><circle fill="#67757F" cx="22.875" cy="23.301" r="3" transform="translate(0, 0) scale(5, 8)" /><circle fill="#67757F" cx="13.075" cy="23.301" r="3" transform="translate(0, 0) scale(5, 8)" /><circle fill="#FFCC4D" cx="25.735" cy="11.133" r="1.603" transform="translate(0, 0) scale(5, 8)" /><circle fill="#77B255" cx="25.735" cy="17.607" r="1.603" transform="translate(0, 0) scale(5, 8)" /><circle fill="#50A5E6" cx="22.498" cy="14.37" r="1.603" transform="translate(0, 0) scale(5, 8)" /><circle fill="#DD2E44" cx="28.972" cy="14.37" r="1.603" transform="translate(0, 0) scale(5, 8)" /><path d="M11.148 12.514v-2.168c0-.279-.226-.505-.505-.505H9.085c-.279 0-.505.226-.505.505v2.168l1.284 1.285 1.284-1.285zm-2.569 3.63v2.168c0 .279.226.505.505.505h1.558c.279 0 .505-.226.505-.505v-2.168l-1.284-1.285-1.284 1.285zm5.269-3.1H11.68l-1.285 1.285 1.285 1.285h2.168c.279 0 .505-.227.505-.505V13.55c0-.279-.226-.506-.505-.506zm-5.799 0H5.88c-.279 0-.505.227-.505.505v1.558c0 .279.226.505.505.505h2.168l1.285-1.285-1.284-1.283z" fill="#8899A6" transform="translate(0, 0) scale(5, 8)" /><path fill="#FFCC4D" d="M36 18c0 9.941-8.059 18-18 18S0 27.941 0 18 8.059 0 18 0s18 8.059 18 18" transform="translate(200, 0) scale(5, 8)" /><circle fill="#FF7892" cx="7" cy="18" r="5" transform="translate(200, 0) scale(5, 8)" /><circle fill="#FF7892" cx="29" cy="18" r="5" transform="translate(200, 0) scale(5, 8)" /><path fill="#664500" d="M27.335 21.629c-.178-.161-.444-.171-.635-.029-.039.029-3.922 2.9-8.7 2.9-4.766 0-8.662-2.871-8.7-2.9-.191-.142-.457-.13-.635.029-.177.16-.217.424-.094.628C8.7 22.472 11.788 27.5 18 27.5s9.301-5.028 9.429-5.243c.123-.205.084-.468-.094-.628zM7.999 15c-.15 0-.303-.034-.446-.106-.494-.247-.694-.848-.447-1.342C7.158 13.448 8.424 11 12 11c3.577 0 4.842 2.449 4.894 2.553.247.494.047 1.095-.447 1.342-.492.245-1.085.049-1.336-.436C15.068 14.379 14.281 13 12 13c-2.317 0-3.099 1.433-3.106 1.447-.175.351-.528.553-.895.553zm20.002 0c-.367 0-.72-.202-.896-.553C27.08 14.401 26.299 13 24 13s-3.08 1.401-3.112 1.46c-.26.481-.859.67-1.345.42-.485-.252-.682-.839-.438-1.328C19.157 13.449 20.423 11 24 11s4.843 2.449 4.895 2.553c.247.494.047 1.095-.447 1.342-.144.071-.297.105-.447.105z" transform="translate(200, 0) scale(5, 8)" /><defs transform="translate(75, 275)" /><g fill="#000000" transform="translate(75, 275)"><g transform="translate(0, 0)"><path d="M0 34.52L0 30.10L13.50 30.10L13.50 34.52L0 34.52Z" /></g></g><defs transform="translate(275, 275)" /><g fill="#000000" transform="translate(275, 275)"><g transform="translate(0, 0)"><path d="M0 34.52L0 30.10L13.50 30.10L13.50 34.52L0 34.52Z" /></g></g></svg>