<?xml version='1.0' encoding='utf-8'?>
<svg xmlns="http://www.w3.org/2000/svg" width="400" height="400" viewBox="0 0 400 400" version="1.1"><!--description: сборник имен --><path fill="#DD2E44" d="M28.303 2.576c-.449-.317-1.017-.173-1.263.319l-2.595 5.21c-.245.492-.695.521-1.001.064L18.556.86c-.306-.457-.806-.457-1.112 0l-4.888 7.308c-.306.457-.757.428-1.002-.064L8.96 2.895c-.245-.492-.813-.636-1.263-.319C7.697 2.576 0 8 0 20c0 7.732 8.059 16 18 16s18-8.268 18-16c0-12-7.697-17.424-7.697-17.424z" transform="translate(0, 0) scale(5, 10)" /><path fill="#F5F8FA" d="M32 23c0 1.104-.896 2-2 2H6c-1.104 0-2-.896-2-2v-7c0-1.104.896-2 2-2h24c1.104 0 2 .896 2 2v7z" transform="translate(0, 0) scale(5, 10)" /><path fill="#553788" d="M15 31c0 2.209-.791 4-3 4H5c-4 0-4-14 0-14h7c2.209 0 3 1.791 3 4v6z" transform="translate(200, 0) scale(5, 10)" /><path fill="#9266CC" d="M34 33h-1V23h1c.553 0 1-.447 1-1s-.447-1-1-1H10c-4 0-4 14 0 14h24c.553 0 1-.447 1-1s-.447-1-1-1z" transform="translate(200, 0) scale(5, 10)" /><path fill="#CCD6DD" d="M34.172 33H11c-2 0-2-10 0-10h23.172c1.104 0 1.104 10 0 10z" transform="translate(200, 0) scale(5, 10)" /><path fill="#99AAB5" d="M11.5 25h23.35c-.135-1.175-.36-2-.678-2H11c-1.651 0-1.938 6.808-.863 9.188C9.745 29.229 10.199 25 11.5 25z" transform="translate(200, 0) scale(5, 10)" /><path fill="#269" d="M12 8c0 2.209-1.791 4-4 4H4C0 12 0 1 4 1h4c2.209 0 4 1.791 4 4v3z" transform="translate(200, 0) scale(5, 10)" /><path fill="#55ACEE" d="M31 10h-1V3h1c.553 0 1-.447 1-1s-.447-1-1-1H7C3 1 3 12 7 12h24c.553 0 1-.447 1-1s-.447-1-1-1z" transform="translate(200, 0) scale(5, 10)" /><path fill="#CCD6DD" d="M31.172 10H8c-2 0-2-7 0-7h23.172c1.104 0 1.104 7 0 7z" transform="translate(200, 0) scale(5, 10)" /><path fill="#99AAB5" d="M8 5h23.925c-.114-1.125-.364-2-.753-2H8C6.807 3 6.331 5.489 6.562 7.5 6.718 6.142 7.193 5 8 5z" transform="translate(200, 0) scale(5, 10)" /><path fill="#F4900C" d="M20 17c0 2.209-1.791 4-4 4H6c-4 0-4-9 0-9h10c2.209 0 4 1.791 4 4v1z" transform="translate(200, 0) scale(5, 10)" /><path fill="#FFAC33" d="M35 19h-1v-5h1c.553 0 1-.447 1-1s-.447-1-1-1H15c-4 0-4 9 0 9h20c.553 0 1-.447 1-1s-.447-1-1-1z" transform="translate(200, 0) scale(5, 10)" /><path fill="#CCD6DD" d="M35.172 19H16c-2 0-2-5 0-5h19.172c1.104 0 1.104 5 0 5z" transform="translate(200, 0) scale(5, 10)" /><path fill="#99AAB5" d="M16 16h19.984c-.065-1.062-.334-2-.812-2H16c-1.274 0-1.733 2.027-1.383 3.5.198-.839.657-1.5 1.383-1.5z" transform="translate(200, 0) scale(5, 10)" /></svg>