<?xml version='1.0' encoding='utf-8'?>
<svg xmlns="http://www.w3.org/2000/svg" width="400" height="400" viewBox="0 0 400 400" version="1.1"><!--description: давать имя --><path fill="#DD2E44" d="M28.303 2.576c-.449-.317-1.017-.173-1.263.319l-2.595 5.21c-.245.492-.695.521-1.001.064L18.556.86c-.306-.457-.806-.457-1.112 0l-4.888 7.308c-.306.457-.757.428-1.002-.064L8.96 2.895c-.245-.492-.813-.636-1.263-.319C7.697 2.576 0 8 0 20c0 7.732 8.059 16 18 16s18-8.268 18-16c0-12-7.697-17.424-7.697-17.424z" transform="translate(0, 0) scale(5, 8)" /><path fill="#F5F8FA" d="M32 23c0 1.104-.896 2-2 2H6c-1.104 0-2-.896-2-2v-7c0-1.104.896-2 2-2h24c1.104 0 2 .896 2 2v7z" transform="translate(0, 0) scale(5, 8)" /><path fill="#FDD888" d="M33 31c0 2.2-1.8 4-4 4H7c-2.2 0-4-1.8-4-4V14c0-2.2 1.8-4 4-4h22c2.2 0 4 1.8 4 4v17z" transform="translate(200, 0) scale(5, 8)" /><path fill="#FDD888" d="M36 11c0 2.2-1.8 4-4 4H4c-2.2 0-4-1.8-4-4s1.8-4 4-4h28c2.2 0 4 1.8 4 4z" transform="translate(200, 0) scale(5, 8)" /><path fill="#FCAB40" d="M3 15h30v2H3z" transform="translate(200, 0) scale(5, 8)" /><path fill="#DA2F47" d="M19 3h-2c-1.657 0-3 1.343-3 3v29h8V6c0-1.656-1.343-3-3-3z" transform="translate(200, 0) scale(5, 8)" /><path fill="#DA2F47" d="M16 7c1.1 0 1.263-.516.361-1.147L9.639 1.147c-.902-.631-2.085-.366-2.631.589L4.992 5.264C4.446 6.219 4.9 7 6 7h10zm4 0c-1.1 0-1.263-.516-.361-1.147l6.723-4.706c.901-.631 2.085-.366 2.631.589l2.016 3.527C31.554 6.219 31.1 7 30 7H20z" transform="translate(200, 0) scale(5, 8)" /><defs transform="translate(200, 275)" /><g fill="#000000" transform="translate(200, 275)"><g transform="translate(0, 0)"><path d="M23.71 29.61L0 39.75L0 35.38L18.77 27.59L0 19.87L0 15.50L23.71 25.51L23.71 29.61Z" /></g></g></svg>