<?xml version='1.0' encoding='utf-8'?>
<svg xmlns="http://www.w3.org/2000/svg" width="400" height="400" viewBox="0 0 400 400" version="1.1"><!--description: иметь вещь при себе --><path fill="#662113" d="M4 11v12.375c0 2.042 1.093 2.484 1.093 2.484l11.574 9.099C18.489 36.39 18 33.375 18 33.375V22L4 11z" transform="translate(0, 0) scale(5, 8)" /><path fill="#C1694F" d="M32 11v12.375c0 2.042-1.063 2.484-1.063 2.484s-9.767 7.667-11.588 9.099C17.526 36.39 18 33.375 18 33.375V22l14-11z" transform="translate(0, 0) scale(5, 8)" /><path fill="#D99E82" d="M19.289.5c-.753-.61-1.988-.61-2.742 0L4.565 10.029c-.754.61-.754 1.607 0 2.216l12.023 9.646c.754.609 1.989.609 2.743 0l12.104-9.73c.754-.609.754-1.606 0-2.216L19.289.5z" transform="translate(0, 0) scale(5, 8)" /><path fill="#D99E82" d="M18 35.75c-.552 0-1-.482-1-1.078V21.745c0-.596.448-1.078 1-1.078.553 0 1 .482 1 1.078v12.927c0 .596-.447 1.078-1 1.078z" transform="translate(0, 0) scale(5, 8)" /><path fill="#99AAB5" d="M28 18.836c0 1.104.104 1.646-1 2.442l-2.469 1.878c-1.104.797-1.531.113-1.531-.992v-2.961c0-.193-.026-.4-.278-.608C20.144 16.47 10.134 8.519 8.31 7.051l4.625-3.678c1.266.926 10.753 8.252 14.722 11.377.197.156.343.328.343.516v3.57z" transform="translate(0, 0) scale(5, 8)" /><path fill="#CCD6DD" d="M27.656 14.75C23.688 11.625 14.201 4.299 12.935 3.373l-1.721 1.368-2.904 2.31c1.825 1.468 11.834 9.419 14.412 11.544.151.125.217.25.248.371L27.903 15c-.06-.087-.146-.171-.247-.25z" transform="translate(0, 0) scale(5, 8)" /><path fill="#CCD6DD" d="M28 18.836v-3.57c0-.188-.146-.359-.344-.516-3.968-3.125-13.455-10.451-14.721-11.377l-2.073 1.649c3.393 2.669 12.481 9.681 14.86 11.573.256.204.278.415.278.608v4.836l1-.761c1.104-.797 1-1.338 1-2.442z" transform="translate(0, 0) scale(5, 8)" /><path fill="#E1E8ED" d="M27.656 14.75C23.688 11.625 14.201 4.299 12.935 3.373l-2.073 1.649c3.393 2.669 12.481 9.681 14.86 11.573.037.029.06.059.087.088L27.903 15c-.06-.087-.146-.171-.247-.25z" transform="translate(0, 0) scale(5, 8)" /><path fill="#EF9645" d="M13.375 16.539l.009.061-3.782-8.114c-.286-.611-1.148-.814-1.925-.451l-.061.028c-.68.317-1.071.963-.964 1.53 0 0-1.275-1.147-2.024-.797l-.06.027c-.749.35-1.123 1.136-.833 1.757l.533 1.192c-.301-.644-1.19-.866-1.985-.494l-.062.029c-.795.371-1.197 1.194-.896 1.838l5.131 13.15 6.794.212 2.031-6.25-1.906-3.718zm20.478-5.231l-.062-.029c-.796-.372-1.685-.15-1.985.494l.533-1.192c.29-.621-.084-1.408-.832-1.757l-.06-.027c-.749-.35-1.591-.129-1.882.492l-.143.306c.107-.567-.283-1.213-.964-1.53l-.062-.028c-.777-.363-1.639-.16-1.924.452l-3.771 8.088-.033-.114-2.021 4.52L24 27.375l6.195-4.463 4.554-9.766c.301-.644-.102-1.467-.896-1.838z" transform="translate(200, 0) scale(5, 8)" /><path fill="#FFDC5D" d="M35.809 15.672s.653-1.043-.454-1.558c-1.106-.515-1.482.657-1.482.657l-2.39 5.142c-.141-.164-.705-.516-.866-.671l3.315-7.136s.653-1.043-.455-1.558c-1.107-.514-1.483.657-1.483.657l-3.118 6.711c-.175-.099-.63-.327-.812-.423l3.616-7.781s.652-1.043-.455-1.558c-1.106-.515-1.482.657-1.482.657l-3.618 7.78c-.193-.078-.797-.335-.988-.404l3.38-7.272s.651-1.043-.455-1.558c-1.108-.515-1.483.657-1.483.657l-3.574 7.689-.286.617-.128.276c3.323 1.544 4.486 5.616 3.2 8.384-.258.554-1.177.3-1.177.3 1.544-3.321.358-6.566-2.964-8.109l.144-4.545s.134-1.213-1.079-1.348c-1.215-.134-1.349 1.08-1.349 1.08l-.509 3.183c-.203 1.262-.431 2.525-.81 3.746-1.066 3.447.551 7.238 3.915 8.803 3.669 1.705 8.027.112 9.732-3.556l.257-.556 3.858-8.306z" transform="translate(200, 0) scale(5, 8)" /><path fill="#FFDC5D" d="M.192 15.672s-.654-1.043.453-1.558c1.107-.515 1.482.657 1.482.657l2.39 5.142c.141-.164.705-.516.866-.671l-3.315-7.136s-.654-1.043.455-1.558c1.105-.514 1.482.657 1.482.657l3.119 6.711c.175-.099.63-.327.812-.423l-3.615-7.78s-.653-1.043.455-1.558c1.107-.515 1.483.657 1.483.657l3.618 7.78c.193-.078.797-.335.988-.404l-3.38-7.272s-.651-1.043.455-1.558c1.107-.515 1.483.657 1.483.657l3.574 7.689.286.617.128.276c-3.323 1.544-4.486 5.616-3.2 8.384.258.554 1.177.3 1.177.3-1.544-3.321-.358-6.566 2.963-8.109l-.143-4.545s-.134-1.213 1.078-1.348c1.215-.134 1.35 1.08 1.35 1.08l.508 3.183c.203 1.262.432 2.525.811 3.746 1.067 3.447-.552 7.238-3.916 8.803-3.669 1.705-8.027.112-9.732-3.556l-.256-.556-3.859-8.307z" transform="translate(200, 0) scale(5, 8)" /><defs transform="translate(75, 275)" /><g fill="#000000" transform="translate(75, 275)"><g transform="translate(0, 0)"><path d="M0 29.61L0 25.51L23.71 15.50L23.71 19.87L4.91 27.59L23.71 35.38L23.71 39.75L0 29.61Z" /></g></g><defs transform="translate(275, 275)" /><g fill="#000000" transform="translate(275, 275)"><g transform="translate(0, 0)"><path d="M0 45.26L0 40.26L5.00 40.26L5.00 45.26L0 45.26Z" /></g></g></svg>