<?xml version='1.0' encoding='utf-8'?>
<svg xmlns="http://www.w3.org/2000/svg" width="400" height="400" viewBox="0 0 400 400" version="1.1"><!--description: научный поиск --><g fill="#66757F" transform="translate(0, 0) scale(5, 8)"><path d="M19.78 21.345l-6.341-6.342-.389 4.38 2.35 2.351z" /><path d="M15.4 22.233c-.132 0-.259-.053-.354-.146l-2.351-2.351c-.104-.104-.158-.25-.145-.397l.389-4.38c.017-.193.145-.359.327-.425.182-.067.388-.021.524.116l6.341 6.342c.138.138.183.342.116.524s-.232.31-.426.327l-4.379.389-.042.001zm-1.832-3.039l2.021 2.021 3.081-.273-4.828-4.828-.274 3.08z" /></g><path fill="#8899A6" d="M31 32h-3c0-3.314-2.63-6-5.875-6-3.244 0-5.875 2.686-5.875 6H8.73c0-1.104-.895-2-2-2-1.104 0-2 .896-2 2-1.104 0-2 .896-2 2s.896 2 2 2H31c1.104 0 2-.896 2-2s-.896-2-2-2z" transform="translate(0, 0) scale(5, 8)" /><path fill="#8899A6" d="M20 10v4c3.866 0 7 3.134 7 7s-3.134 7-7 7h-8.485c2.018 2.443 5.069 4 8.485 4 6.075 0 11-4.925 11-11s-4.925-11-11-11z" transform="translate(0, 0) scale(5, 8)" /><path fill="#67757F" d="M16.414 30.414c-.781.781-2.047.781-2.828 0l-9.899-9.9c-.781-.781-.781-2.047 0-2.828.781-.781 2.047-.781 2.829 0l9.899 9.9c.78.781.78 2.047-.001 2.828zm-7.225-1.786c.547-.077 1.052.304 1.129.851.077.547-.305 1.053-.851 1.129l-5.942.834c-.547.077-1.052-.305-1.129-.851-.077-.547.305-1.053.852-1.13l5.941-.833z" transform="translate(0, 0) scale(5, 8)" /><path fill="#66757F" d="M27.341 2.98l4.461 4.461-3.806 3.807-4.461-4.461z" transform="translate(0, 0) scale(5, 8)" /><path fill="#AAB8C2" d="M34.037 7.083c-.827.827-2.17.827-2.997 0l-3.339-3.34c-.827-.826-.827-2.169 0-2.996.827-.826 2.17-.826 2.995 0l3.342 3.34c.826.827.826 2.168-.001 2.996zm-14.56 15.026l-6.802-6.803c-.389-.389-.389-1.025 0-1.414l9.858-9.858c.389-.389 1.025-.389 1.414 0l6.801 6.803c.389.389.389 1.025 0 1.414l-9.858 9.858c-.388.389-1.024.389-1.413 0z" transform="translate(0, 0) scale(5, 8)" /><path fill="#E1E8ED" d="M13.766 12.8l1.638-1.637 8.216 8.216-1.638 1.637z" transform="translate(0, 0) scale(5, 8)" /><path fill="#CCD6DD" d="M31 2H5C3.343 2 2 3.343 2 5v26c0 1.657 1.343 3 3 3h26c1.657 0 3-1.343 3-3V5c0-1.657-1.343-3-3-3z" transform="translate(200, 0) scale(5, 8)" /><path fill="#E1E8ED" d="M31 1H5C2.791 1 1 2.791 1 5v26c0 2.209 1.791 4 4 4h26c2.209 0 4-1.791 4-4V5c0-2.209-1.791-4-4-4zm0 2c1.103 0 2 .897 2 2v4h-6V3h4zm-4 16h6v6h-6v-6zm0-2v-6h6v6h-6zM25 3v6h-6V3h6zm-6 8h6v6h-6v-6zm0 8h6v6h-6v-6zM17 3v6h-6V3h6zm-6 8h6v6h-6v-6zm0 8h6v6h-6v-6zM3 5c0-1.103.897-2 2-2h4v6H3V5zm0 6h6v6H3v-6zm0 8h6v6H3v-6zm2 14c-1.103 0-2-.897-2-2v-4h6v6H5zm6 0v-6h6v6h-6zm8 0v-6h6v6h-6zm12 0h-4v-6h6v4c0 1.103-.897 2-2 2z" transform="translate(200, 0) scale(5, 8)" /><path fill="#5C913B" d="M13 33H7V16c0-1.104.896-2 2-2h2c1.104 0 2 .896 2 2v17z" transform="translate(200, 0) scale(5, 8)" /><path fill="#3B94D9" d="M29 33h-6V9c0-1.104.896-2 2-2h2c1.104 0 2 .896 2 2v24z" transform="translate(200, 0) scale(5, 8)" /><path fill="#DD2E44" d="M21 33h-6V23c0-1.104.896-2 2-2h2c1.104 0 2 .896 2 2v10z" transform="translate(200, 0) scale(5, 8)" /><defs transform="translate(75, 275)" /><g fill="#000000" transform="translate(75, 275)"><g transform="translate(0, 0)"><path d="M0 34.52L0 30.10L13.50 30.10L13.50 34.52L0 34.52Z" /></g></g><defs transform="translate(275, 275)" /><g fill="#000000" transform="translate(275, 275)"><g transform="translate(0, 0)"><path d="M0 34.52L0 30.10L13.50 30.10L13.50 34.52L0 34.52Z" /></g></g></svg>