<?xml version='1.0' encoding='utf-8'?>
<svg xmlns="http://www.w3.org/2000/svg" width="400" height="400" viewBox="0 0 400 400" version="1.1"><!--description: человек, который ищет --><path fill="#9AAAB4" d="M27.388 24.642L24.56 27.47l-4.95-4.95 2.828-2.828z" transform="translate(0, 0) scale(5, 8)" /><path fill="#66757F" d="M34.683 29.11l-5.879-5.879c-.781-.781-2.047-.781-2.828 0l-2.828 2.828c-.781.781-.781 2.047 0 2.828l5.879 5.879c1.562 1.563 4.096 1.563 5.658 0 1.56-1.561 1.559-4.094-.002-5.656z" transform="translate(0, 0) scale(5, 8)" /><circle fill="#8899A6" cx="13.586" cy="13.669" r="13.5" transform="translate(0, 0) scale(5, 8)" /><circle fill="#BBDDF5" cx="13.586" cy="13.669" r="9.5" transform="translate(0, 0) scale(5, 8)" /><path fill="#269" d="M24 26.799v-2.566c2-1.348 4.08-3.779 4.703-6.896.186.103.206.17.413.17.991 0 1.709-1.287 1.709-2.873 0-1.562-.823-2.827-1.794-2.865.187-.674.293-1.577.293-2.735C29.324 5.168 26 .527 18.541.527c-6.629 0-10.777 4.641-10.777 8.507 0 1.123.069 2.043.188 2.755-.911.137-1.629 1.352-1.629 2.845 0 1.587.804 2.873 1.796 2.873.206 0 .025-.067.209-.17C8.952 20.453 11 22.885 13 24.232v2.414c-5 .645-12 3.437-12 6.23v1.061C1 35 2.076 35 3.137 35h29.725C33.924 35 35 35 35 33.938v-1.061c0-2.615-6-5.225-11-6.078z" transform="translate(200, 0) scale(5, 8)" /><defs transform="translate(75, 275)" /><g fill="#000000" transform="translate(75, 275)"><g transform="translate(0, 0)"><path d="M0 55.79L0 8.86L3.83 8.86L3.83 55.79L0 55.79ZM12.99 55.79L12.99 8.86L16.82 8.86L16.82 55.79L12.99 55.79Z" /></g></g><defs transform="translate(275, 275)" /><g fill="#000000" transform="translate(275, 275)"><g transform="translate(0, 0)"><path d="M0 34.52L0 30.10L13.50 30.10L13.50 34.52L0 34.52Z" /></g></g></svg>