<?xml version='1.0' encoding='utf-8'?>
<svg xmlns="http://www.w3.org/2000/svg" width="400" height="400" viewBox="0 0 400 400" version="1.1"><!--description: место для питья --><path fill="#FFAC33" d="M31 5.718h-6v4h4s2 0 2 2v12c0 2-2 2-2 2h-4v4h6c2.206 0 4-1.794 4-4v-16c0-2.206-1.794-4-4-4z" transform="translate(0, 0) scale(5, 8)" /><path fill="#FFCC4D" d="M27 6H3v26c0 2.209 1.791 4 4 4h16c2.209 0 4-1.791 4-4V6z" transform="translate(0, 0) scale(5, 8)" /><path fill="#F4900C" d="M8.5 32c-.552 0-1-.447-1-1V15c0-.552.448-1 1-1s1 .448 1 1v16c0 .553-.448 1-1 1zm6.5 0c-.552 0-1-.447-1-1V15c0-.552.448-1 1-1s1 .448 1 1v16c0 .553-.448 1-1 1zm6.5 0c-.553 0-1-.447-1-1V15c0-.552.447-1 1-1s1 .448 1 1v16c0 .553-.447 1-1 1z" transform="translate(0, 0) scale(5, 8)" /><path fill="#FFAC33" d="M3 5v7.445c.59.344 1.268.555 2 .555 1.674 0 3.104-1.031 3.701-2.491.35.302.801.491 1.299.491.677 0 1.273-.338 1.635-.853C12.345 11.258 13.583 12 15 12c1.301 0 2.445-.631 3.176-1.593C18.54 11.338 19.44 12 20.5 12c.949 0 1.765-.535 2.188-1.314l.147-.361c.497.271 1.059.439 1.665.439.981 0 1.865-.406 2.5-1.056V5H3z" transform="translate(0, 0) scale(5, 8)" /><path fill="#EEE" d="M24 0H4C2.343 0 1 1.343 1 3v4c0 2.209 1.791 4 4 4 1.674 0 3.104-1.031 3.701-2.491.35.302.801.491 1.299.491.677 0 1.273-.338 1.635-.853C12.345 9.258 13.583 10 15 10c1.301 0 2.445-.631 3.176-1.593C18.54 9.338 19.44 10 20.5 10c.949 0 1.765-.535 2.188-1.314.398.195.839.314 1.312.314 1.657 0 3-1.343 3-3V3c0-1.657-1.343-3-3-3z" transform="translate(0, 0) scale(5, 8)" /><path fill="#A0041E" d="M9.344 14.702h-2c-.276 0-.5-.224-.5-.5v-7c0-.276.224-.5.5-.5h2c.276 0 .5.224.5.5v7c0 .276-.224.5-.5.5z" transform="translate(200, 0) scale(5, 8)" /><path fill="#FFE8B6" d="M5 16L18 3l13 13v17H5z" transform="translate(200, 0) scale(5, 8)" /><path fill="#FFCC4D" d="M18 16h1v16h-1z" transform="translate(200, 0) scale(5, 8)" /><path fill="#66757F" d="M31 17c-.256 0-.512-.098-.707-.293L18 4.414 5.707 16.707c-.391.391-1.023.391-1.414 0s-.391-1.023 0-1.414l13-13c.391-.391 1.023-.391 1.414 0l13 13c.391.391.391 1.023 0 1.414-.195.195-.451.293-.707.293z" transform="translate(200, 0) scale(5, 8)" /><path fill="#66757F" d="M18 17c-.256 0-.512-.098-.707-.293-.391-.391-.391-1.023 0-1.414l6.5-6.5c.391-.391 1.023-.391 1.414 0s.391 1.023 0 1.414l-6.5 6.5c-.195.195-.451.293-.707.293z" transform="translate(200, 0) scale(5, 8)" /><path fill="#C1694F" d="M10 26h4v6h-4z" transform="translate(200, 0) scale(5, 8)" /><path fill="#55ACEE" d="M10 17h4v4h-4zm12.5 0h4v4h-4zm0 9h4v4h-4z" transform="translate(200, 0) scale(5, 8)" /><path fill="#5C913B" d="M33.5 33.5c0 .828-.672 1.5-1.5 1.5H4c-.828 0-1.5-.672-1.5-1.5S3.172 32 4 32h28c.828 0 1.5.672 1.5 1.5z" transform="translate(200, 0) scale(5, 8)" /><defs transform="translate(75, 275)" /><g fill="#000000" transform="translate(75, 275)"><g transform="translate(0, 0)"><path d="M0 55.79L0 8.86L3.83 8.86L3.83 55.79L0 55.79ZM12.99 55.79L12.99 8.86L16.82 8.86L16.82 55.79L12.99 55.79Z" /></g></g><defs transform="translate(275, 275)" /><g fill="#000000" transform="translate(275, 275)"><g transform="translate(0, 0)"><path d="M0 34.52L0 30.10L13.50 30.10L13.50 34.52L0 34.52Z" /></g></g></svg>