<?xml version='1.0' encoding='utf-8'?>
<svg xmlns="http://www.w3.org/2000/svg" width="400" height="400" viewBox="0 0 400 400" version="1.1"><!--description: цвет каштана --><path fill="#D99E82" d="M18 3.143c-9.941 0-18 6.908-18 15.428 0 1.066.126 2.107.367 3.112C2.146 24.744 3.377 22.812 9 20c5.727-2.864 0 4-2 8-.615 1.23-.282 2.271.56 3.124C10.506 32.928 14.104 34 18 34c9.941 0 18-6.907 18-15.429 0-8.52-8.059-15.428-18-15.428zm2.849 24.447c-.395 1.346-2.46 1.924-4.613 1.291-2.153-.632-3.578-2.234-3.183-3.581.395-1.346 2.46-1.924 4.613-1.29 2.153.631 3.578 2.233 3.183 3.58z" transform="translate(0, 0) scale(5, 8)" /><circle fill="#5C913B" cx="10" cy="11" r="3" transform="translate(0, 0) scale(5, 8)" /><circle fill="#269" cx="20" cy="9" r="3" transform="translate(0, 0) scale(5, 8)" /><circle fill="#DD2E44" cx="29" cy="15" r="3" transform="translate(0, 0) scale(5, 8)" /><circle fill="#FFCC4D" cx="28" cy="24" r="3" transform="translate(0, 0) scale(5, 8)" /><path fill="#C1694F" d="M36 25c0 4-8.059 11-18 11S0 29 0 25C0 6 17 0 18 0s18 6 18 25z" transform="translate(200, 0) scale(5, 8)" /><g fill="#A95233" transform="translate(200, 0) scale(5, 8)"><path d="M3.001 29.385c-.05 0-.1-.004-.15-.012-.546-.082-.922-.591-.84-1.137.134-.895 3.43-21.968 15.535-28.127.493-.252 1.094-.054 1.345.438.25.492.054 1.094-.438 1.345C7.267 7.583 4.021 28.325 3.989 28.533c-.075.496-.501.852-.988.852z" /><path d="M32.999 29.385c-.486 0-.913-.355-.988-.852-.031-.208-3.277-20.95-14.464-26.642-.492-.251-.688-.853-.438-1.345.25-.492.854-.689 1.344-.438 12.107 6.16 15.401 27.234 15.536 28.128.082.546-.294 1.055-.841 1.137-.049.008-.1.012-.149.012z" /><path d="M12.001 33l-.054-.001c-.551-.029-.975-.501-.945-1.052.053-.999 1.356-24.544 6.176-31.516.314-.455.938-.567 1.391-.254.455.314.568.937.254 1.392-4.5 6.508-5.811 30.246-5.824 30.484-.029.534-.47.947-.998.947z" /><path d="M23.999 33c-.527 0-.969-.413-.998-.947-.013-.238-1.324-23.976-5.824-30.484-.314-.454-.2-1.077.254-1.392.456-.314 1.079-.2 1.391.254 4.819 6.972 6.123 30.517 6.177 31.516.029.551-.395 1.021-.946 1.052l-.054.001z" /></g><path fill="#662113" d="M36 25c0 4-8.059 11-18 11S0 29 0 25c3 4 10 7 18 7s15-3 18-7z" transform="translate(200, 0) scale(5, 8)" /><defs transform="translate(75, 275)" /><g fill="#000000" transform="translate(75, 275)"><g transform="translate(0, 0)"><path d="M0 29.61L0 25.51L23.71 15.50L23.71 19.87L4.91 27.59L23.71 35.38L23.71 39.75L0 29.61Z" /></g></g><defs transform="translate(275, 275)" /><g fill="#000000" transform="translate(275, 275)"><g transform="translate(0, 0)"><path d="M0 32.30Q0 25.10 4.00 21.63Q7.35 18.75 12.16 18.75Q17.50 18.75 20.90 22.25Q24.29 25.76 24.29 31.93Q24.29 36.94 22.79 39.81Q21.29 42.68 18.42 44.26Q15.55 45.85 12.16 45.85Q6.71 45.85 3.36 42.36Q0 38.87 0 32.30M4.52 32.30Q4.52 37.28 6.69 39.76Q8.86 42.24 12.16 42.24Q15.43 42.24 17.60 39.75Q19.78 37.26 19.78 32.15Q19.78 27.34 17.59 24.87Q15.41 22.39 12.16 22.39Q8.86 22.39 6.69 24.85Q4.52 27.32 4.52 32.30Z" /></g></g></svg>