<?xml version='1.0' encoding='utf-8'?>
<svg xmlns="http://www.w3.org/2000/svg" width="400" height="400" viewBox="0 0 400 400" version="1.1"><!--description: рабочий с камнем --><path fill="#66757F" d="M12 4.157s4-1.075 5-1.075 5 1.075 5 1.075 4 4.298 5 4.298c0 0 2 0 4 2.149s2 6.447 2 6.447 2 4.298 2 6.447-1 4.298-2 5.373c-1 1.075-5 2.149-5 2.149s-1 2.149-3 3.224c-6 1.075-10 0-10 0l-2-2.149S6 31.02 5 31.02s-4-4.298-4-5.373c0-1.075 0-4.298 1-7.522 2-3.224 3-4.298 3-4.298S4 11.679 5 9.53c2-2.149 6-3.224 6-3.224l1-2.149z" transform="translate(0, 0) scale(5, 8)" /><path fill="#99AAB5" d="M12.409 4.49s3.633-1.021 4.574-1.021c.941 0 4.99 1.149 4.99 1.149s3.574 4.022 4.515 4.022c0 0 2.038-.045 3.921 1.979s1.708 5.617 1.708 5.617S34 20.282 34 22.305s-.941 4.047-1.882 5.059c-.941 1.012-4.706 2.023-4.706 2.023s-.941 2.023-2.824 3.035c-5.647 1.012-9.412 0-9.412 0l-1.882-2.023s-6.588-1.012-7.529-1.012S2 25.34 2 24.328c0-1.012 0-4.047.941-7.082C4.824 14.211 5.765 13.2 5.765 13.2s-1.188-1.643-.247-3.667C7.4 7.51 11.399 6.469 11.399 6.469l1.01-1.979z" transform="translate(0, 0) scale(5, 8)" /><path fill="#CCD6DD" d="M12.771 5.312s3.398-.892 4.278-.892c.88 0 4.667 1.003 4.667 1.003s3.342 3.511 4.222 3.511c0 0 1.906-.039 3.667 1.727 1.76 1.766 1.598 4.903 1.598 4.903s.275 4.245.988 4.373c1.81.324.167 3.713-.713 4.596s-7.01 1.277-7.01 1.277.216 2.755-1.545 3.639c-5.281.883-7.565.246-7.565.246l-1.76-1.766s-4.29-4.097-5.17-4.097-5.393-.319-5.393-1.202 0-3.533.88-6.182c1.76-2.649 2.641-3.533 2.641-3.533s-1.111-1.435-.231-3.201c1.76-1.766 5.5-2.675 5.5-2.675l.946-1.727z" transform="translate(0, 0) scale(5, 8)" /><path fill="#99AAB5" d="M6.29 12.597l3.981 1.851-2.08 1.468-4.274.532z" transform="translate(0, 0) scale(5, 8)" /><path fill="#66757F" d="M1.597 21.981s1.129 3.766 1.426 4.213 4.099.128 4.574.128c.475 0 2.792 1.213 2.792 1.213s-3.089.83-4.158.702c-1.069-.128-3.848-.627-4.099-1.341s-.535-4.915-.535-4.915z" transform="translate(0, 0) scale(5, 8)" /><path fill="#E1E8ED" d="M7.3 9.597c.49-.155 3.861-1.596 4.574-1.532.713.064 3.743 1.787 3.03 2.362s-4.634.128-5.762.128S6.29 9.916 7.3 9.597zm-2.376 7.724c.303-.571 4.337-.766 4.337-.766s5.228 2.107 5.228 2.426-4.752 2.49-5.228 2.553-4.575-3.766-4.337-4.213zm11.703 3.894c-.094-.505 2.02-3.575 2.436-3.83.416-.255 6-1.724 6.95-1.724s3.98 2.234 4.04 2.681c.059.447-2.673 3.511-3.386 3.766-.713.256-9.862.064-10.04-.893zm5.347-8.427c-.225.537 5.347 1.277 5.941 1.021.594-.255 1.663-1.979 1.485-2.426-.178-.447-1.901-1.724-2.792-1.596-.892.129-4.1 1.725-4.634 3.001zm-4.396-7.851c.498.107 3.802.894 4.218 1.532s-1.96 2.617-2.614 2.681c-.653.064-5.109-2.681-5.584-3s3.088-1.405 3.98-1.213z" transform="translate(0, 0) scale(5, 8)" /><path fill="#66757F" d="M13.063 31.364c-.416-.638.238-2.745.594-2.49s1.426 1.021 1.485 1.66c.059.638 1.129 1.851 1.901 2.234s4.99.383 5.703.128c.713-.255 2.376-1.66 2.792-2.49s.896-.891 1.874-1.02 1.922.844.588 1.634c-1.333.79-2.759 2.195-4.422 2.514-1.663.319-7.069.575-8.02.192-.951-.383-2.495-2.362-2.495-2.362z" transform="translate(0, 0) scale(5, 8)" /><path fill="#99AAB5" d="M20.2 26.754c-.501-.269-.688-2.495-.43-2.68s2.666.185 3.225.277c.559.092 3.956-.185 4.3.185s1.173 1.726 1.462 2.541c.289.816-1.591.693-2.322.508s-5.547-.461-6.235-.831zm-7.613-14.732c.653 0 3.386-.064 3.98 0 .594.064 2.495 1.851 1.604 2.043-.891.192-3.267.83-3.624.894s-1.663-1.149-2.079-1.468c-.415-.32-.593-1.469.119-1.469zm7.486-1.787c.33-.531 1.604-.702 1.663-.128.059.575-.297 1.851-1.01 1.787-.713-.063-1.129-.893-.653-1.659zm-3.446 13.469c.593-.071 1.723-.192 1.723.319s-.713.702-1.545.638c-.831-.063-.713-.893-.178-.957z" transform="translate(0, 0) scale(5, 8)" /><path fill="#E1E8ED" d="M14.31 16.619c.519-.446 2.317-.511 2.733-.319.416.192-.475 1.532-1.01 1.596-.535.063-2.317-.767-1.723-1.277z" transform="translate(0, 0) scale(5, 8)" /><path fill="#66757F" d="M26.191 26.385c.593-.159 2.02-.319 1.96.128-.059.447-.653 1.277-1.129 1.213s-1.306-1.213-.831-1.341zm-3.861 4.469c.656-.109 1.663-.638 1.604 0-.059.638-.772 1.468-1.545 1.341-.772-.128-.831-1.214-.059-1.341z" transform="translate(0, 0) scale(5, 8)" /><path fill="#F2760F" d="M32.043 36L32 35c0-4-2.957-7-7.957-7h-12C7.043 28 4 31 4 35l.043 1h28z" transform="translate(200, 0) scale(5, 8)" /><path fill="#FFF75F" d="M9 28.298V36h3v-8c-1.103 0-2.102.103-3 .298zM24 28v8h3v-7.702c-.898-.195-1.897-.298-3-.298z" transform="translate(200, 0) scale(5, 8)" /><path fill="#292F33" d="M13 27h10v4H13z" transform="translate(200, 0) scale(5, 8)" /><path fill="#292F33" d="M14 27h8s-1.018 7-4 7-4-7-4-7" transform="translate(200, 0) scale(5, 8)" /><path fill="#FFDC5D" d="M13.64 30.038c1.745 1.268 2.849 1.963 4.36 1.963s2.615-.696 4.359-1.963v-5.749h-8.72v5.749z" transform="translate(200, 0) scale(5, 8)" /><path fill="#F9CA55" d="M13.632 25.973c1.216 1.374 2.724 1.746 4.364 1.746 1.639 0 3.146-.373 4.363-1.746v-3.491h-8.728v3.491z" transform="translate(200, 0) scale(5, 8)" /><path fill="#FFAC33" d="M21.513 4.15c-1.881-.608-6.306-.443-7.412.996-2.876.055-6.25 2.654-6.693 6.084-.438 3.394.538 4.97.885 7.523.393 2.892 2.019 3.817 3.319 4.204 1.87 2.47 3.858 2.365 7.195 2.365 6.518 0 9.622-4.361 9.896-11.768.167-4.481-2.462-7.874-7.19-9.404z" transform="translate(200, 0) scale(5, 8)" /><path fill="#FFDC5D" d="M25.24 13.87c-.631-.873-1.438-1.576-3.208-1.825.664.304 1.3 1.355 1.383 1.936.083.581.166 1.051-.359.47-2.105-2.327-4.397-1.411-6.669-2.832-1.587-.993-2.07-2.091-2.07-2.091s-.194 1.466-2.6 2.959c-.697.433-1.53 1.397-1.991 2.821-.332 1.023-.229 1.936-.229 3.496 0 4.553 3.752 8.38 8.38 8.38s8.38-3.861 8.38-8.38c-.001-2.833-.297-3.939-1.017-4.934z" transform="translate(200, 0) scale(5, 8)" /><path fill="#C1694F" d="M18.807 21.131h-1.862c-.257 0-.466-.208-.466-.466s.208-.466.466-.466h1.862c.257 0 .466.208.466.466s-.208.466-.466.466zM18 24.467c-2.754 0-3.6-.705-3.74-.848-.257-.256-.257-.671 0-.927.248-.248.644-.255.902-.023.051.037.721.487 2.838.487 2.201 0 2.836-.485 2.842-.49.256-.255.658-.243.914.015.256.256.242.683-.014.938-.142.143-.988.848-3.742.848" transform="translate(200, 0) scale(5, 8)" /><path fill="#662113" d="M14.152 17.872c-.514 0-.931-.417-.931-.931v-.931c0-.514.417-.931.931-.931s.931.417.931.931v.931c0 .514-.417.931-.931.931zm7.449 0c-.514 0-.931-.417-.931-.931v-.931c0-.514.417-.931.931-.931s.931.417.931.931v.931c0 .514-.417.931-.931.931z" transform="translate(200, 0) scale(5, 8)" /><path fill="#292F33" d="M19 34.938l-1 1.061-1-1v-3h2z" transform="translate(200, 0) scale(5, 8)" /><path fill="#55ACEE" d="M11 28c0 1 1 3 3 5 1.582 1.581 4 3 4 3 0-3.063-1-4-2-5s-3-2-3-4c0-1-2 1-2 1m14 0c0 1-1 3-3 5-1.58 1.581-4 3-4 3 0-3.063 1-4 2-5s3-2 3-4c0-1 2 1 2 1" transform="translate(200, 0) scale(5, 8)" /><path fill="#FFF75F" d="M30 11c-3-2-1.008-4.169-3-7-1.873-2.663-5-4-9.002-4C13 0 10.874 1.337 9 4c-1.992 2.831 0 5-3 7-1.861 1.24 6 2.313 12 2.313S31.861 12.24 30 11" transform="translate(200, 0) scale(5, 8)" /><path fill="#FFAC33" d="M16 11.5V.088c-.35.032-.683.074-1 .124v10.281c-2.09-.05-5.124-.396-7.653-.853-.174.297-.41.59-.73.877 2.91.566 6.596.983 8.883.983h.5zm12.855-1.553c-2.853.304-5.839.517-7.855.549V.292c-.323-.066-.66-.112-1-.155V11.5h.5c2.018 0 5.796-.261 9.289-.657-.402-.295-.708-.593-.934-.896z" transform="translate(200, 0) scale(5, 8)" /><defs transform="translate(75, 275)" /><g fill="#000000" transform="translate(75, 275)"><g transform="translate(0, 0)"><path d="M0 55.79L0 8.86L3.83 8.86L3.83 55.79L0 55.79ZM12.99 55.79L12.99 8.86L16.82 8.86L16.82 55.79L12.99 55.79Z" /></g></g><defs transform="translate(275, 275)" /><g fill="#000000" transform="translate(275, 275)"><g transform="translate(0, 0)"><path d="M0 34.52L0 30.10L13.50 30.10L13.50 34.52L0 34.52Z" /></g></g></svg>