<?xml version='1.0' encoding='utf-8'?>
<svg xmlns="http://www.w3.org/2000/svg" width="400" height="400" viewBox="0 0 400 400" version="1.1"><!--description: церемония с короной --><path fill="#F4900C" d="M14.174 17.075L6.75 7.594l-3.722 9.481z" transform="translate(0, 0) scale(5, 8)" /><path fill="#F4900C" d="M17.938 5.534l-6.563 12.389H24.5z" transform="translate(0, 0) scale(5, 8)" /><path fill="#F4900C" d="M21.826 17.075l7.424-9.481 3.722 9.481z" transform="translate(0, 0) scale(5, 8)" /><path fill="#FFCC4D" d="M28.669 15.19L23.887 3.523l-5.88 11.668-.007.003-.007-.004-5.88-11.668L7.331 15.19C4.197 10.833 1.28 8.042 1.28 8.042S3 20.75 3 33h30c0-12.25 1.72-24.958 1.72-24.958s-2.917 2.791-6.051 7.148z" transform="translate(0, 0) scale(5, 8)" /><circle fill="#5C913B" cx="17.957" cy="22" r="3.688" transform="translate(0, 0) scale(5, 8)" /><circle fill="#981CEB" cx="26.463" cy="22" r="2.412" transform="translate(0, 0) scale(5, 8)" /><circle fill="#DD2E44" cx="32.852" cy="22" r="1.986" transform="translate(0, 0) scale(5, 8)" /><circle fill="#981CEB" cx="9.45" cy="22" r="2.412" transform="translate(0, 0) scale(5, 8)" /><circle fill="#DD2E44" cx="3.061" cy="22" r="1.986" transform="translate(0, 0) scale(5, 8)" /><path fill="#FFAC33" d="M33 34H3c-.552 0-1-.447-1-1s.448-1 1-1h30c.553 0 1 .447 1 1s-.447 1-1 1zm0-3.486H3c-.552 0-1-.447-1-1s.448-1 1-1h30c.553 0 1 .447 1 1s-.447 1-1 1z" transform="translate(0, 0) scale(5, 8)" /><circle fill="#FFCC4D" cx="1.447" cy="8.042" r="1.407" transform="translate(0, 0) scale(5, 8)" /><circle fill="#F4900C" cx="6.75" cy="7.594" r="1.192" transform="translate(0, 0) scale(5, 8)" /><circle fill="#FFCC4D" cx="12.113" cy="3.523" r="1.784" transform="translate(0, 0) scale(5, 8)" /><circle fill="#FFCC4D" cx="34.553" cy="8.042" r="1.407" transform="translate(0, 0) scale(5, 8)" /><circle fill="#F4900C" cx="29.25" cy="7.594" r="1.192" transform="translate(0, 0) scale(5, 8)" /><circle fill="#FFCC4D" cx="23.887" cy="3.523" r="1.784" transform="translate(0, 0) scale(5, 8)" /><circle fill="#F4900C" cx="17.938" cy="5.534" r="1.784" transform="translate(0, 0) scale(5, 8)" /><path fill="#A6D388" d="M22 4.587c0 6.075-3.667 18.333-11 18.333S0 10.663 0 4.587C0-2.593 8.25.92 11 .92c2.712 0 11-3.551 11 3.667z" transform="translate(200, 0) scale(5, 8)" /><path fill="#5C913B" d="M5.5 11.92c4.583 2.75 7.333 2.75 11 0 2.75-1.833-1.833 6.417-5.5 6.417s-8.25-8.25-5.5-6.417zM3.666 8.254c-.138 0-.278-.031-.41-.097-.452-.226-.636-.777-.409-1.23.636-1.272 1.933-2.15 3.303-2.235.839-.047 2.458.155 3.779 2.137.281.421.167.99-.254 1.271-.423.281-.991.167-1.271-.254-.61-.915-1.355-1.374-2.14-1.324-.73.045-1.428.526-1.777 1.226-.161.32-.485.506-.821.506zm14.668 0c-.336 0-.66-.186-.82-.507-.35-.699-1.047-1.18-1.777-1.226-.776-.042-1.529.409-2.14 1.324-.282.422-.85.535-1.271.254-.421-.281-.535-.85-.254-1.271 1.32-1.983 2.931-2.186 3.779-2.137 1.37.085 2.667.963 3.303 2.235.227.453.043 1.003-.41 1.23-.132.067-.272.098-.41.098z" transform="translate(200, 0) scale(5, 8)" /><path fill="#CBB7EA" d="M36 17.667C36 23.741 32.333 36 25 36S14 23.741 14 17.667C14 10.486 22.25 14 25 14c2.713 0 11-3.552 11 3.667z" transform="translate(200, 0) scale(5, 8)" /><path fill="#9266CC" d="M29.5 30.151C26 28 24 28 20.5 30.151c-2.75 1.833.833-4.417 4.5-4.417s7.25 6.25 4.5 4.417zM17 21.917c-.138 0-.278-.031-.41-.097-.453-.226-.636-.777-.41-1.23.7-1.399 2.404-2.49 4.051-2.592 1.489-.099 2.815.585 3.698 1.911.281.422.167.99-.254 1.272-.421.281-.99.167-1.271-.254-.522-.782-1.215-1.148-2.059-1.099-1.121.069-2.164.859-2.526 1.583-.16.32-.484.506-.819.506zm16.001 0c-.337 0-.66-.186-.821-.508-.36-.723-1.403-1.512-2.524-1.582-.842-.047-1.539.316-2.06 1.099-.28.421-.851.535-1.271.254-.421-.281-.535-.85-.254-1.272.884-1.326 2.188-2.009 3.699-1.911 1.648.103 3.352 1.194 4.051 2.593.226.452.042 1.003-.411 1.229-.132.067-.271.098-.409.098z" transform="translate(200, 0) scale(5, 8)" /><defs transform="translate(75, 275)" /><g fill="#000000" transform="translate(75, 275)"><g transform="translate(0, 0)"><path d="M0 55.79L0 8.86L3.83 8.86L3.83 55.79L0 55.79ZM12.99 55.79L12.99 8.86L16.82 8.86L16.82 55.79L12.99 55.79Z" /></g></g><defs transform="translate(275, 275)" /><g fill="#000000" transform="translate(275, 275)"><g transform="translate(0, 0)"><path d="M0 34.52L0 30.10L13.50 30.10L13.50 34.52L0 34.52Z" /></g></g></svg>