<?xml version='1.0' encoding='utf-8'?>
<svg xmlns="http://www.w3.org/2000/svg" width="400" height="400" viewBox="0 0 400 400" version="1.1"><!--description: тот, кто дает корону --><path fill="#F4900C" d="M14.174 17.075L6.75 7.594l-3.722 9.481z" transform="translate(0, 0) scale(5, 8)" /><path fill="#F4900C" d="M17.938 5.534l-6.563 12.389H24.5z" transform="translate(0, 0) scale(5, 8)" /><path fill="#F4900C" d="M21.826 17.075l7.424-9.481 3.722 9.481z" transform="translate(0, 0) scale(5, 8)" /><path fill="#FFCC4D" d="M28.669 15.19L23.887 3.523l-5.88 11.668-.007.003-.007-.004-5.88-11.668L7.331 15.19C4.197 10.833 1.28 8.042 1.28 8.042S3 20.75 3 33h30c0-12.25 1.72-24.958 1.72-24.958s-2.917 2.791-6.051 7.148z" transform="translate(0, 0) scale(5, 8)" /><circle fill="#5C913B" cx="17.957" cy="22" r="3.688" transform="translate(0, 0) scale(5, 8)" /><circle fill="#981CEB" cx="26.463" cy="22" r="2.412" transform="translate(0, 0) scale(5, 8)" /><circle fill="#DD2E44" cx="32.852" cy="22" r="1.986" transform="translate(0, 0) scale(5, 8)" /><circle fill="#981CEB" cx="9.45" cy="22" r="2.412" transform="translate(0, 0) scale(5, 8)" /><circle fill="#DD2E44" cx="3.061" cy="22" r="1.986" transform="translate(0, 0) scale(5, 8)" /><path fill="#FFAC33" d="M33 34H3c-.552 0-1-.447-1-1s.448-1 1-1h30c.553 0 1 .447 1 1s-.447 1-1 1zm0-3.486H3c-.552 0-1-.447-1-1s.448-1 1-1h30c.553 0 1 .447 1 1s-.447 1-1 1z" transform="translate(0, 0) scale(5, 8)" /><circle fill="#FFCC4D" cx="1.447" cy="8.042" r="1.407" transform="translate(0, 0) scale(5, 8)" /><circle fill="#F4900C" cx="6.75" cy="7.594" r="1.192" transform="translate(0, 0) scale(5, 8)" /><circle fill="#FFCC4D" cx="12.113" cy="3.523" r="1.784" transform="translate(0, 0) scale(5, 8)" /><circle fill="#FFCC4D" cx="34.553" cy="8.042" r="1.407" transform="translate(0, 0) scale(5, 8)" /><circle fill="#F4900C" cx="29.25" cy="7.594" r="1.192" transform="translate(0, 0) scale(5, 8)" /><circle fill="#FFCC4D" cx="23.887" cy="3.523" r="1.784" transform="translate(0, 0) scale(5, 8)" /><circle fill="#F4900C" cx="17.938" cy="5.534" r="1.784" transform="translate(0, 0) scale(5, 8)" /><path fill="#EF9645" d="M7.278 29.994c.059.982 1.052 1.262 2.065 1.201 1.016-.059 3.726.768 4.679.77 1.687.003 2.268-.829 2.332-2.319C16.5 26.271 18 26.188 18 22.271V9c0-1.766-1.98-2.61-2.312-1.094-.642 2.925-.598 5.097-.65 6.372l-.516-.129s.47-5.078.983-7.471c.371-1.741-2.718-2.381-3.092-.641-.498 2.308-.611 6.273-.646 7.801l-.639-.057s.221-3.768.981-8.045c.284-1.609-2.802-2.38-3.189-.634-.502 2.257-.87 6.7-.855 9.055l-.629.133s.19-4.353.921-7.436c.319-1.346-2.188-2.174-2.744-.184-1.6 5.688-1.006 10.688-1.017 11.13-.049 1.85-.477 3.986-1.225 3.442-1.131-.824-2.763.239-1.364 2.319 1.577 2.344 4.98 2.093 5.099 4.087.05.858.172 2.346.172 2.346" transform="translate(200, 0) scale(5, 8)" /><path fill="#FFDC5D" d="M5.336 31.033c.058.982.946 1.363 1.96 1.305 1.013-.064 5.61-.295 6.56-.354.951-.055 1.92-.879 1.858-1.892-.06-1.016-.196-2.463.643-3.931.458-.798 1.3-3.784 1.08-9.472-.146-3.771.033-6.722.138-8.271.091-1.354-2.143-1.898-2.45-.125-.509 2.942-.644 4.667-.781 6.059l-.518-.128s.474-5.32.935-7.724c.315-1.634-2.287-2.076-2.66-.335-.498 2.31-.995 6.219-1.03 7.747l-.641-.054s.232-4.085.994-8.365c.253-1.428-2.421-1.894-2.809-.148-.5 2.255-1.263 6.533-1.247 8.886l-.626.133s-.033-3.69.92-7.436c.34-1.34-2.188-2.174-2.748-.184-.558 1.985-.809 5.002-.919 6.783-1.364-1.214-2.793-.405-2.746.036.403 3.812-2.43 6.729.426 11.076 1.554 2.364 2.535 2.307 3.529 4.044.522.913.132 2.35.132 2.35" transform="translate(200, 0) scale(5, 8)" /><path fill="#EF9645" d="M4.317 19.707c.718.2 1.46.475 2.099.931 1.117.795 1.797 1.679 1.962 1.969.175.298.787.164.525-.345-.256-.494-1.099-1.432-2.093-2.11-.694-.475-1.696-.875-2.597-1.114-.162-.043 1.01-4.132-.22-5.511.469.848-.344 4.548-.344 5.161s.286.912.668 1.019zm24.405 10.287c-.059.982-1.052 1.262-2.065 1.201-1.016-.059-3.726.768-4.679.77-1.687.003-2.268-.829-2.332-2.319C19.5 26.271 18 26.188 18 22.271V9c0-1.766 1.98-2.61 2.312-1.094.642 2.925.597 5.097.65 6.372l.516-.129s-.47-5.078-.983-7.471c-.371-1.741 2.718-2.381 3.092-.641.498 2.308.611 6.273.646 7.801l.639-.057s-.221-3.768-.981-8.045c-.284-1.609 2.802-2.38 3.189-.634.502 2.257.87 6.7.855 9.055l.629.133s-.035-3.623-.986-7.369c-.341-1.341 2.254-2.241 2.81-.251 1.6 5.688 1.006 10.688 1.017 11.13.049 1.85.477 3.986 1.225 3.442 1.131-.824 2.763.239 1.364 2.319-1.577 2.344-4.98 2.093-5.099 4.087-.051.858-.173 2.346-.173 2.346" transform="translate(200, 0) scale(5, 8)" /><path fill="#FFDC5D" d="M30.664 31.033c-.058.982-.946 1.363-1.96 1.305-1.013-.064-5.61-.295-6.56-.354-.951-.055-1.92-.879-1.858-1.892.06-1.016.196-2.463-.643-3.931-.458-.798-1.3-3.784-1.08-9.472.146-3.771-.033-6.722-.138-8.271-.091-1.354 2.143-1.898 2.45-.125.509 2.942.644 4.667.781 6.059l.518-.128s-.474-5.32-.935-7.724c-.315-1.634 2.287-2.076 2.66-.335.498 2.31.995 6.219 1.03 7.747l.641-.054s-.232-4.085-.994-8.365c-.253-1.428 2.421-1.894 2.809-.148.499 2.256 1.262 6.534 1.247 8.888l.626.133s.033-3.69-.92-7.436c-.34-1.34 2.188-2.174 2.748-.184.558 1.985.809 5.002.919 6.783 1.364-1.214 2.793-.405 2.746.036-.403 3.812 2.43 6.729-.426 11.076-1.554 2.364-2.535 2.307-3.529 4.044-.522.911-.132 2.348-.132 2.348" transform="translate(200, 0) scale(5, 8)" /><path fill="#EF9645" d="M31.683 19.707c-.718.2-1.46.475-2.099.931-1.117.795-1.797 1.679-1.962 1.969-.175.298-.787.164-.525-.345.256-.494 1.099-1.432 2.093-2.11.694-.475 1.696-.875 2.597-1.114.162-.043-1.01-4.132.22-5.511-.469.848.344 4.548.344 5.161s-.286.912-.668 1.019z" transform="translate(200, 0) scale(5, 8)" /><defs transform="translate(75, 275)" /><g fill="#000000" transform="translate(75, 275)"><g transform="translate(0, 0)"><path d="M23.71 29.61L0 39.75L0 35.38L18.77 27.59L0 19.87L0 15.50L23.71 25.51L23.71 29.61Z" /></g></g><defs transform="translate(275, 275)" /><g fill="#000000" transform="translate(275, 275)"><g transform="translate(0, 0)"><path d="M0 29.61L0 25.51L23.71 15.50L23.71 19.87L4.91 27.59L23.71 35.38L23.71 39.75L0 29.61Z" /></g></g></svg>