<?xml version='1.0' encoding='utf-8'?>
<svg xmlns="http://www.w3.org/2000/svg" width="400" height="400" viewBox="0 0 400 400" version="1.1"><!--description: круг на голове --><path fill="#F4900C" d="M14.174 17.075L6.75 7.594l-3.722 9.481z" transform="translate(0, 0) scale(5, 10)" /><path fill="#F4900C" d="M17.938 5.534l-6.563 12.389H24.5z" transform="translate(0, 0) scale(5, 10)" /><path fill="#F4900C" d="M21.826 17.075l7.424-9.481 3.722 9.481z" transform="translate(0, 0) scale(5, 10)" /><path fill="#FFCC4D" d="M28.669 15.19L23.887 3.523l-5.88 11.668-.007.003-.007-.004-5.88-11.668L7.331 15.19C4.197 10.833 1.28 8.042 1.28 8.042S3 20.75 3 33h30c0-12.25 1.72-24.958 1.72-24.958s-2.917 2.791-6.051 7.148z" transform="translate(0, 0) scale(5, 10)" /><circle fill="#5C913B" cx="17.957" cy="22" r="3.688" transform="translate(0, 0) scale(5, 10)" /><circle fill="#981CEB" cx="26.463" cy="22" r="2.412" transform="translate(0, 0) scale(5, 10)" /><circle fill="#DD2E44" cx="32.852" cy="22" r="1.986" transform="translate(0, 0) scale(5, 10)" /><circle fill="#981CEB" cx="9.45" cy="22" r="2.412" transform="translate(0, 0) scale(5, 10)" /><circle fill="#DD2E44" cx="3.061" cy="22" r="1.986" transform="translate(0, 0) scale(5, 10)" /><path fill="#FFAC33" d="M33 34H3c-.552 0-1-.447-1-1s.448-1 1-1h30c.553 0 1 .447 1 1s-.447 1-1 1zm0-3.486H3c-.552 0-1-.447-1-1s.448-1 1-1h30c.553 0 1 .447 1 1s-.447 1-1 1z" transform="translate(0, 0) scale(5, 10)" /><circle fill="#FFCC4D" cx="1.447" cy="8.042" r="1.407" transform="translate(0, 0) scale(5, 10)" /><circle fill="#F4900C" cx="6.75" cy="7.594" r="1.192" transform="translate(0, 0) scale(5, 10)" /><circle fill="#FFCC4D" cx="12.113" cy="3.523" r="1.784" transform="translate(0, 0) scale(5, 10)" /><circle fill="#FFCC4D" cx="34.553" cy="8.042" r="1.407" transform="translate(0, 0) scale(5, 10)" /><circle fill="#F4900C" cx="29.25" cy="7.594" r="1.192" transform="translate(0, 0) scale(5, 10)" /><circle fill="#FFCC4D" cx="23.887" cy="3.523" r="1.784" transform="translate(0, 0) scale(5, 10)" /><circle fill="#F4900C" cx="17.938" cy="5.534" r="1.784" transform="translate(0, 0) scale(5, 10)" /><path fill="#DD2E44" d="M18 0C8.059 0 0 8.059 0 18s8.059 18 18 18 18-8.059 18-18S27.941 0 18 0zm0 30c-6.627 0-12-5.373-12-12S11.373 6 18 6s12 5.373 12 12-5.373 12-12 12z" transform="translate(200, 0) scale(5, 10)" /></svg>