<?xml version='1.0' encoding='utf-8'?>
<svg xmlns="http://www.w3.org/2000/svg" width="400" height="400" viewBox="0 0 400 400" version="1.1"><!--description: противоположность начала --><path fill="#31373D" d="M35.311 6.652L25.17.263c-.904-.569-1.645-.181-1.645.865V3h-11.05V1.128c0-1.046-.74-1.434-1.644-.865L.689 6.652c-.904.57-.922 1.527-.037 2.127l10.215 6.932c.885.602 1.607.234 1.607-.812V13h11.051v1.899c0 1.046.723 1.413 1.607.811l10.215-6.931c.885-.6.868-1.557-.036-2.127zM.204 27.986c0-4.529 3.048-8.014 7.49-8.014 4.377 0 7.491 3.594 7.491 8.014 0 4.506-3.027 8.014-7.491 8.014-4.42 0-7.49-3.508-7.49-8.014zm11.584 0c0-2.635-1.372-5.01-4.094-5.01-2.721 0-4.094 2.375-4.094 5.01 0 2.656 1.33 5.008 4.094 5.008 2.765 0 4.094-2.351 4.094-5.008zm4.625-6.184c0-1.089.696-1.699 1.632-1.699.415 0 1.089.327 1.373.72l6.902 9.211h.045v-8.231c0-1.089.694-1.699 1.633-1.699.937 0 1.633.61 1.633 1.699V34.17c0 1.088-.696 1.697-1.633 1.697-.415 0-1.067-.326-1.372-.717l-6.903-9.102h-.044v8.121c0 1.088-.697 1.697-1.633 1.697s-1.632-.609-1.632-1.697V21.802zm16.013 12.499c0-.936.762-1.699 1.698-1.699.936 0 1.698.764 1.698 1.699 0 .936-.763 1.699-1.698 1.699-.936 0-1.698-.764-1.698-1.699zm.131-12.848c0-.914.673-1.48 1.567-1.48.87 0 1.567.588 1.567 1.48v8.384c0 .894-.697 1.479-1.567 1.479-.895 0-1.567-.564-1.567-1.479v-8.384z" transform="translate(0, 0) scale(5, 10)" /><path fill="#31373D" d="M34 3H12.475V1.128c0-1.046-.74-1.434-1.644-.865L.69 6.652c-.905.57-.922 1.527-.038 2.127l10.215 6.931c.884.602 1.607.235 1.607-.811V13H34c1.104 0 2-.896 2-2V5c0-1.104-.896-2-2-2zM.088 22.915c0-1.03.515-1.791 1.606-1.791h5.108c.989 0 1.462.7 1.462 1.421 0 .7-.495 1.421-1.462 1.421H3.178v3.008h3.378c1.009 0 1.503.699 1.503 1.421 0 .699-.515 1.42-1.503 1.42H3.178v3.131h3.811c.988 0 1.462.701 1.462 1.421 0 .701-.495 1.422-1.462 1.422H1.675c-.906 0-1.586-.617-1.586-1.544v-11.33zm9.419-.309c0-1.029.659-1.606 1.545-1.606.392 0 1.03.31 1.298.68l6.529 8.712h.041v-7.785c0-1.029.659-1.606 1.545-1.606.886 0 1.545.577 1.545 1.606v11.699c0 1.03-.659 1.606-1.545 1.606-.391 0-1.009-.309-1.297-.681l-6.53-8.608h-.041v7.683c0 1.03-.659 1.606-1.544 1.606s-1.545-.576-1.545-1.606v-11.7zm14.239.104c0-.948.659-1.586 1.586-1.586h3.419c4.612 0 7.249 2.965 7.249 7.537 0 4.326-2.801 7.127-7.043 7.127h-3.584c-.68 0-1.627-.37-1.627-1.544V22.71zm3.09 10.235h2.08c2.656 0 3.872-1.957 3.872-4.429 0-2.637-1.235-4.551-4.078-4.551h-1.874v8.98z" transform="translate(200, 0) scale(5, 10)" /></svg>