<?xml version='1.0' encoding='utf-8'?>
<svg xmlns="http://www.w3.org/2000/svg" width="400" height="400" viewBox="0 0 400 400" version="1.1"><!--description: человек, который кормит --><path fill="#D99E82" d="M36 13.5c0-4.558-4.435-8.267-10-8.479V5H10v.021C4.435 5.233 0 8.942 0 13.5c0 1.861.747 3.576 2 4.976V31c0 2.209 1.791 4 4 4h24c2.209 0 4-1.791 4-4V18.476c1.253-1.4 2-3.115 2-4.976z" transform="translate(0, 0) scale(5, 8)" /><path fill="#CC927A" d="M19 18.476h15v1.5H19z" transform="translate(0, 0) scale(5, 8)" /><path fill="#FFE8B6" d="M21 13.5c0-3.461-3.538-6.291-8-6.489C12.835 7.004 10.668 7 10.5 7 5.806 7 2 9.91 2 13.5c0 1.595.754 3.053 2 4.184V30c0 1.657 1.343 3 3 3h9c1.657 0 3-1.343 3-3V17.679c1.244-1.131 2-2.586 2-4.179z" transform="translate(0, 0) scale(5, 8)" /><path fill="#269" d="M24 26.799v-2.566c2-1.348 4.08-3.779 4.703-6.896.186.103.206.17.413.17.991 0 1.709-1.287 1.709-2.873 0-1.562-.823-2.827-1.794-2.865.187-.674.293-1.577.293-2.735C29.324 5.168 26 .527 18.541.527c-6.629 0-10.777 4.641-10.777 8.507 0 1.123.069 2.043.188 2.755-.911.137-1.629 1.352-1.629 2.845 0 1.587.804 2.873 1.796 2.873.206 0 .025-.067.209-.17C8.952 20.453 11 22.885 13 24.232v2.414c-5 .645-12 3.437-12 6.23v1.061C1 35 2.076 35 3.137 35h29.725C33.924 35 35 35 35 33.938v-1.061c0-2.615-6-5.225-11-6.078z" transform="translate(200, 0) scale(5, 8)" /><defs transform="translate(75, 275)" /><g fill="#000000" transform="translate(75, 275)"><g transform="translate(0, 0)"><path d="M0 55.79L0 8.86L3.83 8.86L3.83 55.79L0 55.79ZM12.99 55.79L12.99 8.86L16.82 8.86L16.82 55.79L12.99 55.79Z" /></g></g><defs transform="translate(275, 275)" /><g fill="#000000" transform="translate(275, 275)"><g transform="translate(0, 0)"><path d="M0 34.52L0 30.10L13.50 30.10L13.50 34.52L0 34.52Z" /></g></g></svg>