<?xml version='1.0' encoding='utf-8'?>
<svg xmlns="http://www.w3.org/2000/svg" width="400" height="400" viewBox="0 0 400 400" version="1.1"><!--description: не прямая линия --><path fill="#FFCC4D" d="M30.021 34.264c-1.563 1.563-4.095 1.562-5.656 0L1.736 11.636c-1.562-1.562-1.563-4.094 0-5.657l4.243-4.242c1.562-1.562 4.095-1.562 5.657 0l22.626 22.628c1.562 1.562 1.562 4.096.001 5.656l-4.242 4.243z" transform="translate(0, 0) scale(5, 8)" /><path fill="#292F33" d="M9.515 6.687c-.391.39-1.023.39-1.414 0-.39-.391-.39-1.024 0-1.415l3.536-3.536 1.414 1.415-3.536 3.536zm5.656 1.414c-.39.391-1.024.391-1.414 0-.391-.391-.391-1.024 0-1.414l1.415-1.415 1.414 1.415-1.415 1.414zm1.415 5.656c-.391.391-1.024.391-1.414 0-.39-.391-.39-1.024 0-1.414l3.536-3.536c.486.486.929.928 1.414 1.415l-3.536 3.535zm5.656 1.414c-.39.391-1.023.391-1.413 0-.392-.391-.391-1.024 0-1.414l1.414-1.415c.485.487.928.928 1.414 1.415l-1.415 1.414zm1.415 5.657c-.391.391-1.023.392-1.414 0-.391-.391-.391-1.023-.001-1.414l3.536-3.535 1.414 1.414-3.535 3.535zm7.071 7.071c-.39.391-1.023.391-1.413 0-.392-.391-.392-1.023-.001-1.414l3.536-3.535 1.414 1.414-3.536 3.535zm-1.415-5.657c-.391.391-1.022.391-1.414.001-.391-.391-.39-1.024 0-1.414l1.415-1.414 1.413 1.413-1.414 1.414z" transform="translate(0, 0) scale(5, 8)" /><path fill="#31373D" d="M18 32.625c-5.09 0-10.5-3.965-10.5-11.312 0-4.877 3.365-9.178 7.591-12.272C12.393 7.739 9.756 7 8 7c-2.708 0-5.499.914-5.527.923-.79.258-1.635-.165-1.896-.951-.261-.785.163-1.633.949-1.895C1.658 5.033 4.793 4 8 4c2.695 0 6.449 1.158 10.01 3.162C21.565 5.158 25.31 4 28 4c3.207 0 6.222 1.559 6.344 1.625.781.422 1.312.699 1.125 1.266-.182.551-.891.328-1.75.234-.029-.003-2.156-.391-5.688-.391-1.752 0-4.41 1.003-7.1 2.304 4.215 3.083 7.568 7.36 7.568 12.212C28.5 28.639 23.09 32.625 18 32.625zm.013-21.954c-4.03 2.585-7.513 6.345-7.513 10.642 0 6.056 4.6 8.312 7.5 8.312 2.899 0 7.5-2.273 7.5-8.375 0-4.27-3.468-8.005-7.487-10.579z" transform="translate(200, 0) scale(5, 8)" /><defs transform="translate(75, 275)" /><g fill="#000000" transform="translate(75, 275)"><g transform="translate(0, 0)"><path d="M0 45.26L9.47 31.79L0.71 19.34L6.20 19.34L10.18 25.42Q11.30 27.15 11.99 28.32Q13.06 26.71 13.96 25.46L18.33 19.34L23.58 19.34L14.62 31.54L24.27 45.26L18.87 45.26L13.55 37.21L12.13 35.03L5.32 45.26L0 45.26Z" /></g></g><defs transform="translate(275, 275)" /><g fill="#000000" transform="translate(275, 275)"><g transform="translate(0, 0)"><path d="M0 32.30Q0 25.10 4.00 21.63Q7.35 18.75 12.16 18.75Q17.50 18.75 20.90 22.25Q24.29 25.76 24.29 31.93Q24.29 36.94 22.79 39.81Q21.29 42.68 18.42 44.26Q15.55 45.85 12.16 45.85Q6.71 45.85 3.36 42.36Q0 38.87 0 32.30M4.52 32.30Q4.52 37.28 6.69 39.76Q8.86 42.24 12.16 42.24Q15.43 42.24 17.60 39.75Q19.78 37.26 19.78 32.15Q19.78 27.34 17.59 24.87Q15.41 22.39 12.16 22.39Q8.86 22.39 6.69 24.85Q4.52 27.32 4.52 32.30Z" /></g></g></svg>