<?xml version='1.0' encoding='utf-8'?>
<svg xmlns="http://www.w3.org/2000/svg" width="400" height="400" viewBox="0 0 400 400" version="1.1"><!--description: птица, связанная с часами --><path fill="#FFAC33" d="M8.916 12.88c-.111 1.652 1.768 3.126-.712 2.959-2.48-.167-7.836-2.533-7.768-3.53s3.708-2.757 6.188-2.59c2.48.166 2.404 1.508 2.292 3.161zm20.122 16.049c-.202-.032-.392.015-.564.095-2.325.232-3.225-1.885-3.225-1.885-.439-.336-.981-2.009-1.589-1.215l.187 1.402c.187 1.402 2.57 3.224 2.57 3.224l-1.215 1.589c-.336.439-.252 1.066.187 1.402.439.336 1.066.252 1.402-.187l.673-.88-.039.249c-.087.546.285 1.058.831 1.145.546.087 1.058-.285 1.145-.831l.47-2.963c.085-.546-.287-1.058-.833-1.145zm-6.278.623c-.196-.058-.39-.037-.572.018-2.335-.082-2.944-2.3-2.944-2.3-.39-.392-.703-2.123-1.412-1.417l-.003 1.414c-.003 1.414 2.115 3.539 2.115 3.539l-1.417 1.412c-.392.39-.393 1.023-.003 1.414.39.392 1.023.393 1.414.003l.785-.782-.073.242c-.159.529.141 1.086.67 1.246.529.159 1.087-.141 1.246-.67l.862-2.873c.162-.53-.138-1.087-.668-1.246z" transform="translate(0, 0) scale(5, 10)" /><path fill="#DD2E44" d="M35.009 6.729c-.383-.17-.758-.057-1.05.244-.054.056-4.225 6.306-14.532 4.944-.34-.045 3.139 11.968 3.199 11.962.124-.014 3.07-.368 6.14-2.553 2.818-2.005 6.284-5.991 6.797-13.598.028-.418-.171-.828-.554-.999z" transform="translate(0, 0) scale(5, 10)" /><path fill="#DD2E44" d="M34.477 21.108c-.204-.336-.59-.56-.979-.471-1.293.295-3.197.543-4.53.453-6.357-.428-9.361-4.129-9.392-4.16-.275-.282.466 11.552.816 11.576 9.194.62 13.862-6.027 14.057-6.31.222-.326.233-.751.028-1.088z" transform="translate(0, 0) scale(5, 10)" /><path fill="#DD2E44" d="M24.586 19.016c-.371 5.51 1.316 9.861-4.194 9.489-5.51-.371-10.145-4.92-9.774-10.431s14.34-4.568 13.968.942z" transform="translate(0, 0) scale(5, 10)" /><path fill="#DD2E44" d="M23.257 12.412c-.353 5.235-3.922 9.257-9.156 8.904-5.235-.353-9.193-4.882-8.84-10.117.353-5.235 4.832-8.444 10.067-8.091 4.001.269 8.24 4.683 7.929 9.304z" transform="translate(0, 0) scale(5, 10)" /><circle fill="#292F33" cx="10.67" cy="8.989" r="2" transform="translate(0, 0) scale(5, 10)" /><path fill="#A0041E" d="M18.179 16.645s7.63 5.648 12.387-4.459c.396-.842 1.685.793.099 4.162s-8.175 6.44-12.04 1.536c-.815-1.035-.446-1.239-.446-1.239z" transform="translate(0, 0) scale(5, 10)" /><path fill="#DD2E44" d="M15.327 3.107s6.246.254 7.798-.477.136 2.932-3.262 3.789-4.536-3.312-4.536-3.312z" transform="translate(0, 0) scale(5, 10)" /><path fill="#DD2E44" d="M17.428 5.788s4.501.136 6.054-.594.136 2.932-3.262 3.789c-3.399.857-2.792-3.195-2.792-3.195z" transform="translate(0, 0) scale(5, 10)" /><path fill="#FFCC4D" d="M20 6.042c0 1.112-.903 2.014-2 2.014s-2-.902-2-2.014V2.014C16 .901 16.903 0 18 0s2 .901 2 2.014v4.028z" transform="translate(200, 0) scale(5, 10)" /><path fill="#FFAC33" d="M9.18 36c-.224 0-.452-.052-.666-.159-.736-.374-1.035-1.28-.667-2.027l8.94-18.127c.252-.512.768-.835 1.333-.835s1.081.323 1.333.835l8.941 18.127c.368.747.07 1.653-.666 2.027-.736.372-1.631.07-1.999-.676L18.121 19.74l-7.607 15.425c-.262.529-.788.835-1.334.835z" transform="translate(200, 0) scale(5, 10)" /><path fill="#58595B" d="M18.121 20.392c-.263 0-.516-.106-.702-.295L3.512 5.998c-.388-.394-.388-1.031 0-1.424s1.017-.393 1.404 0L18.121 17.96 31.324 4.573c.389-.393 1.017-.393 1.405 0 .388.394.388 1.031 0 1.424l-13.905 14.1c-.187.188-.439.295-.703.295z" transform="translate(200, 0) scale(5, 10)" /><path fill="#DD2E44" d="M34.015 19.385c0 8.898-7.115 16.111-15.894 16.111-8.777 0-15.893-7.213-15.893-16.111 0-8.9 7.116-16.113 15.893-16.113 8.778-.001 15.894 7.213 15.894 16.113z" transform="translate(200, 0) scale(5, 10)" /><path fill="#E6E7E8" d="M30.041 19.385c0 6.674-5.335 12.084-11.92 12.084-6.583 0-11.919-5.41-11.919-12.084C6.202 12.71 11.538 7.3 18.121 7.3c6.585-.001 11.92 5.41 11.92 12.085z" transform="translate(200, 0) scale(5, 10)" /><path fill="#FFCC4D" d="M30.04 1.257c-1.646 0-3.135.676-4.214 1.77l8.429 8.544C35.333 10.478 36 8.968 36 7.299c0-3.336-2.669-6.042-5.96-6.042zm-24.08 0c1.645 0 3.135.676 4.214 1.77l-8.429 8.544C.667 10.478 0 8.968 0 7.299c0-3.336 2.668-6.042 5.96-6.042z" transform="translate(200, 0) scale(5, 10)" /><path fill="#414042" d="M23 20h-5c-.552 0-1-.447-1-1v-9c0-.552.448-1 1-1s1 .448 1 1v8h4c.553 0 1 .448 1 1 0 .553-.447 1-1 1z" transform="translate(200, 0) scale(5, 10)" /></svg>