<?xml version='1.0' encoding='utf-8'?>
<svg xmlns="http://www.w3.org/2000/svg" width="400" height="400" viewBox="0 0 400 400" version="1.1"><!--description: птица весны --><path fill="#FFAC33" d="M8.916 12.88c-.111 1.652 1.768 3.126-.712 2.959-2.48-.167-7.836-2.533-7.768-3.53s3.708-2.757 6.188-2.59c2.48.166 2.404 1.508 2.292 3.161zm20.122 16.049c-.202-.032-.392.015-.564.095-2.325.232-3.225-1.885-3.225-1.885-.439-.336-.981-2.009-1.589-1.215l.187 1.402c.187 1.402 2.57 3.224 2.57 3.224l-1.215 1.589c-.336.439-.252 1.066.187 1.402.439.336 1.066.252 1.402-.187l.673-.88-.039.249c-.087.546.285 1.058.831 1.145.546.087 1.058-.285 1.145-.831l.47-2.963c.085-.546-.287-1.058-.833-1.145zm-6.278.623c-.196-.058-.39-.037-.572.018-2.335-.082-2.944-2.3-2.944-2.3-.39-.392-.703-2.123-1.412-1.417l-.003 1.414c-.003 1.414 2.115 3.539 2.115 3.539l-1.417 1.412c-.392.39-.393 1.023-.003 1.414.39.392 1.023.393 1.414.003l.785-.782-.073.242c-.159.529.141 1.086.67 1.246.529.159 1.087-.141 1.246-.67l.862-2.873c.162-.53-.138-1.087-.668-1.246z" transform="translate(0, 0) scale(5, 10)" /><path fill="#DD2E44" d="M35.009 6.729c-.383-.17-.758-.057-1.05.244-.054.056-4.225 6.306-14.532 4.944-.34-.045 3.139 11.968 3.199 11.962.124-.014 3.07-.368 6.14-2.553 2.818-2.005 6.284-5.991 6.797-13.598.028-.418-.171-.828-.554-.999z" transform="translate(0, 0) scale(5, 10)" /><path fill="#DD2E44" d="M34.477 21.108c-.204-.336-.59-.56-.979-.471-1.293.295-3.197.543-4.53.453-6.357-.428-9.361-4.129-9.392-4.16-.275-.282.466 11.552.816 11.576 9.194.62 13.862-6.027 14.057-6.31.222-.326.233-.751.028-1.088z" transform="translate(0, 0) scale(5, 10)" /><path fill="#DD2E44" d="M24.586 19.016c-.371 5.51 1.316 9.861-4.194 9.489-5.51-.371-10.145-4.92-9.774-10.431s14.34-4.568 13.968.942z" transform="translate(0, 0) scale(5, 10)" /><path fill="#DD2E44" d="M23.257 12.412c-.353 5.235-3.922 9.257-9.156 8.904-5.235-.353-9.193-4.882-8.84-10.117.353-5.235 4.832-8.444 10.067-8.091 4.001.269 8.24 4.683 7.929 9.304z" transform="translate(0, 0) scale(5, 10)" /><circle fill="#292F33" cx="10.67" cy="8.989" r="2" transform="translate(0, 0) scale(5, 10)" /><path fill="#A0041E" d="M18.179 16.645s7.63 5.648 12.387-4.459c.396-.842 1.685.793.099 4.162s-8.175 6.44-12.04 1.536c-.815-1.035-.446-1.239-.446-1.239z" transform="translate(0, 0) scale(5, 10)" /><path fill="#DD2E44" d="M15.327 3.107s6.246.254 7.798-.477.136 2.932-3.262 3.789-4.536-3.312-4.536-3.312z" transform="translate(0, 0) scale(5, 10)" /><path fill="#DD2E44" d="M17.428 5.788s4.501.136 6.054-.594.136 2.932-3.262 3.789c-3.399.857-2.792-3.195-2.792-3.195z" transform="translate(0, 0) scale(5, 10)" /><path fill="#F4ABBA" d="M31.298 20.807c4.197-1.363 5.027-3.182 4.191-6.416-.952.308-2.105-.001-2.272-.518-.168-.513.581-1.443 1.533-1.753-1.223-3.107-2.964-4.089-7.161-2.727-1.606.522-3.238 1.492-4.655 2.635C23.582 10.327 24 8.475 24 6.786c0-4.412-1.473-5.765-4.807-5.968 0 1-.652 2-1.193 2s-1.194-1-1.194-2C13.472 1.021 12 2.374 12 6.786c0 1.689.417 3.541 1.066 5.241-1.416-1.142-3.049-2.111-4.655-2.633-4.197-1.364-5.938-.381-7.162 2.727.951.31 1.701 1.238 1.534 1.753-.167.515-1.32.826-2.271.518-.837 3.233-.005 5.052 4.19 6.415 1.606.521 3.497.697 5.314.605-1.524.994-2.95 2.247-3.943 3.613-2.594 3.57-2.197 5.53.381 7.654.588-.809 1.703-1.235 2.142-.917.438.317.378 1.511-.21 2.32 2.816 1.795 4.803 1.565 7.396-2.003.993-1.366 1.743-3.111 2.218-4.867.475 1.757 1.226 3.501 2.218 4.867 2.594 3.57 4.58 3.798 7.397 2.003-.587-.81-.649-2.002-.21-2.321.437-.317 1.553.107 2.142.917 2.577-2.123 2.973-4.083.381-7.653-.993-1.366-2.42-2.619-3.943-3.613 1.816.092 3.706-.084 5.313-.605zM18 20.337c-.162-.292-.353-.538-.588-.709-.234-.171-.528-.276-.856-.341.228-.244.403-.502.493-.778.09-.275.1-.587.059-.919.302.141.602.228.892.228s.59-.087.894-.229c-.041.332-.031.644.059.919.09.276.265.534.492.778-.327.065-.621.17-.855.341-.236.172-.428.418-.59.71z" transform="translate(200, 0) scale(5, 10)" /><g fill="#FFF" transform="translate(200, 0) scale(5, 10)"><path d="M16.795 18.685c-.12.54-.653.88-1.193.76l-5.858-1.302c-.539-.12-.879-.653-.759-1.193.12-.539.654-.879 1.193-.759l5.857 1.302c.54.12.88.653.76 1.192zm.976.218c.12-.54.654-.88 1.193-.76l5.857 1.302c.54.12.879.653.76 1.193-.12.538-.654.879-1.193.759l-5.857-1.302c-.54-.118-.88-.654-.76-1.192z" /><path d="M17.771 18.903c-.466.296-1.083.159-1.38-.308l-3.221-5.061c-.296-.466-.16-1.084.307-1.38.466-.297 1.084-.159 1.38.307l3.222 5.062c.295.466.158 1.083-.308 1.38zm.797 1.252c.466-.296 1.084-.159 1.38.307l3.223 5.062c.296.467.159 1.083-.308 1.381-.466.296-1.084.159-1.381-.307l-3.221-5.062c-.296-.466-.157-1.084.307-1.381z" /><path d="M17.988 17.927c-.539-.12-.879-.654-.759-1.193l1.302-5.857c.119-.539.652-.879 1.192-.759.54.12.879.654.759 1.193l-1.301 5.857c-.119.538-.654.879-1.193.759zm-.217.976c.539.119.879.653.759 1.192l-1.3 5.857c-.121.54-.654.88-1.194.76-.538-.12-.878-.654-.76-1.193l1.303-5.857c.119-.539.653-.879 1.192-.759z" /><path d="M17.771 18.902c-.297-.466-.159-1.083.307-1.38l5.062-3.221c.466-.296 1.084-.16 1.38.307.297.466.159 1.083-.307 1.38l-5.062 3.221c-.466.297-1.084.16-1.38-.307z" /><path d="M17.771 18.902c.296.467.159 1.084-.307 1.381l-5.062 3.222c-.466.296-1.083.16-1.381-.308-.296-.465-.159-1.083.307-1.38l5.062-3.222c.467-.296 1.085-.158 1.381.307z" /></g><path d="M22.012 25.566c.932-.592 2.168-.317 2.762.614.593.932.318 2.168-.614 2.762-.932.593-2.168.318-2.762-.614-.592-.932-.318-2.168.614-2.762zM14.55 13.841c-.932.593-2.168.319-2.761-.613-.593-.932-.318-2.168.614-2.761.932-.593 2.168-.318 2.761.613.593.932.318 2.168-.614 2.761zm1.92 10.918c1.078.241 1.758 1.31 1.52 2.388-.24 1.078-1.308 1.758-2.387 1.519-1.079-.24-1.758-1.309-1.519-2.387.239-1.079 1.308-1.758 2.386-1.52zm3.037-13.665c-1.078-.239-1.758-1.308-1.518-2.386.239-1.078 1.308-1.758 2.386-1.519 1.078.24 1.759 1.308 1.519 2.386-.241 1.079-1.309 1.758-2.387 1.519zm-6.013 10.53c.592.933.317 2.169-.614 2.763-.932.593-2.168.318-2.762-.615-.593-.931-.318-2.167.613-2.761.933-.592 2.169-.318 2.763.613zm9.339-5.943c-.593-.932-.317-2.168.614-2.761.932-.593 2.168-.318 2.761.614s.317 2.168-.613 2.761c-.933.593-2.169.318-2.762-.614zm.795 4.524c.24-1.079 1.309-1.759 2.387-1.52 1.078.24 1.758 1.309 1.519 2.387-.24 1.078-1.309 1.758-2.387 1.518-1.079-.238-1.758-1.307-1.519-2.385zm-12.69-2.821c-.24 1.079-1.308 1.758-2.386 1.519-1.078-.24-1.758-1.309-1.519-2.387.239-1.078 1.308-1.758 2.386-1.519 1.079.241 1.758 1.309 1.519 2.387z" fill="#EA596E" transform="translate(200, 0) scale(5, 10)" /><circle fill="#FFCC4D" cx="18" cy="18.818" r="4" transform="translate(200, 0) scale(5, 10)" /></svg>