<?xml version='1.0' encoding='utf-8'?>
<svg xmlns="http://www.w3.org/2000/svg" width="400" height="400" viewBox="0 0 400 400" version="1.1"><!--description: хитрое животное --><path fill="#F4900C" d="M13.431 9.802c.658 2.638-8.673 10.489-11.244 4.098C.696 10.197-.606 2.434.874 2.065c1.48-.368 11.9 5.098 12.557 7.737z" transform="translate(0, 0) scale(5, 10)" /><path fill="#A0041E" d="M11.437 10.355c.96 1.538-1.831 4.561-3.368 5.522-1.538.961-2.899-.552-4.414-4.414-.662-1.689-1.666-6.27-1.103-6.622.562-.351 7.924 3.976 8.885 5.514z" transform="translate(0, 0) scale(5, 10)" /><path fill="#F4900C" d="M22.557 9.802C21.9 12.441 31.23 20.291 33.802 13.9c1.49-3.703 2.792-11.466 1.312-11.835-1.48-.368-11.899 5.098-12.557 7.737z" transform="translate(0, 0) scale(5, 10)" /><path fill="#A0041E" d="M24.552 10.355c-.96 1.538 1.831 4.561 3.368 5.522 1.537.961 2.898-.552 4.413-4.414.662-1.688 1.666-6.269 1.104-6.621-.563-.352-7.924 3.975-8.885 5.513z" transform="translate(0, 0) scale(5, 10)" /><path fill="#F18F26" d="M32.347 26.912c0-.454-.188-1.091-.407-1.687.585.028 1.519.191 2.77.817-.008-.536-.118-.984-.273-1.393.041.02.075.034.116.055-1.103-3.31-3.309-5.517-3.309-5.517h2.206c-2.331-4.663-4.965-8.015-8.075-9.559-1.39-.873-3.688-1.338-7.373-1.339h-.003c-3.695 0-5.996.468-7.385 1.346-3.104 1.547-5.734 4.896-8.061 9.552H4.76s-2.207 2.206-3.311 5.517c.03-.015.055-.025.084-.04-.201.392-.307.847-.282 1.377 1.263-.632 2.217-.792 2.813-.818-.189.513-.343 1.044-.386 1.475-.123.371-.191.812-.135 1.343C6.75 26.584 8.25 26.792 10 27.667 11.213 31.29 14.206 34 18.001 34c3.793 0 6.746-2.794 7.958-6.416 1.458-1.25 3.708-.875 6.416.416.066-.414.036-.773-.036-1.093l.008.005z" transform="translate(0, 0) scale(5, 10)" /><path fill="#FFD983" d="M31.243 23.601c.006 0 1.108.003 3.309 1.103-1.249-2.839-7.525-4.07-9.931-3.291-1.171 1.954-1.281 5.003-3.383 6.622-1.741 1.431-4.713 1.458-6.479 0-2.345-1.924-2.559-5.813-3.382-6.622-2.407-.781-8.681.454-9.931 3.291 2.201-1.101 3.304-1.103 3.309-1.103 0 .001-1.103 2.208-1.103 3.311l.001-.001v.001c2.398-1.573 5.116-2.271 7.429-.452 1.666 7.921 12.293 7.545 13.833 0 2.314-1.818 5.03-1.122 7.429.452v-.001l.001.001c.002-1.103-1.101-3.311-1.102-3.311z" transform="translate(0, 0) scale(5, 10)" /><path fill="#272B2B" d="M11 17s0-1.5 1.5-1.5S14 17 14 17v1.5s0 1.5-1.5 1.5-1.5-1.5-1.5-1.5V17zm11 0s0-1.5 1.5-1.5S25 17 25 17v1.5s0 1.5-1.5 1.5-1.5-1.5-1.5-1.5V17zm-7.061 10.808c-1.021.208 2.041 3.968 3.062 3.968 1.02 0 4.082-3.76 3.062-3.968-1.021-.208-5.103-.208-6.124 0z" transform="translate(0, 0) scale(5, 10)" /><path fill="#A6D388" d="M22 4.587c0 6.075-3.667 18.333-11 18.333S0 10.663 0 4.587C0-2.593 8.25.92 11 .92c2.712 0 11-3.551 11 3.667z" transform="translate(200, 0) scale(5, 10)" /><path fill="#5C913B" d="M5.5 11.92c4.583 2.75 7.333 2.75 11 0 2.75-1.833-1.833 6.417-5.5 6.417s-8.25-8.25-5.5-6.417zM3.666 8.254c-.138 0-.278-.031-.41-.097-.452-.226-.636-.777-.409-1.23.636-1.272 1.933-2.15 3.303-2.235.839-.047 2.458.155 3.779 2.137.281.421.167.99-.254 1.271-.423.281-.991.167-1.271-.254-.61-.915-1.355-1.374-2.14-1.324-.73.045-1.428.526-1.777 1.226-.161.32-.485.506-.821.506zm14.668 0c-.336 0-.66-.186-.82-.507-.35-.699-1.047-1.18-1.777-1.226-.776-.042-1.529.409-2.14 1.324-.282.422-.85.535-1.271.254-.421-.281-.535-.85-.254-1.271 1.32-1.983 2.931-2.186 3.779-2.137 1.37.085 2.667.963 3.303 2.235.227.453.043 1.003-.41 1.23-.132.067-.272.098-.41.098z" transform="translate(200, 0) scale(5, 10)" /><path fill="#CBB7EA" d="M36 17.667C36 23.741 32.333 36 25 36S14 23.741 14 17.667C14 10.486 22.25 14 25 14c2.713 0 11-3.552 11 3.667z" transform="translate(200, 0) scale(5, 10)" /><path fill="#9266CC" d="M29.5 30.151C26 28 24 28 20.5 30.151c-2.75 1.833.833-4.417 4.5-4.417s7.25 6.25 4.5 4.417zM17 21.917c-.138 0-.278-.031-.41-.097-.453-.226-.636-.777-.41-1.23.7-1.399 2.404-2.49 4.051-2.592 1.489-.099 2.815.585 3.698 1.911.281.422.167.99-.254 1.272-.421.281-.99.167-1.271-.254-.522-.782-1.215-1.148-2.059-1.099-1.121.069-2.164.859-2.526 1.583-.16.32-.484.506-.819.506zm16.001 0c-.337 0-.66-.186-.821-.508-.36-.723-1.403-1.512-2.524-1.582-.842-.047-1.539.316-2.06 1.099-.28.421-.851.535-1.271.254-.421-.281-.535-.85-.254-1.272.884-1.326 2.188-2.009 3.699-1.911 1.648.103 3.352 1.194 4.051 2.593.226.452.042 1.003-.411 1.229-.132.067-.271.098-.409.098z" transform="translate(200, 0) scale(5, 10)" /></svg>