<?xml version='1.0' encoding='utf-8'?>
<svg xmlns="http://www.w3.org/2000/svg" width="400" height="400" viewBox="0 0 400 400" version="1.1"><!--description: ночное небесное тело --><path fill="#FFD983" d="M30.312.776C32 19 20 32 .776 30.312c8.199 7.717 21.091 7.588 29.107-.429C37.9 21.867 38.03 8.975 30.312.776z" transform="translate(0, 0) scale(5, 10)" /><path d="M30.705 15.915c-.453.454-.453 1.189 0 1.644.454.453 1.189.453 1.643 0 .454-.455.455-1.19 0-1.644-.453-.454-1.189-.454-1.643 0zm-16.022 14.38c-.682.681-.682 1.783 0 2.465.68.682 1.784.682 2.464 0 .681-.682.681-1.784 0-2.465-.68-.682-1.784-.682-2.464 0zm13.968-2.147c-1.135 1.135-2.974 1.135-4.108 0-1.135-1.135-1.135-2.975 0-4.107 1.135-1.136 2.974-1.136 4.108 0 1.135 1.133 1.135 2.973 0 4.107z" fill="#FFCC4D" transform="translate(0, 0) scale(5, 10)" /><circle fill="#66757F" cx="18" cy="18" r="18" transform="translate(200, 0) scale(5, 10)" /><g fill="#5B6876" transform="translate(200, 0) scale(5, 10)"><circle cx="10.5" cy="8.5" r="3.5" /><circle cx="20" cy="16" r="3" /><circle cx="21.5" cy="27.5" r="3.5" /><circle cx="21" cy="6" r="2" /><circle cx="3" cy="18" r="1" /><circle cx="30" cy="9" r="1" /><circle cx="15" cy="31" r="1" /><circle cx="32" cy="19" r="2" /><circle cx="10" cy="23" r="2" /></g></svg>