<?xml version='1.0' encoding='utf-8'?>
<svg xmlns="http://www.w3.org/2000/svg" width="400" height="400" viewBox="0 0 400 400" version="1.1"><!--description: не живой --><path fill="#FDD888" d="M28.865 7.134c7.361 7.359 9.35 17.304 4.443 22.209-4.907 4.907-14.85 2.918-22.21-4.441-.25-.25-.478-.51-.716-.766l4.417-4.417c5.724 5.724 13.016 7.714 16.286 4.442 3.271-3.271 1.282-10.563-4.441-16.287l.022.021-.021-.022C20.104 1.331 11.154-.326 6.657 4.171 4.482 6.346 3.76 9.564 4.319 13.044c-.858-4.083-.15-7.866 2.338-10.353 4.906-4.906 14.849-2.917 22.208 4.443z" transform="translate(0, 0) scale(5, 8)" /><path fill="#FFAC33" d="M19.403 34c-.252 0-.503-.077-.719-.231l-5.076-3.641-5.076 3.641c-.433.31-1.013.31-1.443-.005-.43-.312-.611-.864-.45-1.369l1.894-6.11-5.031-3.545c-.428-.315-.605-.869-.442-1.375.165-.504.634-.847 1.165-.851l6.147-.012 2.067-5.957c.168-.504.639-.844 1.17-.844.531 0 1.002.34 1.17.844l1.866 5.957 6.347.012c.532.004 1.002.347 1.165.851.164.506-.014 1.06-.442 1.375l-5.031 3.545 1.893 6.11c.162.505-.021 1.058-.449 1.369-.217.158-.471.236-.725.236z" transform="translate(0, 0) scale(5, 8)" /><path fill="#DD2E44" d="M21.533 18.002L33.768 5.768c.976-.976.976-2.559 0-3.535-.977-.977-2.559-.977-3.535 0L17.998 14.467 5.764 2.233c-.976-.977-2.56-.977-3.535 0-.977.976-.977 2.559 0 3.535l12.234 12.234L2.201 30.265c-.977.977-.977 2.559 0 3.535.488.488 1.128.732 1.768.732s1.28-.244 1.768-.732l12.262-12.263 12.234 12.234c.488.488 1.128.732 1.768.732.64 0 1.279-.244 1.768-.732.976-.977.976-2.559 0-3.535L21.533 18.002z" transform="translate(200, 0) scale(5, 8)" /><defs transform="translate(75, 275)" /><g fill="#000000" transform="translate(75, 275)"><g transform="translate(0, 0)"><path d="M0 45.26L9.47 31.79L0.71 19.34L6.20 19.34L10.18 25.42Q11.30 27.15 11.99 28.32Q13.06 26.71 13.96 25.46L18.33 19.34L23.58 19.34L14.62 31.54L24.27 45.26L18.87 45.26L13.55 37.21L12.13 35.03L5.32 45.26L0 45.26Z" /></g></g><defs transform="translate(275, 275)" /><g fill="#000000" transform="translate(275, 275)"><g transform="translate(0, 0)"><path d="M0 32.30Q0 25.10 4.00 21.63Q7.35 18.75 12.16 18.75Q17.50 18.75 20.90 22.25Q24.29 25.76 24.29 31.93Q24.29 36.94 22.79 39.81Q21.29 42.68 18.42 44.26Q15.55 45.85 12.16 45.85Q6.71 45.85 3.36 42.36Q0 38.87 0 32.30M4.52 32.30Q4.52 37.28 6.69 39.76Q8.86 42.24 12.16 42.24Q15.43 42.24 17.60 39.75Q19.78 37.26 19.78 32.15Q19.78 27.34 17.59 24.87Q15.41 22.39 12.16 22.39Q8.86 22.39 6.69 24.85Q4.52 27.32 4.52 32.30Z" /></g></g></svg>