<?xml version='1.0' encoding='utf-8'?>
<svg xmlns="http://www.w3.org/2000/svg" width="400" height="400" viewBox="0 0 400 400" version="1.1"><!--description: большая вода --><path fill="#269" d="M33.398 23.678c-7.562 4.875-20.062-.438-18.375-8.062 1.479-6.684 9.419-4.763 11.225-3.861 1.806.902.713-3.889-3.475-5.327C17.1 4.48 10.156 4.893 7.961 14.678c-1.5 6.687 1.438 16.062 12.719 16.187 11.281.125 12.718-7.187 12.718-7.187z" transform="translate(0, 0) scale(5, 8)" /><path fill="#55ACEE" d="M35.988 25.193c0-2.146-2.754-2.334-4-1.119-2.994 2.919-7.402 4.012-13.298 2.861-10.25-2-10.341-14.014-3.333-17.441 3.791-1.854 8.289.341 9.999 1.655 1.488 1.143 4.334 2.66 4.185.752C29.223 7.839 21.262-.86 10.595 4.64-.071 10.14 0 22.553 0 24.803v7.25C0 34.262 1.814 36 4.023 36h28C34.232 36 36 34.262 36 32.053c0 0-.004-6.854-.012-6.86z" transform="translate(0, 0) scale(5, 8)" /><path fill="#CCD6DD" d="M31 2H5C3.343 2 2 3.343 2 5v26c0 1.657 1.343 3 3 3h26c1.657 0 3-1.343 3-3V5c0-1.657-1.343-3-3-3z" transform="translate(200, 0) scale(5, 8)" /><path fill="#E1E8ED" d="M31 1H5C2.791 1 1 2.791 1 5v26c0 2.209 1.791 4 4 4h26c2.209 0 4-1.791 4-4V5c0-2.209-1.791-4-4-4zm0 2c1.103 0 2 .897 2 2v4h-6V3h4zm-4 16h6v6h-6v-6zm0-2v-6h6v6h-6zM25 3v6h-6V3h6zm-6 8h6v6h-6v-6zm0 8h6v6h-6v-6zM17 3v6h-6V3h6zm-6 8h6v6h-6v-6zm0 8h6v6h-6v-6zM3 5c0-1.103.897-2 2-2h4v6H3V5zm0 6h6v6H3v-6zm0 8h6v6H3v-6zm2 14c-1.103 0-2-.897-2-2v-4h6v6H5zm6 0v-6h6v6h-6zm8 0v-6h6v6h-6zm12 0h-4v-6h6v4c0 1.103-.897 2-2 2z" transform="translate(200, 0) scale(5, 8)" /><path fill="#DD2E44" d="M4.998 33c-.32 0-.645-.076-.946-.239-.973-.523-1.336-1.736-.813-2.709l7-13c.299-.557.845-.939 1.47-1.031.626-.092 1.258.118 1.705.565l6.076 6.076 9.738-18.59c.512-.978 1.721-1.357 2.699-.843.979.512 1.356 1.721.844 2.7l-11 21c-.295.564-.841.953-1.47 1.05-.627.091-1.266-.113-1.716-.563l-6.1-6.099-5.724 10.631C6.4 32.619 5.71 33 4.998 33z" transform="translate(200, 0) scale(5, 8)" /><defs transform="translate(75, 275)" /><g fill="#000000" transform="translate(75, 275)"><g transform="translate(0, 0)"><path d="M0 34.52L0 30.10L13.50 30.10L13.50 34.52L0 34.52Z" /></g></g><defs transform="translate(275, 275)" /><g fill="#000000" transform="translate(275, 275)"><g transform="translate(0, 0)"><path d="M0 34.52L0 30.10L13.50 30.10L13.50 34.52L0 34.52Z" /></g></g></svg>