<?xml version='1.0' encoding='utf-8'?>
<svg xmlns="http://www.w3.org/2000/svg" width="400" height="400" viewBox="0 0 400 400" version="1.1"><!--description: относящийся к молоку --><path fill="#CCD6DD" d="M8.777 4.458L10.792 32h14.333l2.189-27.562z" transform="translate(0, 0) scale(5, 8)" /><path fill="#FFF" d="M25 31.281l-14.094.157-1.018-15.312h16.246z" transform="translate(0, 0) scale(5, 8)" /><path fill="#8899A6" d="M23.906 35.175H12.094c-1.712 0-2.914-1.153-3.135-3.011L6.984 4.448c-.046-.647.441-1.209 1.089-1.255.659-.045 1.209.442 1.255 1.088l1.969 27.66c.107.884.573.884.797.884h11.812c.516 0 .708 0 .8-.917l1.966-27.627c.046-.646.6-1.131 1.255-1.088.647.046 1.135.608 1.089 1.255l-1.969 27.659c-.252 2.541-1.847 3.068-3.141 3.068z" transform="translate(0, 0) scale(5, 8)" /><path fill="#8899A6" d="M18 33h-2.627c-5.532 0-6.167-2.684-6.46-6.474C8.585 22.295 7.16 4.432 7.16 4.432l1.993-.159s1.427 17.868 1.754 22.099c.265 3.439.556 4.628 4.466 4.628H18c.552 0 1 .447 1 1s-.448 1-1 1z" transform="translate(0, 0) scale(5, 8)" /><path fill="#8899A6" d="M20.627 33H18c-.552 0-1-.447-1-1s.448-1 1-1h2.627c3.91 0 4.2-1.189 4.466-4.628.328-4.232 1.754-22.099 1.754-22.099l1.994.159s-1.426 17.864-1.754 22.094c-.293 3.79-.927 6.474-6.46 6.474z" transform="translate(0, 0) scale(5, 8)" /><path fill="#CCD6DD" d="M29 4.083c0 1.703-2.73 3.083-11 3.083-8.269 0-11-1.38-11-3.083C7 2.38 9.73 1 18 1s11 1.38 11 3.083z" transform="translate(0, 0) scale(5, 8)" /><path fill="#FFF" d="M28.532 4.128c-.307-.459-.927-.583-1.387-.276-2.086 1.393-7.274 1.571-9.097 1.523-.01-.001-.019.005-.029.004-.009 0-.016-.004-.025-.004-1.819.049-7.008-.127-9.097-1.523-.46-.306-1.08-.183-1.387.276-.307.459-.183 1.08.276 1.387 2.57 1.717 7.917 1.866 9.688 1.866.289 0 .477-.004.547-.006.071.002.258.006.547.006 1.771 0 7.118-.148 9.688-1.866.46-.307.584-.928.276-1.387z" transform="translate(0, 0) scale(5, 8)" /><ellipse fill="#E1E8ED" cx="17.991" cy="16.06" rx="7.827" ry="1.464" transform="translate(0, 0) scale(5, 8)" /><path fill="#8899A6" d="M11.042 31.542h14.167v1.833H11.042z" transform="translate(0, 0) scale(5, 8)" /><path fill="#8899A6" d="M15 9l6-6s6-6 12 0 0 12 0 12l-8 8s-6 6-12 0c-1.125-1.125-1.822-2.62-1.822-2.62l3.353-3.348S14.396 18.396 16 20c0 0 3 3 6 0l8-8s3-3 0-6-6 0-6 0l-3.729 3.729s-1.854-1.521-5.646-.354L15 9z" transform="translate(200, 0) scale(5, 8)" /><path fill="#8899A6" d="M20.845 27l-6 6s-6 6-12 0 0-12 0-12l8-8s6-6 12 0c1.125 1.125 1.822 2.62 1.822 2.62l-3.354 3.349s.135-1.365-1.469-2.969c0 0-3-3-6 0l-8 8s-3 3 0 6 6 0 6 0l3.729-3.729s1.854 1.521 5.646.354l-.374.375z" transform="translate(200, 0) scale(5, 8)" /><defs transform="translate(75, 275)" /><g fill="#000000" transform="translate(75, 275)"><g transform="translate(0, 0)"><path d="M0 29.61L0 25.51L23.71 15.50L23.71 19.87L4.91 27.59L23.71 35.38L23.71 39.75L0 29.61Z" /></g></g><defs transform="translate(275, 275)" /><g fill="#000000" transform="translate(275, 275)"><g transform="translate(0, 0)"><path d="M0 32.30Q0 25.10 4.00 21.63Q7.35 18.75 12.16 18.75Q17.50 18.75 20.90 22.25Q24.29 25.76 24.29 31.93Q24.29 36.94 22.79 39.81Q21.29 42.68 18.42 44.26Q15.55 45.85 12.16 45.85Q6.71 45.85 3.36 42.36Q0 38.87 0 32.30M4.52 32.30Q4.52 37.28 6.69 39.76Q8.86 42.24 12.16 42.24Q15.43 42.24 17.60 39.75Q19.78 37.26 19.78 32.15Q19.78 27.34 17.59 24.87Q15.41 22.39 12.16 22.39Q8.86 22.39 6.69 24.85Q4.52 27.32 4.52 32.30Z" /></g></g></svg>