<?xml version='1.0' encoding='utf-8'?>
<svg xmlns="http://www.w3.org/2000/svg" width="400" height="400" viewBox="0 0 400 400" version="1.1"><!--description: то, что нашли --><path fill="#9AAAB4" d="M27.388 24.642L24.56 27.47l-4.95-4.95 2.828-2.828z" transform="translate(0, 0) scale(5, 8)" /><path fill="#66757F" d="M34.683 29.11l-5.879-5.879c-.781-.781-2.047-.781-2.828 0l-2.828 2.828c-.781.781-.781 2.047 0 2.828l5.879 5.879c1.562 1.563 4.096 1.563 5.658 0 1.56-1.561 1.559-4.094-.002-5.656z" transform="translate(0, 0) scale(5, 8)" /><circle fill="#8899A6" cx="13.586" cy="13.669" r="13.5" transform="translate(0, 0) scale(5, 8)" /><circle fill="#BBDDF5" cx="13.586" cy="13.669" r="9.5" transform="translate(0, 0) scale(5, 8)" /><path fill="#77B255" d="M36 32c0 2.209-1.791 4-4 4H4c-2.209 0-4-1.791-4-4V4c0-2.209 1.791-4 4-4h28c2.209 0 4 1.791 4 4v28z" transform="translate(200, 0) scale(5, 8)" /><path fill="#FFF" d="M29.28 6.362c-1.156-.751-2.704-.422-3.458.736L14.936 23.877l-5.029-4.65c-1.014-.938-2.596-.875-3.533.138-.937 1.014-.875 2.596.139 3.533l7.209 6.666c.48.445 1.09.665 1.696.665.673 0 1.534-.282 2.099-1.139.332-.506 12.5-19.27 12.5-19.27.751-1.159.421-2.707-.737-3.458z" transform="translate(200, 0) scale(5, 8)" /><defs transform="translate(75, 275)" /><g fill="#000000" transform="translate(75, 275)"><g transform="translate(0, 0)"><path d="M0 29.61L0 25.51L23.71 15.50L23.71 19.87L4.91 27.59L23.71 35.38L23.71 39.75L0 29.61Z" /></g></g><defs transform="translate(275, 275)" /><g fill="#000000" transform="translate(275, 275)"><g transform="translate(0, 0)"><path d="M23.71 29.61L0 39.75L0 35.38L18.77 27.59L0 19.87L0 15.50L23.71 25.51L23.71 29.61Z" /></g></g></svg>