<?xml version='1.0' encoding='utf-8'?>
<svg xmlns="http://www.w3.org/2000/svg" width="400" height="400" viewBox="0 0 400 400" version="1.1"><!--description: процесс начинания --><path fill="#A0041E" d="M1 17l8-7 16 1 1 16-7 8s.001-5.999-6-12-12-6-12-6z" transform="translate(0, 0) scale(5, 10)" /><path fill="#FFAC33" d="M.973 35s-.036-7.979 2.985-11S15 21.187 15 21.187 14.999 29 11.999 32c-3 3-11.026 3-11.026 3z" transform="translate(0, 0) scale(5, 10)" /><circle fill="#FFCC4D" cx="8.999" cy="27" r="4" transform="translate(0, 0) scale(5, 10)" /><path fill="#55ACEE" d="M35.999 0s-10 0-22 10c-6 5-6 14-4 16s11 2 16-4c10-12 10-22 10-22z" transform="translate(0, 0) scale(5, 10)" /><path d="M26.999 5c-1.623 0-3.013.971-3.641 2.36.502-.227 1.055-.36 1.641-.36 2.209 0 4 1.791 4 4 0 .586-.133 1.139-.359 1.64 1.389-.627 2.359-2.017 2.359-3.64 0-2.209-1.791-4-4-4z" transform="translate(0, 0) scale(5, 10)" /><path fill="#A0041E" d="M8 28s0-4 1-5 13.001-10.999 14-10-9.001 13-10.001 14S8 28 8 28z" transform="translate(0, 0) scale(5, 10)" /><path fill="#3B88C3" d="M36 32c0 2.209-1.791 4-4 4H4c-2.209 0-4-1.791-4-4V4c0-2.209 1.791-4 4-4h28c2.209 0 4 1.791 4 4v28z" transform="translate(200, 0) scale(5, 10)" /><path fill="#FFF" d="M22.242 22.242l2.829 2.829c-3.905 3.905-10.237 3.904-14.143-.001-2.247-2.246-3.194-5.296-2.854-8.225l-4.037.367c-.215 3.84 1.128 7.752 4.062 10.687 5.467 5.467 14.333 5.468 19.799 0l2.828 2.828.849-9.334-9.333.849zM27.899 8.1C22.431 2.633 13.568 2.633 8.1 8.1L5.272 5.272l-.849 9.334 9.334-.849-2.829-2.829c3.906-3.905 10.236-3.905 14.142 0 2.248 2.247 3.194 5.297 2.856 8.226l4.036-.366c.216-3.841-1.128-7.753-4.063-10.688z" transform="translate(200, 0) scale(5, 10)" /></svg>