<?xml version='1.0' encoding='utf-8'?>
<svg xmlns="http://www.w3.org/2000/svg" width="400" height="400" viewBox="0 0 400 400" version="1.1"><!--description: которому дали имя --><path fill="#DD2E44" d="M28.303 2.576c-.449-.317-1.017-.173-1.263.319l-2.595 5.21c-.245.492-.695.521-1.001.064L18.556.86c-.306-.457-.806-.457-1.112 0l-4.888 7.308c-.306.457-.757.428-1.002-.064L8.96 2.895c-.245-.492-.813-.636-1.263-.319C7.697 2.576 0 8 0 20c0 7.732 8.059 16 18 16s18-8.268 18-16c0-12-7.697-17.424-7.697-17.424z" transform="translate(0, 0) scale(5, 8)" /><path fill="#F5F8FA" d="M32 23c0 1.104-.896 2-2 2H6c-1.104 0-2-.896-2-2v-7c0-1.104.896-2 2-2h24c1.104 0 2 .896 2 2v7z" transform="translate(0, 0) scale(5, 8)" /><path fill="#77B255" d="M36 32c0 2.209-1.791 4-4 4H4c-2.209 0-4-1.791-4-4V4c0-2.209 1.791-4 4-4h28c2.209 0 4 1.791 4 4v28z" transform="translate(200, 0) scale(5, 8)" /><path fill="#FFF" d="M29.28 6.362c-1.156-.751-2.704-.422-3.458.736L14.936 23.877l-5.029-4.65c-1.014-.938-2.596-.875-3.533.138-.937 1.014-.875 2.596.139 3.533l7.209 6.666c.48.445 1.09.665 1.696.665.673 0 1.534-.282 2.099-1.139.332-.506 12.5-19.27 12.5-19.27.751-1.159.421-2.707-.737-3.458z" transform="translate(200, 0) scale(5, 8)" /><defs transform="translate(75, 275)" /><g fill="#000000" transform="translate(75, 275)"><g transform="translate(0, 0)"><path d="M23.71 29.61L0 39.75L0 35.38L18.77 27.59L0 19.87L0 15.50L23.71 25.51L23.71 29.61Z" /></g></g><defs transform="translate(275, 275)" /><g fill="#000000" transform="translate(275, 275)"><g transform="translate(0, 0)"><path d="M23.71 29.61L0 39.75L0 35.38L18.77 27.59L0 19.87L0 15.50L23.71 25.51L23.71 29.61Z" /></g></g></svg>