<?xml version='1.0' encoding='utf-8'?>
<svg xmlns="http://www.w3.org/2000/svg" width="400" height="400" viewBox="0 0 400 400" version="1.1"><!--description: часть лица для дыхания --><path fill="#269" d="M24 26.799v-2.566c2-1.348 4.08-3.779 4.703-6.896.186.103.206.17.413.17.991 0 1.709-1.287 1.709-2.873 0-1.562-.823-2.827-1.794-2.865.187-.674.293-1.577.293-2.735C29.324 5.168 26 .527 18.541.527c-6.629 0-10.777 4.641-10.777 8.507 0 1.123.069 2.043.188 2.755-.911.137-1.629 1.352-1.629 2.845 0 1.587.804 2.873 1.796 2.873.206 0 .025-.067.209-.17C8.952 20.453 11 22.885 13 24.232v2.414c-5 .645-12 3.437-12 6.23v1.061C1 35 2.076 35 3.137 35h29.725C33.924 35 35 35 35 33.938v-1.061c0-2.615-6-5.225-11-6.078z" transform="translate(0, 0) scale(5, 8)" /><path fill="#FFDC5D" d="M33 29.5c0-2.485-3.134-6.5-7-6.5l-.059.003C25.441 13.749 21.722 0 18 0c-3.657 0-7.311 13.691-7.912 23.004-.028 0-.06-.004-.088-.004-3.866 0-7 4.015-7 6.5 0 2.326 5.257 3.364 9.21 5.128C13.472 35.724 15.342 36 18 36c2.253 0 3.941-.267 5.173-1.081C27.17 32.974 33 31.95 33 29.5z" transform="translate(200, 0) scale(5, 8)" /><path fill="#EF9645" d="M26 30c.544-.099 2.104-2.421 2.104-4.077 0-2.061-.55-2.667-1.224-2.846-.289-.046-.581-.077-.88-.077 0 1 .137 2 .137 3.278 0 2.722-.681 3.82-.137 3.722zM7.789 25.923c0 1.656 1.561 3.979 2.104 4.077.544.098-.137-1-.137-3.722 0-1.275.136-2.274.137-3.271-.349.007-.691.05-1.026.118-.606.229-1.078.889-1.078 2.798z" transform="translate(200, 0) scale(5, 8)" /><path fill="#662113" d="M9.008 31.377c-1.562-.455-3.049-.216-3.741.503 1.804.892 4.381 1.648 6.618 2.609l.001-.002c.337-1.155-.951-2.549-2.878-3.11zm17.984 0c-1.927.561-3.215 1.955-2.878 3.11l.002.004c2.237-.961 4.814-1.718 6.617-2.611-.691-.719-2.179-.958-3.741-.503z" transform="translate(200, 0) scale(5, 8)" /><defs transform="translate(75, 275)" /><g fill="#000000" transform="translate(75, 275)"><g transform="translate(0, 0)"><path d="M0 55.79L0 8.86L3.83 8.86L3.83 55.79L0 55.79ZM12.99 55.79L12.99 8.86L16.82 8.86L16.82 55.79L12.99 55.79Z" /></g></g><defs transform="translate(275, 275)" /><g fill="#000000" transform="translate(275, 275)"><g transform="translate(0, 0)"><path d="M0 34.52L0 30.10L13.50 30.10L13.50 34.52L0 34.52Z" /></g></g></svg>