<?xml version='1.0' encoding='utf-8'?>
<svg xmlns="http://www.w3.org/2000/svg" width="400" height="400" viewBox="0 0 400 400" version="1.1"><!--description: относящийся к ночи --><path fill="#FFD983" d="M30.312.776C32 19 20 32 .776 30.312c8.199 7.717 21.091 7.588 29.107-.429C37.9 21.867 38.03 8.975 30.312.776z" transform="translate(0, 0) scale(5, 8)" /><path d="M30.705 15.915c-.453.454-.453 1.189 0 1.644.454.453 1.189.453 1.643 0 .454-.455.455-1.19 0-1.644-.453-.454-1.189-.454-1.643 0zm-16.022 14.38c-.682.681-.682 1.783 0 2.465.68.682 1.784.682 2.464 0 .681-.682.681-1.784 0-2.465-.68-.682-1.784-.682-2.464 0zm13.968-2.147c-1.135 1.135-2.974 1.135-4.108 0-1.135-1.135-1.135-2.975 0-4.107 1.135-1.136 2.974-1.136 4.108 0 1.135 1.133 1.135 2.973 0 4.107z" fill="#FFCC4D" transform="translate(0, 0) scale(5, 8)" /><path fill="#8899A6" d="M15 9l6-6s6-6 12 0 0 12 0 12l-8 8s-6 6-12 0c-1.125-1.125-1.822-2.62-1.822-2.62l3.353-3.348S14.396 18.396 16 20c0 0 3 3 6 0l8-8s3-3 0-6-6 0-6 0l-3.729 3.729s-1.854-1.521-5.646-.354L15 9z" transform="translate(200, 0) scale(5, 8)" /><path fill="#8899A6" d="M20.845 27l-6 6s-6 6-12 0 0-12 0-12l8-8s6-6 12 0c1.125 1.125 1.822 2.62 1.822 2.62l-3.354 3.349s.135-1.365-1.469-2.969c0 0-3-3-6 0l-8 8s-3 3 0 6 6 0 6 0l3.729-3.729s1.854 1.521 5.646.354l-.374.375z" transform="translate(200, 0) scale(5, 8)" /><defs transform="translate(75, 275)" /><g fill="#000000" transform="translate(75, 275)"><g transform="translate(0, 0)"><path d="M0 29.61L0 25.51L23.71 15.50L23.71 19.87L4.91 27.59L23.71 35.38L23.71 39.75L0 29.61Z" /></g></g><defs transform="translate(275, 275)" /><g fill="#000000" transform="translate(275, 275)"><g transform="translate(0, 0)"><path d="M0 32.30Q0 25.10 4.00 21.63Q7.35 18.75 12.16 18.75Q17.50 18.75 20.90 22.25Q24.29 25.76 24.29 31.93Q24.29 36.94 22.79 39.81Q21.29 42.68 18.42 44.26Q15.55 45.85 12.16 45.85Q6.71 45.85 3.36 42.36Q0 38.87 0 32.30M4.52 32.30Q4.52 37.28 6.69 39.76Q8.86 42.24 12.16 42.24Q15.43 42.24 17.60 39.75Q19.78 37.26 19.78 32.15Q19.78 27.34 17.59 24.87Q15.41 22.39 12.16 22.39Q8.86 22.39 6.69 24.85Q4.52 27.32 4.52 32.30Z" /></g></g></svg>