<?xml version='1.0' encoding='utf-8'?>
<svg xmlns="http://www.w3.org/2000/svg" width="400" height="400" viewBox="0 0 400 400" version="1.1"><!--description: причинять обиду --><path fill="#FFCC4D" d="M36 18c0 9.941-8.059 18-18 18-9.94 0-18-8.059-18-18C0 8.06 8.06 0 18 0c9.941 0 18 8.06 18 18" transform="translate(0, 0) scale(5, 8)" /><path fill="#664500" d="M25.485 29.879C25.44 29.7 24.317 25.5 18 25.5c-6.318 0-7.44 4.2-7.485 4.379-.055.217.043.442.237.554.195.109.439.079.6-.077.019-.019 1.954-1.856 6.648-1.856s6.63 1.837 6.648 1.855c.096.095.224.145.352.145.084 0 .169-.021.246-.064.196-.112.294-.339.239-.557zm-9.778-12.586C12.452 14.038 7.221 14 7 14c-.552 0-.999.447-.999.998-.001.552.446 1 .998 1.002.029 0 1.925.022 3.983.737-.593.64-.982 1.634-.982 2.763 0 1.934 1.119 3.5 2.5 3.5s2.5-1.566 2.5-3.5c0-.174-.019-.34-.037-.507.013 0 .025.007.037.007.256 0 .512-.098.707-.293.391-.391.391-1.023 0-1.414zM29 14c-.221 0-5.451.038-8.707 3.293-.391.391-.391 1.023 0 1.414.195.195.451.293.707.293.013 0 .024-.007.036-.007-.016.167-.036.333-.036.507 0 1.934 1.119 3.5 2.5 3.5s2.5-1.566 2.5-3.5c0-1.129-.389-2.123-.982-2.763 2.058-.715 3.954-.737 3.984-.737.551-.002.998-.45.997-1.002-.001-.551-.447-.998-.999-.998z" transform="translate(0, 0) scale(5, 8)" /><path fill="#FFDC5D" d="M32.942 11.244c-.041-.609-.284-1.18-.674-1.644l-.357-2.057c-.376-2.006-2.232-3.386-4.262-3.169L4.259 8.11C2.377 8.312.909 9.833.774 11.721l1.761 11.147c.305 2.169 2.151 3.788 4.341 3.813.677.008 1.238.017 1.463.027l9.483.463c-.363.483-.822 1.08-.822 1.718v.052c0 1.581 1.771 3.06 3.353 3.06h7.282c.76 0 1.488-.4 2.025-.938l4.424-4.472c.583-.584.887-1.416.832-2.24l-1.974-13.107z" transform="translate(200, 0) scale(5, 8)" /><path fill="#EF9645" d="M8.217 26.623c-.474 0-.895-.338-.983-.821L5.174 14.47c-.099-.543.262-1.064.805-1.163.546-.097 1.064.262 1.163.805l2.06 11.332c.099.543-.262 1.063-.805 1.162-.061.012-.121.017-.18.017zm6.181 0c-.517 0-.955-.398-.996-.923l-1.03-13.393c-.043-.551.37-1.031.92-1.074.549-.044 1.031.371 1.074.92l1.03 13.392c.043.551-.37 1.032-.92 1.074-.026.003-.053.004-.078.004zm7.207 1.106c-.508 0-.757-.001-.951-1.062l-.044-.003c.001-.055.007-.108.017-.161-.174-1.068-.309-3.069-.561-6.817-.235-3.49-.486-7.552-.486-8.485 0-.552.447-1 1-1 .553 0 1 .448 1 1 0 1.533.795 13.324.981 15.145.032.097.049.2.049.308 0 .266-.108.557-.295.744s-.444.331-.71.331z" transform="translate(200, 0) scale(5, 8)" /><path fill="#EF9645" d="M25.178 28.684H18.52c-.552 0-1-.447-1-1s.448-1 1-1h6.658c1.458 0 2.644-1.186 2.644-2.644V11.201c0-.552.447-1 1-1s1 .448 1 1V24.04c-.001 2.561-2.084 4.644-4.644 4.644z" transform="translate(200, 0) scale(5, 8)" /><defs transform="translate(200, 275)" /><g fill="#000000" transform="translate(200, 275)"><g transform="translate(0, 0)"><path d="M23.71 29.61L0 39.75L0 35.38L18.77 27.59L0 19.87L0 15.50L23.71 25.51L23.71 29.61Z" /></g></g></svg>