<?xml version='1.0' encoding='utf-8'?>
<svg xmlns="http://www.w3.org/2000/svg" width="400" height="400" viewBox="0 0 400 400" version="1.1"><!--description: вода во впадине --><path fill="#5DADEC" d="M28.344 17.768L18.148 1.09 8.7 17.654c-2.2 3.51-2.392 8.074-.081 11.854 3.285 5.373 10.363 7.098 15.811 3.857 5.446-3.24 7.199-10.22 3.914-15.597z" transform="translate(0, 0) scale(5, 10)" /><path fill="#A0041E" d="M16 31c8.837 0 16-7.163 16-16H0c0 8.837 7.164 16 16 16z" transform="translate(200, 0) scale(5, 10)" /><ellipse fill="#EA596E" cx="16" cy="15" rx="16.051" ry="8.917" transform="translate(200, 0) scale(5, 10)" /><ellipse fill="#662113" cx="16" cy="15" rx="14.641" ry="7.719" transform="translate(200, 0) scale(5, 10)" /><path fill="#99AAB5" d="M34 8c-1 0-4 1-8 4-4.525 3.394-7.596 2.187-7.596 2.187l.001.003C16.981 13.453 15.087 13 13 13c-4.418 0-8 2.015-8 4.5S8.582 22 13 22c2.773 0 5.216-.794 6.651-2 0 0 4.995-4.431 7.349-6 3-2 5-3 7-3s2-3 0-3z" transform="translate(200, 0) scale(5, 10)" /><ellipse fill="#CCD6DD" cx="13" cy="19" rx="5" ry="2.5" transform="translate(200, 0) scale(5, 10)" /></svg>