<?xml version='1.0' encoding='utf-8'?>
<svg xmlns="http://www.w3.org/2000/svg" width="400" height="400" viewBox="0 0 400 400" version="1.1"><!--description: делать из закрытого открытое --><path fill="#AAB8C2" d="M18 3C12.477 3 8 7.477 8 13v10h4V13c0-3.313 2.686-6 6-6s6 2.687 6 6v10h4V13c0-5.523-4.477-10-10-10z" transform="translate(0, 0) scale(5, 8)" /><path fill="#FFAC33" d="M31 32c0 2.209-1.791 4-4 4H9c-2.209 0-4-1.791-4-4V20c0-2.209 1.791-4 4-4h18c2.209 0 4 1.791 4 4v12z" transform="translate(0, 0) scale(5, 8)" /><path fill="#AAB8C2" d="M18 0c-4.612 0-8.483 3.126-9.639 7.371l3.855 1.052C12.91 5.876 15.233 4 18 4c3.313 0 6 2.687 6 6v10h4V10c0-5.522-4.477-10-10-10z" transform="translate(200, 0) scale(5, 8)" /><path fill="#FFAC33" d="M31 32c0 2.209-1.791 4-4 4H9c-2.209 0-4-1.791-4-4V20c0-2.209 1.791-4 4-4h18c2.209 0 4 1.791 4 4v12z" transform="translate(200, 0) scale(5, 8)" /><defs transform="translate(75, 275)" /><g fill="#000000" transform="translate(75, 275)"><g transform="translate(0, 0)"><path d="M0 29.61L0 25.51L23.71 15.50L23.71 19.87L4.91 27.59L23.71 35.38L23.71 39.75L0 29.61Z" /></g></g><defs transform="translate(275, 275)" /><g fill="#000000" transform="translate(275, 275)"><g transform="translate(0, 0)"><path d="M0 45.26L0 40.26L5.00 40.26L5.00 45.26L0 45.26Z" /></g></g></svg>