<?xml version='1.0' encoding='utf-8'?>
<svg xmlns="http://www.w3.org/2000/svg" width="400" height="400" viewBox="0 0 400 400" version="1.1"><!--description: красивая птица --><path fill="#292F33" d="M14.5 36c-.128 0-.256-.049-.354-.146-.195-.195-.195-.512 0-.707L16 33.293V31.5c0-.276.224-.5.5-.5s.5.224.5.5v2.207l-2.146 2.146c-.098.098-.226.147-.354.147z" transform="translate(0, 0) scale(5, 8)" /><path fill="#292F33" d="M16.5 34h-3c-.276 0-.5-.224-.5-.5s.224-.5.5-.5h3c.276 0 .5.224.5.5s-.224.5-.5.5zm5 2c-.128 0-.256-.049-.354-.146L19 33.707V31.5c0-.276.224-.5.5-.5s.5.224.5.5v1.793l1.854 1.854c.195.195.195.512 0 .707-.098.097-.226.146-.354.146z" transform="translate(0, 0) scale(5, 8)" /><path fill="#292F33" d="M22.5 34h-3c-.276 0-.5-.224-.5-.5s.224-.5.5-.5h3c.276 0 .5.224.5.5s-.224.5-.5.5z" transform="translate(0, 0) scale(5, 8)" /><path fill="#A6D388" d="M36 25.909C36 29.727 34.001 31 18 31S0 29.727 0 25.909C0 13.257 8.059 4 18 4s18 9.257 18 21.909z" transform="translate(0, 0) scale(5, 8)" /><path fill="#77B255" d="M18 29c-.209 0-.404-.133-.474-.342-.087-.262.054-.545.316-.633l16.5-5.5c.263-.086.545.055.633.316.087.262-.055.545-.316.633l-16.5 5.5c-.054.018-.107.026-.159.026zm0-3c-.155 0-.308-.071-.405-.207-.162-.224-.112-.536.111-.698l14.5-10.5c.222-.163.536-.112.698.111s.111.537-.112.698l-14.5 10.5c-.087.065-.19.096-.292.096zm0-4c-.091 0-.183-.024-.266-.077-.233-.146-.304-.456-.157-.689l8.5-13.5c.147-.234.458-.301.689-.157.234.147.304.456.157.69l-8.5 13.5c-.095.15-.257.233-.423.233z" transform="translate(0, 0) scale(5, 8)" /><circle fill="#55ACEE" cx="32.5" cy="27" r="2" transform="translate(0, 0) scale(5, 8)" /><circle fill="#55ACEE" cx="32.5" cy="20" r="2" transform="translate(0, 0) scale(5, 8)" /><circle fill="#55ACEE" cx="28.5" cy="13" r="2" transform="translate(0, 0) scale(5, 8)" /><circle fill="#55ACEE" cx="21.5" cy="8" r="2" transform="translate(0, 0) scale(5, 8)" /><circle fill="#55ACEE" cx="28" cy="28.5" r="1.5" transform="translate(0, 0) scale(5, 8)" /><circle fill="#55ACEE" cx="28" cy="22.5" r="1.5" transform="translate(0, 0) scale(5, 8)" /><circle fill="#55ACEE" cx="25" cy="16.5" r="1.5" transform="translate(0, 0) scale(5, 8)" /><circle fill="#55ACEE" cx="24.5" cy="29" r="1" transform="translate(0, 0) scale(5, 8)" /><circle fill="#55ACEE" cx="24.5" cy="24" r="1" transform="translate(0, 0) scale(5, 8)" /><circle fill="#55ACEE" cx="21.5" cy="20" r="1" transform="translate(0, 0) scale(5, 8)" /><path fill="#77B255" d="M17.5 29c-.052 0-.105-.008-.158-.025l-16.5-5.5c-.262-.088-.403-.371-.316-.633s.369-.405.632-.316l16.5 5.5c.262.088.403.371.316.633-.07.208-.265.341-.474.341zm0-3c-.102 0-.204-.031-.293-.095l-14.5-10.5c-.224-.162-.273-.475-.111-.698.161-.224.474-.274.698-.111l14.5 10.5c.224.162.273.475.111.698-.098.135-.251.206-.405.206zm0-4c-.166 0-.329-.083-.424-.233l-8.5-13.5c-.146-.234-.076-.543.157-.69.236-.146.543-.077.69.156l8.5 13.5c.147.233.077.543-.157.689-.082.054-.175.078-.266.078z" transform="translate(0, 0) scale(5, 8)" /><path fill="#77B255" d="M17.5 24c-.276 0-.5-.224-.5-.5v-18c0-.276.224-.5.5-.5s.5.224.5.5v18c0 .276-.224.5-.5.5z" transform="translate(0, 0) scale(5, 8)" /><path fill="#269" d="M15 16c-1-2 0-4 0-4s0 1 1 2c0-3 1-3 1-3s0 2 1 3-3 2-3 2zm7.997 13c-.433-2-1.725-3.061-2.559-4.5-.671-1.156-2.134-3.75-.132-6.618.532-.762-1.885-1.831-2.305-1.877v-.004l-.015.002-.015-.002v.004c-.42.046-2.837 1.115-2.305 1.877 2.002 2.868.538 5.462-.132 6.618-.834 1.439-2.126 2.5-2.559 4.5-.362 1.668 2.247 3.981 4.997 3.998v.001h.015L18 33v-.002c2.75-.017 5.358-2.33 4.997-3.998z" transform="translate(0, 0) scale(5, 8)" /><path fill="#292F33" d="M19 16c3 0 6 2 6 2s-3 1-6 0 0-2 0-2" transform="translate(0, 0) scale(5, 8)" /><circle fill="#269" cx="18" cy="16" r="3" transform="translate(0, 0) scale(5, 8)" /><circle fill="#292F33" cx="19" cy="16" r="1" transform="translate(0, 0) scale(5, 8)" /><circle fill="#55ACEE" cx="3" cy="27" r="2" transform="translate(0, 0) scale(5, 8)" /><circle fill="#55ACEE" cx="3" cy="20" r="2" transform="translate(0, 0) scale(5, 8)" /><circle fill="#55ACEE" cx="7" cy="13" r="2" transform="translate(0, 0) scale(5, 8)" /><circle fill="#55ACEE" cx="14" cy="8" r="2" transform="translate(0, 0) scale(5, 8)" /><circle fill="#55ACEE" cx="7.5" cy="28.5" r="1.5" transform="translate(0, 0) scale(5, 8)" /><circle fill="#55ACEE" cx="7.5" cy="22.5" r="1.5" transform="translate(0, 0) scale(5, 8)" /><circle fill="#55ACEE" cx="10.5" cy="16.5" r="1.5" transform="translate(0, 0) scale(5, 8)" /><circle fill="#55ACEE" cx="11" cy="29" r="1" transform="translate(0, 0) scale(5, 8)" /><circle fill="#55ACEE" cx="11" cy="24" r="1" transform="translate(0, 0) scale(5, 8)" /><circle fill="#55ACEE" cx="14" cy="20" r="1" transform="translate(0, 0) scale(5, 8)" /><path fill="#FFAC33" d="M34.347 16.893l-8.899-3.294-3.323-10.891c-.128-.42-.517-.708-.956-.708-.439 0-.828.288-.956.708l-3.322 10.891-8.9 3.294c-.393.146-.653.519-.653.938 0 .418.26.793.653.938l8.895 3.293 3.324 11.223c.126.424.516.715.959.715.442 0 .833-.291.959-.716l3.324-11.223 8.896-3.293c.391-.144.652-.518.652-.937 0-.418-.261-.792-.653-.938z" transform="translate(200, 0) scale(5, 8)" /><path fill="#FFCC4D" d="M14.347 27.894l-2.314-.856-.9-3.3c-.118-.436-.513-.738-.964-.738-.451 0-.846.302-.965.737l-.9 3.3-2.313.856c-.393.145-.653.52-.653.938 0 .418.26.793.653.938l2.301.853.907 3.622c.112.444.511.756.97.756.459 0 .858-.312.97-.757l.907-3.622 2.301-.853c.393-.144.653-.519.653-.937 0-.418-.26-.793-.653-.937zM10.009 6.231l-2.364-.875-.876-2.365c-.145-.393-.519-.653-.938-.653-.418 0-.792.26-.938.653l-.875 2.365-2.365.875c-.393.146-.653.52-.653.938 0 .418.26.793.653.938l2.365.875.875 2.365c.146.393.52.653.938.653.418 0 .792-.26.938-.653l.875-2.365 2.365-.875c.393-.146.653-.52.653-.938 0-.418-.26-.792-.653-.938z" transform="translate(200, 0) scale(5, 8)" /><defs transform="translate(75, 275)" /><g fill="#000000" transform="translate(75, 275)"><g transform="translate(0, 0)"><path d="M0 34.52L0 30.10L13.50 30.10L13.50 34.52L0 34.52Z" /></g></g><defs transform="translate(275, 275)" /><g fill="#000000" transform="translate(275, 275)"><g transform="translate(0, 0)"><path d="M0 34.52L0 30.10L13.50 30.10L13.50 34.52L0 34.52Z" /></g></g></svg>