<?xml version='1.0' encoding='utf-8'?>
<svg xmlns="http://www.w3.org/2000/svg" width="400" height="400" viewBox="0 0 400 400" version="1.1"><!--description: коробка с огнем --><path fill="#F4900C" d="M35 19c0-2.062-.367-4.039-1.04-5.868-.46 5.389-3.333 8.157-6.335 6.868-2.812-1.208-.917-5.917-.777-8.164.236-3.809-.012-8.169-6.931-11.794 2.875 5.5.333 8.917-2.333 9.125-2.958.231-5.667-2.542-4.667-7.042-3.238 2.386-3.332 6.402-2.333 9 1.042 2.708-.042 4.958-2.583 5.208-2.84.28-4.418-3.041-2.963-8.333C2.52 10.965 1 14.805 1 19c0 9.389 7.611 17 17 17s17-7.611 17-17z" transform="translate(0, 0) scale(5, 10)" /><path fill="#FFCC4D" d="M28.394 23.999c.148 3.084-2.561 4.293-4.019 3.709-2.106-.843-1.541-2.291-2.083-5.291s-2.625-5.083-5.708-6c2.25 6.333-1.247 8.667-3.08 9.084-1.872.426-3.753-.001-3.968-4.007C7.352 23.668 6 26.676 6 30c0 .368.023.73.055 1.09C9.125 34.124 13.342 36 18 36s8.875-1.876 11.945-4.91c.032-.36.055-.722.055-1.09 0-2.187-.584-4.236-1.606-6.001z" transform="translate(0, 0) scale(5, 10)" /><path fill="#662113" d="M4 11v12.375c0 2.042 1.093 2.484 1.093 2.484l11.574 9.099C18.489 36.39 18 33.375 18 33.375V22L4 11z" transform="translate(200, 0) scale(5, 10)" /><path fill="#C1694F" d="M32 11v12.375c0 2.042-1.063 2.484-1.063 2.484s-9.767 7.667-11.588 9.099C17.526 36.39 18 33.375 18 33.375V22l14-11z" transform="translate(200, 0) scale(5, 10)" /><path fill="#D99E82" d="M19.289.5c-.753-.61-1.988-.61-2.742 0L4.565 10.029c-.754.61-.754 1.607 0 2.216l12.023 9.646c.754.609 1.989.609 2.743 0l12.104-9.73c.754-.609.754-1.606 0-2.216L19.289.5z" transform="translate(200, 0) scale(5, 10)" /><path fill="#D99E82" d="M18 35.75c-.552 0-1-.482-1-1.078V21.745c0-.596.448-1.078 1-1.078.553 0 1 .482 1 1.078v12.927c0 .596-.447 1.078-1 1.078z" transform="translate(200, 0) scale(5, 10)" /><path fill="#99AAB5" d="M28 18.836c0 1.104.104 1.646-1 2.442l-2.469 1.878c-1.104.797-1.531.113-1.531-.992v-2.961c0-.193-.026-.4-.278-.608C20.144 16.47 10.134 8.519 8.31 7.051l4.625-3.678c1.266.926 10.753 8.252 14.722 11.377.197.156.343.328.343.516v3.57z" transform="translate(200, 0) scale(5, 10)" /><path fill="#CCD6DD" d="M27.656 14.75C23.688 11.625 14.201 4.299 12.935 3.373l-1.721 1.368-2.904 2.31c1.825 1.468 11.834 9.419 14.412 11.544.151.125.217.25.248.371L27.903 15c-.06-.087-.146-.171-.247-.25z" transform="translate(200, 0) scale(5, 10)" /><path fill="#CCD6DD" d="M28 18.836v-3.57c0-.188-.146-.359-.344-.516-3.968-3.125-13.455-10.451-14.721-11.377l-2.073 1.649c3.393 2.669 12.481 9.681 14.86 11.573.256.204.278.415.278.608v4.836l1-.761c1.104-.797 1-1.338 1-2.442z" transform="translate(200, 0) scale(5, 10)" /><path fill="#E1E8ED" d="M27.656 14.75C23.688 11.625 14.201 4.299 12.935 3.373l-2.073 1.649c3.393 2.669 12.481 9.681 14.86 11.573.037.029.06.059.087.088L27.903 15c-.06-.087-.146-.171-.247-.25z" transform="translate(200, 0) scale(5, 10)" /></svg>