<?xml version='1.0' encoding='utf-8'?>
<svg xmlns="http://www.w3.org/2000/svg" width="400" height="400" viewBox="0 0 400 400" version="1.1"><!--description: личность в роли --><path fill="#269" d="M24 26.799v-2.566c2-1.348 4.08-3.779 4.703-6.896.186.103.206.17.413.17.991 0 1.709-1.287 1.709-2.873 0-1.562-.823-2.827-1.794-2.865.187-.674.293-1.577.293-2.735C29.324 5.168 26 .527 18.541.527c-6.629 0-10.777 4.641-10.777 8.507 0 1.123.069 2.043.188 2.755-.911.137-1.629 1.352-1.629 2.845 0 1.587.804 2.873 1.796 2.873.206 0 .025-.067.209-.17C8.952 20.453 11 22.885 13 24.232v2.414c-5 .645-12 3.437-12 6.23v1.061C1 35 2.076 35 3.137 35h29.725C33.924 35 35 35 35 33.938v-1.061c0-2.615-6-5.225-11-6.078z" transform="translate(0, 0) scale(5, 8)" /><path fill="#A6D388" d="M22 4.587c0 6.075-3.667 18.333-11 18.333S0 10.663 0 4.587C0-2.593 8.25.92 11 .92c2.712 0 11-3.551 11 3.667z" transform="translate(200, 0) scale(5, 8)" /><path fill="#5C913B" d="M5.5 11.92c4.583 2.75 7.333 2.75 11 0 2.75-1.833-1.833 6.417-5.5 6.417s-8.25-8.25-5.5-6.417zM3.666 8.254c-.138 0-.278-.031-.41-.097-.452-.226-.636-.777-.409-1.23.636-1.272 1.933-2.15 3.303-2.235.839-.047 2.458.155 3.779 2.137.281.421.167.99-.254 1.271-.423.281-.991.167-1.271-.254-.61-.915-1.355-1.374-2.14-1.324-.73.045-1.428.526-1.777 1.226-.161.32-.485.506-.821.506zm14.668 0c-.336 0-.66-.186-.82-.507-.35-.699-1.047-1.18-1.777-1.226-.776-.042-1.529.409-2.14 1.324-.282.422-.85.535-1.271.254-.421-.281-.535-.85-.254-1.271 1.32-1.983 2.931-2.186 3.779-2.137 1.37.085 2.667.963 3.303 2.235.227.453.043 1.003-.41 1.23-.132.067-.272.098-.41.098z" transform="translate(200, 0) scale(5, 8)" /><path fill="#CBB7EA" d="M36 17.667C36 23.741 32.333 36 25 36S14 23.741 14 17.667C14 10.486 22.25 14 25 14c2.713 0 11-3.552 11 3.667z" transform="translate(200, 0) scale(5, 8)" /><path fill="#9266CC" d="M29.5 30.151C26 28 24 28 20.5 30.151c-2.75 1.833.833-4.417 4.5-4.417s7.25 6.25 4.5 4.417zM17 21.917c-.138 0-.278-.031-.41-.097-.453-.226-.636-.777-.41-1.23.7-1.399 2.404-2.49 4.051-2.592 1.489-.099 2.815.585 3.698 1.911.281.422.167.99-.254 1.272-.421.281-.99.167-1.271-.254-.522-.782-1.215-1.148-2.059-1.099-1.121.069-2.164.859-2.526 1.583-.16.32-.484.506-.819.506zm16.001 0c-.337 0-.66-.186-.821-.508-.36-.723-1.403-1.512-2.524-1.582-.842-.047-1.539.316-2.06 1.099-.28.421-.851.535-1.271.254-.421-.281-.535-.85-.254-1.272.884-1.326 2.188-2.009 3.699-1.911 1.648.103 3.352 1.194 4.051 2.593.226.452.042 1.003-.411 1.229-.132.067-.271.098-.409.098z" transform="translate(200, 0) scale(5, 8)" /><defs transform="translate(75, 275)" /><g fill="#000000" transform="translate(75, 275)"><g transform="translate(0, 0)"><path d="M0 55.79L0 8.86L3.83 8.86L3.83 55.79L0 55.79ZM12.99 55.79L12.99 8.86L16.82 8.86L16.82 55.79L12.99 55.79Z" /></g></g><defs transform="translate(275, 275)" /><g fill="#000000" transform="translate(275, 275)"><g transform="translate(0, 0)"><path d="M0 34.52L0 30.10L13.50 30.10L13.50 34.52L0 34.52Z" /></g></g></svg>