<?xml version='1.0' encoding='utf-8'?>
<svg xmlns="http://www.w3.org/2000/svg" width="400" height="400" viewBox="0 0 400 400" version="1.1"><!--description: земля в крошку, измельченная земля --><circle fill="#88C9F9" cx="18" cy="18" r="18" transform="translate(0, 0) scale(5, 10)" /><path fill="#5C913B" d="M25.716 1.756c-1.022.568-1.872 1.528-3.028 1.181-1.875-.562-4.375-1.812-6-.25s-2 3 0 2.938 3.375-2.438 4.375-1.438.749 1.813-1.625 2.125S14.5 7 13.125 7s-1.688.812-.75 1.688-.563.937-2.125 1.812.375 1.25 1.688 2 2.312-.188 2.875-1.438 2.981-2.75 3.99-2.562c1.01.188 1.01.688.822 1.562s.75.625.812-.375 1.188-1.75 2.062-1.812 1.625 1.188.625 1.812-2 1.125-.75 1.438 2.125 1.938.688 2.625-3.937 1.125-5.062.562-3.688-1.375-4.375-.938-1.062.89-1.875 1.195c-.812.305-4.125 1.805-4.188 3.743S7.438 22.438 8.75 22.5s4.5-.812 5.5-1.625 2.375-.625 2.812.312.125 1.5-.312 3 .286 2.25.987 3.562c.701 1.312 1.263 2.062 1.263 3s1 1.875 2.5.312 2.875-4.625 3.5-5.75 1.125-3.625 1.875-4.125 1.938-1.688 1.062-1.5-2.625-.062-3.062-1.312-2.312-3.625-1.438-3.875 1.875 1.39 2.25 2.164c.375.774.875 1.711 1.625 1.961s2.375-1.673 2.875-1.961c.5-.289.125-1.476-.875-1.351s-2.312 0-2.312-.624 1.25-1.438 2.25-1.25 1.75.5 2.375 1.25 1.875 2.125 2.375 3 .875 1 1.125-.562c.166-1.038.387-1.609.59-2.222-1.013-5.829-4.82-10.683-9.999-13.148z" transform="translate(0, 0) scale(5, 10)" /><g fill="#DD2E44" transform="translate(200, 0) scale(5, 10)"><path d="M13.589 26.521c-.297-.495-.284-1.117.035-1.599l4.395-6.646-5.995-5.139c-.556-.476-.686-1.283-.31-1.911l4.304-7.172c-1.669-1.301-3.755-2.09-6.035-2.09-5.45 0-9.868 4.417-9.868 9.868 0 .772.098 1.52.266 2.241C1.751 22.587 11.216 31.568 18 34.034c.025-.009.052-.022.077-.032l-4.488-7.481z" /><path d="M26.018 1.966c-2.765 0-5.248 1.151-7.037 2.983l-4.042 6.737 6.039 5.176c.574.492.691 1.335.274 1.966l-4.604 6.962 4.161 6.935c6.338-3.529 13.621-11.263 14.809-18.649.17-.721.268-1.469.268-2.241-.001-5.452-4.419-9.869-9.868-9.869z" /></g></svg>