<?xml version='1.0' encoding='utf-8'?>
<svg xmlns="http://www.w3.org/2000/svg" width="400" height="400" viewBox="0 0 400 400" version="1.1"><!--description: то, что поют --><path fill="#8899A6" d="M35.999 11.917c0 3.803-3.082 6.885-6.885 6.885-3.802 0-6.884-3.082-6.884-6.885 0-3.802 3.082-6.884 6.884-6.884 3.803 0 6.885 3.082 6.885 6.884z" transform="translate(0, 0) scale(5, 8)" /><path fill="#31373D" d="M32.81 18.568c-.336.336-.881.336-1.217 0L22.466 9.44c-.336-.336-.336-.881 0-1.217l1.217-1.217c.336-.336.881-.336 1.217 0l9.127 9.128c.336.336.336.881 0 1.217l-1.217 1.217zm-6.071.136l-4.325-4.327c-.778-.779-1.995-.733-2.719.101l-9.158 10.574c-1.219 1.408-1.461 3.354-.711 4.73l-4.911 4.912 1.409 1.409 4.877-4.877c1.381.84 3.411.609 4.862-.648l10.575-9.157c.834-.723.881-1.94.101-2.717z" transform="translate(0, 0) scale(5, 8)" /><path fill="#55ACEE" d="M4 6v8.122C3.686 14.047 3.352 14 3 14c-1.657 0-3 .896-3 2s1.343 2 3 2 3-.896 3-2V9.889l5 2.222v5.011c-.314-.075-.648-.122-1-.122-1.657 0-3 .896-3 2s1.343 2 3 2 2.999-.896 3-2v-9L4 6zm14-5v8.123C17.685 9.048 17.353 9 17 9c-1.657 0-3 .895-3 2 0 1.104 1.343 2 3 2 1.656 0 3-.896 3-2V1h-2z" transform="translate(0, 0) scale(5, 8)" /><path fill="#E1E8ED" d="M32.415 9.586l-9-9C23.054.225 22.553 0 22 0c-1.104 0-1.999.896-2 2 0 .552.224 1.053.586 1.415l-3.859 3.859 9 9 3.859-3.859c.362.361.862.585 1.414.585 1.104 0 2.001-.896 2-2 0-.552-.224-1.052-.585-1.414z" transform="translate(200, 0) scale(5, 8)" /><path fill="#CCD6DD" d="M22 0H7C4.791 0 3 1.791 3 4v28c0 2.209 1.791 4 4 4h22c2.209 0 4-1.791 4-4V11h-9c-1 0-2-1-2-2V0z" transform="translate(200, 0) scale(5, 8)" /><path fill="#99AAB5" d="M22 0h-2v9c0 2.209 1.791 4 4 4h9v-2h-9c-1 0-2-1-2-2V0zm-5 8c0 .552-.448 1-1 1H8c-.552 0-1-.448-1-1s.448-1 1-1h8c.552 0 1 .448 1 1zm0 4c0 .552-.448 1-1 1H8c-.552 0-1-.448-1-1s.448-1 1-1h8c.552 0 1 .448 1 1zm12 4c0 .552-.447 1-1 1H8c-.552 0-1-.448-1-1s.448-1 1-1h20c.553 0 1 .448 1 1zm0 4c0 .553-.447 1-1 1H8c-.552 0-1-.447-1-1 0-.553.448-1 1-1h20c.553 0 1 .447 1 1zm0 4c0 .553-.447 1-1 1H8c-.552 0-1-.447-1-1 0-.553.448-1 1-1h20c.553 0 1 .447 1 1zm0 4c0 .553-.447 1-1 1H8c-.552 0-1-.447-1-1 0-.553.448-1 1-1h20c.553 0 1 .447 1 1z" transform="translate(200, 0) scale(5, 8)" /><defs transform="translate(75, 275)" /><g fill="#000000" transform="translate(75, 275)"><g transform="translate(0, 0)"><path d="M0 55.79L0 8.86L3.83 8.86L3.83 55.79L0 55.79ZM12.99 55.79L12.99 8.86L16.82 8.86L16.82 55.79L12.99 55.79Z" /></g></g><defs transform="translate(275, 275)" /><g fill="#000000" transform="translate(275, 275)"><g transform="translate(0, 0)"><path d="M0 34.52L0 30.10L13.50 30.10L13.50 34.52L0 34.52Z" /></g></g></svg>