<?xml version='1.0' encoding='utf-8'?>
<svg xmlns="http://www.w3.org/2000/svg" width="400" height="400" viewBox="0 0 400 400" version="1.1"><!--description: принимать жидкость ртом --><path fill="#E75A70" d="M29 12c-4.688-3.515-6-6-8-6s-2 1-3 1-1-1-3-1-3.313 2.485-8 6c-4 3-7 3-7 5s5 6 8 9c2 2 5 4 10 4s8-2 10-4c3-3 8-7 8-9s-3-2-7-5z" transform="translate(0, 0) scale(5, 8)" /><path fill="#662113" d="M28.389 15.5C23.963 14.035 21 13.417 18 13.417s-5.962.618-10.389 2.083C3.833 16.75 1 16.167 1 17c0 .834 9 5 17 5s17-4.166 17-5c0-.833-2.834-.25-6.611-1.5z" transform="translate(0, 0) scale(5, 8)" /><path fill="#FFF" d="M28.389 15.5C23.963 14.035 21 13.417 18 13.417s-5.962.618-10.389 2.083c-3.624 1.199-6.371.715-6.59 1.408 2.454.385 9.119-.644 16.979-.644s14.524 1.029 16.979.644c-.219-.693-2.967-.209-6.59-1.408z" transform="translate(0, 0) scale(5, 8)" /><path fill="#5DADEC" d="M28.344 17.768L18.148 1.09 8.7 17.654c-2.2 3.51-2.392 8.074-.081 11.854 3.285 5.373 10.363 7.098 15.811 3.857 5.446-3.24 7.199-10.22 3.914-15.597z" transform="translate(200, 0) scale(5, 8)" /><defs transform="translate(75, 275)" /><g fill="#000000" transform="translate(75, 275)"><g transform="translate(0, 0)"><path d="M0 55.79L0 8.86L3.83 8.86L3.83 55.79L0 55.79ZM12.99 55.79L12.99 8.86L16.82 8.86L16.82 55.79L12.99 55.79Z" /></g></g><defs transform="translate(275, 275)" /><g fill="#000000" transform="translate(275, 275)"><g transform="translate(0, 0)"><path d="M0 45.26L0 40.26L5.00 40.26L5.00 45.26L0 45.26Z" /></g></g></svg>