<?xml version='1.0' encoding='utf-8'?>
<svg xmlns="http://www.w3.org/2000/svg" width="400" height="400" viewBox="0 0 400 400" version="1.1"><!--description: человек, который пишет --><path fill="#CCD6DD" d="M31 32c0 2.209-1.791 4-4 4H5c-2.209 0-4-1.791-4-4V4c0-2.209 1.791-4 4-4h22c2.209 0 4 1.791 4 4v28z" transform="translate(0, 0) scale(5, 8)" /><path fill="#99AAB5" d="M27 24c0 .553-.447 1-1 1H6c-.552 0-1-.447-1-1 0-.553.448-1 1-1h20c.553 0 1 .447 1 1zm-16 4c0 .553-.448 1-1 1H6c-.552 0-1-.447-1-1 0-.553.448-1 1-1h4c.552 0 1 .447 1 1zM27 8c0 .552-.447 1-1 1H6c-.552 0-1-.448-1-1s.448-1 1-1h20c.553 0 1 .448 1 1zm0 4c0 .553-.447 1-1 1H6c-.552 0-1-.447-1-1 0-.553.448-1 1-1h20c.553 0 1 .447 1 1zm0 4c0 .553-.447 1-1 1H6c-.552 0-1-.447-1-1 0-.553.448-1 1-1h20c.553 0 1 .447 1 1zm0 4c0 .553-.447 1-1 1H6c-.552 0-1-.447-1-1 0-.553.448-1 1-1h20c.553 0 1 .447 1 1z" transform="translate(0, 0) scale(5, 8)" /><path fill="#66757F" d="M31 6.272c-.827-.535-1.837-.579-2.521-.023l-.792.646-1.484 1.211-.1.08-2.376 1.938-11.878 9.686c-.437.357-.793 1.219-1.173 2.074-.378.85-.969 2.852-1.443 4.391-.148.25-1.065 1.846-.551 2.453.52.615 2.326.01 2.568-.076 1.626-.174 3.731-.373 4.648-.58.924-.211 1.854-.395 2.291-.752.008-.006.01-.018.017-.023l11.858-9.666.792-.646.144-.118V6.272z" transform="translate(0, 0) scale(5, 8)" /><path fill="#D99E82" d="M18.145 22.526s-1.274-1.881-2.117-2.553c-.672-.843-2.549-2.116-2.549-2.116-.448-.446-1.191-.48-1.629-.043-.437.438-.793 1.366-1.173 2.291-.472 1.146-1.276 4.154-1.768 5.752-.083.272.517-.45.503-.21-.01.187.027.394.074.581l-.146.159.208.067c.025.082.05.154.068.21l.159-.146c.187.047.394.084.58.074.24-.014-.483.587-.21.503 1.598-.493 4.607-1.296 5.752-1.768.924-.381 1.854-.736 2.291-1.174.439-.435.406-1.178-.043-1.627z" transform="translate(0, 0) scale(5, 8)" /><path fill="#EA596E" d="M25.312 4.351c-.876.875-.876 2.293 0 3.168l3.167 3.168c.876.874 2.294.874 3.168 0l3.169-3.168c.874-.875.874-2.293 0-3.168l-3.169-3.168c-.874-.875-2.292-.875-3.168 0l-3.167 3.168z" transform="translate(0, 0) scale(5, 8)" /><path fill="#FFCC4D" d="M11.849 17.815l3.17 3.17 3.165 3.166 11.881-11.879-6.337-6.336-11.879 11.879z" transform="translate(0, 0) scale(5, 8)" /><path fill="#292F33" d="M11.298 26.742s-2.06 1.133-2.616.576c-.557-.558.581-2.611.581-2.611s1.951.036 2.035 2.035z" transform="translate(0, 0) scale(5, 8)" /><path fill="#CCD6DD" d="M23.728 5.935l3.96-3.96 6.336 6.337-3.96 3.96z" transform="translate(0, 0) scale(5, 8)" /><path fill="#99AAB5" d="M26.103 3.558l.792-.792 6.336 6.335-.792.792zM24.52 5.142l.791-.791 6.336 6.335-.792.792z" transform="translate(0, 0) scale(5, 8)" /><path fill="#FFDC5D" d="M8 19c0 2.209-1.119 4-2.5 4S3 21.209 3 19s1.119-4 2.5-4S8 16.791 8 19zm25 0c0 2.209-1.119 4-2.5 4S28 21.209 28 19s1.119-4 2.5-4 2.5 1.791 2.5 4z" transform="translate(200, 0) scale(5, 8)" /><path fill="#FFDC5D" d="M5 20.562c0-8.526 5.82-15.438 13-15.438s13 6.912 13 15.438S25.18 36 18 36 5 29.088 5 20.562z" transform="translate(200, 0) scale(5, 8)" /><path fill="#662113" d="M13 20c-.552 0-1-.447-1-1v-2c0-.552.448-1 1-1s1 .448 1 1v2c0 .553-.448 1-1 1zm10 0c-.553 0-1-.447-1-1v-2c0-.552.447-1 1-1s1 .448 1 1v2c0 .553-.447 1-1 1z" transform="translate(200, 0) scale(5, 8)" /><path fill="#C1694F" d="M19 24h-2c-.552 0-1-.447-1-1s.448-1 1-1h2c.553 0 1 .447 1 1s-.447 1-1 1z" transform="translate(200, 0) scale(5, 8)" /><path fill="#FFAC33" d="M25.274 27.038l-3.294-.941c.003-.034.02-.063.02-.097 0-.553-.447-1-1-1h-6c-.552 0-1 .447-1 1 0 .034.016.063.019.097l-3.294.941c-.531.152-.838.706-.686 1.236.125.44.525.726.961.726.091 0 .184-.013.275-.038l1.931-.552c-.216.293-.274.688-.1 1.037.175.351.528.553.895.553.15 0 .303-.034.446-.105l1.577-.788c.036.326.213.631.529.788.143.071.296.105.446.105.367 0 .72-.202.896-.553l.105-.211.105.211c.176.351.529.553.896.553.15 0 .303-.034.446-.105.315-.157.493-.462.529-.788l1.576.788c.144.071.297.105.447.105.367 0 .72-.202.896-.553.174-.349.116-.744-.1-1.037l1.931.552c.091.025.183.038.275.038.434 0 .835-.286.961-.726.151-.53-.156-1.084-.688-1.236zM18 0c8.615 0 14 6.358 14 11.656 0 5.298-1.077 7.417-2.154 5.298l-2.153-4.238s-6.462 0-8.615-2.12c0 0 3.23 6.358-3.231 0 0 0 1.077 4.239-5.385-1.06 0 0-3.23 2.12-4.308 7.417C5.855 18.423 4 16.954 4 11.656 4 6.357 8.308 0 18 0z" transform="translate(200, 0) scale(5, 8)" /><defs transform="translate(75, 275)" /><g fill="#000000" transform="translate(75, 275)"><g transform="translate(0, 0)"><path d="M0 55.79L0 8.86L3.83 8.86L3.83 55.79L0 55.79ZM12.99 55.79L12.99 8.86L16.82 8.86L16.82 55.79L12.99 55.79Z" /></g></g><defs transform="translate(275, 275)" /><g fill="#000000" transform="translate(275, 275)"><g transform="translate(0, 0)"><path d="M0 34.52L0 30.10L13.50 30.10L13.50 34.52L0 34.52Z" /></g></g></svg>