<?xml version='1.0' encoding='utf-8'?>
<svg xmlns="http://www.w3.org/2000/svg" width="400" height="400" viewBox="0 0 400 400" version="1.1"><!--description: место, где варят пиво --><path fill="#FFAC33" d="M31 5.718h-6v4h4s2 0 2 2v12c0 2-2 2-2 2h-4v4h6c2.206 0 4-1.794 4-4v-16c0-2.206-1.794-4-4-4z" transform="translate(0, 0) scale(5, 8)" /><path fill="#FFCC4D" d="M27 6H3v26c0 2.209 1.791 4 4 4h16c2.209 0 4-1.791 4-4V6z" transform="translate(0, 0) scale(5, 8)" /><path fill="#F4900C" d="M8.5 32c-.552 0-1-.447-1-1V15c0-.552.448-1 1-1s1 .448 1 1v16c0 .553-.448 1-1 1zm6.5 0c-.552 0-1-.447-1-1V15c0-.552.448-1 1-1s1 .448 1 1v16c0 .553-.448 1-1 1zm6.5 0c-.553 0-1-.447-1-1V15c0-.552.447-1 1-1s1 .448 1 1v16c0 .553-.447 1-1 1z" transform="translate(0, 0) scale(5, 8)" /><path fill="#FFAC33" d="M3 5v7.445c.59.344 1.268.555 2 .555 1.674 0 3.104-1.031 3.701-2.491.35.302.801.491 1.299.491.677 0 1.273-.338 1.635-.853C12.345 11.258 13.583 12 15 12c1.301 0 2.445-.631 3.176-1.593C18.54 11.338 19.44 12 20.5 12c.949 0 1.765-.535 2.188-1.314l.147-.361c.497.271 1.059.439 1.665.439.981 0 1.865-.406 2.5-1.056V5H3z" transform="translate(0, 0) scale(5, 8)" /><path fill="#EEE" d="M24 0H4C2.343 0 1 1.343 1 3v4c0 2.209 1.791 4 4 4 1.674 0 3.104-1.031 3.701-2.491.35.302.801.491 1.299.491.677 0 1.273-.338 1.635-.853C12.345 9.258 13.583 10 15 10c1.301 0 2.445-.631 3.176-1.593C18.54 9.338 19.44 10 20.5 10c.949 0 1.765-.535 2.188-1.314.398.195.839.314 1.312.314 1.657 0 3-1.343 3-3V3c0-1.657-1.343-3-3-3z" transform="translate(0, 0) scale(5, 8)" /><path fill="#BE1931" d="M10.308 9H5.692l-.154 2h4.924zM10 5H6l-.154 2h4.308zm.615 8h-5.23l-.154 2h5.538zM5 18h6l-.077-1H5.077zm15.615-5h-5.23l-.154 2h5.538zM15 18h6l-.077-1h-5.846zm5.308-9h-4.616l-.154 2h4.924zM20 5h-4l-.154 2h4.308zm10.308 4h-4.616l-.154 2h4.924zm-5.231 8L25 18h6l-.077-1zm5.538-4h-5.23l-.154 2h5.538zM30 5h-4l-.154 2h4.308z" transform="translate(200, 0) scale(5, 8)" /><path fill="#E6E7E8" d="M10.462 11H5.538l-.153 2h5.23zm-.308-4H5.846l-.154 2h4.616zm-4.923 8l-.154 2h5.846l-.154-2zm15.231-4h-4.924l-.153 2h5.23zm-.308-4h-4.308l-.154 2h4.616zm-4.923 8l-.154 2h5.846l-.154-2zm15.231-4h-4.924l-.153 2h5.23zm.307 4h-5.538l-.154 2h5.846zm-.615-8h-4.308l-.154 2h4.616z" transform="translate(200, 0) scale(5, 8)" /><path fill="#A0041E" d="M35 34c0 1.104-.896 2-2 2H3c-1.104 0-2-.896-2-2V20c0-1.104.896-2 2-2h30c1.104 0 2 .896 2 2v14z" transform="translate(200, 0) scale(5, 8)" /><path fill="#C1694F" d="M1 20h34v2H1z" transform="translate(200, 0) scale(5, 8)" /><path fill="#AAB8C2" d="M6 24h4v4H6zm10 0h4v4h-4zm10 0h4v4h-4zM6 30h4v4H6zm10 0h4v4h-4zm10 0h4v4h-4z" transform="translate(200, 0) scale(5, 8)" /><path fill="#D1D3D4" d="M9 0C7.896 0 7 .896 7 2c0 .457.159.873.417 1.209C7.17 3.392 7 3.67 7 4c0 .552.448 1 1 1s1-.448 1-1c1.104 0 2-.896 2-2s-.896-2-2-2zm10 0c-1.104 0-2 .896-2 2 0 .457.159.873.417 1.209C17.17 3.392 17 3.67 17 4c0 .552.448 1 1 1s1-.448 1-1c1.104 0 2-.896 2-2s-.896-2-2-2zm10 0c-1.104 0-2 .896-2 2 0 .457.159.873.417 1.209C27.17 3.392 27 3.67 27 4c0 .552.447 1 1 1s1-.448 1-1c1.104 0 2-.896 2-2s-.896-2-2-2z" transform="translate(200, 0) scale(5, 8)" /><defs transform="translate(75, 275)" /><g fill="#000000" transform="translate(75, 275)"><g transform="translate(0, 0)"><path d="M0 55.79L0 8.86L3.83 8.86L3.83 55.79L0 55.79ZM12.99 55.79L12.99 8.86L16.82 8.86L16.82 55.79L12.99 55.79Z" /></g></g><defs transform="translate(275, 275)" /><g fill="#000000" transform="translate(275, 275)"><g transform="translate(0, 0)"><path d="M0 34.52L0 30.10L13.50 30.10L13.50 34.52L0 34.52Z" /></g></g></svg>