<?xml version='1.0' encoding='utf-8'?>
<svg xmlns="http://www.w3.org/2000/svg" width="400" height="400" viewBox="0 0 400 400" version="1.1"><!--description: мастер по дереву --><path fill="#662113" d="M17.34 1.835C11.231 2.323 9 5.399 9 8.34c0 2.101-.348 17.904-.348 20.005s2.071 4.385 4.946 5.703c4.186 1.919 14.663 1.074 14.569-5.926-.107-7.999.045-18.757.045-18.757-.001-5.213-4.845-8.012-10.872-7.53z" transform="translate(0, 0) scale(5, 8)" /><path fill="#C1694F" d="M10.948 10.993c3.768 3.14 9.956 2.961 13.601 1.026 3.5-1.858 3.796-4.882 1.488-7.288C24.07 2.68 19.365 1.6 15.311 2.524c-4.561 1.04-8.058 5.389-4.363 8.469z" transform="translate(0, 0) scale(5, 8)" /><path fill="#FFE8B6" d="M11.949 10.568c3.271 2.726 8.37 2.407 11.807.891 3.147-1.389 3.52-4.01 1.292-6.327-1.71-1.778-5.792-2.718-9.312-1.916-3.959.902-6.995 4.678-3.787 7.352z" transform="translate(0, 0) scale(5, 8)" /><path fill="#662113" d="M9.142 15.03c-1.223-.876-3.315-2.484-3.81-2.804-.81-.525-2.583 1.725-1.219 3.512s4.088 4.296 4.746 7.729c.659 3.433.283-8.437.283-8.437z" transform="translate(0, 0) scale(5, 8)" /><ellipse transform="translate(0, 0) scale(5, 8)" fill="#C1694F" cx="4.876" cy="13.818" rx="1.167" ry=".706" /><path fill="#D99E82" d="M18.666 11.588c-2.247 0-4.511-.762-5.608-1.658-.808-.66-1.223-1.544-1.138-2.425.068-.703.489-1.723 2.109-2.591 2.326-1.247 4.73-1.616 6.949-1.069 2.296.564 4.698 2.357 4.477 4.026-.236 1.768-3.604 3.299-5.267 3.59-.497.087-1.008.127-1.522.127zm.273-6.988c-1.451 0-2.958.403-4.438 1.196-.973.521-1.521 1.146-1.585 1.806-.053.542.23 1.109.775 1.554 1.183.966 4.009 1.728 6.326 1.32 1.747-.306 4.313-1.742 4.447-2.737.128-.962-1.752-2.438-3.724-2.923-.587-.145-1.189-.216-1.801-.216z" transform="translate(0, 0) scale(5, 8)" /><path fill="#D99E82" d="M18.432 9.424c-.986 0-1.906-.24-2.423-.663-.433-.354-.654-.835-.607-1.321.037-.38.255-.926 1.084-1.371.629-.337 2.067-.645 3.043-.544 1.105.111 2.625.869 2.589 1.853-.059 1.524-1.646 1.789-2.697 1.964-.329.055-.663.082-.989.082zm.687-2.918c-.79 0-1.784.243-2.162.445-.337.181-.542.394-.56.585-.014.145.077.313.244.45.402.329 1.489.556 2.615.37 1.406-.234 1.841-.472 1.861-1.016-.039-.213-.846-.736-1.688-.82-.098-.009-.202-.014-.31-.014z" transform="translate(0, 0) scale(5, 8)" /><path fill="#292F33" d="M14.213 34.188l.401-6.282.49 6.594zm11.985-1.648l.178-7.352.49 6.594z" transform="translate(0, 0) scale(5, 8)" /><path fill="#C1694F" d="M15.639 22.827l.712-4.589.09 4.99.445 4.722zm5.257 11.138l-.178-9.98.846 7.396zm2.762-13.812l.134-6.327.511 3.574c.016.111.01.224-.019.333l-.626 2.42z" transform="translate(0, 0) scale(5, 8)" /><path fill="#CCD6DD" d="M36 36v-2c0-3.314-2.686-6-6-6H14c-3.313 0-6 2.686-6 6v2h28z" transform="translate(200, 0) scale(5, 8)" /><path fill="#FFDC5D" d="M17.64 28.038c0 2.846 8.72 2.962 8.72 0v-3.749h-8.72v3.749z" transform="translate(200, 0) scale(5, 8)" /><path fill="#F9CA55" d="M17.632 25.973c1.216 1.374 2.724 1.746 4.364 1.746 1.639 0 3.146-.373 4.363-1.746v-3.491h-8.728v3.491z" transform="translate(200, 0) scale(5, 8)" /><path fill="#FFDC5D" d="M15.444 15.936c0 1.448-.734 2.622-1.639 2.622s-1.639-1.174-1.639-2.622.734-2.623 1.639-2.623c.905-.001 1.639 1.174 1.639 2.623m16.389 0c0 1.448-.733 2.622-1.639 2.622-.905 0-1.639-1.174-1.639-2.622s.733-2.623 1.639-2.623c.906-.001 1.639 1.174 1.639 2.623" transform="translate(200, 0) scale(5, 8)" /><path fill="#FFDC5D" d="M13.477 16.959c0-5.589 3.816-10.121 8.523-10.121s8.522 4.532 8.522 10.121S26.707 27.08 22 27.08c-4.706 0-8.523-4.531-8.523-10.121" transform="translate(200, 0) scale(5, 8)" /><path fill="#C1694F" d="M22 23.802c-2.754 0-3.6-.705-3.741-.848-.256-.256-.256-.671 0-.927.248-.248.646-.255.902-.023.052.037.721.487 2.839.487 2.2 0 2.836-.485 2.842-.49.256-.255.657-.243.913.015.256.256.242.683-.014.938-.141.143-.987.848-3.741.848" transform="translate(200, 0) scale(5, 8)" /><path fill="#FFAC33" d="M22 3.48c5.648 0 9.178 4.168 9.178 7.641s-.706 4.863-1.412 3.473l-1.412-2.778s-4.235 0-5.647-1.39c0 0 2.118 4.168-2.118 0 0 0 .706 2.779-3.53-.694 0 0-2.118 1.389-2.824 4.862-.196.964-1.412 0-1.412-3.473C12.822 7.648 15.646 3.48 22 3.48" transform="translate(200, 0) scale(5, 8)" /><path fill="#662113" d="M18 17c-.55 0-1-.45-1-1v-1c0-.55.45-1 1-1s1 .45 1 1v1c0 .55-.45 1-1 1m8 0c-.55 0-1-.45-1-1v-1c0-.55.45-1 1-1s1 .45 1 1v1c0 .55-.45 1-1 1" transform="translate(200, 0) scale(5, 8)" /><path fill="#C1694F" d="M22.75 19.75h-1.5c-.413 0-.75-.337-.75-.75s.337-.75.75-.75h1.5c.413 0 .75.337.75.75s-.337.75-.75.75" transform="translate(200, 0) scale(5, 8)" /><path fill="#269" d="M13 28h3v8h-3zm15 0h3v8h-3z" transform="translate(200, 0) scale(5, 8)" /><path fill="#269" d="M30 31H14l-.875 5H31z" transform="translate(200, 0) scale(5, 8)" /><path fill="#3B88C3" d="M31.056 9.5c0 1.32-4.092 0-9 0-4.909 0-9 1.32-9 0 0-3.547 1-8.5 9-8.5 7 0 9 4.953 9 8.5z" transform="translate(200, 0) scale(5, 8)" /><path fill="#269" d="M13.111 9.5s-.5 3 1.5 3c1 0 2.5-2 7.5-2s6.5 2 7.5 2c2 0 1.5-3 1.5-3s-1.5.5-9 .5-9-.5-9-.5z" transform="translate(200, 0) scale(5, 8)" /><path fill="#55ACEE" d="M13.056 9s-.5 3 1.5 3c1 0 2.5-2 7.5-2s6.5 2 7.5 2c2 0 1.5-3 1.5-3s-1.5.5-9 .5-9-.5-9-.5z" transform="translate(200, 0) scale(5, 8)" /><path fill="#269" d="M20.556 1.5s0-1.5 1.5-1.5 1.5 1.5 1.5 1.5h-3z" transform="translate(200, 0) scale(5, 8)" /><ellipse fill="#F5F8FA" cx="27.75" cy="33.75" rx="2.25" ry="1.25" transform="translate(200, 0) scale(5, 8)" /><path fill="#66757F" d="M6.99 19.481l.012 4.409c0 .553-1.006 1.003-2.249 1.005-1.242.003-2.25-.443-2.251-.995l-.01-4.408c-1.48.807-2.494 2.359-2.492 4.164.007 2.622 2.137 4.746 4.761 4.74 2.624-.007 4.746-2.139 4.74-4.762-.005-1.804-1.026-3.352-2.511-4.153z" transform="translate(200, 0) scale(5, 8)" /><path fill="#66757F" d="M3.25 27.396h3V36h-3z" transform="translate(200, 0) scale(5, 8)" /><defs transform="translate(75, 275)" /><g fill="#000000" transform="translate(75, 275)"><g transform="translate(0, 0)"><path d="M0 55.79L0 8.86L3.83 8.86L3.83 55.79L0 55.79ZM12.99 55.79L12.99 8.86L16.82 8.86L16.82 55.79L12.99 55.79Z" /></g></g><defs transform="translate(275, 275)" /><g fill="#000000" transform="translate(275, 275)"><g transform="translate(0, 0)"><path d="M0 34.52L0 30.10L13.50 30.10L13.50 34.52L0 34.52Z" /></g></g></svg>