<?xml version='1.0' encoding='utf-8'?>
<svg xmlns="http://www.w3.org/2000/svg" width="400" height="400" viewBox="0 0 400 400" version="1.1"><!--description: процесс искания --><path fill="#9AAAB4" d="M27.388 24.642L24.56 27.47l-4.95-4.95 2.828-2.828z" transform="translate(0, 0) scale(5, 10)" /><path fill="#66757F" d="M34.683 29.11l-5.879-5.879c-.781-.781-2.047-.781-2.828 0l-2.828 2.828c-.781.781-.781 2.047 0 2.828l5.879 5.879c1.562 1.563 4.096 1.563 5.658 0 1.56-1.561 1.559-4.094-.002-5.656z" transform="translate(0, 0) scale(5, 10)" /><circle fill="#8899A6" cx="13.586" cy="13.669" r="13.5" transform="translate(0, 0) scale(5, 10)" /><circle fill="#BBDDF5" cx="13.586" cy="13.669" r="9.5" transform="translate(0, 0) scale(5, 10)" /><path fill="#3B88C3" d="M36 32c0 2.209-1.791 4-4 4H4c-2.209 0-4-1.791-4-4V4c0-2.209 1.791-4 4-4h28c2.209 0 4 1.791 4 4v28z" transform="translate(200, 0) scale(5, 10)" /><path fill="#FFF" d="M22.242 22.242l2.829 2.829c-3.905 3.905-10.237 3.904-14.143-.001-2.247-2.246-3.194-5.296-2.854-8.225l-4.037.367c-.215 3.84 1.128 7.752 4.062 10.687 5.467 5.467 14.333 5.468 19.799 0l2.828 2.828.849-9.334-9.333.849zM27.899 8.1C22.431 2.633 13.568 2.633 8.1 8.1L5.272 5.272l-.849 9.334 9.334-.849-2.829-2.829c3.906-3.905 10.236-3.905 14.142 0 2.248 2.247 3.194 5.297 2.856 8.226l4.036-.366c.216-3.841-1.128-7.753-4.063-10.688z" transform="translate(200, 0) scale(5, 10)" /></svg>