<?xml version='1.0' encoding='utf-8'?>
<svg xmlns="http://www.w3.org/2000/svg" width="400" height="400" viewBox="0 0 400 400" version="1.1"><!--description: процесс подслащения --><path fill="#DD2E44" d="M13.298 3.538c-.531-4.075-5.627-4.3-6.248-2.125l-.933 4.041-4.041.933c-2.175.621-1.949 5.717 2.125 6.248l3.054.399c4.074.531 6.973-2.367 6.441-6.441l-.398-3.055zm18.993 18.991c4.074.531 4.299 5.629 2.125 6.249l-4.041.933-.934 4.042c-.62 2.174-5.717 1.948-6.248-2.126l-.398-3.055c-.531-4.074 2.367-6.973 6.441-6.441l3.055.398z" transform="translate(0, 0) scale(5, 10)" /><path fill="#BE1931" d="M30.49 22.294l-1.254-.164c-4.074-.531-6.973 2.367-6.441 6.441l.087.667c1.622-.268 3.45-1.236 5.014-2.8 1.29-1.288 2.172-2.758 2.594-4.144zM6.906 12.988l.349.046c4.074.531 6.973-2.367 6.441-6.441l-.119-.91c-1.317.447-2.697 1.304-3.915 2.523-1.49 1.489-2.437 3.219-2.756 4.782z" transform="translate(0, 0) scale(5, 10)" /><circle fill="#DD2E44" cx="18.779" cy="17.323" r="10.651" transform="translate(0, 0) scale(5, 10)" /><g fill="#F5F8FA" transform="translate(0, 0) scale(5, 10)"><path d="M18.75 17c.39 2.943-.632 6.74-2.593 9.092.84.25 1.72.381 2.621.381.731 0 1.447-.095 2.14-.261.563-2.586.256-5.927-2.168-9.212zm0 0c3.407.635 6.232 3.286 6.779 6.484 1.326-1.45 2.143-3.251 2.347-5.19-1.861-1.889-4.902-3.208-9.126-1.294zm0 0c1.049-2.269 4.509-4.338 7.836-4.438-.375-.613-.816-1.19-1.337-1.711-.767-.767-1.641-1.358-2.571-1.795-2.373 1.241-4.452 3.647-3.928 7.944z" /><path d="M18.792 17.042c-2.81-1.481-4.577-5.04-3.817-8.031-.966.44-1.874 1.047-2.667 1.84-.563.563-1.027 1.187-1.412 1.844 1.287 1.959 3.754 3.829 7.896 4.347zm-.084 0c-2.57 1.557-6.231 2.391-8.958 1.683.235 1.541.862 3.03 1.886 4.309 2.374-.71 5.065-2.503 7.072-5.992z" /></g><path fill="#3B88C3" d="M36 32c0 2.209-1.791 4-4 4H4c-2.209 0-4-1.791-4-4V4c0-2.209 1.791-4 4-4h28c2.209 0 4 1.791 4 4v28z" transform="translate(200, 0) scale(5, 10)" /><path fill="#FFF" d="M22.242 22.242l2.829 2.829c-3.905 3.905-10.237 3.904-14.143-.001-2.247-2.246-3.194-5.296-2.854-8.225l-4.037.367c-.215 3.84 1.128 7.752 4.062 10.687 5.467 5.467 14.333 5.468 19.799 0l2.828 2.828.849-9.334-9.333.849zM27.899 8.1C22.431 2.633 13.568 2.633 8.1 8.1L5.272 5.272l-.849 9.334 9.334-.849-2.829-2.829c3.906-3.905 10.236-3.905 14.142 0 2.248 2.247 3.194 5.297 2.856 8.226l4.036-.366c.216-3.841-1.128-7.753-4.063-10.688z" transform="translate(200, 0) scale(5, 10)" /></svg>