<?xml version='1.0' encoding='utf-8'?>
<svg xmlns="http://www.w3.org/2000/svg" width="400" height="400" viewBox="0 0 400 400" version="1.1"><!--description: брать товар за деньги --><path fill="#CCD6DD" d="M31 22H11L9 10h24z" transform="translate(0, 0) scale(5, 8)" /><path fill="#66757F" d="M32.984 27h-22C9.89 27 9 26.109 9 25.016S9.906 23 11 23l.007-.001.008.001H31c.489 0 .906-.354.986-.836l2-12c.049-.29-.033-.586-.224-.811C33.573 9.129 33.294 9 33 9H9.817l-1.04-6.166c-.079-.473-.484-.792-.942-.814-.016-.003-.027-.02-.043-.02H3c-.552 0-1 .448-1 1s.448 1 1 1h3.946l2.903 17.216c-1.642.493-2.849 2-2.849 3.8C7 27.213 8.788 29 10.984 29h22c.553 0 1-.447 1-1s-.447-1-1-1zM30.82 17h-3.307l.273-2h3.366l-.332 2zm-5.326 0H22v-2h3.767l-.273 2zM20 17h-3.494l-.273-2H20v2zm-5.512 0h-3.307l-.333-2h3.367l.273 2zm-2.641 4l-.333-2h3.247l.273 2h-3.187zm5.206 0l-.273-2H20v2h-2.947zM22 21v-2h3.22l-.273 2H22zm4.967 0l.273-2h3.247l-.333 2h-3.187zm4.852-10l-.333 2H28.06l.273-2h3.486zm-5.505 0l-.273 2H22v-2h4.314zM20 11v2h-4.041l-.273-2H20zm-6.333 0l.273 2h-3.427l-.333-2h3.487z" transform="translate(0, 0) scale(5, 8)" /><circle fill="#E1E8ED" cx="14" cy="31" r="3" transform="translate(0, 0) scale(5, 8)" /><path fill="#292F33" d="M14 35c-2.206 0-4-1.794-4-4s1.794-4 4-4 4 1.794 4 4-1.794 4-4 4zm0-6c-1.103 0-2 .897-2 2s.897 2 2 2 2-.897 2-2-.897-2-2-2z" transform="translate(0, 0) scale(5, 8)" /><circle fill="#E1E8ED" cx="28" cy="31" r="3" transform="translate(0, 0) scale(5, 8)" /><path fill="#292F33" d="M28 35c-2.206 0-4-1.794-4-4s1.794-4 4-4 4 1.794 4 4-1.794 4-4 4zm0-6c-1.103 0-2 .897-2 2s.897 2 2 2 2-.897 2-2-.897-2-2-2z" transform="translate(0, 0) scale(5, 8)" /><path fill="#FDD888" d="M31.898 23.938C31.3 17.32 28 14 28 14l-6-8h-8l-6 8s-1.419 1.433-2.567 4.275C3.444 18.935 2 20.789 2 23c0 1.448.625 2.742 1.609 3.655C3.233 27.357 3 28.147 3 29c0 1.958 1.136 3.636 2.775 4.456C7.058 35.378 8.772 36 10 36h16c1.379 0 3.373-.779 4.678-3.31C32.609 31.999 34 30.17 34 28c0-1.678-.834-3.154-2.102-4.062zM18 6c.55 0 1.058-.158 1.5-.416.443.258.951.416 1.5.416 1.657 0 4-2.344 4-4 0 0 0-2-2-2-.788 0-1 1-2 1s-1-1-3-1-2 1-3 1-1.211-1-2-1c-2 0-2 2-2 2 0 1.656 2.344 4 4 4 .549 0 1.057-.158 1.5-.416.443.258.951.416 1.5.416z" transform="translate(200, 0) scale(5, 8)" /><path fill="#BF6952" d="M24 6c0 .552-.447 1-1 1H13c-.552 0-1-.448-1-1s.448-1 1-1h10c.553 0 1 .448 1 1z" transform="translate(200, 0) scale(5, 8)" /><path fill="#67757F" d="M23.901 24.542c0-4.477-8.581-4.185-8.581-6.886 0-1.308 1.301-1.947 2.811-1.947 2.538 0 2.99 1.569 4.139 1.569.813 0 1.205-.493 1.205-1.046 0-1.284-2.024-2.256-3.965-2.592V12.4c0-.773-.65-1.4-1.454-1.4-.805 0-1.456.627-1.456 1.4v1.283c-2.116.463-3.937 1.875-3.937 4.176 0 4.299 8.579 4.125 8.579 7.145 0 1.047-1.178 2.093-3.111 2.093-2.901 0-3.867-1.889-5.045-1.889-.574 0-1.087.464-1.087 1.164 0 1.113 1.938 2.451 4.603 2.824l-.001.01v1.398c0 .772.652 1.4 1.456 1.4.804 0 1.455-.628 1.455-1.4v-1.398c0-.017-.008-.03-.009-.045 2.398-.43 4.398-1.932 4.398-4.619z" transform="translate(200, 0) scale(5, 8)" /><defs transform="translate(75, 275)" /><g fill="#000000" transform="translate(75, 275)"><g transform="translate(0, 0)"><path d="M0 55.79L0 8.86L3.83 8.86L3.83 55.79L0 55.79ZM12.99 55.79L12.99 8.86L16.82 8.86L16.82 55.79L12.99 55.79Z" /></g></g><defs transform="translate(275, 275)" /><g fill="#000000" transform="translate(275, 275)"><g transform="translate(0, 0)"><path d="M0 45.26L0 40.26L5.00 40.26L5.00 45.26L0 45.26Z" /></g></g></svg>