<?xml version='1.0' encoding='utf-8'?>
<svg xmlns="http://www.w3.org/2000/svg" width="400" height="400" viewBox="0 0 400 400" version="1.1"><!--description: вещество для сладости --><path fill="#F4900C" d="M31 22c-3 11-5.019 14-13 14-8 0-10-3-13-14C2.965 14.54 7 8 18 8s15.034 6.54 13 14z" transform="translate(0, 0) scale(5, 8)" /><path fill="#BE1931" d="M29 11c2 4-3 8-11 8S5 15 7 11c1.482-2.964 4.373-6 11-6s9.519 3.036 11 6z" transform="translate(0, 0) scale(5, 8)" /><ellipse fill="#FFAC33" cx="18" cy="11" rx="12" ry="6" transform="translate(0, 0) scale(5, 8)" /><path fill="#FFE8B6" d="M27 10c1 1 2 2 2 3s-1 3-2 2c0 0 2.948 1.154 2 4-1 3-4 2-4 0s-1.553-3.342-2-2c-1 3-3 3-4 2s-1-2-1-2-3 0-2-2 0-2 0-2 0-1 1-1 7-1 8-2 2 0 2 0z" transform="translate(0, 0) scale(5, 8)" /><path fill="#662113" d="M28 9.278C28 11.886 23.523 14 18 14S8 11.886 8 9.278C8 6.67 12.477 5 18 5s10 1.67 10 4.278z" transform="translate(0, 0) scale(5, 8)" /><path fill="#F4900C" d="M18 14c4.548 0 8.379-1.435 9.593-3.396-.193-.202-.392-.403-.593-.604 0 0-2-2-3-1s-6 1-7 1-2 1-2 1 1.587 2.011 1.397 2.934c.523.04 1.056.066 1.603.066z" transform="translate(0, 0) scale(5, 8)" /><path fill="#FFCC4D" d="M26 8.5c0 1.933-3.582 3.5-8 3.5s-8-1.567-8-3.5S13.582 3 18 3s8 3.567 8 5.5z" transform="translate(0, 0) scale(5, 8)" /><ellipse fill="#F4900C" cx="18" cy="2.5" rx="2" ry="1.5" transform="translate(0, 0) scale(5, 8)" /><path fill="#FFCC4D" d="M5.685 24.41c.725 2.457 1.425 4.435 2.204 6.013C11 33 16 33 18 33s7 0 10.106-2.576c.78-1.576 1.483-3.556 2.208-6.014C27.609 25.973 23.112 27 18 27s-9.61-1.027-12.315-2.59z" transform="translate(0, 0) scale(5, 8)" /><path fill="#CCD6DD" d="M14.563 14.414L25.47 3.505l6.961 6.962-10.908 10.908z" transform="translate(200, 0) scale(5, 8)" /><path fill="#68E090" d="M8.103 34.399C2.5 34 1.5 30.062 1.635 27.932c.322-5.07 15.601-16.551 15.601-16.551l12.517 1.93c.001 0-17.389 21.392-21.65 21.088z" transform="translate(200, 0) scale(5, 8)" /><path fill="#8899A6" d="M32.326 3.708C29.405.787 26.104-.649 24.954.502c-.013.013-.022.031-.034.044-.006.006-.015.008-.021.014L2.295 23.164c-1.412 1.412-2.19 3.29-2.19 5.288 0 1.997.778 3.875 2.19 5.287 1.413 1.413 3.291 2.19 5.288 2.19 1.998 0 3.875-.777 5.287-2.189l22.604-22.604c.007-.007.009-.016.015-.023.013-.012.03-.02.043-.033 1.151-1.15-.285-4.451-3.206-7.372zM10.75 31.619c-.846.846-1.97 1.311-3.166 1.311s-2.321-.466-3.167-1.312c-.846-.846-1.312-1.97-1.312-3.167 0-1.196.466-2.32 1.311-3.166L25.412 4.29c.622 1.144 1.56 2.394 2.749 3.584 1.189 1.189 2.44 2.127 3.584 2.749L10.75 31.619z" transform="translate(200, 0) scale(5, 8)" /><path fill="#17BF63" d="M29.196 13.144c-.058.379-2.627.751-5.691.343-3.063-.408-5.482-1.223-5.403-1.82.08-.597 2.627-.751 5.691-.343s5.495 1.224 5.403 1.82zM10.84 23.247c-.31.31-.813.31-1.123 0-.31-.31-.31-.813 0-1.123.31-.31.813-.31 1.123 0 .31.31.31.813 0 1.123zm3.317 2.615c-.507.507-1.328.506-1.835 0-.506-.506-.506-1.328 0-1.834.507-.507 1.328-.506 1.834 0 .507.506.508 1.327.001 1.834zm1.677-5.324c-.476.476-1.25.476-1.726 0s-.476-1.249 0-1.726c.476-.476 1.249-.477 1.725 0 .478.477.478 1.25.001 1.726zm-6.868 8.858c-.581.581-1.524.581-2.105 0-.582-.582-.581-1.524 0-2.105s1.523-.581 2.105 0c.581.581.582 1.523 0 2.105zm11.396-9.158c-.413.413-1.083.413-1.496 0-.413-.413-.412-1.083.001-1.496.414-.414 1.083-.414 1.496-.001.413.414.413 1.083-.001 1.497zm-1.207-4.288c-.27.27-.708.27-.979 0-.27-.27-.27-.708 0-.979.27-.27.708-.271.979 0 .27.271.27.709 0 .979z" transform="translate(200, 0) scale(5, 8)" /><ellipse transform="translate(200, 0) scale(5, 8)" fill="#CCD6DD" cx="30.817" cy="5.223" rx="1.184" ry="4.847" /><defs transform="translate(75, 275)" /><g fill="#000000" transform="translate(75, 275)"><g transform="translate(0, 0)"><path d="M0 55.79L0 8.86L3.83 8.86L3.83 55.79L0 55.79ZM12.99 55.79L12.99 8.86L16.82 8.86L16.82 55.79L12.99 55.79Z" /></g></g><defs transform="translate(275, 275)" /><g fill="#000000" transform="translate(275, 275)"><g transform="translate(0, 0)"><path d="M0 34.52L0 30.10L13.50 30.10L13.50 34.52L0 34.52Z" /></g></g></svg>