<?xml version='1.0' encoding='utf-8'?>
<svg xmlns="http://www.w3.org/2000/svg" width="400" height="400" viewBox="0 0 400 400" version="1.1"><!--description: процесс принятия --><path fill="#EF9645" d="M7.278 29.994c.059.982 1.052 1.262 2.065 1.201 1.016-.059 3.726.768 4.679.77 1.687.003 2.268-.829 2.332-2.319C16.5 26.271 18 26.188 18 22.271V9c0-1.766-1.98-2.61-2.312-1.094-.642 2.925-.598 5.097-.65 6.372l-.516-.129s.47-5.078.983-7.471c.371-1.741-2.718-2.381-3.092-.641-.498 2.308-.611 6.273-.646 7.801l-.639-.057s.221-3.768.981-8.045c.284-1.609-2.802-2.38-3.189-.634-.502 2.257-.87 6.7-.855 9.055l-.629.133s.19-4.353.921-7.436c.319-1.346-2.188-2.174-2.744-.184-1.6 5.688-1.006 10.688-1.017 11.13-.049 1.85-.477 3.986-1.225 3.442-1.131-.824-2.763.239-1.364 2.319 1.577 2.344 4.98 2.093 5.099 4.087.05.858.172 2.346.172 2.346" transform="translate(0, 0) scale(5, 10)" /><path fill="#FFDC5D" d="M5.336 31.033c.058.982.946 1.363 1.96 1.305 1.013-.064 5.61-.295 6.56-.354.951-.055 1.92-.879 1.858-1.892-.06-1.016-.196-2.463.643-3.931.458-.798 1.3-3.784 1.08-9.472-.146-3.771.033-6.722.138-8.271.091-1.354-2.143-1.898-2.45-.125-.509 2.942-.644 4.667-.781 6.059l-.518-.128s.474-5.32.935-7.724c.315-1.634-2.287-2.076-2.66-.335-.498 2.31-.995 6.219-1.03 7.747l-.641-.054s.232-4.085.994-8.365c.253-1.428-2.421-1.894-2.809-.148-.5 2.255-1.263 6.533-1.247 8.886l-.626.133s-.033-3.69.92-7.436c.34-1.34-2.188-2.174-2.748-.184-.558 1.985-.809 5.002-.919 6.783-1.364-1.214-2.793-.405-2.746.036.403 3.812-2.43 6.729.426 11.076 1.554 2.364 2.535 2.307 3.529 4.044.522.913.132 2.35.132 2.35" transform="translate(0, 0) scale(5, 10)" /><path fill="#EF9645" d="M4.317 19.707c.718.2 1.46.475 2.099.931 1.117.795 1.797 1.679 1.962 1.969.175.298.787.164.525-.345-.256-.494-1.099-1.432-2.093-2.11-.694-.475-1.696-.875-2.597-1.114-.162-.043 1.01-4.132-.22-5.511.469.848-.344 4.548-.344 5.161s.286.912.668 1.019zm24.405 10.287c-.059.982-1.052 1.262-2.065 1.201-1.016-.059-3.726.768-4.679.77-1.687.003-2.268-.829-2.332-2.319C19.5 26.271 18 26.188 18 22.271V9c0-1.766 1.98-2.61 2.312-1.094.642 2.925.597 5.097.65 6.372l.516-.129s-.47-5.078-.983-7.471c-.371-1.741 2.718-2.381 3.092-.641.498 2.308.611 6.273.646 7.801l.639-.057s-.221-3.768-.981-8.045c-.284-1.609 2.802-2.38 3.189-.634.502 2.257.87 6.7.855 9.055l.629.133s-.035-3.623-.986-7.369c-.341-1.341 2.254-2.241 2.81-.251 1.6 5.688 1.006 10.688 1.017 11.13.049 1.85.477 3.986 1.225 3.442 1.131-.824 2.763.239 1.364 2.319-1.577 2.344-4.98 2.093-5.099 4.087-.051.858-.173 2.346-.173 2.346" transform="translate(0, 0) scale(5, 10)" /><path fill="#FFDC5D" d="M30.664 31.033c-.058.982-.946 1.363-1.96 1.305-1.013-.064-5.61-.295-6.56-.354-.951-.055-1.92-.879-1.858-1.892.06-1.016.196-2.463-.643-3.931-.458-.798-1.3-3.784-1.08-9.472.146-3.771-.033-6.722-.138-8.271-.091-1.354 2.143-1.898 2.45-.125.509 2.942.644 4.667.781 6.059l.518-.128s-.474-5.32-.935-7.724c-.315-1.634 2.287-2.076 2.66-.335.498 2.31.995 6.219 1.03 7.747l.641-.054s-.232-4.085-.994-8.365c-.253-1.428 2.421-1.894 2.809-.148.499 2.256 1.262 6.534 1.247 8.888l.626.133s.033-3.69-.92-7.436c-.34-1.34 2.188-2.174 2.748-.184.558 1.985.809 5.002.919 6.783 1.364-1.214 2.793-.405 2.746.036-.403 3.812 2.43 6.729-.426 11.076-1.554 2.364-2.535 2.307-3.529 4.044-.522.911-.132 2.348-.132 2.348" transform="translate(0, 0) scale(5, 10)" /><path fill="#EF9645" d="M31.683 19.707c-.718.2-1.46.475-2.099.931-1.117.795-1.797 1.679-1.962 1.969-.175.298-.787.164-.525-.345.256-.494 1.099-1.432 2.093-2.11.694-.475 1.696-.875 2.597-1.114.162-.043-1.01-4.132.22-5.511-.469.848.344 4.548.344 5.161s-.286.912-.668 1.019z" transform="translate(0, 0) scale(5, 10)" /><path fill="#3B88C3" d="M36 32c0 2.209-1.791 4-4 4H4c-2.209 0-4-1.791-4-4V4c0-2.209 1.791-4 4-4h28c2.209 0 4 1.791 4 4v28z" transform="translate(200, 0) scale(5, 10)" /><path fill="#FFF" d="M22.242 22.242l2.829 2.829c-3.905 3.905-10.237 3.904-14.143-.001-2.247-2.246-3.194-5.296-2.854-8.225l-4.037.367c-.215 3.84 1.128 7.752 4.062 10.687 5.467 5.467 14.333 5.468 19.799 0l2.828 2.828.849-9.334-9.333.849zM27.899 8.1C22.431 2.633 13.568 2.633 8.1 8.1L5.272 5.272l-.849 9.334 9.334-.849-2.829-2.829c3.906-3.905 10.236-3.905 14.142 0 2.248 2.247 3.194 5.297 2.856 8.226l4.036-.366c.216-3.841-1.128-7.753-4.063-10.688z" transform="translate(200, 0) scale(5, 10)" /></svg>