<?xml version='1.0' encoding='utf-8'?>
<svg xmlns="http://www.w3.org/2000/svg" width="400" height="400" viewBox="0 0 400 400" version="1.1"><!--description: то, что прочитали --><path fill="#269" d="M32 7H4c-2.209 0-4 1.791-4 4v15c0 2.209 1.791 4 4 4h11.416c.52.596 1.477 1 2.584 1s2.065-.404 2.584-1H32c2.209 0 4-1.791 4-4V11c0-2.209-1.791-4-4-4z" transform="translate(0, 0) scale(5, 8)" /><path fill="#292F33" d="M20 27c0 1.104-.896 2-2 2s-2-.896-2-2V9c0-1.104.896-2 2-2s2 .896 2 2v18z" transform="translate(0, 0) scale(5, 8)" /><path fill="#99AAB5" d="M18 26c0 1.104-.896 2-2 2H4c-1.104 0-2-.896-2-2V8c0-1.104.896-2 2-2h12c1.104 0 2 .896 2 2v18z" transform="translate(0, 0) scale(5, 8)" /><path fill="#E1E8ED" d="M18 26c-.999-1.998-3.657-2-4-2-2 0-5 2-8 2-1 0-2-.896-2-2V8c0-1.104 1-2 2-2 3.255 0 6-2 8-2 3 0 4 1.896 4 3v19z" transform="translate(0, 0) scale(5, 8)" /><path fill="#99AAB5" d="M34 26c0 1.104-.896 2-2 2H20c-1.104 0-2-.896-2-2V8c0-1.104.896-2 2-2h12c1.104 0 2 .896 2 2v18z" transform="translate(0, 0) scale(5, 8)" /><path fill="#CCD6DD" d="M18 26c.999-1.998 3.657-2 4-2 2 0 5 2 8 2 1 0 2-.896 2-2V8c0-1.104-1-2-2-2-3.256 0-6-2-8-2-3 0-4 1.896-4 3v19z" transform="translate(0, 0) scale(5, 8)" /><path fill="#77B255" d="M36 32c0 2.209-1.791 4-4 4H4c-2.209 0-4-1.791-4-4V4c0-2.209 1.791-4 4-4h28c2.209 0 4 1.791 4 4v28z" transform="translate(200, 0) scale(5, 8)" /><path fill="#FFF" d="M29.28 6.362c-1.156-.751-2.704-.422-3.458.736L14.936 23.877l-5.029-4.65c-1.014-.938-2.596-.875-3.533.138-.937 1.014-.875 2.596.139 3.533l7.209 6.666c.48.445 1.09.665 1.696.665.673 0 1.534-.282 2.099-1.139.332-.506 12.5-19.27 12.5-19.27.751-1.159.421-2.707-.737-3.458z" transform="translate(200, 0) scale(5, 8)" /><defs transform="translate(75, 275)" /><g fill="#000000" transform="translate(75, 275)"><g transform="translate(0, 0)"><path d="M0 34.52L0 30.10L13.50 30.10L13.50 34.52L0 34.52Z" /></g></g><defs transform="translate(275, 275)" /><g fill="#000000" transform="translate(275, 275)"><g transform="translate(0, 0)"><path d="M23.71 29.61L0 39.75L0 35.38L18.77 27.59L0 19.87L0 15.50L23.71 25.51L23.71 29.61Z" /></g></g></svg>