<?xml version='1.0' encoding='utf-8'?>
<svg xmlns="http://www.w3.org/2000/svg" width="400" height="400" viewBox="0 0 400 400" version="1.1"><!--description: говорение при уходе --><path fill="#EF9645" d="M4.861 9.147c.94-.657 2.357-.531 3.201.166l-.968-1.407c-.779-1.111-.5-2.313.612-3.093 1.112-.777 4.263 1.312 4.263 1.312-.786-1.122-.639-2.544.483-3.331 1.122-.784 2.67-.513 3.456.611l10.42 14.72L25 31l-11.083-4.042L4.25 12.625c-.793-1.129-.519-2.686.611-3.478z" transform="translate(0, 0) scale(5, 8)" /><path fill="#FFDC5D" d="M2.695 17.336s-1.132-1.65.519-2.781c1.649-1.131 2.78.518 2.78.518l5.251 7.658c.181-.302.379-.6.6-.894L4.557 11.21s-1.131-1.649.519-2.78c1.649-1.131 2.78.518 2.78.518l6.855 9.997c.255-.208.516-.417.785-.622L7.549 6.732s-1.131-1.649.519-2.78c1.649-1.131 2.78.518 2.78.518l7.947 11.589c.292-.179.581-.334.871-.498L12.238 4.729s-1.131-1.649.518-2.78c1.649-1.131 2.78.518 2.78.518l7.854 11.454 1.194 1.742c-4.948 3.394-5.419 9.779-2.592 13.902.565.825 1.39.26 1.39.26-3.393-4.949-2.357-10.51 2.592-13.903L24.515 8.62s-.545-1.924 1.378-2.47c1.924-.545 2.47 1.379 2.47 1.379l1.685 5.004c.668 1.984 1.379 3.961 2.32 5.831 2.657 5.28 1.07 11.842-3.94 15.279-5.465 3.747-12.936 2.354-16.684-3.11L2.695 17.336z" transform="translate(0, 0) scale(5, 8)" /><g fill="#5DADEC" transform="translate(0, 0) scale(5, 8)"><path d="M12 32.042C8 32.042 3.958 28 3.958 24c0-.553-.405-1-.958-1s-1.042.447-1.042 1C1.958 30 6 34.042 12 34.042c.553 0 1-.489 1-1.042s-.447-.958-1-.958z" /><path d="M7 34c-3 0-5-2-5-5 0-.553-.447-1-1-1s-1 .447-1 1c0 4 3 7 7 7 .553 0 1-.447 1-1s-.447-1-1-1zM24 2c-.552 0-1 .448-1 1s.448 1 1 1c4 0 8 3.589 8 8 0 .552.448 1 1 1s1-.448 1-1c0-5.514-4-10-10-10z" /><path d="M29 .042c-.552 0-1 .406-1 .958s.448 1.042 1 1.042c3 0 4.958 2.225 4.958 4.958 0 .552.489 1 1.042 1s.958-.448.958-1C35.958 3.163 33 .042 29 .042z" /></g><path fill="#FFCC4D" d="M36 18c0 9.941-8.059 18-18 18-9.94 0-18-8.059-18-18C0 8.06 8.06 0 18 0c9.941 0 18 8.06 18 18" transform="translate(200, 0) scale(5, 8)" /><ellipse fill="#664500" cx="11.5" cy="17" rx="2.5" ry="3.5" transform="translate(200, 0) scale(5, 8)" /><ellipse fill="#664500" cx="24.5" cy="17" rx="2.5" ry="3.5" transform="translate(200, 0) scale(5, 8)" /><path fill="#664500" d="M5.999 13.5c-.208 0-.419-.065-.599-.2-.442-.331-.531-.958-.2-1.4 3.262-4.35 7.616-4.4 7.8-4.4.552 0 1 .448 1 1 0 .551-.445.998-.996 1-.155.002-3.568.086-6.204 3.6-.196.262-.497.4-.801.4zm24.002 0c-.305 0-.604-.138-.801-.4-2.641-3.521-6.061-3.599-6.206-3.6-.55-.006-.994-.456-.991-1.005.003-.551.447-.995.997-.995.184 0 4.537.05 7.8 4.4.332.442.242 1.069-.2 1.4-.18.135-.39.2-.599.2zm-6.516 14.879C23.474 28.335 22.34 24 18 24s-5.474 4.335-5.485 4.379c-.053.213.044.431.232.544.188.112.433.086.596-.06C13.352 28.855 14.356 28 18 28c3.59 0 4.617.83 4.656.863.095.09.219.137.344.137.084 0 .169-.021.246-.064.196-.112.294-.339.239-.557z" transform="translate(200, 0) scale(5, 8)" /><path fill="#5DADEC" d="M16 31c0 2.762-2.238 5-5 5s-5-2.238-5-5 4-10 5-10 5 7.238 5 10z" transform="translate(200, 0) scale(5, 8)" /><defs transform="translate(75, 275)" /><g fill="#000000" transform="translate(75, 275)"><g transform="translate(0, 0)"><path d="M0 55.79L0 8.86L3.83 8.86L3.83 55.79L0 55.79ZM12.99 55.79L12.99 8.86L16.82 8.86L16.82 55.79L12.99 55.79Z" /></g></g><defs transform="translate(275, 275)" /><g fill="#000000" transform="translate(275, 275)"><g transform="translate(0, 0)"><path d="M0 34.52L0 30.10L13.50 30.10L13.50 34.52L0 34.52Z" /></g></g></svg>