<?xml version='1.0' encoding='utf-8'?>
<svg xmlns="http://www.w3.org/2000/svg" width="400" height="400" viewBox="0 0 400 400" version="1.1"><!--description: идти к цели --><path fill="#292F33" d="M18.011 34.975l-.052.016c.018-.068.042-.19.042-.383 0-.303-.156-.869-.199-.95s-.09-.139-.194-.11c-.079.022-.685.326-1.072.341-.719.027-1.066-.618-1.066-.618s-.399.228-.716.413c-.318.185-.687.462-.959.627-.232.141-.497.208-.771.243s-.497.023-.563.029c-.066.006-.621-.061-.641.488l.003.127-.054-.026s-.048.17-.052.202c-.004.033-.024.052.046.096.07.044.378.176.77.274s1.028.243 1.519.243.909-.098 1.151-.156c.243-.058.763-.169.813-.146.05.023.116.191.173.243.058.052 1.61-.081 1.721-.104.112-.023.146-.119.146-.162v-.649c.002-.027-.021-.045-.045-.038zm10.947-3.752l-.504-.429c-.019-.016-.048-.011-.059.012l-.022.051c-.041-.059-.12-.158-.269-.285-.235-.2-.777-.454-.868-.473-.091-.02-.167-.022-.213.077-.035.076-.199.746-.444 1.056-.454.575-1.184.418-1.184.418l-.153.828c-.067.368-.096.838-.148 1.158-.044.273-.167.523-.322.758-.154.236-.31.4-.35.456-.039.055-.457.441-.045.82l.101.081-.055.025s.1.149.122.174c.022.025.025.053.104.028s.386-.177.721-.416c.336-.24.868-.637 1.192-1.018.325-.381.524-.77.64-.996.116-.226.373-.703.424-.727.051-.024.224.036.303.026.078-.01 1.001-1.302 1.057-1.403s.005-.193-.028-.221z" transform="translate(0, 0) scale(5, 8)" /><path fill="#F9CA55" d="M19.3 12.243c.927.96 3.062 2.89 3.109 3.121.251 1.223.614 2.606.52 3.454-.068.615.376 1.298.551 1.583.218.354.781.898 1.141.86.224-.023.567-.43.384-.636-.357-.4-.298-1.009-.522-1.559-.449-1.105-.045-3.194-.661-4.563-.256-.567-.733-1.693-2.824-3.626-.511.462-1.698 1.366-1.698 1.366z" transform="translate(0, 0) scale(5, 8)" /><path fill="#2A6797" d="M16.062 34.203c-1.266.109-1.853-.233-1.721-.416.165-.228.128-.397.13-.536C14.499 30.81 14 27.26 14 27.26c0-.348.003-.813.312-1.562.778-1.883 3.951-7.69 3.951-7.69.548-.958 1.771-1.293 2.729-.744.959.548 1.122 1.405.744 2.729-.715 2.508-2.965 5.602-3.903 7.477.224 2.121-.174 3.853.035 5.857.03.288-.54.767-1.806.876z" transform="translate(0, 0) scale(5, 8)" /><path fill="#4289C1" d="M26.797 31.931c-.364.553-.97.942-1.598.838-1.269-1.924-4.955-5.321-4.955-5.321-.241-.25-.562-.587-.86-1.341-.748-1.895-2.498-8.277-2.498-8.277-.272-1.07.376-2.16 1.446-2.43 1.07-.272 1.783.232 2.43 1.446 1.227 2.301 1.757 6.09 2.384 8.09 1.87 1.568 2.383 3.603 4.275 5.151-.065.857-.26 1.291-.624 1.844z" transform="translate(0, 0) scale(5, 8)" /><path fill="#FFDC5D" d="M18.604 1.418c-1.616-.481-3.893.53-4.11 2.372-.303 2.57 1.323 4.585 2.901 4.276 1.654-.324 2.648-.782 3.177-2.559.528-1.777-.352-3.608-1.968-4.089z" transform="translate(0, 0) scale(5, 8)" /><path fill="#FFDC5D" d="M20.165 5.988c2.045-2.867-3.411-2.136-3.411-2.136-1.034.127-.172 1.793-.579 2.778-.279.682 1.16.907 1.16.907s.646-.065.748.716l.001.007c.025.199.024.438-.042.763-.329 1.61 1.862 2.392 2.19.779.13-.638.012-1.18-.124-1.677l-.013-.045c-.205-.74-.435-1.383.07-2.092z" transform="translate(0, 0) scale(5, 8)" /><path fill="#FFAC33" d="M20.616 1.791c-.861-.977-3.527-1.676-5.056-.215-1.154-.1-1.497 1.019-1.347 1.633.12.49 1.352.514 1.739 1.431.193-.255.207-.744.139-.999.421.341.336 1.339 1.92 1.85 1.532.494 1.382 1.822 1.382 1.822s.747-.435 1.235-1.109c.934-1.286.937-3.336-.012-4.413z" transform="translate(0, 0) scale(5, 8)" /><path fill="#FA743E" d="M23 20s0 1-2 1h-4.898c1-4.578-.094-5.84.241-8.581.361-2.954 2.287-4.771 3.475-4.34 1.822.661 2.693 2.641 2.932 5.858S23 20 23 20z" transform="translate(0, 0) scale(5, 8)" /><path fill="#FFDC5D" d="M17.75 11.792c-.167 1.399-.322 4.433-.479 4.625-.833 1.021-1.722 2.24-2.479 2.729-.549.354-.811 1.174-.927 1.507-.144.414-.213 1.238.057 1.507.169.168.73.177.776-.11.09-.559.626-.917.927-1.467.604-1.104 2.583-2.167 3.292-3.584.294-.588.896-1.729 1.083-4.729-.72-.11-2.25-.478-2.25-.478z" transform="translate(0, 0) scale(5, 8)" /><circle fill="#DD2E44" cx="18" cy="18" r="18" transform="translate(200, 0) scale(5, 8)" /><circle fill="#FFF" cx="18" cy="18" r="13.5" transform="translate(200, 0) scale(5, 8)" /><circle fill="#DD2E44" cx="18" cy="18" r="10" transform="translate(200, 0) scale(5, 8)" /><circle fill="#FFF" cx="18" cy="18" r="6" transform="translate(200, 0) scale(5, 8)" /><circle fill="#DD2E44" cx="18" cy="18" r="3" transform="translate(200, 0) scale(5, 8)" /><path opacity=".2" d="M18.24 18.282l13.144 11.754s-2.647 3.376-7.89 5.109L17.579 18.42l.661-.138z" transform="translate(200, 0) scale(5, 8)" /><path fill="#FFAC33" d="M18.294 19c-.255 0-.509-.097-.704-.292-.389-.389-.389-1.018 0-1.407l.563-.563c.389-.389 1.018-.389 1.408 0 .388.389.388 1.018 0 1.407l-.564.563c-.194.195-.448.292-.703.292z" transform="translate(200, 0) scale(5, 8)" /><path fill="#55ACEE" d="M24.016 6.981c-.403 2.079 0 4.691 0 4.691l7.054-7.388c.291-1.454-.528-3.932-1.718-4.238-1.19-.306-4.079.803-5.336 6.935zm5.003 5.003c-2.079.403-4.691 0-4.691 0l7.388-7.054c1.454-.291 3.932.528 4.238 1.718.306 1.19-.803 4.079-6.935 5.336z" transform="translate(200, 0) scale(5, 8)" /><path fill="#3A87C2" d="M32.798 4.485L21.176 17.587c-.362.362-1.673.882-2.51.046-.836-.836-.419-2.08-.057-2.443L31.815 3.501s.676-.635 1.159-.152-.176 1.136-.176 1.136z" transform="translate(200, 0) scale(5, 8)" /><defs transform="translate(200, 275)" /><g fill="#000000" transform="translate(200, 275)"><g transform="translate(0, 0)"><path d="M23.71 29.61L0 39.75L0 35.38L18.77 27.59L0 19.87L0 15.50L23.71 25.51L23.71 29.61Z" /></g></g></svg>