<?xml version='1.0' encoding='utf-8'?>
<svg xmlns="http://www.w3.org/2000/svg" width="400" height="400" viewBox="0 0 400 400" version="1.1"><!--description: говорить о желании --><path fill="#50A5E6" d="M30 22c-3 0-6.688 7.094-7 10-.421 3.915 2 4 2 4h11V26s-3.438-4-6-4z" transform="translate(0, 0) scale(5, 8)" /><ellipse transform="translate(0, 0) scale(5, 8)" fill="#1C6399" cx="27.574" cy="28.489" rx="5.848" ry="1.638" /><path fill="#F9CA55" d="M20.086 0c1.181 0 2.138.957 2.138 2.138 0 .789.668 10.824.668 10.824L17.948 18V2.138C17.948.957 18.905 0 20.086 0z" transform="translate(0, 0) scale(5, 8)" /><path fill="#FFDC5D" d="M18.875 4.323c0-1.099.852-1.989 1.903-1.989 1.051 0 1.903.891 1.903 1.989 0 0 .535 5.942 1.192 9.37.878 1.866 1.369 4.682 1.261 6.248.054.398 5.625 5.006 5.625 5.006-.281 1.813-2.259 6.155-4.759 8.159l-3.521-2.924c-2.885-.404-4.458-3.331-4.458-4.264 0-2.984.854-21.595.854-21.595z" transform="translate(0, 0) scale(5, 8)" /><path fill="#50A5E6" d="M6 22c3 0 6.688 7.094 7 10 .421 3.915-2 4-2 4H0V26s3.438-4 6-4z" transform="translate(0, 0) scale(5, 8)" /><ellipse transform="translate(0, 0) scale(5, 8)" fill="#1C6399" cx="8.426" cy="28.489" rx="1.638" ry="5.848" /><path fill="#F9CA55" d="M16.061.011c-1.266-.127-2.333.864-2.333 2.103 0 .78-.184 10.319-.184 10.319L17.895 18l.062-15.765c0-1.106-.795-2.114-1.896-2.224z" transform="translate(0, 0) scale(5, 8)" /><path fill="#FFDC5D" d="M17.125 4.323c0-1.099-.852-1.989-1.903-1.989-1.051 0-1.903.891-1.903 1.989 0 0-.535 5.942-1.192 9.37-.878 1.866-1.369 4.682-1.261 6.248-.054.398-5.625 5.006-5.625 5.006C5.522 26.76 7.5 31.102 10 33.106l3.521-2.924c2.885-.404 4.458-3.331 4.458-4.264 0-2.984-.854-21.595-.854-21.595z" transform="translate(0, 0) scale(5, 8)" /><path fill="#F9CA55" d="M17.958 25.823c-.414 0-.75-.336-.75-.75V2.792c0-.414.336-.75.75-.75s.75.336.75.75v22.282c.001.413-.335.749-.75.749z" transform="translate(0, 0) scale(5, 8)" /><path fill="#BDDDF4" d="M35 12c0-3.866-3.134-7-7-7-1.167 0-2.265.29-3.232.794-2.082-2.827-5.425-4.669-9.205-4.669-5.132 0-9.475 3.38-10.923 8.036C1.982 9.778 0 12.155 0 15c0 2.979 2.174 5.445 5.021 5.913C5.237 24.862 8.498 28 12.5 28c2.176 0 4.13-.933 5.5-2.413C19.37 27.067 21.323 28 23.5 28c4.143 0 7.5-3.357 7.5-7.5 0-.71-.105-1.394-.289-2.045C33.23 17.396 35 14.905 35 12z" transform="translate(200, 0) scale(5, 8)" /><circle fill="#BDDDF4" cx="4" cy="31" r="3" transform="translate(200, 0) scale(5, 8)" /><defs transform="translate(75, 275)" /><g fill="#000000" transform="translate(75, 275)"><g transform="translate(0, 0)"><path d="M0 55.79L0 8.86L3.83 8.86L3.83 55.79L0 55.79ZM12.99 55.79L12.99 8.86L16.82 8.86L16.82 55.79L12.99 55.79Z" /></g></g><defs transform="translate(275, 275)" /><g fill="#000000" transform="translate(275, 275)"><g transform="translate(0, 0)"><path d="M0 45.26L0 40.26L5.00 40.26L5.00 45.26L0 45.26Z" /></g></g></svg>