<?xml version='1.0' encoding='utf-8'?>
<svg xmlns="http://www.w3.org/2000/svg" width="400" height="400" viewBox="0 0 400 400" version="1.1"><!--description: отсутствие вещей --><path fill="#662113" d="M4 11v12.375c0 2.042 1.093 2.484 1.093 2.484l11.574 9.099C18.489 36.39 18 33.375 18 33.375V22L4 11z" transform="translate(0, 0) scale(5, 8)" /><path fill="#C1694F" d="M32 11v12.375c0 2.042-1.063 2.484-1.063 2.484s-9.767 7.667-11.588 9.099C17.526 36.39 18 33.375 18 33.375V22l14-11z" transform="translate(0, 0) scale(5, 8)" /><path fill="#D99E82" d="M19.289.5c-.753-.61-1.988-.61-2.742 0L4.565 10.029c-.754.61-.754 1.607 0 2.216l12.023 9.646c.754.609 1.989.609 2.743 0l12.104-9.73c.754-.609.754-1.606 0-2.216L19.289.5z" transform="translate(0, 0) scale(5, 8)" /><path fill="#D99E82" d="M18 35.75c-.552 0-1-.482-1-1.078V21.745c0-.596.448-1.078 1-1.078.553 0 1 .482 1 1.078v12.927c0 .596-.447 1.078-1 1.078z" transform="translate(0, 0) scale(5, 8)" /><path fill="#99AAB5" d="M28 18.836c0 1.104.104 1.646-1 2.442l-2.469 1.878c-1.104.797-1.531.113-1.531-.992v-2.961c0-.193-.026-.4-.278-.608C20.144 16.47 10.134 8.519 8.31 7.051l4.625-3.678c1.266.926 10.753 8.252 14.722 11.377.197.156.343.328.343.516v3.57z" transform="translate(0, 0) scale(5, 8)" /><path fill="#CCD6DD" d="M27.656 14.75C23.688 11.625 14.201 4.299 12.935 3.373l-1.721 1.368-2.904 2.31c1.825 1.468 11.834 9.419 14.412 11.544.151.125.217.25.248.371L27.903 15c-.06-.087-.146-.171-.247-.25z" transform="translate(0, 0) scale(5, 8)" /><path fill="#CCD6DD" d="M28 18.836v-3.57c0-.188-.146-.359-.344-.516-3.968-3.125-13.455-10.451-14.721-11.377l-2.073 1.649c3.393 2.669 12.481 9.681 14.86 11.573.256.204.278.415.278.608v4.836l1-.761c1.104-.797 1-1.338 1-2.442z" transform="translate(0, 0) scale(5, 8)" /><path fill="#E1E8ED" d="M27.656 14.75C23.688 11.625 14.201 4.299 12.935 3.373l-2.073 1.649c3.393 2.669 12.481 9.681 14.86 11.573.037.029.06.059.087.088L27.903 15c-.06-.087-.146-.171-.247-.25z" transform="translate(0, 0) scale(5, 8)" /><path fill="#DD2E44" d="M21.533 18.002L33.768 5.768c.976-.976.976-2.559 0-3.535-.977-.977-2.559-.977-3.535 0L17.998 14.467 5.764 2.233c-.976-.977-2.56-.977-3.535 0-.977.976-.977 2.559 0 3.535l12.234 12.234L2.201 30.265c-.977.977-.977 2.559 0 3.535.488.488 1.128.732 1.768.732s1.28-.244 1.768-.732l12.262-12.263 12.234 12.234c.488.488 1.128.732 1.768.732.64 0 1.279-.244 1.768-.732.976-.977.976-2.559 0-3.535L21.533 18.002z" transform="translate(200, 0) scale(5, 8)" /><defs transform="translate(75, 275)" /><g fill="#000000" transform="translate(75, 275)"><g transform="translate(0, 0)"><path d="M0 45.26L9.47 31.79L0.71 19.34L6.20 19.34L10.18 25.42Q11.30 27.15 11.99 28.32Q13.06 26.71 13.96 25.46L18.33 19.34L23.58 19.34L14.62 31.54L24.27 45.26L18.87 45.26L13.55 37.21L12.13 35.03L5.32 45.26L0 45.26Z" /></g></g><defs transform="translate(275, 275)" /><g fill="#000000" transform="translate(275, 275)"><g transform="translate(0, 0)"><path d="M0 34.52L0 30.10L13.50 30.10L13.50 34.52L0 34.52Z" /></g></g></svg>