<?xml version='1.0' encoding='utf-8'?>
<svg xmlns="http://www.w3.org/2000/svg" width="400" height="400" viewBox="0 0 400 400" version="1.1"><!--description: величина объекта --><path fill="#FFCC4D" d="M30.021 34.264c-1.563 1.563-4.095 1.562-5.656 0L1.736 11.636c-1.562-1.562-1.563-4.094 0-5.657l4.243-4.242c1.562-1.562 4.095-1.562 5.657 0l22.626 22.628c1.562 1.562 1.562 4.096.001 5.656l-4.242 4.243z" transform="translate(0, 0) scale(5, 10)" /><path fill="#292F33" d="M9.515 6.687c-.391.39-1.023.39-1.414 0-.39-.391-.39-1.024 0-1.415l3.536-3.536 1.414 1.415-3.536 3.536zm5.656 1.414c-.39.391-1.024.391-1.414 0-.391-.391-.391-1.024 0-1.414l1.415-1.415 1.414 1.415-1.415 1.414zm1.415 5.656c-.391.391-1.024.391-1.414 0-.39-.391-.39-1.024 0-1.414l3.536-3.536c.486.486.929.928 1.414 1.415l-3.536 3.535zm5.656 1.414c-.39.391-1.023.391-1.413 0-.392-.391-.391-1.024 0-1.414l1.414-1.415c.485.487.928.928 1.414 1.415l-1.415 1.414zm1.415 5.657c-.391.391-1.023.392-1.414 0-.391-.391-.391-1.023-.001-1.414l3.536-3.535 1.414 1.414-3.535 3.535zm7.071 7.071c-.39.391-1.023.391-1.413 0-.392-.391-.392-1.023-.001-1.414l3.536-3.535 1.414 1.414-3.536 3.535zm-1.415-5.657c-.391.391-1.022.391-1.414.001-.391-.391-.39-1.024 0-1.414l1.415-1.414 1.413 1.413-1.414 1.414z" transform="translate(0, 0) scale(5, 10)" /><path fill="#662113" d="M4 11v12.375c0 2.042 1.093 2.484 1.093 2.484l11.574 9.099C18.489 36.39 18 33.375 18 33.375V22L4 11z" transform="translate(200, 0) scale(5, 10)" /><path fill="#C1694F" d="M32 11v12.375c0 2.042-1.063 2.484-1.063 2.484s-9.767 7.667-11.588 9.099C17.526 36.39 18 33.375 18 33.375V22l14-11z" transform="translate(200, 0) scale(5, 10)" /><path fill="#D99E82" d="M19.289.5c-.753-.61-1.988-.61-2.742 0L4.565 10.029c-.754.61-.754 1.607 0 2.216l12.023 9.646c.754.609 1.989.609 2.743 0l12.104-9.73c.754-.609.754-1.606 0-2.216L19.289.5z" transform="translate(200, 0) scale(5, 10)" /><path fill="#D99E82" d="M18 35.75c-.552 0-1-.482-1-1.078V21.745c0-.596.448-1.078 1-1.078.553 0 1 .482 1 1.078v12.927c0 .596-.447 1.078-1 1.078z" transform="translate(200, 0) scale(5, 10)" /><path fill="#99AAB5" d="M28 18.836c0 1.104.104 1.646-1 2.442l-2.469 1.878c-1.104.797-1.531.113-1.531-.992v-2.961c0-.193-.026-.4-.278-.608C20.144 16.47 10.134 8.519 8.31 7.051l4.625-3.678c1.266.926 10.753 8.252 14.722 11.377.197.156.343.328.343.516v3.57z" transform="translate(200, 0) scale(5, 10)" /><path fill="#CCD6DD" d="M27.656 14.75C23.688 11.625 14.201 4.299 12.935 3.373l-1.721 1.368-2.904 2.31c1.825 1.468 11.834 9.419 14.412 11.544.151.125.217.25.248.371L27.903 15c-.06-.087-.146-.171-.247-.25z" transform="translate(200, 0) scale(5, 10)" /><path fill="#CCD6DD" d="M28 18.836v-3.57c0-.188-.146-.359-.344-.516-3.968-3.125-13.455-10.451-14.721-11.377l-2.073 1.649c3.393 2.669 12.481 9.681 14.86 11.573.256.204.278.415.278.608v4.836l1-.761c1.104-.797 1-1.338 1-2.442z" transform="translate(200, 0) scale(5, 10)" /><path fill="#E1E8ED" d="M27.656 14.75C23.688 11.625 14.201 4.299 12.935 3.373l-2.073 1.649c3.393 2.669 12.481 9.681 14.86 11.573.037.029.06.059.087.088L27.903 15c-.06-.087-.146-.171-.247-.25z" transform="translate(200, 0) scale(5, 10)" /></svg>