<?xml version='1.0' encoding='utf-8'?>
<svg xmlns="http://www.w3.org/2000/svg" width="400" height="400" viewBox="0 0 400 400" version="1.1"><!--description: становиться из маленького большим --><path fill="#77B255" d="M22.911 14.398c-1.082.719-2.047 1.559-2.88 2.422-.127-4.245-1.147-9.735-6.772-12.423C12.146-1.658-.833 1.418.328 2.006c2.314 1.17 3.545 4.148 5.034 5.715 2.653 2.792 5.603 2.964 7.071.778 3.468 2.254 3.696 6.529 3.59 11.099-.012.505-.023.975-.023 1.402v14c0 1.104 4 1.104 4 0V23.51c.542-.954 2.122-3.505 4.43-5.294 1.586 1.393 4.142.948 6.463-1.495 1.489-1.567 2.293-4.544 4.607-5.715 1.221-.618-12.801-3.994-12.589 3.392z" transform="translate(0, 0) scale(5, 8)" /><path fill="#662113" d="M22 33c0 2.209-1.791 3-4 3s-4-.791-4-3l1-9c0-2.209.791-2 3-2s3-.209 3 2l1 9z" transform="translate(200, 0) scale(5, 8)" /><path fill="#5C913B" d="M34 17c0 8.837-7.163 12-16 12-8.836 0-16-3.163-16-12C2 8.164 11 0 18 0s16 8.164 16 17z" transform="translate(200, 0) scale(5, 8)" /><g fill="#3E721D" transform="translate(200, 0) scale(5, 8)"><ellipse cx="6" cy="21" rx="2" ry="1" /><ellipse cx="30" cy="21" rx="2" ry="1" /><ellipse cx="10" cy="25" rx="2" ry="1" /><ellipse cx="14" cy="22" rx="2" ry="1" /><ellipse cx="10" cy="16" rx="2" ry="1" /><ellipse cx="7" cy="12" rx="2" ry="1" /><ellipse cx="29" cy="12" rx="2" ry="1" /><ellipse cx="14" cy="10" rx="2" ry="1" /><ellipse cx="22" cy="10" rx="2" ry="1" /><ellipse cx="26" cy="16" rx="2" ry="1" /><ellipse cx="18" cy="17" rx="2" ry="1" /><ellipse cx="22" cy="22" rx="2" ry="1" /><ellipse cx="18" cy="26" rx="2" ry="1" /><ellipse cx="26" cy="25" rx="2" ry="1" /></g><defs transform="translate(75, 275)" /><g fill="#000000" transform="translate(75, 275)"><g transform="translate(0, 0)"><path d="M0 29.61L0 25.51L23.71 15.50L23.71 19.87L4.91 27.59L23.71 35.38L23.71 39.75L0 29.61Z" /></g></g><defs transform="translate(275, 275)" /><g fill="#000000" transform="translate(275, 275)"><g transform="translate(0, 0)"><path d="M0 45.26L0 40.26L5.00 40.26L5.00 45.26L0 45.26Z" /></g></g></svg>