<?xml version='1.0' encoding='utf-8'?>
<svg xmlns="http://www.w3.org/2000/svg" width="400" height="400" viewBox="0 0 400 400" version="1.1"><!--description: процесс разрушения --><path fill="#BB1A34" d="M22 0l-4 8.028-5-5.018v7.024L3 8.028l8 8.028-11 6.02h12L6 34.118l12-8.028 11 10.035-3-14.049h10l-8-6.021 8-9.031-12 3.01L22 0z" transform="translate(0, 0) scale(5, 10)" /><path fill="#FCAB40" d="M22.914 12.924l1.86-.467L30 11.146l-3.381 3.816-1.319 1.49 1.59 1.195 2.925 2.202h-5.918l.473 2.218 1.551 7.26-5.845-5.332-1.056-.964-1.188.795-5.24 3.506 2.406-4.828 1.322-2.655H9.564l3.759-2.059 2.145-1.172-1.727-1.735-3.044-3.053 3.221.646 2.186.439V8.686l1.45 1.455 1.794 1.799 1.133-2.276 1.273-2.556" transform="translate(0, 0) scale(5, 10)" /><path fill="#F5F8FA" d="M21.512 14.301l.767-.193 2.158-.541-1.396 1.576-.545.615.656.493 1.208.909h-2.443l.195.916.641 2.997-2.413-2.201-.437-.398-.49.328-2.163 1.448.993-1.994.546-1.096H16l1.553-.85.885-.484-.713-.716-1.257-1.261 1.329.267.903.181v-1.745l.599.6.74.743.468-.939.525-1.056" transform="translate(0, 0) scale(5, 10)" /><path fill="#3B88C3" d="M36 32c0 2.209-1.791 4-4 4H4c-2.209 0-4-1.791-4-4V4c0-2.209 1.791-4 4-4h28c2.209 0 4 1.791 4 4v28z" transform="translate(200, 0) scale(5, 10)" /><path fill="#FFF" d="M22.242 22.242l2.829 2.829c-3.905 3.905-10.237 3.904-14.143-.001-2.247-2.246-3.194-5.296-2.854-8.225l-4.037.367c-.215 3.84 1.128 7.752 4.062 10.687 5.467 5.467 14.333 5.468 19.799 0l2.828 2.828.849-9.334-9.333.849zM27.899 8.1C22.431 2.633 13.568 2.633 8.1 8.1L5.272 5.272l-.849 9.334 9.334-.849-2.829-2.829c3.906-3.905 10.236-3.905 14.142 0 2.248 2.247 3.194 5.297 2.856 8.226l4.036-.366c.216-3.841-1.128-7.753-4.063-10.688z" transform="translate(200, 0) scale(5, 10)" /></svg>