<?xml version='1.0' encoding='utf-8'?>
<svg xmlns="http://www.w3.org/2000/svg" width="400" height="400" viewBox="0 0 400 400" version="1.1"><!--description: машина-человек --><ellipse fill="#F4900C" cx="33.5" cy="14.5" rx="2.5" ry="3.5" transform="translate(0, 0) scale(5, 8)" /><ellipse fill="#F4900C" cx="2.5" cy="14.5" rx="2.5" ry="3.5" transform="translate(0, 0) scale(5, 8)" /><path fill="#FFAC33" d="M34 19c0 .553-.447 1-1 1h-3c-.553 0-1-.447-1-1v-9c0-.552.447-1 1-1h3c.553 0 1 .448 1 1v9zM7 19c0 .553-.448 1-1 1H3c-.552 0-1-.447-1-1v-9c0-.552.448-1 1-1h3c.552 0 1 .448 1 1v9z" transform="translate(0, 0) scale(5, 8)" /><path fill="#FFCC4D" d="M28 5c0 2.761-4.478 4-10 4C12.477 9 8 7.761 8 5s4.477-5 10-5c5.522 0 10 2.239 10 5z" transform="translate(0, 0) scale(5, 8)" /><path fill="#F4900C" d="M25 4.083C25 5.694 21.865 7 18 7c-3.866 0-7-1.306-7-2.917 0-1.611 3.134-2.917 7-2.917 3.865 0 7 1.306 7 2.917z" transform="translate(0, 0) scale(5, 8)" /><path fill="#269" d="M30 5.5C30 6.881 28.881 7 27.5 7h-19C7.119 7 6 6.881 6 5.5S7.119 3 8.5 3h19C28.881 3 30 4.119 30 5.5z" transform="translate(0, 0) scale(5, 8)" /><path fill="#55ACEE" d="M30 6H6c-1.104 0-2 .896-2 2v26h28V8c0-1.104-.896-2-2-2z" transform="translate(0, 0) scale(5, 8)" /><path fill="#3B88C3" d="M35 33v-1c0-1.104-.896-2-2-2H22.071l-3.364 3.364c-.391.391-1.023.391-1.414 0L13.929 30H3c-1.104 0-2 .896-2 2v1c0 1.104-.104 2 1 2h32c1.104 0 1-.896 1-2z" transform="translate(0, 0) scale(5, 8)" /><circle fill="#FFF" cx="24.5" cy="14.5" r="4.5" transform="translate(0, 0) scale(5, 8)" /><circle fill="#DD2E44" cx="24.5" cy="14.5" r="2.721" transform="translate(0, 0) scale(5, 8)" /><circle fill="#FFF" cx="11.5" cy="14.5" r="4.5" transform="translate(0, 0) scale(5, 8)" /><path fill="#F5F8FA" d="M29 25.5c0 1.381-1.119 2.5-2.5 2.5h-17C8.119 28 7 26.881 7 25.5S8.119 23 9.5 23h17c1.381 0 2.5 1.119 2.5 2.5z" transform="translate(0, 0) scale(5, 8)" /><path fill="#CCD6DD" d="M17 23h2v5h-2zm-5 0h2v5h-2zm10 0h2v5h-2zM7 25.5c0 1.21.859 2.218 2 2.45v-4.9c-1.141.232-2 1.24-2 2.45zm20-2.45v4.899c1.141-.232 2-1.24 2-2.45s-.859-2.217-2-2.449z" transform="translate(0, 0) scale(5, 8)" /><circle fill="#DD2E44" cx="11.5" cy="14.5" r="2.721" transform="translate(0, 0) scale(5, 8)" /><path fill="#269" d="M24 26.799v-2.566c2-1.348 4.08-3.779 4.703-6.896.186.103.206.17.413.17.991 0 1.709-1.287 1.709-2.873 0-1.562-.823-2.827-1.794-2.865.187-.674.293-1.577.293-2.735C29.324 5.168 26 .527 18.541.527c-6.629 0-10.777 4.641-10.777 8.507 0 1.123.069 2.043.188 2.755-.911.137-1.629 1.352-1.629 2.845 0 1.587.804 2.873 1.796 2.873.206 0 .025-.067.209-.17C8.952 20.453 11 22.885 13 24.232v2.414c-5 .645-12 3.437-12 6.23v1.061C1 35 2.076 35 3.137 35h29.725C33.924 35 35 35 35 33.938v-1.061c0-2.615-6-5.225-11-6.078z" transform="translate(200, 0) scale(5, 8)" /><defs transform="translate(75, 275)" /><g fill="#000000" transform="translate(75, 275)"><g transform="translate(0, 0)"><path d="M0 34.52L0 30.10L13.50 30.10L13.50 34.52L0 34.52Z" /></g></g><defs transform="translate(275, 275)" /><g fill="#000000" transform="translate(275, 275)"><g transform="translate(0, 0)"><path d="M0 34.52L0 30.10L13.50 30.10L13.50 34.52L0 34.52Z" /></g></g></svg>