<?xml version='1.0' encoding='utf-8'?>
<svg xmlns="http://www.w3.org/2000/svg" width="400" height="400" viewBox="0 0 400 400" version="1.1"><!--description: земля рода --><path fill="#FFAC33" d="M31.72.302c-1.703-.551-5.71-.401-6.712.902-2.605.05-5.66 2.404-6.061 5.51-.397 3.074.487 4.501.801 6.812.356 2.618 1.828 3.456 3.005 3.807 1.693 2.237 3.493 2.141 6.516 2.141 3.043 0 5.258-1.057 6.73-2.993V2.834C34.925 1.737 33.487.873 31.72.302z" transform="translate(0, 0) scale(5, 10)" /><path fill="#FFDC5D" d="M26.05 17.786h5.059v10H26.05z" transform="translate(0, 0) scale(5, 10)" /><path fill="#FFDC5D" d="M35.248 9.103c-.571-.791-1.302-1.427-2.905-1.653.601.275 1.177 1.227 1.252 1.753.075.526.15.952-.326.426-1.906-2.107-3.982-1.277-6.039-2.564-1.437-.899-1.875-1.893-1.875-1.893s-.175 1.327-2.354 2.68c-.632.392-1.385 1.265-1.803 2.554-.301.927-.207 1.753-.207 3.165 0 1.145.27 2.235.738 3.219 1.218 2.558 3.823 4.37 6.85 4.37 2.587 0 4.869-1.335 6.239-3.317.561-.812.97-1.733 1.181-2.717v-4.138c-.144-.83-.385-1.378-.751-1.885z" transform="translate(0, 0) scale(5, 10)" /><path fill="#C1694F" d="M31.952 17.786h-6.746s.843 1.686 3.373 1.686 3.373-1.686 3.373-1.686zm-2.529-2.107h-1.686c-.233 0-.422-.189-.422-.422 0-.233.189-.422.422-.422h1.686c.233 0 .422.189.422.422-.001.233-.189.422-.422.422z" transform="translate(0, 0) scale(5, 10)" /><path fill="#662113" d="M25.207 12.728c-.466 0-.843-.378-.843-.843v-.843c0-.466.378-.843.843-.843.466 0 .843.378.843.843v.843c0 .465-.377.843-.843.843zm6.745 0c-.466 0-.843-.378-.843-.843v-.843c0-.466.378-.843.843-.843.466 0 .843.378.843.843v.843c.001.465-.377.843-.843.843z" transform="translate(0, 0) scale(5, 10)" /><path fill="#FA743E" d="M21 22h5s.198 4.773 2.472 4.773S31.084 22 31.084 22H36v14H18V24.973C18 23 19 22 21 22z" transform="translate(0, 0) scale(5, 10)" /><path fill="#DD551F" d="M20.986 26h1.028v10h-1.028z" transform="translate(0, 0) scale(5, 10)" /><path fill="#FFAC33" d="M8.27 19.473c5.902 0 8.713-3.949 8.962-10.656.15-4.057-2.23-7.13-6.511-8.515-1.704-.551-5.711-.401-6.713.901-1.362.026-2.844.686-4.008 1.751v13.375c.548.544 1.185.834 1.754 1.003 1.694 2.237 3.494 2.141 6.516 2.141z" transform="translate(0, 0) scale(5, 10)" /><path fill="#FFDC5D" d="M4.897 17.786h5.059v10H4.897z" transform="translate(0, 0) scale(5, 10)" /><path fill="#FFDC5D" d="M14.095 9.103c-.571-.791-1.302-1.427-2.905-1.653.601.275 1.177 1.227 1.252 1.753.075.526.15.952-.326.426-1.906-2.107-3.982-1.277-6.039-2.564-1.436-.899-1.874-1.894-1.874-1.894s-.175 1.327-2.354 2.68C1.217 8.243.464 9.116.046 10.405c-.022.067-.028.132-.046.198v4.506c.124.587.323 1.148.577 1.68 1.218 2.558 3.823 4.37 6.85 4.37 2.587 0 4.869-1.335 6.239-3.317.849-1.229 1.349-2.705 1.349-4.271 0-2.565-.268-3.566-.92-4.468z" transform="translate(0, 0) scale(5, 10)" /><path fill="#C1694F" d="M10.799 17.786H4.053s.843 1.686 3.373 1.686 3.373-1.686 3.373-1.686zM8.27 15.679H6.584c-.233 0-.422-.189-.422-.422 0-.233.189-.422.422-.422H8.27c.233 0 .422.189.422.422 0 .233-.189.422-.422.422z" transform="translate(0, 0) scale(5, 10)" /><path fill="#662113" d="M4.054 12.728c-.466 0-.843-.378-.843-.843v-.843c0-.466.378-.843.843-.843.466 0 .843.378.843.843v.843c0 .465-.377.843-.843.843zm6.745 0c-.466 0-.843-.378-.843-.843v-.843c0-.466.378-.843.843-.843.466 0 .843.378.843.843v.843c.001.465-.377.843-.843.843z" transform="translate(0, 0) scale(5, 10)" /><path fill="#99AAB5" d="M15 22h-5s-.198 4.773-2.472 4.773S4.897 22 4.897 22H0v14h18V24.973C18 23 17 22 15 22z" transform="translate(0, 0) scale(5, 10)" /><path fill="#66757F" d="M13.986 26h1.028v10h-1.028z" transform="translate(0, 0) scale(5, 10)" /><path fill="#FFAC33" d="M20.959 15.053c-1.464-.474-4.909-.345-5.771.775-2.239.043-4.866 2.067-5.211 4.737-.341 2.643.419 3.87.689 5.857.306 2.251 1.572 2.971 2.584 3.273 1.456 1.923 3.003 1.841 5.602 1.841 5.074 0 7.491-3.395 7.705-9.162.129-3.489-1.917-6.13-5.598-7.321z" transform="translate(0, 0) scale(5, 10)" /><path fill="#FFDC5D" d="M16.053 30.085h4.148V36h-4.148z" transform="translate(0, 0) scale(5, 10)" /><path fill="#FFDC5D" d="M23.861 22.62c-.491-.68-1.12-1.227-2.498-1.421.517.237 1.012 1.055 1.077 1.507.065.452.129.818-.28.366-1.639-1.811-3.424-1.098-5.192-2.205-1.235-.773-1.612-1.628-1.612-1.628s-.151 1.141-2.024 2.304c-.543.337-1.191 1.088-1.55 2.196-.258.797-.178 1.507-.178 2.721 0 3.544 2.921 6.524 6.524 6.524s6.524-3.006 6.524-6.524c-.001-2.204-.232-3.065-.791-3.84z" transform="translate(0, 0) scale(5, 10)" /><path fill="#C1694F" d="M21.027 30.085h-5.8s.725 1.45 2.9 1.45 2.9-1.45 2.9-1.45zm-2.175-1.449h-1.45c-.2 0-.362-.162-.362-.362s.162-.362.362-.362h1.45c.2 0 .362.162.362.362s-.162.362-.362.362z" transform="translate(0, 0) scale(5, 10)" /><path fill="#662113" d="M15.091 26.764c-.466 0-.843-.377-.843-.843v-.843c0-.466.377-.843.843-.843.465 0 .843.377.843.843v.843c0 .466-.377.843-.843.843zm6 0c-.466 0-.843-.377-.843-.843v-.843c0-.466.377-.843.843-.843.466 0 .843.377.843.843v.843c0 .466-.377.843-.843.843z" transform="translate(0, 0) scale(5, 10)" /><path fill="#5C913B" d="M23.091 33h-2.89s-.705 3-2.074 3c-1.368 0-2.074-3-2.074-3h-1.962c-.368 0-.719.032-1.055.088-1.941.326-3.301 1.535-3.759 2.912h17.632c-.518-1.602-2.159-3-3.818-3z" transform="translate(0, 0) scale(5, 10)" /><circle fill="#88C9F9" cx="18" cy="18" r="18" transform="translate(200, 0) scale(5, 10)" /><path fill="#5C913B" d="M25.716 1.756c-1.022.568-1.872 1.528-3.028 1.181-1.875-.562-4.375-1.812-6-.25s-2 3 0 2.938 3.375-2.438 4.375-1.438.749 1.813-1.625 2.125S14.5 7 13.125 7s-1.688.812-.75 1.688-.563.937-2.125 1.812.375 1.25 1.688 2 2.312-.188 2.875-1.438 2.981-2.75 3.99-2.562c1.01.188 1.01.688.822 1.562s.75.625.812-.375 1.188-1.75 2.062-1.812 1.625 1.188.625 1.812-2 1.125-.75 1.438 2.125 1.938.688 2.625-3.937 1.125-5.062.562-3.688-1.375-4.375-.938-1.062.89-1.875 1.195c-.812.305-4.125 1.805-4.188 3.743S7.438 22.438 8.75 22.5s4.5-.812 5.5-1.625 2.375-.625 2.812.312.125 1.5-.312 3 .286 2.25.987 3.562c.701 1.312 1.263 2.062 1.263 3s1 1.875 2.5.312 2.875-4.625 3.5-5.75 1.125-3.625 1.875-4.125 1.938-1.688 1.062-1.5-2.625-.062-3.062-1.312-2.312-3.625-1.438-3.875 1.875 1.39 2.25 2.164c.375.774.875 1.711 1.625 1.961s2.375-1.673 2.875-1.961c.5-.289.125-1.476-.875-1.351s-2.312 0-2.312-.624 1.25-1.438 2.25-1.25 1.75.5 2.375 1.25 1.875 2.125 2.375 3 .875 1 1.125-.562c.166-1.038.387-1.609.59-2.222-1.013-5.829-4.82-10.683-9.999-13.148z" transform="translate(200, 0) scale(5, 10)" /></svg>