<?xml version='1.0' encoding='utf-8'?>
<svg xmlns="http://www.w3.org/2000/svg" width="400" height="400" viewBox="0 0 400 400" version="1.1"><!--description: украшающее рисование --><path fill="#D99E82" d="M18 3.143c-9.941 0-18 6.908-18 15.428 0 1.066.126 2.107.367 3.112C2.146 24.744 3.377 22.812 9 20c5.727-2.864 0 4-2 8-.615 1.23-.282 2.271.56 3.124C10.506 32.928 14.104 34 18 34c9.941 0 18-6.907 18-15.429 0-8.52-8.059-15.428-18-15.428zm2.849 24.447c-.395 1.346-2.46 1.924-4.613 1.291-2.153-.632-3.578-2.234-3.183-3.581.395-1.346 2.46-1.924 4.613-1.29 2.153.631 3.578 2.233 3.183 3.58z" transform="translate(0, 0) scale(5, 8)" /><circle fill="#5C913B" cx="10" cy="11" r="3" transform="translate(0, 0) scale(5, 8)" /><circle fill="#269" cx="20" cy="9" r="3" transform="translate(0, 0) scale(5, 8)" /><circle fill="#DD2E44" cx="29" cy="15" r="3" transform="translate(0, 0) scale(5, 8)" /><circle fill="#FFCC4D" cx="28" cy="24" r="3" transform="translate(0, 0) scale(5, 8)" /><path fill="#FFAC33" d="M34.347 16.893l-8.899-3.294-3.323-10.891c-.128-.42-.517-.708-.956-.708-.439 0-.828.288-.956.708l-3.322 10.891-8.9 3.294c-.393.146-.653.519-.653.938 0 .418.26.793.653.938l8.895 3.293 3.324 11.223c.126.424.516.715.959.715.442 0 .833-.291.959-.716l3.324-11.223 8.896-3.293c.391-.144.652-.518.652-.937 0-.418-.261-.792-.653-.938z" transform="translate(200, 0) scale(5, 8)" /><path fill="#FFCC4D" d="M14.347 27.894l-2.314-.856-.9-3.3c-.118-.436-.513-.738-.964-.738-.451 0-.846.302-.965.737l-.9 3.3-2.313.856c-.393.145-.653.52-.653.938 0 .418.26.793.653.938l2.301.853.907 3.622c.112.444.511.756.97.756.459 0 .858-.312.97-.757l.907-3.622 2.301-.853c.393-.144.653-.519.653-.937 0-.418-.26-.793-.653-.937zM10.009 6.231l-2.364-.875-.876-2.365c-.145-.393-.519-.653-.938-.653-.418 0-.792.26-.938.653l-.875 2.365-2.365.875c-.393.146-.653.52-.653.938 0 .418.26.793.653.938l2.365.875.875 2.365c.146.393.52.653.938.653.418 0 .792-.26.938-.653l.875-2.365 2.365-.875c.393-.146.653-.52.653-.938 0-.418-.26-.792-.653-.938z" transform="translate(200, 0) scale(5, 8)" /><defs transform="translate(75, 275)" /><g fill="#000000" transform="translate(75, 275)"><g transform="translate(0, 0)"><path d="M0 34.52L0 30.10L13.50 30.10L13.50 34.52L0 34.52Z" /></g></g><defs transform="translate(275, 275)" /><g fill="#000000" transform="translate(275, 275)"><g transform="translate(0, 0)"><path d="M0 34.52L0 30.10L13.50 30.10L13.50 34.52L0 34.52Z" /></g></g></svg>