<?xml version='1.0' encoding='utf-8'?>
<svg xmlns="http://www.w3.org/2000/svg" width="400" height="400" viewBox="0 0 400 400" version="1.1"><!--description: открытое место торговли --><path fill="#AAB8C2" d="M17 34c0 1.104.896 2 2 2h14c1.104 0 2-.896 2-2V18c0-1.104-.896-2-2-2H19c-1.104 0-2 .896-2 2v16z" transform="translate(0, 0) scale(5, 8)" /><path fill="#292F33" d="M33 16H23v2h12c0-1.104-.896-2-2-2z" transform="translate(0, 0) scale(5, 8)" /><path fill="#3B88C3" d="M3 30h30v4H3z" transform="translate(0, 0) scale(5, 8)" /><path fill="#CCD6DD" d="M3 16c-1.104 0-2 .896-2 2v16c0 1.104.896 2 2 2h20V16H3z" transform="translate(0, 0) scale(5, 8)" /><path fill="#66757F" d="M3 16c-1.104 0-2 .896-2 2h22v-2H3z" transform="translate(0, 0) scale(5, 8)" /><path fill="#55ACEE" d="M3 20h4v4H3zm14 0h4v4h-4zm-7 0h4v4h-4z" transform="translate(0, 0) scale(5, 8)" /><path fill="#3B88C3" d="M29 20h4v4h-4zm-6 0h4v4h-4z" transform="translate(0, 0) scale(5, 8)" /><path fill="#55ACEE" d="M3 30h18v6H3z" transform="translate(0, 0) scale(5, 8)" /><path fill="#3B88C3" d="M7 30h10v6H7z" transform="translate(0, 0) scale(5, 8)" /><path fill="#DD2E44" d="M1 26h22v4H1z" transform="translate(0, 0) scale(5, 8)" /><path fill="#F4ABBA" d="M7 27h10v2H7z" transform="translate(0, 0) scale(5, 8)" /><path fill="#FFF" d="M9 27h6v2H9z" transform="translate(0, 0) scale(5, 8)" /><path fill="#A0041E" d="M23 26h12v4H23z" transform="translate(0, 0) scale(5, 8)" /><path fill="#292F33" d="M5 14h2v2H5zm12 0h2v2h-2z" transform="translate(0, 0) scale(5, 8)" /><path fill="#DD2E44" d="M21 12c0 1.104-.896 2-2 2H5c-1.104 0-2-.896-2-2V2c0-1.104.896-2 2-2h14c1.104 0 2 .896 2 2v10z" transform="translate(0, 0) scale(5, 8)" /><path d="M10.561 10.151c.616 0 1.093.28 1.093.925 0 .644-.477.924-1.009.924H5.967c-.617 0-1.093-.28-1.093-.924 0-.294.182-.546.322-.714C6.359 8.975 7.62 7.714 8.685 6.173c.252-.364.49-.798.49-1.303 0-.574-.434-1.079-1.009-1.079-1.611 0-.84 2.269-2.185 2.269-.672 0-1.022-.476-1.022-1.022 0-1.765 1.569-3.18 3.292-3.18 1.723 0 3.109 1.135 3.109 2.914 0 1.947-2.171 3.88-3.362 5.379h2.563zm2.363-.35c-.687 0-.981-.462-.981-.826 0-.309.112-.477.196-.617l3.138-5.687c.308-.56.7-.813 1.429-.813.812 0 1.611.519 1.611 1.793v4.3h.238c.546 0 .98.364.98.925 0 .56-.434.924-.98.924h-.238v1.19c0 .743-.295 1.093-1.009 1.093s-1.008-.35-1.008-1.093V9.8h-3.376zM16.3 4.044h-.028l-1.891 3.908H16.3V4.044z" fill="#FFF" transform="translate(0, 0) scale(5, 8)" /><path fill="#F4900C" d="M18 35.8c-.39 0-.745-.218-.921-.565l-1.8-3.554-3.024 2.596c-.191.161-.43.247-.672.247-.133 0-.267-.025-.394-.078-.359-.148-.606-.487-.634-.873l-.304-3.976-3.788 1.241c-.105.034-.213.051-.321.051-.27 0-.532-.106-.73-.303-.274-.273-.371-.681-.25-1.051l1.24-3.788-3.972-.301c-.387-.031-.726-.275-.875-.634-.148-.361-.083-.772.17-1.067l2.594-3.024-3.554-1.8C.418 18.745.2 18.388.2 18s.218-.745.565-.921l3.554-1.8-2.594-3.024c-.252-.295-.318-.708-.17-1.066.149-.359.487-.606.875-.634l3.972-.304-1.24-3.788c-.121-.37-.024-.775.25-1.051.198-.196.46-.301.73-.301.108 0 .216.017.321.051l3.788 1.24.304-3.972c.029-.388.275-.726.634-.875.127-.052.261-.078.394-.078.242 0 .481.084.672.248l3.024 2.594 1.8-3.554C17.255.418 17.61.2 18 .2c.388 0 .745.218.92.565l1.802 3.554 3.024-2.594c.19-.164.431-.248.671-.248.135 0 .268.026.396.078.358.149.603.487.634.875l.303 3.972 3.785-1.24c.105-.035.215-.051.321-.051.27 0 .534.105.729.301.276.276.373.682.252 1.051l-1.241 3.788 3.976.304c.386.029.725.275.873.634.148.358.084.771-.169 1.066l-2.596 3.024 3.554 1.8c.348.177.566.533.566.921s-.218.744-.565.921l-3.554 1.8 2.596 3.024c.253.295.317.706.169 1.067-.148.358-.487.603-.876.634l-3.973.301 1.241 3.788c.121.371.024.777-.252 1.051-.195.197-.46.303-.729.303-.106 0-.216-.017-.321-.051l-3.785-1.241-.303 3.973c-.031.389-.275.728-.634.876-.129.053-.262.078-.396.078-.24 0-.48-.086-.671-.247l-3.024-2.596-1.802 3.554c-.176.347-.533.565-.921.565z" transform="translate(200, 0) scale(5, 8)" /><path fill="#FFCC4D" d="M31 18c0 7.179-5.821 13-13 13S5 25.18 5 18 10.821 5 18 5s13 5.821 13 13" transform="translate(200, 0) scale(5, 8)" /><path d="M18 23.471c-6.222 0-8-2.328-8-1.228 0 1.102 3.556 3.98 8 3.98s8-2.879 8-3.98c0-1.1-1.777 1.228-8 1.228m8-8.804c0 1.473-1.194 2.667-2.667 2.667-1.472 0-2.666-1.194-2.666-2.667S21.861 12 23.333 12C24.806 12 26 13.193 26 14.667m-10.667 0c0 1.473-1.195 2.667-2.667 2.667-1.472 0-2.667-1.194-2.667-2.667S11.195 12 12.667 12c1.472 0 2.666 1.193 2.666 2.667" fill="#F4900C" transform="translate(200, 0) scale(5, 8)" /><defs transform="translate(75, 275)" /><g fill="#000000" transform="translate(75, 275)"><g transform="translate(0, 0)"><path d="M0 34.52L0 30.10L13.50 30.10L13.50 34.52L0 34.52Z" /></g></g><defs transform="translate(275, 275)" /><g fill="#000000" transform="translate(275, 275)"><g transform="translate(0, 0)"><path d="M0 34.52L0 30.10L13.50 30.10L13.50 34.52L0 34.52Z" /></g></g></svg>