<?xml version='1.0' encoding='utf-8'?>
<svg xmlns="http://www.w3.org/2000/svg" width="400" height="400" viewBox="0 0 400 400" version="1.1"><!--description: давать свет --><path fill="#FFD983" d="M29 11.06c0 6.439-5 7.439-5 13.44 0 3.098-3.123 3.359-5.5 3.359-2.053 0-6.586-.779-6.586-3.361C11.914 18.5 7 17.5 7 11.06 7 5.029 12.285.14 18.083.14 23.883.14 29 5.029 29 11.06z" transform="translate(0, 0) scale(5, 8)" /><path fill="#CCD6DD" d="M22.167 32.5c0 .828-2.234 2.5-4.167 2.5-1.933 0-4.167-1.672-4.167-2.5 0-.828 2.233-.5 4.167-.5 1.933 0 4.167-.328 4.167.5z" transform="translate(0, 0) scale(5, 8)" /><path fill="#FFCC4D" d="M22.707 10.293c-.391-.391-1.023-.391-1.414 0L18 13.586l-3.293-3.293c-.391-.391-1.023-.391-1.414 0s-.391 1.023 0 1.414L17 15.414V26c0 .553.448 1 1 1s1-.447 1-1V15.414l3.707-3.707c.391-.391.391-1.023 0-1.414z" transform="translate(0, 0) scale(5, 8)" /><path fill="#99AAB5" d="M24 31c0 1.104-.896 2-2 2h-8c-1.104 0-2-.896-2-2v-6h12v6z" transform="translate(0, 0) scale(5, 8)" /><path fill="#CCD6DD" d="M11.999 32c-.48 0-.904-.347-.985-.836-.091-.544.277-1.06.822-1.15l12-2c.544-.098 1.06.277 1.15.822.091.544-.277 1.06-.822 1.15l-12 2c-.055.01-.111.014-.165.014zm0-4c-.48 0-.904-.347-.985-.836-.091-.544.277-1.06.822-1.15l12-2c.544-.097 1.06.277 1.15.822.091.544-.277 1.06-.822 1.15l-12 2c-.055.01-.111.014-.165.014z" transform="translate(0, 0) scale(5, 8)" /><path fill="#FFAC33" d="M34.347 16.893l-8.899-3.294-3.323-10.891c-.128-.42-.517-.708-.956-.708-.439 0-.828.288-.956.708l-3.322 10.891-8.9 3.294c-.393.146-.653.519-.653.938 0 .418.26.793.653.938l8.895 3.293 3.324 11.223c.126.424.516.715.959.715.442 0 .833-.291.959-.716l3.324-11.223 8.896-3.293c.391-.144.652-.518.652-.937 0-.418-.261-.792-.653-.938z" transform="translate(200, 0) scale(5, 8)" /><path fill="#FFCC4D" d="M14.347 27.894l-2.314-.856-.9-3.3c-.118-.436-.513-.738-.964-.738-.451 0-.846.302-.965.737l-.9 3.3-2.313.856c-.393.145-.653.52-.653.938 0 .418.26.793.653.938l2.301.853.907 3.622c.112.444.511.756.97.756.459 0 .858-.312.97-.757l.907-3.622 2.301-.853c.393-.144.653-.519.653-.937 0-.418-.26-.793-.653-.937zM10.009 6.231l-2.364-.875-.876-2.365c-.145-.393-.519-.653-.938-.653-.418 0-.792.26-.938.653l-.875 2.365-2.365.875c-.393.146-.653.52-.653.938 0 .418.26.793.653.938l2.365.875.875 2.365c.146.393.52.653.938.653.418 0 .792-.26.938-.653l.875-2.365 2.365-.875c.393-.146.653-.52.653-.938 0-.418-.26-.792-.653-.938z" transform="translate(200, 0) scale(5, 8)" /><defs transform="translate(200, 275)" /><g fill="#000000" transform="translate(200, 275)"><g transform="translate(0, 0)"><path d="M23.71 29.61L0 39.75L0 35.38L18.77 27.59L0 19.87L0 15.50L23.71 25.51L23.71 29.61Z" /></g></g></svg>