<?xml version='1.0' encoding='utf-8'?>
<svg xmlns="http://www.w3.org/2000/svg" width="400" height="400" viewBox="0 0 400 400" version="1.1"><!--description: класть семя --><path fill="#77B255" d="M22.911 14.398c-1.082.719-2.047 1.559-2.88 2.422-.127-4.245-1.147-9.735-6.772-12.423C12.146-1.658-.833 1.418.328 2.006c2.314 1.17 3.545 4.148 5.034 5.715 2.653 2.792 5.603 2.964 7.071.778 3.468 2.254 3.696 6.529 3.59 11.099-.012.505-.023.975-.023 1.402v14c0 1.104 4 1.104 4 0V23.51c.542-.954 2.122-3.505 4.43-5.294 1.586 1.393 4.142.948 6.463-1.495 1.489-1.567 2.293-4.544 4.607-5.715 1.221-.618-12.801-3.994-12.589 3.392z" transform="translate(0, 0) scale(5, 8)" /><path fill="#FFDC5D" d="M4 15.894s-.093 2.362 1.792 3.068c1.667.625 2.309-.622 2.309-.622s-.059 1.914 1.941 2.622c1.885.668 2.75-.958 2.75-.958s.307 1.871 2.292 2.417C16.755 22.88 18 21.254 18 21.254v12.208c0 .959.542 2.575 2.543 2.576 2 .002 2.457-1.659 2.457-2.576v-20.5c0-1 1-1 1 0v2.666c0 3.792 2.038 6.143 2.751 6.792.713.65 1.667.979 2.82.734 1.956-.415 1.529-1.92.975-3.197-1.337-3.078-2.254-7.464-2.533-9.538C27.222 4.562 22.204.044 16.129.038 9.503.034 4.005 5.336 4 11.962v3.932z" transform="translate(200, 0) scale(5, 8)" /><defs transform="translate(200, 275)" /><g fill="#000000" transform="translate(200, 275)"><g transform="translate(0, 0)"><path d="M23.71 29.61L0 39.75L0 35.38L18.77 27.59L0 19.87L0 15.50L23.71 25.51L23.71 29.61Z" /></g></g></svg>