<?xml version='1.0' encoding='utf-8'?>
<svg xmlns="http://www.w3.org/2000/svg" width="400" height="400" viewBox="0 0 400 400" version="1.1"><!--description: отдыхать телом на месте --><path fill="#269" d="M24 26.799v-2.566c2-1.348 4.08-3.779 4.703-6.896.186.103.206.17.413.17.991 0 1.709-1.287 1.709-2.873 0-1.562-.823-2.827-1.794-2.865.187-.674.293-1.577.293-2.735C29.324 5.168 26 .527 18.541.527c-6.629 0-10.777 4.641-10.777 8.507 0 1.123.069 2.043.188 2.755-.911.137-1.629 1.352-1.629 2.845 0 1.587.804 2.873 1.796 2.873.206 0 .025-.067.209-.17C8.952 20.453 11 22.885 13 24.232v2.414c-5 .645-12 3.437-12 6.23v1.061C1 35 2.076 35 3.137 35h29.725C33.924 35 35 35 35 33.938v-1.061c0-2.615-6-5.225-11-6.078z" transform="translate(0, 0) scale(5, 8)" /><path fill="#67757F" d="M6 19h1v7H6z" transform="translate(200, 0) scale(5, 8)" /><path fill="#9AAAB4" d="M11 18v4c0 1 0 2-2 3l-2 1v-7l4-1z" transform="translate(200, 0) scale(5, 8)" /><path fill="#9AAAB4" d="M11.237 15h.968c.591 0 .779.479.779 1.071v.267c0 .406-.229.776-.592.958l-4.984 2.48c-.149.074-.312.224-.95.224h-.565c-.475 0-.909-.479-.909-1.071v-.267c0-.406.229-.776.592-.958l5.182-2.591c.149-.074.313-.113.479-.113z" transform="translate(200, 0) scale(5, 8)" /><path fill="#CCD6DD" d="M12.984 15.996v.498c0 .233-.185.579-.541.802l-5.105 2.478c-.409.205-.89-.093-.89-.55v-.428c0-.416.204-.683.605-.891l5.213-2.584c.408-.205.718.217.718.675z" transform="translate(200, 0) scale(5, 8)" /><path fill="#5DADEC" d="M27 24H15.033c-2.2 0-4-1.8-4-4V5c0-2.2 1.8-4 4-4H27c2.2 0 4 1.8 4 4v15c0 2.2-1.8 4-4 4z" transform="translate(200, 0) scale(5, 8)" /><path fill="#4289C1" d="M26 24H14.033c-2.2 0-4-1.8-4-4V5c0-2.2 1.8-4 4-4H26c2.2 0 4 1.8 4 4v15c0 2.2-1.8 4-4 4z" transform="translate(200, 0) scale(5, 8)" /><path fill="#E1E8ED" d="M15 1h10v8H15z" transform="translate(200, 0) scale(5, 8)" /><path fill="#9AAAB4" d="M27 33c-1.1 0-2-.9-2-2v-7c0-1.1.9-2 2-2s2 .9 2 2v7c0 1.1-.9 2-2 2z" transform="translate(200, 0) scale(5, 8)" /><path fill="#9AAAB4" d="M22.524 35.462l5.48-2.745.996-2.003v-5.443l-6 3-1.091 7.492zM13 33c-1.1 0-2-.9-2-2v-7c0-1.1.9-2 2-2s2 .9 2 2v7c0 1.1-.9 2-2 2z" transform="translate(200, 0) scale(5, 8)" /><path fill="#9AAAB4" d="M8.524 35.462l5.48-2.745.996-2.003v-5.443l-6 3-1.091 7.492z" transform="translate(200, 0) scale(5, 8)" /><path fill="#67757F" d="M7 36c-1.1 0-2-.9-2-2v-7c0-1.1.9-2 2-2s2 .9 2 2v7c0 1.1-.9 2-2 2zm14 0c-1.1 0-2-.9-2-2v-7c0-1.1.9-2 2-2s2 .9 2 2v7c0 1.1-.9 2-2 2z" transform="translate(200, 0) scale(5, 8)" /><path fill="#5DADEC" d="M10.805 20.131l-.3.004L4.742 23l-.295.183L22.076 23l6-3zM24 28.623l5.48-2.745.52-1.164v-3.145l-6 3-.615 4.355z" transform="translate(200, 0) scale(5, 8)" /><path fill="#5DADEC" d="M29 26H11c-.55 0-1-.45-1-1v-4c0-.55.45-1 1-1h18c.55 0 1 .45 1 1v4c0 .55-.45 1-1 1z" transform="translate(200, 0) scale(5, 8)" /><path fill="#2A6797" d="M23 29H5c-.55 0-1-.45-1-1v-4c0-.55.45-1 1-1h18c.55 0 1 .45 1 1v4c0 .55-.45 1-1 1z" transform="translate(200, 0) scale(5, 8)" /><path fill="#67757F" d="M26 19h1v7h-1z" transform="translate(200, 0) scale(5, 8)" /><path fill="#9AAAB4" d="M31 18v4c0 1 0 2-2 3l-2 1v-7l4-1z" transform="translate(200, 0) scale(5, 8)" /><path fill="#9AAAB4" d="M31.253 15h.968c.592 0 .779.479.779 1.071v.267c0 .406-.229.776-.592.958l-4.984 2.48c-.149.074-.312.224-.95.224h-.564c-.476 0-.91-.479-.91-1.071v-.267c0-.406.229-.776.592-.958l5.182-2.591c.149-.074.313-.113.479-.113z" transform="translate(200, 0) scale(5, 8)" /><path fill="#CCD6DD" d="M33 15.996v.498c0 .233-.185.579-.541.802l-5.105 2.478c-.409.205-.89-.093-.89-.55v-.428c0-.416.204-.683.605-.891l5.213-2.584c.408-.205.718.217.718.675z" transform="translate(200, 0) scale(5, 8)" /><defs transform="translate(75, 275)" /><g fill="#000000" transform="translate(75, 275)"><g transform="translate(0, 0)"><path d="M0 55.79L0 8.86L3.83 8.86L3.83 55.79L0 55.79ZM12.99 55.79L12.99 8.86L16.82 8.86L16.82 55.79L12.99 55.79Z" /></g></g><defs transform="translate(275, 275)" /><g fill="#000000" transform="translate(275, 275)"><g transform="translate(0, 0)"><path d="M0 45.26L0 40.26L5.00 40.26L5.00 45.26L0 45.26Z" /></g></g></svg>