<?xml version='1.0' encoding='utf-8'?>
<svg xmlns="http://www.w3.org/2000/svg" width="400" height="400" viewBox="0 0 400 400" version="1.1"><!--description: с малой силой --><path fill="#EF9645" d="M15.977 9.36h3.789c.114-.191.147-.439.058-.673l-3.846-4.705V9.36z" transform="translate(0, 0) scale(5, 8)" /><path fill="#FFDC5D" d="M12.804 22.277c-.057-.349-.124-.679-.206-.973-.62-2.223-1.14-3.164-.918-5.494.29-1.584.273-4.763 4.483-4.268 1.112.131 2.843.927 3.834.91.567-.01.98-1.157 1.017-1.539.051-.526-.865-1.42-1.248-1.554-.383-.134-2.012-.631-2.681-.824-1.039-.301-.985-1.705-1.051-2.205-.031-.235.084-.467.294-.591.21-.124.375-.008.579.125l.885.648c.497.426-.874 1.24-.503 1.376 0 0 1.755.659 2.507.796.412.075 1.834-1.529 1.917-2.47.065-.74-3.398-4.083-5.867-5.381-.868-.456-1.377-.721-1.949-.694-.683.032-.898.302-1.748 1.03C8.302 4.46 4.568 11.577 4.02 13.152c-2.246 6.461-2.597 9.865-2.677 11.788-.049.59-.076 1.177-.076 1.758.065 0-1 5 0 6s5.326 1 5.326 1c10 3.989 28.57 2.948 28.57-7.233 0-12.172-18.813-10.557-22.359-4.188z" transform="translate(0, 0) scale(5, 8)" /><path fill="#EF9645" d="M20.63 32.078c-3.16-.332-5.628-1.881-5.767-1.97-.465-.297-.601-.913-.305-1.379s.913-.603 1.38-.308c.04.025 4.003 2.492 7.846 1.467 2.125-.566 3.867-2.115 5.177-4.601.258-.49.866-.676 1.351-.419.488.257.676.862.419 1.351-1.585 3.006-3.754 4.893-6.447 5.606-1.257.332-2.502.374-3.654.253z" transform="translate(0, 0) scale(5, 8)" /><path fill="#CCD6DD" d="M31 2H5C3.343 2 2 3.343 2 5v26c0 1.657 1.343 3 3 3h26c1.657 0 3-1.343 3-3V5c0-1.657-1.343-3-3-3z" transform="translate(200, 0) scale(5, 8)" /><path fill="#E1E8ED" d="M31 1H5C2.791 1 1 2.791 1 5v26c0 2.209 1.791 4 4 4h26c2.209 0 4-1.791 4-4V5c0-2.209-1.791-4-4-4zm0 2c1.103 0 2 .897 2 2v4h-6V3h4zm-4 16h6v6h-6v-6zm0-2v-6h6v6h-6zM25 3v6h-6V3h6zm-6 8h6v6h-6v-6zm0 8h6v6h-6v-6zM17 3v6h-6V3h6zm-6 8h6v6h-6v-6zm0 8h6v6h-6v-6zM3 5c0-1.103.897-2 2-2h4v6H3V5zm0 6h6v6H3v-6zm0 8h6v6H3v-6zm2 14c-1.103 0-2-.897-2-2v-4h6v6H5zm6 0v-6h6v6h-6zm8 0v-6h6v6h-6zm12 0h-4v-6h6v4c0 1.103-.897 2-2 2z" transform="translate(200, 0) scale(5, 8)" /><path fill="#3B94D9" d="M31.002 33c-.721 0-1.416-.39-1.774-1.072l-9.738-18.59-6.076 6.076c-.446.447-1.076.66-1.705.564-.626-.092-1.171-.474-1.47-1.03l-7-13c-.524-.973-.16-2.186.813-2.709.975-.523 2.186-.16 2.709.812l5.726 10.633 6.1-6.099c.45-.45 1.089-.659 1.716-.563.629.096 1.175.485 1.47 1.049l11 21c.513.979.135 2.187-.844 2.699-.297.157-.614.23-.927.23z" transform="translate(200, 0) scale(5, 8)" /><defs transform="translate(75, 275)" /><g fill="#000000" transform="translate(75, 275)"><g transform="translate(0, 0)"><path d="M0 29.61L0 25.51L23.71 15.50L23.71 19.87L4.91 27.59L23.71 35.38L23.71 39.75L0 29.61Z" /></g></g><defs transform="translate(275, 275)" /><g fill="#000000" transform="translate(275, 275)"><g transform="translate(0, 0)"><path d="M0 32.30Q0 25.10 4.00 21.63Q7.35 18.75 12.16 18.75Q17.50 18.75 20.90 22.25Q24.29 25.76 24.29 31.93Q24.29 36.94 22.79 39.81Q21.29 42.68 18.42 44.26Q15.55 45.85 12.16 45.85Q6.71 45.85 3.36 42.36Q0 38.87 0 32.30M4.52 32.30Q4.52 37.28 6.69 39.76Q8.86 42.24 12.16 42.24Q15.43 42.24 17.60 39.75Q19.78 37.26 19.78 32.15Q19.78 27.34 17.59 24.87Q15.41 22.39 12.16 22.39Q8.86 22.39 6.69 24.85Q4.52 27.32 4.52 32.30Z" /></g></g></svg>