<?xml version='1.0' encoding='utf-8'?>
<svg xmlns="http://www.w3.org/2000/svg" width="400" height="400" viewBox="0 0 400 400" version="1.1"><!--description: слабый удар --><path fill="#FFDC5D" d="M32.942 11.244c-.041-.609-.284-1.18-.674-1.644l-.357-2.057c-.376-2.006-2.232-3.386-4.262-3.169L4.259 8.11C2.377 8.312.909 9.833.774 11.721l1.761 11.147c.305 2.169 2.151 3.788 4.341 3.813.677.008 1.238.017 1.463.027l9.483.463c-.363.483-.822 1.08-.822 1.718v.052c0 1.581 1.771 3.06 3.353 3.06h7.282c.76 0 1.488-.4 2.025-.938l4.424-4.472c.583-.584.887-1.416.832-2.24l-1.974-13.107z" transform="translate(0, 0) scale(5, 8)" /><path fill="#EF9645" d="M8.217 26.623c-.474 0-.895-.338-.983-.821L5.174 14.47c-.099-.543.262-1.064.805-1.163.546-.097 1.064.262 1.163.805l2.06 11.332c.099.543-.262 1.063-.805 1.162-.061.012-.121.017-.18.017zm6.181 0c-.517 0-.955-.398-.996-.923l-1.03-13.393c-.043-.551.37-1.031.92-1.074.549-.044 1.031.371 1.074.92l1.03 13.392c.043.551-.37 1.032-.92 1.074-.026.003-.053.004-.078.004zm7.207 1.106c-.508 0-.757-.001-.951-1.062l-.044-.003c.001-.055.007-.108.017-.161-.174-1.068-.309-3.069-.561-6.817-.235-3.49-.486-7.552-.486-8.485 0-.552.447-1 1-1 .553 0 1 .448 1 1 0 1.533.795 13.324.981 15.145.032.097.049.2.049.308 0 .266-.108.557-.295.744s-.444.331-.71.331z" transform="translate(0, 0) scale(5, 8)" /><path fill="#EF9645" d="M25.178 28.684H18.52c-.552 0-1-.447-1-1s.448-1 1-1h6.658c1.458 0 2.644-1.186 2.644-2.644V11.201c0-.552.447-1 1-1s1 .448 1 1V24.04c-.001 2.561-2.084 4.644-4.644 4.644z" transform="translate(0, 0) scale(5, 8)" /><path fill="#CCD6DD" d="M31 2H5C3.343 2 2 3.343 2 5v26c0 1.657 1.343 3 3 3h26c1.657 0 3-1.343 3-3V5c0-1.657-1.343-3-3-3z" transform="translate(200, 0) scale(5, 8)" /><path fill="#E1E8ED" d="M31 1H5C2.791 1 1 2.791 1 5v26c0 2.209 1.791 4 4 4h26c2.209 0 4-1.791 4-4V5c0-2.209-1.791-4-4-4zm0 2c1.103 0 2 .897 2 2v4h-6V3h4zm-4 16h6v6h-6v-6zm0-2v-6h6v6h-6zM25 3v6h-6V3h6zm-6 8h6v6h-6v-6zm0 8h6v6h-6v-6zM17 3v6h-6V3h6zm-6 8h6v6h-6v-6zm0 8h6v6h-6v-6zM3 5c0-1.103.897-2 2-2h4v6H3V5zm0 6h6v6H3v-6zm0 8h6v6H3v-6zm2 14c-1.103 0-2-.897-2-2v-4h6v6H5zm6 0v-6h6v6h-6zm8 0v-6h6v6h-6zm12 0h-4v-6h6v4c0 1.103-.897 2-2 2z" transform="translate(200, 0) scale(5, 8)" /><path fill="#3B94D9" d="M31.002 33c-.721 0-1.416-.39-1.774-1.072l-9.738-18.59-6.076 6.076c-.446.447-1.076.66-1.705.564-.626-.092-1.171-.474-1.47-1.03l-7-13c-.524-.973-.16-2.186.813-2.709.975-.523 2.186-.16 2.709.812l5.726 10.633 6.1-6.099c.45-.45 1.089-.659 1.716-.563.629.096 1.175.485 1.47 1.049l11 21c.513.979.135 2.187-.844 2.699-.297.157-.614.23-.927.23z" transform="translate(200, 0) scale(5, 8)" /><defs transform="translate(75, 275)" /><g fill="#000000" transform="translate(75, 275)"><g transform="translate(0, 0)"><path d="M0 34.52L0 30.10L13.50 30.10L13.50 34.52L0 34.52Z" /></g></g><defs transform="translate(275, 275)" /><g fill="#000000" transform="translate(275, 275)"><g transform="translate(0, 0)"><path d="M0 34.52L0 30.10L13.50 30.10L13.50 34.52L0 34.52Z" /></g></g></svg>