<?xml version='1.0' encoding='utf-8'?>
<svg xmlns="http://www.w3.org/2000/svg" width="400" height="400" viewBox="0 0 400 400" version="1.1"><!--description: звук со значением --><path fill="#8899A6" d="M2 10s-2 0-2 2v12c0 2 2 2 2 2h6l8 8s1 1 2 1h1s1 0 1-1V2s0-1-1-1h-1c-1 0-2 1-2 1l-8 8H2z" transform="translate(0, 0) scale(5, 8)" /><path fill="#CCD6DD" d="M8 26l8 8s1 1 2 1h1s1 0 1-1V2s0-1-1-1h-1c-1 0-2 1-2 1l-8 8v16z" transform="translate(0, 0) scale(5, 8)" /><path fill="#8899A6" d="M29 32.019c-.267 0-.533-.113-.72-.332-.339-.398-.292-.995.105-1.334 3.603-3.071 5.668-7.551 5.668-12.29s-2.066-9.219-5.669-12.29c-.397-.339-.444-.937-.105-1.334.339-.399.935-.444 1.334-.106 4.024 3.431 6.333 8.436 6.333 13.73 0 5.294-2.309 10.299-6.332 13.729-.179.152-.396.227-.614.227z" transform="translate(0, 0) scale(5, 8)" /><path fill="#8899A6" d="M26.27 28.959c-.269 0-.533-.115-.717-.338-.327-.396-.271-.98.125-1.307 2.792-2.304 4.394-5.699 4.394-9.315 0-3.573-1.571-6.943-4.311-9.245-.392-.33-.443-.916-.113-1.308.33-.394.915-.443 1.309-.114 3.16 2.656 4.973 6.543 4.973 10.667 0 4.172-1.848 8.089-5.069 10.746-.174.145-.383.214-.591.214z" transform="translate(0, 0) scale(5, 8)" /><path fill="#8899A6" d="M23.709 25.959c-.289 0-.576-.124-.774-.365-.351-.427-.289-1.057.138-1.407C24.934 22.658 26 20.403 26 18c0-2.435-1.089-4.708-2.988-6.236-.431-.346-.498-.976-.152-1.406.348-.429.976-.499 1.406-.152C26.639 12.116 28 14.957 28 18c0 3.004-1.333 5.822-3.657 7.731-.186.154-.411.228-.634.228z" transform="translate(0, 0) scale(5, 8)" /><path fill="#BDDDF4" d="M35 12c0-3.866-3.134-7-7-7-1.167 0-2.265.29-3.232.794-2.082-2.827-5.425-4.669-9.205-4.669-5.132 0-9.475 3.38-10.923 8.036C1.982 9.778 0 12.155 0 15c0 2.979 2.174 5.445 5.021 5.913C5.237 24.862 8.498 28 12.5 28c2.176 0 4.13-.933 5.5-2.413C19.37 27.067 21.323 28 23.5 28c4.143 0 7.5-3.357 7.5-7.5 0-.71-.105-1.394-.289-2.045C33.23 17.396 35 14.905 35 12z" transform="translate(200, 0) scale(5, 8)" /><circle fill="#BDDDF4" cx="4" cy="31" r="3" transform="translate(200, 0) scale(5, 8)" /><defs transform="translate(75, 275)" /><g fill="#000000" transform="translate(75, 275)"><g transform="translate(0, 0)"><path d="M0 34.52L0 30.10L13.50 30.10L13.50 34.52L0 34.52Z" /></g></g><defs transform="translate(275, 275)" /><g fill="#000000" transform="translate(275, 275)"><g transform="translate(0, 0)"><path d="M0 34.52L0 30.10L13.50 30.10L13.50 34.52L0 34.52Z" /></g></g></svg>