<?xml version='1.0' encoding='utf-8'?>
<svg xmlns="http://www.w3.org/2000/svg" width="400" height="400" viewBox="0 0 400 400" version="1.1"><!--description: качество сладкого --><path fill="#DD2E44" d="M13.298 3.538c-.531-4.075-5.627-4.3-6.248-2.125l-.933 4.041-4.041.933c-2.175.621-1.949 5.717 2.125 6.248l3.054.399c4.074.531 6.973-2.367 6.441-6.441l-.398-3.055zm18.993 18.991c4.074.531 4.299 5.629 2.125 6.249l-4.041.933-.934 4.042c-.62 2.174-5.717 1.948-6.248-2.126l-.398-3.055c-.531-4.074 2.367-6.973 6.441-6.441l3.055.398z" transform="translate(0, 0) scale(5, 10)" /><path fill="#BE1931" d="M30.49 22.294l-1.254-.164c-4.074-.531-6.973 2.367-6.441 6.441l.087.667c1.622-.268 3.45-1.236 5.014-2.8 1.29-1.288 2.172-2.758 2.594-4.144zM6.906 12.988l.349.046c4.074.531 6.973-2.367 6.441-6.441l-.119-.91c-1.317.447-2.697 1.304-3.915 2.523-1.49 1.489-2.437 3.219-2.756 4.782z" transform="translate(0, 0) scale(5, 10)" /><circle fill="#DD2E44" cx="18.779" cy="17.323" r="10.651" transform="translate(0, 0) scale(5, 10)" /><g fill="#F5F8FA" transform="translate(0, 0) scale(5, 10)"><path d="M18.75 17c.39 2.943-.632 6.74-2.593 9.092.84.25 1.72.381 2.621.381.731 0 1.447-.095 2.14-.261.563-2.586.256-5.927-2.168-9.212zm0 0c3.407.635 6.232 3.286 6.779 6.484 1.326-1.45 2.143-3.251 2.347-5.19-1.861-1.889-4.902-3.208-9.126-1.294zm0 0c1.049-2.269 4.509-4.338 7.836-4.438-.375-.613-.816-1.19-1.337-1.711-.767-.767-1.641-1.358-2.571-1.795-2.373 1.241-4.452 3.647-3.928 7.944z" /><path d="M18.792 17.042c-2.81-1.481-4.577-5.04-3.817-8.031-.966.44-1.874 1.047-2.667 1.84-.563.563-1.027 1.187-1.412 1.844 1.287 1.959 3.754 3.829 7.896 4.347zm-.084 0c-2.57 1.557-6.231 2.391-8.958 1.683.235 1.541.862 3.03 1.886 4.309 2.374-.71 5.065-2.503 7.072-5.992z" /></g><path fill="#CCD6DD" d="M31 2H5C3.343 2 2 3.343 2 5v26c0 1.657 1.343 3 3 3h26c1.657 0 3-1.343 3-3V5c0-1.657-1.343-3-3-3z" transform="translate(200, 0) scale(5, 10)" /><path fill="#E1E8ED" d="M31 1H5C2.791 1 1 2.791 1 5v26c0 2.209 1.791 4 4 4h26c2.209 0 4-1.791 4-4V5c0-2.209-1.791-4-4-4zm0 2c1.103 0 2 .897 2 2v4h-6V3h4zm-4 16h6v6h-6v-6zm0-2v-6h6v6h-6zM25 3v6h-6V3h6zm-6 8h6v6h-6v-6zm0 8h6v6h-6v-6zM17 3v6h-6V3h6zm-6 8h6v6h-6v-6zm0 8h6v6h-6v-6zM3 5c0-1.103.897-2 2-2h4v6H3V5zm0 6h6v6H3v-6zm0 8h6v6H3v-6zm2 14c-1.103 0-2-.897-2-2v-4h6v6H5zm6 0v-6h6v6h-6zm8 0v-6h6v6h-6zm12 0h-4v-6h6v4c0 1.103-.897 2-2 2z" transform="translate(200, 0) scale(5, 10)" /><path fill="#5C913B" d="M13 33H7V16c0-1.104.896-2 2-2h2c1.104 0 2 .896 2 2v17z" transform="translate(200, 0) scale(5, 10)" /><path fill="#3B94D9" d="M29 33h-6V9c0-1.104.896-2 2-2h2c1.104 0 2 .896 2 2v24z" transform="translate(200, 0) scale(5, 10)" /><path fill="#DD2E44" d="M21 33h-6V23c0-1.104.896-2 2-2h2c1.104 0 2 .896 2 2v10z" transform="translate(200, 0) scale(5, 10)" /></svg>