<?xml version='1.0' encoding='utf-8'?>
<svg xmlns="http://www.w3.org/2000/svg" width="400" height="400" viewBox="0 0 400 400" version="1.1"><!--description: с многими частями --><path fill="#78B159" d="M26.093 4.612c-.498.498-.629.839-.728 1.029-.66 1.266-1.455 1.676-2.78.351-.13-.13-4.087-4.267-4.741-5.017-.427-.49-1.081-.64-1.584-.262-.38.286-4.035 3.273-5.035 4.507-.774.955-.8 2.134-.079 2.856.326.326.727.449 1.151.578.552.169 1.763.068 2.47.775 1.133 1.133.54 2.924-.917 4.421-1.497 1.457-3.288 2.05-4.421.917-.708-.708-.606-1.918-.775-2.47-.129-.424-.252-.824-.578-1.151-.721-.721-1.9-.694-2.856.079-1.235 1-4.221 4.655-4.507 5.035-.379.503-.228 1.156.262 1.584.75.654 4.887 4.611 5.017 4.741 1.324 1.324.915 2.12-.351 2.78-.19.099-.53.229-1.029.728-1.462 1.462-1.462 3.833 0 5.295 1.462 1.462 3.833 1.462 5.295 0 .498-.498.629-.839.728-1.029.66-1.266 1.455-1.676 2.78-.351.13.13 4.087 4.267 4.741 5.017.427.49 1.081.64 1.584.262.38-.286 4.035-3.273 5.035-4.507.774-.955.8-2.134.079-2.856-.326-.326-.727-.449-1.151-.578-.552-.169-1.763-.068-2.47-.775-1.133-1.133-.54-2.924.917-4.421 1.497-1.457 3.288-2.05 4.421-.917.708.708.606 1.918.775 2.47.129.424.252.824.578 1.151.721.721 1.9.694 2.856-.079 1.235-1 4.221-4.655 4.507-5.035.379-.503.228-1.156-.262-1.584-.75-.654-4.887-4.611-5.017-4.741-1.324-1.324-.915-2.12.351-2.78.19-.099.53-.229 1.029-.728 1.462-1.462 1.462-3.833 0-5.295-1.462-1.463-3.833-1.463-5.295 0z" transform="translate(0, 0) scale(5, 8)" /><path fill="#CCD6DD" d="M31 2H5C3.343 2 2 3.343 2 5v26c0 1.657 1.343 3 3 3h26c1.657 0 3-1.343 3-3V5c0-1.657-1.343-3-3-3z" transform="translate(200, 0) scale(5, 8)" /><path fill="#E1E8ED" d="M31 1H5C2.791 1 1 2.791 1 5v26c0 2.209 1.791 4 4 4h26c2.209 0 4-1.791 4-4V5c0-2.209-1.791-4-4-4zm0 2c1.103 0 2 .897 2 2v4h-6V3h4zm-4 16h6v6h-6v-6zm0-2v-6h6v6h-6zM25 3v6h-6V3h6zm-6 8h6v6h-6v-6zm0 8h6v6h-6v-6zM17 3v6h-6V3h6zm-6 8h6v6h-6v-6zm0 8h6v6h-6v-6zM3 5c0-1.103.897-2 2-2h4v6H3V5zm0 6h6v6H3v-6zm0 8h6v6H3v-6zm2 14c-1.103 0-2-.897-2-2v-4h6v6H5zm6 0v-6h6v6h-6zm8 0v-6h6v6h-6zm12 0h-4v-6h6v4c0 1.103-.897 2-2 2z" transform="translate(200, 0) scale(5, 8)" /><path fill="#DD2E44" d="M4.998 33c-.32 0-.645-.076-.946-.239-.973-.523-1.336-1.736-.813-2.709l7-13c.299-.557.845-.939 1.47-1.031.626-.092 1.258.118 1.705.565l6.076 6.076 9.738-18.59c.512-.978 1.721-1.357 2.699-.843.979.512 1.356 1.721.844 2.7l-11 21c-.295.564-.841.953-1.47 1.05-.627.091-1.266-.113-1.716-.563l-6.1-6.099-5.724 10.631C6.4 32.619 5.71 33 4.998 33z" transform="translate(200, 0) scale(5, 8)" /><defs transform="translate(75, 275)" /><g fill="#000000" transform="translate(75, 275)"><g transform="translate(0, 0)"><path d="M0 29.61L0 25.51L23.71 15.50L23.71 19.87L4.91 27.59L23.71 35.38L23.71 39.75L0 29.61Z" /></g></g><defs transform="translate(275, 275)" /><g fill="#000000" transform="translate(275, 275)"><g transform="translate(0, 0)"><path d="M0 32.30Q0 25.10 4.00 21.63Q7.35 18.75 12.16 18.75Q17.50 18.75 20.90 22.25Q24.29 25.76 24.29 31.93Q24.29 36.94 22.79 39.81Q21.29 42.68 18.42 44.26Q15.55 45.85 12.16 45.85Q6.71 45.85 3.36 42.36Q0 38.87 0 32.30M4.52 32.30Q4.52 37.28 6.69 39.76Q8.86 42.24 12.16 42.24Q15.43 42.24 17.60 39.75Q19.78 37.26 19.78 32.15Q19.78 27.34 17.59 24.87Q15.41 22.39 12.16 22.39Q8.86 22.39 6.69 24.85Q4.52 27.32 4.52 32.30Z" /></g></g></svg>