<?xml version='1.0' encoding='utf-8'?>
<svg xmlns="http://www.w3.org/2000/svg" width="400" height="400" viewBox="0 0 400 400" version="1.1"><!--description: конец жизни --><path fill="#FDD888" d="M28.865 7.134c7.361 7.359 9.35 17.304 4.443 22.209-4.907 4.907-14.85 2.918-22.21-4.441-.25-.25-.478-.51-.716-.766l4.417-4.417c5.724 5.724 13.016 7.714 16.286 4.442 3.271-3.271 1.282-10.563-4.441-16.287l.022.021-.021-.022C20.104 1.331 11.154-.326 6.657 4.171 4.482 6.346 3.76 9.564 4.319 13.044c-.858-4.083-.15-7.866 2.338-10.353 4.906-4.906 14.849-2.917 22.208 4.443z" transform="translate(0, 0) scale(5, 10)" /><path fill="#FFAC33" d="M19.403 34c-.252 0-.503-.077-.719-.231l-5.076-3.641-5.076 3.641c-.433.31-1.013.31-1.443-.005-.43-.312-.611-.864-.45-1.369l1.894-6.11-5.031-3.545c-.428-.315-.605-.869-.442-1.375.165-.504.634-.847 1.165-.851l6.147-.012 2.067-5.957c.168-.504.639-.844 1.17-.844.531 0 1.002.34 1.17.844l1.866 5.957 6.347.012c.532.004 1.002.347 1.165.851.164.506-.014 1.06-.442 1.375l-5.031 3.545 1.893 6.11c.162.505-.021 1.058-.449 1.369-.217.158-.471.236-.725.236z" transform="translate(0, 0) scale(5, 10)" /><path fill="#31373D" d="M34 3H12.475V1.128c0-1.046-.74-1.434-1.644-.865L.69 6.652c-.905.57-.922 1.527-.038 2.127l10.215 6.931c.884.602 1.607.235 1.607-.811V13H34c1.104 0 2-.896 2-2V5c0-1.104-.896-2-2-2zM.088 22.915c0-1.03.515-1.791 1.606-1.791h5.108c.989 0 1.462.7 1.462 1.421 0 .7-.495 1.421-1.462 1.421H3.178v3.008h3.378c1.009 0 1.503.699 1.503 1.421 0 .699-.515 1.42-1.503 1.42H3.178v3.131h3.811c.988 0 1.462.701 1.462 1.421 0 .701-.495 1.422-1.462 1.422H1.675c-.906 0-1.586-.617-1.586-1.544v-11.33zm9.419-.309c0-1.029.659-1.606 1.545-1.606.392 0 1.03.31 1.298.68l6.529 8.712h.041v-7.785c0-1.029.659-1.606 1.545-1.606.886 0 1.545.577 1.545 1.606v11.699c0 1.03-.659 1.606-1.545 1.606-.391 0-1.009-.309-1.297-.681l-6.53-8.608h-.041v7.683c0 1.03-.659 1.606-1.544 1.606s-1.545-.576-1.545-1.606v-11.7zm14.239.104c0-.948.659-1.586 1.586-1.586h3.419c4.612 0 7.249 2.965 7.249 7.537 0 4.326-2.801 7.127-7.043 7.127h-3.584c-.68 0-1.627-.37-1.627-1.544V22.71zm3.09 10.235h2.08c2.656 0 3.872-1.957 3.872-4.429 0-2.637-1.235-4.551-4.078-4.551h-1.874v8.98z" transform="translate(200, 0) scale(5, 10)" /></svg>