<?xml version='1.0' encoding='utf-8'?>
<svg xmlns="http://www.w3.org/2000/svg" width="400" height="400" viewBox="0 0 400 400" version="1.1"><!--description: тот, кто может умереть --><path fill="#CCD6DD" d="M34 16C34 6 26.837 0 18 0 9.164 0 2 6 2 16c0 5.574.002 10.388 6 12.64V33c0 1.657 1.343 3 3 3s3-1.343 3-3v-3.155c.324.027.659.05 1 .07V33c0 1.657 1.343 3 3 3s3-1.343 3-3v-3.085c.342-.021.676-.043 1-.07V33c0 1.657 1.344 3 3 3 1.657 0 3-1.343 3-3v-4.36c5.998-2.252 6-7.066 6-12.64z" transform="translate(0, 0) scale(5, 8)" /><circle fill="#292F33" cx="11" cy="14" r="5" transform="translate(0, 0) scale(5, 8)" /><circle fill="#292F33" cx="25" cy="14" r="5" transform="translate(0, 0) scale(5, 8)" /><path fill="#292F33" d="M19.903 23.062C19.651 22.449 18.9 22 18 22s-1.652.449-1.903 1.062c-.632.176-1.097.75-1.097 1.438 0 .828.671 1.5 1.5 1.5.655 0 1.206-.422 1.41-1.007.03.001.059.007.09.007s.06-.006.09-.007c.205.585.756 1.007 1.41 1.007.828 0 1.5-.672 1.5-1.5 0-.688-.466-1.261-1.097-1.438z" transform="translate(0, 0) scale(5, 8)" /><path fill="#EF9645" d="M15.977 9.36h3.789c.114-.191.147-.439.058-.673l-3.846-4.705V9.36z" transform="translate(200, 0) scale(5, 8)" /><path fill="#FFDC5D" d="M12.804 22.277c-.057-.349-.124-.679-.206-.973-.62-2.223-1.14-3.164-.918-5.494.29-1.584.273-4.763 4.483-4.268 1.112.131 2.843.927 3.834.91.567-.01.98-1.157 1.017-1.539.051-.526-.865-1.42-1.248-1.554-.383-.134-2.012-.631-2.681-.824-1.039-.301-.985-1.705-1.051-2.205-.031-.235.084-.467.294-.591.21-.124.375-.008.579.125l.885.648c.497.426-.874 1.24-.503 1.376 0 0 1.755.659 2.507.796.412.075 1.834-1.529 1.917-2.47.065-.74-3.398-4.083-5.867-5.381-.868-.456-1.377-.721-1.949-.694-.683.032-.898.302-1.748 1.03C8.302 4.46 4.568 11.577 4.02 13.152c-2.246 6.461-2.597 9.865-2.677 11.788-.049.59-.076 1.177-.076 1.758.065 0-1 5 0 6s5.326 1 5.326 1c10 3.989 28.57 2.948 28.57-7.233 0-12.172-18.813-10.557-22.359-4.188z" transform="translate(200, 0) scale(5, 8)" /><path fill="#EF9645" d="M20.63 32.078c-3.16-.332-5.628-1.881-5.767-1.97-.465-.297-.601-.913-.305-1.379s.913-.603 1.38-.308c.04.025 4.003 2.492 7.846 1.467 2.125-.566 3.867-2.115 5.177-4.601.258-.49.866-.676 1.351-.419.488.257.676.862.419 1.351-1.585 3.006-3.754 4.893-6.447 5.606-1.257.332-2.502.374-3.654.253z" transform="translate(200, 0) scale(5, 8)" /><defs transform="translate(75, 275)" /><g fill="#000000" transform="translate(75, 275)"><g transform="translate(0, 0)"><path d="M0 55.79L0 8.86L3.83 8.86L3.83 55.79L0 55.79ZM12.99 55.79L12.99 8.86L16.82 8.86L16.82 55.79L12.99 55.79Z" /></g></g><defs transform="translate(275, 275)" /><g fill="#000000" transform="translate(275, 275)"><g transform="translate(0, 0)"><path d="M0 32.30Q0 25.10 4.00 21.63Q7.35 18.75 12.16 18.75Q17.50 18.75 20.90 22.25Q24.29 25.76 24.29 31.93Q24.29 36.94 22.79 39.81Q21.29 42.68 18.42 44.26Q15.55 45.85 12.16 45.85Q6.71 45.85 3.36 42.36Q0 38.87 0 32.30M4.52 32.30Q4.52 37.28 6.69 39.76Q8.86 42.24 12.16 42.24Q15.43 42.24 17.60 39.75Q19.78 37.26 19.78 32.15Q19.78 27.34 17.59 24.87Q15.41 22.39 12.16 22.39Q8.86 22.39 6.69 24.85Q4.52 27.32 4.52 32.30Z" /></g></g></svg>