<?xml version='1.0' encoding='utf-8'?>
<svg xmlns="http://www.w3.org/2000/svg" width="400" height="400" viewBox="0 0 400 400" version="1.1"><!--description: жидкость дерева --><path fill="#662113" d="M22 33c0 2.209-1.791 3-4 3s-4-.791-4-3l1-9c0-2.209.791-2 3-2s3-.209 3 2l1 9z" transform="translate(0, 0) scale(5, 10)" /><path fill="#5C913B" d="M31.406 27.297C24.443 21.332 21.623 12.791 18 12.791c-3.623 0-6.443 8.541-13.405 14.506-2.926 2.507-1.532 3.957 2.479 3.667 3.576-.258 6.919-1.069 10.926-1.069s7.352.812 10.926 1.069c4.012.29 5.405-1.16 2.48-3.667z" transform="translate(0, 0) scale(5, 10)" /><path fill="#3E721D" d="M29.145 24.934C23.794 20.027 20.787 13 18 13c-2.785 0-5.793 7.027-11.144 11.934-4.252 3.898 5.572 4.773 11.144 0 5.569 4.773 15.396 3.898 11.145 0z" transform="translate(0, 0) scale(5, 10)" /><path fill="#5C913B" d="M29.145 20.959C23.794 16.375 20.787 9.811 18 9.811c-2.785 0-5.793 6.564-11.144 11.148-4.252 3.642 5.572 4.459 11.144 0 5.569 4.459 15.396 3.642 11.145 0z" transform="translate(0, 0) scale(5, 10)" /><path fill="#3E721D" d="M26.7 17.703C22.523 14.125 20.176 9 18 9c-2.174 0-4.523 5.125-8.7 8.703-3.319 2.844 4.35 3.482 8.7 0 4.349 3.482 12.02 2.844 8.7 0z" transform="translate(0, 0) scale(5, 10)" /><path fill="#5C913B" d="M26.7 14.726c-4.177-3.579-6.524-8.703-8.7-8.703-2.174 0-4.523 5.125-8.7 8.703-3.319 2.844 4.35 3.481 8.7 0 4.349 3.481 12.02 2.843 8.7 0z" transform="translate(0, 0) scale(5, 10)" /><path fill="#3E721D" d="M25.021 12.081C21.65 9.193 19.756 5.057 18 5.057c-1.755 0-3.65 4.136-7.021 7.024-2.679 2.295 3.511 2.809 7.021 0 3.51 2.81 9.701 2.295 7.021 0z" transform="translate(0, 0) scale(5, 10)" /><path fill="#5C913B" d="M25.021 9.839C21.65 6.951 19.756 2.815 18 2.815c-1.755 0-3.65 4.136-7.021 7.024-2.679 2.295 3.511 2.809 7.021 0 3.51 2.81 9.701 2.295 7.021 0z" transform="translate(0, 0) scale(5, 10)" /><path fill="#3E721D" d="M23.343 6.54C20.778 4.342 19.336 1.195 18 1.195c-1.335 0-2.778 3.148-5.343 5.345-2.038 1.747 2.671 2.138 5.343 0 2.671 2.138 7.382 1.746 5.343 0z" transform="translate(0, 0) scale(5, 10)" /><path fill="#5C913B" d="M23.343 5.345C20.778 3.148 19.336 0 18 0c-1.335 0-2.778 3.148-5.343 5.345-2.038 1.747 2.671 2.138 5.343 0 2.671 2.138 7.382 1.746 5.343 0z" transform="translate(0, 0) scale(5, 10)" /><path fill="#D99E82" d="M2.92 21.393L21.393 2.92c3.227-3.227 8.46-3.227 11.687 0 3.227 3.227 3.227 8.46 0 11.687L14.607 33.08c-3.227 3.227-8.46 3.227-11.687 0-3.227-3.228-3.227-8.46 0-11.687z" transform="translate(200, 0) scale(5, 10)" /><g fill="#C1694F" transform="translate(200, 0) scale(5, 10)"><circle cx="4.389" cy="25.778" r=".972" /><circle cx="7.306" cy="28.694" r=".972" /><circle cx="10.222" cy="31.611" r=".972" /><circle cx="7.306" cy="22.861" r=".972" /><circle cx="10.222" cy="25.778" r=".972" /><circle cx="13.139" cy="28.694" r=".972" /><path d="M21.896 7.189c.064-.533.548-.913 1.081-.849.533.064.913.548.849 1.081-.064.533-.548.913-1.081.849-.533-.063-.913-.547-.849-1.081z" /><circle cx="25.778" cy="10.222" r=".972" /><circle cx="28.694" cy="13.139" r=".972" /><circle cx="25.778" cy="4.389" r=".972" /><circle cx="28.694" cy="7.306" r=".972" /><circle cx="31.611" cy="10.222" r=".972" /></g><path fill="#EABAA7" d="M6.82 17.514L17.512 6.819 29.18 18.486 18.486 29.18z" transform="translate(200, 0) scale(5, 10)" /><path fill="#F7DED5" d="M9.799 18.423c-.249 0-.498-.095-.687-.285-.38-.38-.38-.995 0-1.375l7.715-7.715c.38-.38.995-.38 1.375 0s.38.995 0 1.375l-7.715 7.715c-.191.191-.439.285-.688.285z" transform="translate(200, 0) scale(5, 10)" /></svg>