<?xml version='1.0' encoding='utf-8'?>
<svg xmlns="http://www.w3.org/2000/svg" width="400" height="400" viewBox="0 0 400 400" version="1.1"><!--description: направлять глаза --><ellipse fill="#F5F8FA" cx="8.828" cy="18" rx="7.953" ry="13.281" transform="translate(0, 0) scale(5, 8)" /><path fill="#E1E8ED" d="M8.828 32.031C3.948 32.031.125 25.868.125 18S3.948 3.969 8.828 3.969 17.531 10.132 17.531 18s-3.823 14.031-8.703 14.031zm0-26.562C4.856 5.469 1.625 11.09 1.625 18s3.231 12.531 7.203 12.531S16.031 24.91 16.031 18 12.8 5.469 8.828 5.469z" transform="translate(0, 0) scale(5, 8)" /><circle fill="#8899A6" cx="6.594" cy="18" r="4.96" transform="translate(0, 0) scale(5, 8)" /><circle fill="#292F33" cx="6.594" cy="18" r="3.565" transform="translate(0, 0) scale(5, 8)" /><circle fill="#F5F8FA" cx="7.911" cy="15.443" r="1.426" transform="translate(0, 0) scale(5, 8)" /><ellipse fill="#F5F8FA" cx="27.234" cy="18" rx="7.953" ry="13.281" transform="translate(0, 0) scale(5, 8)" /><path fill="#E1E8ED" d="M27.234 32.031c-4.88 0-8.703-6.163-8.703-14.031s3.823-14.031 8.703-14.031S35.938 10.132 35.938 18s-3.824 14.031-8.704 14.031zm0-26.562c-3.972 0-7.203 5.622-7.203 12.531 0 6.91 3.231 12.531 7.203 12.531S34.438 24.91 34.438 18 31.206 5.469 27.234 5.469z" transform="translate(0, 0) scale(5, 8)" /><circle fill="#8899A6" cx="25" cy="18" r="4.96" transform="translate(0, 0) scale(5, 8)" /><circle fill="#292F33" cx="25" cy="18" r="3.565" transform="translate(0, 0) scale(5, 8)" /><circle fill="#F5F8FA" cx="26.317" cy="15.443" r="1.426" transform="translate(0, 0) scale(5, 8)" /><circle fill="#DD2E44" cx="18" cy="18" r="18" transform="translate(200, 0) scale(5, 8)" /><circle fill="#FFF" cx="18" cy="18" r="13.5" transform="translate(200, 0) scale(5, 8)" /><circle fill="#DD2E44" cx="18" cy="18" r="10" transform="translate(200, 0) scale(5, 8)" /><circle fill="#FFF" cx="18" cy="18" r="6" transform="translate(200, 0) scale(5, 8)" /><circle fill="#DD2E44" cx="18" cy="18" r="3" transform="translate(200, 0) scale(5, 8)" /><path opacity=".2" d="M18.24 18.282l13.144 11.754s-2.647 3.376-7.89 5.109L17.579 18.42l.661-.138z" transform="translate(200, 0) scale(5, 8)" /><path fill="#FFAC33" d="M18.294 19c-.255 0-.509-.097-.704-.292-.389-.389-.389-1.018 0-1.407l.563-.563c.389-.389 1.018-.389 1.408 0 .388.389.388 1.018 0 1.407l-.564.563c-.194.195-.448.292-.703.292z" transform="translate(200, 0) scale(5, 8)" /><path fill="#55ACEE" d="M24.016 6.981c-.403 2.079 0 4.691 0 4.691l7.054-7.388c.291-1.454-.528-3.932-1.718-4.238-1.19-.306-4.079.803-5.336 6.935zm5.003 5.003c-2.079.403-4.691 0-4.691 0l7.388-7.054c1.454-.291 3.932.528 4.238 1.718.306 1.19-.803 4.079-6.935 5.336z" transform="translate(200, 0) scale(5, 8)" /><path fill="#3A87C2" d="M32.798 4.485L21.176 17.587c-.362.362-1.673.882-2.51.046-.836-.836-.419-2.08-.057-2.443L31.815 3.501s.676-.635 1.159-.152-.176 1.136-.176 1.136z" transform="translate(200, 0) scale(5, 8)" /><defs transform="translate(75, 275)" /><g fill="#000000" transform="translate(75, 275)"><g transform="translate(0, 0)"><path d="M0 55.79L0 8.86L3.83 8.86L3.83 55.79L0 55.79ZM12.99 55.79L12.99 8.86L16.82 8.86L16.82 55.79L12.99 55.79Z" /></g></g><defs transform="translate(275, 275)" /><g fill="#000000" transform="translate(275, 275)"><g transform="translate(0, 0)"><path d="M0 45.26L0 40.26L5.00 40.26L5.00 45.26L0 45.26Z" /></g></g></svg>