<?xml version='1.0' encoding='utf-8'?>
<svg xmlns="http://www.w3.org/2000/svg" width="400" height="400" viewBox="0 0 400 400" version="1.1"><!--description: состояние сна --><circle fill="#FFCC4D" cx="18" cy="18" r="18" transform="translate(0, 0) scale(5, 10)" /><circle fill="#664500" cx="18" cy="26" r="3" transform="translate(0, 0) scale(5, 10)" /><path fill="#664500" d="M17.312 16.612c-.176-.143-.427-.147-.61-.014-.012.009-1.26.902-3.702.902-2.441 0-3.69-.893-3.7-.9-.183-.137-.435-.133-.611.009-.178.142-.238.386-.146.594.06.135 1.5 3.297 4.457 3.297 2.958 0 4.397-3.162 4.457-3.297.092-.207.032-.449-.145-.591zm10 0c-.176-.143-.426-.148-.61-.014-.012.009-1.261.902-3.702.902-2.44 0-3.69-.893-3.7-.9-.183-.137-.434-.133-.611.009-.178.142-.238.386-.146.594.06.135 1.5 3.297 4.457 3.297 2.958 0 4.397-3.162 4.457-3.297.092-.207.032-.449-.145-.591z" transform="translate(0, 0) scale(5, 10)" /><path fill="#FFAC33" d="M34.43 12.534c.004-.044.023-.077.023-.123 0-.754-.548-1.188-1.225-1.188h-3.582l4.279-5.993c.206-.283.282-.453.282-.811 0-.735-.64-.849-.885-.849h-5.349l-.032-.688s-1.409.831-1.503.888-.505.372-.505.987c0 .754.546 1.187 1.225 1.187h3.149l-4.261 5.993c-.094.151-.244.433-.244.735 0 .622.508.924 1.111.924h6.315c.258 0 .515-.076.681-.176l1.503-.888h-.982z" transform="translate(0, 0) scale(5, 10)" /><path fill="#2A6797" d="M31.771 5.084h-3.149c-.679 0-1.225-.433-1.225-1.187s.546-1.188 1.225-1.188h6.164c.245 0 .885.113.885.848 0 .358-.076.528-.282.811l-4.279 5.993h3.582c.677 0 1.225.433 1.225 1.187s-.548 1.187-1.225 1.187h-6.315c-.603 0-1.111-.302-1.111-.924 0-.302.15-.584.244-.735l4.261-5.992z" transform="translate(0, 0) scale(5, 10)" /><path fill="#FFAC33" d="M24.886 7.48c.003-.033.018-.058.018-.092 0-.564-.41-.889-.917-.889h-2.682l3.203-4.487c.156-.212.212-.339.212-.606 0-.55-.479-.635-.663-.635h-4.004l-.024-.515s-1.055.622-1.125.665c-.07.043-.378.279-.378.739 0 .564.409.889.917.889H21.8l-3.19 4.487c-.07.113-.183.324-.183.55 0 .466.38.691.832.691h4.728c.193 0 .385-.057.51-.132l1.125-.665h-.736z" transform="translate(0, 0) scale(5, 10)" /><path fill="#2A6797" d="M22.896 1.903h-2.357c-.508 0-.917-.324-.917-.889 0-.564.409-.889.917-.889h4.615c.184 0 .663.085.663.635 0 .268-.057.395-.211.607l-3.203 4.487h2.682c.505 0 .915.324.915.889s-.41.889-.917.889h-4.728c-.452 0-.832-.226-.832-.691 0-.226.113-.437.183-.55l3.19-4.488z" transform="translate(0, 0) scale(5, 10)" /><path fill="#FFAC33" d="M17.741 10.425c.003-.028.015-.049.015-.079 0-.483-.351-.761-.785-.761h-2.295l2.742-3.84c.132-.181.181-.29.181-.519 0-.471-.41-.544-.567-.544h-3.427l-.021-.441-.963.569c-.06.037-.324.238-.324.633 0 .483.35.761.785.761h2.017l-2.73 3.84c-.06.097-.157.278-.157.471 0 .399.326.592.712.592h4.047c.165 0 .33-.049.436-.113l.963-.569h-.629z" transform="translate(0, 0) scale(5, 10)" /><path fill="#2A6797" d="M16.037 5.652H14.02c-.435 0-.785-.278-.785-.761s.35-.761.785-.761h3.95c.157 0 .567.073.567.544 0 .229-.048.338-.181.519l-2.742 3.84h2.295c.434 0 .785.278.785.761s-.351.761-.785.761h-4.047c-.386 0-.712-.193-.712-.592 0-.193.096-.374.157-.471l2.73-3.84z" transform="translate(0, 0) scale(5, 10)" /><path fill="#BDDDF4" d="M35 12c0-3.866-3.134-7-7-7-1.167 0-2.265.29-3.232.794-2.082-2.827-5.425-4.669-9.205-4.669-5.132 0-9.475 3.38-10.923 8.036C1.982 9.778 0 12.155 0 15c0 2.979 2.174 5.445 5.021 5.913C5.237 24.862 8.498 28 12.5 28c2.176 0 4.13-.933 5.5-2.413C19.37 27.067 21.323 28 23.5 28c4.143 0 7.5-3.357 7.5-7.5 0-.71-.105-1.394-.289-2.045C33.23 17.396 35 14.905 35 12z" transform="translate(200, 0) scale(5, 10)" /><circle fill="#BDDDF4" cx="4" cy="31" r="3" transform="translate(200, 0) scale(5, 10)" /></svg>