<?xml version='1.0' encoding='utf-8'?>
<svg xmlns="http://www.w3.org/2000/svg" width="400" height="400" viewBox="0 0 400 400" version="1.1"><!--description: птица для охоты --><path fill="#292F33" d="M7.042 26c.33 0 .651.121.963.331 1.368-8.106 20.362-8.248 21.755-.29 1.666.412 3.08 4.378 3.748 9.959h-31c.793-5.899 2.522-10 4.534-10z" transform="translate(0, 0) scale(5, 8)" /><path fill="#E1E8ED" d="M7.043 23.688C10.966 12.533 6.508 3 17.508 3s8.736 8.173 13.193 19.125c1.119 2.75-1.443 5.908-1.443 5.908s-2.612-4.756-4.75-5.846c-.591 3.277-1.75 6.938-1.75 6.938s-2.581-2.965-5.587-5.587c-.879 1.009-2.065 2.183-3.663 3.462-.349-1.048-.943-2.339-1.568-3.576-1.468 2.238-3.182 4.951-3.182 4.951s-2.507-2.435-1.715-4.687z" transform="translate(0, 0) scale(5, 8)" /><path fill="#FFCC4D" d="M11.507 5c-4.36 3.059-5.542 2.16-7.812 3.562-2.125 1.312-2 4.938-.125 8.062.579-2.661-.5-3.149 6.938-3.149 5 0 7.928.289 7-1-.927-1.289-10.027.459-6.001-7.475z" transform="translate(0, 0) scale(5, 8)" /><path fill="#292F33" d="M16.535 7.517c0 .82-.663 1.483-1.483 1.483-.82 0-1.484-.663-1.484-1.483 0-.157.031-.305.076-.446h2.816c.044.141.075.289.075.446z" transform="translate(0, 0) scale(5, 8)" /><path fill="#C1694F" d="M21.279 4.28c-9 0-10.5 1.5-13 4s-4 4-4 13c0 11.181-2 14-1 14s3-2 3-4-2-13 5-20h-.001c7-6.999 18-5 20-5s4-2 4-3-2.818 1-13.999 1z" transform="translate(200, 0) scale(5, 8)" /><path fill="#D99E82" d="M29.5 29.779c0 .276-.224.5-.5.5H3.78c-.276 0-.5-.224-.5-.5s.224-.5.5-.5H29c.276 0 .5.224.5.5zm.279-.279c-.277 0-.5-.225-.5-.5V3.779c0-.276.223-.5.5-.5.275 0 .5.224.5.5V29c0 .275-.224.5-.5.5z" transform="translate(200, 0) scale(5, 8)" /><path fill="#99AAB5" d="M0 0l2.793 8.52L4.93 4.955l3.52-2.092z" transform="translate(200, 0) scale(5, 8)" /><path fill="#DD2E44" d="M26.087 27.393c.364 1.897 0 3.564-.812 3.719-.814.156-1.77-1.256-2.133-3.154-.364-1.898-.001-3.564.812-3.721.814-.157 1.769 1.257 2.133 3.156z" transform="translate(200, 0) scale(5, 8)" /><path fill="#F4900C" d="M26.568 28.465c.365 1.899 0 3.565-.812 3.721-.813.156-1.769-1.258-2.132-3.154-.365-1.9-.001-3.566.811-3.721.814-.157 1.77 1.255 2.133 3.154z" transform="translate(200, 0) scale(5, 8)" /><path fill="#A0041E" d="M27.958 29.854c.364 1.899 0 3.564-.812 3.721-.813.156-1.77-1.256-2.133-3.154-.364-1.898 0-3.564.812-3.721.814-.157 1.77 1.255 2.133 3.154z" transform="translate(200, 0) scale(5, 8)" /><path fill="#DD2E44" d="M29.372 31.268c.365 1.898 0 3.566-.812 3.721-.814.156-1.77-1.256-2.133-3.154-.364-1.899 0-3.564.812-3.721.814-.157 1.77 1.257 2.133 3.154zm-1.979-5.181c1.897.364 3.564 0 3.719-.812.156-.814-1.256-1.77-3.154-2.133-1.898-.364-3.564-.001-3.721.812-.157.814 1.257 1.769 3.156 2.133z" transform="translate(200, 0) scale(5, 8)" /><path fill="#F4900C" d="M28.465 26.568c1.899.365 3.565 0 3.721-.812.156-.813-1.258-1.769-3.154-2.132-1.9-.365-3.566-.001-3.721.811-.157.814 1.255 1.77 3.154 2.133z" transform="translate(200, 0) scale(5, 8)" /><path fill="#A0041E" d="M29.854 27.958c1.899.364 3.564 0 3.721-.812.156-.813-1.256-1.77-3.154-2.133-1.898-.364-3.564 0-3.721.812-.157.814 1.255 1.77 3.154 2.133z" transform="translate(200, 0) scale(5, 8)" /><path fill="#DD2E44" d="M31.268 29.372c1.898.365 3.566 0 3.721-.812.156-.814-1.256-1.77-3.154-2.133-1.899-.364-3.564 0-3.721.812-.157.814 1.257 1.77 3.154 2.133z" transform="translate(200, 0) scale(5, 8)" /><path fill="#CCD6DD" d="M30.385 29c.382.382.382 1.002 0 1.385-.383.382-1.003.382-1.385 0L4.136 5.52c-.382-.382-.382-1.002 0-1.384.382-.382 1.001-.382 1.384 0L30.385 29z" transform="translate(200, 0) scale(5, 8)" /><defs transform="translate(75, 275)" /><g fill="#000000" transform="translate(75, 275)"><g transform="translate(0, 0)"><path d="M0 55.79L0 8.86L3.83 8.86L3.83 55.79L0 55.79ZM12.99 55.79L12.99 8.86L16.82 8.86L16.82 55.79L12.99 55.79Z" /></g></g><defs transform="translate(275, 275)" /><g fill="#000000" transform="translate(275, 275)"><g transform="translate(0, 0)"><path d="M0 34.52L0 30.10L13.50 30.10L13.50 34.52L0 34.52Z" /></g></g></svg>