<?xml version='1.0' encoding='utf-8'?>
<svg xmlns="http://www.w3.org/2000/svg" width="400" height="400" viewBox="0 0 400 400" version="1.1"><!--description: процесс спрашивания --><path fill="#BE1931" d="M17 27c-1.657 0-3-1.343-3-3v-4c0-1.657 1.343-3 3-3 .603-.006 6-1 6-5 0-2-2-4-5-4-2.441 0-4 2-4 3 0 1.657-1.343 3-3 3s-3-1.343-3-3c0-4.878 4.58-9 10-9 8 0 11 5.982 11 11 0 4.145-2.277 7.313-6.413 8.92-.9.351-1.79.587-2.587.747V24c0 1.657-1.343 3-3 3z" transform="translate(0, 0) scale(5, 10)" /><circle fill="#BE1931" cx="17" cy="32" r="3" transform="translate(0, 0) scale(5, 10)" /><path fill="#3B88C3" d="M36 32c0 2.209-1.791 4-4 4H4c-2.209 0-4-1.791-4-4V4c0-2.209 1.791-4 4-4h28c2.209 0 4 1.791 4 4v28z" transform="translate(200, 0) scale(5, 10)" /><path fill="#FFF" d="M22.242 22.242l2.829 2.829c-3.905 3.905-10.237 3.904-14.143-.001-2.247-2.246-3.194-5.296-2.854-8.225l-4.037.367c-.215 3.84 1.128 7.752 4.062 10.687 5.467 5.467 14.333 5.468 19.799 0l2.828 2.828.849-9.334-9.333.849zM27.899 8.1C22.431 2.633 13.568 2.633 8.1 8.1L5.272 5.272l-.849 9.334 9.334-.849-2.829-2.829c3.906-3.905 10.236-3.905 14.142 0 2.248 2.247 3.194 5.297 2.856 8.226l4.036-.366c.216-3.841-1.128-7.753-4.063-10.688z" transform="translate(200, 0) scale(5, 10)" /></svg>