<?xml version='1.0' encoding='utf-8'?>
<svg xmlns="http://www.w3.org/2000/svg" width="400" height="400" viewBox="0 0 400 400" version="1.1"><!--description: быть в покое --><path fill="#FFCC4D" d="M36 18c0 9.941-8.059 18-18 18S0 27.941 0 18 8.059 0 18 0s18 8.059 18 18" transform="translate(0, 0) scale(5, 8)" /><path fill="#664500" d="M28.312 15.612c-.175-.142-.426-.147-.61-.014-.012.009-1.261.902-3.702.902-2.44 0-3.69-.893-3.7-.9-.183-.137-.435-.133-.611.009-.178.142-.238.386-.146.594.06.135 1.5 3.297 4.457 3.297 2.958 0 4.397-3.162 4.457-3.297.092-.207.032-.449-.145-.591zm-12.61-.014c-.012.009-1.26.902-3.702.902-2.441 0-3.69-.893-3.7-.9-.183-.137-.434-.133-.611.009-.178.142-.238.386-.146.594.06.135 1.5 3.297 4.457 3.297 2.958 0 4.397-3.162 4.457-3.297.092-.207.032-.449-.145-.591-.176-.143-.428-.147-.61-.014zM29.001 13c-.305 0-.604-.138-.801-.4-2.592-3.456-6.961-2.628-7.004-2.62-.547.108-1.068-.243-1.177-.784-.108-.541.243-1.068.784-1.177.231-.047 5.657-1.072 8.996 3.38.332.442.242 1.069-.2 1.4-.179.136-.389.201-.598.201zM6.999 13c-.208 0-.419-.065-.599-.2-.442-.331-.531-.958-.2-1.4 3.339-4.454 8.766-3.426 8.996-3.38.542.108.893.635.784 1.177-.108.54-.634.891-1.174.785-.186-.035-4.436-.808-7.006 2.618-.196.262-.497.4-.801.4zm16.255 10.577c-.188-.111-.432-.086-.597.06-.01.008-1.013.863-4.657.863-3.641 0-4.646-.854-4.646-.854-.159-.16-.404-.19-.6-.082-.195.111-.293.339-.238.557.01.044 1.144 4.379 5.484 4.379s5.474-4.335 5.485-4.379c.053-.213-.044-.431-.231-.544z" transform="translate(0, 0) scale(5, 8)" /><path fill="#FFAC33" d="M34.347 16.893l-8.899-3.294-3.323-10.891c-.128-.42-.517-.708-.956-.708-.439 0-.828.288-.956.708l-3.322 10.891-8.9 3.294c-.393.146-.653.519-.653.938 0 .418.26.793.653.938l8.895 3.293 3.324 11.223c.126.424.516.715.959.715.442 0 .833-.291.959-.716l3.324-11.223 8.896-3.293c.391-.144.652-.518.652-.937 0-.418-.261-.792-.653-.938z" transform="translate(200, 0) scale(5, 8)" /><path fill="#FFCC4D" d="M14.347 27.894l-2.314-.856-.9-3.3c-.118-.436-.513-.738-.964-.738-.451 0-.846.302-.965.737l-.9 3.3-2.313.856c-.393.145-.653.52-.653.938 0 .418.26.793.653.938l2.301.853.907 3.622c.112.444.511.756.97.756.459 0 .858-.312.97-.757l.907-3.622 2.301-.853c.393-.144.653-.519.653-.937 0-.418-.26-.793-.653-.937zM10.009 6.231l-2.364-.875-.876-2.365c-.145-.393-.519-.653-.938-.653-.418 0-.792.26-.938.653l-.875 2.365-2.365.875c-.393.146-.653.52-.653.938 0 .418.26.793.653.938l2.365.875.875 2.365c.146.393.52.653.938.653.418 0 .792-.26.938-.653l.875-2.365 2.365-.875c.393-.146.653-.52.653-.938 0-.418-.26-.792-.653-.938z" transform="translate(200, 0) scale(5, 8)" /><defs transform="translate(75, 275)" /><g fill="#000000" transform="translate(75, 275)"><g transform="translate(0, 0)"><path d="M0 34.52L0 30.10L13.50 30.10L13.50 34.52L0 34.52Z" /></g></g><defs transform="translate(275, 275)" /><g fill="#000000" transform="translate(275, 275)"><g transform="translate(0, 0)"><path d="M0 34.52L0 30.10L13.50 30.10L13.50 34.52L0 34.52Z" /></g></g></svg>