<?xml version='1.0' encoding='utf-8'?>
<svg xmlns="http://www.w3.org/2000/svg" width="400" height="400" viewBox="0 0 400 400" version="1.1"><!--description: птица, питающаяся мертвым --><path fill="#292F33" d="M7.042 26c.33 0 .651.121.963.331 1.368-8.106 20.362-8.248 21.755-.29 1.666.412 3.08 4.378 3.748 9.959h-31c.793-5.899 2.522-10 4.534-10z" transform="translate(0, 0) scale(5, 10)" /><path fill="#E1E8ED" d="M7.043 23.688C10.966 12.533 6.508 3 17.508 3s8.736 8.173 13.193 19.125c1.119 2.75-1.443 5.908-1.443 5.908s-2.612-4.756-4.75-5.846c-.591 3.277-1.75 6.938-1.75 6.938s-2.581-2.965-5.587-5.587c-.879 1.009-2.065 2.183-3.663 3.462-.349-1.048-.943-2.339-1.568-3.576-1.468 2.238-3.182 4.951-3.182 4.951s-2.507-2.435-1.715-4.687z" transform="translate(0, 0) scale(5, 10)" /><path fill="#FFCC4D" d="M11.507 5c-4.36 3.059-5.542 2.16-7.812 3.562-2.125 1.312-2 4.938-.125 8.062.579-2.661-.5-3.149 6.938-3.149 5 0 7.928.289 7-1-.927-1.289-10.027.459-6.001-7.475z" transform="translate(0, 0) scale(5, 10)" /><path fill="#292F33" d="M16.535 7.517c0 .82-.663 1.483-1.483 1.483-.82 0-1.484-.663-1.484-1.483 0-.157.031-.305.076-.446h2.816c.044.141.075.289.075.446z" transform="translate(0, 0) scale(5, 10)" /><path fill="#CCD6DD" d="M34 16C34 6 26.837 0 18 0 9.164 0 2 6 2 16c0 5.574.002 10.388 6 12.64V33c0 1.657 1.343 3 3 3s3-1.343 3-3v-3.155c.324.027.659.05 1 .07V33c0 1.657 1.343 3 3 3s3-1.343 3-3v-3.085c.342-.021.676-.043 1-.07V33c0 1.657 1.344 3 3 3 1.657 0 3-1.343 3-3v-4.36c5.998-2.252 6-7.066 6-12.64z" transform="translate(200, 0) scale(5, 10)" /><circle fill="#292F33" cx="11" cy="14" r="5" transform="translate(200, 0) scale(5, 10)" /><circle fill="#292F33" cx="25" cy="14" r="5" transform="translate(200, 0) scale(5, 10)" /><path fill="#292F33" d="M19.903 23.062C19.651 22.449 18.9 22 18 22s-1.652.449-1.903 1.062c-.632.176-1.097.75-1.097 1.438 0 .828.671 1.5 1.5 1.5.655 0 1.206-.422 1.41-1.007.03.001.059.007.09.007s.06-.006.09-.007c.205.585.756 1.007 1.41 1.007.828 0 1.5-.672 1.5-1.5 0-.688-.466-1.261-1.097-1.438z" transform="translate(200, 0) scale(5, 10)" /></svg>