<?xml version='1.0' encoding='utf-8'?>
<svg xmlns="http://www.w3.org/2000/svg" width="400" height="400" viewBox="0 0 400 400" version="1.1"><!--description: человек со счастьем --><path fill="#FFCC4D" d="M36 18c0 9.941-8.059 18-18 18S0 27.941 0 18 8.059 0 18 0s18 8.059 18 18" transform="translate(0, 0) scale(5, 8)" /><circle fill="#FF7892" cx="7" cy="18" r="5" transform="translate(0, 0) scale(5, 8)" /><circle fill="#FF7892" cx="29" cy="18" r="5" transform="translate(0, 0) scale(5, 8)" /><path fill="#664500" d="M27.335 21.629c-.178-.161-.444-.171-.635-.029-.039.029-3.922 2.9-8.7 2.9-4.766 0-8.662-2.871-8.7-2.9-.191-.142-.457-.13-.635.029-.177.16-.217.424-.094.628C8.7 22.472 11.788 27.5 18 27.5s9.301-5.028 9.429-5.243c.123-.205.084-.468-.094-.628zM7.999 15c-.15 0-.303-.034-.446-.106-.494-.247-.694-.848-.447-1.342C7.158 13.448 8.424 11 12 11c3.577 0 4.842 2.449 4.894 2.553.247.494.047 1.095-.447 1.342-.492.245-1.085.049-1.336-.436C15.068 14.379 14.281 13 12 13c-2.317 0-3.099 1.433-3.106 1.447-.175.351-.528.553-.895.553zm20.002 0c-.367 0-.72-.202-.896-.553C27.08 14.401 26.299 13 24 13s-3.08 1.401-3.112 1.46c-.26.481-.859.67-1.345.42-.485-.252-.682-.839-.438-1.328C19.157 13.449 20.423 11 24 11s4.843 2.449 4.895 2.553c.247.494.047 1.095-.447 1.342-.144.071-.297.105-.447.105z" transform="translate(0, 0) scale(5, 8)" /><path fill="#269" d="M24 26.799v-2.566c2-1.348 4.08-3.779 4.703-6.896.186.103.206.17.413.17.991 0 1.709-1.287 1.709-2.873 0-1.562-.823-2.827-1.794-2.865.187-.674.293-1.577.293-2.735C29.324 5.168 26 .527 18.541.527c-6.629 0-10.777 4.641-10.777 8.507 0 1.123.069 2.043.188 2.755-.911.137-1.629 1.352-1.629 2.845 0 1.587.804 2.873 1.796 2.873.206 0 .025-.067.209-.17C8.952 20.453 11 22.885 13 24.232v2.414c-5 .645-12 3.437-12 6.23v1.061C1 35 2.076 35 3.137 35h29.725C33.924 35 35 35 35 33.938v-1.061c0-2.615-6-5.225-11-6.078z" transform="translate(200, 0) scale(5, 8)" /><defs transform="translate(75, 275)" /><g fill="#000000" transform="translate(75, 275)"><g transform="translate(0, 0)"><path d="M0 55.79L0 8.86L3.83 8.86L3.83 55.79L0 55.79ZM12.99 55.79L12.99 8.86L16.82 8.86L16.82 55.79L12.99 55.79Z" /></g></g><defs transform="translate(275, 275)" /><g fill="#000000" transform="translate(275, 275)"><g transform="translate(0, 0)"><path d="M0 34.52L0 30.10L13.50 30.10L13.50 34.52L0 34.52Z" /></g></g></svg>