<?xml version='1.0' encoding='utf-8'?>
<svg xmlns="http://www.w3.org/2000/svg" width="400" height="400" viewBox="0 0 400 400" version="1.1"><!--description: имеющий тепло --><path fill="#F4900C" d="M35 19c0-2.062-.367-4.039-1.04-5.868-.46 5.389-3.333 8.157-6.335 6.868-2.812-1.208-.917-5.917-.777-8.164.236-3.809-.012-8.169-6.931-11.794 2.875 5.5.333 8.917-2.333 9.125-2.958.231-5.667-2.542-4.667-7.042-3.238 2.386-3.332 6.402-2.333 9 1.042 2.708-.042 4.958-2.583 5.208-2.84.28-4.418-3.041-2.963-8.333C2.52 10.965 1 14.805 1 19c0 9.389 7.611 17 17 17s17-7.611 17-17z" transform="translate(0, 0) scale(5, 8)" /><path fill="#FFCC4D" d="M28.394 23.999c.148 3.084-2.561 4.293-4.019 3.709-2.106-.843-1.541-2.291-2.083-5.291s-2.625-5.083-5.708-6c2.25 6.333-1.247 8.667-3.08 9.084-1.872.426-3.753-.001-3.968-4.007C7.352 23.668 6 26.676 6 30c0 .368.023.73.055 1.09C9.125 34.124 13.342 36 18 36s8.875-1.876 11.945-4.91c.032-.36.055-.722.055-1.09 0-2.187-.584-4.236-1.606-6.001z" transform="translate(0, 0) scale(5, 8)" /><path fill="#EF9645" d="M32.218 10.913c-.81-1.187-2.172-1.967-3.718-1.967H28s-5.353-5.672-5.15-6.091C21.754 3.446 21 4.591 21 5.924c0 0-5.509-3.431-5.247-3.947C14.71 2.669 14 3.946 14 5.424v.522S8.553 4.321 8.857 3.851C7.757 4.441 7 5.588 7 6.924V8.81l-6 6.272v2.645l17.16 14.439c0 .001 13.128-22.164 14.058-21.253z" transform="translate(200, 0) scale(5, 8)" /><g fill="#FFDC5D" transform="translate(200, 0) scale(5, 8)"><path d="M4.124 18.946c1.474 0 2.738-.831 3.392-2.043.678 1.212 1.958 2.043 3.446 2.043h.076c1.153 0 2.169-.51 2.889-1.298.023-.024.073-.082.073-.082.185-.212.343-.448.481-.695.04-.072.281-.621.342-.833.052-.173.106-.344.134-.526.141.167.296.319.46.46.069.059.45.339.576.413.589.351 1.271.56 2.008.56h3.166c-.535.27-.999.614-1.424 1-1.729 1.568-2.579 4.085-2.579 7.663 0 .276.224.5.5.5s.5-.224.5-.5c0-3.962 1.01-6.427 3.24-7.663 1.175-.651 2.682-.967 4.571-.967.059 0 .526-.033.526-.033.276 0 .5-.224.5-.5s-.224-.5-.5-.5H18c-1.657 0-3-1.343-3-3s1.343-3 3-3h11c.973 0 2.288.056 3.218.967.325.318.604.736.803 1.297l1.659 5.472c.156.512.73 2.857.626 3.346 0 7.34-8.7 14.972-19.004 14.972C6.326 36 1 27.883 1 17.957v-.229c.01.01.021.016.031.026.881.882 1.799 1.192 2.845 1.192h.248z" /><path d="M3.864 5.946h.271C5.718 5.946 7 7.229 7 8.81v6.272c0 1.582-1.282 2.864-2.864 2.864h-.272C2.282 17.946 1 16.664 1 15.082V8.81c0-1.581 1.282-2.864 2.864-2.864zm10.136 9c0 .891-.396 1.683-1.014 2.233-.53.472-1.221.767-1.986.767-1.657 0-3-1.343-3-3v-9c0-.816.328-1.554.857-2.095.544-.557 1.302-.905 2.143-.905 1.657 0 3 1.343 3 3v9zm4-6c-1.201 0-2.267.541-3 1.38v-6.38c0-.758.29-1.442.753-1.97.55-.627 1.347-1.03 2.247-1.03 1.657 0 3 1.343 3 3v5h-3zm4-4.007c0-.812.326-1.545.85-2.085.544-.559 1.301-.909 2.143-.909h.014C26.66 1.946 28 3.286 28 4.939v4.007h-6V4.939z" /></g><defs transform="translate(75, 275)" /><g fill="#000000" transform="translate(75, 275)"><g transform="translate(0, 0)"><path d="M23.71 29.61L0 39.75L0 35.38L18.77 27.59L0 19.87L0 15.50L23.71 25.51L23.71 29.61Z" /></g></g><defs transform="translate(275, 275)" /><g fill="#000000" transform="translate(275, 275)"><g transform="translate(0, 0)"><path d="M0 32.30Q0 25.10 4.00 21.63Q7.35 18.75 12.16 18.75Q17.50 18.75 20.90 22.25Q24.29 25.76 24.29 31.93Q24.29 36.94 22.79 39.81Q21.29 42.68 18.42 44.26Q15.55 45.85 12.16 45.85Q6.71 45.85 3.36 42.36Q0 38.87 0 32.30M4.52 32.30Q4.52 37.28 6.69 39.76Q8.86 42.24 12.16 42.24Q15.43 42.24 17.60 39.75Q19.78 37.26 19.78 32.15Q19.78 27.34 17.59 24.87Q15.41 22.39 12.16 22.39Q8.86 22.39 6.69 24.85Q4.52 27.32 4.52 32.30Z" /></g></g></svg>