<?xml version='1.0' encoding='utf-8'?>
<svg xmlns="http://www.w3.org/2000/svg" width="400" height="400" viewBox="0 0 400 400" version="1.1"><!--description: птица с большим клювом --><path fill="#66757F" d="M17.5 35c-.128 0-.256-.049-.354-.146-.195-.195-.195-.512 0-.707L19 32.293V29.5c0-.276.224-.5.5-.5s.5.224.5.5v3.207l-2.146 2.146c-.098.098-.226.147-.354.147z" transform="translate(0, 0) scale(5, 8)" /><path fill="#66757F" d="M19.5 33h-3c-.276 0-.5-.224-.5-.5s.224-.5.5-.5h3c.276 0 .5.224.5.5s-.224.5-.5.5zm3 2c-.128 0-.256-.049-.354-.146-.195-.195-.195-.512 0-.707L24 32.293V29.5c0-.276.224-.5.5-.5s.5.224.5.5v3.207l-2.146 2.146c-.098.098-.226.147-.354.147z" transform="translate(0, 0) scale(5, 8)" /><path fill="#66757F" d="M24.5 33h-3c-.276 0-.5-.224-.5-.5s.224-.5.5-.5h3c.276 0 .5.224.5.5s-.224.5-.5.5z" transform="translate(0, 0) scale(5, 8)" /><path fill="#F4900C" d="M3.53 13.798c.845.452 3.813-1.411 4.36-3.308S6.869 8.374 5.008 9.25 2.8 13.407 3.53 13.798z" transform="translate(0, 0) scale(5, 8)" /><path fill="#FFAC33" d="M6.325 4C3.77 5 2.047 7.378 2.031 10.088c-.016 2.699 1.219 4.423 2.594 4.047.376-.103-.303-1.922.85-4.371.57-1.207 1.303-1.35 1.675-1.313.373.036.443-4.947-.825-4.451z" transform="translate(0, 0) scale(5, 8)" /><path fill="#77B255" d="M34.525 31.384c-.014.499-1.916.822-5.592-3.599-2.927 3.09-7.374 3.182-11.821 1.422-4.999-1.979-8.383-6.924-7.701-13.976.382-3.954-5.228-3.587-5.081-8.899C4.441 2.337 7.843.797 10.704.876c4.74.131 6.82 5.293 8.052 6.561 6.494 6.688 15.81 22.47 15.769 23.947z" transform="translate(0, 0) scale(5, 8)" /><path fill="#EA596E" d="M28.932 27.785c-2.927 3.09-7.374 3.182-11.821 1.422-4.999-1.979-8.383-6.924-7.701-13.976.036 4.343 1.559 7.582 2.94 8.416-.58-2.79.117-7.062.784-7.779 1.591 9.402 10.022 14.78 15.798 11.917z" transform="translate(0, 0) scale(5, 8)" /><path fill="#3B88C3" d="M13.135 15.867s1.737 5.788 7.33 9.387 8.468 2.53 8.468 2.53-2.939 3.363-7.647 2.084-9.321-5.997-8.151-14.001z" transform="translate(0, 0) scale(5, 8)" /><path fill="#5C913B" d="M16.938 9.417c-2.504-.588-6.666 7.123-1.009 13.392 7.436 8.241 13.004 4.976 13.004 4.976S24.785 11.259 16.938 9.417z" transform="translate(0, 0) scale(5, 8)" /><circle fill="#292F33" cx="8" cy="6" r="1" transform="translate(0, 0) scale(5, 8)" /><path fill="#5C913B" d="M10.724 13.259c-.79 0-1.509-.189-1.976-.45-.248-.139-.336-.453-.198-.701.14-.248.454-.336.701-.198.665.373 2.406.63 3.614-.423.213-.187.539-.165.726.05.187.214.164.54-.05.726-.836.729-1.877.996-2.817.996z" transform="translate(0, 0) scale(5, 8)" /><path fill="#FFDC5D" d="M33 29.5c0-2.485-3.134-6.5-7-6.5l-.059.003C25.441 13.749 21.722 0 18 0c-3.657 0-7.311 13.691-7.912 23.004-.028 0-.06-.004-.088-.004-3.866 0-7 4.015-7 6.5 0 2.326 5.257 3.364 9.21 5.128C13.472 35.724 15.342 36 18 36c2.253 0 3.941-.267 5.173-1.081C27.17 32.974 33 31.95 33 29.5z" transform="translate(200, 0) scale(5, 8)" /><path fill="#EF9645" d="M26 30c.544-.099 2.104-2.421 2.104-4.077 0-2.061-.55-2.667-1.224-2.846-.289-.046-.581-.077-.88-.077 0 1 .137 2 .137 3.278 0 2.722-.681 3.82-.137 3.722zM7.789 25.923c0 1.656 1.561 3.979 2.104 4.077.544.098-.137-1-.137-3.722 0-1.275.136-2.274.137-3.271-.349.007-.691.05-1.026.118-.606.229-1.078.889-1.078 2.798z" transform="translate(200, 0) scale(5, 8)" /><path fill="#662113" d="M9.008 31.377c-1.562-.455-3.049-.216-3.741.503 1.804.892 4.381 1.648 6.618 2.609l.001-.002c.337-1.155-.951-2.549-2.878-3.11zm17.984 0c-1.927.561-3.215 1.955-2.878 3.11l.002.004c2.237-.961 4.814-1.718 6.617-2.611-.691-.719-2.179-.958-3.741-.503z" transform="translate(200, 0) scale(5, 8)" /><defs transform="translate(75, 275)" /><g fill="#000000" transform="translate(75, 275)"><g transform="translate(0, 0)"><path d="M0 34.52L0 30.10L13.50 30.10L13.50 34.52L0 34.52Z" /></g></g><defs transform="translate(275, 275)" /><g fill="#000000" transform="translate(275, 275)"><g transform="translate(0, 0)"><path d="M0 34.52L0 30.10L13.50 30.10L13.50 34.52L0 34.52Z" /></g></g></svg>