<?xml version='1.0' encoding='utf-8'?>
<svg xmlns="http://www.w3.org/2000/svg" width="400" height="400" viewBox="0 0 400 400" version="1.1"><!--description: человек, который убивает --><path fill="#CCD6DD" d="M35.875 34.604L19.796 15.113s-5.637 3.692-7.689 9.676c0 0 4.667 5.292 9.79 8.225 6.368 3.646 11.642 2.855 13.703 2.391.362-.081.511-.513.275-.801z" transform="translate(0, 0) scale(5, 8)" /><path fill="#AAB8C2" d="M18.071 13.005l-4.035 3.559c.066.028.316.45.174 1.107-.402 1.865-2.346 4.288-2.974 5.098-.194.25-.224.691.026 1.007l.845 1.013c1.821-3.964 6.556-8.694 7.689-9.676l-1.725-2.108z" transform="translate(0, 0) scale(5, 8)" /><path fill="#31373D" d="M18.071 13.005s-3.32-4.216-5.763-6.986S8.208 1.658 6.625.64C5.01-.398 3.285.205 1.981 1.354S-.722 5.082.787 6.793c.826.937 2.785.078 3.791 1.219.683.774 1.031 1.365 3.464 3.859 3.759 3.854 5.994 4.692 5.994 4.692s1.251-1.042 1.932-1.648c.682-.604 2.103-1.91 2.103-1.91z" transform="translate(0, 0) scale(5, 8)" /><circle fill="#F5F8FA" cx="11.618" cy="10.543" r="1.365" transform="translate(0, 0) scale(5, 8)" /><circle fill="#F5F8FA" cx="5.903" cy="4.653" r="1.365" transform="translate(0, 0) scale(5, 8)" /><path fill="#269" d="M24 26.799v-2.566c2-1.348 4.08-3.779 4.703-6.896.186.103.206.17.413.17.991 0 1.709-1.287 1.709-2.873 0-1.562-.823-2.827-1.794-2.865.187-.674.293-1.577.293-2.735C29.324 5.168 26 .527 18.541.527c-6.629 0-10.777 4.641-10.777 8.507 0 1.123.069 2.043.188 2.755-.911.137-1.629 1.352-1.629 2.845 0 1.587.804 2.873 1.796 2.873.206 0 .025-.067.209-.17C8.952 20.453 11 22.885 13 24.232v2.414c-5 .645-12 3.437-12 6.23v1.061C1 35 2.076 35 3.137 35h29.725C33.924 35 35 35 35 33.938v-1.061c0-2.615-6-5.225-11-6.078z" transform="translate(200, 0) scale(5, 8)" /><defs transform="translate(75, 275)" /><g fill="#000000" transform="translate(75, 275)"><g transform="translate(0, 0)"><path d="M0 55.79L0 8.86L3.83 8.86L3.83 55.79L0 55.79ZM12.99 55.79L12.99 8.86L16.82 8.86L16.82 55.79L12.99 55.79Z" /></g></g><defs transform="translate(275, 275)" /><g fill="#000000" transform="translate(275, 275)"><g transform="translate(0, 0)"><path d="M0 34.52L0 30.10L13.50 30.10L13.50 34.52L0 34.52Z" /></g></g></svg>