<?xml version='1.0' encoding='utf-8'?>
<svg xmlns="http://www.w3.org/2000/svg" width="400" height="400" viewBox="0 0 400 400" version="1.1"><!--description: часть головы для слышания --><path fill="#269" d="M24 26.799v-2.566c2-1.348 4.08-3.779 4.703-6.896.186.103.206.17.413.17.991 0 1.709-1.287 1.709-2.873 0-1.562-.823-2.827-1.794-2.865.187-.674.293-1.577.293-2.735C29.324 5.168 26 .527 18.541.527c-6.629 0-10.777 4.641-10.777 8.507 0 1.123.069 2.043.188 2.755-.911.137-1.629 1.352-1.629 2.845 0 1.587.804 2.873 1.796 2.873.206 0 .025-.067.209-.17C8.952 20.453 11 22.885 13 24.232v2.414c-5 .645-12 3.437-12 6.23v1.061C1 35 2.076 35 3.137 35h29.725C33.924 35 35 35 35 33.938v-1.061c0-2.615-6-5.225-11-6.078z" transform="translate(0, 0) scale(5, 8)" /><path fill="#FFDC5D" d="M31 14c-1 6-5 8-6 13-1.606 8.034-6.267 9-11 9-7.75 0-3.856-7.568-7-17-3-9-2.716-15.899 7-18 9.25-2 18.634 3.194 17 13z" transform="translate(200, 0) scale(5, 8)" /><path fill="#EF9645" d="M23.999 22c-.19 0-.383-.055-.554-.168-.46-.307-.584-.927-.277-1.387.491-.737.968-1.34 1.429-1.923C25.992 16.756 27 15.481 27 12c0-2.21-.782-3.975-2.323-5.246-2.193-1.806-5.827-2.486-9.485-1.773-1.861.363-3.194 1.215-4.074 2.604-2.061 3.253-.827 8.243-.814 8.293.136.535-.188 1.08-.723 1.215-.538.139-1.08-.188-1.215-.723-.061-.238-1.454-5.883 1.063-9.856 1.174-1.853 2.984-3.029 5.381-3.497 4.227-.825 8.496.015 11.14 2.192C27.944 6.855 29 9.203 29 12c0 4.175-1.377 5.917-2.835 7.763-.436.552-.887 1.122-1.333 1.792-.192.289-.51.445-.833.445z" transform="translate(200, 0) scale(5, 8)" /><path fill="#EF9645" d="M11.585 26.917c-.367 0-.72-.202-.896-.553-.551-1.103-.367-1.995-.116-2.549.545-1.202 1.916-1.935 2.924-2.199 1.997-.668 2.975-3.34 2.442-5.181-.572-1.974-2.651-2.673-5.701-1.922-.53.134-1.078-.194-1.21-.731-.132-.536.195-1.078.731-1.21 4.914-1.214 7.407.914 8.1 3.308.798 2.755-.564 6.577-3.794 7.653-.588.156-1.434.585-1.672 1.109-.068.149-.132.396.083.828.247.494.047 1.095-.447 1.342-.142.071-.295.105-.444.105z" transform="translate(200, 0) scale(5, 8)" /><defs transform="translate(75, 275)" /><g fill="#000000" transform="translate(75, 275)"><g transform="translate(0, 0)"><path d="M0 55.79L0 8.86L3.83 8.86L3.83 55.79L0 55.79ZM12.99 55.79L12.99 8.86L16.82 8.86L16.82 55.79L12.99 55.79Z" /></g></g><defs transform="translate(275, 275)" /><g fill="#000000" transform="translate(275, 275)"><g transform="translate(0, 0)"><path d="M0 34.52L0 30.10L13.50 30.10L13.50 34.52L0 34.52Z" /></g></g></svg>