<?xml version='1.0' encoding='utf-8'?>
<svg xmlns="http://www.w3.org/2000/svg" width="400" height="400" viewBox="0 0 400 400" version="1.1"><!--description: профессионал знаний --><path fill="#EA596E" d="M29.896 26.667c.003.283-.07.653-.146.958-.531 2.145-2.889 4.552-6.208 4.333-3.008-.198-5.458-1.642-5.458-3.667s2.444-3.667 5.458-3.667 6.335.018 6.354 2.043z" transform="translate(0, 0) scale(5, 8)" /><path fill="#DD2E44" d="M23.542 24.964c-1.619 0-5.314.448-6.162.448-1.498 0-2.713.94-2.713 2.1 0 .558.286 1.062.744 1.438 0 0 1.006 1.009 2.818.525.793-.212 2.083-1.786 4.354-2.036 1.131-.125 3.25.75 6.974.771.16-.344.193-.583.193-.583 0-2.027-3.194-2.663-6.208-2.663z" transform="translate(0, 0) scale(5, 8)" /><path fill="#F4ABBA" d="M29.75 27.625s2.184-.443 3.542-2.229c1.583-2.083 1.375-4.312 1.375-4.312 1.604-3-.5-5.813-.5-5.813C33.958 12.104 32 10.792 32 10.792c-1.271-3.021-4.083-3.833-4.083-3.833-2.208-2.583-6.125-2.5-6.125-2.5s-3.67-1.345-8.708.167c-.833.25-3.625.833-5.667 2.083C.981 10.649.494 16.793.584 17.792 1.083 23.375 5 24.375 7.5 24.958c.583 1.583 2.729 4.5 6.583 3.417 4.75-.833 6.75-2.25 7.917-2.25s4.417 1.25 7.75 1.5z" transform="translate(0, 0) scale(5, 8)" /><g fill="#EA596E" transform="translate(0, 0) scale(5, 8)"><path d="M17.737 18.648c2.328-1.255 3.59-1.138 4.704-1.037.354.032.689.057 1.028.055 1.984-.045 3.591-.881 4.302-1.69.182-.208.161-.523-.046-.706-.206-.182-.521-.163-.706.045-.548.624-1.899 1.313-3.573 1.351-.3.009-.601-.021-.913-.05-1.195-.111-2.679-.247-5.271 1.152-.665.359-1.577.492-2.565.592-2.197-3.171-.875-5.933-.497-6.591.037.002.073.014.111.014.4 0 .802-.098 1.166-.304.24-.136.325-.441.189-.681s-.441-.325-.681-.189c-.64.362-1.482.153-1.88-.467-.149-.233-.458-.301-.69-.151-.232.149-.3.458-.151.69.237.371.571.65.948.837-.521 1.058-1.51 3.84.372 6.951-1.324.13-2.65.317-3.688.986-.67.432-1.355 1.064-1.878 1.791-.629-.108-2.932-.675-3.334-3.231.25-.194.452-.45.577-.766.102-.257-.024-.547-.281-.649s-.547.024-.649.281c-.089.225-.25.389-.454.461-.202.072-.431.048-.643-.07-.243-.135-.546-.046-.68.194-.134.241-.047.546.194.68.284.158.588.238.89.238.037 0 .072-.017.109-.019.476 2.413 2.383 3.473 3.732 3.794-.176.388-.295.788-.331 1.192-.024.274.179.518.454.542l.045.002c.256 0 .475-.195.498-.456.108-1.213 1.265-2.48 2.293-3.145.964-.621 2.375-.752 3.741-.879 1.325-.121 2.577-.237 3.558-.767zm12.866-1.504c-.131.242-.041.546.2.677.076.042.159.062.24.062.176 0 .347-.093.438-.259.019-.034 1.842-3.449-1.571-5.744-.228-.152-.539-.093-.694.136-.154.229-.093.54.136.694 2.644 1.778 1.309 4.326 1.251 4.434zM9.876 9.07c.156 0 .309-.072.406-.208 1.45-2.017 3.458-1.327 3.543-1.295.259.094.544-.038.64-.296.096-.259-.036-.546-.295-.642-.96-.356-3.177-.468-4.7 1.65-.161.223-.11.536.114.697.089.064.191.094.292.094zm13.072-1.888c2.225-.181 3.237 1.432 3.283 1.508.094.158.26.246.431.246.086 0 .174-.022.253-.069.238-.14.318-.446.179-.684-.054-.091-1.34-2.218-4.224-1.998-.275.021-.48.262-.459.538.022.275.271.484.537.459zm9.15 14.611c-.246-.014-.517.181-.539.457-.002.018-.161 1.719-1.91 2.294-.262.086-.405.368-.318.631.068.21.265.344.475.344.052 0 .104-.008.156-.025 2.372-.778 2.586-3.064 2.594-3.161.021-.276-.183-.518-.458-.54z" /><path d="M7.347 16.934c-.072.267.086.541.353.613.043.012.087.017.13.017.221 0 .422-.147.482-.37.19-.711.927-1.167 1.652-1.014.271.055.535-.116.592-.387.057-.27-.116-.535-.387-.592-.426-.09-.854-.048-1.248.086-1.166-1.994-.939-3.96-.936-3.981.036-.273-.156-.524-.429-.562-.272-.033-.524.154-.562.427-.013.097-.28 2.316 1.063 4.614-.334.301-.588.694-.71 1.149zm11.179-2.47c.407-.377 1.06-.37 1.455.015.098.094.223.141.349.141.131 0 .261-.051.358-.152.192-.198.188-.515-.01-.707-.23-.223-.505-.372-.797-.465.296-1.016.179-1.467-.096-2.312-.048-.147-.101-.311-.157-.498l-.03-.1c-.364-1.208-.605-2.005.087-3.13.145-.235.071-.543-.164-.688-.231-.144-.542-.073-.688.164-.928 1.508-.587 2.637-.192 3.944l.03.1c.059.194.113.364.163.517.247.761.322 1.016.02 1.936-.369.069-.722.236-1.01.504-.202.188-.213.505-.025.707.189.202.506.212.707.024zm6.365-2.985c.291 0 .585-.061.859-.191.25-.118.357-.416.239-.666-.117-.25-.419-.354-.665-.239-.502.236-1.121.031-1.384-.457-.131-.244-.436-.333-.677-.205-.243.13-.335.434-.204.677.18.336.448.601.76.785-.537 1.305-.232 2.691.017 3.426.07.209.265.34.474.34.053 0 .106-.008.16-.026.262-.088.402-.372.313-.633-.168-.498-.494-1.756-.002-2.826.038.002.073.015.11.015zm4.797 9.429c-.019-.275-.257-.492-.531-.467-1.014.072-1.878-.697-1.947-1.703-.02-.275-.265-.48-.533-.465-.275.019-.483.258-.465.533.041.59.266 1.122.608 1.555-.804.946-1.857 1.215-2.444 1.284-.519.062-.973.009-1.498-.053-.481-.055-1.025-.118-1.698-.098l-.005.001c-.02-.286-.088-.703-.305-1.05-.146-.233-.455-.304-.689-.158-.233.146-.305.455-.158.689.134.215.159.558.159.725-.504.181-.94.447-1.334.704-.704.458-1.259.82-2.094.632-.756-.173-1.513-.208-2.155-.118-.1-.251-.258-.551-.502-.782-.201-.19-.517-.182-.707.02-.189.2-.181.517.02.707.086.081.154.199.209.317-1.103.454-1.656 1.213-1.682 1.25-.16.224-.107.533.115.694.088.063.19.094.292.094.155 0 .308-.071.406-.205.005-.008.554-.743 1.637-1.04.56-.154 1.363-.141 2.146.037.219.05.422.067.619.07.093.218.129.477.134.573.016.266.236.472.499.472l.027-.001c.275-.015.486-.248.473-.523-.003-.05-.023-.346-.13-.686.461-.167.862-.428 1.239-.673.572-.373 1.113-.726 1.82-.749.592-.021 1.08.036 1.551.091.474.055.94.091 1.454.061.091.253.084.591.07.704-.033.273.16.523.434.559.021.003.042.004.063.004.247 0 .462-.183.495-.435.008-.062.059-.512-.059-.981.718-.193 1.608-.612 2.345-1.471.431.264.934.419 1.469.419.062 0 .125-.002.187-.006.275-.018.483-.255.465-.531z" /></g><path fill="#CCD6DD" d="M36 36v-4c0-3.314-2.686-6-6-6H14c-3.313 0-6 2.686-6 6v4h28z" transform="translate(200, 0) scale(5, 8)" /><path fill="#FFDC5D" d="M18 27l4 4 4-4v-5h-8z" transform="translate(200, 0) scale(5, 8)" /><path fill="#F9CA55" d="M18 24c1.216 1.374 2.355 1.719 3.996 1.719 1.639 0 2.787-.346 4.004-1.719v-4h-8v4z" transform="translate(200, 0) scale(5, 8)" /><path fill="#FFDC5D" d="M15.444 13.936c0 1.448-.734 2.622-1.639 2.622s-1.639-1.174-1.639-2.622.734-2.623 1.639-2.623c.905-.001 1.639 1.174 1.639 2.623m16.389 0c0 1.448-.733 2.622-1.639 2.622-.905 0-1.639-1.174-1.639-2.622s.733-2.623 1.639-2.623c.906-.001 1.639 1.174 1.639 2.623" transform="translate(200, 0) scale(5, 8)" /><path fill="#FFDC5D" d="M13.477 14.96c0-5.589 3.816-10.121 8.523-10.121s8.522 4.532 8.522 10.121S26.707 25.081 22 25.081c-4.706-.001-8.523-4.532-8.523-10.121" transform="translate(200, 0) scale(5, 8)" /><path fill="#C1694F" d="M22 21.802c-2.754 0-3.6-.705-3.741-.848-.256-.256-.256-.671 0-.927.248-.248.646-.255.902-.023.052.037.721.487 2.839.487 2.2 0 2.836-.485 2.842-.49.256-.255.657-.243.913.015.256.256.242.683-.014.938-.141.143-.987.848-3.741.848" transform="translate(200, 0) scale(5, 8)" /><path fill="#FFAC33" d="M22 1.48c5.648 0 9.178 4.168 9.178 7.641s-.706 4.863-1.412 3.473l-1.412-2.778s-4.235 0-5.647-1.39c0 0 2.118 4.168-2.118 0 0 0 .706 2.779-3.53-.694 0 0-2.118 1.389-2.824 4.862-.196.964-1.412 0-1.412-3.473C12.822 5.648 15.646 1.48 22 1.48" transform="translate(200, 0) scale(5, 8)" /><path fill="#662113" d="M18 15c-.55 0-1-.45-1-1v-1c0-.55.45-1 1-1s1 .45 1 1v1c0 .55-.45 1-1 1m8 0c-.55 0-1-.45-1-1v-1c0-.55.45-1 1-1s1 .45 1 1v1c0 .55-.45 1-1 1" transform="translate(200, 0) scale(5, 8)" /><path fill="#C1694F" d="M22.75 17.75h-1.5c-.413 0-.75-.337-.75-.75s.337-.75.75-.75h1.5c.413 0 .75.337.75.75s-.337.75-.75.75" transform="translate(200, 0) scale(5, 8)" /><path fill="#66757F" d="M19.059 36L18 26.781s1.41 1.645 4 1.645 4.219-1.645 4.219-1.645L24.996 36h-5.937z" transform="translate(200, 0) scale(5, 8)" /><path fill="#F5F8FA" d="M18.081 25.25C18.647 25.816 21 36 21 36h-3.156l-1.704-2.562 1.704-2.835-2.017-.634.254-3.957s1.729-1.033 2-.762m7.838 0C25.353 25.816 23 36 23 36h3.156l1.704-2.562-1.704-2.835 2.017-.634-.254-3.957s-1.729-1.033-2-.762" transform="translate(200, 0) scale(5, 8)" /><path opacity=".4" fill="#FFF" d="M14.753 10.75h14.5V16h-14.5z" transform="translate(200, 0) scale(5, 8)" /><path fill="#F5F8FA" d="M29 10H15c-1 0-1 1-1 1v4c0 1.461 2.333 2 4 2s2.599-1 4-1 2.333 1 4 1 4-.539 4-2v-4c0-1-1-1-1-1zm0 4c0 1.325-.852 2-3 2-1.539 0-2.804-1-4-1s-2.461 1-4 1c-2.148 0-3-.675-3-2v-3h14v3z" transform="translate(200, 0) scale(5, 8)" /><circle fill="#9266CC" cx="7" cy="11" r="1" transform="translate(200, 0) scale(5, 8)" /><circle fill="#9266CC" cx="9" cy="16" r="1" transform="translate(200, 0) scale(5, 8)" /><circle fill="#9266CC" cx="5.5" cy="14.5" r="1.5" transform="translate(200, 0) scale(5, 8)" /><path fill="#A8BCCC" d="M10 18H5s-2 0-2 2 2 2 2 2v5l-4 5c-.883 1.104-1 1.821-1 2 0 2 2 2 2 2h11s2 0 2-2c0-.134.153-.559-1-2l-4-5v-5s2 0 2-2-2-2-2-2z" transform="translate(200, 0) scale(5, 8)" /><path fill="#E1E8ED" d="M9 27.351V21h1c.449-.012 1-.194 1-1 0-.803-.547-.987-1.008-1H5c-.45.012-1 .194-1 1s.55.988 1.012 1l.975.024L6 27.351l-1.894 2.368 3.394 3.5 3.394-3.5L9 27.351z" transform="translate(200, 0) scale(5, 8)" /><path fill="#9266CC" d="M.999 34.034c.001.772.551.954 1.013.966H13c.449-.012 1-.194 1-1v-.041l.006-.082c0-.003-.055-.337-.787-1.252l-2.325-2.906H4.106l-2.325 2.906c-.719.899-.782 1.404-.782 1.409z" transform="translate(200, 0) scale(5, 8)" /><defs transform="translate(75, 275)" /><g fill="#000000" transform="translate(75, 275)"><g transform="translate(0, 0)"><path d="M0 55.79L0 8.86L3.83 8.86L3.83 55.79L0 55.79ZM12.99 55.79L12.99 8.86L16.82 8.86L16.82 55.79L12.99 55.79Z" /></g></g><defs transform="translate(275, 275)" /><g fill="#000000" transform="translate(275, 275)"><g transform="translate(0, 0)"><path d="M0 34.52L0 30.10L13.50 30.10L13.50 34.52L0 34.52Z" /></g></g></svg>