<?xml version='1.0' encoding='utf-8'?>
<svg xmlns="http://www.w3.org/2000/svg" width="400" height="400" viewBox="0 0 400 400" version="1.1"><!--description: отсутствие огня --><path fill="#F4900C" d="M35 19c0-2.062-.367-4.039-1.04-5.868-.46 5.389-3.333 8.157-6.335 6.868-2.812-1.208-.917-5.917-.777-8.164.236-3.809-.012-8.169-6.931-11.794 2.875 5.5.333 8.917-2.333 9.125-2.958.231-5.667-2.542-4.667-7.042-3.238 2.386-3.332 6.402-2.333 9 1.042 2.708-.042 4.958-2.583 5.208-2.84.28-4.418-3.041-2.963-8.333C2.52 10.965 1 14.805 1 19c0 9.389 7.611 17 17 17s17-7.611 17-17z" transform="translate(0, 0) scale(5, 8)" /><path fill="#FFCC4D" d="M28.394 23.999c.148 3.084-2.561 4.293-4.019 3.709-2.106-.843-1.541-2.291-2.083-5.291s-2.625-5.083-5.708-6c2.25 6.333-1.247 8.667-3.08 9.084-1.872.426-3.753-.001-3.968-4.007C7.352 23.668 6 26.676 6 30c0 .368.023.73.055 1.09C9.125 34.124 13.342 36 18 36s8.875-1.876 11.945-4.91c.032-.36.055-.722.055-1.09 0-2.187-.584-4.236-1.606-6.001z" transform="translate(0, 0) scale(5, 8)" /><path fill="#DD2E44" d="M21.533 18.002L33.768 5.768c.976-.976.976-2.559 0-3.535-.977-.977-2.559-.977-3.535 0L17.998 14.467 5.764 2.233c-.976-.977-2.56-.977-3.535 0-.977.976-.977 2.559 0 3.535l12.234 12.234L2.201 30.265c-.977.977-.977 2.559 0 3.535.488.488 1.128.732 1.768.732s1.28-.244 1.768-.732l12.262-12.263 12.234 12.234c.488.488 1.128.732 1.768.732.64 0 1.279-.244 1.768-.732.976-.977.976-2.559 0-3.535L21.533 18.002z" transform="translate(200, 0) scale(5, 8)" /><defs transform="translate(75, 275)" /><g fill="#000000" transform="translate(75, 275)"><g transform="translate(0, 0)"><path d="M0 45.26L9.47 31.79L0.71 19.34L6.20 19.34L10.18 25.42Q11.30 27.15 11.99 28.32Q13.06 26.71 13.96 25.46L18.33 19.34L23.58 19.34L14.62 31.54L24.27 45.26L18.87 45.26L13.55 37.21L12.13 35.03L5.32 45.26L0 45.26Z" /></g></g><defs transform="translate(275, 275)" /><g fill="#000000" transform="translate(275, 275)"><g transform="translate(0, 0)"><path d="M0 34.52L0 30.10L13.50 30.10L13.50 34.52L0 34.52Z" /></g></g></svg>