<?xml version='1.0' encoding='utf-8'?>
<svg xmlns="http://www.w3.org/2000/svg" width="400" height="400" viewBox="0 0 400 400" version="1.1"><!--description: много голосов вместе --><path fill="#8899A6" d="M35.999 11.917c0 3.803-3.082 6.885-6.885 6.885-3.802 0-6.884-3.082-6.884-6.885 0-3.802 3.082-6.884 6.884-6.884 3.803 0 6.885 3.082 6.885 6.884z" transform="translate(0, 0) scale(5, 8)" /><path fill="#31373D" d="M32.81 18.568c-.336.336-.881.336-1.217 0L22.466 9.44c-.336-.336-.336-.881 0-1.217l1.217-1.217c.336-.336.881-.336 1.217 0l9.127 9.128c.336.336.336.881 0 1.217l-1.217 1.217zm-6.071.136l-4.325-4.327c-.778-.779-1.995-.733-2.719.101l-9.158 10.574c-1.219 1.408-1.461 3.354-.711 4.73l-4.911 4.912 1.409 1.409 4.877-4.877c1.381.84 3.411.609 4.862-.648l10.575-9.157c.834-.723.881-1.94.101-2.717z" transform="translate(0, 0) scale(5, 8)" /><path fill="#55ACEE" d="M4 6v8.122C3.686 14.047 3.352 14 3 14c-1.657 0-3 .896-3 2s1.343 2 3 2 3-.896 3-2V9.889l5 2.222v5.011c-.314-.075-.648-.122-1-.122-1.657 0-3 .896-3 2s1.343 2 3 2 2.999-.896 3-2v-9L4 6zm14-5v8.123C17.685 9.048 17.353 9 17 9c-1.657 0-3 .895-3 2 0 1.104 1.343 2 3 2 1.656 0 3-.896 3-2V1h-2z" transform="translate(0, 0) scale(5, 8)" /><path fill="#55ACEE" d="M29 20.729v-1.963c1-1.03 2.914-2.89 3.391-5.273.142.079.055.13.213.13.758 0 1.256-.983 1.256-2.197 0-1.194-.656-2.161-1.399-2.191.143-.516.212-1.206.212-2.092 0-2.956-2.549-6.505-8.253-6.505-5.068 0-8.244 3.549-8.244 6.505 0 .858.051 1.562.142 2.107-.697.105-1.247 1.033-1.247 2.175 0 1.214.614 2.197 1.373 2.197.157 0-.069-.051.072-.13.477 2.384 2.484 4.243 3.484 5.274v1.847c-4 .492-7 2.628-7 4.765v.81c0 .812.823.812 1.634.812h18.73c.813 0 1.636 0 1.636-.812v-.81c0-2.001-3-3.997-6-4.649z" transform="translate(200, 0) scale(5, 8)" /><path fill="#269" d="M17 28.729v-1.963c1-1.03 2.914-2.89 3.391-5.273.142.079.055.13.213.13.758 0 1.256-.983 1.256-2.197 0-1.194-.656-2.161-1.399-2.191.143-.516.212-1.206.212-2.092 0-2.956-2.549-6.505-8.253-6.505-5.069 0-8.244 3.549-8.244 6.505 0 .858.051 1.562.142 2.107-.697.105-1.247 1.033-1.247 2.175 0 1.214.614 2.197 1.373 2.197.157 0-.069-.051.072-.13C4.993 23.876 7 25.735 8 26.766v1.847c-4 .492-7 2.628-7 4.765v.811C1 35 1.823 35 2.634 35h18.73c.813 0 1.636 0 1.636-.812v-.811c0-2-3-3.996-6-4.648z" transform="translate(200, 0) scale(5, 8)" /><defs transform="translate(75, 275)" /><g fill="#000000" transform="translate(75, 275)"><g transform="translate(0, 0)"><path d="M0 34.52L0 30.10L13.50 30.10L13.50 34.52L0 34.52Z" /></g></g><defs transform="translate(275, 275)" /><g fill="#000000" transform="translate(275, 275)"><g transform="translate(0, 0)"><path d="M0 34.52L0 30.10L13.50 30.10L13.50 34.52L0 34.52Z" /></g></g></svg>