<?xml version='1.0' encoding='utf-8'?>
<svg xmlns="http://www.w3.org/2000/svg" width="400" height="400" viewBox="0 0 400 400" version="1.1"><!--description: правитель страны --><path fill="#F4900C" d="M14.174 17.075L6.75 7.594l-3.722 9.481z" transform="translate(0, 0) scale(5, 10)" /><path fill="#F4900C" d="M17.938 5.534l-6.563 12.389H24.5z" transform="translate(0, 0) scale(5, 10)" /><path fill="#F4900C" d="M21.826 17.075l7.424-9.481 3.722 9.481z" transform="translate(0, 0) scale(5, 10)" /><path fill="#FFCC4D" d="M28.669 15.19L23.887 3.523l-5.88 11.668-.007.003-.007-.004-5.88-11.668L7.331 15.19C4.197 10.833 1.28 8.042 1.28 8.042S3 20.75 3 33h30c0-12.25 1.72-24.958 1.72-24.958s-2.917 2.791-6.051 7.148z" transform="translate(0, 0) scale(5, 10)" /><circle fill="#5C913B" cx="17.957" cy="22" r="3.688" transform="translate(0, 0) scale(5, 10)" /><circle fill="#981CEB" cx="26.463" cy="22" r="2.412" transform="translate(0, 0) scale(5, 10)" /><circle fill="#DD2E44" cx="32.852" cy="22" r="1.986" transform="translate(0, 0) scale(5, 10)" /><circle fill="#981CEB" cx="9.45" cy="22" r="2.412" transform="translate(0, 0) scale(5, 10)" /><circle fill="#DD2E44" cx="3.061" cy="22" r="1.986" transform="translate(0, 0) scale(5, 10)" /><path fill="#FFAC33" d="M33 34H3c-.552 0-1-.447-1-1s.448-1 1-1h30c.553 0 1 .447 1 1s-.447 1-1 1zm0-3.486H3c-.552 0-1-.447-1-1s.448-1 1-1h30c.553 0 1 .447 1 1s-.447 1-1 1z" transform="translate(0, 0) scale(5, 10)" /><circle fill="#FFCC4D" cx="1.447" cy="8.042" r="1.407" transform="translate(0, 0) scale(5, 10)" /><circle fill="#F4900C" cx="6.75" cy="7.594" r="1.192" transform="translate(0, 0) scale(5, 10)" /><circle fill="#FFCC4D" cx="12.113" cy="3.523" r="1.784" transform="translate(0, 0) scale(5, 10)" /><circle fill="#FFCC4D" cx="34.553" cy="8.042" r="1.407" transform="translate(0, 0) scale(5, 10)" /><circle fill="#F4900C" cx="29.25" cy="7.594" r="1.192" transform="translate(0, 0) scale(5, 10)" /><circle fill="#FFCC4D" cx="23.887" cy="3.523" r="1.784" transform="translate(0, 0) scale(5, 10)" /><circle fill="#F4900C" cx="17.938" cy="5.534" r="1.784" transform="translate(0, 0) scale(5, 10)" /><path fill="#CCD6DD" d="M4 17h28v19H4z" transform="translate(200, 0) scale(5, 10)" /><path fill="#269" d="M6 13h23v5H6z" transform="translate(200, 0) scale(5, 10)" /><path fill="#AAB8C2" d="M1 12v22c0 1.104.896 2 2 2h4V12H1zm28 0v24h4c1.104 0 2-.896 2-2V12h-6z" transform="translate(200, 0) scale(5, 10)" /><path fill="#F2F9FF" d="M14 22h8v11h-8z" transform="translate(200, 0) scale(5, 10)" /><path fill="#269" d="M22 19c-.295 0-.558.391-.74 1h-6.52c-.183-.609-.445-1-.74-1-.552 0-1 1.344-1 3 0 1.657.448 3 1 3s1-1.343 1-3h6c0 1.657.447 3 1 3s1-1.343 1-3c0-1.656-.447-3-1-3z" transform="translate(200, 0) scale(5, 10)" /><path fill="#66757F" d="M3 17h2v2H3zm6 3h2v2H9zm16 0h2v2h-2zM9 24h2v2H9zm16 0h2v2h-2zM3 21h2v2H3zm28-4h2v2h-2zm0 4h2v2h-2z" transform="translate(200, 0) scale(5, 10)" /><path fill="#F2F9FF" d="M13 22h10v4H13z" transform="translate(200, 0) scale(5, 10)" /><path fill="#66757F" d="M18 26c-1.104 0-2 .896-2 2v5h4v-5c0-1.104-.896-2-2-2z" transform="translate(200, 0) scale(5, 10)" /><path fill="#8899A6" d="M12 33h12v3H12z" transform="translate(200, 0) scale(5, 10)" /><path fill="#269" d="M1 12h6S5 4 4 4s-3 8-3 8zm28 0h6s-2-8-3-8-3 8-3 8z" transform="translate(200, 0) scale(5, 10)" /><path fill="#CCD6DD" d="M8 14c0 .552-.448 1-1 1H1c-.552 0-1-.448-1-1s.448-1 1-1h6c.552 0 1 .448 1 1zm28 0c0 .552-.447 1-1 1h-6c-.553 0-1-.448-1-1s.447-1 1-1h6c.553 0 1 .448 1 1z" transform="translate(200, 0) scale(5, 10)" /></svg>