<?xml version='1.0' encoding='utf-8'?>
<svg xmlns="http://www.w3.org/2000/svg" width="400" height="400" viewBox="0 0 400 400" version="1.1"><!--description: кости рта --><path fill="#E75A70" d="M29 12c-4.688-3.515-6-6-8-6s-2 1-3 1-1-1-3-1-3.313 2.485-8 6c-4 3-7 3-7 5s5 6 8 9c2 2 5 4 10 4s8-2 10-4c3-3 8-7 8-9s-3-2-7-5z" transform="translate(0, 0) scale(5, 10)" /><path fill="#662113" d="M28.389 15.5C23.963 14.035 21 13.417 18 13.417s-5.962.618-10.389 2.083C3.833 16.75 1 16.167 1 17c0 .834 9 5 17 5s17-4.166 17-5c0-.833-2.834-.25-6.611-1.5z" transform="translate(0, 0) scale(5, 10)" /><path fill="#FFF" d="M28.389 15.5C23.963 14.035 21 13.417 18 13.417s-5.962.618-10.389 2.083c-3.624 1.199-6.371.715-6.59 1.408 2.454.385 9.119-.644 16.979-.644s14.524 1.029 16.979.644c-.219-.693-2.967-.209-6.59-1.408z" transform="translate(0, 0) scale(5, 10)" /><path fill="#FFE8B6" d="M34.345 24.615c-1.582-.977-4.292.715-5.675-.668-.877-.877-7.984-8.516-11.111-11.493S10.937 6.8 10.12 6.065c-.477-.429 1.076-3.55-.238-4.864C8.488-.192 6.566-.348 5.173 1.045c-.856.855-.461 2.285-1.062 2.683s-2.212.59-3.066 1.445c-1.393 1.392-1.191 3.683.396 4.85 1.621 1.192 4.053-.095 5.007.191 1.301.39 4.734 4.223 9.347 8.822 4.303 4.29 7.882 9.171 8.25 9.585.763.858-1.478 3.767.668 6.152 1.318 1.464 3.71 1.489 5.103.095.856-.854.806-3.721 1.574-4.292s2.53-.051 3.386-.906c1.391-1.392 1.19-4.053-.431-5.055z" transform="translate(200, 0) scale(5, 10)" /><path fill="#F2C994" d="M5.113 3.013C5.208 1.868 6.544.295 8.022.438c1.478.143 2.003 1.669 1.86 2.48-.144.81-.382 1.573-.478 2.193-.095.62-.143 1.097 1.097 2.003s11.397 10.157 13.734 12.971c2.337 2.814 3.72 4.578 4.673 4.816.954.238 1.812.143 2.718 0 .847-.134 2.847-.575 3.729.885-.227-.475-.557-.891-1.01-1.171-1.582-.977-4.292.715-5.675-.668-.877-.877-7.984-8.516-11.111-11.493-3.127-2.977-6.622-5.655-7.439-6.39-.477-.429 1.076-3.55-.238-4.864C8.488-.192 6.566-.348 5.173 1.045c-.856.855-.461 2.285-1.062 2.683-.14.093-.34.175-.568.257.953-.055 1.494-.06 1.57-.972z" transform="translate(200, 0) scale(5, 10)" /><path fill="#D99E82" d="M35.537 27.953c-.143 1.24-2.48 2.146-3.958 1.669-.873-.282-1.717-.143-1.621.763.095.906.238 2.241-.286 3.29-.477.954-2.48 1.431-3.767.525-1.186-.835-1.383-2.957-.858-3.958.525-1.001.572-1.669-.668-3.195-.628-.773-4.109-4.765-8.011-8.87-3.801-3.998-7.593-7.828-8.393-8.393-1.623-1.144-2.466-.662-3.625-.381-1.574.381-3.1-.715-3.386-1.431-.255-.639-.228-2.13.243-2.933-.054.045-.113.085-.162.134-1.393 1.392-1.191 3.683.396 4.85 1.621 1.192 4.053-.095 5.007.191 1.301.39 4.734 4.223 9.347 8.822 4.303 4.29 7.882 9.171 8.25 9.585.763.858-1.478 3.767.668 6.152 1.318 1.464 3.71 1.489 5.103.095.855-.854.806-3.721 1.574-4.292.767-.571 2.53-.051 3.386-.906.558-.557.848-1.317.906-2.093-.065.026-.118.142-.145.376z" transform="translate(200, 0) scale(5, 10)" /></svg>