<?xml version='1.0' encoding='utf-8'?>
<svg xmlns="http://www.w3.org/2000/svg" width="400" height="400" viewBox="0 0 400 400" version="1.1"><!--description: имеющий шум --><path fill="#8899A6" d="M2 10s-2 0-2 2v12c0 2 2 2 2 2h6l8 8s1 1 2 1h1s1 0 1-1V2s0-1-1-1h-1c-1 0-2 1-2 1l-8 8H2z" transform="translate(0, 0) scale(5, 8)" /><path fill="#CCD6DD" d="M8 26l8 8s1 1 2 1h1s1 0 1-1V2s0-1-1-1h-1c-1 0-2 1-2 1l-8 8v16z" transform="translate(0, 0) scale(5, 8)" /><path fill="#8899A6" d="M29 32.019c-.267 0-.533-.113-.72-.332-.339-.398-.292-.995.105-1.334 3.603-3.071 5.668-7.551 5.668-12.29s-2.066-9.219-5.669-12.29c-.397-.339-.444-.937-.105-1.334.339-.399.935-.444 1.334-.106 4.024 3.431 6.333 8.436 6.333 13.73 0 5.294-2.309 10.299-6.332 13.729-.179.152-.396.227-.614.227z" transform="translate(0, 0) scale(5, 8)" /><path fill="#8899A6" d="M26.27 28.959c-.269 0-.533-.115-.717-.338-.327-.396-.271-.98.125-1.307 2.792-2.304 4.394-5.699 4.394-9.315 0-3.573-1.571-6.943-4.311-9.245-.392-.33-.443-.916-.113-1.308.33-.394.915-.443 1.309-.114 3.16 2.656 4.973 6.543 4.973 10.667 0 4.172-1.848 8.089-5.069 10.746-.174.145-.383.214-.591.214z" transform="translate(0, 0) scale(5, 8)" /><path fill="#8899A6" d="M23.709 25.959c-.289 0-.576-.124-.774-.365-.351-.427-.289-1.057.138-1.407C24.934 22.658 26 20.403 26 18c0-2.435-1.089-4.708-2.988-6.236-.431-.346-.498-.976-.152-1.406.348-.429.976-.499 1.406-.152C26.639 12.116 28 14.957 28 18c0 3.004-1.333 5.822-3.657 7.731-.186.154-.411.228-.634.228z" transform="translate(0, 0) scale(5, 8)" /><path fill="#EF9645" d="M32.218 10.913c-.81-1.187-2.172-1.967-3.718-1.967H28s-5.353-5.672-5.15-6.091C21.754 3.446 21 4.591 21 5.924c0 0-5.509-3.431-5.247-3.947C14.71 2.669 14 3.946 14 5.424v.522S8.553 4.321 8.857 3.851C7.757 4.441 7 5.588 7 6.924V8.81l-6 6.272v2.645l17.16 14.439c0 .001 13.128-22.164 14.058-21.253z" transform="translate(200, 0) scale(5, 8)" /><g fill="#FFDC5D" transform="translate(200, 0) scale(5, 8)"><path d="M4.124 18.946c1.474 0 2.738-.831 3.392-2.043.678 1.212 1.958 2.043 3.446 2.043h.076c1.153 0 2.169-.51 2.889-1.298.023-.024.073-.082.073-.082.185-.212.343-.448.481-.695.04-.072.281-.621.342-.833.052-.173.106-.344.134-.526.141.167.296.319.46.46.069.059.45.339.576.413.589.351 1.271.56 2.008.56h3.166c-.535.27-.999.614-1.424 1-1.729 1.568-2.579 4.085-2.579 7.663 0 .276.224.5.5.5s.5-.224.5-.5c0-3.962 1.01-6.427 3.24-7.663 1.175-.651 2.682-.967 4.571-.967.059 0 .526-.033.526-.033.276 0 .5-.224.5-.5s-.224-.5-.5-.5H18c-1.657 0-3-1.343-3-3s1.343-3 3-3h11c.973 0 2.288.056 3.218.967.325.318.604.736.803 1.297l1.659 5.472c.156.512.73 2.857.626 3.346 0 7.34-8.7 14.972-19.004 14.972C6.326 36 1 27.883 1 17.957v-.229c.01.01.021.016.031.026.881.882 1.799 1.192 2.845 1.192h.248z" /><path d="M3.864 5.946h.271C5.718 5.946 7 7.229 7 8.81v6.272c0 1.582-1.282 2.864-2.864 2.864h-.272C2.282 17.946 1 16.664 1 15.082V8.81c0-1.581 1.282-2.864 2.864-2.864zm10.136 9c0 .891-.396 1.683-1.014 2.233-.53.472-1.221.767-1.986.767-1.657 0-3-1.343-3-3v-9c0-.816.328-1.554.857-2.095.544-.557 1.302-.905 2.143-.905 1.657 0 3 1.343 3 3v9zm4-6c-1.201 0-2.267.541-3 1.38v-6.38c0-.758.29-1.442.753-1.97.55-.627 1.347-1.03 2.247-1.03 1.657 0 3 1.343 3 3v5h-3zm4-4.007c0-.812.326-1.545.85-2.085.544-.559 1.301-.909 2.143-.909h.014C26.66 1.946 28 3.286 28 4.939v4.007h-6V4.939z" /></g><defs transform="translate(75, 275)" /><g fill="#000000" transform="translate(75, 275)"><g transform="translate(0, 0)"><path d="M23.71 29.61L0 39.75L0 35.38L18.77 27.59L0 19.87L0 15.50L23.71 25.51L23.71 29.61Z" /></g></g><defs transform="translate(275, 275)" /><g fill="#000000" transform="translate(275, 275)"><g transform="translate(0, 0)"><path d="M0 32.30Q0 25.10 4.00 21.63Q7.35 18.75 12.16 18.75Q17.50 18.75 20.90 22.25Q24.29 25.76 24.29 31.93Q24.29 36.94 22.79 39.81Q21.29 42.68 18.42 44.26Q15.55 45.85 12.16 45.85Q6.71 45.85 3.36 42.36Q0 38.87 0 32.30M4.52 32.30Q4.52 37.28 6.69 39.76Q8.86 42.24 12.16 42.24Q15.43 42.24 17.60 39.75Q19.78 37.26 19.78 32.15Q19.78 27.34 17.59 24.87Q15.41 22.39 12.16 22.39Q8.86 22.39 6.69 24.85Q4.52 27.32 4.52 32.30Z" /></g></g></svg>