<?xml version='1.0' encoding='utf-8'?>
<svg xmlns="http://www.w3.org/2000/svg" width="400" height="400" viewBox="0 0 400 400" version="1.1"><!--description: тот, кто изгоняет духов --><path fill="#E1E8ED" d="M36 11c0-1.104-.896-2-2-2s-2 .896-2 2c0 0-.011 3.285-3 3.894V12c0-6.075-4.925-11-11-11S7 5.925 7 12v3.237C1.778 16.806 0 23.231 0 27c0 1.104.896 2 2 2s2-.896 2-2c0 0 .002-3.54 3.336-3.958C7.838 27.883 8.954 33 11 33h1c4 0 3 2 7 2s3-2 6-2 2.395 2 6 2c1.657 0 3-1.343 3-3 0-.675-2.274-4.994-3.755-9.268C35.981 21.348 36 14.58 36 11z" transform="translate(0, 0) scale(5, 8)" /><circle fill="#292F33" cx="13" cy="12" r="2" transform="translate(0, 0) scale(5, 8)" /><circle fill="#292F33" cx="23" cy="12" r="4" transform="translate(0, 0) scale(5, 8)" /><circle fill="#9AAAB4" cx="23" cy="13" r="2" transform="translate(0, 0) scale(5, 8)" /><path fill="#292F33" d="M22.192 19.491c2.65 1.987 3.591 5.211 2.1 7.199-1.491 1.988-4.849 1.988-7.5 0-2.65-1.987-3.591-5.211-2.1-7.199 1.492-1.989 4.849-1.988 7.5 0z" transform="translate(0, 0) scale(5, 8)" /><path fill="#DD2E44" d="M18 0C8.059 0 0 8.059 0 18s8.059 18 18 18 18-8.059 18-18S27.941 0 18 0zm13 18c0 2.565-.753 4.95-2.035 6.965L11.036 7.036C13.05 5.753 15.435 5 18 5c7.18 0 13 5.821 13 13zM5 18c0-2.565.753-4.95 2.036-6.964l17.929 17.929C22.95 30.247 20.565 31 18 31c-7.179 0-13-5.82-13-13z" transform="translate(200, 0) scale(5, 8)" /><defs transform="translate(75, 275)" /><g fill="#000000" transform="translate(75, 275)"><g transform="translate(0, 0)"><path d="M23.71 29.61L0 39.75L0 35.38L18.77 27.59L0 19.87L0 15.50L23.71 25.51L23.71 29.61Z" /></g></g><defs transform="translate(275, 275)" /><g fill="#000000" transform="translate(275, 275)"><g transform="translate(0, 0)"><path d="M0 34.52L0 30.10L13.50 30.10L13.50 34.52L0 34.52Z" /></g></g></svg>