<svg xmlns="http://www.w3.org/2000/svg" viewBox="58 -89 783 803">
  <g transform="translate(0, 625) scale(1, -1)">
    <path fill="black" d="M841 357Q841 311 830.5 267.0Q820 223 798.0 187.5Q776 152 744.0 130.5Q712 109 668 109Q622 109 595.5 135.5Q569 162 563 196H558Q540 159 505.0 134.0Q470 109 417 109Q341 109 299.5 160.0Q258 211 258 295Q258 361 284.0 411.5Q310 462 357.5 491.0Q405 520 470 520Q514 520 556.5 512.5Q599 505 623 496L613 293Q612 275 612.0 267.5Q612 260 612 257Q612 205 630.5 188.0Q649 171 674 171Q705 171 726.5 196.5Q748 222 759.5 264.5Q771 307 771 358Q771 451 733.5 515.5Q696 580 630.5 614.0Q565 648 482 648Q368 648 289.5 601.0Q211 554 170.5 471.5Q130 389 130 283Q130 135 208.0 56.0Q286 -23 433 -23Q494 -23 549.5 -9.5Q605 4 648 20V-48Q605 -66 551.5 -77.5Q498 -89 433 -89Q315 -89 231.0 -45.0Q147 -1 102.5 81.5Q58 164 58 280Q58 373 87.0 452.5Q116 532 171.0 590.5Q226 649 304.5 681.5Q383 714 482 714Q586 714 667.0 671.0Q748 628 794.5 548.0Q841 468 841 357ZM336 293Q336 229 361.5 200.0Q387 171 430 171Q486 171 510.5 213.0Q535 255 539 322L545 447Q532 451 512.0 454.0Q492 457 471 457Q422 457 392.0 433.0Q362 409 349.0 371.5Q336 334 336 293Z" />
  </g>
</svg>