<svg xmlns="http://www.w3.org/2000/svg" viewBox="85 -240 475 786">
  <g transform="translate(0, 306) scale(1, -1)">
    <path fill="black" d="M340 546Q439 546 499.5 477.0Q560 408 560 269Q560 132 499.5 61.0Q439 -10 339 -10Q277 -10 236.5 13.5Q196 37 173 68H167Q169 51 171.0 25.0Q173 -1 173 -20V-240H85V536H157L169 463H173Q197 498 236.0 522.0Q275 546 340 546ZM324 472Q242 472 208.5 426.0Q175 380 173 286V269Q173 170 205.5 116.5Q238 63 326 63Q375 63 406.5 90.0Q438 117 453.5 163.5Q469 210 469 270Q469 362 433.5 417.0Q398 472 324 472Z" />
  </g>
</svg>