<svg xmlns="http://www.w3.org/2000/svg" viewBox="59 -5 388 770">
  <g transform="translate(0, 760) scale(1, -1)">
    <path fill="black" d="M67 395Q67 445 91.0 475.5Q115 506 146 521Q110 541 90.0 568.5Q70 596 70 636Q70 696 121.0 730.5Q172 765 267 765Q323 765 362.0 755.5Q401 746 438 731L411 664Q377 678 343.0 687.5Q309 697 261 697Q201 697 176.5 681.5Q152 666 152 638Q152 610 180.0 590.5Q208 571 284 543Q361 515 404.0 479.0Q447 443 447 383Q447 332 424.0 299.5Q401 267 372 250Q407 231 426.5 204.5Q446 178 446 140Q446 71 388.5 33.0Q331 -5 228 -5Q173 -5 132.0 3.5Q91 12 59 28V103Q91 88 138.0 75.0Q185 62 232 62Q306 62 334.0 83.5Q362 105 362 133Q362 152 352.5 166.0Q343 180 315.5 195.5Q288 211 233 231Q181 251 143.5 272.0Q106 293 86.5 322.0Q67 351 67 395ZM142 405Q142 368 173.5 342.5Q205 317 285 287L307 279Q330 293 350.5 314.5Q371 336 371 370Q371 395 357.5 415.0Q344 435 310.0 453.5Q276 472 214 491Q186 484 164.0 461.0Q142 438 142 405Z" />
  </g>
</svg>