<svg xmlns="http://www.w3.org/2000/svg" viewBox="32 383 276 339">
  <g transform="translate(0, 1105) scale(1, -1)">
    <path fill="black" d="M177 722Q242 722 275.0 695.0Q308 668 308 609V389H261L249 431Q229 410 201.0 396.5Q173 383 135 383Q88 383 60.0 407.5Q32 432 32 482Q32 581 190 587L246 589V611Q246 644 225.0 657.0Q204 670 175 670Q147 670 122.0 662.5Q97 655 74 644L52 693Q78 706 110.5 714.0Q143 722 177 722ZM198 542Q138 540 117.0 524.5Q96 509 96 482Q96 457 110.5 445.5Q125 434 150 434Q201 434 223.5 457.5Q246 481 246 521V544Z" />
  </g>
</svg>