<svg xmlns="http://www.w3.org/2000/svg" viewBox="0 0 638 944">
  <g transform="translate(0, 944) scale(1, -1)">
    <path fill="black" d="M545 0 459 221H176L91 0H0L279 717H360L638 0ZM352 517Q349 525 342.0 546.0Q335 567 328.5 589.5Q322 612 318 624Q311 593 302.0 563.5Q293 534 287 517L206 301H432ZM362 944Q374 922 396.5 894.5Q419 867 443.5 840.5Q468 814 487 795V784H425Q399 800 371.0 823.5Q343 847 316 874Q289 847 262.0 824.0Q235 801 209 784H149V795Q168 815 191.5 841.0Q215 867 237.0 894.5Q259 922 272 944Z" />
  </g>
</svg>