<svg xmlns="http://www.w3.org/2000/svg" viewBox="46 -10 434 776">
  <g transform="translate(0, 756) scale(1, -1)">
    <path fill="black" d="M288 545Q386 545 433.0 502.0Q480 459 480 365V0H416L399 76H395Q360 32 321.5 11.0Q283 -10 215 -10Q142 -10 94.0 28.5Q46 67 46 149Q46 229 109.0 272.5Q172 316 303 320L394 323V355Q394 422 365.0 448.0Q336 474 283 474Q241 474 203.0 461.5Q165 449 132 433L105 499Q140 518 188.0 531.5Q236 545 288 545ZM314 259Q214 255 175.5 227.0Q137 199 137 148Q137 103 164.5 82.0Q192 61 235 61Q303 61 348.0 98.5Q393 136 393 214V262ZM325 766Q337 744 359.5 716.5Q382 689 406.5 662.5Q431 636 450 617V606H388Q362 622 334.0 645.5Q306 669 279 696Q252 669 225.0 646.0Q198 623 172 606H112V617Q131 637 154.5 663.0Q178 689 200.0 716.5Q222 744 235 766Z" />
  </g>
</svg>