<svg xmlns="http://www.w3.org/2000/svg" viewBox="55 -10 496 776">
  <g transform="translate(0, 756) scale(1, -1)">
    <path fill="black" d="M551 269Q551 136 483.5 63.0Q416 -10 301 -10Q230 -10 174.5 22.5Q119 55 87.0 117.5Q55 180 55 269Q55 402 122.0 474.0Q189 546 304 546Q377 546 432.5 513.5Q488 481 519.5 419.5Q551 358 551 269ZM146 269Q146 174 183.5 118.5Q221 63 303 63Q384 63 422.0 118.5Q460 174 460 269Q460 364 422.0 418.0Q384 472 302 472Q220 472 183.0 418.0Q146 364 146 269ZM347 766Q359 744 381.5 716.5Q404 689 428.5 662.5Q453 636 472 617V606H410Q384 622 356.0 645.5Q328 669 301 696Q274 669 247.0 646.0Q220 623 194 606H134V617Q153 637 176.5 663.0Q200 689 222.0 716.5Q244 744 257 766Z" />
  </g>
</svg>