<svg xmlns="http://www.w3.org/2000/svg" viewBox="61 -10 659 923">
  <g transform="translate(0, 903) scale(1, -1)">
    <path fill="black" d="M720 358Q720 247 682.5 164.5Q645 82 572.0 36.0Q499 -10 391 -10Q280 -10 206.5 36.0Q133 82 97.0 165.0Q61 248 61 359Q61 469 97.0 551.0Q133 633 206.5 679.0Q280 725 392 725Q499 725 572.0 679.5Q645 634 682.5 551.5Q720 469 720 358ZM156 358Q156 223 213.0 145.5Q270 68 391 68Q513 68 569.0 145.5Q625 223 625 358Q625 493 569.0 569.5Q513 646 392 646Q271 646 213.5 569.5Q156 493 156 358ZM208 784Q214 843 242.5 877.5Q271 912 318 912Q348 912 374.5 897.5Q401 883 425.0 869.0Q449 855 470 855Q493 855 505.5 869.5Q518 884 525 913H575Q569 855 541.0 820.0Q513 785 466 785Q438 785 411.5 799.0Q385 813 360.5 827.5Q336 842 314 842Q290 842 278.0 827.5Q266 813 259 784Z" />
  </g>
</svg>