<svg xmlns="http://www.w3.org/2000/svg" viewBox="79 -10 454 776">
  <g transform="translate(0, 756) scale(1, -1)">
    <path fill="black" d="M533 536V0H461L448 71H444Q418 29 372.0 9.5Q326 -10 274 -10Q177 -10 128.0 36.5Q79 83 79 185V536H168V191Q168 63 287 63Q376 63 410.5 113.0Q445 163 445 257V536ZM353 766Q365 744 387.5 716.5Q410 689 434.5 662.5Q459 636 478 617V606H416Q390 622 362.0 645.5Q334 669 307 696Q280 669 253.0 646.0Q226 623 200 606H140V617Q159 637 182.5 663.0Q206 689 228.0 716.5Q250 744 263 766Z" />
  </g>
</svg>