<svg xmlns="http://www.w3.org/2000/svg" viewBox="79 -10 454 740">
  <g transform="translate(0, 720) scale(1, -1)">
    <path fill="black" d="M533 536V0H461L448 71H444Q418 29 372.0 9.5Q326 -10 274 -10Q177 -10 128.0 36.5Q79 83 79 185V536H168V191Q168 63 287 63Q376 63 410.5 113.0Q445 163 445 257V536ZM169 681Q169 707 183.0 718.5Q197 730 216 730Q235 730 249.0 718.5Q263 707 263 681Q263 656 249.0 643.5Q235 631 216 631Q197 631 183.0 643.5Q169 656 169 681ZM357 681Q357 707 370.5 718.5Q384 730 403 730Q422 730 436.0 718.5Q450 707 450 681Q450 656 436.0 643.5Q422 631 403 631Q384 631 370.5 643.5Q357 656 357 681Z" />
  </g>
</svg>