<svg xmlns="http://www.w3.org/2000/svg" viewBox="1 -240 509 1006">
  <g transform="translate(0, 526) scale(1, -1)">
    <path fill="black" d="M1 536H95L211 231Q226 191 238.0 154.5Q250 118 256 85H260Q266 110 279.0 150.5Q292 191 306 232L415 536H510L279 -74Q251 -150 206.5 -195.0Q162 -240 84 -240Q60 -240 42.0 -237.5Q24 -235 11 -232V-162Q22 -164 37.5 -166.0Q53 -168 70 -168Q116 -168 144.5 -142.0Q173 -116 189 -73L217 -2ZM403 756Q391 738 366.0 709.5Q341 681 312.5 652.5Q284 624 260 606H202V618Q217 637 234.5 663.0Q252 689 269.0 716.5Q286 744 297 766H403Z" />
  </g>
</svg>