<svg xmlns="http://www.w3.org/2000/svg" viewBox="61 -10 540 954">
  <g transform="translate(0, 934) scale(1, -1)">
    <path fill="black" d="M403 645Q288 645 222.0 568.0Q156 491 156 357Q156 224 217.5 146.5Q279 69 402 69Q449 69 491.0 77.0Q533 85 573 97V19Q533 4 490.5 -3.0Q448 -10 389 -10Q280 -10 207.0 35.0Q134 80 97.5 163.0Q61 246 61 358Q61 466 100.5 548.5Q140 631 217.0 677.5Q294 724 404 724Q517 724 601 682L565 606Q532 621 491.5 633.0Q451 645 403 645ZM528 934Q516 916 491.0 887.5Q466 859 437.5 830.5Q409 802 385 784H327V796Q342 815 359.5 841.0Q377 867 394.0 894.5Q411 922 422 944H528Z" />
  </g>
</svg>