<svg xmlns="http://www.w3.org/2000/svg" viewBox="55 -10 392 776">
  <g transform="translate(0, 756) scale(1, -1)">
    <path fill="black" d="M300 -10Q229 -10 173.5 19.0Q118 48 86.5 109.0Q55 170 55 265Q55 364 88.0 426.0Q121 488 177.5 517.0Q234 546 306 546Q347 546 385.0 537.5Q423 529 447 517L420 444Q396 453 364.0 461.0Q332 469 304 469Q146 469 146 266Q146 169 184.5 117.5Q223 66 299 66Q343 66 376.5 75.0Q410 84 438 97V19Q411 5 378.5 -2.5Q346 -10 300 -10ZM432 756Q420 738 395.0 709.5Q370 681 341.5 652.5Q313 624 289 606H231V618Q246 637 263.5 663.0Q281 689 298.0 716.5Q315 744 326 766H432Z" />
  </g>
</svg>