<svg xmlns="http://www.w3.org/2000/svg" viewBox="61 -10 540 954">
  <g transform="translate(0, 934) scale(1, -1)">
    <path fill="black" d="M403 645Q288 645 222.0 568.0Q156 491 156 357Q156 224 217.5 146.5Q279 69 402 69Q449 69 491.0 77.0Q533 85 573 97V19Q533 4 490.5 -3.0Q448 -10 389 -10Q280 -10 207.0 35.0Q134 80 97.5 163.0Q61 246 61 358Q61 466 100.5 548.5Q140 631 217.0 677.5Q294 724 404 724Q517 724 601 682L565 606Q532 621 491.5 633.0Q451 645 403 645ZM334 784Q321 807 299.0 833.5Q277 860 253.0 886.0Q229 912 211 931V944H271Q297 927 325.0 903.0Q353 879 378 852Q405 879 433.0 903.0Q461 927 487 944H549V931Q530 912 505.5 886.0Q481 860 458.5 833.5Q436 807 424 784Z" />
  </g>
</svg>