<svg xmlns="http://www.w3.org/2000/svg" viewBox="27 -220 165 957">
  <g transform="translate(0, 517) scale(1, -1)">
    <path fill="black" d="M130 737Q150 737 165.5 723.5Q181 710 181 681Q181 653 165.5 639.0Q150 625 130 625Q108 625 93.0 639.0Q78 653 78 681Q78 710 93.0 723.5Q108 737 130 737ZM173 536V0H85V536ZM99 -116Q99 -161 144 -161Q161 -161 172.5 -158.5Q184 -156 192 -155V-211Q178 -215 164.0 -217.5Q150 -220 130 -220Q77 -220 52.0 -195.0Q27 -170 27 -126Q27 -97 41.5 -70.0Q56 -43 77.5 -21.0Q99 1 119 15L167 0Q133 -32 116.0 -58.5Q99 -85 99 -116Z" />
  </g>
</svg>