<svg xmlns="http://www.w3.org/2000/svg" viewBox="61 -10 659 865">
  <g transform="translate(0, 845) scale(1, -1)">
    <path fill="black" d="M720 358Q720 247 682.5 164.5Q645 82 572.0 36.0Q499 -10 391 -10Q280 -10 206.5 36.0Q133 82 97.0 165.0Q61 248 61 359Q61 469 97.0 551.0Q133 633 206.5 679.0Q280 725 392 725Q499 725 572.0 679.5Q645 634 682.5 551.5Q720 469 720 358ZM156 358Q156 223 213.0 145.5Q270 68 391 68Q513 68 569.0 145.5Q625 223 625 358Q625 493 569.0 569.5Q513 646 392 646Q271 646 213.5 569.5Q156 493 156 358ZM539 855V784H242V855Z" />
  </g>
</svg>