<svg xmlns="http://www.w3.org/2000/svg" viewBox="54 -10 840 555">
  <g transform="translate(0, 535) scale(1, -1)">
    <path fill="black" d="M677 545Q778 545 836.0 479.5Q894 414 894 304V251H538Q540 155 581.5 110.0Q623 65 700 65Q753 65 791.5 74.5Q830 84 870 102V25Q830 7 791.0 -1.5Q752 -10 699 -10Q631 -10 579.0 18.0Q527 46 495 101Q464 46 413.0 18.0Q362 -10 296 -10Q226 -10 171.5 22.5Q117 55 85.5 117.5Q54 180 54 269Q54 401 119.5 473.0Q185 545 299 545Q362 545 412.0 517.0Q462 489 492 435Q521 488 568.5 516.5Q616 545 677 545ZM676 473Q616 473 581.0 434.0Q546 395 540 321H801Q801 390 771.0 431.5Q741 473 676 473ZM295 472Q216 472 181.0 421.0Q146 370 146 269Q146 168 182.0 115.5Q218 63 297 63Q375 63 411.0 114.0Q447 165 447 265Q447 369 410.5 420.5Q374 472 295 472Z" />
  </g>
</svg>