<svg xmlns="http://www.w3.org/2000/svg" viewBox="97 0 510 944">
  <g transform="translate(0, 944) scale(1, -1)">
    <path fill="black" d="M294 714Q427 714 490.5 663.5Q554 613 554 511Q554 454 533.0 416.0Q512 378 479.5 355.5Q447 333 411 320L607 0H502L329 295H187V0H97V714ZM289 636H187V371H294Q381 371 421.0 405.5Q461 440 461 507Q461 577 419.0 606.5Q377 636 289 636ZM459 934Q447 916 422.0 887.5Q397 859 368.5 830.5Q340 802 316 784H258V796Q273 815 290.5 841.0Q308 867 325.0 894.5Q342 922 353 944H459Z" />
  </g>
</svg>