<svg xmlns="http://www.w3.org/2000/svg" viewBox="97 -221 510 935">
  <g transform="translate(0, 493) scale(1, -1)">
    <path fill="black" d="M294 714Q427 714 490.5 663.5Q554 613 554 511Q554 454 533.0 416.0Q512 378 479.5 355.5Q447 333 411 320L607 0H502L329 295H187V0H97V714ZM289 636H187V371H294Q381 371 421.0 405.5Q461 440 461 507Q461 577 419.0 606.5Q377 636 289 636ZM392 -70Q388 -88 375.5 -115.5Q363 -143 346.5 -171.0Q330 -199 312 -221H264V-209Q272 -192 280.5 -165.5Q289 -139 296.0 -110.5Q303 -82 305 -61H392Z" />
  </g>
</svg>