<svg xmlns="http://www.w3.org/2000/svg" viewBox="62 -221 336 767">
  <g transform="translate(0, 325) scale(1, -1)">
    <path fill="black" d="M335 546Q350 546 367.5 544.5Q385 543 398 540L387 459Q374 462 358.5 464.0Q343 466 329 466Q288 466 252.0 443.5Q216 421 194.5 380.5Q173 340 173 286V0H85V536H157L167 438H171Q197 482 238.0 514.0Q279 546 335 546ZM190 -70Q186 -88 173.5 -115.5Q161 -143 144.5 -171.0Q128 -199 110 -221H62V-209Q70 -192 78.5 -165.5Q87 -139 94.0 -110.5Q101 -82 103 -61H190Z" />
  </g>
</svg>