<svg xmlns="http://www.w3.org/2000/svg" viewBox="90 -10 550 928">
  <g transform="translate(0, 908) scale(1, -1)">
    <path fill="black" d="M640 252Q640 178 610.0 118.5Q580 59 518.5 24.5Q457 -10 362 -10Q229 -10 159.5 62.5Q90 135 90 254V714H180V251Q180 164 226.5 116.0Q273 68 367 68Q464 68 507.5 119.5Q551 171 551 252V714H640ZM521 918Q516 858 475.5 821.0Q435 784 363 784Q289 784 251.5 820.5Q214 857 210 918H264Q269 877 294.0 866.0Q319 855 365 855Q404 855 432.5 867.0Q461 879 466 918Z" />
  </g>
</svg>