<svg xmlns="http://www.w3.org/2000/svg" viewBox="90 -10 550 1005">
  <g transform="translate(0, 985) scale(1, -1)">
    <path fill="black" d="M640 252Q640 178 610.0 118.5Q580 59 518.5 24.5Q457 -10 362 -10Q229 -10 159.5 62.5Q90 135 90 254V714H180V251Q180 164 226.5 116.0Q273 68 367 68Q464 68 507.5 119.5Q551 171 551 252V714H640ZM365 784Q316 784 286.0 812.0Q256 840 256 890Q256 940 286.0 967.5Q316 995 365 995Q412 995 444.0 967.5Q476 940 476 891Q476 840 444.5 812.0Q413 784 365 784ZM365 834Q390 834 405.5 849.0Q421 864 421 890Q421 916 405.0 931.0Q389 946 365 946Q341 946 325.0 931.0Q309 916 309 890Q309 864 323.5 849.0Q338 834 365 834Z" />
  </g>
</svg>