<svg xmlns="http://www.w3.org/2000/svg" viewBox="1 -240 509 1006">
  <g transform="translate(0, 526) scale(1, -1)">
    <path fill="black" d="M1 536H95L211 231Q226 191 238.0 154.5Q250 118 256 85H260Q266 110 279.0 150.5Q292 191 306 232L415 536H510L279 -74Q251 -150 206.5 -195.0Q162 -240 84 -240Q60 -240 42.0 -237.5Q24 -235 11 -232V-162Q22 -164 37.5 -166.0Q53 -168 70 -168Q116 -168 144.5 -142.0Q173 -116 189 -73L217 -2ZM299 766Q311 744 333.5 716.5Q356 689 380.5 662.5Q405 636 424 617V606H362Q336 622 308.0 645.5Q280 669 253 696Q226 669 199.0 646.0Q172 623 146 606H86V617Q105 637 128.5 663.0Q152 689 174.0 716.5Q196 744 209 766Z" />
  </g>
</svg>