<svg xmlns="http://www.w3.org/2000/svg" viewBox="0 0 638 944">
  <g transform="translate(0, 944) scale(1, -1)">
    <path fill="black" d="M545 0 459 221H176L91 0H0L279 717H360L638 0ZM352 517Q349 525 342.0 546.0Q335 567 328.5 589.5Q322 612 318 624Q311 593 302.0 563.5Q293 534 287 517L206 301H432ZM272 784Q259 807 237.0 833.5Q215 860 191.0 886.0Q167 912 149 931V944H209Q235 927 263.0 903.0Q291 879 316 852Q343 879 371.0 903.0Q399 927 425 944H487V931Q468 912 443.5 886.0Q419 860 396.5 833.5Q374 807 362 784Z" />
  </g>
</svg>