<svg xmlns="http://www.w3.org/2000/svg" viewBox="11 1 764 729">
  <g transform="translate(0, 731) scale(1, -1)">
    <path fill="black" d="M431 303Q418 344 408.5 383.5Q399 423 394 445H390Q386 423 377.0 383.5Q368 344 354 302L258 1H158L11 537H102L176 251Q187 208 197.0 164.0Q207 120 211 91H215Q219 108 224.5 133.0Q230 158 237.0 185.5Q244 213 251 235L346 537H442L534 235Q545 201 555.5 161.0Q566 121 570 92H574Q577 117 587.5 161.0Q598 205 610 251L685 537H775L626 1H523ZM253 681Q253 707 267.0 718.5Q281 730 300 730Q319 730 333.0 718.5Q347 707 347 681Q347 656 333.0 643.5Q319 631 300 631Q281 631 267.0 643.5Q253 656 253 681ZM441 681Q441 707 454.5 718.5Q468 730 487 730Q506 730 520.0 718.5Q534 707 534 681Q534 656 520.0 643.5Q506 631 487 631Q468 631 454.5 643.5Q441 656 441 681Z" />
  </g>
</svg>